<?xml version="1.0" encoding="UTF-8" standalone="no"?>
<!DOCTYPE svg PUBLIC "-//W3C//DTD SVG 1.1//EN"
 "http://www.w3.org/Graphics/SVG/1.1/DTD/svg11.dtd">
<!-- Generated by graphviz version 2.38.0 (20140413.2041)
 -->
<!-- Title: Graphical Class Hierarchy Pages: 1 -->
<svg width="485pt" height="1447pt"
 viewBox="0.00 0.00 485.16 1447.00" xmlns="http://www.w3.org/2000/svg" xmlns:xlink="http://www.w3.org/1999/xlink">
<g id="graph0" class="graph" transform="scale(1 1) rotate(0) translate(4 1443)">
<title>Graphical Class Hierarchy</title>
<polygon fill="white" stroke="none" points="-4,4 -4,-1443 481.16,-1443 481.16,4 -4,4"/>
<!-- Node164 -->
<g id="node1" class="node"><title>Node164</title>
<polygon fill="white" stroke="#bfbfbf" points="0,-705.5 0,-733.5 220.58,-733.5 220.58,-705.5 0,-705.5"/>
<text text-anchor="start" x="8" y="-721.5" font-family="Helvetica,sans-Serif" font-size="10.00">pymoduleconnector.moduleconnectorwrapper.</text>
<text text-anchor="middle" x="110.29" y="-711.5" font-family="Helvetica,sans-Serif" font-size="10.00">_object</text>
</g>
<!-- Node0 -->
<g id="node2" class="node"><title>Node0</title>
<g id="a_node2"><a xlink:href="classpymoduleconnector_1_1moduleconnectorwrapper_1_1_baseband_ap_data.xhtml" target="_top" xlink:title="pymoduleconnector.moduleconnectorwrapper.\lBasebandApData">
<polygon fill="white" stroke="black" points="256.58,-1410.5 256.58,-1438.5 477.16,-1438.5 477.16,-1410.5 256.58,-1410.5"/>
<text text-anchor="start" x="264.58" y="-1426.5" font-family="Helvetica,sans-Serif" font-size="10.00">pymoduleconnector.moduleconnectorwrapper.</text>
<text text-anchor="middle" x="366.87" y="-1416.5" font-family="Helvetica,sans-Serif" font-size="10.00">BasebandApData</text>
</a>
</g>
</g>
<!-- Node164&#45;&gt;Node0 -->
<g id="edge1" class="edge"><title>Node164&#45;&gt;Node0</title>
<path fill="none" stroke="midnightblue" d="M113,-743.876C121.24,-854.21 160.46,-1305.62 256.58,-1401.5 260.012,-1404.92 263.816,-1407.9 267.886,-1410.48"/>
<polygon fill="midnightblue" stroke="midnightblue" points="116.48,-743.462 112.26,-733.744 109.498,-743.972 116.48,-743.462"/>
</g>
<!-- Node166 -->
<g id="node3" class="node"><title>Node166</title>
<g id="a_node3"><a xlink:href="classpymoduleconnector_1_1moduleconnectorwrapper_1_1_baseband_iq_data.xhtml" target="_top" xlink:title="pymoduleconnector.moduleconnectorwrapper.\lBasebandIqData">
<polygon fill="white" stroke="black" points="256.58,-1363.5 256.58,-1391.5 477.16,-1391.5 477.16,-1363.5 256.58,-1363.5"/>
<text text-anchor="start" x="264.58" y="-1379.5" font-family="Helvetica,sans-Serif" font-size="10.00">pymoduleconnector.moduleconnectorwrapper.</text>
<text text-anchor="middle" x="366.87" y="-1369.5" font-family="Helvetica,sans-Serif" font-size="10.00">BasebandIqData</text>
</a>
</g>
</g>
<!-- Node164&#45;&gt;Node166 -->
<g id="edge2" class="edge"><title>Node164&#45;&gt;Node166</title>
<path fill="none" stroke="midnightblue" d="M113.411,-743.858C123.098,-849.425 166.59,-1266.07 256.58,-1354.5 260.038,-1357.9 263.862,-1360.85 267.949,-1363.41"/>
<polygon fill="midnightblue" stroke="midnightblue" points="116.869,-743.234 112.486,-733.588 109.897,-743.862 116.869,-743.234"/>
</g>
<!-- Node167 -->
<g id="node4" class="node"><title>Node167</title>
<g id="a_node4"><a xlink:href="classpymoduleconnector_1_1moduleconnectorwrapper_1_1_data_record.xhtml" target="_top" xlink:title="Encapsulates data and information about one data record on disk. ">
<polygon fill="white" stroke="black" points="256.58,-1316.5 256.58,-1344.5 477.16,-1344.5 477.16,-1316.5 256.58,-1316.5"/>
<text text-anchor="start" x="264.58" y="-1332.5" font-family="Helvetica,sans-Serif" font-size="10.00">pymoduleconnector.moduleconnectorwrapper.</text>
<text text-anchor="middle" x="366.87" y="-1322.5" font-family="Helvetica,sans-Serif" font-size="10.00">DataRecord</text>
</a>
</g>
</g>
<!-- Node164&#45;&gt;Node167 -->
<g id="edge3" class="edge"><title>Node164&#45;&gt;Node167</title>
<path fill="none" stroke="midnightblue" d="M113.865,-743.664C125.048,-844.017 172.648,-1226.44 256.58,-1307.5 260.067,-1310.87 263.915,-1313.8 268.02,-1316.34"/>
<polygon fill="midnightblue" stroke="midnightblue" points="117.331,-743.157 112.761,-733.598 110.373,-743.92 117.331,-743.157"/>
</g>
<!-- Node168 -->
<g id="node5" class="node"><title>Node168</title>
<g id="a_node5"><a xlink:href="classpymoduleconnector_1_1moduleconnectorwrapper_1_1_data_type.xhtml" target="_top" xlink:title="Proxy of C++ XeThru::DataType class. ">
<polygon fill="white" stroke="black" points="256.58,-1269.5 256.58,-1297.5 477.16,-1297.5 477.16,-1269.5 256.58,-1269.5"/>
<text text-anchor="start" x="264.58" y="-1285.5" font-family="Helvetica,sans-Serif" font-size="10.00">pymoduleconnector.moduleconnectorwrapper.</text>
<text text-anchor="middle" x="366.87" y="-1275.5" font-family="Helvetica,sans-Serif" font-size="10.00">DataType</text>
</a>
</g>
</g>
<!-- Node164&#45;&gt;Node168 -->
<g id="edge4" class="edge"><title>Node164&#45;&gt;Node168</title>
<path fill="none" stroke="midnightblue" d="M114.443,-743.86C127.298,-839.398 178.788,-1186.87 256.58,-1260.5 260.101,-1263.83 263.976,-1266.73 268.103,-1269.25"/>
<polygon fill="midnightblue" stroke="midnightblue" points="117.884,-743.182 113.099,-733.73 110.945,-744.103 117.884,-743.182"/>
</g>
<!-- Node169 -->
<g id="node6" class="node"><title>Node169</title>
<g id="a_node6"><a xlink:href="classpymoduleconnector_1_1moduleconnectorwrapper_1_1_detection_zone.xhtml" target="_top" xlink:title="Representation of the detection zone. ">
<polygon fill="white" stroke="black" points="256.58,-1222.5 256.58,-1250.5 477.16,-1250.5 477.16,-1222.5 256.58,-1222.5"/>
<text text-anchor="start" x="264.58" y="-1238.5" font-family="Helvetica,sans-Serif" font-size="10.00">pymoduleconnector.moduleconnectorwrapper.</text>
<text text-anchor="middle" x="366.87" y="-1228.5" font-family="Helvetica,sans-Serif" font-size="10.00">DetectionZone</text>
</a>
</g>
</g>
<!-- Node164&#45;&gt;Node169 -->
<g id="edge5" class="edge"><title>Node164&#45;&gt;Node169</title>
<path fill="none" stroke="midnightblue" d="M115.134,-744.062C129.781,-834.517 184.895,-1147.24 256.58,-1213.5 260.282,-1216.92 264.36,-1219.89 268.698,-1222.45"/>
<polygon fill="midnightblue" stroke="midnightblue" points="118.551,-743.26 113.515,-733.938 111.639,-744.366 118.551,-743.26"/>
</g>
<!-- Node170 -->
<g id="node7" class="node"><title>Node170</title>
<g id="a_node7"><a xlink:href="classpymoduleconnector_1_1moduleconnectorwrapper_1_1_detection_zone_limits.xhtml" target="_top" xlink:title="Is an aggrgation of parameters used to represent the detection zone limits. ">
<polygon fill="white" stroke="black" points="256.58,-1175.5 256.58,-1203.5 477.16,-1203.5 477.16,-1175.5 256.58,-1175.5"/>
<text text-anchor="start" x="264.58" y="-1191.5" font-family="Helvetica,sans-Serif" font-size="10.00">pymoduleconnector.moduleconnectorwrapper.</text>
<text text-anchor="middle" x="366.87" y="-1181.5" font-family="Helvetica,sans-Serif" font-size="10.00">DetectionZoneLimits</text>
</a>
</g>
</g>
<!-- Node164&#45;&gt;Node170 -->
<g id="edge6" class="edge"><title>Node164&#45;&gt;Node170</title>
<path fill="none" stroke="midnightblue" d="M111.284,-744.209C112.691,-819.965 127.831,-1050.82 256.58,-1166.5 260.402,-1169.93 264.604,-1172.9 269.066,-1175.47"/>
<polygon fill="midnightblue" stroke="midnightblue" points="114.779,-743.764 111.163,-733.805 107.78,-743.846 114.779,-743.764"/>
</g>
<!-- Node171 -->
<g id="node8" class="node"><title>Node171</title>
<g id="a_node8"><a xlink:href="classpymoduleconnector_1_1moduleconnectorwrapper_1_1_files.xhtml" target="_top" xlink:title="pymoduleconnector.moduleconnectorwrapper.\lFiles">
<polygon fill="white" stroke="black" points="256.58,-1128.5 256.58,-1156.5 477.16,-1156.5 477.16,-1128.5 256.58,-1128.5"/>
<text text-anchor="start" x="264.58" y="-1144.5" font-family="Helvetica,sans-Serif" font-size="10.00">pymoduleconnector.moduleconnectorwrapper.</text>
<text text-anchor="middle" x="366.87" y="-1134.5" font-family="Helvetica,sans-Serif" font-size="10.00">Files</text>
</a>
</g>
</g>
<!-- Node164&#45;&gt;Node171 -->
<g id="edge7" class="edge"><title>Node164&#45;&gt;Node171</title>
<path fill="none" stroke="midnightblue" d="M112.342,-743.975C116.754,-814.215 139.538,-1017.9 256.58,-1119.5 260.533,-1122.93 264.869,-1125.9 269.461,-1128.45"/>
<polygon fill="midnightblue" stroke="midnightblue" points="115.831,-743.674 111.78,-733.884 108.842,-744.063 115.831,-743.674"/>
</g>
<!-- Node172 -->
<g id="node9" class="node"><title>Node172</title>
<g id="a_node9"><a xlink:href="classpymoduleconnector_1_1moduleconnectorwrapper_1_1_frame_area.xhtml" target="_top" xlink:title="pymoduleconnector.moduleconnectorwrapper.\lFrameArea">
<polygon fill="white" stroke="black" points="256.58,-1081.5 256.58,-1109.5 477.16,-1109.5 477.16,-1081.5 256.58,-1081.5"/>
<text text-anchor="start" x="264.58" y="-1097.5" font-family="Helvetica,sans-Serif" font-size="10.00">pymoduleconnector.moduleconnectorwrapper.</text>
<text text-anchor="middle" x="366.87" y="-1087.5" font-family="Helvetica,sans-Serif" font-size="10.00">FrameArea</text>
</a>
</g>
</g>
<!-- Node164&#45;&gt;Node172 -->
<g id="edge8" class="edge"><title>Node164&#45;&gt;Node172</title>
<path fill="none" stroke="midnightblue" d="M113.627,-743.683C121.207,-808.075 151.105,-984.757 256.58,-1072.5 260.679,-1075.91 265.159,-1078.85 269.89,-1081.39"/>
<polygon fill="midnightblue" stroke="midnightblue" points="117.099,-743.23 112.525,-733.673 110.141,-743.996 117.099,-743.23"/>
</g>
<!-- Node173 -->
<g id="node10" class="node"><title>Node173</title>
<g id="a_node10"><a xlink:href="classpymoduleconnector_1_1moduleconnectorwrapper_1_1_io_pin_control.xhtml" target="_top" xlink:title="Representation of io pin control configuration. ">
<polygon fill="white" stroke="black" points="256.58,-1034.5 256.58,-1062.5 477.16,-1062.5 477.16,-1034.5 256.58,-1034.5"/>
<text text-anchor="start" x="264.58" y="-1050.5" font-family="Helvetica,sans-Serif" font-size="10.00">pymoduleconnector.moduleconnectorwrapper.</text>
<text text-anchor="middle" x="366.87" y="-1040.5" font-family="Helvetica,sans-Serif" font-size="10.00">IoPinControl</text>
</a>
</g>
</g>
<!-- Node164&#45;&gt;Node173 -->
<g id="edge9" class="edge"><title>Node164&#45;&gt;Node173</title>
<path fill="none" stroke="midnightblue" d="M115.35,-743.982C126.426,-802.604 162.854,-951.631 256.58,-1025.5 260.92,-1028.92 265.648,-1031.86 270.625,-1034.4"/>
<polygon fill="midnightblue" stroke="midnightblue" points="118.736,-743.038 113.516,-733.818 111.848,-744.281 118.736,-743.038"/>
</g>
<!-- Node174 -->
<g id="node11" class="node"><title>Node174</title>
<g id="a_node11"><a xlink:href="classpymoduleconnector_1_1moduleconnectorwrapper_1_1_periodic_noisemap_store.xhtml" target="_top" xlink:title="Representation of periodic noisemap store parameters. ">
<polygon fill="white" stroke="black" points="256.58,-987.5 256.58,-1015.5 477.16,-1015.5 477.16,-987.5 256.58,-987.5"/>
<text text-anchor="start" x="264.58" y="-1003.5" font-family="Helvetica,sans-Serif" font-size="10.00">pymoduleconnector.moduleconnectorwrapper.</text>
<text text-anchor="middle" x="366.87" y="-993.5" font-family="Helvetica,sans-Serif" font-size="10.00">PeriodicNoisemapStore</text>
</a>
</g>
</g>
<!-- Node164&#45;&gt;Node174 -->
<g id="edge10" class="edge"><title>Node164&#45;&gt;Node174</title>
<path fill="none" stroke="midnightblue" d="M117.436,-743.423C132.046,-795.192 173.971,-917.825 256.58,-978.5 261.268,-981.943 266.359,-984.896 271.692,-987.424"/>
<polygon fill="midnightblue" stroke="midnightblue" points="120.812,-742.5 114.801,-733.775 114.06,-744.344 120.812,-742.5"/>
</g>
<!-- Node175 -->
<g id="node12" class="node"><title>Node175</title>
<g id="a_node12"><a xlink:href="classpymoduleconnector_1_1moduleconnectorwrapper_1_1_preferred_split_size.xhtml" target="_top" xlink:title="The PreferredSplitSize class allows specifying a split size. ">
<polygon fill="white" stroke="black" points="256.58,-940.5 256.58,-968.5 477.16,-968.5 477.16,-940.5 256.58,-940.5"/>
<text text-anchor="start" x="264.58" y="-956.5" font-family="Helvetica,sans-Serif" font-size="10.00">pymoduleconnector.moduleconnectorwrapper.</text>
<text text-anchor="middle" x="366.87" y="-946.5" font-family="Helvetica,sans-Serif" font-size="10.00">PreferredSplitSize</text>
</a>
</g>
</g>
<!-- Node164&#45;&gt;Node175 -->
<g id="edge11" class="edge"><title>Node164&#45;&gt;Node175</title>
<path fill="none" stroke="midnightblue" d="M120.353,-743.032C138.766,-787.5 184.973,-883.689 256.58,-931.5 261.74,-934.945 267.318,-937.889 273.128,-940.402"/>
<polygon fill="midnightblue" stroke="midnightblue" points="123.546,-741.592 116.558,-733.629 117.055,-744.212 123.546,-741.592"/>
</g>
<!-- Node176 -->
<g id="node13" class="node"><title>Node176</title>
<g id="a_node13"><a xlink:href="classpymoduleconnector_1_1moduleconnectorwrapper_1_1_pulse_doppler_byte_data.xhtml" target="_top" xlink:title="Represents one half or one range bin of pulse&#45;Doppler in byte format. ">
<polygon fill="white" stroke="black" points="256.58,-893.5 256.58,-921.5 477.16,-921.5 477.16,-893.5 256.58,-893.5"/>
<text text-anchor="start" x="264.58" y="-909.5" font-family="Helvetica,sans-Serif" font-size="10.00">pymoduleconnector.moduleconnectorwrapper.</text>
<text text-anchor="middle" x="366.87" y="-899.5" font-family="Helvetica,sans-Serif" font-size="10.00">PulseDopplerByteData</text>
</a>
</g>
</g>
<!-- Node164&#45;&gt;Node176 -->
<g id="edge12" class="edge"><title>Node164&#45;&gt;Node176</title>
<path fill="none" stroke="midnightblue" d="M124.721,-742.612C147.131,-778.966 195.75,-849.011 256.58,-884.5 262.526,-887.969 268.924,-890.918 275.535,-893.424"/>
<polygon fill="midnightblue" stroke="midnightblue" points="127.518,-740.472 119.351,-733.722 121.526,-744.092 127.518,-740.472"/>
</g>
<!-- Node177 -->
<g id="node14" class="node"><title>Node177</title>
<g id="a_node14"><a xlink:href="classpymoduleconnector_1_1moduleconnectorwrapper_1_1_pulse_doppler_float_data.xhtml" target="_top" xlink:title="Represents one half or one range bin of pulse&#45;Doppler in float format. ">
<polygon fill="white" stroke="black" points="256.58,-846.5 256.58,-874.5 477.16,-874.5 477.16,-846.5 256.58,-846.5"/>
<text text-anchor="start" x="264.58" y="-862.5" font-family="Helvetica,sans-Serif" font-size="10.00">pymoduleconnector.moduleconnectorwrapper.</text>
<text text-anchor="middle" x="366.87" y="-852.5" font-family="Helvetica,sans-Serif" font-size="10.00">PulseDopplerFloatData</text>
</a>
</g>
</g>
<!-- Node164&#45;&gt;Node177 -->
<g id="edge13" class="edge"><title>Node164&#45;&gt;Node177</title>
<path fill="none" stroke="midnightblue" d="M131.233,-741.074C157.362,-767.965 205.854,-813.323 256.58,-837.5 263.931,-841.004 271.812,-843.977 279.851,-846.499"/>
<polygon fill="midnightblue" stroke="midnightblue" points="133.61,-738.495 124.168,-733.688 128.552,-743.334 133.61,-738.495"/>
</g>
<!-- Node178 -->
<g id="node15" class="node"><title>Node178</title>
<g id="a_node15"><a xlink:href="classpymoduleconnector_1_1moduleconnectorwrapper_1_1_py_data_player.xhtml" target="_top" xlink:title="pymoduleconnector.moduleconnectorwrapper.\lPyDataPlayer">
<polygon fill="white" stroke="black" points="256.58,-799.5 256.58,-827.5 477.16,-827.5 477.16,-799.5 256.58,-799.5"/>
<text text-anchor="start" x="264.58" y="-815.5" font-family="Helvetica,sans-Serif" font-size="10.00">pymoduleconnector.moduleconnectorwrapper.</text>
<text text-anchor="middle" x="366.87" y="-805.5" font-family="Helvetica,sans-Serif" font-size="10.00">PyDataPlayer</text>
</a>
</g>
</g>
<!-- Node164&#45;&gt;Node178 -->
<g id="edge14" class="edge"><title>Node164&#45;&gt;Node178</title>
<path fill="none" stroke="midnightblue" d="M144.25,-738.537C173.062,-754.455 216.45,-776.71 256.58,-790.5 266.482,-793.903 277.07,-796.893 287.613,-799.494"/>
<polygon fill="midnightblue" stroke="midnightblue" points="145.868,-735.431 135.431,-733.61 142.454,-741.542 145.868,-735.431"/>
</g>
<!-- Node179 -->
<g id="node16" class="node"><title>Node179</title>
<g id="a_node16"><a xlink:href="classpymoduleconnector_1_1moduleconnectorwrapper_1_1_py_data_reader.xhtml" target="_top" xlink:title="The PyDataReader class allows reading of xethru data records from a recording. ">
<polygon fill="white" stroke="black" points="256.58,-752.5 256.58,-780.5 477.16,-780.5 477.16,-752.5 256.58,-752.5"/>
<text text-anchor="start" x="264.58" y="-768.5" font-family="Helvetica,sans-Serif" font-size="10.00">pymoduleconnector.moduleconnectorwrapper.</text>
<text text-anchor="middle" x="366.87" y="-758.5" font-family="Helvetica,sans-Serif" font-size="10.00">PyDataReader</text>
</a>
</g>
</g>
<!-- Node164&#45;&gt;Node179 -->
<g id="edge15" class="edge"><title>Node164&#45;&gt;Node179</title>
<path fill="none" stroke="midnightblue" d="M197.347,-735.388C227.309,-740.919 260.689,-747.082 289.785,-752.453"/>
<polygon fill="midnightblue" stroke="midnightblue" points="197.797,-731.912 187.328,-733.538 196.526,-738.795 197.797,-731.912"/>
</g>
<!-- Node180 -->
<g id="node17" class="node"><title>Node180</title>
<g id="a_node17"><a xlink:href="classpymoduleconnector_1_1moduleconnectorwrapper_1_1_py_data_recorder.xhtml" target="_top" xlink:title="The DataRecorder class allows recording of xethru data types. ">
<polygon fill="white" stroke="black" points="256.58,-705.5 256.58,-733.5 477.16,-733.5 477.16,-705.5 256.58,-705.5"/>
<text text-anchor="start" x="264.58" y="-721.5" font-family="Helvetica,sans-Serif" font-size="10.00">pymoduleconnector.moduleconnectorwrapper.</text>
<text text-anchor="middle" x="366.87" y="-711.5" font-family="Helvetica,sans-Serif" font-size="10.00">PyDataRecorder</text>
</a>
</g>
</g>
<!-- Node164&#45;&gt;Node180 -->
<g id="edge16" class="edge"><title>Node164&#45;&gt;Node180</title>
<path fill="none" stroke="midnightblue" d="M230.779,-719.5C239.364,-719.5 247.997,-719.5 256.52,-719.5"/>
<polygon fill="midnightblue" stroke="midnightblue" points="230.732,-716 220.732,-719.5 230.732,-723 230.732,-716"/>
</g>
<!-- Node181 -->
<g id="node18" class="node"><title>Node181</title>
<g id="a_node18"><a xlink:href="classpymoduleconnector_1_1moduleconnectorwrapper_1_1_python_module_connector.xhtml" target="_top" xlink:title="This class is responsible for establishing contact with the XeThru module. ">
<polygon fill="white" stroke="black" points="256.58,-658.5 256.58,-686.5 477.16,-686.5 477.16,-658.5 256.58,-658.5"/>
<text text-anchor="start" x="264.58" y="-674.5" font-family="Helvetica,sans-Serif" font-size="10.00">pymoduleconnector.moduleconnectorwrapper.</text>
<text text-anchor="middle" x="366.87" y="-664.5" font-family="Helvetica,sans-Serif" font-size="10.00">PythonModuleConnector</text>
</a>
</g>
</g>
<!-- Node164&#45;&gt;Node181 -->
<g id="edge17" class="edge"><title>Node164&#45;&gt;Node181</title>
<path fill="none" stroke="midnightblue" d="M197.347,-703.612C227.309,-698.081 260.689,-691.918 289.785,-686.547"/>
<polygon fill="midnightblue" stroke="midnightblue" points="196.526,-700.205 187.328,-705.462 197.797,-707.088 196.526,-700.205"/>
</g>
<!-- Node182 -->
<g id="node19" class="node"><title>Node182</title>
<g id="a_node19"><a xlink:href="classpymoduleconnector_1_1moduleconnectorwrapper_1_1_py_x2_m200.xhtml" target="_top" xlink:title="Interface to the Xethru X2M200 Application module. ">
<polygon fill="white" stroke="black" points="256.58,-611.5 256.58,-639.5 477.16,-639.5 477.16,-611.5 256.58,-611.5"/>
<text text-anchor="start" x="264.58" y="-627.5" font-family="Helvetica,sans-Serif" font-size="10.00">pymoduleconnector.moduleconnectorwrapper.</text>
<text text-anchor="middle" x="366.87" y="-617.5" font-family="Helvetica,sans-Serif" font-size="10.00">PyX2M200</text>
</a>
</g>
</g>
<!-- Node164&#45;&gt;Node182 -->
<g id="edge18" class="edge"><title>Node164&#45;&gt;Node182</title>
<path fill="none" stroke="midnightblue" d="M144.834,-700.562C173.687,-684.957 216.819,-663.233 256.58,-649.5 267.505,-645.726 279.256,-642.41 290.858,-639.543"/>
<polygon fill="midnightblue" stroke="midnightblue" points="143.087,-697.528 135.991,-705.396 146.444,-703.671 143.087,-697.528"/>
</g>
<!-- Node183 -->
<g id="node20" class="node"><title>Node183</title>
<g id="a_node20"><a xlink:href="classpymoduleconnector_1_1moduleconnectorwrapper_1_1_py_x4_m200.xhtml" target="_top" xlink:title="C++ includes: PyX4M200.hpp. ">
<polygon fill="white" stroke="black" points="256.58,-564.5 256.58,-592.5 477.16,-592.5 477.16,-564.5 256.58,-564.5"/>
<text text-anchor="start" x="264.58" y="-580.5" font-family="Helvetica,sans-Serif" font-size="10.00">pymoduleconnector.moduleconnectorwrapper.</text>
<text text-anchor="middle" x="366.87" y="-570.5" font-family="Helvetica,sans-Serif" font-size="10.00">PyX4M200</text>
</a>
</g>
</g>
<!-- Node164&#45;&gt;Node183 -->
<g id="edge19" class="edge"><title>Node164&#45;&gt;Node183</title>
<path fill="none" stroke="midnightblue" d="M131.304,-698.185C157.509,-671.601 206.079,-626.712 256.58,-602.5 264.725,-598.595 273.518,-595.316 282.453,-592.566"/>
<polygon fill="midnightblue" stroke="midnightblue" points="128.672,-695.871 124.218,-705.484 133.695,-700.747 128.672,-695.871"/>
</g>
<!-- Node184 -->
<g id="node21" class="node"><title>Node184</title>
<g id="a_node21"><a xlink:href="classpymoduleconnector_1_1moduleconnectorwrapper_1_1_py_x4_m210.xhtml" target="_top" xlink:title="Proxy of C++ XeThru::PyX4M210 class. ">
<polygon fill="white" stroke="black" points="256.58,-517.5 256.58,-545.5 477.16,-545.5 477.16,-517.5 256.58,-517.5"/>
<text text-anchor="start" x="264.58" y="-533.5" font-family="Helvetica,sans-Serif" font-size="10.00">pymoduleconnector.moduleconnectorwrapper.</text>
<text text-anchor="middle" x="366.87" y="-523.5" font-family="Helvetica,sans-Serif" font-size="10.00">PyX4M210</text>
</a>
</g>
</g>
<!-- Node164&#45;&gt;Node184 -->
<g id="edge20" class="edge"><title>Node164&#45;&gt;Node184</title>
<path fill="none" stroke="midnightblue" d="M124.793,-696.591C147.304,-660.544 196.059,-591.041 256.58,-555.5 263.281,-551.565 270.555,-548.274 278.061,-545.521"/>
<polygon fill="midnightblue" stroke="midnightblue" points="121.634,-695.048 119.398,-705.404 127.604,-698.703 121.634,-695.048"/>
</g>
<!-- Node185 -->
<g id="node22" class="node"><title>Node185</title>
<g id="a_node22"><a xlink:href="classpymoduleconnector_1_1moduleconnectorwrapper_1_1_py_x4_m300.xhtml" target="_top" xlink:title="C++ includes: PyX4M300.hpp. ">
<polygon fill="white" stroke="black" points="256.58,-470.5 256.58,-498.5 477.16,-498.5 477.16,-470.5 256.58,-470.5"/>
<text text-anchor="start" x="264.58" y="-486.5" font-family="Helvetica,sans-Serif" font-size="10.00">pymoduleconnector.moduleconnectorwrapper.</text>
<text text-anchor="middle" x="366.87" y="-476.5" font-family="Helvetica,sans-Serif" font-size="10.00">PyX4M300</text>
</a>
</g>
</g>
<!-- Node164&#45;&gt;Node185 -->
<g id="edge21" class="edge"><title>Node164&#45;&gt;Node185</title>
<path fill="none" stroke="midnightblue" d="M120.423,-696.135C138.956,-651.971 185.359,-556.391 256.58,-508.5 262.383,-504.598 268.716,-501.318 275.314,-498.564"/>
<polygon fill="midnightblue" stroke="midnightblue" points="117.15,-694.892 116.601,-705.472 123.629,-697.543 117.15,-694.892"/>
</g>
<!-- Node186 -->
<g id="node23" class="node"><title>Node186</title>
<g id="a_node23"><a xlink:href="classpymoduleconnector_1_1moduleconnectorwrapper_1_1_py_x_e_p.xhtml" target="_top" xlink:title="C++ includes: PyXEP.hpp. ">
<polygon fill="white" stroke="black" points="256.58,-423.5 256.58,-451.5 477.16,-451.5 477.16,-423.5 256.58,-423.5"/>
<text text-anchor="start" x="264.58" y="-439.5" font-family="Helvetica,sans-Serif" font-size="10.00">pymoduleconnector.moduleconnectorwrapper.</text>
<text text-anchor="middle" x="366.87" y="-429.5" font-family="Helvetica,sans-Serif" font-size="10.00">PyXEP</text>
</a>
</g>
</g>
<!-- Node164&#45;&gt;Node186 -->
<g id="edge22" class="edge"><title>Node164&#45;&gt;Node186</title>
<path fill="none" stroke="midnightblue" d="M117.597,-695.398C132.427,-643.747 174.6,-522.162 256.58,-461.5 261.811,-457.629 267.545,-454.36 273.56,-451.602"/>
<polygon fill="midnightblue" stroke="midnightblue" points="114.148,-694.74 114.843,-705.312 120.892,-696.614 114.148,-694.74"/>
</g>
<!-- Node187 -->
<g id="node24" class="node"><title>Node187</title>
<g id="a_node24"><a xlink:href="classpymoduleconnector_1_1moduleconnectorwrapper_1_1_radar_baseband_float_data.xhtml" target="_top" xlink:title="pymoduleconnector.moduleconnectorwrapper.\lRadarBasebandFloatData">
<polygon fill="white" stroke="black" points="256.58,-376.5 256.58,-404.5 477.16,-404.5 477.16,-376.5 256.58,-376.5"/>
<text text-anchor="start" x="264.58" y="-392.5" font-family="Helvetica,sans-Serif" font-size="10.00">pymoduleconnector.moduleconnectorwrapper.</text>
<text text-anchor="middle" x="366.87" y="-382.5" font-family="Helvetica,sans-Serif" font-size="10.00">RadarBasebandFloatData</text>
</a>
</g>
</g>
<!-- Node164&#45;&gt;Node187 -->
<g id="edge23" class="edge"><title>Node164&#45;&gt;Node187</title>
<path fill="none" stroke="midnightblue" d="M115.418,-695.149C126.644,-636.831 163.38,-488.521 256.58,-414.5 261.448,-410.634 266.806,-407.359 272.457,-404.589"/>
<polygon fill="midnightblue" stroke="midnightblue" points="111.925,-694.791 113.557,-705.259 118.809,-696.058 111.925,-694.791"/>
</g>
<!-- Node188 -->
<g id="node25" class="node"><title>Node188</title>
<g id="a_node25"><a xlink:href="classpymoduleconnector_1_1moduleconnectorwrapper_1_1_radar_baseband_q15_data.xhtml" target="_top" xlink:title="pymoduleconnector.moduleconnectorwrapper.\lRadarBasebandQ15Data">
<polygon fill="white" stroke="black" points="256.58,-329.5 256.58,-357.5 477.16,-357.5 477.16,-329.5 256.58,-329.5"/>
<text text-anchor="start" x="264.58" y="-345.5" font-family="Helvetica,sans-Serif" font-size="10.00">pymoduleconnector.moduleconnectorwrapper.</text>
<text text-anchor="middle" x="366.87" y="-335.5" font-family="Helvetica,sans-Serif" font-size="10.00">RadarBasebandQ15Data</text>
</a>
</g>
</g>
<!-- Node164&#45;&gt;Node188 -->
<g id="edge24" class="edge"><title>Node164&#45;&gt;Node188</title>
<path fill="none" stroke="midnightblue" d="M113.692,-695.435C121.434,-631.346 151.7,-455.437 256.58,-367.5 261.195,-363.631 266.294,-360.347 271.694,-357.563"/>
<polygon fill="midnightblue" stroke="midnightblue" points="110.212,-695.066 112.565,-705.396 117.168,-695.853 110.212,-695.066"/>
</g>
<!-- Node189 -->
<g id="node26" class="node"><title>Node189</title>
<g id="a_node26"><a xlink:href="classpymoduleconnector_1_1moduleconnectorwrapper_1_1_radar_rf_data.xhtml" target="_top" xlink:title="pymoduleconnector.moduleconnectorwrapper.\lRadarRfData">
<polygon fill="white" stroke="black" points="256.58,-282.5 256.58,-310.5 477.16,-310.5 477.16,-282.5 256.58,-282.5"/>
<text text-anchor="start" x="264.58" y="-298.5" font-family="Helvetica,sans-Serif" font-size="10.00">pymoduleconnector.moduleconnectorwrapper.</text>
<text text-anchor="middle" x="366.87" y="-288.5" font-family="Helvetica,sans-Serif" font-size="10.00">RadarRfData</text>
</a>
</g>
</g>
<!-- Node164&#45;&gt;Node189 -->
<g id="edge25" class="edge"><title>Node164&#45;&gt;Node189</title>
<path fill="none" stroke="midnightblue" d="M112.407,-695.134C116.993,-625.2 140.2,-422.342 256.58,-320.5 260.966,-316.662 265.824,-313.394 270.985,-310.615"/>
<polygon fill="midnightblue" stroke="midnightblue" points="108.909,-694.994 111.819,-705.181 115.897,-695.403 108.909,-694.994"/>
</g>
<!-- Node190 -->
<g id="node27" class="node"><title>Node190</title>
<g id="a_node27"><a xlink:href="classpymoduleconnector_1_1moduleconnectorwrapper_1_1_radar_rf_normalized_data.xhtml" target="_top" xlink:title="pymoduleconnector.moduleconnectorwrapper.\lRadarRfNormalizedData">
<polygon fill="white" stroke="black" points="256.58,-235.5 256.58,-263.5 477.16,-263.5 477.16,-235.5 256.58,-235.5"/>
<text text-anchor="start" x="264.58" y="-251.5" font-family="Helvetica,sans-Serif" font-size="10.00">pymoduleconnector.moduleconnectorwrapper.</text>
<text text-anchor="middle" x="366.87" y="-241.5" font-family="Helvetica,sans-Serif" font-size="10.00">RadarRfNormalizedData</text>
</a>
</g>
</g>
<!-- Node164&#45;&gt;Node190 -->
<g id="edge26" class="edge"><title>Node164&#45;&gt;Node190</title>
<path fill="none" stroke="midnightblue" d="M111.349,-694.894C112.941,-619.446 128.559,-389.464 256.58,-273.5 260.827,-269.653 265.547,-266.373 270.574,-263.582"/>
<polygon fill="midnightblue" stroke="midnightblue" points="107.844,-695.206 111.201,-705.255 114.843,-695.306 107.844,-695.206"/>
</g>
<!-- Node191 -->
<g id="node28" class="node"><title>Node191</title>
<g id="a_node28"><a xlink:href="classpymoduleconnector_1_1moduleconnectorwrapper_1_1_recording_options.xhtml" target="_top" xlink:title="The RecordingOptions class allows specifying options for recording. ">
<polygon fill="white" stroke="black" points="256.58,-188.5 256.58,-216.5 477.16,-216.5 477.16,-188.5 256.58,-188.5"/>
<text text-anchor="start" x="264.58" y="-204.5" font-family="Helvetica,sans-Serif" font-size="10.00">pymoduleconnector.moduleconnectorwrapper.</text>
<text text-anchor="middle" x="366.87" y="-194.5" font-family="Helvetica,sans-Serif" font-size="10.00">RecordingOptions</text>
</a>
</g>
</g>
<!-- Node164&#45;&gt;Node191 -->
<g id="edge27" class="edge"><title>Node164&#45;&gt;Node191</title>
<path fill="none" stroke="midnightblue" d="M110.466,-695.025C109.187,-614.719 116.616,-356.938 256.58,-226.5 260.701,-222.659 265.291,-219.381 270.191,-216.586"/>
<polygon fill="midnightblue" stroke="midnightblue" points="106.97,-695.228 110.692,-705.147 113.968,-695.072 106.97,-695.228"/>
</g>
<!-- Node192 -->
<g id="node29" class="node"><title>Node192</title>
<g id="a_node29"><a xlink:href="classpymoduleconnector_1_1moduleconnectorwrapper_1_1_respiration_data.xhtml" target="_top" xlink:title="Represents the respiration status data coming from the module. ">
<polygon fill="white" stroke="black" points="256.58,-141.5 256.58,-169.5 477.16,-169.5 477.16,-141.5 256.58,-141.5"/>
<text text-anchor="start" x="264.58" y="-157.5" font-family="Helvetica,sans-Serif" font-size="10.00">pymoduleconnector.moduleconnectorwrapper.</text>
<text text-anchor="middle" x="366.87" y="-147.5" font-family="Helvetica,sans-Serif" font-size="10.00">RespirationData</text>
</a>
</g>
</g>
<!-- Node164&#45;&gt;Node192 -->
<g id="edge28" class="edge"><title>Node164&#45;&gt;Node192</title>
<path fill="none" stroke="midnightblue" d="M114.469,-695.204C127.421,-599.916 179.228,-253.325 256.58,-179.5 260.585,-175.678 265.053,-172.409 269.831,-169.618"/>
<polygon fill="midnightblue" stroke="midnightblue" points="110.974,-694.931 113.114,-705.308 117.912,-695.862 110.974,-694.931"/>
</g>
<!-- Node193 -->
<g id="node30" class="node"><title>Node193</title>
<g id="a_node30"><a xlink:href="classpymoduleconnector_1_1moduleconnectorwrapper_1_1_sleep_data.xhtml" target="_top" xlink:title="Represents the sleep status data coming from the module. ">
<polygon fill="white" stroke="black" points="256.58,-94.5 256.58,-122.5 477.16,-122.5 477.16,-94.5 256.58,-94.5"/>
<text text-anchor="start" x="264.58" y="-110.5" font-family="Helvetica,sans-Serif" font-size="10.00">pymoduleconnector.moduleconnectorwrapper.</text>
<text text-anchor="middle" x="366.87" y="-100.5" font-family="Helvetica,sans-Serif" font-size="10.00">SleepData</text>
</a>
</g>
</g>
<!-- Node164&#45;&gt;Node193 -->
<g id="edge29" class="edge"><title>Node164&#45;&gt;Node193</title>
<path fill="none" stroke="midnightblue" d="M113.89,-695.396C125.174,-595.289 173.121,-213.778 256.58,-132.5 260.546,-128.637 264.984,-125.337 269.739,-122.522"/>
<polygon fill="midnightblue" stroke="midnightblue" points="110.401,-695.112 112.776,-705.437 117.358,-695.884 110.401,-695.112"/>
</g>
<!-- Node194 -->
<g id="node31" class="node"><title>Node194</title>
<g id="a_node31"><a xlink:href="classpymoduleconnector_1_1moduleconnectorwrapper_1_1_sleep_stage_data.xhtml" target="_top" xlink:title="pymoduleconnector.moduleconnectorwrapper.\lSleepStageData">
<polygon fill="white" stroke="black" points="256.58,-47.5 256.58,-75.5 477.16,-75.5 477.16,-47.5 256.58,-47.5"/>
<text text-anchor="start" x="264.58" y="-63.5" font-family="Helvetica,sans-Serif" font-size="10.00">pymoduleconnector.moduleconnectorwrapper.</text>
<text text-anchor="middle" x="366.87" y="-53.5" font-family="Helvetica,sans-Serif" font-size="10.00">SleepStageData</text>
</a>
</g>
</g>
<!-- Node164&#45;&gt;Node194 -->
<g id="edge30" class="edge"><title>Node164&#45;&gt;Node194</title>
<path fill="none" stroke="midnightblue" d="M113.436,-695.199C123.229,-589.878 167.096,-174.172 256.58,-85.5 260.444,-81.6714 264.77,-78.3932 269.41,-75.5908"/>
<polygon fill="midnightblue" stroke="midnightblue" points="109.925,-695.168 112.501,-705.445 116.896,-695.805 109.925,-695.168"/>
</g>
<!-- Node195 -->
<g id="node32" class="node"><title>Node195</title>
<g id="a_node32"><a xlink:href="classpymoduleconnector_1_1moduleconnectorwrapper_1_1_vital_signs_data.xhtml" target="_top" xlink:title="Various vital signs. ">
<polygon fill="white" stroke="black" points="256.58,-0.5 256.58,-28.5 477.16,-28.5 477.16,-0.5 256.58,-0.5"/>
<text text-anchor="start" x="264.58" y="-16.5" font-family="Helvetica,sans-Serif" font-size="10.00">pymoduleconnector.moduleconnectorwrapper.</text>
<text text-anchor="middle" x="366.87" y="-6.5" font-family="Helvetica,sans-Serif" font-size="10.00">VitalSignsData</text>
</a>
</g>
</g>
<!-- Node164&#45;&gt;Node195 -->
<g id="edge31" class="edge"><title>Node164&#45;&gt;Node195</title>
<path fill="none" stroke="midnightblue" d="M113.025,-695.178C121.374,-585.089 161,-134.653 256.58,-38.5 260.415,-34.6424 264.718,-31.3415 269.341,-28.5217"/>
<polygon fill="midnightblue" stroke="midnightblue" points="109.525,-695.057 112.275,-705.289 116.506,-695.575 109.525,-695.057"/>
</g>
</g>
</svg>
