<?xml version="1.0" encoding="UTF-8" standalone="no"?>
<!DOCTYPE svg PUBLIC "-//W3C//DTD SVG 1.1//EN"
 "http://www.w3.org/Graphics/SVG/1.1/DTD/svg11.dtd">
<!-- Generated by graphviz version 2.38.0 (20140413.2041)
 -->
<!-- Title: examples/generic/src/LinuxModuleIo.hpp Pages: 1 -->
<svg width="270pt" height="106pt"
 viewBox="0.00 0.00 270.00 106.00" xmlns="http://www.w3.org/2000/svg" xmlns:xlink="http://www.w3.org/1999/xlink">
<g id="graph0" class="graph" transform="scale(1 1) rotate(0) translate(4 102)">
<title>examples/generic/src/LinuxModuleIo.hpp</title>
<polygon fill="white" stroke="none" points="-4,4 -4,-102 266,-102 266,4 -4,4"/>
<!-- Node5 -->
<g id="node1" class="node"><title>Node5</title>
<polygon fill="#bfbfbf" stroke="black" points="70,-67.5 70,-97.5 180,-97.5 180,-67.5 70,-67.5"/>
<text text-anchor="start" x="78" y="-85.5" font-family="Helvetica,sans-Serif" font-size="10.00">examples/generic/src</text>
<text text-anchor="middle" x="125" y="-74.5" font-family="Helvetica,sans-Serif" font-size="10.00">/LinuxModuleIo.hpp</text>
</g>
<!-- Node6 -->
<g id="node2" class="node"><title>Node6</title>
<g id="a_node2"><a xlink:href="_linux_module_io_8cpp.xhtml" target="_top" xlink:title="examples/generic/src\l/LinuxModuleIo.cpp">
<polygon fill="white" stroke="black" points="0,-0.5 0,-30.5 110,-30.5 110,-0.5 0,-0.5"/>
<text text-anchor="start" x="8" y="-18.5" font-family="Helvetica,sans-Serif" font-size="10.00">examples/generic/src</text>
<text text-anchor="middle" x="55" y="-7.5" font-family="Helvetica,sans-Serif" font-size="10.00">/LinuxModuleIo.cpp</text>
</a>
</g>
</g>
<!-- Node5&#45;&gt;Node6 -->
<g id="edge1" class="edge"><title>Node5&#45;&gt;Node6</title>
<path fill="none" stroke="midnightblue" d="M102.182,-60.3115C91.6813,-50.5612 79.5097,-39.259 70.1593,-30.5765"/>
<polygon fill="midnightblue" stroke="midnightblue" points="100.101,-63.1562 109.811,-67.396 104.865,-58.0266 100.101,-63.1562"/>
</g>
<!-- Node7 -->
<g id="node3" class="node"><title>Node7</title>
<g id="a_node3"><a xlink:href="_linux_module_io_factory_8cpp.xhtml" target="_top" xlink:title="examples/generic/src\l/LinuxModuleIoFactory.cpp">
<polygon fill="white" stroke="black" points="128,-0.5 128,-30.5 262,-30.5 262,-0.5 128,-0.5"/>
<text text-anchor="start" x="136" y="-18.5" font-family="Helvetica,sans-Serif" font-size="10.00">examples/generic/src</text>
<text text-anchor="middle" x="195" y="-7.5" font-family="Helvetica,sans-Serif" font-size="10.00">/LinuxModuleIoFactory.cpp</text>
</a>
</g>
</g>
<!-- Node5&#45;&gt;Node7 -->
<g id="edge2" class="edge"><title>Node5&#45;&gt;Node7</title>
<path fill="none" stroke="midnightblue" d="M147.818,-60.3115C158.319,-50.5612 170.49,-39.259 179.841,-30.5765"/>
<polygon fill="midnightblue" stroke="midnightblue" points="145.135,-58.0266 140.189,-67.396 149.899,-63.1562 145.135,-58.0266"/>
</g>
</g>
</svg>
