<?xml version="1.0" encoding="UTF-8" standalone="no"?>
<!DOCTYPE svg PUBLIC "-//W3C//DTD SVG 1.1//EN"
 "http://www.w3.org/Graphics/SVG/1.1/DTD/svg11.dtd">
<!-- Generated by graphviz version 2.38.0 (20140413.2041)
 -->
<!-- Title: examples/generic/src/ModuleIo.hpp Pages: 1 -->
<svg width="390pt" height="106pt"
 viewBox="0.00 0.00 389.50 106.00" xmlns="http://www.w3.org/2000/svg" xmlns:xlink="http://www.w3.org/1999/xlink">
<g id="graph0" class="graph" transform="scale(1 1) rotate(0) translate(4 102)">
<title>examples/generic/src/ModuleIo.hpp</title>
<polygon fill="white" stroke="none" points="-4,4 -4,-102 385.5,-102 385.5,4 -4,4"/>
<!-- Node2 -->
<g id="node1" class="node"><title>Node2</title>
<polygon fill="#bfbfbf" stroke="black" points="128,-67.5 128,-97.5 238,-97.5 238,-67.5 128,-67.5"/>
<text text-anchor="start" x="136" y="-85.5" font-family="Helvetica,sans-Serif" font-size="10.00">examples/generic/src</text>
<text text-anchor="middle" x="183" y="-74.5" font-family="Helvetica,sans-Serif" font-size="10.00">/ModuleIo.hpp</text>
</g>
<!-- Node3 -->
<g id="node2" class="node"><title>Node3</title>
<g id="a_node2"><a xlink:href="_linux_module_io_8hpp.xhtml" target="_top" xlink:title="examples/generic/src\l/LinuxModuleIo.hpp">
<polygon fill="white" stroke="red" points="0,-0.5 0,-30.5 110,-30.5 110,-0.5 0,-0.5"/>
<text text-anchor="start" x="8" y="-18.5" font-family="Helvetica,sans-Serif" font-size="10.00">examples/generic/src</text>
<text text-anchor="middle" x="55" y="-7.5" font-family="Helvetica,sans-Serif" font-size="10.00">/LinuxModuleIo.hpp</text>
</a>
</g>
</g>
<!-- Node2&#45;&gt;Node3 -->
<g id="edge1" class="edge"><title>Node2&#45;&gt;Node3</title>
<path fill="none" stroke="midnightblue" d="M146.28,-62.8533C126.042,-52.5761 101.326,-40.0252 82.7199,-30.5765"/>
<polygon fill="midnightblue" stroke="midnightblue" points="144.725,-65.9888 155.226,-67.396 147.894,-59.7475 144.725,-65.9888"/>
</g>
<!-- Node6 -->
<g id="node3" class="node"><title>Node6</title>
<g id="a_node3"><a xlink:href="_module_io_factory_8hpp.xhtml" target="_top" xlink:title="examples/generic/src\l/ModuleIoFactory.hpp">
<polygon fill="white" stroke="red" points="128,-0.5 128,-30.5 238,-30.5 238,-0.5 128,-0.5"/>
<text text-anchor="start" x="136" y="-18.5" font-family="Helvetica,sans-Serif" font-size="10.00">examples/generic/src</text>
<text text-anchor="middle" x="183" y="-7.5" font-family="Helvetica,sans-Serif" font-size="10.00">/ModuleIoFactory.hpp</text>
</a>
</g>
</g>
<!-- Node2&#45;&gt;Node6 -->
<g id="edge2" class="edge"><title>Node2&#45;&gt;Node6</title>
<path fill="none" stroke="midnightblue" d="M183,-57.1081C183,-48.1539 183,-38.3227 183,-30.5765"/>
<polygon fill="midnightblue" stroke="midnightblue" points="179.5,-57.3959 183,-67.396 186.5,-57.396 179.5,-57.3959"/>
</g>
<!-- Node9 -->
<g id="node4" class="node"><title>Node9</title>
<g id="a_node4"><a xlink:href="_overlapped_module_io_8hpp.xhtml" target="_top" xlink:title="examples/generic/src\l/OverlappedModuleIo.hpp">
<polygon fill="white" stroke="red" points="256.5,-0.5 256.5,-30.5 381.5,-30.5 381.5,-0.5 256.5,-0.5"/>
<text text-anchor="start" x="264.5" y="-18.5" font-family="Helvetica,sans-Serif" font-size="10.00">examples/generic/src</text>
<text text-anchor="middle" x="319" y="-7.5" font-family="Helvetica,sans-Serif" font-size="10.00">/OverlappedModuleIo.hpp</text>
</a>
</g>
</g>
<!-- Node2&#45;&gt;Node9 -->
<g id="edge3" class="edge"><title>Node2&#45;&gt;Node9</title>
<path fill="none" stroke="midnightblue" d="M221.724,-62.9921C243.281,-52.6892 269.689,-40.0677 289.548,-30.5765"/>
<polygon fill="midnightblue" stroke="midnightblue" points="220.023,-59.9258 212.51,-67.396 223.042,-66.2416 220.023,-59.9258"/>
</g>
</g>
</svg>
