<?xml version="1.0" encoding="UTF-8" standalone="no"?>
<!DOCTYPE svg PUBLIC "-//W3C//DTD SVG 1.1//EN"
 "http://www.w3.org/Graphics/SVG/1.1/DTD/svg11.dtd">
<!-- Generated by graphviz version 2.38.0 (20140413.2041)
 -->
<!-- Title: createModuleIo Pages: 1 -->
<svg width="278pt" height="142pt"
 viewBox="0.00 0.00 278.00 142.00" xmlns="http://www.w3.org/2000/svg" xmlns:xlink="http://www.w3.org/1999/xlink">
<g id="graph0" class="graph" transform="scale(1 1) rotate(0) translate(4 138)">
<title>createModuleIo</title>
<polygon fill="white" stroke="none" points="-4,4 -4,-138 274,-138 274,4 -4,4"/>
<!-- Node1 -->
<g id="node1" class="node"><title>Node1</title>
<polygon fill="#bfbfbf" stroke="black" points="0,-57.5 0,-76.5 83,-76.5 83,-57.5 0,-57.5"/>
<text text-anchor="middle" x="41.5" y="-64.5" font-family="Helvetica,sans-Serif" font-size="10.00">createModuleIo</text>
</g>
<!-- Node2 -->
<g id="node2" class="node"><title>Node2</title>
<g id="a_node2"><a xlink:href="main_8cpp.xhtml#a9e7fad9d680c663670f1e7843989b2b4" target="_top" xlink:title="mcpw_demo_x4m300">
<polygon fill="white" stroke="red" points="139,-114.5 139,-133.5 250,-133.5 250,-114.5 139,-114.5"/>
<text text-anchor="middle" x="194.5" y="-121.5" font-family="Helvetica,sans-Serif" font-size="10.00">mcpw_demo_x4m300</text>
</a>
</g>
</g>
<!-- Node1&#45;&gt;Node2 -->
<g id="edge1" class="edge"><title>Node1&#45;&gt;Node2</title>
<path fill="none" stroke="midnightblue" d="M67.9805,-81.355C82.5786,-89.1432 101.437,-98.4818 119,-105 128.761,-108.623 139.49,-111.801 149.691,-114.471"/>
<polygon fill="midnightblue" stroke="midnightblue" points="69.5166,-78.2064 59.0591,-76.5062 66.1739,-84.3567 69.5166,-78.2064"/>
</g>
<!-- Node4 -->
<g id="node3" class="node"><title>Node4</title>
<g id="a_node3"><a xlink:href="main_8cpp.xhtml#a3126a54d85ac2491678228134d260200" target="_top" xlink:title="mcpw_demo_x4m200">
<polygon fill="white" stroke="red" points="139,-76.5 139,-95.5 250,-95.5 250,-76.5 139,-76.5"/>
<text text-anchor="middle" x="194.5" y="-83.5" font-family="Helvetica,sans-Serif" font-size="10.00">mcpw_demo_x4m200</text>
</a>
</g>
</g>
<!-- Node1&#45;&gt;Node4 -->
<g id="edge2" class="edge"><title>Node1&#45;&gt;Node4</title>
<path fill="none" stroke="midnightblue" d="M93.7046,-73.443C108.285,-75.2776 124.219,-77.2825 138.989,-79.141"/>
<polygon fill="midnightblue" stroke="midnightblue" points="93.7215,-69.9176 83.3628,-72.1417 92.8476,-76.8628 93.7215,-69.9176"/>
</g>
<!-- Node5 -->
<g id="node4" class="node"><title>Node5</title>
<g id="a_node4"><a xlink:href="main_8cpp.xhtml#afe826bfd6377b67ca711d20cb2f74077" target="_top" xlink:title="mcpw_demo_x2m200">
<polygon fill="white" stroke="red" points="139,-38.5 139,-57.5 250,-57.5 250,-38.5 139,-38.5"/>
<text text-anchor="middle" x="194.5" y="-45.5" font-family="Helvetica,sans-Serif" font-size="10.00">mcpw_demo_x2m200</text>
</a>
</g>
</g>
<!-- Node1&#45;&gt;Node5 -->
<g id="edge3" class="edge"><title>Node1&#45;&gt;Node5</title>
<path fill="none" stroke="midnightblue" d="M93.7046,-60.557C108.285,-58.7224 124.219,-56.7175 138.989,-54.859"/>
<polygon fill="midnightblue" stroke="midnightblue" points="92.8476,-57.1372 83.3628,-61.8583 93.7215,-64.0824 92.8476,-57.1372"/>
</g>
<!-- Node6 -->
<g id="node5" class="node"><title>Node6</title>
<g id="a_node5"><a xlink:href="main_8cpp.xhtml#ad2294d655ff2589ae68c05c62280a806" target="_top" xlink:title="mcpw_demo_upgrade_x4m300">
<polygon fill="white" stroke="red" points="119,-0.5 119,-19.5 270,-19.5 270,-0.5 119,-0.5"/>
<text text-anchor="middle" x="194.5" y="-7.5" font-family="Helvetica,sans-Serif" font-size="10.00">mcpw_demo_upgrade_x4m300</text>
</a>
</g>
</g>
<!-- Node1&#45;&gt;Node6 -->
<g id="edge4" class="edge"><title>Node1&#45;&gt;Node6</title>
<path fill="none" stroke="midnightblue" d="M67.9805,-52.645C82.5786,-44.8568 101.437,-35.5182 119,-29 128.761,-25.3775 139.49,-22.1986 149.691,-19.5292"/>
<polygon fill="midnightblue" stroke="midnightblue" points="66.1739,-49.6433 59.0591,-57.4938 69.5166,-55.7936 66.1739,-49.6433"/>
</g>
</g>
</svg>
