<?xml version="1.0" encoding="UTF-8" standalone="no"?>
<!DOCTYPE svg PUBLIC "-//W3C//DTD SVG 1.1//EN"
 "http://www.w3.org/Graphics/SVG/1.1/DTD/svg11.dtd">
<!-- Generated by graphviz version 2.38.0 (20140413.2041)
 -->
<!-- Title: examples/generic/src/ModuleIoFactory.hpp Pages: 1 -->
<svg width="416pt" height="106pt"
 viewBox="0.00 0.00 416.00 106.00" xmlns="http://www.w3.org/2000/svg" xmlns:xlink="http://www.w3.org/1999/xlink">
<g id="graph0" class="graph" transform="scale(1 1) rotate(0) translate(4 102)">
<title>examples/generic/src/ModuleIoFactory.hpp</title>
<polygon fill="white" stroke="none" points="-4,4 -4,-102 412,-102 412,4 -4,4"/>
<!-- Node3 -->
<g id="node1" class="node"><title>Node3</title>
<polygon fill="#bfbfbf" stroke="black" points="152,-67.5 152,-97.5 262,-97.5 262,-67.5 152,-67.5"/>
<text text-anchor="start" x="160" y="-85.5" font-family="Helvetica,sans-Serif" font-size="10.00">examples/generic/src</text>
<text text-anchor="middle" x="207" y="-74.5" font-family="Helvetica,sans-Serif" font-size="10.00">/ModuleIoFactory.hpp</text>
</g>
<!-- Node4 -->
<g id="node2" class="node"><title>Node4</title>
<g id="a_node2"><a xlink:href="_linux_module_io_factory_8cpp.xhtml" target="_top" xlink:title="examples/generic/src\l/LinuxModuleIoFactory.cpp">
<polygon fill="white" stroke="black" points="0,-0.5 0,-30.5 134,-30.5 134,-0.5 0,-0.5"/>
<text text-anchor="start" x="8" y="-18.5" font-family="Helvetica,sans-Serif" font-size="10.00">examples/generic/src</text>
<text text-anchor="middle" x="67" y="-7.5" font-family="Helvetica,sans-Serif" font-size="10.00">/LinuxModuleIoFactory.cpp</text>
</a>
</g>
</g>
<!-- Node3&#45;&gt;Node4 -->
<g id="edge1" class="edge"><title>Node3&#45;&gt;Node4</title>
<path fill="none" stroke="midnightblue" d="M167.435,-63.1305C145.19,-52.8025 117.853,-40.1103 97.3186,-30.5765"/>
<polygon fill="midnightblue" stroke="midnightblue" points="166.078,-66.3593 176.622,-67.396 169.026,-60.0103 166.078,-66.3593"/>
</g>
<!-- Node5 -->
<g id="node3" class="node"><title>Node5</title>
<g id="a_node3"><a xlink:href="main_8cpp.xhtml" target="_top" xlink:title="examples/generic/src\l/main.cpp">
<polygon fill="white" stroke="black" points="152,-0.5 152,-30.5 262,-30.5 262,-0.5 152,-0.5"/>
<text text-anchor="start" x="160" y="-18.5" font-family="Helvetica,sans-Serif" font-size="10.00">examples/generic/src</text>
<text text-anchor="middle" x="207" y="-7.5" font-family="Helvetica,sans-Serif" font-size="10.00">/main.cpp</text>
</a>
</g>
</g>
<!-- Node3&#45;&gt;Node5 -->
<g id="edge2" class="edge"><title>Node3&#45;&gt;Node5</title>
<path fill="none" stroke="midnightblue" d="M207,-57.1081C207,-48.1539 207,-38.3227 207,-30.5765"/>
<polygon fill="midnightblue" stroke="midnightblue" points="203.5,-57.3959 207,-67.396 210.5,-57.396 203.5,-57.3959"/>
</g>
<!-- Node6 -->
<g id="node4" class="node"><title>Node6</title>
<g id="a_node4"><a xlink:href="_win_module_io_factory_8cpp.xhtml" target="_top" xlink:title="examples/generic/src\l/WinModuleIoFactory.cpp">
<polygon fill="white" stroke="black" points="280,-0.5 280,-30.5 408,-30.5 408,-0.5 280,-0.5"/>
<text text-anchor="start" x="288" y="-18.5" font-family="Helvetica,sans-Serif" font-size="10.00">examples/generic/src</text>
<text text-anchor="middle" x="344" y="-7.5" font-family="Helvetica,sans-Serif" font-size="10.00">/WinModuleIoFactory.cpp</text>
</a>
</g>
</g>
<!-- Node3&#45;&gt;Node6 -->
<g id="edge3" class="edge"><title>Node3&#45;&gt;Node6</title>
<path fill="none" stroke="midnightblue" d="M246.009,-62.9921C267.724,-52.6892 294.327,-40.0677 314.331,-30.5765"/>
<polygon fill="midnightblue" stroke="midnightblue" points="244.261,-59.9472 236.727,-67.396 247.262,-66.2715 244.261,-59.9472"/>
</g>
</g>
</svg>
