<?xml version="1.0" encoding="UTF-8" standalone="no"?>
<!DOCTYPE svg PUBLIC "-//W3C//DTD SVG 1.1//EN"
 "http://www.w3.org/Graphics/SVG/1.1/DTD/svg11.dtd">
<!-- Generated by graphviz version 2.38.0 (20140413.2041)
 -->
<!-- Title: examples/atmel_samg55/src/ASF/thirdparty/CMSIS/Include/arm_math.h Pages: 1 -->
<svg width="141pt" height="106pt"
 viewBox="0.00 0.00 141.00 106.00" xmlns="http://www.w3.org/2000/svg" xmlns:xlink="http://www.w3.org/1999/xlink">
<g id="graph0" class="graph" transform="scale(1 1) rotate(0) translate(4 102)">
<title>examples/atmel_samg55/src/ASF/thirdparty/CMSIS/Include/arm_math.h</title>
<polygon fill="white" stroke="none" points="-4,4 -4,-102 137,-102 137,4 -4,4"/>
<!-- Node0 -->
<g id="node1" class="node"><title>Node0</title>
<polygon fill="#bfbfbf" stroke="black" points="0,-56.5 0,-97.5 133,-97.5 133,-56.5 0,-56.5"/>
<text text-anchor="start" x="8" y="-85.5" font-family="Helvetica,sans-Serif" font-size="10.00">examples/atmel_samg55</text>
<text text-anchor="start" x="8" y="-74.5" font-family="Helvetica,sans-Serif" font-size="10.00">/src/ASF/thirdparty/CMSIS</text>
<text text-anchor="middle" x="66.5" y="-63.5" font-family="Helvetica,sans-Serif" font-size="10.00">/Include/arm_math.h</text>
</g>
<!-- Node1 -->
<g id="node2" class="node"><title>Node1</title>
<polygon fill="white" stroke="#bfbfbf" points="9,-0.5 9,-19.5 58,-19.5 58,-0.5 9,-0.5"/>
<text text-anchor="middle" x="33.5" y="-7.5" font-family="Helvetica,sans-Serif" font-size="10.00">string.h</text>
</g>
<!-- Node0&#45;&gt;Node1 -->
<g id="edge1" class="edge"><title>Node0&#45;&gt;Node1</title>
<path fill="none" stroke="midnightblue" d="M56.5989,-56.4979C52.1232,-47.682 46.8719,-37.3385 42.5081,-28.7432"/>
<polygon fill="midnightblue" stroke="midnightblue" points="45.5406,-26.9847 37.8928,-19.6525 39.2989,-30.1536 45.5406,-26.9847"/>
</g>
<!-- Node2 -->
<g id="node3" class="node"><title>Node2</title>
<polygon fill="white" stroke="#bfbfbf" points="76,-0.5 76,-19.5 123,-19.5 123,-0.5 76,-0.5"/>
<text text-anchor="middle" x="99.5" y="-7.5" font-family="Helvetica,sans-Serif" font-size="10.00">math.h</text>
</g>
<!-- Node0&#45;&gt;Node2 -->
<g id="edge2" class="edge"><title>Node0&#45;&gt;Node2</title>
<path fill="none" stroke="midnightblue" d="M76.4011,-56.4979C80.8768,-47.682 86.1281,-37.3385 90.4919,-28.7432"/>
<polygon fill="midnightblue" stroke="midnightblue" points="93.7011,-30.1536 95.1072,-19.6525 87.4594,-26.9847 93.7011,-30.1536"/>
</g>
</g>
</svg>
