<?xml version="1.0" encoding="UTF-8" standalone="no"?>
<!DOCTYPE svg PUBLIC "-//W3C//DTD SVG 1.1//EN"
 "http://www.w3.org/Graphics/SVG/1.1/DTD/svg11.dtd">
<!-- Generated by graphviz version 2.38.0 (20140413.2041)
 -->
<!-- Title: arm_recip_q15 Pages: 1 -->
<svg width="211pt" height="66pt"
 viewBox="0.00 0.00 211.00 66.00" xmlns="http://www.w3.org/2000/svg" xmlns:xlink="http://www.w3.org/1999/xlink">
<g id="graph0" class="graph" transform="scale(1 1) rotate(0) translate(4 62)">
<title>arm_recip_q15</title>
<polygon fill="white" stroke="none" points="-4,4 -4,-62 207,-62 207,4 -4,4"/>
<!-- Node566 -->
<g id="node1" class="node"><title>Node566</title>
<polygon fill="#bfbfbf" stroke="black" points="0,-19.5 0,-38.5 80,-38.5 80,-19.5 0,-19.5"/>
<text text-anchor="middle" x="40" y="-26.5" font-family="Helvetica,sans-Serif" font-size="10.00">arm_recip_q15</text>
</g>
<!-- Node567 -->
<g id="node2" class="node"><title>Node567</title>
<g id="a_node2"><a xlink:href="arm__math_8h.xhtml#a4af3ca330e14587289518e6565fd04bd" target="_top" xlink:title="Clips Q31 to Q15 values. ">
<polygon fill="white" stroke="black" points="116,-38.5 116,-57.5 203,-57.5 203,-38.5 116,-38.5"/>
<text text-anchor="middle" x="159.5" y="-45.5" font-family="Helvetica,sans-Serif" font-size="10.00">clip_q31_to_q15</text>
</a>
</g>
</g>
<!-- Node566&#45;&gt;Node567 -->
<g id="edge1" class="edge"><title>Node566&#45;&gt;Node567</title>
<path fill="none" stroke="midnightblue" d="M80.1258,-35.3267C88.3789,-36.6613 97.2158,-38.0902 105.873,-39.4902"/>
<polygon fill="midnightblue" stroke="midnightblue" points="105.478,-42.9716 115.908,-41.1129 106.595,-36.0614 105.478,-42.9716"/>
</g>
<!-- Node568 -->
<g id="node3" class="node"><title>Node568</title>
<g id="a_node3"><a xlink:href="arm__math_8h.xhtml#ad7373e53d3c2e1adfeafc8c2e9720b5c" target="_top" xlink:title="Clips Q63 to Q31 values. ">
<polygon fill="white" stroke="black" points="116,-0.5 116,-19.5 203,-19.5 203,-0.5 116,-0.5"/>
<text text-anchor="middle" x="159.5" y="-7.5" font-family="Helvetica,sans-Serif" font-size="10.00">clip_q63_to_q31</text>
</a>
</g>
</g>
<!-- Node566&#45;&gt;Node568 -->
<g id="edge2" class="edge"><title>Node566&#45;&gt;Node568</title>
<path fill="none" stroke="midnightblue" d="M80.1258,-22.6733C88.3789,-21.3387 97.2158,-19.9098 105.873,-18.5098"/>
<polygon fill="midnightblue" stroke="midnightblue" points="106.595,-21.9386 115.908,-16.8871 105.478,-15.0284 106.595,-21.9386"/>
</g>
</g>
</svg>
