<?xml version="1.0" encoding="UTF-8" standalone="no"?>
<!DOCTYPE svg PUBLIC "-//W3C//DTD SVG 1.1//EN"
 "http://www.w3.org/Graphics/SVG/1.1/DTD/svg11.dtd">
<!-- Generated by graphviz version 2.38.0 (20140413.2041)
 -->
<!-- Title: examples/atmel_samg55/src/ASF/thirdparty/CMSIS/Include/arm_math.h Pages: 1 -->
<svg width="342pt" height="206pt"
 viewBox="0.00 0.00 341.50 206.00" xmlns="http://www.w3.org/2000/svg" xmlns:xlink="http://www.w3.org/1999/xlink">
<g id="graph0" class="graph" transform="scale(1 1) rotate(0) translate(4 202)">
<title>examples/atmel_samg55/src/ASF/thirdparty/CMSIS/Include/arm_math.h</title>
<polygon fill="white" stroke="none" points="-4,4 -4,-202 337.5,-202 337.5,4 -4,4"/>
<!-- Node3 -->
<g id="node1" class="node"><title>Node3</title>
<polygon fill="#bfbfbf" stroke="black" points="113.5,-156.5 113.5,-197.5 246.5,-197.5 246.5,-156.5 113.5,-156.5"/>
<text text-anchor="start" x="121.5" y="-185.5" font-family="Helvetica,sans-Serif" font-size="10.00">examples/atmel_samg55</text>
<text text-anchor="start" x="121.5" y="-174.5" font-family="Helvetica,sans-Serif" font-size="10.00">/src/ASF/thirdparty/CMSIS</text>
<text text-anchor="middle" x="180" y="-163.5" font-family="Helvetica,sans-Serif" font-size="10.00">/Include/arm_math.h</text>
</g>
<!-- Node4 -->
<g id="node2" class="node"><title>Node4</title>
<g id="a_node2"><a xlink:href="arm__common__tables_8h.xhtml" target="_top" xlink:title="examples/atmel_samg55\l/src/ASF/thirdparty/CMSIS\l/Include/arm_common_tables.h">
<polygon fill="white" stroke="black" points="0,-78.5 0,-119.5 152,-119.5 152,-78.5 0,-78.5"/>
<text text-anchor="start" x="8" y="-107.5" font-family="Helvetica,sans-Serif" font-size="10.00">examples/atmel_samg55</text>
<text text-anchor="start" x="8" y="-96.5" font-family="Helvetica,sans-Serif" font-size="10.00">/src/ASF/thirdparty/CMSIS</text>
<text text-anchor="middle" x="76" y="-85.5" font-family="Helvetica,sans-Serif" font-size="10.00">/Include/arm_common_tables.h</text>
</a>
</g>
</g>
<!-- Node3&#45;&gt;Node4 -->
<g id="edge1" class="edge"><title>Node3&#45;&gt;Node4</title>
<path fill="none" stroke="midnightblue" d="M144.9,-150.35C131.109,-140.272 115.538,-128.893 102.692,-119.506"/>
<polygon fill="midnightblue" stroke="midnightblue" points="143.078,-153.354 153.217,-156.428 147.209,-147.702 143.078,-153.354"/>
</g>
<!-- Node5 -->
<g id="node3" class="node"><title>Node5</title>
<g id="a_node3"><a xlink:href="arm__const__structs_8h.xhtml" target="_top" xlink:title="examples/atmel_samg55\l/src/ASF/thirdparty/CMSIS\l/Include/arm_const_structs.h">
<polygon fill="white" stroke="black" points="56.5,-0.5 56.5,-41.5 199.5,-41.5 199.5,-0.5 56.5,-0.5"/>
<text text-anchor="start" x="64.5" y="-29.5" font-family="Helvetica,sans-Serif" font-size="10.00">examples/atmel_samg55</text>
<text text-anchor="start" x="64.5" y="-18.5" font-family="Helvetica,sans-Serif" font-size="10.00">/src/ASF/thirdparty/CMSIS</text>
<text text-anchor="middle" x="128" y="-7.5" font-family="Helvetica,sans-Serif" font-size="10.00">/Include/arm_const_structs.h</text>
</a>
</g>
</g>
<!-- Node3&#45;&gt;Node5 -->
<g id="edge3" class="edge"><title>Node3&#45;&gt;Node5</title>
<path fill="none" stroke="midnightblue" d="M176.92,-146.324C174.221,-126.505 169.376,-100.119 161,-78 156.164,-65.2304 148.527,-52.0215 141.818,-41.6413"/>
<polygon fill="midnightblue" stroke="midnightblue" points="173.455,-146.824 178.175,-156.31 180.401,-145.951 173.455,-146.824"/>
</g>
<!-- Node6 -->
<g id="node4" class="node"><title>Node6</title>
<g id="a_node4"><a xlink:href="task__xethru_8c.xhtml" target="_top" xlink:title="examples/atmel_samg55\l/src/task_xethru.c">
<polygon fill="white" stroke="black" points="208.5,-84 208.5,-114 333.5,-114 333.5,-84 208.5,-84"/>
<text text-anchor="start" x="216.5" y="-102" font-family="Helvetica,sans-Serif" font-size="10.00">examples/atmel_samg55</text>
<text text-anchor="middle" x="271" y="-91" font-family="Helvetica,sans-Serif" font-size="10.00">/src/task_xethru.c</text>
</a>
</g>
</g>
<!-- Node3&#45;&gt;Node6 -->
<g id="edge4" class="edge"><title>Node3&#45;&gt;Node6</title>
<path fill="none" stroke="midnightblue" d="M211.142,-149.992C225.482,-138.015 241.941,-124.269 253.967,-114.225"/>
<polygon fill="midnightblue" stroke="midnightblue" points="208.867,-147.332 203.435,-156.428 213.354,-152.704 208.867,-147.332"/>
</g>
<!-- Node4&#45;&gt;Node5 -->
<g id="edge2" class="edge"><title>Node4&#45;&gt;Node5</title>
<path fill="none" stroke="midnightblue" d="M95.1253,-70.0476C101.613,-60.5657 108.716,-50.1845 114.654,-41.5056"/>
<polygon fill="midnightblue" stroke="midnightblue" points="92.1496,-68.1986 89.3913,-78.4281 97.9268,-72.1514 92.1496,-68.1986"/>
</g>
</g>
</svg>
