<?xml version="1.0" encoding="UTF-8" standalone="no"?>
<!DOCTYPE svg PUBLIC "-//W3C//DTD SVG 1.1//EN"
 "http://www.w3.org/Graphics/SVG/1.1/DTD/svg11.dtd">
<!-- Generated by graphviz version 2.38.0 (20140413.2041)
 -->
<!-- Title: clip_q63_to_q31 Pages: 1 -->
<svg width="211pt" height="66pt"
 viewBox="0.00 0.00 211.00 66.00" xmlns="http://www.w3.org/2000/svg" xmlns:xlink="http://www.w3.org/1999/xlink">
<g id="graph0" class="graph" transform="scale(1 1) rotate(0) translate(4 62)">
<title>clip_q63_to_q31</title>
<polygon fill="white" stroke="none" points="-4,4 -4,-62 207,-62 207,4 -4,4"/>
<!-- Node659 -->
<g id="node1" class="node"><title>Node659</title>
<polygon fill="#bfbfbf" stroke="black" points="0,-19.5 0,-38.5 87,-38.5 87,-19.5 0,-19.5"/>
<text text-anchor="middle" x="43.5" y="-26.5" font-family="Helvetica,sans-Serif" font-size="10.00">clip_q63_to_q31</text>
</g>
<!-- Node660 -->
<g id="node2" class="node"><title>Node660</title>
<g id="a_node2"><a xlink:href="arm__math_8h.xhtml#a43140f04ca94c2a7394e7a222e2d8fb4" target="_top" xlink:title="Function to Calculates 1/in (reciprocal) value of Q31 Data type. ">
<polygon fill="white" stroke="black" points="123,-38.5 123,-57.5 203,-57.5 203,-38.5 123,-38.5"/>
<text text-anchor="middle" x="163" y="-45.5" font-family="Helvetica,sans-Serif" font-size="10.00">arm_recip_q31</text>
</a>
</g>
</g>
<!-- Node659&#45;&gt;Node660 -->
<g id="edge1" class="edge"><title>Node659&#45;&gt;Node660</title>
<path fill="none" stroke="midnightblue" d="M97.2787,-37.5344C105.926,-38.9328 114.749,-40.3593 122.985,-41.6912"/>
<polygon fill="midnightblue" stroke="midnightblue" points="97.6831,-34.0544 87.2526,-35.9132 96.5656,-40.9647 97.6831,-34.0544"/>
</g>
<!-- Node661 -->
<g id="node3" class="node"><title>Node661</title>
<g id="a_node3"><a xlink:href="arm__math_8h.xhtml#a1c66e370a6ae91aaafbaec5e979198d7" target="_top" xlink:title="Function to Calculates 1/in (reciprocal) value of Q15 Data type. ">
<polygon fill="white" stroke="black" points="123,-0.5 123,-19.5 203,-19.5 203,-0.5 123,-0.5"/>
<text text-anchor="middle" x="163" y="-7.5" font-family="Helvetica,sans-Serif" font-size="10.00">arm_recip_q15</text>
</a>
</g>
</g>
<!-- Node659&#45;&gt;Node661 -->
<g id="edge2" class="edge"><title>Node659&#45;&gt;Node661</title>
<path fill="none" stroke="midnightblue" d="M97.2787,-20.4656C105.926,-19.0672 114.749,-17.6407 122.985,-16.3088"/>
<polygon fill="midnightblue" stroke="midnightblue" points="96.5656,-17.0353 87.2526,-22.0868 97.6831,-23.9456 96.5656,-17.0353"/>
</g>
</g>
</svg>
