<?xml version="1.0" encoding="UTF-8" standalone="no"?>
<!DOCTYPE svg PUBLIC "-//W3C//DTD SVG 1.1//EN"
 "http://www.w3.org/Graphics/SVG/1.1/DTD/svg11.dtd">
<!-- Generated by graphviz version 2.38.0 (20140413.2041)
 -->
<!-- Title: examples/atmel_samg55/src/asf.h Pages: 1 -->
<svg width="179pt" height="173pt"
 viewBox="0.00 0.00 179.00 173.00" xmlns="http://www.w3.org/2000/svg" xmlns:xlink="http://www.w3.org/1999/xlink">
<g id="graph0" class="graph" transform="scale(1 1) rotate(0) translate(4 169)">
<title>examples/atmel_samg55/src/asf.h</title>
<polygon fill="white" stroke="none" points="-4,4 -4,-169 175,-169 175,4 -4,4"/>
<!-- Node48 -->
<g id="node1" class="node"><title>Node48</title>
<polygon fill="#bfbfbf" stroke="black" points="0,-134.5 0,-164.5 125,-164.5 125,-134.5 0,-134.5"/>
<text text-anchor="start" x="8" y="-152.5" font-family="Helvetica,sans-Serif" font-size="10.00">examples/atmel_samg55</text>
<text text-anchor="middle" x="62.5" y="-141.5" font-family="Helvetica,sans-Serif" font-size="10.00">/src/asf.h</text>
</g>
<!-- Node49 -->
<g id="node2" class="node"><title>Node49</title>
<g id="a_node2"><a xlink:href="main_8c.xhtml" target="_top" xlink:title="examples/atmel_samg55\l/src/main.c">
<polygon fill="white" stroke="black" points="0,-0.5 0,-30.5 125,-30.5 125,-0.5 0,-0.5"/>
<text text-anchor="start" x="8" y="-18.5" font-family="Helvetica,sans-Serif" font-size="10.00">examples/atmel_samg55</text>
<text text-anchor="middle" x="62.5" y="-7.5" font-family="Helvetica,sans-Serif" font-size="10.00">/src/main.c</text>
</a>
</g>
</g>
<!-- Node48&#45;&gt;Node49 -->
<g id="edge1" class="edge"><title>Node48&#45;&gt;Node49</title>
<path fill="none" stroke="midnightblue" d="M47.7259,-125.474C43.1916,-117.153 38.7947,-107.47 36.5,-98 33.2554,-84.6097 33.2554,-80.3903 36.5,-67 39.6583,-53.9661 46.7988,-40.5282 52.799,-30.7942"/>
<polygon fill="midnightblue" stroke="midnightblue" points="44.749,-127.318 52.799,-134.206 50.8017,-123.801 44.749,-127.318"/>
</g>
<!-- Node50 -->
<g id="node3" class="node"><title>Node50</title>
<g id="a_node3"><a xlink:href="task__xethru_8h.xhtml" target="_top" xlink:title="examples/atmel_samg55\l/src/task_xethru.h">
<polygon fill="white" stroke="red" points="46,-67.5 46,-97.5 171,-97.5 171,-67.5 46,-67.5"/>
<text text-anchor="start" x="54" y="-85.5" font-family="Helvetica,sans-Serif" font-size="10.00">examples/atmel_samg55</text>
<text text-anchor="middle" x="108.5" y="-74.5" font-family="Helvetica,sans-Serif" font-size="10.00">/src/task_xethru.h</text>
</a>
</g>
</g>
<!-- Node48&#45;&gt;Node50 -->
<g id="edge2" class="edge"><title>Node48&#45;&gt;Node50</title>
<path fill="none" stroke="midnightblue" d="M78.3116,-126.157C85.0196,-116.679 92.6346,-105.919 98.5382,-97.5765"/>
<polygon fill="midnightblue" stroke="midnightblue" points="75.4011,-124.211 72.4813,-134.396 81.115,-128.255 75.4011,-124.211"/>
</g>
<!-- Node50&#45;&gt;Node49 -->
<g id="edge3" class="edge"><title>Node50&#45;&gt;Node49</title>
<path fill="none" stroke="midnightblue" d="M92.6884,-59.1575C85.9804,-49.6788 78.3654,-38.9186 72.4618,-30.5765"/>
<polygon fill="midnightblue" stroke="midnightblue" points="89.885,-61.2551 98.5187,-67.396 95.5989,-57.2114 89.885,-61.2551"/>
</g>
</g>
</svg>
