<?xml version="1.0" encoding="UTF-8" standalone="no"?>
<!DOCTYPE svg PUBLIC "-//W3C//DTD SVG 1.1//EN"
 "http://www.w3.org/Graphics/SVG/1.1/DTD/svg11.dtd">
<!-- Generated by graphviz version 2.38.0 (20140413.2041)
 -->
<!-- Title: ModuleIo::setBaudrate Pages: 1 -->
<svg width="269pt" height="104pt"
 viewBox="0.00 0.00 269.00 104.00" xmlns="http://www.w3.org/2000/svg" xmlns:xlink="http://www.w3.org/1999/xlink">
<g id="graph0" class="graph" transform="scale(1 1) rotate(0) translate(4 100)">
<title>ModuleIo::setBaudrate</title>
<polygon fill="white" stroke="none" points="-4,4 -4,-100 265,-100 265,4 -4,4"/>
<!-- Node24 -->
<g id="node1" class="node"><title>Node24</title>
<polygon fill="#bfbfbf" stroke="black" points="0,-38.5 0,-57.5 114,-57.5 114,-38.5 0,-38.5"/>
<text text-anchor="middle" x="57" y="-45.5" font-family="Helvetica,sans-Serif" font-size="10.00">ModuleIo::setBaudrate</text>
</g>
<!-- Node25 -->
<g id="node2" class="node"><title>Node25</title>
<g id="a_node2"><a xlink:href="main_8cpp.xhtml#a9e7fad9d680c663670f1e7843989b2b4" target="_top" xlink:title="mcpw_demo_x4m300">
<polygon fill="white" stroke="red" points="150,-76.5 150,-95.5 261,-95.5 261,-76.5 150,-76.5"/>
<text text-anchor="middle" x="205.5" y="-83.5" font-family="Helvetica,sans-Serif" font-size="10.00">mcpw_demo_x4m300</text>
</a>
</g>
</g>
<!-- Node24&#45;&gt;Node25 -->
<g id="edge1" class="edge"><title>Node24&#45;&gt;Node25</title>
<path fill="none" stroke="midnightblue" d="M104.695,-60.1121C125.099,-65.4044 148.681,-71.5213 167.798,-76.4799"/>
<polygon fill="midnightblue" stroke="midnightblue" points="105.527,-56.712 94.9681,-57.589 103.769,-63.4877 105.527,-56.712"/>
</g>
<!-- Node27 -->
<g id="node3" class="node"><title>Node27</title>
<g id="a_node3"><a xlink:href="main_8cpp.xhtml#a3126a54d85ac2491678228134d260200" target="_top" xlink:title="mcpw_demo_x4m200">
<polygon fill="white" stroke="red" points="150,-38.5 150,-57.5 261,-57.5 261,-38.5 150,-38.5"/>
<text text-anchor="middle" x="205.5" y="-45.5" font-family="Helvetica,sans-Serif" font-size="10.00">mcpw_demo_x4m200</text>
</a>
</g>
</g>
<!-- Node24&#45;&gt;Node27 -->
<g id="edge2" class="edge"><title>Node24&#45;&gt;Node27</title>
<path fill="none" stroke="midnightblue" d="M124.419,-48C132.854,-48 141.41,-48 149.636,-48"/>
<polygon fill="midnightblue" stroke="midnightblue" points="124.222,-44.5001 114.222,-48 124.222,-51.5001 124.222,-44.5001"/>
</g>
<!-- Node28 -->
<g id="node4" class="node"><title>Node28</title>
<g id="a_node4"><a xlink:href="class_module_io.xhtml#abceef35b4eb222fbb2a9184600e0436c" target="_top" xlink:title="ModuleIo::~ModuleIo">
<polygon fill="white" stroke="black" points="152,-0.5 152,-19.5 259,-19.5 259,-0.5 152,-0.5"/>
<text text-anchor="middle" x="205.5" y="-7.5" font-family="Helvetica,sans-Serif" font-size="10.00">ModuleIo::~ModuleIo</text>
</a>
</g>
</g>
<!-- Node24&#45;&gt;Node28 -->
<g id="edge3" class="edge"><title>Node24&#45;&gt;Node28</title>
<path fill="none" stroke="midnightblue" d="M104.695,-35.8879C125.099,-30.5956 148.681,-24.4787 167.798,-19.5201"/>
<polygon fill="midnightblue" stroke="midnightblue" points="103.769,-32.5123 94.9681,-38.411 105.527,-39.288 103.769,-32.5123"/>
</g>
</g>
</svg>
