<?xml version="1.0" encoding="UTF-8" standalone="no"?>
<!DOCTYPE svg PUBLIC "-//W3C//DTD SVG 1.1//EN"
 "http://www.w3.org/Graphics/SVG/1.1/DTD/svg11.dtd">
<!-- Generated by graphviz version 2.38.0 (20140413.2041)
 -->
<!-- Title: ModuleIo::~ModuleIo Pages: 1 -->
<svg width="265pt" height="142pt"
 viewBox="0.00 0.00 265.00 142.00" xmlns="http://www.w3.org/2000/svg" xmlns:xlink="http://www.w3.org/1999/xlink">
<g id="graph0" class="graph" transform="scale(1 1) rotate(0) translate(4 138)">
<title>ModuleIo::~ModuleIo</title>
<polygon fill="white" stroke="none" points="-4,4 -4,-138 261,-138 261,4 -4,4"/>
<!-- Node0 -->
<g id="node1" class="node"><title>Node0</title>
<polygon fill="#bfbfbf" stroke="black" points="0,-57.5 0,-76.5 107,-76.5 107,-57.5 0,-57.5"/>
<text text-anchor="middle" x="53.5" y="-64.5" font-family="Helvetica,sans-Serif" font-size="10.00">ModuleIo::~ModuleIo</text>
</g>
<!-- Node1 -->
<g id="node2" class="node"><title>Node1</title>
<g id="a_node2"><a xlink:href="class_module_io.xhtml#a882e474a2b69d8c6ca6b8fc3b7e22242" target="_top" xlink:title="ModuleIo::open">
<polygon fill="white" stroke="black" points="158.5,-114.5 158.5,-133.5 241.5,-133.5 241.5,-114.5 158.5,-114.5"/>
<text text-anchor="middle" x="200" y="-121.5" font-family="Helvetica,sans-Serif" font-size="10.00">ModuleIo::open</text>
</a>
</g>
</g>
<!-- Node0&#45;&gt;Node1 -->
<g id="edge1" class="edge"><title>Node0&#45;&gt;Node1</title>
<path fill="none" stroke="midnightblue" d="M75.4096,-76.5289C93.2235,-84.5137 119.583,-96.0159 143,-105 148.465,-107.097 154.274,-109.202 160.002,-111.208"/>
<polygon fill="midnightblue" stroke="midnightblue" points="158.896,-114.529 169.49,-114.471 161.172,-107.909 158.896,-114.529"/>
</g>
<!-- Node2 -->
<g id="node3" class="node"><title>Node2</title>
<g id="a_node3"><a xlink:href="class_module_io.xhtml#a20dc35e80e7b0d3263e9fc364856d3f8" target="_top" xlink:title="ModuleIo::setBaudrate">
<polygon fill="white" stroke="black" points="143,-76.5 143,-95.5 257,-95.5 257,-76.5 143,-76.5"/>
<text text-anchor="middle" x="200" y="-83.5" font-family="Helvetica,sans-Serif" font-size="10.00">ModuleIo::setBaudrate</text>
</a>
</g>
</g>
<!-- Node0&#45;&gt;Node2 -->
<g id="edge2" class="edge"><title>Node0&#45;&gt;Node2</title>
<path fill="none" stroke="midnightblue" d="M107.077,-73.9132C115.429,-75.0114 124.16,-76.1595 132.777,-77.2924"/>
<polygon fill="midnightblue" stroke="midnightblue" points="132.438,-80.778 142.809,-78.6116 133.351,-73.8377 132.438,-80.778"/>
</g>
<!-- Node3 -->
<g id="node4" class="node"><title>Node3</title>
<g id="a_node4"><a xlink:href="class_module_io.xhtml#ace715079653d7eadeefc201e11d2613b" target="_top" xlink:title="ModuleIo::write">
<polygon fill="white" stroke="black" points="159,-38.5 159,-57.5 241,-57.5 241,-38.5 159,-38.5"/>
<text text-anchor="middle" x="200" y="-45.5" font-family="Helvetica,sans-Serif" font-size="10.00">ModuleIo::write</text>
</a>
</g>
</g>
<!-- Node0&#45;&gt;Node3 -->
<g id="edge3" class="edge"><title>Node0&#45;&gt;Node3</title>
<path fill="none" stroke="midnightblue" d="M107.077,-60.0868C120.709,-58.2943 135.353,-56.3688 148.857,-54.5932"/>
<polygon fill="midnightblue" stroke="midnightblue" points="149.467,-58.0432 158.926,-53.2693 148.555,-51.1029 149.467,-58.0432"/>
</g>
<!-- Node4 -->
<g id="node5" class="node"><title>Node4</title>
<g id="a_node5"><a xlink:href="class_module_io.xhtml#a0e844a19fc5d6cfb2eb8b82ddbd654c6" target="_top" xlink:title="ModuleIo::read">
<polygon fill="white" stroke="black" points="160,-0.5 160,-19.5 240,-19.5 240,-0.5 160,-0.5"/>
<text text-anchor="middle" x="200" y="-7.5" font-family="Helvetica,sans-Serif" font-size="10.00">ModuleIo::read</text>
</a>
</g>
</g>
<!-- Node0&#45;&gt;Node4 -->
<g id="edge4" class="edge"><title>Node0&#45;&gt;Node4</title>
<path fill="none" stroke="midnightblue" d="M75.4096,-57.4711C93.2235,-49.4863 119.583,-37.9841 143,-29 148.465,-26.9033 154.274,-24.7981 160.002,-22.7921"/>
<polygon fill="midnightblue" stroke="midnightblue" points="161.172,-26.0909 169.49,-19.529 158.896,-19.4714 161.172,-26.0909"/>
</g>
</g>
</svg>
