<?xml version="1.0" encoding="UTF-8" standalone="no"?>
<!DOCTYPE svg PUBLIC "-//W3C//DTD SVG 1.1//EN"
 "http://www.w3.org/Graphics/SVG/1.1/DTD/svg11.dtd">
<!-- Generated by graphviz version 2.38.0 (20140413.2041)
 -->
<!-- Title: examples/atmel_samg55/src/ASF/sam/utils/compiler.h Pages: 1 -->
<svg width="2742pt" height="295pt"
 viewBox="0.00 0.00 2742.01 295.00" xmlns="http://www.w3.org/2000/svg" xmlns:xlink="http://www.w3.org/1999/xlink">
<g id="graph0" class="graph" transform="scale(1 1) rotate(0) translate(4 291)">
<title>examples/atmel_samg55/src/ASF/sam/utils/compiler.h</title>
<polygon fill="white" stroke="none" points="-4,4 -4,-291 2738.01,-291 2738.01,4 -4,4"/>
<!-- Node13 -->
<g id="node1" class="node"><title>Node13</title>
<polygon fill="#bfbfbf" stroke="black" points="1001.51,-256.5 1001.51,-286.5 1147.51,-286.5 1147.51,-256.5 1001.51,-256.5"/>
<text text-anchor="start" x="1009.51" y="-274.5" font-family="Helvetica,sans-Serif" font-size="10.00">examples/atmel_samg55</text>
<text text-anchor="middle" x="1074.51" y="-263.5" font-family="Helvetica,sans-Serif" font-size="10.00">/src/ASF/sam/utils/compiler.h</text>
</g>
<!-- Node14 -->
<g id="node2" class="node"><title>Node14</title>
<g id="a_node2"><a xlink:href="board_8h.xhtml" target="_top" xlink:title="Standard board header file. ">
<polygon fill="white" stroke="red" points="334.512,-173 334.512,-214 462.512,-214 462.512,-173 334.512,-173"/>
<text text-anchor="start" x="342.512" y="-202" font-family="Helvetica,sans-Serif" font-size="10.00">examples/atmel_samg55</text>
<text text-anchor="start" x="342.512" y="-191" font-family="Helvetica,sans-Serif" font-size="10.00">/src/ASF/common/boards</text>
<text text-anchor="middle" x="398.512" y="-180" font-family="Helvetica,sans-Serif" font-size="10.00">/board.h</text>
</a>
</g>
</g>
<!-- Node13&#45;&gt;Node14 -->
<g id="edge1" class="edge"><title>Node13&#45;&gt;Node14</title>
<path fill="none" stroke="midnightblue" d="M991.31,-265.108C885.02,-257.672 695.531,-242.576 534.512,-220 510.96,-216.698 485.285,-212.136 462.651,-207.783"/>
<polygon fill="midnightblue" stroke="midnightblue" points="991.114,-268.603 1001.33,-265.804 991.599,-261.62 991.114,-268.603"/>
</g>
<!-- Node20 -->
<g id="node3" class="node"><title>Node20</title>
<g id="a_node3"><a xlink:href="board__init_8c.xhtml" target="_top" xlink:title="SAMG55 Xplained Pro board initialization. ">
<polygon fill="white" stroke="black" points="223.012,-84 223.012,-125 370.012,-125 370.012,-84 223.012,-84"/>
<text text-anchor="start" x="231.012" y="-113" font-family="Helvetica,sans-Serif" font-size="10.00">examples/atmel_samg55</text>
<text text-anchor="start" x="231.012" y="-102" font-family="Helvetica,sans-Serif" font-size="10.00">/src/ASF/sam/boards/samg55</text>
<text text-anchor="middle" x="296.512" y="-91" font-family="Helvetica,sans-Serif" font-size="10.00">_xplained_pro/board_init.c</text>
</a>
</g>
</g>
<!-- Node13&#45;&gt;Node20 -->
<g id="edge21" class="edge"><title>Node13&#45;&gt;Node20</title>
<path fill="none" stroke="midnightblue" d="M991.13,-270.307C806.538,-269.114 375.676,-261.828 325.512,-220 297.793,-196.887 294.48,-151.435 295.117,-125.285"/>
<polygon fill="midnightblue" stroke="midnightblue" points="991.31,-273.808 1001.33,-270.368 991.352,-266.808 991.31,-273.808"/>
</g>
<!-- Node21 -->
<g id="node4" class="node"><title>Node21</title>
<g id="a_node4"><a xlink:href="asf_8h.xhtml" target="_top" xlink:title="Autogenerated API include file for the Atmel Software Framework (ASF) ">
<polygon fill="white" stroke="red" points="431.012,-6 431.012,-36 556.012,-36 556.012,-6 431.012,-6"/>
<text text-anchor="start" x="439.012" y="-24" font-family="Helvetica,sans-Serif" font-size="10.00">examples/atmel_samg55</text>
<text text-anchor="middle" x="493.512" y="-13" font-family="Helvetica,sans-Serif" font-size="10.00">/src/asf.h</text>
</a>
</g>
</g>
<!-- Node13&#45;&gt;Node21 -->
<g id="edge37" class="edge"><title>Node13&#45;&gt;Node21</title>
<path fill="none" stroke="midnightblue" d="M991.167,-269.841C768.433,-267.572 170.797,-257.978 90.5119,-220 42.1635,-197.129 28.8123,-180.881 9.51188,-131 1.01169,-109.032 -6.158,-95.5875 9.51188,-78 37.0846,-47.0531 306.148,-30.6675 430.758,-24.6867"/>
<polygon fill="midnightblue" stroke="midnightblue" points="991.133,-273.341 1001.17,-269.94 991.203,-266.341 991.133,-273.341"/>
</g>
<!-- Node25 -->
<g id="node5" class="node"><title>Node25</title>
<g id="a_node5"><a xlink:href="ioport_8h.xhtml" target="_top" xlink:title="Common IOPORT service main header file for AVR, UC3 and ARM architectures. ">
<polygon fill="white" stroke="black" points="130.512,-173 130.512,-214 264.512,-214 264.512,-173 130.512,-173"/>
<text text-anchor="start" x="138.512" y="-202" font-family="Helvetica,sans-Serif" font-size="10.00">examples/atmel_samg55</text>
<text text-anchor="start" x="138.512" y="-191" font-family="Helvetica,sans-Serif" font-size="10.00">/src/ASF/common/services</text>
<text text-anchor="middle" x="197.512" y="-180" font-family="Helvetica,sans-Serif" font-size="10.00">/ioport/ioport.h</text>
</a>
</g>
</g>
<!-- Node13&#45;&gt;Node25 -->
<g id="edge4" class="edge"><title>Node13&#45;&gt;Node25</title>
<path fill="none" stroke="midnightblue" d="M991.378,-270.927C847.073,-270.389 541.343,-263.595 287.512,-220 278.549,-218.461 269.2,-216.374 260.064,-214.054"/>
<polygon fill="midnightblue" stroke="midnightblue" points="991.476,-274.427 1001.49,-270.955 991.496,-267.427 991.476,-274.427"/>
</g>
<!-- Node26 -->
<g id="node6" class="node"><title>Node26</title>
<g id="a_node6"><a xlink:href="led_8h.xhtml" target="_top" xlink:title="SAMG55&#45;XPLAINED&#45;PRO LEDs support package. ">
<polygon fill="white" stroke="black" points="19.0119,-84 19.0119,-125 166.012,-125 166.012,-84 19.0119,-84"/>
<text text-anchor="start" x="27.0119" y="-113" font-family="Helvetica,sans-Serif" font-size="10.00">examples/atmel_samg55</text>
<text text-anchor="start" x="27.0119" y="-102" font-family="Helvetica,sans-Serif" font-size="10.00">/src/ASF/sam/boards/samg55</text>
<text text-anchor="middle" x="92.5119" y="-91" font-family="Helvetica,sans-Serif" font-size="10.00">_xplained_pro/led.h</text>
</a>
</g>
</g>
<!-- Node13&#45;&gt;Node26 -->
<g id="edge22" class="edge"><title>Node13&#45;&gt;Node26</title>
<path fill="none" stroke="midnightblue" d="M991.049,-268.746C764.869,-263.64 154.842,-247.388 121.512,-220 93.6274,-197.087 90.3771,-151.56 91.0687,-125.344"/>
<polygon fill="midnightblue" stroke="midnightblue" points="991.127,-272.249 1001.2,-268.974 991.284,-265.25 991.127,-272.249"/>
</g>
<!-- Node27 -->
<g id="node7" class="node"><title>Node27</title>
<g id="a_node7"><a xlink:href="uart__serial_8h.xhtml" target="_top" xlink:title="Uart Serial for SAM. ">
<polygon fill="white" stroke="black" points="1103.01,-173 1103.01,-214 1246.01,-214 1246.01,-173 1103.01,-173"/>
<text text-anchor="start" x="1111.01" y="-202" font-family="Helvetica,sans-Serif" font-size="10.00">examples/atmel_samg55</text>
<text text-anchor="start" x="1111.01" y="-191" font-family="Helvetica,sans-Serif" font-size="10.00">/src/ASF/common/services</text>
<text text-anchor="middle" x="1174.51" y="-180" font-family="Helvetica,sans-Serif" font-size="10.00">/serial/sam_uart/uart_serial.h</text>
</a>
</g>
</g>
<!-- Node13&#45;&gt;Node27 -->
<g id="edge9" class="edge"><title>Node13&#45;&gt;Node27</title>
<path fill="none" stroke="midnightblue" d="M1101.5,-249.989C1116.14,-238.862 1134.15,-225.176 1148.62,-214.18"/>
<polygon fill="midnightblue" stroke="midnightblue" points="1099.16,-247.368 1093.32,-256.205 1103.4,-252.941 1099.16,-247.368"/>
</g>
<!-- Node28 -->
<g id="node8" class="node"><title>Node28</title>
<g id="a_node8"><a xlink:href="sleepmgr_8c.xhtml" target="_top" xlink:title="SAM3/SAM4 Sleep manager implementation. ">
<polygon fill="white" stroke="black" points="1016.51,-0.5 1016.51,-41.5 1150.51,-41.5 1150.51,-0.5 1016.51,-0.5"/>
<text text-anchor="start" x="1024.51" y="-29.5" font-family="Helvetica,sans-Serif" font-size="10.00">examples/atmel_samg55</text>
<text text-anchor="start" x="1024.51" y="-18.5" font-family="Helvetica,sans-Serif" font-size="10.00">/src/ASF/common/services</text>
<text text-anchor="middle" x="1083.51" y="-7.5" font-family="Helvetica,sans-Serif" font-size="10.00">/sleepmgr/sam/sleepmgr.c</text>
</a>
</g>
</g>
<!-- Node13&#45;&gt;Node28 -->
<g id="edge10" class="edge"><title>Node13&#45;&gt;Node28</title>
<path fill="none" stroke="midnightblue" d="M1072.67,-246.148C1072.27,-223.041 1075.42,-188.711 1094.51,-167 1128.2,-128.689 1173.62,-172.347 1203.51,-131 1217.31,-111.91 1216.17,-97.8684 1203.51,-78 1191.47,-59.0932 1171.2,-46.4651 1150.7,-38.0755"/>
<polygon fill="midnightblue" stroke="midnightblue" points="1069.17,-246.335 1073.07,-256.187 1076.16,-246.054 1069.17,-246.335"/>
</g>
<!-- Node29 -->
<g id="node9" class="node"><title>Node29</title>
<g id="a_node9"><a xlink:href="sam_2sleepmgr_8h.xhtml" target="_top" xlink:title="SAM3/SAM4 Sleep manager implementation. ">
<polygon fill="white" stroke="black" points="878.512,-84 878.512,-125 1012.51,-125 1012.51,-84 878.512,-84"/>
<text text-anchor="start" x="886.512" y="-113" font-family="Helvetica,sans-Serif" font-size="10.00">examples/atmel_samg55</text>
<text text-anchor="start" x="886.512" y="-102" font-family="Helvetica,sans-Serif" font-size="10.00">/src/ASF/common/services</text>
<text text-anchor="middle" x="945.512" y="-91" font-family="Helvetica,sans-Serif" font-size="10.00">/sleepmgr/sam/sleepmgr.h</text>
</a>
</g>
</g>
<!-- Node13&#45;&gt;Node29 -->
<g id="edge11" class="edge"><title>Node13&#45;&gt;Node29</title>
<path fill="none" stroke="midnightblue" d="M991.446,-260.021C942.917,-252.004 888.364,-239.045 873.512,-220 859.026,-201.425 863.651,-188.392 873.512,-167 881.495,-149.682 897.027,-135.431 911.627,-125.023"/>
<polygon fill="midnightblue" stroke="midnightblue" points="990.948,-263.486 1001.38,-261.608 992.053,-256.574 990.948,-263.486"/>
</g>
<!-- Node30 -->
<g id="node10" class="node"><title>Node30</title>
<g id="a_node10"><a xlink:href="sleepmgr_8h.xhtml" target="_top" xlink:title="Sleep manager. ">
<polygon fill="white" stroke="red" points="426.512,-84 426.512,-125 560.512,-125 560.512,-84 426.512,-84"/>
<text text-anchor="start" x="434.512" y="-113" font-family="Helvetica,sans-Serif" font-size="10.00">examples/atmel_samg55</text>
<text text-anchor="start" x="434.512" y="-102" font-family="Helvetica,sans-Serif" font-size="10.00">/src/ASF/common/services</text>
<text text-anchor="middle" x="493.512" y="-91" font-family="Helvetica,sans-Serif" font-size="10.00">/sleepmgr/sleepmgr.h</text>
</a>
</g>
</g>
<!-- Node13&#45;&gt;Node30 -->
<g id="edge14" class="edge"><title>Node13&#45;&gt;Node30</title>
<path fill="none" stroke="midnightblue" d="M991.37,-266.544C917.893,-261.224 808.565,-248.819 717.512,-220 644.019,-196.739 565.388,-151.126 523.639,-125.039"/>
<polygon fill="midnightblue" stroke="midnightblue" points="991.275,-270.046 1001.49,-267.248 991.761,-263.062 991.275,-270.046"/>
</g>
<!-- Node32 -->
<g id="node11" class="node"><title>Node32</title>
<g id="a_node11"><a xlink:href="interrupt__sam__nvic_8h.xhtml" target="_top" xlink:title="Global interrupt management for SAM D20, SAM3 and SAM4 (NVIC based) ">
<polygon fill="white" stroke="red" points="1264.01,-167.5 1264.01,-219.5 1389.01,-219.5 1389.01,-167.5 1264.01,-167.5"/>
<text text-anchor="start" x="1272.01" y="-207.5" font-family="Helvetica,sans-Serif" font-size="10.00">examples/atmel_samg55</text>
<text text-anchor="start" x="1272.01" y="-196.5" font-family="Helvetica,sans-Serif" font-size="10.00">/src/ASF/common/utils</text>
<text text-anchor="start" x="1272.01" y="-185.5" font-family="Helvetica,sans-Serif" font-size="10.00">/interrupt/interrupt_sam</text>
<text text-anchor="middle" x="1326.51" y="-174.5" font-family="Helvetica,sans-Serif" font-size="10.00">_nvic.h</text>
</a>
</g>
</g>
<!-- Node13&#45;&gt;Node32 -->
<g id="edge16" class="edge"><title>Node13&#45;&gt;Node32</title>
<path fill="none" stroke="midnightblue" d="M1138.69,-253.813C1173.45,-244.47 1217.04,-232.259 1255.51,-220 1258.26,-219.125 1261.06,-218.213 1263.88,-217.275"/>
<polygon fill="midnightblue" stroke="midnightblue" points="1137.43,-250.528 1128.67,-256.493 1139.24,-257.29 1137.43,-250.528"/>
</g>
<!-- Node34 -->
<g id="node12" class="node"><title>Node34</title>
<g id="a_node12"><a xlink:href="read_8c.xhtml" target="_top" xlink:title="System&#45;specific implementation of the _read function used by the standard library. ">
<polygon fill="white" stroke="black" points="1407.01,-173 1407.01,-214 1532.01,-214 1532.01,-173 1407.01,-173"/>
<text text-anchor="start" x="1415.01" y="-202" font-family="Helvetica,sans-Serif" font-size="10.00">examples/atmel_samg55</text>
<text text-anchor="start" x="1415.01" y="-191" font-family="Helvetica,sans-Serif" font-size="10.00">/src/ASF/common/utils</text>
<text text-anchor="middle" x="1469.51" y="-180" font-family="Helvetica,sans-Serif" font-size="10.00">/stdio/read.c</text>
</a>
</g>
</g>
<!-- Node13&#45;&gt;Node34 -->
<g id="edge17" class="edge"><title>Node13&#45;&gt;Node34</title>
<path fill="none" stroke="midnightblue" d="M1158.03,-261.909C1223.99,-254.067 1318.01,-240.532 1398.51,-220 1405.11,-218.317 1411.96,-216.265 1418.68,-214.065"/>
<polygon fill="midnightblue" stroke="midnightblue" points="1157.22,-258.48 1147.7,-263.119 1158.03,-265.433 1157.22,-258.48"/>
</g>
<!-- Node35 -->
<g id="node13" class="node"><title>Node35</title>
<g id="a_node13"><a xlink:href="stdio__serial_8h.xhtml" target="_top" xlink:title="Common Standard I/O Serial Management. ">
<polygon fill="white" stroke="black" points="579.012,-78.5 579.012,-130.5 704.012,-130.5 704.012,-78.5 579.012,-78.5"/>
<text text-anchor="start" x="587.012" y="-118.5" font-family="Helvetica,sans-Serif" font-size="10.00">examples/atmel_samg55</text>
<text text-anchor="start" x="587.012" y="-107.5" font-family="Helvetica,sans-Serif" font-size="10.00">/src/ASF/common/utils</text>
<text text-anchor="start" x="587.012" y="-96.5" font-family="Helvetica,sans-Serif" font-size="10.00">/stdio/stdio_serial/stdio</text>
<text text-anchor="middle" x="641.512" y="-85.5" font-family="Helvetica,sans-Serif" font-size="10.00">_serial.h</text>
</a>
</g>
</g>
<!-- Node13&#45;&gt;Node35 -->
<g id="edge18" class="edge"><title>Node13&#45;&gt;Node35</title>
<path fill="none" stroke="midnightblue" d="M991.461,-262.923C938.946,-256.091 870.476,-243.364 813.512,-220 759.081,-197.675 703.801,-156.963 671.098,-130.585"/>
<polygon fill="midnightblue" stroke="midnightblue" points="991.051,-266.398 1001.41,-264.171 991.923,-259.453 991.051,-266.398"/>
</g>
<!-- Node36 -->
<g id="node14" class="node"><title>Node36</title>
<g id="a_node14"><a xlink:href="write_8c.xhtml" target="_top" xlink:title="System&#45;specific implementation of the _write function used by the standard library. ">
<polygon fill="white" stroke="black" points="1550.01,-173 1550.01,-214 1675.01,-214 1675.01,-173 1550.01,-173"/>
<text text-anchor="start" x="1558.01" y="-202" font-family="Helvetica,sans-Serif" font-size="10.00">examples/atmel_samg55</text>
<text text-anchor="start" x="1558.01" y="-191" font-family="Helvetica,sans-Serif" font-size="10.00">/src/ASF/common/utils</text>
<text text-anchor="middle" x="1612.51" y="-180" font-family="Helvetica,sans-Serif" font-size="10.00">/stdio/write.c</text>
</a>
</g>
</g>
<!-- Node13&#45;&gt;Node36 -->
<g id="edge20" class="edge"><title>Node13&#45;&gt;Node36</title>
<path fill="none" stroke="midnightblue" d="M1157.84,-267.441C1252.03,-262.615 1409.44,-250.404 1541.51,-220 1548.4,-218.413 1555.55,-216.361 1562.53,-214.111"/>
<polygon fill="midnightblue" stroke="midnightblue" points="1157.62,-263.948 1147.8,-267.94 1157.96,-270.939 1157.62,-263.948"/>
</g>
<!-- Node37 -->
<g id="node15" class="node"><title>Node37</title>
<g id="a_node15"><a xlink:href="samg55__xplained__pro_8h.xhtml" target="_top" xlink:title="SAMG55 Xplained Pro board definition. ">
<polygon fill="white" stroke="black" points="1693.51,-173 1693.51,-214 1875.51,-214 1875.51,-173 1693.51,-173"/>
<text text-anchor="start" x="1701.51" y="-202" font-family="Helvetica,sans-Serif" font-size="10.00">examples/atmel_samg55</text>
<text text-anchor="start" x="1701.51" y="-191" font-family="Helvetica,sans-Serif" font-size="10.00">/src/ASF/sam/boards/samg55</text>
<text text-anchor="middle" x="1784.51" y="-180" font-family="Helvetica,sans-Serif" font-size="10.00">_xplained_pro/samg55_xplained_pro.h</text>
</a>
</g>
</g>
<!-- Node13&#45;&gt;Node37 -->
<g id="edge23" class="edge"><title>Node13&#45;&gt;Node37</title>
<path fill="none" stroke="midnightblue" d="M1157.82,-268.009C1275.77,-263.485 1497.9,-251.292 1684.51,-220 1694.14,-218.385 1704.2,-216.302 1714.08,-214.024"/>
<polygon fill="midnightblue" stroke="midnightblue" points="1157.63,-264.513 1147.77,-268.385 1157.9,-271.508 1157.63,-264.513"/>
</g>
<!-- Node38 -->
<g id="node16" class="node"><title>Node38</title>
<g id="a_node16"><a xlink:href="drivers_2efc_2efc_8h.xhtml" target="_top" xlink:title="Embedded Flash Controller (EFC) driver for SAM. ">
<polygon fill="white" stroke="red" points="1894.01,-173 1894.01,-214 2019.01,-214 2019.01,-173 1894.01,-173"/>
<text text-anchor="start" x="1902.01" y="-202" font-family="Helvetica,sans-Serif" font-size="10.00">examples/atmel_samg55</text>
<text text-anchor="start" x="1902.01" y="-191" font-family="Helvetica,sans-Serif" font-size="10.00">/src/ASF/sam/drivers</text>
<text text-anchor="middle" x="1956.51" y="-180" font-family="Helvetica,sans-Serif" font-size="10.00">/efc/efc.h</text>
</a>
</g>
</g>
<!-- Node13&#45;&gt;Node38 -->
<g id="edge24" class="edge"><title>Node13&#45;&gt;Node38</title>
<path fill="none" stroke="midnightblue" d="M1157.62,-268.245C1335.37,-262.946 1747.4,-247.984 1884.51,-220 1891.92,-218.489 1899.6,-216.386 1907.06,-214.03"/>
<polygon fill="midnightblue" stroke="midnightblue" points="1157.43,-264.749 1147.54,-268.543 1157.64,-271.746 1157.43,-264.749"/>
</g>
<!-- Node40 -->
<g id="node17" class="node"><title>Node40</title>
<g id="a_node17"><a xlink:href="drivers_2flexcom_2flexcom_8h.xhtml" target="_top" xlink:title="FLEXCOM driver for SAM. ">
<polygon fill="white" stroke="red" points="2037.01,-173 2037.01,-214 2162.01,-214 2162.01,-173 2037.01,-173"/>
<text text-anchor="start" x="2045.01" y="-202" font-family="Helvetica,sans-Serif" font-size="10.00">examples/atmel_samg55</text>
<text text-anchor="start" x="2045.01" y="-191" font-family="Helvetica,sans-Serif" font-size="10.00">/src/ASF/sam/drivers</text>
<text text-anchor="middle" x="2099.51" y="-180" font-family="Helvetica,sans-Serif" font-size="10.00">/flexcom/flexcom.h</text>
</a>
</g>
</g>
<!-- Node13&#45;&gt;Node40 -->
<g id="edge25" class="edge"><title>Node13&#45;&gt;Node40</title>
<path fill="none" stroke="midnightblue" d="M1158.02,-269.197C1358.62,-265.565 1863.21,-253.31 2028.51,-220 2035.83,-218.525 2043.41,-216.443 2050.77,-214.097"/>
<polygon fill="midnightblue" stroke="midnightblue" points="1157.78,-265.701 1147.84,-269.379 1157.9,-272.7 1157.78,-265.701"/>
</g>
<!-- Node41 -->
<g id="node18" class="node"><title>Node41</title>
<g id="a_node18"><a xlink:href="drivers_2pdc_2pdc_8h.xhtml" target="_top" xlink:title="SAM Peripheral DMA Controller (PDC) driver. ">
<polygon fill="white" stroke="red" points="2180.01,-173 2180.01,-214 2305.01,-214 2305.01,-173 2180.01,-173"/>
<text text-anchor="start" x="2188.01" y="-202" font-family="Helvetica,sans-Serif" font-size="10.00">examples/atmel_samg55</text>
<text text-anchor="start" x="2188.01" y="-191" font-family="Helvetica,sans-Serif" font-size="10.00">/src/ASF/sam/drivers</text>
<text text-anchor="middle" x="2242.51" y="-180" font-family="Helvetica,sans-Serif" font-size="10.00">/pdc/pdc.h</text>
</a>
</g>
</g>
<!-- Node13&#45;&gt;Node41 -->
<g id="edge26" class="edge"><title>Node13&#45;&gt;Node41</title>
<path fill="none" stroke="midnightblue" d="M1158.14,-269.872C1379.66,-267.693 1977.86,-258.33 2171.51,-220 2178.96,-218.525 2186.68,-216.41 2194.17,-214.019"/>
<polygon fill="midnightblue" stroke="midnightblue" points="1157.84,-266.374 1147.88,-269.97 1157.91,-273.374 1157.84,-266.374"/>
</g>
<!-- Node43 -->
<g id="node19" class="node"><title>Node43</title>
<g id="a_node19"><a xlink:href="drivers_2pmc_2pmc_8h.xhtml" target="_top" xlink:title="Power Management Controller (PMC) driver for SAM. ">
<polygon fill="white" stroke="red" points="2323.01,-173 2323.01,-214 2448.01,-214 2448.01,-173 2323.01,-173"/>
<text text-anchor="start" x="2331.01" y="-202" font-family="Helvetica,sans-Serif" font-size="10.00">examples/atmel_samg55</text>
<text text-anchor="start" x="2331.01" y="-191" font-family="Helvetica,sans-Serif" font-size="10.00">/src/ASF/sam/drivers</text>
<text text-anchor="middle" x="2385.51" y="-180" font-family="Helvetica,sans-Serif" font-size="10.00">/pmc/pmc.h</text>
</a>
</g>
</g>
<!-- Node13&#45;&gt;Node43 -->
<g id="edge27" class="edge"><title>Node13&#45;&gt;Node43</title>
<path fill="none" stroke="midnightblue" d="M1157.93,-270.395C1398.79,-269.57 2092.23,-263.385 2314.51,-220 2321.97,-218.545 2329.69,-216.44 2337.17,-214.055"/>
<polygon fill="midnightblue" stroke="midnightblue" points="1157.83,-266.895 1147.84,-270.427 1157.85,-273.895 1157.83,-266.895"/>
</g>
<!-- Node45 -->
<g id="node20" class="node"><title>Node45</title>
<g id="a_node20"><a xlink:href="sleep_8c.xhtml" target="_top" xlink:title="Sleep mode access. ">
<polygon fill="white" stroke="black" points="1069.01,-84 1069.01,-125 1194.01,-125 1194.01,-84 1069.01,-84"/>
<text text-anchor="start" x="1077.01" y="-113" font-family="Helvetica,sans-Serif" font-size="10.00">examples/atmel_samg55</text>
<text text-anchor="start" x="1077.01" y="-102" font-family="Helvetica,sans-Serif" font-size="10.00">/src/ASF/sam/drivers</text>
<text text-anchor="middle" x="1131.51" y="-91" font-family="Helvetica,sans-Serif" font-size="10.00">/pmc/sleep.c</text>
</a>
</g>
</g>
<!-- Node13&#45;&gt;Node45 -->
<g id="edge28" class="edge"><title>Node13&#45;&gt;Node45</title>
<path fill="none" stroke="midnightblue" d="M1064.3,-246.983C1056.47,-225.278 1048.8,-192.629 1060.51,-167 1068.37,-149.793 1083.69,-135.553 1098.09,-125.123"/>
<polygon fill="midnightblue" stroke="midnightblue" points="1061.07,-248.345 1067.96,-256.4 1067.6,-245.811 1061.07,-248.345"/>
</g>
<!-- Node46 -->
<g id="node21" class="node"><title>Node46</title>
<g id="a_node21"><a xlink:href="sleep_8h.xhtml" target="_top" xlink:title="Sleep mode access. ">
<polygon fill="white" stroke="black" points="883.012,-173 883.012,-214 1008.01,-214 1008.01,-173 883.012,-173"/>
<text text-anchor="start" x="891.012" y="-202" font-family="Helvetica,sans-Serif" font-size="10.00">examples/atmel_samg55</text>
<text text-anchor="start" x="891.012" y="-191" font-family="Helvetica,sans-Serif" font-size="10.00">/src/ASF/sam/drivers</text>
<text text-anchor="middle" x="945.512" y="-180" font-family="Helvetica,sans-Serif" font-size="10.00">/pmc/sleep.h</text>
</a>
</g>
</g>
<!-- Node13&#45;&gt;Node46 -->
<g id="edge29" class="edge"><title>Node13&#45;&gt;Node46</title>
<path fill="none" stroke="midnightblue" d="M1041.85,-251.255C1022.65,-239.943 998.423,-225.673 979.071,-214.271"/>
<polygon fill="midnightblue" stroke="midnightblue" points="1040.16,-254.323 1050.55,-256.383 1043.71,-248.291 1040.16,-254.323"/>
</g>
<!-- Node47 -->
<g id="node22" class="node"><title>Node47</title>
<g id="a_node22"><a xlink:href="drivers_2supc_2supc_8h.xhtml" target="_top" xlink:title="Supply Controller (SUPC) driver for SAM. ">
<polygon fill="white" stroke="red" points="2466.01,-173 2466.01,-214 2591.01,-214 2591.01,-173 2466.01,-173"/>
<text text-anchor="start" x="2474.01" y="-202" font-family="Helvetica,sans-Serif" font-size="10.00">examples/atmel_samg55</text>
<text text-anchor="start" x="2474.01" y="-191" font-family="Helvetica,sans-Serif" font-size="10.00">/src/ASF/sam/drivers</text>
<text text-anchor="middle" x="2528.51" y="-180" font-family="Helvetica,sans-Serif" font-size="10.00">/supc/supc.h</text>
</a>
</g>
</g>
<!-- Node13&#45;&gt;Node47 -->
<g id="edge33" class="edge"><title>Node13&#45;&gt;Node47</title>
<path fill="none" stroke="midnightblue" d="M1157.99,-270.81C1417.31,-271.244 2206.52,-268.44 2457.51,-220 2464.97,-218.56 2472.69,-216.464 2480.18,-214.083"/>
<polygon fill="midnightblue" stroke="midnightblue" points="1157.89,-267.31 1147.88,-270.791 1157.88,-274.31 1157.89,-267.31"/>
</g>
<!-- Node49 -->
<g id="node23" class="node"><title>Node49</title>
<g id="a_node23"><a xlink:href="drivers_2usart_2usart_8h.xhtml" target="_top" xlink:title="Universal Synchronous Asynchronous Receiver Transmitter (USART) driver for SAM. ">
<polygon fill="white" stroke="red" points="2609.01,-173 2609.01,-214 2734.01,-214 2734.01,-173 2609.01,-173"/>
<text text-anchor="start" x="2617.01" y="-202" font-family="Helvetica,sans-Serif" font-size="10.00">examples/atmel_samg55</text>
<text text-anchor="start" x="2617.01" y="-191" font-family="Helvetica,sans-Serif" font-size="10.00">/src/ASF/sam/drivers</text>
<text text-anchor="middle" x="2671.51" y="-180" font-family="Helvetica,sans-Serif" font-size="10.00">/usart/usart.h</text>
</a>
</g>
</g>
<!-- Node13&#45;&gt;Node49 -->
<g id="edge34" class="edge"><title>Node13&#45;&gt;Node49</title>
<path fill="none" stroke="midnightblue" d="M1157.88,-269.257C1455.99,-264.603 2458.91,-247.077 2600.51,-220 2607.97,-218.573 2615.7,-216.484 2623.18,-214.106"/>
<polygon fill="midnightblue" stroke="midnightblue" points="1157.52,-265.762 1147.58,-269.417 1157.63,-272.761 1157.52,-265.762"/>
</g>
<!-- Node51 -->
<g id="node24" class="node"><title>Node51</title>
<g id="a_node24"><a xlink:href="fpu_8h.xhtml" target="_top" xlink:title="FPU support for SAM. ">
<polygon fill="white" stroke="black" points="722.512,-89.5 722.512,-119.5 860.512,-119.5 860.512,-89.5 722.512,-89.5"/>
<text text-anchor="start" x="730.512" y="-107.5" font-family="Helvetica,sans-Serif" font-size="10.00">examples/atmel_samg55</text>
<text text-anchor="middle" x="791.512" y="-96.5" font-family="Helvetica,sans-Serif" font-size="10.00">/src/ASF/sam/utils/fpu/fpu.h</text>
</a>
</g>
</g>
<!-- Node13&#45;&gt;Node51 -->
<g id="edge35" class="edge"><title>Node13&#45;&gt;Node51</title>
<path fill="none" stroke="midnightblue" d="M991.376,-266.093C948.865,-260.287 898.274,-247.539 860.512,-220 825.07,-194.154 804.351,-144.062 795.934,-119.612"/>
<polygon fill="midnightblue" stroke="midnightblue" points="991.074,-269.583 1001.43,-267.36 991.949,-262.638 991.074,-269.583"/>
</g>
<!-- Node14&#45;&gt;Node20 -->
<g id="edge2" class="edge"><title>Node14&#45;&gt;Node20</title>
<path fill="none" stroke="midnightblue" d="M367.845,-166.343C352.383,-153.155 333.939,-137.423 319.679,-125.26"/>
<polygon fill="midnightblue" stroke="midnightblue" points="365.741,-169.149 375.621,-172.976 370.284,-163.823 365.741,-169.149"/>
</g>
<!-- Node14&#45;&gt;Node21 -->
<g id="edge3" class="edge"><title>Node14&#45;&gt;Node21</title>
<path fill="none" stroke="midnightblue" d="M397.469,-162.605C397.957,-138.164 401.821,-103.587 417.512,-78 428.65,-59.837 448.075,-45.6799 464.497,-36.1439"/>
<polygon fill="midnightblue" stroke="midnightblue" points="393.969,-162.721 397.447,-172.728 400.969,-162.736 393.969,-162.721"/>
</g>
<!-- Node25&#45;&gt;Node20 -->
<g id="edge5" class="edge"><title>Node25&#45;&gt;Node20</title>
<path fill="none" stroke="midnightblue" d="M227.523,-166.126C242.52,-152.947 260.357,-137.273 274.136,-125.164"/>
<polygon fill="midnightblue" stroke="midnightblue" points="225.178,-163.528 219.977,-172.758 229.799,-168.786 225.178,-163.528"/>
</g>
<!-- Node25&#45;&gt;Node21 -->
<g id="edge8" class="edge"><title>Node25&#45;&gt;Node21</title>
<path fill="none" stroke="midnightblue" d="M192.963,-162.624C190.844,-136.843 192.452,-100.331 213.512,-78 242.55,-47.2094 357.418,-32.5798 430.701,-26.2507"/>
<polygon fill="midnightblue" stroke="midnightblue" points="189.485,-163.023 194.01,-172.603 196.447,-162.293 189.485,-163.023"/>
</g>
<!-- Node25&#45;&gt;Node26 -->
<g id="edge6" class="edge"><title>Node25&#45;&gt;Node26</title>
<path fill="none" stroke="midnightblue" d="M165.943,-166.343C150.026,-153.155 131.039,-137.423 116.361,-125.26"/>
<polygon fill="midnightblue" stroke="midnightblue" points="164.015,-169.29 173.948,-172.976 168.481,-163.9 164.015,-169.29"/>
</g>
<!-- Node26&#45;&gt;Node21 -->
<g id="edge7" class="edge"><title>Node26&#45;&gt;Node21</title>
<path fill="none" stroke="midnightblue" d="M167.106,-81.3004C171.63,-80.1359 176.124,-79.0253 180.512,-78 266.52,-57.9031 367.284,-41.0523 430.761,-31.2404"/>
<polygon fill="midnightblue" stroke="midnightblue" points="165.96,-77.9831 157.187,-83.9235 167.75,-84.7505 165.96,-77.9831"/>
</g>
<!-- Node29&#45;&gt;Node21 -->
<g id="edge13" class="edge"><title>Node29&#45;&gt;Node21</title>
<path fill="none" stroke="midnightblue" d="M881.239,-81.0658C877.291,-79.9584 873.36,-78.9246 869.512,-78 760.741,-51.8672 631.172,-35.7902 556.031,-27.9092"/>
<polygon fill="midnightblue" stroke="midnightblue" points="880.469,-84.4874 891.05,-83.9496 882.443,-77.7715 880.469,-84.4874"/>
</g>
<!-- Node29&#45;&gt;Node28 -->
<g id="edge12" class="edge"><title>Node29&#45;&gt;Node28</title>
<path fill="none" stroke="midnightblue" d="M987.253,-78.8483C1007.43,-66.9306 1031.32,-52.8239 1050.25,-41.6445"/>
<polygon fill="midnightblue" stroke="midnightblue" points="985.397,-75.8798 978.566,-83.9787 988.957,-81.9072 985.397,-75.8798"/>
</g>
<!-- Node30&#45;&gt;Node21 -->
<g id="edge15" class="edge"><title>Node30&#45;&gt;Node21</title>
<path fill="none" stroke="midnightblue" d="M493.512,-73.5254C493.512,-60.758 493.512,-46.4702 493.512,-36.1846"/>
<polygon fill="midnightblue" stroke="midnightblue" points="490.012,-73.7711 493.512,-83.7711 497.012,-73.7712 490.012,-73.7711"/>
</g>
<!-- Node35&#45;&gt;Node21 -->
<g id="edge19" class="edge"><title>Node35&#45;&gt;Node21</title>
<path fill="none" stroke="midnightblue" d="M587.118,-73.5467C563.793,-60.702 537.666,-46.3148 518.955,-36.0111"/>
<polygon fill="midnightblue" stroke="midnightblue" points="585.451,-76.6244 595.899,-78.3823 588.828,-70.4926 585.451,-76.6244"/>
</g>
<!-- Node46&#45;&gt;Node21 -->
<g id="edge32" class="edge"><title>Node46&#45;&gt;Node21</title>
<path fill="none" stroke="midnightblue" d="M990.235,-166.937C1002.69,-157.391 1014.68,-145.325 1021.51,-131 1031.66,-109.741 1037.27,-95.5126 1021.51,-78 990.861,-43.9263 689.182,-28.997 556.073,-24.0309"/>
<polygon fill="midnightblue" stroke="midnightblue" points="988.1,-164.161 982.03,-172.844 992.19,-169.842 988.1,-164.161"/>
</g>
<!-- Node46&#45;&gt;Node29 -->
<g id="edge30" class="edge"><title>Node46&#45;&gt;Node29</title>
<path fill="none" stroke="midnightblue" d="M945.512,-162.441C945.512,-150.101 945.512,-136.162 945.512,-125.164"/>
<polygon fill="midnightblue" stroke="midnightblue" points="942.012,-162.758 945.512,-172.758 949.012,-162.758 942.012,-162.758"/>
</g>
<!-- Node46&#45;&gt;Node45 -->
<g id="edge31" class="edge"><title>Node46&#45;&gt;Node45</title>
<path fill="none" stroke="midnightblue" d="M996.484,-168.658C1025.73,-154.977 1062,-138.011 1089.59,-125.11"/>
<polygon fill="midnightblue" stroke="midnightblue" points="994.829,-165.568 987.254,-172.976 997.795,-171.909 994.829,-165.568"/>
</g>
<!-- Node51&#45;&gt;Node21 -->
<g id="edge36" class="edge"><title>Node51&#45;&gt;Node21</title>
<path fill="none" stroke="midnightblue" d="M739.762,-86.2904C730.709,-83.4246 721.358,-80.556 712.512,-78 658.787,-62.4763 597.016,-46.8833 552.803,-36.1082"/>
<polygon fill="midnightblue" stroke="midnightblue" points="738.84,-89.67 749.431,-89.3841 740.974,-83.003 738.84,-89.67"/>
</g>
</g>
</svg>
