<?xml version="1.0" encoding="UTF-8" standalone="no"?>
<!DOCTYPE svg PUBLIC "-//W3C//DTD SVG 1.1//EN"
 "http://www.w3.org/Graphics/SVG/1.1/DTD/svg11.dtd">
<!-- Generated by graphviz version 2.38.0 (20140413.2041)
 -->
<!-- Title: examples/atmel_samg55/src/config/conf_sleepmgr.h Pages: 1 -->
<svg width="144pt" height="117pt"
 viewBox="0.00 0.00 144.00 117.00" xmlns="http://www.w3.org/2000/svg" xmlns:xlink="http://www.w3.org/1999/xlink">
<g id="graph0" class="graph" transform="scale(1 1) rotate(0) translate(4 113)">
<title>examples/atmel_samg55/src/config/conf_sleepmgr.h</title>
<polygon fill="white" stroke="none" points="-4,4 -4,-113 140,-113 140,4 -4,4"/>
<!-- Node1 -->
<g id="node1" class="node"><title>Node1</title>
<polygon fill="#bfbfbf" stroke="black" points="0,-78.5 0,-108.5 136,-108.5 136,-78.5 0,-78.5"/>
<text text-anchor="start" x="8" y="-96.5" font-family="Helvetica,sans-Serif" font-size="10.00">examples/atmel_samg55</text>
<text text-anchor="middle" x="68" y="-85.5" font-family="Helvetica,sans-Serif" font-size="10.00">/src/config/conf_sleepmgr.h</text>
</g>
<!-- Node2 -->
<g id="node2" class="node"><title>Node2</title>
<g id="a_node2"><a xlink:href="sam_2sleepmgr_8h.xhtml" target="_top" xlink:title="SAM3/SAM4 Sleep manager implementation. ">
<polygon fill="white" stroke="red" points="1,-0.5 1,-41.5 135,-41.5 135,-0.5 1,-0.5"/>
<text text-anchor="start" x="9" y="-29.5" font-family="Helvetica,sans-Serif" font-size="10.00">examples/atmel_samg55</text>
<text text-anchor="start" x="9" y="-18.5" font-family="Helvetica,sans-Serif" font-size="10.00">/src/ASF/common/services</text>
<text text-anchor="middle" x="68" y="-7.5" font-family="Helvetica,sans-Serif" font-size="10.00">/sleepmgr/sam/sleepmgr.h</text>
</a>
</g>
</g>
<!-- Node1&#45;&gt;Node2 -->
<g id="edge1" class="edge"><title>Node1&#45;&gt;Node2</title>
<path fill="none" stroke="midnightblue" d="M68,-67.9815C68,-59.3468 68,-49.7625 68,-41.5884"/>
<polygon fill="midnightblue" stroke="midnightblue" points="64.5001,-68.2332 68,-78.2333 71.5001,-68.2333 64.5001,-68.2332"/>
</g>
</g>
</svg>
