<?xml version="1.0" encoding="UTF-8" standalone="no"?>
<!DOCTYPE svg PUBLIC "-//W3C//DTD SVG 1.1//EN"
 "http://www.w3.org/Graphics/SVG/1.1/DTD/svg11.dtd">
<!-- Generated by graphviz version 2.38.0 (20140413.2041)
 -->
<!-- Title: examples/atmel_samg55/src/ASF/thirdparty/CMSIS/Include/core_cm4.h Pages: 1 -->
<svg width="362pt" height="106pt"
 viewBox="0.00 0.00 362.00 106.00" xmlns="http://www.w3.org/2000/svg" xmlns:xlink="http://www.w3.org/1999/xlink">
<g id="graph0" class="graph" transform="scale(1 1) rotate(0) translate(4 102)">
<title>examples/atmel_samg55/src/ASF/thirdparty/CMSIS/Include/core_cm4.h</title>
<polygon fill="white" stroke="none" points="-4,4 -4,-102 358,-102 358,4 -4,4"/>
<!-- Node0 -->
<g id="node1" class="node"><title>Node0</title>
<polygon fill="#bfbfbf" stroke="black" points="91,-56.5 91,-97.5 224,-97.5 224,-56.5 91,-56.5"/>
<text text-anchor="start" x="99" y="-85.5" font-family="Helvetica,sans-Serif" font-size="10.00">examples/atmel_samg55</text>
<text text-anchor="start" x="99" y="-74.5" font-family="Helvetica,sans-Serif" font-size="10.00">/src/ASF/thirdparty/CMSIS</text>
<text text-anchor="middle" x="157.5" y="-63.5" font-family="Helvetica,sans-Serif" font-size="10.00">/Include/core_cm4.h</text>
</g>
<!-- Node1 -->
<g id="node2" class="node"><title>Node1</title>
<polygon fill="white" stroke="#bfbfbf" points="0,-0.5 0,-19.5 49,-19.5 49,-0.5 0,-0.5"/>
<text text-anchor="middle" x="24.5" y="-7.5" font-family="Helvetica,sans-Serif" font-size="10.00">stdint.h</text>
</g>
<!-- Node0&#45;&gt;Node1 -->
<g id="edge1" class="edge"><title>Node0&#45;&gt;Node1</title>
<path fill="none" stroke="midnightblue" d="M117.596,-56.4979C96.1258,-46.0051 70.2279,-33.3482 51.2036,-24.0507"/>
<polygon fill="midnightblue" stroke="midnightblue" points="52.7256,-20.8989 42.2043,-19.6525 49.6519,-27.188 52.7256,-20.8989"/>
</g>
<!-- Node2 -->
<g id="node3" class="node"><title>Node2</title>
<g id="a_node3"><a xlink:href="core__cm_instr_8h.xhtml" target="_top" xlink:title="CMSIS Cortex&#45;M Core Instruction Access Header File. ">
<polygon fill="white" stroke="black" points="67,-0.5 67,-19.5 148,-19.5 148,-0.5 67,-0.5"/>
<text text-anchor="middle" x="107.5" y="-7.5" font-family="Helvetica,sans-Serif" font-size="10.00">core_cmInstr.h</text>
</a>
</g>
</g>
<!-- Node0&#45;&gt;Node2 -->
<g id="edge2" class="edge"><title>Node0&#45;&gt;Node2</title>
<path fill="none" stroke="midnightblue" d="M142.498,-56.4979C135.422,-47.2987 127.066,-36.4362 120.294,-27.6323"/>
<polygon fill="midnightblue" stroke="midnightblue" points="123.027,-25.4447 114.156,-19.6525 117.479,-29.7128 123.027,-25.4447"/>
</g>
<!-- Node3 -->
<g id="node4" class="node"><title>Node3</title>
<g id="a_node4"><a xlink:href="core__cm_func_8h.xhtml" target="_top" xlink:title="CMSIS Cortex&#45;M Core Function Access Header File. ">
<polygon fill="white" stroke="black" points="166.5,-0.5 166.5,-19.5 250.5,-19.5 250.5,-0.5 166.5,-0.5"/>
<text text-anchor="middle" x="208.5" y="-7.5" font-family="Helvetica,sans-Serif" font-size="10.00">core_cmFunc.h</text>
</a>
</g>
</g>
<!-- Node0&#45;&gt;Node3 -->
<g id="edge3" class="edge"><title>Node0&#45;&gt;Node3</title>
<path fill="none" stroke="midnightblue" d="M172.802,-56.4979C180.019,-47.2987 188.542,-36.4362 195.45,-27.6323"/>
<polygon fill="midnightblue" stroke="midnightblue" points="198.292,-29.6804 201.711,-19.6525 192.785,-25.3594 198.292,-29.6804"/>
</g>
<!-- Node4 -->
<g id="node5" class="node"><title>Node4</title>
<g id="a_node5"><a xlink:href="core__cm_simd_8h.xhtml" target="_top" xlink:title="CMSIS Cortex&#45;M SIMD Header File. ">
<polygon fill="white" stroke="black" points="269,-0.5 269,-19.5 354,-19.5 354,-0.5 269,-0.5"/>
<text text-anchor="middle" x="311.5" y="-7.5" font-family="Helvetica,sans-Serif" font-size="10.00">core_cmSimd.h</text>
</a>
</g>
</g>
<!-- Node0&#45;&gt;Node4 -->
<g id="edge4" class="edge"><title>Node0&#45;&gt;Node4</title>
<path fill="none" stroke="midnightblue" d="M203.705,-56.4979C229.019,-45.8135 259.649,-32.8851 281.779,-23.5446"/>
<polygon fill="midnightblue" stroke="midnightblue" points="283.148,-26.7657 291,-19.6525 280.426,-20.3166 283.148,-26.7657"/>
</g>
</g>
</svg>
