<?xml version="1.0" encoding="UTF-8" standalone="no"?>
<!DOCTYPE svg PUBLIC "-//W3C//DTD SVG 1.1//EN"
 "http://www.w3.org/Graphics/SVG/1.1/DTD/svg11.dtd">
<!-- Generated by graphviz version 2.38.0 (20140413.2041)
 -->
<!-- Title: vCoRoutineSchedule Pages: 1 -->
<svg width="285pt" height="66pt"
 viewBox="0.00 0.00 285.00 66.00" xmlns="http://www.w3.org/2000/svg" xmlns:xlink="http://www.w3.org/1999/xlink">
<g id="graph0" class="graph" transform="scale(1 1) rotate(0) translate(4 62)">
<title>vCoRoutineSchedule</title>
<polygon fill="white" stroke="none" points="-4,4 -4,-62 281,-62 281,4 -4,4"/>
<!-- Node5 -->
<g id="node1" class="node"><title>Node5</title>
<polygon fill="#bfbfbf" stroke="black" points="0,-19.5 0,-38.5 106,-38.5 106,-19.5 0,-19.5"/>
<text text-anchor="middle" x="53" y="-26.5" font-family="Helvetica,sans-Serif" font-size="10.00">vCoRoutineSchedule</text>
</g>
<!-- Node6 -->
<g id="node2" class="node"><title>Node6</title>
<g id="a_node2"><a xlink:href="croutine_8c.xhtml#a9f93b2dc51b9304e5d39091cb272d761" target="_top" xlink:title="prvCheckPendingReadyList">
<polygon fill="white" stroke="red" points="142,-38.5 142,-57.5 277,-57.5 277,-38.5 142,-38.5"/>
<text text-anchor="middle" x="209.5" y="-45.5" font-family="Helvetica,sans-Serif" font-size="10.00">prvCheckPendingReadyList</text>
</a>
</g>
</g>
<!-- Node5&#45;&gt;Node6 -->
<g id="edge1" class="edge"><title>Node5&#45;&gt;Node6</title>
<path fill="none" stroke="midnightblue" d="M106.307,-35.4325C114.486,-36.4385 123.084,-37.4958 131.675,-38.5522"/>
<polygon fill="midnightblue" stroke="midnightblue" points="131.378,-42.0421 141.731,-39.7889 132.233,-35.0944 131.378,-42.0421"/>
</g>
<!-- Node8 -->
<g id="node3" class="node"><title>Node8</title>
<g id="a_node3"><a xlink:href="croutine_8c.xhtml#ad2a4bb12a7662f26acca88b343e4c0fe" target="_top" xlink:title="prvCheckDelayedList">
<polygon fill="white" stroke="red" points="156,-0.5 156,-19.5 263,-19.5 263,-0.5 156,-0.5"/>
<text text-anchor="middle" x="209.5" y="-7.5" font-family="Helvetica,sans-Serif" font-size="10.00">prvCheckDelayedList</text>
</a>
</g>
</g>
<!-- Node5&#45;&gt;Node8 -->
<g id="edge2" class="edge"><title>Node5&#45;&gt;Node8</title>
<path fill="none" stroke="midnightblue" d="M106.307,-22.5675C119.073,-20.9975 132.857,-19.3024 146.044,-17.6807"/>
<polygon fill="midnightblue" stroke="midnightblue" points="146.487,-21.1527 155.985,-16.4582 145.632,-14.2051 146.487,-21.1527"/>
</g>
</g>
</svg>
