<?xml version="1.0" encoding="UTF-8" standalone="no"?>
<!DOCTYPE svg PUBLIC "-//W3C//DTD SVG 1.1//EN"
 "http://www.w3.org/Graphics/SVG/1.1/DTD/svg11.dtd">
<!-- Generated by graphviz version 2.38.0 (20140413.2041)
 -->
<!-- Title: examples/atmel_samg55/src/ASF/sam/boards/samg55_xplained_pro Pages: 1 -->
<svg width="162pt" height="223pt"
 viewBox="0.00 0.00 162.00 223.00" xmlns="http://www.w3.org/2000/svg" xmlns:xlink="http://www.w3.org/1999/xlink">
<g id="graph0" class="graph" transform="scale(1 1) rotate(0) translate(4 219)">
<title>examples/atmel_samg55/src/ASF/sam/boards/samg55_xplained_pro</title>
<polygon fill="white" stroke="none" points="-4,4 -4,-219 158,-219 158,4 -4,4"/>
<g id="clust1" class="cluster"><title>clusterdir_a049382cb3fb8dcca5301ee8df008b60</title>
<g id="a_clust1"><a xlink:href="dir_a049382cb3fb8dcca5301ee8df008b60.xhtml" target="_top" xlink:title="boards">
<polygon fill="#ddddee" stroke="black" points="18,-136 18,-207 146,-207 146,-136 18,-136"/>
<text text-anchor="middle" x="82" y="-195" font-family="Helvetica,sans-Serif" font-size="10.00">boards</text>
</a>
</g>
</g>
<!-- dir_d5171b90412c4c299668a4f6b4855e71 -->
<g id="node1" class="node"><title>dir_d5171b90412c4c299668a4f6b4855e71</title>
<g id="a_node1"><a xlink:href="dir_d5171b90412c4c299668a4f6b4855e71.xhtml" target="_top" xlink:title="samg55_xplained_pro">
<polygon fill="#eeeeff" stroke="black" points="137.5,-180 26.5,-180 26.5,-144 137.5,-144 137.5,-180"/>
<text text-anchor="middle" x="82" y="-159.5" font-family="Helvetica,sans-Serif" font-size="10.00">samg55_xplained_pro</text>
</a>
</g>
</g>
<!-- dir_4d1936617bc084324e7ec3ad8194452c -->
<g id="node2" class="node"><title>dir_4d1936617bc084324e7ec3ad8194452c</title>
<g id="a_node2"><a xlink:href="dir_4d1936617bc084324e7ec3ad8194452c.xhtml" target="_top" xlink:title="config">
<polygon fill="none" stroke="black" points="54,-36 0,-36 0,-0 54,-0 54,-36"/>
<text text-anchor="middle" x="27" y="-15.5" font-family="Helvetica,sans-Serif" font-size="10.00">config</text>
</a>
</g>
</g>
<!-- dir_d5171b90412c4c299668a4f6b4855e71&#45;&gt;dir_4d1936617bc084324e7ec3ad8194452c -->
<g id="edge2" class="edge"><title>dir_d5171b90412c4c299668a4f6b4855e71&#45;&gt;dir_4d1936617bc084324e7ec3ad8194452c</title>
<path fill="none" stroke="black" d="M67.8353,-143.851C60.3098,-133.93 51.5029,-120.89 46,-108 37.5868,-88.2932 32.7553,-64.4881 30.0717,-46.4579"/>
<polygon fill="black" stroke="black" points="33.5097,-45.7643 28.6972,-36.3255 26.5733,-46.7052 33.5097,-45.7643"/>
<g id="a_edge2&#45;headlabel"><a xlink:href="dir_000023_000059.xhtml" target="_top" xlink:title="2">
<text text-anchor="middle" x="36.8063" y="-46.4446" font-family="Helvetica,sans-Serif" font-size="10.00">2</text>
</a>
</g>
</g>
<!-- dir_7f529e4fc6ea7f44596b5de9bf0437d9 -->
<g id="node3" class="node"><title>dir_7f529e4fc6ea7f44596b5de9bf0437d9</title>
<g id="a_node3"><a xlink:href="dir_7f529e4fc6ea7f44596b5de9bf0437d9.xhtml" target="_top" xlink:title="utils">
<polygon fill="white" stroke="red" points="126,-36 72,-36 72,-0 126,-0 126,-36"/>
<text text-anchor="middle" x="99" y="-15.5" font-family="Helvetica,sans-Serif" font-size="10.00">utils</text>
</a>
</g>
</g>
<!-- dir_d5171b90412c4c299668a4f6b4855e71&#45;&gt;dir_7f529e4fc6ea7f44596b5de9bf0437d9 -->
<g id="edge3" class="edge"><title>dir_d5171b90412c4c299668a4f6b4855e71&#45;&gt;dir_7f529e4fc6ea7f44596b5de9bf0437d9</title>
<path fill="none" stroke="black" d="M97.6099,-143.774C105.373,-134.03 113.946,-121.184 118,-108 124.318,-87.4535 118.554,-63.608 111.766,-45.7736"/>
<polygon fill="black" stroke="black" points="114.901,-44.1962 107.847,-36.291 108.431,-46.8697 114.901,-44.1962"/>
<g id="a_edge3&#45;headlabel"><a xlink:href="dir_000023_000026.xhtml" target="_top" xlink:title="3">
<text text-anchor="middle" x="118.898" y="-43.934" font-family="Helvetica,sans-Serif" font-size="10.00">3</text>
</a>
</g>
</g>
<!-- dir_a10c1905b5eb133c53d9054314a624ae -->
<g id="node4" class="node"><title>dir_a10c1905b5eb133c53d9054314a624ae</title>
<g id="a_node4"><a xlink:href="dir_a10c1905b5eb133c53d9054314a624ae.xhtml" target="_top" xlink:title="common">
<polygon fill="white" stroke="red" points="109,-108 55,-108 55,-72 109,-72 109,-108"/>
<text text-anchor="middle" x="82" y="-87.5" font-family="Helvetica,sans-Serif" font-size="10.00">common</text>
</a>
</g>
</g>
<!-- dir_d5171b90412c4c299668a4f6b4855e71&#45;&gt;dir_a10c1905b5eb133c53d9054314a624ae -->
<g id="edge4" class="edge"><title>dir_d5171b90412c4c299668a4f6b4855e71&#45;&gt;dir_a10c1905b5eb133c53d9054314a624ae</title>
<path fill="none" stroke="black" d="M82,-143.697C82,-135.983 82,-126.712 82,-118.112"/>
<polygon fill="black" stroke="black" points="85.5001,-118.104 82,-108.104 78.5001,-118.104 85.5001,-118.104"/>
<g id="a_edge4&#45;headlabel"><a xlink:href="dir_000023_000004.xhtml" target="_top" xlink:title="3">
<text text-anchor="middle" x="88.3393" y="-119.199" font-family="Helvetica,sans-Serif" font-size="10.00">3</text>
</a>
</g>
</g>
<!-- dir_7f529e4fc6ea7f44596b5de9bf0437d9&#45;&gt;dir_a10c1905b5eb133c53d9054314a624ae -->
<g id="edge1" class="edge"><title>dir_7f529e4fc6ea7f44596b5de9bf0437d9&#45;&gt;dir_a10c1905b5eb133c53d9054314a624ae</title>
<path fill="none" stroke="black" d="M100.741,-36.1043C99.6681,-43.8757 97.6223,-53.2575 95.1624,-61.9488"/>
<polygon fill="black" stroke="black" points="91.7584,-61.1079 92.118,-71.6966 98.4401,-63.1948 91.7584,-61.1079"/>
<g id="a_edge1&#45;headlabel"><a xlink:href="dir_000026_000004.xhtml" target="_top" xlink:title="2">
<text text-anchor="middle" x="90.1198" y="-54.3303" font-family="Helvetica,sans-Serif" font-size="10.00">2</text>
</a>
</g>
</g>
<!-- dir_a10c1905b5eb133c53d9054314a624ae&#45;&gt;dir_4d1936617bc084324e7ec3ad8194452c -->
<g id="edge5" class="edge"><title>dir_a10c1905b5eb133c53d9054314a624ae&#45;&gt;dir_4d1936617bc084324e7ec3ad8194452c</title>
<path fill="none" stroke="black" d="M68.4045,-71.6966C61.8773,-63.3893 53.932,-53.2771 46.7534,-44.1407"/>
<polygon fill="black" stroke="black" points="49.3695,-41.8051 40.4391,-36.1043 43.8653,-46.1299 49.3695,-41.8051"/>
<g id="a_edge5&#45;headlabel"><a xlink:href="dir_000004_000059.xhtml" target="_top" xlink:title="5">
<text text-anchor="middle" x="53.8229" y="-40.3775" font-family="Helvetica,sans-Serif" font-size="10.00">5</text>
</a>
</g>
</g>
<!-- dir_a10c1905b5eb133c53d9054314a624ae&#45;&gt;dir_7f529e4fc6ea7f44596b5de9bf0437d9 -->
<g id="edge6" class="edge"><title>dir_a10c1905b5eb133c53d9054314a624ae&#45;&gt;dir_7f529e4fc6ea7f44596b5de9bf0437d9</title>
<path fill="none" stroke="black" d="M80.2865,-71.6966C81.376,-63.8979 83.4336,-54.5085 85.9006,-45.8292"/>
<polygon fill="black" stroke="black" points="89.2975,-46.6935 88.9511,-36.1043 82.6184,-44.5983 89.2975,-46.6935"/>
<g id="a_edge6&#45;headlabel"><a xlink:href="dir_000004_000026.xhtml" target="_top" xlink:title="12">
<text text-anchor="middle" x="90.9308" y="-48.4731" font-family="Helvetica,sans-Serif" font-size="10.00">12</text>
</a>
</g>
</g>
</g>
</svg>
