<?xml version="1.0" encoding="UTF-8" standalone="no"?>
<!DOCTYPE svg PUBLIC "-//W3C//DTD SVG 1.1//EN"
 "http://www.w3.org/Graphics/SVG/1.1/DTD/svg11.dtd">
<!-- Generated by graphviz version 2.38.0 (20140413.2041)
 -->
<!-- Title: examples/atmel_samg55/src/ASF/common/utils/stdio/stdio_serial Pages: 1 -->
<svg width="111pt" height="223pt"
 viewBox="0.00 0.00 111.00 223.00" xmlns="http://www.w3.org/2000/svg" xmlns:xlink="http://www.w3.org/1999/xlink">
<g id="graph0" class="graph" transform="scale(1 1) rotate(0) translate(4 219)">
<title>examples/atmel_samg55/src/ASF/common/utils/stdio/stdio_serial</title>
<polygon fill="white" stroke="none" points="-4,4 -4,-219 107,-219 107,4 -4,4"/>
<g id="clust1" class="cluster"><title>clusterdir_08ebecd2583ee869ad1967eacee99f3f</title>
<g id="a_clust1"><a xlink:href="dir_08ebecd2583ee869ad1967eacee99f3f.xhtml" target="_top" xlink:title="stdio">
<polygon fill="#ddddee" stroke="black" points="13,-136 13,-207 95,-207 95,-136 13,-136"/>
<text text-anchor="middle" x="54" y="-195" font-family="Helvetica,sans-Serif" font-size="10.00">stdio</text>
</a>
</g>
</g>
<!-- dir_f4d5519c1857f85796545d79433f5888 -->
<g id="node1" class="node"><title>dir_f4d5519c1857f85796545d79433f5888</title>
<g id="a_node1"><a xlink:href="dir_f4d5519c1857f85796545d79433f5888.xhtml" target="_top" xlink:title="stdio_serial">
<polygon fill="#eeeeff" stroke="black" points="87,-180 21,-180 21,-144 87,-144 87,-180"/>
<text text-anchor="middle" x="54" y="-159.5" font-family="Helvetica,sans-Serif" font-size="10.00">stdio_serial</text>
</a>
</g>
</g>
<!-- dir_48be2503ae6ae6de0698f11fb632640c -->
<g id="node2" class="node"><title>dir_48be2503ae6ae6de0698f11fb632640c</title>
<g id="a_node2"><a xlink:href="dir_48be2503ae6ae6de0698f11fb632640c.xhtml" target="_top" xlink:title="sam">
<polygon fill="white" stroke="red" points="54,-108 0,-108 0,-72 54,-72 54,-108"/>
<text text-anchor="middle" x="27" y="-87.5" font-family="Helvetica,sans-Serif" font-size="10.00">sam</text>
</a>
</g>
</g>
<!-- dir_f4d5519c1857f85796545d79433f5888&#45;&gt;dir_48be2503ae6ae6de0698f11fb632640c -->
<g id="edge2" class="edge"><title>dir_f4d5519c1857f85796545d79433f5888&#45;&gt;dir_48be2503ae6ae6de0698f11fb632640c</title>
<path fill="none" stroke="black" d="M47.3258,-143.697C44.2851,-135.813 40.6173,-126.304 37.2393,-117.546"/>
<polygon fill="black" stroke="black" points="40.4617,-116.175 33.5974,-108.104 33.9307,-118.694 40.4617,-116.175"/>
<g id="a_edge2&#45;headlabel"><a xlink:href="dir_000020_000021.xhtml" target="_top" xlink:title="1">
<text text-anchor="middle" x="44.4043" y="-116.007" font-family="Helvetica,sans-Serif" font-size="10.00">1</text>
</a>
</g>
</g>
<!-- dir_750d948f77cd7b437f4a691eb098f5d6 -->
<g id="node3" class="node"><title>dir_750d948f77cd7b437f4a691eb098f5d6</title>
<g id="a_node3"><a xlink:href="dir_750d948f77cd7b437f4a691eb098f5d6.xhtml" target="_top" xlink:title="services">
<polygon fill="white" stroke="red" points="54,-36 0,-36 0,-0 54,-0 54,-36"/>
<text text-anchor="middle" x="27" y="-15.5" font-family="Helvetica,sans-Serif" font-size="10.00">services</text>
</a>
</g>
</g>
<!-- dir_f4d5519c1857f85796545d79433f5888&#45;&gt;dir_750d948f77cd7b437f4a691eb098f5d6 -->
<g id="edge3" class="edge"><title>dir_f4d5519c1857f85796545d79433f5888&#45;&gt;dir_750d948f77cd7b437f4a691eb098f5d6</title>
<path fill="none" stroke="black" d="M59.6461,-143.877C64.7573,-125.661 70.4405,-96.196 63,-72 59.9911,-62.2153 54.493,-52.6161 48.6843,-44.3336"/>
<polygon fill="black" stroke="black" points="51.4072,-42.1306 42.6099,-36.2264 45.8052,-46.3279 51.4072,-42.1306"/>
<g id="a_edge3&#45;headlabel"><a xlink:href="dir_000020_000006.xhtml" target="_top" xlink:title="1">
<text text-anchor="middle" x="55.8348" y="-40.8048" font-family="Helvetica,sans-Serif" font-size="10.00">1</text>
</a>
</g>
</g>
<!-- dir_48be2503ae6ae6de0698f11fb632640c&#45;&gt;dir_750d948f77cd7b437f4a691eb098f5d6 -->
<g id="edge1" class="edge"><title>dir_48be2503ae6ae6de0698f11fb632640c&#45;&gt;dir_750d948f77cd7b437f4a691eb098f5d6</title>
<path fill="none" stroke="black" d="M21.0843,-71.6966C20.2886,-63.9827 20.0621,-54.7125 20.4047,-46.1124"/>
<polygon fill="black" stroke="black" points="23.8984,-46.3243 21.105,-36.1043 16.9154,-45.8356 23.8984,-46.3243"/>
<g id="a_edge1&#45;headlabel"><a xlink:href="dir_000021_000006.xhtml" target="_top" xlink:title="2">
<text text-anchor="middle" x="26.4799" y="-47.6083" font-family="Helvetica,sans-Serif" font-size="10.00">2</text>
</a>
</g>
</g>
<!-- dir_750d948f77cd7b437f4a691eb098f5d6&#45;&gt;dir_48be2503ae6ae6de0698f11fb632640c -->
<g id="edge4" class="edge"><title>dir_750d948f77cd7b437f4a691eb098f5d6&#45;&gt;dir_48be2503ae6ae6de0698f11fb632640c</title>
<path fill="none" stroke="black" d="M32.895,-36.1043C33.7005,-43.7913 33.9369,-53.0537 33.604,-61.6651"/>
<polygon fill="black" stroke="black" points="30.1085,-61.4805 32.9157,-71.6966 37.0921,-61.9597 30.1085,-61.4805"/>
<g id="a_edge4&#45;headlabel"><a xlink:href="dir_000006_000021.xhtml" target="_top" xlink:title="8">
<text text-anchor="middle" x="27.5219" y="-55.2" font-family="Helvetica,sans-Serif" font-size="10.00">8</text>
</a>
</g>
</g>
</g>
</svg>
