<?xml version="1.0" encoding="UTF-8" standalone="no"?>
<!DOCTYPE svg PUBLIC "-//W3C//DTD SVG 1.1//EN"
 "http://www.w3.org/Graphics/SVG/1.1/DTD/svg11.dtd">
<!-- Generated by graphviz version 2.38.0 (20140413.2041)
 -->
<!-- Title: examples/atmel_samg55/src/ASF/sam/utils/cmsis/samg/samg55/include Pages: 1 -->
<svg width="324pt" height="183pt"
 viewBox="0.00 0.00 323.50 183.00" xmlns="http://www.w3.org/2000/svg" xmlns:xlink="http://www.w3.org/1999/xlink">
<g id="graph0" class="graph" transform="scale(1 1) rotate(0) translate(4 179)">
<title>examples/atmel_samg55/src/ASF/sam/utils/cmsis/samg/samg55/include</title>
<polygon fill="white" stroke="none" points="-4,4 -4,-179 319.5,-179 319.5,4 -4,4"/>
<g id="clust1" class="cluster"><title>clusterdir_295dc956b22fd3b5130153261f8e1cfd</title>
<g id="a_clust1"><a xlink:href="dir_295dc956b22fd3b5130153261f8e1cfd.xhtml" target="_top" xlink:title="samg55">
<polygon fill="#ddddee" stroke="black" points="8,-8 8,-167 250,-167 250,-8 8,-8"/>
<text text-anchor="middle" x="129" y="-155" font-family="Helvetica,sans-Serif" font-size="10.00">samg55</text>
</a>
</g>
</g>
<g id="clust2" class="cluster"><title>clusterdir_0cbb778e238e84dc6f6e8469495480cc</title>
<g id="a_clust2"><a xlink:href="dir_0cbb778e238e84dc6f6e8469495480cc.xhtml" target="_top">
<polygon fill="#eeeeff" stroke="black" points="16,-16 16,-140 242,-140 242,-16 16,-16"/>
</a>
</g>
</g>
<!-- dir_0cbb778e238e84dc6f6e8469495480cc -->
<g id="node1" class="node"><title>dir_0cbb778e238e84dc6f6e8469495480cc</title>
<text text-anchor="middle" x="171" y="-111.5" font-family="Helvetica,sans-Serif" font-size="10.00">include</text>
</g>
<!-- dir_6b2c1e3aae921ca15ccf6ff784661eea -->
<g id="node2" class="node"><title>dir_6b2c1e3aae921ca15ccf6ff784661eea</title>
<g id="a_node2"><a xlink:href="dir_6b2c1e3aae921ca15ccf6ff784661eea.xhtml" target="_top" xlink:title="component">
<polygon fill="white" stroke="black" points="89.5,-60 24.5,-60 24.5,-24 89.5,-24 89.5,-60"/>
<text text-anchor="middle" x="57" y="-39.5" font-family="Helvetica,sans-Serif" font-size="10.00">component</text>
</a>
</g>
</g>
<!-- dir_0cbb778e238e84dc6f6e8469495480cc&#45;&gt;dir_6b2c1e3aae921ca15ccf6ff784661eea -->
<g id="edge4" class="edge"><title>dir_0cbb778e238e84dc6f6e8469495480cc&#45;&gt;dir_6b2c1e3aae921ca15ccf6ff784661eea</title>
<path fill="none" stroke="black" d="M143.984,-96.411C128.984,-87.2006 110.112,-75.6123 93.7824,-65.5857"/>
<polygon fill="black" stroke="black" points="95.3662,-62.451 85.013,-60.201 91.7033,-68.4162 95.3662,-62.451"/>
<g id="a_edge4&#45;headlabel"><a xlink:href="dir_000030_000031.xhtml" target="_top" xlink:title="122">
<text text-anchor="middle" x="99.915" y="-59.4124" font-family="Helvetica,sans-Serif" font-size="10.00">122</text>
</a>
</g>
</g>
<!-- dir_09314c8bcf9f95fb2152f0a0f557ddac -->
<g id="node3" class="node"><title>dir_09314c8bcf9f95fb2152f0a0f557ddac</title>
<g id="a_node3"><a xlink:href="dir_09314c8bcf9f95fb2152f0a0f557ddac.xhtml" target="_top" xlink:title="instance">
<polygon fill="white" stroke="black" points="162,-60 108,-60 108,-24 162,-24 162,-60"/>
<text text-anchor="middle" x="135" y="-39.5" font-family="Helvetica,sans-Serif" font-size="10.00">instance</text>
</a>
</g>
</g>
<!-- dir_0cbb778e238e84dc6f6e8469495480cc&#45;&gt;dir_09314c8bcf9f95fb2152f0a0f557ddac -->
<g id="edge3" class="edge"><title>dir_0cbb778e238e84dc6f6e8469495480cc&#45;&gt;dir_09314c8bcf9f95fb2152f0a0f557ddac</title>
<path fill="none" stroke="black" d="M162.101,-95.6966C158.003,-87.7284 153.051,-78.0995 148.507,-69.2641"/>
<polygon fill="black" stroke="black" points="151.483,-67.3965 143.797,-60.1043 145.258,-70.598 151.483,-67.3965"/>
<g id="a_edge3&#45;headlabel"><a xlink:href="dir_000030_000032.xhtml" target="_top" xlink:title="273">
<text text-anchor="middle" x="155.651" y="-66.7946" font-family="Helvetica,sans-Serif" font-size="10.00">273</text>
</a>
</g>
</g>
<!-- dir_6b4a5cb740b745dbde8a4573532f81ec -->
<g id="node4" class="node"><title>dir_6b4a5cb740b745dbde8a4573532f81ec</title>
<g id="a_node4"><a xlink:href="dir_6b4a5cb740b745dbde8a4573532f81ec.xhtml" target="_top" xlink:title="pio">
<polygon fill="white" stroke="black" points="234,-60 180,-60 180,-24 234,-24 234,-60"/>
<text text-anchor="middle" x="207" y="-39.5" font-family="Helvetica,sans-Serif" font-size="10.00">pio</text>
</a>
</g>
</g>
<!-- dir_0cbb778e238e84dc6f6e8469495480cc&#45;&gt;dir_6b4a5cb740b745dbde8a4573532f81ec -->
<g id="edge2" class="edge"><title>dir_0cbb778e238e84dc6f6e8469495480cc&#45;&gt;dir_6b4a5cb740b745dbde8a4573532f81ec</title>
<path fill="none" stroke="black" d="M179.899,-95.6966C183.997,-87.7284 188.949,-78.0995 193.493,-69.2641"/>
<polygon fill="black" stroke="black" points="196.742,-70.598 198.203,-60.1043 190.517,-67.3965 196.742,-70.598"/>
<g id="a_edge2&#45;headlabel"><a xlink:href="dir_000030_000039.xhtml" target="_top" xlink:title="5">
<text text-anchor="middle" x="197.623" y="-72.5931" font-family="Helvetica,sans-Serif" font-size="10.00">5</text>
</a>
</g>
</g>
<!-- dir_2ebaa83b9a80a062a45c97b62e911ab2 -->
<g id="node5" class="node"><title>dir_2ebaa83b9a80a062a45c97b62e911ab2</title>
<g id="a_node5"><a xlink:href="dir_2ebaa83b9a80a062a45c97b62e911ab2.xhtml" target="_top" xlink:title="thirdparty">
<polygon fill="white" stroke="red" points="315.5,-60 258.5,-60 258.5,-24 315.5,-24 315.5,-60"/>
<text text-anchor="middle" x="287" y="-39.5" font-family="Helvetica,sans-Serif" font-size="10.00">thirdparty</text>
</a>
</g>
</g>
<!-- dir_0cbb778e238e84dc6f6e8469495480cc&#45;&gt;dir_2ebaa83b9a80a062a45c97b62e911ab2 -->
<g id="edge1" class="edge"><title>dir_0cbb778e238e84dc6f6e8469495480cc&#45;&gt;dir_2ebaa83b9a80a062a45c97b62e911ab2</title>
<path fill="none" stroke="black" d="M198.197,-96.5881C213.565,-87.314 232.999,-75.587 249.765,-65.4695"/>
<polygon fill="black" stroke="black" points="252.009,-68.2034 258.762,-60.04 248.392,-62.21 252.009,-68.2034"/>
<g id="a_edge1&#45;headlabel"><a xlink:href="dir_000030_000048.xhtml" target="_top" xlink:title="5">
<text text-anchor="middle" x="250.398" y="-69.9915" font-family="Helvetica,sans-Serif" font-size="10.00">5</text>
</a>
</g>
</g>
</g>
</svg>
