<?xml version="1.0" encoding="UTF-8" standalone="no"?>
<!DOCTYPE svg PUBLIC "-//W3C//DTD SVG 1.1//EN"
 "http://www.w3.org/Graphics/SVG/1.1/DTD/svg11.dtd">
<!-- Generated by graphviz version 2.38.0 (20140413.2041)
 -->
<!-- Title: examples/atmel_samg55/src/ASF/common/services/freertos Pages: 1 -->
<svg width="213pt" height="303pt"
 viewBox="0.00 0.00 213.00 303.00" xmlns="http://www.w3.org/2000/svg" xmlns:xlink="http://www.w3.org/1999/xlink">
<g id="graph0" class="graph" transform="scale(1 1) rotate(0) translate(4 299)">
<title>examples/atmel_samg55/src/ASF/common/services/freertos</title>
<polygon fill="white" stroke="none" points="-4,4 -4,-299 209,-299 209,4 -4,4"/>
<g id="clust1" class="cluster"><title>clusterdir_750d948f77cd7b437f4a691eb098f5d6</title>
<g id="a_clust1"><a xlink:href="dir_750d948f77cd7b437f4a691eb098f5d6.xhtml" target="_top" xlink:title="services">
<polygon fill="#ddddee" stroke="black" points="39,-200 39,-287 197,-287 197,-200 39,-200"/>
<text text-anchor="middle" x="118" y="-275" font-family="Helvetica,sans-Serif" font-size="10.00">services</text>
</a>
</g>
</g>
<g id="clust2" class="cluster"><title>clusterdir_a66d6071e53f0480f91b7a193124ab22</title>
<g id="a_clust2"><a xlink:href="dir_a66d6071e53f0480f91b7a193124ab22.xhtml" target="_top">
<polygon fill="#eeeeff" stroke="black" points="47,-208 47,-260 189,-260 189,-208 47,-208"/>
</a>
</g>
</g>
<!-- dir_a66d6071e53f0480f91b7a193124ab22 -->
<g id="node1" class="node"><title>dir_a66d6071e53f0480f91b7a193124ab22</title>
<text text-anchor="middle" x="154" y="-231.5" font-family="Helvetica,sans-Serif" font-size="10.00">freertos</text>
</g>
<!-- dir_4d83dcb694b04bfefa9917b553af711b -->
<g id="node2" class="node"><title>dir_4d83dcb694b04bfefa9917b553af711b</title>
<g id="a_node2"><a xlink:href="dir_4d83dcb694b04bfefa9917b553af711b.xhtml" target="_top" xlink:title="sam">
<polygon fill="white" stroke="black" points="109,-252 55,-252 55,-216 109,-216 109,-252"/>
<text text-anchor="middle" x="82" y="-231.5" font-family="Helvetica,sans-Serif" font-size="10.00">sam</text>
</a>
</g>
</g>
<!-- dir_338254fd8cde27c304cd79c881d84fe8 -->
<g id="node3" class="node"><title>dir_338254fd8cde27c304cd79c881d84fe8</title>
<g id="a_node3"><a xlink:href="dir_338254fd8cde27c304cd79c881d84fe8.xhtml" target="_top" xlink:title="serial">
<polygon fill="white" stroke="red" points="54,-180 0,-180 0,-144 54,-144 54,-180"/>
<text text-anchor="middle" x="27" y="-159.5" font-family="Helvetica,sans-Serif" font-size="10.00">serial</text>
</a>
</g>
</g>
<!-- dir_4d83dcb694b04bfefa9917b553af711b&#45;&gt;dir_338254fd8cde27c304cd79c881d84fe8 -->
<g id="edge2" class="edge"><title>dir_4d83dcb694b04bfefa9917b553af711b&#45;&gt;dir_338254fd8cde27c304cd79c881d84fe8</title>
<path fill="none" stroke="black" d="M68.4045,-215.697C61.8773,-207.389 53.932,-197.277 46.7534,-188.141"/>
<polygon fill="black" stroke="black" points="49.3695,-185.805 40.4391,-180.104 43.8653,-190.13 49.3695,-185.805"/>
<g id="a_edge2&#45;headlabel"><a xlink:href="dir_000010_000013.xhtml" target="_top" xlink:title="1">
<text text-anchor="middle" x="53.8229" y="-184.377" font-family="Helvetica,sans-Serif" font-size="10.00">1</text>
</a>
</g>
</g>
<!-- dir_2ebaa83b9a80a062a45c97b62e911ab2 -->
<g id="node4" class="node"><title>dir_2ebaa83b9a80a062a45c97b62e911ab2</title>
<g id="a_node4"><a xlink:href="dir_2ebaa83b9a80a062a45c97b62e911ab2.xhtml" target="_top" xlink:title="thirdparty">
<polygon fill="white" stroke="red" points="120.5,-36 63.5,-36 63.5,-0 120.5,-0 120.5,-36"/>
<text text-anchor="middle" x="92" y="-15.5" font-family="Helvetica,sans-Serif" font-size="10.00">thirdparty</text>
</a>
</g>
</g>
<!-- dir_4d83dcb694b04bfefa9917b553af711b&#45;&gt;dir_2ebaa83b9a80a062a45c97b62e911ab2 -->
<g id="edge3" class="edge"><title>dir_4d83dcb694b04bfefa9917b553af711b&#45;&gt;dir_2ebaa83b9a80a062a45c97b62e911ab2</title>
<path fill="none" stroke="black" d="M86.3604,-215.647C93.2452,-186.179 105.421,-124.446 101,-72 100.283,-63.4991 98.9311,-54.3119 97.4884,-46.0122"/>
<polygon fill="black" stroke="black" points="100.914,-45.2892 95.6538,-36.0925 94.0309,-46.5623 100.914,-45.2892"/>
<g id="a_edge3&#45;headlabel"><a xlink:href="dir_000010_000048.xhtml" target="_top" xlink:title="7">
<text text-anchor="middle" x="104.36" y="-45.8075" font-family="Helvetica,sans-Serif" font-size="10.00">7</text>
</a>
</g>
</g>
<!-- dir_48be2503ae6ae6de0698f11fb632640c -->
<g id="node5" class="node"><title>dir_48be2503ae6ae6de0698f11fb632640c</title>
<g id="a_node5"><a xlink:href="dir_48be2503ae6ae6de0698f11fb632640c.xhtml" target="_top" xlink:title="sam">
<polygon fill="white" stroke="red" points="92,-108 38,-108 38,-72 92,-72 92,-108"/>
<text text-anchor="middle" x="65" y="-87.5" font-family="Helvetica,sans-Serif" font-size="10.00">sam</text>
</a>
</g>
</g>
<!-- dir_4d83dcb694b04bfefa9917b553af711b&#45;&gt;dir_48be2503ae6ae6de0698f11fb632640c -->
<g id="edge4" class="edge"><title>dir_4d83dcb694b04bfefa9917b553af711b&#45;&gt;dir_48be2503ae6ae6de0698f11fb632640c</title>
<path fill="none" stroke="black" d="M79.9494,-215.871C77.0521,-191.67 71.7295,-147.211 68.2795,-118.393"/>
<polygon fill="black" stroke="black" points="71.7218,-117.702 67.0579,-108.189 64.7715,-118.534 71.7218,-117.702"/>
<g id="a_edge4&#45;headlabel"><a xlink:href="dir_000010_000021.xhtml" target="_top" xlink:title="1">
<text text-anchor="middle" x="74.9682" y="-118.434" font-family="Helvetica,sans-Serif" font-size="10.00">1</text>
</a>
</g>
</g>
<!-- dir_338254fd8cde27c304cd79c881d84fe8&#45;&gt;dir_48be2503ae6ae6de0698f11fb632640c -->
<g id="edge1" class="edge"><title>dir_338254fd8cde27c304cd79c881d84fe8&#45;&gt;dir_48be2503ae6ae6de0698f11fb632640c</title>
<path fill="none" stroke="black" d="M36.3933,-143.697C40.7649,-135.644 46.0573,-125.894 50.8953,-116.982"/>
<polygon fill="black" stroke="black" points="54.0198,-118.563 55.7148,-108.104 47.8678,-115.223 54.0198,-118.563"/>
<g id="a_edge1&#45;headlabel"><a xlink:href="dir_000013_000021.xhtml" target="_top" xlink:title="2">
<text text-anchor="middle" x="54.8002" y="-120.576" font-family="Helvetica,sans-Serif" font-size="10.00">2</text>
</a>
</g>
</g>
<!-- dir_48be2503ae6ae6de0698f11fb632640c&#45;&gt;dir_2ebaa83b9a80a062a45c97b62e911ab2 -->
<g id="edge5" class="edge"><title>dir_48be2503ae6ae6de0698f11fb632640c&#45;&gt;dir_2ebaa83b9a80a062a45c97b62e911ab2</title>
<path fill="none" stroke="black" d="M71.6742,-71.6966C74.7149,-63.8132 78.3827,-54.3042 81.7607,-45.5464"/>
<polygon fill="black" stroke="black" points="85.0693,-46.6939 85.4026,-36.1043 78.5383,-44.1748 85.0693,-46.6939"/>
<g id="a_edge5&#45;headlabel"><a xlink:href="dir_000021_000048.xhtml" target="_top" xlink:title="5">
<text text-anchor="middle" x="86.4248" y="-48.5695" font-family="Helvetica,sans-Serif" font-size="10.00">5</text>
</a>
</g>
</g>
</g>
</svg>
