<?xml version="1.0" encoding="UTF-8" standalone="no"?>
<!DOCTYPE svg PUBLIC "-//W3C//DTD SVG 1.1//EN"
 "http://www.w3.org/Graphics/SVG/1.1/DTD/svg11.dtd">
<!-- Generated by graphviz version 2.38.0 (20140413.2041)
 -->
<!-- Title: examples/atmel_samg55/src/ASF/thirdparty Pages: 1 -->
<svg width="258pt" height="159pt"
 viewBox="0.00 0.00 258.00 159.00" xmlns="http://www.w3.org/2000/svg" xmlns:xlink="http://www.w3.org/1999/xlink">
<g id="graph0" class="graph" transform="scale(1 1) rotate(0) translate(4 155)">
<title>examples/atmel_samg55/src/ASF/thirdparty</title>
<polygon fill="white" stroke="none" points="-4,4 -4,-155 254,-155 254,4 -4,4"/>
<g id="clust1" class="cluster"><title>clusterdir_67951177d7f5e66661a526635115739c</title>
<g id="a_clust1"><a xlink:href="dir_67951177d7f5e66661a526635115739c.xhtml" target="_top" xlink:title="ASF">
<polygon fill="#ddddee" stroke="black" points="8,-56 8,-143 242,-143 242,-56 8,-56"/>
<text text-anchor="middle" x="125" y="-131" font-family="Helvetica,sans-Serif" font-size="10.00">ASF</text>
</a>
</g>
</g>
<g id="clust2" class="cluster"><title>clusterdir_2ebaa83b9a80a062a45c97b62e911ab2</title>
<g id="a_clust2"><a xlink:href="dir_2ebaa83b9a80a062a45c97b62e911ab2.xhtml" target="_top">
<polygon fill="#eeeeff" stroke="black" points="16,-64 16,-116 234,-116 234,-64 16,-64"/>
</a>
</g>
</g>
<!-- dir_2ebaa83b9a80a062a45c97b62e911ab2 -->
<g id="node1" class="node"><title>dir_2ebaa83b9a80a062a45c97b62e911ab2</title>
<text text-anchor="middle" x="197" y="-87.5" font-family="Helvetica,sans-Serif" font-size="10.00">thirdparty</text>
</g>
<!-- dir_514c527275d366f7653b313d3b0b2fdb -->
<g id="node2" class="node"><title>dir_514c527275d366f7653b313d3b0b2fdb</title>
<g id="a_node2"><a xlink:href="dir_514c527275d366f7653b313d3b0b2fdb.xhtml" target="_top" xlink:title="CMSIS">
<polygon fill="white" stroke="red" points="150,-108 96,-108 96,-72 150,-72 150,-108"/>
<text text-anchor="middle" x="123" y="-87.5" font-family="Helvetica,sans-Serif" font-size="10.00">CMSIS</text>
</a>
</g>
</g>
<!-- dir_d4fc68e8089e8b200ed8404bd11d9cbc -->
<g id="node3" class="node"><title>dir_d4fc68e8089e8b200ed8404bd11d9cbc</title>
<g id="a_node3"><a xlink:href="dir_d4fc68e8089e8b200ed8404bd11d9cbc.xhtml" target="_top" xlink:title="freertos">
<polygon fill="white" stroke="red" points="78,-108 24,-108 24,-72 78,-72 78,-108"/>
<text text-anchor="middle" x="51" y="-87.5" font-family="Helvetica,sans-Serif" font-size="10.00">freertos</text>
</a>
</g>
</g>
<!-- dir_4d1936617bc084324e7ec3ad8194452c -->
<g id="node4" class="node"><title>dir_4d1936617bc084324e7ec3ad8194452c</title>
<g id="a_node4"><a xlink:href="dir_4d1936617bc084324e7ec3ad8194452c.xhtml" target="_top" xlink:title="config">
<polygon fill="none" stroke="black" points="78,-36 24,-36 24,-0 78,-0 78,-36"/>
<text text-anchor="middle" x="51" y="-15.5" font-family="Helvetica,sans-Serif" font-size="10.00">config</text>
</a>
</g>
</g>
<!-- dir_d4fc68e8089e8b200ed8404bd11d9cbc&#45;&gt;dir_4d1936617bc084324e7ec3ad8194452c -->
<g id="edge1" class="edge"><title>dir_d4fc68e8089e8b200ed8404bd11d9cbc&#45;&gt;dir_4d1936617bc084324e7ec3ad8194452c</title>
<path fill="none" stroke="black" d="M51,-71.6966C51,-63.9827 51,-54.7125 51,-46.1124"/>
<polygon fill="black" stroke="black" points="54.5001,-46.1043 51,-36.1043 47.5001,-46.1044 54.5001,-46.1043"/>
<g id="a_edge1&#45;headlabel"><a xlink:href="dir_000051_000059.xhtml" target="_top" xlink:title="1">
<text text-anchor="middle" x="57.3393" y="-47.199" font-family="Helvetica,sans-Serif" font-size="10.00">1</text>
</a>
</g>
</g>
</g>
</svg>
