<?xml version="1.0" encoding="UTF-8" standalone="no"?>
<!DOCTYPE svg PUBLIC "-//W3C//DTD SVG 1.1//EN"
 "http://www.w3.org/Graphics/SVG/1.1/DTD/svg11.dtd">
<!-- Generated by graphviz version 2.38.0 (20140413.2041)
 -->
<!-- Title: examples/atmel_samg55/src/ASF Pages: 1 -->
<svg width="182pt" height="303pt"
 viewBox="0.00 0.00 182.00 303.00" xmlns="http://www.w3.org/2000/svg" xmlns:xlink="http://www.w3.org/1999/xlink">
<g id="graph0" class="graph" transform="scale(1 1) rotate(0) translate(4 299)">
<title>examples/atmel_samg55/src/ASF</title>
<polygon fill="white" stroke="none" points="-4,4 -4,-299 178,-299 178,4 -4,4"/>
<g id="clust1" class="cluster"><title>clusterdir_0ae219bfaa679f3dbaaacda5fb614d9c</title>
<g id="a_clust1"><a xlink:href="dir_0ae219bfaa679f3dbaaacda5fb614d9c.xhtml" target="_top" xlink:title="src">
<polygon fill="#ddddee" stroke="black" points="8,-56 8,-287 166,-287 166,-56 8,-56"/>
<text text-anchor="middle" x="87" y="-275" font-family="Helvetica,sans-Serif" font-size="10.00">src</text>
</a>
</g>
</g>
<g id="clust2" class="cluster"><title>clusterdir_67951177d7f5e66661a526635115739c</title>
<g id="a_clust2"><a xlink:href="dir_67951177d7f5e66661a526635115739c.xhtml" target="_top">
<polygon fill="#eeeeff" stroke="black" points="16,-64 16,-260 158,-260 158,-64 16,-64"/>
</a>
</g>
</g>
<!-- dir_67951177d7f5e66661a526635115739c -->
<g id="node1" class="node"><title>dir_67951177d7f5e66661a526635115739c</title>
<text text-anchor="middle" x="123" y="-231.5" font-family="Helvetica,sans-Serif" font-size="10.00">ASF</text>
</g>
<!-- dir_a10c1905b5eb133c53d9054314a624ae -->
<g id="node2" class="node"><title>dir_a10c1905b5eb133c53d9054314a624ae</title>
<g id="a_node2"><a xlink:href="dir_a10c1905b5eb133c53d9054314a624ae.xhtml" target="_top" xlink:title="common">
<polygon fill="white" stroke="red" points="78,-252 24,-252 24,-216 78,-216 78,-252"/>
<text text-anchor="middle" x="51" y="-231.5" font-family="Helvetica,sans-Serif" font-size="10.00">common</text>
</a>
</g>
</g>
<!-- dir_48be2503ae6ae6de0698f11fb632640c -->
<g id="node3" class="node"><title>dir_48be2503ae6ae6de0698f11fb632640c</title>
<g id="a_node3"><a xlink:href="dir_48be2503ae6ae6de0698f11fb632640c.xhtml" target="_top" xlink:title="sam">
<polygon fill="white" stroke="red" points="109,-180 55,-180 55,-144 109,-144 109,-180"/>
<text text-anchor="middle" x="82" y="-159.5" font-family="Helvetica,sans-Serif" font-size="10.00">sam</text>
</a>
</g>
</g>
<!-- dir_a10c1905b5eb133c53d9054314a624ae&#45;&gt;dir_48be2503ae6ae6de0698f11fb632640c -->
<g id="edge7" class="edge"><title>dir_a10c1905b5eb133c53d9054314a624ae&#45;&gt;dir_48be2503ae6ae6de0698f11fb632640c</title>
<path fill="none" stroke="black" d="M52.7472,-215.697C55.4541,-207.728 59.5037,-198.1 63.8092,-189.264"/>
<polygon fill="black" stroke="black" points="67.0599,-190.597 68.5302,-180.104 60.8377,-187.39 67.0599,-190.597"/>
<g id="a_edge7&#45;headlabel"><a xlink:href="dir_000004_000021.xhtml" target="_top" xlink:title="13">
<text text-anchor="middle" x="67.9369" y="-192.593" font-family="Helvetica,sans-Serif" font-size="10.00">13</text>
</a>
</g>
</g>
<!-- dir_2ebaa83b9a80a062a45c97b62e911ab2 -->
<g id="node4" class="node"><title>dir_2ebaa83b9a80a062a45c97b62e911ab2</title>
<g id="a_node4"><a xlink:href="dir_2ebaa83b9a80a062a45c97b62e911ab2.xhtml" target="_top" xlink:title="thirdparty">
<polygon fill="white" stroke="red" points="81.5,-108 24.5,-108 24.5,-72 81.5,-72 81.5,-108"/>
<text text-anchor="middle" x="53" y="-87.5" font-family="Helvetica,sans-Serif" font-size="10.00">thirdparty</text>
</a>
</g>
</g>
<!-- dir_a10c1905b5eb133c53d9054314a624ae&#45;&gt;dir_2ebaa83b9a80a062a45c97b62e911ab2 -->
<g id="edge6" class="edge"><title>dir_a10c1905b5eb133c53d9054314a624ae&#45;&gt;dir_2ebaa83b9a80a062a45c97b62e911ab2</title>
<path fill="none" stroke="black" d="M48.8073,-215.932C46.7943,-198.012 44.3551,-169.017 46,-144 46.5566,-135.535 47.6082,-126.358 48.7303,-118.056"/>
<polygon fill="black" stroke="black" points="52.1987,-118.525 50.1573,-108.129 45.2699,-117.529 52.1987,-118.525"/>
<g id="a_edge6&#45;headlabel"><a xlink:href="dir_000004_000048.xhtml" target="_top" xlink:title="7">
<text text-anchor="middle" x="54.4977" y="-119.987" font-family="Helvetica,sans-Serif" font-size="10.00">7</text>
</a>
</g>
</g>
<!-- dir_4d1936617bc084324e7ec3ad8194452c -->
<g id="node5" class="node"><title>dir_4d1936617bc084324e7ec3ad8194452c</title>
<g id="a_node5"><a xlink:href="dir_4d1936617bc084324e7ec3ad8194452c.xhtml" target="_top" xlink:title="config">
<polygon fill="none" stroke="black" points="137,-36 83,-36 83,-0 137,-0 137,-36"/>
<text text-anchor="middle" x="110" y="-15.5" font-family="Helvetica,sans-Serif" font-size="10.00">config</text>
</a>
</g>
</g>
<!-- dir_a10c1905b5eb133c53d9054314a624ae&#45;&gt;dir_4d1936617bc084324e7ec3ad8194452c -->
<g id="edge5" class="edge"><title>dir_a10c1905b5eb133c53d9054314a624ae&#45;&gt;dir_4d1936617bc084324e7ec3ad8194452c</title>
<path fill="none" stroke="black" d="M78.2971,-219.316C92.9794,-210.338 109.729,-197.088 118,-180 138.903,-136.812 128.22,-79.2609 118.883,-45.9549"/>
<polygon fill="black" stroke="black" points="122.141,-44.6327 115.94,-36.0421 115.431,-46.6247 122.141,-44.6327"/>
<g id="a_edge5&#45;headlabel"><a xlink:href="dir_000004_000059.xhtml" target="_top" xlink:title="5">
<text text-anchor="middle" x="125.886" y="-44.7707" font-family="Helvetica,sans-Serif" font-size="10.00">5</text>
</a>
</g>
</g>
<!-- dir_48be2503ae6ae6de0698f11fb632640c&#45;&gt;dir_a10c1905b5eb133c53d9054314a624ae -->
<g id="edge4" class="edge"><title>dir_48be2503ae6ae6de0698f11fb632640c&#45;&gt;dir_a10c1905b5eb133c53d9054314a624ae</title>
<path fill="none" stroke="black" d="M80.3203,-180.104C77.6073,-188.129 73.5136,-197.871 69.1611,-206.797"/>
<polygon fill="black" stroke="black" points="66.0447,-205.204 64.5786,-215.697 72.2682,-208.408 66.0447,-205.204"/>
<g id="a_edge4&#45;headlabel"><a xlink:href="dir_000021_000004.xhtml" target="_top" xlink:title="5">
<text text-anchor="middle" x="65.1659" y="-198.208" font-family="Helvetica,sans-Serif" font-size="10.00">5</text>
</a>
</g>
</g>
<!-- dir_48be2503ae6ae6de0698f11fb632640c&#45;&gt;dir_2ebaa83b9a80a062a45c97b62e911ab2 -->
<g id="edge3" class="edge"><title>dir_48be2503ae6ae6de0698f11fb632640c&#45;&gt;dir_2ebaa83b9a80a062a45c97b62e911ab2</title>
<path fill="none" stroke="black" d="M74.8315,-143.697C71.5655,-135.813 67.626,-126.304 63.9978,-117.546"/>
<polygon fill="black" stroke="black" points="67.147,-116.003 60.0861,-108.104 60.68,-118.683 67.147,-116.003"/>
<g id="a_edge3&#45;headlabel"><a xlink:href="dir_000021_000048.xhtml" target="_top" xlink:title="5">
<text text-anchor="middle" x="71.1459" y="-115.738" font-family="Helvetica,sans-Serif" font-size="10.00">5</text>
</a>
</g>
</g>
<!-- dir_48be2503ae6ae6de0698f11fb632640c&#45;&gt;dir_4d1936617bc084324e7ec3ad8194452c -->
<g id="edge2" class="edge"><title>dir_48be2503ae6ae6de0698f11fb632640c&#45;&gt;dir_4d1936617bc084324e7ec3ad8194452c</title>
<path fill="none" stroke="black" d="M85.3775,-143.871C90.1706,-119.564 98.9935,-74.8187 104.673,-46.0132"/>
<polygon fill="black" stroke="black" points="108.11,-46.6775 106.611,-36.1893 101.242,-45.3232 108.11,-46.6775"/>
<g id="a_edge2&#45;headlabel"><a xlink:href="dir_000021_000059.xhtml" target="_top" xlink:title="2">
<text text-anchor="middle" x="110.2" y="-48.2534" font-family="Helvetica,sans-Serif" font-size="10.00">2</text>
</a>
</g>
</g>
<!-- dir_2ebaa83b9a80a062a45c97b62e911ab2&#45;&gt;dir_4d1936617bc084324e7ec3ad8194452c -->
<g id="edge1" class="edge"><title>dir_2ebaa83b9a80a062a45c97b62e911ab2&#45;&gt;dir_4d1936617bc084324e7ec3ad8194452c</title>
<path fill="none" stroke="black" d="M67.0899,-71.6966C73.9234,-63.3046 82.2569,-53.0705 89.7558,-43.8613"/>
<polygon fill="black" stroke="black" points="92.4719,-46.0687 96.0722,-36.1043 87.0439,-41.6487 92.4719,-46.0687"/>
<g id="a_edge1&#45;headlabel"><a xlink:href="dir_000048_000059.xhtml" target="_top" xlink:title="1">
<text text-anchor="middle" x="92.4039" y="-48.1489" font-family="Helvetica,sans-Serif" font-size="10.00">1</text>
</a>
</g>
</g>
</g>
</svg>
