<?xml version="1.0" encoding="UTF-8" standalone="no"?>
<!DOCTYPE svg PUBLIC "-//W3C//DTD SVG 1.1//EN"
 "http://www.w3.org/Graphics/SVG/1.1/DTD/svg11.dtd">
<!-- Generated by graphviz version 2.38.0 (20140413.2041)
 -->
<!-- Title: examples/atmel_samg55 Pages: 1 -->
<svg width="208pt" height="159pt"
 viewBox="0.00 0.00 208.00 159.00" xmlns="http://www.w3.org/2000/svg" xmlns:xlink="http://www.w3.org/1999/xlink">
<g id="graph0" class="graph" transform="scale(1 1) rotate(0) translate(4 155)">
<title>examples/atmel_samg55</title>
<polygon fill="white" stroke="none" points="-4,4 -4,-155 204,-155 204,4 -4,4"/>
<g id="clust1" class="cluster"><title>clusterdir_d28a4824dc47e487b107a5db32ef43c4</title>
<g id="a_clust1"><a xlink:href="dir_d28a4824dc47e487b107a5db32ef43c4.xhtml" target="_top" xlink:title="examples">
<polygon fill="#ddddee" stroke="black" points="8,-56 8,-143 192,-143 192,-56 8,-56"/>
<text text-anchor="middle" x="100" y="-131" font-family="Helvetica,sans-Serif" font-size="10.00">examples</text>
</a>
</g>
</g>
<g id="clust2" class="cluster"><title>clusterdir_0e96b936377161858012b6f31c3bd790</title>
<g id="a_clust2"><a xlink:href="dir_0e96b936377161858012b6f31c3bd790.xhtml" target="_top">
<polygon fill="#eeeeff" stroke="black" points="16,-64 16,-116 184,-116 184,-64 16,-64"/>
</a>
</g>
</g>
<!-- dir_0e96b936377161858012b6f31c3bd790 -->
<g id="node1" class="node"><title>dir_0e96b936377161858012b6f31c3bd790</title>
<text text-anchor="middle" x="136" y="-87.5" font-family="Helvetica,sans-Serif" font-size="10.00">atmel_samg55</text>
</g>
<!-- dir_0ae219bfaa679f3dbaaacda5fb614d9c -->
<g id="node2" class="node"><title>dir_0ae219bfaa679f3dbaaacda5fb614d9c</title>
<g id="a_node2"><a xlink:href="dir_0ae219bfaa679f3dbaaacda5fb614d9c.xhtml" target="_top" xlink:title="src">
<polygon fill="white" stroke="red" points="78,-108 24,-108 24,-72 78,-72 78,-108"/>
<text text-anchor="middle" x="51" y="-87.5" font-family="Helvetica,sans-Serif" font-size="10.00">src</text>
</a>
</g>
</g>
<!-- dir_68267d1309a1af8e8297ef4c3efbcdba -->
<g id="node3" class="node"><title>dir_68267d1309a1af8e8297ef4c3efbcdba</title>
<g id="a_node3"><a xlink:href="dir_68267d1309a1af8e8297ef4c3efbcdba.xhtml" target="_top" xlink:title="src">
<polygon fill="white" stroke="red" points="78,-36 24,-36 24,-0 78,-0 78,-36"/>
<text text-anchor="middle" x="51" y="-15.5" font-family="Helvetica,sans-Serif" font-size="10.00">src</text>
</a>
</g>
</g>
<!-- dir_0ae219bfaa679f3dbaaacda5fb614d9c&#45;&gt;dir_68267d1309a1af8e8297ef4c3efbcdba -->
<g id="edge1" class="edge"><title>dir_0ae219bfaa679f3dbaaacda5fb614d9c&#45;&gt;dir_68267d1309a1af8e8297ef4c3efbcdba</title>
<path fill="none" stroke="black" d="M51,-71.6966C51,-63.9827 51,-54.7125 51,-46.1124"/>
<polygon fill="black" stroke="black" points="54.5001,-46.1043 51,-36.1043 47.5001,-46.1044 54.5001,-46.1043"/>
<g id="a_edge1&#45;headlabel"><a xlink:href="dir_000002_000063.xhtml" target="_top" xlink:title="1">
<text text-anchor="middle" x="57.3393" y="-47.199" font-family="Helvetica,sans-Serif" font-size="10.00">1</text>
</a>
</g>
</g>
</g>
</svg>
