<?xml version="1.0" encoding="UTF-8" standalone="no"?>
<!DOCTYPE svg PUBLIC "-//W3C//DTD SVG 1.1//EN"
 "http://www.w3.org/Graphics/SVG/1.1/DTD/svg11.dtd">
<!-- Generated by graphviz version 2.38.0 (20140413.2041)
 -->
<!-- Title: examples/atmel_samg55/src/ASF/common/services Pages: 1 -->
<svg width="475pt" height="329pt"
 viewBox="0.00 0.00 474.50 329.12" xmlns="http://www.w3.org/2000/svg" xmlns:xlink="http://www.w3.org/1999/xlink">
<g id="graph0" class="graph" transform="scale(1 1) rotate(0) translate(4 325.125)">
<title>examples/atmel_samg55/src/ASF/common/services</title>
<polygon fill="white" stroke="none" points="-4,4 -4,-325.125 470.5,-325.125 470.5,4 -4,4"/>
<g id="clust1" class="cluster"><title>clusterdir_a10c1905b5eb133c53d9054314a624ae</title>
<g id="a_clust1"><a xlink:href="dir_a10c1905b5eb133c53d9054314a624ae.xhtml" target="_top" xlink:title="common">
<polygon fill="#ddddee" stroke="black" points="82.5,-128 82.5,-287 458.5,-287 458.5,-128 82.5,-128"/>
<text text-anchor="middle" x="270.5" y="-275" font-family="Helvetica,sans-Serif" font-size="10.00">common</text>
</a>
</g>
</g>
<g id="clust2" class="cluster"><title>clusterdir_750d948f77cd7b437f4a691eb098f5d6</title>
<g id="a_clust2"><a xlink:href="dir_750d948f77cd7b437f4a691eb098f5d6.xhtml" target="_top">
<polygon fill="#eeeeff" stroke="black" points="90.5,-136 90.5,-260 450.5,-260 450.5,-136 90.5,-136"/>
</a>
</g>
</g>
<!-- dir_750d948f77cd7b437f4a691eb098f5d6 -->
<g id="node1" class="node"><title>dir_750d948f77cd7b437f4a691eb098f5d6</title>
<text text-anchor="middle" x="415.5" y="-231.5" font-family="Helvetica,sans-Serif" font-size="10.00">services</text>
</g>
<!-- dir_0571588c420d8ab394e758267dfdfb3e -->
<g id="node2" class="node"><title>dir_0571588c420d8ab394e758267dfdfb3e</title>
<g id="a_node2"><a xlink:href="dir_0571588c420d8ab394e758267dfdfb3e.xhtml" target="_top" xlink:title="clock">
<polygon fill="white" stroke="red" points="370.5,-252 316.5,-252 316.5,-216 370.5,-216 370.5,-252"/>
<text text-anchor="middle" x="343.5" y="-231.5" font-family="Helvetica,sans-Serif" font-size="10.00">clock</text>
</a>
</g>
</g>
<!-- dir_55086d61004084a481a27326b67c0be7 -->
<g id="node7" class="node"><title>dir_55086d61004084a481a27326b67c0be7</title>
<g id="a_node7"><a xlink:href="dir_55086d61004084a481a27326b67c0be7.xhtml" target="_top" xlink:title="boards">
<polygon fill="none" stroke="black" points="74.5,-252 20.5,-252 20.5,-216 74.5,-216 74.5,-252"/>
<text text-anchor="middle" x="47.5" y="-231.5" font-family="Helvetica,sans-Serif" font-size="10.00">boards</text>
</a>
</g>
</g>
<!-- dir_0571588c420d8ab394e758267dfdfb3e&#45;&gt;dir_55086d61004084a481a27326b67c0be7 -->
<g id="edge5" class="edge"><title>dir_0571588c420d8ab394e758267dfdfb3e&#45;&gt;dir_55086d61004084a481a27326b67c0be7</title>
<path fill="none" stroke="black" d="M337.771,-252.038C331.266,-269.135 318.83,-293.816 298.5,-305 258.975,-326.744 135.342,-326.157 95.5,-305 78.1969,-295.812 65.9949,-277.292 58.2241,-261.471"/>
<polygon fill="black" stroke="black" points="61.2777,-259.731 53.9523,-252.077 54.9056,-262.629 61.2777,-259.731"/>
<g id="a_edge5&#45;headlabel"><a xlink:href="dir_000007_000005.xhtml" target="_top" xlink:title="1">
<text text-anchor="middle" x="65.3502" y="-259.328" font-family="Helvetica,sans-Serif" font-size="10.00">1</text>
</a>
</g>
</g>
<!-- dir_4d1936617bc084324e7ec3ad8194452c -->
<g id="node8" class="node"><title>dir_4d1936617bc084324e7ec3ad8194452c</title>
<g id="a_node8"><a xlink:href="dir_4d1936617bc084324e7ec3ad8194452c.xhtml" target="_top" xlink:title="config">
<polygon fill="none" stroke="black" points="260.5,-36 206.5,-36 206.5,-0 260.5,-0 260.5,-36"/>
<text text-anchor="middle" x="233.5" y="-15.5" font-family="Helvetica,sans-Serif" font-size="10.00">config</text>
</a>
</g>
</g>
<!-- dir_0571588c420d8ab394e758267dfdfb3e&#45;&gt;dir_4d1936617bc084324e7ec3ad8194452c -->
<g id="edge6" class="edge"><title>dir_0571588c420d8ab394e758267dfdfb3e&#45;&gt;dir_4d1936617bc084324e7ec3ad8194452c</title>
<path fill="none" stroke="black" d="M337.783,-215.869C327.361,-185.687 303.638,-121.542 274.5,-72 268.927,-62.524 261.881,-52.822 255.21,-44.352"/>
<polygon fill="black" stroke="black" points="257.743,-41.9184 248.732,-36.3466 252.302,-46.3219 257.743,-41.9184"/>
<g id="a_edge6&#45;headlabel"><a xlink:href="dir_000007_000059.xhtml" target="_top" xlink:title="3">
<text text-anchor="middle" x="262.211" y="-40.4266" font-family="Helvetica,sans-Serif" font-size="10.00">3</text>
</a>
</g>
</g>
<!-- dir_1979e3e37ad559ebf144124a44cbf236 -->
<g id="node11" class="node"><title>dir_1979e3e37ad559ebf144124a44cbf236</title>
<g id="a_node11"><a xlink:href="dir_1979e3e37ad559ebf144124a44cbf236.xhtml" target="_top" xlink:title="utils">
<polygon fill="white" stroke="red" points="167.5,-108 113.5,-108 113.5,-72 167.5,-72 167.5,-108"/>
<text text-anchor="middle" x="140.5" y="-87.5" font-family="Helvetica,sans-Serif" font-size="10.00">utils</text>
</a>
</g>
</g>
<!-- dir_0571588c420d8ab394e758267dfdfb3e&#45;&gt;dir_1979e3e37ad559ebf144124a44cbf236 -->
<g id="edge7" class="edge"><title>dir_0571588c420d8ab394e758267dfdfb3e&#45;&gt;dir_1979e3e37ad559ebf144124a44cbf236</title>
<path fill="none" stroke="black" d="M316.138,-219.647C313.244,-218.365 310.326,-217.124 307.5,-216 259.705,-196.98 238.112,-211.571 197.5,-180 175.89,-163.2 179.281,-151.038 164.5,-128 162.174,-124.375 159.712,-120.557 157.285,-116.805"/>
<polygon fill="black" stroke="black" points="160.145,-114.782 151.769,-108.295 154.271,-118.59 160.145,-114.782"/>
<g id="a_edge7&#45;headlabel"><a xlink:href="dir_000007_000017.xhtml" target="_top" xlink:title="4">
<text text-anchor="middle" x="164.482" y="-113.754" font-family="Helvetica,sans-Serif" font-size="10.00">4</text>
</a>
</g>
</g>
<!-- dir_a66d6071e53f0480f91b7a193124ab22 -->
<g id="node3" class="node"><title>dir_a66d6071e53f0480f91b7a193124ab22</title>
<g id="a_node3"><a xlink:href="dir_a66d6071e53f0480f91b7a193124ab22.xhtml" target="_top" xlink:title="freertos">
<polygon fill="white" stroke="red" points="152.5,-252 98.5,-252 98.5,-216 152.5,-216 152.5,-252"/>
<text text-anchor="middle" x="125.5" y="-231.5" font-family="Helvetica,sans-Serif" font-size="10.00">freertos</text>
</a>
</g>
</g>
<!-- dir_338254fd8cde27c304cd79c881d84fe8 -->
<g id="node5" class="node"><title>dir_338254fd8cde27c304cd79c881d84fe8</title>
<g id="a_node5"><a xlink:href="dir_338254fd8cde27c304cd79c881d84fe8.xhtml" target="_top" xlink:title="serial">
<polygon fill="white" stroke="red" points="260.5,-180 206.5,-180 206.5,-144 260.5,-144 260.5,-180"/>
<text text-anchor="middle" x="233.5" y="-159.5" font-family="Helvetica,sans-Serif" font-size="10.00">serial</text>
</a>
</g>
</g>
<!-- dir_a66d6071e53f0480f91b7a193124ab22&#45;&gt;dir_338254fd8cde27c304cd79c881d84fe8 -->
<g id="edge2" class="edge"><title>dir_a66d6071e53f0480f91b7a193124ab22&#45;&gt;dir_338254fd8cde27c304cd79c881d84fe8</title>
<path fill="none" stroke="black" d="M151.92,-215.876C165.91,-206.808 183.276,-195.552 198.386,-185.759"/>
<polygon fill="black" stroke="black" points="200.491,-188.566 206.979,-180.19 196.683,-182.692 200.491,-188.566"/>
<g id="a_edge2&#45;headlabel"><a xlink:href="dir_000009_000013.xhtml" target="_top" xlink:title="1">
<text text-anchor="middle" x="199.019" y="-190.403" font-family="Helvetica,sans-Serif" font-size="10.00">1</text>
</a>
</g>
</g>
<!-- dir_2ebaa83b9a80a062a45c97b62e911ab2 -->
<g id="node9" class="node"><title>dir_2ebaa83b9a80a062a45c97b62e911ab2</title>
<g id="a_node9"><a xlink:href="dir_2ebaa83b9a80a062a45c97b62e911ab2.xhtml" target="_top" xlink:title="thirdparty">
<polygon fill="white" stroke="red" points="57,-108 0,-108 0,-72 57,-72 57,-108"/>
<text text-anchor="middle" x="28.5" y="-87.5" font-family="Helvetica,sans-Serif" font-size="10.00">thirdparty</text>
</a>
</g>
</g>
<!-- dir_a66d6071e53f0480f91b7a193124ab22&#45;&gt;dir_2ebaa83b9a80a062a45c97b62e911ab2 -->
<g id="edge3" class="edge"><title>dir_a66d6071e53f0480f91b7a193124ab22&#45;&gt;dir_2ebaa83b9a80a062a45c97b62e911ab2</title>
<path fill="none" stroke="black" d="M98.4056,-221.278C65.5036,-206.916 14.0456,-183.991 11.5,-180 -0.458615,-161.252 5.97295,-136.072 14.1314,-117.28"/>
<polygon fill="black" stroke="black" points="17.3599,-118.64 18.4669,-108.103 11.0307,-115.649 17.3599,-118.64"/>
<g id="a_edge3&#45;headlabel"><a xlink:href="dir_000009_000048.xhtml" target="_top" xlink:title="7">
<text text-anchor="middle" x="18.3917" y="-120.602" font-family="Helvetica,sans-Serif" font-size="10.00">7</text>
</a>
</g>
</g>
<!-- dir_48be2503ae6ae6de0698f11fb632640c -->
<g id="node10" class="node"><title>dir_48be2503ae6ae6de0698f11fb632640c</title>
<g id="a_node10"><a xlink:href="dir_48be2503ae6ae6de0698f11fb632640c.xhtml" target="_top" xlink:title="sam">
<polygon fill="white" stroke="red" points="74.5,-180 20.5,-180 20.5,-144 74.5,-144 74.5,-180"/>
<text text-anchor="middle" x="47.5" y="-159.5" font-family="Helvetica,sans-Serif" font-size="10.00">sam</text>
</a>
</g>
</g>
<!-- dir_a66d6071e53f0480f91b7a193124ab22&#45;&gt;dir_48be2503ae6ae6de0698f11fb632640c -->
<g id="edge4" class="edge"><title>dir_a66d6071e53f0480f91b7a193124ab22&#45;&gt;dir_48be2503ae6ae6de0698f11fb632640c</title>
<path fill="none" stroke="black" d="M106.219,-215.697C96.5846,-207.05 84.7712,-196.449 74.273,-187.027"/>
<polygon fill="black" stroke="black" points="76.3393,-184.179 66.5591,-180.104 71.6639,-189.388 76.3393,-184.179"/>
<g id="a_edge4&#45;headlabel"><a xlink:href="dir_000009_000021.xhtml" target="_top" xlink:title="1">
<text text-anchor="middle" x="80.9109" y="-181.966" font-family="Helvetica,sans-Serif" font-size="10.00">1</text>
</a>
</g>
</g>
<!-- dir_33cd155f3518d2063755b3d6a26213df -->
<g id="node4" class="node"><title>dir_33cd155f3518d2063755b3d6a26213df</title>
<g id="a_node4"><a xlink:href="dir_33cd155f3518d2063755b3d6a26213df.xhtml" target="_top" xlink:title="ioport">
<polygon fill="white" stroke="red" points="224.5,-252 170.5,-252 170.5,-216 224.5,-216 224.5,-252"/>
<text text-anchor="middle" x="197.5" y="-231.5" font-family="Helvetica,sans-Serif" font-size="10.00">ioport</text>
</a>
</g>
</g>
<!-- dir_33cd155f3518d2063755b3d6a26213df&#45;&gt;dir_48be2503ae6ae6de0698f11fb632640c -->
<g id="edge17" class="edge"><title>dir_33cd155f3518d2063755b3d6a26213df&#45;&gt;dir_48be2503ae6ae6de0698f11fb632640c</title>
<path fill="none" stroke="black" d="M170.216,-224.155C164.255,-221.524 158.133,-218.639 152.5,-216 129.637,-205.287 104.159,-193.434 83.9276,-183.659"/>
<polygon fill="black" stroke="black" points="85.2643,-180.417 74.7415,-179.183 82.1985,-186.709 85.2643,-180.417"/>
<g id="a_edge17&#45;headlabel"><a xlink:href="dir_000011_000021.xhtml" target="_top" xlink:title="1">
<text text-anchor="middle" x="89.7394" y="-176.938" font-family="Helvetica,sans-Serif" font-size="10.00">1</text>
</a>
</g>
</g>
<!-- dir_33cd155f3518d2063755b3d6a26213df&#45;&gt;dir_1979e3e37ad559ebf144124a44cbf236 -->
<g id="edge18" class="edge"><title>dir_33cd155f3518d2063755b3d6a26213df&#45;&gt;dir_1979e3e37ad559ebf144124a44cbf236</title>
<path fill="none" stroke="black" d="M170.43,-220.717C154.475,-211.879 135.67,-198.288 126.5,-180 116.799,-160.652 121.675,-136.217 128.205,-117.848"/>
<polygon fill="black" stroke="black" points="131.542,-118.925 131.92,-108.337 125.021,-116.378 131.542,-118.925"/>
<g id="a_edge18&#45;headlabel"><a xlink:href="dir_000011_000017.xhtml" target="_top" xlink:title="1">
<text text-anchor="middle" x="132.878" y="-120.806" font-family="Helvetica,sans-Serif" font-size="10.00">1</text>
</a>
</g>
</g>
<!-- dir_338254fd8cde27c304cd79c881d84fe8&#45;&gt;dir_4d1936617bc084324e7ec3ad8194452c -->
<g id="edge8" class="edge"><title>dir_338254fd8cde27c304cd79c881d84fe8&#45;&gt;dir_4d1936617bc084324e7ec3ad8194452c</title>
<path fill="none" stroke="black" d="M233.5,-143.871C233.5,-119.67 233.5,-75.2108 233.5,-46.3932"/>
<polygon fill="black" stroke="black" points="237,-46.1892 233.5,-36.1893 230,-46.1893 237,-46.1892"/>
<g id="a_edge8&#45;headlabel"><a xlink:href="dir_000013_000059.xhtml" target="_top" xlink:title="1">
<text text-anchor="middle" x="239.839" y="-47.2839" font-family="Helvetica,sans-Serif" font-size="10.00">1</text>
</a>
</g>
</g>
<!-- dir_338254fd8cde27c304cd79c881d84fe8&#45;&gt;dir_48be2503ae6ae6de0698f11fb632640c -->
<g id="edge9" class="edge"><title>dir_338254fd8cde27c304cd79c881d84fe8&#45;&gt;dir_48be2503ae6ae6de0698f11fb632640c</title>
<path fill="none" stroke="black" d="M206.214,-162C165.73,-162 125.245,-162 84.7603,-162"/>
<polygon fill="black" stroke="black" points="84.7461,-158.5 74.7461,-162 84.7461,-165.5 84.7461,-158.5"/>
<g id="a_edge9&#45;headlabel"><a xlink:href="dir_000013_000021.xhtml" target="_top" xlink:title="2">
<text text-anchor="middle" x="88.3407" y="-153.161" font-family="Helvetica,sans-Serif" font-size="10.00">2</text>
</a>
</g>
</g>
<!-- dir_338254fd8cde27c304cd79c881d84fe8&#45;&gt;dir_1979e3e37ad559ebf144124a44cbf236 -->
<g id="edge10" class="edge"><title>dir_338254fd8cde27c304cd79c881d84fe8&#45;&gt;dir_1979e3e37ad559ebf144124a44cbf236</title>
<path fill="none" stroke="black" d="M206.476,-145.65C198.949,-140.008 190.93,-133.626 183.5,-128 177.427,-123.402 170.866,-118.605 164.69,-114.047"/>
<polygon fill="black" stroke="black" points="166.704,-111.183 156.591,-108.023 162.526,-116.799 166.704,-111.183"/>
<g id="a_edge10&#45;headlabel"><a xlink:href="dir_000013_000017.xhtml" target="_top" xlink:title="1">
<text text-anchor="middle" x="171.282" y="-108.55" font-family="Helvetica,sans-Serif" font-size="10.00">1</text>
</a>
</g>
</g>
<!-- dir_38fbe5e88d786e61b9a019ac920170fe -->
<g id="node6" class="node"><title>dir_38fbe5e88d786e61b9a019ac920170fe</title>
<g id="a_node6"><a xlink:href="dir_38fbe5e88d786e61b9a019ac920170fe.xhtml" target="_top" xlink:title="sleepmgr">
<polygon fill="white" stroke="red" points="298.5,-252 242.5,-252 242.5,-216 298.5,-216 298.5,-252"/>
<text text-anchor="middle" x="270.5" y="-231.5" font-family="Helvetica,sans-Serif" font-size="10.00">sleepmgr</text>
</a>
</g>
</g>
<!-- dir_38fbe5e88d786e61b9a019ac920170fe&#45;&gt;dir_4d1936617bc084324e7ec3ad8194452c -->
<g id="edge19" class="edge"><title>dir_38fbe5e88d786e61b9a019ac920170fe&#45;&gt;dir_4d1936617bc084324e7ec3ad8194452c</title>
<path fill="none" stroke="black" d="M271.953,-215.764C273.346,-194.845 274.568,-158.574 269.5,-128 264.717,-99.1463 253.587,-67.5527 244.959,-45.8432"/>
<polygon fill="black" stroke="black" points="248.095,-44.2647 241.083,-36.3226 241.612,-46.9042 248.095,-44.2647"/>
<g id="a_edge19&#45;headlabel"><a xlink:href="dir_000015_000059.xhtml" target="_top" xlink:title="1">
<text text-anchor="middle" x="252.08" y="-44.0234" font-family="Helvetica,sans-Serif" font-size="10.00">1</text>
</a>
</g>
</g>
<!-- dir_38fbe5e88d786e61b9a019ac920170fe&#45;&gt;dir_48be2503ae6ae6de0698f11fb632640c -->
<g id="edge20" class="edge"><title>dir_38fbe5e88d786e61b9a019ac920170fe&#45;&gt;dir_48be2503ae6ae6de0698f11fb632640c</title>
<path fill="none" stroke="black" d="M242.446,-219.44C239.458,-218.198 236.437,-217.024 233.5,-216 169.985,-193.858 150.229,-201.517 86.5,-180 85.6427,-179.711 84.7782,-179.41 83.9091,-179.1"/>
<polygon fill="black" stroke="black" points="85.1319,-175.82 74.5421,-175.493 82.6164,-182.353 85.1319,-175.82"/>
<g id="a_edge20&#45;headlabel"><a xlink:href="dir_000015_000021.xhtml" target="_top" xlink:title="4">
<text text-anchor="middle" x="89.5067" y="-171.962" font-family="Helvetica,sans-Serif" font-size="10.00">4</text>
</a>
</g>
</g>
<!-- dir_38fbe5e88d786e61b9a019ac920170fe&#45;&gt;dir_1979e3e37ad559ebf144124a44cbf236 -->
<g id="edge21" class="edge"><title>dir_38fbe5e88d786e61b9a019ac920170fe&#45;&gt;dir_1979e3e37ad559ebf144124a44cbf236</title>
<path fill="none" stroke="black" d="M242.232,-219.573C211.764,-204.996 167.226,-183.335 164.5,-180 150.295,-162.622 144.451,-137.571 142.07,-118.472"/>
<polygon fill="black" stroke="black" points="145.53,-117.891 141.052,-108.289 138.565,-118.587 145.53,-117.891"/>
<g id="a_edge21&#45;headlabel"><a xlink:href="dir_000015_000017.xhtml" target="_top" xlink:title="2">
<text text-anchor="middle" x="148.712" y="-118.685" font-family="Helvetica,sans-Serif" font-size="10.00">2</text>
</a>
</g>
</g>
<!-- dir_55086d61004084a481a27326b67c0be7&#45;&gt;dir_48be2503ae6ae6de0698f11fb632640c -->
<g id="edge1" class="edge"><title>dir_55086d61004084a481a27326b67c0be7&#45;&gt;dir_48be2503ae6ae6de0698f11fb632640c</title>
<path fill="none" stroke="black" d="M41.5843,-215.697C40.7886,-207.983 40.5621,-198.712 40.9047,-190.112"/>
<polygon fill="black" stroke="black" points="44.3984,-190.324 41.605,-180.104 37.4154,-189.836 44.3984,-190.324"/>
<g id="a_edge1&#45;headlabel"><a xlink:href="dir_000005_000021.xhtml" target="_top" xlink:title="1">
<text text-anchor="middle" x="46.9799" y="-191.608" font-family="Helvetica,sans-Serif" font-size="10.00">1</text>
</a>
</g>
</g>
<!-- dir_2ebaa83b9a80a062a45c97b62e911ab2&#45;&gt;dir_4d1936617bc084324e7ec3ad8194452c -->
<g id="edge11" class="edge"><title>dir_2ebaa83b9a80a062a45c97b62e911ab2&#45;&gt;dir_4d1936617bc084324e7ec3ad8194452c</title>
<path fill="none" stroke="black" d="M57.0897,-77.4191C61.8824,-75.5578 66.8185,-73.6895 71.5,-72 114.131,-56.6153 163.736,-40.669 196.712,-30.3396"/>
<polygon fill="black" stroke="black" points="197.882,-33.6409 206.386,-27.3211 195.797,-26.9586 197.882,-33.6409"/>
<g id="a_edge11&#45;headlabel"><a xlink:href="dir_000048_000059.xhtml" target="_top" xlink:title="1">
<text text-anchor="middle" x="195.296" y="-34.9219" font-family="Helvetica,sans-Serif" font-size="10.00">1</text>
</a>
</g>
</g>
<!-- dir_48be2503ae6ae6de0698f11fb632640c&#45;&gt;dir_33cd155f3518d2063755b3d6a26213df -->
<g id="edge15" class="edge"><title>dir_48be2503ae6ae6de0698f11fb632640c&#45;&gt;dir_33cd155f3518d2063755b3d6a26213df</title>
<path fill="none" stroke="black" d="M74.6204,-172.503C97.4392,-182.061 130.643,-197.368 160.917,-211.515"/>
<polygon fill="black" stroke="black" points="159.663,-214.793 170.203,-215.861 162.629,-208.452 159.663,-214.793"/>
<g id="a_edge15&#45;headlabel"><a xlink:href="dir_000021_000011.xhtml" target="_top" xlink:title="2">
<text text-anchor="middle" x="155.203" y="-213.341" font-family="Helvetica,sans-Serif" font-size="10.00">2</text>
</a>
</g>
</g>
<!-- dir_48be2503ae6ae6de0698f11fb632640c&#45;&gt;dir_55086d61004084a481a27326b67c0be7 -->
<g id="edge12" class="edge"><title>dir_48be2503ae6ae6de0698f11fb632640c&#45;&gt;dir_55086d61004084a481a27326b67c0be7</title>
<path fill="none" stroke="black" d="M53.395,-180.104C54.2005,-187.791 54.4369,-197.054 54.104,-205.665"/>
<polygon fill="black" stroke="black" points="50.6085,-205.48 53.4157,-215.697 57.5921,-205.96 50.6085,-205.48"/>
<g id="a_edge12&#45;headlabel"><a xlink:href="dir_000021_000005.xhtml" target="_top" xlink:title="1">
<text text-anchor="middle" x="48.0219" y="-199.2" font-family="Helvetica,sans-Serif" font-size="10.00">1</text>
</a>
</g>
</g>
<!-- dir_48be2503ae6ae6de0698f11fb632640c&#45;&gt;dir_4d1936617bc084324e7ec3ad8194452c -->
<g id="edge13" class="edge"><title>dir_48be2503ae6ae6de0698f11fb632640c&#45;&gt;dir_4d1936617bc084324e7ec3ad8194452c</title>
<path fill="none" stroke="black" d="M54.6861,-143.682C63.6818,-123.909 80.834,-91.7521 104.5,-72 131.32,-49.6155 168.885,-35.6277 196.563,-27.6821"/>
<polygon fill="black" stroke="black" points="197.554,-31.0397 206.275,-25.0238 195.706,-24.2881 197.554,-31.0397"/>
<g id="a_edge13&#45;headlabel"><a xlink:href="dir_000021_000059.xhtml" target="_top" xlink:title="2">
<text text-anchor="middle" x="194.837" y="-32.2272" font-family="Helvetica,sans-Serif" font-size="10.00">2</text>
</a>
</g>
</g>
<!-- dir_48be2503ae6ae6de0698f11fb632640c&#45;&gt;dir_2ebaa83b9a80a062a45c97b62e911ab2 -->
<g id="edge14" class="edge"><title>dir_48be2503ae6ae6de0698f11fb632640c&#45;&gt;dir_2ebaa83b9a80a062a45c97b62e911ab2</title>
<path fill="none" stroke="black" d="M42.8034,-143.697C40.6866,-135.898 38.138,-126.509 35.7822,-117.829"/>
<polygon fill="black" stroke="black" points="39.14,-116.838 33.1426,-108.104 32.3844,-118.672 39.14,-116.838"/>
<g id="a_edge14&#45;headlabel"><a xlink:href="dir_000021_000048.xhtml" target="_top" xlink:title="5">
<text text-anchor="middle" x="42.8216" y="-117.064" font-family="Helvetica,sans-Serif" font-size="10.00">5</text>
</a>
</g>
</g>
<!-- dir_48be2503ae6ae6de0698f11fb632640c&#45;&gt;dir_1979e3e37ad559ebf144124a44cbf236 -->
<g id="edge16" class="edge"><title>dir_48be2503ae6ae6de0698f11fb632640c&#45;&gt;dir_1979e3e37ad559ebf144124a44cbf236</title>
<path fill="none" stroke="black" d="M58.4386,-143.814C64.1496,-138.601 71.0114,-132.948 77.5,-128 86.0604,-121.472 95.6792,-114.709 104.857,-108.779"/>
<polygon fill="black" stroke="black" points="106.855,-111.658 113.473,-103.383 103.14,-105.725 106.855,-111.658"/>
<g id="a_edge16&#45;headlabel"><a xlink:href="dir_000021_000017.xhtml" target="_top" xlink:title="2">
<text text-anchor="middle" x="105.316" y="-113.472" font-family="Helvetica,sans-Serif" font-size="10.00">2</text>
</a>
</g>
</g>
<!-- dir_1979e3e37ad559ebf144124a44cbf236&#45;&gt;dir_338254fd8cde27c304cd79c881d84fe8 -->
<g id="edge22" class="edge"><title>dir_1979e3e37ad559ebf144124a44cbf236&#45;&gt;dir_338254fd8cde27c304cd79c881d84fe8</title>
<path fill="none" stroke="black" d="M167.763,-104.264C178.61,-111.199 190.812,-119.907 201.5,-128 205.479,-131.013 209.627,-134.243 213.603,-137.459"/>
<polygon fill="black" stroke="black" points="211.491,-140.255 221.413,-143.97 215.973,-134.879 211.491,-140.255"/>
<g id="a_edge22&#45;headlabel"><a xlink:href="dir_000017_000013.xhtml" target="_top" xlink:title="1">
<text text-anchor="middle" x="206.912" y="-137.635" font-family="Helvetica,sans-Serif" font-size="10.00">1</text>
</a>
</g>
</g>
<!-- dir_1979e3e37ad559ebf144124a44cbf236&#45;&gt;dir_48be2503ae6ae6de0698f11fb632640c -->
<g id="edge23" class="edge"><title>dir_1979e3e37ad559ebf144124a44cbf236&#45;&gt;dir_48be2503ae6ae6de0698f11fb632640c</title>
<path fill="none" stroke="black" d="M122.797,-108.167C114.345,-114.242 104.356,-121.247 95.5,-128 91.3741,-131.146 87.0973,-134.578 82.8466,-138"/>
<polygon fill="black" stroke="black" points="80.3629,-135.505 74.7511,-144.492 84.7421,-140.966 80.3629,-135.505"/>
<g id="a_edge23&#45;headlabel"><a xlink:href="dir_000017_000021.xhtml" target="_top" xlink:title="4">
<text text-anchor="middle" x="81.3909" y="-128.541" font-family="Helvetica,sans-Serif" font-size="10.00">4</text>
</a>
</g>
</g>
</g>
</svg>
