<?xml version="1.0" encoding="UTF-8" standalone="no"?>
<!DOCTYPE svg PUBLIC "-//W3C//DTD SVG 1.1//EN"
 "http://www.w3.org/Graphics/SVG/1.1/DTD/svg11.dtd">
<!-- Generated by graphviz version 2.38.0 (20140413.2041)
 -->
<!-- Title: examples/atmel_samg55/src/ASF/sam/drivers/flexcom/flexcom.h Pages: 1 -->
<svg width="172pt" height="106pt"
 viewBox="0.00 0.00 171.50 106.00" xmlns="http://www.w3.org/2000/svg" xmlns:xlink="http://www.w3.org/1999/xlink">
<g id="graph0" class="graph" transform="scale(1 1) rotate(0) translate(4 102)">
<title>examples/atmel_samg55/src/ASF/sam/drivers/flexcom/flexcom.h</title>
<polygon fill="white" stroke="none" points="-4,4 -4,-102 167.5,-102 167.5,4 -4,4"/>
<!-- Node0 -->
<g id="node1" class="node"><title>Node0</title>
<polygon fill="#bfbfbf" stroke="black" points="13.5,-56.5 13.5,-97.5 138.5,-97.5 138.5,-56.5 13.5,-56.5"/>
<text text-anchor="start" x="21.5" y="-85.5" font-family="Helvetica,sans-Serif" font-size="10.00">examples/atmel_samg55</text>
<text text-anchor="start" x="21.5" y="-74.5" font-family="Helvetica,sans-Serif" font-size="10.00">/src/ASF/sam/drivers</text>
<text text-anchor="middle" x="76" y="-63.5" font-family="Helvetica,sans-Serif" font-size="10.00">/flexcom/flexcom.h</text>
</g>
<!-- Node1 -->
<g id="node2" class="node"><title>Node1</title>
<g id="a_node2"><a xlink:href="compiler_8h.xhtml" target="_top" xlink:title="Commonly used includes, types and macros. ">
<polygon fill="white" stroke="red" points="0,-0.5 0,-19.5 62,-19.5 62,-0.5 0,-0.5"/>
<text text-anchor="middle" x="31" y="-7.5" font-family="Helvetica,sans-Serif" font-size="10.00">compiler.h</text>
</a>
</g>
</g>
<!-- Node0&#45;&gt;Node1 -->
<g id="edge1" class="edge"><title>Node0&#45;&gt;Node1</title>
<path fill="none" stroke="midnightblue" d="M62.4985,-56.4979C56.1962,-47.3946 48.7662,-36.6623 42.7056,-27.9081"/>
<polygon fill="midnightblue" stroke="midnightblue" points="45.56,-25.8822 36.9902,-19.6525 39.8046,-29.8667 45.56,-25.8822"/>
</g>
<!-- Node14 -->
<g id="node3" class="node"><title>Node14</title>
<g id="a_node3"><a xlink:href="status__codes_8h.xhtml" target="_top" xlink:title="Status code definitions. ">
<polygon fill="white" stroke="black" points="80.5,-0.5 80.5,-19.5 163.5,-19.5 163.5,-0.5 80.5,-0.5"/>
<text text-anchor="middle" x="122" y="-7.5" font-family="Helvetica,sans-Serif" font-size="10.00">status_codes.h</text>
</a>
</g>
</g>
<!-- Node0&#45;&gt;Node14 -->
<g id="edge2" class="edge"><title>Node0&#45;&gt;Node14</title>
<path fill="none" stroke="midnightblue" d="M89.8015,-56.4979C96.2439,-47.3946 103.839,-36.6623 110.034,-27.9081"/>
<polygon fill="midnightblue" stroke="midnightblue" points="112.957,-29.8371 115.877,-19.6525 107.243,-25.7934 112.957,-29.8371"/>
</g>
</g>
</svg>
