<?xml version="1.0" encoding="UTF-8" standalone="no"?>
<!DOCTYPE svg PUBLIC "-//W3C//DTD SVG 1.1//EN"
 "http://www.w3.org/Graphics/SVG/1.1/DTD/svg11.dtd">
<!-- Generated by graphviz version 2.38.0 (20140413.2041)
 -->
<!-- Title: fpu_enable Pages: 1 -->
<svg width="190pt" height="66pt"
 viewBox="0.00 0.00 190.00 66.00" xmlns="http://www.w3.org/2000/svg" xmlns:xlink="http://www.w3.org/1999/xlink">
<g id="graph0" class="graph" transform="scale(1 1) rotate(0) translate(4 62)">
<title>fpu_enable</title>
<polygon fill="white" stroke="none" points="-4,4 -4,-62 186,-62 186,4 -4,4"/>
<!-- Node7 -->
<g id="node1" class="node"><title>Node7</title>
<polygon fill="#bfbfbf" stroke="black" points="0,-19.5 0,-38.5 63,-38.5 63,-19.5 0,-19.5"/>
<text text-anchor="middle" x="31.5" y="-26.5" font-family="Helvetica,sans-Serif" font-size="10.00">fpu_enable</text>
</g>
<!-- Node8 -->
<g id="node2" class="node"><title>Node8</title>
<g id="a_node2"><a xlink:href="group__interrupt__group.xhtml#ga5992cb015c55a0f4ed563e66a8793771" target="_top" xlink:title="Get and clear the global interrupt flags. ">
<polygon fill="white" stroke="black" points="104,-38.5 104,-57.5 177,-57.5 177,-38.5 104,-38.5"/>
<text text-anchor="middle" x="140.5" y="-45.5" font-family="Helvetica,sans-Serif" font-size="10.00">cpu_irq_save</text>
</a>
</g>
</g>
<!-- Node7&#45;&gt;Node8 -->
<g id="edge1" class="edge"><title>Node7&#45;&gt;Node8</title>
<path fill="none" stroke="midnightblue" d="M63.1619,-34.4446C72.703,-36.1388 83.437,-38.0449 93.7753,-39.8807"/>
<polygon fill="midnightblue" stroke="midnightblue" points="93.4649,-43.3802 103.923,-41.6826 94.6888,-36.488 93.4649,-43.3802"/>
</g>
<!-- Node9 -->
<g id="node3" class="node"><title>Node9</title>
<g id="a_node3"><a xlink:href="group__interrupt__group.xhtml#ga428178bc346431936fddf52ad1ebd6fa" target="_top" xlink:title="Restore global interrupt flags. ">
<polygon fill="white" stroke="red" points="99,-0.5 99,-19.5 182,-19.5 182,-0.5 99,-0.5"/>
<text text-anchor="middle" x="140.5" y="-7.5" font-family="Helvetica,sans-Serif" font-size="10.00">cpu_irq_restore</text>
</a>
</g>
</g>
<!-- Node7&#45;&gt;Node9 -->
<g id="edge2" class="edge"><title>Node7&#45;&gt;Node9</title>
<path fill="none" stroke="midnightblue" d="M63.1619,-23.5554C71.2382,-22.1212 80.1694,-20.5353 88.9917,-18.9688"/>
<polygon fill="midnightblue" stroke="midnightblue" points="89.6207,-22.4119 98.8548,-17.2174 88.3968,-15.5197 89.6207,-22.4119"/>
</g>
</g>
</svg>
