<?xml version="1.0" encoding="UTF-8" standalone="no"?>
<!DOCTYPE svg PUBLIC "-//W3C//DTD SVG 1.1//EN"
 "http://www.w3.org/Graphics/SVG/1.1/DTD/svg11.dtd">
<!-- Generated by graphviz version 2.38.0 (20140413.2041)
 -->
<!-- Title: fpu_disable Pages: 1 -->
<svg width="192pt" height="66pt"
 viewBox="0.00 0.00 192.00 66.00" xmlns="http://www.w3.org/2000/svg" xmlns:xlink="http://www.w3.org/1999/xlink">
<g id="graph0" class="graph" transform="scale(1 1) rotate(0) translate(4 62)">
<title>fpu_disable</title>
<polygon fill="white" stroke="none" points="-4,4 -4,-62 188,-62 188,4 -4,4"/>
<!-- Node0 -->
<g id="node1" class="node"><title>Node0</title>
<polygon fill="#bfbfbf" stroke="black" points="0,-19.5 0,-38.5 65,-38.5 65,-19.5 0,-19.5"/>
<text text-anchor="middle" x="32.5" y="-26.5" font-family="Helvetica,sans-Serif" font-size="10.00">fpu_disable</text>
</g>
<!-- Node1 -->
<g id="node2" class="node"><title>Node1</title>
<g id="a_node2"><a xlink:href="group__interrupt__group.xhtml#ga5992cb015c55a0f4ed563e66a8793771" target="_top" xlink:title="Get and clear the global interrupt flags. ">
<polygon fill="white" stroke="black" points="106,-38.5 106,-57.5 179,-57.5 179,-38.5 106,-38.5"/>
<text text-anchor="middle" x="142.5" y="-45.5" font-family="Helvetica,sans-Serif" font-size="10.00">cpu_irq_save</text>
</a>
</g>
</g>
<!-- Node0&#45;&gt;Node1 -->
<g id="edge1" class="edge"><title>Node0&#45;&gt;Node1</title>
<path fill="none" stroke="midnightblue" d="M65.0284,-34.5467C74.6477,-36.239 85.425,-38.135 95.7854,-39.9576"/>
<polygon fill="midnightblue" stroke="midnightblue" points="95.4934,-43.4599 105.949,-41.7456 96.7063,-36.5658 95.4934,-43.4599"/>
</g>
<!-- Node2 -->
<g id="node3" class="node"><title>Node2</title>
<g id="a_node3"><a xlink:href="group__interrupt__group.xhtml#ga428178bc346431936fddf52ad1ebd6fa" target="_top" xlink:title="Restore global interrupt flags. ">
<polygon fill="white" stroke="red" points="101,-0.5 101,-19.5 184,-19.5 184,-0.5 101,-0.5"/>
<text text-anchor="middle" x="142.5" y="-7.5" font-family="Helvetica,sans-Serif" font-size="10.00">cpu_irq_restore</text>
</a>
</g>
</g>
<!-- Node0&#45;&gt;Node2 -->
<g id="edge2" class="edge"><title>Node0&#45;&gt;Node2</title>
<path fill="none" stroke="midnightblue" d="M65.0284,-23.4533C73.171,-22.0208 82.1432,-20.4424 90.9901,-18.886"/>
<polygon fill="midnightblue" stroke="midnightblue" points="91.6319,-22.3269 100.874,-17.1471 90.419,-15.4328 91.6319,-22.3269"/>
</g>
</g>
</svg>
