<?xml version="1.0" encoding="UTF-8" standalone="no"?>
<!DOCTYPE svg PUBLIC "-//W3C//DTD SVG 1.1//EN"
 "http://www.w3.org/Graphics/SVG/1.1/DTD/svg11.dtd">
<!-- Generated by graphviz version 2.38.0 (20140413.2041)
 -->
<!-- Title: configure_rx_dma Pages: 1 -->
<svg width="252pt" height="142pt"
 viewBox="0.00 0.00 252.00 142.00" xmlns="http://www.w3.org/2000/svg" xmlns:xlink="http://www.w3.org/1999/xlink">
<g id="graph0" class="graph" transform="scale(1 1) rotate(0) translate(4 138)">
<title>configure_rx_dma</title>
<polygon fill="white" stroke="none" points="-4,4 -4,-138 248,-138 248,4 -4,4"/>
<!-- Node0 -->
<g id="node1" class="node"><title>Node0</title>
<polygon fill="#bfbfbf" stroke="black" points="0,-57.5 0,-76.5 93,-76.5 93,-57.5 0,-57.5"/>
<text text-anchor="middle" x="46.5" y="-64.5" font-family="Helvetica,sans-Serif" font-size="10.00">configure_rx_dma</text>
</g>
<!-- Node1 -->
<g id="node2" class="node"><title>Node1</title>
<g id="a_node2"><a xlink:href="group__asfdoc__sam__drivers__pdc__group.xhtml#ga8cbc8c88b0b1d636ff9f0b5b42fbd9e8" target="_top" xlink:title="Configure PDC for data receive. ">
<polygon fill="white" stroke="black" points="154.5,-114.5 154.5,-133.5 218.5,-133.5 218.5,-114.5 154.5,-114.5"/>
<text text-anchor="middle" x="186.5" y="-121.5" font-family="Helvetica,sans-Serif" font-size="10.00">pdc_rx_init</text>
</a>
</g>
</g>
<!-- Node0&#45;&gt;Node1 -->
<g id="edge1" class="edge"><title>Node0&#45;&gt;Node1</title>
<path fill="none" stroke="midnightblue" d="M66.3378,-76.5172C82.689,-84.6002 107.111,-96.2484 129,-105 134.225,-107.089 139.779,-109.148 145.288,-111.095"/>
<polygon fill="midnightblue" stroke="midnightblue" points="144.476,-114.517 155.071,-114.462 146.754,-107.898 144.476,-114.517"/>
</g>
<!-- Node2 -->
<g id="node3" class="node"><title>Node2</title>
<g id="a_node3"><a xlink:href="group__asfdoc__sam__drivers__pdc__group.xhtml#gadb600d48347212bcf1d0229951b036cd" target="_top" xlink:title="Enable PDC transfers (TX and/or RX). ">
<polygon fill="white" stroke="black" points="134.5,-76.5 134.5,-95.5 238.5,-95.5 238.5,-76.5 134.5,-76.5"/>
<text text-anchor="middle" x="186.5" y="-83.5" font-family="Helvetica,sans-Serif" font-size="10.00">pdc_enable_transfer</text>
</a>
</g>
</g>
<!-- Node0&#45;&gt;Node2 -->
<g id="edge2" class="edge"><title>Node0&#45;&gt;Node2</title>
<path fill="none" stroke="midnightblue" d="M93.0688,-73.274C103.064,-74.6501 113.803,-76.1287 124.299,-77.5738"/>
<polygon fill="midnightblue" stroke="midnightblue" points="123.871,-81.0478 134.255,-78.9445 124.826,-74.1132 123.871,-81.0478"/>
</g>
<!-- Node3 -->
<g id="node4" class="node"><title>Node3</title>
<g id="a_node4"><a xlink:href="group__sam__drivers__usart__group.xhtml#ga33c4b214e790bf6b04c8867dd66c3336" target="_top" xlink:title="Enable USART interrupts. ">
<polygon fill="white" stroke="black" points="130,-38.5 130,-57.5 243,-57.5 243,-38.5 130,-38.5"/>
<text text-anchor="middle" x="186.5" y="-45.5" font-family="Helvetica,sans-Serif" font-size="10.00">usart_enable_interrupt</text>
</a>
</g>
</g>
<!-- Node0&#45;&gt;Node3 -->
<g id="edge3" class="edge"><title>Node0&#45;&gt;Node3</title>
<path fill="none" stroke="midnightblue" d="M93.0688,-60.726C101.625,-59.548 110.727,-58.2949 119.754,-57.052"/>
<polygon fill="midnightblue" stroke="midnightblue" points="120.452,-60.489 129.881,-55.6577 119.497,-53.5544 120.452,-60.489"/>
</g>
<!-- Node4 -->
<g id="node5" class="node"><title>Node4</title>
<g id="a_node5"><a xlink:href="group__sam__drivers__usart__group.xhtml#gaa3a3c3eb673f70359570302dcf1a5b6a" target="_top" xlink:title="Disable USART interrupts. ">
<polygon fill="white" stroke="black" points="129,-0.5 129,-19.5 244,-19.5 244,-0.5 129,-0.5"/>
<text text-anchor="middle" x="186.5" y="-7.5" font-family="Helvetica,sans-Serif" font-size="10.00">usart_disable_interrupt</text>
</a>
</g>
</g>
<!-- Node0&#45;&gt;Node4 -->
<g id="edge4" class="edge"><title>Node0&#45;&gt;Node4</title>
<path fill="none" stroke="midnightblue" d="M66.3378,-57.4828C82.689,-49.3998 107.111,-37.7516 129,-29 134.225,-26.911 139.779,-24.8522 145.288,-22.905"/>
<polygon fill="midnightblue" stroke="midnightblue" points="146.754,-26.1019 155.071,-19.5383 144.476,-19.4828 146.754,-26.1019"/>
</g>
</g>
</svg>
