<?xml version="1.0" encoding="UTF-8" standalone="no"?>
<!DOCTYPE svg PUBLIC "-//W3C//DTD SVG 1.1//EN"
 "http://www.w3.org/Graphics/SVG/1.1/DTD/svg11.dtd">
<!-- Generated by graphviz version 2.38.0 (20140413.2041)
 -->
<!-- Title: examples/atmel_samg55/src/ASF/common/services/freertos/sam/freertos_usart_serial.c Pages: 1 -->
<svg width="370pt" height="128pt"
 viewBox="0.00 0.00 369.50 128.00" xmlns="http://www.w3.org/2000/svg" xmlns:xlink="http://www.w3.org/1999/xlink">
<g id="graph0" class="graph" transform="scale(1 1) rotate(0) translate(4 124)">
<title>examples/atmel_samg55/src/ASF/common/services/freertos/sam/freertos_usart_serial.c</title>
<polygon fill="white" stroke="none" points="-4,4 -4,-124 365.5,-124 365.5,4 -4,4"/>
<!-- Node0 -->
<g id="node1" class="node"><title>Node0</title>
<polygon fill="#bfbfbf" stroke="black" points="72.5,-67.5 72.5,-119.5 208.5,-119.5 208.5,-67.5 72.5,-67.5"/>
<text text-anchor="start" x="80.5" y="-107.5" font-family="Helvetica,sans-Serif" font-size="10.00">examples/atmel_samg55</text>
<text text-anchor="start" x="80.5" y="-96.5" font-family="Helvetica,sans-Serif" font-size="10.00">/src/ASF/common/services</text>
<text text-anchor="start" x="80.5" y="-85.5" font-family="Helvetica,sans-Serif" font-size="10.00">/freertos/sam/freertos_usart</text>
<text text-anchor="middle" x="140.5" y="-74.5" font-family="Helvetica,sans-Serif" font-size="10.00">_serial.c</text>
</g>
<!-- Node1 -->
<g id="node2" class="node"><title>Node1</title>
<polygon fill="white" stroke="#bfbfbf" points="0,-6 0,-25 49,-25 49,-6 0,-6"/>
<text text-anchor="middle" x="24.5" y="-13" font-family="Helvetica,sans-Serif" font-size="10.00">string.h</text>
</g>
<!-- Node0&#45;&gt;Node1 -->
<g id="edge1" class="edge"><title>Node0&#45;&gt;Node1</title>
<path fill="none" stroke="midnightblue" d="M102.196,-67.4041C83.5498,-55.1878 61.822,-40.9524 46.0923,-30.6467"/>
<polygon fill="midnightblue" stroke="midnightblue" points="47.8753,-27.6306 37.5926,-25.0779 44.0391,-33.4858 47.8753,-27.6306"/>
</g>
<!-- Node2 -->
<g id="node3" class="node"><title>Node2</title>
<g id="a_node3"><a xlink:href="serial_8h.xhtml" target="_top" xlink:title="Serial Mode management. ">
<polygon fill="white" stroke="red" points="67.5,-6 67.5,-25 115.5,-25 115.5,-6 67.5,-6"/>
<text text-anchor="middle" x="91.5" y="-13" font-family="Helvetica,sans-Serif" font-size="10.00">serial.h</text>
</a>
</g>
</g>
<!-- Node0&#45;&gt;Node2 -->
<g id="edge2" class="edge"><title>Node0&#45;&gt;Node2</title>
<path fill="none" stroke="midnightblue" d="M124.184,-67.1931C117.095,-56.1983 108.973,-43.6017 102.6,-33.7158"/>
<polygon fill="midnightblue" stroke="midnightblue" points="105.475,-31.7169 97.115,-25.2089 99.5921,-35.5101 105.475,-31.7169"/>
</g>
<!-- Node5 -->
<g id="node4" class="node"><title>Node5</title>
<g id="a_node4"><a xlink:href="freertos__usart__serial_8h.xhtml" target="_top" xlink:title="FreeRTOS Peripheral Control API For the USART. ">
<polygon fill="white" stroke="red" points="134,-6 134,-25 247,-25 247,-6 134,-6"/>
<text text-anchor="middle" x="190.5" y="-13" font-family="Helvetica,sans-Serif" font-size="10.00">freertos_usart_serial.h</text>
</a>
</g>
</g>
<!-- Node0&#45;&gt;Node5 -->
<g id="edge3" class="edge"><title>Node0&#45;&gt;Node5</title>
<path fill="none" stroke="midnightblue" d="M157.149,-67.1931C164.383,-56.1983 172.67,-43.6017 179.174,-33.7158"/>
<polygon fill="midnightblue" stroke="midnightblue" points="182.198,-35.4868 184.77,-25.2089 176.35,-31.6394 182.198,-35.4868"/>
</g>
<!-- Node20 -->
<g id="node5" class="node"><title>Node20</title>
<g id="a_node5"><a xlink:href="freertos__peripheral__control__private_8h.xhtml" target="_top" xlink:title="Generic FreeRTOS peripheral control functions. ">
<polygon fill="white" stroke="black" points="265.5,-0.5 265.5,-30.5 361.5,-30.5 361.5,-0.5 265.5,-0.5"/>
<text text-anchor="start" x="273.5" y="-18.5" font-family="Helvetica,sans-Serif" font-size="10.00">freertos_peripheral</text>
<text text-anchor="middle" x="313.5" y="-7.5" font-family="Helvetica,sans-Serif" font-size="10.00">_control_private.h</text>
</a>
</g>
</g>
<!-- Node0&#45;&gt;Node20 -->
<g id="edge4" class="edge"><title>Node0&#45;&gt;Node20</title>
<path fill="none" stroke="midnightblue" d="M197.626,-67.4041C221.911,-56.7355 249.702,-44.527 271.978,-34.7408"/>
<polygon fill="midnightblue" stroke="midnightblue" points="273.414,-37.9331 281.161,-30.7066 270.598,-31.5243 273.414,-37.9331"/>
</g>
</g>
</svg>
