<?xml version="1.0" encoding="UTF-8" standalone="no"?>
<!DOCTYPE svg PUBLIC "-//W3C//DTD SVG 1.1//EN"
 "http://www.w3.org/Graphics/SVG/1.1/DTD/svg11.dtd">
<!-- Generated by graphviz version 2.38.0 (20140413.2041)
 -->
<!-- Title: get_pdc_peripheral_details Pages: 1 -->
<svg width="264pt" height="127pt"
 viewBox="0.00 0.00 264.00 126.50" xmlns="http://www.w3.org/2000/svg" xmlns:xlink="http://www.w3.org/1999/xlink">
<g id="graph0" class="graph" transform="scale(1 1) rotate(0) translate(4 122.5)">
<title>get_pdc_peripheral_details</title>
<polygon fill="white" stroke="none" points="-4,4 -4,-122.5 260,-122.5 260,4 -4,4"/>
<!-- Node52 -->
<g id="node1" class="node"><title>Node52</title>
<polygon fill="#bfbfbf" stroke="black" points="0,-49.5 0,-79.5 98,-79.5 98,-49.5 0,-49.5"/>
<text text-anchor="start" x="8" y="-67.5" font-family="Helvetica,sans-Serif" font-size="10.00">get_pdc_peripheral</text>
<text text-anchor="middle" x="49" y="-56.5" font-family="Helvetica,sans-Serif" font-size="10.00">_details</text>
</g>
<!-- Node53 -->
<g id="node2" class="node"><title>Node53</title>
<g id="a_node2"><a xlink:href="group__freertos__usart__peripheral__control__group.xhtml#ga09bccd303f0eafa482a0ffb56d0438b8" target="_top" xlink:title="Initializes the FreeRTOS ASF USART driver for the specified USART port. ">
<polygon fill="white" stroke="red" points="134,-99 134,-118 256,-118 256,-99 134,-99"/>
<text text-anchor="middle" x="195" y="-106" font-family="Helvetica,sans-Serif" font-size="10.00">freertos_usart_serial_init</text>
</a>
</g>
</g>
<!-- Node52&#45;&gt;Node53 -->
<g id="edge1" class="edge"><title>Node52&#45;&gt;Node53</title>
<path fill="none" stroke="midnightblue" d="M107.987,-82.2181C126.696,-87.935 146.719,-94.0531 162.735,-98.9467"/>
<polygon fill="midnightblue" stroke="midnightblue" points="108.937,-78.8488 98.3505,-79.2738 106.891,-85.5433 108.937,-78.8488"/>
</g>
<!-- Node57 -->
<g id="node3" class="node"><title>Node57</title>
<g id="a_node3"><a xlink:href="group__freertos__usart__peripheral__control__group.xhtml#ga4f47ec231efeccf8f159c5a14124d0ff" target="_top" xlink:title="Initiate a completely asynchronous multi&#45;byte write operation on a USART peripheral. ">
<polygon fill="white" stroke="red" points="144.5,-49.5 144.5,-79.5 245.5,-79.5 245.5,-49.5 144.5,-49.5"/>
<text text-anchor="start" x="152.5" y="-67.5" font-family="Helvetica,sans-Serif" font-size="10.00">freertos_usart_write</text>
<text text-anchor="middle" x="195" y="-56.5" font-family="Helvetica,sans-Serif" font-size="10.00">_packet_async</text>
</a>
</g>
</g>
<!-- Node52&#45;&gt;Node57 -->
<g id="edge2" class="edge"><title>Node52&#45;&gt;Node57</title>
<path fill="none" stroke="midnightblue" d="M108.542,-64.5C120.322,-64.5 132.601,-64.5 144.056,-64.5"/>
<polygon fill="midnightblue" stroke="midnightblue" points="108.351,-61.0001 98.3505,-64.5 108.35,-68.0001 108.351,-61.0001"/>
</g>
<!-- Node59 -->
<g id="node4" class="node"><title>Node59</title>
<g id="a_node4"><a xlink:href="group__freertos__usart__peripheral__control__group.xhtml#ga9f4de374d2019244881290bf4943cb81" target="_top" xlink:title="Initiate a completely multi&#45;byte read operation on a USART peripheral. ">
<polygon fill="white" stroke="red" points="143,-0.5 143,-30.5 247,-30.5 247,-0.5 143,-0.5"/>
<text text-anchor="start" x="151" y="-18.5" font-family="Helvetica,sans-Serif" font-size="10.00">freertos_usart_serial</text>
<text text-anchor="middle" x="195" y="-7.5" font-family="Helvetica,sans-Serif" font-size="10.00">_read_packet</text>
</a>
</g>
</g>
<!-- Node52&#45;&gt;Node59 -->
<g id="edge3" class="edge"><title>Node52&#45;&gt;Node59</title>
<path fill="none" stroke="midnightblue" d="M104.043,-46.1104C119.036,-41.0084 135.14,-35.5289 149.519,-30.6359"/>
<polygon fill="midnightblue" stroke="midnightblue" points="102.719,-42.8637 94.3797,-49.3986 104.974,-49.4905 102.719,-42.8637"/>
</g>
</g>
</svg>
