<?xml version="1.0" encoding="UTF-8" standalone="no"?>
<!DOCTYPE svg PUBLIC "-//W3C//DTD SVG 1.1//EN"
 "http://www.w3.org/Graphics/SVG/1.1/DTD/svg11.dtd">
<!-- Generated by graphviz version 2.38.0 (20140413.2041)
 -->
<!-- Title: local_usart_handler Pages: 1 -->
<svg width="423pt" height="788pt"
 viewBox="0.00 0.00 423.00 788.00" xmlns="http://www.w3.org/2000/svg" xmlns:xlink="http://www.w3.org/1999/xlink">
<g id="graph0" class="graph" transform="scale(1 1) rotate(0) translate(4 784)">
<title>local_usart_handler</title>
<polygon fill="white" stroke="none" points="-4,4 -4,-784 419,-784 419,4 -4,4"/>
<!-- Node12 -->
<g id="node1" class="node"><title>Node12</title>
<polygon fill="#bfbfbf" stroke="black" points="0,-380.5 0,-399.5 101,-399.5 101,-380.5 0,-380.5"/>
<text text-anchor="middle" x="50.5" y="-387.5" font-family="Helvetica,sans-Serif" font-size="10.00">local_usart_handler</text>
</g>
<!-- Node13 -->
<g id="node2" class="node"><title>Node13</title>
<g id="a_node2"><a xlink:href="group__sam__drivers__usart__group.xhtml#gadedd154647a6401b9feab44a0620fea1" target="_top" xlink:title="Get current status. ">
<polygon fill="white" stroke="black" points="156,-760.5 156,-779.5 245,-779.5 245,-760.5 156,-760.5"/>
<text text-anchor="middle" x="200.5" y="-767.5" font-family="Helvetica,sans-Serif" font-size="10.00">usart_get_status</text>
</a>
</g>
</g>
<!-- Node12&#45;&gt;Node13 -->
<g id="edge1" class="edge"><title>Node12&#45;&gt;Node13</title>
<path fill="none" stroke="midnightblue" d="M52.5038,-399.745C58.0587,-451.87 86.6201,-697.365 137,-751 139.803,-753.984 143.057,-756.504 146.581,-758.631"/>
<polygon fill="midnightblue" stroke="midnightblue" points="145.27,-761.887 155.789,-763.153 148.356,-755.604 145.27,-761.887"/>
</g>
<!-- Node14 -->
<g id="node3" class="node"><title>Node14</title>
<g id="a_node3"><a xlink:href="group__sam__drivers__usart__group.xhtml#gaf2a63720ac25579075bf9191c601c7ea" target="_top" xlink:title="Read USART interrupt mask. ">
<polygon fill="white" stroke="black" points="137,-722.5 137,-741.5 264,-741.5 264,-722.5 137,-722.5"/>
<text text-anchor="middle" x="200.5" y="-729.5" font-family="Helvetica,sans-Serif" font-size="10.00">usart_get_interrupt_mask</text>
</a>
</g>
</g>
<!-- Node12&#45;&gt;Node14 -->
<g id="edge2" class="edge"><title>Node12&#45;&gt;Node14</title>
<path fill="none" stroke="midnightblue" d="M51.1417,-399.769C50.1204,-442.283 51.6596,-613.29 137,-708 140.461,-711.841 144.607,-715.072 149.094,-717.789"/>
<polygon fill="midnightblue" stroke="midnightblue" points="147.563,-720.937 158.055,-722.405 150.768,-714.714 147.563,-720.937"/>
</g>
<!-- Node15 -->
<g id="node4" class="node"><title>Node15</title>
<g id="a_node4"><a xlink:href="group__sam__drivers__usart__group.xhtml#gaa3a3c3eb673f70359570302dcf1a5b6a" target="_top" xlink:title="Disable USART interrupts. ">
<polygon fill="white" stroke="black" points="300,-665.5 300,-684.5 415,-684.5 415,-665.5 300,-665.5"/>
<text text-anchor="middle" x="357.5" y="-672.5" font-family="Helvetica,sans-Serif" font-size="10.00">usart_disable_interrupt</text>
</a>
</g>
</g>
<!-- Node12&#45;&gt;Node15 -->
<g id="edge3" class="edge"><title>Node12&#45;&gt;Node15</title>
<path fill="none" stroke="midnightblue" d="M52.8618,-399.692C59.5248,-445.58 90.2711,-640.232 137,-675 189.837,-714.312 271.368,-700.547 318.773,-687.451"/>
<polygon fill="midnightblue" stroke="midnightblue" points="319.997,-690.741 328.632,-684.601 318.053,-684.016 319.997,-690.741"/>
</g>
<!-- Node16 -->
<g id="node5" class="node"><title>Node16</title>
<g id="a_node5"><a xlink:href="freertos__usart__serial_8c.xhtml#a53cee58d461e19378a8453e89d52424f" target="_top" xlink:title="configure_rx_dma">
<polygon fill="white" stroke="red" points="154,-646.5 154,-665.5 247,-665.5 247,-646.5 154,-646.5"/>
<text text-anchor="middle" x="200.5" y="-653.5" font-family="Helvetica,sans-Serif" font-size="10.00">configure_rx_dma</text>
</a>
</g>
</g>
<!-- Node12&#45;&gt;Node16 -->
<g id="edge4" class="edge"><title>Node12&#45;&gt;Node16</title>
<path fill="none" stroke="midnightblue" d="M51.8549,-399.668C53.7325,-436.317 65.4021,-568.081 137,-637 139.41,-639.32 142.095,-641.358 144.959,-643.148"/>
<polygon fill="midnightblue" stroke="midnightblue" points="143.501,-646.334 153.993,-647.806 146.709,-640.112 143.501,-646.334"/>
</g>
<!-- Node20 -->
<g id="node6" class="node"><title>Node20</title>
<g id="a_node6"><a xlink:href="group__sam__drivers__usart__group.xhtml#ga21b61657bfa8bc395dd4c5f05f531788" target="_top" xlink:title="Start waiting for a character before clocking the timeout count. ">
<polygon fill="white" stroke="black" points="143.5,-608.5 143.5,-627.5 257.5,-627.5 257.5,-608.5 143.5,-608.5"/>
<text text-anchor="middle" x="200.5" y="-615.5" font-family="Helvetica,sans-Serif" font-size="10.00">usart_start_rx_timeout</text>
</a>
</g>
</g>
<!-- Node12&#45;&gt;Node20 -->
<g id="edge6" class="edge"><title>Node12&#45;&gt;Node20</title>
<path fill="none" stroke="midnightblue" d="M52.5248,-399.537C56.5683,-432.39 74.3983,-541.977 137,-599 138.737,-600.582 140.602,-602.033 142.564,-603.363"/>
<polygon fill="midnightblue" stroke="midnightblue" points="141.242,-606.633 151.679,-608.455 144.656,-600.522 141.242,-606.633"/>
</g>
<!-- Node21 -->
<g id="node7" class="node"><title>Node21</title>
<g id="a_node7"><a xlink:href="group__sam__drivers__usart__group.xhtml#ga4e19efeb524c1fba4b962e72283dcc11" target="_top" xlink:title="Reset status bits (PARE, OVER, MANERR, UNRE and PXBRK in US_CSR). ">
<polygon fill="white" stroke="black" points="151.5,-570.5 151.5,-589.5 249.5,-589.5 249.5,-570.5 151.5,-570.5"/>
<text text-anchor="middle" x="200.5" y="-577.5" font-family="Helvetica,sans-Serif" font-size="10.00">usart_reset_status</text>
</a>
</g>
</g>
<!-- Node12&#45;&gt;Node21 -->
<g id="edge7" class="edge"><title>Node12&#45;&gt;Node21</title>
<path fill="none" stroke="midnightblue" d="M53.5362,-399.806C60.1032,-428.951 83.486,-515.822 137,-561 139.009,-562.696 141.168,-564.241 143.431,-565.648"/>
<polygon fill="midnightblue" stroke="midnightblue" points="142.106,-568.904 152.591,-570.42 145.34,-562.696 142.106,-568.904"/>
</g>
<!-- Node22 -->
<g id="node8" class="node"><title>Node22</title>
<g id="a_node8"><a xlink:href="group___s_a_m_g55_g19__cmsis.xhtml#ga6fa7b2ff2f5ea1ada449701de69740b8" target="_top" xlink:title="FLEXCOM0_Handler">
<polygon fill="white" stroke="black" points="147.5,-532.5 147.5,-551.5 253.5,-551.5 253.5,-532.5 147.5,-532.5"/>
<text text-anchor="middle" x="200.5" y="-539.5" font-family="Helvetica,sans-Serif" font-size="10.00">FLEXCOM0_Handler</text>
</a>
</g>
</g>
<!-- Node12&#45;&gt;Node22 -->
<g id="edge8" class="edge"><title>Node12&#45;&gt;Node22</title>
<path fill="none" stroke="midnightblue" d="M54.9832,-399.692C64.2874,-424.193 92.1104,-489.066 137,-523 139.498,-524.888 142.184,-526.59 144.988,-528.124"/>
<polygon fill="midnightblue" stroke="midnightblue" points="143.724,-531.397 154.264,-532.473 146.696,-525.059 143.724,-531.397"/>
</g>
<!-- Node23 -->
<g id="node9" class="node"><title>Node23</title>
<g id="a_node9"><a xlink:href="group___s_a_m_g55_g19__cmsis.xhtml#gab0d701b336b33466d9b93ae91719d065" target="_top" xlink:title="FLEXCOM1_Handler">
<polygon fill="white" stroke="black" points="147.5,-494.5 147.5,-513.5 253.5,-513.5 253.5,-494.5 147.5,-494.5"/>
<text text-anchor="middle" x="200.5" y="-501.5" font-family="Helvetica,sans-Serif" font-size="10.00">FLEXCOM1_Handler</text>
</a>
</g>
</g>
<!-- Node12&#45;&gt;Node23 -->
<g id="edge9" class="edge"><title>Node12&#45;&gt;Node23</title>
<path fill="none" stroke="midnightblue" d="M57.5315,-399.655C69.9931,-418.812 100.492,-461.777 137,-485 140.297,-487.097 143.838,-488.974 147.499,-490.652"/>
<polygon fill="midnightblue" stroke="midnightblue" points="146.19,-493.898 156.772,-494.425 148.828,-487.414 146.19,-493.898"/>
</g>
<!-- Node24 -->
<g id="node10" class="node"><title>Node24</title>
<g id="a_node10"><a xlink:href="group___s_a_m_g55_g19__cmsis.xhtml#ga51d2dedfea8413b19e4df385814f8f2f" target="_top" xlink:title="FLEXCOM2_Handler">
<polygon fill="white" stroke="black" points="147.5,-456.5 147.5,-475.5 253.5,-475.5 253.5,-456.5 147.5,-456.5"/>
<text text-anchor="middle" x="200.5" y="-463.5" font-family="Helvetica,sans-Serif" font-size="10.00">FLEXCOM2_Handler</text>
</a>
</g>
</g>
<!-- Node12&#45;&gt;Node24 -->
<g id="edge10" class="edge"><title>Node12&#45;&gt;Node24</title>
<path fill="none" stroke="midnightblue" d="M63.2851,-399.501C79.1844,-411.921 108.775,-433.658 137,-447 141.749,-449.245 146.824,-451.299 151.954,-453.158"/>
<polygon fill="midnightblue" stroke="midnightblue" points="151.218,-456.604 161.812,-456.492 153.461,-449.973 151.218,-456.604"/>
</g>
<!-- Node25 -->
<g id="node11" class="node"><title>Node25</title>
<g id="a_node11"><a xlink:href="group___s_a_m_g55_g19__cmsis.xhtml#ga96c72159358bb1a33d7f4204ff92dfca" target="_top" xlink:title="FLEXCOM3_Handler">
<polygon fill="white" stroke="black" points="147.5,-418.5 147.5,-437.5 253.5,-437.5 253.5,-418.5 147.5,-418.5"/>
<text text-anchor="middle" x="200.5" y="-425.5" font-family="Helvetica,sans-Serif" font-size="10.00">FLEXCOM3_Handler</text>
</a>
</g>
</g>
<!-- Node12&#45;&gt;Node25 -->
<g id="edge11" class="edge"><title>Node12&#45;&gt;Node25</title>
<path fill="none" stroke="midnightblue" d="M88.8466,-399.589C108.201,-404.558 132.03,-410.677 152.613,-415.961"/>
<polygon fill="midnightblue" stroke="midnightblue" points="151.866,-419.383 162.422,-418.48 153.607,-412.603 151.866,-419.383"/>
</g>
<!-- Node26 -->
<g id="node12" class="node"><title>Node26</title>
<g id="a_node12"><a xlink:href="group___s_a_m_g55_g19__cmsis.xhtml#gaee06bddb830387c1d55203e590d19bc5" target="_top" xlink:title="FLEXCOM4_Handler">
<polygon fill="white" stroke="black" points="147.5,-380.5 147.5,-399.5 253.5,-399.5 253.5,-380.5 147.5,-380.5"/>
<text text-anchor="middle" x="200.5" y="-387.5" font-family="Helvetica,sans-Serif" font-size="10.00">FLEXCOM4_Handler</text>
</a>
</g>
</g>
<!-- Node12&#45;&gt;Node26 -->
<g id="edge12" class="edge"><title>Node12&#45;&gt;Node26</title>
<path fill="none" stroke="midnightblue" d="M101.194,-390C112.806,-390 125.316,-390 137.393,-390"/>
<polygon fill="midnightblue" stroke="midnightblue" points="137.406,-393.5 147.406,-390 137.406,-386.5 137.406,-393.5"/>
</g>
<!-- Node27 -->
<g id="node13" class="node"><title>Node27</title>
<g id="a_node13"><a xlink:href="group___s_a_m_g55_g19__cmsis.xhtml#gadd2684a2421766f0308dbfae60b9aec6" target="_top" xlink:title="FLEXCOM5_Handler">
<polygon fill="white" stroke="black" points="147.5,-342.5 147.5,-361.5 253.5,-361.5 253.5,-342.5 147.5,-342.5"/>
<text text-anchor="middle" x="200.5" y="-349.5" font-family="Helvetica,sans-Serif" font-size="10.00">FLEXCOM5_Handler</text>
</a>
</g>
</g>
<!-- Node12&#45;&gt;Node27 -->
<g id="edge13" class="edge"><title>Node12&#45;&gt;Node27</title>
<path fill="none" stroke="midnightblue" d="M88.8466,-380.411C108.201,-375.442 132.03,-369.323 152.613,-364.039"/>
<polygon fill="midnightblue" stroke="midnightblue" points="153.607,-367.397 162.422,-361.52 151.866,-360.617 153.607,-367.397"/>
</g>
<!-- Node28 -->
<g id="node14" class="node"><title>Node28</title>
<g id="a_node14"><a xlink:href="group___s_a_m_g55_g19__cmsis.xhtml#ga09c085816df974d39c6559ef595af9fa" target="_top" xlink:title="FLEXCOM6_Handler">
<polygon fill="white" stroke="black" points="147.5,-304.5 147.5,-323.5 253.5,-323.5 253.5,-304.5 147.5,-304.5"/>
<text text-anchor="middle" x="200.5" y="-311.5" font-family="Helvetica,sans-Serif" font-size="10.00">FLEXCOM6_Handler</text>
</a>
</g>
</g>
<!-- Node12&#45;&gt;Node28 -->
<g id="edge14" class="edge"><title>Node12&#45;&gt;Node28</title>
<path fill="none" stroke="midnightblue" d="M63.2851,-380.499C79.1844,-368.079 108.775,-346.342 137,-333 141.749,-330.755 146.824,-328.701 151.954,-326.842"/>
<polygon fill="midnightblue" stroke="midnightblue" points="153.461,-330.027 161.812,-323.508 151.218,-323.396 153.461,-330.027"/>
</g>
<!-- Node29 -->
<g id="node15" class="node"><title>Node29</title>
<g id="a_node15"><a xlink:href="group___s_a_m_g55_j19__cmsis.xhtml#ga184f75b0f3b07788b9dde5a2c7cc6cd0" target="_top" xlink:title="FLEXCOM7_Handler">
<polygon fill="white" stroke="black" points="147.5,-266.5 147.5,-285.5 253.5,-285.5 253.5,-266.5 147.5,-266.5"/>
<text text-anchor="middle" x="200.5" y="-273.5" font-family="Helvetica,sans-Serif" font-size="10.00">FLEXCOM7_Handler</text>
</a>
</g>
</g>
<!-- Node12&#45;&gt;Node29 -->
<g id="edge15" class="edge"><title>Node12&#45;&gt;Node29</title>
<path fill="none" stroke="midnightblue" d="M57.5315,-380.345C69.9931,-361.188 100.492,-318.223 137,-295 140.297,-292.903 143.838,-291.026 147.499,-289.348"/>
<polygon fill="midnightblue" stroke="midnightblue" points="148.828,-292.586 156.772,-285.575 146.19,-286.102 148.828,-292.586"/>
</g>
<!-- Node30 -->
<g id="node16" class="node"><title>Node30</title>
<g id="a_node16"><a xlink:href="group___s_a_m_g55_g18__cmsis.xhtml#gaa2d1b90cebab6c82cf77533691d52483" target="_top" xlink:title="USART0_Handler">
<polygon fill="white" stroke="black" points="154.5,-228.5 154.5,-247.5 246.5,-247.5 246.5,-228.5 154.5,-228.5"/>
<text text-anchor="middle" x="200.5" y="-235.5" font-family="Helvetica,sans-Serif" font-size="10.00">USART0_Handler</text>
</a>
</g>
</g>
<!-- Node12&#45;&gt;Node30 -->
<g id="edge16" class="edge"><title>Node12&#45;&gt;Node30</title>
<path fill="none" stroke="midnightblue" d="M54.9832,-380.308C64.2874,-355.807 92.1104,-290.934 137,-257 139.498,-255.112 142.184,-253.41 144.988,-251.876"/>
<polygon fill="midnightblue" stroke="midnightblue" points="146.696,-254.941 154.264,-247.527 143.724,-248.603 146.696,-254.941"/>
</g>
<!-- Node31 -->
<g id="node17" class="node"><title>Node31</title>
<g id="a_node17"><a xlink:href="group___s_a_m_g55_g18__cmsis.xhtml#ga89d1f7ca6d3e03bd3da5e1c64a2d63a3" target="_top" xlink:title="USART1_Handler">
<polygon fill="white" stroke="black" points="154.5,-190.5 154.5,-209.5 246.5,-209.5 246.5,-190.5 154.5,-190.5"/>
<text text-anchor="middle" x="200.5" y="-197.5" font-family="Helvetica,sans-Serif" font-size="10.00">USART1_Handler</text>
</a>
</g>
</g>
<!-- Node12&#45;&gt;Node31 -->
<g id="edge17" class="edge"><title>Node12&#45;&gt;Node31</title>
<path fill="none" stroke="midnightblue" d="M53.5362,-380.194C60.1032,-351.049 83.486,-264.178 137,-219 139.513,-216.878 142.259,-214.994 145.152,-213.319"/>
<polygon fill="midnightblue" stroke="midnightblue" points="146.744,-216.437 154.191,-208.901 143.67,-210.148 146.744,-216.437"/>
</g>
<!-- Node32 -->
<g id="node18" class="node"><title>Node32</title>
<g id="a_node18"><a xlink:href="group___s_a_m_g55_g18__cmsis.xhtml#ga9cdfc4b7e9c04496ed8c4675e567e24c" target="_top" xlink:title="USART2_Handler">
<polygon fill="white" stroke="black" points="154.5,-152.5 154.5,-171.5 246.5,-171.5 246.5,-152.5 154.5,-152.5"/>
<text text-anchor="middle" x="200.5" y="-159.5" font-family="Helvetica,sans-Serif" font-size="10.00">USART2_Handler</text>
</a>
</g>
</g>
<!-- Node12&#45;&gt;Node32 -->
<g id="edge18" class="edge"><title>Node12&#45;&gt;Node32</title>
<path fill="none" stroke="midnightblue" d="M52.5248,-380.463C56.5683,-347.61 74.3983,-238.023 137,-181 139.473,-178.747 142.207,-176.761 145.107,-175.01"/>
<polygon fill="midnightblue" stroke="midnightblue" points="146.853,-178.05 154.217,-170.433 143.71,-171.795 146.853,-178.05"/>
</g>
<!-- Node33 -->
<g id="node19" class="node"><title>Node33</title>
<g id="a_node19"><a xlink:href="group___s_a_m_g55_g18__cmsis.xhtml#ga9dc5cff7a328a5d2f2ab275325e6acca" target="_top" xlink:title="USART3_Handler">
<polygon fill="white" stroke="black" points="154.5,-114.5 154.5,-133.5 246.5,-133.5 246.5,-114.5 154.5,-114.5"/>
<text text-anchor="middle" x="200.5" y="-121.5" font-family="Helvetica,sans-Serif" font-size="10.00">USART3_Handler</text>
</a>
</g>
</g>
<!-- Node12&#45;&gt;Node33 -->
<g id="edge19" class="edge"><title>Node12&#45;&gt;Node33</title>
<path fill="none" stroke="midnightblue" d="M51.8549,-380.332C53.7325,-343.683 65.4021,-211.919 137,-143 139.528,-140.567 142.357,-138.444 145.379,-136.593"/>
<polygon fill="midnightblue" stroke="midnightblue" points="146.978,-139.706 154.311,-132.06 143.81,-133.464 146.978,-139.706"/>
</g>
<!-- Node34 -->
<g id="node20" class="node"><title>Node34</title>
<g id="a_node20"><a xlink:href="group___s_a_m_g55_g18__cmsis.xhtml#ga43cefeb65a1dd67ee5962862dede81bf" target="_top" xlink:title="USART4_Handler">
<polygon fill="white" stroke="black" points="154.5,-76.5 154.5,-95.5 246.5,-95.5 246.5,-76.5 154.5,-76.5"/>
<text text-anchor="middle" x="200.5" y="-83.5" font-family="Helvetica,sans-Serif" font-size="10.00">USART4_Handler</text>
</a>
</g>
</g>
<!-- Node12&#45;&gt;Node34 -->
<g id="edge20" class="edge"><title>Node12&#45;&gt;Node34</title>
<path fill="none" stroke="midnightblue" d="M51.3397,-380.283C51.2247,-340.207 56.2399,-186.057 137,-105 139.518,-102.473 142.36,-100.28 145.41,-98.3776"/>
<polygon fill="midnightblue" stroke="midnightblue" points="147.148,-101.42 154.454,-93.7473 143.958,-95.189 147.148,-101.42"/>
</g>
<!-- Node35 -->
<g id="node21" class="node"><title>Node35</title>
<g id="a_node21"><a xlink:href="group___s_a_m_g55_g18__cmsis.xhtml#ga490a25ee23c1570269536ca70b108a0f" target="_top" xlink:title="USART5_Handler">
<polygon fill="white" stroke="black" points="154.5,-38.5 154.5,-57.5 246.5,-57.5 246.5,-38.5 154.5,-38.5"/>
<text text-anchor="middle" x="200.5" y="-45.5" font-family="Helvetica,sans-Serif" font-size="10.00">USART5_Handler</text>
</a>
</g>
</g>
<!-- Node12&#45;&gt;Node35 -->
<g id="edge21" class="edge"><title>Node12&#45;&gt;Node35</title>
<path fill="none" stroke="midnightblue" d="M52.7836,-380.329C59.4197,-331.703 91.2988,-114.393 137,-67 139.476,-64.4323 142.287,-62.2087 145.314,-60.2834"/>
<polygon fill="midnightblue" stroke="midnightblue" points="147.052,-63.3246 154.313,-55.6096 143.826,-57.1123 147.052,-63.3246"/>
</g>
<!-- Node36 -->
<g id="node22" class="node"><title>Node36</title>
<g id="a_node22"><a xlink:href="group___s_a_m_g55_g18__cmsis.xhtml#ga2f5c380683c929ef23c7ec0c5e2aab45" target="_top" xlink:title="USART6_Handler">
<polygon fill="white" stroke="black" points="154.5,-0.5 154.5,-19.5 246.5,-19.5 246.5,-0.5 154.5,-0.5"/>
<text text-anchor="middle" x="200.5" y="-7.5" font-family="Helvetica,sans-Serif" font-size="10.00">USART6_Handler</text>
</a>
</g>
</g>
<!-- Node12&#45;&gt;Node36 -->
<g id="edge22" class="edge"><title>Node12&#45;&gt;Node36</title>
<path fill="none" stroke="midnightblue" d="M52.5038,-380.255C58.0587,-328.13 86.6201,-82.6348 137,-29 139.442,-26.4 142.228,-24.1521 145.235,-22.209"/>
<polygon fill="midnightblue" stroke="midnightblue" points="146.974,-25.2495 154.199,-17.5008 143.718,-19.0524 146.974,-25.2495"/>
</g>
<!-- Node16&#45;&gt;Node15 -->
<g id="edge5" class="edge"><title>Node16&#45;&gt;Node15</title>
<path fill="none" stroke="midnightblue" d="M247.167,-661.598C260.46,-663.227 275.267,-665.042 289.582,-666.797"/>
<polygon fill="midnightblue" stroke="midnightblue" points="289.539,-670.318 299.89,-668.061 290.391,-663.37 289.539,-670.318"/>
</g>
</g>
</svg>
