<?xml version="1.0" encoding="UTF-8" standalone="no"?>
<!DOCTYPE svg PUBLIC "-//W3C//DTD SVG 1.1//EN"
 "http://www.w3.org/Graphics/SVG/1.1/DTD/svg11.dtd">
<!-- Generated by graphviz version 2.38.0 (20140413.2041)
 -->
<!-- Title: configure_interrupt_controller Pages: 1 -->
<svg width="259pt" height="104pt"
 viewBox="0.00 0.00 259.00 104.00" xmlns="http://www.w3.org/2000/svg" xmlns:xlink="http://www.w3.org/1999/xlink">
<g id="graph0" class="graph" transform="scale(1 1) rotate(0) translate(4 100)">
<title>configure_interrupt_controller</title>
<polygon fill="white" stroke="none" points="-4,4 -4,-100 255,-100 255,4 -4,4"/>
<!-- Node6 -->
<g id="node1" class="node"><title>Node6</title>
<polygon fill="#bfbfbf" stroke="black" points="0,-33 0,-63 96,-63 96,-33 0,-33"/>
<text text-anchor="start" x="8" y="-51" font-family="Helvetica,sans-Serif" font-size="10.00">configure_interrupt</text>
<text text-anchor="middle" x="48" y="-40" font-family="Helvetica,sans-Serif" font-size="10.00">_controller</text>
</g>
<!-- Node7 -->
<g id="node2" class="node"><title>Node7</title>
<g id="a_node2"><a xlink:href="group___c_m_s_i_s___core___n_v_i_c_functions.xhtml#ga332e10ef9605dc6eb10b9e14511930f8" target="_top" xlink:title="Clear Pending Interrupt. ">
<polygon fill="white" stroke="black" points="132,-76.5 132,-95.5 251,-95.5 251,-76.5 132,-76.5"/>
<text text-anchor="middle" x="191.5" y="-83.5" font-family="Helvetica,sans-Serif" font-size="10.00">NVIC_ClearPendingIRQ</text>
</a>
</g>
</g>
<!-- Node6&#45;&gt;Node7 -->
<g id="edge1" class="edge"><title>Node6&#45;&gt;Node7</title>
<path fill="none" stroke="midnightblue" d="M96.1175,-60.6534C111.813,-64.8686 129.263,-69.5546 144.846,-73.7395"/>
<polygon fill="midnightblue" stroke="midnightblue" points="144.214,-77.1937 154.779,-76.4072 146.029,-70.4332 144.214,-77.1937"/>
</g>
<!-- Node8 -->
<g id="node3" class="node"><title>Node8</title>
<g id="a_node3"><a xlink:href="group___c_m_s_i_s___core___n_v_i_c_functions.xhtml#ga2305cbd44aaad792e3a4e538bdaf14f9" target="_top" xlink:title="Set Interrupt Priority. ">
<polygon fill="white" stroke="black" points="146.5,-38.5 146.5,-57.5 236.5,-57.5 236.5,-38.5 146.5,-38.5"/>
<text text-anchor="middle" x="191.5" y="-45.5" font-family="Helvetica,sans-Serif" font-size="10.00">NVIC_SetPriority</text>
</a>
</g>
</g>
<!-- Node6&#45;&gt;Node8 -->
<g id="edge2" class="edge"><title>Node6&#45;&gt;Node8</title>
<path fill="none" stroke="midnightblue" d="M96.1175,-48C108.932,-48 122.915,-48 136.096,-48"/>
<polygon fill="midnightblue" stroke="midnightblue" points="136.459,-51.5001 146.459,-48 136.459,-44.5001 136.459,-51.5001"/>
</g>
<!-- Node9 -->
<g id="node4" class="node"><title>Node9</title>
<g id="a_node4"><a xlink:href="group___c_m_s_i_s___core___n_v_i_c_functions.xhtml#ga3349f2e3580d7ce22d6530b7294e5921" target="_top" xlink:title="Enable External Interrupt. ">
<polygon fill="white" stroke="black" points="146,-0.5 146,-19.5 237,-19.5 237,-0.5 146,-0.5"/>
<text text-anchor="middle" x="191.5" y="-7.5" font-family="Helvetica,sans-Serif" font-size="10.00">NVIC_EnableIRQ</text>
</a>
</g>
</g>
<!-- Node6&#45;&gt;Node9 -->
<g id="edge3" class="edge"><title>Node6&#45;&gt;Node9</title>
<path fill="none" stroke="midnightblue" d="M96.1175,-35.3466C111.813,-31.1314 129.263,-26.4454 144.846,-22.2605"/>
<polygon fill="midnightblue" stroke="midnightblue" points="146.029,-25.5668 154.779,-19.5928 144.214,-18.8063 146.029,-25.5668"/>
</g>
</g>
</svg>
