<?xml version="1.0" encoding="UTF-8" standalone="no"?>
<!DOCTYPE svg PUBLIC "-//W3C//DTD SVG 1.1//EN"
 "http://www.w3.org/Graphics/SVG/1.1/DTD/svg11.dtd">
<!-- Generated by graphviz version 2.38.0 (20140413.2041)
 -->
<!-- Title: SAMG55G19 definitions Pages: 1 -->
<svg width="307pt" height="230pt"
 viewBox="0.00 0.00 307.00 230.00" xmlns="http://www.w3.org/2000/svg" xmlns:xlink="http://www.w3.org/1999/xlink">
<g id="graph0" class="graph" transform="scale(1 1) rotate(0) translate(4 226)">
<title>SAMG55G19 definitions</title>
<polygon fill="white" stroke="none" points="-4,4 -4,-226 303,-226 303,4 -4,4"/>
<!-- Node1 -->
<g id="node1" class="node"><title>Node1</title>
<g id="a_node1"><a xlink:href="group___s_a_m_g55_g19__cmsis.xhtml" target="_top" xlink:title="CMSIS Definitions">
<polygon fill="white" stroke="black" points="180.5,-202.5 180.5,-221.5 275.5,-221.5 275.5,-202.5 180.5,-202.5"/>
<text text-anchor="middle" x="228" y="-209.5" font-family="Helvetica,sans-Serif" font-size="10.00">CMSIS Definitions</text>
</a>
</g>
</g>
<!-- Node5 -->
<g id="node2" class="node"><title>Node5</title>
<g id="a_node2"><a xlink:href="group___s_a_m_g55_g19__base.xhtml" target="_top" xlink:title="Peripheral Base Address\l Definitions">
<polygon fill="white" stroke="black" points="165.5,-153 165.5,-183 290.5,-183 290.5,-153 165.5,-153"/>
<text text-anchor="start" x="173.5" y="-171" font-family="Helvetica,sans-Serif" font-size="10.00">Peripheral Base Address</text>
<text text-anchor="middle" x="228" y="-160" font-family="Helvetica,sans-Serif" font-size="10.00"> Definitions</text>
</a>
</g>
</g>
<!-- Node2 -->
<g id="node3" class="node"><title>Node2</title>
<g id="a_node3"><a xlink:href="group___s_a_m_g55_g19__api.xhtml" target="_top" xlink:title="SOFTWARE PERIPHERAL API DEFINITION FOR SAMG55G19. ">
<polygon fill="white" stroke="black" points="168.5,-114.5 168.5,-133.5 287.5,-133.5 287.5,-114.5 168.5,-114.5"/>
<text text-anchor="middle" x="228" y="-121.5" font-family="Helvetica,sans-Serif" font-size="10.00">Peripheral Software API</text>
</a>
</g>
</g>
<!-- Node6 -->
<g id="node4" class="node"><title>Node6</title>
<g id="a_node4"><a xlink:href="group___s_a_m_g55_g19__pio.xhtml" target="_top" xlink:title="Peripheral Pio Definitions">
<polygon fill="white" stroke="black" points="165.5,-76.5 165.5,-95.5 290.5,-95.5 290.5,-76.5 165.5,-76.5"/>
<text text-anchor="middle" x="228" y="-83.5" font-family="Helvetica,sans-Serif" font-size="10.00">Peripheral Pio Definitions</text>
</a>
</g>
</g>
<!-- Node4 -->
<g id="node5" class="node"><title>Node4</title>
<g id="a_node5"><a xlink:href="group___s_a_m_g55_g19__id.xhtml" target="_top" xlink:title="Peripheral Ids Definitions">
<polygon fill="white" stroke="black" points="166,-38.5 166,-57.5 290,-57.5 290,-38.5 166,-38.5"/>
<text text-anchor="middle" x="228" y="-45.5" font-family="Helvetica,sans-Serif" font-size="10.00">Peripheral Ids Definitions</text>
</a>
</g>
</g>
<!-- Node0 -->
<g id="node6" class="node"><title>Node0</title>
<polygon fill="#bfbfbf" stroke="black" points="0,-95.5 0,-114.5 121,-114.5 121,-95.5 0,-95.5"/>
<text text-anchor="middle" x="60.5" y="-102.5" font-family="Helvetica,sans-Serif" font-size="10.00">SAMG55G19 definitions</text>
</g>
<!-- Node0&#45;&gt;Node1 -->
<g id="edge1" class="edge"><title>Node0&#45;&gt;Node1</title>
<path fill="none" stroke="black" d="M75.5753,-122.242C92.7589,-142.172 123.675,-174.586 157,-193 164.164,-196.959 172.203,-200.132 180.211,-202.663"/>
<polygon fill="black" stroke="black" points="78.2059,-119.932 69.0847,-114.542 72.8537,-124.444 78.2059,-119.932"/>
</g>
<!-- Node0&#45;&gt;Node5 -->
<g id="edge5" class="edge"><title>Node0&#45;&gt;Node5</title>
<path fill="none" stroke="black" d="M94.3354,-118.401C112.705,-125.813 136.056,-135.096 157,-143 165.693,-146.281 175.033,-149.693 183.969,-152.905"/>
<polygon fill="black" stroke="black" points="95.5396,-115.112 84.957,-114.604 92.9131,-121.601 95.5396,-115.112"/>
</g>
<!-- Node0&#45;&gt;Node2 -->
<g id="edge2" class="edge"><title>Node0&#45;&gt;Node2</title>
<path fill="none" stroke="black" d="M131.476,-113.034C143.788,-114.447 156.487,-115.905 168.447,-117.278"/>
<polygon fill="black" stroke="black" points="131.583,-109.523 121.249,-111.859 130.785,-116.477 131.583,-109.523"/>
</g>
<!-- Node0&#45;&gt;Node6 -->
<g id="edge6" class="edge"><title>Node0&#45;&gt;Node6</title>
<path fill="none" stroke="black" d="M131.481,-96.966C142.747,-95.6725 154.337,-94.3419 165.389,-93.0732"/>
<polygon fill="black" stroke="black" points="130.785,-93.5228 121.249,-98.1406 131.583,-100.477 130.785,-93.5228"/>
</g>
<!-- Node0&#45;&gt;Node4 -->
<g id="edge4" class="edge"><title>Node0&#45;&gt;Node4</title>
<path fill="none" stroke="black" d="M93.001,-91.4184C111.459,-83.7249 135.333,-74.2252 157,-67 167.154,-63.614 178.282,-60.3819 188.618,-57.5747"/>
<polygon fill="black" stroke="black" points="91.4771,-88.2623 83.6182,-95.3678 94.1928,-94.7141 91.4771,-88.2623"/>
</g>
<!-- Node3 -->
<g id="node7" class="node"><title>Node3</title>
<g id="a_node7"><a xlink:href="group___s_a_m_g55_g19__reg.xhtml" target="_top" xlink:title="Registers Access Definitions">
<polygon fill="white" stroke="black" points="157,-0.5 157,-19.5 299,-19.5 299,-0.5 157,-0.5"/>
<text text-anchor="middle" x="228" y="-7.5" font-family="Helvetica,sans-Serif" font-size="10.00">Registers Access Definitions</text>
</a>
</g>
</g>
<!-- Node0&#45;&gt;Node3 -->
<g id="edge3" class="edge"><title>Node0&#45;&gt;Node3</title>
<path fill="none" stroke="black" d="M78.2298,-88.1078C96.2049,-70.8731 126.343,-44.5193 157,-29 164.527,-25.1895 172.909,-22.0721 181.183,-19.546"/>
<polygon fill="black" stroke="black" points="75.5668,-85.8167 70.8688,-95.313 80.4634,-90.8192 75.5668,-85.8167"/>
</g>
</g>
</svg>
