<?xml version="1.0" encoding="UTF-8" standalone="no"?>
<!DOCTYPE svg PUBLIC "-//W3C//DTD SVG 1.1//EN"
 "http://www.w3.org/Graphics/SVG/1.1/DTD/svg11.dtd">
<!-- Generated by graphviz version 2.38.0 (20140413.2041)
 -->
<!-- Title: pdc_rx_init Pages: 1 -->
<svg width="230pt" height="116pt"
 viewBox="0.00 0.00 230.00 115.50" xmlns="http://www.w3.org/2000/svg" xmlns:xlink="http://www.w3.org/1999/xlink">
<g id="graph0" class="graph" transform="scale(1 1) rotate(0) translate(4 111.5)">
<title>pdc_rx_init</title>
<polygon fill="white" stroke="none" points="-4,4 -4,-111.5 226,-111.5 226,4 -4,4"/>
<!-- Node39 -->
<g id="node1" class="node"><title>Node39</title>
<polygon fill="#bfbfbf" stroke="black" points="0,-38.5 0,-57.5 64,-57.5 64,-38.5 0,-38.5"/>
<text text-anchor="middle" x="32" y="-45.5" font-family="Helvetica,sans-Serif" font-size="10.00">pdc_rx_init</text>
</g>
<!-- Node40 -->
<g id="node2" class="node"><title>Node40</title>
<g id="a_node2"><a xlink:href="freertos__peripheral__control__private_8h.xhtml#ae9d7f15bbb38d058598cf29ee45c5b2a" target="_top" xlink:title="freertos_start_pdc\l_transfer">
<polygon fill="white" stroke="black" points="113.5,-77 113.5,-107 208.5,-107 208.5,-77 113.5,-77"/>
<text text-anchor="start" x="121.5" y="-95" font-family="Helvetica,sans-Serif" font-size="10.00">freertos_start_pdc</text>
<text text-anchor="middle" x="161" y="-84" font-family="Helvetica,sans-Serif" font-size="10.00">_transfer</text>
</a>
</g>
</g>
<!-- Node39&#45;&gt;Node40 -->
<g id="edge1" class="edge"><title>Node39&#45;&gt;Node40</title>
<path fill="none" stroke="midnightblue" d="M70.2006,-60.8884C84.7131,-65.9163 101.452,-71.7155 116.516,-76.9346"/>
<polygon fill="midnightblue" stroke="midnightblue" points="71.1519,-57.5139 60.5571,-57.5473 68.8603,-64.1282 71.1519,-57.5139"/>
</g>
<!-- Node41 -->
<g id="node3" class="node"><title>Node41</title>
<g id="a_node3"><a xlink:href="group__freertos__usart__peripheral__control__group.xhtml#ga09bccd303f0eafa482a0ffb56d0438b8" target="_top" xlink:title="Initializes the FreeRTOS ASF USART driver for the specified USART port. ">
<polygon fill="white" stroke="red" points="100,-38.5 100,-57.5 222,-57.5 222,-38.5 100,-38.5"/>
<text text-anchor="middle" x="161" y="-45.5" font-family="Helvetica,sans-Serif" font-size="10.00">freertos_usart_serial_init</text>
</a>
</g>
</g>
<!-- Node39&#45;&gt;Node41 -->
<g id="edge2" class="edge"><title>Node39&#45;&gt;Node41</title>
<path fill="none" stroke="midnightblue" d="M74.1554,-48C82.4021,-48 91.2251,-48 99.9605,-48"/>
<polygon fill="midnightblue" stroke="midnightblue" points="74.0677,-44.5001 64.0677,-48 74.0677,-51.5001 74.0677,-44.5001"/>
</g>
<!-- Node45 -->
<g id="node4" class="node"><title>Node45</title>
<g id="a_node4"><a xlink:href="freertos__usart__serial_8c.xhtml#a53cee58d461e19378a8453e89d52424f" target="_top" xlink:title="configure_rx_dma">
<polygon fill="white" stroke="red" points="114.5,-0.5 114.5,-19.5 207.5,-19.5 207.5,-0.5 114.5,-0.5"/>
<text text-anchor="middle" x="161" y="-7.5" font-family="Helvetica,sans-Serif" font-size="10.00">configure_rx_dma</text>
</a>
</g>
</g>
<!-- Node39&#45;&gt;Node45 -->
<g id="edge3" class="edge"><title>Node39&#45;&gt;Node45</title>
<path fill="none" stroke="midnightblue" d="M74.0068,-35.7302C91.4811,-30.5017 111.565,-24.4923 127.927,-19.5967"/>
<polygon fill="midnightblue" stroke="midnightblue" points="72.6447,-32.4844 64.0677,-38.7042 74.6514,-39.1906 72.6447,-32.4844"/>
</g>
</g>
</svg>
