<?xml version="1.0" encoding="UTF-8" standalone="no"?>
<!DOCTYPE svg PUBLIC "-//W3C//DTD SVG 1.1//EN"
 "http://www.w3.org/Graphics/SVG/1.1/DTD/svg11.dtd">
<!-- Generated by graphviz version 2.38.0 (20140413.2041)
 -->
<!-- Title: flexcom_set_opmode Pages: 1 -->
<svg width="275pt" height="66pt"
 viewBox="0.00 0.00 275.00 66.00" xmlns="http://www.w3.org/2000/svg" xmlns:xlink="http://www.w3.org/1999/xlink">
<g id="graph0" class="graph" transform="scale(1 1) rotate(0) translate(4 62)">
<title>flexcom_set_opmode</title>
<polygon fill="white" stroke="none" points="-4,4 -4,-62 271,-62 271,4 -4,4"/>
<!-- Node65 -->
<g id="node1" class="node"><title>Node65</title>
<polygon fill="#bfbfbf" stroke="black" points="0,-19.5 0,-38.5 109,-38.5 109,-19.5 0,-19.5"/>
<text text-anchor="middle" x="54.5" y="-26.5" font-family="Helvetica,sans-Serif" font-size="10.00">flexcom_set_opmode</text>
</g>
<!-- Node66 -->
<g id="node2" class="node"><title>Node66</title>
<g id="a_node2"><a xlink:href="group__freertos__usart__peripheral__control__group.xhtml#ga09bccd303f0eafa482a0ffb56d0438b8" target="_top" xlink:title="Initializes the FreeRTOS ASF USART driver for the specified USART port. ">
<polygon fill="white" stroke="red" points="145,-38.5 145,-57.5 267,-57.5 267,-38.5 145,-38.5"/>
<text text-anchor="middle" x="206" y="-45.5" font-family="Helvetica,sans-Serif" font-size="10.00">freertos_usart_serial_init</text>
</a>
</g>
</g>
<!-- Node65&#45;&gt;Node66 -->
<g id="edge1" class="edge"><title>Node65&#45;&gt;Node66</title>
<path fill="none" stroke="midnightblue" d="M119.026,-37.0736C127.628,-38.1667 136.432,-39.2856 144.969,-40.3707"/>
<polygon fill="midnightblue" stroke="midnightblue" points="119.412,-33.5945 109.051,-35.8058 118.53,-40.5387 119.412,-33.5945"/>
</g>
<!-- Node70 -->
<g id="node3" class="node"><title>Node70</title>
<g id="a_node3"><a xlink:href="uart__serial_8h.xhtml#a9b7530c23e7cf03a4542e50d276f677f" target="_top" xlink:title="Initializes the Usart in master mode. ">
<polygon fill="white" stroke="red" points="163.5,-0.5 163.5,-19.5 248.5,-19.5 248.5,-0.5 163.5,-0.5"/>
<text text-anchor="middle" x="206" y="-7.5" font-family="Helvetica,sans-Serif" font-size="10.00">usart_serial_init</text>
</a>
</g>
</g>
<!-- Node65&#45;&gt;Node70 -->
<g id="edge2" class="edge"><title>Node65&#45;&gt;Node70</title>
<path fill="none" stroke="midnightblue" d="M119.196,-20.9049C134.03,-19.0196 149.458,-17.0588 163.073,-15.3285"/>
<polygon fill="midnightblue" stroke="midnightblue" points="118.53,-17.4613 109.051,-22.1942 119.412,-24.4055 118.53,-17.4613"/>
</g>
</g>
</svg>
