<?xml version="1.0" encoding="UTF-8" standalone="no"?>
<!DOCTYPE svg PUBLIC "-//W3C//DTD SVG 1.1//EN"
 "http://www.w3.org/Graphics/SVG/1.1/DTD/svg11.dtd">
<!-- Generated by graphviz version 2.38.0 (20140413.2041)
 -->
<!-- Title: sysclk_disable_usb Pages: 1 -->
<svg width="408pt" height="53pt"
 viewBox="0.00 0.00 408.00 52.50" xmlns="http://www.w3.org/2000/svg" xmlns:xlink="http://www.w3.org/1999/xlink">
<g id="graph0" class="graph" transform="scale(1 1) rotate(0) translate(4 48.5)">
<title>sysclk_disable_usb</title>
<polygon fill="white" stroke="none" points="-4,4 -4,-48.5 404,-48.5 404,4 -4,4"/>
<!-- Node34 -->
<g id="node1" class="node"><title>Node34</title>
<polygon fill="#bfbfbf" stroke="black" points="0,-6 0,-25 102,-25 102,-6 0,-6"/>
<text text-anchor="middle" x="51" y="-13" font-family="Helvetica,sans-Serif" font-size="10.00">sysclk_disable_usb</text>
</g>
<!-- Node35 -->
<g id="node2" class="node"><title>Node35</title>
<g id="a_node2"><a xlink:href="group__sysclk__group.xhtml#gaaf2d50871a130ef8546cea34ed6ca6f8" target="_top" xlink:title="Change the source of the main system clock. ">
<polygon fill="white" stroke="black" points="138,-25 138,-44 236,-44 236,-25 138,-25"/>
<text text-anchor="middle" x="187" y="-32" font-family="Helvetica,sans-Serif" font-size="10.00">sysclk_set_source</text>
</a>
</g>
</g>
<!-- Node34&#45;&gt;Node35 -->
<g id="edge1" class="edge"><title>Node34&#45;&gt;Node35</title>
<path fill="none" stroke="midnightblue" d="M112.188,-24.0342C120.717,-25.2435 129.395,-26.474 137.661,-27.646"/>
<polygon fill="midnightblue" stroke="midnightblue" points="112.67,-20.5676 102.278,-22.629 111.687,-27.4982 112.67,-20.5676"/>
</g>
<!-- Node36 -->
<g id="node3" class="node"><title>Node36</title>
<g id="a_node3"><a xlink:href="group__sysclk__group.xhtml#ga3e73d81c9cb787a0239acf29327c3f11" target="_top" xlink:title="Disable a peripheral&#39;s clock. ">
<polygon fill="white" stroke="red" points="272,-0.5 272,-30.5 400,-30.5 400,-0.5 272,-0.5"/>
<text text-anchor="start" x="280" y="-18.5" font-family="Helvetica,sans-Serif" font-size="10.00">sysclk_disable_peripheral</text>
<text text-anchor="middle" x="336" y="-7.5" font-family="Helvetica,sans-Serif" font-size="10.00">_clock</text>
</a>
</g>
</g>
<!-- Node34&#45;&gt;Node36 -->
<g id="edge3" class="edge"><title>Node34&#45;&gt;Node36</title>
<path fill="none" stroke="midnightblue" d="M112.294,-15.5C159.225,-15.5 224.172,-15.5 271.821,-15.5"/>
<polygon fill="midnightblue" stroke="midnightblue" points="112.269,-12.0001 102.269,-15.5 112.269,-19.0001 112.269,-12.0001"/>
</g>
<!-- Node35&#45;&gt;Node36 -->
<g id="edge2" class="edge"><title>Node35&#45;&gt;Node36</title>
<path fill="none" stroke="midnightblue" d="M246.209,-26.9763C254.609,-25.8907 263.287,-24.769 271.779,-23.6714"/>
<polygon fill="midnightblue" stroke="midnightblue" points="245.602,-23.5256 236.133,-28.2787 246.499,-30.4679 245.602,-23.5256"/>
</g>
</g>
</svg>
