<?xml version="1.0" encoding="UTF-8" standalone="no"?>
<!DOCTYPE svg PUBLIC "-//W3C//DTD SVG 1.1//EN"
 "http://www.w3.org/Graphics/SVG/1.1/DTD/svg11.dtd">
<!-- Generated by graphviz version 2.38.0 (20140413.2041)
 -->
<!-- Title: arm_linear_interp_q7 Pages: 1 -->
<svg width="226pt" height="218pt"
 viewBox="0.00 0.00 226.00 218.00" xmlns="http://www.w3.org/2000/svg" xmlns:xlink="http://www.w3.org/1999/xlink">
<g id="graph0" class="graph" transform="scale(1 1) rotate(0) translate(4 214)">
<title>arm_linear_interp_q7</title>
<polygon fill="white" stroke="none" points="-4,4 -4,-214 222,-214 222,4 -4,4"/>
<!-- Node6 -->
<g id="node1" class="node"><title>Node6</title>
<polygon fill="#bfbfbf" stroke="black" points="0,-95.5 0,-114.5 107,-114.5 107,-95.5 0,-95.5"/>
<text text-anchor="middle" x="53.5" y="-102.5" font-family="Helvetica,sans-Serif" font-size="10.00">arm_linear_interp_q7</text>
</g>
<!-- Node7 -->
<g id="node2" class="node"><title>Node7</title>
<g id="a_node2"><a xlink:href="arm__math_8h.xhtml#ae164899c4a3fc0e946dc5d55555fe541" target="_top" xlink:title="end of LinearInterpolate group ">
<polygon fill="white" stroke="black" points="146,-190.5 146,-209.5 215,-209.5 215,-190.5 146,-190.5"/>
<text text-anchor="middle" x="180.5" y="-197.5" font-family="Helvetica,sans-Serif" font-size="10.00">arm_sin_f32</text>
</a>
</g>
</g>
<!-- Node6&#45;&gt;Node7 -->
<g id="edge1" class="edge"><title>Node6&#45;&gt;Node7</title>
<path fill="none" stroke="midnightblue" d="M64.2391,-114.699C79.9188,-129.994 112.134,-160.12 143,-181 145.252,-182.524 147.642,-184.014 150.078,-185.448"/>
<polygon fill="midnightblue" stroke="midnightblue" points="148.497,-188.573 158.942,-190.348 151.883,-182.447 148.497,-188.573"/>
</g>
<!-- Node8 -->
<g id="node3" class="node"><title>Node8</title>
<g id="a_node3"><a xlink:href="arm__math_8h.xhtml#a57aade7d8892585992cdc6375bd82f9c" target="_top" xlink:title="Fast approximation to the trigonometric sine function for Q31 data. ">
<polygon fill="white" stroke="black" points="144.5,-152.5 144.5,-171.5 216.5,-171.5 216.5,-152.5 144.5,-152.5"/>
<text text-anchor="middle" x="180.5" y="-159.5" font-family="Helvetica,sans-Serif" font-size="10.00">arm_sin_q31</text>
</a>
</g>
</g>
<!-- Node6&#45;&gt;Node8 -->
<g id="edge2" class="edge"><title>Node6&#45;&gt;Node8</title>
<path fill="none" stroke="midnightblue" d="M75.4222,-114.541C95.6122,-123.747 126.396,-137.785 149.253,-148.207"/>
<polygon fill="midnightblue" stroke="midnightblue" points="147.959,-151.464 158.51,-152.428 150.863,-145.095 147.959,-151.464"/>
</g>
<!-- Node9 -->
<g id="node4" class="node"><title>Node9</title>
<g id="a_node4"><a xlink:href="arm__math_8h.xhtml#a1fc6d6640be6cfa688a8bea0a48397ee" target="_top" xlink:title="Fast approximation to the trigonometric sine function for Q15 data. ">
<polygon fill="white" stroke="black" points="144.5,-114.5 144.5,-133.5 216.5,-133.5 216.5,-114.5 144.5,-114.5"/>
<text text-anchor="middle" x="180.5" y="-121.5" font-family="Helvetica,sans-Serif" font-size="10.00">arm_sin_q15</text>
</a>
</g>
</g>
<!-- Node6&#45;&gt;Node9 -->
<g id="edge3" class="edge"><title>Node6&#45;&gt;Node9</title>
<path fill="none" stroke="midnightblue" d="M107.149,-113.003C116.165,-114.373 125.461,-115.786 134.262,-117.124"/>
<polygon fill="midnightblue" stroke="midnightblue" points="133.907,-120.61 144.319,-118.653 134.959,-113.689 133.907,-120.61"/>
</g>
<!-- Node10 -->
<g id="node5" class="node"><title>Node10</title>
<g id="a_node5"><a xlink:href="arm__math_8h.xhtml#ace15287f9c64b9b4084d1c797d4c49d8" target="_top" xlink:title="Fast approximation to the trigonometric cosine function for floating&#45;point data. ">
<polygon fill="white" stroke="black" points="144.5,-76.5 144.5,-95.5 216.5,-95.5 216.5,-76.5 144.5,-76.5"/>
<text text-anchor="middle" x="180.5" y="-83.5" font-family="Helvetica,sans-Serif" font-size="10.00">arm_cos_f32</text>
</a>
</g>
</g>
<!-- Node6&#45;&gt;Node10 -->
<g id="edge4" class="edge"><title>Node6&#45;&gt;Node10</title>
<path fill="none" stroke="midnightblue" d="M107.149,-96.9974C116.165,-95.627 125.461,-94.2139 134.262,-92.8762"/>
<polygon fill="midnightblue" stroke="midnightblue" points="134.959,-96.3106 144.319,-91.3475 133.907,-89.39 134.959,-96.3106"/>
</g>
<!-- Node11 -->
<g id="node6" class="node"><title>Node11</title>
<g id="a_node6"><a xlink:href="arm__math_8h.xhtml#ad80f121949ef885a77d83ab36e002567" target="_top" xlink:title="Fast approximation to the trigonometric cosine function for Q31 data. ">
<polygon fill="white" stroke="black" points="143,-38.5 143,-57.5 218,-57.5 218,-38.5 143,-38.5"/>
<text text-anchor="middle" x="180.5" y="-45.5" font-family="Helvetica,sans-Serif" font-size="10.00">arm_cos_q31</text>
</a>
</g>
</g>
<!-- Node6&#45;&gt;Node11 -->
<g id="edge5" class="edge"><title>Node6&#45;&gt;Node11</title>
<path fill="none" stroke="midnightblue" d="M75.4222,-95.4595C95.6122,-86.2528 126.396,-72.2153 149.253,-61.7926"/>
<polygon fill="midnightblue" stroke="midnightblue" points="150.863,-64.9052 158.51,-57.5716 147.959,-58.5362 150.863,-64.9052"/>
</g>
<!-- Node12 -->
<g id="node7" class="node"><title>Node12</title>
<g id="a_node7"><a xlink:href="arm__math_8h.xhtml#adfd60c24def501638c0d5db20f4c869b" target="_top" xlink:title="Fast approximation to the trigonometric cosine function for Q15 data. ">
<polygon fill="white" stroke="black" points="143,-0.5 143,-19.5 218,-19.5 218,-0.5 143,-0.5"/>
<text text-anchor="middle" x="180.5" y="-7.5" font-family="Helvetica,sans-Serif" font-size="10.00">arm_cos_q15</text>
</a>
</g>
</g>
<!-- Node6&#45;&gt;Node12 -->
<g id="edge6" class="edge"><title>Node6&#45;&gt;Node12</title>
<path fill="none" stroke="midnightblue" d="M64.2391,-95.3012C79.9188,-80.0064 112.134,-49.8795 143,-29 145.252,-27.4764 147.642,-25.9859 150.078,-24.5523"/>
<polygon fill="midnightblue" stroke="midnightblue" points="151.883,-27.5533 158.942,-19.6521 148.497,-21.4271 151.883,-27.5533"/>
</g>
</g>
</svg>
