<?xml version="1.0" encoding="UTF-8" standalone="no"?>
<!DOCTYPE svg PUBLIC "-//W3C//DTD SVG 1.1//EN"
 "http://www.w3.org/Graphics/SVG/1.1/DTD/svg11.dtd">
<!-- Generated by graphviz version 2.38.0 (20140413.2041)
 -->
<!-- Title: pll_enable_source Pages: 1 -->
<svg width="269pt" height="104pt"
 viewBox="0.00 0.00 269.00 104.00" xmlns="http://www.w3.org/2000/svg" xmlns:xlink="http://www.w3.org/1999/xlink">
<g id="graph0" class="graph" transform="scale(1 1) rotate(0) translate(4 100)">
<title>pll_enable_source</title>
<polygon fill="white" stroke="none" points="-4,4 -4,-100 265,-100 265,4 -4,4"/>
<!-- Node54 -->
<g id="node1" class="node"><title>Node54</title>
<polygon fill="#bfbfbf" stroke="black" points="0,-38.5 0,-57.5 95,-57.5 95,-38.5 0,-38.5"/>
<text text-anchor="middle" x="47.5" y="-45.5" font-family="Helvetica,sans-Serif" font-size="10.00">pll_enable_source</text>
</g>
<!-- Node55 -->
<g id="node2" class="node"><title>Node55</title>
<g id="a_node2"><a xlink:href="group__pll__group.xhtml#ga6d2b476e97cb089063cb947f9337e647" target="_top" xlink:title="Enable the pll with the default configuration. ">
<polygon fill="white" stroke="red" points="131,-76.5 131,-95.5 261,-95.5 261,-76.5 131,-76.5"/>
<text text-anchor="middle" x="196" y="-83.5" font-family="Helvetica,sans-Serif" font-size="10.00">pll_enable_config_defaults</text>
</a>
</g>
</g>
<!-- Node54&#45;&gt;Node55 -->
<g id="edge1" class="edge"><title>Node54&#45;&gt;Node55</title>
<path fill="none" stroke="midnightblue" d="M95.1954,-60.1121C115.599,-65.4044 139.181,-71.5213 158.298,-76.4799"/>
<polygon fill="midnightblue" stroke="midnightblue" points="96.0266,-56.712 85.4681,-57.589 94.269,-63.4877 96.0266,-56.712"/>
</g>
<!-- Node58 -->
<g id="node3" class="node"><title>Node58</title>
<g id="a_node3"><a xlink:href="group__sysclk__group.xhtml#gaaf2d50871a130ef8546cea34ed6ca6f8" target="_top" xlink:title="Change the source of the main system clock. ">
<polygon fill="white" stroke="red" points="147,-38.5 147,-57.5 245,-57.5 245,-38.5 147,-38.5"/>
<text text-anchor="middle" x="196" y="-45.5" font-family="Helvetica,sans-Serif" font-size="10.00">sysclk_set_source</text>
</a>
</g>
</g>
<!-- Node54&#45;&gt;Node58 -->
<g id="edge2" class="edge"><title>Node54&#45;&gt;Node58</title>
<path fill="none" stroke="midnightblue" d="M105.532,-48C119.215,-48 133.694,-48 146.925,-48"/>
<polygon fill="midnightblue" stroke="midnightblue" points="105.256,-44.5001 95.2563,-48 105.256,-51.5001 105.256,-44.5001"/>
</g>
<!-- Node61 -->
<g id="node4" class="node"><title>Node61</title>
<g id="a_node4"><a xlink:href="group__sysclk__group.xhtml#ga242399e48a97739c88b4d0c00f6101de" target="_top" xlink:title="Initialize the synchronous clock system. ">
<polygon fill="white" stroke="red" points="164.5,-0.5 164.5,-19.5 227.5,-19.5 227.5,-0.5 164.5,-0.5"/>
<text text-anchor="middle" x="196" y="-7.5" font-family="Helvetica,sans-Serif" font-size="10.00">sysclk_init</text>
</a>
</g>
</g>
<!-- Node54&#45;&gt;Node61 -->
<g id="edge3" class="edge"><title>Node54&#45;&gt;Node61</title>
<path fill="none" stroke="midnightblue" d="M95.2335,-35.878C117.885,-30.0025 144.448,-23.1125 164.467,-17.9198"/>
<polygon fill="midnightblue" stroke="midnightblue" points="94.269,-32.5123 85.4681,-38.411 96.0266,-39.288 94.269,-32.5123"/>
</g>
</g>
</svg>
