<?xml version="1.0" encoding="UTF-8" standalone="no"?>
<!DOCTYPE svg PUBLIC "-//W3C//DTD SVG 1.1//EN"
 "http://www.w3.org/Graphics/SVG/1.1/DTD/svg11.dtd">
<!-- Generated by graphviz version 2.38.0 (20140413.2041)
 -->
<!-- Title: osc_is_ready Pages: 1 -->
<svg width="351pt" height="47pt"
 viewBox="0.00 0.00 351.00 47.00" xmlns="http://www.w3.org/2000/svg" xmlns:xlink="http://www.w3.org/1999/xlink">
<g id="graph0" class="graph" transform="scale(1 1) rotate(0) translate(4 43)">
<title>osc_is_ready</title>
<polygon fill="white" stroke="none" points="-4,4 -4,-43 347,-43 347,4 -4,4"/>
<!-- Node28 -->
<g id="node1" class="node"><title>Node28</title>
<polygon fill="#bfbfbf" stroke="black" points="0,-19.5 0,-38.5 74,-38.5 74,-19.5 0,-19.5"/>
<text text-anchor="middle" x="37" y="-26.5" font-family="Helvetica,sans-Serif" font-size="10.00">osc_is_ready</text>
</g>
<!-- Node29 -->
<g id="node2" class="node"><title>Node29</title>
<g id="a_node2"><a xlink:href="group__genclk__group.xhtml#gab3fb066ffd9812df1915794fc27216fb" target="_top" xlink:title="Enable the source clock src used by a generic clock. ">
<polygon fill="white" stroke="red" points="230,-19.5 230,-38.5 343,-38.5 343,-19.5 230,-19.5"/>
<text text-anchor="middle" x="286.5" y="-26.5" font-family="Helvetica,sans-Serif" font-size="10.00">genclk_enable_source</text>
</a>
</g>
</g>
<!-- Node28&#45;&gt;Node29 -->
<g id="edge1" class="edge"><title>Node28&#45;&gt;Node29</title>
<path fill="none" stroke="midnightblue" d="M84.3092,-29C125.575,-29 186.048,-29 229.913,-29"/>
<polygon fill="midnightblue" stroke="midnightblue" points="84.2537,-25.5001 74.2537,-29 84.2536,-32.5001 84.2537,-25.5001"/>
</g>
<!-- Node31 -->
<g id="node3" class="node"><title>Node31</title>
<g id="a_node3"><a xlink:href="group__osc__group.xhtml#gace890435e962b82472d3f918ea7b4c52" target="_top" xlink:title="Wait until the oscillator identified by id is ready. ">
<polygon fill="white" stroke="red" points="110,-0.5 110,-19.5 194,-19.5 194,-0.5 110,-0.5"/>
<text text-anchor="middle" x="152" y="-7.5" font-family="Helvetica,sans-Serif" font-size="10.00">osc_wait_ready</text>
</a>
</g>
</g>
<!-- Node28&#45;&gt;Node31 -->
<g id="edge2" class="edge"><title>Node28&#45;&gt;Node31</title>
<path fill="none" stroke="midnightblue" d="M84.1888,-21.2337C92.6631,-19.8089 101.458,-18.3301 109.775,-16.9317"/>
<polygon fill="midnightblue" stroke="midnightblue" points="83.3458,-17.8263 74.0646,-22.936 84.5065,-24.7294 83.3458,-17.8263"/>
</g>
<!-- Node31&#45;&gt;Node29 -->
<g id="edge3" class="edge"><title>Node31&#45;&gt;Node29</title>
<path fill="none" stroke="midnightblue" d="M204.192,-17.3408C212.555,-18.5399 221.255,-19.7876 229.722,-21.0017"/>
<polygon fill="midnightblue" stroke="midnightblue" points="204.593,-13.8625 194.198,-15.9076 203.599,-20.7917 204.593,-13.8625"/>
</g>
</g>
</svg>
