<?xml version="1.0" encoding="UTF-8" standalone="no"?>
<!DOCTYPE svg PUBLIC "-//W3C//DTD SVG 1.1//EN"
 "http://www.w3.org/Graphics/SVG/1.1/DTD/svg11.dtd">
<!-- Generated by graphviz version 2.38.0 (20140413.2041)
 -->
<!-- Title: usart_enable_tx Pages: 1 -->
<svg width="252pt" height="104pt"
 viewBox="0.00 0.00 252.00 104.00" xmlns="http://www.w3.org/2000/svg" xmlns:xlink="http://www.w3.org/1999/xlink">
<g id="graph0" class="graph" transform="scale(1 1) rotate(0) translate(4 100)">
<title>usart_enable_tx</title>
<polygon fill="white" stroke="none" points="-4,4 -4,-100 248,-100 248,4 -4,4"/>
<!-- Node85 -->
<g id="node1" class="node"><title>Node85</title>
<polygon fill="#bfbfbf" stroke="black" points="0,-38.5 0,-57.5 86,-57.5 86,-38.5 0,-38.5"/>
<text text-anchor="middle" x="43" y="-45.5" font-family="Helvetica,sans-Serif" font-size="10.00">usart_enable_tx</text>
</g>
<!-- Node86 -->
<g id="node2" class="node"><title>Node86</title>
<g id="a_node2"><a xlink:href="group__freertos__usart__peripheral__control__group.xhtml#ga09bccd303f0eafa482a0ffb56d0438b8" target="_top" xlink:title="Initializes the FreeRTOS ASF USART driver for the specified USART port. ">
<polygon fill="white" stroke="red" points="122,-76.5 122,-95.5 244,-95.5 244,-76.5 122,-76.5"/>
<text text-anchor="middle" x="183" y="-83.5" font-family="Helvetica,sans-Serif" font-size="10.00">freertos_usart_serial_init</text>
</a>
</g>
</g>
<!-- Node85&#45;&gt;Node86 -->
<g id="edge1" class="edge"><title>Node85&#45;&gt;Node86</title>
<path fill="none" stroke="midnightblue" d="M88.473,-60.2462C107.495,-65.484 129.375,-71.5091 147.188,-76.4141"/>
<polygon fill="midnightblue" stroke="midnightblue" points="89.3936,-56.8695 78.8232,-57.589 87.5352,-63.6183 89.3936,-56.8695"/>
</g>
<!-- Node90 -->
<g id="node3" class="node"><title>Node90</title>
<g id="a_node3"><a xlink:href="uart__serial_8h.xhtml#a9b7530c23e7cf03a4542e50d276f677f" target="_top" xlink:title="Initializes the Usart in master mode. ">
<polygon fill="white" stroke="red" points="140.5,-38.5 140.5,-57.5 225.5,-57.5 225.5,-38.5 140.5,-38.5"/>
<text text-anchor="middle" x="183" y="-45.5" font-family="Helvetica,sans-Serif" font-size="10.00">usart_serial_init</text>
</a>
</g>
</g>
<!-- Node85&#45;&gt;Node90 -->
<g id="edge2" class="edge"><title>Node85&#45;&gt;Node90</title>
<path fill="none" stroke="midnightblue" d="M96.4461,-48C110.883,-48 126.348,-48 140.104,-48"/>
<polygon fill="midnightblue" stroke="midnightblue" points="96.1544,-44.5001 86.1544,-48 96.1544,-51.5001 96.1544,-44.5001"/>
</g>
<!-- Node93 -->
<g id="node4" class="node"><title>Node93</title>
<g id="a_node4"><a xlink:href="group__group__sam__drivers__usart.xhtml#gaf42f05f73f1095fc7a2b28ebbf97bf4b" target="_top" xlink:title="Configure USART to work in SPI mode and act as a slave. ">
<polygon fill="white" stroke="black" points="132.5,-0.5 132.5,-19.5 233.5,-19.5 233.5,-0.5 132.5,-0.5"/>
<text text-anchor="middle" x="183" y="-7.5" font-family="Helvetica,sans-Serif" font-size="10.00">usart_init_spi_slave</text>
</a>
</g>
</g>
<!-- Node85&#45;&gt;Node93 -->
<g id="edge3" class="edge"><title>Node85&#45;&gt;Node93</title>
<path fill="none" stroke="midnightblue" d="M88.473,-35.7538C107.495,-30.516 129.375,-24.4909 147.188,-19.5859"/>
<polygon fill="midnightblue" stroke="midnightblue" points="87.5352,-32.3817 78.8232,-38.411 89.3936,-39.1305 87.5352,-32.3817"/>
</g>
</g>
</svg>
