<?xml version="1.0" encoding="UTF-8" standalone="no"?>
<!DOCTYPE svg PUBLIC "-//W3C//DTD SVG 1.1//EN"
 "http://www.w3.org/Graphics/SVG/1.1/DTD/svg11.dtd">
<!-- Generated by graphviz version 2.38.0 (20140413.2041)
 -->
<!-- Title: sysclk_enable_usb Pages: 1 -->
<svg width="406pt" height="53pt"
 viewBox="0.00 0.00 406.00 52.50" xmlns="http://www.w3.org/2000/svg" xmlns:xlink="http://www.w3.org/1999/xlink">
<g id="graph0" class="graph" transform="scale(1 1) rotate(0) translate(4 48.5)">
<title>sysclk_enable_usb</title>
<polygon fill="white" stroke="none" points="-4,4 -4,-48.5 402,-48.5 402,4 -4,4"/>
<!-- Node53 -->
<g id="node1" class="node"><title>Node53</title>
<polygon fill="#bfbfbf" stroke="black" points="0,-6 0,-25 100,-25 100,-6 0,-6"/>
<text text-anchor="middle" x="50" y="-13" font-family="Helvetica,sans-Serif" font-size="10.00">sysclk_enable_usb</text>
</g>
<!-- Node54 -->
<g id="node2" class="node"><title>Node54</title>
<g id="a_node2"><a xlink:href="group__sysclk__group.xhtml#gaaf2d50871a130ef8546cea34ed6ca6f8" target="_top" xlink:title="Change the source of the main system clock. ">
<polygon fill="white" stroke="black" points="136,-25 136,-44 234,-44 234,-25 136,-25"/>
<text text-anchor="middle" x="185" y="-32" font-family="Helvetica,sans-Serif" font-size="10.00">sysclk_set_source</text>
</a>
</g>
</g>
<!-- Node53&#45;&gt;Node54 -->
<g id="edge1" class="edge"><title>Node53&#45;&gt;Node54</title>
<path fill="none" stroke="midnightblue" d="M110.158,-23.9512C118.783,-25.1832 127.573,-26.4391 135.941,-27.6345"/>
<polygon fill="midnightblue" stroke="midnightblue" points="110.541,-20.4704 100.146,-22.5209 109.551,-27.4 110.541,-20.4704"/>
</g>
<!-- Node55 -->
<g id="node3" class="node"><title>Node55</title>
<g id="a_node3"><a xlink:href="group__sysclk__group.xhtml#ga3e73d81c9cb787a0239acf29327c3f11" target="_top" xlink:title="Disable a peripheral&#39;s clock. ">
<polygon fill="white" stroke="red" points="270,-0.5 270,-30.5 398,-30.5 398,-0.5 270,-0.5"/>
<text text-anchor="start" x="278" y="-18.5" font-family="Helvetica,sans-Serif" font-size="10.00">sysclk_disable_peripheral</text>
<text text-anchor="middle" x="334" y="-7.5" font-family="Helvetica,sans-Serif" font-size="10.00">_clock</text>
</a>
</g>
</g>
<!-- Node53&#45;&gt;Node55 -->
<g id="edge3" class="edge"><title>Node53&#45;&gt;Node55</title>
<path fill="none" stroke="midnightblue" d="M110.401,-15.5C157.157,-15.5 222.167,-15.5 269.862,-15.5"/>
<polygon fill="midnightblue" stroke="midnightblue" points="110.121,-12.0001 100.121,-15.5 110.121,-19.0001 110.121,-12.0001"/>
</g>
<!-- Node54&#45;&gt;Node55 -->
<g id="edge2" class="edge"><title>Node54&#45;&gt;Node55</title>
<path fill="none" stroke="midnightblue" d="M244.209,-26.9763C252.609,-25.8907 261.287,-24.769 269.779,-23.6714"/>
<polygon fill="midnightblue" stroke="midnightblue" points="243.602,-23.5256 234.133,-28.2787 244.499,-30.4679 243.602,-23.5256"/>
</g>
</g>
</svg>
