<?xml version="1.0" encoding="UTF-8" standalone="no"?>
<!DOCTYPE svg PUBLIC "-//W3C//DTD SVG 1.1//EN"
 "http://www.w3.org/Graphics/SVG/1.1/DTD/svg11.dtd">
<!-- Generated by graphviz version 2.38.0 (20140413.2041)
 -->
<!-- Title: sysclk_init Pages: 1 -->
<svg width="370pt" height="446pt"
 viewBox="0.00 0.00 370.00 446.00" xmlns="http://www.w3.org/2000/svg" xmlns:xlink="http://www.w3.org/1999/xlink">
<g id="graph0" class="graph" transform="scale(1 1) rotate(0) translate(4 442)">
<title>sysclk_init</title>
<polygon fill="white" stroke="none" points="-4,4 -4,-442 366,-442 366,4 -4,4"/>
<!-- Node110 -->
<g id="node1" class="node"><title>Node110</title>
<polygon fill="#bfbfbf" stroke="black" points="0,-209.5 0,-228.5 63,-228.5 63,-209.5 0,-209.5"/>
<text text-anchor="middle" x="31.5" y="-216.5" font-family="Helvetica,sans-Serif" font-size="10.00">sysclk_init</text>
</g>
<!-- Node111 -->
<g id="node2" class="node"><title>Node111</title>
<g id="a_node2"><a xlink:href="system__samg55_8h.xhtml#a38ee6d8de47653fc055f10322c050831" target="_top" xlink:title="Initialize flash. ">
<polygon fill="white" stroke="black" points="124.5,-418.5 124.5,-437.5 216.5,-437.5 216.5,-418.5 124.5,-418.5"/>
<text text-anchor="middle" x="170.5" y="-425.5" font-family="Helvetica,sans-Serif" font-size="10.00">system_init_flash</text>
</a>
</g>
</g>
<!-- Node110&#45;&gt;Node111 -->
<g id="edge1" class="edge"><title>Node110&#45;&gt;Node111</title>
<path fill="none" stroke="midnightblue" d="M33.1107,-228.591C35.5491,-258.807 47.1615,-353.033 99,-404 103.598,-408.521 109.081,-412.191 114.928,-415.171"/>
<polygon fill="midnightblue" stroke="midnightblue" points="113.78,-418.489 124.344,-419.307 116.596,-412.081 113.78,-418.489"/>
</g>
<!-- Node112 -->
<g id="node3" class="node"><title>Node112</title>
<g id="a_node3"><a xlink:href="group__osc__group.xhtml#ga13db594de6701e5e235a88597e348e3a" target="_top" xlink:title="osc_enable">
<polygon fill="white" stroke="red" points="287,-361.5 287,-380.5 353,-380.5 353,-361.5 287,-361.5"/>
<text text-anchor="middle" x="320" y="-368.5" font-family="Helvetica,sans-Serif" font-size="10.00">osc_enable</text>
</a>
</g>
</g>
<!-- Node110&#45;&gt;Node112 -->
<g id="edge2" class="edge"><title>Node110&#45;&gt;Node112</title>
<path fill="none" stroke="midnightblue" d="M33.2663,-228.752C36.0587,-256.819 48.3772,-337.892 99,-371 153.2,-406.447 232.114,-394.938 279.228,-383.125"/>
<polygon fill="midnightblue" stroke="midnightblue" points="280.282,-386.466 289.063,-380.538 278.501,-379.697 280.282,-386.466"/>
</g>
<!-- Node116 -->
<g id="node4" class="node"><title>Node116</title>
<g id="a_node4"><a xlink:href="group__osc__group.xhtml#gace890435e962b82472d3f918ea7b4c52" target="_top" xlink:title="Wait until the oscillator identified by id is ready. ">
<polygon fill="white" stroke="red" points="278,-285.5 278,-304.5 362,-304.5 362,-285.5 278,-285.5"/>
<text text-anchor="middle" x="320" y="-292.5" font-family="Helvetica,sans-Serif" font-size="10.00">osc_wait_ready</text>
</a>
</g>
</g>
<!-- Node110&#45;&gt;Node116 -->
<g id="edge3" class="edge"><title>Node110&#45;&gt;Node116</title>
<path fill="none" stroke="midnightblue" d="M63.3447,-221.875C104.798,-226.348 180.398,-236.658 242,-257 260.115,-262.982 279.36,-272.478 294.079,-280.481"/>
<polygon fill="midnightblue" stroke="midnightblue" points="292.601,-283.665 303.04,-285.473 296.007,-277.549 292.601,-283.665"/>
</g>
<!-- Node120 -->
<g id="node5" class="node"><title>Node120</title>
<g id="a_node5"><a xlink:href="group__sam__drivers__pmc__group.xhtml#ga2f3a71843695a5e6efe5873aba666117" target="_top" xlink:title="Switch master clock source selection to slow clock. ">
<polygon fill="white" stroke="black" points="106,-304.5 106,-323.5 235,-323.5 235,-304.5 106,-304.5"/>
<text text-anchor="middle" x="170.5" y="-311.5" font-family="Helvetica,sans-Serif" font-size="10.00">pmc_switch_mck_to_sclk</text>
</a>
</g>
</g>
<!-- Node110&#45;&gt;Node120 -->
<g id="edge4" class="edge"><title>Node110&#45;&gt;Node120</title>
<path fill="none" stroke="midnightblue" d="M38.1634,-228.546C48.2781,-244.747 71.032,-277.559 99,-295 102.412,-297.128 106.06,-299.02 109.835,-300.702"/>
<polygon fill="midnightblue" stroke="midnightblue" points="108.825,-304.066 119.412,-304.466 111.386,-297.551 108.825,-304.066"/>
</g>
<!-- Node121 -->
<g id="node6" class="node"><title>Node121</title>
<g id="a_node6"><a xlink:href="group__sam__drivers__pmc__group.xhtml#gab7fba210cacac382d9f74a3142ad3e61" target="_top" xlink:title="Switch master clock source selection to main clock. ">
<polygon fill="white" stroke="black" points="99,-266.5 99,-285.5 242,-285.5 242,-266.5 99,-266.5"/>
<text text-anchor="middle" x="170.5" y="-273.5" font-family="Helvetica,sans-Serif" font-size="10.00">pmc_switch_mck_to_mainck</text>
</a>
</g>
</g>
<!-- Node110&#45;&gt;Node121 -->
<g id="edge5" class="edge"><title>Node110&#45;&gt;Node121</title>
<path fill="none" stroke="midnightblue" d="M50.2646,-228.62C63.4907,-235.584 82.1032,-244.968 99,-252 108.579,-255.987 119.081,-259.832 128.985,-263.234"/>
<polygon fill="midnightblue" stroke="midnightblue" points="128.039,-266.608 138.633,-266.476 130.269,-259.973 128.039,-266.608"/>
</g>
<!-- Node122 -->
<g id="node7" class="node"><title>Node122</title>
<g id="a_node7"><a xlink:href="group__pll__group.xhtml#gaf4808844971419dcc305ad41a2104d0a" target="_top" xlink:title="Enable the source of the pll. ">
<polygon fill="white" stroke="black" points="123,-342.5 123,-361.5 218,-361.5 218,-342.5 123,-342.5"/>
<text text-anchor="middle" x="170.5" y="-349.5" font-family="Helvetica,sans-Serif" font-size="10.00">pll_enable_source</text>
</a>
</g>
</g>
<!-- Node110&#45;&gt;Node122 -->
<g id="edge6" class="edge"><title>Node110&#45;&gt;Node122</title>
<path fill="none" stroke="midnightblue" d="M35.3242,-228.65C42.2867,-250.699 62.4198,-305.019 99,-333 103.342,-336.321 108.222,-339.063 113.335,-341.326"/>
<polygon fill="midnightblue" stroke="midnightblue" points="112.134,-344.613 122.725,-344.903 114.626,-338.072 112.134,-344.613"/>
</g>
<!-- Node123 -->
<g id="node8" class="node"><title>Node123</title>
<g id="a_node8"><a xlink:href="group__pll__group.xhtml#gac963cb7ae2da65162dc3955129ff846c" target="_top" xlink:title="pll_enable">
<polygon fill="white" stroke="red" points="140.5,-190.5 140.5,-209.5 200.5,-209.5 200.5,-190.5 140.5,-190.5"/>
<text text-anchor="middle" x="170.5" y="-197.5" font-family="Helvetica,sans-Serif" font-size="10.00">pll_enable</text>
</a>
</g>
</g>
<!-- Node110&#45;&gt;Node123 -->
<g id="edge9" class="edge"><title>Node110&#45;&gt;Node123</title>
<path fill="none" stroke="midnightblue" d="M63.2455,-214.736C83.0422,-211.991 108.957,-208.396 130.238,-205.445"/>
<polygon fill="midnightblue" stroke="midnightblue" points="130.841,-208.895 140.265,-204.054 129.879,-201.961 130.841,-208.895"/>
</g>
<!-- Node125 -->
<g id="node9" class="node"><title>Node125</title>
<g id="a_node9"><a xlink:href="group__pll__group.xhtml#gaa10c871c499867b1db87f9cd1d37ef0f" target="_top" xlink:title="Wait for PLL pll_id to become locked. ">
<polygon fill="white" stroke="red" points="126.5,-152.5 126.5,-171.5 214.5,-171.5 214.5,-152.5 126.5,-152.5"/>
<text text-anchor="middle" x="170.5" y="-159.5" font-family="Helvetica,sans-Serif" font-size="10.00">pll_wait_for_lock</text>
</a>
</g>
</g>
<!-- Node110&#45;&gt;Node125 -->
<g id="edge10" class="edge"><title>Node110&#45;&gt;Node125</title>
<path fill="none" stroke="midnightblue" d="M46.7427,-209.428C59.8499,-200.973 80.0694,-188.808 99,-181 104.845,-178.589 111.088,-176.397 117.353,-174.429"/>
<polygon fill="midnightblue" stroke="midnightblue" points="118.567,-177.72 127.16,-171.522 116.578,-171.008 118.567,-177.72"/>
</g>
<!-- Node128 -->
<g id="node10" class="node"><title>Node128</title>
<g id="a_node10"><a xlink:href="group__sam__drivers__pmc__group.xhtml#gacdf65ad3a7eb3e950385b58d33aa1290" target="_top" xlink:title="Switch master clock source selection to PLLA clock. ">
<polygon fill="white" stroke="black" points="102,-114.5 102,-133.5 239,-133.5 239,-114.5 102,-114.5"/>
<text text-anchor="middle" x="170.5" y="-121.5" font-family="Helvetica,sans-Serif" font-size="10.00">pmc_switch_mck_to_pllack</text>
</a>
</g>
</g>
<!-- Node110&#45;&gt;Node128 -->
<g id="edge11" class="edge"><title>Node110&#45;&gt;Node128</title>
<path fill="none" stroke="midnightblue" d="M38.1634,-209.454C48.2781,-193.253 71.032,-160.441 99,-143 102.412,-140.872 106.06,-138.98 109.835,-137.298"/>
<polygon fill="midnightblue" stroke="midnightblue" points="111.386,-140.449 119.412,-133.534 108.825,-133.934 111.386,-140.449"/>
</g>
<!-- Node129 -->
<g id="node11" class="node"><title>Node129</title>
<g id="a_node11"><a xlink:href="system__samg55_8h.xhtml#ae0c36a9591fe6e9c45ecb21a794f0f0f" target="_top" xlink:title="Updates the SystemCoreClock with current core Clock retrieved from cpu registers. ...">
<polygon fill="white" stroke="black" points="107.5,-76.5 107.5,-95.5 233.5,-95.5 233.5,-76.5 107.5,-76.5"/>
<text text-anchor="middle" x="170.5" y="-83.5" font-family="Helvetica,sans-Serif" font-size="10.00">SystemCoreClockUpdate</text>
</a>
</g>
</g>
<!-- Node110&#45;&gt;Node129 -->
<g id="edge12" class="edge"><title>Node110&#45;&gt;Node129</title>
<path fill="none" stroke="midnightblue" d="M35.3242,-209.35C42.2867,-187.301 62.4198,-132.981 99,-105 101.438,-103.135 104.046,-101.452 106.77,-99.935"/>
<polygon fill="midnightblue" stroke="midnightblue" points="108.279,-103.093 115.797,-95.6283 105.264,-96.7756 108.279,-103.093"/>
</g>
<!-- Node130 -->
<g id="node12" class="node"><title>Node130</title>
<g id="a_node12"><a xlink:href="group__sysclk__group.xhtml#gae91bb547221cdd42b104342e8f776a28" target="_top" xlink:title="Return the current rate in Hz of the CPU clock. ">
<polygon fill="white" stroke="red" points="120,-38.5 120,-57.5 221,-57.5 221,-38.5 120,-38.5"/>
<text text-anchor="middle" x="170.5" y="-45.5" font-family="Helvetica,sans-Serif" font-size="10.00">sysclk_get_cpu_hz</text>
</a>
</g>
</g>
<!-- Node110&#45;&gt;Node130 -->
<g id="edge13" class="edge"><title>Node110&#45;&gt;Node130</title>
<path fill="none" stroke="midnightblue" d="M33.7882,-209.483C37.9249,-182.733 53.3786,-106.278 99,-67 102.443,-64.0355 106.304,-61.5286 110.399,-59.4094"/>
<polygon fill="midnightblue" stroke="midnightblue" points="111.901,-62.5727 119.664,-55.3621 109.099,-56.158 111.901,-62.5727"/>
</g>
<!-- Node132 -->
<g id="node13" class="node"><title>Node132</title>
<g id="a_node13"><a xlink:href="group__sam__drivers__efc__group.xhtml#ga7b1c3c24eedff837a898ce28174c1431" target="_top" xlink:title="Perform read sequence. ">
<polygon fill="white" stroke="black" points="101.5,-0.5 101.5,-19.5 239.5,-19.5 239.5,-0.5 101.5,-0.5"/>
<text text-anchor="middle" x="170.5" y="-7.5" font-family="Helvetica,sans-Serif" font-size="10.00">efc_perform_read_sequence</text>
</a>
</g>
</g>
<!-- Node110&#45;&gt;Node132 -->
<g id="edge14" class="edge"><title>Node110&#45;&gt;Node132</title>
<path fill="none" stroke="midnightblue" d="M32.8583,-209.446C34.5526,-178.474 44.2107,-79.9071 99,-29 100.698,-27.4226 102.512,-25.9736 104.419,-24.6427"/>
<polygon fill="midnightblue" stroke="midnightblue" points="106.37,-27.558 113.286,-19.532 102.874,-21.4933 106.37,-27.558"/>
</g>
<!-- Node122&#45;&gt;Node112 -->
<g id="edge7" class="edge"><title>Node122&#45;&gt;Node112</title>
<path fill="none" stroke="midnightblue" d="M218.17,-358.012C236.883,-360.422 258.297,-363.181 276.564,-365.534"/>
<polygon fill="midnightblue" stroke="midnightblue" points="276.265,-369.024 286.63,-366.83 277.16,-362.081 276.265,-369.024"/>
</g>
<!-- Node122&#45;&gt;Node116 -->
<g id="edge8" class="edge"><title>Node122&#45;&gt;Node116</title>
<path fill="none" stroke="midnightblue" d="M212.195,-342.484C222.069,-339.779 232.512,-336.58 242,-333 259.505,-326.394 278.353,-317.132 293.021,-309.406"/>
<polygon fill="midnightblue" stroke="midnightblue" points="294.839,-312.402 301.999,-304.594 291.532,-306.233 294.839,-312.402"/>
</g>
</g>
</svg>
