<?xml version="1.0" encoding="UTF-8" standalone="no"?>
<!DOCTYPE svg PUBLIC "-//W3C//DTD SVG 1.1//EN"
 "http://www.w3.org/Graphics/SVG/1.1/DTD/svg11.dtd">
<!-- Generated by graphviz version 2.38.0 (20140413.2041)
 -->
<!-- Title: pdc_enable_transfer Pages: 1 -->
<svg width="270pt" height="116pt"
 viewBox="0.00 0.00 270.00 115.50" xmlns="http://www.w3.org/2000/svg" xmlns:xlink="http://www.w3.org/1999/xlink">
<g id="graph0" class="graph" transform="scale(1 1) rotate(0) translate(4 111.5)">
<title>pdc_enable_transfer</title>
<polygon fill="white" stroke="none" points="-4,4 -4,-111.5 266,-111.5 266,4 -4,4"/>
<!-- Node8 -->
<g id="node1" class="node"><title>Node8</title>
<polygon fill="#bfbfbf" stroke="black" points="0,-38.5 0,-57.5 104,-57.5 104,-38.5 0,-38.5"/>
<text text-anchor="middle" x="52" y="-45.5" font-family="Helvetica,sans-Serif" font-size="10.00">pdc_enable_transfer</text>
</g>
<!-- Node9 -->
<g id="node2" class="node"><title>Node9</title>
<g id="a_node2"><a xlink:href="freertos__peripheral__control__private_8h.xhtml#ae9d7f15bbb38d058598cf29ee45c5b2a" target="_top" xlink:title="freertos_start_pdc\l_transfer">
<polygon fill="white" stroke="black" points="153.5,-77 153.5,-107 248.5,-107 248.5,-77 153.5,-77"/>
<text text-anchor="start" x="161.5" y="-95" font-family="Helvetica,sans-Serif" font-size="10.00">freertos_start_pdc</text>
<text text-anchor="middle" x="201" y="-84" font-family="Helvetica,sans-Serif" font-size="10.00">_transfer</text>
</a>
</g>
</g>
<!-- Node8&#45;&gt;Node9 -->
<g id="edge1" class="edge"><title>Node8&#45;&gt;Node9</title>
<path fill="none" stroke="midnightblue" d="M94.6891,-60.4784C112.987,-65.9553 134.544,-72.4078 153.373,-78.0437"/>
<polygon fill="midnightblue" stroke="midnightblue" points="95.4805,-57.0619 84.8968,-57.5473 93.4732,-63.7679 95.4805,-57.0619"/>
</g>
<!-- Node10 -->
<g id="node3" class="node"><title>Node10</title>
<g id="a_node3"><a xlink:href="group__freertos__usart__peripheral__control__group.xhtml#ga09bccd303f0eafa482a0ffb56d0438b8" target="_top" xlink:title="Initializes the FreeRTOS ASF USART driver for the specified USART port. ">
<polygon fill="white" stroke="red" points="140,-38.5 140,-57.5 262,-57.5 262,-38.5 140,-38.5"/>
<text text-anchor="middle" x="201" y="-45.5" font-family="Helvetica,sans-Serif" font-size="10.00">freertos_usart_serial_init</text>
</a>
</g>
</g>
<!-- Node8&#45;&gt;Node10 -->
<g id="edge2" class="edge"><title>Node8&#45;&gt;Node10</title>
<path fill="none" stroke="midnightblue" d="M114.244,-48C122.76,-48 131.501,-48 139.994,-48"/>
<polygon fill="midnightblue" stroke="midnightblue" points="114.001,-44.5001 104.001,-48 114.001,-51.5001 114.001,-44.5001"/>
</g>
<!-- Node14 -->
<g id="node4" class="node"><title>Node14</title>
<g id="a_node4"><a xlink:href="freertos__usart__serial_8c.xhtml#a53cee58d461e19378a8453e89d52424f" target="_top" xlink:title="configure_rx_dma">
<polygon fill="white" stroke="red" points="154.5,-0.5 154.5,-19.5 247.5,-19.5 247.5,-0.5 154.5,-0.5"/>
<text text-anchor="middle" x="201" y="-7.5" font-family="Helvetica,sans-Serif" font-size="10.00">configure_rx_dma</text>
</a>
</g>
</g>
<!-- Node8&#45;&gt;Node14 -->
<g id="edge3" class="edge"><title>Node8&#45;&gt;Node14</title>
<path fill="none" stroke="midnightblue" d="M99.8548,-35.8879C120.328,-30.5956 143.99,-24.4787 163.172,-19.5201"/>
<polygon fill="midnightblue" stroke="midnightblue" points="98.9001,-32.5195 90.0943,-38.411 100.652,-39.2968 98.9001,-32.5195"/>
</g>
</g>
</svg>
