<?xml version="1.0" encoding="UTF-8" standalone="no"?>
<!DOCTYPE svg PUBLIC "-//W3C//DTD SVG 1.1//EN"
 "http://www.w3.org/Graphics/SVG/1.1/DTD/svg11.dtd">
<!-- Generated by graphviz version 2.38.0 (20140413.2041)
 -->
<!-- Title: sleepmgr_unlock_mode Pages: 1 -->
<svg width="246pt" height="66pt"
 viewBox="0.00 0.00 246.00 66.00" xmlns="http://www.w3.org/2000/svg" xmlns:xlink="http://www.w3.org/1999/xlink">
<g id="graph0" class="graph" transform="scale(1 1) rotate(0) translate(4 62)">
<title>sleepmgr_unlock_mode</title>
<polygon fill="white" stroke="none" points="-4,4 -4,-62 242,-62 242,4 -4,4"/>
<!-- Node24 -->
<g id="node1" class="node"><title>Node24</title>
<polygon fill="#bfbfbf" stroke="black" points="0,-19.5 0,-38.5 119,-38.5 119,-19.5 0,-19.5"/>
<text text-anchor="middle" x="59.5" y="-26.5" font-family="Helvetica,sans-Serif" font-size="10.00">sleepmgr_unlock_mode</text>
</g>
<!-- Node25 -->
<g id="node2" class="node"><title>Node25</title>
<g id="a_node2"><a xlink:href="group__interrupt__group.xhtml#ga5992cb015c55a0f4ed563e66a8793771" target="_top" xlink:title="Get and clear the global interrupt flags. ">
<polygon fill="white" stroke="black" points="160,-38.5 160,-57.5 233,-57.5 233,-38.5 160,-38.5"/>
<text text-anchor="middle" x="196.5" y="-45.5" font-family="Helvetica,sans-Serif" font-size="10.00">cpu_irq_save</text>
</a>
</g>
</g>
<!-- Node24&#45;&gt;Node25 -->
<g id="edge1" class="edge"><title>Node24&#45;&gt;Node25</title>
<path fill="none" stroke="midnightblue" d="M119.32,-37.2784C129.551,-38.7183 140.052,-40.1962 149.863,-41.577"/>
<polygon fill="midnightblue" stroke="midnightblue" points="149.406,-45.047 159.796,-42.975 150.381,-38.1154 149.406,-45.047"/>
</g>
<!-- Node26 -->
<g id="node3" class="node"><title>Node26</title>
<g id="a_node3"><a xlink:href="group__interrupt__group.xhtml#ga428178bc346431936fddf52ad1ebd6fa" target="_top" xlink:title="Restore global interrupt flags. ">
<polygon fill="white" stroke="red" points="155,-0.5 155,-19.5 238,-19.5 238,-0.5 155,-0.5"/>
<text text-anchor="middle" x="196.5" y="-7.5" font-family="Helvetica,sans-Serif" font-size="10.00">cpu_irq_restore</text>
</a>
</g>
</g>
<!-- Node24&#45;&gt;Node26 -->
<g id="edge2" class="edge"><title>Node24&#45;&gt;Node26</title>
<path fill="none" stroke="midnightblue" d="M119.32,-20.7216C127.807,-19.5272 136.479,-18.3066 144.79,-17.137"/>
<polygon fill="midnightblue" stroke="midnightblue" points="145.295,-20.6005 154.709,-15.7409 144.319,-13.6688 145.295,-20.6005"/>
</g>
</g>
</svg>
