<?xml version="1.0" encoding="UTF-8" standalone="no"?>
<!DOCTYPE svg PUBLIC "-//W3C//DTD SVG 1.1//EN"
 "http://www.w3.org/Graphics/SVG/1.1/DTD/svg11.dtd">
<!-- Generated by graphviz version 2.38.0 (20140413.2041)
 -->
<!-- Title: usart_init_spi_slave Pages: 1 -->
<svg width="276pt" height="192pt"
 viewBox="0.00 0.00 276.00 192.00" xmlns="http://www.w3.org/2000/svg" xmlns:xlink="http://www.w3.org/1999/xlink">
<g id="graph0" class="graph" transform="scale(1 1) rotate(0) translate(4 188)">
<title>usart_init_spi_slave</title>
<polygon fill="white" stroke="none" points="-4,4 -4,-188 272,-188 272,4 -4,4"/>
<!-- Node177 -->
<g id="node1" class="node"><title>Node177</title>
<polygon fill="#bfbfbf" stroke="black" points="0,-76.5 0,-95.5 101,-95.5 101,-76.5 0,-76.5"/>
<text text-anchor="middle" x="50.5" y="-83.5" font-family="Helvetica,sans-Serif" font-size="10.00">usart_init_spi_slave</text>
</g>
<!-- Node178 -->
<g id="node2" class="node"><title>Node178</title>
<g id="a_node2"><a xlink:href="group__sam__drivers__usart__group.xhtml#ga6cb84f0297ddca62d4077f616efa5c5b" target="_top" xlink:title="Reset the USART and disable TX and RX. ">
<polygon fill="white" stroke="red" points="170,-164.5 170,-183.5 235,-183.5 235,-164.5 170,-164.5"/>
<text text-anchor="middle" x="202.5" y="-171.5" font-family="Helvetica,sans-Serif" font-size="10.00">usart_reset</text>
</a>
</g>
</g>
<!-- Node177&#45;&gt;Node178 -->
<g id="edge1" class="edge"><title>Node177&#45;&gt;Node178</title>
<path fill="none" stroke="midnightblue" d="M61.0944,-95.9236C76.009,-110.809 106.251,-138.885 137,-155 144.125,-158.734 152.087,-161.834 159.92,-164.372"/>
<polygon fill="midnightblue" stroke="midnightblue" points="159.116,-167.784 169.699,-167.29 161.118,-161.077 159.116,-167.784"/>
</g>
<!-- Node184 -->
<g id="node3" class="node"><title>Node184</title>
<g id="a_node3"><a xlink:href="group__sam__drivers__usart__group.xhtml#ga4740fd3e308857e7d074802e08db1cbe" target="_top" xlink:title="Select the SCK pin as the source of baudrate for the USART SPI slave mode. ">
<polygon fill="white" stroke="black" points="151.5,-115 151.5,-145 253.5,-145 253.5,-115 151.5,-115"/>
<text text-anchor="start" x="159.5" y="-133" font-family="Helvetica,sans-Serif" font-size="10.00">usart_set_spi_slave</text>
<text text-anchor="middle" x="202.5" y="-122" font-family="Helvetica,sans-Serif" font-size="10.00">_baudrate</text>
</a>
</g>
</g>
<!-- Node177&#45;&gt;Node184 -->
<g id="edge2" class="edge"><title>Node177&#45;&gt;Node184</title>
<path fill="none" stroke="midnightblue" d="M84.0478,-95.5473C100.854,-100.477 121.9,-106.651 141.518,-112.405"/>
<polygon fill="midnightblue" stroke="midnightblue" points="140.73,-115.822 151.311,-115.278 142.701,-109.105 140.73,-115.822"/>
</g>
<!-- Node185 -->
<g id="node4" class="node"><title>Node185</title>
<g id="a_node4"><a xlink:href="group__sam__drivers__usart__group.xhtml#gaafe097c01c082b270c1057722d524f5b" target="_top" xlink:title="Calculate a clock divider(CD) and a fractional part (FP) for the USART asynchronous modes to generate...">
<polygon fill="white" stroke="black" points="137,-76.5 137,-95.5 268,-95.5 268,-76.5 137,-76.5"/>
<text text-anchor="middle" x="202.5" y="-83.5" font-family="Helvetica,sans-Serif" font-size="10.00">usart_set_async_baudrate</text>
</a>
</g>
</g>
<!-- Node177&#45;&gt;Node185 -->
<g id="edge3" class="edge"><title>Node177&#45;&gt;Node185</title>
<path fill="none" stroke="midnightblue" d="M101.031,-86C109.25,-86 117.932,-86 126.612,-86"/>
<polygon fill="midnightblue" stroke="midnightblue" points="126.773,-89.5001 136.773,-86 126.773,-82.5001 126.773,-89.5001"/>
</g>
<!-- Node186 -->
<g id="node5" class="node"><title>Node186</title>
<g id="a_node5"><a xlink:href="group__sam__drivers__usart__group.xhtml#ga7fd617322d666621fee15501ae0de7c7" target="_top" xlink:title="Enable USART receiver. ">
<polygon fill="white" stroke="black" points="159.5,-38.5 159.5,-57.5 245.5,-57.5 245.5,-38.5 159.5,-38.5"/>
<text text-anchor="middle" x="202.5" y="-45.5" font-family="Helvetica,sans-Serif" font-size="10.00">usart_enable_rx</text>
</a>
</g>
</g>
<!-- Node177&#45;&gt;Node186 -->
<g id="edge4" class="edge"><title>Node177&#45;&gt;Node186</title>
<path fill="none" stroke="midnightblue" d="M89.3513,-76.411C108.967,-71.4417 133.119,-65.3233 153.979,-60.0387"/>
<polygon fill="midnightblue" stroke="midnightblue" points="155.087,-63.3687 163.921,-57.5201 153.368,-56.5831 155.087,-63.3687"/>
</g>
<!-- Node187 -->
<g id="node6" class="node"><title>Node187</title>
<g id="a_node6"><a xlink:href="group__sam__drivers__usart__group.xhtml#ga1c3a4036f8b9b21f833a641b07b84f6c" target="_top" xlink:title="Enable USART transmitter. ">
<polygon fill="white" stroke="black" points="159.5,-0.5 159.5,-19.5 245.5,-19.5 245.5,-0.5 159.5,-0.5"/>
<text text-anchor="middle" x="202.5" y="-7.5" font-family="Helvetica,sans-Serif" font-size="10.00">usart_enable_tx</text>
</a>
</g>
</g>
<!-- Node177&#45;&gt;Node187 -->
<g id="edge5" class="edge"><title>Node177&#45;&gt;Node187</title>
<path fill="none" stroke="midnightblue" d="M63.2678,-76.4622C79.148,-64.0017 108.717,-42.2197 137,-29 141.957,-26.6829 147.262,-24.5774 152.62,-22.6836"/>
<polygon fill="midnightblue" stroke="midnightblue" points="153.859,-25.9603 162.259,-19.5034 151.666,-19.3127 153.859,-25.9603"/>
</g>
</g>
</svg>
