<?xml version="1.0" encoding="UTF-8" standalone="no"?>
<!DOCTYPE svg PUBLIC "-//W3C//DTD SVG 1.1//EN"
 "http://www.w3.org/Graphics/SVG/1.1/DTD/svg11.dtd">
<!-- Generated by graphviz version 2.38.0 (20140413.2041)
 -->
<!-- Title: Controller Functions Pages: 1 -->
<svg width="270pt" height="203pt"
 viewBox="0.00 0.00 270.00 203.00" xmlns="http://www.w3.org/2000/svg" xmlns:xlink="http://www.w3.org/1999/xlink">
<g id="graph0" class="graph" transform="scale(1 1) rotate(0) translate(4 199)">
<title>Controller Functions</title>
<polygon fill="white" stroke="none" points="-4,4 -4,-199 266,-199 266,4 -4,4"/>
<!-- Node3 -->
<g id="node1" class="node"><title>Node3</title>
<g id="a_node1"><a xlink:href="group__inv__clarke.xhtml" target="_top" xlink:title="Inverse Clarke transform converts the two&#45;coordinate time invariant vector into instantaneous stator ...">
<polygon fill="white" stroke="black" points="146.5,-164.5 146.5,-194.5 255.5,-194.5 255.5,-164.5 146.5,-164.5"/>
<text text-anchor="start" x="154.5" y="-182.5" font-family="Helvetica,sans-Serif" font-size="10.00">Vector Inverse Clarke</text>
<text text-anchor="middle" x="201" y="-171.5" font-family="Helvetica,sans-Serif" font-size="10.00"> Transform</text>
</a>
</g>
</g>
<!-- Node0 -->
<g id="node2" class="node"><title>Node0</title>
<polygon fill="#bfbfbf" stroke="black" points="0,-88 0,-107 104,-107 104,-88 0,-88"/>
<text text-anchor="middle" x="52" y="-95" font-family="Helvetica,sans-Serif" font-size="10.00">Controller Functions</text>
</g>
<!-- Node0&#45;&gt;Node3 -->
<g id="edge3" class="edge"><title>Node0&#45;&gt;Node3</title>
<path fill="none" stroke="black" d="M74.317,-113.072C91.524,-125.242 116.632,-142.114 140,-154.5 146.581,-157.988 153.756,-161.339 160.782,-164.392"/>
<polygon fill="black" stroke="black" points="76.2593,-110.158 66.0901,-107.185 72.1859,-115.851 76.2593,-110.158"/>
</g>
<!-- Node4 -->
<g id="node3" class="node"><title>Node4</title>
<g id="a_node3"><a xlink:href="group__park.xhtml" target="_top" xlink:title="Forward Park transform converts the input two&#45;coordinate vector to flux and torque components...">
<polygon fill="white" stroke="black" points="144,-126 144,-145 258,-145 258,-126 144,-126"/>
<text text-anchor="middle" x="201" y="-133" font-family="Helvetica,sans-Serif" font-size="10.00">Vector Park Transform</text>
</a>
</g>
</g>
<!-- Node0&#45;&gt;Node4 -->
<g id="edge4" class="edge"><title>Node0&#45;&gt;Node4</title>
<path fill="none" stroke="black" d="M99.8548,-109.612C120.328,-114.904 143.99,-121.021 163.172,-125.98"/>
<polygon fill="black" stroke="black" points="100.652,-106.203 90.0943,-107.089 98.9001,-112.98 100.652,-106.203"/>
</g>
<!-- Node2 -->
<g id="node4" class="node"><title>Node2</title>
<g id="a_node4"><a xlink:href="group__clarke.xhtml" target="_top" xlink:title="Forward Clarke transform converts the instantaneous stator phases into a two&#45;coordinate time invarian...">
<polygon fill="white" stroke="black" points="140,-88 140,-107 262,-107 262,-88 140,-88"/>
<text text-anchor="middle" x="201" y="-95" font-family="Helvetica,sans-Serif" font-size="10.00">Vector Clarke Transform</text>
</a>
</g>
</g>
<!-- Node0&#45;&gt;Node2 -->
<g id="edge2" class="edge"><title>Node0&#45;&gt;Node2</title>
<path fill="none" stroke="black" d="M114.244,-97.5C122.76,-97.5 131.501,-97.5 139.994,-97.5"/>
<polygon fill="black" stroke="black" points="114.001,-94.0001 104.001,-97.5 114.001,-101 114.001,-94.0001"/>
</g>
<!-- Node1 -->
<g id="node5" class="node"><title>Node1</title>
<g id="a_node5"><a xlink:href="group___p_i_d.xhtml" target="_top" xlink:title="A Proportional Integral Derivative (PID) controller is a generic feedback control loop mechanism wide...">
<polygon fill="white" stroke="black" points="154,-50 154,-69 248,-69 248,-50 154,-50"/>
<text text-anchor="middle" x="201" y="-57" font-family="Helvetica,sans-Serif" font-size="10.00">PID Motor Control</text>
</a>
</g>
</g>
<!-- Node0&#45;&gt;Node1 -->
<g id="edge1" class="edge"><title>Node0&#45;&gt;Node1</title>
<path fill="none" stroke="black" d="M99.8548,-85.3879C120.328,-80.0956 143.99,-73.9787 163.172,-69.0201"/>
<polygon fill="black" stroke="black" points="98.9001,-82.0195 90.0943,-87.911 100.652,-88.7968 98.9001,-82.0195"/>
</g>
<!-- Node5 -->
<g id="node6" class="node"><title>Node5</title>
<g id="a_node6"><a xlink:href="group__inv__park.xhtml" target="_top" xlink:title="Inverse Park transform converts the input flux and torque components to two&#45;coordinate vector...">
<polygon fill="white" stroke="black" points="150.5,-0.5 150.5,-30.5 251.5,-30.5 251.5,-0.5 150.5,-0.5"/>
<text text-anchor="start" x="158.5" y="-18.5" font-family="Helvetica,sans-Serif" font-size="10.00">Vector Inverse Park</text>
<text text-anchor="middle" x="201" y="-7.5" font-family="Helvetica,sans-Serif" font-size="10.00"> transform</text>
</a>
</g>
</g>
<!-- Node0&#45;&gt;Node5 -->
<g id="edge5" class="edge"><title>Node0&#45;&gt;Node5</title>
<path fill="none" stroke="black" d="M74.317,-81.9279C91.524,-69.7581 116.632,-52.8864 140,-40.5 146.581,-37.0119 153.756,-33.6607 160.782,-30.6076"/>
<polygon fill="black" stroke="black" points="72.1859,-79.1491 66.0901,-87.8147 76.2593,-84.8418 72.1859,-79.1491"/>
</g>
</g>
</svg>
