<?xml version="1.0" encoding="UTF-8" standalone="no"?>
<!DOCTYPE svg PUBLIC "-//W3C//DTD SVG 1.1//EN"
 "http://www.w3.org/Graphics/SVG/1.1/DTD/svg11.dtd">
<!-- Generated by graphviz version 2.38.0 (20140413.2041)
 -->
<!-- Title: usart_reset Pages: 1 -->
<svg width="227pt" height="218pt"
 viewBox="0.00 0.00 227.00 218.00" xmlns="http://www.w3.org/2000/svg" xmlns:xlink="http://www.w3.org/1999/xlink">
<g id="graph0" class="graph" transform="scale(1 1) rotate(0) translate(4 214)">
<title>usart_reset</title>
<polygon fill="white" stroke="none" points="-4,4 -4,-214 223,-214 223,4 -4,4"/>
<!-- Node240 -->
<g id="node1" class="node"><title>Node240</title>
<polygon fill="#bfbfbf" stroke="black" points="0,-95.5 0,-114.5 65,-114.5 65,-95.5 0,-95.5"/>
<text text-anchor="middle" x="32.5" y="-102.5" font-family="Helvetica,sans-Serif" font-size="10.00">usart_reset</text>
</g>
<!-- Node241 -->
<g id="node2" class="node"><title>Node241</title>
<g id="a_node2"><a xlink:href="group__group__sam__drivers__usart.xhtml#gaeef2121bcab41f9850e58c59fdc34d10" target="_top" xlink:title="Configure USART to work in RS232 mode. ">
<polygon fill="white" stroke="red" points="117,-190.5 117,-209.5 203,-209.5 203,-190.5 117,-190.5"/>
<text text-anchor="middle" x="160" y="-197.5" font-family="Helvetica,sans-Serif" font-size="10.00">usart_init_rs232</text>
</a>
</g>
</g>
<!-- Node240&#45;&gt;Node241 -->
<g id="edge1" class="edge"><title>Node240&#45;&gt;Node241</title>
<path fill="none" stroke="midnightblue" d="M45.4026,-123.233C57.4941,-140.411 77.7182,-165.728 101,-181 106.847,-184.836 113.535,-187.957 120.241,-190.476"/>
<polygon fill="midnightblue" stroke="midnightblue" points="48.0748,-120.939 39.554,-114.642 42.2885,-124.878 48.0748,-120.939"/>
</g>
<!-- Node252 -->
<g id="node3" class="node"><title>Node252</title>
<g id="a_node3"><a xlink:href="group__group__sam__drivers__usart.xhtml#ga6bd028774207fe19e370e77f0fdf820f" target="_top" xlink:title="Configure USART to work in SYNC mode and act as a master. ">
<polygon fill="white" stroke="black" points="101,-152.5 101,-171.5 219,-171.5 219,-152.5 101,-152.5"/>
<text text-anchor="middle" x="160" y="-159.5" font-family="Helvetica,sans-Serif" font-size="10.00">usart_init_sync_master</text>
</a>
</g>
</g>
<!-- Node240&#45;&gt;Node252 -->
<g id="edge2" class="edge"><title>Node240&#45;&gt;Node252</title>
<path fill="none" stroke="midnightblue" d="M57.1812,-119.844C69.8676,-127.404 85.9452,-136.373 101,-143 108.952,-146.5 117.761,-149.708 126.062,-152.451"/>
<polygon fill="midnightblue" stroke="midnightblue" points="58.971,-116.836 48.606,-114.641 55.3401,-122.821 58.971,-116.836"/>
</g>
<!-- Node253 -->
<g id="node4" class="node"><title>Node253</title>
<g id="a_node4"><a xlink:href="group__group__sam__drivers__usart.xhtml#gad7379a739d799d82f34da103d32757c1" target="_top" xlink:title="Configure USART to work in SYNC mode and act as a slave. ">
<polygon fill="white" stroke="black" points="105,-114.5 105,-133.5 215,-133.5 215,-114.5 105,-114.5"/>
<text text-anchor="middle" x="160" y="-121.5" font-family="Helvetica,sans-Serif" font-size="10.00">usart_init_sync_slave</text>
</a>
</g>
</g>
<!-- Node240&#45;&gt;Node253 -->
<g id="edge3" class="edge"><title>Node240&#45;&gt;Node253</title>
<path fill="none" stroke="midnightblue" d="M75.1591,-111.307C84.6754,-112.748 94.9241,-114.299 104.878,-115.806"/>
<polygon fill="midnightblue" stroke="midnightblue" points="75.5802,-107.831 65.1689,-109.795 74.5323,-114.752 75.5802,-107.831"/>
</g>
<!-- Node254 -->
<g id="node5" class="node"><title>Node254</title>
<g id="a_node5"><a xlink:href="group__group__sam__drivers__usart.xhtml#ga32c4c057c3d5961bb3d6977b8e72483b" target="_top" xlink:title="Configure USART to work in ISO7816 mode. ">
<polygon fill="white" stroke="black" points="112.5,-76.5 112.5,-95.5 207.5,-95.5 207.5,-76.5 112.5,-76.5"/>
<text text-anchor="middle" x="160" y="-83.5" font-family="Helvetica,sans-Serif" font-size="10.00">usart_init_iso7816</text>
</a>
</g>
</g>
<!-- Node240&#45;&gt;Node254 -->
<g id="edge4" class="edge"><title>Node240&#45;&gt;Node254</title>
<path fill="none" stroke="midnightblue" d="M75.2323,-98.682C87.0707,-96.8897 100.038,-94.9266 112.157,-93.0918"/>
<polygon fill="midnightblue" stroke="midnightblue" points="74.5323,-95.248 65.1689,-100.205 75.5802,-102.169 74.5323,-95.248"/>
</g>
<!-- Node255 -->
<g id="node6" class="node"><title>Node255</title>
<g id="a_node6"><a xlink:href="group__group__sam__drivers__usart.xhtml#gaf3725cfa2de4be9eceab8b0c36a2080a" target="_top" xlink:title="Configure USART to work in SPI mode and act as a master. ">
<polygon fill="white" stroke="black" points="105,-38.5 105,-57.5 215,-57.5 215,-38.5 105,-38.5"/>
<text text-anchor="middle" x="160" y="-45.5" font-family="Helvetica,sans-Serif" font-size="10.00">usart_init_spi_master</text>
</a>
</g>
</g>
<!-- Node240&#45;&gt;Node255 -->
<g id="edge5" class="edge"><title>Node240&#45;&gt;Node255</title>
<path fill="none" stroke="midnightblue" d="M57.1812,-90.1561C69.8676,-82.5958 85.9452,-73.6268 101,-67 108.952,-63.4995 117.761,-60.2922 126.062,-57.5493"/>
<polygon fill="midnightblue" stroke="midnightblue" points="55.3401,-87.1792 48.606,-95.3585 58.971,-93.1639 55.3401,-87.1792"/>
</g>
<!-- Node256 -->
<g id="node7" class="node"><title>Node256</title>
<g id="a_node7"><a xlink:href="group__group__sam__drivers__usart.xhtml#gaf42f05f73f1095fc7a2b28ebbf97bf4b" target="_top" xlink:title="Configure USART to work in SPI mode and act as a slave. ">
<polygon fill="white" stroke="black" points="109.5,-0.5 109.5,-19.5 210.5,-19.5 210.5,-0.5 109.5,-0.5"/>
<text text-anchor="middle" x="160" y="-7.5" font-family="Helvetica,sans-Serif" font-size="10.00">usart_init_spi_slave</text>
</a>
</g>
</g>
<!-- Node240&#45;&gt;Node256 -->
<g id="edge6" class="edge"><title>Node240&#45;&gt;Node256</title>
<path fill="none" stroke="midnightblue" d="M45.4026,-86.7669C57.4941,-69.5888 77.7182,-44.2723 101,-29 106.847,-25.1642 113.535,-22.0433 120.241,-19.5237"/>
<polygon fill="midnightblue" stroke="midnightblue" points="42.2885,-85.1217 39.554,-95.3576 48.0748,-89.0611 42.2885,-85.1217"/>
</g>
</g>
</svg>
