<?xml version="1.0" encoding="UTF-8" standalone="no"?>
<!DOCTYPE svg PUBLIC "-//W3C//DTD SVG 1.1//EN"
 "http://www.w3.org/Graphics/SVG/1.1/DTD/svg11.dtd">
<!-- Generated by graphviz version 2.38.0 (20140413.2041)
 -->
<!-- Title: arm_sqrt_f32 Pages: 1 -->
<svg width="193pt" height="66pt"
 viewBox="0.00 0.00 193.00 66.00" xmlns="http://www.w3.org/2000/svg" xmlns:xlink="http://www.w3.org/1999/xlink">
<g id="graph0" class="graph" transform="scale(1 1) rotate(0) translate(4 62)">
<title>arm_sqrt_f32</title>
<polygon fill="white" stroke="none" points="-4,4 -4,-62 189,-62 189,4 -4,4"/>
<!-- Node0 -->
<g id="node1" class="node"><title>Node0</title>
<polygon fill="#bfbfbf" stroke="black" points="0,-19.5 0,-38.5 73,-38.5 73,-19.5 0,-19.5"/>
<text text-anchor="middle" x="36.5" y="-26.5" font-family="Helvetica,sans-Serif" font-size="10.00">arm_sqrt_f32</text>
</g>
<!-- Node1 -->
<g id="node2" class="node"><title>Node1</title>
<g id="a_node2"><a xlink:href="group___s_q_r_t.xhtml#ga119e25831e141d734d7ef10636670058" target="_top" xlink:title="Q31 square root function. ">
<polygon fill="white" stroke="black" points="109,-38.5 109,-57.5 185,-57.5 185,-38.5 109,-38.5"/>
<text text-anchor="middle" x="147" y="-45.5" font-family="Helvetica,sans-Serif" font-size="10.00">arm_sqrt_q31</text>
</a>
</g>
</g>
<!-- Node0&#45;&gt;Node1 -->
<g id="edge1" class="edge"><title>Node0&#45;&gt;Node1</title>
<path fill="none" stroke="midnightblue" d="M73.027,-35.2213C81.2893,-36.6682 90.212,-38.2307 98.8869,-39.7498"/>
<polygon fill="midnightblue" stroke="midnightblue" points="98.4485,-43.2262 108.902,-41.5036 99.656,-36.3311 98.4485,-43.2262"/>
</g>
<!-- Node2 -->
<g id="node3" class="node"><title>Node2</title>
<g id="a_node3"><a xlink:href="group___s_q_r_t.xhtml#ga5abe5ca724f3e15849662b03752c1238" target="_top" xlink:title="Q15 square root function. ">
<polygon fill="white" stroke="black" points="109,-0.5 109,-19.5 185,-19.5 185,-0.5 109,-0.5"/>
<text text-anchor="middle" x="147" y="-7.5" font-family="Helvetica,sans-Serif" font-size="10.00">arm_sqrt_q15</text>
</a>
</g>
</g>
<!-- Node0&#45;&gt;Node2 -->
<g id="edge2" class="edge"><title>Node0&#45;&gt;Node2</title>
<path fill="none" stroke="midnightblue" d="M73.027,-22.7787C81.2893,-21.3318 90.212,-19.7693 98.8869,-18.2502"/>
<polygon fill="midnightblue" stroke="midnightblue" points="99.656,-21.6689 108.902,-16.4964 98.4485,-14.7738 99.656,-21.6689"/>
</g>
</g>
</svg>
