<?xml version="1.0" encoding="UTF-8" standalone="no"?>
<!DOCTYPE svg PUBLIC "-//W3C//DTD SVG 1.1//EN"
 "http://www.w3.org/Graphics/SVG/1.1/DTD/svg11.dtd">
<!-- Generated by graphviz version 2.38.0 (20140413.2041)
 -->
<!-- Title: pll_is_locked Pages: 1 -->
<svg width="247pt" height="66pt"
 viewBox="0.00 0.00 247.00 66.00" xmlns="http://www.w3.org/2000/svg" xmlns:xlink="http://www.w3.org/1999/xlink">
<g id="graph0" class="graph" transform="scale(1 1) rotate(0) translate(4 62)">
<title>pll_is_locked</title>
<polygon fill="white" stroke="none" points="-4,4 -4,-62 243,-62 243,4 -4,4"/>
<!-- Node66 -->
<g id="node1" class="node"><title>Node66</title>
<polygon fill="#bfbfbf" stroke="black" points="0,-19.5 0,-38.5 73,-38.5 73,-19.5 0,-19.5"/>
<text text-anchor="middle" x="36.5" y="-26.5" font-family="Helvetica,sans-Serif" font-size="10.00">pll_is_locked</text>
</g>
<!-- Node67 -->
<g id="node2" class="node"><title>Node67</title>
<g id="a_node2"><a xlink:href="group__pll__group.xhtml#gaa10c871c499867b1db87f9cd1d37ef0f" target="_top" xlink:title="Wait for PLL pll_id to become locked. ">
<polygon fill="white" stroke="red" points="130,-38.5 130,-57.5 218,-57.5 218,-38.5 130,-38.5"/>
<text text-anchor="middle" x="174" y="-45.5" font-family="Helvetica,sans-Serif" font-size="10.00">pll_wait_for_lock</text>
</a>
</g>
</g>
<!-- Node66&#45;&gt;Node67 -->
<g id="edge1" class="edge"><title>Node66&#45;&gt;Node67</title>
<path fill="none" stroke="midnightblue" d="M83.2387,-35.4135C98.3203,-37.5283 115.035,-39.872 129.912,-41.9581"/>
<polygon fill="midnightblue" stroke="midnightblue" points="83.4902,-31.9146 73.101,-33.992 82.5181,-38.8468 83.4902,-31.9146"/>
</g>
<!-- Node74 -->
<g id="node3" class="node"><title>Node74</title>
<g id="a_node3"><a xlink:href="group__pll__group.xhtml#ga6d2b476e97cb089063cb947f9337e647" target="_top" xlink:title="Enable the pll with the default configuration. ">
<polygon fill="white" stroke="red" points="109,-0.5 109,-19.5 239,-19.5 239,-0.5 109,-0.5"/>
<text text-anchor="middle" x="174" y="-7.5" font-family="Helvetica,sans-Serif" font-size="10.00">pll_enable_config_defaults</text>
</a>
</g>
</g>
<!-- Node66&#45;&gt;Node74 -->
<g id="edge2" class="edge"><title>Node66&#45;&gt;Node74</title>
<path fill="none" stroke="midnightblue" d="M83.223,-22.5887C91.453,-21.4346 100.17,-20.2124 108.809,-19.001"/>
<polygon fill="midnightblue" stroke="midnightblue" points="82.5181,-19.1532 73.101,-24.008 83.4902,-26.0854 82.5181,-19.1532"/>
</g>
</g>
</svg>
