<?xml version="1.0" encoding="UTF-8" standalone="no"?>
<!DOCTYPE svg PUBLIC "-//W3C//DTD SVG 1.1//EN"
 "http://www.w3.org/Graphics/SVG/1.1/DTD/svg11.dtd">
<!-- Generated by graphviz version 2.38.0 (20140413.2041)
 -->
<!-- Title: genclk_enable_config Pages: 1 -->
<svg width="283pt" height="180pt"
 viewBox="0.00 0.00 283.00 180.00" xmlns="http://www.w3.org/2000/svg" xmlns:xlink="http://www.w3.org/1999/xlink">
<g id="graph0" class="graph" transform="scale(1 1) rotate(0) translate(4 176)">
<title>genclk_enable_config</title>
<polygon fill="white" stroke="none" points="-4,4 -4,-176 279,-176 279,4 -4,4"/>
<!-- Node20 -->
<g id="node1" class="node"><title>Node20</title>
<polygon fill="#bfbfbf" stroke="black" points="0,-76.5 0,-95.5 110,-95.5 110,-76.5 0,-76.5"/>
<text text-anchor="middle" x="55" y="-83.5" font-family="Helvetica,sans-Serif" font-size="10.00">genclk_enable_config</text>
</g>
<!-- Node21 -->
<g id="node2" class="node"><title>Node21</title>
<g id="a_node2"><a xlink:href="group__genclk__group.xhtml#ga266d1d9af46db320b74f015891fc350d" target="_top" xlink:title="genclk_config_defaults">
<polygon fill="white" stroke="black" points="153,-152.5 153,-171.5 268,-171.5 268,-152.5 153,-152.5"/>
<text text-anchor="middle" x="210.5" y="-159.5" font-family="Helvetica,sans-Serif" font-size="10.00">genclk_config_defaults</text>
</a>
</g>
</g>
<!-- Node20&#45;&gt;Node21 -->
<g id="edge1" class="edge"><title>Node20&#45;&gt;Node21</title>
<path fill="none" stroke="midnightblue" d="M68.7731,-95.69C85.6627,-108.117 116.717,-129.653 146,-143 150.974,-145.267 156.288,-147.347 161.645,-149.231"/>
<polygon fill="midnightblue" stroke="midnightblue" points="160.676,-152.597 171.269,-152.409 162.871,-145.95 160.676,-152.597"/>
</g>
<!-- Node22 -->
<g id="node3" class="node"><title>Node22</title>
<g id="a_node3"><a xlink:href="group__genclk__group.xhtml#gab3fb066ffd9812df1915794fc27216fb" target="_top" xlink:title="Enable the source clock src used by a generic clock. ">
<polygon fill="white" stroke="red" points="154,-114.5 154,-133.5 267,-133.5 267,-114.5 154,-114.5"/>
<text text-anchor="middle" x="210.5" y="-121.5" font-family="Helvetica,sans-Serif" font-size="10.00">genclk_enable_source</text>
</a>
</g>
</g>
<!-- Node20&#45;&gt;Node22 -->
<g id="edge2" class="edge"><title>Node20&#45;&gt;Node22</title>
<path fill="none" stroke="midnightblue" d="M94.7345,-95.589C114.899,-100.581 139.748,-106.732 161.161,-112.033"/>
<polygon fill="midnightblue" stroke="midnightblue" points="160.496,-115.474 171.044,-114.48 162.178,-108.679 160.496,-115.474"/>
</g>
<!-- Node39 -->
<g id="node4" class="node"><title>Node39</title>
<g id="a_node4"><a xlink:href="group__genclk__group.xhtml#gaff2e8e66761e3bba09411d863afbcc50" target="_top" xlink:title="Select a new source clock src in configuration cfg. ">
<polygon fill="white" stroke="black" points="146,-76.5 146,-95.5 275,-95.5 275,-76.5 146,-76.5"/>
<text text-anchor="middle" x="210.5" y="-83.5" font-family="Helvetica,sans-Serif" font-size="10.00">genclk_config_set_source</text>
</a>
</g>
</g>
<!-- Node20&#45;&gt;Node39 -->
<g id="edge3" class="edge"><title>Node20&#45;&gt;Node39</title>
<path fill="none" stroke="midnightblue" d="M110.118,-86C118.432,-86 127.134,-86 135.785,-86"/>
<polygon fill="midnightblue" stroke="midnightblue" points="135.89,-89.5001 145.89,-86 135.89,-82.5001 135.89,-89.5001"/>
</g>
<!-- Node40 -->
<g id="node5" class="node"><title>Node40</title>
<g id="a_node5"><a xlink:href="group__genclk__group.xhtml#gaba61f860039d940d4f57733f4d897d0a" target="_top" xlink:title="genclk_config_set_divider">
<polygon fill="white" stroke="black" points="147,-38.5 147,-57.5 274,-57.5 274,-38.5 147,-38.5"/>
<text text-anchor="middle" x="210.5" y="-45.5" font-family="Helvetica,sans-Serif" font-size="10.00">genclk_config_set_divider</text>
</a>
</g>
</g>
<!-- Node20&#45;&gt;Node40 -->
<g id="edge4" class="edge"><title>Node20&#45;&gt;Node40</title>
<path fill="none" stroke="midnightblue" d="M94.7345,-76.411C114.899,-71.4191 139.748,-65.2676 161.161,-59.9666"/>
<polygon fill="midnightblue" stroke="midnightblue" points="162.178,-63.3206 171.044,-57.5201 160.496,-56.5257 162.178,-63.3206"/>
</g>
<!-- Node41 -->
<g id="node6" class="node"><title>Node41</title>
<g id="a_node6"><a xlink:href="group__genclk__group.xhtml#ga0a7af63a4442cae9ef9907778c7c5d9d" target="_top" xlink:title="genclk_enable">
<polygon fill="white" stroke="red" points="171,-0.5 171,-19.5 250,-19.5 250,-0.5 171,-0.5"/>
<text text-anchor="middle" x="210.5" y="-7.5" font-family="Helvetica,sans-Serif" font-size="10.00">genclk_enable</text>
</a>
</g>
</g>
<!-- Node20&#45;&gt;Node41 -->
<g id="edge5" class="edge"><title>Node20&#45;&gt;Node41</title>
<path fill="none" stroke="midnightblue" d="M68.7731,-76.31C85.6627,-63.8829 116.717,-42.3468 146,-29 150.974,-26.7331 156.288,-24.6533 161.645,-22.7692"/>
<polygon fill="midnightblue" stroke="midnightblue" points="162.871,-26.0502 171.269,-19.5911 160.676,-19.4032 162.871,-26.0502"/>
</g>
</g>
</svg>
