<?xml version="1.0" encoding="UTF-8" standalone="no"?>
<!DOCTYPE svg PUBLIC "-//W3C//DTD SVG 1.1//EN"
 "http://www.w3.org/Graphics/SVG/1.1/DTD/svg11.dtd">
<!-- Generated by graphviz version 2.38.0 (20140413.2041)
 -->
<!-- Title: efc_perform_command Pages: 1 -->
<svg width="242pt" height="104pt"
 viewBox="0.00 0.00 242.00 104.00" xmlns="http://www.w3.org/2000/svg" xmlns:xlink="http://www.w3.org/1999/xlink">
<g id="graph0" class="graph" transform="scale(1 1) rotate(0) translate(4 100)">
<title>efc_perform_command</title>
<polygon fill="white" stroke="none" points="-4,4 -4,-100 238,-100 238,4 -4,4"/>
<!-- Node17 -->
<g id="node1" class="node"><title>Node17</title>
<polygon fill="#bfbfbf" stroke="black" points="0,-38.5 0,-57.5 115,-57.5 115,-38.5 0,-38.5"/>
<text text-anchor="middle" x="57.5" y="-45.5" font-family="Helvetica,sans-Serif" font-size="10.00">efc_perform_command</text>
</g>
<!-- Node18 -->
<g id="node2" class="node"><title>Node18</title>
<g id="a_node2"><a xlink:href="group__interrupt__group.xhtml#ga5992cb015c55a0f4ed563e66a8793771" target="_top" xlink:title="Get and clear the global interrupt flags. ">
<polygon fill="white" stroke="black" points="156,-76.5 156,-95.5 229,-95.5 229,-76.5 156,-76.5"/>
<text text-anchor="middle" x="192.5" y="-83.5" font-family="Helvetica,sans-Serif" font-size="10.00">cpu_irq_save</text>
</a>
</g>
</g>
<!-- Node17&#45;&gt;Node18 -->
<g id="edge1" class="edge"><title>Node17&#45;&gt;Node18</title>
<path fill="none" stroke="midnightblue" d="M92.0615,-57.589C109.073,-62.4494 129.932,-68.4091 148.145,-73.6127"/>
<polygon fill="midnightblue" stroke="midnightblue" points="147.372,-77.0321 157.949,-76.4141 149.296,-70.3014 147.372,-77.0321"/>
</g>
<!-- Node19 -->
<g id="node3" class="node"><title>Node19</title>
<g id="a_node3"><a xlink:href="group__sam__drivers__efc__group.xhtml#gab1eca9d39607dadbaa19e33b0dd6097c" target="_top" xlink:title="Perform command. ">
<polygon fill="white" stroke="black" points="151,-38.5 151,-57.5 234,-57.5 234,-38.5 151,-38.5"/>
<text text-anchor="middle" x="192.5" y="-45.5" font-family="Helvetica,sans-Serif" font-size="10.00">efc_perform_fcr</text>
</a>
</g>
</g>
<!-- Node17&#45;&gt;Node19 -->
<g id="edge2" class="edge"><title>Node17&#45;&gt;Node19</title>
<path fill="none" stroke="midnightblue" d="M115.29,-48C123.823,-48 132.574,-48 140.965,-48"/>
<polygon fill="midnightblue" stroke="midnightblue" points="140.982,-51.5001 150.982,-48 140.982,-44.5001 140.982,-51.5001"/>
</g>
<!-- Node20 -->
<g id="node4" class="node"><title>Node20</title>
<g id="a_node4"><a xlink:href="group__interrupt__group.xhtml#ga428178bc346431936fddf52ad1ebd6fa" target="_top" xlink:title="Restore global interrupt flags. ">
<polygon fill="white" stroke="red" points="151,-0.5 151,-19.5 234,-19.5 234,-0.5 151,-0.5"/>
<text text-anchor="middle" x="192.5" y="-7.5" font-family="Helvetica,sans-Serif" font-size="10.00">cpu_irq_restore</text>
</a>
</g>
</g>
<!-- Node17&#45;&gt;Node20 -->
<g id="edge3" class="edge"><title>Node17&#45;&gt;Node20</title>
<path fill="none" stroke="midnightblue" d="M92.0615,-38.411C109.073,-33.5506 129.932,-27.5909 148.145,-22.3873"/>
<polygon fill="midnightblue" stroke="midnightblue" points="149.296,-25.6986 157.949,-19.5859 147.372,-18.9679 149.296,-25.6986"/>
</g>
</g>
</svg>
