<?xml version="1.0" encoding="UTF-8" standalone="no"?>
<!DOCTYPE svg PUBLIC "-//W3C//DTD SVG 1.1//EN"
 "http://www.w3.org/Graphics/SVG/1.1/DTD/svg11.dtd">
<!-- Generated by graphviz version 2.38.0 (20140413.2041)
 -->
<!-- Title: usart_init_iso7816 Pages: 1 -->
<svg width="264pt" height="66pt"
 viewBox="0.00 0.00 264.00 66.00" xmlns="http://www.w3.org/2000/svg" xmlns:xlink="http://www.w3.org/1999/xlink">
<g id="graph0" class="graph" transform="scale(1 1) rotate(0) translate(4 62)">
<title>usart_init_iso7816</title>
<polygon fill="white" stroke="none" points="-4,4 -4,-62 260,-62 260,4 -4,4"/>
<!-- Node130 -->
<g id="node1" class="node"><title>Node130</title>
<polygon fill="#bfbfbf" stroke="black" points="0,-19.5 0,-38.5 95,-38.5 95,-19.5 0,-19.5"/>
<text text-anchor="middle" x="47.5" y="-26.5" font-family="Helvetica,sans-Serif" font-size="10.00">usart_init_iso7816</text>
</g>
<!-- Node131 -->
<g id="node2" class="node"><title>Node131</title>
<g id="a_node2"><a xlink:href="group__sam__drivers__usart__group.xhtml#ga6cb84f0297ddca62d4077f616efa5c5b" target="_top" xlink:title="Reset the USART and disable TX and RX. ">
<polygon fill="white" stroke="red" points="161,-38.5 161,-57.5 226,-57.5 226,-38.5 161,-38.5"/>
<text text-anchor="middle" x="193.5" y="-45.5" font-family="Helvetica,sans-Serif" font-size="10.00">usart_reset</text>
</a>
</g>
</g>
<!-- Node130&#45;&gt;Node131 -->
<g id="edge1" class="edge"><title>Node130&#45;&gt;Node131</title>
<path fill="none" stroke="midnightblue" d="M95.2527,-35.1688C113.071,-37.5198 133.251,-40.1824 150.592,-42.4704"/>
<polygon fill="midnightblue" stroke="midnightblue" points="150.603,-46.0022 160.975,-43.8405 151.519,-39.0623 150.603,-46.0022"/>
</g>
<!-- Node137 -->
<g id="node3" class="node"><title>Node137</title>
<g id="a_node3"><a xlink:href="group__sam__drivers__usart__group.xhtml#ga70edd599706d258d5a263181930619ae" target="_top" xlink:title="Calculate a clock divider (CD) for the USART ISO7816 mode to generate an ISO7816 clock as close as po...">
<polygon fill="white" stroke="black" points="131,-0.5 131,-19.5 256,-19.5 256,-0.5 131,-0.5"/>
<text text-anchor="middle" x="193.5" y="-7.5" font-family="Helvetica,sans-Serif" font-size="10.00">usart_set_iso7816_clock</text>
</a>
</g>
</g>
<!-- Node130&#45;&gt;Node137 -->
<g id="edge2" class="edge"><title>Node130&#45;&gt;Node137</title>
<path fill="none" stroke="midnightblue" d="M95.2527,-22.8312C103.398,-21.7565 112.037,-20.6166 120.673,-19.4771"/>
<polygon fill="midnightblue" stroke="midnightblue" points="121.324,-22.9217 130.78,-18.1436 120.408,-15.9819 121.324,-22.9217"/>
</g>
</g>
</svg>
