<?xml version="1.0" encoding="UTF-8" standalone="no"?>
<!DOCTYPE svg PUBLIC "-//W3C//DTD SVG 1.1//EN"
 "http://www.w3.org/Graphics/SVG/1.1/DTD/svg11.dtd">
<!-- Generated by graphviz version 2.38.0 (20140413.2041)
 -->
<!-- Title: NVIC_SetPriority Pages: 1 -->
<svg width="230pt" height="78pt"
 viewBox="0.00 0.00 230.00 77.50" xmlns="http://www.w3.org/2000/svg" xmlns:xlink="http://www.w3.org/1999/xlink">
<g id="graph0" class="graph" transform="scale(1 1) rotate(0) translate(4 73.5)">
<title>NVIC_SetPriority</title>
<polygon fill="white" stroke="none" points="-4,4 -4,-73.5 226,-73.5 226,4 -4,4"/>
<!-- Node31 -->
<g id="node1" class="node"><title>Node31</title>
<polygon fill="#bfbfbf" stroke="black" points="0,-22.5 0,-41.5 90,-41.5 90,-22.5 0,-22.5"/>
<text text-anchor="middle" x="45" y="-29.5" font-family="Helvetica,sans-Serif" font-size="10.00">NVIC_SetPriority</text>
</g>
<!-- Node32 -->
<g id="node2" class="node"><title>Node32</title>
<g id="a_node2"><a xlink:href="freertos__peripheral__control__private_8h.xhtml#a7484251dfa9f4e29252315a2bacd051b" target="_top" xlink:title="configure_interrupt\l_controller">
<polygon fill="white" stroke="red" points="126,-39 126,-69 222,-69 222,-39 126,-39"/>
<text text-anchor="start" x="134" y="-57" font-family="Helvetica,sans-Serif" font-size="10.00">configure_interrupt</text>
<text text-anchor="middle" x="174" y="-46" font-family="Helvetica,sans-Serif" font-size="10.00">_controller</text>
</a>
</g>
</g>
<!-- Node31&#45;&gt;Node32 -->
<g id="edge1" class="edge"><title>Node31&#45;&gt;Node32</title>
<path fill="none" stroke="midnightblue" d="M100.043,-41.3617C108.672,-42.8565 117.539,-44.3925 125.988,-45.8561"/>
<polygon fill="midnightblue" stroke="midnightblue" points="100.513,-37.8911 90.062,-39.6328 99.3178,-44.7884 100.513,-37.8911"/>
</g>
<!-- Node37 -->
<g id="node3" class="node"><title>Node37</title>
<g id="a_node3"><a xlink:href="group___c_m_s_i_s___core___sys_tick_functions.xhtml#gae4e8f0238527c69f522029b93c8e5b78" target="_top" xlink:title="System Tick Configuration. ">
<polygon fill="white" stroke="black" points="132,-0.5 132,-19.5 216,-19.5 216,-0.5 132,-0.5"/>
<text text-anchor="middle" x="174" y="-7.5" font-family="Helvetica,sans-Serif" font-size="10.00">SysTick_Config</text>
</a>
</g>
</g>
<!-- Node31&#45;&gt;Node37 -->
<g id="edge2" class="edge"><title>Node31&#45;&gt;Node37</title>
<path fill="none" stroke="midnightblue" d="M100.036,-22.6395C110.594,-20.8106 121.508,-18.9198 131.577,-17.1756"/>
<polygon fill="midnightblue" stroke="midnightblue" points="99.3178,-19.2116 90.062,-24.3672 100.513,-26.1089 99.3178,-19.2116"/>
</g>
</g>
</svg>
