<?xml version="1.0" encoding="UTF-8" standalone="no"?>
<!DOCTYPE svg PUBLIC "-//W3C//DTD SVG 1.1//EN"
 "http://www.w3.org/Graphics/SVG/1.1/DTD/svg11.dtd">
<!-- Generated by graphviz version 2.38.0 (20140413.2041)
 -->
<!-- Title: sysclk_enable_peripheral_clock Pages: 1 -->
<svg width="375pt" height="104pt"
 viewBox="0.00 0.00 375.00 104.00" xmlns="http://www.w3.org/2000/svg" xmlns:xlink="http://www.w3.org/1999/xlink">
<g id="graph0" class="graph" transform="scale(1 1) rotate(0) translate(4 100)">
<title>sysclk_enable_peripheral_clock</title>
<polygon fill="white" stroke="none" points="-4,4 -4,-100 371,-100 371,4 -4,4"/>
<!-- Node40 -->
<g id="node1" class="node"><title>Node40</title>
<polygon fill="#bfbfbf" stroke="black" points="0,-33 0,-63 126,-63 126,-33 0,-33"/>
<text text-anchor="start" x="8" y="-51" font-family="Helvetica,sans-Serif" font-size="10.00">sysclk_enable_peripheral</text>
<text text-anchor="middle" x="63" y="-40" font-family="Helvetica,sans-Serif" font-size="10.00">_clock</text>
</g>
<!-- Node41 -->
<g id="node2" class="node"><title>Node41</title>
<g id="a_node2"><a xlink:href="ioport__pio_8h.xhtml#a292d649a807b515c69d02c6fcb0dd2e9" target="_top" xlink:title="arch_ioport_init">
<polygon fill="white" stroke="red" points="162.5,-76.5 162.5,-95.5 245.5,-95.5 245.5,-76.5 162.5,-76.5"/>
<text text-anchor="middle" x="204" y="-83.5" font-family="Helvetica,sans-Serif" font-size="10.00">arch_ioport_init</text>
</a>
</g>
</g>
<!-- Node40&#45;&gt;Node41 -->
<g id="edge1" class="edge"><title>Node40&#45;&gt;Node41</title>
<path fill="none" stroke="midnightblue" d="M128.732,-65.6965C142.284,-69.4013 156.079,-73.1725 168.042,-76.4432"/>
<polygon fill="midnightblue" stroke="midnightblue" points="129.506,-62.2796 118.936,-63.0186 127.66,-69.0318 129.506,-62.2796"/>
</g>
<!-- Node44 -->
<g id="node3" class="node"><title>Node44</title>
<g id="a_node3"><a xlink:href="uart__serial_8h.xhtml#a9b7530c23e7cf03a4542e50d276f677f" target="_top" xlink:title="Initializes the Usart in master mode. ">
<polygon fill="white" stroke="red" points="282,-19.5 282,-38.5 367,-38.5 367,-19.5 282,-19.5"/>
<text text-anchor="middle" x="324.5" y="-26.5" font-family="Helvetica,sans-Serif" font-size="10.00">usart_serial_init</text>
</a>
</g>
</g>
<!-- Node40&#45;&gt;Node44 -->
<g id="edge2" class="edge"><title>Node40&#45;&gt;Node44</title>
<path fill="none" stroke="midnightblue" d="M136.256,-42.7096C183.114,-39.2787 242.512,-34.9297 281.695,-32.0608"/>
<polygon fill="midnightblue" stroke="midnightblue" points="135.874,-39.2281 126.157,-43.449 136.386,-46.2094 135.874,-39.2281"/>
</g>
<!-- Node49 -->
<g id="node4" class="node"><title>Node49</title>
<g id="a_node4"><a xlink:href="group__sam__drivers__flexcom__group.xhtml#gad2900fd33f36b75e9ff5e5b833ba9943" target="_top" xlink:title="Enable the FLEXCOM module. ">
<polygon fill="white" stroke="red" points="162,-0.5 162,-19.5 246,-19.5 246,-0.5 162,-0.5"/>
<text text-anchor="middle" x="204" y="-7.5" font-family="Helvetica,sans-Serif" font-size="10.00">flexcom_enable</text>
</a>
</g>
</g>
<!-- Node40&#45;&gt;Node49 -->
<g id="edge3" class="edge"><title>Node40&#45;&gt;Node49</title>
<path fill="none" stroke="midnightblue" d="M128.732,-30.3035C142.284,-26.5987 156.079,-22.8275 168.042,-19.5568"/>
<polygon fill="midnightblue" stroke="midnightblue" points="127.66,-26.9682 118.936,-32.9814 129.506,-33.7204 127.66,-26.9682"/>
</g>
<!-- Node49&#45;&gt;Node44 -->
<g id="edge4" class="edge"><title>Node49&#45;&gt;Node44</title>
<path fill="none" stroke="midnightblue" d="M256.01,-18.1787C264.569,-19.5511 273.362,-20.961 281.656,-22.2909"/>
<polygon fill="midnightblue" stroke="midnightblue" points="256.541,-14.7193 246.113,-16.592 255.433,-21.6311 256.541,-14.7193"/>
</g>
</g>
</svg>
