<?xml version="1.0" encoding="UTF-8" standalone="no"?>
<!DOCTYPE svg PUBLIC "-//W3C//DTD SVG 1.1//EN"
 "http://www.w3.org/Graphics/SVG/1.1/DTD/svg11.dtd">
<!-- Generated by graphviz version 2.38.0 (20140413.2041)
 -->
<!-- Title: freertos_usart_write_packet_async Pages: 1 -->
<svg width="274pt" height="176pt"
 viewBox="0.00 0.00 274.00 176.00" xmlns="http://www.w3.org/2000/svg" xmlns:xlink="http://www.w3.org/1999/xlink">
<g id="graph0" class="graph" transform="scale(1 1) rotate(0) translate(4 172)">
<title>freertos_usart_write_packet_async</title>
<polygon fill="white" stroke="none" points="-4,4 -4,-172 270,-172 270,4 -4,4"/>
<!-- Node62 -->
<g id="node1" class="node"><title>Node62</title>
<polygon fill="#bfbfbf" stroke="black" points="0,-66.5 0,-96.5 101,-96.5 101,-66.5 0,-66.5"/>
<text text-anchor="start" x="8" y="-84.5" font-family="Helvetica,sans-Serif" font-size="10.00">freertos_usart_write</text>
<text text-anchor="middle" x="50.5" y="-73.5" font-family="Helvetica,sans-Serif" font-size="10.00">_packet_async</text>
</g>
<!-- Node63 -->
<g id="node2" class="node"><title>Node63</title>
<g id="a_node2"><a xlink:href="freertos__peripheral__control_8c.xhtml#a2a696bb316c52bd93e25d5e9f6aabeed" target="_top" xlink:title="get_pdc_peripheral\l_details">
<polygon fill="white" stroke="black" points="152.5,-137.5 152.5,-167.5 250.5,-167.5 250.5,-137.5 152.5,-137.5"/>
<text text-anchor="start" x="160.5" y="-155.5" font-family="Helvetica,sans-Serif" font-size="10.00">get_pdc_peripheral</text>
<text text-anchor="middle" x="201.5" y="-144.5" font-family="Helvetica,sans-Serif" font-size="10.00">_details</text>
</a>
</g>
</g>
<!-- Node62&#45;&gt;Node63 -->
<g id="edge1" class="edge"><title>Node62&#45;&gt;Node63</title>
<path fill="none" stroke="midnightblue" d="M76.8287,-96.6576C93.5924,-106.379 116.234,-118.926 137,-128.5 140.793,-130.249 144.752,-131.973 148.76,-133.646"/>
<polygon fill="midnightblue" stroke="midnightblue" points="147.559,-136.936 158.141,-137.446 150.186,-130.448 147.559,-136.936"/>
</g>
<!-- Node64 -->
<g id="node3" class="node"><title>Node64</title>
<g id="a_node3"><a xlink:href="freertos__peripheral__control_8c.xhtml#a0a1caf9360006e8e64306ae57b5d5af5" target="_top" xlink:title="freertos_obtain_peripheral\l_access_mutex">
<polygon fill="white" stroke="red" points="137.5,-88.5 137.5,-118.5 265.5,-118.5 265.5,-88.5 137.5,-88.5"/>
<text text-anchor="start" x="145.5" y="-106.5" font-family="Helvetica,sans-Serif" font-size="10.00">freertos_obtain_peripheral</text>
<text text-anchor="middle" x="201.5" y="-95.5" font-family="Helvetica,sans-Serif" font-size="10.00">_access_mutex</text>
</a>
</g>
</g>
<!-- Node62&#45;&gt;Node64 -->
<g id="edge2" class="edge"><title>Node62&#45;&gt;Node64</title>
<path fill="none" stroke="midnightblue" d="M101.115,-88.8257C109.541,-90.0699 118.448,-91.3849 127.329,-92.6963"/>
<polygon fill="midnightblue" stroke="midnightblue" points="126.915,-96.173 137.319,-94.1713 127.938,-89.248 126.915,-96.173"/>
</g>
<!-- Node68 -->
<g id="node4" class="node"><title>Node68</title>
<g id="a_node4"><a xlink:href="group__sam__drivers__usart__group.xhtml#ga33c4b214e790bf6b04c8867dd66c3336" target="_top" xlink:title="Enable USART interrupts. ">
<polygon fill="white" stroke="black" points="145,-50 145,-69 258,-69 258,-50 145,-50"/>
<text text-anchor="middle" x="201.5" y="-57" font-family="Helvetica,sans-Serif" font-size="10.00">usart_enable_interrupt</text>
</a>
</g>
</g>
<!-- Node62&#45;&gt;Node68 -->
<g id="edge3" class="edge"><title>Node62&#45;&gt;Node68</title>
<path fill="none" stroke="midnightblue" d="M101.115,-74.1743C111.984,-72.5695 123.651,-70.8468 135.033,-69.1662"/>
<polygon fill="midnightblue" stroke="midnightblue" points="135.554,-72.6274 144.935,-67.7042 134.531,-65.7025 135.554,-72.6274"/>
</g>
<!-- Node69 -->
<g id="node5" class="node"><title>Node69</title>
<g id="a_node5"><a xlink:href="freertos__peripheral__control_8c.xhtml#a4d2788588e8094331632781d10503e6c" target="_top" xlink:title="freertos_optionally\l_wait_transfer_completion">
<polygon fill="white" stroke="black" points="137,-0.5 137,-30.5 266,-30.5 266,-0.5 137,-0.5"/>
<text text-anchor="start" x="145" y="-18.5" font-family="Helvetica,sans-Serif" font-size="10.00">freertos_optionally</text>
<text text-anchor="middle" x="201.5" y="-7.5" font-family="Helvetica,sans-Serif" font-size="10.00">_wait_transfer_completion</text>
</a>
</g>
</g>
<!-- Node62&#45;&gt;Node69 -->
<g id="edge4" class="edge"><title>Node62&#45;&gt;Node69</title>
<path fill="none" stroke="midnightblue" d="M81.7237,-66.3516C97.9758,-58.3726 118.439,-48.5917 137,-40.5 141.699,-38.4515 146.623,-36.3814 151.563,-34.3554"/>
<polygon fill="midnightblue" stroke="midnightblue" points="153.065,-37.5234 161.025,-30.5311 150.442,-31.0334 153.065,-37.5234"/>
</g>
</g>
</svg>
