<?xml version="1.0" encoding="UTF-8" standalone="no"?>
<!DOCTYPE svg PUBLIC "-//W3C//DTD SVG 1.1//EN"
 "http://www.w3.org/Graphics/SVG/1.1/DTD/svg11.dtd">
<!-- Generated by graphviz version 2.38.0 (20140413.2041)
 -->
<!-- Title: usart_disable_interrupt Pages: 1 -->
<svg width="418pt" height="85pt"
 viewBox="0.00 0.00 418.00 85.00" xmlns="http://www.w3.org/2000/svg" xmlns:xlink="http://www.w3.org/1999/xlink">
<g id="graph0" class="graph" transform="scale(1 1) rotate(0) translate(4 81)">
<title>usart_disable_interrupt</title>
<polygon fill="white" stroke="none" points="-4,4 -4,-81 414,-81 414,4 -4,4"/>
<!-- Node1 -->
<g id="node1" class="node"><title>Node1</title>
<polygon fill="#bfbfbf" stroke="black" points="0,-19.5 0,-38.5 115,-38.5 115,-19.5 0,-19.5"/>
<text text-anchor="middle" x="57.5" y="-26.5" font-family="Helvetica,sans-Serif" font-size="10.00">usart_disable_interrupt</text>
</g>
<!-- Node2 -->
<g id="node2" class="node"><title>Node2</title>
<g id="a_node2"><a xlink:href="group__freertos__usart__peripheral__control__group.xhtml#ga09bccd303f0eafa482a0ffb56d0438b8" target="_top" xlink:title="Initializes the FreeRTOS ASF USART driver for the specified USART port. ">
<polygon fill="white" stroke="red" points="151,-57.5 151,-76.5 273,-76.5 273,-57.5 151,-57.5"/>
<text text-anchor="middle" x="212" y="-64.5" font-family="Helvetica,sans-Serif" font-size="10.00">freertos_usart_serial_init</text>
</a>
</g>
</g>
<!-- Node1&#45;&gt;Node2 -->
<g id="edge1" class="edge"><title>Node1&#45;&gt;Node2</title>
<path fill="none" stroke="midnightblue" d="M106.818,-41.04C128.123,-46.3488 152.804,-52.4988 172.795,-57.4799"/>
<polygon fill="midnightblue" stroke="midnightblue" points="107.532,-37.6108 96.9822,-38.589 105.839,-44.4031 107.532,-37.6108"/>
</g>
<!-- Node6 -->
<g id="node3" class="node"><title>Node6</title>
<g id="a_node3"><a xlink:href="freertos__usart__serial_8c.xhtml#a53cee58d461e19378a8453e89d52424f" target="_top" xlink:title="configure_rx_dma">
<polygon fill="white" stroke="red" points="165.5,-19.5 165.5,-38.5 258.5,-38.5 258.5,-19.5 165.5,-19.5"/>
<text text-anchor="middle" x="212" y="-26.5" font-family="Helvetica,sans-Serif" font-size="10.00">configure_rx_dma</text>
</a>
</g>
</g>
<!-- Node1&#45;&gt;Node6 -->
<g id="edge2" class="edge"><title>Node1&#45;&gt;Node6</title>
<path fill="none" stroke="midnightblue" d="M125.428,-29C138.829,-29 152.618,-29 165.109,-29"/>
<polygon fill="midnightblue" stroke="midnightblue" points="125.285,-25.5001 115.285,-29 125.285,-32.5001 125.285,-25.5001"/>
</g>
<!-- Node9 -->
<g id="node4" class="node"><title>Node9</title>
<g id="a_node4"><a xlink:href="freertos__usart__serial_8c.xhtml#ad44530befbc1c8c93942c53ef729557a" target="_top" xlink:title="local_usart_handler">
<polygon fill="white" stroke="black" points="309,-0.5 309,-19.5 410,-19.5 410,-0.5 309,-0.5"/>
<text text-anchor="middle" x="359.5" y="-7.5" font-family="Helvetica,sans-Serif" font-size="10.00">local_usart_handler</text>
</a>
</g>
</g>
<!-- Node1&#45;&gt;Node9 -->
<g id="edge4" class="edge"><title>Node1&#45;&gt;Node9</title>
<path fill="none" stroke="midnightblue" d="M106.164,-17.2883C120.486,-14.2911 136.3,-11.4941 151,-10 204.759,-4.5358 266.759,-5.47496 308.885,-7.18952"/>
<polygon fill="midnightblue" stroke="midnightblue" points="105.065,-13.9456 96.0369,-19.4905 106.552,-20.7857 105.065,-13.9456"/>
</g>
<!-- Node6&#45;&gt;Node9 -->
<g id="edge3" class="edge"><title>Node6&#45;&gt;Node9</title>
<path fill="none" stroke="midnightblue" d="M268.61,-21.7382C281.898,-20.0031 295.994,-18.1622 308.987,-16.4657"/>
<polygon fill="midnightblue" stroke="midnightblue" points="268.1,-18.2749 258.638,-23.0404 269.007,-25.216 268.1,-18.2749"/>
</g>
</g>
</svg>
