<?xml version="1.0" encoding="UTF-8" standalone="no"?>
<!DOCTYPE svg PUBLIC "-//W3C//DTD SVG 1.1//EN"
 "http://www.w3.org/Graphics/SVG/1.1/DTD/svg11.dtd">
<!-- Generated by graphviz version 2.38.0 (20140413.2041)
 -->
<!-- Title: usart_init_sync_master Pages: 1 -->
<svg width="281pt" height="78pt"
 viewBox="0.00 0.00 281.00 77.50" xmlns="http://www.w3.org/2000/svg" xmlns:xlink="http://www.w3.org/1999/xlink">
<g id="graph0" class="graph" transform="scale(1 1) rotate(0) translate(4 73.5)">
<title>usart_init_sync_master</title>
<polygon fill="white" stroke="none" points="-4,4 -4,-73.5 277,-73.5 277,4 -4,4"/>
<!-- Node189 -->
<g id="node1" class="node"><title>Node189</title>
<polygon fill="#bfbfbf" stroke="black" points="0,-28 0,-47 118,-47 118,-28 0,-28"/>
<text text-anchor="middle" x="59" y="-35" font-family="Helvetica,sans-Serif" font-size="10.00">usart_init_sync_master</text>
</g>
<!-- Node190 -->
<g id="node2" class="node"><title>Node190</title>
<g id="a_node2"><a xlink:href="group__sam__drivers__usart__group.xhtml#ga6cb84f0297ddca62d4077f616efa5c5b" target="_top" xlink:title="Reset the USART and disable TX and RX. ">
<polygon fill="white" stroke="red" points="181,-50 181,-69 246,-69 246,-50 181,-50"/>
<text text-anchor="middle" x="213.5" y="-57" font-family="Helvetica,sans-Serif" font-size="10.00">usart_reset</text>
</a>
</g>
</g>
<!-- Node189&#45;&gt;Node190 -->
<g id="edge1" class="edge"><title>Node189&#45;&gt;Node190</title>
<path fill="none" stroke="midnightblue" d="M118.089,-45.88C135.489,-48.3902 154.229,-51.0936 170.39,-53.4251"/>
<polygon fill="midnightblue" stroke="midnightblue" points="170.2,-56.9339 180.598,-54.8977 171.2,-50.0056 170.2,-56.9339"/>
</g>
<!-- Node196 -->
<g id="node3" class="node"><title>Node196</title>
<g id="a_node3"><a xlink:href="group__sam__drivers__usart__group.xhtml#gac6c9d28298b3db2195c7fb3ffe999678" target="_top" xlink:title="Calculate a clock divider for the USART synchronous master modes to generate a baudrate as close as p...">
<polygon fill="white" stroke="black" points="154,-0.5 154,-30.5 273,-30.5 273,-0.5 154,-0.5"/>
<text text-anchor="start" x="162" y="-18.5" font-family="Helvetica,sans-Serif" font-size="10.00">usart_set_sync_master</text>
<text text-anchor="middle" x="213.5" y="-7.5" font-family="Helvetica,sans-Serif" font-size="10.00">_baudrate</text>
</a>
</g>
</g>
<!-- Node189&#45;&gt;Node196 -->
<g id="edge2" class="edge"><title>Node189&#45;&gt;Node196</title>
<path fill="none" stroke="midnightblue" d="M118.089,-29.12C126.498,-27.9068 135.22,-26.6485 143.813,-25.4089"/>
<polygon fill="midnightblue" stroke="midnightblue" points="144.417,-28.8581 153.815,-23.9661 143.417,-21.9299 144.417,-28.8581"/>
</g>
</g>
</svg>
