<?xml version="1.0" encoding="UTF-8" standalone="no"?>
<!DOCTYPE svg PUBLIC "-//W3C//DTD SVG 1.1//EN"
 "http://www.w3.org/Graphics/SVG/1.1/DTD/svg11.dtd">
<!-- Generated by graphviz version 2.38.0 (20140413.2041)
 -->
<!-- Title: sysclk_disable_peripheral_clock Pages: 1 -->
<svg width="431pt" height="218pt"
 viewBox="0.00 0.00 431.00 218.00" xmlns="http://www.w3.org/2000/svg" xmlns:xlink="http://www.w3.org/1999/xlink">
<g id="graph0" class="graph" transform="scale(1 1) rotate(0) translate(4 214)">
<title>sysclk_disable_peripheral_clock</title>
<polygon fill="white" stroke="none" points="-4,4 -4,-214 427,-214 427,4 -4,4"/>
<!-- Node0 -->
<g id="node1" class="node"><title>Node0</title>
<polygon fill="#bfbfbf" stroke="black" points="0,-90 0,-120 128,-120 128,-90 0,-90"/>
<text text-anchor="start" x="8" y="-108" font-family="Helvetica,sans-Serif" font-size="10.00">sysclk_disable_peripheral</text>
<text text-anchor="middle" x="64" y="-97" font-family="Helvetica,sans-Serif" font-size="10.00">_clock</text>
</g>
<!-- Node1 -->
<g id="node2" class="node"><title>Node1</title>
<g id="a_node2"><a xlink:href="group__sam__drivers__pmc__group.xhtml#ga05fddac6c4c6a749b242f45e1a222772" target="_top" xlink:title="Disable the specified peripheral clock. ">
<polygon fill="white" stroke="black" points="164,-190.5 164,-209.5 285,-209.5 285,-190.5 164,-190.5"/>
<text text-anchor="middle" x="224.5" y="-197.5" font-family="Helvetica,sans-Serif" font-size="10.00">pmc_disable_periph_clk</text>
</a>
</g>
</g>
<!-- Node0&#45;&gt;Node1 -->
<g id="edge1" class="edge"><title>Node0&#45;&gt;Node1</title>
<path fill="none" stroke="midnightblue" d="M80.9506,-120.089C99.5754,-136.997 131.935,-164.229 164,-181 168.222,-183.208 172.747,-185.218 177.348,-187.033"/>
<polygon fill="midnightblue" stroke="midnightblue" points="176.228,-190.35 186.822,-190.484 178.624,-183.773 176.228,-190.35"/>
</g>
<!-- Node2 -->
<g id="node3" class="node"><title>Node2</title>
<g id="a_node3"><a xlink:href="group__sysclk__group.xhtml#ga37ecf2eb697a2fedfff47af0b6f45562" target="_top" xlink:title="Set system clock prescaler configuration. ">
<polygon fill="white" stroke="red" points="167.5,-152.5 167.5,-171.5 281.5,-171.5 281.5,-152.5 167.5,-152.5"/>
<text text-anchor="middle" x="224.5" y="-159.5" font-family="Helvetica,sans-Serif" font-size="10.00">sysclk_set_prescalers</text>
</a>
</g>
</g>
<!-- Node0&#45;&gt;Node2 -->
<g id="edge2" class="edge"><title>Node0&#45;&gt;Node2</title>
<path fill="none" stroke="midnightblue" d="M107.059,-120.125C131.936,-129.072 163.136,-140.292 186.977,-148.865"/>
<polygon fill="midnightblue" stroke="midnightblue" points="186.109,-152.273 196.704,-152.363 188.478,-145.686 186.109,-152.273"/>
</g>
<!-- Node5 -->
<g id="node4" class="node"><title>Node5</title>
<g id="a_node4"><a xlink:href="group__sysclk__group.xhtml#gaaf2d50871a130ef8546cea34ed6ca6f8" target="_top" xlink:title="Change the source of the main system clock. ">
<polygon fill="white" stroke="red" points="175.5,-76.5 175.5,-95.5 273.5,-95.5 273.5,-76.5 175.5,-76.5"/>
<text text-anchor="middle" x="224.5" y="-83.5" font-family="Helvetica,sans-Serif" font-size="10.00">sysclk_set_source</text>
</a>
</g>
</g>
<!-- Node0&#45;&gt;Node5 -->
<g id="edge3" class="edge"><title>Node0&#45;&gt;Node5</title>
<path fill="none" stroke="midnightblue" d="M128.099,-97.4361C140.374,-95.9647 153.189,-94.4285 165.297,-92.9771"/>
<polygon fill="midnightblue" stroke="midnightblue" points="165.762,-96.4465 175.274,-91.781 164.928,-89.4962 165.762,-96.4465"/>
</g>
<!-- Node7 -->
<g id="node5" class="node"><title>Node7</title>
<g id="a_node5"><a xlink:href="group__sysclk__group.xhtml#ga8372ffe2210c0caee63237271fdec131" target="_top" xlink:title="sysclk_enable_usb">
<polygon fill="white" stroke="black" points="322,-95.5 322,-114.5 422,-114.5 422,-95.5 322,-95.5"/>
<text text-anchor="middle" x="372" y="-102.5" font-family="Helvetica,sans-Serif" font-size="10.00">sysclk_enable_usb</text>
</a>
</g>
</g>
<!-- Node0&#45;&gt;Node7 -->
<g id="edge6" class="edge"><title>Node0&#45;&gt;Node7</title>
<path fill="none" stroke="midnightblue" d="M128.032,-105C181.831,-105 258.648,-105 311.428,-105"/>
<polygon fill="midnightblue" stroke="midnightblue" points="311.65,-108.5 321.65,-105 311.65,-101.5 311.65,-108.5"/>
</g>
<!-- Node22 -->
<g id="node6" class="node"><title>Node22</title>
<g id="a_node6"><a xlink:href="group__sysclk__group.xhtml#gad110a0837c9e910d788b9b73fd3d92dd" target="_top" xlink:title="sysclk_disable_usb">
<polygon fill="white" stroke="black" points="321,-48.5 321,-67.5 423,-67.5 423,-48.5 321,-48.5"/>
<text text-anchor="middle" x="372" y="-55.5" font-family="Helvetica,sans-Serif" font-size="10.00">sysclk_disable_usb</text>
</a>
</g>
</g>
<!-- Node0&#45;&gt;Node22 -->
<g id="edge7" class="edge"><title>Node0&#45;&gt;Node22</title>
<path fill="none" stroke="midnightblue" d="M96.3107,-89.9855C115.404,-81.5945 140.568,-71.8714 164,-67 212.538,-56.9092 268.81,-55.0749 310.42,-55.5318"/>
<polygon fill="midnightblue" stroke="midnightblue" points="310.615,-59.0352 320.669,-55.6937 310.726,-52.0361 310.615,-59.0352"/>
</g>
<!-- Node23 -->
<g id="node7" class="node"><title>Node23</title>
<g id="a_node7"><a xlink:href="group__sysclk__group.xhtml#ga242399e48a97739c88b4d0c00f6101de" target="_top" xlink:title="Initialize the synchronous clock system. ">
<polygon fill="white" stroke="red" points="193,-0.5 193,-19.5 256,-19.5 256,-0.5 193,-0.5"/>
<text text-anchor="middle" x="224.5" y="-7.5" font-family="Helvetica,sans-Serif" font-size="10.00">sysclk_init</text>
</a>
</g>
</g>
<!-- Node0&#45;&gt;Node23 -->
<g id="edge8" class="edge"><title>Node0&#45;&gt;Node23</title>
<path fill="none" stroke="midnightblue" d="M83.0972,-89.9901C102.307,-74.557 133.976,-50.5106 164,-34 171.068,-30.1129 178.899,-26.5044 186.496,-23.3279"/>
<polygon fill="midnightblue" stroke="midnightblue" points="187.94,-26.5196 195.917,-19.5469 185.333,-20.0232 187.94,-26.5196"/>
</g>
<!-- Node5&#45;&gt;Node7 -->
<g id="edge4" class="edge"><title>Node5&#45;&gt;Node7</title>
<path fill="none" stroke="midnightblue" d="M273.545,-92.274C285.694,-93.8604 298.885,-95.583 311.524,-97.2333"/>
<polygon fill="midnightblue" stroke="midnightblue" points="311.141,-100.713 321.51,-98.5374 312.048,-93.772 311.141,-100.713"/>
</g>
<!-- Node5&#45;&gt;Node22 -->
<g id="edge5" class="edge"><title>Node5&#45;&gt;Node22</title>
<path fill="none" stroke="midnightblue" d="M273.545,-76.7542C285.694,-74.4163 298.885,-71.8777 311.524,-69.4456"/>
<polygon fill="midnightblue" stroke="midnightblue" points="312.352,-72.8505 321.51,-67.5238 311.029,-65.9767 312.352,-72.8505"/>
</g>
</g>
</svg>
