<?xml version="1.0" encoding="UTF-8" standalone="no"?>
<!DOCTYPE svg PUBLIC "-//W3C//DTD SVG 1.1//EN"
 "http://www.w3.org/Graphics/SVG/1.1/DTD/svg11.dtd">
<!-- Generated by graphviz version 2.38.0 (20140413.2041)
 -->
<!-- Title: Reset_Handler Pages: 1 -->
<svg width="211pt" height="104pt"
 viewBox="0.00 0.00 211.00 104.00" xmlns="http://www.w3.org/2000/svg" xmlns:xlink="http://www.w3.org/1999/xlink">
<g id="graph0" class="graph" transform="scale(1 1) rotate(0) translate(4 100)">
<title>Reset_Handler</title>
<polygon fill="white" stroke="none" points="-4,4 -4,-100 207,-100 207,4 -4,4"/>
<!-- Node34 -->
<g id="node1" class="node"><title>Node34</title>
<polygon fill="#bfbfbf" stroke="black" points="0,-38.5 0,-57.5 80,-57.5 80,-38.5 0,-38.5"/>
<text text-anchor="middle" x="40" y="-45.5" font-family="Helvetica,sans-Serif" font-size="10.00">Reset_Handler</text>
</g>
<!-- Node35 -->
<g id="node2" class="node"><title>Node35</title>
<g id="a_node2"><a xlink:href="fpu_8h.xhtml#ac8197ab2bad6b583cc11f4543cf14c85" target="_top" xlink:title="Enable FPU. ">
<polygon fill="white" stroke="red" points="128,-76.5 128,-95.5 191,-95.5 191,-76.5 128,-76.5"/>
<text text-anchor="middle" x="159.5" y="-83.5" font-family="Helvetica,sans-Serif" font-size="10.00">fpu_enable</text>
</a>
</g>
</g>
<!-- Node34&#45;&gt;Node35 -->
<g id="edge1" class="edge"><title>Node34&#45;&gt;Node35</title>
<path fill="none" stroke="midnightblue" d="M70.6502,-57.589C85.4009,-62.3594 103.426,-68.1888 119.301,-73.3229"/>
<polygon fill="midnightblue" stroke="midnightblue" points="118.267,-76.667 128.859,-76.4141 120.421,-70.0067 118.267,-76.667"/>
</g>
<!-- Node41 -->
<g id="node3" class="node"><title>Node41</title>
<g id="a_node3"><a xlink:href="startup__samg55_8c.xhtml#a5f388c8556f7cb6a84b5692db6b6ad80" target="_top" xlink:title="__libc_init_array">
<polygon fill="white" stroke="black" points="116,-38.5 116,-57.5 203,-57.5 203,-38.5 116,-38.5"/>
<text text-anchor="middle" x="159.5" y="-45.5" font-family="Helvetica,sans-Serif" font-size="10.00">__libc_init_array</text>
</a>
</g>
</g>
<!-- Node34&#45;&gt;Node41 -->
<g id="edge2" class="edge"><title>Node34&#45;&gt;Node41</title>
<path fill="none" stroke="midnightblue" d="M80.1258,-48C88.3789,-48 97.2158,-48 105.873,-48"/>
<polygon fill="midnightblue" stroke="midnightblue" points="105.909,-51.5001 115.908,-48 105.908,-44.5001 105.909,-51.5001"/>
</g>
<!-- Node42 -->
<g id="node4" class="node"><title>Node42</title>
<g id="a_node4"><a xlink:href="main_8c.xhtml#a840291bc02cba5474a4cb46a9b9566fe" target="_top" xlink:title="FreeRTOS Real Time Kernel example entry point. ">
<polygon fill="white" stroke="red" points="140.5,-0.5 140.5,-19.5 178.5,-19.5 178.5,-0.5 140.5,-0.5"/>
<text text-anchor="middle" x="159.5" y="-7.5" font-family="Helvetica,sans-Serif" font-size="10.00">main</text>
</a>
</g>
</g>
<!-- Node34&#45;&gt;Node42 -->
<g id="edge3" class="edge"><title>Node34&#45;&gt;Node42</title>
<path fill="none" stroke="midnightblue" d="M70.6502,-38.411C89.0354,-32.4651 112.507,-24.8743 130.563,-19.0349"/>
<polygon fill="midnightblue" stroke="midnightblue" points="131.792,-22.3162 140.229,-15.9088 129.637,-15.6558 131.792,-22.3162"/>
</g>
</g>
</svg>
