<?xml version="1.0" encoding="UTF-8" standalone="no"?>
<!DOCTYPE svg PUBLIC "-//W3C//DTD SVG 1.1//EN"
 "http://www.w3.org/Graphics/SVG/1.1/DTD/svg11.dtd">
<!-- Generated by graphviz version 2.38.0 (20140413.2041)
 -->
<!-- Title: cpu_irq_save Pages: 1 -->
<svg width="236pt" height="180pt"
 viewBox="0.00 0.00 236.00 180.00" xmlns="http://www.w3.org/2000/svg" xmlns:xlink="http://www.w3.org/1999/xlink">
<g id="graph0" class="graph" transform="scale(1 1) rotate(0) translate(4 176)">
<title>cpu_irq_save</title>
<polygon fill="white" stroke="none" points="-4,4 -4,-176 232,-176 232,4 -4,4"/>
<!-- Node71 -->
<g id="node1" class="node"><title>Node71</title>
<polygon fill="#bfbfbf" stroke="black" points="0,-76.5 0,-95.5 73,-95.5 73,-76.5 0,-76.5"/>
<text text-anchor="middle" x="36.5" y="-83.5" font-family="Helvetica,sans-Serif" font-size="10.00">cpu_irq_save</text>
</g>
<!-- Node72 -->
<g id="node2" class="node"><title>Node72</title>
<g id="a_node2"><a xlink:href="group__sleepmgr__group.xhtml#gac1a7002fd7879c57cc22ccab48be7114" target="_top" xlink:title="Increase lock count for a sleep mode. ">
<polygon fill="white" stroke="red" points="114,-152.5 114,-171.5 223,-171.5 223,-152.5 114,-152.5"/>
<text text-anchor="middle" x="168.5" y="-159.5" font-family="Helvetica,sans-Serif" font-size="10.00">sleepmgr_lock_mode</text>
</a>
</g>
</g>
<!-- Node71&#45;&gt;Node72 -->
<g id="edge1" class="edge"><title>Node71&#45;&gt;Node72</title>
<path fill="none" stroke="midnightblue" d="M54.9948,-102.941C68.7353,-115.467 88.855,-132.163 109,-143 115.865,-146.693 123.572,-149.825 131.082,-152.415"/>
<polygon fill="midnightblue" stroke="midnightblue" points="57.0169,-100.04 47.3206,-95.7703 52.2377,-105.155 57.0169,-100.04"/>
</g>
<!-- Node81 -->
<g id="node3" class="node"><title>Node81</title>
<g id="a_node3"><a xlink:href="group__sleepmgr__group.xhtml#ga0c3c8087f46b2332f8a274c6651afe3f" target="_top" xlink:title="Decrease lock count for a sleep mode. ">
<polygon fill="white" stroke="red" points="109,-114.5 109,-133.5 228,-133.5 228,-114.5 109,-114.5"/>
<text text-anchor="middle" x="168.5" y="-121.5" font-family="Helvetica,sans-Serif" font-size="10.00">sleepmgr_unlock_mode</text>
</a>
</g>
</g>
<!-- Node71&#45;&gt;Node81 -->
<g id="edge2" class="edge"><title>Node71&#45;&gt;Node81</title>
<path fill="none" stroke="midnightblue" d="M80.3839,-98.5353C98.0689,-103.705 118.234,-109.599 134.706,-114.414"/>
<polygon fill="midnightblue" stroke="midnightblue" points="80.8848,-95.0353 70.3045,-95.589 78.9208,-101.754 80.8848,-95.0353"/>
</g>
<!-- Node83 -->
<g id="node4" class="node"><title>Node83</title>
<g id="a_node4"><a xlink:href="group__sam__drivers__efc__group.xhtml#ga48f3f38debde0c03c936f777aef6cc2e" target="_top" xlink:title="Perform the given command and wait until its completion (or an error). ">
<polygon fill="white" stroke="black" points="111,-76.5 111,-95.5 226,-95.5 226,-76.5 111,-76.5"/>
<text text-anchor="middle" x="168.5" y="-83.5" font-family="Helvetica,sans-Serif" font-size="10.00">efc_perform_command</text>
</a>
</g>
</g>
<!-- Node71&#45;&gt;Node83 -->
<g id="edge3" class="edge"><title>Node71&#45;&gt;Node83</title>
<path fill="none" stroke="midnightblue" d="M83.1225,-86C91.9699,-86 101.344,-86 110.504,-86"/>
<polygon fill="midnightblue" stroke="midnightblue" points="83.0231,-82.5001 73.0231,-86 83.023,-89.5001 83.0231,-82.5001"/>
</g>
<!-- Node84 -->
<g id="node5" class="node"><title>Node84</title>
<g id="a_node5"><a xlink:href="fpu_8h.xhtml#ac8197ab2bad6b583cc11f4543cf14c85" target="_top" xlink:title="Enable FPU. ">
<polygon fill="white" stroke="red" points="137,-38.5 137,-57.5 200,-57.5 200,-38.5 137,-38.5"/>
<text text-anchor="middle" x="168.5" y="-45.5" font-family="Helvetica,sans-Serif" font-size="10.00">fpu_enable</text>
</a>
</g>
</g>
<!-- Node71&#45;&gt;Node84 -->
<g id="edge4" class="edge"><title>Node71&#45;&gt;Node84</title>
<path fill="none" stroke="midnightblue" d="M80.0096,-73.5741C98.5897,-68.143 119.966,-61.8944 136.939,-56.9333"/>
<polygon fill="midnightblue" stroke="midnightblue" points="78.9208,-70.2458 70.3045,-76.411 80.8848,-76.9647 78.9208,-70.2458"/>
</g>
<!-- Node85 -->
<g id="node6" class="node"><title>Node85</title>
<g id="a_node6"><a xlink:href="fpu_8h.xhtml#ae58a0e3a39267b099529e2be20a16cf4" target="_top" xlink:title="Disable FPU. ">
<polygon fill="white" stroke="black" points="136,-0.5 136,-19.5 201,-19.5 201,-0.5 136,-0.5"/>
<text text-anchor="middle" x="168.5" y="-7.5" font-family="Helvetica,sans-Serif" font-size="10.00">fpu_disable</text>
</a>
</g>
</g>
<!-- Node71&#45;&gt;Node85 -->
<g id="edge5" class="edge"><title>Node71&#45;&gt;Node85</title>
<path fill="none" stroke="midnightblue" d="M54.9948,-69.059C68.7353,-56.5329 88.855,-39.8368 109,-29 117.37,-24.4976 126.99,-20.8294 135.981,-17.9594"/>
<polygon fill="midnightblue" stroke="midnightblue" points="52.2377,-66.8451 47.3206,-76.2297 57.0169,-71.9598 52.2377,-66.8451"/>
</g>
</g>
</svg>
