<?xml version="1.0" encoding="UTF-8" standalone="no"?>
<!DOCTYPE svg PUBLIC "-//W3C//DTD SVG 1.1//EN"
 "http://www.w3.org/Graphics/SVG/1.1/DTD/svg11.dtd">
<!-- Generated by graphviz version 2.38.0 (20140413.2041)
 -->
<!-- Title: efc_write_fmr Pages: 1 -->
<svg width="258pt" height="180pt"
 viewBox="0.00 0.00 258.00 180.00" xmlns="http://www.w3.org/2000/svg" xmlns:xlink="http://www.w3.org/1999/xlink">
<g id="graph0" class="graph" transform="scale(1 1) rotate(0) translate(4 176)">
<title>efc_write_fmr</title>
<polygon fill="white" stroke="none" points="-4,4 -4,-176 254,-176 254,4 -4,4"/>
<!-- Node42 -->
<g id="node1" class="node"><title>Node42</title>
<polygon fill="#bfbfbf" stroke="black" points="0,-76.5 0,-95.5 74,-95.5 74,-76.5 0,-76.5"/>
<text text-anchor="middle" x="37" y="-83.5" font-family="Helvetica,sans-Serif" font-size="10.00">efc_write_fmr</text>
</g>
<!-- Node43 -->
<g id="node2" class="node"><title>Node43</title>
<g id="a_node2"><a xlink:href="group__sam__drivers__efc__group.xhtml#ga4388e032f274942c2e1c59ad87dd7e6d" target="_top" xlink:title="Initialize the EFC controller. ">
<polygon fill="white" stroke="black" points="156.5,-152.5 156.5,-171.5 203.5,-171.5 203.5,-152.5 156.5,-152.5"/>
<text text-anchor="middle" x="180" y="-159.5" font-family="Helvetica,sans-Serif" font-size="10.00">efc_init</text>
</a>
</g>
</g>
<!-- Node42&#45;&gt;Node43 -->
<g id="edge1" class="edge"><title>Node42&#45;&gt;Node43</title>
<path fill="none" stroke="midnightblue" d="M54.6392,-102.405C68.4237,-115.153 89.0785,-132.394 110,-143 124.629,-150.416 142.517,-155.235 156.413,-158.165"/>
<polygon fill="midnightblue" stroke="midnightblue" points="57.0297,-99.8486 47.3669,-95.5033 52.2109,-104.926 57.0297,-99.8486"/>
</g>
<!-- Node44 -->
<g id="node3" class="node"><title>Node44</title>
<g id="a_node3"><a xlink:href="group__sam__drivers__efc__group.xhtml#gac1a5521f329d65b0dc260e53be5e4d0b" target="_top" xlink:title="Enable the flash ready interrupt. ">
<polygon fill="white" stroke="black" points="117.5,-114.5 117.5,-133.5 242.5,-133.5 242.5,-114.5 117.5,-114.5"/>
<text text-anchor="middle" x="180" y="-121.5" font-family="Helvetica,sans-Serif" font-size="10.00">efc_enable_frdy_interrupt</text>
</a>
</g>
</g>
<!-- Node42&#45;&gt;Node44 -->
<g id="edge2" class="edge"><title>Node42&#45;&gt;Node44</title>
<path fill="none" stroke="midnightblue" d="M83.4398,-98.2462C102.875,-103.484 125.231,-109.509 143.431,-114.414"/>
<polygon fill="midnightblue" stroke="midnightblue" points="84.1465,-94.8118 73.5803,-95.589 82.325,-101.571 84.1465,-94.8118"/>
</g>
<!-- Node45 -->
<g id="node4" class="node"><title>Node45</title>
<g id="a_node4"><a xlink:href="group__sam__drivers__efc__group.xhtml#gaa93a0ef4163a379c7cb82a034e6efe53" target="_top" xlink:title="Disable the flash ready interrupt. ">
<polygon fill="white" stroke="black" points="116.5,-76.5 116.5,-95.5 243.5,-95.5 243.5,-76.5 116.5,-76.5"/>
<text text-anchor="middle" x="180" y="-83.5" font-family="Helvetica,sans-Serif" font-size="10.00">efc_disable_frdy_interrupt</text>
</a>
</g>
</g>
<!-- Node42&#45;&gt;Node45 -->
<g id="edge3" class="edge"><title>Node42&#45;&gt;Node45</title>
<path fill="none" stroke="midnightblue" d="M84.5739,-86C94.7228,-86 105.622,-86 116.281,-86"/>
<polygon fill="midnightblue" stroke="midnightblue" points="84.311,-82.5001 74.311,-86 84.311,-89.5001 84.311,-82.5001"/>
</g>
<!-- Node46 -->
<g id="node5" class="node"><title>Node46</title>
<g id="a_node5"><a xlink:href="group__sam__drivers__efc__group.xhtml#ga7a18fdc2e202f2ce5337f0e0a4f6eecd" target="_top" xlink:title="Set flash access mode. ">
<polygon fill="white" stroke="black" points="110,-38.5 110,-57.5 250,-57.5 250,-38.5 110,-38.5"/>
<text text-anchor="middle" x="180" y="-45.5" font-family="Helvetica,sans-Serif" font-size="10.00">efc_set_flash_access_mode</text>
</a>
</g>
</g>
<!-- Node42&#45;&gt;Node46 -->
<g id="edge4" class="edge"><title>Node42&#45;&gt;Node46</title>
<path fill="none" stroke="midnightblue" d="M83.4398,-73.7538C102.875,-68.516 125.231,-62.4909 143.431,-57.5859"/>
<polygon fill="midnightblue" stroke="midnightblue" points="82.325,-70.4293 73.5803,-76.411 84.1465,-77.1882 82.325,-70.4293"/>
</g>
<!-- Node47 -->
<g id="node6" class="node"><title>Node47</title>
<g id="a_node6"><a xlink:href="group__sam__drivers__efc__group.xhtml#gad128919fd18ca8f30155820220012deb" target="_top" xlink:title="Set flash wait state. ">
<polygon fill="white" stroke="black" points="131,-0.5 131,-19.5 229,-19.5 229,-0.5 131,-0.5"/>
<text text-anchor="middle" x="180" y="-7.5" font-family="Helvetica,sans-Serif" font-size="10.00">efc_set_wait_state</text>
</a>
</g>
</g>
<!-- Node42&#45;&gt;Node47 -->
<g id="edge5" class="edge"><title>Node42&#45;&gt;Node47</title>
<path fill="none" stroke="midnightblue" d="M54.6392,-69.5947C68.4237,-56.8474 89.0785,-39.6056 110,-29 117.536,-25.1798 125.937,-22.0485 134.212,-19.5097"/>
<polygon fill="midnightblue" stroke="midnightblue" points="52.2109,-67.074 47.3669,-76.4967 57.0297,-72.1514 52.2109,-67.074"/>
</g>
</g>
</svg>
