<?xml version="1.0" encoding="UTF-8" standalone="no"?>
<!DOCTYPE svg PUBLIC "-//W3C//DTD SVG 1.1//EN"
 "http://www.w3.org/Graphics/SVG/1.1/DTD/svg11.dtd">
<!-- Generated by graphviz version 2.38.0 (20140413.2041)
 -->
<!-- Title: pmc_disable_pllack Pages: 1 -->
<svg width="246pt" height="142pt"
 viewBox="0.00 0.00 246.00 142.00" xmlns="http://www.w3.org/2000/svg" xmlns:xlink="http://www.w3.org/1999/xlink">
<g id="graph0" class="graph" transform="scale(1 1) rotate(0) translate(4 138)">
<title>pmc_disable_pllack</title>
<polygon fill="white" stroke="none" points="-4,4 -4,-138 242,-138 242,4 -4,4"/>
<!-- Node27 -->
<g id="node1" class="node"><title>Node27</title>
<polygon fill="#bfbfbf" stroke="black" points="0,-57.5 0,-76.5 102,-76.5 102,-57.5 0,-57.5"/>
<text text-anchor="middle" x="51" y="-64.5" font-family="Helvetica,sans-Serif" font-size="10.00">pmc_disable_pllack</text>
</g>
<!-- Node28 -->
<g id="node2" class="node"><title>Node28</title>
<g id="a_node2"><a xlink:href="group__pll__group.xhtml#ga81461ccaed08369e2c35d4796f4a8917" target="_top" xlink:title="pll_config_write">
<polygon fill="white" stroke="black" points="146.5,-114.5 146.5,-133.5 229.5,-133.5 229.5,-114.5 146.5,-114.5"/>
<text text-anchor="middle" x="188" y="-121.5" font-family="Helvetica,sans-Serif" font-size="10.00">pll_config_write</text>
</a>
</g>
</g>
<!-- Node27&#45;&gt;Node28 -->
<g id="edge1" class="edge"><title>Node27&#45;&gt;Node28</title>
<path fill="none" stroke="midnightblue" d="M82.2134,-80.7582C98.6349,-88.1327 119.345,-97.2665 138,-105 145.67,-108.18 154.079,-111.499 161.732,-114.458"/>
<polygon fill="midnightblue" stroke="midnightblue" points="83.6431,-77.5636 73.0882,-76.6435 80.7656,-83.9448 83.6431,-77.5636"/>
</g>
<!-- Node29 -->
<g id="node3" class="node"><title>Node29</title>
<g id="a_node3"><a xlink:href="group__pll__group.xhtml#gac963cb7ae2da65162dc3955129ff846c" target="_top" xlink:title="pll_enable">
<polygon fill="white" stroke="red" points="158,-76.5 158,-95.5 218,-95.5 218,-76.5 158,-76.5"/>
<text text-anchor="middle" x="188" y="-83.5" font-family="Helvetica,sans-Serif" font-size="10.00">pll_enable</text>
</a>
</g>
</g>
<!-- Node27&#45;&gt;Node29 -->
<g id="edge2" class="edge"><title>Node27&#45;&gt;Node29</title>
<path fill="none" stroke="midnightblue" d="M112.519,-75.5175C128.285,-77.7365 144.565,-80.0277 157.868,-81.8999"/>
<polygon fill="midnightblue" stroke="midnightblue" points="112.659,-72.0028 102.269,-74.0749 111.684,-78.9345 112.659,-72.0028"/>
</g>
<!-- Node39 -->
<g id="node4" class="node"><title>Node39</title>
<g id="a_node4"><a xlink:href="group__pll__group.xhtml#ga0c855b2707f0d562c2054dda627e40d8" target="_top" xlink:title="pll_disable">
<polygon fill="white" stroke="black" points="157,-38.5 157,-57.5 219,-57.5 219,-38.5 157,-38.5"/>
<text text-anchor="middle" x="188" y="-45.5" font-family="Helvetica,sans-Serif" font-size="10.00">pll_disable</text>
</a>
</g>
</g>
<!-- Node27&#45;&gt;Node39 -->
<g id="edge3" class="edge"><title>Node27&#45;&gt;Node39</title>
<path fill="none" stroke="midnightblue" d="M112.27,-58.5175C127.653,-56.3525 143.542,-54.1163 156.693,-52.2655"/>
<polygon fill="midnightblue" stroke="midnightblue" points="111.684,-55.0655 102.269,-59.9251 112.659,-61.9972 111.684,-55.0655"/>
</g>
<!-- Node40 -->
<g id="node5" class="node"><title>Node40</title>
<g id="a_node5"><a xlink:href="group__sam__drivers__pmc__group.xhtml#ga3528f3a4d76b718543a0b4154c56d263" target="_top" xlink:title="Enable PLLA clock. ">
<polygon fill="white" stroke="black" points="138,-0.5 138,-19.5 238,-19.5 238,-0.5 138,-0.5"/>
<text text-anchor="middle" x="188" y="-7.5" font-family="Helvetica,sans-Serif" font-size="10.00">pmc_enable_pllack</text>
</a>
</g>
</g>
<!-- Node27&#45;&gt;Node40 -->
<g id="edge4" class="edge"><title>Node27&#45;&gt;Node40</title>
<path fill="none" stroke="midnightblue" d="M82.2134,-53.2418C98.6349,-45.8673 119.345,-36.7335 138,-29 145.67,-25.8204 154.079,-22.5005 161.732,-19.5418"/>
<polygon fill="midnightblue" stroke="midnightblue" points="80.7656,-50.0552 73.0882,-57.3565 83.6431,-56.4364 80.7656,-50.0552"/>
</g>
</g>
</svg>
