<?xml version="1.0" encoding="UTF-8" standalone="no"?>
<!DOCTYPE svg PUBLIC "-//W3C//DTD SVG 1.1//EN"
 "http://www.w3.org/Graphics/SVG/1.1/DTD/svg11.dtd">
<!-- Generated by graphviz version 2.38.0 (20140413.2041)
 -->
<!-- Title: usart_enable_interrupt Pages: 1 -->
<svg width="279pt" height="116pt"
 viewBox="0.00 0.00 279.00 116.00" xmlns="http://www.w3.org/2000/svg" xmlns:xlink="http://www.w3.org/1999/xlink">
<g id="graph0" class="graph" transform="scale(1 1) rotate(0) translate(4 112)">
<title>usart_enable_interrupt</title>
<polygon fill="white" stroke="none" points="-4,4 -4,-112 275,-112 275,4 -4,4"/>
<!-- Node63 -->
<g id="node1" class="node"><title>Node63</title>
<polygon fill="#bfbfbf" stroke="black" points="0,-44.5 0,-63.5 113,-63.5 113,-44.5 0,-44.5"/>
<text text-anchor="middle" x="56.5" y="-51.5" font-family="Helvetica,sans-Serif" font-size="10.00">usart_enable_interrupt</text>
</g>
<!-- Node64 -->
<g id="node2" class="node"><title>Node64</title>
<g id="a_node2"><a xlink:href="group__freertos__usart__peripheral__control__group.xhtml#ga09bccd303f0eafa482a0ffb56d0438b8" target="_top" xlink:title="Initializes the FreeRTOS ASF USART driver for the specified USART port. ">
<polygon fill="white" stroke="red" points="149,-88.5 149,-107.5 271,-107.5 271,-88.5 149,-88.5"/>
<text text-anchor="middle" x="210" y="-95.5" font-family="Helvetica,sans-Serif" font-size="10.00">freertos_usart_serial_init</text>
</a>
</g>
</g>
<!-- Node63&#45;&gt;Node64 -->
<g id="edge1" class="edge"><title>Node63&#45;&gt;Node64</title>
<path fill="none" stroke="midnightblue" d="M99.993,-66.3412C124.123,-73.3493 153.871,-81.9888 176.191,-88.4713"/>
<polygon fill="midnightblue" stroke="midnightblue" points="100.953,-62.9753 90.3732,-63.5473 99.0002,-69.6976 100.953,-62.9753"/>
</g>
<!-- Node68 -->
<g id="node3" class="node"><title>Node68</title>
<g id="a_node3"><a xlink:href="group__freertos__usart__peripheral__control__group.xhtml#ga4f47ec231efeccf8f159c5a14124d0ff" target="_top" xlink:title="Initiate a completely asynchronous multi&#45;byte write operation on a USART peripheral. ">
<polygon fill="white" stroke="red" points="159.5,-39 159.5,-69 260.5,-69 260.5,-39 159.5,-39"/>
<text text-anchor="start" x="167.5" y="-57" font-family="Helvetica,sans-Serif" font-size="10.00">freertos_usart_write</text>
<text text-anchor="middle" x="210" y="-46" font-family="Helvetica,sans-Serif" font-size="10.00">_packet_async</text>
</a>
</g>
</g>
<!-- Node63&#45;&gt;Node68 -->
<g id="edge2" class="edge"><title>Node63&#45;&gt;Node68</title>
<path fill="none" stroke="midnightblue" d="M123.168,-54C135.343,-54 147.871,-54 159.465,-54"/>
<polygon fill="midnightblue" stroke="midnightblue" points="123.053,-50.5001 113.053,-54 123.053,-57.5001 123.053,-50.5001"/>
</g>
<!-- Node70 -->
<g id="node4" class="node"><title>Node70</title>
<g id="a_node4"><a xlink:href="freertos__usart__serial_8c.xhtml#a53cee58d461e19378a8453e89d52424f" target="_top" xlink:title="configure_rx_dma">
<polygon fill="white" stroke="red" points="163.5,-0.5 163.5,-19.5 256.5,-19.5 256.5,-0.5 163.5,-0.5"/>
<text text-anchor="middle" x="210" y="-7.5" font-family="Helvetica,sans-Serif" font-size="10.00">configure_rx_dma</text>
</a>
</g>
</g>
<!-- Node63&#45;&gt;Node70 -->
<g id="edge3" class="edge"><title>Node63&#45;&gt;Node70</title>
<path fill="none" stroke="midnightblue" d="M99.993,-41.6588C124.123,-34.6507 153.871,-26.0112 176.191,-19.5287"/>
<polygon fill="midnightblue" stroke="midnightblue" points="99.0002,-38.3024 90.3732,-44.4527 100.953,-45.0247 99.0002,-38.3024"/>
</g>
</g>
</svg>
