<?xml version="1.0" encoding="UTF-8" standalone="no"?>
<!DOCTYPE svg PUBLIC "-//W3C//DTD SVG 1.1//EN"
 "http://www.w3.org/Graphics/SVG/1.1/DTD/svg11.dtd">
<!-- Generated by graphviz version 2.38.0 (20140413.2041)
 -->
<!-- Title: vPortFree Pages: 1 -->
<svg width="227pt" height="203pt"
 viewBox="0.00 0.00 227.00 202.50" xmlns="http://www.w3.org/2000/svg" xmlns:xlink="http://www.w3.org/1999/xlink">
<g id="graph0" class="graph" transform="scale(1 1) rotate(0) translate(4 198.5)">
<title>vPortFree</title>
<polygon fill="white" stroke="none" points="-4,4 -4,-198.5 223,-198.5 223,4 -4,4"/>
<!-- Node36 -->
<g id="node1" class="node"><title>Node36</title>
<polygon fill="#bfbfbf" stroke="black" points="0,-99 0,-118 58,-118 58,-99 0,-99"/>
<text text-anchor="middle" x="29" y="-106" font-family="Helvetica,sans-Serif" font-size="10.00">vPortFree</text>
</g>
<!-- Node37 -->
<g id="node2" class="node"><title>Node37</title>
<g id="a_node2"><a xlink:href="queue_8c.xhtml#a637daee588a12cec8db050f7ef3f7fa3" target="_top" xlink:title="xQueueCreateMutex">
<polygon fill="white" stroke="black" points="103.5,-175 103.5,-194 209.5,-194 209.5,-175 103.5,-175"/>
<text text-anchor="middle" x="156.5" y="-182" font-family="Helvetica,sans-Serif" font-size="10.00">xQueueCreateMutex</text>
</a>
</g>
</g>
<!-- Node36&#45;&gt;Node37 -->
<g id="edge1" class="edge"><title>Node36&#45;&gt;Node37</title>
<path fill="none" stroke="midnightblue" d="M45.6362,-125.973C57.7365,-138.547 75.5029,-155.065 94,-165.5 100.716,-169.289 108.279,-172.415 115.745,-174.961"/>
<polygon fill="midnightblue" stroke="midnightblue" points="47.9341,-123.305 38.5521,-118.383 42.8167,-128.081 47.9341,-123.305"/>
</g>
<!-- Node38 -->
<g id="node3" class="node"><title>Node38</title>
<g id="a_node3"><a xlink:href="queue_8c.xhtml#a9baffc75681546db871af6aecb346f41" target="_top" xlink:title="vQueueDelete">
<polygon fill="white" stroke="black" points="118,-137 118,-156 195,-156 195,-137 118,-137"/>
<text text-anchor="middle" x="156.5" y="-144" font-family="Helvetica,sans-Serif" font-size="10.00">vQueueDelete</text>
</a>
</g>
</g>
<!-- Node36&#45;&gt;Node38 -->
<g id="edge2" class="edge"><title>Node36&#45;&gt;Node38</title>
<path fill="none" stroke="midnightblue" d="M67.7396,-119.927C85.6614,-125.354 106.838,-131.766 123.898,-136.931"/>
<polygon fill="midnightblue" stroke="midnightblue" points="68.7498,-116.576 58.1646,-117.028 66.7212,-123.276 68.7498,-116.576"/>
</g>
<!-- Node39 -->
<g id="node4" class="node"><title>Node39</title>
<g id="a_node4"><a xlink:href="tasks_8c.xhtml#ad9f111cb55638c317ba63e83bfd416ec" target="_top" xlink:title="prvAllocateTCBAndStack">
<polygon fill="white" stroke="red" points="94,-99 94,-118 219,-118 219,-99 94,-99"/>
<text text-anchor="middle" x="156.5" y="-106" font-family="Helvetica,sans-Serif" font-size="10.00">prvAllocateTCBAndStack</text>
</a>
</g>
</g>
<!-- Node36&#45;&gt;Node39 -->
<g id="edge3" class="edge"><title>Node36&#45;&gt;Node39</title>
<path fill="none" stroke="midnightblue" d="M68.3548,-108.5C76.4286,-108.5 85.1405,-108.5 93.825,-108.5"/>
<polygon fill="midnightblue" stroke="midnightblue" points="68.1647,-105 58.1646,-108.5 68.1646,-112 68.1647,-105"/>
</g>
<!-- Node41 -->
<g id="node5" class="node"><title>Node41</title>
<g id="a_node5"><a xlink:href="task__xethru_8c.xhtml#ac16c15ae1525fa123c03ae9609b0526d" target="_top" xlink:title="mcpw_on_host_parser\l_respiration_moving_list">
<polygon fill="white" stroke="red" points="96.5,-49.5 96.5,-79.5 216.5,-79.5 216.5,-49.5 96.5,-49.5"/>
<text text-anchor="start" x="104.5" y="-67.5" font-family="Helvetica,sans-Serif" font-size="10.00">mcpw_on_host_parser</text>
<text text-anchor="middle" x="156.5" y="-56.5" font-family="Helvetica,sans-Serif" font-size="10.00">_respiration_moving_list</text>
</a>
</g>
</g>
<!-- Node36&#45;&gt;Node41 -->
<g id="edge4" class="edge"><title>Node36&#45;&gt;Node41</title>
<path fill="none" stroke="midnightblue" d="M66.7613,-95.6116C81.1023,-90.5837 97.6431,-84.7845 112.529,-79.5654"/>
<polygon fill="midnightblue" stroke="midnightblue" points="65.5105,-92.3412 57.2316,-98.9527 67.8265,-98.947 65.5105,-92.3412"/>
</g>
<!-- Node53 -->
<g id="node6" class="node"><title>Node53</title>
<g id="a_node6"><a xlink:href="task__xethru_8c.xhtml#ae7ef98041a23d07c679201f09db94a81" target="_top" xlink:title="mcpw_on_host_parser\l_presence_moving_list">
<polygon fill="white" stroke="red" points="99,-0.5 99,-30.5 214,-30.5 214,-0.5 99,-0.5"/>
<text text-anchor="start" x="107" y="-18.5" font-family="Helvetica,sans-Serif" font-size="10.00">mcpw_on_host_parser</text>
<text text-anchor="middle" x="156.5" y="-7.5" font-family="Helvetica,sans-Serif" font-size="10.00">_presence_moving_list</text>
</a>
</g>
</g>
<!-- Node36&#45;&gt;Node53 -->
<g id="edge5" class="edge"><title>Node36&#45;&gt;Node53</title>
<path fill="none" stroke="midnightblue" d="M43.009,-90.8903C54.8883,-75.8321 73.6556,-54.4451 94,-40.5 99.4188,-36.7857 105.473,-33.486 111.612,-30.6005"/>
<polygon fill="midnightblue" stroke="midnightblue" points="40.1586,-88.8557 36.8507,-98.9209 45.7134,-93.1154 40.1586,-88.8557"/>
</g>
</g>
</svg>
