<?xml version="1.0" encoding="UTF-8" standalone="no"?>
<!DOCTYPE svg PUBLIC "-//W3C//DTD SVG 1.1//EN"
 "http://www.w3.org/Graphics/SVG/1.1/DTD/svg11.dtd">
<!-- Generated by graphviz version 2.38.0 (20140413.2041)
 -->
<!-- Title: examples/atmel_samg55/src/ASF/thirdparty/freertos/freertos&#45;7.0.0/source/portable/memmang/heap_3.c Pages: 1 -->
<svg width="310pt" height="117pt"
 viewBox="0.00 0.00 309.50 117.00" xmlns="http://www.w3.org/2000/svg" xmlns:xlink="http://www.w3.org/1999/xlink">
<g id="graph0" class="graph" transform="scale(1 1) rotate(0) translate(4 113)">
<title>examples/atmel_samg55/src/ASF/thirdparty/freertos/freertos&#45;7.0.0/source/portable/memmang/heap_3.c</title>
<polygon fill="white" stroke="none" points="-4,4 -4,-113 305.5,-113 305.5,4 -4,4"/>
<!-- Node0 -->
<g id="node1" class="node"><title>Node0</title>
<polygon fill="#bfbfbf" stroke="black" points="54,-56.5 54,-108.5 200,-108.5 200,-56.5 54,-56.5"/>
<text text-anchor="start" x="62" y="-96.5" font-family="Helvetica,sans-Serif" font-size="10.00">examples/atmel_samg55</text>
<text text-anchor="start" x="62" y="-85.5" font-family="Helvetica,sans-Serif" font-size="10.00">/src/ASF/thirdparty/freertos</text>
<text text-anchor="start" x="62" y="-74.5" font-family="Helvetica,sans-Serif" font-size="10.00">/freertos&#45;7.0.0/source/portable</text>
<text text-anchor="middle" x="127" y="-63.5" font-family="Helvetica,sans-Serif" font-size="10.00">/memmang/heap_3.c</text>
</g>
<!-- Node1 -->
<g id="node2" class="node"><title>Node1</title>
<polygon fill="white" stroke="#bfbfbf" points="0,-0.5 0,-19.5 48,-19.5 48,-0.5 0,-0.5"/>
<text text-anchor="middle" x="24" y="-7.5" font-family="Helvetica,sans-Serif" font-size="10.00">stdlib.h</text>
</g>
<!-- Node0&#45;&gt;Node1 -->
<g id="edge1" class="edge"><title>Node0&#45;&gt;Node1</title>
<path fill="none" stroke="midnightblue" d="M90.396,-56.4458C75.1742,-46.027 58.0528,-34.308 45.0093,-25.3801"/>
<polygon fill="midnightblue" stroke="midnightblue" points="46.9331,-22.4556 36.704,-19.6955 42.9792,-28.232 46.9331,-22.4556"/>
</g>
<!-- Node2 -->
<g id="node3" class="node"><title>Node2</title>
<g id="a_node3"><a xlink:href="_free_r_t_o_s_8h.xhtml" target="_top" xlink:title="../../include/FreeRTOS.h">
<polygon fill="white" stroke="red" points="66,-0.5 66,-19.5 188,-19.5 188,-0.5 66,-0.5"/>
<text text-anchor="middle" x="127" y="-7.5" font-family="Helvetica,sans-Serif" font-size="10.00">../../include/FreeRTOS.h</text>
</a>
</g>
</g>
<!-- Node0&#45;&gt;Node2 -->
<g id="edge2" class="edge"><title>Node0&#45;&gt;Node2</title>
<path fill="none" stroke="midnightblue" d="M127,-56.4458C127,-47.7301 127,-38.1045 127,-29.9641"/>
<polygon fill="midnightblue" stroke="midnightblue" points="130.5,-29.6954 127,-19.6955 123.5,-29.6955 130.5,-29.6954"/>
</g>
<!-- Node9 -->
<g id="node4" class="node"><title>Node9</title>
<g id="a_node4"><a xlink:href="task_8h.xhtml" target="_top" xlink:title="../../include/task.h">
<polygon fill="white" stroke="red" points="206.5,-0.5 206.5,-19.5 301.5,-19.5 301.5,-0.5 206.5,-0.5"/>
<text text-anchor="middle" x="254" y="-7.5" font-family="Helvetica,sans-Serif" font-size="10.00">../../include/task.h</text>
</a>
</g>
</g>
<!-- Node0&#45;&gt;Node9 -->
<g id="edge3" class="edge"><title>Node0&#45;&gt;Node9</title>
<path fill="none" stroke="midnightblue" d="M172.133,-56.4458C191.562,-45.6603 213.502,-33.4814 229.775,-24.448"/>
<polygon fill="midnightblue" stroke="midnightblue" points="231.595,-27.4407 238.639,-19.527 228.197,-21.3204 231.595,-27.4407"/>
</g>
</g>
</svg>
