<?xml version="1.0" encoding="UTF-8" standalone="no"?>
<!DOCTYPE svg PUBLIC "-//W3C//DTD SVG 1.1//EN"
 "http://www.w3.org/Graphics/SVG/1.1/DTD/svg11.dtd">
<!-- Generated by graphviz version 2.38.0 (20140413.2041)
 -->
<!-- Title: Graphical Class Hierarchy Pages: 1 -->
<svg width="204pt" height="66pt"
 viewBox="0.00 0.00 204.00 66.00" xmlns="http://www.w3.org/2000/svg" xmlns:xlink="http://www.w3.org/1999/xlink">
<g id="graph0" class="graph" transform="scale(1 1) rotate(0) translate(4 62)">
<title>Graphical Class Hierarchy</title>
<polygon fill="white" stroke="none" points="-4,4 -4,-62 200,-62 200,4 -4,4"/>
<!-- Node0 -->
<g id="node1" class="node"><title>Node0</title>
<g id="a_node1"><a xlink:href="class_module_io.xhtml" target="_top" xlink:title="ModuleIo">
<polygon fill="white" stroke="black" points="0,-19.5 0,-38.5 56,-38.5 56,-19.5 0,-19.5"/>
<text text-anchor="middle" x="28" y="-26.5" font-family="Helvetica,sans-Serif" font-size="10.00">ModuleIo</text>
</a>
</g>
</g>
<!-- Node1 -->
<g id="node2" class="node"><title>Node1</title>
<g id="a_node2"><a xlink:href="class_linux_module_io.xhtml" target="_top" xlink:title="LinuxModuleIo">
<polygon fill="white" stroke="black" points="104.5,-38.5 104.5,-57.5 183.5,-57.5 183.5,-38.5 104.5,-38.5"/>
<text text-anchor="middle" x="144" y="-45.5" font-family="Helvetica,sans-Serif" font-size="10.00">LinuxModuleIo</text>
</a>
</g>
</g>
<!-- Node0&#45;&gt;Node1 -->
<g id="edge1" class="edge"><title>Node0&#45;&gt;Node1</title>
<path fill="none" stroke="midnightblue" d="M65.8862,-35.1477C78.1019,-37.1837 91.7314,-39.4552 104.094,-41.5157"/>
<polygon fill="midnightblue" stroke="midnightblue" points="66.4558,-31.6944 56.0164,-33.5027 65.3049,-38.5992 66.4558,-31.6944"/>
</g>
<!-- Node2 -->
<g id="node3" class="node"><title>Node2</title>
<g id="a_node3"><a xlink:href="class_overlapped_module_io.xhtml" target="_top" xlink:title="OverlappedModuleIo">
<polygon fill="white" stroke="black" points="92,-0.5 92,-19.5 196,-19.5 196,-0.5 92,-0.5"/>
<text text-anchor="middle" x="144" y="-7.5" font-family="Helvetica,sans-Serif" font-size="10.00">OverlappedModuleIo</text>
</a>
</g>
</g>
<!-- Node0&#45;&gt;Node2 -->
<g id="edge2" class="edge"><title>Node0&#45;&gt;Node2</title>
<path fill="none" stroke="midnightblue" d="M65.9737,-22.8377C74.1481,-21.4753 82.9521,-20.008 91.5837,-18.5694"/>
<polygon fill="midnightblue" stroke="midnightblue" points="65.3049,-19.4008 56.0164,-24.4973 66.4558,-26.3056 65.3049,-19.4008"/>
</g>
</g>
</svg>
