<?xml version="1.0" encoding="UTF-8" standalone="no"?>
<!DOCTYPE svg PUBLIC "-//W3C//DTD SVG 1.1//EN"
 "http://www.w3.org/Graphics/SVG/1.1/DTD/svg11.dtd">
<!-- Generated by graphviz version 2.38.0 (20140413.2041)
 -->
<!-- Title: examples/atmel_samg55/src/ASF/sam/utils/cmsis/samg/samg55/include/instance/gpbr.h Pages: 1 -->
<svg width="955pt" height="128pt"
 viewBox="0.00 0.00 955.00 128.00" xmlns="http://www.w3.org/2000/svg" xmlns:xlink="http://www.w3.org/1999/xlink">
<g id="graph0" class="graph" transform="scale(1 1) rotate(0) translate(4 124)">
<title>examples/atmel_samg55/src/ASF/sam/utils/cmsis/samg/samg55/include/instance/gpbr.h</title>
<polygon fill="white" stroke="none" points="-4,4 -4,-124 951,-124 951,4 -4,4"/>
<!-- Node1 -->
<g id="node1" class="node"><title>Node1</title>
<polygon fill="#bfbfbf" stroke="black" points="382.5,-78.5 382.5,-119.5 567.5,-119.5 567.5,-78.5 382.5,-78.5"/>
<text text-anchor="start" x="390.5" y="-107.5" font-family="Helvetica,sans-Serif" font-size="10.00">examples/atmel_samg55</text>
<text text-anchor="start" x="390.5" y="-96.5" font-family="Helvetica,sans-Serif" font-size="10.00">/src/ASF/sam/utils/cmsis</text>
<text text-anchor="middle" x="475" y="-85.5" font-family="Helvetica,sans-Serif" font-size="10.00">/samg/samg55/include/instance/gpbr.h</text>
</g>
<!-- Node2 -->
<g id="node2" class="node"><title>Node2</title>
<g id="a_node2"><a xlink:href="samg55g18_8h.xhtml" target="_top" xlink:title="Copyright (c) 2014&#45;2015 Atmel Corporation. ">
<polygon fill="white" stroke="black" points="0,-0.5 0,-41.5 176,-41.5 176,-0.5 0,-0.5"/>
<text text-anchor="start" x="8" y="-29.5" font-family="Helvetica,sans-Serif" font-size="10.00">examples/atmel_samg55</text>
<text text-anchor="start" x="8" y="-18.5" font-family="Helvetica,sans-Serif" font-size="10.00">/src/ASF/sam/utils/cmsis</text>
<text text-anchor="middle" x="88" y="-7.5" font-family="Helvetica,sans-Serif" font-size="10.00">/samg/samg55/include/samg55g18.h</text>
</a>
</g>
</g>
<!-- Node1&#45;&gt;Node2 -->
<g id="edge1" class="edge"><title>Node1&#45;&gt;Node2</title>
<path fill="none" stroke="midnightblue" d="M372.374,-78.5084C316.868,-67.8841 247.142,-54.4059 185,-42 182.049,-41.4109 179.049,-40.8089 176.019,-40.1985"/>
<polygon fill="midnightblue" stroke="midnightblue" points="371.734,-81.9493 382.213,-80.3903 373.049,-75.0739 371.734,-81.9493"/>
</g>
<!-- Node3 -->
<g id="node3" class="node"><title>Node3</title>
<g id="a_node3"><a xlink:href="samg55g19_8h.xhtml" target="_top" xlink:title="Copyright (c) 2014&#45;2015 Atmel Corporation. ">
<polygon fill="white" stroke="black" points="194,-0.5 194,-41.5 370,-41.5 370,-0.5 194,-0.5"/>
<text text-anchor="start" x="202" y="-29.5" font-family="Helvetica,sans-Serif" font-size="10.00">examples/atmel_samg55</text>
<text text-anchor="start" x="202" y="-18.5" font-family="Helvetica,sans-Serif" font-size="10.00">/src/ASF/sam/utils/cmsis</text>
<text text-anchor="middle" x="282" y="-7.5" font-family="Helvetica,sans-Serif" font-size="10.00">/samg/samg55/include/samg55g19.h</text>
</a>
</g>
</g>
<!-- Node1&#45;&gt;Node3 -->
<g id="edge2" class="edge"><title>Node1&#45;&gt;Node3</title>
<path fill="none" stroke="midnightblue" d="M415.952,-74.7481C388.936,-64.1096 357.285,-51.6458 331.534,-41.5056"/>
<polygon fill="midnightblue" stroke="midnightblue" points="414.711,-78.0207 425.298,-78.4281 417.276,-71.5075 414.711,-78.0207"/>
</g>
<!-- Node4 -->
<g id="node4" class="node"><title>Node4</title>
<g id="a_node4"><a xlink:href="samg55j18_8h.xhtml" target="_top" xlink:title="Copyright (c) 2014&#45;2015 Atmel Corporation. ">
<polygon fill="white" stroke="black" points="388.5,-0.5 388.5,-41.5 561.5,-41.5 561.5,-0.5 388.5,-0.5"/>
<text text-anchor="start" x="396.5" y="-29.5" font-family="Helvetica,sans-Serif" font-size="10.00">examples/atmel_samg55</text>
<text text-anchor="start" x="396.5" y="-18.5" font-family="Helvetica,sans-Serif" font-size="10.00">/src/ASF/sam/utils/cmsis</text>
<text text-anchor="middle" x="475" y="-7.5" font-family="Helvetica,sans-Serif" font-size="10.00">/samg/samg55/include/samg55j18.h</text>
</a>
</g>
</g>
<!-- Node1&#45;&gt;Node4 -->
<g id="edge3" class="edge"><title>Node1&#45;&gt;Node4</title>
<path fill="none" stroke="midnightblue" d="M475,-68.2965C475,-59.3009 475,-49.6532 475,-41.5056"/>
<polygon fill="midnightblue" stroke="midnightblue" points="471.5,-68.4281 475,-78.4281 478.5,-68.4281 471.5,-68.4281"/>
</g>
<!-- Node5 -->
<g id="node5" class="node"><title>Node5</title>
<g id="a_node5"><a xlink:href="samg55j19_8h.xhtml" target="_top" xlink:title="Copyright (c) 2014&#45;2015 Atmel Corporation. ">
<polygon fill="white" stroke="black" points="579.5,-0.5 579.5,-41.5 752.5,-41.5 752.5,-0.5 579.5,-0.5"/>
<text text-anchor="start" x="587.5" y="-29.5" font-family="Helvetica,sans-Serif" font-size="10.00">examples/atmel_samg55</text>
<text text-anchor="start" x="587.5" y="-18.5" font-family="Helvetica,sans-Serif" font-size="10.00">/src/ASF/sam/utils/cmsis</text>
<text text-anchor="middle" x="666" y="-7.5" font-family="Helvetica,sans-Serif" font-size="10.00">/samg/samg55/include/samg55j19.h</text>
</a>
</g>
</g>
<!-- Node1&#45;&gt;Node5 -->
<g id="edge4" class="edge"><title>Node1&#45;&gt;Node5</title>
<path fill="none" stroke="midnightblue" d="M533.786,-74.6086C560.445,-64.0008 591.607,-51.6015 616.979,-41.5056"/>
<polygon fill="midnightblue" stroke="midnightblue" points="532.185,-71.4789 524.187,-78.4281 534.773,-77.9829 532.185,-71.4789"/>
</g>
<!-- Node6 -->
<g id="node6" class="node"><title>Node6</title>
<g id="a_node6"><a xlink:href="samg55n19_8h.xhtml" target="_top" xlink:title="Copyright (c) 2014&#45;2015 Atmel Corporation. ">
<polygon fill="white" stroke="black" points="771,-0.5 771,-41.5 947,-41.5 947,-0.5 771,-0.5"/>
<text text-anchor="start" x="779" y="-29.5" font-family="Helvetica,sans-Serif" font-size="10.00">examples/atmel_samg55</text>
<text text-anchor="start" x="779" y="-18.5" font-family="Helvetica,sans-Serif" font-size="10.00">/src/ASF/sam/utils/cmsis</text>
<text text-anchor="middle" x="859" y="-7.5" font-family="Helvetica,sans-Serif" font-size="10.00">/samg/samg55/include/samg55n19.h</text>
</a>
</g>
</g>
<!-- Node1&#45;&gt;Node6 -->
<g id="edge5" class="edge"><title>Node1&#45;&gt;Node6</title>
<path fill="none" stroke="midnightblue" d="M577.841,-78.2081C632.559,-67.6083 700.968,-54.2459 762,-42 764.95,-41.408 767.95,-40.8036 770.98,-40.191"/>
<polygon fill="midnightblue" stroke="midnightblue" points="576.941,-74.8174 567.788,-80.1543 578.271,-81.6898 576.941,-74.8174"/>
</g>
</g>
</svg>
