<?xml version="1.0" encoding="UTF-8" standalone="no"?>
<!DOCTYPE svg PUBLIC "-//W3C//DTD SVG 1.1//EN"
 "http://www.w3.org/Graphics/SVG/1.1/DTD/svg11.dtd">
<!-- Generated by graphviz version 2.38.0 (20140413.2041)
 -->
<!-- Title: examples/atmel_samg55/src/ASF/common/utils/interrupt.h Pages: 1 -->
<svg width="245pt" height="262pt"
 viewBox="0.00 0.00 244.50 262.00" xmlns="http://www.w3.org/2000/svg" xmlns:xlink="http://www.w3.org/1999/xlink">
<g id="graph0" class="graph" transform="scale(1 1) rotate(0) translate(4 258)">
<title>examples/atmel_samg55/src/ASF/common/utils/interrupt.h</title>
<polygon fill="white" stroke="none" points="-4,4 -4,-258 240.5,-258 240.5,4 -4,4"/>
<!-- Node2 -->
<g id="node1" class="node"><title>Node2</title>
<polygon fill="#bfbfbf" stroke="black" points="0,-212.5 0,-253.5 125,-253.5 125,-212.5 0,-212.5"/>
<text text-anchor="start" x="8" y="-241.5" font-family="Helvetica,sans-Serif" font-size="10.00">examples/atmel_samg55</text>
<text text-anchor="start" x="8" y="-230.5" font-family="Helvetica,sans-Serif" font-size="10.00">/src/ASF/common/utils</text>
<text text-anchor="middle" x="62.5" y="-219.5" font-family="Helvetica,sans-Serif" font-size="10.00">/interrupt.h</text>
</g>
<!-- Node3 -->
<g id="node2" class="node"><title>Node3</title>
<g id="a_node2"><a xlink:href="sam_2sleepmgr_8h.xhtml" target="_top" xlink:title="SAM3/SAM4 Sleep manager implementation. ">
<polygon fill="white" stroke="red" points="27.5,-67.5 27.5,-108.5 161.5,-108.5 161.5,-67.5 27.5,-67.5"/>
<text text-anchor="start" x="35.5" y="-96.5" font-family="Helvetica,sans-Serif" font-size="10.00">examples/atmel_samg55</text>
<text text-anchor="start" x="35.5" y="-85.5" font-family="Helvetica,sans-Serif" font-size="10.00">/src/ASF/common/services</text>
<text text-anchor="middle" x="94.5" y="-74.5" font-family="Helvetica,sans-Serif" font-size="10.00">/sleepmgr/sam/sleepmgr.h</text>
</a>
</g>
</g>
<!-- Node2&#45;&gt;Node3 -->
<g id="edge1" class="edge"><title>Node2&#45;&gt;Node3</title>
<path fill="none" stroke="midnightblue" d="M68.8502,-202.463C72.4976,-185.615 77.1954,-164.11 81.5,-145 84.2197,-132.926 87.3547,-119.41 89.8646,-108.682"/>
<polygon fill="midnightblue" stroke="midnightblue" points="65.4181,-201.775 66.7278,-212.289 72.2603,-203.253 65.4181,-201.775"/>
</g>
<!-- Node5 -->
<g id="node3" class="node"><title>Node5</title>
<g id="a_node3"><a xlink:href="asf_8h.xhtml" target="_top" xlink:title="Autogenerated API include file for the Atmel Software Framework (ASF) ">
<polygon fill="white" stroke="red" points="32,-0.5 32,-30.5 157,-30.5 157,-0.5 32,-0.5"/>
<text text-anchor="start" x="40" y="-18.5" font-family="Helvetica,sans-Serif" font-size="10.00">examples/atmel_samg55</text>
<text text-anchor="middle" x="94.5" y="-7.5" font-family="Helvetica,sans-Serif" font-size="10.00">/src/asf.h</text>
</a>
</g>
</g>
<!-- Node2&#45;&gt;Node5 -->
<g id="edge6" class="edge"><title>Node2&#45;&gt;Node5</title>
<path fill="none" stroke="midnightblue" d="M42.9814,-203.857C21.993,-169.799 -5.35491,-111.492 18.5,-67 27.2582,-50.665 43.8856,-38.7129 59.3598,-30.5494"/>
<polygon fill="midnightblue" stroke="midnightblue" points="40.0875,-205.828 48.4146,-212.379 45.99,-202.065 40.0875,-205.828"/>
</g>
<!-- Node9 -->
<g id="node4" class="node"><title>Node9</title>
<g id="a_node4"><a xlink:href="compiler_8h.xhtml" target="_top" xlink:title="Commonly used includes, types and macros. ">
<polygon fill="white" stroke="red" points="90.5,-145.5 90.5,-175.5 236.5,-175.5 236.5,-145.5 90.5,-145.5"/>
<text text-anchor="start" x="98.5" y="-163.5" font-family="Helvetica,sans-Serif" font-size="10.00">examples/atmel_samg55</text>
<text text-anchor="middle" x="163.5" y="-152.5" font-family="Helvetica,sans-Serif" font-size="10.00">/src/ASF/sam/utils/compiler.h</text>
</a>
</g>
</g>
<!-- Node2&#45;&gt;Node9 -->
<g id="edge3" class="edge"><title>Node2&#45;&gt;Node9</title>
<path fill="none" stroke="midnightblue" d="M99.1373,-206.426C113.993,-196.057 130.584,-184.476 143.2,-175.67"/>
<polygon fill="midnightblue" stroke="midnightblue" points="96.8308,-203.768 90.6341,-212.362 100.837,-209.508 96.8308,-203.768"/>
</g>
<!-- Node3&#45;&gt;Node5 -->
<g id="edge2" class="edge"><title>Node3&#45;&gt;Node5</title>
<path fill="none" stroke="midnightblue" d="M94.5,-57.08C94.5,-48.0061 94.5,-38.4498 94.5,-30.8916"/>
<polygon fill="midnightblue" stroke="midnightblue" points="91.0001,-57.3618 94.5,-67.3618 98.0001,-57.3619 91.0001,-57.3618"/>
</g>
<!-- Node9&#45;&gt;Node3 -->
<g id="edge4" class="edge"><title>Node9&#45;&gt;Node3</title>
<path fill="none" stroke="midnightblue" d="M142.283,-137.821C133.154,-128.494 122.561,-117.671 113.672,-108.588"/>
<polygon fill="midnightblue" stroke="midnightblue" points="140.041,-140.535 149.537,-145.233 145.044,-135.638 140.041,-140.535"/>
</g>
<!-- Node9&#45;&gt;Node5 -->
<g id="edge5" class="edge"><title>Node9&#45;&gt;Node5</title>
<path fill="none" stroke="midnightblue" d="M172.068,-135.687C177.597,-116.084 181.853,-88.175 170.5,-67 161.742,-50.665 145.114,-38.7129 129.64,-30.5494"/>
<polygon fill="midnightblue" stroke="midnightblue" points="168.686,-134.776 169.047,-145.365 175.368,-136.862 168.686,-134.776"/>
</g>
</g>
</svg>
