<?xml version="1.0" encoding="UTF-8" standalone="no"?>
<!DOCTYPE svg PUBLIC "-//W3C//DTD SVG 1.1//EN"
 "http://www.w3.org/Graphics/SVG/1.1/DTD/svg11.dtd">
<!-- Generated by graphviz version 2.38.0 (20140413.2041)
 -->
<!-- Title: arch_ioport_enable_port Pages: 1 -->
<svg width="280pt" height="66pt"
 viewBox="0.00 0.00 280.00 66.00" xmlns="http://www.w3.org/2000/svg" xmlns:xlink="http://www.w3.org/1999/xlink">
<g id="graph0" class="graph" transform="scale(1 1) rotate(0) translate(4 62)">
<title>arch_ioport_enable_port</title>
<polygon fill="white" stroke="none" points="-4,4 -4,-62 276,-62 276,4 -4,4"/>
<!-- Node22 -->
<g id="node1" class="node"><title>Node22</title>
<polygon fill="#bfbfbf" stroke="black" points="0,-19.5 0,-38.5 120,-38.5 120,-19.5 0,-19.5"/>
<text text-anchor="middle" x="60" y="-26.5" font-family="Helvetica,sans-Serif" font-size="10.00">arch_ioport_enable_port</text>
</g>
<!-- Node23 -->
<g id="node2" class="node"><title>Node23</title>
<g id="a_node2"><a xlink:href="group__ioport__group.xhtml#gaa36631f8401a7a81ba0164da75fe45e9" target="_top" xlink:title="Enable multiple pins in a single IOPORT port. ">
<polygon fill="white" stroke="black" points="166,-38.5 166,-57.5 262,-57.5 262,-38.5 166,-38.5"/>
<text text-anchor="middle" x="214" y="-45.5" font-family="Helvetica,sans-Serif" font-size="10.00">ioport_enable_port</text>
</a>
</g>
</g>
<!-- Node22&#45;&gt;Node23 -->
<g id="edge1" class="edge"><title>Node22&#45;&gt;Node23</title>
<path fill="none" stroke="midnightblue" d="M130.266,-37.6583C142.343,-39.1679 154.649,-40.7061 165.95,-42.1188"/>
<polygon fill="midnightblue" stroke="midnightblue" points="130.559,-34.1678 120.202,-36.4003 129.691,-41.1137 130.559,-34.1678"/>
</g>
<!-- Node24 -->
<g id="node3" class="node"><title>Node24</title>
<g id="a_node3"><a xlink:href="ioport__pio_8h.xhtml#a3c14757dd8d1faed9b958d5380e583c1" target="_top" xlink:title="arch_ioport_enable_pin">
<polygon fill="white" stroke="red" points="156,-0.5 156,-19.5 272,-19.5 272,-0.5 156,-0.5"/>
<text text-anchor="middle" x="214" y="-7.5" font-family="Helvetica,sans-Serif" font-size="10.00">arch_ioport_enable_pin</text>
</a>
</g>
</g>
<!-- Node22&#45;&gt;Node24 -->
<g id="edge2" class="edge"><title>Node22&#45;&gt;Node24</title>
<path fill="none" stroke="midnightblue" d="M130.155,-20.3556C138.701,-19.2874 147.363,-18.2046 155.705,-17.1619"/>
<polygon fill="midnightblue" stroke="midnightblue" points="129.691,-16.8863 120.202,-21.5997 130.559,-23.8322 129.691,-16.8863"/>
</g>
</g>
</svg>
