<?xml version="1.0" encoding="UTF-8" standalone="no"?>
<!DOCTYPE svg PUBLIC "-//W3C//DTD SVG 1.1//EN"
 "http://www.w3.org/Graphics/SVG/1.1/DTD/svg11.dtd">
<!-- Generated by graphviz version 2.38.0 (20140413.2041)
 -->
<!-- Title: arch_ioport_set_port_mode Pages: 1 -->
<svg width="309pt" height="104pt"
 viewBox="0.00 0.00 309.00 104.00" xmlns="http://www.w3.org/2000/svg" xmlns:xlink="http://www.w3.org/1999/xlink">
<g id="graph0" class="graph" transform="scale(1 1) rotate(0) translate(4 100)">
<title>arch_ioport_set_port_mode</title>
<polygon fill="white" stroke="none" points="-4,4 -4,-100 305,-100 305,4 -4,4"/>
<!-- Node179 -->
<g id="node1" class="node"><title>Node179</title>
<polygon fill="#bfbfbf" stroke="black" points="0,-38.5 0,-57.5 134,-57.5 134,-38.5 0,-38.5"/>
<text text-anchor="middle" x="67" y="-45.5" font-family="Helvetica,sans-Serif" font-size="10.00">arch_ioport_set_port_mode</text>
</g>
<!-- Node180 -->
<g id="node2" class="node"><title>Node180</title>
<g id="a_node2"><a xlink:href="group__ioport__group.xhtml#ga5650eb09b10e7c16af9af69a65357484" target="_top" xlink:title="Set multiple pin modes in a single IOPORT port, such as pull&#45;up, pull&#45;down, etc. ">
<polygon fill="white" stroke="black" points="180.5,-76.5 180.5,-95.5 290.5,-95.5 290.5,-76.5 180.5,-76.5"/>
<text text-anchor="middle" x="235.5" y="-83.5" font-family="Helvetica,sans-Serif" font-size="10.00">ioport_set_port_mode</text>
</a>
</g>
</g>
<!-- Node179&#45;&gt;Node180 -->
<g id="edge1" class="edge"><title>Node179&#45;&gt;Node180</title>
<path fill="none" stroke="midnightblue" d="M119.809,-59.8243C143.283,-65.1816 170.665,-71.4311 192.787,-76.4799"/>
<polygon fill="midnightblue" stroke="midnightblue" points="120.543,-56.4019 110.015,-57.589 118.985,-63.2264 120.543,-56.4019"/>
</g>
<!-- Node181 -->
<g id="node3" class="node"><title>Node181</title>
<g id="a_node3"><a xlink:href="group__ioport__group.xhtml#gaacdfb479db1cdc22d8eabd2f1198213c" target="_top" xlink:title="Reset multiple pin modes in a specified IOPORT port to defaults. ">
<polygon fill="white" stroke="black" points="176,-38.5 176,-57.5 295,-57.5 295,-38.5 176,-38.5"/>
<text text-anchor="middle" x="235.5" y="-45.5" font-family="Helvetica,sans-Serif" font-size="10.00">ioport_reset_port_mode</text>
</a>
</g>
</g>
<!-- Node179&#45;&gt;Node181 -->
<g id="edge2" class="edge"><title>Node179&#45;&gt;Node181</title>
<path fill="none" stroke="midnightblue" d="M144.39,-48C155.003,-48 165.765,-48 175.981,-48"/>
<polygon fill="midnightblue" stroke="midnightblue" points="144.284,-44.5001 134.284,-48 144.284,-51.5001 144.284,-44.5001"/>
</g>
<!-- Node182 -->
<g id="node4" class="node"><title>Node182</title>
<g id="a_node4"><a xlink:href="ioport__pio_8h.xhtml#aac4ba5127f61519fb2f981ebefaa85bb" target="_top" xlink:title="arch_ioport_set_pin_mode">
<polygon fill="white" stroke="red" points="170,-0.5 170,-19.5 301,-19.5 301,-0.5 170,-0.5"/>
<text text-anchor="middle" x="235.5" y="-7.5" font-family="Helvetica,sans-Serif" font-size="10.00">arch_ioport_set_pin_mode</text>
</a>
</g>
</g>
<!-- Node179&#45;&gt;Node182 -->
<g id="edge3" class="edge"><title>Node179&#45;&gt;Node182</title>
<path fill="none" stroke="midnightblue" d="M119.809,-36.1757C143.283,-30.8184 170.665,-24.5689 192.787,-19.5201"/>
<polygon fill="midnightblue" stroke="midnightblue" points="118.985,-32.7736 110.015,-38.411 120.543,-39.5981 118.985,-32.7736"/>
</g>
</g>
</svg>
