<?xml version="1.0" encoding="UTF-8" standalone="no"?>
<!DOCTYPE svg PUBLIC "-//W3C//DTD SVG 1.1//EN"
 "http://www.w3.org/Graphics/SVG/1.1/DTD/svg11.dtd">
<!-- Generated by graphviz version 2.38.0 (20140413.2041)
 -->
<!-- Title: examples/atmel_samg55/src/ASF/common/services/ioport/ioport.h Pages: 1 -->
<svg width="360pt" height="195pt"
 viewBox="0.00 0.00 360.00 195.00" xmlns="http://www.w3.org/2000/svg" xmlns:xlink="http://www.w3.org/1999/xlink">
<g id="graph0" class="graph" transform="scale(1 1) rotate(0) translate(4 191)">
<title>examples/atmel_samg55/src/ASF/common/services/ioport/ioport.h</title>
<polygon fill="white" stroke="none" points="-4,4 -4,-191 356,-191 356,4 -4,4"/>
<!-- Node14 -->
<g id="node1" class="node"><title>Node14</title>
<polygon fill="#bfbfbf" stroke="black" points="171.5,-145.5 171.5,-186.5 305.5,-186.5 305.5,-145.5 171.5,-145.5"/>
<text text-anchor="start" x="179.5" y="-174.5" font-family="Helvetica,sans-Serif" font-size="10.00">examples/atmel_samg55</text>
<text text-anchor="start" x="179.5" y="-163.5" font-family="Helvetica,sans-Serif" font-size="10.00">/src/ASF/common/services</text>
<text text-anchor="middle" x="238.5" y="-152.5" font-family="Helvetica,sans-Serif" font-size="10.00">/ioport/ioport.h</text>
</g>
<!-- Node15 -->
<g id="node2" class="node"><title>Node15</title>
<g id="a_node2"><a xlink:href="board__init_8c.xhtml" target="_top" xlink:title="SAMG55 Xplained Pro board initialization. ">
<polygon fill="white" stroke="black" points="0,-67.5 0,-108.5 147,-108.5 147,-67.5 0,-67.5"/>
<text text-anchor="start" x="8" y="-96.5" font-family="Helvetica,sans-Serif" font-size="10.00">examples/atmel_samg55</text>
<text text-anchor="start" x="8" y="-85.5" font-family="Helvetica,sans-Serif" font-size="10.00">/src/ASF/sam/boards/samg55</text>
<text text-anchor="middle" x="73.5" y="-74.5" font-family="Helvetica,sans-Serif" font-size="10.00">_xplained_pro/board_init.c</text>
</a>
</g>
</g>
<!-- Node14&#45;&gt;Node15 -->
<g id="edge1" class="edge"><title>Node14&#45;&gt;Node15</title>
<path fill="none" stroke="midnightblue" d="M186.805,-141.189C163.978,-130.675 137.478,-118.469 115.848,-108.506"/>
<polygon fill="midnightblue" stroke="midnightblue" points="185.461,-144.423 196.008,-145.428 188.39,-138.065 185.461,-144.423"/>
</g>
<!-- Node16 -->
<g id="node3" class="node"><title>Node16</title>
<g id="a_node3"><a xlink:href="led_8h.xhtml" target="_top" xlink:title="SAMG55&#45;XPLAINED&#45;PRO LEDs support package. ">
<polygon fill="white" stroke="black" points="165,-67.5 165,-108.5 312,-108.5 312,-67.5 165,-67.5"/>
<text text-anchor="start" x="173" y="-96.5" font-family="Helvetica,sans-Serif" font-size="10.00">examples/atmel_samg55</text>
<text text-anchor="start" x="173" y="-85.5" font-family="Helvetica,sans-Serif" font-size="10.00">/src/ASF/sam/boards/samg55</text>
<text text-anchor="middle" x="238.5" y="-74.5" font-family="Helvetica,sans-Serif" font-size="10.00">_xplained_pro/led.h</text>
</a>
</g>
</g>
<!-- Node14&#45;&gt;Node16 -->
<g id="edge2" class="edge"><title>Node14&#45;&gt;Node16</title>
<path fill="none" stroke="midnightblue" d="M238.5,-135.297C238.5,-126.301 238.5,-116.653 238.5,-108.506"/>
<polygon fill="midnightblue" stroke="midnightblue" points="235,-135.428 238.5,-145.428 242,-135.428 235,-135.428"/>
</g>
<!-- Node17 -->
<g id="node4" class="node"><title>Node17</title>
<g id="a_node4"><a xlink:href="asf_8h.xhtml" target="_top" xlink:title="Autogenerated API include file for the Atmel Software Framework (ASF) ">
<polygon fill="white" stroke="red" points="227,-0.5 227,-30.5 352,-30.5 352,-0.5 227,-0.5"/>
<text text-anchor="start" x="235" y="-18.5" font-family="Helvetica,sans-Serif" font-size="10.00">examples/atmel_samg55</text>
<text text-anchor="middle" x="289.5" y="-7.5" font-family="Helvetica,sans-Serif" font-size="10.00">/src/asf.h</text>
</a>
</g>
</g>
<!-- Node14&#45;&gt;Node17 -->
<g id="edge4" class="edge"><title>Node14&#45;&gt;Node17</title>
<path fill="none" stroke="midnightblue" d="M292.447,-139.782C304.082,-131.672 314.868,-121.474 321.5,-109 335.459,-82.7425 315.38,-49.1586 301.276,-30.5351"/>
<polygon fill="midnightblue" stroke="midnightblue" points="290.373,-136.955 283.872,-145.321 294.172,-142.835 290.373,-136.955"/>
</g>
<!-- Node16&#45;&gt;Node17 -->
<g id="edge3" class="edge"><title>Node16&#45;&gt;Node17</title>
<path fill="none" stroke="midnightblue" d="M258.653,-59.1417C265.648,-49.4718 273.205,-39.0249 279.089,-30.8916"/>
<polygon fill="midnightblue" stroke="midnightblue" points="255.732,-57.2081 252.706,-67.3618 261.403,-61.311 255.732,-57.2081"/>
</g>
</g>
</svg>
