<?xml version="1.0" encoding="UTF-8" standalone="no"?>
<!DOCTYPE svg PUBLIC "-//W3C//DTD SVG 1.1//EN"
 "http://www.w3.org/Graphics/SVG/1.1/DTD/svg11.dtd">
<!-- Generated by graphviz version 2.38.0 (20140413.2041)
 -->
<!-- Title: arch_ioport_set_pin_dir Pages: 1 -->
<svg width="286pt" height="66pt"
 viewBox="0.00 0.00 286.00 66.00" xmlns="http://www.w3.org/2000/svg" xmlns:xlink="http://www.w3.org/1999/xlink">
<g id="graph0" class="graph" transform="scale(1 1) rotate(0) translate(4 62)">
<title>arch_ioport_set_pin_dir</title>
<polygon fill="white" stroke="none" points="-4,4 -4,-62 282,-62 282,4 -4,4"/>
<!-- Node137 -->
<g id="node1" class="node"><title>Node137</title>
<polygon fill="#bfbfbf" stroke="black" points="0,-19.5 0,-38.5 117,-38.5 117,-19.5 0,-19.5"/>
<text text-anchor="middle" x="58.5" y="-26.5" font-family="Helvetica,sans-Serif" font-size="10.00">arch_ioport_set_pin_dir</text>
</g>
<!-- Node138 -->
<g id="node2" class="node"><title>Node138</title>
<g id="a_node2"><a xlink:href="ioport__pio_8h.xhtml#a9f41f6e31f878692e4dc785b7e5e1ad1" target="_top" xlink:title="arch_ioport_pin_to_base">
<polygon fill="white" stroke="red" points="154.5,-38.5 154.5,-57.5 276.5,-57.5 276.5,-38.5 154.5,-38.5"/>
<text text-anchor="middle" x="215.5" y="-45.5" font-family="Helvetica,sans-Serif" font-size="10.00">arch_ioport_pin_to_base</text>
</a>
</g>
</g>
<!-- Node137&#45;&gt;Node138 -->
<g id="edge1" class="edge"><title>Node137&#45;&gt;Node138</title>
<path fill="none" stroke="midnightblue" d="M117.216,-36.0749C126.034,-37.1558 135.218,-38.2815 144.268,-39.3909"/>
<polygon fill="midnightblue" stroke="midnightblue" points="144.052,-42.8905 154.403,-40.6333 144.903,-35.9425 144.052,-42.8905"/>
</g>
<!-- Node141 -->
<g id="node3" class="node"><title>Node141</title>
<g id="a_node3"><a xlink:href="ioport__pio_8h.xhtml#a69fd7bdfb41664b749080e509798165e" target="_top" xlink:title="arch_ioport_pin_to_mask">
<polygon fill="white" stroke="black" points="153,-0.5 153,-19.5 278,-19.5 278,-0.5 153,-0.5"/>
<text text-anchor="middle" x="215.5" y="-7.5" font-family="Helvetica,sans-Serif" font-size="10.00">arch_ioport_pin_to_mask</text>
</a>
</g>
</g>
<!-- Node137&#45;&gt;Node141 -->
<g id="edge2" class="edge"><title>Node137&#45;&gt;Node141</title>
<path fill="none" stroke="midnightblue" d="M117.216,-21.9251C125.568,-20.9014 134.248,-19.8373 142.832,-18.7851"/>
<polygon fill="midnightblue" stroke="midnightblue" points="143.34,-22.2491 152.84,-17.5583 142.488,-15.3011 143.34,-22.2491"/>
</g>
</g>
</svg>
