<?xml version="1.0" encoding="UTF-8" standalone="no"?>
<!DOCTYPE svg PUBLIC "-//W3C//DTD SVG 1.1//EN"
 "http://www.w3.org/Graphics/SVG/1.1/DTD/svg11.dtd">
<!-- Generated by graphviz version 2.38.0 (20140413.2041)
 -->
<!-- Title: arch_ioport_port_to_base Pages: 1 -->
<svg width="304pt" height="377pt"
 viewBox="0.00 0.00 304.00 376.50" xmlns="http://www.w3.org/2000/svg" xmlns:xlink="http://www.w3.org/1999/xlink">
<g id="graph0" class="graph" transform="scale(1 1) rotate(0) translate(4 372.5)">
<title>arch_ioport_port_to_base</title>
<polygon fill="white" stroke="none" points="-4,4 -4,-372.5 300,-372.5 300,4 -4,4"/>
<!-- Node100 -->
<g id="node1" class="node"><title>Node100</title>
<polygon fill="#bfbfbf" stroke="black" points="0,-197 0,-216 126,-216 126,-197 0,-197"/>
<text text-anchor="middle" x="63" y="-204" font-family="Helvetica,sans-Serif" font-size="10.00">arch_ioport_port_to_base</text>
</g>
<!-- Node101 -->
<g id="node2" class="node"><title>Node101</title>
<g id="a_node2"><a xlink:href="ioport__pio_8h.xhtml#a9f41f6e31f878692e4dc785b7e5e1ad1" target="_top" xlink:title="arch_ioport_pin_to_base">
<polygon fill="white" stroke="red" points="168,-349 168,-368 290,-368 290,-349 168,-349"/>
<text text-anchor="middle" x="229" y="-356" font-family="Helvetica,sans-Serif" font-size="10.00">arch_ioport_pin_to_base</text>
</a>
</g>
</g>
<!-- Node100&#45;&gt;Node101 -->
<g id="edge1" class="edge"><title>Node100&#45;&gt;Node101</title>
<path fill="none" stroke="midnightblue" d="M72.7627,-225.283C87.222,-254.209 118.831,-309.454 162,-339.5 167.578,-343.383 173.945,-346.478 180.471,-348.945"/>
<polygon fill="midnightblue" stroke="midnightblue" points="75.8865,-223.703 68.3727,-216.233 69.5885,-226.758 75.8865,-223.703"/>
</g>
<!-- Node111 -->
<g id="node3" class="node"><title>Node111</title>
<g id="a_node3"><a xlink:href="ioport__pio_8h.xhtml#aa6472a0ec5f81577b9cde2d59bc1fd24" target="_top" xlink:title="arch_ioport_enable_port">
<polygon fill="white" stroke="red" points="169,-311 169,-330 289,-330 289,-311 169,-311"/>
<text text-anchor="middle" x="229" y="-318" font-family="Helvetica,sans-Serif" font-size="10.00">arch_ioport_enable_port</text>
</a>
</g>
</g>
<!-- Node100&#45;&gt;Node111 -->
<g id="edge2" class="edge"><title>Node100&#45;&gt;Node111</title>
<path fill="none" stroke="midnightblue" d="M77.524,-224.102C94.8468,-245.463 126.859,-281.142 162,-301.5 168.603,-305.325 176.03,-308.426 183.455,-310.924"/>
<polygon fill="midnightblue" stroke="midnightblue" points="80.1864,-221.827 71.2307,-216.166 74.7016,-226.176 80.1864,-221.827"/>
</g>
<!-- Node115 -->
<g id="node4" class="node"><title>Node115</title>
<g id="a_node4"><a xlink:href="ioport__pio_8h.xhtml#af570c68f452d88cc2643b2e9edf1c3ad" target="_top" xlink:title="arch_ioport_disable_port">
<polygon fill="white" stroke="red" points="168,-273 168,-292 290,-292 290,-273 168,-273"/>
<text text-anchor="middle" x="229" y="-280" font-family="Helvetica,sans-Serif" font-size="10.00">arch_ioport_disable_port</text>
</a>
</g>
</g>
<!-- Node100&#45;&gt;Node115 -->
<g id="edge3" class="edge"><title>Node100&#45;&gt;Node115</title>
<path fill="none" stroke="midnightblue" d="M86.4445,-221.709C105.788,-234.28 134.81,-251.89 162,-263.5 170.444,-267.105 179.779,-270.261 188.706,-272.911"/>
<polygon fill="midnightblue" stroke="midnightblue" points="88.3035,-218.742 78.0284,-216.159 84.4498,-224.586 88.3035,-218.742"/>
</g>
<!-- Node119 -->
<g id="node5" class="node"><title>Node119</title>
<g id="a_node5"><a xlink:href="ioport__pio_8h.xhtml#a6739905dc552d38327247c322dc5b2a3" target="_top" xlink:title="arch_ioport_set_port_mode">
<polygon fill="white" stroke="red" points="162,-235 162,-254 296,-254 296,-235 162,-235"/>
<text text-anchor="middle" x="229" y="-242" font-family="Helvetica,sans-Serif" font-size="10.00">arch_ioport_set_port_mode</text>
</a>
</g>
</g>
<!-- Node100&#45;&gt;Node119 -->
<g id="edge4" class="edge"><title>Node100&#45;&gt;Node119</title>
<path fill="none" stroke="midnightblue" d="M115.341,-218.396C138.393,-223.737 165.221,-229.954 186.913,-234.98"/>
<polygon fill="midnightblue" stroke="midnightblue" points="115.916,-214.937 105.384,-216.089 114.336,-221.756 115.916,-214.937"/>
</g>
<!-- Node125 -->
<g id="node6" class="node"><title>Node125</title>
<g id="a_node6"><a xlink:href="ioport__pio_8h.xhtml#a873196c80651c941e4d866e89905bc4c" target="_top" xlink:title="arch_ioport_set_port_dir">
<polygon fill="white" stroke="red" points="168.5,-197 168.5,-216 289.5,-216 289.5,-197 168.5,-197"/>
<text text-anchor="middle" x="229" y="-204" font-family="Helvetica,sans-Serif" font-size="10.00">arch_ioport_set_port_dir</text>
</a>
</g>
</g>
<!-- Node100&#45;&gt;Node125 -->
<g id="edge5" class="edge"><title>Node100&#45;&gt;Node125</title>
<path fill="none" stroke="midnightblue" d="M136.203,-206.5C146.943,-206.5 157.909,-206.5 168.352,-206.5"/>
<polygon fill="midnightblue" stroke="midnightblue" points="136.001,-203 126.001,-206.5 136.001,-210 136.001,-203"/>
</g>
<!-- Node127 -->
<g id="node7" class="node"><title>Node127</title>
<g id="a_node7"><a xlink:href="ioport__pio_8h.xhtml#a289b4a6c7fcfb1d49c20fe82563ca8aa" target="_top" xlink:title="arch_ioport_set_port\l_level">
<polygon fill="white" stroke="red" points="176.5,-147.5 176.5,-177.5 281.5,-177.5 281.5,-147.5 176.5,-147.5"/>
<text text-anchor="start" x="184.5" y="-165.5" font-family="Helvetica,sans-Serif" font-size="10.00">arch_ioport_set_port</text>
<text text-anchor="middle" x="229" y="-154.5" font-family="Helvetica,sans-Serif" font-size="10.00">_level</text>
</a>
</g>
</g>
<!-- Node100&#45;&gt;Node127 -->
<g id="edge6" class="edge"><title>Node100&#45;&gt;Node127</title>
<path fill="none" stroke="midnightblue" d="M109.423,-194.313C130.168,-188.748 154.842,-182.128 176.296,-176.372"/>
<polygon fill="midnightblue" stroke="midnightblue" points="108.337,-190.981 99.5856,-196.953 110.151,-197.742 108.337,-190.981"/>
</g>
<!-- Node129 -->
<g id="node8" class="node"><title>Node129</title>
<g id="a_node8"><a xlink:href="ioport__pio_8h.xhtml#a6a817b1e23d9ce4e69531077d1ab6422" target="_top" xlink:title="arch_ioport_get_port\l_level">
<polygon fill="white" stroke="red" points="176.5,-98.5 176.5,-128.5 281.5,-128.5 281.5,-98.5 176.5,-98.5"/>
<text text-anchor="start" x="184.5" y="-116.5" font-family="Helvetica,sans-Serif" font-size="10.00">arch_ioport_get_port</text>
<text text-anchor="middle" x="229" y="-105.5" font-family="Helvetica,sans-Serif" font-size="10.00">_level</text>
</a>
</g>
</g>
<!-- Node100&#45;&gt;Node129 -->
<g id="edge7" class="edge"><title>Node100&#45;&gt;Node129</title>
<path fill="none" stroke="midnightblue" d="M83.7378,-190.638C102.902,-175.774 133.234,-153.635 162,-138.5 168.831,-134.906 176.298,-131.566 183.672,-128.574"/>
<polygon fill="midnightblue" stroke="midnightblue" points="81.4641,-187.973 75.7643,-196.904 85.7895,-193.477 81.4641,-187.973"/>
</g>
<!-- Node131 -->
<g id="node9" class="node"><title>Node131</title>
<g id="a_node9"><a xlink:href="ioport__pio_8h.xhtml#ae628b207f4ca33d690c5e409aa926329" target="_top" xlink:title="arch_ioport_toggle\l_port_level">
<polygon fill="white" stroke="red" points="181,-49.5 181,-79.5 277,-79.5 277,-49.5 181,-49.5"/>
<text text-anchor="start" x="189" y="-67.5" font-family="Helvetica,sans-Serif" font-size="10.00">arch_ioport_toggle</text>
<text text-anchor="middle" x="229" y="-56.5" font-family="Helvetica,sans-Serif" font-size="10.00">_port_level</text>
</a>
</g>
</g>
<!-- Node100&#45;&gt;Node131 -->
<g id="edge8" class="edge"><title>Node100&#45;&gt;Node131</title>
<path fill="none" stroke="midnightblue" d="M74.9795,-188.241C91.1094,-162.832 123.505,-116.855 162,-89.5 167.693,-85.4544 174.123,-81.971 180.679,-79"/>
<polygon fill="midnightblue" stroke="midnightblue" points="71.9112,-186.548 69.6151,-196.891 77.8601,-190.237 71.9112,-186.548"/>
</g>
<!-- Node133 -->
<g id="node10" class="node"><title>Node133</title>
<g id="a_node10"><a xlink:href="ioport__pio_8h.xhtml#a10d5e38f1bdf4c3c9e0896557510d5db" target="_top" xlink:title="arch_ioport_set_port\l_sense_mode">
<polygon fill="white" stroke="red" points="176.5,-0.5 176.5,-30.5 281.5,-30.5 281.5,-0.5 176.5,-0.5"/>
<text text-anchor="start" x="184.5" y="-18.5" font-family="Helvetica,sans-Serif" font-size="10.00">arch_ioport_set_port</text>
<text text-anchor="middle" x="229" y="-7.5" font-family="Helvetica,sans-Serif" font-size="10.00">_sense_mode</text>
</a>
</g>
</g>
<!-- Node100&#45;&gt;Node133 -->
<g id="edge9" class="edge"><title>Node100&#45;&gt;Node133</title>
<path fill="none" stroke="midnightblue" d="M70.5835,-186.98C83.0988,-152.674 113.487,-81.3443 162,-40.5 166.593,-36.6332 171.845,-33.3307 177.337,-30.5182"/>
<polygon fill="midnightblue" stroke="midnightblue" points="67.1697,-186.137 67.1478,-196.731 73.772,-188.463 67.1697,-186.137"/>
</g>
</g>
</svg>
