<?xml version="1.0" encoding="UTF-8" standalone="no"?>
<!DOCTYPE svg PUBLIC "-//W3C//DTD SVG 1.1//EN"
 "http://www.w3.org/Graphics/SVG/1.1/DTD/svg11.dtd">
<!-- Generated by graphviz version 2.38.0 (20140413.2041)
 -->
<!-- Title: arch_ioport_pin_to_base Pages: 1 -->
<svg width="283pt" height="176pt"
 viewBox="0.00 0.00 283.00 175.50" xmlns="http://www.w3.org/2000/svg" xmlns:xlink="http://www.w3.org/1999/xlink">
<g id="graph0" class="graph" transform="scale(1 1) rotate(0) translate(4 171.5)">
<title>arch_ioport_pin_to_base</title>
<polygon fill="white" stroke="none" points="-4,4 -4,-171.5 279,-171.5 279,4 -4,4"/>
<!-- Node46 -->
<g id="node1" class="node"><title>Node46</title>
<polygon fill="#bfbfbf" stroke="black" points="0,-79 0,-98 122,-98 122,-79 0,-79"/>
<text text-anchor="middle" x="61" y="-86" font-family="Helvetica,sans-Serif" font-size="10.00">arch_ioport_pin_to_base</text>
</g>
<!-- Node47 -->
<g id="node2" class="node"><title>Node47</title>
<g id="a_node2"><a xlink:href="ioport__pio_8h.xhtml#a5da8d7b9bd9d075d62e675a32af84aea" target="_top" xlink:title="arch_ioport_set_pin_dir">
<polygon fill="white" stroke="red" points="158,-148 158,-167 275,-167 275,-148 158,-148"/>
<text text-anchor="middle" x="216.5" y="-155" font-family="Helvetica,sans-Serif" font-size="10.00">arch_ioport_set_pin_dir</text>
</a>
</g>
</g>
<!-- Node46&#45;&gt;Node47 -->
<g id="edge1" class="edge"><title>Node46&#45;&gt;Node47</title>
<path fill="none" stroke="midnightblue" d="M87.1863,-103.044C106.244,-113.695 133.269,-128.054 158,-138.5 166.135,-141.936 175.123,-145.163 183.527,-147.948"/>
<polygon fill="midnightblue" stroke="midnightblue" points="88.6872,-99.8724 78.2591,-98.0002 85.2436,-105.967 88.6872,-99.8724"/>
</g>
<!-- Node50 -->
<g id="node3" class="node"><title>Node50</title>
<g id="a_node3"><a xlink:href="ioport__pio_8h.xhtml#a0d1141e4ca10536f77e0a655cd99bf9e" target="_top" xlink:title="arch_ioport_set_pin\l_level">
<polygon fill="white" stroke="red" points="166,-98.5 166,-128.5 267,-128.5 267,-98.5 166,-98.5"/>
<text text-anchor="start" x="174" y="-116.5" font-family="Helvetica,sans-Serif" font-size="10.00">arch_ioport_set_pin</text>
<text text-anchor="middle" x="216.5" y="-105.5" font-family="Helvetica,sans-Serif" font-size="10.00">_level</text>
</a>
</g>
</g>
<!-- Node46&#45;&gt;Node50 -->
<g id="edge2" class="edge"><title>Node46&#45;&gt;Node50</title>
<path fill="none" stroke="midnightblue" d="M130.37,-99.6352C142.263,-101.572 154.427,-103.553 165.703,-105.39"/>
<polygon fill="midnightblue" stroke="midnightblue" points="130.902,-96.1758 120.47,-98.0227 129.777,-103.085 130.902,-96.1758"/>
</g>
<!-- Node52 -->
<g id="node4" class="node"><title>Node52</title>
<g id="a_node4"><a xlink:href="ioport__pio_8h.xhtml#ac0a9802426ded89c1b92cee9e3675077" target="_top" xlink:title="arch_ioport_get_pin\l_level">
<polygon fill="white" stroke="red" points="166,-49.5 166,-79.5 267,-79.5 267,-49.5 166,-49.5"/>
<text text-anchor="start" x="174" y="-67.5" font-family="Helvetica,sans-Serif" font-size="10.00">arch_ioport_get_pin</text>
<text text-anchor="middle" x="216.5" y="-56.5" font-family="Helvetica,sans-Serif" font-size="10.00">_level</text>
</a>
</g>
</g>
<!-- Node46&#45;&gt;Node52 -->
<g id="edge3" class="edge"><title>Node46&#45;&gt;Node52</title>
<path fill="none" stroke="midnightblue" d="M132.147,-77.5324C143.521,-75.754 155.09,-73.9452 165.845,-72.2636"/>
<polygon fill="midnightblue" stroke="midnightblue" points="131.566,-74.0806 122.227,-79.0834 132.647,-80.9966 131.566,-74.0806"/>
</g>
<!-- Node54 -->
<g id="node5" class="node"><title>Node54</title>
<g id="a_node5"><a xlink:href="ioport__pio_8h.xhtml#a2e496a7a538a884445c8ce329729f41c" target="_top" xlink:title="arch_ioport_toggle\l_pin_level">
<polygon fill="white" stroke="red" points="168.5,-0.5 168.5,-30.5 264.5,-30.5 264.5,-0.5 168.5,-0.5"/>
<text text-anchor="start" x="176.5" y="-18.5" font-family="Helvetica,sans-Serif" font-size="10.00">arch_ioport_toggle</text>
<text text-anchor="middle" x="216.5" y="-7.5" font-family="Helvetica,sans-Serif" font-size="10.00">_pin_level</text>
</a>
</g>
</g>
<!-- Node46&#45;&gt;Node54 -->
<g id="edge4" class="edge"><title>Node46&#45;&gt;Node54</title>
<path fill="none" stroke="midnightblue" d="M89.6475,-74.1846C108.726,-64.4275 134.746,-51.3592 158,-40.5 165.101,-37.1838 172.756,-33.7554 180.092,-30.5403"/>
<polygon fill="midnightblue" stroke="midnightblue" points="87.9164,-71.139 80.6187,-78.8199 91.1134,-77.3663 87.9164,-71.139"/>
</g>
</g>
</svg>
