<?xml version="1.0" encoding="UTF-8" standalone="no"?>
<!DOCTYPE svg PUBLIC "-//W3C//DTD SVG 1.1//EN"
 "http://www.w3.org/Graphics/SVG/1.1/DTD/svg11.dtd">
<!-- Generated by graphviz version 2.38.0 (20140413.2041)
 -->
<!-- Title: arch_ioport_set_pin_mode Pages: 1 -->
<svg width="290pt" height="66pt"
 viewBox="0.00 0.00 290.00 66.00" xmlns="http://www.w3.org/2000/svg" xmlns:xlink="http://www.w3.org/1999/xlink">
<g id="graph0" class="graph" transform="scale(1 1) rotate(0) translate(4 62)">
<title>arch_ioport_set_pin_mode</title>
<polygon fill="white" stroke="none" points="-4,4 -4,-62 286,-62 286,4 -4,4"/>
<!-- Node158 -->
<g id="node1" class="node"><title>Node158</title>
<polygon fill="#bfbfbf" stroke="black" points="0,-19.5 0,-38.5 131,-38.5 131,-19.5 0,-19.5"/>
<text text-anchor="middle" x="65.5" y="-26.5" font-family="Helvetica,sans-Serif" font-size="10.00">arch_ioport_set_pin_mode</text>
</g>
<!-- Node159 -->
<g id="node2" class="node"><title>Node159</title>
<g id="a_node2"><a xlink:href="group__ioport__group.xhtml#ga09df7897a4e2401204c84211a29aa67a" target="_top" xlink:title="Set pin mode for one single IOPORT pin. ">
<polygon fill="white" stroke="red" points="171,-38.5 171,-57.5 278,-57.5 278,-38.5 171,-38.5"/>
<text text-anchor="middle" x="224.5" y="-45.5" font-family="Helvetica,sans-Serif" font-size="10.00">ioport_set_pin_mode</text>
</a>
</g>
</g>
<!-- Node158&#45;&gt;Node159 -->
<g id="edge1" class="edge"><title>Node158&#45;&gt;Node159</title>
<path fill="none" stroke="midnightblue" d="M141.223,-38.0429C151.233,-39.2543 161.325,-40.4756 170.846,-41.6279"/>
<polygon fill="midnightblue" stroke="midnightblue" points="141.612,-34.5646 131.264,-36.8377 140.771,-41.5139 141.612,-34.5646"/>
</g>
<!-- Node161 -->
<g id="node3" class="node"><title>Node161</title>
<g id="a_node3"><a xlink:href="group__ioport__group.xhtml#gafaa3ce764c4ae3c0c3f16df8872d15e8" target="_top" xlink:title="Reset pin mode configuration for a single IOPORT pin. ">
<polygon fill="white" stroke="black" points="167,-0.5 167,-19.5 282,-19.5 282,-0.5 167,-0.5"/>
<text text-anchor="middle" x="224.5" y="-7.5" font-family="Helvetica,sans-Serif" font-size="10.00">ioport_reset_pin_mode</text>
</a>
</g>
</g>
<!-- Node158&#45;&gt;Node161 -->
<g id="edge2" class="edge"><title>Node158&#45;&gt;Node161</title>
<path fill="none" stroke="midnightblue" d="M141.319,-19.9455C149.929,-18.9036 158.597,-17.8545 166.91,-16.8485"/>
<polygon fill="midnightblue" stroke="midnightblue" points="140.771,-16.4861 131.264,-21.1623 141.612,-23.4354 140.771,-16.4861"/>
</g>
</g>
</svg>
