<?xml version="1.0" encoding="UTF-8" standalone="no"?>
<!DOCTYPE svg PUBLIC "-//W3C//DTD SVG 1.1//EN"
 "http://www.w3.org/Graphics/SVG/1.1/DTD/svg11.dtd">
<!-- Generated by graphviz version 2.38.0 (20140413.2041)
 -->
<!-- Title: arch_ioport_set_pin_level Pages: 1 -->
<svg width="270pt" height="66pt"
 viewBox="0.00 0.00 270.00 66.00" xmlns="http://www.w3.org/2000/svg" xmlns:xlink="http://www.w3.org/1999/xlink">
<g id="graph0" class="graph" transform="scale(1 1) rotate(0) translate(4 62)">
<title>arch_ioport_set_pin_level</title>
<polygon fill="white" stroke="none" points="-4,4 -4,-62 266,-62 266,4 -4,4"/>
<!-- Node145 -->
<g id="node1" class="node"><title>Node145</title>
<polygon fill="#bfbfbf" stroke="black" points="0,-14 0,-44 101,-44 101,-14 0,-14"/>
<text text-anchor="start" x="8" y="-32" font-family="Helvetica,sans-Serif" font-size="10.00">arch_ioport_set_pin</text>
<text text-anchor="middle" x="50.5" y="-21" font-family="Helvetica,sans-Serif" font-size="10.00">_level</text>
</g>
<!-- Node146 -->
<g id="node2" class="node"><title>Node146</title>
<g id="a_node2"><a xlink:href="ioport__pio_8h.xhtml#a9f41f6e31f878692e4dc785b7e5e1ad1" target="_top" xlink:title="arch_ioport_pin_to_base">
<polygon fill="white" stroke="red" points="138.5,-38.5 138.5,-57.5 260.5,-57.5 260.5,-38.5 138.5,-38.5"/>
<text text-anchor="middle" x="199.5" y="-45.5" font-family="Helvetica,sans-Serif" font-size="10.00">arch_ioport_pin_to_base</text>
</a>
</g>
</g>
<!-- Node145&#45;&gt;Node146 -->
<g id="edge1" class="edge"><title>Node145&#45;&gt;Node146</title>
<path fill="none" stroke="midnightblue" d="M101.267,-35.4325C109.921,-36.5511 119.067,-37.7332 128.149,-38.907"/>
<polygon fill="midnightblue" stroke="midnightblue" points="127.979,-42.4141 138.345,-40.2249 128.876,-35.4718 127.979,-42.4141"/>
</g>
<!-- Node149 -->
<g id="node3" class="node"><title>Node149</title>
<g id="a_node3"><a xlink:href="ioport__pio_8h.xhtml#a69fd7bdfb41664b749080e509798165e" target="_top" xlink:title="arch_ioport_pin_to_mask">
<polygon fill="white" stroke="black" points="137,-0.5 137,-19.5 262,-19.5 262,-0.5 137,-0.5"/>
<text text-anchor="middle" x="199.5" y="-7.5" font-family="Helvetica,sans-Serif" font-size="10.00">arch_ioport_pin_to_mask</text>
</a>
</g>
</g>
<!-- Node145&#45;&gt;Node149 -->
<g id="edge2" class="edge"><title>Node145&#45;&gt;Node149</title>
<path fill="none" stroke="midnightblue" d="M101.267,-22.5675C109.469,-21.5074 118.113,-20.3902 126.724,-19.2771"/>
<polygon fill="midnightblue" stroke="midnightblue" points="127.322,-22.7291 136.791,-17.976 126.425,-15.7868 127.322,-22.7291"/>
</g>
</g>
</svg>
