<?xml version="1.0" encoding="UTF-8" standalone="no"?>
<!DOCTYPE svg PUBLIC "-//W3C//DTD SVG 1.1//EN"
 "http://www.w3.org/Graphics/SVG/1.1/DTD/svg11.dtd">
<!-- Generated by graphviz version 2.38.0 (20140413.2041)
 -->
<!-- Title: main Pages: 1 -->
<svg width="188pt" height="218pt"
 viewBox="0.00 0.00 188.00 218.00" xmlns="http://www.w3.org/2000/svg" xmlns:xlink="http://www.w3.org/1999/xlink">
<g id="graph0" class="graph" transform="scale(1 1) rotate(0) translate(4 214)">
<title>main</title>
<polygon fill="white" stroke="none" points="-4,4 -4,-214 184,-214 184,4 -4,4"/>
<!-- Node36 -->
<g id="node1" class="node"><title>Node36</title>
<polygon fill="#bfbfbf" stroke="black" points="0,-95.5 0,-114.5 38,-114.5 38,-95.5 0,-95.5"/>
<text text-anchor="middle" x="19" y="-102.5" font-family="Helvetica,sans-Serif" font-size="10.00">main</text>
</g>
<!-- Node37 -->
<g id="node2" class="node"><title>Node37</title>
<g id="a_node2"><a xlink:href="group__sysclk__group.xhtml#ga242399e48a97739c88b4d0c00f6101de" target="_top" xlink:title="Initialize the synchronous clock system. ">
<polygon fill="white" stroke="red" points="95.5,-190.5 95.5,-209.5 158.5,-209.5 158.5,-190.5 95.5,-190.5"/>
<text text-anchor="middle" x="127" y="-197.5" font-family="Helvetica,sans-Serif" font-size="10.00">sysclk_init</text>
</a>
</g>
</g>
<!-- Node36&#45;&gt;Node37 -->
<g id="edge1" class="edge"><title>Node36&#45;&gt;Node37</title>
<path fill="none" stroke="midnightblue" d="M24.4094,-114.586C32.214,-130.551 49.9352,-162.642 74,-181 77.6227,-183.764 81.6869,-186.155 85.9048,-188.218"/>
<polygon fill="midnightblue" stroke="midnightblue" points="84.7016,-191.51 95.2724,-192.224 87.4545,-185.074 84.7016,-191.51"/>
</g>
<!-- Node60 -->
<g id="node3" class="node"><title>Node60</title>
<g id="a_node3"><a xlink:href="group__group__common__boards.xhtml#ga916f2adc2080b4fe88034086d107a8dc" target="_top" xlink:title="This function initializes the board target resources. ">
<polygon fill="white" stroke="black" points="97.5,-152.5 97.5,-171.5 156.5,-171.5 156.5,-152.5 97.5,-152.5"/>
<text text-anchor="middle" x="127" y="-159.5" font-family="Helvetica,sans-Serif" font-size="10.00">board_init</text>
</a>
</g>
</g>
<!-- Node36&#45;&gt;Node60 -->
<g id="edge2" class="edge"><title>Node36&#45;&gt;Node60</title>
<path fill="none" stroke="midnightblue" d="M31.8499,-114.722C42.4168,-123.044 58.5586,-134.926 74,-143 78.3493,-145.274 83.0324,-147.397 87.743,-149.338"/>
<polygon fill="midnightblue" stroke="midnightblue" points="86.7639,-152.712 97.353,-153.059 89.2912,-146.184 86.7639,-152.712"/>
</g>
<!-- Node61 -->
<g id="node4" class="node"><title>Node61</title>
<g id="a_node4"><a xlink:href="main_8c.xhtml#a33c8c1bb4e41b6192b554fdf9e70b3b9" target="_top" xlink:title="Configure the console UART. ">
<polygon fill="white" stroke="red" points="79.5,-114.5 79.5,-133.5 174.5,-133.5 174.5,-114.5 79.5,-114.5"/>
<text text-anchor="middle" x="127" y="-121.5" font-family="Helvetica,sans-Serif" font-size="10.00">configure_console</text>
</a>
</g>
</g>
<!-- Node36&#45;&gt;Node61 -->
<g id="edge3" class="edge"><title>Node36&#45;&gt;Node61</title>
<path fill="none" stroke="midnightblue" d="M38.4638,-108.31C47.0924,-109.856 57.8841,-111.791 68.9133,-113.767"/>
<polygon fill="midnightblue" stroke="midnightblue" points="68.5929,-117.266 79.0536,-115.585 69.828,-110.376 68.5929,-117.266"/>
</g>
<!-- Node93 -->
<g id="node5" class="node"><title>Node93</title>
<g id="a_node5"><a xlink:href="main_8c.xhtml#a63d72e300659658b1f257be9cfa7e75e" target="_top" xlink:title="This task, when activated, make LED blink at a fixed rate. ">
<polygon fill="white" stroke="red" points="100.5,-76.5 100.5,-95.5 153.5,-95.5 153.5,-76.5 100.5,-76.5"/>
<text text-anchor="middle" x="127" y="-83.5" font-family="Helvetica,sans-Serif" font-size="10.00">task_led</text>
</a>
</g>
</g>
<!-- Node36&#45;&gt;Node93 -->
<g id="edge4" class="edge"><title>Node36&#45;&gt;Node93</title>
<path fill="none" stroke="midnightblue" d="M38.4638,-101.69C52.7441,-99.1308 72.9492,-95.5091 90.3498,-92.3901"/>
<polygon fill="midnightblue" stroke="midnightblue" points="90.9794,-95.8331 100.205,-90.6236 89.7444,-88.9429 90.9794,-95.8331"/>
</g>
<!-- Node95 -->
<g id="node6" class="node"><title>Node95</title>
<g id="a_node6"><a xlink:href="task__xethru_8c.xhtml#a76190ce03715163953152235db3d3b6c" target="_top" xlink:title="task_xethru_init">
<polygon fill="white" stroke="red" points="84,-38.5 84,-57.5 170,-57.5 170,-38.5 84,-38.5"/>
<text text-anchor="middle" x="127" y="-45.5" font-family="Helvetica,sans-Serif" font-size="10.00">task_xethru_init</text>
</a>
</g>
</g>
<!-- Node36&#45;&gt;Node95 -->
<g id="edge5" class="edge"><title>Node36&#45;&gt;Node95</title>
<path fill="none" stroke="midnightblue" d="M31.8499,-95.2785C42.4168,-86.9562 58.5586,-75.0735 74,-67 77.9394,-64.9403 82.1526,-63.0047 86.4121,-61.2155"/>
<polygon fill="midnightblue" stroke="midnightblue" points="87.7055,-64.4679 95.7226,-57.5414 85.1359,-57.9565 87.7055,-64.4679"/>
</g>
<!-- Node235 -->
<g id="node7" class="node"><title>Node235</title>
<g id="a_node7"><a xlink:href="task_8h.xhtml#aaf9dca1065c60abdeb309d56ab7293cb" target="_top" xlink:title="vTaskStartScheduler">
<polygon fill="white" stroke="red" points="74,-0.5 74,-19.5 180,-19.5 180,-0.5 74,-0.5"/>
<text text-anchor="middle" x="127" y="-7.5" font-family="Helvetica,sans-Serif" font-size="10.00">vTaskStartScheduler</text>
</a>
</g>
</g>
<!-- Node36&#45;&gt;Node235 -->
<g id="edge6" class="edge"><title>Node36&#45;&gt;Node235</title>
<path fill="none" stroke="midnightblue" d="M24.4094,-95.4137C32.214,-79.4485 49.9352,-47.358 74,-29 76.443,-27.1364 79.0868,-25.4419 81.843,-23.9034"/>
<polygon fill="midnightblue" stroke="midnightblue" points="83.4485,-27.0147 90.9214,-19.5044 80.396,-20.7153 83.4485,-27.0147"/>
</g>
</g>
</svg>
