<?xml version="1.0" encoding="UTF-8" standalone="no"?>
<!DOCTYPE svg PUBLIC "-//W3C//DTD SVG 1.1//EN"
 "http://www.w3.org/Graphics/SVG/1.1/DTD/svg11.dtd">
<!-- Generated by graphviz version 2.38.0 (20140413.2041)
 -->
<!-- Title: main Pages: 1 -->
<svg width="233pt" height="142pt"
 viewBox="0.00 0.00 233.00 142.00" xmlns="http://www.w3.org/2000/svg" xmlns:xlink="http://www.w3.org/1999/xlink">
<g id="graph0" class="graph" transform="scale(1 1) rotate(0) translate(4 138)">
<title>main</title>
<polygon fill="white" stroke="none" points="-4,4 -4,-138 229,-138 229,4 -4,4"/>
<!-- Node0 -->
<g id="node1" class="node"><title>Node0</title>
<polygon fill="#bfbfbf" stroke="black" points="0,-57.5 0,-76.5 38,-76.5 38,-57.5 0,-57.5"/>
<text text-anchor="middle" x="19" y="-64.5" font-family="Helvetica,sans-Serif" font-size="10.00">main</text>
</g>
<!-- Node1 -->
<g id="node2" class="node"><title>Node1</title>
<g id="a_node2"><a xlink:href="main_8cpp.xhtml#ad2294d655ff2589ae68c05c62280a806" target="_top" xlink:title="mcpw_demo_upgrade_x4m300">
<polygon fill="white" stroke="red" points="74,-114.5 74,-133.5 225,-133.5 225,-114.5 74,-114.5"/>
<text text-anchor="middle" x="149.5" y="-121.5" font-family="Helvetica,sans-Serif" font-size="10.00">mcpw_demo_upgrade_x4m300</text>
</a>
</g>
</g>
<!-- Node0&#45;&gt;Node1 -->
<g id="edge1" class="edge"><title>Node0&#45;&gt;Node1</title>
<path fill="none" stroke="midnightblue" d="M31.2493,-76.7744C41.6799,-85.3655 57.9639,-97.6172 74,-105 79.2819,-107.432 84.9234,-109.586 90.6492,-111.487"/>
<polygon fill="midnightblue" stroke="midnightblue" points="89.7297,-114.866 100.316,-114.451 91.7817,-108.173 89.7297,-114.866"/>
</g>
<!-- Node83 -->
<g id="node3" class="node"><title>Node83</title>
<g id="a_node3"><a xlink:href="main_8cpp.xhtml#afe826bfd6377b67ca711d20cb2f74077" target="_top" xlink:title="mcpw_demo_x2m200">
<polygon fill="white" stroke="red" points="94,-76.5 94,-95.5 205,-95.5 205,-76.5 94,-76.5"/>
<text text-anchor="middle" x="149.5" y="-83.5" font-family="Helvetica,sans-Serif" font-size="10.00">mcpw_demo_x2m200</text>
</a>
</g>
</g>
<!-- Node0&#45;&gt;Node83 -->
<g id="edge2" class="edge"><title>Node0&#45;&gt;Node83</title>
<path fill="none" stroke="midnightblue" d="M38.1384,-69.6819C50.1695,-71.4609 66.76,-73.9139 83.4246,-76.3779"/>
<polygon fill="midnightblue" stroke="midnightblue" points="83.3656,-79.9072 93.7701,-77.9076 84.3896,-72.9825 83.3656,-79.9072"/>
</g>
<!-- Node99 -->
<g id="node4" class="node"><title>Node99</title>
<g id="a_node4"><a xlink:href="main_8cpp.xhtml#a3126a54d85ac2491678228134d260200" target="_top" xlink:title="mcpw_demo_x4m200">
<polygon fill="white" stroke="red" points="94,-38.5 94,-57.5 205,-57.5 205,-38.5 94,-38.5"/>
<text text-anchor="middle" x="149.5" y="-45.5" font-family="Helvetica,sans-Serif" font-size="10.00">mcpw_demo_x4m200</text>
</a>
</g>
</g>
<!-- Node0&#45;&gt;Node99 -->
<g id="edge3" class="edge"><title>Node0&#45;&gt;Node99</title>
<path fill="none" stroke="midnightblue" d="M38.1384,-64.3181C50.1695,-62.5391 66.76,-60.0861 83.4246,-57.6221"/>
<polygon fill="midnightblue" stroke="midnightblue" points="84.3896,-61.0175 93.7701,-56.0924 83.3656,-54.0928 84.3896,-61.0175"/>
</g>
<!-- Node111 -->
<g id="node5" class="node"><title>Node111</title>
<g id="a_node5"><a xlink:href="main_8cpp.xhtml#a9e7fad9d680c663670f1e7843989b2b4" target="_top" xlink:title="mcpw_demo_x4m300">
<polygon fill="white" stroke="red" points="94,-0.5 94,-19.5 205,-19.5 205,-0.5 94,-0.5"/>
<text text-anchor="middle" x="149.5" y="-7.5" font-family="Helvetica,sans-Serif" font-size="10.00">mcpw_demo_x4m300</text>
</a>
</g>
</g>
<!-- Node0&#45;&gt;Node111 -->
<g id="edge4" class="edge"><title>Node0&#45;&gt;Node111</title>
<path fill="none" stroke="midnightblue" d="M31.2493,-57.2256C41.6799,-48.6345 57.9639,-36.3828 74,-29 79.2819,-26.5683 84.9234,-24.414 90.6492,-22.5131"/>
<polygon fill="midnightblue" stroke="midnightblue" points="91.7817,-25.8268 100.316,-19.5491 89.7297,-19.1343 91.7817,-25.8268"/>
</g>
</g>
</svg>
