<?xml version="1.0" encoding="UTF-8" standalone="no"?>
<!DOCTYPE svg PUBLIC "-//W3C//DTD SVG 1.1//EN"
 "http://www.w3.org/Graphics/SVG/1.1/DTD/svg11.dtd">
<!-- Generated by graphviz version 2.38.0 (20140413.2041)
 -->
<!-- Title: mcpw_set_parameter_file Pages: 1 -->
<svg width="335pt" height="66pt"
 viewBox="0.00 0.00 335.00 66.00" xmlns="http://www.w3.org/2000/svg" xmlns:xlink="http://www.w3.org/1999/xlink">
<g id="graph0" class="graph" transform="scale(1 1) rotate(0) translate(4 62)">
<title>mcpw_set_parameter_file</title>
<polygon fill="white" stroke="none" points="-4,4 -4,-62 331,-62 331,4 -4,4"/>
<!-- Node367 -->
<g id="node1" class="node"><title>Node367</title>
<polygon fill="#bfbfbf" stroke="black" points="0,-19.5 0,-38.5 127,-38.5 127,-19.5 0,-19.5"/>
<text text-anchor="middle" x="63.5" y="-26.5" font-family="Helvetica,sans-Serif" font-size="10.00">mcpw_set_parameter_file</text>
</g>
<!-- Node368 -->
<g id="node2" class="node"><title>Node368</title>
<g id="a_node2"><a xlink:href="mcp__wrapper_8c.xhtml#af4b6466ee142c75a81c2d0c4e52baa40" target="_top" xlink:title="mcpw_start_send">
<polygon fill="white" stroke="black" points="198.5,-38.5 198.5,-57.5 291.5,-57.5 291.5,-38.5 198.5,-38.5"/>
<text text-anchor="middle" x="245" y="-45.5" font-family="Helvetica,sans-Serif" font-size="10.00">mcpw_start_send</text>
</a>
</g>
</g>
<!-- Node367&#45;&gt;Node368 -->
<g id="edge1" class="edge"><title>Node367&#45;&gt;Node368</title>
<path fill="none" stroke="midnightblue" d="M127.028,-35.6186C146.926,-37.7247 168.795,-40.0396 188.186,-42.0921"/>
<polygon fill="midnightblue" stroke="midnightblue" points="188.062,-45.5984 198.375,-43.1706 188.799,-38.6373 188.062,-45.5984"/>
</g>
<!-- Node369 -->
<g id="node3" class="node"><title>Node369</title>
<g id="a_node3"><a xlink:href="protocol_8c.xhtml#a403205b32271092745430cf402bb6cc9" target="_top" xlink:title="createSetParameterFileCommand">
<polygon fill="white" stroke="red" points="163,-0.5 163,-19.5 327,-19.5 327,-0.5 163,-0.5"/>
<text text-anchor="middle" x="245" y="-7.5" font-family="Helvetica,sans-Serif" font-size="10.00">createSetParameterFileCommand</text>
</a>
</g>
</g>
<!-- Node367&#45;&gt;Node369 -->
<g id="edge2" class="edge"><title>Node367&#45;&gt;Node369</title>
<path fill="none" stroke="midnightblue" d="M127.028,-22.3814C135.319,-21.5039 143.951,-20.5901 152.604,-19.6742"/>
<polygon fill="midnightblue" stroke="midnightblue" points="153.176,-23.1333 162.752,-18.6 152.439,-16.1722 153.176,-23.1333"/>
</g>
</g>
</svg>
