<?xml version="1.0" encoding="UTF-8" standalone="no"?>
<!DOCTYPE svg PUBLIC "-//W3C//DTD SVG 1.1//EN"
 "http://www.w3.org/Graphics/SVG/1.1/DTD/svg11.dtd">
<!-- Generated by graphviz version 2.38.0 (20140413.2041)
 -->
<!-- Title: mcpw_reset_to_factory_preset Pages: 1 -->
<svg width="302pt" height="66pt"
 viewBox="0.00 0.00 302.00 66.00" xmlns="http://www.w3.org/2000/svg" xmlns:xlink="http://www.w3.org/1999/xlink">
<g id="graph0" class="graph" transform="scale(1 1) rotate(0) translate(4 62)">
<title>mcpw_reset_to_factory_preset</title>
<polygon fill="white" stroke="none" points="-4,4 -4,-62 298,-62 298,4 -4,4"/>
<!-- Node274 -->
<g id="node1" class="node"><title>Node274</title>
<polygon fill="#bfbfbf" stroke="black" points="0,-14 0,-44 117,-44 117,-14 0,-14"/>
<text text-anchor="start" x="8" y="-32" font-family="Helvetica,sans-Serif" font-size="10.00">mcpw_reset_to_factory</text>
<text text-anchor="middle" x="58.5" y="-21" font-family="Helvetica,sans-Serif" font-size="10.00">_preset</text>
</g>
<!-- Node275 -->
<g id="node2" class="node"><title>Node275</title>
<g id="a_node2"><a xlink:href="mcp__wrapper_8c.xhtml#af4b6466ee142c75a81c2d0c4e52baa40" target="_top" xlink:title="mcpw_start_send">
<polygon fill="white" stroke="black" points="177,-38.5 177,-57.5 270,-57.5 270,-38.5 177,-38.5"/>
<text text-anchor="middle" x="223.5" y="-45.5" font-family="Helvetica,sans-Serif" font-size="10.00">mcpw_start_send</text>
</a>
</g>
</g>
<!-- Node274&#45;&gt;Node275 -->
<g id="edge1" class="edge"><title>Node274&#45;&gt;Node275</title>
<path fill="none" stroke="midnightblue" d="M117.427,-35.7522C133.415,-37.6159 150.728,-39.6339 166.599,-41.4839"/>
<polygon fill="midnightblue" stroke="midnightblue" points="166.454,-44.9907 176.792,-42.6721 167.265,-38.0377 166.454,-44.9907"/>
</g>
<!-- Node276 -->
<g id="node3" class="node"><title>Node276</title>
<g id="a_node3"><a xlink:href="protocol_8c.xhtml#a05c81e0adfe3f7ac9734ef2287544592" target="_top" xlink:title="createResetToFactoryPreset">
<polygon fill="white" stroke="red" points="153,-0.5 153,-19.5 294,-19.5 294,-0.5 153,-0.5"/>
<text text-anchor="middle" x="223.5" y="-7.5" font-family="Helvetica,sans-Serif" font-size="10.00">createResetToFactoryPreset</text>
</a>
</g>
</g>
<!-- Node274&#45;&gt;Node276 -->
<g id="edge2" class="edge"><title>Node274&#45;&gt;Node276</title>
<path fill="none" stroke="midnightblue" d="M117.427,-22.2478C125.648,-21.2895 134.219,-20.2904 142.765,-19.2943"/>
<polygon fill="midnightblue" stroke="midnightblue" points="143.234,-22.7633 152.762,-18.129 142.424,-15.8104 143.234,-22.7633"/>
</g>
</g>
</svg>
