<?xml version="1.0" encoding="UTF-8" standalone="no"?>
<!DOCTYPE svg PUBLIC "-//W3C//DTD SVG 1.1//EN"
 "http://www.w3.org/Graphics/SVG/1.1/DTD/svg11.dtd">
<!-- Generated by graphviz version 2.38.0 (20140413.2041)
 -->
<!-- Title: mcpw_set_sensitivity Pages: 1 -->
<svg width="300pt" height="66pt"
 viewBox="0.00 0.00 300.00 66.00" xmlns="http://www.w3.org/2000/svg" xmlns:xlink="http://www.w3.org/1999/xlink">
<g id="graph0" class="graph" transform="scale(1 1) rotate(0) translate(4 62)">
<title>mcpw_set_sensitivity</title>
<polygon fill="white" stroke="none" points="-4,4 -4,-62 296,-62 296,4 -4,4"/>
<!-- Node377 -->
<g id="node1" class="node"><title>Node377</title>
<polygon fill="#bfbfbf" stroke="black" points="0,-19.5 0,-38.5 109,-38.5 109,-19.5 0,-19.5"/>
<text text-anchor="middle" x="54.5" y="-26.5" font-family="Helvetica,sans-Serif" font-size="10.00">mcpw_set_sensitivity</text>
</g>
<!-- Node378 -->
<g id="node2" class="node"><title>Node378</title>
<g id="a_node2"><a xlink:href="mcp__wrapper_8c.xhtml#af4b6466ee142c75a81c2d0c4e52baa40" target="_top" xlink:title="mcpw_start_send">
<polygon fill="white" stroke="black" points="172,-38.5 172,-57.5 265,-57.5 265,-38.5 172,-38.5"/>
<text text-anchor="middle" x="218.5" y="-45.5" font-family="Helvetica,sans-Serif" font-size="10.00">mcpw_start_send</text>
</a>
</g>
</g>
<!-- Node377&#45;&gt;Node378 -->
<g id="edge1" class="edge"><title>Node377&#45;&gt;Node378</title>
<path fill="none" stroke="midnightblue" d="M109.444,-35.3267C126.213,-37.2935 144.73,-39.4652 161.627,-41.447"/>
<polygon fill="midnightblue" stroke="midnightblue" points="161.569,-44.9642 171.909,-42.6529 162.385,-38.0118 161.569,-44.9642"/>
</g>
<!-- Node379 -->
<g id="node3" class="node"><title>Node379</title>
<g id="a_node3"><a xlink:href="protocol_8c.xhtml#adcdfb36e093e79b9b84f0f5d0cc8dee1" target="_top" xlink:title="createSetSensitivityCommand">
<polygon fill="white" stroke="red" points="145,-0.5 145,-19.5 292,-19.5 292,-0.5 145,-0.5"/>
<text text-anchor="middle" x="218.5" y="-7.5" font-family="Helvetica,sans-Serif" font-size="10.00">createSetSensitivityCommand</text>
</a>
</g>
</g>
<!-- Node377&#45;&gt;Node379 -->
<g id="edge2" class="edge"><title>Node377&#45;&gt;Node379</title>
<path fill="none" stroke="midnightblue" d="M109.444,-22.6733C117.581,-21.7189 126.13,-20.7163 134.705,-19.7105"/>
<polygon fill="midnightblue" stroke="midnightblue" points="135.237,-23.1722 144.761,-18.5311 134.422,-16.2198 135.237,-23.1722"/>
</g>
</g>
</svg>
