<?xml version="1.0" encoding="UTF-8" standalone="no"?>
<!DOCTYPE svg PUBLIC "-//W3C//DTD SVG 1.1//EN"
 "http://www.w3.org/Graphics/SVG/1.1/DTD/svg11.dtd">
<!-- Generated by graphviz version 2.38.0 (20140413.2041)
 -->
<!-- Title: mcpw_start_bootloader Pages: 1 -->
<svg width="316pt" height="66pt"
 viewBox="0.00 0.00 316.00 66.00" xmlns="http://www.w3.org/2000/svg" xmlns:xlink="http://www.w3.org/1999/xlink">
<g id="graph0" class="graph" transform="scale(1 1) rotate(0) translate(4 62)">
<title>mcpw_start_bootloader</title>
<polygon fill="white" stroke="none" points="-4,4 -4,-62 312,-62 312,4 -4,4"/>
<!-- Node412 -->
<g id="node1" class="node"><title>Node412</title>
<polygon fill="#bfbfbf" stroke="black" points="0,-19.5 0,-38.5 117,-38.5 117,-19.5 0,-19.5"/>
<text text-anchor="middle" x="58.5" y="-26.5" font-family="Helvetica,sans-Serif" font-size="10.00">mcpw_start_bootloader</text>
</g>
<!-- Node413 -->
<g id="node2" class="node"><title>Node413</title>
<g id="a_node2"><a xlink:href="mcp__wrapper_8c.xhtml#af4b6466ee142c75a81c2d0c4e52baa40" target="_top" xlink:title="mcpw_start_send">
<polygon fill="white" stroke="black" points="184,-38.5 184,-57.5 277,-57.5 277,-38.5 184,-38.5"/>
<text text-anchor="middle" x="230.5" y="-45.5" font-family="Helvetica,sans-Serif" font-size="10.00">mcpw_start_send</text>
</a>
</g>
</g>
<!-- Node412&#45;&gt;Node413 -->
<g id="edge1" class="edge"><title>Node412&#45;&gt;Node413</title>
<path fill="none" stroke="midnightblue" d="M117.054,-35.4325C135.337,-37.4759 155.518,-39.7314 173.677,-41.7609"/>
<polygon fill="midnightblue" stroke="midnightblue" points="173.49,-45.2618 183.817,-42.8943 174.268,-38.3051 173.49,-45.2618"/>
</g>
<!-- Node414 -->
<g id="node3" class="node"><title>Node414</title>
<g id="a_node3"><a xlink:href="protocol_8c.xhtml#a4101dfe16512a1296288f0a8585265f4" target="_top" xlink:title="createStartBootloaderCommand">
<polygon fill="white" stroke="red" points="153,-0.5 153,-19.5 308,-19.5 308,-0.5 153,-0.5"/>
<text text-anchor="middle" x="230.5" y="-7.5" font-family="Helvetica,sans-Serif" font-size="10.00">createStartBootloaderCommand</text>
</a>
</g>
</g>
<!-- Node412&#45;&gt;Node414 -->
<g id="edge2" class="edge"><title>Node412&#45;&gt;Node414</title>
<path fill="none" stroke="midnightblue" d="M117.054,-22.5675C125.293,-21.6467 133.917,-20.6828 142.568,-19.7159"/>
<polygon fill="midnightblue" stroke="midnightblue" points="143.165,-23.1711 152.714,-18.5819 142.387,-16.2144 143.165,-23.1711"/>
</g>
</g>
</svg>
