<?xml version="1.0" encoding="UTF-8" standalone="no"?>
<!DOCTYPE svg PUBLIC "-//W3C//DTD SVG 1.1//EN"
 "http://www.w3.org/Graphics/SVG/1.1/DTD/svg11.dtd">
<!-- Generated by graphviz version 2.38.0 (20140413.2041)
 -->
<!-- Title: mcpw_get_instance_size Pages: 1 -->
<svg width="321pt" height="180pt"
 viewBox="0.00 0.00 321.00 180.00" xmlns="http://www.w3.org/2000/svg" xmlns:xlink="http://www.w3.org/1999/xlink">
<g id="graph0" class="graph" transform="scale(1 1) rotate(0) translate(4 176)">
<title>mcpw_get_instance_size</title>
<polygon fill="white" stroke="none" points="-4,4 -4,-176 317,-176 317,4 -4,4"/>
<!-- Node42 -->
<g id="node1" class="node"><title>Node42</title>
<polygon fill="#bfbfbf" stroke="black" points="0,-76.5 0,-95.5 126,-95.5 126,-76.5 0,-76.5"/>
<text text-anchor="middle" x="63" y="-83.5" font-family="Helvetica,sans-Serif" font-size="10.00">mcpw_get_instance_size</text>
</g>
<!-- Node43 -->
<g id="node2" class="node"><title>Node43</title>
<g id="a_node2"><a xlink:href="task__xethru_8c.xhtml#ab838415e708ffc71189fcdceb057dac5" target="_top" xlink:title="xethru_task">
<polygon fill="white" stroke="red" points="203.5,-152.5 203.5,-171.5 271.5,-171.5 271.5,-152.5 203.5,-152.5"/>
<text text-anchor="middle" x="237.5" y="-159.5" font-family="Helvetica,sans-Serif" font-size="10.00">xethru_task</text>
</a>
</g>
</g>
<!-- Node42&#45;&gt;Node43 -->
<g id="edge1" class="edge"><title>Node42&#45;&gt;Node43</title>
<path fill="none" stroke="midnightblue" d="M86.0236,-101.204C105.31,-113.922 134.478,-131.743 162,-143 175.096,-148.356 190.12,-152.535 203.229,-155.592"/>
<polygon fill="midnightblue" stroke="midnightblue" points="87.9052,-98.2516 77.6496,-95.5918 84.0082,-104.067 87.9052,-98.2516"/>
</g>
<!-- Node47 -->
<g id="node3" class="node"><title>Node47</title>
<g id="a_node3"><a xlink:href="main_8cpp.xhtml#a9e7fad9d680c663670f1e7843989b2b4" target="_top" xlink:title="mcpw_demo_x4m300">
<polygon fill="white" stroke="red" points="182,-114.5 182,-133.5 293,-133.5 293,-114.5 182,-114.5"/>
<text text-anchor="middle" x="237.5" y="-121.5" font-family="Helvetica,sans-Serif" font-size="10.00">mcpw_demo_x4m300</text>
</a>
</g>
</g>
<!-- Node42&#45;&gt;Node47 -->
<g id="edge2" class="edge"><title>Node42&#45;&gt;Node47</title>
<path fill="none" stroke="midnightblue" d="M117.351,-97.7526C141.742,-103.126 170.263,-109.409 193.284,-114.48"/>
<polygon fill="midnightblue" stroke="midnightblue" points="118.048,-94.3224 107.529,-95.589 116.542,-101.158 118.048,-94.3224"/>
</g>
<!-- Node49 -->
<g id="node4" class="node"><title>Node49</title>
<g id="a_node4"><a xlink:href="main_8cpp.xhtml#a3126a54d85ac2491678228134d260200" target="_top" xlink:title="mcpw_demo_x4m200">
<polygon fill="white" stroke="red" points="182,-76.5 182,-95.5 293,-95.5 293,-76.5 182,-76.5"/>
<text text-anchor="middle" x="237.5" y="-83.5" font-family="Helvetica,sans-Serif" font-size="10.00">mcpw_demo_x4m200</text>
</a>
</g>
</g>
<!-- Node42&#45;&gt;Node49 -->
<g id="edge3" class="edge"><title>Node42&#45;&gt;Node49</title>
<path fill="none" stroke="midnightblue" d="M136.62,-86C151.728,-86 167.408,-86 181.742,-86"/>
<polygon fill="midnightblue" stroke="midnightblue" points="136.276,-82.5001 126.276,-86 136.276,-89.5001 136.276,-82.5001"/>
</g>
<!-- Node50 -->
<g id="node5" class="node"><title>Node50</title>
<g id="a_node5"><a xlink:href="main_8cpp.xhtml#afe826bfd6377b67ca711d20cb2f74077" target="_top" xlink:title="mcpw_demo_x2m200">
<polygon fill="white" stroke="red" points="182,-38.5 182,-57.5 293,-57.5 293,-38.5 182,-38.5"/>
<text text-anchor="middle" x="237.5" y="-45.5" font-family="Helvetica,sans-Serif" font-size="10.00">mcpw_demo_x2m200</text>
</a>
</g>
</g>
<!-- Node42&#45;&gt;Node50 -->
<g id="edge4" class="edge"><title>Node42&#45;&gt;Node50</title>
<path fill="none" stroke="midnightblue" d="M117.351,-74.2474C141.742,-68.8742 170.263,-62.5914 193.284,-57.5201"/>
<polygon fill="midnightblue" stroke="midnightblue" points="116.542,-70.8416 107.529,-76.411 118.048,-77.6776 116.542,-70.8416"/>
</g>
<!-- Node51 -->
<g id="node6" class="node"><title>Node51</title>
<g id="a_node6"><a xlink:href="main_8cpp.xhtml#ad2294d655ff2589ae68c05c62280a806" target="_top" xlink:title="mcpw_demo_upgrade_x4m300">
<polygon fill="white" stroke="red" points="162,-0.5 162,-19.5 313,-19.5 313,-0.5 162,-0.5"/>
<text text-anchor="middle" x="237.5" y="-7.5" font-family="Helvetica,sans-Serif" font-size="10.00">mcpw_demo_upgrade_x4m300</text>
</a>
</g>
</g>
<!-- Node42&#45;&gt;Node51 -->
<g id="edge5" class="edge"><title>Node42&#45;&gt;Node51</title>
<path fill="none" stroke="midnightblue" d="M86.0236,-70.7962C105.31,-58.0784 134.478,-40.257 162,-29 171.019,-25.3111 180.952,-22.1811 190.545,-19.5912"/>
<polygon fill="midnightblue" stroke="midnightblue" points="84.0082,-67.9335 77.6496,-76.4082 87.9052,-73.7484 84.0082,-67.9335"/>
</g>
</g>
</svg>
