<?xml version="1.0" encoding="UTF-8" standalone="no"?>
<!DOCTYPE svg PUBLIC "-//W3C//DTD SVG 1.1//EN"
 "http://www.w3.org/Graphics/SVG/1.1/DTD/svg11.dtd">
<!-- Generated by graphviz version 2.38.0 (20140413.2041)
 -->
<!-- Title: mcpw_set_led_control Pages: 1 -->
<svg width="562pt" height="85pt"
 viewBox="0.00 0.00 562.00 85.00" xmlns="http://www.w3.org/2000/svg" xmlns:xlink="http://www.w3.org/1999/xlink">
<g id="graph0" class="graph" transform="scale(1 1) rotate(0) translate(4 81)">
<title>mcpw_set_led_control</title>
<polygon fill="white" stroke="none" points="-4,4 -4,-81 558,-81 558,4 -4,4"/>
<!-- Node324 -->
<g id="node1" class="node"><title>Node324</title>
<polygon fill="#bfbfbf" stroke="black" points="0,-38.5 0,-57.5 113,-57.5 113,-38.5 0,-38.5"/>
<text text-anchor="middle" x="56.5" y="-45.5" font-family="Helvetica,sans-Serif" font-size="10.00">mcpw_set_led_control</text>
</g>
<!-- Node325 -->
<g id="node2" class="node"><title>Node325</title>
<g id="a_node2"><a xlink:href="task__xethru_8c.xhtml#ae9875b2314666b540f1ce5e410710129" target="_top" xlink:title="mcpw_demo_x2m200">
<polygon fill="white" stroke="red" points="443,-57.5 443,-76.5 554,-76.5 554,-57.5 443,-57.5"/>
<text text-anchor="middle" x="498.5" y="-64.5" font-family="Helvetica,sans-Serif" font-size="10.00">mcpw_demo_x2m200</text>
</a>
</g>
</g>
<!-- Node324&#45;&gt;Node325 -->
<g id="edge1" class="edge"><title>Node324&#45;&gt;Node325</title>
<path fill="none" stroke="midnightblue" d="M123.124,-58.9933C131.807,-60.168 140.604,-61.2177 149,-62 252.477,-71.6423 373.97,-70.5971 442.73,-68.8648"/>
<polygon fill="midnightblue" stroke="midnightblue" points="123.407,-55.4986 113.016,-57.5655 122.428,-62.4298 123.407,-55.4986"/>
</g>
<!-- Node330 -->
<g id="node3" class="node"><title>Node330</title>
<g id="a_node3"><a xlink:href="task__xethru_8c.xhtml#a54c65348b306e1067cb83cfd0b41cfe6" target="_top" xlink:title="mcpw_demo_x4m300">
<polygon fill="white" stroke="black" points="296,-38.5 296,-57.5 407,-57.5 407,-38.5 296,-38.5"/>
<text text-anchor="middle" x="351.5" y="-45.5" font-family="Helvetica,sans-Serif" font-size="10.00">mcpw_demo_x4m300</text>
</a>
</g>
</g>
<!-- Node324&#45;&gt;Node330 -->
<g id="edge2" class="edge"><title>Node324&#45;&gt;Node330</title>
<path fill="none" stroke="midnightblue" d="M123.426,-48C175.424,-48 247.08,-48 295.899,-48"/>
<polygon fill="midnightblue" stroke="midnightblue" points="123.301,-44.5001 113.301,-48 123.301,-51.5001 123.301,-44.5001"/>
</g>
<!-- Node331 -->
<g id="node4" class="node"><title>Node331</title>
<g id="a_node4"><a xlink:href="task__xethru_8c.xhtml#a4d700c7ee4beaac0a8a4c95c11e5c673" target="_top" xlink:title="mcpw_demo_x4m200">
<polygon fill="white" stroke="red" points="149,-0.5 149,-19.5 260,-19.5 260,-0.5 149,-0.5"/>
<text text-anchor="middle" x="204.5" y="-7.5" font-family="Helvetica,sans-Serif" font-size="10.00">mcpw_demo_x4m200</text>
</a>
</g>
</g>
<!-- Node324&#45;&gt;Node331 -->
<g id="edge4" class="edge"><title>Node324&#45;&gt;Node331</title>
<path fill="none" stroke="midnightblue" d="M104.036,-35.8879C124.37,-30.5956 147.871,-24.4787 166.923,-19.5201"/>
<polygon fill="midnightblue" stroke="midnightblue" points="103.138,-32.5049 94.342,-38.411 104.901,-39.2793 103.138,-32.5049"/>
</g>
<!-- Node330&#45;&gt;Node325 -->
<g id="edge3" class="edge"><title>Node330&#45;&gt;Node325</title>
<path fill="none" stroke="midnightblue" d="M417.462,-56.5123C425.859,-57.6125 434.392,-58.7307 442.604,-59.8068"/>
<polygon fill="midnightblue" stroke="midnightblue" points="417.688,-53.0121 407.318,-55.1831 416.779,-59.9527 417.688,-53.0121"/>
</g>
<!-- Node331&#45;&gt;Node330 -->
<g id="edge5" class="edge"><title>Node331&#45;&gt;Node330</title>
<path fill="none" stroke="midnightblue" d="M251.993,-22.1843C272.124,-27.46 295.338,-33.5438 314.173,-38.4799"/>
<polygon fill="midnightblue" stroke="midnightblue" points="252.65,-18.7385 242.09,-19.589 250.876,-25.5098 252.65,-18.7385"/>
</g>
</g>
</svg>
