<?xml version="1.0" encoding="UTF-8" standalone="no"?>
<!DOCTYPE svg PUBLIC "-//W3C//DTD SVG 1.1//EN"
 "http://www.w3.org/Graphics/SVG/1.1/DTD/svg11.dtd">
<!-- Generated by graphviz version 2.38.0 (20140413.2041)
 -->
<!-- Title: mcpw_x4driver_set_downconversion Pages: 1 -->
<svg width="380pt" height="78pt"
 viewBox="0.00 0.00 380.00 77.50" xmlns="http://www.w3.org/2000/svg" xmlns:xlink="http://www.w3.org/1999/xlink">
<g id="graph0" class="graph" transform="scale(1 1) rotate(0) translate(4 73.5)">
<title>mcpw_x4driver_set_downconversion</title>
<polygon fill="white" stroke="none" points="-4,4 -4,-73.5 376,-73.5 376,4 -4,4"/>
<!-- Node496 -->
<g id="node1" class="node"><title>Node496</title>
<polygon fill="#bfbfbf" stroke="black" points="0,-28 0,-47 173,-47 173,-28 0,-28"/>
<text text-anchor="middle" x="86.5" y="-35" font-family="Helvetica,sans-Serif" font-size="10.00">mcpw_x4driver_set_downconversion</text>
</g>
<!-- Node497 -->
<g id="node2" class="node"><title>Node497</title>
<g id="a_node2"><a xlink:href="mcp__wrapper_8c.xhtml#af4b6466ee142c75a81c2d0c4e52baa40" target="_top" xlink:title="mcpw_start_send">
<polygon fill="white" stroke="black" points="244,-50 244,-69 337,-69 337,-50 244,-50"/>
<text text-anchor="middle" x="290.5" y="-57" font-family="Helvetica,sans-Serif" font-size="10.00">mcpw_start_send</text>
</a>
</g>
</g>
<!-- Node496&#45;&gt;Node497 -->
<g id="edge1" class="edge"><title>Node496&#45;&gt;Node497</title>
<path fill="none" stroke="midnightblue" d="M173.166,-46.83C193.671,-49.0631 215.039,-51.3903 233.782,-53.4317"/>
<polygon fill="midnightblue" stroke="midnightblue" points="233.583,-56.9307 243.904,-54.5341 234.341,-49.9718 233.583,-56.9307"/>
</g>
<!-- Node498 -->
<g id="node3" class="node"><title>Node498</title>
<g id="a_node3"><a xlink:href="protocol_8c.xhtml#aff2d24af14031d0cde54967bba631800" target="_top" xlink:title="createX4DriverSetDownconversion\lCommand">
<polygon fill="white" stroke="red" points="209,-0.5 209,-30.5 372,-30.5 372,-0.5 209,-0.5"/>
<text text-anchor="start" x="217" y="-18.5" font-family="Helvetica,sans-Serif" font-size="10.00">createX4DriverSetDownconversion</text>
<text text-anchor="middle" x="290.5" y="-7.5" font-family="Helvetica,sans-Serif" font-size="10.00">Command</text>
</a>
</g>
</g>
<!-- Node496&#45;&gt;Node498 -->
<g id="edge2" class="edge"><title>Node496&#45;&gt;Node498</title>
<path fill="none" stroke="midnightblue" d="M173.166,-28.17C181.668,-27.2441 190.318,-26.302 198.867,-25.3709"/>
<polygon fill="midnightblue" stroke="midnightblue" points="199.281,-28.8466 208.843,-24.2844 198.523,-21.8878 199.281,-28.8466"/>
</g>
</g>
</svg>
