<?xml version="1.0" encoding="UTF-8" standalone="no"?>
<!DOCTYPE svg PUBLIC "-//W3C//DTD SVG 1.1//EN"
 "http://www.w3.org/Graphics/SVG/1.1/DTD/svg11.dtd">
<!-- Generated by graphviz version 2.38.0 (20140413.2041)
 -->
<!-- Title: src/mcp_wrapper.c Pages: 1 -->
<svg width="322pt" height="84pt"
 viewBox="0.00 0.00 322.00 84.00" xmlns="http://www.w3.org/2000/svg" xmlns:xlink="http://www.w3.org/1999/xlink">
<g id="graph0" class="graph" transform="scale(1 1) rotate(0) translate(4 80)">
<title>src/mcp_wrapper.c</title>
<polygon fill="white" stroke="none" points="-4,4 -4,-80 318,-80 318,4 -4,4"/>
<!-- Node0 -->
<g id="node1" class="node"><title>Node0</title>
<polygon fill="#bfbfbf" stroke="black" points="108,-56.5 108,-75.5 207,-75.5 207,-56.5 108,-56.5"/>
<text text-anchor="middle" x="157.5" y="-63.5" font-family="Helvetica,sans-Serif" font-size="10.00">src/mcp_wrapper.c</text>
</g>
<!-- Node1 -->
<g id="node2" class="node"><title>Node1</title>
<polygon fill="white" stroke="#bfbfbf" points="0,-0.5 0,-19.5 83,-19.5 83,-0.5 0,-0.5"/>
<text text-anchor="middle" x="41.5" y="-7.5" font-family="Helvetica,sans-Serif" font-size="10.00">mcp_wrapper.h</text>
</g>
<!-- Node0&#45;&gt;Node1 -->
<g id="edge1" class="edge"><title>Node0&#45;&gt;Node1</title>
<path fill="none" stroke="midnightblue" d="M139.119,-56.4435C120.284,-47.6751 90.7688,-33.9355 69.1207,-23.8579"/>
<polygon fill="midnightblue" stroke="midnightblue" points="70.3375,-20.5637 59.7946,-19.5164 67.3833,-26.9098 70.3375,-20.5637"/>
</g>
<!-- Node2 -->
<g id="node3" class="node"><title>Node2</title>
<polygon fill="white" stroke="#bfbfbf" points="101.5,-0.5 101.5,-19.5 147.5,-19.5 147.5,-0.5 101.5,-0.5"/>
<text text-anchor="middle" x="124.5" y="-7.5" font-family="Helvetica,sans-Serif" font-size="10.00">stdio.h</text>
</g>
<!-- Node0&#45;&gt;Node2 -->
<g id="edge2" class="edge"><title>Node0&#45;&gt;Node2</title>
<path fill="none" stroke="midnightblue" d="M152.051,-56.083C147.486,-48.6127 140.832,-37.7244 135.207,-28.5199"/>
<polygon fill="midnightblue" stroke="midnightblue" points="138.049,-26.4588 129.848,-19.7511 132.076,-30.109 138.049,-26.4588"/>
</g>
<!-- Node3 -->
<g id="node4" class="node"><title>Node3</title>
<polygon fill="white" stroke="#bfbfbf" points="166,-0.5 166,-19.5 215,-19.5 215,-0.5 166,-0.5"/>
<text text-anchor="middle" x="190.5" y="-7.5" font-family="Helvetica,sans-Serif" font-size="10.00">string.h</text>
</g>
<!-- Node0&#45;&gt;Node3 -->
<g id="edge3" class="edge"><title>Node0&#45;&gt;Node3</title>
<path fill="none" stroke="midnightblue" d="M162.949,-56.083C167.514,-48.6127 174.168,-37.7244 179.793,-28.5199"/>
<polygon fill="midnightblue" stroke="midnightblue" points="182.924,-30.109 185.152,-19.7511 176.951,-26.4588 182.924,-30.109"/>
</g>
<!-- Node4 -->
<g id="node5" class="node"><title>Node4</title>
<g id="a_node5"><a xlink:href="protocol_8h.xhtml" target="_top" xlink:title="mcp/protocol.h">
<polygon fill="white" stroke="red" points="233,-0.5 233,-19.5 314,-19.5 314,-0.5 233,-0.5"/>
<text text-anchor="middle" x="273.5" y="-7.5" font-family="Helvetica,sans-Serif" font-size="10.00">mcp/protocol.h</text>
</a>
</g>
</g>
<!-- Node0&#45;&gt;Node4 -->
<g id="edge4" class="edge"><title>Node0&#45;&gt;Node4</title>
<path fill="none" stroke="midnightblue" d="M175.881,-56.4435C194.716,-47.6751 224.231,-33.9355 245.879,-23.8579"/>
<polygon fill="midnightblue" stroke="midnightblue" points="247.617,-26.9098 255.205,-19.5164 244.662,-20.5637 247.617,-26.9098"/>
</g>
</g>
</svg>
