<?xml version="1.0" encoding="UTF-8" standalone="no"?>
<!DOCTYPE svg PUBLIC "-//W3C//DTD SVG 1.1//EN"
 "http://www.w3.org/Graphics/SVG/1.1/DTD/svg11.dtd">
<!-- Generated by graphviz version 2.38.0 (20140413.2041)
 -->
<!-- Title: mcpw_set_noisemap_control Pages: 1 -->
<svg width="320pt" height="78pt"
 viewBox="0.00 0.00 320.00 77.50" xmlns="http://www.w3.org/2000/svg" xmlns:xlink="http://www.w3.org/1999/xlink">
<g id="graph0" class="graph" transform="scale(1 1) rotate(0) translate(4 73.5)">
<title>mcpw_set_noisemap_control</title>
<polygon fill="white" stroke="none" points="-4,4 -4,-73.5 316,-73.5 316,4 -4,4"/>
<!-- Node333 -->
<g id="node1" class="node"><title>Node333</title>
<polygon fill="#bfbfbf" stroke="black" points="0,-28 0,-47 143,-47 143,-28 0,-28"/>
<text text-anchor="middle" x="71.5" y="-35" font-family="Helvetica,sans-Serif" font-size="10.00">mcpw_set_noisemap_control</text>
</g>
<!-- Node334 -->
<g id="node2" class="node"><title>Node334</title>
<g id="a_node2"><a xlink:href="mcp__wrapper_8c.xhtml#af4b6466ee142c75a81c2d0c4e52baa40" target="_top" xlink:title="mcpw_start_send">
<polygon fill="white" stroke="black" points="199,-50 199,-69 292,-69 292,-50 199,-50"/>
<text text-anchor="middle" x="245.5" y="-57" font-family="Helvetica,sans-Serif" font-size="10.00">mcpw_start_send</text>
</a>
</g>
</g>
<!-- Node333&#45;&gt;Node334 -->
<g id="edge1" class="edge"><title>Node333&#45;&gt;Node334</title>
<path fill="none" stroke="midnightblue" d="M143.452,-46.5753C158.494,-48.4992 174.169,-50.5042 188.56,-52.3449"/>
<polygon fill="midnightblue" stroke="midnightblue" points="188.421,-55.8556 198.785,-53.6527 189.31,-48.9122 188.421,-55.8556"/>
</g>
<!-- Node335 -->
<g id="node3" class="node"><title>Node335</title>
<g id="a_node3"><a xlink:href="protocol_8c.xhtml#a0cb752785cc9b92472122c08c5cf53e5" target="_top" xlink:title="createSetNoiseMapControl\lCommand">
<polygon fill="white" stroke="red" points="179,-0.5 179,-30.5 312,-30.5 312,-0.5 179,-0.5"/>
<text text-anchor="start" x="187" y="-18.5" font-family="Helvetica,sans-Serif" font-size="10.00">createSetNoiseMapControl</text>
<text text-anchor="middle" x="245.5" y="-7.5" font-family="Helvetica,sans-Serif" font-size="10.00">Command</text>
</a>
</g>
</g>
<!-- Node333&#45;&gt;Node335 -->
<g id="edge2" class="edge"><title>Node333&#45;&gt;Node335</title>
<path fill="none" stroke="midnightblue" d="M143.452,-28.4247C151.807,-27.3561 160.358,-26.2624 168.775,-25.1857"/>
<polygon fill="midnightblue" stroke="midnightblue" points="169.48,-28.6242 178.955,-23.8837 168.591,-21.6808 169.48,-28.6242"/>
</g>
</g>
</svg>
