<?xml version="1.0" encoding="UTF-8" standalone="no"?>
<!DOCTYPE svg PUBLIC "-//W3C//DTD SVG 1.1//EN"
 "http://www.w3.org/Graphics/SVG/1.1/DTD/svg11.dtd">
<!-- Generated by graphviz version 2.38.0 (20140413.2041)
 -->
<!-- Title: mcpw_bl_start_application Pages: 1 -->
<svg width="332pt" height="66pt"
 viewBox="0.00 0.00 332.00 66.00" xmlns="http://www.w3.org/2000/svg" xmlns:xlink="http://www.w3.org/1999/xlink">
<g id="graph0" class="graph" transform="scale(1 1) rotate(0) translate(4 62)">
<title>mcpw_bl_start_application</title>
<polygon fill="white" stroke="none" points="-4,4 -4,-62 328,-62 328,4 -4,4"/>
<!-- Node0 -->
<g id="node1" class="node"><title>Node0</title>
<polygon fill="#bfbfbf" stroke="black" points="0,-19.5 0,-38.5 131,-38.5 131,-19.5 0,-19.5"/>
<text text-anchor="middle" x="65.5" y="-26.5" font-family="Helvetica,sans-Serif" font-size="10.00">mcpw_bl_start_application</text>
</g>
<!-- Node1 -->
<g id="node2" class="node"><title>Node1</title>
<g id="a_node2"><a xlink:href="mcp__wrapper_8c.xhtml#af4b6466ee142c75a81c2d0c4e52baa40" target="_top" xlink:title="mcpw_start_send">
<polygon fill="white" stroke="black" points="199,-38.5 199,-57.5 292,-57.5 292,-38.5 199,-38.5"/>
<text text-anchor="middle" x="245.5" y="-45.5" font-family="Helvetica,sans-Serif" font-size="10.00">mcpw_start_send</text>
</a>
</g>
</g>
<!-- Node0&#45;&gt;Node1 -->
<g id="edge1" class="edge"><title>Node0&#45;&gt;Node1</title>
<path fill="none" stroke="midnightblue" d="M131.014,-35.8863C149.986,-37.9114 170.568,-40.1084 188.929,-42.0682"/>
<polygon fill="midnightblue" stroke="midnightblue" points="188.561,-45.5488 198.876,-43.1301 189.304,-38.5884 188.561,-45.5488"/>
</g>
<!-- Node2 -->
<g id="node3" class="node"><title>Node2</title>
<g id="a_node3"><a xlink:href="protocol_8c.xhtml#ac9e4f52e71b506ed9196802f2cd90842" target="_top" xlink:title="createApplicationStartCommand">
<polygon fill="white" stroke="red" points="167,-0.5 167,-19.5 324,-19.5 324,-0.5 167,-0.5"/>
<text text-anchor="middle" x="245.5" y="-7.5" font-family="Helvetica,sans-Serif" font-size="10.00">createApplicationStartCommand</text>
</a>
</g>
</g>
<!-- Node0&#45;&gt;Node2 -->
<g id="edge2" class="edge"><title>Node0&#45;&gt;Node2</title>
<path fill="none" stroke="midnightblue" d="M131.014,-22.1137C139.381,-21.2206 148.06,-20.2941 156.725,-19.3693"/>
<polygon fill="midnightblue" stroke="midnightblue" points="157.297,-22.8281 166.869,-18.2864 156.554,-15.8677 157.297,-22.8281"/>
</g>
</g>
</svg>
