<?xml version="1.0" encoding="UTF-8" standalone="no"?>
<!DOCTYPE svg PUBLIC "-//W3C//DTD SVG 1.1//EN"
 "http://www.w3.org/Graphics/SVG/1.1/DTD/svg11.dtd">
<!-- Generated by graphviz version 2.38.0 (20140413.2041)
 -->
<!-- Title: mcpw_load_profile Pages: 1 -->
<svg width="276pt" height="66pt"
 viewBox="0.00 0.00 276.00 66.00" xmlns="http://www.w3.org/2000/svg" xmlns:xlink="http://www.w3.org/1999/xlink">
<g id="graph0" class="graph" transform="scale(1 1) rotate(0) translate(4 62)">
<title>mcpw_load_profile</title>
<polygon fill="white" stroke="none" points="-4,4 -4,-62 272,-62 272,4 -4,4"/>
<!-- Node123 -->
<g id="node1" class="node"><title>Node123</title>
<polygon fill="#bfbfbf" stroke="black" points="0,-19.5 0,-38.5 96,-38.5 96,-19.5 0,-19.5"/>
<text text-anchor="middle" x="48" y="-26.5" font-family="Helvetica,sans-Serif" font-size="10.00">mcpw_load_profile</text>
</g>
<!-- Node124 -->
<g id="node2" class="node"><title>Node124</title>
<g id="a_node2"><a xlink:href="mcp__wrapper_8c.xhtml#af4b6466ee142c75a81c2d0c4e52baa40" target="_top" xlink:title="mcpw_start_send">
<polygon fill="white" stroke="black" points="153.5,-38.5 153.5,-57.5 246.5,-57.5 246.5,-38.5 153.5,-38.5"/>
<text text-anchor="middle" x="200" y="-45.5" font-family="Helvetica,sans-Serif" font-size="10.00">mcpw_start_send</text>
</a>
</g>
</g>
<!-- Node123&#45;&gt;Node124 -->
<g id="edge1" class="edge"><title>Node123&#45;&gt;Node124</title>
<path fill="none" stroke="midnightblue" d="M96.0494,-34.9596C111.062,-36.8611 127.817,-38.9835 143.378,-40.9546"/>
<polygon fill="midnightblue" stroke="midnightblue" points="143.04,-44.4397 153.401,-42.2241 143.92,-37.4951 143.04,-44.4397"/>
</g>
<!-- Node125 -->
<g id="node3" class="node"><title>Node125</title>
<g id="a_node3"><a xlink:href="protocol_8c.xhtml#a3372bf51fcd982b2d8ab712bdf245c74" target="_top" xlink:title="createLoadProfileCommand">
<polygon fill="white" stroke="red" points="132,-0.5 132,-19.5 268,-19.5 268,-0.5 132,-0.5"/>
<text text-anchor="middle" x="200" y="-7.5" font-family="Helvetica,sans-Serif" font-size="10.00">createLoadProfileCommand</text>
</a>
</g>
</g>
<!-- Node123&#45;&gt;Node125 -->
<g id="edge2" class="edge"><title>Node123&#45;&gt;Node125</title>
<path fill="none" stroke="midnightblue" d="M96.0494,-23.0404C104.289,-21.9967 113.055,-20.8864 121.86,-19.7711"/>
<polygon fill="midnightblue" stroke="midnightblue" points="122.31,-23.2421 131.791,-18.5131 121.431,-16.2976 122.31,-23.2421"/>
</g>
</g>
</svg>
