<?xml version="1.0" encoding="UTF-8" standalone="no"?>
<!DOCTYPE svg PUBLIC "-//W3C//DTD SVG 1.1//EN"
 "http://www.w3.org/Graphics/SVG/1.1/DTD/svg11.dtd">
<!-- Generated by graphviz version 2.38.0 (20140413.2041)
 -->
<!-- Title: mcpw_x4driver_set_pulses_per_step Pages: 1 -->
<svg width="315pt" height="78pt"
 viewBox="0.00 0.00 315.00 77.50" xmlns="http://www.w3.org/2000/svg" xmlns:xlink="http://www.w3.org/1999/xlink">
<g id="graph0" class="graph" transform="scale(1 1) rotate(0) translate(4 73.5)">
<title>mcpw_x4driver_set_pulses_per_step</title>
<polygon fill="white" stroke="none" points="-4,4 -4,-73.5 311,-73.5 311,4 -4,4"/>
<!-- Node543 -->
<g id="node1" class="node"><title>Node543</title>
<polygon fill="#bfbfbf" stroke="black" points="0,-22.5 0,-52.5 133,-52.5 133,-22.5 0,-22.5"/>
<text text-anchor="start" x="8" y="-40.5" font-family="Helvetica,sans-Serif" font-size="10.00">mcpw_x4driver_set_pulses</text>
<text text-anchor="middle" x="66.5" y="-29.5" font-family="Helvetica,sans-Serif" font-size="10.00">_per_step</text>
</g>
<!-- Node544 -->
<g id="node2" class="node"><title>Node544</title>
<g id="a_node2"><a xlink:href="mcp__wrapper_8c.xhtml#af4b6466ee142c75a81c2d0c4e52baa40" target="_top" xlink:title="mcpw_start_send">
<polygon fill="white" stroke="black" points="191.5,-50 191.5,-69 284.5,-69 284.5,-50 191.5,-50"/>
<text text-anchor="middle" x="238" y="-57" font-family="Helvetica,sans-Serif" font-size="10.00">mcpw_start_send</text>
</a>
</g>
</g>
<!-- Node543&#45;&gt;Node544 -->
<g id="edge1" class="edge"><title>Node543&#45;&gt;Node544</title>
<path fill="none" stroke="midnightblue" d="M133.033,-46.0058C149.005,-48.0788 165.938,-50.2766 181.397,-52.2831"/>
<polygon fill="midnightblue" stroke="midnightblue" points="180.951,-55.7545 191.318,-53.5708 181.852,-48.8127 180.951,-55.7545"/>
</g>
<!-- Node545 -->
<g id="node3" class="node"><title>Node545</title>
<g id="a_node3"><a xlink:href="protocol_8c.xhtml#a4ba859278c5263069287a047858dda0c" target="_top" xlink:title="createX4DriverSetPulsesPer\lStepCommand">
<polygon fill="white" stroke="red" points="169,-0.5 169,-30.5 307,-30.5 307,-0.5 169,-0.5"/>
<text text-anchor="start" x="177" y="-18.5" font-family="Helvetica,sans-Serif" font-size="10.00">createX4DriverSetPulsesPer</text>
<text text-anchor="middle" x="238" y="-7.5" font-family="Helvetica,sans-Serif" font-size="10.00">StepCommand</text>
</a>
</g>
</g>
<!-- Node543&#45;&gt;Node545 -->
<g id="edge2" class="edge"><title>Node543&#45;&gt;Node545</title>
<path fill="none" stroke="midnightblue" d="M133.033,-28.9942C141.47,-27.8992 150.175,-26.7694 158.789,-25.6513"/>
<polygon fill="midnightblue" stroke="midnightblue" points="159.372,-29.1051 168.838,-24.347 158.471,-22.1633 159.372,-29.1051"/>
</g>
</g>
</svg>
