<?xml version="1.0" encoding="UTF-8" standalone="no"?>
<!DOCTYPE svg PUBLIC "-//W3C//DTD SVG 1.1//EN"
 "http://www.w3.org/Graphics/SVG/1.1/DTD/svg11.dtd">
<!-- Generated by graphviz version 2.38.0 (20140413.2041)
 -->
<!-- Title: mcpw_set_detection_zone Pages: 1 -->
<svg width="581pt" height="85pt"
 viewBox="0.00 0.00 581.00 85.00" xmlns="http://www.w3.org/2000/svg" xmlns:xlink="http://www.w3.org/1999/xlink">
<g id="graph0" class="graph" transform="scale(1 1) rotate(0) translate(4 81)">
<title>mcpw_set_detection_zone</title>
<polygon fill="white" stroke="none" points="-4,4 -4,-81 577,-81 577,4 -4,4"/>
<!-- Node308 -->
<g id="node1" class="node"><title>Node308</title>
<polygon fill="#bfbfbf" stroke="black" points="0,-38.5 0,-57.5 132,-57.5 132,-38.5 0,-38.5"/>
<text text-anchor="middle" x="66" y="-45.5" font-family="Helvetica,sans-Serif" font-size="10.00">mcpw_set_detection_zone</text>
</g>
<!-- Node309 -->
<g id="node2" class="node"><title>Node309</title>
<g id="a_node2"><a xlink:href="task__xethru_8c.xhtml#ae9875b2314666b540f1ce5e410710129" target="_top" xlink:title="mcpw_demo_x2m200">
<polygon fill="white" stroke="red" points="462,-57.5 462,-76.5 573,-76.5 573,-57.5 462,-57.5"/>
<text text-anchor="middle" x="517.5" y="-64.5" font-family="Helvetica,sans-Serif" font-size="10.00">mcpw_demo_x2m200</text>
</a>
</g>
</g>
<!-- Node308&#45;&gt;Node309 -->
<g id="edge1" class="edge"><title>Node308&#45;&gt;Node309</title>
<path fill="none" stroke="midnightblue" d="M138.526,-58.8505C148.409,-60.076 158.444,-61.1774 168,-62 271.543,-70.9129 393.013,-70.117 461.752,-68.6278"/>
<polygon fill="midnightblue" stroke="midnightblue" points="138.673,-55.3406 128.308,-57.535 137.779,-62.2833 138.673,-55.3406"/>
</g>
<!-- Node314 -->
<g id="node3" class="node"><title>Node314</title>
<g id="a_node3"><a xlink:href="task__xethru_8c.xhtml#a54c65348b306e1067cb83cfd0b41cfe6" target="_top" xlink:title="mcpw_demo_x4m300">
<polygon fill="white" stroke="black" points="315,-38.5 315,-57.5 426,-57.5 426,-38.5 315,-38.5"/>
<text text-anchor="middle" x="370.5" y="-45.5" font-family="Helvetica,sans-Serif" font-size="10.00">mcpw_demo_x4m300</text>
</a>
</g>
</g>
<!-- Node308&#45;&gt;Node314 -->
<g id="edge2" class="edge"><title>Node308&#45;&gt;Node314</title>
<path fill="none" stroke="midnightblue" d="M142.407,-48C196.018,-48 266.78,-48 314.973,-48"/>
<polygon fill="midnightblue" stroke="midnightblue" points="142.266,-44.5001 132.266,-48 142.266,-51.5001 142.266,-44.5001"/>
</g>
<!-- Node315 -->
<g id="node4" class="node"><title>Node315</title>
<g id="a_node4"><a xlink:href="task__xethru_8c.xhtml#a4d700c7ee4beaac0a8a4c95c11e5c673" target="_top" xlink:title="mcpw_demo_x4m200">
<polygon fill="white" stroke="red" points="168,-0.5 168,-19.5 279,-19.5 279,-0.5 168,-0.5"/>
<text text-anchor="middle" x="223.5" y="-7.5" font-family="Helvetica,sans-Serif" font-size="10.00">mcpw_demo_x4m200</text>
</a>
</g>
</g>
<!-- Node308&#45;&gt;Node315 -->
<g id="edge4" class="edge"><title>Node308&#45;&gt;Node315</title>
<path fill="none" stroke="midnightblue" d="M115.974,-36.032C137.765,-30.7069 163.067,-24.5238 183.543,-19.5201"/>
<polygon fill="midnightblue" stroke="midnightblue" points="115.122,-32.6371 106.239,-38.411 116.784,-39.437 115.122,-32.6371"/>
</g>
<!-- Node314&#45;&gt;Node309 -->
<g id="edge3" class="edge"><title>Node314&#45;&gt;Node309</title>
<path fill="none" stroke="midnightblue" d="M436.462,-56.5123C444.859,-57.6125 453.392,-58.7307 461.604,-59.8068"/>
<polygon fill="midnightblue" stroke="midnightblue" points="436.688,-53.0121 426.318,-55.1831 435.779,-59.9527 436.688,-53.0121"/>
</g>
<!-- Node315&#45;&gt;Node314 -->
<g id="edge5" class="edge"><title>Node315&#45;&gt;Node314</title>
<path fill="none" stroke="midnightblue" d="M270.993,-22.1843C291.124,-27.46 314.338,-33.5438 333.173,-38.4799"/>
<polygon fill="midnightblue" stroke="midnightblue" points="271.65,-18.7385 261.09,-19.589 269.876,-25.5098 271.65,-18.7385"/>
</g>
</g>
</svg>
