<?xml version="1.0" encoding="UTF-8" standalone="no"?>
<!DOCTYPE svg PUBLIC "-//W3C//DTD SVG 1.1//EN"
 "http://www.w3.org/Graphics/SVG/1.1/DTD/svg11.dtd">
<!-- Generated by graphviz version 2.38.0 (20140413.2041)
 -->
<!-- Title: mcpw_get_systeminfo Pages: 1 -->
<svg width="309pt" height="66pt"
 viewBox="0.00 0.00 309.00 66.00" xmlns="http://www.w3.org/2000/svg" xmlns:xlink="http://www.w3.org/1999/xlink">
<g id="graph0" class="graph" transform="scale(1 1) rotate(0) translate(4 62)">
<title>mcpw_get_systeminfo</title>
<polygon fill="white" stroke="none" points="-4,4 -4,-62 305,-62 305,4 -4,4"/>
<!-- Node52 -->
<g id="node1" class="node"><title>Node52</title>
<polygon fill="#bfbfbf" stroke="black" points="0,-19.5 0,-38.5 113,-38.5 113,-19.5 0,-19.5"/>
<text text-anchor="middle" x="56.5" y="-26.5" font-family="Helvetica,sans-Serif" font-size="10.00">mcpw_get_systeminfo</text>
</g>
<!-- Node53 -->
<g id="node2" class="node"><title>Node53</title>
<g id="a_node2"><a xlink:href="mcp__wrapper_8c.xhtml#af4b6466ee142c75a81c2d0c4e52baa40" target="_top" xlink:title="mcpw_start_send">
<polygon fill="white" stroke="black" points="178.5,-38.5 178.5,-57.5 271.5,-57.5 271.5,-38.5 178.5,-38.5"/>
<text text-anchor="middle" x="225" y="-45.5" font-family="Helvetica,sans-Serif" font-size="10.00">mcpw_start_send</text>
</a>
</g>
</g>
<!-- Node52&#45;&gt;Node53 -->
<g id="edge1" class="edge"><title>Node52&#45;&gt;Node53</title>
<path fill="none" stroke="midnightblue" d="M113.405,-35.3796C131.095,-37.3983 150.638,-39.6284 168.313,-41.6453"/>
<polygon fill="midnightblue" stroke="midnightblue" points="168.143,-45.1486 178.476,-42.805 168.937,-38.1937 168.143,-45.1486"/>
</g>
<!-- Node54 -->
<g id="node3" class="node"><title>Node54</title>
<g id="a_node3"><a xlink:href="protocol_8c.xhtml#a699dcc3f0d7060f7e29dcbbbc859a002" target="_top" xlink:title="createGetSystemInfoCommand">
<polygon fill="white" stroke="red" points="149,-0.5 149,-19.5 301,-19.5 301,-0.5 149,-0.5"/>
<text text-anchor="middle" x="225" y="-7.5" font-family="Helvetica,sans-Serif" font-size="10.00">createGetSystemInfoCommand</text>
</a>
</g>
</g>
<!-- Node52&#45;&gt;Node54 -->
<g id="edge2" class="edge"><title>Node52&#45;&gt;Node54</title>
<path fill="none" stroke="midnightblue" d="M113.405,-22.6204C121.554,-21.6906 130.095,-20.7159 138.666,-19.7378"/>
<polygon fill="midnightblue" stroke="midnightblue" points="139.18,-23.2019 148.719,-18.5906 138.387,-16.247 139.18,-23.2019"/>
</g>
</g>
</svg>
