<?xml version="1.0" encoding="UTF-8" standalone="no"?>
<!DOCTYPE svg PUBLIC "-//W3C//DTD SVG 1.1//EN"
 "http://www.w3.org/Graphics/SVG/1.1/DTD/svg11.dtd">
<!-- Generated by graphviz version 2.38.0 (20140413.2041)
 -->
<!-- Title: examples/atmel_samg55/src/ASF/thirdparty/freertos/freertos&#45;7.0.0/source/include/mpu_wrappers.h Pages: 1 -->
<svg width="388pt" height="217pt"
 viewBox="0.00 0.00 387.50 217.00" xmlns="http://www.w3.org/2000/svg" xmlns:xlink="http://www.w3.org/1999/xlink">
<g id="graph0" class="graph" transform="scale(1 1) rotate(0) translate(4 213)">
<title>examples/atmel_samg55/src/ASF/thirdparty/freertos/freertos&#45;7.0.0/source/include/mpu_wrappers.h</title>
<polygon fill="white" stroke="none" points="-4,4 -4,-213 383.5,-213 383.5,4 -4,4"/>
<!-- Node1 -->
<g id="node1" class="node"><title>Node1</title>
<polygon fill="#bfbfbf" stroke="black" points="100,-156.5 100,-208.5 243,-208.5 243,-156.5 100,-156.5"/>
<text text-anchor="start" x="108" y="-196.5" font-family="Helvetica,sans-Serif" font-size="10.00">examples/atmel_samg55</text>
<text text-anchor="start" x="108" y="-185.5" font-family="Helvetica,sans-Serif" font-size="10.00">/src/ASF/thirdparty/freertos</text>
<text text-anchor="start" x="108" y="-174.5" font-family="Helvetica,sans-Serif" font-size="10.00">/freertos&#45;7.0.0/source/include</text>
<text text-anchor="middle" x="171.5" y="-163.5" font-family="Helvetica,sans-Serif" font-size="10.00">/mpu_wrappers.h</text>
</g>
<!-- Node2 -->
<g id="node2" class="node"><title>Node2</title>
<g id="a_node2"><a xlink:href="portable_8h.xhtml" target="_top" xlink:title="examples/atmel_samg55\l/src/ASF/thirdparty/freertos\l/freertos&#45;7.0.0/source/include\l/portable.h">
<polygon fill="white" stroke="red" points="0,-67.5 0,-119.5 143,-119.5 143,-67.5 0,-67.5"/>
<text text-anchor="start" x="8" y="-107.5" font-family="Helvetica,sans-Serif" font-size="10.00">examples/atmel_samg55</text>
<text text-anchor="start" x="8" y="-96.5" font-family="Helvetica,sans-Serif" font-size="10.00">/src/ASF/thirdparty/freertos</text>
<text text-anchor="start" x="8" y="-85.5" font-family="Helvetica,sans-Serif" font-size="10.00">/freertos&#45;7.0.0/source/include</text>
<text text-anchor="middle" x="71.5" y="-74.5" font-family="Helvetica,sans-Serif" font-size="10.00">/portable.h</text>
</a>
</g>
</g>
<!-- Node1&#45;&gt;Node2 -->
<g id="edge1" class="edge"><title>Node1&#45;&gt;Node2</title>
<path fill="none" stroke="midnightblue" d="M134.89,-149.649C123.51,-139.749 111.132,-128.98 100.359,-119.607"/>
<polygon fill="midnightblue" stroke="midnightblue" points="132.734,-152.413 142.576,-156.336 137.329,-147.132 132.734,-152.413"/>
</g>
<!-- Node8 -->
<g id="node3" class="node"><title>Node8</title>
<g id="a_node3"><a xlink:href="asf_8h.xhtml" target="_top" xlink:title="Autogenerated API include file for the Atmel Software Framework (ASF) ">
<polygon fill="white" stroke="red" points="109,-0.5 109,-30.5 234,-30.5 234,-0.5 109,-0.5"/>
<text text-anchor="start" x="117" y="-18.5" font-family="Helvetica,sans-Serif" font-size="10.00">examples/atmel_samg55</text>
<text text-anchor="middle" x="171.5" y="-7.5" font-family="Helvetica,sans-Serif" font-size="10.00">/src/asf.h</text>
</a>
</g>
</g>
<!-- Node1&#45;&gt;Node8 -->
<g id="edge5" class="edge"><title>Node1&#45;&gt;Node8</title>
<path fill="none" stroke="midnightblue" d="M171.5,-146.34C171.5,-110.279 171.5,-55.9798 171.5,-30.5611"/>
<polygon fill="midnightblue" stroke="midnightblue" points="168,-146.44 171.5,-156.44 175,-146.44 168,-146.44"/>
</g>
<!-- Node21 -->
<g id="node4" class="node"><title>Node21</title>
<g id="a_node4"><a xlink:href="queue_8h.xhtml" target="_top" xlink:title="examples/atmel_samg55\l/src/ASF/thirdparty/freertos\l/freertos&#45;7.0.0/source/include/queue.h">
<polygon fill="white" stroke="red" points="199.5,-73 199.5,-114 379.5,-114 379.5,-73 199.5,-73"/>
<text text-anchor="start" x="207.5" y="-102" font-family="Helvetica,sans-Serif" font-size="10.00">examples/atmel_samg55</text>
<text text-anchor="start" x="207.5" y="-91" font-family="Helvetica,sans-Serif" font-size="10.00">/src/ASF/thirdparty/freertos</text>
<text text-anchor="middle" x="289.5" y="-80" font-family="Helvetica,sans-Serif" font-size="10.00">/freertos&#45;7.0.0/source/include/queue.h</text>
</a>
</g>
</g>
<!-- Node1&#45;&gt;Node21 -->
<g id="edge3" class="edge"><title>Node1&#45;&gt;Node21</title>
<path fill="none" stroke="midnightblue" d="M213.981,-150.179C230.326,-138.128 248.511,-124.72 262.94,-114.082"/>
<polygon fill="midnightblue" stroke="midnightblue" points="211.602,-147.585 205.63,-156.336 215.756,-153.219 211.602,-147.585"/>
</g>
<!-- Node2&#45;&gt;Node8 -->
<g id="edge2" class="edge"><title>Node2&#45;&gt;Node8</title>
<path fill="none" stroke="midnightblue" d="M112.596,-61.2667C126.558,-50.6558 141.477,-39.3175 152.807,-30.7066"/>
<polygon fill="midnightblue" stroke="midnightblue" points="110.365,-58.5667 104.521,-67.4041 114.6,-64.1398 110.365,-58.5667"/>
</g>
<!-- Node21&#45;&gt;Node8 -->
<g id="edge4" class="edge"><title>Node21&#45;&gt;Node8</title>
<path fill="none" stroke="midnightblue" d="M250.662,-67.4854C231.714,-55.282 209.613,-41.0476 193.587,-30.7254"/>
<polygon fill="midnightblue" stroke="midnightblue" points="248.81,-70.4558 259.112,-72.9281 252.6,-64.5708 248.81,-70.4558"/>
</g>
</g>
</svg>
