<?xml version="1.0" encoding="UTF-8" standalone="no"?>
<!DOCTYPE svg PUBLIC "-//W3C//DTD SVG 1.1//EN"
 "http://www.w3.org/Graphics/SVG/1.1/DTD/svg11.dtd">
<!-- Generated by graphviz version 2.38.0 (20140413.2041)
 -->
<!-- Title: examples/atmel_samg55/src/ASF/sam/utils/cmsis/samg/samg55/include/pio/samg55j18.h Pages: 1 -->
<svg width="181pt" height="139pt"
 viewBox="0.00 0.00 181.00 139.00" xmlns="http://www.w3.org/2000/svg" xmlns:xlink="http://www.w3.org/1999/xlink">
<g id="graph0" class="graph" transform="scale(1 1) rotate(0) translate(4 135)">
<title>examples/atmel_samg55/src/ASF/sam/utils/cmsis/samg/samg55/include/pio/samg55j18.h</title>
<polygon fill="white" stroke="none" points="-4,4 -4,-135 177,-135 177,4 -4,4"/>
<!-- Node1 -->
<g id="node1" class="node"><title>Node1</title>
<polygon fill="#bfbfbf" stroke="black" points="21,-78.5 21,-130.5 152,-130.5 152,-78.5 21,-78.5"/>
<text text-anchor="start" x="29" y="-118.5" font-family="Helvetica,sans-Serif" font-size="10.00">examples/atmel_samg55</text>
<text text-anchor="start" x="29" y="-107.5" font-family="Helvetica,sans-Serif" font-size="10.00">/src/ASF/sam/utils/cmsis</text>
<text text-anchor="start" x="29" y="-96.5" font-family="Helvetica,sans-Serif" font-size="10.00">/samg/samg55/include/pio</text>
<text text-anchor="middle" x="86.5" y="-85.5" font-family="Helvetica,sans-Serif" font-size="10.00">/samg55j18.h</text>
</g>
<!-- Node2 -->
<g id="node2" class="node"><title>Node2</title>
<g id="a_node2"><a xlink:href="samg55j18_8h.xhtml" target="_top" xlink:title="Copyright (c) 2014&#45;2015 Atmel Corporation. ">
<polygon fill="white" stroke="black" points="0,-0.5 0,-41.5 173,-41.5 173,-0.5 0,-0.5"/>
<text text-anchor="start" x="8" y="-29.5" font-family="Helvetica,sans-Serif" font-size="10.00">examples/atmel_samg55</text>
<text text-anchor="start" x="8" y="-18.5" font-family="Helvetica,sans-Serif" font-size="10.00">/src/ASF/sam/utils/cmsis</text>
<text text-anchor="middle" x="86.5" y="-7.5" font-family="Helvetica,sans-Serif" font-size="10.00">/samg/samg55/include/samg55j18.h</text>
</a>
</g>
</g>
<!-- Node1&#45;&gt;Node2 -->
<g id="edge1" class="edge"><title>Node1&#45;&gt;Node2</title>
<path fill="none" stroke="midnightblue" d="M86.5,-68.1474C86.5,-59.0546 86.5,-49.5968 86.5,-41.6282"/>
<polygon fill="midnightblue" stroke="midnightblue" points="83.0001,-68.1596 86.5,-78.1596 90.0001,-68.1597 83.0001,-68.1596"/>
</g>
</g>
</svg>
