<?xml version="1.0" encoding="UTF-8" standalone="no"?>
<!DOCTYPE svg PUBLIC "-//W3C//DTD SVG 1.1//EN"
 "http://www.w3.org/Graphics/SVG/1.1/DTD/svg11.dtd">
<!-- Generated by graphviz version 2.38.0 (20140413.2041)
 -->
<!-- Title: examples/atmel_samg55/src/ASF/common/services/clock/pll.h Pages: 1 -->
<svg width="150pt" height="106pt"
 viewBox="0.00 0.00 149.50 106.00" xmlns="http://www.w3.org/2000/svg" xmlns:xlink="http://www.w3.org/1999/xlink">
<g id="graph0" class="graph" transform="scale(1 1) rotate(0) translate(4 102)">
<title>examples/atmel_samg55/src/ASF/common/services/clock/pll.h</title>
<polygon fill="white" stroke="none" points="-4,4 -4,-102 145.5,-102 145.5,4 -4,4"/>
<!-- Node0 -->
<g id="node1" class="node"><title>Node0</title>
<polygon fill="#bfbfbf" stroke="black" points="0,-56.5 0,-97.5 134,-97.5 134,-56.5 0,-56.5"/>
<text text-anchor="start" x="8" y="-85.5" font-family="Helvetica,sans-Serif" font-size="10.00">examples/atmel_samg55</text>
<text text-anchor="start" x="8" y="-74.5" font-family="Helvetica,sans-Serif" font-size="10.00">/src/ASF/common/services</text>
<text text-anchor="middle" x="67" y="-63.5" font-family="Helvetica,sans-Serif" font-size="10.00">/clock/pll.h</text>
</g>
<!-- Node1 -->
<g id="node2" class="node"><title>Node1</title>
<g id="a_node2"><a xlink:href="parts_8h.xhtml" target="_top" xlink:title="Atmel part identification macros. ">
<polygon fill="white" stroke="black" points="5.5,-0.5 5.5,-19.5 52.5,-19.5 52.5,-0.5 5.5,-0.5"/>
<text text-anchor="middle" x="29" y="-7.5" font-family="Helvetica,sans-Serif" font-size="10.00">parts.h</text>
</a>
</g>
</g>
<!-- Node0&#45;&gt;Node1 -->
<g id="edge1" class="edge"><title>Node0&#45;&gt;Node1</title>
<path fill="none" stroke="midnightblue" d="M55.5987,-56.4979C50.3889,-47.5862 44.2663,-37.1135 39.2095,-28.4636"/>
<polygon fill="midnightblue" stroke="midnightblue" points="42.1269,-26.519 34.0584,-19.6525 36.0839,-30.0519 42.1269,-26.519"/>
</g>
<!-- Node2 -->
<g id="node3" class="node"><title>Node2</title>
<g id="a_node3"><a xlink:href="conf__clock_8h.xhtml" target="_top" xlink:title="SAMG55 clock configuration. ">
<polygon fill="white" stroke="black" points="70.5,-0.5 70.5,-19.5 141.5,-19.5 141.5,-0.5 70.5,-0.5"/>
<text text-anchor="middle" x="106" y="-7.5" font-family="Helvetica,sans-Serif" font-size="10.00">conf_clock.h</text>
</a>
</g>
</g>
<!-- Node0&#45;&gt;Node2 -->
<g id="edge2" class="edge"><title>Node0&#45;&gt;Node2</title>
<path fill="none" stroke="midnightblue" d="M78.7013,-56.4979C84.0483,-47.5862 90.3319,-37.1135 95.5218,-28.4636"/>
<polygon fill="midnightblue" stroke="midnightblue" points="98.6647,-30.0282 100.809,-19.6525 92.6623,-26.4267 98.6647,-30.0282"/>
</g>
</g>
</svg>
