<?xml version="1.0" encoding="UTF-8" standalone="no"?>
<!DOCTYPE svg PUBLIC "-//W3C//DTD SVG 1.1//EN"
 "http://www.w3.org/Graphics/SVG/1.1/DTD/svg11.dtd">
<!-- Generated by graphviz version 2.38.0 (20140413.2041)
 -->
<!-- Title: xPortStartScheduler Pages: 1 -->
<svg width="271pt" height="104pt"
 viewBox="0.00 0.00 271.00 104.00" xmlns="http://www.w3.org/2000/svg" xmlns:xlink="http://www.w3.org/1999/xlink">
<g id="graph0" class="graph" transform="scale(1 1) rotate(0) translate(4 100)">
<title>xPortStartScheduler</title>
<polygon fill="white" stroke="none" points="-4,4 -4,-100 267,-100 267,4 -4,4"/>
<!-- Node38 -->
<g id="node1" class="node"><title>Node38</title>
<polygon fill="#bfbfbf" stroke="black" points="0,-38.5 0,-57.5 104,-57.5 104,-38.5 0,-38.5"/>
<text text-anchor="middle" x="52" y="-45.5" font-family="Helvetica,sans-Serif" font-size="10.00">xPortStartScheduler</text>
</g>
<!-- Node39 -->
<g id="node2" class="node"><title>Node39</title>
<g id="a_node2"><a xlink:href="port_8c.xhtml#a4649001ea4d29b80759e6eca4bba58eb" target="_top" xlink:title="vPortSetupTimerInterrupt">
<polygon fill="white" stroke="black" points="140,-76.5 140,-95.5 263,-95.5 263,-76.5 140,-76.5"/>
<text text-anchor="middle" x="201.5" y="-83.5" font-family="Helvetica,sans-Serif" font-size="10.00">vPortSetupTimerInterrupt</text>
</a>
</g>
</g>
<!-- Node38&#45;&gt;Node39 -->
<g id="edge1" class="edge"><title>Node38&#45;&gt;Node39</title>
<path fill="none" stroke="midnightblue" d="M90.2205,-57.589C109.509,-62.5583 133.258,-68.6767 153.771,-73.9613"/>
<polygon fill="midnightblue" stroke="midnightblue" points="152.99,-77.3744 163.547,-76.4799 154.737,-70.5957 152.99,-77.3744"/>
</g>
<!-- Node40 -->
<g id="node3" class="node"><title>Node40</title>
<g id="a_node3"><a xlink:href="port_8c.xhtml#a6f5cb447f3560f9722f4f117d723184a" target="_top" xlink:title="vPortEnableVFP">
<polygon fill="white" stroke="black" points="157.5,-38.5 157.5,-57.5 245.5,-57.5 245.5,-38.5 157.5,-38.5"/>
<text text-anchor="middle" x="201.5" y="-45.5" font-family="Helvetica,sans-Serif" font-size="10.00">vPortEnableVFP</text>
</a>
</g>
</g>
<!-- Node38&#45;&gt;Node40 -->
<g id="edge2" class="edge"><title>Node38&#45;&gt;Node40</title>
<path fill="none" stroke="midnightblue" d="M104.174,-48C117.966,-48 132.923,-48 146.846,-48"/>
<polygon fill="midnightblue" stroke="midnightblue" points="147.254,-51.5001 157.254,-48 147.254,-44.5001 147.254,-51.5001"/>
</g>
<!-- Node41 -->
<g id="node4" class="node"><title>Node41</title>
<g id="a_node4"><a xlink:href="port_8c.xhtml#a50dd292452ec6c17a611a90c22e19136" target="_top" xlink:title="prvPortStartFirstTask">
<polygon fill="white" stroke="black" points="147.5,-0.5 147.5,-19.5 255.5,-19.5 255.5,-0.5 147.5,-0.5"/>
<text text-anchor="middle" x="201.5" y="-7.5" font-family="Helvetica,sans-Serif" font-size="10.00">prvPortStartFirstTask</text>
</a>
</g>
</g>
<!-- Node38&#45;&gt;Node41 -->
<g id="edge3" class="edge"><title>Node38&#45;&gt;Node41</title>
<path fill="none" stroke="midnightblue" d="M90.2205,-38.411C109.509,-33.4417 133.258,-27.3233 153.771,-22.0387"/>
<polygon fill="midnightblue" stroke="midnightblue" points="154.737,-25.4043 163.547,-19.5201 152.99,-18.6256 154.737,-25.4043"/>
</g>
</g>
</svg>
