<?xml version="1.0" encoding="UTF-8" standalone="no"?>
<!DOCTYPE svg PUBLIC "-//W3C//DTD SVG 1.1//EN"
 "http://www.w3.org/Graphics/SVG/1.1/DTD/svg11.dtd">
<!-- Generated by graphviz version 2.38.0 (20140413.2041)
 -->
<!-- Title: examples/atmel_samg55/src/ASF/thirdparty/freertos/freertos&#45;7.0.0/source/include/portable.h Pages: 1 -->
<svg width="542pt" height="217pt"
 viewBox="0.00 0.00 542.00 217.00" xmlns="http://www.w3.org/2000/svg" xmlns:xlink="http://www.w3.org/1999/xlink">
<g id="graph0" class="graph" transform="scale(1 1) rotate(0) translate(4 213)">
<title>examples/atmel_samg55/src/ASF/thirdparty/freertos/freertos&#45;7.0.0/source/include/portable.h</title>
<polygon fill="white" stroke="none" points="-4,4 -4,-213 538,-213 538,4 -4,4"/>
<!-- Node3 -->
<g id="node1" class="node"><title>Node3</title>
<polygon fill="#bfbfbf" stroke="black" points="157,-156.5 157,-208.5 300,-208.5 300,-156.5 157,-156.5"/>
<text text-anchor="start" x="165" y="-196.5" font-family="Helvetica,sans-Serif" font-size="10.00">examples/atmel_samg55</text>
<text text-anchor="start" x="165" y="-185.5" font-family="Helvetica,sans-Serif" font-size="10.00">/src/ASF/thirdparty/freertos</text>
<text text-anchor="start" x="165" y="-174.5" font-family="Helvetica,sans-Serif" font-size="10.00">/freertos&#45;7.0.0/source/include</text>
<text text-anchor="middle" x="228.5" y="-163.5" font-family="Helvetica,sans-Serif" font-size="10.00">/portable.h</text>
</g>
<!-- Node4 -->
<g id="node2" class="node"><title>Node4</title>
<g id="a_node2"><a xlink:href="_free_r_t_o_s_8h.xhtml" target="_top" xlink:title="examples/atmel_samg55\l/src/ASF/thirdparty/freertos\l/freertos&#45;7.0.0/source/include\l/FreeRTOS.h">
<polygon fill="white" stroke="red" points="0,-67.5 0,-119.5 143,-119.5 143,-67.5 0,-67.5"/>
<text text-anchor="start" x="8" y="-107.5" font-family="Helvetica,sans-Serif" font-size="10.00">examples/atmel_samg55</text>
<text text-anchor="start" x="8" y="-96.5" font-family="Helvetica,sans-Serif" font-size="10.00">/src/ASF/thirdparty/freertos</text>
<text text-anchor="start" x="8" y="-85.5" font-family="Helvetica,sans-Serif" font-size="10.00">/freertos&#45;7.0.0/source/include</text>
<text text-anchor="middle" x="71.5" y="-74.5" font-family="Helvetica,sans-Serif" font-size="10.00">/FreeRTOS.h</text>
</a>
</g>
</g>
<!-- Node3&#45;&gt;Node4 -->
<g id="edge1" class="edge"><title>Node3&#45;&gt;Node4</title>
<path fill="none" stroke="midnightblue" d="M174.097,-151.353C155.407,-140.996 134.698,-129.521 116.809,-119.607"/>
<polygon fill="midnightblue" stroke="midnightblue" points="172.646,-154.55 183.089,-156.336 176.039,-148.428 172.646,-154.55"/>
</g>
<!-- Node9 -->
<g id="node3" class="node"><title>Node9</title>
<g id="a_node3"><a xlink:href="asf_8h.xhtml" target="_top" xlink:title="Autogenerated API include file for the Atmel Software Framework (ASF) ">
<polygon fill="white" stroke="red" points="166,-0.5 166,-30.5 291,-30.5 291,-0.5 166,-0.5"/>
<text text-anchor="start" x="174" y="-18.5" font-family="Helvetica,sans-Serif" font-size="10.00">examples/atmel_samg55</text>
<text text-anchor="middle" x="228.5" y="-7.5" font-family="Helvetica,sans-Serif" font-size="10.00">/src/asf.h</text>
</a>
</g>
</g>
<!-- Node3&#45;&gt;Node9 -->
<g id="edge7" class="edge"><title>Node3&#45;&gt;Node9</title>
<path fill="none" stroke="midnightblue" d="M203.089,-147.769C197.914,-139.145 193.223,-129.588 190.5,-120 184.064,-97.3407 183.033,-89.3409 190.5,-67 195.091,-53.2635 205.05,-40.2664 213.622,-30.8983"/>
<polygon fill="midnightblue" stroke="midnightblue" points="200.259,-149.84 208.595,-156.379 206.156,-146.069 200.259,-149.84"/>
</g>
<!-- Node20 -->
<g id="node4" class="node"><title>Node20</title>
<g id="a_node4"><a xlink:href="task_8h.xhtml" target="_top" xlink:title="examples/atmel_samg55\l/src/ASF/thirdparty/freertos\l/freertos&#45;7.0.0/source/include/task.h">
<polygon fill="white" stroke="red" points="200,-73 200,-114 373,-114 373,-73 200,-73"/>
<text text-anchor="start" x="208" y="-102" font-family="Helvetica,sans-Serif" font-size="10.00">examples/atmel_samg55</text>
<text text-anchor="start" x="208" y="-91" font-family="Helvetica,sans-Serif" font-size="10.00">/src/ASF/thirdparty/freertos</text>
<text text-anchor="middle" x="286.5" y="-80" font-family="Helvetica,sans-Serif" font-size="10.00">/freertos&#45;7.0.0/source/include/task.h</text>
</a>
</g>
</g>
<!-- Node3&#45;&gt;Node20 -->
<g id="edge3" class="edge"><title>Node3&#45;&gt;Node20</title>
<path fill="none" stroke="midnightblue" d="M250.939,-147.842C258.555,-136.417 266.809,-124.037 273.445,-114.082"/>
<polygon fill="midnightblue" stroke="midnightblue" points="247.911,-146.074 245.276,-156.336 253.735,-149.957 247.911,-146.074"/>
</g>
<!-- Node21 -->
<g id="node5" class="node"><title>Node21</title>
<g id="a_node5"><a xlink:href="timers_8h.xhtml" target="_top" xlink:title="examples/atmel_samg55\l/src/ASF/thirdparty/freertos\l/freertos&#45;7.0.0/source/include\l/timers.h">
<polygon fill="white" stroke="red" points="391,-67.5 391,-119.5 534,-119.5 534,-67.5 391,-67.5"/>
<text text-anchor="start" x="399" y="-107.5" font-family="Helvetica,sans-Serif" font-size="10.00">examples/atmel_samg55</text>
<text text-anchor="start" x="399" y="-96.5" font-family="Helvetica,sans-Serif" font-size="10.00">/src/ASF/thirdparty/freertos</text>
<text text-anchor="start" x="399" y="-85.5" font-family="Helvetica,sans-Serif" font-size="10.00">/freertos&#45;7.0.0/source/include</text>
<text text-anchor="middle" x="462.5" y="-74.5" font-family="Helvetica,sans-Serif" font-size="10.00">/timers.h</text>
</a>
</g>
</g>
<!-- Node3&#45;&gt;Node21 -->
<g id="edge5" class="edge"><title>Node3&#45;&gt;Node21</title>
<path fill="none" stroke="midnightblue" d="M305.538,-152.858C334.506,-142.087 367.189,-129.936 395.202,-119.521"/>
<polygon fill="midnightblue" stroke="midnightblue" points="304.022,-149.687 295.869,-156.453 306.461,-156.248 304.022,-149.687"/>
</g>
<!-- Node4&#45;&gt;Node9 -->
<g id="edge2" class="edge"><title>Node4&#45;&gt;Node9</title>
<path fill="none" stroke="midnightblue" d="M132.349,-63.0443C155.297,-51.936 180.366,-39.8003 199.152,-30.7066"/>
<polygon fill="midnightblue" stroke="midnightblue" points="130.819,-59.8967 123.343,-67.4041 133.869,-66.1973 130.819,-59.8967"/>
</g>
<!-- Node20&#45;&gt;Node9 -->
<g id="edge4" class="edge"><title>Node20&#45;&gt;Node9</title>
<path fill="none" stroke="midnightblue" d="M265.374,-64.8174C256.546,-53.2505 246.666,-40.3037 239.356,-30.7254"/>
<polygon fill="midnightblue" stroke="midnightblue" points="262.714,-67.1019 271.564,-72.9281 268.279,-62.8552 262.714,-67.1019"/>
</g>
<!-- Node21&#45;&gt;Node9 -->
<g id="edge6" class="edge"><title>Node21&#45;&gt;Node9</title>
<path fill="none" stroke="midnightblue" d="M381,-66.0301C344.309,-54.113 302.471,-40.5248 271.91,-30.599"/>
<polygon fill="midnightblue" stroke="midnightblue" points="380.11,-69.4207 390.702,-69.181 382.272,-62.7631 380.11,-69.4207"/>
</g>
</g>
</svg>
