<?xml version="1.0" encoding="UTF-8" standalone="no"?>
<!DOCTYPE svg PUBLIC "-//W3C//DTD SVG 1.1//EN"
 "http://www.w3.org/Graphics/SVG/1.1/DTD/svg11.dtd">
<!-- Generated by graphviz version 2.38.0 (20140413.2041)
 -->
<!-- Title: examples/atmel_samg55/src/ASF/sam/utils/preprocessor/preprocessor.h Pages: 1 -->
<svg width="330pt" height="128pt"
 viewBox="0.00 0.00 330.00 128.00" xmlns="http://www.w3.org/2000/svg" xmlns:xlink="http://www.w3.org/1999/xlink">
<g id="graph0" class="graph" transform="scale(1 1) rotate(0) translate(4 124)">
<title>examples/atmel_samg55/src/ASF/sam/utils/preprocessor/preprocessor.h</title>
<polygon fill="white" stroke="none" points="-4,4 -4,-124 326,-124 326,4 -4,4"/>
<!-- Node4 -->
<g id="node1" class="node"><title>Node4</title>
<polygon fill="#bfbfbf" stroke="black" points="164,-78.5 164,-119.5 322,-119.5 322,-78.5 164,-78.5"/>
<text text-anchor="start" x="172" y="-107.5" font-family="Helvetica,sans-Serif" font-size="10.00">examples/atmel_samg55</text>
<text text-anchor="start" x="172" y="-96.5" font-family="Helvetica,sans-Serif" font-size="10.00">/src/ASF/sam/utils/preprocessor</text>
<text text-anchor="middle" x="243" y="-85.5" font-family="Helvetica,sans-Serif" font-size="10.00">/preprocessor.h</text>
</g>
<!-- Node5 -->
<g id="node2" class="node"><title>Node5</title>
<g id="a_node2"><a xlink:href="compiler_8h.xhtml" target="_top" xlink:title="Commonly used includes, types and macros. ">
<polygon fill="white" stroke="red" points="0,-6 0,-36 146,-36 146,-6 0,-6"/>
<text text-anchor="start" x="8" y="-24" font-family="Helvetica,sans-Serif" font-size="10.00">examples/atmel_samg55</text>
<text text-anchor="middle" x="73" y="-13" font-family="Helvetica,sans-Serif" font-size="10.00">/src/ASF/sam/utils/compiler.h</text>
</a>
</g>
</g>
<!-- Node4&#45;&gt;Node5 -->
<g id="edge1" class="edge"><title>Node4&#45;&gt;Node5</title>
<path fill="none" stroke="midnightblue" d="M189.947,-74.2824C161.927,-61.7554 128.485,-46.8051 104.554,-36.1065"/>
<polygon fill="midnightblue" stroke="midnightblue" points="188.663,-77.542 199.221,-78.4281 191.52,-71.1515 188.663,-77.542"/>
</g>
<!-- Node44 -->
<g id="node3" class="node"><title>Node44</title>
<g id="a_node3"><a xlink:href="mrepeat_8h.xhtml" target="_top" xlink:title="Preprocessor macro repeating utils. ">
<polygon fill="white" stroke="black" points="164,-0.5 164,-41.5 322,-41.5 322,-0.5 164,-0.5"/>
<text text-anchor="start" x="172" y="-29.5" font-family="Helvetica,sans-Serif" font-size="10.00">examples/atmel_samg55</text>
<text text-anchor="start" x="172" y="-18.5" font-family="Helvetica,sans-Serif" font-size="10.00">/src/ASF/sam/utils/preprocessor</text>
<text text-anchor="middle" x="243" y="-7.5" font-family="Helvetica,sans-Serif" font-size="10.00">/mrepeat.h</text>
</a>
</g>
</g>
<!-- Node4&#45;&gt;Node44 -->
<g id="edge2" class="edge"><title>Node4&#45;&gt;Node44</title>
<path fill="none" stroke="midnightblue" d="M236.395,-68.2965C236.076,-59.3009 236.283,-49.6532 237.018,-41.5056"/>
<polygon fill="midnightblue" stroke="midnightblue" points="232.911,-68.6593 237.012,-78.4281 239.898,-68.2339 232.911,-68.6593"/>
</g>
<!-- Node44&#45;&gt;Node4 -->
<g id="edge3" class="edge"><title>Node44&#45;&gt;Node4</title>
<path fill="none" stroke="midnightblue" d="M249.602,-51.6303C249.924,-60.6224 249.72,-70.2724 248.988,-78.4281"/>
<polygon fill="midnightblue" stroke="midnightblue" points="253.087,-51.2729 248.982,-41.5056 246.1,-51.7008 253.087,-51.2729"/>
</g>
</g>
</svg>
