<?xml version="1.0" encoding="UTF-8" standalone="no"?>
<!DOCTYPE svg PUBLIC "-//W3C//DTD SVG 1.1//EN"
 "http://www.w3.org/Graphics/SVG/1.1/DTD/svg11.dtd">
<!-- Generated by graphviz version 2.38.0 (20140413.2041)
 -->
<!-- Title: createX4DriverGetSpiRegisterCommand Pages: 1 -->
<svg width="370pt" height="142pt"
 viewBox="0.00 0.00 370.00 142.00" xmlns="http://www.w3.org/2000/svg" xmlns:xlink="http://www.w3.org/1999/xlink">
<g id="graph0" class="graph" transform="scale(1 1) rotate(0) translate(4 138)">
<title>createX4DriverGetSpiRegisterCommand</title>
<polygon fill="white" stroke="none" points="-4,4 -4,-138 366,-138 366,4 -4,4"/>
<!-- Node544 -->
<g id="node1" class="node"><title>Node544</title>
<polygon fill="#bfbfbf" stroke="black" points="0,-52 0,-82 144,-82 144,-52 0,-52"/>
<text text-anchor="start" x="8" y="-70" font-family="Helvetica,sans-Serif" font-size="10.00">createX4DriverGetSpiRegister</text>
<text text-anchor="middle" x="72" y="-59" font-family="Helvetica,sans-Serif" font-size="10.00">Command</text>
</g>
<!-- Node545 -->
<g id="node2" class="node"><title>Node545</title>
<g id="a_node2"><a xlink:href="protocol_8c.xhtml#a3de1158ac59e288305dd2a83c23c8bcf" target="_top" xlink:title="packet_start">
<polygon fill="white" stroke="black" points="180,-114.5 180,-133.5 251,-133.5 251,-114.5 180,-114.5"/>
<text text-anchor="middle" x="215.5" y="-121.5" font-family="Helvetica,sans-Serif" font-size="10.00">packet_start</text>
</a>
</g>
</g>
<!-- Node544&#45;&gt;Node545 -->
<g id="edge1" class="edge"><title>Node544&#45;&gt;Node545</title>
<path fill="none" stroke="midnightblue" d="M110.548,-82.1253C132.459,-90.9517 159.865,-101.992 181.035,-110.52"/>
<polygon fill="midnightblue" stroke="midnightblue" points="179.994,-113.873 190.578,-114.363 182.61,-107.38 179.994,-113.873"/>
</g>
<!-- Node546 -->
<g id="node3" class="node"><title>Node546</title>
<g id="a_node3"><a xlink:href="protocol_8c.xhtml#aefcdbf5141d1639e3d6aea7a577b09a5" target="_top" xlink:title="process_byte">
<polygon fill="white" stroke="red" points="287,-57.5 287,-76.5 362,-76.5 362,-57.5 287,-57.5"/>
<text text-anchor="middle" x="324.5" y="-64.5" font-family="Helvetica,sans-Serif" font-size="10.00">process_byte</text>
</a>
</g>
</g>
<!-- Node544&#45;&gt;Node546 -->
<g id="edge2" class="edge"><title>Node544&#45;&gt;Node546</title>
<path fill="none" stroke="midnightblue" d="M144.113,-67C186.687,-67 239.593,-67 276.884,-67"/>
<polygon fill="midnightblue" stroke="midnightblue" points="276.966,-70.5001 286.966,-67 276.966,-63.5001 276.966,-70.5001"/>
</g>
<!-- Node548 -->
<g id="node4" class="node"><title>Node548</title>
<g id="a_node4"><a xlink:href="protocol_8c.xhtml#a6ea2f891064cb69b0c705c1dd034b909" target="_top" xlink:title="process_int">
<polygon fill="white" stroke="black" points="182,-38.5 182,-57.5 249,-57.5 249,-38.5 182,-38.5"/>
<text text-anchor="middle" x="215.5" y="-45.5" font-family="Helvetica,sans-Serif" font-size="10.00">process_int</text>
</a>
</g>
</g>
<!-- Node544&#45;&gt;Node548 -->
<g id="edge3" class="edge"><title>Node544&#45;&gt;Node548</title>
<path fill="none" stroke="midnightblue" d="M144.165,-57.4443C153.662,-56.1691 163.149,-54.8952 171.942,-53.7145"/>
<polygon fill="midnightblue" stroke="midnightblue" points="172.459,-57.1766 181.904,-52.3769 171.527,-50.2389 172.459,-57.1766"/>
</g>
<!-- Node549 -->
<g id="node5" class="node"><title>Node549</title>
<g id="a_node5"><a xlink:href="protocol_8c.xhtml#aa411de769b16d0e990fed401be284798" target="_top" xlink:title="packet_end">
<polygon fill="white" stroke="red" points="182,-0.5 182,-19.5 249,-19.5 249,-0.5 182,-0.5"/>
<text text-anchor="middle" x="215.5" y="-7.5" font-family="Helvetica,sans-Serif" font-size="10.00">packet_end</text>
</a>
</g>
</g>
<!-- Node544&#45;&gt;Node549 -->
<g id="edge5" class="edge"><title>Node544&#45;&gt;Node549</title>
<path fill="none" stroke="midnightblue" d="M110.548,-51.8747C132.459,-43.0483 159.865,-32.0085 181.035,-23.4805"/>
<polygon fill="midnightblue" stroke="midnightblue" points="182.61,-26.6196 190.578,-19.6365 179.994,-20.1266 182.61,-26.6196"/>
</g>
<!-- Node548&#45;&gt;Node546 -->
<g id="edge4" class="edge"><title>Node548&#45;&gt;Node546</title>
<path fill="none" stroke="midnightblue" d="M249.185,-53.8039C257.941,-55.3587 267.578,-57.0699 276.928,-58.7302"/>
<polygon fill="midnightblue" stroke="midnightblue" points="276.448,-62.1996 286.906,-60.502 277.672,-55.3074 276.448,-62.1996"/>
</g>
</g>
</svg>
