<?xml version="1.0" encoding="UTF-8" standalone="no"?>
<!DOCTYPE svg PUBLIC "-//W3C//DTD SVG 1.1//EN"
 "http://www.w3.org/Graphics/SVG/1.1/DTD/svg11.dtd">
<!-- Generated by graphviz version 2.38.0 (20140413.2041)
 -->
<!-- Title: createGetRegisterCommand Pages: 1 -->
<svg width="366pt" height="142pt"
 viewBox="0.00 0.00 366.00 142.00" xmlns="http://www.w3.org/2000/svg" xmlns:xlink="http://www.w3.org/1999/xlink">
<g id="graph0" class="graph" transform="scale(1 1) rotate(0) translate(4 138)">
<title>createGetRegisterCommand</title>
<polygon fill="white" stroke="none" points="-4,4 -4,-138 362,-138 362,4 -4,4"/>
<!-- Node127 -->
<g id="node1" class="node"><title>Node127</title>
<polygon fill="#bfbfbf" stroke="black" points="0,-57.5 0,-76.5 140,-76.5 140,-57.5 0,-57.5"/>
<text text-anchor="middle" x="70" y="-64.5" font-family="Helvetica,sans-Serif" font-size="10.00">createGetRegisterCommand</text>
</g>
<!-- Node128 -->
<g id="node2" class="node"><title>Node128</title>
<g id="a_node2"><a xlink:href="protocol_8c.xhtml#a3de1158ac59e288305dd2a83c23c8bcf" target="_top" xlink:title="packet_start">
<polygon fill="white" stroke="black" points="176,-114.5 176,-133.5 247,-133.5 247,-114.5 176,-114.5"/>
<text text-anchor="middle" x="211.5" y="-121.5" font-family="Helvetica,sans-Serif" font-size="10.00">packet_start</text>
</a>
</g>
</g>
<!-- Node127&#45;&gt;Node128 -->
<g id="edge1" class="edge"><title>Node127&#45;&gt;Node128</title>
<path fill="none" stroke="midnightblue" d="M94.3492,-76.5405C117.183,-85.8705 152.159,-100.162 177.765,-110.624"/>
<polygon fill="midnightblue" stroke="midnightblue" points="176.494,-113.886 187.075,-114.428 179.141,-107.406 176.494,-113.886"/>
</g>
<!-- Node129 -->
<g id="node3" class="node"><title>Node129</title>
<g id="a_node3"><a xlink:href="protocol_8c.xhtml#aefcdbf5141d1639e3d6aea7a577b09a5" target="_top" xlink:title="process_byte">
<polygon fill="white" stroke="red" points="283,-57.5 283,-76.5 358,-76.5 358,-57.5 283,-57.5"/>
<text text-anchor="middle" x="320.5" y="-64.5" font-family="Helvetica,sans-Serif" font-size="10.00">process_byte</text>
</a>
</g>
</g>
<!-- Node127&#45;&gt;Node129 -->
<g id="edge2" class="edge"><title>Node127&#45;&gt;Node129</title>
<path fill="none" stroke="midnightblue" d="M140.221,-67C182.49,-67 235.407,-67 272.761,-67"/>
<polygon fill="midnightblue" stroke="midnightblue" points="272.862,-70.5001 282.862,-67 272.862,-63.5001 272.862,-70.5001"/>
</g>
<!-- Node131 -->
<g id="node4" class="node"><title>Node131</title>
<g id="a_node4"><a xlink:href="protocol_8c.xhtml#a6ea2f891064cb69b0c705c1dd034b909" target="_top" xlink:title="process_int">
<polygon fill="white" stroke="black" points="178,-38.5 178,-57.5 245,-57.5 245,-38.5 178,-38.5"/>
<text text-anchor="middle" x="211.5" y="-45.5" font-family="Helvetica,sans-Serif" font-size="10.00">process_int</text>
</a>
</g>
</g>
<!-- Node127&#45;&gt;Node131 -->
<g id="edge3" class="edge"><title>Node127&#45;&gt;Node131</title>
<path fill="none" stroke="midnightblue" d="M140.341,-57.5557C149.778,-56.2704 159.224,-54.9838 167.99,-53.7899"/>
<polygon fill="midnightblue" stroke="midnightblue" points="168.489,-57.2543 177.926,-52.4367 167.545,-50.3183 168.489,-57.2543"/>
</g>
<!-- Node132 -->
<g id="node5" class="node"><title>Node132</title>
<g id="a_node5"><a xlink:href="protocol_8c.xhtml#aa411de769b16d0e990fed401be284798" target="_top" xlink:title="packet_end">
<polygon fill="white" stroke="red" points="178,-0.5 178,-19.5 245,-19.5 245,-0.5 178,-0.5"/>
<text text-anchor="middle" x="211.5" y="-7.5" font-family="Helvetica,sans-Serif" font-size="10.00">packet_end</text>
</a>
</g>
</g>
<!-- Node127&#45;&gt;Node132 -->
<g id="edge5" class="edge"><title>Node127&#45;&gt;Node132</title>
<path fill="none" stroke="midnightblue" d="M94.3492,-57.4595C117.183,-48.1295 152.159,-33.8384 177.765,-23.3758"/>
<polygon fill="midnightblue" stroke="midnightblue" points="179.141,-26.5941 187.075,-19.5716 176.494,-20.1142 179.141,-26.5941"/>
</g>
<!-- Node131&#45;&gt;Node129 -->
<g id="edge4" class="edge"><title>Node131&#45;&gt;Node129</title>
<path fill="none" stroke="midnightblue" d="M245.185,-53.8039C253.941,-55.3587 263.578,-57.0699 272.928,-58.7302"/>
<polygon fill="midnightblue" stroke="midnightblue" points="272.448,-62.1996 282.906,-60.502 273.672,-55.3074 272.448,-62.1996"/>
</g>
</g>
</svg>
