<?xml version="1.0" encoding="UTF-8" standalone="no"?>
<!DOCTYPE svg PUBLIC "-//W3C//DTD SVG 1.1//EN"
 "http://www.w3.org/Graphics/SVG/1.1/DTD/svg11.dtd">
<!-- Generated by graphviz version 2.38.0 (20140413.2041)
 -->
<!-- Title: createConfigSetFloatCommand Pages: 1 -->
<svg width="381pt" height="180pt"
 viewBox="0.00 0.00 381.00 180.00" xmlns="http://www.w3.org/2000/svg" xmlns:xlink="http://www.w3.org/1999/xlink">
<g id="graph0" class="graph" transform="scale(1 1) rotate(0) translate(4 176)">
<title>createConfigSetFloatCommand</title>
<polygon fill="white" stroke="none" points="-4,4 -4,-176 377,-176 377,4 -4,4"/>
<!-- Node119 -->
<g id="node1" class="node"><title>Node119</title>
<polygon fill="#bfbfbf" stroke="black" points="0,-76.5 0,-95.5 152,-95.5 152,-76.5 0,-76.5"/>
<text text-anchor="middle" x="76" y="-83.5" font-family="Helvetica,sans-Serif" font-size="10.00">createConfigSetFloatCommand</text>
</g>
<!-- Node120 -->
<g id="node2" class="node"><title>Node120</title>
<g id="a_node2"><a xlink:href="protocol_8c.xhtml#a3de1158ac59e288305dd2a83c23c8bcf" target="_top" xlink:title="packet_start">
<polygon fill="white" stroke="black" points="189.5,-152.5 189.5,-171.5 260.5,-171.5 260.5,-152.5 189.5,-152.5"/>
<text text-anchor="middle" x="225" y="-159.5" font-family="Helvetica,sans-Serif" font-size="10.00">packet_start</text>
</a>
</g>
</g>
<!-- Node119&#45;&gt;Node120 -->
<g id="edge1" class="edge"><title>Node119&#45;&gt;Node120</title>
<path fill="none" stroke="midnightblue" d="M95.6177,-95.6255C121.132,-108.817 167.147,-132.607 196.6,-147.834"/>
<polygon fill="midnightblue" stroke="midnightblue" points="195.043,-150.969 205.534,-152.453 198.258,-144.751 195.043,-150.969"/>
</g>
<!-- Node121 -->
<g id="node3" class="node"><title>Node121</title>
<g id="a_node3"><a xlink:href="protocol_8c.xhtml#aefcdbf5141d1639e3d6aea7a577b09a5" target="_top" xlink:title="process_byte">
<polygon fill="white" stroke="red" points="298,-76.5 298,-95.5 373,-95.5 373,-76.5 298,-76.5"/>
<text text-anchor="middle" x="335.5" y="-83.5" font-family="Helvetica,sans-Serif" font-size="10.00">process_byte</text>
</a>
</g>
</g>
<!-- Node119&#45;&gt;Node121 -->
<g id="edge2" class="edge"><title>Node119&#45;&gt;Node121</title>
<path fill="none" stroke="midnightblue" d="M117.489,-95.5254C155.016,-103.081 212.366,-111.396 262,-105 272.953,-103.589 284.613,-101.025 295.306,-98.2274"/>
<polygon fill="midnightblue" stroke="midnightblue" points="296.494,-101.531 305.208,-95.5041 294.638,-94.7812 296.494,-101.531"/>
</g>
<!-- Node123 -->
<g id="node4" class="node"><title>Node123</title>
<g id="a_node4"><a xlink:href="protocol_8c.xhtml#a6ea2f891064cb69b0c705c1dd034b909" target="_top" xlink:title="process_int">
<polygon fill="white" stroke="black" points="191.5,-76.5 191.5,-95.5 258.5,-95.5 258.5,-76.5 191.5,-76.5"/>
<text text-anchor="middle" x="225" y="-83.5" font-family="Helvetica,sans-Serif" font-size="10.00">process_int</text>
</a>
</g>
</g>
<!-- Node119&#45;&gt;Node123 -->
<g id="edge3" class="edge"><title>Node119&#45;&gt;Node123</title>
<path fill="none" stroke="midnightblue" d="M152.223,-86C162.072,-86 171.881,-86 180.94,-86"/>
<polygon fill="midnightblue" stroke="midnightblue" points="181.188,-89.5001 191.188,-86 181.188,-82.5001 181.188,-89.5001"/>
</g>
<!-- Node124 -->
<g id="node5" class="node"><title>Node124</title>
<g id="a_node5"><a xlink:href="protocol_8c.xhtml#a4b4523eb440f31227edb38e88a9d0a8b" target="_top" xlink:title="process_float">
<polygon fill="white" stroke="black" points="188,-38.5 188,-57.5 262,-57.5 262,-38.5 188,-38.5"/>
<text text-anchor="middle" x="225" y="-45.5" font-family="Helvetica,sans-Serif" font-size="10.00">process_float</text>
</a>
</g>
</g>
<!-- Node119&#45;&gt;Node124 -->
<g id="edge5" class="edge"><title>Node119&#45;&gt;Node124</title>
<path fill="none" stroke="midnightblue" d="M114.094,-76.411C133.537,-71.385 157.527,-65.1835 178.128,-59.8581"/>
<polygon fill="midnightblue" stroke="midnightblue" points="179.128,-63.2147 187.934,-57.3232 177.376,-56.4374 179.128,-63.2147"/>
</g>
<!-- Node125 -->
<g id="node6" class="node"><title>Node125</title>
<g id="a_node6"><a xlink:href="protocol_8c.xhtml#aa411de769b16d0e990fed401be284798" target="_top" xlink:title="packet_end">
<polygon fill="white" stroke="red" points="191.5,-0.5 191.5,-19.5 258.5,-19.5 258.5,-0.5 191.5,-0.5"/>
<text text-anchor="middle" x="225" y="-7.5" font-family="Helvetica,sans-Serif" font-size="10.00">packet_end</text>
</a>
</g>
</g>
<!-- Node119&#45;&gt;Node125 -->
<g id="edge7" class="edge"><title>Node119&#45;&gt;Node125</title>
<path fill="none" stroke="midnightblue" d="M95.6177,-76.3745C121.132,-63.1832 167.147,-39.3932 196.6,-24.166"/>
<polygon fill="midnightblue" stroke="midnightblue" points="198.258,-27.249 205.534,-19.5473 195.043,-21.0309 198.258,-27.249"/>
</g>
<!-- Node123&#45;&gt;Node121 -->
<g id="edge4" class="edge"><title>Node123&#45;&gt;Node121</title>
<path fill="none" stroke="midnightblue" d="M258.554,-86C267.726,-86 277.89,-86 287.72,-86"/>
<polygon fill="midnightblue" stroke="midnightblue" points="287.788,-89.5001 297.788,-86 287.788,-82.5001 287.788,-89.5001"/>
</g>
<!-- Node124&#45;&gt;Node121 -->
<g id="edge6" class="edge"><title>Node124&#45;&gt;Node121</title>
<path fill="none" stroke="midnightblue" d="M253.379,-57.589C266.743,-62.2694 283.017,-67.9692 297.472,-73.0315"/>
<polygon fill="midnightblue" stroke="midnightblue" points="296.535,-76.4118 307.13,-76.4141 298.849,-69.8053 296.535,-76.4118"/>
</g>
</g>
</svg>
