<?xml version="1.0" encoding="UTF-8" standalone="no"?>
<!DOCTYPE svg PUBLIC "-//W3C//DTD SVG 1.1//EN"
 "http://www.w3.org/Graphics/SVG/1.1/DTD/svg11.dtd">
<!-- Generated by graphviz version 2.38.0 (20140413.2041)
 -->
<!-- Title: createX4DriverWriteToSpiRegisterCommand Pages: 1 -->
<svg width="361pt" height="180pt"
 viewBox="0.00 0.00 361.00 180.00" xmlns="http://www.w3.org/2000/svg" xmlns:xlink="http://www.w3.org/1999/xlink">
<g id="graph0" class="graph" transform="scale(1 1) rotate(0) translate(4 176)">
<title>createX4DriverWriteToSpiRegisterCommand</title>
<polygon fill="white" stroke="none" points="-4,4 -4,-176 357,-176 357,4 -4,4"/>
<!-- Node695 -->
<g id="node1" class="node"><title>Node695</title>
<polygon fill="#bfbfbf" stroke="black" points="0,-71 0,-101 126,-101 126,-71 0,-71"/>
<text text-anchor="start" x="8" y="-89" font-family="Helvetica,sans-Serif" font-size="10.00">createX4DriverWriteToSpi</text>
<text text-anchor="middle" x="63" y="-78" font-family="Helvetica,sans-Serif" font-size="10.00">RegisterCommand</text>
</g>
<!-- Node696 -->
<g id="node2" class="node"><title>Node696</title>
<g id="a_node2"><a xlink:href="protocol_8c.xhtml#a3de1158ac59e288305dd2a83c23c8bcf" target="_top" xlink:title="packet_start">
<polygon fill="white" stroke="black" points="166.5,-152.5 166.5,-171.5 237.5,-171.5 237.5,-152.5 166.5,-152.5"/>
<text text-anchor="middle" x="202" y="-159.5" font-family="Helvetica,sans-Serif" font-size="10.00">packet_start</text>
</a>
</g>
</g>
<!-- Node695&#45;&gt;Node696 -->
<g id="edge1" class="edge"><title>Node695&#45;&gt;Node696</title>
<path fill="none" stroke="midnightblue" d="M91.0668,-101.015C115.299,-114.458 150.613,-134.048 174.63,-147.371"/>
<polygon fill="midnightblue" stroke="midnightblue" points="173.102,-150.526 183.545,-152.317 176.498,-144.405 173.102,-150.526"/>
</g>
<!-- Node697 -->
<g id="node3" class="node"><title>Node697</title>
<g id="a_node3"><a xlink:href="protocol_8c.xhtml#aefcdbf5141d1639e3d6aea7a577b09a5" target="_top" xlink:title="process_byte">
<polygon fill="white" stroke="red" points="278,-76.5 278,-95.5 353,-95.5 353,-76.5 278,-76.5"/>
<text text-anchor="middle" x="315.5" y="-83.5" font-family="Helvetica,sans-Serif" font-size="10.00">process_byte</text>
</a>
</g>
</g>
<!-- Node695&#45;&gt;Node697 -->
<g id="edge2" class="edge"><title>Node695&#45;&gt;Node697</title>
<path fill="none" stroke="midnightblue" d="M126.213,-99.9147C138.038,-102.032 150.355,-103.882 162,-105 197.393,-108.399 206.736,-109.544 242,-105 252.953,-103.589 264.613,-101.025 275.306,-98.2274"/>
<polygon fill="midnightblue" stroke="midnightblue" points="276.494,-101.531 285.208,-95.5041 274.638,-94.7812 276.494,-101.531"/>
</g>
<!-- Node699 -->
<g id="node4" class="node"><title>Node699</title>
<g id="a_node4"><a xlink:href="protocol_8c.xhtml#a6ea2f891064cb69b0c705c1dd034b909" target="_top" xlink:title="process_int">
<polygon fill="white" stroke="black" points="168.5,-76.5 168.5,-95.5 235.5,-95.5 235.5,-76.5 168.5,-76.5"/>
<text text-anchor="middle" x="202" y="-83.5" font-family="Helvetica,sans-Serif" font-size="10.00">process_int</text>
</a>
</g>
</g>
<!-- Node695&#45;&gt;Node699 -->
<g id="edge3" class="edge"><title>Node695&#45;&gt;Node699</title>
<path fill="none" stroke="midnightblue" d="M126.086,-86C136.911,-86 147.951,-86 158.112,-86"/>
<polygon fill="midnightblue" stroke="midnightblue" points="158.337,-89.5001 168.337,-86 158.337,-82.5001 158.337,-89.5001"/>
</g>
<!-- Node700 -->
<g id="node5" class="node"><title>Node700</title>
<g id="a_node5"><a xlink:href="protocol_8c.xhtml#a2a36d1458fd29bd2bbf79848a6d84bb9" target="_top" xlink:title="process_bytes">
<polygon fill="white" stroke="black" points="162,-38.5 162,-57.5 242,-57.5 242,-38.5 162,-38.5"/>
<text text-anchor="middle" x="202" y="-45.5" font-family="Helvetica,sans-Serif" font-size="10.00">process_bytes</text>
</a>
</g>
</g>
<!-- Node695&#45;&gt;Node700 -->
<g id="edge5" class="edge"><title>Node695&#45;&gt;Node700</title>
<path fill="none" stroke="midnightblue" d="M118.146,-70.9814C130.884,-67.4482 144.316,-63.7227 156.57,-60.3237"/>
<polygon fill="midnightblue" stroke="midnightblue" points="157.845,-63.6024 166.545,-57.5568 155.973,-56.857 157.845,-63.6024"/>
</g>
<!-- Node701 -->
<g id="node6" class="node"><title>Node701</title>
<g id="a_node6"><a xlink:href="protocol_8c.xhtml#aa411de769b16d0e990fed401be284798" target="_top" xlink:title="packet_end">
<polygon fill="white" stroke="red" points="168.5,-0.5 168.5,-19.5 235.5,-19.5 235.5,-0.5 168.5,-0.5"/>
<text text-anchor="middle" x="202" y="-7.5" font-family="Helvetica,sans-Serif" font-size="10.00">packet_end</text>
</a>
</g>
</g>
<!-- Node695&#45;&gt;Node701 -->
<g id="edge7" class="edge"><title>Node695&#45;&gt;Node701</title>
<path fill="none" stroke="midnightblue" d="M88.6887,-70.964C108.336,-59.1634 136.646,-42.5259 162,-29 165.084,-27.3549 168.331,-25.6818 171.581,-24.0451"/>
<polygon fill="midnightblue" stroke="midnightblue" points="173.2,-27.1491 180.616,-19.5816 170.1,-20.8732 173.2,-27.1491"/>
</g>
<!-- Node699&#45;&gt;Node697 -->
<g id="edge4" class="edge"><title>Node699&#45;&gt;Node697</title>
<path fill="none" stroke="midnightblue" d="M235.55,-86C245.585,-86 256.84,-86 267.638,-86"/>
<polygon fill="midnightblue" stroke="midnightblue" points="267.796,-89.5001 277.796,-86 267.796,-82.5001 267.796,-89.5001"/>
</g>
<!-- Node700&#45;&gt;Node697 -->
<g id="edge6" class="edge"><title>Node700&#45;&gt;Node697</title>
<path fill="none" stroke="midnightblue" d="M231.136,-57.589C245.002,-62.3144 261.916,-68.0789 276.876,-73.1774"/>
<polygon fill="midnightblue" stroke="midnightblue" points="275.778,-76.501 286.373,-76.4141 278.037,-69.8752 275.778,-76.501"/>
</g>
</g>
</svg>
