<?xml version="1.0" encoding="UTF-8" standalone="no"?>
<!DOCTYPE svg PUBLIC "-//W3C//DTD SVG 1.1//EN"
 "http://www.w3.org/Graphics/SVG/1.1/DTD/svg11.dtd">
<!-- Generated by graphviz version 2.38.0 (20140413.2041)
 -->
<!-- Title: createGetDetectionZoneCommand Pages: 1 -->
<svg width="392pt" height="142pt"
 viewBox="0.00 0.00 392.00 142.00" xmlns="http://www.w3.org/2000/svg" xmlns:xlink="http://www.w3.org/1999/xlink">
<g id="graph0" class="graph" transform="scale(1 1) rotate(0) translate(4 138)">
<title>createGetDetectionZoneCommand</title>
<polygon fill="white" stroke="none" points="-4,4 -4,-138 388,-138 388,4 -4,4"/>
<!-- Node70 -->
<g id="node1" class="node"><title>Node70</title>
<polygon fill="#bfbfbf" stroke="black" points="0,-57.5 0,-76.5 166,-76.5 166,-57.5 0,-57.5"/>
<text text-anchor="middle" x="83" y="-64.5" font-family="Helvetica,sans-Serif" font-size="10.00">createGetDetectionZoneCommand</text>
</g>
<!-- Node71 -->
<g id="node2" class="node"><title>Node71</title>
<g id="a_node2"><a xlink:href="protocol_8c.xhtml#a3de1158ac59e288305dd2a83c23c8bcf" target="_top" xlink:title="packet_start">
<polygon fill="white" stroke="black" points="202,-114.5 202,-133.5 273,-133.5 273,-114.5 202,-114.5"/>
<text text-anchor="middle" x="237.5" y="-121.5" font-family="Helvetica,sans-Serif" font-size="10.00">packet_start</text>
</a>
</g>
</g>
<!-- Node70&#45;&gt;Node71 -->
<g id="edge1" class="edge"><title>Node70&#45;&gt;Node71</title>
<path fill="none" stroke="midnightblue" d="M109.525,-76.5405C134.707,-85.9527 173.397,-100.414 201.451,-110.9"/>
<polygon fill="midnightblue" stroke="midnightblue" points="200.299,-114.206 210.892,-114.428 202.75,-107.649 200.299,-114.206"/>
</g>
<!-- Node72 -->
<g id="node3" class="node"><title>Node72</title>
<g id="a_node3"><a xlink:href="protocol_8c.xhtml#aefcdbf5141d1639e3d6aea7a577b09a5" target="_top" xlink:title="process_byte">
<polygon fill="white" stroke="red" points="309,-57.5 309,-76.5 384,-76.5 384,-57.5 309,-57.5"/>
<text text-anchor="middle" x="346.5" y="-64.5" font-family="Helvetica,sans-Serif" font-size="10.00">process_byte</text>
</a>
</g>
</g>
<!-- Node70&#45;&gt;Node72 -->
<g id="edge2" class="edge"><title>Node70&#45;&gt;Node72</title>
<path fill="none" stroke="midnightblue" d="M166.023,-67C209.647,-67 261.717,-67 298.508,-67"/>
<polygon fill="midnightblue" stroke="midnightblue" points="298.933,-70.5001 308.933,-67 298.933,-63.5001 298.933,-70.5001"/>
</g>
<!-- Node74 -->
<g id="node4" class="node"><title>Node74</title>
<g id="a_node4"><a xlink:href="protocol_8c.xhtml#a6ea2f891064cb69b0c705c1dd034b909" target="_top" xlink:title="process_int">
<polygon fill="white" stroke="black" points="204,-38.5 204,-57.5 271,-57.5 271,-38.5 204,-38.5"/>
<text text-anchor="middle" x="237.5" y="-45.5" font-family="Helvetica,sans-Serif" font-size="10.00">process_int</text>
</a>
</g>
</g>
<!-- Node70&#45;&gt;Node74 -->
<g id="edge3" class="edge"><title>Node70&#45;&gt;Node74</title>
<path fill="none" stroke="midnightblue" d="M160.697,-57.4443C172.045,-56.0305 183.38,-54.6182 193.696,-53.3329"/>
<polygon fill="midnightblue" stroke="midnightblue" points="194.145,-56.8042 203.636,-52.0946 193.28,-49.8579 194.145,-56.8042"/>
</g>
<!-- Node75 -->
<g id="node5" class="node"><title>Node75</title>
<g id="a_node5"><a xlink:href="protocol_8c.xhtml#aa411de769b16d0e990fed401be284798" target="_top" xlink:title="packet_end">
<polygon fill="white" stroke="red" points="204,-0.5 204,-19.5 271,-19.5 271,-0.5 204,-0.5"/>
<text text-anchor="middle" x="237.5" y="-7.5" font-family="Helvetica,sans-Serif" font-size="10.00">packet_end</text>
</a>
</g>
</g>
<!-- Node70&#45;&gt;Node75 -->
<g id="edge5" class="edge"><title>Node70&#45;&gt;Node75</title>
<path fill="none" stroke="midnightblue" d="M109.525,-57.4595C134.707,-48.0473 173.397,-33.5862 201.451,-23.1001"/>
<polygon fill="midnightblue" stroke="midnightblue" points="202.75,-26.3513 210.892,-19.5716 200.299,-19.7944 202.75,-26.3513"/>
</g>
<!-- Node74&#45;&gt;Node72 -->
<g id="edge4" class="edge"><title>Node74&#45;&gt;Node72</title>
<path fill="none" stroke="midnightblue" d="M271.185,-53.8039C279.941,-55.3587 289.578,-57.0699 298.928,-58.7302"/>
<polygon fill="midnightblue" stroke="midnightblue" points="298.448,-62.1996 308.906,-60.502 299.672,-55.3074 298.448,-62.1996"/>
</g>
</g>
</svg>
