<?xml version="1.0" encoding="UTF-8" standalone="no"?>
<!DOCTYPE svg PUBLIC "-//W3C//DTD SVG 1.1//EN"
 "http://www.w3.org/Graphics/SVG/1.1/DTD/svg11.dtd">
<!-- Generated by graphviz version 2.38.0 (20140413.2041)
 -->
<!-- Title: parse_appdata Pages: 1 -->
<svg width="385pt" height="287pt"
 viewBox="0.00 0.00 385.00 286.83" xmlns="http://www.w3.org/2000/svg" xmlns:xlink="http://www.w3.org/1999/xlink">
<g id="graph0" class="graph" transform="scale(1 1) rotate(0) translate(4 282.833)">
<title>parse_appdata</title>
<polygon fill="white" stroke="none" points="-4,4 -4,-282.833 381,-282.833 381,4 -4,4"/>
<!-- Node303 -->
<g id="node1" class="node"><title>Node303</title>
<polygon fill="#bfbfbf" stroke="black" points="0,-133.5 0,-152.5 80,-152.5 80,-133.5 0,-133.5"/>
<text text-anchor="middle" x="40" y="-140.5" font-family="Helvetica,sans-Serif" font-size="10.00">parse_appdata</text>
</g>
<!-- Node304 -->
<g id="node2" class="node"><title>Node304</title>
<g id="a_node2"><a xlink:href="protocol__host__parser_8c.xhtml#a5a0a7a9de31b4864faafad10f803cacb" target="_top" xlink:title="bytes_to_uint32">
<polygon fill="white" stroke="black" points="291,-133.5 291,-152.5 377,-152.5 377,-133.5 291,-133.5"/>
<text text-anchor="middle" x="334" y="-140.5" font-family="Helvetica,sans-Serif" font-size="10.00">bytes_to_uint32</text>
</a>
</g>
</g>
<!-- Node303&#45;&gt;Node304 -->
<g id="edge1" class="edge"><title>Node303&#45;&gt;Node304</title>
<path fill="none" stroke="midnightblue" d="M43.8695,-152.701C51.3118,-175.867 73.6677,-234.178 116,-257 170.379,-286.316 200.357,-285.822 255,-257 293.013,-236.95 316.029,-189.105 326.417,-162.206"/>
<polygon fill="midnightblue" stroke="midnightblue" points="329.74,-163.309 329.891,-152.715 323.167,-160.902 329.74,-163.309"/>
</g>
<!-- Node305 -->
<g id="node3" class="node"><title>Node305</title>
<g id="a_node3"><a xlink:href="protocol__host__parser_8c.xhtml#aa5664de178367c7faa1ee945dbc71761" target="_top" xlink:title="parse_respiration_status">
<polygon fill="white" stroke="red" points="124,-228.5 124,-247.5 247,-247.5 247,-228.5 124,-228.5"/>
<text text-anchor="middle" x="185.5" y="-235.5" font-family="Helvetica,sans-Serif" font-size="10.00">parse_respiration_status</text>
</a>
</g>
</g>
<!-- Node303&#45;&gt;Node305 -->
<g id="edge2" class="edge"><title>Node303&#45;&gt;Node305</title>
<path fill="none" stroke="midnightblue" d="M47.7041,-152.501C59.5899,-168.632 85.9537,-201.343 116,-219 119.711,-221.181 123.682,-223.12 127.773,-224.843"/>
<polygon fill="midnightblue" stroke="midnightblue" points="126.881,-228.246 137.473,-228.482 129.34,-221.692 126.881,-228.246"/>
</g>
<!-- Node307 -->
<g id="node4" class="node"><title>Node307</title>
<g id="a_node4"><a xlink:href="protocol__host__parser_8c.xhtml#a1d7a9c5ebdff244e0aeda763a574f2c6" target="_top" xlink:title="parse_sleep_status">
<polygon fill="white" stroke="red" points="135,-190.5 135,-209.5 236,-209.5 236,-190.5 135,-190.5"/>
<text text-anchor="middle" x="185.5" y="-197.5" font-family="Helvetica,sans-Serif" font-size="10.00">parse_sleep_status</text>
</a>
</g>
</g>
<!-- Node303&#45;&gt;Node307 -->
<g id="edge4" class="edge"><title>Node303&#45;&gt;Node307</title>
<path fill="none" stroke="midnightblue" d="M57.5406,-152.585C72.4541,-160.932 95.1764,-172.929 116,-181 122.041,-183.342 128.486,-185.522 134.914,-187.508"/>
<polygon fill="midnightblue" stroke="midnightblue" points="134.359,-190.994 144.941,-190.466 136.34,-184.28 134.359,-190.994"/>
</g>
<!-- Node308 -->
<g id="node5" class="node"><title>Node308</title>
<g id="a_node5"><a xlink:href="protocol__host__parser_8c.xhtml#a7203ea3951462b2d1b41d65f67e8615a" target="_top" xlink:title="parse_baseband_ap">
<polygon fill="white" stroke="red" points="133.5,-152.5 133.5,-171.5 237.5,-171.5 237.5,-152.5 133.5,-152.5"/>
<text text-anchor="middle" x="185.5" y="-159.5" font-family="Helvetica,sans-Serif" font-size="10.00">parse_baseband_ap</text>
</a>
</g>
</g>
<!-- Node303&#45;&gt;Node308 -->
<g id="edge6" class="edge"><title>Node303&#45;&gt;Node308</title>
<path fill="none" stroke="midnightblue" d="M80.212,-148.192C93.562,-149.959 108.819,-151.979 123.466,-153.919"/>
<polygon fill="midnightblue" stroke="midnightblue" points="123.105,-157.402 133.478,-155.244 124.024,-150.462 123.105,-157.402"/>
</g>
<!-- Node309 -->
<g id="node6" class="node"><title>Node309</title>
<g id="a_node6"><a xlink:href="protocol__host__parser_8c.xhtml#a49dc96ded8bdab7fa0c66df331f7dce3" target="_top" xlink:title="parse_baseband_iq">
<polygon fill="white" stroke="red" points="135,-114.5 135,-133.5 236,-133.5 236,-114.5 135,-114.5"/>
<text text-anchor="middle" x="185.5" y="-121.5" font-family="Helvetica,sans-Serif" font-size="10.00">parse_baseband_iq</text>
</a>
</g>
</g>
<!-- Node303&#45;&gt;Node309 -->
<g id="edge8" class="edge"><title>Node303&#45;&gt;Node309</title>
<path fill="none" stroke="midnightblue" d="M80.212,-137.808C93.8991,-135.996 109.59,-133.918 124.574,-131.934"/>
<polygon fill="midnightblue" stroke="midnightblue" points="125.347,-135.363 134.801,-130.58 124.428,-128.423 125.347,-135.363"/>
</g>
<!-- Node310 -->
<g id="node7" class="node"><title>Node310</title>
<g id="a_node7"><a xlink:href="protocol__host__parser_8c.xhtml#ae5dd91a3fada2d831133de8ee8be2712" target="_top" xlink:title="parse_presence_single">
<polygon fill="white" stroke="red" points="127.5,-76.5 127.5,-95.5 243.5,-95.5 243.5,-76.5 127.5,-76.5"/>
<text text-anchor="middle" x="185.5" y="-83.5" font-family="Helvetica,sans-Serif" font-size="10.00">parse_presence_single</text>
</a>
</g>
</g>
<!-- Node303&#45;&gt;Node310 -->
<g id="edge10" class="edge"><title>Node303&#45;&gt;Node310</title>
<path fill="none" stroke="midnightblue" d="M57.5406,-133.415C72.4541,-125.068 95.1764,-113.071 116,-105 122.041,-102.658 128.486,-100.478 134.914,-98.4916"/>
<polygon fill="midnightblue" stroke="midnightblue" points="136.34,-101.72 144.941,-95.5338 134.359,-95.006 136.34,-101.72"/>
</g>
<!-- Node311 -->
<g id="node8" class="node"><title>Node311</title>
<g id="a_node8"><a xlink:href="protocol__host__parser_8c.xhtml#ad924540c85994179fc947cd380114366" target="_top" xlink:title="parse_presence_movinglist">
<polygon fill="white" stroke="black" points="118.5,-38.5 118.5,-57.5 252.5,-57.5 252.5,-38.5 118.5,-38.5"/>
<text text-anchor="middle" x="185.5" y="-45.5" font-family="Helvetica,sans-Serif" font-size="10.00">parse_presence_movinglist</text>
</a>
</g>
</g>
<!-- Node303&#45;&gt;Node311 -->
<g id="edge12" class="edge"><title>Node303&#45;&gt;Node311</title>
<path fill="none" stroke="midnightblue" d="M47.7041,-133.499C59.5899,-117.368 85.9537,-84.6569 116,-67 119.711,-64.8194 123.682,-62.8802 127.773,-61.1573"/>
<polygon fill="midnightblue" stroke="midnightblue" points="129.34,-64.3078 137.473,-57.5175 126.881,-57.754 129.34,-64.3078"/>
</g>
<!-- Node312 -->
<g id="node9" class="node"><title>Node312</title>
<g id="a_node9"><a xlink:href="protocol__host__parser_8c.xhtml#a8d71237f11a46b84563dd3552ac10f01" target="_top" xlink:title="parse_respiration_movinglist">
<polygon fill="white" stroke="black" points="116,-0.5 116,-19.5 255,-19.5 255,-0.5 116,-0.5"/>
<text text-anchor="middle" x="185.5" y="-7.5" font-family="Helvetica,sans-Serif" font-size="10.00">parse_respiration_movinglist</text>
</a>
</g>
</g>
<!-- Node303&#45;&gt;Node312 -->
<g id="edge14" class="edge"><title>Node303&#45;&gt;Node312</title>
<path fill="none" stroke="midnightblue" d="M44.5689,-133.358C53.2284,-111.328 77.5154,-57.0438 116,-29 118.643,-27.0739 121.473,-25.343 124.423,-23.7875"/>
<polygon fill="midnightblue" stroke="midnightblue" points="125.912,-26.9551 133.564,-19.6274 123.013,-20.5838 125.912,-26.9551"/>
</g>
<!-- Node305&#45;&gt;Node304 -->
<g id="edge3" class="edge"><title>Node305&#45;&gt;Node304</title>
<path fill="none" stroke="midnightblue" d="M233.101,-228.49C240.686,-225.991 248.258,-222.873 255,-219 281.106,-204.001 304.915,-178.255 319.183,-160.936"/>
<polygon fill="midnightblue" stroke="midnightblue" points="322.22,-162.743 325.736,-152.749 316.755,-158.368 322.22,-162.743"/>
</g>
<!-- Node307&#45;&gt;Node304 -->
<g id="edge5" class="edge"><title>Node307&#45;&gt;Node304</title>
<path fill="none" stroke="midnightblue" d="M225.66,-190.465C235.361,-187.742 245.651,-184.54 255,-181 272.681,-174.306 291.773,-165.042 306.643,-157.337"/>
<polygon fill="midnightblue" stroke="midnightblue" points="308.531,-160.298 315.748,-152.541 305.269,-154.105 308.531,-160.298"/>
</g>
<!-- Node308&#45;&gt;Node304 -->
<g id="edge7" class="edge"><title>Node308&#45;&gt;Node304</title>
<path fill="none" stroke="midnightblue" d="M237.739,-155.355C251.682,-153.546 266.798,-151.586 280.794,-149.771"/>
<polygon fill="midnightblue" stroke="midnightblue" points="281.288,-153.236 290.755,-148.479 280.388,-146.294 281.288,-153.236"/>
</g>
<!-- Node309&#45;&gt;Node304 -->
<g id="edge9" class="edge"><title>Node309&#45;&gt;Node304</title>
<path fill="none" stroke="midnightblue" d="M236.098,-130.433C250.393,-132.286 266.033,-134.315 280.498,-136.191"/>
<polygon fill="midnightblue" stroke="midnightblue" points="280.419,-139.71 290.786,-137.525 281.319,-132.768 280.419,-139.71"/>
</g>
<!-- Node310&#45;&gt;Node304 -->
<g id="edge11" class="edge"><title>Node310&#45;&gt;Node304</title>
<path fill="none" stroke="midnightblue" d="M225.66,-95.5348C235.361,-98.2583 245.651,-101.46 255,-105 272.681,-111.694 291.773,-120.958 306.643,-128.663"/>
<polygon fill="midnightblue" stroke="midnightblue" points="305.269,-131.895 315.748,-133.459 308.531,-125.702 305.269,-131.895"/>
</g>
<!-- Node311&#45;&gt;Node304 -->
<g id="edge13" class="edge"><title>Node311&#45;&gt;Node304</title>
<path fill="none" stroke="midnightblue" d="M233.101,-57.5098C240.686,-60.0091 248.258,-63.1267 255,-67 281.106,-81.9989 304.915,-107.745 319.183,-125.064"/>
<polygon fill="midnightblue" stroke="midnightblue" points="316.755,-127.632 325.736,-133.251 322.22,-123.257 316.755,-127.632"/>
</g>
<!-- Node312&#45;&gt;Node304 -->
<g id="edge15" class="edge"><title>Node312&#45;&gt;Node304</title>
<path fill="none" stroke="midnightblue" d="M237.016,-19.581C243.396,-22.0381 249.579,-25.1242 255,-29 289.464,-53.6381 313.506,-98.5596 325.099,-124.037"/>
<polygon fill="midnightblue" stroke="midnightblue" points="321.961,-125.598 329.176,-133.357 328.374,-122.792 321.961,-125.598"/>
</g>
</g>
</svg>
