<?xml version="1.0" encoding="UTF-8" standalone="no"?>
<!DOCTYPE svg PUBLIC "-//W3C//DTD SVG 1.1//EN"
 "http://www.w3.org/Graphics/SVG/1.1/DTD/svg11.dtd">
<!-- Generated by graphviz version 2.38.0 (20140413.2041)
 -->
<!-- Title: createX4DriverSetFrameAreaOffsetCommand Pages: 1 -->
<svg width="370pt" height="180pt"
 viewBox="0.00 0.00 370.00 180.00" xmlns="http://www.w3.org/2000/svg" xmlns:xlink="http://www.w3.org/1999/xlink">
<g id="graph0" class="graph" transform="scale(1 1) rotate(0) translate(4 176)">
<title>createX4DriverSetFrameAreaOffsetCommand</title>
<polygon fill="white" stroke="none" points="-4,4 -4,-176 366,-176 366,4 -4,4"/>
<!-- Node560 -->
<g id="node1" class="node"><title>Node560</title>
<polygon fill="#bfbfbf" stroke="black" points="0,-71 0,-101 141,-101 141,-71 0,-71"/>
<text text-anchor="start" x="8" y="-89" font-family="Helvetica,sans-Serif" font-size="10.00">createX4DriverSetFrameArea</text>
<text text-anchor="middle" x="70.5" y="-78" font-family="Helvetica,sans-Serif" font-size="10.00">OffsetCommand</text>
</g>
<!-- Node561 -->
<g id="node2" class="node"><title>Node561</title>
<g id="a_node2"><a xlink:href="protocol_8c.xhtml#a3de1158ac59e288305dd2a83c23c8bcf" target="_top" xlink:title="packet_start">
<polygon fill="white" stroke="black" points="178.5,-152.5 178.5,-171.5 249.5,-171.5 249.5,-152.5 178.5,-152.5"/>
<text text-anchor="middle" x="214" y="-159.5" font-family="Helvetica,sans-Serif" font-size="10.00">packet_start</text>
</a>
</g>
</g>
<!-- Node560&#45;&gt;Node561 -->
<g id="edge1" class="edge"><title>Node560&#45;&gt;Node561</title>
<path fill="none" stroke="midnightblue" d="M99.4558,-101.015C124.595,-114.517 161.281,-134.221 186.092,-147.548"/>
<polygon fill="midnightblue" stroke="midnightblue" points="184.505,-150.668 194.971,-152.317 187.818,-144.502 184.505,-150.668"/>
</g>
<!-- Node562 -->
<g id="node3" class="node"><title>Node562</title>
<g id="a_node3"><a xlink:href="protocol_8c.xhtml#aefcdbf5141d1639e3d6aea7a577b09a5" target="_top" xlink:title="process_byte">
<polygon fill="white" stroke="red" points="287,-76.5 287,-95.5 362,-95.5 362,-76.5 287,-76.5"/>
<text text-anchor="middle" x="324.5" y="-83.5" font-family="Helvetica,sans-Serif" font-size="10.00">process_byte</text>
</a>
</g>
</g>
<!-- Node560&#45;&gt;Node562 -->
<g id="edge2" class="edge"><title>Node560&#45;&gt;Node562</title>
<path fill="none" stroke="midnightblue" d="M141.057,-100.933C174.365,-106.15 214.791,-109.666 251,-105 261.953,-103.589 273.613,-101.025 284.306,-98.2274"/>
<polygon fill="midnightblue" stroke="midnightblue" points="285.494,-101.531 294.208,-95.5041 283.638,-94.7812 285.494,-101.531"/>
</g>
<!-- Node564 -->
<g id="node4" class="node"><title>Node564</title>
<g id="a_node4"><a xlink:href="protocol_8c.xhtml#a6ea2f891064cb69b0c705c1dd034b909" target="_top" xlink:title="process_int">
<polygon fill="white" stroke="black" points="180.5,-76.5 180.5,-95.5 247.5,-95.5 247.5,-76.5 180.5,-76.5"/>
<text text-anchor="middle" x="214" y="-83.5" font-family="Helvetica,sans-Serif" font-size="10.00">process_int</text>
</a>
</g>
</g>
<!-- Node560&#45;&gt;Node564 -->
<g id="edge3" class="edge"><title>Node560&#45;&gt;Node564</title>
<path fill="none" stroke="midnightblue" d="M141.006,-86C150.959,-86 160.945,-86 170.176,-86"/>
<polygon fill="midnightblue" stroke="midnightblue" points="170.234,-89.5001 180.234,-86 170.234,-82.5001 170.234,-89.5001"/>
</g>
<!-- Node565 -->
<g id="node5" class="node"><title>Node565</title>
<g id="a_node5"><a xlink:href="protocol_8c.xhtml#a4b4523eb440f31227edb38e88a9d0a8b" target="_top" xlink:title="process_float">
<polygon fill="white" stroke="black" points="177,-38.5 177,-57.5 251,-57.5 251,-38.5 177,-38.5"/>
<text text-anchor="middle" x="214" y="-45.5" font-family="Helvetica,sans-Serif" font-size="10.00">process_float</text>
</a>
</g>
</g>
<!-- Node560&#45;&gt;Node565 -->
<g id="edge5" class="edge"><title>Node560&#45;&gt;Node565</title>
<path fill="none" stroke="midnightblue" d="M127.425,-70.9814C140.713,-67.4129 154.731,-63.6481 167.49,-60.2219"/>
<polygon fill="midnightblue" stroke="midnightblue" points="168.663,-63.5307 177.413,-57.5568 166.848,-56.7703 168.663,-63.5307"/>
</g>
<!-- Node566 -->
<g id="node6" class="node"><title>Node566</title>
<g id="a_node6"><a xlink:href="protocol_8c.xhtml#aa411de769b16d0e990fed401be284798" target="_top" xlink:title="packet_end">
<polygon fill="white" stroke="red" points="180.5,-0.5 180.5,-19.5 247.5,-19.5 247.5,-0.5 180.5,-0.5"/>
<text text-anchor="middle" x="214" y="-7.5" font-family="Helvetica,sans-Serif" font-size="10.00">packet_end</text>
</a>
</g>
</g>
<!-- Node560&#45;&gt;Node566 -->
<g id="edge7" class="edge"><title>Node560&#45;&gt;Node566</title>
<path fill="none" stroke="midnightblue" d="M99.2262,-70.9247C120.481,-59.3915 150.556,-43.1215 177,-29 179.778,-27.5165 182.68,-25.9738 185.578,-24.4374"/>
<polygon fill="midnightblue" stroke="midnightblue" points="187.463,-27.3997 194.668,-19.6314 184.191,-21.2114 187.463,-27.3997"/>
</g>
<!-- Node564&#45;&gt;Node562 -->
<g id="edge4" class="edge"><title>Node564&#45;&gt;Node562</title>
<path fill="none" stroke="midnightblue" d="M247.554,-86C256.726,-86 266.89,-86 276.72,-86"/>
<polygon fill="midnightblue" stroke="midnightblue" points="276.788,-89.5001 286.788,-86 276.788,-82.5001 276.788,-89.5001"/>
</g>
<!-- Node565&#45;&gt;Node562 -->
<g id="edge6" class="edge"><title>Node565&#45;&gt;Node562</title>
<path fill="none" stroke="midnightblue" d="M242.379,-57.589C255.743,-62.2694 272.017,-67.9692 286.472,-73.0315"/>
<polygon fill="midnightblue" stroke="midnightblue" points="285.535,-76.4118 296.13,-76.4141 287.849,-69.8053 285.535,-76.4118"/>
</g>
</g>
</svg>
