<?xml version="1.0" encoding="UTF-8" standalone="no"?>
<!DOCTYPE svg PUBLIC "-//W3C//DTD SVG 1.1//EN"
 "http://www.w3.org/Graphics/SVG/1.1/DTD/svg11.dtd">
<!-- Generated by graphviz version 2.38.0 (20140413.2041)
 -->
<!-- Title: createSetSensorModeCommand Pages: 1 -->
<svg width="277pt" height="104pt"
 viewBox="0.00 0.00 277.00 104.00" xmlns="http://www.w3.org/2000/svg" xmlns:xlink="http://www.w3.org/1999/xlink">
<g id="graph0" class="graph" transform="scale(1 1) rotate(0) translate(4 100)">
<title>createSetSensorModeCommand</title>
<polygon fill="white" stroke="none" points="-4,4 -4,-100 273,-100 273,4 -4,4"/>
<!-- Node448 -->
<g id="node1" class="node"><title>Node448</title>
<polygon fill="#bfbfbf" stroke="black" points="0,-38.5 0,-57.5 158,-57.5 158,-38.5 0,-38.5"/>
<text text-anchor="middle" x="79" y="-45.5" font-family="Helvetica,sans-Serif" font-size="10.00">createSetSensorModeCommand</text>
</g>
<!-- Node449 -->
<g id="node2" class="node"><title>Node449</title>
<g id="a_node2"><a xlink:href="protocol_8c.xhtml#a3de1158ac59e288305dd2a83c23c8bcf" target="_top" xlink:title="packet_start">
<polygon fill="white" stroke="black" points="196,-76.5 196,-95.5 267,-95.5 267,-76.5 196,-76.5"/>
<text text-anchor="middle" x="231.5" y="-83.5" font-family="Helvetica,sans-Serif" font-size="10.00">packet_start</text>
</a>
</g>
</g>
<!-- Node448&#45;&gt;Node449 -->
<g id="edge1" class="edge"><title>Node448&#45;&gt;Node449</title>
<path fill="none" stroke="midnightblue" d="M117.978,-57.589C138.65,-62.8087 164.344,-69.2961 185.958,-74.7535"/>
<polygon fill="midnightblue" stroke="midnightblue" points="185.331,-78.205 195.884,-77.2597 187.045,-71.418 185.331,-78.205"/>
</g>
<!-- Node450 -->
<g id="node3" class="node"><title>Node450</title>
<g id="a_node3"><a xlink:href="protocol_8c.xhtml#aefcdbf5141d1639e3d6aea7a577b09a5" target="_top" xlink:title="process_byte">
<polygon fill="white" stroke="red" points="194,-38.5 194,-57.5 269,-57.5 269,-38.5 194,-38.5"/>
<text text-anchor="middle" x="231.5" y="-45.5" font-family="Helvetica,sans-Serif" font-size="10.00">process_byte</text>
</a>
</g>
</g>
<!-- Node448&#45;&gt;Node450 -->
<g id="edge2" class="edge"><title>Node448&#45;&gt;Node450</title>
<path fill="none" stroke="midnightblue" d="M158.336,-48C167.074,-48 175.757,-48 183.911,-48"/>
<polygon fill="midnightblue" stroke="midnightblue" points="183.923,-51.5001 193.923,-48 183.923,-44.5001 183.923,-51.5001"/>
</g>
<!-- Node452 -->
<g id="node4" class="node"><title>Node452</title>
<g id="a_node4"><a xlink:href="protocol_8c.xhtml#aa411de769b16d0e990fed401be284798" target="_top" xlink:title="packet_end">
<polygon fill="white" stroke="red" points="198,-0.5 198,-19.5 265,-19.5 265,-0.5 198,-0.5"/>
<text text-anchor="middle" x="231.5" y="-7.5" font-family="Helvetica,sans-Serif" font-size="10.00">packet_end</text>
</a>
</g>
</g>
<!-- Node448&#45;&gt;Node452 -->
<g id="edge3" class="edge"><title>Node448&#45;&gt;Node452</title>
<path fill="none" stroke="midnightblue" d="M117.978,-38.411C139.272,-33.0342 165.895,-26.3122 187.898,-20.7567"/>
<polygon fill="midnightblue" stroke="midnightblue" points="188.808,-24.1369 197.646,-18.2952 187.094,-17.3499 188.808,-24.1369"/>
</g>
</g>
</svg>
