<?xml version="1.0" encoding="UTF-8" standalone="no"?>
<!DOCTYPE svg PUBLIC "-//W3C//DTD SVG 1.1//EN"
 "http://www.w3.org/Graphics/SVG/1.1/DTD/svg11.dtd">
<!-- Generated by graphviz version 2.38.0 (20140413.2041)
 -->
<!-- Title: createX4DriverSetPulsesPerStepCommand Pages: 1 -->
<svg width="315pt" height="39pt"
 viewBox="0.00 0.00 315.00 39.00" xmlns="http://www.w3.org/2000/svg" xmlns:xlink="http://www.w3.org/1999/xlink">
<g id="graph0" class="graph" transform="scale(1 1) rotate(0) translate(4 35)">
<title>createX4DriverSetPulsesPerStepCommand</title>
<polygon fill="white" stroke="none" points="-4,4 -4,-35 311,-35 311,4 -4,4"/>
<!-- Node597 -->
<g id="node1" class="node"><title>Node597</title>
<polygon fill="#bfbfbf" stroke="black" points="0,-0.5 0,-30.5 138,-30.5 138,-0.5 0,-0.5"/>
<text text-anchor="start" x="8" y="-18.5" font-family="Helvetica,sans-Serif" font-size="10.00">createX4DriverSetPulsesPer</text>
<text text-anchor="middle" x="69" y="-7.5" font-family="Helvetica,sans-Serif" font-size="10.00">StepCommand</text>
</g>
<!-- Node598 -->
<g id="node2" class="node"><title>Node598</title>
<g id="a_node2"><a xlink:href="mcp__wrapper_8c.xhtml#ae4bd4df9e4b638793da4561fea437df4" target="_top" xlink:title="mcpw_x4driver_set_pulses\l_per_step">
<polygon fill="white" stroke="black" points="174,-0.5 174,-30.5 307,-30.5 307,-0.5 174,-0.5"/>
<text text-anchor="start" x="182" y="-18.5" font-family="Helvetica,sans-Serif" font-size="10.00">mcpw_x4driver_set_pulses</text>
<text text-anchor="middle" x="240.5" y="-7.5" font-family="Helvetica,sans-Serif" font-size="10.00">_per_step</text>
</a>
</g>
</g>
<!-- Node597&#45;&gt;Node598 -->
<g id="edge1" class="edge"><title>Node597&#45;&gt;Node598</title>
<path fill="none" stroke="midnightblue" d="M148.657,-15.5C157.074,-15.5 165.571,-15.5 173.814,-15.5"/>
<polygon fill="midnightblue" stroke="midnightblue" points="148.454,-12.0001 138.454,-15.5 148.454,-19.0001 148.454,-12.0001"/>
</g>
</g>
</svg>
