<?xml version="1.0" encoding="UTF-8" standalone="no"?>
<!DOCTYPE svg PUBLIC "-//W3C//DTD SVG 1.1//EN"
 "http://www.w3.org/Graphics/SVG/1.1/DTD/svg11.dtd">
<!-- Generated by graphviz version 2.38.0 (20140413.2041)
 -->
<!-- Title: createPingCommand Pages: 1 -->
<svg width="226pt" height="104pt"
 viewBox="0.00 0.00 226.00 104.00" xmlns="http://www.w3.org/2000/svg" xmlns:xlink="http://www.w3.org/1999/xlink">
<g id="graph0" class="graph" transform="scale(1 1) rotate(0) translate(4 100)">
<title>createPingCommand</title>
<polygon fill="white" stroke="none" points="-4,4 -4,-100 222,-100 222,4 -4,4"/>
<!-- Node280 -->
<g id="node1" class="node"><title>Node280</title>
<polygon fill="#bfbfbf" stroke="black" points="0,-38.5 0,-57.5 107,-57.5 107,-38.5 0,-38.5"/>
<text text-anchor="middle" x="53.5" y="-45.5" font-family="Helvetica,sans-Serif" font-size="10.00">createPingCommand</text>
</g>
<!-- Node281 -->
<g id="node2" class="node"><title>Node281</title>
<g id="a_node2"><a xlink:href="protocol_8c.xhtml#a3de1158ac59e288305dd2a83c23c8bcf" target="_top" xlink:title="packet_start">
<polygon fill="white" stroke="black" points="145,-76.5 145,-95.5 216,-95.5 216,-76.5 145,-76.5"/>
<text text-anchor="middle" x="180.5" y="-83.5" font-family="Helvetica,sans-Serif" font-size="10.00">packet_start</text>
</a>
</g>
</g>
<!-- Node280&#45;&gt;Node281 -->
<g id="edge1" class="edge"><title>Node280&#45;&gt;Node281</title>
<path fill="none" stroke="midnightblue" d="M86.0428,-57.589C101.883,-62.4044 121.273,-68.2988 138.276,-73.468"/>
<polygon fill="midnightblue" stroke="midnightblue" points="137.382,-76.8541 147.967,-76.4141 139.418,-70.1567 137.382,-76.8541"/>
</g>
<!-- Node282 -->
<g id="node3" class="node"><title>Node282</title>
<g id="a_node3"><a xlink:href="protocol_8c.xhtml#aefcdbf5141d1639e3d6aea7a577b09a5" target="_top" xlink:title="process_byte">
<polygon fill="white" stroke="red" points="143,-38.5 143,-57.5 218,-57.5 218,-38.5 143,-38.5"/>
<text text-anchor="middle" x="180.5" y="-45.5" font-family="Helvetica,sans-Serif" font-size="10.00">process_byte</text>
</a>
</g>
</g>
<!-- Node280&#45;&gt;Node282 -->
<g id="edge2" class="edge"><title>Node280&#45;&gt;Node282</title>
<path fill="none" stroke="midnightblue" d="M107.149,-48C115.593,-48 124.284,-48 132.583,-48"/>
<polygon fill="midnightblue" stroke="midnightblue" points="132.838,-51.5001 142.838,-48 132.838,-44.5001 132.838,-51.5001"/>
</g>
<!-- Node284 -->
<g id="node4" class="node"><title>Node284</title>
<g id="a_node4"><a xlink:href="protocol_8c.xhtml#aa411de769b16d0e990fed401be284798" target="_top" xlink:title="packet_end">
<polygon fill="white" stroke="red" points="147,-0.5 147,-19.5 214,-19.5 214,-0.5 147,-0.5"/>
<text text-anchor="middle" x="180.5" y="-7.5" font-family="Helvetica,sans-Serif" font-size="10.00">packet_end</text>
</a>
</g>
</g>
<!-- Node280&#45;&gt;Node284 -->
<g id="edge3" class="edge"><title>Node280&#45;&gt;Node284</title>
<path fill="none" stroke="midnightblue" d="M86.0428,-38.411C101.883,-33.5956 121.273,-27.7012 138.276,-22.532"/>
<polygon fill="midnightblue" stroke="midnightblue" points="139.418,-25.8433 147.967,-19.5859 137.382,-19.1459 139.418,-25.8433"/>
</g>
</g>
</svg>
