<?xml version="1.0" encoding="UTF-8" standalone="no"?>
<!DOCTYPE svg PUBLIC "-//W3C//DTD SVG 1.1//EN"
 "http://www.w3.org/Graphics/SVG/1.1/DTD/svg11.dtd">
<!-- Generated by graphviz version 2.38.0 (20140413.2041)
 -->
<!-- Title: createX4DriverGetFpsCommand Pages: 1 -->
<svg width="381pt" height="142pt"
 viewBox="0.00 0.00 381.00 142.00" xmlns="http://www.w3.org/2000/svg" xmlns:xlink="http://www.w3.org/1999/xlink">
<g id="graph0" class="graph" transform="scale(1 1) rotate(0) translate(4 138)">
<title>createX4DriverGetFpsCommand</title>
<polygon fill="white" stroke="none" points="-4,4 -4,-138 377,-138 377,4 -4,4"/>
<!-- Node509 -->
<g id="node1" class="node"><title>Node509</title>
<polygon fill="#bfbfbf" stroke="black" points="0,-57.5 0,-76.5 155,-76.5 155,-57.5 0,-57.5"/>
<text text-anchor="middle" x="77.5" y="-64.5" font-family="Helvetica,sans-Serif" font-size="10.00">createX4DriverGetFpsCommand</text>
</g>
<!-- Node510 -->
<g id="node2" class="node"><title>Node510</title>
<g id="a_node2"><a xlink:href="protocol_8c.xhtml#a3de1158ac59e288305dd2a83c23c8bcf" target="_top" xlink:title="packet_start">
<polygon fill="white" stroke="black" points="191,-114.5 191,-133.5 262,-133.5 262,-114.5 191,-114.5"/>
<text text-anchor="middle" x="226.5" y="-121.5" font-family="Helvetica,sans-Serif" font-size="10.00">packet_start</text>
</a>
</g>
</g>
<!-- Node509&#45;&gt;Node510 -->
<g id="edge1" class="edge"><title>Node509&#45;&gt;Node510</title>
<path fill="none" stroke="midnightblue" d="M103.104,-76.5405C127.272,-85.9116 164.347,-100.288 191.361,-110.762"/>
<polygon fill="midnightblue" stroke="midnightblue" points="190.226,-114.076 200.815,-114.428 192.757,-107.55 190.226,-114.076"/>
</g>
<!-- Node511 -->
<g id="node3" class="node"><title>Node511</title>
<g id="a_node3"><a xlink:href="protocol_8c.xhtml#aefcdbf5141d1639e3d6aea7a577b09a5" target="_top" xlink:title="process_byte">
<polygon fill="white" stroke="red" points="298,-57.5 298,-76.5 373,-76.5 373,-57.5 298,-57.5"/>
<text text-anchor="middle" x="335.5" y="-64.5" font-family="Helvetica,sans-Serif" font-size="10.00">process_byte</text>
</a>
</g>
</g>
<!-- Node509&#45;&gt;Node511 -->
<g id="edge2" class="edge"><title>Node509&#45;&gt;Node511</title>
<path fill="none" stroke="midnightblue" d="M155.308,-67C198.203,-67 250.281,-67 287.214,-67"/>
<polygon fill="midnightblue" stroke="midnightblue" points="287.685,-70.5001 297.685,-67 287.685,-63.5001 287.685,-70.5001"/>
</g>
<!-- Node513 -->
<g id="node4" class="node"><title>Node513</title>
<g id="a_node4"><a xlink:href="protocol_8c.xhtml#a6ea2f891064cb69b0c705c1dd034b909" target="_top" xlink:title="process_int">
<polygon fill="white" stroke="black" points="193,-38.5 193,-57.5 260,-57.5 260,-38.5 193,-38.5"/>
<text text-anchor="middle" x="226.5" y="-45.5" font-family="Helvetica,sans-Serif" font-size="10.00">process_int</text>
</a>
</g>
</g>
<!-- Node509&#45;&gt;Node513 -->
<g id="edge3" class="edge"><title>Node509&#45;&gt;Node513</title>
<path fill="none" stroke="midnightblue" d="M152.431,-57.4443C162.827,-56.1006 173.211,-54.7584 182.752,-53.5252"/>
<polygon fill="midnightblue" stroke="midnightblue" points="183.266,-56.988 192.735,-52.235 182.369,-50.0458 183.266,-56.988"/>
</g>
<!-- Node514 -->
<g id="node5" class="node"><title>Node514</title>
<g id="a_node5"><a xlink:href="protocol_8c.xhtml#aa411de769b16d0e990fed401be284798" target="_top" xlink:title="packet_end">
<polygon fill="white" stroke="red" points="193,-0.5 193,-19.5 260,-19.5 260,-0.5 193,-0.5"/>
<text text-anchor="middle" x="226.5" y="-7.5" font-family="Helvetica,sans-Serif" font-size="10.00">packet_end</text>
</a>
</g>
</g>
<!-- Node509&#45;&gt;Node514 -->
<g id="edge5" class="edge"><title>Node509&#45;&gt;Node514</title>
<path fill="none" stroke="midnightblue" d="M103.104,-57.4595C127.272,-48.0884 164.347,-33.7124 191.361,-23.2377"/>
<polygon fill="midnightblue" stroke="midnightblue" points="192.757,-26.4503 200.815,-19.5716 190.226,-19.9237 192.757,-26.4503"/>
</g>
<!-- Node513&#45;&gt;Node511 -->
<g id="edge4" class="edge"><title>Node513&#45;&gt;Node511</title>
<path fill="none" stroke="midnightblue" d="M260.185,-53.8039C268.941,-55.3587 278.578,-57.0699 287.928,-58.7302"/>
<polygon fill="midnightblue" stroke="midnightblue" points="287.448,-62.1996 297.906,-60.502 288.672,-55.3074 287.448,-62.1996"/>
</g>
</g>
</svg>
