<?xml version="1.0" encoding="UTF-8" standalone="no"?>
<!DOCTYPE svg PUBLIC "-//W3C//DTD SVG 1.1//EN"
 "http://www.w3.org/Graphics/SVG/1.1/DTD/svg11.dtd">
<!-- Generated by graphviz version 2.38.0 (20140413.2041)
 -->
<!-- Title: process_float Pages: 1 -->
<svg width="283pt" height="279pt"
 viewBox="0.00 0.00 283.00 278.50" xmlns="http://www.w3.org/2000/svg" xmlns:xlink="http://www.w3.org/1999/xlink">
<g id="graph0" class="graph" transform="scale(1 1) rotate(0) translate(4 274.5)">
<title>process_float</title>
<polygon fill="white" stroke="none" points="-4,4 -4,-274.5 279,-274.5 279,4 -4,4"/>
<!-- Node475 -->
<g id="node1" class="node"><title>Node475</title>
<polygon fill="#bfbfbf" stroke="black" points="0,-137 0,-156 74,-156 74,-137 0,-137"/>
<text text-anchor="middle" x="37" y="-144" font-family="Helvetica,sans-Serif" font-size="10.00">process_float</text>
</g>
<!-- Node476 -->
<g id="node2" class="node"><title>Node476</title>
<g id="a_node2"><a xlink:href="protocol__helpers_8h.xhtml#aeb519daf7106b2a3d9e5edde3c0a3e2c" target="_top" xlink:title="process_floats">
<polygon fill="white" stroke="black" points="152.5,-251 152.5,-270 232.5,-270 232.5,-251 152.5,-251"/>
<text text-anchor="middle" x="192.5" y="-258" font-family="Helvetica,sans-Serif" font-size="10.00">process_floats</text>
</a>
</g>
</g>
<!-- Node475&#45;&gt;Node476 -->
<g id="edge1" class="edge"><title>Node475&#45;&gt;Node476</title>
<path fill="none" stroke="midnightblue" d="M46.9321,-164.988C58.4298,-186.752 80.4942,-222.352 110,-241.5 122.553,-249.646 138.198,-254.313 152.415,-256.982"/>
<polygon fill="midnightblue" stroke="midnightblue" points="50.0524,-163.402 42.4042,-156.071 43.8109,-166.572 50.0524,-163.402"/>
</g>
<!-- Node477 -->
<g id="node3" class="node"><title>Node477</title>
<g id="a_node3"><a xlink:href="protocol_8h.xhtml#a01fa3e6aef81d73733f628e00eccf283" target="_top" xlink:title="createSetDetectionZoneCommand">
<polygon fill="white" stroke="red" points="110,-213 110,-232 275,-232 275,-213 110,-213"/>
<text text-anchor="middle" x="192.5" y="-220" font-family="Helvetica,sans-Serif" font-size="10.00">createSetDetectionZoneCommand</text>
</a>
</g>
</g>
<!-- Node475&#45;&gt;Node477 -->
<g id="edge2" class="edge"><title>Node475&#45;&gt;Node477</title>
<path fill="none" stroke="midnightblue" d="M54.5273,-163.132C68.2483,-176.007 88.8723,-193.311 110,-203.5 117.983,-207.35 126.789,-210.443 135.572,-212.923"/>
<polygon fill="midnightblue" stroke="midnightblue" points="56.9202,-160.577 47.2947,-156.149 52.0584,-165.613 56.9202,-160.577"/>
</g>
<!-- Node487 -->
<g id="node4" class="node"><title>Node487</title>
<g id="a_node4"><a xlink:href="protocol_8h.xhtml#ad414c193855f5a1769a83a9f45c4cbed" target="_top" xlink:title="createConfigSetFloatCommand">
<polygon fill="white" stroke="black" points="116.5,-175 116.5,-194 268.5,-194 268.5,-175 116.5,-175"/>
<text text-anchor="middle" x="192.5" y="-182" font-family="Helvetica,sans-Serif" font-size="10.00">createConfigSetFloatCommand</text>
</a>
</g>
</g>
<!-- Node475&#45;&gt;Node487 -->
<g id="edge3" class="edge"><title>Node475&#45;&gt;Node487</title>
<path fill="none" stroke="midnightblue" d="M83.261,-158.658C92.1157,-160.976 101.34,-163.348 110,-165.5 122.831,-168.688 136.838,-172.01 149.564,-174.969"/>
<polygon fill="midnightblue" stroke="midnightblue" points="84.0323,-155.242 73.4705,-156.079 82.249,-162.011 84.0323,-155.242"/>
</g>
<!-- Node488 -->
<g id="node5" class="node"><title>Node488</title>
<g id="a_node5"><a xlink:href="protocol_8h.xhtml#af9cc82164eec358fe7abb70af530b782" target="_top" xlink:title="createSetFloatCommand">
<polygon fill="white" stroke="black" points="130,-137 130,-156 255,-156 255,-137 130,-137"/>
<text text-anchor="middle" x="192.5" y="-144" font-family="Helvetica,sans-Serif" font-size="10.00">createSetFloatCommand</text>
</a>
</g>
</g>
<!-- Node475&#45;&gt;Node488 -->
<g id="edge4" class="edge"><title>Node475&#45;&gt;Node488</title>
<path fill="none" stroke="midnightblue" d="M84.4579,-146.5C98.7564,-146.5 114.726,-146.5 129.876,-146.5"/>
<polygon fill="midnightblue" stroke="midnightblue" points="84.3774,-143 74.3774,-146.5 84.3773,-150 84.3774,-143"/>
</g>
<!-- Node489 -->
<g id="node6" class="node"><title>Node489</title>
<g id="a_node6"><a xlink:href="protocol_8h.xhtml#aea8afa156cc70e9907027e10991b774f" target="_top" xlink:title="createX4DriverSetFpsCommand">
<polygon fill="white" stroke="red" points="115.5,-99 115.5,-118 269.5,-118 269.5,-99 115.5,-99"/>
<text text-anchor="middle" x="192.5" y="-106" font-family="Helvetica,sans-Serif" font-size="10.00">createX4DriverSetFpsCommand</text>
</a>
</g>
</g>
<!-- Node475&#45;&gt;Node489 -->
<g id="edge5" class="edge"><title>Node475&#45;&gt;Node489</title>
<path fill="none" stroke="midnightblue" d="M83.261,-134.342C92.1157,-132.024 101.34,-129.652 110,-127.5 122.831,-124.312 136.838,-120.99 149.564,-118.031"/>
<polygon fill="midnightblue" stroke="midnightblue" points="82.249,-130.989 73.4705,-136.921 84.0323,-137.758 82.249,-130.989"/>
</g>
<!-- Node491 -->
<g id="node7" class="node"><title>Node491</title>
<g id="a_node7"><a xlink:href="protocol_8h.xhtml#a39dd3772d100ef1c87f980a69c718310" target="_top" xlink:title="createX4DriverSetFrameArea\lCommand">
<polygon fill="white" stroke="red" points="122,-49.5 122,-79.5 263,-79.5 263,-49.5 122,-49.5"/>
<text text-anchor="start" x="130" y="-67.5" font-family="Helvetica,sans-Serif" font-size="10.00">createX4DriverSetFrameArea</text>
<text text-anchor="middle" x="192.5" y="-56.5" font-family="Helvetica,sans-Serif" font-size="10.00">Command</text>
</a>
</g>
</g>
<!-- Node475&#45;&gt;Node491 -->
<g id="edge6" class="edge"><title>Node475&#45;&gt;Node491</title>
<path fill="none" stroke="midnightblue" d="M55.1979,-129.825C69.0261,-117.214 89.4701,-100.283 110,-89.5 117.206,-85.7149 125.078,-82.4022 132.997,-79.5337"/>
<polygon fill="midnightblue" stroke="midnightblue" points="52.7871,-127.288 47.8699,-136.672 57.5662,-132.402 52.7871,-127.288"/>
</g>
<!-- Node493 -->
<g id="node8" class="node"><title>Node493</title>
<g id="a_node8"><a xlink:href="protocol_8h.xhtml#abfd42fe1bb1d13946eb04064aa95211d" target="_top" xlink:title="createX4DriverSetFrameArea\lOffsetCommand">
<polygon fill="white" stroke="black" points="122,-0.5 122,-30.5 263,-30.5 263,-0.5 122,-0.5"/>
<text text-anchor="start" x="130" y="-18.5" font-family="Helvetica,sans-Serif" font-size="10.00">createX4DriverSetFrameArea</text>
<text text-anchor="middle" x="192.5" y="-7.5" font-family="Helvetica,sans-Serif" font-size="10.00">OffsetCommand</text>
</a>
</g>
</g>
<!-- Node475&#45;&gt;Node493 -->
<g id="edge7" class="edge"><title>Node475&#45;&gt;Node493</title>
<path fill="none" stroke="midnightblue" d="M45.9668,-127.649C56.9523,-103.892 78.9735,-63.4028 110,-40.5 115.239,-36.6326 121.085,-33.3561 127.174,-30.5816"/>
<polygon fill="midnightblue" stroke="midnightblue" points="42.6806,-126.425 41.8215,-136.985 49.0784,-129.266 42.6806,-126.425"/>
</g>
</g>
</svg>
