<?xml version="1.0" encoding="UTF-8" standalone="no"?>
<!DOCTYPE svg PUBLIC "-//W3C//DTD SVG 1.1//EN"
 "http://www.w3.org/Graphics/SVG/1.1/DTD/svg11.dtd">
<!-- Generated by graphviz version 2.38.0 (20140413.2041)
 -->
<!-- Title: createSetLedControlCommand Pages: 1 -->
<svg width="268pt" height="104pt"
 viewBox="0.00 0.00 268.00 104.00" xmlns="http://www.w3.org/2000/svg" xmlns:xlink="http://www.w3.org/1999/xlink">
<g id="graph0" class="graph" transform="scale(1 1) rotate(0) translate(4 100)">
<title>createSetLedControlCommand</title>
<polygon fill="white" stroke="none" points="-4,4 -4,-100 264,-100 264,4 -4,4"/>
<!-- Node301 -->
<g id="node1" class="node"><title>Node301</title>
<polygon fill="#bfbfbf" stroke="black" points="0,-38.5 0,-57.5 149,-57.5 149,-38.5 0,-38.5"/>
<text text-anchor="middle" x="74.5" y="-45.5" font-family="Helvetica,sans-Serif" font-size="10.00">createSetLedControlCommand</text>
</g>
<!-- Node302 -->
<g id="node2" class="node"><title>Node302</title>
<g id="a_node2"><a xlink:href="protocol_8c.xhtml#a3de1158ac59e288305dd2a83c23c8bcf" target="_top" xlink:title="packet_start">
<polygon fill="white" stroke="black" points="187,-76.5 187,-95.5 258,-95.5 258,-76.5 187,-76.5"/>
<text text-anchor="middle" x="222.5" y="-83.5" font-family="Helvetica,sans-Serif" font-size="10.00">packet_start</text>
</a>
</g>
</g>
<!-- Node301&#45;&gt;Node302 -->
<g id="edge1" class="edge"><title>Node301&#45;&gt;Node302</title>
<path fill="none" stroke="midnightblue" d="M112.342,-57.589C131.943,-62.6906 156.197,-69.0032 176.861,-74.3815"/>
<polygon fill="midnightblue" stroke="midnightblue" points="176.121,-77.8055 186.68,-76.9373 177.884,-71.0312 176.121,-77.8055"/>
</g>
<!-- Node303 -->
<g id="node3" class="node"><title>Node303</title>
<g id="a_node3"><a xlink:href="protocol_8c.xhtml#aefcdbf5141d1639e3d6aea7a577b09a5" target="_top" xlink:title="process_byte">
<polygon fill="white" stroke="red" points="185,-38.5 185,-57.5 260,-57.5 260,-38.5 185,-38.5"/>
<text text-anchor="middle" x="222.5" y="-45.5" font-family="Helvetica,sans-Serif" font-size="10.00">process_byte</text>
</a>
</g>
</g>
<!-- Node301&#45;&gt;Node303 -->
<g id="edge2" class="edge"><title>Node301&#45;&gt;Node303</title>
<path fill="none" stroke="midnightblue" d="M149.355,-48C157.912,-48 166.454,-48 174.509,-48"/>
<polygon fill="midnightblue" stroke="midnightblue" points="174.779,-51.5001 184.779,-48 174.779,-44.5001 174.779,-51.5001"/>
</g>
<!-- Node305 -->
<g id="node4" class="node"><title>Node305</title>
<g id="a_node4"><a xlink:href="protocol_8c.xhtml#aa411de769b16d0e990fed401be284798" target="_top" xlink:title="packet_end">
<polygon fill="white" stroke="red" points="189,-0.5 189,-19.5 256,-19.5 256,-0.5 189,-0.5"/>
<text text-anchor="middle" x="222.5" y="-7.5" font-family="Helvetica,sans-Serif" font-size="10.00">packet_end</text>
</a>
</g>
</g>
<!-- Node301&#45;&gt;Node305 -->
<g id="edge3" class="edge"><title>Node301&#45;&gt;Node305</title>
<path fill="none" stroke="midnightblue" d="M112.342,-38.411C132.615,-33.1344 157.866,-26.5622 178.974,-21.0683"/>
<polygon fill="midnightblue" stroke="midnightblue" points="179.859,-24.4547 188.655,-18.5487 178.096,-17.6804 179.859,-24.4547"/>
</g>
</g>
</svg>
