<?xml version="1.0" encoding="UTF-8" standalone="no"?>
<!DOCTYPE svg PUBLIC "-//W3C//DTD SVG 1.1//EN"
 "http://www.w3.org/Graphics/SVG/1.1/DTD/svg11.dtd">
<!-- Generated by graphviz version 2.38.0 (20140413.2041)
 -->
<!-- Title: createStartBootloaderCommand Pages: 1 -->
<svg width="382pt" height="142pt"
 viewBox="0.00 0.00 382.00 142.00" xmlns="http://www.w3.org/2000/svg" xmlns:xlink="http://www.w3.org/1999/xlink">
<g id="graph0" class="graph" transform="scale(1 1) rotate(0) translate(4 138)">
<title>createStartBootloaderCommand</title>
<polygon fill="white" stroke="none" points="-4,4 -4,-138 378,-138 378,4 -4,4"/>
<!-- Node465 -->
<g id="node1" class="node"><title>Node465</title>
<polygon fill="#bfbfbf" stroke="black" points="0,-57.5 0,-76.5 155,-76.5 155,-57.5 0,-57.5"/>
<text text-anchor="middle" x="77.5" y="-64.5" font-family="Helvetica,sans-Serif" font-size="10.00">createStartBootloaderCommand</text>
</g>
<!-- Node466 -->
<g id="node2" class="node"><title>Node466</title>
<g id="a_node2"><a xlink:href="protocol_8c.xhtml#a3de1158ac59e288305dd2a83c23c8bcf" target="_top" xlink:title="packet_start">
<polygon fill="white" stroke="black" points="191.5,-114.5 191.5,-133.5 262.5,-133.5 262.5,-114.5 191.5,-114.5"/>
<text text-anchor="middle" x="227" y="-121.5" font-family="Helvetica,sans-Serif" font-size="10.00">packet_start</text>
</a>
</g>
</g>
<!-- Node465&#45;&gt;Node466 -->
<g id="edge1" class="edge"><title>Node465&#45;&gt;Node466</title>
<path fill="none" stroke="midnightblue" d="M103.188,-76.5405C127.438,-85.9116 164.639,-100.288 191.744,-110.762"/>
<polygon fill="midnightblue" stroke="midnightblue" points="190.642,-114.088 201.231,-114.428 193.165,-107.559 190.642,-114.088"/>
</g>
<!-- Node467 -->
<g id="node3" class="node"><title>Node467</title>
<g id="a_node3"><a xlink:href="protocol_8c.xhtml#aefcdbf5141d1639e3d6aea7a577b09a5" target="_top" xlink:title="process_byte">
<polygon fill="white" stroke="red" points="299,-57.5 299,-76.5 374,-76.5 374,-57.5 299,-57.5"/>
<text text-anchor="middle" x="336.5" y="-64.5" font-family="Helvetica,sans-Serif" font-size="10.00">process_byte</text>
</a>
</g>
</g>
<!-- Node465&#45;&gt;Node467 -->
<g id="edge2" class="edge"><title>Node465&#45;&gt;Node467</title>
<path fill="none" stroke="midnightblue" d="M155.26,-67C198.659,-67 251.509,-67 288.726,-67"/>
<polygon fill="midnightblue" stroke="midnightblue" points="288.788,-70.5001 298.788,-67 288.788,-63.5001 288.788,-70.5001"/>
</g>
<!-- Node469 -->
<g id="node4" class="node"><title>Node469</title>
<g id="a_node4"><a xlink:href="protocol_8c.xhtml#a23880a12ef64f71a74302df29d16c2dd" target="_top" xlink:title="process_uint">
<polygon fill="white" stroke="black" points="191,-38.5 191,-57.5 263,-57.5 263,-38.5 191,-38.5"/>
<text text-anchor="middle" x="227" y="-45.5" font-family="Helvetica,sans-Serif" font-size="10.00">process_uint</text>
</a>
</g>
</g>
<!-- Node465&#45;&gt;Node469 -->
<g id="edge3" class="edge"><title>Node465&#45;&gt;Node469</title>
<path fill="none" stroke="midnightblue" d="M152.682,-57.4443C162.273,-56.2089 171.854,-54.9748 180.776,-53.8255"/>
<polygon fill="midnightblue" stroke="midnightblue" points="181.438,-57.2692 190.909,-52.5202 180.543,-50.3266 181.438,-57.2692"/>
</g>
<!-- Node470 -->
<g id="node5" class="node"><title>Node470</title>
<g id="a_node5"><a xlink:href="protocol_8c.xhtml#aa411de769b16d0e990fed401be284798" target="_top" xlink:title="packet_end">
<polygon fill="white" stroke="red" points="193.5,-0.5 193.5,-19.5 260.5,-19.5 260.5,-0.5 193.5,-0.5"/>
<text text-anchor="middle" x="227" y="-7.5" font-family="Helvetica,sans-Serif" font-size="10.00">packet_end</text>
</a>
</g>
</g>
<!-- Node465&#45;&gt;Node470 -->
<g id="edge5" class="edge"><title>Node465&#45;&gt;Node470</title>
<path fill="none" stroke="midnightblue" d="M103.188,-57.4595C127.438,-48.0884 164.639,-33.7124 191.744,-23.2377"/>
<polygon fill="midnightblue" stroke="midnightblue" points="193.165,-26.441 201.231,-19.5716 190.642,-19.9116 193.165,-26.441"/>
</g>
<!-- Node469&#45;&gt;Node467 -->
<g id="edge4" class="edge"><title>Node469&#45;&gt;Node467</title>
<path fill="none" stroke="midnightblue" d="M263.2,-54.2213C271.386,-55.6682 280.226,-57.2307 288.821,-58.7498"/>
<polygon fill="midnightblue" stroke="midnightblue" points="288.288,-62.2097 298.744,-60.5036 289.506,-55.3165 288.288,-62.2097"/>
</g>
</g>
</svg>
