<?xml version="1.0" encoding="UTF-8" standalone="no"?>
<!DOCTYPE svg PUBLIC "-//W3C//DTD SVG 1.1//EN"
 "http://www.w3.org/Graphics/SVG/1.1/DTD/svg11.dtd">
<!-- Generated by graphviz version 2.38.0 (20140413.2041)
 -->
<!-- Title: src/mcp/protocol_host_parser.c Pages: 1 -->
<svg width="188pt" height="95pt"
 viewBox="0.00 0.00 188.00 95.00" xmlns="http://www.w3.org/2000/svg" xmlns:xlink="http://www.w3.org/1999/xlink">
<g id="graph0" class="graph" transform="scale(1 1) rotate(0) translate(4 91)">
<title>src/mcp/protocol_host_parser.c</title>
<polygon fill="white" stroke="none" points="-4,4 -4,-91 184,-91 184,4 -4,4"/>
<!-- Node0 -->
<g id="node1" class="node"><title>Node0</title>
<polygon fill="#bfbfbf" stroke="black" points="50.5,-56.5 50.5,-86.5 163.5,-86.5 163.5,-56.5 50.5,-56.5"/>
<text text-anchor="start" x="58.5" y="-74.5" font-family="Helvetica,sans-Serif" font-size="10.00">src/mcp/protocol_host</text>
<text text-anchor="middle" x="107" y="-63.5" font-family="Helvetica,sans-Serif" font-size="10.00">_parser.c</text>
</g>
<!-- Node1 -->
<g id="node2" class="node"><title>Node1</title>
<g id="a_node2"><a xlink:href="protocol__host__parser_8h.xhtml" target="_top" xlink:title="protocol_host_parser.h">
<polygon fill="white" stroke="red" points="0,-0.5 0,-19.5 116,-19.5 116,-0.5 0,-0.5"/>
<text text-anchor="middle" x="58" y="-7.5" font-family="Helvetica,sans-Serif" font-size="10.00">protocol_host_parser.h</text>
</a>
</g>
</g>
<!-- Node0&#45;&gt;Node1 -->
<g id="edge1" class="edge"><title>Node0&#45;&gt;Node1</title>
<path fill="none" stroke="midnightblue" d="M95.3877,-56.3993C88.2674,-47.7533 79.1169,-36.642 71.6508,-27.576"/>
<polygon fill="midnightblue" stroke="midnightblue" points="74.1888,-25.1521 65.1299,-19.6578 68.7853,-29.6021 74.1888,-25.1521"/>
</g>
<!-- Node7 -->
<g id="node3" class="node"><title>Node7</title>
<polygon fill="white" stroke="#bfbfbf" points="134,-0.5 134,-19.5 180,-19.5 180,-0.5 134,-0.5"/>
<text text-anchor="middle" x="157" y="-7.5" font-family="Helvetica,sans-Serif" font-size="10.00">stdio.h</text>
</g>
<!-- Node0&#45;&gt;Node7 -->
<g id="edge2" class="edge"><title>Node0&#45;&gt;Node7</title>
<path fill="none" stroke="midnightblue" d="M118.849,-56.3993C126.115,-47.7533 135.452,-36.642 143.071,-27.576"/>
<polygon fill="midnightblue" stroke="midnightblue" points="145.971,-29.5653 149.725,-19.6578 140.612,-25.0619 145.971,-29.5653"/>
</g>
</g>
</svg>
