<?xml version="1.0" encoding="UTF-8" standalone="no"?>
<!DOCTYPE svg PUBLIC "-//W3C//DTD SVG 1.1//EN"
 "http://www.w3.org/Graphics/SVG/1.1/DTD/svg11.dtd">
<!-- Generated by graphviz version 2.38.0 (20140413.2041)
 -->
<!-- Title: getInstanceSize Pages: 1 -->
<svg width="256pt" height="66pt"
 viewBox="0.00 0.00 256.00 66.00" xmlns="http://www.w3.org/2000/svg" xmlns:xlink="http://www.w3.org/1999/xlink">
<g id="graph0" class="graph" transform="scale(1 1) rotate(0) translate(4 62)">
<title>getInstanceSize</title>
<polygon fill="white" stroke="none" points="-4,4 -4,-62 252,-62 252,4 -4,4"/>
<!-- Node638 -->
<g id="node1" class="node"><title>Node638</title>
<polygon fill="#bfbfbf" stroke="black" points="0,-19.5 0,-38.5 86,-38.5 86,-19.5 0,-19.5"/>
<text text-anchor="middle" x="43" y="-26.5" font-family="Helvetica,sans-Serif" font-size="10.00">getInstanceSize</text>
</g>
<!-- Node639 -->
<g id="node2" class="node"><title>Node639</title>
<g id="a_node2"><a xlink:href="mcp__wrapper_8c.xhtml#a8efb91e9c3d5560175665b4d761dc3c1" target="_top" xlink:title="mcpw_get_instance_size">
<polygon fill="white" stroke="red" points="122,-38.5 122,-57.5 248,-57.5 248,-38.5 122,-38.5"/>
<text text-anchor="middle" x="185" y="-45.5" font-family="Helvetica,sans-Serif" font-size="10.00">mcpw_get_instance_size</text>
</a>
</g>
</g>
<!-- Node638&#45;&gt;Node639 -->
<g id="edge1" class="edge"><title>Node638&#45;&gt;Node639</title>
<path fill="none" stroke="midnightblue" d="M96.0382,-36.0623C104.444,-37.2031 113.22,-38.3942 121.836,-39.5635"/>
<polygon fill="midnightblue" stroke="midnightblue" points="96.3845,-32.5773 86.0046,-34.7006 95.4431,-39.5137 96.3845,-32.5773"/>
</g>
<!-- Node649 -->
<g id="node3" class="node"><title>Node649</title>
<g id="a_node3"><a xlink:href="mcp__wrapper_8c.xhtml#a084d5ccbec6eb410307e89841bd01dde" target="_top" xlink:title="mcpw_init">
<polygon fill="white" stroke="red" points="155,-0.5 155,-19.5 215,-19.5 215,-0.5 155,-0.5"/>
<text text-anchor="middle" x="185" y="-7.5" font-family="Helvetica,sans-Serif" font-size="10.00">mcpw_init</text>
</a>
</g>
</g>
<!-- Node638&#45;&gt;Node649 -->
<g id="edge2" class="edge"><title>Node638&#45;&gt;Node649</title>
<path fill="none" stroke="midnightblue" d="M96.1649,-21.9205C116.023,-19.2255 137.932,-16.2521 154.902,-13.9491"/>
<polygon fill="midnightblue" stroke="midnightblue" points="95.4431,-18.4863 86.0046,-23.2994 96.3845,-25.4227 95.4431,-18.4863"/>
</g>
</g>
</svg>
