<?xml version="1.0" encoding="UTF-8" standalone="no"?>
<!DOCTYPE svg PUBLIC "-//W3C//DTD SVG 1.1//EN"
 "http://www.w3.org/Graphics/SVG/1.1/DTD/svg11.dtd">
<!-- Generated by graphviz version 2.38.0 (20140413.2041)
 -->
<!-- Title: createX4DriverSetPulsesPerStepCommand Pages: 1 -->
<svg width="364pt" height="142pt"
 viewBox="0.00 0.00 364.00 142.00" xmlns="http://www.w3.org/2000/svg" xmlns:xlink="http://www.w3.org/1999/xlink">
<g id="graph0" class="graph" transform="scale(1 1) rotate(0) translate(4 138)">
<title>createX4DriverSetPulsesPerStepCommand</title>
<polygon fill="white" stroke="none" points="-4,4 -4,-138 360,-138 360,4 -4,4"/>
<!-- Node591 -->
<g id="node1" class="node"><title>Node591</title>
<polygon fill="#bfbfbf" stroke="black" points="0,-52 0,-82 138,-82 138,-52 0,-52"/>
<text text-anchor="start" x="8" y="-70" font-family="Helvetica,sans-Serif" font-size="10.00">createX4DriverSetPulsesPer</text>
<text text-anchor="middle" x="69" y="-59" font-family="Helvetica,sans-Serif" font-size="10.00">StepCommand</text>
</g>
<!-- Node592 -->
<g id="node2" class="node"><title>Node592</title>
<g id="a_node2"><a xlink:href="protocol_8c.xhtml#a3de1158ac59e288305dd2a83c23c8bcf" target="_top" xlink:title="packet_start">
<polygon fill="white" stroke="black" points="174,-114.5 174,-133.5 245,-133.5 245,-114.5 174,-114.5"/>
<text text-anchor="middle" x="209.5" y="-121.5" font-family="Helvetica,sans-Serif" font-size="10.00">packet_start</text>
</a>
</g>
</g>
<!-- Node591&#45;&gt;Node592 -->
<g id="edge1" class="edge"><title>Node591&#45;&gt;Node592</title>
<path fill="none" stroke="midnightblue" d="M106.752,-82.1253C128.198,-90.9517 155.023,-101.992 175.745,-110.52"/>
<polygon fill="midnightblue" stroke="midnightblue" points="174.505,-113.794 185.085,-114.363 177.17,-107.321 174.505,-113.794"/>
</g>
<!-- Node593 -->
<g id="node3" class="node"><title>Node593</title>
<g id="a_node3"><a xlink:href="protocol_8c.xhtml#aefcdbf5141d1639e3d6aea7a577b09a5" target="_top" xlink:title="process_byte">
<polygon fill="white" stroke="red" points="281,-57.5 281,-76.5 356,-76.5 356,-57.5 281,-57.5"/>
<text text-anchor="middle" x="318.5" y="-64.5" font-family="Helvetica,sans-Serif" font-size="10.00">process_byte</text>
</a>
</g>
</g>
<!-- Node591&#45;&gt;Node593 -->
<g id="edge2" class="edge"><title>Node591&#45;&gt;Node593</title>
<path fill="none" stroke="midnightblue" d="M138.286,-67C180.399,-67 233.318,-67 270.702,-67"/>
<polygon fill="midnightblue" stroke="midnightblue" points="270.812,-70.5001 280.812,-67 270.812,-63.5001 270.812,-70.5001"/>
</g>
<!-- Node595 -->
<g id="node4" class="node"><title>Node595</title>
<g id="a_node4"><a xlink:href="protocol_8c.xhtml#a6ea2f891064cb69b0c705c1dd034b909" target="_top" xlink:title="process_int">
<polygon fill="white" stroke="black" points="176,-38.5 176,-57.5 243,-57.5 243,-38.5 176,-38.5"/>
<text text-anchor="middle" x="209.5" y="-45.5" font-family="Helvetica,sans-Serif" font-size="10.00">process_int</text>
</a>
</g>
</g>
<!-- Node591&#45;&gt;Node595 -->
<g id="edge3" class="edge"><title>Node591&#45;&gt;Node595</title>
<path fill="none" stroke="midnightblue" d="M138.033,-57.667C147.473,-56.3719 156.944,-55.0726 165.743,-53.8656"/>
<polygon fill="midnightblue" stroke="midnightblue" points="166.29,-57.3234 175.721,-52.4967 165.338,-50.3884 166.29,-57.3234"/>
</g>
<!-- Node596 -->
<g id="node5" class="node"><title>Node596</title>
<g id="a_node5"><a xlink:href="protocol_8c.xhtml#aa411de769b16d0e990fed401be284798" target="_top" xlink:title="packet_end">
<polygon fill="white" stroke="red" points="176,-0.5 176,-19.5 243,-19.5 243,-0.5 176,-0.5"/>
<text text-anchor="middle" x="209.5" y="-7.5" font-family="Helvetica,sans-Serif" font-size="10.00">packet_end</text>
</a>
</g>
</g>
<!-- Node591&#45;&gt;Node596 -->
<g id="edge5" class="edge"><title>Node591&#45;&gt;Node596</title>
<path fill="none" stroke="midnightblue" d="M106.752,-51.8747C128.198,-43.0483 155.023,-32.0085 175.745,-23.4805"/>
<polygon fill="midnightblue" stroke="midnightblue" points="177.17,-26.679 185.085,-19.6365 174.505,-20.2058 177.17,-26.679"/>
</g>
<!-- Node595&#45;&gt;Node593 -->
<g id="edge4" class="edge"><title>Node595&#45;&gt;Node593</title>
<path fill="none" stroke="midnightblue" d="M243.185,-53.8039C251.941,-55.3587 261.578,-57.0699 270.928,-58.7302"/>
<polygon fill="midnightblue" stroke="midnightblue" points="270.448,-62.1996 280.906,-60.502 271.672,-55.3074 270.448,-62.1996"/>
</g>
</g>
</svg>
