<?xml version="1.0" encoding="UTF-8" standalone="no"?>
<!DOCTYPE svg PUBLIC "-//W3C//DTD SVG 1.1//EN"
 "http://www.w3.org/Graphics/SVG/1.1/DTD/svg11.dtd">
<!-- Generated by graphviz version 2.38.0 (20140413.2041)
 -->
<!-- Title: createModuleResetCommand Pages: 1 -->
<svg width="264pt" height="104pt"
 viewBox="0.00 0.00 264.00 104.00" xmlns="http://www.w3.org/2000/svg" xmlns:xlink="http://www.w3.org/1999/xlink">
<g id="graph0" class="graph" transform="scale(1 1) rotate(0) translate(4 100)">
<title>createModuleResetCommand</title>
<polygon fill="white" stroke="none" points="-4,4 -4,-100 260,-100 260,4 -4,4"/>
<!-- Node257 -->
<g id="node1" class="node"><title>Node257</title>
<polygon fill="#bfbfbf" stroke="black" points="0,-38.5 0,-57.5 145,-57.5 145,-38.5 0,-38.5"/>
<text text-anchor="middle" x="72.5" y="-45.5" font-family="Helvetica,sans-Serif" font-size="10.00">createModuleResetCommand</text>
</g>
<!-- Node258 -->
<g id="node2" class="node"><title>Node258</title>
<g id="a_node2"><a xlink:href="protocol_8c.xhtml#a3de1158ac59e288305dd2a83c23c8bcf" target="_top" xlink:title="packet_start">
<polygon fill="white" stroke="black" points="183,-76.5 183,-95.5 254,-95.5 254,-76.5 183,-76.5"/>
<text text-anchor="middle" x="218.5" y="-83.5" font-family="Helvetica,sans-Serif" font-size="10.00">packet_start</text>
</a>
</g>
</g>
<!-- Node257&#45;&gt;Node258 -->
<g id="edge1" class="edge"><title>Node257&#45;&gt;Node258</title>
<path fill="none" stroke="midnightblue" d="M109.837,-57.589C128.939,-62.6298 152.522,-68.8529 172.742,-74.1888"/>
<polygon fill="midnightblue" stroke="midnightblue" points="172.103,-77.6399 182.665,-76.8073 173.889,-70.8716 172.103,-77.6399"/>
</g>
<!-- Node259 -->
<g id="node3" class="node"><title>Node259</title>
<g id="a_node3"><a xlink:href="protocol_8c.xhtml#aefcdbf5141d1639e3d6aea7a577b09a5" target="_top" xlink:title="process_byte">
<polygon fill="white" stroke="red" points="181,-38.5 181,-57.5 256,-57.5 256,-38.5 181,-38.5"/>
<text text-anchor="middle" x="218.5" y="-45.5" font-family="Helvetica,sans-Serif" font-size="10.00">process_byte</text>
</a>
</g>
</g>
<!-- Node257&#45;&gt;Node259 -->
<g id="edge2" class="edge"><title>Node257&#45;&gt;Node259</title>
<path fill="none" stroke="midnightblue" d="M145.078,-48C153.813,-48 162.556,-48 170.794,-48"/>
<polygon fill="midnightblue" stroke="midnightblue" points="170.918,-51.5001 180.918,-48 170.918,-44.5001 170.918,-51.5001"/>
</g>
<!-- Node261 -->
<g id="node4" class="node"><title>Node261</title>
<g id="a_node4"><a xlink:href="protocol_8c.xhtml#aa411de769b16d0e990fed401be284798" target="_top" xlink:title="packet_end">
<polygon fill="white" stroke="red" points="185,-0.5 185,-19.5 252,-19.5 252,-0.5 185,-0.5"/>
<text text-anchor="middle" x="218.5" y="-7.5" font-family="Helvetica,sans-Serif" font-size="10.00">packet_end</text>
</a>
</g>
</g>
<!-- Node257&#45;&gt;Node261 -->
<g id="edge3" class="edge"><title>Node257&#45;&gt;Node261</title>
<path fill="none" stroke="midnightblue" d="M109.837,-38.411C129.599,-33.196 154.157,-26.7156 174.825,-21.2614"/>
<polygon fill="midnightblue" stroke="midnightblue" points="175.846,-24.6121 184.621,-18.6763 174.059,-17.8437 175.846,-24.6121"/>
</g>
</g>
</svg>
