<?xml version="1.0" encoding="UTF-8" standalone="no"?>
<!DOCTYPE svg PUBLIC "-//W3C//DTD SVG 1.1//EN"
 "http://www.w3.org/Graphics/SVG/1.1/DTD/svg11.dtd">
<!-- Generated by graphviz version 2.38.0 (20140413.2041)
 -->
<!-- Title: createX4DriverSetXifRegisterCommand Pages: 1 -->
<svg width="365pt" height="142pt"
 viewBox="0.00 0.00 365.00 142.00" xmlns="http://www.w3.org/2000/svg" xmlns:xlink="http://www.w3.org/1999/xlink">
<g id="graph0" class="graph" transform="scale(1 1) rotate(0) translate(4 138)">
<title>createX4DriverSetXifRegisterCommand</title>
<polygon fill="white" stroke="none" points="-4,4 -4,-138 361,-138 361,4 -4,4"/>
<!-- Node688 -->
<g id="node1" class="node"><title>Node688</title>
<polygon fill="#bfbfbf" stroke="black" points="0,-52 0,-82 139,-82 139,-52 0,-52"/>
<text text-anchor="start" x="8" y="-70" font-family="Helvetica,sans-Serif" font-size="10.00">createX4DriverSetXifRegister</text>
<text text-anchor="middle" x="69.5" y="-59" font-family="Helvetica,sans-Serif" font-size="10.00">Command</text>
</g>
<!-- Node689 -->
<g id="node2" class="node"><title>Node689</title>
<g id="a_node2"><a xlink:href="protocol_8c.xhtml#a3de1158ac59e288305dd2a83c23c8bcf" target="_top" xlink:title="packet_start">
<polygon fill="white" stroke="black" points="175,-114.5 175,-133.5 246,-133.5 246,-114.5 175,-114.5"/>
<text text-anchor="middle" x="210.5" y="-121.5" font-family="Helvetica,sans-Serif" font-size="10.00">packet_start</text>
</a>
</g>
</g>
<!-- Node688&#45;&gt;Node689 -->
<g id="edge1" class="edge"><title>Node688&#45;&gt;Node689</title>
<path fill="none" stroke="midnightblue" d="M107.385,-82.1253C128.909,-90.9517 155.83,-101.992 176.627,-110.52"/>
<polygon fill="midnightblue" stroke="midnightblue" points="175.42,-113.808 186,-114.363 178.076,-107.331 175.42,-113.808"/>
</g>
<!-- Node690 -->
<g id="node3" class="node"><title>Node690</title>
<g id="a_node3"><a xlink:href="protocol_8c.xhtml#aefcdbf5141d1639e3d6aea7a577b09a5" target="_top" xlink:title="process_byte">
<polygon fill="white" stroke="red" points="282,-57.5 282,-76.5 357,-76.5 357,-57.5 282,-57.5"/>
<text text-anchor="middle" x="319.5" y="-64.5" font-family="Helvetica,sans-Serif" font-size="10.00">process_byte</text>
</a>
</g>
</g>
<!-- Node688&#45;&gt;Node690 -->
<g id="edge2" class="edge"><title>Node688&#45;&gt;Node690</title>
<path fill="none" stroke="midnightblue" d="M139.252,-67C181.444,-67 234.362,-67 271.731,-67"/>
<polygon fill="midnightblue" stroke="midnightblue" points="271.837,-70.5001 281.837,-67 271.837,-63.5001 271.837,-70.5001"/>
</g>
<!-- Node692 -->
<g id="node4" class="node"><title>Node692</title>
<g id="a_node4"><a xlink:href="protocol_8c.xhtml#a6ea2f891064cb69b0c705c1dd034b909" target="_top" xlink:title="process_int">
<polygon fill="white" stroke="black" points="177,-38.5 177,-57.5 244,-57.5 244,-38.5 177,-38.5"/>
<text text-anchor="middle" x="210.5" y="-45.5" font-family="Helvetica,sans-Serif" font-size="10.00">process_int</text>
</a>
</g>
</g>
<!-- Node688&#45;&gt;Node692 -->
<g id="edge3" class="edge"><title>Node688&#45;&gt;Node692</title>
<path fill="none" stroke="midnightblue" d="M139.186,-57.6113C148.624,-56.3211 158.083,-55.0282 166.866,-53.8277"/>
<polygon fill="midnightblue" stroke="midnightblue" points="167.389,-57.2888 176.823,-52.4667 166.441,-50.3533 167.389,-57.2888"/>
</g>
<!-- Node693 -->
<g id="node5" class="node"><title>Node693</title>
<g id="a_node5"><a xlink:href="protocol_8c.xhtml#aa411de769b16d0e990fed401be284798" target="_top" xlink:title="packet_end">
<polygon fill="white" stroke="red" points="177,-0.5 177,-19.5 244,-19.5 244,-0.5 177,-0.5"/>
<text text-anchor="middle" x="210.5" y="-7.5" font-family="Helvetica,sans-Serif" font-size="10.00">packet_end</text>
</a>
</g>
</g>
<!-- Node688&#45;&gt;Node693 -->
<g id="edge5" class="edge"><title>Node688&#45;&gt;Node693</title>
<path fill="none" stroke="midnightblue" d="M107.385,-51.8747C128.909,-43.0483 155.83,-32.0085 176.627,-23.4805"/>
<polygon fill="midnightblue" stroke="midnightblue" points="178.076,-26.669 186,-19.6365 175.42,-20.1924 178.076,-26.669"/>
</g>
<!-- Node692&#45;&gt;Node690 -->
<g id="edge4" class="edge"><title>Node692&#45;&gt;Node690</title>
<path fill="none" stroke="midnightblue" d="M244.185,-53.8039C252.941,-55.3587 262.578,-57.0699 271.928,-58.7302"/>
<polygon fill="midnightblue" stroke="midnightblue" points="271.448,-62.1996 281.906,-60.502 272.672,-55.3074 271.448,-62.1996"/>
</g>
</g>
</svg>
