<?xml version="1.0" encoding="UTF-8" standalone="no"?>
<!DOCTYPE svg PUBLIC "-//W3C//DTD SVG 1.1//EN"
 "http://www.w3.org/Graphics/SVG/1.1/DTD/svg11.dtd">
<!-- Generated by graphviz version 2.38.0 (20140413.2041)
 -->
<!-- Title: createStoreNoiseMapCommand Pages: 1 -->
<svg width="274pt" height="104pt"
 viewBox="0.00 0.00 274.00 104.00" xmlns="http://www.w3.org/2000/svg" xmlns:xlink="http://www.w3.org/1999/xlink">
<g id="graph0" class="graph" transform="scale(1 1) rotate(0) translate(4 100)">
<title>createStoreNoiseMapCommand</title>
<polygon fill="white" stroke="none" points="-4,4 -4,-100 270,-100 270,4 -4,4"/>
<!-- Node476 -->
<g id="node1" class="node"><title>Node476</title>
<polygon fill="#bfbfbf" stroke="black" points="0,-38.5 0,-57.5 155,-57.5 155,-38.5 0,-38.5"/>
<text text-anchor="middle" x="77.5" y="-45.5" font-family="Helvetica,sans-Serif" font-size="10.00">createStoreNoiseMapCommand</text>
</g>
<!-- Node477 -->
<g id="node2" class="node"><title>Node477</title>
<g id="a_node2"><a xlink:href="protocol_8c.xhtml#a3de1158ac59e288305dd2a83c23c8bcf" target="_top" xlink:title="packet_start">
<polygon fill="white" stroke="black" points="193,-76.5 193,-95.5 264,-95.5 264,-76.5 193,-76.5"/>
<text text-anchor="middle" x="228.5" y="-83.5" font-family="Helvetica,sans-Serif" font-size="10.00">packet_start</text>
</a>
</g>
</g>
<!-- Node476&#45;&gt;Node477 -->
<g id="edge1" class="edge"><title>Node476&#45;&gt;Node477</title>
<path fill="none" stroke="midnightblue" d="M116.099,-57.589C136.491,-62.7897 161.818,-69.249 183.168,-74.6939"/>
<polygon fill="midnightblue" stroke="midnightblue" points="182.422,-78.1156 192.977,-77.1955 184.152,-71.3327 182.422,-78.1156"/>
</g>
<!-- Node478 -->
<g id="node3" class="node"><title>Node478</title>
<g id="a_node3"><a xlink:href="protocol_8c.xhtml#aefcdbf5141d1639e3d6aea7a577b09a5" target="_top" xlink:title="process_byte">
<polygon fill="white" stroke="red" points="191,-38.5 191,-57.5 266,-57.5 266,-38.5 191,-38.5"/>
<text text-anchor="middle" x="228.5" y="-45.5" font-family="Helvetica,sans-Serif" font-size="10.00">process_byte</text>
</a>
</g>
</g>
<!-- Node476&#45;&gt;Node478 -->
<g id="edge2" class="edge"><title>Node476&#45;&gt;Node478</title>
<path fill="none" stroke="midnightblue" d="M155.182,-48C163.906,-48 172.59,-48 180.755,-48"/>
<polygon fill="midnightblue" stroke="midnightblue" points="180.784,-51.5001 190.784,-48 180.784,-44.5001 180.784,-51.5001"/>
</g>
<!-- Node480 -->
<g id="node4" class="node"><title>Node480</title>
<g id="a_node4"><a xlink:href="protocol_8c.xhtml#aa411de769b16d0e990fed401be284798" target="_top" xlink:title="packet_end">
<polygon fill="white" stroke="red" points="195,-0.5 195,-19.5 262,-19.5 262,-0.5 195,-0.5"/>
<text text-anchor="middle" x="228.5" y="-7.5" font-family="Helvetica,sans-Serif" font-size="10.00">packet_end</text>
</a>
</g>
</g>
<!-- Node476&#45;&gt;Node480 -->
<g id="edge3" class="edge"><title>Node476&#45;&gt;Node480</title>
<path fill="none" stroke="midnightblue" d="M116.099,-38.411C137.087,-33.0584 163.302,-26.3728 185.028,-20.8318"/>
<polygon fill="midnightblue" stroke="midnightblue" points="186.149,-24.158 194.974,-18.2952 184.419,-17.3751 186.149,-24.158"/>
</g>
</g>
</svg>
