<?xml version="1.0" encoding="UTF-8" standalone="no"?>
<!DOCTYPE svg PUBLIC "-//W3C//DTD SVG 1.1//EN"
 "http://www.w3.org/Graphics/SVG/1.1/DTD/svg11.dtd">
<!-- Generated by graphviz version 2.38.0 (20140413.2041)
 -->
<!-- Title: parse_sleep_status Pages: 1 -->
<svg width="231pt" height="66pt"
 viewBox="0.00 0.00 231.00 66.00" xmlns="http://www.w3.org/2000/svg" xmlns:xlink="http://www.w3.org/1999/xlink">
<g id="graph0" class="graph" transform="scale(1 1) rotate(0) translate(4 62)">
<title>parse_sleep_status</title>
<polygon fill="white" stroke="none" points="-4,4 -4,-62 227,-62 227,4 -4,4"/>
<!-- Node284 -->
<g id="node1" class="node"><title>Node284</title>
<polygon fill="#bfbfbf" stroke="black" points="0,-19.5 0,-38.5 101,-38.5 101,-19.5 0,-19.5"/>
<text text-anchor="middle" x="50.5" y="-26.5" font-family="Helvetica,sans-Serif" font-size="10.00">parse_sleep_status</text>
</g>
<!-- Node285 -->
<g id="node2" class="node"><title>Node285</title>
<g id="a_node2"><a xlink:href="protocol__host__parser_8c.xhtml#a5a0a7a9de31b4864faafad10f803cacb" target="_top" xlink:title="bytes_to_uint32">
<polygon fill="white" stroke="black" points="137,-38.5 137,-57.5 223,-57.5 223,-38.5 137,-38.5"/>
<text text-anchor="middle" x="180" y="-45.5" font-family="Helvetica,sans-Serif" font-size="10.00">bytes_to_uint32</text>
</a>
</g>
</g>
<!-- Node284&#45;&gt;Node285 -->
<g id="edge1" class="edge"><title>Node284&#45;&gt;Node285</title>
<path fill="none" stroke="midnightblue" d="M101.16,-36.4003C109.511,-37.6448 118.202,-38.9399 126.62,-40.1943"/>
<polygon fill="midnightblue" stroke="midnightblue" points="126.304,-43.6858 136.71,-41.698 127.335,-36.7622 126.304,-43.6858"/>
</g>
<!-- Node286 -->
<g id="node3" class="node"><title>Node286</title>
<g id="a_node3"><a xlink:href="protocol__host__parser_8c.xhtml#a176b22189f4b6d4a57c9cedda02d06a5" target="_top" xlink:title="bytes_to_float">
<polygon fill="white" stroke="black" points="141.5,-0.5 141.5,-19.5 218.5,-19.5 218.5,-0.5 141.5,-0.5"/>
<text text-anchor="middle" x="180" y="-7.5" font-family="Helvetica,sans-Serif" font-size="10.00">bytes_to_float</text>
</a>
</g>
</g>
<!-- Node284&#45;&gt;Node286 -->
<g id="edge2" class="edge"><title>Node284&#45;&gt;Node286</title>
<path fill="none" stroke="midnightblue" d="M101.16,-21.5997C111.02,-20.1304 121.353,-18.5905 131.151,-17.1304"/>
<polygon fill="midnightblue" stroke="midnightblue" points="131.751,-20.5797 141.126,-15.644 130.719,-13.6562 131.751,-20.5797"/>
</g>
</g>
</svg>
