<?xml version="1.0" encoding="UTF-8" standalone="no"?>
<!DOCTYPE svg PUBLIC "-//W3C//DTD SVG 1.1//EN"
 "http://www.w3.org/Graphics/SVG/1.1/DTD/svg11.dtd">
<!-- Generated by graphviz version 2.38.0 (20140413.2041)
 -->
<!-- Title: src/mcp/protocol_host_parser.h Pages: 1 -->
<svg width="180pt" height="95pt"
 viewBox="0.00 0.00 180.00 95.00" xmlns="http://www.w3.org/2000/svg" xmlns:xlink="http://www.w3.org/1999/xlink">
<g id="graph0" class="graph" transform="scale(1 1) rotate(0) translate(4 91)">
<title>src/mcp/protocol_host_parser.h</title>
<polygon fill="white" stroke="none" points="-4,4 -4,-91 176,-91 176,4 -4,4"/>
<!-- Node0 -->
<g id="node1" class="node"><title>Node0</title>
<polygon fill="#bfbfbf" stroke="black" points="43,-56.5 43,-86.5 156,-86.5 156,-56.5 43,-56.5"/>
<text text-anchor="start" x="51" y="-74.5" font-family="Helvetica,sans-Serif" font-size="10.00">src/mcp/protocol_host</text>
<text text-anchor="middle" x="99.5" y="-63.5" font-family="Helvetica,sans-Serif" font-size="10.00">_parser.h</text>
</g>
<!-- Node1 -->
<g id="node2" class="node"><title>Node1</title>
<g id="a_node2"><a xlink:href="xtserial__definitions_8h.xhtml" target="_top" xlink:title="xtserial_definitions.h">
<polygon fill="white" stroke="red" points="0,-0.5 0,-19.5 105,-19.5 105,-0.5 0,-0.5"/>
<text text-anchor="middle" x="52.5" y="-7.5" font-family="Helvetica,sans-Serif" font-size="10.00">xtserial_definitions.h</text>
</a>
</g>
</g>
<!-- Node0&#45;&gt;Node1 -->
<g id="edge1" class="edge"><title>Node0&#45;&gt;Node1</title>
<path fill="none" stroke="midnightblue" d="M88.3617,-56.3993C81.532,-47.7533 72.755,-36.642 65.5936,-27.576"/>
<polygon fill="midnightblue" stroke="midnightblue" points="68.284,-25.3354 59.3389,-19.6578 62.791,-29.6745 68.284,-25.3354"/>
</g>
<!-- Node5 -->
<g id="node3" class="node"><title>Node5</title>
<polygon fill="white" stroke="#bfbfbf" points="123,-0.5 123,-19.5 172,-19.5 172,-0.5 123,-0.5"/>
<text text-anchor="middle" x="147.5" y="-7.5" font-family="Helvetica,sans-Serif" font-size="10.00">stdint.h</text>
</g>
<!-- Node0&#45;&gt;Node5 -->
<g id="edge2" class="edge"><title>Node0&#45;&gt;Node5</title>
<path fill="none" stroke="midnightblue" d="M110.875,-56.3993C117.85,-47.7533 126.814,-36.642 134.128,-27.576"/>
<polygon fill="midnightblue" stroke="midnightblue" points="136.961,-29.6385 140.516,-19.6578 131.513,-25.2433 136.961,-29.6385"/>
</g>
</g>
</svg>
