<?xml version="1.0" encoding="UTF-8" standalone="no"?>
<!DOCTYPE svg PUBLIC "-//W3C//DTD SVG 1.1//EN"
 "http://www.w3.org/Graphics/SVG/1.1/DTD/svg11.dtd">
<!-- Generated by graphviz version 2.38.0 (20140413.2041)
 -->
<!-- Title: createSetFloatCommand Pages: 1 -->
<svg width="354pt" height="180pt"
 viewBox="0.00 0.00 354.00 180.00" xmlns="http://www.w3.org/2000/svg" xmlns:xlink="http://www.w3.org/1999/xlink">
<g id="graph0" class="graph" transform="scale(1 1) rotate(0) translate(4 176)">
<title>createSetFloatCommand</title>
<polygon fill="white" stroke="none" points="-4,4 -4,-176 350,-176 350,4 -4,4"/>
<!-- Node340 -->
<g id="node1" class="node"><title>Node340</title>
<polygon fill="#bfbfbf" stroke="black" points="0,-76.5 0,-95.5 125,-95.5 125,-76.5 0,-76.5"/>
<text text-anchor="middle" x="62.5" y="-83.5" font-family="Helvetica,sans-Serif" font-size="10.00">createSetFloatCommand</text>
</g>
<!-- Node341 -->
<g id="node2" class="node"><title>Node341</title>
<g id="a_node2"><a xlink:href="protocol_8c.xhtml#a3de1158ac59e288305dd2a83c23c8bcf" target="_top" xlink:title="packet_start">
<polygon fill="white" stroke="black" points="162.5,-152.5 162.5,-171.5 233.5,-171.5 233.5,-152.5 162.5,-152.5"/>
<text text-anchor="middle" x="198" y="-159.5" font-family="Helvetica,sans-Serif" font-size="10.00">packet_start</text>
</a>
</g>
</g>
<!-- Node340&#45;&gt;Node341 -->
<g id="edge1" class="edge"><title>Node340&#45;&gt;Node341</title>
<path fill="none" stroke="midnightblue" d="M80.4079,-95.6255C103.379,-108.703 144.646,-132.196 171.418,-147.437"/>
<polygon fill="midnightblue" stroke="midnightblue" points="169.807,-150.547 180.229,-152.453 173.271,-144.464 169.807,-150.547"/>
</g>
<!-- Node342 -->
<g id="node3" class="node"><title>Node342</title>
<g id="a_node3"><a xlink:href="protocol_8c.xhtml#aefcdbf5141d1639e3d6aea7a577b09a5" target="_top" xlink:title="process_byte">
<polygon fill="white" stroke="red" points="271,-76.5 271,-95.5 346,-95.5 346,-76.5 271,-76.5"/>
<text text-anchor="middle" x="308.5" y="-83.5" font-family="Helvetica,sans-Serif" font-size="10.00">process_byte</text>
</a>
</g>
</g>
<!-- Node340&#45;&gt;Node342 -->
<g id="edge2" class="edge"><title>Node340&#45;&gt;Node342</title>
<path fill="none" stroke="midnightblue" d="M103.094,-95.5104C120.709,-99.2755 141.774,-103.144 161,-105 193.737,-108.16 202.381,-109.203 235,-105 245.953,-103.589 257.613,-101.025 268.306,-98.2274"/>
<polygon fill="midnightblue" stroke="midnightblue" points="269.494,-101.531 278.208,-95.5041 267.638,-94.7812 269.494,-101.531"/>
</g>
<!-- Node344 -->
<g id="node4" class="node"><title>Node344</title>
<g id="a_node4"><a xlink:href="protocol_8c.xhtml#a6ea2f891064cb69b0c705c1dd034b909" target="_top" xlink:title="process_int">
<polygon fill="white" stroke="black" points="164.5,-76.5 164.5,-95.5 231.5,-95.5 231.5,-76.5 164.5,-76.5"/>
<text text-anchor="middle" x="198" y="-83.5" font-family="Helvetica,sans-Serif" font-size="10.00">process_int</text>
</a>
</g>
</g>
<!-- Node340&#45;&gt;Node344 -->
<g id="edge3" class="edge"><title>Node340&#45;&gt;Node344</title>
<path fill="none" stroke="midnightblue" d="M125.17,-86C134.998,-86 144.974,-86 154.239,-86"/>
<polygon fill="midnightblue" stroke="midnightblue" points="154.352,-89.5001 164.352,-86 154.352,-82.5001 154.352,-89.5001"/>
</g>
<!-- Node345 -->
<g id="node5" class="node"><title>Node345</title>
<g id="a_node5"><a xlink:href="protocol_8c.xhtml#a4b4523eb440f31227edb38e88a9d0a8b" target="_top" xlink:title="process_float">
<polygon fill="white" stroke="black" points="161,-38.5 161,-57.5 235,-57.5 235,-38.5 161,-38.5"/>
<text text-anchor="middle" x="198" y="-45.5" font-family="Helvetica,sans-Serif" font-size="10.00">process_float</text>
</a>
</g>
</g>
<!-- Node340&#45;&gt;Node345 -->
<g id="edge5" class="edge"><title>Node340&#45;&gt;Node345</title>
<path fill="none" stroke="midnightblue" d="M97.1877,-76.411C114.263,-71.5506 135.2,-65.5909 153.482,-60.3873"/>
<polygon fill="midnightblue" stroke="midnightblue" points="154.663,-63.69 163.323,-57.5859 152.747,-56.9574 154.663,-63.69"/>
</g>
<!-- Node346 -->
<g id="node6" class="node"><title>Node346</title>
<g id="a_node6"><a xlink:href="protocol_8c.xhtml#aa411de769b16d0e990fed401be284798" target="_top" xlink:title="packet_end">
<polygon fill="white" stroke="red" points="164.5,-0.5 164.5,-19.5 231.5,-19.5 231.5,-0.5 164.5,-0.5"/>
<text text-anchor="middle" x="198" y="-7.5" font-family="Helvetica,sans-Serif" font-size="10.00">packet_end</text>
</a>
</g>
</g>
<!-- Node340&#45;&gt;Node346 -->
<g id="edge7" class="edge"><title>Node340&#45;&gt;Node346</title>
<path fill="none" stroke="midnightblue" d="M79.5931,-76.3031C98.8231,-64.7834 132.037,-45.0992 161,-29 163.753,-27.47 166.638,-25.8969 169.526,-24.3421"/>
<polygon fill="midnightblue" stroke="midnightblue" points="171.419,-27.2997 178.603,-19.513 168.131,-21.1198 171.419,-27.2997"/>
</g>
<!-- Node344&#45;&gt;Node342 -->
<g id="edge4" class="edge"><title>Node344&#45;&gt;Node342</title>
<path fill="none" stroke="midnightblue" d="M231.554,-86C240.726,-86 250.89,-86 260.72,-86"/>
<polygon fill="midnightblue" stroke="midnightblue" points="260.788,-89.5001 270.788,-86 260.788,-82.5001 260.788,-89.5001"/>
</g>
<!-- Node345&#45;&gt;Node342 -->
<g id="edge6" class="edge"><title>Node345&#45;&gt;Node342</title>
<path fill="none" stroke="midnightblue" d="M226.379,-57.589C239.743,-62.2694 256.017,-67.9692 270.472,-73.0315"/>
<polygon fill="midnightblue" stroke="midnightblue" points="269.535,-76.4118 280.13,-76.4141 271.849,-69.8053 269.535,-76.4118"/>
</g>
</g>
</svg>
