<?xml version="1.0" encoding="UTF-8" standalone="no"?>
<!DOCTYPE svg PUBLIC "-//W3C//DTD SVG 1.1//EN"
 "http://www.w3.org/Graphics/SVG/1.1/DTD/svg11.dtd">
<!-- Generated by graphviz version 2.38.0 (20140413.2041)
 -->
<!-- Title: isSpecialByte Pages: 1 -->
<svg width="213pt" height="104pt"
 viewBox="0.00 0.00 213.00 104.00" xmlns="http://www.w3.org/2000/svg" xmlns:xlink="http://www.w3.org/1999/xlink">
<g id="graph0" class="graph" transform="scale(1 1) rotate(0) translate(4 100)">
<title>isSpecialByte</title>
<polygon fill="white" stroke="none" points="-4,4 -4,-100 209,-100 209,4 -4,4"/>
<!-- Node1 -->
<g id="node1" class="node"><title>Node1</title>
<polygon fill="#bfbfbf" stroke="black" points="0,-38.5 0,-57.5 77,-57.5 77,-38.5 0,-38.5"/>
<text text-anchor="middle" x="38.5" y="-45.5" font-family="Helvetica,sans-Serif" font-size="10.00">isSpecialByte</text>
</g>
<!-- Node2 -->
<g id="node2" class="node"><title>Node2</title>
<g id="a_node2"><a xlink:href="protocol__helpers_8h.xhtml#aefcdbf5141d1639e3d6aea7a577b09a5" target="_top" xlink:title="process_byte">
<polygon fill="white" stroke="red" points="121.5,-76.5 121.5,-95.5 196.5,-95.5 196.5,-76.5 121.5,-76.5"/>
<text text-anchor="middle" x="159" y="-83.5" font-family="Helvetica,sans-Serif" font-size="10.00">process_byte</text>
</a>
</g>
</g>
<!-- Node1&#45;&gt;Node2 -->
<g id="edge1" class="edge"><title>Node1&#45;&gt;Node2</title>
<path fill="none" stroke="midnightblue" d="M79.0429,-60.6804C95.0542,-65.8148 113.232,-71.6441 128.107,-76.4141"/>
<polygon fill="midnightblue" stroke="midnightblue" points="79.9937,-57.3098 69.4026,-57.589 77.8562,-63.9755 79.9937,-57.3098"/>
</g>
<!-- Node116 -->
<g id="node3" class="node"><title>Node116</title>
<g id="a_node3"><a xlink:href="protocol__helpers_8h.xhtml#aa411de769b16d0e990fed401be284798" target="_top" xlink:title="packet_end">
<polygon fill="white" stroke="red" points="125.5,-38.5 125.5,-57.5 192.5,-57.5 192.5,-38.5 125.5,-38.5"/>
<text text-anchor="middle" x="159" y="-45.5" font-family="Helvetica,sans-Serif" font-size="10.00">packet_end</text>
</a>
</g>
</g>
<!-- Node1&#45;&gt;Node116 -->
<g id="edge2" class="edge"><title>Node1&#45;&gt;Node116</title>
<path fill="none" stroke="midnightblue" d="M87.3448,-48C100.1,-48 113.588,-48 125.323,-48"/>
<polygon fill="midnightblue" stroke="midnightblue" points="87.32,-44.5001 77.3199,-48 87.3199,-51.5001 87.32,-44.5001"/>
</g>
<!-- Node117 -->
<g id="node4" class="node"><title>Node117</title>
<g id="a_node4"><a xlink:href="protocol_8c.xhtml#a11685f74dabb852e8db8e65d62025fa2" target="_top" xlink:title="handleSingleByte">
<polygon fill="white" stroke="red" points="113,-0.5 113,-19.5 205,-19.5 205,-0.5 113,-0.5"/>
<text text-anchor="middle" x="159" y="-7.5" font-family="Helvetica,sans-Serif" font-size="10.00">handleSingleByte</text>
</a>
</g>
</g>
<!-- Node1&#45;&gt;Node117 -->
<g id="edge3" class="edge"><title>Node1&#45;&gt;Node117</title>
<path fill="none" stroke="midnightblue" d="M79.0429,-35.3196C95.0542,-30.1852 113.232,-24.3559 128.107,-19.5859"/>
<polygon fill="midnightblue" stroke="midnightblue" points="77.8562,-32.0245 69.4026,-38.411 79.9937,-38.6902 77.8562,-32.0245"/>
</g>
</g>
</svg>
