<?xml version="1.0" encoding="UTF-8" standalone="no"?>
<!DOCTYPE svg PUBLIC "-//W3C//DTD SVG 1.1//EN"
 "http://www.w3.org/Graphics/SVG/1.1/DTD/svg11.dtd">
<!-- Generated by graphviz version 2.38.0 (20140413.2041)
 -->
<!-- Title: createCommand Pages: 1 -->
<svg width="207pt" height="104pt"
 viewBox="0.00 0.00 207.00 104.00" xmlns="http://www.w3.org/2000/svg" xmlns:xlink="http://www.w3.org/1999/xlink">
<g id="graph0" class="graph" transform="scale(1 1) rotate(0) translate(4 100)">
<title>createCommand</title>
<polygon fill="white" stroke="none" points="-4,4 -4,-100 203,-100 203,4 -4,4"/>
<!-- Node43 -->
<g id="node1" class="node"><title>Node43</title>
<polygon fill="#bfbfbf" stroke="black" points="0,-38.5 0,-57.5 88,-57.5 88,-38.5 0,-38.5"/>
<text text-anchor="middle" x="44" y="-45.5" font-family="Helvetica,sans-Serif" font-size="10.00">createCommand</text>
</g>
<!-- Node44 -->
<g id="node2" class="node"><title>Node44</title>
<g id="a_node2"><a xlink:href="protocol_8c.xhtml#a3de1158ac59e288305dd2a83c23c8bcf" target="_top" xlink:title="packet_start">
<polygon fill="white" stroke="black" points="126,-76.5 126,-95.5 197,-95.5 197,-76.5 126,-76.5"/>
<text text-anchor="middle" x="161.5" y="-83.5" font-family="Helvetica,sans-Serif" font-size="10.00">packet_start</text>
</a>
</g>
</g>
<!-- Node43&#45;&gt;Node44 -->
<g id="edge1" class="edge"><title>Node43&#45;&gt;Node44</title>
<path fill="none" stroke="midnightblue" d="M74.1455,-57.589C88.5083,-62.3144 106.029,-68.0789 121.526,-73.1774"/>
<polygon fill="midnightblue" stroke="midnightblue" points="120.771,-76.6134 131.364,-76.4141 122.959,-69.9641 120.771,-76.6134"/>
</g>
<!-- Node45 -->
<g id="node3" class="node"><title>Node45</title>
<g id="a_node3"><a xlink:href="protocol_8c.xhtml#aefcdbf5141d1639e3d6aea7a577b09a5" target="_top" xlink:title="process_byte">
<polygon fill="white" stroke="red" points="124,-38.5 124,-57.5 199,-57.5 199,-38.5 124,-38.5"/>
<text text-anchor="middle" x="161.5" y="-45.5" font-family="Helvetica,sans-Serif" font-size="10.00">process_byte</text>
</a>
</g>
</g>
<!-- Node43&#45;&gt;Node45 -->
<g id="edge2" class="edge"><title>Node43&#45;&gt;Node45</title>
<path fill="none" stroke="midnightblue" d="M88.0079,-48C96.3979,-48 105.233,-48 113.737,-48"/>
<polygon fill="midnightblue" stroke="midnightblue" points="113.896,-51.5001 123.896,-48 113.896,-44.5001 113.896,-51.5001"/>
</g>
<!-- Node47 -->
<g id="node4" class="node"><title>Node47</title>
<g id="a_node4"><a xlink:href="protocol_8c.xhtml#aa411de769b16d0e990fed401be284798" target="_top" xlink:title="packet_end">
<polygon fill="white" stroke="red" points="128,-0.5 128,-19.5 195,-19.5 195,-0.5 128,-0.5"/>
<text text-anchor="middle" x="161.5" y="-7.5" font-family="Helvetica,sans-Serif" font-size="10.00">packet_end</text>
</a>
</g>
</g>
<!-- Node43&#45;&gt;Node47 -->
<g id="edge3" class="edge"><title>Node43&#45;&gt;Node47</title>
<path fill="none" stroke="midnightblue" d="M74.1455,-38.411C88.5083,-33.6856 106.029,-27.9211 121.526,-22.8226"/>
<polygon fill="midnightblue" stroke="midnightblue" points="122.959,-26.0359 131.364,-19.5859 120.771,-19.3866 122.959,-26.0359"/>
</g>
</g>
</svg>
