<?xml version="1.0" encoding="UTF-8" standalone="no"?>
<!DOCTYPE svg PUBLIC "-//W3C//DTD SVG 1.1//EN"
 "http://www.w3.org/Graphics/SVG/1.1/DTD/svg11.dtd">
<!-- Generated by graphviz version 2.38.0 (20140413.2041)
 -->
<!-- Title: createX4DriverSetTxCenterFrequencyCommand Pages: 1 -->
<svg width="358pt" height="142pt"
 viewBox="0.00 0.00 358.00 142.00" xmlns="http://www.w3.org/2000/svg" xmlns:xlink="http://www.w3.org/1999/xlink">
<g id="graph0" class="graph" transform="scale(1 1) rotate(0) translate(4 138)">
<title>createX4DriverSetTxCenterFrequencyCommand</title>
<polygon fill="white" stroke="none" points="-4,4 -4,-138 354,-138 354,4 -4,4"/>
<!-- Node606 -->
<g id="node1" class="node"><title>Node606</title>
<polygon fill="#bfbfbf" stroke="black" points="0,-52 0,-82 132,-82 132,-52 0,-52"/>
<text text-anchor="start" x="8" y="-70" font-family="Helvetica,sans-Serif" font-size="10.00">createX4DriverSetTxCenter</text>
<text text-anchor="middle" x="66" y="-59" font-family="Helvetica,sans-Serif" font-size="10.00">FrequencyCommand</text>
</g>
<!-- Node607 -->
<g id="node2" class="node"><title>Node607</title>
<g id="a_node2"><a xlink:href="protocol_8c.xhtml#a3de1158ac59e288305dd2a83c23c8bcf" target="_top" xlink:title="packet_start">
<polygon fill="white" stroke="black" points="168,-114.5 168,-133.5 239,-133.5 239,-114.5 168,-114.5"/>
<text text-anchor="middle" x="203.5" y="-121.5" font-family="Helvetica,sans-Serif" font-size="10.00">packet_start</text>
</a>
</g>
</g>
<!-- Node606&#45;&gt;Node607 -->
<g id="edge1" class="edge"><title>Node606&#45;&gt;Node607</title>
<path fill="none" stroke="midnightblue" d="M102.956,-82.1253C123.843,-90.9118 149.944,-101.892 170.179,-110.404"/>
<polygon fill="midnightblue" stroke="midnightblue" points="169.017,-113.712 179.592,-114.363 171.732,-107.26 169.017,-113.712"/>
</g>
<!-- Node608 -->
<g id="node3" class="node"><title>Node608</title>
<g id="a_node3"><a xlink:href="protocol_8c.xhtml#aefcdbf5141d1639e3d6aea7a577b09a5" target="_top" xlink:title="process_byte">
<polygon fill="white" stroke="red" points="275,-57.5 275,-76.5 350,-76.5 350,-57.5 275,-57.5"/>
<text text-anchor="middle" x="312.5" y="-64.5" font-family="Helvetica,sans-Serif" font-size="10.00">process_byte</text>
</a>
</g>
</g>
<!-- Node606&#45;&gt;Node608 -->
<g id="edge2" class="edge"><title>Node606&#45;&gt;Node608</title>
<path fill="none" stroke="midnightblue" d="M132.2,-67C173.966,-67 227.185,-67 264.759,-67"/>
<polygon fill="midnightblue" stroke="midnightblue" points="264.92,-70.5001 274.92,-67 264.92,-63.5001 264.92,-70.5001"/>
</g>
<!-- Node610 -->
<g id="node4" class="node"><title>Node610</title>
<g id="a_node4"><a xlink:href="protocol_8c.xhtml#a6ea2f891064cb69b0c705c1dd034b909" target="_top" xlink:title="process_int">
<polygon fill="white" stroke="black" points="170,-38.5 170,-57.5 237,-57.5 237,-38.5 170,-38.5"/>
<text text-anchor="middle" x="203.5" y="-45.5" font-family="Helvetica,sans-Serif" font-size="10.00">process_int</text>
</a>
</g>
</g>
<!-- Node606&#45;&gt;Node610 -->
<g id="edge3" class="edge"><title>Node606&#45;&gt;Node610</title>
<path fill="none" stroke="midnightblue" d="M132.369,-57.8339C141.708,-56.5244 151.107,-55.2063 159.856,-53.9795"/>
<polygon fill="midnightblue" stroke="midnightblue" points="160.369,-57.4421 169.786,-52.5873 159.396,-50.5099 160.369,-57.4421"/>
</g>
<!-- Node611 -->
<g id="node5" class="node"><title>Node611</title>
<g id="a_node5"><a xlink:href="protocol_8c.xhtml#aa411de769b16d0e990fed401be284798" target="_top" xlink:title="packet_end">
<polygon fill="white" stroke="red" points="170,-0.5 170,-19.5 237,-19.5 237,-0.5 170,-0.5"/>
<text text-anchor="middle" x="203.5" y="-7.5" font-family="Helvetica,sans-Serif" font-size="10.00">packet_end</text>
</a>
</g>
</g>
<!-- Node606&#45;&gt;Node611 -->
<g id="edge5" class="edge"><title>Node606&#45;&gt;Node611</title>
<path fill="none" stroke="midnightblue" d="M102.956,-51.8747C123.843,-43.0882 149.944,-32.1083 170.179,-23.5964"/>
<polygon fill="midnightblue" stroke="midnightblue" points="171.732,-26.7403 179.592,-19.6365 169.017,-20.2879 171.732,-26.7403"/>
</g>
<!-- Node610&#45;&gt;Node608 -->
<g id="edge4" class="edge"><title>Node610&#45;&gt;Node608</title>
<path fill="none" stroke="midnightblue" d="M237.185,-53.8039C245.941,-55.3587 255.578,-57.0699 264.928,-58.7302"/>
<polygon fill="midnightblue" stroke="midnightblue" points="264.448,-62.1996 274.906,-60.502 265.672,-55.3074 264.448,-62.1996"/>
</g>
</g>
</svg>
