<?xml version="1.0" encoding="UTF-8" standalone="no"?>
<!DOCTYPE svg PUBLIC "-//W3C//DTD SVG 1.1//EN"
 "http://www.w3.org/Graphics/SVG/1.1/DTD/svg11.dtd">
<!-- Generated by graphviz version 2.38.0 (20140413.2041)
 -->
<!-- Title: createX4DriverSetTxPowerCommand Pages: 1 -->
<svg width="357pt" height="142pt"
 viewBox="0.00 0.00 357.00 142.00" xmlns="http://www.w3.org/2000/svg" xmlns:xlink="http://www.w3.org/1999/xlink">
<g id="graph0" class="graph" transform="scale(1 1) rotate(0) translate(4 138)">
<title>createX4DriverSetTxPowerCommand</title>
<polygon fill="white" stroke="none" points="-4,4 -4,-138 353,-138 353,4 -4,4"/>
<!-- Node613 -->
<g id="node1" class="node"><title>Node613</title>
<polygon fill="#bfbfbf" stroke="black" points="0,-52 0,-82 131,-82 131,-52 0,-52"/>
<text text-anchor="start" x="8" y="-70" font-family="Helvetica,sans-Serif" font-size="10.00">createX4DriverSetTxPower</text>
<text text-anchor="middle" x="65.5" y="-59" font-family="Helvetica,sans-Serif" font-size="10.00">Command</text>
</g>
<!-- Node614 -->
<g id="node2" class="node"><title>Node614</title>
<g id="a_node2"><a xlink:href="protocol_8c.xhtml#a3de1158ac59e288305dd2a83c23c8bcf" target="_top" xlink:title="packet_start">
<polygon fill="white" stroke="black" points="167,-114.5 167,-133.5 238,-133.5 238,-114.5 167,-114.5"/>
<text text-anchor="middle" x="202.5" y="-121.5" font-family="Helvetica,sans-Serif" font-size="10.00">packet_start</text>
</a>
</g>
</g>
<!-- Node613&#45;&gt;Node614 -->
<g id="edge1" class="edge"><title>Node613&#45;&gt;Node614</title>
<path fill="none" stroke="midnightblue" d="M102.323,-82.1253C123.133,-90.9118 149.138,-101.892 169.298,-110.404"/>
<polygon fill="midnightblue" stroke="midnightblue" points="168.103,-113.698 178.677,-114.363 170.826,-107.249 168.103,-113.698"/>
</g>
<!-- Node615 -->
<g id="node3" class="node"><title>Node615</title>
<g id="a_node3"><a xlink:href="protocol_8c.xhtml#aefcdbf5141d1639e3d6aea7a577b09a5" target="_top" xlink:title="process_byte">
<polygon fill="white" stroke="red" points="274,-57.5 274,-76.5 349,-76.5 349,-57.5 274,-57.5"/>
<text text-anchor="middle" x="311.5" y="-64.5" font-family="Helvetica,sans-Serif" font-size="10.00">process_byte</text>
</a>
</g>
</g>
<!-- Node613&#45;&gt;Node615 -->
<g id="edge2" class="edge"><title>Node613&#45;&gt;Node615</title>
<path fill="none" stroke="midnightblue" d="M131.247,-67C172.93,-67 226.146,-67 263.733,-67"/>
<polygon fill="midnightblue" stroke="midnightblue" points="263.898,-70.5001 273.898,-67 263.898,-63.5001 263.898,-70.5001"/>
</g>
<!-- Node617 -->
<g id="node4" class="node"><title>Node617</title>
<g id="a_node4"><a xlink:href="protocol_8c.xhtml#a6ea2f891064cb69b0c705c1dd034b909" target="_top" xlink:title="process_int">
<polygon fill="white" stroke="black" points="169,-38.5 169,-57.5 236,-57.5 236,-38.5 169,-38.5"/>
<text text-anchor="middle" x="202.5" y="-45.5" font-family="Helvetica,sans-Serif" font-size="10.00">process_int</text>
</a>
</g>
</g>
<!-- Node613&#45;&gt;Node617 -->
<g id="edge3" class="edge"><title>Node613&#45;&gt;Node617</title>
<path fill="none" stroke="midnightblue" d="M131.232,-57.8896C140.571,-56.5753 149.98,-55.251 158.743,-54.0176"/>
<polygon fill="midnightblue" stroke="midnightblue" points="159.276,-57.4772 168.691,-52.6176 158.301,-50.5455 159.276,-57.4772"/>
</g>
<!-- Node618 -->
<g id="node5" class="node"><title>Node618</title>
<g id="a_node5"><a xlink:href="protocol_8c.xhtml#aa411de769b16d0e990fed401be284798" target="_top" xlink:title="packet_end">
<polygon fill="white" stroke="red" points="169,-0.5 169,-19.5 236,-19.5 236,-0.5 169,-0.5"/>
<text text-anchor="middle" x="202.5" y="-7.5" font-family="Helvetica,sans-Serif" font-size="10.00">packet_end</text>
</a>
</g>
</g>
<!-- Node613&#45;&gt;Node618 -->
<g id="edge5" class="edge"><title>Node613&#45;&gt;Node618</title>
<path fill="none" stroke="midnightblue" d="M102.323,-51.8747C123.133,-43.0882 149.138,-32.1083 169.298,-23.5964"/>
<polygon fill="midnightblue" stroke="midnightblue" points="170.826,-26.7507 178.677,-19.6365 168.103,-20.3019 170.826,-26.7507"/>
</g>
<!-- Node617&#45;&gt;Node615 -->
<g id="edge4" class="edge"><title>Node617&#45;&gt;Node615</title>
<path fill="none" stroke="midnightblue" d="M236.185,-53.8039C244.941,-55.3587 254.578,-57.0699 263.928,-58.7302"/>
<polygon fill="midnightblue" stroke="midnightblue" points="263.448,-62.1996 273.906,-60.502 264.672,-55.3074 263.448,-62.1996"/>
</g>
</g>
</svg>
