<?xml version="1.0" encoding="UTF-8" standalone="no"?>
<!DOCTYPE svg PUBLIC "-//W3C//DTD SVG 1.1//EN"
 "http://www.w3.org/Graphics/SVG/1.1/DTD/svg11.dtd">
<!-- Generated by graphviz version 2.38.0 (20140413.2041)
 -->
<!-- Title: prvCopyDataFromQueue Pages: 1 -->
<svg width="430pt" height="119pt"
 viewBox="0.00 0.00 430.00 119.24" xmlns="http://www.w3.org/2000/svg" xmlns:xlink="http://www.w3.org/1999/xlink">
<g id="graph0" class="graph" transform="scale(1 1) rotate(0) translate(4 115.242)">
<title>prvCopyDataFromQueue</title>
<polygon fill="white" stroke="none" points="-4,4 -4,-115.242 426,-115.242 426,4 -4,4"/>
<!-- Node1 -->
<g id="node1" class="node"><title>Node1</title>
<polygon fill="#bfbfbf" stroke="black" points="0,-57.5 0,-76.5 122,-76.5 122,-57.5 0,-57.5"/>
<text text-anchor="middle" x="61" y="-64.5" font-family="Helvetica,sans-Serif" font-size="10.00">prvCopyDataFromQueue</text>
</g>
<!-- Node2 -->
<g id="node2" class="node"><title>Node2</title>
<g id="a_node2"><a xlink:href="queue_8c.xhtml#a637daee588a12cec8db050f7ef3f7fa3" target="_top" xlink:title="xQueueCreateMutex">
<polygon fill="white" stroke="black" points="316,-76.5 316,-95.5 422,-95.5 422,-76.5 316,-76.5"/>
<text text-anchor="middle" x="369" y="-83.5" font-family="Helvetica,sans-Serif" font-size="10.00">xQueueCreateMutex</text>
</a>
</g>
</g>
<!-- Node1&#45;&gt;Node2 -->
<g id="edge1" class="edge"><title>Node1&#45;&gt;Node2</title>
<path fill="none" stroke="midnightblue" d="M89.2671,-80.9975C108.042,-89.8244 133.86,-100.396 158,-105 211.262,-115.158 226.084,-110.754 280,-105 297.407,-103.142 316.426,-99.2734 332.316,-95.5086"/>
<polygon fill="midnightblue" stroke="midnightblue" points="90.6635,-77.7851 80.1373,-76.5815 87.6155,-84.0867 90.6635,-77.7851"/>
</g>
<!-- Node3 -->
<g id="node3" class="node"><title>Node3</title>
<g id="a_node3"><a xlink:href="queue_8c.xhtml#a1ff8f61508bc9c0fa0abc44750fc1981" target="_top" xlink:title="xQueueGenericSend">
<polygon fill="white" stroke="black" points="165.5,-76.5 165.5,-95.5 272.5,-95.5 272.5,-76.5 165.5,-76.5"/>
<text text-anchor="middle" x="219" y="-83.5" font-family="Helvetica,sans-Serif" font-size="10.00">xQueueGenericSend</text>
</a>
</g>
</g>
<!-- Node1&#45;&gt;Node3 -->
<g id="edge2" class="edge"><title>Node1&#45;&gt;Node3</title>
<path fill="none" stroke="midnightblue" d="M132.432,-75.5782C143.541,-76.9312 154.856,-78.3094 165.466,-79.6016"/>
<polygon fill="midnightblue" stroke="midnightblue" points="132.664,-72.0807 122.314,-74.3459 131.817,-79.0293 132.664,-72.0807"/>
</g>
<!-- Node4 -->
<g id="node4" class="node"><title>Node4</title>
<g id="a_node4"><a xlink:href="queue_8c.xhtml#a0424dce690a6a65558f16cc229b767bf" target="_top" xlink:title="xQueueGenericReceive">
<polygon fill="white" stroke="black" points="160,-38.5 160,-57.5 278,-57.5 278,-38.5 160,-38.5"/>
<text text-anchor="middle" x="219" y="-45.5" font-family="Helvetica,sans-Serif" font-size="10.00">xQueueGenericReceive</text>
</a>
</g>
</g>
<!-- Node1&#45;&gt;Node4 -->
<g id="edge4" class="edge"><title>Node1&#45;&gt;Node4</title>
<path fill="none" stroke="midnightblue" d="M132.259,-58.4428C141.501,-57.3172 150.889,-56.1738 159.897,-55.0766"/>
<polygon fill="midnightblue" stroke="midnightblue" points="131.817,-54.9707 122.314,-59.6541 132.664,-61.9193 131.817,-54.9707"/>
</g>
<!-- Node5 -->
<g id="node5" class="node"><title>Node5</title>
<g id="a_node5"><a xlink:href="queue_8c.xhtml#a90c76e200be70a810387a0f7429d810a" target="_top" xlink:title="xQueueReceiveFromISR">
<polygon fill="white" stroke="black" points="158,-0.5 158,-19.5 280,-19.5 280,-0.5 158,-0.5"/>
<text text-anchor="middle" x="219" y="-7.5" font-family="Helvetica,sans-Serif" font-size="10.00">xQueueReceiveFromISR</text>
</a>
</g>
</g>
<!-- Node1&#45;&gt;Node5 -->
<g id="edge6" class="edge"><title>Node1&#45;&gt;Node5</title>
<path fill="none" stroke="midnightblue" d="M94.1594,-53.6162C112.703,-46.0639 136.527,-36.6391 158,-29 167.162,-25.7406 177.205,-22.451 186.41,-19.5462"/>
<polygon fill="midnightblue" stroke="midnightblue" points="92.6435,-50.4548 84.7175,-57.4855 95.2979,-56.9321 92.6435,-50.4548"/>
</g>
<!-- Node3&#45;&gt;Node2 -->
<g id="edge3" class="edge"><title>Node3&#45;&gt;Node2</title>
<path fill="none" stroke="midnightblue" d="M282.901,-86C293.788,-86 305.002,-86 315.573,-86"/>
<polygon fill="midnightblue" stroke="midnightblue" points="282.596,-82.5001 272.596,-86 282.596,-89.5001 282.596,-82.5001"/>
</g>
<!-- Node4&#45;&gt;Node2 -->
<g id="edge5" class="edge"><title>Node4&#45;&gt;Node2</title>
<path fill="none" stroke="midnightblue" d="M267.173,-60.1121C287.786,-65.4044 311.609,-71.5213 330.922,-76.4799"/>
<polygon fill="midnightblue" stroke="midnightblue" points="267.903,-56.6859 257.347,-57.589 266.162,-63.466 267.903,-56.6859"/>
</g>
</g>
</svg>
