<?xml version="1.0" encoding="UTF-8" standalone="no"?>
<!DOCTYPE svg PUBLIC "-//W3C//DTD SVG 1.1//EN"
 "http://www.w3.org/Graphics/SVG/1.1/DTD/svg11.dtd">
<!-- Generated by graphviz version 2.38.0 (20140413.2041)
 -->
<!-- Title: prvUnlockQueue Pages: 1 -->
<svg width="271pt" height="66pt"
 viewBox="0.00 0.00 271.00 66.00" xmlns="http://www.w3.org/2000/svg" xmlns:xlink="http://www.w3.org/1999/xlink">
<g id="graph0" class="graph" transform="scale(1 1) rotate(0) translate(4 62)">
<title>prvUnlockQueue</title>
<polygon fill="white" stroke="none" points="-4,4 -4,-62 267,-62 267,4 -4,4"/>
<!-- Node23 -->
<g id="node1" class="node"><title>Node23</title>
<polygon fill="#bfbfbf" stroke="black" points="0,-19.5 0,-38.5 87,-38.5 87,-19.5 0,-19.5"/>
<text text-anchor="middle" x="43.5" y="-26.5" font-family="Helvetica,sans-Serif" font-size="10.00">prvUnlockQueue</text>
</g>
<!-- Node24 -->
<g id="node2" class="node"><title>Node24</title>
<g id="a_node2"><a xlink:href="task_8h.xhtml#a0e7e66debaa8878d449d658a37d4b322" target="_top" xlink:title="xTaskRemoveFromEventList">
<polygon fill="white" stroke="red" points="123,-38.5 123,-57.5 263,-57.5 263,-38.5 123,-38.5"/>
<text text-anchor="middle" x="193" y="-45.5" font-family="Helvetica,sans-Serif" font-size="10.00">xTaskRemoveFromEventList</text>
</a>
</g>
</g>
<!-- Node23&#45;&gt;Node24 -->
<g id="edge1" class="edge"><title>Node23&#45;&gt;Node24</title>
<path fill="none" stroke="midnightblue" d="M87.1631,-34.4956C95.2613,-35.5387 103.972,-36.6607 112.786,-37.7962"/>
<polygon fill="midnightblue" stroke="midnightblue" points="112.391,-41.2741 122.756,-39.0805 113.285,-34.3315 112.391,-41.2741"/>
</g>
<!-- Node27 -->
<g id="node3" class="node"><title>Node27</title>
<g id="a_node3"><a xlink:href="task_8h.xhtml#a998c69e37431a3a32c637b31ff60089a" target="_top" xlink:title="vTaskMissedYield">
<polygon fill="white" stroke="black" points="145.5,-0.5 145.5,-19.5 240.5,-19.5 240.5,-0.5 145.5,-0.5"/>
<text text-anchor="middle" x="193" y="-7.5" font-family="Helvetica,sans-Serif" font-size="10.00">vTaskMissedYield</text>
</a>
</g>
</g>
<!-- Node23&#45;&gt;Node27 -->
<g id="edge2" class="edge"><title>Node23&#45;&gt;Node27</title>
<path fill="none" stroke="midnightblue" d="M87.1631,-23.5044C102.099,-21.5805 119.117,-19.3883 135.034,-17.338"/>
<polygon fill="midnightblue" stroke="midnightblue" points="135.831,-20.7644 145.302,-16.0154 134.936,-13.8217 135.831,-20.7644"/>
</g>
</g>
</svg>
