<?xml version="1.0" encoding="UTF-8" standalone="no"?>
<!DOCTYPE svg PUBLIC "-//W3C//DTD SVG 1.1//EN"
 "http://www.w3.org/Graphics/SVG/1.1/DTD/svg11.dtd">
<!-- Generated by graphviz version 2.38.0 (20140413.2041)
 -->
<!-- Title: xQueueReceiveFromISR Pages: 1 -->
<svg width="306pt" height="66pt"
 viewBox="0.00 0.00 306.00 66.00" xmlns="http://www.w3.org/2000/svg" xmlns:xlink="http://www.w3.org/1999/xlink">
<g id="graph0" class="graph" transform="scale(1 1) rotate(0) translate(4 62)">
<title>xQueueReceiveFromISR</title>
<polygon fill="white" stroke="none" points="-4,4 -4,-62 302,-62 302,4 -4,4"/>
<!-- Node170 -->
<g id="node1" class="node"><title>Node170</title>
<polygon fill="#bfbfbf" stroke="black" points="0,-19.5 0,-38.5 122,-38.5 122,-19.5 0,-19.5"/>
<text text-anchor="middle" x="61" y="-26.5" font-family="Helvetica,sans-Serif" font-size="10.00">xQueueReceiveFromISR</text>
</g>
<!-- Node171 -->
<g id="node2" class="node"><title>Node171</title>
<g id="a_node2"><a xlink:href="queue_8c.xhtml#a6fbe564255b2cdc870f581a2f1aadfbf" target="_top" xlink:title="prvCopyDataFromQueue">
<polygon fill="white" stroke="black" points="167,-38.5 167,-57.5 289,-57.5 289,-38.5 167,-38.5"/>
<text text-anchor="middle" x="228" y="-45.5" font-family="Helvetica,sans-Serif" font-size="10.00">prvCopyDataFromQueue</text>
</a>
</g>
</g>
<!-- Node170&#45;&gt;Node171 -->
<g id="edge1" class="edge"><title>Node170&#45;&gt;Node171</title>
<path fill="none" stroke="midnightblue" d="M122.036,-35.9132C133.296,-37.2098 145.16,-38.576 156.699,-39.9048"/>
<polygon fill="midnightblue" stroke="midnightblue" points="156.398,-43.3931 166.733,-41.0601 157.199,-36.4391 156.398,-43.3931"/>
</g>
<!-- Node172 -->
<g id="node3" class="node"><title>Node172</title>
<g id="a_node3"><a xlink:href="task_8h.xhtml#a0e7e66debaa8878d449d658a37d4b322" target="_top" xlink:title="xTaskRemoveFromEventList">
<polygon fill="white" stroke="red" points="158,-0.5 158,-19.5 298,-19.5 298,-0.5 158,-0.5"/>
<text text-anchor="middle" x="228" y="-7.5" font-family="Helvetica,sans-Serif" font-size="10.00">xTaskRemoveFromEventList</text>
</a>
</g>
</g>
<!-- Node170&#45;&gt;Node172 -->
<g id="edge2" class="edge"><title>Node170&#45;&gt;Node172</title>
<path fill="none" stroke="midnightblue" d="M122.036,-22.0868C130.38,-21.1259 139.057,-20.1268 147.687,-19.133"/>
<polygon fill="midnightblue" stroke="midnightblue" points="148.24,-22.5925 157.774,-17.9715 147.439,-15.6385 148.24,-22.5925"/>
</g>
</g>
</svg>
