<?xml version="1.0" encoding="UTF-8" standalone="no"?>
<!DOCTYPE svg PUBLIC "-//W3C//DTD SVG 1.1//EN"
 "http://www.w3.org/Graphics/SVG/1.1/DTD/svg11.dtd">
<!-- Generated by graphviz version 2.38.0 (20140413.2041)
 -->
<!-- Title: examples/atmel_samg55/src/ASF/thirdparty/freertos/freertos&#45;7.0.0/source/queue.c Pages: 1 -->
<svg width="453pt" height="106pt"
 viewBox="0.00 0.00 452.50 106.00" xmlns="http://www.w3.org/2000/svg" xmlns:xlink="http://www.w3.org/1999/xlink">
<g id="graph0" class="graph" transform="scale(1 1) rotate(0) translate(4 102)">
<title>examples/atmel_samg55/src/ASF/thirdparty/freertos/freertos&#45;7.0.0/source/queue.c</title>
<polygon fill="white" stroke="none" points="-4,4 -4,-102 448.5,-102 448.5,4 -4,4"/>
<!-- Node0 -->
<g id="node1" class="node"><title>Node0</title>
<polygon fill="#bfbfbf" stroke="black" points="113,-56.5 113,-97.5 259,-97.5 259,-56.5 113,-56.5"/>
<text text-anchor="start" x="121" y="-85.5" font-family="Helvetica,sans-Serif" font-size="10.00">examples/atmel_samg55</text>
<text text-anchor="start" x="121" y="-74.5" font-family="Helvetica,sans-Serif" font-size="10.00">/src/ASF/thirdparty/freertos</text>
<text text-anchor="middle" x="186" y="-63.5" font-family="Helvetica,sans-Serif" font-size="10.00">/freertos&#45;7.0.0/source/queue.c</text>
</g>
<!-- Node1 -->
<g id="node2" class="node"><title>Node1</title>
<polygon fill="white" stroke="#bfbfbf" points="0,-0.5 0,-19.5 48,-19.5 48,-0.5 0,-0.5"/>
<text text-anchor="middle" x="24" y="-7.5" font-family="Helvetica,sans-Serif" font-size="10.00">stdlib.h</text>
</g>
<!-- Node0&#45;&gt;Node1 -->
<g id="edge1" class="edge"><title>Node0&#45;&gt;Node1</title>
<path fill="none" stroke="midnightblue" d="M137.395,-56.4979C110.646,-45.7655 78.2554,-32.7691 54.9523,-23.4192"/>
<polygon fill="midnightblue" stroke="midnightblue" points="56.1488,-20.128 45.5647,-19.6525 53.5421,-26.6246 56.1488,-20.128"/>
</g>
<!-- Node2 -->
<g id="node3" class="node"><title>Node2</title>
<polygon fill="white" stroke="#bfbfbf" points="66.5,-0.5 66.5,-19.5 115.5,-19.5 115.5,-0.5 66.5,-0.5"/>
<text text-anchor="middle" x="91" y="-7.5" font-family="Helvetica,sans-Serif" font-size="10.00">string.h</text>
</g>
<!-- Node0&#45;&gt;Node2 -->
<g id="edge2" class="edge"><title>Node0&#45;&gt;Node2</title>
<path fill="none" stroke="midnightblue" d="M157.497,-56.4979C142.932,-46.5321 125.513,-34.6142 112.158,-25.4764"/>
<polygon fill="midnightblue" stroke="midnightblue" points="113.875,-22.4108 103.646,-19.6525 109.923,-28.188 113.875,-22.4108"/>
</g>
<!-- Node3 -->
<g id="node4" class="node"><title>Node3</title>
<g id="a_node4"><a xlink:href="_free_r_t_o_s_8h.xhtml" target="_top" xlink:title="include/FreeRTOS.h">
<polygon fill="white" stroke="red" points="134,-0.5 134,-19.5 238,-19.5 238,-0.5 134,-0.5"/>
<text text-anchor="middle" x="186" y="-7.5" font-family="Helvetica,sans-Serif" font-size="10.00">include/FreeRTOS.h</text>
</a>
</g>
</g>
<!-- Node0&#45;&gt;Node3 -->
<g id="edge3" class="edge"><title>Node0&#45;&gt;Node3</title>
<path fill="none" stroke="midnightblue" d="M186,-56.4979C186,-48.0653 186,-38.2351 186,-29.874"/>
<polygon fill="midnightblue" stroke="midnightblue" points="189.5,-29.6525 186,-19.6525 182.5,-29.6525 189.5,-29.6525"/>
</g>
<!-- Node10 -->
<g id="node5" class="node"><title>Node10</title>
<g id="a_node5"><a xlink:href="task_8h.xhtml" target="_top" xlink:title="include/task.h">
<polygon fill="white" stroke="red" points="256.5,-0.5 256.5,-19.5 333.5,-19.5 333.5,-0.5 256.5,-0.5"/>
<text text-anchor="middle" x="295" y="-7.5" font-family="Helvetica,sans-Serif" font-size="10.00">include/task.h</text>
</a>
</g>
</g>
<!-- Node0&#45;&gt;Node10 -->
<g id="edge4" class="edge"><title>Node0&#45;&gt;Node10</title>
<path fill="none" stroke="midnightblue" d="M218.704,-56.4979C235.737,-46.3405 256.171,-34.1551 271.603,-24.9523"/>
<polygon fill="midnightblue" stroke="midnightblue" points="273.694,-27.7804 280.49,-19.6525 270.109,-21.7682 273.694,-27.7804"/>
</g>
<!-- Node12 -->
<g id="node6" class="node"><title>Node12</title>
<g id="a_node6"><a xlink:href="croutine_8h.xhtml" target="_top" xlink:title="include/croutine.h">
<polygon fill="white" stroke="red" points="351.5,-0.5 351.5,-19.5 444.5,-19.5 444.5,-0.5 351.5,-0.5"/>
<text text-anchor="middle" x="398" y="-7.5" font-family="Helvetica,sans-Serif" font-size="10.00">include/croutine.h</text>
</a>
</g>
</g>
<!-- Node0&#45;&gt;Node12 -->
<g id="edge5" class="edge"><title>Node0&#45;&gt;Node12</title>
<path fill="none" stroke="midnightblue" d="M249.607,-56.4979C285.658,-45.4445 329.542,-31.9895 360.199,-22.59"/>
<polygon fill="midnightblue" stroke="midnightblue" points="361.523,-25.8447 370.058,-19.5671 359.471,-19.1522 361.523,-25.8447"/>
</g>
</g>
</svg>
