<?xml version="1.0" encoding="UTF-8" standalone="no"?>
<!DOCTYPE svg PUBLIC "-//W3C//DTD SVG 1.1//EN"
 "http://www.w3.org/Graphics/SVG/1.1/DTD/svg11.dtd">
<!-- Generated by graphviz version 2.38.0 (20140413.2041)
 -->
<!-- Title: xQueueIsQueueFullFromISR Pages: 1 -->
<svg width="351pt" height="408pt"
 viewBox="0.00 0.00 351.00 408.00" xmlns="http://www.w3.org/2000/svg" xmlns:xlink="http://www.w3.org/1999/xlink">
<g id="graph0" class="graph" transform="scale(1 1) rotate(0) translate(4 404)">
<title>xQueueIsQueueFullFromISR</title>
<polygon fill="white" stroke="none" points="-4,4 -4,-404 347,-404 347,4 -4,4"/>
<!-- Node153 -->
<g id="node1" class="node"><title>Node153</title>
<polygon fill="#bfbfbf" stroke="black" points="0,-190.5 0,-209.5 140,-209.5 140,-190.5 0,-190.5"/>
<text text-anchor="middle" x="70" y="-197.5" font-family="Helvetica,sans-Serif" font-size="10.00">xQueueIsQueueFullFromISR</text>
</g>
<!-- Node154 -->
<g id="node2" class="node"><title>Node154</title>
<g id="a_node2"><a xlink:href="queue_8h.xhtml#a1d939f7ea1d10b19a57d41143c62adc0" target="_top" xlink:title="xQueueCRSend">
<polygon fill="white" stroke="black" points="216.5,-380.5 216.5,-399.5 302.5,-399.5 302.5,-380.5 216.5,-380.5"/>
<text text-anchor="middle" x="259.5" y="-387.5" font-family="Helvetica,sans-Serif" font-size="10.00">xQueueCRSend</text>
</a>
</g>
</g>
<!-- Node153&#45;&gt;Node154 -->
<g id="edge1" class="edge"><title>Node153&#45;&gt;Node154</title>
<path fill="none" stroke="midnightblue" d="M73.9244,-209.598C83.3772,-238.912 116.03,-327.893 176,-371 184.955,-377.437 195.747,-381.732 206.531,-384.589"/>
<polygon fill="midnightblue" stroke="midnightblue" points="205.852,-388.024 216.379,-386.829 207.404,-381.198 205.852,-388.024"/>
</g>
<!-- Node155 -->
<g id="node3" class="node"><title>Node155</title>
<g id="a_node3"><a xlink:href="queue_8c.xhtml#a9297c23fd9b292999ecd39478a15dbdd" target="_top" xlink:title="prvIsQueueFull">
<polygon fill="white" stroke="black" points="219.5,-342.5 219.5,-361.5 299.5,-361.5 299.5,-342.5 219.5,-342.5"/>
<text text-anchor="middle" x="259.5" y="-349.5" font-family="Helvetica,sans-Serif" font-size="10.00">prvIsQueueFull</text>
</a>
</g>
</g>
<!-- Node153&#45;&gt;Node155 -->
<g id="edge2" class="edge"><title>Node153&#45;&gt;Node155</title>
<path fill="none" stroke="midnightblue" d="M75.592,-209.529C88.0091,-234.216 124.797,-300.581 176,-333 185.989,-339.324 197.845,-343.55 209.41,-346.372"/>
<polygon fill="midnightblue" stroke="midnightblue" points="208.934,-349.849 219.443,-348.507 210.391,-343.002 208.934,-349.849"/>
</g>
<!-- Node156 -->
<g id="node4" class="node"><title>Node156</title>
<g id="a_node4"><a xlink:href="croutine_8c.xhtml#ab079c8617df3a965355be09a08a31342" target="_top" xlink:title="vCoRoutineAddToDelayedList">
<polygon fill="white" stroke="red" points="187.5,-304.5 187.5,-323.5 331.5,-323.5 331.5,-304.5 187.5,-304.5"/>
<text text-anchor="middle" x="259.5" y="-311.5" font-family="Helvetica,sans-Serif" font-size="10.00">vCoRoutineAddToDelayedList</text>
</a>
</g>
</g>
<!-- Node153&#45;&gt;Node156 -->
<g id="edge3" class="edge"><title>Node153&#45;&gt;Node156</title>
<path fill="none" stroke="midnightblue" d="M78.5601,-209.536C94.427,-228.865 133.282,-272.712 176,-295 180.526,-297.362 185.343,-299.432 190.288,-301.247"/>
<polygon fill="midnightblue" stroke="midnightblue" points="189.32,-304.613 199.913,-304.432 191.519,-297.968 189.32,-304.613"/>
</g>
<!-- Node159 -->
<g id="node5" class="node"><title>Node159</title>
<g id="a_node5"><a xlink:href="queue_8c.xhtml#a51ac2510836d3242086a4ae206cfa277" target="_top" xlink:title="prvCopyDataToQueue">
<polygon fill="white" stroke="red" points="204.5,-266.5 204.5,-285.5 314.5,-285.5 314.5,-266.5 204.5,-266.5"/>
<text text-anchor="middle" x="259.5" y="-273.5" font-family="Helvetica,sans-Serif" font-size="10.00">prvCopyDataToQueue</text>
</a>
</g>
</g>
<!-- Node153&#45;&gt;Node159 -->
<g id="edge4" class="edge"><title>Node153&#45;&gt;Node159</title>
<path fill="none" stroke="midnightblue" d="M85.6877,-209.649C105.451,-222.232 142.052,-244.15 176,-257 182.804,-259.576 190.062,-261.865 197.343,-263.884"/>
<polygon fill="midnightblue" stroke="midnightblue" points="196.686,-267.33 207.246,-266.469 198.454,-260.557 196.686,-267.33"/>
</g>
<!-- Node161 -->
<g id="node6" class="node"><title>Node161</title>
<g id="a_node6"><a xlink:href="croutine_8c.xhtml#a9d3b6fc4612f417a42fc92f072a19686" target="_top" xlink:title="xCoRoutineRemoveFromEventList">
<polygon fill="white" stroke="red" points="177.5,-228.5 177.5,-247.5 341.5,-247.5 341.5,-228.5 177.5,-228.5"/>
<text text-anchor="middle" x="259.5" y="-235.5" font-family="Helvetica,sans-Serif" font-size="10.00">xCoRoutineRemoveFromEventList</text>
</a>
</g>
</g>
<!-- Node153&#45;&gt;Node161 -->
<g id="edge5" class="edge"><title>Node153&#45;&gt;Node161</title>
<path fill="none" stroke="midnightblue" d="M118.314,-209.589C143.614,-214.716 174.95,-221.067 201.575,-226.463"/>
<polygon fill="midnightblue" stroke="midnightblue" points="201.03,-229.924 211.526,-228.48 202.421,-223.063 201.03,-229.924"/>
</g>
<!-- Node163 -->
<g id="node7" class="node"><title>Node163</title>
<g id="a_node7"><a xlink:href="queue_8h.xhtml#ac683e1a6f46a9b01fe0f3c464240562b" target="_top" xlink:title="xQueueCRReceive">
<polygon fill="white" stroke="black" points="210.5,-190.5 210.5,-209.5 308.5,-209.5 308.5,-190.5 210.5,-190.5"/>
<text text-anchor="middle" x="259.5" y="-197.5" font-family="Helvetica,sans-Serif" font-size="10.00">xQueueCRReceive</text>
</a>
</g>
</g>
<!-- Node153&#45;&gt;Node163 -->
<g id="edge6" class="edge"><title>Node153&#45;&gt;Node163</title>
<path fill="none" stroke="midnightblue" d="M140.019,-200C159.846,-200 181.262,-200 200.361,-200"/>
<polygon fill="midnightblue" stroke="midnightblue" points="200.412,-203.5 210.412,-200 200.412,-196.5 200.412,-203.5"/>
</g>
<!-- Node164 -->
<g id="node8" class="node"><title>Node164</title>
<g id="a_node8"><a xlink:href="queue_8h.xhtml#a6336db3a8d0a267780f59163c75fdf74" target="_top" xlink:title="xQueueCRSendFromISR">
<polygon fill="white" stroke="black" points="197,-152.5 197,-171.5 322,-171.5 322,-152.5 197,-152.5"/>
<text text-anchor="middle" x="259.5" y="-159.5" font-family="Helvetica,sans-Serif" font-size="10.00">xQueueCRSendFromISR</text>
</a>
</g>
</g>
<!-- Node153&#45;&gt;Node164 -->
<g id="edge7" class="edge"><title>Node153&#45;&gt;Node164</title>
<path fill="none" stroke="midnightblue" d="M118.314,-190.411C143.614,-185.284 174.95,-178.933 201.575,-173.537"/>
<polygon fill="midnightblue" stroke="midnightblue" points="202.421,-176.937 211.526,-171.52 201.03,-170.076 202.421,-176.937"/>
</g>
<!-- Node165 -->
<g id="node9" class="node"><title>Node165</title>
<g id="a_node9"><a xlink:href="queue_8h.xhtml#a05f3267ee4737d7929dd485423205c74" target="_top" xlink:title="xQueueCRReceiveFromISR">
<polygon fill="white" stroke="black" points="191.5,-114.5 191.5,-133.5 327.5,-133.5 327.5,-114.5 191.5,-114.5"/>
<text text-anchor="middle" x="259.5" y="-121.5" font-family="Helvetica,sans-Serif" font-size="10.00">xQueueCRReceiveFromISR</text>
</a>
</g>
</g>
<!-- Node153&#45;&gt;Node165 -->
<g id="edge8" class="edge"><title>Node153&#45;&gt;Node165</title>
<path fill="none" stroke="midnightblue" d="M85.6877,-190.351C105.451,-177.768 142.052,-155.85 176,-143 182.804,-140.424 190.062,-138.135 197.343,-136.116"/>
<polygon fill="midnightblue" stroke="midnightblue" points="198.454,-139.443 207.246,-133.531 196.686,-132.67 198.454,-139.443"/>
</g>
<!-- Node166 -->
<g id="node10" class="node"><title>Node166</title>
<g id="a_node10"><a xlink:href="queue_8h.xhtml#a3d9e3bc0d64cffa182ddaa6f23a421b1" target="_top" xlink:title="vQueueWaitForMessageRestricted">
<polygon fill="white" stroke="black" points="176,-76.5 176,-95.5 343,-95.5 343,-76.5 176,-76.5"/>
<text text-anchor="middle" x="259.5" y="-83.5" font-family="Helvetica,sans-Serif" font-size="10.00">vQueueWaitForMessageRestricted</text>
</a>
</g>
</g>
<!-- Node153&#45;&gt;Node166 -->
<g id="edge9" class="edge"><title>Node153&#45;&gt;Node166</title>
<path fill="none" stroke="midnightblue" d="M78.5601,-190.464C94.427,-171.135 133.282,-127.288 176,-105 180.526,-102.638 185.343,-100.568 190.288,-98.753"/>
<polygon fill="midnightblue" stroke="midnightblue" points="191.519,-102.032 199.913,-95.5684 189.32,-95.3867 191.519,-102.032"/>
</g>
<!-- Node167 -->
<g id="node11" class="node"><title>Node167</title>
<g id="a_node11"><a xlink:href="task_8h.xhtml#aa6f3e136de367b65060cf66b39ca6675" target="_top" xlink:title="vTaskPlaceOnEventListRestricted">
<polygon fill="white" stroke="black" points="178,-38.5 178,-57.5 341,-57.5 341,-38.5 178,-38.5"/>
<text text-anchor="middle" x="259.5" y="-45.5" font-family="Helvetica,sans-Serif" font-size="10.00">vTaskPlaceOnEventListRestricted</text>
</a>
</g>
</g>
<!-- Node153&#45;&gt;Node167 -->
<g id="edge10" class="edge"><title>Node153&#45;&gt;Node167</title>
<path fill="none" stroke="midnightblue" d="M75.592,-190.471C88.0091,-165.784 124.797,-99.4185 176,-67 179.328,-64.8931 182.863,-63.0191 186.525,-61.3524"/>
<polygon fill="midnightblue" stroke="midnightblue" points="187.863,-64.587 195.846,-57.6215 185.261,-58.0883 187.863,-64.587"/>
</g>
<!-- Node168 -->
<g id="node12" class="node"><title>Node168</title>
<g id="a_node12"><a xlink:href="queue_8c.xhtml#a3975057ee08e7c83269a256422ea9b38" target="_top" xlink:title="prvUnlockQueue">
<polygon fill="white" stroke="red" points="216,-0.5 216,-19.5 303,-19.5 303,-0.5 216,-0.5"/>
<text text-anchor="middle" x="259.5" y="-7.5" font-family="Helvetica,sans-Serif" font-size="10.00">prvUnlockQueue</text>
</a>
</g>
</g>
<!-- Node153&#45;&gt;Node168 -->
<g id="edge11" class="edge"><title>Node153&#45;&gt;Node168</title>
<path fill="none" stroke="midnightblue" d="M73.9244,-190.402C83.3772,-161.088 116.03,-72.1071 176,-29 184.863,-22.629 195.527,-18.3555 206.201,-15.4986"/>
<polygon fill="midnightblue" stroke="midnightblue" points="206.995,-18.9075 215.955,-13.2537 205.425,-12.0858 206.995,-18.9075"/>
</g>
</g>
</svg>
