<?xml version="1.0" encoding="UTF-8" standalone="no"?>
<!DOCTYPE svg PUBLIC "-//W3C//DTD SVG 1.1//EN"
 "http://www.w3.org/Graphics/SVG/1.1/DTD/svg11.dtd">
<!-- Generated by graphviz version 2.38.0 (20140413.2041)
 -->
<!-- Title: xQueueGenericReceive Pages: 1 -->
<svg width="479pt" height="408pt"
 viewBox="0.00 0.00 479.00 408.00" xmlns="http://www.w3.org/2000/svg" xmlns:xlink="http://www.w3.org/1999/xlink">
<g id="graph0" class="graph" transform="scale(1 1) rotate(0) translate(4 404)">
<title>xQueueGenericReceive</title>
<polygon fill="white" stroke="none" points="-4,4 -4,-404 475,-404 475,4 -4,4"/>
<!-- Node89 -->
<g id="node1" class="node"><title>Node89</title>
<polygon fill="#bfbfbf" stroke="black" points="0,-190.5 0,-209.5 118,-209.5 118,-190.5 0,-190.5"/>
<text text-anchor="middle" x="59" y="-197.5" font-family="Helvetica,sans-Serif" font-size="10.00">xQueueGenericReceive</text>
</g>
<!-- Node90 -->
<g id="node2" class="node"><title>Node90</title>
<g id="a_node2"><a xlink:href="queue_8c.xhtml#a6fbe564255b2cdc870f581a2f1aadfbf" target="_top" xlink:title="prvCopyDataFromQueue">
<polygon fill="white" stroke="black" points="163.5,-380.5 163.5,-399.5 285.5,-399.5 285.5,-380.5 163.5,-380.5"/>
<text text-anchor="middle" x="224.5" y="-387.5" font-family="Helvetica,sans-Serif" font-size="10.00">prvCopyDataFromQueue</text>
</a>
</g>
</g>
<!-- Node89&#45;&gt;Node90 -->
<g id="edge1" class="edge"><title>Node89&#45;&gt;Node90</title>
<path fill="none" stroke="midnightblue" d="M62.4885,-209.892C70.4062,-239.277 97.8616,-326.75 154,-371 156.302,-372.815 158.766,-374.457 161.341,-375.942"/>
<polygon fill="midnightblue" stroke="midnightblue" points="159.94,-379.153 170.46,-380.412 163.022,-372.868 159.94,-379.153"/>
</g>
<!-- Node91 -->
<g id="node3" class="node"><title>Node91</title>
<g id="a_node3"><a xlink:href="task_8h.xhtml#a6661c782f8eef65c1edc0ae6a47c5a0d" target="_top" xlink:title="xTaskGetCurrentTaskHandle">
<polygon fill="white" stroke="black" points="154,-342.5 154,-361.5 295,-361.5 295,-342.5 154,-342.5"/>
<text text-anchor="middle" x="224.5" y="-349.5" font-family="Helvetica,sans-Serif" font-size="10.00">xTaskGetCurrentTaskHandle</text>
</a>
</g>
</g>
<!-- Node89&#45;&gt;Node91 -->
<g id="edge2" class="edge"><title>Node89&#45;&gt;Node91</title>
<path fill="none" stroke="midnightblue" d="M64.4546,-209.569C75.9129,-233.166 108.717,-294.64 154,-328 159.662,-332.171 166.106,-335.659 172.733,-338.564"/>
<polygon fill="midnightblue" stroke="midnightblue" points="171.917,-342.004 182.504,-342.414 174.484,-335.491 171.917,-342.004"/>
</g>
<!-- Node92 -->
<g id="node4" class="node"><title>Node92</title>
<g id="a_node4"><a xlink:href="task_8h.xhtml#a0e7e66debaa8878d449d658a37d4b322" target="_top" xlink:title="xTaskRemoveFromEventList">
<polygon fill="white" stroke="red" points="331,-171.5 331,-190.5 471,-190.5 471,-171.5 331,-171.5"/>
<text text-anchor="middle" x="401" y="-178.5" font-family="Helvetica,sans-Serif" font-size="10.00">xTaskRemoveFromEventList</text>
</a>
</g>
</g>
<!-- Node89&#45;&gt;Node92 -->
<g id="edge3" class="edge"><title>Node89&#45;&gt;Node92</title>
<path fill="none" stroke="midnightblue" d="M65.7601,-209.695C78.5576,-230.153 111.603,-277.307 154,-295 211.833,-319.135 237.608,-320.165 295,-295 339.553,-275.464 373.547,-226.662 389.675,-199.676"/>
<polygon fill="midnightblue" stroke="midnightblue" points="392.822,-201.225 394.794,-190.815 386.761,-197.723 392.822,-201.225"/>
</g>
<!-- Node95 -->
<g id="node5" class="node"><title>Node95</title>
<g id="a_node5"><a xlink:href="task_8h.xhtml#a85df14f56902e5eadee1b20789aa272d" target="_top" xlink:title="vTaskSetTimeOutState">
<polygon fill="white" stroke="black" points="166.5,-266.5 166.5,-285.5 282.5,-285.5 282.5,-266.5 166.5,-266.5"/>
<text text-anchor="middle" x="224.5" y="-273.5" font-family="Helvetica,sans-Serif" font-size="10.00">vTaskSetTimeOutState</text>
</a>
</g>
</g>
<!-- Node89&#45;&gt;Node95 -->
<g id="edge4" class="edge"><title>Node89&#45;&gt;Node95</title>
<path fill="none" stroke="midnightblue" d="M73.0609,-209.547C90.6562,-222.017 123.315,-243.81 154,-257 159.522,-259.373 165.419,-261.525 171.356,-263.455"/>
<polygon fill="midnightblue" stroke="midnightblue" points="170.74,-266.926 181.326,-266.493 172.781,-260.23 170.74,-266.926"/>
</g>
<!-- Node96 -->
<g id="node6" class="node"><title>Node96</title>
<g id="a_node6"><a xlink:href="task_8h.xhtml#a366b302eba79d10b5ee2a3756f0fcc43" target="_top" xlink:title="vTaskSuspendAll">
<polygon fill="white" stroke="black" points="179,-228.5 179,-247.5 270,-247.5 270,-228.5 179,-228.5"/>
<text text-anchor="middle" x="224.5" y="-235.5" font-family="Helvetica,sans-Serif" font-size="10.00">vTaskSuspendAll</text>
</a>
</g>
</g>
<!-- Node89&#45;&gt;Node96 -->
<g id="edge5" class="edge"><title>Node89&#45;&gt;Node96</title>
<path fill="none" stroke="midnightblue" d="M101.258,-209.589C122.931,-214.626 149.683,-220.844 172.63,-226.177"/>
<polygon fill="midnightblue" stroke="midnightblue" points="172.006,-229.625 182.539,-228.48 173.591,-222.807 172.006,-229.625"/>
</g>
<!-- Node97 -->
<g id="node7" class="node"><title>Node97</title>
<g id="a_node7"><a xlink:href="task_8h.xhtml#a0f786f440ae1a3f491a3b1f44a580cf7" target="_top" xlink:title="xTaskCheckForTimeOut">
<polygon fill="white" stroke="red" points="163.5,-190.5 163.5,-209.5 285.5,-209.5 285.5,-190.5 163.5,-190.5"/>
<text text-anchor="middle" x="224.5" y="-197.5" font-family="Helvetica,sans-Serif" font-size="10.00">xTaskCheckForTimeOut</text>
</a>
</g>
</g>
<!-- Node89&#45;&gt;Node97 -->
<g id="edge6" class="edge"><title>Node89&#45;&gt;Node97</title>
<path fill="none" stroke="midnightblue" d="M118.104,-200C129.463,-200 141.488,-200 153.193,-200"/>
<polygon fill="midnightblue" stroke="midnightblue" points="153.373,-203.5 163.373,-200 153.373,-196.5 153.373,-203.5"/>
</g>
<!-- Node99 -->
<g id="node8" class="node"><title>Node99</title>
<g id="a_node8"><a xlink:href="queue_8c.xhtml#a99857402f1050166b8c977df918b7948" target="_top" xlink:title="prvIsQueueEmpty">
<polygon fill="white" stroke="black" points="178,-152.5 178,-171.5 271,-171.5 271,-152.5 178,-152.5"/>
<text text-anchor="middle" x="224.5" y="-159.5" font-family="Helvetica,sans-Serif" font-size="10.00">prvIsQueueEmpty</text>
</a>
</g>
</g>
<!-- Node89&#45;&gt;Node99 -->
<g id="edge7" class="edge"><title>Node89&#45;&gt;Node99</title>
<path fill="none" stroke="midnightblue" d="M101.258,-190.411C122.931,-185.374 149.683,-179.156 172.63,-173.823"/>
<polygon fill="midnightblue" stroke="midnightblue" points="173.591,-177.193 182.539,-171.52 172.006,-170.375 173.591,-177.193"/>
</g>
<!-- Node100 -->
<g id="node9" class="node"><title>Node100</title>
<g id="a_node9"><a xlink:href="task_8h.xhtml#a7a7ce24a330c32b4b904e1ef43ebde2c" target="_top" xlink:title="vTaskPriorityInherit">
<polygon fill="white" stroke="black" points="175.5,-114.5 175.5,-133.5 273.5,-133.5 273.5,-114.5 175.5,-114.5"/>
<text text-anchor="middle" x="224.5" y="-121.5" font-family="Helvetica,sans-Serif" font-size="10.00">vTaskPriorityInherit</text>
</a>
</g>
</g>
<!-- Node89&#45;&gt;Node100 -->
<g id="edge8" class="edge"><title>Node89&#45;&gt;Node100</title>
<path fill="none" stroke="midnightblue" d="M73.0609,-190.453C90.6562,-177.983 123.315,-156.19 154,-143 159.522,-140.627 165.419,-138.475 171.356,-136.545"/>
<polygon fill="midnightblue" stroke="midnightblue" points="172.781,-139.77 181.326,-133.507 170.74,-133.074 172.781,-139.77"/>
</g>
<!-- Node101 -->
<g id="node10" class="node"><title>Node101</title>
<g id="a_node10"><a xlink:href="task_8h.xhtml#a77790806f66f114dc628f321e005e357" target="_top" xlink:title="vTaskPlaceOnEventList">
<polygon fill="white" stroke="red" points="165,-76.5 165,-95.5 284,-95.5 284,-76.5 165,-76.5"/>
<text text-anchor="middle" x="224.5" y="-83.5" font-family="Helvetica,sans-Serif" font-size="10.00">vTaskPlaceOnEventList</text>
</a>
</g>
</g>
<!-- Node89&#45;&gt;Node101 -->
<g id="edge9" class="edge"><title>Node89&#45;&gt;Node101</title>
<path fill="none" stroke="midnightblue" d="M66.8138,-190.277C80.8427,-170.998 114.935,-127.825 154,-105 157.706,-102.835 161.667,-100.909 165.748,-99.1964"/>
<polygon fill="midnightblue" stroke="midnightblue" points="167.285,-102.358 175.425,-95.5775 164.833,-95.8019 167.285,-102.358"/>
</g>
<!-- Node105 -->
<g id="node11" class="node"><title>Node105</title>
<g id="a_node11"><a xlink:href="queue_8c.xhtml#a3975057ee08e7c83269a256422ea9b38" target="_top" xlink:title="prvUnlockQueue">
<polygon fill="white" stroke="red" points="181,-38.5 181,-57.5 268,-57.5 268,-38.5 181,-38.5"/>
<text text-anchor="middle" x="224.5" y="-45.5" font-family="Helvetica,sans-Serif" font-size="10.00">prvUnlockQueue</text>
</a>
</g>
</g>
<!-- Node89&#45;&gt;Node105 -->
<g id="edge10" class="edge"><title>Node89&#45;&gt;Node105</title>
<path fill="none" stroke="midnightblue" d="M64.0536,-190.228C74.8085,-165.539 106.53,-100.263 154,-67 159.176,-63.3728 165.017,-60.4372 171.058,-58.0616"/>
<polygon fill="midnightblue" stroke="midnightblue" points="172.327,-61.3266 180.65,-54.7704 170.055,-54.7056 172.327,-61.3266"/>
</g>
<!-- Node107 -->
<g id="node12" class="node"><title>Node107</title>
<g id="a_node12"><a xlink:href="task_8h.xhtml#afba2c0b51534051cef7f5f5c3fa804d0" target="_top" xlink:title="xTaskResumeAll">
<polygon fill="white" stroke="red" points="179.5,-0.5 179.5,-19.5 269.5,-19.5 269.5,-0.5 179.5,-0.5"/>
<text text-anchor="middle" x="224.5" y="-7.5" font-family="Helvetica,sans-Serif" font-size="10.00">xTaskResumeAll</text>
</a>
</g>
</g>
<!-- Node89&#45;&gt;Node107 -->
<g id="edge12" class="edge"><title>Node89&#45;&gt;Node107</title>
<path fill="none" stroke="midnightblue" d="M62.4885,-190.108C70.4062,-160.723 97.8616,-73.2496 154,-29 158.72,-25.2795 164.116,-22.2863 169.769,-19.8785"/>
<polygon fill="midnightblue" stroke="midnightblue" points="171.251,-23.0638 179.45,-16.3537 168.856,-16.4863 171.251,-23.0638"/>
</g>
<!-- Node105&#45;&gt;Node92 -->
<g id="edge11" class="edge"><title>Node105&#45;&gt;Node92</title>
<path fill="none" stroke="midnightblue" d="M268.216,-55.6409C277.454,-58.3758 286.879,-62.0581 295,-67 335.968,-91.9302 370.786,-137.404 388.16,-162.732"/>
<polygon fill="midnightblue" stroke="midnightblue" points="385.469,-165.005 393.941,-171.368 391.286,-161.111 385.469,-165.005"/>
</g>
</g>
</svg>
