<?xml version="1.0" encoding="UTF-8" standalone="no"?>
<!DOCTYPE svg PUBLIC "-//W3C//DTD SVG 1.1//EN"
 "http://www.w3.org/Graphics/SVG/1.1/DTD/svg11.dtd">
<!-- Generated by graphviz version 2.38.0 (20140413.2041)
 -->
<!-- Title: examples/atmel_samg55/src/ASF/common/services/clock/samg/osc.h Pages: 1 -->
<svg width="313pt" height="206pt"
 viewBox="0.00 0.00 313.00 206.00" xmlns="http://www.w3.org/2000/svg" xmlns:xlink="http://www.w3.org/1999/xlink">
<g id="graph0" class="graph" transform="scale(1 1) rotate(0) translate(4 202)">
<title>examples/atmel_samg55/src/ASF/common/services/clock/samg/osc.h</title>
<polygon fill="white" stroke="none" points="-4,4 -4,-202 309,-202 309,4 -4,4"/>
<!-- Node16 -->
<g id="node1" class="node"><title>Node16</title>
<polygon fill="#bfbfbf" stroke="black" points="86,-156.5 86,-197.5 220,-197.5 220,-156.5 86,-156.5"/>
<text text-anchor="start" x="94" y="-185.5" font-family="Helvetica,sans-Serif" font-size="10.00">examples/atmel_samg55</text>
<text text-anchor="start" x="94" y="-174.5" font-family="Helvetica,sans-Serif" font-size="10.00">/src/ASF/common/services</text>
<text text-anchor="middle" x="153" y="-163.5" font-family="Helvetica,sans-Serif" font-size="10.00">/clock/samg/osc.h</text>
</g>
<!-- Node17 -->
<g id="node2" class="node"><title>Node17</title>
<g id="a_node2"><a xlink:href="samg_2genclk_8h.xhtml" target="_top" xlink:title="Chip&#45;specific generic clock management. ">
<polygon fill="white" stroke="black" points="0,-0.5 0,-41.5 134,-41.5 134,-0.5 0,-0.5"/>
<text text-anchor="start" x="8" y="-29.5" font-family="Helvetica,sans-Serif" font-size="10.00">examples/atmel_samg55</text>
<text text-anchor="start" x="8" y="-18.5" font-family="Helvetica,sans-Serif" font-size="10.00">/src/ASF/common/services</text>
<text text-anchor="middle" x="67" y="-7.5" font-family="Helvetica,sans-Serif" font-size="10.00">/clock/samg/genclk.h</text>
</a>
</g>
</g>
<!-- Node16&#45;&gt;Node17 -->
<g id="edge1" class="edge"><title>Node16&#45;&gt;Node17</title>
<path fill="none" stroke="midnightblue" d="M105.934,-150.702C94.6803,-142.408 83.9308,-132.141 77,-120 63.1794,-95.7905 62.9044,-62.6801 64.5285,-41.8182"/>
<polygon fill="midnightblue" stroke="midnightblue" points="103.954,-153.588 114.171,-156.392 107.932,-147.829 103.954,-153.588"/>
</g>
<!-- Node18 -->
<g id="node3" class="node"><title>Node18</title>
<g id="a_node3"><a xlink:href="samg_2pll_8h.xhtml" target="_top" xlink:title="Chip&#45;specific PLL definitions. ">
<polygon fill="white" stroke="black" points="86,-78.5 86,-119.5 220,-119.5 220,-78.5 86,-78.5"/>
<text text-anchor="start" x="94" y="-107.5" font-family="Helvetica,sans-Serif" font-size="10.00">examples/atmel_samg55</text>
<text text-anchor="start" x="94" y="-96.5" font-family="Helvetica,sans-Serif" font-size="10.00">/src/ASF/common/services</text>
<text text-anchor="middle" x="153" y="-85.5" font-family="Helvetica,sans-Serif" font-size="10.00">/clock/samg/pll.h</text>
</a>
</g>
</g>
<!-- Node16&#45;&gt;Node18 -->
<g id="edge2" class="edge"><title>Node16&#45;&gt;Node18</title>
<path fill="none" stroke="midnightblue" d="M153,-146.297C153,-137.301 153,-127.653 153,-119.506"/>
<polygon fill="midnightblue" stroke="midnightblue" points="149.5,-146.428 153,-156.428 156.5,-146.428 149.5,-146.428"/>
</g>
<!-- Node19 -->
<g id="node4" class="node"><title>Node19</title>
<g id="a_node4"><a xlink:href="samg_2sysclk_8h.xhtml" target="_top" xlink:title="Chip&#45;specific system clock management functions. ">
<polygon fill="white" stroke="red" points="171,-0.5 171,-41.5 305,-41.5 305,-0.5 171,-0.5"/>
<text text-anchor="start" x="179" y="-29.5" font-family="Helvetica,sans-Serif" font-size="10.00">examples/atmel_samg55</text>
<text text-anchor="start" x="179" y="-18.5" font-family="Helvetica,sans-Serif" font-size="10.00">/src/ASF/common/services</text>
<text text-anchor="middle" x="238" y="-7.5" font-family="Helvetica,sans-Serif" font-size="10.00">/clock/samg/sysclk.h</text>
</a>
</g>
</g>
<!-- Node16&#45;&gt;Node19 -->
<g id="edge5" class="edge"><title>Node16&#45;&gt;Node19</title>
<path fill="none" stroke="midnightblue" d="M200.148,-150.749C211.402,-142.454 222.131,-132.176 229,-120 242.685,-95.7448 242.591,-62.6468 240.718,-41.8001"/>
<polygon fill="midnightblue" stroke="midnightblue" points="198.149,-147.875 191.908,-156.437 202.126,-153.636 198.149,-147.875"/>
</g>
<!-- Node18&#45;&gt;Node17 -->
<g id="edge3" class="edge"><title>Node18&#45;&gt;Node17</title>
<path fill="none" stroke="midnightblue" d="M123.328,-71.7785C112.086,-61.8432 99.4943,-50.7159 89.0721,-41.5056"/>
<polygon fill="midnightblue" stroke="midnightblue" points="121.042,-74.4288 130.853,-78.4281 125.677,-69.1834 121.042,-74.4288"/>
</g>
<!-- Node18&#45;&gt;Node19 -->
<g id="edge4" class="edge"><title>Node18&#45;&gt;Node19</title>
<path fill="none" stroke="midnightblue" d="M182.648,-71.4916C193.678,-61.6294 205.983,-50.6273 216.185,-41.5056"/>
<polygon fill="midnightblue" stroke="midnightblue" points="180.011,-69.1535 174.89,-78.4281 184.677,-74.3719 180.011,-69.1535"/>
</g>
</g>
</svg>
