<?xml version="1.0" encoding="UTF-8" standalone="no"?>
<!DOCTYPE svg PUBLIC "-//W3C//DTD SVG 1.1//EN"
 "http://www.w3.org/Graphics/SVG/1.1/DTD/svg11.dtd">
<!-- Generated by graphviz version 2.38.0 (20140413.2041)
 -->
<!-- Title: examples/atmel_samg55/src/ASF/common/services/clock/samg/genclk.h Pages: 1 -->
<svg width="142pt" height="162pt"
 viewBox="0.00 0.00 142.00 162.00" xmlns="http://www.w3.org/2000/svg" xmlns:xlink="http://www.w3.org/1999/xlink">
<g id="graph0" class="graph" transform="scale(1 1) rotate(0) translate(4 158)">
<title>examples/atmel_samg55/src/ASF/common/services/clock/samg/genclk.h</title>
<polygon fill="white" stroke="none" points="-4,4 -4,-158 138,-158 138,4 -4,4"/>
<!-- Node0 -->
<g id="node1" class="node"><title>Node0</title>
<polygon fill="#bfbfbf" stroke="black" points="0,-112.5 0,-153.5 134,-153.5 134,-112.5 0,-112.5"/>
<text text-anchor="start" x="8" y="-141.5" font-family="Helvetica,sans-Serif" font-size="10.00">examples/atmel_samg55</text>
<text text-anchor="start" x="8" y="-130.5" font-family="Helvetica,sans-Serif" font-size="10.00">/src/ASF/common/services</text>
<text text-anchor="middle" x="67" y="-119.5" font-family="Helvetica,sans-Serif" font-size="10.00">/clock/samg/genclk.h</text>
</g>
<!-- Node1 -->
<g id="node2" class="node"><title>Node1</title>
<g id="a_node2"><a xlink:href="samg_2osc_8h.xhtml" target="_top" xlink:title="Chip&#45;specific oscillator management functions. ">
<polygon fill="white" stroke="red" points="46.5,-0.5 46.5,-19.5 87.5,-19.5 87.5,-0.5 46.5,-0.5"/>
<text text-anchor="middle" x="67" y="-7.5" font-family="Helvetica,sans-Serif" font-size="10.00">osc.h</text>
</a>
</g>
</g>
<!-- Node0&#45;&gt;Node1 -->
<g id="edge1" class="edge"><title>Node0&#45;&gt;Node1</title>
<path fill="none" stroke="midnightblue" d="M64.9173,-112.321C63.547,-96.9796 62.151,-75.1396 63,-56 63.3827,-47.3723 64.1762,-37.8414 64.9563,-29.7805"/>
<polygon fill="midnightblue" stroke="midnightblue" points="68.4606,-29.9182 66.0059,-19.6117 61.4976,-29.1994 68.4606,-29.9182"/>
</g>
<!-- Node17 -->
<g id="node3" class="node"><title>Node17</title>
<g id="a_node3"><a xlink:href="samg_2pll_8h.xhtml" target="_top" xlink:title="Chip&#45;specific PLL definitions. ">
<polygon fill="white" stroke="black" points="72.5,-56.5 72.5,-75.5 107.5,-75.5 107.5,-56.5 72.5,-56.5"/>
<text text-anchor="middle" x="90" y="-63.5" font-family="Helvetica,sans-Serif" font-size="10.00">pll.h</text>
</a>
</g>
</g>
<!-- Node0&#45;&gt;Node17 -->
<g id="edge2" class="edge"><title>Node0&#45;&gt;Node17</title>
<path fill="none" stroke="midnightblue" d="M73.9008,-112.498C76.9524,-103.874 80.5213,-93.7875 83.5224,-85.3063"/>
<polygon fill="midnightblue" stroke="midnightblue" points="86.902,-86.2473 86.9383,-75.6525 80.303,-83.9122 86.902,-86.2473"/>
</g>
<!-- Node17&#45;&gt;Node1 -->
<g id="edge3" class="edge"><title>Node17&#45;&gt;Node1</title>
<path fill="none" stroke="midnightblue" d="M86.202,-56.083C83.0872,-48.77 78.5772,-38.1814 74.7107,-29.1034"/>
<polygon fill="midnightblue" stroke="midnightblue" points="77.8661,-27.5798 70.7273,-19.7511 71.4259,-30.3229 77.8661,-27.5798"/>
</g>
</g>
</svg>
