<?xml version="1.0" encoding="UTF-8" standalone="no"?>
<!DOCTYPE svg PUBLIC "-//W3C//DTD SVG 1.1//EN"
 "http://www.w3.org/Graphics/SVG/1.1/DTD/svg11.dtd">
<!-- Generated by graphviz version 2.38.0 (20140413.2041)
 -->
<!-- Title: examples/atmel_samg55/src/ASF/sam/boards/samg55_xplained_pro/samg55_xplained_pro.h Pages: 1 -->
<svg width="190pt" height="106pt"
 viewBox="0.00 0.00 190.00 106.00" xmlns="http://www.w3.org/2000/svg" xmlns:xlink="http://www.w3.org/1999/xlink">
<g id="graph0" class="graph" transform="scale(1 1) rotate(0) translate(4 102)">
<title>examples/atmel_samg55/src/ASF/sam/boards/samg55_xplained_pro/samg55_xplained_pro.h</title>
<polygon fill="white" stroke="none" points="-4,4 -4,-102 186,-102 186,4 -4,4"/>
<!-- Node0 -->
<g id="node1" class="node"><title>Node0</title>
<polygon fill="#bfbfbf" stroke="black" points="0,-56.5 0,-97.5 182,-97.5 182,-56.5 0,-56.5"/>
<text text-anchor="start" x="8" y="-85.5" font-family="Helvetica,sans-Serif" font-size="10.00">examples/atmel_samg55</text>
<text text-anchor="start" x="8" y="-74.5" font-family="Helvetica,sans-Serif" font-size="10.00">/src/ASF/sam/boards/samg55</text>
<text text-anchor="middle" x="91" y="-63.5" font-family="Helvetica,sans-Serif" font-size="10.00">_xplained_pro/samg55_xplained_pro.h</text>
</g>
<!-- Node1 -->
<g id="node2" class="node"><title>Node1</title>
<g id="a_node2"><a xlink:href="conf__board_8h.xhtml" target="_top" xlink:title="Board configuration. ">
<polygon fill="white" stroke="black" points="13,-0.5 13,-19.5 85,-19.5 85,-0.5 13,-0.5"/>
<text text-anchor="middle" x="49" y="-7.5" font-family="Helvetica,sans-Serif" font-size="10.00">conf_board.h</text>
</a>
</g>
</g>
<!-- Node0&#45;&gt;Node1 -->
<g id="edge1" class="edge"><title>Node0&#45;&gt;Node1</title>
<path fill="none" stroke="midnightblue" d="M78.3986,-56.4979C72.5784,-47.4904 65.7277,-36.8881 60.1043,-28.1852"/>
<polygon fill="midnightblue" stroke="midnightblue" points="62.9578,-26.1522 54.5908,-19.6525 57.0783,-29.9512 62.9578,-26.1522"/>
</g>
<!-- Node2 -->
<g id="node3" class="node"><title>Node2</title>
<g id="a_node3"><a xlink:href="compiler_8h.xhtml" target="_top" xlink:title="Commonly used includes, types and macros. ">
<polygon fill="white" stroke="red" points="103,-0.5 103,-19.5 165,-19.5 165,-0.5 103,-0.5"/>
<text text-anchor="middle" x="134" y="-7.5" font-family="Helvetica,sans-Serif" font-size="10.00">compiler.h</text>
</a>
</g>
</g>
<!-- Node0&#45;&gt;Node2 -->
<g id="edge2" class="edge"><title>Node0&#45;&gt;Node2</title>
<path fill="none" stroke="midnightblue" d="M103.901,-56.4979C109.86,-47.4904 116.874,-36.8881 122.631,-28.1852"/>
<polygon fill="midnightblue" stroke="midnightblue" points="125.678,-29.9238 128.276,-19.6525 119.84,-26.0616 125.678,-29.9238"/>
</g>
</g>
</svg>
