<?xml version="1.0" encoding="UTF-8" standalone="no"?>
<!DOCTYPE svg PUBLIC "-//W3C//DTD SVG 1.1//EN"
 "http://www.w3.org/Graphics/SVG/1.1/DTD/svg11.dtd">
<!-- Generated by graphviz version 2.38.0 (20140413.2041)
 -->
<!-- Title: examples/atmel_samg55/src/ASF/sam/utils/cmsis/samg/samg55/include/samg55.h Pages: 1 -->
<svg width="344pt" height="139pt"
 viewBox="0.00 0.00 344.00 139.00" xmlns="http://www.w3.org/2000/svg" xmlns:xlink="http://www.w3.org/1999/xlink">
<g id="graph0" class="graph" transform="scale(1 1) rotate(0) translate(4 135)">
<title>examples/atmel_samg55/src/ASF/sam/utils/cmsis/samg/samg55/include/samg55.h</title>
<polygon fill="white" stroke="none" points="-4,4 -4,-135 340,-135 340,4 -4,4"/>
<!-- Node1 -->
<g id="node1" class="node"><title>Node1</title>
<polygon fill="#bfbfbf" stroke="black" points="87,-89.5 87,-130.5 248,-130.5 248,-89.5 87,-89.5"/>
<text text-anchor="start" x="95" y="-118.5" font-family="Helvetica,sans-Serif" font-size="10.00">examples/atmel_samg55</text>
<text text-anchor="start" x="95" y="-107.5" font-family="Helvetica,sans-Serif" font-size="10.00">/src/ASF/sam/utils/cmsis</text>
<text text-anchor="middle" x="167.5" y="-96.5" font-family="Helvetica,sans-Serif" font-size="10.00">/samg/samg55/include/samg55.h</text>
</g>
<!-- Node2 -->
<g id="node2" class="node"><title>Node2</title>
<g id="a_node2"><a xlink:href="startup__samg55_8c.xhtml" target="_top" xlink:title="Startup file for SAMG55. ">
<polygon fill="white" stroke="black" points="0,-0.5 0,-52.5 159,-52.5 159,-0.5 0,-0.5"/>
<text text-anchor="start" x="8" y="-40.5" font-family="Helvetica,sans-Serif" font-size="10.00">examples/atmel_samg55</text>
<text text-anchor="start" x="8" y="-29.5" font-family="Helvetica,sans-Serif" font-size="10.00">/src/ASF/sam/utils/cmsis</text>
<text text-anchor="start" x="8" y="-18.5" font-family="Helvetica,sans-Serif" font-size="10.00">/samg/samg55/source/templates</text>
<text text-anchor="middle" x="79.5" y="-7.5" font-family="Helvetica,sans-Serif" font-size="10.00">/gcc/startup_samg55.c</text>
</a>
</g>
</g>
<!-- Node1&#45;&gt;Node2 -->
<g id="edge1" class="edge"><title>Node1&#45;&gt;Node2</title>
<path fill="none" stroke="midnightblue" d="M138.611,-82.2447C128.311,-72.7059 116.754,-62.0026 106.61,-52.6073"/>
<polygon fill="midnightblue" stroke="midnightblue" points="136.483,-85.0441 146.198,-89.2711 141.239,-79.9083 136.483,-85.0441"/>
</g>
<!-- Node3 -->
<g id="node3" class="node"><title>Node3</title>
<g id="a_node3"><a xlink:href="system__samg55_8c.xhtml" target="_top" xlink:title="Provides the low&#45;level initialization functions that called on chip startup. ">
<polygon fill="white" stroke="black" points="177,-0.5 177,-52.5 336,-52.5 336,-0.5 177,-0.5"/>
<text text-anchor="start" x="185" y="-40.5" font-family="Helvetica,sans-Serif" font-size="10.00">examples/atmel_samg55</text>
<text text-anchor="start" x="185" y="-29.5" font-family="Helvetica,sans-Serif" font-size="10.00">/src/ASF/sam/utils/cmsis</text>
<text text-anchor="start" x="185" y="-18.5" font-family="Helvetica,sans-Serif" font-size="10.00">/samg/samg55/source/templates</text>
<text text-anchor="middle" x="256.5" y="-7.5" font-family="Helvetica,sans-Serif" font-size="10.00">/system_samg55.c</text>
</a>
</g>
</g>
<!-- Node1&#45;&gt;Node3 -->
<g id="edge2" class="edge"><title>Node1&#45;&gt;Node3</title>
<path fill="none" stroke="midnightblue" d="M196.717,-82.2447C207.134,-72.7059 218.822,-62.0026 229.082,-52.6073"/>
<polygon fill="midnightblue" stroke="midnightblue" points="194.056,-79.9363 189.044,-89.2711 198.783,-85.0989 194.056,-79.9363"/>
</g>
</g>
</svg>
