<?xml version="1.0" encoding="UTF-8" standalone="no"?>
<!DOCTYPE svg PUBLIC "-//W3C//DTD SVG 1.1//EN"
 "http://www.w3.org/Graphics/SVG/1.1/DTD/svg11.dtd">
<!-- Generated by graphviz version 2.38.0 (20140413.2041)
 -->
<!-- Title: examples/atmel_samg55/src/ASF/thirdparty/freertos/freertos&#45;7.0.0/source/include/semphr.h Pages: 1 -->
<svg width="236pt" height="306pt"
 viewBox="0.00 0.00 235.51 306.00" xmlns="http://www.w3.org/2000/svg" xmlns:xlink="http://www.w3.org/1999/xlink">
<g id="graph0" class="graph" transform="scale(1 1) rotate(0) translate(4 302)">
<title>examples/atmel_samg55/src/ASF/thirdparty/freertos/freertos&#45;7.0.0/source/include/semphr.h</title>
<polygon fill="white" stroke="none" points="-4,4 -4,-302 231.513,-302 231.513,4 -4,4"/>
<!-- Node3 -->
<g id="node1" class="node"><title>Node3</title>
<polygon fill="#bfbfbf" stroke="black" points="58.5,-245.5 58.5,-297.5 201.5,-297.5 201.5,-245.5 58.5,-245.5"/>
<text text-anchor="start" x="66.5" y="-285.5" font-family="Helvetica,sans-Serif" font-size="10.00">examples/atmel_samg55</text>
<text text-anchor="start" x="66.5" y="-274.5" font-family="Helvetica,sans-Serif" font-size="10.00">/src/ASF/thirdparty/freertos</text>
<text text-anchor="start" x="66.5" y="-263.5" font-family="Helvetica,sans-Serif" font-size="10.00">/freertos&#45;7.0.0/source/include</text>
<text text-anchor="middle" x="130" y="-252.5" font-family="Helvetica,sans-Serif" font-size="10.00">/semphr.h</text>
</g>
<!-- Node4 -->
<g id="node2" class="node"><title>Node4</title>
<g id="a_node2"><a xlink:href="freertos__peripheral__control_8h.xhtml" target="_top" xlink:title="FreeRTOS Peripheral Control API Functions. ">
<polygon fill="white" stroke="red" points="52,-156.5 52,-208.5 208,-208.5 208,-156.5 52,-156.5"/>
<text text-anchor="start" x="60" y="-196.5" font-family="Helvetica,sans-Serif" font-size="10.00">examples/atmel_samg55</text>
<text text-anchor="start" x="60" y="-185.5" font-family="Helvetica,sans-Serif" font-size="10.00">/src/ASF/common/services</text>
<text text-anchor="start" x="60" y="-174.5" font-family="Helvetica,sans-Serif" font-size="10.00">/freertos/sam/freertos_peripheral</text>
<text text-anchor="middle" x="130" y="-163.5" font-family="Helvetica,sans-Serif" font-size="10.00">_control.h</text>
</a>
</g>
</g>
<!-- Node3&#45;&gt;Node4 -->
<g id="edge1" class="edge"><title>Node3&#45;&gt;Node4</title>
<path fill="none" stroke="midnightblue" d="M130,-235.191C130,-226.282 130,-216.899 130,-208.607"/>
<polygon fill="midnightblue" stroke="midnightblue" points="126.5,-235.336 130,-245.336 133.5,-235.336 126.5,-235.336"/>
</g>
<!-- Node6 -->
<g id="node3" class="node"><title>Node6</title>
<g id="a_node3"><a xlink:href="freertos__usart__serial_8h.xhtml" target="_top" xlink:title="FreeRTOS Peripheral Control API For the USART. ">
<polygon fill="white" stroke="red" points="0,-67.5 0,-119.5 136,-119.5 136,-67.5 0,-67.5"/>
<text text-anchor="start" x="8" y="-107.5" font-family="Helvetica,sans-Serif" font-size="10.00">examples/atmel_samg55</text>
<text text-anchor="start" x="8" y="-96.5" font-family="Helvetica,sans-Serif" font-size="10.00">/src/ASF/common/services</text>
<text text-anchor="start" x="8" y="-85.5" font-family="Helvetica,sans-Serif" font-size="10.00">/freertos/sam/freertos_usart</text>
<text text-anchor="middle" x="68" y="-74.5" font-family="Helvetica,sans-Serif" font-size="10.00">_serial.h</text>
</a>
</g>
</g>
<!-- Node3&#45;&gt;Node6 -->
<g id="edge5" class="edge"><title>Node3&#45;&gt;Node6</title>
<path fill="none" stroke="midnightblue" d="M69.4914,-239.365C58.8208,-231.009 49.1669,-220.911 43,-209 28.3131,-180.632 41.0435,-143.994 53.086,-119.899"/>
<polygon fill="midnightblue" stroke="midnightblue" points="67.6633,-242.364 77.8086,-245.417 71.7817,-236.703 67.6633,-242.364"/>
</g>
<!-- Node8 -->
<g id="node4" class="node"><title>Node8</title>
<g id="a_node4"><a xlink:href="asf_8h.xhtml" target="_top" xlink:title="Autogenerated API include file for the Atmel Software Framework (ASF) ">
<polygon fill="white" stroke="red" points="101.5,-0.5 101.5,-30.5 226.5,-30.5 226.5,-0.5 101.5,-0.5"/>
<text text-anchor="start" x="109.5" y="-18.5" font-family="Helvetica,sans-Serif" font-size="10.00">examples/atmel_samg55</text>
<text text-anchor="middle" x="164" y="-7.5" font-family="Helvetica,sans-Serif" font-size="10.00">/src/asf.h</text>
</a>
</g>
</g>
<!-- Node3&#45;&gt;Node8 -->
<g id="edge6" class="edge"><title>Node3&#45;&gt;Node8</title>
<path fill="none" stroke="midnightblue" d="M190.509,-239.365C201.179,-231.009 210.833,-220.911 217,-209 249.034,-147.127 198.091,-63.7432 174.724,-30.7704"/>
<polygon fill="midnightblue" stroke="midnightblue" points="188.218,-236.703 182.191,-245.417 192.337,-242.364 188.218,-236.703"/>
</g>
<!-- Node4&#45;&gt;Node6 -->
<g id="edge2" class="edge"><title>Node4&#45;&gt;Node6</title>
<path fill="none" stroke="midnightblue" d="M106.075,-147.927C99.3642,-138.511 92.1866,-128.439 85.8927,-119.607"/>
<polygon fill="midnightblue" stroke="midnightblue" points="103.413,-150.224 112.067,-156.336 109.114,-146.161 103.413,-150.224"/>
</g>
<!-- Node4&#45;&gt;Node8 -->
<g id="edge4" class="edge"><title>Node4&#45;&gt;Node8</title>
<path fill="none" stroke="midnightblue" d="M138.878,-146.618C140.983,-137.944 143.152,-128.652 145,-120 151.791,-88.1982 158.324,-50.5827 161.675,-30.6131"/>
<polygon fill="midnightblue" stroke="midnightblue" points="135.452,-145.894 136.459,-156.441 142.249,-147.568 135.452,-145.894"/>
</g>
<!-- Node6&#45;&gt;Node8 -->
<g id="edge3" class="edge"><title>Node6&#45;&gt;Node8</title>
<path fill="none" stroke="midnightblue" d="M107.829,-60.9691C121.123,-50.4441 135.28,-39.237 146.055,-30.7066"/>
<polygon fill="midnightblue" stroke="midnightblue" points="105.368,-58.4529 99.7,-67.4041 109.713,-63.9412 105.368,-58.4529"/>
</g>
</g>
</svg>
