<?xml version="1.0" encoding="UTF-8" standalone="no"?>
<!DOCTYPE svg PUBLIC "-//W3C//DTD SVG 1.1//EN"
 "http://www.w3.org/Graphics/SVG/1.1/DTD/svg11.dtd">
<!-- Generated by graphviz version 2.38.0 (20140413.2041)
 -->
<!-- Title: examples/atmel_samg55/src/ASF/common/services/serial/serial.h Pages: 1 -->
<svg width="485pt" height="206pt"
 viewBox="0.00 0.00 484.50 206.00" xmlns="http://www.w3.org/2000/svg" xmlns:xlink="http://www.w3.org/1999/xlink">
<g id="graph0" class="graph" transform="scale(1 1) rotate(0) translate(4 202)">
<title>examples/atmel_samg55/src/ASF/common/services/serial/serial.h</title>
<polygon fill="white" stroke="none" points="-4,4 -4,-202 480.5,-202 480.5,4 -4,4"/>
<!-- Node3 -->
<g id="node1" class="node"><title>Node3</title>
<polygon fill="#bfbfbf" stroke="black" points="228,-156.5 228,-197.5 362,-197.5 362,-156.5 228,-156.5"/>
<text text-anchor="start" x="236" y="-185.5" font-family="Helvetica,sans-Serif" font-size="10.00">examples/atmel_samg55</text>
<text text-anchor="start" x="236" y="-174.5" font-family="Helvetica,sans-Serif" font-size="10.00">/src/ASF/common/services</text>
<text text-anchor="middle" x="295" y="-163.5" font-family="Helvetica,sans-Serif" font-size="10.00">/serial/serial.h</text>
</g>
<!-- Node4 -->
<g id="node2" class="node"><title>Node4</title>
<g id="a_node2"><a xlink:href="freertos__usart__serial_8c.xhtml" target="_top" xlink:title="FreeRTOS Peripheral Control API For the USART. ">
<polygon fill="white" stroke="black" points="0,-67.5 0,-119.5 136,-119.5 136,-67.5 0,-67.5"/>
<text text-anchor="start" x="8" y="-107.5" font-family="Helvetica,sans-Serif" font-size="10.00">examples/atmel_samg55</text>
<text text-anchor="start" x="8" y="-96.5" font-family="Helvetica,sans-Serif" font-size="10.00">/src/ASF/common/services</text>
<text text-anchor="start" x="8" y="-85.5" font-family="Helvetica,sans-Serif" font-size="10.00">/freertos/sam/freertos_usart</text>
<text text-anchor="middle" x="68" y="-74.5" font-family="Helvetica,sans-Serif" font-size="10.00">_serial.c</text>
</a>
</g>
</g>
<!-- Node3&#45;&gt;Node4 -->
<g id="edge1" class="edge"><title>Node3&#45;&gt;Node4</title>
<path fill="none" stroke="midnightblue" d="M230.833,-152.962C201.281,-142.352 166.188,-129.753 136.162,-118.972"/>
<polygon fill="midnightblue" stroke="midnightblue" points="230.033,-156.394 240.628,-156.479 232.399,-149.805 230.033,-156.394"/>
</g>
<!-- Node5 -->
<g id="node3" class="node"><title>Node5</title>
<g id="a_node3"><a xlink:href="usart__serial_8c.xhtml" target="_top" xlink:title="USART Serial driver functions. ">
<polygon fill="white" stroke="black" points="154,-73 154,-114 288,-114 288,-73 154,-73"/>
<text text-anchor="start" x="162" y="-102" font-family="Helvetica,sans-Serif" font-size="10.00">examples/atmel_samg55</text>
<text text-anchor="start" x="162" y="-91" font-family="Helvetica,sans-Serif" font-size="10.00">/src/ASF/common/services</text>
<text text-anchor="middle" x="221" y="-80" font-family="Helvetica,sans-Serif" font-size="10.00">/serial/usart_serial.c</text>
</a>
</g>
</g>
<!-- Node3&#45;&gt;Node5 -->
<g id="edge2" class="edge"><title>Node3&#45;&gt;Node5</title>
<path fill="none" stroke="midnightblue" d="M270.222,-148.711C259.912,-137.356 248.175,-124.429 238.748,-114.047"/>
<polygon fill="midnightblue" stroke="midnightblue" points="267.773,-151.22 277.087,-156.271 272.956,-146.515 267.773,-151.22"/>
</g>
<!-- Node6 -->
<g id="node4" class="node"><title>Node6</title>
<g id="a_node4"><a xlink:href="stdio__serial_8h.xhtml" target="_top" xlink:title="Common Standard I/O Serial Management. ">
<polygon fill="white" stroke="black" points="306.5,-67.5 306.5,-119.5 431.5,-119.5 431.5,-67.5 306.5,-67.5"/>
<text text-anchor="start" x="314.5" y="-107.5" font-family="Helvetica,sans-Serif" font-size="10.00">examples/atmel_samg55</text>
<text text-anchor="start" x="314.5" y="-96.5" font-family="Helvetica,sans-Serif" font-size="10.00">/src/ASF/common/utils</text>
<text text-anchor="start" x="314.5" y="-85.5" font-family="Helvetica,sans-Serif" font-size="10.00">/stdio/stdio_serial/stdio</text>
<text text-anchor="middle" x="369" y="-74.5" font-family="Helvetica,sans-Serif" font-size="10.00">_serial.h</text>
</a>
</g>
</g>
<!-- Node3&#45;&gt;Node6 -->
<g id="edge3" class="edge"><title>Node3&#45;&gt;Node6</title>
<path fill="none" stroke="midnightblue" d="M319.804,-148.682C328.335,-139.287 337.84,-128.818 346.203,-119.607"/>
<polygon fill="midnightblue" stroke="midnightblue" points="317.044,-146.515 312.913,-156.271 322.227,-151.22 317.044,-146.515"/>
</g>
<!-- Node7 -->
<g id="node5" class="node"><title>Node7</title>
<g id="a_node5"><a xlink:href="asf_8h.xhtml" target="_top" xlink:title="Autogenerated API include file for the Atmel Software Framework (ASF) ">
<polygon fill="white" stroke="red" points="351.5,-0.5 351.5,-30.5 476.5,-30.5 476.5,-0.5 351.5,-0.5"/>
<text text-anchor="start" x="359.5" y="-18.5" font-family="Helvetica,sans-Serif" font-size="10.00">examples/atmel_samg55</text>
<text text-anchor="middle" x="414" y="-7.5" font-family="Helvetica,sans-Serif" font-size="10.00">/src/asf.h</text>
</a>
</g>
</g>
<!-- Node3&#45;&gt;Node7 -->
<g id="edge5" class="edge"><title>Node3&#45;&gt;Node7</title>
<path fill="none" stroke="midnightblue" d="M371.901,-164.665C398.268,-156.69 425.111,-143.112 441,-120 460.042,-92.3021 438.66,-52.0318 424.497,-30.8133"/>
<polygon fill="midnightblue" stroke="midnightblue" points="370.924,-161.304 362.229,-167.357 372.801,-168.048 370.924,-161.304"/>
</g>
<!-- Node6&#45;&gt;Node7 -->
<g id="edge4" class="edge"><title>Node6&#45;&gt;Node7</title>
<path fill="none" stroke="midnightblue" d="M389.163,-58.4466C394.913,-48.7358 400.869,-38.6775 405.506,-30.8453"/>
<polygon fill="midnightblue" stroke="midnightblue" points="386.068,-56.8051 383.984,-67.1931 392.091,-60.3716 386.068,-56.8051"/>
</g>
</g>
</svg>
