<?xml version="1.0" encoding="UTF-8" standalone="no"?>
<!DOCTYPE svg PUBLIC "-//W3C//DTD SVG 1.1//EN"
 "http://www.w3.org/Graphics/SVG/1.1/DTD/svg11.dtd">
<!-- Generated by graphviz version 2.38.0 (20140413.2041)
 -->
<!-- Title: examples/atmel_samg55/src/ASF/common/services/sleepmgr/sam/sleepmgr.c Pages: 1 -->
<svg width="142pt" height="162pt"
 viewBox="0.00 0.00 142.00 162.00" xmlns="http://www.w3.org/2000/svg" xmlns:xlink="http://www.w3.org/1999/xlink">
<g id="graph0" class="graph" transform="scale(1 1) rotate(0) translate(4 158)">
<title>examples/atmel_samg55/src/ASF/common/services/sleepmgr/sam/sleepmgr.c</title>
<polygon fill="white" stroke="none" points="-4,4 -4,-158 138,-158 138,4 -4,4"/>
<!-- Node0 -->
<g id="node1" class="node"><title>Node0</title>
<polygon fill="#bfbfbf" stroke="black" points="0,-112.5 0,-153.5 134,-153.5 134,-112.5 0,-112.5"/>
<text text-anchor="start" x="8" y="-141.5" font-family="Helvetica,sans-Serif" font-size="10.00">examples/atmel_samg55</text>
<text text-anchor="start" x="8" y="-130.5" font-family="Helvetica,sans-Serif" font-size="10.00">/src/ASF/common/services</text>
<text text-anchor="middle" x="67" y="-119.5" font-family="Helvetica,sans-Serif" font-size="10.00">/sleepmgr/sam/sleepmgr.c</text>
</g>
<!-- Node1 -->
<g id="node2" class="node"><title>Node1</title>
<g id="a_node2"><a xlink:href="compiler_8h.xhtml" target="_top" xlink:title="Commonly used includes, types and macros. ">
<polygon fill="white" stroke="red" points="36,-0.5 36,-19.5 98,-19.5 98,-0.5 36,-0.5"/>
<text text-anchor="middle" x="67" y="-7.5" font-family="Helvetica,sans-Serif" font-size="10.00">compiler.h</text>
</a>
</g>
</g>
<!-- Node0&#45;&gt;Node1 -->
<g id="edge1" class="edge"><title>Node0&#45;&gt;Node1</title>
<path fill="none" stroke="midnightblue" d="M61.2854,-112.351C57.5243,-97.0256 53.6883,-75.1926 56,-56 57.0712,-47.1069 59.2923,-37.4344 61.4601,-29.344"/>
<polygon fill="midnightblue" stroke="midnightblue" points="64.8868,-30.0908 64.2701,-19.5139 58.1563,-28.1668 64.8868,-30.0908"/>
</g>
<!-- Node14 -->
<g id="node3" class="node"><title>Node14</title>
<g id="a_node3"><a xlink:href="sam_2sleepmgr_8h.xhtml" target="_top" xlink:title="SAM3/SAM4 Sleep manager implementation. ">
<polygon fill="white" stroke="red" points="65.5,-56.5 65.5,-75.5 130.5,-75.5 130.5,-56.5 65.5,-56.5"/>
<text text-anchor="middle" x="98" y="-63.5" font-family="Helvetica,sans-Serif" font-size="10.00">sleepmgr.h</text>
</a>
</g>
</g>
<!-- Node0&#45;&gt;Node14 -->
<g id="edge2" class="edge"><title>Node0&#45;&gt;Node14</title>
<path fill="none" stroke="midnightblue" d="M76.301,-112.498C80.5055,-103.682 85.4386,-93.3385 89.5378,-84.7432"/>
<polygon fill="midnightblue" stroke="midnightblue" points="92.7278,-86.1852 93.8734,-75.6525 86.4095,-83.1719 92.7278,-86.1852"/>
</g>
<!-- Node14&#45;&gt;Node1 -->
<g id="edge3" class="edge"><title>Node14&#45;&gt;Node1</title>
<path fill="none" stroke="midnightblue" d="M92.881,-56.083C88.5925,-48.6127 82.3418,-37.7244 77.0577,-28.5199"/>
<polygon fill="midnightblue" stroke="midnightblue" points="80.0379,-26.6811 72.0238,-19.7511 73.9671,-30.1662 80.0379,-26.6811"/>
</g>
</g>
</svg>
