<?xml version="1.0" encoding="UTF-8" standalone="no"?>
<!DOCTYPE svg PUBLIC "-//W3C//DTD SVG 1.1//EN"
 "http://www.w3.org/Graphics/SVG/1.1/DTD/svg11.dtd">
<!-- Generated by graphviz version 2.38.0 (20140413.2041)
 -->
<!-- Title: examples/atmel_samg55/src/ASF/common/services/sleepmgr/sleepmgr.h Pages: 1 -->
<svg width="276pt" height="128pt"
 viewBox="0.00 0.00 276.00 128.00" xmlns="http://www.w3.org/2000/svg" xmlns:xlink="http://www.w3.org/1999/xlink">
<g id="graph0" class="graph" transform="scale(1 1) rotate(0) translate(4 124)">
<title>examples/atmel_samg55/src/ASF/common/services/sleepmgr/sleepmgr.h</title>
<polygon fill="white" stroke="none" points="-4,4 -4,-124 272,-124 272,4 -4,4"/>
<!-- Node14 -->
<g id="node1" class="node"><title>Node14</title>
<polygon fill="#bfbfbf" stroke="black" points="66.5,-78.5 66.5,-119.5 200.5,-119.5 200.5,-78.5 66.5,-78.5"/>
<text text-anchor="start" x="74.5" y="-107.5" font-family="Helvetica,sans-Serif" font-size="10.00">examples/atmel_samg55</text>
<text text-anchor="start" x="74.5" y="-96.5" font-family="Helvetica,sans-Serif" font-size="10.00">/src/ASF/common/services</text>
<text text-anchor="middle" x="133.5" y="-85.5" font-family="Helvetica,sans-Serif" font-size="10.00">/sleepmgr/sleepmgr.h</text>
</g>
<!-- Node15 -->
<g id="node2" class="node"><title>Node15</title>
<g id="a_node2"><a xlink:href="flexcom_8c.xhtml" target="_top" xlink:title="FLEXCOM driver for SAM. ">
<polygon fill="white" stroke="black" points="0,-0.5 0,-41.5 125,-41.5 125,-0.5 0,-0.5"/>
<text text-anchor="start" x="8" y="-29.5" font-family="Helvetica,sans-Serif" font-size="10.00">examples/atmel_samg55</text>
<text text-anchor="start" x="8" y="-18.5" font-family="Helvetica,sans-Serif" font-size="10.00">/src/ASF/sam/drivers</text>
<text text-anchor="middle" x="62.5" y="-7.5" font-family="Helvetica,sans-Serif" font-size="10.00">/flexcom/flexcom.c</text>
</a>
</g>
</g>
<!-- Node14&#45;&gt;Node15 -->
<g id="edge1" class="edge"><title>Node14&#45;&gt;Node15</title>
<path fill="none" stroke="midnightblue" d="M108.198,-70.9158C99.1237,-61.2029 89.0785,-50.4502 80.7223,-41.5056"/>
<polygon fill="midnightblue" stroke="midnightblue" points="105.832,-73.5101 115.216,-78.4281 110.947,-68.7314 105.832,-73.5101"/>
</g>
<!-- Node16 -->
<g id="node3" class="node"><title>Node16</title>
<g id="a_node3"><a xlink:href="asf_8h.xhtml" target="_top" xlink:title="Autogenerated API include file for the Atmel Software Framework (ASF) ">
<polygon fill="white" stroke="red" points="143,-6 143,-36 268,-36 268,-6 143,-6"/>
<text text-anchor="start" x="151" y="-24" font-family="Helvetica,sans-Serif" font-size="10.00">examples/atmel_samg55</text>
<text text-anchor="middle" x="205.5" y="-13" font-family="Helvetica,sans-Serif" font-size="10.00">/src/asf.h</text>
</a>
</g>
</g>
<!-- Node14&#45;&gt;Node16 -->
<g id="edge2" class="edge"><title>Node14&#45;&gt;Node16</title>
<path fill="none" stroke="midnightblue" d="M159.089,-70.9896C170.206,-59.2546 182.773,-45.9897 192.023,-36.2254"/>
<polygon fill="midnightblue" stroke="midnightblue" points="156.378,-68.7614 152.042,-78.4281 161.46,-73.5757 156.378,-68.7614"/>
</g>
</g>
</svg>
