<?xml version="1.0" encoding="UTF-8" standalone="no"?>
<!DOCTYPE svg PUBLIC "-//W3C//DTD SVG 1.1//EN"
 "http://www.w3.org/Graphics/SVG/1.1/DTD/svg11.dtd">
<!-- Generated by graphviz version 2.38.0 (20140413.2041)
 -->
<!-- Title: examples/atmel_samg55/src/ASF/sam/drivers/pmc/sleep.c Pages: 1 -->
<svg width="133pt" height="162pt"
 viewBox="0.00 0.00 133.00 162.00" xmlns="http://www.w3.org/2000/svg" xmlns:xlink="http://www.w3.org/1999/xlink">
<g id="graph0" class="graph" transform="scale(1 1) rotate(0) translate(4 158)">
<title>examples/atmel_samg55/src/ASF/sam/drivers/pmc/sleep.c</title>
<polygon fill="white" stroke="none" points="-4,4 -4,-158 129,-158 129,4 -4,4"/>
<!-- Node0 -->
<g id="node1" class="node"><title>Node0</title>
<polygon fill="#bfbfbf" stroke="black" points="0,-112.5 0,-153.5 125,-153.5 125,-112.5 0,-112.5"/>
<text text-anchor="start" x="8" y="-141.5" font-family="Helvetica,sans-Serif" font-size="10.00">examples/atmel_samg55</text>
<text text-anchor="start" x="8" y="-130.5" font-family="Helvetica,sans-Serif" font-size="10.00">/src/ASF/sam/drivers</text>
<text text-anchor="middle" x="62.5" y="-119.5" font-family="Helvetica,sans-Serif" font-size="10.00">/pmc/sleep.c</text>
</g>
<!-- Node1 -->
<g id="node2" class="node"><title>Node1</title>
<g id="a_node2"><a xlink:href="compiler_8h.xhtml" target="_top" xlink:title="Commonly used includes, types and macros. ">
<polygon fill="white" stroke="red" points="31.5,-0.5 31.5,-19.5 93.5,-19.5 93.5,-0.5 31.5,-0.5"/>
<text text-anchor="middle" x="62.5" y="-7.5" font-family="Helvetica,sans-Serif" font-size="10.00">compiler.h</text>
</a>
</g>
</g>
<!-- Node0&#45;&gt;Node1 -->
<g id="edge1" class="edge"><title>Node0&#45;&gt;Node1</title>
<path fill="none" stroke="midnightblue" d="M58.8579,-112.33C56.4614,-96.9937 54.019,-75.1558 55.5,-56 56.1788,-47.2204 57.5919,-37.5626 58.9719,-29.4526"/>
<polygon fill="midnightblue" stroke="midnightblue" points="62.4215,-30.0446 60.7611,-19.5806 55.5337,-28.7961 62.4215,-30.0446"/>
</g>
<!-- Node14 -->
<g id="node3" class="node"><title>Node14</title>
<g id="a_node3"><a xlink:href="sleep_8h.xhtml" target="_top" xlink:title="Sleep mode access. ">
<polygon fill="white" stroke="black" points="64.5,-56.5 64.5,-75.5 112.5,-75.5 112.5,-56.5 64.5,-56.5"/>
<text text-anchor="middle" x="88.5" y="-63.5" font-family="Helvetica,sans-Serif" font-size="10.00">sleep.h</text>
</a>
</g>
</g>
<!-- Node0&#45;&gt;Node14 -->
<g id="edge2" class="edge"><title>Node0&#45;&gt;Node14</title>
<path fill="none" stroke="midnightblue" d="M70.3009,-112.498C73.7889,-103.778 77.8747,-93.5632 81.2903,-85.0241"/>
<polygon fill="midnightblue" stroke="midnightblue" points="84.5747,-86.2372 85.039,-75.6525 78.0754,-83.6374 84.5747,-86.2372"/>
</g>
<!-- Node14&#45;&gt;Node1 -->
<g id="edge3" class="edge"><title>Node14&#45;&gt;Node1</title>
<path fill="none" stroke="midnightblue" d="M84.2066,-56.083C80.6477,-48.6913 75.4775,-37.9533 71.0757,-28.8111"/>
<polygon fill="midnightblue" stroke="midnightblue" points="74.2052,-27.2427 66.7135,-19.7511 67.8982,-30.2795 74.2052,-27.2427"/>
</g>
</g>
</svg>
