<?xml version="1.0" encoding="UTF-8" standalone="no"?>
<!DOCTYPE svg PUBLIC "-//W3C//DTD SVG 1.1//EN"
 "http://www.w3.org/Graphics/SVG/1.1/DTD/svg11.dtd">
<!-- Generated by graphviz version 2.38.0 (20140413.2041)
 -->
<!-- Title: examples/atmel_samg55/src/ASF/sam/utils/status_codes.h Pages: 1 -->
<svg width="498pt" height="206pt"
 viewBox="0.00 0.00 497.50 206.00" xmlns="http://www.w3.org/2000/svg" xmlns:xlink="http://www.w3.org/1999/xlink">
<g id="graph0" class="graph" transform="scale(1 1) rotate(0) translate(4 202)">
<title>examples/atmel_samg55/src/ASF/sam/utils/status_codes.h</title>
<polygon fill="white" stroke="none" points="-4,4 -4,-202 493.5,-202 493.5,4 -4,4"/>
<!-- Node1 -->
<g id="node1" class="node"><title>Node1</title>
<polygon fill="#bfbfbf" stroke="black" points="167,-156.5 167,-197.5 295,-197.5 295,-156.5 167,-156.5"/>
<text text-anchor="start" x="175" y="-185.5" font-family="Helvetica,sans-Serif" font-size="10.00">examples/atmel_samg55</text>
<text text-anchor="start" x="175" y="-174.5" font-family="Helvetica,sans-Serif" font-size="10.00">/src/ASF/sam/utils/status</text>
<text text-anchor="middle" x="231" y="-163.5" font-family="Helvetica,sans-Serif" font-size="10.00">_codes.h</text>
</g>
<!-- Node2 -->
<g id="node2" class="node"><title>Node2</title>
<g id="a_node2"><a xlink:href="freertos__peripheral__control_8h.xhtml" target="_top" xlink:title="FreeRTOS Peripheral Control API Functions. ">
<polygon fill="white" stroke="red" points="0,-67.5 0,-119.5 156,-119.5 156,-67.5 0,-67.5"/>
<text text-anchor="start" x="8" y="-107.5" font-family="Helvetica,sans-Serif" font-size="10.00">examples/atmel_samg55</text>
<text text-anchor="start" x="8" y="-96.5" font-family="Helvetica,sans-Serif" font-size="10.00">/src/ASF/common/services</text>
<text text-anchor="start" x="8" y="-85.5" font-family="Helvetica,sans-Serif" font-size="10.00">/freertos/sam/freertos_peripheral</text>
<text text-anchor="middle" x="78" y="-74.5" font-family="Helvetica,sans-Serif" font-size="10.00">_control.h</text>
</a>
</g>
</g>
<!-- Node1&#45;&gt;Node2 -->
<g id="edge1" class="edge"><title>Node1&#45;&gt;Node2</title>
<path fill="none" stroke="midnightblue" d="M185.291,-151.652C166.282,-141.526 144.228,-129.778 125.076,-119.576"/>
<polygon fill="midnightblue" stroke="midnightblue" points="183.881,-154.866 194.353,-156.479 187.172,-148.688 183.881,-154.866"/>
</g>
<!-- Node6 -->
<g id="node3" class="node"><title>Node6</title>
<g id="a_node3"><a xlink:href="asf_8h.xhtml" target="_top" xlink:title="Autogenerated API include file for the Atmel Software Framework (ASF) ">
<polygon fill="white" stroke="red" points="121.5,-0.5 121.5,-30.5 246.5,-30.5 246.5,-0.5 121.5,-0.5"/>
<text text-anchor="start" x="129.5" y="-18.5" font-family="Helvetica,sans-Serif" font-size="10.00">examples/atmel_samg55</text>
<text text-anchor="middle" x="184" y="-7.5" font-family="Helvetica,sans-Serif" font-size="10.00">/src/asf.h</text>
</a>
</g>
</g>
<!-- Node1&#45;&gt;Node6 -->
<g id="edge6" class="edge"><title>Node1&#45;&gt;Node6</title>
<path fill="none" stroke="midnightblue" d="M214.802,-147.484C210.443,-138.867 206.087,-129.236 203,-120 192.633,-88.9854 187.474,-50.7409 185.309,-30.5403"/>
<polygon fill="midnightblue" stroke="midnightblue" points="211.722,-149.147 219.472,-156.371 217.918,-145.89 211.722,-149.147"/>
</g>
<!-- Node10 -->
<g id="node4" class="node"><title>Node10</title>
<g id="a_node4"><a xlink:href="serial_8h.xhtml" target="_top" xlink:title="Serial Mode management. ">
<polygon fill="white" stroke="red" points="212,-73 212,-114 346,-114 346,-73 212,-73"/>
<text text-anchor="start" x="220" y="-102" font-family="Helvetica,sans-Serif" font-size="10.00">examples/atmel_samg55</text>
<text text-anchor="start" x="220" y="-91" font-family="Helvetica,sans-Serif" font-size="10.00">/src/ASF/common/services</text>
<text text-anchor="middle" x="279" y="-80" font-family="Helvetica,sans-Serif" font-size="10.00">/serial/serial.h</text>
</a>
</g>
</g>
<!-- Node1&#45;&gt;Node10 -->
<g id="edge3" class="edge"><title>Node1&#45;&gt;Node10</title>
<path fill="none" stroke="midnightblue" d="M247.848,-147.394C254.343,-136.365 261.608,-124.03 267.488,-114.047"/>
<polygon fill="midnightblue" stroke="midnightblue" points="244.679,-145.878 242.619,-156.271 250.71,-149.431 244.679,-145.878"/>
</g>
<!-- Node13 -->
<g id="node5" class="node"><title>Node13</title>
<g id="a_node5"><a xlink:href="drivers_2flexcom_2flexcom_8h.xhtml" target="_top" xlink:title="FLEXCOM driver for SAM. ">
<polygon fill="white" stroke="red" points="364.5,-73 364.5,-114 489.5,-114 489.5,-73 364.5,-73"/>
<text text-anchor="start" x="372.5" y="-102" font-family="Helvetica,sans-Serif" font-size="10.00">examples/atmel_samg55</text>
<text text-anchor="start" x="372.5" y="-91" font-family="Helvetica,sans-Serif" font-size="10.00">/src/ASF/sam/drivers</text>
<text text-anchor="middle" x="427" y="-80" font-family="Helvetica,sans-Serif" font-size="10.00">/flexcom/flexcom.h</text>
</a>
</g>
</g>
<!-- Node1&#45;&gt;Node13 -->
<g id="edge5" class="edge"><title>Node1&#45;&gt;Node13</title>
<path fill="none" stroke="midnightblue" d="M287.256,-152.608C316.65,-140.385 352.207,-125.6 380.097,-114.003"/>
<polygon fill="midnightblue" stroke="midnightblue" points="285.837,-149.407 277.947,-156.479 288.524,-155.871 285.837,-149.407"/>
</g>
<!-- Node2&#45;&gt;Node6 -->
<g id="edge2" class="edge"><title>Node2&#45;&gt;Node6</title>
<path fill="none" stroke="midnightblue" d="M121.148,-61.5641C136.066,-50.868 152.063,-39.398 164.186,-30.7066"/>
<polygon fill="midnightblue" stroke="midnightblue" points="119.09,-58.7328 113.002,-67.4041 123.169,-64.4217 119.09,-58.7328"/>
</g>
<!-- Node10&#45;&gt;Node6 -->
<g id="edge4" class="edge"><title>Node10&#45;&gt;Node6</title>
<path fill="none" stroke="midnightblue" d="M246.49,-66.4916C231.519,-54.5154 214.336,-40.7687 201.782,-30.7254"/>
<polygon fill="midnightblue" stroke="midnightblue" points="244.54,-69.4142 254.535,-72.9281 248.913,-63.9481 244.54,-69.4142"/>
</g>
</g>
</svg>
