<?xml version="1.0" encoding="UTF-8" standalone="no"?>
<!DOCTYPE svg PUBLIC "-//W3C//DTD SVG 1.1//EN"
 "http://www.w3.org/Graphics/SVG/1.1/DTD/svg11.dtd">
<!-- Generated by graphviz version 2.38.0 (20140413.2041)
 -->
<!-- Title: arm_dct4_instance_q31 Pages: 1 -->
<svg width="284pt" height="95pt"
 viewBox="0.00 0.00 284.00 95.00" xmlns="http://www.w3.org/2000/svg" xmlns:xlink="http://www.w3.org/1999/xlink">
<g id="graph0" class="graph" transform="scale(1 1) rotate(0) translate(4 91)">
<title>arm_dct4_instance_q31</title>
<polygon fill="white" stroke="none" points="-4,4 -4,-91 280,-91 280,4 -4,4"/>
<!-- Node1 -->
<g id="node1" class="node"><title>Node1</title>
<polygon fill="#bfbfbf" stroke="black" points="69,-0.5 69,-19.5 189,-19.5 189,-0.5 69,-0.5"/>
<text text-anchor="middle" x="129" y="-7.5" font-family="Helvetica,sans-Serif" font-size="10.00">arm_dct4_instance_q31</text>
</g>
<!-- Node2 -->
<g id="node2" class="node"><title>Node2</title>
<g id="a_node2"><a xlink:href="structarm__rfft__instance__q31.xhtml" target="_top" xlink:title="Instance structure for the Q31 RFFT/RIFFT function. ">
<polygon fill="white" stroke="red" points="0,-67.5 0,-86.5 112,-86.5 112,-67.5 0,-67.5"/>
<text text-anchor="middle" x="56" y="-74.5" font-family="Helvetica,sans-Serif" font-size="10.00">arm_rfft_instance_q31</text>
</a>
</g>
</g>
<!-- Node2&#45;&gt;Node1 -->
<g id="edge1" class="edge"><title>Node2&#45;&gt;Node1</title>
<path fill="none" stroke="#9a32cd" stroke-dasharray="5,2" d="M73.569,-60.3564C87.9205,-47.5777 107.671,-29.9915 119.311,-19.6273"/>
<polygon fill="#9a32cd" stroke="#9a32cd" points="70.9861,-57.9698 65.8451,-67.2338 75.6411,-63.1978 70.9861,-57.9698"/>
<text text-anchor="middle" x="108.5" y="-41" font-family="Helvetica,sans-Serif" font-size="10.00"> pRfft</text>
</g>
<!-- Node4 -->
<g id="node3" class="node"><title>Node4</title>
<g id="a_node3"><a xlink:href="structarm__cfft__radix4__instance__q31.xhtml" target="_top" xlink:title="Instance structure for the Q31 CFFT/CIFFT function. ">
<polygon fill="white" stroke="black" points="130,-67.5 130,-86.5 276,-86.5 276,-67.5 130,-67.5"/>
<text text-anchor="middle" x="203" y="-74.5" font-family="Helvetica,sans-Serif" font-size="10.00">arm_cfft_radix4_instance_q31</text>
</a>
</g>
</g>
<!-- Node4&#45;&gt;Node1 -->
<g id="edge2" class="edge"><title>Node4&#45;&gt;Node1</title>
<path fill="none" stroke="#9a32cd" stroke-dasharray="5,2" d="M185.19,-60.3564C170.642,-47.5777 150.621,-29.9915 138.822,-19.6273"/>
<polygon fill="#9a32cd" stroke="#9a32cd" points="183.197,-63.264 193.02,-67.2338 187.817,-58.0047 183.197,-63.264"/>
<text text-anchor="middle" x="181.5" y="-41" font-family="Helvetica,sans-Serif" font-size="10.00"> pCfft</text>
</g>
</g>
</svg>
