<?xml version="1.0" encoding="UTF-8" standalone="no"?>
<!DOCTYPE svg PUBLIC "-//W3C//DTD SVG 1.1//EN"
 "http://www.w3.org/Graphics/SVG/1.1/DTD/svg11.dtd">
<!-- Generated by graphviz version 2.38.0 (20140413.2041)
 -->
<!-- Title: examples/atmel_samg55/src/ASF/common/services/clock/samg/sysclk.c Pages: 1 -->
<svg width="182pt" height="106pt"
 viewBox="0.00 0.00 181.50 106.00" xmlns="http://www.w3.org/2000/svg" xmlns:xlink="http://www.w3.org/1999/xlink">
<g id="graph0" class="graph" transform="scale(1 1) rotate(0) translate(4 102)">
<title>examples/atmel_samg55/src/ASF/common/services/clock/samg/sysclk.c</title>
<polygon fill="white" stroke="none" points="-4,4 -4,-102 177.5,-102 177.5,4 -4,4"/>
<!-- Node0 -->
<g id="node1" class="node"><title>Node0</title>
<polygon fill="#bfbfbf" stroke="black" points="27.5,-56.5 27.5,-97.5 161.5,-97.5 161.5,-56.5 27.5,-56.5"/>
<text text-anchor="start" x="35.5" y="-85.5" font-family="Helvetica,sans-Serif" font-size="10.00">examples/atmel_samg55</text>
<text text-anchor="start" x="35.5" y="-74.5" font-family="Helvetica,sans-Serif" font-size="10.00">/src/ASF/common/services</text>
<text text-anchor="middle" x="94.5" y="-63.5" font-family="Helvetica,sans-Serif" font-size="10.00">/clock/samg/sysclk.c</text>
</g>
<!-- Node1 -->
<g id="node2" class="node"><title>Node1</title>
<g id="a_node2"><a xlink:href="samg_2sysclk_8h.xhtml" target="_top" xlink:title="Chip&#45;specific system clock management functions. ">
<polygon fill="white" stroke="red" points="0,-0.5 0,-19.5 53,-19.5 53,-0.5 0,-0.5"/>
<text text-anchor="middle" x="26.5" y="-7.5" font-family="Helvetica,sans-Serif" font-size="10.00">sysclk.h</text>
</a>
</g>
</g>
<!-- Node0&#45;&gt;Node1 -->
<g id="edge1" class="edge"><title>Node0&#45;&gt;Node1</title>
<path fill="none" stroke="midnightblue" d="M74.0978,-56.4979C64.1733,-47.0113 52.3982,-35.7557 43.0429,-26.8131"/>
<polygon fill="midnightblue" stroke="midnightblue" points="45.199,-24.0323 35.5518,-19.6525 40.3621,-29.0924 45.199,-24.0323"/>
</g>
<!-- Node19 -->
<g id="node3" class="node"><title>Node19</title>
<polygon fill="white" stroke="#bfbfbf" points="71.5,-0.5 71.5,-19.5 117.5,-19.5 117.5,-0.5 71.5,-0.5"/>
<text text-anchor="middle" x="94.5" y="-7.5" font-family="Helvetica,sans-Serif" font-size="10.00">supc.h</text>
</g>
<!-- Node0&#45;&gt;Node19 -->
<g id="edge2" class="edge"><title>Node0&#45;&gt;Node19</title>
<path fill="none" stroke="midnightblue" d="M94.5,-56.4979C94.5,-48.0653 94.5,-38.2351 94.5,-29.874"/>
<polygon fill="midnightblue" stroke="midnightblue" points="98.0001,-29.6525 94.5,-19.6525 91.0001,-29.6525 98.0001,-29.6525"/>
</g>
<!-- Node20 -->
<g id="node4" class="node"><title>Node20</title>
<polygon fill="white" stroke="#bfbfbf" points="135.5,-0.5 135.5,-19.5 173.5,-19.5 173.5,-0.5 135.5,-0.5"/>
<text text-anchor="middle" x="154.5" y="-7.5" font-family="Helvetica,sans-Serif" font-size="10.00">efc.h</text>
</g>
<!-- Node0&#45;&gt;Node20 -->
<g id="edge3" class="edge"><title>Node0&#45;&gt;Node20</title>
<path fill="none" stroke="midnightblue" d="M112.502,-56.4979C121.17,-47.1071 131.439,-35.9829 139.653,-27.0848"/>
<polygon fill="midnightblue" stroke="midnightblue" points="142.302,-29.3745 146.513,-19.6525 137.158,-24.6266 142.302,-29.3745"/>
</g>
</g>
</svg>
