<?xml version="1.0" encoding="UTF-8" standalone="no"?>
<!DOCTYPE svg PUBLIC "-//W3C//DTD SVG 1.1//EN"
 "http://www.w3.org/Graphics/SVG/1.1/DTD/svg11.dtd">
<!-- Generated by graphviz version 2.38.0 (20140413.2041)
 -->
<!-- Title: SystemCoreClockUpdate Pages: 1 -->
<svg width="284pt" height="104pt"
 viewBox="0.00 0.00 284.00 104.00" xmlns="http://www.w3.org/2000/svg" xmlns:xlink="http://www.w3.org/1999/xlink">
<g id="graph0" class="graph" transform="scale(1 1) rotate(0) translate(4 100)">
<title>SystemCoreClockUpdate</title>
<polygon fill="white" stroke="none" points="-4,4 -4,-100 280,-100 280,4 -4,4"/>
<!-- Node8 -->
<g id="node1" class="node"><title>Node8</title>
<polygon fill="#bfbfbf" stroke="black" points="0,-38.5 0,-57.5 126,-57.5 126,-38.5 0,-38.5"/>
<text text-anchor="middle" x="63" y="-45.5" font-family="Helvetica,sans-Serif" font-size="10.00">SystemCoreClockUpdate</text>
</g>
<!-- Node9 -->
<g id="node2" class="node"><title>Node9</title>
<g id="a_node2"><a xlink:href="group__sysclk__group.xhtml#ga37ecf2eb697a2fedfff47af0b6f45562" target="_top" xlink:title="Set system clock prescaler configuration. ">
<polygon fill="white" stroke="red" points="162,-76.5 162,-95.5 276,-95.5 276,-76.5 162,-76.5"/>
<text text-anchor="middle" x="219" y="-83.5" font-family="Helvetica,sans-Serif" font-size="10.00">sysclk_set_prescalers</text>
</a>
</g>
</g>
<!-- Node8&#45;&gt;Node9 -->
<g id="edge1" class="edge"><title>Node8&#45;&gt;Node9</title>
<path fill="none" stroke="midnightblue" d="M112.794,-60.04C134.308,-65.3488 159.232,-71.4988 179.419,-76.4799"/>
<polygon fill="midnightblue" stroke="midnightblue" points="113.408,-56.5867 102.861,-57.589 111.731,-63.3828 113.408,-56.5867"/>
</g>
<!-- Node12 -->
<g id="node3" class="node"><title>Node12</title>
<g id="a_node3"><a xlink:href="group__sysclk__group.xhtml#gaaf2d50871a130ef8546cea34ed6ca6f8" target="_top" xlink:title="Change the source of the main system clock. ">
<polygon fill="white" stroke="red" points="170,-38.5 170,-57.5 268,-57.5 268,-38.5 170,-38.5"/>
<text text-anchor="middle" x="219" y="-45.5" font-family="Helvetica,sans-Serif" font-size="10.00">sysclk_set_source</text>
</a>
</g>
</g>
<!-- Node8&#45;&gt;Node12 -->
<g id="edge2" class="edge"><title>Node8&#45;&gt;Node12</title>
<path fill="none" stroke="midnightblue" d="M136.499,-48C147.791,-48 159.212,-48 169.787,-48"/>
<polygon fill="midnightblue" stroke="midnightblue" points="136.194,-44.5001 126.194,-48 136.194,-51.5001 136.194,-44.5001"/>
</g>
<!-- Node13 -->
<g id="node4" class="node"><title>Node13</title>
<g id="a_node4"><a xlink:href="group__sysclk__group.xhtml#ga242399e48a97739c88b4d0c00f6101de" target="_top" xlink:title="Initialize the synchronous clock system. ">
<polygon fill="white" stroke="red" points="187.5,-0.5 187.5,-19.5 250.5,-19.5 250.5,-0.5 187.5,-0.5"/>
<text text-anchor="middle" x="219" y="-7.5" font-family="Helvetica,sans-Serif" font-size="10.00">sysclk_init</text>
</a>
</g>
</g>
<!-- Node8&#45;&gt;Node13 -->
<g id="edge3" class="edge"><title>Node8&#45;&gt;Node13</title>
<path fill="none" stroke="midnightblue" d="M112.693,-35.9849C137.166,-29.946 166.072,-22.8134 187.402,-17.5502"/>
<polygon fill="midnightblue" stroke="midnightblue" points="111.731,-32.6172 102.861,-38.411 113.408,-39.4133 111.731,-32.6172"/>
</g>
</g>
</svg>
