<?xml version="1.0" encoding="UTF-8" standalone="no"?>
<!DOCTYPE svg PUBLIC "-//W3C//DTD SVG 1.1//EN"
 "http://www.w3.org/Graphics/SVG/1.1/DTD/svg11.dtd">
<!-- Generated by graphviz version 2.38.0 (20140413.2041)
 -->
<!-- Title: uxTaskGetNumberOfTasks Pages: 1 -->
<svg width="297pt" height="218pt"
 viewBox="0.00 0.00 297.00 218.00" xmlns="http://www.w3.org/2000/svg" xmlns:xlink="http://www.w3.org/1999/xlink">
<g id="graph0" class="graph" transform="scale(1 1) rotate(0) translate(4 214)">
<title>uxTaskGetNumberOfTasks</title>
<polygon fill="white" stroke="none" points="-4,4 -4,-214 293,-214 293,4 -4,4"/>
<!-- Node3 -->
<g id="node1" class="node"><title>Node3</title>
<polygon fill="#bfbfbf" stroke="black" points="0,-95.5 0,-114.5 134,-114.5 134,-95.5 0,-95.5"/>
<text text-anchor="middle" x="67" y="-102.5" font-family="Helvetica,sans-Serif" font-size="10.00">uxTaskGetNumberOfTasks</text>
</g>
<!-- Node4 -->
<g id="node2" class="node"><title>Node4</title>
<g id="a_node2"><a xlink:href="task_8h.xhtml#a094a608b1b19b9d3cb41254661653ec2" target="_top" xlink:title="vTaskList">
<polygon fill="white" stroke="black" points="201,-190.5 201,-209.5 258,-209.5 258,-190.5 201,-190.5"/>
<text text-anchor="middle" x="229.5" y="-197.5" font-family="Helvetica,sans-Serif" font-size="10.00">vTaskList</text>
</a>
</g>
</g>
<!-- Node3&#45;&gt;Node4 -->
<g id="edge1" class="edge"><title>Node3&#45;&gt;Node4</title>
<path fill="none" stroke="midnightblue" d="M78.5243,-114.708C96.2013,-130.563 133.513,-162.135 170,-181 176.652,-184.439 184.049,-187.42 191.284,-189.935"/>
<polygon fill="midnightblue" stroke="midnightblue" points="190.372,-193.319 200.964,-193.076 192.533,-186.661 190.372,-193.319"/>
</g>
<!-- Node5 -->
<g id="node3" class="node"><title>Node5</title>
<g id="a_node3"><a xlink:href="tasks_8c.xhtml#a084d232640bd1d04bcac0b8784417015" target="_top" xlink:title="vTaskSuspendAll">
<polygon fill="white" stroke="black" points="184,-152.5 184,-171.5 275,-171.5 275,-152.5 184,-152.5"/>
<text text-anchor="middle" x="229.5" y="-159.5" font-family="Helvetica,sans-Serif" font-size="10.00">vTaskSuspendAll</text>
</a>
</g>
</g>
<!-- Node3&#45;&gt;Node5 -->
<g id="edge2" class="edge"><title>Node3&#45;&gt;Node5</title>
<path fill="none" stroke="midnightblue" d="M92.6269,-114.51C113.22,-122.381 143.411,-133.734 170,-143 176.022,-145.099 182.418,-147.252 188.685,-149.32"/>
<polygon fill="midnightblue" stroke="midnightblue" points="187.764,-152.701 198.357,-152.481 189.938,-146.048 187.764,-152.701"/>
</g>
<!-- Node6 -->
<g id="node4" class="node"><title>Node6</title>
<g id="a_node4"><a xlink:href="tasks_8c.xhtml#ab173f313b22f1a57dfceb98cb01b0508" target="_top" xlink:title="xTaskResumeAll">
<polygon fill="white" stroke="red" points="184.5,-114.5 184.5,-133.5 274.5,-133.5 274.5,-114.5 184.5,-114.5"/>
<text text-anchor="middle" x="229.5" y="-121.5" font-family="Helvetica,sans-Serif" font-size="10.00">xTaskResumeAll</text>
</a>
</g>
</g>
<!-- Node3&#45;&gt;Node6 -->
<g id="edge3" class="edge"><title>Node3&#45;&gt;Node6</title>
<path fill="none" stroke="midnightblue" d="M134.208,-112.838C147.563,-114.419 161.453,-116.063 174.337,-117.588"/>
<polygon fill="midnightblue" stroke="midnightblue" points="174.082,-121.082 184.424,-118.782 174.905,-114.131 174.082,-121.082"/>
</g>
<!-- Node12 -->
<g id="node5" class="node"><title>Node12</title>
<g id="a_node5"><a xlink:href="task_8h.xhtml#ac34910d5eac69f0538ee218e527663a7" target="_top" xlink:title="vTaskGetRunTimeStats">
<polygon fill="white" stroke="black" points="170,-76.5 170,-95.5 289,-95.5 289,-76.5 170,-76.5"/>
<text text-anchor="middle" x="229.5" y="-83.5" font-family="Helvetica,sans-Serif" font-size="10.00">vTaskGetRunTimeStats</text>
</a>
</g>
</g>
<!-- Node3&#45;&gt;Node12 -->
<g id="edge4" class="edge"><title>Node3&#45;&gt;Node12</title>
<path fill="none" stroke="midnightblue" d="M134.208,-97.1623C142.619,-96.1667 151.241,-95.1459 159.691,-94.1456"/>
<polygon fill="midnightblue" stroke="midnightblue" points="160.368,-97.59 169.887,-92.9386 159.545,-90.6386 160.368,-97.59"/>
</g>
<!-- Node13 -->
<g id="node6" class="node"><title>Node13</title>
<g id="a_node6"><a xlink:href="task_8h.xhtml#ab9efbfbcd061ffbdce03badeb3cd3e90" target="_top" xlink:title="vTaskStartTrace">
<polygon fill="white" stroke="black" points="186.5,-38.5 186.5,-57.5 272.5,-57.5 272.5,-38.5 186.5,-38.5"/>
<text text-anchor="middle" x="229.5" y="-45.5" font-family="Helvetica,sans-Serif" font-size="10.00">vTaskStartTrace</text>
</a>
</g>
</g>
<!-- Node3&#45;&gt;Node13 -->
<g id="edge5" class="edge"><title>Node3&#45;&gt;Node13</title>
<path fill="none" stroke="midnightblue" d="M92.6269,-95.49C113.22,-87.6186 143.411,-76.2659 170,-67 176.022,-64.9014 182.418,-62.748 188.685,-60.6795"/>
<polygon fill="midnightblue" stroke="midnightblue" points="189.938,-63.9522 198.357,-57.5191 187.764,-57.2985 189.938,-63.9522"/>
</g>
<!-- Node14 -->
<g id="node7" class="node"><title>Node14</title>
<g id="a_node7"><a xlink:href="task_8h.xhtml#afb02a17b00744a171ae95708caa5d4e1" target="_top" xlink:title="ulTaskEndTrace">
<polygon fill="white" stroke="black" points="186.5,-0.5 186.5,-19.5 272.5,-19.5 272.5,-0.5 186.5,-0.5"/>
<text text-anchor="middle" x="229.5" y="-7.5" font-family="Helvetica,sans-Serif" font-size="10.00">ulTaskEndTrace</text>
</a>
</g>
</g>
<!-- Node3&#45;&gt;Node14 -->
<g id="edge6" class="edge"><title>Node3&#45;&gt;Node14</title>
<path fill="none" stroke="midnightblue" d="M78.5243,-95.292C96.2013,-79.4369 133.513,-47.8655 170,-29 174.224,-26.8159 178.749,-24.8168 183.341,-23.0043"/>
<polygon fill="midnightblue" stroke="midnightblue" points="184.602,-26.2701 192.79,-19.5468 182.196,-19.6964 184.602,-26.2701"/>
</g>
</g>
</svg>
