<?xml version="1.0" encoding="UTF-8" standalone="no"?>
<!DOCTYPE svg PUBLIC "-//W3C//DTD SVG 1.1//EN"
 "http://www.w3.org/Graphics/SVG/1.1/DTD/svg11.dtd">
<!-- Generated by graphviz version 2.38.0 (20140413.2041)
 -->
<!-- Title: task_xethru_init Pages: 1 -->
<svg width="252pt" height="180pt"
 viewBox="0.00 0.00 252.00 180.00" xmlns="http://www.w3.org/2000/svg" xmlns:xlink="http://www.w3.org/1999/xlink">
<g id="graph0" class="graph" transform="scale(1 1) rotate(0) translate(4 176)">
<title>task_xethru_init</title>
<polygon fill="white" stroke="none" points="-4,4 -4,-176 248,-176 248,4 -4,4"/>
<!-- Node486 -->
<g id="node1" class="node"><title>Node486</title>
<polygon fill="#bfbfbf" stroke="black" points="0,-76.5 0,-95.5 86,-95.5 86,-76.5 0,-76.5"/>
<text text-anchor="middle" x="43" y="-83.5" font-family="Helvetica,sans-Serif" font-size="10.00">task_xethru_init</text>
</g>
<!-- Node487 -->
<g id="node2" class="node"><title>Node487</title>
<g id="a_node2"><a xlink:href="group__freertos__usart__peripheral__control__group.xhtml#ga09bccd303f0eafa482a0ffb56d0438b8" target="_top" xlink:title="Initializes the FreeRTOS ASF USART driver for the specified USART port. ">
<polygon fill="white" stroke="red" points="122,-152.5 122,-171.5 244,-171.5 244,-152.5 122,-152.5"/>
<text text-anchor="middle" x="183" y="-159.5" font-family="Helvetica,sans-Serif" font-size="10.00">freertos_usart_serial_init</text>
</a>
</g>
</g>
<!-- Node486&#45;&gt;Node487 -->
<g id="edge1" class="edge"><title>Node486&#45;&gt;Node487</title>
<path fill="none" stroke="midnightblue" d="M54.621,-95.5247C68.9813,-107.971 95.8165,-129.737 122,-143 126.341,-145.199 130.987,-147.207 135.7,-149.026"/>
<polygon fill="midnightblue" stroke="midnightblue" points="134.801,-152.421 145.395,-152.49 137.156,-145.829 134.801,-152.421"/>
</g>
<!-- Node529 -->
<g id="node3" class="node"><title>Node529</title>
<g id="a_node3"><a xlink:href="queue_8h.xhtml#ab3b70d2ace0dea373bc8057dc2718046" target="_top" xlink:title="xQueueCreate">
<polygon fill="white" stroke="black" points="143.5,-114.5 143.5,-133.5 222.5,-133.5 222.5,-114.5 143.5,-114.5"/>
<text text-anchor="middle" x="183" y="-121.5" font-family="Helvetica,sans-Serif" font-size="10.00">xQueueCreate</text>
</a>
</g>
</g>
<!-- Node486&#45;&gt;Node529 -->
<g id="edge2" class="edge"><title>Node486&#45;&gt;Node529</title>
<path fill="none" stroke="midnightblue" d="M78.8232,-95.589C96.6377,-100.494 118.518,-106.52 137.539,-111.757"/>
<polygon fill="midnightblue" stroke="midnightblue" points="136.618,-115.134 147.188,-114.414 138.476,-108.385 136.618,-115.134"/>
</g>
<!-- Node530 -->
<g id="node4" class="node"><title>Node530</title>
<g id="a_node4"><a xlink:href="task__xethru_8c.xhtml#a06f1ac139b4394bb6f267fdcbec56add" target="_top" xlink:title="xethru_usart_tx_task">
<polygon fill="white" stroke="red" points="129,-76.5 129,-95.5 237,-95.5 237,-76.5 129,-76.5"/>
<text text-anchor="middle" x="183" y="-83.5" font-family="Helvetica,sans-Serif" font-size="10.00">xethru_usart_tx_task</text>
</a>
</g>
</g>
<!-- Node486&#45;&gt;Node530 -->
<g id="edge3" class="edge"><title>Node486&#45;&gt;Node530</title>
<path fill="none" stroke="midnightblue" d="M86.1544,-86C96.4711,-86 107.736,-86 118.801,-86"/>
<polygon fill="midnightblue" stroke="midnightblue" points="118.874,-89.5001 128.874,-86 118.874,-82.5001 118.874,-89.5001"/>
</g>
<!-- Node538 -->
<g id="node5" class="node"><title>Node538</title>
<g id="a_node5"><a xlink:href="task__xethru_8c.xhtml#a90fd04986fde4c34053b332424000bca" target="_top" xlink:title="xethru_usart_rx_task">
<polygon fill="white" stroke="red" points="129,-38.5 129,-57.5 237,-57.5 237,-38.5 129,-38.5"/>
<text text-anchor="middle" x="183" y="-45.5" font-family="Helvetica,sans-Serif" font-size="10.00">xethru_usart_rx_task</text>
</a>
</g>
</g>
<!-- Node486&#45;&gt;Node538 -->
<g id="edge4" class="edge"><title>Node486&#45;&gt;Node538</title>
<path fill="none" stroke="midnightblue" d="M78.8232,-76.411C96.6377,-71.5056 118.518,-65.4804 137.539,-60.2429"/>
<polygon fill="midnightblue" stroke="midnightblue" points="138.476,-63.6152 147.188,-57.5859 136.618,-56.8664 138.476,-63.6152"/>
</g>
<!-- Node608 -->
<g id="node6" class="node"><title>Node608</title>
<g id="a_node6"><a xlink:href="task__xethru_8c.xhtml#ab838415e708ffc71189fcdceb057dac5" target="_top" xlink:title="xethru_task">
<polygon fill="white" stroke="red" points="149,-0.5 149,-19.5 217,-19.5 217,-0.5 149,-0.5"/>
<text text-anchor="middle" x="183" y="-7.5" font-family="Helvetica,sans-Serif" font-size="10.00">xethru_task</text>
</a>
</g>
</g>
<!-- Node486&#45;&gt;Node608 -->
<g id="edge5" class="edge"><title>Node486&#45;&gt;Node608</title>
<path fill="none" stroke="midnightblue" d="M54.621,-76.4753C68.9813,-64.0294 95.8165,-42.2634 122,-29 127.37,-26.2797 133.208,-23.8503 139.063,-21.7126"/>
<polygon fill="midnightblue" stroke="midnightblue" points="140.509,-24.9181 148.854,-18.3904 138.26,-18.2892 140.509,-24.9181"/>
</g>
</g>
</svg>
