<?xml version="1.0" encoding="UTF-8" standalone="no"?>
<!DOCTYPE svg PUBLIC "-//W3C//DTD SVG 1.1//EN"
 "http://www.w3.org/Graphics/SVG/1.1/DTD/svg11.dtd">
<!-- Generated by graphviz version 2.38.0 (20140413.2041)
 -->
<!-- Title: mcpw_on_host_parser_presence_moving_list Pages: 1 -->
<svg width="270pt" height="72pt"
 viewBox="0.00 0.00 270.00 71.50" xmlns="http://www.w3.org/2000/svg" xmlns:xlink="http://www.w3.org/1999/xlink">
<g id="graph0" class="graph" transform="scale(1 1) rotate(0) translate(4 67.5)">
<title>mcpw_on_host_parser_presence_moving_list</title>
<polygon fill="white" stroke="none" points="-4,4 -4,-67.5 266,-67.5 266,4 -4,4"/>
<!-- Node264 -->
<g id="node1" class="node"><title>Node264</title>
<polygon fill="#bfbfbf" stroke="black" points="0,-33 0,-63 115,-63 115,-33 0,-33"/>
<text text-anchor="start" x="8" y="-51" font-family="Helvetica,sans-Serif" font-size="10.00">mcpw_on_host_parser</text>
<text text-anchor="middle" x="57.5" y="-40" font-family="Helvetica,sans-Serif" font-size="10.00">_presence_moving_list</text>
</g>
<!-- Node265 -->
<g id="node2" class="node"><title>Node265</title>
<g id="a_node2"><a xlink:href="task__xethru_8c.xhtml#a5f4d12ccbf9dfb5705a3fe8340adb200" target="_top" xlink:title="printf_float">
<polygon fill="white" stroke="red" points="176,-38.5 176,-57.5 237,-57.5 237,-38.5 176,-38.5"/>
<text text-anchor="middle" x="206.5" y="-45.5" font-family="Helvetica,sans-Serif" font-size="10.00">printf_float</text>
</a>
</g>
</g>
<!-- Node264&#45;&gt;Node265 -->
<g id="edge1" class="edge"><title>Node264&#45;&gt;Node265</title>
<path fill="none" stroke="midnightblue" d="M125.633,-41.2726C143.274,-41.1473 161.408,-41.5439 175.929,-42.4625"/>
<polygon fill="midnightblue" stroke="midnightblue" points="125.288,-37.7767 115.334,-41.4067 125.379,-44.7761 125.288,-37.7767"/>
</g>
<!-- Node273 -->
<g id="node3" class="node"><title>Node273</title>
<g id="a_node3"><a xlink:href="task__xethru_8c.xhtml#a54c65348b306e1067cb83cfd0b41cfe6" target="_top" xlink:title="mcpw_demo_x4m300">
<polygon fill="white" stroke="red" points="151,-0.5 151,-19.5 262,-19.5 262,-0.5 151,-0.5"/>
<text text-anchor="middle" x="206.5" y="-7.5" font-family="Helvetica,sans-Serif" font-size="10.00">mcpw_demo_x4m300</text>
</a>
</g>
</g>
<!-- Node264&#45;&gt;Node273 -->
<g id="edge3" class="edge"><title>Node264&#45;&gt;Node273</title>
<path fill="none" stroke="midnightblue" d="M125.023,-30.8037C139.89,-26.9605 155.141,-23.018 168.314,-19.6128"/>
<polygon fill="midnightblue" stroke="midnightblue" points="124.14,-27.4168 115.334,-33.3082 125.892,-34.194 124.14,-27.4168"/>
</g>
<!-- Node265&#45;&gt;Node264 -->
<g id="edge2" class="edge"><title>Node265&#45;&gt;Node264</title>
<path fill="none" stroke="midnightblue" d="M165.659,-54.0768C150.171,-54.7421 132.139,-54.9143 115.334,-54.5933"/>
<polygon fill="midnightblue" stroke="midnightblue" points="166.127,-57.5572 175.929,-53.5375 165.759,-50.5668 166.127,-57.5572"/>
</g>
</g>
</svg>
