<?xml version="1.0" encoding="UTF-8" standalone="no"?>
<!DOCTYPE svg PUBLIC "-//W3C//DTD SVG 1.1//EN"
 "http://www.w3.org/Graphics/SVG/1.1/DTD/svg11.dtd">
<!-- Generated by graphviz version 2.38.0 (20140413.2041)
 -->
<!-- Title: mcpw_on_host_parser_presence_moving_list Pages: 1 -->
<svg width="231pt" height="104pt"
 viewBox="0.00 0.00 231.00 104.00" xmlns="http://www.w3.org/2000/svg" xmlns:xlink="http://www.w3.org/1999/xlink">
<g id="graph0" class="graph" transform="scale(1 1) rotate(0) translate(4 100)">
<title>mcpw_on_host_parser_presence_moving_list</title>
<polygon fill="white" stroke="none" points="-4,4 -4,-100 227,-100 227,4 -4,4"/>
<!-- Node242 -->
<g id="node1" class="node"><title>Node242</title>
<polygon fill="#bfbfbf" stroke="black" points="0,-14 0,-44 115,-44 115,-14 0,-14"/>
<text text-anchor="start" x="8" y="-32" font-family="Helvetica,sans-Serif" font-size="10.00">mcpw_on_host_parser</text>
<text text-anchor="middle" x="57.5" y="-21" font-family="Helvetica,sans-Serif" font-size="10.00">_presence_moving_list</text>
</g>
<!-- Node243 -->
<g id="node2" class="node"><title>Node243</title>
<g id="a_node2"><a xlink:href="portable_8h.xhtml#a237d63f90b28e0950bd86f76815cd6e3" target="_top" xlink:title="pvPortMalloc">
<polygon fill="white" stroke="red" points="151,-76.5 151,-95.5 223,-95.5 223,-76.5 151,-76.5"/>
<text text-anchor="middle" x="187" y="-83.5" font-family="Helvetica,sans-Serif" font-size="10.00">pvPortMalloc</text>
</a>
</g>
</g>
<!-- Node242&#45;&gt;Node243 -->
<g id="edge1" class="edge"><title>Node242&#45;&gt;Node243</title>
<path fill="none" stroke="midnightblue" d="M92.3329,-44.1253C111.808,-52.8319 136.101,-63.6922 155.066,-72.1708"/>
<polygon fill="midnightblue" stroke="midnightblue" points="153.887,-75.4774 164.445,-76.3635 156.744,-69.0869 153.887,-75.4774"/>
</g>
<!-- Node252 -->
<g id="node3" class="node"><title>Node252</title>
<g id="a_node3"><a xlink:href="portable_8h.xhtml#a735cd3085bb7ba06ff8e47565bfd7016" target="_top" xlink:title="vPortFree">
<polygon fill="white" stroke="red" points="158,-38.5 158,-57.5 216,-57.5 216,-38.5 158,-38.5"/>
<text text-anchor="middle" x="187" y="-45.5" font-family="Helvetica,sans-Serif" font-size="10.00">vPortFree</text>
</a>
</g>
</g>
<!-- Node242&#45;&gt;Node252 -->
<g id="edge2" class="edge"><title>Node242&#45;&gt;Node252</title>
<path fill="none" stroke="midnightblue" d="M115.166,-37.4443C126.124,-39.0773 137.365,-40.7524 147.572,-42.2735"/>
<polygon fill="midnightblue" stroke="midnightblue" points="147.372,-45.7823 157.779,-43.7945 148.404,-38.8587 147.372,-45.7823"/>
</g>
<!-- Node253 -->
<g id="node4" class="node"><title>Node253</title>
<g id="a_node4"><a xlink:href="task__xethru_8c.xhtml#a5f4d12ccbf9dfb5705a3fe8340adb200" target="_top" xlink:title="printf_float">
<polygon fill="white" stroke="red" points="156.5,-0.5 156.5,-19.5 217.5,-19.5 217.5,-0.5 156.5,-0.5"/>
<text text-anchor="middle" x="187" y="-7.5" font-family="Helvetica,sans-Serif" font-size="10.00">printf_float</text>
</a>
</g>
</g>
<!-- Node242&#45;&gt;Node253 -->
<g id="edge3" class="edge"><title>Node242&#45;&gt;Node253</title>
<path fill="none" stroke="midnightblue" d="M114.423,-13.9617C125.15,-12.2382 136.176,-10.7283 146.263,-9.61653"/>
<polygon fill="midnightblue" stroke="midnightblue" points="146.779,-13.0826 156.383,-8.60991 146.086,-6.117 146.779,-13.0826"/>
</g>
<!-- Node253&#45;&gt;Node242 -->
<g id="edge4" class="edge"><title>Node253&#45;&gt;Node242</title>
<path fill="none" stroke="midnightblue" d="M159.461,-19.5561C149.402,-21.7609 137.442,-23.9238 125.334,-25.7834"/>
<polygon fill="midnightblue" stroke="midnightblue" points="124.555,-22.3599 115.166,-27.2685 125.567,-29.2865 124.555,-22.3599"/>
</g>
</g>
</svg>
