<?xml version="1.0" encoding="UTF-8" standalone="no"?>
<!DOCTYPE svg PUBLIC "-//W3C//DTD SVG 1.1//EN"
 "http://www.w3.org/Graphics/SVG/1.1/DTD/svg11.dtd">
<!-- Generated by graphviz version 2.38.0 (20140413.2041)
 -->
<!-- Title: printf_float Pages: 1 -->
<svg width="230pt" height="437pt"
 viewBox="0.00 0.00 230.00 436.50" xmlns="http://www.w3.org/2000/svg" xmlns:xlink="http://www.w3.org/1999/xlink">
<g id="graph0" class="graph" transform="scale(1 1) rotate(0) translate(4 432.5)">
<title>printf_float</title>
<polygon fill="white" stroke="none" points="-4,4 -4,-432.5 226,-432.5 226,4 -4,4"/>
<!-- Node450 -->
<g id="node1" class="node"><title>Node450</title>
<polygon fill="#bfbfbf" stroke="black" points="0,-202 0,-221 61,-221 61,-202 0,-202"/>
<text text-anchor="middle" x="30.5" y="-209" font-family="Helvetica,sans-Serif" font-size="10.00">printf_float</text>
</g>
<!-- Node451 -->
<g id="node2" class="node"><title>Node451</title>
<g id="a_node2"><a xlink:href="task__xethru_8c.xhtml#aaee208ebf2b292e2ee902fc38f03e6d3" target="_top" xlink:title="mcpw_send_bytes">
<polygon fill="white" stroke="black" points="110.5,-409 110.5,-428 208.5,-428 208.5,-409 110.5,-409"/>
<text text-anchor="middle" x="159.5" y="-416" font-family="Helvetica,sans-Serif" font-size="10.00">mcpw_send_bytes</text>
</a>
</g>
</g>
<!-- Node450&#45;&gt;Node451 -->
<g id="edge1" class="edge"><title>Node450&#45;&gt;Node451</title>
<path fill="none" stroke="midnightblue" d="M31.9393,-221.304C33.8595,-252.178 44.0246,-348.378 97,-399.5 98.6334,-401.076 100.395,-402.522 102.254,-403.848"/>
<polygon fill="midnightblue" stroke="midnightblue" points="100.534,-406.897 110.932,-408.928 104.07,-400.856 100.534,-406.897"/>
</g>
<!-- Node452 -->
<g id="node3" class="node"><title>Node452</title>
<g id="a_node3"><a xlink:href="task__xethru_8c.xhtml#a52b9d69168805fb3152bb63f74bd4bde" target="_top" xlink:title="mcpw_wait_for_response">
<polygon fill="white" stroke="black" points="97,-371 97,-390 222,-390 222,-371 97,-371"/>
<text text-anchor="middle" x="159.5" y="-378" font-family="Helvetica,sans-Serif" font-size="10.00">mcpw_wait_for_response</text>
</a>
</g>
</g>
<!-- Node450&#45;&gt;Node452 -->
<g id="edge2" class="edge"><title>Node450&#45;&gt;Node452</title>
<path fill="none" stroke="midnightblue" d="M32.8968,-221.189C37.2338,-247.706 52.9309,-322.112 97,-361.5 98.7602,-363.073 100.649,-364.516 102.632,-365.84"/>
<polygon fill="midnightblue" stroke="midnightblue" points="101.388,-369.15 111.835,-370.91 104.766,-363.019 101.388,-369.15"/>
</g>
<!-- Node453 -->
<g id="node4" class="node"><title>Node453</title>
<g id="a_node4"><a xlink:href="task__xethru_8c.xhtml#a096853bdfdec199c03de9b0933397a3c" target="_top" xlink:title="mcpw_response_ready">
<polygon fill="white" stroke="black" points="101.5,-333 101.5,-352 217.5,-352 217.5,-333 101.5,-333"/>
<text text-anchor="middle" x="159.5" y="-340" font-family="Helvetica,sans-Serif" font-size="10.00">mcpw_response_ready</text>
</a>
</g>
</g>
<!-- Node450&#45;&gt;Node453 -->
<g id="edge3" class="edge"><title>Node450&#45;&gt;Node453</title>
<path fill="none" stroke="midnightblue" d="M34.4649,-221.214C41.5807,-242.891 61.7056,-295.502 97,-323.5 99.2982,-325.323 101.772,-326.972 104.36,-328.463"/>
<polygon fill="midnightblue" stroke="midnightblue" points="102.998,-331.694 113.518,-332.951 106.079,-325.408 102.998,-331.694"/>
</g>
<!-- Node454 -->
<g id="node5" class="node"><title>Node454</title>
<g id="a_node5"><a xlink:href="task__xethru_8c.xhtml#a0961e6647507bdf05de36c253e814ed5" target="_top" xlink:title="mcpw_delay">
<polygon fill="white" stroke="red" points="124,-295 124,-314 195,-314 195,-295 124,-295"/>
<text text-anchor="middle" x="159.5" y="-302" font-family="Helvetica,sans-Serif" font-size="10.00">mcpw_delay</text>
</a>
</g>
</g>
<!-- Node450&#45;&gt;Node454 -->
<g id="edge4" class="edge"><title>Node450&#45;&gt;Node454</title>
<path fill="none" stroke="midnightblue" d="M37.4988,-221.192C47.7581,-236.975 70.1841,-268.2 97,-285.5 102.3,-288.919 108.252,-291.754 114.311,-294.096"/>
<polygon fill="midnightblue" stroke="midnightblue" points="113.247,-297.432 123.842,-297.384 115.53,-290.814 113.247,-297.432"/>
</g>
<!-- Node456 -->
<g id="node6" class="node"><title>Node456</title>
<g id="a_node6"><a xlink:href="task__xethru_8c.xhtml#ab7b621e6b0a11ab7647762d91f554793" target="_top" xlink:title="mcpw_on_host_parser\l_sleep">
<polygon fill="white" stroke="black" points="102.5,-245.5 102.5,-275.5 216.5,-275.5 216.5,-245.5 102.5,-245.5"/>
<text text-anchor="start" x="110.5" y="-263.5" font-family="Helvetica,sans-Serif" font-size="10.00">mcpw_on_host_parser</text>
<text text-anchor="middle" x="159.5" y="-252.5" font-family="Helvetica,sans-Serif" font-size="10.00">_sleep</text>
</a>
</g>
</g>
<!-- Node450&#45;&gt;Node456 -->
<g id="edge5" class="edge"><title>Node450&#45;&gt;Node456</title>
<path fill="none" stroke="midnightblue" d="M61.2759,-217.168C80.1774,-223.308 104.695,-232.687 124.38,-241.274"/>
<polygon fill="midnightblue" stroke="midnightblue" points="123.053,-244.514 133.61,-245.408 125.915,-238.126 123.053,-244.514"/>
</g>
<!-- Node457 -->
<g id="node7" class="node"><title>Node457</title>
<g id="a_node7"><a xlink:href="task__xethru_8c.xhtml#a539e9c99b70d1c9933dfae0ce672acc0" target="_top" xlink:title="mcpw_on_host_parser\l_respiration">
<polygon fill="white" stroke="black" points="102.5,-196.5 102.5,-226.5 216.5,-226.5 216.5,-196.5 102.5,-196.5"/>
<text text-anchor="start" x="110.5" y="-214.5" font-family="Helvetica,sans-Serif" font-size="10.00">mcpw_on_host_parser</text>
<text text-anchor="middle" x="159.5" y="-203.5" font-family="Helvetica,sans-Serif" font-size="10.00">_respiration</text>
</a>
</g>
</g>
<!-- Node450&#45;&gt;Node457 -->
<g id="edge7" class="edge"><title>Node450&#45;&gt;Node457</title>
<path fill="none" stroke="midnightblue" d="M61.2759,-205.68C70.706,-205.104 81.5341,-204.796 92.4625,-204.755"/>
<polygon fill="midnightblue" stroke="midnightblue" points="92.4769,-208.255 102.49,-204.792 92.5029,-201.255 92.4769,-208.255"/>
</g>
<!-- Node458 -->
<g id="node8" class="node"><title>Node458</title>
<g id="a_node8"><a xlink:href="task__xethru_8c.xhtml#ac16c15ae1525fa123c03ae9609b0526d" target="_top" xlink:title="mcpw_on_host_parser\l_respiration_moving_list">
<polygon fill="white" stroke="red" points="99.5,-147.5 99.5,-177.5 219.5,-177.5 219.5,-147.5 99.5,-147.5"/>
<text text-anchor="start" x="107.5" y="-165.5" font-family="Helvetica,sans-Serif" font-size="10.00">mcpw_on_host_parser</text>
<text text-anchor="middle" x="159.5" y="-154.5" font-family="Helvetica,sans-Serif" font-size="10.00">_respiration_moving_list</text>
</a>
</g>
</g>
<!-- Node450&#45;&gt;Node458 -->
<g id="edge9" class="edge"><title>Node450&#45;&gt;Node458</title>
<path fill="none" stroke="midnightblue" d="M45.0912,-201.886C56.8068,-195.843 74.6452,-188.168 92.7295,-181.13"/>
<polygon fill="midnightblue" stroke="midnightblue" points="94.0861,-184.358 102.178,-177.519 91.5872,-177.82 94.0861,-184.358"/>
</g>
<!-- Node469 -->
<g id="node9" class="node"><title>Node469</title>
<g id="a_node9"><a xlink:href="task__xethru_8c.xhtml#a273665b1dc773da28ea33615af1ba57f" target="_top" xlink:title="mcpw_on_host_parser\l_presence_single">
<polygon fill="white" stroke="black" points="102.5,-98.5 102.5,-128.5 216.5,-128.5 216.5,-98.5 102.5,-98.5"/>
<text text-anchor="start" x="110.5" y="-116.5" font-family="Helvetica,sans-Serif" font-size="10.00">mcpw_on_host_parser</text>
<text text-anchor="middle" x="159.5" y="-105.5" font-family="Helvetica,sans-Serif" font-size="10.00">_presence_single</text>
</a>
</g>
</g>
<!-- Node450&#45;&gt;Node469 -->
<g id="edge11" class="edge"><title>Node450&#45;&gt;Node469</title>
<path fill="none" stroke="midnightblue" d="M38.047,-201.701C48.746,-186.348 71.3704,-156.52 97,-138.5 99.6399,-136.644 102.438,-134.895 105.328,-133.251"/>
<polygon fill="midnightblue" stroke="midnightblue" points="106.949,-136.354 114.209,-128.637 103.721,-130.142 106.949,-136.354"/>
</g>
<!-- Node470 -->
<g id="node10" class="node"><title>Node470</title>
<g id="a_node10"><a xlink:href="task__xethru_8c.xhtml#ae7ef98041a23d07c679201f09db94a81" target="_top" xlink:title="mcpw_on_host_parser\l_presence_moving_list">
<polygon fill="white" stroke="red" points="102,-49.5 102,-79.5 217,-79.5 217,-49.5 102,-49.5"/>
<text text-anchor="start" x="110" y="-67.5" font-family="Helvetica,sans-Serif" font-size="10.00">mcpw_on_host_parser</text>
<text text-anchor="middle" x="159.5" y="-56.5" font-family="Helvetica,sans-Serif" font-size="10.00">_presence_moving_list</text>
</a>
</g>
</g>
<!-- Node450&#45;&gt;Node470 -->
<g id="edge12" class="edge"><title>Node450&#45;&gt;Node470</title>
<path fill="none" stroke="midnightblue" d="M33.1208,-201.76C38.3483,-178.485 56.4344,-122.042 94.5241,-83.5253"/>
<polygon fill="midnightblue" stroke="midnightblue" points="97.0258,-85.9764 101.87,-76.554 92.2074,-80.8987 97.0258,-85.9764"/>
</g>
<!-- Node471 -->
<g id="node11" class="node"><title>Node471</title>
<g id="a_node11"><a xlink:href="task__xethru_8c.xhtml#acb0abc99f3c7ab56eff1f77480d16d2c" target="_top" xlink:title="mcpw_on_host_parser\l_baseband_ap">
<polygon fill="white" stroke="black" points="102.5,-0.5 102.5,-30.5 216.5,-30.5 216.5,-0.5 102.5,-0.5"/>
<text text-anchor="start" x="110.5" y="-18.5" font-family="Helvetica,sans-Serif" font-size="10.00">mcpw_on_host_parser</text>
<text text-anchor="middle" x="159.5" y="-7.5" font-family="Helvetica,sans-Serif" font-size="10.00">_baseband_ap</text>
</a>
</g>
</g>
<!-- Node450&#45;&gt;Node471 -->
<g id="edge14" class="edge"><title>Node450&#45;&gt;Node471</title>
<path fill="none" stroke="midnightblue" d="M32.1175,-201.982C34.7361,-173.192 46.8855,-89.4532 95.3707,-34.2491"/>
<polygon fill="midnightblue" stroke="midnightblue" points="98.1915,-36.3563 102.456,-26.6576 93.0741,-31.5801 98.1915,-36.3563"/>
</g>
<!-- Node456&#45;&gt;Node450 -->
<g id="edge6" class="edge"><title>Node456&#45;&gt;Node450</title>
<path fill="none" stroke="midnightblue" d="M102.472,-245.591C85.4006,-239.196 67.598,-231.86 54.0933,-225.524"/>
<polygon fill="midnightblue" stroke="midnightblue" points="55.6114,-222.37 45.0912,-221.114 52.5321,-228.656 55.6114,-222.37"/>
</g>
<!-- Node457&#45;&gt;Node450 -->
<g id="edge8" class="edge"><title>Node457&#45;&gt;Node450</title>
<path fill="none" stroke="midnightblue" d="M102.49,-218.208C92.0651,-218.325 81.3674,-218.197 71.5415,-217.823"/>
<polygon fill="midnightblue" stroke="midnightblue" points="71.435,-214.313 61.2759,-217.32 71.0928,-221.305 71.435,-214.313"/>
</g>
<!-- Node458&#45;&gt;Node450 -->
<g id="edge10" class="edge"><title>Node458&#45;&gt;Node450</title>
<path fill="none" stroke="midnightblue" d="M133.61,-177.592C115.786,-185.812 91.4199,-195.483 70.9602,-202.575"/>
<polygon fill="midnightblue" stroke="midnightblue" points="69.6387,-199.327 61.2759,-205.832 71.8699,-205.962 69.6387,-199.327"/>
</g>
<!-- Node470&#45;&gt;Node450 -->
<g id="edge13" class="edge"><title>Node470&#45;&gt;Node450</title>
<path fill="none" stroke="midnightblue" d="M130.818,-79.5117C119.341,-84.1128 106.515,-89.9486 97,-98.5 67.7429,-124.793 49.1273,-167.315 39.5023,-192.229"/>
<polygon fill="midnightblue" stroke="midnightblue" points="36.1733,-191.138 35.9229,-201.73 42.7238,-193.606 36.1733,-191.138"/>
</g>
<!-- Node471&#45;&gt;Node450 -->
<g id="edge15" class="edge"><title>Node471&#45;&gt;Node450</title>
<path fill="none" stroke="midnightblue" d="M128.707,-30.5645C117.564,-34.988 105.551,-40.774 97,-49.5 57.0191,-90.3008 40.8939,-158.072 34.8329,-191.738"/>
<polygon fill="midnightblue" stroke="midnightblue" points="31.3546,-191.317 33.1433,-201.76 38.2572,-192.481 31.3546,-191.317"/>
</g>
</g>
</svg>
