<?xml version="1.0" encoding="UTF-8" standalone="no"?>
<!DOCTYPE svg PUBLIC "-//W3C//DTD SVG 1.1//EN"
 "http://www.w3.org/Graphics/SVG/1.1/DTD/svg11.dtd">
<!-- Generated by graphviz version 2.38.0 (20140413.2041)
 -->
<!-- Title: vTaskPlaceOnEventList Pages: 1 -->
<svg width="281pt" height="66pt"
 viewBox="0.00 0.00 281.00 66.00" xmlns="http://www.w3.org/2000/svg" xmlns:xlink="http://www.w3.org/1999/xlink">
<g id="graph0" class="graph" transform="scale(1 1) rotate(0) translate(4 62)">
<title>vTaskPlaceOnEventList</title>
<polygon fill="white" stroke="none" points="-4,4 -4,-62 277,-62 277,4 -4,4"/>
<!-- Node190 -->
<g id="node1" class="node"><title>Node190</title>
<polygon fill="#bfbfbf" stroke="black" points="0,-19.5 0,-38.5 119,-38.5 119,-19.5 0,-19.5"/>
<text text-anchor="middle" x="59.5" y="-26.5" font-family="Helvetica,sans-Serif" font-size="10.00">vTaskPlaceOnEventList</text>
</g>
<!-- Node191 -->
<g id="node2" class="node"><title>Node191</title>
<g id="a_node2"><a xlink:href="queue_8c.xhtml#a1ff8f61508bc9c0fa0abc44750fc1981" target="_top" xlink:title="xQueueGenericSend">
<polygon fill="white" stroke="red" points="160.5,-38.5 160.5,-57.5 267.5,-57.5 267.5,-38.5 160.5,-38.5"/>
<text text-anchor="middle" x="214" y="-45.5" font-family="Helvetica,sans-Serif" font-size="10.00">xQueueGenericSend</text>
</a>
</g>
</g>
<!-- Node190&#45;&gt;Node191 -->
<g id="edge1" class="edge"><title>Node190&#45;&gt;Node191</title>
<path fill="none" stroke="midnightblue" d="M129.025,-37.5375C139.546,-38.8484 150.266,-40.1839 160.371,-41.443"/>
<polygon fill="midnightblue" stroke="midnightblue" points="129.38,-34.0548 119.024,-36.2916 128.515,-41.0011 129.38,-34.0548"/>
</g>
<!-- Node193 -->
<g id="node3" class="node"><title>Node193</title>
<g id="a_node3"><a xlink:href="queue_8c.xhtml#a0424dce690a6a65558f16cc229b767bf" target="_top" xlink:title="xQueueGenericReceive">
<polygon fill="white" stroke="red" points="155,-0.5 155,-19.5 273,-19.5 273,-0.5 155,-0.5"/>
<text text-anchor="middle" x="214" y="-7.5" font-family="Helvetica,sans-Serif" font-size="10.00">xQueueGenericReceive</text>
</a>
</g>
</g>
<!-- Node190&#45;&gt;Node193 -->
<g id="edge2" class="edge"><title>Node190&#45;&gt;Node193</title>
<path fill="none" stroke="midnightblue" d="M129.061,-20.458C137.685,-19.3835 146.442,-18.2925 154.884,-17.2407"/>
<polygon fill="midnightblue" stroke="midnightblue" points="128.515,-16.9989 119.024,-21.7084 129.38,-23.9452 128.515,-16.9989"/>
</g>
</g>
</svg>
