<?xml version="1.0" encoding="UTF-8" standalone="no"?>
<!DOCTYPE svg PUBLIC "-//W3C//DTD SVG 1.1//EN"
 "http://www.w3.org/Graphics/SVG/1.1/DTD/svg11.dtd">
<!-- Generated by graphviz version 2.38.0 (20140413.2041)
 -->
<!-- Title: xethru_usart_rx_task Pages: 1 -->
<svg width="271pt" height="116pt"
 viewBox="0.00 0.00 271.00 115.50" xmlns="http://www.w3.org/2000/svg" xmlns:xlink="http://www.w3.org/1999/xlink">
<g id="graph0" class="graph" transform="scale(1 1) rotate(0) translate(4 111.5)">
<title>xethru_usart_rx_task</title>
<polygon fill="white" stroke="none" points="-4,4 -4,-111.5 267,-111.5 267,4 -4,4"/>
<!-- Node759 -->
<g id="node1" class="node"><title>Node759</title>
<polygon fill="#bfbfbf" stroke="black" points="0,-38.5 0,-57.5 108,-57.5 108,-38.5 0,-38.5"/>
<text text-anchor="middle" x="54" y="-45.5" font-family="Helvetica,sans-Serif" font-size="10.00">xethru_usart_rx_task</text>
</g>
<!-- Node760 -->
<g id="node2" class="node"><title>Node760</title>
<g id="a_node2"><a xlink:href="group__freertos__usart__peripheral__control__group.xhtml#ga9f4de374d2019244881290bf4943cb81" target="_top" xlink:title="Initiate a completely multi&#45;byte read operation on a USART peripheral. ">
<polygon fill="white" stroke="red" points="151.5,-77 151.5,-107 255.5,-107 255.5,-77 151.5,-77"/>
<text text-anchor="start" x="159.5" y="-95" font-family="Helvetica,sans-Serif" font-size="10.00">freertos_usart_serial</text>
<text text-anchor="middle" x="203.5" y="-84" font-family="Helvetica,sans-Serif" font-size="10.00">_read_packet</text>
</a>
</g>
</g>
<!-- Node759&#45;&gt;Node760 -->
<g id="edge1" class="edge"><title>Node759&#45;&gt;Node760</title>
<path fill="none" stroke="midnightblue" d="M87.0053,-57.5473C103.167,-62.3685 123.317,-68.3794 142.241,-74.0243"/>
<polygon fill="midnightblue" stroke="midnightblue" points="141.414,-77.4299 151.997,-76.9346 143.415,-70.722 141.414,-77.4299"/>
</g>
<!-- Node771 -->
<g id="node3" class="node"><title>Node771</title>
<g id="a_node3"><a xlink:href="mcp__wrapper_8c.xhtml#a8ecdd9878728971613009da765f48cd7" target="_top" xlink:title="mcpw_process_rx_data">
<polygon fill="white" stroke="red" points="144,-38.5 144,-57.5 263,-57.5 263,-38.5 144,-38.5"/>
<text text-anchor="middle" x="203.5" y="-45.5" font-family="Helvetica,sans-Serif" font-size="10.00">mcpw_process_rx_data</text>
</a>
</g>
</g>
<!-- Node759&#45;&gt;Node771 -->
<g id="edge2" class="edge"><title>Node759&#45;&gt;Node771</title>
<path fill="none" stroke="midnightblue" d="M108.251,-48C116.554,-48 125.234,-48 133.822,-48"/>
<polygon fill="midnightblue" stroke="midnightblue" points="133.833,-51.5001 143.833,-48 133.833,-44.5001 133.833,-51.5001"/>
</g>
<!-- Node783 -->
<g id="node4" class="node"><title>Node783</title>
<g id="a_node4"><a xlink:href="task__xethru_8c.xhtml#ae9875b2314666b540f1ce5e410710129" target="_top" xlink:title="mcpw_demo_x2m200">
<polygon fill="white" stroke="red" points="148,-0.5 148,-19.5 259,-19.5 259,-0.5 148,-0.5"/>
<text text-anchor="middle" x="203.5" y="-7.5" font-family="Helvetica,sans-Serif" font-size="10.00">mcpw_demo_x2m200</text>
</a>
</g>
</g>
<!-- Node759&#45;&gt;Node783 -->
<g id="edge3" class="edge"><title>Node759&#45;&gt;Node783</title>
<path fill="none" stroke="midnightblue" d="M92.2205,-38.411C111.509,-33.4417 135.258,-27.3233 155.771,-22.0387"/>
<polygon fill="midnightblue" stroke="midnightblue" points="156.737,-25.4043 165.547,-19.5201 154.99,-18.6256 156.737,-25.4043"/>
</g>
</g>
</svg>
