<?xml version="1.0" encoding="UTF-8" standalone="no"?>
<!DOCTYPE svg PUBLIC "-//W3C//DTD SVG 1.1//EN"
 "http://www.w3.org/Graphics/SVG/1.1/DTD/svg11.dtd">
<!-- Generated by graphviz version 2.38.0 (20140413.2041)
 -->
<!-- Title: mcpw_demo_x4m300 Pages: 1 -->
<svg width="449pt" height="659pt"
 viewBox="0.00 0.00 449.00 658.50" xmlns="http://www.w3.org/2000/svg" xmlns:xlink="http://www.w3.org/1999/xlink">
<g id="graph0" class="graph" transform="scale(1 1) rotate(0) translate(4 654.502)">
<title>mcpw_demo_x4m300</title>
<polygon fill="white" stroke="none" points="-4,4 -4,-654.502 445,-654.502 445,4 -4,4"/>
<!-- Node144 -->
<g id="node1" class="node"><title>Node144</title>
<polygon fill="#bfbfbf" stroke="black" points="0,-304.502 0,-323.502 111,-323.502 111,-304.502 0,-304.502"/>
<text text-anchor="middle" x="55.5" y="-311.502" font-family="Helvetica,sans-Serif" font-size="10.00">mcpw_demo_x4m300</text>
</g>
<!-- Node145 -->
<g id="node2" class="node"><title>Node145</title>
<g id="a_node2"><a xlink:href="task__xethru_8c.xhtml#a273665b1dc773da28ea33615af1ba57f" target="_top" xlink:title="mcpw_on_host_parser\l_presence_single">
<polygon fill="white" stroke="black" points="147.5,-620.002 147.5,-650.002 261.5,-650.002 261.5,-620.002 147.5,-620.002"/>
<text text-anchor="start" x="155.5" y="-638.002" font-family="Helvetica,sans-Serif" font-size="10.00">mcpw_on_host_parser</text>
<text text-anchor="middle" x="204.5" y="-627.002" font-family="Helvetica,sans-Serif" font-size="10.00">_presence_single</text>
</a>
</g>
</g>
<!-- Node144&#45;&gt;Node145 -->
<g id="edge1" class="edge"><title>Node144&#45;&gt;Node145</title>
<path fill="none" stroke="midnightblue" d="M56.6306,-323.618C57.6877,-364.019 66.9813,-522.026 147,-611.002 147.766,-611.854 148.567,-612.676 149.4,-613.471"/>
<polygon fill="midnightblue" stroke="midnightblue" points="147.575,-616.486 157.611,-619.882 151.883,-610.969 147.575,-616.486"/>
</g>
<!-- Node146 -->
<g id="node3" class="node"><title>Node146</title>
<g id="a_node3"><a xlink:href="task__xethru_8c.xhtml#ae7ef98041a23d07c679201f09db94a81" target="_top" xlink:title="mcpw_on_host_parser\l_presence_moving_list">
<polygon fill="white" stroke="red" points="147,-571.002 147,-601.002 262,-601.002 262,-571.002 147,-571.002"/>
<text text-anchor="start" x="155" y="-589.002" font-family="Helvetica,sans-Serif" font-size="10.00">mcpw_on_host_parser</text>
<text text-anchor="middle" x="204.5" y="-578.002" font-family="Helvetica,sans-Serif" font-size="10.00">_presence_moving_list</text>
</a>
</g>
</g>
<!-- Node144&#45;&gt;Node146 -->
<g id="edge2" class="edge"><title>Node144&#45;&gt;Node146</title>
<path fill="none" stroke="midnightblue" d="M57.6268,-323.557C62.2253,-358.694 82.5019,-482.504 147,-556.002 150.007,-559.428 153.502,-562.527 157.252,-565.315"/>
<polygon fill="midnightblue" stroke="midnightblue" points="155.499,-568.352 165.776,-570.93 159.35,-562.506 155.499,-568.352"/>
</g>
<!-- Node166 -->
<g id="node4" class="node"><title>Node166</title>
<g id="a_node4"><a xlink:href="task__xethru_8c.xhtml#acb0abc99f3c7ab56eff1f77480d16d2c" target="_top" xlink:title="mcpw_on_host_parser\l_baseband_ap">
<polygon fill="white" stroke="red" points="312.5,-526.002 312.5,-556.002 426.5,-556.002 426.5,-526.002 312.5,-526.002"/>
<text text-anchor="start" x="320.5" y="-544.002" font-family="Helvetica,sans-Serif" font-size="10.00">mcpw_on_host_parser</text>
<text text-anchor="middle" x="369.5" y="-533.002" font-family="Helvetica,sans-Serif" font-size="10.00">_baseband_ap</text>
</a>
</g>
</g>
<!-- Node144&#45;&gt;Node166 -->
<g id="edge3" class="edge"><title>Node144&#45;&gt;Node166</title>
<path fill="none" stroke="midnightblue" d="M59.1475,-323.587C67.2966,-351.288 94.6736,-432.128 147,-474.002 191.514,-509.623 254.738,-526.34 302.252,-534.166"/>
<polygon fill="midnightblue" stroke="midnightblue" points="301.721,-537.625 312.14,-535.705 302.798,-530.709 301.721,-537.625"/>
</g>
<!-- Node167 -->
<g id="node5" class="node"><title>Node167</title>
<g id="a_node5"><a xlink:href="mcp__wrapper_8c.xhtml#a536f04f2d9c7db14ffe361620d4d158a" target="_top" xlink:title="mcpw_set_sensor_mode">
<polygon fill="white" stroke="red" points="307,-487.502 307,-506.502 432,-506.502 432,-487.502 307,-487.502"/>
<text text-anchor="middle" x="369.5" y="-494.502" font-family="Helvetica,sans-Serif" font-size="10.00">mcpw_set_sensor_mode</text>
</a>
</g>
</g>
<!-- Node144&#45;&gt;Node167 -->
<g id="edge4" class="edge"><title>Node144&#45;&gt;Node167</title>
<path fill="none" stroke="midnightblue" d="M60.8519,-323.634C71.8067,-346.76 102.835,-405.745 147,-436.002 191.451,-466.455 250.667,-481.754 296.688,-489.413"/>
<polygon fill="midnightblue" stroke="midnightblue" points="296.17,-492.874 306.594,-490.978 297.263,-485.96 296.17,-492.874"/>
</g>
<!-- Node174 -->
<g id="node6" class="node"><title>Node174</title>
<g id="a_node6"><a xlink:href="mcp__wrapper_8c.xhtml#ab3c91f1235afafa553e9fa1d00c615ba" target="_top" xlink:title="mcpw_set_baudrate">
<polygon fill="white" stroke="red" points="317.5,-448.502 317.5,-467.502 421.5,-467.502 421.5,-448.502 317.5,-448.502"/>
<text text-anchor="middle" x="369.5" y="-455.502" font-family="Helvetica,sans-Serif" font-size="10.00">mcpw_set_baudrate</text>
</a>
</g>
</g>
<!-- Node144&#45;&gt;Node174 -->
<g id="edge5" class="edge"><title>Node144&#45;&gt;Node174</title>
<path fill="none" stroke="midnightblue" d="M63.7884,-323.774C77.8212,-341.873 110.455,-380.619 147,-401.002 197.077,-428.933 261.137,-443.49 307.472,-450.873"/>
<polygon fill="midnightblue" stroke="midnightblue" points="306.959,-454.336 317.372,-452.385 308.015,-447.416 306.959,-454.336"/>
</g>
<!-- Node177 -->
<g id="node7" class="node"><title>Node177</title>
<g id="a_node7"><a xlink:href="group__sam__drivers__usart__group.xhtml#gaafe097c01c082b270c1057722d524f5b" target="_top" xlink:title="Calculate a clock divider(CD) and a fractional part (FP) for the USART asynchronous modes to generate...">
<polygon fill="white" stroke="black" points="304,-408.502 304,-427.502 435,-427.502 435,-408.502 304,-408.502"/>
<text text-anchor="middle" x="369.5" y="-415.502" font-family="Helvetica,sans-Serif" font-size="10.00">usart_set_async_baudrate</text>
</a>
</g>
</g>
<!-- Node144&#45;&gt;Node177 -->
<g id="edge6" class="edge"><title>Node144&#45;&gt;Node177</title>
<path fill="none" stroke="midnightblue" d="M68.9425,-323.637C85.7363,-336.172 117.018,-357.896 147,-370.002 194.05,-389 249.903,-401.038 293.752,-408.307"/>
<polygon fill="midnightblue" stroke="midnightblue" points="293.342,-411.786 303.771,-409.92 294.454,-404.875 293.342,-411.786"/>
</g>
<!-- Node178 -->
<g id="node8" class="node"><title>Node178</title>
<g id="a_node8"><a xlink:href="group__sysclk__group.xhtml#gae91bb547221cdd42b104342e8f776a28" target="_top" xlink:title="Return the current rate in Hz of the CPU clock. ">
<polygon fill="white" stroke="red" points="319,-366.502 319,-385.502 420,-385.502 420,-366.502 319,-366.502"/>
<text text-anchor="middle" x="369.5" y="-373.502" font-family="Helvetica,sans-Serif" font-size="10.00">sysclk_get_cpu_hz</text>
</a>
</g>
</g>
<!-- Node144&#45;&gt;Node178 -->
<g id="edge7" class="edge"><title>Node144&#45;&gt;Node178</title>
<path fill="none" stroke="midnightblue" d="M80.3304,-323.564C98.3692,-330.457 123.901,-339.483 147,-345.002 200.958,-357.894 263.678,-366.052 308.575,-370.744"/>
<polygon fill="midnightblue" stroke="midnightblue" points="308.426,-374.247 318.729,-371.778 309.135,-367.283 308.426,-374.247"/>
</g>
<!-- Node180 -->
<g id="node9" class="node"><title>Node180</title>
<g id="a_node9"><a xlink:href="mcp__wrapper_8c.xhtml#a801e1df2def7e7aff114711ac09c16be" target="_top" xlink:title="mcpw_get_systeminfo">
<polygon fill="white" stroke="red" points="313,-320.502 313,-339.502 426,-339.502 426,-320.502 313,-320.502"/>
<text text-anchor="middle" x="369.5" y="-327.502" font-family="Helvetica,sans-Serif" font-size="10.00">mcpw_get_systeminfo</text>
</a>
</g>
</g>
<!-- Node144&#45;&gt;Node180 -->
<g id="edge8" class="edge"><title>Node144&#45;&gt;Node180</title>
<path fill="none" stroke="midnightblue" d="M109.467,-323.507C121.749,-325.346 134.798,-327.008 147,-328.002 199.273,-332.259 258.712,-332.548 302.847,-331.888"/>
<polygon fill="midnightblue" stroke="midnightblue" points="302.933,-335.387 312.872,-331.718 302.814,-328.388 302.933,-335.387"/>
</g>
<!-- Node182 -->
<g id="node10" class="node"><title>Node182</title>
<g id="a_node10"><a xlink:href="mcp__wrapper_8c.xhtml#a7dc80c2a02be5f2dc7cb7492ad781acf" target="_top" xlink:title="mcpw_load_profile">
<polygon fill="white" stroke="red" points="321.5,-266.502 321.5,-285.502 417.5,-285.502 417.5,-266.502 321.5,-266.502"/>
<text text-anchor="middle" x="369.5" y="-273.502" font-family="Helvetica,sans-Serif" font-size="10.00">mcpw_load_profile</text>
</a>
</g>
</g>
<!-- Node144&#45;&gt;Node182 -->
<g id="edge9" class="edge"><title>Node144&#45;&gt;Node182</title>
<path fill="none" stroke="midnightblue" d="M111.159,-310.21C152.648,-307.026 211.048,-301.89 262,-295.002 278.031,-292.835 295.331,-289.975 311.231,-287.134"/>
<polygon fill="midnightblue" stroke="midnightblue" points="312.236,-290.509 321.45,-285.277 310.985,-283.621 312.236,-290.509"/>
</g>
<!-- Node185 -->
<g id="node11" class="node"><title>Node185</title>
<g id="a_node11"><a xlink:href="mcp__wrapper_8c.xhtml#a56b031524072e973d7b42cfcacb0c7e3" target="_top" xlink:title="mcpw_set_noisemap_control">
<polygon fill="white" stroke="red" points="298,-228.502 298,-247.502 441,-247.502 441,-228.502 298,-228.502"/>
<text text-anchor="middle" x="369.5" y="-235.502" font-family="Helvetica,sans-Serif" font-size="10.00">mcpw_set_noisemap_control</text>
</a>
</g>
</g>
<!-- Node144&#45;&gt;Node185 -->
<g id="edge10" class="edge"><title>Node144&#45;&gt;Node185</title>
<path fill="none" stroke="midnightblue" d="M67.8582,-304.281C84.1527,-290.968 115.666,-267.519 147,-257.002 192.053,-241.881 245.008,-236.91 287.842,-235.823"/>
<polygon fill="midnightblue" stroke="midnightblue" points="288.006,-239.321 297.939,-235.634 287.875,-232.322 288.006,-239.321"/>
</g>
<!-- Node188 -->
<g id="node12" class="node"><title>Node188</title>
<g id="a_node12"><a xlink:href="mcp__wrapper_8c.xhtml#a5aad9b9bddaa60f6c860fd64477041eb" target="_top" xlink:title="mcpw_set_detection_zone">
<polygon fill="white" stroke="red" points="303.5,-190.502 303.5,-209.502 435.5,-209.502 435.5,-190.502 303.5,-190.502"/>
<text text-anchor="middle" x="369.5" y="-197.502" font-family="Helvetica,sans-Serif" font-size="10.00">mcpw_set_detection_zone</text>
</a>
</g>
</g>
<!-- Node144&#45;&gt;Node188 -->
<g id="edge11" class="edge"><title>Node144&#45;&gt;Node188</title>
<path fill="none" stroke="midnightblue" d="M64.0254,-304.435C78.2038,-287.163 110.729,-250.993 147,-234.002 192.596,-212.642 248.7,-204.189 293.034,-201.053"/>
<polygon fill="midnightblue" stroke="midnightblue" points="293.41,-204.536 303.17,-200.413 292.969,-197.55 293.41,-204.536"/>
</g>
<!-- Node191 -->
<g id="node13" class="node"><title>Node191</title>
<g id="a_node13"><a xlink:href="mcp__wrapper_8c.xhtml#a83d34d3ac389507fb3f13e1ea86cdecb" target="_top" xlink:title="mcpw_set_sensitivity">
<polygon fill="white" stroke="red" points="315,-152.502 315,-171.502 424,-171.502 424,-152.502 315,-152.502"/>
<text text-anchor="middle" x="369.5" y="-159.502" font-family="Helvetica,sans-Serif" font-size="10.00">mcpw_set_sensitivity</text>
</a>
</g>
</g>
<!-- Node144&#45;&gt;Node191 -->
<g id="edge12" class="edge"><title>Node144&#45;&gt;Node191</title>
<path fill="none" stroke="midnightblue" d="M61.051,-304.494C72.2257,-282.276 103.321,-226.883 147,-201.002 194.783,-172.69 257.849,-163.8 304.464,-161.489"/>
<polygon fill="midnightblue" stroke="midnightblue" points="304.894,-164.975 314.744,-161.072 304.61,-157.98 304.894,-164.975"/>
</g>
<!-- Node193 -->
<g id="node14" class="node"><title>Node193</title>
<g id="a_node14"><a xlink:href="mcp__wrapper_8c.xhtml#a5e888a3d354deed869020ce46851615c" target="_top" xlink:title="mcpw_set_led_control">
<polygon fill="white" stroke="red" points="313,-114.502 313,-133.502 426,-133.502 426,-114.502 313,-114.502"/>
<text text-anchor="middle" x="369.5" y="-121.502" font-family="Helvetica,sans-Serif" font-size="10.00">mcpw_set_led_control</text>
</a>
</g>
</g>
<!-- Node144&#45;&gt;Node193 -->
<g id="edge13" class="edge"><title>Node144&#45;&gt;Node193</title>
<path fill="none" stroke="midnightblue" d="M59.2097,-304.262C67.3561,-276.94 94.3732,-199.205 147,-163.002 192.555,-131.663 255.488,-123.062 302.634,-121.632"/>
<polygon fill="midnightblue" stroke="midnightblue" points="302.817,-125.129 312.743,-121.427 302.675,-118.131 302.817,-125.129"/>
</g>
<!-- Node195 -->
<g id="node15" class="node"><title>Node195</title>
<g id="a_node15"><a xlink:href="mcp__wrapper_8c.xhtml#a10b8c43d839e93605d5718c84e48d0e3" target="_top" xlink:title="mcpw_set_output_control">
<polygon fill="white" stroke="red" points="305.5,-76.5018 305.5,-95.5018 433.5,-95.5018 433.5,-76.5018 305.5,-76.5018"/>
<text text-anchor="middle" x="369.5" y="-83.5018" font-family="Helvetica,sans-Serif" font-size="10.00">mcpw_set_output_control</text>
</a>
</g>
</g>
<!-- Node144&#45;&gt;Node195 -->
<g id="edge14" class="edge"><title>Node144&#45;&gt;Node195</title>
<path fill="none" stroke="midnightblue" d="M57.8261,-304.415C62.7936,-272.445 83.3954,-168.807 147,-121.002 189.042,-89.4035 248.391,-81.4073 295.076,-80.9029"/>
<polygon fill="midnightblue" stroke="midnightblue" points="295.134,-84.4028 305.136,-80.9065 295.137,-77.4028 295.134,-84.4028"/>
</g>
<!-- Node162 -->
<g id="node16" class="node"><title>Node162</title>
<g id="a_node16"><a xlink:href="task_8h.xhtml#a3fc5adc340b17cb07c12ffa90d7bb8f3" target="_top" xlink:title="vTaskDelay">
<polygon fill="white" stroke="black" points="336.5,-38.5018 336.5,-57.5018 402.5,-57.5018 402.5,-38.5018 336.5,-38.5018"/>
<text text-anchor="middle" x="369.5" y="-45.5018" font-family="Helvetica,sans-Serif" font-size="10.00">vTaskDelay</text>
</a>
</g>
</g>
<!-- Node144&#45;&gt;Node162 -->
<g id="edge15" class="edge"><title>Node144&#45;&gt;Node162</title>
<path fill="none" stroke="midnightblue" d="M56.9261,-304.425C59.0956,-268.192 72.0194,-138.543 147,-79.0018 198.135,-38.3963 277.666,-37.7604 326.223,-42.1046"/>
<polygon fill="midnightblue" stroke="midnightblue" points="326.088,-45.6086 336.388,-43.1275 326.789,-38.6438 326.088,-45.6086"/>
</g>
<!-- Node197 -->
<g id="node17" class="node"><title>Node197</title>
<g id="a_node17"><a xlink:href="mcp__wrapper_8c.xhtml#acbebfcb65738078d87fce211e76fd4a9" target="_top" xlink:title="mcpw_store_noisemap">
<polygon fill="white" stroke="red" points="311.5,-0.50185 311.5,-19.5018 427.5,-19.5018 427.5,-0.50185 311.5,-0.50185"/>
<text text-anchor="middle" x="369.5" y="-7.50185" font-family="Helvetica,sans-Serif" font-size="10.00">mcpw_store_noisemap</text>
</a>
</g>
</g>
<!-- Node144&#45;&gt;Node197 -->
<g id="edge16" class="edge"><title>Node144&#45;&gt;Node197</title>
<path fill="none" stroke="midnightblue" d="M56.2956,-304.46C56.0059,-264.482 60.6498,-109.247 147,-38.0018 189.427,-2.99628 252.879,1.80425 301.009,-0.869912"/>
<polygon fill="midnightblue" stroke="midnightblue" points="300.821,-4.3651 311.034,-1.54582 301.292,2.61905 300.821,-4.3651"/>
</g>
<!-- Node199 -->
<g id="node18" class="node"><title>Node199</title>
<g id="a_node18"><a xlink:href="task__xethru_8c.xhtml#a4d700c7ee4beaac0a8a4c95c11e5c673" target="_top" xlink:title="mcpw_demo_x4m200">
<polygon fill="white" stroke="red" points="149,-266.502 149,-285.502 260,-285.502 260,-266.502 149,-266.502"/>
<text text-anchor="middle" x="204.5" y="-273.502" font-family="Helvetica,sans-Serif" font-size="10.00">mcpw_demo_x4m200</text>
</a>
</g>
</g>
<!-- Node144&#45;&gt;Node199 -->
<g id="edge17" class="edge"><title>Node144&#45;&gt;Node199</title>
<path fill="none" stroke="midnightblue" d="M93.5943,-304.413C112.818,-299.444 136.486,-293.325 156.929,-288.041"/>
<polygon fill="midnightblue" stroke="midnightblue" points="157.867,-291.413 166.672,-285.522 156.115,-284.636 157.867,-291.413"/>
</g>
<!-- Node199&#45;&gt;Node166 -->
<g id="edge18" class="edge"><title>Node199&#45;&gt;Node166</title>
<path fill="none" stroke="midnightblue" d="M206.398,-285.808C210.213,-321.807 228.24,-448.106 298,-516.002 299.832,-517.785 301.8,-519.442 303.87,-520.981"/>
<polygon fill="midnightblue" stroke="midnightblue" points="301.99,-523.933 312.304,-526.354 305.751,-518.029 301.99,-523.933"/>
</g>
<!-- Node199&#45;&gt;Node167 -->
<g id="edge19" class="edge"><title>Node199&#45;&gt;Node167</title>
<path fill="none" stroke="midnightblue" d="M207.03,-285.685C212.659,-318.026 235.258,-423.295 298,-477.002 300.561,-479.194 303.348,-481.147 306.285,-482.886"/>
<polygon fill="midnightblue" stroke="midnightblue" points="304.969,-486.141 315.477,-487.49 308.103,-479.883 304.969,-486.141"/>
</g>
<!-- Node199&#45;&gt;Node174 -->
<g id="edge20" class="edge"><title>Node199&#45;&gt;Node174</title>
<path fill="none" stroke="midnightblue" d="M208.244,-285.66C216.678,-313.567 244.914,-394.995 298,-437.002 301.532,-439.797 305.428,-442.22 309.522,-444.321"/>
<polygon fill="midnightblue" stroke="midnightblue" points="308.176,-447.553 318.735,-448.425 311.025,-441.158 308.176,-447.553"/>
</g>
<!-- Node199&#45;&gt;Node177 -->
<g id="edge21" class="edge"><title>Node199&#45;&gt;Node177</title>
<path fill="none" stroke="midnightblue" d="M210.339,-285.595C222.165,-308.086 254.757,-364.605 298,-395.002 303.52,-398.882 309.734,-402.137 316.127,-404.861"/>
<polygon fill="midnightblue" stroke="midnightblue" points="314.972,-408.166 325.562,-408.482 317.48,-401.631 314.972,-408.166"/>
</g>
<!-- Node199&#45;&gt;Node178 -->
<g id="edge22" class="edge"><title>Node199&#45;&gt;Node178</title>
<path fill="none" stroke="midnightblue" d="M215.569,-285.662C231.807,-300.826 265.276,-330.399 298,-349.002 307.325,-354.303 317.894,-358.975 327.957,-362.877"/>
<polygon fill="midnightblue" stroke="midnightblue" points="326.801,-366.181 337.394,-366.378 329.236,-359.618 326.801,-366.181"/>
</g>
<!-- Node199&#45;&gt;Node180 -->
<g id="edge23" class="edge"><title>Node199&#45;&gt;Node180</title>
<path fill="none" stroke="midnightblue" d="M234.266,-285.532C260.952,-294.373 300.859,-307.593 330.227,-317.322"/>
<polygon fill="midnightblue" stroke="midnightblue" points="329.155,-320.654 339.748,-320.477 331.356,-314.009 329.155,-320.654"/>
</g>
<!-- Node199&#45;&gt;Node182 -->
<g id="edge24" class="edge"><title>Node199&#45;&gt;Node182</title>
<path fill="none" stroke="midnightblue" d="M260.23,-276.002C276.62,-276.002 294.636,-276.002 311.188,-276.002"/>
<polygon fill="midnightblue" stroke="midnightblue" points="311.277,-279.502 321.277,-276.002 311.277,-272.502 311.277,-279.502"/>
</g>
<!-- Node199&#45;&gt;Node185 -->
<g id="edge25" class="edge"><title>Node199&#45;&gt;Node185</title>
<path fill="none" stroke="midnightblue" d="M246.632,-266.413C268.238,-261.376 294.909,-255.158 317.786,-249.825"/>
<polygon fill="midnightblue" stroke="midnightblue" points="318.72,-253.201 327.664,-247.522 317.13,-246.384 318.72,-253.201"/>
</g>
<!-- Node199&#45;&gt;Node188 -->
<g id="edge26" class="edge"><title>Node199&#45;&gt;Node188</title>
<path fill="none" stroke="midnightblue" d="M218.32,-266.425C235.598,-253.922 267.696,-232.092 298,-219.002 303.517,-216.619 309.408,-214.467 315.345,-212.542"/>
<polygon fill="midnightblue" stroke="midnightblue" points="316.77,-215.768 325.324,-209.517 314.739,-209.069 316.77,-215.768"/>
</g>
<!-- Node199&#45;&gt;Node191 -->
<g id="edge27" class="edge"><title>Node199&#45;&gt;Node191</title>
<path fill="none" stroke="midnightblue" d="M212.16,-266.263C225.883,-246.955 259.292,-203.733 298,-181.002 301.689,-178.835 305.631,-176.91 309.695,-175.2"/>
<polygon fill="midnightblue" stroke="midnightblue" points="311.2,-178.373 319.336,-171.587 308.744,-171.818 311.2,-178.373"/>
</g>
<!-- Node199&#45;&gt;Node193 -->
<g id="edge28" class="edge"><title>Node199&#45;&gt;Node193</title>
<path fill="none" stroke="midnightblue" d="M209.436,-266.22C219.896,-241.508 250.846,-176.182 298,-143.002 300.833,-141.008 303.865,-139.224 307.02,-137.627"/>
<polygon fill="midnightblue" stroke="midnightblue" points="308.431,-140.83 316.179,-133.603 305.616,-134.421 308.431,-140.83"/>
</g>
<!-- Node199&#45;&gt;Node195 -->
<g id="edge29" class="edge"><title>Node199&#45;&gt;Node195</title>
<path fill="none" stroke="midnightblue" d="M207.891,-266.103C215.522,-236.699 242.138,-149.177 298,-105.002 300.284,-103.196 302.725,-101.561 305.278,-100.081"/>
<polygon fill="midnightblue" stroke="midnightblue" points="306.896,-103.186 314.316,-95.623 303.8,-96.9076 306.896,-103.186"/>
</g>
<!-- Node199&#45;&gt;Node162 -->
<g id="edge30" class="edge"><title>Node199&#45;&gt;Node162</title>
<path fill="none" stroke="midnightblue" d="M206.803,-266.374C211.813,-233.224 232.929,-122.784 298,-67.0018 305.94,-60.1954 316.084,-55.8027 326.187,-52.9749"/>
<polygon fill="midnightblue" stroke="midnightblue" points="327.252,-56.3204 336.193,-50.6372 325.659,-49.504 327.252,-56.3204"/>
</g>
<!-- Node199&#45;&gt;Node197 -->
<g id="edge31" class="edge"><title>Node199&#45;&gt;Node197</title>
<path fill="none" stroke="midnightblue" d="M206.07,-266.494C208.79,-229.87 223.632,-96.6153 298,-29.0018 299.715,-27.4429 301.544,-26.0098 303.463,-24.6924"/>
<polygon fill="midnightblue" stroke="midnightblue" points="305.409,-27.6123 312.371,-19.6265 301.948,-21.5273 305.409,-27.6123"/>
</g>
</g>
</svg>
