<?xml version="1.0" encoding="UTF-8" standalone="no"?>
<!DOCTYPE svg PUBLIC "-//W3C//DTD SVG 1.1//EN"
 "http://www.w3.org/Graphics/SVG/1.1/DTD/svg11.dtd">
<!-- Generated by graphviz version 2.38.0 (20140413.2041)
 -->
<!-- Title: examples/atmel_samg55/src/task_xethru.c Pages: 1 -->
<svg width="711pt" height="151pt"
 viewBox="0.00 0.00 711.00 151.00" xmlns="http://www.w3.org/2000/svg" xmlns:xlink="http://www.w3.org/1999/xlink">
<g id="graph0" class="graph" transform="scale(1 1) rotate(0) translate(4 147)">
<title>examples/atmel_samg55/src/task_xethru.c</title>
<polygon fill="white" stroke="none" points="-4,4 -4,-147 707,-147 707,4 -4,4"/>
<!-- Node0 -->
<g id="node1" class="node"><title>Node0</title>
<polygon fill="#bfbfbf" stroke="black" points="302.5,-112.5 302.5,-142.5 427.5,-142.5 427.5,-112.5 302.5,-112.5"/>
<text text-anchor="start" x="310.5" y="-130.5" font-family="Helvetica,sans-Serif" font-size="10.00">examples/atmel_samg55</text>
<text text-anchor="middle" x="365" y="-119.5" font-family="Helvetica,sans-Serif" font-size="10.00">/src/task_xethru.c</text>
</g>
<!-- Node1 -->
<g id="node2" class="node"><title>Node1</title>
<g id="a_node2"><a xlink:href="task__xethru_8h.xhtml" target="_top" xlink:title="task_xethru.h">
<polygon fill="white" stroke="red" points="0,-56.5 0,-75.5 76,-75.5 76,-56.5 0,-56.5"/>
<text text-anchor="middle" x="38" y="-63.5" font-family="Helvetica,sans-Serif" font-size="10.00">task_xethru.h</text>
</a>
</g>
</g>
<!-- Node0&#45;&gt;Node1 -->
<g id="edge1" class="edge"><title>Node0&#45;&gt;Node1</title>
<path fill="none" stroke="midnightblue" d="M302.411,-115.41C247.971,-105.719 166.67,-91.1379 86.4922,-76.2629"/>
<polygon fill="midnightblue" stroke="midnightblue" points="86.6842,-72.7387 76.213,-74.353 85.4054,-79.6209 86.6842,-72.7387"/>
</g>
<!-- Node11 -->
<g id="node3" class="node"><title>Node11</title>
<polygon fill="white" stroke="#bfbfbf" points="94,-56.5 94,-75.5 140,-75.5 140,-56.5 94,-56.5"/>
<text text-anchor="middle" x="117" y="-63.5" font-family="Helvetica,sans-Serif" font-size="10.00">stdio.h</text>
</g>
<!-- Node0&#45;&gt;Node11 -->
<g id="edge2" class="edge"><title>Node0&#45;&gt;Node11</title>
<path fill="none" stroke="midnightblue" d="M305.868,-112.409C263.56,-102.313 205.262,-88.369 154,-76 152.735,-75.6947 151.445,-75.3832 150.143,-75.0681"/>
<polygon fill="midnightblue" stroke="midnightblue" points="150.633,-71.5855 140.089,-72.6303 148.983,-78.3883 150.633,-71.5855"/>
</g>
<!-- Node50 -->
<g id="node4" class="node"><title>Node50</title>
<polygon fill="white" stroke="#bfbfbf" points="532.5,-0.5 532.5,-19.5 581.5,-19.5 581.5,-0.5 532.5,-0.5"/>
<text text-anchor="middle" x="557" y="-7.5" font-family="Helvetica,sans-Serif" font-size="10.00">string.h</text>
</g>
<!-- Node0&#45;&gt;Node50 -->
<g id="edge3" class="edge"><title>Node0&#45;&gt;Node50</title>
<path fill="none" stroke="midnightblue" d="M383.427,-112.375C403.258,-97.4783 436.003,-73.7505 466,-56 486.315,-43.9792 510.28,-32.2196 528.516,-23.738"/>
<polygon fill="midnightblue" stroke="midnightblue" points="530.114,-26.8557 537.739,-19.5001 527.191,-20.4951 530.114,-26.8557"/>
</g>
<!-- Node19 -->
<g id="node5" class="node"><title>Node19</title>
<g id="a_node5"><a xlink:href="_free_r_t_o_s_8h.xhtml" target="_top" xlink:title="FreeRTOS.h">
<polygon fill="white" stroke="red" points="136.5,-0.5 136.5,-19.5 207.5,-19.5 207.5,-0.5 136.5,-0.5"/>
<text text-anchor="middle" x="172" y="-7.5" font-family="Helvetica,sans-Serif" font-size="10.00">FreeRTOS.h</text>
</a>
</g>
</g>
<!-- Node0&#45;&gt;Node19 -->
<g id="edge4" class="edge"><title>Node0&#45;&gt;Node19</title>
<path fill="none" stroke="midnightblue" d="M302.112,-123.919C264.12,-119.032 217.498,-106.597 188,-76 176.289,-63.8528 172.715,-44.5769 171.816,-30.1653"/>
<polygon fill="midnightblue" stroke="midnightblue" points="175.308,-29.7905 171.563,-19.8795 168.31,-29.9624 175.308,-29.7905"/>
</g>
<!-- Node30 -->
<g id="node6" class="node"><title>Node30</title>
<g id="a_node6"><a xlink:href="task_8h.xhtml" target="_top" xlink:title="task.h">
<polygon fill="white" stroke="red" points="273,-0.5 273,-19.5 317,-19.5 317,-0.5 273,-0.5"/>
<text text-anchor="middle" x="295" y="-7.5" font-family="Helvetica,sans-Serif" font-size="10.00">task.h</text>
</a>
</g>
</g>
<!-- Node0&#45;&gt;Node30 -->
<g id="edge5" class="edge"><title>Node0&#45;&gt;Node30</title>
<path fill="none" stroke="midnightblue" d="M356.417,-112.337C343.575,-91.1487 319.39,-51.244 305.509,-28.3403"/>
<polygon fill="midnightblue" stroke="midnightblue" points="308.43,-26.4074 300.254,-19.6695 302.444,-30.0355 308.43,-26.4074"/>
</g>
<!-- Node28 -->
<g id="node7" class="node"><title>Node28</title>
<g id="a_node7"><a xlink:href="queue_8h.xhtml" target="_top" xlink:title="queue.h">
<polygon fill="white" stroke="red" points="366.5,-56.5 366.5,-75.5 417.5,-75.5 417.5,-56.5 366.5,-56.5"/>
<text text-anchor="middle" x="392" y="-63.5" font-family="Helvetica,sans-Serif" font-size="10.00">queue.h</text>
</a>
</g>
</g>
<!-- Node0&#45;&gt;Node28 -->
<g id="edge6" class="edge"><title>Node0&#45;&gt;Node28</title>
<path fill="none" stroke="midnightblue" d="M371.399,-112.399C375.12,-104.199 379.847,-93.7809 383.835,-84.9936"/>
<polygon fill="midnightblue" stroke="midnightblue" points="387.126,-86.2104 388.071,-75.6578 380.752,-83.3178 387.126,-86.2104"/>
</g>
<!-- Node35 -->
<g id="node8" class="node"><title>Node35</title>
<g id="a_node8"><a xlink:href="freertos__usart__serial_8h.xhtml" target="_top" xlink:title="FreeRTOS Peripheral Control API For the USART. ">
<polygon fill="white" stroke="red" points="196.5,-56.5 196.5,-75.5 309.5,-75.5 309.5,-56.5 196.5,-56.5"/>
<text text-anchor="middle" x="253" y="-63.5" font-family="Helvetica,sans-Serif" font-size="10.00">freertos_usart_serial.h</text>
</a>
</g>
</g>
<!-- Node0&#45;&gt;Node35 -->
<g id="edge7" class="edge"><title>Node0&#45;&gt;Node35</title>
<path fill="none" stroke="midnightblue" d="M338.458,-112.399C320.337,-102.773 296.464,-90.0902 278.557,-80.5772"/>
<polygon fill="midnightblue" stroke="midnightblue" points="279.77,-77.2585 269.297,-75.6578 276.486,-83.4403 279.77,-77.2585"/>
</g>
<!-- Node51 -->
<g id="node9" class="node"><title>Node51</title>
<polygon fill="white" stroke="#bfbfbf" points="474.5,-56.5 474.5,-75.5 557.5,-75.5 557.5,-56.5 474.5,-56.5"/>
<text text-anchor="middle" x="516" y="-63.5" font-family="Helvetica,sans-Serif" font-size="10.00">mcp_wrapper.h</text>
</g>
<!-- Node0&#45;&gt;Node51 -->
<g id="edge10" class="edge"><title>Node0&#45;&gt;Node51</title>
<path fill="none" stroke="midnightblue" d="M400.785,-112.399C426.233,-102.372 460.097,-89.028 484.518,-79.405"/>
<polygon fill="midnightblue" stroke="midnightblue" points="486.008,-82.5802 494.028,-75.6578 483.441,-76.0676 486.008,-82.5802"/>
</g>
<!-- Node52 -->
<g id="node10" class="node"><title>Node52</title>
<g id="a_node10"><a xlink:href="xtid_8h.xhtml" target="_top" xlink:title="xtid.h">
<polygon fill="white" stroke="black" points="575.5,-56.5 575.5,-75.5 616.5,-75.5 616.5,-56.5 575.5,-56.5"/>
<text text-anchor="middle" x="596" y="-63.5" font-family="Helvetica,sans-Serif" font-size="10.00">xtid.h</text>
</a>
</g>
</g>
<!-- Node0&#45;&gt;Node52 -->
<g id="edge11" class="edge"><title>Node0&#45;&gt;Node52</title>
<path fill="none" stroke="midnightblue" d="M424.893,-112.457C462.847,-103.343 513.171,-90.8675 565.63,-76.2819"/>
<polygon fill="midnightblue" stroke="midnightblue" points="566.76,-79.6 575.447,-73.5342 564.874,-72.859 566.76,-79.6"/>
</g>
<!-- Node53 -->
<g id="node11" class="node"><title>Node53</title>
<g id="a_node11"><a xlink:href="arm__math_8h.xhtml" target="_top" xlink:title="arm_math.h">
<polygon fill="white" stroke="red" points="635,-56.5 635,-75.5 703,-75.5 703,-56.5 635,-56.5"/>
<text text-anchor="middle" x="669" y="-63.5" font-family="Helvetica,sans-Serif" font-size="10.00">arm_math.h</text>
</a>
</g>
</g>
<!-- Node0&#45;&gt;Node53 -->
<g id="edge12" class="edge"><title>Node0&#45;&gt;Node53</title>
<path fill="none" stroke="midnightblue" d="M427.545,-114.675C478.177,-105.039 551.607,-90.9211 624.876,-76.2047"/>
<polygon fill="midnightblue" stroke="midnightblue" points="625.629,-79.6234 634.742,-74.2192 624.248,-72.761 625.629,-79.6234"/>
</g>
<!-- Node35&#45;&gt;Node19 -->
<g id="edge8" class="edge"><title>Node35&#45;&gt;Node19</title>
<path fill="none" stroke="midnightblue" d="M239.986,-56.324C227.468,-47.979 208.318,-35.2122 193.529,-25.3524"/>
<polygon fill="midnightblue" stroke="midnightblue" points="195.244,-22.2894 184.982,-19.6545 191.361,-28.1137 195.244,-22.2894"/>
</g>
<!-- Node35&#45;&gt;Node30 -->
<g id="edge9" class="edge"><title>Node35&#45;&gt;Node30</title>
<path fill="none" stroke="midnightblue" d="M259.935,-56.083C265.929,-48.3768 274.752,-37.0333 282.048,-27.6531"/>
<polygon fill="midnightblue" stroke="midnightblue" points="284.817,-29.7934 288.194,-19.7511 279.291,-25.4958 284.817,-29.7934"/>
</g>
<!-- Node53&#45;&gt;Node50 -->
<g id="edge13" class="edge"><title>Node53&#45;&gt;Node50</title>
<path fill="none" stroke="midnightblue" d="M651.005,-56.324C632.962,-47.6247 604.953,-34.1202 584.197,-24.113"/>
<polygon fill="midnightblue" stroke="midnightblue" points="585.478,-20.8449 574.95,-19.6545 582.438,-27.1502 585.478,-20.8449"/>
</g>
</g>
</svg>
