<?xml version="1.0" encoding="UTF-8" standalone="no"?>
<!DOCTYPE svg PUBLIC "-//W3C//DTD SVG 1.1//EN"
 "http://www.w3.org/Graphics/SVG/1.1/DTD/svg11.dtd">
<!-- Generated by graphviz version 2.38.0 (20140413.2041)
 -->
<!-- Title: prvAddCurrentTaskToDelayedList Pages: 1 -->
<svg width="323pt" height="66pt"
 viewBox="0.00 0.00 323.00 66.00" xmlns="http://www.w3.org/2000/svg" xmlns:xlink="http://www.w3.org/1999/xlink">
<g id="graph0" class="graph" transform="scale(1 1) rotate(0) translate(4 62)">
<title>prvAddCurrentTaskToDelayedList</title>
<polygon fill="white" stroke="none" points="-4,4 -4,-62 319,-62 319,4 -4,4"/>
<!-- Node13 -->
<g id="node1" class="node"><title>Node13</title>
<polygon fill="#bfbfbf" stroke="black" points="0,-19.5 0,-38.5 160,-38.5 160,-19.5 0,-19.5"/>
<text text-anchor="middle" x="80" y="-26.5" font-family="Helvetica,sans-Serif" font-size="10.00">prvAddCurrentTaskToDelayedList</text>
</g>
<!-- Node14 -->
<g id="node2" class="node"><title>Node14</title>
<g id="a_node2"><a xlink:href="tasks_8c.xhtml#a1ceb56c5c7ff2581a5ea837db4f721c1" target="_top" xlink:title="prvInitialiseTaskLists">
<polygon fill="white" stroke="black" points="202.5,-38.5 202.5,-57.5 308.5,-57.5 308.5,-38.5 202.5,-38.5"/>
<text text-anchor="middle" x="255.5" y="-45.5" font-family="Helvetica,sans-Serif" font-size="10.00">prvInitialiseTaskLists</text>
</a>
</g>
</g>
<!-- Node13&#45;&gt;Node14 -->
<g id="edge1" class="edge"><title>Node13&#45;&gt;Node14</title>
<path fill="none" stroke="midnightblue" d="M170.214,-38.7699C181.196,-39.9725 192.125,-41.1694 202.297,-42.2833"/>
<polygon fill="midnightblue" stroke="midnightblue" points="170.456,-35.2755 160.134,-37.666 169.694,-42.2339 170.456,-35.2755"/>
</g>
<!-- Node15 -->
<g id="node3" class="node"><title>Node15</title>
<g id="a_node3"><a xlink:href="tasks_8c.xhtml#a2d5845c73b2a52b45aadd74a7b539bc8" target="_top" xlink:title="vTaskPlaceOnEventList">
<polygon fill="white" stroke="red" points="196,-0.5 196,-19.5 315,-19.5 315,-0.5 196,-0.5"/>
<text text-anchor="middle" x="255.5" y="-7.5" font-family="Helvetica,sans-Serif" font-size="10.00">vTaskPlaceOnEventList</text>
</a>
</g>
</g>
<!-- Node13&#45;&gt;Node15 -->
<g id="edge2" class="edge"><title>Node13&#45;&gt;Node15</title>
<path fill="none" stroke="midnightblue" d="M170.34,-19.2163C179.039,-18.2638 187.702,-17.315 195.981,-16.4084"/>
<polygon fill="midnightblue" stroke="midnightblue" points="169.694,-15.7661 160.134,-20.334 170.456,-22.7245 169.694,-15.7661"/>
</g>
</g>
</svg>
