<?xml version="1.0" encoding="UTF-8" standalone="no"?>
<!DOCTYPE svg PUBLIC "-//W3C//DTD SVG 1.1//EN"
 "http://www.w3.org/Graphics/SVG/1.1/DTD/svg11.dtd">
<!-- Generated by graphviz version 2.38.0 (20140413.2041)
 -->
<!-- Title: examples/atmel_samg55/src/ASF/thirdparty/freertos/freertos&#45;7.0.0/source/include/task.h Pages: 1 -->
<svg width="1388pt" height="206pt"
 viewBox="0.00 0.00 1387.50 206.00" xmlns="http://www.w3.org/2000/svg" xmlns:xlink="http://www.w3.org/1999/xlink">
<g id="graph0" class="graph" transform="scale(1 1) rotate(0) translate(4 202)">
<title>examples/atmel_samg55/src/ASF/thirdparty/freertos/freertos&#45;7.0.0/source/include/task.h</title>
<polygon fill="white" stroke="none" points="-4,4 -4,-202 1383.5,-202 1383.5,4 -4,4"/>
<!-- Node5 -->
<g id="node1" class="node"><title>Node5</title>
<polygon fill="#bfbfbf" stroke="black" points="479.5,-156.5 479.5,-197.5 652.5,-197.5 652.5,-156.5 479.5,-156.5"/>
<text text-anchor="start" x="487.5" y="-185.5" font-family="Helvetica,sans-Serif" font-size="10.00">examples/atmel_samg55</text>
<text text-anchor="start" x="487.5" y="-174.5" font-family="Helvetica,sans-Serif" font-size="10.00">/src/ASF/thirdparty/freertos</text>
<text text-anchor="middle" x="566" y="-163.5" font-family="Helvetica,sans-Serif" font-size="10.00">/freertos&#45;7.0.0/source/include/task.h</text>
</g>
<!-- Node6 -->
<g id="node2" class="node"><title>Node6</title>
<g id="a_node2"><a xlink:href="freertos__peripheral__control_8c.xhtml" target="_top" xlink:title="Generic FreeRTOS peripheral control functions. ">
<polygon fill="white" stroke="black" points="0,-67.5 0,-119.5 156,-119.5 156,-67.5 0,-67.5"/>
<text text-anchor="start" x="8" y="-107.5" font-family="Helvetica,sans-Serif" font-size="10.00">examples/atmel_samg55</text>
<text text-anchor="start" x="8" y="-96.5" font-family="Helvetica,sans-Serif" font-size="10.00">/src/ASF/common/services</text>
<text text-anchor="start" x="8" y="-85.5" font-family="Helvetica,sans-Serif" font-size="10.00">/freertos/sam/freertos_peripheral</text>
<text text-anchor="middle" x="78" y="-74.5" font-family="Helvetica,sans-Serif" font-size="10.00">_control.c</text>
</a>
</g>
</g>
<!-- Node5&#45;&gt;Node6 -->
<g id="edge1" class="edge"><title>Node5&#45;&gt;Node6</title>
<path fill="none" stroke="midnightblue" d="M469.179,-165.867C388.628,-156.588 271.201,-141.088 170,-120 165.457,-119.053 160.807,-118.009 156.128,-116.899"/>
<polygon fill="midnightblue" stroke="midnightblue" points="468.976,-169.367 479.308,-167.024 469.77,-162.412 468.976,-169.367"/>
</g>
<!-- Node7 -->
<g id="node3" class="node"><title>Node7</title>
<g id="a_node3"><a xlink:href="freertos__usart__serial_8h.xhtml" target="_top" xlink:title="FreeRTOS Peripheral Control API For the USART. ">
<polygon fill="white" stroke="red" points="212,-67.5 212,-119.5 348,-119.5 348,-67.5 212,-67.5"/>
<text text-anchor="start" x="220" y="-107.5" font-family="Helvetica,sans-Serif" font-size="10.00">examples/atmel_samg55</text>
<text text-anchor="start" x="220" y="-96.5" font-family="Helvetica,sans-Serif" font-size="10.00">/src/ASF/common/services</text>
<text text-anchor="start" x="220" y="-85.5" font-family="Helvetica,sans-Serif" font-size="10.00">/freertos/sam/freertos_usart</text>
<text text-anchor="middle" x="280" y="-74.5" font-family="Helvetica,sans-Serif" font-size="10.00">_serial.h</text>
</a>
</g>
</g>
<!-- Node5&#45;&gt;Node7 -->
<g id="edge2" class="edge"><title>Node5&#45;&gt;Node7</title>
<path fill="none" stroke="midnightblue" d="M482.44,-153.742C445.454,-143.715 401.475,-131.553 362,-120 357.564,-118.702 353.001,-117.344 348.405,-115.961"/>
<polygon fill="midnightblue" stroke="midnightblue" points="481.613,-157.144 492.18,-156.377 483.441,-150.387 481.613,-157.144"/>
</g>
<!-- Node9 -->
<g id="node4" class="node"><title>Node9</title>
<g id="a_node4"><a xlink:href="asf_8h.xhtml" target="_top" xlink:title="Autogenerated API include file for the Atmel Software Framework (ASF) ">
<polygon fill="white" stroke="red" points="133.5,-0.5 133.5,-30.5 258.5,-30.5 258.5,-0.5 133.5,-0.5"/>
<text text-anchor="start" x="141.5" y="-18.5" font-family="Helvetica,sans-Serif" font-size="10.00">examples/atmel_samg55</text>
<text text-anchor="middle" x="196" y="-7.5" font-family="Helvetica,sans-Serif" font-size="10.00">/src/asf.h</text>
</a>
</g>
</g>
<!-- Node5&#45;&gt;Node9 -->
<g id="edge11" class="edge"><title>Node5&#45;&gt;Node9</title>
<path fill="none" stroke="midnightblue" d="M468.983,-174.274C373.766,-170.346 237.896,-158.016 203,-120 180.591,-95.5875 186.779,-52.7997 192.032,-30.6626"/>
<polygon fill="midnightblue" stroke="midnightblue" points="469.095,-177.781 479.223,-174.671 469.366,-170.786 469.095,-177.781"/>
</g>
<!-- Node12 -->
<g id="node5" class="node"><title>Node12</title>
<g id="a_node5"><a xlink:href="task__xethru_8c.xhtml" target="_top" xlink:title="examples/atmel_samg55\l/src/task_xethru.c">
<polygon fill="white" stroke="black" points="300.5,-0.5 300.5,-30.5 425.5,-30.5 425.5,-0.5 300.5,-0.5"/>
<text text-anchor="start" x="308.5" y="-18.5" font-family="Helvetica,sans-Serif" font-size="10.00">examples/atmel_samg55</text>
<text text-anchor="middle" x="363" y="-7.5" font-family="Helvetica,sans-Serif" font-size="10.00">/src/task_xethru.c</text>
</a>
</g>
</g>
<!-- Node5&#45;&gt;Node12 -->
<g id="edge12" class="edge"><title>Node5&#45;&gt;Node12</title>
<path fill="none" stroke="midnightblue" d="M469.438,-161.071C442.772,-152.803 415.768,-139.958 396,-120 371.579,-95.3446 365.216,-52.6631 363.568,-30.605"/>
<polygon fill="midnightblue" stroke="midnightblue" points="468.654,-164.488 479.233,-163.915 470.606,-157.765 468.654,-164.488"/>
</g>
<!-- Node13 -->
<g id="node6" class="node"><title>Node13</title>
<g id="a_node6"><a xlink:href="croutine_8c.xhtml" target="_top" xlink:title="examples/atmel_samg55\l/src/ASF/thirdparty/freertos\l/freertos&#45;7.0.0/source/croutine.c">
<polygon fill="white" stroke="black" points="404.5,-73 404.5,-114 559.5,-114 559.5,-73 404.5,-73"/>
<text text-anchor="start" x="412.5" y="-102" font-family="Helvetica,sans-Serif" font-size="10.00">examples/atmel_samg55</text>
<text text-anchor="start" x="412.5" y="-91" font-family="Helvetica,sans-Serif" font-size="10.00">/src/ASF/thirdparty/freertos</text>
<text text-anchor="middle" x="482" y="-80" font-family="Helvetica,sans-Serif" font-size="10.00">/freertos&#45;7.0.0/source/croutine.c</text>
</a>
</g>
</g>
<!-- Node5&#45;&gt;Node13 -->
<g id="edge5" class="edge"><title>Node5&#45;&gt;Node13</title>
<path fill="none" stroke="midnightblue" d="M538.211,-149.038C526.427,-137.604 512.95,-124.529 502.147,-114.047"/>
<polygon fill="midnightblue" stroke="midnightblue" points="536.052,-151.82 545.666,-156.271 540.926,-146.796 536.052,-151.82"/>
</g>
<!-- Node14 -->
<g id="node7" class="node"><title>Node14</title>
<g id="a_node7"><a xlink:href="port_8c.xhtml" target="_top" xlink:title="Copyright (c) 2014&#45;2015 Atmel Corporation. ">
<polygon fill="white" stroke="black" points="578,-67.5 578,-119.5 724,-119.5 724,-67.5 578,-67.5"/>
<text text-anchor="start" x="586" y="-107.5" font-family="Helvetica,sans-Serif" font-size="10.00">examples/atmel_samg55</text>
<text text-anchor="start" x="586" y="-96.5" font-family="Helvetica,sans-Serif" font-size="10.00">/src/ASF/thirdparty/freertos</text>
<text text-anchor="start" x="586" y="-85.5" font-family="Helvetica,sans-Serif" font-size="10.00">/freertos&#45;7.0.0/source/portable</text>
<text text-anchor="middle" x="651" y="-74.5" font-family="Helvetica,sans-Serif" font-size="10.00">/gcc/sam_cm4f/port.c</text>
</a>
</g>
</g>
<!-- Node5&#45;&gt;Node14 -->
<g id="edge6" class="edge"><title>Node5&#45;&gt;Node14</title>
<path fill="none" stroke="midnightblue" d="M593.904,-149.245C603.853,-139.706 615.016,-129.003 624.814,-119.607"/>
<polygon fill="midnightblue" stroke="midnightblue" points="591.372,-146.824 586.576,-156.271 596.217,-151.877 591.372,-146.824"/>
</g>
<!-- Node15 -->
<g id="node8" class="node"><title>Node15</title>
<g id="a_node8"><a xlink:href="heap__3_8c.xhtml" target="_top" xlink:title="examples/atmel_samg55\l/src/ASF/thirdparty/freertos\l/freertos&#45;7.0.0/source/portable\l/memmang/heap_3.c">
<polygon fill="white" stroke="black" points="742,-67.5 742,-119.5 888,-119.5 888,-67.5 742,-67.5"/>
<text text-anchor="start" x="750" y="-107.5" font-family="Helvetica,sans-Serif" font-size="10.00">examples/atmel_samg55</text>
<text text-anchor="start" x="750" y="-96.5" font-family="Helvetica,sans-Serif" font-size="10.00">/src/ASF/thirdparty/freertos</text>
<text text-anchor="start" x="750" y="-85.5" font-family="Helvetica,sans-Serif" font-size="10.00">/freertos&#45;7.0.0/source/portable</text>
<text text-anchor="middle" x="815" y="-74.5" font-family="Helvetica,sans-Serif" font-size="10.00">/memmang/heap_3.c</text>
</a>
</g>
</g>
<!-- Node5&#45;&gt;Node15 -->
<g id="edge7" class="edge"><title>Node5&#45;&gt;Node15</title>
<path fill="none" stroke="midnightblue" d="M635.242,-153.337C668.345,-142.502 707.986,-129.527 741.61,-118.521"/>
<polygon fill="midnightblue" stroke="midnightblue" points="634.057,-150.042 625.642,-156.479 636.234,-156.694 634.057,-150.042"/>
</g>
<!-- Node16 -->
<g id="node9" class="node"><title>Node16</title>
<g id="a_node9"><a xlink:href="queue_8c.xhtml" target="_top" xlink:title="examples/atmel_samg55\l/src/ASF/thirdparty/freertos\l/freertos&#45;7.0.0/source/queue.c">
<polygon fill="white" stroke="black" points="906,-73 906,-114 1052,-114 1052,-73 906,-73"/>
<text text-anchor="start" x="914" y="-102" font-family="Helvetica,sans-Serif" font-size="10.00">examples/atmel_samg55</text>
<text text-anchor="start" x="914" y="-91" font-family="Helvetica,sans-Serif" font-size="10.00">/src/ASF/thirdparty/freertos</text>
<text text-anchor="middle" x="979" y="-80" font-family="Helvetica,sans-Serif" font-size="10.00">/freertos&#45;7.0.0/source/queue.c</text>
</a>
</g>
</g>
<!-- Node5&#45;&gt;Node16 -->
<g id="edge8" class="edge"><title>Node5&#45;&gt;Node16</title>
<path fill="none" stroke="midnightblue" d="M662.743,-163.122C729.115,-153.436 818.953,-138.649 897,-120 904.25,-118.268 911.796,-116.239 919.246,-114.096"/>
<polygon fill="midnightblue" stroke="midnightblue" points="662.108,-159.677 652.712,-164.573 663.11,-166.605 662.108,-159.677"/>
</g>
<!-- Node17 -->
<g id="node10" class="node"><title>Node17</title>
<g id="a_node10"><a xlink:href="tasks_8c.xhtml" target="_top" xlink:title="examples/atmel_samg55\l/src/ASF/thirdparty/freertos\l/freertos&#45;7.0.0/source/tasks.c">
<polygon fill="white" stroke="black" points="1070,-73 1070,-114 1214,-114 1214,-73 1070,-73"/>
<text text-anchor="start" x="1078" y="-102" font-family="Helvetica,sans-Serif" font-size="10.00">examples/atmel_samg55</text>
<text text-anchor="start" x="1078" y="-91" font-family="Helvetica,sans-Serif" font-size="10.00">/src/ASF/thirdparty/freertos</text>
<text text-anchor="middle" x="1142" y="-80" font-family="Helvetica,sans-Serif" font-size="10.00">/freertos&#45;7.0.0/source/tasks.c</text>
</a>
</g>
</g>
<!-- Node5&#45;&gt;Node17 -->
<g id="edge9" class="edge"><title>Node5&#45;&gt;Node17</title>
<path fill="none" stroke="midnightblue" d="M662.781,-170.572C763.209,-163.656 924.398,-148.948 1061,-120 1068.64,-118.38 1076.59,-116.338 1084.4,-114.118"/>
<polygon fill="midnightblue" stroke="midnightblue" points="662.394,-167.09 652.653,-171.258 662.866,-174.075 662.394,-167.09"/>
</g>
<!-- Node18 -->
<g id="node11" class="node"><title>Node18</title>
<g id="a_node11"><a xlink:href="timers_8c.xhtml" target="_top" xlink:title="examples/atmel_samg55\l/src/ASF/thirdparty/freertos\l/freertos&#45;7.0.0/source/timers.c">
<polygon fill="white" stroke="black" points="1232.5,-73 1232.5,-114 1379.5,-114 1379.5,-73 1232.5,-73"/>
<text text-anchor="start" x="1240.5" y="-102" font-family="Helvetica,sans-Serif" font-size="10.00">examples/atmel_samg55</text>
<text text-anchor="start" x="1240.5" y="-91" font-family="Helvetica,sans-Serif" font-size="10.00">/src/ASF/thirdparty/freertos</text>
<text text-anchor="middle" x="1306" y="-80" font-family="Helvetica,sans-Serif" font-size="10.00">/freertos&#45;7.0.0/source/timers.c</text>
</a>
</g>
</g>
<!-- Node5&#45;&gt;Node18 -->
<g id="edge10" class="edge"><title>Node5&#45;&gt;Node18</title>
<path fill="none" stroke="midnightblue" d="M662.878,-174.176C791.827,-170.289 1026.46,-158.116 1223,-120 1231.14,-118.422 1239.61,-116.344 1247.9,-114.055"/>
<polygon fill="midnightblue" stroke="midnightblue" points="662.531,-170.685 652.637,-174.474 662.735,-177.682 662.531,-170.685"/>
</g>
<!-- Node7&#45;&gt;Node9 -->
<g id="edge3" class="edge"><title>Node7&#45;&gt;Node9</title>
<path fill="none" stroke="midnightblue" d="M244.328,-60.2257C233,-49.9758 221.042,-39.157 211.855,-30.8453"/>
<polygon fill="midnightblue" stroke="midnightblue" points="242.266,-63.0793 252.029,-67.1931 246.962,-57.8886 242.266,-63.0793"/>
</g>
<!-- Node7&#45;&gt;Node12 -->
<g id="edge4" class="edge"><title>Node7&#45;&gt;Node12</title>
<path fill="none" stroke="midnightblue" d="M315.247,-60.2257C326.441,-49.9758 338.256,-39.157 347.333,-30.8453"/>
<polygon fill="midnightblue" stroke="midnightblue" points="312.649,-57.8585 307.638,-67.1931 317.377,-63.0212 312.649,-57.8585"/>
</g>
</g>
</svg>
