<?xml version="1.0" encoding="UTF-8" standalone="no"?>
<!DOCTYPE svg PUBLIC "-//W3C//DTD SVG 1.1//EN"
 "http://www.w3.org/Graphics/SVG/1.1/DTD/svg11.dtd">
<!-- Generated by graphviz version 2.38.0 (20140413.2041)
 -->
<!-- Title: xethru_usart_tx_task Pages: 1 -->
<svg width="253pt" height="78pt"
 viewBox="0.00 0.00 253.00 77.50" xmlns="http://www.w3.org/2000/svg" xmlns:xlink="http://www.w3.org/1999/xlink">
<g id="graph0" class="graph" transform="scale(1 1) rotate(0) translate(4 73.5)">
<title>xethru_usart_tx_task</title>
<polygon fill="white" stroke="none" points="-4,4 -4,-73.5 249,-73.5 249,4 -4,4"/>
<!-- Node845 -->
<g id="node1" class="node"><title>Node845</title>
<polygon fill="#bfbfbf" stroke="black" points="0,-22.5 0,-41.5 108,-41.5 108,-22.5 0,-22.5"/>
<text text-anchor="middle" x="54" y="-29.5" font-family="Helvetica,sans-Serif" font-size="10.00">xethru_usart_tx_task</text>
</g>
<!-- Node846 -->
<g id="node2" class="node"><title>Node846</title>
<g id="a_node2"><a xlink:href="group__freertos__usart__peripheral__control__group.xhtml#ga4f47ec231efeccf8f159c5a14124d0ff" target="_top" xlink:title="Initiate a completely asynchronous multi&#45;byte write operation on a USART peripheral. ">
<polygon fill="white" stroke="red" points="144,-39 144,-69 245,-69 245,-39 144,-39"/>
<text text-anchor="start" x="152" y="-57" font-family="Helvetica,sans-Serif" font-size="10.00">freertos_usart_write</text>
<text text-anchor="middle" x="194.5" y="-46" font-family="Helvetica,sans-Serif" font-size="10.00">_packet_async</text>
</a>
</g>
</g>
<!-- Node845&#45;&gt;Node846 -->
<g id="edge1" class="edge"><title>Node845&#45;&gt;Node846</title>
<path fill="none" stroke="midnightblue" d="M108.152,-40.4429C116.595,-41.7841 125.377,-43.179 133.956,-44.5418"/>
<polygon fill="midnightblue" stroke="midnightblue" points="133.476,-48.0094 143.902,-46.1216 134.575,-41.096 133.476,-48.0094"/>
</g>
<!-- Node854 -->
<g id="node3" class="node"><title>Node854</title>
<g id="a_node3"><a xlink:href="task_8h.xhtml#a3fc5adc340b17cb07c12ffa90d7bb8f3" target="_top" xlink:title="vTaskDelay">
<polygon fill="white" stroke="black" points="161.5,-0.5 161.5,-19.5 227.5,-19.5 227.5,-0.5 161.5,-0.5"/>
<text text-anchor="middle" x="194.5" y="-7.5" font-family="Helvetica,sans-Serif" font-size="10.00">vTaskDelay</text>
</a>
</g>
</g>
<!-- Node845&#45;&gt;Node854 -->
<g id="edge2" class="edge"><title>Node845&#45;&gt;Node854</title>
<path fill="none" stroke="midnightblue" d="M108.152,-23.5571C122.376,-21.2976 137.56,-18.8857 151.118,-16.7321"/>
<polygon fill="midnightblue" stroke="midnightblue" points="151.799,-20.1679 161.126,-15.1424 150.701,-13.2546 151.799,-20.1679"/>
</g>
</g>
</svg>
