<?xml version="1.0" encoding="UTF-8" standalone="no"?>
<!DOCTYPE svg PUBLIC "-//W3C//DTD SVG 1.1//EN"
 "http://www.w3.org/Graphics/SVG/1.1/DTD/svg11.dtd">
<!-- Generated by graphviz version 2.38.0 (20140413.2041)
 -->
<!-- Title: mcpw_response_ready Pages: 1 -->
<svg width="228pt" height="66pt"
 viewBox="0.00 0.00 228.00 66.00" xmlns="http://www.w3.org/2000/svg" xmlns:xlink="http://www.w3.org/1999/xlink">
<g id="graph0" class="graph" transform="scale(1 1) rotate(0) translate(4 62)">
<title>mcpw_response_ready</title>
<polygon fill="white" stroke="none" points="-4,4 -4,-62 224,-62 224,4 -4,4"/>
<!-- Node403 -->
<g id="node1" class="node"><title>Node403</title>
<polygon fill="#bfbfbf" stroke="black" points="0,-19.5 0,-38.5 116,-38.5 116,-19.5 0,-19.5"/>
<text text-anchor="middle" x="58" y="-26.5" font-family="Helvetica,sans-Serif" font-size="10.00">mcpw_response_ready</text>
</g>
<!-- Node404 -->
<g id="node2" class="node"><title>Node404</title>
<g id="a_node2"><a xlink:href="task__xethru_8c.xhtml#a5f4d12ccbf9dfb5705a3fe8340adb200" target="_top" xlink:title="printf_float">
<polygon fill="white" stroke="red" points="155.5,-38.5 155.5,-57.5 216.5,-57.5 216.5,-38.5 155.5,-38.5"/>
<text text-anchor="middle" x="186" y="-45.5" font-family="Helvetica,sans-Serif" font-size="10.00">printf_float</text>
</a>
</g>
</g>
<!-- Node403&#45;&gt;Node404 -->
<g id="edge1" class="edge"><title>Node403&#45;&gt;Node404</title>
<path fill="none" stroke="midnightblue" d="M126.288,-39.1466C136.465,-40.6812 146.491,-42.1931 155.299,-43.5213"/>
<polygon fill="midnightblue" stroke="midnightblue" points="126.512,-35.6408 116.101,-37.6105 125.468,-42.5626 126.512,-35.6408"/>
</g>
<!-- Node413 -->
<g id="node3" class="node"><title>Node413</title>
<g id="a_node3"><a xlink:href="task__xethru_8c.xhtml#ab838415e708ffc71189fcdceb057dac5" target="_top" xlink:title="xethru_task">
<polygon fill="white" stroke="red" points="152,-0.5 152,-19.5 220,-19.5 220,-0.5 152,-0.5"/>
<text text-anchor="middle" x="186" y="-7.5" font-family="Helvetica,sans-Serif" font-size="10.00">xethru_task</text>
</a>
</g>
</g>
<!-- Node403&#45;&gt;Node413 -->
<g id="edge2" class="edge"><title>Node403&#45;&gt;Node413</title>
<path fill="none" stroke="midnightblue" d="M126.172,-18.8709C135.084,-17.5271 143.883,-16.2001 151.854,-14.9982"/>
<polygon fill="midnightblue" stroke="midnightblue" points="125.468,-15.4374 116.101,-20.3895 126.512,-22.3592 125.468,-15.4374"/>
</g>
</g>
</svg>
