<?xml version="1.0" encoding="UTF-8" standalone="no"?>
<!DOCTYPE svg PUBLIC "-//W3C//DTD SVG 1.1//EN"
 "http://www.w3.org/Graphics/SVG/1.1/DTD/svg11.dtd">
<!-- Generated by graphviz version 2.38.0 (20140413.2041)
 -->
<!-- Title: mcpw_demo_x4m200 Pages: 1 -->
<svg width="266pt" height="66pt"
 viewBox="0.00 0.00 266.00 66.00" xmlns="http://www.w3.org/2000/svg" xmlns:xlink="http://www.w3.org/1999/xlink">
<g id="graph0" class="graph" transform="scale(1 1) rotate(0) translate(4 62)">
<title>mcpw_demo_x4m200</title>
<polygon fill="white" stroke="none" points="-4,4 -4,-62 262,-62 262,4 -4,4"/>
<!-- Node136 -->
<g id="node1" class="node"><title>Node136</title>
<polygon fill="#bfbfbf" stroke="black" points="0,-19.5 0,-38.5 111,-38.5 111,-19.5 0,-19.5"/>
<text text-anchor="middle" x="55.5" y="-26.5" font-family="Helvetica,sans-Serif" font-size="10.00">mcpw_demo_x4m200</text>
</g>
<!-- Node137 -->
<g id="node2" class="node"><title>Node137</title>
<g id="a_node2"><a xlink:href="task__xethru_8c.xhtml#a54c65348b306e1067cb83cfd0b41cfe6" target="_top" xlink:title="mcpw_demo_x4m300">
<polygon fill="white" stroke="red" points="147,-38.5 147,-57.5 258,-57.5 258,-38.5 147,-38.5"/>
<text text-anchor="middle" x="202.5" y="-45.5" font-family="Helvetica,sans-Serif" font-size="10.00">mcpw_demo_x4m300</text>
</a>
</g>
</g>
<!-- Node136&#45;&gt;Node137 -->
<g id="edge1" class="edge"><title>Node136&#45;&gt;Node137</title>
<path fill="none" stroke="midnightblue" d="M121.462,-37.5123C129.859,-38.6125 138.392,-39.7307 146.604,-40.8068"/>
<polygon fill="midnightblue" stroke="midnightblue" points="121.688,-34.0121 111.318,-36.1831 120.779,-40.9527 121.688,-34.0121"/>
</g>
<!-- Node143 -->
<g id="node3" class="node"><title>Node143</title>
<g id="a_node3"><a xlink:href="task__xethru_8c.xhtml#ab838415e708ffc71189fcdceb057dac5" target="_top" xlink:title="xethru_task">
<polygon fill="white" stroke="red" points="168.5,-0.5 168.5,-19.5 236.5,-19.5 236.5,-0.5 168.5,-0.5"/>
<text text-anchor="middle" x="202.5" y="-7.5" font-family="Helvetica,sans-Serif" font-size="10.00">xethru_task</text>
</a>
</g>
</g>
<!-- Node136&#45;&gt;Node143 -->
<g id="edge2" class="edge"><title>Node136&#45;&gt;Node143</title>
<path fill="none" stroke="midnightblue" d="M121.37,-20.4998C137.669,-18.364 154.489,-16.1601 168.484,-14.3262"/>
<polygon fill="midnightblue" stroke="midnightblue" points="120.779,-17.0473 111.318,-21.8169 121.688,-23.9879 120.779,-17.0473"/>
</g>
</g>
</svg>
