<?xml version="1.0" encoding="UTF-8" standalone="no"?>
<!DOCTYPE svg PUBLIC "-//W3C//DTD SVG 1.1//EN"
 "http://www.w3.org/Graphics/SVG/1.1/DTD/svg11.dtd">
<!-- Generated by graphviz version 2.38.0 (20140413.2041)
 -->
<!-- Title: vTaskPlaceOnEventList Pages: 1 -->
<svg width="422pt" height="165pt"
 viewBox="0.00 0.00 422.00 165.41" xmlns="http://www.w3.org/2000/svg" xmlns:xlink="http://www.w3.org/1999/xlink">
<g id="graph0" class="graph" transform="scale(1 1) rotate(0) translate(4 161.415)">
<title>vTaskPlaceOnEventList</title>
<polygon fill="white" stroke="none" points="-4,4 -4,-161.415 418,-161.415 418,4 -4,4"/>
<!-- Node136 -->
<g id="node1" class="node"><title>Node136</title>
<polygon fill="#bfbfbf" stroke="black" points="0,-76.5 0,-95.5 119,-95.5 119,-76.5 0,-76.5"/>
<text text-anchor="middle" x="59.5" y="-83.5" font-family="Helvetica,sans-Serif" font-size="10.00">vTaskPlaceOnEventList</text>
</g>
<!-- Node137 -->
<g id="node2" class="node"><title>Node137</title>
<g id="a_node2"><a xlink:href="list_8h.xhtml#ae0c352207d36c7ba3fa1b970b1eadd51" target="_top" xlink:title="vListInsert">
<polygon fill="white" stroke="black" points="354,-95.5 354,-114.5 414,-114.5 414,-95.5 354,-95.5"/>
<text text-anchor="middle" x="384" y="-102.5" font-family="Helvetica,sans-Serif" font-size="10.00">vListInsert</text>
</a>
</g>
</g>
<!-- Node136&#45;&gt;Node137 -->
<g id="edge1" class="edge"><title>Node136&#45;&gt;Node137</title>
<path fill="none" stroke="midnightblue" d="M71.7561,-95.6439C88.5531,-109.331 121.775,-133.755 155,-143 224.793,-162.419 248.075,-161.94 318,-143 334.244,-138.6 350.59,-129.014 362.827,-120.572"/>
<polygon fill="midnightblue" stroke="midnightblue" points="364.884,-123.403 370.95,-114.717 360.791,-117.724 364.884,-123.403"/>
</g>
<!-- Node138 -->
<g id="node3" class="node"><title>Node138</title>
<g id="a_node3"><a xlink:href="list_8h.xhtml#a6c083a9d7103fca1c9abd0de20839651" target="_top" xlink:title="vListRemove">
<polygon fill="white" stroke="black" points="201,-114.5 201,-133.5 272,-133.5 272,-114.5 201,-114.5"/>
<text text-anchor="middle" x="236.5" y="-121.5" font-family="Helvetica,sans-Serif" font-size="10.00">vListRemove</text>
</a>
</g>
</g>
<!-- Node136&#45;&gt;Node138 -->
<g id="edge2" class="edge"><title>Node136&#45;&gt;Node138</title>
<path fill="none" stroke="midnightblue" d="M104.66,-95.589C130.94,-101.296 164.199,-108.517 190.607,-114.252"/>
<polygon fill="midnightblue" stroke="midnightblue" points="190.214,-117.748 200.729,-116.45 191.7,-110.907 190.214,-117.748"/>
</g>
<!-- Node139 -->
<g id="node4" class="node"><title>Node139</title>
<g id="a_node4"><a xlink:href="list_8h.xhtml#aa234bf74629ff34fbd8494a0f0112b42" target="_top" xlink:title="vListInsertEnd">
<polygon fill="white" stroke="black" points="198,-76.5 198,-95.5 275,-95.5 275,-76.5 198,-76.5"/>
<text text-anchor="middle" x="236.5" y="-83.5" font-family="Helvetica,sans-Serif" font-size="10.00">vListInsertEnd</text>
</a>
</g>
</g>
<!-- Node136&#45;&gt;Node139 -->
<g id="edge3" class="edge"><title>Node136&#45;&gt;Node139</title>
<path fill="none" stroke="midnightblue" d="M119.259,-86C141.531,-86 166.597,-86 187.736,-86"/>
<polygon fill="midnightblue" stroke="midnightblue" points="187.767,-89.5001 197.767,-86 187.767,-82.5001 187.767,-89.5001"/>
</g>
<!-- Node140 -->
<g id="node5" class="node"><title>Node140</title>
<g id="a_node5"><a xlink:href="tasks_8c.xhtml#a63b6676755c95a6ad2eb5587f374d14c" target="_top" xlink:title="prvAddCurrentTaskToDelayedList">
<polygon fill="white" stroke="black" points="156.5,-38.5 156.5,-57.5 316.5,-57.5 316.5,-38.5 156.5,-38.5"/>
<text text-anchor="middle" x="236.5" y="-45.5" font-family="Helvetica,sans-Serif" font-size="10.00">prvAddCurrentTaskToDelayedList</text>
</a>
</g>
</g>
<!-- Node136&#45;&gt;Node140 -->
<g id="edge4" class="edge"><title>Node136&#45;&gt;Node140</title>
<path fill="none" stroke="midnightblue" d="M104.66,-76.411C128.065,-71.3287 157.005,-65.0446 181.712,-59.6797"/>
<polygon fill="midnightblue" stroke="midnightblue" points="182.628,-63.0624 191.658,-57.5201 181.143,-56.2218 182.628,-63.0624"/>
</g>
<!-- Node141 -->
<g id="node6" class="node"><title>Node141</title>
<g id="a_node6"><a xlink:href="task_8h.xhtml#aa6f3e136de367b65060cf66b39ca6675" target="_top" xlink:title="vTaskPlaceOnEventListRestricted">
<polygon fill="white" stroke="black" points="155,-0.5 155,-19.5 318,-19.5 318,-0.5 155,-0.5"/>
<text text-anchor="middle" x="236.5" y="-7.5" font-family="Helvetica,sans-Serif" font-size="10.00">vTaskPlaceOnEventListRestricted</text>
</a>
</g>
</g>
<!-- Node136&#45;&gt;Node141 -->
<g id="edge6" class="edge"><title>Node136&#45;&gt;Node141</title>
<path fill="none" stroke="midnightblue" d="M73.5708,-76.2949C91.1936,-63.6492 123.954,-41.6627 155,-29 161.253,-26.4495 167.926,-24.1948 174.653,-22.2134"/>
<polygon fill="midnightblue" stroke="midnightblue" points="175.791,-25.5303 184.505,-19.5032 173.935,-18.781 175.791,-25.5303"/>
</g>
<!-- Node140&#45;&gt;Node137 -->
<g id="edge5" class="edge"><title>Node140&#45;&gt;Node137</title>
<path fill="none" stroke="midnightblue" d="M288.454,-57.6045C298.419,-60.156 308.667,-63.2678 318,-67 332.895,-72.9561 348.446,-81.9341 360.602,-89.6681"/>
<polygon fill="midnightblue" stroke="midnightblue" points="358.883,-92.7261 369.168,-95.2692 362.714,-86.8673 358.883,-92.7261"/>
</g>
</g>
</svg>
