<?xml version="1.0" encoding="UTF-8" standalone="no"?>
<!DOCTYPE svg PUBLIC "-//W3C//DTD SVG 1.1//EN"
 "http://www.w3.org/Graphics/SVG/1.1/DTD/svg11.dtd">
<!-- Generated by graphviz version 2.38.0 (20140413.2041)
 -->
<!-- Title: xTaskResumeAll Pages: 1 -->
<svg width="300pt" height="256pt"
 viewBox="0.00 0.00 300.00 256.00" xmlns="http://www.w3.org/2000/svg" xmlns:xlink="http://www.w3.org/1999/xlink">
<g id="graph0" class="graph" transform="scale(1 1) rotate(0) translate(4 252)">
<title>xTaskResumeAll</title>
<polygon fill="white" stroke="none" points="-4,4 -4,-252 296,-252 296,4 -4,4"/>
<!-- Node285 -->
<g id="node1" class="node"><title>Node285</title>
<polygon fill="#bfbfbf" stroke="black" points="0,-114.5 0,-133.5 90,-133.5 90,-114.5 0,-114.5"/>
<text text-anchor="middle" x="45" y="-121.5" font-family="Helvetica,sans-Serif" font-size="10.00">xTaskResumeAll</text>
</g>
<!-- Node286 -->
<g id="node2" class="node"><title>Node286</title>
<g id="a_node2"><a xlink:href="heap__3_8c.xhtml#a0379669d07d76cc81e3028123113b271" target="_top" xlink:title="pvPortMalloc">
<polygon fill="white" stroke="red" points="173,-228.5 173,-247.5 245,-247.5 245,-228.5 173,-228.5"/>
<text text-anchor="middle" x="209" y="-235.5" font-family="Helvetica,sans-Serif" font-size="10.00">pvPortMalloc</text>
</a>
</g>
</g>
<!-- Node285&#45;&gt;Node286 -->
<g id="edge1" class="edge"><title>Node285&#45;&gt;Node286</title>
<path fill="none" stroke="midnightblue" d="M56.2631,-142.2C69.5007,-163.941 94.6018,-199.78 126,-219 139.959,-227.545 157.399,-232.25 172.603,-234.839"/>
<polygon fill="midnightblue" stroke="midnightblue" points="59.2737,-140.415 51.1837,-133.573 53.2417,-143.966 59.2737,-140.415"/>
</g>
<!-- Node305 -->
<g id="node3" class="node"><title>Node305</title>
<g id="a_node3"><a xlink:href="heap__3_8c.xhtml#a1e7cea2fd1bc894ea3b5f5e8179d259b" target="_top" xlink:title="vPortFree">
<polygon fill="white" stroke="red" points="180,-190.5 180,-209.5 238,-209.5 238,-190.5 180,-190.5"/>
<text text-anchor="middle" x="209" y="-197.5" font-family="Helvetica,sans-Serif" font-size="10.00">vPortFree</text>
</a>
</g>
</g>
<!-- Node285&#45;&gt;Node305 -->
<g id="edge2" class="edge"><title>Node285&#45;&gt;Node305</title>
<path fill="none" stroke="midnightblue" d="M64.2588,-140.208C79.6898,-153.082 102.911,-170.596 126,-181 143.053,-188.685 163.553,-193.435 179.79,-196.264"/>
<polygon fill="midnightblue" stroke="midnightblue" points="66.4132,-137.445 56.5378,-133.608 61.8647,-142.766 66.4132,-137.445"/>
</g>
<!-- Node307 -->
<g id="node4" class="node"><title>Node307</title>
<g id="a_node4"><a xlink:href="queue_8c.xhtml#a1ff8f61508bc9c0fa0abc44750fc1981" target="_top" xlink:title="xQueueGenericSend">
<polygon fill="white" stroke="red" points="155.5,-152.5 155.5,-171.5 262.5,-171.5 262.5,-152.5 155.5,-152.5"/>
<text text-anchor="middle" x="209" y="-159.5" font-family="Helvetica,sans-Serif" font-size="10.00">xQueueGenericSend</text>
</a>
</g>
</g>
<!-- Node285&#45;&gt;Node307 -->
<g id="edge3" class="edge"><title>Node285&#45;&gt;Node307</title>
<path fill="none" stroke="midnightblue" d="M95.7065,-135.85C105.733,-138.228 116.202,-140.701 126,-143 139.231,-146.104 153.671,-149.46 166.695,-152.476"/>
<polygon fill="midnightblue" stroke="midnightblue" points="96.4062,-132.419 85.8681,-133.514 94.7891,-139.23 96.4062,-132.419"/>
</g>
<!-- Node308 -->
<g id="node5" class="node"><title>Node308</title>
<g id="a_node5"><a xlink:href="queue_8c.xhtml#a0424dce690a6a65558f16cc229b767bf" target="_top" xlink:title="xQueueGenericReceive">
<polygon fill="white" stroke="red" points="150,-114.5 150,-133.5 268,-133.5 268,-114.5 150,-114.5"/>
<text text-anchor="middle" x="209" y="-121.5" font-family="Helvetica,sans-Serif" font-size="10.00">xQueueGenericReceive</text>
</a>
</g>
</g>
<!-- Node285&#45;&gt;Node308 -->
<g id="edge4" class="edge"><title>Node285&#45;&gt;Node308</title>
<path fill="none" stroke="midnightblue" d="M100.445,-124C116.313,-124 133.71,-124 149.8,-124"/>
<polygon fill="midnightblue" stroke="midnightblue" points="100.267,-120.5 90.2672,-124 100.267,-127.5 100.267,-120.5"/>
</g>
<!-- Node290 -->
<g id="node6" class="node"><title>Node290</title>
<g id="a_node6"><a xlink:href="tasks_8c.xhtml#a1ceb56c5c7ff2581a5ea837db4f721c1" target="_top" xlink:title="prvInitialiseTaskLists">
<polygon fill="white" stroke="black" points="156,-76.5 156,-95.5 262,-95.5 262,-76.5 156,-76.5"/>
<text text-anchor="middle" x="209" y="-83.5" font-family="Helvetica,sans-Serif" font-size="10.00">prvInitialiseTaskLists</text>
</a>
</g>
</g>
<!-- Node285&#45;&gt;Node290 -->
<g id="edge5" class="edge"><title>Node285&#45;&gt;Node290</title>
<path fill="none" stroke="midnightblue" d="M95.7065,-112.15C105.733,-109.772 116.202,-107.299 126,-105 139.231,-101.896 153.671,-98.5397 166.695,-95.5241"/>
<polygon fill="midnightblue" stroke="midnightblue" points="94.7891,-108.77 85.8681,-114.486 96.4062,-115.581 94.7891,-108.77"/>
</g>
<!-- Node309 -->
<g id="node7" class="node"><title>Node309</title>
<g id="a_node7"><a xlink:href="tasks_8c.xhtml#a192988eef7c43ec387493f4a29df4ce7" target="_top" xlink:title="uxTaskGetNumberOfTasks">
<polygon fill="white" stroke="black" points="142,-38.5 142,-57.5 276,-57.5 276,-38.5 142,-38.5"/>
<text text-anchor="middle" x="209" y="-45.5" font-family="Helvetica,sans-Serif" font-size="10.00">uxTaskGetNumberOfTasks</text>
</a>
</g>
</g>
<!-- Node285&#45;&gt;Node309 -->
<g id="edge6" class="edge"><title>Node285&#45;&gt;Node309</title>
<path fill="none" stroke="midnightblue" d="M64.2588,-107.792C79.6898,-94.9181 102.911,-77.4045 126,-67 134.527,-63.1576 143.915,-60.0489 153.201,-57.5472"/>
<polygon fill="midnightblue" stroke="midnightblue" points="61.8647,-105.234 56.5378,-114.392 66.4132,-110.555 61.8647,-105.234"/>
</g>
<!-- Node310 -->
<g id="node8" class="node"><title>Node310</title>
<g id="a_node8"><a xlink:href="tasks_8c.xhtml#a903096c962a2bc907f4b902a7d42302a" target="_top" xlink:title="prvCheckTasksWaitingTermination">
<polygon fill="white" stroke="red" points="126,-0.5 126,-19.5 292,-19.5 292,-0.5 126,-0.5"/>
<text text-anchor="middle" x="209" y="-7.5" font-family="Helvetica,sans-Serif" font-size="10.00">prvCheckTasksWaitingTermination</text>
</a>
</g>
</g>
<!-- Node285&#45;&gt;Node310 -->
<g id="edge7" class="edge"><title>Node285&#45;&gt;Node310</title>
<path fill="none" stroke="midnightblue" d="M56.2631,-105.8C69.5007,-84.0589 94.6018,-48.22 126,-29 132.356,-25.109 139.435,-22.0143 146.695,-19.5529"/>
<polygon fill="midnightblue" stroke="midnightblue" points="53.2417,-104.034 51.1837,-114.427 59.2737,-107.585 53.2417,-104.034"/>
</g>
</g>
</svg>
