<?xml version="1.0" encoding="UTF-8" standalone="no"?>
<!DOCTYPE svg PUBLIC "-//W3C//DTD SVG 1.1//EN"
 "http://www.w3.org/Graphics/SVG/1.1/DTD/svg11.dtd">
<!-- Generated by graphviz version 2.38.0 (20140413.2041)
 -->
<!-- Title: xethru_task Pages: 1 -->
<svg width="340pt" height="245pt"
 viewBox="0.00 0.00 340.00 244.63" xmlns="http://www.w3.org/2000/svg" xmlns:xlink="http://www.w3.org/1999/xlink">
<g id="graph0" class="graph" transform="scale(1 1) rotate(0) translate(4 240.63)">
<title>xethru_task</title>
<polygon fill="white" stroke="none" points="-4,4 -4,-240.63 336,-240.63 336,4 -4,4"/>
<!-- Node655 -->
<g id="node1" class="node"><title>Node655</title>
<polygon fill="#bfbfbf" stroke="black" points="0,-103.13 0,-122.13 68,-122.13 68,-103.13 0,-103.13"/>
<text text-anchor="middle" x="34" y="-110.13" font-family="Helvetica,sans-Serif" font-size="10.00">xethru_task</text>
</g>
<!-- Node656 -->
<g id="node2" class="node"><title>Node656</title>
<g id="a_node2"><a xlink:href="mcp__wrapper_8c.xhtml#a8efb91e9c3d5560175665b4d761dc3c1" target="_top" xlink:title="mcpw_get_instance_size">
<polygon fill="white" stroke="red" points="104,-217.13 104,-236.13 230,-236.13 230,-217.13 104,-217.13"/>
<text text-anchor="middle" x="167" y="-224.13" font-family="Helvetica,sans-Serif" font-size="10.00">mcpw_get_instance_size</text>
</a>
</g>
</g>
<!-- Node655&#45;&gt;Node656 -->
<g id="edge1" class="edge"><title>Node655&#45;&gt;Node656</title>
<path fill="none" stroke="midnightblue" d="M39.3755,-122.307C48.5477,-141.502 71.6487,-184.534 104,-207.63 106.703,-209.559 109.606,-211.296 112.628,-212.86"/>
<polygon fill="midnightblue" stroke="midnightblue" points="111.409,-216.149 121.965,-217.048 114.274,-209.762 111.409,-216.149"/>
</g>
<!-- Node658 -->
<g id="node3" class="node"><title>Node658</title>
<g id="a_node3"><a xlink:href="mcp__wrapper_8c.xhtml#a084d5ccbec6eb410307e89841bd01dde" target="_top" xlink:title="mcpw_init">
<polygon fill="white" stroke="red" points="137,-179.13 137,-198.13 197,-198.13 197,-179.13 137,-179.13"/>
<text text-anchor="middle" x="167" y="-186.13" font-family="Helvetica,sans-Serif" font-size="10.00">mcpw_init</text>
</a>
</g>
</g>
<!-- Node655&#45;&gt;Node658 -->
<g id="edge2" class="edge"><title>Node655&#45;&gt;Node658</title>
<path fill="none" stroke="midnightblue" d="M44.3758,-122.483C56.8737,-135.086 80.1951,-156.813 104,-169.63 111.179,-173.495 119.258,-176.694 127.153,-179.294"/>
<polygon fill="midnightblue" stroke="midnightblue" points="126.389,-182.719 136.974,-182.272 128.42,-176.021 126.389,-182.719"/>
</g>
<!-- Node700 -->
<g id="node4" class="node"><title>Node700</title>
<g id="a_node4"><a xlink:href="task__xethru_8c.xhtml#aaee208ebf2b292e2ee902fc38f03e6d3" target="_top" xlink:title="mcpw_send_bytes">
<polygon fill="white" stroke="black" points="118,-141.13 118,-160.13 216,-160.13 216,-141.13 118,-141.13"/>
<text text-anchor="middle" x="167" y="-148.13" font-family="Helvetica,sans-Serif" font-size="10.00">mcpw_send_bytes</text>
</a>
</g>
</g>
<!-- Node655&#45;&gt;Node700 -->
<g id="edge3" class="edge"><title>Node655&#45;&gt;Node700</title>
<path fill="none" stroke="midnightblue" d="M68.0568,-122.219C84.8125,-127.079 105.358,-133.039 123.297,-138.242"/>
<polygon fill="midnightblue" stroke="midnightblue" points="122.375,-141.619 132.954,-141.044 124.325,-134.896 122.375,-141.619"/>
</g>
<!-- Node701 -->
<g id="node5" class="node"><title>Node701</title>
<g id="a_node5"><a xlink:href="task__xethru_8c.xhtml#a52b9d69168805fb3152bb63f74bd4bde" target="_top" xlink:title="mcpw_wait_for_response">
<polygon fill="white" stroke="black" points="104.5,-103.13 104.5,-122.13 229.5,-122.13 229.5,-103.13 104.5,-103.13"/>
<text text-anchor="middle" x="167" y="-110.13" font-family="Helvetica,sans-Serif" font-size="10.00">mcpw_wait_for_response</text>
</a>
</g>
</g>
<!-- Node655&#45;&gt;Node701 -->
<g id="edge4" class="edge"><title>Node655&#45;&gt;Node701</title>
<path fill="none" stroke="midnightblue" d="M68.0568,-112.63C76.0972,-112.63 85.0101,-112.63 94.0888,-112.63"/>
<polygon fill="midnightblue" stroke="midnightblue" points="94.3719,-116.13 104.372,-112.63 94.3718,-109.13 94.3719,-116.13"/>
</g>
<!-- Node702 -->
<g id="node6" class="node"><title>Node702</title>
<g id="a_node6"><a xlink:href="task__xethru_8c.xhtml#a096853bdfdec199c03de9b0933397a3c" target="_top" xlink:title="mcpw_response_ready">
<polygon fill="white" stroke="black" points="109,-65.1295 109,-84.1295 225,-84.1295 225,-65.1295 109,-65.1295"/>
<text text-anchor="middle" x="167" y="-72.1295" font-family="Helvetica,sans-Serif" font-size="10.00">mcpw_response_ready</text>
</a>
</g>
</g>
<!-- Node655&#45;&gt;Node702 -->
<g id="edge5" class="edge"><title>Node655&#45;&gt;Node702</title>
<path fill="none" stroke="midnightblue" d="M68.0568,-103.04C84.8125,-98.1801 105.358,-92.2204 123.297,-87.0168"/>
<polygon fill="midnightblue" stroke="midnightblue" points="124.325,-90.3629 132.954,-84.2154 122.375,-83.64 124.325,-90.3629"/>
</g>
<!-- Node703 -->
<g id="node7" class="node"><title>Node703</title>
<g id="a_node7"><a xlink:href="task__xethru_8c.xhtml#a4d700c7ee4beaac0a8a4c95c11e5c673" target="_top" xlink:title="mcpw_demo_x4m200">
<polygon fill="white" stroke="red" points="111.5,-27.1295 111.5,-46.1295 222.5,-46.1295 222.5,-27.1295 111.5,-27.1295"/>
<text text-anchor="middle" x="167" y="-34.1295" font-family="Helvetica,sans-Serif" font-size="10.00">mcpw_demo_x4m200</text>
</a>
</g>
</g>
<!-- Node655&#45;&gt;Node703 -->
<g id="edge6" class="edge"><title>Node655&#45;&gt;Node703</title>
<path fill="none" stroke="midnightblue" d="M44.3758,-102.776C56.8737,-90.1729 80.1951,-68.4464 104,-55.6295 108.011,-53.4697 112.304,-51.5179 116.689,-49.7623"/>
<polygon fill="midnightblue" stroke="midnightblue" points="118.169,-52.9477 126.361,-46.2281 115.767,-46.3729 118.169,-52.9477"/>
</g>
<!-- Node707 -->
<g id="node8" class="node"><title>Node707</title>
<g id="a_node8"><a xlink:href="task_8h.xhtml#a3fc5adc340b17cb07c12ffa90d7bb8f3" target="_top" xlink:title="vTaskDelay">
<polygon fill="white" stroke="black" points="266,-8.1295 266,-27.1295 332,-27.1295 332,-8.1295 266,-8.1295"/>
<text text-anchor="middle" x="299" y="-15.1295" font-family="Helvetica,sans-Serif" font-size="10.00">vTaskDelay</text>
</a>
</g>
</g>
<!-- Node655&#45;&gt;Node707 -->
<g id="edge8" class="edge"><title>Node655&#45;&gt;Node707</title>
<path fill="none" stroke="midnightblue" d="M38.4829,-103.032C46.4292,-82.7631 68.0395,-35.9557 104,-17.6295 151.582,6.61927 214.647,0.829403 255.76,-7.09089"/>
<polygon fill="midnightblue" stroke="midnightblue" points="255.218,-10.5524 265.717,-9.13344 256.624,-3.69521 255.218,-10.5524"/>
</g>
<!-- Node703&#45;&gt;Node707 -->
<g id="edge7" class="edge"><title>Node703&#45;&gt;Node707</title>
<path fill="none" stroke="midnightblue" d="M222.755,-28.6269C233.788,-27.0143 245.225,-25.3427 255.751,-23.8043"/>
<polygon fill="midnightblue" stroke="midnightblue" points="256.536,-27.2268 265.925,-22.3174 255.524,-20.3004 256.536,-27.2268"/>
</g>
</g>
</svg>
