<?xml version="1.0" encoding="UTF-8" standalone="no"?>
<!DOCTYPE svg PUBLIC "-//W3C//DTD SVG 1.1//EN"
 "http://www.w3.org/Graphics/SVG/1.1/DTD/svg11.dtd">
<!-- Generated by graphviz version 2.38.0 (20140413.2041)
 -->
<!-- Title: vTaskIncrementTick Pages: 1 -->
<svg width="254pt" height="66pt"
 viewBox="0.00 0.00 254.00 66.00" xmlns="http://www.w3.org/2000/svg" xmlns:xlink="http://www.w3.org/1999/xlink">
<g id="graph0" class="graph" transform="scale(1 1) rotate(0) translate(4 62)">
<title>vTaskIncrementTick</title>
<polygon fill="white" stroke="none" points="-4,4 -4,-62 250,-62 250,4 -4,4"/>
<!-- Node147 -->
<g id="node1" class="node"><title>Node147</title>
<polygon fill="#bfbfbf" stroke="black" points="0,-19.5 0,-38.5 102,-38.5 102,-19.5 0,-19.5"/>
<text text-anchor="middle" x="51" y="-26.5" font-family="Helvetica,sans-Serif" font-size="10.00">vTaskIncrementTick</text>
</g>
<!-- Node148 -->
<g id="node2" class="node"><title>Node148</title>
<g id="a_node2"><a xlink:href="main_8c.xhtml#a78100b2d36913d0b45565be8975e5de8" target="_top" xlink:title="xPortSysTickHandler">
<polygon fill="white" stroke="red" points="138,-38.5 138,-57.5 246,-57.5 246,-38.5 138,-38.5"/>
<text text-anchor="middle" x="192" y="-45.5" font-family="Helvetica,sans-Serif" font-size="10.00">xPortSysTickHandler</text>
</a>
</g>
</g>
<!-- Node147&#45;&gt;Node148 -->
<g id="edge1" class="edge"><title>Node147&#45;&gt;Node148</title>
<path fill="none" stroke="midnightblue" d="M112.321,-37.2453C120.735,-38.3955 129.332,-39.5706 137.607,-40.7017"/>
<polygon fill="midnightblue" stroke="midnightblue" points="112.564,-33.7461 102.182,-35.8594 111.616,-40.6816 112.564,-33.7461"/>
</g>
<!-- Node150 -->
<g id="node3" class="node"><title>Node150</title>
<g id="a_node3"><a xlink:href="tasks_8c.xhtml#ab173f313b22f1a57dfceb98cb01b0508" target="_top" xlink:title="xTaskResumeAll">
<polygon fill="white" stroke="red" points="147,-0.5 147,-19.5 237,-19.5 237,-0.5 147,-0.5"/>
<text text-anchor="middle" x="192" y="-7.5" font-family="Helvetica,sans-Serif" font-size="10.00">xTaskResumeAll</text>
</a>
</g>
</g>
<!-- Node147&#45;&gt;Node150 -->
<g id="edge2" class="edge"><title>Node147&#45;&gt;Node150</title>
<path fill="none" stroke="midnightblue" d="M112.276,-20.7608C123.903,-19.1715 135.881,-17.5343 146.876,-16.0313"/>
<polygon fill="midnightblue" stroke="midnightblue" points="111.616,-17.3184 102.182,-22.1406 112.564,-24.2539 111.616,-17.3184"/>
</g>
</g>
</svg>
