<?xml version="1.0" encoding="UTF-8" standalone="no"?>
<!DOCTYPE svg PUBLIC "-//W3C//DTD SVG 1.1//EN"
 "http://www.w3.org/Graphics/SVG/1.1/DTD/svg11.dtd">
<!-- Generated by graphviz version 2.38.0 (20140413.2041)
 -->
<!-- Title: usart_serial_getchar Pages: 1 -->
<svg width="273pt" height="66pt"
 viewBox="0.00 0.00 273.00 66.00" xmlns="http://www.w3.org/2000/svg" xmlns:xlink="http://www.w3.org/1999/xlink">
<g id="graph0" class="graph" transform="scale(1 1) rotate(0) translate(4 62)">
<title>usart_serial_getchar</title>
<polygon fill="white" stroke="none" points="-4,4 -4,-62 269,-62 269,4 -4,4"/>
<!-- Node2 -->
<g id="node1" class="node"><title>Node2</title>
<polygon fill="#bfbfbf" stroke="black" points="0,-19.5 0,-38.5 104,-38.5 104,-19.5 0,-19.5"/>
<text text-anchor="middle" x="52" y="-26.5" font-family="Helvetica,sans-Serif" font-size="10.00">usart_serial_getchar</text>
</g>
<!-- Node3 -->
<g id="node2" class="node"><title>Node3</title>
<g id="a_node2"><a xlink:href="usart__serial_8c.xhtml#a87b33461b725f80263a8628b6e852e9e" target="_top" xlink:title="Receive a sequence of bytes from USART device. ">
<polygon fill="white" stroke="red" points="140,-38.5 140,-57.5 265,-57.5 265,-38.5 140,-38.5"/>
<text text-anchor="middle" x="202.5" y="-45.5" font-family="Helvetica,sans-Serif" font-size="10.00">usart_serial_read_packet</text>
</a>
</g>
</g>
<!-- Node2&#45;&gt;Node3 -->
<g id="edge1" class="edge"><title>Node2&#45;&gt;Node3</title>
<path fill="none" stroke="midnightblue" d="M114.248,-36.8365C122.683,-37.9156 131.348,-39.0244 139.791,-40.1046"/>
<polygon fill="midnightblue" stroke="midnightblue" points="114.469,-33.3362 104.105,-35.5387 113.58,-40.2796 114.469,-33.3362"/>
</g>
<!-- Node5 -->
<g id="node3" class="node"><title>Node5</title>
<g id="a_node3"><a xlink:href="group__group__common__utils__stdio__stdio__serial.xhtml#ga69a6d76cd00643343f3839b6c3e68cd9" target="_top" xlink:title="Initializes the stdio in Serial Mode. ">
<polygon fill="white" stroke="red" points="160.5,-0.5 160.5,-19.5 244.5,-19.5 244.5,-0.5 160.5,-0.5"/>
<text text-anchor="middle" x="202.5" y="-7.5" font-family="Helvetica,sans-Serif" font-size="10.00">stdio_serial_init</text>
</a>
</g>
</g>
<!-- Node2&#45;&gt;Node5 -->
<g id="edge2" class="edge"><title>Node2&#45;&gt;Node5</title>
<path fill="none" stroke="midnightblue" d="M114.137,-21.1778C129.619,-19.1969 145.887,-17.1155 160.131,-15.293"/>
<polygon fill="midnightblue" stroke="midnightblue" points="113.58,-17.7204 104.105,-22.4613 114.469,-24.6638 113.58,-17.7204"/>
</g>
</g>
</svg>
