<?xml version="1.0" encoding="UTF-8" standalone="no"?>
<!DOCTYPE svg PUBLIC "-//W3C//DTD SVG 1.1//EN"
 "http://www.w3.org/Graphics/SVG/1.1/DTD/svg11.dtd">
<!-- Generated by graphviz version 2.38.0 (20140413.2041)
 -->
<!-- Title: usart_serial_putchar Pages: 1 -->
<svg width="240pt" height="78pt"
 viewBox="0.00 0.00 240.00 77.50" xmlns="http://www.w3.org/2000/svg" xmlns:xlink="http://www.w3.org/1999/xlink">
<g id="graph0" class="graph" transform="scale(1 1) rotate(0) translate(4 73.5)">
<title>usart_serial_putchar</title>
<polygon fill="white" stroke="none" points="-4,4 -4,-73.5 236,-73.5 236,4 -4,4"/>
<!-- Node52 -->
<g id="node1" class="node"><title>Node52</title>
<polygon fill="#bfbfbf" stroke="black" points="0,-22.5 0,-41.5 104,-41.5 104,-22.5 0,-22.5"/>
<text text-anchor="middle" x="52" y="-29.5" font-family="Helvetica,sans-Serif" font-size="10.00">usart_serial_putchar</text>
</g>
<!-- Node53 -->
<g id="node2" class="node"><title>Node53</title>
<g id="a_node2"><a xlink:href="usart__serial_8c.xhtml#af9393f1fa29d87970159fabd511b7de1" target="_top" xlink:title="Send a sequence of bytes to USART device. ">
<polygon fill="white" stroke="red" points="140,-39 140,-69 232,-69 232,-39 140,-39"/>
<text text-anchor="start" x="148" y="-57" font-family="Helvetica,sans-Serif" font-size="10.00">usart_serial_write</text>
<text text-anchor="middle" x="186" y="-46" font-family="Helvetica,sans-Serif" font-size="10.00">_packet</text>
</a>
</g>
</g>
<!-- Node52&#45;&gt;Node53 -->
<g id="edge1" class="edge"><title>Node52&#45;&gt;Node53</title>
<path fill="none" stroke="midnightblue" d="M114.074,-42.179C122.701,-43.6168 131.44,-45.0734 139.699,-46.4498"/>
<polygon fill="midnightblue" stroke="midnightblue" points="114.474,-38.6975 104.035,-40.5058 113.323,-45.6022 114.474,-38.6975"/>
</g>
<!-- Node55 -->
<g id="node3" class="node"><title>Node55</title>
<g id="a_node3"><a xlink:href="group__group__common__utils__stdio__stdio__serial.xhtml#ga69a6d76cd00643343f3839b6c3e68cd9" target="_top" xlink:title="Initializes the stdio in Serial Mode. ">
<polygon fill="white" stroke="red" points="144,-0.5 144,-19.5 228,-19.5 228,-0.5 144,-0.5"/>
<text text-anchor="middle" x="186" y="-7.5" font-family="Helvetica,sans-Serif" font-size="10.00">stdio_serial_init</text>
</a>
</g>
</g>
<!-- Node52&#45;&gt;Node55 -->
<g id="edge2" class="edge"><title>Node52&#45;&gt;Node55</title>
<path fill="none" stroke="midnightblue" d="M114.06,-21.8233C124.173,-20.1378 134.441,-18.4264 143.909,-16.8486"/>
<polygon fill="midnightblue" stroke="midnightblue" points="113.323,-18.3978 104.035,-23.4942 114.474,-25.3025 113.323,-18.3978"/>
</g>
</g>
</svg>
