<?xml version="1.0" encoding="UTF-8" standalone="no"?>
<!DOCTYPE svg PUBLIC "-//W3C//DTD SVG 1.1//EN"
 "http://www.w3.org/Graphics/SVG/1.1/DTD/svg11.dtd">
<!-- Generated by graphviz version 2.38.0 (20140413.2041)
 -->
<!-- Title: usart_serial_write_packet Pages: 1 -->
<svg width="229pt" height="39pt"
 viewBox="0.00 0.00 229.00 39.00" xmlns="http://www.w3.org/2000/svg" xmlns:xlink="http://www.w3.org/1999/xlink">
<g id="graph0" class="graph" transform="scale(1 1) rotate(0) translate(4 35)">
<title>usart_serial_write_packet</title>
<polygon fill="white" stroke="none" points="-4,4 -4,-35 225,-35 225,4 -4,4"/>
<!-- Node8 -->
<g id="node1" class="node"><title>Node8</title>
<polygon fill="#bfbfbf" stroke="black" points="0,-0.5 0,-30.5 92,-30.5 92,-0.5 0,-0.5"/>
<text text-anchor="start" x="8" y="-18.5" font-family="Helvetica,sans-Serif" font-size="10.00">usart_serial_write</text>
<text text-anchor="middle" x="46" y="-7.5" font-family="Helvetica,sans-Serif" font-size="10.00">_packet</text>
</g>
<!-- Node9 -->
<g id="node2" class="node"><title>Node9</title>
<g id="a_node2"><a xlink:href="uart__serial_8h.xhtml#a323605aa962a902dd8e86f0c67adf1ed" target="_top" xlink:title="Check if Received data is ready. ">
<polygon fill="white" stroke="black" points="128,-0.5 128,-30.5 221,-30.5 221,-0.5 128,-0.5"/>
<text text-anchor="start" x="136" y="-18.5" font-family="Helvetica,sans-Serif" font-size="10.00">usart_serial_is_rx</text>
<text text-anchor="middle" x="174.5" y="-7.5" font-family="Helvetica,sans-Serif" font-size="10.00">_ready</text>
</a>
</g>
</g>
<!-- Node8&#45;&gt;Node9 -->
<g id="edge1" class="edge"><title>Node8&#45;&gt;Node9</title>
<path fill="none" stroke="midnightblue" d="M102.446,-15.5C110.864,-15.5 119.469,-15.5 127.653,-15.5"/>
<polygon fill="midnightblue" stroke="midnightblue" points="102.312,-12.0001 92.3121,-15.5 102.312,-19.0001 102.312,-12.0001"/>
</g>
</g>
</svg>
