<?xml version="1.0" encoding="UTF-8" standalone="no"?>
<!DOCTYPE svg PUBLIC "-//W3C//DTD SVG 1.1//EN"
 "http://www.w3.org/Graphics/SVG/1.1/DTD/svg11.dtd">
<!-- Generated by graphviz version 2.38.0 (20140413.2041)
 -->
<!-- Title: examples/atmel_samg55/src/ASF/sam/utils/cmsis/samg/samg55/include/component/usart.h Pages: 1 -->
<svg width="1309pt" height="217pt"
 viewBox="0.00 0.00 1309.00 217.00" xmlns="http://www.w3.org/2000/svg" xmlns:xlink="http://www.w3.org/1999/xlink">
<g id="graph0" class="graph" transform="scale(1 1) rotate(0) translate(4 213)">
<title>examples/atmel_samg55/src/ASF/sam/utils/cmsis/samg/samg55/include/component/usart.h</title>
<polygon fill="white" stroke="none" points="-4,4 -4,-213 1305,-213 1305,4 -4,4"/>
<!-- Node1 -->
<g id="node1" class="node"><title>Node1</title>
<polygon fill="#bfbfbf" stroke="black" points="456,-156.5 456,-208.5 622,-208.5 622,-156.5 456,-156.5"/>
<text text-anchor="start" x="464" y="-196.5" font-family="Helvetica,sans-Serif" font-size="10.00">examples/atmel_samg55</text>
<text text-anchor="start" x="464" y="-185.5" font-family="Helvetica,sans-Serif" font-size="10.00">/src/ASF/sam/utils/cmsis</text>
<text text-anchor="start" x="464" y="-174.5" font-family="Helvetica,sans-Serif" font-size="10.00">/samg/samg55/include/component</text>
<text text-anchor="middle" x="539" y="-163.5" font-family="Helvetica,sans-Serif" font-size="10.00">/usart.h</text>
</g>
<!-- Node2 -->
<g id="node2" class="node"><title>Node2</title>
<g id="a_node2"><a xlink:href="freertos__usart__serial_8h.xhtml" target="_top" xlink:title="FreeRTOS Peripheral Control API For the USART. ">
<polygon fill="white" stroke="red" points="0,-67.5 0,-119.5 136,-119.5 136,-67.5 0,-67.5"/>
<text text-anchor="start" x="8" y="-107.5" font-family="Helvetica,sans-Serif" font-size="10.00">examples/atmel_samg55</text>
<text text-anchor="start" x="8" y="-96.5" font-family="Helvetica,sans-Serif" font-size="10.00">/src/ASF/common/services</text>
<text text-anchor="start" x="8" y="-85.5" font-family="Helvetica,sans-Serif" font-size="10.00">/freertos/sam/freertos_usart</text>
<text text-anchor="middle" x="68" y="-74.5" font-family="Helvetica,sans-Serif" font-size="10.00">_serial.h</text>
</a>
</g>
</g>
<!-- Node1&#45;&gt;Node2 -->
<g id="edge1" class="edge"><title>Node1&#45;&gt;Node2</title>
<path fill="none" stroke="midnightblue" d="M446.031,-170.647C366.763,-160.48 250.093,-143.346 150,-120 145.499,-118.95 140.886,-117.781 136.254,-116.536"/>
<polygon fill="midnightblue" stroke="midnightblue" points="445.631,-174.124 455.992,-171.913 446.514,-167.18 445.631,-174.124"/>
</g>
<!-- Node4 -->
<g id="node3" class="node"><title>Node4</title>
<g id="a_node3"><a xlink:href="asf_8h.xhtml" target="_top" xlink:title="Autogenerated API include file for the Atmel Software Framework (ASF) ">
<polygon fill="white" stroke="red" points="53.5,-0.5 53.5,-30.5 178.5,-30.5 178.5,-0.5 53.5,-0.5"/>
<text text-anchor="start" x="61.5" y="-18.5" font-family="Helvetica,sans-Serif" font-size="10.00">examples/atmel_samg55</text>
<text text-anchor="middle" x="116" y="-7.5" font-family="Helvetica,sans-Serif" font-size="10.00">/src/asf.h</text>
</a>
</g>
</g>
<!-- Node1&#45;&gt;Node4 -->
<g id="edge9" class="edge"><title>Node1&#45;&gt;Node4</title>
<path fill="none" stroke="midnightblue" d="M445.959,-173.782C355.605,-164.814 226.095,-147.611 184,-120 175.281,-114.281 140.726,-57.7919 124.499,-30.7654"/>
<polygon fill="midnightblue" stroke="midnightblue" points="445.656,-177.269 455.948,-174.756 446.335,-170.302 445.656,-177.269"/>
</g>
<!-- Node8 -->
<g id="node4" class="node"><title>Node8</title>
<g id="a_node4"><a xlink:href="uart__serial_8h.xhtml" target="_top" xlink:title="Uart Serial for SAM. ">
<polygon fill="white" stroke="black" points="192.5,-73 192.5,-114 335.5,-114 335.5,-73 192.5,-73"/>
<text text-anchor="start" x="200.5" y="-102" font-family="Helvetica,sans-Serif" font-size="10.00">examples/atmel_samg55</text>
<text text-anchor="start" x="200.5" y="-91" font-family="Helvetica,sans-Serif" font-size="10.00">/src/ASF/common/services</text>
<text text-anchor="middle" x="264" y="-80" font-family="Helvetica,sans-Serif" font-size="10.00">/serial/sam_uart/uart_serial.h</text>
</a>
</g>
</g>
<!-- Node1&#45;&gt;Node8 -->
<g id="edge3" class="edge"><title>Node1&#45;&gt;Node8</title>
<path fill="none" stroke="midnightblue" d="M450.217,-153.412C409.701,-140.595 362.705,-125.727 326.061,-114.134"/>
<polygon fill="midnightblue" stroke="midnightblue" points="449.238,-156.773 459.828,-156.453 451.349,-150.099 449.238,-156.773"/>
</g>
<!-- Node9 -->
<g id="node5" class="node"><title>Node9</title>
<g id="a_node5"><a xlink:href="samg55g18_8h.xhtml" target="_top" xlink:title="Copyright (c) 2014&#45;2015 Atmel Corporation. ">
<polygon fill="white" stroke="black" points="354,-73 354,-114 530,-114 530,-73 354,-73"/>
<text text-anchor="start" x="362" y="-102" font-family="Helvetica,sans-Serif" font-size="10.00">examples/atmel_samg55</text>
<text text-anchor="start" x="362" y="-91" font-family="Helvetica,sans-Serif" font-size="10.00">/src/ASF/sam/utils/cmsis</text>
<text text-anchor="middle" x="442" y="-80" font-family="Helvetica,sans-Serif" font-size="10.00">/samg/samg55/include/samg55g18.h</text>
</a>
</g>
</g>
<!-- Node1&#45;&gt;Node9 -->
<g id="edge4" class="edge"><title>Node1&#45;&gt;Node9</title>
<path fill="none" stroke="midnightblue" d="M503.338,-149.515C490.095,-137.637 475.476,-124.525 463.833,-114.082"/>
<polygon fill="midnightblue" stroke="midnightblue" points="501.162,-152.265 510.944,-156.336 505.836,-147.054 501.162,-152.265"/>
</g>
<!-- Node10 -->
<g id="node6" class="node"><title>Node10</title>
<g id="a_node6"><a xlink:href="samg55g19_8h.xhtml" target="_top" xlink:title="Copyright (c) 2014&#45;2015 Atmel Corporation. ">
<polygon fill="white" stroke="black" points="548,-73 548,-114 724,-114 724,-73 548,-73"/>
<text text-anchor="start" x="556" y="-102" font-family="Helvetica,sans-Serif" font-size="10.00">examples/atmel_samg55</text>
<text text-anchor="start" x="556" y="-91" font-family="Helvetica,sans-Serif" font-size="10.00">/src/ASF/sam/utils/cmsis</text>
<text text-anchor="middle" x="636" y="-80" font-family="Helvetica,sans-Serif" font-size="10.00">/samg/samg55/include/samg55g19.h</text>
</a>
</g>
</g>
<!-- Node1&#45;&gt;Node10 -->
<g id="edge5" class="edge"><title>Node1&#45;&gt;Node10</title>
<path fill="none" stroke="midnightblue" d="M574.662,-149.515C587.905,-137.637 602.524,-124.525 614.167,-114.082"/>
<polygon fill="midnightblue" stroke="midnightblue" points="572.164,-147.054 567.056,-156.336 576.838,-152.265 572.164,-147.054"/>
</g>
<!-- Node11 -->
<g id="node7" class="node"><title>Node11</title>
<g id="a_node7"><a xlink:href="samg55j18_8h.xhtml" target="_top" xlink:title="Copyright (c) 2014&#45;2015 Atmel Corporation. ">
<polygon fill="white" stroke="black" points="742.5,-73 742.5,-114 915.5,-114 915.5,-73 742.5,-73"/>
<text text-anchor="start" x="750.5" y="-102" font-family="Helvetica,sans-Serif" font-size="10.00">examples/atmel_samg55</text>
<text text-anchor="start" x="750.5" y="-91" font-family="Helvetica,sans-Serif" font-size="10.00">/src/ASF/sam/utils/cmsis</text>
<text text-anchor="middle" x="829" y="-80" font-family="Helvetica,sans-Serif" font-size="10.00">/samg/samg55/include/samg55j18.h</text>
</a>
</g>
</g>
<!-- Node1&#45;&gt;Node11 -->
<g id="edge6" class="edge"><title>Node1&#45;&gt;Node11</title>
<path fill="none" stroke="midnightblue" d="M631.737,-153.679C674.771,-140.769 724.896,-125.731 763.849,-114.045"/>
<polygon fill="midnightblue" stroke="midnightblue" points="630.675,-150.343 622.102,-156.569 632.686,-157.048 630.675,-150.343"/>
</g>
<!-- Node12 -->
<g id="node8" class="node"><title>Node12</title>
<g id="a_node8"><a xlink:href="samg55j19_8h.xhtml" target="_top" xlink:title="Copyright (c) 2014&#45;2015 Atmel Corporation. ">
<polygon fill="white" stroke="black" points="933.5,-73 933.5,-114 1106.5,-114 1106.5,-73 933.5,-73"/>
<text text-anchor="start" x="941.5" y="-102" font-family="Helvetica,sans-Serif" font-size="10.00">examples/atmel_samg55</text>
<text text-anchor="start" x="941.5" y="-91" font-family="Helvetica,sans-Serif" font-size="10.00">/src/ASF/sam/utils/cmsis</text>
<text text-anchor="middle" x="1020" y="-80" font-family="Helvetica,sans-Serif" font-size="10.00">/samg/samg55/include/samg55j19.h</text>
</a>
</g>
</g>
<!-- Node1&#45;&gt;Node12 -->
<g id="edge7" class="edge"><title>Node1&#45;&gt;Node12</title>
<path fill="none" stroke="midnightblue" d="M632.636,-169.367C711.119,-158.532 825.917,-141.131 925,-120 933.351,-118.219 942.063,-116.161 950.678,-114.002"/>
<polygon fill="midnightblue" stroke="midnightblue" points="631.72,-165.96 622.289,-170.786 632.672,-172.895 631.72,-165.96"/>
</g>
<!-- Node13 -->
<g id="node9" class="node"><title>Node13</title>
<g id="a_node9"><a xlink:href="samg55n19_8h.xhtml" target="_top" xlink:title="Copyright (c) 2014&#45;2015 Atmel Corporation. ">
<polygon fill="white" stroke="black" points="1125,-73 1125,-114 1301,-114 1301,-73 1125,-73"/>
<text text-anchor="start" x="1133" y="-102" font-family="Helvetica,sans-Serif" font-size="10.00">examples/atmel_samg55</text>
<text text-anchor="start" x="1133" y="-91" font-family="Helvetica,sans-Serif" font-size="10.00">/src/ASF/sam/utils/cmsis</text>
<text text-anchor="middle" x="1213" y="-80" font-family="Helvetica,sans-Serif" font-size="10.00">/samg/samg55/include/samg55n19.h</text>
</a>
</g>
</g>
<!-- Node1&#45;&gt;Node13 -->
<g id="edge8" class="edge"><title>Node1&#45;&gt;Node13</title>
<path fill="none" stroke="midnightblue" d="M632.357,-175.898C746.974,-168.024 946.962,-151.044 1116,-120 1125.08,-118.333 1134.55,-116.263 1143.87,-114.029"/>
<polygon fill="midnightblue" stroke="midnightblue" points="631.956,-172.418 622.216,-176.587 632.43,-179.402 631.956,-172.418"/>
</g>
<!-- Node2&#45;&gt;Node4 -->
<g id="edge2" class="edge"><title>Node2&#45;&gt;Node4</title>
<path fill="none" stroke="midnightblue" d="M89.5074,-58.4466C95.6405,-48.7358 101.993,-38.6775 106.94,-30.8453"/>
<polygon fill="midnightblue" stroke="midnightblue" points="86.3641,-56.8692 83.9833,-67.1931 92.2825,-60.6072 86.3641,-56.8692"/>
</g>
</g>
</svg>
