<?xml version="1.0" encoding="UTF-8" standalone="no"?>
<!DOCTYPE svg PUBLIC "-//W3C//DTD SVG 1.1//EN"
 "http://www.w3.org/Graphics/SVG/1.1/DTD/svg11.dtd">
<!-- Generated by graphviz version 2.38.0 (20140413.2041)
 -->
<!-- Title: src/mcp/xtserial_definitions.h Pages: 1 -->
<svg width="386pt" height="95pt"
 viewBox="0.00 0.00 386.00 95.00" xmlns="http://www.w3.org/2000/svg" xmlns:xlink="http://www.w3.org/1999/xlink">
<g id="graph0" class="graph" transform="scale(1 1) rotate(0) translate(4 91)">
<title>src/mcp/xtserial_definitions.h</title>
<polygon fill="white" stroke="none" points="-4,4 -4,-91 382,-91 382,4 -4,4"/>
<!-- Node4 -->
<g id="node1" class="node"><title>Node4</title>
<polygon fill="#bfbfbf" stroke="black" points="101.5,-67.5 101.5,-86.5 244.5,-86.5 244.5,-67.5 101.5,-67.5"/>
<text text-anchor="middle" x="173" y="-74.5" font-family="Helvetica,sans-Serif" font-size="10.00">src/mcp/xtserial_definitions.h</text>
</g>
<!-- Node5 -->
<g id="node2" class="node"><title>Node5</title>
<g id="a_node2"><a xlink:href="protocol_8h.xhtml" target="_top" xlink:title="src/mcp/protocol.h">
<polygon fill="white" stroke="red" points="0,-6 0,-25 98,-25 98,-6 0,-6"/>
<text text-anchor="middle" x="49" y="-13" font-family="Helvetica,sans-Serif" font-size="10.00">src/mcp/protocol.h</text>
</a>
</g>
</g>
<!-- Node4&#45;&gt;Node5 -->
<g id="edge1" class="edge"><title>Node4&#45;&gt;Node5</title>
<path fill="none" stroke="midnightblue" d="M145.951,-63.0207C121.903,-51.4816 87.4365,-34.9433 66.7332,-25.0091"/>
<polygon fill="midnightblue" stroke="midnightblue" points="144.704,-66.3044 155.234,-67.4751 147.732,-59.9934 144.704,-66.3044"/>
</g>
<!-- Node8 -->
<g id="node3" class="node"><title>Node8</title>
<g id="a_node3"><a xlink:href="protocol__host__parser_8h.xhtml" target="_top" xlink:title="src/mcp/protocol_host\l_parser.h">
<polygon fill="white" stroke="red" points="116.5,-0.5 116.5,-30.5 229.5,-30.5 229.5,-0.5 116.5,-0.5"/>
<text text-anchor="start" x="124.5" y="-18.5" font-family="Helvetica,sans-Serif" font-size="10.00">src/mcp/protocol_host</text>
<text text-anchor="middle" x="173" y="-7.5" font-family="Helvetica,sans-Serif" font-size="10.00">_parser.h</text>
</a>
</g>
</g>
<!-- Node4&#45;&gt;Node8 -->
<g id="edge2" class="edge"><title>Node4&#45;&gt;Node8</title>
<path fill="none" stroke="midnightblue" d="M173,-57.2349C173,-48.5864 173,-38.4969 173,-30.523"/>
<polygon fill="midnightblue" stroke="midnightblue" points="169.5,-57.4751 173,-67.4751 176.5,-57.4751 169.5,-57.4751"/>
</g>
<!-- Node10 -->
<g id="node4" class="node"><title>Node10</title>
<g id="a_node4"><a xlink:href="protocol__parser_8c.xhtml" target="_top" xlink:title="src/mcp/protocol_parser.c">
<polygon fill="white" stroke="black" points="248,-6 248,-25 378,-25 378,-6 248,-6"/>
<text text-anchor="middle" x="313" y="-13" font-family="Helvetica,sans-Serif" font-size="10.00">src/mcp/protocol_parser.c</text>
</a>
</g>
</g>
<!-- Node4&#45;&gt;Node10 -->
<g id="edge3" class="edge"><title>Node4&#45;&gt;Node10</title>
<path fill="none" stroke="midnightblue" d="M202.46,-63.4795C229.65,-51.9238 269.292,-35.0758 292.979,-25.0091"/>
<polygon fill="midnightblue" stroke="midnightblue" points="200.893,-60.3425 193.059,-67.4751 203.631,-66.7848 200.893,-60.3425"/>
</g>
</g>
</svg>
