<?xml version="1.0" encoding="UTF-8" standalone="no"?>
<!DOCTYPE svg PUBLIC "-//W3C//DTD SVG 1.1//EN"
 "http://www.w3.org/Graphics/SVG/1.1/DTD/svg11.dtd">
<!-- Generated by graphviz version 2.38.0 (20140413.2041)
 -->
<!-- Title: src/Data.hpp Pages: 1 -->
<svg width="231pt" height="140pt"
 viewBox="0.00 0.00 230.50 140.00" xmlns="http://www.w3.org/2000/svg" xmlns:xlink="http://www.w3.org/1999/xlink">
<g id="graph0" class="graph" transform="scale(1 1) rotate(0) translate(4 136)">
<title>src/Data.hpp</title>
<polygon fill="white" stroke="none" points="-4,4 -4,-136 226.5,-136 226.5,4 -4,4"/>
<!-- Node0 -->
<g id="node1" class="node"><title>Node0</title>
<polygon fill="#bfbfbf" stroke="black" points="67.5,-112.5 67.5,-131.5 145.5,-131.5 145.5,-112.5 67.5,-112.5"/>
<text text-anchor="middle" x="106.5" y="-119.5" font-family="Helvetica,sans-Serif" font-size="10.00">src/Data.hpp</text>
</g>
<!-- Node1 -->
<g id="node2" class="node"><title>Node1</title>
<polygon fill="white" stroke="#bfbfbf" points="0,-56.5 0,-75.5 65,-75.5 65,-56.5 0,-56.5"/>
<text text-anchor="middle" x="32.5" y="-63.5" font-family="Helvetica,sans-Serif" font-size="10.00">Bytes.hpp</text>
</g>
<!-- Node0&#45;&gt;Node1 -->
<g id="edge1" class="edge"><title>Node0&#45;&gt;Node1</title>
<path fill="none" stroke="midnightblue" d="M94.6106,-112.324C83.3498,-104.107 66.2134,-91.6017 52.7909,-81.8069"/>
<polygon fill="midnightblue" stroke="midnightblue" points="54.7468,-78.9014 44.6057,-75.8339 50.6205,-84.5559 54.7468,-78.9014"/>
</g>
<!-- Node2 -->
<g id="node3" class="node"><title>Node2</title>
<polygon fill="white" stroke="#bfbfbf" points="83,-56.5 83,-75.5 130,-75.5 130,-56.5 83,-56.5"/>
<text text-anchor="middle" x="106.5" y="-63.5" font-family="Helvetica,sans-Serif" font-size="10.00">vector</text>
</g>
<!-- Node0&#45;&gt;Node2 -->
<g id="edge2" class="edge"><title>Node0&#45;&gt;Node2</title>
<path fill="none" stroke="midnightblue" d="M106.5,-112.083C106.5,-105.006 106.5,-94.8611 106.5,-85.9865"/>
<polygon fill="midnightblue" stroke="midnightblue" points="110,-85.751 106.5,-75.7511 103,-85.7511 110,-85.751"/>
</g>
<!-- Node3 -->
<g id="node4" class="node"><title>Node3</title>
<g id="a_node4"><a xlink:href="datatypes_8h.xhtml" target="_top" xlink:title="datatypes.h">
<polygon fill="white" stroke="black" points="148.5,-56.5 148.5,-75.5 222.5,-75.5 222.5,-56.5 148.5,-56.5"/>
<text text-anchor="middle" x="185.5" y="-63.5" font-family="Helvetica,sans-Serif" font-size="10.00">datatypes.h</text>
</a>
</g>
</g>
<!-- Node0&#45;&gt;Node3 -->
<g id="edge3" class="edge"><title>Node0&#45;&gt;Node3</title>
<path fill="none" stroke="midnightblue" d="M119.193,-112.324C131.401,-103.979 150.078,-91.2122 164.503,-81.3524"/>
<polygon fill="midnightblue" stroke="midnightblue" points="166.558,-84.1871 172.839,-75.6545 162.608,-78.4082 166.558,-84.1871"/>
</g>
<!-- Node4 -->
<g id="node5" class="node"><title>Node4</title>
<polygon fill="white" stroke="#bfbfbf" points="159,-0.5 159,-19.5 212,-19.5 212,-0.5 159,-0.5"/>
<text text-anchor="middle" x="185.5" y="-7.5" font-family="Helvetica,sans-Serif" font-size="10.00">stdint.h</text>
</g>
<!-- Node3&#45;&gt;Node4 -->
<g id="edge4" class="edge"><title>Node3&#45;&gt;Node4</title>
<path fill="none" stroke="midnightblue" d="M185.5,-56.083C185.5,-49.0059 185.5,-38.8611 185.5,-29.9865"/>
<polygon fill="midnightblue" stroke="midnightblue" points="189,-29.751 185.5,-19.7511 182,-29.7511 189,-29.751"/>
</g>
</g>
</svg>
