<?xml version="1.0" encoding="UTF-8" standalone="no"?>
<!DOCTYPE svg PUBLIC "-//W3C//DTD SVG 1.1//EN"
 "http://www.w3.org/Graphics/SVG/1.1/DTD/svg11.dtd">
<!-- Generated by graphviz version 2.38.0 (20140413.2041)
 -->
<!-- Title: src/PreferredSplitSize.hpp Pages: 1 -->
<svg width="327pt" height="140pt"
 viewBox="0.00 0.00 327.00 140.00" xmlns="http://www.w3.org/2000/svg" xmlns:xlink="http://www.w3.org/1999/xlink">
<g id="graph0" class="graph" transform="scale(1 1) rotate(0) translate(4 136)">
<title>src/PreferredSplitSize.hpp</title>
<polygon fill="white" stroke="none" points="-4,4 -4,-136 323,-136 323,4 -4,4"/>
<!-- Node2 -->
<g id="node1" class="node"><title>Node2</title>
<polygon fill="#bfbfbf" stroke="black" points="113.5,-112.5 113.5,-131.5 253.5,-131.5 253.5,-112.5 113.5,-112.5"/>
<text text-anchor="middle" x="183.5" y="-119.5" font-family="Helvetica,sans-Serif" font-size="10.00">src/PreferredSplitSize.hpp</text>
</g>
<!-- Node3 -->
<g id="node2" class="node"><title>Node3</title>
<g id="a_node2"><a xlink:href="_recording_options_8hpp.xhtml" target="_top" xlink:title="src/RecordingOptions.hpp">
<polygon fill="white" stroke="black" points="114.5,-56.5 114.5,-75.5 252.5,-75.5 252.5,-56.5 114.5,-56.5"/>
<text text-anchor="middle" x="183.5" y="-63.5" font-family="Helvetica,sans-Serif" font-size="10.00">src/RecordingOptions.hpp</text>
</a>
</g>
</g>
<!-- Node2&#45;&gt;Node3 -->
<g id="edge1" class="edge"><title>Node2&#45;&gt;Node3</title>
<path fill="none" stroke="midnightblue" d="M183.5,-101.805C183.5,-92.9102 183.5,-82.7798 183.5,-75.7511"/>
<polygon fill="midnightblue" stroke="midnightblue" points="180,-102.083 183.5,-112.083 187,-102.083 180,-102.083"/>
</g>
<!-- Node4 -->
<g id="node3" class="node"><title>Node4</title>
<g id="a_node3"><a xlink:href="_data_recorder_8hpp.xhtml" target="_top" xlink:title="src/DataRecorder.hpp">
<polygon fill="white" stroke="black" points="0,-0.5 0,-19.5 119,-19.5 119,-0.5 0,-0.5"/>
<text text-anchor="middle" x="59.5" y="-7.5" font-family="Helvetica,sans-Serif" font-size="10.00">src/DataRecorder.hpp</text>
</a>
</g>
</g>
<!-- Node3&#45;&gt;Node4 -->
<g id="edge2" class="edge"><title>Node3&#45;&gt;Node4</title>
<path fill="none" stroke="midnightblue" d="M154.493,-52.3678C131.271,-42.2553 99.3375,-28.3486 79.0562,-19.5164"/>
<polygon fill="midnightblue" stroke="midnightblue" points="153.286,-55.6597 163.852,-56.4435 156.081,-49.2419 153.286,-55.6597"/>
</g>
<!-- Node5 -->
<g id="node4" class="node"><title>Node5</title>
<g id="a_node4"><a xlink:href="_x2_m200_8hpp.xhtml" target="_top" xlink:title="src/X2M200.hpp">
<polygon fill="white" stroke="black" points="137,-0.5 137,-19.5 230,-19.5 230,-0.5 137,-0.5"/>
<text text-anchor="middle" x="183.5" y="-7.5" font-family="Helvetica,sans-Serif" font-size="10.00">src/X2M200.hpp</text>
</a>
</g>
</g>
<!-- Node3&#45;&gt;Node5 -->
<g id="edge3" class="edge"><title>Node3&#45;&gt;Node5</title>
<path fill="none" stroke="midnightblue" d="M183.5,-45.8045C183.5,-36.9102 183.5,-26.7798 183.5,-19.7511"/>
<polygon fill="midnightblue" stroke="midnightblue" points="180,-46.083 183.5,-56.083 187,-46.083 180,-46.083"/>
</g>
<!-- Node6 -->
<g id="node5" class="node"><title>Node6</title>
<g id="a_node5"><a xlink:href="_x_e_p_8hpp.xhtml" target="_top" xlink:title="src/XEP.hpp">
<polygon fill="white" stroke="black" points="248,-0.5 248,-19.5 319,-19.5 319,-0.5 248,-0.5"/>
<text text-anchor="middle" x="283.5" y="-7.5" font-family="Helvetica,sans-Serif" font-size="10.00">src/XEP.hpp</text>
</a>
</g>
</g>
<!-- Node3&#45;&gt;Node6 -->
<g id="edge4" class="edge"><title>Node3&#45;&gt;Node6</title>
<path fill="none" stroke="midnightblue" d="M208.588,-51.4526C227.049,-41.4835 251.597,-28.2279 267.473,-19.6545"/>
<polygon fill="midnightblue" stroke="midnightblue" points="206.703,-48.4928 199.567,-56.324 210.029,-54.6521 206.703,-48.4928"/>
</g>
</g>
</svg>
