<?xml version="1.0" encoding="UTF-8" standalone="no"?>
<!DOCTYPE svg PUBLIC "-//W3C//DTD SVG 1.1//EN"
 "http://www.w3.org/Graphics/SVG/1.1/DTD/svg11.dtd">
<!-- Generated by graphviz version 2.38.0 (20140413.2041)
 -->
<!-- Title: src/X2M200.hpp Pages: 1 -->
<svg width="644pt" height="196pt"
 viewBox="0.00 0.00 643.50 196.00" xmlns="http://www.w3.org/2000/svg" xmlns:xlink="http://www.w3.org/1999/xlink">
<g id="graph0" class="graph" transform="scale(1 1) rotate(0) translate(4 192)">
<title>src/X2M200.hpp</title>
<polygon fill="white" stroke="none" points="-4,4 -4,-192 639.5,-192 639.5,4 -4,4"/>
<!-- Node0 -->
<g id="node1" class="node"><title>Node0</title>
<polygon fill="#bfbfbf" stroke="black" points="290.5,-168.5 290.5,-187.5 383.5,-187.5 383.5,-168.5 290.5,-168.5"/>
<text text-anchor="middle" x="337" y="-175.5" font-family="Helvetica,sans-Serif" font-size="10.00">src/X2M200.hpp</text>
</g>
<!-- Node1 -->
<g id="node2" class="node"><title>Node1</title>
<polygon fill="white" stroke="#bfbfbf" points="157.5,-56.5 157.5,-75.5 222.5,-75.5 222.5,-56.5 157.5,-56.5"/>
<text text-anchor="middle" x="190" y="-63.5" font-family="Helvetica,sans-Serif" font-size="10.00">Bytes.hpp</text>
</g>
<!-- Node0&#45;&gt;Node1 -->
<g id="edge1" class="edge"><title>Node0&#45;&gt;Node1</title>
<path fill="none" stroke="midnightblue" d="M290.385,-175.456C257.983,-171.699 216.687,-161.01 194,-132 183.888,-119.07 183.959,-99.8988 185.916,-85.725"/>
<polygon fill="midnightblue" stroke="midnightblue" points="189.403,-86.1058 187.73,-75.6439 182.514,-84.8657 189.403,-86.1058"/>
</g>
<!-- Node2 -->
<g id="node3" class="node"><title>Node2</title>
<g id="a_node3"><a xlink:href="_data_8hpp.xhtml" target="_top" xlink:title="Data.hpp">
<polygon fill="white" stroke="black" points="85.5,-112.5 85.5,-131.5 146.5,-131.5 146.5,-112.5 85.5,-112.5"/>
<text text-anchor="middle" x="116" y="-119.5" font-family="Helvetica,sans-Serif" font-size="10.00">Data.hpp</text>
</a>
</g>
</g>
<!-- Node0&#45;&gt;Node2 -->
<g id="edge2" class="edge"><title>Node0&#45;&gt;Node2</title>
<path fill="none" stroke="midnightblue" d="M301.982,-168.444C262.403,-158.773 198.076,-143.055 156.403,-132.872"/>
<polygon fill="midnightblue" stroke="midnightblue" points="157.129,-129.447 146.584,-130.473 155.467,-136.247 157.129,-129.447"/>
</g>
<!-- Node6 -->
<g id="node7" class="node"><title>Node6</title>
<g id="a_node7"><a xlink:href="_recording_options_8hpp.xhtml" target="_top" xlink:title="RecordingOptions.hpp">
<polygon fill="white" stroke="black" points="203.5,-112.5 203.5,-131.5 324.5,-131.5 324.5,-112.5 203.5,-112.5"/>
<text text-anchor="middle" x="264" y="-119.5" font-family="Helvetica,sans-Serif" font-size="10.00">RecordingOptions.hpp</text>
</a>
</g>
</g>
<!-- Node0&#45;&gt;Node6 -->
<g id="edge7" class="edge"><title>Node0&#45;&gt;Node6</title>
<path fill="none" stroke="midnightblue" d="M325.271,-168.324C314.163,-160.107 297.258,-147.602 284.017,-137.807"/>
<polygon fill="midnightblue" stroke="midnightblue" points="286.063,-134.967 275.942,-131.834 281.9,-140.595 286.063,-134.967"/>
</g>
<!-- Node10 -->
<g id="node11" class="node"><title>Node10</title>
<polygon fill="white" stroke="#bfbfbf" points="342.5,-112.5 342.5,-131.5 479.5,-131.5 479.5,-112.5 342.5,-112.5"/>
<text text-anchor="middle" x="411" y="-119.5" font-family="Helvetica,sans-Serif" font-size="10.00">LockedRadarForward.hpp</text>
</g>
<!-- Node0&#45;&gt;Node10 -->
<g id="edge12" class="edge"><title>Node0&#45;&gt;Node10</title>
<path fill="none" stroke="midnightblue" d="M348.889,-168.324C360.15,-160.107 377.287,-147.602 390.709,-137.807"/>
<polygon fill="midnightblue" stroke="midnightblue" points="392.88,-140.556 398.894,-131.834 388.753,-134.901 392.88,-140.556"/>
</g>
<!-- Node11 -->
<g id="node12" class="node"><title>Node11</title>
<polygon fill="white" stroke="#bfbfbf" points="497.5,-112.5 497.5,-131.5 554.5,-131.5 554.5,-112.5 497.5,-112.5"/>
<text text-anchor="middle" x="526" y="-119.5" font-family="Helvetica,sans-Serif" font-size="10.00">memory</text>
</g>
<!-- Node0&#45;&gt;Node11 -->
<g id="edge13" class="edge"><title>Node0&#45;&gt;Node11</title>
<path fill="none" stroke="midnightblue" d="M366.948,-168.444C399.537,-159.132 451.746,-144.216 487.392,-134.031"/>
<polygon fill="midnightblue" stroke="midnightblue" points="488.776,-137.276 497.43,-131.163 486.853,-130.545 488.776,-137.276"/>
</g>
<!-- Node12 -->
<g id="node13" class="node"><title>Node12</title>
<polygon fill="white" stroke="#bfbfbf" points="572.5,-112.5 572.5,-131.5 635.5,-131.5 635.5,-112.5 572.5,-112.5"/>
<text text-anchor="middle" x="604" y="-119.5" font-family="Helvetica,sans-Serif" font-size="10.00">functional</text>
</g>
<!-- Node0&#45;&gt;Node12 -->
<g id="edge14" class="edge"><title>Node0&#45;&gt;Node12</title>
<path fill="none" stroke="midnightblue" d="M381.863,-168.458C425.556,-160.06 494.11,-146.677 562.113,-132.364"/>
<polygon fill="midnightblue" stroke="midnightblue" points="563.079,-135.737 572.139,-130.246 561.632,-128.888 563.079,-135.737"/>
</g>
<!-- Node2&#45;&gt;Node1 -->
<g id="edge3" class="edge"><title>Node2&#45;&gt;Node1</title>
<path fill="none" stroke="midnightblue" d="M127.889,-112.324C139.15,-104.107 156.287,-91.6017 169.709,-81.8069"/>
<polygon fill="midnightblue" stroke="midnightblue" points="171.88,-84.5559 177.894,-75.8339 167.753,-78.9014 171.88,-84.5559"/>
</g>
<!-- Node3 -->
<g id="node4" class="node"><title>Node3</title>
<polygon fill="white" stroke="#bfbfbf" points="92.5,-56.5 92.5,-75.5 139.5,-75.5 139.5,-56.5 92.5,-56.5"/>
<text text-anchor="middle" x="116" y="-63.5" font-family="Helvetica,sans-Serif" font-size="10.00">vector</text>
</g>
<!-- Node2&#45;&gt;Node3 -->
<g id="edge4" class="edge"><title>Node2&#45;&gt;Node3</title>
<path fill="none" stroke="midnightblue" d="M116,-112.083C116,-105.006 116,-94.8611 116,-85.9865"/>
<polygon fill="midnightblue" stroke="midnightblue" points="119.5,-85.751 116,-75.7511 112.5,-85.7511 119.5,-85.751"/>
</g>
<!-- Node4 -->
<g id="node5" class="node"><title>Node4</title>
<g id="a_node5"><a xlink:href="datatypes_8h.xhtml" target="_top" xlink:title="datatypes.h">
<polygon fill="white" stroke="black" points="0,-56.5 0,-75.5 74,-75.5 74,-56.5 0,-56.5"/>
<text text-anchor="middle" x="37" y="-63.5" font-family="Helvetica,sans-Serif" font-size="10.00">datatypes.h</text>
</a>
</g>
</g>
<!-- Node2&#45;&gt;Node4 -->
<g id="edge5" class="edge"><title>Node2&#45;&gt;Node4</title>
<path fill="none" stroke="midnightblue" d="M103.307,-112.324C91.0989,-103.979 72.4215,-91.2122 57.9971,-81.3524"/>
<polygon fill="midnightblue" stroke="midnightblue" points="59.892,-78.4082 49.6612,-75.6545 55.9418,-84.1871 59.892,-78.4082"/>
</g>
<!-- Node5 -->
<g id="node6" class="node"><title>Node5</title>
<polygon fill="white" stroke="#bfbfbf" points="10.5,-0.5 10.5,-19.5 63.5,-19.5 63.5,-0.5 10.5,-0.5"/>
<text text-anchor="middle" x="37" y="-7.5" font-family="Helvetica,sans-Serif" font-size="10.00">stdint.h</text>
</g>
<!-- Node4&#45;&gt;Node5 -->
<g id="edge6" class="edge"><title>Node4&#45;&gt;Node5</title>
<path fill="none" stroke="midnightblue" d="M37,-56.083C37,-49.0059 37,-38.8611 37,-29.9865"/>
<polygon fill="midnightblue" stroke="midnightblue" points="40.5001,-29.751 37,-19.7511 33.5001,-29.7511 40.5001,-29.751"/>
</g>
<!-- Node6&#45;&gt;Node1 -->
<g id="edge10" class="edge"><title>Node6&#45;&gt;Node1</title>
<path fill="none" stroke="midnightblue" d="M252.111,-112.324C240.85,-104.107 223.713,-91.6017 210.291,-81.8069"/>
<polygon fill="midnightblue" stroke="midnightblue" points="212.247,-78.9014 202.106,-75.8339 208.12,-84.5559 212.247,-78.9014"/>
</g>
<!-- Node7 -->
<g id="node8" class="node"><title>Node7</title>
<g id="a_node8"><a xlink:href="_preferred_split_size_8hpp.xhtml" target="_top" xlink:title="PreferredSplitSize.hpp">
<polygon fill="white" stroke="black" points="304.5,-56.5 304.5,-75.5 427.5,-75.5 427.5,-56.5 304.5,-56.5"/>
<text text-anchor="middle" x="366" y="-63.5" font-family="Helvetica,sans-Serif" font-size="10.00">PreferredSplitSize.hpp</text>
</a>
</g>
</g>
<!-- Node6&#45;&gt;Node7 -->
<g id="edge8" class="edge"><title>Node6&#45;&gt;Node7</title>
<path fill="none" stroke="midnightblue" d="M280.388,-112.324C296.671,-103.703 321.867,-90.3643 340.716,-80.3855"/>
<polygon fill="midnightblue" stroke="midnightblue" points="342.452,-83.4267 349.653,-75.6545 339.177,-77.2402 342.452,-83.4267"/>
</g>
<!-- Node9 -->
<g id="node10" class="node"><title>Node9</title>
<polygon fill="white" stroke="#bfbfbf" points="242,-56.5 242,-75.5 286,-75.5 286,-56.5 242,-56.5"/>
<text text-anchor="middle" x="264" y="-63.5" font-family="Helvetica,sans-Serif" font-size="10.00">string</text>
</g>
<!-- Node6&#45;&gt;Node9 -->
<g id="edge11" class="edge"><title>Node6&#45;&gt;Node9</title>
<path fill="none" stroke="midnightblue" d="M264,-112.083C264,-105.006 264,-94.8611 264,-85.9865"/>
<polygon fill="midnightblue" stroke="midnightblue" points="267.5,-85.751 264,-75.7511 260.5,-85.7511 267.5,-85.751"/>
</g>
<!-- Node8 -->
<g id="node9" class="node"><title>Node8</title>
<polygon fill="white" stroke="#bfbfbf" points="336,-0.5 336,-19.5 396,-19.5 396,-0.5 336,-0.5"/>
<text text-anchor="middle" x="366" y="-7.5" font-family="Helvetica,sans-Serif" font-size="10.00">cinttypes</text>
</g>
<!-- Node7&#45;&gt;Node8 -->
<g id="edge9" class="edge"><title>Node7&#45;&gt;Node8</title>
<path fill="none" stroke="midnightblue" d="M366,-56.083C366,-49.0059 366,-38.8611 366,-29.9865"/>
<polygon fill="midnightblue" stroke="midnightblue" points="369.5,-29.751 366,-19.7511 362.5,-29.7511 369.5,-29.751"/>
</g>
</g>
</svg>
