<?xml version="1.0" encoding="UTF-8" standalone="no"?>
<!DOCTYPE svg PUBLIC "-//W3C//DTD SVG 1.1//EN"
 "http://www.w3.org/Graphics/SVG/1.1/DTD/svg11.dtd">
<!-- Generated by graphviz version 2.38.0 (20140413.2041)
 -->
<!-- Title: src/datatypes.h Pages: 1 -->
<svg width="541pt" height="140pt"
 viewBox="0.00 0.00 540.50 140.00" xmlns="http://www.w3.org/2000/svg" xmlns:xlink="http://www.w3.org/1999/xlink">
<g id="graph0" class="graph" transform="scale(1 1) rotate(0) translate(4 136)">
<title>src/datatypes.h</title>
<polygon fill="white" stroke="none" points="-4,4 -4,-136 536.5,-136 536.5,4 -4,4"/>
<!-- Node2 -->
<g id="node1" class="node"><title>Node2</title>
<polygon fill="#bfbfbf" stroke="black" points="137.5,-112.5 137.5,-131.5 228.5,-131.5 228.5,-112.5 137.5,-112.5"/>
<text text-anchor="middle" x="183" y="-119.5" font-family="Helvetica,sans-Serif" font-size="10.00">src/datatypes.h</text>
</g>
<!-- Node3 -->
<g id="node2" class="node"><title>Node3</title>
<g id="a_node2"><a xlink:href="_data_8hpp.xhtml" target="_top" xlink:title="src/Data.hpp">
<polygon fill="white" stroke="black" points="191,-56.5 191,-75.5 269,-75.5 269,-56.5 191,-56.5"/>
<text text-anchor="middle" x="230" y="-63.5" font-family="Helvetica,sans-Serif" font-size="10.00">src/Data.hpp</text>
</a>
</g>
</g>
<!-- Node2&#45;&gt;Node3 -->
<g id="edge1" class="edge"><title>Node2&#45;&gt;Node3</title>
<path fill="none" stroke="midnightblue" d="M197.421,-104.431C205.658,-94.9673 215.654,-83.4827 222.383,-75.7511"/>
<polygon fill="midnightblue" stroke="midnightblue" points="194.686,-102.242 190.761,-112.083 199.966,-106.838 194.686,-102.242"/>
</g>
<!-- Node4 -->
<g id="node3" class="node"><title>Node4</title>
<g id="a_node3"><a xlink:href="_data_reader_8hpp.xhtml" target="_top" xlink:title="src/DataReader.hpp">
<polygon fill="white" stroke="black" points="0,-0.5 0,-19.5 110,-19.5 110,-0.5 0,-0.5"/>
<text text-anchor="middle" x="55" y="-7.5" font-family="Helvetica,sans-Serif" font-size="10.00">src/DataReader.hpp</text>
</a>
</g>
</g>
<!-- Node2&#45;&gt;Node4 -->
<g id="edge7" class="edge"><title>Node2&#45;&gt;Node4</title>
<path fill="none" stroke="midnightblue" d="M165.331,-105.816C138.069,-82.3874 86.639,-38.1898 64.9973,-19.5914"/>
<polygon fill="midnightblue" stroke="midnightblue" points="163.091,-108.505 172.956,-112.368 167.653,-103.196 163.091,-108.505"/>
</g>
<!-- Node3&#45;&gt;Node4 -->
<g id="edge2" class="edge"><title>Node3&#45;&gt;Node4</title>
<path fill="none" stroke="midnightblue" d="M192.525,-53.4363C159.53,-43.2551 112.244,-28.664 82.5995,-19.5164"/>
<polygon fill="midnightblue" stroke="midnightblue" points="191.683,-56.8393 202.271,-56.4435 193.747,-50.1505 191.683,-56.8393"/>
</g>
<!-- Node5 -->
<g id="node4" class="node"><title>Node5</title>
<g id="a_node4"><a xlink:href="_x2_m200_8hpp.xhtml" target="_top" xlink:title="src/X2M200.hpp">
<polygon fill="white" stroke="black" points="128.5,-0.5 128.5,-19.5 221.5,-19.5 221.5,-0.5 128.5,-0.5"/>
<text text-anchor="middle" x="175" y="-7.5" font-family="Helvetica,sans-Serif" font-size="10.00">src/X2M200.hpp</text>
</a>
</g>
</g>
<!-- Node3&#45;&gt;Node5 -->
<g id="edge3" class="edge"><title>Node3&#45;&gt;Node5</title>
<path fill="none" stroke="midnightblue" d="M213.706,-49.0024C203.959,-39.4329 191.947,-27.6389 183.913,-19.7511"/>
<polygon fill="midnightblue" stroke="midnightblue" points="211.33,-51.5746 220.918,-56.083 216.234,-46.5796 211.33,-51.5746"/>
</g>
<!-- Node6 -->
<g id="node5" class="node"><title>Node6</title>
<g id="a_node5"><a xlink:href="_x4_m200_8hpp.xhtml" target="_top" xlink:title="src/X4M200.hpp">
<polygon fill="white" stroke="black" points="239.5,-0.5 239.5,-19.5 332.5,-19.5 332.5,-0.5 239.5,-0.5"/>
<text text-anchor="middle" x="286" y="-7.5" font-family="Helvetica,sans-Serif" font-size="10.00">src/X4M200.hpp</text>
</a>
</g>
</g>
<!-- Node3&#45;&gt;Node6 -->
<g id="edge4" class="edge"><title>Node3&#45;&gt;Node6</title>
<path fill="none" stroke="midnightblue" d="M246.33,-49.2533C256.265,-39.6731 268.588,-27.7906 276.839,-19.8339"/>
<polygon fill="midnightblue" stroke="midnightblue" points="243.766,-46.8631 238.997,-56.324 248.625,-51.902 243.766,-46.8631"/>
</g>
<!-- Node7 -->
<g id="node6" class="node"><title>Node7</title>
<g id="a_node6"><a xlink:href="_x4_m300_8hpp.xhtml" target="_top" xlink:title="src/X4M300.hpp">
<polygon fill="white" stroke="black" points="350.5,-0.5 350.5,-19.5 443.5,-19.5 443.5,-0.5 350.5,-0.5"/>
<text text-anchor="middle" x="397" y="-7.5" font-family="Helvetica,sans-Serif" font-size="10.00">src/X4M300.hpp</text>
</a>
</g>
</g>
<!-- Node3&#45;&gt;Node7 -->
<g id="edge5" class="edge"><title>Node3&#45;&gt;Node7</title>
<path fill="none" stroke="midnightblue" d="M266.17,-53.3044C297.637,-43.1294 342.494,-28.6246 370.662,-19.5164"/>
<polygon fill="midnightblue" stroke="midnightblue" points="264.9,-50.0366 256.462,-56.4435 267.053,-56.697 264.9,-50.0366"/>
</g>
<!-- Node8 -->
<g id="node7" class="node"><title>Node8</title>
<g id="a_node7"><a xlink:href="_x_e_p_8hpp.xhtml" target="_top" xlink:title="src/XEP.hpp">
<polygon fill="white" stroke="black" points="461.5,-0.5 461.5,-19.5 532.5,-19.5 532.5,-0.5 461.5,-0.5"/>
<text text-anchor="middle" x="497" y="-7.5" font-family="Helvetica,sans-Serif" font-size="10.00">src/XEP.hpp</text>
</a>
</g>
</g>
<!-- Node3&#45;&gt;Node8 -->
<g id="edge6" class="edge"><title>Node3&#45;&gt;Node8</title>
<path fill="none" stroke="midnightblue" d="M278.911,-55.1688C324.097,-46.0771 393.088,-32.1724 453,-20 455.751,-19.4411 458.598,-18.8615 461.46,-18.2779"/>
<polygon fill="midnightblue" stroke="midnightblue" points="278.194,-51.7426 269.081,-57.1462 279.575,-58.6052 278.194,-51.7426"/>
</g>
</g>
</svg>
