<?xml version="1.0" encoding="UTF-8" standalone="no"?>
<!DOCTYPE svg PUBLIC "-//W3C//DTD SVG 1.1//EN"
 "http://www.w3.org/Graphics/SVG/1.1/DTD/svg11.dtd">
<!-- Generated by graphviz version 2.38.0 (20140413.2041)
 -->
<!-- Title: src/hal/x4m0x_s70/libraries/libusb/include/AUDDSpeakerDriver.h Pages: 1 -->
<svg width="518pt" height="117pt"
 viewBox="0.00 0.00 518.00 117.00" xmlns="http://www.w3.org/2000/svg" xmlns:xlink="http://www.w3.org/1999/xlink">
<g id="graph0" class="graph" transform="scale(1 1) rotate(0) translate(4 113)">
<title>src/hal/x4m0x_s70/libraries/libusb/include/AUDDSpeakerDriver.h</title>
<polygon fill="white" stroke="none" points="-4,4 -4,-113 514,-113 514,4 -4,4"/>
<!-- Node15 -->
<g id="node1" class="node"><title>Node15</title>
<polygon fill="#bfbfbf" stroke="black" points="161.5,-78.5 161.5,-108.5 354.5,-108.5 354.5,-78.5 161.5,-78.5"/>
<text text-anchor="start" x="169.5" y="-96.5" font-family="Helvetica,sans-Serif" font-size="10.00">src/hal/x4m0x_s70/libraries</text>
<text text-anchor="middle" x="258" y="-85.5" font-family="Helvetica,sans-Serif" font-size="10.00">/libusb/include/AUDDSpeakerDriver.h</text>
</g>
<!-- Node16 -->
<g id="node2" class="node"><title>Node16</title>
<g id="a_node2"><a xlink:href="_a_u_d_d_speaker_driver_8c.xhtml" target="_top" xlink:title="src/hal/x4m0x_s70/libraries\l/libusb/device/audio&#45;speaker\l/AUDDSpeakerDriver.c">
<polygon fill="white" stroke="black" points="0,-0.5 0,-41.5 152,-41.5 152,-0.5 0,-0.5"/>
<text text-anchor="start" x="8" y="-29.5" font-family="Helvetica,sans-Serif" font-size="10.00">src/hal/x4m0x_s70/libraries</text>
<text text-anchor="start" x="8" y="-18.5" font-family="Helvetica,sans-Serif" font-size="10.00">/libusb/device/audio&#45;speaker</text>
<text text-anchor="middle" x="76" y="-7.5" font-family="Helvetica,sans-Serif" font-size="10.00">/AUDDSpeakerDriver.c</text>
</a>
</g>
</g>
<!-- Node15&#45;&gt;Node16 -->
<g id="edge1" class="edge"><title>Node15&#45;&gt;Node16</title>
<path fill="none" stroke="midnightblue" d="M211.961,-74.6663C185.885,-64.5655 153.231,-51.9164 126.46,-41.5464"/>
<polygon fill="midnightblue" stroke="midnightblue" points="211.018,-78.0543 221.607,-78.4027 213.546,-71.5269 211.018,-78.0543"/>
</g>
<!-- Node17 -->
<g id="node3" class="node"><title>Node17</title>
<g id="a_node3"><a xlink:href="_a_u_d_d_speaker_driver___callbacks_8c.xhtml" target="_top" xlink:title="Default callbacks implement for Audio Speaker Driver. ">
<polygon fill="white" stroke="black" points="170,-0.5 170,-41.5 346,-41.5 346,-0.5 170,-0.5"/>
<text text-anchor="start" x="178" y="-29.5" font-family="Helvetica,sans-Serif" font-size="10.00">src/hal/x4m0x_s70/libraries</text>
<text text-anchor="start" x="178" y="-18.5" font-family="Helvetica,sans-Serif" font-size="10.00">/libusb/device/audio&#45;speaker</text>
<text text-anchor="middle" x="258" y="-7.5" font-family="Helvetica,sans-Serif" font-size="10.00">/AUDDSpeakerDriver_Callbacks.c</text>
</a>
</g>
</g>
<!-- Node15&#45;&gt;Node17 -->
<g id="edge2" class="edge"><title>Node15&#45;&gt;Node17</title>
<path fill="none" stroke="midnightblue" d="M258,-67.9815C258,-59.3468 258,-49.7625 258,-41.5884"/>
<polygon fill="midnightblue" stroke="midnightblue" points="254.5,-68.2332 258,-78.2333 261.5,-68.2333 254.5,-68.2332"/>
</g>
<!-- Node18 -->
<g id="node4" class="node"><title>Node18</title>
<g id="a_node4"><a xlink:href="usb_8h.xhtml" target="_top" xlink:title="Definition of SAM9XX5&#45;EK usb library. ">
<polygon fill="white" stroke="black" points="364,-6 364,-36 510,-36 510,-6 364,-6"/>
<text text-anchor="start" x="372" y="-24" font-family="Helvetica,sans-Serif" font-size="10.00">src/hal/x4m0x_s70/libraries</text>
<text text-anchor="middle" x="437" y="-13" font-family="Helvetica,sans-Serif" font-size="10.00">/libusb/usb.h</text>
</a>
</g>
</g>
<!-- Node15&#45;&gt;Node18 -->
<g id="edge3" class="edge"><title>Node15&#45;&gt;Node18</title>
<path fill="none" stroke="midnightblue" d="M303.31,-74.6546C333.68,-62.6929 373.115,-47.1615 401.269,-36.0729"/>
<polygon fill="midnightblue" stroke="midnightblue" points="301.815,-71.4816 293.793,-78.4027 304.38,-77.9946 301.815,-71.4816"/>
</g>
</g>
</svg>
