<?xml version="1.0" encoding="UTF-8" standalone="no"?>
<!DOCTYPE svg PUBLIC "-//W3C//DTD SVG 1.1//EN"
 "http://www.w3.org/Graphics/SVG/1.1/DTD/svg11.dtd">
<!-- Generated by graphviz version 2.38.0 (20140413.2041)
 -->
<!-- Title: src/hal/x4m0x_s70/libraries/libusb/include/AUDDStream.h Pages: 1 -->
<svg width="248pt" height="173pt"
 viewBox="0.00 0.00 248.00 173.00" xmlns="http://www.w3.org/2000/svg" xmlns:xlink="http://www.w3.org/1999/xlink">
<g id="graph0" class="graph" transform="scale(1 1) rotate(0) translate(4 169)">
<title>src/hal/x4m0x_s70/libraries/libusb/include/AUDDStream.h</title>
<polygon fill="white" stroke="none" points="-4,4 -4,-169 244,-169 244,4 -4,4"/>
<!-- Node12 -->
<g id="node1" class="node"><title>Node12</title>
<polygon fill="#bfbfbf" stroke="black" points="79,-134.5 79,-164.5 240,-164.5 240,-134.5 79,-134.5"/>
<text text-anchor="start" x="87" y="-152.5" font-family="Helvetica,sans-Serif" font-size="10.00">src/hal/x4m0x_s70/libraries</text>
<text text-anchor="middle" x="159.5" y="-141.5" font-family="Helvetica,sans-Serif" font-size="10.00">/libusb/include/AUDDStream.h</text>
</g>
<!-- Node13 -->
<g id="node2" class="node"><title>Node13</title>
<g id="a_node2"><a xlink:href="_a_u_d_d_speaker_phone_8h.xhtml" target="_top" xlink:title="USB Audio Speaker &amp; Microphone Function. ">
<polygon fill="white" stroke="red" points="0,-67.5 0,-97.5 195,-97.5 195,-67.5 0,-67.5"/>
<text text-anchor="start" x="8" y="-85.5" font-family="Helvetica,sans-Serif" font-size="10.00">src/hal/x4m0x_s70/libraries</text>
<text text-anchor="middle" x="97.5" y="-74.5" font-family="Helvetica,sans-Serif" font-size="10.00">/libusb/include/AUDDSpeakerPhone.h</text>
</a>
</g>
</g>
<!-- Node12&#45;&gt;Node13 -->
<g id="edge1" class="edge"><title>Node12&#45;&gt;Node13</title>
<path fill="none" stroke="midnightblue" d="M139.015,-127.024C129.778,-117.34 119.127,-106.174 110.927,-97.5765"/>
<polygon fill="midnightblue" stroke="midnightblue" points="136.612,-129.576 146.047,-134.396 141.677,-124.744 136.612,-129.576"/>
</g>
<!-- Node20 -->
<g id="node3" class="node"><title>Node20</title>
<g id="a_node3"><a xlink:href="usb_8h.xhtml" target="_top" xlink:title="Definition of SAM9XX5&#45;EK usb library. ">
<polygon fill="white" stroke="black" points="86.5,-0.5 86.5,-30.5 232.5,-30.5 232.5,-0.5 86.5,-0.5"/>
<text text-anchor="start" x="94.5" y="-18.5" font-family="Helvetica,sans-Serif" font-size="10.00">src/hal/x4m0x_s70/libraries</text>
<text text-anchor="middle" x="159.5" y="-7.5" font-family="Helvetica,sans-Serif" font-size="10.00">/libusb/usb.h</text>
</a>
</g>
</g>
<!-- Node12&#45;&gt;Node20 -->
<g id="edge3" class="edge"><title>Node12&#45;&gt;Node20</title>
<path fill="none" stroke="midnightblue" d="M184.405,-126.86C192.04,-118.678 199.482,-108.728 203.5,-98 208.332,-85.0975 208.332,-79.9025 203.5,-67 198.198,-52.8434 186.934,-40.042 177.131,-30.87"/>
<polygon fill="midnightblue" stroke="midnightblue" points="181.73,-124.585 177.131,-134.13 186.678,-129.536 181.73,-124.585"/>
</g>
<!-- Node13&#45;&gt;Node20 -->
<g id="edge2" class="edge"><title>Node13&#45;&gt;Node20</title>
<path fill="none" stroke="midnightblue" d="M117.985,-60.0243C127.222,-50.3398 137.873,-39.1739 146.073,-30.5765"/>
<polygon fill="midnightblue" stroke="midnightblue" points="115.323,-57.7441 110.953,-67.396 120.388,-62.5756 115.323,-57.7441"/>
</g>
</g>
</svg>
