<?xml version="1.0" encoding="UTF-8" standalone="no"?>
<!DOCTYPE svg PUBLIC "-//W3C//DTD SVG 1.1//EN"
 "http://www.w3.org/Graphics/SVG/1.1/DTD/svg11.dtd">
<!-- Generated by graphviz version 2.38.0 (20140413.2041)
 -->
<!-- Title: src/hal/x4m0x_s70/libraries/libusb/include/AUDDescriptors.h Pages: 1 -->
<svg width="1024pt" height="184pt"
 viewBox="0.00 0.00 1024.00 184.00" xmlns="http://www.w3.org/2000/svg" xmlns:xlink="http://www.w3.org/1999/xlink">
<g id="graph0" class="graph" transform="scale(1 1) rotate(0) translate(4 180)">
<title>src/hal/x4m0x_s70/libraries/libusb/include/AUDDescriptors.h</title>
<polygon fill="white" stroke="none" points="-4,4 -4,-180 1020,-180 1020,4 -4,4"/>
<!-- Node2 -->
<g id="node1" class="node"><title>Node2</title>
<polygon fill="#bfbfbf" stroke="black" points="395.5,-145.5 395.5,-175.5 568.5,-175.5 568.5,-145.5 395.5,-145.5"/>
<text text-anchor="start" x="403.5" y="-163.5" font-family="Helvetica,sans-Serif" font-size="10.00">src/hal/x4m0x_s70/libraries</text>
<text text-anchor="middle" x="482" y="-152.5" font-family="Helvetica,sans-Serif" font-size="10.00">/libusb/include/AUDDescriptors.h</text>
</g>
<!-- Node3 -->
<g id="node2" class="node"><title>Node3</title>
<g id="a_node2"><a xlink:href="_a_u_d_d_stream_8c.xhtml" target="_top" xlink:title="USB Audio Device Streaming interface with controls. ">
<polygon fill="white" stroke="black" points="0,-67.5 0,-108.5 182,-108.5 182,-67.5 0,-67.5"/>
<text text-anchor="start" x="8" y="-96.5" font-family="Helvetica,sans-Serif" font-size="10.00">src/hal/x4m0x_s70/libraries</text>
<text text-anchor="start" x="8" y="-85.5" font-family="Helvetica,sans-Serif" font-size="10.00">/libusb/device/audio&#45;speakerphone</text>
<text text-anchor="middle" x="91" y="-74.5" font-family="Helvetica,sans-Serif" font-size="10.00">/AUDDStream.c</text>
</a>
</g>
</g>
<!-- Node2&#45;&gt;Node3 -->
<g id="edge1" class="edge"><title>Node2&#45;&gt;Node3</title>
<path fill="none" stroke="midnightblue" d="M387.772,-143.775C330.752,-134.104 256.619,-121.253 191,-109 188.128,-108.464 185.211,-107.914 182.267,-107.353"/>
<polygon fill="midnightblue" stroke="midnightblue" points="387.408,-147.263 397.852,-145.482 388.577,-140.362 387.408,-147.263"/>
</g>
<!-- Node4 -->
<g id="node3" class="node"><title>Node4</title>
<g id="a_node3"><a xlink:href="_a_u_d_d_speaker_driver_8h.xhtml" target="_top" xlink:title="src/hal/x4m0x_s70/libraries\l/libusb/include/AUDDSpeakerDriver.h">
<polygon fill="white" stroke="red" points="200.5,-73 200.5,-103 393.5,-103 393.5,-73 200.5,-73"/>
<text text-anchor="start" x="208.5" y="-91" font-family="Helvetica,sans-Serif" font-size="10.00">src/hal/x4m0x_s70/libraries</text>
<text text-anchor="middle" x="297" y="-80" font-family="Helvetica,sans-Serif" font-size="10.00">/libusb/include/AUDDSpeakerDriver.h</text>
</a>
</g>
</g>
<!-- Node2&#45;&gt;Node4 -->
<g id="edge2" class="edge"><title>Node2&#45;&gt;Node4</title>
<path fill="none" stroke="midnightblue" d="M435.579,-141.81C404.136,-129.827 363.153,-114.21 333.929,-103.073"/>
<polygon fill="midnightblue" stroke="midnightblue" points="434.416,-145.112 445.007,-145.403 436.909,-138.571 434.416,-145.112"/>
</g>
<!-- Node7 -->
<g id="node4" class="node"><title>Node7</title>
<g id="a_node4"><a xlink:href="usb_8h.xhtml" target="_top" xlink:title="Definition of SAM9XX5&#45;EK usb library. ">
<polygon fill="white" stroke="black" points="470,-0.5 470,-30.5 616,-30.5 616,-0.5 470,-0.5"/>
<text text-anchor="start" x="478" y="-18.5" font-family="Helvetica,sans-Serif" font-size="10.00">src/hal/x4m0x_s70/libraries</text>
<text text-anchor="middle" x="543" y="-7.5" font-family="Helvetica,sans-Serif" font-size="10.00">/libusb/usb.h</text>
</a>
</g>
</g>
<!-- Node2&#45;&gt;Node7 -->
<g id="edge10" class="edge"><title>Node2&#45;&gt;Node7</title>
<path fill="none" stroke="midnightblue" d="M459.095,-137.961C451.863,-129.683 444.778,-119.646 441,-109 434.758,-91.408 431.155,-82.8595 441,-67 451.734,-49.7081 470.342,-38.1558 488.751,-30.5237"/>
<polygon fill="midnightblue" stroke="midnightblue" points="456.586,-140.402 465.969,-145.321 461.701,-135.624 456.586,-140.402"/>
</g>
<!-- Node8 -->
<g id="node5" class="node"><title>Node8</title>
<g id="a_node5"><a xlink:href="_a_u_d_d_speaker_phone_driver_8h.xhtml" target="_top" xlink:title="src/hal/x4m0x_s70/libraries\l/libusb/include/AUDDSpeakerPhone\lDriver.h">
<polygon fill="white" stroke="red" points="450,-67.5 450,-108.5 636,-108.5 636,-67.5 450,-67.5"/>
<text text-anchor="start" x="458" y="-96.5" font-family="Helvetica,sans-Serif" font-size="10.00">src/hal/x4m0x_s70/libraries</text>
<text text-anchor="start" x="458" y="-85.5" font-family="Helvetica,sans-Serif" font-size="10.00">/libusb/include/AUDDSpeakerPhone</text>
<text text-anchor="middle" x="543" y="-74.5" font-family="Helvetica,sans-Serif" font-size="10.00">Driver.h</text>
</a>
</g>
</g>
<!-- Node2&#45;&gt;Node8 -->
<g id="edge4" class="edge"><title>Node2&#45;&gt;Node8</title>
<path fill="none" stroke="midnightblue" d="M501,-137.541C509.015,-128.278 518.271,-117.58 526.051,-108.588"/>
<polygon fill="midnightblue" stroke="midnightblue" points="498.241,-135.381 494.344,-145.233 503.534,-139.961 498.241,-135.381"/>
</g>
<!-- Node11 -->
<g id="node6" class="node"><title>Node11</title>
<g id="a_node6"><a xlink:href="_c_d_c_a_u_d_d_driver_8h.xhtml" target="_top" xlink:title="src/hal/x4m0x_s70/libraries\l/libusb/include/CDCAUDDDriver.h">
<polygon fill="white" stroke="red" points="654,-73 654,-103 828,-103 828,-73 654,-73"/>
<text text-anchor="start" x="662" y="-91" font-family="Helvetica,sans-Serif" font-size="10.00">src/hal/x4m0x_s70/libraries</text>
<text text-anchor="middle" x="741" y="-80" font-family="Helvetica,sans-Serif" font-size="10.00">/libusb/include/CDCAUDDDriver.h</text>
</a>
</g>
</g>
<!-- Node2&#45;&gt;Node11 -->
<g id="edge6" class="edge"><title>Node2&#45;&gt;Node11</title>
<path fill="none" stroke="midnightblue" d="M543.287,-142.818C587.707,-130.727 647.111,-114.557 689.175,-103.107"/>
<polygon fill="midnightblue" stroke="midnightblue" points="542.209,-139.484 533.48,-145.487 544.048,-146.238 542.209,-139.484"/>
</g>
<!-- Node13 -->
<g id="node7" class="node"><title>Node13</title>
<g id="a_node7"><a xlink:href="_h_i_d_a_u_d_d_driver_8h.xhtml" target="_top" xlink:title="src/hal/x4m0x_s70/libraries\l/libusb/include/HIDAUDDDriver.h">
<polygon fill="white" stroke="red" points="846,-73 846,-103 1016,-103 1016,-73 846,-73"/>
<text text-anchor="start" x="854" y="-91" font-family="Helvetica,sans-Serif" font-size="10.00">src/hal/x4m0x_s70/libraries</text>
<text text-anchor="middle" x="931" y="-80" font-family="Helvetica,sans-Serif" font-size="10.00">/libusb/include/HIDAUDDDriver.h</text>
</a>
</g>
</g>
<!-- Node2&#45;&gt;Node13 -->
<g id="edge8" class="edge"><title>Node2&#45;&gt;Node13</title>
<path fill="none" stroke="midnightblue" d="M579.05,-147.513C650.566,-138.238 750.095,-124.408 837,-109 847.021,-107.223 857.604,-105.158 867.912,-103.042"/>
<polygon fill="midnightblue" stroke="midnightblue" points="578.177,-144.097 568.707,-148.848 579.073,-151.039 578.177,-144.097"/>
</g>
<!-- Node4&#45;&gt;Node7 -->
<g id="edge3" class="edge"><title>Node4&#45;&gt;Node7</title>
<path fill="none" stroke="midnightblue" d="M355.743,-70.165C397.875,-58.0907 453.992,-42.0085 493.776,-30.6069"/>
<polygon fill="midnightblue" stroke="midnightblue" points="354.545,-66.8676 345.896,-72.9872 356.473,-73.5967 354.545,-66.8676"/>
</g>
<!-- Node8&#45;&gt;Node7 -->
<g id="edge5" class="edge"><title>Node8&#45;&gt;Node7</title>
<path fill="none" stroke="midnightblue" d="M543,-57.08C543,-48.0061 543,-38.4498 543,-30.8916"/>
<polygon fill="midnightblue" stroke="midnightblue" points="539.5,-57.3618 543,-67.3618 546.5,-57.3619 539.5,-57.3618"/>
</g>
<!-- Node11&#45;&gt;Node7 -->
<g id="edge7" class="edge"><title>Node11&#45;&gt;Node7</title>
<path fill="none" stroke="midnightblue" d="M691.751,-69.4645C658.043,-57.4622 613.936,-41.7576 582.524,-30.5729"/>
<polygon fill="midnightblue" stroke="midnightblue" points="690.813,-72.8456 701.408,-72.9027 693.161,-66.2511 690.813,-72.8456"/>
</g>
<!-- Node13&#45;&gt;Node7 -->
<g id="edge9" class="edge"><title>Node13&#45;&gt;Node7</title>
<path fill="none" stroke="midnightblue" d="M856.982,-70.965C850.233,-69.5895 843.495,-68.2483 837,-67 761.984,-52.5827 675.812,-38.0144 616.243,-28.2553"/>
<polygon fill="midnightblue" stroke="midnightblue" points="856.351,-74.4085 866.851,-72.9979 857.763,-67.5524 856.351,-74.4085"/>
</g>
</g>
</svg>
