<?xml version="1.0" encoding="UTF-8" standalone="no"?>
<!DOCTYPE svg PUBLIC "-//W3C//DTD SVG 1.1//EN"
 "http://www.w3.org/Graphics/SVG/1.1/DTD/svg11.dtd">
<!-- Generated by graphviz version 2.38.0 (20140413.2041)
 -->
<!-- Title: src/hal/x4m0x_s70/libraries/libusb/include/AUDDSpeakerPhoneDriver.h Pages: 1 -->
<svg width="578pt" height="128pt"
 viewBox="0.00 0.00 578.00 128.00" xmlns="http://www.w3.org/2000/svg" xmlns:xlink="http://www.w3.org/1999/xlink">
<g id="graph0" class="graph" transform="scale(1 1) rotate(0) translate(4 124)">
<title>src/hal/x4m0x_s70/libraries/libusb/include/AUDDSpeakerPhoneDriver.h</title>
<polygon fill="white" stroke="none" points="-4,4 -4,-124 574,-124 574,4 -4,4"/>
<!-- Node14 -->
<g id="node1" class="node"><title>Node14</title>
<polygon fill="#bfbfbf" stroke="black" points="210,-78.5 210,-119.5 396,-119.5 396,-78.5 210,-78.5"/>
<text text-anchor="start" x="218" y="-107.5" font-family="Helvetica,sans-Serif" font-size="10.00">src/hal/x4m0x_s70/libraries</text>
<text text-anchor="start" x="218" y="-96.5" font-family="Helvetica,sans-Serif" font-size="10.00">/libusb/include/AUDDSpeakerPhone</text>
<text text-anchor="middle" x="303" y="-85.5" font-family="Helvetica,sans-Serif" font-size="10.00">Driver.h</text>
</g>
<!-- Node15 -->
<g id="node2" class="node"><title>Node15</title>
<g id="a_node2"><a xlink:href="_a_u_d_d_speaker_phone_driver_8c.xhtml" target="_top" xlink:title="src/hal/x4m0x_s70/libraries\l/libusb/device/audio&#45;speakerphone\l/AUDDSpeakerPhoneDriver.c">
<polygon fill="white" stroke="black" points="0,-0.5 0,-41.5 182,-41.5 182,-0.5 0,-0.5"/>
<text text-anchor="start" x="8" y="-29.5" font-family="Helvetica,sans-Serif" font-size="10.00">src/hal/x4m0x_s70/libraries</text>
<text text-anchor="start" x="8" y="-18.5" font-family="Helvetica,sans-Serif" font-size="10.00">/libusb/device/audio&#45;speakerphone</text>
<text text-anchor="middle" x="91" y="-7.5" font-family="Helvetica,sans-Serif" font-size="10.00">/AUDDSpeakerPhoneDriver.c</text>
</a>
</g>
</g>
<!-- Node14&#45;&gt;Node15 -->
<g id="edge1" class="edge"><title>Node14&#45;&gt;Node15</title>
<path fill="none" stroke="midnightblue" d="M238.916,-75.0264C209.072,-64.3275 173.943,-51.7343 145.41,-41.5056"/>
<polygon fill="midnightblue" stroke="midnightblue" points="237.81,-78.3481 248.405,-78.4281 240.172,-71.7587 237.81,-78.3481"/>
</g>
<!-- Node16 -->
<g id="node3" class="node"><title>Node16</title>
<g id="a_node3"><a xlink:href="_a_u_d_d_speaker_phone_driver___callbacks_8c.xhtml" target="_top" xlink:title="Default callbacks implement for Audio SpeakerPhone Driver. ">
<polygon fill="white" stroke="black" points="200,-0.5 200,-41.5 406,-41.5 406,-0.5 200,-0.5"/>
<text text-anchor="start" x="208" y="-29.5" font-family="Helvetica,sans-Serif" font-size="10.00">src/hal/x4m0x_s70/libraries</text>
<text text-anchor="start" x="208" y="-18.5" font-family="Helvetica,sans-Serif" font-size="10.00">/libusb/device/audio&#45;speakerphone</text>
<text text-anchor="middle" x="303" y="-7.5" font-family="Helvetica,sans-Serif" font-size="10.00">/AUDDSpeakerPhoneDriver_Callbacks.c</text>
</a>
</g>
</g>
<!-- Node14&#45;&gt;Node16 -->
<g id="edge2" class="edge"><title>Node14&#45;&gt;Node16</title>
<path fill="none" stroke="midnightblue" d="M303,-68.2965C303,-59.3009 303,-49.6532 303,-41.5056"/>
<polygon fill="midnightblue" stroke="midnightblue" points="299.5,-68.4281 303,-78.4281 306.5,-68.4281 299.5,-68.4281"/>
</g>
<!-- Node17 -->
<g id="node4" class="node"><title>Node17</title>
<g id="a_node4"><a xlink:href="usb_8h.xhtml" target="_top" xlink:title="Definition of SAM9XX5&#45;EK usb library. ">
<polygon fill="white" stroke="black" points="424,-6 424,-36 570,-36 570,-6 424,-6"/>
<text text-anchor="start" x="432" y="-24" font-family="Helvetica,sans-Serif" font-size="10.00">src/hal/x4m0x_s70/libraries</text>
<text text-anchor="middle" x="497" y="-13" font-family="Helvetica,sans-Serif" font-size="10.00">/libusb/usb.h</text>
</a>
</g>
</g>
<!-- Node14&#45;&gt;Node17 -->
<g id="edge3" class="edge"><title>Node14&#45;&gt;Node17</title>
<path fill="none" stroke="midnightblue" d="M362.294,-74.7713C394.522,-62.1462 433.326,-46.9446 460.991,-36.1065"/>
<polygon fill="midnightblue" stroke="midnightblue" points="360.994,-71.5216 352.96,-78.4281 363.548,-78.0393 360.994,-71.5216"/>
</g>
</g>
</svg>
