<?xml version="1.0" encoding="UTF-8" standalone="no"?>
<!DOCTYPE svg PUBLIC "-//W3C//DTD SVG 1.1//EN"
 "http://www.w3.org/Graphics/SVG/1.1/DTD/svg11.dtd">
<!-- Generated by graphviz version 2.38.0 (20140413.2041)
 -->
<!-- Title: src/hal/x4m0x_s70/libraries/libusb/include/AUDDStream.h Pages: 1 -->
<svg width="216pt" height="151pt"
 viewBox="0.00 0.00 215.50 151.00" xmlns="http://www.w3.org/2000/svg" xmlns:xlink="http://www.w3.org/1999/xlink">
<g id="graph0" class="graph" transform="scale(1 1) rotate(0) translate(4 147)">
<title>src/hal/x4m0x_s70/libraries/libusb/include/AUDDStream.h</title>
<polygon fill="white" stroke="none" points="-4,4 -4,-147 211.5,-147 211.5,4 -4,4"/>
<!-- Node0 -->
<g id="node1" class="node"><title>Node0</title>
<polygon fill="#bfbfbf" stroke="black" points="0,-112.5 0,-142.5 161,-142.5 161,-112.5 0,-112.5"/>
<text text-anchor="start" x="8" y="-130.5" font-family="Helvetica,sans-Serif" font-size="10.00">src/hal/x4m0x_s70/libraries</text>
<text text-anchor="middle" x="80.5" y="-119.5" font-family="Helvetica,sans-Serif" font-size="10.00">/libusb/include/AUDDStream.h</text>
</g>
<!-- Node1 -->
<g id="node2" class="node"><title>Node1</title>
<polygon fill="white" stroke="#bfbfbf" points="69,-0.5 69,-19.5 122,-19.5 122,-0.5 69,-0.5"/>
<text text-anchor="middle" x="95.5" y="-7.5" font-family="Helvetica,sans-Serif" font-size="10.00">stdint.h</text>
</g>
<!-- Node0&#45;&gt;Node1 -->
<g id="edge1" class="edge"><title>Node0&#45;&gt;Node1</title>
<path fill="none" stroke="midnightblue" d="M65.04,-112.384C51.576,-98.2894 35.512,-75.9173 44.5,-56 50.1159,-43.5553 61.0627,-33.1723 71.3792,-25.5273"/>
<polygon fill="midnightblue" stroke="midnightblue" points="73.5064,-28.3123 79.766,-19.7643 69.5421,-22.5431 73.5064,-28.3123"/>
</g>
<!-- Node2 -->
<g id="node3" class="node"><title>Node2</title>
<g id="a_node3"><a xlink:href="_u_s_b_d_8h.xhtml" target="_top" xlink:title="USBD.h">
<polygon fill="white" stroke="red" points="53.5,-56.5 53.5,-75.5 107.5,-75.5 107.5,-56.5 53.5,-56.5"/>
<text text-anchor="middle" x="80.5" y="-63.5" font-family="Helvetica,sans-Serif" font-size="10.00">USBD.h</text>
</a>
</g>
</g>
<!-- Node0&#45;&gt;Node2 -->
<g id="edge2" class="edge"><title>Node0&#45;&gt;Node2</title>
<path fill="none" stroke="midnightblue" d="M80.5,-112.399C80.5,-104.466 80.5,-94.458 80.5,-85.8583"/>
<polygon fill="midnightblue" stroke="midnightblue" points="84.0001,-85.6577 80.5,-75.6578 77.0001,-85.6578 84.0001,-85.6577"/>
</g>
<!-- Node11 -->
<g id="node4" class="node"><title>Node11</title>
<g id="a_node4"><a xlink:href="_u_s_b_d_driver_8h.xhtml" target="_top" xlink:title="USBDDriver.h">
<polygon fill="white" stroke="red" points="125.5,-56.5 125.5,-75.5 207.5,-75.5 207.5,-56.5 125.5,-56.5"/>
<text text-anchor="middle" x="166.5" y="-63.5" font-family="Helvetica,sans-Serif" font-size="10.00">USBDDriver.h</text>
</a>
</g>
</g>
<!-- Node0&#45;&gt;Node11 -->
<g id="edge3" class="edge"><title>Node0&#45;&gt;Node11</title>
<path fill="none" stroke="midnightblue" d="M100.881,-112.399C114.408,-103.04 132.111,-90.7924 145.72,-81.3771"/>
<polygon fill="midnightblue" stroke="midnightblue" points="147.754,-84.2257 153.986,-75.6578 143.771,-78.4692 147.754,-84.2257"/>
</g>
<!-- Node11&#45;&gt;Node1 -->
<g id="edge4" class="edge"><title>Node11&#45;&gt;Node1</title>
<path fill="none" stroke="midnightblue" d="M155.093,-56.324C144.391,-48.1849 128.159,-35.8395 115.337,-26.0874"/>
<polygon fill="midnightblue" stroke="midnightblue" points="117.193,-23.1018 107.115,-19.8339 112.956,-28.6734 117.193,-23.1018"/>
</g>
</g>
</svg>
