<?xml version="1.0" encoding="UTF-8" standalone="no"?>
<!DOCTYPE svg PUBLIC "-//W3C//DTD SVG 1.1//EN"
 "http://www.w3.org/Graphics/SVG/1.1/DTD/svg11.dtd">
<!-- Generated by graphviz version 2.38.0 (20140413.2041)
 -->
<!-- Title: src/hal/x4m0x_s70/libraries/libusb/include/AUDDFunction.h Pages: 1 -->
<svg width="646pt" height="117pt"
 viewBox="0.00 0.00 646.00 117.00" xmlns="http://www.w3.org/2000/svg" xmlns:xlink="http://www.w3.org/1999/xlink">
<g id="graph0" class="graph" transform="scale(1 1) rotate(0) translate(4 113)">
<title>src/hal/x4m0x_s70/libraries/libusb/include/AUDDFunction.h</title>
<polygon fill="white" stroke="none" points="-4,4 -4,-113 642,-113 642,4 -4,4"/>
<!-- Node14 -->
<g id="node1" class="node"><title>Node14</title>
<polygon fill="#bfbfbf" stroke="black" points="236.5,-78.5 236.5,-108.5 401.5,-108.5 401.5,-78.5 236.5,-78.5"/>
<text text-anchor="start" x="244.5" y="-96.5" font-family="Helvetica,sans-Serif" font-size="10.00">src/hal/x4m0x_s70/libraries</text>
<text text-anchor="middle" x="319" y="-85.5" font-family="Helvetica,sans-Serif" font-size="10.00">/libusb/include/AUDDFunction.h</text>
</g>
<!-- Node15 -->
<g id="node2" class="node"><title>Node15</title>
<g id="a_node2"><a xlink:href="_a_u_d_d_function_8c.xhtml" target="_top" xlink:title="src/hal/x4m0x_s70/libraries\l/libusb/device/composite\l/AUDDFunction.c">
<polygon fill="white" stroke="black" points="0,-0.5 0,-41.5 146,-41.5 146,-0.5 0,-0.5"/>
<text text-anchor="start" x="8" y="-29.5" font-family="Helvetica,sans-Serif" font-size="10.00">src/hal/x4m0x_s70/libraries</text>
<text text-anchor="start" x="8" y="-18.5" font-family="Helvetica,sans-Serif" font-size="10.00">/libusb/device/composite</text>
<text text-anchor="middle" x="73" y="-7.5" font-family="Helvetica,sans-Serif" font-size="10.00">/AUDDFunction.c</text>
</a>
</g>
</g>
<!-- Node14&#45;&gt;Node15 -->
<g id="edge1" class="edge"><title>Node14&#45;&gt;Node15</title>
<path fill="none" stroke="midnightblue" d="M260.305,-75.679C224.562,-65.4354 178.739,-52.3032 141.363,-41.5919"/>
<polygon fill="midnightblue" stroke="midnightblue" points="259.527,-79.0967 270.104,-78.4872 261.455,-72.3676 259.527,-79.0967"/>
</g>
<!-- Node16 -->
<g id="node3" class="node"><title>Node16</title>
<g id="a_node3"><a xlink:href="_c_d_c_a_u_d_d_driver_8c.xhtml" target="_top" xlink:title="src/hal/x4m0x_s70/libraries\l/libusb/device/composite\l/CDCAUDDDriver.c">
<polygon fill="white" stroke="black" points="164,-0.5 164,-41.5 310,-41.5 310,-0.5 164,-0.5"/>
<text text-anchor="start" x="172" y="-29.5" font-family="Helvetica,sans-Serif" font-size="10.00">src/hal/x4m0x_s70/libraries</text>
<text text-anchor="start" x="172" y="-18.5" font-family="Helvetica,sans-Serif" font-size="10.00">/libusb/device/composite</text>
<text text-anchor="middle" x="237" y="-7.5" font-family="Helvetica,sans-Serif" font-size="10.00">/CDCAUDDDriver.c</text>
</a>
</g>
</g>
<!-- Node14&#45;&gt;Node16 -->
<g id="edge2" class="edge"><title>Node14&#45;&gt;Node16</title>
<path fill="none" stroke="midnightblue" d="M294.757,-71.6567C283.694,-62.1451 270.664,-50.9432 259.784,-41.5884"/>
<polygon fill="midnightblue" stroke="midnightblue" points="292.542,-74.3679 302.406,-78.2333 297.105,-69.0599 292.542,-74.3679"/>
</g>
<!-- Node17 -->
<g id="node4" class="node"><title>Node17</title>
<g id="a_node4"><a xlink:href="_h_i_d_a_u_d_d_driver_8c.xhtml" target="_top" xlink:title="src/hal/x4m0x_s70/libraries\l/libusb/device/composite\l/HIDAUDDDriver.c">
<polygon fill="white" stroke="black" points="328,-0.5 328,-41.5 474,-41.5 474,-0.5 328,-0.5"/>
<text text-anchor="start" x="336" y="-29.5" font-family="Helvetica,sans-Serif" font-size="10.00">src/hal/x4m0x_s70/libraries</text>
<text text-anchor="start" x="336" y="-18.5" font-family="Helvetica,sans-Serif" font-size="10.00">/libusb/device/composite</text>
<text text-anchor="middle" x="401" y="-7.5" font-family="Helvetica,sans-Serif" font-size="10.00">/HIDAUDDDriver.c</text>
</a>
</g>
</g>
<!-- Node14&#45;&gt;Node17 -->
<g id="edge3" class="edge"><title>Node14&#45;&gt;Node17</title>
<path fill="none" stroke="midnightblue" d="M343.243,-71.6567C354.306,-62.1451 367.336,-50.9432 378.216,-41.5884"/>
<polygon fill="midnightblue" stroke="midnightblue" points="340.895,-69.0599 335.594,-78.2333 345.458,-74.3679 340.895,-69.0599"/>
</g>
<!-- Node18 -->
<g id="node5" class="node"><title>Node18</title>
<g id="a_node5"><a xlink:href="usb_8h.xhtml" target="_top" xlink:title="Definition of SAM9XX5&#45;EK usb library. ">
<polygon fill="white" stroke="black" points="492,-6 492,-36 638,-36 638,-6 492,-6"/>
<text text-anchor="start" x="500" y="-24" font-family="Helvetica,sans-Serif" font-size="10.00">src/hal/x4m0x_s70/libraries</text>
<text text-anchor="middle" x="565" y="-13" font-family="Helvetica,sans-Serif" font-size="10.00">/libusb/usb.h</text>
</a>
</g>
</g>
<!-- Node14&#45;&gt;Node18 -->
<g id="edge4" class="edge"><title>Node14&#45;&gt;Node18</title>
<path fill="none" stroke="midnightblue" d="M377.743,-75.665C419.875,-63.5907 475.992,-47.5085 515.776,-36.1069"/>
<polygon fill="midnightblue" stroke="midnightblue" points="376.545,-72.3676 367.896,-78.4872 378.473,-79.0967 376.545,-72.3676"/>
</g>
</g>
</svg>
