<?xml version="1.0" encoding="UTF-8" standalone="no"?>
<!DOCTYPE svg PUBLIC "-//W3C//DTD SVG 1.1//EN"
 "http://www.w3.org/Graphics/SVG/1.1/DTD/svg11.dtd">
<!-- Generated by graphviz version 2.38.0 (20140413.2041)
 -->
<!-- Title: src/hal/x4m0x_s70/libraries/libusb/device/audio&#45;speaker/AUDDSpeakerDriver.c Pages: 1 -->
<svg width="601pt" height="218pt"
 viewBox="0.00 0.00 601.00 218.00" xmlns="http://www.w3.org/2000/svg" xmlns:xlink="http://www.w3.org/1999/xlink">
<g id="graph0" class="graph" transform="scale(1 1) rotate(0) translate(4 214)">
<title>src/hal/x4m0x_s70/libraries/libusb/device/audio&#45;speaker/AUDDSpeakerDriver.c</title>
<polygon fill="white" stroke="none" points="-4,4 -4,-214 597,-214 597,4 -4,4"/>
<!-- Node0 -->
<g id="node1" class="node"><title>Node0</title>
<polygon fill="#bfbfbf" stroke="black" points="209.5,-168.5 209.5,-209.5 361.5,-209.5 361.5,-168.5 209.5,-168.5"/>
<text text-anchor="start" x="217.5" y="-197.5" font-family="Helvetica,sans-Serif" font-size="10.00">src/hal/x4m0x_s70/libraries</text>
<text text-anchor="start" x="217.5" y="-186.5" font-family="Helvetica,sans-Serif" font-size="10.00">/libusb/device/audio&#45;speaker</text>
<text text-anchor="middle" x="285.5" y="-175.5" font-family="Helvetica,sans-Serif" font-size="10.00">/AUDDSpeakerDriver.c</text>
</g>
<!-- Node1 -->
<g id="node2" class="node"><title>Node1</title>
<g id="a_node2"><a xlink:href="_a_u_d_d_speaker_driver_8h.xhtml" target="_top" xlink:title="AUDDSpeakerDriver.h">
<polygon fill="white" stroke="red" points="135.5,-112.5 135.5,-131.5 257.5,-131.5 257.5,-112.5 135.5,-112.5"/>
<text text-anchor="middle" x="196.5" y="-119.5" font-family="Helvetica,sans-Serif" font-size="10.00">AUDDSpeakerDriver.h</text>
</a>
</g>
</g>
<!-- Node0&#45;&gt;Node1 -->
<g id="edge1" class="edge"><title>Node0&#45;&gt;Node1</title>
<path fill="none" stroke="midnightblue" d="M258.797,-168.498C245.283,-158.628 229.147,-146.843 216.683,-137.741"/>
<polygon fill="midnightblue" stroke="midnightblue" points="218.487,-134.724 208.347,-131.652 214.359,-140.377 218.487,-134.724"/>
</g>
<!-- Node11 -->
<g id="node3" class="node"><title>Node11</title>
<g id="a_node3"><a xlink:href="_u_s_b_d_8h.xhtml" target="_top" xlink:title="USBD.h">
<polygon fill="white" stroke="red" points="99.5,-0.5 99.5,-19.5 153.5,-19.5 153.5,-0.5 99.5,-0.5"/>
<text text-anchor="middle" x="126.5" y="-7.5" font-family="Helvetica,sans-Serif" font-size="10.00">USBD.h</text>
</a>
</g>
</g>
<!-- Node0&#45;&gt;Node11 -->
<g id="edge10" class="edge"><title>Node0&#45;&gt;Node11</title>
<path fill="none" stroke="midnightblue" d="M209.15,-180.171C178.242,-172.815 145.441,-158.752 126.5,-132 104.929,-101.533 113.305,-55.06 120.447,-29.4825"/>
<polygon fill="midnightblue" stroke="midnightblue" points="123.885,-30.2052 123.435,-19.6199 117.185,-28.1754 123.885,-30.2052"/>
</g>
<!-- Node13 -->
<g id="node4" class="node"><title>Node13</title>
<g id="a_node4"><a xlink:href="_u_s_b_d_driver_8h.xhtml" target="_top" xlink:title="USBDDriver.h">
<polygon fill="white" stroke="red" points="233.5,-0.5 233.5,-19.5 315.5,-19.5 315.5,-0.5 233.5,-0.5"/>
<text text-anchor="middle" x="274.5" y="-7.5" font-family="Helvetica,sans-Serif" font-size="10.00">USBDDriver.h</text>
</a>
</g>
</g>
<!-- Node0&#45;&gt;Node13 -->
<g id="edge13" class="edge"><title>Node0&#45;&gt;Node13</title>
<path fill="none" stroke="midnightblue" d="M306.097,-168.31C330.899,-142.109 366.734,-94.5976 345.5,-56 337.613,-41.6632 323.014,-31.2525 309.097,-24.0792"/>
<polygon fill="midnightblue" stroke="midnightblue" points="310.198,-20.7285 299.661,-19.6217 307.208,-27.0578 310.198,-20.7285"/>
</g>
<!-- Node14 -->
<g id="node5" class="node"><title>Node14</title>
<g id="a_node5"><a xlink:href="_a_u_d_d_speaker_phone_8h.xhtml" target="_top" xlink:title="USB Audio Speaker &amp; Microphone Function. ">
<polygon fill="white" stroke="red" points="212,-56.5 212,-75.5 337,-75.5 337,-56.5 212,-56.5"/>
<text text-anchor="middle" x="274.5" y="-63.5" font-family="Helvetica,sans-Serif" font-size="10.00">AUDDSpeakerPhone.h</text>
</a>
</g>
</g>
<!-- Node0&#45;&gt;Node14 -->
<g id="edge7" class="edge"><title>Node0&#45;&gt;Node14</title>
<path fill="none" stroke="midnightblue" d="M283.708,-168.29C281.635,-145.48 278.244,-108.189 276.207,-85.7807"/>
<polygon fill="midnightblue" stroke="midnightblue" points="279.671,-85.2168 275.28,-75.5748 272.699,-85.8506 279.671,-85.2168"/>
</g>
<!-- Node16 -->
<g id="node6" class="node"><title>Node16</title>
<g id="a_node6"><a xlink:href="_u_s_b_lib___trace_8h.xhtml" target="_top" xlink:title="USBLib_Trace.h">
<polygon fill="white" stroke="red" points="393.5,-112.5 393.5,-131.5 483.5,-131.5 483.5,-112.5 393.5,-112.5"/>
<text text-anchor="middle" x="438.5" y="-119.5" font-family="Helvetica,sans-Serif" font-size="10.00">USBLib_Trace.h</text>
</a>
</g>
</g>
<!-- Node0&#45;&gt;Node16 -->
<g id="edge8" class="edge"><title>Node0&#45;&gt;Node16</title>
<path fill="none" stroke="midnightblue" d="M331.405,-168.498C356.442,-157.861 386.713,-145.001 408.676,-135.67"/>
<polygon fill="midnightblue" stroke="midnightblue" points="410.298,-138.784 418.133,-131.652 407.561,-132.341 410.298,-138.784"/>
</g>
<!-- Node17 -->
<g id="node7" class="node"><title>Node17</title>
<g id="a_node7"><a xlink:href="_a_u_d_requests_8h.xhtml" target="_top" xlink:title="Definitions and classes for USB Audio class requests. ">
<polygon fill="white" stroke="red" points="502,-112.5 502,-131.5 593,-131.5 593,-112.5 502,-112.5"/>
<text text-anchor="middle" x="547.5" y="-119.5" font-family="Helvetica,sans-Serif" font-size="10.00">AUDRequests.h</text>
</a>
</g>
</g>
<!-- Node0&#45;&gt;Node17 -->
<g id="edge9" class="edge"><title>Node0&#45;&gt;Node17</title>
<path fill="none" stroke="midnightblue" d="M361.633,-169.112C407.54,-157.723 464.42,-143.612 503.081,-134.02"/>
<polygon fill="midnightblue" stroke="midnightblue" points="504.125,-137.367 512.988,-131.562 502.439,-130.573 504.125,-137.367"/>
</g>
<!-- Node18 -->
<g id="node8" class="node"><title>Node18</title>
<g id="a_node8"><a xlink:href="_u_s_b_d___h_a_l_8h.xhtml" target="_top" xlink:title="This file defines functions for USB Device Hardware Access Level. ">
<polygon fill="white" stroke="red" points="0,-56.5 0,-75.5 79,-75.5 79,-56.5 0,-56.5"/>
<text text-anchor="middle" x="39.5" y="-63.5" font-family="Helvetica,sans-Serif" font-size="10.00">USBD_HAL.h</text>
</a>
</g>
</g>
<!-- Node0&#45;&gt;Node18 -->
<g id="edge11" class="edge"><title>Node0&#45;&gt;Node18</title>
<path fill="none" stroke="midnightblue" d="M209.073,-176.527C171.963,-168.362 128.047,-154.668 93.5,-132 74.7845,-119.72 59.196,-98.9882 49.6553,-84.2416"/>
<polygon fill="midnightblue" stroke="midnightblue" points="52.5246,-82.2269 44.2869,-75.5642 46.5717,-85.9097 52.5246,-82.2269"/>
</g>
<!-- Node1&#45;&gt;Node11 -->
<g id="edge2" class="edge"><title>Node1&#45;&gt;Node11</title>
<path fill="none" stroke="midnightblue" d="M191.007,-112.368C179.506,-94.2957 152.703,-52.1764 137.514,-28.3074"/>
<polygon fill="midnightblue" stroke="midnightblue" points="140.289,-26.149 131.967,-19.5914 134.383,-29.9071 140.289,-26.149"/>
</g>
<!-- Node1&#45;&gt;Node13 -->
<g id="edge3" class="edge"><title>Node1&#45;&gt;Node13</title>
<path fill="none" stroke="midnightblue" d="M195.002,-112.248C193.213,-99.0054 191.682,-73.5608 202.5,-56 211.379,-41.5867 226.782,-31.049 241.068,-23.8104"/>
<polygon fill="midnightblue" stroke="midnightblue" points="242.646,-26.9361 250.215,-19.5224 239.675,-20.598 242.646,-26.9361"/>
</g>
<!-- Node1&#45;&gt;Node14 -->
<g id="edge4" class="edge"><title>Node1&#45;&gt;Node14</title>
<path fill="none" stroke="midnightblue" d="M209.032,-112.324C221.086,-103.979 239.527,-91.2122 253.769,-81.3524"/>
<polygon fill="midnightblue" stroke="midnightblue" points="255.769,-84.2243 261.999,-75.6545 251.785,-78.469 255.769,-84.2243"/>
</g>
<!-- Node14&#45;&gt;Node11 -->
<g id="edge5" class="edge"><title>Node14&#45;&gt;Node11</title>
<path fill="none" stroke="midnightblue" d="M251.049,-56.4435C226.367,-47.4381 187.315,-33.1891 159.523,-23.049"/>
<polygon fill="midnightblue" stroke="midnightblue" points="160.435,-19.6561 149.841,-19.5164 158.036,-26.2321 160.435,-19.6561"/>
</g>
<!-- Node14&#45;&gt;Node13 -->
<g id="edge6" class="edge"><title>Node14&#45;&gt;Node13</title>
<path fill="none" stroke="midnightblue" d="M274.5,-56.083C274.5,-49.0059 274.5,-38.8611 274.5,-29.9865"/>
<polygon fill="midnightblue" stroke="midnightblue" points="278,-29.751 274.5,-19.7511 271,-29.7511 278,-29.751"/>
</g>
<!-- Node18&#45;&gt;Node11 -->
<g id="edge12" class="edge"><title>Node18&#45;&gt;Node11</title>
<path fill="none" stroke="midnightblue" d="M53.4781,-56.324C67.0496,-47.9002 87.8802,-34.9709 103.825,-25.0741"/>
<polygon fill="midnightblue" stroke="midnightblue" points="105.906,-27.9019 112.557,-19.6545 102.214,-21.9544 105.906,-27.9019"/>
</g>
</g>
</svg>
