<?xml version="1.0" encoding="UTF-8" standalone="no"?>
<!DOCTYPE svg PUBLIC "-//W3C//DTD SVG 1.1//EN"
 "http://www.w3.org/Graphics/SVG/1.1/DTD/svg11.dtd">
<!-- Generated by graphviz version 2.38.0 (20140413.2041)
 -->
<!-- Title: src/hal/x4m0x_s70/libraries/libusb/include/CDCAUDDDriver.h Pages: 1 -->
<svg width="420pt" height="151pt"
 viewBox="0.00 0.00 419.87 151.00" xmlns="http://www.w3.org/2000/svg" xmlns:xlink="http://www.w3.org/1999/xlink">
<g id="graph0" class="graph" transform="scale(1 1) rotate(0) translate(4 147)">
<title>src/hal/x4m0x_s70/libraries/libusb/include/CDCAUDDDriver.h</title>
<polygon fill="white" stroke="none" points="-4,4 -4,-147 415.867,-147 415.867,4 -4,4"/>
<!-- Node0 -->
<g id="node1" class="node"><title>Node0</title>
<polygon fill="#bfbfbf" stroke="black" points="101.867,-112.5 101.867,-142.5 275.867,-142.5 275.867,-112.5 101.867,-112.5"/>
<text text-anchor="start" x="109.867" y="-130.5" font-family="Helvetica,sans-Serif" font-size="10.00">src/hal/x4m0x_s70/libraries</text>
<text text-anchor="middle" x="188.867" y="-119.5" font-family="Helvetica,sans-Serif" font-size="10.00">/libusb/include/CDCAUDDDriver.h</text>
</g>
<!-- Node1 -->
<g id="node2" class="node"><title>Node1</title>
<g id="a_node2"><a xlink:href="_u_s_b_requests_8h.xhtml" target="_top" xlink:title="USBRequests.h">
<polygon fill="white" stroke="red" points="239.867,-0.5 239.867,-19.5 329.867,-19.5 329.867,-0.5 239.867,-0.5"/>
<text text-anchor="middle" x="284.867" y="-7.5" font-family="Helvetica,sans-Serif" font-size="10.00">USBRequests.h</text>
</a>
</g>
</g>
<!-- Node0&#45;&gt;Node1 -->
<g id="edge1" class="edge"><title>Node0&#45;&gt;Node1</title>
<path fill="none" stroke="midnightblue" d="M101.687,-119.526C41.2243,-111.314 -23.1426,-93.6515 8.86719,-56 36.5916,-23.3892 157.064,-14.3529 229.365,-11.887"/>
<polygon fill="midnightblue" stroke="midnightblue" points="229.779,-15.376 239.666,-11.5688 229.563,-8.37933 229.779,-15.376"/>
</g>
<!-- Node3 -->
<g id="node3" class="node"><title>Node3</title>
<g id="a_node3"><a xlink:href="_c_d_c_descriptors_8h.xhtml" target="_top" xlink:title="Definitions and classes for USB CDC class descriptors. ">
<polygon fill="white" stroke="red" points="18.3672,-56.5 18.3672,-75.5 119.367,-75.5 119.367,-56.5 18.3672,-56.5"/>
<text text-anchor="middle" x="68.8672" y="-63.5" font-family="Helvetica,sans-Serif" font-size="10.00">CDCDescriptors.h</text>
</a>
</g>
</g>
<!-- Node0&#45;&gt;Node3 -->
<g id="edge2" class="edge"><title>Node0&#45;&gt;Node3</title>
<path fill="none" stroke="midnightblue" d="M160.429,-112.399C140.744,-102.639 114.724,-89.7373 95.454,-80.1826"/>
<polygon fill="midnightblue" stroke="midnightblue" points="96.8422,-76.9644 86.3283,-75.6578 93.7326,-83.2358 96.8422,-76.9644"/>
</g>
<!-- Node4 -->
<g id="node4" class="node"><title>Node4</title>
<g id="a_node4"><a xlink:href="_a_u_d_descriptors_8h.xhtml" target="_top" xlink:title="Definitions and classes for USB Audio class descriptors. ">
<polygon fill="white" stroke="red" points="137.867,-56.5 137.867,-75.5 239.867,-75.5 239.867,-56.5 137.867,-56.5"/>
<text text-anchor="middle" x="188.867" y="-63.5" font-family="Helvetica,sans-Serif" font-size="10.00">AUDDescriptors.h</text>
</a>
</g>
</g>
<!-- Node0&#45;&gt;Node4 -->
<g id="edge3" class="edge"><title>Node0&#45;&gt;Node4</title>
<path fill="none" stroke="midnightblue" d="M188.867,-112.399C188.867,-104.466 188.867,-94.458 188.867,-85.8583"/>
<polygon fill="midnightblue" stroke="midnightblue" points="192.367,-85.6577 188.867,-75.6578 185.367,-85.6578 192.367,-85.6577"/>
</g>
<!-- Node5 -->
<g id="node5" class="node"><title>Node5</title>
<g id="a_node5"><a xlink:href="_u_s_b_d_8h.xhtml" target="_top" xlink:title="USBD.h">
<polygon fill="white" stroke="red" points="257.867,-56.5 257.867,-75.5 311.867,-75.5 311.867,-56.5 257.867,-56.5"/>
<text text-anchor="middle" x="284.867" y="-63.5" font-family="Helvetica,sans-Serif" font-size="10.00">USBD.h</text>
</a>
</g>
</g>
<!-- Node0&#45;&gt;Node5 -->
<g id="edge4" class="edge"><title>Node0&#45;&gt;Node5</title>
<path fill="none" stroke="midnightblue" d="M211.618,-112.399C226.862,-102.951 246.856,-90.5589 262.103,-81.1089"/>
<polygon fill="midnightblue" stroke="midnightblue" points="264.242,-83.9009 270.898,-75.6578 260.555,-77.951 264.242,-83.9009"/>
</g>
<!-- Node13 -->
<g id="node6" class="node"><title>Node13</title>
<g id="a_node6"><a xlink:href="_u_s_b_d_driver_8h.xhtml" target="_top" xlink:title="USBDDriver.h">
<polygon fill="white" stroke="red" points="329.867,-56.5 329.867,-75.5 411.867,-75.5 411.867,-56.5 329.867,-56.5"/>
<text text-anchor="middle" x="370.867" y="-63.5" font-family="Helvetica,sans-Serif" font-size="10.00">USBDDriver.h</text>
</a>
</g>
</g>
<!-- Node0&#45;&gt;Node13 -->
<g id="edge6" class="edge"><title>Node0&#45;&gt;Node13</title>
<path fill="none" stroke="midnightblue" d="M231.999,-112.399C263.447,-102.118 305.559,-88.3506 335.135,-78.6818"/>
<polygon fill="midnightblue" stroke="midnightblue" points="336.233,-82.0051 344.65,-75.5709 334.058,-75.3516 336.233,-82.0051"/>
</g>
<!-- Node5&#45;&gt;Node1 -->
<g id="edge5" class="edge"><title>Node5&#45;&gt;Node1</title>
<path fill="none" stroke="midnightblue" d="M284.867,-56.083C284.867,-49.0059 284.867,-38.8611 284.867,-29.9865"/>
<polygon fill="midnightblue" stroke="midnightblue" points="288.367,-29.751 284.867,-19.7511 281.367,-29.7511 288.367,-29.751"/>
</g>
<!-- Node13&#45;&gt;Node1 -->
<g id="edge7" class="edge"><title>Node13&#45;&gt;Node1</title>
<path fill="none" stroke="midnightblue" d="M357.05,-56.324C343.634,-47.9002 323.043,-34.9709 307.282,-25.0741"/>
<polygon fill="midnightblue" stroke="midnightblue" points="308.98,-22.0081 298.65,-19.6545 305.258,-27.9364 308.98,-22.0081"/>
</g>
</g>
</svg>
