<?xml version="1.0" encoding="UTF-8" standalone="no"?>
<!DOCTYPE svg PUBLIC "-//W3C//DTD SVG 1.1//EN"
 "http://www.w3.org/Graphics/SVG/1.1/DTD/svg11.dtd">
<!-- Generated by graphviz version 2.38.0 (20140413.2041)
 -->
<!-- Title: src/hal/x4m0x_s70/libraries/libusb/include/CDCDEEMPort.h Pages: 1 -->
<svg width="378pt" height="106pt"
 viewBox="0.00 0.00 378.00 106.00" xmlns="http://www.w3.org/2000/svg" xmlns:xlink="http://www.w3.org/1999/xlink">
<g id="graph0" class="graph" transform="scale(1 1) rotate(0) translate(4 102)">
<title>src/hal/x4m0x_s70/libraries/libusb/include/CDCDEEMPort.h</title>
<polygon fill="white" stroke="none" points="-4,4 -4,-102 374,-102 374,4 -4,4"/>
<!-- Node14 -->
<g id="node1" class="node"><title>Node14</title>
<polygon fill="#bfbfbf" stroke="black" points="118,-67.5 118,-97.5 282,-97.5 282,-67.5 118,-67.5"/>
<text text-anchor="start" x="126" y="-85.5" font-family="Helvetica,sans-Serif" font-size="10.00">src/hal/x4m0x_s70/libraries</text>
<text text-anchor="middle" x="200" y="-74.5" font-family="Helvetica,sans-Serif" font-size="10.00">/libusb/include/CDCDEEMPort.h</text>
</g>
<!-- Node15 -->
<g id="node2" class="node"><title>Node15</title>
<g id="a_node2"><a xlink:href="_c_d_c_d_e_e_m_port_8c.xhtml" target="_top" xlink:title="Implementation of the CDCDEEMPort class methods. ">
<polygon fill="white" stroke="black" points="0,-0.5 0,-30.5 206,-30.5 206,-0.5 0,-0.5"/>
<text text-anchor="start" x="8" y="-18.5" font-family="Helvetica,sans-Serif" font-size="10.00">src/hal/x4m0x_s70/libraries</text>
<text text-anchor="middle" x="103" y="-7.5" font-family="Helvetica,sans-Serif" font-size="10.00">/libusb/device/cdc&#45;eem/CDCDEEMPort.c</text>
</a>
</g>
</g>
<!-- Node14&#45;&gt;Node15 -->
<g id="edge1" class="edge"><title>Node14&#45;&gt;Node15</title>
<path fill="none" stroke="midnightblue" d="M170.503,-61.7337C155.493,-51.6755 137.599,-39.6847 124.006,-30.5765"/>
<polygon fill="midnightblue" stroke="midnightblue" points="168.697,-64.7367 178.952,-67.396 172.594,-58.9216 168.697,-64.7367"/>
</g>
<!-- Node16 -->
<g id="node3" class="node"><title>Node16</title>
<g id="a_node3"><a xlink:href="_c_d_c_d_e_e_m_8h.xhtml" target="_top" xlink:title="Single CDC EEM Function for USB device &amp; composite driver. ">
<polygon fill="white" stroke="red" points="224,-0.5 224,-30.5 370,-30.5 370,-0.5 224,-0.5"/>
<text text-anchor="start" x="232" y="-18.5" font-family="Helvetica,sans-Serif" font-size="10.00">src/hal/x4m0x_s70/libraries</text>
<text text-anchor="middle" x="297" y="-7.5" font-family="Helvetica,sans-Serif" font-size="10.00">/libusb/include/CDCDEEM.h</text>
</a>
</g>
</g>
<!-- Node14&#45;&gt;Node16 -->
<g id="edge2" class="edge"><title>Node14&#45;&gt;Node16</title>
<path fill="none" stroke="midnightblue" d="M229.497,-61.7337C244.507,-51.6755 262.401,-39.6847 275.994,-30.5765"/>
<polygon fill="midnightblue" stroke="midnightblue" points="227.406,-58.9216 221.048,-67.396 231.303,-64.7367 227.406,-58.9216"/>
</g>
</g>
</svg>
