<?xml version="1.0" encoding="UTF-8" standalone="no"?>
<!DOCTYPE svg PUBLIC "-//W3C//DTD SVG 1.1//EN"
 "http://www.w3.org/Graphics/SVG/1.1/DTD/svg11.dtd">
<!-- Generated by graphviz version 2.38.0 (20140413.2041)
 -->
<!-- Title: src/hal/x4m0x_s70/libraries/libusb/include/CDCMSDDriver.h Pages: 1 -->
<svg width="422pt" height="207pt"
 viewBox="0.00 0.00 422.05 207.00" xmlns="http://www.w3.org/2000/svg" xmlns:xlink="http://www.w3.org/1999/xlink">
<g id="graph0" class="graph" transform="scale(1 1) rotate(0) translate(4 203)">
<title>src/hal/x4m0x_s70/libraries/libusb/include/CDCMSDDriver.h</title>
<polygon fill="white" stroke="none" points="-4,4 -4,-203 418.051,-203 418.051,4 -4,4"/>
<!-- Node0 -->
<g id="node1" class="node"><title>Node0</title>
<polygon fill="#bfbfbf" stroke="black" points="145.551,-168.5 145.551,-198.5 312.551,-198.5 312.551,-168.5 145.551,-168.5"/>
<text text-anchor="start" x="153.551" y="-186.5" font-family="Helvetica,sans-Serif" font-size="10.00">src/hal/x4m0x_s70/libraries</text>
<text text-anchor="middle" x="229.051" y="-175.5" font-family="Helvetica,sans-Serif" font-size="10.00">/libusb/include/CDCMSDDriver.h</text>
</g>
<!-- Node1 -->
<g id="node2" class="node"><title>Node1</title>
<g id="a_node2"><a xlink:href="_u_s_b_requests_8h.xhtml" target="_top" xlink:title="USBRequests.h">
<polygon fill="white" stroke="red" points="236.051,-0.5 236.051,-19.5 326.051,-19.5 326.051,-0.5 236.051,-0.5"/>
<text text-anchor="middle" x="281.051" y="-7.5" font-family="Helvetica,sans-Serif" font-size="10.00">USBRequests.h</text>
</a>
</g>
</g>
<!-- Node0&#45;&gt;Node1 -->
<g id="edge1" class="edge"><title>Node0&#45;&gt;Node1</title>
<path fill="none" stroke="midnightblue" d="M145.502,-174.578C89.0987,-167.302 21.8139,-154.191 4.05143,-132 -1.50325,-125.06 -1.04493,-119.283 4.05143,-112 54.1252,-40.4434 160.498,-19.4053 225.881,-13.3315"/>
<polygon fill="midnightblue" stroke="midnightblue" points="226.336,-16.8057 236.008,-12.4798 225.749,-9.83032 226.336,-16.8057"/>
</g>
<!-- Node3 -->
<g id="node3" class="node"><title>Node3</title>
<g id="a_node3"><a xlink:href="_c_d_c_descriptors_8h.xhtml" target="_top" xlink:title="Definitions and classes for USB CDC class descriptors. ">
<polygon fill="white" stroke="red" points="13.5514,-112.5 13.5514,-131.5 114.551,-131.5 114.551,-112.5 13.5514,-112.5"/>
<text text-anchor="middle" x="64.0514" y="-119.5" font-family="Helvetica,sans-Serif" font-size="10.00">CDCDescriptors.h</text>
</a>
</g>
</g>
<!-- Node0&#45;&gt;Node3 -->
<g id="edge2" class="edge"><title>Node0&#45;&gt;Node3</title>
<path fill="none" stroke="midnightblue" d="M189.949,-168.399C161.894,-158.283 124.479,-144.791 97.7427,-135.149"/>
<polygon fill="midnightblue" stroke="midnightblue" points="98.6548,-131.758 88.0604,-131.658 96.2801,-138.343 98.6548,-131.758"/>
</g>
<!-- Node4 -->
<g id="node4" class="node"><title>Node4</title>
<g id="a_node4"><a xlink:href="_m_s_descriptors_8h.xhtml" target="_top" xlink:title="MSDescriptors.h">
<polygon fill="white" stroke="black" points="132.551,-112.5 132.551,-131.5 227.551,-131.5 227.551,-112.5 132.551,-112.5"/>
<text text-anchor="middle" x="180.051" y="-119.5" font-family="Helvetica,sans-Serif" font-size="10.00">MSDescriptors.h</text>
</a>
</g>
</g>
<!-- Node0&#45;&gt;Node4 -->
<g id="edge3" class="edge"><title>Node0&#45;&gt;Node4</title>
<path fill="none" stroke="midnightblue" d="M217.439,-168.399C210.319,-159.753 201.168,-148.642 193.702,-139.576"/>
<polygon fill="midnightblue" stroke="midnightblue" points="196.24,-137.152 187.181,-131.658 190.837,-141.602 196.24,-137.152"/>
</g>
<!-- Node5 -->
<g id="node5" class="node"><title>Node5</title>
<g id="a_node5"><a xlink:href="_m_s_d_lun_8h.xhtml" target="_top" xlink:title="MSDLun.h">
<polygon fill="white" stroke="red" points="245.551,-112.5 245.551,-131.5 310.551,-131.5 310.551,-112.5 245.551,-112.5"/>
<text text-anchor="middle" x="278.051" y="-119.5" font-family="Helvetica,sans-Serif" font-size="10.00">MSDLun.h</text>
</a>
</g>
</g>
<!-- Node0&#45;&gt;Node5 -->
<g id="edge4" class="edge"><title>Node0&#45;&gt;Node5</title>
<path fill="none" stroke="midnightblue" d="M240.664,-168.399C247.784,-159.753 256.935,-148.642 264.401,-139.576"/>
<polygon fill="midnightblue" stroke="midnightblue" points="267.266,-141.602 270.921,-131.658 261.863,-137.152 267.266,-141.602"/>
</g>
<!-- Node8 -->
<g id="node6" class="node"><title>Node8</title>
<g id="a_node6"><a xlink:href="_u_s_b_d_8h.xhtml" target="_top" xlink:title="USBD.h">
<polygon fill="white" stroke="red" points="254.051,-56.5 254.051,-75.5 308.051,-75.5 308.051,-56.5 254.051,-56.5"/>
<text text-anchor="middle" x="281.051" y="-63.5" font-family="Helvetica,sans-Serif" font-size="10.00">USBD.h</text>
</a>
</g>
</g>
<!-- Node0&#45;&gt;Node8 -->
<g id="edge7" class="edge"><title>Node0&#45;&gt;Node8</title>
<path fill="none" stroke="midnightblue" d="M274.236,-168.339C291.402,-160.509 309.183,-148.853 319.051,-132 328.935,-115.121 314.282,-95.767 300.399,-82.5977"/>
<polygon fill="midnightblue" stroke="midnightblue" points="302.317,-79.6219 292.506,-75.6239 297.683,-84.8679 302.317,-79.6219"/>
</g>
<!-- Node16 -->
<g id="node7" class="node"><title>Node16</title>
<g id="a_node7"><a xlink:href="_u_s_b_d_driver_8h.xhtml" target="_top" xlink:title="USBDDriver.h">
<polygon fill="white" stroke="red" points="332.051,-56.5 332.051,-75.5 414.051,-75.5 414.051,-56.5 332.051,-56.5"/>
<text text-anchor="middle" x="373.051" y="-63.5" font-family="Helvetica,sans-Serif" font-size="10.00">USBDDriver.h</text>
</a>
</g>
</g>
<!-- Node0&#45;&gt;Node16 -->
<g id="edge8" class="edge"><title>Node0&#45;&gt;Node16</title>
<path fill="none" stroke="midnightblue" d="M272.81,-168.486C293.435,-160.277 317.34,-148.276 335.051,-132 349.302,-118.904 359.78,-99.2136 366.082,-84.9374"/>
<polygon fill="midnightblue" stroke="midnightblue" points="369.327,-86.2485 369.927,-75.6707 362.862,-83.5657 369.327,-86.2485"/>
</g>
<!-- Node5&#45;&gt;Node8 -->
<g id="edge5" class="edge"><title>Node5&#45;&gt;Node8</title>
<path fill="none" stroke="midnightblue" d="M278.547,-112.083C278.94,-105.006 279.504,-94.8611 279.997,-85.9865"/>
<polygon fill="midnightblue" stroke="midnightblue" points="283.505,-85.9299 280.565,-75.7511 276.516,-85.5415 283.505,-85.9299"/>
</g>
<!-- Node8&#45;&gt;Node1 -->
<g id="edge6" class="edge"><title>Node8&#45;&gt;Node1</title>
<path fill="none" stroke="midnightblue" d="M281.051,-56.083C281.051,-49.0059 281.051,-38.8611 281.051,-29.9865"/>
<polygon fill="midnightblue" stroke="midnightblue" points="284.552,-29.751 281.051,-19.7511 277.552,-29.7511 284.552,-29.751"/>
</g>
<!-- Node16&#45;&gt;Node1 -->
<g id="edge9" class="edge"><title>Node16&#45;&gt;Node1</title>
<path fill="none" stroke="midnightblue" d="M358.27,-56.324C343.784,-47.8215 321.478,-34.7288 304.558,-24.7975"/>
<polygon fill="midnightblue" stroke="midnightblue" points="306.192,-21.6981 295.796,-19.6545 302.649,-27.735 306.192,-21.6981"/>
</g>
</g>
</svg>
