<?xml version="1.0" encoding="UTF-8" standalone="no"?>
<!DOCTYPE svg PUBLIC "-//W3C//DTD SVG 1.1//EN"
 "http://www.w3.org/Graphics/SVG/1.1/DTD/svg11.dtd">
<!-- Generated by graphviz version 2.38.0 (20140413.2041)
 -->
<!-- Title: src/hal/x4m0x_s70/libraries/libusb/device/cdc&#45;serial/CDCDSerialPort.c Pages: 1 -->
<svg width="400pt" height="106pt"
 viewBox="0.00 0.00 400.00 106.00" xmlns="http://www.w3.org/2000/svg" xmlns:xlink="http://www.w3.org/1999/xlink">
<g id="graph0" class="graph" transform="scale(1 1) rotate(0) translate(4 102)">
<title>src/hal/x4m0x_s70/libraries/libusb/device/cdc&#45;serial/CDCDSerialPort.c</title>
<polygon fill="white" stroke="none" points="-4,4 -4,-102 396,-102 396,4 -4,4"/>
<!-- Node0 -->
<g id="node1" class="node"><title>Node0</title>
<polygon fill="#bfbfbf" stroke="black" points="153.5,-56.5 153.5,-97.5 299.5,-97.5 299.5,-56.5 153.5,-56.5"/>
<text text-anchor="start" x="161.5" y="-85.5" font-family="Helvetica,sans-Serif" font-size="10.00">src/hal/x4m0x_s70/libraries</text>
<text text-anchor="start" x="161.5" y="-74.5" font-family="Helvetica,sans-Serif" font-size="10.00">/libusb/device/cdc&#45;serial</text>
<text text-anchor="middle" x="226.5" y="-63.5" font-family="Helvetica,sans-Serif" font-size="10.00">/CDCDSerialPort.c</text>
</g>
<!-- Node1 -->
<g id="node2" class="node"><title>Node1</title>
<g id="a_node2"><a xlink:href="_c_d_c_d_serial_port_8h.xhtml" target="_top" xlink:title="Definition of a class for implementing a USB device CDC serial port function. ">
<polygon fill="white" stroke="red" points="0,-0.5 0,-19.5 101,-19.5 101,-0.5 0,-0.5"/>
<text text-anchor="middle" x="50.5" y="-7.5" font-family="Helvetica,sans-Serif" font-size="10.00">CDCDSerialPort.h</text>
</a>
</g>
</g>
<!-- Node0&#45;&gt;Node1 -->
<g id="edge1" class="edge"><title>Node0&#45;&gt;Node1</title>
<path fill="none" stroke="midnightblue" d="M173.694,-56.4979C144.375,-45.6697 108.815,-32.5369 83.4515,-23.1696"/>
<polygon fill="midnightblue" stroke="midnightblue" points="84.5216,-19.8338 73.9283,-19.6525 82.0964,-26.4003 84.5216,-19.8338"/>
</g>
<!-- Node15 -->
<g id="node3" class="node"><title>Node15</title>
<g id="a_node3"><a xlink:href="_c_d_c_descriptors_8h.xhtml" target="_top" xlink:title="Definitions and classes for USB CDC class descriptors. ">
<polygon fill="white" stroke="red" points="119,-0.5 119,-19.5 220,-19.5 220,-0.5 119,-0.5"/>
<text text-anchor="middle" x="169.5" y="-7.5" font-family="Helvetica,sans-Serif" font-size="10.00">CDCDescriptors.h</text>
</a>
</g>
</g>
<!-- Node0&#45;&gt;Node15 -->
<g id="edge2" class="edge"><title>Node0&#45;&gt;Node15</title>
<path fill="none" stroke="midnightblue" d="M209.398,-56.4979C201.247,-47.2029 191.607,-36.2097 183.845,-27.3579"/>
<polygon fill="midnightblue" stroke="midnightblue" points="186.312,-24.8635 177.088,-19.6525 181.049,-29.4788 186.312,-24.8635"/>
</g>
<!-- Node16 -->
<g id="node4" class="node"><title>Node16</title>
<g id="a_node4"><a xlink:href="_u_s_b_lib___trace_8h.xhtml" target="_top" xlink:title="USBLib_Trace.h">
<polygon fill="white" stroke="red" points="238.5,-0.5 238.5,-19.5 328.5,-19.5 328.5,-0.5 238.5,-0.5"/>
<text text-anchor="middle" x="283.5" y="-7.5" font-family="Helvetica,sans-Serif" font-size="10.00">USBLib_Trace.h</text>
</a>
</g>
</g>
<!-- Node0&#45;&gt;Node16 -->
<g id="edge3" class="edge"><title>Node0&#45;&gt;Node16</title>
<path fill="none" stroke="midnightblue" d="M243.602,-56.4979C251.753,-47.2029 261.393,-36.2097 269.155,-27.3579"/>
<polygon fill="midnightblue" stroke="midnightblue" points="271.951,-29.4788 275.912,-19.6525 266.688,-24.8635 271.951,-29.4788"/>
</g>
<!-- Node17 -->
<g id="node5" class="node"><title>Node17</title>
<g id="a_node5"><a xlink:href="chip_8h.xhtml" target="_top" xlink:title="chip.h">
<polygon fill="white" stroke="red" points="347,-0.5 347,-19.5 392,-19.5 392,-0.5 347,-0.5"/>
<text text-anchor="middle" x="369.5" y="-7.5" font-family="Helvetica,sans-Serif" font-size="10.00">chip.h</text>
</a>
</g>
</g>
<!-- Node0&#45;&gt;Node17 -->
<g id="edge4" class="edge"><title>Node0&#45;&gt;Node17</title>
<path fill="none" stroke="midnightblue" d="M269.405,-56.4979C292.7,-45.9093 320.843,-33.1169 341.347,-23.7968"/>
<polygon fill="midnightblue" stroke="midnightblue" points="342.809,-26.9769 350.465,-19.6525 339.913,-20.6043 342.809,-26.9769"/>
</g>
</g>
</svg>
