<?xml version="1.0" encoding="UTF-8" standalone="no"?>
<!DOCTYPE svg PUBLIC "-//W3C//DTD SVG 1.1//EN"
 "http://www.w3.org/Graphics/SVG/1.1/DTD/svg11.dtd">
<!-- Generated by graphviz version 2.38.0 (20140413.2041)
 -->
<!-- Title: src/hal/x4m0x_s70/libraries/libusb/include/CDCDSerial.h Pages: 1 -->
<svg width="265pt" height="263pt"
 viewBox="0.00 0.00 264.79 263.00" xmlns="http://www.w3.org/2000/svg" xmlns:xlink="http://www.w3.org/1999/xlink">
<g id="graph0" class="graph" transform="scale(1 1) rotate(0) translate(4 259)">
<title>src/hal/x4m0x_s70/libraries/libusb/include/CDCDSerial.h</title>
<polygon fill="white" stroke="none" points="-4,4 -4,-259 260.791,-259 260.791,4 -4,4"/>
<!-- Node0 -->
<g id="node1" class="node"><title>Node0</title>
<polygon fill="#bfbfbf" stroke="black" points="32.7906,-224.5 32.7906,-254.5 184.791,-254.5 184.791,-224.5 32.7906,-224.5"/>
<text text-anchor="start" x="40.7906" y="-242.5" font-family="Helvetica,sans-Serif" font-size="10.00">src/hal/x4m0x_s70/libraries</text>
<text text-anchor="middle" x="108.791" y="-231.5" font-family="Helvetica,sans-Serif" font-size="10.00">/libusb/include/CDCDSerial.h</text>
</g>
<!-- Node1 -->
<g id="node2" class="node"><title>Node1</title>
<polygon fill="white" stroke="#bfbfbf" points="79.2906,-0.5 79.2906,-19.5 132.291,-19.5 132.291,-0.5 79.2906,-0.5"/>
<text text-anchor="middle" x="105.791" y="-7.5" font-family="Helvetica,sans-Serif" font-size="10.00">stdint.h</text>
</g>
<!-- Node0&#45;&gt;Node1 -->
<g id="edge1" class="edge"><title>Node0&#45;&gt;Node1</title>
<path fill="none" stroke="midnightblue" d="M56.8766,-224.44C38.7515,-216.765 20.3217,-205.194 9.79063,-188 -25.8758,-129.768 48.783,-57.3469 86.167,-26.2957"/>
<polygon fill="midnightblue" stroke="midnightblue" points="88.7974,-28.669 94.3633,-19.6539 84.3904,-23.2305 88.7974,-28.669"/>
</g>
<!-- Node2 -->
<g id="node3" class="node"><title>Node2</title>
<g id="a_node3"><a xlink:href="_u_s_b_requests_8h.xhtml" target="_top" xlink:title="USBRequests.h">
<polygon fill="white" stroke="black" points="97.7906,-56.5 97.7906,-75.5 187.791,-75.5 187.791,-56.5 97.7906,-56.5"/>
<text text-anchor="middle" x="142.791" y="-63.5" font-family="Helvetica,sans-Serif" font-size="10.00">USBRequests.h</text>
</a>
</g>
</g>
<!-- Node0&#45;&gt;Node2 -->
<g id="edge2" class="edge"><title>Node0&#45;&gt;Node2</title>
<path fill="none" stroke="midnightblue" d="M115.6,-224.247C120.056,-214.31 125.62,-200.621 128.791,-188 137.691,-152.573 140.954,-109.865 142.136,-85.8315"/>
<polygon fill="midnightblue" stroke="midnightblue" points="145.641,-85.7852 142.564,-75.6469 138.647,-85.4911 145.641,-85.7852"/>
</g>
<!-- Node3 -->
<g id="node4" class="node"><title>Node3</title>
<g id="a_node4"><a xlink:href="_u_s_b_d_driver_8h.xhtml" target="_top" xlink:title="USBDDriver.h">
<polygon fill="white" stroke="red" points="174.791,-112.5 174.791,-131.5 256.791,-131.5 256.791,-112.5 174.791,-112.5"/>
<text text-anchor="middle" x="215.791" y="-119.5" font-family="Helvetica,sans-Serif" font-size="10.00">USBDDriver.h</text>
</a>
</g>
</g>
<!-- Node0&#45;&gt;Node3 -->
<g id="edge4" class="edge"><title>Node0&#45;&gt;Node3</title>
<path fill="none" stroke="midnightblue" d="M124.925,-224.453C135.951,-214.607 150.698,-200.943 162.791,-188 177.329,-172.44 192.554,-153.444 202.936,-140.017"/>
<polygon fill="midnightblue" stroke="midnightblue" points="205.986,-141.79 209.282,-131.721 200.426,-137.537 205.986,-141.79"/>
</g>
<!-- Node11 -->
<g id="node5" class="node"><title>Node11</title>
<g id="a_node5"><a xlink:href="_c_d_c_d_serial_port_8h.xhtml" target="_top" xlink:title="Definition of a class for implementing a USB device CDC serial port function. ">
<polygon fill="white" stroke="red" points="19.2906,-168.5 19.2906,-187.5 120.291,-187.5 120.291,-168.5 19.2906,-168.5"/>
<text text-anchor="middle" x="69.7906" y="-175.5" font-family="Helvetica,sans-Serif" font-size="10.00">CDCDSerialPort.h</text>
</a>
</g>
</g>
<!-- Node0&#45;&gt;Node11 -->
<g id="edge7" class="edge"><title>Node0&#45;&gt;Node11</title>
<path fill="none" stroke="midnightblue" d="M99.5482,-224.399C93.9979,-215.932 86.8976,-205.099 81.0248,-196.139"/>
<polygon fill="midnightblue" stroke="midnightblue" points="83.8747,-194.103 75.4655,-187.658 78.0203,-197.94 83.8747,-194.103"/>
</g>
<!-- Node2&#45;&gt;Node1 -->
<g id="edge3" class="edge"><title>Node2&#45;&gt;Node1</title>
<path fill="none" stroke="midnightblue" d="M136.681,-56.083C131.508,-48.5341 123.944,-37.4948 117.596,-28.2298"/>
<polygon fill="midnightblue" stroke="midnightblue" points="120.326,-26.0221 111.787,-19.7511 114.552,-29.9787 120.326,-26.0221"/>
</g>
<!-- Node3&#45;&gt;Node1 -->
<g id="edge5" class="edge"><title>Node3&#45;&gt;Node1</title>
<path fill="none" stroke="midnightblue" d="M215.426,-112.4C214.426,-98.9019 210.693,-72.5739 196.791,-56 182.708,-39.2118 160.841,-28.1164 142.072,-21.144"/>
<polygon fill="midnightblue" stroke="midnightblue" points="143.191,-17.8279 132.596,-17.8654 140.902,-24.443 143.191,-17.8279"/>
</g>
<!-- Node3&#45;&gt;Node2 -->
<g id="edge6" class="edge"><title>Node3&#45;&gt;Node2</title>
<path fill="none" stroke="midnightblue" d="M204.062,-112.324C192.953,-104.107 176.048,-91.6017 162.807,-81.8069"/>
<polygon fill="midnightblue" stroke="midnightblue" points="164.854,-78.9671 154.733,-75.8339 160.691,-84.5948 164.854,-78.9671"/>
</g>
<!-- Node11&#45;&gt;Node1 -->
<g id="edge8" class="edge"><title>Node11&#45;&gt;Node1</title>
<path fill="none" stroke="midnightblue" d="M70.532,-168.366C72.3833,-148.348 77.8655,-97.3215 88.7906,-56 91.1655,-47.0177 94.6867,-37.344 97.9095,-29.2761"/>
<polygon fill="midnightblue" stroke="midnightblue" points="101.247,-30.3659 101.853,-19.7884 94.7828,-27.6794 101.247,-30.3659"/>
</g>
<!-- Node11&#45;&gt;Node2 -->
<g id="edge9" class="edge"><title>Node11&#45;&gt;Node2</title>
<path fill="none" stroke="midnightblue" d="M75.5188,-168.368C87.5659,-150.215 115.713,-107.802 131.515,-83.9902"/>
<polygon fill="midnightblue" stroke="midnightblue" points="134.476,-85.8589 137.089,-75.5914 128.643,-81.9882 134.476,-85.8589"/>
</g>
<!-- Node11&#45;&gt;Node3 -->
<g id="edge10" class="edge"><title>Node11&#45;&gt;Node3</title>
<path fill="none" stroke="midnightblue" d="M92.9248,-168.444C117.273,-159.438 155.798,-145.189 183.214,-135.049"/>
<polygon fill="midnightblue" stroke="midnightblue" points="184.6,-138.268 192.765,-131.516 182.172,-131.703 184.6,-138.268"/>
</g>
</g>
</svg>
