<?xml version="1.0" encoding="UTF-8" standalone="no"?>
<!DOCTYPE svg PUBLIC "-//W3C//DTD SVG 1.1//EN"
 "http://www.w3.org/Graphics/SVG/1.1/DTD/svg11.dtd">
<!-- Generated by graphviz version 2.38.0 (20140413.2041)
 -->
<!-- Title: src/hal/x4m0x_s70/libraries/libusb/device/hid&#45;keyboard/HIDDKeyboardOutputReport.c Pages: 1 -->
<svg width="169pt" height="106pt"
 viewBox="0.00 0.00 169.00 106.00" xmlns="http://www.w3.org/2000/svg" xmlns:xlink="http://www.w3.org/1999/xlink">
<g id="graph0" class="graph" transform="scale(1 1) rotate(0) translate(4 102)">
<title>src/hal/x4m0x_s70/libraries/libusb/device/hid&#45;keyboard/HIDDKeyboardOutputReport.c</title>
<polygon fill="white" stroke="none" points="-4,4 -4,-102 165,-102 165,4 -4,4"/>
<!-- Node0 -->
<g id="node1" class="node"><title>Node0</title>
<polygon fill="#bfbfbf" stroke="black" points="0,-56.5 0,-97.5 161,-97.5 161,-56.5 0,-56.5"/>
<text text-anchor="start" x="8" y="-85.5" font-family="Helvetica,sans-Serif" font-size="10.00">src/hal/x4m0x_s70/libraries</text>
<text text-anchor="start" x="8" y="-74.5" font-family="Helvetica,sans-Serif" font-size="10.00">/libusb/device/hid&#45;keyboard</text>
<text text-anchor="middle" x="80.5" y="-63.5" font-family="Helvetica,sans-Serif" font-size="10.00">/HIDDKeyboardOutputReport.c</text>
</g>
<!-- Node1 -->
<g id="node2" class="node"><title>Node1</title>
<g id="a_node2"><a xlink:href="_h_i_d_d_keyboard_8h.xhtml" target="_top" xlink:title="Definition of methods for using a HID keyboard function. ">
<polygon fill="white" stroke="red" points="33,-0.5 33,-19.5 128,-19.5 128,-0.5 33,-0.5"/>
<text text-anchor="middle" x="80.5" y="-7.5" font-family="Helvetica,sans-Serif" font-size="10.00">HIDDKeyboard.h</text>
</a>
</g>
</g>
<!-- Node0&#45;&gt;Node1 -->
<g id="edge1" class="edge"><title>Node0&#45;&gt;Node1</title>
<path fill="none" stroke="midnightblue" d="M80.5,-56.4979C80.5,-48.0653 80.5,-38.2351 80.5,-29.874"/>
<polygon fill="midnightblue" stroke="midnightblue" points="84.0001,-29.6525 80.5,-19.6525 77.0001,-29.6525 84.0001,-29.6525"/>
</g>
</g>
</svg>
