<?xml version="1.0" encoding="UTF-8" standalone="no"?>
<!DOCTYPE svg PUBLIC "-//W3C//DTD SVG 1.1//EN"
 "http://www.w3.org/Graphics/SVG/1.1/DTD/svg11.dtd">
<!-- Generated by graphviz version 2.38.0 (20140413.2041)
 -->
<!-- Title: src/hal/x4m0x_s70/libraries/libusb/include/HIDDescriptors.h Pages: 1 -->
<svg width="229pt" height="151pt"
 viewBox="0.00 0.00 228.50 151.00" xmlns="http://www.w3.org/2000/svg" xmlns:xlink="http://www.w3.org/1999/xlink">
<g id="graph0" class="graph" transform="scale(1 1) rotate(0) translate(4 147)">
<title>src/hal/x4m0x_s70/libraries/libusb/include/HIDDescriptors.h</title>
<polygon fill="white" stroke="none" points="-4,4 -4,-147 224.5,-147 224.5,4 -4,4"/>
<!-- Node0 -->
<g id="node1" class="node"><title>Node0</title>
<polygon fill="#bfbfbf" stroke="black" points="-1.42109e-14,-112.5 -1.42109e-14,-142.5 168,-142.5 168,-112.5 -1.42109e-14,-112.5"/>
<text text-anchor="start" x="8" y="-130.5" font-family="Helvetica,sans-Serif" font-size="10.00">src/hal/x4m0x_s70/libraries</text>
<text text-anchor="middle" x="84" y="-119.5" font-family="Helvetica,sans-Serif" font-size="10.00">/libusb/include/HIDDescriptors.h</text>
</g>
<!-- Node1 -->
<g id="node2" class="node"><title>Node1</title>
<polygon fill="white" stroke="#bfbfbf" points="57.5,-0.5 57.5,-19.5 110.5,-19.5 110.5,-0.5 57.5,-0.5"/>
<text text-anchor="middle" x="84" y="-7.5" font-family="Helvetica,sans-Serif" font-size="10.00">stdint.h</text>
</g>
<!-- Node0&#45;&gt;Node1 -->
<g id="edge1" class="edge"><title>Node0&#45;&gt;Node1</title>
<path fill="none" stroke="midnightblue" d="M64.8014,-112.454C54.1196,-103.397 41.8328,-90.6029 36,-76 32.7028,-67.7452 32.4664,-64.1564 36,-56 41.2681,-43.8399 51.6195,-33.4594 61.3648,-25.7429"/>
<polygon fill="midnightblue" stroke="midnightblue" points="63.644,-28.4116 69.6299,-19.6698 59.499,-22.7707 63.644,-28.4116"/>
</g>
<!-- Node2 -->
<g id="node3" class="node"><title>Node2</title>
<g id="a_node3"><a xlink:href="_h_i_d_reports_8h.xhtml" target="_top" xlink:title="HIDReports.h">
<polygon fill="white" stroke="black" points="44.5,-56.5 44.5,-75.5 123.5,-75.5 123.5,-56.5 44.5,-56.5"/>
<text text-anchor="middle" x="84" y="-63.5" font-family="Helvetica,sans-Serif" font-size="10.00">HIDReports.h</text>
</a>
</g>
</g>
<!-- Node0&#45;&gt;Node2 -->
<g id="edge2" class="edge"><title>Node0&#45;&gt;Node2</title>
<path fill="none" stroke="midnightblue" d="M84,-112.399C84,-104.466 84,-94.458 84,-85.8583"/>
<polygon fill="midnightblue" stroke="midnightblue" points="87.5001,-85.6577 84,-75.6578 80.5001,-85.6578 87.5001,-85.6577"/>
</g>
<!-- Node3 -->
<g id="node4" class="node"><title>Node3</title>
<g id="a_node4"><a xlink:href="_h_i_d_usages_8h.xhtml" target="_top" xlink:title="HIDUsages.h">
<polygon fill="white" stroke="black" points="141.5,-56.5 141.5,-75.5 220.5,-75.5 220.5,-56.5 141.5,-56.5"/>
<text text-anchor="middle" x="181" y="-63.5" font-family="Helvetica,sans-Serif" font-size="10.00">HIDUsages.h</text>
</a>
</g>
</g>
<!-- Node0&#45;&gt;Node3 -->
<g id="edge4" class="edge"><title>Node0&#45;&gt;Node3</title>
<path fill="none" stroke="midnightblue" d="M106.988,-112.399C122.391,-102.951 142.593,-90.5589 157.999,-81.1089"/>
<polygon fill="midnightblue" stroke="midnightblue" points="160.192,-83.87 166.886,-75.6578 156.531,-77.9031 160.192,-83.87"/>
</g>
<!-- Node2&#45;&gt;Node1 -->
<g id="edge3" class="edge"><title>Node2&#45;&gt;Node1</title>
<path fill="none" stroke="midnightblue" d="M84,-56.083C84,-49.0059 84,-38.8611 84,-29.9865"/>
<polygon fill="midnightblue" stroke="midnightblue" points="87.5001,-29.751 84,-19.7511 80.5001,-29.7511 87.5001,-29.751"/>
</g>
<!-- Node3&#45;&gt;Node1 -->
<g id="edge5" class="edge"><title>Node3&#45;&gt;Node1</title>
<path fill="none" stroke="midnightblue" d="M165.415,-56.324C150.001,-47.7428 126.188,-34.486 108.29,-24.5224"/>
<polygon fill="midnightblue" stroke="midnightblue" points="109.986,-21.4606 99.5461,-19.6545 106.581,-27.5767 109.986,-21.4606"/>
</g>
</g>
</svg>
