<?xml version="1.0" encoding="UTF-8" standalone="no"?>
<!DOCTYPE svg PUBLIC "-//W3C//DTD SVG 1.1//EN"
 "http://www.w3.org/Graphics/SVG/1.1/DTD/svg11.dtd">
<!-- Generated by graphviz version 2.38.0 (20140413.2041)
 -->
<!-- Title: src/hal/x4m0x_s70/libraries/libusb/include/HIDDKeyboard.h Pages: 1 -->
<svg width="1245pt" height="184pt"
 viewBox="0.00 0.00 1245.00 184.00" xmlns="http://www.w3.org/2000/svg" xmlns:xlink="http://www.w3.org/1999/xlink">
<g id="graph0" class="graph" transform="scale(1 1) rotate(0) translate(4 180)">
<title>src/hal/x4m0x_s70/libraries/libusb/include/HIDDKeyboard.h</title>
<polygon fill="white" stroke="none" points="-4,4 -4,-180 1241,-180 1241,4 -4,4"/>
<!-- Node14 -->
<g id="node1" class="node"><title>Node14</title>
<polygon fill="#bfbfbf" stroke="black" points="565.5,-145.5 565.5,-175.5 730.5,-175.5 730.5,-145.5 565.5,-145.5"/>
<text text-anchor="start" x="573.5" y="-163.5" font-family="Helvetica,sans-Serif" font-size="10.00">src/hal/x4m0x_s70/libraries</text>
<text text-anchor="middle" x="648" y="-152.5" font-family="Helvetica,sans-Serif" font-size="10.00">/libusb/include/HIDDKeyboard.h</text>
</g>
<!-- Node15 -->
<g id="node2" class="node"><title>Node15</title>
<g id="a_node2"><a xlink:href="_c_d_c_h_i_d_d_driver_8c.xhtml" target="_top" xlink:title="src/hal/x4m0x_s70/libraries\l/libusb/device/composite\l/CDCHIDDDriver.c">
<polygon fill="white" stroke="black" points="0,-67.5 0,-108.5 146,-108.5 146,-67.5 0,-67.5"/>
<text text-anchor="start" x="8" y="-96.5" font-family="Helvetica,sans-Serif" font-size="10.00">src/hal/x4m0x_s70/libraries</text>
<text text-anchor="start" x="8" y="-85.5" font-family="Helvetica,sans-Serif" font-size="10.00">/libusb/device/composite</text>
<text text-anchor="middle" x="73" y="-74.5" font-family="Helvetica,sans-Serif" font-size="10.00">/CDCHIDDDriver.c</text>
</a>
</g>
</g>
<!-- Node14&#45;&gt;Node15 -->
<g id="edge1" class="edge"><title>Node14&#45;&gt;Node15</title>
<path fill="none" stroke="midnightblue" d="M555.071,-153.797C455.574,-146.803 293.33,-132.838 155,-109 152.112,-108.502 149.175,-107.96 146.213,-107.384"/>
<polygon fill="midnightblue" stroke="midnightblue" points="554.878,-157.292 565.097,-154.493 555.363,-150.309 554.878,-157.292"/>
</g>
<!-- Node16 -->
<g id="node3" class="node"><title>Node16</title>
<g id="a_node3"><a xlink:href="_h_i_d_a_u_d_d_driver_8c.xhtml" target="_top" xlink:title="src/hal/x4m0x_s70/libraries\l/libusb/device/composite\l/HIDAUDDDriver.c">
<polygon fill="white" stroke="black" points="164,-67.5 164,-108.5 310,-108.5 310,-67.5 164,-67.5"/>
<text text-anchor="start" x="172" y="-96.5" font-family="Helvetica,sans-Serif" font-size="10.00">src/hal/x4m0x_s70/libraries</text>
<text text-anchor="start" x="172" y="-85.5" font-family="Helvetica,sans-Serif" font-size="10.00">/libusb/device/composite</text>
<text text-anchor="middle" x="237" y="-74.5" font-family="Helvetica,sans-Serif" font-size="10.00">/HIDAUDDDriver.c</text>
</a>
</g>
</g>
<!-- Node14&#45;&gt;Node16 -->
<g id="edge2" class="edge"><title>Node14&#45;&gt;Node16</title>
<path fill="none" stroke="midnightblue" d="M555.194,-147.449C489.081,-138.33 398.256,-124.717 319,-109 316.125,-108.43 313.199,-107.827 310.247,-107.199"/>
<polygon fill="midnightblue" stroke="midnightblue" points="554.793,-150.927 565.175,-148.818 555.744,-143.992 554.793,-150.927"/>
</g>
<!-- Node17 -->
<g id="node4" class="node"><title>Node17</title>
<g id="a_node4"><a xlink:href="_h_i_d_m_s_d_driver_8c.xhtml" target="_top" xlink:title="src/hal/x4m0x_s70/libraries\l/libusb/device/composite\l/HIDMSDDriver.c">
<polygon fill="white" stroke="black" points="328,-67.5 328,-108.5 474,-108.5 474,-67.5 328,-67.5"/>
<text text-anchor="start" x="336" y="-96.5" font-family="Helvetica,sans-Serif" font-size="10.00">src/hal/x4m0x_s70/libraries</text>
<text text-anchor="start" x="336" y="-85.5" font-family="Helvetica,sans-Serif" font-size="10.00">/libusb/device/composite</text>
<text text-anchor="middle" x="401" y="-74.5" font-family="Helvetica,sans-Serif" font-size="10.00">/HIDMSDDriver.c</text>
</a>
</g>
</g>
<!-- Node14&#45;&gt;Node17 -->
<g id="edge3" class="edge"><title>Node14&#45;&gt;Node17</title>
<path fill="none" stroke="midnightblue" d="M589.067,-142.679C553.178,-132.435 507.169,-119.303 469.641,-108.592"/>
<polygon fill="midnightblue" stroke="midnightblue" points="588.329,-146.108 598.905,-145.487 590.25,-139.377 588.329,-146.108"/>
</g>
<!-- Node18 -->
<g id="node5" class="node"><title>Node18</title>
<g id="a_node5"><a xlink:href="_h_i_d_d_keyboard_8c.xhtml" target="_top" xlink:title="src/hal/x4m0x_s70/libraries\l/libusb/device/hid&#45;keyboard\l/HIDDKeyboard.c">
<polygon fill="white" stroke="black" points="492,-67.5 492,-108.5 638,-108.5 638,-67.5 492,-67.5"/>
<text text-anchor="start" x="500" y="-96.5" font-family="Helvetica,sans-Serif" font-size="10.00">src/hal/x4m0x_s70/libraries</text>
<text text-anchor="start" x="500" y="-85.5" font-family="Helvetica,sans-Serif" font-size="10.00">/libusb/device/hid&#45;keyboard</text>
<text text-anchor="middle" x="565" y="-74.5" font-family="Helvetica,sans-Serif" font-size="10.00">/HIDDKeyboard.c</text>
</a>
</g>
</g>
<!-- Node14&#45;&gt;Node18 -->
<g id="edge4" class="edge"><title>Node14&#45;&gt;Node18</title>
<path fill="none" stroke="midnightblue" d="M623.461,-138.657C612.263,-129.145 599.075,-117.943 588.062,-108.588"/>
<polygon fill="midnightblue" stroke="midnightblue" points="621.316,-141.427 631.204,-145.233 625.848,-136.092 621.316,-141.427"/>
</g>
<!-- Node19 -->
<g id="node6" class="node"><title>Node19</title>
<g id="a_node6"><a xlink:href="_h_i_d_d_keyboard_input_report_8c.xhtml" target="_top" xlink:title="Implementation of the HIDDKeyboardInputReport class. ">
<polygon fill="white" stroke="black" points="656,-67.5 656,-108.5 808,-108.5 808,-67.5 656,-67.5"/>
<text text-anchor="start" x="664" y="-96.5" font-family="Helvetica,sans-Serif" font-size="10.00">src/hal/x4m0x_s70/libraries</text>
<text text-anchor="start" x="664" y="-85.5" font-family="Helvetica,sans-Serif" font-size="10.00">/libusb/device/hid&#45;keyboard</text>
<text text-anchor="middle" x="732" y="-74.5" font-family="Helvetica,sans-Serif" font-size="10.00">/HIDDKeyboardInputReport.c</text>
</a>
</g>
</g>
<!-- Node14&#45;&gt;Node19 -->
<g id="edge5" class="edge"><title>Node14&#45;&gt;Node19</title>
<path fill="none" stroke="midnightblue" d="M672.835,-138.657C684.168,-129.145 697.515,-117.943 708.661,-108.588"/>
<polygon fill="midnightblue" stroke="midnightblue" points="670.408,-136.124 664.999,-145.233 674.908,-141.485 670.408,-136.124"/>
</g>
<!-- Node20 -->
<g id="node7" class="node"><title>Node20</title>
<g id="a_node7"><a xlink:href="_h_i_d_d_keyboard_output_report_8c.xhtml" target="_top" xlink:title="Implementation of the HIDDKeyboardOutputReport class. ">
<polygon fill="white" stroke="black" points="826.5,-67.5 826.5,-108.5 987.5,-108.5 987.5,-67.5 826.5,-67.5"/>
<text text-anchor="start" x="834.5" y="-96.5" font-family="Helvetica,sans-Serif" font-size="10.00">src/hal/x4m0x_s70/libraries</text>
<text text-anchor="start" x="834.5" y="-85.5" font-family="Helvetica,sans-Serif" font-size="10.00">/libusb/device/hid&#45;keyboard</text>
<text text-anchor="middle" x="907" y="-74.5" font-family="Helvetica,sans-Serif" font-size="10.00">/HIDDKeyboardOutputReport.c</text>
</a>
</g>
</g>
<!-- Node14&#45;&gt;Node20 -->
<g id="edge6" class="edge"><title>Node14&#45;&gt;Node20</title>
<path fill="none" stroke="midnightblue" d="M709.314,-142.81C747.016,-132.548 795.505,-119.349 835.024,-108.592"/>
<polygon fill="midnightblue" stroke="midnightblue" points="708.209,-139.484 699.48,-145.487 710.048,-146.238 708.209,-139.484"/>
</g>
<!-- Node21 -->
<g id="node8" class="node"><title>Node21</title>
<g id="a_node8"><a xlink:href="_h_i_d_d_keyboard_driver_8h.xhtml" target="_top" xlink:title="src/hal/x4m0x_s70/libraries\l/libusb/include/HIDDKeyboardDriver.h">
<polygon fill="white" stroke="red" points="1005.5,-73 1005.5,-103 1198.5,-103 1198.5,-73 1005.5,-73"/>
<text text-anchor="start" x="1013.5" y="-91" font-family="Helvetica,sans-Serif" font-size="10.00">src/hal/x4m0x_s70/libraries</text>
<text text-anchor="middle" x="1102" y="-80" font-family="Helvetica,sans-Serif" font-size="10.00">/libusb/include/HIDDKeyboardDriver.h</text>
</a>
</g>
</g>
<!-- Node14&#45;&gt;Node21 -->
<g id="edge7" class="edge"><title>Node14&#45;&gt;Node21</title>
<path fill="none" stroke="midnightblue" d="M740.84,-147.211C811.262,-137.613 910.388,-123.508 997,-109 1007.89,-107.176 1019.39,-105.119 1030.63,-103.037"/>
<polygon fill="midnightblue" stroke="midnightblue" points="740.101,-143.78 730.664,-148.594 741.044,-150.716 740.101,-143.78"/>
</g>
<!-- Node24 -->
<g id="node9" class="node"><title>Node24</title>
<g id="a_node9"><a xlink:href="usb_8h.xhtml" target="_top" xlink:title="Definition of SAM9XX5&#45;EK usb library. ">
<polygon fill="white" stroke="black" points="1091,-0.5 1091,-30.5 1237,-30.5 1237,-0.5 1091,-0.5"/>
<text text-anchor="start" x="1099" y="-18.5" font-family="Helvetica,sans-Serif" font-size="10.00">src/hal/x4m0x_s70/libraries</text>
<text text-anchor="middle" x="1164" y="-7.5" font-family="Helvetica,sans-Serif" font-size="10.00">/libusb/usb.h</text>
</a>
</g>
</g>
<!-- Node14&#45;&gt;Node24 -->
<g id="edge9" class="edge"><title>Node14&#45;&gt;Node24</title>
<path fill="none" stroke="midnightblue" d="M740.926,-157.825C891.992,-154.13 1177.18,-142.723 1208,-109 1229.35,-85.6335 1199.74,-50.0411 1179.71,-30.5211"/>
<polygon fill="midnightblue" stroke="midnightblue" points="740.643,-154.331 730.73,-158.068 740.81,-161.329 740.643,-154.331"/>
</g>
<!-- Node21&#45;&gt;Node24 -->
<g id="edge8" class="edge"><title>Node21&#45;&gt;Node24</title>
<path fill="none" stroke="midnightblue" d="M1121.31,-65.0389C1131.15,-53.8562 1142.82,-40.5831 1151.47,-30.7455"/>
<polygon fill="midnightblue" stroke="midnightblue" points="1118.52,-62.9126 1114.55,-72.7333 1123.78,-67.5354 1118.52,-62.9126"/>
</g>
</g>
</svg>
