<?xml version="1.0" encoding="UTF-8" standalone="no"?>
<!DOCTYPE svg PUBLIC "-//W3C//DTD SVG 1.1//EN"
 "http://www.w3.org/Graphics/SVG/1.1/DTD/svg11.dtd">
<!-- Generated by graphviz version 2.38.0 (20140413.2041)
 -->
<!-- Title: src/hal/x4m0x_s70/libraries/libusb/include/HIDUsages.h Pages: 1 -->
<svg width="584pt" height="184pt"
 viewBox="0.00 0.00 583.50 184.00" xmlns="http://www.w3.org/2000/svg" xmlns:xlink="http://www.w3.org/1999/xlink">
<g id="graph0" class="graph" transform="scale(1 1) rotate(0) translate(4 180)">
<title>src/hal/x4m0x_s70/libraries/libusb/include/HIDUsages.h</title>
<polygon fill="white" stroke="none" points="-4,4 -4,-180 579.5,-180 579.5,4 -4,4"/>
<!-- Node2 -->
<g id="node1" class="node"><title>Node2</title>
<polygon fill="#bfbfbf" stroke="black" points="165,-145.5 165,-175.5 314,-175.5 314,-145.5 165,-145.5"/>
<text text-anchor="start" x="173" y="-163.5" font-family="Helvetica,sans-Serif" font-size="10.00">src/hal/x4m0x_s70/libraries</text>
<text text-anchor="middle" x="239.5" y="-152.5" font-family="Helvetica,sans-Serif" font-size="10.00">/libusb/include/HIDUsages.h</text>
</g>
<!-- Node3 -->
<g id="node2" class="node"><title>Node3</title>
<g id="a_node2"><a xlink:href="_h_i_d_keypad_8c.xhtml" target="_top" xlink:title="Title: HIDKeypad implementation. ">
<polygon fill="white" stroke="black" points="0,-78.5 0,-108.5 173,-108.5 173,-78.5 0,-78.5"/>
<text text-anchor="start" x="8" y="-96.5" font-family="Helvetica,sans-Serif" font-size="10.00">src/hal/x4m0x_s70/libraries</text>
<text text-anchor="middle" x="86.5" y="-85.5" font-family="Helvetica,sans-Serif" font-size="10.00">/libusb/common/hid/HIDKeypad.c</text>
</a>
</g>
</g>
<!-- Node2&#45;&gt;Node3 -->
<g id="edge1" class="edge"><title>Node2&#45;&gt;Node3</title>
<path fill="none" stroke="midnightblue" d="M196.911,-141.407C172.485,-131.029 142.275,-118.195 119.634,-108.577"/>
<polygon fill="midnightblue" stroke="midnightblue" points="195.729,-144.707 206.301,-145.396 198.466,-138.264 195.729,-144.707"/>
</g>
<!-- Node4 -->
<g id="node3" class="node"><title>Node4</title>
<g id="a_node3"><a xlink:href="_h_i_d_d_keyboard_8c.xhtml" target="_top" xlink:title="src/hal/x4m0x_s70/libraries\l/libusb/device/hid&#45;keyboard\l/HIDDKeyboard.c">
<polygon fill="white" stroke="black" points="101.5,-0.5 101.5,-41.5 247.5,-41.5 247.5,-0.5 101.5,-0.5"/>
<text text-anchor="start" x="109.5" y="-29.5" font-family="Helvetica,sans-Serif" font-size="10.00">src/hal/x4m0x_s70/libraries</text>
<text text-anchor="start" x="109.5" y="-18.5" font-family="Helvetica,sans-Serif" font-size="10.00">/libusb/device/hid&#45;keyboard</text>
<text text-anchor="middle" x="174.5" y="-7.5" font-family="Helvetica,sans-Serif" font-size="10.00">/HIDDKeyboard.c</text>
</a>
</g>
</g>
<!-- Node2&#45;&gt;Node4 -->
<g id="edge2" class="edge"><title>Node2&#45;&gt;Node4</title>
<path fill="none" stroke="midnightblue" d="M228.377,-135.97C215.796,-109.357 195.536,-66.4988 183.774,-41.6182"/>
<polygon fill="midnightblue" stroke="midnightblue" points="225.351,-137.758 232.789,-145.303 231.679,-134.766 225.351,-137.758"/>
</g>
<!-- Node5 -->
<g id="node4" class="node"><title>Node5</title>
<g id="a_node4"><a xlink:href="_h_i_d_d_keyboard_driver_8c.xhtml" target="_top" xlink:title="src/hal/x4m0x_s70/libraries\l/libusb/device/hid&#45;keyboard\l/HIDDKeyboardDriver.c">
<polygon fill="white" stroke="black" points="265.5,-0.5 265.5,-41.5 411.5,-41.5 411.5,-0.5 265.5,-0.5"/>
<text text-anchor="start" x="273.5" y="-29.5" font-family="Helvetica,sans-Serif" font-size="10.00">src/hal/x4m0x_s70/libraries</text>
<text text-anchor="start" x="273.5" y="-18.5" font-family="Helvetica,sans-Serif" font-size="10.00">/libusb/device/hid&#45;keyboard</text>
<text text-anchor="middle" x="338.5" y="-7.5" font-family="Helvetica,sans-Serif" font-size="10.00">/HIDDKeyboardDriver.c</text>
</a>
</g>
</g>
<!-- Node2&#45;&gt;Node5 -->
<g id="edge3" class="edge"><title>Node2&#45;&gt;Node5</title>
<path fill="none" stroke="midnightblue" d="M240.639,-134.943C242.474,-117.734 247.084,-94.8827 258.5,-78 268.661,-62.9726 284.304,-50.7241 299.071,-41.5567"/>
<polygon fill="midnightblue" stroke="midnightblue" points="237.118,-135.066 239.79,-145.319 244.094,-135.637 237.118,-135.066"/>
</g>
<!-- Node6 -->
<g id="node5" class="node"><title>Node6</title>
<g id="a_node5"><a xlink:href="_h_i_d_descriptors_8h.xhtml" target="_top" xlink:title="src/hal/x4m0x_s70/libraries\l/libusb/include/HIDDescriptors.h">
<polygon fill="white" stroke="red" points="267.5,-78.5 267.5,-108.5 435.5,-108.5 435.5,-78.5 267.5,-78.5"/>
<text text-anchor="start" x="275.5" y="-96.5" font-family="Helvetica,sans-Serif" font-size="10.00">src/hal/x4m0x_s70/libraries</text>
<text text-anchor="middle" x="351.5" y="-85.5" font-family="Helvetica,sans-Serif" font-size="10.00">/libusb/include/HIDDescriptors.h</text>
</a>
</g>
</g>
<!-- Node2&#45;&gt;Node6 -->
<g id="edge4" class="edge"><title>Node2&#45;&gt;Node6</title>
<path fill="none" stroke="midnightblue" d="M272.591,-140.296C290.116,-130.125 311.258,-117.855 327.245,-108.577"/>
<polygon fill="midnightblue" stroke="midnightblue" points="270.694,-137.349 263.802,-145.396 274.208,-143.404 270.694,-137.349"/>
</g>
<!-- Node13 -->
<g id="node6" class="node"><title>Node13</title>
<g id="a_node6"><a xlink:href="usb_8h.xhtml" target="_top" xlink:title="Definition of SAM9XX5&#45;EK usb library. ">
<polygon fill="white" stroke="black" points="429.5,-6 429.5,-36 575.5,-36 575.5,-6 429.5,-6"/>
<text text-anchor="start" x="437.5" y="-24" font-family="Helvetica,sans-Serif" font-size="10.00">src/hal/x4m0x_s70/libraries</text>
<text text-anchor="middle" x="502.5" y="-13" font-family="Helvetica,sans-Serif" font-size="10.00">/libusb/usb.h</text>
</a>
</g>
</g>
<!-- Node2&#45;&gt;Node13 -->
<g id="edge8" class="edge"><title>Node2&#45;&gt;Node13</title>
<path fill="none" stroke="midnightblue" d="M324.31,-152.771C363.699,-146.273 409.453,-133.608 444.5,-109 470.945,-90.4321 488.655,-55.6242 496.993,-36.1369"/>
<polygon fill="midnightblue" stroke="midnightblue" points="323.53,-149.35 314.18,-154.331 324.596,-156.268 323.53,-149.35"/>
</g>
<!-- Node6&#45;&gt;Node4 -->
<g id="edge5" class="edge"><title>Node6&#45;&gt;Node4</title>
<path fill="none" stroke="midnightblue" d="M306.726,-74.6663C281.366,-64.5655 249.609,-51.9164 223.574,-41.5464"/>
<polygon fill="midnightblue" stroke="midnightblue" points="305.521,-77.9539 316.107,-78.4027 308.112,-71.4508 305.521,-77.9539"/>
</g>
<!-- Node6&#45;&gt;Node5 -->
<g id="edge6" class="edge"><title>Node6&#45;&gt;Node5</title>
<path fill="none" stroke="midnightblue" d="M347.032,-68.269C345.426,-59.56 343.636,-49.8533 342.112,-41.5884"/>
<polygon fill="midnightblue" stroke="midnightblue" points="343.614,-69.0338 348.869,-78.2333 350.498,-67.7643 343.614,-69.0338"/>
</g>
<!-- Node6&#45;&gt;Node13 -->
<g id="edge7" class="edge"><title>Node6&#45;&gt;Node13</title>
<path fill="none" stroke="midnightblue" d="M391.06,-74.0301C416.491,-62.1564 449.019,-46.9695 472.358,-36.0729"/>
<polygon fill="midnightblue" stroke="midnightblue" points="389.275,-71.0008 381.694,-78.4027 392.236,-77.3435 389.275,-71.0008"/>
</g>
</g>
</svg>
