<?xml version="1.0" encoding="UTF-8" standalone="no"?>
<!DOCTYPE svg PUBLIC "-//W3C//DTD SVG 1.1//EN"
 "http://www.w3.org/Graphics/SVG/1.1/DTD/svg11.dtd">
<!-- Generated by graphviz version 2.38.0 (20140413.2041)
 -->
<!-- Title: src/hal/x4m0x_s70/libraries/libusb/include/HIDDTransferDriver.h Pages: 1 -->
<svg width="340pt" height="151pt"
 viewBox="0.00 0.00 339.50 151.00" xmlns="http://www.w3.org/2000/svg" xmlns:xlink="http://www.w3.org/1999/xlink">
<g id="graph0" class="graph" transform="scale(1 1) rotate(0) translate(4 147)">
<title>src/hal/x4m0x_s70/libraries/libusb/include/HIDDTransferDriver.h</title>
<polygon fill="white" stroke="none" points="-4,4 -4,-147 335.5,-147 335.5,4 -4,4"/>
<!-- Node0 -->
<g id="node1" class="node"><title>Node0</title>
<polygon fill="#bfbfbf" stroke="black" points="57.5,-112.5 57.5,-142.5 243.5,-142.5 243.5,-112.5 57.5,-112.5"/>
<text text-anchor="start" x="65.5" y="-130.5" font-family="Helvetica,sans-Serif" font-size="10.00">src/hal/x4m0x_s70/libraries</text>
<text text-anchor="middle" x="150.5" y="-119.5" font-family="Helvetica,sans-Serif" font-size="10.00">/libusb/include/HIDDTransferDriver.h</text>
</g>
<!-- Node1 -->
<g id="node2" class="node"><title>Node1</title>
<g id="a_node2"><a xlink:href="_u_s_b_descriptors_8h.xhtml" target="_top" xlink:title="USBDescriptors.h">
<polygon fill="white" stroke="red" points="0,-0.5 0,-19.5 101,-19.5 101,-0.5 0,-0.5"/>
<text text-anchor="middle" x="50.5" y="-7.5" font-family="Helvetica,sans-Serif" font-size="10.00">USBDescriptors.h</text>
</a>
</g>
</g>
<!-- Node0&#45;&gt;Node1 -->
<g id="edge1" class="edge"><title>Node0&#45;&gt;Node1</title>
<path fill="none" stroke="midnightblue" d="M65.5298,-112.399C45.5973,-104.913 26.6506,-93.473 14.5,-76 3.31469,-59.9151 18.0716,-40.0379 31.9264,-26.5294"/>
<polygon fill="midnightblue" stroke="midnightblue" points="34.3336,-29.0709 39.3602,-19.7443 29.6146,-23.9006 34.3336,-29.0709"/>
</g>
<!-- Node3 -->
<g id="node3" class="node"><title>Node3</title>
<g id="a_node3"><a xlink:href="_h_i_d_descriptors_8h.xhtml" target="_top" xlink:title="HIDDescriptors.h">
<polygon fill="white" stroke="red" points="233.5,-56.5 233.5,-75.5 331.5,-75.5 331.5,-56.5 233.5,-56.5"/>
<text text-anchor="middle" x="282.5" y="-63.5" font-family="Helvetica,sans-Serif" font-size="10.00">HIDDescriptors.h</text>
</a>
</g>
</g>
<!-- Node0&#45;&gt;Node3 -->
<g id="edge2" class="edge"><title>Node0&#45;&gt;Node3</title>
<path fill="none" stroke="midnightblue" d="M181.782,-112.399C203.732,-102.505 232.843,-89.3832 254.121,-79.7919"/>
<polygon fill="midnightblue" stroke="midnightblue" points="255.614,-82.958 263.293,-75.6578 252.738,-76.5764 255.614,-82.958"/>
</g>
<!-- Node6 -->
<g id="node4" class="node"><title>Node6</title>
<g id="a_node4"><a xlink:href="_u_s_b_requests_8h.xhtml" target="_top" xlink:title="USBRequests.h">
<polygon fill="white" stroke="red" points="119.5,-0.5 119.5,-19.5 209.5,-19.5 209.5,-0.5 119.5,-0.5"/>
<text text-anchor="middle" x="164.5" y="-7.5" font-family="Helvetica,sans-Serif" font-size="10.00">USBRequests.h</text>
</a>
</g>
</g>
<!-- Node0&#45;&gt;Node6 -->
<g id="edge3" class="edge"><title>Node0&#45;&gt;Node6</title>
<path fill="none" stroke="midnightblue" d="M164.24,-112.387C172.446,-102.934 182.103,-89.7416 186.5,-76 191.7,-59.7473 184.194,-41.3334 176.572,-28.2646"/>
<polygon fill="midnightblue" stroke="midnightblue" points="179.506,-26.3553 171.182,-19.8005 173.602,-30.1154 179.506,-26.3553"/>
</g>
<!-- Node7 -->
<g id="node5" class="node"><title>Node7</title>
<g id="a_node5"><a xlink:href="_u_s_b_d_8h.xhtml" target="_top" xlink:title="USBD.h">
<polygon fill="white" stroke="red" points="123.5,-56.5 123.5,-75.5 177.5,-75.5 177.5,-56.5 123.5,-56.5"/>
<text text-anchor="middle" x="150.5" y="-63.5" font-family="Helvetica,sans-Serif" font-size="10.00">USBD.h</text>
</a>
</g>
</g>
<!-- Node0&#45;&gt;Node7 -->
<g id="edge4" class="edge"><title>Node0&#45;&gt;Node7</title>
<path fill="none" stroke="midnightblue" d="M150.5,-112.399C150.5,-104.466 150.5,-94.458 150.5,-85.8583"/>
<polygon fill="midnightblue" stroke="midnightblue" points="154,-85.6577 150.5,-75.6578 147,-85.6578 154,-85.6577"/>
</g>
<!-- Node14 -->
<g id="node6" class="node"><title>Node14</title>
<g id="a_node6"><a xlink:href="_u_s_b_d_driver_8h.xhtml" target="_top" xlink:title="USBDDriver.h">
<polygon fill="white" stroke="red" points="23.5,-56.5 23.5,-75.5 105.5,-75.5 105.5,-56.5 23.5,-56.5"/>
<text text-anchor="middle" x="64.5" y="-63.5" font-family="Helvetica,sans-Serif" font-size="10.00">USBDDriver.h</text>
</a>
</g>
</g>
<!-- Node0&#45;&gt;Node14 -->
<g id="edge7" class="edge"><title>Node0&#45;&gt;Node14</title>
<path fill="none" stroke="midnightblue" d="M130.119,-112.399C116.592,-103.04 98.889,-90.7924 85.2804,-81.3771"/>
<polygon fill="midnightblue" stroke="midnightblue" points="87.2288,-78.4692 77.0138,-75.6578 83.246,-84.2257 87.2288,-78.4692"/>
</g>
<!-- Node7&#45;&gt;Node1 -->
<g id="edge5" class="edge"><title>Node7&#45;&gt;Node1</title>
<path fill="none" stroke="midnightblue" d="M134.433,-56.324C118.542,-47.7428 93.9926,-34.486 75.5415,-24.5224"/>
<polygon fill="midnightblue" stroke="midnightblue" points="76.989,-21.3264 66.5269,-19.6545 73.6629,-27.4857 76.989,-21.3264"/>
</g>
<!-- Node7&#45;&gt;Node6 -->
<g id="edge6" class="edge"><title>Node7&#45;&gt;Node6</title>
<path fill="none" stroke="midnightblue" d="M152.812,-56.083C154.667,-48.9272 157.335,-38.6353 159.654,-29.6911"/>
<polygon fill="midnightblue" stroke="midnightblue" points="163.109,-30.3094 162.231,-19.7511 156.334,-28.5527 163.109,-30.3094"/>
</g>
<!-- Node14&#45;&gt;Node1 -->
<g id="edge9" class="edge"><title>Node14&#45;&gt;Node1</title>
<path fill="none" stroke="midnightblue" d="M62.1882,-56.083C60.333,-48.9272 57.6647,-38.6353 55.3458,-29.6911"/>
<polygon fill="midnightblue" stroke="midnightblue" points="58.6665,-28.5527 52.7688,-19.7511 51.8905,-30.3094 58.6665,-28.5527"/>
</g>
<!-- Node14&#45;&gt;Node6 -->
<g id="edge8" class="edge"><title>Node14&#45;&gt;Node6</title>
<path fill="none" stroke="midnightblue" d="M80.5667,-56.324C96.4578,-47.7428 121.007,-34.486 139.458,-24.5224"/>
<polygon fill="midnightblue" stroke="midnightblue" points="141.337,-27.4857 148.473,-19.6545 138.011,-21.3264 141.337,-27.4857"/>
</g>
</g>
</svg>
