<?xml version="1.0" encoding="UTF-8" standalone="no"?>
<!DOCTYPE svg PUBLIC "-//W3C//DTD SVG 1.1//EN"
 "http://www.w3.org/Graphics/SVG/1.1/DTD/svg11.dtd">
<!-- Generated by graphviz version 2.38.0 (20140413.2041)
 -->
<!-- Title: src/hal/x4m0x_s70/libraries/libusb/include/HIDDFunction.h Pages: 1 -->
<svg width="974pt" height="117pt"
 viewBox="0.00 0.00 974.00 117.00" xmlns="http://www.w3.org/2000/svg" xmlns:xlink="http://www.w3.org/1999/xlink">
<g id="graph0" class="graph" transform="scale(1 1) rotate(0) translate(4 113)">
<title>src/hal/x4m0x_s70/libraries/libusb/include/HIDDFunction.h</title>
<polygon fill="white" stroke="none" points="-4,4 -4,-113 970,-113 970,4 -4,4"/>
<!-- Node16 -->
<g id="node1" class="node"><title>Node16</title>
<polygon fill="#bfbfbf" stroke="black" points="402.5,-78.5 402.5,-108.5 563.5,-108.5 563.5,-78.5 402.5,-78.5"/>
<text text-anchor="start" x="410.5" y="-96.5" font-family="Helvetica,sans-Serif" font-size="10.00">src/hal/x4m0x_s70/libraries</text>
<text text-anchor="middle" x="483" y="-85.5" font-family="Helvetica,sans-Serif" font-size="10.00">/libusb/include/HIDDFunction.h</text>
</g>
<!-- Node17 -->
<g id="node2" class="node"><title>Node17</title>
<g id="a_node2"><a xlink:href="_h_i_d_d_keyboard_8c.xhtml" target="_top" xlink:title="src/hal/x4m0x_s70/libraries\l/libusb/device/hid&#45;keyboard\l/HIDDKeyboard.c">
<polygon fill="white" stroke="black" points="0,-0.5 0,-41.5 146,-41.5 146,-0.5 0,-0.5"/>
<text text-anchor="start" x="8" y="-29.5" font-family="Helvetica,sans-Serif" font-size="10.00">src/hal/x4m0x_s70/libraries</text>
<text text-anchor="start" x="8" y="-18.5" font-family="Helvetica,sans-Serif" font-size="10.00">/libusb/device/hid&#45;keyboard</text>
<text text-anchor="middle" x="73" y="-7.5" font-family="Helvetica,sans-Serif" font-size="10.00">/HIDDKeyboard.c</text>
</a>
</g>
</g>
<!-- Node16&#45;&gt;Node17 -->
<g id="edge1" class="edge"><title>Node16&#45;&gt;Node17</title>
<path fill="none" stroke="midnightblue" d="M392.487,-80.7095C326.415,-71.582 234.823,-57.8486 155,-42 152.125,-41.4293 149.2,-40.8256 146.248,-40.1977"/>
<polygon fill="midnightblue" stroke="midnightblue" points="392.073,-84.1853 402.456,-82.0784 393.025,-77.2504 392.073,-84.1853"/>
</g>
<!-- Node18 -->
<g id="node3" class="node"><title>Node18</title>
<g id="a_node3"><a xlink:href="_h_i_d_d_keyboard_driver_8c.xhtml" target="_top" xlink:title="src/hal/x4m0x_s70/libraries\l/libusb/device/hid&#45;keyboard\l/HIDDKeyboardDriver.c">
<polygon fill="white" stroke="black" points="164,-0.5 164,-41.5 310,-41.5 310,-0.5 164,-0.5"/>
<text text-anchor="start" x="172" y="-29.5" font-family="Helvetica,sans-Serif" font-size="10.00">src/hal/x4m0x_s70/libraries</text>
<text text-anchor="start" x="172" y="-18.5" font-family="Helvetica,sans-Serif" font-size="10.00">/libusb/device/hid&#45;keyboard</text>
<text text-anchor="middle" x="237" y="-7.5" font-family="Helvetica,sans-Serif" font-size="10.00">/HIDDKeyboardDriver.c</text>
</a>
</g>
</g>
<!-- Node16&#45;&gt;Node18 -->
<g id="edge2" class="edge"><title>Node16&#45;&gt;Node18</title>
<path fill="none" stroke="midnightblue" d="M424.305,-75.679C388.562,-65.4354 342.739,-52.3032 305.363,-41.5919"/>
<polygon fill="midnightblue" stroke="midnightblue" points="423.527,-79.0967 434.104,-78.4872 425.455,-72.3676 423.527,-79.0967"/>
</g>
<!-- Node19 -->
<g id="node4" class="node"><title>Node19</title>
<g id="a_node4"><a xlink:href="_h_i_d_d_mouse_driver_8c.xhtml" target="_top" xlink:title="src/hal/x4m0x_s70/libraries\l/libusb/device/hid&#45;mouse\l/HIDDMouseDriver.c">
<polygon fill="white" stroke="black" points="328,-0.5 328,-41.5 474,-41.5 474,-0.5 328,-0.5"/>
<text text-anchor="start" x="336" y="-29.5" font-family="Helvetica,sans-Serif" font-size="10.00">src/hal/x4m0x_s70/libraries</text>
<text text-anchor="start" x="336" y="-18.5" font-family="Helvetica,sans-Serif" font-size="10.00">/libusb/device/hid&#45;mouse</text>
<text text-anchor="middle" x="401" y="-7.5" font-family="Helvetica,sans-Serif" font-size="10.00">/HIDDMouseDriver.c</text>
</a>
</g>
</g>
<!-- Node16&#45;&gt;Node19 -->
<g id="edge3" class="edge"><title>Node16&#45;&gt;Node19</title>
<path fill="none" stroke="midnightblue" d="M458.757,-71.6567C447.694,-62.1451 434.664,-50.9432 423.784,-41.5884"/>
<polygon fill="midnightblue" stroke="midnightblue" points="456.542,-74.3679 466.406,-78.2333 461.105,-69.0599 456.542,-74.3679"/>
</g>
<!-- Node20 -->
<g id="node5" class="node"><title>Node20</title>
<g id="a_node5"><a xlink:href="_h_i_d_d_function_8c.xhtml" target="_top" xlink:title="Implementation of the HIDDFunction class methods. ">
<polygon fill="white" stroke="black" points="492,-0.5 492,-41.5 638,-41.5 638,-0.5 492,-0.5"/>
<text text-anchor="start" x="500" y="-29.5" font-family="Helvetica,sans-Serif" font-size="10.00">src/hal/x4m0x_s70/libraries</text>
<text text-anchor="start" x="500" y="-18.5" font-family="Helvetica,sans-Serif" font-size="10.00">/libusb/device/hid&#45;transfer</text>
<text text-anchor="middle" x="565" y="-7.5" font-family="Helvetica,sans-Serif" font-size="10.00">/HIDDFunction.c</text>
</a>
</g>
</g>
<!-- Node16&#45;&gt;Node20 -->
<g id="edge4" class="edge"><title>Node16&#45;&gt;Node20</title>
<path fill="none" stroke="midnightblue" d="M507.243,-71.6567C518.306,-62.1451 531.336,-50.9432 542.216,-41.5884"/>
<polygon fill="midnightblue" stroke="midnightblue" points="504.895,-69.0599 499.594,-78.2333 509.458,-74.3679 504.895,-69.0599"/>
</g>
<!-- Node21 -->
<g id="node6" class="node"><title>Node21</title>
<g id="a_node6"><a xlink:href="_h_i_d_d_transfer_driver_8c.xhtml" target="_top" xlink:title="src/hal/x4m0x_s70/libraries\l/libusb/device/hid&#45;transfer\l/HIDDTransferDriver.c">
<polygon fill="white" stroke="black" points="656,-0.5 656,-41.5 802,-41.5 802,-0.5 656,-0.5"/>
<text text-anchor="start" x="664" y="-29.5" font-family="Helvetica,sans-Serif" font-size="10.00">src/hal/x4m0x_s70/libraries</text>
<text text-anchor="start" x="664" y="-18.5" font-family="Helvetica,sans-Serif" font-size="10.00">/libusb/device/hid&#45;transfer</text>
<text text-anchor="middle" x="729" y="-7.5" font-family="Helvetica,sans-Serif" font-size="10.00">/HIDDTransferDriver.c</text>
</a>
</g>
</g>
<!-- Node16&#45;&gt;Node21 -->
<g id="edge5" class="edge"><title>Node16&#45;&gt;Node21</title>
<path fill="none" stroke="midnightblue" d="M541.695,-75.679C577.438,-65.4354 623.261,-52.3032 660.637,-41.5919"/>
<polygon fill="midnightblue" stroke="midnightblue" points="540.545,-72.3676 531.896,-78.4872 542.473,-79.0967 540.545,-72.3676"/>
</g>
<!-- Node22 -->
<g id="node7" class="node"><title>Node22</title>
<g id="a_node7"><a xlink:href="usb_8h.xhtml" target="_top" xlink:title="Definition of SAM9XX5&#45;EK usb library. ">
<polygon fill="white" stroke="black" points="820,-6 820,-36 966,-36 966,-6 820,-6"/>
<text text-anchor="start" x="828" y="-24" font-family="Helvetica,sans-Serif" font-size="10.00">src/hal/x4m0x_s70/libraries</text>
<text text-anchor="middle" x="893" y="-13" font-family="Helvetica,sans-Serif" font-size="10.00">/libusb/usb.h</text>
</a>
</g>
</g>
<!-- Node16&#45;&gt;Node22 -->
<g id="edge6" class="edge"><title>Node16&#45;&gt;Node22</title>
<path fill="none" stroke="midnightblue" d="M573.513,-80.7095C639.585,-71.582 731.177,-57.8486 811,-42 819.911,-40.2307 829.316,-38.1453 838.452,-36.0007"/>
<polygon fill="midnightblue" stroke="midnightblue" points="572.975,-77.2504 563.544,-82.0784 573.927,-84.1853 572.975,-77.2504"/>
</g>
</g>
</svg>
