<?xml version="1.0" encoding="UTF-8" standalone="no"?>
<!DOCTYPE svg PUBLIC "-//W3C//DTD SVG 1.1//EN"
 "http://www.w3.org/Graphics/SVG/1.1/DTD/svg11.dtd">
<!-- Generated by graphviz version 2.38.0 (20140413.2041)
 -->
<!-- Title: src/hal/x4m0x_s70/libraries/libusb/device/hid&#45;mouse/HIDDMouseDriver.c Pages: 1 -->
<svg width="483pt" height="162pt"
 viewBox="0.00 0.00 483.42 162.00" xmlns="http://www.w3.org/2000/svg" xmlns:xlink="http://www.w3.org/1999/xlink">
<g id="graph0" class="graph" transform="scale(1 1) rotate(0) translate(4 158)">
<title>src/hal/x4m0x_s70/libraries/libusb/device/hid&#45;mouse/HIDDMouseDriver.c</title>
<polygon fill="white" stroke="none" points="-4,4 -4,-158 479.415,-158 479.415,4 -4,4"/>
<!-- Node0 -->
<g id="node1" class="node"><title>Node0</title>
<polygon fill="#bfbfbf" stroke="black" points="119.415,-112.5 119.415,-153.5 265.415,-153.5 265.415,-112.5 119.415,-112.5"/>
<text text-anchor="start" x="127.415" y="-141.5" font-family="Helvetica,sans-Serif" font-size="10.00">src/hal/x4m0x_s70/libraries</text>
<text text-anchor="start" x="127.415" y="-130.5" font-family="Helvetica,sans-Serif" font-size="10.00">/libusb/device/hid&#45;mouse</text>
<text text-anchor="middle" x="192.415" y="-119.5" font-family="Helvetica,sans-Serif" font-size="10.00">/HIDDMouseDriver.c</text>
</g>
<!-- Node1 -->
<g id="node2" class="node"><title>Node1</title>
<g id="a_node2"><a xlink:href="_h_i_d_d_function_8h.xhtml" target="_top" xlink:title="Definitions used for general HID support. ">
<polygon fill="white" stroke="red" points="111.415,-56.5 111.415,-75.5 201.415,-75.5 201.415,-56.5 111.415,-56.5"/>
<text text-anchor="middle" x="156.415" y="-63.5" font-family="Helvetica,sans-Serif" font-size="10.00">HIDDFunction.h</text>
</a>
</g>
</g>
<!-- Node0&#45;&gt;Node1 -->
<g id="edge1" class="edge"><title>Node0&#45;&gt;Node1</title>
<path fill="none" stroke="midnightblue" d="M181.614,-112.498C176.678,-103.586 170.878,-93.1135 166.087,-84.4636"/>
<polygon fill="midnightblue" stroke="midnightblue" points="169.114,-82.7046 161.207,-75.6525 162.991,-86.0962 169.114,-82.7046"/>
</g>
<!-- Node8 -->
<g id="node3" class="node"><title>Node8</title>
<g id="a_node3"><a xlink:href="_u_s_b_d_8h.xhtml" target="_top" xlink:title="USBD.h">
<polygon fill="white" stroke="red" points="26.4151,-0.5 26.4151,-19.5 80.4151,-19.5 80.4151,-0.5 26.4151,-0.5"/>
<text text-anchor="middle" x="53.4151" y="-7.5" font-family="Helvetica,sans-Serif" font-size="10.00">USBD.h</text>
</a>
</g>
</g>
<!-- Node0&#45;&gt;Node8 -->
<g id="edge6" class="edge"><title>Node0&#45;&gt;Node8</title>
<path fill="none" stroke="midnightblue" d="M119.368,-119.491C72.7718,-109.855 18.5624,-94.9757 4.41509,-76 -8.57859,-58.5717 11.7357,-38.6188 30.0207,-25.4683"/>
<polygon fill="midnightblue" stroke="midnightblue" points="32.365,-28.1076 38.6792,-19.5998 28.4376,-22.3131 32.365,-28.1076"/>
</g>
<!-- Node16 -->
<g id="node4" class="node"><title>Node16</title>
<g id="a_node4"><a xlink:href="_u_s_b_d_driver_8h.xhtml" target="_top" xlink:title="USBDDriver.h">
<polygon fill="white" stroke="red" points="188.415,-0.5 188.415,-19.5 270.415,-19.5 270.415,-0.5 188.415,-0.5"/>
<text text-anchor="middle" x="229.415" y="-7.5" font-family="Helvetica,sans-Serif" font-size="10.00">USBDDriver.h</text>
</a>
</g>
</g>
<!-- Node0&#45;&gt;Node16 -->
<g id="edge9" class="edge"><title>Node0&#45;&gt;Node16</title>
<path fill="none" stroke="midnightblue" d="M198.874,-112.344C202.362,-101.623 206.701,-88.1061 210.415,-76 215.211,-60.3696 220.403,-42.5403 224.145,-29.5132"/>
<polygon fill="midnightblue" stroke="midnightblue" points="227.523,-30.4306 226.908,-19.8536 220.793,-28.5058 227.523,-30.4306"/>
</g>
<!-- Node17 -->
<g id="node5" class="node"><title>Node17</title>
<g id="a_node5"><a xlink:href="_h_i_d_d_mouse_driver_8h.xhtml" target="_top" xlink:title="HIDDMouseDriver.h">
<polygon fill="white" stroke="red" points="257.415,-56.5 257.415,-75.5 367.415,-75.5 367.415,-56.5 257.415,-56.5"/>
<text text-anchor="middle" x="312.415" y="-63.5" font-family="Helvetica,sans-Serif" font-size="10.00">HIDDMouseDriver.h</text>
</a>
</g>
</g>
<!-- Node0&#45;&gt;Node17 -->
<g id="edge4" class="edge"><title>Node0&#45;&gt;Node17</title>
<path fill="none" stroke="midnightblue" d="M228.419,-112.498C247.525,-102.149 270.517,-89.6946 287.613,-80.4346"/>
<polygon fill="midnightblue" stroke="midnightblue" points="289.315,-83.4929 296.441,-75.6525 285.981,-77.3378 289.315,-83.4929"/>
</g>
<!-- Node18 -->
<g id="node6" class="node"><title>Node18</title>
<g id="a_node6"><a xlink:href="_u_s_b_d___h_a_l_8h.xhtml" target="_top" xlink:title="This file defines functions for USB Device Hardware Access Level. ">
<polygon fill="white" stroke="red" points="13.9151,-56.5 13.9151,-75.5 92.9151,-75.5 92.9151,-56.5 13.9151,-56.5"/>
<text text-anchor="middle" x="53.4151" y="-63.5" font-family="Helvetica,sans-Serif" font-size="10.00">USBD_HAL.h</text>
</a>
</g>
</g>
<!-- Node0&#45;&gt;Node18 -->
<g id="edge7" class="edge"><title>Node0&#45;&gt;Node18</title>
<path fill="none" stroke="midnightblue" d="M150.711,-112.498C128.17,-101.957 100.959,-89.2326 81.0515,-79.9235"/>
<polygon fill="midnightblue" stroke="midnightblue" points="82.4592,-76.7181 71.9181,-75.6525 79.494,-83.059 82.4592,-76.7181"/>
</g>
<!-- Node19 -->
<g id="node7" class="node"><title>Node19</title>
<g id="a_node7"><a xlink:href="_u_s_b_lib___trace_8h.xhtml" target="_top" xlink:title="USBLib_Trace.h">
<polygon fill="white" stroke="red" points="385.415,-56.5 385.415,-75.5 475.415,-75.5 475.415,-56.5 385.415,-56.5"/>
<text text-anchor="middle" x="430.415" y="-63.5" font-family="Helvetica,sans-Serif" font-size="10.00">USBLib_Trace.h</text>
</a>
</g>
</g>
<!-- Node0&#45;&gt;Node19 -->
<g id="edge10" class="edge"><title>Node0&#45;&gt;Node19</title>
<path fill="none" stroke="midnightblue" d="M263.823,-112.498C304.823,-101.3 354.848,-87.6381 389.317,-78.2242"/>
<polygon fill="midnightblue" stroke="midnightblue" points="390.322,-81.5781 399.046,-75.5671 388.478,-74.8254 390.322,-81.5781"/>
</g>
<!-- Node1&#45;&gt;Node8 -->
<g id="edge2" class="edge"><title>Node1&#45;&gt;Node8</title>
<path fill="none" stroke="midnightblue" d="M139.866,-56.324C123.423,-47.7034 97.9803,-34.3643 78.9467,-24.3855"/>
<polygon fill="midnightblue" stroke="midnightblue" points="80.4046,-21.198 69.9228,-19.6545 77.1542,-27.3977 80.4046,-21.198"/>
</g>
<!-- Node1&#45;&gt;Node16 -->
<g id="edge3" class="edge"><title>Node1&#45;&gt;Node16</title>
<path fill="none" stroke="midnightblue" d="M168.144,-56.324C179.252,-48.1066 196.157,-35.6017 209.398,-25.8069"/>
<polygon fill="midnightblue" stroke="midnightblue" points="211.515,-28.5948 217.473,-19.8339 207.352,-22.9671 211.515,-28.5948"/>
</g>
<!-- Node17&#45;&gt;Node16 -->
<g id="edge5" class="edge"><title>Node17&#45;&gt;Node16</title>
<path fill="none" stroke="midnightblue" d="M299.08,-56.324C286.253,-47.979 266.63,-35.2122 251.475,-25.3524"/>
<polygon fill="midnightblue" stroke="midnightblue" points="253.008,-22.1742 242.717,-19.6545 249.191,-28.0417 253.008,-22.1742"/>
</g>
<!-- Node18&#45;&gt;Node8 -->
<g id="edge8" class="edge"><title>Node18&#45;&gt;Node8</title>
<path fill="none" stroke="midnightblue" d="M53.4151,-56.083C53.4151,-49.0059 53.4151,-38.8611 53.4151,-29.9865"/>
<polygon fill="midnightblue" stroke="midnightblue" points="56.9152,-29.751 53.4151,-19.7511 49.9152,-29.7511 56.9152,-29.751"/>
</g>
</g>
</svg>
