<?xml version="1.0" encoding="UTF-8" standalone="no"?>
<!DOCTYPE svg PUBLIC "-//W3C//DTD SVG 1.1//EN"
 "http://www.w3.org/Graphics/SVG/1.1/DTD/svg11.dtd">
<!-- Generated by graphviz version 2.38.0 (20140413.2041)
 -->
<!-- Title: src/hal/x4m0x_s70/libraries/libusb/include/MSD.h Pages: 1 -->
<svg width="593pt" height="307pt"
 viewBox="0.00 0.00 593.00 307.00" xmlns="http://www.w3.org/2000/svg" xmlns:xlink="http://www.w3.org/1999/xlink">
<g id="graph0" class="graph" transform="scale(1 1) rotate(0) translate(4 303)">
<title>src/hal/x4m0x_s70/libraries/libusb/include/MSD.h</title>
<polygon fill="white" stroke="none" points="-4,4 -4,-303 589,-303 589,4 -4,4"/>
<!-- Node2 -->
<g id="node1" class="node"><title>Node2</title>
<polygon fill="#bfbfbf" stroke="black" points="225,-268.5 225,-298.5 371,-298.5 371,-268.5 225,-268.5"/>
<text text-anchor="start" x="233" y="-286.5" font-family="Helvetica,sans-Serif" font-size="10.00">src/hal/x4m0x_s70/libraries</text>
<text text-anchor="middle" x="298" y="-275.5" font-family="Helvetica,sans-Serif" font-size="10.00">/libusb/include/MSD.h</text>
</g>
<!-- Node3 -->
<g id="node2" class="node"><title>Node3</title>
<g id="a_node2"><a xlink:href="uhi__msc_8h.xhtml" target="_top" xlink:title="USB host driver for Mass Storage Class interface. ">
<polygon fill="white" stroke="red" points="0,-201.5 0,-231.5 146,-231.5 146,-201.5 0,-201.5"/>
<text text-anchor="start" x="8" y="-219.5" font-family="Helvetica,sans-Serif" font-size="10.00">src/hal/x4m0x_s70/libraries</text>
<text text-anchor="middle" x="73" y="-208.5" font-family="Helvetica,sans-Serif" font-size="10.00">/libusb/host/msc/uhi_msc.h</text>
</a>
</g>
</g>
<!-- Node2&#45;&gt;Node3 -->
<g id="edge1" class="edge"><title>Node2&#45;&gt;Node3</title>
<path fill="none" stroke="midnightblue" d="M239.43,-265.58C202.886,-255.022 156.396,-241.592 121.845,-231.611"/>
<polygon fill="midnightblue" stroke="midnightblue" points="238.877,-269.063 249.455,-268.476 240.82,-262.338 238.877,-269.063"/>
</g>
<!-- Node6 -->
<g id="node3" class="node"><title>Node6</title>
<g id="a_node3"><a xlink:href="_m_s_d_driver_8h.xhtml" target="_top" xlink:title="src/hal/x4m0x_s70/libraries\l/libusb/include/MSDDriver.h">
<polygon fill="white" stroke="red" points="326,-67.5 326,-97.5 472,-97.5 472,-67.5 326,-67.5"/>
<text text-anchor="start" x="334" y="-85.5" font-family="Helvetica,sans-Serif" font-size="10.00">src/hal/x4m0x_s70/libraries</text>
<text text-anchor="middle" x="399" y="-74.5" font-family="Helvetica,sans-Serif" font-size="10.00">/libusb/include/MSDDriver.h</text>
</a>
</g>
</g>
<!-- Node2&#45;&gt;Node6 -->
<g id="edge2" class="edge"><title>Node2&#45;&gt;Node6</title>
<path fill="none" stroke="midnightblue" d="M364.453,-264.128C379.666,-256.678 393.995,-246.323 403,-232 429.768,-189.424 413.436,-125.548 404.133,-97.5242"/>
<polygon fill="midnightblue" stroke="midnightblue" points="362.604,-261.121 354.906,-268.401 365.463,-267.51 362.604,-261.121"/>
</g>
<!-- Node10 -->
<g id="node4" class="node"><title>Node10</title>
<g id="a_node4"><a xlink:href="usb_8h.xhtml" target="_top" xlink:title="Definition of SAM9XX5&#45;EK usb library. ">
<polygon fill="white" stroke="black" points="275,-0.5 275,-30.5 421,-30.5 421,-0.5 275,-0.5"/>
<text text-anchor="start" x="283" y="-18.5" font-family="Helvetica,sans-Serif" font-size="10.00">src/hal/x4m0x_s70/libraries</text>
<text text-anchor="middle" x="348" y="-7.5" font-family="Helvetica,sans-Serif" font-size="10.00">/libusb/usb.h</text>
</a>
</g>
</g>
<!-- Node2&#45;&gt;Node10 -->
<g id="edge11" class="edge"><title>Node2&#45;&gt;Node10</title>
<path fill="none" stroke="midnightblue" d="M231.547,-264.128C216.334,-256.678 202.005,-246.323 193,-232 185.667,-220.336 188.329,-213.962 193,-201 220.445,-124.845 294.956,-58.4056 329.703,-30.5039"/>
<polygon fill="midnightblue" stroke="midnightblue" points="230.537,-267.51 241.094,-268.401 233.396,-261.121 230.537,-267.51"/>
</g>
<!-- Node11 -->
<g id="node5" class="node"><title>Node11</title>
<g id="a_node5"><a xlink:href="_m_s_d_d_state_machine_8h.xhtml" target="_top" xlink:title="src/hal/x4m0x_s70/libraries\l/libusb/include/MSDDStateMachine.h">
<polygon fill="white" stroke="red" points="202,-201.5 202,-231.5 394,-231.5 394,-201.5 202,-201.5"/>
<text text-anchor="start" x="210" y="-219.5" font-family="Helvetica,sans-Serif" font-size="10.00">src/hal/x4m0x_s70/libraries</text>
<text text-anchor="middle" x="298" y="-208.5" font-family="Helvetica,sans-Serif" font-size="10.00">/libusb/include/MSDDStateMachine.h</text>
</a>
</g>
</g>
<!-- Node2&#45;&gt;Node11 -->
<g id="edge4" class="edge"><title>Node2&#45;&gt;Node11</title>
<path fill="none" stroke="midnightblue" d="M298,-258.108C298,-249.154 298,-239.323 298,-231.577"/>
<polygon fill="midnightblue" stroke="midnightblue" points="294.5,-258.396 298,-268.396 301.5,-258.396 294.5,-258.396"/>
</g>
<!-- Node14 -->
<g id="node6" class="node"><title>Node14</title>
<g id="a_node6"><a xlink:href="_m_s_d_function_8h.xhtml" target="_top" xlink:title="Mass storage function driver definitions. ">
<polygon fill="white" stroke="red" points="427,-134.5 427,-164.5 585,-164.5 585,-134.5 427,-134.5"/>
<text text-anchor="start" x="435" y="-152.5" font-family="Helvetica,sans-Serif" font-size="10.00">src/hal/x4m0x_s70/libraries</text>
<text text-anchor="middle" x="506" y="-141.5" font-family="Helvetica,sans-Serif" font-size="10.00">/libusb/include/MSDFunction.h</text>
</a>
</g>
</g>
<!-- Node2&#45;&gt;Node14 -->
<g id="edge10" class="edge"><title>Node2&#45;&gt;Node14</title>
<path fill="none" stroke="midnightblue" d="M365.782,-265.331C389.286,-257.458 414.99,-246.559 436,-232 462.676,-213.515 485.427,-182.507 497.266,-164.539"/>
<polygon fill="midnightblue" stroke="midnightblue" points="364.655,-262.017 356.21,-268.414 366.801,-268.679 364.655,-262.017"/>
</g>
<!-- Node6&#45;&gt;Node10 -->
<g id="edge3" class="edge"><title>Node6&#45;&gt;Node10</title>
<path fill="none" stroke="midnightblue" d="M381.697,-59.4472C374.205,-49.8986 365.657,-39.0037 359.045,-30.5765"/>
<polygon fill="midnightblue" stroke="midnightblue" points="379.007,-61.6891 387.934,-67.396 384.514,-57.368 379.007,-61.6891"/>
</g>
<!-- Node11&#45;&gt;Node6 -->
<g id="edge5" class="edge"><title>Node11&#45;&gt;Node6</title>
<path fill="none" stroke="midnightblue" d="M315.071,-193.189C335.983,-165.859 370.779,-120.383 388.269,-97.5247"/>
<polygon fill="midnightblue" stroke="midnightblue" points="312.106,-191.305 308.809,-201.374 317.665,-195.559 312.106,-191.305"/>
</g>
<!-- Node11&#45;&gt;Node10 -->
<g id="edge9" class="edge"><title>Node11&#45;&gt;Node10</title>
<path fill="none" stroke="midnightblue" d="M298.006,-191.121C298.71,-161.094 302.224,-108.917 317,-67 321.651,-53.8048 330.11,-40.3771 337.017,-30.6879"/>
<polygon fill="midnightblue" stroke="midnightblue" points="294.507,-191.071 297.858,-201.122 301.506,-191.175 294.507,-191.071"/>
</g>
<!-- Node11&#45;&gt;Node14 -->
<g id="edge6" class="edge"><title>Node11&#45;&gt;Node14</title>
<path fill="none" stroke="midnightblue" d="M352.578,-198.444C386.295,-187.908 429.042,-174.549 460.845,-164.611"/>
<polygon fill="midnightblue" stroke="midnightblue" points="351.378,-195.152 342.877,-201.476 353.466,-201.834 351.378,-195.152"/>
</g>
<!-- Node14&#45;&gt;Node6 -->
<g id="edge7" class="edge"><title>Node14&#45;&gt;Node6</title>
<path fill="none" stroke="midnightblue" d="M473.925,-129.015C457.274,-118.9 437.306,-106.77 422.172,-97.5765"/>
<polygon fill="midnightblue" stroke="midnightblue" points="472.419,-132.195 482.783,-134.396 476.053,-126.213 472.419,-132.195"/>
</g>
<!-- Node14&#45;&gt;Node10 -->
<g id="edge8" class="edge"><title>Node14&#45;&gt;Node10</title>
<path fill="none" stroke="midnightblue" d="M504.195,-124.26C501.654,-106.377 495.564,-82.5471 481,-67 464.621,-49.5157 441.559,-38.031 419.231,-30.5095"/>
<polygon fill="midnightblue" stroke="midnightblue" points="500.724,-124.71 505.34,-134.247 507.678,-123.913 500.724,-124.71"/>
</g>
</g>
</svg>
