<?xml version="1.0" encoding="UTF-8" standalone="no"?>
<!DOCTYPE svg PUBLIC "-//W3C//DTD SVG 1.1//EN"
 "http://www.w3.org/Graphics/SVG/1.1/DTD/svg11.dtd">
<!-- Generated by graphviz version 2.38.0 (20140413.2041)
 -->
<!-- Title: src/hal/x4m0x_s70/libraries/libusb/include/MSDDriver.h Pages: 1 -->
<svg width="245pt" height="263pt"
 viewBox="0.00 0.00 245.14 263.00" xmlns="http://www.w3.org/2000/svg" xmlns:xlink="http://www.w3.org/1999/xlink">
<g id="graph0" class="graph" transform="scale(1 1) rotate(0) translate(4 259)">
<title>src/hal/x4m0x_s70/libraries/libusb/include/MSDDriver.h</title>
<polygon fill="white" stroke="none" points="-4,4 -4,-259 241.136,-259 241.136,4 -4,4"/>
<!-- Node0 -->
<g id="node1" class="node"><title>Node0</title>
<polygon fill="#bfbfbf" stroke="black" points="14.0154,-224.5 14.0154,-254.5 160.015,-254.5 160.015,-224.5 14.0154,-224.5"/>
<text text-anchor="start" x="22.0154" y="-242.5" font-family="Helvetica,sans-Serif" font-size="10.00">src/hal/x4m0x_s70/libraries</text>
<text text-anchor="middle" x="87.0154" y="-231.5" font-family="Helvetica,sans-Serif" font-size="10.00">/libusb/include/MSDDriver.h</text>
</g>
<!-- Node1 -->
<g id="node2" class="node"><title>Node1</title>
<polygon fill="white" stroke="#bfbfbf" points="111.515,-0.5 111.515,-19.5 164.515,-19.5 164.515,-0.5 111.515,-0.5"/>
<text text-anchor="middle" x="138.015" y="-7.5" font-family="Helvetica,sans-Serif" font-size="10.00">stdint.h</text>
</g>
<!-- Node0&#45;&gt;Node1 -->
<g id="edge1" class="edge"><title>Node0&#45;&gt;Node1</title>
<path fill="none" stroke="midnightblue" d="M57.9096,-224.406C43.3687,-215.871 26.8259,-203.604 17.0154,-188 -1.11823,-159.158 -4.63862,-144.014 7.01538,-112 23.1091,-67.7903 72.2542,-38.8013 105.557,-23.6576"/>
<polygon fill="midnightblue" stroke="midnightblue" points="107.144,-26.784 114.909,-19.5764 104.344,-20.3683 107.144,-26.784"/>
</g>
<!-- Node2 -->
<g id="node3" class="node"><title>Node2</title>
<g id="a_node3"><a xlink:href="_m_s_d_lun_8h.xhtml" target="_top" xlink:title="MSDLun.h">
<polygon fill="white" stroke="red" points="63.5154,-56.5 63.5154,-75.5 128.515,-75.5 128.515,-56.5 63.5154,-56.5"/>
<text text-anchor="middle" x="96.0154" y="-63.5" font-family="Helvetica,sans-Serif" font-size="10.00">MSDLun.h</text>
</a>
</g>
</g>
<!-- Node0&#45;&gt;Node2 -->
<g id="edge2" class="edge"><title>Node0&#45;&gt;Node2</title>
<path fill="none" stroke="midnightblue" d="M68.914,-224.352C41.1379,-200.852 -6.44513,-152.363 17.0154,-112 25.7516,-96.9696 41.5937,-86.5428 56.8102,-79.5405"/>
<polygon fill="midnightblue" stroke="midnightblue" points="58.2777,-82.7202 66.1346,-75.6125 55.5602,-76.2692 58.2777,-82.7202"/>
</g>
<!-- Node14 -->
<g id="node4" class="node"><title>Node14</title>
<g id="a_node4"><a xlink:href="_m_s_d_8h.xhtml" target="_top" xlink:title="MSD.h">
<polygon fill="white" stroke="black" points="157.015,-56.5 157.015,-75.5 205.015,-75.5 205.015,-56.5 157.015,-56.5"/>
<text text-anchor="middle" x="181.015" y="-63.5" font-family="Helvetica,sans-Serif" font-size="10.00">MSD.h</text>
</a>
</g>
</g>
<!-- Node0&#45;&gt;Node14 -->
<g id="edge4" class="edge"><title>Node0&#45;&gt;Node14</title>
<path fill="none" stroke="midnightblue" d="M160.04,-230.046C186.184,-223.095 213.099,-210.554 229.015,-188 252.678,-154.47 218.62,-107.626 196.821,-83.2273"/>
<polygon fill="midnightblue" stroke="midnightblue" points="199.104,-80.5419 189.737,-75.5917 193.973,-85.303 199.104,-80.5419"/>
</g>
<!-- Node15 -->
<g id="node5" class="node"><title>Node15</title>
<g id="a_node5"><a xlink:href="_m_s_d_d_state_machine_8h.xhtml" target="_top" xlink:title="MSDDStateMachine.h">
<polygon fill="white" stroke="red" points="26.0154,-112.5 26.0154,-131.5 148.015,-131.5 148.015,-112.5 26.0154,-112.5"/>
<text text-anchor="middle" x="87.0154" y="-119.5" font-family="Helvetica,sans-Serif" font-size="10.00">MSDDStateMachine.h</text>
</a>
</g>
</g>
<!-- Node0&#45;&gt;Node15 -->
<g id="edge6" class="edge"><title>Node0&#45;&gt;Node15</title>
<path fill="none" stroke="midnightblue" d="M87.0154,-224.337C87.0154,-203.622 87.0154,-165.016 87.0154,-141.899"/>
<polygon fill="midnightblue" stroke="midnightblue" points="90.5155,-141.669 87.0154,-131.669 83.5155,-141.669 90.5155,-141.669"/>
</g>
<!-- Node18 -->
<g id="node6" class="node"><title>Node18</title>
<g id="a_node6"><a xlink:href="_m_s_d_function_8h.xhtml" target="_top" xlink:title="Mass storage function driver definitions. ">
<polygon fill="white" stroke="black" points="132.015,-168.5 132.015,-187.5 220.015,-187.5 220.015,-168.5 132.015,-168.5"/>
<text text-anchor="middle" x="176.015" y="-175.5" font-family="Helvetica,sans-Serif" font-size="10.00">MSDFunction.h</text>
</a>
</g>
</g>
<!-- Node0&#45;&gt;Node18 -->
<g id="edge9" class="edge"><title>Node0&#45;&gt;Node18</title>
<path fill="none" stroke="midnightblue" d="M108.107,-224.399C122.107,-215.04 140.427,-202.792 154.51,-193.377"/>
<polygon fill="midnightblue" stroke="midnightblue" points="156.697,-196.125 163.065,-187.658 152.807,-190.306 156.697,-196.125"/>
</g>
<!-- Node2&#45;&gt;Node1 -->
<g id="edge3" class="edge"><title>Node2&#45;&gt;Node1</title>
<path fill="none" stroke="midnightblue" d="M102.951,-56.083C108.945,-48.3768 117.767,-37.0333 125.063,-27.6531"/>
<polygon fill="midnightblue" stroke="midnightblue" points="127.832,-29.7934 131.209,-19.7511 122.307,-25.4958 127.832,-29.7934"/>
</g>
<!-- Node14&#45;&gt;Node1 -->
<g id="edge5" class="edge"><title>Node14&#45;&gt;Node1</title>
<path fill="none" stroke="midnightblue" d="M173.915,-56.083C167.778,-48.3768 158.746,-37.0333 151.276,-27.6531"/>
<polygon fill="midnightblue" stroke="midnightblue" points="153.951,-25.3936 144.984,-19.7511 148.475,-29.7542 153.951,-25.3936"/>
</g>
<!-- Node15&#45;&gt;Node2 -->
<g id="edge8" class="edge"><title>Node15&#45;&gt;Node2</title>
<path fill="none" stroke="midnightblue" d="M88.5015,-112.083C89.6942,-104.927 91.4095,-94.6353 92.9002,-85.6911"/>
<polygon fill="midnightblue" stroke="midnightblue" points="96.3652,-86.1904 94.5569,-75.7511 89.4604,-85.0396 96.3652,-86.1904"/>
</g>
<!-- Node15&#45;&gt;Node14 -->
<g id="edge7" class="edge"><title>Node15&#45;&gt;Node14</title>
<path fill="none" stroke="midnightblue" d="M102.118,-112.324C116.919,-103.822 139.71,-90.7288 156.998,-80.7975"/>
<polygon fill="midnightblue" stroke="midnightblue" points="159.023,-83.6707 165.95,-75.6545 155.536,-77.6009 159.023,-83.6707"/>
</g>
<!-- Node18&#45;&gt;Node1 -->
<g id="edge10" class="edge"><title>Node18&#45;&gt;Node1</title>
<path fill="none" stroke="midnightblue" d="M183.315,-168.278C199.648,-147.638 236.042,-94.6402 214.015,-56 205.337,-40.776 189.261,-30.1766 174.122,-23.1068"/>
<polygon fill="midnightblue" stroke="midnightblue" points="175.462,-19.873 164.892,-19.1511 172.705,-26.3071 175.462,-19.873"/>
</g>
<!-- Node18&#45;&gt;Node2 -->
<g id="edge11" class="edge"><title>Node18&#45;&gt;Node2</title>
<path fill="none" stroke="midnightblue" d="M175.242,-168.243C173.703,-154.994 169.27,-129.541 157.015,-112 148.067,-99.1907 134.297,-88.5832 122.103,-80.8906"/>
<polygon fill="midnightblue" stroke="midnightblue" points="123.575,-77.6938 113.191,-75.5881 119.995,-83.7094 123.575,-77.6938"/>
</g>
<!-- Node18&#45;&gt;Node14 -->
<g id="edge12" class="edge"><title>Node18&#45;&gt;Node14</title>
<path fill="none" stroke="midnightblue" d="M179.615,-168.222C183.072,-159.285 188.049,-144.942 190.015,-132 192.372,-116.494 189.591,-98.867 186.517,-85.8849"/>
<polygon fill="midnightblue" stroke="midnightblue" points="189.801,-84.6152 183.861,-75.8421 183.034,-86.4046 189.801,-84.6152"/>
</g>
<!-- Node18&#45;&gt;Node15 -->
<g id="edge13" class="edge"><title>Node18&#45;&gt;Node15</title>
<path fill="none" stroke="midnightblue" d="M161.716,-168.324C147.832,-159.9 126.523,-146.971 110.212,-137.074"/>
<polygon fill="midnightblue" stroke="midnightblue" points="111.644,-133.85 101.279,-131.655 108.013,-139.834 111.644,-133.85"/>
</g>
</g>
</svg>
