<?xml version="1.0" encoding="UTF-8" standalone="no"?>
<!DOCTYPE svg PUBLIC "-//W3C//DTD SVG 1.1//EN"
 "http://www.w3.org/Graphics/SVG/1.1/DTD/svg11.dtd">
<!-- Generated by graphviz version 2.38.0 (20140413.2041)
 -->
<!-- Title: src/hal/x4m0x_s70/libraries/libusb/include/MSDFunction.h Pages: 1 -->
<svg width="611pt" height="195pt"
 viewBox="0.00 0.00 611.00 195.00" xmlns="http://www.w3.org/2000/svg" xmlns:xlink="http://www.w3.org/1999/xlink">
<g id="graph0" class="graph" transform="scale(1 1) rotate(0) translate(4 191)">
<title>src/hal/x4m0x_s70/libraries/libusb/include/MSDFunction.h</title>
<polygon fill="white" stroke="none" points="-4,4 -4,-191 607,-191 607,4 -4,4"/>
<!-- Node18 -->
<g id="node1" class="node"><title>Node18</title>
<polygon fill="#bfbfbf" stroke="black" points="259,-156.5 259,-186.5 417,-186.5 417,-156.5 259,-156.5"/>
<text text-anchor="start" x="267" y="-174.5" font-family="Helvetica,sans-Serif" font-size="10.00">src/hal/x4m0x_s70/libraries</text>
<text text-anchor="middle" x="338" y="-163.5" font-family="Helvetica,sans-Serif" font-size="10.00">/libusb/include/MSDFunction.h</text>
</g>
<!-- Node19 -->
<g id="node2" class="node"><title>Node19</title>
<g id="a_node2"><a xlink:href="_c_d_c_m_s_d_driver_8c.xhtml" target="_top" xlink:title="src/hal/x4m0x_s70/libraries\l/libusb/device/composite\l/CDCMSDDriver.c">
<polygon fill="white" stroke="black" points="0,-78.5 0,-119.5 146,-119.5 146,-78.5 0,-78.5"/>
<text text-anchor="start" x="8" y="-107.5" font-family="Helvetica,sans-Serif" font-size="10.00">src/hal/x4m0x_s70/libraries</text>
<text text-anchor="start" x="8" y="-96.5" font-family="Helvetica,sans-Serif" font-size="10.00">/libusb/device/composite</text>
<text text-anchor="middle" x="73" y="-85.5" font-family="Helvetica,sans-Serif" font-size="10.00">/CDCMSDDriver.c</text>
</a>
</g>
</g>
<!-- Node18&#45;&gt;Node19 -->
<g id="edge1" class="edge"><title>Node18&#45;&gt;Node19</title>
<path fill="none" stroke="midnightblue" d="M275.226,-153.8C236.496,-143.496 186.653,-130.236 146.141,-119.458"/>
<polygon fill="midnightblue" stroke="midnightblue" points="274.764,-157.299 285.328,-156.487 276.564,-150.534 274.764,-157.299"/>
</g>
<!-- Node20 -->
<g id="node3" class="node"><title>Node20</title>
<g id="a_node3"><a xlink:href="_h_i_d_m_s_d_driver_8c.xhtml" target="_top" xlink:title="src/hal/x4m0x_s70/libraries\l/libusb/device/composite\l/HIDMSDDriver.c">
<polygon fill="white" stroke="black" points="164,-78.5 164,-119.5 310,-119.5 310,-78.5 164,-78.5"/>
<text text-anchor="start" x="172" y="-107.5" font-family="Helvetica,sans-Serif" font-size="10.00">src/hal/x4m0x_s70/libraries</text>
<text text-anchor="start" x="172" y="-96.5" font-family="Helvetica,sans-Serif" font-size="10.00">/libusb/device/composite</text>
<text text-anchor="middle" x="237" y="-85.5" font-family="Helvetica,sans-Serif" font-size="10.00">/HIDMSDDriver.c</text>
</a>
</g>
</g>
<!-- Node18&#45;&gt;Node20 -->
<g id="edge2" class="edge"><title>Node18&#45;&gt;Node20</title>
<path fill="none" stroke="midnightblue" d="M309.324,-150.483C295.45,-140.799 278.855,-129.216 265.063,-119.588"/>
<polygon fill="midnightblue" stroke="midnightblue" points="307.358,-153.379 317.561,-156.233 311.365,-147.64 307.358,-153.379"/>
</g>
<!-- Node21 -->
<g id="node4" class="node"><title>Node21</title>
<g id="a_node4"><a xlink:href="_m_s_d_driver_8c.xhtml" target="_top" xlink:title="src/hal/x4m0x_s70/libraries\l/libusb/device/massstorage\l/MSDDriver.c">
<polygon fill="white" stroke="black" points="273.5,-0.5 273.5,-41.5 420.5,-41.5 420.5,-0.5 273.5,-0.5"/>
<text text-anchor="start" x="281.5" y="-29.5" font-family="Helvetica,sans-Serif" font-size="10.00">src/hal/x4m0x_s70/libraries</text>
<text text-anchor="start" x="281.5" y="-18.5" font-family="Helvetica,sans-Serif" font-size="10.00">/libusb/device/massstorage</text>
<text text-anchor="middle" x="347" y="-7.5" font-family="Helvetica,sans-Serif" font-size="10.00">/MSDDriver.c</text>
</a>
</g>
</g>
<!-- Node18&#45;&gt;Node21 -->
<g id="edge3" class="edge"><title>Node18&#45;&gt;Node21</title>
<path fill="none" stroke="midnightblue" d="M339.48,-146.075C341.253,-116.831 344.186,-68.4391 345.815,-41.5474"/>
<polygon fill="midnightblue" stroke="midnightblue" points="335.974,-146.068 338.863,-156.261 342.962,-146.491 335.974,-146.068"/>
</g>
<!-- Node22 -->
<g id="node5" class="node"><title>Node22</title>
<g id="a_node5"><a xlink:href="_m_s_d_driver_8h.xhtml" target="_top" xlink:title="src/hal/x4m0x_s70/libraries\l/libusb/include/MSDDriver.h">
<polygon fill="white" stroke="red" points="366,-84 366,-114 512,-114 512,-84 366,-84"/>
<text text-anchor="start" x="374" y="-102" font-family="Helvetica,sans-Serif" font-size="10.00">src/hal/x4m0x_s70/libraries</text>
<text text-anchor="middle" x="439" y="-91" font-family="Helvetica,sans-Serif" font-size="10.00">/libusb/include/MSDDriver.h</text>
</a>
</g>
</g>
<!-- Node18&#45;&gt;Node22 -->
<g id="edge4" class="edge"><title>Node18&#45;&gt;Node22</title>
<path fill="none" stroke="midnightblue" d="M366.751,-150.431C383.425,-138.792 404.01,-124.424 418.936,-114.005"/>
<polygon fill="midnightblue" stroke="midnightblue" points="364.635,-147.64 358.439,-156.233 368.642,-153.379 364.635,-147.64"/>
</g>
<!-- Node25 -->
<g id="node6" class="node"><title>Node25</title>
<g id="a_node6"><a xlink:href="usb_8h.xhtml" target="_top" xlink:title="Definition of SAM9XX5&#45;EK usb library. ">
<polygon fill="white" stroke="black" points="457,-6 457,-36 603,-36 603,-6 457,-6"/>
<text text-anchor="start" x="465" y="-24" font-family="Helvetica,sans-Serif" font-size="10.00">src/hal/x4m0x_s70/libraries</text>
<text text-anchor="middle" x="530" y="-13" font-family="Helvetica,sans-Serif" font-size="10.00">/libusb/usb.h</text>
</a>
</g>
</g>
<!-- Node18&#45;&gt;Node25 -->
<g id="edge7" class="edge"><title>Node18&#45;&gt;Node25</title>
<path fill="none" stroke="midnightblue" d="M427.227,-155.75C467.243,-147.232 508.302,-135.181 521,-120 540.841,-96.2791 537.125,-57.1115 533.244,-36.1977"/>
<polygon fill="midnightblue" stroke="midnightblue" points="426.453,-152.335 417.367,-157.784 427.868,-159.191 426.453,-152.335"/>
</g>
<!-- Node22&#45;&gt;Node21 -->
<g id="edge5" class="edge"><title>Node22&#45;&gt;Node21</title>
<path fill="none" stroke="midnightblue" d="M413.792,-77.1762C400.392,-66.1061 384.009,-52.5729 370.823,-41.68"/>
<polygon fill="midnightblue" stroke="midnightblue" points="411.757,-80.0345 421.696,-83.705 416.215,-74.6378 411.757,-80.0345"/>
</g>
<!-- Node22&#45;&gt;Node25 -->
<g id="edge6" class="edge"><title>Node22&#45;&gt;Node25</title>
<path fill="none" stroke="midnightblue" d="M463.841,-77.2533C479.431,-64.2337 499.128,-47.7835 512.96,-36.2309"/>
<polygon fill="midnightblue" stroke="midnightblue" points="461.548,-74.6084 456.116,-83.705 466.035,-79.9812 461.548,-74.6084"/>
</g>
</g>
</svg>
