<?xml version="1.0" encoding="UTF-8" standalone="no"?>
<!DOCTYPE svg PUBLIC "-//W3C//DTD SVG 1.1//EN"
 "http://www.w3.org/Graphics/SVG/1.1/DTD/svg11.dtd">
<!-- Generated by graphviz version 2.38.0 (20140413.2041)
 -->
<!-- Title: src/hal/x4m0x_s70/libraries/libusb/include/MSDFunction.h Pages: 1 -->
<svg width="206pt" height="207pt"
 viewBox="0.00 0.00 205.75 207.00" xmlns="http://www.w3.org/2000/svg" xmlns:xlink="http://www.w3.org/1999/xlink">
<g id="graph0" class="graph" transform="scale(1 1) rotate(0) translate(4 203)">
<title>src/hal/x4m0x_s70/libraries/libusb/include/MSDFunction.h</title>
<polygon fill="white" stroke="none" points="-4,4 -4,-203 201.745,-203 201.745,4 -4,4"/>
<!-- Node0 -->
<g id="node1" class="node"><title>Node0</title>
<polygon fill="#bfbfbf" stroke="black" points="0,-168.5 0,-198.5 158,-198.5 158,-168.5 0,-168.5"/>
<text text-anchor="start" x="8" y="-186.5" font-family="Helvetica,sans-Serif" font-size="10.00">src/hal/x4m0x_s70/libraries</text>
<text text-anchor="middle" x="79" y="-175.5" font-family="Helvetica,sans-Serif" font-size="10.00">/libusb/include/MSDFunction.h</text>
</g>
<!-- Node1 -->
<g id="node2" class="node"><title>Node1</title>
<polygon fill="white" stroke="#bfbfbf" points="31.5,-0.5 31.5,-19.5 84.5,-19.5 84.5,-0.5 31.5,-0.5"/>
<text text-anchor="middle" x="58" y="-7.5" font-family="Helvetica,sans-Serif" font-size="10.00">stdint.h</text>
</g>
<!-- Node0&#45;&gt;Node1 -->
<g id="edge1" class="edge"><title>Node0&#45;&gt;Node1</title>
<path fill="none" stroke="midnightblue" d="M66.9679,-168.174C51.5461,-148.761 25.6492,-112.335 16,-76 13.7185,-67.4089 12.7404,-64.2697 16,-56 20.514,-44.5479 29.469,-34.291 37.9546,-26.4724"/>
<polygon fill="midnightblue" stroke="midnightblue" points="40.4686,-28.9275 45.7863,-19.7638 35.9147,-23.6113 40.4686,-28.9275"/>
</g>
<!-- Node2 -->
<g id="node3" class="node"><title>Node2</title>
<g id="a_node3"><a xlink:href="_m_s_d_lun_8h.xhtml" target="_top" xlink:title="MSDLun.h">
<polygon fill="white" stroke="red" points="25.5,-56.5 25.5,-75.5 90.5,-75.5 90.5,-56.5 25.5,-56.5"/>
<text text-anchor="middle" x="58" y="-63.5" font-family="Helvetica,sans-Serif" font-size="10.00">MSDLun.h</text>
</a>
</g>
</g>
<!-- Node0&#45;&gt;Node2 -->
<g id="edge2" class="edge"><title>Node0&#45;&gt;Node2</title>
<path fill="none" stroke="midnightblue" d="M69.6684,-168.154C63.8973,-158.398 57.0311,-144.955 54,-132 50.4141,-116.674 51.9113,-98.7937 54.0236,-85.6701"/>
<polygon fill="midnightblue" stroke="midnightblue" points="57.5191,-86.0198 55.9258,-75.5455 50.6394,-84.7272 57.5191,-86.0198"/>
</g>
<!-- Node14 -->
<g id="node4" class="node"><title>Node14</title>
<g id="a_node4"><a xlink:href="_m_s_d_8h.xhtml" target="_top" xlink:title="MSD.h">
<polygon fill="white" stroke="black" points="109,-56.5 109,-75.5 157,-75.5 157,-56.5 109,-56.5"/>
<text text-anchor="middle" x="133" y="-63.5" font-family="Helvetica,sans-Serif" font-size="10.00">MSD.h</text>
</a>
</g>
</g>
<!-- Node0&#45;&gt;Node14 -->
<g id="edge4" class="edge"><title>Node0&#45;&gt;Node14</title>
<path fill="none" stroke="midnightblue" d="M144.502,-168.4C163.719,-160.89 182.614,-149.436 194,-132 206.957,-112.159 182.589,-92.7979 160.912,-80.4415"/>
<polygon fill="midnightblue" stroke="midnightblue" points="162.368,-77.2503 151.904,-75.5937 159.051,-83.4145 162.368,-77.2503"/>
</g>
<!-- Node15 -->
<g id="node5" class="node"><title>Node15</title>
<g id="a_node5"><a xlink:href="_m_s_d_d_state_machine_8h.xhtml" target="_top" xlink:title="MSDDStateMachine.h">
<polygon fill="white" stroke="red" points="63,-112.5 63,-131.5 185,-131.5 185,-112.5 63,-112.5"/>
<text text-anchor="middle" x="124" y="-119.5" font-family="Helvetica,sans-Serif" font-size="10.00">MSDDStateMachine.h</text>
</a>
</g>
</g>
<!-- Node0&#45;&gt;Node15 -->
<g id="edge6" class="edge"><title>Node0&#45;&gt;Node15</title>
<path fill="none" stroke="midnightblue" d="M89.6644,-168.399C96.136,-159.842 104.434,-148.871 111.251,-139.857"/>
<polygon fill="midnightblue" stroke="midnightblue" points="114.211,-141.745 117.452,-131.658 108.628,-137.522 114.211,-141.745"/>
</g>
<!-- Node2&#45;&gt;Node1 -->
<g id="edge3" class="edge"><title>Node2&#45;&gt;Node1</title>
<path fill="none" stroke="midnightblue" d="M58,-56.083C58,-49.0059 58,-38.8611 58,-29.9865"/>
<polygon fill="midnightblue" stroke="midnightblue" points="61.5001,-29.751 58,-19.7511 54.5001,-29.7511 61.5001,-29.751"/>
</g>
<!-- Node14&#45;&gt;Node1 -->
<g id="edge5" class="edge"><title>Node14&#45;&gt;Node1</title>
<path fill="none" stroke="midnightblue" d="M120.95,-56.324C109.537,-48.1066 92.169,-35.6017 78.5651,-25.8069"/>
<polygon fill="midnightblue" stroke="midnightblue" points="80.4297,-22.8366 70.2693,-19.8339 76.3396,-28.5174 80.4297,-22.8366"/>
</g>
<!-- Node15&#45;&gt;Node2 -->
<g id="edge8" class="edge"><title>Node15&#45;&gt;Node2</title>
<path fill="none" stroke="midnightblue" d="M113.396,-112.324C103.544,-104.263 88.6491,-92.0765 76.7849,-82.3695"/>
<polygon fill="midnightblue" stroke="midnightblue" points="78.7529,-79.4575 68.797,-75.8339 74.3202,-84.8752 78.7529,-79.4575"/>
</g>
<!-- Node15&#45;&gt;Node14 -->
<g id="edge7" class="edge"><title>Node15&#45;&gt;Node14</title>
<path fill="none" stroke="midnightblue" d="M125.486,-112.083C126.679,-104.927 128.394,-94.6353 129.885,-85.6911"/>
<polygon fill="midnightblue" stroke="midnightblue" points="133.35,-86.1904 131.541,-75.7511 126.445,-85.0396 133.35,-86.1904"/>
</g>
</g>
</svg>
