<?xml version="1.0" encoding="UTF-8" standalone="no"?>
<!DOCTYPE svg PUBLIC "-//W3C//DTD SVG 1.1//EN"
 "http://www.w3.org/Graphics/SVG/1.1/DTD/svg11.dtd">
<!-- Generated by graphviz version 2.38.0 (20140413.2041)
 -->
<!-- Title: src/hal/x4m0x_s70/libraries/libusb/include/MSDDStateMachine.h Pages: 1 -->
<svg width="348pt" height="95pt"
 viewBox="0.00 0.00 348.00 95.00" xmlns="http://www.w3.org/2000/svg" xmlns:xlink="http://www.w3.org/1999/xlink">
<g id="graph0" class="graph" transform="scale(1 1) rotate(0) translate(4 91)">
<title>src/hal/x4m0x_s70/libraries/libusb/include/MSDDStateMachine.h</title>
<polygon fill="white" stroke="none" points="-4,4 -4,-91 344,-91 344,4 -4,4"/>
<!-- Node0 -->
<g id="node1" class="node"><title>Node0</title>
<polygon fill="#bfbfbf" stroke="black" points="49,-56.5 49,-86.5 241,-86.5 241,-56.5 49,-56.5"/>
<text text-anchor="start" x="57" y="-74.5" font-family="Helvetica,sans-Serif" font-size="10.00">src/hal/x4m0x_s70/libraries</text>
<text text-anchor="middle" x="145" y="-63.5" font-family="Helvetica,sans-Serif" font-size="10.00">/libusb/include/MSDDStateMachine.h</text>
</g>
<!-- Node1 -->
<g id="node2" class="node"><title>Node1</title>
<g id="a_node2"><a xlink:href="_m_s_d_8h.xhtml" target="_top" xlink:title="MSD.h">
<polygon fill="white" stroke="red" points="0,-0.5 0,-19.5 48,-19.5 48,-0.5 0,-0.5"/>
<text text-anchor="middle" x="24" y="-7.5" font-family="Helvetica,sans-Serif" font-size="10.00">MSD.h</text>
</a>
</g>
</g>
<!-- Node0&#45;&gt;Node1 -->
<g id="edge1" class="edge"><title>Node0&#45;&gt;Node1</title>
<path fill="none" stroke="midnightblue" d="M116.325,-56.3993C96.4761,-46.6391 70.2389,-33.7373 50.8084,-24.1826"/>
<polygon fill="midnightblue" stroke="midnightblue" points="52.1248,-20.9297 41.6066,-19.6578 49.0359,-27.2114 52.1248,-20.9297"/>
</g>
<!-- Node3 -->
<g id="node3" class="node"><title>Node3</title>
<g id="a_node3"><a xlink:href="_m_s_d_lun_8h.xhtml" target="_top" xlink:title="MSDLun.h">
<polygon fill="white" stroke="red" points="66.5,-0.5 66.5,-19.5 131.5,-19.5 131.5,-0.5 66.5,-0.5"/>
<text text-anchor="middle" x="99" y="-7.5" font-family="Helvetica,sans-Serif" font-size="10.00">MSDLun.h</text>
</a>
</g>
</g>
<!-- Node0&#45;&gt;Node3 -->
<g id="edge2" class="edge"><title>Node0&#45;&gt;Node3</title>
<path fill="none" stroke="midnightblue" d="M134.099,-56.3993C127.414,-47.7533 118.824,-36.642 111.815,-27.576"/>
<polygon fill="midnightblue" stroke="midnightblue" points="114.579,-25.4284 105.693,-19.6578 109.041,-29.7099 114.579,-25.4284"/>
</g>
<!-- Node15 -->
<g id="node4" class="node"><title>Node15</title>
<g id="a_node4"><a xlink:href="_u_s_b_d_driver_8h.xhtml" target="_top" xlink:title="USBDDriver.h">
<polygon fill="white" stroke="red" points="150,-0.5 150,-19.5 232,-19.5 232,-0.5 150,-0.5"/>
<text text-anchor="middle" x="191" y="-7.5" font-family="Helvetica,sans-Serif" font-size="10.00">USBDDriver.h</text>
</a>
</g>
</g>
<!-- Node0&#45;&gt;Node15 -->
<g id="edge3" class="edge"><title>Node0&#45;&gt;Node15</title>
<path fill="none" stroke="midnightblue" d="M155.901,-56.3993C162.586,-47.7533 171.176,-36.642 178.185,-27.576"/>
<polygon fill="midnightblue" stroke="midnightblue" points="180.959,-29.7099 184.307,-19.6578 175.421,-25.4284 180.959,-29.7099"/>
</g>
<!-- Node16 -->
<g id="node5" class="node"><title>Node16</title>
<g id="a_node5"><a xlink:href="_u_s_b_lib___trace_8h.xhtml" target="_top" xlink:title="USBLib_Trace.h">
<polygon fill="white" stroke="red" points="250,-0.5 250,-19.5 340,-19.5 340,-0.5 250,-0.5"/>
<text text-anchor="middle" x="295" y="-7.5" font-family="Helvetica,sans-Serif" font-size="10.00">USBLib_Trace.h</text>
</a>
</g>
</g>
<!-- Node0&#45;&gt;Node16 -->
<g id="edge4" class="edge"><title>Node0&#45;&gt;Node16</title>
<path fill="none" stroke="midnightblue" d="M180.548,-56.3993C205.828,-46.3717 239.467,-33.028 263.727,-23.405"/>
<polygon fill="midnightblue" stroke="midnightblue" points="265.169,-26.5984 273.174,-19.6578 262.588,-20.0916 265.169,-26.5984"/>
</g>
</g>
</svg>
