<?xml version="1.0" encoding="UTF-8" standalone="no"?>
<!DOCTYPE svg PUBLIC "-//W3C//DTD SVG 1.1//EN"
 "http://www.w3.org/Graphics/SVG/1.1/DTD/svg11.dtd">
<!-- Generated by graphviz version 2.38.0 (20140413.2041)
 -->
<!-- Title: src/hal/x4m0x_s70/libraries/libusb/include/MSDDStateMachine.h Pages: 1 -->
<svg width="600pt" height="251pt"
 viewBox="0.00 0.00 599.50 251.00" xmlns="http://www.w3.org/2000/svg" xmlns:xlink="http://www.w3.org/1999/xlink">
<g id="graph0" class="graph" transform="scale(1 1) rotate(0) translate(4 247)">
<title>src/hal/x4m0x_s70/libraries/libusb/include/MSDDStateMachine.h</title>
<polygon fill="white" stroke="none" points="-4,4 -4,-247 595.5,-247 595.5,4 -4,4"/>
<!-- Node17 -->
<g id="node1" class="node"><title>Node17</title>
<polygon fill="#bfbfbf" stroke="black" points="258.5,-212.5 258.5,-242.5 450.5,-242.5 450.5,-212.5 258.5,-212.5"/>
<text text-anchor="start" x="266.5" y="-230.5" font-family="Helvetica,sans-Serif" font-size="10.00">src/hal/x4m0x_s70/libraries</text>
<text text-anchor="middle" x="354.5" y="-219.5" font-family="Helvetica,sans-Serif" font-size="10.00">/libusb/include/MSDDStateMachine.h</text>
</g>
<!-- Node18 -->
<g id="node2" class="node"><title>Node18</title>
<g id="a_node2"><a xlink:href="_m_s_d_d_state_machine_8c.xhtml" target="_top" xlink:title="src/hal/x4m0x_s70/libraries\l/libusb/device/massstorage\l/MSDDStateMachine.c">
<polygon fill="white" stroke="black" points="0,-67.5 0,-108.5 147,-108.5 147,-67.5 0,-67.5"/>
<text text-anchor="start" x="8" y="-96.5" font-family="Helvetica,sans-Serif" font-size="10.00">src/hal/x4m0x_s70/libraries</text>
<text text-anchor="start" x="8" y="-85.5" font-family="Helvetica,sans-Serif" font-size="10.00">/libusb/device/massstorage</text>
<text text-anchor="middle" x="73.5" y="-74.5" font-family="Helvetica,sans-Serif" font-size="10.00">/MSDDStateMachine.c</text>
</a>
</g>
</g>
<!-- Node17&#45;&gt;Node18 -->
<g id="edge1" class="edge"><title>Node17&#45;&gt;Node18</title>
<path fill="none" stroke="midnightblue" d="M247.984,-218.654C209.035,-211.746 166.281,-199.075 132.5,-176 108.087,-159.324 90.9451,-128.914 81.648,-108.831"/>
<polygon fill="midnightblue" stroke="midnightblue" points="247.887,-222.186 258.325,-220.372 249.034,-215.281 247.887,-222.186"/>
</g>
<!-- Node19 -->
<g id="node3" class="node"><title>Node19</title>
<g id="a_node3"><a xlink:href="_s_b_c_methods_8c.xhtml" target="_top" xlink:title="src/hal/x4m0x_s70/libraries\l/libusb/device/massstorage\l/SBCMethods.c">
<polygon fill="white" stroke="black" points="204,-67.5 204,-108.5 351,-108.5 351,-67.5 204,-67.5"/>
<text text-anchor="start" x="212" y="-96.5" font-family="Helvetica,sans-Serif" font-size="10.00">src/hal/x4m0x_s70/libraries</text>
<text text-anchor="start" x="212" y="-85.5" font-family="Helvetica,sans-Serif" font-size="10.00">/libusb/device/massstorage</text>
<text text-anchor="middle" x="277.5" y="-74.5" font-family="Helvetica,sans-Serif" font-size="10.00">/SBCMethods.c</text>
</a>
</g>
</g>
<!-- Node17&#45;&gt;Node19 -->
<g id="edge2" class="edge"><title>Node17&#45;&gt;Node19</title>
<path fill="none" stroke="midnightblue" d="M341.52,-203.321C326.632,-176.735 302.481,-133.608 288.486,-108.618"/>
<polygon fill="midnightblue" stroke="midnightblue" points="338.61,-205.288 346.55,-212.303 344.717,-201.868 338.61,-205.288"/>
</g>
<!-- Node20 -->
<g id="node4" class="node"><title>Node20</title>
<g id="a_node4"><a xlink:href="_m_s_d_driver_8h.xhtml" target="_top" xlink:title="src/hal/x4m0x_s70/libraries\l/libusb/include/MSDDriver.h">
<polygon fill="white" stroke="red" points="445.5,-73 445.5,-103 591.5,-103 591.5,-73 445.5,-73"/>
<text text-anchor="start" x="453.5" y="-91" font-family="Helvetica,sans-Serif" font-size="10.00">src/hal/x4m0x_s70/libraries</text>
<text text-anchor="middle" x="518.5" y="-80" font-family="Helvetica,sans-Serif" font-size="10.00">/libusb/include/MSDDriver.h</text>
</a>
</g>
</g>
<!-- Node17&#45;&gt;Node20 -->
<g id="edge3" class="edge"><title>Node17&#45;&gt;Node20</title>
<path fill="none" stroke="midnightblue" d="M460.77,-214.161C507.997,-206.277 556.173,-194.063 570.5,-176 589.308,-152.287 559.369,-121.165 537.697,-103.295"/>
<polygon fill="midnightblue" stroke="midnightblue" points="460.036,-210.734 450.719,-215.778 461.148,-217.645 460.036,-210.734"/>
</g>
<!-- Node24 -->
<g id="node5" class="node"><title>Node24</title>
<g id="a_node5"><a xlink:href="usb_8h.xhtml" target="_top" xlink:title="Definition of SAM9XX5&#45;EK usb library. ">
<polygon fill="white" stroke="black" points="325.5,-0.5 325.5,-30.5 471.5,-30.5 471.5,-0.5 325.5,-0.5"/>
<text text-anchor="start" x="333.5" y="-18.5" font-family="Helvetica,sans-Serif" font-size="10.00">src/hal/x4m0x_s70/libraries</text>
<text text-anchor="middle" x="398.5" y="-7.5" font-family="Helvetica,sans-Serif" font-size="10.00">/libusb/usb.h</text>
</a>
</g>
</g>
<!-- Node17&#45;&gt;Node24 -->
<g id="edge12" class="edge"><title>Node17&#45;&gt;Node24</title>
<path fill="none" stroke="midnightblue" d="M359.519,-202.544C368.754,-158.47 388.166,-65.8191 395.558,-30.5434"/>
<polygon fill="midnightblue" stroke="midnightblue" points="356.08,-201.89 357.455,-212.395 362.932,-203.326 356.08,-201.89"/>
</g>
<!-- Node25 -->
<g id="node6" class="node"><title>Node25</title>
<g id="a_node6"><a xlink:href="_m_s_d_function_8h.xhtml" target="_top" xlink:title="Mass storage function driver definitions. ">
<polygon fill="white" stroke="red" points="403.5,-145.5 403.5,-175.5 561.5,-175.5 561.5,-145.5 403.5,-145.5"/>
<text text-anchor="start" x="411.5" y="-163.5" font-family="Helvetica,sans-Serif" font-size="10.00">src/hal/x4m0x_s70/libraries</text>
<text text-anchor="middle" x="482.5" y="-152.5" font-family="Helvetica,sans-Serif" font-size="10.00">/libusb/include/MSDFunction.h</text>
</a>
</g>
</g>
<!-- Node17&#45;&gt;Node25 -->
<g id="edge5" class="edge"><title>Node17&#45;&gt;Node25</title>
<path fill="none" stroke="midnightblue" d="M391.22,-207.853C411.458,-197.576 436.174,-185.025 454.78,-175.577"/>
<polygon fill="midnightblue" stroke="midnightblue" points="389.606,-204.747 382.274,-212.396 392.775,-210.989 389.606,-204.747"/>
</g>
<!-- Node28 -->
<g id="node7" class="node"><title>Node28</title>
<g id="a_node7"><a xlink:href="_s_b_c_methods_8h.xhtml" target="_top" xlink:title="src/hal/x4m0x_s70/libraries\l/libusb/include/SBCMethods.h">
<polygon fill="white" stroke="black" points="141.5,-145.5 141.5,-175.5 299.5,-175.5 299.5,-145.5 141.5,-145.5"/>
<text text-anchor="start" x="149.5" y="-163.5" font-family="Helvetica,sans-Serif" font-size="10.00">src/hal/x4m0x_s70/libraries</text>
<text text-anchor="middle" x="220.5" y="-152.5" font-family="Helvetica,sans-Serif" font-size="10.00">/libusb/include/SBCMethods.h</text>
</a>
</g>
</g>
<!-- Node17&#45;&gt;Node28 -->
<g id="edge8" class="edge"><title>Node17&#45;&gt;Node28</title>
<path fill="none" stroke="midnightblue" d="M316.345,-207.992C295.105,-197.689 269.086,-185.068 249.519,-175.577"/>
<polygon fill="midnightblue" stroke="midnightblue" points="314.899,-211.181 325.424,-212.396 317.954,-204.882 314.899,-211.181"/>
</g>
<!-- Node20&#45;&gt;Node24 -->
<g id="edge4" class="edge"><title>Node20&#45;&gt;Node24</title>
<path fill="none" stroke="midnightblue" d="M485.718,-67.7407C465.716,-55.9894 440.593,-41.2295 422.454,-30.5729"/>
<polygon fill="midnightblue" stroke="midnightblue" points="484.11,-70.8549 494.505,-72.9027 487.655,-64.8194 484.11,-70.8549"/>
</g>
<!-- Node25&#45;&gt;Node20 -->
<g id="edge6" class="edge"><title>Node25&#45;&gt;Node20</title>
<path fill="none" stroke="midnightblue" d="M494.384,-136.227C499.948,-125.33 506.397,-112.701 511.226,-103.246"/>
<polygon fill="midnightblue" stroke="midnightblue" points="491.216,-134.735 489.785,-145.233 497.45,-137.919 491.216,-134.735"/>
</g>
<!-- Node25&#45;&gt;Node24 -->
<g id="edge7" class="edge"><title>Node25&#45;&gt;Node24</title>
<path fill="none" stroke="midnightblue" d="M459.752,-137.906C451.687,-129.432 443.007,-119.281 436.5,-109 420.251,-83.328 408.46,-49.5291 402.625,-30.7109"/>
<polygon fill="midnightblue" stroke="midnightblue" points="457.397,-140.503 466.907,-145.173 462.385,-135.592 457.397,-140.503"/>
</g>
<!-- Node28&#45;&gt;Node18 -->
<g id="edge9" class="edge"><title>Node28&#45;&gt;Node18</title>
<path fill="none" stroke="midnightblue" d="M181.916,-140.995C161.094,-131.009 135.403,-118.688 114.256,-108.546"/>
<polygon fill="midnightblue" stroke="midnightblue" points="180.575,-144.234 191.106,-145.403 183.603,-137.923 180.575,-144.234"/>
</g>
<!-- Node28&#45;&gt;Node19 -->
<g id="edge10" class="edge"><title>Node28&#45;&gt;Node19</title>
<path fill="none" stroke="midnightblue" d="M238.481,-137.26C245.918,-128.062 254.466,-117.489 261.663,-108.588"/>
<polygon fill="midnightblue" stroke="midnightblue" points="235.6,-135.256 232.035,-145.233 241.044,-139.657 235.6,-135.256"/>
</g>
<!-- Node28&#45;&gt;Node24 -->
<g id="edge11" class="edge"><title>Node28&#45;&gt;Node24</title>
<path fill="none" stroke="midnightblue" d="M203.954,-136.924C191.351,-116.732 178.63,-87.2774 194.5,-67 210.747,-46.2409 273.648,-32.8272 325.36,-25.0807"/>
<polygon fill="midnightblue" stroke="midnightblue" points="201.188,-139.086 209.633,-145.483 207.021,-135.216 201.188,-139.086"/>
</g>
</g>
</svg>
