<?xml version="1.0" encoding="UTF-8" standalone="no"?>
<!DOCTYPE svg PUBLIC "-//W3C//DTD SVG 1.1//EN"
 "http://www.w3.org/Graphics/SVG/1.1/DTD/svg11.dtd">
<!-- Generated by graphviz version 2.38.0 (20140413.2041)
 -->
<!-- Title: src/hal/x4m0x_s70/libraries/libusb/include/SBCMethods.h Pages: 1 -->
<svg width="485pt" height="117pt"
 viewBox="0.00 0.00 484.50 117.00" xmlns="http://www.w3.org/2000/svg" xmlns:xlink="http://www.w3.org/1999/xlink">
<g id="graph0" class="graph" transform="scale(1 1) rotate(0) translate(4 113)">
<title>src/hal/x4m0x_s70/libraries/libusb/include/SBCMethods.h</title>
<polygon fill="white" stroke="none" points="-4,4 -4,-113 480.5,-113 480.5,4 -4,4"/>
<!-- Node18 -->
<g id="node1" class="node"><title>Node18</title>
<polygon fill="#bfbfbf" stroke="black" points="159.5,-78.5 159.5,-108.5 317.5,-108.5 317.5,-78.5 159.5,-78.5"/>
<text text-anchor="start" x="167.5" y="-96.5" font-family="Helvetica,sans-Serif" font-size="10.00">src/hal/x4m0x_s70/libraries</text>
<text text-anchor="middle" x="238.5" y="-85.5" font-family="Helvetica,sans-Serif" font-size="10.00">/libusb/include/SBCMethods.h</text>
</g>
<!-- Node19 -->
<g id="node2" class="node"><title>Node19</title>
<g id="a_node2"><a xlink:href="_m_s_d_d_state_machine_8c.xhtml" target="_top" xlink:title="src/hal/x4m0x_s70/libraries\l/libusb/device/massstorage\l/MSDDStateMachine.c">
<polygon fill="white" stroke="black" points="0,-0.5 0,-41.5 147,-41.5 147,-0.5 0,-0.5"/>
<text text-anchor="start" x="8" y="-29.5" font-family="Helvetica,sans-Serif" font-size="10.00">src/hal/x4m0x_s70/libraries</text>
<text text-anchor="start" x="8" y="-18.5" font-family="Helvetica,sans-Serif" font-size="10.00">/libusb/device/massstorage</text>
<text text-anchor="middle" x="73.5" y="-7.5" font-family="Helvetica,sans-Serif" font-size="10.00">/MSDDStateMachine.c</text>
</a>
</g>
</g>
<!-- Node18&#45;&gt;Node19 -->
<g id="edge1" class="edge"><title>Node18&#45;&gt;Node19</title>
<path fill="none" stroke="midnightblue" d="M196.135,-74.3987C172.6,-64.3428 143.303,-51.825 119.247,-41.5464"/>
<polygon fill="midnightblue" stroke="midnightblue" points="194.935,-77.6921 205.506,-78.4027 197.686,-71.255 194.935,-77.6921"/>
</g>
<!-- Node20 -->
<g id="node3" class="node"><title>Node20</title>
<g id="a_node3"><a xlink:href="_s_b_c_methods_8c.xhtml" target="_top" xlink:title="src/hal/x4m0x_s70/libraries\l/libusb/device/massstorage\l/SBCMethods.c">
<polygon fill="white" stroke="black" points="165,-0.5 165,-41.5 312,-41.5 312,-0.5 165,-0.5"/>
<text text-anchor="start" x="173" y="-29.5" font-family="Helvetica,sans-Serif" font-size="10.00">src/hal/x4m0x_s70/libraries</text>
<text text-anchor="start" x="173" y="-18.5" font-family="Helvetica,sans-Serif" font-size="10.00">/libusb/device/massstorage</text>
<text text-anchor="middle" x="238.5" y="-7.5" font-family="Helvetica,sans-Serif" font-size="10.00">/SBCMethods.c</text>
</a>
</g>
</g>
<!-- Node18&#45;&gt;Node20 -->
<g id="edge2" class="edge"><title>Node18&#45;&gt;Node20</title>
<path fill="none" stroke="midnightblue" d="M238.5,-67.9815C238.5,-59.3468 238.5,-49.7625 238.5,-41.5884"/>
<polygon fill="midnightblue" stroke="midnightblue" points="235,-68.2332 238.5,-78.2333 242,-68.2333 235,-68.2332"/>
</g>
<!-- Node21 -->
<g id="node4" class="node"><title>Node21</title>
<g id="a_node4"><a xlink:href="usb_8h.xhtml" target="_top" xlink:title="Definition of SAM9XX5&#45;EK usb library. ">
<polygon fill="white" stroke="black" points="330.5,-6 330.5,-36 476.5,-36 476.5,-6 330.5,-6"/>
<text text-anchor="start" x="338.5" y="-24" font-family="Helvetica,sans-Serif" font-size="10.00">src/hal/x4m0x_s70/libraries</text>
<text text-anchor="middle" x="403.5" y="-13" font-family="Helvetica,sans-Serif" font-size="10.00">/libusb/usb.h</text>
</a>
</g>
</g>
<!-- Node18&#45;&gt;Node21 -->
<g id="edge3" class="edge"><title>Node18&#45;&gt;Node21</title>
<path fill="none" stroke="midnightblue" d="M280.995,-74.3431C308.89,-62.4243 344.836,-47.0655 370.564,-36.0729"/>
<polygon fill="midnightblue" stroke="midnightblue" points="279.314,-71.255 271.494,-78.4027 282.065,-77.6921 279.314,-71.255"/>
</g>
</g>
</svg>
