<?xml version="1.0" encoding="UTF-8" standalone="no"?>
<!DOCTYPE svg PUBLIC "-//W3C//DTD SVG 1.1//EN"
 "http://www.w3.org/Graphics/SVG/1.1/DTD/svg11.dtd">
<!-- Generated by graphviz version 2.38.0 (20140413.2041)
 -->
<!-- Title: src/hal/x4m0x_s70/libraries/libusb/include/USBLib_Types.h Pages: 1 -->
<svg width="170pt" height="151pt"
 viewBox="0.00 0.00 170.00 151.00" xmlns="http://www.w3.org/2000/svg" xmlns:xlink="http://www.w3.org/1999/xlink">
<g id="graph0" class="graph" transform="scale(1 1) rotate(0) translate(4 147)">
<title>src/hal/x4m0x_s70/libraries/libusb/include/USBLib_Types.h</title>
<polygon fill="white" stroke="none" points="-4,4 -4,-147 166,-147 166,4 -4,4"/>
<!-- Node0 -->
<g id="node1" class="node"><title>Node0</title>
<polygon fill="#bfbfbf" stroke="black" points="0,-112.5 0,-142.5 162,-142.5 162,-112.5 0,-112.5"/>
<text text-anchor="start" x="8" y="-130.5" font-family="Helvetica,sans-Serif" font-size="10.00">src/hal/x4m0x_s70/libraries</text>
<text text-anchor="middle" x="81" y="-119.5" font-family="Helvetica,sans-Serif" font-size="10.00">/libusb/include/USBLib_Types.h</text>
</g>
<!-- Node1 -->
<g id="node2" class="node"><title>Node1</title>
<polygon fill="white" stroke="#bfbfbf" points="54.5,-0.5 54.5,-19.5 107.5,-19.5 107.5,-0.5 54.5,-0.5"/>
<text text-anchor="middle" x="81" y="-7.5" font-family="Helvetica,sans-Serif" font-size="10.00">stdint.h</text>
</g>
<!-- Node0&#45;&gt;Node1 -->
<g id="edge1" class="edge"><title>Node0&#45;&gt;Node1</title>
<path fill="none" stroke="midnightblue" d="M76.5196,-112.495C72.5192,-98.2976 67.6298,-75.678 70,-56 71.0712,-47.1069 73.2923,-37.4344 75.4601,-29.344"/>
<polygon fill="midnightblue" stroke="midnightblue" points="78.8868,-30.0908 78.2701,-19.5139 72.1563,-28.1668 78.8868,-30.0908"/>
</g>
<!-- Node2 -->
<g id="node3" class="node"><title>Node2</title>
<g id="a_node3"><a xlink:href="compiler_8h.xhtml" target="_top" xlink:title="compiler.h">
<polygon fill="white" stroke="red" points="79,-56.5 79,-75.5 145,-75.5 145,-56.5 79,-56.5"/>
<text text-anchor="middle" x="112" y="-63.5" font-family="Helvetica,sans-Serif" font-size="10.00">compiler.h</text>
</a>
</g>
</g>
<!-- Node0&#45;&gt;Node2 -->
<g id="edge2" class="edge"><title>Node0&#45;&gt;Node2</title>
<path fill="none" stroke="midnightblue" d="M88.3466,-112.399C92.6655,-104.11 98.1651,-93.5542 102.774,-84.7077"/>
<polygon fill="midnightblue" stroke="midnightblue" points="105.973,-86.1435 107.489,-75.6578 99.7646,-82.9091 105.973,-86.1435"/>
</g>
<!-- Node2&#45;&gt;Node1 -->
<g id="edge3" class="edge"><title>Node2&#45;&gt;Node1</title>
<path fill="none" stroke="midnightblue" d="M106.881,-56.083C102.592,-48.6127 96.3418,-37.7244 91.0577,-28.5199"/>
<polygon fill="midnightblue" stroke="midnightblue" points="94.0379,-26.6811 86.0238,-19.7511 87.9671,-30.1662 94.0379,-26.6811"/>
</g>
</g>
</svg>
