<?xml version="1.0" encoding="UTF-8" standalone="no"?>
<!DOCTYPE svg PUBLIC "-//W3C//DTD SVG 1.1//EN"
 "http://www.w3.org/Graphics/SVG/1.1/DTD/svg11.dtd">
<!-- Generated by graphviz version 2.38.0 (20140413.2041)
 -->
<!-- Title: src/hal/x4m0x_s70/libraries/libusb/device/core/USBD.c Pages: 1 -->
<svg width="229pt" height="151pt"
 viewBox="0.00 0.00 229.00 151.00" xmlns="http://www.w3.org/2000/svg" xmlns:xlink="http://www.w3.org/1999/xlink">
<g id="graph0" class="graph" transform="scale(1 1) rotate(0) translate(4 147)">
<title>src/hal/x4m0x_s70/libraries/libusb/device/core/USBD.c</title>
<polygon fill="white" stroke="none" points="-4,4 -4,-147 225,-147 225,4 -4,4"/>
<!-- Node0 -->
<g id="node1" class="node"><title>Node0</title>
<polygon fill="#bfbfbf" stroke="black" points="0,-112.5 0,-142.5 146,-142.5 146,-112.5 0,-112.5"/>
<text text-anchor="start" x="8" y="-130.5" font-family="Helvetica,sans-Serif" font-size="10.00">src/hal/x4m0x_s70/libraries</text>
<text text-anchor="middle" x="73" y="-119.5" font-family="Helvetica,sans-Serif" font-size="10.00">/libusb/device/core/USBD.c</text>
</g>
<!-- Node1 -->
<g id="node2" class="node"><title>Node1</title>
<g id="a_node2"><a xlink:href="_u_s_b_d_8h.xhtml" target="_top" xlink:title="USBD.h">
<polygon fill="white" stroke="red" points="12,-0.5 12,-19.5 66,-19.5 66,-0.5 12,-0.5"/>
<text text-anchor="middle" x="39" y="-7.5" font-family="Helvetica,sans-Serif" font-size="10.00">USBD.h</text>
</a>
</g>
</g>
<!-- Node0&#45;&gt;Node1 -->
<g id="edge1" class="edge"><title>Node0&#45;&gt;Node1</title>
<path fill="none" stroke="midnightblue" d="M53.8014,-112.454C43.1196,-103.397 30.8328,-90.6029 25,-76 18.8582,-60.6235 23.9941,-42.0719 29.698,-28.7306"/>
<polygon fill="midnightblue" stroke="midnightblue" points="32.8664,-30.2176 33.9931,-19.6829 26.5427,-27.2157 32.8664,-30.2176"/>
</g>
<!-- Node11 -->
<g id="node3" class="node"><title>Node11</title>
<g id="a_node3"><a xlink:href="_u_s_b_d___h_a_l_8h.xhtml" target="_top" xlink:title="This file defines functions for USB Device Hardware Access Level. ">
<polygon fill="white" stroke="red" points="33.5,-56.5 33.5,-75.5 112.5,-75.5 112.5,-56.5 33.5,-56.5"/>
<text text-anchor="middle" x="73" y="-63.5" font-family="Helvetica,sans-Serif" font-size="10.00">USBD_HAL.h</text>
</a>
</g>
</g>
<!-- Node0&#45;&gt;Node11 -->
<g id="edge2" class="edge"><title>Node0&#45;&gt;Node11</title>
<path fill="none" stroke="midnightblue" d="M73,-112.399C73,-104.466 73,-94.458 73,-85.8583"/>
<polygon fill="midnightblue" stroke="midnightblue" points="76.5001,-85.6577 73,-75.6578 69.5001,-85.6578 76.5001,-85.6577"/>
</g>
<!-- Node12 -->
<g id="node4" class="node"><title>Node12</title>
<g id="a_node4"><a xlink:href="_u_s_b_lib___trace_8h.xhtml" target="_top" xlink:title="USBLib_Trace.h">
<polygon fill="white" stroke="red" points="131,-56.5 131,-75.5 221,-75.5 221,-56.5 131,-56.5"/>
<text text-anchor="middle" x="176" y="-63.5" font-family="Helvetica,sans-Serif" font-size="10.00">USBLib_Trace.h</text>
</a>
</g>
</g>
<!-- Node0&#45;&gt;Node12 -->
<g id="edge4" class="edge"><title>Node0&#45;&gt;Node12</title>
<path fill="none" stroke="midnightblue" d="M97.4096,-112.399C113.92,-102.862 135.623,-90.3248 152.038,-80.8422"/>
<polygon fill="midnightblue" stroke="midnightblue" points="154.104,-83.6906 161.013,-75.6578 150.603,-77.6292 154.104,-83.6906"/>
</g>
<!-- Node11&#45;&gt;Node1 -->
<g id="edge3" class="edge"><title>Node11&#45;&gt;Node1</title>
<path fill="none" stroke="midnightblue" d="M67.3856,-56.083C62.6326,-48.5341 55.6819,-37.4948 49.8484,-28.2298"/>
<polygon fill="midnightblue" stroke="midnightblue" points="52.7999,-26.3486 44.5099,-19.7511 46.8763,-30.0783 52.7999,-26.3486"/>
</g>
</g>
</svg>
