<?xml version="1.0" encoding="UTF-8" standalone="no"?>
<!DOCTYPE svg PUBLIC "-//W3C//DTD SVG 1.1//EN"
 "http://www.w3.org/Graphics/SVG/1.1/DTD/svg11.dtd">
<!-- Generated by graphviz version 2.38.0 (20140413.2041)
 -->
<!-- Title: src/hal/x4m0x_s70/libraries/libusb/device/core/USBDDriver.c Pages: 1 -->
<svg width="405pt" height="151pt"
 viewBox="0.00 0.00 404.50 151.00" xmlns="http://www.w3.org/2000/svg" xmlns:xlink="http://www.w3.org/1999/xlink">
<g id="graph0" class="graph" transform="scale(1 1) rotate(0) translate(4 147)">
<title>src/hal/x4m0x_s70/libraries/libusb/device/core/USBDDriver.c</title>
<polygon fill="white" stroke="none" points="-4,4 -4,-147 400.5,-147 400.5,4 -4,4"/>
<!-- Node0 -->
<g id="node1" class="node"><title>Node0</title>
<polygon fill="#bfbfbf" stroke="black" points="131.5,-112.5 131.5,-142.5 304.5,-142.5 304.5,-112.5 131.5,-112.5"/>
<text text-anchor="start" x="139.5" y="-130.5" font-family="Helvetica,sans-Serif" font-size="10.00">src/hal/x4m0x_s70/libraries</text>
<text text-anchor="middle" x="218" y="-119.5" font-family="Helvetica,sans-Serif" font-size="10.00">/libusb/device/core/USBDDriver.c</text>
</g>
<!-- Node1 -->
<g id="node2" class="node"><title>Node1</title>
<g id="a_node2"><a xlink:href="_u_s_b_lib___trace_8h.xhtml" target="_top" xlink:title="USBLib_Trace.h">
<polygon fill="white" stroke="red" points="0,-56.5 0,-75.5 90,-75.5 90,-56.5 0,-56.5"/>
<text text-anchor="middle" x="45" y="-63.5" font-family="Helvetica,sans-Serif" font-size="10.00">USBLib_Trace.h</text>
</a>
</g>
</g>
<!-- Node0&#45;&gt;Node1 -->
<g id="edge1" class="edge"><title>Node0&#45;&gt;Node1</title>
<path fill="none" stroke="midnightblue" d="M177.001,-112.399C147.368,-102.207 107.774,-88.5898 79.7017,-78.935"/>
<polygon fill="midnightblue" stroke="midnightblue" points="80.5152,-75.5136 69.9205,-75.5709 78.2385,-82.133 80.5152,-75.5136"/>
</g>
<!-- Node3 -->
<g id="node3" class="node"><title>Node3</title>
<g id="a_node3"><a xlink:href="_u_s_b_d_driver_8h.xhtml" target="_top" xlink:title="USBDDriver.h">
<polygon fill="white" stroke="red" points="108,-56.5 108,-75.5 190,-75.5 190,-56.5 108,-56.5"/>
<text text-anchor="middle" x="149" y="-63.5" font-family="Helvetica,sans-Serif" font-size="10.00">USBDDriver.h</text>
</a>
</g>
</g>
<!-- Node0&#45;&gt;Node3 -->
<g id="edge2" class="edge"><title>Node0&#45;&gt;Node3</title>
<path fill="none" stroke="midnightblue" d="M201.648,-112.399C191.105,-103.308 177.4,-91.4899 166.616,-82.1909"/>
<polygon fill="midnightblue" stroke="midnightblue" points="168.899,-79.5377 159.04,-75.6578 164.328,-84.8389 168.899,-79.5377"/>
</g>
<!-- Node12 -->
<g id="node4" class="node"><title>Node12</title>
<g id="a_node4"><a xlink:href="_u_s_b_d_8h.xhtml" target="_top" xlink:title="USBD.h">
<polygon fill="white" stroke="red" points="225,-0.5 225,-19.5 279,-19.5 279,-0.5 225,-0.5"/>
<text text-anchor="middle" x="252" y="-7.5" font-family="Helvetica,sans-Serif" font-size="10.00">USBD.h</text>
</a>
</g>
</g>
<!-- Node0&#45;&gt;Node12 -->
<g id="edge3" class="edge"><title>Node0&#45;&gt;Node12</title>
<path fill="none" stroke="midnightblue" d="M221.88,-112.425C225.836,-98.1729 232.198,-75.5118 238,-56 240.627,-47.1662 243.652,-37.394 246.217,-29.2196"/>
<polygon fill="midnightblue" stroke="midnightblue" points="249.579,-30.1969 249.251,-19.6071 242.904,-28.0898 249.579,-30.1969"/>
</g>
<!-- Node13 -->
<g id="node5" class="node"><title>Node13</title>
<g id="a_node5"><a xlink:href="_u_s_b_d___h_a_l_8h.xhtml" target="_top" xlink:title="This file defines functions for USB Device Hardware Access Level. ">
<polygon fill="white" stroke="red" points="246.5,-56.5 246.5,-75.5 325.5,-75.5 325.5,-56.5 246.5,-56.5"/>
<text text-anchor="middle" x="286" y="-63.5" font-family="Helvetica,sans-Serif" font-size="10.00">USBD_HAL.h</text>
</a>
</g>
</g>
<!-- Node0&#45;&gt;Node13 -->
<g id="edge4" class="edge"><title>Node0&#45;&gt;Node13</title>
<path fill="none" stroke="midnightblue" d="M234.115,-112.399C244.404,-103.397 257.747,-91.7214 268.326,-82.4652"/>
<polygon fill="midnightblue" stroke="midnightblue" points="270.884,-84.8769 276.105,-75.6578 266.275,-79.6088 270.884,-84.8769"/>
</g>
<!-- Node14 -->
<g id="node6" class="node"><title>Node14</title>
<polygon fill="white" stroke="#bfbfbf" points="343.5,-56.5 343.5,-75.5 396.5,-75.5 396.5,-56.5 343.5,-56.5"/>
<text text-anchor="middle" x="370" y="-63.5" font-family="Helvetica,sans-Serif" font-size="10.00">string.h</text>
</g>
<!-- Node0&#45;&gt;Node14 -->
<g id="edge6" class="edge"><title>Node0&#45;&gt;Node14</title>
<path fill="none" stroke="midnightblue" d="M254.022,-112.399C279.639,-102.372 313.727,-89.028 338.31,-79.405"/>
<polygon fill="midnightblue" stroke="midnightblue" points="339.846,-82.5622 347.883,-75.6578 337.295,-76.0438 339.846,-82.5622"/>
</g>
<!-- Node13&#45;&gt;Node12 -->
<g id="edge5" class="edge"><title>Node13&#45;&gt;Node12</title>
<path fill="none" stroke="midnightblue" d="M280.386,-56.083C275.633,-48.5341 268.682,-37.4948 262.848,-28.2298"/>
<polygon fill="midnightblue" stroke="midnightblue" points="265.8,-26.3486 257.51,-19.7511 259.876,-30.0783 265.8,-26.3486"/>
</g>
</g>
</svg>
