<?xml version="1.0" encoding="UTF-8" standalone="no"?>
<!DOCTYPE svg PUBLIC "-//W3C//DTD SVG 1.1//EN"
 "http://www.w3.org/Graphics/SVG/1.1/DTD/svg11.dtd">
<!-- Generated by graphviz version 2.38.0 (20140413.2041)
 -->
<!-- Title: src/hal/x4m0x_s70/libraries/libusb/device/core/USBDCallbacks_Resumed.c Pages: 1 -->
<svg width="190pt" height="106pt"
 viewBox="0.00 0.00 190.00 106.00" xmlns="http://www.w3.org/2000/svg" xmlns:xlink="http://www.w3.org/1999/xlink">
<g id="graph0" class="graph" transform="scale(1 1) rotate(0) translate(4 102)">
<title>src/hal/x4m0x_s70/libraries/libusb/device/core/USBDCallbacks_Resumed.c</title>
<polygon fill="white" stroke="none" points="-4,4 -4,-102 186,-102 186,4 -4,4"/>
<!-- Node0 -->
<g id="node1" class="node"><title>Node0</title>
<polygon fill="#bfbfbf" stroke="black" points="0,-56.5 0,-97.5 182,-97.5 182,-56.5 0,-56.5"/>
<text text-anchor="start" x="8" y="-85.5" font-family="Helvetica,sans-Serif" font-size="10.00">src/hal/x4m0x_s70/libraries</text>
<text text-anchor="start" x="8" y="-74.5" font-family="Helvetica,sans-Serif" font-size="10.00">/libusb/device/core/USBDCallbacks</text>
<text text-anchor="middle" x="91" y="-63.5" font-family="Helvetica,sans-Serif" font-size="10.00">_Resumed.c</text>
</g>
<!-- Node1 -->
<g id="node2" class="node"><title>Node1</title>
<g id="a_node2"><a xlink:href="_u_s_b_d_8h.xhtml" target="_top" xlink:title="USBD.h">
<polygon fill="white" stroke="red" points="21,-0.5 21,-19.5 75,-19.5 75,-0.5 21,-0.5"/>
<text text-anchor="middle" x="48" y="-7.5" font-family="Helvetica,sans-Serif" font-size="10.00">USBD.h</text>
</a>
</g>
</g>
<!-- Node0&#45;&gt;Node1 -->
<g id="edge1" class="edge"><title>Node0&#45;&gt;Node1</title>
<path fill="none" stroke="midnightblue" d="M78.0986,-56.4979C72.1398,-47.4904 65.126,-36.8881 59.3687,-28.1852"/>
<polygon fill="midnightblue" stroke="midnightblue" points="62.1604,-26.0616 53.724,-19.6525 56.3223,-29.9238 62.1604,-26.0616"/>
</g>
<!-- Node11 -->
<g id="node3" class="node"><title>Node11</title>
<g id="a_node3"><a xlink:href="_u_s_b_d___l_e_ds_8h.xhtml" target="_top" xlink:title="Collection of LEDs for using the USB device controller on AT91 Microcontrollers. ">
<polygon fill="white" stroke="red" points="93.5,-0.5 93.5,-19.5 176.5,-19.5 176.5,-0.5 93.5,-0.5"/>
<text text-anchor="middle" x="135" y="-7.5" font-family="Helvetica,sans-Serif" font-size="10.00">USBD_LEDs.h</text>
</a>
</g>
</g>
<!-- Node0&#45;&gt;Node11 -->
<g id="edge2" class="edge"><title>Node0&#45;&gt;Node11</title>
<path fill="none" stroke="midnightblue" d="M104.201,-56.4979C110.299,-47.4904 117.476,-36.8881 123.367,-28.1852"/>
<polygon fill="midnightblue" stroke="midnightblue" points="126.436,-29.8956 129.143,-19.6525 120.639,-25.9716 126.436,-29.8956"/>
</g>
</g>
</svg>
