<?xml version="1.0" encoding="UTF-8" standalone="no"?>
<!DOCTYPE svg PUBLIC "-//W3C//DTD SVG 1.1//EN"
 "http://www.w3.org/Graphics/SVG/1.1/DTD/svg11.dtd">
<!-- Generated by graphviz version 2.38.0 (20140413.2041)
 -->
<!-- Title: src/hal/x4m0x_s70/libraries/libusb/common/core/USBH_HAL.c Pages: 1 -->
<svg width="481pt" height="207pt"
 viewBox="0.00 0.00 480.50 207.00" xmlns="http://www.w3.org/2000/svg" xmlns:xlink="http://www.w3.org/1999/xlink">
<g id="graph0" class="graph" transform="scale(1 1) rotate(0) translate(4 203)">
<title>src/hal/x4m0x_s70/libraries/libusb/common/core/USBH_HAL.c</title>
<polygon fill="white" stroke="none" points="-4,4 -4,-203 476.5,-203 476.5,4 -4,4"/>
<!-- Node0 -->
<g id="node1" class="node"><title>Node0</title>
<polygon fill="#bfbfbf" stroke="black" points="125.5,-168.5 125.5,-198.5 307.5,-198.5 307.5,-168.5 125.5,-168.5"/>
<text text-anchor="start" x="133.5" y="-186.5" font-family="Helvetica,sans-Serif" font-size="10.00">src/hal/x4m0x_s70/libraries</text>
<text text-anchor="middle" x="216.5" y="-175.5" font-family="Helvetica,sans-Serif" font-size="10.00">/libusb/common/core/USBH_HAL.c</text>
</g>
<!-- Node1 -->
<g id="node2" class="node"><title>Node1</title>
<polygon fill="white" stroke="#bfbfbf" points="0,-112.5 0,-131.5 95,-131.5 95,-112.5 0,-112.5"/>
<text text-anchor="middle" x="47.5" y="-119.5" font-family="Helvetica,sans-Serif" font-size="10.00">conf_usb_host.h</text>
</g>
<!-- Node0&#45;&gt;Node1 -->
<g id="edge1" class="edge"><title>Node0&#45;&gt;Node1</title>
<path fill="none" stroke="midnightblue" d="M176.449,-168.399C147.588,-158.238 109.055,-144.672 81.6467,-135.022"/>
<polygon fill="midnightblue" stroke="midnightblue" points="82.6858,-131.677 72.091,-131.658 80.3611,-138.28 82.6858,-131.677"/>
</g>
<!-- Node2 -->
<g id="node3" class="node"><title>Node2</title>
<g id="a_node3"><a xlink:href="board_8h.xhtml" target="_top" xlink:title="Definition of SAM E70 Xplained board characteristics, PIOs and external components interface...">
<polygon fill="white" stroke="black" points="131,-0.5 131,-19.5 184,-19.5 184,-0.5 131,-0.5"/>
<text text-anchor="middle" x="157.5" y="-7.5" font-family="Helvetica,sans-Serif" font-size="10.00">board.h</text>
</a>
</g>
</g>
<!-- Node0&#45;&gt;Node2 -->
<g id="edge2" class="edge"><title>Node0&#45;&gt;Node2</title>
<path fill="none" stroke="midnightblue" d="M201.603,-168.394C182.963,-149.5 152.298,-113.931 142.5,-76 138.432,-60.2507 143.343,-42.2172 148.605,-29.1466"/>
<polygon fill="midnightblue" stroke="midnightblue" points="151.866,-30.426 152.735,-19.8668 145.471,-27.5795 151.866,-30.426"/>
</g>
<!-- Node3 -->
<g id="node4" class="node"><title>Node3</title>
<g id="a_node4"><a xlink:href="_u_s_b_h_driver_8h.xhtml" target="_top" xlink:title="Common API for USB Host Drivers (UHD) ">
<polygon fill="white" stroke="red" points="151.5,-56.5 151.5,-75.5 233.5,-75.5 233.5,-56.5 151.5,-56.5"/>
<text text-anchor="middle" x="192.5" y="-63.5" font-family="Helvetica,sans-Serif" font-size="10.00">USBHDriver.h</text>
</a>
</g>
</g>
<!-- Node0&#45;&gt;Node3 -->
<g id="edge3" class="edge"><title>Node0&#45;&gt;Node3</title>
<path fill="none" stroke="midnightblue" d="M202.76,-168.387C194.554,-158.934 184.897,-145.742 180.5,-132 175.533,-116.477 179.771,-98.1703 184.529,-84.9475"/>
<polygon fill="midnightblue" stroke="midnightblue" points="187.811,-86.1671 188.291,-75.5831 181.316,-83.558 187.811,-86.1671"/>
</g>
<!-- Node7 -->
<g id="node5" class="node"><title>Node7</title>
<g id="a_node5"><a xlink:href="_u_s_b_h_8h.xhtml" target="_top" xlink:title="Interface of the USB Host Controller (UHC) ">
<polygon fill="white" stroke="black" points="189.5,-112.5 189.5,-131.5 243.5,-131.5 243.5,-112.5 189.5,-112.5"/>
<text text-anchor="middle" x="216.5" y="-119.5" font-family="Helvetica,sans-Serif" font-size="10.00">USBH.h</text>
</a>
</g>
</g>
<!-- Node0&#45;&gt;Node7 -->
<g id="edge5" class="edge"><title>Node0&#45;&gt;Node7</title>
<path fill="none" stroke="midnightblue" d="M216.5,-168.399C216.5,-160.466 216.5,-150.458 216.5,-141.858"/>
<polygon fill="midnightblue" stroke="midnightblue" points="220,-141.658 216.5,-131.658 213,-141.658 220,-141.658"/>
</g>
<!-- Node8 -->
<g id="node6" class="node"><title>Node8</title>
<polygon fill="white" stroke="#bfbfbf" points="262,-112.5 262,-131.5 315,-131.5 315,-112.5 262,-112.5"/>
<text text-anchor="middle" x="288.5" y="-119.5" font-family="Helvetica,sans-Serif" font-size="10.00">string.h</text>
</g>
<!-- Node0&#45;&gt;Node8 -->
<g id="edge7" class="edge"><title>Node0&#45;&gt;Node8</title>
<path fill="none" stroke="midnightblue" d="M233.563,-168.399C244.565,-159.308 258.865,-147.49 270.118,-138.191"/>
<polygon fill="midnightblue" stroke="midnightblue" points="272.544,-140.726 278.023,-131.658 268.085,-135.33 272.544,-140.726"/>
</g>
<!-- Node9 -->
<g id="node7" class="node"><title>Node9</title>
<polygon fill="white" stroke="#bfbfbf" points="333,-112.5 333,-131.5 384,-131.5 384,-112.5 333,-112.5"/>
<text text-anchor="middle" x="358.5" y="-119.5" font-family="Helvetica,sans-Serif" font-size="10.00">stdlib.h</text>
</g>
<!-- Node0&#45;&gt;Node9 -->
<g id="edge8" class="edge"><title>Node0&#45;&gt;Node9</title>
<path fill="none" stroke="midnightblue" d="M250.152,-168.399C273.977,-158.416 305.646,-145.147 328.588,-135.534"/>
<polygon fill="midnightblue" stroke="midnightblue" points="329.967,-138.751 337.838,-131.658 327.262,-132.294 329.967,-138.751"/>
</g>
<!-- Node10 -->
<g id="node8" class="node"><title>Node10</title>
<polygon fill="white" stroke="#bfbfbf" points="402.5,-112.5 402.5,-131.5 472.5,-131.5 472.5,-112.5 402.5,-112.5"/>
<text text-anchor="middle" x="437.5" y="-119.5" font-family="Helvetica,sans-Serif" font-size="10.00">sleepmgr.h</text>
</g>
<!-- Node0&#45;&gt;Node10 -->
<g id="edge9" class="edge"><title>Node0&#45;&gt;Node10</title>
<path fill="none" stroke="midnightblue" d="M268.594,-168.475C307.554,-157.986 360.106,-143.837 396.189,-134.122"/>
<polygon fill="midnightblue" stroke="midnightblue" points="397.159,-137.486 405.905,-131.506 395.339,-130.727 397.159,-137.486"/>
</g>
<!-- Node3&#45;&gt;Node2 -->
<g id="edge4" class="edge"><title>Node3&#45;&gt;Node2</title>
<path fill="none" stroke="midnightblue" d="M186.72,-56.083C181.828,-48.5341 174.673,-37.4948 168.667,-28.2298"/>
<polygon fill="midnightblue" stroke="midnightblue" points="171.548,-26.239 163.172,-19.7511 165.674,-30.0463 171.548,-26.239"/>
</g>
<!-- Node7&#45;&gt;Node3 -->
<g id="edge6" class="edge"><title>Node7&#45;&gt;Node3</title>
<path fill="none" stroke="midnightblue" d="M212.537,-112.083C209.287,-104.77 204.581,-94.1814 200.546,-85.1034"/>
<polygon fill="midnightblue" stroke="midnightblue" points="203.649,-83.4677 196.389,-75.7511 197.252,-86.3107 203.649,-83.4677"/>
</g>
</g>
</svg>
