<?xml version="1.0" encoding="UTF-8" standalone="no"?>
<!DOCTYPE svg PUBLIC "-//W3C//DTD SVG 1.1//EN"
 "http://www.w3.org/Graphics/SVG/1.1/DTD/svg11.dtd">
<!-- Generated by graphviz version 2.38.0 (20140413.2041)
 -->
<!-- Title: _Afe_configureLinkList Pages: 1 -->
<svg width="324pt" height="66pt"
 viewBox="0.00 0.00 324.00 66.00" xmlns="http://www.w3.org/2000/svg" xmlns:xlink="http://www.w3.org/1999/xlink">
<g id="graph0" class="graph" transform="scale(1 1) rotate(0) translate(4 62)">
<title>_Afe_configureLinkList</title>
<polygon fill="white" stroke="none" points="-4,4 -4,-62 320,-62 320,4 -4,4"/>
<!-- Node0 -->
<g id="node1" class="node"><title>Node0</title>
<polygon fill="#bfbfbf" stroke="black" points="0,-19.5 0,-38.5 122,-38.5 122,-19.5 0,-19.5"/>
<text text-anchor="middle" x="61" y="-26.5" font-family="Helvetica,sans-Serif" font-size="10.00">_Afe_configureLinkList</text>
</g>
<!-- Node1 -->
<g id="node2" class="node"><title>Node1</title>
<g id="a_node2"><a xlink:href="xdma__hardware__interface_8h.xhtml#a1c7e741165685b3e072aa75e4cfb1034" target="_top" xlink:title="Get peripheral identifier coded for hardware handshaking interface. ">
<polygon fill="white" stroke="red" points="158,-38.5 158,-57.5 316,-57.5 316,-38.5 158,-38.5"/>
<text text-anchor="middle" x="237" y="-45.5" font-family="Helvetica,sans-Serif" font-size="10.00">XDMAIF_Get_ChannelNumber</text>
</a>
</g>
</g>
<!-- Node0&#45;&gt;Node1 -->
<g id="edge1" class="edge"><title>Node0&#45;&gt;Node1</title>
<path fill="none" stroke="midnightblue" d="M122.368,-35.592C130.623,-36.4933 139.231,-37.4333 147.854,-38.3749"/>
<polygon fill="midnightblue" stroke="midnightblue" points="147.643,-41.8725 157.963,-39.4788 148.403,-34.9139 147.643,-41.8725"/>
</g>
<!-- Node3 -->
<g id="node3" class="node"><title>Node3</title>
<g id="a_node3"><a xlink:href="group__dmad__functions.xhtml#ga075cce3b88af1fff5064218720811fc0" target="_top" xlink:title="Configure DMA for a single transfer. ">
<polygon fill="white" stroke="red" points="166.5,-0.5 166.5,-19.5 307.5,-19.5 307.5,-0.5 166.5,-0.5"/>
<text text-anchor="middle" x="237" y="-7.5" font-family="Helvetica,sans-Serif" font-size="10.00">XDMAD_ConfigureTransfer</text>
</a>
</g>
</g>
<!-- Node0&#45;&gt;Node3 -->
<g id="edge2" class="edge"><title>Node0&#45;&gt;Node3</title>
<path fill="none" stroke="midnightblue" d="M122.368,-22.408C133.376,-21.206 145.014,-19.9353 156.477,-18.6836"/>
<polygon fill="midnightblue" stroke="midnightblue" points="156.924,-22.1556 166.485,-17.5907 156.164,-15.197 156.924,-22.1556"/>
</g>
</g>
</svg>
