<?xml version="1.0" encoding="UTF-8" standalone="no"?>
<!DOCTYPE svg PUBLIC "-//W3C//DTD SVG 1.1//EN"
 "http://www.w3.org/Graphics/SVG/1.1/DTD/svg11.dtd">
<!-- Generated by graphviz version 2.38.0 (20140413.2041)
 -->
<!-- Title: Afe_Rx_Cb Pages: 1 -->
<svg width="236pt" height="154pt"
 viewBox="0.00 0.00 236.00 153.50" xmlns="http://www.w3.org/2000/svg" xmlns:xlink="http://www.w3.org/1999/xlink">
<g id="graph0" class="graph" transform="scale(1 1) rotate(0) translate(4 149.5)">
<title>Afe_Rx_Cb</title>
<polygon fill="white" stroke="none" points="-4,4 -4,-149.5 232,-149.5 232,4 -4,4"/>
<!-- Node53 -->
<g id="node1" class="node"><title>Node53</title>
<polygon fill="#bfbfbf" stroke="black" points="0,-69 0,-88 67,-88 67,-69 0,-69"/>
<text text-anchor="middle" x="33.5" y="-76" font-family="Helvetica,sans-Serif" font-size="10.00">Afe_Rx_Cb</text>
</g>
<!-- Node54 -->
<g id="node2" class="node"><title>Node54</title>
<g id="a_node2"><a xlink:href="group___c_m_s_i_s___core___n_v_i_c_functions.xhtml#ga332e10ef9605dc6eb10b9e14511930f8" target="_top" xlink:title="Clear Pending Interrupt. ">
<polygon fill="white" stroke="black" points="103.5,-126 103.5,-145 227.5,-145 227.5,-126 103.5,-126"/>
<text text-anchor="middle" x="165.5" y="-133" font-family="Helvetica,sans-Serif" font-size="10.00">NVIC_ClearPendingIRQ</text>
</a>
</g>
</g>
<!-- Node53&#45;&gt;Node54 -->
<g id="edge1" class="edge"><title>Node53&#45;&gt;Node54</title>
<path fill="none" stroke="midnightblue" d="M49.5482,-88.0408C63.1305,-96.3593 83.8599,-108.339 103,-116.5 108.334,-118.774 114.033,-120.908 119.729,-122.863"/>
<polygon fill="midnightblue" stroke="midnightblue" points="118.655,-126.194 129.247,-125.98 120.833,-119.542 118.655,-126.194"/>
</g>
<!-- Node55 -->
<g id="node3" class="node"><title>Node55</title>
<g id="a_node3"><a xlink:href="group___c_m_s_i_s___core___n_v_i_c_functions.xhtml#ga260fba04ac8346855c57f091d4ee1e71" target="_top" xlink:title="Disable External Interrupt. ">
<polygon fill="white" stroke="black" points="117.5,-88 117.5,-107 213.5,-107 213.5,-88 117.5,-88"/>
<text text-anchor="middle" x="165.5" y="-95" font-family="Helvetica,sans-Serif" font-size="10.00">NVIC_DisableIRQ</text>
</a>
</g>
</g>
<!-- Node53&#45;&gt;Node55 -->
<g id="edge2" class="edge"><title>Node53&#45;&gt;Node55</title>
<path fill="none" stroke="midnightblue" d="M67.3045,-83.2945C79.5309,-85.0814 93.7905,-87.1655 107.56,-89.178"/>
<polygon fill="midnightblue" stroke="midnightblue" points="107.063,-92.6424 117.464,-90.6255 108.075,-85.716 107.063,-92.6424"/>
</g>
<!-- Node56 -->
<g id="node4" class="node"><title>Node56</title>
<g id="a_node4"><a xlink:href="group__dmad__functions.xhtml#ga2a3178c1d2615b7a4d7a0005662cdd89" target="_top" xlink:title="Free the specified xDMA channel. ">
<polygon fill="white" stroke="black" points="107,-50 107,-69 224,-69 224,-50 107,-50"/>
<text text-anchor="middle" x="165.5" y="-57" font-family="Helvetica,sans-Serif" font-size="10.00">XDMAD_FreeChannel</text>
</a>
</g>
</g>
<!-- Node53&#45;&gt;Node56 -->
<g id="edge3" class="edge"><title>Node53&#45;&gt;Node56</title>
<path fill="none" stroke="midnightblue" d="M67.3045,-73.7055C76.4246,-72.3726 86.6761,-70.8743 97.0116,-69.3637"/>
<polygon fill="midnightblue" stroke="midnightblue" points="97.5237,-72.8261 106.912,-67.9167 96.5113,-65.8997 97.5237,-72.8261"/>
</g>
<!-- Node57 -->
<g id="node5" class="node"><title>Node57</title>
<g id="a_node5"><a xlink:href="group___c_m_s_i_s___core___cache_functions.xhtml#ga503ef7ef58c0773defd15a82f6336c09" target="_top" xlink:title="SCB_InvalidateDCache\l_by_Addr">
<polygon fill="white" stroke="red" points="103,-0.5 103,-30.5 228,-30.5 228,-0.5 103,-0.5"/>
<text text-anchor="start" x="111" y="-18.5" font-family="Helvetica,sans-Serif" font-size="10.00">SCB_InvalidateDCache</text>
<text text-anchor="middle" x="165.5" y="-7.5" font-family="Helvetica,sans-Serif" font-size="10.00">_by_Addr</text>
</a>
</g>
</g>
<!-- Node53&#45;&gt;Node57 -->
<g id="edge4" class="edge"><title>Node53&#45;&gt;Node57</title>
<path fill="none" stroke="midnightblue" d="M50.5422,-68.8789C64.2436,-60.8378 84.5985,-49.3049 103,-40.5 107.259,-38.4619 111.731,-36.4359 116.237,-34.4703"/>
<polygon fill="midnightblue" stroke="midnightblue" points="117.648,-37.6733 125.478,-30.5359 114.906,-31.2327 117.648,-37.6733"/>
</g>
</g>
</svg>
