<?xml version="1.0" encoding="UTF-8" standalone="no"?>
<!DOCTYPE svg PUBLIC "-//W3C//DTD SVG 1.1//EN"
 "http://www.w3.org/Graphics/SVG/1.1/DTD/svg11.dtd">
<!-- Generated by graphviz version 2.38.0 (20140413.2041)
 -->
<!-- Title: src/hal/x4m0x_s70/libraries/libchip/include/cmsis/CMSIS/Include/arm_math.h Pages: 1 -->
<svg width="159pt" height="106pt"
 viewBox="0.00 0.00 159.00 106.00" xmlns="http://www.w3.org/2000/svg" xmlns:xlink="http://www.w3.org/1999/xlink">
<g id="graph0" class="graph" transform="scale(1 1) rotate(0) translate(4 102)">
<title>src/hal/x4m0x_s70/libraries/libchip/include/cmsis/CMSIS/Include/arm_math.h</title>
<polygon fill="white" stroke="none" points="-4,4 -4,-102 155,-102 155,4 -4,4"/>
<!-- Node0 -->
<g id="node1" class="node"><title>Node0</title>
<polygon fill="#bfbfbf" stroke="black" points="0,-56.5 0,-97.5 151,-97.5 151,-56.5 0,-56.5"/>
<text text-anchor="start" x="8" y="-85.5" font-family="Helvetica,sans-Serif" font-size="10.00">src/hal/x4m0x_s70/libraries</text>
<text text-anchor="start" x="8" y="-74.5" font-family="Helvetica,sans-Serif" font-size="10.00">/libchip/include/cmsis/CMSIS</text>
<text text-anchor="middle" x="75.5" y="-63.5" font-family="Helvetica,sans-Serif" font-size="10.00">/Include/arm_math.h</text>
</g>
<!-- Node1 -->
<g id="node2" class="node"><title>Node1</title>
<polygon fill="white" stroke="#bfbfbf" points="14,-0.5 14,-19.5 67,-19.5 67,-0.5 14,-0.5"/>
<text text-anchor="middle" x="40.5" y="-7.5" font-family="Helvetica,sans-Serif" font-size="10.00">string.h</text>
</g>
<!-- Node0&#45;&gt;Node1 -->
<g id="edge1" class="edge"><title>Node0&#45;&gt;Node1</title>
<path fill="none" stroke="midnightblue" d="M64.9988,-56.4979C60.2003,-47.5862 54.5611,-37.1135 49.9035,-28.4636"/>
<polygon fill="midnightblue" stroke="midnightblue" points="52.9817,-26.7978 45.159,-19.6525 46.8184,-30.1166 52.9817,-26.7978"/>
</g>
<!-- Node2 -->
<g id="node3" class="node"><title>Node2</title>
<g id="a_node3"><a xlink:href="math_8h.xhtml" target="_top" xlink:title="math.h">
<polygon fill="white" stroke="black" points="85,-0.5 85,-19.5 136,-19.5 136,-0.5 85,-0.5"/>
<text text-anchor="middle" x="110.5" y="-7.5" font-family="Helvetica,sans-Serif" font-size="10.00">math.h</text>
</a>
</g>
</g>
<!-- Node0&#45;&gt;Node2 -->
<g id="edge2" class="edge"><title>Node0&#45;&gt;Node2</title>
<path fill="none" stroke="midnightblue" d="M86.0012,-56.4979C90.7997,-47.5862 96.4389,-37.1135 101.097,-28.4636"/>
<polygon fill="midnightblue" stroke="midnightblue" points="104.182,-30.1166 105.841,-19.6525 98.0183,-26.7978 104.182,-30.1166"/>
</g>
</g>
</svg>
