<?xml version="1.0" encoding="UTF-8" standalone="no"?>
<!DOCTYPE svg PUBLIC "-//W3C//DTD SVG 1.1//EN"
 "http://www.w3.org/Graphics/SVG/1.1/DTD/svg11.dtd">
<!-- Generated by graphviz version 2.38.0 (20140413.2041)
 -->
<!-- Title: src/hal/x4m0x_s70/board_x4m0x_s70.h Pages: 1 -->
<svg width="598pt" height="95pt"
 viewBox="0.00 0.00 598.00 95.00" xmlns="http://www.w3.org/2000/svg" xmlns:xlink="http://www.w3.org/1999/xlink">
<g id="graph0" class="graph" transform="scale(1 1) rotate(0) translate(4 91)">
<title>src/hal/x4m0x_s70/board_x4m0x_s70.h</title>
<polygon fill="white" stroke="none" points="-4,4 -4,-91 594,-91 594,4 -4,4"/>
<!-- Node0 -->
<g id="node1" class="node"><title>Node0</title>
<polygon fill="#bfbfbf" stroke="black" points="215,-56.5 215,-86.5 352,-86.5 352,-56.5 215,-56.5"/>
<text text-anchor="start" x="223" y="-74.5" font-family="Helvetica,sans-Serif" font-size="10.00">src/hal/x4m0x_s70/board</text>
<text text-anchor="middle" x="283.5" y="-63.5" font-family="Helvetica,sans-Serif" font-size="10.00">_x4m0x_s70.h</text>
</g>
<!-- Node1 -->
<g id="node2" class="node"><title>Node1</title>
<g id="a_node2"><a xlink:href="chip_8h.xhtml" target="_top" xlink:title="chip.h">
<polygon fill="white" stroke="red" points="0,-0.5 0,-19.5 45,-19.5 45,-0.5 0,-0.5"/>
<text text-anchor="middle" x="22.5" y="-7.5" font-family="Helvetica,sans-Serif" font-size="10.00">chip.h</text>
</a>
</g>
</g>
<!-- Node0&#45;&gt;Node1 -->
<g id="edge1" class="edge"><title>Node0&#45;&gt;Node1</title>
<path fill="none" stroke="midnightblue" d="M214.784,-56.6582C171.343,-47.6184 113.827,-35.1222 54.978,-20.2641"/>
<polygon fill="midnightblue" stroke="midnightblue" points="55.6936,-16.8348 45.1394,-17.7609 53.9676,-23.6187 55.6936,-16.8348"/>
</g>
<!-- Node39 -->
<g id="node3" class="node"><title>Node39</title>
<g id="a_node3"><a xlink:href="board__lowlevel_8h.xhtml" target="_top" xlink:title="Interface for the low&#45;level initialization function. ">
<polygon fill="white" stroke="black" points="63,-0.5 63,-19.5 158,-19.5 158,-0.5 63,-0.5"/>
<text text-anchor="middle" x="110.5" y="-7.5" font-family="Helvetica,sans-Serif" font-size="10.00">board_lowlevel.h</text>
</a>
</g>
</g>
<!-- Node0&#45;&gt;Node39 -->
<g id="edge2" class="edge"><title>Node0&#45;&gt;Node39</title>
<path fill="none" stroke="midnightblue" d="M242.501,-56.3993C212.868,-46.2074 173.274,-32.5898 145.202,-22.935"/>
<polygon fill="midnightblue" stroke="midnightblue" points="146.015,-19.5136 135.42,-19.5709 143.739,-26.133 146.015,-19.5136"/>
</g>
<!-- Node40 -->
<g id="node4" class="node"><title>Node40</title>
<g id="a_node4"><a xlink:href="board__memories_8h.xhtml" target="_top" xlink:title="Interface for memories configuration on board. ">
<polygon fill="white" stroke="black" points="176,-0.5 176,-19.5 283,-19.5 283,-0.5 176,-0.5"/>
<text text-anchor="middle" x="229.5" y="-7.5" font-family="Helvetica,sans-Serif" font-size="10.00">board_memories.h</text>
</a>
</g>
</g>
<!-- Node0&#45;&gt;Node40 -->
<g id="edge3" class="edge"><title>Node0&#45;&gt;Node40</title>
<path fill="none" stroke="midnightblue" d="M270.703,-56.3993C262.775,-47.6641 252.564,-36.4126 244.29,-27.2962"/>
<polygon fill="midnightblue" stroke="midnightblue" points="246.67,-24.7106 237.357,-19.6578 241.486,-29.415 246.67,-24.7106"/>
</g>
<!-- Node41 -->
<g id="node5" class="node"><title>Node41</title>
<g id="a_node5"><a xlink:href="xtcompiler_8h.xhtml" target="_top" xlink:title="xtcompiler.h">
<polygon fill="white" stroke="black" points="301,-0.5 301,-19.5 376,-19.5 376,-0.5 301,-0.5"/>
<text text-anchor="middle" x="338.5" y="-7.5" font-family="Helvetica,sans-Serif" font-size="10.00">xtcompiler.h</text>
</a>
</g>
</g>
<!-- Node0&#45;&gt;Node41 -->
<g id="edge4" class="edge"><title>Node0&#45;&gt;Node41</title>
<path fill="none" stroke="midnightblue" d="M296.534,-56.3993C304.691,-47.575 315.222,-36.1827 323.694,-27.0178"/>
<polygon fill="midnightblue" stroke="midnightblue" points="326.279,-29.3769 330.497,-19.6578 321.139,-24.6253 326.279,-29.3769"/>
</g>
<!-- Node42 -->
<g id="node6" class="node"><title>Node42</title>
<g id="a_node6"><a xlink:href="led_8h.xhtml" target="_top" xlink:title="include/led.h">
<polygon fill="white" stroke="red" points="394,-0.5 394,-19.5 471,-19.5 471,-0.5 394,-0.5"/>
<text text-anchor="middle" x="432.5" y="-7.5" font-family="Helvetica,sans-Serif" font-size="10.00">include/led.h</text>
</a>
</g>
</g>
<!-- Node0&#45;&gt;Node42 -->
<g id="edge5" class="edge"><title>Node0&#45;&gt;Node42</title>
<path fill="none" stroke="midnightblue" d="M318.811,-56.3993C343.922,-46.3717 377.337,-33.028 401.435,-23.405"/>
<polygon fill="midnightblue" stroke="midnightblue" points="402.83,-26.6168 410.819,-19.6578 400.234,-20.1159 402.83,-26.6168"/>
</g>
<!-- Node43 -->
<g id="node7" class="node"><title>Node43</title>
<g id="a_node7"><a xlink:href="_free_r_t_o_s_config_8h.xhtml" target="_top" xlink:title="Generic FreeRTOS peripheral control functions. ">
<polygon fill="white" stroke="black" points="489,-0.5 489,-19.5 590,-19.5 590,-0.5 489,-0.5"/>
<text text-anchor="middle" x="539.5" y="-7.5" font-family="Helvetica,sans-Serif" font-size="10.00">FreeRTOSConfig.h</text>
</a>
</g>
</g>
<!-- Node0&#45;&gt;Node43 -->
<g id="edge6" class="edge"><title>Node0&#45;&gt;Node43</title>
<path fill="none" stroke="midnightblue" d="M343.844,-56.4747C389.456,-45.8735 451.152,-31.534 492.98,-21.8123"/>
<polygon fill="midnightblue" stroke="midnightblue" points="493.953,-25.1795 502.901,-19.5064 492.368,-18.3612 493.953,-25.1795"/>
</g>
</g>
</svg>
