<?xml version="1.0" encoding="UTF-8" standalone="no"?>
<!DOCTYPE svg PUBLIC "-//W3C//DTD SVG 1.1//EN"
 "http://www.w3.org/Graphics/SVG/1.1/DTD/svg11.dtd">
<!-- Generated by graphviz version 2.38.0 (20140413.2041)
 -->
<!-- Title: BOARD_ConfigureAndTestSdram Pages: 1 -->
<svg width="350pt" height="166pt"
 viewBox="0.00 0.00 350.00 165.50" xmlns="http://www.w3.org/2000/svg" xmlns:xlink="http://www.w3.org/1999/xlink">
<g id="graph0" class="graph" transform="scale(1 1) rotate(0) translate(4 161.5)">
<title>BOARD_ConfigureAndTestSdram</title>
<polygon fill="white" stroke="none" points="-4,4 -4,-161.5 346,-161.5 346,4 -4,4"/>
<!-- Node0 -->
<g id="node1" class="node"><title>Node0</title>
<polygon fill="#bfbfbf" stroke="black" points="0,-72 0,-91 172,-91 172,-72 0,-72"/>
<text text-anchor="middle" x="86" y="-79" font-family="Helvetica,sans-Serif" font-size="10.00">BOARD_ConfigureAndTestSdram</text>
</g>
<!-- Node1 -->
<g id="node2" class="node"><title>Node1</title>
<g id="a_node2"><a xlink:href="xep__hal_8h.xhtml#af1f57228b9448df87a3f5f30968b3fa8" target="_top" xlink:title="Gets the operation mode of the module. ">
<polygon fill="white" stroke="red" points="209.5,-138 209.5,-157 340.5,-157 340.5,-138 209.5,-138"/>
<text text-anchor="middle" x="275" y="-145" font-family="Helvetica,sans-Serif" font-size="10.00">xt_get_operation_mode</text>
</a>
</g>
</g>
<!-- Node0&#45;&gt;Node1 -->
<g id="edge1" class="edge"><title>Node0&#45;&gt;Node1</title>
<path fill="none" stroke="midnightblue" d="M109.969,-91.1362C134.141,-101.108 173.407,-116.829 208,-128.5 214.604,-130.728 221.633,-132.929 228.549,-135"/>
<polygon fill="midnightblue" stroke="midnightblue" points="227.957,-138.473 238.538,-137.927 229.926,-131.756 227.957,-138.473"/>
</g>
<!-- Node17 -->
<g id="node3" class="node"><title>Node17</title>
<g id="a_node3"><a xlink:href="xt__selftest_8c.xhtml#abc3c1300afe15432d14d378d288dbed5" target="_top" xlink:title="xt_selftest_ext_ram\l_shorts">
<polygon fill="white" stroke="red" points="219.5,-88.5 219.5,-118.5 330.5,-118.5 330.5,-88.5 219.5,-88.5"/>
<text text-anchor="start" x="227.5" y="-106.5" font-family="Helvetica,sans-Serif" font-size="10.00">xt_selftest_ext_ram</text>
<text text-anchor="middle" x="275" y="-95.5" font-family="Helvetica,sans-Serif" font-size="10.00">_shorts</text>
</a>
</g>
</g>
<!-- Node0&#45;&gt;Node17 -->
<g id="edge2" class="edge"><title>Node0&#45;&gt;Node17</title>
<path fill="none" stroke="midnightblue" d="M167.933,-91.0216C181.777,-92.6503 195.995,-94.323 209.344,-95.8934"/>
<polygon fill="midnightblue" stroke="midnightblue" points="209.021,-99.3795 219.362,-97.072 209.839,-92.4275 209.021,-99.3795"/>
</g>
<!-- Node20 -->
<g id="node4" class="node"><title>Node20</title>
<g id="a_node4"><a xlink:href="board__memories_8c.xhtml#a0e0e3f4ee2328faeb9f45c5fc591f8de" target="_top" xlink:title="Configures the EBI for SDRAM (IS42S16100E&#45;7B) access. ">
<polygon fill="white" stroke="red" points="208,-50 208,-69 342,-69 342,-50 208,-50"/>
<text text-anchor="middle" x="275" y="-57" font-family="Helvetica,sans-Serif" font-size="10.00">BOARD_ConfigureSdram</text>
</a>
</g>
</g>
<!-- Node0&#45;&gt;Node20 -->
<g id="edge3" class="edge"><title>Node0&#45;&gt;Node20</title>
<path fill="none" stroke="midnightblue" d="M167.933,-71.9784C177.823,-70.8149 187.905,-69.6289 197.723,-68.4737"/>
<polygon fill="midnightblue" stroke="midnightblue" points="198.319,-71.9279 207.842,-67.2833 197.501,-64.9758 198.319,-71.9279"/>
</g>
<!-- Node22 -->
<g id="node5" class="node"><title>Node22</title>
<g id="a_node5"><a xlink:href="xt__selftest_8c.xhtml#a0d0c415bbb59ac93d3d4bd7dd75934a0" target="_top" xlink:title="xt_selftest_ext_ram\l_functionality">
<polygon fill="white" stroke="red" points="219.5,-0.5 219.5,-30.5 330.5,-30.5 330.5,-0.5 219.5,-0.5"/>
<text text-anchor="start" x="227.5" y="-18.5" font-family="Helvetica,sans-Serif" font-size="10.00">xt_selftest_ext_ram</text>
<text text-anchor="middle" x="275" y="-7.5" font-family="Helvetica,sans-Serif" font-size="10.00">_functionality</text>
</a>
</g>
</g>
<!-- Node0&#45;&gt;Node22 -->
<g id="edge4" class="edge"><title>Node0&#45;&gt;Node22</title>
<path fill="none" stroke="midnightblue" d="M114.191,-71.903C142.247,-62.0012 186.712,-46.3075 221.624,-33.9855"/>
<polygon fill="midnightblue" stroke="midnightblue" points="222.931,-37.2359 231.196,-30.6071 220.602,-30.6349 222.931,-37.2359"/>
</g>
</g>
</svg>
