<?xml version="1.0" encoding="UTF-8" standalone="no"?>
<!DOCTYPE svg PUBLIC "-//W3C//DTD SVG 1.1//EN"
 "http://www.w3.org/Graphics/SVG/1.1/DTD/svg11.dtd">
<!-- Generated by graphviz version 2.38.0 (20140413.2041)
 -->
<!-- Title: src/hal/x4m0x_s70/libraries/libusb/device/ccid/cciddriver.c Pages: 1 -->
<svg width="812pt" height="151pt"
 viewBox="0.00 0.00 812.00 151.00" xmlns="http://www.w3.org/2000/svg" xmlns:xlink="http://www.w3.org/1999/xlink">
<g id="graph0" class="graph" transform="scale(1 1) rotate(0) translate(4 147)">
<title>src/hal/x4m0x_s70/libraries/libusb/device/ccid/cciddriver.c</title>
<polygon fill="white" stroke="none" points="-4,4 -4,-147 808,-147 808,4 -4,4"/>
<!-- Node0 -->
<g id="node1" class="node"><title>Node0</title>
<polygon fill="#bfbfbf" stroke="black" points="287,-112.5 287,-142.5 446,-142.5 446,-112.5 287,-112.5"/>
<text text-anchor="start" x="295" y="-130.5" font-family="Helvetica,sans-Serif" font-size="10.00">src/hal/x4m0x_s70/libraries</text>
<text text-anchor="middle" x="366.5" y="-119.5" font-family="Helvetica,sans-Serif" font-size="10.00">/libusb/device/ccid/cciddriver.c</text>
</g>
<!-- Node1 -->
<g id="node2" class="node"><title>Node1</title>
<g id="a_node2"><a xlink:href="_u_s_b_d___config_8h.xhtml" target="_top" xlink:title="USB Device Framework configurations. ">
<polygon fill="white" stroke="red" points="0,-56.5 0,-75.5 89,-75.5 89,-56.5 0,-56.5"/>
<text text-anchor="middle" x="44.5" y="-63.5" font-family="Helvetica,sans-Serif" font-size="10.00">USBD_Config.h</text>
</a>
</g>
</g>
<!-- Node0&#45;&gt;Node1 -->
<g id="edge1" class="edge"><title>Node0&#45;&gt;Node1</title>
<path fill="none" stroke="midnightblue" d="M290.598,-112.475C231.855,-101.62 151.902,-86.846 99.2824,-77.1228"/>
<polygon fill="midnightblue" stroke="midnightblue" points="99.6068,-73.6236 89.1372,-75.2482 98.3348,-80.5071 99.6068,-73.6236"/>
</g>
<!-- Node3 -->
<g id="node3" class="node"><title>Node3</title>
<g id="a_node3"><a xlink:href="_u_s_b_lib___trace_8h.xhtml" target="_top" xlink:title="USBLib_Trace.h">
<polygon fill="white" stroke="red" points="107.5,-56.5 107.5,-75.5 197.5,-75.5 197.5,-56.5 107.5,-56.5"/>
<text text-anchor="middle" x="152.5" y="-63.5" font-family="Helvetica,sans-Serif" font-size="10.00">USBLib_Trace.h</text>
</a>
</g>
</g>
<!-- Node0&#45;&gt;Node3 -->
<g id="edge2" class="edge"><title>Node0&#45;&gt;Node3</title>
<path fill="none" stroke="midnightblue" d="M316.056,-112.475C278.492,-102.03 227.877,-87.9576 192.951,-78.2469"/>
<polygon fill="midnightblue" stroke="midnightblue" points="193.666,-74.8131 183.094,-75.5064 191.791,-81.5573 193.666,-74.8131"/>
</g>
<!-- Node5 -->
<g id="node4" class="node"><title>Node5</title>
<g id="a_node4"><a xlink:href="_u_s_b_d_8h.xhtml" target="_top" xlink:title="USBD.h">
<polygon fill="white" stroke="red" points="215.5,-56.5 215.5,-75.5 269.5,-75.5 269.5,-56.5 215.5,-56.5"/>
<text text-anchor="middle" x="242.5" y="-63.5" font-family="Helvetica,sans-Serif" font-size="10.00">USBD.h</text>
</a>
</g>
</g>
<!-- Node0&#45;&gt;Node5 -->
<g id="edge3" class="edge"><title>Node0&#45;&gt;Node5</title>
<path fill="none" stroke="midnightblue" d="M337.114,-112.399C316.68,-102.595 289.64,-89.6194 269.701,-80.052"/>
<polygon fill="midnightblue" stroke="midnightblue" points="271.073,-76.8284 260.543,-75.6578 268.045,-83.1395 271.073,-76.8284"/>
</g>
<!-- Node8 -->
<g id="node5" class="node"><title>Node8</title>
<g id="a_node5"><a xlink:href="_u_s_b_requests_8h.xhtml" target="_top" xlink:title="USBRequests.h">
<polygon fill="white" stroke="red" points="252.5,-0.5 252.5,-19.5 342.5,-19.5 342.5,-0.5 252.5,-0.5"/>
<text text-anchor="middle" x="297.5" y="-7.5" font-family="Helvetica,sans-Serif" font-size="10.00">USBRequests.h</text>
</a>
</g>
</g>
<!-- Node0&#45;&gt;Node8 -->
<g id="edge7" class="edge"><title>Node0&#45;&gt;Node8</title>
<path fill="none" stroke="midnightblue" d="M348.49,-112.309C337.802,-103.02 324.767,-90.0316 316.5,-76 308.014,-61.5969 303.094,-43.1414 300.395,-29.5783"/>
<polygon fill="midnightblue" stroke="midnightblue" points="303.807,-28.7717 298.622,-19.5323 296.914,-29.9885 303.807,-28.7717"/>
</g>
<!-- Node14 -->
<g id="node6" class="node"><title>Node14</title>
<g id="a_node6"><a xlink:href="_u_s_b_d_driver_8h.xhtml" target="_top" xlink:title="USBDDriver.h">
<polygon fill="white" stroke="red" points="325.5,-56.5 325.5,-75.5 407.5,-75.5 407.5,-56.5 325.5,-56.5"/>
<text text-anchor="middle" x="366.5" y="-63.5" font-family="Helvetica,sans-Serif" font-size="10.00">USBDDriver.h</text>
</a>
</g>
</g>
<!-- Node0&#45;&gt;Node14 -->
<g id="edge5" class="edge"><title>Node0&#45;&gt;Node14</title>
<path fill="none" stroke="midnightblue" d="M366.5,-112.399C366.5,-104.466 366.5,-94.458 366.5,-85.8583"/>
<polygon fill="midnightblue" stroke="midnightblue" points="370,-85.6577 366.5,-75.6578 363,-85.6578 370,-85.6577"/>
</g>
<!-- Node15 -->
<g id="node7" class="node"><title>Node15</title>
<g id="a_node7"><a xlink:href="cciddriver_8h.xhtml" target="_top" xlink:title=" ">
<polygon fill="white" stroke="black" points="426,-56.5 426,-75.5 497,-75.5 497,-56.5 426,-56.5"/>
<text text-anchor="middle" x="461.5" y="-63.5" font-family="Helvetica,sans-Serif" font-size="10.00">cciddriver.h</text>
</a>
</g>
</g>
<!-- Node0&#45;&gt;Node15 -->
<g id="edge8" class="edge"><title>Node0&#45;&gt;Node15</title>
<path fill="none" stroke="midnightblue" d="M389.014,-112.399C404.099,-102.951 423.885,-90.5589 438.973,-81.1089"/>
<polygon fill="midnightblue" stroke="midnightblue" points="441.059,-83.9321 447.677,-75.6578 437.344,-77.9996 441.059,-83.9321"/>
</g>
<!-- Node16 -->
<g id="node8" class="node"><title>Node16</title>
<g id="a_node8"><a xlink:href="cciddriverdescriptors_8h.xhtml" target="_top" xlink:title="Title: cciddriverdescriptors.h. ">
<polygon fill="white" stroke="black" points="515,-56.5 515,-75.5 640,-75.5 640,-56.5 515,-56.5"/>
<text text-anchor="middle" x="577.5" y="-63.5" font-family="Helvetica,sans-Serif" font-size="10.00">cciddriverdescriptors.h</text>
</a>
</g>
</g>
<!-- Node0&#45;&gt;Node16 -->
<g id="edge9" class="edge"><title>Node0&#45;&gt;Node16</title>
<path fill="none" stroke="midnightblue" d="M416.237,-112.475C453.275,-102.03 503.18,-87.9576 537.616,-78.2469"/>
<polygon fill="midnightblue" stroke="midnightblue" points="538.66,-81.5891 547.335,-75.5064 536.76,-74.8519 538.66,-81.5891"/>
</g>
<!-- Node17 -->
<g id="node9" class="node"><title>Node17</title>
<g id="a_node9"><a xlink:href="iso7816__4_8h.xhtml" target="_top" xlink:title="iso7816_4.h">
<polygon fill="white" stroke="red" points="658.5,-56.5 658.5,-75.5 732.5,-75.5 732.5,-56.5 658.5,-56.5"/>
<text text-anchor="middle" x="695.5" y="-63.5" font-family="Helvetica,sans-Serif" font-size="10.00">iso7816_4.h</text>
</a>
</g>
</g>
<!-- Node0&#45;&gt;Node17 -->
<g id="edge10" class="edge"><title>Node0&#45;&gt;Node17</title>
<path fill="none" stroke="midnightblue" d="M446.159,-112.649C500.462,-103.123 574.275,-90.0076 648.373,-76.1882"/>
<polygon fill="midnightblue" stroke="midnightblue" points="649.166,-79.6006 658.353,-74.3229 647.88,-72.7197 649.166,-79.6006"/>
</g>
<!-- Node50 -->
<g id="node10" class="node"><title>Node50</title>
<polygon fill="white" stroke="#bfbfbf" points="751,-56.5 751,-75.5 804,-75.5 804,-56.5 751,-56.5"/>
<text text-anchor="middle" x="777.5" y="-63.5" font-family="Helvetica,sans-Serif" font-size="10.00">string.h</text>
</g>
<!-- Node0&#45;&gt;Node50 -->
<g id="edge11" class="edge"><title>Node0&#45;&gt;Node50</title>
<path fill="none" stroke="midnightblue" d="M446.289,-118.357C520.184,-110.221 633.271,-96.2655 740.785,-75.9387"/>
<polygon fill="midnightblue" stroke="midnightblue" points="741.672,-79.3325 750.837,-74.0163 740.358,-72.4571 741.672,-79.3325"/>
</g>
<!-- Node5&#45;&gt;Node8 -->
<g id="edge4" class="edge"><title>Node5&#45;&gt;Node8</title>
<path fill="none" stroke="midnightblue" d="M251.582,-56.083C259.671,-48.1409 271.695,-36.3354 281.41,-26.7973"/>
<polygon fill="midnightblue" stroke="midnightblue" points="283.903,-29.2545 288.587,-19.7511 278.999,-24.2595 283.903,-29.2545"/>
</g>
<!-- Node14&#45;&gt;Node8 -->
<g id="edge6" class="edge"><title>Node14&#45;&gt;Node8</title>
<path fill="none" stroke="midnightblue" d="M355.414,-56.324C345.014,-48.1849 329.239,-35.8395 316.778,-26.0874"/>
<polygon fill="midnightblue" stroke="midnightblue" points="318.82,-23.2407 308.788,-19.8339 314.506,-28.7533 318.82,-23.2407"/>
</g>
</g>
</svg>
