<?xml version="1.0" encoding="UTF-8" standalone="no"?>
<!DOCTYPE svg PUBLIC "-//W3C//DTD SVG 1.1//EN"
 "http://www.w3.org/Graphics/SVG/1.1/DTD/svg11.dtd">
<!-- Generated by graphviz version 2.38.0 (20140413.2041)
 -->
<!-- Title: src/hal/x4m0x_s70/conf_usb.h Pages: 1 -->
<svg width="250pt" height="95pt"
 viewBox="0.00 0.00 250.00 95.00" xmlns="http://www.w3.org/2000/svg" xmlns:xlink="http://www.w3.org/1999/xlink">
<g id="graph0" class="graph" transform="scale(1 1) rotate(0) translate(4 91)">
<title>src/hal/x4m0x_s70/conf_usb.h</title>
<polygon fill="white" stroke="none" points="-4,4 -4,-91 246,-91 246,4 -4,4"/>
<!-- Node0 -->
<g id="node1" class="node"><title>Node0</title>
<polygon fill="#bfbfbf" stroke="black" points="46.5,-56.5 46.5,-86.5 175.5,-86.5 175.5,-56.5 46.5,-56.5"/>
<text text-anchor="start" x="54.5" y="-74.5" font-family="Helvetica,sans-Serif" font-size="10.00">src/hal/x4m0x_s70/conf</text>
<text text-anchor="middle" x="111" y="-63.5" font-family="Helvetica,sans-Serif" font-size="10.00">_usb.h</text>
</g>
<!-- Node1 -->
<g id="node2" class="node"><title>Node1</title>
<g id="a_node2"><a xlink:href="compiler_8h.xhtml" target="_top" xlink:title="compiler.h">
<polygon fill="white" stroke="red" points="0,-0.5 0,-19.5 66,-19.5 66,-0.5 0,-0.5"/>
<text text-anchor="middle" x="33" y="-7.5" font-family="Helvetica,sans-Serif" font-size="10.00">compiler.h</text>
</a>
</g>
</g>
<!-- Node0&#45;&gt;Node1 -->
<g id="edge1" class="edge"><title>Node0&#45;&gt;Node1</title>
<path fill="none" stroke="midnightblue" d="M92.5151,-56.3993C80.4797,-47.2185 64.8003,-35.2579 52.5566,-25.9182"/>
<polygon fill="midnightblue" stroke="midnightblue" points="54.4233,-22.9401 44.3497,-19.6578 50.1777,-28.5056 54.4233,-22.9401"/>
</g>
<!-- Node6 -->
<g id="node3" class="node"><title>Node6</title>
<g id="a_node3"><a xlink:href="board_8h.xhtml" target="_top" xlink:title="Definition of SAM E70 Xplained board characteristics, PIOs and external components interface...">
<polygon fill="white" stroke="black" points="84.5,-0.5 84.5,-19.5 137.5,-19.5 137.5,-0.5 84.5,-0.5"/>
<text text-anchor="middle" x="111" y="-7.5" font-family="Helvetica,sans-Serif" font-size="10.00">board.h</text>
</a>
</g>
</g>
<!-- Node0&#45;&gt;Node6 -->
<g id="edge2" class="edge"><title>Node0&#45;&gt;Node6</title>
<path fill="none" stroke="midnightblue" d="M111,-56.3993C111,-48.4664 111,-38.458 111,-29.8583"/>
<polygon fill="midnightblue" stroke="midnightblue" points="114.5,-29.6577 111,-19.6578 107.5,-29.6578 114.5,-29.6577"/>
</g>
<!-- Node7 -->
<g id="node4" class="node"><title>Node7</title>
<polygon fill="white" stroke="#bfbfbf" points="156,-0.5 156,-19.5 242,-19.5 242,-0.5 156,-0.5"/>
<text text-anchor="middle" x="199" y="-7.5" font-family="Helvetica,sans-Serif" font-size="10.00">udi_cdc_conf.h</text>
</g>
<!-- Node0&#45;&gt;Node7 -->
<g id="edge3" class="edge"><title>Node0&#45;&gt;Node7</title>
<path fill="none" stroke="midnightblue" d="M131.855,-56.3993C145.697,-47.0402 163.811,-34.7924 177.736,-25.3771"/>
<polygon fill="midnightblue" stroke="midnightblue" points="179.872,-28.1585 186.195,-19.6578 175.951,-22.3596 179.872,-28.1585"/>
</g>
</g>
</svg>
