<?xml version="1.0" encoding="UTF-8" standalone="no"?>
<!DOCTYPE svg PUBLIC "-//W3C//DTD SVG 1.1//EN"
 "http://www.w3.org/Graphics/SVG/1.1/DTD/svg11.dtd">
<!-- Generated by graphviz version 2.38.0 (20140413.2041)
 -->
<!-- Title: src/hal/x4m0x_s70/conf_usb.h Pages: 1 -->
<svg width="509pt" height="117pt"
 viewBox="0.00 0.00 509.00 117.00" xmlns="http://www.w3.org/2000/svg" xmlns:xlink="http://www.w3.org/1999/xlink">
<g id="graph0" class="graph" transform="scale(1 1) rotate(0) translate(4 113)">
<title>src/hal/x4m0x_s70/conf_usb.h</title>
<polygon fill="white" stroke="none" points="-4,4 -4,-113 505,-113 505,4 -4,4"/>
<!-- Node8 -->
<g id="node1" class="node"><title>Node8</title>
<polygon fill="#bfbfbf" stroke="black" points="193,-78.5 193,-108.5 322,-108.5 322,-78.5 193,-78.5"/>
<text text-anchor="start" x="201" y="-96.5" font-family="Helvetica,sans-Serif" font-size="10.00">src/hal/x4m0x_s70/conf</text>
<text text-anchor="middle" x="257.5" y="-85.5" font-family="Helvetica,sans-Serif" font-size="10.00">_usb.h</text>
</g>
<!-- Node9 -->
<g id="node2" class="node"><title>Node9</title>
<g id="a_node2"><a xlink:href="host__mouse__hid__task_8h.xhtml" target="_top" xlink:title="Management of the USB host mouse HID task. ">
<polygon fill="white" stroke="black" points="0,-0.5 0,-41.5 151,-41.5 151,-0.5 0,-0.5"/>
<text text-anchor="start" x="8" y="-29.5" font-family="Helvetica,sans-Serif" font-size="10.00">src/hal/x4m0x_s70/libraries</text>
<text text-anchor="start" x="8" y="-18.5" font-family="Helvetica,sans-Serif" font-size="10.00">/libusb/host/hid/host_mouse</text>
<text text-anchor="middle" x="75.5" y="-7.5" font-family="Helvetica,sans-Serif" font-size="10.00">_hid_task.h</text>
</a>
</g>
</g>
<!-- Node8&#45;&gt;Node9 -->
<g id="edge1" class="edge"><title>Node8&#45;&gt;Node9</title>
<path fill="none" stroke="midnightblue" d="M211.461,-74.6663C185.385,-64.5655 152.731,-51.9164 125.96,-41.5464"/>
<polygon fill="midnightblue" stroke="midnightblue" points="210.518,-78.0543 221.107,-78.4027 213.046,-71.5269 210.518,-78.0543"/>
</g>
<!-- Node10 -->
<g id="node3" class="node"><title>Node10</title>
<g id="a_node3"><a xlink:href="host__hid_8c.xhtml" target="_top" xlink:title="Management of the generic host HID features. ">
<polygon fill="white" stroke="black" points="169.5,-6 169.5,-36 345.5,-36 345.5,-6 169.5,-6"/>
<text text-anchor="start" x="177.5" y="-24" font-family="Helvetica,sans-Serif" font-size="10.00">src/hal/x4m0x_s70/libraries</text>
<text text-anchor="middle" x="257.5" y="-13" font-family="Helvetica,sans-Serif" font-size="10.00">/libusb/host/hid/mouse/host_hid.c</text>
</a>
</g>
</g>
<!-- Node8&#45;&gt;Node10 -->
<g id="edge2" class="edge"><title>Node8&#45;&gt;Node10</title>
<path fill="none" stroke="midnightblue" d="M257.5,-68.2317C257.5,-57.5679 257.5,-45.4145 257.5,-36.2455"/>
<polygon fill="midnightblue" stroke="midnightblue" points="254,-68.2332 257.5,-78.2333 261,-68.2333 254,-68.2332"/>
</g>
<!-- Node11 -->
<g id="node4" class="node"><title>Node11</title>
<g id="a_node4"><a xlink:href="usbhs__device_8c.xhtml" target="_top" xlink:title="USB Device Driver for USBHS. ">
<polygon fill="white" stroke="black" points="364,-6 364,-36 501,-36 501,-6 364,-6"/>
<text text-anchor="start" x="372" y="-24" font-family="Helvetica,sans-Serif" font-size="10.00">src/hal/x4m0x_s70/usbhs</text>
<text text-anchor="middle" x="432.5" y="-13" font-family="Helvetica,sans-Serif" font-size="10.00">_device.c</text>
</a>
</g>
</g>
<!-- Node8&#45;&gt;Node11 -->
<g id="edge3" class="edge"><title>Node8&#45;&gt;Node11</title>
<path fill="none" stroke="midnightblue" d="M301.797,-74.6546C331.489,-62.6929 370.042,-47.1615 397.567,-36.0729"/>
<polygon fill="midnightblue" stroke="midnightblue" points="300.461,-71.4194 292.493,-78.4027 303.077,-77.9124 300.461,-71.4194"/>
</g>
</g>
</svg>
