<?xml version="1.0" encoding="UTF-8" standalone="no"?>
<!DOCTYPE svg PUBLIC "-//W3C//DTD SVG 1.1//EN"
 "http://www.w3.org/Graphics/SVG/1.1/DTD/svg11.dtd">
<!-- Generated by graphviz version 2.38.0 (20140413.2041)
 -->
<!-- Title: src/hal/x4m0x_s70/libraries/libusb/host/msc/storage/ctrl_access/module_config/conf_access.h Pages: 1 -->
<svg width="154pt" height="117pt"
 viewBox="0.00 0.00 154.00 117.00" xmlns="http://www.w3.org/2000/svg" xmlns:xlink="http://www.w3.org/1999/xlink">
<g id="graph0" class="graph" transform="scale(1 1) rotate(0) translate(4 113)">
<title>src/hal/x4m0x_s70/libraries/libusb/host/msc/storage/ctrl_access/module_config/conf_access.h</title>
<polygon fill="white" stroke="none" points="-4,4 -4,-113 150,-113 150,4 -4,4"/>
<!-- Node0 -->
<g id="node1" class="node"><title>Node0</title>
<polygon fill="#bfbfbf" stroke="black" points="0,-56.5 0,-108.5 146,-108.5 146,-56.5 0,-56.5"/>
<text text-anchor="start" x="8" y="-96.5" font-family="Helvetica,sans-Serif" font-size="10.00">src/hal/x4m0x_s70/libraries</text>
<text text-anchor="start" x="8" y="-85.5" font-family="Helvetica,sans-Serif" font-size="10.00">/libusb/host/msc/storage</text>
<text text-anchor="start" x="8" y="-74.5" font-family="Helvetica,sans-Serif" font-size="10.00">/ctrl_access/module_config</text>
<text text-anchor="middle" x="73" y="-63.5" font-family="Helvetica,sans-Serif" font-size="10.00">/conf_access.h</text>
</g>
<!-- Node1 -->
<g id="node2" class="node"><title>Node1</title>
<g id="a_node2"><a xlink:href="compiler_8h.xhtml" target="_top" xlink:title="compiler.h">
<polygon fill="white" stroke="red" points="1,-0.5 1,-19.5 67,-19.5 67,-0.5 1,-0.5"/>
<text text-anchor="middle" x="34" y="-7.5" font-family="Helvetica,sans-Serif" font-size="10.00">compiler.h</text>
</a>
</g>
</g>
<!-- Node0&#45;&gt;Node1 -->
<g id="edge1" class="edge"><title>Node0&#45;&gt;Node1</title>
<path fill="none" stroke="midnightblue" d="M59.1402,-56.4458C54.0417,-47.2292 48.3803,-36.9951 43.7227,-28.5757"/>
<polygon fill="midnightblue" stroke="midnightblue" points="46.7136,-26.7516 38.8103,-19.6955 40.5883,-30.1401 46.7136,-26.7516"/>
</g>
<!-- Node6 -->
<g id="node3" class="node"><title>Node6</title>
<g id="a_node3"><a xlink:href="board_8h.xhtml" target="_top" xlink:title="Definition of SAM E70 Xplained board characteristics, PIOs and external components interface...">
<polygon fill="white" stroke="black" points="85.5,-0.5 85.5,-19.5 138.5,-19.5 138.5,-0.5 85.5,-0.5"/>
<text text-anchor="middle" x="112" y="-7.5" font-family="Helvetica,sans-Serif" font-size="10.00">board.h</text>
</a>
</g>
</g>
<!-- Node0&#45;&gt;Node6 -->
<g id="edge2" class="edge"><title>Node0&#45;&gt;Node6</title>
<path fill="none" stroke="midnightblue" d="M86.8598,-56.4458C91.9583,-47.2292 97.6197,-36.9951 102.277,-28.5757"/>
<polygon fill="midnightblue" stroke="midnightblue" points="105.412,-30.1401 107.19,-19.6955 99.2864,-26.7516 105.412,-30.1401"/>
</g>
</g>
</svg>
