<?xml version="1.0" encoding="UTF-8" standalone="no"?>
<!DOCTYPE svg PUBLIC "-//W3C//DTD SVG 1.1//EN"
 "http://www.w3.org/Graphics/SVG/1.1/DTD/svg11.dtd">
<!-- Generated by graphviz version 2.38.0 (20140413.2041)
 -->
<!-- Title: src/hal/x4m0x_s70/libraries/libusb/host/msc/storage/ctrl_access/module_config/conf_access.h Pages: 1 -->
<svg width="154pt" height="139pt"
 viewBox="0.00 0.00 154.00 139.00" xmlns="http://www.w3.org/2000/svg" xmlns:xlink="http://www.w3.org/1999/xlink">
<g id="graph0" class="graph" transform="scale(1 1) rotate(0) translate(4 135)">
<title>src/hal/x4m0x_s70/libraries/libusb/host/msc/storage/ctrl_access/module_config/conf_access.h</title>
<polygon fill="white" stroke="none" points="-4,4 -4,-135 150,-135 150,4 -4,4"/>
<!-- Node7 -->
<g id="node1" class="node"><title>Node7</title>
<polygon fill="#bfbfbf" stroke="black" points="0,-78.5 0,-130.5 146,-130.5 146,-78.5 0,-78.5"/>
<text text-anchor="start" x="8" y="-118.5" font-family="Helvetica,sans-Serif" font-size="10.00">src/hal/x4m0x_s70/libraries</text>
<text text-anchor="start" x="8" y="-107.5" font-family="Helvetica,sans-Serif" font-size="10.00">/libusb/host/msc/storage</text>
<text text-anchor="start" x="8" y="-96.5" font-family="Helvetica,sans-Serif" font-size="10.00">/ctrl_access/module_config</text>
<text text-anchor="middle" x="73" y="-85.5" font-family="Helvetica,sans-Serif" font-size="10.00">/conf_access.h</text>
</g>
<!-- Node8 -->
<g id="node2" class="node"><title>Node8</title>
<g id="a_node2"><a xlink:href="ctrl__access_8h.xhtml" target="_top" xlink:title="src/hal/x4m0x_s70/libraries\l/libusb/host/msc/storage\l/ctrl_access/ctrl_access.h">
<polygon fill="white" stroke="red" points="0,-0.5 0,-41.5 146,-41.5 146,-0.5 0,-0.5"/>
<text text-anchor="start" x="8" y="-29.5" font-family="Helvetica,sans-Serif" font-size="10.00">src/hal/x4m0x_s70/libraries</text>
<text text-anchor="start" x="8" y="-18.5" font-family="Helvetica,sans-Serif" font-size="10.00">/libusb/host/msc/storage</text>
<text text-anchor="middle" x="73" y="-7.5" font-family="Helvetica,sans-Serif" font-size="10.00">/ctrl_access/ctrl_access.h</text>
</a>
</g>
</g>
<!-- Node7&#45;&gt;Node8 -->
<g id="edge1" class="edge"><title>Node7&#45;&gt;Node8</title>
<path fill="none" stroke="midnightblue" d="M73,-68.1474C73,-59.0546 73,-49.5968 73,-41.6282"/>
<polygon fill="midnightblue" stroke="midnightblue" points="69.5001,-68.1596 73,-78.1596 76.5001,-68.1597 69.5001,-68.1596"/>
</g>
</g>
</svg>
