<?xml version="1.0" encoding="UTF-8" standalone="no"?>
<!DOCTYPE svg PUBLIC "-//W3C//DTD SVG 1.1//EN"
 "http://www.w3.org/Graphics/SVG/1.1/DTD/svg11.dtd">
<!-- Generated by graphviz version 2.38.0 (20140413.2041)
 -->
<!-- Title: src/hal/x4m0x_s70/libraries/libusb/host/msc/storage/ctrl_access/ctrl_access.c Pages: 1 -->
<svg width="159pt" height="106pt"
 viewBox="0.00 0.00 158.50 106.00" xmlns="http://www.w3.org/2000/svg" xmlns:xlink="http://www.w3.org/1999/xlink">
<g id="graph0" class="graph" transform="scale(1 1) rotate(0) translate(4 102)">
<title>src/hal/x4m0x_s70/libraries/libusb/host/msc/storage/ctrl_access/ctrl_access.c</title>
<polygon fill="white" stroke="none" points="-4,4 -4,-102 154.5,-102 154.5,4 -4,4"/>
<!-- Node0 -->
<g id="node1" class="node"><title>Node0</title>
<polygon fill="#bfbfbf" stroke="black" points="4.5,-56.5 4.5,-97.5 150.5,-97.5 150.5,-56.5 4.5,-56.5"/>
<text text-anchor="start" x="12.5" y="-85.5" font-family="Helvetica,sans-Serif" font-size="10.00">src/hal/x4m0x_s70/libraries</text>
<text text-anchor="start" x="12.5" y="-74.5" font-family="Helvetica,sans-Serif" font-size="10.00">/libusb/host/msc/storage</text>
<text text-anchor="middle" x="77.5" y="-63.5" font-family="Helvetica,sans-Serif" font-size="10.00">/ctrl_access/ctrl_access.c</text>
</g>
<!-- Node1 -->
<g id="node2" class="node"><title>Node1</title>
<g id="a_node2"><a xlink:href="ctrl__access_8h.xhtml" target="_top" xlink:title="ctrl_access.h">
<polygon fill="white" stroke="red" points="0,-0.5 0,-19.5 79,-19.5 79,-0.5 0,-0.5"/>
<text text-anchor="middle" x="39.5" y="-7.5" font-family="Helvetica,sans-Serif" font-size="10.00">ctrl_access.h</text>
</a>
</g>
</g>
<!-- Node0&#45;&gt;Node1 -->
<g id="edge1" class="edge"><title>Node0&#45;&gt;Node1</title>
<path fill="none" stroke="midnightblue" d="M66.0987,-56.4979C60.8889,-47.5862 54.7663,-37.1135 49.7095,-28.4636"/>
<polygon fill="midnightblue" stroke="midnightblue" points="52.6269,-26.519 44.5584,-19.6525 46.5839,-30.0519 52.6269,-26.519"/>
</g>
<!-- Node18 -->
<g id="node3" class="node"><title>Node18</title>
<polygon fill="white" stroke="#bfbfbf" points="97.5,-0.5 97.5,-19.5 135.5,-19.5 135.5,-0.5 97.5,-0.5"/>
<text text-anchor="middle" x="116.5" y="-7.5" font-family="Helvetica,sans-Serif" font-size="10.00">fat.h</text>
</g>
<!-- Node0&#45;&gt;Node18 -->
<g id="edge2" class="edge"><title>Node0&#45;&gt;Node18</title>
<path fill="none" stroke="midnightblue" d="M89.2013,-56.4979C94.5483,-47.5862 100.832,-37.1135 106.022,-28.4636"/>
<polygon fill="midnightblue" stroke="midnightblue" points="109.165,-30.0282 111.309,-19.6525 103.162,-26.4267 109.165,-30.0282"/>
</g>
</g>
</svg>
