<?xml version="1.0" encoding="UTF-8" standalone="no"?>
<!DOCTYPE svg PUBLIC "-//W3C//DTD SVG 1.1//EN"
 "http://www.w3.org/Graphics/SVG/1.1/DTD/svg11.dtd">
<!-- Generated by graphviz version 2.38.0 (20140413.2041)
 -->
<!-- Title: src/hal/x4m0x_s70/libraries/libusb/host/msc/storage/ctrl_access/ctrl_access.h Pages: 1 -->
<svg width="1151pt" height="162pt"
 viewBox="0.00 0.00 1151.00 162.00" xmlns="http://www.w3.org/2000/svg" xmlns:xlink="http://www.w3.org/1999/xlink">
<g id="graph0" class="graph" transform="scale(1 1) rotate(0) translate(4 158)">
<title>src/hal/x4m0x_s70/libraries/libusb/host/msc/storage/ctrl_access/ctrl_access.h</title>
<polygon fill="white" stroke="none" points="-4,4 -4,-158 1147,-158 1147,4 -4,4"/>
<!-- Node0 -->
<g id="node1" class="node"><title>Node0</title>
<polygon fill="#bfbfbf" stroke="black" points="442,-112.5 442,-153.5 588,-153.5 588,-112.5 442,-112.5"/>
<text text-anchor="start" x="450" y="-141.5" font-family="Helvetica,sans-Serif" font-size="10.00">src/hal/x4m0x_s70/libraries</text>
<text text-anchor="start" x="450" y="-130.5" font-family="Helvetica,sans-Serif" font-size="10.00">/libusb/host/msc/storage</text>
<text text-anchor="middle" x="515" y="-119.5" font-family="Helvetica,sans-Serif" font-size="10.00">/ctrl_access/ctrl_access.h</text>
</g>
<!-- Node1 -->
<g id="node2" class="node"><title>Node1</title>
<g id="a_node2"><a xlink:href="compiler_8h.xhtml" target="_top" xlink:title="compiler.h">
<polygon fill="white" stroke="red" points="0,-0.5 0,-19.5 66,-19.5 66,-0.5 0,-0.5"/>
<text text-anchor="middle" x="33" y="-7.5" font-family="Helvetica,sans-Serif" font-size="10.00">compiler.h</text>
</a>
</g>
</g>
<!-- Node0&#45;&gt;Node1 -->
<g id="edge1" class="edge"><title>Node0&#45;&gt;Node1</title>
<path fill="none" stroke="midnightblue" d="M441.892,-129.064C310.348,-123.027 44.7949,-107.096 17,-76 5.30996,-62.9217 12.9669,-42.6696 21.2206,-28.2493"/>
<polygon fill="midnightblue" stroke="midnightblue" points="24.2011,-30.0843 26.5333,-19.7493 18.2651,-26.3741 24.2011,-30.0843"/>
</g>
<!-- Node6 -->
<g id="node3" class="node"><title>Node6</title>
<g id="a_node3"><a xlink:href="conf__access_8h.xhtml" target="_top" xlink:title="conf_access.h">
<polygon fill="white" stroke="red" points="26,-56.5 26,-75.5 110,-75.5 110,-56.5 26,-56.5"/>
<text text-anchor="middle" x="68" y="-63.5" font-family="Helvetica,sans-Serif" font-size="10.00">conf_access.h</text>
</a>
</g>
</g>
<!-- Node0&#45;&gt;Node6 -->
<g id="edge2" class="edge"><title>Node0&#45;&gt;Node6</title>
<path fill="none" stroke="midnightblue" d="M441.736,-122.295C364.531,-111.913 239.127,-94.6115 120.274,-75.9993"/>
<polygon fill="midnightblue" stroke="midnightblue" points="120.69,-72.5217 110.268,-74.4267 119.603,-79.4368 120.69,-72.5217"/>
</g>
<!-- Node8 -->
<g id="node4" class="node"><title>Node8</title>
<polygon fill="white" stroke="#bfbfbf" points="128.5,-56.5 128.5,-75.5 223.5,-75.5 223.5,-56.5 128.5,-56.5"/>
<text text-anchor="middle" x="176" y="-63.5" font-family="Helvetica,sans-Serif" font-size="10.00">LUN_0_INCLUDE</text>
</g>
<!-- Node0&#45;&gt;Node8 -->
<g id="edge4" class="edge"><title>Node0&#45;&gt;Node8</title>
<path fill="none" stroke="midnightblue" d="M441.859,-117.976C378.328,-105.794 287.751,-88.4272 230.432,-77.4368"/>
<polygon fill="midnightblue" stroke="midnightblue" points="230.96,-73.9745 220.48,-75.5287 229.642,-80.8492 230.96,-73.9745"/>
</g>
<!-- Node9 -->
<g id="node5" class="node"><title>Node9</title>
<polygon fill="white" stroke="#bfbfbf" points="241.5,-56.5 241.5,-75.5 336.5,-75.5 336.5,-56.5 241.5,-56.5"/>
<text text-anchor="middle" x="289" y="-63.5" font-family="Helvetica,sans-Serif" font-size="10.00">LUN_1_INCLUDE</text>
</g>
<!-- Node0&#45;&gt;Node9 -->
<g id="edge5" class="edge"><title>Node0&#45;&gt;Node9</title>
<path fill="none" stroke="midnightblue" d="M447.193,-112.498C408.427,-101.348 361.165,-87.7553 328.448,-78.3457"/>
<polygon fill="midnightblue" stroke="midnightblue" points="329.365,-74.9676 318.787,-75.5671 327.43,-81.6948 329.365,-74.9676"/>
</g>
<!-- Node10 -->
<g id="node6" class="node"><title>Node10</title>
<polygon fill="white" stroke="#bfbfbf" points="354.5,-56.5 354.5,-75.5 449.5,-75.5 449.5,-56.5 354.5,-56.5"/>
<text text-anchor="middle" x="402" y="-63.5" font-family="Helvetica,sans-Serif" font-size="10.00">LUN_2_INCLUDE</text>
</g>
<!-- Node0&#45;&gt;Node10 -->
<g id="edge6" class="edge"><title>Node0&#45;&gt;Node10</title>
<path fill="none" stroke="midnightblue" d="M481.096,-112.498C463.271,-102.245 441.854,-89.925 425.804,-80.6927"/>
<polygon fill="midnightblue" stroke="midnightblue" points="427.455,-77.6048 417.042,-75.6525 423.965,-83.6726 427.455,-77.6048"/>
</g>
<!-- Node11 -->
<g id="node7" class="node"><title>Node11</title>
<polygon fill="white" stroke="#bfbfbf" points="467.5,-56.5 467.5,-75.5 562.5,-75.5 562.5,-56.5 467.5,-56.5"/>
<text text-anchor="middle" x="515" y="-63.5" font-family="Helvetica,sans-Serif" font-size="10.00">LUN_3_INCLUDE</text>
</g>
<!-- Node0&#45;&gt;Node11 -->
<g id="edge7" class="edge"><title>Node0&#45;&gt;Node11</title>
<path fill="none" stroke="midnightblue" d="M515,-112.498C515,-104.065 515,-94.2351 515,-85.874"/>
<polygon fill="midnightblue" stroke="midnightblue" points="518.5,-85.6525 515,-75.6525 511.5,-85.6525 518.5,-85.6525"/>
</g>
<!-- Node12 -->
<g id="node8" class="node"><title>Node12</title>
<polygon fill="white" stroke="#bfbfbf" points="580.5,-56.5 580.5,-75.5 675.5,-75.5 675.5,-56.5 580.5,-56.5"/>
<text text-anchor="middle" x="628" y="-63.5" font-family="Helvetica,sans-Serif" font-size="10.00">LUN_4_INCLUDE</text>
</g>
<!-- Node0&#45;&gt;Node12 -->
<g id="edge8" class="edge"><title>Node0&#45;&gt;Node12</title>
<path fill="none" stroke="midnightblue" d="M548.904,-112.498C566.729,-102.245 588.146,-89.925 604.196,-80.6927"/>
<polygon fill="midnightblue" stroke="midnightblue" points="606.035,-83.6726 612.958,-75.6525 602.545,-77.6048 606.035,-83.6726"/>
</g>
<!-- Node13 -->
<g id="node9" class="node"><title>Node13</title>
<polygon fill="white" stroke="#bfbfbf" points="693.5,-56.5 693.5,-75.5 788.5,-75.5 788.5,-56.5 693.5,-56.5"/>
<text text-anchor="middle" x="741" y="-63.5" font-family="Helvetica,sans-Serif" font-size="10.00">LUN_5_INCLUDE</text>
</g>
<!-- Node0&#45;&gt;Node13 -->
<g id="edge9" class="edge"><title>Node0&#45;&gt;Node13</title>
<path fill="none" stroke="midnightblue" d="M582.807,-112.498C621.573,-101.348 668.835,-87.7553 701.552,-78.3457"/>
<polygon fill="midnightblue" stroke="midnightblue" points="702.57,-81.6948 711.213,-75.5671 700.635,-74.9676 702.57,-81.6948"/>
</g>
<!-- Node14 -->
<g id="node10" class="node"><title>Node14</title>
<polygon fill="white" stroke="#bfbfbf" points="806.5,-56.5 806.5,-75.5 901.5,-75.5 901.5,-56.5 806.5,-56.5"/>
<text text-anchor="middle" x="854" y="-63.5" font-family="Helvetica,sans-Serif" font-size="10.00">LUN_6_INCLUDE</text>
</g>
<!-- Node0&#45;&gt;Node14 -->
<g id="edge10" class="edge"><title>Node0&#45;&gt;Node14</title>
<path fill="none" stroke="midnightblue" d="M588.141,-117.976C651.672,-105.794 742.249,-88.4272 799.568,-77.4368"/>
<polygon fill="midnightblue" stroke="midnightblue" points="800.358,-80.8492 809.52,-75.5287 799.04,-73.9745 800.358,-80.8492"/>
</g>
<!-- Node15 -->
<g id="node11" class="node"><title>Node15</title>
<polygon fill="white" stroke="#bfbfbf" points="919.5,-56.5 919.5,-75.5 1014.5,-75.5 1014.5,-56.5 919.5,-56.5"/>
<text text-anchor="middle" x="967" y="-63.5" font-family="Helvetica,sans-Serif" font-size="10.00">LUN_7_INCLUDE</text>
</g>
<!-- Node0&#45;&gt;Node15 -->
<g id="edge11" class="edge"><title>Node0&#45;&gt;Node15</title>
<path fill="none" stroke="midnightblue" d="M588.046,-122.091C665.38,-111.504 791.288,-93.9973 909.408,-76.2204"/>
<polygon fill="midnightblue" stroke="midnightblue" points="909.985,-79.6731 919.351,-74.7206 908.94,-72.7514 909.985,-79.6731"/>
</g>
<!-- Node16 -->
<g id="node12" class="node"><title>Node16</title>
<polygon fill="white" stroke="#bfbfbf" points="1033,-56.5 1033,-75.5 1143,-75.5 1143,-56.5 1033,-56.5"/>
<text text-anchor="middle" x="1088" y="-63.5" font-family="Helvetica,sans-Serif" font-size="10.00">LUN_USB_INCLUDE</text>
</g>
<!-- Node0&#45;&gt;Node16 -->
<g id="edge12" class="edge"><title>Node0&#45;&gt;Node16</title>
<path fill="none" stroke="midnightblue" d="M588.414,-124.624C685.391,-114.725 861.768,-96.1773 1022.76,-76.1236"/>
<polygon fill="midnightblue" stroke="midnightblue" points="1023.37,-79.5756 1032.86,-74.8621 1022.5,-72.6296 1023.37,-79.5756"/>
</g>
<!-- Node6&#45;&gt;Node1 -->
<g id="edge3" class="edge"><title>Node6&#45;&gt;Node1</title>
<path fill="none" stroke="midnightblue" d="M62.2205,-56.083C57.3276,-48.5341 50.1726,-37.4948 44.1674,-28.2298"/>
<polygon fill="midnightblue" stroke="midnightblue" points="47.048,-26.239 38.672,-19.7511 41.174,-30.0463 47.048,-26.239"/>
</g>
</g>
</svg>
