<?xml version="1.0" encoding="UTF-8" standalone="no"?>
<!DOCTYPE svg PUBLIC "-//W3C//DTD SVG 1.1//EN"
 "http://www.w3.org/Graphics/SVG/1.1/DTD/svg11.dtd">
<!-- Generated by graphviz version 2.38.0 (20140413.2041)
 -->
<!-- Title: _Dac_configureLinkList Pages: 1 -->
<svg width="327pt" height="66pt"
 viewBox="0.00 0.00 327.00 66.00" xmlns="http://www.w3.org/2000/svg" xmlns:xlink="http://www.w3.org/1999/xlink">
<g id="graph0" class="graph" transform="scale(1 1) rotate(0) translate(4 62)">
<title>_Dac_configureLinkList</title>
<polygon fill="white" stroke="none" points="-4,4 -4,-62 323,-62 323,4 -4,4"/>
<!-- Node0 -->
<g id="node1" class="node"><title>Node0</title>
<polygon fill="#bfbfbf" stroke="black" points="0,-19.5 0,-38.5 125,-38.5 125,-19.5 0,-19.5"/>
<text text-anchor="middle" x="62.5" y="-26.5" font-family="Helvetica,sans-Serif" font-size="10.00">_Dac_configureLinkList</text>
</g>
<!-- Node1 -->
<g id="node2" class="node"><title>Node1</title>
<g id="a_node2"><a xlink:href="xdma__hardware__interface_8h.xhtml#a1c7e741165685b3e072aa75e4cfb1034" target="_top" xlink:title="Get peripheral identifier coded for hardware handshaking interface. ">
<polygon fill="white" stroke="red" points="161,-38.5 161,-57.5 319,-57.5 319,-38.5 161,-38.5"/>
<text text-anchor="middle" x="240" y="-45.5" font-family="Helvetica,sans-Serif" font-size="10.00">XDMAIF_Get_ChannelNumber</text>
</a>
</g>
</g>
<!-- Node0&#45;&gt;Node1 -->
<g id="edge1" class="edge"><title>Node0&#45;&gt;Node1</title>
<path fill="none" stroke="midnightblue" d="M125.375,-35.6987C133.603,-36.5895 142.164,-37.5163 150.732,-38.4439"/>
<polygon fill="midnightblue" stroke="midnightblue" points="150.455,-41.9343 160.773,-39.531 151.208,-34.9749 150.455,-41.9343"/>
</g>
<!-- Node3 -->
<g id="node3" class="node"><title>Node3</title>
<g id="a_node3"><a xlink:href="group__dmad__functions.xhtml#ga075cce3b88af1fff5064218720811fc0" target="_top" xlink:title="Configure DMA for a single transfer. ">
<polygon fill="white" stroke="red" points="169.5,-0.5 169.5,-19.5 310.5,-19.5 310.5,-0.5 169.5,-0.5"/>
<text text-anchor="middle" x="240" y="-7.5" font-family="Helvetica,sans-Serif" font-size="10.00">XDMAD_ConfigureTransfer</text>
</a>
</g>
</g>
<!-- Node0&#45;&gt;Node3 -->
<g id="edge2" class="edge"><title>Node0&#45;&gt;Node3</title>
<path fill="none" stroke="midnightblue" d="M125.375,-22.3013C136.366,-21.1114 147.952,-19.8571 159.354,-18.6227"/>
<polygon fill="midnightblue" stroke="midnightblue" points="159.742,-22.1012 169.307,-17.5451 158.988,-15.1419 159.742,-22.1012"/>
</g>
</g>
</svg>
