<?xml version="1.0" encoding="UTF-8" standalone="no"?>
<!DOCTYPE svg PUBLIC "-//W3C//DTD SVG 1.1//EN"
 "http://www.w3.org/Graphics/SVG/1.1/DTD/svg11.dtd">
<!-- Generated by graphviz version 2.38.0 (20140413.2041)
 -->
<!-- Title: src/hal/x4m0x_s70/libraries/libboard/source/dbg_console.c Pages: 1 -->
<svg width="199pt" height="95pt"
 viewBox="0.00 0.00 199.00 95.00" xmlns="http://www.w3.org/2000/svg" xmlns:xlink="http://www.w3.org/1999/xlink">
<g id="graph0" class="graph" transform="scale(1 1) rotate(0) translate(4 91)">
<title>src/hal/x4m0x_s70/libraries/libboard/source/dbg_console.c</title>
<polygon fill="white" stroke="none" points="-4,4 -4,-91 195,-91 195,4 -4,4"/>
<!-- Node0 -->
<g id="node1" class="node"><title>Node0</title>
<polygon fill="#bfbfbf" stroke="black" points="13.5,-56.5 13.5,-86.5 177.5,-86.5 177.5,-56.5 13.5,-56.5"/>
<text text-anchor="start" x="21.5" y="-74.5" font-family="Helvetica,sans-Serif" font-size="10.00">src/hal/x4m0x_s70/libraries</text>
<text text-anchor="middle" x="95.5" y="-63.5" font-family="Helvetica,sans-Serif" font-size="10.00">/libboard/source/dbg_console.c</text>
</g>
<!-- Node1 -->
<g id="node2" class="node"><title>Node1</title>
<g id="a_node2"><a xlink:href="board_8h.xhtml" target="_top" xlink:title="Definition of SAM E70 Xplained board characteristics, PIOs and external components interface...">
<polygon fill="white" stroke="black" points="0,-0.5 0,-19.5 53,-19.5 53,-0.5 0,-0.5"/>
<text text-anchor="middle" x="26.5" y="-7.5" font-family="Helvetica,sans-Serif" font-size="10.00">board.h</text>
</a>
</g>
</g>
<!-- Node0&#45;&gt;Node1 -->
<g id="edge1" class="edge"><title>Node0&#45;&gt;Node1</title>
<path fill="none" stroke="midnightblue" d="M79.148,-56.3993C68.6046,-47.3076 54.9001,-35.4899 44.1164,-26.1909"/>
<polygon fill="midnightblue" stroke="midnightblue" points="46.399,-23.5377 36.5401,-19.6578 41.8276,-28.8389 46.399,-23.5377"/>
</g>
<!-- Node2 -->
<g id="node3" class="node"><title>Node2</title>
<polygon fill="white" stroke="#bfbfbf" points="71,-0.5 71,-19.5 120,-19.5 120,-0.5 71,-0.5"/>
<text text-anchor="middle" x="95.5" y="-7.5" font-family="Helvetica,sans-Serif" font-size="10.00">stdio.h</text>
</g>
<!-- Node0&#45;&gt;Node2 -->
<g id="edge2" class="edge"><title>Node0&#45;&gt;Node2</title>
<path fill="none" stroke="midnightblue" d="M95.5,-56.3993C95.5,-48.4664 95.5,-38.458 95.5,-29.8583"/>
<polygon fill="midnightblue" stroke="midnightblue" points="99.0001,-29.6577 95.5,-19.6578 92.0001,-29.6578 99.0001,-29.6577"/>
</g>
<!-- Node3 -->
<g id="node4" class="node"><title>Node3</title>
<polygon fill="white" stroke="#bfbfbf" points="138,-0.5 138,-19.5 191,-19.5 191,-0.5 138,-0.5"/>
<text text-anchor="middle" x="164.5" y="-7.5" font-family="Helvetica,sans-Serif" font-size="10.00">stdint.h</text>
</g>
<!-- Node0&#45;&gt;Node3 -->
<g id="edge3" class="edge"><title>Node0&#45;&gt;Node3</title>
<path fill="none" stroke="midnightblue" d="M111.852,-56.3993C122.395,-47.3076 136.1,-35.4899 146.884,-26.1909"/>
<polygon fill="midnightblue" stroke="midnightblue" points="149.172,-28.8389 154.46,-19.6578 144.601,-23.5377 149.172,-28.8389"/>
</g>
</g>
</svg>
