<?xml version="1.0" encoding="UTF-8" standalone="no"?>
<!DOCTYPE svg PUBLIC "-//W3C//DTD SVG 1.1//EN"
 "http://www.w3.org/Graphics/SVG/1.1/DTD/svg11.dtd">
<!-- Generated by graphviz version 2.38.0 (20140413.2041)
 -->
<!-- Title: DBG_GetChar Pages: 1 -->
<svg width="225pt" height="104pt"
 viewBox="0.00 0.00 225.00 104.00" xmlns="http://www.w3.org/2000/svg" xmlns:xlink="http://www.w3.org/1999/xlink">
<g id="graph0" class="graph" transform="scale(1 1) rotate(0) translate(4 100)">
<title>DBG_GetChar</title>
<polygon fill="white" stroke="none" points="-4,4 -4,-100 221,-100 221,4 -4,4"/>
<!-- Node44 -->
<g id="node1" class="node"><title>Node44</title>
<polygon fill="#bfbfbf" stroke="black" points="0,-38.5 0,-57.5 83,-57.5 83,-38.5 0,-38.5"/>
<text text-anchor="middle" x="41.5" y="-45.5" font-family="Helvetica,sans-Serif" font-size="10.00">DBG_GetChar</text>
</g>
<!-- Node45 -->
<g id="node2" class="node"><title>Node45</title>
<g id="a_node2"><a xlink:href="dbg__console_8c.xhtml#a807d59a58a4312efa7ef1c445107c256" target="_top" xlink:title="Reads an integer. ">
<polygon fill="white" stroke="red" points="120.5,-76.5 120.5,-95.5 215.5,-95.5 215.5,-76.5 120.5,-76.5"/>
<text text-anchor="middle" x="168" y="-83.5" font-family="Helvetica,sans-Serif" font-size="10.00">DBG_GetInteger</text>
</a>
</g>
</g>
<!-- Node44&#45;&gt;Node45 -->
<g id="edge1" class="edge"><title>Node44&#45;&gt;Node45</title>
<path fill="none" stroke="midnightblue" d="M83.5696,-60.5353C100.506,-65.7048 119.818,-71.5991 135.593,-76.4141"/>
<polygon fill="midnightblue" stroke="midnightblue" points="84.5028,-57.1608 73.9166,-57.589 82.4593,-63.8559 84.5028,-57.1608"/>
</g>
<!-- Node47 -->
<g id="node3" class="node"><title>Node47</title>
<g id="a_node3"><a xlink:href="dbg__console_8c.xhtml#af9bb27367f558fe5135b7f59a134f074" target="_top" xlink:title="Reads an hexadecimal number. ">
<polygon fill="white" stroke="black" points="119,-38.5 119,-57.5 217,-57.5 217,-38.5 119,-38.5"/>
<text text-anchor="middle" x="168" y="-45.5" font-family="Helvetica,sans-Serif" font-size="10.00">DBG_GetHexa32</text>
</a>
</g>
</g>
<!-- Node44&#45;&gt;Node47 -->
<g id="edge2" class="edge"><title>Node44&#45;&gt;Node47</title>
<path fill="none" stroke="midnightblue" d="M93.3346,-48C101.741,-48 110.436,-48 118.776,-48"/>
<polygon fill="midnightblue" stroke="midnightblue" points="93.266,-44.5001 83.266,-48 93.2659,-51.5001 93.266,-44.5001"/>
</g>
<!-- Node48 -->
<g id="node4" class="node"><title>Node48</title>
<g id="a_node4"><a xlink:href="dbg__console_8c.xhtml#a4c525b3c7f5f90a659cacb562a248c20" target="_top" xlink:title="gets">
<polygon fill="white" stroke="black" points="149,-0.5 149,-19.5 187,-19.5 187,-0.5 149,-0.5"/>
<text text-anchor="middle" x="168" y="-7.5" font-family="Helvetica,sans-Serif" font-size="10.00">gets</text>
</a>
</g>
</g>
<!-- Node44&#45;&gt;Node48 -->
<g id="edge3" class="edge"><title>Node44&#45;&gt;Node48</title>
<path fill="none" stroke="midnightblue" d="M83.7038,-35.4237C105.716,-28.7052 131.707,-20.772 148.73,-15.5764"/>
<polygon fill="midnightblue" stroke="midnightblue" points="82.4593,-32.1441 73.9166,-38.411 84.5028,-38.8392 82.4593,-32.1441"/>
</g>
</g>
</svg>
