<?xml version="1.0" encoding="UTF-8" standalone="no"?>
<!DOCTYPE svg PUBLIC "-//W3C//DTD SVG 1.1//EN"
 "http://www.w3.org/Graphics/SVG/1.1/DTD/svg11.dtd">
<!-- Generated by graphviz version 2.38.0 (20140413.2041)
 -->
<!-- Title: src/hal/x4m0x_s70/libraries/libchip/source Pages: 1 -->
<svg width="107pt" height="223pt"
 viewBox="0.00 0.00 106.50 223.00" xmlns="http://www.w3.org/2000/svg" xmlns:xlink="http://www.w3.org/1999/xlink">
<g id="graph0" class="graph" transform="scale(1 1) rotate(0) translate(4 219)">
<title>src/hal/x4m0x_s70/libraries/libchip/source</title>
<polygon fill="white" stroke="none" points="-4,4 -4,-219 102.5,-219 102.5,4 -4,4"/>
<g id="clust1" class="cluster"><title>clusterdir_a75a6fe80fd9120ba7dd67a0b33a7bc9</title>
<g id="a_clust1"><a xlink:href="dir_a75a6fe80fd9120ba7dd67a0b33a7bc9.xhtml" target="_top" xlink:title="libchip">
<polygon fill="#ddddee" stroke="black" points="20.5,-136 20.5,-207 90.5,-207 90.5,-136 20.5,-136"/>
<text text-anchor="middle" x="55.5" y="-195" font-family="Helvetica,sans-Serif" font-size="10.00">libchip</text>
</a>
</g>
</g>
<!-- dir_3d0e1f04b892c8e303e2a36887d7dc95 -->
<g id="node1" class="node"><title>dir_3d0e1f04b892c8e303e2a36887d7dc95</title>
<g id="a_node1"><a xlink:href="dir_3d0e1f04b892c8e303e2a36887d7dc95.xhtml" target="_top" xlink:title="source">
<polygon fill="#eeeeff" stroke="black" points="82.5,-180 28.5,-180 28.5,-144 82.5,-144 82.5,-180"/>
<text text-anchor="middle" x="55.5" y="-159.5" font-family="Helvetica,sans-Serif" font-size="10.00">source</text>
</a>
</g>
</g>
<!-- dir_0bcb53a0bcfa39e1247d0c604a39aec5 -->
<g id="node2" class="node"><title>dir_0bcb53a0bcfa39e1247d0c604a39aec5</title>
<g id="a_node2"><a xlink:href="dir_0bcb53a0bcfa39e1247d0c604a39aec5.xhtml" target="_top" xlink:title="libboard">
<polygon fill="white" stroke="red" points="55,-108 0,-108 0,-72 55,-72 55,-108"/>
<text text-anchor="middle" x="27.5" y="-87.5" font-family="Helvetica,sans-Serif" font-size="10.00">libboard</text>
</a>
</g>
</g>
<!-- dir_3d0e1f04b892c8e303e2a36887d7dc95&#45;&gt;dir_0bcb53a0bcfa39e1247d0c604a39aec5 -->
<g id="edge2" class="edge"><title>dir_3d0e1f04b892c8e303e2a36887d7dc95&#45;&gt;dir_0bcb53a0bcfa39e1247d0c604a39aec5</title>
<path fill="none" stroke="black" d="M48.5786,-143.697C45.4253,-135.813 41.6217,-126.304 38.1186,-117.546"/>
<polygon fill="black" stroke="black" points="41.3054,-116.089 34.3417,-108.104 34.806,-118.689 41.3054,-116.089"/>
<g id="a_edge2&#45;headlabel"><a xlink:href="dir_000030_000008.xhtml" target="_top" xlink:title="1">
<text text-anchor="middle" x="45.2765" y="-115.872" font-family="Helvetica,sans-Serif" font-size="10.00">1</text>
</a>
</g>
</g>
<!-- dir_66d505d01f5149f3674faaa78d4997d4 -->
<g id="node3" class="node"><title>dir_66d505d01f5149f3674faaa78d4997d4</title>
<g id="a_node3"><a xlink:href="dir_66d505d01f5149f3674faaa78d4997d4.xhtml" target="_top" xlink:title="include">
<polygon fill="white" stroke="red" points="54.5,-36 0.5,-36 0.5,-0 54.5,-0 54.5,-36"/>
<text text-anchor="middle" x="27.5" y="-15.5" font-family="Helvetica,sans-Serif" font-size="10.00">include</text>
</a>
</g>
</g>
<!-- dir_3d0e1f04b892c8e303e2a36887d7dc95&#45;&gt;dir_66d505d01f5149f3674faaa78d4997d4 -->
<g id="edge3" class="edge"><title>dir_3d0e1f04b892c8e303e2a36887d7dc95&#45;&gt;dir_66d505d01f5149f3674faaa78d4997d4</title>
<path fill="none" stroke="black" d="M61.2074,-143.858C66.3697,-125.627 72.0951,-96.1479 64.5,-72 61.4014,-62.1483 55.7488,-52.5302 49.7791,-44.2511"/>
<polygon fill="black" stroke="black" points="52.4145,-41.9371 43.5369,-36.1544 46.8707,-46.2111 52.4145,-41.9371"/>
<g id="a_edge3&#45;headlabel"><a xlink:href="dir_000030_000014.xhtml" target="_top" xlink:title="5">
<text text-anchor="middle" x="56.8578" y="-40.5503" font-family="Helvetica,sans-Serif" font-size="10.00">5</text>
</a>
</g>
</g>
<!-- dir_0bcb53a0bcfa39e1247d0c604a39aec5&#45;&gt;dir_66d505d01f5149f3674faaa78d4997d4 -->
<g id="edge1" class="edge"><title>dir_0bcb53a0bcfa39e1247d0c604a39aec5&#45;&gt;dir_66d505d01f5149f3674faaa78d4997d4</title>
<path fill="none" stroke="black" d="M21.5843,-71.6966C20.7886,-63.9827 20.5621,-54.7125 20.9047,-46.1124"/>
<polygon fill="black" stroke="black" points="24.3984,-46.3243 21.605,-36.1043 17.4154,-45.8356 24.3984,-46.3243"/>
<g id="a_edge1&#45;headlabel"><a xlink:href="dir_000008_000014.xhtml" target="_top" xlink:title="3">
<text text-anchor="middle" x="26.9799" y="-47.6083" font-family="Helvetica,sans-Serif" font-size="10.00">3</text>
</a>
</g>
</g>
<!-- dir_66d505d01f5149f3674faaa78d4997d4&#45;&gt;dir_0bcb53a0bcfa39e1247d0c604a39aec5 -->
<g id="edge4" class="edge"><title>dir_66d505d01f5149f3674faaa78d4997d4&#45;&gt;dir_0bcb53a0bcfa39e1247d0c604a39aec5</title>
<path fill="none" stroke="black" d="M33.395,-36.1043C34.2005,-43.7913 34.4369,-53.0537 34.104,-61.6651"/>
<polygon fill="black" stroke="black" points="30.6085,-61.4805 33.4157,-71.6966 37.5921,-61.9597 30.6085,-61.4805"/>
<g id="a_edge4&#45;headlabel"><a xlink:href="dir_000014_000008.xhtml" target="_top" xlink:title="1">
<text text-anchor="middle" x="28.0219" y="-55.2" font-family="Helvetica,sans-Serif" font-size="10.00">1</text>
</a>
</g>
</g>
</g>
</svg>
