<?xml version="1.0" encoding="UTF-8" standalone="no"?>
<!DOCTYPE svg PUBLIC "-//W3C//DTD SVG 1.1//EN"
 "http://www.w3.org/Graphics/SVG/1.1/DTD/svg11.dtd">
<!-- Generated by graphviz version 2.38.0 (20140413.2041)
 -->
<!-- Title: src/hal/x4m0x_s70/libraries/libusb/host/hid Pages: 1 -->
<svg width="182pt" height="303pt"
 viewBox="0.00 0.00 182.00 303.00" xmlns="http://www.w3.org/2000/svg" xmlns:xlink="http://www.w3.org/1999/xlink">
<g id="graph0" class="graph" transform="scale(1 1) rotate(0) translate(4 299)">
<title>src/hal/x4m0x_s70/libraries/libusb/host/hid</title>
<polygon fill="white" stroke="none" points="-4,4 -4,-299 178,-299 178,4 -4,4"/>
<g id="clust1" class="cluster"><title>clusterdir_e0a7526ed6c62ee5f62af9e29af05b15</title>
<g id="a_clust1"><a xlink:href="dir_e0a7526ed6c62ee5f62af9e29af05b15.xhtml" target="_top" xlink:title="host">
<polygon fill="#ddddee" stroke="black" points="8,-200 8,-287 166,-287 166,-200 8,-200"/>
<text text-anchor="middle" x="87" y="-275" font-family="Helvetica,sans-Serif" font-size="10.00">host</text>
</a>
</g>
</g>
<g id="clust2" class="cluster"><title>clusterdir_fd35eab87366203983cc18ad132d93ad</title>
<g id="a_clust2"><a xlink:href="dir_fd35eab87366203983cc18ad132d93ad.xhtml" target="_top">
<polygon fill="#eeeeff" stroke="black" points="16,-208 16,-260 158,-260 158,-208 16,-208"/>
</a>
</g>
</g>
<!-- dir_fd35eab87366203983cc18ad132d93ad -->
<g id="node1" class="node"><title>dir_fd35eab87366203983cc18ad132d93ad</title>
<text text-anchor="middle" x="123" y="-231.5" font-family="Helvetica,sans-Serif" font-size="10.00">hid</text>
</g>
<!-- dir_cbc0a1da7e3d3eb0da194d44c0dfdda3 -->
<g id="node2" class="node"><title>dir_cbc0a1da7e3d3eb0da194d44c0dfdda3</title>
<g id="a_node2"><a xlink:href="dir_cbc0a1da7e3d3eb0da194d44c0dfdda3.xhtml" target="_top" xlink:title="mouse">
<polygon fill="white" stroke="black" points="78,-252 24,-252 24,-216 78,-216 78,-252"/>
<text text-anchor="middle" x="51" y="-231.5" font-family="Helvetica,sans-Serif" font-size="10.00">mouse</text>
</a>
</g>
</g>
<!-- dir_a75a6fe80fd9120ba7dd67a0b33a7bc9 -->
<g id="node3" class="node"><title>dir_a75a6fe80fd9120ba7dd67a0b33a7bc9</title>
<g id="a_node3"><a xlink:href="dir_a75a6fe80fd9120ba7dd67a0b33a7bc9.xhtml" target="_top" xlink:title="libchip">
<polygon fill="white" stroke="red" points="67,-36 13,-36 13,-0 67,-0 67,-36"/>
<text text-anchor="middle" x="40" y="-15.5" font-family="Helvetica,sans-Serif" font-size="10.00">libchip</text>
</a>
</g>
</g>
<!-- dir_cbc0a1da7e3d3eb0da194d44c0dfdda3&#45;&gt;dir_a75a6fe80fd9120ba7dd67a0b33a7bc9 -->
<g id="edge3" class="edge"><title>dir_cbc0a1da7e3d3eb0da194d44c0dfdda3&#45;&gt;dir_a75a6fe80fd9120ba7dd67a0b33a7bc9</title>
<path fill="none" stroke="black" d="M46.7448,-215.655C40.0149,-186.199 28.0612,-124.484 32,-72 32.6366,-63.5179 33.8384,-54.3361 35.1208,-46.0356"/>
<polygon fill="black" stroke="black" points="38.5836,-46.5472 36.7517,-36.1119 31.6763,-45.412 38.5836,-46.5472"/>
<g id="a_edge3&#45;headlabel"><a xlink:href="dir_000055_000013.xhtml" target="_top" xlink:title="2">
<text text-anchor="middle" x="40.8024" y="-48.0546" font-family="Helvetica,sans-Serif" font-size="10.00">2</text>
</a>
</g>
</g>
<!-- dir_c46a29a3f6521c422d3477bfa11d561d -->
<g id="node4" class="node"><title>dir_c46a29a3f6521c422d3477bfa11d561d</title>
<g id="a_node4"><a xlink:href="dir_c46a29a3f6521c422d3477bfa11d561d.xhtml" target="_top" xlink:title="include">
<polygon fill="none" stroke="black" points="95,-108 41,-108 41,-72 95,-72 95,-108"/>
<text text-anchor="middle" x="68" y="-87.5" font-family="Helvetica,sans-Serif" font-size="10.00">include</text>
</a>
</g>
</g>
<!-- dir_cbc0a1da7e3d3eb0da194d44c0dfdda3&#45;&gt;dir_c46a29a3f6521c422d3477bfa11d561d -->
<g id="edge4" class="edge"><title>dir_cbc0a1da7e3d3eb0da194d44c0dfdda3&#45;&gt;dir_c46a29a3f6521c422d3477bfa11d561d</title>
<path fill="none" stroke="black" d="M53.0506,-215.871C55.9479,-191.67 61.2705,-147.211 64.7205,-118.393"/>
<polygon fill="black" stroke="black" points="68.2285,-118.534 65.9421,-108.189 61.2782,-117.702 68.2285,-118.534"/>
<g id="a_edge4&#45;headlabel"><a xlink:href="dir_000055_000060.xhtml" target="_top" xlink:title="1">
<text text-anchor="middle" x="70.6205" y="-119.941" font-family="Helvetica,sans-Serif" font-size="10.00">1</text>
</a>
</g>
</g>
<!-- dir_3eadff0e6699eea8297c2cb79a55960f -->
<g id="node5" class="node"><title>dir_3eadff0e6699eea8297c2cb79a55960f</title>
<g id="a_node5"><a xlink:href="dir_3eadff0e6699eea8297c2cb79a55960f.xhtml" target="_top" xlink:title="core">
<polygon fill="none" stroke="black" points="133,-180 79,-180 79,-144 133,-144 133,-180"/>
<text text-anchor="middle" x="106" y="-159.5" font-family="Helvetica,sans-Serif" font-size="10.00">core</text>
</a>
</g>
</g>
<!-- dir_cbc0a1da7e3d3eb0da194d44c0dfdda3&#45;&gt;dir_3eadff0e6699eea8297c2cb79a55960f -->
<g id="edge5" class="edge"><title>dir_cbc0a1da7e3d3eb0da194d44c0dfdda3&#45;&gt;dir_3eadff0e6699eea8297c2cb79a55960f</title>
<path fill="none" stroke="black" d="M64.5955,-215.697C71.1227,-207.389 79.068,-197.277 86.2466,-188.141"/>
<polygon fill="black" stroke="black" points="89.1347,-190.13 92.5609,-180.104 83.6305,-185.805 89.1347,-190.13"/>
<g id="a_edge5&#45;headlabel"><a xlink:href="dir_000055_000053.xhtml" target="_top" xlink:title="3">
<text text-anchor="middle" x="89.1465" y="-192.211" font-family="Helvetica,sans-Serif" font-size="10.00">3</text>
</a>
</g>
</g>
<!-- dir_c46a29a3f6521c422d3477bfa11d561d&#45;&gt;dir_a75a6fe80fd9120ba7dd67a0b33a7bc9 -->
<g id="edge1" class="edge"><title>dir_c46a29a3f6521c422d3477bfa11d561d&#45;&gt;dir_a75a6fe80fd9120ba7dd67a0b33a7bc9</title>
<path fill="none" stroke="black" d="M61.0786,-71.6966C57.9253,-63.8132 54.1217,-54.3042 50.6186,-45.5464"/>
<polygon fill="black" stroke="black" points="53.8054,-44.0892 46.8417,-36.1043 47.306,-46.689 53.8054,-44.0892"/>
<g id="a_edge1&#45;headlabel"><a xlink:href="dir_000060_000013.xhtml" target="_top" xlink:title="1">
<text text-anchor="middle" x="57.7765" y="-43.8723" font-family="Helvetica,sans-Serif" font-size="10.00">1</text>
</a>
</g>
</g>
<!-- dir_3eadff0e6699eea8297c2cb79a55960f&#45;&gt;dir_c46a29a3f6521c422d3477bfa11d561d -->
<g id="edge2" class="edge"><title>dir_3eadff0e6699eea8297c2cb79a55960f&#45;&gt;dir_c46a29a3f6521c422d3477bfa11d561d</title>
<path fill="none" stroke="black" d="M96.6067,-143.697C92.2351,-135.644 86.9427,-125.894 82.1047,-116.982"/>
<polygon fill="black" stroke="black" points="85.1322,-115.223 77.2852,-108.104 78.9802,-118.563 85.1322,-115.223"/>
<g id="a_edge2&#45;headlabel"><a xlink:href="dir_000053_000060.xhtml" target="_top" xlink:title="2">
<text text-anchor="middle" x="89.3424" y="-114.528" font-family="Helvetica,sans-Serif" font-size="10.00">2</text>
</a>
</g>
</g>
</g>
</svg>
