<?xml version="1.0" encoding="UTF-8" standalone="no"?>
<!DOCTYPE svg PUBLIC "-//W3C//DTD SVG 1.1//EN"
 "http://www.w3.org/Graphics/SVG/1.1/DTD/svg11.dtd">
<!-- Generated by graphviz version 2.38.0 (20140413.2041)
 -->
<!-- Title: src/hal/x4m0x_s70/libraries/libchip/include/samv71 Pages: 1 -->
<svg width="329pt" height="183pt"
 viewBox="0.00 0.00 329.00 183.00" xmlns="http://www.w3.org/2000/svg" xmlns:xlink="http://www.w3.org/1999/xlink">
<g id="graph0" class="graph" transform="scale(1 1) rotate(0) translate(4 179)">
<title>src/hal/x4m0x_s70/libraries/libchip/include/samv71</title>
<polygon fill="white" stroke="none" points="-4,4 -4,-179 325,-179 325,4 -4,4"/>
<g id="clust1" class="cluster"><title>clusterdir_66d505d01f5149f3674faaa78d4997d4</title>
<g id="a_clust1"><a xlink:href="dir_66d505d01f5149f3674faaa78d4997d4.xhtml" target="_top" xlink:title="include">
<polygon fill="#ddddee" stroke="black" points="8,-8 8,-167 259,-167 259,-8 8,-8"/>
<text text-anchor="middle" x="133.5" y="-155" font-family="Helvetica,sans-Serif" font-size="10.00">include</text>
</a>
</g>
</g>
<g id="clust2" class="cluster"><title>clusterdir_0d89778b8b998febf86480dc70bc2ffa</title>
<g id="a_clust2"><a xlink:href="dir_0d89778b8b998febf86480dc70bc2ffa.xhtml" target="_top">
<polygon fill="#eeeeff" stroke="black" points="16,-16 16,-140 251,-140 251,-16 16,-16"/>
</a>
</g>
</g>
<!-- dir_0d89778b8b998febf86480dc70bc2ffa -->
<g id="node1" class="node"><title>dir_0d89778b8b998febf86480dc70bc2ffa</title>
<text text-anchor="middle" x="178" y="-111.5" font-family="Helvetica,sans-Serif" font-size="10.00">samv71</text>
</g>
<!-- dir_85508a0f5de9fdbb39b464471694e3eb -->
<g id="node2" class="node"><title>dir_85508a0f5de9fdbb39b464471694e3eb</title>
<g id="a_node2"><a xlink:href="dir_85508a0f5de9fdbb39b464471694e3eb.xhtml" target="_top" xlink:title="component">
<polygon fill="white" stroke="black" points="95.5,-60 24.5,-60 24.5,-24 95.5,-24 95.5,-60"/>
<text text-anchor="middle" x="60" y="-39.5" font-family="Helvetica,sans-Serif" font-size="10.00">component</text>
</a>
</g>
</g>
<!-- dir_0d89778b8b998febf86480dc70bc2ffa&#45;&gt;dir_85508a0f5de9fdbb39b464471694e3eb -->
<g id="edge3" class="edge"><title>dir_0d89778b8b998febf86480dc70bc2ffa&#45;&gt;dir_85508a0f5de9fdbb39b464471694e3eb</title>
<path fill="none" stroke="black" d="M150.334,-96.5881C134.556,-87.2282 114.566,-75.3697 97.4041,-65.1889"/>
<polygon fill="black" stroke="black" points="99.1109,-62.1319 88.7246,-60.04 95.5394,-68.1523 99.1109,-62.1319"/>
<g id="a_edge3&#45;headlabel"><a xlink:href="dir_000022_000023.xhtml" target="_top" xlink:title="312">
<text text-anchor="middle" x="103.651" y="-59.0239" font-family="Helvetica,sans-Serif" font-size="10.00">312</text>
</a>
</g>
</g>
<!-- dir_d22541a70a8d2d4e4b4c043ec4961df3 -->
<g id="node3" class="node"><title>dir_d22541a70a8d2d4e4b4c043ec4961df3</title>
<g id="a_node3"><a xlink:href="dir_d22541a70a8d2d4e4b4c043ec4961df3.xhtml" target="_top" xlink:title="instance">
<polygon fill="white" stroke="black" points="170.5,-60 113.5,-60 113.5,-24 170.5,-24 170.5,-60"/>
<text text-anchor="middle" x="142" y="-39.5" font-family="Helvetica,sans-Serif" font-size="10.00">instance</text>
</a>
</g>
</g>
<!-- dir_0d89778b8b998febf86480dc70bc2ffa&#45;&gt;dir_d22541a70a8d2d4e4b4c043ec4961df3 -->
<g id="edge2" class="edge"><title>dir_0d89778b8b998febf86480dc70bc2ffa&#45;&gt;dir_d22541a70a8d2d4e4b4c043ec4961df3</title>
<path fill="none" stroke="black" d="M169.101,-95.6966C165.003,-87.7284 160.051,-78.0995 155.507,-69.2641"/>
<polygon fill="black" stroke="black" points="158.483,-67.3965 150.797,-60.1043 152.258,-70.598 158.483,-67.3965"/>
<g id="a_edge2&#45;headlabel"><a xlink:href="dir_000022_000026.xhtml" target="_top" xlink:title="456">
<text text-anchor="middle" x="162.651" y="-66.7946" font-family="Helvetica,sans-Serif" font-size="10.00">456</text>
</a>
</g>
</g>
<!-- dir_3ecd46ea772adfa2007bb311a4909068 -->
<g id="node4" class="node"><title>dir_3ecd46ea772adfa2007bb311a4909068</title>
<g id="a_node4"><a xlink:href="dir_3ecd46ea772adfa2007bb311a4909068.xhtml" target="_top" xlink:title="pio">
<polygon fill="white" stroke="black" points="243,-60 189,-60 189,-24 243,-24 243,-60"/>
<text text-anchor="middle" x="216" y="-39.5" font-family="Helvetica,sans-Serif" font-size="10.00">pio</text>
</a>
</g>
</g>
<!-- dir_0d89778b8b998febf86480dc70bc2ffa&#45;&gt;dir_3ecd46ea772adfa2007bb311a4909068 -->
<g id="edge1" class="edge"><title>dir_0d89778b8b998febf86480dc70bc2ffa&#45;&gt;dir_3ecd46ea772adfa2007bb311a4909068</title>
<path fill="none" stroke="black" d="M187.393,-95.6966C191.765,-87.6436 197.057,-77.8945 201.895,-68.9824"/>
<polygon fill="black" stroke="black" points="205.02,-70.5627 206.715,-60.1043 198.868,-67.223 205.02,-70.5627"/>
<g id="a_edge1&#45;headlabel"><a xlink:href="dir_000022_000029.xhtml" target="_top" xlink:title="9">
<text text-anchor="middle" x="205.8" y="-72.5764" font-family="Helvetica,sans-Serif" font-size="10.00">9</text>
</a>
</g>
</g>
<!-- dir_74e208acb2b5db593baf5455224ab674 -->
<g id="node5" class="node"><title>dir_74e208acb2b5db593baf5455224ab674</title>
<g id="a_node5"><a xlink:href="dir_74e208acb2b5db593baf5455224ab674.xhtml" target="_top" xlink:title="cmsis">
<polygon fill="white" stroke="red" points="321,-60 267,-60 267,-24 321,-24 321,-60"/>
<text text-anchor="middle" x="294" y="-39.5" font-family="Helvetica,sans-Serif" font-size="10.00">cmsis</text>
</a>
</g>
</g>
<!-- dir_0d89778b8b998febf86480dc70bc2ffa&#45;&gt;dir_74e208acb2b5db593baf5455224ab674 -->
<g id="edge4" class="edge"><title>dir_0d89778b8b998febf86480dc70bc2ffa&#45;&gt;dir_74e208acb2b5db593baf5455224ab674</title>
<path fill="none" stroke="black" d="M205.785,-96.2333C221.394,-86.8142 241.053,-74.9507 257.849,-64.8151"/>
<polygon fill="black" stroke="black" points="260.089,-67.5518 266.842,-59.3884 256.472,-61.5584 260.089,-67.5518"/>
<g id="a_edge4&#45;headlabel"><a xlink:href="dir_000022_000015.xhtml" target="_top" xlink:title="9">
<text text-anchor="middle" x="258.478" y="-69.3399" font-family="Helvetica,sans-Serif" font-size="10.00">9</text>
</a>
</g>
</g>
</g>
</svg>
