<?xml version="1.0" encoding="UTF-8" standalone="no"?>
<!DOCTYPE svg PUBLIC "-//W3C//DTD SVG 1.1//EN"
 "http://www.w3.org/Graphics/SVG/1.1/DTD/svg11.dtd">
<!-- Generated by graphviz version 2.38.0 (20140413.2041)
 -->
<!-- Title: src/System Pages: 1 -->
<svg width="286pt" height="231pt"
 viewBox="0.00 0.00 285.98 231.00" xmlns="http://www.w3.org/2000/svg" xmlns:xlink="http://www.w3.org/1999/xlink">
<g id="graph0" class="graph" transform="scale(1 1) rotate(0) translate(4 227)">
<title>src/System</title>
<polygon fill="white" stroke="none" points="-4,4 -4,-227 281.978,-227 281.978,4 -4,4"/>
<g id="clust1" class="cluster"><title>clusterdir_68267d1309a1af8e8297ef4c3efbcdba</title>
<g id="a_clust1"><a xlink:href="dir_68267d1309a1af8e8297ef4c3efbcdba.xhtml" target="_top" xlink:title="src">
<polygon fill="#ddddee" stroke="black" points="8,-56 8,-215 198,-215 198,-56 8,-56"/>
<text text-anchor="middle" x="103" y="-203" font-family="Helvetica,sans-Serif" font-size="10.00">src</text>
</a>
</g>
</g>
<g id="clust2" class="cluster"><title>clusterdir_ef68f1e1f5148ff8ef7fb1c955106c3c</title>
<g id="a_clust2"><a xlink:href="dir_ef68f1e1f5148ff8ef7fb1c955106c3c.xhtml" target="_top">
<polygon fill="#eeeeff" stroke="black" points="16,-64 16,-188 190,-188 190,-64 16,-64"/>
</a>
</g>
</g>
<!-- dir_ef68f1e1f5148ff8ef7fb1c955106c3c -->
<g id="node1" class="node"><title>dir_ef68f1e1f5148ff8ef7fb1c955106c3c</title>
<text text-anchor="middle" x="155" y="-159.5" font-family="Helvetica,sans-Serif" font-size="10.00">System</text>
</g>
<!-- dir_46250802dedbf2e879301074378bab7e -->
<g id="node2" class="node"><title>dir_46250802dedbf2e879301074378bab7e</title>
<g id="a_node2"><a xlink:href="dir_46250802dedbf2e879301074378bab7e.xhtml" target="_top" xlink:title="File">
<polygon fill="white" stroke="black" points="138,-108 84,-108 84,-72 138,-72 138,-108"/>
<text text-anchor="middle" x="111" y="-87.5" font-family="Helvetica,sans-Serif" font-size="10.00">File</text>
</a>
</g>
</g>
<!-- dir_d44c64559bbebec7f509842c48db8b23 -->
<g id="node5" class="node"><title>dir_d44c64559bbebec7f509842c48db8b23</title>
<g id="a_node5"><a xlink:href="dir_d44c64559bbebec7f509842c48db8b23.xhtml" target="_top" xlink:title="include">
<polygon fill="none" stroke="black" points="260,-36 206,-36 206,-0 260,-0 260,-36"/>
<text text-anchor="middle" x="233" y="-15.5" font-family="Helvetica,sans-Serif" font-size="10.00">include</text>
</a>
</g>
</g>
<!-- dir_46250802dedbf2e879301074378bab7e&#45;&gt;dir_d44c64559bbebec7f509842c48db8b23 -->
<g id="edge5" class="edge"><title>dir_46250802dedbf2e879301074378bab7e&#45;&gt;dir_d44c64559bbebec7f509842c48db8b23</title>
<path fill="none" stroke="black" d="M138.076,-73.4647C155.45,-63.4958 178.208,-50.4378 197.085,-39.6067"/>
<polygon fill="black" stroke="black" points="199.068,-42.5044 206,-34.4918 195.584,-36.4328 199.068,-42.5044"/>
<g id="a_edge5&#45;headlabel"><a xlink:href="dir_000066_000000.xhtml" target="_top" xlink:title="7">
<text text-anchor="middle" x="197.363" y="-44.2559" font-family="Helvetica,sans-Serif" font-size="10.00">7</text>
</a>
</g>
</g>
<!-- dir_c5f8359c90fc50a3bccfe61816fa931c -->
<g id="node3" class="node"><title>dir_c5f8359c90fc50a3bccfe61816fa931c</title>
<g id="a_node3"><a xlink:href="dir_c5f8359c90fc50a3bccfe61816fa931c.xhtml" target="_top" xlink:title="Housekeeping">
<polygon fill="white" stroke="black" points="109.5,-180 24.5,-180 24.5,-144 109.5,-144 109.5,-180"/>
<text text-anchor="middle" x="67" y="-159.5" font-family="Helvetica,sans-Serif" font-size="10.00">Housekeeping</text>
</a>
</g>
</g>
<!-- dir_c5f8359c90fc50a3bccfe61816fa931c&#45;&gt;dir_46250802dedbf2e879301074378bab7e -->
<g id="edge4" class="edge"><title>dir_c5f8359c90fc50a3bccfe61816fa931c&#45;&gt;dir_46250802dedbf2e879301074378bab7e</title>
<path fill="none" stroke="black" d="M77.8764,-143.697C82.9916,-135.559 89.1955,-125.689 94.8449,-116.701"/>
<polygon fill="black" stroke="black" points="97.8902,-118.433 100.249,-108.104 91.9637,-114.708 97.8902,-118.433"/>
<g id="a_edge4&#45;headlabel"><a xlink:href="dir_000067_000066.xhtml" target="_top" xlink:title="1">
<text text-anchor="middle" x="98.3811" y="-120.488" font-family="Helvetica,sans-Serif" font-size="10.00">1</text>
</a>
</g>
</g>
<!-- dir_4ce6a7f885e2866a554ba9e7335035f1 -->
<g id="node4" class="node"><title>dir_4ce6a7f885e2866a554ba9e7335035f1</title>
<g id="a_node4"><a xlink:href="dir_4ce6a7f885e2866a554ba9e7335035f1.xhtml" target="_top" xlink:title="hal">
<polygon fill="white" stroke="red" points="260,-108 206,-108 206,-72 260,-72 260,-108"/>
<text text-anchor="middle" x="233" y="-87.5" font-family="Helvetica,sans-Serif" font-size="10.00">hal</text>
</a>
</g>
</g>
<!-- dir_c5f8359c90fc50a3bccfe61816fa931c&#45;&gt;dir_4ce6a7f885e2866a554ba9e7335035f1 -->
<g id="edge2" class="edge"><title>dir_c5f8359c90fc50a3bccfe61816fa931c&#45;&gt;dir_4ce6a7f885e2866a554ba9e7335035f1</title>
<path fill="none" stroke="black" d="M108.25,-143.978C133.128,-133.664 165.432,-120.187 194,-108 194.832,-107.645 195.674,-107.285 196.523,-106.921"/>
<polygon fill="black" stroke="black" points="197.951,-110.117 205.748,-102.944 195.18,-103.689 197.951,-110.117"/>
<g id="a_edge2&#45;headlabel"><a xlink:href="dir_000067_000003.xhtml" target="_top" xlink:title="1">
<text text-anchor="middle" x="195.775" y="-111.647" font-family="Helvetica,sans-Serif" font-size="10.00">1</text>
</a>
</g>
</g>
<!-- dir_c5f8359c90fc50a3bccfe61816fa931c&#45;&gt;dir_d44c64559bbebec7f509842c48db8b23 -->
<g id="edge3" class="edge"><title>dir_c5f8359c90fc50a3bccfe61816fa931c&#45;&gt;dir_d44c64559bbebec7f509842c48db8b23</title>
<path fill="none" stroke="black" d="M109.765,-146.717C112.882,-145.769 115.984,-144.853 119,-144 184.97,-125.333 226.553,-161.84 269,-108 283.309,-89.851 277.698,-77.412 269,-56 267.245,-51.6796 264.716,-47.5869 261.801,-43.808"/>
<polygon fill="black" stroke="black" points="264.2,-41.2376 254.951,-36.0695 258.958,-45.8773 264.2,-41.2376"/>
<g id="a_edge3&#45;headlabel"><a xlink:href="dir_000067_000000.xhtml" target="_top" xlink:title="3">
<text text-anchor="middle" x="268.708" y="-39.5473" font-family="Helvetica,sans-Serif" font-size="10.00">3</text>
</a>
</g>
</g>
<!-- dir_4ce6a7f885e2866a554ba9e7335035f1&#45;&gt;dir_d44c64559bbebec7f509842c48db8b23 -->
<g id="edge1" class="edge"><title>dir_4ce6a7f885e2866a554ba9e7335035f1&#45;&gt;dir_d44c64559bbebec7f509842c48db8b23</title>
<path fill="none" stroke="black" d="M233,-71.6966C233,-63.9827 233,-54.7125 233,-46.1124"/>
<polygon fill="black" stroke="black" points="236.5,-46.1043 233,-36.1043 229.5,-46.1044 236.5,-46.1043"/>
<g id="a_edge1&#45;headlabel"><a xlink:href="dir_000003_000000.xhtml" target="_top" xlink:title="27">
<text text-anchor="middle" x="239.339" y="-47.199" font-family="Helvetica,sans-Serif" font-size="10.00">27</text>
</a>
</g>
</g>
</g>
</svg>
