<?xml version="1.0" encoding="UTF-8" standalone="no"?>
<!DOCTYPE svg PUBLIC "-//W3C//DTD SVG 1.1//EN"
 "http://www.w3.org/Graphics/SVG/1.1/DTD/svg11.dtd">
<!-- Generated by graphviz version 2.38.0 (20140413.2041)
 -->
<!-- Title: src/hal/x4m0x_s70/libraries/libusb/device Pages: 1 -->
<svg width="1207pt" height="303pt"
 viewBox="0.00 0.00 1207.00 303.00" xmlns="http://www.w3.org/2000/svg" xmlns:xlink="http://www.w3.org/1999/xlink">
<g id="graph0" class="graph" transform="scale(1 1) rotate(0) translate(4 299)">
<title>src/hal/x4m0x_s70/libraries/libusb/device</title>
<polygon fill="white" stroke="none" points="-4,4 -4,-299 1203,-299 1203,4 -4,4"/>
<g id="clust1" class="cluster"><title>clusterdir_608da0ca01c56cd314839049683ac68c</title>
<g id="a_clust1"><a xlink:href="dir_608da0ca01c56cd314839049683ac68c.xhtml" target="_top" xlink:title="libusb">
<polygon fill="#ddddee" stroke="black" points="8,-200 8,-287 1191,-287 1191,-200 8,-200"/>
<text text-anchor="middle" x="599.5" y="-275" font-family="Helvetica,sans-Serif" font-size="10.00">libusb</text>
</a>
</g>
</g>
<g id="clust2" class="cluster"><title>clusterdir_d2da8e13eb5c48e27ac81e92e0b056f1</title>
<g id="a_clust2"><a xlink:href="dir_d2da8e13eb5c48e27ac81e92e0b056f1.xhtml" target="_top">
<polygon fill="#eeeeff" stroke="black" points="16,-208 16,-260 1183,-260 1183,-208 16,-208"/>
</a>
</g>
</g>
<!-- dir_d2da8e13eb5c48e27ac81e92e0b056f1 -->
<g id="node1" class="node"><title>dir_d2da8e13eb5c48e27ac81e92e0b056f1</title>
<text text-anchor="middle" x="1148" y="-231.5" font-family="Helvetica,sans-Serif" font-size="10.00">device</text>
</g>
<!-- dir_ef75c6204c2a2c95c5ea4e325414a557 -->
<g id="node2" class="node"><title>dir_ef75c6204c2a2c95c5ea4e325414a557</title>
<g id="a_node2"><a xlink:href="dir_ef75c6204c2a2c95c5ea4e325414a557.xhtml" target="_top" xlink:title="audio&#45;speaker">
<polygon fill="white" stroke="black" points="514.5,-252 429.5,-252 429.5,-216 514.5,-216 514.5,-252"/>
<text text-anchor="middle" x="472" y="-231.5" font-family="Helvetica,sans-Serif" font-size="10.00">audio&#45;speaker</text>
</a>
</g>
</g>
<!-- dir_c46a29a3f6521c422d3477bfa11d561d -->
<g id="node15" class="node"><title>dir_c46a29a3f6521c422d3477bfa11d561d</title>
<g id="a_node15"><a xlink:href="dir_c46a29a3f6521c422d3477bfa11d561d.xhtml" target="_top" xlink:title="include">
<polygon fill="none" stroke="black" points="627,-180 573,-180 573,-144 627,-144 627,-180"/>
<text text-anchor="middle" x="600" y="-159.5" font-family="Helvetica,sans-Serif" font-size="10.00">include</text>
</a>
</g>
</g>
<!-- dir_ef75c6204c2a2c95c5ea4e325414a557&#45;&gt;dir_c46a29a3f6521c422d3477bfa11d561d -->
<g id="edge6" class="edge"><title>dir_ef75c6204c2a2c95c5ea4e325414a557&#45;&gt;dir_c46a29a3f6521c422d3477bfa11d561d</title>
<path fill="none" stroke="black" d="M497.574,-215.967C505.883,-210.651 515.225,-204.9 524,-200 536.661,-192.93 550.87,-185.806 563.547,-179.722"/>
<polygon fill="black" stroke="black" points="565.356,-182.738 572.892,-175.291 562.356,-176.413 565.356,-182.738"/>
<g id="a_edge6&#45;headlabel"><a xlink:href="dir_000039_000060.xhtml" target="_top" xlink:title="8">
<text text-anchor="middle" x="563.324" y="-184.344" font-family="Helvetica,sans-Serif" font-size="10.00">8</text>
</a>
</g>
</g>
<!-- dir_02e568266cc2dfcd321185c0d344906d -->
<g id="node3" class="node"><title>dir_02e568266cc2dfcd321185c0d344906d</title>
<g id="a_node3"><a xlink:href="dir_02e568266cc2dfcd321185c0d344906d.xhtml" target="_top" xlink:title="audio&#45;speakerphone">
<polygon fill="white" stroke="black" points="411.5,-252 296.5,-252 296.5,-216 411.5,-216 411.5,-252"/>
<text text-anchor="middle" x="354" y="-231.5" font-family="Helvetica,sans-Serif" font-size="10.00">audio&#45;speakerphone</text>
</a>
</g>
</g>
<!-- dir_02e568266cc2dfcd321185c0d344906d&#45;&gt;dir_c46a29a3f6521c422d3477bfa11d561d -->
<g id="edge5" class="edge"><title>dir_02e568266cc2dfcd321185c0d344906d&#45;&gt;dir_c46a29a3f6521c422d3477bfa11d561d</title>
<path fill="none" stroke="black" d="M384.655,-215.863C395.83,-210.167 408.736,-204.211 421,-200 434.247,-195.452 514.354,-179.58 562.803,-170.166"/>
<polygon fill="black" stroke="black" points="563.767,-173.544 572.918,-168.205 562.434,-166.672 563.767,-173.544"/>
<g id="a_edge5&#45;headlabel"><a xlink:href="dir_000040_000060.xhtml" target="_top" xlink:title="11">
<text text-anchor="middle" x="560.778" y="-174.515" font-family="Helvetica,sans-Serif" font-size="10.00">11</text>
</a>
</g>
</g>
<!-- dir_3ce8cf7b8cb31a3153862abb132e64d5 -->
<g id="node4" class="node"><title>dir_3ce8cf7b8cb31a3153862abb132e64d5</title>
<g id="a_node4"><a xlink:href="dir_3ce8cf7b8cb31a3153862abb132e64d5.xhtml" target="_top" xlink:title="ccid">
<polygon fill="white" stroke="black" points="945,-252 891,-252 891,-216 945,-216 945,-252"/>
<text text-anchor="middle" x="918" y="-231.5" font-family="Helvetica,sans-Serif" font-size="10.00">ccid</text>
</a>
</g>
</g>
<!-- dir_a75a6fe80fd9120ba7dd67a0b33a7bc9 -->
<g id="node14" class="node"><title>dir_a75a6fe80fd9120ba7dd67a0b33a7bc9</title>
<g id="a_node14"><a xlink:href="dir_a75a6fe80fd9120ba7dd67a0b33a7bc9.xhtml" target="_top" xlink:title="libchip">
<polygon fill="white" stroke="red" points="627,-108 573,-108 573,-72 627,-72 627,-108"/>
<text text-anchor="middle" x="600" y="-87.5" font-family="Helvetica,sans-Serif" font-size="10.00">libchip</text>
</a>
</g>
</g>
<!-- dir_3ce8cf7b8cb31a3153862abb132e64d5&#45;&gt;dir_a75a6fe80fd9120ba7dd67a0b33a7bc9 -->
<g id="edge11" class="edge"><title>dir_3ce8cf7b8cb31a3153862abb132e64d5&#45;&gt;dir_a75a6fe80fd9120ba7dd67a0b33a7bc9</title>
<path fill="none" stroke="black" d="M901.856,-215.812C895.99,-210.244 889.06,-204.381 882,-200 800.967,-149.715 692.909,-115.903 637.004,-100.51"/>
<polygon fill="black" stroke="black" points="637.758,-97.0879 627.191,-97.8501 635.927,-103.844 637.758,-97.0879"/>
<g id="a_edge11&#45;headlabel"><a xlink:href="dir_000041_000013.xhtml" target="_top" xlink:title="1">
<text text-anchor="middle" x="641.97" y="-92.7877" font-family="Helvetica,sans-Serif" font-size="10.00">1</text>
</a>
</g>
</g>
<!-- dir_3ce8cf7b8cb31a3153862abb132e64d5&#45;&gt;dir_c46a29a3f6521c422d3477bfa11d561d -->
<g id="edge12" class="edge"><title>dir_3ce8cf7b8cb31a3153862abb132e64d5&#45;&gt;dir_c46a29a3f6521c422d3477bfa11d561d</title>
<path fill="none" stroke="black" d="M903.449,-215.854C897.432,-209.87 889.992,-203.725 882,-200 860.245,-189.859 708.859,-173.778 637.306,-166.631"/>
<polygon fill="black" stroke="black" points="637.651,-163.148 627.354,-165.643 636.959,-170.113 637.651,-163.148"/>
<g id="a_edge12&#45;headlabel"><a xlink:href="dir_000041_000060.xhtml" target="_top" xlink:title="5">
<text text-anchor="middle" x="641.508" y="-158.177" font-family="Helvetica,sans-Serif" font-size="10.00">5</text>
</a>
</g>
</g>
<!-- dir_dfe27435bcfd151e7ed4283bed0cb4f8 -->
<g id="node5" class="node"><title>dir_dfe27435bcfd151e7ed4283bed0cb4f8</title>
<g id="a_node5"><a xlink:href="dir_dfe27435bcfd151e7ed4283bed0cb4f8.xhtml" target="_top" xlink:title="cdc&#45;eem">
<polygon fill="white" stroke="black" points="1102.5,-252 1043.5,-252 1043.5,-216 1102.5,-216 1102.5,-252"/>
<text text-anchor="middle" x="1073" y="-231.5" font-family="Helvetica,sans-Serif" font-size="10.00">cdc&#45;eem</text>
</a>
</g>
</g>
<!-- dir_dfe27435bcfd151e7ed4283bed0cb4f8&#45;&gt;dir_c46a29a3f6521c422d3477bfa11d561d -->
<g id="edge13" class="edge"><title>dir_dfe27435bcfd151e7ed4283bed0cb4f8&#45;&gt;dir_c46a29a3f6521c422d3477bfa11d561d</title>
<path fill="none" stroke="black" d="M1057.09,-215.656C1050.55,-209.648 1042.52,-203.538 1034,-200 962.709,-170.39 729.087,-164.476 637.404,-163.295"/>
<polygon fill="black" stroke="black" points="637.241,-159.793 627.2,-163.175 637.159,-166.792 637.241,-159.793"/>
<g id="a_edge13&#45;headlabel"><a xlink:href="dir_000042_000060.xhtml" target="_top" xlink:title="11">
<text text-anchor="middle" x="640.868" y="-154.495" font-family="Helvetica,sans-Serif" font-size="10.00">11</text>
</a>
</g>
</g>
<!-- dir_b1319e8f428daa0564aada829adff08d -->
<g id="node16" class="node"><title>dir_b1319e8f428daa0564aada829adff08d</title>
<g id="a_node16"><a xlink:href="dir_b1319e8f428daa0564aada829adff08d.xhtml" target="_top" xlink:title="utils">
<polygon fill="white" stroke="red" points="627,-36 573,-36 573,-0 627,-0 627,-36"/>
<text text-anchor="middle" x="600" y="-15.5" font-family="Helvetica,sans-Serif" font-size="10.00">utils</text>
</a>
</g>
</g>
<!-- dir_dfe27435bcfd151e7ed4283bed0cb4f8&#45;&gt;dir_b1319e8f428daa0564aada829adff08d -->
<g id="edge14" class="edge"><title>dir_dfe27435bcfd151e7ed4283bed0cb4f8&#45;&gt;dir_b1319e8f428daa0564aada829adff08d</title>
<path fill="none" stroke="black" d="M1055.24,-215.986C1048.87,-210.432 1041.42,-204.534 1034,-200 896.845,-116.157 713.914,-54.2088 636.773,-30.0775"/>
<polygon fill="black" stroke="black" points="637.623,-26.677 627.035,-27.0573 635.55,-33.3628 637.623,-26.677"/>
<g id="a_edge14&#45;headlabel"><a xlink:href="dir_000042_000061.xhtml" target="_top" xlink:title="1">
<text text-anchor="middle" x="641.898" y="-22.5301" font-family="Helvetica,sans-Serif" font-size="10.00">1</text>
</a>
</g>
</g>
<!-- dir_3c28fac45ab8d8da920ac7aca51a5f68 -->
<g id="node6" class="node"><title>dir_3c28fac45ab8d8da920ac7aca51a5f68</title>
<g id="a_node6"><a xlink:href="dir_3c28fac45ab8d8da920ac7aca51a5f68.xhtml" target="_top" xlink:title="cdc&#45;serial">
<polygon fill="white" stroke="black" points="1025,-252 963,-252 963,-216 1025,-216 1025,-252"/>
<text text-anchor="middle" x="994" y="-231.5" font-family="Helvetica,sans-Serif" font-size="10.00">cdc&#45;serial</text>
</a>
</g>
</g>
<!-- dir_3c28fac45ab8d8da920ac7aca51a5f68&#45;&gt;dir_a75a6fe80fd9120ba7dd67a0b33a7bc9 -->
<g id="edge19" class="edge"><title>dir_3c28fac45ab8d8da920ac7aca51a5f68&#45;&gt;dir_a75a6fe80fd9120ba7dd67a0b33a7bc9</title>
<path fill="none" stroke="black" d="M975.314,-215.696C968.86,-210.246 961.388,-204.484 954,-200 849.377,-136.499 704.662,-107.172 637.29,-96.3034"/>
<polygon fill="black" stroke="black" points="637.581,-92.8064 627.159,-94.7152 636.497,-99.7219 637.581,-92.8064"/>
<g id="a_edge19&#45;headlabel"><a xlink:href="dir_000043_000013.xhtml" target="_top" xlink:title="1">
<text text-anchor="middle" x="641.572" y="-88.058" font-family="Helvetica,sans-Serif" font-size="10.00">1</text>
</a>
</g>
</g>
<!-- dir_3c28fac45ab8d8da920ac7aca51a5f68&#45;&gt;dir_c46a29a3f6521c422d3477bfa11d561d -->
<g id="edge20" class="edge"><title>dir_3c28fac45ab8d8da920ac7aca51a5f68&#45;&gt;dir_c46a29a3f6521c422d3477bfa11d561d</title>
<path fill="none" stroke="black" d="M977.573,-215.742C970.855,-209.745 962.635,-203.62 954,-200 897.599,-176.355 716.781,-167.155 637.663,-164.198"/>
<polygon fill="black" stroke="black" points="637.318,-160.683 627.198,-163.821 637.066,-167.678 637.318,-160.683"/>
<g id="a_edge20&#45;headlabel"><a xlink:href="dir_000043_000060.xhtml" target="_top" xlink:title="13">
<text text-anchor="middle" x="641.012" y="-155.475" font-family="Helvetica,sans-Serif" font-size="10.00">13</text>
</a>
</g>
</g>
<!-- dir_f4862fdaf6e04616b4d4384aa0d93e1d -->
<g id="node7" class="node"><title>dir_f4862fdaf6e04616b4d4384aa0d93e1d</title>
<g id="a_node7"><a xlink:href="dir_f4862fdaf6e04616b4d4384aa0d93e1d.xhtml" target="_top" xlink:title="composite">
<polygon fill="white" stroke="black" points="599.5,-252 532.5,-252 532.5,-216 599.5,-216 599.5,-252"/>
<text text-anchor="middle" x="566" y="-231.5" font-family="Helvetica,sans-Serif" font-size="10.00">composite</text>
</a>
</g>
</g>
<!-- dir_f4862fdaf6e04616b4d4384aa0d93e1d&#45;&gt;dir_c46a29a3f6521c422d3477bfa11d561d -->
<g id="edge15" class="edge"><title>dir_f4862fdaf6e04616b4d4384aa0d93e1d&#45;&gt;dir_c46a29a3f6521c422d3477bfa11d561d</title>
<path fill="none" stroke="black" d="M574.404,-215.697C578.275,-207.728 582.952,-198.1 587.243,-189.264"/>
<polygon fill="black" stroke="black" points="590.471,-190.629 591.692,-180.104 584.175,-187.57 590.471,-190.629"/>
<g id="a_edge15&#45;headlabel"><a xlink:href="dir_000044_000060.xhtml" target="_top" xlink:title="32">
<text text-anchor="middle" x="591.455" y="-192.602" font-family="Helvetica,sans-Serif" font-size="10.00">32</text>
</a>
</g>
</g>
<!-- dir_4b25f89b83ffd9aa26365769afe19ee6 -->
<g id="node8" class="node"><title>dir_4b25f89b83ffd9aa26365769afe19ee6</title>
<g id="a_node8"><a xlink:href="dir_4b25f89b83ffd9aa26365769afe19ee6.xhtml" target="_top" xlink:title="core">
<polygon fill="white" stroke="black" points="78,-252 24,-252 24,-216 78,-216 78,-252"/>
<text text-anchor="middle" x="51" y="-231.5" font-family="Helvetica,sans-Serif" font-size="10.00">core</text>
</a>
</g>
</g>
<!-- dir_4b25f89b83ffd9aa26365769afe19ee6&#45;&gt;dir_a75a6fe80fd9120ba7dd67a0b33a7bc9 -->
<g id="edge16" class="edge"><title>dir_4b25f89b83ffd9aa26365769afe19ee6&#45;&gt;dir_a75a6fe80fd9120ba7dd67a0b33a7bc9</title>
<path fill="none" stroke="black" d="M67.1048,-215.748C72.967,-210.175 79.9054,-204.325 87,-200 148.472,-162.525 169.233,-161.769 239,-144 355.007,-114.455 496.465,-99.6484 562.581,-93.9207"/>
<polygon fill="black" stroke="black" points="563.235,-97.3779 572.905,-93.0476 562.645,-90.4028 563.235,-97.3779"/>
<g id="a_edge16&#45;headlabel"><a xlink:href="dir_000045_000013.xhtml" target="_top" xlink:title="1">
<text text-anchor="middle" x="559.893" y="-98.01" font-family="Helvetica,sans-Serif" font-size="10.00">1</text>
</a>
</g>
</g>
<!-- dir_4b25f89b83ffd9aa26365769afe19ee6&#45;&gt;dir_c46a29a3f6521c422d3477bfa11d561d -->
<g id="edge17" class="edge"><title>dir_4b25f89b83ffd9aa26365769afe19ee6&#45;&gt;dir_c46a29a3f6521c422d3477bfa11d561d</title>
<path fill="none" stroke="black" d="M65.0944,-215.952C71.1561,-209.827 78.7468,-203.557 87,-200 172.534,-163.132 459.336,-161.781 562.573,-162.544"/>
<polygon fill="black" stroke="black" points="562.797,-166.046 572.827,-162.632 562.857,-159.047 562.797,-166.046"/>
<g id="a_edge17&#45;headlabel"><a xlink:href="dir_000045_000060.xhtml" target="_top" xlink:title="16">
<text text-anchor="middle" x="559.179" y="-166.355" font-family="Helvetica,sans-Serif" font-size="10.00">16</text>
</a>
</g>
</g>
<!-- dir_c98808c63876b0bdc8f8c5660747733a -->
<g id="node9" class="node"><title>dir_c98808c63876b0bdc8f8c5660747733a</title>
<g id="a_node9"><a xlink:href="dir_c98808c63876b0bdc8f8c5660747733a.xhtml" target="_top" xlink:title="hal_examples">
<polygon fill="white" stroke="black" points="179.5,-252 96.5,-252 96.5,-216 179.5,-216 179.5,-252"/>
<text text-anchor="middle" x="138" y="-231.5" font-family="Helvetica,sans-Serif" font-size="10.00">hal_examples</text>
</a>
</g>
</g>
<!-- dir_c98808c63876b0bdc8f8c5660747733a&#45;&gt;dir_a75a6fe80fd9120ba7dd67a0b33a7bc9 -->
<g id="edge1" class="edge"><title>dir_c98808c63876b0bdc8f8c5660747733a&#45;&gt;dir_a75a6fe80fd9120ba7dd67a0b33a7bc9</title>
<path fill="none" stroke="black" d="M161.319,-215.92C169.743,-210.296 179.518,-204.37 189,-200 319.355,-139.916 488.79,-108.223 562.742,-96.4547"/>
<polygon fill="black" stroke="black" points="563.604,-99.8627 572.945,-94.862 562.524,-92.9464 563.604,-99.8627"/>
<g id="a_edge1&#45;headlabel"><a xlink:href="dir_000046_000013.xhtml" target="_top" xlink:title="2">
<text text-anchor="middle" x="560.49" y="-100.722" font-family="Helvetica,sans-Serif" font-size="10.00">2</text>
</a>
</g>
</g>
<!-- dir_c98808c63876b0bdc8f8c5660747733a&#45;&gt;dir_c46a29a3f6521c422d3477bfa11d561d -->
<g id="edge2" class="edge"><title>dir_c98808c63876b0bdc8f8c5660747733a&#45;&gt;dir_c46a29a3f6521c422d3477bfa11d561d</title>
<path fill="none" stroke="black" d="M159.622,-215.695C168.27,-209.692 178.631,-203.575 189,-200 206.542,-193.951 464.929,-173.456 562.802,-165.862"/>
<polygon fill="black" stroke="black" points="563.142,-169.346 572.842,-165.084 562.601,-162.367 563.142,-169.346"/>
<g id="a_edge2&#45;headlabel"><a xlink:href="dir_000046_000060.xhtml" target="_top" xlink:title="2">
<text text-anchor="middle" x="559.777" y="-169.954" font-family="Helvetica,sans-Serif" font-size="10.00">2</text>
</a>
</g>
</g>
<!-- dir_169dccb72b6ddbf7b5b07a16f85e4db3 -->
<g id="node10" class="node"><title>dir_169dccb72b6ddbf7b5b07a16f85e4db3</title>
<g id="a_node10"><a xlink:href="dir_169dccb72b6ddbf7b5b07a16f85e4db3.xhtml" target="_top" xlink:title="hid&#45;keyboard">
<polygon fill="white" stroke="black" points="696.5,-252 617.5,-252 617.5,-216 696.5,-216 696.5,-252"/>
<text text-anchor="middle" x="657" y="-231.5" font-family="Helvetica,sans-Serif" font-size="10.00">hid&#45;keyboard</text>
</a>
</g>
</g>
<!-- dir_169dccb72b6ddbf7b5b07a16f85e4db3&#45;&gt;dir_c46a29a3f6521c422d3477bfa11d561d -->
<g id="edge18" class="edge"><title>dir_169dccb72b6ddbf7b5b07a16f85e4db3&#45;&gt;dir_c46a29a3f6521c422d3477bfa11d561d</title>
<path fill="none" stroke="black" d="M642.91,-215.697C636.077,-207.305 627.743,-197.07 620.244,-187.861"/>
<polygon fill="black" stroke="black" points="622.956,-185.649 613.928,-180.104 617.528,-190.069 622.956,-185.649"/>
<g id="a_edge18&#45;headlabel"><a xlink:href="dir_000047_000060.xhtml" target="_top" xlink:title="27">
<text text-anchor="middle" x="627.428" y="-184.143" font-family="Helvetica,sans-Serif" font-size="10.00">27</text>
</a>
</g>
</g>
<!-- dir_044185350c296386d65f5cc89f66f3f7 -->
<g id="node11" class="node"><title>dir_044185350c296386d65f5cc89f66f3f7</title>
<g id="a_node11"><a xlink:href="dir_044185350c296386d65f5cc89f66f3f7.xhtml" target="_top" xlink:title="hid&#45;mouse">
<polygon fill="white" stroke="black" points="873,-252 805,-252 805,-216 873,-216 873,-252"/>
<text text-anchor="middle" x="839" y="-231.5" font-family="Helvetica,sans-Serif" font-size="10.00">hid&#45;mouse</text>
</a>
</g>
</g>
<!-- dir_044185350c296386d65f5cc89f66f3f7&#45;&gt;dir_c46a29a3f6521c422d3477bfa11d561d -->
<g id="edge8" class="edge"><title>dir_044185350c296386d65f5cc89f66f3f7&#45;&gt;dir_c46a29a3f6521c422d3477bfa11d561d</title>
<path fill="none" stroke="black" d="M820.552,-215.796C813.368,-209.954 804.762,-203.919 796,-200 743.947,-176.719 677.765,-168.079 637.166,-164.878"/>
<polygon fill="black" stroke="black" points="637.397,-161.386 627.172,-164.16 636.895,-168.368 637.397,-161.386"/>
<g id="a_edge8&#45;headlabel"><a xlink:href="dir_000048_000060.xhtml" target="_top" xlink:title="6">
<text text-anchor="middle" x="641.186" y="-156.311" font-family="Helvetica,sans-Serif" font-size="10.00">6</text>
</a>
</g>
</g>
<!-- dir_e8200aaa678b2e1090fb0e8bdd074e2a -->
<g id="node12" class="node"><title>dir_e8200aaa678b2e1090fb0e8bdd074e2a</title>
<g id="a_node12"><a xlink:href="dir_e8200aaa678b2e1090fb0e8bdd074e2a.xhtml" target="_top" xlink:title="hid&#45;transfer">
<polygon fill="white" stroke="black" points="787,-252 715,-252 715,-216 787,-216 787,-252"/>
<text text-anchor="middle" x="751" y="-231.5" font-family="Helvetica,sans-Serif" font-size="10.00">hid&#45;transfer</text>
</a>
</g>
</g>
<!-- dir_e8200aaa678b2e1090fb0e8bdd074e2a&#45;&gt;dir_c46a29a3f6521c422d3477bfa11d561d -->
<g id="edge10" class="edge"><title>dir_e8200aaa678b2e1090fb0e8bdd074e2a&#45;&gt;dir_c46a29a3f6521c422d3477bfa11d561d</title>
<path fill="none" stroke="black" d="M730.337,-215.857C722.966,-210.292 714.403,-204.42 706,-200 684.06,-188.458 657.756,-179.252 636.84,-172.909"/>
<polygon fill="black" stroke="black" points="637.629,-169.493 627.048,-170.028 635.653,-176.208 637.629,-169.493"/>
<g id="a_edge10&#45;headlabel"><a xlink:href="dir_000049_000060.xhtml" target="_top" xlink:title="10">
<text text-anchor="middle" x="641.879" y="-165.284" font-family="Helvetica,sans-Serif" font-size="10.00">10</text>
</a>
</g>
</g>
<!-- dir_2702c2fb8a9d52ab2ce5363fbdffec02 -->
<g id="node13" class="node"><title>dir_2702c2fb8a9d52ab2ce5363fbdffec02</title>
<g id="a_node13"><a xlink:href="dir_2702c2fb8a9d52ab2ce5363fbdffec02.xhtml" target="_top" xlink:title="massstorage">
<polygon fill="white" stroke="black" points="278,-252 198,-252 198,-216 278,-216 278,-252"/>
<text text-anchor="middle" x="238" y="-231.5" font-family="Helvetica,sans-Serif" font-size="10.00">massstorage</text>
</a>
</g>
</g>
<!-- dir_2702c2fb8a9d52ab2ce5363fbdffec02&#45;&gt;dir_a75a6fe80fd9120ba7dd67a0b33a7bc9 -->
<g id="edge3" class="edge"><title>dir_2702c2fb8a9d52ab2ce5363fbdffec02&#45;&gt;dir_a75a6fe80fd9120ba7dd67a0b33a7bc9</title>
<path fill="none" stroke="black" d="M260.41,-215.708C268.706,-209.997 278.429,-204.071 288,-200 325.307,-184.13 338.273,-191.996 377,-180 444.188,-159.187 519.689,-127.145 563.353,-107.718"/>
<polygon fill="black" stroke="black" points="564.998,-110.817 572.696,-103.537 562.139,-104.427 564.998,-110.817"/>
<g id="a_edge3&#45;headlabel"><a xlink:href="dir_000050_000013.xhtml" target="_top" xlink:title="1">
<text text-anchor="middle" x="562.876" y="-112.376" font-family="Helvetica,sans-Serif" font-size="10.00">1</text>
</a>
</g>
</g>
<!-- dir_2702c2fb8a9d52ab2ce5363fbdffec02&#45;&gt;dir_c46a29a3f6521c422d3477bfa11d561d -->
<g id="edge4" class="edge"><title>dir_2702c2fb8a9d52ab2ce5363fbdffec02&#45;&gt;dir_c46a29a3f6521c422d3477bfa11d561d</title>
<path fill="none" stroke="black" d="M259.15,-215.69C267.623,-209.686 277.79,-203.571 288,-200 381.931,-167.152 412.452,-193.796 511,-180 528.125,-177.603 546.952,-174.13 562.863,-170.947"/>
<polygon fill="black" stroke="black" points="563.75,-174.338 572.85,-168.912 562.352,-167.479 563.75,-174.338"/>
<g id="a_edge4&#45;headlabel"><a xlink:href="dir_000050_000060.xhtml" target="_top" xlink:title="23">
<text text-anchor="middle" x="560.795" y="-175.338" font-family="Helvetica,sans-Serif" font-size="10.00">23</text>
</a>
</g>
</g>
<!-- dir_a75a6fe80fd9120ba7dd67a0b33a7bc9&#45;&gt;dir_b1319e8f428daa0564aada829adff08d -->
<g id="edge7" class="edge"><title>dir_a75a6fe80fd9120ba7dd67a0b33a7bc9&#45;&gt;dir_b1319e8f428daa0564aada829adff08d</title>
<path fill="none" stroke="black" d="M594.084,-71.6966C593.289,-63.9827 593.062,-54.7125 593.405,-46.1124"/>
<polygon fill="black" stroke="black" points="596.898,-46.3243 594.105,-36.1043 589.915,-45.8356 596.898,-46.3243"/>
<g id="a_edge7&#45;headlabel"><a xlink:href="dir_000013_000061.xhtml" target="_top" xlink:title="2">
<text text-anchor="middle" x="599.48" y="-47.6083" font-family="Helvetica,sans-Serif" font-size="10.00">2</text>
</a>
</g>
</g>
<!-- dir_c46a29a3f6521c422d3477bfa11d561d&#45;&gt;dir_a75a6fe80fd9120ba7dd67a0b33a7bc9 -->
<g id="edge9" class="edge"><title>dir_c46a29a3f6521c422d3477bfa11d561d&#45;&gt;dir_a75a6fe80fd9120ba7dd67a0b33a7bc9</title>
<path fill="none" stroke="black" d="M600,-143.697C600,-135.983 600,-126.712 600,-118.112"/>
<polygon fill="black" stroke="black" points="603.5,-118.104 600,-108.104 596.5,-118.104 603.5,-118.104"/>
<g id="a_edge9&#45;headlabel"><a xlink:href="dir_000060_000013.xhtml" target="_top" xlink:title="1">
<text text-anchor="middle" x="606.339" y="-119.199" font-family="Helvetica,sans-Serif" font-size="10.00">1</text>
</a>
</g>
</g>
<!-- dir_b1319e8f428daa0564aada829adff08d&#45;&gt;dir_a75a6fe80fd9120ba7dd67a0b33a7bc9 -->
<g id="edge21" class="edge"><title>dir_b1319e8f428daa0564aada829adff08d&#45;&gt;dir_a75a6fe80fd9120ba7dd67a0b33a7bc9</title>
<path fill="none" stroke="black" d="M605.895,-36.1043C606.701,-43.7913 606.937,-53.0537 606.604,-61.6651"/>
<polygon fill="black" stroke="black" points="603.109,-61.4805 605.916,-71.6966 610.092,-61.9597 603.109,-61.4805"/>
<g id="a_edge21&#45;headlabel"><a xlink:href="dir_000061_000013.xhtml" target="_top" xlink:title="2">
<text text-anchor="middle" x="600.522" y="-55.2" font-family="Helvetica,sans-Serif" font-size="10.00">2</text>
</a>
</g>
</g>
</g>
</svg>
