<?xml version="1.0" encoding="UTF-8" standalone="no"?>
<!DOCTYPE svg PUBLIC "-//W3C//DTD SVG 1.1//EN"
 "http://www.w3.org/Graphics/SVG/1.1/DTD/svg11.dtd">
<!-- Generated by graphviz version 2.38.0 (20140413.2041)
 -->
<!-- Title: src/hal/x4m0x_s70/libraries/libusb/host Pages: 1 -->
<svg width="326pt" height="303pt"
 viewBox="0.00 0.00 326.00 303.00" xmlns="http://www.w3.org/2000/svg" xmlns:xlink="http://www.w3.org/1999/xlink">
<g id="graph0" class="graph" transform="scale(1 1) rotate(0) translate(4 299)">
<title>src/hal/x4m0x_s70/libraries/libusb/host</title>
<polygon fill="white" stroke="none" points="-4,4 -4,-299 322,-299 322,4 -4,4"/>
<g id="clust1" class="cluster"><title>clusterdir_608da0ca01c56cd314839049683ac68c</title>
<g id="a_clust1"><a xlink:href="dir_608da0ca01c56cd314839049683ac68c.xhtml" target="_top" xlink:title="libusb">
<polygon fill="#ddddee" stroke="black" points="8,-128 8,-287 310,-287 310,-128 8,-128"/>
<text text-anchor="middle" x="159" y="-275" font-family="Helvetica,sans-Serif" font-size="10.00">libusb</text>
</a>
</g>
</g>
<g id="clust2" class="cluster"><title>clusterdir_e0a7526ed6c62ee5f62af9e29af05b15</title>
<g id="a_clust2"><a xlink:href="dir_e0a7526ed6c62ee5f62af9e29af05b15.xhtml" target="_top">
<polygon fill="#eeeeff" stroke="black" points="16,-136 16,-260 302,-260 302,-136 16,-136"/>
</a>
</g>
</g>
<!-- dir_e0a7526ed6c62ee5f62af9e29af05b15 -->
<g id="node1" class="node"><title>dir_e0a7526ed6c62ee5f62af9e29af05b15</title>
<text text-anchor="middle" x="267" y="-231.5" font-family="Helvetica,sans-Serif" font-size="10.00">host</text>
</g>
<!-- dir_a04b0fd6e5f3a0dceff9215efe4f6008 -->
<g id="node2" class="node"><title>dir_a04b0fd6e5f3a0dceff9215efe4f6008</title>
<g id="a_node2"><a xlink:href="dir_a04b0fd6e5f3a0dceff9215efe4f6008.xhtml" target="_top" xlink:title="cdc">
<polygon fill="white" stroke="black" points="78,-252 24,-252 24,-216 78,-216 78,-252"/>
<text text-anchor="middle" x="51" y="-231.5" font-family="Helvetica,sans-Serif" font-size="10.00">cdc</text>
</a>
</g>
</g>
<!-- dir_3eadff0e6699eea8297c2cb79a55960f -->
<g id="node3" class="node"><title>dir_3eadff0e6699eea8297c2cb79a55960f</title>
<g id="a_node3"><a xlink:href="dir_3eadff0e6699eea8297c2cb79a55960f.xhtml" target="_top" xlink:title="core">
<polygon fill="white" stroke="black" points="78,-180 24,-180 24,-144 78,-144 78,-180"/>
<text text-anchor="middle" x="51" y="-159.5" font-family="Helvetica,sans-Serif" font-size="10.00">core</text>
</a>
</g>
</g>
<!-- dir_a04b0fd6e5f3a0dceff9215efe4f6008&#45;&gt;dir_3eadff0e6699eea8297c2cb79a55960f -->
<g id="edge10" class="edge"><title>dir_a04b0fd6e5f3a0dceff9215efe4f6008&#45;&gt;dir_3eadff0e6699eea8297c2cb79a55960f</title>
<path fill="none" stroke="black" d="M51,-215.697C51,-207.983 51,-198.712 51,-190.112"/>
<polygon fill="black" stroke="black" points="54.5001,-190.104 51,-180.104 47.5001,-190.104 54.5001,-190.104"/>
<g id="a_edge10&#45;headlabel"><a xlink:href="dir_000052_000053.xhtml" target="_top" xlink:title="4">
<text text-anchor="middle" x="57.3393" y="-191.199" font-family="Helvetica,sans-Serif" font-size="10.00">4</text>
</a>
</g>
</g>
<!-- dir_c46a29a3f6521c422d3477bfa11d561d -->
<g id="node7" class="node"><title>dir_c46a29a3f6521c422d3477bfa11d561d</title>
<g id="a_node7"><a xlink:href="dir_c46a29a3f6521c422d3477bfa11d561d.xhtml" target="_top" xlink:title="include">
<polygon fill="none" stroke="black" points="171,-108 117,-108 117,-72 171,-72 171,-108"/>
<text text-anchor="middle" x="144" y="-87.5" font-family="Helvetica,sans-Serif" font-size="10.00">include</text>
</a>
</g>
</g>
<!-- dir_a04b0fd6e5f3a0dceff9215efe4f6008&#45;&gt;dir_c46a29a3f6521c422d3477bfa11d561d -->
<g id="edge9" class="edge"><title>dir_a04b0fd6e5f3a0dceff9215efe4f6008&#45;&gt;dir_c46a29a3f6521c422d3477bfa11d561d</title>
<path fill="none" stroke="black" d="M62.7914,-215.893C69.8784,-205.549 79.0374,-192.071 87,-180 100.938,-158.871 116.407,-134.669 127.709,-116.842"/>
<polygon fill="black" stroke="black" points="130.819,-118.472 133.209,-108.15 124.904,-114.729 130.819,-118.472"/>
<g id="a_edge9&#45;headlabel"><a xlink:href="dir_000052_000060.xhtml" target="_top" xlink:title="4">
<text text-anchor="middle" x="131.296" y="-120.528" font-family="Helvetica,sans-Serif" font-size="10.00">4</text>
</a>
</g>
</g>
<!-- dir_3eadff0e6699eea8297c2cb79a55960f&#45;&gt;dir_c46a29a3f6521c422d3477bfa11d561d -->
<g id="edge8" class="edge"><title>dir_3eadff0e6699eea8297c2cb79a55960f&#45;&gt;dir_c46a29a3f6521c422d3477bfa11d561d</title>
<path fill="none" stroke="black" d="M71.669,-143.97C78.118,-138.764 85.2981,-133.074 92,-128 98.073,-123.402 104.634,-118.605 110.984,-114.047"/>
<polygon fill="black" stroke="black" points="113.33,-116.674 119.445,-108.023 109.269,-110.972 113.33,-116.674"/>
<g id="a_edge8&#45;headlabel"><a xlink:href="dir_000053_000060.xhtml" target="_top" xlink:title="2">
<text text-anchor="middle" x="112.048" y="-118.572" font-family="Helvetica,sans-Serif" font-size="10.00">2</text>
</a>
</g>
</g>
<!-- dir_fd35eab87366203983cc18ad132d93ad -->
<g id="node4" class="node"><title>dir_fd35eab87366203983cc18ad132d93ad</title>
<g id="a_node4"><a xlink:href="dir_fd35eab87366203983cc18ad132d93ad.xhtml" target="_top" xlink:title="hid">
<polygon fill="white" stroke="red" points="150,-252 96,-252 96,-216 150,-216 150,-252"/>
<text text-anchor="middle" x="123" y="-231.5" font-family="Helvetica,sans-Serif" font-size="10.00">hid</text>
</a>
</g>
</g>
<!-- dir_fd35eab87366203983cc18ad132d93ad&#45;&gt;dir_3eadff0e6699eea8297c2cb79a55960f -->
<g id="edge7" class="edge"><title>dir_fd35eab87366203983cc18ad132d93ad&#45;&gt;dir_3eadff0e6699eea8297c2cb79a55960f</title>
<path fill="none" stroke="black" d="M105.202,-215.697C96.396,-207.135 85.6179,-196.656 75.9989,-187.304"/>
<polygon fill="black" stroke="black" points="78.2028,-184.566 68.593,-180.104 73.3232,-189.585 78.2028,-184.566"/>
<g id="a_edge7&#45;headlabel"><a xlink:href="dir_000054_000053.xhtml" target="_top" xlink:title="3">
<text text-anchor="middle" x="82.7593" y="-182.536" font-family="Helvetica,sans-Serif" font-size="10.00">3</text>
</a>
</g>
</g>
<!-- dir_a75a6fe80fd9120ba7dd67a0b33a7bc9 -->
<g id="node6" class="node"><title>dir_a75a6fe80fd9120ba7dd67a0b33a7bc9</title>
<g id="a_node6"><a xlink:href="dir_a75a6fe80fd9120ba7dd67a0b33a7bc9.xhtml" target="_top" xlink:title="libchip">
<polygon fill="white" stroke="red" points="247,-36 193,-36 193,-0 247,-0 247,-36"/>
<text text-anchor="middle" x="220" y="-15.5" font-family="Helvetica,sans-Serif" font-size="10.00">libchip</text>
</a>
</g>
</g>
<!-- dir_fd35eab87366203983cc18ad132d93ad&#45;&gt;dir_a75a6fe80fd9120ba7dd67a0b33a7bc9 -->
<g id="edge5" class="edge"><title>dir_fd35eab87366203983cc18ad132d93ad&#45;&gt;dir_a75a6fe80fd9120ba7dd67a0b33a7bc9</title>
<path fill="none" stroke="black" d="M131.609,-215.899C136.76,-205.557 143.377,-192.079 149,-180 170.872,-133.019 194.934,-77.6048 208.679,-45.5644"/>
<polygon fill="black" stroke="black" points="212.046,-46.5938 212.763,-36.0233 205.61,-43.839 212.046,-46.5938"/>
<g id="a_edge5&#45;headlabel"><a xlink:href="dir_000054_000013.xhtml" target="_top" xlink:title="2">
<text text-anchor="middle" x="213.241" y="-48.5157" font-family="Helvetica,sans-Serif" font-size="10.00">2</text>
</a>
</g>
</g>
<!-- dir_fd35eab87366203983cc18ad132d93ad&#45;&gt;dir_c46a29a3f6521c422d3477bfa11d561d -->
<g id="edge6" class="edge"><title>dir_fd35eab87366203983cc18ad132d93ad&#45;&gt;dir_c46a29a3f6521c422d3477bfa11d561d</title>
<path fill="none" stroke="black" d="M125.533,-215.871C129.112,-191.67 135.687,-147.211 139.949,-118.393"/>
<polygon fill="black" stroke="black" points="143.457,-118.594 141.458,-108.189 136.533,-117.57 143.457,-118.594"/>
<g id="a_edge6&#45;headlabel"><a xlink:href="dir_000054_000060.xhtml" target="_top" xlink:title="1">
<text text-anchor="middle" x="145.74" y="-120.065" font-family="Helvetica,sans-Serif" font-size="10.00">1</text>
</a>
</g>
</g>
<!-- dir_5e135f374297d55dddc8156fc67d6710 -->
<g id="node5" class="node"><title>dir_5e135f374297d55dddc8156fc67d6710</title>
<g id="a_node5"><a xlink:href="dir_5e135f374297d55dddc8156fc67d6710.xhtml" target="_top" xlink:title="msc">
<polygon fill="white" stroke="red" points="222,-252 168,-252 168,-216 222,-216 222,-252"/>
<text text-anchor="middle" x="195" y="-231.5" font-family="Helvetica,sans-Serif" font-size="10.00">msc</text>
</a>
</g>
</g>
<!-- dir_5e135f374297d55dddc8156fc67d6710&#45;&gt;dir_3eadff0e6699eea8297c2cb79a55960f -->
<g id="edge4" class="edge"><title>dir_5e135f374297d55dddc8156fc67d6710&#45;&gt;dir_3eadff0e6699eea8297c2cb79a55960f</title>
<path fill="none" stroke="black" d="M167.915,-219.834C145.231,-208.807 112.643,-192.966 87.6319,-180.807"/>
<polygon fill="black" stroke="black" points="88.9773,-177.57 78.4534,-176.345 85.9169,-183.865 88.9773,-177.57"/>
<g id="a_edge4&#45;headlabel"><a xlink:href="dir_000056_000053.xhtml" target="_top" xlink:title="4">
<text text-anchor="middle" x="93.4515" y="-174.088" font-family="Helvetica,sans-Serif" font-size="10.00">4</text>
</a>
</g>
</g>
<!-- dir_5e135f374297d55dddc8156fc67d6710&#45;&gt;dir_a75a6fe80fd9120ba7dd67a0b33a7bc9 -->
<g id="edge2" class="edge"><title>dir_5e135f374297d55dddc8156fc67d6710&#45;&gt;dir_a75a6fe80fd9120ba7dd67a0b33a7bc9</title>
<path fill="none" stroke="black" d="M211.89,-215.993C220.293,-206.315 229.582,-193.459 234,-180 248.845,-134.778 237.868,-78.7921 228.773,-46.1652"/>
<polygon fill="black" stroke="black" points="232.093,-45.0478 225.921,-36.4361 225.375,-47.0169 232.093,-45.0478"/>
<g id="a_edge2&#45;headlabel"><a xlink:href="dir_000056_000013.xhtml" target="_top" xlink:title="2">
<text text-anchor="middle" x="235.828" y="-45.1987" font-family="Helvetica,sans-Serif" font-size="10.00">2</text>
</a>
</g>
</g>
<!-- dir_5e135f374297d55dddc8156fc67d6710&#45;&gt;dir_c46a29a3f6521c422d3477bfa11d561d -->
<g id="edge3" class="edge"><title>dir_5e135f374297d55dddc8156fc67d6710&#45;&gt;dir_c46a29a3f6521c422d3477bfa11d561d</title>
<path fill="none" stroke="black" d="M188.848,-215.871C180.08,-191.457 163.906,-146.426 153.566,-117.635"/>
<polygon fill="black" stroke="black" points="156.848,-116.418 150.174,-108.189 150.26,-118.784 156.848,-116.418"/>
<g id="a_edge3&#45;headlabel"><a xlink:href="dir_000056_000060.xhtml" target="_top" xlink:title="3">
<text text-anchor="middle" x="160.735" y="-116.341" font-family="Helvetica,sans-Serif" font-size="10.00">3</text>
</a>
</g>
</g>
<!-- dir_c46a29a3f6521c422d3477bfa11d561d&#45;&gt;dir_a75a6fe80fd9120ba7dd67a0b33a7bc9 -->
<g id="edge1" class="edge"><title>dir_c46a29a3f6521c422d3477bfa11d561d&#45;&gt;dir_a75a6fe80fd9120ba7dd67a0b33a7bc9</title>
<path fill="none" stroke="black" d="M162.787,-71.6966C172.174,-63.0503 183.684,-52.4486 193.913,-43.027"/>
<polygon fill="black" stroke="black" points="196.445,-45.4535 201.43,-36.1043 191.703,-40.3047 196.445,-45.4535"/>
<g id="a_edge1&#45;headlabel"><a xlink:href="dir_000060_000013.xhtml" target="_top" xlink:title="1">
<text text-anchor="middle" x="195.725" y="-47.4772" font-family="Helvetica,sans-Serif" font-size="10.00">1</text>
</a>
</g>
</g>
</g>
</svg>
