<?xml version="1.0" encoding="UTF-8" standalone="no"?>
<!DOCTYPE svg PUBLIC "-//W3C//DTD SVG 1.1//EN"
 "http://www.w3.org/Graphics/SVG/1.1/DTD/svg11.dtd">
<!-- Generated by graphviz version 2.38.0 (20140413.2041)
 -->
<!-- Title: src/HostCom Pages: 1 -->
<svg width="120pt" height="295pt"
 viewBox="0.00 0.00 120.00 295.00" xmlns="http://www.w3.org/2000/svg" xmlns:xlink="http://www.w3.org/1999/xlink">
<g id="graph0" class="graph" transform="scale(1 1) rotate(0) translate(4 291)">
<title>src/HostCom</title>
<polygon fill="white" stroke="none" points="-4,4 -4,-291 116,-291 116,4 -4,4"/>
<g id="clust1" class="cluster"><title>clusterdir_68267d1309a1af8e8297ef4c3efbcdba</title>
<g id="a_clust1"><a xlink:href="dir_68267d1309a1af8e8297ef4c3efbcdba.xhtml" target="_top" xlink:title="src">
<polygon fill="#ddddee" stroke="black" points="26,-208 26,-279 104,-279 104,-208 26,-208"/>
<text text-anchor="middle" x="65" y="-267" font-family="Helvetica,sans-Serif" font-size="10.00">src</text>
</a>
</g>
</g>
<!-- dir_92f2e62c87211f56f43ead1760722699 -->
<g id="node1" class="node"><title>dir_92f2e62c87211f56f43ead1760722699</title>
<g id="a_node1"><a xlink:href="dir_92f2e62c87211f56f43ead1760722699.xhtml" target="_top" xlink:title="HostCom">
<polygon fill="#eeeeff" stroke="black" points="96,-252 34,-252 34,-216 96,-216 96,-252"/>
<text text-anchor="middle" x="65" y="-231.5" font-family="Helvetica,sans-Serif" font-size="10.00">HostCom</text>
</a>
</g>
</g>
<!-- dir_ef68f1e1f5148ff8ef7fb1c955106c3c -->
<g id="node2" class="node"><title>dir_ef68f1e1f5148ff8ef7fb1c955106c3c</title>
<g id="a_node2"><a xlink:href="dir_ef68f1e1f5148ff8ef7fb1c955106c3c.xhtml" target="_top" xlink:title="System">
<polygon fill="white" stroke="red" points="92,-180 38,-180 38,-144 92,-144 92,-180"/>
<text text-anchor="middle" x="65" y="-159.5" font-family="Helvetica,sans-Serif" font-size="10.00">System</text>
</a>
</g>
</g>
<!-- dir_92f2e62c87211f56f43ead1760722699&#45;&gt;dir_ef68f1e1f5148ff8ef7fb1c955106c3c -->
<g id="edge5" class="edge"><title>dir_92f2e62c87211f56f43ead1760722699&#45;&gt;dir_ef68f1e1f5148ff8ef7fb1c955106c3c</title>
<path fill="none" stroke="black" d="M65,-215.697C65,-207.983 65,-198.712 65,-190.112"/>
<polygon fill="black" stroke="black" points="68.5001,-190.104 65,-180.104 61.5001,-190.104 68.5001,-190.104"/>
<g id="a_edge5&#45;headlabel"><a xlink:href="dir_000063_000065.xhtml" target="_top" xlink:title="1">
<text text-anchor="middle" x="71.3393" y="-191.199" font-family="Helvetica,sans-Serif" font-size="10.00">1</text>
</a>
</g>
</g>
<!-- dir_4ce6a7f885e2866a554ba9e7335035f1 -->
<g id="node3" class="node"><title>dir_4ce6a7f885e2866a554ba9e7335035f1</title>
<g id="a_node3"><a xlink:href="dir_4ce6a7f885e2866a554ba9e7335035f1.xhtml" target="_top" xlink:title="hal">
<polygon fill="white" stroke="red" points="54,-108 0,-108 0,-72 54,-72 54,-108"/>
<text text-anchor="middle" x="27" y="-87.5" font-family="Helvetica,sans-Serif" font-size="10.00">hal</text>
</a>
</g>
</g>
<!-- dir_92f2e62c87211f56f43ead1760722699&#45;&gt;dir_4ce6a7f885e2866a554ba9e7335035f1 -->
<g id="edge6" class="edge"><title>dir_92f2e62c87211f56f43ead1760722699&#45;&gt;dir_4ce6a7f885e2866a554ba9e7335035f1</title>
<path fill="none" stroke="black" d="M49.508,-215.737C41.7795,-205.983 33.2019,-193.137 29,-180 22.6145,-160.036 22.4334,-136.246 23.675,-118.287"/>
<polygon fill="black" stroke="black" points="27.1722,-118.471 24.5615,-108.203 20.1991,-117.858 27.1722,-118.471"/>
<g id="a_edge6&#45;headlabel"><a xlink:href="dir_000063_000003.xhtml" target="_top" xlink:title="2">
<text text-anchor="middle" x="29.6858" y="-119.801" font-family="Helvetica,sans-Serif" font-size="10.00">2</text>
</a>
</g>
</g>
<!-- dir_d44c64559bbebec7f509842c48db8b23 -->
<g id="node4" class="node"><title>dir_d44c64559bbebec7f509842c48db8b23</title>
<g id="a_node4"><a xlink:href="dir_d44c64559bbebec7f509842c48db8b23.xhtml" target="_top" xlink:title="include">
<polygon fill="none" stroke="black" points="109,-36 55,-36 55,-0 109,-0 109,-36"/>
<text text-anchor="middle" x="82" y="-15.5" font-family="Helvetica,sans-Serif" font-size="10.00">include</text>
</a>
</g>
</g>
<!-- dir_92f2e62c87211f56f43ead1760722699&#45;&gt;dir_d44c64559bbebec7f509842c48db8b23 -->
<g id="edge7" class="edge"><title>dir_92f2e62c87211f56f43ead1760722699&#45;&gt;dir_d44c64559bbebec7f509842c48db8b23</title>
<path fill="none" stroke="black" d="M80.6099,-215.774C88.3729,-206.03 96.9459,-193.184 101,-180 115.034,-134.363 102.125,-78.5118 91.8188,-46.0233"/>
<polygon fill="black" stroke="black" points="95.0758,-44.7252 88.6015,-36.3386 88.4327,-46.9321 95.0758,-44.7252"/>
<g id="a_edge7&#45;headlabel"><a xlink:href="dir_000063_000000.xhtml" target="_top" xlink:title="7">
<text text-anchor="middle" x="98.9034" y="-44.7415" font-family="Helvetica,sans-Serif" font-size="10.00">7</text>
</a>
</g>
</g>
<!-- dir_ef68f1e1f5148ff8ef7fb1c955106c3c&#45;&gt;dir_4ce6a7f885e2866a554ba9e7335035f1 -->
<g id="edge1" class="edge"><title>dir_ef68f1e1f5148ff8ef7fb1c955106c3c&#45;&gt;dir_4ce6a7f885e2866a554ba9e7335035f1</title>
<path fill="none" stroke="black" d="M49.691,-143.697C44.5435,-135.728 39.1018,-126.1 34.6981,-117.264"/>
<polygon fill="black" stroke="black" points="37.8134,-115.664 30.3902,-108.104 31.4789,-118.643 37.8134,-115.664"/>
<g id="a_edge1&#45;headlabel"><a xlink:href="dir_000065_000003.xhtml" target="_top" xlink:title="2">
<text text-anchor="middle" x="41.9124" y="-115.208" font-family="Helvetica,sans-Serif" font-size="10.00">2</text>
</a>
</g>
</g>
<!-- dir_ef68f1e1f5148ff8ef7fb1c955106c3c&#45;&gt;dir_d44c64559bbebec7f509842c48db8b23 -->
<g id="edge2" class="edge"><title>dir_ef68f1e1f5148ff8ef7fb1c955106c3c&#45;&gt;dir_d44c64559bbebec7f509842c48db8b23</title>
<path fill="none" stroke="black" d="M67.0506,-143.871C69.9479,-119.67 75.2705,-75.2108 78.7205,-46.3932"/>
<polygon fill="black" stroke="black" points="82.2285,-46.5344 79.9421,-36.1893 75.2782,-45.7023 82.2285,-46.5344"/>
<g id="a_edge2&#45;headlabel"><a xlink:href="dir_000065_000000.xhtml" target="_top" xlink:title="16">
<text text-anchor="middle" x="84.6205" y="-47.941" font-family="Helvetica,sans-Serif" font-size="10.00">16</text>
</a>
</g>
</g>
<!-- dir_4ce6a7f885e2866a554ba9e7335035f1&#45;&gt;dir_ef68f1e1f5148ff8ef7fb1c955106c3c -->
<g id="edge3" class="edge"><title>dir_4ce6a7f885e2866a554ba9e7335035f1&#45;&gt;dir_ef68f1e1f5148ff8ef7fb1c955106c3c</title>
<path fill="none" stroke="black" d="M42.1802,-108.104C47.3228,-116.045 52.7706,-125.666 57.1915,-134.515"/>
<polygon fill="black" stroke="black" points="54.0908,-136.145 61.5225,-143.697 60.4219,-133.159 54.0908,-136.145"/>
<g id="a_edge3&#45;headlabel"><a xlink:href="dir_000003_000065.xhtml" target="_top" xlink:title="1">
<text text-anchor="middle" x="49.9894" y="-131.606" font-family="Helvetica,sans-Serif" font-size="10.00">1</text>
</a>
</g>
</g>
<!-- dir_4ce6a7f885e2866a554ba9e7335035f1&#45;&gt;dir_d44c64559bbebec7f509842c48db8b23 -->
<g id="edge4" class="edge"><title>dir_4ce6a7f885e2866a554ba9e7335035f1&#45;&gt;dir_d44c64559bbebec7f509842c48db8b23</title>
<path fill="none" stroke="black" d="M40.5955,-71.6966C47.1227,-63.3893 55.068,-53.2771 62.2466,-44.1407"/>
<polygon fill="black" stroke="black" points="65.1347,-46.1299 68.5609,-36.1043 59.6305,-41.8051 65.1347,-46.1299"/>
<g id="a_edge4&#45;headlabel"><a xlink:href="dir_000003_000000.xhtml" target="_top" xlink:title="27">
<text text-anchor="middle" x="65.1465" y="-48.2106" font-family="Helvetica,sans-Serif" font-size="10.00">27</text>
</a>
</g>
</g>
</g>
</svg>
