<?xml version="1.0" encoding="UTF-8" standalone="no"?>
<!DOCTYPE svg PUBLIC "-//W3C//DTD SVG 1.1//EN"
 "http://www.w3.org/Graphics/SVG/1.1/DTD/svg11.dtd">
<!-- Generated by graphviz version 2.38.0 (20140413.2041)
 -->
<!-- Title: src/hal/x4m0x_s70/libraries/libusb/host/msc/storage Pages: 1 -->
<svg width="198pt" height="159pt"
 viewBox="0.00 0.00 198.00 159.00" xmlns="http://www.w3.org/2000/svg" xmlns:xlink="http://www.w3.org/1999/xlink">
<g id="graph0" class="graph" transform="scale(1 1) rotate(0) translate(4 155)">
<title>src/hal/x4m0x_s70/libraries/libusb/host/msc/storage</title>
<polygon fill="white" stroke="none" points="-4,4 -4,-155 194,-155 194,4 -4,4"/>
<g id="clust1" class="cluster"><title>clusterdir_5e135f374297d55dddc8156fc67d6710</title>
<g id="a_clust1"><a xlink:href="dir_5e135f374297d55dddc8156fc67d6710.xhtml" target="_top" xlink:title="msc">
<polygon fill="#ddddee" stroke="black" points="8,-56 8,-143 182,-143 182,-56 8,-56"/>
<text text-anchor="middle" x="95" y="-131" font-family="Helvetica,sans-Serif" font-size="10.00">msc</text>
</a>
</g>
</g>
<g id="clust2" class="cluster"><title>clusterdir_da18654452346ee20ebc95d477a79afe</title>
<g id="a_clust2"><a xlink:href="dir_da18654452346ee20ebc95d477a79afe.xhtml" target="_top">
<polygon fill="#eeeeff" stroke="black" points="16,-64 16,-116 174,-116 174,-64 16,-64"/>
</a>
</g>
</g>
<!-- dir_da18654452346ee20ebc95d477a79afe -->
<g id="node1" class="node"><title>dir_da18654452346ee20ebc95d477a79afe</title>
<text text-anchor="middle" x="139" y="-87.5" font-family="Helvetica,sans-Serif" font-size="10.00">storage</text>
</g>
<!-- dir_b777e909c2b477feddfdbb1ac6bd9406 -->
<g id="node2" class="node"><title>dir_b777e909c2b477feddfdbb1ac6bd9406</title>
<g id="a_node2"><a xlink:href="dir_b777e909c2b477feddfdbb1ac6bd9406.xhtml" target="_top" xlink:title="ctrl_access">
<polygon fill="white" stroke="red" points="94,-108 24,-108 24,-72 94,-72 94,-108"/>
<text text-anchor="middle" x="59" y="-87.5" font-family="Helvetica,sans-Serif" font-size="10.00">ctrl_access</text>
</a>
</g>
</g>
<!-- dir_a75a6fe80fd9120ba7dd67a0b33a7bc9 -->
<g id="node3" class="node"><title>dir_a75a6fe80fd9120ba7dd67a0b33a7bc9</title>
<g id="a_node3"><a xlink:href="dir_a75a6fe80fd9120ba7dd67a0b33a7bc9.xhtml" target="_top" xlink:title="libchip">
<polygon fill="white" stroke="red" points="86,-36 32,-36 32,-0 86,-0 86,-36"/>
<text text-anchor="middle" x="59" y="-15.5" font-family="Helvetica,sans-Serif" font-size="10.00">libchip</text>
</a>
</g>
</g>
<!-- dir_b777e909c2b477feddfdbb1ac6bd9406&#45;&gt;dir_a75a6fe80fd9120ba7dd67a0b33a7bc9 -->
<g id="edge1" class="edge"><title>dir_b777e909c2b477feddfdbb1ac6bd9406&#45;&gt;dir_a75a6fe80fd9120ba7dd67a0b33a7bc9</title>
<path fill="none" stroke="black" d="M59,-71.6966C59,-63.9827 59,-54.7125 59,-46.1124"/>
<polygon fill="black" stroke="black" points="62.5001,-46.1043 59,-36.1043 55.5001,-46.1044 62.5001,-46.1043"/>
<g id="a_edge1&#45;headlabel"><a xlink:href="dir_000058_000013.xhtml" target="_top" xlink:title="2">
<text text-anchor="middle" x="65.3393" y="-47.199" font-family="Helvetica,sans-Serif" font-size="10.00">2</text>
</a>
</g>
</g>
</g>
</svg>
