<?xml version="1.0" encoding="UTF-8" standalone="no"?>
<!DOCTYPE svg PUBLIC "-//W3C//DTD SVG 1.1//EN"
 "http://www.w3.org/Graphics/SVG/1.1/DTD/svg11.dtd">
<!-- Generated by graphviz version 2.38.0 (20140413.2041)
 -->
<!-- Title: src/hal/x4m0x_s70/libraries/libchip/include/efc.h Pages: 1 -->
<svg width="304pt" height="106pt"
 viewBox="0.00 0.00 303.50 106.00" xmlns="http://www.w3.org/2000/svg" xmlns:xlink="http://www.w3.org/1999/xlink">
<g id="graph0" class="graph" transform="scale(1 1) rotate(0) translate(4 102)">
<title>src/hal/x4m0x_s70/libraries/libchip/include/efc.h</title>
<polygon fill="white" stroke="none" points="-4,4 -4,-102 299.5,-102 299.5,4 -4,4"/>
<!-- Node38 -->
<g id="node1" class="node"><title>Node38</title>
<polygon fill="#bfbfbf" stroke="black" points="149.5,-67.5 149.5,-97.5 295.5,-97.5 295.5,-67.5 149.5,-67.5"/>
<text text-anchor="start" x="157.5" y="-85.5" font-family="Helvetica,sans-Serif" font-size="10.00">src/hal/x4m0x_s70/libraries</text>
<text text-anchor="middle" x="222.5" y="-74.5" font-family="Helvetica,sans-Serif" font-size="10.00">/libchip/include/efc.h</text>
</g>
<!-- Node39 -->
<g id="node2" class="node"><title>Node39</title>
<g id="a_node2"><a xlink:href="asf_8h.xhtml" target="_top" xlink:title="Autogenerated API include file for the Atmel Software Framework (ASF) ">
<polygon fill="white" stroke="black" points="0,-6 0,-25 131,-25 131,-6 0,-6"/>
<text text-anchor="middle" x="65.5" y="-13" font-family="Helvetica,sans-Serif" font-size="10.00">src/hal/x4m0x_s70/asf.h</text>
</a>
</g>
</g>
<!-- Node38&#45;&gt;Node39 -->
<g id="edge1" class="edge"><title>Node38&#45;&gt;Node39</title>
<path fill="none" stroke="midnightblue" d="M178.923,-63.4585C148.589,-50.9001 109.518,-34.724 86.0477,-25.007"/>
<polygon fill="midnightblue" stroke="midnightblue" points="177.855,-66.8045 188.433,-67.396 180.533,-60.3368 177.855,-66.8045"/>
</g>
<!-- Node40 -->
<g id="node3" class="node"><title>Node40</title>
<g id="a_node3"><a xlink:href="chip_8h.xhtml" target="_top" xlink:title="src/hal/x4m0x_s70/libraries\l/libchip/chip.h">
<polygon fill="white" stroke="red" points="149.5,-0.5 149.5,-30.5 295.5,-30.5 295.5,-0.5 149.5,-0.5"/>
<text text-anchor="start" x="157.5" y="-18.5" font-family="Helvetica,sans-Serif" font-size="10.00">src/hal/x4m0x_s70/libraries</text>
<text text-anchor="middle" x="222.5" y="-7.5" font-family="Helvetica,sans-Serif" font-size="10.00">/libchip/chip.h</text>
</a>
</g>
</g>
<!-- Node38&#45;&gt;Node40 -->
<g id="edge2" class="edge"><title>Node38&#45;&gt;Node40</title>
<path fill="none" stroke="midnightblue" d="M215.955,-57.4029C215.505,-48.3703 215.796,-38.4078 216.825,-30.5765"/>
<polygon fill="midnightblue" stroke="midnightblue" points="212.47,-57.7359 216.822,-67.396 219.444,-57.1309 212.47,-57.7359"/>
</g>
<!-- Node40&#45;&gt;Node38 -->
<g id="edge3" class="edge"><title>Node40&#45;&gt;Node38</title>
<path fill="none" stroke="midnightblue" d="M229.044,-40.5653C229.495,-49.5958 229.206,-59.5597 228.178,-67.396"/>
<polygon fill="midnightblue" stroke="midnightblue" points="232.528,-40.2355 228.175,-30.5765 225.555,-40.8422 232.528,-40.2355"/>
</g>
</g>
</svg>
