<?xml version="1.0" encoding="UTF-8" standalone="no"?>
<!DOCTYPE svg PUBLIC "-//W3C//DTD SVG 1.1//EN"
 "http://www.w3.org/Graphics/SVG/1.1/DTD/svg11.dtd">
<!-- Generated by graphviz version 2.38.0 (20140413.2041)
 -->
<!-- Title: FLASHD_ErasePages Pages: 1 -->
<svg width="288pt" height="66pt"
 viewBox="0.00 0.00 288.00 66.00" xmlns="http://www.w3.org/2000/svg" xmlns:xlink="http://www.w3.org/1999/xlink">
<g id="graph0" class="graph" transform="scale(1 1) rotate(0) translate(4 62)">
<title>FLASHD_ErasePages</title>
<polygon fill="white" stroke="none" points="-4,4 -4,-62 284,-62 284,4 -4,4"/>
<!-- Node10 -->
<g id="node1" class="node"><title>Node10</title>
<polygon fill="#bfbfbf" stroke="black" points="0,-19.5 0,-38.5 116,-38.5 116,-19.5 0,-19.5"/>
<text text-anchor="middle" x="58" y="-26.5" font-family="Helvetica,sans-Serif" font-size="10.00">FLASHD_ErasePages</text>
</g>
<!-- Node11 -->
<g id="node2" class="node"><title>Node11</title>
<g id="a_node2"><a xlink:href="efc_8h.xhtml#a170fa534d132c75b2851f0a42f7b71b0" target="_top" xlink:title="Translates the given address page and offset values. ">
<polygon fill="white" stroke="black" points="155,-38.5 155,-57.5 277,-57.5 277,-38.5 155,-38.5"/>
<text text-anchor="middle" x="216" y="-45.5" font-family="Helvetica,sans-Serif" font-size="10.00">EFC_TranslateAddress</text>
</a>
</g>
</g>
<!-- Node10&#45;&gt;Node11 -->
<g id="edge1" class="edge"><title>Node10&#45;&gt;Node11</title>
<path fill="none" stroke="midnightblue" d="M116.203,-35.967C125.561,-37.1068 135.35,-38.299 144.975,-39.4713"/>
<polygon fill="midnightblue" stroke="midnightblue" points="144.572,-42.948 154.922,-40.6828 145.418,-35.9993 144.572,-42.948"/>
</g>
<!-- Node12 -->
<g id="node3" class="node"><title>Node12</title>
<g id="a_node3"><a xlink:href="efc_8h.xhtml#a89ced3586649e7455882295657f7c11a" target="_top" xlink:title="Performs the given command and wait until its completion (or an error). ">
<polygon fill="white" stroke="black" points="152,-0.5 152,-19.5 280,-19.5 280,-0.5 152,-0.5"/>
<text text-anchor="middle" x="216" y="-7.5" font-family="Helvetica,sans-Serif" font-size="10.00">EFC_PerformCommand</text>
</a>
</g>
</g>
<!-- Node10&#45;&gt;Node12 -->
<g id="edge2" class="edge"><title>Node10&#45;&gt;Node12</title>
<path fill="none" stroke="midnightblue" d="M116.203,-22.033C124.515,-21.0206 133.168,-19.9667 141.744,-18.9222"/>
<polygon fill="midnightblue" stroke="midnightblue" points="142.247,-22.3868 151.751,-17.7034 141.401,-15.4382 142.247,-22.3868"/>
</g>
</g>
</svg>
