<?xml version="1.0" encoding="UTF-8" standalone="no"?>
<!DOCTYPE svg PUBLIC "-//W3C//DTD SVG 1.1//EN"
 "http://www.w3.org/Graphics/SVG/1.1/DTD/svg11.dtd">
<!-- Generated by graphviz version 2.38.0 (20140413.2041)
 -->
<!-- Title: FLASHD_IsGPNVMSet Pages: 1 -->
<svg width="287pt" height="66pt"
 viewBox="0.00 0.00 287.00 66.00" xmlns="http://www.w3.org/2000/svg" xmlns:xlink="http://www.w3.org/1999/xlink">
<g id="graph0" class="graph" transform="scale(1 1) rotate(0) translate(4 62)">
<title>FLASHD_IsGPNVMSet</title>
<polygon fill="white" stroke="none" points="-4,4 -4,-62 283,-62 283,4 -4,4"/>
<!-- Node53 -->
<g id="node1" class="node"><title>Node53</title>
<polygon fill="#bfbfbf" stroke="black" points="0,-19.5 0,-38.5 121,-38.5 121,-19.5 0,-19.5"/>
<text text-anchor="middle" x="60.5" y="-26.5" font-family="Helvetica,sans-Serif" font-size="10.00">FLASHD_IsGPNVMSet</text>
</g>
<!-- Node54 -->
<g id="node2" class="node"><title>Node54</title>
<g id="a_node2"><a xlink:href="flashd_8c.xhtml#aeec5f51a495cb3a4b2199e1fae1dadd0" target="_top" xlink:title="Sets the selected GPNVM bit. ">
<polygon fill="white" stroke="black" points="161.5,-38.5 161.5,-57.5 274.5,-57.5 274.5,-38.5 161.5,-38.5"/>
<text text-anchor="middle" x="218" y="-45.5" font-family="Helvetica,sans-Serif" font-size="10.00">FLASHD_SetGPNVM</text>
</a>
</g>
</g>
<!-- Node53&#45;&gt;Node54 -->
<g id="edge1" class="edge"><title>Node53&#45;&gt;Node54</title>
<path fill="none" stroke="midnightblue" d="M131.18,-37.514C141.271,-38.747 151.546,-40.0024 161.314,-41.1959"/>
<polygon fill="midnightblue" stroke="midnightblue" points="131.526,-34.0303 121.176,-36.2916 130.677,-40.9787 131.526,-34.0303"/>
</g>
<!-- Node55 -->
<g id="node3" class="node"><title>Node55</title>
<g id="a_node3"><a xlink:href="flashd_8c.xhtml#ae7a300e050a12cb95924da15da085fdf" target="_top" xlink:title="Clears the selected GPNVM bit. ">
<polygon fill="white" stroke="black" points="157,-0.5 157,-19.5 279,-19.5 279,-0.5 157,-0.5"/>
<text text-anchor="middle" x="218" y="-7.5" font-family="Helvetica,sans-Serif" font-size="10.00">FLASHD_ClearGPNVM</text>
</a>
</g>
</g>
<!-- Node53&#45;&gt;Node55 -->
<g id="edge2" class="edge"><title>Node53&#45;&gt;Node55</title>
<path fill="none" stroke="midnightblue" d="M131.188,-20.485C139.792,-19.4338 148.528,-18.3663 156.97,-17.3349"/>
<polygon fill="midnightblue" stroke="midnightblue" points="130.677,-17.0213 121.176,-21.7084 131.526,-23.9697 130.677,-17.0213"/>
</g>
</g>
</svg>
