<?xml version="1.0" encoding="UTF-8" standalone="no"?>
<!DOCTYPE svg PUBLIC "-//W3C//DTD SVG 1.1//EN"
 "http://www.w3.org/Graphics/SVG/1.1/DTD/svg11.dtd">
<!-- Generated by graphviz version 2.38.0 (20140413.2041)
 -->
<!-- Title: USBGenericDescriptor_GetLength Pages: 1 -->
<svg width="479pt" height="150pt"
 viewBox="0.00 0.00 479.00 149.50" xmlns="http://www.w3.org/2000/svg" xmlns:xlink="http://www.w3.org/1999/xlink">
<g id="graph0" class="graph" transform="scale(1 1) rotate(0) translate(4 145.5)">
<title>USBGenericDescriptor_GetLength</title>
<polygon fill="white" stroke="none" points="-4,4 -4,-145.5 475,-145.5 475,4 -4,4"/>
<!-- Node253 -->
<g id="node1" class="node"><title>Node253</title>
<polygon fill="#bfbfbf" stroke="black" points="0,-55 0,-85 124,-85 124,-55 0,-55"/>
<text text-anchor="start" x="8" y="-73" font-family="Helvetica,sans-Serif" font-size="10.00">USBGenericDescriptor</text>
<text text-anchor="middle" x="62" y="-62" font-family="Helvetica,sans-Serif" font-size="10.00">_GetLength</text>
</g>
<!-- Node254 -->
<g id="node2" class="node"><title>Node254</title>
<g id="a_node2"><a xlink:href="group__usb__descriptor.xhtml#ga0679b0b034bd64c70d048279c6058a48" target="_top" xlink:title="Returns a pointer to the descriptor right after the given one, when parsing a Configuration descripto...">
<polygon fill="white" stroke="black" points="160,-77 160,-107 284,-107 284,-77 160,-77"/>
<text text-anchor="start" x="168" y="-95" font-family="Helvetica,sans-Serif" font-size="10.00">USBGenericDescriptor</text>
<text text-anchor="middle" x="222" y="-84" font-family="Helvetica,sans-Serif" font-size="10.00">_GetNextDescriptor</text>
</a>
</g>
</g>
<!-- Node253&#45;&gt;Node254 -->
<g id="edge1" class="edge"><title>Node253&#45;&gt;Node254</title>
<path fill="none" stroke="midnightblue" d="M134.086,-79.898C142.673,-81.0937 151.387,-82.307 159.815,-83.4806"/>
<polygon fill="midnightblue" stroke="midnightblue" points="134.474,-76.4184 124.087,-78.5058 133.509,-83.3515 134.474,-76.4184"/>
</g>
<!-- Node255 -->
<g id="node3" class="node"><title>Node255</title>
<g id="a_node3"><a xlink:href="group__usb__descriptor.xhtml#gac720e8b7e3cec002c16397a66f5e03b1" target="_top" xlink:title="Parses the given descriptor list via customized function. ">
<polygon fill="white" stroke="red" points="333.5,-111 333.5,-141 457.5,-141 457.5,-111 333.5,-111"/>
<text text-anchor="start" x="341.5" y="-129" font-family="Helvetica,sans-Serif" font-size="10.00">USBGenericDescriptor</text>
<text text-anchor="middle" x="395.5" y="-118" font-family="Helvetica,sans-Serif" font-size="10.00">_Parse</text>
</a>
</g>
</g>
<!-- Node253&#45;&gt;Node255 -->
<g id="edge4" class="edge"><title>Node253&#45;&gt;Node255</title>
<path fill="none" stroke="midnightblue" d="M96.0475,-90.2434C114.224,-100.268 137.583,-111.4 160,-117 217.512,-131.366 285.4,-132.309 333.292,-130.447"/>
<polygon fill="midnightblue" stroke="midnightblue" points="97.472,-87.0275 87.0471,-85.1371 94.0177,-93.1159 97.472,-87.0275"/>
</g>
<!-- Node280 -->
<g id="node4" class="node"><title>Node280</title>
<g id="a_node4"><a xlink:href="group__usb__descriptor.xhtml#gab2cf48af0ca19522832310e3eed00490" target="_top" xlink:title="Parses the given Configuration descriptor (followed by relevant interface, endpoint and class&#45;specifi...">
<polygon fill="white" stroke="red" points="320,-52 320,-82 471,-82 471,-52 320,-52"/>
<text text-anchor="start" x="328" y="-70" font-family="Helvetica,sans-Serif" font-size="10.00">USBConfigurationDescriptor</text>
<text text-anchor="middle" x="395.5" y="-59" font-family="Helvetica,sans-Serif" font-size="10.00">_Parse</text>
</a>
</g>
</g>
<!-- Node253&#45;&gt;Node280 -->
<g id="edge5" class="edge"><title>Node253&#45;&gt;Node280</title>
<path fill="none" stroke="midnightblue" d="M134.196,-67.546C142.887,-67.3209 151.645,-67.1292 160,-67 213.428,-66.174 273.711,-66.195 319.776,-66.4116"/>
<polygon fill="midnightblue" stroke="midnightblue" points="133.952,-64.0513 124.051,-67.824 134.143,-71.0487 133.952,-64.0513"/>
</g>
<!-- Node308 -->
<g id="node5" class="node"><title>Node308</title>
<g id="a_node5"><a xlink:href="group__usbd__interface.xhtml#gadbb4c8a840d3ff539be6fa5fa9f4a4e0" target="_top" xlink:title="Sends the requested USB descriptor to the host if available, or STALLs the request. ">
<polygon fill="white" stroke="red" points="180.5,-0.5 180.5,-19.5 263.5,-19.5 263.5,-0.5 180.5,-0.5"/>
<text text-anchor="middle" x="222" y="-7.5" font-family="Helvetica,sans-Serif" font-size="10.00">GetDescriptor</text>
</a>
</g>
</g>
<!-- Node253&#45;&gt;Node308 -->
<g id="edge6" class="edge"><title>Node253&#45;&gt;Node308</title>
<path fill="none" stroke="midnightblue" d="M112.418,-51.2335C140.161,-40.6983 173.593,-28.0028 195.964,-19.5072"/>
<polygon fill="midnightblue" stroke="midnightblue" points="110.976,-48.0373 102.87,-54.8595 113.461,-54.5813 110.976,-48.0373"/>
</g>
<!-- Node254&#45;&gt;Node255 -->
<g id="edge2" class="edge"><title>Node254&#45;&gt;Node255</title>
<path fill="none" stroke="midnightblue" d="M294.284,-106.132C307.314,-108.715 320.802,-111.389 333.498,-113.906"/>
<polygon fill="midnightblue" stroke="midnightblue" points="294.921,-102.69 284.431,-104.179 293.559,-109.557 294.921,-102.69"/>
</g>
<!-- Node254&#45;&gt;Node280 -->
<g id="edge3" class="edge"><title>Node254&#45;&gt;Node280</title>
<path fill="none" stroke="midnightblue" d="M294.485,-81.5794C302.821,-80.3643 311.342,-79.1221 319.721,-77.9007"/>
<polygon fill="midnightblue" stroke="midnightblue" points="293.822,-78.1391 284.431,-83.045 294.831,-85.0659 293.822,-78.1391"/>
</g>
</g>
</svg>
