<?xml version="1.0" encoding="UTF-8" standalone="no"?>
<!DOCTYPE svg PUBLIC "-//W3C//DTD SVG 1.1//EN"
 "http://www.w3.org/Graphics/SVG/1.1/DTD/svg11.dtd">
<!-- Generated by graphviz version 2.38.0 (20140413.2041)
 -->
<!-- Title: uhi_msc_mem_read_sector_size Pages: 1 -->
<svg width="342pt" height="104pt"
 viewBox="0.00 0.00 342.00 104.00" xmlns="http://www.w3.org/2000/svg" xmlns:xlink="http://www.w3.org/1999/xlink">
<g id="graph0" class="graph" transform="scale(1 1) rotate(0) translate(4 100)">
<title>uhi_msc_mem_read_sector_size</title>
<polygon fill="white" stroke="none" points="-4,4 -4,-100 338,-100 338,4 -4,4"/>
<!-- Node51 -->
<g id="node1" class="node"><title>Node51</title>
<polygon fill="#bfbfbf" stroke="black" points="0,-38.5 0,-57.5 173,-57.5 173,-38.5 0,-38.5"/>
<text text-anchor="middle" x="86.5" y="-45.5" font-family="Helvetica,sans-Serif" font-size="10.00">uhi_msc_mem_read_sector_size</text>
</g>
<!-- Node52 -->
<g id="node2" class="node"><title>Node52</title>
<g id="a_node2"><a xlink:href="group__uhi__msc__group.xhtml#ga2e7cf8daaa331de6b805e644955f0045" target="_top" xlink:title="Tests if the interface UHI Mass Storage is available The UHI Mass Storage can be busy during the enum...">
<polygon fill="white" stroke="black" points="213.5,-76.5 213.5,-95.5 329.5,-95.5 329.5,-76.5 213.5,-76.5"/>
<text text-anchor="middle" x="271.5" y="-83.5" font-family="Helvetica,sans-Serif" font-size="10.00">uhi_msc_is_available</text>
</a>
</g>
</g>
<!-- Node51&#45;&gt;Node52 -->
<g id="edge1" class="edge"><title>Node51&#45;&gt;Node52</title>
<path fill="none" stroke="midnightblue" d="M133.679,-57.589C158.263,-62.6939 188.686,-69.0113 214.597,-74.3918"/>
<polygon fill="midnightblue" stroke="midnightblue" points="214.151,-77.8736 224.653,-76.4799 215.574,-71.0198 214.151,-77.8736"/>
</g>
<!-- Node53 -->
<g id="node3" class="node"><title>Node53</title>
<g id="a_node3"><a xlink:href="group__uhi__msc__group.xhtml#gae6006f5e44ec6833a9da65d1ede96bfc" target="_top" xlink:title="Gives information about a LUN. ">
<polygon fill="white" stroke="black" points="209,-38.5 209,-57.5 334,-57.5 334,-38.5 209,-38.5"/>
<text text-anchor="middle" x="271.5" y="-45.5" font-family="Helvetica,sans-Serif" font-size="10.00">uhi_msc_get_lun_desc</text>
</a>
</g>
</g>
<!-- Node51&#45;&gt;Node53 -->
<g id="edge2" class="edge"><title>Node51&#45;&gt;Node53</title>
<path fill="none" stroke="midnightblue" d="M173.106,-48C181.704,-48 190.371,-48 198.802,-48"/>
<polygon fill="midnightblue" stroke="midnightblue" points="198.949,-51.5001 208.949,-48 198.949,-44.5001 198.949,-51.5001"/>
</g>
<!-- Node54 -->
<g id="node4" class="node"><title>Node54</title>
<g id="a_node4"><a xlink:href="group__udd__udphs__group.xhtml#gae90f972fe3687ee01b803027939cdb47" target="_top" xlink:title="if">
<polygon fill="white" stroke="black" points="257,-0.5 257,-19.5 286,-19.5 286,-0.5 257,-0.5"/>
<text text-anchor="middle" x="271.5" y="-7.5" font-family="Helvetica,sans-Serif" font-size="10.00">if</text>
</a>
</g>
</g>
<!-- Node51&#45;&gt;Node54 -->
<g id="edge3" class="edge"><title>Node51&#45;&gt;Node54</title>
<path fill="none" stroke="midnightblue" d="M133.679,-38.411C169.732,-30.9245 218.344,-20.8301 246.866,-14.9076"/>
<polygon fill="midnightblue" stroke="midnightblue" points="247.666,-18.3163 256.745,-12.8562 246.242,-11.4625 247.666,-18.3163"/>
</g>
</g>
</svg>
