<?xml version="1.0" encoding="UTF-8" standalone="no"?>
<!DOCTYPE svg PUBLIC "-//W3C//DTD SVG 1.1//EN"
 "http://www.w3.org/Graphics/SVG/1.1/DTD/svg11.dtd">
<!-- Generated by graphviz version 2.38.0 (20140413.2041)
 -->
<!-- Title: AUDDSpeakerPhone_ParseInterfaces Pages: 1 -->
<svg width="385pt" height="78pt"
 viewBox="0.00 0.00 385.00 77.50" xmlns="http://www.w3.org/2000/svg" xmlns:xlink="http://www.w3.org/1999/xlink">
<g id="graph0" class="graph" transform="scale(1 1) rotate(0) translate(4 73.5)">
<title>AUDDSpeakerPhone_ParseInterfaces</title>
<polygon fill="white" stroke="none" points="-4,4 -4,-73.5 381,-73.5 381,4 -4,4"/>
<!-- Node251 -->
<g id="node1" class="node"><title>Node251</title>
<polygon fill="#bfbfbf" stroke="black" points="0,-22.5 0,-41.5 194,-41.5 194,-22.5 0,-22.5"/>
<text text-anchor="middle" x="97" y="-29.5" font-family="Helvetica,sans-Serif" font-size="10.00">AUDDSpeakerPhone_ParseInterfaces</text>
</g>
<!-- Node252 -->
<g id="node2" class="node"><title>Node252</title>
<g id="a_node2"><a xlink:href="group__usb__descriptor.xhtml#gac720e8b7e3cec002c16397a66f5e03b1" target="_top" xlink:title="Parses the given descriptor list via customized function. ">
<polygon fill="white" stroke="red" points="241.5,-39 241.5,-69 365.5,-69 365.5,-39 241.5,-39"/>
<text text-anchor="start" x="249.5" y="-57" font-family="Helvetica,sans-Serif" font-size="10.00">USBGenericDescriptor</text>
<text text-anchor="middle" x="303.5" y="-46" font-family="Helvetica,sans-Serif" font-size="10.00">_Parse</text>
</a>
</g>
</g>
<!-- Node251&#45;&gt;Node252 -->
<g id="edge1" class="edge"><title>Node251&#45;&gt;Node252</title>
<path fill="none" stroke="midnightblue" d="M186.507,-41.5216C201.361,-43.1195 216.609,-44.7598 230.966,-46.3044"/>
<polygon fill="midnightblue" stroke="midnightblue" points="230.927,-49.8203 241.244,-47.4101 231.676,-42.8605 230.927,-49.8203"/>
</g>
<!-- Node255 -->
<g id="node3" class="node"><title>Node255</title>
<g id="a_node3"><a xlink:href="group__usbd__audio__speakerphone.xhtml#gaff17569bda914957f7457d60e06fb3f9" target="_top" xlink:title="Parse descriptors: Interface, ISO IN/OUT, Feature Unit IDs. ">
<polygon fill="white" stroke="black" points="230,-0.5 230,-19.5 377,-19.5 377,-0.5 230,-0.5"/>
<text text-anchor="middle" x="303.5" y="-7.5" font-family="Helvetica,sans-Serif" font-size="10.00">AUDDSpeakerPhone_Parse</text>
</a>
</g>
</g>
<!-- Node251&#45;&gt;Node255 -->
<g id="edge2" class="edge"><title>Node251&#45;&gt;Node255</title>
<path fill="none" stroke="midnightblue" d="M186.507,-22.4784C197.582,-21.287 208.876,-20.0721 219.856,-18.8908"/>
<polygon fill="midnightblue" stroke="midnightblue" points="220.268,-22.3667 229.836,-17.8171 219.519,-15.4069 220.268,-22.3667"/>
</g>
</g>
</svg>
