<?xml version="1.0" encoding="UTF-8" standalone="no"?>
<!DOCTYPE svg PUBLIC "-//W3C//DTD SVG 1.1//EN"
 "http://www.w3.org/Graphics/SVG/1.1/DTD/svg11.dtd">
<!-- Generated by graphviz version 2.38.0 (20140413.2041)
 -->
<!-- Title: UDP_EndpointHandler Pages: 1 -->
<svg width="344pt" height="332pt"
 viewBox="0.00 0.00 344.00 332.00" xmlns="http://www.w3.org/2000/svg" xmlns:xlink="http://www.w3.org/1999/xlink">
<g id="graph0" class="graph" transform="scale(1 1) rotate(0) translate(4 328)">
<title>UDP_EndpointHandler</title>
<polygon fill="white" stroke="none" points="-4,4 -4,-328 340,-328 340,4 -4,4"/>
<!-- Node46 -->
<g id="node1" class="node"><title>Node46</title>
<polygon fill="#bfbfbf" stroke="black" points="0,-152.5 0,-171.5 122,-171.5 122,-152.5 0,-152.5"/>
<text text-anchor="middle" x="61" y="-159.5" font-family="Helvetica,sans-Serif" font-size="10.00">UDP_EndpointHandler</text>
</g>
<!-- Node47 -->
<g id="node2" class="node"><title>Node47</title>
<g id="a_node2"><a xlink:href="group__usbd__hal.xhtml#ga5d8e51486d26751c22c5e4e23f67e8cd" target="_top" xlink:title="Handles a completed transfer on the given endpoint, invoking the configured callback if any...">
<polygon fill="white" stroke="black" points="192.5,-304.5 192.5,-323.5 301.5,-323.5 301.5,-304.5 192.5,-304.5"/>
<text text-anchor="middle" x="247" y="-311.5" font-family="Helvetica,sans-Serif" font-size="10.00">UDP_EndOfTransfer</text>
</a>
</g>
</g>
<!-- Node46&#45;&gt;Node47 -->
<g id="edge1" class="edge"><title>Node46&#45;&gt;Node47</title>
<path fill="none" stroke="midnightblue" d="M65.9371,-171.565C76.6592,-196.339 108.903,-262.895 158,-295 165.413,-299.848 173.857,-303.48 182.512,-306.198"/>
<polygon fill="midnightblue" stroke="midnightblue" points="181.759,-309.621 192.329,-308.894 183.613,-302.871 181.759,-309.621"/>
</g>
<!-- Node48 -->
<g id="node3" class="node"><title>Node48</title>
<g id="a_node3"><a xlink:href="group__usbd__hal.xhtml#ga57e97248d68838ee318ebeb26a85edaa" target="_top" xlink:title="Transfers a data payload from the current tranfer buffer to the endpoint FIFO. ">
<polygon fill="white" stroke="red" points="198,-266.5 198,-285.5 296,-285.5 296,-266.5 198,-266.5"/>
<text text-anchor="middle" x="247" y="-273.5" font-family="Helvetica,sans-Serif" font-size="10.00">UDP_MblWriteFifo</text>
</a>
</g>
</g>
<!-- Node46&#45;&gt;Node48 -->
<g id="edge2" class="edge"><title>Node46&#45;&gt;Node48</title>
<path fill="none" stroke="midnightblue" d="M68.6889,-171.602C82.7841,-191.053 117.589,-235.112 158,-257 167.165,-261.964 177.527,-265.631 187.84,-268.34"/>
<polygon fill="midnightblue" stroke="midnightblue" points="187.136,-271.77 197.672,-270.655 188.74,-264.957 187.136,-271.77"/>
</g>
<!-- Node50 -->
<g id="node4" class="node"><title>Node50</title>
<g id="a_node4"><a xlink:href="group__usbd__hal.xhtml#ga4096b052093ba2cdd9b19dc11fd086a2" target="_top" xlink:title="Checks if an ongoing transfer on an endpoint has been completed. ">
<polygon fill="white" stroke="black" points="184,-228.5 184,-247.5 310,-247.5 310,-228.5 184,-228.5"/>
<text text-anchor="middle" x="247" y="-235.5" font-family="Helvetica,sans-Serif" font-size="10.00">UDP_IsTransferFinished</text>
</a>
</g>
</g>
<!-- Node46&#45;&gt;Node50 -->
<g id="edge3" class="edge"><title>Node46&#45;&gt;Node50</title>
<path fill="none" stroke="midnightblue" d="M74.9629,-171.567C92.7792,-184.264 126.247,-206.529 158,-219 164.701,-221.632 171.84,-223.932 179.042,-225.934"/>
<polygon fill="midnightblue" stroke="midnightblue" points="178.308,-229.359 188.866,-228.483 180.066,-222.584 178.308,-229.359"/>
</g>
<!-- Node51 -->
<g id="node5" class="node"><title>Node51</title>
<g id="a_node5"><a xlink:href="group__usbd__hal.xhtml#ga4722799f8987177bdfb273007447089f" target="_top" xlink:title="Transfers a data payload from the current tranfer buffer to the endpoint FIFO. ">
<polygon fill="white" stroke="black" points="195.5,-190.5 195.5,-209.5 298.5,-209.5 298.5,-190.5 195.5,-190.5"/>
<text text-anchor="middle" x="247" y="-197.5" font-family="Helvetica,sans-Serif" font-size="10.00">UDP_WritePayload</text>
</a>
</g>
</g>
<!-- Node46&#45;&gt;Node51 -->
<g id="edge4" class="edge"><title>Node46&#45;&gt;Node51</title>
<path fill="none" stroke="midnightblue" d="M108.431,-171.589C133.149,-176.694 163.739,-183.011 189.792,-188.392"/>
<polygon fill="midnightblue" stroke="midnightblue" points="189.402,-191.885 199.903,-190.48 190.817,-185.03 189.402,-191.885"/>
</g>
<!-- Node52 -->
<g id="node6" class="node"><title>Node52</title>
<g id="a_node6"><a xlink:href="group__usbd__hal.xhtml#ga74e4196d75983a88c070f786a0247a69" target="_top" xlink:title="Clears the correct reception flag (bank 0 or bank 1) of an endpoint. ">
<polygon fill="white" stroke="black" points="198,-152.5 198,-171.5 296,-171.5 296,-152.5 198,-152.5"/>
<text text-anchor="middle" x="247" y="-159.5" font-family="Helvetica,sans-Serif" font-size="10.00">UDP_ClearRxFlag</text>
</a>
</g>
</g>
<!-- Node46&#45;&gt;Node52 -->
<g id="edge5" class="edge"><title>Node46&#45;&gt;Node52</title>
<path fill="none" stroke="midnightblue" d="M122.248,-162C143.325,-162 166.935,-162 187.838,-162"/>
<polygon fill="midnightblue" stroke="midnightblue" points="187.859,-165.5 197.859,-162 187.859,-158.5 187.859,-165.5"/>
</g>
<!-- Node53 -->
<g id="node7" class="node"><title>Node53</title>
<g id="a_node7"><a xlink:href="group__usbd__hal.xhtml#ga37b785d1e538172549f05f51f5bfa7b9" target="_top" xlink:title="Transfers a data payload from an endpoint FIFO to the current transfer buffer. ">
<polygon fill="white" stroke="black" points="195.5,-114.5 195.5,-133.5 298.5,-133.5 298.5,-114.5 195.5,-114.5"/>
<text text-anchor="middle" x="247" y="-121.5" font-family="Helvetica,sans-Serif" font-size="10.00">UDP_ReadPayload</text>
</a>
</g>
</g>
<!-- Node46&#45;&gt;Node53 -->
<g id="edge6" class="edge"><title>Node46&#45;&gt;Node53</title>
<path fill="none" stroke="midnightblue" d="M108.431,-152.411C133.149,-147.306 163.739,-140.989 189.792,-135.608"/>
<polygon fill="midnightblue" stroke="midnightblue" points="190.817,-138.97 199.903,-133.52 189.402,-132.115 190.817,-138.97"/>
</g>
<!-- Node54 -->
<g id="node8" class="node"><title>Node54</title>
<g id="a_node8"><a xlink:href="group__usbd__hal.xhtml#gaab8b038b4d329d70d2db1b0a75bca99c" target="_top" xlink:title="Received SETUP packet from endpoint 0 FIFO. ">
<polygon fill="white" stroke="black" points="195,-76.5 195,-95.5 299,-95.5 299,-76.5 195,-76.5"/>
<text text-anchor="middle" x="247" y="-83.5" font-family="Helvetica,sans-Serif" font-size="10.00">UDP_ReadRequest</text>
</a>
</g>
</g>
<!-- Node46&#45;&gt;Node54 -->
<g id="edge7" class="edge"><title>Node46&#45;&gt;Node54</title>
<path fill="none" stroke="midnightblue" d="M74.9629,-152.433C92.7792,-139.736 126.247,-117.471 158,-105 166.547,-101.643 175.806,-98.8266 184.999,-96.4788"/>
<polygon fill="midnightblue" stroke="midnightblue" points="185.999,-99.8386 194.913,-94.112 184.374,-93.0299 185.999,-99.8386"/>
</g>
<!-- Node55 -->
<g id="node9" class="node"><title>Node55</title>
<g id="a_node9"><a xlink:href="group__usb__request.xhtml#gaf235b5ea91b5da77005e9652efb55220" target="_top" xlink:title="Returns the direction of the data transfer following the given request. ">
<polygon fill="white" stroke="black" points="158,-38.5 158,-57.5 336,-57.5 336,-38.5 158,-38.5"/>
<text text-anchor="middle" x="247" y="-45.5" font-family="Helvetica,sans-Serif" font-size="10.00">USBGenericRequest_GetDirection</text>
</a>
</g>
</g>
<!-- Node46&#45;&gt;Node55 -->
<g id="edge8" class="edge"><title>Node46&#45;&gt;Node55</title>
<path fill="none" stroke="midnightblue" d="M68.6889,-152.398C82.7841,-132.947 117.589,-88.8881 158,-67 162.243,-64.7017 166.743,-62.6814 171.376,-60.9054"/>
<polygon fill="midnightblue" stroke="midnightblue" points="172.709,-64.1484 181.032,-57.5926 170.437,-57.5272 172.709,-64.1484"/>
</g>
<!-- Node56 -->
<g id="node10" class="node"><title>Node56</title>
<g id="a_node10"><a xlink:href="group__usbd__interface.xhtml#gab76f94b99aa061efe700867fc400738c" target="_top" xlink:title="Handle the USB setup package received, should be invoked when an endpoint got a setup package as requ...">
<polygon fill="white" stroke="red" points="184,-0.5 184,-19.5 310,-19.5 310,-0.5 184,-0.5"/>
<text text-anchor="middle" x="247" y="-7.5" font-family="Helvetica,sans-Serif" font-size="10.00">USBD_RequestHandler</text>
</a>
</g>
</g>
<!-- Node46&#45;&gt;Node56 -->
<g id="edge9" class="edge"><title>Node46&#45;&gt;Node56</title>
<path fill="none" stroke="midnightblue" d="M65.9371,-152.435C76.6592,-127.661 108.903,-61.1051 158,-29 162.944,-25.7669 168.347,-23.0743 173.965,-20.8331"/>
<polygon fill="midnightblue" stroke="midnightblue" points="175.295,-24.0759 183.579,-17.4717 172.985,-17.4681 175.295,-24.0759"/>
</g>
</g>
</svg>
