<?xml version="1.0" encoding="UTF-8" standalone="no"?>
<!DOCTYPE svg PUBLIC "-//W3C//DTD SVG 1.1//EN"
 "http://www.w3.org/Graphics/SVG/1.1/DTD/svg11.dtd">
<!-- Generated by graphviz version 2.38.0 (20140413.2041)
 -->
<!-- Title: uhi_msc_mem_get_lun Pages: 1 -->
<svg width="288pt" height="66pt"
 viewBox="0.00 0.00 288.00 66.00" xmlns="http://www.w3.org/2000/svg" xmlns:xlink="http://www.w3.org/1999/xlink">
<g id="graph0" class="graph" transform="scale(1 1) rotate(0) translate(4 62)">
<title>uhi_msc_mem_get_lun</title>
<polygon fill="white" stroke="none" points="-4,4 -4,-62 284,-62 284,4 -4,4"/>
<!-- Node0 -->
<g id="node1" class="node"><title>Node0</title>
<polygon fill="#bfbfbf" stroke="black" points="0,-19.5 0,-38.5 128,-38.5 128,-19.5 0,-19.5"/>
<text text-anchor="middle" x="64" y="-26.5" font-family="Helvetica,sans-Serif" font-size="10.00">uhi_msc_mem_get_lun</text>
</g>
<!-- Node1 -->
<g id="node2" class="node"><title>Node1</title>
<g id="a_node2"><a xlink:href="group__uhi__msc__group.xhtml#ga2e7cf8daaa331de6b805e644955f0045" target="_top" xlink:title="Tests if the interface UHI Mass Storage is available The UHI Mass Storage can be busy during the enum...">
<polygon fill="white" stroke="black" points="164,-38.5 164,-57.5 280,-57.5 280,-38.5 164,-38.5"/>
<text text-anchor="middle" x="222" y="-45.5" font-family="Helvetica,sans-Serif" font-size="10.00">uhi_msc_is_available</text>
</a>
</g>
</g>
<!-- Node0&#45;&gt;Node1 -->
<g id="edge1" class="edge"><title>Node0&#45;&gt;Node1</title>
<path fill="none" stroke="midnightblue" d="M128.002,-36.6733C136.511,-37.7096 145.267,-38.7761 153.845,-39.8209"/>
<polygon fill="midnightblue" stroke="midnightblue" points="153.458,-43.2995 163.808,-41.0343 154.304,-36.3508 153.458,-43.2995"/>
</g>
<!-- Node2 -->
<g id="node3" class="node"><title>Node2</title>
<g id="a_node3"><a xlink:href="group__uhi__msc__group.xhtml#ga5da9d100f90027db04910efe08c4a057" target="_top" xlink:title="Gives the number of LUN available Note: A LUN can be available, but with a status LUN_NOT_PRESENT...">
<polygon fill="white" stroke="black" points="173.5,-0.5 173.5,-19.5 270.5,-19.5 270.5,-0.5 173.5,-0.5"/>
<text text-anchor="middle" x="222" y="-7.5" font-family="Helvetica,sans-Serif" font-size="10.00">uhi_msc_get_lun</text>
</a>
</g>
</g>
<!-- Node0&#45;&gt;Node2 -->
<g id="edge2" class="edge"><title>Node0&#45;&gt;Node2</title>
<path fill="none" stroke="midnightblue" d="M128.002,-21.3267C139.526,-19.9231 151.504,-18.4643 162.878,-17.079"/>
<polygon fill="midnightblue" stroke="midnightblue" points="163.62,-20.5146 173.123,-15.8312 162.773,-13.5659 163.62,-20.5146"/>
</g>
</g>
</svg>
