<?xml version="1.0" encoding="UTF-8" standalone="no"?>
<!DOCTYPE svg PUBLIC "-//W3C//DTD SVG 1.1//EN"
 "http://www.w3.org/Graphics/SVG/1.1/DTD/svg11.dtd">
<!-- Generated by graphviz version 2.38.0 (20140413.2041)
 -->
<!-- Title: _PeripheralEnable Pages: 1 -->
<svg width="269pt" height="66pt"
 viewBox="0.00 0.00 269.00 66.00" xmlns="http://www.w3.org/2000/svg" xmlns:xlink="http://www.w3.org/1999/xlink">
<g id="graph0" class="graph" transform="scale(1 1) rotate(0) translate(4 62)">
<title>_PeripheralEnable</title>
<polygon fill="white" stroke="none" points="-4,4 -4,-62 265,-62 265,4 -4,4"/>
<!-- Node35 -->
<g id="node1" class="node"><title>Node35</title>
<polygon fill="#bfbfbf" stroke="black" points="0,-19.5 0,-38.5 102,-38.5 102,-19.5 0,-19.5"/>
<text text-anchor="middle" x="51" y="-26.5" font-family="Helvetica,sans-Serif" font-size="10.00">_PeripheralEnable</text>
</g>
<!-- Node36 -->
<g id="node2" class="node"><title>Node36</title>
<g id="a_node2"><a xlink:href="pmc_8h.xhtml#a13d9ea02189cb126f06a7d9c7241314a" target="_top" xlink:title="Get Periph Status for the given peripheral ID. ">
<polygon fill="white" stroke="black" points="140,-38.5 140,-57.5 259,-57.5 259,-38.5 140,-38.5"/>
<text text-anchor="middle" x="199.5" y="-45.5" font-family="Helvetica,sans-Serif" font-size="10.00">PMC_IsPeriphEnabled</text>
</a>
</g>
</g>
<!-- Node35&#45;&gt;Node36 -->
<g id="edge1" class="edge"><title>Node35&#45;&gt;Node36</title>
<path fill="none" stroke="midnightblue" d="M102.007,-35.4856C110.956,-36.6461 120.42,-37.8736 129.785,-39.0882"/>
<polygon fill="midnightblue" stroke="midnightblue" points="129.513,-42.582 139.88,-40.3974 130.413,-35.6402 129.513,-42.582"/>
</g>
<!-- Node37 -->
<g id="node3" class="node"><title>Node37</title>
<g id="a_node3"><a xlink:href="pmc_8h.xhtml#a4154148b8d69545bca1b5c868c004d49" target="_top" xlink:title="Enables the clock of a peripheral. ">
<polygon fill="white" stroke="black" points="138,-0.5 138,-19.5 261,-19.5 261,-0.5 138,-0.5"/>
<text text-anchor="middle" x="199.5" y="-7.5" font-family="Helvetica,sans-Serif" font-size="10.00">PMC_EnablePeripheral</text>
</a>
</g>
</g>
<!-- Node35&#45;&gt;Node37 -->
<g id="edge2" class="edge"><title>Node35&#45;&gt;Node37</title>
<path fill="none" stroke="midnightblue" d="M102.007,-22.5144C110.289,-21.4404 119.012,-20.309 127.69,-19.1836"/>
<polygon fill="midnightblue" stroke="midnightblue" points="128.36,-22.6261 137.826,-17.8689 127.459,-15.6842 128.36,-22.6261"/>
</g>
</g>
</svg>
