<?xml version="1.0" encoding="UTF-8" standalone="no"?>
<!DOCTYPE svg PUBLIC "-//W3C//DTD SVG 1.1//EN"
 "http://www.w3.org/Graphics/SVG/1.1/DTD/svg11.dtd">
<!-- Generated by graphviz version 2.38.0 (20140413.2041)
 -->
<!-- Title: HIDDTransferDriver_ConfigurationChangedHandler Pages: 1 -->
<svg width="365pt" height="154pt"
 viewBox="0.00 0.00 365.00 153.50" xmlns="http://www.w3.org/2000/svg" xmlns:xlink="http://www.w3.org/1999/xlink">
<g id="graph0" class="graph" transform="scale(1 1) rotate(0) translate(4 149.5)">
<title>HIDDTransferDriver_ConfigurationChangedHandler</title>
<polygon fill="white" stroke="none" points="-4,4 -4,-149.5 361,-149.5 361,4 -4,4"/>
<!-- Node0 -->
<g id="node1" class="node"><title>Node0</title>
<polygon fill="#bfbfbf" stroke="black" points="0,-63.5 0,-93.5 166,-93.5 166,-63.5 0,-63.5"/>
<text text-anchor="start" x="8" y="-81.5" font-family="Helvetica,sans-Serif" font-size="10.00">HIDDTransferDriver</text>
<text text-anchor="middle" x="83" y="-70.5" font-family="Helvetica,sans-Serif" font-size="10.00">_ConfigurationChangedHandler</text>
</g>
<!-- Node1 -->
<g id="node2" class="node"><title>Node1</title>
<g id="a_node2"><a xlink:href="group__usbd__interface.xhtml#ga01ba3ff549b968edc152cdb23c2027d1" target="_top" xlink:title="Return USBDDriver instance pointer for global usage. ">
<polygon fill="white" stroke="black" points="231.5,-126 231.5,-145 327.5,-145 327.5,-126 231.5,-126"/>
<text text-anchor="middle" x="279.5" y="-133" font-family="Helvetica,sans-Serif" font-size="10.00">USBD_GetDriver</text>
</a>
</g>
</g>
<!-- Node0&#45;&gt;Node1 -->
<g id="edge1" class="edge"><title>Node0&#45;&gt;Node1</title>
<path fill="none" stroke="midnightblue" d="M128.328,-93.5647C150.368,-100.853 177.472,-109.513 202,-116.5 210.415,-118.897 219.398,-121.282 228.142,-123.511"/>
<polygon fill="midnightblue" stroke="midnightblue" points="227.316,-126.912 237.868,-125.954 229.022,-120.123 227.316,-126.912"/>
</g>
<!-- Node2 -->
<g id="node3" class="node"><title>Node2</title>
<g id="a_node3"><a xlink:href="group__usbd__hal.xhtml#ga946b2d10dfc497b6b24e602be6f3bd05" target="_top" xlink:title="Indicates if the device is running in high or full&#45;speed. ">
<polygon fill="white" stroke="red" points="212,-88 212,-107 347,-107 347,-88 212,-88"/>
<text text-anchor="middle" x="279.5" y="-95" font-family="Helvetica,sans-Serif" font-size="10.00">USBD_HAL_IsHighSpeed</text>
</a>
</g>
</g>
<!-- Node0&#45;&gt;Node2 -->
<g id="edge2" class="edge"><title>Node0&#45;&gt;Node2</title>
<path fill="none" stroke="midnightblue" d="M166.204,-86.5302C177.991,-87.6817 190.081,-88.8627 201.758,-90.0034"/>
<polygon fill="midnightblue" stroke="midnightblue" points="201.602,-93.5047 211.895,-90.9936 202.283,-86.5379 201.602,-93.5047"/>
</g>
<!-- Node4 -->
<g id="node4" class="node"><title>Node4</title>
<g id="a_node4"><a xlink:href="group__usbd__hid.xhtml#ga82ccc86124b2cd8918810b69c0afec13" target="_top" xlink:title="Parse the USB HID Function Interface. ">
<polygon fill="white" stroke="red" points="202,-50 202,-69 357,-69 357,-50 202,-50"/>
<text text-anchor="middle" x="279.5" y="-57" font-family="Helvetica,sans-Serif" font-size="10.00">HIDDFunction_ParseInterface</text>
</a>
</g>
</g>
<!-- Node0&#45;&gt;Node4 -->
<g id="edge3" class="edge"><title>Node0&#45;&gt;Node4</title>
<path fill="none" stroke="midnightblue" d="M166.204,-70.4698C174.699,-69.64 183.351,-68.7948 191.892,-67.9604"/>
<polygon fill="midnightblue" stroke="midnightblue" points="192.24,-71.4432 201.852,-66.9875 191.559,-64.4764 192.24,-71.4432"/>
</g>
<!-- Node9 -->
<g id="node5" class="node"><title>Node9</title>
<g id="a_node5"><a xlink:href="group__usbd__hid.xhtml#ga18ed1d60f54db7c0dd38b3db4fcccfa8" target="_top" xlink:title="Start polling interrupt OUT pipe (output report, host to device) if there is. ">
<polygon fill="white" stroke="red" points="209,-0.5 209,-30.5 350,-30.5 350,-0.5 209,-0.5"/>
<text text-anchor="start" x="217" y="-18.5" font-family="Helvetica,sans-Serif" font-size="10.00">HIDDFunction_StartPolling</text>
<text text-anchor="middle" x="279.5" y="-7.5" font-family="Helvetica,sans-Serif" font-size="10.00">Outputs</text>
</a>
</g>
</g>
<!-- Node0&#45;&gt;Node9 -->
<g id="edge4" class="edge"><title>Node0&#45;&gt;Node9</title>
<path fill="none" stroke="midnightblue" d="M130.588,-63.4099C158.153,-54.4814 193.252,-43.1125 222.341,-33.6904"/>
<polygon fill="midnightblue" stroke="midnightblue" points="223.521,-36.9872 231.956,-30.576 221.364,-30.3278 223.521,-36.9872"/>
</g>
</g>
</svg>
