<?xml version="1.0" encoding="UTF-8" standalone="no"?>
<!DOCTYPE svg PUBLIC "-//W3C//DTD SVG 1.1//EN"
 "http://www.w3.org/Graphics/SVG/1.1/DTD/svg11.dtd">
<!-- Generated by graphviz version 2.38.0 (20140413.2041)
 -->
<!-- Title: Two&#45;wire Interface High Speed Pages: 1 -->
<svg width="271pt" height="88pt"
 viewBox="0.00 0.00 271.00 88.00" xmlns="http://www.w3.org/2000/svg" xmlns:xlink="http://www.w3.org/1999/xlink">
<g id="graph0" class="graph" transform="scale(1 1) rotate(0) translate(4 84)">
<title>Two&#45;wire Interface High Speed</title>
<polygon fill="white" stroke="none" points="-4,4 -4,-84 267,-84 267,4 -4,4"/>
<!-- Node1 -->
<g id="node1" class="node"><title>Node1</title>
<g id="a_node1"><a xlink:href="group___s_a_m_e70___t_w_i_h_s.xhtml" target="_top" xlink:title="SOFTWARE API DEFINITION FOR Two&#45;wire Interface High Speed. ">
<polygon fill="white" stroke="black" points="162,-49.5 162,-79.5 263,-79.5 263,-49.5 162,-49.5"/>
<text text-anchor="start" x="170" y="-67.5" font-family="Helvetica,sans-Serif" font-size="10.00">Two&#45;wire Interface</text>
<text text-anchor="middle" x="212.5" y="-56.5" font-family="Helvetica,sans-Serif" font-size="10.00"> High Speed</text>
</a>
</g>
</g>
<!-- Node0 -->
<g id="node2" class="node"><title>Node0</title>
<polygon fill="#bfbfbf" stroke="black" points="0,-24.5 0,-54.5 101,-54.5 101,-24.5 0,-24.5"/>
<text text-anchor="start" x="8" y="-42.5" font-family="Helvetica,sans-Serif" font-size="10.00">Two&#45;wire Interface</text>
<text text-anchor="middle" x="50.5" y="-31.5" font-family="Helvetica,sans-Serif" font-size="10.00"> High Speed</text>
</g>
<!-- Node0&#45;&gt;Node1 -->
<g id="edge1" class="edge"><title>Node0&#45;&gt;Node1</title>
<path fill="none" stroke="orange" stroke-dasharray="5,2" d="M101.248,-47.2731C120.512,-50.2832 142.521,-53.7221 161.783,-56.7317"/>
<text text-anchor="middle" x="131.5" y="-55.5" font-family="Helvetica,sans-Serif" font-size="10.00">Twihs</text>
</g>
<!-- Node2 -->
<g id="node3" class="node"><title>Node2</title>
<g id="a_node3"><a xlink:href="group___s_a_m_s70___t_w_i_h_s.xhtml" target="_top" xlink:title="SOFTWARE API DEFINITION FOR Two&#45;wire Interface High Speed. ">
<polygon fill="white" stroke="black" points="162,-0.5 162,-30.5 263,-30.5 263,-0.5 162,-0.5"/>
<text text-anchor="start" x="170" y="-18.5" font-family="Helvetica,sans-Serif" font-size="10.00">Two&#45;wire Interface</text>
<text text-anchor="middle" x="212.5" y="-7.5" font-family="Helvetica,sans-Serif" font-size="10.00"> High Speed</text>
</a>
</g>
</g>
<!-- Node0&#45;&gt;Node2 -->
<g id="edge2" class="edge"><title>Node0&#45;&gt;Node2</title>
<path fill="none" stroke="orange" stroke-dasharray="5,2" d="M101.248,-32.0378C120.512,-29.1482 142.521,-25.8468 161.783,-22.9576"/>
<text text-anchor="middle" x="131.5" y="-31.5" font-family="Helvetica,sans-Serif" font-size="10.00">Twihs</text>
</g>
</g>
</svg>
