<?xml version="1.0" encoding="UTF-8" standalone="no"?>
<!DOCTYPE svg PUBLIC "-//W3C//DTD SVG 1.1//EN"
 "http://www.w3.org/Graphics/SVG/1.1/DTD/svg11.dtd">
<!-- Generated by graphviz version 2.38.0 (20140413.2041)
 -->
<!-- Title: HIDDFunction_StartSendingInputs Pages: 1 -->
<svg width="443pt" height="53pt"
 viewBox="0.00 0.00 443.00 52.50" xmlns="http://www.w3.org/2000/svg" xmlns:xlink="http://www.w3.org/1999/xlink">
<g id="graph0" class="graph" transform="scale(1 1) rotate(0) translate(4 48.5)">
<title>HIDDFunction_StartSendingInputs</title>
<polygon fill="white" stroke="none" points="-4,4 -4,-48.5 439,-48.5 439,4 -4,4"/>
<!-- Node423 -->
<g id="node1" class="node"><title>Node423</title>
<polygon fill="#bfbfbf" stroke="black" points="0,-14 0,-44 149,-44 149,-14 0,-14"/>
<text text-anchor="start" x="8" y="-32" font-family="Helvetica,sans-Serif" font-size="10.00">HIDDFunction_StartSending</text>
<text text-anchor="middle" x="74.5" y="-21" font-family="Helvetica,sans-Serif" font-size="10.00">Inputs</text>
</g>
<!-- Node424 -->
<g id="node2" class="node"><title>Node424</title>
<g id="a_node2"><a xlink:href="group__usbd__interface.xhtml#gafc4728f4af70056b3a271f333b759592" target="_top" xlink:title="Sends data through a USB endpoint. ">
<polygon fill="white" stroke="red" points="361,-19.5 361,-38.5 435,-38.5 435,-19.5 361,-19.5"/>
<text text-anchor="middle" x="398" y="-26.5" font-family="Helvetica,sans-Serif" font-size="10.00">USBD_Write</text>
</a>
</g>
</g>
<!-- Node423&#45;&gt;Node424 -->
<g id="edge1" class="edge"><title>Node423&#45;&gt;Node424</title>
<path fill="none" stroke="midnightblue" d="M149.259,-29C211.305,-29 298.095,-29 350.767,-29"/>
<polygon fill="midnightblue" stroke="midnightblue" points="350.829,-32.5001 360.829,-29 350.829,-25.5001 350.829,-32.5001"/>
</g>
<!-- Node447 -->
<g id="node3" class="node"><title>Node447</title>
<g id="a_node3"><a xlink:href="group__usbd__hid.xhtml#ga60b335dc503af45617b01905dd2d1512" target="_top" xlink:title="Callback function when interrupt IN data sent to host. ">
<polygon fill="white" stroke="red" points="185,-0.5 185,-19.5 325,-19.5 325,-0.5 185,-0.5"/>
<text text-anchor="middle" x="255" y="-7.5" font-family="Helvetica,sans-Serif" font-size="10.00">HIDDFunction_ReportSent</text>
</a>
</g>
</g>
<!-- Node423&#45;&gt;Node447 -->
<g id="edge2" class="edge"><title>Node423&#45;&gt;Node447</title>
<path fill="none" stroke="midnightblue" d="M149.133,-21.1623C157.623,-20.2586 166.308,-19.3342 174.867,-18.4231"/>
<polygon fill="midnightblue" stroke="midnightblue" points="175.264,-21.9007 184.838,-17.3618 174.523,-14.94 175.264,-21.9007"/>
</g>
<!-- Node447&#45;&gt;Node424 -->
<g id="edge3" class="edge"><title>Node447&#45;&gt;Node424</title>
<path fill="none" stroke="midnightblue" d="M325.261,-19.333C333.879,-20.4944 342.523,-21.6591 350.675,-22.7576"/>
<polygon fill="midnightblue" stroke="midnightblue" points="350.323,-26.2417 360.7,-24.1086 351.257,-19.3044 350.323,-26.2417"/>
</g>
</g>
</svg>
