<?xml version="1.0" encoding="UTF-8" standalone="no"?>
<!DOCTYPE svg PUBLIC "-//W3C//DTD SVG 1.1//EN"
 "http://www.w3.org/Graphics/SVG/1.1/DTD/svg11.dtd">
<!-- Generated by graphviz version 2.38.0 (20140413.2041)
 -->
<!-- Title: USBD_IsHighSpeed Pages: 1 -->
<svg width="261pt" height="78pt"
 viewBox="0.00 0.00 261.00 77.50" xmlns="http://www.w3.org/2000/svg" xmlns:xlink="http://www.w3.org/1999/xlink">
<g id="graph0" class="graph" transform="scale(1 1) rotate(0) translate(4 73.5)">
<title>USBD_IsHighSpeed</title>
<polygon fill="white" stroke="none" points="-4,4 -4,-73.5 257,-73.5 257,4 -4,4"/>
<!-- Node715 -->
<g id="node1" class="node"><title>Node715</title>
<polygon fill="#bfbfbf" stroke="black" points="0,-28 0,-47 110,-47 110,-28 0,-28"/>
<text text-anchor="middle" x="55" y="-35" font-family="Helvetica,sans-Serif" font-size="10.00">USBD_IsHighSpeed</text>
</g>
<!-- Node716 -->
<g id="node2" class="node"><title>Node716</title>
<g id="a_node2"><a xlink:href="group__usbd__interface.xhtml#ga962288f78a55bd84652a388023b53dca" target="_top" xlink:title="Sends the current status of the device to the host. ">
<polygon fill="white" stroke="red" points="150.5,-50 150.5,-69 248.5,-69 248.5,-50 150.5,-50"/>
<text text-anchor="middle" x="199.5" y="-57" font-family="Helvetica,sans-Serif" font-size="10.00">GetDeviceStatus</text>
</a>
</g>
</g>
<!-- Node715&#45;&gt;Node716 -->
<g id="edge1" class="edge"><title>Node715&#45;&gt;Node716</title>
<path fill="none" stroke="midnightblue" d="M120.314,-47.4292C130.443,-48.9929 140.759,-50.5857 150.436,-52.0796"/>
<polygon fill="midnightblue" stroke="midnightblue" points="120.697,-43.9469 110.28,-45.88 119.629,-50.8649 120.697,-43.9469"/>
</g>
<!-- Node742 -->
<g id="node3" class="node"><title>Node742</title>
<g id="a_node3"><a xlink:href="group__usbd__hid__tran.xhtml#ga495fd4a8918a0c0725382a6165fb6da5" target="_top" xlink:title="Returns the descriptor requested by the host. ">
<polygon fill="white" stroke="red" points="146,-0.5 146,-30.5 253,-30.5 253,-0.5 146,-0.5"/>
<text text-anchor="start" x="154" y="-18.5" font-family="Helvetica,sans-Serif" font-size="10.00">HIDDTransferDriver</text>
<text text-anchor="middle" x="199.5" y="-7.5" font-family="Helvetica,sans-Serif" font-size="10.00">_GetDescriptor</text>
</a>
</g>
</g>
<!-- Node715&#45;&gt;Node742 -->
<g id="edge2" class="edge"><title>Node715&#45;&gt;Node742</title>
<path fill="none" stroke="midnightblue" d="M120.224,-27.5847C128.774,-26.2648 137.46,-24.9238 145.783,-23.6388"/>
<polygon fill="midnightblue" stroke="midnightblue" points="119.629,-24.1351 110.28,-29.12 120.697,-31.0531 119.629,-24.1351"/>
</g>
</g>
</svg>
