<?xml version="1.0" encoding="UTF-8" standalone="no"?>
<!DOCTYPE svg PUBLIC "-//W3C//DTD SVG 1.1//EN"
 "http://www.w3.org/Graphics/SVG/1.1/DTD/svg11.dtd">
<!-- Generated by graphviz version 2.38.0 (20140413.2041)
 -->
<!-- Title: Real&#45;time Clock Pages: 1 -->
<svg width="240pt" height="66pt"
 viewBox="0.00 0.00 240.00 66.00" xmlns="http://www.w3.org/2000/svg" xmlns:xlink="http://www.w3.org/1999/xlink">
<g id="graph0" class="graph" transform="scale(1 1) rotate(0) translate(4 62)">
<title>Real&#45;time Clock</title>
<polygon fill="white" stroke="none" points="-4,4 -4,-62 236,-62 236,4 -4,4"/>
<!-- Node2 -->
<g id="node1" class="node"><title>Node2</title>
<g id="a_node1"><a xlink:href="group___s_a_m_s70___r_t_c.xhtml" target="_top" xlink:title="SOFTWARE API DEFINITION FOR Real&#45;time Clock. ">
<polygon fill="white" stroke="black" points="142,-38.5 142,-57.5 232,-57.5 232,-38.5 142,-38.5"/>
<text text-anchor="middle" x="187" y="-45.5" font-family="Helvetica,sans-Serif" font-size="10.00">Real&#45;time Clock</text>
</a>
</g>
</g>
<!-- Node1 -->
<g id="node2" class="node"><title>Node1</title>
<g id="a_node2"><a xlink:href="group___s_a_m_e70___r_t_c.xhtml" target="_top" xlink:title="SOFTWARE API DEFINITION FOR Real&#45;time Clock. ">
<polygon fill="white" stroke="black" points="142,-0.5 142,-19.5 232,-19.5 232,-0.5 142,-0.5"/>
<text text-anchor="middle" x="187" y="-7.5" font-family="Helvetica,sans-Serif" font-size="10.00">Real&#45;time Clock</text>
</a>
</g>
</g>
<!-- Node0 -->
<g id="node3" class="node"><title>Node0</title>
<polygon fill="#bfbfbf" stroke="black" points="0,-19.5 0,-38.5 90,-38.5 90,-19.5 0,-19.5"/>
<text text-anchor="middle" x="45" y="-26.5" font-family="Helvetica,sans-Serif" font-size="10.00">Real&#45;time Clock</text>
</g>
<!-- Node0&#45;&gt;Node2 -->
<g id="edge2" class="edge"><title>Node0&#45;&gt;Node2</title>
<path fill="none" stroke="orange" stroke-dasharray="5,2" d="M90.2969,-35.0117C106.799,-37.2513 125.515,-39.7913 141.991,-42.0274"/>
<text text-anchor="middle" x="116" y="-42" font-family="Helvetica,sans-Serif" font-size="10.00">Rtc</text>
</g>
<!-- Node0&#45;&gt;Node1 -->
<g id="edge1" class="edge"><title>Node0&#45;&gt;Node1</title>
<path fill="none" stroke="orange" stroke-dasharray="5,2" d="M83.8582,-19.4548C91.7912,-17.7356 100.136,-16.1327 108,-15 118.879,-13.4331 130.682,-12.3572 141.736,-11.6184"/>
<text text-anchor="middle" x="116" y="-18" font-family="Helvetica,sans-Serif" font-size="10.00">Rtc</text>
</g>
</g>
</svg>
