<?xml version="1.0" encoding="UTF-8" standalone="no"?>
<!DOCTYPE svg PUBLIC "-//W3C//DTD SVG 1.1//EN"
 "http://www.w3.org/Graphics/SVG/1.1/DTD/svg11.dtd">
<!-- Generated by graphviz version 2.38.0 (20140413.2041)
 -->
<!-- Title: NVIC_SetPriority Pages: 1 -->
<svg width="476pt" height="565pt"
 viewBox="0.00 0.00 476.00 565.27" xmlns="http://www.w3.org/2000/svg" xmlns:xlink="http://www.w3.org/1999/xlink">
<g id="graph0" class="graph" transform="scale(1 1) rotate(0) translate(4 561.273)">
<title>NVIC_SetPriority</title>
<polygon fill="white" stroke="none" points="-4,4 -4,-561.273 472,-561.273 472,4 -4,4"/>
<!-- Node231 -->
<g id="node1" class="node"><title>Node231</title>
<polygon fill="#bfbfbf" stroke="black" points="0,-266.5 0,-285.5 95,-285.5 95,-266.5 0,-266.5"/>
<text text-anchor="middle" x="47.5" y="-273.5" font-family="Helvetica,sans-Serif" font-size="10.00">NVIC_SetPriority</text>
</g>
<!-- Node232 -->
<g id="node2" class="node"><title>Node232</title>
<g id="a_node2"><a xlink:href="startup__sams70_8c.xhtml#a7cecd108fd88dec10ce2e97ad905e4ef" target="_top" xlink:title="Performs the low&#45;level initialization of the chip. ">
<polygon fill="white" stroke="red" points="355,-304.5 355,-323.5 429,-323.5 429,-304.5 355,-304.5"/>
<text text-anchor="middle" x="392" y="-311.5" font-family="Helvetica,sans-Serif" font-size="10.00">LowLevelInit</text>
</a>
</g>
</g>
<!-- Node231&#45;&gt;Node232 -->
<g id="edge1" class="edge"><title>Node231&#45;&gt;Node232</title>
<path fill="none" stroke="midnightblue" d="M53.9825,-295.695C63.7143,-326.39 87.227,-384.642 131,-409 188.866,-441.2 217.883,-431.952 280,-409 327.11,-391.593 367.747,-344.283 383.743,-323.739"/>
<polygon fill="midnightblue" stroke="midnightblue" points="57.2262,-294.325 51.0086,-285.747 50.5194,-296.33 57.2262,-294.325"/>
</g>
<!-- Node234 -->
<g id="node3" class="node"><title>Node234</title>
<g id="a_node3"><a xlink:href="group___c_m_s_i_s___core___sys_tick_functions.xhtml#gae4e8f0238527c69f522029b93c8e5b78" target="_top" xlink:title="System Tick Configuration. ">
<polygon fill="white" stroke="red" points="162,-494.5 162,-513.5 249,-513.5 249,-494.5 162,-494.5"/>
<text text-anchor="middle" x="205.5" y="-501.5" font-family="Helvetica,sans-Serif" font-size="10.00">SysTick_Config</text>
</a>
</g>
</g>
<!-- Node231&#45;&gt;Node234 -->
<g id="edge2" class="edge"><title>Node231&#45;&gt;Node234</title>
<path fill="none" stroke="midnightblue" d="M50.9034,-295.621C56.8808,-335.973 76.12,-428.766 131,-480 139.537,-487.969 150.76,-493.294 161.858,-496.851"/>
<polygon fill="midnightblue" stroke="midnightblue" points="54.3707,-295.143 49.5505,-285.709 47.435,-296.09 54.3707,-295.143"/>
</g>
<!-- Node235 -->
<g id="node4" class="node"><title>Node235</title>
<g id="a_node4"><a xlink:href="group___c_m_s_i_s___core___n_v_i_c_functions.xhtml#ga3387607fd8a1a32cccd77d2ac672dd96" target="_top" xlink:title="Decode Priority. ">
<polygon fill="white" stroke="black" points="334.5,-524.5 334.5,-543.5 449.5,-543.5 449.5,-524.5 334.5,-524.5"/>
<text text-anchor="middle" x="392" y="-531.5" font-family="Helvetica,sans-Serif" font-size="10.00">NVIC_DecodePriority</text>
</a>
</g>
</g>
<!-- Node231&#45;&gt;Node235 -->
<g id="edge6" class="edge"><title>Node231&#45;&gt;Node235</title>
<path fill="none" stroke="midnightblue" d="M48.2111,-295.799C48.7068,-344.014 57.4377,-467.614 131,-523 197.772,-573.273 303.818,-556.63 357.504,-543.532"/>
<polygon fill="midnightblue" stroke="midnightblue" points="51.7111,-295.734 48.2215,-285.731 44.7111,-295.727 51.7111,-295.734"/>
</g>
<!-- Node236 -->
<g id="node5" class="node"><title>Node236</title>
<g id="a_node5"><a xlink:href="group___c_m_s_i_s___core___cache_functions.xhtml#ga630131b2572eaa16b569ed364dfc895e" target="_top" xlink:title="SCB_CleanInvalidateDCache\l_by_Addr">
<polygon fill="white" stroke="red" points="316,-467 316,-497 468,-497 468,-467 316,-467"/>
<text text-anchor="start" x="324" y="-485" font-family="Helvetica,sans-Serif" font-size="10.00">SCB_CleanInvalidateDCache</text>
<text text-anchor="middle" x="392" y="-474" font-family="Helvetica,sans-Serif" font-size="10.00">_by_Addr</text>
</a>
</g>
</g>
<!-- Node231&#45;&gt;Node236 -->
<g id="edge7" class="edge"><title>Node231&#45;&gt;Node236</title>
<path fill="none" stroke="midnightblue" d="M52.9243,-295.7C61.6171,-329.557 84.2863,-398.464 131,-433 184.187,-472.322 259.804,-482.91 315.789,-484.649"/>
<polygon fill="midnightblue" stroke="midnightblue" points="56.2496,-294.56 50.4976,-285.662 49.4456,-296.205 56.2496,-294.56"/>
</g>
<!-- Node256 -->
<g id="node6" class="node"><title>Node256</title>
<g id="a_node6"><a xlink:href="group___c_m_s_i_s___core___n_v_i_c_functions.xhtml#ga47a0f52794068d076c9147aa3cb8d8a6" target="_top" xlink:title="Get Active Interrupt. ">
<polygon fill="white" stroke="red" points="159.5,-380.5 159.5,-399.5 251.5,-399.5 251.5,-380.5 159.5,-380.5"/>
<text text-anchor="middle" x="205.5" y="-387.5" font-family="Helvetica,sans-Serif" font-size="10.00">NVIC_GetActive</text>
</a>
</g>
</g>
<!-- Node231&#45;&gt;Node256 -->
<g id="edge5" class="edge"><title>Node231&#45;&gt;Node256</title>
<path fill="none" stroke="midnightblue" d="M59.5197,-294.394C73.4472,-316.031 99.4513,-351.469 131,-371 139.517,-376.273 149.455,-380.089 159.219,-382.849"/>
<polygon fill="midnightblue" stroke="midnightblue" points="62.4148,-292.423 54.1512,-285.792 56.4763,-296.129 62.4148,-292.423"/>
</g>
<!-- Node267 -->
<g id="node7" class="node"><title>Node267</title>
<g id="a_node7"><a xlink:href="afe__dma_8c.xhtml#a7fc901cb910a6298837d57892790161c" target="_top" xlink:title="Starts a AFE transfer. ">
<polygon fill="white" stroke="black" points="162.5,-342.5 162.5,-361.5 248.5,-361.5 248.5,-342.5 162.5,-342.5"/>
<text text-anchor="middle" x="205.5" y="-349.5" font-family="Helvetica,sans-Serif" font-size="10.00">Afe_SendData</text>
</a>
</g>
</g>
<!-- Node231&#45;&gt;Node267 -->
<g id="edge8" class="edge"><title>Node231&#45;&gt;Node267</title>
<path fill="none" stroke="midnightblue" d="M67.7607,-292.244C83.7657,-304.991 107.622,-322.313 131,-333 140.829,-337.493 151.903,-341.058 162.415,-343.827"/>
<polygon fill="midnightblue" stroke="midnightblue" points="69.6939,-289.305 59.7296,-285.704 65.2737,-294.732 69.6939,-289.305"/>
</g>
<!-- Node268 -->
<g id="node8" class="node"><title>Node268</title>
<g id="a_node8"><a xlink:href="pio__it_8c.xhtml#ad31e05d6debb1e88af6124cd7751af22" target="_top" xlink:title="Initializes the PIO interrupt management logic. ">
<polygon fill="white" stroke="red" points="144.5,-304.5 144.5,-323.5 266.5,-323.5 266.5,-304.5 144.5,-304.5"/>
<text text-anchor="middle" x="205.5" y="-311.5" font-family="Helvetica,sans-Serif" font-size="10.00">PIO_InitializeInterrupts</text>
</a>
</g>
</g>
<!-- Node231&#45;&gt;Node268 -->
<g id="edge9" class="edge"><title>Node231&#45;&gt;Node268</title>
<path fill="none" stroke="midnightblue" d="M97.6317,-287.968C119.493,-293.293 144.876,-299.476 165.418,-304.48"/>
<polygon fill="midnightblue" stroke="midnightblue" points="98.4097,-284.555 87.8654,-285.589 96.7529,-291.356 98.4097,-284.555"/>
</g>
<!-- Node270 -->
<g id="node9" class="node"><title>Node270</title>
<g id="a_node9"><a xlink:href="spi__dma_8c.xhtml#ae3c774fb7e4bcf2db4e5d9e8891b6abd" target="_top" xlink:title="Starts a SPI master transfer. ">
<polygon fill="white" stroke="black" points="146,-266.5 146,-285.5 265,-285.5 265,-266.5 146,-266.5"/>
<text text-anchor="middle" x="205.5" y="-273.5" font-family="Helvetica,sans-Serif" font-size="10.00">SPID_SendCommand</text>
</a>
</g>
</g>
<!-- Node231&#45;&gt;Node270 -->
<g id="edge11" class="edge"><title>Node231&#45;&gt;Node270</title>
<path fill="none" stroke="midnightblue" d="M105.602,-276C118.708,-276 132.663,-276 145.834,-276"/>
<polygon fill="midnightblue" stroke="midnightblue" points="105.305,-272.5 95.3051,-276 105.305,-279.5 105.305,-272.5"/>
</g>
<!-- Node271 -->
<g id="node10" class="node"><title>Node271</title>
<g id="a_node10"><a xlink:href="twid_8c.xhtml#a5a93a963b33545933b831ca77a89c2a2" target="_top" xlink:title="Initializes a TWI driver instance, using the given TWI peripheral. ">
<polygon fill="white" stroke="black" points="338.5,-209.5 338.5,-228.5 445.5,-228.5 445.5,-209.5 338.5,-209.5"/>
<text text-anchor="middle" x="392" y="-216.5" font-family="Helvetica,sans-Serif" font-size="10.00">TWID_DmaInitialize</text>
</a>
</g>
</g>
<!-- Node231&#45;&gt;Node271 -->
<g id="edge12" class="edge"><title>Node231&#45;&gt;Node271</title>
<path fill="none" stroke="midnightblue" d="M65.8154,-259.288C81.4304,-245.465 105.759,-226.872 131,-219 200.163,-197.431 284.8,-202.908 338.323,-209.995"/>
<polygon fill="midnightblue" stroke="midnightblue" points="63.0894,-257.039 58.0864,-266.378 67.8214,-262.198 63.0894,-257.039"/>
</g>
<!-- Node272 -->
<g id="node11" class="node"><title>Node272</title>
<g id="a_node11"><a xlink:href="group__dmad__functions.xhtml#ga8c7517080f70e93096364e916af6e6f2" target="_top" xlink:title="Initialize xDMA driver instance. ">
<polygon fill="white" stroke="red" points="157.5,-228.5 157.5,-247.5 253.5,-247.5 253.5,-228.5 157.5,-228.5"/>
<text text-anchor="middle" x="205.5" y="-235.5" font-family="Helvetica,sans-Serif" font-size="10.00">XDMAD_Initialize</text>
</a>
</g>
</g>
<!-- Node231&#45;&gt;Node272 -->
<g id="edge13" class="edge"><title>Node231&#45;&gt;Node272</title>
<path fill="none" stroke="midnightblue" d="M97.6317,-264.032C119.493,-258.707 144.876,-252.524 165.418,-247.52"/>
<polygon fill="midnightblue" stroke="midnightblue" points="96.7529,-260.644 87.8654,-266.411 98.4097,-267.445 96.7529,-260.644"/>
</g>
<!-- Node279 -->
<g id="node12" class="node"><title>Node279</title>
<g id="a_node12"><a xlink:href="group__uhd__group.xhtml#ga3a715175934fb8bf3c918f04ef0dae2b" target="_top" xlink:title="Enables the USB host mode Start the ID pin management if the ID pin is available. ...">
<polygon fill="white" stroke="red" points="131,-152.5 131,-171.5 280,-171.5 280,-152.5 131,-152.5"/>
<text text-anchor="middle" x="205.5" y="-159.5" font-family="Helvetica,sans-Serif" font-size="10.00">USBH_HAL_EnableUsbHost</text>
</a>
</g>
</g>
<!-- Node231&#45;&gt;Node279 -->
<g id="edge16" class="edge"><title>Node231&#45;&gt;Node279</title>
<path fill="none" stroke="midnightblue" d="M60.5949,-258.014C75.0857,-237.771 101.176,-205.21 131,-186 140.592,-179.821 151.918,-175.1 162.768,-171.549"/>
<polygon fill="midnightblue" stroke="midnightblue" points="57.6274,-256.15 54.7814,-266.356 63.3705,-260.153 57.6274,-256.15"/>
</g>
<!-- Node281 -->
<g id="node13" class="node"><title>Node281</title>
<g id="a_node13"><a xlink:href="group__udd__udphs__group.xhtml#ga9792d1899ae058e3984d6a622fe2ad42" target="_top" xlink:title="udd_enable">
<polygon fill="white" stroke="black" points="169.5,-114.5 169.5,-133.5 241.5,-133.5 241.5,-114.5 169.5,-114.5"/>
<text text-anchor="middle" x="205.5" y="-121.5" font-family="Helvetica,sans-Serif" font-size="10.00">udd_enable</text>
</a>
</g>
</g>
<!-- Node231&#45;&gt;Node281 -->
<g id="edge17" class="edge"><title>Node231&#45;&gt;Node281</title>
<path fill="none" stroke="midnightblue" d="M55.1048,-256.71C66.1147,-227.513 91.0392,-172.398 131,-143 142.041,-134.877 156.242,-130.219 169.212,-127.55"/>
<polygon fill="midnightblue" stroke="midnightblue" points="51.7831,-255.603 51.676,-266.198 58.3664,-257.983 51.7831,-255.603"/>
</g>
<!-- Node282 -->
<g id="node14" class="node"><title>Node282</title>
<g id="a_node14"><a xlink:href="xtio__i2c_8h.xhtml#a7b0e666ddfaac918eb931d278b66559c" target="_top" xlink:title="xtio_i2c_init">
<polygon fill="white" stroke="red" points="169.5,-76.5 169.5,-95.5 241.5,-95.5 241.5,-76.5 169.5,-76.5"/>
<text text-anchor="middle" x="205.5" y="-83.5" font-family="Helvetica,sans-Serif" font-size="10.00">xtio_i2c_init</text>
</a>
</g>
</g>
<!-- Node231&#45;&gt;Node282 -->
<g id="edge18" class="edge"><title>Node231&#45;&gt;Node282</title>
<path fill="none" stroke="midnightblue" d="M52.4186,-255.908C60.4998,-219.989 82.4836,-144.808 131,-105 141.8,-96.1382 156.258,-91.3575 169.493,-88.7977"/>
<polygon fill="midnightblue" stroke="midnightblue" points="48.9089,-255.588 50.2673,-266.096 55.7579,-257.035 48.9089,-255.588"/>
</g>
<!-- Node261 -->
<g id="node15" class="node"><title>Node261</title>
<g id="a_node15"><a xlink:href="xtio__uart_8h.xhtml#a8ba86b040c6e35b8df3244e412f2e689" target="_top" xlink:title="xtio_uart_configure">
<polygon fill="white" stroke="red" points="151.5,-38.5 151.5,-57.5 259.5,-57.5 259.5,-38.5 151.5,-38.5"/>
<text text-anchor="middle" x="205.5" y="-45.5" font-family="Helvetica,sans-Serif" font-size="10.00">xtio_uart_configure</text>
</a>
</g>
</g>
<!-- Node231&#45;&gt;Node261 -->
<g id="edge19" class="edge"><title>Node231&#45;&gt;Node261</title>
<path fill="none" stroke="midnightblue" d="M50.4174,-256.201C55.527,-214.654 73.2952,-118.011 131,-67 136.826,-61.8498 143.871,-58.0643 151.263,-55.288"/>
<polygon fill="midnightblue" stroke="midnightblue" points="46.9128,-256.049 49.2893,-266.374 53.8702,-256.821 46.9128,-256.049"/>
</g>
<!-- Node284 -->
<g id="node16" class="node"><title>Node284</title>
<g id="a_node16"><a xlink:href="xtio__usb_8h.xhtml#ac942f9c78a8f96aa6681c98966ce019c" target="_top" xlink:title="xtio_usb_init">
<polygon fill="white" stroke="red" points="167.5,-0.5 167.5,-19.5 243.5,-19.5 243.5,-0.5 167.5,-0.5"/>
<text text-anchor="middle" x="205.5" y="-7.5" font-family="Helvetica,sans-Serif" font-size="10.00">xtio_usb_init</text>
</a>
</g>
</g>
<!-- Node231&#45;&gt;Node284 -->
<g id="edge20" class="edge"><title>Node231&#45;&gt;Node284</title>
<path fill="none" stroke="midnightblue" d="M49.0375,-256.226C51.4176,-209.479 64.1056,-91.4064 131,-29 140.83,-19.8295 154.495,-14.9505 167.379,-12.3989"/>
<polygon fill="midnightblue" stroke="midnightblue" points="45.5292,-256.365 48.6278,-266.497 52.5237,-256.644 45.5292,-256.365"/>
</g>
<!-- Node234&#45;&gt;Node235 -->
<g id="edge3" class="edge"><title>Node234&#45;&gt;Node235</title>
<path fill="none" stroke="midnightblue" d="M259.416,-512.604C282.898,-516.422 310.564,-520.921 334.453,-524.805"/>
<polygon fill="midnightblue" stroke="midnightblue" points="259.724,-509.108 249.292,-510.958 258.6,-516.018 259.724,-509.108"/>
</g>
<!-- Node234&#45;&gt;Node236 -->
<g id="edge4" class="edge"><title>Node234&#45;&gt;Node236</title>
<path fill="none" stroke="midnightblue" d="M259.36,-497.697C276.966,-495.598 296.929,-493.217 315.89,-490.956"/>
<polygon fill="midnightblue" stroke="midnightblue" points="258.807,-494.238 249.292,-498.897 259.636,-501.189 258.807,-494.238"/>
</g>
<!-- Node268&#45;&gt;Node232 -->
<g id="edge10" class="edge"><title>Node268&#45;&gt;Node232</title>
<path fill="none" stroke="midnightblue" d="M276.724,-314C303.375,-314 332.632,-314 354.871,-314"/>
<polygon fill="midnightblue" stroke="midnightblue" points="276.657,-310.5 266.657,-314 276.657,-317.5 276.657,-310.5"/>
</g>
<!-- Node272&#45;&gt;Node232 -->
<g id="edge14" class="edge"><title>Node272&#45;&gt;Node232</title>
<path fill="none" stroke="midnightblue" d="M260.037,-250.353C266.829,-252.353 273.627,-254.575 280,-257 315.228,-270.408 353.847,-291.922 374.973,-304.329"/>
<polygon fill="midnightblue" stroke="midnightblue" points="260.714,-246.908 250.14,-247.582 258.826,-253.649 260.714,-246.908"/>
</g>
<!-- Node272&#45;&gt;Node271 -->
<g id="edge15" class="edge"><title>Node272&#45;&gt;Node271</title>
<path fill="none" stroke="midnightblue" d="M263.495,-232.131C287.317,-229.677 314.831,-226.844 338.19,-224.438"/>
<polygon fill="midnightblue" stroke="midnightblue" points="263.123,-228.65 253.535,-233.156 263.84,-235.613 263.123,-228.65"/>
</g>
</g>
</svg>
