<?xml version="1.0" encoding="UTF-8" standalone="no"?>
<!DOCTYPE svg PUBLIC "-//W3C//DTD SVG 1.1//EN"
 "http://www.w3.org/Graphics/SVG/1.1/DTD/svg11.dtd">
<!-- Generated by graphviz version 2.38.0 (20140413.2041)
 -->
<!-- Title: USBGenericRequest_GetIndex Pages: 1 -->
<svg width="574pt" height="253pt"
 viewBox="0.00 0.00 574.00 252.50" xmlns="http://www.w3.org/2000/svg" xmlns:xlink="http://www.w3.org/1999/xlink">
<g id="graph0" class="graph" transform="scale(1 1) rotate(0) translate(4 248.5)">
<title>USBGenericRequest_GetIndex</title>
<polygon fill="white" stroke="none" points="-4,4 -4,-248.5 570,-248.5 570,4 -4,4"/>
<!-- Node94 -->
<g id="node1" class="node"><title>Node94</title>
<polygon fill="#bfbfbf" stroke="black" points="0,-121 0,-140 161,-140 161,-121 0,-121"/>
<text text-anchor="middle" x="80.5" y="-128" font-family="Helvetica,sans-Serif" font-size="10.00">USBGenericRequest_GetIndex</text>
</g>
<!-- Node95 -->
<g id="node2" class="node"><title>Node95</title>
<g id="a_node2"><a xlink:href="group__usb__audio.xhtml#ga545a0d7559049a5ac86b37a9d47943dc" target="_top" xlink:title="Returns the ID of the unit or terminal targeted by an USB audio request. ">
<polygon fill="white" stroke="red" points="204.5,-225 204.5,-244 367.5,-244 367.5,-225 204.5,-225"/>
<text text-anchor="middle" x="286" y="-232" font-family="Helvetica,sans-Serif" font-size="10.00">AUDGenericRequest_GetEntity</text>
</a>
</g>
</g>
<!-- Node94&#45;&gt;Node95 -->
<g id="edge1" class="edge"><title>Node94&#45;&gt;Node95</title>
<path fill="none" stroke="midnightblue" d="M98.9718,-147.115C120.368,-166.516 158.529,-198.156 197,-215.5 205.549,-219.354 214.925,-222.445 224.27,-224.92"/>
<polygon fill="midnightblue" stroke="midnightblue" points="101.096,-144.313 91.376,-140.098 96.3463,-149.454 101.096,-144.313"/>
</g>
<!-- Node107 -->
<g id="node3" class="node"><title>Node107</title>
<g id="a_node3"><a xlink:href="group__usb__audio.xhtml#ga863624d52f113876d03aff007a9aa513" target="_top" xlink:title="Returns the ID of the interface targeted by an USB audio request. ">
<polygon fill="white" stroke="red" points="197,-187 197,-206 375,-206 375,-187 197,-187"/>
<text text-anchor="middle" x="286" y="-194" font-family="Helvetica,sans-Serif" font-size="10.00">AUDGenericRequest_GetInterface</text>
</a>
</g>
</g>
<!-- Node94&#45;&gt;Node107 -->
<g id="edge2" class="edge"><title>Node94&#45;&gt;Node107</title>
<path fill="none" stroke="midnightblue" d="M111.195,-144.254C134.221,-154.508 167.137,-168.277 197,-177.5 208.648,-181.098 221.368,-184.267 233.425,-186.935"/>
<polygon fill="midnightblue" stroke="midnightblue" points="112.525,-141.015 101.97,-140.099 109.65,-147.397 112.525,-141.015"/>
</g>
<!-- Node108 -->
<g id="node4" class="node"><title>Node108</title>
<g id="a_node4"><a xlink:href="group__usb__request.xhtml#ga59f22fd9b4390d6c080bf95c39d0f8a9" target="_top" xlink:title="Returns the endpoint number targeted by a given request. ">
<polygon fill="white" stroke="red" points="197.5,-137.5 197.5,-167.5 374.5,-167.5 374.5,-137.5 197.5,-137.5"/>
<text text-anchor="start" x="205.5" y="-155.5" font-family="Helvetica,sans-Serif" font-size="10.00">USBGenericRequest_GetEndpoint</text>
<text text-anchor="middle" x="286" y="-144.5" font-family="Helvetica,sans-Serif" font-size="10.00">Number</text>
</a>
</g>
</g>
<!-- Node94&#45;&gt;Node108 -->
<g id="edge3" class="edge"><title>Node94&#45;&gt;Node108</title>
<path fill="none" stroke="midnightblue" d="M171.203,-140.198C179.909,-141.139 188.735,-142.093 197.42,-143.032"/>
<polygon fill="midnightblue" stroke="midnightblue" points="171.371,-136.695 161.053,-139.1 170.619,-143.655 171.371,-136.695"/>
</g>
<!-- Node109 -->
<g id="node5" class="node"><title>Node109</title>
<g id="a_node5"><a xlink:href="group__usbd__interface.xhtml#gaae0893893739fb365d088ea946cb2c89" target="_top" xlink:title="Handles the given request if it is standard, otherwise STALLs it. ">
<polygon fill="white" stroke="red" points="411,-77 411,-96 566,-96 566,-77 411,-77"/>
<text text-anchor="middle" x="488.5" y="-84" font-family="Helvetica,sans-Serif" font-size="10.00">USBDDriver_RequestHandler</text>
</a>
</g>
</g>
<!-- Node94&#45;&gt;Node109 -->
<g id="edge9" class="edge"><title>Node94&#45;&gt;Node109</title>
<path fill="none" stroke="midnightblue" d="M171.607,-120.735C243.357,-112.959 342.696,-102.193 410.707,-94.8224"/>
<polygon fill="midnightblue" stroke="midnightblue" points="170.793,-117.302 161.228,-121.86 171.547,-124.262 170.793,-117.302"/>
</g>
<!-- Node132 -->
<g id="node6" class="node"><title>Node132</title>
<g id="a_node6"><a xlink:href="group__usb__request.xhtml#ga42adc38e0a97eaf355962d6d53a2be97" target="_top" xlink:title="Indicates which interface is targeted by a GET_INTERFACE or SET_INTERFACE request. ">
<polygon fill="white" stroke="black" points="227,-49.5 227,-79.5 345,-79.5 345,-49.5 227,-49.5"/>
<text text-anchor="start" x="235" y="-67.5" font-family="Helvetica,sans-Serif" font-size="10.00">USBInterfaceRequest</text>
<text text-anchor="middle" x="286" y="-56.5" font-family="Helvetica,sans-Serif" font-size="10.00">_GetInterface</text>
</a>
</g>
</g>
<!-- Node94&#45;&gt;Node132 -->
<g id="edge5" class="edge"><title>Node94&#45;&gt;Node132</title>
<path fill="none" stroke="midnightblue" d="M121.018,-117.683C154.625,-106.784 202.937,-91.1149 238.42,-79.6071"/>
<polygon fill="midnightblue" stroke="midnightblue" points="119.523,-114.489 111.091,-120.903 121.683,-121.147 119.523,-114.489"/>
</g>
<!-- Node133 -->
<g id="node7" class="node"><title>Node133</title>
<g id="a_node7"><a xlink:href="group__usb__request.xhtml#ga3cc91f919947b0ecf2359c5e8fdad8b9" target="_top" xlink:title="Indicates the test that the device must undertake following a SET_FEATURE request. ">
<polygon fill="white" stroke="black" points="209.5,-0.5 209.5,-30.5 362.5,-30.5 362.5,-0.5 209.5,-0.5"/>
<text text-anchor="start" x="217.5" y="-18.5" font-family="Helvetica,sans-Serif" font-size="10.00">USBFeatureRequest_GetTest</text>
<text text-anchor="middle" x="286" y="-7.5" font-family="Helvetica,sans-Serif" font-size="10.00">Selector</text>
</a>
</g>
</g>
<!-- Node94&#45;&gt;Node133 -->
<g id="edge7" class="edge"><title>Node94&#45;&gt;Node133</title>
<path fill="none" stroke="midnightblue" d="M98.3709,-113.874C119.659,-93.7672 158.2,-60.1782 197,-40.5 204.507,-36.6925 212.678,-33.39 220.916,-30.5466"/>
<polygon fill="midnightblue" stroke="midnightblue" points="95.8812,-111.412 91.092,-120.863 100.729,-116.462 95.8812,-111.412"/>
</g>
<!-- Node108&#45;&gt;Node109 -->
<g id="edge4" class="edge"><title>Node108&#45;&gt;Node109</title>
<path fill="none" stroke="midnightblue" d="M342.54,-134.218C380.083,-121.859 428.146,-106.038 458.39,-96.0824"/>
<polygon fill="midnightblue" stroke="midnightblue" points="341.152,-130.99 332.747,-137.441 343.34,-137.639 341.152,-130.99"/>
</g>
<!-- Node132&#45;&gt;Node109 -->
<g id="edge6" class="edge"><title>Node132&#45;&gt;Node109</title>
<path fill="none" stroke="midnightblue" d="M355.545,-72.0212C373.335,-73.9732 392.61,-76.0881 410.789,-78.0829"/>
<polygon fill="midnightblue" stroke="midnightblue" points="355.584,-68.5045 345.262,-70.8929 354.821,-75.4628 355.584,-68.5045"/>
</g>
<!-- Node133&#45;&gt;Node109 -->
<g id="edge8" class="edge"><title>Node133&#45;&gt;Node109</title>
<path fill="none" stroke="midnightblue" d="M353.527,-33.5458C360.809,-35.7744 368.085,-38.1123 375,-40.5 407.312,-51.6568 443.78,-67.1141 466.204,-76.9612"/>
<polygon fill="midnightblue" stroke="midnightblue" points="354.208,-30.0965 343.625,-30.58 352.2,-36.8021 354.208,-30.0965"/>
</g>
</g>
</svg>
