<?xml version="1.0" encoding="UTF-8" standalone="no"?>
<!DOCTYPE svg PUBLIC "-//W3C//DTD SVG 1.1//EN"
 "http://www.w3.org/Graphics/SVG/1.1/DTD/svg11.dtd">
<!-- Generated by graphviz version 2.38.0 (20140413.2041)
 -->
<!-- Title: GetConfiguration Pages: 1 -->
<svg width="236pt" height="66pt"
 viewBox="0.00 0.00 236.00 66.00" xmlns="http://www.w3.org/2000/svg" xmlns:xlink="http://www.w3.org/1999/xlink">
<g id="graph0" class="graph" transform="scale(1 1) rotate(0) translate(4 62)">
<title>GetConfiguration</title>
<polygon fill="white" stroke="none" points="-4,4 -4,-62 232,-62 232,4 -4,4"/>
<!-- Node0 -->
<g id="node1" class="node"><title>Node0</title>
<polygon fill="#bfbfbf" stroke="black" points="0,-19.5 0,-38.5 98,-38.5 98,-19.5 0,-19.5"/>
<text text-anchor="middle" x="49" y="-26.5" font-family="Helvetica,sans-Serif" font-size="10.00">GetConfiguration</text>
</g>
<!-- Node1 -->
<g id="node2" class="node"><title>Node1</title>
<g id="a_node2"><a xlink:href="group__usbd__interface.xhtml#ga804bf63efb2d4420a3bf42984e807e72" target="_top" xlink:title="Returns the current state of the USB device. ">
<polygon fill="white" stroke="black" points="134,-38.5 134,-57.5 228,-57.5 228,-38.5 134,-38.5"/>
<text text-anchor="middle" x="181" y="-45.5" font-family="Helvetica,sans-Serif" font-size="10.00">USBD_GetState</text>
</a>
</g>
</g>
<!-- Node0&#45;&gt;Node1 -->
<g id="edge1" class="edge"><title>Node0&#45;&gt;Node1</title>
<path fill="none" stroke="midnightblue" d="M98.0379,-36.0209C106.46,-37.2518 115.29,-38.5424 123.907,-39.8018"/>
<polygon fill="midnightblue" stroke="midnightblue" points="123.487,-43.2775 133.888,-41.2606 124.499,-36.3511 123.487,-43.2775"/>
</g>
<!-- Node2 -->
<g id="node3" class="node"><title>Node2</title>
<g id="a_node3"><a xlink:href="group__usbd__interface.xhtml#gafc4728f4af70056b3a271f333b759592" target="_top" xlink:title="Sends data through a USB endpoint. ">
<polygon fill="white" stroke="red" points="144,-0.5 144,-19.5 218,-19.5 218,-0.5 144,-0.5"/>
<text text-anchor="middle" x="181" y="-7.5" font-family="Helvetica,sans-Serif" font-size="10.00">USBD_Write</text>
</a>
</g>
</g>
<!-- Node0&#45;&gt;Node2 -->
<g id="edge2" class="edge"><title>Node0&#45;&gt;Node2</title>
<path fill="none" stroke="midnightblue" d="M98.0379,-21.9791C109.786,-20.2621 122.328,-18.429 133.979,-16.7262"/>
<polygon fill="midnightblue" stroke="midnightblue" points="134.557,-20.179 143.946,-15.2695 133.544,-13.2525 134.557,-20.179"/>
</g>
</g>
</svg>
