<?xml version="1.0" encoding="UTF-8" standalone="no"?>
<!DOCTYPE svg PUBLIC "-//W3C//DTD SVG 1.1//EN"
 "http://www.w3.org/Graphics/SVG/1.1/DTD/svg11.dtd">
<!-- Generated by graphviz version 2.38.0 (20140413.2041)
 -->
<!-- Title: AUDDFunction_Configure Pages: 1 -->
<svg width="345pt" height="88pt"
 viewBox="0.00 0.00 345.00 88.00" xmlns="http://www.w3.org/2000/svg" xmlns:xlink="http://www.w3.org/1999/xlink">
<g id="graph0" class="graph" transform="scale(1 1) rotate(0) translate(4 84)">
<title>AUDDFunction_Configure</title>
<polygon fill="white" stroke="none" points="-4,4 -4,-84 341,-84 341,4 -4,4"/>
<!-- Node6 -->
<g id="node1" class="node"><title>Node6</title>
<polygon fill="#bfbfbf" stroke="black" points="0,-30 0,-49 137,-49 137,-30 0,-30"/>
<text text-anchor="middle" x="68.5" y="-37" font-family="Helvetica,sans-Serif" font-size="10.00">AUDDFunction_Configure</text>
</g>
<!-- Node7 -->
<g id="node2" class="node"><title>Node7</title>
<g id="a_node2"><a xlink:href="group__usbd__composite__cdcaud.xhtml#gae3b857caf03672721667a11656b023ed" target="_top" xlink:title="Invoked whenever the configuration value of a device is changed by the host. ">
<polygon fill="white" stroke="black" points="173,-49.5 173,-79.5 337,-79.5 337,-49.5 173,-49.5"/>
<text text-anchor="start" x="181" y="-67.5" font-family="Helvetica,sans-Serif" font-size="10.00">CDCAUDDDriver_Configuration</text>
<text text-anchor="middle" x="255" y="-56.5" font-family="Helvetica,sans-Serif" font-size="10.00">ChangedHandler</text>
</a>
</g>
</g>
<!-- Node6&#45;&gt;Node7 -->
<g id="edge1" class="edge"><title>Node6&#45;&gt;Node7</title>
<path fill="none" stroke="midnightblue" d="M147.074,-50.0114C155.608,-51.1677 164.314,-52.3474 172.889,-53.5093"/>
<polygon fill="midnightblue" stroke="midnightblue" points="147.533,-46.5416 137.153,-48.6671 146.593,-53.4783 147.533,-46.5416"/>
</g>
<!-- Node8 -->
<g id="node3" class="node"><title>Node8</title>
<g id="a_node3"><a xlink:href="group__usbd__composite__hidaud.xhtml#ga3964e181a871753372233070c5cb9672" target="_top" xlink:title="Invoked whenever the configuration value of a device is changed by the host. ">
<polygon fill="white" stroke="black" points="174.5,-0.5 174.5,-30.5 335.5,-30.5 335.5,-0.5 174.5,-0.5"/>
<text text-anchor="start" x="182.5" y="-18.5" font-family="Helvetica,sans-Serif" font-size="10.00">HIDAUDDDriver_Configuration</text>
<text text-anchor="middle" x="255" y="-7.5" font-family="Helvetica,sans-Serif" font-size="10.00">ChangedHandler</text>
</a>
</g>
</g>
<!-- Node6&#45;&gt;Node8 -->
<g id="edge2" class="edge"><title>Node6&#45;&gt;Node8</title>
<path fill="none" stroke="midnightblue" d="M147.227,-29.3892C156.237,-28.2171 165.437,-27.0204 174.471,-25.8452"/>
<polygon fill="midnightblue" stroke="midnightblue" points="146.618,-25.9388 137.153,-30.6996 147.521,-32.8803 146.618,-25.9388"/>
</g>
</g>
</svg>
