<?xml version="1.0" encoding="UTF-8" standalone="no"?>
<!DOCTYPE svg PUBLIC "-//W3C//DTD SVG 1.1//EN"
 "http://www.w3.org/Graphics/SVG/1.1/DTD/svg11.dtd">
<!-- Generated by graphviz version 2.38.0 (20140413.2041)
 -->
<!-- Title: CDCMSDDriver_Initialize Pages: 1 -->
<svg width="298pt" height="180pt"
 viewBox="0.00 0.00 298.00 180.00" xmlns="http://www.w3.org/2000/svg" xmlns:xlink="http://www.w3.org/1999/xlink">
<g id="graph0" class="graph" transform="scale(1 1) rotate(0) translate(4 176)">
<title>CDCMSDDriver_Initialize</title>
<polygon fill="white" stroke="none" points="-4,4 -4,-176 294,-176 294,4 -4,4"/>
<!-- Node15 -->
<g id="node1" class="node"><title>Node15</title>
<polygon fill="#bfbfbf" stroke="black" points="0,-76.5 0,-95.5 132,-95.5 132,-76.5 0,-76.5"/>
<text text-anchor="middle" x="66" y="-83.5" font-family="Helvetica,sans-Serif" font-size="10.00">CDCMSDDriver_Initialize</text>
</g>
<!-- Node16 -->
<g id="node2" class="node"><title>Node16</title>
<g id="a_node2"><a xlink:href="group__usbd__interface.xhtml#ga01ba3ff549b968edc152cdb23c2027d1" target="_top" xlink:title="Return USBDDriver instance pointer for global usage. ">
<polygon fill="white" stroke="black" points="181,-152.5 181,-171.5 277,-171.5 277,-152.5 181,-152.5"/>
<text text-anchor="middle" x="229" y="-159.5" font-family="Helvetica,sans-Serif" font-size="10.00">USBD_GetDriver</text>
</a>
</g>
</g>
<!-- Node15&#45;&gt;Node16 -->
<g id="edge1" class="edge"><title>Node15&#45;&gt;Node16</title>
<path fill="none" stroke="midnightblue" d="M81.8932,-95.709C101.163,-107.961 136.058,-129.108 168,-143 173.073,-145.206 178.485,-147.283 183.905,-149.195"/>
<polygon fill="midnightblue" stroke="midnightblue" points="183.003,-152.584 193.597,-152.451 185.233,-145.948 183.003,-152.584"/>
</g>
<!-- Node17 -->
<g id="node3" class="node"><title>Node17</title>
<g id="a_node3"><a xlink:href="group__usbd__interface.xhtml#ga11868145aba27b8ca63ab6395439cb0d" target="_top" xlink:title="Initializes a USBDDriver instance with a list of descriptors. ">
<polygon fill="white" stroke="black" points="170.5,-114.5 170.5,-133.5 287.5,-133.5 287.5,-114.5 170.5,-114.5"/>
<text text-anchor="middle" x="229" y="-121.5" font-family="Helvetica,sans-Serif" font-size="10.00">USBDDriver_Initialize</text>
</a>
</g>
</g>
<!-- Node15&#45;&gt;Node17 -->
<g id="edge2" class="edge"><title>Node15&#45;&gt;Node17</title>
<path fill="none" stroke="midnightblue" d="M107.627,-95.589C128.968,-100.626 155.312,-106.844 177.908,-112.177"/>
<polygon fill="midnightblue" stroke="midnightblue" points="177.128,-115.589 187.665,-114.48 178.736,-108.776 177.128,-115.589"/>
</g>
<!-- Node18 -->
<g id="node4" class="node"><title>Node18</title>
<g id="a_node4"><a xlink:href="group__usbd__cdc.xhtml#ga61ffa29ba9dde8fb06537dec89b665c4" target="_top" xlink:title="Initializes the USB Device CDC serial driver &amp; USBD Driver. ">
<polygon fill="white" stroke="red" points="171,-76.5 171,-95.5 287,-95.5 287,-76.5 171,-76.5"/>
<text text-anchor="middle" x="229" y="-83.5" font-family="Helvetica,sans-Serif" font-size="10.00">CDCDSerial_Initialize</text>
</a>
</g>
</g>
<!-- Node15&#45;&gt;Node18 -->
<g id="edge3" class="edge"><title>Node15&#45;&gt;Node18</title>
<path fill="none" stroke="midnightblue" d="M132.021,-86C141.442,-86 151.157,-86 160.624,-86"/>
<polygon fill="midnightblue" stroke="midnightblue" points="160.773,-89.5001 170.773,-86 160.773,-82.5001 160.773,-89.5001"/>
</g>
<!-- Node24 -->
<g id="node5" class="node"><title>Node24</title>
<g id="a_node5"><a xlink:href="group__usbd__msd.xhtml#ga462b4263f13e5235a2bedceeaece01cb" target="_top" xlink:title="Initializes the MSD driver and the associated USB driver. ">
<polygon fill="white" stroke="red" points="168,-38.5 168,-57.5 290,-57.5 290,-38.5 168,-38.5"/>
<text text-anchor="middle" x="229" y="-45.5" font-family="Helvetica,sans-Serif" font-size="10.00">MSDFunction_Initialize</text>
</a>
</g>
</g>
<!-- Node15&#45;&gt;Node24 -->
<g id="edge4" class="edge"><title>Node15&#45;&gt;Node24</title>
<path fill="none" stroke="midnightblue" d="M107.627,-76.411C128.968,-71.3739 155.312,-65.1562 177.908,-59.8229"/>
<polygon fill="midnightblue" stroke="midnightblue" points="178.736,-63.2237 187.665,-57.5201 177.128,-56.4109 178.736,-63.2237"/>
</g>
<!-- Node26 -->
<g id="node6" class="node"><title>Node26</title>
<g id="a_node6"><a xlink:href="group__usbd__interface.xhtml#ga1fd3982402055e37aa879c199e0b7fee" target="_top" xlink:title="Initializes the USB driver. ">
<polygon fill="white" stroke="red" points="196.5,-0.5 196.5,-19.5 261.5,-19.5 261.5,-0.5 196.5,-0.5"/>
<text text-anchor="middle" x="229" y="-7.5" font-family="Helvetica,sans-Serif" font-size="10.00">USBD_Init</text>
</a>
</g>
</g>
<!-- Node15&#45;&gt;Node26 -->
<g id="edge5" class="edge"><title>Node15&#45;&gt;Node26</title>
<path fill="none" stroke="midnightblue" d="M81.8932,-76.291C101.163,-64.039 136.058,-42.8921 168,-29 173.918,-26.4262 180.299,-24.0287 186.614,-21.8631"/>
<polygon fill="midnightblue" stroke="midnightblue" points="187.992,-25.0949 196.408,-18.6589 185.816,-18.4418 187.992,-25.0949"/>
</g>
</g>
</svg>
