<?xml version="1.0" encoding="UTF-8" standalone="no"?>
<!DOCTYPE svg PUBLIC "-//W3C//DTD SVG 1.1//EN"
 "http://www.w3.org/Graphics/SVG/1.1/DTD/svg11.dtd">
<!-- Generated by graphviz version 2.38.0 (20140413.2041)
 -->
<!-- Title: Usb_msd Pages: 1 -->
<svg width="214pt" height="66pt"
 viewBox="0.00 0.00 214.00 66.00" xmlns="http://www.w3.org/2000/svg" xmlns:xlink="http://www.w3.org/1999/xlink">
<g id="graph0" class="graph" transform="scale(1 1) rotate(0) translate(4 62)">
<title>Usb_msd</title>
<polygon fill="white" stroke="none" points="-4,4 -4,-62 210,-62 210,4 -4,4"/>
<!-- Node0 -->
<g id="node1" class="node"><title>Node0</title>
<polygon fill="#bfbfbf" stroke="black" points="0,-19.5 0,-38.5 62,-38.5 62,-19.5 0,-19.5"/>
<text text-anchor="middle" x="31" y="-26.5" font-family="Helvetica,sans-Serif" font-size="10.00">Usb_msd</text>
</g>
<!-- Node1 -->
<g id="node2" class="node"><title>Node1</title>
<g id="a_node2"><a xlink:href="group__usbd__ms__device__codes.xhtml" target="_top" xlink:title="This page lists the class, subclass &amp; protocol codes used by a device with a Mass Storage driver...">
<polygon fill="white" stroke="black" points="103.5,-38.5 103.5,-57.5 200.5,-57.5 200.5,-38.5 103.5,-38.5"/>
<text text-anchor="middle" x="152" y="-45.5" font-family="Helvetica,sans-Serif" font-size="10.00">MS device codes</text>
</a>
</g>
</g>
<!-- Node0&#45;&gt;Node1 -->
<g id="edge1" class="edge"><title>Node0&#45;&gt;Node1</title>
<path fill="none" stroke="black" d="M72.1306,-35.4074C82.1641,-37.0094 93.0225,-38.7431 103.38,-40.3968"/>
<polygon fill="black" stroke="black" points="72.4555,-31.915 62.0287,-33.7945 71.3518,-38.8275 72.4555,-31.915"/>
</g>
<!-- Node2 -->
<g id="node3" class="node"><title>Node2</title>
<g id="a_node3"><a xlink:href="group__usb__ms__interface__code.xhtml" target="_top" xlink:title="This page lists the available class, subclass &amp; protocol codes for a Mass Storage interface...">
<polygon fill="white" stroke="black" points="98,-0.5 98,-19.5 206,-19.5 206,-0.5 98,-0.5"/>
<text text-anchor="middle" x="152" y="-7.5" font-family="Helvetica,sans-Serif" font-size="10.00">MS interface codes</text>
</a>
</g>
</g>
<!-- Node0&#45;&gt;Node2 -->
<g id="edge2" class="edge"><title>Node0&#45;&gt;Node2</title>
<path fill="none" stroke="black" d="M72.1271,-22.5932C80.3789,-21.2756 89.1888,-19.869 97.8193,-18.491"/>
<polygon fill="black" stroke="black" points="71.3518,-19.1725 62.0287,-24.2055 72.4555,-26.085 71.3518,-19.1725"/>
</g>
</g>
</svg>
