<?xml version="1.0" encoding="UTF-8" standalone="no"?>
<!DOCTYPE svg PUBLIC "-//W3C//DTD SVG 1.1//EN"
 "http://www.w3.org/Graphics/SVG/1.1/DTD/svg11.dtd">
<!-- Generated by graphviz version 2.38.0 (20140413.2041)
 -->
<!-- Title: AUDDSpeakerPhoneDriver_ConfigurationChangeHandler Pages: 1 -->
<svg width="351pt" height="116pt"
 viewBox="0.00 0.00 351.00 116.00" xmlns="http://www.w3.org/2000/svg" xmlns:xlink="http://www.w3.org/1999/xlink">
<g id="graph0" class="graph" transform="scale(1 1) rotate(0) translate(4 112)">
<title>AUDDSpeakerPhoneDriver_ConfigurationChangeHandler</title>
<polygon fill="white" stroke="none" points="-4,4 -4,-112 347,-112 347,4 -4,4"/>
<!-- Node392 -->
<g id="node1" class="node"><title>Node392</title>
<polygon fill="#bfbfbf" stroke="black" points="0,-39 0,-69 160,-69 160,-39 0,-39"/>
<text text-anchor="start" x="8" y="-57" font-family="Helvetica,sans-Serif" font-size="10.00">AUDDSpeakerPhoneDriver</text>
<text text-anchor="middle" x="80" y="-46" font-family="Helvetica,sans-Serif" font-size="10.00">_ConfigurationChangeHandler</text>
</g>
<!-- Node393 -->
<g id="node2" class="node"><title>Node393</title>
<g id="a_node2"><a xlink:href="group__usbd__hal.xhtml#ga946b2d10dfc497b6b24e602be6f3bd05" target="_top" xlink:title="Indicates if the device is running in high or full&#45;speed. ">
<polygon fill="white" stroke="red" points="202,-88.5 202,-107.5 337,-107.5 337,-88.5 202,-88.5"/>
<text text-anchor="middle" x="269.5" y="-95.5" font-family="Helvetica,sans-Serif" font-size="10.00">USBD_HAL_IsHighSpeed</text>
</a>
</g>
</g>
<!-- Node392&#45;&gt;Node393 -->
<g id="edge1" class="edge"><title>Node392&#45;&gt;Node393</title>
<path fill="none" stroke="midnightblue" d="M145.002,-69.0192C168.83,-74.6108 195.518,-80.8735 217.971,-86.1426"/>
<polygon fill="midnightblue" stroke="midnightblue" points="217.429,-89.6103 227.964,-88.4876 219.028,-82.7955 217.429,-89.6103"/>
</g>
<!-- Node395 -->
<g id="node3" class="node"><title>Node395</title>
<g id="a_node3"><a xlink:href="group__usb__descriptor.xhtml#gac720e8b7e3cec002c16397a66f5e03b1" target="_top" xlink:title="Parses the given descriptor list via customized function. ">
<polygon fill="white" stroke="red" points="207.5,-39 207.5,-69 331.5,-69 331.5,-39 207.5,-39"/>
<text text-anchor="start" x="215.5" y="-57" font-family="Helvetica,sans-Serif" font-size="10.00">USBGenericDescriptor</text>
<text text-anchor="middle" x="269.5" y="-46" font-family="Helvetica,sans-Serif" font-size="10.00">_Parse</text>
</a>
</g>
</g>
<!-- Node392&#45;&gt;Node395 -->
<g id="edge2" class="edge"><title>Node392&#45;&gt;Node395</title>
<path fill="none" stroke="midnightblue" d="M160.245,-54C172.582,-54 185.263,-54 197.404,-54"/>
<polygon fill="midnightblue" stroke="midnightblue" points="197.457,-57.5001 207.457,-54 197.457,-50.5001 197.457,-57.5001"/>
</g>
<!-- Node398 -->
<g id="node4" class="node"><title>Node398</title>
<g id="a_node4"><a xlink:href="group__usbd__audio__speakerphone.xhtml#ga45b93243bf2d1901950ba029b579c625" target="_top" xlink:title="Parse descriptors: Interrupt IN, Bulk EP IN/OUT. ">
<polygon fill="white" stroke="black" points="196,-0.5 196,-19.5 343,-19.5 343,-0.5 196,-0.5"/>
<text text-anchor="middle" x="269.5" y="-7.5" font-family="Helvetica,sans-Serif" font-size="10.00">AUDDSpeakerPhone_Parse</text>
</a>
</g>
</g>
<!-- Node392&#45;&gt;Node398 -->
<g id="edge3" class="edge"><title>Node392&#45;&gt;Node398</title>
<path fill="none" stroke="midnightblue" d="M145.002,-38.9808C168.83,-33.3892 195.518,-27.1265 217.971,-21.8574"/>
<polygon fill="midnightblue" stroke="midnightblue" points="219.028,-25.2045 227.964,-19.5124 217.429,-18.3897 219.028,-25.2045"/>
</g>
</g>
</svg>
