<?xml version="1.0" encoding="UTF-8" standalone="no"?>
<!DOCTYPE svg PUBLIC "-//W3C//DTD SVG 1.1//EN"
 "http://www.w3.org/Graphics/SVG/1.1/DTD/svg11.dtd">
<!-- Generated by graphviz version 2.38.0 (20140413.2041)
 -->
<!-- Title: HIDDKeyboardDriver_RequestHandler Pages: 1 -->
<svg width="325pt" height="104pt"
 viewBox="0.00 0.00 325.00 104.00" xmlns="http://www.w3.org/2000/svg" xmlns:xlink="http://www.w3.org/1999/xlink">
<g id="graph0" class="graph" transform="scale(1 1) rotate(0) translate(4 100)">
<title>HIDDKeyboardDriver_RequestHandler</title>
<polygon fill="white" stroke="none" points="-4,4 -4,-100 321,-100 321,4 -4,4"/>
<!-- Node238 -->
<g id="node1" class="node"><title>Node238</title>
<polygon fill="#bfbfbf" stroke="black" points="0,-33 0,-63 114,-63 114,-33 0,-33"/>
<text text-anchor="start" x="8" y="-51" font-family="Helvetica,sans-Serif" font-size="10.00">HIDDKeyboardDriver</text>
<text text-anchor="middle" x="57" y="-40" font-family="Helvetica,sans-Serif" font-size="10.00">_RequestHandler</text>
</g>
<!-- Node239 -->
<g id="node2" class="node"><title>Node239</title>
<g id="a_node2"><a xlink:href="group__usbd__interface.xhtml#ga01ba3ff549b968edc152cdb23c2027d1" target="_top" xlink:title="Return USBDDriver instance pointer for global usage. ">
<polygon fill="white" stroke="black" points="185.5,-76.5 185.5,-95.5 281.5,-95.5 281.5,-76.5 185.5,-76.5"/>
<text text-anchor="middle" x="233.5" y="-83.5" font-family="Helvetica,sans-Serif" font-size="10.00">USBD_GetDriver</text>
</a>
</g>
</g>
<!-- Node238&#45;&gt;Node239 -->
<g id="edge1" class="edge"><title>Node238&#45;&gt;Node239</title>
<path fill="none" stroke="midnightblue" d="M114.173,-60.2326C134.894,-64.7448 158.304,-69.8427 178.8,-74.3061"/>
<polygon fill="midnightblue" stroke="midnightblue" points="178.088,-77.7329 188.604,-76.4409 179.577,-70.8932 178.088,-77.7329"/>
</g>
<!-- Node240 -->
<g id="node3" class="node"><title>Node240</title>
<g id="a_node3"><a xlink:href="group__usbd__hid__key.xhtml#gae283b3485bee22fa5b4baeea5209b570" target="_top" xlink:title="Handles HID&#45;specific SETUP request sent by the host. ">
<polygon fill="white" stroke="red" points="150,-38.5 150,-57.5 317,-57.5 317,-38.5 150,-38.5"/>
<text text-anchor="middle" x="233.5" y="-45.5" font-family="Helvetica,sans-Serif" font-size="10.00">HIDDKeyboard_RequestHandler</text>
</a>
</g>
</g>
<!-- Node238&#45;&gt;Node240 -->
<g id="edge2" class="edge"><title>Node238&#45;&gt;Node240</title>
<path fill="none" stroke="midnightblue" d="M114.173,-48C122.337,-48 130.918,-48 139.574,-48"/>
<polygon fill="midnightblue" stroke="midnightblue" points="139.749,-51.5001 149.749,-48 139.749,-44.5001 139.749,-51.5001"/>
</g>
<!-- Node297 -->
<g id="node4" class="node"><title>Node297</title>
<g id="a_node4"><a xlink:href="group__usbd__interface.xhtml#gaae0893893739fb365d088ea946cb2c89" target="_top" xlink:title="Handles the given request if it is standard, otherwise STALLs it. ">
<polygon fill="white" stroke="red" points="156,-0.5 156,-19.5 311,-19.5 311,-0.5 156,-0.5"/>
<text text-anchor="middle" x="233.5" y="-7.5" font-family="Helvetica,sans-Serif" font-size="10.00">USBDDriver_RequestHandler</text>
</a>
</g>
</g>
<!-- Node238&#45;&gt;Node297 -->
<g id="edge3" class="edge"><title>Node238&#45;&gt;Node297</title>
<path fill="none" stroke="midnightblue" d="M114.173,-35.7674C134.894,-31.2552 158.304,-26.1573 178.8,-21.6939"/>
<polygon fill="midnightblue" stroke="midnightblue" points="179.577,-25.1068 188.604,-19.5591 178.088,-18.2671 179.577,-25.1068"/>
</g>
</g>
</svg>
