<?xml version="1.0" encoding="UTF-8" standalone="no"?>
<!DOCTYPE svg PUBLIC "-//W3C//DTD SVG 1.1//EN"
 "http://www.w3.org/Graphics/SVG/1.1/DTD/svg11.dtd">
<!-- Generated by graphviz version 2.38.0 (20140413.2041)
 -->
<!-- Title: USBH_enumeration_step1 Pages: 1 -->
<svg width="328pt" height="66pt"
 viewBox="0.00 0.00 328.00 66.00" xmlns="http://www.w3.org/2000/svg" xmlns:xlink="http://www.w3.org/1999/xlink">
<g id="graph0" class="graph" transform="scale(1 1) rotate(0) translate(4 62)">
<title>USBH_enumeration_step1</title>
<polygon fill="white" stroke="none" points="-4,4 -4,-62 324,-62 324,4 -4,4"/>
<!-- Node335 -->
<g id="node1" class="node"><title>Node335</title>
<polygon fill="#bfbfbf" stroke="black" points="0,-19.5 0,-38.5 144,-38.5 144,-19.5 0,-19.5"/>
<text text-anchor="middle" x="72" y="-26.5" font-family="Helvetica,sans-Serif" font-size="10.00">USBH_enumeration_step1</text>
</g>
<!-- Node336 -->
<g id="node2" class="node"><title>Node336</title>
<g id="a_node2"><a xlink:href="group___u_s_b_h__group__interne.xhtml#gae55aefd77abf437b7a6af5fde8b6572e" target="_top" xlink:title="Manage a device plug or unplug on the USB tree. ">
<polygon fill="white" stroke="red" points="186,-38.5 186,-57.5 314,-57.5 314,-38.5 186,-38.5"/>
<text text-anchor="middle" x="250" y="-45.5" font-family="Helvetica,sans-Serif" font-size="10.00">USBH_connection_tree</text>
</a>
</g>
</g>
<!-- Node335&#45;&gt;Node336 -->
<g id="edge1" class="edge"><title>Node335&#45;&gt;Node336</title>
<path fill="none" stroke="midnightblue" d="M154.211,-37.7671C164.843,-38.9149 175.608,-40.077 185.88,-41.186"/>
<polygon fill="midnightblue" stroke="midnightblue" points="154.397,-34.2669 144.079,-36.6733 153.645,-41.2264 154.397,-34.2669"/>
</g>
<!-- Node341 -->
<g id="node3" class="node"><title>Node341</title>
<g id="a_node3"><a xlink:href="group___u_s_b_h__group__interne.xhtml#ga2b5b29e1ddaf4c35509ac444fa69a157" target="_top" xlink:title="Manage error during device enumeration. ">
<polygon fill="white" stroke="red" points="180,-0.5 180,-19.5 320,-19.5 320,-0.5 180,-0.5"/>
<text text-anchor="middle" x="250" y="-7.5" font-family="Helvetica,sans-Serif" font-size="10.00">USBH_enumeration_error</text>
</a>
</g>
</g>
<!-- Node335&#45;&gt;Node341 -->
<g id="edge2" class="edge"><title>Node335&#45;&gt;Node341</title>
<path fill="none" stroke="midnightblue" d="M154.141,-20.2405C162.764,-19.3096 171.475,-18.3691 179.941,-17.4552"/>
<polygon fill="midnightblue" stroke="midnightblue" points="153.645,-16.7736 144.079,-21.3267 154.397,-23.7331 153.645,-16.7736"/>
</g>
</g>
</svg>
