<?xml version="1.0" encoding="UTF-8" standalone="no"?>
<!DOCTYPE svg PUBLIC "-//W3C//DTD SVG 1.1//EN"
 "http://www.w3.org/Graphics/SVG/1.1/DTD/svg11.dtd">
<!-- Generated by graphviz version 2.38.0 (20140413.2041)
 -->
<!-- Title: GetInterface Pages: 1 -->
<svg width="194pt" height="66pt"
 viewBox="0.00 0.00 194.00 66.00" xmlns="http://www.w3.org/2000/svg" xmlns:xlink="http://www.w3.org/1999/xlink">
<g id="graph0" class="graph" transform="scale(1 1) rotate(0) translate(4 62)">
<title>GetInterface</title>
<polygon fill="white" stroke="none" points="-4,4 -4,-62 190,-62 190,4 -4,4"/>
<!-- Node220 -->
<g id="node1" class="node"><title>Node220</title>
<polygon fill="#bfbfbf" stroke="black" points="0,-19.5 0,-38.5 76,-38.5 76,-19.5 0,-19.5"/>
<text text-anchor="middle" x="38" y="-26.5" font-family="Helvetica,sans-Serif" font-size="10.00">GetInterface</text>
</g>
<!-- Node221 -->
<g id="node2" class="node"><title>Node221</title>
<g id="a_node2"><a xlink:href="group__usbd__interface.xhtml#gad846cf5a2a002f83abe01d17d233f644" target="_top" xlink:title="Causes the given endpoint to acknowledge the next packet it receives with a STALL handshake...">
<polygon fill="white" stroke="red" points="113.5,-38.5 113.5,-57.5 184.5,-57.5 184.5,-38.5 113.5,-38.5"/>
<text text-anchor="middle" x="149" y="-45.5" font-family="Helvetica,sans-Serif" font-size="10.00">USBD_Stall</text>
</a>
</g>
</g>
<!-- Node220&#45;&gt;Node221 -->
<g id="edge1" class="edge"><title>Node220&#45;&gt;Node221</title>
<path fill="none" stroke="midnightblue" d="M76.2068,-35.4856C84.8997,-37.0009 94.2475,-38.6303 103.231,-40.1962"/>
<polygon fill="midnightblue" stroke="midnightblue" points="102.711,-43.6584 113.164,-41.9277 103.914,-36.7623 102.711,-43.6584"/>
</g>
<!-- Node224 -->
<g id="node3" class="node"><title>Node224</title>
<g id="a_node3"><a xlink:href="group__usbd__interface.xhtml#gafc4728f4af70056b3a271f333b759592" target="_top" xlink:title="Sends data through a USB endpoint. ">
<polygon fill="white" stroke="red" points="112,-0.5 112,-19.5 186,-19.5 186,-0.5 112,-0.5"/>
<text text-anchor="middle" x="149" y="-7.5" font-family="Helvetica,sans-Serif" font-size="10.00">USBD_Write</text>
</a>
</g>
</g>
<!-- Node220&#45;&gt;Node224 -->
<g id="edge2" class="edge"><title>Node220&#45;&gt;Node224</title>
<path fill="none" stroke="midnightblue" d="M76.2068,-22.5144C84.4516,-21.0772 93.2856,-19.5374 101.839,-18.0464"/>
<polygon fill="midnightblue" stroke="midnightblue" points="102.448,-21.4931 111.699,-16.3278 101.246,-14.5971 102.448,-21.4931"/>
</g>
</g>
</svg>
