<?xml version="1.0" encoding="UTF-8" standalone="no"?>
<!DOCTYPE svg PUBLIC "-//W3C//DTD SVG 1.1//EN"
 "http://www.w3.org/Graphics/SVG/1.1/DTD/svg11.dtd">
<!-- Generated by graphviz version 2.38.0 (20140413.2041)
 -->
<!-- Title: GMAC_GetItStatus Pages: 1 -->
<svg width="246pt" height="66pt"
 viewBox="0.00 0.00 246.00 66.00" xmlns="http://www.w3.org/2000/svg" xmlns:xlink="http://www.w3.org/1999/xlink">
<g id="graph0" class="graph" transform="scale(1 1) rotate(0) translate(4 62)">
<title>GMAC_GetItStatus</title>
<polygon fill="white" stroke="none" points="-4,4 -4,-62 242,-62 242,4 -4,4"/>
<!-- Node74 -->
<g id="node1" class="node"><title>Node74</title>
<polygon fill="#bfbfbf" stroke="black" points="0,-19.5 0,-38.5 106,-38.5 106,-19.5 0,-19.5"/>
<text text-anchor="middle" x="53" y="-26.5" font-family="Helvetica,sans-Serif" font-size="10.00">GMAC_GetItStatus</text>
</g>
<!-- Node75 -->
<g id="node2" class="node"><title>Node75</title>
<g id="a_node2"><a xlink:href="group__gmacd__defines.xhtml#ga782194c9b7163c22016beabc6101856c" target="_top" xlink:title="GMAC Interrupt handler. ">
<polygon fill="white" stroke="black" points="142,-38.5 142,-57.5 238,-57.5 238,-38.5 142,-38.5"/>
<text text-anchor="middle" x="190" y="-45.5" font-family="Helvetica,sans-Serif" font-size="10.00">GMACD_Handler</text>
</a>
</g>
</g>
<!-- Node74&#45;&gt;Node75 -->
<g id="edge1" class="edge"><title>Node74&#45;&gt;Node75</title>
<path fill="none" stroke="midnightblue" d="M116.206,-37.755C124.809,-38.9657 133.527,-40.1927 141.797,-41.3566"/>
<polygon fill="midnightblue" stroke="midnightblue" points="116.585,-34.2738 106.195,-36.3459 115.609,-41.2055 116.585,-34.2738"/>
</g>
<!-- Node76 -->
<g id="node3" class="node"><title>Node76</title>
<g id="a_node3"><a xlink:href="group__gmacd__defines.xhtml#ga8706caf686e1d073851111db1ba2663c" target="_top" xlink:title="Initialize the GMAC with the Gmac controller address. ">
<polygon fill="white" stroke="black" points="153.5,-0.5 153.5,-19.5 226.5,-19.5 226.5,-0.5 153.5,-0.5"/>
<text text-anchor="middle" x="190" y="-7.5" font-family="Helvetica,sans-Serif" font-size="10.00">GMACD_Init</text>
</a>
</g>
</g>
<!-- Node74&#45;&gt;Node76 -->
<g id="edge2" class="edge"><title>Node74&#45;&gt;Node76</title>
<path fill="none" stroke="midnightblue" d="M116.27,-20.236C128.943,-18.4524 141.863,-16.6341 153.229,-15.0344"/>
<polygon fill="midnightblue" stroke="midnightblue" points="115.609,-16.7945 106.195,-21.6541 116.585,-23.7262 115.609,-16.7945"/>
</g>
</g>
</svg>
