<?xml version="1.0" encoding="UTF-8" standalone="no"?>
<!DOCTYPE svg PUBLIC "-//W3C//DTD SVG 1.1//EN"
 "http://www.w3.org/Graphics/SVG/1.1/DTD/svg11.dtd">
<!-- Generated by graphviz version 2.38.0 (20140413.2041)
 -->
<!-- Title: HIDDKeyboard_Initialize Pages: 1 -->
<svg width="308pt" height="154pt"
 viewBox="0.00 0.00 308.00 153.50" xmlns="http://www.w3.org/2000/svg" xmlns:xlink="http://www.w3.org/1999/xlink">
<g id="graph0" class="graph" transform="scale(1 1) rotate(0) translate(4 149.5)">
<title>HIDDKeyboard_Initialize</title>
<polygon fill="white" stroke="none" points="-4,4 -4,-149.5 304,-149.5 304,4 -4,4"/>
<!-- Node62 -->
<g id="node1" class="node"><title>Node62</title>
<polygon fill="#bfbfbf" stroke="black" points="0,-69 0,-88 129,-88 129,-69 0,-69"/>
<text text-anchor="middle" x="64.5" y="-76" font-family="Helvetica,sans-Serif" font-size="10.00">HIDDKeyboard_Initialize</text>
</g>
<!-- Node63 -->
<g id="node2" class="node"><title>Node63</title>
<g id="a_node2"><a xlink:href="group__usbd__composite__cdchid.xhtml#ga694d3e24a8bf7913671fb0d9a777b1eb" target="_top" xlink:title="Initializes the USB device composite device driver. ">
<polygon fill="white" stroke="black" points="165.5,-126 165.5,-145 299.5,-145 299.5,-126 165.5,-126"/>
<text text-anchor="middle" x="232.5" y="-133" font-family="Helvetica,sans-Serif" font-size="10.00">CDCHIDDDriver_Initialize</text>
</a>
</g>
</g>
<!-- Node62&#45;&gt;Node63 -->
<g id="edge1" class="edge"><title>Node62&#45;&gt;Node63</title>
<path fill="none" stroke="midnightblue" d="M98.5283,-91.9372C117.773,-99.559 142.591,-109.035 165,-116.5 174.911,-119.801 185.766,-123.053 195.778,-125.908"/>
<polygon fill="midnightblue" stroke="midnightblue" points="99.6001,-88.5966 89.0151,-88.141 97.0057,-95.0981 99.6001,-88.5966"/>
</g>
<!-- Node64 -->
<g id="node3" class="node"><title>Node64</title>
<g id="a_node3"><a xlink:href="group__usbd__composite__hidaud.xhtml#ga93b5b87d0366b013bdbc2af9a1793e7e" target="_top" xlink:title="Initializes the USB device composite device driver. ">
<polygon fill="white" stroke="black" points="165,-88 165,-107 300,-107 300,-88 165,-88"/>
<text text-anchor="middle" x="232.5" y="-95" font-family="Helvetica,sans-Serif" font-size="10.00">HIDAUDDDriver_Initialize</text>
</a>
</g>
</g>
<!-- Node62&#45;&gt;Node64 -->
<g id="edge2" class="edge"><title>Node62&#45;&gt;Node64</title>
<path fill="none" stroke="midnightblue" d="M139.186,-86.9339C147.76,-87.9153 156.468,-88.912 164.938,-89.8815"/>
<polygon fill="midnightblue" stroke="midnightblue" points="139.538,-83.4515 129.205,-85.7916 138.742,-90.4061 139.538,-83.4515"/>
</g>
<!-- Node65 -->
<g id="node4" class="node"><title>Node65</title>
<g id="a_node4"><a xlink:href="group__usbd__composite__hidmsd.xhtml#ga353527333aa384f7ffaa105ace23fcad" target="_top" xlink:title="Initializes the USB device HIDMSD device driver. ">
<polygon fill="white" stroke="black" points="168.5,-50 168.5,-69 296.5,-69 296.5,-50 168.5,-50"/>
<text text-anchor="middle" x="232.5" y="-57" font-family="Helvetica,sans-Serif" font-size="10.00">HIDMSDDriver_Initialize</text>
</a>
</g>
</g>
<!-- Node62&#45;&gt;Node65 -->
<g id="edge3" class="edge"><title>Node62&#45;&gt;Node65</title>
<path fill="none" stroke="midnightblue" d="M139.212,-70.0631C148.896,-68.9547 158.75,-67.8268 168.239,-66.7407"/>
<polygon fill="midnightblue" stroke="midnightblue" points="138.742,-66.5939 129.205,-71.2084 139.538,-73.5485 138.742,-66.5939"/>
</g>
<!-- Node66 -->
<g id="node5" class="node"><title>Node66</title>
<g id="a_node5"><a xlink:href="group__usbd__hid__key.xhtml#ga1f58303d60b968bd70c374dfa106df45" target="_top" xlink:title="Initializes the HID keyboard device driver. ">
<polygon fill="white" stroke="black" points="175.5,-0.5 175.5,-30.5 289.5,-30.5 289.5,-0.5 175.5,-0.5"/>
<text text-anchor="start" x="183.5" y="-18.5" font-family="Helvetica,sans-Serif" font-size="10.00">HIDDKeyboardDriver</text>
<text text-anchor="middle" x="232.5" y="-7.5" font-family="Helvetica,sans-Serif" font-size="10.00">_Initialize</text>
</a>
</g>
</g>
<!-- Node62&#45;&gt;Node66 -->
<g id="edge4" class="edge"><title>Node62&#45;&gt;Node66</title>
<path fill="none" stroke="midnightblue" d="M99.9367,-65.2976C119.087,-57.9686 143.355,-48.7019 165,-40.5 173.535,-37.2659 182.692,-33.8126 191.399,-30.537"/>
<polygon fill="midnightblue" stroke="midnightblue" points="98.5172,-62.0933 90.4299,-68.9377 101.02,-68.6305 98.5172,-62.0933"/>
</g>
</g>
</svg>
