<?xml version="1.0" encoding="UTF-8" standalone="no"?>
<!DOCTYPE svg PUBLIC "-//W3C//DTD SVG 1.1//EN"
 "http://www.w3.org/Graphics/SVG/1.1/DTD/svg11.dtd">
<!-- Generated by graphviz version 2.38.0 (20140413.2041)
 -->
<!-- Title: USBH_enumeration_step14 Pages: 1 -->
<svg width="714pt" height="128pt"
 viewBox="0.00 0.00 714.00 128.27" xmlns="http://www.w3.org/2000/svg" xmlns:xlink="http://www.w3.org/1999/xlink">
<g id="graph0" class="graph" transform="scale(1 1) rotate(0) translate(4 124.267)">
<title>USBH_enumeration_step14</title>
<polygon fill="white" stroke="none" points="-4,4 -4,-124.267 710,-124.267 710,4 -4,4"/>
<!-- Node660 -->
<g id="node1" class="node"><title>Node660</title>
<polygon fill="#bfbfbf" stroke="black" points="0,-48.7674 0,-67.7674 150,-67.7674 150,-48.7674 0,-48.7674"/>
<text text-anchor="middle" x="75" y="-55.7674" font-family="Helvetica,sans-Serif" font-size="10.00">USBH_enumeration_step14</text>
</g>
<!-- Node661 -->
<g id="node2" class="node"><title>Node661</title>
<g id="a_node2"><a xlink:href="group___u_s_b_h__group__interne.xhtml#ga2b5b29e1ddaf4c35509ac444fa69a157" target="_top" xlink:title="Manage error during device enumeration. ">
<polygon fill="white" stroke="red" points="372,-76.7674 372,-95.7674 512,-95.7674 512,-76.7674 372,-76.7674"/>
<text text-anchor="middle" x="442" y="-83.7674" font-family="Helvetica,sans-Serif" font-size="10.00">USBH_enumeration_error</text>
</a>
</g>
</g>
<!-- Node660&#45;&gt;Node661 -->
<g id="edge1" class="edge"><title>Node660&#45;&gt;Node661</title>
<path fill="none" stroke="midnightblue" d="M122.911,-67.8148C142.35,-71.3937 165.181,-75.1121 186,-77.2674 244.64,-83.3382 311.224,-85.5294 361.646,-86.234"/>
<polygon fill="midnightblue" stroke="midnightblue" points="361.786,-89.7359 371.829,-86.3593 361.873,-82.7365 361.786,-89.7359"/>
</g>
<!-- Node662 -->
<g id="node3" class="node"><title>Node662</title>
<g id="a_node3"><a xlink:href="group__uhd__group.xhtml#ga83779ae5393f2318b1eb0856f583b637" target="_top" xlink:title="Disables an endpoint or all endpoint of a device. ">
<polygon fill="white" stroke="red" points="569,-100.767 569,-119.767 685,-119.767 685,-100.767 569,-100.767"/>
<text text-anchor="middle" x="627" y="-107.767" font-family="Helvetica,sans-Serif" font-size="10.00">USBH_HAL_FreePipe</text>
</a>
</g>
</g>
<!-- Node660&#45;&gt;Node662 -->
<g id="edge4" class="edge"><title>Node660&#45;&gt;Node662</title>
<path fill="none" stroke="midnightblue" d="M98.689,-67.9202C120.597,-76.7523 154.931,-89.3214 186,-95.2674 316.162,-120.178 471.845,-118.226 558.772,-114.372"/>
<polygon fill="midnightblue" stroke="midnightblue" points="558.941,-117.868 568.768,-113.907 558.616,-110.876 558.941,-117.868"/>
</g>
<!-- Node713 -->
<g id="node4" class="node"><title>Node713</title>
<g id="a_node4"><a xlink:href="group___u_s_b_h__group__interne.xhtml#ga85036d02a8ba359ad946070bbc8a4080" target="_top" xlink:title="Enters a specific device in USB suspend mode Suspend the USB line or a port on USB hub...">
<polygon fill="white" stroke="red" points="548,-29.7674 548,-48.7674 706,-48.7674 706,-29.7674 548,-29.7674"/>
<text text-anchor="middle" x="627" y="-36.7674" font-family="Helvetica,sans-Serif" font-size="10.00">USBH_enumeration_suspend</text>
</a>
</g>
</g>
<!-- Node660&#45;&gt;Node713 -->
<g id="edge5" class="edge"><title>Node660&#45;&gt;Node713</title>
<path fill="none" stroke="midnightblue" d="M103.213,-48.7201C125.255,-41.385 157.259,-31.6297 186,-26.2674 328.603,0.338452 368.06,7.75368 512,-10.2674 537.365,-13.4432 565.181,-20.4468 586.987,-26.7757"/>
<polygon fill="midnightblue" stroke="midnightblue" points="586.278,-30.2164 596.861,-29.7139 588.274,-23.5071 586.278,-30.2164"/>
</g>
<!-- Node704 -->
<g id="node5" class="node"><title>Node704</title>
<g id="a_node5"><a xlink:href="group__uhd__group.xhtml#ga11038bdbac3a23c70a7b7f5abcecc8ba" target="_top" xlink:title="Add a setup request in the control endpoint setup queue. ">
<polygon fill="white" stroke="red" points="381.5,-19.7674 381.5,-38.7674 502.5,-38.7674 502.5,-19.7674 381.5,-19.7674"/>
<text text-anchor="middle" x="442" y="-26.7674" font-family="Helvetica,sans-Serif" font-size="10.00">USBH_HAL_SetupReq</text>
</a>
</g>
</g>
<!-- Node660&#45;&gt;Node704 -->
<g id="edge6" class="edge"><title>Node660&#45;&gt;Node704</title>
<path fill="none" stroke="midnightblue" d="M122.915,-48.761C142.355,-45.1883 165.185,-41.4635 186,-39.2674 248.346,-32.6895 319.678,-30.3282 371.014,-29.5317"/>
<polygon fill="midnightblue" stroke="midnightblue" points="371.379,-33.0271 381.33,-29.3885 371.282,-26.0277 371.379,-33.0271"/>
</g>
<!-- Node714 -->
<g id="node6" class="node"><title>Node714</title>
<g id="a_node6"><a xlink:href="group___u_s_b_h__group__interne.xhtml#ga68f29658cb41fc38bbe5461cfc253812" target="_top" xlink:title="Device enumeration step 15 Enables UHI interfaces. ">
<polygon fill="white" stroke="black" points="186,-48.7674 186,-67.7674 336,-67.7674 336,-48.7674 186,-48.7674"/>
<text text-anchor="middle" x="261" y="-55.7674" font-family="Helvetica,sans-Serif" font-size="10.00">USBH_enumeration_step15</text>
</a>
</g>
</g>
<!-- Node660&#45;&gt;Node714 -->
<g id="edge7" class="edge"><title>Node660&#45;&gt;Node714</title>
<path fill="none" stroke="midnightblue" d="M150.044,-58.2674C158.514,-58.2674 167.195,-58.2674 175.784,-58.2674"/>
<polygon fill="midnightblue" stroke="midnightblue" points="175.808,-61.7675 185.808,-58.2674 175.807,-54.7675 175.808,-61.7675"/>
</g>
<!-- Node661&#45;&gt;Node662 -->
<g id="edge2" class="edge"><title>Node661&#45;&gt;Node662</title>
<path fill="none" stroke="midnightblue" d="M512.184,-95.3408C527.398,-97.3361 543.489,-99.4463 558.63,-101.432"/>
<polygon fill="midnightblue" stroke="midnightblue" points="558.568,-104.954 568.938,-102.784 559.479,-98.0133 558.568,-104.954"/>
</g>
<!-- Node661&#45;&gt;Node713 -->
<g id="edge3" class="edge"><title>Node661&#45;&gt;Node713</title>
<path fill="none" stroke="midnightblue" d="M480.033,-76.7563C508.464,-69.4543 547.926,-59.3191 578.652,-51.4278"/>
<polygon fill="midnightblue" stroke="midnightblue" points="579.894,-54.7226 588.709,-48.845 578.152,-47.9427 579.894,-54.7226"/>
</g>
<!-- Node714&#45;&gt;Node661 -->
<g id="edge8" class="edge"><title>Node714&#45;&gt;Node661</title>
<path fill="none" stroke="midnightblue" d="M322.851,-67.786C337.983,-70.153 354.336,-72.711 369.911,-75.1474"/>
<polygon fill="midnightblue" stroke="midnightblue" points="369.592,-78.64 380.013,-76.7276 370.674,-71.7241 369.592,-78.64"/>
</g>
<!-- Node714&#45;&gt;Node704 -->
<g id="edge9" class="edge"><title>Node714&#45;&gt;Node704</title>
<path fill="none" stroke="midnightblue" d="M321.107,-48.6914C337.383,-46.0545 355.181,-43.1711 371.964,-40.4521"/>
<polygon fill="midnightblue" stroke="midnightblue" points="372.948,-43.8383 382.26,-38.784 371.829,-36.9284 372.948,-43.8383"/>
</g>
</g>
</svg>
