<?xml version="1.0" encoding="UTF-8" standalone="no"?>
<!DOCTYPE svg PUBLIC "-//W3C//DTD SVG 1.1//EN"
 "http://www.w3.org/Graphics/SVG/1.1/DTD/svg11.dtd">
<!-- Generated by graphviz version 2.38.0 (20140413.2041)
 -->
<!-- Title: SAME70J20 definitions Pages: 1 -->
<svg width="316pt" height="230pt"
 viewBox="0.00 0.00 316.00 230.00" xmlns="http://www.w3.org/2000/svg" xmlns:xlink="http://www.w3.org/1999/xlink">
<g id="graph0" class="graph" transform="scale(1 1) rotate(0) translate(4 226)">
<title>SAME70J20 definitions</title>
<polygon fill="white" stroke="none" points="-4,4 -4,-226 312,-226 312,4 -4,4"/>
<!-- Node0 -->
<g id="node1" class="node"><title>Node0</title>
<polygon fill="#bfbfbf" stroke="black" points="0,-107.5 0,-126.5 122,-126.5 122,-107.5 0,-107.5"/>
<text text-anchor="middle" x="61" y="-114.5" font-family="Helvetica,sans-Serif" font-size="10.00">SAME70J20 definitions</text>
</g>
<!-- Node6 -->
<g id="node2" class="node"><title>Node6</title>
<g id="a_node2"><a xlink:href="group___s_a_m_e70_j20__pio.xhtml" target="_top" xlink:title="Peripheral Pio Definitions">
<polygon fill="white" stroke="black" points="165.5,-202.5 165.5,-221.5 300.5,-221.5 300.5,-202.5 165.5,-202.5"/>
<text text-anchor="middle" x="233" y="-209.5" font-family="Helvetica,sans-Serif" font-size="10.00">Peripheral Pio Definitions</text>
</a>
</g>
</g>
<!-- Node0&#45;&gt;Node6 -->
<g id="edge6" class="edge"><title>Node0&#45;&gt;Node6</title>
<path fill="none" stroke="black" d="M78.7919,-133.973C96.8401,-151.274 127.119,-177.681 158,-193 165.724,-196.831 174.296,-199.942 182.787,-202.451"/>
<polygon fill="black" stroke="black" points="80.9958,-131.233 71.4019,-126.737 76.0985,-136.234 80.9958,-131.233"/>
</g>
<!-- Node4 -->
<g id="node3" class="node"><title>Node4</title>
<g id="a_node3"><a xlink:href="group___s_a_m_e70_j20__id.xhtml" target="_top" xlink:title="Peripheral Ids Definitions">
<polygon fill="white" stroke="black" points="166,-164.5 166,-183.5 300,-183.5 300,-164.5 166,-164.5"/>
<text text-anchor="middle" x="233" y="-171.5" font-family="Helvetica,sans-Serif" font-size="10.00">Peripheral Ids Definitions</text>
</a>
</g>
</g>
<!-- Node0&#45;&gt;Node4 -->
<g id="edge4" class="edge"><title>Node0&#45;&gt;Node4</title>
<path fill="none" stroke="black" d="M93.2681,-130.531C111.862,-138.286 136.035,-147.864 158,-155 168.597,-158.443 180.206,-161.672 191.024,-164.457"/>
<polygon fill="black" stroke="black" points="94.4027,-127.211 83.8284,-126.551 91.6833,-133.661 94.4027,-127.211"/>
</g>
<!-- Node2 -->
<g id="node4" class="node"><title>Node2</title>
<g id="a_node4"><a xlink:href="group___s_a_m_e70_j20__api.xhtml" target="_top" xlink:title="SOFTWARE PERIPHERAL API DEFINITION FOR SAME70J20. ">
<polygon fill="white" stroke="black" points="169,-126.5 169,-145.5 297,-145.5 297,-126.5 169,-126.5"/>
<text text-anchor="middle" x="233" y="-133.5" font-family="Helvetica,sans-Serif" font-size="10.00">Peripheral Software API</text>
</a>
</g>
</g>
<!-- Node0&#45;&gt;Node2 -->
<g id="edge2" class="edge"><title>Node0&#45;&gt;Node2</title>
<path fill="none" stroke="black" d="M132.45,-124.874C144.536,-126.225 157.027,-127.621 168.906,-128.948"/>
<polygon fill="black" stroke="black" points="132.741,-121.385 122.414,-123.752 131.964,-128.341 132.741,-121.385"/>
</g>
<!-- Node3 -->
<g id="node5" class="node"><title>Node3</title>
<g id="a_node5"><a xlink:href="group___s_a_m_e70_j20__reg.xhtml" target="_top" xlink:title="Registers Access Definitions">
<polygon fill="white" stroke="black" points="158,-88.5 158,-107.5 308,-107.5 308,-88.5 158,-88.5"/>
<text text-anchor="middle" x="233" y="-95.5" font-family="Helvetica,sans-Serif" font-size="10.00">Registers Access Definitions</text>
</a>
</g>
</g>
<!-- Node0&#45;&gt;Node3 -->
<g id="edge3" class="edge"><title>Node0&#45;&gt;Node3</title>
<path fill="none" stroke="black" d="M132.486,-109.122C140.84,-108.188 149.387,-107.233 157.791,-106.294"/>
<polygon fill="black" stroke="black" points="131.964,-105.659 122.414,-110.248 132.741,-112.615 131.964,-105.659"/>
</g>
<!-- Node5 -->
<g id="node6" class="node"><title>Node5</title>
<g id="a_node6"><a xlink:href="group___s_a_m_e70_j20__base.xhtml" target="_top" xlink:title="Peripheral Base Address\l Definitions">
<polygon fill="white" stroke="black" points="166,-39 166,-69 300,-69 300,-39 166,-39"/>
<text text-anchor="start" x="174" y="-57" font-family="Helvetica,sans-Serif" font-size="10.00">Peripheral Base Address</text>
<text text-anchor="middle" x="233" y="-46" font-family="Helvetica,sans-Serif" font-size="10.00"> Definitions</text>
</a>
</g>
</g>
<!-- Node0&#45;&gt;Node5 -->
<g id="edge5" class="edge"><title>Node0&#45;&gt;Node5</title>
<path fill="none" stroke="black" d="M94.5876,-103.622C113.095,-96.1446 136.744,-86.7917 158,-79 167.04,-75.6863 176.757,-72.2877 186.081,-69.1062"/>
<polygon fill="black" stroke="black" points="93.1009,-100.448 85.1511,-107.451 95.7333,-106.934 93.1009,-100.448"/>
</g>
<!-- Node1 -->
<g id="node7" class="node"><title>Node1</title>
<g id="a_node7"><a xlink:href="group___s_a_m_e70_j20__cmsis.xhtml" target="_top" xlink:title="CMSIS Definitions">
<polygon fill="white" stroke="black" points="182.5,-0.5 182.5,-19.5 283.5,-19.5 283.5,-0.5 182.5,-0.5"/>
<text text-anchor="middle" x="233" y="-7.5" font-family="Helvetica,sans-Serif" font-size="10.00">CMSIS Definitions</text>
</a>
</g>
</g>
<!-- Node0&#45;&gt;Node1 -->
<g id="edge1" class="edge"><title>Node0&#45;&gt;Node1</title>
<path fill="none" stroke="black" d="M76.4776,-99.6502C93.859,-79.9252 124.84,-48.1199 158,-30 165.824,-25.7243 174.622,-22.3168 183.347,-19.6158"/>
<polygon fill="black" stroke="black" points="73.7714,-97.4291 69.8944,-107.289 79.074,-101.999 73.7714,-97.4291"/>
</g>
</g>
</svg>
