<?xml version="1.0" encoding="UTF-8" standalone="no"?>
<!DOCTYPE svg PUBLIC "-//W3C//DTD SVG 1.1//EN"
 "http://www.w3.org/Graphics/SVG/1.1/DTD/svg11.dtd">
<!-- Generated by graphviz version 2.38.0 (20140413.2041)
 -->
<!-- Title: USBConfigurationDescriptor_GetTotalLength Pages: 1 -->
<svg width="346pt" height="78pt"
 viewBox="0.00 0.00 346.00 77.50" xmlns="http://www.w3.org/2000/svg" xmlns:xlink="http://www.w3.org/1999/xlink">
<g id="graph0" class="graph" transform="scale(1 1) rotate(0) translate(4 73.5)">
<title>USBConfigurationDescriptor_GetTotalLength</title>
<polygon fill="white" stroke="none" points="-4,4 -4,-73.5 342,-73.5 342,4 -4,4"/>
<!-- Node3 -->
<g id="node1" class="node"><title>Node3</title>
<polygon fill="#bfbfbf" stroke="black" points="0,-17 0,-47 151,-47 151,-17 0,-17"/>
<text text-anchor="start" x="8" y="-35" font-family="Helvetica,sans-Serif" font-size="10.00">USBConfigurationDescriptor</text>
<text text-anchor="middle" x="75.5" y="-24" font-family="Helvetica,sans-Serif" font-size="10.00">_GetTotalLength</text>
</g>
<!-- Node4 -->
<g id="node2" class="node"><title>Node4</title>
<g id="a_node2"><a xlink:href="group__usb__descriptor.xhtml#gab2cf48af0ca19522832310e3eed00490" target="_top" xlink:title="Parses the given Configuration descriptor (followed by relevant interface, endpoint and class&#45;specifi...">
<polygon fill="white" stroke="red" points="187,-39 187,-69 338,-69 338,-39 187,-39"/>
<text text-anchor="start" x="195" y="-57" font-family="Helvetica,sans-Serif" font-size="10.00">USBConfigurationDescriptor</text>
<text text-anchor="middle" x="262.5" y="-46" font-family="Helvetica,sans-Serif" font-size="10.00">_Parse</text>
</a>
</g>
</g>
<!-- Node3&#45;&gt;Node4 -->
<g id="edge1" class="edge"><title>Node3&#45;&gt;Node4</title>
<path fill="none" stroke="midnightblue" d="M161.19,-42.0712C169.738,-43.0877 178.376,-44.115 186.809,-45.1178"/>
<polygon fill="midnightblue" stroke="midnightblue" points="161.557,-38.5903 151.213,-40.8848 160.73,-45.5413 161.557,-38.5903"/>
</g>
<!-- Node32 -->
<g id="node3" class="node"><title>Node32</title>
<g id="a_node3"><a xlink:href="group__usbd__interface.xhtml#gadbb4c8a840d3ff539be6fa5fa9f4a4e0" target="_top" xlink:title="Sends the requested USB descriptor to the host if available, or STALLs the request. ">
<polygon fill="white" stroke="red" points="221,-0.5 221,-19.5 304,-19.5 304,-0.5 221,-0.5"/>
<text text-anchor="middle" x="262.5" y="-7.5" font-family="Helvetica,sans-Serif" font-size="10.00">GetDescriptor</text>
</a>
</g>
</g>
<!-- Node3&#45;&gt;Node32 -->
<g id="edge2" class="edge"><title>Node3&#45;&gt;Node32</title>
<path fill="none" stroke="midnightblue" d="M161.318,-21.9135C182.024,-19.4512 203.247,-16.9274 220.798,-14.8402"/>
<polygon fill="midnightblue" stroke="midnightblue" points="160.73,-18.4587 151.213,-23.1152 161.557,-25.4097 160.73,-18.4587"/>
</g>
</g>
</svg>
