<?xml version="1.0" encoding="UTF-8" standalone="no"?>
<!DOCTYPE svg PUBLIC "-//W3C//DTD SVG 1.1//EN"
 "http://www.w3.org/Graphics/SVG/1.1/DTD/svg11.dtd">
<!-- Generated by graphviz version 2.38.0 (20140413.2041)
 -->
<!-- Title: UDP_WritePayload Pages: 1 -->
<svg width="269pt" height="66pt"
 viewBox="0.00 0.00 269.00 66.00" xmlns="http://www.w3.org/2000/svg" xmlns:xlink="http://www.w3.org/1999/xlink">
<g id="graph0" class="graph" transform="scale(1 1) rotate(0) translate(4 62)">
<title>UDP_WritePayload</title>
<polygon fill="white" stroke="none" points="-4,4 -4,-62 265,-62 265,4 -4,4"/>
<!-- Node296 -->
<g id="node1" class="node"><title>Node296</title>
<polygon fill="#bfbfbf" stroke="black" points="0,-19.5 0,-38.5 103,-38.5 103,-19.5 0,-19.5"/>
<text text-anchor="middle" x="51.5" y="-26.5" font-family="Helvetica,sans-Serif" font-size="10.00">UDP_WritePayload</text>
</g>
<!-- Node297 -->
<g id="node2" class="node"><title>Node297</title>
<g id="a_node2"><a xlink:href="group__usbd__hal.xhtml#gafa6295dfe0e4e2eaaec7818940d64b18" target="_top" xlink:title="Endpoint interrupt handler. ">
<polygon fill="white" stroke="red" points="139,-38.5 139,-57.5 261,-57.5 261,-38.5 139,-38.5"/>
<text text-anchor="middle" x="200" y="-45.5" font-family="Helvetica,sans-Serif" font-size="10.00">UDP_EndpointHandler</text>
</a>
</g>
</g>
<!-- Node296&#45;&gt;Node297 -->
<g id="edge1" class="edge"><title>Node296&#45;&gt;Node297</title>
<path fill="none" stroke="midnightblue" d="M113.462,-36.9063C121.887,-37.999 130.535,-39.1206 138.943,-40.211"/>
<polygon fill="midnightblue" stroke="midnightblue" points="113.695,-33.4073 103.327,-35.592 112.794,-40.3491 113.695,-33.4073"/>
</g>
<!-- Node300 -->
<g id="node3" class="node"><title>Node300</title>
<g id="a_node3"><a xlink:href="group__usbd__hal.xhtml#ga7517d633d0a994384241035fc72268d1" target="_top" xlink:title="Sends data through a USB endpoint. ">
<polygon fill="white" stroke="red" points="167,-0.5 167,-19.5 233,-19.5 233,-0.5 167,-0.5"/>
<text text-anchor="middle" x="200" y="-7.5" font-family="Helvetica,sans-Serif" font-size="10.00">UDP_Write</text>
</a>
</g>
</g>
<!-- Node296&#45;&gt;Node300 -->
<g id="edge2" class="edge"><title>Node296&#45;&gt;Node300</title>
<path fill="none" stroke="midnightblue" d="M113.336,-21.11C131.602,-18.741 150.929,-16.2344 166.593,-14.2029"/>
<polygon fill="midnightblue" stroke="midnightblue" points="112.794,-17.6509 103.327,-22.408 113.695,-24.5927 112.794,-17.6509"/>
</g>
</g>
</svg>
