<?xml version="1.0" encoding="UTF-8" standalone="no"?>
<!DOCTYPE svg PUBLIC "-//W3C//DTD SVG 1.1//EN"
 "http://www.w3.org/Graphics/SVG/1.1/DTD/svg11.dtd">
<!-- Generated by graphviz version 2.38.0 (20140413.2041)
 -->
<!-- Title: USBGenericDescriptor_GetNextDescriptor Pages: 1 -->
<svg width="319pt" height="88pt"
 viewBox="0.00 0.00 319.00 88.00" xmlns="http://www.w3.org/2000/svg" xmlns:xlink="http://www.w3.org/1999/xlink">
<g id="graph0" class="graph" transform="scale(1 1) rotate(0) translate(4 84)">
<title>USBGenericDescriptor_GetNextDescriptor</title>
<polygon fill="white" stroke="none" points="-4,4 -4,-84 315,-84 315,4 -4,4"/>
<!-- Node311 -->
<g id="node1" class="node"><title>Node311</title>
<polygon fill="#bfbfbf" stroke="black" points="0,-24.5 0,-54.5 124,-54.5 124,-24.5 0,-24.5"/>
<text text-anchor="start" x="8" y="-42.5" font-family="Helvetica,sans-Serif" font-size="10.00">USBGenericDescriptor</text>
<text text-anchor="middle" x="62" y="-31.5" font-family="Helvetica,sans-Serif" font-size="10.00">_GetNextDescriptor</text>
</g>
<!-- Node312 -->
<g id="node2" class="node"><title>Node312</title>
<g id="a_node2"><a xlink:href="group__usb__descriptor.xhtml#gac720e8b7e3cec002c16397a66f5e03b1" target="_top" xlink:title="Parses the given descriptor list via customized function. ">
<polygon fill="white" stroke="red" points="173.5,-49.5 173.5,-79.5 297.5,-79.5 297.5,-49.5 173.5,-49.5"/>
<text text-anchor="start" x="181.5" y="-67.5" font-family="Helvetica,sans-Serif" font-size="10.00">USBGenericDescriptor</text>
<text text-anchor="middle" x="235.5" y="-56.5" font-family="Helvetica,sans-Serif" font-size="10.00">_Parse</text>
</a>
</g>
</g>
<!-- Node311&#45;&gt;Node312 -->
<g id="edge1" class="edge"><title>Node311&#45;&gt;Node312</title>
<path fill="none" stroke="midnightblue" d="M134.668,-49.9472C147.578,-51.8291 160.926,-53.7749 173.498,-55.6076"/>
<polygon fill="midnightblue" stroke="midnightblue" points="134.831,-46.4341 124.431,-48.455 133.822,-53.3609 134.831,-46.4341"/>
</g>
<!-- Node337 -->
<g id="node3" class="node"><title>Node337</title>
<g id="a_node3"><a xlink:href="group__usb__descriptor.xhtml#gab2cf48af0ca19522832310e3eed00490" target="_top" xlink:title="Parses the given Configuration descriptor (followed by relevant interface, endpoint and class&#45;specifi...">
<polygon fill="white" stroke="red" points="160,-0.5 160,-30.5 311,-30.5 311,-0.5 160,-0.5"/>
<text text-anchor="start" x="168" y="-18.5" font-family="Helvetica,sans-Serif" font-size="10.00">USBConfigurationDescriptor</text>
<text text-anchor="middle" x="235.5" y="-7.5" font-family="Helvetica,sans-Serif" font-size="10.00">_Parse</text>
</a>
</g>
</g>
<!-- Node311&#45;&gt;Node337 -->
<g id="edge2" class="edge"><title>Node311&#45;&gt;Node337</title>
<path fill="none" stroke="midnightblue" d="M134.485,-29.4962C142.821,-28.3297 151.342,-27.1373 159.721,-25.9647"/>
<polygon fill="midnightblue" stroke="midnightblue" points="133.849,-26.051 124.431,-30.9032 134.82,-32.9835 133.849,-26.051"/>
</g>
</g>
</svg>
