<?xml version="1.0" encoding="UTF-8" standalone="no"?>
<!DOCTYPE svg PUBLIC "-//W3C//DTD SVG 1.1//EN"
 "http://www.w3.org/Graphics/SVG/1.1/DTD/svg11.dtd">
<!-- Generated by graphviz version 2.38.0 (20140413.2041)
 -->
<!-- Title: CDCAUDDDriver_ConfigurationChangedHandler Pages: 1 -->
<svg width="375pt" height="142pt"
 viewBox="0.00 0.00 375.00 142.00" xmlns="http://www.w3.org/2000/svg" xmlns:xlink="http://www.w3.org/1999/xlink">
<g id="graph0" class="graph" transform="scale(1 1) rotate(0) translate(4 138)">
<title>CDCAUDDDriver_ConfigurationChangedHandler</title>
<polygon fill="white" stroke="none" points="-4,4 -4,-138 371,-138 371,4 -4,4"/>
<!-- Node0 -->
<g id="node1" class="node"><title>Node0</title>
<polygon fill="#bfbfbf" stroke="black" points="0,-52 0,-82 164,-82 164,-52 0,-52"/>
<text text-anchor="start" x="8" y="-70" font-family="Helvetica,sans-Serif" font-size="10.00">CDCAUDDDriver_Configuration</text>
<text text-anchor="middle" x="82" y="-59" font-family="Helvetica,sans-Serif" font-size="10.00">ChangedHandler</text>
</g>
<!-- Node1 -->
<g id="node2" class="node"><title>Node1</title>
<g id="a_node2"><a xlink:href="group__usbd__interface.xhtml#ga01ba3ff549b968edc152cdb23c2027d1" target="_top" xlink:title="Return USBDDriver instance pointer for global usage. ">
<polygon fill="white" stroke="black" points="235.5,-114.5 235.5,-133.5 331.5,-133.5 331.5,-114.5 235.5,-114.5"/>
<text text-anchor="middle" x="283.5" y="-121.5" font-family="Helvetica,sans-Serif" font-size="10.00">USBD_GetDriver</text>
</a>
</g>
</g>
<!-- Node0&#45;&gt;Node1 -->
<g id="edge1" class="edge"><title>Node0&#45;&gt;Node1</title>
<path fill="none" stroke="midnightblue" d="M126.341,-82.0795C148.277,-89.4552 175.404,-98.1877 200,-105 208.946,-107.478 218.499,-109.889 227.815,-112.117"/>
<polygon fill="midnightblue" stroke="midnightblue" points="227.256,-115.58 237.791,-114.456 228.854,-108.765 227.256,-115.58"/>
</g>
<!-- Node2 -->
<g id="node3" class="node"><title>Node2</title>
<g id="a_node3"><a xlink:href="group__usbd__interface.xhtml#gadfce99fba013d30648e7a058c7fa6799" target="_top" xlink:title="Returns configuration descriptor list. ">
<polygon fill="white" stroke="red" points="200,-76.5 200,-95.5 367,-95.5 367,-76.5 200,-76.5"/>
<text text-anchor="middle" x="283.5" y="-83.5" font-family="Helvetica,sans-Serif" font-size="10.00">USBDDriver_GetCfgDescriptors</text>
</a>
</g>
</g>
<!-- Node0&#45;&gt;Node2 -->
<g id="edge2" class="edge"><title>Node0&#45;&gt;Node2</title>
<path fill="none" stroke="midnightblue" d="M164.144,-74.728C172.596,-75.5329 181.232,-76.3554 189.798,-77.1713"/>
<polygon fill="midnightblue" stroke="midnightblue" points="189.521,-80.6606 199.807,-78.1245 190.184,-73.6921 189.521,-80.6606"/>
</g>
<!-- Node6 -->
<g id="node4" class="node"><title>Node6</title>
<g id="a_node4"><a xlink:href="group__usbd__cdc.xhtml#ga2f46147999cac65dacbef7b85dc70dd1" target="_top" xlink:title="Invoked whenever the device is changed by the host. ">
<polygon fill="white" stroke="red" points="202,-38.5 202,-57.5 365,-57.5 365,-38.5 202,-38.5"/>
<text text-anchor="middle" x="283.5" y="-45.5" font-family="Helvetica,sans-Serif" font-size="10.00">CDCDSerial_ConfigureFunction</text>
</a>
</g>
</g>
<!-- Node0&#45;&gt;Node6 -->
<g id="edge3" class="edge"><title>Node0&#45;&gt;Node6</title>
<path fill="none" stroke="midnightblue" d="M164.144,-59.272C173.158,-58.4135 182.382,-57.5351 191.507,-56.666"/>
<polygon fill="midnightblue" stroke="midnightblue" points="192.128,-60.1228 201.751,-55.6904 191.464,-53.1543 192.128,-60.1228"/>
</g>
<!-- Node12 -->
<g id="node5" class="node"><title>Node12</title>
<g id="a_node5"><a xlink:href="group__usbd__aud__fun.xhtml#ga702017449448c2a930ef05e9e48e7fe7" target="_top" xlink:title="Configure function with expected descriptors and start functionality. ">
<polygon fill="white" stroke="red" points="215,-0.5 215,-19.5 352,-19.5 352,-0.5 215,-0.5"/>
<text text-anchor="middle" x="283.5" y="-7.5" font-family="Helvetica,sans-Serif" font-size="10.00">AUDDFunction_Configure</text>
</a>
</g>
</g>
<!-- Node0&#45;&gt;Node12 -->
<g id="edge4" class="edge"><title>Node0&#45;&gt;Node12</title>
<path fill="none" stroke="midnightblue" d="M126.341,-51.9205C148.277,-44.5448 175.404,-35.8123 200,-29 208.946,-26.5223 218.499,-24.1107 227.815,-21.8834"/>
<polygon fill="midnightblue" stroke="midnightblue" points="228.854,-25.2348 237.791,-19.5445 227.256,-18.4195 228.854,-25.2348"/>
</g>
</g>
</svg>
