<?xml version="1.0" encoding="UTF-8" standalone="no"?>
<!DOCTYPE svg PUBLIC "-//W3C//DTD SVG 1.1//EN"
 "http://www.w3.org/Graphics/SVG/1.1/DTD/svg11.dtd">
<!-- Generated by graphviz version 2.38.0 (20140413.2041)
 -->
<!-- Title: USB Feature Request Definitions Pages: 1 -->
<svg width="419pt" height="66pt"
 viewBox="0.00 0.00 419.00 66.00" xmlns="http://www.w3.org/2000/svg" xmlns:xlink="http://www.w3.org/1999/xlink">
<g id="graph0" class="graph" transform="scale(1 1) rotate(0) translate(4 62)">
<title>USB Feature Request Definitions</title>
<polygon fill="white" stroke="none" points="-4,4 -4,-62 415,-62 415,4 -4,4"/>
<!-- Node0 -->
<g id="node1" class="node"><title>Node0</title>
<polygon fill="#bfbfbf" stroke="black" points="120,-14 120,-44 238,-44 238,-14 120,-14"/>
<text text-anchor="start" x="128" y="-32" font-family="Helvetica,sans-Serif" font-size="10.00">USB Feature Request</text>
<text text-anchor="middle" x="179" y="-21" font-family="Helvetica,sans-Serif" font-size="10.00"> Definitions</text>
</g>
<!-- Node3 -->
<g id="node3" class="node"><title>Node3</title>
<g id="a_node3"><a xlink:href="group__usb__test__sel.xhtml" target="_top" xlink:title="This section lists codes of USB high speed test mode selectors. ">
<polygon fill="white" stroke="black" points="274,-38.5 274,-57.5 411,-57.5 411,-38.5 274,-38.5"/>
<text text-anchor="middle" x="342.5" y="-45.5" font-family="Helvetica,sans-Serif" font-size="10.00">USB Test mode selectors</text>
</a>
</g>
</g>
<!-- Node0&#45;&gt;Node3 -->
<g id="edge3" class="edge"><title>Node0&#45;&gt;Node3</title>
<path fill="none" stroke="black" d="M248.476,-37.056C256.909,-38.0482 265.526,-39.0618 273.945,-40.0524"/>
<polygon fill="black" stroke="black" points="248.646,-33.5519 238.305,-35.8594 247.828,-40.504 248.646,-33.5519"/>
</g>
<!-- Node2 -->
<g id="node4" class="node"><title>Node2</title>
<g id="a_node4"><a xlink:href="group__usb__feature__sel.xhtml" target="_top" xlink:title="This section lists codes of USB feature selectors. ">
<polygon fill="white" stroke="black" points="281,-0.5 281,-19.5 404,-19.5 404,-0.5 281,-0.5"/>
<text text-anchor="middle" x="342.5" y="-7.5" font-family="Helvetica,sans-Serif" font-size="10.00">USB Feature selectors</text>
</a>
</g>
</g>
<!-- Node0&#45;&gt;Node2 -->
<g id="edge2" class="edge"><title>Node0&#45;&gt;Node2</title>
<path fill="none" stroke="black" d="M248.491,-20.9422C259.237,-19.678 270.279,-18.379 280.832,-17.1374"/>
<polygon fill="black" stroke="black" points="247.828,-17.496 238.305,-22.1406 248.646,-24.4481 247.828,-17.496"/>
</g>
<!-- Node1 -->
<g id="node2" class="node"><title>Node1</title>
<g id="a_node2"><a xlink:href="group__usb__request.xhtml" target="_top" xlink:title="USB Requests">
<polygon fill="white" stroke="black" points="0,-19.5 0,-38.5 84,-38.5 84,-19.5 0,-19.5"/>
<text text-anchor="middle" x="42" y="-26.5" font-family="Helvetica,sans-Serif" font-size="10.00">USB Requests</text>
</a>
</g>
</g>
<!-- Node1&#45;&gt;Node0 -->
<g id="edge1" class="edge"><title>Node1&#45;&gt;Node0</title>
<path fill="none" stroke="black" d="M94.4431,-29C102.674,-29 111.243,-29 119.621,-29"/>
<polygon fill="black" stroke="black" points="94.238,-25.5001 84.238,-29 94.238,-32.5001 94.238,-25.5001"/>
</g>
</g>
</svg>
