<?xml version="1.0" encoding="UTF-8" standalone="no"?>
<!DOCTYPE svg PUBLIC "-//W3C//DTD SVG 1.1//EN"
 "http://www.w3.org/Graphics/SVG/1.1/DTD/svg11.dtd">
<!-- Generated by graphviz version 2.38.0 (20140413.2041)
 -->
<!-- Title: AUDDSpeakerPhone_SetupWrite Pages: 1 -->
<svg width="386pt" height="66pt"
 viewBox="0.00 0.00 386.00 66.00" xmlns="http://www.w3.org/2000/svg" xmlns:xlink="http://www.w3.org/1999/xlink">
<g id="graph0" class="graph" transform="scale(1 1) rotate(0) translate(4 62)">
<title>AUDDSpeakerPhone_SetupWrite</title>
<polygon fill="white" stroke="none" points="-4,4 -4,-62 382,-62 382,4 -4,4"/>
<!-- Node365 -->
<g id="node1" class="node"><title>Node365</title>
<polygon fill="#bfbfbf" stroke="black" points="0,-19.5 0,-38.5 173,-38.5 173,-19.5 0,-19.5"/>
<text text-anchor="middle" x="86.5" y="-26.5" font-family="Helvetica,sans-Serif" font-size="10.00">AUDDSpeakerPhone_SetupWrite</text>
</g>
<!-- Node366 -->
<g id="node2" class="node"><title>Node366</title>
<g id="a_node2"><a xlink:href="group__usbd__hal.xhtml#ga62263446ee46cfc2ca48856e446f1a79" target="_top" xlink:title="Configure an endpoint to use multi&#45;buffer&#45;list transfer mode. ">
<polygon fill="white" stroke="black" points="214.5,-38.5 214.5,-57.5 372.5,-57.5 372.5,-38.5 214.5,-38.5"/>
<text text-anchor="middle" x="293.5" y="-45.5" font-family="Helvetica,sans-Serif" font-size="10.00">USBD_HAL_SetupMblTransfer</text>
</a>
</g>
</g>
<!-- Node365&#45;&gt;Node366 -->
<g id="edge1" class="edge"><title>Node365&#45;&gt;Node366</title>
<path fill="none" stroke="midnightblue" d="M173.251,-36.9476C183.454,-37.8933 193.886,-38.8601 204.125,-39.8092"/>
<polygon fill="midnightblue" stroke="midnightblue" points="204.005,-43.3129 214.285,-40.7508 204.651,-36.3428 204.005,-43.3129"/>
</g>
<!-- Node367 -->
<g id="node3" class="node"><title>Node367</title>
<g id="a_node3"><a xlink:href="group__usbd__hal.xhtml#gafcb94bdd4c0ea327621a187814ab4f9f" target="_top" xlink:title="Set callback for a USB endpoint for transfer (read/write). ">
<polygon fill="white" stroke="black" points="209,-0.5 209,-19.5 378,-19.5 378,-0.5 209,-0.5"/>
<text text-anchor="middle" x="293.5" y="-7.5" font-family="Helvetica,sans-Serif" font-size="10.00">USBD_HAL_SetTransferCallback</text>
</a>
</g>
</g>
<!-- Node365&#45;&gt;Node367 -->
<g id="edge2" class="edge"><title>Node365&#45;&gt;Node367</title>
<path fill="none" stroke="midnightblue" d="M173.251,-21.0524C181.597,-20.2788 190.095,-19.4912 198.517,-18.7106"/>
<polygon fill="midnightblue" stroke="midnightblue" points="199.101,-22.1716 208.735,-17.7636 198.455,-15.2015 199.101,-22.1716"/>
</g>
</g>
</svg>
