<?xml version="1.0" encoding="UTF-8" standalone="no"?>
<!DOCTYPE svg PUBLIC "-//W3C//DTD SVG 1.1//EN"
 "http://www.w3.org/Graphics/SVG/1.1/DTD/svg11.dtd">
<!-- Generated by graphviz version 2.38.0 (20140413.2041)
 -->
<!-- Title: uhi_cdc_open Pages: 1 -->
<svg width="241pt" height="66pt"
 viewBox="0.00 0.00 241.00 66.00" xmlns="http://www.w3.org/2000/svg" xmlns:xlink="http://www.w3.org/1999/xlink">
<g id="graph0" class="graph" transform="scale(1 1) rotate(0) translate(4 62)">
<title>uhi_cdc_open</title>
<polygon fill="white" stroke="none" points="-4,4 -4,-62 237,-62 237,4 -4,4"/>
<!-- Node57 -->
<g id="node1" class="node"><title>Node57</title>
<polygon fill="#bfbfbf" stroke="black" points="0,-19.5 0,-38.5 82,-38.5 82,-19.5 0,-19.5"/>
<text text-anchor="middle" x="41" y="-26.5" font-family="Helvetica,sans-Serif" font-size="10.00">uhi_cdc_open</text>
</g>
<!-- Node58 -->
<g id="node2" class="node"><title>Node58</title>
<g id="a_node2"><a xlink:href="group__uhi__cdc__group__internal.xhtml#ga1e2a4888266cef7dfe80c8e2b801a3d2" target="_top" xlink:title="Changes the port configuration. ">
<polygon fill="white" stroke="red" points="126.5,-38.5 126.5,-57.5 224.5,-57.5 224.5,-38.5 126.5,-38.5"/>
<text text-anchor="middle" x="175.5" y="-45.5" font-family="Helvetica,sans-Serif" font-size="10.00">uhi_cdc_set_conf</text>
</a>
</g>
</g>
<!-- Node57&#45;&gt;Node58 -->
<g id="edge1" class="edge"><title>Node57&#45;&gt;Node58</title>
<path fill="none" stroke="midnightblue" d="M82.1139,-34.7522C92.8358,-36.2897 104.645,-37.9831 116.134,-39.6306"/>
<polygon fill="midnightblue" stroke="midnightblue" points="115.717,-43.1064 126.112,-41.0614 116.71,-36.1773 115.717,-43.1064"/>
</g>
<!-- Node74 -->
<g id="node3" class="node"><title>Node74</title>
<g id="a_node3"><a xlink:href="group__uhi__cdc__group__internal.xhtml#ga6514d4bd06546b5ad90822cddd70e92a" target="_top" xlink:title="Sends a control line command on the port. ">
<polygon fill="white" stroke="red" points="118,-0.5 118,-19.5 233,-19.5 233,-0.5 118,-0.5"/>
<text text-anchor="middle" x="175.5" y="-7.5" font-family="Helvetica,sans-Serif" font-size="10.00">uhi_cdc_set_ctrl_line</text>
</a>
</g>
</g>
<!-- Node57&#45;&gt;Node74 -->
<g id="edge2" class="edge"><title>Node57&#45;&gt;Node74</title>
<path fill="none" stroke="midnightblue" d="M82.1139,-23.2478C90.3044,-22.0733 99.1296,-20.8078 107.962,-19.5414"/>
<polygon fill="midnightblue" stroke="midnightblue" points="108.501,-22.9999 117.903,-18.1158 107.507,-16.0708 108.501,-22.9999"/>
</g>
</g>
</svg>
