<?xml version="1.0" encoding="UTF-8" standalone="no"?>
<!DOCTYPE svg PUBLIC "-//W3C//DTD SVG 1.1//EN"
 "http://www.w3.org/Graphics/SVG/1.1/DTD/svg11.dtd">
<!-- Generated by graphviz version 2.38.0 (20140413.2041)
 -->
<!-- Title: USBH_HAL_RunEndpoint Pages: 1 -->
<svg width="294pt" height="154pt"
 viewBox="0.00 0.00 294.00 154.00" xmlns="http://www.w3.org/2000/svg" xmlns:xlink="http://www.w3.org/1999/xlink">
<g id="graph0" class="graph" transform="scale(1 1) rotate(0) translate(4 150)">
<title>USBH_HAL_RunEndpoint</title>
<polygon fill="white" stroke="none" points="-4,4 -4,-150 290,-150 290,4 -4,4"/>
<!-- Node837 -->
<g id="node1" class="node"><title>Node837</title>
<polygon fill="#bfbfbf" stroke="black" points="0,-66.5 0,-85.5 134,-85.5 134,-66.5 0,-66.5"/>
<text text-anchor="middle" x="67" y="-73.5" font-family="Helvetica,sans-Serif" font-size="10.00">USBH_HAL_RunEndpoint</text>
</g>
<!-- Node838 -->
<g id="node2" class="node"><title>Node838</title>
<g id="a_node2"><a xlink:href="group__uhi__cdc__group__internal.xhtml#gab2e5918509ca2fa9edf6ef88a8dc62ce" target="_top" xlink:title="Update the transfer endpoint IN (RX) Valid the reception of the previous transfer. ">
<polygon fill="white" stroke="red" points="175,-126.5 175,-145.5 281,-145.5 281,-126.5 175,-126.5"/>
<text text-anchor="middle" x="228" y="-133.5" font-family="Helvetica,sans-Serif" font-size="10.00">uhi_cdc_rx_update</text>
</a>
</g>
</g>
<!-- Node837&#45;&gt;Node838 -->
<g id="edge1" class="edge"><title>Node837&#45;&gt;Node838</title>
<path fill="none" stroke="midnightblue" d="M99.809,-89.3618C119.835,-97.6302 146.29,-108.292 170,-117 178.812,-120.237 188.474,-123.546 197.298,-126.476"/>
<polygon fill="midnightblue" stroke="midnightblue" points="101.113,-86.1134 90.5349,-85.514 98.4302,-92.5791 101.113,-86.1134"/>
</g>
<!-- Node844 -->
<g id="node3" class="node"><title>Node844</title>
<g id="a_node3"><a xlink:href="group__uhi__cdc__group__internal.xhtml#ga19464aec764d1d849bd81da0a1f70a0e" target="_top" xlink:title="Update the transfer endpoint OUT (TX) Start a new transfer on endpoint OUT, if a data must be send an...">
<polygon fill="white" stroke="red" points="175,-88.5 175,-107.5 281,-107.5 281,-88.5 175,-88.5"/>
<text text-anchor="middle" x="228" y="-95.5" font-family="Helvetica,sans-Serif" font-size="10.00">uhi_cdc_tx_update</text>
</a>
</g>
</g>
<!-- Node837&#45;&gt;Node844 -->
<g id="edge2" class="edge"><title>Node837&#45;&gt;Node844</title>
<path fill="none" stroke="midnightblue" d="M144.04,-86.5212C154.511,-87.9701 165.062,-89.43 174.965,-90.8002"/>
<polygon fill="midnightblue" stroke="midnightblue" points="144.434,-83.0426 134.049,-85.1389 143.475,-89.9765 144.434,-83.0426"/>
</g>
<!-- Node846 -->
<g id="node4" class="node"><title>Node846</title>
<g id="a_node4"><a xlink:href="group__uhi__hid__mouse__group__internal.xhtml#ga4c227d4f8c1542d28b0610bce62a62a7" target="_top" xlink:title="Starts the reception of the HID mouse report. ">
<polygon fill="white" stroke="red" points="170,-39 170,-69 286,-69 286,-39 170,-39"/>
<text text-anchor="start" x="178" y="-57" font-family="Helvetica,sans-Serif" font-size="10.00">uhi_hid_mouse_start</text>
<text text-anchor="middle" x="228" y="-46" font-family="Helvetica,sans-Serif" font-size="10.00">_trans_report</text>
</a>
</g>
</g>
<!-- Node837&#45;&gt;Node846 -->
<g id="edge3" class="edge"><title>Node837&#45;&gt;Node846</title>
<path fill="none" stroke="midnightblue" d="M144.129,-65.4664C152.757,-64.2726 161.438,-63.0714 169.765,-61.9193"/>
<polygon fill="midnightblue" stroke="midnightblue" points="143.475,-62.0235 134.049,-66.8611 144.434,-68.9574 143.475,-62.0235"/>
</g>
<!-- Node849 -->
<g id="node5" class="node"><title>Node849</title>
<g id="a_node5"><a xlink:href="uhi__msc_8c.xhtml#a5881034b17cf48e25997e6ad271f5720" target="_top" xlink:title="Start a transfer on an endpoint of current USB MSC device Used to send a CBW packet, DATA packet, or a CSW packet. ">
<polygon fill="white" stroke="red" points="178.5,-0.5 178.5,-19.5 277.5,-19.5 277.5,-0.5 178.5,-0.5"/>
<text text-anchor="middle" x="228" y="-7.5" font-family="Helvetica,sans-Serif" font-size="10.00">uhi_msc_transfer</text>
</a>
</g>
</g>
<!-- Node837&#45;&gt;Node849 -->
<g id="edge4" class="edge"><title>Node837&#45;&gt;Node849</title>
<path fill="none" stroke="midnightblue" d="M97.0131,-62.1107C117.271,-52.6122 145.045,-39.9834 170,-30 179.055,-26.3772 189.054,-22.7472 198.115,-19.5932"/>
<polygon fill="midnightblue" stroke="midnightblue" points="95.2679,-59.0641 87.7178,-66.4969 98.2552,-65.3947 95.2679,-59.0641"/>
</g>
</g>
</svg>
