<?xml version="1.0" encoding="UTF-8" standalone="no"?>
<!DOCTYPE svg PUBLIC "-//W3C//DTD SVG 1.1//EN"
 "http://www.w3.org/Graphics/SVG/1.1/DTD/svg11.dtd">
<!-- Generated by graphviz version 2.38.0 (20140413.2041)
 -->
<!-- Title: XDMAD_AllocateXdmacChannel Pages: 1 -->
<svg width="370pt" height="78pt"
 viewBox="0.00 0.00 370.00 77.50" xmlns="http://www.w3.org/2000/svg" xmlns:xlink="http://www.w3.org/1999/xlink">
<g id="graph0" class="graph" transform="scale(1 1) rotate(0) translate(4 73.5)">
<title>XDMAD_AllocateXdmacChannel</title>
<polygon fill="white" stroke="none" points="-4,4 -4,-73.5 366,-73.5 366,4 -4,4"/>
<!-- Node51 -->
<g id="node1" class="node"><title>Node51</title>
<polygon fill="#bfbfbf" stroke="black" points="0,-22.5 0,-41.5 168,-41.5 168,-22.5 0,-22.5"/>
<text text-anchor="middle" x="84" y="-29.5" font-family="Helvetica,sans-Serif" font-size="10.00">XDMAD_AllocateXdmacChannel</text>
</g>
<!-- Node52 -->
<g id="node2" class="node"><title>Node52</title>
<g id="a_node2"><a xlink:href="xdma__hardware__interface_8h.xhtml#a3a7151b5d5eceb843fa293a85e72651b" target="_top" xlink:title="Check if the given DMAC has associated peripheral identifier coded by the given peripheral. ">
<polygon fill="white" stroke="red" points="208.5,-39 208.5,-69 357.5,-69 357.5,-39 208.5,-39"/>
<text text-anchor="start" x="216.5" y="-57" font-family="Helvetica,sans-Serif" font-size="10.00">XDMAIF_IsValidatedPeripher</text>
<text text-anchor="middle" x="283" y="-46" font-family="Helvetica,sans-Serif" font-size="10.00">OnDma</text>
</a>
</g>
</g>
<!-- Node51&#45;&gt;Node52 -->
<g id="edge1" class="edge"><title>Node51&#45;&gt;Node52</title>
<path fill="none" stroke="midnightblue" d="M168.26,-41.2981C178.158,-42.4035 188.267,-43.5323 198.173,-44.6386"/>
<polygon fill="midnightblue" stroke="midnightblue" points="198.079,-48.1497 208.405,-45.7813 198.856,-41.193 198.079,-48.1497"/>
</g>
<!-- Node54 -->
<g id="node3" class="node"><title>Node54</title>
<g id="a_node3"><a xlink:href="xdma__hardware__interface_8h.xhtml#a1c7e741165685b3e072aa75e4cfb1034" target="_top" xlink:title="Get peripheral identifier coded for hardware handshaking interface. ">
<polygon fill="white" stroke="red" points="204,-0.5 204,-19.5 362,-19.5 362,-0.5 204,-0.5"/>
<text text-anchor="middle" x="283" y="-7.5" font-family="Helvetica,sans-Serif" font-size="10.00">XDMAIF_Get_ChannelNumber</text>
</a>
</g>
</g>
<!-- Node51&#45;&gt;Node54 -->
<g id="edge2" class="edge"><title>Node51&#45;&gt;Node54</title>
<path fill="none" stroke="midnightblue" d="M168.26,-22.7019C176.622,-21.7681 185.133,-20.8176 193.546,-19.8781"/>
<polygon fill="midnightblue" stroke="midnightblue" points="194.193,-23.3277 203.742,-18.7394 193.416,-16.371 194.193,-23.3277"/>
</g>
</g>
</svg>
