<?xml version="1.0" encoding="UTF-8" standalone="no"?>
<!DOCTYPE svg PUBLIC "-//W3C//DTD SVG 1.1//EN"
 "http://www.w3.org/Graphics/SVG/1.1/DTD/svg11.dtd">
<!-- Generated by graphviz version 2.38.0 (20140413.2041)
 -->
<!-- Title: MED_GetBlockSize Pages: 1 -->
<svg width="315pt" height="142pt"
 viewBox="0.00 0.00 315.00 142.00" xmlns="http://www.w3.org/2000/svg" xmlns:xlink="http://www.w3.org/1999/xlink">
<g id="graph0" class="graph" transform="scale(1 1) rotate(0) translate(4 138)">
<title>MED_GetBlockSize</title>
<polygon fill="white" stroke="none" points="-4,4 -4,-138 311,-138 311,4 -4,4"/>
<!-- Node37 -->
<g id="node1" class="node"><title>Node37</title>
<polygon fill="#bfbfbf" stroke="black" points="0,-57.5 0,-76.5 107,-76.5 107,-57.5 0,-57.5"/>
<text text-anchor="middle" x="53.5" y="-64.5" font-family="Helvetica,sans-Serif" font-size="10.00">MED_GetBlockSize</text>
</g>
<!-- Node38 -->
<g id="node2" class="node"><title>Node38</title>
<g id="a_node2"><a xlink:href="group__usbd__msd.xhtml#gac7fa65f732a998087ab8efeb882cbe89" target="_top" xlink:title="Initializes a LUN instance. ">
<polygon fill="white" stroke="black" points="197,-114.5 197,-133.5 253,-133.5 253,-114.5 197,-114.5"/>
<text text-anchor="middle" x="225" y="-121.5" font-family="Helvetica,sans-Serif" font-size="10.00">LUN_Init</text>
</a>
</g>
</g>
<!-- Node37&#45;&gt;Node38 -->
<g id="edge1" class="edge"><title>Node37&#45;&gt;Node38</title>
<path fill="none" stroke="midnightblue" d="M83.5431,-80.9998C100.58,-88.8233 122.686,-98.3135 143,-105 160.562,-110.781 180.812,-115.531 196.671,-118.835"/>
<polygon fill="midnightblue" stroke="midnightblue" points="84.6919,-77.6737 74.1496,-76.6199 81.7337,-84.018 84.6919,-77.6737"/>
</g>
<!-- Node39 -->
<g id="node3" class="node"><title>Node39</title>
<g id="a_node3"><a xlink:href="group__usbd__msd.xhtml#ga7e5d6c7f2b4cece7084910e9567508a3" target="_top" xlink:title="Performs a WRITE (10) command on the specified LUN. ">
<polygon fill="white" stroke="red" points="186.5,-76.5 186.5,-95.5 263.5,-95.5 263.5,-76.5 186.5,-76.5"/>
<text text-anchor="middle" x="225" y="-83.5" font-family="Helvetica,sans-Serif" font-size="10.00">SBC_Write10</text>
</a>
</g>
</g>
<!-- Node37&#45;&gt;Node39 -->
<g id="edge2" class="edge"><title>Node37&#45;&gt;Node39</title>
<path fill="none" stroke="midnightblue" d="M117.328,-74.0426C140.541,-76.6447 166.111,-79.5109 186.396,-81.7848"/>
<polygon fill="midnightblue" stroke="midnightblue" points="117.529,-70.5434 107.202,-72.9076 116.75,-77.4998 117.529,-70.5434"/>
</g>
<!-- Node45 -->
<g id="node4" class="node"><title>Node45</title>
<g id="a_node4"><a xlink:href="group__usbd__msd.xhtml#gabc88802a5167eed1f5955df898b6c6bb" target="_top" xlink:title="Performs a READ (10) command on specified LUN. ">
<polygon fill="white" stroke="red" points="186.5,-38.5 186.5,-57.5 263.5,-57.5 263.5,-38.5 186.5,-38.5"/>
<text text-anchor="middle" x="225" y="-45.5" font-family="Helvetica,sans-Serif" font-size="10.00">SBC_Read10</text>
</a>
</g>
</g>
<!-- Node37&#45;&gt;Node45 -->
<g id="edge3" class="edge"><title>Node37&#45;&gt;Node45</title>
<path fill="none" stroke="midnightblue" d="M117.328,-59.9574C140.541,-57.3553 166.111,-54.4891 186.396,-52.2152"/>
<polygon fill="midnightblue" stroke="midnightblue" points="116.75,-56.5002 107.202,-61.0924 117.529,-63.4566 116.75,-56.5002"/>
</g>
<!-- Node46 -->
<g id="node5" class="node"><title>Node46</title>
<g id="a_node5"><a xlink:href="group__usbd__msd.xhtml#ga2a08f011fbfff2f3a419b28bb6d14b16" target="_top" xlink:title="Return information about the transfer length and direction expected by the device for a particular co...">
<polygon fill="white" stroke="red" points="143,-0.5 143,-19.5 307,-19.5 307,-0.5 143,-0.5"/>
<text text-anchor="middle" x="225" y="-7.5" font-family="Helvetica,sans-Serif" font-size="10.00">SBC_GetCommandInformation</text>
</a>
</g>
</g>
<!-- Node37&#45;&gt;Node46 -->
<g id="edge4" class="edge"><title>Node37&#45;&gt;Node46</title>
<path fill="none" stroke="midnightblue" d="M83.5431,-53.0002C100.58,-45.1767 122.686,-35.6865 143,-29 153.839,-25.4323 165.702,-22.2572 176.924,-19.5721"/>
<polygon fill="midnightblue" stroke="midnightblue" points="81.7337,-49.982 74.1496,-57.3801 84.6919,-56.3263 81.7337,-49.982"/>
</g>
</g>
</svg>
