<?xml version="1.0" encoding="UTF-8" standalone="no"?>
<!DOCTYPE svg PUBLIC "-//W3C//DTD SVG 1.1//EN"
 "http://www.w3.org/Graphics/SVG/1.1/DTD/svg11.dtd">
<!-- Generated by graphviz version 2.38.0 (20140413.2041)
 -->
<!-- Title: SAME70J19 definitions Pages: 1 -->
<svg width="316pt" height="230pt"
 viewBox="0.00 0.00 316.00 230.00" xmlns="http://www.w3.org/2000/svg" xmlns:xlink="http://www.w3.org/1999/xlink">
<g id="graph0" class="graph" transform="scale(1 1) rotate(0) translate(4 226)">
<title>SAME70J19 definitions</title>
<polygon fill="white" stroke="none" points="-4,4 -4,-226 312,-226 312,4 -4,4"/>
<!-- Node4 -->
<g id="node1" class="node"><title>Node4</title>
<g id="a_node1"><a xlink:href="group___s_a_m_e70_j19__id.xhtml" target="_top" xlink:title="Peripheral Ids Definitions">
<polygon fill="white" stroke="black" points="166,-202.5 166,-221.5 300,-221.5 300,-202.5 166,-202.5"/>
<text text-anchor="middle" x="233" y="-209.5" font-family="Helvetica,sans-Serif" font-size="10.00">Peripheral Ids Definitions</text>
</a>
</g>
</g>
<!-- Node1 -->
<g id="node2" class="node"><title>Node1</title>
<g id="a_node2"><a xlink:href="group___s_a_m_e70_j19__cmsis.xhtml" target="_top" xlink:title="CMSIS Definitions">
<polygon fill="white" stroke="black" points="182.5,-164.5 182.5,-183.5 283.5,-183.5 283.5,-164.5 182.5,-164.5"/>
<text text-anchor="middle" x="233" y="-171.5" font-family="Helvetica,sans-Serif" font-size="10.00">CMSIS Definitions</text>
</a>
</g>
</g>
<!-- Node6 -->
<g id="node3" class="node"><title>Node6</title>
<g id="a_node3"><a xlink:href="group___s_a_m_e70_j19__pio.xhtml" target="_top" xlink:title="Peripheral Pio Definitions">
<polygon fill="white" stroke="black" points="165.5,-126.5 165.5,-145.5 300.5,-145.5 300.5,-126.5 165.5,-126.5"/>
<text text-anchor="middle" x="233" y="-133.5" font-family="Helvetica,sans-Serif" font-size="10.00">Peripheral Pio Definitions</text>
</a>
</g>
</g>
<!-- Node5 -->
<g id="node4" class="node"><title>Node5</title>
<g id="a_node4"><a xlink:href="group___s_a_m_e70_j19__base.xhtml" target="_top" xlink:title="Peripheral Base Address\l Definitions">
<polygon fill="white" stroke="black" points="166,-77 166,-107 300,-107 300,-77 166,-77"/>
<text text-anchor="start" x="174" y="-95" font-family="Helvetica,sans-Serif" font-size="10.00">Peripheral Base Address</text>
<text text-anchor="middle" x="233" y="-84" font-family="Helvetica,sans-Serif" font-size="10.00"> Definitions</text>
</a>
</g>
</g>
<!-- Node2 -->
<g id="node5" class="node"><title>Node2</title>
<g id="a_node5"><a xlink:href="group___s_a_m_e70_j19__api.xhtml" target="_top" xlink:title="SOFTWARE PERIPHERAL API DEFINITION FOR SAME70J19. ">
<polygon fill="white" stroke="black" points="169,-38.5 169,-57.5 297,-57.5 297,-38.5 169,-38.5"/>
<text text-anchor="middle" x="233" y="-45.5" font-family="Helvetica,sans-Serif" font-size="10.00">Peripheral Software API</text>
</a>
</g>
</g>
<!-- Node0 -->
<g id="node6" class="node"><title>Node0</title>
<polygon fill="#bfbfbf" stroke="black" points="0,-104.5 0,-123.5 122,-123.5 122,-104.5 0,-104.5"/>
<text text-anchor="middle" x="61" y="-111.5" font-family="Helvetica,sans-Serif" font-size="10.00">SAME70J19 definitions</text>
</g>
<!-- Node0&#45;&gt;Node4 -->
<g id="edge4" class="edge"><title>Node0&#45;&gt;Node4</title>
<path fill="none" stroke="black" d="M78.0888,-131.098C95.9549,-149.092 126.459,-176.98 158,-193 165.569,-196.844 173.978,-199.954 182.335,-202.456"/>
<polygon fill="black" stroke="black" points="80.289,-128.34 70.811,-123.605 75.2677,-133.217 80.289,-128.34"/>
</g>
<!-- Node0&#45;&gt;Node1 -->
<g id="edge1" class="edge"><title>Node0&#45;&gt;Node1</title>
<path fill="none" stroke="black" d="M91.0891,-127.796C109.896,-136.371 135.058,-147.206 158,-155 168.298,-158.498 179.592,-161.705 190.186,-164.448"/>
<polygon fill="black" stroke="black" points="92.4258,-124.558 81.8794,-123.546 89.4928,-130.914 92.4258,-124.558"/>
</g>
<!-- Node0&#45;&gt;Node6 -->
<g id="edge6" class="edge"><title>Node0&#45;&gt;Node6</title>
<path fill="none" stroke="black" d="M132.349,-123.104C143.292,-124.52 154.569,-125.98 165.425,-127.384"/>
<polygon fill="black" stroke="black" points="132.781,-119.631 122.414,-121.818 131.882,-126.573 132.781,-119.631"/>
</g>
<!-- Node0&#45;&gt;Node5 -->
<g id="edge5" class="edge"><title>Node0&#45;&gt;Node5</title>
<path fill="none" stroke="black" d="M132.417,-104.887C143.437,-103.461 154.794,-101.991 165.716,-100.578"/>
<polygon fill="black" stroke="black" points="131.882,-101.427 122.414,-106.182 132.781,-108.369 131.882,-101.427"/>
</g>
<!-- Node0&#45;&gt;Node2 -->
<g id="edge2" class="edge"><title>Node0&#45;&gt;Node2</title>
<path fill="none" stroke="black" d="M88.5559,-99.6525C107.517,-89.8135 133.84,-76.9673 158,-68 168.605,-64.0638 180.326,-60.5366 191.252,-57.5807"/>
<polygon fill="black" stroke="black" points="86.8449,-96.5978 79.6217,-104.349 90.1018,-102.794 86.8449,-96.5978"/>
</g>
<!-- Node3 -->
<g id="node7" class="node"><title>Node3</title>
<g id="a_node7"><a xlink:href="group___s_a_m_e70_j19__reg.xhtml" target="_top" xlink:title="Registers Access Definitions">
<polygon fill="white" stroke="black" points="158,-0.5 158,-19.5 308,-19.5 308,-0.5 158,-0.5"/>
<text text-anchor="middle" x="233" y="-7.5" font-family="Helvetica,sans-Serif" font-size="10.00">Registers Access Definitions</text>
</a>
</g>
</g>
<!-- Node0&#45;&gt;Node3 -->
<g id="edge3" class="edge"><title>Node0&#45;&gt;Node3</title>
<path fill="none" stroke="black" d="M76.7568,-96.7298C94.2234,-77.3841 125.115,-46.4567 158,-29 165.264,-25.1442 173.349,-22.0416 181.433,-19.5535"/>
<polygon fill="black" stroke="black" points="73.9135,-94.6622 69.9216,-104.476 79.1623,-99.2936 73.9135,-94.6622"/>
</g>
</g>
</svg>
