<?xml version="1.0" encoding="UTF-8" standalone="no"?>
<!DOCTYPE svg PUBLIC "-//W3C//DTD SVG 1.1//EN"
 "http://www.w3.org/Graphics/SVG/1.1/DTD/svg11.dtd">
<!-- Generated by graphviz version 2.38.0 (20140413.2041)
 -->
<!-- Title: USBD_HAL_Disconnect Pages: 1 -->
<svg width="286pt" height="66pt"
 viewBox="0.00 0.00 286.00 66.00" xmlns="http://www.w3.org/2000/svg" xmlns:xlink="http://www.w3.org/1999/xlink">
<g id="graph0" class="graph" transform="scale(1 1) rotate(0) translate(4 62)">
<title>USBD_HAL_Disconnect</title>
<polygon fill="white" stroke="none" points="-4,4 -4,-62 282,-62 282,4 -4,4"/>
<!-- Node1192 -->
<g id="node1" class="node"><title>Node1192</title>
<polygon fill="#bfbfbf" stroke="black" points="0,-19.5 0,-38.5 128,-38.5 128,-19.5 0,-19.5"/>
<text text-anchor="middle" x="64" y="-26.5" font-family="Helvetica,sans-Serif" font-size="10.00">USBD_HAL_Disconnect</text>
</g>
<!-- Node1193 -->
<g id="node2" class="node"><title>Node1193</title>
<g id="a_node2"><a xlink:href="usbhs_8h.xhtml#a07183fee11fbf4c00401b455bdfed9dd" target="_top" xlink:title=" USBHS_CTRL ">
<polygon fill="white" stroke="black" points="164,-38.5 164,-57.5 278,-57.5 278,-38.5 164,-38.5"/>
<text text-anchor="middle" x="221" y="-45.5" font-family="Helvetica,sans-Serif" font-size="10.00">USBHS_FreezeClock</text>
</a>
</g>
</g>
<!-- Node1192&#45;&gt;Node1193 -->
<g id="edge1" class="edge"><title>Node1192&#45;&gt;Node1193</title>
<path fill="none" stroke="midnightblue" d="M128.044,-36.728C136.599,-37.7766 145.396,-38.8551 154.001,-39.9098"/>
<polygon fill="midnightblue" stroke="midnightblue" points="153.635,-43.3911 163.987,-41.1338 154.487,-36.4431 153.635,-43.3911"/>
</g>
<!-- Node1194 -->
<g id="node3" class="node"><title>Node1194</title>
<g id="a_node3"><a xlink:href="usbhs_8h.xhtml#ad50e0487f36c3b575f0a509be89a103c" target="_top" xlink:title="Attach or detach USB. ">
<polygon fill="white" stroke="black" points="166,-0.5 166,-19.5 276,-19.5 276,-0.5 166,-0.5"/>
<text text-anchor="middle" x="221" y="-7.5" font-family="Helvetica,sans-Serif" font-size="10.00">USBHS_DetachUsb</text>
</a>
</g>
</g>
<!-- Node1192&#45;&gt;Node1194 -->
<g id="edge2" class="edge"><title>Node1192&#45;&gt;Node1194</title>
<path fill="none" stroke="midnightblue" d="M128.044,-21.272C137.179,-20.1523 146.591,-18.9985 155.749,-17.876"/>
<polygon fill="midnightblue" stroke="midnightblue" points="156.452,-21.3161 165.952,-16.6253 155.6,-14.3681 156.452,-21.3161"/>
</g>
</g>
</svg>
