<?xml version="1.0" encoding="UTF-8" standalone="no"?>
<!DOCTYPE svg PUBLIC "-//W3C//DTD SVG 1.1//EN"
 "http://www.w3.org/Graphics/SVG/1.1/DTD/svg11.dtd">
<!-- Generated by graphviz version 2.38.0 (20140413.2041)
 -->
<!-- Title: HIDDFunction_SetReport Pages: 1 -->
<svg width="314pt" height="142pt"
 viewBox="0.00 0.00 314.00 142.00" xmlns="http://www.w3.org/2000/svg" xmlns:xlink="http://www.w3.org/1999/xlink">
<g id="graph0" class="graph" transform="scale(1 1) rotate(0) translate(4 138)">
<title>HIDDFunction_SetReport</title>
<polygon fill="white" stroke="none" points="-4,4 -4,-138 310,-138 310,4 -4,4"/>
<!-- Node370 -->
<g id="node1" class="node"><title>Node370</title>
<polygon fill="#bfbfbf" stroke="black" points="0,-57.5 0,-76.5 134,-76.5 134,-57.5 0,-57.5"/>
<text text-anchor="middle" x="67" y="-64.5" font-family="Helvetica,sans-Serif" font-size="10.00">HIDDFunction_SetReport</text>
</g>
<!-- Node371 -->
<g id="node2" class="node"><title>Node371</title>
<g id="a_node2"><a xlink:href="group__usbd__hid.xhtml#ga7d389e7ee9a599c1eabe2714b683b4ff" target="_top" xlink:title="Return expected report header pointer. ">
<polygon fill="white" stroke="black" points="170,-114.5 170,-133.5 306,-133.5 306,-114.5 170,-114.5"/>
<text text-anchor="middle" x="238" y="-121.5" font-family="Helvetica,sans-Serif" font-size="10.00">HIDDFunction_FindReport</text>
</a>
</g>
</g>
<!-- Node370&#45;&gt;Node371 -->
<g id="edge1" class="edge"><title>Node370&#45;&gt;Node371</title>
<path fill="none" stroke="midnightblue" d="M92.1255,-76.6124C112.673,-84.6482 143.062,-96.1782 170,-105 176.952,-107.276 184.359,-109.538 191.62,-111.665"/>
<polygon fill="midnightblue" stroke="midnightblue" points="190.794,-115.069 201.372,-114.47 192.729,-108.342 190.794,-115.069"/>
</g>
<!-- Node372 -->
<g id="node3" class="node"><title>Node372</title>
<g id="a_node3"><a xlink:href="group__usbd__interface.xhtml#gad846cf5a2a002f83abe01d17d233f644" target="_top" xlink:title="Causes the given endpoint to acknowledge the next packet it receives with a STALL handshake...">
<polygon fill="white" stroke="red" points="202.5,-76.5 202.5,-95.5 273.5,-95.5 273.5,-76.5 202.5,-76.5"/>
<text text-anchor="middle" x="238" y="-83.5" font-family="Helvetica,sans-Serif" font-size="10.00">USBD_Stall</text>
</a>
</g>
</g>
<!-- Node370&#45;&gt;Node372 -->
<g id="edge2" class="edge"><title>Node370&#45;&gt;Node372</title>
<path fill="none" stroke="midnightblue" d="M134.308,-74.4548C153.788,-76.6448 174.622,-78.9871 192.399,-80.9857"/>
<polygon fill="midnightblue" stroke="midnightblue" points="192.15,-84.4797 202.479,-82.1189 192.932,-77.5235 192.15,-84.4797"/>
</g>
<!-- Node375 -->
<g id="node4" class="node"><title>Node375</title>
<g id="a_node4"><a xlink:href="group__usbd__interface.xhtml#gaa786fa9bbfd3c2f64b5f486e537ffebb" target="_top" xlink:title="Reads incoming data on an USB endpoint This methods sets the transfer descriptor and activate the end...">
<polygon fill="white" stroke="red" points="201,-38.5 201,-57.5 275,-57.5 275,-38.5 201,-38.5"/>
<text text-anchor="middle" x="238" y="-45.5" font-family="Helvetica,sans-Serif" font-size="10.00">USBD_Read</text>
</a>
</g>
</g>
<!-- Node370&#45;&gt;Node375 -->
<g id="edge3" class="edge"><title>Node370&#45;&gt;Node375</title>
<path fill="none" stroke="midnightblue" d="M134.308,-59.5452C152.994,-57.4445 172.925,-55.2037 190.208,-53.2606"/>
<polygon fill="midnightblue" stroke="midnightblue" points="191.046,-56.6885 200.593,-52.0931 190.264,-49.7323 191.046,-56.6885"/>
</g>
<!-- Node385 -->
<g id="node5" class="node"><title>Node385</title>
<g id="a_node5"><a xlink:href="group__usbd__hid.xhtml#ga95d42b4f9fe8b9a8e3151cd24827bdd8" target="_top" xlink:title="Callback function when GetReport request data sent to host. ">
<polygon fill="white" stroke="black" points="183.5,-0.5 183.5,-19.5 292.5,-19.5 292.5,-0.5 183.5,-0.5"/>
<text text-anchor="middle" x="238" y="-7.5" font-family="Helvetica,sans-Serif" font-size="10.00">_SetReportCallback</text>
</a>
</g>
</g>
<!-- Node370&#45;&gt;Node385 -->
<g id="edge4" class="edge"><title>Node370&#45;&gt;Node385</title>
<path fill="none" stroke="midnightblue" d="M92.1255,-57.3876C112.673,-49.3518 143.062,-37.8218 170,-29 176.952,-26.7235 184.359,-24.4618 191.62,-22.3351"/>
<polygon fill="midnightblue" stroke="midnightblue" points="192.729,-25.658 201.372,-19.53 190.794,-18.9308 192.729,-25.658"/>
</g>
</g>
</svg>
