<?xml version="1.0" encoding="UTF-8" standalone="no"?>
<!DOCTYPE svg PUBLIC "-//W3C//DTD SVG 1.1//EN"
 "http://www.w3.org/Graphics/SVG/1.1/DTD/svg11.dtd">
<!-- Generated by graphviz version 2.38.0 (20140413.2041)
 -->
<!-- Title: USBH_HAL_RunEndpoint Pages: 1 -->
<svg width="346pt" height="370pt"
 viewBox="0.00 0.00 346.00 370.00" xmlns="http://www.w3.org/2000/svg" xmlns:xlink="http://www.w3.org/1999/xlink">
<g id="graph0" class="graph" transform="scale(1 1) rotate(0) translate(4 366)">
<title>USBH_HAL_RunEndpoint</title>
<polygon fill="white" stroke="none" points="-4,4 -4,-366 342,-366 342,4 -4,4"/>
<!-- Node822 -->
<g id="node1" class="node"><title>Node822</title>
<polygon fill="#bfbfbf" stroke="black" points="0,-171.5 0,-190.5 134,-190.5 134,-171.5 0,-171.5"/>
<text text-anchor="middle" x="67" y="-178.5" font-family="Helvetica,sans-Serif" font-size="10.00">USBH_HAL_RunEndpoint</text>
</g>
<!-- Node823 -->
<g id="node2" class="node"><title>Node823</title>
<g id="a_node2"><a xlink:href="group__uhd__group.xhtml#ga38980ecff58f484bbb915b6efe6136b1" target="_top" xlink:title="USBH_HAL_GetPipe">
<polygon fill="white" stroke="red" points="197.5,-342.5 197.5,-361.5 310.5,-361.5 310.5,-342.5 197.5,-342.5"/>
<text text-anchor="middle" x="254" y="-349.5" font-family="Helvetica,sans-Serif" font-size="10.00">USBH_HAL_GetPipe</text>
</a>
</g>
</g>
<!-- Node822&#45;&gt;Node823 -->
<g id="edge1" class="edge"><title>Node822&#45;&gt;Node823</title>
<path fill="none" stroke="midnightblue" d="M71.5177,-190.683C81.9194,-217.87 115.272,-295.365 170,-333 175.356,-336.683 181.32,-339.661 187.526,-342.068"/>
<polygon fill="midnightblue" stroke="midnightblue" points="186.83,-345.527 197.424,-345.4 189.063,-338.893 186.83,-345.527"/>
</g>
<!-- Node827 -->
<g id="node3" class="node"><title>Node827</title>
<g id="a_node3"><a xlink:href="usbhs_8h.xhtml#a7e40c3d1763e18ec62b55c48edadedde" target="_top" xlink:title="Gets USB host interrupt status. ">
<polygon fill="white" stroke="black" points="192,-304.5 192,-323.5 316,-323.5 316,-304.5 192,-304.5"/>
<text text-anchor="middle" x="254" y="-311.5" font-family="Helvetica,sans-Serif" font-size="10.00">USBHS_HostGetToken</text>
</a>
</g>
</g>
<!-- Node822&#45;&gt;Node827 -->
<g id="edge2" class="edge"><title>Node822&#45;&gt;Node827</title>
<path fill="none" stroke="midnightblue" d="M73.7347,-190.769C87.3644,-213.068 124.023,-267.878 170,-295 173.901,-297.301 178.058,-299.324 182.352,-301.102"/>
<polygon fill="midnightblue" stroke="midnightblue" points="181.335,-304.457 191.929,-304.615 183.746,-297.885 181.335,-304.457"/>
</g>
<!-- Node828 -->
<g id="node4" class="node"><title>Node828</title>
<g id="a_node4"><a xlink:href="group__interrupt__group.xhtml#ga9931bf539005d3f12b461928823a0ae2" target="_top" xlink:title="cpu_irq_save">
<polygon fill="white" stroke="black" points="214.5,-266.5 214.5,-285.5 293.5,-285.5 293.5,-266.5 214.5,-266.5"/>
<text text-anchor="middle" x="254" y="-273.5" font-family="Helvetica,sans-Serif" font-size="10.00">cpu_irq_save</text>
</a>
</g>
</g>
<!-- Node822&#45;&gt;Node828 -->
<g id="edge3" class="edge"><title>Node822&#45;&gt;Node828</title>
<path fill="none" stroke="midnightblue" d="M77.7891,-190.553C94.9676,-206.764 132.309,-239.591 170,-257 180.691,-261.938 192.766,-265.643 204.328,-268.403"/>
<polygon fill="midnightblue" stroke="midnightblue" points="203.791,-271.869 214.308,-270.594 205.291,-265.031 203.791,-271.869"/>
</g>
<!-- Node829 -->
<g id="node5" class="node"><title>Node829</title>
<g id="a_node5"><a xlink:href="group__interrupt__group.xhtml#gae4d6d11a5211f6bd00353f280aa78f6f" target="_top" xlink:title="cpu_irq_restore">
<polygon fill="white" stroke="red" points="208.5,-228.5 208.5,-247.5 299.5,-247.5 299.5,-228.5 208.5,-228.5"/>
<text text-anchor="middle" x="254" y="-235.5" font-family="Helvetica,sans-Serif" font-size="10.00">cpu_irq_restore</text>
</a>
</g>
</g>
<!-- Node822&#45;&gt;Node829 -->
<g id="edge4" class="edge"><title>Node822&#45;&gt;Node829</title>
<path fill="none" stroke="midnightblue" d="M91.1999,-190.641C111.683,-198.911 142.482,-210.764 170,-219 179.144,-221.737 188.956,-224.302 198.517,-226.608"/>
<polygon fill="midnightblue" stroke="midnightblue" points="197.816,-230.038 208.351,-228.913 199.414,-223.223 197.816,-230.038"/>
</g>
<!-- Node831 -->
<g id="node6" class="node"><title>Node831</title>
<g id="a_node6"><a xlink:href="usbhs_8h.xhtml#a568fb6f40affb306e060461fe065a516" target="_top" xlink:title="Gets USB host interrupt status. ">
<polygon fill="white" stroke="black" points="185,-190.5 185,-209.5 323,-209.5 323,-190.5 185,-190.5"/>
<text text-anchor="middle" x="254" y="-197.5" font-family="Helvetica,sans-Serif" font-size="10.00">USBHS_HostGetPipeType</text>
</a>
</g>
</g>
<!-- Node822&#45;&gt;Node831 -->
<g id="edge5" class="edge"><title>Node822&#45;&gt;Node831</title>
<path fill="none" stroke="midnightblue" d="M134.006,-187.779C147.153,-189.129 161.081,-190.56 174.598,-191.948"/>
<polygon fill="midnightblue" stroke="midnightblue" points="174.529,-195.459 184.834,-192.999 175.244,-188.496 174.529,-195.459"/>
</g>
<!-- Node832 -->
<g id="node7" class="node"><title>Node832</title>
<g id="a_node7"><a xlink:href="usbhs_8h.xhtml#af33de4a77714a4669ec1d6c52847ce36" target="_top" xlink:title="Gets USB host interrupt status. ">
<polygon fill="white" stroke="black" points="178.5,-152.5 178.5,-171.5 329.5,-171.5 329.5,-152.5 178.5,-152.5"/>
<text text-anchor="middle" x="254" y="-159.5" font-family="Helvetica,sans-Serif" font-size="10.00">USBHS_HostDisableAutoSw</text>
</a>
</g>
</g>
<!-- Node822&#45;&gt;Node832 -->
<g id="edge6" class="edge"><title>Node822&#45;&gt;Node832</title>
<path fill="none" stroke="midnightblue" d="M134.006,-174.221C145.081,-173.084 156.71,-171.889 168.181,-170.711"/>
<polygon fill="midnightblue" stroke="midnightblue" points="168.612,-174.185 178.202,-169.682 167.897,-167.222 168.612,-174.185"/>
</g>
<!-- Node833 -->
<g id="node8" class="node"><title>Node833</title>
<g id="a_node8"><a xlink:href="usbhs_8h.xhtml#a32c56acaace52b440a308d9bce8cafff" target="_top" xlink:title="Gets USB host interrupt status. ">
<polygon fill="white" stroke="black" points="170,-114.5 170,-133.5 338,-133.5 338,-114.5 170,-114.5"/>
<text text-anchor="middle" x="254" y="-121.5" font-family="Helvetica,sans-Serif" font-size="10.00">USBHS_HostDisablePipeIntType</text>
</a>
</g>
</g>
<!-- Node822&#45;&gt;Node833 -->
<g id="edge7" class="edge"><title>Node822&#45;&gt;Node833</title>
<path fill="none" stroke="midnightblue" d="M91.1999,-171.359C111.683,-163.089 142.482,-151.236 170,-143 178.437,-140.475 187.443,-138.096 196.295,-135.932"/>
<polygon fill="midnightblue" stroke="midnightblue" points="197.265,-139.299 206.186,-133.583 195.648,-132.488 197.265,-139.299"/>
</g>
<!-- Node834 -->
<g id="node9" class="node"><title>Node834</title>
<g id="a_node9"><a xlink:href="usbhs_8h.xhtml#a25b8f588492bd5dfd9f527e3cf50d68e" target="_top" xlink:title="Gets USB host interrupt status. ">
<polygon fill="white" stroke="black" points="185.5,-76.5 185.5,-95.5 322.5,-95.5 322.5,-76.5 185.5,-76.5"/>
<text text-anchor="middle" x="254" y="-83.5" font-family="Helvetica,sans-Serif" font-size="10.00">USBHS_HostEnableInReq</text>
</a>
</g>
</g>
<!-- Node822&#45;&gt;Node834 -->
<g id="edge8" class="edge"><title>Node822&#45;&gt;Node834</title>
<path fill="none" stroke="midnightblue" d="M77.7891,-171.447C94.9676,-155.236 132.309,-122.409 170,-105 175.33,-102.538 181.005,-100.383 186.788,-98.4979"/>
<polygon fill="midnightblue" stroke="midnightblue" points="188,-101.789 196.582,-95.5754 185.998,-95.081 188,-101.789"/>
</g>
<!-- Node835 -->
<g id="node10" class="node"><title>Node835</title>
<g id="a_node10"><a xlink:href="usbhs_8h.xhtml#acd60bcdb7e5420ac4cfb8b457838f9ba" target="_top" xlink:title="Gets USB host interrupt status. ">
<polygon fill="white" stroke="black" points="171.5,-38.5 171.5,-57.5 336.5,-57.5 336.5,-38.5 171.5,-38.5"/>
<text text-anchor="middle" x="254" y="-45.5" font-family="Helvetica,sans-Serif" font-size="10.00">USBHS_HostEnablePipeIntType</text>
</a>
</g>
</g>
<!-- Node822&#45;&gt;Node835 -->
<g id="edge9" class="edge"><title>Node822&#45;&gt;Node835</title>
<path fill="none" stroke="midnightblue" d="M73.7347,-171.231C87.3644,-148.932 124.023,-94.1221 170,-67 173.828,-64.7421 177.901,-62.7524 182.109,-60.9992"/>
<polygon fill="midnightblue" stroke="midnightblue" points="183.331,-64.279 191.495,-57.5263 180.902,-57.714 183.331,-64.279"/>
</g>
<!-- Node836 -->
<g id="node11" class="node"><title>Node836</title>
<g id="a_node11"><a xlink:href="usbhs_8h.xhtml#abe033170285572938d1ed3fbb01e9c3e" target="_top" xlink:title="Gets USB host interrupt status. ">
<polygon fill="white" stroke="black" points="182,-0.5 182,-19.5 326,-19.5 326,-0.5 182,-0.5"/>
<text text-anchor="middle" x="254" y="-7.5" font-family="Helvetica,sans-Serif" font-size="10.00">USBHS_HostPipeIntEnable</text>
</a>
</g>
</g>
<!-- Node822&#45;&gt;Node836 -->
<g id="edge10" class="edge"><title>Node822&#45;&gt;Node836</title>
<path fill="none" stroke="midnightblue" d="M71.5177,-171.317C81.9194,-144.13 115.272,-66.635 170,-29 172.889,-27.0133 175.955,-25.2316 179.141,-23.6341"/>
<polygon fill="midnightblue" stroke="midnightblue" points="180.62,-26.8074 188.387,-19.6019 177.822,-20.3909 180.62,-26.8074"/>
</g>
</g>
</svg>
