<?xml version="1.0" encoding="UTF-8" standalone="no"?>
<!DOCTYPE svg PUBLIC "-//W3C//DTD SVG 1.1//EN"
 "http://www.w3.org/Graphics/SVG/1.1/DTD/svg11.dtd">
<!-- Generated by graphviz version 2.38.0 (20140413.2041)
 -->
<!-- Title: USB Transmitter Interface Macrocell Pages: 1 -->
<svg width="348pt" height="88pt"
 viewBox="0.00 0.00 348.00 88.00" xmlns="http://www.w3.org/2000/svg" xmlns:xlink="http://www.w3.org/1999/xlink">
<g id="graph0" class="graph" transform="scale(1 1) rotate(0) translate(4 84)">
<title>USB Transmitter Interface Macrocell</title>
<polygon fill="white" stroke="none" points="-4,4 -4,-84 344,-84 344,4 -4,4"/>
<!-- Node0 -->
<g id="node1" class="node"><title>Node0</title>
<polygon fill="#bfbfbf" stroke="black" points="0,-24.5 0,-54.5 140,-54.5 140,-24.5 0,-24.5"/>
<text text-anchor="start" x="8" y="-42.5" font-family="Helvetica,sans-Serif" font-size="10.00">USB Transmitter Interface</text>
<text text-anchor="middle" x="70" y="-31.5" font-family="Helvetica,sans-Serif" font-size="10.00"> Macrocell</text>
</g>
<!-- Node1 -->
<g id="node2" class="node"><title>Node1</title>
<g id="a_node2"><a xlink:href="group___s_a_m_e70___u_t_m_i.xhtml" target="_top" xlink:title="SOFTWARE API DEFINITION FOR USB Transmitter Interface Macrocell. ">
<polygon fill="white" stroke="black" points="200,-49.5 200,-79.5 340,-79.5 340,-49.5 200,-49.5"/>
<text text-anchor="start" x="208" y="-67.5" font-family="Helvetica,sans-Serif" font-size="10.00">USB Transmitter Interface</text>
<text text-anchor="middle" x="270" y="-56.5" font-family="Helvetica,sans-Serif" font-size="10.00"> Macrocell</text>
</a>
</g>
</g>
<!-- Node0&#45;&gt;Node1 -->
<g id="edge1" class="edge"><title>Node0&#45;&gt;Node1</title>
<path fill="none" stroke="orange" stroke-dasharray="5,2" d="M140.251,-48.2438C159.543,-50.6797 180.498,-53.3255 199.788,-55.7612"/>
<text text-anchor="middle" x="170" y="-55.5" font-family="Helvetica,sans-Serif" font-size="10.00">Utmi</text>
</g>
<!-- Node2 -->
<g id="node3" class="node"><title>Node2</title>
<g id="a_node3"><a xlink:href="group___s_a_m_s70___u_t_m_i.xhtml" target="_top" xlink:title="SOFTWARE API DEFINITION FOR USB Transmitter Interface Macrocell. ">
<polygon fill="white" stroke="black" points="200,-0.5 200,-30.5 340,-30.5 340,-0.5 200,-0.5"/>
<text text-anchor="start" x="208" y="-18.5" font-family="Helvetica,sans-Serif" font-size="10.00">USB Transmitter Interface</text>
<text text-anchor="middle" x="270" y="-7.5" font-family="Helvetica,sans-Serif" font-size="10.00"> Macrocell</text>
</a>
</g>
</g>
<!-- Node0&#45;&gt;Node2 -->
<g id="edge2" class="edge"><title>Node0&#45;&gt;Node2</title>
<path fill="none" stroke="orange" stroke-dasharray="5,2" d="M140.251,-31.106C159.543,-28.7675 180.498,-26.2275 199.788,-23.8893"/>
<text text-anchor="middle" x="170" y="-31.5" font-family="Helvetica,sans-Serif" font-size="10.00">Utmi</text>
</g>
</g>
</svg>
