<?xml version="1.0" encoding="UTF-8" standalone="no"?>
<!DOCTYPE svg PUBLIC "-//W3C//DTD SVG 1.1//EN"
 "http://www.w3.org/Graphics/SVG/1.1/DTD/svg11.dtd">
<!-- Generated by graphviz version 2.38.0 (20140413.2041)
 -->
<!-- Title: UDP_AddWr Pages: 1 -->
<svg width="215pt" height="66pt"
 viewBox="0.00 0.00 215.00 66.00" xmlns="http://www.w3.org/2000/svg" xmlns:xlink="http://www.w3.org/1999/xlink">
<g id="graph0" class="graph" transform="scale(1 1) rotate(0) translate(4 62)">
<title>UDP_AddWr</title>
<polygon fill="white" stroke="none" points="-4,4 -4,-62 211,-62 211,4 -4,4"/>
<!-- Node2 -->
<g id="node1" class="node"><title>Node2</title>
<polygon fill="#bfbfbf" stroke="black" points="0,-19.5 0,-38.5 73,-38.5 73,-19.5 0,-19.5"/>
<text text-anchor="middle" x="36.5" y="-26.5" font-family="Helvetica,sans-Serif" font-size="10.00">UDP_AddWr</text>
</g>
<!-- Node3 -->
<g id="node2" class="node"><title>Node3</title>
<g id="a_node2"><a xlink:href="group__udd__udphs__group.xhtml#gae90f972fe3687ee01b803027939cdb47" target="_top" xlink:title="if">
<polygon fill="white" stroke="black" points="143.5,-38.5 143.5,-57.5 172.5,-57.5 172.5,-38.5 143.5,-38.5"/>
<text text-anchor="middle" x="158" y="-45.5" font-family="Helvetica,sans-Serif" font-size="10.00">if</text>
</a>
</g>
</g>
<!-- Node2&#45;&gt;Node3 -->
<g id="edge1" class="edge"><title>Node2&#45;&gt;Node3</title>
<path fill="none" stroke="midnightblue" d="M73.0304,-34.6492C92.4448,-37.736 115.966,-41.4757 133.169,-44.211"/>
<polygon fill="midnightblue" stroke="midnightblue" points="133.03,-47.7327 143.455,-45.8465 134.129,-40.8196 133.03,-47.7327"/>
</g>
<!-- Node4 -->
<g id="node3" class="node"><title>Node4</title>
<g id="a_node3"><a xlink:href="group__usbd__hal.xhtml#ga57e97248d68838ee318ebeb26a85edaa" target="_top" xlink:title="Transfers a data payload from the current tranfer buffer to the endpoint FIFO. ">
<polygon fill="white" stroke="red" points="109,-0.5 109,-19.5 207,-19.5 207,-0.5 109,-0.5"/>
<text text-anchor="middle" x="158" y="-7.5" font-family="Helvetica,sans-Serif" font-size="10.00">UDP_MblWriteFifo</text>
</a>
</g>
</g>
<!-- Node2&#45;&gt;Node4 -->
<g id="edge2" class="edge"><title>Node2&#45;&gt;Node4</title>
<path fill="none" stroke="midnightblue" d="M73.0304,-23.3508C81.2283,-22.0474 90.1584,-20.6275 99.0359,-19.2161"/>
<polygon fill="midnightblue" stroke="midnightblue" points="99.6683,-22.6595 108.995,-17.6326 98.5691,-15.7464 99.6683,-22.6595"/>
</g>
</g>
</svg>
