<?xml version="1.0" encoding="UTF-8" standalone="no"?>
<!DOCTYPE svg PUBLIC "-//W3C//DTD SVG 1.1//EN"
 "http://www.w3.org/Graphics/SVG/1.1/DTD/svg11.dtd">
<!-- Generated by graphviz version 2.38.0 (20140413.2041)
 -->
<!-- Title: UHI for Human Interface Device Mouse Class Pages: 1 -->
<svg width="446pt" height="88pt"
 viewBox="0.00 0.00 446.00 88.00" xmlns="http://www.w3.org/2000/svg" xmlns:xlink="http://www.w3.org/1999/xlink">
<g id="graph0" class="graph" transform="scale(1 1) rotate(0) translate(4 84)">
<title>UHI for Human Interface Device Mouse Class</title>
<polygon fill="white" stroke="none" points="-4,4 -4,-84 442,-84 442,4 -4,4"/>
<!-- Node1 -->
<g id="node1" class="node"><title>Node1</title>
<g id="a_node1"><a xlink:href="group__uhi__group.xhtml" target="_top" xlink:title="The UHI provides a common API for all classes, and this is used by UHC for the main control of USB ho...">
<polygon fill="white" stroke="black" points="0,-24.5 0,-54.5 108,-54.5 108,-24.5 0,-24.5"/>
<text text-anchor="start" x="8" y="-42.5" font-family="Helvetica,sans-Serif" font-size="10.00">USB Host Interface</text>
<text text-anchor="middle" x="54" y="-31.5" font-family="Helvetica,sans-Serif" font-size="10.00"> (UHI)</text>
</a>
</g>
</g>
<!-- Node0 -->
<g id="node3" class="node"><title>Node0</title>
<polygon fill="#bfbfbf" stroke="black" points="144,-24.5 144,-54.5 277,-54.5 277,-24.5 144,-24.5"/>
<text text-anchor="start" x="152" y="-42.5" font-family="Helvetica,sans-Serif" font-size="10.00">UHI for Human Interface</text>
<text text-anchor="middle" x="210.5" y="-31.5" font-family="Helvetica,sans-Serif" font-size="10.00"> Device Mouse Class</text>
</g>
<!-- Node1&#45;&gt;Node0 -->
<g id="edge1" class="edge"><title>Node1&#45;&gt;Node0</title>
<path fill="none" stroke="black" d="M118.333,-39.5C126.781,-39.5 135.458,-39.5 143.943,-39.5"/>
<polygon fill="black" stroke="black" points="118.17,-36.0001 108.17,-39.5 118.17,-43.0001 118.17,-36.0001"/>
</g>
<!-- Node3 -->
<g id="node2" class="node"><title>Node3</title>
<g id="a_node2"><a xlink:href="group__uhi__hid__mouse__group__uhc.xhtml" target="_top" xlink:title="Define and functions required by UHC. ">
<polygon fill="white" stroke="black" points="323.5,-49.5 323.5,-79.5 427.5,-79.5 427.5,-49.5 323.5,-49.5"/>
<text text-anchor="start" x="331.5" y="-67.5" font-family="Helvetica,sans-Serif" font-size="10.00">Interface with USB</text>
<text text-anchor="middle" x="375.5" y="-56.5" font-family="Helvetica,sans-Serif" font-size="10.00"> Host Core (UHC)</text>
</a>
</g>
</g>
<!-- Node0&#45;&gt;Node3 -->
<g id="edge3" class="edge"><title>Node0&#45;&gt;Node3</title>
<path fill="none" stroke="black" d="M287.505,-51.1571C299.694,-53.0267 312.048,-54.9214 323.469,-56.6732"/>
<polygon fill="black" stroke="black" points="287.744,-47.6529 277.328,-49.5964 286.682,-54.572 287.744,-47.6529"/>
</g>
<!-- Node2 -->
<g id="node4" class="node"><title>Node2</title>
<g id="a_node4"><a xlink:href="group__uhi__hid__mouse__group__internal.xhtml" target="_top" xlink:title="Class internal implementation. ">
<polygon fill="white" stroke="black" points="313,-0.5 313,-30.5 438,-30.5 438,-0.5 313,-0.5"/>
<text text-anchor="start" x="321" y="-18.5" font-family="Helvetica,sans-Serif" font-size="10.00">Implementation of UHI</text>
<text text-anchor="middle" x="375.5" y="-7.5" font-family="Helvetica,sans-Serif" font-size="10.00"> HID Mouse</text>
</a>
</g>
</g>
<!-- Node0&#45;&gt;Node2 -->
<g id="edge2" class="edge"><title>Node0&#45;&gt;Node2</title>
<path fill="none" stroke="black" d="M287.328,-28.3351C295.899,-27.0732 304.553,-25.7989 312.91,-24.5684"/>
<polygon fill="black" stroke="black" points="286.712,-24.888 277.328,-29.8075 287.732,-31.8134 286.712,-24.888"/>
</g>
</g>
</svg>
