<?xml version="1.0" encoding="UTF-8" standalone="no"?>
<!DOCTYPE svg PUBLIC "-//W3C//DTD SVG 1.1//EN"
 "http://www.w3.org/Graphics/SVG/1.1/DTD/svg11.dtd">
<!-- Generated by graphviz version 2.38.0 (20140413.2041)
 -->
<!-- Title: True Random Number Generator Pages: 1 -->
<svg width="306pt" height="88pt"
 viewBox="0.00 0.00 306.00 88.00" xmlns="http://www.w3.org/2000/svg" xmlns:xlink="http://www.w3.org/1999/xlink">
<g id="graph0" class="graph" transform="scale(1 1) rotate(0) translate(4 84)">
<title>True Random Number Generator</title>
<polygon fill="white" stroke="none" points="-4,4 -4,-84 302,-84 302,4 -4,4"/>
<!-- Node2 -->
<g id="node1" class="node"><title>Node2</title>
<g id="a_node1"><a xlink:href="group___s_a_m_v71___t_r_n_g.xhtml" target="_top" xlink:title="SOFTWARE API DEFINITION FOR True Random Number Generator. ">
<polygon fill="white" stroke="black" points="177,-49.5 177,-79.5 298,-79.5 298,-49.5 177,-49.5"/>
<text text-anchor="start" x="185" y="-67.5" font-family="Helvetica,sans-Serif" font-size="10.00">True Random Number</text>
<text text-anchor="middle" x="237.5" y="-56.5" font-family="Helvetica,sans-Serif" font-size="10.00"> Generator</text>
</a>
</g>
</g>
<!-- Node0 -->
<g id="node2" class="node"><title>Node0</title>
<polygon fill="#bfbfbf" stroke="black" points="0,-24.5 0,-54.5 121,-54.5 121,-24.5 0,-24.5"/>
<text text-anchor="start" x="8" y="-42.5" font-family="Helvetica,sans-Serif" font-size="10.00">True Random Number</text>
<text text-anchor="middle" x="60.5" y="-31.5" font-family="Helvetica,sans-Serif" font-size="10.00"> Generator</text>
</g>
<!-- Node0&#45;&gt;Node2 -->
<g id="edge2" class="edge"><title>Node0&#45;&gt;Node2</title>
<path fill="none" stroke="orange" stroke-dasharray="5,2" d="M121.236,-48.0337C139.157,-50.5939 158.813,-53.4019 176.737,-55.9624"/>
<text text-anchor="middle" x="149" y="-55.5" font-family="Helvetica,sans-Serif" font-size="10.00">Trng</text>
</g>
<!-- Node1 -->
<g id="node3" class="node"><title>Node1</title>
<g id="a_node3"><a xlink:href="group___s_a_m_s70___t_r_n_g.xhtml" target="_top" xlink:title="SOFTWARE API DEFINITION FOR True Random Number Generator. ">
<polygon fill="white" stroke="black" points="177,-0.5 177,-30.5 298,-30.5 298,-0.5 177,-0.5"/>
<text text-anchor="start" x="185" y="-18.5" font-family="Helvetica,sans-Serif" font-size="10.00">True Random Number</text>
<text text-anchor="middle" x="237.5" y="-7.5" font-family="Helvetica,sans-Serif" font-size="10.00"> Generator</text>
</a>
</g>
</g>
<!-- Node0&#45;&gt;Node1 -->
<g id="edge1" class="edge"><title>Node0&#45;&gt;Node1</title>
<path fill="none" stroke="orange" stroke-dasharray="5,2" d="M121.236,-31.3077C139.157,-28.8498 158.813,-26.1542 176.737,-23.6961"/>
<text text-anchor="middle" x="149" y="-30.5" font-family="Helvetica,sans-Serif" font-size="10.00">Trng</text>
</g>
</g>
</svg>
