<?xml version="1.0" encoding="UTF-8" standalone="no"?>
<!DOCTYPE svg PUBLIC "-//W3C//DTD SVG 1.1//EN"
 "http://www.w3.org/Graphics/SVG/1.1/DTD/svg11.dtd">
<!-- Generated by graphviz version 2.38.0 (20140413.2041)
 -->
<!-- Title: HIDD Keyboard Driver Definitions Pages: 1 -->
<svg width="402pt" height="78pt"
 viewBox="0.00 0.00 402.00 77.50" xmlns="http://www.w3.org/2000/svg" xmlns:xlink="http://www.w3.org/1999/xlink">
<g id="graph0" class="graph" transform="scale(1 1) rotate(0) translate(4 73.5)">
<title>HIDD Keyboard Driver Definitions</title>
<polygon fill="white" stroke="none" points="-4,4 -4,-73.5 398,-73.5 398,4 -4,4"/>
<!-- Node2 -->
<g id="node1" class="node"><title>Node2</title>
<g id="a_node1"><a xlink:href="group__usbd__hid__kbd__keys.xhtml" target="_top" xlink:title="This page lists definition for HID keypad keys. ">
<polygon fill="white" stroke="black" points="286.5,-50 286.5,-69 382.5,-69 382.5,-50 286.5,-50"/>
<text text-anchor="middle" x="334.5" y="-57" font-family="Helvetica,sans-Serif" font-size="10.00">HID Keypad keys</text>
</a>
</g>
</g>
<!-- Node3 -->
<g id="node2" class="node"><title>Node3</title>
<g id="a_node2"><a xlink:href="group__usbd__hid__kbd__polling.xhtml" target="_top" xlink:title="HID Keyboard Default\l Polling Rates">
<polygon fill="white" stroke="black" points="275,-0.5 275,-30.5 394,-30.5 394,-0.5 275,-0.5"/>
<text text-anchor="start" x="283" y="-18.5" font-family="Helvetica,sans-Serif" font-size="10.00">HID Keyboard Default</text>
<text text-anchor="middle" x="334.5" y="-7.5" font-family="Helvetica,sans-Serif" font-size="10.00"> Polling Rates</text>
</a>
</g>
</g>
<!-- Node1 -->
<g id="node3" class="node"><title>Node1</title>
<g id="a_node3"><a xlink:href="group__usbd__hid__key.xhtml" target="_top" xlink:title="Implement HID Keyboard Function For USB Device. ">
<polygon fill="white" stroke="black" points="0,-28 0,-47 83,-47 83,-28 0,-28"/>
<text text-anchor="middle" x="41.5" y="-35" font-family="Helvetica,sans-Serif" font-size="10.00">Usbd_hid_key</text>
</a>
</g>
</g>
<!-- Node0 -->
<g id="node4" class="node"><title>Node0</title>
<polygon fill="#bfbfbf" stroke="black" points="119,-22.5 119,-52.5 239,-52.5 239,-22.5 119,-22.5"/>
<text text-anchor="start" x="127" y="-40.5" font-family="Helvetica,sans-Serif" font-size="10.00">HIDD Keyboard Driver</text>
<text text-anchor="middle" x="179" y="-29.5" font-family="Helvetica,sans-Serif" font-size="10.00"> Definitions</text>
</g>
<!-- Node1&#45;&gt;Node0 -->
<g id="edge1" class="edge"><title>Node1&#45;&gt;Node0</title>
<path fill="none" stroke="black" d="M93.4255,-37.5C101.718,-37.5 110.369,-37.5 118.839,-37.5"/>
<polygon fill="black" stroke="black" points="93.1545,-34.0001 83.1545,-37.5 93.1544,-41.0001 93.1545,-34.0001"/>
</g>
<!-- Node0&#45;&gt;Node2 -->
<g id="edge2" class="edge"><title>Node0&#45;&gt;Node2</title>
<path fill="none" stroke="black" d="M249.279,-47.4292C261.765,-49.2188 274.519,-51.0466 286.199,-52.7207"/>
<polygon fill="black" stroke="black" points="249.743,-43.96 239.347,-46.0058 248.749,-50.8892 249.743,-43.96"/>
</g>
<!-- Node0&#45;&gt;Node3 -->
<g id="edge3" class="edge"><title>Node0&#45;&gt;Node3</title>
<path fill="none" stroke="black" d="M249.279,-27.5708C257.809,-26.3482 266.464,-25.1078 274.816,-23.9107"/>
<polygon fill="black" stroke="black" points="248.749,-24.1108 239.347,-28.9942 249.743,-31.04 248.749,-24.1108"/>
</g>
</g>
</svg>
