<?xml version="1.0" encoding="UTF-8" standalone="no"?>
<!DOCTYPE svg PUBLIC "-//W3C//DTD SVG 1.1//EN"
 "http://www.w3.org/Graphics/SVG/1.1/DTD/svg11.dtd">
<!-- Generated by graphviz version 2.38.0 (20140413.2041)
 -->
<!-- Title: USBD_GetDriver Pages: 1 -->
<svg width="522pt" height="1572pt"
 viewBox="0.00 0.00 522.00 1571.50" xmlns="http://www.w3.org/2000/svg" xmlns:xlink="http://www.w3.org/1999/xlink">
<g id="graph0" class="graph" transform="scale(1 1) rotate(0) translate(4 1567.5)">
<title>USBD_GetDriver</title>
<polygon fill="white" stroke="none" points="-4,4 -4,-1567.5 518,-1567.5 518,4 -4,4"/>
<!-- Node530 -->
<g id="node1" class="node"><title>Node530</title>
<polygon fill="#bfbfbf" stroke="black" points="0,-777 0,-796 96,-796 96,-777 0,-777"/>
<text text-anchor="middle" x="48" y="-784" font-family="Helvetica,sans-Serif" font-size="10.00">USBD_GetDriver</text>
</g>
<!-- Node531 -->
<g id="node2" class="node"><title>Node531</title>
<g id="a_node2"><a xlink:href="group__usbd__audio__speaker.xhtml#gafa5432b98a55735fdd034c32343743d9" target="_top" xlink:title="Initializes an USB audio speaker device driver, as well as the underlying USB controller. ">
<polygon fill="white" stroke="black" points="141,-1544 141,-1563 299,-1563 299,-1544 141,-1544"/>
<text text-anchor="middle" x="220" y="-1551" font-family="Helvetica,sans-Serif" font-size="10.00">AUDDSpeakerDriver_Initialize</text>
</a>
</g>
</g>
<!-- Node530&#45;&gt;Node531 -->
<g id="edge1" class="edge"><title>Node530&#45;&gt;Node531</title>
<path fill="none" stroke="midnightblue" d="M49.8324,-806.208C54.7679,-918.907 81.7019,-1478.65 132,-1534.5 135.414,-1538.29 139.394,-1541.42 143.736,-1544"/>
<polygon fill="midnightblue" stroke="midnightblue" points="53.3292,-806.057 49.4017,-796.217 46.3357,-806.359 53.3292,-806.057"/>
</g>
<!-- Node532 -->
<g id="node3" class="node"><title>Node532</title>
<g id="a_node3"><a xlink:href="group__usbd__audio__speakerphone.xhtml#ga18c37c223b7436c8682fda3e570341d3" target="_top" xlink:title="Initializes an USB audio SpeakerPhone device driver, as well as the underlying USB controller...">
<polygon fill="white" stroke="black" points="148,-1494.5 148,-1524.5 292,-1524.5 292,-1494.5 148,-1494.5"/>
<text text-anchor="start" x="156" y="-1512.5" font-family="Helvetica,sans-Serif" font-size="10.00">AUDDSpeakerPhoneDriver</text>
<text text-anchor="middle" x="220" y="-1501.5" font-family="Helvetica,sans-Serif" font-size="10.00">_Initialize</text>
</a>
</g>
</g>
<!-- Node530&#45;&gt;Node532 -->
<g id="edge2" class="edge"><title>Node530&#45;&gt;Node532</title>
<path fill="none" stroke="midnightblue" d="M50.053,-806.166C55.9978,-914.064 86.7133,-1431.24 132,-1484.5 136.377,-1489.65 141.739,-1493.77 147.63,-1497.07"/>
<polygon fill="midnightblue" stroke="midnightblue" points="53.5405,-805.839 49.5024,-796.044 46.5508,-806.219 53.5405,-805.839"/>
</g>
<!-- Node533 -->
<g id="node4" class="node"><title>Node533</title>
<g id="a_node4"><a xlink:href="group__usbd__cdc.xhtml#ga474c6e12f50626640933b9400b89b03c" target="_top" xlink:title="Initializes the USB Device CDC serial driver &amp; USBD Driver. ">
<polygon fill="white" stroke="black" points="151.5,-1456 151.5,-1475 288.5,-1475 288.5,-1456 151.5,-1456"/>
<text text-anchor="middle" x="220" y="-1463" font-family="Helvetica,sans-Serif" font-size="10.00">CDCDEEMDriver_Initialize</text>
</a>
</g>
</g>
<!-- Node530&#45;&gt;Node533 -->
<g id="edge3" class="edge"><title>Node530&#45;&gt;Node533</title>
<path fill="none" stroke="midnightblue" d="M50.132,-806.113C56.3299,-910.489 87.5072,-1397.82 132,-1446.5 137.319,-1452.32 143.972,-1456.58 151.216,-1459.66"/>
<polygon fill="midnightblue" stroke="midnightblue" points="53.6204,-805.81 49.5409,-796.032 46.6324,-806.22 53.6204,-805.81"/>
</g>
<!-- Node534 -->
<g id="node5" class="node"><title>Node534</title>
<g id="a_node5"><a xlink:href="group__usbd__cdc.xhtml#gaf39ba7b7516aa693368fb4bacebcabb3" target="_top" xlink:title="Invoked whenever the active configuration of device is changed by the host. ">
<polygon fill="white" stroke="black" points="138.5,-1406.5 138.5,-1436.5 301.5,-1436.5 301.5,-1406.5 138.5,-1406.5"/>
<text text-anchor="start" x="146.5" y="-1424.5" font-family="Helvetica,sans-Serif" font-size="10.00">CDCDEEMDriver_Configuration</text>
<text text-anchor="middle" x="220" y="-1413.5" font-family="Helvetica,sans-Serif" font-size="10.00">ChangedHandler</text>
</a>
</g>
</g>
<!-- Node530&#45;&gt;Node534 -->
<g id="edge4" class="edge"><title>Node530&#45;&gt;Node534</title>
<path fill="none" stroke="midnightblue" d="M48.8968,-806.417C48.8112,-901.15 53.135,-1305.32 132,-1396.5 135.29,-1400.3 139.117,-1403.55 143.295,-1406.31"/>
<polygon fill="midnightblue" stroke="midnightblue" points="52.3972,-806.233 48.9254,-796.223 45.3973,-806.214 52.3972,-806.233"/>
</g>
<!-- Node535 -->
<g id="node6" class="node"><title>Node535</title>
<g id="a_node6"><a xlink:href="group__usbd__cdc.xhtml#gaaa153bf1169562e3a7b2249889e95a17" target="_top" xlink:title="Handles CDC&#45;specific SETUP requests. ">
<polygon fill="white" stroke="black" points="132.5,-1368 132.5,-1387 307.5,-1387 307.5,-1368 132.5,-1368"/>
<text text-anchor="middle" x="220" y="-1375" font-family="Helvetica,sans-Serif" font-size="10.00">CDCDEEMDriver_RequestHandler</text>
</a>
</g>
</g>
<!-- Node530&#45;&gt;Node535 -->
<g id="edge5" class="edge"><title>Node530&#45;&gt;Node535</title>
<path fill="none" stroke="midnightblue" d="M48.9721,-806.141C49.2556,-897.036 55.096,-1275.94 132,-1358.5 135.477,-1362.23 139.504,-1365.32 143.88,-1367.86"/>
<polygon fill="midnightblue" stroke="midnightblue" points="52.4721,-806.1 48.9611,-796.104 45.4721,-806.108 52.4721,-806.1"/>
</g>
<!-- Node536 -->
<g id="node7" class="node"><title>Node536</title>
<g id="a_node7"><a xlink:href="group__usbd__cdc.xhtml#ga191a619ddb7cfdac13b7d8f04349e3ef" target="_top" xlink:title="Initializes the USB Device CDC serial driver &amp; USBD Driver. ">
<polygon fill="white" stroke="red" points="148,-1330 148,-1349 292,-1349 292,-1330 148,-1330"/>
<text text-anchor="middle" x="220" y="-1337" font-family="Helvetica,sans-Serif" font-size="10.00">CDCDSerialDriver_Initialize</text>
</a>
</g>
</g>
<!-- Node530&#45;&gt;Node536 -->
<g id="edge6" class="edge"><title>Node530&#45;&gt;Node536</title>
<path fill="none" stroke="midnightblue" d="M49.2001,-806.481C50.4966,-894.196 60.162,-1244.15 132,-1320.5 136.45,-1325.23 141.781,-1328.92 147.585,-1331.78"/>
<polygon fill="midnightblue" stroke="midnightblue" points="52.6976,-806.256 49.0712,-796.301 45.6982,-806.345 52.6976,-806.256"/>
</g>
<!-- Node543 -->
<g id="node8" class="node"><title>Node543</title>
<g id="a_node8"><a xlink:href="group__usbd__cdc.xhtml#ga6435498b62ec6c1d4378563f68767120" target="_top" xlink:title="Invoked whenever the active configuration of device is changed by the host. ">
<polygon fill="white" stroke="red" points="135,-1280.5 135,-1310.5 305,-1310.5 305,-1280.5 135,-1280.5"/>
<text text-anchor="start" x="143" y="-1298.5" font-family="Helvetica,sans-Serif" font-size="10.00">CDCDSerialDriver_Configuration</text>
<text text-anchor="middle" x="220" y="-1287.5" font-family="Helvetica,sans-Serif" font-size="10.00">ChangedHandler</text>
</a>
</g>
</g>
<!-- Node530&#45;&gt;Node543 -->
<g id="edge7" class="edge"><title>Node530&#45;&gt;Node543</title>
<path fill="none" stroke="midnightblue" d="M49.6529,-806.615C52.7386,-889.221 68.4882,-1201.32 132,-1271.5 135.049,-1274.87 138.524,-1277.78 142.288,-1280.3"/>
<polygon fill="midnightblue" stroke="midnightblue" points="53.1342,-806.02 49.2853,-796.149 46.1385,-806.266 53.1342,-806.02"/>
</g>
<!-- Node545 -->
<g id="node9" class="node"><title>Node545</title>
<g id="a_node9"><a xlink:href="group__usbd__cdc.xhtml#ga494662f08154675457d9953fbced331a" target="_top" xlink:title="Handles CDC&#45;specific SETUP requests. ">
<polygon fill="white" stroke="red" points="148,-1231.5 148,-1261.5 292,-1261.5 292,-1231.5 148,-1231.5"/>
<text text-anchor="start" x="156" y="-1249.5" font-family="Helvetica,sans-Serif" font-size="10.00">CDCDSerialDriver_Request</text>
<text text-anchor="middle" x="220" y="-1238.5" font-family="Helvetica,sans-Serif" font-size="10.00">Handler</text>
</a>
</g>
</g>
<!-- Node530&#45;&gt;Node545 -->
<g id="edge8" class="edge"><title>Node530&#45;&gt;Node545</title>
<path fill="none" stroke="midnightblue" d="M50.0978,-806.474C54.7198,-883.374 75.0618,-1159.11 132,-1221.5 136.555,-1226.49 142.035,-1230.51 148,-1233.75"/>
<polygon fill="midnightblue" stroke="midnightblue" points="53.5786,-806.04 49.5074,-796.259 46.5903,-806.444 53.5786,-806.04"/>
</g>
<!-- Node547 -->
<g id="node10" class="node"><title>Node547</title>
<g id="a_node10"><a xlink:href="group__usbd__composite__cdcaud.xhtml#ga2d915234404b63bf5439b3bef75bfaae" target="_top" xlink:title="Initializes the USB device composite device driver. ">
<polygon fill="white" stroke="black" points="150.5,-1193 150.5,-1212 289.5,-1212 289.5,-1193 150.5,-1193"/>
<text text-anchor="middle" x="220" y="-1200" font-family="Helvetica,sans-Serif" font-size="10.00">CDCAUDDDriver_Initialize</text>
</a>
</g>
</g>
<!-- Node530&#45;&gt;Node547 -->
<g id="edge9" class="edge"><title>Node530&#45;&gt;Node547</title>
<path fill="none" stroke="midnightblue" d="M50.3484,-806.222C55.7069,-878.695 77.8919,-1128.91 132,-1183.5 137.224,-1188.77 143.547,-1192.73 150.375,-1195.69"/>
<polygon fill="midnightblue" stroke="midnightblue" points="53.8343,-805.899 49.6306,-796.174 46.8521,-806.398 53.8343,-805.899"/>
</g>
<!-- Node548 -->
<g id="node11" class="node"><title>Node548</title>
<g id="a_node11"><a xlink:href="group__usbd__composite__cdcaud.xhtml#gae3b857caf03672721667a11656b023ed" target="_top" xlink:title="Invoked whenever the configuration value of a device is changed by the host. ">
<polygon fill="white" stroke="black" points="138,-1143.5 138,-1173.5 302,-1173.5 302,-1143.5 138,-1143.5"/>
<text text-anchor="start" x="146" y="-1161.5" font-family="Helvetica,sans-Serif" font-size="10.00">CDCAUDDDriver_Configuration</text>
<text text-anchor="middle" x="220" y="-1150.5" font-family="Helvetica,sans-Serif" font-size="10.00">ChangedHandler</text>
</a>
</g>
</g>
<!-- Node530&#45;&gt;Node548 -->
<g id="edge10" class="edge"><title>Node530&#45;&gt;Node548</title>
<path fill="none" stroke="midnightblue" d="M51.1086,-806.155C58.5839,-872.281 85.8735,-1085.25 132,-1133.5 135.692,-1137.36 139.938,-1140.64 144.526,-1143.42"/>
<polygon fill="midnightblue" stroke="midnightblue" points="54.5873,-805.769 50.0104,-796.213 47.6296,-806.537 54.5873,-805.769"/>
</g>
<!-- Node549 -->
<g id="node12" class="node"><title>Node549</title>
<g id="a_node12"><a xlink:href="group__usbd__composite__cdcaud.xhtml#ga8c3816c9ea002bccdb6b27d3ffe6b8e7" target="_top" xlink:title="Handles composite&#45;specific USB requests sent by the host, and forwards standard ones to the USB devic...">
<polygon fill="white" stroke="black" points="132,-1105 132,-1124 308,-1124 308,-1105 132,-1105"/>
<text text-anchor="middle" x="220" y="-1112" font-family="Helvetica,sans-Serif" font-size="10.00">CDCAUDDDriver_RequestHandler</text>
</a>
</g>
</g>
<!-- Node530&#45;&gt;Node549 -->
<g id="edge11" class="edge"><title>Node530&#45;&gt;Node549</title>
<path fill="none" stroke="midnightblue" d="M51.5876,-806.072C60.0971,-867.47 89.1435,-1054.63 132,-1095.5 135.916,-1099.23 140.387,-1102.3 145.189,-1104.82"/>
<polygon fill="midnightblue" stroke="midnightblue" points="55.052,-805.573 50.2389,-796.134 48.1156,-806.514 55.052,-805.573"/>
</g>
<!-- Node550 -->
<g id="node13" class="node"><title>Node550</title>
<g id="a_node13"><a xlink:href="group__usbd__composite__cdchid.xhtml#ga694d3e24a8bf7913671fb0d9a777b1eb" target="_top" xlink:title="Initializes the USB device composite device driver. ">
<polygon fill="white" stroke="black" points="153,-1067 153,-1086 287,-1086 287,-1067 153,-1067"/>
<text text-anchor="middle" x="220" y="-1074" font-family="Helvetica,sans-Serif" font-size="10.00">CDCHIDDDriver_Initialize</text>
</a>
</g>
</g>
<!-- Node530&#45;&gt;Node550 -->
<g id="edge12" class="edge"><title>Node530&#45;&gt;Node550</title>
<path fill="none" stroke="midnightblue" d="M48.7354,-806.323C49.2108,-856.455 57.7921,-989.153 132,-1057.5 137.913,-1062.95 145.014,-1066.96 152.576,-1069.91"/>
<polygon fill="midnightblue" stroke="midnightblue" points="52.2354,-806.184 48.7447,-796.18 45.2354,-806.177 52.2354,-806.184"/>
</g>
<!-- Node551 -->
<g id="node14" class="node"><title>Node551</title>
<g id="a_node14"><a xlink:href="group__usbd__composite__cdchid.xhtml#gaae1fea56d3b2b270cf6d04ef55c45227" target="_top" xlink:title="Invoked whenever the configuration value of a device is changed by the host. ">
<polygon fill="white" stroke="black" points="140,-1017.5 140,-1047.5 300,-1047.5 300,-1017.5 140,-1017.5"/>
<text text-anchor="start" x="148" y="-1035.5" font-family="Helvetica,sans-Serif" font-size="10.00">CDCHIDDDriver_Configuration</text>
<text text-anchor="middle" x="220" y="-1024.5" font-family="Helvetica,sans-Serif" font-size="10.00">ChangedHandler</text>
</a>
</g>
</g>
<!-- Node530&#45;&gt;Node551 -->
<g id="edge13" class="edge"><title>Node530&#45;&gt;Node551</title>
<path fill="none" stroke="midnightblue" d="M50.5872,-806.131C55.1309,-849.11 72.0238,-952.109 132,-1007.5 136.156,-1011.34 140.864,-1014.59 145.886,-1017.35"/>
<polygon fill="midnightblue" stroke="midnightblue" points="54.0669,-805.75 49.643,-796.123 47.0978,-806.408 54.0669,-805.75"/>
</g>
<!-- Node552 -->
<g id="node15" class="node"><title>Node552</title>
<g id="a_node15"><a xlink:href="group__usbd__composite__cdchid.xhtml#ga46e7faa6d6c89af2674263a70d7d2ef4" target="_top" xlink:title="Handles composite&#45;specific USB requests sent by the host, and forwards standard ones to the USB devic...">
<polygon fill="white" stroke="black" points="134,-979 134,-998 306,-998 306,-979 134,-979"/>
<text text-anchor="middle" x="220" y="-986" font-family="Helvetica,sans-Serif" font-size="10.00">CDCHIDDDriver_RequestHandler</text>
</a>
</g>
</g>
<!-- Node530&#45;&gt;Node552 -->
<g id="edge14" class="edge"><title>Node530&#45;&gt;Node552</title>
<path fill="none" stroke="midnightblue" d="M52.0906,-806.583C59.0504,-844.623 79.6379,-927.156 132,-969.5 136.688,-973.291 141.967,-976.368 147.548,-978.861"/>
<polygon fill="midnightblue" stroke="midnightblue" points="55.4697,-805.575 50.3481,-796.3 48.568,-806.744 55.4697,-805.575"/>
</g>
<!-- Node553 -->
<g id="node16" class="node"><title>Node553</title>
<g id="a_node16"><a xlink:href="group__usbd__composite__cdchid.xhtml#ga51a0a0946e7ed9ff0abd033ae9fe5f92" target="_top" xlink:title="Starts a remote wake&#45;up sequence if the host has explicitely enabled it by sending the appropriate SE...">
<polygon fill="white" stroke="black" points="134.5,-941 134.5,-960 305.5,-960 305.5,-941 134.5,-941"/>
<text text-anchor="middle" x="220" y="-948" font-family="Helvetica,sans-Serif" font-size="10.00">CDCHIDDDriver_RemoteWakeUp</text>
</a>
</g>
</g>
<!-- Node530&#45;&gt;Node553 -->
<g id="edge15" class="edge"><title>Node530&#45;&gt;Node553</title>
<path fill="none" stroke="midnightblue" d="M54.4563,-805.905C64.3797,-837.461 88.4856,-899.575 132,-931.5 137.235,-935.341 143.095,-938.433 149.232,-940.919"/>
<polygon fill="midnightblue" stroke="midnightblue" points="57.7477,-804.695 51.5292,-796.117 51.0412,-806.701 57.7477,-804.695"/>
</g>
<!-- Node554 -->
<g id="node17" class="node"><title>Node554</title>
<g id="a_node17"><a xlink:href="group__usbd__composite__cdcmsd.xhtml#ga6c15e7caf5edeac9cbe9e2a4c858c7d0" target="_top" xlink:title="Initializes the USB device CDCMSD device driver. ">
<polygon fill="white" stroke="black" points="154,-903 154,-922 286,-922 286,-903 154,-903"/>
<text text-anchor="middle" x="220" y="-910" font-family="Helvetica,sans-Serif" font-size="10.00">CDCMSDDriver_Initialize</text>
</a>
</g>
</g>
<!-- Node530&#45;&gt;Node554 -->
<g id="edge16" class="edge"><title>Node530&#45;&gt;Node554</title>
<path fill="none" stroke="midnightblue" d="M58.0475,-804.937C70.9653,-829.227 97.0528,-871.442 132,-893.5 138.668,-897.708 146.131,-900.994 153.81,-903.558"/>
<polygon fill="midnightblue" stroke="midnightblue" points="61.1495,-803.316 53.4694,-796.017 54.9219,-806.512 61.1495,-803.316"/>
</g>
<!-- Node555 -->
<g id="node18" class="node"><title>Node555</title>
<g id="a_node18"><a xlink:href="group__usbd__composite__cdcmsd.xhtml#gaa7ae001e3db16158a74b9d29c1918ac9" target="_top" xlink:title="Invoked whenever the configuration value of a device is changed by the host. ">
<polygon fill="white" stroke="black" points="141,-853.5 141,-883.5 299,-883.5 299,-853.5 141,-853.5"/>
<text text-anchor="start" x="149" y="-871.5" font-family="Helvetica,sans-Serif" font-size="10.00">CDCMSDDriver_Configuration</text>
<text text-anchor="middle" x="220" y="-860.5" font-family="Helvetica,sans-Serif" font-size="10.00">ChangedHandler</text>
</a>
</g>
</g>
<!-- Node530&#45;&gt;Node555 -->
<g id="edge17" class="edge"><title>Node530&#45;&gt;Node555</title>
<path fill="none" stroke="midnightblue" d="M70.5542,-801.917C86.8665,-813.103 110.124,-828.044 132,-838.5 143.676,-844.081 156.673,-849.133 168.987,-853.433"/>
<polygon fill="midnightblue" stroke="midnightblue" points="72.4657,-798.983 62.2591,-796.141 68.4658,-804.728 72.4657,-798.983"/>
</g>
<!-- Node556 -->
<g id="node19" class="node"><title>Node556</title>
<g id="a_node19"><a xlink:href="group__usbd__composite__cdcmsd.xhtml#ga6c71fe00bc7822fec2af273fbc9c2ba0" target="_top" xlink:title="Handles CDCMSD&#45;specific USB requests sent by the host, and forwards standard ones to the USB device d...">
<polygon fill="white" stroke="black" points="344,-805 344,-824 514,-824 514,-805 344,-805"/>
<text text-anchor="middle" x="429" y="-812" font-family="Helvetica,sans-Serif" font-size="10.00">CDCMSDDriver_RequestHandler</text>
</a>
</g>
</g>
<!-- Node530&#45;&gt;Node556 -->
<g id="edge18" class="edge"><title>Node530&#45;&gt;Node556</title>
<path fill="none" stroke="midnightblue" d="M106.25,-797.077C114.857,-798.4 123.646,-799.601 132,-800.5 203.228,-808.164 284.547,-811.632 343.905,-813.202"/>
<polygon fill="midnightblue" stroke="midnightblue" points="106.695,-793.604 96.2677,-795.48 105.589,-800.516 106.695,-793.604"/>
</g>
<!-- Node557 -->
<g id="node20" class="node"><title>Node557</title>
<g id="a_node20"><a xlink:href="group__usbd__composite__cdccdc.xhtml#ga2ff92f5d6611f4cc29bc6049b39b443c" target="_top" xlink:title="Initializes the USB device composite device driver. ">
<polygon fill="white" stroke="black" points="148,-663 148,-682 292,-682 292,-663 148,-663"/>
<text text-anchor="middle" x="220" y="-670" font-family="Helvetica,sans-Serif" font-size="10.00">DUALCDCDDriver_Initialize</text>
</a>
</g>
</g>
<!-- Node530&#45;&gt;Node557 -->
<g id="edge19" class="edge"><title>Node530&#45;&gt;Node557</title>
<path fill="none" stroke="midnightblue" d="M60.8117,-768.582C75.2206,-748.131 101.468,-715.114 132,-696.5 142.301,-690.22 154.276,-685.546 165.987,-682.081"/>
<polygon fill="midnightblue" stroke="midnightblue" points="57.8119,-766.768 55.0517,-776.997 63.5883,-770.722 57.8119,-766.768"/>
</g>
<!-- Node558 -->
<g id="node21" class="node"><title>Node558</title>
<g id="a_node21"><a xlink:href="group__usbd__composite__hidaud.xhtml#ga93b5b87d0366b013bdbc2af9a1793e7e" target="_top" xlink:title="Initializes the USB device composite device driver. ">
<polygon fill="white" stroke="black" points="152.5,-625 152.5,-644 287.5,-644 287.5,-625 152.5,-625"/>
<text text-anchor="middle" x="220" y="-632" font-family="Helvetica,sans-Serif" font-size="10.00">HIDAUDDDriver_Initialize</text>
</a>
</g>
</g>
<!-- Node530&#45;&gt;Node558 -->
<g id="edge20" class="edge"><title>Node530&#45;&gt;Node558</title>
<path fill="none" stroke="midnightblue" d="M55.3832,-767.449C66.2405,-738.113 91.1833,-682.268 132,-653.5 138.192,-649.136 145.201,-645.746 152.487,-643.118"/>
<polygon fill="midnightblue" stroke="midnightblue" points="52.0547,-766.363 52.0171,-776.958 58.6535,-768.699 52.0547,-766.363"/>
</g>
<!-- Node559 -->
<g id="node22" class="node"><title>Node559</title>
<g id="a_node22"><a xlink:href="group__usbd__composite__hidaud.xhtml#ga3964e181a871753372233070c5cb9672" target="_top" xlink:title="Invoked whenever the configuration value of a device is changed by the host. ">
<polygon fill="white" stroke="black" points="139.5,-575.5 139.5,-605.5 300.5,-605.5 300.5,-575.5 139.5,-575.5"/>
<text text-anchor="start" x="147.5" y="-593.5" font-family="Helvetica,sans-Serif" font-size="10.00">HIDAUDDDriver_Configuration</text>
<text text-anchor="middle" x="220" y="-582.5" font-family="Helvetica,sans-Serif" font-size="10.00">ChangedHandler</text>
</a>
</g>
</g>
<!-- Node530&#45;&gt;Node559 -->
<g id="edge21" class="edge"><title>Node530&#45;&gt;Node559</title>
<path fill="none" stroke="midnightblue" d="M53.0861,-766.534C61.4467,-730.816 83.9194,-655.946 132,-615.5 136.57,-611.656 141.7,-608.402 147.124,-605.648"/>
<polygon fill="midnightblue" stroke="midnightblue" points="49.5884,-766.142 50.853,-776.661 56.4242,-767.65 49.5884,-766.142"/>
</g>
<!-- Node560 -->
<g id="node23" class="node"><title>Node560</title>
<g id="a_node23"><a xlink:href="group__usbd__composite__hidaud.xhtml#ga67e086f6cca282dfb9ee1c4f53a2d670" target="_top" xlink:title="Handles composite&#45;specific USB requests sent by the host, and forwards standard ones to the USB devic...">
<polygon fill="white" stroke="black" points="133.5,-537 133.5,-556 306.5,-556 306.5,-537 133.5,-537"/>
<text text-anchor="middle" x="220" y="-544" font-family="Helvetica,sans-Serif" font-size="10.00">HIDAUDDDriver_RequestHandler</text>
</a>
</g>
</g>
<!-- Node530&#45;&gt;Node560 -->
<g id="edge22" class="edge"><title>Node530&#45;&gt;Node560</title>
<path fill="none" stroke="midnightblue" d="M50.4002,-766.715C54.569,-723.444 70.7577,-619.997 132,-566.5 136.902,-562.218 142.538,-558.802 148.534,-556.084"/>
<polygon fill="midnightblue" stroke="midnightblue" points="46.9029,-766.536 49.5469,-776.796 53.878,-767.127 46.9029,-766.536"/>
</g>
<!-- Node561 -->
<g id="node24" class="node"><title>Node561</title>
<g id="a_node24"><a xlink:href="group__usbd__composite__hidmsd.xhtml#ga353527333aa384f7ffaa105ace23fcad" target="_top" xlink:title="Initializes the USB device HIDMSD device driver. ">
<polygon fill="white" stroke="black" points="156,-499 156,-518 284,-518 284,-499 156,-499"/>
<text text-anchor="middle" x="220" y="-506" font-family="Helvetica,sans-Serif" font-size="10.00">HIDMSDDriver_Initialize</text>
</a>
</g>
</g>
<!-- Node530&#45;&gt;Node561 -->
<g id="edge23" class="edge"><title>Node530&#45;&gt;Node561</title>
<path fill="none" stroke="midnightblue" d="M49.0579,-766.899C50.3261,-718.458 60.6806,-592.34 132,-527.5 138.749,-521.364 147.008,-517.047 155.723,-514.037"/>
<polygon fill="midnightblue" stroke="midnightblue" points="45.5571,-766.927 48.9013,-776.98 52.5563,-767.036 45.5571,-766.927"/>
</g>
<!-- Node562 -->
<g id="node25" class="node"><title>Node562</title>
<g id="a_node25"><a xlink:href="group__usbd__composite__hidmsd.xhtml#gac20bb28b9da0825ad63d42398b530e0d" target="_top" xlink:title="Invoked whenever the configuration value of a device is changed by the host. ">
<polygon fill="white" stroke="black" points="143,-449.5 143,-479.5 297,-479.5 297,-449.5 143,-449.5"/>
<text text-anchor="start" x="151" y="-467.5" font-family="Helvetica,sans-Serif" font-size="10.00">HIDMSDDriver_Configuration</text>
<text text-anchor="middle" x="220" y="-456.5" font-family="Helvetica,sans-Serif" font-size="10.00">ChangedHandler</text>
</a>
</g>
</g>
<!-- Node530&#45;&gt;Node562 -->
<g id="edge24" class="edge"><title>Node530&#45;&gt;Node562</title>
<path fill="none" stroke="midnightblue" d="M48.3792,-766.888C47.8267,-714.202 53.8131,-568.26 132,-489.5 135.764,-485.708 140.064,-482.482 144.689,-479.739"/>
<polygon fill="midnightblue" stroke="midnightblue" points="44.8805,-766.989 48.5806,-776.916 51.879,-766.848 44.8805,-766.989"/>
</g>
<!-- Node563 -->
<g id="node26" class="node"><title>Node563</title>
<g id="a_node26"><a xlink:href="group__usbd__composite__hidmsd.xhtml#gaf9106ca177574016a8fce5ba4644e003" target="_top" xlink:title="Handles HIDMSD&#45;specific USB requests sent by the host, and forwards standard ones to the USB device d...">
<polygon fill="white" stroke="black" points="346,-748 346,-767 512,-767 512,-748 346,-748"/>
<text text-anchor="middle" x="429" y="-755" font-family="Helvetica,sans-Serif" font-size="10.00">HIDMSDDriver_RequestHandler</text>
</a>
</g>
</g>
<!-- Node530&#45;&gt;Node563 -->
<g id="edge25" class="edge"><title>Node530&#45;&gt;Node563</title>
<path fill="none" stroke="midnightblue" d="M106.395,-782.453C158.887,-778.714 238.681,-772.931 308,-767.5 320.192,-766.545 333.079,-765.504 345.705,-764.466"/>
<polygon fill="midnightblue" stroke="midnightblue" points="105.999,-778.973 96.2721,-783.173 106.495,-785.955 105.999,-778.973"/>
</g>
<!-- Node564 -->
<g id="node27" class="node"><title>Node564</title>
<g id="a_node27"><a xlink:href="group__usbd__composite__hidmsd.xhtml#ga69267a20e9ee74f7e526790c14e62d3a" target="_top" xlink:title="Starts a remote wake&#45;up sequence if the host has explicitly enabled it by sending the appropriate SET...">
<polygon fill="white" stroke="black" points="137.5,-411 137.5,-430 302.5,-430 302.5,-411 137.5,-411"/>
<text text-anchor="middle" x="220" y="-418" font-family="Helvetica,sans-Serif" font-size="10.00">HIDMSDDriver_RemoteWakeUp</text>
</a>
</g>
</g>
<!-- Node530&#45;&gt;Node564 -->
<g id="edge26" class="edge"><title>Node530&#45;&gt;Node564</title>
<path fill="none" stroke="midnightblue" d="M51.021,-766.807C58.2144,-700.566 84.7049,-487.349 132,-440.5 136.294,-436.246 141.299,-432.825 146.699,-430.08"/>
<polygon fill="midnightblue" stroke="midnightblue" points="47.5389,-766.454 49.966,-776.767 54.5,-767.191 47.5389,-766.454"/>
</g>
<!-- Node565 -->
<g id="node28" class="node"><title>Node565</title>
<g id="a_node28"><a xlink:href="group__usbd__interface.xhtml#gaf68d1a97f79b62b49e841e77a68c851a" target="_top" xlink:title="USBDCallbacks_RequestReceived &#45; Invoked when a new SETUP request is received. ">
<polygon fill="white" stroke="black" points="132,-373 132,-392 308,-392 308,-373 132,-373"/>
<text text-anchor="middle" x="220" y="-380" font-family="Helvetica,sans-Serif" font-size="10.00">USBDCallbacks_RequestReceived</text>
</a>
</g>
</g>
<!-- Node530&#45;&gt;Node565 -->
<g id="edge27" class="edge"><title>Node530&#45;&gt;Node565</title>
<path fill="none" stroke="midnightblue" d="M50.5124,-766.467C56.3157,-695.016 79.5157,-454.125 132,-401.5 135.712,-397.778 139.972,-394.71 144.57,-392.187"/>
<polygon fill="midnightblue" stroke="midnightblue" points="46.9976,-766.52 49.7029,-776.764 53.9761,-767.069 46.9976,-766.52"/>
</g>
<!-- Node566 -->
<g id="node29" class="node"><title>Node566</title>
<g id="a_node29"><a xlink:href="group__usbd__hid__key.xhtml#ga1f58303d60b968bd70c374dfa106df45" target="_top" xlink:title="Initializes the HID keyboard device driver. ">
<polygon fill="white" stroke="black" points="163,-323.5 163,-353.5 277,-353.5 277,-323.5 163,-323.5"/>
<text text-anchor="start" x="171" y="-341.5" font-family="Helvetica,sans-Serif" font-size="10.00">HIDDKeyboardDriver</text>
<text text-anchor="middle" x="220" y="-330.5" font-family="Helvetica,sans-Serif" font-size="10.00">_Initialize</text>
</a>
</g>
</g>
<!-- Node530&#45;&gt;Node566 -->
<g id="edge28" class="edge"><title>Node530&#45;&gt;Node566</title>
<path fill="none" stroke="midnightblue" d="M50.2117,-766.584C55.1968,-691.115 76.5387,-423.952 132,-363.5 140.181,-354.583 151.311,-348.769 162.876,-344.997"/>
<polygon fill="midnightblue" stroke="midnightblue" points="46.7142,-766.434 49.5709,-776.637 53.7,-766.88 46.7142,-766.434"/>
</g>
<!-- Node567 -->
<g id="node30" class="node"><title>Node567</title>
<g id="a_node30"><a xlink:href="group__usbd__hid__key.xhtml#ga7147c21b165fd52ac5769ac948cf659a" target="_top" xlink:title="Handles configureation changed event. ">
<polygon fill="white" stroke="black" points="137,-274.5 137,-304.5 303,-304.5 303,-274.5 137,-274.5"/>
<text text-anchor="start" x="145" y="-292.5" font-family="Helvetica,sans-Serif" font-size="10.00">HIDDKeyboardDriver</text>
<text text-anchor="middle" x="220" y="-281.5" font-family="Helvetica,sans-Serif" font-size="10.00">_ConfigurationChangedHandler</text>
</a>
</g>
</g>
<!-- Node530&#45;&gt;Node567 -->
<g id="edge29" class="edge"><title>Node530&#45;&gt;Node567</title>
<path fill="none" stroke="midnightblue" d="M49.7763,-766.415C53.3126,-685.293 70.4819,-382.894 132,-314.5 135.468,-310.644 139.488,-307.367 143.859,-304.583"/>
<polygon fill="midnightblue" stroke="midnightblue" points="46.2663,-766.588 49.3499,-776.725 53.2603,-766.878 46.2663,-766.588"/>
</g>
<!-- Node568 -->
<g id="node31" class="node"><title>Node568</title>
<g id="a_node31"><a xlink:href="group__usbd__hid__key.xhtml#ga44a7b99e3c208588defa87389560cc82" target="_top" xlink:title="Handles HID&#45;specific SETUP request sent by the host. ">
<polygon fill="white" stroke="black" points="163,-225.5 163,-255.5 277,-255.5 277,-225.5 163,-225.5"/>
<text text-anchor="start" x="171" y="-243.5" font-family="Helvetica,sans-Serif" font-size="10.00">HIDDKeyboardDriver</text>
<text text-anchor="middle" x="220" y="-232.5" font-family="Helvetica,sans-Serif" font-size="10.00">_RequestHandler</text>
</a>
</g>
</g>
<!-- Node530&#45;&gt;Node568 -->
<g id="edge30" class="edge"><title>Node530&#45;&gt;Node568</title>
<path fill="none" stroke="midnightblue" d="M49.4011,-766.848C51.5425,-681.279 64.2445,-342.058 132,-265.5 140.02,-256.438 151.086,-250.566 162.641,-246.784"/>
<polygon fill="midnightblue" stroke="midnightblue" points="45.8988,-766.912 49.1684,-776.989 52.8969,-767.072 45.8988,-766.912"/>
</g>
<!-- Node569 -->
<g id="node32" class="node"><title>Node569</title>
<g id="a_node32"><a xlink:href="group__usbd__hid__mouse.xhtml#gaa4210c7f880e7b9d4e52082dffbf09b1" target="_top" xlink:title="Initializes the HID Mouse device driver. ">
<polygon fill="white" stroke="black" points="147.5,-187 147.5,-206 292.5,-206 292.5,-187 147.5,-187"/>
<text text-anchor="middle" x="220" y="-194" font-family="Helvetica,sans-Serif" font-size="10.00">HIDDMouseDriver_Initialize</text>
</a>
</g>
</g>
<!-- Node530&#45;&gt;Node569 -->
<g id="edge31" class="edge"><title>Node530&#45;&gt;Node569</title>
<path fill="none" stroke="midnightblue" d="M49.0041,-766.669C49.4374,-675.681 55.8677,-299.093 132,-216.5 136.307,-211.828 141.465,-208.139 147.093,-205.239"/>
<polygon fill="midnightblue" stroke="midnightblue" points="45.5035,-766.929 48.9764,-776.938 52.5035,-766.948 45.5035,-766.929"/>
</g>
<!-- Node570 -->
<g id="node33" class="node"><title>Node570</title>
<g id="a_node33"><a xlink:href="group__usbd__hid__tran.xhtml#gac936a4a8ed832ccd0dbfc4f752b3eb71" target="_top" xlink:title="Initializes the HID Transfer device driver. ">
<polygon fill="white" stroke="black" points="166.5,-137.5 166.5,-167.5 273.5,-167.5 273.5,-137.5 166.5,-137.5"/>
<text text-anchor="start" x="174.5" y="-155.5" font-family="Helvetica,sans-Serif" font-size="10.00">HIDDTransferDriver</text>
<text text-anchor="middle" x="220" y="-144.5" font-family="Helvetica,sans-Serif" font-size="10.00">_Initialize</text>
</a>
</g>
</g>
<!-- Node530&#45;&gt;Node570 -->
<g id="edge32" class="edge"><title>Node530&#45;&gt;Node570</title>
<path fill="none" stroke="midnightblue" d="M48.9018,-766.615C48.839,-672.037 53.252,-268.524 132,-177.5 140.74,-167.398 153.267,-161.248 166.103,-157.54"/>
<polygon fill="midnightblue" stroke="midnightblue" points="45.4021,-766.801 48.9279,-776.792 52.4021,-766.783 45.4021,-766.801"/>
</g>
<!-- Node571 -->
<g id="node34" class="node"><title>Node571</title>
<g id="a_node34"><a xlink:href="group__usbd__hid__tran.xhtml#gaa42cac9f13dfb2f99d409b11e84050e6" target="_top" xlink:title="Handles configureation changed event. ">
<polygon fill="white" stroke="black" points="137,-88.5 137,-118.5 303,-118.5 303,-88.5 137,-88.5"/>
<text text-anchor="start" x="145" y="-106.5" font-family="Helvetica,sans-Serif" font-size="10.00">HIDDTransferDriver</text>
<text text-anchor="middle" x="220" y="-95.5" font-family="Helvetica,sans-Serif" font-size="10.00">_ConfigurationChangedHandler</text>
</a>
</g>
</g>
<!-- Node530&#45;&gt;Node571 -->
<g id="edge33" class="edge"><title>Node530&#45;&gt;Node571</title>
<path fill="none" stroke="midnightblue" d="M48.6815,-766.918C47.4797,-668.399 46.9862,-227.763 132,-128.5 135.271,-124.68 139.084,-121.425 143.252,-118.653"/>
<polygon fill="midnightblue" stroke="midnightblue" points="45.1825,-767.019 48.8223,-776.969 52.1818,-766.921 45.1825,-767.019"/>
</g>
<!-- Node572 -->
<g id="node35" class="node"><title>Node572</title>
<g id="a_node35"><a xlink:href="group__usbd__msd.xhtml#ga77b4a730be820934b4e637afa14e6fef" target="_top" xlink:title="Initializes the MSD driver and the associated USB driver. ">
<polygon fill="white" stroke="black" points="164.5,-50 164.5,-69 275.5,-69 275.5,-50 164.5,-50"/>
<text text-anchor="middle" x="220" y="-57" font-family="Helvetica,sans-Serif" font-size="10.00">MSDDriver_Initialize</text>
</a>
</g>
</g>
<!-- Node530&#45;&gt;Node572 -->
<g id="edge34" class="edge"><title>Node530&#45;&gt;Node572</title>
<path fill="none" stroke="midnightblue" d="M49.988,-766.54C55.5842,-657.033 84.7412,-132.218 132,-79.5 140.379,-70.1526 152.166,-64.7181 164.365,-61.6561"/>
<polygon fill="midnightblue" stroke="midnightblue" points="46.4781,-766.65 49.4703,-776.813 53.4692,-767.002 46.4781,-766.65"/>
</g>
<!-- Node573 -->
<g id="node36" class="node"><title>Node573</title>
<g id="a_node36"><a xlink:href="group__usbd__msd.xhtml#gabfb0d71b88e4e5606d3de432127e9d01" target="_top" xlink:title="Invoked when the configuration of the device changes. ">
<polygon fill="white" stroke="black" points="133.5,-0.5 133.5,-30.5 306.5,-30.5 306.5,-0.5 133.5,-0.5"/>
<text text-anchor="start" x="141.5" y="-18.5" font-family="Helvetica,sans-Serif" font-size="10.00">MSDDriver_ConfigurationChange</text>
<text text-anchor="middle" x="220" y="-7.5" font-family="Helvetica,sans-Serif" font-size="10.00">Handler</text>
</a>
</g>
</g>
<!-- Node530&#45;&gt;Node573 -->
<g id="edge35" class="edge"><title>Node530&#45;&gt;Node573</title>
<path fill="none" stroke="midnightblue" d="M49.9085,-766.552C55.2212,-653.644 83.706,-97.733 132,-40.5 135.243,-36.6566 139.035,-33.3833 143.187,-30.5979"/>
<polygon fill="midnightblue" stroke="midnightblue" points="46.3988,-766.682 49.4317,-776.833 53.3913,-767.006 46.3988,-766.682"/>
</g>
<!-- Node574 -->
<g id="node37" class="node"><title>Node574</title>
<g id="a_node37"><a xlink:href="group__usbd__msd.xhtml#ga3fc749f879c284f631bce181e7cfe0eb" target="_top" xlink:title="Handler for incoming SETUP requests on default Control endpoint 0. ">
<polygon fill="white" stroke="black" points="354.5,-710 354.5,-729 503.5,-729 503.5,-710 354.5,-710"/>
<text text-anchor="middle" x="429" y="-717" font-family="Helvetica,sans-Serif" font-size="10.00">MSDDriver_RequestHandler</text>
</a>
</g>
</g>
<!-- Node530&#45;&gt;Node574 -->
<g id="edge36" class="edge"><title>Node530&#45;&gt;Node574</title>
<path fill="none" stroke="midnightblue" d="M67.0358,-769.54C82.8168,-755.899 107.061,-737.703 132,-729.5 204.777,-705.562 293.11,-706.102 354.237,-710.735"/>
<polygon fill="midnightblue" stroke="midnightblue" points="64.3098,-767.283 59.1885,-776.557 68.9759,-772.501 64.3098,-767.283"/>
</g>
<!-- Node575 -->
<g id="node38" class="node"><title>Node575</title>
<g id="a_node38"><a xlink:href="group__usbd__msd.xhtml#gaa87efba32c907fa095c6f8797d2580db" target="_top" xlink:title="Handler for incoming SETUP requests on default Control endpoint 0. ">
<polygon fill="white" stroke="black" points="140,-739 140,-758 300,-758 300,-739 140,-739"/>
<text text-anchor="middle" x="220" y="-746" font-family="Helvetica,sans-Serif" font-size="10.00">MSDFunction_RequestHandler</text>
</a>
</g>
</g>
<!-- Node530&#45;&gt;Node575 -->
<g id="edge37" class="edge"><title>Node530&#45;&gt;Node575</title>
<path fill="none" stroke="midnightblue" d="M101.898,-774.676C125.865,-769.318 153.824,-763.069 176.41,-758.02"/>
<polygon fill="midnightblue" stroke="midnightblue" points="100.894,-771.314 91.8982,-776.911 102.421,-778.145 100.894,-771.314"/>
</g>
<!-- Node575&#45;&gt;Node556 -->
<g id="edge38" class="edge"><title>Node575&#45;&gt;Node556</title>
<path fill="none" stroke="midnightblue" d="M260.83,-761.2C300.987,-774.003 362.054,-793.474 398.2,-804.999"/>
<polygon fill="midnightblue" stroke="midnightblue" points="261.69,-757.8 251.1,-758.097 259.564,-764.469 261.69,-757.8"/>
</g>
<!-- Node575&#45;&gt;Node563 -->
<g id="edge39" class="edge"><title>Node575&#45;&gt;Node563</title>
<path fill="none" stroke="midnightblue" d="M310.401,-752.387C322.164,-752.898 334.174,-753.421 345.809,-753.926"/>
<polygon fill="midnightblue" stroke="midnightblue" points="310.286,-748.879 300.144,-751.941 309.982,-755.872 310.286,-748.879"/>
</g>
<!-- Node575&#45;&gt;Node574 -->
<g id="edge40" class="edge"><title>Node575&#45;&gt;Node574</title>
<path fill="none" stroke="midnightblue" d="M299.074,-737.562C319.079,-734.759 340.435,-731.768 359.893,-729.042"/>
<polygon fill="midnightblue" stroke="midnightblue" points="298.484,-734.11 289.066,-738.964 299.455,-741.043 298.484,-734.11"/>
</g>
</g>
</svg>
