<?xml version="1.0" encoding="UTF-8" standalone="no"?>
<!DOCTYPE svg PUBLIC "-//W3C//DTD SVG 1.1//EN"
 "http://www.w3.org/Graphics/SVG/1.1/DTD/svg11.dtd">
<!-- Generated by graphviz version 2.38.0 (20140413.2041)
 -->
<!-- Title: XDMAC_GetChannelIsr Pages: 1 -->
<svg width="310pt" height="180pt"
 viewBox="0.00 0.00 310.00 180.00" xmlns="http://www.w3.org/2000/svg" xmlns:xlink="http://www.w3.org/1999/xlink">
<g id="graph0" class="graph" transform="scale(1 1) rotate(0) translate(4 176)">
<title>XDMAC_GetChannelIsr</title>
<polygon fill="white" stroke="none" points="-4,4 -4,-176 306,-176 306,4 -4,4"/>
<!-- Node307 -->
<g id="node1" class="node"><title>Node307</title>
<polygon fill="#bfbfbf" stroke="black" points="0,-76.5 0,-95.5 125,-95.5 125,-76.5 0,-76.5"/>
<text text-anchor="middle" x="62.5" y="-83.5" font-family="Helvetica,sans-Serif" font-size="10.00">XDMAC_GetChannelIsr</text>
</g>
<!-- Node308 -->
<g id="node2" class="node"><title>Node308</title>
<g id="a_node2"><a xlink:href="group__dmac__functions.xhtml#ga4139b3ae17620cc1d27afe86a7b6d7fe" target="_top" xlink:title="Set software flush request on the relevant channel. ">
<polygon fill="white" stroke="red" points="161,-152.5 161,-171.5 302,-171.5 302,-152.5 161,-152.5"/>
<text text-anchor="middle" x="231.5" y="-159.5" font-family="Helvetica,sans-Serif" font-size="10.00">XDMAC_SoftwareFlushReq</text>
</a>
</g>
</g>
<!-- Node307&#45;&gt;Node308 -->
<g id="edge1" class="edge"><title>Node307&#45;&gt;Node308</title>
<path fill="none" stroke="midnightblue" d="M85.4487,-101.092C104.66,-113.739 133.693,-131.521 161,-143 169.764,-146.684 179.449,-149.855 188.737,-152.493"/>
<polygon fill="midnightblue" stroke="midnightblue" points="87.3645,-98.1625 77.1059,-95.5145 83.4741,-103.982 87.3645,-98.1625"/>
</g>
<!-- Node325 -->
<g id="node3" class="node"><title>Node325</title>
<g id="a_node3"><a xlink:href="group__dmad__functions.xhtml#ga2a7947467c04eb39abee2471d846ee35" target="_top" xlink:title="Enable clock of the xDMA peripheral, Enable the dma peripheral, configure configuration register for ...">
<polygon fill="white" stroke="red" points="164.5,-114.5 164.5,-133.5 298.5,-133.5 298.5,-114.5 164.5,-114.5"/>
<text text-anchor="middle" x="231.5" y="-121.5" font-family="Helvetica,sans-Serif" font-size="10.00">XDMAD_PrepareChannel</text>
</a>
</g>
</g>
<!-- Node307&#45;&gt;Node325 -->
<g id="edge2" class="edge"><title>Node307&#45;&gt;Node325</title>
<path fill="none" stroke="midnightblue" d="M115.465,-97.8243C139.009,-103.182 166.474,-109.431 188.662,-114.48"/>
<polygon fill="midnightblue" stroke="midnightblue" points="116.168,-94.3951 105.641,-95.589 114.615,-101.221 116.168,-94.3951"/>
</g>
<!-- Node352 -->
<g id="node4" class="node"><title>Node352</title>
<g id="a_node4"><a xlink:href="group__dmad__functions.xhtml#gab9eafed263814c1bd25161a8a23ba5c2" target="_top" xlink:title="xDMA interrupt handler ">
<polygon fill="white" stroke="red" points="184,-76.5 184,-95.5 279,-95.5 279,-76.5 184,-76.5"/>
<text text-anchor="middle" x="231.5" y="-83.5" font-family="Helvetica,sans-Serif" font-size="10.00">XDMAD_Handler</text>
</a>
</g>
</g>
<!-- Node307&#45;&gt;Node352 -->
<g id="edge3" class="edge"><title>Node307&#45;&gt;Node352</title>
<path fill="none" stroke="midnightblue" d="M135.35,-86C151.799,-86 168.864,-86 183.923,-86"/>
<polygon fill="midnightblue" stroke="midnightblue" points="135.21,-82.5001 125.21,-86 135.21,-89.5001 135.21,-82.5001"/>
</g>
<!-- Node355 -->
<g id="node5" class="node"><title>Node355</title>
<g id="a_node5"><a xlink:href="group__dmad__functions.xhtml#ga075cce3b88af1fff5064218720811fc0" target="_top" xlink:title="Configure DMA for a single transfer. ">
<polygon fill="white" stroke="red" points="161,-38.5 161,-57.5 302,-57.5 302,-38.5 161,-38.5"/>
<text text-anchor="middle" x="231.5" y="-45.5" font-family="Helvetica,sans-Serif" font-size="10.00">XDMAD_ConfigureTransfer</text>
</a>
</g>
</g>
<!-- Node307&#45;&gt;Node355 -->
<g id="edge4" class="edge"><title>Node307&#45;&gt;Node355</title>
<path fill="none" stroke="midnightblue" d="M115.465,-74.1757C139.009,-68.8184 166.474,-62.5689 188.662,-57.5201"/>
<polygon fill="midnightblue" stroke="midnightblue" points="114.615,-70.7794 105.641,-76.411 116.168,-77.6049 114.615,-70.7794"/>
</g>
<!-- Node371 -->
<g id="node6" class="node"><title>Node371</title>
<g id="a_node6"><a xlink:href="group__dmad__functions.xhtml#ga6be5cec75618250adb227d7588ae7078" target="_top" xlink:title="Stop DMA transfer. ">
<polygon fill="white" stroke="red" points="172.5,-0.5 172.5,-19.5 290.5,-19.5 290.5,-0.5 172.5,-0.5"/>
<text text-anchor="middle" x="231.5" y="-7.5" font-family="Helvetica,sans-Serif" font-size="10.00">XDMAD_StopTransfer</text>
</a>
</g>
</g>
<!-- Node307&#45;&gt;Node371 -->
<g id="edge5" class="edge"><title>Node307&#45;&gt;Node371</title>
<path fill="none" stroke="midnightblue" d="M85.4487,-70.9081C104.66,-58.2606 133.693,-40.4792 161,-29 169.764,-25.3159 179.449,-22.1447 188.737,-19.5066"/>
<polygon fill="midnightblue" stroke="midnightblue" points="83.4741,-68.0181 77.1059,-76.4855 87.3645,-73.8375 83.4741,-68.0181"/>
</g>
</g>
</svg>
