<?xml version="1.0" encoding="UTF-8" standalone="no"?>
<!DOCTYPE svg PUBLIC "-//W3C//DTD SVG 1.1//EN"
 "http://www.w3.org/Graphics/SVG/1.1/DTD/svg11.dtd">
<!-- Generated by graphviz version 2.38.0 (20140413.2041)
 -->
<!-- Title: USBH_enumeration_reset Pages: 1 -->
<svg width="330pt" height="104pt"
 viewBox="0.00 0.00 330.00 104.00" xmlns="http://www.w3.org/2000/svg" xmlns:xlink="http://www.w3.org/1999/xlink">
<g id="graph0" class="graph" transform="scale(1 1) rotate(0) translate(4 100)">
<title>USBH_enumeration_reset</title>
<polygon fill="white" stroke="none" points="-4,4 -4,-100 326,-100 326,4 -4,4"/>
<!-- Node258 -->
<g id="node1" class="node"><title>Node258</title>
<polygon fill="#bfbfbf" stroke="black" points="0,-38.5 0,-57.5 142,-57.5 142,-38.5 0,-38.5"/>
<text text-anchor="middle" x="71" y="-45.5" font-family="Helvetica,sans-Serif" font-size="10.00">USBH_enumeration_reset</text>
</g>
<!-- Node259 -->
<g id="node2" class="node"><title>Node259</title>
<g id="a_node2"><a xlink:href="group___u_s_b_h__group__interne.xhtml#ga572eb439f63403cc1f218136d527690c" target="_top" xlink:title="Device enumeration step 1 Reset USB line. ">
<polygon fill="white" stroke="red" points="178,-76.5 178,-95.5 322,-95.5 322,-76.5 178,-76.5"/>
<text text-anchor="middle" x="250" y="-83.5" font-family="Helvetica,sans-Serif" font-size="10.00">USBH_enumeration_step1</text>
</a>
</g>
</g>
<!-- Node258&#45;&gt;Node259 -->
<g id="edge1" class="edge"><title>Node258&#45;&gt;Node259</title>
<path fill="none" stroke="midnightblue" d="M126.742,-59.7526C151.77,-65.1258 181.035,-71.4086 204.657,-76.4799"/>
<polygon fill="midnightblue" stroke="midnightblue" points="127.176,-56.2661 116.665,-57.589 125.707,-63.1102 127.176,-56.2661"/>
</g>
<!-- Node268 -->
<g id="node3" class="node"><title>Node268</title>
<g id="a_node3"><a xlink:href="group___u_s_b_h__group__interne.xhtml#ga930d75d6d265f7d3bdd399c48f513be1" target="_top" xlink:title="Device enumeration step 3 Reset USB line. ">
<polygon fill="white" stroke="red" points="178,-38.5 178,-57.5 322,-57.5 322,-38.5 178,-38.5"/>
<text text-anchor="middle" x="250" y="-45.5" font-family="Helvetica,sans-Serif" font-size="10.00">USBH_enumeration_step3</text>
</a>
</g>
</g>
<!-- Node258&#45;&gt;Node268 -->
<g id="edge2" class="edge"><title>Node258&#45;&gt;Node268</title>
<path fill="none" stroke="midnightblue" d="M152.427,-48C160.862,-48 169.395,-48 177.716,-48"/>
<polygon fill="midnightblue" stroke="midnightblue" points="152.209,-44.5001 142.209,-48 152.209,-51.5001 152.209,-44.5001"/>
</g>
<!-- Node273 -->
<g id="node4" class="node"><title>Node273</title>
<g id="a_node4"><a xlink:href="group___u_s_b_h__group__interne.xhtml#ga87dae241e7c1021902ec4978ba3ae26a" target="_top" xlink:title="Device enumeration step 7 Reset USB line. ">
<polygon fill="white" stroke="red" points="178,-0.5 178,-19.5 322,-19.5 322,-0.5 178,-0.5"/>
<text text-anchor="middle" x="250" y="-7.5" font-family="Helvetica,sans-Serif" font-size="10.00">USBH_enumeration_step7</text>
</a>
</g>
</g>
<!-- Node258&#45;&gt;Node273 -->
<g id="edge3" class="edge"><title>Node258&#45;&gt;Node273</title>
<path fill="none" stroke="midnightblue" d="M126.742,-36.2474C151.77,-30.8742 181.035,-24.5914 204.657,-19.5201"/>
<polygon fill="midnightblue" stroke="midnightblue" points="125.707,-32.8898 116.665,-38.411 127.176,-39.7339 125.707,-32.8898"/>
</g>
</g>
</svg>
