<?xml version="1.0" encoding="UTF-8" standalone="no"?>
<!DOCTYPE svg PUBLIC "-//W3C//DTD SVG 1.1//EN"
 "http://www.w3.org/Graphics/SVG/1.1/DTD/svg11.dtd">
<!-- Generated by graphviz version 2.38.0 (20140413.2041)
 -->
<!-- Title: AUDD_GetCUR Pages: 1 -->
<svg width="311pt" height="317pt"
 viewBox="0.00 0.00 311.00 317.00" xmlns="http://www.w3.org/2000/svg" xmlns:xlink="http://www.w3.org/1999/xlink">
<g id="graph0" class="graph" transform="scale(1 1) rotate(0) translate(4 313)">
<title>AUDD_GetCUR</title>
<polygon fill="white" stroke="none" points="-4,4 -4,-313 307,-313 307,4 -4,4"/>
<!-- Node9 -->
<g id="node1" class="node"><title>Node9</title>
<polygon fill="#bfbfbf" stroke="black" points="0,-144.5 0,-163.5 89,-163.5 89,-144.5 0,-144.5"/>
<text text-anchor="middle" x="44.5" y="-151.5" font-family="Helvetica,sans-Serif" font-size="10.00">AUDD_GetCUR</text>
</g>
<!-- Node10 -->
<g id="node2" class="node"><title>Node10</title>
<g id="a_node2"><a xlink:href="group__usb__audio.xhtml#ga863624d52f113876d03aff007a9aa513" target="_top" xlink:title="Returns the ID of the interface targeted by an USB audio request. ">
<polygon fill="white" stroke="red" points="125,-289.5 125,-308.5 303,-308.5 303,-289.5 125,-289.5"/>
<text text-anchor="middle" x="214" y="-296.5" font-family="Helvetica,sans-Serif" font-size="10.00">AUDGenericRequest_GetInterface</text>
</a>
</g>
</g>
<!-- Node9&#45;&gt;Node10 -->
<g id="edge1" class="edge"><title>Node9&#45;&gt;Node10</title>
<path fill="none" stroke="midnightblue" d="M48.6556,-163.741C56.9504,-187.704 81.7598,-249.76 125,-280 127.754,-281.926 130.666,-283.662 133.69,-285.227"/>
<polygon fill="midnightblue" stroke="midnightblue" points="132.496,-288.528 143.053,-289.427 135.361,-282.141 132.496,-288.528"/>
</g>
<!-- Node12 -->
<g id="node3" class="node"><title>Node12</title>
<g id="a_node3"><a xlink:href="group__usb__audio.xhtml#ga545a0d7559049a5ac86b37a9d47943dc" target="_top" xlink:title="Returns the ID of the unit or terminal targeted by an USB audio request. ">
<polygon fill="white" stroke="red" points="132.5,-251.5 132.5,-270.5 295.5,-270.5 295.5,-251.5 132.5,-251.5"/>
<text text-anchor="middle" x="214" y="-258.5" font-family="Helvetica,sans-Serif" font-size="10.00">AUDGenericRequest_GetEntity</text>
</a>
</g>
</g>
<!-- Node9&#45;&gt;Node12 -->
<g id="edge2" class="edge"><title>Node9&#45;&gt;Node12</title>
<path fill="none" stroke="midnightblue" d="M51.3247,-163.751C62.8841,-182.191 90.6023,-222.105 125,-242 128.911,-244.262 133.061,-246.255 137.345,-248.012"/>
<polygon fill="midnightblue" stroke="midnightblue" points="136.307,-251.359 146.901,-251.492 138.702,-244.781 136.307,-251.359"/>
</g>
<!-- Node13 -->
<g id="node4" class="node"><title>Node13</title>
<g id="a_node4"><a xlink:href="group__usb__request.xhtml#ga047e240a92a39eed9b3174d397498123" target="_top" xlink:title="Returns the expected length of the data phase following a request. ">
<polygon fill="white" stroke="black" points="130,-213.5 130,-232.5 298,-232.5 298,-213.5 130,-213.5"/>
<text text-anchor="middle" x="214" y="-220.5" font-family="Helvetica,sans-Serif" font-size="10.00">USBGenericRequest_GetLength</text>
</a>
</g>
</g>
<!-- Node9&#45;&gt;Node13 -->
<g id="edge3" class="edge"><title>Node9&#45;&gt;Node13</title>
<path fill="none" stroke="midnightblue" d="M57.6975,-163.595C72.6964,-174.922 99.3319,-193.538 125,-204 131.321,-206.576 138.046,-208.827 144.854,-210.787"/>
<polygon fill="midnightblue" stroke="midnightblue" points="144.285,-214.258 154.85,-213.456 146.091,-207.495 144.285,-214.258"/>
</g>
<!-- Node14 -->
<g id="node5" class="node"><title>Node14</title>
<g id="a_node5"><a xlink:href="group__usb__audio.xhtml#ga47557d2c62372574f370291ed4526b12" target="_top" xlink:title="Returns the channel number of a Feature unit which should be altered by the given request...">
<polygon fill="white" stroke="red" points="148,-164 148,-194 280,-194 280,-164 148,-164"/>
<text text-anchor="start" x="156" y="-182" font-family="Helvetica,sans-Serif" font-size="10.00">AUDFeatureUnitRequest</text>
<text text-anchor="middle" x="214" y="-171" font-family="Helvetica,sans-Serif" font-size="10.00">_GetChannel</text>
</a>
</g>
</g>
<!-- Node9&#45;&gt;Node14 -->
<g id="edge4" class="edge"><title>Node9&#45;&gt;Node14</title>
<path fill="none" stroke="midnightblue" d="M89.0714,-160.503C103.922,-162.72 120.981,-165.266 137.597,-167.746"/>
<polygon fill="midnightblue" stroke="midnightblue" points="137.456,-171.263 147.863,-169.278 138.489,-164.34 137.456,-171.263"/>
</g>
<!-- Node16 -->
<g id="node6" class="node"><title>Node16</title>
<g id="a_node6"><a xlink:href="group__usb__audio.xhtml#gab4526a49dffcbfd21863db0da8793572" target="_top" xlink:title="Returns the control selector value indicating the target of a Feature Unit request. ">
<polygon fill="white" stroke="red" points="148,-115 148,-145 280,-145 280,-115 148,-115"/>
<text text-anchor="start" x="156" y="-133" font-family="Helvetica,sans-Serif" font-size="10.00">AUDFeatureUnitRequest</text>
<text text-anchor="middle" x="214" y="-122" font-family="Helvetica,sans-Serif" font-size="10.00">_GetControl</text>
</a>
</g>
</g>
<!-- Node9&#45;&gt;Node16 -->
<g id="edge5" class="edge"><title>Node9&#45;&gt;Node16</title>
<path fill="none" stroke="midnightblue" d="M89.0714,-147.757C103.922,-145.629 120.981,-143.185 137.597,-140.804"/>
<polygon fill="midnightblue" stroke="midnightblue" points="138.46,-144.216 147.863,-139.333 137.467,-137.287 138.46,-144.216"/>
</g>
<!-- Node17 -->
<g id="node7" class="node"><title>Node17</title>
<g id="a_node7"><a xlink:href="group__usbd__audio__speakerphone.xhtml#ga31da0fddaba60d293dce19739b6f001d" target="_top" xlink:title="Get Target AUDDStream for control. ">
<polygon fill="white" stroke="black" points="155.5,-76.5 155.5,-95.5 272.5,-95.5 272.5,-76.5 155.5,-76.5"/>
<text text-anchor="middle" x="214" y="-83.5" font-family="Helvetica,sans-Serif" font-size="10.00">AUDD_GetCtlStream</text>
</a>
</g>
</g>
<!-- Node9&#45;&gt;Node17 -->
<g id="edge6" class="edge"><title>Node9&#45;&gt;Node17</title>
<path fill="none" stroke="midnightblue" d="M58.3188,-144.475C73.492,-133.637 99.8797,-116.131 125,-106 132.438,-103.001 140.419,-100.401 148.43,-98.1612"/>
<polygon fill="midnightblue" stroke="midnightblue" points="149.395,-101.526 158.181,-95.6051 147.62,-94.7553 149.395,-101.526"/>
</g>
<!-- Node18 -->
<g id="node8" class="node"><title>Node18</title>
<g id="a_node8"><a xlink:href="group__usbd__interface.xhtml#gafc4728f4af70056b3a271f333b759592" target="_top" xlink:title="Sends data through a USB endpoint. ">
<polygon fill="white" stroke="red" points="177,-38.5 177,-57.5 251,-57.5 251,-38.5 177,-38.5"/>
<text text-anchor="middle" x="214" y="-45.5" font-family="Helvetica,sans-Serif" font-size="10.00">USBD_Write</text>
</a>
</g>
</g>
<!-- Node9&#45;&gt;Node18 -->
<g id="edge7" class="edge"><title>Node9&#45;&gt;Node18</title>
<path fill="none" stroke="midnightblue" d="M51.3536,-144.361C62.9621,-126.132 90.7609,-86.6736 125,-67 137.65,-59.7314 152.775,-55.2374 166.887,-52.4609"/>
<polygon fill="midnightblue" stroke="midnightblue" points="167.676,-55.8767 176.935,-50.7277 166.486,-48.9786 167.676,-55.8767"/>
</g>
<!-- Node41 -->
<g id="node9" class="node"><title>Node41</title>
<g id="a_node9"><a xlink:href="group__usbd__interface.xhtml#gad846cf5a2a002f83abe01d17d233f644" target="_top" xlink:title="Causes the given endpoint to acknowledge the next packet it receives with a STALL handshake...">
<polygon fill="white" stroke="red" points="178.5,-0.5 178.5,-19.5 249.5,-19.5 249.5,-0.5 178.5,-0.5"/>
<text text-anchor="middle" x="214" y="-7.5" font-family="Helvetica,sans-Serif" font-size="10.00">USBD_Stall</text>
</a>
</g>
</g>
<!-- Node9&#45;&gt;Node41 -->
<g id="edge8" class="edge"><title>Node9&#45;&gt;Node41</title>
<path fill="none" stroke="midnightblue" d="M48.6793,-144.335C57.028,-120.56 81.9509,-58.9909 125,-29 137.608,-20.2164 153.511,-15.377 168.318,-12.7479"/>
<polygon fill="midnightblue" stroke="midnightblue" points="168.963,-16.1906 178.34,-11.2595 167.935,-9.2665 168.963,-16.1906"/>
</g>
</g>
</svg>
