<?xml version="1.0" encoding="UTF-8" standalone="no"?>
<!DOCTYPE svg PUBLIC "-//W3C//DTD SVG 1.1//EN"
 "http://www.w3.org/Graphics/SVG/1.1/DTD/svg11.dtd">
<!-- Generated by graphviz version 2.38.0 (20140413.2041)
 -->
<!-- Title: USBH_HAL_FreePipe Pages: 1 -->
<svg width="460pt" height="256pt"
 viewBox="0.00 0.00 460.00 256.00" xmlns="http://www.w3.org/2000/svg" xmlns:xlink="http://www.w3.org/1999/xlink">
<g id="graph0" class="graph" transform="scale(1 1) rotate(0) translate(4 252)">
<title>USBH_HAL_FreePipe</title>
<polygon fill="white" stroke="none" points="-4,4 -4,-252 456,-252 456,4 -4,4"/>
<!-- Node327 -->
<g id="node1" class="node"><title>Node327</title>
<polygon fill="#bfbfbf" stroke="black" points="0,-114.5 0,-133.5 116,-133.5 116,-114.5 0,-114.5"/>
<text text-anchor="middle" x="58" y="-121.5" font-family="Helvetica,sans-Serif" font-size="10.00">USBH_HAL_FreePipe</text>
</g>
<!-- Node328 -->
<g id="node2" class="node"><title>Node328</title>
<g id="a_node2"><a xlink:href="group__uhd__group.xhtml#gafb1043e05189c04ded956208eea3e2b5" target="_top" xlink:title="USBH_HAL_ControlReqEnd">
<polygon fill="white" stroke="red" points="152,-228.5 152,-247.5 297,-247.5 297,-228.5 152,-228.5"/>
<text text-anchor="middle" x="224.5" y="-235.5" font-family="Helvetica,sans-Serif" font-size="10.00">USBH_HAL_ControlReqEnd</text>
</a>
</g>
</g>
<!-- Node327&#45;&gt;Node328 -->
<g id="edge1" class="edge"><title>Node327&#45;&gt;Node328</title>
<path fill="none" stroke="midnightblue" d="M66.3933,-133.575C80.9058,-151.756 114.95,-191.466 152,-214 159.079,-218.305 167.026,-221.948 174.98,-224.994"/>
<polygon fill="midnightblue" stroke="midnightblue" points="174.033,-228.371 184.628,-228.416 176.374,-221.774 174.033,-228.371"/>
</g>
<!-- Node332 -->
<g id="node3" class="node"><title>Node332</title>
<g id="a_node3"><a xlink:href="usbhs_8h.xhtml#a963fd2f0eab05393ff85e14bfd909021" target="_top" xlink:title="USBHS_HostGetAddr">
<polygon fill="white" stroke="black" points="333,-209.5 333,-228.5 452,-228.5 452,-209.5 333,-209.5"/>
<text text-anchor="middle" x="392.5" y="-216.5" font-family="Helvetica,sans-Serif" font-size="10.00">USBHS_HostGetAddr</text>
</a>
</g>
</g>
<!-- Node327&#45;&gt;Node332 -->
<g id="edge4" class="edge"><title>Node327&#45;&gt;Node332</title>
<path fill="none" stroke="midnightblue" d="M71.1196,-133.618C88.1346,-146.588 120.555,-169.393 152,-181 207.309,-201.415 273.775,-210.866 322.64,-215.239"/>
<polygon fill="midnightblue" stroke="midnightblue" points="322.531,-218.743 332.79,-216.098 323.121,-211.767 322.531,-218.743"/>
</g>
<!-- Node334 -->
<g id="node4" class="node"><title>Node334</title>
<g id="a_node4"><a xlink:href="usbhs_8h.xhtml#aca1a73918c77f0aaa82395b55d760ae8" target="_top" xlink:title="Gets USB host interrupt status. ">
<polygon fill="white" stroke="black" points="154.5,-152.5 154.5,-171.5 294.5,-171.5 294.5,-152.5 154.5,-152.5"/>
<text text-anchor="middle" x="224.5" y="-159.5" font-family="Helvetica,sans-Serif" font-size="10.00">USBHS_IsHostPipeEnable</text>
</a>
</g>
</g>
<!-- Node327&#45;&gt;Node334 -->
<g id="edge3" class="edge"><title>Node327&#45;&gt;Node334</title>
<path fill="none" stroke="midnightblue" d="M100.51,-133.589C122.316,-138.626 149.232,-144.844 172.319,-150.177"/>
<polygon fill="midnightblue" stroke="midnightblue" points="171.757,-153.639 182.288,-152.48 173.333,-146.819 171.757,-153.639"/>
</g>
<!-- Node341 -->
<g id="node5" class="node"><title>Node341</title>
<g id="a_node5"><a xlink:href="usbhs_8h.xhtml#afc5b9450b58a00b6b0080285a6296595" target="_top" xlink:title="USBHS_GetPipeEpAddr">
<polygon fill="white" stroke="red" points="160,-114.5 160,-133.5 289,-133.5 289,-114.5 160,-114.5"/>
<text text-anchor="middle" x="224.5" y="-121.5" font-family="Helvetica,sans-Serif" font-size="10.00">USBHS_GetPipeEpAddr</text>
</a>
</g>
</g>
<!-- Node327&#45;&gt;Node341 -->
<g id="edge5" class="edge"><title>Node327&#45;&gt;Node341</title>
<path fill="none" stroke="midnightblue" d="M116.072,-124C126.872,-124 138.312,-124 149.543,-124"/>
<polygon fill="midnightblue" stroke="midnightblue" points="149.775,-127.5 159.775,-124 149.775,-120.5 149.775,-127.5"/>
</g>
<!-- Node343 -->
<g id="node6" class="node"><title>Node343</title>
<g id="a_node6"><a xlink:href="usbhs_8h.xhtml#a4aabd40a9718b4bab7036aa5439a266f" target="_top" xlink:title="Gets USB host interrupt status. ">
<polygon fill="white" stroke="black" points="157,-76.5 157,-95.5 292,-95.5 292,-76.5 157,-76.5"/>
<text text-anchor="middle" x="224.5" y="-83.5" font-family="Helvetica,sans-Serif" font-size="10.00">USBHS_HostPipeDisable</text>
</a>
</g>
</g>
<!-- Node327&#45;&gt;Node343 -->
<g id="edge6" class="edge"><title>Node327&#45;&gt;Node343</title>
<path fill="none" stroke="midnightblue" d="M100.51,-114.411C122.316,-109.374 149.232,-103.156 172.319,-97.8229"/>
<polygon fill="midnightblue" stroke="midnightblue" points="173.333,-101.181 182.288,-95.5201 171.757,-94.3607 173.333,-101.181"/>
</g>
<!-- Node344 -->
<g id="node7" class="node"><title>Node344</title>
<g id="a_node7"><a xlink:href="usbhs_8h.xhtml#a5af3c325c4029dd2830a88dcf6d8d360" target="_top" xlink:title="Gets USB host interrupt status. ">
<polygon fill="white" stroke="black" points="162.5,-38.5 162.5,-57.5 286.5,-57.5 286.5,-38.5 162.5,-38.5"/>
<text text-anchor="middle" x="224.5" y="-45.5" font-family="Helvetica,sans-Serif" font-size="10.00">USBHS_HostFreeMem</text>
</a>
</g>
</g>
<!-- Node327&#45;&gt;Node344 -->
<g id="edge7" class="edge"><title>Node327&#45;&gt;Node344</title>
<path fill="none" stroke="midnightblue" d="M71.8909,-114.412C89.2645,-101.895 121.538,-80.0515 152,-67 157.521,-64.6344 163.411,-62.4991 169.351,-60.5888"/>
<polygon fill="midnightblue" stroke="midnightblue" points="170.77,-63.8171 179.338,-57.5855 168.754,-57.1136 170.77,-63.8171"/>
</g>
<!-- Node345 -->
<g id="node8" class="node"><title>Node345</title>
<g id="a_node8"><a xlink:href="group__uhd__group.xhtml#gaba849a4ecb7f5b837541fbccf850da59" target="_top" xlink:title="USBH_HAL_PipeAbort">
<polygon fill="white" stroke="red" points="163.5,-0.5 163.5,-19.5 285.5,-19.5 285.5,-0.5 163.5,-0.5"/>
<text text-anchor="middle" x="224.5" y="-7.5" font-family="Helvetica,sans-Serif" font-size="10.00">USBH_HAL_PipeAbort</text>
</a>
</g>
</g>
<!-- Node327&#45;&gt;Node345 -->
<g id="edge8" class="edge"><title>Node327&#45;&gt;Node345</title>
<path fill="none" stroke="midnightblue" d="M65.702,-114.25C79.511,-94.9243 113.12,-51.6703 152,-29 155.849,-26.7559 159.967,-24.771 164.212,-23.0165"/>
<polygon fill="midnightblue" stroke="midnightblue" points="165.48,-26.2791 173.649,-19.5319 163.056,-19.7124 165.48,-26.2791"/>
</g>
<!-- Node328&#45;&gt;Node332 -->
<g id="edge2" class="edge"><title>Node328&#45;&gt;Node332</title>
<path fill="none" stroke="midnightblue" d="M297.345,-229.777C305.754,-228.814 314.32,-227.834 322.687,-226.876"/>
<polygon fill="midnightblue" stroke="midnightblue" points="323.234,-230.337 332.771,-225.722 322.438,-223.382 323.234,-230.337"/>
</g>
</g>
</svg>
