<?xml version="1.0" encoding="UTF-8" standalone="no"?>
<!DOCTYPE svg PUBLIC "-//W3C//DTD SVG 1.1//EN"
 "http://www.w3.org/Graphics/SVG/1.1/DTD/svg11.dtd">
<!-- Generated by graphviz version 2.38.0 (20140413.2041)
 -->
<!-- Title: MCAN_GetRxDedBuffer Pages: 1 -->
<svg width="323pt" height="66pt"
 viewBox="0.00 0.00 323.00 66.00" xmlns="http://www.w3.org/2000/svg" xmlns:xlink="http://www.w3.org/1999/xlink">
<g id="graph0" class="graph" transform="scale(1 1) rotate(0) translate(4 62)">
<title>MCAN_GetRxDedBuffer</title>
<polygon fill="white" stroke="none" points="-4,4 -4,-62 319,-62 319,4 -4,4"/>
<!-- Node15 -->
<g id="node1" class="node"><title>Node15</title>
<polygon fill="#bfbfbf" stroke="black" points="0,-19.5 0,-38.5 128,-38.5 128,-19.5 0,-19.5"/>
<text text-anchor="middle" x="64" y="-26.5" font-family="Helvetica,sans-Serif" font-size="10.00">MCAN_GetRxDedBuffer</text>
</g>
<!-- Node16 -->
<g id="node2" class="node"><title>Node16</title>
<g id="a_node2"><a xlink:href="group___c_m_s_i_s___core___cache_functions.xhtml#ga696fadbf7b9cc71dad42fab61873a40d" target="_top" xlink:title="SCB_CleanDCache_by_Addr">
<polygon fill="white" stroke="red" points="164,-38.5 164,-57.5 315,-57.5 315,-38.5 164,-38.5"/>
<text text-anchor="middle" x="239.5" y="-45.5" font-family="Helvetica,sans-Serif" font-size="10.00">SCB_CleanDCache_by_Addr</text>
</a>
</g>
</g>
<!-- Node15&#45;&gt;Node16 -->
<g id="edge1" class="edge"><title>Node15&#45;&gt;Node16</title>
<path fill="none" stroke="midnightblue" d="M128.128,-35.9132C136.485,-36.8283 145.158,-37.7782 153.805,-38.725"/>
<polygon fill="midnightblue" stroke="midnightblue" points="153.6,-42.2234 163.921,-39.8329 154.362,-35.265 153.6,-42.2234"/>
</g>
<!-- Node19 -->
<g id="node3" class="node"><title>Node19</title>
<g id="a_node3"><a xlink:href="group__udd__udphs__group.xhtml#gae90f972fe3687ee01b803027939cdb47" target="_top" xlink:title="if">
<polygon fill="white" stroke="black" points="225,-0.5 225,-19.5 254,-19.5 254,-0.5 225,-0.5"/>
<text text-anchor="middle" x="239.5" y="-7.5" font-family="Helvetica,sans-Serif" font-size="10.00">if</text>
</a>
</g>
</g>
<!-- Node15&#45;&gt;Node19 -->
<g id="edge2" class="edge"><title>Node15&#45;&gt;Node19</title>
<path fill="none" stroke="midnightblue" d="M128.128,-22.0868C158.133,-18.801 192.22,-15.0682 214.473,-12.6312"/>
<polygon fill="midnightblue" stroke="midnightblue" points="215.103,-16.0833 224.662,-11.5154 214.341,-9.12485 215.103,-16.0833"/>
</g>
</g>
</svg>
