<?xml version="1.0" encoding="UTF-8" standalone="no"?>
<!DOCTYPE svg PUBLIC "-//W3C//DTD SVG 1.1//EN"
 "http://www.w3.org/Graphics/SVG/1.1/DTD/svg11.dtd">
<!-- Generated by graphviz version 2.38.0 (20140413.2041)
 -->
<!-- Title: CMSIS Definitions Pages: 1 -->
<svg width="485pt" height="981pt"
 viewBox="0.00 0.00 485.00 981.00" xmlns="http://www.w3.org/2000/svg" xmlns:xlink="http://www.w3.org/1999/xlink">
<g id="graph0" class="graph" transform="scale(1 1) rotate(0) translate(4 977)">
<title>CMSIS Definitions</title>
<polygon fill="white" stroke="none" points="-4,4 -4,-977 481,-977 481,4 -4,4"/>
<!-- Node6 -->
<g id="node1" class="node"><title>Node6</title>
<g id="a_node1"><a xlink:href="group___s_a_m_e70_n20__cmsis.xhtml" target="_top" xlink:title="CMSIS Definitions">
<polygon fill="white" stroke="black" points="376,-950.5 376,-969.5 477,-969.5 477,-950.5 376,-950.5"/>
<text text-anchor="middle" x="426.5" y="-957.5" font-family="Helvetica,sans-Serif" font-size="10.00">CMSIS Definitions</text>
</a>
</g>
</g>
<!-- Node2 -->
<g id="node2" class="node"><title>Node2</title>
<g id="a_node2"><a xlink:href="group___s_a_m_e70_j19__cmsis.xhtml" target="_top" xlink:title="CMSIS Definitions">
<polygon fill="white" stroke="black" points="376,-912.5 376,-931.5 477,-931.5 477,-912.5 376,-912.5"/>
<text text-anchor="middle" x="426.5" y="-919.5" font-family="Helvetica,sans-Serif" font-size="10.00">CMSIS Definitions</text>
</a>
</g>
</g>
<!-- Node17 -->
<g id="node3" class="node"><title>Node17</title>
<g id="a_node3"><a xlink:href="group___s_a_m_s70_q20__cmsis.xhtml" target="_top" xlink:title="CMSIS Definitions">
<polygon fill="white" stroke="black" points="376,-874.5 376,-893.5 477,-893.5 477,-874.5 376,-874.5"/>
<text text-anchor="middle" x="426.5" y="-881.5" font-family="Helvetica,sans-Serif" font-size="10.00">CMSIS Definitions</text>
</a>
</g>
</g>
<!-- Node25 -->
<g id="node4" class="node"><title>Node25</title>
<g id="a_node4"><a xlink:href="group___s_a_m_v71_q19__cmsis.xhtml" target="_top" xlink:title="CMSIS Definitions">
<polygon fill="white" stroke="black" points="376,-836.5 376,-855.5 477,-855.5 477,-836.5 376,-836.5"/>
<text text-anchor="middle" x="426.5" y="-843.5" font-family="Helvetica,sans-Serif" font-size="10.00">CMSIS Definitions</text>
</a>
</g>
</g>
<!-- Node19 -->
<g id="node5" class="node"><title>Node19</title>
<g id="a_node5"><a xlink:href="group___s_a_m_v71_j19__cmsis.xhtml" target="_top" xlink:title="CMSIS Definitions">
<polygon fill="white" stroke="black" points="376,-798.5 376,-817.5 477,-817.5 477,-798.5 376,-798.5"/>
<text text-anchor="middle" x="426.5" y="-805.5" font-family="Helvetica,sans-Serif" font-size="10.00">CMSIS Definitions</text>
</a>
</g>
</g>
<!-- Node5 -->
<g id="node6" class="node"><title>Node5</title>
<g id="a_node6"><a xlink:href="group___s_a_m_e70_n19__cmsis.xhtml" target="_top" xlink:title="CMSIS Definitions">
<polygon fill="white" stroke="black" points="376,-760.5 376,-779.5 477,-779.5 477,-760.5 376,-760.5"/>
<text text-anchor="middle" x="426.5" y="-767.5" font-family="Helvetica,sans-Serif" font-size="10.00">CMSIS Definitions</text>
</a>
</g>
</g>
<!-- Node1 -->
<g id="node7" class="node"><title>Node1</title>
<g id="a_node7"><a xlink:href="group___s_a_m_s70_n20__definitions.xhtml" target="_top" xlink:title="This file defines all structures and symbols for SAMS70N20: ">
<polygon fill="white" stroke="black" points="0,-475.5 0,-494.5 128,-494.5 128,-475.5 0,-475.5"/>
<text text-anchor="middle" x="64" y="-482.5" font-family="Helvetica,sans-Serif" font-size="10.00">SAMS70N20 definitions</text>
</a>
</g>
</g>
<!-- Node0 -->
<g id="node17" class="node"><title>Node0</title>
<polygon fill="#bfbfbf" stroke="black" points="165,-475.5 165,-494.5 266,-494.5 266,-475.5 165,-475.5"/>
<text text-anchor="middle" x="215.5" y="-482.5" font-family="Helvetica,sans-Serif" font-size="10.00">CMSIS Definitions</text>
</g>
<!-- Node1&#45;&gt;Node0 -->
<g id="edge1" class="edge"><title>Node1&#45;&gt;Node0</title>
<path fill="none" stroke="black" d="M138.675,-485C147.459,-485 156.263,-485 164.602,-485"/>
<polygon fill="black" stroke="black" points="138.401,-481.5 128.401,-485 138.401,-488.5 138.401,-481.5"/>
</g>
<!-- Node11 -->
<g id="node8" class="node"><title>Node11</title>
<g id="a_node8"><a xlink:href="group___s_a_m_s70_j19__cmsis.xhtml" target="_top" xlink:title="CMSIS Definitions">
<polygon fill="white" stroke="black" points="376,-722.5 376,-741.5 477,-741.5 477,-722.5 376,-722.5"/>
<text text-anchor="middle" x="426.5" y="-729.5" font-family="Helvetica,sans-Serif" font-size="10.00">CMSIS Definitions</text>
</a>
</g>
</g>
<!-- Node22 -->
<g id="node9" class="node"><title>Node22</title>
<g id="a_node9"><a xlink:href="group___s_a_m_v71_n19__cmsis.xhtml" target="_top" xlink:title="CMSIS Definitions">
<polygon fill="white" stroke="black" points="376,-684.5 376,-703.5 477,-703.5 477,-684.5 376,-684.5"/>
<text text-anchor="middle" x="426.5" y="-691.5" font-family="Helvetica,sans-Serif" font-size="10.00">CMSIS Definitions</text>
</a>
</g>
</g>
<!-- Node26 -->
<g id="node10" class="node"><title>Node26</title>
<g id="a_node10"><a xlink:href="group___s_a_m_v71_q20__cmsis.xhtml" target="_top" xlink:title="CMSIS Definitions">
<polygon fill="white" stroke="black" points="376,-646.5 376,-665.5 477,-665.5 477,-646.5 376,-646.5"/>
<text text-anchor="middle" x="426.5" y="-653.5" font-family="Helvetica,sans-Serif" font-size="10.00">CMSIS Definitions</text>
</a>
</g>
</g>
<!-- Node14 -->
<g id="node11" class="node"><title>Node14</title>
<g id="a_node11"><a xlink:href="group___s_a_m_s70_n19__cmsis.xhtml" target="_top" xlink:title="CMSIS Definitions">
<polygon fill="white" stroke="black" points="376,-608.5 376,-627.5 477,-627.5 477,-608.5 376,-608.5"/>
<text text-anchor="middle" x="426.5" y="-615.5" font-family="Helvetica,sans-Serif" font-size="10.00">CMSIS Definitions</text>
</a>
</g>
</g>
<!-- Node10 -->
<g id="node12" class="node"><title>Node10</title>
<g id="a_node12"><a xlink:href="group___s_a_m_e70_q21__cmsis.xhtml" target="_top" xlink:title="CMSIS Definitions">
<polygon fill="white" stroke="black" points="376,-570.5 376,-589.5 477,-589.5 477,-570.5 376,-570.5"/>
<text text-anchor="middle" x="426.5" y="-577.5" font-family="Helvetica,sans-Serif" font-size="10.00">CMSIS Definitions</text>
</a>
</g>
</g>
<!-- Node20 -->
<g id="node13" class="node"><title>Node20</title>
<g id="a_node13"><a xlink:href="group___s_a_m_v71_j20__cmsis.xhtml" target="_top" xlink:title="CMSIS Definitions">
<polygon fill="white" stroke="black" points="376,-532.5 376,-551.5 477,-551.5 477,-532.5 376,-532.5"/>
<text text-anchor="middle" x="426.5" y="-539.5" font-family="Helvetica,sans-Serif" font-size="10.00">CMSIS Definitions</text>
</a>
</g>
</g>
<!-- Node12 -->
<g id="node14" class="node"><title>Node12</title>
<g id="a_node14"><a xlink:href="group___s_a_m_s70_j20__cmsis.xhtml" target="_top" xlink:title="CMSIS Definitions">
<polygon fill="white" stroke="black" points="376,-494.5 376,-513.5 477,-513.5 477,-494.5 376,-494.5"/>
<text text-anchor="middle" x="426.5" y="-501.5" font-family="Helvetica,sans-Serif" font-size="10.00">CMSIS Definitions</text>
</a>
</g>
</g>
<!-- Node18 -->
<g id="node15" class="node"><title>Node18</title>
<g id="a_node15"><a xlink:href="group___s_a_m_s70_q21__cmsis.xhtml" target="_top" xlink:title="CMSIS Definitions">
<polygon fill="white" stroke="black" points="376,-456.5 376,-475.5 477,-475.5 477,-456.5 376,-456.5"/>
<text text-anchor="middle" x="426.5" y="-463.5" font-family="Helvetica,sans-Serif" font-size="10.00">CMSIS Definitions</text>
</a>
</g>
</g>
<!-- Node23 -->
<g id="node16" class="node"><title>Node23</title>
<g id="a_node16"><a xlink:href="group___s_a_m_v71_n20__cmsis.xhtml" target="_top" xlink:title="CMSIS Definitions">
<polygon fill="white" stroke="black" points="376,-418.5 376,-437.5 477,-437.5 477,-418.5 376,-418.5"/>
<text text-anchor="middle" x="426.5" y="-425.5" font-family="Helvetica,sans-Serif" font-size="10.00">CMSIS Definitions</text>
</a>
</g>
</g>
<!-- Node0&#45;&gt;Node6 -->
<g id="edge6" class="edge"><title>Node0&#45;&gt;Node6</title>
<path fill="none" stroke="orange" stroke-dasharray="5,2" d="M216.502,-494.721C216.722,-554.086 220.89,-867.379 284,-933 307.317,-957.244 345.192,-963.466 375.891,-963.911"/>
<text text-anchor="middle" x="321" y="-965" font-family="Helvetica,sans-Serif" font-size="10.00">_DeviceVectors</text>
</g>
<!-- Node0&#45;&gt;Node2 -->
<g id="edge2" class="edge"><title>Node0&#45;&gt;Node2</title>
<path fill="none" stroke="orange" stroke-dasharray="5,2" d="M216.599,-494.768C217.385,-551.749 224.305,-840.722 284,-900 296.79,-912.7 340.486,-918.072 375.975,-920.342"/>
<text text-anchor="middle" x="321" y="-921" font-family="Helvetica,sans-Serif" font-size="10.00">_DeviceVectors</text>
</g>
<!-- Node0&#45;&gt;Node17 -->
<g id="edge17" class="edge"><title>Node0&#45;&gt;Node17</title>
<path fill="none" stroke="orange" stroke-dasharray="5,2" d="M216.829,-494.76C218.828,-548.07 231.098,-803.617 284,-857 307.589,-880.804 345.253,-887.086 375.793,-887.667"/>
<text text-anchor="middle" x="321" y="-889" font-family="Helvetica,sans-Serif" font-size="10.00">_DeviceVectors</text>
</g>
<!-- Node0&#45;&gt;Node25 -->
<g id="edge25" class="edge"><title>Node0&#45;&gt;Node25</title>
<path fill="none" stroke="orange" stroke-dasharray="5,2" d="M216.973,-494.58C219.655,-544.745 234.614,-776.66 284,-824 296.967,-836.43 340.378,-841.837 375.734,-844.189"/>
<text text-anchor="middle" x="321" y="-845" font-family="Helvetica,sans-Serif" font-size="10.00">_DeviceVectors</text>
</g>
<!-- Node0&#45;&gt;Node19 -->
<g id="edge19" class="edge"><title>Node0&#45;&gt;Node19</title>
<path fill="none" stroke="orange" stroke-dasharray="5,2" d="M217.243,-494.728C221.037,-541.722 239.812,-744.651 284,-786 308.234,-808.677 345.673,-813.686 375.955,-813.286"/>
<text text-anchor="middle" x="321" y="-815" font-family="Helvetica,sans-Serif" font-size="10.00">_DeviceVectors</text>
</g>
<!-- Node0&#45;&gt;Node5 -->
<g id="edge5" class="edge"><title>Node0&#45;&gt;Node5</title>
<path fill="none" stroke="orange" stroke-dasharray="5,2" d="M217.568,-494.638C222.546,-537.771 244.902,-712.521 284,-748 308.487,-770.22 345.723,-775.29 375.852,-775.033"/>
<text text-anchor="middle" x="321" y="-777" font-family="Helvetica,sans-Serif" font-size="10.00">_DeviceVectors</text>
</g>
<!-- Node0&#45;&gt;Node11 -->
<g id="edge11" class="edge"><title>Node0&#45;&gt;Node11</title>
<path fill="none" stroke="orange" stroke-dasharray="5,2" d="M216.107,-494.968C215.304,-530.352 217.716,-650.909 284,-709 308.801,-730.735 345.835,-736.133 375.795,-736.282"/>
<text text-anchor="middle" x="321" y="-738" font-family="Helvetica,sans-Serif" font-size="10.00">_DeviceVectors</text>
</g>
<!-- Node0&#45;&gt;Node22 -->
<g id="edge22" class="edge"><title>Node0&#45;&gt;Node22</title>
<path fill="none" stroke="orange" stroke-dasharray="5,2" d="M216.902,-494.824C218.732,-525.712 228.813,-621.557 284,-668 309.226,-689.229 346.058,-695.478 375.821,-696.551"/>
<text text-anchor="middle" x="321" y="-697" font-family="Helvetica,sans-Serif" font-size="10.00">_DeviceVectors</text>
</g>
<!-- Node0&#45;&gt;Node26 -->
<g id="edge26" class="edge"><title>Node0&#45;&gt;Node26</title>
<path fill="none" stroke="orange" stroke-dasharray="5,2" d="M218.119,-494.702C222.965,-520.513 239.848,-591.263 284,-626 309.854,-646.341 346.301,-653.72 375.729,-656.076"/>
<text text-anchor="middle" x="321" y="-656" font-family="Helvetica,sans-Serif" font-size="10.00">_DeviceVectors</text>
</g>
<!-- Node0&#45;&gt;Node14 -->
<g id="edge14" class="edge"><title>Node0&#45;&gt;Node14</title>
<path fill="none" stroke="orange" stroke-dasharray="5,2" d="M220.269,-494.528C228.599,-514.296 250.527,-559.85 284,-583 310.954,-601.641 346.847,-610.379 375.738,-614.463"/>
<text text-anchor="middle" x="321" y="-614" font-family="Helvetica,sans-Serif" font-size="10.00">_DeviceVectors</text>
</g>
<!-- Node0&#45;&gt;Node10 -->
<g id="edge10" class="edge"><title>Node0&#45;&gt;Node10</title>
<path fill="none" stroke="orange" stroke-dasharray="5,2" d="M224.65,-494.506C236.421,-507.624 259.474,-531.115 284,-544 312.611,-559.031 347.822,-568.019 375.962,-573.256"/>
<text text-anchor="middle" x="321" y="-571" font-family="Helvetica,sans-Serif" font-size="10.00">_DeviceVectors</text>
</g>
<!-- Node0&#45;&gt;Node20 -->
<g id="edge20" class="edge"><title>Node0&#45;&gt;Node20</title>
<path fill="none" stroke="orange" stroke-dasharray="5,2" d="M237.747,-494.59C250.874,-500.24 268.179,-507.197 284,-512 314.037,-521.118 348.477,-528.484 375.859,-533.635"/>
<text text-anchor="middle" x="321" y="-532" font-family="Helvetica,sans-Serif" font-size="10.00">_DeviceVectors</text>
</g>
<!-- Node0&#45;&gt;Node12 -->
<g id="edge12" class="edge"><title>Node0&#45;&gt;Node12</title>
<path fill="none" stroke="orange" stroke-dasharray="5,2" d="M266.03,-489.503C299.226,-492.521 342.767,-496.479 375.964,-499.497"/>
<text text-anchor="middle" x="321" y="-500" font-family="Helvetica,sans-Serif" font-size="10.00">_DeviceVectors</text>
</g>
<!-- Node0&#45;&gt;Node18 -->
<g id="edge18" class="edge"><title>Node0&#45;&gt;Node18</title>
<path fill="none" stroke="orange" stroke-dasharray="5,2" d="M266.224,-478.015C272.207,-477.279 278.237,-476.587 284,-476 314.503,-472.892 348.804,-470.442 375.994,-468.745"/>
<text text-anchor="middle" x="321" y="-479" font-family="Helvetica,sans-Serif" font-size="10.00">_DeviceVectors</text>
</g>
<!-- Node0&#45;&gt;Node23 -->
<g id="edge23" class="edge"><title>Node0&#45;&gt;Node23</title>
<path fill="none" stroke="orange" stroke-dasharray="5,2" d="M234.964,-475.407C248.285,-468.833 266.866,-460.364 284,-455 313.834,-445.661 348.269,-439.004 375.7,-434.638"/>
<text text-anchor="middle" x="321" y="-458" font-family="Helvetica,sans-Serif" font-size="10.00">_DeviceVectors</text>
</g>
<!-- Node27 -->
<g id="node18" class="node"><title>Node27</title>
<g id="a_node18"><a xlink:href="group___s_a_m_v71_q21__cmsis.xhtml" target="_top" xlink:title="CMSIS Definitions">
<polygon fill="white" stroke="black" points="376,-380.5 376,-399.5 477,-399.5 477,-380.5 376,-380.5"/>
<text text-anchor="middle" x="426.5" y="-387.5" font-family="Helvetica,sans-Serif" font-size="10.00">CMSIS Definitions</text>
</a>
</g>
</g>
<!-- Node0&#45;&gt;Node27 -->
<g id="edge27" class="edge"><title>Node0&#45;&gt;Node27</title>
<path fill="none" stroke="orange" stroke-dasharray="5,2" d="M224.119,-475.389C235.593,-461.596 258.675,-436.379 284,-423 312.437,-407.976 347.648,-399.732 375.831,-395.241"/>
<text text-anchor="middle" x="321" y="-426" font-family="Helvetica,sans-Serif" font-size="10.00">_DeviceVectors</text>
</g>
<!-- Node4 -->
<g id="node19" class="node"><title>Node4</title>
<g id="a_node19"><a xlink:href="group___s_a_m_e70_j21__cmsis.xhtml" target="_top" xlink:title="CMSIS Definitions">
<polygon fill="white" stroke="black" points="376,-342.5 376,-361.5 477,-361.5 477,-342.5 376,-342.5"/>
<text text-anchor="middle" x="426.5" y="-349.5" font-family="Helvetica,sans-Serif" font-size="10.00">CMSIS Definitions</text>
</a>
</g>
</g>
<!-- Node0&#45;&gt;Node4 -->
<g id="edge4" class="edge"><title>Node0&#45;&gt;Node4</title>
<path fill="none" stroke="orange" stroke-dasharray="5,2" d="M220.188,-475.243C228.363,-455.006 250.016,-408.404 284,-385 310.904,-366.472 346.798,-358.245 375.701,-354.638"/>
<text text-anchor="middle" x="321" y="-388" font-family="Helvetica,sans-Serif" font-size="10.00">_DeviceVectors</text>
</g>
<!-- Node9 -->
<g id="node20" class="node"><title>Node9</title>
<g id="a_node20"><a xlink:href="group___s_a_m_e70_q20__cmsis.xhtml" target="_top" xlink:title="CMSIS Definitions">
<polygon fill="white" stroke="black" points="376,-304.5 376,-323.5 477,-323.5 477,-304.5 376,-304.5"/>
<text text-anchor="middle" x="426.5" y="-311.5" font-family="Helvetica,sans-Serif" font-size="10.00">CMSIS Definitions</text>
</a>
</g>
</g>
<!-- Node0&#45;&gt;Node9 -->
<g id="edge9" class="edge"><title>Node0&#45;&gt;Node9</title>
<path fill="none" stroke="orange" stroke-dasharray="5,2" d="M218.084,-475.215C222.84,-449.183 239.523,-377.848 284,-343 309.858,-322.74 346.305,-315.621 375.732,-313.499"/>
<text text-anchor="middle" x="321" y="-346" font-family="Helvetica,sans-Serif" font-size="10.00">_DeviceVectors</text>
</g>
<!-- Node21 -->
<g id="node21" class="node"><title>Node21</title>
<g id="a_node21"><a xlink:href="group___s_a_m_v71_j21__cmsis.xhtml" target="_top" xlink:title="CMSIS Definitions">
<polygon fill="white" stroke="black" points="376,-266.5 376,-285.5 477,-285.5 477,-266.5 376,-266.5"/>
<text text-anchor="middle" x="426.5" y="-273.5" font-family="Helvetica,sans-Serif" font-size="10.00">CMSIS Definitions</text>
</a>
</g>
</g>
<!-- Node0&#45;&gt;Node21 -->
<g id="edge21" class="edge"><title>Node0&#45;&gt;Node21</title>
<path fill="none" stroke="orange" stroke-dasharray="5,2" d="M216.87,-475.108C218.603,-444.008 228.429,-347.525 284,-301 309.249,-279.861 346.08,-273.875 375.837,-273.036"/>
<text text-anchor="middle" x="321" y="-304" font-family="Helvetica,sans-Serif" font-size="10.00">_DeviceVectors</text>
</g>
<!-- Node13 -->
<g id="node22" class="node"><title>Node13</title>
<g id="a_node22"><a xlink:href="group___s_a_m_s70_j21__cmsis.xhtml" target="_top" xlink:title="CMSIS Definitions">
<polygon fill="white" stroke="black" points="376,-228.5 376,-247.5 477,-247.5 477,-228.5 376,-228.5"/>
<text text-anchor="middle" x="426.5" y="-235.5" font-family="Helvetica,sans-Serif" font-size="10.00">CMSIS Definitions</text>
</a>
</g>
</g>
<!-- Node0&#45;&gt;Node13 -->
<g id="edge13" class="edge"><title>Node0&#45;&gt;Node13</title>
<path fill="none" stroke="orange" stroke-dasharray="5,2" d="M216.09,-475.46C215.153,-440.501 216.972,-318.408 284,-260 308.835,-238.359 345.868,-233.226 375.819,-233.31"/>
<text text-anchor="middle" x="321" y="-263" font-family="Helvetica,sans-Serif" font-size="10.00">_DeviceVectors</text>
</g>
<!-- Node7 -->
<g id="node23" class="node"><title>Node7</title>
<g id="a_node23"><a xlink:href="group___s_a_m_e70_n21__cmsis.xhtml" target="_top" xlink:title="CMSIS Definitions">
<polygon fill="white" stroke="black" points="376,-190.5 376,-209.5 477,-209.5 477,-190.5 376,-190.5"/>
<text text-anchor="middle" x="426.5" y="-197.5" font-family="Helvetica,sans-Serif" font-size="10.00">CMSIS Definitions</text>
</a>
</g>
</g>
<!-- Node0&#45;&gt;Node7 -->
<g id="edge7" class="edge"><title>Node0&#45;&gt;Node7</title>
<path fill="none" stroke="orange" stroke-dasharray="5,2" d="M217.545,-475.277C222.422,-431.764 244.409,-255.495 284,-220 308.569,-197.973 345.802,-193.435 375.909,-194.159"/>
<text text-anchor="middle" x="321" y="-223" font-family="Helvetica,sans-Serif" font-size="10.00">_DeviceVectors</text>
</g>
<!-- Node24 -->
<g id="node24" class="node"><title>Node24</title>
<g id="a_node24"><a xlink:href="group___s_a_m_v71_n21__cmsis.xhtml" target="_top" xlink:title="CMSIS Definitions">
<polygon fill="white" stroke="black" points="376,-152.5 376,-171.5 477,-171.5 477,-152.5 376,-152.5"/>
<text text-anchor="middle" x="426.5" y="-159.5" font-family="Helvetica,sans-Serif" font-size="10.00">CMSIS Definitions</text>
</a>
</g>
</g>
<!-- Node0&#45;&gt;Node24 -->
<g id="edge24" class="edge"><title>Node0&#45;&gt;Node24</title>
<path fill="none" stroke="orange" stroke-dasharray="5,2" d="M217.175,-475.433C220.705,-428.299 238.635,-221.403 284,-180 308.328,-157.797 345.57,-153.806 375.741,-155.097"/>
<text text-anchor="middle" x="321" y="-183" font-family="Helvetica,sans-Serif" font-size="10.00">_DeviceVectors</text>
</g>
<!-- Node15 -->
<g id="node25" class="node"><title>Node15</title>
<g id="a_node25"><a xlink:href="group___s_a_m_s70_n21__cmsis.xhtml" target="_top" xlink:title="CMSIS Definitions">
<polygon fill="white" stroke="black" points="376,-114.5 376,-133.5 477,-133.5 477,-114.5 376,-114.5"/>
<text text-anchor="middle" x="426.5" y="-121.5" font-family="Helvetica,sans-Serif" font-size="10.00">CMSIS Definitions</text>
</a>
</g>
</g>
<!-- Node0&#45;&gt;Node15 -->
<g id="edge15" class="edge"><title>Node0&#45;&gt;Node15</title>
<path fill="none" stroke="orange" stroke-dasharray="5,2" d="M216.921,-475.249C219.336,-424.192 233.154,-188.207 284,-141 308.207,-118.526 345.647,-114.868 375.936,-116.514"/>
<text text-anchor="middle" x="321" y="-144" font-family="Helvetica,sans-Serif" font-size="10.00">_DeviceVectors</text>
</g>
<!-- Node8 -->
<g id="node26" class="node"><title>Node8</title>
<g id="a_node26"><a xlink:href="group___s_a_m_e70_q19__cmsis.xhtml" target="_top" xlink:title="CMSIS Definitions">
<polygon fill="white" stroke="black" points="376,-76.5 376,-95.5 477,-95.5 477,-76.5 376,-76.5"/>
<text text-anchor="middle" x="426.5" y="-83.5" font-family="Helvetica,sans-Serif" font-size="10.00">CMSIS Definitions</text>
</a>
</g>
</g>
<!-- Node0&#45;&gt;Node8 -->
<g id="edge8" class="edge"><title>Node0&#45;&gt;Node8</title>
<path fill="none" stroke="orange" stroke-dasharray="5,2" d="M216.705,-475.243C218.064,-420.797 227.548,-155.064 284,-102 308.048,-79.395 345.495,-76.0152 375.827,-77.9566"/>
<text text-anchor="middle" x="321" y="-105" font-family="Helvetica,sans-Serif" font-size="10.00">_DeviceVectors</text>
</g>
<!-- Node3 -->
<g id="node27" class="node"><title>Node3</title>
<g id="a_node27"><a xlink:href="group___s_a_m_e70_j20__cmsis.xhtml" target="_top" xlink:title="CMSIS Definitions">
<polygon fill="white" stroke="black" points="376,-38.5 376,-57.5 477,-57.5 477,-38.5 376,-38.5"/>
<text text-anchor="middle" x="426.5" y="-45.5" font-family="Helvetica,sans-Serif" font-size="10.00">CMSIS Definitions</text>
</a>
</g>
</g>
<!-- Node0&#45;&gt;Node3 -->
<g id="edge3" class="edge"><title>Node0&#45;&gt;Node3</title>
<path fill="none" stroke="orange" stroke-dasharray="5,2" d="M216.526,-475.4C216.895,-418.12 221.82,-121.969 284,-63 307.93,-40.3061 345.382,-37.2021 375.745,-39.4278"/>
<text text-anchor="middle" x="321" y="-66" font-family="Helvetica,sans-Serif" font-size="10.00">_DeviceVectors</text>
</g>
<!-- Node16 -->
<g id="node28" class="node"><title>Node16</title>
<g id="a_node28"><a xlink:href="group___s_a_m_s70_q19__cmsis.xhtml" target="_top" xlink:title="CMSIS Definitions">
<polygon fill="white" stroke="black" points="376,-0.5 376,-19.5 477,-19.5 477,-0.5 376,-0.5"/>
<text text-anchor="middle" x="426.5" y="-7.5" font-family="Helvetica,sans-Serif" font-size="10.00">CMSIS Definitions</text>
</a>
</g>
</g>
<!-- Node0&#45;&gt;Node16 -->
<g id="edge16" class="edge"><title>Node0&#45;&gt;Node16</title>
<path fill="none" stroke="orange" stroke-dasharray="5,2" d="M216.379,-475.312C215.835,-414.76 216.119,-88.7785 284,-24 307.842,-1.24805 345.298,1.58157 375.685,-0.920073"/>
<text text-anchor="middle" x="321" y="-27" font-family="Helvetica,sans-Serif" font-size="10.00">_DeviceVectors</text>
</g>
</g>
</svg>
