<?xml version="1.0" encoding="UTF-8" standalone="no"?>
<!DOCTYPE svg PUBLIC "-//W3C//DTD SVG 1.1//EN"
 "http://www.w3.org/Graphics/SVG/1.1/DTD/svg11.dtd">
<!-- Generated by graphviz version 2.38.0 (20140413.2041)
 -->
<!-- Title: MCID_Handler Pages: 1 -->
<svg width="244pt" height="218pt"
 viewBox="0.00 0.00 244.00 218.00" xmlns="http://www.w3.org/2000/svg" xmlns:xlink="http://www.w3.org/1999/xlink">
<g id="graph0" class="graph" transform="scale(1 1) rotate(0) translate(4 214)">
<title>MCID_Handler</title>
<polygon fill="white" stroke="none" points="-4,4 -4,-214 240,-214 240,4 -4,4"/>
<!-- Node93 -->
<g id="node1" class="node"><title>Node93</title>
<polygon fill="#bfbfbf" stroke="black" points="0,-95.5 0,-114.5 84,-114.5 84,-95.5 0,-95.5"/>
<text text-anchor="middle" x="42" y="-102.5" font-family="Helvetica,sans-Serif" font-size="10.00">MCID_Handler</text>
</g>
<!-- Node94 -->
<g id="node2" class="node"><title>Node94</title>
<g id="a_node2"><a xlink:href="group__hsmci__functions.xhtml#ga7395ec7b356ef056f786107518137a56" target="_top" xlink:title="Return the status register. ">
<polygon fill="white" stroke="black" points="127,-190.5 127,-209.5 229,-209.5 229,-190.5 127,-190.5"/>
<text text-anchor="middle" x="178" y="-197.5" font-family="Helvetica,sans-Serif" font-size="10.00">HSMCI_GetStatus</text>
</a>
</g>
</g>
<!-- Node93&#45;&gt;Node94 -->
<g id="edge1" class="edge"><title>Node93&#45;&gt;Node94</title>
<path fill="none" stroke="midnightblue" d="M50.2412,-114.584C62.7753,-130.546 90.0615,-162.632 120,-181 123.355,-183.058 126.959,-184.923 130.667,-186.606"/>
<polygon fill="midnightblue" stroke="midnightblue" points="129.43,-189.881 140.011,-190.422 132.077,-183.401 129.43,-189.881"/>
</g>
<!-- Node95 -->
<g id="node3" class="node"><title>Node95</title>
<g id="a_node3"><a xlink:href="group__hsmci__functions.xhtml#gae4fc955f147a6f1fa8d8c511e7f9f4f6" target="_top" xlink:title="Return the interrupt mask register. ">
<polygon fill="white" stroke="black" points="127.5,-152.5 127.5,-171.5 228.5,-171.5 228.5,-152.5 127.5,-152.5"/>
<text text-anchor="middle" x="178" y="-159.5" font-family="Helvetica,sans-Serif" font-size="10.00">HSMCI_GetItMask</text>
</a>
</g>
</g>
<!-- Node93&#45;&gt;Node95 -->
<g id="edge2" class="edge"><title>Node93&#45;&gt;Node95</title>
<path fill="none" stroke="midnightblue" d="M60.7277,-114.614C76.1325,-122.757 99.1811,-134.44 120,-143 125.125,-145.107 130.578,-147.158 136.002,-149.085"/>
<polygon fill="midnightblue" stroke="midnightblue" points="135.061,-152.463 145.655,-152.406 137.338,-145.844 135.061,-152.463"/>
</g>
<!-- Node96 -->
<g id="node4" class="node"><title>Node96</title>
<g id="a_node4"><a xlink:href="group__hsmci__functions.xhtml#ga273099b0076489b4216672fb85d8a813" target="_top" xlink:title="Disable one or more interrupt sources of MCI peripheral. ">
<polygon fill="white" stroke="black" points="130.5,-114.5 130.5,-133.5 225.5,-133.5 225.5,-114.5 130.5,-114.5"/>
<text text-anchor="middle" x="178" y="-121.5" font-family="Helvetica,sans-Serif" font-size="10.00">HSMCI_DisableIt</text>
</a>
</g>
</g>
<!-- Node93&#45;&gt;Node96 -->
<g id="edge3" class="edge"><title>Node93&#45;&gt;Node96</title>
<path fill="none" stroke="midnightblue" d="M84.2978,-110.856C95.7125,-112.474 108.3,-114.259 120.422,-115.978"/>
<polygon fill="midnightblue" stroke="midnightblue" points="120.066,-119.462 130.458,-117.401 121.048,-112.531 120.066,-119.462"/>
</g>
<!-- Node97 -->
<g id="node5" class="node"><title>Node97</title>
<g id="a_node5"><a xlink:href="group__mcid__functions.xhtml#gad71f8cb0fb812e37b9c99915fe6f1e7e" target="_top" xlink:title="Reset MCI HW interface and disable it. ">
<polygon fill="white" stroke="red" points="145.5,-76.5 145.5,-95.5 210.5,-95.5 210.5,-76.5 145.5,-76.5"/>
<text text-anchor="middle" x="178" y="-83.5" font-family="Helvetica,sans-Serif" font-size="10.00">MCI_Reset</text>
</a>
</g>
</g>
<!-- Node93&#45;&gt;Node97 -->
<g id="edge4" class="edge"><title>Node93&#45;&gt;Node97</title>
<path fill="none" stroke="midnightblue" d="M84.2978,-99.1443C100.447,-96.8546 118.944,-94.2319 135.146,-91.9346"/>
<polygon fill="midnightblue" stroke="midnightblue" points="136.004,-95.348 145.414,-90.4787 135.021,-88.4173 136.004,-95.348"/>
</g>
<!-- Node99 -->
<g id="node6" class="node"><title>Node99</title>
<g id="a_node6"><a xlink:href="group__hsmci__functions.xhtml#gafb6f3467813115f494f67c125f821264" target="_top" xlink:title="Return the response register. ">
<polygon fill="white" stroke="black" points="120,-38.5 120,-57.5 236,-57.5 236,-38.5 120,-38.5"/>
<text text-anchor="middle" x="178" y="-45.5" font-family="Helvetica,sans-Serif" font-size="10.00">HSMCI_GetResponse</text>
</a>
</g>
</g>
<!-- Node93&#45;&gt;Node99 -->
<g id="edge5" class="edge"><title>Node93&#45;&gt;Node99</title>
<path fill="none" stroke="midnightblue" d="M60.7277,-95.3861C76.1325,-87.2427 99.1811,-75.56 120,-67 125.125,-64.8927 130.578,-62.8418 136.002,-60.9146"/>
<polygon fill="midnightblue" stroke="midnightblue" points="137.338,-64.1563 145.655,-57.5938 135.061,-57.537 137.338,-64.1563"/>
</g>
<!-- Node100 -->
<g id="node7" class="node"><title>Node100</title>
<g id="a_node7"><a xlink:href="group__mcid__functions.xhtml#ga22c80115063dbf7641105608fb74b8e4" target="_top" xlink:title="_FinishCmd">
<polygon fill="white" stroke="red" points="142.5,-0.5 142.5,-19.5 213.5,-19.5 213.5,-0.5 142.5,-0.5"/>
<text text-anchor="middle" x="178" y="-7.5" font-family="Helvetica,sans-Serif" font-size="10.00">_FinishCmd</text>
</a>
</g>
</g>
<!-- Node93&#45;&gt;Node100 -->
<g id="edge6" class="edge"><title>Node93&#45;&gt;Node100</title>
<path fill="none" stroke="midnightblue" d="M50.2412,-95.4159C62.7753,-79.454 90.0615,-47.3681 120,-29 124.065,-26.5061 128.496,-24.2969 133.033,-22.3504"/>
<polygon fill="midnightblue" stroke="midnightblue" points="134.35,-25.5936 142.41,-18.7166 131.82,-19.0665 134.35,-25.5936"/>
</g>
</g>
</svg>
