<?xml version="1.0" encoding="UTF-8" standalone="no"?>
<!DOCTYPE svg PUBLIC "-//W3C//DTD SVG 1.1//EN"
 "http://www.w3.org/Graphics/SVG/1.1/DTD/svg11.dtd">
<!-- Generated by graphviz version 2.38.0 (20140413.2041)
 -->
<!-- Title: XDMAC_SetDestinationAddr Pages: 1 -->
<svg width="336pt" height="66pt"
 viewBox="0.00 0.00 336.00 66.00" xmlns="http://www.w3.org/2000/svg" xmlns:xlink="http://www.w3.org/1999/xlink">
<g id="graph0" class="graph" transform="scale(1 1) rotate(0) translate(4 62)">
<title>XDMAC_SetDestinationAddr</title>
<polygon fill="white" stroke="none" points="-4,4 -4,-62 332,-62 332,4 -4,4"/>
<!-- Node810 -->
<g id="node1" class="node"><title>Node810</title>
<polygon fill="#bfbfbf" stroke="black" points="0,-19.5 0,-38.5 151,-38.5 151,-19.5 0,-19.5"/>
<text text-anchor="middle" x="75.5" y="-26.5" font-family="Helvetica,sans-Serif" font-size="10.00">XDMAC_SetDestinationAddr</text>
</g>
<!-- Node811 -->
<g id="node2" class="node"><title>Node811</title>
<g id="a_node2"><a xlink:href="group__dmad__functions.xhtml#ga2a7947467c04eb39abee2471d846ee35" target="_top" xlink:title="Enable clock of the xDMA peripheral, Enable the dma peripheral, configure configuration register for ...">
<polygon fill="white" stroke="red" points="190.5,-38.5 190.5,-57.5 324.5,-57.5 324.5,-38.5 190.5,-38.5"/>
<text text-anchor="middle" x="257.5" y="-45.5" font-family="Helvetica,sans-Serif" font-size="10.00">XDMAD_PrepareChannel</text>
</a>
</g>
</g>
<!-- Node810&#45;&gt;Node811 -->
<g id="edge1" class="edge"><title>Node810&#45;&gt;Node811</title>
<path fill="none" stroke="midnightblue" d="M161.181,-37.9385C170.986,-38.9736 180.877,-40.0175 190.384,-41.021"/>
<polygon fill="midnightblue" stroke="midnightblue" points="161.324,-34.4343 151.012,-36.8652 160.59,-41.3957 161.324,-34.4343"/>
</g>
<!-- Node851 -->
<g id="node3" class="node"><title>Node851</title>
<g id="a_node3"><a xlink:href="group__dmad__functions.xhtml#ga075cce3b88af1fff5064218720811fc0" target="_top" xlink:title="Configure DMA for a single transfer. ">
<polygon fill="white" stroke="red" points="187,-0.5 187,-19.5 328,-19.5 328,-0.5 187,-0.5"/>
<text text-anchor="middle" x="257.5" y="-7.5" font-family="Helvetica,sans-Serif" font-size="10.00">XDMAD_ConfigureTransfer</text>
</a>
</g>
</g>
<!-- Node810&#45;&gt;Node851 -->
<g id="edge2" class="edge"><title>Node810&#45;&gt;Node851</title>
<path fill="none" stroke="midnightblue" d="M161.119,-20.068C169.77,-19.1548 178.489,-18.2345 186.952,-17.3412"/>
<polygon fill="midnightblue" stroke="midnightblue" points="160.59,-16.6043 151.012,-21.1348 161.324,-23.5657 160.59,-16.6043"/>
</g>
</g>
</svg>
