<?xml version="1.0" encoding="UTF-8" standalone="no"?>
<!DOCTYPE svg PUBLIC "-//W3C//DTD SVG 1.1//EN"
 "http://www.w3.org/Graphics/SVG/1.1/DTD/svg11.dtd">
<!-- Generated by graphviz version 2.38.0 (20140413.2041)
 -->
<!-- Title: USBD_HAL_Test Pages: 1 -->
<svg width="354pt" height="85pt"
 viewBox="0.00 0.00 354.00 85.00" xmlns="http://www.w3.org/2000/svg" xmlns:xlink="http://www.w3.org/1999/xlink">
<g id="graph0" class="graph" transform="scale(1 1) rotate(0) translate(4 81)">
<title>USBD_HAL_Test</title>
<polygon fill="white" stroke="none" points="-4,4 -4,-81 350,-81 350,4 -4,4"/>
<!-- Node1711 -->
<g id="node1" class="node"><title>Node1711</title>
<polygon fill="#bfbfbf" stroke="black" points="0,-19.5 0,-38.5 94,-38.5 94,-19.5 0,-19.5"/>
<text text-anchor="middle" x="47" y="-26.5" font-family="Helvetica,sans-Serif" font-size="10.00">USBD_HAL_Test</text>
</g>
<!-- Node1712 -->
<g id="node2" class="node"><title>Node1712</title>
<g id="a_node2"><a xlink:href="group__usbd__interface.xhtml#gaab3264faf4fbfa56f0d6db53f806cbc3" target="_top" xlink:title="Certification test for High Speed device. ">
<polygon fill="white" stroke="red" points="145.5,-57.5 145.5,-76.5 214.5,-76.5 214.5,-57.5 145.5,-57.5"/>
<text text-anchor="middle" x="180" y="-64.5" font-family="Helvetica,sans-Serif" font-size="10.00">USBD_Test</text>
</a>
</g>
</g>
<!-- Node1711&#45;&gt;Node1712 -->
<g id="edge1" class="edge"><title>Node1711&#45;&gt;Node1712</title>
<path fill="none" stroke="midnightblue" d="M90.7148,-41.3906C108.655,-46.5945 129.2,-52.5541 145.954,-57.4141"/>
<polygon fill="midnightblue" stroke="midnightblue" points="91.636,-38.0136 81.0568,-38.589 89.6858,-44.7364 91.636,-38.0136"/>
</g>
<!-- Node1723 -->
<g id="node3" class="node"><title>Node1723</title>
<g id="a_node3"><a xlink:href="group__usbd__hal.xhtml#ga571a674fe9f9a1bba6ad08b3b0b28a80" target="_top" xlink:title="USBD (UDP) interrupt handler Manages device resume, suspend, end of bus reset. ">
<polygon fill="white" stroke="black" points="130,-19.5 130,-38.5 230,-38.5 230,-19.5 130,-19.5"/>
<text text-anchor="middle" x="180" y="-26.5" font-family="Helvetica,sans-Serif" font-size="10.00">USBD_IrqHandler</text>
</a>
</g>
</g>
<!-- Node1711&#45;&gt;Node1723 -->
<g id="edge2" class="edge"><title>Node1711&#45;&gt;Node1723</title>
<path fill="none" stroke="midnightblue" d="M104.331,-29C112.764,-29 121.403,-29 129.676,-29"/>
<polygon fill="midnightblue" stroke="midnightblue" points="104.186,-25.5001 94.1857,-29 104.186,-32.5001 104.186,-25.5001"/>
</g>
<!-- Node1724 -->
<g id="node4" class="node"><title>Node1724</title>
<g id="a_node4"><a xlink:href="hal__udphs_8c.xhtml#gadf1deb2219e27bcf29d2598d4aa04c1d" target="_top" xlink:title="Reads incoming data on an USB endpoint This methods sets the transfer descriptor and activate the end...">
<polygon fill="white" stroke="black" points="266,-0.5 266,-19.5 346,-19.5 346,-0.5 266,-0.5"/>
<text text-anchor="middle" x="306" y="-7.5" font-family="Helvetica,sans-Serif" font-size="10.00">UDPHS_Read</text>
</a>
</g>
</g>
<!-- Node1711&#45;&gt;Node1724 -->
<g id="edge4" class="edge"><title>Node1711&#45;&gt;Node1724</title>
<path fill="none" stroke="midnightblue" d="M90.9269,-17.1165C103.425,-14.1855 117.169,-11.4671 130,-10 176.485,-4.68491 230.372,-5.76454 265.932,-7.46865"/>
<polygon fill="midnightblue" stroke="midnightblue" points="90.0943,-13.7169 81.2123,-19.4929 91.7576,-20.5165 90.0943,-13.7169"/>
</g>
<!-- Node1723&#45;&gt;Node1724 -->
<g id="edge3" class="edge"><title>Node1723&#45;&gt;Node1724</title>
<path fill="none" stroke="midnightblue" d="M239.894,-19.976C248.715,-18.6243 257.621,-17.2598 265.893,-15.9922"/>
<polygon fill="midnightblue" stroke="midnightblue" points="239.363,-16.5164 230.008,-21.4907 240.423,-23.4357 239.363,-16.5164"/>
</g>
</g>
</svg>
