<?xml version="1.0" encoding="UTF-8" standalone="no"?>
<!DOCTYPE svg PUBLIC "-//W3C//DTD SVG 1.1//EN"
 "http://www.w3.org/Graphics/SVG/1.1/DTD/svg11.dtd">
<!-- Generated by graphviz version 2.38.0 (20140413.2041)
 -->
<!-- Title: MSDDriver_Initialize Pages: 1 -->
<svg width="277pt" height="142pt"
 viewBox="0.00 0.00 277.00 142.00" xmlns="http://www.w3.org/2000/svg" xmlns:xlink="http://www.w3.org/1999/xlink">
<g id="graph0" class="graph" transform="scale(1 1) rotate(0) translate(4 138)">
<title>MSDDriver_Initialize</title>
<polygon fill="white" stroke="none" points="-4,4 -4,-138 273,-138 273,4 -4,4"/>
<!-- Node277 -->
<g id="node1" class="node"><title>Node277</title>
<polygon fill="#bfbfbf" stroke="black" points="0,-57.5 0,-76.5 111,-76.5 111,-57.5 0,-57.5"/>
<text text-anchor="middle" x="55.5" y="-64.5" font-family="Helvetica,sans-Serif" font-size="10.00">MSDDriver_Initialize</text>
</g>
<!-- Node278 -->
<g id="node2" class="node"><title>Node278</title>
<g id="a_node2"><a xlink:href="group__usbd__interface.xhtml#ga01ba3ff549b968edc152cdb23c2027d1" target="_top" xlink:title="Return USBDDriver instance pointer for global usage. ">
<polygon fill="white" stroke="black" points="160,-114.5 160,-133.5 256,-133.5 256,-114.5 160,-114.5"/>
<text text-anchor="middle" x="208" y="-121.5" font-family="Helvetica,sans-Serif" font-size="10.00">USBD_GetDriver</text>
</a>
</g>
</g>
<!-- Node277&#45;&gt;Node278 -->
<g id="edge1" class="edge"><title>Node277&#45;&gt;Node278</title>
<path fill="none" stroke="midnightblue" d="M77.8583,-76.6157C96.0603,-84.6535 123.007,-96.1847 147,-105 152.923,-107.176 159.227,-109.337 165.439,-111.38"/>
<polygon fill="midnightblue" stroke="midnightblue" points="164.465,-114.743 175.056,-114.476 166.61,-108.08 164.465,-114.743"/>
</g>
<!-- Node279 -->
<g id="node3" class="node"><title>Node279</title>
<g id="a_node3"><a xlink:href="group__usbd__interface.xhtml#ga11868145aba27b8ca63ab6395439cb0d" target="_top" xlink:title="Initializes a USBDDriver instance with a list of descriptors. ">
<polygon fill="white" stroke="black" points="149.5,-76.5 149.5,-95.5 266.5,-95.5 266.5,-76.5 149.5,-76.5"/>
<text text-anchor="middle" x="208" y="-83.5" font-family="Helvetica,sans-Serif" font-size="10.00">USBDDriver_Initialize</text>
</a>
</g>
</g>
<!-- Node277&#45;&gt;Node279 -->
<g id="edge2" class="edge"><title>Node277&#45;&gt;Node279</title>
<path fill="none" stroke="midnightblue" d="M111.26,-73.9132C120.394,-75.0664 129.965,-76.2747 139.375,-77.4627"/>
<polygon fill="midnightblue" stroke="midnightblue" points="139.135,-80.9601 149.495,-78.7403 140.012,-74.0152 139.135,-80.9601"/>
</g>
<!-- Node280 -->
<g id="node4" class="node"><title>Node280</title>
<g id="a_node4"><a xlink:href="group__usbd__msd.xhtml#ga462b4263f13e5235a2bedceeaece01cb" target="_top" xlink:title="Initializes the MSD driver and the associated USB driver. ">
<polygon fill="white" stroke="red" points="147,-38.5 147,-57.5 269,-57.5 269,-38.5 147,-38.5"/>
<text text-anchor="middle" x="208" y="-45.5" font-family="Helvetica,sans-Serif" font-size="10.00">MSDFunction_Initialize</text>
</a>
</g>
</g>
<!-- Node277&#45;&gt;Node280 -->
<g id="edge3" class="edge"><title>Node277&#45;&gt;Node280</title>
<path fill="none" stroke="midnightblue" d="M111.26,-60.0868C119.596,-59.0344 128.296,-57.9361 136.905,-56.8492"/>
<polygon fill="midnightblue" stroke="midnightblue" points="137.459,-60.3071 146.942,-55.582 136.583,-53.3622 137.459,-60.3071"/>
</g>
<!-- Node282 -->
<g id="node5" class="node"><title>Node282</title>
<g id="a_node5"><a xlink:href="group__usbd__interface.xhtml#ga1fd3982402055e37aa879c199e0b7fee" target="_top" xlink:title="Initializes the USB driver. ">
<polygon fill="white" stroke="red" points="175.5,-0.5 175.5,-19.5 240.5,-19.5 240.5,-0.5 175.5,-0.5"/>
<text text-anchor="middle" x="208" y="-7.5" font-family="Helvetica,sans-Serif" font-size="10.00">USBD_Init</text>
</a>
</g>
</g>
<!-- Node277&#45;&gt;Node282 -->
<g id="edge4" class="edge"><title>Node277&#45;&gt;Node282</title>
<path fill="none" stroke="midnightblue" d="M77.8583,-57.3843C96.0603,-49.3465 123.007,-37.8153 147,-29 152.99,-26.7991 159.37,-24.6135 165.65,-22.5507"/>
<polygon fill="midnightblue" stroke="midnightblue" points="166.918,-25.8195 175.367,-19.4258 164.775,-19.1557 166.918,-25.8195"/>
</g>
</g>
</svg>
