<?xml version="1.0" encoding="UTF-8" standalone="no"?>
<!DOCTYPE svg PUBLIC "-//W3C//DTD SVG 1.1//EN"
 "http://www.w3.org/Graphics/SVG/1.1/DTD/svg11.dtd">
<!-- Generated by graphviz version 2.38.0 (20140413.2041)
 -->
<!-- Title: uhi_cdc_install Pages: 1 -->
<svg width="271pt" height="66pt"
 viewBox="0.00 0.00 271.00 66.00" xmlns="http://www.w3.org/2000/svg" xmlns:xlink="http://www.w3.org/1999/xlink">
<g id="graph0" class="graph" transform="scale(1 1) rotate(0) translate(4 62)">
<title>uhi_cdc_install</title>
<polygon fill="white" stroke="none" points="-4,4 -4,-62 267,-62 267,4 -4,4"/>
<!-- Node31 -->
<g id="node1" class="node"><title>Node31</title>
<polygon fill="#bfbfbf" stroke="black" points="0,-19.5 0,-38.5 86,-38.5 86,-19.5 0,-19.5"/>
<text text-anchor="middle" x="43" y="-26.5" font-family="Helvetica,sans-Serif" font-size="10.00">uhi_cdc_install</text>
</g>
<!-- Node32 -->
<g id="node2" class="node"><title>Node32</title>
<g id="a_node2"><a xlink:href="group__uhd__group.xhtml#ga8da03709234cba062389fcaee2c62f8b" target="_top" xlink:title="Configures and enables an endpoint. ">
<polygon fill="white" stroke="red" points="122,-38.5 122,-57.5 263,-57.5 263,-38.5 122,-38.5"/>
<text text-anchor="middle" x="192.5" y="-45.5" font-family="Helvetica,sans-Serif" font-size="10.00">USBH_HAL_ConfigurePipe</text>
</a>
</g>
</g>
<!-- Node31&#45;&gt;Node32 -->
<g id="edge1" class="edge"><title>Node31&#45;&gt;Node32</title>
<path fill="none" stroke="midnightblue" d="M86.2676,-34.4446C94.3701,-35.4884 103.097,-36.6125 111.936,-37.751"/>
<polygon fill="midnightblue" stroke="midnightblue" points="111.57,-41.2327 121.935,-39.0391 112.464,-34.2901 111.57,-41.2327"/>
</g>
<!-- Node44 -->
<g id="node3" class="node"><title>Node44</title>
<g id="a_node3"><a xlink:href="group__uhi__cdc__group__internal.xhtml#gadeffe5996485350c426dbc0ec01f1128" target="_top" xlink:title="Free all CDC device structures. ">
<polygon fill="white" stroke="black" points="136,-0.5 136,-19.5 249,-19.5 249,-0.5 136,-0.5"/>
<text text-anchor="middle" x="192.5" y="-7.5" font-family="Helvetica,sans-Serif" font-size="10.00">uhi_cdc_free_device</text>
</a>
</g>
</g>
<!-- Node31&#45;&gt;Node44 -->
<g id="edge2" class="edge"><title>Node31&#45;&gt;Node44</title>
<path fill="none" stroke="midnightblue" d="M86.2676,-23.5554C98.5461,-21.9737 112.258,-20.2075 125.621,-18.4861"/>
<polygon fill="midnightblue" stroke="midnightblue" points="126.271,-21.9313 135.742,-17.1823 125.377,-14.9887 126.271,-21.9313"/>
</g>
</g>
</svg>
