<?xml version="1.0" encoding="UTF-8" standalone="no"?>
<!DOCTYPE svg PUBLIC "-//W3C//DTD SVG 1.1//EN"
 "http://www.w3.org/Graphics/SVG/1.1/DTD/svg11.dtd">
<!-- Generated by graphviz version 2.38.0 (20140413.2041)
 -->
<!-- Title: USBD_RequestHandler Pages: 1 -->
<svg width="307pt" height="66pt"
 viewBox="0.00 0.00 307.00 66.00" xmlns="http://www.w3.org/2000/svg" xmlns:xlink="http://www.w3.org/1999/xlink">
<g id="graph0" class="graph" transform="scale(1 1) rotate(0) translate(4 62)">
<title>USBD_RequestHandler</title>
<polygon fill="white" stroke="none" points="-4,4 -4,-62 303,-62 303,4 -4,4"/>
<!-- Node830 -->
<g id="node1" class="node"><title>Node830</title>
<polygon fill="#bfbfbf" stroke="black" points="0,-19.5 0,-38.5 126,-38.5 126,-19.5 0,-19.5"/>
<text text-anchor="middle" x="63" y="-26.5" font-family="Helvetica,sans-Serif" font-size="10.00">USBD_RequestHandler</text>
</g>
<!-- Node831 -->
<g id="node2" class="node"><title>Node831</title>
<g id="a_node2"><a xlink:href="group__usbd__hal.xhtml#ga4daf62d090af26b8e55aaf9549926622" target="_top" xlink:title="Endpoint interrupt handler. ">
<polygon fill="white" stroke="red" points="162,-38.5 162,-57.5 299,-57.5 299,-38.5 162,-38.5"/>
<text text-anchor="middle" x="230.5" y="-45.5" font-family="Helvetica,sans-Serif" font-size="10.00">UDPHS_EndpointHandler</text>
</a>
</g>
</g>
<!-- Node830&#45;&gt;Node831 -->
<g id="edge1" class="edge"><title>Node830&#45;&gt;Node831</title>
<path fill="none" stroke="midnightblue" d="M136.042,-37.2706C144.593,-38.2523 153.299,-39.2518 161.787,-40.2263"/>
<polygon fill="midnightblue" stroke="midnightblue" points="136.431,-33.7924 126.097,-36.129 135.632,-40.7467 136.431,-33.7924"/>
</g>
<!-- Node833 -->
<g id="node3" class="node"><title>Node833</title>
<g id="a_node3"><a xlink:href="group__usbd__hal.xhtml#gafa6295dfe0e4e2eaaec7818940d64b18" target="_top" xlink:title="Endpoint interrupt handler. ">
<polygon fill="white" stroke="red" points="169.5,-0.5 169.5,-19.5 291.5,-19.5 291.5,-0.5 169.5,-0.5"/>
<text text-anchor="middle" x="230.5" y="-7.5" font-family="Helvetica,sans-Serif" font-size="10.00">UDP_EndpointHandler</text>
</a>
</g>
</g>
<!-- Node830&#45;&gt;Node833 -->
<g id="edge2" class="edge"><title>Node830&#45;&gt;Node833</title>
<path fill="none" stroke="midnightblue" d="M136.147,-20.7173C147.194,-19.4491 158.497,-18.1514 169.251,-16.9168"/>
<polygon fill="midnightblue" stroke="midnightblue" points="135.632,-17.2533 126.097,-21.871 136.431,-24.2076 135.632,-17.2533"/>
</g>
</g>
</svg>
