<?xml version="1.0" encoding="UTF-8" standalone="no"?>
<!DOCTYPE svg PUBLIC "-//W3C//DTD SVG 1.1//EN"
 "http://www.w3.org/Graphics/SVG/1.1/DTD/svg11.dtd">
<!-- Generated by graphviz version 2.38.0 (20140413.2041)
 -->
<!-- Title: udd_ctrl_setup_received Pages: 1 -->
<svg width="571pt" height="278pt"
 viewBox="0.00 0.00 571.00 277.75" xmlns="http://www.w3.org/2000/svg" xmlns:xlink="http://www.w3.org/1999/xlink">
<g id="graph0" class="graph" transform="scale(1 1) rotate(0) translate(4 273.752)">
<title>udd_ctrl_setup_received</title>
<polygon fill="white" stroke="none" points="-4,4 -4,-273.752 567,-273.752 567,4 -4,4"/>
<!-- Node249 -->
<g id="node1" class="node"><title>Node249</title>
<polygon fill="#bfbfbf" stroke="black" points="0,-114.5 0,-133.5 133,-133.5 133,-114.5 0,-114.5"/>
<text text-anchor="middle" x="66.5" y="-121.5" font-family="Helvetica,sans-Serif" font-size="10.00">udd_ctrl_setup_received</text>
</g>
<!-- Node250 -->
<g id="node2" class="node"><title>Node250</title>
<g id="a_node2"><a xlink:href="group__udd__udphs__group.xhtml#ga173a32ad9cb33b2851ff381da157328e" target="_top" xlink:title="Call callback associated to setup request. ">
<polygon fill="white" stroke="black" points="312,-228.5 312,-247.5 436,-247.5 436,-228.5 312,-228.5"/>
<text text-anchor="middle" x="374" y="-235.5" font-family="Helvetica,sans-Serif" font-size="10.00">udd_ctrl_endofrequest</text>
</a>
</g>
</g>
<!-- Node249&#45;&gt;Node250 -->
<g id="edge1" class="edge"><title>Node249&#45;&gt;Node250</title>
<path fill="none" stroke="midnightblue" d="M82.0677,-133.662C101.291,-146.059 136.503,-167.563 169,-181 217.504,-201.056 275.336,-216.466 317.017,-226.177"/>
<polygon fill="midnightblue" stroke="midnightblue" points="316.454,-229.639 326.984,-228.462 318.019,-222.816 316.454,-229.639"/>
</g>
<!-- Node251 -->
<g id="node3" class="node"><title>Node251</title>
<g id="a_node3"><a xlink:href="group__udd__udphs__group.xhtml#gab1a4a5ecb3cd996de2d94d5e78d9ea9e" target="_top" xlink:title="Reset control endpoint management. ">
<polygon fill="white" stroke="black" points="337,-114.5 337,-133.5 411,-133.5 411,-114.5 337,-114.5"/>
<text text-anchor="middle" x="374" y="-121.5" font-family="Helvetica,sans-Serif" font-size="10.00">udd_ctrl_init</text>
</a>
</g>
</g>
<!-- Node249&#45;&gt;Node251 -->
<g id="edge2" class="edge"><title>Node249&#45;&gt;Node251</title>
<path fill="none" stroke="midnightblue" d="M133.037,-124C191.266,-124 274.922,-124 326.516,-124"/>
<polygon fill="midnightblue" stroke="midnightblue" points="326.705,-127.5 336.705,-124 326.705,-120.5 326.705,-127.5"/>
</g>
<!-- Node252 -->
<g id="node4" class="node"><title>Node252</title>
<g id="a_node4"><a xlink:href="group__interrupt__group.xhtml#ga9931bf539005d3f12b461928823a0ae2" target="_top" xlink:title="cpu_irq_save">
<polygon fill="white" stroke="black" points="478,-152.5 478,-171.5 557,-171.5 557,-152.5 478,-152.5"/>
<text text-anchor="middle" x="517.5" y="-159.5" font-family="Helvetica,sans-Serif" font-size="10.00">cpu_irq_save</text>
</a>
</g>
</g>
<!-- Node249&#45;&gt;Node252 -->
<g id="edge14" class="edge"><title>Node249&#45;&gt;Node252</title>
<path fill="none" stroke="midnightblue" d="M76.0301,-133.654C92.3614,-151.578 129.91,-190.157 169,-212 227.163,-244.502 246.144,-246.883 312,-257 366.472,-265.368 385.996,-280.17 436,-257 469.831,-241.324 494.616,-203.648 507.188,-180.733"/>
<polygon fill="midnightblue" stroke="midnightblue" points="510.408,-182.129 511.957,-171.648 504.21,-178.876 510.408,-182.129"/>
</g>
<!-- Node253 -->
<g id="node5" class="node"><title>Node253</title>
<g id="a_node5"><a xlink:href="group__interrupt__group.xhtml#gae4d6d11a5211f6bd00353f280aa78f6f" target="_top" xlink:title="cpu_irq_restore">
<polygon fill="white" stroke="red" points="472,-95.5 472,-114.5 563,-114.5 563,-95.5 472,-95.5"/>
<text text-anchor="middle" x="517.5" y="-102.5" font-family="Helvetica,sans-Serif" font-size="10.00">cpu_irq_restore</text>
</a>
</g>
</g>
<!-- Node249&#45;&gt;Node253 -->
<g id="edge15" class="edge"><title>Node249&#45;&gt;Node253</title>
<path fill="none" stroke="midnightblue" d="M90.5556,-114.492C148.876,-91.7223 306.82,-38.0423 436,-67 456.106,-71.5071 477.105,-81.6269 492.612,-90.2904"/>
<polygon fill="midnightblue" stroke="midnightblue" points="491.093,-93.4549 501.501,-95.4334 494.598,-87.3959 491.093,-93.4549"/>
</g>
<!-- Node255 -->
<g id="node6" class="node"><title>Node255</title>
<g id="a_node6"><a xlink:href="group__udd__udphs__group.xhtml#gabf919b71cee71a11e1ea4e64fb9891d1" target="_top" xlink:title="Managed stall event of IN/OUT packet on control endpoint. ">
<polygon fill="white" stroke="black" points="169,-0.5 169,-19.5 276,-19.5 276,-0.5 169,-0.5"/>
<text text-anchor="middle" x="222.5" y="-7.5" font-family="Helvetica,sans-Serif" font-size="10.00">udd_ctrl_stall_data</text>
</a>
</g>
</g>
<!-- Node249&#45;&gt;Node255 -->
<g id="edge5" class="edge"><title>Node249&#45;&gt;Node255</title>
<path fill="none" stroke="midnightblue" d="M76.5168,-114.287C93.356,-96.5619 131.302,-58.5423 169,-34 174.756,-30.2528 181.192,-26.792 187.532,-23.7327"/>
<polygon fill="midnightblue" stroke="midnightblue" points="189.028,-26.8974 196.662,-19.5512 186.113,-20.5332 189.028,-26.8974"/>
</g>
<!-- Node256 -->
<g id="node7" class="node"><title>Node256</title>
<g id="a_node7"><a xlink:href="group__udd__udphs__group.xhtml#ga181ffd0cddf5130f55df6df8ca3f916c" target="_top" xlink:title="Managed reception of IN packet on control endpoint. ">
<polygon fill="white" stroke="red" points="175,-152.5 175,-171.5 270,-171.5 270,-152.5 175,-152.5"/>
<text text-anchor="middle" x="222.5" y="-159.5" font-family="Helvetica,sans-Serif" font-size="10.00">udd_ctrl_in_sent</text>
</a>
</g>
</g>
<!-- Node249&#45;&gt;Node256 -->
<g id="edge6" class="edge"><title>Node249&#45;&gt;Node256</title>
<path fill="none" stroke="midnightblue" d="M106.361,-133.589C126.591,-138.581 151.521,-144.732 173.004,-150.033"/>
<polygon fill="midnightblue" stroke="midnightblue" points="172.371,-153.482 182.919,-152.48 174.048,-146.686 172.371,-153.482"/>
</g>
<!-- Node258 -->
<g id="node8" class="node"><title>Node258</title>
<g id="a_node8"><a xlink:href="group__udd__udphs__group.xhtml#gab6a8abd5db8a94d6becc73b2b70dc748" target="_top" xlink:title="Send a ZLP IN on control endpoint. ">
<polygon fill="white" stroke="black" points="316,-76.5 316,-95.5 432,-95.5 432,-76.5 316,-76.5"/>
<text text-anchor="middle" x="374" y="-83.5" font-family="Helvetica,sans-Serif" font-size="10.00">udd_ctrl_send_zlp_in</text>
</a>
</g>
</g>
<!-- Node249&#45;&gt;Node258 -->
<g id="edge11" class="edge"><title>Node249&#45;&gt;Node258</title>
<path fill="none" stroke="midnightblue" d="M133.037,-115.848C183.991,-109.51 254.415,-100.75 305.789,-94.3601"/>
<polygon fill="midnightblue" stroke="midnightblue" points="306.307,-97.8228 315.798,-93.1151 305.443,-90.8763 306.307,-97.8228"/>
</g>
<!-- Node251&#45;&gt;Node252 -->
<g id="edge3" class="edge"><title>Node251&#45;&gt;Node252</title>
<path fill="none" stroke="midnightblue" d="M410.706,-133.589C428.973,-138.494 451.408,-144.52 470.911,-149.757"/>
<polygon fill="midnightblue" stroke="midnightblue" points="470.239,-153.201 480.805,-152.414 472.055,-146.44 470.239,-153.201"/>
</g>
<!-- Node251&#45;&gt;Node253 -->
<g id="edge4" class="edge"><title>Node251&#45;&gt;Node253</title>
<path fill="none" stroke="midnightblue" d="M411.073,-119.156C426.397,-117.099 444.605,-114.654 461.541,-112.38"/>
<polygon fill="midnightblue" stroke="midnightblue" points="462.44,-115.79 471.885,-110.991 461.508,-108.853 462.44,-115.79"/>
</g>
<!-- Node256&#45;&gt;Node250 -->
<g id="edge9" class="edge"><title>Node256&#45;&gt;Node250</title>
<path fill="none" stroke="midnightblue" d="M238.141,-171.564C255.38,-182.596 285.082,-200.896 312,-214 319.869,-217.831 328.516,-221.526 336.762,-224.821"/>
<polygon fill="midnightblue" stroke="midnightblue" points="335.6,-228.125 346.188,-228.49 338.139,-221.601 335.6,-228.125"/>
</g>
<!-- Node256&#45;&gt;Node251 -->
<g id="edge10" class="edge"><title>Node256&#45;&gt;Node251</title>
<path fill="none" stroke="midnightblue" d="M261.225,-152.411C281.238,-147.324 305.987,-141.033 327.106,-135.665"/>
<polygon fill="midnightblue" stroke="midnightblue" points="328.004,-139.048 336.834,-133.193 326.28,-132.264 328.004,-139.048"/>
</g>
<!-- Node256&#45;&gt;Node252 -->
<g id="edge7" class="edge"><title>Node256&#45;&gt;Node252</title>
<path fill="none" stroke="midnightblue" d="M270.185,-170.788C283.631,-172.938 298.353,-174.927 312,-176 366.942,-180.319 381.093,-180.739 436,-176 446.282,-175.113 457.221,-173.599 467.613,-171.887"/>
<polygon fill="midnightblue" stroke="midnightblue" points="468.524,-175.281 477.779,-170.124 467.328,-168.384 468.524,-175.281"/>
</g>
<!-- Node256&#45;&gt;Node253 -->
<g id="edge8" class="edge"><title>Node256&#45;&gt;Node253</title>
<path fill="none" stroke="midnightblue" d="M270.337,-162.492C313.953,-161.859 380.416,-158.091 436,-143 455.515,-137.702 476.11,-127.893 491.584,-119.568"/>
<polygon fill="midnightblue" stroke="midnightblue" points="493.449,-122.536 500.501,-114.63 490.058,-116.412 493.449,-122.536"/>
</g>
<!-- Node258&#45;&gt;Node252 -->
<g id="edge12" class="edge"><title>Node258&#45;&gt;Node252</title>
<path fill="none" stroke="midnightblue" d="M412.176,-95.5353C420.218,-98.1569 428.542,-101.314 436,-105 458.668,-116.204 481.967,-133.446 497.629,-146.033"/>
<polygon fill="midnightblue" stroke="midnightblue" points="495.539,-148.846 505.491,-152.48 499.977,-143.433 495.539,-148.846"/>
</g>
<!-- Node258&#45;&gt;Node253 -->
<g id="edge13" class="edge"><title>Node258&#45;&gt;Node253</title>
<path fill="none" stroke="midnightblue" d="M432.146,-93.6733C441.937,-94.988 452.09,-96.3513 461.815,-97.6571"/>
<polygon fill="midnightblue" stroke="midnightblue" points="461.385,-101.131 471.762,-98.9928 462.317,-94.193 461.385,-101.131"/>
</g>
</g>
</svg>
