<?xml version="1.0" encoding="UTF-8" standalone="no"?>
<!DOCTYPE svg PUBLIC "-//W3C//DTD SVG 1.1//EN"
 "http://www.w3.org/Graphics/SVG/1.1/DTD/svg11.dtd">
<!-- Generated by graphviz version 2.38.0 (20140413.2041)
 -->
<!-- Title: HIDDFunction_SetIdle Pages: 1 -->
<svg width="299pt" height="104pt"
 viewBox="0.00 0.00 299.00 104.00" xmlns="http://www.w3.org/2000/svg" xmlns:xlink="http://www.w3.org/1999/xlink">
<g id="graph0" class="graph" transform="scale(1 1) rotate(0) translate(4 100)">
<title>HIDDFunction_SetIdle</title>
<polygon fill="white" stroke="none" points="-4,4 -4,-100 295,-100 295,4 -4,4"/>
<!-- Node334 -->
<g id="node1" class="node"><title>Node334</title>
<polygon fill="#bfbfbf" stroke="black" points="0,-38.5 0,-57.5 119,-57.5 119,-38.5 0,-38.5"/>
<text text-anchor="middle" x="59.5" y="-45.5" font-family="Helvetica,sans-Serif" font-size="10.00">HIDDFunction_SetIdle</text>
</g>
<!-- Node335 -->
<g id="node2" class="node"><title>Node335</title>
<g id="a_node2"><a xlink:href="group__usbd__hid.xhtml#ga7d389e7ee9a599c1eabe2714b683b4ff" target="_top" xlink:title="Return expected report header pointer. ">
<polygon fill="white" stroke="black" points="155,-76.5 155,-95.5 291,-95.5 291,-76.5 155,-76.5"/>
<text text-anchor="middle" x="223" y="-83.5" font-family="Helvetica,sans-Serif" font-size="10.00">HIDDFunction_FindReport</text>
</a>
</g>
</g>
<!-- Node334&#45;&gt;Node335 -->
<g id="edge1" class="edge"><title>Node334&#45;&gt;Node335</title>
<path fill="none" stroke="midnightblue" d="M101.253,-57.589C122.661,-62.6261 149.086,-68.8438 171.753,-74.1771"/>
<polygon fill="midnightblue" stroke="midnightblue" points="171.004,-77.5964 181.54,-76.4799 172.607,-70.7825 171.004,-77.5964"/>
</g>
<!-- Node336 -->
<g id="node3" class="node"><title>Node336</title>
<g id="a_node3"><a xlink:href="group__usbd__interface.xhtml#gad846cf5a2a002f83abe01d17d233f644" target="_top" xlink:title="Causes the given endpoint to acknowledge the next packet it receives with a STALL handshake...">
<polygon fill="white" stroke="red" points="187.5,-38.5 187.5,-57.5 258.5,-57.5 258.5,-38.5 187.5,-38.5"/>
<text text-anchor="middle" x="223" y="-45.5" font-family="Helvetica,sans-Serif" font-size="10.00">USBD_Stall</text>
</a>
</g>
</g>
<!-- Node334&#45;&gt;Node336 -->
<g id="edge2" class="edge"><title>Node334&#45;&gt;Node336</title>
<path fill="none" stroke="midnightblue" d="M119.262,-48C138.412,-48 159.347,-48 177.294,-48"/>
<polygon fill="midnightblue" stroke="midnightblue" points="177.48,-51.5001 187.48,-48 177.48,-44.5001 177.48,-51.5001"/>
</g>
<!-- Node339 -->
<g id="node4" class="node"><title>Node339</title>
<g id="a_node4"><a xlink:href="group__usbd__interface.xhtml#gafc4728f4af70056b3a271f333b759592" target="_top" xlink:title="Sends data through a USB endpoint. ">
<polygon fill="white" stroke="red" points="186,-0.5 186,-19.5 260,-19.5 260,-0.5 186,-0.5"/>
<text text-anchor="middle" x="223" y="-7.5" font-family="Helvetica,sans-Serif" font-size="10.00">USBD_Write</text>
</a>
</g>
</g>
<!-- Node334&#45;&gt;Node339 -->
<g id="edge3" class="edge"><title>Node334&#45;&gt;Node339</title>
<path fill="none" stroke="midnightblue" d="M101.253,-38.411C124.065,-33.0435 152.574,-26.3354 176.162,-20.7854"/>
<polygon fill="midnightblue" stroke="midnightblue" points="177.006,-24.1825 185.938,-18.4851 175.403,-17.3686 177.006,-24.1825"/>
</g>
</g>
</svg>
