<?xml version="1.0" encoding="UTF-8" standalone="no"?>
<!DOCTYPE svg PUBLIC "-//W3C//DTD SVG 1.1//EN"
 "http://www.w3.org/Graphics/SVG/1.1/DTD/svg11.dtd">
<!-- Generated by graphviz version 2.38.0 (20140413.2041)
 -->
<!-- Title: USBH_HAL_InZLP Pages: 1 -->
<svg width="314pt" height="142pt"
 viewBox="0.00 0.00 314.00 142.00" xmlns="http://www.w3.org/2000/svg" xmlns:xlink="http://www.w3.org/1999/xlink">
<g id="graph0" class="graph" transform="scale(1 1) rotate(0) translate(4 138)">
<title>USBH_HAL_InZLP</title>
<polygon fill="white" stroke="none" points="-4,4 -4,-138 310,-138 310,4 -4,4"/>
<!-- Node469 -->
<g id="node1" class="node"><title>Node469</title>
<polygon fill="#bfbfbf" stroke="black" points="0,-57.5 0,-76.5 102,-76.5 102,-57.5 0,-57.5"/>
<text text-anchor="middle" x="51" y="-64.5" font-family="Helvetica,sans-Serif" font-size="10.00">USBH_HAL_InZLP</text>
</g>
<!-- Node470 -->
<g id="node2" class="node"><title>Node470</title>
<g id="a_node2"><a xlink:href="usbhs_8h.xhtml#a48f3b4774877abb73ad633b904e4caee" target="_top" xlink:title="Gets USB host interrupt status. ">
<polygon fill="white" stroke="black" points="160.5,-114.5 160.5,-133.5 283.5,-133.5 283.5,-114.5 160.5,-114.5"/>
<text text-anchor="middle" x="222" y="-121.5" font-family="Helvetica,sans-Serif" font-size="10.00">USBHS_HostSetToken</text>
</a>
</g>
</g>
<!-- Node469&#45;&gt;Node470 -->
<g id="edge1" class="edge"><title>Node469&#45;&gt;Node470</title>
<path fill="none" stroke="midnightblue" d="M70.7165,-76.5183C87.8674,-84.9369 114.143,-97.0794 138,-105 145.78,-107.583 154.084,-109.938 162.319,-112.044"/>
<polygon fill="midnightblue" stroke="midnightblue" points="161.746,-115.507 172.292,-114.486 163.412,-108.708 161.746,-115.507"/>
</g>
<!-- Node471 -->
<g id="node3" class="node"><title>Node471</title>
<g id="a_node3"><a xlink:href="usbhs_8h.xhtml#a97e601451758556ee0591fae627974d8" target="_top" xlink:title="Gets USB host interrupt status. ">
<polygon fill="white" stroke="black" points="147,-76.5 147,-95.5 297,-95.5 297,-76.5 147,-76.5"/>
<text text-anchor="middle" x="222" y="-83.5" font-family="Helvetica,sans-Serif" font-size="10.00">USBHS_HostAckPipeIntType</text>
</a>
</g>
</g>
<!-- Node469&#45;&gt;Node471 -->
<g id="edge2" class="edge"><title>Node469&#45;&gt;Node471</title>
<path fill="none" stroke="midnightblue" d="M102.248,-72.6492C113.194,-73.8798 125.063,-75.2142 136.921,-76.5473"/>
<polygon fill="midnightblue" stroke="midnightblue" points="136.53,-80.0254 146.859,-77.6646 137.312,-73.0692 136.53,-80.0254"/>
</g>
<!-- Node472 -->
<g id="node4" class="node"><title>Node472</title>
<g id="a_node4"><a xlink:href="usbhs_8h.xhtml#acd60bcdb7e5420ac4cfb8b457838f9ba" target="_top" xlink:title="Gets USB host interrupt status. ">
<polygon fill="white" stroke="black" points="139.5,-38.5 139.5,-57.5 304.5,-57.5 304.5,-38.5 139.5,-38.5"/>
<text text-anchor="middle" x="222" y="-45.5" font-family="Helvetica,sans-Serif" font-size="10.00">USBHS_HostEnablePipeIntType</text>
</a>
</g>
</g>
<!-- Node469&#45;&gt;Node472 -->
<g id="edge3" class="edge"><title>Node469&#45;&gt;Node472</title>
<path fill="none" stroke="midnightblue" d="M102.248,-61.3508C110.822,-60.3868 119.963,-59.3592 129.221,-58.3183"/>
<polygon fill="midnightblue" stroke="midnightblue" points="129.746,-61.7815 139.292,-57.1861 128.964,-54.8253 129.746,-61.7815"/>
</g>
<!-- Node473 -->
<g id="node5" class="node"><title>Node473</title>
<g id="a_node5"><a xlink:href="usbhs_8h.xhtml#a32c56acaace52b440a308d9bce8cafff" target="_top" xlink:title="Gets USB host interrupt status. ">
<polygon fill="white" stroke="black" points="138,-0.5 138,-19.5 306,-19.5 306,-0.5 138,-0.5"/>
<text text-anchor="middle" x="222" y="-7.5" font-family="Helvetica,sans-Serif" font-size="10.00">USBHS_HostDisablePipeIntType</text>
</a>
</g>
</g>
<!-- Node469&#45;&gt;Node473 -->
<g id="edge4" class="edge"><title>Node469&#45;&gt;Node473</title>
<path fill="none" stroke="midnightblue" d="M70.7165,-57.4817C87.8674,-49.0631 114.143,-36.9206 138,-29 145.78,-26.4171 154.084,-24.0617 162.319,-21.9564"/>
<polygon fill="midnightblue" stroke="midnightblue" points="163.412,-25.2924 172.292,-19.5139 161.746,-18.4934 163.412,-25.2924"/>
</g>
</g>
</svg>
