<?xml version="1.0" encoding="UTF-8" standalone="no"?>
<!DOCTYPE svg PUBLIC "-//W3C//DTD SVG 1.1//EN"
 "http://www.w3.org/Graphics/SVG/1.1/DTD/svg11.dtd">
<!-- Generated by graphviz version 2.38.0 (20140413.2041)
 -->
<!-- Title: XDMAD_AllocateChannel Pages: 1 -->
<svg width="337pt" height="522pt"
 viewBox="0.00 0.00 337.00 522.00" xmlns="http://www.w3.org/2000/svg" xmlns:xlink="http://www.w3.org/1999/xlink">
<g id="graph0" class="graph" transform="scale(1 1) rotate(0) translate(4 518)">
<title>XDMAD_AllocateChannel</title>
<polygon fill="white" stroke="none" points="-4,4 -4,-518 333,-518 333,4 -4,4"/>
<!-- Node5 -->
<g id="node1" class="node"><title>Node5</title>
<polygon fill="#bfbfbf" stroke="black" points="0,-247.5 0,-266.5 135,-266.5 135,-247.5 0,-247.5"/>
<text text-anchor="middle" x="67.5" y="-254.5" font-family="Helvetica,sans-Serif" font-size="10.00">XDMAD_AllocateChannel</text>
</g>
<!-- Node6 -->
<g id="node2" class="node"><title>Node6</title>
<g id="a_node2"><a xlink:href="afe__dma_8c.xhtml#accc7edd40048cf4c851c6b7d7680f008" target="_top" xlink:title="Configure the DMA Channels: 0 RX. ">
<polygon fill="white" stroke="red" points="174.5,-494.5 174.5,-513.5 325.5,-513.5 325.5,-494.5 174.5,-494.5"/>
<text text-anchor="middle" x="250" y="-501.5" font-family="Helvetica,sans-Serif" font-size="10.00">_AfeConfigureDmaChannels</text>
</a>
</g>
</g>
<!-- Node5&#45;&gt;Node6 -->
<g id="edge1" class="edge"><title>Node5&#45;&gt;Node6</title>
<path fill="none" stroke="midnightblue" d="M71.4245,-276.629C79.1035,-320.975 104.076,-429.357 171,-485 175.608,-488.832 180.869,-491.912 186.433,-494.386"/>
<polygon fill="midnightblue" stroke="midnightblue" points="74.8509,-275.893 69.7961,-266.581 67.941,-277.013 74.8509,-275.893"/>
</g>
<!-- Node8 -->
<g id="node3" class="node"><title>Node8</title>
<g id="a_node3"><a xlink:href="dac__dma_8c.xhtml#a099e74bad2749ffafa6f3861e5e57456" target="_top" xlink:title="Configure the DMA Channels: 0 RX. ">
<polygon fill="white" stroke="red" points="173,-456.5 173,-475.5 327,-475.5 327,-456.5 173,-456.5"/>
<text text-anchor="middle" x="250" y="-463.5" font-family="Helvetica,sans-Serif" font-size="10.00">_DacConfigureDmaChannels</text>
</a>
</g>
</g>
<!-- Node5&#45;&gt;Node8 -->
<g id="edge2" class="edge"><title>Node5&#45;&gt;Node8</title>
<path fill="none" stroke="midnightblue" d="M73.3692,-276.75C84.0271,-315.675 113.218,-402.386 171,-447 175.964,-450.833 181.594,-453.906 187.5,-456.367"/>
<polygon fill="midnightblue" stroke="midnightblue" points="76.6593,-275.497 70.7451,-266.706 69.8867,-277.266 76.6593,-275.497"/>
</g>
<!-- Node10 -->
<g id="node4" class="node"><title>Node10</title>
<g id="a_node4"><a xlink:href="group__mcid__functions.xhtml#ga3e3c19251f4a60f507d557f19348c461" target="_top" xlink:title="HSMCI DMA R/W prepare. ">
<polygon fill="white" stroke="red" points="201,-418.5 201,-437.5 299,-437.5 299,-418.5 201,-418.5"/>
<text text-anchor="middle" x="250" y="-425.5" font-family="Helvetica,sans-Serif" font-size="10.00">_MciDMAPrepare</text>
</a>
</g>
</g>
<!-- Node5&#45;&gt;Node10 -->
<g id="edge3" class="edge"><title>Node5&#45;&gt;Node10</title>
<path fill="none" stroke="midnightblue" d="M75.8316,-275.933C89.431,-308.447 121.739,-374.701 171,-409 179.807,-415.132 190.373,-419.295 200.843,-422.117"/>
<polygon fill="midnightblue" stroke="midnightblue" points="79.0696,-274.604 72.0759,-266.645 72.5801,-277.228 79.0696,-274.604"/>
</g>
<!-- Node12 -->
<g id="node5" class="node"><title>Node12</title>
<g id="a_node5"><a xlink:href="qspi__dma_8c.xhtml#a0d664a2d9fdc7a5b276553ef98ebb085" target="_top" xlink:title="Enables a QSPI Rx channel. ">
<polygon fill="white" stroke="red" points="172.5,-380.5 172.5,-399.5 327.5,-399.5 327.5,-380.5 172.5,-380.5"/>
<text text-anchor="middle" x="250" y="-387.5" font-family="Helvetica,sans-Serif" font-size="10.00">QSPID_EnableQspiRxChannel</text>
</a>
</g>
</g>
<!-- Node5&#45;&gt;Node12 -->
<g id="edge4" class="edge"><title>Node5&#45;&gt;Node12</title>
<path fill="none" stroke="midnightblue" d="M79.8576,-275.432C96.5775,-300.957 130.282,-346.664 171,-371 177.46,-374.861 184.666,-377.939 192.015,-380.392"/>
<polygon fill="midnightblue" stroke="midnightblue" points="82.6312,-273.272 74.3018,-266.725 76.73,-277.037 82.6312,-273.272"/>
</g>
<!-- Node24 -->
<g id="node6" class="node"><title>Node24</title>
<g id="a_node6"><a xlink:href="qspi__dma_8c.xhtml#a98964de2ac702a42bac23703636aa744" target="_top" xlink:title="Enables a QSPI Tx channel. ">
<polygon fill="white" stroke="red" points="172.5,-342.5 172.5,-361.5 327.5,-361.5 327.5,-342.5 172.5,-342.5"/>
<text text-anchor="middle" x="250" y="-349.5" font-family="Helvetica,sans-Serif" font-size="10.00">QSPID_EnableQspiTxChannel</text>
</a>
</g>
</g>
<!-- Node5&#45;&gt;Node24 -->
<g id="edge5" class="edge"><title>Node5&#45;&gt;Node24</title>
<path fill="none" stroke="midnightblue" d="M86.087,-273.534C105.441,-290.846 138.181,-317.611 171,-333 179.202,-336.846 188.268,-339.964 197.23,-342.476"/>
<polygon fill="midnightblue" stroke="midnightblue" points="88.3984,-270.905 78.6505,-266.754 83.6823,-276.078 88.3984,-270.905"/>
</g>
<!-- Node26 -->
<g id="node7" class="node"><title>Node26</title>
<g id="a_node7"><a xlink:href="qspi__dma_8c.xhtml#aa4c44dd6ea57f7d345dc1cea9e764b33" target="_top" xlink:title="Enables a QSPI SPI Rx channel. ">
<polygon fill="white" stroke="red" points="181,-304.5 181,-323.5 319,-323.5 319,-304.5 181,-304.5"/>
<text text-anchor="middle" x="250" y="-311.5" font-family="Helvetica,sans-Serif" font-size="10.00">QSPID_EnableSpiChannel</text>
</a>
</g>
</g>
<!-- Node5&#45;&gt;Node26 -->
<g id="edge6" class="edge"><title>Node5&#45;&gt;Node26</title>
<path fill="none" stroke="midnightblue" d="M101.389,-270.302C121.332,-278.089 147.402,-287.778 171,-295 182.195,-298.426 194.441,-301.649 205.844,-304.434"/>
<polygon fill="midnightblue" stroke="midnightblue" points="102.434,-266.952 91.8472,-266.539 99.8659,-273.464 102.434,-266.952"/>
</g>
<!-- Node28 -->
<g id="node8" class="node"><title>Node28</title>
<g id="a_node8"><a xlink:href="spi__dma_8c.xhtml#abdde34d0acc2327d589c8fad97aa0e0f" target="_top" xlink:title="Configure the DMA Channels: 0 RX, 1 TX. ">
<polygon fill="white" stroke="red" points="171,-266.5 171,-285.5 329,-285.5 329,-266.5 171,-266.5"/>
<text text-anchor="middle" x="250" y="-273.5" font-family="Helvetica,sans-Serif" font-size="10.00">_spid_configureDmaChannels</text>
</a>
</g>
</g>
<!-- Node5&#45;&gt;Node28 -->
<g id="edge7" class="edge"><title>Node5&#45;&gt;Node28</title>
<path fill="none" stroke="midnightblue" d="M145.421,-265.097C153.884,-265.988 162.506,-266.895 170.982,-267.788"/>
<polygon fill="midnightblue" stroke="midnightblue" points="145.51,-261.587 135.199,-264.021 144.777,-268.549 145.51,-261.587"/>
</g>
<!-- Node30 -->
<g id="node9" class="node"><title>Node30</title>
<g id="a_node9"><a xlink:href="twid_8c.xhtml#a5e4ba8b79a879cfd2ab220e068062512" target="_top" xlink:title="Initializes a TWI DMA Read channel. ">
<polygon fill="white" stroke="red" points="185,-228.5 185,-247.5 315,-247.5 315,-228.5 185,-228.5"/>
<text text-anchor="middle" x="250" y="-235.5" font-family="Helvetica,sans-Serif" font-size="10.00">TWID_DmaInitializeRead</text>
</a>
</g>
</g>
<!-- Node5&#45;&gt;Node30 -->
<g id="edge8" class="edge"><title>Node5&#45;&gt;Node30</title>
<path fill="none" stroke="midnightblue" d="M145.229,-248.923C158.472,-247.529 172.113,-246.093 184.975,-244.739"/>
<polygon fill="midnightblue" stroke="midnightblue" points="144.777,-245.451 135.199,-249.979 145.51,-252.413 144.777,-245.451"/>
</g>
<!-- Node32 -->
<g id="node10" class="node"><title>Node32</title>
<g id="a_node10"><a xlink:href="twid_8c.xhtml#a52b27768f3d18a91f6501d3cbf6b8daf" target="_top" xlink:title="Initializes a TWI DMA write channel. ">
<polygon fill="white" stroke="red" points="185,-190.5 185,-209.5 315,-209.5 315,-190.5 185,-190.5"/>
<text text-anchor="middle" x="250" y="-197.5" font-family="Helvetica,sans-Serif" font-size="10.00">TWID_DmaInitializeWrite</text>
</a>
</g>
</g>
<!-- Node5&#45;&gt;Node32 -->
<g id="edge9" class="edge"><title>Node5&#45;&gt;Node32</title>
<path fill="none" stroke="midnightblue" d="M101.389,-243.698C121.332,-235.911 147.402,-226.222 171,-219 182.195,-215.574 194.441,-212.351 205.844,-209.566"/>
<polygon fill="midnightblue" stroke="midnightblue" points="99.8659,-240.536 91.8472,-247.461 102.434,-247.048 99.8659,-240.536"/>
</g>
<!-- Node34 -->
<g id="node11" class="node"><title>Node34</title>
<g id="a_node11"><a xlink:href="uart__dma_8c.xhtml#a67f71ddf9448a9404427f880e3063664" target="_top" xlink:title="This function initialize the appropriate DMA channel for Rx channel of UART. ">
<polygon fill="white" stroke="black" points="179,-152.5 179,-171.5 321,-171.5 321,-152.5 179,-152.5"/>
<text text-anchor="middle" x="250" y="-159.5" font-family="Helvetica,sans-Serif" font-size="10.00">UARTD_EnableRxChannels</text>
</a>
</g>
</g>
<!-- Node5&#45;&gt;Node34 -->
<g id="edge10" class="edge"><title>Node5&#45;&gt;Node34</title>
<path fill="none" stroke="midnightblue" d="M86.087,-240.466C105.441,-223.154 138.181,-196.389 171,-181 179.202,-177.154 188.268,-174.036 197.23,-171.524"/>
<polygon fill="midnightblue" stroke="midnightblue" points="83.6823,-237.922 78.6505,-247.246 88.3984,-243.095 83.6823,-237.922"/>
</g>
<!-- Node35 -->
<g id="node12" class="node"><title>Node35</title>
<g id="a_node12"><a xlink:href="uart__dma_8c.xhtml#a88e980ec7908f8ac5ca57b1d0028a987" target="_top" xlink:title="This function initialize the appropriate DMA channel for Tx channel of UART. ">
<polygon fill="white" stroke="black" points="179.5,-114.5 179.5,-133.5 320.5,-133.5 320.5,-114.5 179.5,-114.5"/>
<text text-anchor="middle" x="250" y="-121.5" font-family="Helvetica,sans-Serif" font-size="10.00">UARTD_EnableTxChannels</text>
</a>
</g>
</g>
<!-- Node5&#45;&gt;Node35 -->
<g id="edge11" class="edge"><title>Node5&#45;&gt;Node35</title>
<path fill="none" stroke="midnightblue" d="M79.8576,-238.568C96.5775,-213.043 130.282,-167.336 171,-143 177.46,-139.139 184.666,-136.061 192.015,-133.608"/>
<polygon fill="midnightblue" stroke="midnightblue" points="76.73,-236.963 74.3018,-247.275 82.6312,-240.728 76.73,-236.963"/>
</g>
<!-- Node36 -->
<g id="node13" class="node"><title>Node36</title>
<g id="a_node13"><a xlink:href="usart__dma_8c.xhtml#a7714e0765368904f8f43f1fc0ccb63fd" target="_top" xlink:title="This function initialize the appropriate DMA channel for Rx channel of USART. ">
<polygon fill="white" stroke="black" points="175.5,-76.5 175.5,-95.5 324.5,-95.5 324.5,-76.5 175.5,-76.5"/>
<text text-anchor="middle" x="250" y="-83.5" font-family="Helvetica,sans-Serif" font-size="10.00">USARTD_EnableRxChannels</text>
</a>
</g>
</g>
<!-- Node5&#45;&gt;Node36 -->
<g id="edge12" class="edge"><title>Node5&#45;&gt;Node36</title>
<path fill="none" stroke="midnightblue" d="M75.8316,-238.067C89.431,-205.553 121.739,-139.299 171,-105 176.605,-101.098 182.921,-97.993 189.472,-95.5238"/>
<polygon fill="midnightblue" stroke="midnightblue" points="72.5801,-236.772 72.0759,-247.355 79.0696,-239.396 72.5801,-236.772"/>
</g>
<!-- Node37 -->
<g id="node14" class="node"><title>Node37</title>
<g id="a_node14"><a xlink:href="usart__dma_8c.xhtml#add65a720aa37b5f7d95df156b3fb06e7" target="_top" xlink:title="This function initialize the appropriate DMA channel for Tx channel of USART. ">
<polygon fill="white" stroke="red" points="176,-38.5 176,-57.5 324,-57.5 324,-38.5 176,-38.5"/>
<text text-anchor="middle" x="250" y="-45.5" font-family="Helvetica,sans-Serif" font-size="10.00">USARTD_EnableTxChannels</text>
</a>
</g>
</g>
<!-- Node5&#45;&gt;Node37 -->
<g id="edge13" class="edge"><title>Node5&#45;&gt;Node37</title>
<path fill="none" stroke="midnightblue" d="M73.3692,-237.25C84.0271,-198.325 113.218,-111.614 171,-67 175.964,-63.167 181.594,-60.0944 187.5,-57.6334"/>
<polygon fill="midnightblue" stroke="midnightblue" points="69.8867,-236.734 70.7451,-247.294 76.6593,-238.503 69.8867,-236.734"/>
</g>
<!-- Node45 -->
<g id="node15" class="node"><title>Node45</title>
<g id="a_node15"><a xlink:href="xtio__uart_8h.xhtml#a8ba86b040c6e35b8df3244e412f2e689" target="_top" xlink:title="xtio_uart_configure">
<polygon fill="white" stroke="red" points="196,-0.5 196,-19.5 304,-19.5 304,-0.5 196,-0.5"/>
<text text-anchor="middle" x="250" y="-7.5" font-family="Helvetica,sans-Serif" font-size="10.00">xtio_uart_configure</text>
</a>
</g>
</g>
<!-- Node5&#45;&gt;Node45 -->
<g id="edge14" class="edge"><title>Node5&#45;&gt;Node45</title>
<path fill="none" stroke="midnightblue" d="M71.4245,-237.371C79.1035,-193.025 104.076,-84.6434 171,-29 178.18,-23.0298 186.945,-18.8832 195.973,-16.0146"/>
<polygon fill="midnightblue" stroke="midnightblue" points="67.941,-236.987 69.7961,-247.419 74.8509,-238.107 67.941,-236.987"/>
</g>
</g>
</svg>
