<?xml version="1.0" encoding="UTF-8" standalone="no"?>
<!DOCTYPE svg PUBLIC "-//W3C//DTD SVG 1.1//EN"
 "http://www.w3.org/Graphics/SVG/1.1/DTD/svg11.dtd">
<!-- Generated by graphviz version 2.38.0 (20140413.2041)
 -->
<!-- Title: USBH_HAL_PipeAbort Pages: 1 -->
<svg width="309pt" height="142pt"
 viewBox="0.00 0.00 309.00 142.00" xmlns="http://www.w3.org/2000/svg" xmlns:xlink="http://www.w3.org/1999/xlink">
<g id="graph0" class="graph" transform="scale(1 1) rotate(0) translate(4 138)">
<title>USBH_HAL_PipeAbort</title>
<polygon fill="white" stroke="none" points="-4,4 -4,-138 305,-138 305,4 -4,4"/>
<!-- Node652 -->
<g id="node1" class="node"><title>Node652</title>
<polygon fill="#bfbfbf" stroke="black" points="0,-57.5 0,-76.5 122,-76.5 122,-57.5 0,-57.5"/>
<text text-anchor="middle" x="61" y="-64.5" font-family="Helvetica,sans-Serif" font-size="10.00">USBH_HAL_PipeAbort</text>
</g>
<!-- Node653 -->
<g id="node2" class="node"><title>Node653</title>
<g id="a_node2"><a xlink:href="group__uhd__group.xhtml#ga83779ae5393f2318b1eb0856f583b637" target="_top" xlink:title="Disables an endpoint or all endpoint of a device. ">
<polygon fill="white" stroke="red" points="171.5,-114.5 171.5,-133.5 287.5,-133.5 287.5,-114.5 171.5,-114.5"/>
<text text-anchor="middle" x="229.5" y="-121.5" font-family="Helvetica,sans-Serif" font-size="10.00">USBH_HAL_FreePipe</text>
</a>
</g>
</g>
<!-- Node652&#45;&gt;Node653 -->
<g id="edge1" class="edge"><title>Node652&#45;&gt;Node653</title>
<path fill="none" stroke="midnightblue" d="M93.6678,-80.5864C112.223,-88.2815 136.222,-97.7811 158,-105 168.228,-108.39 179.436,-111.624 189.846,-114.431"/>
<polygon fill="midnightblue" stroke="midnightblue" points="94.8113,-77.2708 84.2355,-76.636 92.1071,-83.7274 94.8113,-77.2708"/>
</g>
<!-- Node675 -->
<g id="node3" class="node"><title>Node675</title>
<g id="a_node3"><a xlink:href="group__uhd__group.xhtml#ga410423649d19fc0282fe5012f3455b31" target="_top" xlink:title="Aborts an on&#45;going transfer on an endpoint. ">
<polygon fill="white" stroke="black" points="158,-76.5 158,-95.5 301,-95.5 301,-76.5 158,-76.5"/>
<text text-anchor="middle" x="229.5" y="-83.5" font-family="Helvetica,sans-Serif" font-size="10.00">USBH_HAL_AbortEndPoint</text>
</a>
</g>
</g>
<!-- Node652&#45;&gt;Node675 -->
<g id="edge2" class="edge"><title>Node652&#45;&gt;Node675</title>
<path fill="none" stroke="midnightblue" d="M132.068,-74.9957C140.644,-75.9744 149.412,-76.9749 157.995,-77.9543"/>
<polygon fill="midnightblue" stroke="midnightblue" points="132.443,-71.5159 122.11,-73.8594 131.649,-78.4707 132.443,-71.5159"/>
</g>
<!-- Node676 -->
<g id="node4" class="node"><title>Node676</title>
<g id="a_node4"><a xlink:href="group__uhd__group.xhtml#ga12b21dabf5465ef92208084d4f336186" target="_top" xlink:title="USBH_HAL_ManageSof">
<polygon fill="white" stroke="red" points="165,-38.5 165,-57.5 294,-57.5 294,-38.5 165,-38.5"/>
<text text-anchor="middle" x="229.5" y="-45.5" font-family="Helvetica,sans-Serif" font-size="10.00">USBH_HAL_ManageSof</text>
</a>
</g>
</g>
<!-- Node652&#45;&gt;Node676 -->
<g id="edge3" class="edge"><title>Node652&#45;&gt;Node676</title>
<path fill="none" stroke="midnightblue" d="M132.334,-58.9739C143.117,-57.7433 154.197,-56.479 164.826,-55.2661"/>
<polygon fill="midnightblue" stroke="midnightblue" points="131.649,-55.5293 122.11,-60.1406 132.443,-62.4841 131.649,-55.5293"/>
</g>
<!-- Node677 -->
<g id="node5" class="node"><title>Node677</title>
<g id="a_node5"><a xlink:href="group__uhd__group.xhtml#gaa29c0122543b5f5faf600eee68474615" target="_top" xlink:title="USBH_HAL_PipeInterrupt">
<polygon fill="white" stroke="red" points="161,-0.5 161,-19.5 298,-19.5 298,-0.5 161,-0.5"/>
<text text-anchor="middle" x="229.5" y="-7.5" font-family="Helvetica,sans-Serif" font-size="10.00">USBH_HAL_PipeInterrupt</text>
</a>
</g>
</g>
<!-- Node652&#45;&gt;Node677 -->
<g id="edge4" class="edge"><title>Node652&#45;&gt;Node677</title>
<path fill="none" stroke="midnightblue" d="M93.6678,-53.4136C112.223,-45.7185 136.222,-36.2189 158,-29 168.228,-25.6098 179.436,-22.3762 189.846,-19.5691"/>
<polygon fill="midnightblue" stroke="midnightblue" points="92.1071,-50.2726 84.2355,-57.364 94.8113,-56.7292 92.1071,-50.2726"/>
</g>
</g>
</svg>
