<?xml version="1.0" encoding="UTF-8" standalone="no"?>
<!DOCTYPE svg PUBLIC "-//W3C//DTD SVG 1.1//EN"
 "http://www.w3.org/Graphics/SVG/1.1/DTD/svg11.dtd">
<!-- Generated by graphviz version 2.38.0 (20140413.2041)
 -->
<!-- Title: AUDDSpeakerDriver_StreamSettingChanged Pages: 1 -->
<svg width="360pt" height="39pt"
 viewBox="0.00 0.00 360.00 39.00" xmlns="http://www.w3.org/2000/svg" xmlns:xlink="http://www.w3.org/1999/xlink">
<g id="graph0" class="graph" transform="scale(1 1) rotate(0) translate(4 35)">
<title>AUDDSpeakerDriver_StreamSettingChanged</title>
<polygon fill="white" stroke="none" points="-4,4 -4,-35 356,-35 356,4 -4,4"/>
<!-- Node164 -->
<g id="node1" class="node"><title>Node164</title>
<polygon fill="#bfbfbf" stroke="black" points="0,-0.5 0,-30.5 155,-30.5 155,-0.5 0,-0.5"/>
<text text-anchor="start" x="8" y="-18.5" font-family="Helvetica,sans-Serif" font-size="10.00">AUDDSpeakerDriver_Stream</text>
<text text-anchor="middle" x="77.5" y="-7.5" font-family="Helvetica,sans-Serif" font-size="10.00">SettingChanged</text>
</g>
<!-- Node165 -->
<g id="node2" class="node"><title>Node165</title>
<g id="a_node2"><a xlink:href="group__usbd__audio__speaker.xhtml#ga6461e7ed3092bbace3c03a5bd3a2e21f" target="_top" xlink:title="Invoked whenever the active setting of an interface is changed by the host. ">
<polygon fill="white" stroke="black" points="191,-0.5 191,-30.5 352,-30.5 352,-0.5 191,-0.5"/>
<text text-anchor="start" x="199" y="-18.5" font-family="Helvetica,sans-Serif" font-size="10.00">AUDDSpeakerDriver_Interface</text>
<text text-anchor="middle" x="271.5" y="-7.5" font-family="Helvetica,sans-Serif" font-size="10.00">SettingChangedHandler</text>
</a>
</g>
</g>
<!-- Node164&#45;&gt;Node165 -->
<g id="edge1" class="edge"><title>Node164&#45;&gt;Node165</title>
<path fill="none" stroke="midnightblue" d="M165.438,-15.5C173.876,-15.5 182.407,-15.5 190.769,-15.5"/>
<polygon fill="midnightblue" stroke="midnightblue" points="165.211,-12.0001 155.211,-15.5 165.211,-19.0001 165.211,-12.0001"/>
</g>
</g>
</svg>
