<?xml version="1.0" encoding="UTF-8" standalone="no"?>
<!DOCTYPE svg PUBLIC "-//W3C//DTD SVG 1.1//EN"
 "http://www.w3.org/Graphics/SVG/1.1/DTD/svg11.dtd">
<!-- Generated by graphviz version 2.38.0 (20140413.2041)
 -->
<!-- Title: _SetLineCoding Pages: 1 -->
<svg width="266pt" height="66pt"
 viewBox="0.00 0.00 266.00 66.00" xmlns="http://www.w3.org/2000/svg" xmlns:xlink="http://www.w3.org/1999/xlink">
<g id="graph0" class="graph" transform="scale(1 1) rotate(0) translate(4 62)">
<title>_SetLineCoding</title>
<polygon fill="white" stroke="none" points="-4,4 -4,-62 262,-62 262,4 -4,4"/>
<!-- Node122 -->
<g id="node1" class="node"><title>Node122</title>
<polygon fill="#bfbfbf" stroke="black" points="0,-19.5 0,-38.5 91,-38.5 91,-19.5 0,-19.5"/>
<text text-anchor="middle" x="45.5" y="-26.5" font-family="Helvetica,sans-Serif" font-size="10.00">_SetLineCoding</text>
</g>
<!-- Node123 -->
<g id="node2" class="node"><title>Node123</title>
<g id="a_node2"><a xlink:href="group__usbd__interface.xhtml#gaa786fa9bbfd3c2f64b5f486e537ffebb" target="_top" xlink:title="Reads incoming data on an USB endpoint This methods sets the transfer descriptor and activate the end...">
<polygon fill="white" stroke="red" points="155.5,-38.5 155.5,-57.5 229.5,-57.5 229.5,-38.5 155.5,-38.5"/>
<text text-anchor="middle" x="192.5" y="-45.5" font-family="Helvetica,sans-Serif" font-size="10.00">USBD_Read</text>
</a>
</g>
</g>
<!-- Node122&#45;&gt;Node123 -->
<g id="edge1" class="edge"><title>Node122&#45;&gt;Node123</title>
<path fill="none" stroke="midnightblue" d="M91.1879,-34.8557C108.439,-37.1161 128.166,-39.701 145.535,-41.9771"/>
<polygon fill="midnightblue" stroke="midnightblue" points="145.084,-45.4477 155.454,-43.2767 145.993,-38.507 145.084,-45.4477"/>
</g>
<!-- Node134 -->
<g id="node3" class="node"><title>Node134</title>
<g id="a_node3"><a xlink:href="group__usbd__cdc.xhtml#ga1df488de43fb255ae5191c98b3724576" target="_top" xlink:title="Callback function which should be invoked after the data of a SetLineCoding request has been retrieve...">
<polygon fill="white" stroke="red" points="127,-0.5 127,-19.5 258,-19.5 258,-0.5 127,-0.5"/>
<text text-anchor="middle" x="192.5" y="-7.5" font-family="Helvetica,sans-Serif" font-size="10.00">_SetLineCodingCallback</text>
</a>
</g>
</g>
<!-- Node122&#45;&gt;Node134 -->
<g id="edge2" class="edge"><title>Node122&#45;&gt;Node134</title>
<path fill="none" stroke="midnightblue" d="M91.1879,-23.1443C99.4103,-22.0669 108.195,-20.9158 117.019,-19.7595"/>
<polygon fill="midnightblue" stroke="midnightblue" points="117.51,-23.2252 126.971,-18.4556 116.601,-16.2846 117.51,-23.2252"/>
</g>
</g>
</svg>
