<?xml version="1.0" encoding="UTF-8" standalone="no"?>
<!DOCTYPE svg PUBLIC "-//W3C//DTD SVG 1.1//EN"
 "http://www.w3.org/Graphics/SVG/1.1/DTD/svg11.dtd">
<!-- Generated by graphviz version 2.38.0 (20140413.2041)
 -->
<!-- Title: udd_disable Pages: 1 -->
<svg width="225pt" height="142pt"
 viewBox="0.00 0.00 225.00 142.00" xmlns="http://www.w3.org/2000/svg" xmlns:xlink="http://www.w3.org/1999/xlink">
<g id="graph0" class="graph" transform="scale(1 1) rotate(0) translate(4 138)">
<title>udd_disable</title>
<polygon fill="white" stroke="none" points="-4,4 -4,-138 221,-138 221,4 -4,4"/>
<!-- Node286 -->
<g id="node1" class="node"><title>Node286</title>
<polygon fill="#bfbfbf" stroke="black" points="0,-57.5 0,-76.5 74,-76.5 74,-57.5 0,-57.5"/>
<text text-anchor="middle" x="37" y="-64.5" font-family="Helvetica,sans-Serif" font-size="10.00">udd_disable</text>
</g>
<!-- Node287 -->
<g id="node2" class="node"><title>Node287</title>
<g id="a_node2"><a xlink:href="group__udd__udphs__group.xhtml#ga03e59eaa264f1dbe5a52559311d0520e" target="_top" xlink:title="udd_detach">
<polygon fill="white" stroke="red" points="127,-114.5 127,-133.5 200,-133.5 200,-114.5 127,-114.5"/>
<text text-anchor="middle" x="163.5" y="-121.5" font-family="Helvetica,sans-Serif" font-size="10.00">udd_detach</text>
</a>
</g>
</g>
<!-- Node286&#45;&gt;Node287 -->
<g id="edge1" class="edge"><title>Node286&#45;&gt;Node287</title>
<path fill="none" stroke="midnightblue" d="M54.5506,-76.5771C68.9388,-84.6974 90.4814,-96.367 110,-105 114.527,-107.002 119.336,-108.961 124.136,-110.815"/>
<polygon fill="midnightblue" stroke="midnightblue" points="123.287,-114.234 133.879,-114.453 125.735,-107.676 123.287,-114.234"/>
</g>
<!-- Node290 -->
<g id="node3" class="node"><title>Node290</title>
<g id="a_node3"><a xlink:href="group__interrupt__group.xhtml#ga9931bf539005d3f12b461928823a0ae2" target="_top" xlink:title="cpu_irq_save">
<polygon fill="white" stroke="black" points="124,-76.5 124,-95.5 203,-95.5 203,-76.5 124,-76.5"/>
<text text-anchor="middle" x="163.5" y="-83.5" font-family="Helvetica,sans-Serif" font-size="10.00">cpu_irq_save</text>
</a>
</g>
</g>
<!-- Node286&#45;&gt;Node290 -->
<g id="edge2" class="edge"><title>Node286&#45;&gt;Node290</title>
<path fill="none" stroke="midnightblue" d="M74.0106,-72.4956C86.4863,-74.3995 100.683,-76.5661 113.997,-78.5979"/>
<polygon fill="midnightblue" stroke="midnightblue" points="113.549,-82.07 123.963,-80.1188 114.605,-75.1501 113.549,-82.07"/>
</g>
<!-- Node293 -->
<g id="node4" class="node"><title>Node293</title>
<g id="a_node4"><a xlink:href="libraries_2libboard_2resources___x4_m0x_2system__sams70_8c.xhtml#ad110a0837c9e910d788b9b73fd3d92dd" target="_top" xlink:title="Disables USB clock. ">
<polygon fill="white" stroke="black" points="110,-38.5 110,-57.5 217,-57.5 217,-38.5 110,-38.5"/>
<text text-anchor="middle" x="163.5" y="-45.5" font-family="Helvetica,sans-Serif" font-size="10.00">sysclk_disable_usb</text>
</a>
</g>
</g>
<!-- Node286&#45;&gt;Node293 -->
<g id="edge3" class="edge"><title>Node286&#45;&gt;Node293</title>
<path fill="none" stroke="midnightblue" d="M74.0106,-61.5044C82.1504,-60.2622 91.0229,-58.9081 99.9048,-57.5527"/>
<polygon fill="midnightblue" stroke="midnightblue" points="100.541,-60.9963 109.898,-56.0276 99.4846,-54.0764 100.541,-60.9963"/>
</g>
<!-- Node291 -->
<g id="node5" class="node"><title>Node291</title>
<g id="a_node5"><a xlink:href="group__interrupt__group.xhtml#gae4d6d11a5211f6bd00353f280aa78f6f" target="_top" xlink:title="cpu_irq_restore">
<polygon fill="white" stroke="red" points="118,-0.5 118,-19.5 209,-19.5 209,-0.5 118,-0.5"/>
<text text-anchor="middle" x="163.5" y="-7.5" font-family="Helvetica,sans-Serif" font-size="10.00">cpu_irq_restore</text>
</a>
</g>
</g>
<!-- Node286&#45;&gt;Node291 -->
<g id="edge4" class="edge"><title>Node286&#45;&gt;Node291</title>
<path fill="none" stroke="midnightblue" d="M54.5506,-57.4229C68.9388,-49.3026 90.4814,-37.633 110,-29 114.527,-26.9979 119.336,-25.0386 124.136,-23.1846"/>
<polygon fill="midnightblue" stroke="midnightblue" points="125.735,-26.3235 133.879,-19.5471 123.287,-19.7656 125.735,-26.3235"/>
</g>
</g>
</svg>
