<?xml version="1.0" encoding="UTF-8" standalone="no"?>
<!DOCTYPE svg PUBLIC "-//W3C//DTD SVG 1.1//EN"
 "http://www.w3.org/Graphics/SVG/1.1/DTD/svg11.dtd">
<!-- Generated by graphviz version 2.38.0 (20140413.2041)
 -->
<!-- Title: USBH_HAL_GetPipe Pages: 1 -->
<svg width="300pt" height="66pt"
 viewBox="0.00 0.00 300.00 66.00" xmlns="http://www.w3.org/2000/svg" xmlns:xlink="http://www.w3.org/1999/xlink">
<g id="graph0" class="graph" transform="scale(1 1) rotate(0) translate(4 62)">
<title>USBH_HAL_GetPipe</title>
<polygon fill="white" stroke="none" points="-4,4 -4,-62 296,-62 296,4 -4,4"/>
<!-- Node399 -->
<g id="node1" class="node"><title>Node399</title>
<polygon fill="#bfbfbf" stroke="black" points="0,-19.5 0,-38.5 113,-38.5 113,-19.5 0,-19.5"/>
<text text-anchor="middle" x="56.5" y="-26.5" font-family="Helvetica,sans-Serif" font-size="10.00">USBH_HAL_GetPipe</text>
</g>
<!-- Node400 -->
<g id="node2" class="node"><title>Node400</title>
<g id="a_node2"><a xlink:href="group__uhd__group.xhtml#ga1d4a9f98194cb255b2fcb6cdf8d83fb8" target="_top" xlink:title="Allows to receive or send data on an endpoint. ">
<polygon fill="white" stroke="red" points="153.5,-38.5 153.5,-57.5 287.5,-57.5 287.5,-38.5 153.5,-38.5"/>
<text text-anchor="middle" x="220.5" y="-45.5" font-family="Helvetica,sans-Serif" font-size="10.00">USBH_HAL_RunEndpoint</text>
</a>
</g>
</g>
<!-- Node399&#45;&gt;Node400 -->
<g id="edge1" class="edge"><title>Node399&#45;&gt;Node400</title>
<path fill="none" stroke="midnightblue" d="M123.396,-36.7286C133.264,-37.8859 143.441,-39.0795 153.314,-40.2375"/>
<polygon fill="midnightblue" stroke="midnightblue" points="123.591,-33.2275 113.251,-35.5387 122.775,-40.1798 123.591,-33.2275"/>
</g>
<!-- Node437 -->
<g id="node3" class="node"><title>Node437</title>
<g id="a_node3"><a xlink:href="group__uhd__group.xhtml#ga410423649d19fc0282fe5012f3455b31" target="_top" xlink:title="Aborts an on&#45;going transfer on an endpoint. ">
<polygon fill="white" stroke="black" points="149,-0.5 149,-19.5 292,-19.5 292,-0.5 149,-0.5"/>
<text text-anchor="middle" x="220.5" y="-7.5" font-family="Helvetica,sans-Serif" font-size="10.00">USBH_HAL_AbortEndPoint</text>
</a>
</g>
</g>
<!-- Node399&#45;&gt;Node437 -->
<g id="edge2" class="edge"><title>Node399&#45;&gt;Node437</title>
<path fill="none" stroke="midnightblue" d="M123.334,-21.2787C131.713,-20.2961 140.315,-19.2871 148.767,-18.2959"/>
<polygon fill="midnightblue" stroke="midnightblue" points="122.775,-17.8202 113.251,-22.4613 123.591,-24.7725 122.775,-17.8202"/>
</g>
</g>
</svg>
