<?xml version="1.0" encoding="UTF-8" standalone="no"?>
<!DOCTYPE svg PUBLIC "-//W3C//DTD SVG 1.1//EN"
 "http://www.w3.org/Graphics/SVG/1.1/DTD/svg11.dtd">
<!-- Generated by graphviz version 2.38.0 (20140413.2041)
 -->
<!-- Title: HIDMSDDriver_ConfigurationChangedHandler Pages: 1 -->
<svg width="374pt" height="142pt"
 viewBox="0.00 0.00 374.00 142.00" xmlns="http://www.w3.org/2000/svg" xmlns:xlink="http://www.w3.org/1999/xlink">
<g id="graph0" class="graph" transform="scale(1 1) rotate(0) translate(4 138)">
<title>HIDMSDDriver_ConfigurationChangedHandler</title>
<polygon fill="white" stroke="none" points="-4,4 -4,-138 370,-138 370,4 -4,4"/>
<!-- Node0 -->
<g id="node1" class="node"><title>Node0</title>
<polygon fill="#bfbfbf" stroke="black" points="0,-52 0,-82 154,-82 154,-52 0,-52"/>
<text text-anchor="start" x="8" y="-70" font-family="Helvetica,sans-Serif" font-size="10.00">HIDMSDDriver_Configuration</text>
<text text-anchor="middle" x="77" y="-59" font-family="Helvetica,sans-Serif" font-size="10.00">ChangedHandler</text>
</g>
<!-- Node1 -->
<g id="node2" class="node"><title>Node1</title>
<g id="a_node2"><a xlink:href="group__usbd__interface.xhtml#ga01ba3ff549b968edc152cdb23c2027d1" target="_top" xlink:title="Return USBDDriver instance pointer for global usage. ">
<polygon fill="white" stroke="black" points="230,-114.5 230,-133.5 326,-133.5 326,-114.5 230,-114.5"/>
<text text-anchor="middle" x="278" y="-121.5" font-family="Helvetica,sans-Serif" font-size="10.00">USBD_GetDriver</text>
</a>
</g>
</g>
<!-- Node0&#45;&gt;Node1 -->
<g id="edge1" class="edge"><title>Node0&#45;&gt;Node1</title>
<path fill="none" stroke="midnightblue" d="M118.618,-82.0072C139.732,-89.4946 166.062,-98.3477 190,-105 199.608,-107.67 209.897,-110.201 219.914,-112.493"/>
<polygon fill="midnightblue" stroke="midnightblue" points="219.283,-115.938 229.805,-114.702 220.809,-109.106 219.283,-115.938"/>
</g>
<!-- Node2 -->
<g id="node3" class="node"><title>Node2</title>
<g id="a_node3"><a xlink:href="group__usbd__interface.xhtml#gadfce99fba013d30648e7a058c7fa6799" target="_top" xlink:title="Returns configuration descriptor list. ">
<polygon fill="white" stroke="red" points="194.5,-76.5 194.5,-95.5 361.5,-95.5 361.5,-76.5 194.5,-76.5"/>
<text text-anchor="middle" x="278" y="-83.5" font-family="Helvetica,sans-Serif" font-size="10.00">USBDDriver_GetCfgDescriptors</text>
</a>
</g>
</g>
<!-- Node0&#45;&gt;Node2 -->
<g id="edge2" class="edge"><title>Node0&#45;&gt;Node2</title>
<path fill="none" stroke="midnightblue" d="M154.085,-74.2644C163.96,-75.2073 174.162,-76.1813 184.269,-77.1463"/>
<polygon fill="midnightblue" stroke="midnightblue" points="184.043,-80.6405 194.33,-78.1069 184.708,-73.6722 184.043,-80.6405"/>
</g>
<!-- Node6 -->
<g id="node4" class="node"><title>Node6</title>
<g id="a_node4"><a xlink:href="group__usbd__hid__key.xhtml#ga8756ebb1a6a51b48a6e331ea28808e4b" target="_top" xlink:title="Configure function with expected descriptors and start functionality. ">
<polygon fill="white" stroke="red" points="190,-38.5 190,-57.5 366,-57.5 366,-38.5 190,-38.5"/>
<text text-anchor="middle" x="278" y="-45.5" font-family="Helvetica,sans-Serif" font-size="10.00">HIDDKeyboard_ConfigureFunction</text>
</a>
</g>
</g>
<!-- Node0&#45;&gt;Node6 -->
<g id="edge3" class="edge"><title>Node0&#45;&gt;Node6</title>
<path fill="none" stroke="midnightblue" d="M154.085,-59.7356C162.524,-58.9299 171.2,-58.1015 179.853,-57.2753"/>
<polygon fill="midnightblue" stroke="midnightblue" points="180.362,-60.7427 189.984,-56.308 179.697,-53.7744 180.362,-60.7427"/>
</g>
<!-- Node25 -->
<g id="node5" class="node"><title>Node25</title>
<g id="a_node5"><a xlink:href="group__usbd__msd.xhtml#gafb1268e0849907894c708ccc4ab46fee" target="_top" xlink:title="Invoked when the configuration of the device changes. ">
<polygon fill="white" stroke="red" points="213,-0.5 213,-19.5 343,-19.5 343,-0.5 213,-0.5"/>
<text text-anchor="middle" x="278" y="-7.5" font-family="Helvetica,sans-Serif" font-size="10.00">MSDFunction_Configure</text>
</a>
</g>
</g>
<!-- Node0&#45;&gt;Node25 -->
<g id="edge4" class="edge"><title>Node0&#45;&gt;Node25</title>
<path fill="none" stroke="midnightblue" d="M118.618,-51.9928C139.732,-44.5054 166.062,-35.6523 190,-29 199.176,-26.45 208.973,-24.0271 218.562,-21.8177"/>
<polygon fill="midnightblue" stroke="midnightblue" points="219.455,-25.2044 228.444,-19.5963 217.92,-18.3748 219.455,-25.2044"/>
</g>
</g>
</svg>
