<?xml version="1.0" encoding="UTF-8" standalone="no"?>
<!DOCTYPE svg PUBLIC "-//W3C//DTD SVG 1.1//EN"
 "http://www.w3.org/Graphics/SVG/1.1/DTD/svg11.dtd">
<!-- Generated by graphviz version 2.38.0 (20140413.2041)
 -->
<!-- Title: USBD_HAL_IsHighSpeed Pages: 1 -->
<svg width="478pt" height="454pt"
 viewBox="0.00 0.00 478.00 453.50" xmlns="http://www.w3.org/2000/svg" xmlns:xlink="http://www.w3.org/1999/xlink">
<g id="graph0" class="graph" transform="scale(1 1) rotate(0) translate(4 449.5)">
<title>USBD_HAL_IsHighSpeed</title>
<polygon fill="white" stroke="none" points="-4,4 -4,-449.5 474,-449.5 474,4 -4,4"/>
<!-- Node1284 -->
<g id="node1" class="node"><title>Node1284</title>
<polygon fill="#bfbfbf" stroke="black" points="0,-213 0,-232 135,-232 135,-213 0,-213"/>
<text text-anchor="middle" x="67.5" y="-220" font-family="Helvetica,sans-Serif" font-size="10.00">USBD_HAL_IsHighSpeed</text>
</g>
<!-- Node1285 -->
<g id="node2" class="node"><title>Node1285</title>
<g id="a_node2"><a xlink:href="group__usbd__hal.xhtml#gafcd12a00544aac7645deb694ec611e7a" target="_top" xlink:title="USBD (UDP) interrupt handler Manages device resume, suspend, end of bus reset. ">
<polygon fill="white" stroke="black" points="215,-426 215,-445 310,-445 310,-426 215,-426"/>
<text text-anchor="middle" x="262.5" y="-433" font-family="Helvetica,sans-Serif" font-size="10.00">USBHS_Handler</text>
</a>
</g>
</g>
<!-- Node1284&#45;&gt;Node1285 -->
<g id="edge1" class="edge"><title>Node1284&#45;&gt;Node1285</title>
<path fill="none" stroke="midnightblue" d="M72.9105,-242.007C82.9374,-281.622 111.344,-371.54 171,-416.5 183.565,-425.969 199.772,-430.973 214.991,-433.542"/>
<polygon fill="midnightblue" stroke="midnightblue" points="76.2549,-240.945 70.5124,-232.041 69.4492,-242.583 76.2549,-240.945"/>
</g>
<!-- Node1286 -->
<g id="node3" class="node"><title>Node1286</title>
<g id="a_node3"><a xlink:href="group__usbd__audio__speaker.xhtml#gacdc1729fd19bf2030d6dc5a8dcc9bfde" target="_top" xlink:title="Invoked whenever the active configuration of device is changed by the host. ">
<polygon fill="white" stroke="black" points="171,-376.5 171,-406.5 354,-406.5 354,-376.5 171,-376.5"/>
<text text-anchor="start" x="179" y="-394.5" font-family="Helvetica,sans-Serif" font-size="10.00">AUDDSpeakerDriver_Configuration</text>
<text text-anchor="middle" x="262.5" y="-383.5" font-family="Helvetica,sans-Serif" font-size="10.00">ChangeHandler</text>
</a>
</g>
</g>
<!-- Node1284&#45;&gt;Node1286 -->
<g id="edge2" class="edge"><title>Node1284&#45;&gt;Node1286</title>
<path fill="none" stroke="midnightblue" d="M76.5364,-241.315C90.8327,-272.479 123.692,-334.623 171,-367.5 175.939,-370.932 181.34,-373.874 186.968,-376.395"/>
<polygon fill="midnightblue" stroke="midnightblue" points="79.6656,-239.738 72.4057,-232.022 73.269,-242.581 79.6656,-239.738"/>
</g>
<!-- Node1287 -->
<g id="node4" class="node"><title>Node1287</title>
<g id="a_node4"><a xlink:href="group__usbd__audio__speakerphone.xhtml#ga44871402f8ef778c0f87249bcc18dca4" target="_top" xlink:title="Invoked whenever the active configuration of device is changed by the host. ">
<polygon fill="white" stroke="black" points="182.5,-327.5 182.5,-357.5 342.5,-357.5 342.5,-327.5 182.5,-327.5"/>
<text text-anchor="start" x="190.5" y="-345.5" font-family="Helvetica,sans-Serif" font-size="10.00">AUDDSpeakerPhoneDriver</text>
<text text-anchor="middle" x="262.5" y="-334.5" font-family="Helvetica,sans-Serif" font-size="10.00">_ConfigurationChangeHandler</text>
</a>
</g>
</g>
<!-- Node1284&#45;&gt;Node1287 -->
<g id="edge3" class="edge"><title>Node1284&#45;&gt;Node1287</title>
<path fill="none" stroke="midnightblue" d="M82.7865,-240.139C101.049,-261.538 134.678,-297.255 171,-317.5 177.834,-321.309 185.287,-324.569 192.887,-327.351"/>
<polygon fill="midnightblue" stroke="midnightblue" points="85.2426,-237.62 76.1464,-232.188 79.8696,-242.107 85.2426,-237.62"/>
</g>
<!-- Node1288 -->
<g id="node5" class="node"><title>Node1288</title>
<g id="a_node5"><a xlink:href="group__usbd__interface.xhtml#ga02b4d22818a9e99025383bbc5a2507d7" target="_top" xlink:title="Indicates if the device is running in high or full&#45;speed. ">
<polygon fill="white" stroke="red" points="207.5,-289 207.5,-308 317.5,-308 317.5,-289 207.5,-289"/>
<text text-anchor="middle" x="262.5" y="-296" font-family="Helvetica,sans-Serif" font-size="10.00">USBD_IsHighSpeed</text>
</a>
</g>
</g>
<!-- Node1284&#45;&gt;Node1288 -->
<g id="edge4" class="edge"><title>Node1284&#45;&gt;Node1288</title>
<path fill="none" stroke="midnightblue" d="M90.9004,-237.561C111.053,-250.463 141.885,-268.633 171,-279.5 182.431,-283.767 195.051,-287.174 207.147,-289.857"/>
<polygon fill="midnightblue" stroke="midnightblue" points="92.7267,-234.574 82.437,-232.049 88.9063,-240.439 92.7267,-234.574"/>
</g>
<!-- Node1315 -->
<g id="node6" class="node"><title>Node1315</title>
<g id="a_node6"><a xlink:href="group__usbd__interface.xhtml#ga9a20011d336dec2bd5feb197f0da1c80" target="_top" xlink:title="Configures the device by setting it into the Configured state and initializing all endpoints...">
<polygon fill="white" stroke="red" points="214,-251 214,-270 311,-270 311,-251 214,-251"/>
<text text-anchor="middle" x="262.5" y="-258" font-family="Helvetica,sans-Serif" font-size="10.00">SetConfiguration</text>
</a>
</g>
</g>
<!-- Node1284&#45;&gt;Node1315 -->
<g id="edge5" class="edge"><title>Node1284&#45;&gt;Node1315</title>
<path fill="none" stroke="midnightblue" d="M127.179,-234.053C154.925,-239.516 187.626,-245.955 213.815,-251.111"/>
<polygon fill="midnightblue" stroke="midnightblue" points="127.69,-230.587 117.202,-232.089 126.338,-237.455 127.69,-230.587"/>
</g>
<!-- Node1316 -->
<g id="node7" class="node"><title>Node1316</title>
<g id="a_node7"><a xlink:href="group__usbd__interface.xhtml#gadbb4c8a840d3ff539be6fa5fa9f4a4e0" target="_top" xlink:title="Sends the requested USB descriptor to the host if available, or STALLs the request. ">
<polygon fill="white" stroke="red" points="221,-213 221,-232 304,-232 304,-213 221,-213"/>
<text text-anchor="middle" x="262.5" y="-220" font-family="Helvetica,sans-Serif" font-size="10.00">GetDescriptor</text>
</a>
</g>
</g>
<!-- Node1284&#45;&gt;Node1316 -->
<g id="edge6" class="edge"><title>Node1284&#45;&gt;Node1316</title>
<path fill="none" stroke="midnightblue" d="M145.366,-222.5C171.228,-222.5 199.054,-222.5 220.983,-222.5"/>
<polygon fill="midnightblue" stroke="midnightblue" points="145.19,-219 135.19,-222.5 145.19,-226 145.19,-219"/>
</g>
<!-- Node1317 -->
<g id="node8" class="node"><title>Node1317</title>
<g id="a_node8"><a xlink:href="group__usbd__interface.xhtml#gadfce99fba013d30648e7a058c7fa6799" target="_top" xlink:title="Returns configuration descriptor list. ">
<polygon fill="white" stroke="red" points="179,-175 179,-194 346,-194 346,-175 179,-175"/>
<text text-anchor="middle" x="262.5" y="-182" font-family="Helvetica,sans-Serif" font-size="10.00">USBDDriver_GetCfgDescriptors</text>
</a>
</g>
</g>
<!-- Node1284&#45;&gt;Node1317 -->
<g id="edge7" class="edge"><title>Node1284&#45;&gt;Node1317</title>
<path fill="none" stroke="midnightblue" d="M127.102,-210.962C154.629,-205.542 187.048,-199.159 213.148,-194.02"/>
<polygon fill="midnightblue" stroke="midnightblue" points="126.338,-207.545 117.202,-212.911 127.69,-214.413 126.338,-207.545"/>
</g>
<!-- Node1298 -->
<g id="node9" class="node"><title>Node1298</title>
<g id="a_node9"><a xlink:href="group__usbd__hal.xhtml#ga571a674fe9f9a1bba6ad08b3b0b28a80" target="_top" xlink:title="USBD (UDP) interrupt handler Manages device resume, suspend, end of bus reset. ">
<polygon fill="white" stroke="black" points="212.5,-137 212.5,-156 312.5,-156 312.5,-137 212.5,-137"/>
<text text-anchor="middle" x="262.5" y="-144" font-family="Helvetica,sans-Serif" font-size="10.00">USBD_IrqHandler</text>
</a>
</g>
</g>
<!-- Node1284&#45;&gt;Node1298 -->
<g id="edge8" class="edge"><title>Node1284&#45;&gt;Node1298</title>
<path fill="none" stroke="midnightblue" d="M90.9004,-207.439C111.053,-194.537 141.885,-176.367 171,-165.5 184.086,-160.616 198.729,-156.857 212.361,-154.023"/>
<polygon fill="midnightblue" stroke="midnightblue" points="88.9063,-204.561 82.437,-212.951 92.7267,-210.426 88.9063,-204.561"/>
</g>
<!-- Node1299 -->
<g id="node10" class="node"><title>Node1299</title>
<g id="a_node10"><a xlink:href="hal__udphs_8c.xhtml#gadf1deb2219e27bcf29d2598d4aa04c1d" target="_top" xlink:title="Reads incoming data on an USB endpoint This methods sets the transfer descriptor and activate the end...">
<polygon fill="white" stroke="black" points="390,-118 390,-137 470,-137 470,-118 390,-118"/>
<text text-anchor="middle" x="430" y="-125" font-family="Helvetica,sans-Serif" font-size="10.00">UDPHS_Read</text>
</a>
</g>
</g>
<!-- Node1284&#45;&gt;Node1299 -->
<g id="edge10" class="edge"><title>Node1284&#45;&gt;Node1299</title>
<path fill="none" stroke="midnightblue" d="M80.9787,-204.562C98.1646,-181.613 131.517,-142.983 171,-127.5 243.975,-98.8829 337.743,-109.391 389.775,-118.905"/>
<polygon fill="midnightblue" stroke="midnightblue" points="78.0546,-202.632 75.0129,-212.781 83.7196,-206.744 78.0546,-202.632"/>
</g>
<!-- Node1329 -->
<g id="node11" class="node"><title>Node1329</title>
<g id="a_node11"><a xlink:href="group__usbd__hid__key.xhtml#ga7147c21b165fd52ac5769ac948cf659a" target="_top" xlink:title="Handles configureation changed event. ">
<polygon fill="white" stroke="black" points="179.5,-49.5 179.5,-79.5 345.5,-79.5 345.5,-49.5 179.5,-49.5"/>
<text text-anchor="start" x="187.5" y="-67.5" font-family="Helvetica,sans-Serif" font-size="10.00">HIDDKeyboardDriver</text>
<text text-anchor="middle" x="262.5" y="-56.5" font-family="Helvetica,sans-Serif" font-size="10.00">_ConfigurationChangedHandler</text>
</a>
</g>
</g>
<!-- Node1284&#45;&gt;Node1329 -->
<g id="edge11" class="edge"><title>Node1284&#45;&gt;Node1329</title>
<path fill="none" stroke="midnightblue" d="M78.6632,-203.872C94.72,-176.123 128.54,-124.04 171,-94.5 179.696,-88.4501 189.701,-83.5501 199.815,-79.6032"/>
<polygon fill="midnightblue" stroke="midnightblue" points="75.4314,-202.477 73.5682,-212.907 81.5288,-205.916 75.4314,-202.477"/>
</g>
<!-- Node1330 -->
<g id="node12" class="node"><title>Node1330</title>
<g id="a_node12"><a xlink:href="group__usbd__hid__tran.xhtml#gaa42cac9f13dfb2f99d409b11e84050e6" target="_top" xlink:title="Handles configureation changed event. ">
<polygon fill="white" stroke="black" points="179.5,-0.5 179.5,-30.5 345.5,-30.5 345.5,-0.5 179.5,-0.5"/>
<text text-anchor="start" x="187.5" y="-18.5" font-family="Helvetica,sans-Serif" font-size="10.00">HIDDTransferDriver</text>
<text text-anchor="middle" x="262.5" y="-7.5" font-family="Helvetica,sans-Serif" font-size="10.00">_ConfigurationChangedHandler</text>
</a>
</g>
</g>
<!-- Node1284&#45;&gt;Node1330 -->
<g id="edge12" class="edge"><title>Node1284&#45;&gt;Node1330</title>
<path fill="none" stroke="midnightblue" d="M73.897,-203.193C85.3364,-165.896 115.622,-83.8086 171,-40.5 175.879,-36.6842 181.304,-33.4504 187.005,-30.7098"/>
<polygon fill="midnightblue" stroke="midnightblue" points="70.5212,-202.267 71.0543,-212.848 77.2362,-204.244 70.5212,-202.267"/>
</g>
<!-- Node1298&#45;&gt;Node1299 -->
<g id="edge9" class="edge"><title>Node1298&#45;&gt;Node1299</title>
<path fill="none" stroke="midnightblue" d="M322.768,-139.696C345.101,-137.132 369.923,-134.282 389.953,-131.983"/>
<polygon fill="midnightblue" stroke="midnightblue" points="322.243,-136.233 312.707,-140.851 323.041,-143.187 322.243,-136.233"/>
</g>
</g>
</svg>
