<?xml version="1.0" encoding="UTF-8" standalone="no"?>
<!DOCTYPE svg PUBLIC "-//W3C//DTD SVG 1.1//EN"
 "http://www.w3.org/Graphics/SVG/1.1/DTD/svg11.dtd">
<!-- Generated by graphviz version 2.38.0 (20140413.2041)
 -->
<!-- Title: _MciDMAPrepare Pages: 1 -->
<svg width="277pt" height="142pt"
 viewBox="0.00 0.00 277.00 142.00" xmlns="http://www.w3.org/2000/svg" xmlns:xlink="http://www.w3.org/1999/xlink">
<g id="graph0" class="graph" transform="scale(1 1) rotate(0) translate(4 138)">
<title>_MciDMAPrepare</title>
<polygon fill="white" stroke="none" points="-4,4 -4,-138 273,-138 273,4 -4,4"/>
<!-- Node9 -->
<g id="node1" class="node"><title>Node9</title>
<polygon fill="#bfbfbf" stroke="black" points="0,-57.5 0,-76.5 98,-76.5 98,-57.5 0,-57.5"/>
<text text-anchor="middle" x="49" y="-64.5" font-family="Helvetica,sans-Serif" font-size="10.00">_MciDMAPrepare</text>
</g>
<!-- Node10 -->
<g id="node2" class="node"><title>Node10</title>
<g id="a_node2"><a xlink:href="group__dmad__functions.xhtml#ga0b94c48d2200e3be27ea16cfd1207912" target="_top" xlink:title="Allocate a XDMA channel for upper layer. ">
<polygon fill="white" stroke="red" points="134,-114.5 134,-133.5 269,-133.5 269,-114.5 134,-114.5"/>
<text text-anchor="middle" x="201.5" y="-121.5" font-family="Helvetica,sans-Serif" font-size="10.00">XDMAD_AllocateChannel</text>
</a>
</g>
</g>
<!-- Node9&#45;&gt;Node10 -->
<g id="edge1" class="edge"><title>Node9&#45;&gt;Node10</title>
<path fill="none" stroke="midnightblue" d="M69.0168,-76.5707C85.8282,-84.7962 111.159,-96.6217 134,-105 140.362,-107.334 147.151,-109.562 153.869,-111.617"/>
<polygon fill="midnightblue" stroke="midnightblue" points="153.022,-115.017 163.604,-114.498 155.008,-108.304 153.022,-115.017"/>
</g>
<!-- Node15 -->
<g id="node3" class="node"><title>Node15</title>
<g id="a_node3"><a xlink:href="group__dmad__functions.xhtml#gaa0af49f87c84aaa20bee1f055d31ad2d" target="_top" xlink:title="Set the callback function for xDMA channel transfer. ">
<polygon fill="white" stroke="black" points="144.5,-76.5 144.5,-95.5 258.5,-95.5 258.5,-76.5 144.5,-76.5"/>
<text text-anchor="middle" x="201.5" y="-83.5" font-family="Helvetica,sans-Serif" font-size="10.00">XDMAD_SetCallback</text>
</a>
</g>
</g>
<!-- Node9&#45;&gt;Node15 -->
<g id="edge2" class="edge"><title>Node9&#45;&gt;Node15</title>
<path fill="none" stroke="midnightblue" d="M98.0329,-73.064C109.525,-74.5148 121.997,-76.0893 134.153,-77.624"/>
<polygon fill="midnightblue" stroke="midnightblue" points="133.903,-81.1201 144.263,-78.9003 134.78,-74.1753 133.903,-81.1201"/>
</g>
<!-- Node16 -->
<g id="node4" class="node"><title>Node16</title>
<g id="a_node4"><a xlink:href="group__mcid__functions.xhtml#ga1385fba752fa1979cd553e33c91115d7" target="_top" xlink:title="hsmci_callback">
<polygon fill="white" stroke="red" points="157,-38.5 157,-57.5 246,-57.5 246,-38.5 157,-38.5"/>
<text text-anchor="middle" x="201.5" y="-45.5" font-family="Helvetica,sans-Serif" font-size="10.00">hsmci_callback</text>
</a>
</g>
</g>
<!-- Node9&#45;&gt;Node16 -->
<g id="edge3" class="edge"><title>Node9&#45;&gt;Node16</title>
<path fill="none" stroke="midnightblue" d="M98.0329,-60.936C113.558,-58.9761 130.869,-56.7906 146.778,-54.7822"/>
<polygon fill="midnightblue" stroke="midnightblue" points="147.515,-58.217 156.998,-53.492 146.638,-51.2722 147.515,-58.217"/>
</g>
<!-- Node20 -->
<g id="node5" class="node"><title>Node20</title>
<g id="a_node5"><a xlink:href="group__dmad__functions.xhtml#ga2a7947467c04eb39abee2471d846ee35" target="_top" xlink:title="Enable clock of the xDMA peripheral, Enable the dma peripheral, configure configuration register for ...">
<polygon fill="white" stroke="red" points="134.5,-0.5 134.5,-19.5 268.5,-19.5 268.5,-0.5 134.5,-0.5"/>
<text text-anchor="middle" x="201.5" y="-7.5" font-family="Helvetica,sans-Serif" font-size="10.00">XDMAD_PrepareChannel</text>
</a>
</g>
</g>
<!-- Node9&#45;&gt;Node20 -->
<g id="edge4" class="edge"><title>Node9&#45;&gt;Node20</title>
<path fill="none" stroke="midnightblue" d="M69.0168,-57.4293C85.8282,-49.2038 111.159,-37.3783 134,-29 140.362,-26.6664 147.151,-24.4383 153.869,-22.3825"/>
<polygon fill="midnightblue" stroke="midnightblue" points="155.008,-25.6956 163.604,-19.5018 153.022,-18.9833 155.008,-25.6956"/>
</g>
</g>
</svg>
