<?xml version="1.0" encoding="UTF-8" standalone="no"?>
<!DOCTYPE svg PUBLIC "-//W3C//DTD SVG 1.1//EN"
 "http://www.w3.org/Graphics/SVG/1.1/DTD/svg11.dtd">
<!-- Generated by graphviz version 2.38.0 (20140413.2041)
 -->
<!-- Title: CDCHIDDDriver_Initialize Pages: 1 -->
<svg width="307pt" height="180pt"
 viewBox="0.00 0.00 307.00 180.00" xmlns="http://www.w3.org/2000/svg" xmlns:xlink="http://www.w3.org/1999/xlink">
<g id="graph0" class="graph" transform="scale(1 1) rotate(0) translate(4 176)">
<title>CDCHIDDDriver_Initialize</title>
<polygon fill="white" stroke="none" points="-4,4 -4,-176 303,-176 303,4 -4,4"/>
<!-- Node29 -->
<g id="node1" class="node"><title>Node29</title>
<polygon fill="#bfbfbf" stroke="black" points="0,-76.5 0,-95.5 134,-95.5 134,-76.5 0,-76.5"/>
<text text-anchor="middle" x="67" y="-83.5" font-family="Helvetica,sans-Serif" font-size="10.00">CDCHIDDDriver_Initialize</text>
</g>
<!-- Node30 -->
<g id="node2" class="node"><title>Node30</title>
<g id="a_node2"><a xlink:href="group__usbd__interface.xhtml#ga01ba3ff549b968edc152cdb23c2027d1" target="_top" xlink:title="Return USBDDriver instance pointer for global usage. ">
<polygon fill="white" stroke="black" points="186.5,-152.5 186.5,-171.5 282.5,-171.5 282.5,-152.5 186.5,-152.5"/>
<text text-anchor="middle" x="234.5" y="-159.5" font-family="Helvetica,sans-Serif" font-size="10.00">USBD_GetDriver</text>
</a>
</g>
</g>
<!-- Node29&#45;&gt;Node30 -->
<g id="edge1" class="edge"><title>Node29&#45;&gt;Node30</title>
<path fill="none" stroke="midnightblue" d="M82.6852,-95.5656C102.053,-107.858 137.491,-129.249 170,-143 175.432,-145.297 181.233,-147.437 187.039,-149.389"/>
<polygon fill="midnightblue" stroke="midnightblue" points="186.159,-152.782 196.75,-152.492 188.29,-146.114 186.159,-152.782"/>
</g>
<!-- Node31 -->
<g id="node3" class="node"><title>Node31</title>
<g id="a_node3"><a xlink:href="group__usbd__interface.xhtml#ga11868145aba27b8ca63ab6395439cb0d" target="_top" xlink:title="Initializes a USBDDriver instance with a list of descriptors. ">
<polygon fill="white" stroke="black" points="176,-114.5 176,-133.5 293,-133.5 293,-114.5 176,-114.5"/>
<text text-anchor="middle" x="234.5" y="-121.5" font-family="Helvetica,sans-Serif" font-size="10.00">USBDDriver_Initialize</text>
</a>
</g>
</g>
<!-- Node29&#45;&gt;Node31 -->
<g id="edge2" class="edge"><title>Node29&#45;&gt;Node31</title>
<path fill="none" stroke="midnightblue" d="M109.763,-95.589C131.701,-100.626 158.78,-106.844 182.008,-112.177"/>
<polygon fill="midnightblue" stroke="midnightblue" points="181.508,-115.653 192.038,-114.48 183.075,-108.831 181.508,-115.653"/>
</g>
<!-- Node32 -->
<g id="node4" class="node"><title>Node32</title>
<g id="a_node4"><a xlink:href="group__usbd__cdc.xhtml#ga61ffa29ba9dde8fb06537dec89b665c4" target="_top" xlink:title="Initializes the USB Device CDC serial driver &amp; USBD Driver. ">
<polygon fill="white" stroke="red" points="176.5,-76.5 176.5,-95.5 292.5,-95.5 292.5,-76.5 176.5,-76.5"/>
<text text-anchor="middle" x="234.5" y="-83.5" font-family="Helvetica,sans-Serif" font-size="10.00">CDCDSerial_Initialize</text>
</a>
</g>
</g>
<!-- Node29&#45;&gt;Node32 -->
<g id="edge3" class="edge"><title>Node29&#45;&gt;Node32</title>
<path fill="none" stroke="midnightblue" d="M134.362,-86C144.925,-86 155.859,-86 166.438,-86"/>
<polygon fill="midnightblue" stroke="midnightblue" points="166.448,-89.5001 176.448,-86 166.448,-82.5001 166.448,-89.5001"/>
</g>
<!-- Node38 -->
<g id="node5" class="node"><title>Node38</title>
<g id="a_node5"><a xlink:href="group__usbd__hid__key.xhtml#ga56ad6774014b879f9a4828e528508cbf" target="_top" xlink:title="Initializes the HID keyboard device driver SW. ">
<polygon fill="white" stroke="red" points="170,-38.5 170,-57.5 299,-57.5 299,-38.5 170,-38.5"/>
<text text-anchor="middle" x="234.5" y="-45.5" font-family="Helvetica,sans-Serif" font-size="10.00">HIDDKeyboard_Initialize</text>
</a>
</g>
</g>
<!-- Node29&#45;&gt;Node38 -->
<g id="edge4" class="edge"><title>Node29&#45;&gt;Node38</title>
<path fill="none" stroke="midnightblue" d="M109.763,-76.411C131.701,-71.3739 158.78,-65.1562 182.008,-59.8229"/>
<polygon fill="midnightblue" stroke="midnightblue" points="183.075,-63.1692 192.038,-57.5201 181.508,-56.3467 183.075,-63.1692"/>
</g>
<!-- Node43 -->
<g id="node6" class="node"><title>Node43</title>
<g id="a_node6"><a xlink:href="group__usbd__interface.xhtml#ga1fd3982402055e37aa879c199e0b7fee" target="_top" xlink:title="Initializes the USB driver. ">
<polygon fill="white" stroke="red" points="202,-0.5 202,-19.5 267,-19.5 267,-0.5 202,-0.5"/>
<text text-anchor="middle" x="234.5" y="-7.5" font-family="Helvetica,sans-Serif" font-size="10.00">USBD_Init</text>
</a>
</g>
</g>
<!-- Node29&#45;&gt;Node43 -->
<g id="edge5" class="edge"><title>Node29&#45;&gt;Node43</title>
<path fill="none" stroke="midnightblue" d="M82.6852,-76.4344C102.053,-64.1416 137.491,-42.7507 170,-29 177.001,-26.0389 184.616,-23.3409 192.063,-20.9673"/>
<polygon fill="midnightblue" stroke="midnightblue" points="193.142,-24.2977 201.69,-18.0392 191.105,-17.6007 193.142,-24.2977"/>
</g>
</g>
</svg>
