<?xml version="1.0" encoding="UTF-8" standalone="no"?>
<!DOCTYPE svg PUBLIC "-//W3C//DTD SVG 1.1//EN"
 "http://www.w3.org/Graphics/SVG/1.1/DTD/svg11.dtd">
<!-- Generated by graphviz version 2.38.0 (20140413.2041)
 -->
<!-- Title: USBD_HAL_Connect Pages: 1 -->
<svg width="375pt" height="85pt"
 viewBox="0.00 0.00 375.00 85.00" xmlns="http://www.w3.org/2000/svg" xmlns:xlink="http://www.w3.org/1999/xlink">
<g id="graph0" class="graph" transform="scale(1 1) rotate(0) translate(4 81)">
<title>USBD_HAL_Connect</title>
<polygon fill="white" stroke="none" points="-4,4 -4,-81 371,-81 371,4 -4,4"/>
<!-- Node1175 -->
<g id="node1" class="node"><title>Node1175</title>
<polygon fill="#bfbfbf" stroke="black" points="0,-19.5 0,-38.5 115,-38.5 115,-19.5 0,-19.5"/>
<text text-anchor="middle" x="57.5" y="-26.5" font-family="Helvetica,sans-Serif" font-size="10.00">USBD_HAL_Connect</text>
</g>
<!-- Node1176 -->
<g id="node2" class="node"><title>Node1176</title>
<g id="a_node2"><a xlink:href="group__usbd__interface.xhtml#ga71b9264662d74666e4b058984e3346e5" target="_top" xlink:title="Connects the pull&#45;up on the D+ line of the USB. ">
<polygon fill="white" stroke="red" points="156,-57.5 156,-76.5 246,-76.5 246,-57.5 156,-57.5"/>
<text text-anchor="middle" x="201" y="-64.5" font-family="Helvetica,sans-Serif" font-size="10.00">USBD_Connect</text>
</a>
</g>
</g>
<!-- Node1175&#45;&gt;Node1176 -->
<g id="edge1" class="edge"><title>Node1175&#45;&gt;Node1176</title>
<path fill="none" stroke="midnightblue" d="M104.101,-41.2462C123.605,-46.484 146.04,-52.5091 164.305,-57.4141"/>
<polygon fill="midnightblue" stroke="midnightblue" points="104.772,-37.8025 94.2064,-38.589 102.956,-44.5629 104.772,-37.8025"/>
</g>
<!-- Node1183 -->
<g id="node3" class="node"><title>Node1183</title>
<g id="a_node3"><a xlink:href="group__usbd__hal.xhtml#ga571a674fe9f9a1bba6ad08b3b0b28a80" target="_top" xlink:title="USBD (UDP) interrupt handler Manages device resume, suspend, end of bus reset. ">
<polygon fill="white" stroke="black" points="151,-19.5 151,-38.5 251,-38.5 251,-19.5 151,-19.5"/>
<text text-anchor="middle" x="201" y="-26.5" font-family="Helvetica,sans-Serif" font-size="10.00">USBD_IrqHandler</text>
</a>
</g>
</g>
<!-- Node1175&#45;&gt;Node1183 -->
<g id="edge2" class="edge"><title>Node1175&#45;&gt;Node1183</title>
<path fill="none" stroke="midnightblue" d="M125.327,-29C133.978,-29 142.708,-29 150.997,-29"/>
<polygon fill="midnightblue" stroke="midnightblue" points="125.238,-25.5001 115.238,-29 125.238,-32.5001 125.238,-25.5001"/>
</g>
<!-- Node1184 -->
<g id="node4" class="node"><title>Node1184</title>
<g id="a_node4"><a xlink:href="hal__udphs_8c.xhtml#gadf1deb2219e27bcf29d2598d4aa04c1d" target="_top" xlink:title="Reads incoming data on an USB endpoint This methods sets the transfer descriptor and activate the end...">
<polygon fill="white" stroke="black" points="287,-0.5 287,-19.5 367,-19.5 367,-0.5 287,-0.5"/>
<text text-anchor="middle" x="327" y="-7.5" font-family="Helvetica,sans-Serif" font-size="10.00">UDPHS_Read</text>
</a>
</g>
</g>
<!-- Node1175&#45;&gt;Node1184 -->
<g id="edge4" class="edge"><title>Node1175&#45;&gt;Node1184</title>
<path fill="none" stroke="midnightblue" d="M106.164,-17.2883C120.486,-14.2911 136.3,-11.4941 151,-10 197.548,-5.26875 251.422,-6.22978 286.962,-7.74671"/>
<polygon fill="midnightblue" stroke="midnightblue" points="105.065,-13.9456 96.0369,-19.4905 106.552,-20.7857 105.065,-13.9456"/>
</g>
<!-- Node1183&#45;&gt;Node1184 -->
<g id="edge3" class="edge"><title>Node1183&#45;&gt;Node1184</title>
<path fill="none" stroke="midnightblue" d="M260.894,-19.976C269.715,-18.6243 278.621,-17.2598 286.893,-15.9922"/>
<polygon fill="midnightblue" stroke="midnightblue" points="260.363,-16.5164 251.008,-21.4907 261.423,-23.4357 260.363,-16.5164"/>
</g>
</g>
</svg>
