<?xml version="1.0" encoding="UTF-8" standalone="no"?>
<!DOCTYPE svg PUBLIC "-//W3C//DTD SVG 1.1//EN"
 "http://www.w3.org/Graphics/SVG/1.1/DTD/svg11.dtd">
<!-- Generated by graphviz version 2.38.0 (20140413.2041)
 -->
<!-- Title: Defines and Type Definitions Pages: 1 -->
<svg width="336pt" height="519pt"
 viewBox="0.00 0.00 336.00 519.00" xmlns="http://www.w3.org/2000/svg" xmlns:xlink="http://www.w3.org/1999/xlink">
<g id="graph0" class="graph" transform="scale(1 1) rotate(0) translate(4 515)">
<title>Defines and Type Definitions</title>
<polygon fill="white" stroke="none" points="-4,4 -4,-515 332,-515 332,4 -4,4"/>
<!-- Node11 -->
<g id="node1" class="node"><title>Node11</title>
<g id="a_node1"><a xlink:href="group___c_m_s_i_s___t_p_i.xhtml" target="_top" xlink:title="Type definitions for the Trace Port Interface (TPI) ">
<polygon fill="white" stroke="black" points="203,-480.5 203,-510.5 312,-510.5 312,-480.5 203,-480.5"/>
<text text-anchor="start" x="211" y="-498.5" font-family="Helvetica,sans-Serif" font-size="10.00">Trace Port Interface</text>
<text text-anchor="middle" x="257.5" y="-487.5" font-family="Helvetica,sans-Serif" font-size="10.00"> (TPI)</text>
</a>
</g>
</g>
<!-- Node1 -->
<g id="node2" class="node"><title>Node1</title>
<g id="a_node2"><a xlink:href="group___c_m_s_i_s___c_o_r_e.xhtml" target="_top" xlink:title="Core Register type definitions. ">
<polygon fill="white" stroke="black" points="204,-431.5 204,-461.5 311,-461.5 311,-431.5 204,-431.5"/>
<text text-anchor="start" x="212" y="-449.5" font-family="Helvetica,sans-Serif" font-size="10.00">Status and Control</text>
<text text-anchor="middle" x="257.5" y="-438.5" font-family="Helvetica,sans-Serif" font-size="10.00"> Registers</text>
</a>
</g>
</g>
<!-- Node7 -->
<g id="node3" class="node"><title>Node7</title>
<g id="a_node3"><a xlink:href="group___c_m_s_i_s__core__base.xhtml" target="_top" xlink:title="Definitions for base addresses, unions, and structures. ">
<polygon fill="white" stroke="black" points="211.5,-393 211.5,-412 303.5,-412 303.5,-393 211.5,-393"/>
<text text-anchor="middle" x="257.5" y="-400" font-family="Helvetica,sans-Serif" font-size="10.00">Core Definitions</text>
</a>
</g>
</g>
<!-- Node4 -->
<g id="node4" class="node"><title>Node4</title>
<g id="a_node4"><a xlink:href="group___c_m_s_i_s___sys_tick.xhtml" target="_top" xlink:title="Type definitions for the System Timer Registers. ">
<polygon fill="white" stroke="black" points="204,-343.5 204,-373.5 311,-373.5 311,-343.5 204,-343.5"/>
<text text-anchor="start" x="212" y="-361.5" font-family="Helvetica,sans-Serif" font-size="10.00">System Tick Timer </text>
<text text-anchor="middle" x="257.5" y="-350.5" font-family="Helvetica,sans-Serif" font-size="10.00">(SysTick)</text>
</a>
</g>
</g>
<!-- Node2 -->
<g id="node5" class="node"><title>Node2</title>
<g id="a_node5"><a xlink:href="group___c_m_s_i_s___n_v_i_c.xhtml" target="_top" xlink:title="Type definitions for the NVIC Registers. ">
<polygon fill="white" stroke="black" points="187,-294.5 187,-324.5 328,-324.5 328,-294.5 187,-294.5"/>
<text text-anchor="start" x="195" y="-312.5" font-family="Helvetica,sans-Serif" font-size="10.00">Nested Vectored Interrupt</text>
<text text-anchor="middle" x="257.5" y="-301.5" font-family="Helvetica,sans-Serif" font-size="10.00"> Controller (NVIC)</text>
</a>
</g>
</g>
<!-- Node8 -->
<g id="node6" class="node"><title>Node8</title>
<g id="a_node6"><a xlink:href="group___c_m_s_i_s___s_cn_s_c_b.xhtml" target="_top" xlink:title="Type definitions for the System Control and ID Register not in the SCB. ">
<polygon fill="white" stroke="black" points="200,-245.5 200,-275.5 315,-275.5 315,-245.5 200,-245.5"/>
<text text-anchor="start" x="208" y="-263.5" font-family="Helvetica,sans-Serif" font-size="10.00">System Controls not</text>
<text text-anchor="middle" x="257.5" y="-252.5" font-family="Helvetica,sans-Serif" font-size="10.00"> in SCB (SCnSCB)</text>
</a>
</g>
</g>
<!-- Node3 -->
<g id="node7" class="node"><title>Node3</title>
<g id="a_node7"><a xlink:href="group___c_m_s_i_s___s_c_b.xhtml" target="_top" xlink:title="Type definitions for the System Control Block Registers. ">
<polygon fill="white" stroke="black" points="198,-196.5 198,-226.5 317,-226.5 317,-196.5 198,-196.5"/>
<text text-anchor="start" x="206" y="-214.5" font-family="Helvetica,sans-Serif" font-size="10.00">System Control Block</text>
<text text-anchor="middle" x="257.5" y="-203.5" font-family="Helvetica,sans-Serif" font-size="10.00"> (SCB)</text>
</a>
</g>
</g>
<!-- Node10 -->
<g id="node8" class="node"><title>Node10</title>
<g id="a_node8"><a xlink:href="group___c_m_s_i_s___d_w_t.xhtml" target="_top" xlink:title="Type definitions for the Data Watchpoint and Trace (DWT) ">
<polygon fill="white" stroke="black" points="199.5,-147.5 199.5,-177.5 315.5,-177.5 315.5,-147.5 199.5,-147.5"/>
<text text-anchor="start" x="207.5" y="-165.5" font-family="Helvetica,sans-Serif" font-size="10.00">Data Watchpoint and</text>
<text text-anchor="middle" x="257.5" y="-154.5" font-family="Helvetica,sans-Serif" font-size="10.00"> Trace (DWT)</text>
</a>
</g>
</g>
<!-- Node5 -->
<g id="node9" class="node"><title>Node5</title>
<g id="a_node9"><a xlink:href="group___c_m_s_i_s___core_debug.xhtml" target="_top" xlink:title="Cortex&#45;M0 Core Debug Registers (DCB registers, SHCSR, and DFSR) are only accessible over DAP and not ...">
<polygon fill="white" stroke="black" points="197.5,-98.5 197.5,-128.5 317.5,-128.5 317.5,-98.5 197.5,-98.5"/>
<text text-anchor="start" x="205.5" y="-116.5" font-family="Helvetica,sans-Serif" font-size="10.00">Core Debug Registers</text>
<text text-anchor="middle" x="257.5" y="-105.5" font-family="Helvetica,sans-Serif" font-size="10.00"> (CoreDebug)</text>
</a>
</g>
</g>
<!-- Node9 -->
<g id="node10" class="node"><title>Node9</title>
<g id="a_node10"><a xlink:href="group___c_m_s_i_s___i_t_m.xhtml" target="_top" xlink:title="Type definitions for the Instrumentation Trace Macrocell (ITM) ">
<polygon fill="white" stroke="black" points="197,-49.5 197,-79.5 318,-79.5 318,-49.5 197,-49.5"/>
<text text-anchor="start" x="205" y="-67.5" font-family="Helvetica,sans-Serif" font-size="10.00">Instrumentation Trace</text>
<text text-anchor="middle" x="257.5" y="-56.5" font-family="Helvetica,sans-Serif" font-size="10.00"> Macrocell (ITM)</text>
</a>
</g>
</g>
<!-- Node0 -->
<g id="node11" class="node"><title>Node0</title>
<polygon fill="#bfbfbf" stroke="black" points="0,-251 0,-270 151,-270 151,-251 0,-251"/>
<text text-anchor="middle" x="75.5" y="-258" font-family="Helvetica,sans-Serif" font-size="10.00">Defines and Type Definitions</text>
</g>
<!-- Node0&#45;&gt;Node11 -->
<g id="edge11" class="edge"><title>Node0&#45;&gt;Node11</title>
<path fill="none" stroke="black" d="M81.4123,-279.95C92.8195,-321.221 124.976,-418.142 187,-471.5 191.742,-475.579 197.214,-478.976 202.965,-481.803"/>
<polygon fill="black" stroke="black" points="84.7402,-278.845 78.791,-270.078 77.9746,-280.641 84.7402,-278.845"/>
</g>
<!-- Node0&#45;&gt;Node1 -->
<g id="edge1" class="edge"><title>Node0&#45;&gt;Node1</title>
<path fill="none" stroke="black" d="M84.7017,-279.506C100.033,-312.894 136.144,-382.25 187,-421.5 192.076,-425.417 197.82,-428.758 203.778,-431.598"/>
<polygon fill="black" stroke="black" points="87.7359,-277.717 80.462,-270.013 81.3444,-280.571 87.7359,-277.717"/>
</g>
<!-- Node0&#45;&gt;Node7 -->
<g id="edge7" class="edge"><title>Node0&#45;&gt;Node7</title>
<path fill="none" stroke="black" d="M87.8363,-278.696C105.613,-305.699 142.639,-356.126 187,-383.5 194.345,-388.032 202.78,-391.502 211.183,-394.152"/>
<polygon fill="black" stroke="black" points="90.724,-276.716 82.3709,-270.198 84.8365,-280.502 90.724,-276.716"/>
</g>
<!-- Node0&#45;&gt;Node4 -->
<g id="edge4" class="edge"><title>Node0&#45;&gt;Node4</title>
<path fill="none" stroke="black" d="M96.4697,-276.191C117.892,-292.454 153.383,-317.79 187,-334.5 193.516,-337.739 200.575,-340.725 207.614,-343.411"/>
<polygon fill="black" stroke="black" points="98.5191,-273.352 88.4579,-270.032 94.2527,-278.901 98.5191,-273.352"/>
</g>
<!-- Node0&#45;&gt;Node2 -->
<g id="edge2" class="edge"><title>Node0&#45;&gt;Node2</title>
<path fill="none" stroke="black" d="M121.601,-272.778C145.758,-279.354 175.718,-287.509 201.262,-294.463"/>
<polygon fill="black" stroke="black" points="122.201,-269.314 111.633,-270.064 120.363,-276.068 122.201,-269.314"/>
</g>
<!-- Node0&#45;&gt;Node8 -->
<g id="edge8" class="edge"><title>Node0&#45;&gt;Node8</title>
<path fill="none" stroke="black" d="M161.041,-260.5C174.219,-260.5 187.555,-260.5 199.911,-260.5"/>
<polygon fill="black" stroke="black" points="161.012,-257 151.012,-260.5 161.012,-264 161.012,-257"/>
</g>
<!-- Node0&#45;&gt;Node3 -->
<g id="edge3" class="edge"><title>Node0&#45;&gt;Node3</title>
<path fill="none" stroke="black" d="M121.601,-248.222C145.758,-241.646 175.718,-233.491 201.262,-226.537"/>
<polygon fill="black" stroke="black" points="120.363,-244.932 111.633,-250.936 122.201,-251.686 120.363,-244.932"/>
</g>
<!-- Node0&#45;&gt;Node10 -->
<g id="edge10" class="edge"><title>Node0&#45;&gt;Node10</title>
<path fill="none" stroke="black" d="M96.897,-244.868C118.418,-228.902 153.758,-204.159 187,-187.5 194.222,-183.881 202.099,-180.529 209.87,-177.532"/>
<polygon fill="black" stroke="black" points="94.7266,-242.12 88.8301,-250.923 98.9289,-247.719 94.7266,-242.12"/>
</g>
<!-- Node0&#45;&gt;Node5 -->
<g id="edge5" class="edge"><title>Node0&#45;&gt;Node5</title>
<path fill="none" stroke="black" d="M88.4215,-242.499C106.705,-216.185 144.094,-167.232 187,-138.5 192.647,-134.719 198.935,-131.431 205.356,-128.596"/>
<polygon fill="black" stroke="black" points="85.5096,-240.557 82.7733,-250.792 91.2952,-244.497 85.5096,-240.557"/>
</g>
<!-- Node0&#45;&gt;Node9 -->
<g id="edge9" class="edge"><title>Node0&#45;&gt;Node9</title>
<path fill="none" stroke="black" d="M83.9789,-241.267C98.5618,-206.181 134.073,-131.535 187,-89.5 191.82,-85.6721 197.276,-82.4007 202.959,-79.6118"/>
<polygon fill="black" stroke="black" points="80.626,-240.223 80.1289,-250.806 87.1173,-242.843 80.626,-240.223"/>
</g>
<!-- Node6 -->
<g id="node12" class="node"><title>Node6</title>
<g id="a_node12"><a xlink:href="group___c_m_s_i_s__core__bitfield.xhtml" target="_top" xlink:title="Macros for use with bit field definitions (xxx_Pos, xxx_Msk). ">
<polygon fill="white" stroke="black" points="199.5,-0.5 199.5,-30.5 315.5,-30.5 315.5,-0.5 199.5,-0.5"/>
<text text-anchor="start" x="207.5" y="-18.5" font-family="Helvetica,sans-Serif" font-size="10.00">Core register bit field</text>
<text text-anchor="middle" x="257.5" y="-7.5" font-family="Helvetica,sans-Serif" font-size="10.00"> macros</text>
</a>
</g>
</g>
<!-- Node0&#45;&gt;Node6 -->
<g id="edge6" class="edge"><title>Node0&#45;&gt;Node6</title>
<path fill="none" stroke="black" d="M81.0777,-240.838C91.9804,-198.261 123.449,-96.8394 187,-40.5 191.318,-36.6722 196.265,-33.4176 201.487,-30.653"/>
<polygon fill="black" stroke="black" points="77.6785,-240.004 78.6904,-250.551 84.4762,-241.675 77.6785,-240.004"/>
</g>
</g>
</svg>
