<?xml version="1.0" encoding="UTF-8" standalone="no"?>
<!DOCTYPE svg PUBLIC "-//W3C//DTD SVG 1.1//EN"
 "http://www.w3.org/Graphics/SVG/1.1/DTD/svg11.dtd">
<!-- Generated by graphviz version 2.38.0 (20140413.2041)
 -->
<!-- Title: USBD_SuspendHandler Pages: 1 -->
<svg width="390pt" height="85pt"
 viewBox="0.00 0.00 390.00 85.00" xmlns="http://www.w3.org/2000/svg" xmlns:xlink="http://www.w3.org/1999/xlink">
<g id="graph0" class="graph" transform="scale(1 1) rotate(0) translate(4 81)">
<title>USBD_SuspendHandler</title>
<polygon fill="white" stroke="none" points="-4,4 -4,-81 386,-81 386,4 -4,4"/>
<!-- Node986 -->
<g id="node1" class="node"><title>Node986</title>
<polygon fill="#bfbfbf" stroke="black" points="0,-19.5 0,-38.5 130,-38.5 130,-19.5 0,-19.5"/>
<text text-anchor="middle" x="65" y="-26.5" font-family="Helvetica,sans-Serif" font-size="10.00">USBD_SuspendHandler</text>
</g>
<!-- Node987 -->
<g id="node2" class="node"><title>Node987</title>
<g id="a_node2"><a xlink:href="group__usbd__hal.xhtml#gafcd12a00544aac7645deb694ec611e7a" target="_top" xlink:title="USBD (UDP) interrupt handler Manages device resume, suspend, end of bus reset. ">
<polygon fill="white" stroke="black" points="168.5,-57.5 168.5,-76.5 263.5,-76.5 263.5,-57.5 168.5,-57.5"/>
<text text-anchor="middle" x="216" y="-64.5" font-family="Helvetica,sans-Serif" font-size="10.00">USBHS_Handler</text>
</a>
</g>
</g>
<!-- Node986&#45;&gt;Node987 -->
<g id="edge1" class="edge"><title>Node986&#45;&gt;Node987</title>
<path fill="none" stroke="midnightblue" d="M113.492,-41.1121C134.244,-46.4044 158.228,-52.5213 177.671,-57.4799"/>
<polygon fill="midnightblue" stroke="midnightblue" points="114.154,-37.6689 103.599,-38.589 112.424,-44.4518 114.154,-37.6689"/>
</g>
<!-- Node988 -->
<g id="node3" class="node"><title>Node988</title>
<g id="a_node3"><a xlink:href="group__usbd__hal.xhtml#ga571a674fe9f9a1bba6ad08b3b0b28a80" target="_top" xlink:title="USBD (UDP) interrupt handler Manages device resume, suspend, end of bus reset. ">
<polygon fill="white" stroke="black" points="166,-19.5 166,-38.5 266,-38.5 266,-19.5 166,-19.5"/>
<text text-anchor="middle" x="216" y="-26.5" font-family="Helvetica,sans-Serif" font-size="10.00">USBD_IrqHandler</text>
</a>
</g>
</g>
<!-- Node986&#45;&gt;Node988 -->
<g id="edge2" class="edge"><title>Node986&#45;&gt;Node988</title>
<path fill="none" stroke="midnightblue" d="M140.229,-29C148.922,-29 157.621,-29 165.851,-29"/>
<polygon fill="midnightblue" stroke="midnightblue" points="140.054,-25.5001 130.054,-29 140.054,-32.5001 140.054,-25.5001"/>
</g>
<!-- Node989 -->
<g id="node4" class="node"><title>Node989</title>
<g id="a_node4"><a xlink:href="hal__udphs_8c.xhtml#gadf1deb2219e27bcf29d2598d4aa04c1d" target="_top" xlink:title="Reads incoming data on an USB endpoint This methods sets the transfer descriptor and activate the end...">
<polygon fill="white" stroke="black" points="302,-0.5 302,-19.5 382,-19.5 382,-0.5 302,-0.5"/>
<text text-anchor="middle" x="342" y="-7.5" font-family="Helvetica,sans-Serif" font-size="10.00">UDPHS_Read</text>
</a>
</g>
</g>
<!-- Node986&#45;&gt;Node989 -->
<g id="edge4" class="edge"><title>Node986&#45;&gt;Node989</title>
<path fill="none" stroke="midnightblue" d="M116.673,-17.4618C132.394,-14.3987 149.836,-11.522 166,-10 212.582,-5.61393 266.449,-6.50485 301.979,-7.9111"/>
<polygon fill="midnightblue" stroke="midnightblue" points="115.732,-14.081 106.622,-19.4892 117.116,-20.9428 115.732,-14.081"/>
</g>
<!-- Node988&#45;&gt;Node989 -->
<g id="edge3" class="edge"><title>Node988&#45;&gt;Node989</title>
<path fill="none" stroke="midnightblue" d="M275.894,-19.976C284.715,-18.6243 293.621,-17.2598 301.893,-15.9922"/>
<polygon fill="midnightblue" stroke="midnightblue" points="275.363,-16.5164 266.008,-21.4907 276.423,-23.4357 275.363,-16.5164"/>
</g>
</g>
</svg>
