<?xml version="1.0" encoding="UTF-8" standalone="no"?>
<!DOCTYPE svg PUBLIC "-//W3C//DTD SVG 1.1//EN"
 "http://www.w3.org/Graphics/SVG/1.1/DTD/svg11.dtd">
<!-- Generated by graphviz version 2.38.0 (20140413.2041)
 -->
<!-- Title: XDMAD_Handler Pages: 1 -->
<svg width="267pt" height="66pt"
 viewBox="0.00 0.00 267.00 66.00" xmlns="http://www.w3.org/2000/svg" xmlns:xlink="http://www.w3.org/1999/xlink">
<g id="graph0" class="graph" transform="scale(1 1) rotate(0) translate(4 62)">
<title>XDMAD_Handler</title>
<polygon fill="white" stroke="none" points="-4,4 -4,-62 263,-62 263,4 -4,4"/>
<!-- Node227 -->
<g id="node1" class="node"><title>Node227</title>
<polygon fill="#bfbfbf" stroke="black" points="0,-19.5 0,-38.5 95,-38.5 95,-19.5 0,-19.5"/>
<text text-anchor="middle" x="47.5" y="-26.5" font-family="Helvetica,sans-Serif" font-size="10.00">XDMAD_Handler</text>
</g>
<!-- Node228 -->
<g id="node2" class="node"><title>Node228</title>
<g id="a_node2"><a xlink:href="group___s_a_m_e70_j19__cmsis.xhtml#ga88c1075bc215ea5317bf13013abdd805" target="_top" xlink:title="XDMA handler. ">
<polygon fill="white" stroke="black" points="147.5,-38.5 147.5,-57.5 242.5,-57.5 242.5,-38.5 147.5,-38.5"/>
<text text-anchor="middle" x="195" y="-45.5" font-family="Helvetica,sans-Serif" font-size="10.00">XDMAC_Handler</text>
</a>
</g>
</g>
<!-- Node227&#45;&gt;Node228 -->
<g id="edge1" class="edge"><title>Node227&#45;&gt;Node228</title>
<path fill="none" stroke="midnightblue" d="M105.28,-36.4145C119.174,-38.2289 133.886,-40.15 147.25,-41.8952"/>
<polygon fill="midnightblue" stroke="midnightblue" points="105.707,-32.9407 95.338,-35.1163 104.801,-39.8818 105.707,-32.9407"/>
</g>
<!-- Node229 -->
<g id="node3" class="node"><title>Node229</title>
<g id="a_node3"><a xlink:href="group__dmad__functions.xhtml#ga85abf366b35d0d2903f8bbc69b4da242" target="_top" xlink:title="Check if DMA transfer is finished. ">
<polygon fill="white" stroke="red" points="131,-0.5 131,-19.5 259,-19.5 259,-0.5 131,-0.5"/>
<text text-anchor="middle" x="195" y="-7.5" font-family="Helvetica,sans-Serif" font-size="10.00">XDMAD_IsTransferDone</text>
</a>
</g>
</g>
<!-- Node227&#45;&gt;Node229 -->
<g id="edge2" class="edge"><title>Node227&#45;&gt;Node229</title>
<path fill="none" stroke="midnightblue" d="M105.345,-21.577C113.693,-20.4868 122.336,-19.3582 130.803,-18.2525"/>
<polygon fill="midnightblue" stroke="midnightblue" points="104.801,-18.1182 95.338,-22.8837 105.707,-25.0593 104.801,-18.1182"/>
</g>
</g>
</svg>
