<?xml version="1.0" encoding="UTF-8" standalone="no"?>
<!DOCTYPE svg PUBLIC "-//W3C//DTD SVG 1.1//EN"
 "http://www.w3.org/Graphics/SVG/1.1/DTD/svg11.dtd">
<!-- Generated by graphviz version 2.38.0 (20140413.2041)
 -->
<!-- Title: USBGenericRequest_GetRequest Pages: 1 -->
<svg width="608pt" height="375pt"
 viewBox="0.00 0.00 608.00 374.54" xmlns="http://www.w3.org/2000/svg" xmlns:xlink="http://www.w3.org/1999/xlink">
<g id="graph0" class="graph" transform="scale(1 1) rotate(0) translate(4 370.543)">
<title>USBGenericRequest_GetRequest</title>
<polygon fill="white" stroke="none" points="-4,4 -4,-370.543 604,-370.543 604,4 -4,4"/>
<!-- Node197 -->
<g id="node1" class="node"><title>Node197</title>
<polygon fill="#bfbfbf" stroke="black" points="0,-171.5 0,-190.5 173,-190.5 173,-171.5 0,-171.5"/>
<text text-anchor="middle" x="86.5" y="-178.5" font-family="Helvetica,sans-Serif" font-size="10.00">USBGenericRequest_GetRequest</text>
</g>
<!-- Node198 -->
<g id="node2" class="node"><title>Node198</title>
<g id="a_node2"><a xlink:href="group__usbd__audio__speaker.xhtml#ga2b7fde84b4a6cc4bfe50ca02a01c5bb5" target="_top" xlink:title="Handles audio&#45;specific USB requests sent by the host, and forwards standard ones to the USB device dr...">
<polygon fill="white" stroke="black" points="430,-305 430,-335 588,-335 588,-305 430,-305"/>
<text text-anchor="start" x="438" y="-323" font-family="Helvetica,sans-Serif" font-size="10.00">AUDDSpeakerDriver_Request</text>
<text text-anchor="middle" x="509" y="-312" font-family="Helvetica,sans-Serif" font-size="10.00">Handler</text>
</a>
</g>
</g>
<!-- Node197&#45;&gt;Node198 -->
<g id="edge1" class="edge"><title>Node197&#45;&gt;Node198</title>
<path fill="none" stroke="midnightblue" d="M94.867,-200.345C109.899,-236.683 147.936,-314.243 209,-345 294.602,-388.116 411.615,-356.338 470.664,-335.052"/>
<polygon fill="midnightblue" stroke="midnightblue" points="98.0448,-198.865 91.088,-190.874 91.5432,-201.459 98.0448,-198.865"/>
</g>
<!-- Node199 -->
<g id="node3" class="node"><title>Node199</title>
<g id="a_node3"><a xlink:href="group__usbd__audio__speakerphone.xhtml#ga17c8f0de49847c1c6fcd8f2ca0ffad64" target="_top" xlink:title="Handles audio&#45;specific USB requests sent by the host, and forwards standard ones to the USB device dr...">
<polygon fill="white" stroke="black" points="437,-249 437,-279 581,-279 581,-249 437,-249"/>
<text text-anchor="start" x="445" y="-267" font-family="Helvetica,sans-Serif" font-size="10.00">AUDDSpeakerPhoneDriver</text>
<text text-anchor="middle" x="509" y="-256" font-family="Helvetica,sans-Serif" font-size="10.00">_RequestHandler</text>
</a>
</g>
</g>
<!-- Node197&#45;&gt;Node199 -->
<g id="edge2" class="edge"><title>Node197&#45;&gt;Node199</title>
<path fill="none" stroke="midnightblue" d="M112.491,-195.614C136.41,-208.839 173.936,-227.636 209,-237 285.038,-257.307 375.401,-263.052 436.736,-264.348"/>
<polygon fill="midnightblue" stroke="midnightblue" points="114.154,-192.533 103.723,-190.677 110.719,-198.633 114.154,-192.533"/>
</g>
<!-- Node200 -->
<g id="node4" class="node"><title>Node200</title>
<g id="a_node4"><a xlink:href="group__usbd__audio__speakerphone.xhtml#gad7ef8cec21e04288200d14b5d1960ee6" target="_top" xlink:title="Handles audio&#45;specific USB requests sent by the host. ">
<polygon fill="white" stroke="red" points="216,-305 216,-335 375,-335 375,-305 216,-305"/>
<text text-anchor="start" x="224" y="-323" font-family="Helvetica,sans-Serif" font-size="10.00">AUDDSpeakerPhone_Request</text>
<text text-anchor="middle" x="295.5" y="-312" font-family="Helvetica,sans-Serif" font-size="10.00">Handler</text>
</a>
</g>
</g>
<!-- Node197&#45;&gt;Node200 -->
<g id="edge3" class="edge"><title>Node197&#45;&gt;Node200</title>
<path fill="none" stroke="midnightblue" d="M102.371,-198.032C123.801,-221.643 165.587,-264.31 209,-290 218.883,-295.848 230.082,-300.801 241.043,-304.892"/>
<polygon fill="midnightblue" stroke="midnightblue" points="104.943,-195.658 95.67,-190.534 99.7237,-200.322 104.943,-195.658"/>
</g>
<!-- Node204 -->
<g id="node5" class="node"><title>Node204</title>
<g id="a_node5"><a xlink:href="group__usbd__ccid.xhtml#gaa3679fa7dec59d63fc8951434967b5b8" target="_top" xlink:title="SETUP request handler for a CCID device. ">
<polygon fill="white" stroke="red" points="448.5,-197.5 448.5,-216.5 569.5,-216.5 569.5,-197.5 448.5,-197.5"/>
<text text-anchor="middle" x="509" y="-204.5" font-family="Helvetica,sans-Serif" font-size="10.00">CCID_RequestHandler</text>
</a>
</g>
</g>
<!-- Node197&#45;&gt;Node204 -->
<g id="edge5" class="edge"><title>Node197&#45;&gt;Node204</title>
<path fill="none" stroke="midnightblue" d="M120.12,-194.171C144.224,-203.166 178.084,-214.278 209,-219 291.298,-231.569 387.725,-223.7 448.344,-216.056"/>
<polygon fill="midnightblue" stroke="midnightblue" points="121.336,-190.889 110.745,-190.596 118.842,-197.429 121.336,-190.889"/>
</g>
<!-- Node212 -->
<g id="node6" class="node"><title>Node212</title>
<g id="a_node6"><a xlink:href="group__usbd__cdc.xhtml#ga22689d00e906f48f9d99ae975b6a0ebb" target="_top" xlink:title="Handles CDC&#45;specific SETUP requests. ">
<polygon fill="white" stroke="red" points="212.5,-0.5 212.5,-19.5 378.5,-19.5 378.5,-0.5 212.5,-0.5"/>
<text text-anchor="middle" x="295.5" y="-7.5" font-family="Helvetica,sans-Serif" font-size="10.00">CDCDEEMPort_RequestHandler</text>
</a>
</g>
</g>
<!-- Node197&#45;&gt;Node212 -->
<g id="edge6" class="edge"><title>Node197&#45;&gt;Node212</title>
<path fill="none" stroke="midnightblue" d="M97.7108,-162.424C115.894,-131.103 156.913,-67.8931 209,-34 218.692,-27.6934 230.043,-23.0222 241.25,-19.5693"/>
<polygon fill="midnightblue" stroke="midnightblue" points="94.5119,-160.97 92.6246,-171.396 100.601,-164.423 94.5119,-160.97"/>
</g>
<!-- Node215 -->
<g id="node7" class="node"><title>Node215</title>
<g id="a_node7"><a xlink:href="group__usbd__cdc.xhtml#gafccee3269ed6e338919f108286973e40" target="_top" xlink:title="Handles CDC&#45;specific SETUP requests. ">
<polygon fill="white" stroke="red" points="209,-114.5 209,-133.5 382,-133.5 382,-114.5 209,-114.5"/>
<text text-anchor="middle" x="295.5" y="-121.5" font-family="Helvetica,sans-Serif" font-size="10.00">CDCDSerialPort_RequestHandler</text>
</a>
</g>
</g>
<!-- Node197&#45;&gt;Node215 -->
<g id="edge7" class="edge"><title>Node197&#45;&gt;Node215</title>
<path fill="none" stroke="midnightblue" d="M131.988,-168.75C170.233,-158.219 224.622,-143.242 259.74,-133.572"/>
<polygon fill="midnightblue" stroke="midnightblue" points="130.859,-165.43 122.147,-171.459 132.718,-172.179 130.859,-165.43"/>
</g>
<!-- Node220 -->
<g id="node8" class="node"><title>Node220</title>
<g id="a_node8"><a xlink:href="group__usbd__composite__cdccdc.xhtml#ga9ba1f9929b5a8da6905543152693e5a4" target="_top" xlink:title="Handles composite&#45;specific USB requests sent by the host, and forwards standard ones to the USB devic...">
<polygon fill="white" stroke="black" points="418,-152.5 418,-171.5 600,-171.5 600,-152.5 418,-152.5"/>
<text text-anchor="middle" x="509" y="-159.5" font-family="Helvetica,sans-Serif" font-size="10.00">DUALCDCDDriver_RequestHandler</text>
</a>
</g>
</g>
<!-- Node197&#45;&gt;Node220 -->
<g id="edge9" class="edge"><title>Node197&#45;&gt;Node220</title>
<path fill="none" stroke="midnightblue" d="M183.304,-176.671C253.711,-173.49 348.744,-169.196 417.796,-166.076"/>
<polygon fill="midnightblue" stroke="midnightblue" points="182.933,-173.184 173.101,-177.132 183.249,-180.177 182.933,-173.184"/>
</g>
<!-- Node221 -->
<g id="node9" class="node"><title>Node221</title>
<g id="a_node9"><a xlink:href="group__usbd__interface.xhtml#gaae0893893739fb365d088ea946cb2c89" target="_top" xlink:title="Handles the given request if it is standard, otherwise STALLs it. ">
<polygon fill="white" stroke="red" points="218,-190.5 218,-209.5 373,-209.5 373,-190.5 218,-190.5"/>
<text text-anchor="middle" x="295.5" y="-197.5" font-family="Helvetica,sans-Serif" font-size="10.00">USBDDriver_RequestHandler</text>
</a>
</g>
</g>
<!-- Node197&#45;&gt;Node221 -->
<g id="edge10" class="edge"><title>Node197&#45;&gt;Node221</title>
<path fill="none" stroke="midnightblue" d="M183.306,-189.794C194.873,-190.855 206.569,-191.929 217.811,-192.961"/>
<polygon fill="midnightblue" stroke="midnightblue" points="183.467,-186.294 173.189,-188.865 182.827,-193.265 183.467,-186.294"/>
</g>
<!-- Node226 -->
<g id="node10" class="node"><title>Node226</title>
<g id="a_node10"><a xlink:href="group__usbd__hid__tran.xhtml#ga7339bf87c3b8556a76557ac341318265" target="_top" xlink:title="Handles HID&#45;specific SETUP request sent by the host. ">
<polygon fill="white" stroke="black" points="455.5,-97 455.5,-127 562.5,-127 562.5,-97 455.5,-97"/>
<text text-anchor="start" x="463.5" y="-115" font-family="Helvetica,sans-Serif" font-size="10.00">HIDDTransferDriver</text>
<text text-anchor="middle" x="509" y="-104" font-family="Helvetica,sans-Serif" font-size="10.00">_RequestHandler</text>
</a>
</g>
</g>
<!-- Node197&#45;&gt;Node226 -->
<g id="edge17" class="edge"><title>Node197&#45;&gt;Node226</title>
<path fill="none" stroke="midnightblue" d="M105.911,-164.772C128.407,-146.132 168.497,-116.624 209,-105 292.598,-81.0077 394.803,-91.4083 455.478,-101.467"/>
<polygon fill="midnightblue" stroke="midnightblue" points="103.549,-162.187 98.1868,-171.325 108.077,-167.525 103.549,-162.187"/>
</g>
<!-- Node228 -->
<g id="node11" class="node"><title>Node228</title>
<g id="a_node11"><a xlink:href="group__usbd__msd.xhtml#gaa87efba32c907fa095c6f8797d2580db" target="_top" xlink:title="Handler for incoming SETUP requests on default Control endpoint 0. ">
<polygon fill="white" stroke="red" points="429,-45.5 429,-64.5 589,-64.5 589,-45.5 429,-45.5"/>
<text text-anchor="middle" x="509" y="-52.5" font-family="Helvetica,sans-Serif" font-size="10.00">MSDFunction_RequestHandler</text>
</a>
</g>
</g>
<!-- Node197&#45;&gt;Node228 -->
<g id="edge18" class="edge"><title>Node197&#45;&gt;Node228</title>
<path fill="none" stroke="midnightblue" d="M103.123,-164.126C124.612,-142.145 165.59,-104.467 209,-87 279.712,-58.548 367.019,-52.1408 428.994,-51.8878"/>
<polygon fill="midnightblue" stroke="midnightblue" points="100.502,-161.802 96.1192,-171.448 105.561,-166.641 100.502,-161.802"/>
</g>
<!-- Node200&#45;&gt;Node198 -->
<g id="edge4" class="edge"><title>Node200&#45;&gt;Node198</title>
<path fill="none" stroke="midnightblue" d="M385.398,-320C400.174,-320 415.401,-320 429.884,-320"/>
<polygon fill="midnightblue" stroke="midnightblue" points="385.255,-316.5 375.255,-320 385.255,-323.5 385.255,-316.5"/>
</g>
<!-- Node215&#45;&gt;Node220 -->
<g id="edge8" class="edge"><title>Node215&#45;&gt;Node220</title>
<path fill="none" stroke="midnightblue" d="M359.655,-135.347C390,-140.799 425.964,-147.261 454.881,-152.456"/>
<polygon fill="midnightblue" stroke="midnightblue" points="360.059,-131.864 349.597,-133.54 358.821,-138.753 360.059,-131.864"/>
</g>
<!-- Node221&#45;&gt;Node198 -->
<g id="edge11" class="edge"><title>Node221&#45;&gt;Node198</title>
<path fill="none" stroke="midnightblue" d="M314.987,-216.322C337.838,-235.814 378.555,-268.366 418,-289 429.715,-295.128 442.897,-300.453 455.485,-304.879"/>
<polygon fill="midnightblue" stroke="midnightblue" points="316.998,-213.434 307.144,-209.543 312.421,-218.73 316.998,-213.434"/>
</g>
<!-- Node221&#45;&gt;Node199 -->
<g id="edge12" class="edge"><title>Node221&#45;&gt;Node199</title>
<path fill="none" stroke="midnightblue" d="M337.935,-212.538C372.477,-222.991 421.779,-237.91 458.414,-248.995"/>
<polygon fill="midnightblue" stroke="midnightblue" points="338.749,-209.128 328.164,-209.581 336.721,-215.828 338.749,-209.128"/>
</g>
<!-- Node221&#45;&gt;Node204 -->
<g id="edge13" class="edge"><title>Node221&#45;&gt;Node204</title>
<path fill="none" stroke="midnightblue" d="M383.403,-202.876C405.178,-203.597 428.055,-204.354 448.178,-205.02"/>
<polygon fill="midnightblue" stroke="midnightblue" points="383.266,-199.37 373.155,-202.537 383.034,-206.366 383.266,-199.37"/>
</g>
<!-- Node221&#45;&gt;Node220 -->
<g id="edge14" class="edge"><title>Node221&#45;&gt;Node220</title>
<path fill="none" stroke="midnightblue" d="M359.655,-188.653C390,-183.201 425.964,-176.739 454.881,-171.544"/>
<polygon fill="midnightblue" stroke="midnightblue" points="358.821,-185.247 349.597,-190.46 360.059,-192.136 358.821,-185.247"/>
</g>
<!-- Node221&#45;&gt;Node226 -->
<g id="edge15" class="edge"><title>Node221&#45;&gt;Node226</title>
<path fill="none" stroke="midnightblue" d="M324.19,-185.973C348.575,-173.87 385.213,-156.293 418,-143 431.784,-137.412 446.999,-131.921 460.936,-127.15"/>
<polygon fill="midnightblue" stroke="midnightblue" points="322.546,-182.881 315.164,-190.48 325.674,-189.144 322.546,-182.881"/>
</g>
<!-- Node221&#45;&gt;Node228 -->
<g id="edge16" class="edge"><title>Node221&#45;&gt;Node228</title>
<path fill="none" stroke="midnightblue" d="M324.271,-185.435C342.124,-175.171 365.063,-160.222 382,-143 402.747,-121.904 394.818,-105.386 418,-87 431.123,-76.592 447.9,-69.4156 463.405,-64.5409"/>
<polygon fill="midnightblue" stroke="midnightblue" points="322.478,-182.427 315.457,-190.362 325.893,-188.537 322.478,-182.427"/>
</g>
</g>
</svg>
