<?xml version="1.0" encoding="UTF-8" standalone="no"?>
<!DOCTYPE svg PUBLIC "-//W3C//DTD SVG 1.1//EN"
 "http://www.w3.org/Graphics/SVG/1.1/DTD/svg11.dtd">
<!-- Generated by graphviz version 2.38.0 (20140413.2041)
 -->
<!-- Title: USBH_HAL_GetFrameNum Pages: 1 -->
<svg width="445pt" height="118pt"
 viewBox="0.00 0.00 445.00 118.17" xmlns="http://www.w3.org/2000/svg" xmlns:xlink="http://www.w3.org/1999/xlink">
<g id="graph0" class="graph" transform="scale(1 1) rotate(0) translate(4 114.169)">
<title>USBH_HAL_GetFrameNum</title>
<polygon fill="white" stroke="none" points="-4,4 -4,-114.169 441,-114.169 441,4 -4,4"/>
<!-- Node374 -->
<g id="node1" class="node"><title>Node374</title>
<polygon fill="#bfbfbf" stroke="black" points="0,-33.6693 0,-52.6693 146,-52.6693 146,-33.6693 0,-33.6693"/>
<text text-anchor="middle" x="73" y="-40.6693" font-family="Helvetica,sans-Serif" font-size="10.00">USBH_HAL_GetFrameNum</text>
</g>
<!-- Node375 -->
<g id="node2" class="node"><title>Node375</title>
<g id="a_node2"><a xlink:href="group__uhi__cdc__group__internal.xhtml#gab2e5918509ca2fa9edf6ef88a8dc62ce" target="_top" xlink:title="Update the transfer endpoint IN (RX) Valid the reception of the previous transfer. ">
<polygon fill="white" stroke="red" points="182,-90.6693 182,-109.669 288,-109.669 288,-90.6693 182,-90.6693"/>
<text text-anchor="middle" x="235" y="-97.6693" font-family="Helvetica,sans-Serif" font-size="10.00">uhi_cdc_rx_update</text>
</a>
</g>
</g>
<!-- Node374&#45;&gt;Node375 -->
<g id="edge1" class="edge"><title>Node374&#45;&gt;Node375</title>
<path fill="none" stroke="midnightblue" d="M110.29,-56.0978C139.73,-66.5857 180.565,-81.1333 207.132,-90.5977"/>
<polygon fill="midnightblue" stroke="midnightblue" points="111.375,-52.7688 100.78,-52.7098 109.026,-59.3628 111.375,-52.7688"/>
</g>
<!-- Node378 -->
<g id="node3" class="node"><title>Node378</title>
<g id="a_node3"><a xlink:href="group__uhi__cdc__group__internal.xhtml#ga5bfc8e7c676500af3faadcf847e13c81" target="_top" xlink:title="Manage the end of RX transfer. ">
<polygon fill="white" stroke="black" points="324,-90.6693 324,-109.669 437,-109.669 437,-90.6693 324,-90.6693"/>
<text text-anchor="middle" x="380.5" y="-97.6693" font-family="Helvetica,sans-Serif" font-size="10.00">uhi_cdc_rx_received</text>
</a>
</g>
</g>
<!-- Node374&#45;&gt;Node378 -->
<g id="edge4" class="edge"><title>Node374&#45;&gt;Node378</title>
<path fill="none" stroke="midnightblue" d="M140.306,-54.4329C182.621,-61.747 238.603,-71.6571 288,-81.1693 303.294,-84.1145 319.985,-87.5227 334.874,-90.6324"/>
<polygon fill="midnightblue" stroke="midnightblue" points="140.853,-50.9755 130.404,-52.7254 139.663,-57.8737 140.853,-50.9755"/>
</g>
<!-- Node381 -->
<g id="node4" class="node"><title>Node381</title>
<g id="a_node4"><a xlink:href="group__uhi__cdc__group__internal.xhtml#ga19464aec764d1d849bd81da0a1f70a0e" target="_top" xlink:title="Update the transfer endpoint OUT (TX) Start a new transfer on endpoint OUT, if a data must be send an...">
<polygon fill="white" stroke="red" points="182,-14.6693 182,-33.6693 288,-33.6693 288,-14.6693 182,-14.6693"/>
<text text-anchor="middle" x="235" y="-21.6693" font-family="Helvetica,sans-Serif" font-size="10.00">uhi_cdc_tx_update</text>
</a>
</g>
</g>
<!-- Node374&#45;&gt;Node381 -->
<g id="edge5" class="edge"><title>Node374&#45;&gt;Node381</title>
<path fill="none" stroke="midnightblue" d="M156.009,-33.4307C164.844,-32.3816 173.647,-31.3363 181.985,-30.3461"/>
<polygon fill="midnightblue" stroke="midnightblue" points="155.56,-29.9593 146.043,-34.6142 156.386,-36.9105 155.56,-29.9593"/>
</g>
<!-- Node382 -->
<g id="node5" class="node"><title>Node382</title>
<g id="a_node5"><a xlink:href="group__uhi__cdc__group__internal.xhtml#ga2d752930f3947081262a5ac64f05ac41" target="_top" xlink:title="Manage the end of TX transfer. ">
<polygon fill="white" stroke="black" points="333,-14.6693 333,-33.6693 428,-33.6693 428,-14.6693 333,-14.6693"/>
<text text-anchor="middle" x="380.5" y="-21.6693" font-family="Helvetica,sans-Serif" font-size="10.00">uhi_cdc_tx_send</text>
</a>
</g>
</g>
<!-- Node374&#45;&gt;Node382 -->
<g id="edge8" class="edge"><title>Node374&#45;&gt;Node382</title>
<path fill="none" stroke="midnightblue" d="M103.996,-29.525C125.271,-20.6222 154.768,-9.82038 182,-5.16931 228.439,2.76213 241.136,-0.354953 288,-5.16931 306.076,-7.02626 325.849,-10.8951 342.375,-14.66"/>
<polygon fill="midnightblue" stroke="midnightblue" points="102.357,-26.4196 94.5477,-33.58 105.118,-32.8522 102.357,-26.4196"/>
</g>
<!-- Node375&#45;&gt;Node378 -->
<g id="edge2" class="edge"><title>Node375&#45;&gt;Node378</title>
<path fill="none" stroke="midnightblue" d="M298.371,-93.4708C306.796,-93.3778 315.397,-93.4108 323.698,-93.5698"/>
<polygon fill="midnightblue" stroke="midnightblue" points="298.151,-89.974 288.213,-93.6468 298.272,-96.973 298.151,-89.974"/>
</g>
<!-- Node378&#45;&gt;Node375 -->
<g id="edge3" class="edge"><title>Node378&#45;&gt;Node375</title>
<path fill="none" stroke="midnightblue" d="M313.456,-106.9C304.99,-106.957 296.417,-106.887 288.213,-106.692"/>
<polygon fill="midnightblue" stroke="midnightblue" points="313.744,-110.397 323.698,-106.769 313.654,-103.398 313.744,-110.397"/>
</g>
<!-- Node381&#45;&gt;Node382 -->
<g id="edge6" class="edge"><title>Node381&#45;&gt;Node382</title>
<path fill="none" stroke="midnightblue" d="M298.274,-17.4719C309.857,-17.3426 321.776,-17.4516 332.793,-17.7989"/>
<polygon fill="midnightblue" stroke="midnightblue" points="298.15,-13.9734 288.213,-17.6468 298.272,-20.9724 298.15,-13.9734"/>
</g>
<!-- Node382&#45;&gt;Node381 -->
<g id="edge7" class="edge"><title>Node382&#45;&gt;Node381</title>
<path fill="none" stroke="midnightblue" d="M322.564,-30.7898C311.229,-30.9906 299.379,-30.9579 288.213,-30.6918"/>
<polygon fill="midnightblue" stroke="midnightblue" points="322.882,-34.2831 332.793,-30.5397 322.711,-27.2852 322.882,-34.2831"/>
</g>
</g>
</svg>
