<?xml version="1.0" encoding="UTF-8" standalone="no"?>
<!DOCTYPE svg PUBLIC "-//W3C//DTD SVG 1.1//EN"
 "http://www.w3.org/Graphics/SVG/1.1/DTD/svg11.dtd">
<!-- Generated by graphviz version 2.38.0 (20140413.2041)
 -->
<!-- Title: USBD_HAL_Activate Pages: 1 -->
<svg width="536pt" height="180pt"
 viewBox="0.00 0.00 536.00 180.00" xmlns="http://www.w3.org/2000/svg" xmlns:xlink="http://www.w3.org/1999/xlink">
<g id="graph0" class="graph" transform="scale(1 1) rotate(0) translate(4 176)">
<title>USBD_HAL_Activate</title>
<polygon fill="white" stroke="none" points="-4,4 -4,-176 532,-176 532,4 -4,4"/>
<!-- Node1083 -->
<g id="node1" class="node"><title>Node1083</title>
<polygon fill="#bfbfbf" stroke="black" points="0,-76.5 0,-95.5 114,-95.5 114,-76.5 0,-76.5"/>
<text text-anchor="middle" x="57" y="-83.5" font-family="Helvetica,sans-Serif" font-size="10.00">USBD_HAL_Activate</text>
</g>
<!-- Node1084 -->
<g id="node2" class="node"><title>Node1084</title>
<g id="a_node2"><a xlink:href="group__usbd__interface.xhtml#ga5931e8b51cc0a708c654a2ede474722a" target="_top" xlink:title="Handle the USB resume event, should be invoked whenever HW reports a resume signal. ">
<polygon fill="white" stroke="red" points="150,-152.5 150,-171.5 276,-171.5 276,-152.5 150,-152.5"/>
<text text-anchor="middle" x="213" y="-159.5" font-family="Helvetica,sans-Serif" font-size="10.00">USBD_ResumeHandler</text>
</a>
</g>
</g>
<!-- Node1083&#45;&gt;Node1084 -->
<g id="edge1" class="edge"><title>Node1083&#45;&gt;Node1084</title>
<path fill="none" stroke="midnightblue" d="M81.8137,-100.727C100.096,-111.72 126.165,-126.724 150,-138 161.164,-143.282 173.827,-148.341 184.785,-152.441"/>
<polygon fill="midnightblue" stroke="midnightblue" points="83.627,-97.7335 73.2625,-95.5365 79.9948,-103.717 83.627,-97.7335"/>
</g>
<!-- Node1086 -->
<g id="node3" class="node"><title>Node1086</title>
<g id="a_node3"><a xlink:href="group__usbd__hal.xhtml#ga571a674fe9f9a1bba6ad08b3b0b28a80" target="_top" xlink:title="USBD (UDP) interrupt handler Manages device resume, suspend, end of bus reset. ">
<polygon fill="white" stroke="black" points="312,-114.5 312,-133.5 412,-133.5 412,-114.5 312,-114.5"/>
<text text-anchor="middle" x="362" y="-121.5" font-family="Helvetica,sans-Serif" font-size="10.00">USBD_IrqHandler</text>
</a>
</g>
</g>
<!-- Node1083&#45;&gt;Node1086 -->
<g id="edge9" class="edge"><title>Node1083&#45;&gt;Node1086</title>
<path fill="none" stroke="midnightblue" d="M108.972,-97.6042C122.273,-100.336 136.629,-103.024 150,-105 205.123,-113.147 268.9,-118.305 311.783,-121.159"/>
<polygon fill="midnightblue" stroke="midnightblue" points="109.546,-94.1484 99.0397,-95.5178 108.107,-100.999 109.546,-94.1484"/>
</g>
<!-- Node1087 -->
<g id="node4" class="node"><title>Node1087</title>
<g id="a_node4"><a xlink:href="hal__udphs_8c.xhtml#gadf1deb2219e27bcf29d2598d4aa04c1d" target="_top" xlink:title="Reads incoming data on an USB endpoint This methods sets the transfer descriptor and activate the end...">
<polygon fill="white" stroke="black" points="448,-95.5 448,-114.5 528,-114.5 528,-95.5 448,-95.5"/>
<text text-anchor="middle" x="488" y="-102.5" font-family="Helvetica,sans-Serif" font-size="10.00">UDPHS_Read</text>
</a>
</g>
</g>
<!-- Node1083&#45;&gt;Node1087 -->
<g id="edge10" class="edge"><title>Node1083&#45;&gt;Node1087</title>
<path fill="none" stroke="midnightblue" d="M105.404,-74.2884C119.648,-71.2912 135.377,-68.4942 150,-67 266.249,-55.1214 297.146,-67.473 412,-89 423.647,-91.1829 436.26,-93.7818 447.76,-96.2437"/>
<polygon fill="midnightblue" stroke="midnightblue" points="104.353,-70.9355 95.3311,-76.4906 105.848,-77.7739 104.353,-70.9355"/>
</g>
<!-- Node1088 -->
<g id="node5" class="node"><title>Node1088</title>
<g id="a_node5"><a xlink:href="group__usbd__interface.xhtml#gad1bf93dee935f232cc0acae8cac8f264" target="_top" xlink:title="Handle the USB reset event, should be invoked whenever HW found USB reset signal on bus...">
<polygon fill="white" stroke="red" points="156,-76.5 156,-95.5 270,-95.5 270,-76.5 156,-76.5"/>
<text text-anchor="middle" x="213" y="-83.5" font-family="Helvetica,sans-Serif" font-size="10.00">USBD_ResetHandler</text>
</a>
</g>
</g>
<!-- Node1083&#45;&gt;Node1088 -->
<g id="edge5" class="edge"><title>Node1083&#45;&gt;Node1088</title>
<path fill="none" stroke="midnightblue" d="M124.045,-86C134.605,-86 145.446,-86 155.75,-86"/>
<polygon fill="midnightblue" stroke="midnightblue" points="124.033,-82.5001 114.033,-86 124.033,-89.5001 124.033,-82.5001"/>
</g>
<!-- Node1089 -->
<g id="node6" class="node"><title>Node1089</title>
<g id="a_node6"><a xlink:href="group__usbd__interface.xhtml#gacfd4fed846cba74af43e668e47b6dc10" target="_top" xlink:title="Starts a remote wake&#45;up procedure. ">
<polygon fill="white" stroke="red" points="150.5,-0.5 150.5,-19.5 275.5,-19.5 275.5,-0.5 150.5,-0.5"/>
<text text-anchor="middle" x="213" y="-7.5" font-family="Helvetica,sans-Serif" font-size="10.00">USBD_RemoteWakeUp</text>
</a>
</g>
</g>
<!-- Node1083&#45;&gt;Node1089 -->
<g id="edge8" class="edge"><title>Node1083&#45;&gt;Node1089</title>
<path fill="none" stroke="midnightblue" d="M81.8137,-71.2729C100.096,-60.2805 126.165,-45.2763 150,-34 161.164,-28.7184 173.827,-23.6592 184.785,-19.5591"/>
<polygon fill="midnightblue" stroke="midnightblue" points="79.9948,-68.2826 73.2625,-76.4635 83.627,-74.2665 79.9948,-68.2826"/>
</g>
<!-- Node1084&#45;&gt;Node1086 -->
<g id="edge2" class="edge"><title>Node1084&#45;&gt;Node1086</title>
<path fill="none" stroke="midnightblue" d="M260.855,-149.888C281.328,-144.596 304.99,-138.479 324.172,-133.52"/>
<polygon fill="midnightblue" stroke="midnightblue" points="259.9,-146.52 251.094,-152.411 261.652,-153.297 259.9,-146.52"/>
</g>
<!-- Node1084&#45;&gt;Node1087 -->
<g id="edge4" class="edge"><title>Node1084&#45;&gt;Node1087</title>
<path fill="none" stroke="midnightblue" d="M286.672,-161.481C324.652,-159.604 371.529,-154.739 412,-143 434.15,-136.575 457.528,-123.606 472.18,-114.618"/>
<polygon fill="midnightblue" stroke="midnightblue" points="286.047,-158.005 276.208,-161.934 286.35,-164.998 286.047,-158.005"/>
</g>
<!-- Node1086&#45;&gt;Node1087 -->
<g id="edge3" class="edge"><title>Node1086&#45;&gt;Node1087</title>
<path fill="none" stroke="midnightblue" d="M421.894,-114.976C430.715,-113.624 439.621,-112.26 447.893,-110.992"/>
<polygon fill="midnightblue" stroke="midnightblue" points="421.363,-111.516 412.008,-116.491 422.423,-118.436 421.363,-111.516"/>
</g>
<!-- Node1088&#45;&gt;Node1086 -->
<g id="edge6" class="edge"><title>Node1088&#45;&gt;Node1086</title>
<path fill="none" stroke="midnightblue" d="M260.855,-98.1121C281.328,-103.404 304.99,-109.521 324.172,-114.48"/>
<polygon fill="midnightblue" stroke="midnightblue" points="261.652,-94.7032 251.094,-95.589 259.9,-101.48 261.652,-94.7032"/>
</g>
<!-- Node1088&#45;&gt;Node1087 -->
<g id="edge7" class="edge"><title>Node1088&#45;&gt;Node1087</title>
<path fill="none" stroke="midnightblue" d="M280.435,-90.6237C332.76,-94.2654 403.932,-99.2187 447.604,-102.258"/>
<polygon fill="midnightblue" stroke="midnightblue" points="280.454,-87.1166 270.235,-89.9138 279.968,-94.0997 280.454,-87.1166"/>
</g>
</g>
</svg>
