<?xml version="1.0" encoding="UTF-8" standalone="no"?>
<!DOCTYPE svg PUBLIC "-//W3C//DTD SVG 1.1//EN"
 "http://www.w3.org/Graphics/SVG/1.1/DTD/svg11.dtd">
<!-- Generated by graphviz version 2.38.0 (20140413.2041)
 -->
<!-- Title: SBC_Read10 Pages: 1 -->
<svg width="441pt" height="294pt"
 viewBox="0.00 0.00 441.00 294.00" xmlns="http://www.w3.org/2000/svg" xmlns:xlink="http://www.w3.org/1999/xlink">
<g id="graph0" class="graph" transform="scale(1 1) rotate(0) translate(4 290)">
<title>SBC_Read10</title>
<polygon fill="white" stroke="none" points="-4,4 -4,-290 437,-290 437,4 -4,4"/>
<!-- Node788 -->
<g id="node1" class="node"><title>Node788</title>
<polygon fill="#bfbfbf" stroke="black" points="0,-133.5 0,-152.5 77,-152.5 77,-133.5 0,-133.5"/>
<text text-anchor="middle" x="38.5" y="-140.5" font-family="Helvetica,sans-Serif" font-size="10.00">SBC_Read10</text>
</g>
<!-- Node789 -->
<g id="node2" class="node"><title>Node789</title>
<g id="a_node2"><a xlink:href="group__usbd__msd.xhtml#ga6f8ad39249cd0f7dc9992a7ff44ba164" target="_top" xlink:title="Check if the LUN is ready. ">
<polygon fill="white" stroke="black" points="144.5,-266.5 144.5,-285.5 234.5,-285.5 234.5,-266.5 144.5,-266.5"/>
<text text-anchor="middle" x="189.5" y="-273.5" font-family="Helvetica,sans-Serif" font-size="10.00">SBCLunIsReady</text>
</a>
</g>
</g>
<!-- Node788&#45;&gt;Node789 -->
<g id="edge1" class="edge"><title>Node788&#45;&gt;Node789</title>
<path fill="none" stroke="midnightblue" d="M43.4013,-152.756C52.3956,-174.014 76.6411,-224.779 113,-252 119.497,-256.864 127.01,-260.761 134.726,-263.878"/>
<polygon fill="midnightblue" stroke="midnightblue" points="133.589,-267.189 144.183,-267.306 135.974,-260.608 133.589,-267.189"/>
</g>
<!-- Node790 -->
<g id="node3" class="node"><title>Node790</title>
<g id="a_node3"><a xlink:href="group__usbd__msd.xhtml#ga6259d674a30286b49d79ffa89b44e809" target="_top" xlink:title="Updates the sense data of a LUN with the given key and codes. ">
<polygon fill="white" stroke="black" points="302,-247.5 302,-266.5 433,-266.5 433,-247.5 302,-247.5"/>
<text text-anchor="middle" x="367.5" y="-254.5" font-family="Helvetica,sans-Serif" font-size="10.00">SBC_UpdateSenseData</text>
</a>
</g>
</g>
<!-- Node788&#45;&gt;Node790 -->
<g id="edge7" class="edge"><title>Node788&#45;&gt;Node790</title>
<path fill="none" stroke="midnightblue" d="M45.6302,-152.629C56.7933,-169.263 82.1561,-203.12 113,-219 168.362,-247.503 238.936,-256.2 291.554,-258.227"/>
<polygon fill="midnightblue" stroke="midnightblue" points="291.724,-261.734 301.828,-258.548 291.942,-254.738 291.724,-261.734"/>
</g>
<!-- Node791 -->
<g id="node4" class="node"><title>Node791</title>
<g id="a_node4"><a xlink:href="group__usbd__msd.xhtml#ga5944997ebb6926907d5c9d86e63b9fcf" target="_top" xlink:title="MED_GetBlockSize">
<polygon fill="white" stroke="black" points="136,-190.5 136,-209.5 243,-209.5 243,-190.5 136,-190.5"/>
<text text-anchor="middle" x="189.5" y="-197.5" font-family="Helvetica,sans-Serif" font-size="10.00">MED_GetBlockSize</text>
</a>
</g>
</g>
<!-- Node788&#45;&gt;Node791 -->
<g id="edge3" class="edge"><title>Node788&#45;&gt;Node791</title>
<path fill="none" stroke="midnightblue" d="M55.3532,-152.561C69.9151,-161.008 92.3105,-173.169 113,-181 119.455,-183.443 126.338,-185.668 133.223,-187.664"/>
<polygon fill="midnightblue" stroke="midnightblue" points="132.691,-191.147 143.261,-190.423 134.546,-184.397 132.691,-191.147"/>
</g>
<!-- Node792 -->
<g id="node5" class="node"><title>Node792</title>
<g id="a_node5"><a xlink:href="group__usbd__msd.xhtml#gad18555120a738777ca87a6c6a45fc43b" target="_top" xlink:title="MED_IsMappedRDSupported">
<polygon fill="white" stroke="black" points="113,-152.5 113,-171.5 266,-171.5 266,-152.5 113,-152.5"/>
<text text-anchor="middle" x="189.5" y="-159.5" font-family="Helvetica,sans-Serif" font-size="10.00">MED_IsMappedRDSupported</text>
</a>
</g>
</g>
<!-- Node788&#45;&gt;Node792 -->
<g id="edge4" class="edge"><title>Node788&#45;&gt;Node792</title>
<path fill="none" stroke="midnightblue" d="M77.099,-147.795C85.3294,-148.844 94.3638,-149.996 103.616,-151.176"/>
<polygon fill="midnightblue" stroke="midnightblue" points="103.351,-154.67 113.714,-152.463 104.237,-147.727 103.351,-154.67"/>
</g>
<!-- Node793 -->
<g id="node6" class="node"><title>Node793</title>
<g id="a_node6"><a xlink:href="_s_b_c_methods_8c.xhtml#ga65e2aa51e755428df116ecc89b7aa996" target="_top" xlink:title="This function is to be used as a callback for USB or LUN transfers. ">
<polygon fill="white" stroke="black" points="133,-114.5 133,-133.5 246,-133.5 246,-114.5 133,-114.5"/>
<text text-anchor="middle" x="189.5" y="-121.5" font-family="Helvetica,sans-Serif" font-size="10.00">MSDDriver_Callback</text>
</a>
</g>
</g>
<!-- Node788&#45;&gt;Node793 -->
<g id="edge5" class="edge"><title>Node788&#45;&gt;Node793</title>
<path fill="none" stroke="midnightblue" d="M77.099,-138.205C90.9601,-136.438 107.101,-134.38 122.724,-132.388"/>
<polygon fill="midnightblue" stroke="midnightblue" points="123.409,-135.829 132.885,-131.092 122.523,-128.885 123.409,-135.829"/>
</g>
<!-- Node794 -->
<g id="node7" class="node"><title>Node794</title>
<g id="a_node7"><a xlink:href="group__usbd__msd.xhtml#ga1e7757d9187b0f6cc8ea8d503928b909" target="_top" xlink:title="Reads data from a LUN, starting at the specified block address. ">
<polygon fill="white" stroke="red" points="157,-76.5 157,-95.5 222,-95.5 222,-76.5 157,-76.5"/>
<text text-anchor="middle" x="189.5" y="-83.5" font-family="Helvetica,sans-Serif" font-size="10.00">LUN_Read</text>
</a>
</g>
</g>
<!-- Node788&#45;&gt;Node794 -->
<g id="edge6" class="edge"><title>Node788&#45;&gt;Node794</title>
<path fill="none" stroke="midnightblue" d="M55.3532,-133.439C69.9151,-124.992 92.3105,-112.831 113,-105 123.743,-100.934 135.674,-97.4732 146.82,-94.6646"/>
<polygon fill="midnightblue" stroke="midnightblue" points="147.874,-98.0109 156.778,-92.2697 146.237,-91.2049 147.874,-98.0109"/>
</g>
<!-- Node796 -->
<g id="node8" class="node"><title>Node796</title>
<g id="a_node8"><a xlink:href="group__usbd__msd.xhtml#gafeb7ba2e26fafad5775d2016bb16859b" target="_top" xlink:title="MED_GetMappedAddress">
<polygon fill="white" stroke="black" points="120.5,-38.5 120.5,-57.5 258.5,-57.5 258.5,-38.5 120.5,-38.5"/>
<text text-anchor="middle" x="189.5" y="-45.5" font-family="Helvetica,sans-Serif" font-size="10.00">MED_GetMappedAddress</text>
</a>
</g>
</g>
<!-- Node788&#45;&gt;Node796 -->
<g id="edge8" class="edge"><title>Node788&#45;&gt;Node796</title>
<path fill="none" stroke="midnightblue" d="M45.9796,-133.419C57.4913,-117.165 83.1276,-84.2759 113,-67 116.856,-64.7702 120.97,-62.7996 125.212,-61.0584"/>
<polygon fill="midnightblue" stroke="midnightblue" points="126.465,-64.3267 134.652,-57.6017 124.058,-57.7535 126.465,-64.3267"/>
</g>
<!-- Node797 -->
<g id="node9" class="node"><title>Node797</title>
<g id="a_node9"><a xlink:href="group__usbd__interface.xhtml#gafc4728f4af70056b3a271f333b759592" target="_top" xlink:title="Sends data through a USB endpoint. ">
<polygon fill="white" stroke="red" points="152.5,-0.5 152.5,-19.5 226.5,-19.5 226.5,-0.5 152.5,-0.5"/>
<text text-anchor="middle" x="189.5" y="-7.5" font-family="Helvetica,sans-Serif" font-size="10.00">USBD_Write</text>
</a>
</g>
</g>
<!-- Node788&#45;&gt;Node797 -->
<g id="edge9" class="edge"><title>Node788&#45;&gt;Node797</title>
<path fill="none" stroke="midnightblue" d="M42.8945,-133.296C51.1641,-111.133 74.5412,-56.5918 113,-29 121.655,-22.7903 132.137,-18.6032 142.501,-15.782"/>
<polygon fill="midnightblue" stroke="midnightblue" points="143.401,-19.1659 152.337,-13.4742 141.802,-12.351 143.401,-19.1659"/>
</g>
<!-- Node789&#45;&gt;Node790 -->
<g id="edge2" class="edge"><title>Node789&#45;&gt;Node790</title>
<path fill="none" stroke="midnightblue" d="M234.912,-271.205C252.169,-269.343 272.417,-267.157 291.787,-265.066"/>
<polygon fill="midnightblue" stroke="midnightblue" points="292.249,-268.536 301.815,-263.983 291.497,-261.577 292.249,-268.536"/>
</g>
</g>
</svg>
