<?xml version="1.0" encoding="UTF-8" standalone="no"?>
<!DOCTYPE svg PUBLIC "-//W3C//DTD SVG 1.1//EN"
 "http://www.w3.org/Graphics/SVG/1.1/DTD/svg11.dtd">
<!-- Generated by graphviz version 2.38.0 (20140413.2041)
 -->
<!-- Title: USBH_HAL_DelayedSuspend Pages: 1 -->
<svg width="344pt" height="294pt"
 viewBox="0.00 0.00 344.00 294.00" xmlns="http://www.w3.org/2000/svg" xmlns:xlink="http://www.w3.org/1999/xlink">
<g id="graph0" class="graph" transform="scale(1 1) rotate(0) translate(4 290)">
<title>USBH_HAL_DelayedSuspend</title>
<polygon fill="white" stroke="none" points="-4,4 -4,-290 340,-290 340,4 -4,4"/>
<!-- Node217 -->
<g id="node1" class="node"><title>Node217</title>
<polygon fill="#bfbfbf" stroke="black" points="0,-133.5 0,-152.5 156,-152.5 156,-133.5 0,-133.5"/>
<text text-anchor="middle" x="78" y="-140.5" font-family="Helvetica,sans-Serif" font-size="10.00">USBH_HAL_DelayedSuspend</text>
</g>
<!-- Node218 -->
<g id="node2" class="node"><title>Node218</title>
<g id="a_node2"><a xlink:href="usbhs_8h.xhtml#a23bc7c30ae1779f56b28b82cf5153866" target="_top" xlink:title="Enable or disable USB address. ">
<polygon fill="white" stroke="black" points="202,-266.5 202,-285.5 326,-285.5 326,-266.5 202,-266.5"/>
<text text-anchor="middle" x="264" y="-273.5" font-family="Helvetica,sans-Serif" font-size="10.00">USBHS_GetUsbSpeed</text>
</a>
</g>
</g>
<!-- Node217&#45;&gt;Node218 -->
<g id="edge1" class="edge"><title>Node217&#45;&gt;Node218</title>
<path fill="none" stroke="midnightblue" d="M85.6971,-152.633C101.52,-174.646 143.549,-228.894 192,-257 195.725,-259.161 199.702,-261.082 203.8,-262.79"/>
<polygon fill="midnightblue" stroke="midnightblue" points="202.925,-266.198 213.518,-266.397 205.361,-259.636 202.925,-266.198"/>
</g>
<!-- Node219 -->
<g id="node3" class="node"><title>Node219</title>
<g id="a_node3"><a xlink:href="usbhs_8h.xhtml#ace4d57215e8268e1e934fa376da56c83" target="_top" xlink:title="Gets USB host interrupt status. ">
<polygon fill="white" stroke="black" points="192,-228.5 192,-247.5 336,-247.5 336,-228.5 192,-228.5"/>
<text text-anchor="middle" x="264" y="-235.5" font-family="Helvetica,sans-Serif" font-size="10.00">USBHS_HostGetFramePos</text>
</a>
</g>
</g>
<!-- Node217&#45;&gt;Node219 -->
<g id="edge2" class="edge"><title>Node217&#45;&gt;Node219</title>
<path fill="none" stroke="midnightblue" d="M90.4309,-152.599C110.01,-168.582 151.754,-200.699 192,-219 197.283,-221.402 202.93,-223.551 208.645,-225.46"/>
<polygon fill="midnightblue" stroke="midnightblue" points="207.687,-228.827 218.275,-228.449 209.762,-222.142 207.687,-228.827"/>
</g>
<!-- Node220 -->
<g id="node4" class="node"><title>Node220</title>
<g id="a_node4"><a xlink:href="usbhs_8h.xhtml#a40267eb93445cc78fe9b243d25622f9c" target="_top" xlink:title="Gets USB host interrupt status. ">
<polygon fill="white" stroke="black" points="200,-190.5 200,-209.5 328,-209.5 328,-190.5 200,-190.5"/>
<text text-anchor="middle" x="264" y="-197.5" font-family="Helvetica,sans-Serif" font-size="10.00">USBHS_GetHostStatus</text>
</a>
</g>
</g>
<!-- Node217&#45;&gt;Node220 -->
<g id="edge3" class="edge"><title>Node217&#45;&gt;Node220</title>
<path fill="none" stroke="midnightblue" d="M105.789,-152.539C128.589,-160.529 162.276,-172.035 192,-181 199.645,-183.306 207.795,-185.62 215.746,-187.8"/>
<polygon fill="midnightblue" stroke="midnightblue" points="215.091,-191.248 225.658,-190.479 216.918,-184.491 215.091,-191.248"/>
</g>
<!-- Node221 -->
<g id="node5" class="node"><title>Node221</title>
<g id="a_node5"><a xlink:href="usbhs_8h.xhtml#a8b5061d7281a8104020962d8b6291da1" target="_top" xlink:title="Sets USB host disable the Generation of Start of Frame. ">
<polygon fill="white" stroke="black" points="208,-152.5 208,-171.5 320,-171.5 320,-152.5 208,-152.5"/>
<text text-anchor="middle" x="264" y="-159.5" font-family="Helvetica,sans-Serif" font-size="10.00">USBHS_DisableSOF</text>
</a>
</g>
</g>
<!-- Node217&#45;&gt;Node221 -->
<g id="edge4" class="edge"><title>Node217&#45;&gt;Node221</title>
<path fill="none" stroke="midnightblue" d="M156.233,-150.975C170.026,-152.399 184.274,-153.871 197.692,-155.256"/>
<polygon fill="midnightblue" stroke="midnightblue" points="197.464,-158.751 207.771,-156.297 198.183,-151.788 197.464,-158.751"/>
</g>
<!-- Node222 -->
<g id="node6" class="node"><title>Node222</title>
<g id="a_node6"><a xlink:href="usbhs_8h.xhtml#aab0688b661054b73b5c9fe45e59ea015" target="_top" xlink:title="Gets USB host interrupt status. ">
<polygon fill="white" stroke="black" points="196,-114.5 196,-133.5 332,-133.5 332,-114.5 196,-114.5"/>
<text text-anchor="middle" x="264" y="-121.5" font-family="Helvetica,sans-Serif" font-size="10.00">USBHS_ClearHostStatus</text>
</a>
</g>
</g>
<!-- Node217&#45;&gt;Node222 -->
<g id="edge5" class="edge"><title>Node217&#45;&gt;Node222</title>
<path fill="none" stroke="midnightblue" d="M156.233,-135.025C166.014,-134.015 176.023,-132.981 185.804,-131.971"/>
<polygon fill="midnightblue" stroke="midnightblue" points="186.306,-135.438 195.894,-130.929 185.587,-128.475 186.306,-135.438"/>
</g>
<!-- Node223 -->
<g id="node7" class="node"><title>Node223</title>
<g id="a_node7"><a xlink:href="usbhs_8h.xhtml#a7ac646519dfb6c319d8a60f08b5e4c29" target="_top" xlink:title="Gets USB host interrupt status. ">
<polygon fill="white" stroke="black" points="202,-76.5 202,-95.5 326,-95.5 326,-76.5 202,-76.5"/>
<text text-anchor="middle" x="264" y="-83.5" font-family="Helvetica,sans-Serif" font-size="10.00">USBHS_HostIntEnable</text>
</a>
</g>
</g>
<!-- Node217&#45;&gt;Node223 -->
<g id="edge6" class="edge"><title>Node217&#45;&gt;Node223</title>
<path fill="none" stroke="midnightblue" d="M105.789,-133.461C128.589,-125.471 162.276,-113.965 192,-105 199.645,-102.694 207.795,-100.38 215.746,-98.2001"/>
<polygon fill="midnightblue" stroke="midnightblue" points="216.918,-101.509 225.658,-95.5208 215.091,-94.7515 216.918,-101.509"/>
</g>
<!-- Node224 -->
<g id="node8" class="node"><title>Node224</title>
<g id="a_node8"><a xlink:href="usbhs_8h.xhtml#a07183fee11fbf4c00401b455bdfed9dd" target="_top" xlink:title=" USBHS_CTRL ">
<polygon fill="white" stroke="black" points="207,-38.5 207,-57.5 321,-57.5 321,-38.5 207,-38.5"/>
<text text-anchor="middle" x="264" y="-45.5" font-family="Helvetica,sans-Serif" font-size="10.00">USBHS_FreezeClock</text>
</a>
</g>
</g>
<!-- Node217&#45;&gt;Node224 -->
<g id="edge7" class="edge"><title>Node217&#45;&gt;Node224</title>
<path fill="none" stroke="midnightblue" d="M90.4309,-133.401C110.01,-117.418 151.754,-85.3008 192,-67 197.283,-64.5976 202.93,-62.449 208.645,-60.54"/>
<polygon fill="midnightblue" stroke="midnightblue" points="209.762,-63.8582 218.275,-57.5509 207.687,-57.1728 209.762,-63.8582"/>
</g>
<!-- Node225 -->
<g id="node9" class="node"><title>Node225</title>
<g id="a_node9"><a xlink:href="group__uhd__group.xhtml#ga5d9360ec239feb3ede5e4a0223d3c6e2" target="_top" xlink:title="Manages the sleep mode following the USBHS state. ">
<polygon fill="white" stroke="black" points="215,-0.5 215,-19.5 313,-19.5 313,-0.5 215,-0.5"/>
<text text-anchor="middle" x="264" y="-7.5" font-family="Helvetica,sans-Serif" font-size="10.00">uhd_sleep_mode</text>
</a>
</g>
</g>
<!-- Node217&#45;&gt;Node225 -->
<g id="edge8" class="edge"><title>Node217&#45;&gt;Node225</title>
<path fill="none" stroke="midnightblue" d="M85.6971,-133.367C101.52,-111.354 143.549,-57.1055 192,-29 196.129,-26.605 200.567,-24.5043 205.136,-22.6629"/>
<polygon fill="midnightblue" stroke="midnightblue" points="206.42,-25.9205 214.64,-19.2364 204.046,-19.3354 206.42,-25.9205"/>
</g>
</g>
</svg>
