<?xml version="1.0" encoding="UTF-8" standalone="no"?>
<!DOCTYPE svg PUBLIC "-//W3C//DTD SVG 1.1//EN"
 "http://www.w3.org/Graphics/SVG/1.1/DTD/svg11.dtd">
<!-- Generated by graphviz version 2.38.0 (20140413.2041)
 -->
<!-- Title: Watchdog Timer Pages: 1 -->
<svg width="249pt" height="66pt"
 viewBox="0.00 0.00 249.00 66.00" xmlns="http://www.w3.org/2000/svg" xmlns:xlink="http://www.w3.org/1999/xlink">
<g id="graph0" class="graph" transform="scale(1 1) rotate(0) translate(4 62)">
<title>Watchdog Timer</title>
<polygon fill="white" stroke="none" points="-4,4 -4,-62 245,-62 245,4 -4,4"/>
<!-- Node2 -->
<g id="node1" class="node"><title>Node2</title>
<g id="a_node1"><a xlink:href="group___s_a_m_s70___w_d_t.xhtml" target="_top" xlink:title="SOFTWARE API DEFINITION FOR Watchdog Timer. ">
<polygon fill="white" stroke="black" points="148,-38.5 148,-57.5 241,-57.5 241,-38.5 148,-38.5"/>
<text text-anchor="middle" x="194.5" y="-45.5" font-family="Helvetica,sans-Serif" font-size="10.00">Watchdog Timer</text>
</a>
</g>
</g>
<!-- Node1 -->
<g id="node2" class="node"><title>Node1</title>
<g id="a_node2"><a xlink:href="group___s_a_m_e70___w_d_t.xhtml" target="_top" xlink:title="SOFTWARE API DEFINITION FOR Watchdog Timer. ">
<polygon fill="white" stroke="black" points="148,-0.5 148,-19.5 241,-19.5 241,-0.5 148,-0.5"/>
<text text-anchor="middle" x="194.5" y="-7.5" font-family="Helvetica,sans-Serif" font-size="10.00">Watchdog Timer</text>
</a>
</g>
</g>
<!-- Node0 -->
<g id="node3" class="node"><title>Node0</title>
<polygon fill="#bfbfbf" stroke="black" points="0,-19.5 0,-38.5 93,-38.5 93,-19.5 0,-19.5"/>
<text text-anchor="middle" x="46.5" y="-26.5" font-family="Helvetica,sans-Serif" font-size="10.00">Watchdog Timer</text>
</g>
<!-- Node0&#45;&gt;Node2 -->
<g id="edge2" class="edge"><title>Node0&#45;&gt;Node2</title>
<path fill="none" stroke="orange" stroke-dasharray="5,2" d="M93.2947,-34.9596C110.689,-37.2232 130.488,-39.7999 147.868,-42.0616"/>
<text text-anchor="middle" x="120.5" y="-42" font-family="Helvetica,sans-Serif" font-size="10.00">Wdt</text>
</g>
<!-- Node0&#45;&gt;Node1 -->
<g id="edge1" class="edge"><title>Node0&#45;&gt;Node1</title>
<path fill="none" stroke="orange" stroke-dasharray="5,2" d="M86.2806,-19.4418C94.4052,-17.7236 102.95,-16.1243 111,-15 122.937,-13.3328 135.923,-12.2213 147.985,-11.4804"/>
<text text-anchor="middle" x="120.5" y="-18" font-family="Helvetica,sans-Serif" font-size="10.00">Wdt</text>
</g>
</g>
</svg>
