<?xml version="1.0" encoding="UTF-8" standalone="no"?>
<!DOCTYPE svg PUBLIC "-//W3C//DTD SVG 1.1//EN"
 "http://www.w3.org/Graphics/SVG/1.1/DTD/svg11.dtd">
<!-- Generated by graphviz version 2.38.0 (20140413.2041)
 -->
<!-- Title: USBH_HAL_PhaseControlSetup Pages: 1 -->
<svg width="356pt" height="66pt"
 viewBox="0.00 0.00 356.00 66.00" xmlns="http://www.w3.org/2000/svg" xmlns:xlink="http://www.w3.org/1999/xlink">
<g id="graph0" class="graph" transform="scale(1 1) rotate(0) translate(4 62)">
<title>USBH_HAL_PhaseControlSetup</title>
<polygon fill="white" stroke="none" points="-4,4 -4,-62 352,-62 352,4 -4,4"/>
<!-- Node544 -->
<g id="node1" class="node"><title>Node544</title>
<polygon fill="#bfbfbf" stroke="black" points="0,-0.5 0,-19.5 167,-19.5 167,-0.5 0,-0.5"/>
<text text-anchor="middle" x="83.5" y="-7.5" font-family="Helvetica,sans-Serif" font-size="10.00">USBH_HAL_PhaseControlSetup</text>
</g>
<!-- Node545 -->
<g id="node2" class="node"><title>Node545</title>
<g id="a_node2"><a xlink:href="group__uhd__group.xhtml#ga11038bdbac3a23c70a7b7f5abcecc8ba" target="_top" xlink:title="Add a setup request in the control endpoint setup queue. ">
<polygon fill="white" stroke="red" points="215,-38.5 215,-57.5 336,-57.5 336,-38.5 215,-38.5"/>
<text text-anchor="middle" x="275.5" y="-45.5" font-family="Helvetica,sans-Serif" font-size="10.00">USBH_HAL_SetupReq</text>
</a>
</g>
</g>
<!-- Node544&#45;&gt;Node545 -->
<g id="edge1" class="edge"><title>Node544&#45;&gt;Node545</title>
<path fill="none" stroke="midnightblue" d="M142.548,-21.6095C169.57,-27.014 201.318,-33.3635 226.9,-38.4799"/>
<polygon fill="midnightblue" stroke="midnightblue" points="142.937,-18.1182 132.445,-19.589 141.564,-24.9823 142.937,-18.1182"/>
</g>
<!-- Node606 -->
<g id="node3" class="node"><title>Node606</title>
<g id="a_node3"><a xlink:href="group__uhd__group.xhtml#gafb1043e05189c04ded956208eea3e2b5" target="_top" xlink:title="USBH_HAL_ControlReqEnd">
<polygon fill="white" stroke="red" points="203,-0.5 203,-19.5 348,-19.5 348,-0.5 203,-0.5"/>
<text text-anchor="middle" x="275.5" y="-7.5" font-family="Helvetica,sans-Serif" font-size="10.00">USBH_HAL_ControlReqEnd</text>
</a>
</g>
</g>
<!-- Node544&#45;&gt;Node606 -->
<g id="edge2" class="edge"><title>Node544&#45;&gt;Node606</title>
<path fill="none" stroke="midnightblue" d="M177.11,-3.2519C185.74,-3.23818 194.396,-3.29877 202.793,-3.43368"/>
<polygon fill="midnightblue" stroke="midnightblue" points="176.99,0.247649 167.008,-3.30214 177.025,-6.75226 176.99,0.247649"/>
</g>
<!-- Node606&#45;&gt;Node544 -->
<g id="edge3" class="edge"><title>Node606&#45;&gt;Node544</title>
<path fill="none" stroke="midnightblue" d="M192.555,-16.693C184.088,-16.7673 175.48,-16.769 167.008,-16.6979"/>
<polygon fill="midnightblue" stroke="midnightblue" points="192.838,-20.1899 202.793,-16.5663 192.751,-13.1904 192.838,-20.1899"/>
</g>
</g>
</svg>
