<?xml version="1.0" encoding="UTF-8" standalone="no"?>
<!DOCTYPE svg PUBLIC "-//W3C//DTD SVG 1.1//EN"
 "http://www.w3.org/Graphics/SVG/1.1/DTD/svg11.dtd">
<!-- Generated by graphviz version 2.38.0 (20140413.2041)
 -->
<!-- Title: Static Memory Controller Pages: 1 -->
<svg width="393pt" height="76pt"
 viewBox="0.00 0.00 393.00 76.00" xmlns="http://www.w3.org/2000/svg" xmlns:xlink="http://www.w3.org/1999/xlink">
<g id="graph0" class="graph" transform="scale(1 1) rotate(0) translate(4 72)">
<title>Static Memory Controller</title>
<polygon fill="white" stroke="none" points="-4,4 -4,-72 389,-72 389,4 -4,4"/>
<!-- Node1 -->
<g id="node1" class="node"><title>Node1</title>
<g id="a_node1"><a xlink:href="group___s_a_m_s70___s_m_c.xhtml" target="_top" xlink:title="SOFTWARE API DEFINITION FOR Static Memory Controller. ">
<polygon fill="white" stroke="black" points="249,-45.5 249,-64.5 385,-64.5 385,-45.5 249,-45.5"/>
<text text-anchor="middle" x="317" y="-52.5" font-family="Helvetica,sans-Serif" font-size="10.00">Static Memory Controller</text>
</a>
</g>
</g>
<!-- Node0 -->
<g id="node2" class="node"><title>Node0</title>
<polygon fill="#bfbfbf" stroke="black" points="0,-22.5 0,-41.5 136,-41.5 136,-22.5 0,-22.5"/>
<text text-anchor="middle" x="68" y="-29.5" font-family="Helvetica,sans-Serif" font-size="10.00">Static Memory Controller</text>
</g>
<!-- Node0&#45;&gt;Node1 -->
<g id="edge1" class="edge"><title>Node0&#45;&gt;Node1</title>
<path fill="none" stroke="orange" stroke-dasharray="5,2" d="M136.168,-38.2545C171.167,-41.5135 213.848,-45.4879 248.846,-48.7468"/>
<text text-anchor="middle" x="192.5" y="-60" font-family="Helvetica,sans-Serif" font-size="10.00">SmcCs_number</text>
<text text-anchor="middle" x="192.5" y="-49" font-family="Helvetica,sans-Serif" font-size="10.00">Smc</text>
</g>
<!-- Node2 -->
<g id="node3" class="node"><title>Node2</title>
<g id="a_node3"><a xlink:href="group___s_a_m_v71___s_m_c.xhtml" target="_top" xlink:title="SOFTWARE API DEFINITION FOR Static Memory Controller. ">
<polygon fill="white" stroke="black" points="249,-0.5 249,-19.5 385,-19.5 385,-0.5 249,-0.5"/>
<text text-anchor="middle" x="317" y="-7.5" font-family="Helvetica,sans-Serif" font-size="10.00">Static Memory Controller</text>
</a>
</g>
</g>
<!-- Node0&#45;&gt;Node2 -->
<g id="edge2" class="edge"><title>Node0&#45;&gt;Node2</title>
<path fill="none" stroke="orange" stroke-dasharray="5,2" d="M100.154,-22.43C116.092,-18.015 135.9,-13.2595 154,-11 184.979,-7.13281 219.55,-6.43119 248.774,-6.87705"/>
<text text-anchor="middle" x="192.5" y="-25" font-family="Helvetica,sans-Serif" font-size="10.00">SmcCs_number</text>
<text text-anchor="middle" x="192.5" y="-14" font-family="Helvetica,sans-Serif" font-size="10.00">Smc</text>
</g>
</g>
</svg>
