<?xml version="1.0" encoding="UTF-8" standalone="no"?>
<!DOCTYPE svg PUBLIC "-//W3C//DTD SVG 1.1//EN"
 "http://www.w3.org/Graphics/SVG/1.1/DTD/svg11.dtd">
<!-- Generated by graphviz version 2.38.0 (20140413.2041)
 -->
<!-- Title: USBD_Stall Pages: 1 -->
<svg width="665pt" height="846pt"
 viewBox="0.00 0.00 665.00 846.44" xmlns="http://www.w3.org/2000/svg" xmlns:xlink="http://www.w3.org/1999/xlink">
<g id="graph0" class="graph" transform="scale(1 1) rotate(0) translate(4 842.44)">
<title>USBD_Stall</title>
<polygon fill="white" stroke="none" points="-4,4 -4,-842.44 661,-842.44 661,4 -4,4"/>
<!-- Node935 -->
<g id="node1" class="node"><title>Node935</title>
<polygon fill="#bfbfbf" stroke="black" points="0,-412.337 0,-431.337 71,-431.337 71,-412.337 0,-412.337"/>
<text text-anchor="middle" x="35.5" y="-419.337" font-family="Helvetica,sans-Serif" font-size="10.00">USBD_Stall</text>
</g>
<!-- Node936 -->
<g id="node2" class="node"><title>Node936</title>
<g id="a_node2"><a xlink:href="group__usbd__audio__speaker.xhtml#ga2b7fde84b4a6cc4bfe50ca02a01c5bb5" target="_top" xlink:title="Handles audio&#45;specific USB requests sent by the host, and forwards standard ones to the USB device dr...">
<polygon fill="white" stroke="black" points="487,-594.837 487,-624.837 645,-624.837 645,-594.837 487,-594.837"/>
<text text-anchor="start" x="495" y="-612.837" font-family="Helvetica,sans-Serif" font-size="10.00">AUDDSpeakerDriver_Request</text>
<text text-anchor="middle" x="566" y="-601.837" font-family="Helvetica,sans-Serif" font-size="10.00">Handler</text>
</a>
</g>
</g>
<!-- Node935&#45;&gt;Node936 -->
<g id="edge1" class="edge"><title>Node935&#45;&gt;Node936</title>
<path fill="none" stroke="midnightblue" d="M38.6571,-441.528C45.266,-497.802 67.2382,-657.241 107,-687.837 171.883,-737.764 421.856,-659.463 522.579,-624.902"/>
<polygon fill="midnightblue" stroke="midnightblue" points="42.1176,-440.982 37.5091,-431.442 35.1625,-441.774 42.1176,-440.982"/>
</g>
<!-- Node937 -->
<g id="node3" class="node"><title>Node937</title>
<g id="a_node3"><a xlink:href="group__usbd__audio__speakerphone.xhtml#gab8e4cd12ef0615be5ff405457db9e104" target="_top" xlink:title="Handle the SET_CUR request. ">
<polygon fill="white" stroke="black" points="279,-811.337 279,-830.337 437,-830.337 437,-811.337 279,-811.337"/>
<text text-anchor="middle" x="358" y="-818.337" font-family="Helvetica,sans-Serif" font-size="10.00">AUDDSpeakerPhone_SetCUR</text>
</a>
</g>
</g>
<!-- Node935&#45;&gt;Node937 -->
<g id="edge2" class="edge"><title>Node935&#45;&gt;Node937</title>
<path fill="none" stroke="midnightblue" d="M37.1995,-441.532C40.1268,-511.755 53.8413,-748.265 107,-796.837 163.814,-848.748 261.123,-840.487 316.082,-830.35"/>
<polygon fill="midnightblue" stroke="midnightblue" points="40.6919,-441.268 36.8059,-431.412 33.6972,-441.54 40.6919,-441.268"/>
</g>
<!-- Node938 -->
<g id="node4" class="node"><title>Node938</title>
<g id="a_node4"><a xlink:href="group__usbd__audio__speakerphone.xhtml#ga17c8f0de49847c1c6fcd8f2ca0ffad64" target="_top" xlink:title="Handles audio&#45;specific USB requests sent by the host, and forwards standard ones to the USB device dr...">
<polygon fill="white" stroke="black" points="494,-748.837 494,-778.837 638,-778.837 638,-748.837 494,-748.837"/>
<text text-anchor="start" x="502" y="-766.837" font-family="Helvetica,sans-Serif" font-size="10.00">AUDDSpeakerPhoneDriver</text>
<text text-anchor="middle" x="566" y="-755.837" font-family="Helvetica,sans-Serif" font-size="10.00">_RequestHandler</text>
</a>
</g>
</g>
<!-- Node935&#45;&gt;Node938 -->
<g id="edge6" class="edge"><title>Node935&#45;&gt;Node938</title>
<path fill="none" stroke="midnightblue" d="M37.6258,-441.47C41.7962,-506.569 58.7028,-713.531 107,-754.837 163.209,-802.909 379.514,-785.877 493.604,-772.969"/>
<polygon fill="midnightblue" stroke="midnightblue" points="41.1106,-441.113 37.0083,-431.345 34.1236,-441.54 41.1106,-441.113"/>
</g>
<!-- Node939 -->
<g id="node5" class="node"><title>Node939</title>
<g id="a_node5"><a xlink:href="group__usbd__audio__speakerphone.xhtml#ga26ee739e084b33db49fdc25819529f10" target="_top" xlink:title="Handle the GET_CUR request. ">
<polygon fill="white" stroke="black" points="279,-735.337 279,-754.337 437,-754.337 437,-735.337 279,-735.337"/>
<text text-anchor="middle" x="358" y="-742.337" font-family="Helvetica,sans-Serif" font-size="10.00">AUDDSpeakerPhone_GetCUR</text>
</a>
</g>
</g>
<!-- Node935&#45;&gt;Node939 -->
<g id="edge4" class="edge"><title>Node935&#45;&gt;Node939</title>
<path fill="none" stroke="midnightblue" d="M38.2314,-441.732C43.9485,-502.469 64.3404,-683.612 107,-720.837 164.164,-770.719 259.115,-763.88 314.077,-754.381"/>
<polygon fill="midnightblue" stroke="midnightblue" points="41.6977,-441.203 37.3068,-431.56 34.7265,-441.836 41.6977,-441.203"/>
</g>
<!-- Node940 -->
<g id="node6" class="node"><title>Node940</title>
<g id="a_node6"><a xlink:href="group__usbd__audio__speakerphone.xhtml#ga489f97d62376e824385055765a31e17b" target="_top" xlink:title="Handle the SET_CUR request. ">
<polygon fill="white" stroke="red" points="130,-659.337 130,-678.337 218,-678.337 218,-659.337 130,-659.337"/>
<text text-anchor="middle" x="174" y="-666.337" font-family="Helvetica,sans-Serif" font-size="10.00">AUDD_SetCUR</text>
</a>
</g>
</g>
<!-- Node935&#45;&gt;Node940 -->
<g id="edge7" class="edge"><title>Node935&#45;&gt;Node940</title>
<path fill="none" stroke="midnightblue" d="M36.6689,-441.995C38.1643,-486.146 48.0716,-592.051 107,-649.837 113.3,-656.015 121.473,-660.209 129.909,-663.049"/>
<polygon fill="midnightblue" stroke="midnightblue" points="40.1618,-441.636 36.4405,-431.716 33.1636,-441.792 40.1618,-441.636"/>
</g>
<!-- Node945 -->
<g id="node7" class="node"><title>Node945</title>
<g id="a_node7"><a xlink:href="group__usbd__audio__speakerphone.xhtml#gaa2c1c8f41b4dbb0494310c2bd60aafaf" target="_top" xlink:title="Handle the GET_CUR request. ">
<polygon fill="white" stroke="red" points="129.5,-621.337 129.5,-640.337 218.5,-640.337 218.5,-621.337 129.5,-621.337"/>
<text text-anchor="middle" x="174" y="-628.337" font-family="Helvetica,sans-Serif" font-size="10.00">AUDD_GetCUR</text>
</a>
</g>
</g>
<!-- Node935&#45;&gt;Node945 -->
<g id="edge8" class="edge"><title>Node935&#45;&gt;Node945</title>
<path fill="none" stroke="midnightblue" d="M38.6176,-441.459C43.6612,-478.752 59.7275,-560.283 107,-606.837 113.428,-613.168 121.655,-617.844 130.104,-621.293"/>
<polygon fill="midnightblue" stroke="midnightblue" points="42.0746,-440.894 37.3839,-431.394 35.1266,-441.746 42.0746,-440.894"/>
</g>
<!-- Node946 -->
<g id="node8" class="node"><title>Node946</title>
<g id="a_node8"><a xlink:href="group__usbd__ccid.xhtml#gaa3679fa7dec59d63fc8951434967b5b8" target="_top" xlink:title="SETUP request handler for a CCID device. ">
<polygon fill="white" stroke="red" points="505.5,-445.337 505.5,-464.337 626.5,-464.337 626.5,-445.337 505.5,-445.337"/>
<text text-anchor="middle" x="566" y="-452.337" font-family="Helvetica,sans-Serif" font-size="10.00">CCID_RequestHandler</text>
</a>
</g>
</g>
<!-- Node935&#45;&gt;Node946 -->
<g id="edge9" class="edge"><title>Node935&#45;&gt;Node946</title>
<path fill="none" stroke="midnightblue" d="M38.9655,-441.719C44.375,-475.739 60.7423,-544.301 107,-573.837 262.104,-672.872 496.432,-507.486 552.591,-464.592"/>
<polygon fill="midnightblue" stroke="midnightblue" points="42.4009,-441.017 37.5236,-431.612 35.4711,-442.006 42.4009,-441.017"/>
</g>
<!-- Node954 -->
<g id="node9" class="node"><title>Node954</title>
<g id="a_node9"><a xlink:href="group__usbd__cdc.xhtml#ga1df488de43fb255ae5191c98b3724576" target="_top" xlink:title="Callback function which should be invoked after the data of a SetLineCoding request has been retrieve...">
<polygon fill="white" stroke="red" points="108.5,-545.337 108.5,-564.337 239.5,-564.337 239.5,-545.337 108.5,-545.337"/>
<text text-anchor="middle" x="174" y="-552.337" font-family="Helvetica,sans-Serif" font-size="10.00">_SetLineCodingCallback</text>
</a>
</g>
</g>
<!-- Node935&#45;&gt;Node954 -->
<g id="edge10" class="edge"><title>Node935&#45;&gt;Node954</title>
<path fill="none" stroke="midnightblue" d="M43.3105,-441.083C53.3085,-466.554 74.3845,-511.113 107,-535.837 112.131,-539.726 118.034,-542.821 124.155,-545.282"/>
<polygon fill="midnightblue" stroke="midnightblue" points="46.4875,-439.587 39.7025,-431.449 39.9321,-442.042 46.4875,-439.587"/>
</g>
<!-- Node961 -->
<g id="node10" class="node"><title>Node961</title>
<g id="a_node10"><a xlink:href="group__usbd__composite__cdccdc.xhtml#ga9ba1f9929b5a8da6905543152693e5a4" target="_top" xlink:title="Handles composite&#45;specific USB requests sent by the host, and forwards standard ones to the USB devic...">
<polygon fill="white" stroke="black" points="475,-379.337 475,-398.337 657,-398.337 657,-379.337 475,-379.337"/>
<text text-anchor="middle" x="566" y="-386.337" font-family="Helvetica,sans-Serif" font-size="10.00">DUALCDCDDriver_RequestHandler</text>
</a>
</g>
</g>
<!-- Node935&#45;&gt;Node961 -->
<g id="edge11" class="edge"><title>Node935&#45;&gt;Node961</title>
<path fill="none" stroke="midnightblue" d="M42.0078,-402.342C50.7745,-375.462 70.7337,-328.05 107,-307.837 261.819,-221.548 487.856,-342.78 549.165,-379.104"/>
<polygon fill="midnightblue" stroke="midnightblue" points="38.5834,-401.572 39.0083,-412.159 45.2778,-403.618 38.5834,-401.572"/>
</g>
<!-- Node962 -->
<g id="node11" class="node"><title>Node962</title>
<g id="a_node11"><a xlink:href="group__usbd__interface.xhtml#gaa52d41127f737b06cc6991626de366b9" target="_top" xlink:title="Sends the current status of an endpoints to the USB host. ">
<polygon fill="white" stroke="black" points="120.5,-507.337 120.5,-526.337 227.5,-526.337 227.5,-507.337 120.5,-507.337"/>
<text text-anchor="middle" x="174" y="-514.337" font-family="Helvetica,sans-Serif" font-size="10.00">GetEndpointStatus</text>
</a>
</g>
</g>
<!-- Node935&#45;&gt;Node962 -->
<g id="edge12" class="edge"><title>Node935&#45;&gt;Node962</title>
<path fill="none" stroke="midnightblue" d="M50.1059,-439.422C63.1876,-455.291 84.2787,-478.31 107,-492.837 116.348,-498.813 127.39,-503.574 137.74,-507.227"/>
<polygon fill="midnightblue" stroke="midnightblue" points="52.6906,-437.05 43.7027,-431.441 47.2306,-441.431 52.6906,-437.05"/>
</g>
<!-- Node963 -->
<g id="node12" class="node"><title>Node963</title>
<g id="a_node12"><a xlink:href="group__usbd__interface.xhtml#gaae0893893739fb365d088ea946cb2c89" target="_top" xlink:title="Handles the given request if it is standard, otherwise STALLs it. ">
<polygon fill="white" stroke="red" points="280.5,-412.337 280.5,-431.337 435.5,-431.337 435.5,-412.337 280.5,-412.337"/>
<text text-anchor="middle" x="358" y="-419.337" font-family="Helvetica,sans-Serif" font-size="10.00">USBDDriver_RequestHandler</text>
</a>
</g>
</g>
<!-- Node935&#45;&gt;Node963 -->
<g id="edge28" class="edge"><title>Node935&#45;&gt;Node963</title>
<path fill="none" stroke="midnightblue" d="M58.1868,-437.177C71.5675,-445.684 89.4738,-455.414 107,-459.837 164.745,-474.409 182.189,-469.224 241,-459.837 274.693,-454.459 311.887,-440.816 334.852,-431.43"/>
<polygon fill="midnightblue" stroke="midnightblue" points="59.977,-434.165 49.7065,-431.564 56.1132,-440.002 59.977,-434.165"/>
</g>
<!-- Node969 -->
<g id="node13" class="node"><title>Node969</title>
<g id="a_node13"><a xlink:href="group__usbd__hid__tran.xhtml#ga7339bf87c3b8556a76557ac341318265" target="_top" xlink:title="Handles HID&#45;specific SETUP request sent by the host. ">
<polygon fill="white" stroke="black" points="512.5,-121.837 512.5,-151.837 619.5,-151.837 619.5,-121.837 512.5,-121.837"/>
<text text-anchor="start" x="520.5" y="-139.837" font-family="Helvetica,sans-Serif" font-size="10.00">HIDDTransferDriver</text>
<text text-anchor="middle" x="566" y="-128.837" font-family="Helvetica,sans-Serif" font-size="10.00">_RequestHandler</text>
</a>
</g>
</g>
<!-- Node935&#45;&gt;Node969 -->
<g id="edge39" class="edge"><title>Node935&#45;&gt;Node969</title>
<path fill="none" stroke="midnightblue" d="M37.0002,-401.702C39.246,-329.939 50.9206,-88.4691 107,-41.8369 241.245,69.793 473.045,-73.0875 543.85,-121.717"/>
<polygon fill="midnightblue" stroke="midnightblue" points="33.4919,-401.952 36.7068,-412.047 40.489,-402.15 33.4919,-401.952"/>
</g>
<!-- Node971 -->
<g id="node14" class="node"><title>Node971</title>
<g id="a_node14"><a xlink:href="group__usbd__msd.xhtml#gaa87efba32c907fa095c6f8797d2580db" target="_top" xlink:title="Handler for incoming SETUP requests on default Control endpoint 0. ">
<polygon fill="white" stroke="red" points="486,-284.337 486,-303.337 646,-303.337 646,-284.337 486,-284.337"/>
<text text-anchor="middle" x="566" y="-291.337" font-family="Helvetica,sans-Serif" font-size="10.00">MSDFunction_RequestHandler</text>
</a>
</g>
</g>
<!-- Node935&#45;&gt;Node971 -->
<g id="edge40" class="edge"><title>Node935&#45;&gt;Node971</title>
<path fill="none" stroke="midnightblue" d="M39.2169,-402.024C44.9694,-368.724 61.7914,-302.377 107,-273.837 249.677,-183.764 470.137,-256.59 541.706,-284.285"/>
<polygon fill="midnightblue" stroke="midnightblue" points="35.6958,-401.889 37.6155,-412.309 42.6125,-402.967 35.6958,-401.889"/>
</g>
<!-- Node972 -->
<g id="node15" class="node"><title>Node972</title>
<g id="a_node15"><a xlink:href="group__usbd__interface.xhtml#gadbb4c8a840d3ff539be6fa5fa9f4a4e0" target="_top" xlink:title="Sends the requested USB descriptor to the host if available, or STALLs the request. ">
<polygon fill="white" stroke="black" points="132.5,-431.337 132.5,-450.337 215.5,-450.337 215.5,-431.337 132.5,-431.337"/>
<text text-anchor="middle" x="174" y="-438.337" font-family="Helvetica,sans-Serif" font-size="10.00">GetDescriptor</text>
</a>
</g>
</g>
<!-- Node935&#45;&gt;Node972 -->
<g id="edge20" class="edge"><title>Node935&#45;&gt;Node972</title>
<path fill="none" stroke="midnightblue" d="M81.2609,-428.067C97.7605,-430.364 116.346,-432.951 132.453,-435.193"/>
<polygon fill="midnightblue" stroke="midnightblue" points="81.685,-424.593 71.2979,-426.681 80.7199,-431.526 81.685,-424.593"/>
</g>
<!-- Node973 -->
<g id="node16" class="node"><title>Node973</title>
<g id="a_node16"><a xlink:href="group__usbd__interface.xhtml#ga69728b150794285ecaf38b5383471965" target="_top" xlink:title="Sets the active setting of the given interface if the configuration supports it; otherwise, the control pipe is STALLed. ">
<polygon fill="white" stroke="black" points="136.5,-393.337 136.5,-412.337 211.5,-412.337 211.5,-393.337 136.5,-393.337"/>
<text text-anchor="middle" x="174" y="-400.337" font-family="Helvetica,sans-Serif" font-size="10.00">SetInterface</text>
</a>
</g>
</g>
<!-- Node935&#45;&gt;Node973 -->
<g id="edge22" class="edge"><title>Node935&#45;&gt;Node973</title>
<path fill="none" stroke="midnightblue" d="M81.4588,-415.579C99.2612,-413.101 119.466,-410.289 136.356,-407.938"/>
<polygon fill="midnightblue" stroke="midnightblue" points="80.7199,-412.148 71.2979,-416.993 81.685,-419.081 80.7199,-412.148"/>
</g>
<!-- Node974 -->
<g id="node17" class="node"><title>Node974</title>
<g id="a_node17"><a xlink:href="group__usbd__interface.xhtml#gaf933d8614b19b074895685836de44361" target="_top" xlink:title="Sends the currently active setting of the given interface to the USB host. ">
<polygon fill="white" stroke="black" points="136,-355.337 136,-374.337 212,-374.337 212,-355.337 136,-355.337"/>
<text text-anchor="middle" x="174" y="-362.337" font-family="Helvetica,sans-Serif" font-size="10.00">GetInterface</text>
</a>
</g>
</g>
<!-- Node935&#45;&gt;Node974 -->
<g id="edge24" class="edge"><title>Node935&#45;&gt;Node974</title>
<path fill="none" stroke="midnightblue" d="M60.9539,-406.977C74.2389,-399.339 91.1495,-390.303 107,-383.837 116.164,-380.099 126.323,-376.787 135.869,-374.019"/>
<polygon fill="midnightblue" stroke="midnightblue" points="58.8436,-404.157 51.9882,-412.235 62.3848,-410.195 58.8436,-404.157"/>
</g>
<!-- Node975 -->
<g id="node18" class="node"><title>Node975</title>
<g id="a_node18"><a xlink:href="group__usbd__interface.xhtml#ga001b34862324f5ba4a65ad3195e4896f" target="_top" xlink:title="Performs the selected test on the USB device (high&#45;speed only). ">
<polygon fill="white" stroke="black" points="125,-317.337 125,-336.337 223,-336.337 223,-317.337 125,-317.337"/>
<text text-anchor="middle" x="174" y="-324.337" font-family="Helvetica,sans-Serif" font-size="10.00">USBDDriver_Test</text>
</a>
</g>
</g>
<!-- Node935&#45;&gt;Node975 -->
<g id="edge26" class="edge"><title>Node935&#45;&gt;Node975</title>
<path fill="none" stroke="midnightblue" d="M48.64,-403.91C61.2703,-386.597 82.5915,-360.856 107,-345.837 113.296,-341.963 120.414,-338.851 127.586,-336.359"/>
<polygon fill="midnightblue" stroke="midnightblue" points="45.7697,-401.907 42.8571,-412.093 51.4865,-405.947 45.7697,-401.907"/>
</g>
<!-- Node976 -->
<g id="node19" class="node"><title>Node976</title>
<g id="a_node19"><a xlink:href="group__usbd__hid.xhtml#gaced6adae7bca323f6d8a63964092dc22" target="_top" xlink:title="Sends the current Idle rate of the input report to the host. ">
<polygon fill="white" stroke="black" points="114,-165.337 114,-184.337 234,-184.337 234,-165.337 114,-165.337"/>
<text text-anchor="middle" x="174" y="-172.337" font-family="Helvetica,sans-Serif" font-size="10.00">HIDDFunction_GetIdle</text>
</a>
</g>
</g>
<!-- Node935&#45;&gt;Node976 -->
<g id="edge29" class="edge"><title>Node935&#45;&gt;Node976</title>
<path fill="none" stroke="midnightblue" d="M36.6689,-401.679C38.1643,-357.528 48.0716,-251.622 107,-193.837 110.916,-189.997 115.556,-186.923 120.533,-184.465"/>
<polygon fill="midnightblue" stroke="midnightblue" points="33.1636,-401.882 36.4405,-411.957 40.1618,-402.038 33.1636,-401.882"/>
</g>
<!-- Node977 -->
<g id="node20" class="node"><title>Node977</title>
<g id="a_node20"><a xlink:href="group__usbd__hid.xhtml#ga6a3177814ff14ce51040bd58817d4064" target="_top" xlink:title="Handles HID&#45;specific SETUP request sent by the host. ">
<polygon fill="white" stroke="red" points="277,-127.337 277,-146.337 439,-146.337 439,-127.337 277,-127.337"/>
<text text-anchor="middle" x="358" y="-134.337" font-family="Helvetica,sans-Serif" font-size="10.00">HIDDFunction_RequestHandler</text>
</a>
</g>
</g>
<!-- Node935&#45;&gt;Node977 -->
<g id="edge38" class="edge"><title>Node935&#45;&gt;Node977</title>
<path fill="none" stroke="midnightblue" d="M38.772,-402.289C45.6929,-346.405 68.427,-187.919 107,-155.837 166.569,-106.292 264.165,-116.46 318.107,-127.255"/>
<polygon fill="midnightblue" stroke="midnightblue" points="35.2869,-401.957 37.5668,-412.303 42.2367,-402.793 35.2869,-401.957"/>
</g>
<!-- Node979 -->
<g id="node21" class="node"><title>Node979</title>
<g id="a_node21"><a xlink:href="group__usbd__hid.xhtml#gaaaa136d5e3db25540b4353f95a237f23" target="_top" xlink:title="Retrieves the new idle rate of the input report from the USB host. ">
<polygon fill="white" stroke="black" points="114.5,-89.3369 114.5,-108.337 233.5,-108.337 233.5,-89.3369 114.5,-89.3369"/>
<text text-anchor="middle" x="174" y="-96.3369" font-family="Helvetica,sans-Serif" font-size="10.00">HIDDFunction_SetIdle</text>
</a>
</g>
</g>
<!-- Node935&#45;&gt;Node979 -->
<g id="edge32" class="edge"><title>Node935&#45;&gt;Node979</title>
<path fill="none" stroke="midnightblue" d="M38.6715,-402.386C45.6681,-342.941 69.3791,-165.148 107,-122.837 112.59,-116.55 119.961,-111.909 127.748,-108.482"/>
<polygon fill="midnightblue" stroke="midnightblue" points="35.1926,-402.002 37.5278,-412.336 42.1468,-402.801 35.1926,-402.002"/>
</g>
<!-- Node980 -->
<g id="node22" class="node"><title>Node980</title>
<g id="a_node22"><a xlink:href="group__usbd__hid.xhtml#gac1f005d3d16586bde74d82ca21c06654" target="_top" xlink:title="Sends the requested report to the host. ">
<polygon fill="white" stroke="black" points="107,-51.3369 107,-70.3369 241,-70.3369 241,-51.3369 107,-51.3369"/>
<text text-anchor="middle" x="174" y="-58.3369" font-family="Helvetica,sans-Serif" font-size="10.00">HIDDFunction_GetReport</text>
</a>
</g>
</g>
<!-- Node935&#45;&gt;Node980 -->
<g id="edge34" class="edge"><title>Node935&#45;&gt;Node980</title>
<path fill="none" stroke="midnightblue" d="M37.9327,-402.088C43.0764,-336.547 62.7081,-127.678 107,-79.8369 110.564,-75.9871 114.853,-72.8993 119.512,-70.4254"/>
<polygon fill="midnightblue" stroke="midnightblue" points="34.4262,-402.042 37.1606,-412.278 41.4062,-402.571 34.4262,-402.042"/>
</g>
<!-- Node981 -->
<g id="node23" class="node"><title>Node981</title>
<g id="a_node23"><a xlink:href="group__usbd__hid.xhtml#ga285bfa90562d385afb6ec10421f54de0" target="_top" xlink:title="Reads the requested report from the host. ">
<polygon fill="white" stroke="black" points="107,-203.337 107,-222.337 241,-222.337 241,-203.337 107,-203.337"/>
<text text-anchor="middle" x="174" y="-210.337" font-family="Helvetica,sans-Serif" font-size="10.00">HIDDFunction_SetReport</text>
</a>
</g>
</g>
<!-- Node935&#45;&gt;Node981 -->
<g id="edge36" class="edge"><title>Node935&#45;&gt;Node981</title>
<path fill="none" stroke="midnightblue" d="M38.6176,-402.214C43.6612,-364.922 59.7275,-283.391 107,-236.837 113.428,-230.506 121.655,-225.83 130.104,-222.381"/>
<polygon fill="midnightblue" stroke="midnightblue" points="35.1266,-401.928 37.3839,-412.28 42.0746,-402.78 35.1266,-401.928"/>
</g>
<!-- Node937&#45;&gt;Node938 -->
<g id="edge3" class="edge"><title>Node937&#45;&gt;Node938</title>
<path fill="none" stroke="midnightblue" d="M403.277,-808.585C434.718,-799.886 477.121,-788.153 510.62,-778.884"/>
<polygon fill="midnightblue" stroke="midnightblue" points="402.184,-805.256 393.48,-811.296 404.051,-812.003 402.184,-805.256"/>
</g>
<!-- Node939&#45;&gt;Node938 -->
<g id="edge5" class="edge"><title>Node939&#45;&gt;Node938</title>
<path fill="none" stroke="midnightblue" d="M447.333,-752.984C462.916,-754.421 478.956,-755.901 493.987,-757.287"/>
<polygon fill="midnightblue" stroke="midnightblue" points="447.453,-749.48 437.173,-752.047 446.81,-756.451 447.453,-749.48"/>
</g>
<!-- Node962&#45;&gt;Node963 -->
<g id="edge13" class="edge"><title>Node962&#45;&gt;Node963</title>
<path fill="none" stroke="midnightblue" d="M214.775,-503.835C223.55,-500.565 232.7,-496.836 241,-492.837 279.714,-474.183 322.012,-446.167 343.23,-431.529"/>
<polygon fill="midnightblue" stroke="midnightblue" points="213.314,-500.641 205.091,-507.323 215.686,-507.227 213.314,-500.641"/>
</g>
<!-- Node963&#45;&gt;Node936 -->
<g id="edge14" class="edge"><title>Node963&#45;&gt;Node936</title>
<path fill="none" stroke="midnightblue" d="M377.081,-438.338C416.658,-474.457 510.453,-560.056 548.519,-594.796"/>
<polygon fill="midnightblue" stroke="midnightblue" points="379.245,-435.574 369.499,-431.418 374.526,-440.745 379.245,-435.574"/>
</g>
<!-- Node963&#45;&gt;Node938 -->
<g id="edge15" class="edge"><title>Node963&#45;&gt;Node938</title>
<path fill="none" stroke="midnightblue" d="M368.351,-440.636C387.251,-478.244 431.875,-565.115 475,-634.837 501.287,-677.337 535.982,-724.995 553.632,-748.718"/>
<polygon fill="midnightblue" stroke="midnightblue" points="371.33,-438.767 363.726,-431.39 365.07,-441.9 371.33,-438.767"/>
</g>
<!-- Node963&#45;&gt;Node946 -->
<g id="edge16" class="edge"><title>Node963&#45;&gt;Node946</title>
<path fill="none" stroke="midnightblue" d="M428.443,-432.961C453.414,-436.961 481.339,-441.435 505.398,-445.289"/>
<polygon fill="midnightblue" stroke="midnightblue" points="428.735,-429.463 418.307,-431.338 427.628,-436.375 428.735,-429.463"/>
</g>
<!-- Node963&#45;&gt;Node961 -->
<g id="edge17" class="edge"><title>Node963&#45;&gt;Node961</title>
<path fill="none" stroke="midnightblue" d="M428.443,-410.713C453.414,-406.712 481.339,-402.239 505.398,-398.385"/>
<polygon fill="midnightblue" stroke="midnightblue" points="427.628,-407.298 418.307,-412.336 428.735,-414.21 427.628,-407.298"/>
</g>
<!-- Node963&#45;&gt;Node969 -->
<g id="edge18" class="edge"><title>Node963&#45;&gt;Node969</title>
<path fill="none" stroke="midnightblue" d="M372.103,-403.708C409.923,-351.385 518.8,-200.755 553.93,-152.153"/>
<polygon fill="midnightblue" stroke="midnightblue" points="369.112,-401.872 366.091,-412.027 374.786,-405.972 369.112,-401.872"/>
</g>
<!-- Node963&#45;&gt;Node971 -->
<g id="edge19" class="edge"><title>Node963&#45;&gt;Node971</title>
<path fill="none" stroke="midnightblue" d="M383.14,-406.837C425.965,-380.228 514.064,-325.487 549.618,-303.395"/>
<polygon fill="midnightblue" stroke="midnightblue" points="381.13,-403.965 374.483,-412.216 384.825,-409.911 381.13,-403.965"/>
</g>
<!-- Node972&#45;&gt;Node963 -->
<g id="edge21" class="edge"><title>Node972&#45;&gt;Node963</title>
<path fill="none" stroke="midnightblue" d="M226.031,-435.509C242.91,-433.747 262.08,-431.746 280.444,-429.829"/>
<polygon fill="midnightblue" stroke="midnightblue" points="225.427,-432.053 215.844,-436.573 226.154,-439.016 225.427,-432.053"/>
</g>
<!-- Node973&#45;&gt;Node963 -->
<g id="edge23" class="edge"><title>Node973&#45;&gt;Node963</title>
<path fill="none" stroke="midnightblue" d="M221.946,-407.738C239.759,-409.597 260.54,-411.767 280.384,-413.839"/>
<polygon fill="midnightblue" stroke="midnightblue" points="222.14,-404.239 211.83,-406.682 221.413,-411.201 222.14,-404.239"/>
</g>
<!-- Node974&#45;&gt;Node963 -->
<g id="edge25" class="edge"><title>Node974&#45;&gt;Node963</title>
<path fill="none" stroke="midnightblue" d="M218.637,-377.157C226.111,-379.336 233.789,-381.619 241,-383.837 271.18,-393.121 305.525,-404.471 328.963,-412.336"/>
<polygon fill="midnightblue" stroke="midnightblue" points="219.564,-373.782 208.985,-374.365 217.619,-380.506 219.564,-373.782"/>
</g>
<!-- Node975&#45;&gt;Node963 -->
<g id="edge27" class="edge"><title>Node975&#45;&gt;Node963</title>
<path fill="none" stroke="midnightblue" d="M225.221,-339.569C230.632,-341.448 235.988,-343.537 241,-345.837 281.702,-364.511 324.495,-396.169 344.854,-412.086"/>
<polygon fill="midnightblue" stroke="midnightblue" points="226.076,-336.167 215.484,-336.413 223.917,-342.826 226.076,-336.167"/>
</g>
<!-- Node976&#45;&gt;Node977 -->
<g id="edge30" class="edge"><title>Node976&#45;&gt;Node977</title>
<path fill="none" stroke="midnightblue" d="M230.946,-163.156C256.756,-157.767 287.007,-151.451 311.404,-146.357"/>
<polygon fill="midnightblue" stroke="midnightblue" points="230,-159.778 220.926,-165.248 231.431,-166.63 230,-159.778"/>
</g>
<!-- Node977&#45;&gt;Node969 -->
<g id="edge31" class="edge"><title>Node977&#45;&gt;Node969</title>
<path fill="none" stroke="midnightblue" d="M449.376,-136.837C470.871,-136.837 493.11,-136.837 512.274,-136.837"/>
<polygon fill="midnightblue" stroke="midnightblue" points="449.235,-133.337 439.235,-136.837 449.235,-140.337 449.235,-133.337"/>
</g>
<!-- Node979&#45;&gt;Node977 -->
<g id="edge33" class="edge"><title>Node979&#45;&gt;Node977</title>
<path fill="none" stroke="midnightblue" d="M230.946,-110.518C256.756,-115.907 287.007,-122.223 311.404,-127.317"/>
<polygon fill="midnightblue" stroke="midnightblue" points="231.431,-107.044 220.926,-108.426 230,-113.896 231.431,-107.044"/>
</g>
<!-- Node980&#45;&gt;Node977 -->
<g id="edge35" class="edge"><title>Node980&#45;&gt;Node977</title>
<path fill="none" stroke="midnightblue" d="M222.276,-73.3459C228.629,-75.3463 235.014,-77.5255 241,-79.8369 277.213,-93.8207 317.457,-114.935 339.746,-127.157"/>
<polygon fill="midnightblue" stroke="midnightblue" points="222.967,-69.8985 212.382,-70.3561 220.942,-76.5992 222.967,-69.8985"/>
</g>
<!-- Node981&#45;&gt;Node977 -->
<g id="edge37" class="edge"><title>Node981&#45;&gt;Node977</title>
<path fill="none" stroke="midnightblue" d="M222.276,-200.328C228.629,-198.327 235.014,-196.148 241,-193.837 277.213,-179.853 317.457,-158.738 339.746,-146.517"/>
<polygon fill="midnightblue" stroke="midnightblue" points="220.942,-197.075 212.382,-203.318 222.967,-203.775 220.942,-197.075"/>
</g>
</g>
</svg>
