<?xml version="1.0" encoding="UTF-8" standalone="no"?>
<!DOCTYPE svg PUBLIC "-//W3C//DTD SVG 1.1//EN"
 "http://www.w3.org/Graphics/SVG/1.1/DTD/svg11.dtd">
<!-- Generated by graphviz version 2.38.0 (20140413.2041)
 -->
<!-- Title: AUDDSpeakerPhone_InitializeStream Pages: 1 -->
<svg width="361pt" height="66pt"
 viewBox="0.00 0.00 361.00 66.00" xmlns="http://www.w3.org/2000/svg" xmlns:xlink="http://www.w3.org/1999/xlink">
<g id="graph0" class="graph" transform="scale(1 1) rotate(0) translate(4 62)">
<title>AUDDSpeakerPhone_InitializeStream</title>
<polygon fill="white" stroke="none" points="-4,4 -4,-62 357,-62 357,4 -4,4"/>
<!-- Node208 -->
<g id="node1" class="node"><title>Node208</title>
<polygon fill="#bfbfbf" stroke="black" points="0,-14 0,-44 159,-44 159,-14 0,-14"/>
<text text-anchor="start" x="8" y="-32" font-family="Helvetica,sans-Serif" font-size="10.00">AUDDSpeakerPhone_Initialize</text>
<text text-anchor="middle" x="79.5" y="-21" font-family="Helvetica,sans-Serif" font-size="10.00">Stream</text>
</g>
<!-- Node209 -->
<g id="node2" class="node"><title>Node209</title>
<g id="a_node2"><a xlink:href="group__usbd__audio__speaker.xhtml#gafa5432b98a55735fdd034c32343743d9" target="_top" xlink:title="Initializes an USB audio speaker device driver, as well as the underlying USB controller. ">
<polygon fill="white" stroke="black" points="195,-38.5 195,-57.5 353,-57.5 353,-38.5 195,-38.5"/>
<text text-anchor="middle" x="274" y="-45.5" font-family="Helvetica,sans-Serif" font-size="10.00">AUDDSpeakerDriver_Initialize</text>
</a>
</g>
</g>
<!-- Node208&#45;&gt;Node209 -->
<g id="edge1" class="edge"><title>Node208&#45;&gt;Node209</title>
<path fill="none" stroke="midnightblue" d="M169.146,-37.7494C177.771,-38.6008 186.478,-39.4602 194.988,-40.3001"/>
<polygon fill="midnightblue" stroke="midnightblue" points="169.37,-34.2547 159.075,-36.7554 168.683,-41.2208 169.37,-34.2547"/>
</g>
<!-- Node210 -->
<g id="node3" class="node"><title>Node210</title>
<g id="a_node3"><a xlink:href="group__usbd__aud__fun.xhtml#gafe0d2176139fc21ee46d2b87c9269b96" target="_top" xlink:title="Initializes an USB audio speaker device driver, as well as the underlying USB controller. ">
<polygon fill="white" stroke="red" points="209.5,-0.5 209.5,-19.5 338.5,-19.5 338.5,-0.5 209.5,-0.5"/>
<text text-anchor="middle" x="274" y="-7.5" font-family="Helvetica,sans-Serif" font-size="10.00">AUDDFunction_Initialize</text>
</a>
</g>
</g>
<!-- Node208&#45;&gt;Node210 -->
<g id="edge2" class="edge"><title>Node208&#45;&gt;Node210</title>
<path fill="none" stroke="midnightblue" d="M169.348,-20.2306C182.855,-18.8974 196.558,-17.5449 209.384,-16.279"/>
<polygon fill="midnightblue" stroke="midnightblue" points="168.683,-16.7792 159.075,-21.2446 169.37,-23.7453 168.683,-16.7792"/>
</g>
</g>
</svg>
