<?xml version="1.0" encoding="UTF-8" standalone="no"?>
<!DOCTYPE svg PUBLIC "-//W3C//DTD SVG 1.1//EN"
 "http://www.w3.org/Graphics/SVG/1.1/DTD/svg11.dtd">
<!-- Generated by graphviz version 2.38.0 (20140413.2041)
 -->
<!-- Title: USBH_HAL_ControlReqEnd Pages: 1 -->
<svg width="511pt" height="180pt"
 viewBox="0.00 0.00 511.00 180.00" xmlns="http://www.w3.org/2000/svg" xmlns:xlink="http://www.w3.org/1999/xlink">
<g id="graph0" class="graph" transform="scale(1 1) rotate(0) translate(4 176)">
<title>USBH_HAL_ControlReqEnd</title>
<polygon fill="white" stroke="none" points="-4,4 -4,-176 507,-176 507,4 -4,4"/>
<!-- Node101 -->
<g id="node1" class="node"><title>Node101</title>
<polygon fill="#bfbfbf" stroke="black" points="0,-57.5 0,-76.5 145,-76.5 145,-57.5 0,-57.5"/>
<text text-anchor="middle" x="72.5" y="-64.5" font-family="Helvetica,sans-Serif" font-size="10.00">USBH_HAL_ControlReqEnd</text>
</g>
<!-- Node102 -->
<g id="node2" class="node"><title>Node102</title>
<g id="a_node2"><a xlink:href="group__interrupt__group.xhtml#ga9931bf539005d3f12b461928823a0ae2" target="_top" xlink:title="cpu_irq_save">
<polygon fill="white" stroke="black" points="225,-152.5 225,-171.5 304,-171.5 304,-152.5 225,-152.5"/>
<text text-anchor="middle" x="264.5" y="-159.5" font-family="Helvetica,sans-Serif" font-size="10.00">cpu_irq_save</text>
</a>
</g>
</g>
<!-- Node101&#45;&gt;Node102 -->
<g id="edge1" class="edge"><title>Node101&#45;&gt;Node102</title>
<path fill="none" stroke="midnightblue" d="M83.9234,-76.5222C102.189,-92.6862 141.78,-125.444 181,-143 191.583,-147.737 203.479,-151.359 214.872,-154.103"/>
<polygon fill="midnightblue" stroke="midnightblue" points="214.188,-157.537 224.71,-156.295 215.71,-150.704 214.188,-157.537"/>
</g>
<!-- Node103 -->
<g id="node3" class="node"><title>Node103</title>
<g id="a_node3"><a xlink:href="group__interrupt__group.xhtml#gae4d6d11a5211f6bd00353f280aa78f6f" target="_top" xlink:title="cpu_irq_restore">
<polygon fill="white" stroke="red" points="219,-114.5 219,-133.5 310,-133.5 310,-114.5 219,-114.5"/>
<text text-anchor="middle" x="264.5" y="-121.5" font-family="Helvetica,sans-Serif" font-size="10.00">cpu_irq_restore</text>
</a>
</g>
</g>
<!-- Node101&#45;&gt;Node103 -->
<g id="edge2" class="edge"><title>Node101&#45;&gt;Node103</title>
<path fill="none" stroke="midnightblue" d="M104.046,-76.5081C125.542,-83.167 155,-92.228 181,-100 193.743,-103.809 207.618,-107.876 220.29,-111.56"/>
<polygon fill="midnightblue" stroke="midnightblue" points="219.571,-114.995 230.15,-114.419 221.52,-108.272 219.571,-114.995"/>
</g>
<!-- Node105 -->
<g id="node4" class="node"><title>Node105</title>
<g id="a_node4"><a xlink:href="usbhs_8h.xhtml#a963fd2f0eab05393ff85e14bfd909021" target="_top" xlink:title="USBHS_HostGetAddr">
<polygon fill="white" stroke="black" points="384,-57.5 384,-76.5 503,-76.5 503,-57.5 384,-57.5"/>
<text text-anchor="middle" x="443.5" y="-64.5" font-family="Helvetica,sans-Serif" font-size="10.00">USBHS_HostGetAddr</text>
</a>
</g>
</g>
<!-- Node101&#45;&gt;Node105 -->
<g id="edge3" class="edge"><title>Node101&#45;&gt;Node105</title>
<path fill="none" stroke="midnightblue" d="M145.084,-67C211.133,-67 308.551,-67 373.699,-67"/>
<polygon fill="midnightblue" stroke="midnightblue" points="373.868,-70.5001 383.868,-67 373.868,-63.5001 373.868,-70.5001"/>
</g>
<!-- Node106 -->
<g id="node5" class="node"><title>Node106</title>
<g id="a_node5"><a xlink:href="group__uhd__group.xhtml#ga1ddb6a33201674d513c4ad9c5de79e93" target="_top" xlink:title="USBH_HAL_PhaseControlSetup">
<polygon fill="white" stroke="red" points="181,-38.5 181,-57.5 348,-57.5 348,-38.5 181,-38.5"/>
<text text-anchor="middle" x="264.5" y="-45.5" font-family="Helvetica,sans-Serif" font-size="10.00">USBH_HAL_PhaseControlSetup</text>
</a>
</g>
</g>
<!-- Node101&#45;&gt;Node106 -->
<g id="edge4" class="edge"><title>Node101&#45;&gt;Node106</title>
<path fill="none" stroke="midnightblue" d="M112.868,-57.4705C129.775,-54.9793 150.312,-52.5404 170.713,-50.5303"/>
<polygon fill="midnightblue" stroke="midnightblue" points="171.078,-54.0115 180.701,-49.5796 170.414,-47.043 171.078,-54.0115"/>
</g>
<!-- Node112 -->
<g id="node6" class="node"><title>Node112</title>
<g id="a_node6"><a xlink:href="group__uhd__group.xhtml#ga108d6958efd3c7337897ae40963e3f58" target="_top" xlink:title="Enables the suspend state on the USB line. ">
<polygon fill="white" stroke="red" points="206,-0.5 206,-19.5 323,-19.5 323,-0.5 206,-0.5"/>
<text text-anchor="middle" x="264.5" y="-7.5" font-family="Helvetica,sans-Serif" font-size="10.00">USBH_HAL_Suspend</text>
</a>
</g>
</g>
<!-- Node101&#45;&gt;Node112 -->
<g id="edge7" class="edge"><title>Node101&#45;&gt;Node112</title>
<path fill="none" stroke="midnightblue" d="M98.0056,-57.442C119.628,-49.2245 152.109,-37.4037 181,-29 189.706,-26.4676 199.007,-24.0525 208.11,-21.8451"/>
<polygon fill="midnightblue" stroke="midnightblue" points="208.947,-25.2437 217.873,-19.5356 207.335,-18.4317 208.947,-25.2437"/>
</g>
<!-- Node106&#45;&gt;Node101 -->
<g id="edge5" class="edge"><title>Node106&#45;&gt;Node101</title>
<path fill="none" stroke="midnightblue" d="M224.209,-57.5182C204.223,-60.465 179.152,-63.3395 155.226,-65.5185"/>
<polygon fill="midnightblue" stroke="midnightblue" points="154.717,-62.0496 145.06,-66.408 155.327,-69.0229 154.717,-62.0496"/>
</g>
<!-- Node106&#45;&gt;Node105 -->
<g id="edge6" class="edge"><title>Node106&#45;&gt;Node105</title>
<path fill="none" stroke="midnightblue" d="M348.041,-56.8603C356.627,-57.7819 365.288,-58.7117 373.699,-59.6145"/>
<polygon fill="midnightblue" stroke="midnightblue" points="373.496,-63.1128 383.812,-60.7002 374.243,-56.1528 373.496,-63.1128"/>
</g>
</g>
</svg>
