<?xml version="1.0" encoding="UTF-8" standalone="no"?>
<!DOCTYPE svg PUBLIC "-//W3C//DTD SVG 1.1//EN"
 "http://www.w3.org/Graphics/SVG/1.1/DTD/svg11.dtd">
<!-- Generated by graphviz version 2.38.0 (20140413.2041)
 -->
<!-- Title: HIDReportRequest_GetReportType Pages: 1 -->
<svg width="526pt" height="53pt"
 viewBox="0.00 0.00 526.00 52.50" xmlns="http://www.w3.org/2000/svg" xmlns:xlink="http://www.w3.org/1999/xlink">
<g id="graph0" class="graph" transform="scale(1 1) rotate(0) translate(4 48.5)">
<title>HIDReportRequest_GetReportType</title>
<polygon fill="white" stroke="none" points="-4,4 -4,-48.5 522,-48.5 522,4 -4,4"/>
<!-- Node33 -->
<g id="node1" class="node"><title>Node33</title>
<polygon fill="#bfbfbf" stroke="black" points="0,-6 0,-25 177,-25 177,-6 0,-6"/>
<text text-anchor="middle" x="88.5" y="-13" font-family="Helvetica,sans-Serif" font-size="10.00">HIDReportRequest_GetReportType</text>
</g>
<!-- Node34 -->
<g id="node2" class="node"><title>Node34</title>
<g id="a_node2"><a xlink:href="group__usbd__hid.xhtml#ga6a3177814ff14ce51040bd58817d4064" target="_top" xlink:title="Handles HID&#45;specific SETUP request sent by the host. ">
<polygon fill="white" stroke="red" points="213,-25 213,-44 375,-44 375,-25 213,-25"/>
<text text-anchor="middle" x="294" y="-32" font-family="Helvetica,sans-Serif" font-size="10.00">HIDDFunction_RequestHandler</text>
</a>
</g>
</g>
<!-- Node33&#45;&gt;Node34 -->
<g id="edge1" class="edge"><title>Node33&#45;&gt;Node34</title>
<path fill="none" stroke="midnightblue" d="M187.309,-24.6321C195.881,-25.4324 204.49,-26.2361 212.892,-27.0206"/>
<polygon fill="midnightblue" stroke="midnightblue" points="187.561,-21.1404 177.279,-23.6956 186.91,-28.1101 187.561,-21.1404"/>
</g>
<!-- Node41 -->
<g id="node3" class="node"><title>Node41</title>
<g id="a_node3"><a xlink:href="group__usbd__hid__tran.xhtml#ga7339bf87c3b8556a76557ac341318265" target="_top" xlink:title="Handles HID&#45;specific SETUP request sent by the host. ">
<polygon fill="white" stroke="black" points="411,-0.5 411,-30.5 518,-30.5 518,-0.5 411,-0.5"/>
<text text-anchor="start" x="419" y="-18.5" font-family="Helvetica,sans-Serif" font-size="10.00">HIDDTransferDriver</text>
<text text-anchor="middle" x="464.5" y="-7.5" font-family="Helvetica,sans-Serif" font-size="10.00">_RequestHandler</text>
</a>
</g>
</g>
<!-- Node33&#45;&gt;Node41 -->
<g id="edge3" class="edge"><title>Node33&#45;&gt;Node41</title>
<path fill="none" stroke="midnightblue" d="M187.566,-15.5C259.077,-15.5 353.207,-15.5 410.98,-15.5"/>
<polygon fill="midnightblue" stroke="midnightblue" points="187.186,-12.0001 177.186,-15.5 187.186,-19.0001 187.186,-12.0001"/>
</g>
<!-- Node34&#45;&gt;Node41 -->
<g id="edge2" class="edge"><title>Node34&#45;&gt;Node41</title>
<path fill="none" stroke="midnightblue" d="M385.461,-24.2996C394.1,-23.3255 402.651,-22.3613 410.749,-21.4482"/>
<polygon fill="midnightblue" stroke="midnightblue" points="384.847,-20.8466 375.302,-25.4452 385.631,-27.8025 384.847,-20.8466"/>
</g>
</g>
</svg>
