<?xml version="1.0" encoding="UTF-8" standalone="no"?>
<!DOCTYPE svg PUBLIC "-//W3C//DTD SVG 1.1//EN"
 "http://www.w3.org/Graphics/SVG/1.1/DTD/svg11.dtd">
<!-- Generated by graphviz version 2.38.0 (20140413.2041)
 -->
<!-- Title: USBGenericDescriptor_Parse Pages: 1 -->
<svg width="362pt" height="230pt"
 viewBox="0.00 0.00 362.00 229.50" xmlns="http://www.w3.org/2000/svg" xmlns:xlink="http://www.w3.org/1999/xlink">
<g id="graph0" class="graph" transform="scale(1 1) rotate(0) translate(4 225.5)">
<title>USBGenericDescriptor_Parse</title>
<polygon fill="white" stroke="none" points="-4,4 -4,-225.5 358,-225.5 358,4 -4,4"/>
<!-- Node398 -->
<g id="node1" class="node"><title>Node398</title>
<polygon fill="#bfbfbf" stroke="black" points="0,-90 0,-120 124,-120 124,-90 0,-90"/>
<text text-anchor="start" x="8" y="-108" font-family="Helvetica,sans-Serif" font-size="10.00">USBGenericDescriptor</text>
<text text-anchor="middle" x="62" y="-97" font-family="Helvetica,sans-Serif" font-size="10.00">_Parse</text>
</g>
<!-- Node399 -->
<g id="node2" class="node"><title>Node399</title>
<g id="a_node2"><a xlink:href="group__usbd__audio__speakerphone.xhtml#ga44871402f8ef778c0f87249bcc18dca4" target="_top" xlink:title="Invoked whenever the active configuration of device is changed by the host. ">
<polygon fill="white" stroke="black" points="177,-191 177,-221 337,-221 337,-191 177,-191"/>
<text text-anchor="start" x="185" y="-209" font-family="Helvetica,sans-Serif" font-size="10.00">AUDDSpeakerPhoneDriver</text>
<text text-anchor="middle" x="257" y="-198" font-family="Helvetica,sans-Serif" font-size="10.00">_ConfigurationChangeHandler</text>
</a>
</g>
</g>
<!-- Node398&#45;&gt;Node399 -->
<g id="edge1" class="edge"><title>Node398&#45;&gt;Node399</title>
<path fill="none" stroke="midnightblue" d="M85.452,-127.013C104.016,-144.059 131.816,-167.047 160,-181 167.795,-184.859 176.25,-188.168 184.801,-190.994"/>
<polygon fill="midnightblue" stroke="midnightblue" points="87.7785,-124.396 78.0873,-120.115 82.9932,-129.505 87.7785,-124.396"/>
</g>
<!-- Node400 -->
<g id="node3" class="node"><title>Node400</title>
<g id="a_node3"><a xlink:href="group__usbd__audio__speakerphone.xhtml#gaf91d732a990083d002a90e0efd29f6e5" target="_top" xlink:title="Parse USB Audio streaming information for AUDDStream instance. ">
<polygon fill="white" stroke="red" points="160,-152.5 160,-171.5 354,-171.5 354,-152.5 160,-152.5"/>
<text text-anchor="middle" x="257" y="-159.5" font-family="Helvetica,sans-Serif" font-size="10.00">AUDDSpeakerPhone_ParseInterfaces</text>
</a>
</g>
</g>
<!-- Node398&#45;&gt;Node400 -->
<g id="edge2" class="edge"><title>Node398&#45;&gt;Node400</title>
<path fill="none" stroke="midnightblue" d="M106.454,-123.93C122.991,-130.626 142.15,-137.782 160,-143 172.475,-146.647 186.067,-149.81 198.995,-152.454"/>
<polygon fill="midnightblue" stroke="midnightblue" points="107.63,-120.629 97.0502,-120.059 104.965,-127.102 107.63,-120.629"/>
</g>
<!-- Node405 -->
<g id="node4" class="node"><title>Node405</title>
<g id="a_node4"><a xlink:href="group__usbd__cdc.xhtml#ga6c9e140e48ceaa47a7cc57cd4e144553" target="_top" xlink:title="Parse CDC EEM Port information for CDCDEEMPort instance. ">
<polygon fill="white" stroke="red" points="175,-114.5 175,-133.5 339,-133.5 339,-114.5 175,-114.5"/>
<text text-anchor="middle" x="257" y="-121.5" font-family="Helvetica,sans-Serif" font-size="10.00">CDCDEEMPort_ParseInterfaces</text>
</a>
</g>
</g>
<!-- Node398&#45;&gt;Node405 -->
<g id="edge3" class="edge"><title>Node398&#45;&gt;Node405</title>
<path fill="none" stroke="midnightblue" d="M134.063,-111.996C147.336,-113.302 161.3,-114.677 174.85,-116.011"/>
<polygon fill="midnightblue" stroke="midnightblue" points="134.361,-108.508 124.066,-111.012 133.675,-115.475 134.361,-108.508"/>
</g>
<!-- Node408 -->
<g id="node5" class="node"><title>Node408</title>
<g id="a_node5"><a xlink:href="group__usbd__cdc.xhtml#ga4935aee506e10a71e0f13aad3ab80896" target="_top" xlink:title="Parse CDC Serial Port information for CDCDSerialPort instance. ">
<polygon fill="white" stroke="red" points="172,-76.5 172,-95.5 342,-95.5 342,-76.5 172,-76.5"/>
<text text-anchor="middle" x="257" y="-83.5" font-family="Helvetica,sans-Serif" font-size="10.00">CDCDSerialPort_ParseInterfaces</text>
</a>
</g>
</g>
<!-- Node398&#45;&gt;Node408 -->
<g id="edge4" class="edge"><title>Node398&#45;&gt;Node408</title>
<path fill="none" stroke="midnightblue" d="M134.17,-97.9936C146.384,-96.7912 159.18,-95.5315 171.698,-94.2991"/>
<polygon fill="midnightblue" stroke="midnightblue" points="133.675,-94.5253 124.066,-98.9883 134.361,-101.492 133.675,-94.5253"/>
</g>
<!-- Node415 -->
<g id="node6" class="node"><title>Node415</title>
<g id="a_node6"><a xlink:href="group__usbd__hid.xhtml#ga82ccc86124b2cd8918810b69c0afec13" target="_top" xlink:title="Parse the USB HID Function Interface. ">
<polygon fill="white" stroke="red" points="179.5,-38.5 179.5,-57.5 334.5,-57.5 334.5,-38.5 179.5,-38.5"/>
<text text-anchor="middle" x="257" y="-45.5" font-family="Helvetica,sans-Serif" font-size="10.00">HIDDFunction_ParseInterface</text>
</a>
</g>
</g>
<!-- Node398&#45;&gt;Node415 -->
<g id="edge5" class="edge"><title>Node398&#45;&gt;Node415</title>
<path fill="none" stroke="midnightblue" d="M106.454,-86.0701C122.991,-79.3739 142.15,-72.2176 160,-67 172.475,-63.3534 186.067,-60.1895 198.995,-57.5455"/>
<polygon fill="midnightblue" stroke="midnightblue" points="104.965,-82.8981 97.0502,-89.9413 107.63,-89.3711 104.965,-82.8981"/>
</g>
<!-- Node421 -->
<g id="node7" class="node"><title>Node421</title>
<g id="a_node7"><a xlink:href="group__usbd__msd.xhtml#gafb1268e0849907894c708ccc4ab46fee" target="_top" xlink:title="Invoked when the configuration of the device changes. ">
<polygon fill="white" stroke="red" points="192,-0.5 192,-19.5 322,-19.5 322,-0.5 192,-0.5"/>
<text text-anchor="middle" x="257" y="-7.5" font-family="Helvetica,sans-Serif" font-size="10.00">MSDFunction_Configure</text>
</a>
</g>
</g>
<!-- Node398&#45;&gt;Node421 -->
<g id="edge6" class="edge"><title>Node398&#45;&gt;Node421</title>
<path fill="none" stroke="midnightblue" d="M84.9052,-82.8373C103.344,-65.4987 131.244,-42.188 160,-29 169.961,-24.4317 180.997,-20.9593 191.933,-18.3206"/>
<polygon fill="midnightblue" stroke="midnightblue" points="82.3892,-80.4011 77.6075,-89.8556 87.2414,-85.4466 82.3892,-80.4011"/>
</g>
</g>
</svg>
