<?xml version="1.0" encoding="UTF-8" standalone="no"?>
<!DOCTYPE svg PUBLIC "-//W3C//DTD SVG 1.1//EN"
 "http://www.w3.org/Graphics/SVG/1.1/DTD/svg11.dtd">
<!-- Generated by graphviz version 2.38.0 (20140413.2041)
 -->
<!-- Title: SAMV71Q19 definitions Pages: 1 -->
<svg width="322pt" height="230pt"
 viewBox="0.00 0.00 322.00 230.00" xmlns="http://www.w3.org/2000/svg" xmlns:xlink="http://www.w3.org/1999/xlink">
<g id="graph0" class="graph" transform="scale(1 1) rotate(0) translate(4 226)">
<title>SAMV71Q19 definitions</title>
<polygon fill="white" stroke="none" points="-4,4 -4,-226 318,-226 318,4 -4,4"/>
<!-- Node3 -->
<g id="node1" class="node"><title>Node3</title>
<g id="a_node1"><a xlink:href="group___s_a_m_v71_q19__reg.xhtml" target="_top" xlink:title="Registers Access Definitions">
<polygon fill="white" stroke="black" points="164,-202.5 164,-221.5 314,-221.5 314,-202.5 164,-202.5"/>
<text text-anchor="middle" x="239" y="-209.5" font-family="Helvetica,sans-Serif" font-size="10.00">Registers Access Definitions</text>
</a>
</g>
</g>
<!-- Node1 -->
<g id="node2" class="node"><title>Node1</title>
<g id="a_node2"><a xlink:href="group___s_a_m_v71_q19__cmsis.xhtml" target="_top" xlink:title="CMSIS Definitions">
<polygon fill="white" stroke="black" points="188.5,-164.5 188.5,-183.5 289.5,-183.5 289.5,-164.5 188.5,-164.5"/>
<text text-anchor="middle" x="239" y="-171.5" font-family="Helvetica,sans-Serif" font-size="10.00">CMSIS Definitions</text>
</a>
</g>
</g>
<!-- Node4 -->
<g id="node3" class="node"><title>Node4</title>
<g id="a_node3"><a xlink:href="group___s_a_m_v71_q19__id.xhtml" target="_top" xlink:title="Peripheral Ids Definitions">
<polygon fill="white" stroke="black" points="172,-126.5 172,-145.5 306,-145.5 306,-126.5 172,-126.5"/>
<text text-anchor="middle" x="239" y="-133.5" font-family="Helvetica,sans-Serif" font-size="10.00">Peripheral Ids Definitions</text>
</a>
</g>
</g>
<!-- Node0 -->
<g id="node4" class="node"><title>Node0</title>
<polygon fill="#bfbfbf" stroke="black" points="0,-104.5 0,-123.5 128,-123.5 128,-104.5 0,-104.5"/>
<text text-anchor="middle" x="64" y="-111.5" font-family="Helvetica,sans-Serif" font-size="10.00">SAMV71Q19 definitions</text>
</g>
<!-- Node0&#45;&gt;Node3 -->
<g id="edge3" class="edge"><title>Node0&#45;&gt;Node3</title>
<path fill="none" stroke="black" d="M81.4479,-130.833C99.9279,-148.798 131.6,-176.85 164,-193 171.716,-196.846 180.285,-199.964 188.775,-202.476"/>
<polygon fill="black" stroke="black" points="83.7143,-128.151 74.1509,-123.591 78.7834,-133.12 83.7143,-128.151"/>
</g>
<!-- Node0&#45;&gt;Node1 -->
<g id="edge1" class="edge"><title>Node0&#45;&gt;Node1</title>
<path fill="none" stroke="black" d="M94.7763,-127.626C114.217,-136.198 140.298,-147.093 164,-155 174.443,-158.484 185.894,-161.706 196.6,-164.47"/>
<polygon fill="black" stroke="black" points="96.0938,-124.381 85.5352,-123.506 93.2433,-130.775 96.0938,-124.381"/>
</g>
<!-- Node0&#45;&gt;Node4 -->
<g id="edge4" class="edge"><title>Node0&#45;&gt;Node4</title>
<path fill="none" stroke="black" d="M138.529,-123.351C149.632,-124.762 161.026,-126.211 171.958,-127.602"/>
<polygon fill="black" stroke="black" points="138.798,-119.857 128.436,-122.067 137.915,-126.801 138.798,-119.857"/>
</g>
<!-- Node5 -->
<g id="node5" class="node"><title>Node5</title>
<g id="a_node5"><a xlink:href="group___s_a_m_v71_q19__base.xhtml" target="_top" xlink:title="Peripheral Base Address\l Definitions">
<polygon fill="white" stroke="black" points="172,-77 172,-107 306,-107 306,-77 172,-77"/>
<text text-anchor="start" x="180" y="-95" font-family="Helvetica,sans-Serif" font-size="10.00">Peripheral Base Address</text>
<text text-anchor="middle" x="239" y="-84" font-family="Helvetica,sans-Serif" font-size="10.00"> Definitions</text>
</a>
</g>
</g>
<!-- Node0&#45;&gt;Node5 -->
<g id="edge5" class="edge"><title>Node0&#45;&gt;Node5</title>
<path fill="none" stroke="black" d="M138.529,-104.649C149.632,-103.238 161.026,-101.789 171.958,-100.398"/>
<polygon fill="black" stroke="black" points="137.915,-101.199 128.436,-105.933 138.798,-108.143 137.915,-101.199"/>
</g>
<!-- Node6 -->
<g id="node6" class="node"><title>Node6</title>
<g id="a_node6"><a xlink:href="group___s_a_m_v71_q19__pio.xhtml" target="_top" xlink:title="Peripheral Pio Definitions">
<polygon fill="white" stroke="black" points="171.5,-38.5 171.5,-57.5 306.5,-57.5 306.5,-38.5 171.5,-38.5"/>
<text text-anchor="middle" x="239" y="-45.5" font-family="Helvetica,sans-Serif" font-size="10.00">Peripheral Pio Definitions</text>
</a>
</g>
</g>
<!-- Node0&#45;&gt;Node6 -->
<g id="edge6" class="edge"><title>Node0&#45;&gt;Node6</title>
<path fill="none" stroke="black" d="M92.171,-99.8373C111.769,-90.0049 139.057,-77.0899 164,-68 174.753,-64.0813 186.633,-60.5384 197.668,-57.561"/>
<polygon fill="black" stroke="black" points="90.5437,-96.7382 83.2117,-104.386 93.7128,-102.98 90.5437,-96.7382"/>
</g>
<!-- Node2 -->
<g id="node7" class="node"><title>Node2</title>
<g id="a_node7"><a xlink:href="group___s_a_m_v71_q19__api.xhtml" target="_top" xlink:title="SOFTWARE PERIPHERAL API DEFINITION FOR SAMV71Q19. ">
<polygon fill="white" stroke="black" points="175,-0.5 175,-19.5 303,-19.5 303,-0.5 175,-0.5"/>
<text text-anchor="middle" x="239" y="-7.5" font-family="Helvetica,sans-Serif" font-size="10.00">Peripheral Software API</text>
</a>
</g>
</g>
<!-- Node0&#45;&gt;Node2 -->
<g id="edge2" class="edge"><title>Node0&#45;&gt;Node2</title>
<path fill="none" stroke="black" d="M80.088,-97.008C98.161,-77.6979 130.25,-46.5875 164,-29 171.41,-25.1383 179.655,-22.0267 187.875,-19.5297"/>
<polygon fill="black" stroke="black" points="77.4104,-94.7495 73.2366,-104.488 82.5722,-99.4778 77.4104,-94.7495"/>
</g>
</g>
</svg>
