<?xml version="1.0" encoding="UTF-8" standalone="no"?>
<!DOCTYPE svg PUBLIC "-//W3C//DTD SVG 1.1//EN"
 "http://www.w3.org/Graphics/SVG/1.1/DTD/svg11.dtd">
<!-- Generated by graphviz version 2.38.0 (20140413.2041)
 -->
<!-- Title: XDMAC_DisableGIt Pages: 1 -->
<svg width="308pt" height="66pt"
 viewBox="0.00 0.00 308.00 66.00" xmlns="http://www.w3.org/2000/svg" xmlns:xlink="http://www.w3.org/1999/xlink">
<g id="graph0" class="graph" transform="scale(1 1) rotate(0) translate(4 62)">
<title>XDMAC_DisableGIt</title>
<polygon fill="white" stroke="none" points="-4,4 -4,-62 304,-62 304,4 -4,4"/>
<!-- Node131 -->
<g id="node1" class="node"><title>Node131</title>
<polygon fill="#bfbfbf" stroke="black" points="0,-19.5 0,-38.5 106,-38.5 106,-19.5 0,-19.5"/>
<text text-anchor="middle" x="53" y="-26.5" font-family="Helvetica,sans-Serif" font-size="10.00">XDMAC_DisableGIt</text>
</g>
<!-- Node132 -->
<g id="node2" class="node"><title>Node132</title>
<g id="a_node2"><a xlink:href="qspi__dma_8c.xhtml#a3f74a9c30f8d87121341efbe86f7b992" target="_top" xlink:title="Disables a QSPI Rx channel. ">
<polygon fill="white" stroke="red" points="142,-38.5 142,-57.5 300,-57.5 300,-38.5 142,-38.5"/>
<text text-anchor="middle" x="221" y="-45.5" font-family="Helvetica,sans-Serif" font-size="10.00">QSPID_DisableQspiRxChannel</text>
</a>
</g>
</g>
<!-- Node131&#45;&gt;Node132 -->
<g id="edge1" class="edge"><title>Node131&#45;&gt;Node132</title>
<path fill="none" stroke="midnightblue" d="M116.165,-36.1153C124.588,-37.0794 133.318,-38.0785 141.975,-39.0694"/>
<polygon fill="midnightblue" stroke="midnightblue" points="116.401,-32.6195 106.068,-34.9596 115.605,-39.5741 116.401,-32.6195"/>
</g>
<!-- Node144 -->
<g id="node3" class="node"><title>Node144</title>
<g id="a_node3"><a xlink:href="group__dmad__functions.xhtml#ga2a7947467c04eb39abee2471d846ee35" target="_top" xlink:title="Enable clock of the xDMA peripheral, Enable the dma peripheral, configure configuration register for ...">
<polygon fill="white" stroke="red" points="154,-0.5 154,-19.5 288,-19.5 288,-0.5 154,-0.5"/>
<text text-anchor="middle" x="221" y="-7.5" font-family="Helvetica,sans-Serif" font-size="10.00">XDMAD_PrepareChannel</text>
</a>
</g>
</g>
<!-- Node131&#45;&gt;Node144 -->
<g id="edge2" class="edge"><title>Node131&#45;&gt;Node144</title>
<path fill="none" stroke="midnightblue" d="M116.193,-21.8815C128.459,-20.4776 141.372,-18.9996 153.765,-17.5811"/>
<polygon fill="midnightblue" stroke="midnightblue" points="115.605,-18.4259 106.068,-23.0404 116.401,-25.3805 115.605,-18.4259"/>
</g>
</g>
</svg>
