<?xml version="1.0" encoding="UTF-8" standalone="no"?>
<!DOCTYPE svg PUBLIC "-//W3C//DTD SVG 1.1//EN"
 "http://www.w3.org/Graphics/SVG/1.1/DTD/svg11.dtd">
<!-- Generated by graphviz version 2.38.0 (20140413.2041)
 -->
<!-- Title: UDPHS_EndpointHandler Pages: 1 -->
<svg width="318pt" height="446pt"
 viewBox="0.00 0.00 318.00 446.00" xmlns="http://www.w3.org/2000/svg" xmlns:xlink="http://www.w3.org/1999/xlink">
<g id="graph0" class="graph" transform="scale(1 1) rotate(0) translate(4 442)">
<title>UDPHS_EndpointHandler</title>
<polygon fill="white" stroke="none" points="-4,4 -4,-442 314,-442 314,4 -4,4"/>
<!-- Node642 -->
<g id="node1" class="node"><title>Node642</title>
<polygon fill="#bfbfbf" stroke="black" points="0,-209.5 0,-228.5 137,-228.5 137,-209.5 0,-209.5"/>
<text text-anchor="middle" x="68.5" y="-216.5" font-family="Helvetica,sans-Serif" font-size="10.00">UDPHS_EndpointHandler</text>
</g>
<!-- Node643 -->
<g id="node2" class="node"><title>Node643</title>
<g id="a_node2"><a xlink:href="usbhs_8h.xhtml#abc21e0a5d2ce477178c31b3a3049bd33" target="_top" xlink:title="Gets interrupt status for a given EP. ">
<polygon fill="white" stroke="black" points="179.5,-418.5 179.5,-437.5 303.5,-437.5 303.5,-418.5 179.5,-418.5"/>
<text text-anchor="middle" x="241.5" y="-425.5" font-family="Helvetica,sans-Serif" font-size="10.00">USBHS_ReadEPStatus</text>
</a>
</g>
</g>
<!-- Node642&#45;&gt;Node643 -->
<g id="edge1" class="edge"><title>Node642&#45;&gt;Node643</title>
<path fill="none" stroke="midnightblue" d="M71.8686,-228.617C80.0533,-259.785 110.153,-358.882 173,-409 175.275,-410.815 177.715,-412.456 180.267,-413.941"/>
<polygon fill="midnightblue" stroke="midnightblue" points="178.792,-417.116 189.308,-418.409 181.894,-410.84 178.792,-417.116"/>
</g>
<!-- Node644 -->
<g id="node3" class="node"><title>Node644</title>
<g id="a_node3"><a xlink:href="usbhs_8h.xhtml#a2d57f0978079a4c218c3c4642bd4faa0" target="_top" xlink:title="Get Endpoint Type. ">
<polygon fill="white" stroke="black" points="188,-380.5 188,-399.5 295,-399.5 295,-380.5 188,-380.5"/>
<text text-anchor="middle" x="241.5" y="-387.5" font-family="Helvetica,sans-Serif" font-size="10.00">USBHS_GetEpType</text>
</a>
</g>
</g>
<!-- Node642&#45;&gt;Node644 -->
<g id="edge2" class="edge"><title>Node642&#45;&gt;Node644</title>
<path fill="none" stroke="midnightblue" d="M73.208,-228.548C84.1275,-255.38 118.837,-332.031 173,-371 175.718,-372.955 178.63,-374.71 181.665,-376.284"/>
<polygon fill="midnightblue" stroke="midnightblue" points="180.503,-379.598 191.06,-380.486 183.361,-373.208 180.503,-379.598"/>
</g>
<!-- Node645 -->
<g id="node4" class="node"><title>Node645</title>
<g id="a_node4"><a xlink:href="usbhs_8h.xhtml#a53c55fa48fbb95b2e0f67b58ca4cde49" target="_top" xlink:title="Check for interrupt types enabled for a given endpoint. ">
<polygon fill="white" stroke="black" points="181,-342.5 181,-361.5 302,-361.5 302,-342.5 181,-342.5"/>
<text text-anchor="middle" x="241.5" y="-349.5" font-family="Helvetica,sans-Serif" font-size="10.00">USBHS_IsEpIntEnable</text>
</a>
</g>
</g>
<!-- Node642&#45;&gt;Node645 -->
<g id="edge3" class="edge"><title>Node642&#45;&gt;Node645</title>
<path fill="none" stroke="midnightblue" d="M75.4519,-228.611C89.5612,-250.576 127.306,-304.732 173,-333 176.397,-335.102 180.032,-336.977 183.789,-338.649"/>
<polygon fill="midnightblue" stroke="midnightblue" points="182.723,-341.99 193.309,-342.4 185.289,-335.478 182.723,-341.99"/>
</g>
<!-- Node646 -->
<g id="node5" class="node"><title>Node646</title>
<g id="a_node5"><a xlink:href="group__usbd__hal.xhtml#ga118d9d128a56e31f230bee94ac30f91e" target="_top" xlink:title="Transfers a data payload from the current transfer buffer to the endpoint FIFO. ">
<polygon fill="white" stroke="black" points="183,-304.5 183,-323.5 300,-323.5 300,-304.5 183,-304.5"/>
<text text-anchor="middle" x="241.5" y="-311.5" font-family="Helvetica,sans-Serif" font-size="10.00">UDPHS_WritePayload</text>
</a>
</g>
</g>
<!-- Node642&#45;&gt;Node646 -->
<g id="edge4" class="edge"><title>Node642&#45;&gt;Node646</title>
<path fill="none" stroke="midnightblue" d="M79.8382,-228.604C97.577,-244.595 135.533,-276.722 173,-295 177.667,-297.277 182.653,-299.323 187.722,-301.151"/>
<polygon fill="midnightblue" stroke="midnightblue" points="186.917,-304.571 197.51,-304.402 189.123,-297.928 186.917,-304.571"/>
</g>
<!-- Node647 -->
<g id="node6" class="node"><title>Node647</title>
<g id="a_node6"><a xlink:href="usbhs_8h.xhtml#a6af2b5fe38366a2ff6922c00f8f4252e" target="_top" xlink:title="Clears register/acknowledge for a given endpoint. ">
<polygon fill="white" stroke="black" points="177.5,-266.5 177.5,-285.5 305.5,-285.5 305.5,-266.5 177.5,-266.5"/>
<text text-anchor="middle" x="241.5" y="-273.5" font-family="Helvetica,sans-Serif" font-size="10.00">USBHS_AckEpInterrupt</text>
</a>
</g>
</g>
<!-- Node642&#45;&gt;Node647 -->
<g id="edge5" class="edge"><title>Node642&#45;&gt;Node647</title>
<path fill="none" stroke="midnightblue" d="M93.9897,-228.601C114.845,-236.629 145.684,-248.156 173,-257 180.007,-259.269 187.472,-261.526 194.788,-263.651"/>
<polygon fill="midnightblue" stroke="midnightblue" points="194.036,-267.077 204.613,-266.455 195.958,-260.345 194.036,-267.077"/>
</g>
<!-- Node648 -->
<g id="node7" class="node"><title>Node648</title>
<g id="a_node7"><a xlink:href="usbhs_8h.xhtml#aed77f2f7b0383514691381d53de5605f" target="_top" xlink:title="Disables an interrupt type for a given endpoint. ">
<polygon fill="white" stroke="black" points="173,-228.5 173,-247.5 310,-247.5 310,-228.5 173,-228.5"/>
<text text-anchor="middle" x="241.5" y="-235.5" font-family="Helvetica,sans-Serif" font-size="10.00">USBHS_DisableEPIntType</text>
</a>
</g>
</g>
<!-- Node642&#45;&gt;Node648 -->
<g id="edge6" class="edge"><title>Node642&#45;&gt;Node648</title>
<path fill="none" stroke="midnightblue" d="M137.084,-226.509C145.538,-227.449 154.237,-228.415 162.83,-229.37"/>
<polygon fill="midnightblue" stroke="midnightblue" points="162.522,-232.857 172.847,-230.483 163.295,-225.9 162.522,-232.857"/>
</g>
<!-- Node649 -->
<g id="node8" class="node"><title>Node649</title>
<g id="a_node8"><a xlink:href="usbhs_8h.xhtml#a6b0323c3e931a4c757ca8cbb2987869f" target="_top" xlink:title="Disables interrupt for endpoint. ">
<polygon fill="white" stroke="black" points="183.5,-190.5 183.5,-209.5 299.5,-209.5 299.5,-190.5 183.5,-190.5"/>
<text text-anchor="middle" x="241.5" y="-197.5" font-family="Helvetica,sans-Serif" font-size="10.00">USBHS_DisableIntEP</text>
</a>
</g>
</g>
<!-- Node642&#45;&gt;Node649 -->
<g id="edge7" class="edge"><title>Node642&#45;&gt;Node649</title>
<path fill="none" stroke="midnightblue" d="M137.084,-211.491C148.925,-210.175 161.247,-208.806 173.083,-207.491"/>
<polygon fill="midnightblue" stroke="midnightblue" points="173.784,-210.934 183.337,-206.351 173.011,-203.977 173.784,-210.934"/>
</g>
<!-- Node650 -->
<g id="node9" class="node"><title>Node650</title>
<g id="a_node9"><a xlink:href="group__usbd__hal.xhtml#ga5e6b01495743675aae106e51aee3d1e3" target="_top" xlink:title="Handles a completed transfer on the given endpoint, invoking the configured callback if any...">
<polygon fill="white" stroke="black" points="180,-152.5 180,-171.5 303,-171.5 303,-152.5 180,-152.5"/>
<text text-anchor="middle" x="241.5" y="-159.5" font-family="Helvetica,sans-Serif" font-size="10.00">UDPHS_EndOfTransfer</text>
</a>
</g>
</g>
<!-- Node642&#45;&gt;Node650 -->
<g id="edge8" class="edge"><title>Node642&#45;&gt;Node650</title>
<path fill="none" stroke="midnightblue" d="M93.9897,-209.399C114.845,-201.371 145.684,-189.844 173,-181 180.007,-178.731 187.472,-176.474 194.788,-174.349"/>
<polygon fill="midnightblue" stroke="midnightblue" points="195.958,-177.655 204.613,-171.545 194.036,-170.923 195.958,-177.655"/>
</g>
<!-- Node651 -->
<g id="node10" class="node"><title>Node651</title>
<g id="a_node10"><a xlink:href="usbhs_8h.xhtml#a707dc91ebe546e554ca6e64223ef426f" target="_top" xlink:title="Read endpoint&#39;s byte count of the FIFO. ">
<polygon fill="white" stroke="black" points="188,-114.5 188,-133.5 295,-133.5 295,-114.5 188,-114.5"/>
<text text-anchor="middle" x="241.5" y="-121.5" font-family="Helvetica,sans-Serif" font-size="10.00">USBHS_ByteCount</text>
</a>
</g>
</g>
<!-- Node642&#45;&gt;Node651 -->
<g id="edge9" class="edge"><title>Node642&#45;&gt;Node651</title>
<path fill="none" stroke="midnightblue" d="M79.8382,-209.396C97.577,-193.405 135.533,-161.278 173,-143 177.667,-140.723 182.653,-138.677 187.722,-136.849"/>
<polygon fill="midnightblue" stroke="midnightblue" points="189.123,-140.072 197.51,-133.598 186.917,-133.429 189.123,-140.072"/>
</g>
<!-- Node652 -->
<g id="node11" class="node"><title>Node652</title>
<g id="a_node11"><a xlink:href="group__usbd__hal.xhtml#ga562412b12d966ee5ea983881184d51f6" target="_top" xlink:title="Transfers a data payload from an endpoint FIFO to the current transfer buffer. ">
<polygon fill="white" stroke="black" points="183,-76.5 183,-95.5 300,-95.5 300,-76.5 183,-76.5"/>
<text text-anchor="middle" x="241.5" y="-83.5" font-family="Helvetica,sans-Serif" font-size="10.00">UDPHS_ReadPayload</text>
</a>
</g>
</g>
<!-- Node642&#45;&gt;Node652 -->
<g id="edge10" class="edge"><title>Node642&#45;&gt;Node652</title>
<path fill="none" stroke="midnightblue" d="M75.4519,-209.389C89.5612,-187.424 127.306,-133.268 173,-105 176.397,-102.898 180.032,-101.023 183.789,-99.3515"/>
<polygon fill="midnightblue" stroke="midnightblue" points="185.289,-102.522 193.309,-95.6002 182.723,-96.0097 185.289,-102.522"/>
</g>
<!-- Node653 -->
<g id="node12" class="node"><title>Node653</title>
<g id="a_node12"><a xlink:href="group__usbd__hal.xhtml#ga51f483eefa9753c15806dfc1cfeb214a" target="_top" xlink:title="Received SETUP packet from endpoint 0 FIFO. ">
<polygon fill="white" stroke="black" points="182,-38.5 182,-57.5 301,-57.5 301,-38.5 182,-38.5"/>
<text text-anchor="middle" x="241.5" y="-45.5" font-family="Helvetica,sans-Serif" font-size="10.00">UDPHS_ReadRequest</text>
</a>
</g>
</g>
<!-- Node642&#45;&gt;Node653 -->
<g id="edge11" class="edge"><title>Node642&#45;&gt;Node653</title>
<path fill="none" stroke="midnightblue" d="M73.208,-209.452C84.1275,-182.62 118.837,-105.969 173,-67 175.718,-65.0447 178.63,-63.2903 181.665,-61.7161"/>
<polygon fill="midnightblue" stroke="midnightblue" points="183.361,-64.7917 191.06,-57.5136 180.503,-58.4018 183.361,-64.7917"/>
</g>
<!-- Node654 -->
<g id="node13" class="node"><title>Node654</title>
<g id="a_node13"><a xlink:href="group__usbd__interface.xhtml#gab76f94b99aa061efe700867fc400738c" target="_top" xlink:title="Handle the USB setup package received, should be invoked when an endpoint got a setup package as requ...">
<polygon fill="white" stroke="red" points="178.5,-0.5 178.5,-19.5 304.5,-19.5 304.5,-0.5 178.5,-0.5"/>
<text text-anchor="middle" x="241.5" y="-7.5" font-family="Helvetica,sans-Serif" font-size="10.00">USBD_RequestHandler</text>
</a>
</g>
</g>
<!-- Node642&#45;&gt;Node654 -->
<g id="edge12" class="edge"><title>Node642&#45;&gt;Node654</title>
<path fill="none" stroke="midnightblue" d="M71.8686,-209.383C80.0533,-178.215 110.153,-79.1184 173,-29 175.275,-27.1854 177.715,-25.5441 180.267,-24.0594"/>
<polygon fill="midnightblue" stroke="midnightblue" points="181.894,-27.1596 189.308,-19.5912 178.792,-20.8841 181.894,-27.1596"/>
</g>
</g>
</svg>
