<?xml version="1.0" encoding="UTF-8" standalone="no"?>
<!DOCTYPE svg PUBLIC "-//W3C//DTD SVG 1.1//EN"
 "http://www.w3.org/Graphics/SVG/1.1/DTD/svg11.dtd">
<!-- Generated by graphviz version 2.38.0 (20140413.2041)
 -->
<!-- Title: src/hal/x4m0x_s70/libraries/libusb/device/hal_examples/hal_udphs.c Pages: 1 -->
<svg width="337pt" height="162pt"
 viewBox="0.00 0.00 337.00 162.00" xmlns="http://www.w3.org/2000/svg" xmlns:xlink="http://www.w3.org/1999/xlink">
<g id="graph0" class="graph" transform="scale(1 1) rotate(0) translate(4 158)">
<title>src/hal/x4m0x_s70/libraries/libusb/device/hal_examples/hal_udphs.c</title>
<polygon fill="white" stroke="none" points="-4,4 -4,-158 333,-158 333,4 -4,4"/>
<!-- Node0 -->
<g id="node1" class="node"><title>Node0</title>
<polygon fill="#bfbfbf" stroke="black" points="100.5,-112.5 100.5,-153.5 250.5,-153.5 250.5,-112.5 100.5,-112.5"/>
<text text-anchor="start" x="108.5" y="-141.5" font-family="Helvetica,sans-Serif" font-size="10.00">src/hal/x4m0x_s70/libraries</text>
<text text-anchor="start" x="108.5" y="-130.5" font-family="Helvetica,sans-Serif" font-size="10.00">/libusb/device/hal_examples</text>
<text text-anchor="middle" x="175.5" y="-119.5" font-family="Helvetica,sans-Serif" font-size="10.00">/hal_udphs.c</text>
</g>
<!-- Node1 -->
<g id="node2" class="node"><title>Node1</title>
<g id="a_node2"><a xlink:href="chip_8h.xhtml" target="_top" xlink:title="chip.h">
<polygon fill="white" stroke="red" points="0,-56.5 0,-75.5 45,-75.5 45,-56.5 0,-56.5"/>
<text text-anchor="middle" x="22.5" y="-63.5" font-family="Helvetica,sans-Serif" font-size="10.00">chip.h</text>
</a>
</g>
</g>
<!-- Node0&#45;&gt;Node1 -->
<g id="edge1" class="edge"><title>Node0&#45;&gt;Node1</title>
<path fill="none" stroke="midnightblue" d="M129.595,-112.498C104.558,-101.861 74.2871,-89.001 52.3243,-79.6705"/>
<polygon fill="midnightblue" stroke="midnightblue" points="53.4391,-76.3413 42.8666,-75.6525 50.7019,-82.784 53.4391,-76.3413"/>
</g>
<!-- Node39 -->
<g id="node3" class="node"><title>Node39</title>
<g id="a_node3"><a xlink:href="_u_s_b_d___h_a_l_8h.xhtml" target="_top" xlink:title="This file defines functions for USB Device Hardware Access Level. ">
<polygon fill="white" stroke="red" points="102,-56.5 102,-75.5 181,-75.5 181,-56.5 102,-56.5"/>
<text text-anchor="middle" x="141.5" y="-63.5" font-family="Helvetica,sans-Serif" font-size="10.00">USBD_HAL.h</text>
</a>
</g>
</g>
<!-- Node0&#45;&gt;Node39 -->
<g id="edge2" class="edge"><title>Node0&#45;&gt;Node39</title>
<path fill="none" stroke="midnightblue" d="M165.299,-112.498C160.688,-103.682 155.277,-93.3385 150.781,-84.7432"/>
<polygon fill="midnightblue" stroke="midnightblue" points="153.762,-82.8912 146.026,-75.6525 147.56,-86.1357 153.762,-82.8912"/>
</g>
<!-- Node5 -->
<g id="node4" class="node"><title>Node5</title>
<polygon fill="white" stroke="#bfbfbf" points="47,-0.5 47,-19.5 108,-19.5 108,-0.5 47,-0.5"/>
<text text-anchor="middle" x="77.5" y="-7.5" font-family="Helvetica,sans-Serif" font-size="10.00">stdbool.h</text>
</g>
<!-- Node0&#45;&gt;Node5 -->
<g id="edge6" class="edge"><title>Node0&#45;&gt;Node5</title>
<path fill="none" stroke="midnightblue" d="M134.154,-112.494C118.958,-103.398 102.935,-91.1863 92.5,-76 83.1744,-62.4279 79.5807,-43.8803 78.2285,-30.0711"/>
<polygon fill="midnightblue" stroke="midnightblue" points="81.7012,-29.5438 77.5433,-19.799 74.7167,-30.0098 81.7012,-29.5438"/>
</g>
<!-- Node6 -->
<g id="node5" class="node"><title>Node6</title>
<polygon fill="white" stroke="#bfbfbf" points="133,-0.5 133,-19.5 186,-19.5 186,-0.5 133,-0.5"/>
<text text-anchor="middle" x="159.5" y="-7.5" font-family="Helvetica,sans-Serif" font-size="10.00">stdint.h</text>
</g>
<!-- Node0&#45;&gt;Node6 -->
<g id="edge7" class="edge"><title>Node0&#45;&gt;Node6</title>
<path fill="none" stroke="midnightblue" d="M184.177,-112.347C189.824,-96.8306 195.176,-74.7475 189.5,-56 186.383,-45.7048 180.048,-35.612 173.999,-27.6023"/>
<polygon fill="midnightblue" stroke="midnightblue" points="176.719,-25.3995 167.714,-19.8175 171.272,-29.7968 176.719,-25.3995"/>
</g>
<!-- Node9 -->
<g id="node6" class="node"><title>Node9</title>
<polygon fill="white" stroke="#bfbfbf" points="219,-0.5 219,-19.5 268,-19.5 268,-0.5 219,-0.5"/>
<text text-anchor="middle" x="243.5" y="-7.5" font-family="Helvetica,sans-Serif" font-size="10.00">stdio.h</text>
</g>
<!-- Node0&#45;&gt;Node9 -->
<g id="edge8" class="edge"><title>Node0&#45;&gt;Node9</title>
<path fill="none" stroke="midnightblue" d="M186.577,-112.29C199.631,-89.061 221.124,-50.8154 233.63,-28.5624"/>
<polygon fill="midnightblue" stroke="midnightblue" points="236.833,-30.0072 238.681,-19.5748 230.731,-26.5778 236.833,-30.0072"/>
</g>
<!-- Node44 -->
<g id="node7" class="node"><title>Node44</title>
<polygon fill="white" stroke="#bfbfbf" points="276,-56.5 276,-75.5 329,-75.5 329,-56.5 276,-56.5"/>
<text text-anchor="middle" x="302.5" y="-63.5" font-family="Helvetica,sans-Serif" font-size="10.00">string.h</text>
</g>
<!-- Node0&#45;&gt;Node44 -->
<g id="edge9" class="edge"><title>Node0&#45;&gt;Node44</title>
<path fill="none" stroke="midnightblue" d="M213.604,-112.498C233.825,-102.149 258.158,-89.6946 276.251,-80.4346"/>
<polygon fill="midnightblue" stroke="midnightblue" points="278.287,-83.3242 285.594,-75.6525 275.098,-77.093 278.287,-83.3242"/>
</g>
<!-- Node39&#45;&gt;Node5 -->
<g id="edge3" class="edge"><title>Node39&#45;&gt;Node5</title>
<path fill="none" stroke="midnightblue" d="M131.217,-56.324C121.664,-48.2631 107.22,-36.0765 95.7157,-26.3695"/>
<polygon fill="midnightblue" stroke="midnightblue" points="97.8698,-23.6076 87.9698,-19.8339 93.3557,-28.9577 97.8698,-23.6076"/>
</g>
<!-- Node39&#45;&gt;Node6 -->
<g id="edge4" class="edge"><title>Node39&#45;&gt;Node6</title>
<path fill="none" stroke="midnightblue" d="M144.472,-56.083C146.884,-48.8486 150.364,-38.4087 153.368,-29.3968"/>
<polygon fill="midnightblue" stroke="midnightblue" points="156.741,-30.3447 156.583,-19.7511 150.1,-28.1311 156.741,-30.3447"/>
</g>
<!-- Node39&#45;&gt;Node9 -->
<g id="edge5" class="edge"><title>Node39&#45;&gt;Node9</title>
<path fill="none" stroke="midnightblue" d="M157.888,-56.324C174.171,-47.7034 199.367,-34.3643 218.216,-24.3855"/>
<polygon fill="midnightblue" stroke="midnightblue" points="219.952,-27.4267 227.153,-19.6545 216.677,-21.2402 219.952,-27.4267"/>
</g>
</g>
</svg>
