<?xml version="1.0" encoding="UTF-8" standalone="no"?>
<!DOCTYPE svg PUBLIC "-//W3C//DTD SVG 1.1//EN"
 "http://www.w3.org/Graphics/SVG/1.1/DTD/svg11.dtd">
<!-- Generated by graphviz version 2.38.0 (20140413.2041)
 -->
<!-- Title: src/hal/x4m0x_s70/FreeRTOS/heap_4_fast.c Pages: 1 -->
<svg width="315pt" height="95pt"
 viewBox="0.00 0.00 314.50 95.00" xmlns="http://www.w3.org/2000/svg" xmlns:xlink="http://www.w3.org/1999/xlink">
<g id="graph0" class="graph" transform="scale(1 1) rotate(0) translate(4 91)">
<title>src/hal/x4m0x_s70/FreeRTOS/heap_4_fast.c</title>
<polygon fill="white" stroke="none" points="-4,4 -4,-91 310.5,-91 310.5,4 -4,4"/>
<!-- Node0 -->
<g id="node1" class="node"><title>Node0</title>
<polygon fill="#bfbfbf" stroke="black" points="65.5,-56.5 65.5,-86.5 219.5,-86.5 219.5,-56.5 65.5,-56.5"/>
<text text-anchor="start" x="73.5" y="-74.5" font-family="Helvetica,sans-Serif" font-size="10.00">src/hal/x4m0x_s70/FreeRTOS</text>
<text text-anchor="middle" x="142.5" y="-63.5" font-family="Helvetica,sans-Serif" font-size="10.00">/heap_4_fast.c</text>
</g>
<!-- Node1 -->
<g id="node2" class="node"><title>Node1</title>
<polygon fill="white" stroke="#bfbfbf" points="0,-0.5 0,-19.5 51,-19.5 51,-0.5 0,-0.5"/>
<text text-anchor="middle" x="25.5" y="-7.5" font-family="Helvetica,sans-Serif" font-size="10.00">stdlib.h</text>
</g>
<!-- Node0&#45;&gt;Node1 -->
<g id="edge1" class="edge"><title>Node0&#45;&gt;Node1</title>
<path fill="none" stroke="midnightblue" d="M114.773,-56.3993C95.6679,-46.6837 70.4419,-33.8551 51.6799,-24.3137"/>
<polygon fill="midnightblue" stroke="midnightblue" points="53.0247,-21.071 42.5245,-19.6578 49.8516,-27.3106 53.0247,-21.071"/>
</g>
<!-- Node2 -->
<g id="node3" class="node"><title>Node2</title>
<polygon fill="white" stroke="#bfbfbf" points="69,-0.5 69,-19.5 140,-19.5 140,-0.5 69,-0.5"/>
<text text-anchor="middle" x="104.5" y="-7.5" font-family="Helvetica,sans-Serif" font-size="10.00">FreeRTOS.h</text>
</g>
<!-- Node0&#45;&gt;Node2 -->
<g id="edge2" class="edge"><title>Node0&#45;&gt;Node2</title>
<path fill="none" stroke="midnightblue" d="M133.495,-56.3993C128.087,-47.9315 121.168,-37.0991 115.446,-28.1393"/>
<polygon fill="midnightblue" stroke="midnightblue" points="118.362,-26.2018 110.029,-19.6578 112.462,-29.9695 118.362,-26.2018"/>
</g>
<!-- Node3 -->
<g id="node4" class="node"><title>Node3</title>
<polygon fill="white" stroke="#bfbfbf" points="158.5,-0.5 158.5,-19.5 204.5,-19.5 204.5,-0.5 158.5,-0.5"/>
<text text-anchor="middle" x="181.5" y="-7.5" font-family="Helvetica,sans-Serif" font-size="10.00">task.h</text>
</g>
<!-- Node0&#45;&gt;Node3 -->
<g id="edge3" class="edge"><title>Node0&#45;&gt;Node3</title>
<path fill="none" stroke="midnightblue" d="M151.742,-56.3993C157.293,-47.9315 164.393,-37.0991 170.266,-28.1393"/>
<polygon fill="midnightblue" stroke="midnightblue" points="173.27,-29.94 175.825,-19.6578 167.416,-26.1026 173.27,-29.94"/>
</g>
<!-- Node4 -->
<g id="node5" class="node"><title>Node4</title>
<g id="a_node5"><a xlink:href="heap__4__fast_8h.xhtml" target="_top" xlink:title="Local header file for heap_4_fast.c that implements alternative functions for FreeRTOS heap allocatio...">
<polygon fill="white" stroke="black" points="222.5,-0.5 222.5,-19.5 306.5,-19.5 306.5,-0.5 222.5,-0.5"/>
<text text-anchor="middle" x="264.5" y="-7.5" font-family="Helvetica,sans-Serif" font-size="10.00">heap_4_fast.h</text>
</a>
</g>
</g>
<!-- Node0&#45;&gt;Node4 -->
<g id="edge4" class="edge"><title>Node0&#45;&gt;Node4</title>
<path fill="none" stroke="midnightblue" d="M171.412,-56.3993C191.516,-46.5945 218.121,-33.6194 237.738,-24.052"/>
<polygon fill="midnightblue" stroke="midnightblue" points="239.294,-27.1872 246.748,-19.6578 236.226,-20.8955 239.294,-27.1872"/>
</g>
</g>
</svg>
