<?xml version="1.0" encoding="UTF-8" standalone="no"?>
<!DOCTYPE svg PUBLIC "-//W3C//DTD SVG 1.1//EN"
 "http://www.w3.org/Graphics/SVG/1.1/DTD/svg11.dtd">
<!-- Generated by graphviz version 2.38.0 (20140413.2041)
 -->
<!-- Title: src/hal/x4m0x_s70/libraries/libusb/host/hid/mouse/host_hid.c Pages: 1 -->
<svg width="551pt" height="207pt"
 viewBox="0.00 0.00 550.50 207.00" xmlns="http://www.w3.org/2000/svg" xmlns:xlink="http://www.w3.org/1999/xlink">
<g id="graph0" class="graph" transform="scale(1 1) rotate(0) translate(4 203)">
<title>src/hal/x4m0x_s70/libraries/libusb/host/hid/mouse/host_hid.c</title>
<polygon fill="white" stroke="none" points="-4,4 -4,-203 546.5,-203 546.5,4 -4,4"/>
<!-- Node0 -->
<g id="node1" class="node"><title>Node0</title>
<polygon fill="#bfbfbf" stroke="black" points="135.5,-168.5 135.5,-198.5 311.5,-198.5 311.5,-168.5 135.5,-168.5"/>
<text text-anchor="start" x="143.5" y="-186.5" font-family="Helvetica,sans-Serif" font-size="10.00">src/hal/x4m0x_s70/libraries</text>
<text text-anchor="middle" x="223.5" y="-175.5" font-family="Helvetica,sans-Serif" font-size="10.00">/libusb/host/hid/mouse/host_hid.c</text>
</g>
<!-- Node1 -->
<g id="node2" class="node"><title>Node1</title>
<polygon fill="white" stroke="#bfbfbf" points="0,-0.5 0,-19.5 55,-19.5 55,-0.5 0,-0.5"/>
<text text-anchor="middle" x="27.5" y="-7.5" font-family="Helvetica,sans-Serif" font-size="10.00">stddef.h</text>
</g>
<!-- Node0&#45;&gt;Node1 -->
<g id="edge1" class="edge"><title>Node0&#45;&gt;Node1</title>
<path fill="none" stroke="midnightblue" d="M138.227,-168.49C95.9341,-159.821 50.8628,-147.402 36.5,-132 10.7303,-104.366 16.6548,-56.0514 22.5101,-29.6046"/>
<polygon fill="midnightblue" stroke="midnightblue" points="25.9484,-30.2782 24.9227,-19.7331 19.1486,-28.6162 25.9484,-30.2782"/>
</g>
<!-- Node2 -->
<g id="node3" class="node"><title>Node2</title>
<g id="a_node3"><a xlink:href="compiler_8h.xhtml" target="_top" xlink:title="compiler.h">
<polygon fill="white" stroke="red" points="34.5,-56.5 34.5,-75.5 100.5,-75.5 100.5,-56.5 34.5,-56.5"/>
<text text-anchor="middle" x="67.5" y="-63.5" font-family="Helvetica,sans-Serif" font-size="10.00">compiler.h</text>
</a>
</g>
</g>
<!-- Node0&#45;&gt;Node2 -->
<g id="edge2" class="edge"><title>Node0&#45;&gt;Node2</title>
<path fill="none" stroke="midnightblue" d="M137.973,-168.489C97.9358,-160.01 56.436,-147.769 44.5,-132 33.7142,-117.75 43.3314,-98.014 53.2222,-84.0369"/>
<polygon fill="midnightblue" stroke="midnightblue" points="56.2338,-85.8619 59.5497,-75.7993 50.6824,-81.5977 56.2338,-85.8619"/>
</g>
<!-- Node6 -->
<g id="node4" class="node"><title>Node6</title>
<g id="a_node4"><a xlink:href="conf__usb_8h.xhtml" target="_top" xlink:title="USB configuration file for CDC application. ">
<polygon fill="white" stroke="red" points="53.5,-112.5 53.5,-131.5 121.5,-131.5 121.5,-112.5 53.5,-112.5"/>
<text text-anchor="middle" x="87.5" y="-119.5" font-family="Helvetica,sans-Serif" font-size="10.00">conf_usb.h</text>
</a>
</g>
</g>
<!-- Node0&#45;&gt;Node6 -->
<g id="edge4" class="edge"><title>Node0&#45;&gt;Node6</title>
<path fill="none" stroke="midnightblue" d="M191.27,-168.399C168.655,-158.505 138.662,-145.383 116.739,-135.792"/>
<polygon fill="midnightblue" stroke="midnightblue" points="117.854,-132.459 107.289,-131.658 115.048,-138.873 117.854,-132.459"/>
</g>
<!-- Node9 -->
<g id="node5" class="node"><title>Node9</title>
<polygon fill="white" stroke="#bfbfbf" points="139.5,-112.5 139.5,-131.5 207.5,-131.5 207.5,-112.5 139.5,-112.5"/>
<text text-anchor="middle" x="173.5" y="-119.5" font-family="Helvetica,sans-Serif" font-size="10.00">usb_task.h</text>
</g>
<!-- Node0&#45;&gt;Node9 -->
<g id="edge6" class="edge"><title>Node0&#45;&gt;Node9</title>
<path fill="none" stroke="midnightblue" d="M211.651,-168.399C204.385,-159.753 195.048,-148.642 187.429,-139.576"/>
<polygon fill="midnightblue" stroke="midnightblue" points="189.888,-137.062 180.775,-131.658 184.529,-141.565 189.888,-137.062"/>
</g>
<!-- Node10 -->
<g id="node6" class="node"><title>Node10</title>
<polygon fill="white" stroke="#bfbfbf" points="226,-112.5 226,-131.5 321,-131.5 321,-112.5 226,-112.5"/>
<text text-anchor="middle" x="273.5" y="-119.5" font-family="Helvetica,sans-Serif" font-size="10.00">usb_host_task.h</text>
</g>
<!-- Node0&#45;&gt;Node10 -->
<g id="edge7" class="edge"><title>Node0&#45;&gt;Node10</title>
<path fill="none" stroke="midnightblue" d="M235.349,-168.399C242.615,-159.753 251.952,-148.642 259.571,-139.576"/>
<polygon fill="midnightblue" stroke="midnightblue" points="262.471,-141.565 266.225,-131.658 257.112,-137.062 262.471,-141.565"/>
</g>
<!-- Node11 -->
<g id="node7" class="node"><title>Node11</title>
<polygon fill="white" stroke="#bfbfbf" points="339.5,-112.5 339.5,-131.5 441.5,-131.5 441.5,-112.5 339.5,-112.5"/>
<text text-anchor="middle" x="390.5" y="-119.5" font-family="Helvetica,sans-Serif" font-size="10.00">usb_host_enum.h</text>
</g>
<!-- Node0&#45;&gt;Node11 -->
<g id="edge8" class="edge"><title>Node0&#45;&gt;Node11</title>
<path fill="none" stroke="midnightblue" d="M263.077,-168.399C291.597,-158.238 329.674,-144.672 356.757,-135.022"/>
<polygon fill="midnightblue" stroke="midnightblue" points="357.955,-138.311 366.2,-131.658 355.605,-131.717 357.955,-138.311"/>
</g>
<!-- Node12 -->
<g id="node8" class="node"><title>Node12</title>
<g id="a_node8"><a xlink:href="hid_8h.xhtml" target="_top" xlink:title="Management of the generic HID features. ">
<polygon fill="white" stroke="black" points="502.5,-56.5 502.5,-75.5 542.5,-75.5 542.5,-56.5 502.5,-56.5"/>
<text text-anchor="middle" x="522.5" y="-63.5" font-family="Helvetica,sans-Serif" font-size="10.00">hid.h</text>
</a>
</g>
</g>
<!-- Node0&#45;&gt;Node12 -->
<g id="edge9" class="edge"><title>Node0&#45;&gt;Node12</title>
<path fill="none" stroke="midnightblue" d="M311.863,-180.491C393.531,-176.545 506.366,-165.07 534.5,-132 545.616,-118.933 539.657,-98.9604 532.774,-84.604"/>
<polygon fill="midnightblue" stroke="midnightblue" points="535.838,-82.9107 528.06,-75.7162 529.654,-86.1905 535.838,-82.9107"/>
</g>
<!-- Node13 -->
<g id="node9" class="node"><title>Node13</title>
<g id="a_node9"><a xlink:href="host__hid_8h.xhtml" target="_top" xlink:title="Management of the generic host HID features. ">
<polygon fill="white" stroke="black" points="459.5,-112.5 459.5,-131.5 525.5,-131.5 525.5,-112.5 459.5,-112.5"/>
<text text-anchor="middle" x="492.5" y="-119.5" font-family="Helvetica,sans-Serif" font-size="10.00">host_hid.h</text>
</a>
</g>
</g>
<!-- Node0&#45;&gt;Node13 -->
<g id="edge10" class="edge"><title>Node0&#45;&gt;Node13</title>
<path fill="none" stroke="midnightblue" d="M286.909,-168.475C337.057,-157.382 405.708,-142.198 449.587,-132.492"/>
<polygon fill="midnightblue" stroke="midnightblue" points="450.362,-135.905 459.37,-130.328 448.85,-129.07 450.362,-135.905"/>
</g>
<!-- Node2&#45;&gt;Node1 -->
<g id="edge3" class="edge"><title>Node2&#45;&gt;Node1</title>
<path fill="none" stroke="midnightblue" d="M60.8948,-56.083C55.2448,-48.4554 46.9552,-37.2645 40.0488,-27.9408"/>
<polygon fill="midnightblue" stroke="midnightblue" points="42.7471,-25.7034 33.9823,-19.7511 37.1221,-29.87 42.7471,-25.7034"/>
</g>
<!-- Node6&#45;&gt;Node2 -->
<g id="edge5" class="edge"><title>Node6&#45;&gt;Node2</title>
<path fill="none" stroke="midnightblue" d="M84.1974,-112.083C81.518,-104.849 77.6514,-94.4087 74.3136,-85.3968"/>
<polygon fill="midnightblue" stroke="midnightblue" points="77.4965,-83.9129 70.7411,-75.7511 70.9322,-86.3442 77.4965,-83.9129"/>
</g>
<!-- Node13&#45;&gt;Node2 -->
<g id="edge11" class="edge"><title>Node13&#45;&gt;Node2</title>
<path fill="none" stroke="midnightblue" d="M459.083,-113.543C456.187,-112.986 453.296,-112.463 450.5,-112 328.145,-91.7488 182.326,-77.2433 111.063,-70.7718"/>
<polygon fill="midnightblue" stroke="midnightblue" points="110.965,-67.2489 100.691,-69.839 110.338,-74.2208 110.965,-67.2489"/>
</g>
<!-- Node13&#45;&gt;Node12 -->
<g id="edge12" class="edge"><title>Node13&#45;&gt;Node12</title>
<path fill="none" stroke="midnightblue" d="M497.454,-112.083C501.604,-104.613 507.653,-93.7244 512.767,-84.5199"/>
<polygon fill="midnightblue" stroke="midnightblue" points="515.841,-86.1924 517.638,-75.7511 509.722,-82.7929 515.841,-86.1924"/>
</g>
</g>
</svg>
