<?xml version="1.0" encoding="UTF-8" standalone="no"?>
<!DOCTYPE svg PUBLIC "-//W3C//DTD SVG 1.1//EN"
 "http://www.w3.org/Graphics/SVG/1.1/DTD/svg11.dtd">
<!-- Generated by graphviz version 2.38.0 (20140413.2041)
 -->
<!-- Title: src/hal/x4m0x_s70/libraries/libusb/host/hid/mouse/host_hid.h Pages: 1 -->
<svg width="185pt" height="95pt"
 viewBox="0.00 0.00 185.00 95.00" xmlns="http://www.w3.org/2000/svg" xmlns:xlink="http://www.w3.org/1999/xlink">
<g id="graph0" class="graph" transform="scale(1 1) rotate(0) translate(4 91)">
<title>src/hal/x4m0x_s70/libraries/libusb/host/hid/mouse/host_hid.h</title>
<polygon fill="white" stroke="none" points="-4,4 -4,-91 181,-91 181,4 -4,4"/>
<!-- Node0 -->
<g id="node1" class="node"><title>Node0</title>
<polygon fill="#bfbfbf" stroke="black" points="-1.42109e-14,-56.5 -1.42109e-14,-86.5 177,-86.5 177,-56.5 -1.42109e-14,-56.5"/>
<text text-anchor="start" x="8" y="-74.5" font-family="Helvetica,sans-Serif" font-size="10.00">src/hal/x4m0x_s70/libraries</text>
<text text-anchor="middle" x="88.5" y="-63.5" font-family="Helvetica,sans-Serif" font-size="10.00">/libusb/host/hid/mouse/host_hid.h</text>
</g>
<!-- Node1 -->
<g id="node2" class="node"><title>Node1</title>
<g id="a_node2"><a xlink:href="compiler_8h.xhtml" target="_top" xlink:title="compiler.h">
<polygon fill="white" stroke="red" points="20.5,-0.5 20.5,-19.5 86.5,-19.5 86.5,-0.5 20.5,-0.5"/>
<text text-anchor="middle" x="53.5" y="-7.5" font-family="Helvetica,sans-Serif" font-size="10.00">compiler.h</text>
</a>
</g>
</g>
<!-- Node0&#45;&gt;Node1 -->
<g id="edge1" class="edge"><title>Node0&#45;&gt;Node1</title>
<path fill="none" stroke="midnightblue" d="M80.2055,-56.3993C75.2769,-48.0207 68.9864,-37.3269 63.7488,-28.4229"/>
<polygon fill="midnightblue" stroke="midnightblue" points="66.6798,-26.5025 58.5928,-19.6578 60.6463,-30.0517 66.6798,-26.5025"/>
</g>
<!-- Node6 -->
<g id="node3" class="node"><title>Node6</title>
<g id="a_node3"><a xlink:href="hid_8h.xhtml" target="_top" xlink:title="Management of the generic HID features. ">
<polygon fill="white" stroke="black" points="104.5,-0.5 104.5,-19.5 144.5,-19.5 144.5,-0.5 104.5,-0.5"/>
<text text-anchor="middle" x="124.5" y="-7.5" font-family="Helvetica,sans-Serif" font-size="10.00">hid.h</text>
</a>
</g>
</g>
<!-- Node0&#45;&gt;Node6 -->
<g id="edge2" class="edge"><title>Node0&#45;&gt;Node6</title>
<path fill="none" stroke="midnightblue" d="M97.0315,-56.3993C102.101,-48.0207 108.571,-37.3269 113.958,-28.4229"/>
<polygon fill="midnightblue" stroke="midnightblue" points="117.08,-30.0255 119.262,-19.6578 111.09,-26.4018 117.08,-30.0255"/>
</g>
</g>
</svg>
