<?xml version="1.0" encoding="UTF-8" standalone="no"?>
<!DOCTYPE svg PUBLIC "-//W3C//DTD SVG 1.1//EN"
 "http://www.w3.org/Graphics/SVG/1.1/DTD/svg11.dtd">
<!-- Generated by graphviz version 2.38.0 (20140413.2041)
 -->
<!-- Title: src/hal/x4m0x_s70/libraries/libusb/host/hid/host_mouse_hid_task.h Pages: 1 -->
<svg width="190pt" height="106pt"
 viewBox="0.00 0.00 189.50 106.00" xmlns="http://www.w3.org/2000/svg" xmlns:xlink="http://www.w3.org/1999/xlink">
<g id="graph0" class="graph" transform="scale(1 1) rotate(0) translate(4 102)">
<title>src/hal/x4m0x_s70/libraries/libusb/host/hid/host_mouse_hid_task.h</title>
<polygon fill="white" stroke="none" points="-4,4 -4,-102 185.5,-102 185.5,4 -4,4"/>
<!-- Node0 -->
<g id="node1" class="node"><title>Node0</title>
<polygon fill="#bfbfbf" stroke="black" points="8.5,-56.5 8.5,-97.5 159.5,-97.5 159.5,-56.5 8.5,-56.5"/>
<text text-anchor="start" x="16.5" y="-85.5" font-family="Helvetica,sans-Serif" font-size="10.00">src/hal/x4m0x_s70/libraries</text>
<text text-anchor="start" x="16.5" y="-74.5" font-family="Helvetica,sans-Serif" font-size="10.00">/libusb/host/hid/host_mouse</text>
<text text-anchor="middle" x="84" y="-63.5" font-family="Helvetica,sans-Serif" font-size="10.00">_hid_task.h</text>
</g>
<!-- Node1 -->
<g id="node2" class="node"><title>Node1</title>
<g id="a_node2"><a xlink:href="conf__usb_8h.xhtml" target="_top" xlink:title="USB configuration file for CDC application. ">
<polygon fill="white" stroke="red" points="0,-0.5 0,-19.5 68,-19.5 68,-0.5 0,-0.5"/>
<text text-anchor="middle" x="34" y="-7.5" font-family="Helvetica,sans-Serif" font-size="10.00">conf_usb.h</text>
</a>
</g>
</g>
<!-- Node0&#45;&gt;Node1 -->
<g id="edge1" class="edge"><title>Node0&#45;&gt;Node1</title>
<path fill="none" stroke="midnightblue" d="M68.9984,-56.4979C61.9221,-47.2987 53.5663,-36.4362 46.7941,-27.6323"/>
<polygon fill="midnightblue" stroke="midnightblue" points="49.5271,-25.4447 40.6558,-19.6525 43.9787,-29.7128 49.5271,-25.4447"/>
</g>
<!-- Node9 -->
<g id="node3" class="node"><title>Node9</title>
<polygon fill="white" stroke="#bfbfbf" points="86.5,-0.5 86.5,-19.5 181.5,-19.5 181.5,-0.5 86.5,-0.5"/>
<text text-anchor="middle" x="134" y="-7.5" font-family="Helvetica,sans-Serif" font-size="10.00">usb_host_task.h</text>
</g>
<!-- Node0&#45;&gt;Node9 -->
<g id="edge2" class="edge"><title>Node0&#45;&gt;Node9</title>
<path fill="none" stroke="midnightblue" d="M99.0016,-56.4979C106.078,-47.2987 114.434,-36.4362 121.206,-27.6323"/>
<polygon fill="midnightblue" stroke="midnightblue" points="124.021,-29.7128 127.344,-19.6525 118.473,-25.4447 124.021,-29.7128"/>
</g>
</g>
</svg>
