<?xml version="1.0" encoding="UTF-8" standalone="no"?>
<!DOCTYPE svg PUBLIC "-//W3C//DTD SVG 1.1//EN"
 "http://www.w3.org/Graphics/SVG/1.1/DTD/svg11.dtd">
<!-- Generated by graphviz version 2.38.0 (20140413.2041)
 -->
<!-- Title: ILI9488_EbiSendCommand Pages: 1 -->
<svg width="338pt" height="66pt"
 viewBox="0.00 0.00 338.00 66.00" xmlns="http://www.w3.org/2000/svg" xmlns:xlink="http://www.w3.org/1999/xlink">
<g id="graph0" class="graph" transform="scale(1 1) rotate(0) translate(4 62)">
<title>ILI9488_EbiSendCommand</title>
<polygon fill="white" stroke="none" points="-4,4 -4,-62 334,-62 334,4 -4,4"/>
<!-- Node7 -->
<g id="node1" class="node"><title>Node7</title>
<polygon fill="#bfbfbf" stroke="black" points="0,-19.5 0,-38.5 145,-38.5 145,-19.5 0,-19.5"/>
<text text-anchor="middle" x="72.5" y="-26.5" font-family="Helvetica,sans-Serif" font-size="10.00">ILI9488_EbiSendCommand</text>
</g>
<!-- Node8 -->
<g id="node2" class="node"><title>Node8</title>
<g id="a_node2"><a xlink:href="lcd__draw_8c.xhtml#a65f3640c44c163e23ec0e028324a38cc" target="_top" xlink:title="LCDD_UpdateWindow">
<polygon fill="white" stroke="black" points="196,-38.5 196,-57.5 315,-57.5 315,-38.5 196,-38.5"/>
<text text-anchor="middle" x="255.5" y="-45.5" font-family="Helvetica,sans-Serif" font-size="10.00">LCDD_UpdateWindow</text>
</a>
</g>
</g>
<!-- Node7&#45;&gt;Node8 -->
<g id="edge1" class="edge"><title>Node7&#45;&gt;Node8</title>
<path fill="none" stroke="midnightblue" d="M155.024,-37.5577C168.834,-39.0074 182.926,-40.4867 195.996,-41.8587"/>
<polygon fill="midnightblue" stroke="midnightblue" points="155.347,-34.0725 145.036,-36.5093 154.616,-41.0343 155.347,-34.0725"/>
</g>
<!-- Node9 -->
<g id="node3" class="node"><title>Node9</title>
<g id="a_node3"><a xlink:href="lcd__draw_8c.xhtml#ad4c726ea56b4cb3a7c7f7cef33790121" target="_top" xlink:title="LCDD_UpdatePartialWindow">
<polygon fill="white" stroke="black" points="181,-0.5 181,-19.5 330,-19.5 330,-0.5 181,-0.5"/>
<text text-anchor="middle" x="255.5" y="-7.5" font-family="Helvetica,sans-Serif" font-size="10.00">LCDD_UpdatePartialWindow</text>
</a>
</g>
</g>
<!-- Node7&#45;&gt;Node9 -->
<g id="edge2" class="edge"><title>Node7&#45;&gt;Node9</title>
<path fill="none" stroke="midnightblue" d="M155.045,-20.44C163.629,-19.5389 172.322,-18.6264 180.811,-17.7353"/>
<polygon fill="midnightblue" stroke="midnightblue" points="154.616,-16.9657 145.036,-21.4907 155.347,-23.9275 154.616,-16.9657"/>
</g>
</g>
</svg>
