<?xml version="1.0" encoding="UTF-8" standalone="no"?>
<!DOCTYPE svg PUBLIC "-//W3C//DTD SVG 1.1//EN"
 "http://www.w3.org/Graphics/SVG/1.1/DTD/svg11.dtd">
<!-- Generated by graphviz version 2.38.0 (20140413.2041)
 -->
<!-- Title: sensor_twi_read_reg Pages: 1 -->
<svg width="227pt" height="66pt"
 viewBox="0.00 0.00 227.00 66.00" xmlns="http://www.w3.org/2000/svg" xmlns:xlink="http://www.w3.org/1999/xlink">
<g id="graph0" class="graph" transform="scale(1 1) rotate(0) translate(4 62)">
<title>sensor_twi_read_reg</title>
<polygon fill="white" stroke="none" points="-4,4 -4,-62 223,-62 223,4 -4,4"/>
<!-- Node42 -->
<g id="node1" class="node"><title>Node42</title>
<polygon fill="#bfbfbf" stroke="black" points="0,-19.5 0,-38.5 115,-38.5 115,-19.5 0,-19.5"/>
<text text-anchor="middle" x="57.5" y="-26.5" font-family="Helvetica,sans-Serif" font-size="10.00">sensor_twi_read_reg</text>
</g>
<!-- Node43 -->
<g id="node2" class="node"><title>Node43</title>
<g id="a_node2"><a xlink:href="twid_8h.xhtml#a67c6f278372fcb213e7848929db89d3f" target="_top" xlink:title="Asynchronously sends data to a slave on the TWI bus. ">
<polygon fill="white" stroke="red" points="151,-38.5 151,-57.5 219,-57.5 219,-38.5 151,-38.5"/>
<text text-anchor="middle" x="185" y="-45.5" font-family="Helvetica,sans-Serif" font-size="10.00">TWID_Write</text>
</a>
</g>
</g>
<!-- Node42&#45;&gt;Node43 -->
<g id="edge1" class="edge"><title>Node42&#45;&gt;Node43</title>
<path fill="none" stroke="midnightblue" d="M115.009,-37.5551C123.609,-38.8571 132.367,-40.1831 140.628,-41.4338"/>
<polygon fill="midnightblue" stroke="midnightblue" points="140.366,-44.9339 150.777,-42.9703 141.414,-38.0128 140.366,-44.9339"/>
</g>
<!-- Node53 -->
<g id="node3" class="node"><title>Node53</title>
<g id="a_node3"><a xlink:href="twid_8h.xhtml#a13f06b4cc25a29302d3c932e82136599" target="_top" xlink:title="Asynchronously reads data from a slave on the TWI bus. ">
<polygon fill="white" stroke="red" points="151,-0.5 151,-19.5 219,-19.5 219,-0.5 151,-0.5"/>
<text text-anchor="middle" x="185" y="-7.5" font-family="Helvetica,sans-Serif" font-size="10.00">TWID_Read</text>
</a>
</g>
</g>
<!-- Node42&#45;&gt;Node53 -->
<g id="edge2" class="edge"><title>Node42&#45;&gt;Node53</title>
<path fill="none" stroke="midnightblue" d="M115.009,-20.4449C123.609,-19.1429 132.367,-17.8169 140.628,-16.5662"/>
<polygon fill="midnightblue" stroke="midnightblue" points="141.414,-19.9872 150.777,-15.0297 140.366,-13.0661 141.414,-19.9872"/>
</g>
</g>
</svg>
