<?xml version="1.0" encoding="UTF-8" standalone="no"?>
<!DOCTYPE svg PUBLIC "-//W3C//DTD SVG 1.1//EN"
 "http://www.w3.org/Graphics/SVG/1.1/DTD/svg11.dtd">
<!-- Generated by graphviz version 2.38.0 (20140413.2041)
 -->
<!-- Title: src/hal/x4m0x_s70/libraries/libchip/include/iso7816_4.h Pages: 1 -->
<svg width="376pt" height="106pt"
 viewBox="0.00 0.00 376.00 106.00" xmlns="http://www.w3.org/2000/svg" xmlns:xlink="http://www.w3.org/1999/xlink">
<g id="graph0" class="graph" transform="scale(1 1) rotate(0) translate(4 102)">
<title>src/hal/x4m0x_s70/libraries/libchip/include/iso7816_4.h</title>
<polygon fill="white" stroke="none" points="-4,4 -4,-102 372,-102 372,4 -4,4"/>
<!-- Node39 -->
<g id="node1" class="node"><title>Node39</title>
<polygon fill="#bfbfbf" stroke="black" points="118,-67.5 118,-97.5 265,-97.5 265,-67.5 118,-67.5"/>
<text text-anchor="start" x="126" y="-85.5" font-family="Helvetica,sans-Serif" font-size="10.00">src/hal/x4m0x_s70/libraries</text>
<text text-anchor="middle" x="191.5" y="-74.5" font-family="Helvetica,sans-Serif" font-size="10.00">/libchip/include/iso7816_4.h</text>
</g>
<!-- Node40 -->
<g id="node2" class="node"><title>Node40</title>
<g id="a_node2"><a xlink:href="_r_e_m_o_v_e__board__e70__xpld_8h.xhtml" target="_top" xlink:title="src/hal/x4m0x_s70/libraries\l/libboard/REMOVE_board_e70_xpld.h">
<polygon fill="white" stroke="black" points="0,-0.5 0,-30.5 191,-30.5 191,-0.5 0,-0.5"/>
<text text-anchor="start" x="8" y="-18.5" font-family="Helvetica,sans-Serif" font-size="10.00">src/hal/x4m0x_s70/libraries</text>
<text text-anchor="middle" x="95.5" y="-7.5" font-family="Helvetica,sans-Serif" font-size="10.00">/libboard/REMOVE_board_e70_xpld.h</text>
</a>
</g>
</g>
<!-- Node39&#45;&gt;Node40 -->
<g id="edge1" class="edge"><title>Node39&#45;&gt;Node40</title>
<path fill="none" stroke="midnightblue" d="M162.307,-61.7337C147.452,-51.6755 129.742,-39.6847 116.29,-30.5765"/>
<polygon fill="midnightblue" stroke="midnightblue" points="160.427,-64.6875 170.669,-67.396 164.351,-58.8912 160.427,-64.6875"/>
</g>
<!-- Node41 -->
<g id="node3" class="node"><title>Node41</title>
<g id="a_node3"><a xlink:href="cciddriver_8c.xhtml" target="_top" xlink:title="src/hal/x4m0x_s70/libraries\l/libusb/device/ccid/cciddriver.c">
<polygon fill="white" stroke="black" points="209,-0.5 209,-30.5 368,-30.5 368,-0.5 209,-0.5"/>
<text text-anchor="start" x="217" y="-18.5" font-family="Helvetica,sans-Serif" font-size="10.00">src/hal/x4m0x_s70/libraries</text>
<text text-anchor="middle" x="288.5" y="-7.5" font-family="Helvetica,sans-Serif" font-size="10.00">/libusb/device/ccid/cciddriver.c</text>
</a>
</g>
</g>
<!-- Node39&#45;&gt;Node41 -->
<g id="edge2" class="edge"><title>Node39&#45;&gt;Node41</title>
<path fill="none" stroke="midnightblue" d="M220.997,-61.7337C236.007,-51.6755 253.901,-39.6847 267.494,-30.5765"/>
<polygon fill="midnightblue" stroke="midnightblue" points="218.906,-58.9216 212.548,-67.396 222.803,-64.7367 218.906,-58.9216"/>
</g>
</g>
</svg>
