<?xml version="1.0" encoding="UTF-8" standalone="no"?>
<!DOCTYPE svg PUBLIC "-//W3C//DTD SVG 1.1//EN"
 "http://www.w3.org/Graphics/SVG/1.1/DTD/svg11.dtd">
<!-- Generated by graphviz version 2.38.0 (20140413.2041)
 -->
<!-- Title: ISO7816_SetDataRateandClockFrequency Pages: 1 -->
<svg width="375pt" height="39pt"
 viewBox="0.00 0.00 375.00 39.00" xmlns="http://www.w3.org/2000/svg" xmlns:xlink="http://www.w3.org/1999/xlink">
<g id="graph0" class="graph" transform="scale(1 1) rotate(0) translate(4 35)">
<title>ISO7816_SetDataRateandClockFrequency</title>
<polygon fill="white" stroke="none" points="-4,4 -4,-35 371,-35 371,4 -4,4"/>
<!-- Node62 -->
<g id="node1" class="node"><title>Node62</title>
<polygon fill="#bfbfbf" stroke="black" points="0,-0.5 0,-30.5 167,-30.5 167,-0.5 0,-0.5"/>
<text text-anchor="start" x="8" y="-18.5" font-family="Helvetica,sans-Serif" font-size="10.00">ISO7816_SetDataRateandClock</text>
<text text-anchor="middle" x="83.5" y="-7.5" font-family="Helvetica,sans-Serif" font-size="10.00">Frequency</text>
</g>
<!-- Node63 -->
<g id="node2" class="node"><title>Node63</title>
<g id="a_node2"><a xlink:href="group__usbd__ccid.xhtml#ga7d52d40f62869fb554dcf021345bfa6c" target="_top" xlink:title="Command Pipe, Bulk&#45;OUT Messages This command is used to manually set the data rate and clock frequenc...">
<polygon fill="white" stroke="red" points="203,-0.5 203,-30.5 367,-30.5 367,-0.5 203,-0.5"/>
<text text-anchor="start" x="211" y="-18.5" font-family="Helvetica,sans-Serif" font-size="10.00">PCtoRDRSetDataRateAndClock</text>
<text text-anchor="middle" x="285" y="-7.5" font-family="Helvetica,sans-Serif" font-size="10.00">Frequency</text>
</a>
</g>
</g>
<!-- Node62&#45;&gt;Node63 -->
<g id="edge1" class="edge"><title>Node62&#45;&gt;Node63</title>
<path fill="none" stroke="midnightblue" d="M177.096,-15.5C185.666,-15.5 194.306,-15.5 202.762,-15.5"/>
<polygon fill="midnightblue" stroke="midnightblue" points="177.084,-12.0001 167.084,-15.5 177.084,-19.0001 177.084,-12.0001"/>
</g>
</g>
</svg>
