<?xml version="1.0" encoding="UTF-8" standalone="no"?>
<!DOCTYPE svg PUBLIC "-//W3C//DTD SVG 1.1//EN"
 "http://www.w3.org/Graphics/SVG/1.1/DTD/svg11.dtd">
<!-- Generated by graphviz version 2.38.0 (20140413.2041)
 -->
<!-- Title: ISO7816_warm_reset Pages: 1 -->
<svg width="280pt" height="66pt"
 viewBox="0.00 0.00 280.00 66.00" xmlns="http://www.w3.org/2000/svg" xmlns:xlink="http://www.w3.org/1999/xlink">
<g id="graph0" class="graph" transform="scale(1 1) rotate(0) translate(4 62)">
<title>ISO7816_warm_reset</title>
<polygon fill="white" stroke="none" points="-4,4 -4,-62 276,-62 276,4 -4,4"/>
<!-- Node82 -->
<g id="node1" class="node"><title>Node82</title>
<polygon fill="#bfbfbf" stroke="black" points="0,-19.5 0,-38.5 119,-38.5 119,-19.5 0,-19.5"/>
<text text-anchor="middle" x="59.5" y="-26.5" font-family="Helvetica,sans-Serif" font-size="10.00">ISO7816_warm_reset</text>
</g>
<!-- Node83 -->
<g id="node2" class="node"><title>Node83</title>
<g id="a_node2"><a xlink:href="iso7816__4_8c.xhtml#af4e4648dfca0ef0ed81f36ea040b5586" target="_top" xlink:title="Iso 7816 ICC power off. ">
<polygon fill="white" stroke="red" points="155,-38.5 155,-57.5 272,-57.5 272,-38.5 155,-38.5"/>
<text text-anchor="middle" x="213.5" y="-45.5" font-family="Helvetica,sans-Serif" font-size="10.00">ISO7816_IccPowerOff</text>
</a>
</g>
</g>
<!-- Node82&#45;&gt;Node83 -->
<g id="edge1" class="edge"><title>Node82&#45;&gt;Node83</title>
<path fill="none" stroke="midnightblue" d="M119.267,-36.3459C127.673,-37.3967 136.377,-38.4846 144.935,-39.5544"/>
<polygon fill="midnightblue" stroke="midnightblue" points="144.533,-43.0313 154.89,-40.7987 145.401,-36.0853 144.533,-43.0313"/>
</g>
<!-- Node85 -->
<g id="node3" class="node"><title>Node85</title>
<g id="a_node3"><a xlink:href="iso7816__4_8c.xhtml#a5fc5b5b36f1800193f453fb3226ff5fe" target="_top" xlink:title="Iso 7816 ICC power on. ">
<polygon fill="white" stroke="red" points="155,-0.5 155,-19.5 272,-19.5 272,-0.5 155,-0.5"/>
<text text-anchor="middle" x="213.5" y="-7.5" font-family="Helvetica,sans-Serif" font-size="10.00">ISO7816_IccPowerOn</text>
</a>
</g>
</g>
<!-- Node82&#45;&gt;Node85 -->
<g id="edge2" class="edge"><title>Node82&#45;&gt;Node85</title>
<path fill="none" stroke="midnightblue" d="M119.267,-21.6541C127.673,-20.6033 136.377,-19.5154 144.935,-18.4456"/>
<polygon fill="midnightblue" stroke="midnightblue" points="145.401,-21.9147 154.89,-17.2013 144.533,-14.9687 145.401,-21.9147"/>
</g>
</g>
</svg>
