<?xml version="1.0" encoding="UTF-8" standalone="no"?>
<!DOCTYPE svg PUBLIC "-//W3C//DTD SVG 1.1//EN"
 "http://www.w3.org/Graphics/SVG/1.1/DTD/svg11.dtd">
<!-- Generated by graphviz version 2.38.0 (20140413.2041)
 -->
<!-- Title: LCDD_DrawPixel Pages: 1 -->
<svg width="287pt" height="142pt"
 viewBox="0.00 0.00 287.00 142.00" xmlns="http://www.w3.org/2000/svg" xmlns:xlink="http://www.w3.org/1999/xlink">
<g id="graph0" class="graph" transform="scale(1 1) rotate(0) translate(4 138)">
<title>LCDD_DrawPixel</title>
<polygon fill="white" stroke="none" points="-4,4 -4,-138 283,-138 283,4 -4,4"/>
<!-- Node29 -->
<g id="node1" class="node"><title>Node29</title>
<polygon fill="#bfbfbf" stroke="black" points="0,-57.5 0,-76.5 95,-76.5 95,-57.5 0,-57.5"/>
<text text-anchor="middle" x="47.5" y="-64.5" font-family="Helvetica,sans-Serif" font-size="10.00">LCDD_DrawPixel</text>
</g>
<!-- Node30 -->
<g id="node2" class="node"><title>Node30</title>
<g id="a_node2"><a xlink:href="lcd__draw_8c.xhtml#adc3c5bdf3eda28885ff5109fded1c6bb" target="_top" xlink:title="Draws a circle on LCD, at the given coordinates. ">
<polygon fill="white" stroke="black" points="155.5,-114.5 155.5,-133.5 254.5,-133.5 254.5,-114.5 155.5,-114.5"/>
<text text-anchor="middle" x="205" y="-121.5" font-family="Helvetica,sans-Serif" font-size="10.00">LCDD_DrawCircle</text>
</a>
</g>
</g>
<!-- Node29&#45;&gt;Node30 -->
<g id="edge1" class="edge"><title>Node29&#45;&gt;Node30</title>
<path fill="none" stroke="midnightblue" d="M75.9779,-81.1445C91.7848,-88.9013 112.185,-98.2779 131,-105 140.866,-108.525 151.695,-111.702 161.921,-114.405"/>
<polygon fill="midnightblue" stroke="midnightblue" points="77.2959,-77.8908 66.7847,-76.5623 74.1733,-84.1557 77.2959,-77.8908"/>
</g>
<!-- Node31 -->
<g id="node3" class="node"><title>Node31</title>
<g id="a_node3"><a xlink:href="lcd__draw_8c.xhtml#a4748c46fe4b10f01e49106c9fd2d22da" target="_top" xlink:title="LCDD_DrawStraightLine">
<polygon fill="white" stroke="red" points="139.5,-76.5 139.5,-95.5 270.5,-95.5 270.5,-76.5 139.5,-76.5"/>
<text text-anchor="middle" x="205" y="-83.5" font-family="Helvetica,sans-Serif" font-size="10.00">LCDD_DrawStraightLine</text>
</a>
</g>
</g>
<!-- Node29&#45;&gt;Node31 -->
<g id="edge2" class="edge"><title>Node29&#45;&gt;Node31</title>
<path fill="none" stroke="midnightblue" d="M105.137,-73.9202C116.226,-75.2752 127.936,-76.706 139.266,-78.0904"/>
<polygon fill="midnightblue" stroke="midnightblue" points="105.506,-70.4394 95.1551,-72.7006 104.657,-77.3877 105.506,-70.4394"/>
</g>
<!-- Node33 -->
<g id="node4" class="node"><title>Node33</title>
<g id="a_node4"><a xlink:href="lcd__draw_8c.xhtml#a2ae2f58d2a7bb12afa7a6510dd94a0a6" target="_top" xlink:title="LCDD_DrawLineBresenham">
<polygon fill="white" stroke="red" points="131,-38.5 131,-57.5 279,-57.5 279,-38.5 131,-38.5"/>
<text text-anchor="middle" x="205" y="-45.5" font-family="Helvetica,sans-Serif" font-size="10.00">LCDD_DrawLineBresenham</text>
</a>
</g>
</g>
<!-- Node29&#45;&gt;Node33 -->
<g id="edge3" class="edge"><title>Node29&#45;&gt;Node33</title>
<path fill="none" stroke="midnightblue" d="M105.163,-60.0766C113.534,-59.0537 122.259,-57.9876 130.906,-56.9311"/>
<polygon fill="midnightblue" stroke="midnightblue" points="104.657,-56.6123 95.1551,-61.2994 105.506,-63.5606 104.657,-56.6123"/>
</g>
<!-- Node34 -->
<g id="node5" class="node"><title>Node34</title>
<g id="a_node5"><a xlink:href="lcd__font_8c.xhtml#a7a1d3226263630b8a47e0308efe00219" target="_top" xlink:title="Draws an ASCII character on LCD. ">
<polygon fill="white" stroke="red" points="157.5,-0.5 157.5,-19.5 252.5,-19.5 252.5,-0.5 157.5,-0.5"/>
<text text-anchor="middle" x="205" y="-7.5" font-family="Helvetica,sans-Serif" font-size="10.00">LCDD_DrawChar</text>
</a>
</g>
</g>
<!-- Node29&#45;&gt;Node34 -->
<g id="edge4" class="edge"><title>Node29&#45;&gt;Node34</title>
<path fill="none" stroke="midnightblue" d="M75.9779,-52.8555C91.7848,-45.0987 112.185,-35.7221 131,-29 140.866,-25.4752 151.695,-22.298 161.921,-19.5953"/>
<polygon fill="midnightblue" stroke="midnightblue" points="74.1733,-49.8443 66.7847,-57.4377 77.2959,-56.1092 74.1733,-49.8443"/>
</g>
</g>
</svg>
