<?xml version="1.0" encoding="UTF-8" standalone="no"?>
<!DOCTYPE svg PUBLIC "-//W3C//DTD SVG 1.1//EN"
 "http://www.w3.org/Graphics/SVG/1.1/DTD/svg11.dtd">
<!-- Generated by graphviz version 2.38.0 (20140413.2041)
 -->
<!-- Title: src/hal/x4m0x_s70/libraries/libboard/include/lcd_gimp_image.h Pages: 1 -->
<svg width="228pt" height="184pt"
 viewBox="0.00 0.00 228.00 184.00" xmlns="http://www.w3.org/2000/svg" xmlns:xlink="http://www.w3.org/1999/xlink">
<g id="graph0" class="graph" transform="scale(1 1) rotate(0) translate(4 180)">
<title>src/hal/x4m0x_s70/libraries/libboard/include/lcd_gimp_image.h</title>
<polygon fill="white" stroke="none" points="-4,4 -4,-180 224,-180 224,4 -4,4"/>
<!-- Node2 -->
<g id="node1" class="node"><title>Node2</title>
<polygon fill="#bfbfbf" stroke="black" points="51.5,-134.5 51.5,-175.5 197.5,-175.5 197.5,-134.5 51.5,-134.5"/>
<text text-anchor="start" x="59.5" y="-163.5" font-family="Helvetica,sans-Serif" font-size="10.00">src/hal/x4m0x_s70/libraries</text>
<text text-anchor="start" x="59.5" y="-152.5" font-family="Helvetica,sans-Serif" font-size="10.00">/libboard/include/lcd_gimp</text>
<text text-anchor="middle" x="124.5" y="-141.5" font-family="Helvetica,sans-Serif" font-size="10.00">_image.h</text>
</g>
<!-- Node3 -->
<g id="node2" class="node"><title>Node3</title>
<g id="a_node2"><a xlink:href="lcd__draw_8h.xhtml" target="_top" xlink:title="Interface for draw function on LCD. ">
<polygon fill="white" stroke="black" points="0,-67.5 0,-97.5 147,-97.5 147,-67.5 0,-67.5"/>
<text text-anchor="start" x="8" y="-85.5" font-family="Helvetica,sans-Serif" font-size="10.00">src/hal/x4m0x_s70/libraries</text>
<text text-anchor="middle" x="73.5" y="-74.5" font-family="Helvetica,sans-Serif" font-size="10.00">/libboard/include/lcd_draw.h</text>
</a>
</g>
</g>
<!-- Node2&#45;&gt;Node3 -->
<g id="edge1" class="edge"><title>Node2&#45;&gt;Node3</title>
<path fill="none" stroke="midnightblue" d="M104.347,-126.142C97.352,-116.472 89.7946,-106.025 83.9109,-97.8916"/>
<polygon fill="midnightblue" stroke="midnightblue" points="101.597,-128.311 110.294,-134.362 107.268,-124.208 101.597,-128.311"/>
</g>
<!-- Node4 -->
<g id="node3" class="node"><title>Node4</title>
<g id="a_node3"><a xlink:href="_r_e_m_o_v_e__board__e70__xpld_8h.xhtml" target="_top" xlink:title="src/hal/x4m0x_s70/libraries\l/libboard/REMOVE_board_e70_xpld.h">
<polygon fill="white" stroke="black" points="29,-0.5 29,-30.5 220,-30.5 220,-0.5 29,-0.5"/>
<text text-anchor="start" x="37" y="-18.5" font-family="Helvetica,sans-Serif" font-size="10.00">src/hal/x4m0x_s70/libraries</text>
<text text-anchor="middle" x="124.5" y="-7.5" font-family="Helvetica,sans-Serif" font-size="10.00">/libboard/REMOVE_board_e70_xpld.h</text>
</a>
</g>
</g>
<!-- Node2&#45;&gt;Node4 -->
<g id="edge3" class="edge"><title>Node2&#45;&gt;Node4</title>
<path fill="none" stroke="midnightblue" d="M144.467,-125.643C149.386,-117.144 153.967,-107.537 156.5,-98 160.036,-84.6838 160.339,-80.232 156.5,-67 152.624,-53.6426 144.038,-40.4324 136.735,-30.875"/>
<polygon fill="midnightblue" stroke="midnightblue" points="141.352,-124.026 139.078,-134.374 147.309,-127.703 141.352,-124.026"/>
</g>
<!-- Node3&#45;&gt;Node4 -->
<g id="edge2" class="edge"><title>Node3&#45;&gt;Node4</title>
<path fill="none" stroke="midnightblue" d="M90.8029,-59.4472C98.2949,-49.8986 106.843,-39.0037 113.455,-30.5765"/>
<polygon fill="midnightblue" stroke="midnightblue" points="87.9856,-57.368 84.5662,-67.396 93.4927,-61.6891 87.9856,-57.368"/>
</g>
</g>
</svg>
