<?xml version="1.0" encoding="UTF-8" standalone="no"?>
<!DOCTYPE svg PUBLIC "-//W3C//DTD SVG 1.1//EN"
 "http://www.w3.org/Graphics/SVG/1.1/DTD/svg11.dtd">
<!-- Generated by graphviz version 2.38.0 (20140413.2041)
 -->
<!-- Title: LCDD_SetUpdateWindowSize Pages: 1 -->
<svg width="322pt" height="66pt"
 viewBox="0.00 0.00 322.00 66.00" xmlns="http://www.w3.org/2000/svg" xmlns:xlink="http://www.w3.org/1999/xlink">
<g id="graph0" class="graph" transform="scale(1 1) rotate(0) translate(4 62)">
<title>LCDD_SetUpdateWindowSize</title>
<polygon fill="white" stroke="none" points="-4,4 -4,-62 318,-62 318,4 -4,4"/>
<!-- Node54 -->
<g id="node1" class="node"><title>Node54</title>
<polygon fill="#bfbfbf" stroke="black" points="0,-19.5 0,-38.5 156,-38.5 156,-19.5 0,-19.5"/>
<text text-anchor="middle" x="78" y="-26.5" font-family="Helvetica,sans-Serif" font-size="10.00">LCDD_SetUpdateWindowSize</text>
</g>
<!-- Node55 -->
<g id="node2" class="node"><title>Node55</title>
<g id="a_node2"><a xlink:href="ili9488__spi_8h.xhtml#a2346ec9c1b341033714a11fe1a317913" target="_top" xlink:title="ILI9488_SpiSetWindow">
<polygon fill="white" stroke="black" points="192,-38.5 192,-57.5 314,-57.5 314,-38.5 192,-38.5"/>
<text text-anchor="middle" x="253" y="-45.5" font-family="Helvetica,sans-Serif" font-size="10.00">ILI9488_SpiSetWindow</text>
</a>
</g>
</g>
<!-- Node54&#45;&gt;Node55 -->
<g id="edge1" class="edge"><title>Node54&#45;&gt;Node55</title>
<path fill="none" stroke="midnightblue" d="M156.14,-37.472C164.66,-38.4077 173.302,-39.3569 181.731,-40.2826"/>
<polygon fill="midnightblue" stroke="midnightblue" points="181.562,-43.785 191.884,-41.3977 182.326,-36.8268 181.562,-43.785"/>
</g>
<!-- Node56 -->
<g id="node3" class="node"><title>Node56</title>
<g id="a_node3"><a xlink:href="ili9488__ebi_8h.xhtml#a36f71ae21b3643eb059fa174edc5b3a2" target="_top" xlink:title="ILI9488_EbiSetWindow">
<polygon fill="white" stroke="black" points="192,-0.5 192,-19.5 314,-19.5 314,-0.5 192,-0.5"/>
<text text-anchor="middle" x="253" y="-7.5" font-family="Helvetica,sans-Serif" font-size="10.00">ILI9488_EbiSetWindow</text>
</a>
</g>
</g>
<!-- Node54&#45;&gt;Node56 -->
<g id="edge2" class="edge"><title>Node54&#45;&gt;Node56</title>
<path fill="none" stroke="midnightblue" d="M156.14,-20.528C164.66,-19.5923 173.302,-18.6431 181.731,-17.7174"/>
<polygon fill="midnightblue" stroke="midnightblue" points="182.326,-21.1732 191.884,-16.6023 181.562,-14.215 182.326,-21.1732"/>
</g>
</g>
</svg>
