<?xml version="1.0" encoding="UTF-8" standalone="no"?>
<!DOCTYPE svg PUBLIC "-//W3C//DTD SVG 1.1//EN"
 "http://www.w3.org/Graphics/SVG/1.1/DTD/svg11.dtd">
<!-- Generated by graphviz version 2.38.0 (20140413.2041)
 -->
<!-- Title: LCDD_UpdatePartialWindow Pages: 1 -->
<svg width="339pt" height="66pt"
 viewBox="0.00 0.00 339.00 66.00" xmlns="http://www.w3.org/2000/svg" xmlns:xlink="http://www.w3.org/1999/xlink">
<g id="graph0" class="graph" transform="scale(1 1) rotate(0) translate(4 62)">
<title>LCDD_UpdatePartialWindow</title>
<polygon fill="white" stroke="none" points="-4,4 -4,-62 335,-62 335,4 -4,4"/>
<!-- Node67 -->
<g id="node1" class="node"><title>Node67</title>
<polygon fill="#bfbfbf" stroke="black" points="0,-19.5 0,-38.5 149,-38.5 149,-19.5 0,-19.5"/>
<text text-anchor="middle" x="74.5" y="-26.5" font-family="Helvetica,sans-Serif" font-size="10.00">LCDD_UpdatePartialWindow</text>
</g>
<!-- Node68 -->
<g id="node2" class="node"><title>Node68</title>
<g id="a_node2"><a xlink:href="ili9488__spi__dma_8h.xhtml#ab421358c70ab75d3d2a84b42a6fd56b3" target="_top" xlink:title="ILI9488_SpiSendCommand">
<polygon fill="white" stroke="black" points="185,-38.5 185,-57.5 331,-57.5 331,-38.5 185,-38.5"/>
<text text-anchor="middle" x="258" y="-45.5" font-family="Helvetica,sans-Serif" font-size="10.00">ILI9488_SpiSendCommand</text>
</a>
</g>
</g>
<!-- Node67&#45;&gt;Node68 -->
<g id="edge1" class="edge"><title>Node67&#45;&gt;Node68</title>
<path fill="none" stroke="midnightblue" d="M149.061,-36.7006C157.537,-37.5879 166.22,-38.4968 174.8,-39.395"/>
<polygon fill="midnightblue" stroke="midnightblue" points="174.496,-42.8823 184.806,-40.4425 175.225,-35.9203 174.496,-42.8823"/>
</g>
<!-- Node69 -->
<g id="node3" class="node"><title>Node69</title>
<g id="a_node3"><a xlink:href="ili9488__ebi__dma_8h.xhtml#ae8573a1024ed37a7e4f226b67ef324ff" target="_top" xlink:title="ILI9488_EbiSendCommand">
<polygon fill="white" stroke="black" points="185.5,-0.5 185.5,-19.5 330.5,-19.5 330.5,-0.5 185.5,-0.5"/>
<text text-anchor="middle" x="258" y="-7.5" font-family="Helvetica,sans-Serif" font-size="10.00">ILI9488_EbiSendCommand</text>
</a>
</g>
</g>
<!-- Node67&#45;&gt;Node69 -->
<g id="edge2" class="edge"><title>Node67&#45;&gt;Node69</title>
<path fill="none" stroke="midnightblue" d="M149.061,-21.2994C157.678,-20.3974 166.509,-19.4729 175.229,-18.5601"/>
<polygon fill="midnightblue" stroke="midnightblue" points="175.812,-22.0182 185.394,-17.496 175.084,-15.0562 175.812,-22.0182"/>
</g>
</g>
</svg>
