<?xml version="1.0" encoding="UTF-8" standalone="no"?>
<!DOCTYPE svg PUBLIC "-//W3C//DTD SVG 1.1//EN"
 "http://www.w3.org/Graphics/SVG/1.1/DTD/svg11.dtd">
<!-- Generated by graphviz version 2.38.0 (20140413.2041)
 -->
<!-- Title: LCDD_On Pages: 1 -->
<svg width="190pt" height="66pt"
 viewBox="0.00 0.00 190.00 66.00" xmlns="http://www.w3.org/2000/svg" xmlns:xlink="http://www.w3.org/1999/xlink">
<g id="graph0" class="graph" transform="scale(1 1) rotate(0) translate(4 62)">
<title>LCDD_On</title>
<polygon fill="white" stroke="none" points="-4,4 -4,-62 186,-62 186,4 -4,4"/>
<!-- Node11 -->
<g id="node1" class="node"><title>Node11</title>
<polygon fill="#bfbfbf" stroke="black" points="0,-19.5 0,-38.5 62,-38.5 62,-19.5 0,-19.5"/>
<text text-anchor="middle" x="31" y="-26.5" font-family="Helvetica,sans-Serif" font-size="10.00">LCDD_On</text>
</g>
<!-- Node12 -->
<g id="node2" class="node"><title>Node12</title>
<g id="a_node2"><a xlink:href="ili9488__spi_8h.xhtml#a6dde67ad82b01a9e03c78008aa88c2d3" target="_top" xlink:title="ILI9488_SpiOn">
<polygon fill="white" stroke="black" points="98,-38.5 98,-57.5 182,-57.5 182,-38.5 98,-38.5"/>
<text text-anchor="middle" x="140" y="-45.5" font-family="Helvetica,sans-Serif" font-size="10.00">ILI9488_SpiOn</text>
</a>
</g>
</g>
<!-- Node11&#45;&gt;Node12 -->
<g id="edge1" class="edge"><title>Node11&#45;&gt;Node12</title>
<path fill="none" stroke="midnightblue" d="M62.0902,-34.3431C70.1741,-35.7786 79.1463,-37.3718 88.0254,-38.9484"/>
<polygon fill="midnightblue" stroke="midnightblue" points="87.5006,-42.4099 97.9585,-40.7123 88.7245,-35.5177 87.5006,-42.4099"/>
</g>
<!-- Node13 -->
<g id="node3" class="node"><title>Node13</title>
<g id="a_node3"><a xlink:href="ili9488__ebi_8h.xhtml#af235ff0bfcb054ca5f540820b127a55f" target="_top" xlink:title="ILI9488_EbiOn">
<polygon fill="white" stroke="black" points="98.5,-0.5 98.5,-19.5 181.5,-19.5 181.5,-0.5 98.5,-0.5"/>
<text text-anchor="middle" x="140" y="-7.5" font-family="Helvetica,sans-Serif" font-size="10.00">ILI9488_EbiOn</text>
</a>
</g>
</g>
<!-- Node11&#45;&gt;Node13 -->
<g id="edge2" class="edge"><title>Node11&#45;&gt;Node13</title>
<path fill="none" stroke="midnightblue" d="M62.0902,-23.6569C70.2639,-22.2055 79.3457,-20.5928 88.3214,-18.999"/>
<polygon fill="midnightblue" stroke="midnightblue" points="89.1219,-22.4117 98.356,-17.2172 87.898,-15.5195 89.1219,-22.4117"/>
</g>
</g>
</svg>
