<?xml version="1.0" encoding="UTF-8" standalone="no"?>
<!DOCTYPE svg PUBLIC "-//W3C//DTD SVG 1.1//EN"
 "http://www.w3.org/Graphics/SVG/1.1/DTD/svg11.dtd">
<!-- Generated by graphviz version 2.38.0 (20140413.2041)
 -->
<!-- Title: LCDD_Off Pages: 1 -->
<svg width="222pt" height="104pt"
 viewBox="0.00 0.00 222.00 104.00" xmlns="http://www.w3.org/2000/svg" xmlns:xlink="http://www.w3.org/1999/xlink">
<g id="graph0" class="graph" transform="scale(1 1) rotate(0) translate(4 100)">
<title>LCDD_Off</title>
<polygon fill="white" stroke="none" points="-4,4 -4,-100 218,-100 218,4 -4,4"/>
<!-- Node6 -->
<g id="node1" class="node"><title>Node6</title>
<polygon fill="#bfbfbf" stroke="black" points="0,-38.5 0,-57.5 62,-57.5 62,-38.5 0,-38.5"/>
<text text-anchor="middle" x="31" y="-45.5" font-family="Helvetica,sans-Serif" font-size="10.00">LCDD_Off</text>
</g>
<!-- Node7 -->
<g id="node2" class="node"><title>Node7</title>
<g id="a_node2"><a xlink:href="ili9488__spi_8h.xhtml#a8fb0156b534d287de2043cb7f4087f2e" target="_top" xlink:title="ILI9488_SpiOff">
<polygon fill="white" stroke="black" points="114,-76.5 114,-95.5 198,-95.5 198,-76.5 114,-76.5"/>
<text text-anchor="middle" x="156" y="-83.5" font-family="Helvetica,sans-Serif" font-size="10.00">ILI9488_SpiOff</text>
</a>
</g>
</g>
<!-- Node6&#45;&gt;Node7 -->
<g id="edge1" class="edge"><title>Node6&#45;&gt;Node7</title>
<path fill="none" stroke="midnightblue" d="M62.0892,-57.2958C77.7847,-62.1449 97.2114,-68.1466 114.237,-73.4065"/>
<polygon fill="midnightblue" stroke="midnightblue" points="113.35,-76.7955 123.937,-76.4033 115.416,-70.1074 113.35,-76.7955"/>
</g>
<!-- Node8 -->
<g id="node3" class="node"><title>Node8</title>
<g id="a_node3"><a xlink:href="ili9488__ebi_8h.xhtml#a7fb889954871eaf062eaf02668c150b9" target="_top" xlink:title="ILI9488_EbiOff">
<polygon fill="white" stroke="black" points="114.5,-38.5 114.5,-57.5 197.5,-57.5 197.5,-38.5 114.5,-38.5"/>
<text text-anchor="middle" x="156" y="-45.5" font-family="Helvetica,sans-Serif" font-size="10.00">ILI9488_EbiOff</text>
</a>
</g>
</g>
<!-- Node6&#45;&gt;Node8 -->
<g id="edge2" class="edge"><title>Node6&#45;&gt;Node8</title>
<path fill="none" stroke="midnightblue" d="M62.0892,-48C74.6798,-48 89.6714,-48 103.898,-48"/>
<polygon fill="midnightblue" stroke="midnightblue" points="104.078,-51.5001 114.077,-48 104.077,-44.5001 104.078,-51.5001"/>
</g>
<!-- Node9 -->
<g id="node4" class="node"><title>Node9</title>
<g id="a_node4"><a xlink:href="pwmc_8h.xhtml#ad568ae9cc98ca77642950aded8981aab" target="_top" xlink:title="Sets the duty cycle used by a PWM channel. ">
<polygon fill="white" stroke="black" points="98,-0.5 98,-19.5 214,-19.5 214,-0.5 98,-0.5"/>
<text text-anchor="middle" x="156" y="-7.5" font-family="Helvetica,sans-Serif" font-size="10.00">PWMC_SetDutyCycle</text>
</a>
</g>
</g>
<!-- Node6&#45;&gt;Node9 -->
<g id="edge3" class="edge"><title>Node6&#45;&gt;Node9</title>
<path fill="none" stroke="midnightblue" d="M62.0892,-38.7042C77.7847,-33.8551 97.2114,-27.8534 114.237,-22.5935"/>
<polygon fill="midnightblue" stroke="midnightblue" points="115.416,-25.8926 123.937,-19.5967 113.35,-19.2045 115.416,-25.8926"/>
</g>
</g>
</svg>
