<?xml version="1.0" encoding="UTF-8" standalone="no"?>
<!DOCTYPE svg PUBLIC "-//W3C//DTD SVG 1.1//EN"
 "http://www.w3.org/Graphics/SVG/1.1/DTD/svg11.dtd">
<!-- Generated by graphviz version 2.38.0 (20140413.2041)
 -->
<!-- Title: QSPI_SendCommandWithData Pages: 1 -->
<svg width="347pt" height="66pt"
 viewBox="0.00 0.00 347.00 66.00" xmlns="http://www.w3.org/2000/svg" xmlns:xlink="http://www.w3.org/1999/xlink">
<g id="graph0" class="graph" transform="scale(1 1) rotate(0) translate(4 62)">
<title>QSPI_SendCommandWithData</title>
<polygon fill="white" stroke="none" points="-4,4 -4,-62 343,-62 343,4 -4,4"/>
<!-- Node430 -->
<g id="node1" class="node"><title>Node430</title>
<polygon fill="#bfbfbf" stroke="black" points="0,-19.5 0,-38.5 163,-38.5 163,-19.5 0,-19.5"/>
<text text-anchor="middle" x="81.5" y="-26.5" font-family="Helvetica,sans-Serif" font-size="10.00">QSPI_SendCommandWithData</text>
</g>
<!-- Node431 -->
<g id="node2" class="node"><title>Node431</title>
<g id="a_node2"><a xlink:href="s25fl1_8c.xhtml#a1a915b35968bc2e31ab4fe5e38a76708" target="_top" xlink:title="Start S25FL1D Send command with/without data write/read. ">
<polygon fill="white" stroke="red" points="199,-38.5 199,-57.5 339,-57.5 339,-38.5 199,-38.5"/>
<text text-anchor="middle" x="269" y="-45.5" font-family="Helvetica,sans-Serif" font-size="10.00">S25FL1D_SendCommand</text>
</a>
</g>
</g>
<!-- Node430&#45;&gt;Node431 -->
<g id="edge1" class="edge"><title>Node430&#45;&gt;Node431</title>
<path fill="none" stroke="midnightblue" d="M173.166,-38.2865C181.804,-39.1713 190.467,-40.0586 198.854,-40.9176"/>
<polygon fill="midnightblue" stroke="midnightblue" points="173.358,-34.788 163.054,-37.2508 172.645,-41.7516 173.358,-34.788"/>
</g>
<!-- Node453 -->
<g id="node3" class="node"><title>Node453</title>
<g id="a_node3"><a xlink:href="xtio__spi_8c.xhtml#a64a60847a947e7e747f90424e2e7fff7" target="_top" xlink:title="xtio_spi_write_read">
<polygon fill="white" stroke="red" points="215.5,-0.5 215.5,-19.5 322.5,-19.5 322.5,-0.5 215.5,-0.5"/>
<text text-anchor="middle" x="269" y="-7.5" font-family="Helvetica,sans-Serif" font-size="10.00">xtio_spi_write_read</text>
</a>
</g>
</g>
<!-- Node430&#45;&gt;Node453 -->
<g id="edge2" class="edge"><title>Node430&#45;&gt;Node453</title>
<path fill="none" stroke="midnightblue" d="M173.055,-19.7249C187.542,-18.241 202.101,-16.7498 215.317,-15.3961"/>
<polygon fill="midnightblue" stroke="midnightblue" points="172.645,-16.2484 163.054,-20.7492 173.358,-23.212 172.645,-16.2484"/>
</g>
</g>
</svg>
