<?xml version="1.0" encoding="UTF-8" standalone="no"?>
<!DOCTYPE svg PUBLIC "-//W3C//DTD SVG 1.1//EN"
 "http://www.w3.org/Graphics/SVG/1.1/DTD/svg11.dtd">
<!-- Generated by graphviz version 2.38.0 (20140413.2041)
 -->
<!-- Title: QSPI_ConfigureInterface Pages: 1 -->
<svg width="292pt" height="142pt"
 viewBox="0.00 0.00 292.00 142.00" xmlns="http://www.w3.org/2000/svg" xmlns:xlink="http://www.w3.org/1999/xlink">
<g id="graph0" class="graph" transform="scale(1 1) rotate(0) translate(4 138)">
<title>QSPI_ConfigureInterface</title>
<polygon fill="white" stroke="none" points="-4,4 -4,-138 288,-138 288,4 -4,4"/>
<!-- Node18 -->
<g id="node1" class="node"><title>Node18</title>
<polygon fill="#bfbfbf" stroke="black" points="0,-57.5 0,-76.5 132,-76.5 132,-57.5 0,-57.5"/>
<text text-anchor="middle" x="66" y="-64.5" font-family="Helvetica,sans-Serif" font-size="10.00">QSPI_ConfigureInterface</text>
</g>
<!-- Node19 -->
<g id="node2" class="node"><title>Node19</title>
<g id="a_node2"><a xlink:href="libraries_2libchip_2source_2qspi_8c.xhtml#a24e4ad68361409458213083438db8449" target="_top" xlink:title="Disables a QSPI peripheral. ">
<polygon fill="white" stroke="black" points="186,-114.5 186,-133.5 266,-133.5 266,-114.5 186,-114.5"/>
<text text-anchor="middle" x="226" y="-121.5" font-family="Helvetica,sans-Serif" font-size="10.00">QSPI_Disable</text>
</a>
</g>
</g>
<!-- Node18&#45;&gt;Node19 -->
<g id="edge1" class="edge"><title>Node18&#45;&gt;Node19</title>
<path fill="none" stroke="midnightblue" d="M91.8072,-76.6348C112.193,-84.4797 141.867,-95.7323 168,-105 173.731,-107.033 179.808,-109.125 185.776,-111.144"/>
<polygon fill="midnightblue" stroke="midnightblue" points="185.042,-114.589 195.636,-114.45 187.268,-107.952 185.042,-114.589"/>
</g>
<!-- Node20 -->
<g id="node3" class="node"><title>Node20</title>
<g id="a_node3"><a xlink:href="libraries_2libchip_2source_2qspi_8c.xhtml#ad41ddc810992fae62c42f245a989381a" target="_top" xlink:title="Resets a QSPI peripheral. ">
<polygon fill="white" stroke="black" points="184,-76.5 184,-95.5 268,-95.5 268,-76.5 184,-76.5"/>
<text text-anchor="middle" x="226" y="-83.5" font-family="Helvetica,sans-Serif" font-size="10.00">QSPI_SwReset</text>
</a>
</g>
</g>
<!-- Node18&#45;&gt;Node20 -->
<g id="edge2" class="edge"><title>Node18&#45;&gt;Node20</title>
<path fill="none" stroke="midnightblue" d="M132.177,-74.8377C145.994,-76.4993 160.394,-78.2309 173.614,-79.8206"/>
<polygon fill="midnightblue" stroke="midnightblue" points="173.582,-83.342 183.929,-81.0611 174.418,-76.3921 173.582,-83.342"/>
</g>
<!-- Node21 -->
<g id="node4" class="node"><title>Node21</title>
<g id="a_node4"><a xlink:href="libraries_2libchip_2source_2qspi_8c.xhtml#afde6147001d6981039fdb672af9fe0d4" target="_top" xlink:title="Configure QSPI/SPI mode. ">
<polygon fill="white" stroke="black" points="168,-38.5 168,-57.5 284,-57.5 284,-38.5 168,-38.5"/>
<text text-anchor="middle" x="226" y="-45.5" font-family="Helvetica,sans-Serif" font-size="10.00">QSPI_ConfigureMode</text>
</a>
</g>
</g>
<!-- Node18&#45;&gt;Node21 -->
<g id="edge3" class="edge"><title>Node18&#45;&gt;Node21</title>
<path fill="none" stroke="midnightblue" d="M132.177,-59.1623C140.517,-58.1594 149.069,-57.131 157.445,-56.1237"/>
<polygon fill="midnightblue" stroke="midnightblue" points="158.039,-59.5775 167.55,-54.9086 157.203,-52.6276 158.039,-59.5775"/>
</g>
<!-- Node22 -->
<g id="node5" class="node"><title>Node22</title>
<g id="a_node5"><a xlink:href="libraries_2libchip_2source_2qspi_8c.xhtml#a540d57bb3a49cb62569937d3f54f7085" target="_top" xlink:title="Configure mode register of QSPI. ">
<polygon fill="white" stroke="black" points="181,-0.5 181,-19.5 271,-19.5 271,-0.5 181,-0.5"/>
<text text-anchor="middle" x="226" y="-7.5" font-family="Helvetica,sans-Serif" font-size="10.00">QSPI_Configure</text>
</a>
</g>
</g>
<!-- Node18&#45;&gt;Node22 -->
<g id="edge4" class="edge"><title>Node18&#45;&gt;Node22</title>
<path fill="none" stroke="midnightblue" d="M91.8072,-57.3652C112.193,-49.5203 141.867,-38.2677 168,-29 173.731,-26.9675 179.808,-24.8753 185.776,-22.8562"/>
<polygon fill="midnightblue" stroke="midnightblue" points="187.268,-26.0476 195.636,-19.5503 185.042,-19.4107 187.268,-26.0476"/>
</g>
</g>
</svg>
