<?xml version="1.0" encoding="UTF-8" standalone="no"?>
<!DOCTYPE svg PUBLIC "-//W3C//DTD SVG 1.1//EN"
 "http://www.w3.org/Graphics/SVG/1.1/DTD/svg11.dtd">
<!-- Generated by graphviz version 2.38.0 (20140413.2041)
 -->
<!-- Title: src/main.c Pages: 1 -->
<svg width="673pt" height="140pt"
 viewBox="0.00 0.00 672.50 140.00" xmlns="http://www.w3.org/2000/svg" xmlns:xlink="http://www.w3.org/1999/xlink">
<g id="graph0" class="graph" transform="scale(1 1) rotate(0) translate(4 136)">
<title>src/main.c</title>
<polygon fill="white" stroke="none" points="-4,4 -4,-136 668.5,-136 668.5,4 -4,4"/>
<!-- Node0 -->
<g id="node1" class="node"><title>Node0</title>
<polygon fill="#bfbfbf" stroke="black" points="220.5,-112.5 220.5,-131.5 286.5,-131.5 286.5,-112.5 220.5,-112.5"/>
<text text-anchor="middle" x="253.5" y="-119.5" font-family="Helvetica,sans-Serif" font-size="10.00">src/main.c</text>
</g>
<!-- Node1 -->
<g id="node2" class="node"><title>Node1</title>
<g id="a_node2"><a xlink:href="board_8h.xhtml" target="_top" xlink:title="Definition of SAM E70 Xplained board characteristics, PIOs and external components interface...">
<polygon fill="white" stroke="black" points="0,-56.5 0,-75.5 53,-75.5 53,-56.5 0,-56.5"/>
<text text-anchor="middle" x="26.5" y="-63.5" font-family="Helvetica,sans-Serif" font-size="10.00">board.h</text>
</a>
</g>
</g>
<!-- Node0&#45;&gt;Node1 -->
<g id="edge1" class="edge"><title>Node0&#45;&gt;Node1</title>
<path fill="none" stroke="midnightblue" d="M220.492,-113.148C178.6,-103.182 106.565,-86.0464 63.0508,-75.6949"/>
<polygon fill="midnightblue" stroke="midnightblue" points="63.7039,-72.2527 53.1654,-73.3433 62.0839,-79.0626 63.7039,-72.2527"/>
</g>
<!-- Node2 -->
<g id="node3" class="node"><title>Node2</title>
<polygon fill="white" stroke="#bfbfbf" points="267,-0.5 267,-19.5 338,-19.5 338,-0.5 267,-0.5"/>
<text text-anchor="middle" x="302.5" y="-7.5" font-family="Helvetica,sans-Serif" font-size="10.00">FreeRTOS.h</text>
</g>
<!-- Node0&#45;&gt;Node2 -->
<g id="edge2" class="edge"><title>Node0&#45;&gt;Node2</title>
<path fill="none" stroke="midnightblue" d="M220.101,-118.679C165.508,-113.624 66.4706,-98.4444 100.5,-56 119.674,-32.0851 203.023,-20.0587 256.483,-14.697"/>
<polygon fill="midnightblue" stroke="midnightblue" points="257.129,-18.1512 266.749,-13.712 256.46,-11.1832 257.129,-18.1512"/>
</g>
<!-- Node3 -->
<g id="node4" class="node"><title>Node3</title>
<polygon fill="white" stroke="#bfbfbf" points="109.5,-56.5 109.5,-75.5 155.5,-75.5 155.5,-56.5 109.5,-56.5"/>
<text text-anchor="middle" x="132.5" y="-63.5" font-family="Helvetica,sans-Serif" font-size="10.00">task.h</text>
</g>
<!-- Node0&#45;&gt;Node3 -->
<g id="edge3" class="edge"><title>Node0&#45;&gt;Node3</title>
<path fill="none" stroke="midnightblue" d="M234.327,-112.444C214.591,-103.636 183.615,-89.8116 161.007,-79.722"/>
<polygon fill="midnightblue" stroke="midnightblue" points="162.141,-76.3957 151.583,-75.5164 159.289,-82.788 162.141,-76.3957"/>
</g>
<!-- Node4 -->
<g id="node5" class="node"><title>Node4</title>
<g id="a_node5"><a xlink:href="xep__hal_8h.xhtml" target="_top" xlink:title="Brief description. ">
<polygon fill="white" stroke="red" points="173.5,-56.5 173.5,-75.5 235.5,-75.5 235.5,-56.5 173.5,-56.5"/>
<text text-anchor="middle" x="204.5" y="-63.5" font-family="Helvetica,sans-Serif" font-size="10.00">xep_hal.h</text>
</a>
</g>
</g>
<!-- Node0&#45;&gt;Node4 -->
<g id="edge4" class="edge"><title>Node0&#45;&gt;Node4</title>
<path fill="none" stroke="midnightblue" d="M245.409,-112.083C238.345,-104.298 227.912,-92.8015 219.351,-83.3665"/>
<polygon fill="midnightblue" stroke="midnightblue" points="221.753,-80.8047 212.441,-75.7511 216.569,-85.5087 221.753,-80.8047"/>
</g>
<!-- Node7 -->
<g id="node6" class="node"><title>Node7</title>
<g id="a_node6"><a xlink:href="xep__application_8h.xhtml" target="_top" xlink:title="XEP Module application interface. ">
<polygon fill="white" stroke="red" points="253.5,-56.5 253.5,-75.5 353.5,-75.5 353.5,-56.5 253.5,-56.5"/>
<text text-anchor="middle" x="303.5" y="-63.5" font-family="Helvetica,sans-Serif" font-size="10.00">xep_application.h</text>
</a>
</g>
</g>
<!-- Node0&#45;&gt;Node7 -->
<g id="edge5" class="edge"><title>Node0&#45;&gt;Node7</title>
<path fill="none" stroke="midnightblue" d="M261.756,-112.083C268.965,-104.298 279.61,-92.8015 288.346,-83.3665"/>
<polygon fill="midnightblue" stroke="midnightblue" points="291.171,-85.4666 295.397,-75.7511 286.035,-80.7108 291.171,-85.4666"/>
</g>
<!-- Node13 -->
<g id="node7" class="node"><title>Node13</title>
<g id="a_node7"><a xlink:href="task__monitor_8h.xhtml" target="_top" xlink:title="System monitor task. ">
<polygon fill="white" stroke="red" points="371.5,-56.5 371.5,-75.5 459.5,-75.5 459.5,-56.5 371.5,-56.5"/>
<text text-anchor="middle" x="415.5" y="-63.5" font-family="Helvetica,sans-Serif" font-size="10.00">task_monitor.h</text>
</a>
</g>
</g>
<!-- Node0&#45;&gt;Node13 -->
<g id="edge6" class="edge"><title>Node0&#45;&gt;Node13</title>
<path fill="none" stroke="midnightblue" d="M279.169,-112.444C306.423,-103.359 349.684,-88.9388 380.151,-78.7831"/>
<polygon fill="midnightblue" stroke="midnightblue" points="381.571,-81.9992 389.951,-75.5164 379.357,-75.3584 381.571,-81.9992"/>
</g>
<!-- Node14 -->
<g id="node8" class="node"><title>Node14</title>
<g id="a_node8"><a xlink:href="task__hostcom_8h.xhtml" target="_top" xlink:title="task_hostcom.h">
<polygon fill="white" stroke="red" points="477,-56.5 477,-75.5 570,-75.5 570,-56.5 477,-56.5"/>
<text text-anchor="middle" x="523.5" y="-63.5" font-family="Helvetica,sans-Serif" font-size="10.00">task_hostcom.h</text>
</a>
</g>
</g>
<!-- Node0&#45;&gt;Node14 -->
<g id="edge7" class="edge"><title>Node0&#45;&gt;Node14</title>
<path fill="none" stroke="midnightblue" d="M286.607,-114.379C332.607,-105.179 416.342,-88.4316 470.935,-77.5131"/>
<polygon fill="midnightblue" stroke="midnightblue" points="471.654,-80.9386 480.774,-75.5453 470.281,-74.0745 471.654,-80.9386"/>
</g>
<!-- Node16 -->
<g id="node9" class="node"><title>Node16</title>
<g id="a_node9"><a xlink:href="task__radar_8h.xhtml" target="_top" xlink:title="Radar event task. ">
<polygon fill="white" stroke="red" points="588.5,-56.5 588.5,-75.5 664.5,-75.5 664.5,-56.5 588.5,-56.5"/>
<text text-anchor="middle" x="626.5" y="-63.5" font-family="Helvetica,sans-Serif" font-size="10.00">task_radar.h</text>
</a>
</g>
</g>
<!-- Node0&#45;&gt;Node16 -->
<g id="edge9" class="edge"><title>Node0&#45;&gt;Node16</title>
<path fill="none" stroke="midnightblue" d="M286.907,-116.971C344.307,-109.923 465.573,-94.4827 578.143,-76.1526"/>
<polygon fill="midnightblue" stroke="midnightblue" points="579.008,-79.5575 588.31,-74.4851 577.875,-72.6498 579.008,-79.5575"/>
</g>
<!-- Node14&#45;&gt;Node2 -->
<g id="edge8" class="edge"><title>Node14&#45;&gt;Node2</title>
<path fill="none" stroke="midnightblue" d="M488.482,-56.4435C450.252,-47.1024 388.933,-32.1194 347.243,-21.9326"/>
<polygon fill="midnightblue" stroke="midnightblue" points="347.899,-18.4901 337.354,-19.5164 346.238,-25.2901 347.899,-18.4901"/>
</g>
</g>
</svg>
