<?xml version="1.0" encoding="UTF-8" standalone="no"?>
<!DOCTYPE svg PUBLIC "-//W3C//DTD SVG 1.1//EN"
 "http://www.w3.org/Graphics/SVG/1.1/DTD/svg11.dtd">
<!-- Generated by graphviz version 2.38.0 (20140413.2041)
 -->
<!-- Title: src/hal/x4m0x_s70/libraries/libchip/include/mcid.h Pages: 1 -->
<svg width="191pt" height="95pt"
 viewBox="0.00 0.00 191.00 95.00" xmlns="http://www.w3.org/2000/svg" xmlns:xlink="http://www.w3.org/1999/xlink">
<g id="graph0" class="graph" transform="scale(1 1) rotate(0) translate(4 91)">
<title>src/hal/x4m0x_s70/libraries/libchip/include/mcid.h</title>
<polygon fill="white" stroke="none" points="-4,4 -4,-91 187,-91 187,4 -4,4"/>
<!-- Node0 -->
<g id="node1" class="node"><title>Node0</title>
<polygon fill="#bfbfbf" stroke="black" points="16.5,-56.5 16.5,-86.5 162.5,-86.5 162.5,-56.5 16.5,-56.5"/>
<text text-anchor="start" x="24.5" y="-74.5" font-family="Helvetica,sans-Serif" font-size="10.00">src/hal/x4m0x_s70/libraries</text>
<text text-anchor="middle" x="89.5" y="-63.5" font-family="Helvetica,sans-Serif" font-size="10.00">/libchip/include/mcid.h</text>
</g>
<!-- Node1 -->
<g id="node2" class="node"><title>Node1</title>
<g id="a_node2"><a xlink:href="chip_8h.xhtml" target="_top" xlink:title="chip.h">
<polygon fill="white" stroke="red" points="0,-0.5 0,-19.5 45,-19.5 45,-0.5 0,-0.5"/>
<text text-anchor="middle" x="22.5" y="-7.5" font-family="Helvetica,sans-Serif" font-size="10.00">chip.h</text>
</a>
</g>
</g>
<!-- Node0&#45;&gt;Node1 -->
<g id="edge1" class="edge"><title>Node0&#45;&gt;Node1</title>
<path fill="none" stroke="midnightblue" d="M73.6219,-56.3993C63.4846,-47.3967 50.3375,-35.7214 39.9146,-26.4652"/>
<polygon fill="midnightblue" stroke="midnightblue" points="42.0504,-23.681 32.2491,-19.6578 37.4022,-28.915 42.0504,-23.681"/>
</g>
<!-- Node6 -->
<g id="node3" class="node"><title>Node6</title>
<polygon fill="white" stroke="#bfbfbf" points="63,-0.5 63,-19.5 116,-19.5 116,-0.5 63,-0.5"/>
<text text-anchor="middle" x="89.5" y="-7.5" font-family="Helvetica,sans-Serif" font-size="10.00">stdint.h</text>
</g>
<!-- Node0&#45;&gt;Node6 -->
<g id="edge2" class="edge"><title>Node0&#45;&gt;Node6</title>
<path fill="none" stroke="midnightblue" d="M89.5,-56.3993C89.5,-48.4664 89.5,-38.458 89.5,-29.8583"/>
<polygon fill="midnightblue" stroke="midnightblue" points="93.0001,-29.6577 89.5,-19.6578 86.0001,-29.6578 93.0001,-29.6577"/>
</g>
<!-- Node9 -->
<g id="node4" class="node"><title>Node9</title>
<polygon fill="white" stroke="#bfbfbf" points="134,-0.5 134,-19.5 183,-19.5 183,-0.5 134,-0.5"/>
<text text-anchor="middle" x="158.5" y="-7.5" font-family="Helvetica,sans-Serif" font-size="10.00">stdio.h</text>
</g>
<!-- Node0&#45;&gt;Node9 -->
<g id="edge3" class="edge"><title>Node0&#45;&gt;Node9</title>
<path fill="none" stroke="midnightblue" d="M105.852,-56.3993C116.395,-47.3076 130.1,-35.4899 140.884,-26.1909"/>
<polygon fill="midnightblue" stroke="midnightblue" points="143.172,-28.8389 148.46,-19.6578 138.601,-23.5377 143.172,-28.8389"/>
</g>
</g>
</svg>
