<?xml version="1.0" encoding="UTF-8" standalone="no"?>
<!DOCTYPE svg PUBLIC "-//W3C//DTD SVG 1.1//EN"
 "http://www.w3.org/Graphics/SVG/1.1/DTD/svg11.dtd">
<!-- Generated by graphviz version 2.38.0 (20140413.2041)
 -->
<!-- Title: memorypool_take Pages: 1 -->
<svg width="228pt" height="66pt"
 viewBox="0.00 0.00 228.00 66.00" xmlns="http://www.w3.org/2000/svg" xmlns:xlink="http://www.w3.org/1999/xlink">
<g id="graph0" class="graph" transform="scale(1 1) rotate(0) translate(4 62)">
<title>memorypool_take</title>
<polygon fill="white" stroke="none" points="-4,4 -4,-62 224,-62 224,4 -4,4"/>
<!-- Node119 -->
<g id="node1" class="node"><title>Node119</title>
<polygon fill="#bfbfbf" stroke="black" points="0,-19.5 0,-38.5 104,-38.5 104,-19.5 0,-19.5"/>
<text text-anchor="middle" x="52" y="-26.5" font-family="Helvetica,sans-Serif" font-size="10.00">memorypool_take</text>
</g>
<!-- Node120 -->
<g id="node2" class="node"><title>Node120</title>
<g id="a_node2"><a xlink:href="xtsemaphore_8h.xhtml#a43f4af132e6f6f5cda6ba0ba20e0895d" target="_top" xlink:title="Lock mutex. ">
<polygon fill="white" stroke="black" points="146,-38.5 146,-57.5 214,-57.5 214,-38.5 146,-38.5"/>
<text text-anchor="middle" x="180" y="-45.5" font-family="Helvetica,sans-Serif" font-size="10.00">xtlock_lock</text>
</a>
</g>
</g>
<!-- Node119&#45;&gt;Node120 -->
<g id="edge1" class="edge"><title>Node119&#45;&gt;Node120</title>
<path fill="none" stroke="midnightblue" d="M104.249,-36.728C114.775,-38.3154 125.756,-39.9711 135.957,-41.5094"/>
<polygon fill="midnightblue" stroke="midnightblue" points="135.444,-44.9715 145.854,-43.0018 136.487,-38.0497 135.444,-44.9715"/>
</g>
<!-- Node121 -->
<g id="node3" class="node"><title>Node121</title>
<g id="a_node3"><a xlink:href="xtsemaphore_8h.xhtml#a06bdc2b347e98a86047a4a29ab698c6c" target="_top" xlink:title="Unlock mutex. ">
<polygon fill="white" stroke="black" points="140,-0.5 140,-19.5 220,-19.5 220,-0.5 140,-0.5"/>
<text text-anchor="middle" x="180" y="-7.5" font-family="Helvetica,sans-Serif" font-size="10.00">xtlock_unlock</text>
</a>
</g>
</g>
<!-- Node119&#45;&gt;Node121 -->
<g id="edge2" class="edge"><title>Node119&#45;&gt;Node121</title>
<path fill="none" stroke="midnightblue" d="M104.249,-21.272C112.677,-20.0011 121.396,-18.6863 129.774,-17.423"/>
<polygon fill="midnightblue" stroke="midnightblue" points="130.414,-20.8661 139.78,-15.9141 129.37,-13.9444 130.414,-20.8661"/>
</g>
</g>
</svg>
