<?xml version="1.0" encoding="UTF-8" standalone="no"?>
<!DOCTYPE svg PUBLIC "-//W3C//DTD SVG 1.1//EN"
 "http://www.w3.org/Graphics/SVG/1.1/DTD/svg11.dtd">
<!-- Generated by graphviz version 2.38.0 (20140413.2041)
 -->
<!-- Title: memorypool_free Pages: 1 -->
<svg width="225pt" height="66pt"
 viewBox="0.00 0.00 225.00 66.00" xmlns="http://www.w3.org/2000/svg" xmlns:xlink="http://www.w3.org/1999/xlink">
<g id="graph0" class="graph" transform="scale(1 1) rotate(0) translate(4 62)">
<title>memorypool_free</title>
<polygon fill="white" stroke="none" points="-4,4 -4,-62 221,-62 221,4 -4,4"/>
<!-- Node5 -->
<g id="node1" class="node"><title>Node5</title>
<polygon fill="#bfbfbf" stroke="black" points="0,-19.5 0,-38.5 101,-38.5 101,-19.5 0,-19.5"/>
<text text-anchor="middle" x="50.5" y="-26.5" font-family="Helvetica,sans-Serif" font-size="10.00">memorypool_free</text>
</g>
<!-- Node6 -->
<g id="node2" class="node"><title>Node6</title>
<g id="a_node2"><a xlink:href="xtsemaphore_8h.xhtml#a43f4af132e6f6f5cda6ba0ba20e0895d" target="_top" xlink:title="Lock mutex. ">
<polygon fill="white" stroke="black" points="143,-38.5 143,-57.5 211,-57.5 211,-38.5 143,-38.5"/>
<text text-anchor="middle" x="177" y="-45.5" font-family="Helvetica,sans-Serif" font-size="10.00">xtlock_lock</text>
</a>
</g>
</g>
<!-- Node5&#45;&gt;Node6 -->
<g id="edge1" class="edge"><title>Node5&#45;&gt;Node6</title>
<path fill="none" stroke="midnightblue" d="M101.063,-36.5639C111.54,-38.1628 122.518,-39.838 132.74,-41.398"/>
<polygon fill="midnightblue" stroke="midnightblue" points="132.25,-44.8637 142.663,-42.9124 133.306,-37.9438 132.25,-44.8637"/>
</g>
<!-- Node7 -->
<g id="node3" class="node"><title>Node7</title>
<g id="a_node3"><a xlink:href="xtsemaphore_8h.xhtml#a06bdc2b347e98a86047a4a29ab698c6c" target="_top" xlink:title="Unlock mutex. ">
<polygon fill="white" stroke="black" points="137,-0.5 137,-19.5 217,-19.5 217,-0.5 137,-0.5"/>
<text text-anchor="middle" x="177" y="-7.5" font-family="Helvetica,sans-Serif" font-size="10.00">xtlock_unlock</text>
</a>
</g>
</g>
<!-- Node5&#45;&gt;Node7 -->
<g id="edge2" class="edge"><title>Node5&#45;&gt;Node7</title>
<path fill="none" stroke="midnightblue" d="M101.063,-21.4361C109.548,-20.1412 118.361,-18.7962 126.836,-17.503"/>
<polygon fill="midnightblue" stroke="midnightblue" points="127.602,-20.9266 136.96,-15.958 126.546,-14.0067 127.602,-20.9266"/>
</g>
</g>
</svg>
