<?xml version="1.0" encoding="UTF-8" standalone="no"?>
<!DOCTYPE svg PUBLIC "-//W3C//DTD SVG 1.1//EN"
 "http://www.w3.org/Graphics/SVG/1.1/DTD/svg11.dtd">
<!-- Generated by graphviz version 2.38.0 (20140413.2041)
 -->
<!-- Title: include/memorypoolset.h Pages: 1 -->
<svg width="314pt" height="84pt"
 viewBox="0.00 0.00 314.00 84.00" xmlns="http://www.w3.org/2000/svg" xmlns:xlink="http://www.w3.org/1999/xlink">
<g id="graph0" class="graph" transform="scale(1 1) rotate(0) translate(4 80)">
<title>include/memorypoolset.h</title>
<polygon fill="white" stroke="none" points="-4,4 -4,-80 310,-80 310,4 -4,4"/>
<!-- Node4 -->
<g id="node1" class="node"><title>Node4</title>
<polygon fill="#bfbfbf" stroke="black" points="74.5,-56.5 74.5,-75.5 212.5,-75.5 212.5,-56.5 74.5,-56.5"/>
<text text-anchor="middle" x="143.5" y="-63.5" font-family="Helvetica,sans-Serif" font-size="10.00">include/memorypoolset.h</text>
</g>
<!-- Node5 -->
<g id="node2" class="node"><title>Node5</title>
<g id="a_node2"><a xlink:href="xep__dispatch_8h.xhtml" target="_top" xlink:title="include/xep_dispatch.h">
<polygon fill="white" stroke="red" points="0,-0.5 0,-19.5 125,-19.5 125,-0.5 0,-0.5"/>
<text text-anchor="middle" x="62.5" y="-7.5" font-family="Helvetica,sans-Serif" font-size="10.00">include/xep_dispatch.h</text>
</a>
</g>
</g>
<!-- Node4&#45;&gt;Node5 -->
<g id="edge1" class="edge"><title>Node4&#45;&gt;Node5</title>
<path fill="none" stroke="midnightblue" d="M121.933,-50.6221C107.136,-40.7574 87.9878,-27.9919 75.4818,-19.6545"/>
<polygon fill="midnightblue" stroke="midnightblue" points="120.224,-53.6891 130.486,-56.324 124.107,-47.8647 120.224,-53.6891"/>
</g>
<!-- Node10 -->
<g id="node3" class="node"><title>Node10</title>
<g id="a_node3"><a xlink:href="memorypoolset_8c.xhtml" target="_top" xlink:title="src/Dispatch/memorypoolset.c">
<polygon fill="white" stroke="black" points="143,-0.5 143,-19.5 306,-19.5 306,-0.5 143,-0.5"/>
<text text-anchor="middle" x="224.5" y="-7.5" font-family="Helvetica,sans-Serif" font-size="10.00">src/Dispatch/memorypoolset.c</text>
</a>
</g>
</g>
<!-- Node4&#45;&gt;Node10 -->
<g id="edge2" class="edge"><title>Node4&#45;&gt;Node10</title>
<path fill="none" stroke="midnightblue" d="M165.067,-50.6221C179.864,-40.7574 199.012,-27.9919 211.518,-19.6545"/>
<polygon fill="midnightblue" stroke="midnightblue" points="162.893,-47.8647 156.514,-56.324 166.776,-53.6891 162.893,-47.8647"/>
</g>
</g>
</svg>
