<?xml version="1.0" encoding="UTF-8" standalone="no"?>
<!DOCTYPE svg PUBLIC "-//W3C//DTD SVG 1.1//EN"
 "http://www.w3.org/Graphics/SVG/1.1/DTD/svg11.dtd">
<!-- Generated by graphviz version 2.38.0 (20140413.2041)
 -->
<!-- Title: PMC_SetMckSelection Pages: 1 -->
<svg width="318pt" height="142pt"
 viewBox="0.00 0.00 318.00 142.00" xmlns="http://www.w3.org/2000/svg" xmlns:xlink="http://www.w3.org/1999/xlink">
<g id="graph0" class="graph" transform="scale(1 1) rotate(0) translate(4 138)">
<title>PMC_SetMckSelection</title>
<polygon fill="white" stroke="none" points="-4,4 -4,-138 314,-138 314,4 -4,4"/>
<!-- Node221 -->
<g id="node1" class="node"><title>Node221</title>
<polygon fill="#bfbfbf" stroke="black" points="0,-57.5 0,-76.5 122,-76.5 122,-57.5 0,-57.5"/>
<text text-anchor="middle" x="61" y="-64.5" font-family="Helvetica,sans-Serif" font-size="10.00">PMC_SetMckSelection</text>
</g>
<!-- Node222 -->
<g id="node2" class="node"><title>Node222</title>
<g id="a_node2"><a xlink:href="pmc_8c.xhtml#af88b1696ff366be7d6ea4f4f43ffbe4d" target="_top" xlink:title="Switch MCK to slow clock. ">
<polygon fill="white" stroke="black" points="158.5,-114.5 158.5,-133.5 309.5,-133.5 309.5,-114.5 158.5,-114.5"/>
<text text-anchor="middle" x="234" y="-121.5" font-family="Helvetica,sans-Serif" font-size="10.00">_PMC_SwitchMck2SlowClock</text>
</a>
</g>
</g>
<!-- Node221&#45;&gt;Node222 -->
<g id="edge1" class="edge"><title>Node221&#45;&gt;Node222</title>
<path fill="none" stroke="midnightblue" d="M83.8217,-76.5714C103.091,-84.7974 132.074,-96.6233 158,-105 165.549,-107.439 173.607,-109.764 181.537,-111.898"/>
<polygon fill="midnightblue" stroke="midnightblue" points="180.906,-115.35 191.466,-114.492 182.675,-108.578 180.906,-115.35"/>
</g>
<!-- Node223 -->
<g id="node3" class="node"><title>Node223</title>
<g id="a_node3"><a xlink:href="pmc_8c.xhtml#a9a41d7812f8b9c2ed56ce7b3696c4177" target="_top" xlink:title="Set prescaler for MCK. ">
<polygon fill="white" stroke="black" points="170,-76.5 170,-95.5 298,-95.5 298,-76.5 170,-76.5"/>
<text text-anchor="middle" x="234" y="-83.5" font-family="Helvetica,sans-Serif" font-size="10.00">_PMC_SetMckPrescaler</text>
</a>
</g>
</g>
<!-- Node221&#45;&gt;Node223 -->
<g id="edge2" class="edge"><title>Node221&#45;&gt;Node223</title>
<path fill="none" stroke="midnightblue" d="M122.288,-73.6987C134.428,-75.0475 147.312,-76.4791 159.836,-77.8707"/>
<polygon fill="midnightblue" stroke="midnightblue" points="159.456,-81.3499 169.781,-78.9757 160.229,-74.3927 159.456,-81.3499"/>
</g>
<!-- Node224 -->
<g id="node4" class="node"><title>Node224</title>
<g id="a_node4"><a xlink:href="pmc_8c.xhtml#ab1e199de7fe19016f1a2022fe726780e" target="_top" xlink:title="Switch MCK to main clock. ">
<polygon fill="white" stroke="black" points="158,-38.5 158,-57.5 310,-57.5 310,-38.5 158,-38.5"/>
<text text-anchor="middle" x="234" y="-45.5" font-family="Helvetica,sans-Serif" font-size="10.00">_PMC_SwitchMck2MainClock</text>
</a>
</g>
</g>
<!-- Node221&#45;&gt;Node224 -->
<g id="edge3" class="edge"><title>Node221&#45;&gt;Node224</title>
<path fill="none" stroke="midnightblue" d="M122.288,-60.3013C130.582,-59.3798 139.223,-58.4197 147.859,-57.4601"/>
<polygon fill="midnightblue" stroke="midnightblue" points="148.421,-60.9193 157.974,-56.3363 147.648,-53.9621 148.421,-60.9193"/>
</g>
<!-- Node225 -->
<g id="node5" class="node"><title>Node225</title>
<g id="a_node5"><a xlink:href="pmc_8c.xhtml#af3a5e38078e43765ea92b29bb52ede07" target="_top" xlink:title="Switch MCK to PLLA clock. ">
<polygon fill="white" stroke="black" points="161,-0.5 161,-19.5 307,-19.5 307,-0.5 161,-0.5"/>
<text text-anchor="middle" x="234" y="-7.5" font-family="Helvetica,sans-Serif" font-size="10.00">_PMC_SwitchMck2PllaClock</text>
</a>
</g>
</g>
<!-- Node221&#45;&gt;Node225 -->
<g id="edge4" class="edge"><title>Node221&#45;&gt;Node225</title>
<path fill="none" stroke="midnightblue" d="M83.8217,-57.4286C103.091,-49.2026 132.074,-37.3767 158,-29 165.549,-26.5609 173.607,-24.2359 181.537,-22.1022"/>
<polygon fill="midnightblue" stroke="midnightblue" points="182.675,-25.4224 191.466,-19.5077 180.906,-18.6498 182.675,-25.4224"/>
</g>
</g>
</svg>
