<?xml version="1.0" encoding="UTF-8" standalone="no"?>
<!DOCTYPE svg PUBLIC "-//W3C//DTD SVG 1.1//EN"
 "http://www.w3.org/Graphics/SVG/1.1/DTD/svg11.dtd">
<!-- Generated by graphviz version 2.38.0 (20140413.2041)
 -->
<!-- Title: QSPID_EnableSpiChannel Pages: 1 -->
<svg width="317pt" height="142pt"
 viewBox="0.00 0.00 317.00 142.00" xmlns="http://www.w3.org/2000/svg" xmlns:xlink="http://www.w3.org/1999/xlink">
<g id="graph0" class="graph" transform="scale(1 1) rotate(0) translate(4 138)">
<title>QSPID_EnableSpiChannel</title>
<polygon fill="white" stroke="none" points="-4,4 -4,-138 313,-138 313,4 -4,4"/>
<!-- Node133 -->
<g id="node1" class="node"><title>Node133</title>
<polygon fill="#bfbfbf" stroke="black" points="0,-57.5 0,-76.5 138,-76.5 138,-57.5 0,-57.5"/>
<text text-anchor="middle" x="69" y="-64.5" font-family="Helvetica,sans-Serif" font-size="10.00">QSPID_EnableSpiChannel</text>
</g>
<!-- Node134 -->
<g id="node2" class="node"><title>Node134</title>
<g id="a_node2"><a xlink:href="group__dmad__functions.xhtml#ga0b94c48d2200e3be27ea16cfd1207912" target="_top" xlink:title="Allocate a XDMA channel for upper layer. ">
<polygon fill="white" stroke="red" points="174,-114.5 174,-133.5 309,-133.5 309,-114.5 174,-114.5"/>
<text text-anchor="middle" x="241.5" y="-121.5" font-family="Helvetica,sans-Serif" font-size="10.00">XDMAD_AllocateChannel</text>
</a>
</g>
</g>
<!-- Node133&#45;&gt;Node134 -->
<g id="edge1" class="edge"><title>Node133&#45;&gt;Node134</title>
<path fill="none" stroke="midnightblue" d="M94.6214,-76.5647C115.586,-84.5715 146.578,-96.0856 174,-105 180.908,-107.246 188.266,-109.491 195.474,-111.611"/>
<polygon fill="midnightblue" stroke="midnightblue" points="194.575,-114.995 205.154,-114.412 196.521,-108.271 194.575,-114.995"/>
</g>
<!-- Node139 -->
<g id="node3" class="node"><title>Node139</title>
<g id="a_node3"><a xlink:href="group__dmad__functions.xhtml#gaa0af49f87c84aaa20bee1f055d31ad2d" target="_top" xlink:title="Set the callback function for xDMA channel transfer. ">
<polygon fill="white" stroke="black" points="184.5,-76.5 184.5,-95.5 298.5,-95.5 298.5,-76.5 184.5,-76.5"/>
<text text-anchor="middle" x="241.5" y="-83.5" font-family="Helvetica,sans-Serif" font-size="10.00">XDMAD_SetCallback</text>
</a>
</g>
</g>
<!-- Node133&#45;&gt;Node139 -->
<g id="edge2" class="edge"><title>Node133&#45;&gt;Node139</title>
<path fill="none" stroke="midnightblue" d="M138.366,-74.6185C150.19,-75.9361 162.464,-77.3039 174.23,-78.6151"/>
<polygon fill="midnightblue" stroke="midnightblue" points="174.089,-82.121 184.415,-79.7501 174.865,-75.164 174.089,-82.121"/>
</g>
<!-- Node140 -->
<g id="node4" class="node"><title>Node140</title>
<g id="a_node4"><a xlink:href="qspi__dma_8c.xhtml#a63083abbd1516f582a6fce26cc454c79" target="_top" xlink:title="SPI xDMA Rx callback Invoked on SPi DMA reception done. ">
<polygon fill="white" stroke="red" points="199,-38.5 199,-57.5 284,-57.5 284,-38.5 199,-38.5"/>
<text text-anchor="middle" x="241.5" y="-45.5" font-family="Helvetica,sans-Serif" font-size="10.00">QSPID_Spi_Cb</text>
</a>
</g>
</g>
<!-- Node133&#45;&gt;Node140 -->
<g id="edge3" class="edge"><title>Node133&#45;&gt;Node140</title>
<path fill="none" stroke="midnightblue" d="M138.366,-59.3815C155.086,-57.5183 172.708,-55.5545 188.519,-53.7926"/>
<polygon fill="midnightblue" stroke="midnightblue" points="189.07,-57.253 198.62,-52.6669 188.294,-50.2961 189.07,-57.253"/>
</g>
<!-- Node146 -->
<g id="node5" class="node"><title>Node146</title>
<g id="a_node5"><a xlink:href="group__dmad__functions.xhtml#ga2a7947467c04eb39abee2471d846ee35" target="_top" xlink:title="Enable clock of the xDMA peripheral, Enable the dma peripheral, configure configuration register for ...">
<polygon fill="white" stroke="red" points="174.5,-0.5 174.5,-19.5 308.5,-19.5 308.5,-0.5 174.5,-0.5"/>
<text text-anchor="middle" x="241.5" y="-7.5" font-family="Helvetica,sans-Serif" font-size="10.00">XDMAD_PrepareChannel</text>
</a>
</g>
</g>
<!-- Node133&#45;&gt;Node146 -->
<g id="edge4" class="edge"><title>Node133&#45;&gt;Node146</title>
<path fill="none" stroke="midnightblue" d="M94.6214,-57.4353C115.586,-49.4285 146.578,-37.9144 174,-29 180.908,-26.7542 188.266,-24.5087 195.474,-22.3888"/>
<polygon fill="midnightblue" stroke="midnightblue" points="196.521,-25.7294 205.154,-19.5877 194.575,-19.0052 196.521,-25.7294"/>
</g>
</g>
</svg>
