<?xml version="1.0" encoding="UTF-8" standalone="no"?>
<!DOCTYPE svg PUBLIC "-//W3C//DTD SVG 1.1//EN"
 "http://www.w3.org/Graphics/SVG/1.1/DTD/svg11.dtd">
<!-- Generated by graphviz version 2.38.0 (20140413.2041)
 -->
<!-- Title: QSPI_SendCommandWithData Pages: 1 -->
<svg width="316pt" height="142pt"
 viewBox="0.00 0.00 316.00 142.00" xmlns="http://www.w3.org/2000/svg" xmlns:xlink="http://www.w3.org/1999/xlink">
<g id="graph0" class="graph" transform="scale(1 1) rotate(0) translate(4 138)">
<title>QSPI_SendCommandWithData</title>
<polygon fill="white" stroke="none" points="-4,4 -4,-138 312,-138 312,4 -4,4"/>
<!-- Node314 -->
<g id="node1" class="node"><title>Node314</title>
<polygon fill="#bfbfbf" stroke="black" points="0,-57.5 0,-76.5 163,-76.5 163,-57.5 0,-57.5"/>
<text text-anchor="middle" x="81.5" y="-64.5" font-family="Helvetica,sans-Serif" font-size="10.00">QSPI_SendCommandWithData</text>
</g>
<!-- Node315 -->
<g id="node2" class="node"><title>Node315</title>
<g id="a_node2"><a xlink:href="libraries_2libchip_2source_2qspi_8c.xhtml#afde5ea34d85fcecb4a538250325d3c6c" target="_top" xlink:title="Configures instruction register with a given command for QSPI. ">
<polygon fill="white" stroke="black" points="214.5,-114.5 214.5,-133.5 292.5,-133.5 292.5,-114.5 214.5,-114.5"/>
<text text-anchor="middle" x="253.5" y="-121.5" font-family="Helvetica,sans-Serif" font-size="10.00">QSPI_SetInst</text>
</a>
</g>
</g>
<!-- Node314&#45;&gt;Node315 -->
<g id="edge1" class="edge"><title>Node314&#45;&gt;Node315</title>
<path fill="none" stroke="midnightblue" d="M110.954,-76.5405C139.271,-86.0349 182.91,-100.667 214.246,-111.174"/>
<polygon fill="midnightblue" stroke="midnightblue" points="213.359,-114.568 223.953,-114.428 215.584,-107.931 213.359,-114.568"/>
</g>
<!-- Node316 -->
<g id="node3" class="node"><title>Node316</title>
<g id="a_node3"><a xlink:href="libraries_2libchip_2source_2qspi_8c.xhtml#ab6228d04866fe8947d7fafd5d04b65cf" target="_top" xlink:title="Configures instruction frame register of QSPI. ">
<polygon fill="white" stroke="black" points="199.5,-76.5 199.5,-95.5 307.5,-95.5 307.5,-76.5 199.5,-76.5"/>
<text text-anchor="middle" x="253.5" y="-83.5" font-family="Helvetica,sans-Serif" font-size="10.00">QSPI_SetInstFrame</text>
</a>
</g>
</g>
<!-- Node314&#45;&gt;Node316 -->
<g id="edge2" class="edge"><title>Node314&#45;&gt;Node316</title>
<path fill="none" stroke="midnightblue" d="M163.019,-75.9992C171.902,-76.992 180.85,-77.992 189.473,-78.9558"/>
<polygon fill="midnightblue" stroke="midnightblue" points="189.098,-82.4356 199.425,-80.0681 189.875,-75.4789 189.098,-82.4356"/>
</g>
<!-- Node317 -->
<g id="node4" class="node"><title>Node317</title>
<g id="a_node4"><a xlink:href="libraries_2libchip_2source_2qspi_8c.xhtml#a15a99043cebbb701093d11a15f78a419" target="_top" xlink:title="Reads the Instruction frame of QSPI. ">
<polygon fill="white" stroke="black" points="199,-38.5 199,-57.5 308,-57.5 308,-38.5 199,-38.5"/>
<text text-anchor="middle" x="253.5" y="-45.5" font-family="Helvetica,sans-Serif" font-size="10.00">QSPI_GetInstFrame</text>
</a>
</g>
</g>
<!-- Node314&#45;&gt;Node317 -->
<g id="edge3" class="edge"><title>Node314&#45;&gt;Node317</title>
<path fill="none" stroke="midnightblue" d="M163.019,-58.0008C171.683,-57.0325 180.409,-56.0572 188.836,-55.1154"/>
<polygon fill="midnightblue" stroke="midnightblue" points="189.393,-58.575 198.942,-53.9858 188.616,-51.6183 189.393,-58.575"/>
</g>
<!-- Node318 -->
<g id="node5" class="node"><title>Node318</title>
<g id="a_node5"><a xlink:href="libraries_2libchip_2source_2qspi_8c.xhtml#a0cee5ee97a2b6575ccf9d56d3c5fce64" target="_top" xlink:title="Ends ongoing transfer by releasing CS of QSPI peripheral. ">
<polygon fill="white" stroke="red" points="203.5,-0.5 203.5,-19.5 303.5,-19.5 303.5,-0.5 203.5,-0.5"/>
<text text-anchor="middle" x="253.5" y="-7.5" font-family="Helvetica,sans-Serif" font-size="10.00">QSPI_EndTransfer</text>
</a>
</g>
</g>
<!-- Node314&#45;&gt;Node318 -->
<g id="edge4" class="edge"><title>Node314&#45;&gt;Node318</title>
<path fill="none" stroke="midnightblue" d="M110.954,-57.4595C139.271,-47.9651 182.91,-33.3332 214.246,-22.8263"/>
<polygon fill="midnightblue" stroke="midnightblue" points="215.584,-26.0692 223.953,-19.5716 213.359,-19.4323 215.584,-26.0692"/>
</g>
</g>
</svg>
