<?xml version="1.0" encoding="UTF-8" standalone="no"?>
<!DOCTYPE svg PUBLIC "-//W3C//DTD SVG 1.1//EN"
 "http://www.w3.org/Graphics/SVG/1.1/DTD/svg11.dtd">
<!-- Generated by graphviz version 2.38.0 (20140413.2041)
 -->
<!-- Title: QSPID_EnableQspiTxChannel Pages: 1 -->
<svg width="334pt" height="142pt"
 viewBox="0.00 0.00 334.00 142.00" xmlns="http://www.w3.org/2000/svg" xmlns:xlink="http://www.w3.org/1999/xlink">
<g id="graph0" class="graph" transform="scale(1 1) rotate(0) translate(4 138)">
<title>QSPID_EnableQspiTxChannel</title>
<polygon fill="white" stroke="none" points="-4,4 -4,-138 330,-138 330,4 -4,4"/>
<!-- Node107 -->
<g id="node1" class="node"><title>Node107</title>
<polygon fill="#bfbfbf" stroke="black" points="0,-57.5 0,-76.5 155,-76.5 155,-57.5 0,-57.5"/>
<text text-anchor="middle" x="77.5" y="-64.5" font-family="Helvetica,sans-Serif" font-size="10.00">QSPID_EnableQspiTxChannel</text>
</g>
<!-- Node108 -->
<g id="node2" class="node"><title>Node108</title>
<g id="a_node2"><a xlink:href="group__dmad__functions.xhtml#ga0b94c48d2200e3be27ea16cfd1207912" target="_top" xlink:title="Allocate a XDMA channel for upper layer. ">
<polygon fill="white" stroke="red" points="191,-114.5 191,-133.5 326,-133.5 326,-114.5 191,-114.5"/>
<text text-anchor="middle" x="258.5" y="-121.5" font-family="Helvetica,sans-Serif" font-size="10.00">XDMAD_AllocateChannel</text>
</a>
</g>
</g>
<!-- Node107&#45;&gt;Node108 -->
<g id="edge1" class="edge"><title>Node107&#45;&gt;Node108</title>
<path fill="none" stroke="midnightblue" d="M105.662,-76.5776C128.374,-84.4893 161.673,-95.8632 191,-105 198.174,-107.235 205.814,-109.513 213.264,-111.679"/>
<polygon fill="midnightblue" stroke="midnightblue" points="212.315,-115.047 222.893,-114.448 214.25,-108.32 212.315,-115.047"/>
</g>
<!-- Node113 -->
<g id="node3" class="node"><title>Node113</title>
<g id="a_node3"><a xlink:href="group__dmad__functions.xhtml#gaa0af49f87c84aaa20bee1f055d31ad2d" target="_top" xlink:title="Set the callback function for xDMA channel transfer. ">
<polygon fill="white" stroke="black" points="201.5,-76.5 201.5,-95.5 315.5,-95.5 315.5,-76.5 201.5,-76.5"/>
<text text-anchor="middle" x="258.5" y="-83.5" font-family="Helvetica,sans-Serif" font-size="10.00">XDMAD_SetCallback</text>
</a>
</g>
</g>
<!-- Node107&#45;&gt;Node113 -->
<g id="edge2" class="edge"><title>Node107&#45;&gt;Node113</title>
<path fill="none" stroke="midnightblue" d="M155.191,-75.1404C167.154,-76.4102 179.428,-77.7131 191.136,-78.9558"/>
<polygon fill="midnightblue" stroke="midnightblue" points="190.943,-82.4548 201.256,-80.03 191.681,-75.4939 190.943,-82.4548"/>
</g>
<!-- Node114 -->
<g id="node4" class="node"><title>Node114</title>
<g id="a_node4"><a xlink:href="qspi__dma_8c.xhtml#a7ec38a13740b2b9ff6f7cb7c2b4e864c" target="_top" xlink:title="QSPI xDMA Tx callback Invoked on QSPi DMA Write done. ">
<polygon fill="white" stroke="red" points="208.5,-38.5 208.5,-57.5 308.5,-57.5 308.5,-38.5 208.5,-38.5"/>
<text text-anchor="middle" x="258.5" y="-45.5" font-family="Helvetica,sans-Serif" font-size="10.00">QSPID_qspiTx_Cb</text>
</a>
</g>
</g>
<!-- Node107&#45;&gt;Node114 -->
<g id="edge3" class="edge"><title>Node107&#45;&gt;Node114</title>
<path fill="none" stroke="midnightblue" d="M155.191,-58.8596C169.558,-57.3346 184.375,-55.7619 198.118,-54.3031"/>
<polygon fill="midnightblue" stroke="midnightblue" points="198.82,-57.7484 208.394,-53.2123 198.081,-50.7875 198.82,-57.7484"/>
</g>
<!-- Node118 -->
<g id="node5" class="node"><title>Node118</title>
<g id="a_node5"><a xlink:href="group__dmad__functions.xhtml#ga2a7947467c04eb39abee2471d846ee35" target="_top" xlink:title="Enable clock of the xDMA peripheral, Enable the dma peripheral, configure configuration register for ...">
<polygon fill="white" stroke="red" points="191.5,-0.5 191.5,-19.5 325.5,-19.5 325.5,-0.5 191.5,-0.5"/>
<text text-anchor="middle" x="258.5" y="-7.5" font-family="Helvetica,sans-Serif" font-size="10.00">XDMAD_PrepareChannel</text>
</a>
</g>
</g>
<!-- Node107&#45;&gt;Node118 -->
<g id="edge4" class="edge"><title>Node107&#45;&gt;Node118</title>
<path fill="none" stroke="midnightblue" d="M105.662,-57.4224C128.374,-49.5107 161.673,-38.1368 191,-29 198.174,-26.765 205.814,-24.4873 213.264,-22.3214"/>
<polygon fill="midnightblue" stroke="midnightblue" points="214.25,-25.6798 222.893,-19.5515 212.315,-18.9526 214.25,-25.6798"/>
</g>
</g>
</svg>
