<?xml version="1.0" encoding="UTF-8" standalone="no"?>
<!DOCTYPE svg PUBLIC "-//W3C//DTD SVG 1.1//EN"
 "http://www.w3.org/Graphics/SVG/1.1/DTD/svg11.dtd">
<!-- Generated by graphviz version 2.38.0 (20140413.2041)
 -->
<!-- Title: S25FL1D_IsBusy Pages: 1 -->
<svg width="264pt" height="104pt"
 viewBox="0.00 0.00 264.00 104.00" xmlns="http://www.w3.org/2000/svg" xmlns:xlink="http://www.w3.org/1999/xlink">
<g id="graph0" class="graph" transform="scale(1 1) rotate(0) translate(4 100)">
<title>S25FL1D_IsBusy</title>
<polygon fill="white" stroke="none" points="-4,4 -4,-100 260,-100 260,4 -4,4"/>
<!-- Node278 -->
<g id="node1" class="node"><title>Node278</title>
<polygon fill="#bfbfbf" stroke="black" points="0,-38.5 0,-57.5 95,-57.5 95,-38.5 0,-38.5"/>
<text text-anchor="middle" x="47.5" y="-45.5" font-family="Helvetica,sans-Serif" font-size="10.00">S25FL1D_IsBusy</text>
</g>
<!-- Node279 -->
<g id="node2" class="node"><title>Node279</title>
<g id="a_node2"><a xlink:href="qspi__dma_8h.xhtml#a4dd4aa5fce406ddb2b215df6397142b8" target="_top" xlink:title="Check if the QSPI driver is busy. ">
<polygon fill="white" stroke="red" points="152,-76.5 152,-95.5 235,-95.5 235,-76.5 152,-76.5"/>
<text text-anchor="middle" x="193.5" y="-83.5" font-family="Helvetica,sans-Serif" font-size="10.00">QSPID_IsBusy</text>
</a>
</g>
</g>
<!-- Node278&#45;&gt;Node279 -->
<g id="edge1" class="edge"><title>Node278&#45;&gt;Node279</title>
<path fill="none" stroke="midnightblue" d="M84.8373,-57.589C103.583,-62.5358 126.643,-68.6211 146.607,-73.8892"/>
<polygon fill="midnightblue" stroke="midnightblue" points="145.862,-77.3125 156.424,-76.4799 147.648,-70.5442 145.862,-77.3125"/>
</g>
<!-- Node281 -->
<g id="node3" class="node"><title>Node281</title>
<g id="a_node3"><a xlink:href="timetick_8h.xhtml#a2b6066c4eacf5089da661bd9e13bc9ed" target="_top" xlink:title="Sync Wait for several ms. ">
<polygon fill="white" stroke="red" points="175.5,-38.5 175.5,-57.5 211.5,-57.5 211.5,-38.5 175.5,-38.5"/>
<text text-anchor="middle" x="193.5" y="-45.5" font-family="Helvetica,sans-Serif" font-size="10.00">Wait</text>
</a>
</g>
</g>
<!-- Node278&#45;&gt;Node281 -->
<g id="edge2" class="edge"><title>Node278&#45;&gt;Node281</title>
<path fill="none" stroke="midnightblue" d="M95.2527,-48C118.396,-48 145.524,-48 165.239,-48"/>
<polygon fill="midnightblue" stroke="midnightblue" points="165.357,-51.5001 175.357,-48 165.357,-44.5001 165.357,-51.5001"/>
</g>
<!-- Node283 -->
<g id="node4" class="node"><title>Node283</title>
<g id="a_node4"><a xlink:href="s25fl1_8c.xhtml#a300f42045ccdeb44839f77a260052bcb" target="_top" xlink:title="Reads and returns the status register of the serial flash. ">
<polygon fill="white" stroke="red" points="131,-0.5 131,-19.5 256,-19.5 256,-0.5 131,-0.5"/>
<text text-anchor="middle" x="193.5" y="-7.5" font-family="Helvetica,sans-Serif" font-size="10.00">S25FL1D_ReadStatus1</text>
</a>
</g>
</g>
<!-- Node278&#45;&gt;Node283 -->
<g id="edge3" class="edge"><title>Node278&#45;&gt;Node283</title>
<path fill="none" stroke="midnightblue" d="M84.8373,-38.411C103.583,-33.4642 126.643,-27.3789 146.607,-22.1108"/>
<polygon fill="midnightblue" stroke="midnightblue" points="147.648,-25.4558 156.424,-19.5201 145.862,-18.6875 147.648,-25.4558"/>
</g>
</g>
</svg>
