<?xml version="1.0" encoding="UTF-8" standalone="no"?>
<!DOCTYPE svg PUBLIC "-//W3C//DTD SVG 1.1//EN"
 "http://www.w3.org/Graphics/SVG/1.1/DTD/svg11.dtd">
<!-- Generated by graphviz version 2.38.0 (20140413.2041)
 -->
<!-- Title: S25FL1D_WriteVolatileStatus Pages: 1 -->
<svg width="497pt" height="47pt"
 viewBox="0.00 0.00 497.00 47.00" xmlns="http://www.w3.org/2000/svg" xmlns:xlink="http://www.w3.org/1999/xlink">
<g id="graph0" class="graph" transform="scale(1 1) rotate(0) translate(4 43)">
<title>S25FL1D_WriteVolatileStatus</title>
<polygon fill="white" stroke="none" points="-4,4 -4,-43 493,-43 493,4 -4,4"/>
<!-- Node1062 -->
<g id="node1" class="node"><title>Node1062</title>
<polygon fill="#bfbfbf" stroke="black" points="0,-19.5 0,-38.5 154,-38.5 154,-19.5 0,-19.5"/>
<text text-anchor="middle" x="77" y="-26.5" font-family="Helvetica,sans-Serif" font-size="10.00">S25FL1D_WriteVolatileStatus</text>
</g>
<!-- Node1063 -->
<g id="node2" class="node"><title>Node1063</title>
<g id="a_node2"><a xlink:href="s25fl1_8c.xhtml#a1a915b35968bc2e31ab4fe5e38a76708" target="_top" xlink:title="Start S25FL1D Send command with/without data write/read. ">
<polygon fill="white" stroke="red" points="349,-19.5 349,-38.5 489,-38.5 489,-19.5 349,-19.5"/>
<text text-anchor="middle" x="419" y="-26.5" font-family="Helvetica,sans-Serif" font-size="10.00">S25FL1D_SendCommand</text>
</a>
</g>
</g>
<!-- Node1062&#45;&gt;Node1063 -->
<g id="edge1" class="edge"><title>Node1062&#45;&gt;Node1063</title>
<path fill="none" stroke="midnightblue" d="M154.303,-29C209.229,-29 283.132,-29 338.727,-29"/>
<polygon fill="midnightblue" stroke="midnightblue" points="338.885,-32.5001 348.885,-29 338.885,-25.5001 338.885,-32.5001"/>
</g>
<!-- Node1079 -->
<g id="node3" class="node"><title>Node1079</title>
<g id="a_node3"><a xlink:href="s25fl1_8c.xhtml#af7afb850fd4743dd16ae1e500ae11e8e" target="_top" xlink:title="S25FL1D_DisableWrite">
<polygon fill="white" stroke="red" points="190,-0.5 190,-19.5 313,-19.5 313,-0.5 190,-0.5"/>
<text text-anchor="middle" x="251.5" y="-7.5" font-family="Helvetica,sans-Serif" font-size="10.00">S25FL1D_DisableWrite</text>
</a>
</g>
</g>
<!-- Node1062&#45;&gt;Node1079 -->
<g id="edge2" class="edge"><title>Node1062&#45;&gt;Node1079</title>
<path fill="none" stroke="midnightblue" d="M154.163,-20.611C162.633,-19.6781 171.234,-18.7307 179.635,-17.8055"/>
<polygon fill="midnightblue" stroke="midnightblue" points="180.202,-21.2642 189.759,-16.6903 179.436,-14.3063 180.202,-21.2642"/>
</g>
<!-- Node1079&#45;&gt;Node1063 -->
<g id="edge3" class="edge"><title>Node1079&#45;&gt;Node1063</title>
<path fill="none" stroke="midnightblue" d="M313.186,-16.967C321.541,-17.9262 330.219,-18.9225 338.846,-19.9128"/>
<polygon fill="midnightblue" stroke="midnightblue" points="338.591,-23.4065 348.925,-21.07 339.39,-16.4522 338.591,-23.4065"/>
</g>
</g>
</svg>
