<?xml version="1.0" encoding="UTF-8" standalone="no"?>
<!DOCTYPE svg PUBLIC "-//W3C//DTD SVG 1.1//EN"
 "http://www.w3.org/Graphics/SVG/1.1/DTD/svg11.dtd">
<!-- Generated by graphviz version 2.38.0 (20140413.2041)
 -->
<!-- Title: S25FL1D_ReadQuad Pages: 1 -->
<svg width="315pt" height="256pt"
 viewBox="0.00 0.00 315.00 256.00" xmlns="http://www.w3.org/2000/svg" xmlns:xlink="http://www.w3.org/1999/xlink">
<g id="graph0" class="graph" transform="scale(1 1) rotate(0) translate(4 252)">
<title>S25FL1D_ReadQuad</title>
<polygon fill="white" stroke="none" points="-4,4 -4,-252 311,-252 311,4 -4,4"/>
<!-- Node619 -->
<g id="node1" class="node"><title>Node619</title>
<polygon fill="#bfbfbf" stroke="black" points="0,-114.5 0,-133.5 113,-133.5 113,-114.5 0,-114.5"/>
<text text-anchor="middle" x="56.5" y="-121.5" font-family="Helvetica,sans-Serif" font-size="10.00">S25FL1D_ReadQuad</text>
</g>
<!-- Node620 -->
<g id="node2" class="node"><title>Node620</title>
<g id="a_node2"><a xlink:href="qspi__dma_8h.xhtml#a0d664a2d9fdc7a5b276553ef98ebb085" target="_top" xlink:title="Enables a QSPI Rx channel. ">
<polygon fill="white" stroke="red" points="150.5,-228.5 150.5,-247.5 305.5,-247.5 305.5,-228.5 150.5,-228.5"/>
<text text-anchor="middle" x="228" y="-235.5" font-family="Helvetica,sans-Serif" font-size="10.00">QSPID_EnableQspiRxChannel</text>
</a>
</g>
</g>
<!-- Node619&#45;&gt;Node620 -->
<g id="edge1" class="edge"><title>Node619&#45;&gt;Node620</title>
<path fill="none" stroke="midnightblue" d="M63.8097,-133.524C77.123,-152.831 110.085,-196.639 149,-219 152.912,-221.248 157.083,-223.232 161.383,-224.981"/>
<polygon fill="midnightblue" stroke="midnightblue" points="160.362,-228.334 170.956,-228.45 162.747,-221.752 160.362,-228.334"/>
</g>
<!-- Node647 -->
<g id="node3" class="node"><title>Node647</title>
<g id="a_node3"><a xlink:href="qspi__dma_8h.xhtml#aa4c44dd6ea57f7d345dc1cea9e764b33" target="_top" xlink:title="Enables a QSPI SPI Rx channel. ">
<polygon fill="white" stroke="red" points="159,-190.5 159,-209.5 297,-209.5 297,-190.5 159,-190.5"/>
<text text-anchor="middle" x="228" y="-197.5" font-family="Helvetica,sans-Serif" font-size="10.00">QSPID_EnableSpiChannel</text>
</a>
</g>
</g>
<!-- Node619&#45;&gt;Node647 -->
<g id="edge2" class="edge"><title>Node619&#45;&gt;Node647</title>
<path fill="none" stroke="midnightblue" d="M70.1164,-133.695C87.1362,-146.33 118.808,-168.305 149,-181 154.902,-183.482 161.198,-185.684 167.555,-187.629"/>
<polygon fill="midnightblue" stroke="midnightblue" points="166.973,-191.102 177.549,-190.474 168.89,-184.369 166.973,-191.102"/>
</g>
<!-- Node649 -->
<g id="node4" class="node"><title>Node649</title>
<g id="a_node4"><a xlink:href="s25fl1_8c.xhtml#a8be9db10e4e0f291c0cb537fcc7e3d68" target="_top" xlink:title="Start S25FL1D Memory access with/without data write/read. ">
<polygon fill="white" stroke="red" points="159.5,-152.5 159.5,-171.5 296.5,-171.5 296.5,-152.5 159.5,-152.5"/>
<text text-anchor="middle" x="228" y="-159.5" font-family="Helvetica,sans-Serif" font-size="10.00">S25FL1D_MemoryAccess</text>
</a>
</g>
</g>
<!-- Node619&#45;&gt;Node649 -->
<g id="edge3" class="edge"><title>Node619&#45;&gt;Node649</title>
<path fill="none" stroke="midnightblue" d="M100.272,-133.589C122.841,-138.649 150.723,-144.9 174.583,-150.249"/>
<polygon fill="midnightblue" stroke="midnightblue" points="174.012,-153.708 184.536,-152.48 175.543,-146.877 174.012,-153.708"/>
</g>
<!-- Node675 -->
<g id="node5" class="node"><title>Node675</title>
<g id="a_node5"><a xlink:href="qspi__dma_8h.xhtml#a4dd4aa5fce406ddb2b215df6397142b8" target="_top" xlink:title="Check if the QSPI driver is busy. ">
<polygon fill="white" stroke="red" points="186.5,-114.5 186.5,-133.5 269.5,-133.5 269.5,-114.5 186.5,-114.5"/>
<text text-anchor="middle" x="228" y="-121.5" font-family="Helvetica,sans-Serif" font-size="10.00">QSPID_IsBusy</text>
</a>
</g>
</g>
<!-- Node619&#45;&gt;Node675 -->
<g id="edge4" class="edge"><title>Node619&#45;&gt;Node675</title>
<path fill="none" stroke="midnightblue" d="M113.001,-124C133.391,-124 156.355,-124 176.302,-124"/>
<polygon fill="midnightblue" stroke="midnightblue" points="176.427,-127.5 186.427,-124 176.427,-120.5 176.427,-127.5"/>
</g>
<!-- Node677 -->
<g id="node6" class="node"><title>Node677</title>
<g id="a_node6"><a xlink:href="timetick_8h.xhtml#a2b6066c4eacf5089da661bd9e13bc9ed" target="_top" xlink:title="Sync Wait for several ms. ">
<polygon fill="white" stroke="red" points="210,-76.5 210,-95.5 246,-95.5 246,-76.5 210,-76.5"/>
<text text-anchor="middle" x="228" y="-83.5" font-family="Helvetica,sans-Serif" font-size="10.00">Wait</text>
</a>
</g>
</g>
<!-- Node619&#45;&gt;Node677 -->
<g id="edge5" class="edge"><title>Node619&#45;&gt;Node677</title>
<path fill="none" stroke="midnightblue" d="M100.272,-114.411C131.614,-107.385 173.203,-98.0608 200.036,-92.045"/>
<polygon fill="midnightblue" stroke="midnightblue" points="200.891,-95.4402 209.883,-89.8374 199.36,-88.6098 200.891,-95.4402"/>
</g>
<!-- Node679 -->
<g id="node7" class="node"><title>Node679</title>
<g id="a_node7"><a xlink:href="qspi__dma_8h.xhtml#a3f74a9c30f8d87121341efbe86f7b992" target="_top" xlink:title="Disables a QSPI Rx channel. ">
<polygon fill="white" stroke="red" points="149,-38.5 149,-57.5 307,-57.5 307,-38.5 149,-38.5"/>
<text text-anchor="middle" x="228" y="-45.5" font-family="Helvetica,sans-Serif" font-size="10.00">QSPID_DisableQspiRxChannel</text>
</a>
</g>
</g>
<!-- Node619&#45;&gt;Node679 -->
<g id="edge6" class="edge"><title>Node619&#45;&gt;Node679</title>
<path fill="none" stroke="midnightblue" d="M70.1164,-114.305C87.1362,-101.67 118.808,-79.6949 149,-67 154.902,-64.5183 161.198,-62.3155 167.555,-60.3713"/>
<polygon fill="midnightblue" stroke="midnightblue" points="168.89,-63.6305 177.549,-57.5263 166.973,-56.898 168.89,-63.6305"/>
</g>
<!-- Node684 -->
<g id="node8" class="node"><title>Node684</title>
<g id="a_node8"><a xlink:href="qspi__dma_8h.xhtml#a3bb12a4d22e8c71f840710b19c769067" target="_top" xlink:title="Disables a QSPI SPI Rx and Tx channels. ">
<polygon fill="white" stroke="red" points="157.5,-0.5 157.5,-19.5 298.5,-19.5 298.5,-0.5 157.5,-0.5"/>
<text text-anchor="middle" x="228" y="-7.5" font-family="Helvetica,sans-Serif" font-size="10.00">QSPID_DisableSpiChannel</text>
</a>
</g>
</g>
<!-- Node619&#45;&gt;Node684 -->
<g id="edge7" class="edge"><title>Node619&#45;&gt;Node684</title>
<path fill="none" stroke="midnightblue" d="M63.8097,-114.476C77.123,-95.1692 110.085,-51.3614 149,-29 152.912,-26.7519 157.083,-24.7685 161.383,-23.0188"/>
<polygon fill="midnightblue" stroke="midnightblue" points="162.747,-26.2475 170.956,-19.5498 160.362,-19.6663 162.747,-26.2475"/>
</g>
</g>
</svg>
