<?xml version="1.0" encoding="UTF-8" standalone="no"?>
<!DOCTYPE svg PUBLIC "-//W3C//DTD SVG 1.1//EN"
 "http://www.w3.org/Graphics/SVG/1.1/DTD/svg11.dtd">
<!-- Generated by graphviz version 2.38.0 (20140413.2041)
 -->
<!-- Title: S25FL1D_SetReadLatencyControl Pages: 1 -->
<svg width="374pt" height="180pt"
 viewBox="0.00 0.00 374.00 180.00" xmlns="http://www.w3.org/2000/svg" xmlns:xlink="http://www.w3.org/1999/xlink">
<g id="graph0" class="graph" transform="scale(1 1) rotate(0) translate(4 176)">
<title>S25FL1D_SetReadLatencyControl</title>
<polygon fill="white" stroke="none" points="-4,4 -4,-176 370,-176 370,4 -4,4"/>
<!-- Node892 -->
<g id="node1" class="node"><title>Node892</title>
<polygon fill="#bfbfbf" stroke="black" points="0,-76.5 0,-95.5 176,-95.5 176,-76.5 0,-76.5"/>
<text text-anchor="middle" x="88" y="-83.5" font-family="Helvetica,sans-Serif" font-size="10.00">S25FL1D_SetReadLatencyControl</text>
</g>
<!-- Node893 -->
<g id="node2" class="node"><title>Node893</title>
<g id="a_node2"><a xlink:href="s25fl1_8c.xhtml#a8cc596fd1f6b1026b0c40922c1dc30b7" target="_top" xlink:title="Reads and returns the status register of the serial flash. ">
<polygon fill="white" stroke="red" points="229.5,-152.5 229.5,-171.5 348.5,-171.5 348.5,-152.5 229.5,-152.5"/>
<text text-anchor="middle" x="289" y="-159.5" font-family="Helvetica,sans-Serif" font-size="10.00">S25FL1D_ReadStatus</text>
</a>
</g>
</g>
<!-- Node892&#45;&gt;Node893 -->
<g id="edge1" class="edge"><title>Node892&#45;&gt;Node893</title>
<path fill="none" stroke="midnightblue" d="M106.889,-95.6008C130.439,-107.932 173.385,-129.364 212,-143 219.044,-145.488 226.565,-147.782 234.033,-149.853"/>
<polygon fill="midnightblue" stroke="midnightblue" points="233.212,-153.256 243.775,-152.442 235.01,-146.491 233.212,-153.256"/>
</g>
<!-- Node910 -->
<g id="node3" class="node"><title>Node910</title>
<g id="a_node3"><a xlink:href="s25fl1_8c.xhtml#a9b0aa9019b14539aff1e68cc10576d19" target="_top" xlink:title="Reads and returns the status register of the serial flash. ">
<polygon fill="white" stroke="red" points="226.5,-114.5 226.5,-133.5 351.5,-133.5 351.5,-114.5 226.5,-114.5"/>
<text text-anchor="middle" x="289" y="-121.5" font-family="Helvetica,sans-Serif" font-size="10.00">S25FL1D_ReadStatus2</text>
</a>
</g>
</g>
<!-- Node892&#45;&gt;Node910 -->
<g id="edge2" class="edge"><title>Node892&#45;&gt;Node910</title>
<path fill="none" stroke="midnightblue" d="M138.959,-95.54C166.045,-100.712 199.708,-107.14 228.183,-112.578"/>
<polygon fill="midnightblue" stroke="midnightblue" points="227.541,-116.018 238.02,-114.456 228.854,-109.142 227.541,-116.018"/>
</g>
<!-- Node911 -->
<g id="node4" class="node"><title>Node911</title>
<g id="a_node4"><a xlink:href="s25fl1_8c.xhtml#aad42fe1199e1d1cb5b1c3d509dbe9801" target="_top" xlink:title="Reads and returns the status register of the serial flash. ">
<polygon fill="white" stroke="red" points="226.5,-76.5 226.5,-95.5 351.5,-95.5 351.5,-76.5 226.5,-76.5"/>
<text text-anchor="middle" x="289" y="-83.5" font-family="Helvetica,sans-Serif" font-size="10.00">S25FL1D_ReadStatus3</text>
</a>
</g>
</g>
<!-- Node892&#45;&gt;Node911 -->
<g id="edge3" class="edge"><title>Node892&#45;&gt;Node911</title>
<path fill="none" stroke="midnightblue" d="M176.284,-86C189.634,-86 203.281,-86 216.245,-86"/>
<polygon fill="midnightblue" stroke="midnightblue" points="216.477,-89.5001 226.477,-86 216.477,-82.5001 216.477,-89.5001"/>
</g>
<!-- Node912 -->
<g id="node5" class="node"><title>Node912</title>
<g id="a_node5"><a xlink:href="s25fl1_8c.xhtml#a594058ed761d8012b697ece88b70e1e2" target="_top" xlink:title="Writes the given value in the status register of the serial flash device. ">
<polygon fill="white" stroke="red" points="212,-38.5 212,-57.5 366,-57.5 366,-38.5 212,-38.5"/>
<text text-anchor="middle" x="289" y="-45.5" font-family="Helvetica,sans-Serif" font-size="10.00">S25FL1D_WriteVolatileStatus</text>
</a>
</g>
</g>
<!-- Node892&#45;&gt;Node912 -->
<g id="edge4" class="edge"><title>Node892&#45;&gt;Node912</title>
<path fill="none" stroke="midnightblue" d="M138.959,-76.46C166.045,-71.2878 199.708,-64.8599 228.183,-59.4222"/>
<polygon fill="midnightblue" stroke="midnightblue" points="228.854,-62.8575 238.02,-57.5439 227.541,-55.9817 228.854,-62.8575"/>
</g>
<!-- Node915 -->
<g id="node6" class="node"><title>Node915</title>
<g id="a_node6"><a xlink:href="timetick_8h.xhtml#a2b6066c4eacf5089da661bd9e13bc9ed" target="_top" xlink:title="Sync Wait for several ms. ">
<polygon fill="white" stroke="red" points="271,-0.5 271,-19.5 307,-19.5 307,-0.5 271,-0.5"/>
<text text-anchor="middle" x="289" y="-7.5" font-family="Helvetica,sans-Serif" font-size="10.00">Wait</text>
</a>
</g>
</g>
<!-- Node892&#45;&gt;Node915 -->
<g id="edge5" class="edge"><title>Node892&#45;&gt;Node915</title>
<path fill="none" stroke="midnightblue" d="M106.889,-76.3992C130.439,-64.0684 173.385,-42.6364 212,-29 227.892,-23.3879 246.207,-18.7569 260.875,-15.4723"/>
<polygon fill="midnightblue" stroke="midnightblue" points="261.789,-18.8558 270.825,-13.3237 260.311,-12.0135 261.789,-18.8558"/>
</g>
</g>
</svg>
