<?xml version="1.0" encoding="UTF-8" standalone="no"?>
<!DOCTYPE svg PUBLIC "-//W3C//DTD SVG 1.1//EN"
 "http://www.w3.org/Graphics/SVG/1.1/DTD/svg11.dtd">
<!-- Generated by graphviz version 2.38.0 (20140413.2041)
 -->
<!-- Title: S25FL1D_SendCommand Pages: 1 -->
<svg width="347pt" height="256pt"
 viewBox="0.00 0.00 347.00 256.00" xmlns="http://www.w3.org/2000/svg" xmlns:xlink="http://www.w3.org/1999/xlink">
<g id="graph0" class="graph" transform="scale(1 1) rotate(0) translate(4 252)">
<title>S25FL1D_SendCommand</title>
<polygon fill="white" stroke="none" points="-4,4 -4,-252 343,-252 343,4 -4,4"/>
<!-- Node854 -->
<g id="node1" class="node"><title>Node854</title>
<polygon fill="#bfbfbf" stroke="black" points="0,-114.5 0,-133.5 140,-133.5 140,-114.5 0,-114.5"/>
<text text-anchor="middle" x="70" y="-121.5" font-family="Helvetica,sans-Serif" font-size="10.00">S25FL1D_SendCommand</text>
</g>
<!-- Node855 -->
<g id="node2" class="node"><title>Node855</title>
<g id="a_node2"><a xlink:href="qspi_8h.xhtml#aa6b5d392d35016bb59ad1b3b9cdb72d9" target="_top" xlink:title="Send an instruction over QSPI (oly a flash command no data) ">
<polygon fill="white" stroke="red" points="198,-228.5 198,-247.5 317,-247.5 317,-228.5 198,-228.5"/>
<text text-anchor="middle" x="257.5" y="-235.5" font-family="Helvetica,sans-Serif" font-size="10.00">QSPI_SendCommand</text>
</a>
</g>
</g>
<!-- Node854&#45;&gt;Node855 -->
<g id="edge1" class="edge"><title>Node854&#45;&gt;Node855</title>
<path fill="none" stroke="midnightblue" d="M78.5701,-133.517C94.4554,-152.811 133.343,-196.596 176,-219 180.493,-221.36 185.28,-223.43 190.194,-225.246"/>
<polygon fill="midnightblue" stroke="midnightblue" points="189.163,-228.592 199.757,-228.434 191.377,-221.951 189.163,-228.592"/>
</g>
<!-- Node859 -->
<g id="node3" class="node"><title>Node859</title>
<g id="a_node3"><a xlink:href="qspi_8h.xhtml#a6d28b23fbb2385d5e3a8479b02c10bb8" target="_top" xlink:title="Send instruction over QSPI with data. ">
<polygon fill="white" stroke="red" points="176,-190.5 176,-209.5 339,-209.5 339,-190.5 176,-190.5"/>
<text text-anchor="middle" x="257.5" y="-197.5" font-family="Helvetica,sans-Serif" font-size="10.00">QSPI_SendCommandWithData</text>
</a>
</g>
</g>
<!-- Node854&#45;&gt;Node859 -->
<g id="edge2" class="edge"><title>Node854&#45;&gt;Node859</title>
<path fill="none" stroke="midnightblue" d="M85.6982,-133.621C105.473,-146.174 142.087,-168.058 176,-181 182.733,-183.57 189.92,-185.862 197.124,-187.887"/>
<polygon fill="midnightblue" stroke="midnightblue" points="196.355,-191.304 206.918,-190.483 198.149,-184.537 196.355,-191.304"/>
</g>
<!-- Node863 -->
<g id="node4" class="node"><title>Node863</title>
<g id="a_node4"><a xlink:href="qspi_8h.xhtml#a8b59ff979a47404bc86c60118ec3d30d" target="_top" xlink:title="Send instruction over QSPI to read data. ">
<polygon fill="white" stroke="red" points="198.5,-152.5 198.5,-171.5 316.5,-171.5 316.5,-152.5 198.5,-152.5"/>
<text text-anchor="middle" x="257.5" y="-159.5" font-family="Helvetica,sans-Serif" font-size="10.00">QSPI_ReadCommand</text>
</a>
</g>
</g>
<!-- Node854&#45;&gt;Node863 -->
<g id="edge3" class="edge"><title>Node854&#45;&gt;Node863</title>
<path fill="none" stroke="midnightblue" d="M117.809,-133.589C142.84,-138.716 173.841,-145.067 200.182,-150.463"/>
<polygon fill="midnightblue" stroke="midnightblue" points="199.528,-153.902 210.027,-152.48 200.933,-147.044 199.528,-153.902"/>
</g>
<!-- Node864 -->
<g id="node5" class="node"><title>Node864</title>
<g id="a_node5"><a xlink:href="qspi_8h.xhtml#ade81d33cb14e6aa8701d4824de0656a2" target="_top" xlink:title="Sends multiple data through a SPI peripheral. ">
<polygon fill="white" stroke="red" points="205,-114.5 205,-133.5 310,-133.5 310,-114.5 205,-114.5"/>
<text text-anchor="middle" x="257.5" y="-121.5" font-family="Helvetica,sans-Serif" font-size="10.00">QSPI_MultiWriteSPI</text>
</a>
</g>
</g>
<!-- Node854&#45;&gt;Node864 -->
<g id="edge4" class="edge"><title>Node854&#45;&gt;Node864</title>
<path fill="none" stroke="midnightblue" d="M140.073,-124C157.984,-124 177.157,-124 194.669,-124"/>
<polygon fill="midnightblue" stroke="midnightblue" points="194.766,-127.5 204.766,-124 194.766,-120.5 194.766,-127.5"/>
</g>
<!-- Node866 -->
<g id="node6" class="node"><title>Node866</title>
<g id="a_node6"><a xlink:href="qspi_8h.xhtml#a2e91dc0a09fbf99a27f36836807b1a60" target="_top" xlink:title="Sends a single data through a SPI peripheral. ">
<polygon fill="white" stroke="red" points="201.5,-76.5 201.5,-95.5 313.5,-95.5 313.5,-76.5 201.5,-76.5"/>
<text text-anchor="middle" x="257.5" y="-83.5" font-family="Helvetica,sans-Serif" font-size="10.00">QSPI_SingleWriteSPI</text>
</a>
</g>
</g>
<!-- Node854&#45;&gt;Node866 -->
<g id="edge5" class="edge"><title>Node854&#45;&gt;Node866</title>
<path fill="none" stroke="midnightblue" d="M117.809,-114.411C142.84,-109.284 173.841,-102.933 200.182,-97.5368"/>
<polygon fill="midnightblue" stroke="midnightblue" points="200.933,-100.956 210.027,-95.5201 199.528,-94.0982 200.933,-100.956"/>
</g>
<!-- Node867 -->
<g id="node7" class="node"><title>Node867</title>
<g id="a_node7"><a xlink:href="qspi_8h.xhtml#aa8e703416d8faf7e6ca68d18c1da6115" target="_top" xlink:title="Reads multiple data received by a SPI peripheral. ">
<polygon fill="white" stroke="red" points="205,-38.5 205,-57.5 310,-57.5 310,-38.5 205,-38.5"/>
<text text-anchor="middle" x="257.5" y="-45.5" font-family="Helvetica,sans-Serif" font-size="10.00">QSPI_MultiReadSPI</text>
</a>
</g>
</g>
<!-- Node854&#45;&gt;Node867 -->
<g id="edge6" class="edge"><title>Node854&#45;&gt;Node867</title>
<path fill="none" stroke="midnightblue" d="M85.6982,-114.379C105.473,-101.826 142.087,-79.9419 176,-67 182.733,-64.4305 189.92,-62.1382 197.124,-60.1132"/>
<polygon fill="midnightblue" stroke="midnightblue" points="198.149,-63.4626 206.918,-57.5167 196.355,-56.6964 198.149,-63.4626"/>
</g>
<!-- Node869 -->
<g id="node8" class="node"><title>Node869</title>
<g id="a_node8"><a xlink:href="qspi_8h.xhtml#a0cee5ee97a2b6575ccf9d56d3c5fce64" target="_top" xlink:title="Ends ongoing transfer by releasing CS of QSPI peripheral. ">
<polygon fill="white" stroke="red" points="207.5,-0.5 207.5,-19.5 307.5,-19.5 307.5,-0.5 207.5,-0.5"/>
<text text-anchor="middle" x="257.5" y="-7.5" font-family="Helvetica,sans-Serif" font-size="10.00">QSPI_EndTransfer</text>
</a>
</g>
</g>
<!-- Node854&#45;&gt;Node869 -->
<g id="edge7" class="edge"><title>Node854&#45;&gt;Node869</title>
<path fill="none" stroke="midnightblue" d="M78.5701,-114.483C94.4554,-95.1891 133.343,-51.4039 176,-29 182.718,-25.4716 190.093,-22.5904 197.566,-20.2393"/>
<polygon fill="midnightblue" stroke="midnightblue" points="198.74,-23.5446 207.402,-17.4443 196.826,-16.8112 198.74,-23.5446"/>
</g>
</g>
</svg>
