<?xml version="1.0" encoding="UTF-8" standalone="no"?>
<!DOCTYPE svg PUBLIC "-//W3C//DTD SVG 1.1//EN"
 "http://www.w3.org/Graphics/SVG/1.1/DTD/svg11.dtd">
<!-- Generated by graphviz version 2.38.0 (20140413.2041)
 -->
<!-- Title: S25FL1D_SendCommand Pages: 1 -->
<svg width="854pt" height="643pt"
 viewBox="0.00 0.00 854.00 642.99" xmlns="http://www.w3.org/2000/svg" xmlns:xlink="http://www.w3.org/1999/xlink">
<g id="graph0" class="graph" transform="scale(1 1) rotate(0) translate(4 638.993)">
<title>S25FL1D_SendCommand</title>
<polygon fill="white" stroke="none" points="-4,4 -4,-638.993 850,-638.993 850,4 -4,4"/>
<!-- Node870 -->
<g id="node1" class="node"><title>Node870</title>
<polygon fill="#bfbfbf" stroke="black" points="0,-266.5 0,-285.5 140,-285.5 140,-266.5 0,-266.5"/>
<text text-anchor="middle" x="70" y="-273.5" font-family="Helvetica,sans-Serif" font-size="10.00">S25FL1D_SendCommand</text>
</g>
<!-- Node871 -->
<g id="node2" class="node"><title>Node871</title>
<g id="a_node2"><a xlink:href="s25fl1_8c.xhtml#a8cc596fd1f6b1026b0c40922c1dc30b7" target="_top" xlink:title="Reads and returns the status register of the serial flash. ">
<polygon fill="white" stroke="red" points="179,-570.5 179,-589.5 298,-589.5 298,-570.5 179,-570.5"/>
<text text-anchor="middle" x="238.5" y="-577.5" font-family="Helvetica,sans-Serif" font-size="10.00">S25FL1D_ReadStatus</text>
</a>
</g>
</g>
<!-- Node870&#45;&gt;Node871 -->
<g id="edge1" class="edge"><title>Node870&#45;&gt;Node871</title>
<path fill="none" stroke="midnightblue" d="M72.9382,-295.869C78.8772,-346.228 101.235,-480.234 176,-556 182.199,-562.282 190.232,-566.956 198.436,-570.421"/>
<polygon fill="midnightblue" stroke="midnightblue" points="76.3921,-295.254 71.8322,-285.691 69.433,-296.01 76.3921,-295.254"/>
</g>
<!-- Node873 -->
<g id="node3" class="node"><title>Node873</title>
<g id="a_node3"><a xlink:href="s25fl1_8c.xhtml#adcd9d89815104978796ebe1981059a16" target="_top" xlink:title="Issue &#39;CContinuous Read Mode&#39; command, the device can return to normal SPI command mode...">
<polygon fill="white" stroke="black" points="337,-608.5 337,-627.5 500,-627.5 500,-608.5 337,-608.5"/>
<text text-anchor="middle" x="418.5" y="-615.5" font-family="Helvetica,sans-Serif" font-size="10.00">S25FL1D_ContReadModeReset</text>
</a>
</g>
</g>
<!-- Node870&#45;&gt;Node873 -->
<g id="edge28" class="edge"><title>Node870&#45;&gt;Node873</title>
<path fill="none" stroke="midnightblue" d="M70.5324,-296.089C70.3928,-354.054 78.7365,-522.337 176,-599 233.142,-644.039 323.341,-636.882 375.823,-627.507"/>
<polygon fill="midnightblue" stroke="midnightblue" points="74.0362,-295.787 70.6558,-285.746 67.0367,-295.703 74.0362,-295.787"/>
</g>
<!-- Node876 -->
<g id="node4" class="node"><title>Node876</title>
<g id="a_node4"><a xlink:href="s25fl1_8c.xhtml#a3e17d8be015b8eddc6c4c81ec2310c79" target="_top" xlink:title="Erases the specified 64KB block of the serial firmware dataflash. ">
<polygon fill="white" stroke="black" points="545.5,-532.5 545.5,-551.5 680.5,-551.5 680.5,-532.5 545.5,-532.5"/>
<text text-anchor="middle" x="613" y="-539.5" font-family="Helvetica,sans-Serif" font-size="10.00">S25FL1D_Erase64KBlock</text>
</a>
</g>
</g>
<!-- Node870&#45;&gt;Node876 -->
<g id="edge31" class="edge"><title>Node870&#45;&gt;Node876</title>
<path fill="none" stroke="midnightblue" d="M75.8058,-295.682C86.5291,-335.201 116.299,-424.243 176,-469 285.152,-550.83 452.924,-554.218 545.29,-548.644"/>
<polygon fill="midnightblue" stroke="midnightblue" points="79.1744,-294.728 73.2773,-285.926 72.3983,-296.485 79.1744,-294.728"/>
</g>
<!-- Node877 -->
<g id="node5" class="node"><title>Node877</title>
<g id="a_node5"><a xlink:href="s25fl1_8c.xhtml#a300f42045ccdeb44839f77a260052bcb" target="_top" xlink:title="Reads and returns the status register of the serial flash. ">
<polygon fill="white" stroke="red" points="176,-361.5 176,-380.5 301,-380.5 301,-361.5 176,-361.5"/>
<text text-anchor="middle" x="238.5" y="-368.5" font-family="Helvetica,sans-Serif" font-size="10.00">S25FL1D_ReadStatus1</text>
</a>
</g>
</g>
<!-- Node870&#45;&gt;Node877 -->
<g id="edge4" class="edge"><title>Node870&#45;&gt;Node877</title>
<path fill="none" stroke="midnightblue" d="M96.8797,-290.766C131.352,-310.435 191.373,-344.681 220.574,-361.343"/>
<polygon fill="midnightblue" stroke="midnightblue" points="98.3014,-287.548 87.8812,-285.632 94.8323,-293.628 98.3014,-287.548"/>
</g>
<!-- Node881 -->
<g id="node6" class="node"><title>Node881</title>
<g id="a_node6"><a xlink:href="s25fl1_8c.xhtml#ac688485752eaf90e9d91d99d362d52b9" target="_top" xlink:title="S25FL1D_EnableWrite">
<polygon fill="white" stroke="red" points="358.5,-456.5 358.5,-475.5 478.5,-475.5 478.5,-456.5 358.5,-456.5"/>
<text text-anchor="middle" x="418.5" y="-463.5" font-family="Helvetica,sans-Serif" font-size="10.00">S25FL1D_EnableWrite</text>
</a>
</g>
</g>
<!-- Node870&#45;&gt;Node881 -->
<g id="edge21" class="edge"><title>Node870&#45;&gt;Node881</title>
<path fill="none" stroke="midnightblue" d="M82.9737,-294.053C100.506,-319.125 135.513,-364.295 176,-390 232.774,-426.045 307.947,-446.152 359.248,-456.496"/>
<polygon fill="midnightblue" stroke="midnightblue" points="85.6672,-291.791 77.1346,-285.511 79.8882,-295.742 85.6672,-291.791"/>
</g>
<!-- Node882 -->
<g id="node7" class="node"><title>Node882</title>
<g id="a_node7"><a xlink:href="s25fl1_8c.xhtml#a0a4a002ffca545ddb295efab00a4ab53" target="_top" xlink:title="Writes the given value in the status register of the serial flash device. ">
<polygon fill="white" stroke="red" points="553.5,-266.5 553.5,-285.5 672.5,-285.5 672.5,-266.5 553.5,-266.5"/>
<text text-anchor="middle" x="613" y="-273.5" font-family="Helvetica,sans-Serif" font-size="10.00">S25FL1D_WriteStatus</text>
</a>
</g>
</g>
<!-- Node870&#45;&gt;Node882 -->
<g id="edge23" class="edge"><title>Node870&#45;&gt;Node882</title>
<path fill="none" stroke="midnightblue" d="M150.179,-266.428C236.359,-257.423 378.161,-246.739 500,-257 522.011,-258.854 546.2,-262.722 566.448,-266.488"/>
<polygon fill="midnightblue" stroke="midnightblue" points="149.783,-262.95 140.209,-267.488 150.523,-269.911 149.783,-262.95"/>
</g>
<!-- Node884 -->
<g id="node8" class="node"><title>Node884</title>
<g id="a_node8"><a xlink:href="s25fl1_8c.xhtml#afb88d105142c2a47764cc9fba6012d60" target="_top" xlink:title="Erases all the content of the memory chip. ">
<polygon fill="white" stroke="black" points="556.5,-456.5 556.5,-475.5 669.5,-475.5 669.5,-456.5 556.5,-456.5"/>
<text text-anchor="middle" x="613" y="-463.5" font-family="Helvetica,sans-Serif" font-size="10.00">S25FL1D_EraseChip</text>
</a>
</g>
</g>
<!-- Node870&#45;&gt;Node884 -->
<g id="edge29" class="edge"><title>Node870&#45;&gt;Node884</title>
<path fill="none" stroke="midnightblue" d="M79.1731,-295.032C93.9113,-327.179 127.939,-392.309 176,-429 294.801,-519.696 488.527,-492.837 571.837,-475.546"/>
<polygon fill="midnightblue" stroke="midnightblue" points="82.3403,-293.54 75.0724,-285.831 75.9466,-296.39 82.3403,-293.54"/>
</g>
<!-- Node879 -->
<g id="node9" class="node"><title>Node879</title>
<g id="a_node9"><a xlink:href="s25fl1_8c.xhtml#aee7639f2487a57e818d095f9aa7a2775" target="_top" xlink:title="Erases the specified block of the serial firmware dataflash. ">
<polygon fill="white" stroke="black" points="551.5,-380.5 551.5,-399.5 674.5,-399.5 674.5,-380.5 551.5,-380.5"/>
<text text-anchor="middle" x="613" y="-387.5" font-family="Helvetica,sans-Serif" font-size="10.00">S25FL1D_EraseSector</text>
</a>
</g>
</g>
<!-- Node870&#45;&gt;Node879 -->
<g id="edge30" class="edge"><title>Node870&#45;&gt;Node879</title>
<path fill="none" stroke="midnightblue" d="M126.157,-287.623C233.292,-310.198 467.67,-359.587 566.553,-380.423"/>
<polygon fill="midnightblue" stroke="midnightblue" points="126.702,-284.161 116.195,-285.523 125.258,-291.01 126.702,-284.161"/>
</g>
<!-- Node885 -->
<g id="node10" class="node"><title>Node885</title>
<g id="a_node10"><a xlink:href="s25fl1_8c.xhtml#af7afb850fd4743dd16ae1e500ae11e8e" target="_top" xlink:title="S25FL1D_DisableWrite">
<polygon fill="white" stroke="red" points="357,-266.5 357,-285.5 480,-285.5 480,-266.5 357,-266.5"/>
<text text-anchor="middle" x="418.5" y="-273.5" font-family="Helvetica,sans-Serif" font-size="10.00">S25FL1D_DisableWrite</text>
</a>
</g>
</g>
<!-- Node870&#45;&gt;Node885 -->
<g id="edge22" class="edge"><title>Node870&#45;&gt;Node885</title>
<path fill="none" stroke="midnightblue" d="M150.537,-276C213.269,-276 299.45,-276 356.733,-276"/>
<polygon fill="midnightblue" stroke="midnightblue" points="150.287,-272.5 140.287,-276 150.287,-279.5 150.287,-272.5"/>
</g>
<!-- Node886 -->
<g id="node11" class="node"><title>Node886</title>
<g id="a_node11"><a xlink:href="s25fl1_8c.xhtml#a594058ed761d8012b697ece88b70e1e2" target="_top" xlink:title="Writes the given value in the status register of the serial flash device. ">
<polygon fill="white" stroke="red" points="536,-190.5 536,-209.5 690,-209.5 690,-190.5 536,-190.5"/>
<text text-anchor="middle" x="613" y="-197.5" font-family="Helvetica,sans-Serif" font-size="10.00">S25FL1D_WriteVolatileStatus</text>
</a>
</g>
</g>
<!-- Node870&#45;&gt;Node886 -->
<g id="edge24" class="edge"><title>Node870&#45;&gt;Node886</title>
<path fill="none" stroke="midnightblue" d="M116.594,-263.913C134.951,-259.37 156.383,-254.47 176,-251 301.326,-228.829 448.681,-213.881 535.992,-206.167"/>
<polygon fill="midnightblue" stroke="midnightblue" points="115.589,-260.557 106.744,-266.389 117.295,-267.346 115.589,-260.557"/>
</g>
<!-- Node887 -->
<g id="node12" class="node"><title>Node887</title>
<g id="a_node12"><a xlink:href="s25fl1_8c.xhtml#a3d08b0e2a530933edbff8459c7d3559a" target="_top" xlink:title="Enables critical writes operation on a serial flash device, such as sector protection, status register, etc. ">
<polygon fill="white" stroke="black" points="726,-152.5 726,-171.5 846,-171.5 846,-152.5 726,-152.5"/>
<text text-anchor="middle" x="786" y="-159.5" font-family="Helvetica,sans-Serif" font-size="10.00">S25FL1D_EnableWrap</text>
</a>
</g>
</g>
<!-- Node870&#45;&gt;Node887 -->
<g id="edge26" class="edge"><title>Node870&#45;&gt;Node887</title>
<path fill="none" stroke="midnightblue" d="M96.6951,-261.669C117.465,-250.728 147.788,-236.183 176,-228 371.596,-171.27 615.343,-162.481 725.752,-161.654"/>
<polygon fill="midnightblue" stroke="midnightblue" points="95.0227,-258.594 87.866,-266.406 98.3325,-264.762 95.0227,-258.594"/>
</g>
<!-- Node888 -->
<g id="node13" class="node"><title>Node888</title>
<g id="a_node13"><a xlink:href="s25fl1_8c.xhtml#a9b0aa9019b14539aff1e68cc10576d19" target="_top" xlink:title="Reads and returns the status register of the serial flash. ">
<polygon fill="white" stroke="red" points="356,-114.5 356,-133.5 481,-133.5 481,-114.5 356,-114.5"/>
<text text-anchor="middle" x="418.5" y="-121.5" font-family="Helvetica,sans-Serif" font-size="10.00">S25FL1D_ReadStatus2</text>
</a>
</g>
</g>
<!-- Node870&#45;&gt;Node888 -->
<g id="edge17" class="edge"><title>Node870&#45;&gt;Node888</title>
<path fill="none" stroke="midnightblue" d="M80.1118,-257.372C95.4282,-228.327 129.303,-172.993 176,-148 231.629,-118.227 304.812,-115.073 355.978,-117.585"/>
<polygon fill="midnightblue" stroke="midnightblue" points="76.904,-255.958 75.4775,-266.456 83.1395,-259.139 76.904,-255.958"/>
</g>
<!-- Node889 -->
<g id="node14" class="node"><title>Node889</title>
<g id="a_node14"><a xlink:href="s25fl1_8c.xhtml#aad42fe1199e1d1cb5b1c3d509dbe9801" target="_top" xlink:title="Reads and returns the status register of the serial flash. ">
<polygon fill="white" stroke="red" points="356,-76.5 356,-95.5 481,-95.5 481,-76.5 356,-76.5"/>
<text text-anchor="middle" x="418.5" y="-83.5" font-family="Helvetica,sans-Serif" font-size="10.00">S25FL1D_ReadStatus3</text>
</a>
</g>
</g>
<!-- Node870&#45;&gt;Node889 -->
<g id="edge19" class="edge"><title>Node870&#45;&gt;Node889</title>
<path fill="none" stroke="midnightblue" d="M77.2584,-256.485C89.7291,-221.107 121.292,-146.914 176,-113 229.965,-79.5461 303.945,-76.0951 355.756,-78.9323"/>
<polygon fill="midnightblue" stroke="midnightblue" points="73.8846,-255.536 73.9967,-266.13 80.5157,-257.778 73.8846,-255.536"/>
</g>
<!-- Node890 -->
<g id="node15" class="node"><title>Node890</title>
<g id="a_node15"><a xlink:href="s25fl1_8c.xhtml#a80935e4b5d3aa64a7c1a9acfa5d4b9fb" target="_top" xlink:title="Reads and returns the serial flash device ID. ">
<polygon fill="white" stroke="black" points="177.5,-38.5 177.5,-57.5 299.5,-57.5 299.5,-38.5 177.5,-38.5"/>
<text text-anchor="middle" x="238.5" y="-45.5" font-family="Helvetica,sans-Serif" font-size="10.00">S25FL1D_ReadJedecId</text>
</a>
</g>
</g>
<!-- Node870&#45;&gt;Node890 -->
<g id="edge25" class="edge"><title>Node870&#45;&gt;Node890</title>
<path fill="none" stroke="midnightblue" d="M75.9553,-256.571C87.1083,-216.579 117.864,-124.422 176,-72 182.895,-65.783 191.583,-61.0975 200.24,-57.5968"/>
<polygon fill="midnightblue" stroke="midnightblue" points="72.5315,-255.826 73.3229,-266.391 79.2928,-257.639 72.5315,-255.826"/>
</g>
<!-- Node891 -->
<g id="node16" class="node"><title>Node891</title>
<g id="a_node16"><a xlink:href="s25fl1_8c.xhtml#adfce8fc73cdcfa58cf0ff463116094f2" target="_top" xlink:title="S25FL1D_SoftReset">
<polygon fill="white" stroke="black" points="183.5,-0.5 183.5,-19.5 293.5,-19.5 293.5,-0.5 183.5,-0.5"/>
<text text-anchor="middle" x="238.5" y="-7.5" font-family="Helvetica,sans-Serif" font-size="10.00">S25FL1D_SoftReset</text>
</a>
</g>
</g>
<!-- Node870&#45;&gt;Node891 -->
<g id="edge27" class="edge"><title>Node870&#45;&gt;Node891</title>
<path fill="none" stroke="midnightblue" d="M73.6831,-256.304C81.0692,-209.763 106.018,-92.1643 176,-29 180.314,-25.1065 185.413,-22.0108 190.799,-19.5494"/>
<polygon fill="midnightblue" stroke="midnightblue" points="70.2061,-255.892 72.1989,-266.297 77.1302,-256.92 70.2061,-255.892"/>
</g>
<!-- Node871&#45;&gt;Node873 -->
<g id="edge2" class="edge"><title>Node871&#45;&gt;Node873</title>
<path fill="none" stroke="midnightblue" d="M294.216,-591.681C319.459,-597.07 349.045,-603.386 372.906,-608.48"/>
<polygon fill="midnightblue" stroke="midnightblue" points="294.927,-588.254 284.417,-589.589 293.466,-595.1 294.927,-588.254"/>
</g>
<!-- Node871&#45;&gt;Node876 -->
<g id="edge3" class="edge"><title>Node871&#45;&gt;Node876</title>
<path fill="none" stroke="midnightblue" d="M308.223,-574.282C360.781,-569.76 435.023,-563.052 500,-556 514.708,-554.404 530.483,-552.531 545.415,-550.684"/>
<polygon fill="midnightblue" stroke="midnightblue" points="307.674,-570.816 298.01,-575.156 308.272,-577.79 307.674,-570.816"/>
</g>
<!-- Node877&#45;&gt;Node881 -->
<g id="edge5" class="edge"><title>Node877&#45;&gt;Node881</title>
<path fill="none" stroke="midnightblue" d="M262.151,-386.429C273.852,-394.502 288.301,-404.632 301,-414 317.311,-426.034 318.978,-432.723 337,-442 348.67,-448.007 362.084,-452.757 374.573,-456.391"/>
<polygon fill="midnightblue" stroke="midnightblue" points="264.038,-383.479 253.813,-380.703 260.075,-389.25 264.038,-383.479"/>
</g>
<!-- Node877&#45;&gt;Node884 -->
<g id="edge15" class="edge"><title>Node877&#45;&gt;Node884</title>
<path fill="none" stroke="midnightblue" d="M287.035,-383.123C362.07,-402.259 506.429,-439.076 574.603,-456.462"/>
<polygon fill="midnightblue" stroke="midnightblue" points="287.477,-379.624 276.922,-380.544 285.747,-386.407 287.477,-379.624"/>
</g>
<!-- Node877&#45;&gt;Node879 -->
<g id="edge16" class="edge"><title>Node877&#45;&gt;Node879</title>
<path fill="none" stroke="midnightblue" d="M311.033,-374.649C380.745,-378.204 485.576,-383.552 551.326,-386.905"/>
<polygon fill="midnightblue" stroke="midnightblue" points="311.176,-371.152 301.011,-374.137 310.819,-378.142 311.176,-371.152"/>
</g>
<!-- Node877&#45;&gt;Node885 -->
<g id="edge10" class="edge"><title>Node877&#45;&gt;Node885</title>
<path fill="none" stroke="midnightblue" d="M266.722,-356.472C303.605,-336.787 368.426,-302.191 399.67,-285.516"/>
<polygon fill="midnightblue" stroke="midnightblue" points="264.721,-353.572 257.547,-361.368 268.017,-359.747 264.721,-353.572"/>
</g>
<!-- Node877&#45;&gt;Node887 -->
<g id="edge14" class="edge"><title>Node877&#45;&gt;Node887</title>
<path fill="none" stroke="midnightblue" d="M311.231,-365.566C421.914,-356.085 628.046,-333.742 690,-295 739.562,-264.008 770.875,-196.773 781.216,-171.692"/>
<polygon fill="midnightblue" stroke="midnightblue" points="310.822,-362.088 301.152,-366.416 311.41,-369.063 310.822,-362.088"/>
</g>
<!-- Node881&#45;&gt;Node876 -->
<g id="edge9" class="edge"><title>Node881&#45;&gt;Node876</title>
<path fill="none" stroke="midnightblue" d="M453.622,-479.471C492.17,-494.691 553.935,-519.076 587.818,-532.453"/>
<polygon fill="midnightblue" stroke="midnightblue" points="454.467,-476.042 443.88,-475.625 451.896,-482.553 454.467,-476.042"/>
</g>
<!-- Node881&#45;&gt;Node882 -->
<g id="edge6" class="edge"><title>Node881&#45;&gt;Node882</title>
<path fill="none" stroke="midnightblue" d="M436.804,-448.921C476.073,-410.162 570.93,-316.537 601.978,-285.892"/>
<polygon fill="midnightblue" stroke="midnightblue" points="433.969,-446.801 429.311,-456.317 438.887,-451.783 433.969,-446.801"/>
</g>
<!-- Node881&#45;&gt;Node884 -->
<g id="edge7" class="edge"><title>Node881&#45;&gt;Node884</title>
<path fill="none" stroke="midnightblue" d="M488.615,-466C510.852,-466 535.194,-466 556.337,-466"/>
<polygon fill="midnightblue" stroke="midnightblue" points="488.565,-462.5 478.565,-466 488.565,-469.5 488.565,-462.5"/>
</g>
<!-- Node881&#45;&gt;Node879 -->
<g id="edge8" class="edge"><title>Node881&#45;&gt;Node879</title>
<path fill="none" stroke="midnightblue" d="M453.622,-452.529C492.17,-437.309 553.935,-412.924 587.818,-399.547"/>
<polygon fill="midnightblue" stroke="midnightblue" points="451.896,-449.447 443.88,-456.375 454.467,-455.958 451.896,-449.447"/>
</g>
<!-- Node885&#45;&gt;Node882 -->
<g id="edge11" class="edge"><title>Node885&#45;&gt;Node882</title>
<path fill="none" stroke="midnightblue" d="M490.175,-276C510.927,-276 533.389,-276 553.306,-276"/>
<polygon fill="midnightblue" stroke="midnightblue" points="490.144,-272.5 480.144,-276 490.144,-279.5 490.144,-272.5"/>
</g>
<!-- Node885&#45;&gt;Node886 -->
<g id="edge12" class="edge"><title>Node885&#45;&gt;Node886</title>
<path fill="none" stroke="midnightblue" d="M453.622,-262.529C492.17,-247.309 553.935,-222.924 587.818,-209.547"/>
<polygon fill="midnightblue" stroke="midnightblue" points="451.896,-259.447 443.88,-266.375 454.467,-265.958 451.896,-259.447"/>
</g>
<!-- Node886&#45;&gt;Node887 -->
<g id="edge13" class="edge"><title>Node886&#45;&gt;Node887</title>
<path fill="none" stroke="midnightblue" d="M667.209,-188.176C691.317,-182.818 719.44,-176.569 742.16,-171.52"/>
<polygon fill="midnightblue" stroke="midnightblue" points="666.153,-184.825 657.151,-190.411 667.672,-191.658 666.153,-184.825"/>
</g>
<!-- Node888&#45;&gt;Node887 -->
<g id="edge18" class="edge"><title>Node888&#45;&gt;Node887</title>
<path fill="none" stroke="midnightblue" d="M491.375,-129.24C545.951,-133.494 622.81,-140.075 690,-148 701.589,-149.367 713.944,-151.033 725.779,-152.733"/>
<polygon fill="midnightblue" stroke="midnightblue" points="491.349,-125.727 481.109,-128.446 490.81,-132.706 491.349,-125.727"/>
</g>
<!-- Node889&#45;&gt;Node887 -->
<g id="edge20" class="edge"><title>Node889&#45;&gt;Node887</title>
<path fill="none" stroke="midnightblue" d="M491.127,-93.3672C546.086,-99.9201 623.548,-111.112 690,-128 715.127,-134.386 742.953,-144.752 761.959,-152.361"/>
<polygon fill="midnightblue" stroke="midnightblue" points="491.474,-89.8839 481.135,-92.1972 490.66,-96.8365 491.474,-89.8839"/>
</g>
</g>
</svg>
