<?xml version="1.0" encoding="UTF-8" standalone="no"?>
<!DOCTYPE svg PUBLIC "-//W3C//DTD SVG 1.1//EN"
 "http://www.w3.org/Graphics/SVG/1.1/DTD/svg11.dtd">
<!-- Generated by graphviz version 2.38.0 (20140413.2041)
 -->
<!-- Title: src/hal/x4m0x_s70/libraries/libchip/include/sams70/component/component_trng.h Pages: 1 -->
<svg width="1466pt" height="128pt"
 viewBox="0.00 0.00 1466.00 128.00" xmlns="http://www.w3.org/2000/svg" xmlns:xlink="http://www.w3.org/1999/xlink">
<g id="graph0" class="graph" transform="scale(1 1) rotate(0) translate(4 124)">
<title>src/hal/x4m0x_s70/libraries/libchip/include/sams70/component/component_trng.h</title>
<polygon fill="white" stroke="none" points="-4,4 -4,-124 1462,-124 1462,4 -4,4"/>
<!-- Node1 -->
<g id="node1" class="node"><title>Node1</title>
<polygon fill="#bfbfbf" stroke="black" points="646,-78.5 646,-119.5 812,-119.5 812,-78.5 646,-78.5"/>
<text text-anchor="start" x="654" y="-107.5" font-family="Helvetica,sans-Serif" font-size="10.00">src/hal/x4m0x_s70/libraries</text>
<text text-anchor="start" x="654" y="-96.5" font-family="Helvetica,sans-Serif" font-size="10.00">/libchip/include/sams70</text>
<text text-anchor="middle" x="729" y="-85.5" font-family="Helvetica,sans-Serif" font-size="10.00">/component/component_trng.h</text>
</g>
<!-- Node2 -->
<g id="node2" class="node"><title>Node2</title>
<g id="a_node2"><a xlink:href="sams70j19_8h.xhtml" target="_top" xlink:title="src/hal/x4m0x_s70/libraries\l/libchip/include/sams70\l/sams70j19.h">
<polygon fill="white" stroke="black" points="0,-0.5 0,-41.5 146,-41.5 146,-0.5 0,-0.5"/>
<text text-anchor="start" x="8" y="-29.5" font-family="Helvetica,sans-Serif" font-size="10.00">src/hal/x4m0x_s70/libraries</text>
<text text-anchor="start" x="8" y="-18.5" font-family="Helvetica,sans-Serif" font-size="10.00">/libchip/include/sams70</text>
<text text-anchor="middle" x="73" y="-7.5" font-family="Helvetica,sans-Serif" font-size="10.00">/sams70j19.h</text>
</a>
</g>
</g>
<!-- Node1&#45;&gt;Node2 -->
<g id="edge1" class="edge"><title>Node1&#45;&gt;Node2</title>
<path fill="none" stroke="midnightblue" d="M635.723,-92.9812C521.705,-85.9094 323.165,-70.5624 155,-42 152.111,-41.5093 149.172,-40.9731 146.21,-40.4017"/>
<polygon fill="midnightblue" stroke="midnightblue" points="635.618,-96.4812 645.813,-93.599 636.045,-89.4943 635.618,-96.4812"/>
</g>
<!-- Node3 -->
<g id="node3" class="node"><title>Node3</title>
<g id="a_node3"><a xlink:href="sams70j20_8h.xhtml" target="_top" xlink:title="src/hal/x4m0x_s70/libraries\l/libchip/include/sams70\l/sams70j20.h">
<polygon fill="white" stroke="black" points="164,-0.5 164,-41.5 310,-41.5 310,-0.5 164,-0.5"/>
<text text-anchor="start" x="172" y="-29.5" font-family="Helvetica,sans-Serif" font-size="10.00">src/hal/x4m0x_s70/libraries</text>
<text text-anchor="start" x="172" y="-18.5" font-family="Helvetica,sans-Serif" font-size="10.00">/libchip/include/sams70</text>
<text text-anchor="middle" x="237" y="-7.5" font-family="Helvetica,sans-Serif" font-size="10.00">/sams70j20.h</text>
</a>
</g>
</g>
<!-- Node1&#45;&gt;Node3 -->
<g id="edge2" class="edge"><title>Node1&#45;&gt;Node3</title>
<path fill="none" stroke="midnightblue" d="M635.788,-88.054C552.396,-78.4952 427.012,-62.4916 319,-42 316.121,-41.4537 313.191,-40.8708 310.236,-40.2601"/>
<polygon fill="midnightblue" stroke="midnightblue" points="635.414,-91.5339 645.745,-89.1876 636.205,-84.5788 635.414,-91.5339"/>
</g>
<!-- Node4 -->
<g id="node4" class="node"><title>Node4</title>
<g id="a_node4"><a xlink:href="sams70j21_8h.xhtml" target="_top" xlink:title="src/hal/x4m0x_s70/libraries\l/libchip/include/sams70\l/sams70j21.h">
<polygon fill="white" stroke="black" points="328,-0.5 328,-41.5 474,-41.5 474,-0.5 328,-0.5"/>
<text text-anchor="start" x="336" y="-29.5" font-family="Helvetica,sans-Serif" font-size="10.00">src/hal/x4m0x_s70/libraries</text>
<text text-anchor="start" x="336" y="-18.5" font-family="Helvetica,sans-Serif" font-size="10.00">/libchip/include/sams70</text>
<text text-anchor="middle" x="401" y="-7.5" font-family="Helvetica,sans-Serif" font-size="10.00">/sams70j21.h</text>
</a>
</g>
</g>
<!-- Node1&#45;&gt;Node4 -->
<g id="edge3" class="edge"><title>Node1&#45;&gt;Node4</title>
<path fill="none" stroke="midnightblue" d="M635.842,-77.1485C589.805,-66.7537 533.442,-53.892 483,-42 480.148,-41.3275 477.24,-40.638 474.304,-39.9383"/>
<polygon fill="midnightblue" stroke="midnightblue" points="635.278,-80.6091 645.803,-79.3955 636.818,-73.7807 635.278,-80.6091"/>
</g>
<!-- Node5 -->
<g id="node5" class="node"><title>Node5</title>
<g id="a_node5"><a xlink:href="sams70n19_8h.xhtml" target="_top" xlink:title="src/hal/x4m0x_s70/libraries\l/libchip/include/sams70\l/sams70n19.h">
<polygon fill="white" stroke="black" points="492,-0.5 492,-41.5 638,-41.5 638,-0.5 492,-0.5"/>
<text text-anchor="start" x="500" y="-29.5" font-family="Helvetica,sans-Serif" font-size="10.00">src/hal/x4m0x_s70/libraries</text>
<text text-anchor="start" x="500" y="-18.5" font-family="Helvetica,sans-Serif" font-size="10.00">/libchip/include/sams70</text>
<text text-anchor="middle" x="565" y="-7.5" font-family="Helvetica,sans-Serif" font-size="10.00">/sams70n19.h</text>
</a>
</g>
</g>
<!-- Node1&#45;&gt;Node5 -->
<g id="edge4" class="edge"><title>Node1&#45;&gt;Node5</title>
<path fill="none" stroke="midnightblue" d="M677.618,-74.189C654.93,-63.6749 628.59,-51.4687 607.091,-41.5056"/>
<polygon fill="midnightblue" stroke="midnightblue" points="676.221,-77.399 686.766,-78.4281 679.164,-71.0479 676.221,-77.399"/>
</g>
<!-- Node6 -->
<g id="node6" class="node"><title>Node6</title>
<g id="a_node6"><a xlink:href="sams70n20_8h.xhtml" target="_top" xlink:title="src/hal/x4m0x_s70/libraries\l/libchip/include/sams70\l/sams70n20.h">
<polygon fill="white" stroke="black" points="656,-0.5 656,-41.5 802,-41.5 802,-0.5 656,-0.5"/>
<text text-anchor="start" x="664" y="-29.5" font-family="Helvetica,sans-Serif" font-size="10.00">src/hal/x4m0x_s70/libraries</text>
<text text-anchor="start" x="664" y="-18.5" font-family="Helvetica,sans-Serif" font-size="10.00">/libchip/include/sams70</text>
<text text-anchor="middle" x="729" y="-7.5" font-family="Helvetica,sans-Serif" font-size="10.00">/sams70n20.h</text>
</a>
</g>
</g>
<!-- Node1&#45;&gt;Node6 -->
<g id="edge5" class="edge"><title>Node1&#45;&gt;Node6</title>
<path fill="none" stroke="midnightblue" d="M729,-68.2965C729,-59.3009 729,-49.6532 729,-41.5056"/>
<polygon fill="midnightblue" stroke="midnightblue" points="725.5,-68.4281 729,-78.4281 732.5,-68.4281 725.5,-68.4281"/>
</g>
<!-- Node7 -->
<g id="node7" class="node"><title>Node7</title>
<g id="a_node7"><a xlink:href="sams70n21_8h.xhtml" target="_top" xlink:title="src/hal/x4m0x_s70/libraries\l/libchip/include/sams70\l/sams70n21.h">
<polygon fill="white" stroke="black" points="820,-0.5 820,-41.5 966,-41.5 966,-0.5 820,-0.5"/>
<text text-anchor="start" x="828" y="-29.5" font-family="Helvetica,sans-Serif" font-size="10.00">src/hal/x4m0x_s70/libraries</text>
<text text-anchor="start" x="828" y="-18.5" font-family="Helvetica,sans-Serif" font-size="10.00">/libchip/include/sams70</text>
<text text-anchor="middle" x="893" y="-7.5" font-family="Helvetica,sans-Serif" font-size="10.00">/sams70n21.h</text>
</a>
</g>
</g>
<!-- Node1&#45;&gt;Node7 -->
<g id="edge6" class="edge"><title>Node1&#45;&gt;Node7</title>
<path fill="none" stroke="midnightblue" d="M780.382,-74.189C803.07,-63.6749 829.41,-51.4687 850.909,-41.5056"/>
<polygon fill="midnightblue" stroke="midnightblue" points="778.836,-71.0479 771.234,-78.4281 781.779,-77.399 778.836,-71.0479"/>
</g>
<!-- Node8 -->
<g id="node8" class="node"><title>Node8</title>
<g id="a_node8"><a xlink:href="sams70q19_8h.xhtml" target="_top" xlink:title="src/hal/x4m0x_s70/libraries\l/libchip/include/sams70\l/sams70q19.h">
<polygon fill="white" stroke="black" points="984,-0.5 984,-41.5 1130,-41.5 1130,-0.5 984,-0.5"/>
<text text-anchor="start" x="992" y="-29.5" font-family="Helvetica,sans-Serif" font-size="10.00">src/hal/x4m0x_s70/libraries</text>
<text text-anchor="start" x="992" y="-18.5" font-family="Helvetica,sans-Serif" font-size="10.00">/libchip/include/sams70</text>
<text text-anchor="middle" x="1057" y="-7.5" font-family="Helvetica,sans-Serif" font-size="10.00">/sams70q19.h</text>
</a>
</g>
</g>
<!-- Node1&#45;&gt;Node8 -->
<g id="edge7" class="edge"><title>Node1&#45;&gt;Node8</title>
<path fill="none" stroke="midnightblue" d="M822.158,-77.1485C868.195,-66.7537 924.558,-53.892 975,-42 977.852,-41.3275 980.76,-40.638 983.696,-39.9383"/>
<polygon fill="midnightblue" stroke="midnightblue" points="821.182,-73.7807 812.197,-79.3955 822.722,-80.6091 821.182,-73.7807"/>
</g>
<!-- Node9 -->
<g id="node9" class="node"><title>Node9</title>
<g id="a_node9"><a xlink:href="sams70q20_8h.xhtml" target="_top" xlink:title="src/hal/x4m0x_s70/libraries\l/libchip/include/sams70\l/sams70q20.h">
<polygon fill="white" stroke="black" points="1148,-0.5 1148,-41.5 1294,-41.5 1294,-0.5 1148,-0.5"/>
<text text-anchor="start" x="1156" y="-29.5" font-family="Helvetica,sans-Serif" font-size="10.00">src/hal/x4m0x_s70/libraries</text>
<text text-anchor="start" x="1156" y="-18.5" font-family="Helvetica,sans-Serif" font-size="10.00">/libchip/include/sams70</text>
<text text-anchor="middle" x="1221" y="-7.5" font-family="Helvetica,sans-Serif" font-size="10.00">/sams70q20.h</text>
</a>
</g>
</g>
<!-- Node1&#45;&gt;Node9 -->
<g id="edge8" class="edge"><title>Node1&#45;&gt;Node9</title>
<path fill="none" stroke="midnightblue" d="M822.212,-88.054C905.604,-78.4952 1030.99,-62.4916 1139,-42 1141.88,-41.4537 1144.81,-40.8708 1147.76,-40.2601"/>
<polygon fill="midnightblue" stroke="midnightblue" points="821.795,-84.5788 812.255,-89.1876 822.586,-91.5339 821.795,-84.5788"/>
</g>
<!-- Node10 -->
<g id="node10" class="node"><title>Node10</title>
<g id="a_node10"><a xlink:href="sams70q21_8h.xhtml" target="_top" xlink:title="src/hal/x4m0x_s70/libraries\l/libchip/include/sams70\l/sams70q21.h">
<polygon fill="white" stroke="black" points="1312,-0.5 1312,-41.5 1458,-41.5 1458,-0.5 1312,-0.5"/>
<text text-anchor="start" x="1320" y="-29.5" font-family="Helvetica,sans-Serif" font-size="10.00">src/hal/x4m0x_s70/libraries</text>
<text text-anchor="start" x="1320" y="-18.5" font-family="Helvetica,sans-Serif" font-size="10.00">/libchip/include/sams70</text>
<text text-anchor="middle" x="1385" y="-7.5" font-family="Helvetica,sans-Serif" font-size="10.00">/sams70q21.h</text>
</a>
</g>
</g>
<!-- Node1&#45;&gt;Node10 -->
<g id="edge9" class="edge"><title>Node1&#45;&gt;Node10</title>
<path fill="none" stroke="midnightblue" d="M822.277,-92.9812C936.295,-85.9094 1134.84,-70.5624 1303,-42 1305.89,-41.5093 1308.83,-40.9731 1311.79,-40.4017"/>
<polygon fill="midnightblue" stroke="midnightblue" points="821.955,-89.4943 812.187,-93.599 822.382,-96.4812 821.955,-89.4943"/>
</g>
</g>
</svg>
