<?xml version="1.0" encoding="UTF-8" standalone="no"?>
<!DOCTYPE svg PUBLIC "-//W3C//DTD SVG 1.1//EN"
 "http://www.w3.org/Graphics/SVG/1.1/DTD/svg11.dtd">
<!-- Generated by graphviz version 2.38.0 (20140413.2041)
 -->
<!-- Title: CountBitsInByte Pages: 1 -->
<svg width="281pt" height="78pt"
 viewBox="0.00 0.00 281.00 77.50" xmlns="http://www.w3.org/2000/svg" xmlns:xlink="http://www.w3.org/1999/xlink">
<g id="graph0" class="graph" transform="scale(1 1) rotate(0) translate(4 73.5)">
<title>CountBitsInByte</title>
<polygon fill="white" stroke="none" points="-4,4 -4,-73.5 277,-73.5 277,4 -4,4"/>
<!-- Node27 -->
<g id="node1" class="node"><title>Node27</title>
<polygon fill="#bfbfbf" stroke="black" points="0,-28 0,-47 93,-47 93,-28 0,-28"/>
<text text-anchor="middle" x="46.5" y="-35" font-family="Helvetica,sans-Serif" font-size="10.00">CountBitsInByte</text>
</g>
<!-- Node28 -->
<g id="node2" class="node"><title>Node28</title>
<g id="a_node2"><a xlink:href="smc_8c.xhtml#a4e8c67cfa227eaa3bb2147755c0cee59" target="_top" xlink:title="Counts and return the number of bits set to &#39;1&#39; in the given hsiao code. ">
<polygon fill="white" stroke="red" points="153,-50 153,-69 249,-69 249,-50 153,-50"/>
<text text-anchor="middle" x="201" y="-57" font-family="Helvetica,sans-Serif" font-size="10.00">CountBitsInCode</text>
</a>
</g>
</g>
<!-- Node27&#45;&gt;Node28 -->
<g id="edge1" class="edge"><title>Node27&#45;&gt;Node28</title>
<path fill="none" stroke="midnightblue" d="M103.216,-45.5377C119.543,-47.893 137.226,-50.4441 152.957,-52.7134"/>
<polygon fill="midnightblue" stroke="midnightblue" points="103.652,-42.0645 93.255,-44.1007 102.653,-48.9928 103.652,-42.0645"/>
</g>
<!-- Node32 -->
<g id="node3" class="node"><title>Node32</title>
<g id="a_node3"><a xlink:href="smc_8c.xhtml#a37e65f5e7c65e85ee841c5c779018ad0" target="_top" xlink:title="verifies 4&#45;bytes hsiao codes for a data block whose size is a page Size word. ">
<polygon fill="white" stroke="red" points="129,-0.5 129,-30.5 273,-30.5 273,-0.5 129,-0.5"/>
<text text-anchor="start" x="137" y="-18.5" font-family="Helvetica,sans-Serif" font-size="10.00">_smc_ecc_VerifyW12BitPer</text>
<text text-anchor="middle" x="201" y="-7.5" font-family="Helvetica,sans-Serif" font-size="10.00">PageEcc</text>
</a>
</g>
</g>
<!-- Node27&#45;&gt;Node32 -->
<g id="edge2" class="edge"><title>Node27&#45;&gt;Node32</title>
<path fill="none" stroke="midnightblue" d="M103.229,-29.4605C111.574,-28.2566 120.273,-27.0016 128.884,-25.7593"/>
<polygon fill="midnightblue" stroke="midnightblue" points="102.653,-26.0072 93.255,-30.8993 103.652,-32.9355 102.653,-26.0072"/>
</g>
</g>
</svg>
