<?xml version="1.0" encoding="UTF-8" standalone="no"?>
<!DOCTYPE svg PUBLIC "-//W3C//DTD SVG 1.1//EN"
 "http://www.w3.org/Graphics/SVG/1.1/DTD/svg11.dtd">
<!-- Generated by graphviz version 2.38.0 (20140413.2041)
 -->
<!-- Title: SMC_ECC_GetValue Pages: 1 -->
<svg width="331pt" height="104pt"
 viewBox="0.00 0.00 331.00 104.00" xmlns="http://www.w3.org/2000/svg" xmlns:xlink="http://www.w3.org/1999/xlink">
<g id="graph0" class="graph" transform="scale(1 1) rotate(0) translate(4 100)">
<title>SMC_ECC_GetValue</title>
<polygon fill="white" stroke="none" points="-4,4 -4,-100 327,-100 327,4 -4,4"/>
<!-- Node16 -->
<g id="node1" class="node"><title>Node16</title>
<polygon fill="#bfbfbf" stroke="black" points="0,-38.5 0,-57.5 112,-57.5 112,-38.5 0,-38.5"/>
<text text-anchor="middle" x="56" y="-45.5" font-family="Helvetica,sans-Serif" font-size="10.00">SMC_ECC_GetValue</text>
</g>
<!-- Node17 -->
<g id="node2" class="node"><title>Node17</title>
<g id="a_node2"><a xlink:href="smc_8c.xhtml#a98eda6914d1412bf64354322ce274973" target="_top" xlink:title="Get 24&#45;bit ECC code for 8&#45;bit data path NAND flash. ">
<polygon fill="white" stroke="red" points="153.5,-76.5 153.5,-95.5 317.5,-95.5 317.5,-76.5 153.5,-76.5"/>
<text text-anchor="middle" x="235.5" y="-83.5" font-family="Helvetica,sans-Serif" font-size="10.00">_smc_ecc_GetW9BitPer512Ecc</text>
</a>
</g>
</g>
<!-- Node16&#45;&gt;Node17 -->
<g id="edge1" class="edge"><title>Node16&#45;&gt;Node17</title>
<path fill="none" stroke="midnightblue" d="M111.897,-59.7526C136.995,-65.1258 166.343,-71.4086 190.031,-76.4799"/>
<polygon fill="midnightblue" stroke="midnightblue" points="112.302,-56.26 101.791,-57.589 110.836,-63.1049 112.302,-56.26"/>
</g>
<!-- Node19 -->
<g id="node3" class="node"><title>Node19</title>
<g id="a_node3"><a xlink:href="smc_8c.xhtml#ad60c8dabec3a5c475dc37bf2d03581c3" target="_top" xlink:title="Get 24&#45;bit ECC code for 8&#45;bit data path NAND flash. ">
<polygon fill="white" stroke="red" points="153.5,-38.5 153.5,-57.5 317.5,-57.5 317.5,-38.5 153.5,-38.5"/>
<text text-anchor="middle" x="235.5" y="-45.5" font-family="Helvetica,sans-Serif" font-size="10.00">_smc_ecc_GetW8BitPer256Ecc</text>
</a>
</g>
</g>
<!-- Node16&#45;&gt;Node19 -->
<g id="edge2" class="edge"><title>Node16&#45;&gt;Node19</title>
<path fill="none" stroke="midnightblue" d="M122.466,-48C132.499,-48 142.959,-48 153.282,-48"/>
<polygon fill="midnightblue" stroke="midnightblue" points="122.189,-44.5001 112.189,-48 122.189,-51.5001 122.189,-44.5001"/>
</g>
<!-- Node20 -->
<g id="node4" class="node"><title>Node20</title>
<g id="a_node4"><a xlink:href="smc_8c.xhtml#aa77e585aa9242fea7c9eea721b6e702a" target="_top" xlink:title="Get 32&#45;bit ECC code for 16&#45;bit data path NAND flash. ">
<polygon fill="white" stroke="red" points="148,-0.5 148,-19.5 323,-19.5 323,-0.5 148,-0.5"/>
<text text-anchor="middle" x="235.5" y="-7.5" font-family="Helvetica,sans-Serif" font-size="10.00">_smc_ecc_GetW12BitPerPageEcc</text>
</a>
</g>
</g>
<!-- Node16&#45;&gt;Node20 -->
<g id="edge3" class="edge"><title>Node16&#45;&gt;Node20</title>
<path fill="none" stroke="midnightblue" d="M111.897,-36.2474C136.995,-30.8742 166.343,-24.5914 190.031,-19.5201"/>
<polygon fill="midnightblue" stroke="midnightblue" points="110.836,-32.8951 101.791,-38.411 112.302,-39.74 110.836,-32.8951"/>
</g>
</g>
</svg>
