<?xml version="1.0" encoding="UTF-8" standalone="no"?>
<!DOCTYPE svg PUBLIC "-//W3C//DTD SVG 1.1//EN"
 "http://www.w3.org/Graphics/SVG/1.1/DTD/svg11.dtd">
<!-- Generated by graphviz version 2.38.0 (20140413.2041)
 -->
<!-- Title: _GmacDriver Pages: 1 -->
<svg width="182pt" height="95pt"
 viewBox="0.00 0.00 181.50 95.00" xmlns="http://www.w3.org/2000/svg" xmlns:xlink="http://www.w3.org/1999/xlink">
<g id="graph0" class="graph" transform="scale(1 1) rotate(0) translate(4 91)">
<title>_GmacDriver</title>
<polygon fill="white" stroke="none" points="-4,4 -4,-91 177.5,-91 177.5,4 -4,4"/>
<!-- Node1 -->
<g id="node1" class="node"><title>Node1</title>
<polygon fill="#bfbfbf" stroke="black" points="63.5,-0.5 63.5,-19.5 142.5,-19.5 142.5,-0.5 63.5,-0.5"/>
<text text-anchor="middle" x="103" y="-7.5" font-family="Helvetica,sans-Serif" font-size="10.00">_GmacDriver</text>
</g>
<!-- Node2 -->
<g id="node2" class="node"><title>Node2</title>
<g id="a_node2"><a xlink:href="struct___gmac_queue_driver.xhtml" target="_top" xlink:title="GMAC Queue driver. ">
<polygon fill="white" stroke="red" points="0,-67.5 0,-86.5 110,-86.5 110,-67.5 0,-67.5"/>
<text text-anchor="middle" x="55" y="-74.5" font-family="Helvetica,sans-Serif" font-size="10.00">_GmacQueueDriver</text>
</a>
</g>
</g>
<!-- Node2&#45;&gt;Node1 -->
<g id="edge1" class="edge"><title>Node2&#45;&gt;Node1</title>
<path fill="none" stroke="#9a32cd" stroke-dasharray="5,2" d="M65.2382,-58.476C69.2956,-51.8957 74.1464,-44.4516 79,-38 83.8261,-31.5849 89.8261,-24.8349 94.6196,-19.6887"/>
<polygon fill="#9a32cd" stroke="#9a32cd" points="62.0979,-56.9071 59.9535,-67.2827 68.1002,-60.5089 62.0979,-56.9071"/>
<text text-anchor="middle" x="104" y="-41" font-family="Helvetica,sans-Serif" font-size="10.00"> queueList</text>
</g>
<!-- Node11 -->
<g id="node3" class="node"><title>Node11</title>
<g id="a_node3"><a xlink:href="struct_gmac.xhtml" target="_top" xlink:title="Gmac">
<polygon fill="white" stroke="red" points="128.5,-67.5 128.5,-86.5 173.5,-86.5 173.5,-67.5 128.5,-67.5"/>
<text text-anchor="middle" x="151" y="-74.5" font-family="Helvetica,sans-Serif" font-size="10.00">Gmac</text>
</a>
</g>
</g>
<!-- Node11&#45;&gt;Node1 -->
<g id="edge2" class="edge"><title>Node11&#45;&gt;Node1</title>
<path fill="none" stroke="#9a32cd" stroke-dasharray="5,2" d="M142.074,-58.5709C138.367,-51.9075 133.808,-44.3816 129,-38 123.988,-31.3471 117.488,-24.5971 112.241,-19.5103"/>
<polygon fill="#9a32cd" stroke="#9a32cd" points="139.033,-60.3065 146.827,-67.4828 145.21,-57.0123 139.033,-60.3065"/>
<text text-anchor="middle" x="149" y="-41" font-family="Helvetica,sans-Serif" font-size="10.00"> pHw</text>
</g>
</g>
</svg>
