<?xml version="1.0" encoding="UTF-8" standalone="no"?>
<!DOCTYPE svg PUBLIC "-//W3C//DTD SVG 1.1//EN"
 "http://www.w3.org/Graphics/SVG/1.1/DTD/svg11.dtd">
<!-- Generated by graphviz version 2.38.0 (20140413.2041)
 -->
<!-- Title: _MSDConfigurationDescriptors Pages: 1 -->
<svg width="468pt" height="106pt"
 viewBox="0.00 0.00 468.00 106.00" xmlns="http://www.w3.org/2000/svg" xmlns:xlink="http://www.w3.org/1999/xlink">
<g id="graph0" class="graph" transform="scale(1 1) rotate(0) translate(4 102)">
<title>_MSDConfigurationDescriptors</title>
<polygon fill="white" stroke="none" points="-4,4 -4,-102 464,-102 464,4 -4,4"/>
<!-- Node1 -->
<g id="node1" class="node"><title>Node1</title>
<polygon fill="#bfbfbf" stroke="black" points="148.5,-0.5 148.5,-19.5 311.5,-19.5 311.5,-0.5 148.5,-0.5"/>
<text text-anchor="middle" x="230" y="-7.5" font-family="Helvetica,sans-Serif" font-size="10.00">_MSDConfigurationDescriptors</text>
</g>
<!-- Node2 -->
<g id="node2" class="node"><title>Node2</title>
<g id="a_node2"><a xlink:href="struct___u_s_b_endpoint_descriptor.xhtml" target="_top" xlink:title="_USBEndpointDescriptor">
<polygon fill="white" stroke="black" points="0,-78.5 0,-97.5 134,-97.5 134,-78.5 0,-78.5"/>
<text text-anchor="middle" x="67" y="-85.5" font-family="Helvetica,sans-Serif" font-size="10.00">_USBEndpointDescriptor</text>
</a>
</g>
</g>
<!-- Node2&#45;&gt;Node1 -->
<g id="edge1" class="edge"><title>Node2&#45;&gt;Node1</title>
<path fill="none" stroke="#9a32cd" stroke-dasharray="5,2" d="M94.548,-74.1555C127.807,-58.6483 182.83,-32.9934 211.436,-19.6557"/>
<polygon fill="#9a32cd" stroke="#9a32cd" points="92.9655,-71.0316 85.3813,-78.4296 95.9236,-77.3758 92.9655,-71.0316"/>
<text text-anchor="middle" x="188" y="-52" font-family="Helvetica,sans-Serif" font-size="10.00"> bulkOut</text>
<text text-anchor="middle" x="188" y="-41" font-family="Helvetica,sans-Serif" font-size="10.00">bulkIn</text>
</g>
<!-- Node3 -->
<g id="node3" class="node"><title>Node3</title>
<g id="a_node3"><a xlink:href="struct___u_s_b_configuration_descriptor.xhtml" target="_top" xlink:title="_USBConfigurationDescriptor">
<polygon fill="white" stroke="black" points="152,-78.5 152,-97.5 308,-97.5 308,-78.5 152,-78.5"/>
<text text-anchor="middle" x="230" y="-85.5" font-family="Helvetica,sans-Serif" font-size="10.00">_USBConfigurationDescriptor</text>
</a>
</g>
</g>
<!-- Node3&#45;&gt;Node1 -->
<g id="edge2" class="edge"><title>Node3&#45;&gt;Node1</title>
<path fill="none" stroke="#9a32cd" stroke-dasharray="5,2" d="M230,-68.2239C230,-52.6974 230,-31.3582 230,-19.6165"/>
<polygon fill="#9a32cd" stroke="#9a32cd" points="226.5,-68.2818 230,-78.2818 233.5,-68.2819 226.5,-68.2818"/>
<text text-anchor="middle" x="263" y="-46.5" font-family="Helvetica,sans-Serif" font-size="10.00"> configuration</text>
</g>
<!-- Node4 -->
<g id="node4" class="node"><title>Node4</title>
<g id="a_node4"><a xlink:href="struct___u_s_b_interface_descriptor.xhtml" target="_top" xlink:title="_USBInterfaceDescriptor">
<polygon fill="white" stroke="black" points="326,-78.5 326,-97.5 460,-97.5 460,-78.5 326,-78.5"/>
<text text-anchor="middle" x="393" y="-85.5" font-family="Helvetica,sans-Serif" font-size="10.00">_USBInterfaceDescriptor</text>
</a>
</g>
</g>
<!-- Node4&#45;&gt;Node1 -->
<g id="edge3" class="edge"><title>Node4&#45;&gt;Node1</title>
<path fill="none" stroke="#9a32cd" stroke-dasharray="5,2" d="M369.207,-73.4767C350.642,-63.1676 324.053,-48.93 300,-38 285.058,-31.2102 267.867,-24.5633 254.261,-19.5636"/>
<polygon fill="#9a32cd" stroke="#9a32cd" points="367.693,-76.6401 378.128,-78.4714 371.112,-70.5322 367.693,-76.6401"/>
<text text-anchor="middle" x="366" y="-46.5" font-family="Helvetica,sans-Serif" font-size="10.00"> interface</text>
</g>
</g>
</svg>
