<?xml version="1.0" encoding="UTF-8" standalone="no"?>
<!DOCTYPE svg PUBLIC "-//W3C//DTD SVG 1.1//EN"
 "http://www.w3.org/Graphics/SVG/1.1/DTD/svg11.dtd">
<!-- Generated by graphviz version 2.38.0 (20140413.2041)
 -->
<!-- Title: Usbhs Pages: 1 -->
<svg width="232pt" height="95pt"
 viewBox="0.00 0.00 231.50 95.00" xmlns="http://www.w3.org/2000/svg" xmlns:xlink="http://www.w3.org/1999/xlink">
<g id="graph0" class="graph" transform="scale(1 1) rotate(0) translate(4 91)">
<title>Usbhs</title>
<polygon fill="white" stroke="none" points="-4,4 -4,-91 227.5,-91 227.5,4 -4,4"/>
<!-- Node1 -->
<g id="node1" class="node"><title>Node1</title>
<polygon fill="#bfbfbf" stroke="black" points="73,-0.5 73,-19.5 120,-19.5 120,-0.5 73,-0.5"/>
<text text-anchor="middle" x="96.5" y="-7.5" font-family="Helvetica,sans-Serif" font-size="10.00">Usbhs</text>
</g>
<!-- Node2 -->
<g id="node2" class="node"><title>Node2</title>
<g id="a_node2"><a xlink:href="struct_usbhs_hstdma.xhtml" target="_top" xlink:title="UsbhsHstdma hardware registers. ">
<polygon fill="white" stroke="black" points="0,-67.5 0,-86.5 85,-86.5 85,-67.5 0,-67.5"/>
<text text-anchor="middle" x="42.5" y="-74.5" font-family="Helvetica,sans-Serif" font-size="10.00">UsbhsHstdma</text>
</a>
</g>
</g>
<!-- Node2&#45;&gt;Node1 -->
<g id="edge1" class="edge"><title>Node2&#45;&gt;Node1</title>
<path fill="none" stroke="#9a32cd" stroke-dasharray="5,2" d="M39.2449,-57.3192C39.0327,-50.7715 39.9349,-43.649 43.5,-38 50.0584,-27.6078 61.9718,-21.043 72.8445,-16.9928"/>
<polygon fill="#9a32cd" stroke="#9a32cd" points="35.7866,-57.8872 40.3809,-67.4341 42.7429,-57.1059 35.7866,-57.8872"/>
<text text-anchor="middle" x="86.5" y="-41" font-family="Helvetica,sans-Serif" font-size="10.00"> USBHS_HSTDMA</text>
</g>
<!-- Node3 -->
<g id="node3" class="node"><title>Node3</title>
<g id="a_node3"><a xlink:href="struct_usbhs_devdma.xhtml" target="_top" xlink:title="UsbhsDevdma hardware registers. ">
<polygon fill="white" stroke="black" points="108,-67.5 108,-86.5 195,-86.5 195,-67.5 108,-67.5"/>
<text text-anchor="middle" x="151.5" y="-74.5" font-family="Helvetica,sans-Serif" font-size="10.00">UsbhsDevdma</text>
</a>
</g>
</g>
<!-- Node3&#45;&gt;Node1 -->
<g id="edge2" class="edge"><title>Node3&#45;&gt;Node1</title>
<path fill="none" stroke="#9a32cd" stroke-dasharray="5,2" d="M142.961,-58.2612C139.303,-51.5579 134.677,-44.0856 129.5,-38 123.552,-31.0087 115.624,-24.4556 109.029,-19.5563"/>
<polygon fill="#9a32cd" stroke="#9a32cd" points="139.906,-59.9752 147.579,-67.2812 146.137,-56.7849 139.906,-59.9752"/>
<text text-anchor="middle" x="180" y="-41" font-family="Helvetica,sans-Serif" font-size="10.00"> USBHS_DEVDMA</text>
</g>
</g>
</svg>
