<?xml version="1.0" encoding="UTF-8" standalone="no"?>
<!DOCTYPE svg PUBLIC "-//W3C//DTD SVG 1.1//EN"
 "http://www.w3.org/Graphics/SVG/1.1/DTD/svg11.dtd">
<!-- Generated by graphviz version 2.38.0 (20140413.2041)
 -->
<!-- Title: X4Driver_t Pages: 1 -->
<svg width="336pt" height="106pt"
 viewBox="0.00 0.00 335.50 106.00" xmlns="http://www.w3.org/2000/svg" xmlns:xlink="http://www.w3.org/1999/xlink">
<g id="graph0" class="graph" transform="scale(1 1) rotate(0) translate(4 102)">
<title>X4Driver_t</title>
<polygon fill="white" stroke="none" points="-4,4 -4,-102 331.5,-102 331.5,4 -4,4"/>
<!-- Node1 -->
<g id="node1" class="node"><title>Node1</title>
<polygon fill="#bfbfbf" stroke="black" points="119,-0.5 119,-19.5 185,-19.5 185,-0.5 119,-0.5"/>
<text text-anchor="middle" x="152" y="-7.5" font-family="Helvetica,sans-Serif" font-size="10.00">X4Driver_t</text>
</g>
<!-- Node2 -->
<g id="node2" class="node"><title>Node2</title>
<g id="a_node2"><a xlink:href="struct_x4_driver_lock__t.xhtml" target="_top" xlink:title="Abstract lock struct to allow for platform independent configuration of Locks. ">
<polygon fill="white" stroke="black" points="0,-78.5 0,-97.5 88,-97.5 88,-78.5 0,-78.5"/>
<text text-anchor="middle" x="44" y="-85.5" font-family="Helvetica,sans-Serif" font-size="10.00">X4DriverLock_t</text>
</a>
</g>
</g>
<!-- Node2&#45;&gt;Node1 -->
<g id="edge1" class="edge"><title>Node2&#45;&gt;Node1</title>
<path fill="none" stroke="#9a32cd" stroke-dasharray="5,2" d="M64.8048,-72.3596C87.036,-56.7154 121.531,-32.4411 139.756,-19.6165"/>
<polygon fill="#9a32cd" stroke="#9a32cd" points="62.5528,-69.6645 56.389,-78.2818 66.5813,-75.3892 62.5528,-69.6645"/>
<text text-anchor="middle" x="122" y="-46.5" font-family="Helvetica,sans-Serif" font-size="10.00"> lock</text>
</g>
<!-- Node3 -->
<g id="node3" class="node"><title>Node3</title>
<g id="a_node3"><a xlink:href="struct_x4_driver_timer__t.xhtml" target="_top" xlink:title="Abstract timer struct to allow for platform independent configuration of Timers. ">
<polygon fill="white" stroke="black" points="105.5,-78.5 105.5,-97.5 198.5,-97.5 198.5,-78.5 105.5,-78.5"/>
<text text-anchor="middle" x="152" y="-85.5" font-family="Helvetica,sans-Serif" font-size="10.00">X4DriverTimer_t</text>
</a>
</g>
</g>
<!-- Node3&#45;&gt;Node1 -->
<g id="edge2" class="edge"><title>Node3&#45;&gt;Node1</title>
<path fill="none" stroke="#9a32cd" stroke-dasharray="5,2" d="M152,-68.2239C152,-52.6974 152,-31.3582 152,-19.6165"/>
<polygon fill="#9a32cd" stroke="#9a32cd" points="148.5,-68.2818 152,-78.2818 155.5,-68.2819 148.5,-68.2818"/>
<text text-anchor="middle" x="184" y="-52" font-family="Helvetica,sans-Serif" font-size="10.00"> action_timer</text>
<text text-anchor="middle" x="184" y="-41" font-family="Helvetica,sans-Serif" font-size="10.00">sweep_timer</text>
</g>
<!-- Node4 -->
<g id="node4" class="node"><title>Node4</title>
<g id="a_node4"><a xlink:href="struct_x4_driver_callbacks__t.xhtml" target="_top" xlink:title="Collection of callbacks, used to configure interact with the X4 chip. ">
<polygon fill="white" stroke="black" points="216.5,-78.5 216.5,-97.5 327.5,-97.5 327.5,-78.5 216.5,-78.5"/>
<text text-anchor="middle" x="272" y="-85.5" font-family="Helvetica,sans-Serif" font-size="10.00">X4DriverCallbacks_t</text>
</a>
</g>
</g>
<!-- Node4&#45;&gt;Node1 -->
<g id="edge3" class="edge"><title>Node4&#45;&gt;Node1</title>
<path fill="none" stroke="#9a32cd" stroke-dasharray="5,2" d="M257.755,-70.7003C247.961,-60.2667 234.202,-47.0399 220,-38 207.784,-30.2245 192.964,-24.0199 180.28,-19.529"/>
<polygon fill="#9a32cd" stroke="#9a32cd" points="255.377,-73.2878 264.692,-78.3356 260.558,-68.5806 255.377,-73.2878"/>
<text text-anchor="middle" x="268.5" y="-46.5" font-family="Helvetica,sans-Serif" font-size="10.00"> callbacks</text>
</g>
</g>
</svg>
