<?xml version="1.0" encoding="UTF-8" standalone="no"?>
<!DOCTYPE svg PUBLIC "-//W3C//DTD SVG 1.1//EN"
 "http://www.w3.org/Graphics/SVG/1.1/DTD/svg11.dtd">
<!-- Generated by graphviz version 2.38.0 (20140413.2041)
 -->
<!-- Title: _AUDDSpeakerAcDescriptors Pages: 1 -->
<svg width="406pt" height="142pt"
 viewBox="0.00 0.00 406.00 142.00" xmlns="http://www.w3.org/2000/svg" xmlns:xlink="http://www.w3.org/1999/xlink">
<g id="graph0" class="graph" transform="scale(1 1) rotate(0) translate(4 138)">
<title>_AUDDSpeakerAcDescriptors</title>
<polygon fill="white" stroke="none" points="-4,4 -4,-138 402,-138 402,4 -4,4"/>
<!-- Node1 -->
<g id="node1" class="node"><title>Node1</title>
<polygon fill="#bfbfbf" stroke="black" points="240,-57.5 240,-76.5 398,-76.5 398,-57.5 240,-57.5"/>
<text text-anchor="middle" x="319" y="-64.5" font-family="Helvetica,sans-Serif" font-size="10.00">_AUDDSpeakerAcDescriptors</text>
</g>
<!-- Node2 -->
<g id="node2" class="node"><title>Node2</title>
<g id="a_node2"><a xlink:href="struct___a_u_d_feature_unit_descriptor3.xhtml" target="_top" xlink:title="Feature unit descriptor with 3 channel controls (master, right, left). ">
<polygon fill="white" stroke="red" points="5.5,-114.5 5.5,-133.5 160.5,-133.5 160.5,-114.5 5.5,-114.5"/>
<text text-anchor="middle" x="83" y="-121.5" font-family="Helvetica,sans-Serif" font-size="10.00">_AUDFeatureUnitDescriptor3</text>
</a>
</g>
</g>
<!-- Node2&#45;&gt;Node1 -->
<g id="edge1" class="edge"><title>Node2&#45;&gt;Node1</title>
<path fill="none" stroke="#9a32cd" stroke-dasharray="5,2" d="M135.288,-112.12C145.465,-109.761 156.071,-107.303 166,-105 190.89,-99.2274 197.19,-98.109 222,-92 241.9,-87.0999 264.043,-81.3533 282.044,-76.6061"/>
<polygon fill="#9a32cd" stroke="#9a32cd" points="134.247,-108.768 125.296,-114.435 135.828,-115.587 134.247,-108.768"/>
<text text-anchor="middle" x="203" y="-103" font-family="Helvetica,sans-Serif" font-size="10.00"> feature</text>
</g>
<!-- Node4 -->
<g id="node3" class="node"><title>Node4</title>
<g id="a_node3"><a xlink:href="struct___a_u_d_header_descriptor1.xhtml" target="_top" xlink:title="Audio header descriptor with 1 interface. ">
<polygon fill="white" stroke="red" points="16,-76.5 16,-95.5 150,-95.5 150,-76.5 16,-76.5"/>
<text text-anchor="middle" x="83" y="-83.5" font-family="Helvetica,sans-Serif" font-size="10.00">_AUDHeaderDescriptor1</text>
</a>
</g>
</g>
<!-- Node4&#45;&gt;Node1 -->
<g id="edge2" class="edge"><title>Node4&#45;&gt;Node1</title>
<path fill="none" stroke="#9a32cd" stroke-dasharray="5,2" d="M160.088,-79.8219C185.552,-77.7543 213.975,-75.4464 239.612,-73.3648"/>
<polygon fill="#9a32cd" stroke="#9a32cd" points="159.801,-76.3336 150.117,-80.6315 160.367,-83.3107 159.801,-76.3336"/>
<text text-anchor="middle" x="203" y="-80" font-family="Helvetica,sans-Serif" font-size="10.00"> header</text>
</g>
<!-- Node6 -->
<g id="node4" class="node"><title>Node6</title>
<g id="a_node4"><a xlink:href="struct___a_u_d_output_terminal_descriptor.xhtml" target="_top" xlink:title="_AUDOutputTerminalDescriptor">
<polygon fill="white" stroke="black" points="0,-38.5 0,-57.5 166,-57.5 166,-38.5 0,-38.5"/>
<text text-anchor="middle" x="83" y="-45.5" font-family="Helvetica,sans-Serif" font-size="10.00">_AUDOutputTerminalDescriptor</text>
</a>
</g>
</g>
<!-- Node6&#45;&gt;Node1 -->
<g id="edge3" class="edge"><title>Node6&#45;&gt;Node1</title>
<path fill="none" stroke="#9a32cd" stroke-dasharray="5,2" d="M176.099,-55.2949C191.429,-56.5225 207.164,-57.7905 222,-59 227.834,-59.4756 233.868,-59.9707 239.937,-60.4711"/>
<polygon fill="#9a32cd" stroke="#9a32cd" points="176.344,-51.8034 166.097,-54.4951 175.786,-58.7812 176.344,-51.8034"/>
<text text-anchor="middle" x="203" y="-62" font-family="Helvetica,sans-Serif" font-size="10.00"> output</text>
</g>
<!-- Node7 -->
<g id="node5" class="node"><title>Node7</title>
<g id="a_node5"><a xlink:href="struct___a_u_d_input_terminal_descriptor.xhtml" target="_top" xlink:title="_AUDInputTerminalDescriptor">
<polygon fill="white" stroke="black" points="4.5,-0.5 4.5,-19.5 161.5,-19.5 161.5,-0.5 4.5,-0.5"/>
<text text-anchor="middle" x="83" y="-7.5" font-family="Helvetica,sans-Serif" font-size="10.00">_AUDInputTerminalDescriptor</text>
</a>
</g>
</g>
<!-- Node7&#45;&gt;Node1 -->
<g id="edge4" class="edge"><title>Node7&#45;&gt;Node1</title>
<path fill="none" stroke="#9a32cd" stroke-dasharray="5,2" d="M141.127,-21.6141C166.044,-26.8872 195.549,-33.4115 222,-40 243.336,-45.3144 267.129,-52.0009 285.691,-57.3901"/>
<polygon fill="#9a32cd" stroke="#9a32cd" points="141.615,-18.1403 131.109,-19.5089 140.175,-24.9907 141.615,-18.1403"/>
<text text-anchor="middle" x="203" y="-43" font-family="Helvetica,sans-Serif" font-size="10.00"> input</text>
</g>
</g>
</svg>
