<?xml version="1.0" encoding="UTF-8" standalone="no"?>
<!DOCTYPE svg PUBLIC "-//W3C//DTD SVG 1.1//EN"
 "http://www.w3.org/Graphics/SVG/1.1/DTD/svg11.dtd">
<!-- Generated by graphviz version 2.38.0 (20140413.2041)
 -->
<!-- Title: _AUDDSpeakerDriver Pages: 1 -->
<svg width="233pt" height="173pt"
 viewBox="0.00 0.00 233.00 173.00" xmlns="http://www.w3.org/2000/svg" xmlns:xlink="http://www.w3.org/1999/xlink">
<g id="graph0" class="graph" transform="scale(1 1) rotate(0) translate(4 169)">
<title>_AUDDSpeakerDriver</title>
<polygon fill="white" stroke="none" points="-4,4 -4,-169 229,-169 229,4 -4,4"/>
<!-- Node1 -->
<g id="node1" class="node"><title>Node1</title>
<polygon fill="#bfbfbf" stroke="black" points="0,-0.5 0,-19.5 119,-19.5 119,-0.5 0,-0.5"/>
<text text-anchor="middle" x="59.5" y="-7.5" font-family="Helvetica,sans-Serif" font-size="10.00">_AUDDSpeakerDriver</text>
</g>
<!-- Node2 -->
<g id="node2" class="node"><title>Node2</title>
<g id="a_node2"><a xlink:href="struct___a_u_d_d_stream.xhtml" target="_top" xlink:title="Structs of USB Audio Stream Function Interface. ">
<polygon fill="white" stroke="black" points="38,-145.5 38,-164.5 125,-164.5 125,-145.5 38,-145.5"/>
<text text-anchor="middle" x="81.5" y="-152.5" font-family="Helvetica,sans-Serif" font-size="10.00">_AUDDStream</text>
</a>
</g>
</g>
<!-- Node2&#45;&gt;Node1 -->
<g id="edge1" class="edge"><title>Node2&#45;&gt;Node1</title>
<path fill="none" stroke="#9a32cd" stroke-dasharray="5,2" d="M71.86,-136.373C65.232,-123.206 57.0162,-104.533 53.5,-87 48.6592,-62.8626 54.0201,-33.68 57.3137,-19.5255"/>
<polygon fill="#9a32cd" stroke="#9a32cd" points="68.7739,-138.024 76.5148,-145.258 74.9746,-134.776 68.7739,-138.024"/>
<text text-anchor="middle" x="74.5" y="-74.5" font-family="Helvetica,sans-Serif" font-size="10.00"> speaker</text>
</g>
<!-- Node3 -->
<g id="node3" class="node"><title>Node3</title>
<g id="a_node3"><a xlink:href="struct___a_u_d_d_speaker_phone.xhtml" target="_top" xlink:title="Struct of USB Audio Speaker&#45;phone Function, with. ">
<polygon fill="white" stroke="red" points="104,-67.5 104,-86.5 225,-86.5 225,-67.5 104,-67.5"/>
<text text-anchor="middle" x="164.5" y="-74.5" font-family="Helvetica,sans-Serif" font-size="10.00">_AUDDSpeakerPhone</text>
</a>
</g>
</g>
<!-- Node2&#45;&gt;Node3 -->
<g id="edge3" class="edge"><title>Node2&#45;&gt;Node3</title>
<path fill="none" stroke="#9a32cd" stroke-dasharray="5,2" d="M98.6416,-138.304C115.746,-122.642 141.395,-99.1562 155.09,-86.6165"/>
<polygon fill="#9a32cd" stroke="#9a32cd" points="96.0328,-135.947 91.0212,-145.282 100.76,-141.11 96.0328,-135.947"/>
<text text-anchor="middle" x="163.5" y="-119" font-family="Helvetica,sans-Serif" font-size="10.00"> pSpeaker</text>
<text text-anchor="middle" x="163.5" y="-108" font-family="Helvetica,sans-Serif" font-size="10.00">pMicrophone</text>
</g>
<!-- Node3&#45;&gt;Node1 -->
<g id="edge2" class="edge"><title>Node3&#45;&gt;Node1</title>
<path fill="none" stroke="#9a32cd" stroke-dasharray="5,2" d="M141.791,-61.9422C120.997,-49.0696 90.8828,-30.4274 73.4364,-19.6273"/>
<polygon fill="#9a32cd" stroke="#9a32cd" points="139.994,-64.9462 150.339,-67.2338 143.679,-58.9943 139.994,-64.9462"/>
<text text-anchor="middle" x="127" y="-41" font-family="Helvetica,sans-Serif" font-size="10.00"> fun</text>
</g>
</g>
</svg>
