<?xml version="1.0" encoding="UTF-8" standalone="no"?>
<!DOCTYPE svg PUBLIC "-//W3C//DTD SVG 1.1//EN"
 "http://www.w3.org/Graphics/SVG/1.1/DTD/svg11.dtd">
<!-- Generated by graphviz version 2.38.0 (20140413.2041)
 -->
<!-- Title: UsbVideoCamConfigurationDescriptors Pages: 1 -->
<svg width="419pt" height="266pt"
 viewBox="0.00 0.00 419.00 265.50" xmlns="http://www.w3.org/2000/svg" xmlns:xlink="http://www.w3.org/1999/xlink">
<g id="graph0" class="graph" transform="scale(1 1) rotate(0) translate(4 261.5)">
<title>UsbVideoCamConfigurationDescriptors</title>
<polygon fill="white" stroke="none" points="-4,4 -4,-261.5 415,-261.5 415,4 -4,4"/>
<!-- Node1 -->
<g id="node1" class="node"><title>Node1</title>
<polygon fill="#bfbfbf" stroke="black" points="262,-112 262,-142 411,-142 411,-112 262,-112"/>
<text text-anchor="start" x="270" y="-130" font-family="Helvetica,sans-Serif" font-size="10.00">UsbVideoCamConfiguration</text>
<text text-anchor="middle" x="336.5" y="-119" font-family="Helvetica,sans-Serif" font-size="10.00">Descriptors</text>
</g>
<!-- Node2 -->
<g id="node2" class="node"><title>Node2</title>
<g id="a_node2"><a xlink:href="struct___usb_video_streaming_interface_descriptor.xhtml" target="_top" xlink:title="_UsbVideoStreamingInterface\lDescriptor">
<polygon fill="white" stroke="red" points="0,-227 0,-257 160,-257 160,-227 0,-227"/>
<text text-anchor="start" x="8" y="-245" font-family="Helvetica,sans-Serif" font-size="10.00">_UsbVideoStreamingInterface</text>
<text text-anchor="middle" x="80" y="-234" font-family="Helvetica,sans-Serif" font-size="10.00">Descriptor</text>
</a>
</g>
</g>
<!-- Node2&#45;&gt;Node1 -->
<g id="edge1" class="edge"><title>Node2&#45;&gt;Node1</title>
<path fill="none" stroke="#9a32cd" stroke-dasharray="5,2" d="M142.53,-223.76C148.451,-221.869 154.352,-219.931 160,-218 197.802,-205.075 208.351,-204.034 244,-186 269.468,-173.116 296.726,-154.904 314.802,-142.132"/>
<polygon fill="#9a32cd" stroke="#9a32cd" points="141.073,-220.55 132.585,-226.89 143.174,-227.227 141.073,-220.55"/>
<text text-anchor="middle" x="211" y="-215" font-family="Helvetica,sans-Serif" font-size="10.00"> vsInterface</text>
</g>
<!-- Node5 -->
<g id="node3" class="node"><title>Node5</title>
<g id="a_node3"><a xlink:href="struct___u_s_b_interface_association_descriptor.xhtml" target="_top" xlink:title="_USBInterfaceAssociation\lDescriptor">
<polygon fill="white" stroke="black" points="10,-178 10,-208 150,-208 150,-178 10,-178"/>
<text text-anchor="start" x="18" y="-196" font-family="Helvetica,sans-Serif" font-size="10.00">_USBInterfaceAssociation</text>
<text text-anchor="middle" x="80" y="-185" font-family="Helvetica,sans-Serif" font-size="10.00">Descriptor</text>
</a>
</g>
</g>
<!-- Node5&#45;&gt;Node1 -->
<g id="edge2" class="edge"><title>Node5&#45;&gt;Node1</title>
<path fill="none" stroke="#9a32cd" stroke-dasharray="5,2" d="M160.319,-175.647C187.005,-169.506 216.881,-162.301 244,-155 258.598,-151.07 274.379,-146.396 288.658,-142.003"/>
<polygon fill="#9a32cd" stroke="#9a32cd" points="159.229,-172.305 150.261,-177.946 160.789,-179.129 159.229,-172.305"/>
<text text-anchor="middle" x="211" y="-174" font-family="Helvetica,sans-Serif" font-size="10.00"> iad</text>
</g>
<!-- Node6 -->
<g id="node4" class="node"><title>Node6</title>
<g id="a_node4"><a xlink:href="struct___u_s_b_endpoint_descriptor.xhtml" target="_top" xlink:title="_USBEndpointDescriptor">
<polygon fill="white" stroke="black" points="13,-139.5 13,-158.5 147,-158.5 147,-139.5 13,-139.5"/>
<text text-anchor="middle" x="80" y="-146.5" font-family="Helvetica,sans-Serif" font-size="10.00">_USBEndpointDescriptor</text>
</a>
</g>
</g>
<!-- Node6&#45;&gt;Node1 -->
<g id="edge3" class="edge"><title>Node6&#45;&gt;Node1</title>
<path fill="none" stroke="#9a32cd" stroke-dasharray="5,2" d="M157.262,-142.408C190.284,-139.553 228.796,-136.224 261.554,-133.392"/>
<polygon fill="#9a32cd" stroke="#9a32cd" points="156.864,-138.929 147.203,-143.277 157.467,-145.903 156.864,-138.929"/>
<text text-anchor="middle" x="211" y="-143" font-family="Helvetica,sans-Serif" font-size="10.00"> ep11</text>
</g>
<!-- Node7 -->
<g id="node5" class="node"><title>Node7</title>
<g id="a_node5"><a xlink:href="struct___usb_video_control_interface_descriptor.xhtml" target="_top" xlink:title="Class&#45;specific USB VideoControl Interface descriptor list. ">
<polygon fill="white" stroke="red" points="8,-90 8,-120 152,-120 152,-90 8,-90"/>
<text text-anchor="start" x="16" y="-108" font-family="Helvetica,sans-Serif" font-size="10.00">_UsbVideoControlInterface</text>
<text text-anchor="middle" x="80" y="-97" font-family="Helvetica,sans-Serif" font-size="10.00">Descriptor</text>
</a>
</g>
</g>
<!-- Node7&#45;&gt;Node1 -->
<g id="edge4" class="edge"><title>Node7&#45;&gt;Node1</title>
<path fill="none" stroke="#9a32cd" stroke-dasharray="5,2" d="M162.406,-112.037C194.26,-114.791 230.539,-117.927 261.626,-120.614"/>
<polygon fill="#9a32cd" stroke="#9a32cd" points="162.495,-108.532 152.231,-111.157 161.892,-115.506 162.495,-108.532"/>
<text text-anchor="middle" x="211" y="-122" font-family="Helvetica,sans-Serif" font-size="10.00"> vcInterface</text>
</g>
<!-- Node9 -->
<g id="node6" class="node"><title>Node9</title>
<g id="a_node6"><a xlink:href="struct___u_s_b_configuration_descriptor.xhtml" target="_top" xlink:title="_USBConfigurationDescriptor">
<polygon fill="white" stroke="black" points="2,-51.5 2,-70.5 158,-70.5 158,-51.5 2,-51.5"/>
<text text-anchor="middle" x="80" y="-58.5" font-family="Helvetica,sans-Serif" font-size="10.00">_USBConfigurationDescriptor</text>
</a>
</g>
</g>
<!-- Node9&#45;&gt;Node1 -->
<g id="edge5" class="edge"><title>Node9&#45;&gt;Node1</title>
<path fill="none" stroke="#9a32cd" stroke-dasharray="5,2" d="M133.744,-72.8859C165.743,-80.279 207.344,-90.2137 244,-100 257.762,-103.674 272.604,-107.927 286.247,-111.955"/>
<polygon fill="#9a32cd" stroke="#9a32cd" points="134.24,-69.4087 123.71,-70.5782 132.671,-76.2306 134.24,-69.4087"/>
<text text-anchor="middle" x="211" y="-103" font-family="Helvetica,sans-Serif" font-size="10.00"> configuration</text>
</g>
<!-- Node10 -->
<g id="node7" class="node"><title>Node10</title>
<g id="a_node7"><a xlink:href="struct___u_s_b_interface_descriptor.xhtml" target="_top" xlink:title="_USBInterfaceDescriptor">
<polygon fill="white" stroke="black" points="13,-0.5 13,-19.5 147,-19.5 147,-0.5 13,-0.5"/>
<text text-anchor="middle" x="80" y="-7.5" font-family="Helvetica,sans-Serif" font-size="10.00">_USBInterfaceDescriptor</text>
</a>
</g>
</g>
<!-- Node10&#45;&gt;Node1 -->
<g id="edge6" class="edge"><title>Node10&#45;&gt;Node1</title>
<path fill="none" stroke="#9a32cd" stroke-dasharray="5,2" d="M157.227,-19.9005C185.533,-25.5723 217.242,-34.3868 244,-48 275.799,-64.178 305.715,-93.7069 322.225,-111.721"/>
<polygon fill="#9a32cd" stroke="#9a32cd" points="157.849,-16.4561 147.37,-18.0226 156.539,-23.3324 157.849,-16.4561"/>
<text text-anchor="middle" x="211" y="-73" font-family="Helvetica,sans-Serif" font-size="10.00"> interface0</text>
<text text-anchor="middle" x="211" y="-62" font-family="Helvetica,sans-Serif" font-size="10.00">interface10</text>
<text text-anchor="middle" x="211" y="-51" font-family="Helvetica,sans-Serif" font-size="10.00">interface11</text>
</g>
</g>
</svg>
