<?xml version="1.0" encoding="UTF-8" standalone="no"?>
<!DOCTYPE svg PUBLIC "-//W3C//DTD SVG 1.1//EN"
 "http://www.w3.org/Graphics/SVG/1.1/DTD/svg11.dtd">
<!-- Generated by graphviz version 2.38.0 (20140413.2041)
 -->
<!-- Title: arm_dct4_instance_f32 Pages: 1 -->
<svg width="222pt" height="162pt"
 viewBox="0.00 0.00 221.50 162.00" xmlns="http://www.w3.org/2000/svg" xmlns:xlink="http://www.w3.org/1999/xlink">
<g id="graph0" class="graph" transform="scale(1 1) rotate(0) translate(4 158)">
<title>arm_dct4_instance_f32</title>
<polygon fill="white" stroke="none" points="-4,4 -4,-158 217.5,-158 217.5,4 -4,4"/>
<!-- Node1 -->
<g id="node1" class="node"><title>Node1</title>
<polygon fill="#bfbfbf" stroke="black" points="0,-0.5 0,-19.5 128,-19.5 128,-0.5 0,-0.5"/>
<text text-anchor="middle" x="64" y="-7.5" font-family="Helvetica,sans-Serif" font-size="10.00">arm_dct4_instance_f32</text>
</g>
<!-- Node2 -->
<g id="node2" class="node"><title>Node2</title>
<g id="a_node2"><a xlink:href="structarm__cfft__radix4__instance__f32.xhtml" target="_top" xlink:title="Instance structure for the floating&#45;point CFFT/CIFFT function. ">
<polygon fill="white" stroke="black" points="3.5,-134.5 3.5,-153.5 160.5,-153.5 160.5,-134.5 3.5,-134.5"/>
<text text-anchor="middle" x="82" y="-141.5" font-family="Helvetica,sans-Serif" font-size="10.00">arm_cfft_radix4_instance_f32</text>
</a>
</g>
</g>
<!-- Node2&#45;&gt;Node1 -->
<g id="edge1" class="edge"><title>Node2&#45;&gt;Node1</title>
<path fill="none" stroke="#9a32cd" stroke-dasharray="5,2" d="M72.1449,-125.154C66.8,-114.444 60.7399,-100.348 58,-87 53.0502,-62.8847 58.4604,-33.6921 61.7892,-19.5304"/>
<polygon fill="#9a32cd" stroke="#9a32cd" points="69.1723,-127.022 76.9184,-134.25 75.3707,-123.769 69.1723,-127.022"/>
<text text-anchor="middle" x="71" y="-74.5" font-family="Helvetica,sans-Serif" font-size="10.00"> pCfft</text>
</g>
<!-- Node3 -->
<g id="node3" class="node"><title>Node3</title>
<g id="a_node3"><a xlink:href="structarm__rfft__instance__f32.xhtml" target="_top" xlink:title="Instance structure for the floating&#45;point RFFT/RIFFT function. ">
<polygon fill="white" stroke="black" points="92.5,-67.5 92.5,-86.5 213.5,-86.5 213.5,-67.5 92.5,-67.5"/>
<text text-anchor="middle" x="153" y="-74.5" font-family="Helvetica,sans-Serif" font-size="10.00">arm_rfft_instance_f32</text>
</a>
</g>
</g>
<!-- Node2&#45;&gt;Node3 -->
<g id="edge3" class="edge"><title>Node2&#45;&gt;Node3</title>
<path fill="none" stroke="#9a32cd" stroke-dasharray="5,2" d="M99.0877,-127.356C113.046,-114.578 132.255,-96.9915 143.576,-86.6273"/>
<polygon fill="#9a32cd" stroke="#9a32cd" points="96.5879,-124.9 91.5754,-134.234 101.315,-130.063 96.5879,-124.9"/>
<text text-anchor="middle" x="134" y="-108" font-family="Helvetica,sans-Serif" font-size="10.00"> pCfft</text>
</g>
<!-- Node3&#45;&gt;Node1 -->
<g id="edge2" class="edge"><title>Node3&#45;&gt;Node1</title>
<path fill="none" stroke="#9a32cd" stroke-dasharray="5,2" d="M132.554,-61.0678C114.987,-48.2376 90.2691,-30.1853 75.8128,-19.6273"/>
<polygon fill="#9a32cd" stroke="#9a32cd" points="130.857,-64.1623 140.997,-67.2338 134.986,-58.5094 130.857,-64.1623"/>
<text text-anchor="middle" x="125.5" y="-41" font-family="Helvetica,sans-Serif" font-size="10.00"> pRfft</text>
</g>
</g>
</svg>
