<?xml version="1.0" encoding="UTF-8" standalone="no"?>
<!DOCTYPE svg PUBLIC "-//W3C//DTD SVG 1.1//EN"
 "http://www.w3.org/Graphics/SVG/1.1/DTD/svg11.dtd">
<!-- Generated by graphviz version 2.38.0 (20140413.2041)
 -->
<!-- Title: XepDispatch_t Pages: 1 -->
<svg width="280pt" height="95pt"
 viewBox="0.00 0.00 280.00 95.00" xmlns="http://www.w3.org/2000/svg" xmlns:xlink="http://www.w3.org/1999/xlink">
<g id="graph0" class="graph" transform="scale(1 1) rotate(0) translate(4 91)">
<title>XepDispatch_t</title>
<polygon fill="white" stroke="none" points="-4,4 -4,-91 276,-91 276,4 -4,4"/>
<!-- Node1 -->
<g id="node1" class="node"><title>Node1</title>
<polygon fill="#bfbfbf" stroke="black" points="106,-0.5 106,-19.5 191,-19.5 191,-0.5 106,-0.5"/>
<text text-anchor="middle" x="148.5" y="-7.5" font-family="Helvetica,sans-Serif" font-size="10.00">XepDispatch_t</text>
</g>
<!-- Node2 -->
<g id="node2" class="node"><title>Node2</title>
<g id="a_node2"><a xlink:href="struct_xep_dispatch_subscriber_info__t.xhtml" target="_top" xlink:title="XepDispatchSubscriberInfo_t">
<polygon fill="white" stroke="black" points="0,-67.5 0,-86.5 153,-86.5 153,-67.5 0,-67.5"/>
<text text-anchor="middle" x="76.5" y="-74.5" font-family="Helvetica,sans-Serif" font-size="10.00">XepDispatchSubscriberInfo_t</text>
</a>
</g>
</g>
<!-- Node2&#45;&gt;Node1 -->
<g id="edge1" class="edge"><title>Node2&#45;&gt;Node1</title>
<path fill="none" stroke="#9a32cd" stroke-dasharray="5,2" d="M93.8283,-60.3564C107.983,-47.5777 127.463,-29.9915 138.944,-19.6273"/>
<polygon fill="#9a32cd" stroke="#9a32cd" points="91.2876,-57.9348 86.2102,-67.2338 95.9783,-63.1307 91.2876,-57.9348"/>
<text text-anchor="middle" x="146.5" y="-41" font-family="Helvetica,sans-Serif" font-size="10.00"> subscribers</text>
</g>
<!-- Node3 -->
<g id="node3" class="node"><title>Node3</title>
<g id="a_node3"><a xlink:href="struct_memory_pool_set__t.xhtml" target="_top" xlink:title="Memory pool set. ">
<polygon fill="white" stroke="red" points="171,-67.5 171,-86.5 272,-86.5 272,-67.5 171,-67.5"/>
<text text-anchor="middle" x="221.5" y="-74.5" font-family="Helvetica,sans-Serif" font-size="10.00">MemoryPoolSet_t</text>
</a>
</g>
</g>
<!-- Node3&#45;&gt;Node1 -->
<g id="edge2" class="edge"><title>Node3&#45;&gt;Node1</title>
<path fill="none" stroke="#9a32cd" stroke-dasharray="5,2" d="M204.623,-60.5979C196.982,-53.6587 187.817,-45.3828 179.5,-38 172.561,-31.8404 164.676,-24.9741 158.594,-19.7072"/>
<polygon fill="#9a32cd" stroke="#9a32cd" points="202.452,-63.3549 212.204,-67.4973 207.164,-58.178 202.452,-63.3549"/>
<text text-anchor="middle" x="230" y="-41" font-family="Helvetica,sans-Serif" font-size="10.00"> memorypoolset</text>
</g>
</g>
</svg>
