<?xml version="1.0" encoding="UTF-8" standalone="no"?>
<!DOCTYPE svg PUBLIC "-//W3C//DTD SVG 1.1//EN"
 "http://www.w3.org/Graphics/SVG/1.1/DTD/svg11.dtd">
<!-- Generated by graphviz version 2.38.0 (20140413.2041)
 -->
<!-- Title: _MSDParseData Pages: 1 -->
<svg width="234pt" height="95pt"
 viewBox="0.00 0.00 233.50 95.00" xmlns="http://www.w3.org/2000/svg" xmlns:xlink="http://www.w3.org/1999/xlink">
<g id="graph0" class="graph" transform="scale(1 1) rotate(0) translate(4 91)">
<title>_MSDParseData</title>
<polygon fill="white" stroke="none" points="-4,4 -4,-91 229.5,-91 229.5,4 -4,4"/>
<!-- Node1 -->
<g id="node1" class="node"><title>Node1</title>
<polygon fill="#bfbfbf" stroke="black" points="50.5,-0.5 50.5,-19.5 144.5,-19.5 144.5,-0.5 50.5,-0.5"/>
<text text-anchor="middle" x="97.5" y="-7.5" font-family="Helvetica,sans-Serif" font-size="10.00">_MSDParseData</text>
</g>
<!-- Node2 -->
<g id="node2" class="node"><title>Node2</title>
<g id="a_node2"><a xlink:href="struct___m_s_d_driver.xhtml" target="_top" xlink:title="_MSDDriver">
<polygon fill="white" stroke="red" points="0,-67.5 0,-86.5 73,-86.5 73,-67.5 0,-67.5"/>
<text text-anchor="middle" x="36.5" y="-74.5" font-family="Helvetica,sans-Serif" font-size="10.00">_MSDDriver</text>
</a>
</g>
</g>
<!-- Node2&#45;&gt;Node1 -->
<g id="edge1" class="edge"><title>Node2&#45;&gt;Node1</title>
<path fill="none" stroke="#9a32cd" stroke-dasharray="5,2" d="M51.8581,-59.6348C63.7879,-46.9228 79.859,-29.7978 89.4036,-19.6273"/>
<polygon fill="#9a32cd" stroke="#9a32cd" points="49.0177,-57.5468 44.7267,-67.2338 54.1221,-62.337 49.0177,-57.5468"/>
<text text-anchor="middle" x="89" y="-41" font-family="Helvetica,sans-Serif" font-size="10.00"> pMsdd</text>
</g>
<!-- Node17 -->
<g id="node3" class="node"><title>Node17</title>
<g id="a_node3"><a xlink:href="struct___u_s_b_interface_descriptor.xhtml" target="_top" xlink:title="_USBInterfaceDescriptor">
<polygon fill="white" stroke="black" points="91.5,-67.5 91.5,-86.5 225.5,-86.5 225.5,-67.5 91.5,-67.5"/>
<text text-anchor="middle" x="158.5" y="-74.5" font-family="Helvetica,sans-Serif" font-size="10.00">_USBInterfaceDescriptor</text>
</a>
</g>
</g>
<!-- Node17&#45;&gt;Node1 -->
<g id="edge2" class="edge"><title>Node17&#45;&gt;Node1</title>
<path fill="none" stroke="#9a32cd" stroke-dasharray="5,2" d="M143.142,-59.6348C131.212,-46.9228 115.141,-29.7978 105.596,-19.6273"/>
<polygon fill="#9a32cd" stroke="#9a32cd" points="140.878,-62.337 150.273,-67.2338 145.982,-57.5468 140.878,-62.337"/>
<text text-anchor="middle" x="140" y="-41" font-family="Helvetica,sans-Serif" font-size="10.00"> pIf</text>
</g>
</g>
</svg>
