<?xml version="1.0" encoding="UTF-8" standalone="no"?>
<!DOCTYPE svg PUBLIC "-//W3C//DTD SVG 1.1//EN"
 "http://www.w3.org/Graphics/SVG/1.1/DTD/svg11.dtd">
<!-- Generated by graphviz version 2.38.0 (20140413.2041)
 -->
<!-- Title: AfeDma Pages: 1 -->
<svg width="245pt" height="95pt"
 viewBox="0.00 0.00 245.00 95.00" xmlns="http://www.w3.org/2000/svg" xmlns:xlink="http://www.w3.org/1999/xlink">
<g id="graph0" class="graph" transform="scale(1 1) rotate(0) translate(4 91)">
<title>AfeDma</title>
<polygon fill="white" stroke="none" points="-4,4 -4,-91 241,-91 241,4 -4,4"/>
<!-- Node1 -->
<g id="node1" class="node"><title>Node1</title>
<polygon fill="#bfbfbf" stroke="black" points="56,-0.5 56,-19.5 112,-19.5 112,-0.5 56,-0.5"/>
<text text-anchor="middle" x="84" y="-7.5" font-family="Helvetica,sans-Serif" font-size="10.00">AfeDma</text>
</g>
<!-- Node2 -->
<g id="node2" class="node"><title>Node2</title>
<g id="a_node2"><a xlink:href="struct_afec.xhtml" target="_top" xlink:title="Afec hardware registers. ">
<polygon fill="white" stroke="black" points="0,-67.5 0,-86.5 38,-86.5 38,-67.5 0,-67.5"/>
<text text-anchor="middle" x="19" y="-74.5" font-family="Helvetica,sans-Serif" font-size="10.00">Afec</text>
</a>
</g>
</g>
<!-- Node2&#45;&gt;Node1 -->
<g id="edge1" class="edge"><title>Node2&#45;&gt;Node1</title>
<path fill="none" stroke="#9a32cd" stroke-dasharray="5,2" d="M26.4801,-58.1299C29.9179,-51.3068 34.4722,-43.7853 40,-38 47.1822,-30.4832 56.8897,-24.2348 65.3593,-19.6487"/>
<polygon fill="#9a32cd" stroke="#9a32cd" points="23.2424,-56.7938 22.2591,-67.343 29.6063,-59.7095 23.2424,-56.7938"/>
<text text-anchor="middle" x="60" y="-41" font-family="Helvetica,sans-Serif" font-size="10.00"> pAfeHw</text>
</g>
<!-- Node3 -->
<g id="node3" class="node"><title>Node3</title>
<g id="a_node3"><a xlink:href="struct___xdmad.xhtml" target="_top" xlink:title="DMA driver instance. ">
<polygon fill="white" stroke="red" points="56,-67.5 56,-86.5 112,-86.5 112,-67.5 56,-67.5"/>
<text text-anchor="middle" x="84" y="-74.5" font-family="Helvetica,sans-Serif" font-size="10.00">_Xdmad</text>
</a>
</g>
</g>
<!-- Node3&#45;&gt;Node1 -->
<g id="edge2" class="edge"><title>Node3&#45;&gt;Node1</title>
<path fill="none" stroke="#9a32cd" stroke-dasharray="5,2" d="M84,-57.037C84,-44.6703 84,-29.1198 84,-19.6273"/>
<polygon fill="#9a32cd" stroke="#9a32cd" points="80.5001,-57.2338 84,-67.2338 87.5001,-57.2338 80.5001,-57.2338"/>
<text text-anchor="middle" x="105.5" y="-41" font-family="Helvetica,sans-Serif" font-size="10.00"> pXdmad</text>
</g>
<!-- Node7 -->
<g id="node4" class="node"><title>Node7</title>
<g id="a_node4"><a xlink:href="struct_afe_cmd.xhtml" target="_top" xlink:title="Spi Transfer Request prepared by the application upper layer. ">
<polygon fill="white" stroke="black" points="130.5,-67.5 130.5,-86.5 185.5,-86.5 185.5,-67.5 130.5,-67.5"/>
<text text-anchor="middle" x="158" y="-74.5" font-family="Helvetica,sans-Serif" font-size="10.00">AfeCmd</text>
</a>
</g>
</g>
<!-- Node7&#45;&gt;Node1 -->
<g id="edge3" class="edge"><title>Node7&#45;&gt;Node1</title>
<path fill="none" stroke="#9a32cd" stroke-dasharray="5,2" d="M147.929,-58.5946C143.355,-51.6459 137.508,-43.9097 131,-38 122.779,-30.5353 112.151,-24.2156 103.082,-19.5713"/>
<polygon fill="#9a32cd" stroke="#9a32cd" points="145.092,-60.6627 153.321,-67.3365 151.05,-56.9878 145.092,-60.6627"/>
<text text-anchor="middle" x="189" y="-41" font-family="Helvetica,sans-Serif" font-size="10.00"> pCurrentCommand</text>
</g>
</g>
</svg>
