<?xml version="1.0" encoding="UTF-8" standalone="no"?>
<!DOCTYPE svg PUBLIC "-//W3C//DTD SVG 1.1//EN"
 "http://www.w3.org/Graphics/SVG/1.1/DTD/svg11.dtd">
<!-- Generated by graphviz version 2.38.0 (20140413.2041)
 -->
<!-- Title: _HIDDParseData Pages: 1 -->
<svg width="246pt" height="95pt"
 viewBox="0.00 0.00 246.00 95.00" xmlns="http://www.w3.org/2000/svg" xmlns:xlink="http://www.w3.org/1999/xlink">
<g id="graph0" class="graph" transform="scale(1 1) rotate(0) translate(4 91)">
<title>_HIDDParseData</title>
<polygon fill="white" stroke="none" points="-4,4 -4,-91 242,-91 242,4 -4,4"/>
<!-- Node1 -->
<g id="node1" class="node"><title>Node1</title>
<polygon fill="#bfbfbf" stroke="black" points="83,-0.5 83,-19.5 179,-19.5 179,-0.5 83,-0.5"/>
<text text-anchor="middle" x="131" y="-7.5" font-family="Helvetica,sans-Serif" font-size="10.00">_HIDDParseData</text>
</g>
<!-- Node2 -->
<g id="node2" class="node"><title>Node2</title>
<g id="a_node2"><a xlink:href="struct___u_s_b_interface_descriptor.xhtml" target="_top" xlink:title="_USBInterfaceDescriptor">
<polygon fill="white" stroke="black" points="0,-67.5 0,-86.5 134,-86.5 134,-67.5 0,-67.5"/>
<text text-anchor="middle" x="67" y="-74.5" font-family="Helvetica,sans-Serif" font-size="10.00">_USBInterfaceDescriptor</text>
</a>
</g>
</g>
<!-- Node2&#45;&gt;Node1 -->
<g id="edge1" class="edge"><title>Node2&#45;&gt;Node1</title>
<path fill="none" stroke="#9a32cd" stroke-dasharray="5,2" d="M82.757,-59.9968C95.3081,-47.2496 112.396,-29.8947 122.505,-19.6273"/>
<polygon fill="#9a32cd" stroke="#9a32cd" points="80.1534,-57.6525 75.6313,-67.2338 85.1414,-62.5637 80.1534,-57.6525"/>
<text text-anchor="middle" x="122.5" y="-41" font-family="Helvetica,sans-Serif" font-size="10.00"> pIfDesc</text>
</g>
<!-- Node3 -->
<g id="node3" class="node"><title>Node3</title>
<g id="a_node3"><a xlink:href="struct___h_i_d_d_function.xhtml" target="_top" xlink:title="Struct for an HID general function. ">
<polygon fill="white" stroke="red" points="152,-67.5 152,-86.5 238,-86.5 238,-67.5 152,-67.5"/>
<text text-anchor="middle" x="195" y="-74.5" font-family="Helvetica,sans-Serif" font-size="10.00">_HIDDFunction</text>
</a>
</g>
</g>
<!-- Node3&#45;&gt;Node1 -->
<g id="edge2" class="edge"><title>Node3&#45;&gt;Node1</title>
<path fill="none" stroke="#9a32cd" stroke-dasharray="5,2" d="M179.243,-59.9968C166.692,-47.2496 149.604,-29.8947 139.495,-19.6273"/>
<polygon fill="#9a32cd" stroke="#9a32cd" points="176.859,-62.5637 186.369,-67.2338 181.847,-57.6525 176.859,-62.5637"/>
<text text-anchor="middle" x="181.5" y="-41" font-family="Helvetica,sans-Serif" font-size="10.00"> pHidd</text>
</g>
</g>
</svg>
