<?xml version="1.0" encoding="UTF-8" standalone="no"?>
<!DOCTYPE svg PUBLIC "-//W3C//DTD SVG 1.1//EN"
 "http://www.w3.org/Graphics/SVG/1.1/DTD/svg11.dtd">
<!-- Generated by graphviz version 2.38.0 (20140413.2041)
 -->
<!-- Title: _UsbVideoStreamingInterfaceDescriptor Pages: 1 -->
<svg width="360pt" height="106pt"
 viewBox="0.00 0.00 360.00 106.00" xmlns="http://www.w3.org/2000/svg" xmlns:xlink="http://www.w3.org/1999/xlink">
<g id="graph0" class="graph" transform="scale(1 1) rotate(0) translate(4 102)">
<title>_UsbVideoStreamingInterfaceDescriptor</title>
<polygon fill="white" stroke="none" points="-4,4 -4,-102 356,-102 356,4 -4,4"/>
<!-- Node1 -->
<g id="node1" class="node"><title>Node1</title>
<polygon fill="#bfbfbf" stroke="black" points="88,-0.5 88,-30.5 248,-30.5 248,-0.5 88,-0.5"/>
<text text-anchor="start" x="96" y="-18.5" font-family="Helvetica,sans-Serif" font-size="10.00">_UsbVideoStreamingInterface</text>
<text text-anchor="middle" x="168" y="-7.5" font-family="Helvetica,sans-Serif" font-size="10.00">Descriptor</text>
</g>
<!-- Node2 -->
<g id="node2" class="node"><title>Node2</title>
<g id="a_node2"><a xlink:href="struct___usb_video_format_descriptor.xhtml" target="_top" xlink:title="USB Video Format with 1 frame, 1 compression, without STI. ">
<polygon fill="white" stroke="black" points="0,-78.5 0,-97.5 152,-97.5 152,-78.5 0,-78.5"/>
<text text-anchor="middle" x="76" y="-85.5" font-family="Helvetica,sans-Serif" font-size="10.00">_UsbVideoFormatDescriptor</text>
</a>
</g>
</g>
<!-- Node2&#45;&gt;Node1 -->
<g id="edge1" class="edge"><title>Node2&#45;&gt;Node1</title>
<path fill="none" stroke="#9a32cd" stroke-dasharray="5,2" d="M95.4098,-72.1262C111.404,-59.8698 133.929,-42.6084 149.631,-30.5762"/>
<polygon fill="#9a32cd" stroke="#9a32cd" points="93.0896,-69.4947 87.281,-78.3553 97.3474,-75.0509 93.0896,-69.4947"/>
<text text-anchor="middle" x="143" y="-52" font-family="Helvetica,sans-Serif" font-size="10.00"> format</text>
</g>
<!-- Node3 -->
<g id="node3" class="node"><title>Node3</title>
<g id="a_node3"><a xlink:href="struct___usb_video_input_header_descriptor1.xhtml" target="_top" xlink:title="Input header descriptor (with 1 format) ">
<polygon fill="white" stroke="black" points="170,-78.5 170,-97.5 352,-97.5 352,-78.5 170,-78.5"/>
<text text-anchor="middle" x="261" y="-85.5" font-family="Helvetica,sans-Serif" font-size="10.00">_UsbVideoInputHeaderDescriptor1</text>
</a>
</g>
</g>
<!-- Node3&#45;&gt;Node1 -->
<g id="edge2" class="edge"><title>Node3&#45;&gt;Node1</title>
<path fill="none" stroke="#9a32cd" stroke-dasharray="5,2" d="M241.379,-72.1262C225.211,-59.8698 202.441,-42.6084 186.569,-30.5762"/>
<polygon fill="#9a32cd" stroke="#9a32cd" points="239.513,-75.1034 249.596,-78.3553 243.742,-69.5251 239.513,-75.1034"/>
<text text-anchor="middle" x="245.5" y="-52" font-family="Helvetica,sans-Serif" font-size="10.00"> inHeader</text>
</g>
</g>
</svg>
