<?xml version="1.0" encoding="UTF-8" standalone="no"?>
<!DOCTYPE svg PUBLIC "-//W3C//DTD SVG 1.1//EN"
 "http://www.w3.org/Graphics/SVG/1.1/DTD/svg11.dtd">
<!-- Generated by graphviz version 2.38.0 (20140413.2041)
 -->
<!-- Title: _MSDCommandState Pages: 1 -->
<svg width="228pt" height="106pt"
 viewBox="0.00 0.00 227.50 106.00" xmlns="http://www.w3.org/2000/svg" xmlns:xlink="http://www.w3.org/1999/xlink">
<g id="graph0" class="graph" transform="scale(1 1) rotate(0) translate(4 102)">
<title>_MSDCommandState</title>
<polygon fill="white" stroke="none" points="-4,4 -4,-102 223.5,-102 223.5,4 -4,4"/>
<!-- Node1 -->
<g id="node1" class="node"><title>Node1</title>
<polygon fill="#bfbfbf" stroke="black" points="64.5,-0.5 64.5,-19.5 185.5,-19.5 185.5,-0.5 64.5,-0.5"/>
<text text-anchor="middle" x="125" y="-7.5" font-family="Helvetica,sans-Serif" font-size="10.00">_MSDCommandState</text>
</g>
<!-- Node2 -->
<g id="node2" class="node"><title>Node2</title>
<g id="a_node2"><a xlink:href="struct___m_s_d_transfer.xhtml" target="_top" xlink:title="_MSDTransfer">
<polygon fill="white" stroke="black" points="0,-78.5 0,-97.5 82,-97.5 82,-78.5 0,-78.5"/>
<text text-anchor="middle" x="41" y="-85.5" font-family="Helvetica,sans-Serif" font-size="10.00">_MSDTransfer</text>
</a>
</g>
</g>
<!-- Node2&#45;&gt;Node1 -->
<g id="edge1" class="edge"><title>Node2&#45;&gt;Node1</title>
<path fill="none" stroke="#9a32cd" stroke-dasharray="5,2" d="M46.0796,-68.7264C49.6816,-58.5951 55.4238,-46.3883 64,-38 72.445,-29.74 83.8443,-23.7759 94.503,-19.5894"/>
<polygon fill="#9a32cd" stroke="#9a32cd" points="42.7345,-67.6963 43.0715,-78.2858 49.4118,-69.7975 42.7345,-67.6963"/>
<text text-anchor="middle" x="92.5" y="-52" font-family="Helvetica,sans-Serif" font-size="10.00"> transfer</text>
<text text-anchor="middle" x="92.5" y="-41" font-family="Helvetica,sans-Serif" font-size="10.00">disktransfer</text>
</g>
<!-- Node3 -->
<g id="node3" class="node"><title>Node3</title>
<g id="a_node3"><a xlink:href="struct_m_s_csw.xhtml" target="_top" xlink:title="MSCsw">
<polygon fill="white" stroke="black" points="100,-78.5 100,-97.5 150,-97.5 150,-78.5 100,-78.5"/>
<text text-anchor="middle" x="125" y="-85.5" font-family="Helvetica,sans-Serif" font-size="10.00">MSCsw</text>
</a>
</g>
</g>
<!-- Node3&#45;&gt;Node1 -->
<g id="edge2" class="edge"><title>Node3&#45;&gt;Node1</title>
<path fill="none" stroke="#9a32cd" stroke-dasharray="5,2" d="M125,-68.2239C125,-52.6974 125,-31.3582 125,-19.6165"/>
<polygon fill="#9a32cd" stroke="#9a32cd" points="121.5,-68.2818 125,-78.2818 128.5,-68.2819 121.5,-68.2818"/>
<text text-anchor="middle" x="135.5" y="-46.5" font-family="Helvetica,sans-Serif" font-size="10.00"> csw</text>
</g>
<!-- Node4 -->
<g id="node4" class="node"><title>Node4</title>
<g id="a_node4"><a xlink:href="struct_m_s_cbw.xhtml" target="_top" xlink:title="MSCbw">
<polygon fill="white" stroke="black" points="168.5,-78.5 168.5,-97.5 219.5,-97.5 219.5,-78.5 168.5,-78.5"/>
<text text-anchor="middle" x="194" y="-85.5" font-family="Helvetica,sans-Serif" font-size="10.00">MSCbw</text>
</a>
</g>
</g>
<!-- Node4&#45;&gt;Node1 -->
<g id="edge3" class="edge"><title>Node4&#45;&gt;Node1</title>
<path fill="none" stroke="#9a32cd" stroke-dasharray="5,2" d="M179.474,-70.6978C170.928,-61.1387 159.891,-48.8469 150,-38 144.49,-31.9578 138.24,-25.2078 133.368,-19.9683"/>
<polygon fill="#9a32cd" stroke="#9a32cd" points="176.98,-73.1604 186.251,-78.2897 182.202,-68.4988 176.98,-73.1604"/>
<text text-anchor="middle" x="181" y="-46.5" font-family="Helvetica,sans-Serif" font-size="10.00"> cbw</text>
</g>
</g>
</svg>
