<?xml version="1.0" encoding="UTF-8" standalone="no"?>
<!DOCTYPE svg PUBLIC "-//W3C//DTD SVG 1.1//EN"
 "http://www.w3.org/Graphics/SVG/1.1/DTD/svg11.dtd">
<!-- Generated by graphviz version 2.38.0 (20140413.2041)
 -->
<!-- Title: _Qspid Pages: 1 -->
<svg width="136pt" height="95pt"
 viewBox="0.00 0.00 135.50 95.00" xmlns="http://www.w3.org/2000/svg" xmlns:xlink="http://www.w3.org/1999/xlink">
<g id="graph0" class="graph" transform="scale(1 1) rotate(0) translate(4 91)">
<title>_Qspid</title>
<polygon fill="white" stroke="none" points="-4,4 -4,-91 131.5,-91 131.5,4 -4,4"/>
<!-- Node1 -->
<g id="node1" class="node"><title>Node1</title>
<polygon fill="#bfbfbf" stroke="black" points="38,-0.5 38,-19.5 87,-19.5 87,-0.5 38,-0.5"/>
<text text-anchor="middle" x="62.5" y="-7.5" font-family="Helvetica,sans-Serif" font-size="10.00">_Qspid</text>
</g>
<!-- Node2 -->
<g id="node2" class="node"><title>Node2</title>
<g id="a_node2"><a xlink:href="struct_qspid__t.xhtml" target="_top" xlink:title="qspi driver structure ">
<polygon fill="white" stroke="red" points="0,-67.5 0,-86.5 53,-86.5 53,-67.5 0,-67.5"/>
<text text-anchor="middle" x="26.5" y="-74.5" font-family="Helvetica,sans-Serif" font-size="10.00">Qspid_t</text>
</a>
</g>
</g>
<!-- Node2&#45;&gt;Node1 -->
<g id="edge1" class="edge"><title>Node2&#45;&gt;Node1</title>
<path fill="none" stroke="#9a32cd" stroke-dasharray="5,2" d="M35.5703,-58.3177C38.9331,-51.8829 42.8237,-44.5766 46.5,-38 49.903,-31.9122 53.903,-25.1622 57.0523,-19.9341"/>
<polygon fill="#9a32cd" stroke="#9a32cd" points="32.3153,-56.9925 30.8271,-67.4823 38.532,-60.2101 32.3153,-56.9925"/>
<text text-anchor="middle" x="62" y="-41" font-family="Helvetica,sans-Serif" font-size="10.00"> Qspid</text>
</g>
<!-- Node9 -->
<g id="node3" class="node"><title>Node9</title>
<g id="a_node3"><a xlink:href="struct___xdmad.xhtml" target="_top" xlink:title="DMA driver instance. ">
<polygon fill="white" stroke="red" points="71.5,-67.5 71.5,-86.5 127.5,-86.5 127.5,-67.5 71.5,-67.5"/>
<text text-anchor="middle" x="99.5" y="-74.5" font-family="Helvetica,sans-Serif" font-size="10.00">_Xdmad</text>
</a>
</g>
</g>
<!-- Node9&#45;&gt;Node1 -->
<g id="edge2" class="edge"><title>Node9&#45;&gt;Node1</title>
<path fill="none" stroke="#9a32cd" stroke-dasharray="5,2" d="M89.5582,-58.5347C82.3945,-45.9499 73.0349,-29.5072 67.4109,-19.6273"/>
<polygon fill="#9a32cd" stroke="#9a32cd" points="86.5212,-60.2746 94.51,-67.2338 92.6047,-56.8117 86.5212,-60.2746"/>
<text text-anchor="middle" x="105" y="-41" font-family="Helvetica,sans-Serif" font-size="10.00"> pXdmad</text>
</g>
</g>
</svg>
