<?xml version="1.0" encoding="UTF-8" standalone="no"?>
<!DOCTYPE svg PUBLIC "-//W3C//DTD SVG 1.1//EN"
 "http://www.w3.org/Graphics/SVG/1.1/DTD/svg11.dtd">
<!-- Generated by graphviz version 2.38.0 (20140413.2041)
 -->
<!-- Title: _DualCdcDriverConfigurationDescriptors Pages: 1 -->
<svg width="545pt" height="437pt"
 viewBox="0.00 0.00 545.00 436.72" xmlns="http://www.w3.org/2000/svg" xmlns:xlink="http://www.w3.org/1999/xlink">
<g id="graph0" class="graph" transform="scale(1 1) rotate(0) translate(4 432.716)">
<title>_DualCdcDriverConfigurationDescriptors</title>
<polygon fill="white" stroke="none" points="-4,4 -4,-432.716 541,-432.716 541,4 -4,4"/>
<!-- Node1 -->
<g id="node1" class="node"><title>Node1</title>
<polygon fill="#bfbfbf" stroke="black" points="383,-175.716 383,-205.716 537,-205.716 537,-175.716 383,-175.716"/>
<text text-anchor="start" x="391" y="-193.716" font-family="Helvetica,sans-Serif" font-size="10.00">_DualCdcDriverConfiguration</text>
<text text-anchor="middle" x="460" y="-182.716" font-family="Helvetica,sans-Serif" font-size="10.00">Descriptors</text>
</g>
<!-- Node2 -->
<g id="node2" class="node"><title>Node2</title>
<g id="a_node2"><a xlink:href="struct___c_d_c_union_descriptor.xhtml" target="_top" xlink:title="_CDCUnionDescriptor">
<polygon fill="white" stroke="black" points="31,-383.216 31,-402.216 151,-402.216 151,-383.216 31,-383.216"/>
<text text-anchor="middle" x="91" y="-390.216" font-family="Helvetica,sans-Serif" font-size="10.00">_CDCUnionDescriptor</text>
</a>
</g>
</g>
<!-- Node2&#45;&gt;Node1 -->
<g id="edge1" class="edge"><title>Node2&#45;&gt;Node1</title>
<path fill="none" stroke="#9a32cd" stroke-dasharray="5,2" d="M152.151,-403.543C211.33,-410.828 301.76,-412.599 365,-370.716 424.52,-331.296 448.694,-241.613 456.198,-205.849"/>
<polygon fill="#9a32cd" stroke="#9a32cd" points="152.578,-400.069 142.206,-402.231 151.662,-407.009 152.578,-400.069"/>
<text text-anchor="middle" x="282.5" y="-420.716" font-family="Helvetica,sans-Serif" font-size="10.00"> cdcUnion0</text>
<text text-anchor="middle" x="282.5" y="-409.716" font-family="Helvetica,sans-Serif" font-size="10.00">cdcUnion1</text>
</g>
<!-- Node3 -->
<g id="node3" class="node"><title>Node3</title>
<g id="a_node3"><a xlink:href="struct___u_s_b_interface_association_descriptor.xhtml" target="_top" xlink:title="_USBInterfaceAssociation\lDescriptor">
<polygon fill="white" stroke="black" points="21,-332.716 21,-362.716 161,-362.716 161,-332.716 21,-332.716"/>
<text text-anchor="start" x="29" y="-350.716" font-family="Helvetica,sans-Serif" font-size="10.00">_USBInterfaceAssociation</text>
<text text-anchor="middle" x="91" y="-339.716" font-family="Helvetica,sans-Serif" font-size="10.00">Descriptor</text>
</a>
</g>
</g>
<!-- Node3&#45;&gt;Node1 -->
<g id="edge2" class="edge"><title>Node3&#45;&gt;Node1</title>
<path fill="none" stroke="#9a32cd" stroke-dasharray="5,2" d="M171.609,-348.713C240.231,-348.243 333.137,-344.023 365,-325.716 413.041,-298.115 442.252,-234.819 453.583,-205.779"/>
<polygon fill="#9a32cd" stroke="#9a32cd" points="171.229,-345.215 161.244,-348.758 171.259,-352.215 171.229,-345.215"/>
<text text-anchor="middle" x="282.5" y="-361.716" font-family="Helvetica,sans-Serif" font-size="10.00"> cdcIAD0</text>
<text text-anchor="middle" x="282.5" y="-350.716" font-family="Helvetica,sans-Serif" font-size="10.00">cdcIAD1</text>
</g>
<!-- Node4 -->
<g id="node4" class="node"><title>Node4</title>
<g id="a_node4"><a xlink:href="struct___u_s_b_endpoint_descriptor.xhtml" target="_top" xlink:title="_USBEndpointDescriptor">
<polygon fill="white" stroke="black" points="24,-249.216 24,-268.216 158,-268.216 158,-249.216 24,-249.216"/>
<text text-anchor="middle" x="91" y="-256.216" font-family="Helvetica,sans-Serif" font-size="10.00">_USBEndpointDescriptor</text>
</a>
</g>
</g>
<!-- Node4&#45;&gt;Node1 -->
<g id="edge3" class="edge"><title>Node4&#45;&gt;Node1</title>
<path fill="none" stroke="#9a32cd" stroke-dasharray="5,2" d="M168.269,-258.573C223.692,-256.828 300.054,-251.005 365,-233.716 388.758,-227.391 414.009,-215.521 432.35,-205.852"/>
<polygon fill="#9a32cd" stroke="#9a32cd" points="168.07,-255.077 158.171,-258.853 168.265,-262.074 168.07,-255.077"/>
<text text-anchor="middle" x="282.5" y="-315.716" font-family="Helvetica,sans-Serif" font-size="10.00"> cdcDataIn0</text>
<text text-anchor="middle" x="282.5" y="-304.716" font-family="Helvetica,sans-Serif" font-size="10.00">cdcDataIn1</text>
<text text-anchor="middle" x="282.5" y="-293.716" font-family="Helvetica,sans-Serif" font-size="10.00">cdcNotification0</text>
<text text-anchor="middle" x="282.5" y="-282.716" font-family="Helvetica,sans-Serif" font-size="10.00">cdcNotification1</text>
<text text-anchor="middle" x="282.5" y="-271.716" font-family="Helvetica,sans-Serif" font-size="10.00">cdcDataOut0</text>
<text text-anchor="middle" x="282.5" y="-260.716" font-family="Helvetica,sans-Serif" font-size="10.00">cdcDataOut1</text>
</g>
<!-- Node5 -->
<g id="node5" class="node"><title>Node5</title>
<g id="a_node5"><a xlink:href="struct___c_d_c_call_management_descriptor.xhtml" target="_top" xlink:title="_CDCCallManagementDescriptor">
<polygon fill="white" stroke="black" points="4.5,-204.216 4.5,-223.216 177.5,-223.216 177.5,-204.216 4.5,-204.216"/>
<text text-anchor="middle" x="91" y="-211.216" font-family="Helvetica,sans-Serif" font-size="10.00">_CDCCallManagementDescriptor</text>
</a>
</g>
</g>
<!-- Node5&#45;&gt;Node1 -->
<g id="edge4" class="edge"><title>Node5&#45;&gt;Node1</title>
<path fill="none" stroke="#9a32cd" stroke-dasharray="5,2" d="M187.587,-207.726C248.475,-203.91 326.273,-199.034 382.953,-195.482"/>
<polygon fill="#9a32cd" stroke="#9a32cd" points="187.343,-204.234 177.582,-208.353 187.781,-211.22 187.343,-204.234"/>
<text text-anchor="middle" x="282.5" y="-221.716" font-family="Helvetica,sans-Serif" font-size="10.00"> cdcCallManagement0</text>
<text text-anchor="middle" x="282.5" y="-210.716" font-family="Helvetica,sans-Serif" font-size="10.00">cdcCallManagement1</text>
</g>
<!-- Node6 -->
<g id="node6" class="node"><title>Node6</title>
<g id="a_node6"><a xlink:href="struct___c_d_c_header_descriptor.xhtml" target="_top" xlink:title="_CDCHeaderDescriptor">
<polygon fill="white" stroke="black" points="27,-161.216 27,-180.216 155,-180.216 155,-161.216 27,-161.216"/>
<text text-anchor="middle" x="91" y="-168.216" font-family="Helvetica,sans-Serif" font-size="10.00">_CDCHeaderDescriptor</text>
</a>
</g>
</g>
<!-- Node6&#45;&gt;Node1 -->
<g id="edge5" class="edge"><title>Node6&#45;&gt;Node1</title>
<path fill="none" stroke="#9a32cd" stroke-dasharray="5,2" d="M165.13,-165.963C220.242,-163.467 297.588,-162.278 365,-169.716 376.801,-171.018 389.286,-173.213 401.169,-175.706"/>
<polygon fill="#9a32cd" stroke="#9a32cd" points="164.926,-162.469 155.105,-166.443 165.261,-169.461 164.926,-162.469"/>
<text text-anchor="middle" x="282.5" y="-183.716" font-family="Helvetica,sans-Serif" font-size="10.00"> cdcHeader0</text>
<text text-anchor="middle" x="282.5" y="-172.716" font-family="Helvetica,sans-Serif" font-size="10.00">cdcHeader1</text>
</g>
<!-- Node7 -->
<g id="node7" class="node"><title>Node7</title>
<g id="a_node7"><a xlink:href="struct___u_s_b_configuration_descriptor.xhtml" target="_top" xlink:title="_USBConfigurationDescriptor">
<polygon fill="white" stroke="black" points="13,-123.216 13,-142.216 169,-142.216 169,-123.216 13,-123.216"/>
<text text-anchor="middle" x="91" y="-130.216" font-family="Helvetica,sans-Serif" font-size="10.00">_USBConfigurationDescriptor</text>
</a>
</g>
</g>
<!-- Node7&#45;&gt;Node1 -->
<g id="edge6" class="edge"><title>Node7&#45;&gt;Node1</title>
<path fill="none" stroke="#9a32cd" stroke-dasharray="5,2" d="M179.512,-130.473C233.645,-130.969 304.176,-135.041 365,-149.716 388.365,-155.353 413.228,-166.447 431.511,-175.674"/>
<polygon fill="#9a32cd" stroke="#9a32cd" points="179.274,-126.971 169.256,-130.419 179.238,-133.971 179.274,-126.971"/>
<text text-anchor="middle" x="282.5" y="-152.716" font-family="Helvetica,sans-Serif" font-size="10.00"> configuration</text>
</g>
<!-- Node8 -->
<g id="node8" class="node"><title>Node8</title>
<g id="a_node8"><a xlink:href="struct___u_s_b_interface_descriptor.xhtml" target="_top" xlink:title="_USBInterfaceDescriptor">
<polygon fill="white" stroke="black" points="24,-58.216 24,-77.216 158,-77.216 158,-58.216 24,-58.216"/>
<text text-anchor="middle" x="91" y="-65.216" font-family="Helvetica,sans-Serif" font-size="10.00">_USBInterfaceDescriptor</text>
</a>
</g>
</g>
<!-- Node8&#45;&gt;Node1 -->
<g id="edge7" class="edge"><title>Node8&#45;&gt;Node1</title>
<path fill="none" stroke="#9a32cd" stroke-dasharray="5,2" d="M164.583,-57.2612C221.918,-52.3649 302.418,-53.1556 365,-83.716 406.327,-103.897 437.223,-151.237 451.029,-175.617"/>
<polygon fill="#9a32cd" stroke="#9a32cd" points="164.147,-53.7866 154.515,-58.1995 164.797,-60.7564 164.147,-53.7866"/>
<text text-anchor="middle" x="282.5" y="-119.716" font-family="Helvetica,sans-Serif" font-size="10.00"> cdcData0</text>
<text text-anchor="middle" x="282.5" y="-108.716" font-family="Helvetica,sans-Serif" font-size="10.00">cdcData1</text>
<text text-anchor="middle" x="282.5" y="-97.716" font-family="Helvetica,sans-Serif" font-size="10.00">cdcCommunication0</text>
<text text-anchor="middle" x="282.5" y="-86.716" font-family="Helvetica,sans-Serif" font-size="10.00">cdcCommunication1</text>
</g>
<!-- Node9 -->
<g id="node9" class="node"><title>Node9</title>
<g id="a_node9"><a xlink:href="struct___c_d_c_abstract_control_management_descriptor.xhtml" target="_top" xlink:title="_CDCAbstractControlManagement\lDescriptor">
<polygon fill="white" stroke="black" points="0,-7.716 0,-37.716 182,-37.716 182,-7.716 0,-7.716"/>
<text text-anchor="start" x="8" y="-25.716" font-family="Helvetica,sans-Serif" font-size="10.00">_CDCAbstractControlManagement</text>
<text text-anchor="middle" x="91" y="-14.716" font-family="Helvetica,sans-Serif" font-size="10.00">Descriptor</text>
</a>
</g>
</g>
<!-- Node9&#45;&gt;Node1 -->
<g id="edge8" class="edge"><title>Node9&#45;&gt;Node1</title>
<path fill="none" stroke="#9a32cd" stroke-dasharray="5,2" d="M166.349,-6.05107C224.497,2.82041 305.23,5.62527 365,-29.716 420.722,-62.6633 446.751,-142.397 455.473,-175.704"/>
<polygon fill="#9a32cd" stroke="#9a32cd" points="165.44,-2.65265 156.129,-7.70771 166.56,-9.56246 165.44,-2.65265"/>
<text text-anchor="middle" x="282.5" y="-43.716" font-family="Helvetica,sans-Serif" font-size="10.00"> cdcAbstractControlManagement0</text>
<text text-anchor="middle" x="282.5" y="-32.716" font-family="Helvetica,sans-Serif" font-size="10.00">cdcAbstractControlManagement1</text>
</g>
</g>
</svg>
