<?xml version="1.0" encoding="UTF-8" standalone="no"?>
<!DOCTYPE svg PUBLIC "-//W3C//DTD SVG 1.1//EN"
 "http://www.w3.org/Graphics/SVG/1.1/DTD/svg11.dtd">
<!-- Generated by graphviz version 2.38.0 (20140413.2041)
 -->
<!-- Title: src/Radar/task_radar.c Pages: 1 -->
<svg width="1404pt" height="140pt"
 viewBox="0.00 0.00 1403.50 140.00" xmlns="http://www.w3.org/2000/svg" xmlns:xlink="http://www.w3.org/1999/xlink">
<g id="graph0" class="graph" transform="scale(1 1) rotate(0) translate(4 136)">
<title>src/Radar/task_radar.c</title>
<polygon fill="white" stroke="none" points="-4,4 -4,-136 1399.5,-136 1399.5,4 -4,4"/>
<!-- Node0 -->
<g id="node1" class="node"><title>Node0</title>
<polygon fill="#bfbfbf" stroke="black" points="534.5,-112.5 534.5,-131.5 657.5,-131.5 657.5,-112.5 534.5,-112.5"/>
<text text-anchor="middle" x="596" y="-119.5" font-family="Helvetica,sans-Serif" font-size="10.00">src/Radar/task_radar.c</text>
</g>
<!-- Node1 -->
<g id="node2" class="node"><title>Node1</title>
<g id="a_node2"><a xlink:href="task__radar_8h.xhtml" target="_top" xlink:title="Radar event task. ">
<polygon fill="white" stroke="red" points="0,-56.5 0,-75.5 76,-75.5 76,-56.5 0,-56.5"/>
<text text-anchor="middle" x="38" y="-63.5" font-family="Helvetica,sans-Serif" font-size="10.00">task_radar.h</text>
</a>
</g>
</g>
<!-- Node0&#45;&gt;Node1 -->
<g id="edge1" class="edge"><title>Node0&#45;&gt;Node1</title>
<path fill="none" stroke="midnightblue" d="M534.287,-117.163C438.798,-110.854 249.595,-96.8714 90,-76 88.7225,-75.8329 87.4284,-75.6571 86.1234,-75.4738"/>
<polygon fill="midnightblue" stroke="midnightblue" points="86.4097,-71.9776 76.0002,-73.9502 85.3679,-78.8996 86.4097,-71.9776"/>
</g>
<!-- Node7 -->
<g id="node3" class="node"><title>Node7</title>
<g id="a_node3"><a xlink:href="x4driver_8h.xhtml" target="_top" xlink:title="Platform independent driver to interface with x4 radar. ">
<polygon fill="white" stroke="red" points="39.5,-0.5 39.5,-19.5 102.5,-19.5 102.5,-0.5 39.5,-0.5"/>
<text text-anchor="middle" x="71" y="-7.5" font-family="Helvetica,sans-Serif" font-size="10.00">x4driver.h</text>
</a>
</g>
</g>
<!-- Node0&#45;&gt;Node7 -->
<g id="edge8" class="edge"><title>Node0&#45;&gt;Node7</title>
<path fill="none" stroke="midnightblue" d="M534.285,-121.021C422.693,-120.103 192.486,-113.551 123,-76 103.393,-65.4041 88.5381,-43.9856 79.8252,-28.6293"/>
<polygon fill="midnightblue" stroke="midnightblue" points="82.7956,-26.7612 74.9984,-19.588 76.6205,-30.058 82.7956,-26.7612"/>
</g>
<!-- Node8 -->
<g id="node4" class="node"><title>Node8</title>
<polygon fill="white" stroke="#bfbfbf" points="132.5,-56.5 132.5,-75.5 203.5,-75.5 203.5,-56.5 132.5,-56.5"/>
<text text-anchor="middle" x="168" y="-63.5" font-family="Helvetica,sans-Serif" font-size="10.00">FreeRTOS.h</text>
</g>
<!-- Node0&#45;&gt;Node8 -->
<g id="edge3" class="edge"><title>Node0&#45;&gt;Node8</title>
<path fill="none" stroke="midnightblue" d="M534.433,-115.306C460.661,-108.139 333.122,-94.6572 213.853,-76.0172"/>
<polygon fill="midnightblue" stroke="midnightblue" points="214.238,-72.5348 203.815,-74.433 213.147,-79.4493 214.238,-72.5348"/>
</g>
<!-- Node9 -->
<g id="node5" class="node"><title>Node9</title>
<polygon fill="white" stroke="#bfbfbf" points="222,-56.5 222,-75.5 284,-75.5 284,-56.5 222,-56.5"/>
<text text-anchor="middle" x="253" y="-63.5" font-family="Helvetica,sans-Serif" font-size="10.00">semphr.h</text>
</g>
<!-- Node0&#45;&gt;Node9 -->
<g id="edge4" class="edge"><title>Node0&#45;&gt;Node9</title>
<path fill="none" stroke="midnightblue" d="M534.264,-113.191C475.096,-105.399 383.071,-92.4782 294.358,-76.1457"/>
<polygon fill="midnightblue" stroke="midnightblue" points="294.869,-72.6807 284.398,-74.2946 293.59,-79.5629 294.869,-72.6807"/>
</g>
<!-- Node10 -->
<g id="node6" class="node"><title>Node10</title>
<polygon fill="white" stroke="#bfbfbf" points="302,-56.5 302,-75.5 348,-75.5 348,-56.5 302,-56.5"/>
<text text-anchor="middle" x="325" y="-63.5" font-family="Helvetica,sans-Serif" font-size="10.00">task.h</text>
</g>
<!-- Node0&#45;&gt;Node10 -->
<g id="edge5" class="edge"><title>Node0&#45;&gt;Node10</title>
<path fill="none" stroke="midnightblue" d="M543.504,-112.485C497.077,-104.645 427.331,-92.1174 357.814,-76.0267"/>
<polygon fill="midnightblue" stroke="midnightblue" points="358.544,-72.6029 348.009,-73.7327 356.949,-79.4189 358.544,-72.6029"/>
</g>
<!-- Node11 -->
<g id="node7" class="node"><title>Node11</title>
<polygon fill="white" stroke="#bfbfbf" points="366,-56.5 366,-75.5 422,-75.5 422,-56.5 366,-56.5"/>
<text text-anchor="middle" x="394" y="-63.5" font-family="Helvetica,sans-Serif" font-size="10.00">queue.h</text>
</g>
<!-- Node0&#45;&gt;Node11 -->
<g id="edge6" class="edge"><title>Node0&#45;&gt;Node11</title>
<path fill="none" stroke="midnightblue" d="M563.992,-112.444C528.148,-102.861 470.096,-87.3424 431.982,-77.1537"/>
<polygon fill="midnightblue" stroke="midnightblue" points="432.837,-73.7594 422.272,-74.558 431.029,-80.5219 432.837,-73.7594"/>
</g>
<!-- Node12 -->
<g id="node8" class="node"><title>Node12</title>
<polygon fill="white" stroke="#bfbfbf" points="440,-56.5 440,-75.5 496,-75.5 496,-56.5 440,-56.5"/>
<text text-anchor="middle" x="468" y="-63.5" font-family="Helvetica,sans-Serif" font-size="10.00">timers.h</text>
</g>
<!-- Node0&#45;&gt;Node12 -->
<g id="edge7" class="edge"><title>Node0&#45;&gt;Node12</title>
<path fill="none" stroke="midnightblue" d="M575.718,-112.444C554.653,-103.557 521.483,-89.5632 497.514,-79.4514"/>
<polygon fill="midnightblue" stroke="midnightblue" points="498.761,-76.1787 488.187,-75.5164 496.04,-82.6283 498.761,-76.1787"/>
</g>
<!-- Node13 -->
<g id="node9" class="node"><title>Node13</title>
<g id="a_node9"><a xlink:href="xtcompiler_8h.xhtml" target="_top" xlink:title="xtcompiler.h">
<polygon fill="white" stroke="black" points="513.5,-56.5 513.5,-75.5 588.5,-75.5 588.5,-56.5 513.5,-56.5"/>
<text text-anchor="middle" x="551" y="-63.5" font-family="Helvetica,sans-Serif" font-size="10.00">xtcompiler.h</text>
</a>
</g>
</g>
<!-- Node0&#45;&gt;Node13 -->
<g id="edge9" class="edge"><title>Node0&#45;&gt;Node13</title>
<path fill="none" stroke="midnightblue" d="M588.569,-112.083C582.147,-104.377 572.694,-93.0333 564.878,-83.6531"/>
<polygon fill="midnightblue" stroke="midnightblue" points="567.383,-81.1927 558.293,-75.7511 562.006,-85.674 567.383,-81.1927"/>
</g>
<!-- Node14 -->
<g id="node10" class="node"><title>Node14</title>
<g id="a_node10"><a xlink:href="radar__hal_8h.xhtml" target="_top" xlink:title="Local header file for Radar HAL. ">
<polygon fill="white" stroke="red" points="606.5,-56.5 606.5,-75.5 677.5,-75.5 677.5,-56.5 606.5,-56.5"/>
<text text-anchor="middle" x="642" y="-63.5" font-family="Helvetica,sans-Serif" font-size="10.00">radar_hal.h</text>
</a>
</g>
</g>
<!-- Node0&#45;&gt;Node14 -->
<g id="edge10" class="edge"><title>Node0&#45;&gt;Node14</title>
<path fill="none" stroke="midnightblue" d="M603.596,-112.083C610.227,-104.298 620.021,-92.8015 628.058,-83.3665"/>
<polygon fill="midnightblue" stroke="midnightblue" points="630.725,-85.6332 634.545,-75.7511 625.396,-81.0939 630.725,-85.6332"/>
</g>
<!-- Node15 -->
<g id="node11" class="node"><title>Node15</title>
<g id="a_node11"><a xlink:href="xep__hal_8h.xhtml" target="_top" xlink:title="Brief description. ">
<polygon fill="white" stroke="red" points="643,-0.5 643,-19.5 705,-19.5 705,-0.5 643,-0.5"/>
<text text-anchor="middle" x="674" y="-7.5" font-family="Helvetica,sans-Serif" font-size="10.00">xep_hal.h</text>
</a>
</g>
</g>
<!-- Node0&#45;&gt;Node15 -->
<g id="edge16" class="edge"><title>Node0&#45;&gt;Node15</title>
<path fill="none" stroke="midnightblue" d="M633.968,-112.411C653.408,-105.883 675.376,-94.7151 687,-76 695.892,-61.6826 690.356,-42.4736 683.989,-28.6555"/>
<polygon fill="midnightblue" stroke="midnightblue" points="687.073,-26.9999 679.401,-19.6936 680.843,-30.1899 687.073,-26.9999"/>
</g>
<!-- Node18 -->
<g id="node12" class="node"><title>Node18</title>
<g id="a_node12"><a xlink:href="xep__dispatch__messages_8h.xhtml" target="_top" xlink:title="xep_dispatch_messages.h">
<polygon fill="white" stroke="red" points="734.5,-56.5 734.5,-75.5 877.5,-75.5 877.5,-56.5 734.5,-56.5"/>
<text text-anchor="middle" x="806" y="-63.5" font-family="Helvetica,sans-Serif" font-size="10.00">xep_dispatch_messages.h</text>
</a>
</g>
</g>
<!-- Node0&#45;&gt;Node18 -->
<g id="edge12" class="edge"><title>Node0&#45;&gt;Node18</title>
<path fill="none" stroke="midnightblue" d="M629.275,-112.444C665.448,-103.142 723.377,-88.246 762.981,-78.062"/>
<polygon fill="midnightblue" stroke="midnightblue" points="764.067,-81.3966 772.881,-75.5164 762.324,-74.6172 764.067,-81.3966"/>
</g>
<!-- Node19 -->
<g id="node13" class="node"><title>Node19</title>
<g id="a_node13"><a xlink:href="arm__math_8h.xhtml" target="_top" xlink:title="arm_math.h">
<polygon fill="white" stroke="red" points="896,-56.5 896,-75.5 972,-75.5 972,-56.5 896,-56.5"/>
<text text-anchor="middle" x="934" y="-63.5" font-family="Helvetica,sans-Serif" font-size="10.00">arm_math.h</text>
</a>
</g>
</g>
<!-- Node0&#45;&gt;Node19 -->
<g id="edge13" class="edge"><title>Node0&#45;&gt;Node19</title>
<path fill="none" stroke="midnightblue" d="M655.179,-112.482C711.864,-104.18 800.062,-90.8886 885.89,-76.1441"/>
<polygon fill="midnightblue" stroke="midnightblue" points="886.543,-79.5833 895.801,-74.433 885.352,-72.6854 886.543,-79.5833"/>
</g>
<!-- Node22 -->
<g id="node14" class="node"><title>Node22</title>
<g id="a_node14"><a xlink:href="xtmemory_8h.xhtml" target="_top" xlink:title="Platform independent mutex mechanism. ">
<polygon fill="white" stroke="red" points="990,-56.5 990,-75.5 1064,-75.5 1064,-56.5 990,-56.5"/>
<text text-anchor="middle" x="1027" y="-63.5" font-family="Helvetica,sans-Serif" font-size="10.00">xtmemory.h</text>
</a>
</g>
</g>
<!-- Node0&#45;&gt;Node22 -->
<g id="edge14" class="edge"><title>Node0&#45;&gt;Node22</title>
<path fill="none" stroke="midnightblue" d="M657.543,-115.279C731.634,-108.062 860.038,-94.5077 979.807,-76.0811"/>
<polygon fill="midnightblue" stroke="midnightblue" points="980.542,-79.509 989.886,-74.5155 979.467,-72.5919 980.542,-79.509"/>
</g>
<!-- Node23 -->
<g id="node15" class="node"><title>Node23</title>
<g id="a_node15"><a xlink:href="task__monitor_8h.xhtml" target="_top" xlink:title="System monitor task. ">
<polygon fill="white" stroke="red" points="1082,-56.5 1082,-75.5 1170,-75.5 1170,-56.5 1082,-56.5"/>
<text text-anchor="middle" x="1126" y="-63.5" font-family="Helvetica,sans-Serif" font-size="10.00">task_monitor.h</text>
</a>
</g>
</g>
<!-- Node0&#45;&gt;Node23 -->
<g id="edge15" class="edge"><title>Node0&#45;&gt;Node23</title>
<path fill="none" stroke="midnightblue" d="M657.532,-116.661C746.6,-110.056 916.84,-96.2162 1071.62,-76.0938"/>
<polygon fill="midnightblue" stroke="midnightblue" points="1072.33,-79.5305 1081.79,-74.7593 1071.42,-72.59 1072.33,-79.5305"/>
</g>
<!-- Node24 -->
<g id="node16" class="node"><title>Node24</title>
<polygon fill="white" stroke="#bfbfbf" points="1188,-56.5 1188,-75.5 1302,-75.5 1302,-56.5 1188,-56.5"/>
<text text-anchor="middle" x="1245" y="-63.5" font-family="Helvetica,sans-Serif" font-size="10.00">xtserial_definitions.h</text>
</g>
<!-- Node0&#45;&gt;Node24 -->
<g id="edge17" class="edge"><title>Node0&#45;&gt;Node24</title>
<path fill="none" stroke="midnightblue" d="M657.806,-117.421C762.545,-111.095 981.819,-96.721 1177.6,-76.0918"/>
<polygon fill="midnightblue" stroke="midnightblue" points="1178.21,-79.5463 1187.79,-75.0101 1177.47,-72.5854 1178.21,-79.5463"/>
</g>
<!-- Node25 -->
<g id="node17" class="node"><title>Node25</title>
<g id="a_node17"><a xlink:href="xt__system_8h.xhtml" target="_top" xlink:title="xt_system.h">
<polygon fill="white" stroke="black" points="1320.5,-56.5 1320.5,-75.5 1395.5,-75.5 1395.5,-56.5 1320.5,-56.5"/>
<text text-anchor="middle" x="1358" y="-63.5" font-family="Helvetica,sans-Serif" font-size="10.00">xt_system.h</text>
</a>
</g>
</g>
<!-- Node0&#45;&gt;Node25 -->
<g id="edge18" class="edge"><title>Node0&#45;&gt;Node25</title>
<path fill="none" stroke="midnightblue" d="M657.935,-119.733C780.52,-116.654 1062.84,-106.723 1310.1,-75.9344"/>
<polygon fill="midnightblue" stroke="midnightblue" points="1310.87,-79.3643 1320.36,-74.6421 1310,-72.4192 1310.87,-79.3643"/>
</g>
<!-- Node1&#45;&gt;Node7 -->
<g id="edge2" class="edge"><title>Node1&#45;&gt;Node7</title>
<path fill="none" stroke="midnightblue" d="M43.4493,-56.083C48.0145,-48.6127 54.6684,-37.7244 60.2934,-28.5199"/>
<polygon fill="midnightblue" stroke="midnightblue" points="63.4241,-30.109 65.6521,-19.7511 57.4511,-26.4588 63.4241,-30.109"/>
</g>
<!-- Node14&#45;&gt;Node15 -->
<g id="edge11" class="edge"><title>Node14&#45;&gt;Node15</title>
<path fill="none" stroke="midnightblue" d="M647.284,-56.083C651.711,-48.6127 658.163,-37.7244 663.618,-28.5199"/>
<polygon fill="midnightblue" stroke="midnightblue" points="666.727,-30.1383 668.814,-19.7511 660.705,-26.5697 666.727,-30.1383"/>
</g>
</g>
</svg>
