<?xml version="1.0" encoding="UTF-8" standalone="no"?>
<!DOCTYPE svg PUBLIC "-//W3C//DTD SVG 1.1//EN"
 "http://www.w3.org/Graphics/SVG/1.1/DTD/svg11.dtd">
<!-- Generated by graphviz version 2.38.0 (20140413.2041)
 -->
<!-- Title: x4driver_callback_pin_set_enable Pages: 1 -->
<svg width="301pt" height="66pt"
 viewBox="0.00 0.00 301.00 66.00" xmlns="http://www.w3.org/2000/svg" xmlns:xlink="http://www.w3.org/1999/xlink">
<g id="graph0" class="graph" transform="scale(1 1) rotate(0) translate(4 62)">
<title>x4driver_callback_pin_set_enable</title>
<polygon fill="white" stroke="none" points="-4,4 -4,-62 297,-62 297,4 -4,4"/>
<!-- Node548 -->
<g id="node1" class="node"><title>Node548</title>
<polygon fill="#bfbfbf" stroke="black" points="0,-14 0,-44 118,-44 118,-14 0,-14"/>
<text text-anchor="start" x="8" y="-32" font-family="Helvetica,sans-Serif" font-size="10.00">x4driver_callback_pin</text>
<text text-anchor="middle" x="59" y="-21" font-family="Helvetica,sans-Serif" font-size="10.00">_set_enable</text>
</g>
<!-- Node549 -->
<g id="node2" class="node"><title>Node549</title>
<g id="a_node2"><a xlink:href="task__radar_8c.xhtml#a4fee3ee4025e6d4e8dc667598f8bc27f" target="_top" xlink:title="x4driver_enable_ISR">
<polygon fill="white" stroke="red" points="167,-38.5 167,-57.5 280,-57.5 280,-38.5 167,-38.5"/>
<text text-anchor="middle" x="223.5" y="-45.5" font-family="Helvetica,sans-Serif" font-size="10.00">x4driver_enable_ISR</text>
</a>
</g>
</g>
<!-- Node548&#45;&gt;Node549 -->
<g id="edge1" class="edge"><title>Node548&#45;&gt;Node549</title>
<path fill="none" stroke="midnightblue" d="M118.207,-35.8058C130.711,-37.2677 144.008,-38.8225 156.774,-40.3151"/>
<polygon fill="midnightblue" stroke="midnightblue" points="156.534,-43.8109 166.873,-41.496 157.347,-36.8582 156.534,-43.8109"/>
</g>
<!-- Node576 -->
<g id="node3" class="node"><title>Node576</title>
<g id="a_node3"><a xlink:href="radar__hal_8c.xhtml#a8da7b99f6f9103ecd9ccfd1deab1378b" target="_top" xlink:title="Set Radar IC enable pin to specified level. ">
<polygon fill="white" stroke="red" points="154,-0.5 154,-19.5 293,-19.5 293,-0.5 154,-0.5"/>
<text text-anchor="middle" x="223.5" y="-7.5" font-family="Helvetica,sans-Serif" font-size="10.00">radar_hal_pin_set_enable</text>
</a>
</g>
</g>
<!-- Node548&#45;&gt;Node576 -->
<g id="edge2" class="edge"><title>Node548&#45;&gt;Node576</title>
<path fill="none" stroke="midnightblue" d="M118.207,-22.1942C126.52,-21.2223 135.184,-20.2093 143.809,-19.2008"/>
<polygon fill="midnightblue" stroke="midnightblue" points="144.368,-22.6594 153.894,-18.0217 143.555,-15.7068 144.368,-22.6594"/>
</g>
</g>
</svg>
