<?xml version="1.0" encoding="UTF-8" standalone="no"?>
<!DOCTYPE svg PUBLIC "-//W3C//DTD SVG 1.1//EN"
 "http://www.w3.org/Graphics/SVG/1.1/DTD/svg11.dtd">
<!-- Generated by graphviz version 2.38.0 (20140413.2041)
 -->
<!-- Title: task_radar Pages: 1 -->
<svg width="431pt" height="771pt"
 viewBox="0.00 0.00 431.00 770.50" xmlns="http://www.w3.org/2000/svg" xmlns:xlink="http://www.w3.org/1999/xlink">
<g id="graph0" class="graph" transform="scale(1 1) rotate(0) translate(4 766.5)">
<title>task_radar</title>
<polygon fill="white" stroke="none" points="-4,4 -4,-766.5 427,-766.5 427,4 -4,4"/>
<!-- Node174 -->
<g id="node1" class="node"><title>Node174</title>
<polygon fill="#bfbfbf" stroke="black" points="0,-378 0,-397 68,-397 68,-378 0,-378"/>
<text text-anchor="middle" x="34" y="-385" font-family="Helvetica,sans-Serif" font-size="10.00">task_radar</text>
</g>
<!-- Node175 -->
<g id="node2" class="node"><title>Node175</title>
<g id="a_node2"><a xlink:href="xtmemory_8h.xhtml#a7e516b79f5a147905446ff71d1fc98fb" target="_top" xlink:title="Free memory allocated by xtmemory_malloc_default. ">
<polygon fill="white" stroke="red" points="120,-743 120,-762 248,-762 248,-743 120,-743"/>
<text text-anchor="middle" x="184" y="-750" font-family="Helvetica,sans-Serif" font-size="10.00">xtmemory_free_default</text>
</a>
</g>
</g>
<!-- Node174&#45;&gt;Node175 -->
<g id="edge1" class="edge"><title>Node174&#45;&gt;Node175</title>
<path fill="none" stroke="midnightblue" d="M35.5588,-397.206C38.6811,-448.038 55.6012,-683.167 104,-733.5 106.108,-735.693 108.422,-737.65 110.891,-739.398"/>
<polygon fill="midnightblue" stroke="midnightblue" points="109.407,-742.583 119.815,-744.562 112.913,-736.524 109.407,-742.583"/>
</g>
<!-- Node178 -->
<g id="node3" class="node"><title>Node178</title>
<g id="a_node3"><a xlink:href="task__monitor_8c.xhtml#ad3bca8672de4a4773999e28299cdc195" target="_top" xlink:title="Register task to monitor. ">
<polygon fill="white" stroke="red" points="123,-705 123,-724 245,-724 245,-705 123,-705"/>
<text text-anchor="middle" x="184" y="-712" font-family="Helvetica,sans-Serif" font-size="10.00">monitor_task_register</text>
</a>
</g>
</g>
<!-- Node174&#45;&gt;Node178 -->
<g id="edge2" class="edge"><title>Node174&#45;&gt;Node178</title>
<path fill="none" stroke="midnightblue" d="M35.8032,-397.065C39.9521,-444.202 60.4626,-651.276 104,-695.5 106.868,-698.414 110.1,-700.911 113.576,-703.049"/>
<polygon fill="midnightblue" stroke="midnightblue" points="112.149,-706.25 122.651,-707.656 115.318,-700.009 112.149,-706.25"/>
</g>
<!-- Node188 -->
<g id="node4" class="node"><title>Node188</title>
<g id="a_node4"><a xlink:href="x4driver_8h.xhtml#a56631da6259f3784165d78d00e5b0f80" target="_top" xlink:title="Set enable for X4. ">
<polygon fill="white" stroke="red" points="127.5,-667 127.5,-686 240.5,-686 240.5,-667 127.5,-667"/>
<text text-anchor="middle" x="184" y="-674" font-family="Helvetica,sans-Serif" font-size="10.00">x4driver_set_enable</text>
</a>
</g>
</g>
<!-- Node174&#45;&gt;Node188 -->
<g id="edge3" class="edge"><title>Node174&#45;&gt;Node188</title>
<path fill="none" stroke="midnightblue" d="M36.1204,-397.026C41.4186,-440.474 65.3271,-619.371 104,-657.5 108.018,-661.462 112.709,-664.649 117.765,-667.207"/>
<polygon fill="midnightblue" stroke="midnightblue" points="116.617,-670.521 127.193,-671.165 119.327,-664.067 116.617,-670.521"/>
</g>
<!-- Node191 -->
<g id="node5" class="node"><title>Node191</title>
<g id="a_node5"><a xlink:href="xep__hal_8h.xhtml#a7d0980e5e1fb4f42a5d10102c91609f4" target="_top" xlink:title="Delays the execution for the specified number of microseconds. ">
<polygon fill="white" stroke="red" points="147.5,-629 147.5,-648 220.5,-648 220.5,-629 147.5,-629"/>
<text text-anchor="middle" x="184" y="-636" font-family="Helvetica,sans-Serif" font-size="10.00">xt_delay_us</text>
</a>
</g>
</g>
<!-- Node174&#45;&gt;Node191 -->
<g id="edge4" class="edge"><title>Node174&#45;&gt;Node191</title>
<path fill="none" stroke="midnightblue" d="M34.9154,-397.3C35.1634,-432.14 40.7921,-551.302 104,-614.5 113.038,-623.537 125.364,-629.19 137.591,-632.721"/>
<polygon fill="midnightblue" stroke="midnightblue" points="136.763,-636.121 147.311,-635.121 138.441,-629.325 136.763,-636.121"/>
</g>
<!-- Node194 -->
<g id="node6" class="node"><title>Node194</title>
<g id="a_node6"><a xlink:href="xep__hal_8h.xhtml#ab0d28c0bbd203c3d66b4e46cf4e7fb5f" target="_top" xlink:title="Gets default radar configuration. ">
<polygon fill="white" stroke="black" points="303.5,-576.5 303.5,-606.5 419.5,-606.5 419.5,-576.5 303.5,-576.5"/>
<text text-anchor="start" x="311.5" y="-594.5" font-family="Helvetica,sans-Serif" font-size="10.00">xt_get_default_radar</text>
<text text-anchor="middle" x="361.5" y="-583.5" font-family="Helvetica,sans-Serif" font-size="10.00">_config</text>
</a>
</g>
</g>
<!-- Node174&#45;&gt;Node194 -->
<g id="edge5" class="edge"><title>Node174&#45;&gt;Node194</title>
<path fill="none" stroke="midnightblue" d="M35.329,-397.009C36.9561,-427.765 46.6215,-525.061 104,-568.5 157.693,-609.149 237,-609.926 293.191,-603.679"/>
<polygon fill="midnightblue" stroke="midnightblue" points="293.898,-607.119 303.403,-602.439 293.054,-600.17 293.898,-607.119"/>
</g>
<!-- Node195 -->
<g id="node7" class="node"><title>Node195</title>
<g id="a_node7"><a xlink:href="x4driver_8h.xhtml#a86dbadcb2e415d23600ef1bb31c9dbde" target="_top" xlink:title="Initiates x4driver. ">
<polygon fill="white" stroke="red" points="147,-378 147,-397 221,-397 221,-378 147,-378"/>
<text text-anchor="middle" x="184" y="-385" font-family="Helvetica,sans-Serif" font-size="10.00">x4driver_init</text>
</a>
</g>
</g>
<!-- Node174&#45;&gt;Node195 -->
<g id="edge6" class="edge"><title>Node174&#45;&gt;Node195</title>
<path fill="none" stroke="midnightblue" d="M68.2141,-387.5C88.3732,-387.5 114.405,-387.5 136.581,-387.5"/>
<polygon fill="midnightblue" stroke="midnightblue" points="136.788,-391 146.788,-387.5 136.788,-384 136.788,-391"/>
</g>
<!-- Node234 -->
<g id="node8" class="node"><title>Node234</title>
<g id="a_node8"><a xlink:href="xep__hal_8h.xhtml#af1f57228b9448df87a3f5f30968b3fa8" target="_top" xlink:title="Gets the operation mode of the module. ">
<polygon fill="white" stroke="red" points="118.5,-340 118.5,-359 249.5,-359 249.5,-340 118.5,-340"/>
<text text-anchor="middle" x="184" y="-347" font-family="Helvetica,sans-Serif" font-size="10.00">xt_get_operation_mode</text>
</a>
</g>
</g>
<!-- Node174&#45;&gt;Node234 -->
<g id="edge7" class="edge"><title>Node174&#45;&gt;Node234</title>
<path fill="none" stroke="midnightblue" d="M68.2822,-378.099C79.5967,-374.966 92.3295,-371.509 104,-368.5 113.226,-366.121 123.082,-363.675 132.594,-361.363"/>
<polygon fill="midnightblue" stroke="midnightblue" points="133.442,-364.759 142.341,-359.01 131.799,-357.954 133.442,-364.759"/>
</g>
<!-- Node250 -->
<g id="node9" class="node"><title>Node250</title>
<g id="a_node9"><a xlink:href="task__radar_8c.xhtml#aaf9dce020103065a449faffb7bfdded2" target="_top" xlink:title="_x4driver_test_io_connectivity">
<polygon fill="white" stroke="red" points="104,-302 104,-321 264,-321 264,-302 104,-302"/>
<text text-anchor="middle" x="184" y="-309" font-family="Helvetica,sans-Serif" font-size="10.00">_x4driver_test_io_connectivity</text>
</a>
</g>
</g>
<!-- Node174&#45;&gt;Node250 -->
<g id="edge8" class="edge"><title>Node174&#45;&gt;Node250</title>
<path fill="none" stroke="midnightblue" d="M43.836,-377.86C56.0962,-365.079 79.5352,-342.72 104,-330.5 108.811,-328.097 113.942,-325.988 119.189,-324.139"/>
<polygon fill="midnightblue" stroke="midnightblue" points="120.264,-327.47 128.718,-321.085 118.127,-320.804 120.264,-327.47"/>
</g>
<!-- Node255 -->
<g id="node10" class="node"><title>Node255</title>
<g id="a_node10"><a xlink:href="x4driver_8h.xhtml#a8bc96b0db173f49cfe59027d9e95f600" target="_top" xlink:title="x4driver_check_configuration">
<polygon fill="white" stroke="red" points="106.5,-264 106.5,-283 261.5,-283 261.5,-264 106.5,-264"/>
<text text-anchor="middle" x="184" y="-271" font-family="Helvetica,sans-Serif" font-size="10.00">x4driver_check_configuration</text>
</a>
</g>
</g>
<!-- Node174&#45;&gt;Node255 -->
<g id="edge9" class="edge"><title>Node174&#45;&gt;Node255</title>
<path fill="none" stroke="midnightblue" d="M39.1207,-377.95C47.9845,-358.596 70.7862,-314.706 104,-292.5 106.963,-290.519 110.11,-288.744 113.377,-287.154"/>
<polygon fill="midnightblue" stroke="midnightblue" points="115.003,-290.266 122.846,-283.143 112.273,-283.821 115.003,-290.266"/>
</g>
<!-- Node257 -->
<g id="node11" class="node"><title>Node257</title>
<g id="a_node11"><a xlink:href="x4driver_8h.xhtml#a3d4fbcf15fcf3736ef68613007caca8e" target="_top" xlink:title="x4driver_set_sweep\l_trigger_control">
<polygon fill="white" stroke="red" points="129,-214.5 129,-244.5 239,-244.5 239,-214.5 129,-214.5"/>
<text text-anchor="start" x="137" y="-232.5" font-family="Helvetica,sans-Serif" font-size="10.00">x4driver_set_sweep</text>
<text text-anchor="middle" x="184" y="-221.5" font-family="Helvetica,sans-Serif" font-size="10.00">_trigger_control</text>
</a>
</g>
</g>
<!-- Node174&#45;&gt;Node257 -->
<g id="edge10" class="edge"><title>Node174&#45;&gt;Node257</title>
<path fill="none" stroke="midnightblue" d="M37.2655,-377.855C43.4942,-353.464 63.1918,-288.827 104,-254.5 108.584,-250.644 113.767,-247.381 119.233,-244.62"/>
<polygon fill="midnightblue" stroke="midnightblue" points="120.93,-247.696 128.642,-240.431 118.083,-241.301 120.93,-247.696"/>
</g>
<!-- Node262 -->
<g id="node12" class="node"><title>Node262</title>
<g id="a_node12"><a xlink:href="x4driver_8h.xhtml#a6c801c9a8b3010ebe47eb1ee881c9503" target="_top" xlink:title="Calibrated frame offset in meters. ">
<polygon fill="white" stroke="red" points="307,-511.5 307,-541.5 416,-541.5 416,-511.5 307,-511.5"/>
<text text-anchor="start" x="315" y="-529.5" font-family="Helvetica,sans-Serif" font-size="10.00">x4driver_set_frame</text>
<text text-anchor="middle" x="361.5" y="-518.5" font-family="Helvetica,sans-Serif" font-size="10.00">_area_offset</text>
</a>
</g>
</g>
<!-- Node174&#45;&gt;Node262 -->
<g id="edge11" class="edge"><title>Node174&#45;&gt;Node262</title>
<path fill="none" stroke="midnightblue" d="M35.7926,-397.106C38.7166,-425.537 51.6362,-509.404 104,-543.5 167.682,-584.966 260.128,-563.75 314.9,-544.891"/>
<polygon fill="midnightblue" stroke="midnightblue" points="316.094,-548.181 324.344,-541.533 313.749,-541.585 316.094,-548.181"/>
</g>
<!-- Node263 -->
<g id="node13" class="node"><title>Node263</title>
<g id="a_node13"><a xlink:href="x4driver_8h.xhtml#aaa39bc07728273218162fc63a0bcb864" target="_top" xlink:title="x4driver_set_tx_power">
<polygon fill="white" stroke="red" points="300,-460 300,-479 423,-479 423,-460 300,-460"/>
<text text-anchor="middle" x="361.5" y="-467" font-family="Helvetica,sans-Serif" font-size="10.00">x4driver_set_tx_power</text>
</a>
</g>
</g>
<!-- Node174&#45;&gt;Node263 -->
<g id="edge12" class="edge"><title>Node174&#45;&gt;Node263</title>
<path fill="none" stroke="midnightblue" d="M68.2875,-396.88C79.6024,-400.012 92.3341,-403.473 104,-406.5 174.847,-424.884 192.93,-428.001 264,-445.5 279.814,-449.394 297.077,-453.677 312.573,-457.534"/>
<polygon fill="midnightblue" stroke="midnightblue" points="311.919,-460.978 322.469,-459.998 313.611,-454.185 311.919,-460.978"/>
</g>
<!-- Node264 -->
<g id="node14" class="node"><title>Node264</title>
<g id="a_node14"><a xlink:href="x4driver_8h.xhtml#ab5eb8602c52123f84b4dfee408ef2cc7" target="_top" xlink:title="x4driver_set_prf_div">
<polygon fill="white" stroke="red" points="128,-176 128,-195 240,-195 240,-176 128,-176"/>
<text text-anchor="middle" x="184" y="-183" font-family="Helvetica,sans-Serif" font-size="10.00">x4driver_set_prf_div</text>
</a>
</g>
</g>
<!-- Node174&#45;&gt;Node264 -->
<g id="edge13" class="edge"><title>Node174&#45;&gt;Node264</title>
<path fill="none" stroke="midnightblue" d="M35.6392,-377.875C38.1857,-347.586 50.278,-253.402 104,-205.5 108.224,-201.734 113.057,-198.656 118.205,-196.144"/>
<polygon fill="midnightblue" stroke="midnightblue" points="119.839,-199.256 127.748,-192.206 117.169,-192.785 119.839,-199.256"/>
</g>
<!-- Node265 -->
<g id="node15" class="node"><title>Node265</title>
<g id="a_node15"><a xlink:href="x4driver_8h.xhtml#a3bd645021a42b838c9e3b3ff2f021d50" target="_top" xlink:title="x4driver_set_tx_center\l_frequency">
<polygon fill="white" stroke="red" points="121.5,-126.5 121.5,-156.5 246.5,-156.5 246.5,-126.5 121.5,-126.5"/>
<text text-anchor="start" x="129.5" y="-144.5" font-family="Helvetica,sans-Serif" font-size="10.00">x4driver_set_tx_center</text>
<text text-anchor="middle" x="184" y="-133.5" font-family="Helvetica,sans-Serif" font-size="10.00">_frequency</text>
</a>
</g>
</g>
<!-- Node174&#45;&gt;Node265 -->
<g id="edge14" class="edge"><title>Node174&#45;&gt;Node265</title>
<path fill="none" stroke="midnightblue" d="M35.0303,-377.978C35.6666,-344.121 42.4436,-228.294 104,-166.5 106.643,-163.847 109.565,-161.475 112.682,-159.354"/>
<polygon fill="midnightblue" stroke="midnightblue" points="114.459,-162.37 121.333,-154.307 110.931,-156.324 114.459,-162.37"/>
</g>
<!-- Node266 -->
<g id="node16" class="node"><title>Node266</title>
<g id="a_node16"><a xlink:href="task__monitor_8c.xhtml#a0c7f7f8017a34d24de6b5c6fd90fbfe3" target="_top" xlink:title="Reset counter to indicate that task is alive. ">
<polygon fill="white" stroke="red" points="130.5,-88 130.5,-107 237.5,-107 237.5,-88 130.5,-88"/>
<text text-anchor="middle" x="184" y="-95" font-family="Helvetica,sans-Serif" font-size="10.00">monitor_task_alive</text>
</a>
</g>
</g>
<!-- Node174&#45;&gt;Node266 -->
<g id="edge15" class="edge"><title>Node174&#45;&gt;Node266</title>
<path fill="none" stroke="midnightblue" d="M36.1308,-377.984C41.4748,-334.582 65.5552,-155.859 104,-117.5 108.845,-112.666 114.68,-108.945 120.957,-106.088"/>
<polygon fill="midnightblue" stroke="midnightblue" points="122.306,-109.32 130.408,-102.493 119.817,-102.777 122.306,-109.32"/>
</g>
<!-- Node267 -->
<g id="node17" class="node"><title>Node267</title>
<g id="a_node17"><a xlink:href="task__radar_8c.xhtml#a777b1becbbecb18522cf2c6dc047532b" target="_top" xlink:title="radar_certification\l_handler">
<polygon fill="white" stroke="red" points="132.5,-503.5 132.5,-533.5 235.5,-533.5 235.5,-503.5 132.5,-503.5"/>
<text text-anchor="start" x="140.5" y="-521.5" font-family="Helvetica,sans-Serif" font-size="10.00">radar_certification</text>
<text text-anchor="middle" x="184" y="-510.5" font-family="Helvetica,sans-Serif" font-size="10.00">_handler</text>
</a>
</g>
</g>
<!-- Node174&#45;&gt;Node267 -->
<g id="edge16" class="edge"><title>Node174&#45;&gt;Node267</title>
<path fill="none" stroke="midnightblue" d="M38.517,-397.111C46.6707,-418.044 68.8896,-468.003 104,-494.5 109.742,-498.834 116.269,-502.39 123.053,-505.308"/>
<polygon fill="midnightblue" stroke="midnightblue" points="121.822,-508.585 132.412,-508.905 124.333,-502.051 121.822,-508.585"/>
</g>
<!-- Node276 -->
<g id="node18" class="node"><title>Node276</title>
<g id="a_node18"><a xlink:href="task__radar_8c.xhtml#a1f0b2f52d809a8141147add6eaa0279a" target="_top" xlink:title="read_and_send_radar\l_frame">
<polygon fill="white" stroke="red" points="123.5,-454.5 123.5,-484.5 244.5,-484.5 244.5,-454.5 123.5,-454.5"/>
<text text-anchor="start" x="131.5" y="-472.5" font-family="Helvetica,sans-Serif" font-size="10.00">read_and_send_radar</text>
<text text-anchor="middle" x="184" y="-461.5" font-family="Helvetica,sans-Serif" font-size="10.00">_frame</text>
</a>
</g>
</g>
<!-- Node174&#45;&gt;Node276 -->
<g id="edge20" class="edge"><title>Node174&#45;&gt;Node276</title>
<path fill="none" stroke="midnightblue" d="M46.0337,-397.392C59.1165,-408.733 81.9379,-427.322 104,-439.5 111.293,-443.526 119.237,-447.241 127.185,-450.587"/>
<polygon fill="midnightblue" stroke="midnightblue" points="125.895,-453.84 136.478,-454.34 128.517,-447.35 125.895,-453.84"/>
</g>
<!-- Node295 -->
<g id="node19" class="node"><title>Node295</title>
<g id="a_node19"><a xlink:href="x4driver_8h.xhtml#a03652f4897873d46d0534336df7f29fe" target="_top" xlink:title="Will trigger a radar sweep. ">
<polygon fill="white" stroke="red" points="125,-50 125,-69 243,-69 243,-50 125,-50"/>
<text text-anchor="middle" x="184" y="-57" font-family="Helvetica,sans-Serif" font-size="10.00">x4driver_start_sweep</text>
</a>
</g>
</g>
<!-- Node174&#45;&gt;Node295 -->
<g id="edge22" class="edge"><title>Node174&#45;&gt;Node295</title>
<path fill="none" stroke="midnightblue" d="M35.7984,-377.904C39.9246,-330.615 60.3433,-122.875 104,-78.5 107.407,-75.037 111.327,-72.1619 115.56,-69.7792"/>
<polygon fill="midnightblue" stroke="midnightblue" points="117.043,-72.9494 124.625,-65.5492 114.083,-66.606 117.043,-72.9494"/>
</g>
<!-- Node297 -->
<g id="node20" class="node"><title>Node297</title>
<g id="a_node20"><a xlink:href="x4driver_8h.xhtml#af07f7d2f1758a60257ab9df3426c9a37" target="_top" xlink:title="Action timer callback. ">
<polygon fill="white" stroke="red" points="130.5,-0.5 130.5,-30.5 237.5,-30.5 237.5,-0.5 130.5,-0.5"/>
<text text-anchor="start" x="138.5" y="-18.5" font-family="Helvetica,sans-Serif" font-size="10.00">x4driver_on_action</text>
<text text-anchor="middle" x="184" y="-7.5" font-family="Helvetica,sans-Serif" font-size="10.00">_event</text>
</a>
</g>
</g>
<!-- Node174&#45;&gt;Node297 -->
<g id="edge23" class="edge"><title>Node174&#45;&gt;Node297</title>
<path fill="none" stroke="midnightblue" d="M35.6194,-377.827C39.0503,-327.156 57.2891,-92.6644 104,-40.5 108.707,-35.2437 114.51,-31.0838 120.816,-27.7932"/>
<polygon fill="midnightblue" stroke="midnightblue" points="122.624,-30.8203 130.347,-23.5675 119.787,-24.4211 122.624,-30.8203"/>
</g>
<!-- Node267&#45;&gt;Node194 -->
<g id="edge18" class="edge"><title>Node267&#45;&gt;Node194</title>
<path fill="none" stroke="midnightblue" d="M221.364,-533.626C248.425,-544.882 285.553,-560.325 314.649,-572.428"/>
<polygon fill="midnightblue" stroke="midnightblue" points="313.606,-575.785 324.183,-576.394 316.294,-569.322 313.606,-575.785"/>
</g>
<!-- Node267&#45;&gt;Node262 -->
<g id="edge19" class="edge"><title>Node267&#45;&gt;Node262</title>
<path fill="none" stroke="midnightblue" d="M235.762,-520.814C254.814,-521.682 276.715,-522.681 296.794,-523.596"/>
<polygon fill="midnightblue" stroke="midnightblue" points="296.644,-527.093 306.794,-524.052 296.963,-520.1 296.644,-527.093"/>
</g>
<!-- Node267&#45;&gt;Node263 -->
<g id="edge17" class="edge"><title>Node267&#45;&gt;Node263</title>
<path fill="none" stroke="midnightblue" d="M235.762,-504.327C261.298,-497.197 291.949,-488.64 316.477,-481.791"/>
<polygon fill="midnightblue" stroke="midnightblue" points="317.547,-485.127 326.237,-479.066 315.664,-478.384 317.547,-485.127"/>
</g>
<!-- Node276&#45;&gt;Node263 -->
<g id="edge21" class="edge"><title>Node276&#45;&gt;Node263</title>
<path fill="none" stroke="midnightblue" d="M244.906,-469.5C259.348,-469.5 274.912,-469.5 289.796,-469.5"/>
<polygon fill="midnightblue" stroke="midnightblue" points="289.969,-473 299.969,-469.5 289.969,-466 289.969,-473"/>
</g>
</g>
</svg>
