<?xml version="1.0" encoding="UTF-8" standalone="no"?>
<!DOCTYPE svg PUBLIC "-//W3C//DTD SVG 1.1//EN"
 "http://www.w3.org/Graphics/SVG/1.1/DTD/svg11.dtd">
<!-- Generated by graphviz version 2.38.0 (20140413.2041)
 -->
<!-- Title: process_dispatch_message_hostcom_send Pages: 1 -->
<svg width="347pt" height="165pt"
 viewBox="0.00 0.00 347.00 165.00" xmlns="http://www.w3.org/2000/svg" xmlns:xlink="http://www.w3.org/1999/xlink">
<g id="graph0" class="graph" transform="scale(1 1) rotate(0) translate(4 161)">
<title>process_dispatch_message_hostcom_send</title>
<polygon fill="white" stroke="none" points="-4,4 -4,-161 343,-161 343,4 -4,4"/>
<!-- Node48 -->
<g id="node1" class="node"><title>Node48</title>
<polygon fill="#bfbfbf" stroke="black" points="0,-63 0,-93 149,-93 149,-63 0,-63"/>
<text text-anchor="start" x="8" y="-81" font-family="Helvetica,sans-Serif" font-size="10.00">process_dispatch_message</text>
<text text-anchor="middle" x="74.5" y="-70" font-family="Helvetica,sans-Serif" font-size="10.00">_hostcom_send</text>
</g>
<!-- Node49 -->
<g id="node2" class="node"><title>Node49</title>
<g id="a_node2"><a xlink:href="group__udd__udphs__group.xhtml#gae90f972fe3687ee01b803027939cdb47" target="_top" xlink:title="if">
<polygon fill="white" stroke="black" points="247.5,-137.5 247.5,-156.5 276.5,-156.5 276.5,-137.5 247.5,-137.5"/>
<text text-anchor="middle" x="262" y="-144.5" font-family="Helvetica,sans-Serif" font-size="10.00">if</text>
</a>
</g>
</g>
<!-- Node48&#45;&gt;Node49 -->
<g id="edge1" class="edge"><title>Node48&#45;&gt;Node49</title>
<path fill="none" stroke="midnightblue" d="M104.64,-93.0828C126.363,-103.885 156.99,-118.197 185,-128 202.147,-134.001 222.092,-138.913 237.247,-142.238"/>
<polygon fill="midnightblue" stroke="midnightblue" points="236.818,-145.725 247.326,-144.372 238.268,-138.876 236.818,-145.725"/>
</g>
<!-- Node50 -->
<g id="node3" class="node"><title>Node50</title>
<g id="a_node3"><a xlink:href="task__hostcom_8c.xhtml#a45145b193d3a80b8fc5902a948790a39" target="_top" xlink:title="mcp_protocol_messagebuild\l_callback">
<polygon fill="white" stroke="black" points="185,-88 185,-118 339,-118 339,-88 185,-88"/>
<text text-anchor="start" x="193" y="-106" font-family="Helvetica,sans-Serif" font-size="10.00">mcp_protocol_messagebuild</text>
<text text-anchor="middle" x="262" y="-95" font-family="Helvetica,sans-Serif" font-size="10.00">_callback</text>
</a>
</g>
</g>
<!-- Node48&#45;&gt;Node50 -->
<g id="edge2" class="edge"><title>Node48&#45;&gt;Node50</title>
<path fill="none" stroke="midnightblue" d="M149.081,-87.9166C157.515,-89.0532 166.169,-90.2196 174.75,-91.376"/>
<polygon fill="midnightblue" stroke="midnightblue" points="174.392,-94.8593 184.77,-92.7264 175.327,-87.9221 174.392,-94.8593"/>
</g>
<!-- Node51 -->
<g id="node4" class="node"><title>Node51</title>
<g id="a_node4"><a xlink:href="task__hostcom_8c.xhtml#a1b390553e42793c6f34ca014db23f922" target="_top" xlink:title="message_send_completed\l_callback">
<polygon fill="white" stroke="red" points="189,-39 189,-69 335,-69 335,-39 189,-39"/>
<text text-anchor="start" x="197" y="-57" font-family="Helvetica,sans-Serif" font-size="10.00">message_send_completed</text>
<text text-anchor="middle" x="262" y="-46" font-family="Helvetica,sans-Serif" font-size="10.00">_callback</text>
</a>
</g>
</g>
<!-- Node48&#45;&gt;Node51 -->
<g id="edge3" class="edge"><title>Node48&#45;&gt;Node51</title>
<path fill="none" stroke="midnightblue" d="M149.081,-68.4801C158.766,-67.2271 168.742,-65.9364 178.562,-64.6659"/>
<polygon fill="midnightblue" stroke="midnightblue" points="179.252,-68.1058 188.72,-63.3516 178.354,-61.1637 179.252,-68.1058"/>
</g>
<!-- Node55 -->
<g id="node5" class="node"><title>Node55</title>
<g id="a_node5"><a xlink:href="xep__dispatch_8h.xhtml#af230fbcbf78ff22c13ca92625a50216d" target="_top" xlink:title="Release message. ">
<polygon fill="white" stroke="red" points="188.5,-0.5 188.5,-19.5 335.5,-19.5 335.5,-0.5 188.5,-0.5"/>
<text text-anchor="middle" x="262" y="-7.5" font-family="Helvetica,sans-Serif" font-size="10.00">dispatch_release_message</text>
</a>
</g>
</g>
<!-- Node48&#45;&gt;Node55 -->
<g id="edge4" class="edge"><title>Node48&#45;&gt;Node55</title>
<path fill="none" stroke="midnightblue" d="M106.606,-62.8132C128.244,-52.6355 157.95,-39.4235 185,-30 193.057,-27.1933 201.712,-24.5644 210.193,-22.194"/>
<polygon fill="midnightblue" stroke="midnightblue" points="211.283,-25.5249 220.022,-19.5349 209.455,-18.7679 211.283,-25.5249"/>
</g>
</g>
</svg>
