<?xml version="1.0" encoding="UTF-8" standalone="no"?>
<!DOCTYPE svg PUBLIC "-//W3C//DTD SVG 1.1//EN"
 "http://www.w3.org/Graphics/SVG/1.1/DTD/svg11.dtd">
<!-- Generated by graphviz version 2.38.0 (20140413.2041)
 -->
<!-- Title: x4driver_enable_ISR Pages: 1 -->
<svg width="294pt" height="203pt"
 viewBox="0.00 0.00 294.00 203.00" xmlns="http://www.w3.org/2000/svg" xmlns:xlink="http://www.w3.org/1999/xlink">
<g id="graph0" class="graph" transform="scale(1 1) rotate(0) translate(4 199)">
<title>x4driver_enable_ISR</title>
<polygon fill="white" stroke="none" points="-4,4 -4,-199 290,-199 290,4 -4,4"/>
<!-- Node615 -->
<g id="node1" class="node"><title>Node615</title>
<polygon fill="#bfbfbf" stroke="black" points="0,-82.5 0,-101.5 113,-101.5 113,-82.5 0,-82.5"/>
<text text-anchor="middle" x="56.5" y="-89.5" font-family="Helvetica,sans-Serif" font-size="10.00">x4driver_enable_ISR</text>
</g>
<!-- Node616 -->
<g id="node2" class="node"><title>Node616</title>
<g id="a_node2"><a xlink:href="xep__hal_8h.xhtml#a90b22ca935e03d989e5572a9aa8bf29c" target="_top" xlink:title="Register interrupt callback function. ">
<polygon fill="white" stroke="red" points="149,-175.5 149,-194.5 286,-194.5 286,-175.5 149,-175.5"/>
<text text-anchor="middle" x="217.5" y="-182.5" font-family="Helvetica,sans-Serif" font-size="10.00">xtio_irq_register_callback</text>
</a>
</g>
</g>
<!-- Node615&#45;&gt;Node616 -->
<g id="edge1" class="edge"><title>Node615&#45;&gt;Node616</title>
<path fill="none" stroke="midnightblue" d="M66.7112,-101.658C82.2381,-117.391 115.245,-148.546 149,-166 153.481,-168.317 158.28,-170.382 163.176,-172.215"/>
<polygon fill="midnightblue" stroke="midnightblue" points="162.06,-175.533 172.655,-175.461 164.328,-168.91 162.06,-175.533"/>
</g>
<!-- Node632 -->
<g id="node3" class="node"><title>Node632</title>
<g id="a_node3"><a xlink:href="task__radar_8c.xhtml#add6504b76a7644bf25db4e111843fe7a" target="_top" xlink:title="x4driver_X4_interrupt\l_notify_data_ready">
<polygon fill="white" stroke="black" points="158,-126 158,-156 277,-156 277,-126 158,-126"/>
<text text-anchor="start" x="166" y="-144" font-family="Helvetica,sans-Serif" font-size="10.00">x4driver_X4_interrupt</text>
<text text-anchor="middle" x="217.5" y="-133" font-family="Helvetica,sans-Serif" font-size="10.00">_notify_data_ready</text>
</a>
</g>
</g>
<!-- Node615&#45;&gt;Node632 -->
<g id="edge2" class="edge"><title>Node615&#45;&gt;Node632</title>
<path fill="none" stroke="midnightblue" d="M88.5343,-101.564C108.313,-107.659 134.563,-115.749 158.138,-123.014"/>
<polygon fill="midnightblue" stroke="midnightblue" points="157.119,-126.363 167.707,-125.963 159.181,-119.673 157.119,-126.363"/>
</g>
<!-- Node633 -->
<g id="node4" class="node"><title>Node633</title>
<g id="a_node4"><a xlink:href="xep__hal_8h.xhtml#a8f8214e214e26de85a41a1b0af1fc6d7" target="_top" xlink:title="Unregister interrupt handler. ">
<polygon fill="white" stroke="red" points="165,-77 165,-107 270,-107 270,-77 165,-77"/>
<text text-anchor="start" x="173" y="-95" font-family="Helvetica,sans-Serif" font-size="10.00">xtio_irq_unregister</text>
<text text-anchor="middle" x="217.5" y="-84" font-family="Helvetica,sans-Serif" font-size="10.00">_callback</text>
</a>
</g>
</g>
<!-- Node615&#45;&gt;Node633 -->
<g id="edge3" class="edge"><title>Node615&#45;&gt;Node633</title>
<path fill="none" stroke="midnightblue" d="M113.11,-92C126.527,-92 140.943,-92 154.627,-92"/>
<polygon fill="midnightblue" stroke="midnightblue" points="154.918,-95.5001 164.918,-92 154.918,-88.5001 154.918,-95.5001"/>
</g>
<!-- Node640 -->
<g id="node5" class="node"><title>Node640</title>
<g id="a_node5"><a xlink:href="xep__hal_8h.xhtml#a9c169f60838175920c2f9ab467d020c1" target="_top" xlink:title="Set mode for specified IO pin. ">
<polygon fill="white" stroke="red" points="164,-38.5 164,-57.5 271,-57.5 271,-38.5 164,-38.5"/>
<text text-anchor="middle" x="217.5" y="-45.5" font-family="Helvetica,sans-Serif" font-size="10.00">xtio_set_pin_mode</text>
</a>
</g>
</g>
<!-- Node615&#45;&gt;Node640 -->
<g id="edge4" class="edge"><title>Node615&#45;&gt;Node640</title>
<path fill="none" stroke="midnightblue" d="M92.0006,-82.4527C115.545,-75.9373 146.941,-67.2492 172.313,-60.2278"/>
<polygon fill="midnightblue" stroke="midnightblue" points="173.362,-63.5691 182.067,-57.5287 171.495,-56.8226 173.362,-63.5691"/>
</g>
<!-- Node641 -->
<g id="node6" class="node"><title>Node641</title>
<g id="a_node6"><a xlink:href="xep__hal_8h.xhtml#a4f087fae5e8098b3b9c8f9df124b7f4e" target="_top" xlink:title="Set direction of specified IO pin. ">
<polygon fill="white" stroke="red" points="167,-0.5 167,-19.5 268,-19.5 268,-0.5 167,-0.5"/>
<text text-anchor="middle" x="217.5" y="-7.5" font-family="Helvetica,sans-Serif" font-size="10.00">xtio_set_direction</text>
</a>
</g>
</g>
<!-- Node615&#45;&gt;Node641 -->
<g id="edge5" class="edge"><title>Node615&#45;&gt;Node641</title>
<path fill="none" stroke="midnightblue" d="M68.8715,-82.3098C85.4637,-68.6222 117.746,-43.6636 149,-29 153.96,-26.6731 159.261,-24.5771 164.632,-22.7029"/>
<polygon fill="midnightblue" stroke="midnightblue" points="165.878,-25.9781 174.313,-19.5666 163.721,-19.3188 165.878,-25.9781"/>
</g>
</g>
</svg>
