<?xml version="1.0" encoding="UTF-8" standalone="no"?>
<!DOCTYPE svg PUBLIC "-//W3C//DTD SVG 1.1//EN"
 "http://www.w3.org/Graphics/SVG/1.1/DTD/svg11.dtd">
<!-- Generated by graphviz version 2.38.0 (20140413.2041)
 -->
<!-- Title: _x4driver_test_io_connectivity Pages: 1 -->
<svg width="349pt" height="241pt"
 viewBox="0.00 0.00 349.00 241.00" xmlns="http://www.w3.org/2000/svg" xmlns:xlink="http://www.w3.org/1999/xlink">
<g id="graph0" class="graph" transform="scale(1 1) rotate(0) translate(4 237)">
<title>_x4driver_test_io_connectivity</title>
<polygon fill="white" stroke="none" points="-4,4 -4,-237 345,-237 345,4 -4,4"/>
<!-- Node0 -->
<g id="node1" class="node"><title>Node0</title>
<polygon fill="#bfbfbf" stroke="black" points="0,-107 0,-126 160,-126 160,-107 0,-107"/>
<text text-anchor="middle" x="80" y="-114" font-family="Helvetica,sans-Serif" font-size="10.00">_x4driver_test_io_connectivity</text>
</g>
<!-- Node1 -->
<g id="node2" class="node"><title>Node1</title>
<g id="a_node2"><a xlink:href="xep__hal_8h.xhtml#a7fc787dfe17335b3f6eab3f9db8d2998" target="_top" xlink:title="Access function for X4Driver to get the pin combinations to test. ">
<polygon fill="white" stroke="black" points="196,-202.5 196,-232.5 341,-232.5 341,-202.5 196,-202.5"/>
<text text-anchor="start" x="204" y="-220.5" font-family="Helvetica,sans-Serif" font-size="10.00">xt_selftest_x4_connectivity</text>
<text text-anchor="middle" x="268.5" y="-209.5" font-family="Helvetica,sans-Serif" font-size="10.00">_get_pin_table</text>
</a>
</g>
</g>
<!-- Node0&#45;&gt;Node1 -->
<g id="edge1" class="edge"><title>Node0&#45;&gt;Node1</title>
<path fill="none" stroke="midnightblue" d="M93.1471,-126.006C113.482,-141.57 156.118,-172.732 196,-192.5 200.337,-194.65 204.906,-196.698 209.549,-198.63"/>
<polygon fill="midnightblue" stroke="midnightblue" points="208.549,-201.999 219.135,-202.427 211.127,-195.49 208.549,-201.999"/>
</g>
<!-- Node2 -->
<g id="node3" class="node"><title>Node2</title>
<g id="a_node3"><a xlink:href="xep__hal_8h.xhtml#a4f087fae5e8098b3b9c8f9df124b7f4e" target="_top" xlink:title="Set direction of specified IO pin. ">
<polygon fill="white" stroke="red" points="218,-164 218,-183 319,-183 319,-164 218,-164"/>
<text text-anchor="middle" x="268.5" y="-171" font-family="Helvetica,sans-Serif" font-size="10.00">xtio_set_direction</text>
</a>
</g>
</g>
<!-- Node0&#45;&gt;Node2 -->
<g id="edge2" class="edge"><title>Node0&#45;&gt;Node2</title>
<path fill="none" stroke="midnightblue" d="M108.274,-126.02C131.485,-133.999 165.771,-145.498 196,-154.5 203.789,-156.819 212.095,-159.153 220.188,-161.352"/>
<polygon fill="midnightblue" stroke="midnightblue" points="219.338,-164.748 229.903,-163.958 221.151,-157.987 219.338,-164.748"/>
</g>
<!-- Node13 -->
<g id="node4" class="node"><title>Node13</title>
<g id="a_node4"><a xlink:href="x4driver_8h.xhtml#a983024655a1dcd0ad2aa0ec6cb8eb3cb" target="_top" xlink:title="Gets PIF register value. ">
<polygon fill="white" stroke="red" points="201.5,-126 201.5,-145 335.5,-145 335.5,-126 201.5,-126"/>
<text text-anchor="middle" x="268.5" y="-133" font-family="Helvetica,sans-Serif" font-size="10.00">x4driver_get_pif_register</text>
</a>
</g>
</g>
<!-- Node0&#45;&gt;Node13 -->
<g id="edge3" class="edge"><title>Node0&#45;&gt;Node13</title>
<path fill="none" stroke="midnightblue" d="M160.093,-124.558C170.368,-125.605 180.878,-126.675 191.108,-127.717"/>
<polygon fill="midnightblue" stroke="midnightblue" points="190.923,-131.217 201.226,-128.748 191.632,-124.253 190.923,-131.217"/>
</g>
<!-- Node20 -->
<g id="node5" class="node"><title>Node20</title>
<g id="a_node5"><a xlink:href="x4driver_8h.xhtml#a382b6e4ffa3658d409dfe855707dc16d" target="_top" xlink:title="Sets PIF register value. ">
<polygon fill="white" stroke="red" points="201.5,-88 201.5,-107 335.5,-107 335.5,-88 201.5,-88"/>
<text text-anchor="middle" x="268.5" y="-95" font-family="Helvetica,sans-Serif" font-size="10.00">x4driver_set_pif_register</text>
</a>
</g>
</g>
<!-- Node0&#45;&gt;Node20 -->
<g id="edge4" class="edge"><title>Node0&#45;&gt;Node20</title>
<path fill="none" stroke="midnightblue" d="M160.093,-108.442C170.368,-107.395 180.878,-106.325 191.108,-105.283"/>
<polygon fill="midnightblue" stroke="midnightblue" points="191.632,-108.747 201.226,-104.252 190.923,-101.783 191.632,-108.747"/>
</g>
<!-- Node22 -->
<g id="node6" class="node"><title>Node22</title>
<g id="a_node6"><a xlink:href="xep__hal_8h.xhtml#a984c6d05372bfd34dc338a85d21dc81a" target="_top" xlink:title="Get level of specified IO pin. ">
<polygon fill="white" stroke="red" points="227.5,-50 227.5,-69 309.5,-69 309.5,-50 227.5,-50"/>
<text text-anchor="middle" x="268.5" y="-57" font-family="Helvetica,sans-Serif" font-size="10.00">xtio_get_level</text>
</a>
</g>
</g>
<!-- Node0&#45;&gt;Node22 -->
<g id="edge5" class="edge"><title>Node0&#45;&gt;Node22</title>
<path fill="none" stroke="midnightblue" d="M108.274,-106.98C131.485,-99.0011 165.771,-87.502 196,-78.5 203.789,-76.1805 212.095,-73.8469 220.188,-71.6479"/>
<polygon fill="midnightblue" stroke="midnightblue" points="221.151,-75.0132 229.903,-69.0422 219.338,-68.2521 221.151,-75.0132"/>
</g>
<!-- Node24 -->
<g id="node7" class="node"><title>Node24</title>
<g id="a_node7"><a xlink:href="xep__hal_8h.xhtml#af6b80e97e26108da85bc193be8ee57ed" target="_top" xlink:title="Access function for X4Driver to mark a faulty pin. ">
<polygon fill="white" stroke="black" points="196,-0.5 196,-30.5 341,-30.5 341,-0.5 196,-0.5"/>
<text text-anchor="start" x="204" y="-18.5" font-family="Helvetica,sans-Serif" font-size="10.00">xt_selftest_x4_connectivity</text>
<text text-anchor="middle" x="268.5" y="-7.5" font-family="Helvetica,sans-Serif" font-size="10.00">_mark_faulty_pin</text>
</a>
</g>
</g>
<!-- Node0&#45;&gt;Node24 -->
<g id="edge6" class="edge"><title>Node0&#45;&gt;Node24</title>
<path fill="none" stroke="midnightblue" d="M93.1471,-106.994C113.482,-91.4304 156.118,-60.2679 196,-40.5 200.337,-38.3502 204.906,-36.3017 209.549,-34.3698"/>
<polygon fill="midnightblue" stroke="midnightblue" points="211.127,-37.5095 219.135,-30.5731 208.549,-31.0013 211.127,-37.5095"/>
</g>
</g>
</svg>
