<?xml version="1.0" encoding="UTF-8" standalone="no"?>
<!DOCTYPE svg PUBLIC "-//W3C//DTD SVG 1.1//EN"
 "http://www.w3.org/Graphics/SVG/1.1/DTD/svg11.dtd">
<!-- Generated by graphviz version 2.38.0 (20140413.2041)
 -->
<!-- Title: TWI_StartRead Pages: 1 -->
<svg width="221pt" height="66pt"
 viewBox="0.00 0.00 221.00 66.00" xmlns="http://www.w3.org/2000/svg" xmlns:xlink="http://www.w3.org/1999/xlink">
<g id="graph0" class="graph" transform="scale(1 1) rotate(0) translate(4 62)">
<title>TWI_StartRead</title>
<polygon fill="white" stroke="none" points="-4,4 -4,-62 217,-62 217,4 -4,4"/>
<!-- Node110 -->
<g id="node1" class="node"><title>Node110</title>
<polygon fill="#bfbfbf" stroke="black" points="0,-19.5 0,-38.5 85,-38.5 85,-19.5 0,-19.5"/>
<text text-anchor="middle" x="42.5" y="-26.5" font-family="Helvetica,sans-Serif" font-size="10.00">TWI_StartRead</text>
</g>
<!-- Node111 -->
<g id="node2" class="node"><title>Node111</title>
<g id="a_node2"><a xlink:href="twid_8c.xhtml#a13f06b4cc25a29302d3c932e82136599" target="_top" xlink:title="Asynchronously reads data from a slave on the TWI bus. ">
<polygon fill="white" stroke="red" points="133,-38.5 133,-57.5 201,-57.5 201,-38.5 133,-38.5"/>
<text text-anchor="middle" x="167" y="-45.5" font-family="Helvetica,sans-Serif" font-size="10.00">TWID_Read</text>
</a>
</g>
</g>
<!-- Node110&#45;&gt;Node111 -->
<g id="edge1" class="edge"><title>Node110&#45;&gt;Node111</title>
<path fill="none" stroke="midnightblue" d="M95.3447,-37.0412C108.053,-39.0123 121.314,-41.0691 132.87,-42.8615"/>
<polygon fill="midnightblue" stroke="midnightblue" points="95.7332,-33.5597 85.3149,-35.4856 94.6603,-40.477 95.7332,-33.5597"/>
</g>
<!-- Node120 -->
<g id="node3" class="node"><title>Node120</title>
<g id="a_node3"><a xlink:href="twid_8c.xhtml#aa58a543bbbb8570c4136811e16d2be11" target="_top" xlink:title="Asynchronously reads data from a slave on the TWI bus. ">
<polygon fill="white" stroke="black" points="121,-0.5 121,-19.5 213,-19.5 213,-0.5 121,-0.5"/>
<text text-anchor="middle" x="167" y="-7.5" font-family="Helvetica,sans-Serif" font-size="10.00">TWID_DmaRead</text>
</a>
</g>
</g>
<!-- Node110&#45;&gt;Node120 -->
<g id="edge2" class="edge"><title>Node110&#45;&gt;Node120</title>
<path fill="none" stroke="midnightblue" d="M95.3784,-20.9535C103.762,-19.6532 112.385,-18.3157 120.6,-17.0416"/>
<polygon fill="midnightblue" stroke="midnightblue" points="94.6603,-17.523 85.3149,-22.5144 95.7332,-24.4403 94.6603,-17.523"/>
</g>
</g>
</svg>
