<?xml version="1.0" encoding="UTF-8" standalone="no"?>
<!DOCTYPE svg PUBLIC "-//W3C//DTD SVG 1.1//EN"
 "http://www.w3.org/Graphics/SVG/1.1/DTD/svg11.dtd">
<!-- Generated by graphviz version 2.38.0 (20140413.2041)
 -->
<!-- Title: TWID_Read Pages: 1 -->
<svg width="234pt" height="294pt"
 viewBox="0.00 0.00 234.00 294.00" xmlns="http://www.w3.org/2000/svg" xmlns:xlink="http://www.w3.org/1999/xlink">
<g id="graph0" class="graph" transform="scale(1 1) rotate(0) translate(4 290)">
<title>TWID_Read</title>
<polygon fill="white" stroke="none" points="-4,4 -4,-290 230,-290 230,4 -4,4"/>
<!-- Node119 -->
<g id="node1" class="node"><title>Node119</title>
<polygon fill="#bfbfbf" stroke="black" points="0,-133.5 0,-152.5 68,-152.5 68,-133.5 0,-133.5"/>
<text text-anchor="middle" x="34" y="-140.5" font-family="Helvetica,sans-Serif" font-size="10.00">TWID_Read</text>
</g>
<!-- Node120 -->
<g id="node2" class="node"><title>Node120</title>
<g id="a_node2"><a xlink:href="twi_8h.xhtml#ab3bf1b5df694229af5fae34ca569ab7b" target="_top" xlink:title="Enables the selected interrupts sources on a TWI peripheral. ">
<polygon fill="white" stroke="black" points="127,-266.5 127,-285.5 203,-285.5 203,-266.5 127,-266.5"/>
<text text-anchor="middle" x="165" y="-273.5" font-family="Helvetica,sans-Serif" font-size="10.00">TWI_EnableIt</text>
</a>
</g>
</g>
<!-- Node119&#45;&gt;Node120 -->
<g id="edge1" class="edge"><title>Node119&#45;&gt;Node120</title>
<path fill="none" stroke="midnightblue" d="M38.1255,-152.544C45.7601,-174.368 67.4538,-228.248 104,-257 108.029,-260.17 112.597,-262.816 117.371,-265.024"/>
<polygon fill="midnightblue" stroke="midnightblue" points="116.132,-268.298 126.718,-268.753 118.726,-261.797 116.132,-268.298"/>
</g>
<!-- Node121 -->
<g id="node3" class="node"><title>Node121</title>
<g id="a_node3"><a xlink:href="twi_8h.xhtml#a806d1ace472ce5f4e2fe2de6f5a425ff" target="_top" xlink:title="Starts a read operation on the TWI bus with the specified slave, it returns immediately. ">
<polygon fill="white" stroke="black" points="122.5,-228.5 122.5,-247.5 207.5,-247.5 207.5,-228.5 122.5,-228.5"/>
<text text-anchor="middle" x="165" y="-235.5" font-family="Helvetica,sans-Serif" font-size="10.00">TWI_StartRead</text>
</a>
</g>
</g>
<!-- Node119&#45;&gt;Node121 -->
<g id="edge2" class="edge"><title>Node119&#45;&gt;Node121</title>
<path fill="none" stroke="midnightblue" d="M41.2217,-152.667C52.0598,-168.751 75.946,-201.012 104,-219 107.176,-221.037 110.587,-222.869 114.112,-224.516"/>
<polygon fill="midnightblue" stroke="midnightblue" points="113.046,-227.863 123.624,-228.455 115.724,-221.396 113.046,-227.863"/>
</g>
<!-- Node122 -->
<g id="node4" class="node"><title>Node122</title>
<g id="a_node4"><a xlink:href="twi_8h.xhtml#ab6f6a89c7dbb1075f904386273252977" target="_top" xlink:title="Sends a STOP condition on the TWI. ">
<polygon fill="white" stroke="black" points="135,-190.5 135,-209.5 195,-209.5 195,-190.5 135,-190.5"/>
<text text-anchor="middle" x="165" y="-197.5" font-family="Helvetica,sans-Serif" font-size="10.00">TWI_Stop</text>
</a>
</g>
</g>
<!-- Node119&#45;&gt;Node122 -->
<g id="edge3" class="edge"><title>Node119&#45;&gt;Node122</title>
<path fill="none" stroke="midnightblue" d="M50.1818,-152.5C63.8789,-160.792 84.7692,-172.755 104,-181 110.766,-183.901 118.127,-186.591 125.3,-188.98"/>
<polygon fill="midnightblue" stroke="midnightblue" points="124.302,-192.335 134.893,-192.043 126.431,-185.667 124.302,-192.335"/>
</g>
<!-- Node123 -->
<g id="node5" class="node"><title>Node123</title>
<g id="a_node5"><a xlink:href="timetick_8h.xhtml#ae626fb68b4503701534936d10ec97067" target="_top" xlink:title="Get Delayed number of tick. ">
<polygon fill="white" stroke="black" points="136.5,-152.5 136.5,-171.5 193.5,-171.5 193.5,-152.5 136.5,-152.5"/>
<text text-anchor="middle" x="165" y="-159.5" font-family="Helvetica,sans-Serif" font-size="10.00">GetTicks</text>
</a>
</g>
</g>
<!-- Node119&#45;&gt;Node123 -->
<g id="edge4" class="edge"><title>Node119&#45;&gt;Node123</title>
<path fill="none" stroke="midnightblue" d="M68.2207,-147.893C85.901,-150.497 107.719,-153.71 126.063,-156.412"/>
<polygon fill="midnightblue" stroke="midnightblue" points="125.722,-159.9 136.126,-157.894 126.742,-152.975 125.722,-159.9"/>
</g>
<!-- Node124 -->
<g id="node6" class="node"><title>Node124</title>
<g id="a_node6"><a xlink:href="twi_8h.xhtml#a2bb399b4984df2fdaabf741326636de2" target="_top" xlink:title="Check if a byte have been received from TWI. ">
<polygon fill="white" stroke="black" points="114.5,-114.5 114.5,-133.5 215.5,-133.5 215.5,-114.5 114.5,-114.5"/>
<text text-anchor="middle" x="165" y="-121.5" font-family="Helvetica,sans-Serif" font-size="10.00">TWI_ByteReceived</text>
</a>
</g>
</g>
<!-- Node119&#45;&gt;Node124 -->
<g id="edge5" class="edge"><title>Node119&#45;&gt;Node124</title>
<path fill="none" stroke="midnightblue" d="M68.2207,-138.107C79.2949,-136.476 91.9921,-134.606 104.442,-132.772"/>
<polygon fill="midnightblue" stroke="midnightblue" points="104.955,-136.234 114.339,-131.314 103.935,-129.309 104.955,-136.234"/>
</g>
<!-- Node125 -->
<g id="node7" class="node"><title>Node125</title>
<g id="a_node7"><a xlink:href="timetick_8h.xhtml#a125704795ef25b9a4887b18916658f2d" target="_top" xlink:title="Get Delayed number of tick. ">
<polygon fill="white" stroke="black" points="119,-76.5 119,-95.5 211,-95.5 211,-76.5 119,-76.5"/>
<text text-anchor="middle" x="165" y="-83.5" font-family="Helvetica,sans-Serif" font-size="10.00">GetDelayInTicks</text>
</a>
</g>
</g>
<!-- Node119&#45;&gt;Node125 -->
<g id="edge6" class="edge"><title>Node119&#45;&gt;Node125</title>
<path fill="none" stroke="midnightblue" d="M50.1818,-133.5C63.8789,-125.208 84.7692,-113.245 104,-105 109.147,-102.793 114.637,-100.709 120.128,-98.7858"/>
<polygon fill="midnightblue" stroke="midnightblue" points="121.562,-101.997 129.937,-95.5075 119.343,-95.3578 121.562,-101.997"/>
</g>
<!-- Node126 -->
<g id="node8" class="node"><title>Node126</title>
<g id="a_node8"><a xlink:href="twi_8h.xhtml#a8b4e96e6ce1126921517147b048fde51" target="_top" xlink:title="Reads a byte from the TWI bus. ">
<polygon fill="white" stroke="black" points="123.5,-38.5 123.5,-57.5 206.5,-57.5 206.5,-38.5 123.5,-38.5"/>
<text text-anchor="middle" x="165" y="-45.5" font-family="Helvetica,sans-Serif" font-size="10.00">TWI_ReadByte</text>
</a>
</g>
</g>
<!-- Node119&#45;&gt;Node126 -->
<g id="edge7" class="edge"><title>Node119&#45;&gt;Node126</title>
<path fill="none" stroke="midnightblue" d="M41.2217,-133.333C52.0598,-117.249 75.946,-84.9879 104,-67 107.176,-64.9634 110.587,-63.1306 114.112,-61.4836"/>
<polygon fill="midnightblue" stroke="midnightblue" points="115.724,-64.6045 123.624,-57.5455 113.046,-58.1368 115.724,-64.6045"/>
</g>
<!-- Node127 -->
<g id="node9" class="node"><title>Node127</title>
<g id="a_node9"><a xlink:href="twi_8h.xhtml#a8d8a0d10a7d128428c350f7337191fbd" target="_top" xlink:title="Check if current transmission is completed. ">
<polygon fill="white" stroke="black" points="104,-0.5 104,-19.5 226,-19.5 226,-0.5 104,-0.5"/>
<text text-anchor="middle" x="165" y="-7.5" font-family="Helvetica,sans-Serif" font-size="10.00">TWI_TransferComplete</text>
</a>
</g>
</g>
<!-- Node119&#45;&gt;Node127 -->
<g id="edge8" class="edge"><title>Node119&#45;&gt;Node127</title>
<path fill="none" stroke="midnightblue" d="M38.1255,-133.456C45.7601,-111.632 67.4538,-57.752 104,-29 106.294,-27.1949 108.764,-25.5596 111.346,-24.0784"/>
<polygon fill="midnightblue" stroke="midnightblue" points="113.028,-27.1517 120.472,-19.6127 109.952,-20.864 113.028,-27.1517"/>
</g>
</g>
</svg>
