<?xml version="1.0" encoding="UTF-8" standalone="no"?>
<!DOCTYPE svg PUBLIC "-//W3C//DTD SVG 1.1//EN"
 "http://www.w3.org/Graphics/SVG/1.1/DTD/svg11.dtd">
<!-- Generated by graphviz version 2.38.0 (20140413.2041)
 -->
<!-- Title: TWID_DmaInitialize Pages: 1 -->
<svg width="407pt" height="123pt"
 viewBox="0.00 0.00 407.00 123.00" xmlns="http://www.w3.org/2000/svg" xmlns:xlink="http://www.w3.org/1999/xlink">
<g id="graph0" class="graph" transform="scale(1 1) rotate(0) translate(4 119)">
<title>TWID_DmaInitialize</title>
<polygon fill="white" stroke="none" points="-4,4 -4,-119 403,-119 403,4 -4,4"/>
<!-- Node2 -->
<g id="node1" class="node"><title>Node2</title>
<polygon fill="#bfbfbf" stroke="black" points="0,-48.5 0,-67.5 107,-67.5 107,-48.5 0,-48.5"/>
<text text-anchor="middle" x="53.5" y="-55.5" font-family="Helvetica,sans-Serif" font-size="10.00">TWID_DmaInitialize</text>
</g>
<!-- Node3 -->
<g id="node2" class="node"><title>Node3</title>
<g id="a_node2"><a xlink:href="group___c_m_s_i_s___core___n_v_i_c_functions.xhtml#ga332e10ef9605dc6eb10b9e14511930f8" target="_top" xlink:title="Clear Pending Interrupt. ">
<polygon fill="white" stroke="black" points="275,-95.5 275,-114.5 399,-114.5 399,-95.5 275,-95.5"/>
<text text-anchor="middle" x="337" y="-102.5" font-family="Helvetica,sans-Serif" font-size="10.00">NVIC_ClearPendingIRQ</text>
</a>
</g>
</g>
<!-- Node2&#45;&gt;Node3 -->
<g id="edge1" class="edge"><title>Node2&#45;&gt;Node3</title>
<path fill="none" stroke="midnightblue" d="M71.8295,-67.6657C89.2256,-76.8248 117.09,-90.0402 143,-96 182.592,-105.107 227.919,-107.611 264.694,-107.722"/>
<polygon fill="midnightblue" stroke="midnightblue" points="264.838,-111.222 274.828,-107.693 264.818,-104.222 264.838,-111.222"/>
</g>
<!-- Node4 -->
<g id="node3" class="node"><title>Node4</title>
<g id="a_node3"><a xlink:href="group___c_m_s_i_s___core___n_v_i_c_functions.xhtml#ga2305cbd44aaad792e3a4e538bdaf14f9" target="_top" xlink:title="Set Interrupt Priority. ">
<polygon fill="white" stroke="black" points="289.5,-38.5 289.5,-57.5 384.5,-57.5 384.5,-38.5 289.5,-38.5"/>
<text text-anchor="middle" x="337" y="-45.5" font-family="Helvetica,sans-Serif" font-size="10.00">NVIC_SetPriority</text>
</a>
</g>
</g>
<!-- Node2&#45;&gt;Node4 -->
<g id="edge2" class="edge"><title>Node2&#45;&gt;Node4</title>
<path fill="none" stroke="midnightblue" d="M107.118,-56.1308C156.098,-54.3908 228.905,-51.8044 279.19,-50.0181"/>
<polygon fill="midnightblue" stroke="midnightblue" points="279.378,-53.5137 289.248,-49.6608 279.13,-46.5182 279.378,-53.5137"/>
</g>
<!-- Node5 -->
<g id="node4" class="node"><title>Node5</title>
<g id="a_node4"><a xlink:href="group___c_m_s_i_s___core___n_v_i_c_functions.xhtml#ga3349f2e3580d7ce22d6530b7294e5921" target="_top" xlink:title="Enable External Interrupt. ">
<polygon fill="white" stroke="black" points="290.5,-0.5 290.5,-19.5 383.5,-19.5 383.5,-0.5 290.5,-0.5"/>
<text text-anchor="middle" x="337" y="-7.5" font-family="Helvetica,sans-Serif" font-size="10.00">NVIC_EnableIRQ</text>
</a>
</g>
</g>
<!-- Node2&#45;&gt;Node5 -->
<g id="edge3" class="edge"><title>Node2&#45;&gt;Node5</title>
<path fill="none" stroke="midnightblue" d="M107.118,-49.0279C156.396,-40.6252 229.791,-28.1102 280.105,-19.5309"/>
<polygon fill="midnightblue" stroke="midnightblue" points="280.89,-22.9476 290.16,-17.8165 279.714,-16.0472 280.89,-22.9476"/>
</g>
<!-- Node6 -->
<g id="node5" class="node"><title>Node6</title>
<g id="a_node5"><a xlink:href="group__dmad__functions.xhtml#ga8c7517080f70e93096364e916af6e6f2" target="_top" xlink:title="Initialize xDMA driver instance. ">
<polygon fill="white" stroke="red" points="143,-67.5 143,-86.5 239,-86.5 239,-67.5 143,-67.5"/>
<text text-anchor="middle" x="191" y="-74.5" font-family="Helvetica,sans-Serif" font-size="10.00">XDMAD_Initialize</text>
</a>
</g>
</g>
<!-- Node2&#45;&gt;Node6 -->
<g id="edge4" class="edge"><title>Node2&#45;&gt;Node6</title>
<path fill="none" stroke="midnightblue" d="M107.276,-65.4003C115.623,-66.5707 124.289,-67.7859 132.733,-68.9699"/>
<polygon fill="midnightblue" stroke="midnightblue" points="132.496,-72.4709 142.885,-70.3935 133.468,-65.5387 132.496,-72.4709"/>
</g>
<!-- Node6&#45;&gt;Node3 -->
<g id="edge5" class="edge"><title>Node6&#45;&gt;Node3</title>
<path fill="none" stroke="midnightblue" d="M239.151,-86.1682C251.189,-88.509 264.284,-91.0552 276.84,-93.4967"/>
<polygon fill="midnightblue" stroke="midnightblue" points="276.28,-96.9533 286.764,-95.4264 277.616,-90.082 276.28,-96.9533"/>
</g>
<!-- Node6&#45;&gt;Node4 -->
<g id="edge6" class="edge"><title>Node6&#45;&gt;Node4</title>
<path fill="none" stroke="midnightblue" d="M239.151,-67.5043C251.962,-64.9243 265.97,-62.1033 279.252,-59.4285"/>
<polygon fill="midnightblue" stroke="midnightblue" points="280.123,-62.8234 289.235,-57.418 278.741,-55.9612 280.123,-62.8234"/>
</g>
<!-- Node6&#45;&gt;Node5 -->
<g id="edge7" class="edge"><title>Node6&#45;&gt;Node5</title>
<path fill="none" stroke="midnightblue" d="M206.179,-67.487C222.307,-56.983 249.693,-40.0938 275,-29 280.079,-26.7734 285.502,-24.6917 290.939,-22.7833"/>
<polygon fill="midnightblue" stroke="midnightblue" points="292.29,-26.0223 300.672,-19.5416 290.078,-19.381 292.29,-26.0223"/>
</g>
</g>
</svg>
