<?xml version="1.0" encoding="UTF-8" standalone="no"?>
<!DOCTYPE svg PUBLIC "-//W3C//DTD SVG 1.1//EN"
 "http://www.w3.org/Graphics/SVG/1.1/DTD/svg11.dtd">
<!-- Generated by graphviz version 2.38.0 (20140413.2041)
 -->
<!-- Title: UARTD_Configure Pages: 1 -->
<svg width="427pt" height="180pt"
 viewBox="0.00 0.00 427.00 180.00" xmlns="http://www.w3.org/2000/svg" xmlns:xlink="http://www.w3.org/1999/xlink">
<g id="graph0" class="graph" transform="scale(1 1) rotate(0) translate(4 176)">
<title>UARTD_Configure</title>
<polygon fill="white" stroke="none" points="-4,4 -4,-176 423,-176 423,4 -4,4"/>
<!-- Node0 -->
<g id="node1" class="node"><title>Node0</title>
<polygon fill="#bfbfbf" stroke="black" points="0,-76.5 0,-95.5 100,-95.5 100,-76.5 0,-76.5"/>
<text text-anchor="middle" x="50" y="-83.5" font-family="Helvetica,sans-Serif" font-size="10.00">UARTD_Configure</text>
</g>
<!-- Node1 -->
<g id="node2" class="node"><title>Node1</title>
<g id="a_node2"><a xlink:href="pmc_8h.xhtml#a4154148b8d69545bca1b5c868c004d49" target="_top" xlink:title="Enables the clock of a peripheral. ">
<polygon fill="white" stroke="black" points="136,-152.5 136,-171.5 259,-171.5 259,-152.5 136,-152.5"/>
<text text-anchor="middle" x="197.5" y="-159.5" font-family="Helvetica,sans-Serif" font-size="10.00">PMC_EnablePeripheral</text>
</a>
</g>
</g>
<!-- Node0&#45;&gt;Node1 -->
<g id="edge1" class="edge"><title>Node0&#45;&gt;Node1</title>
<path fill="none" stroke="midnightblue" d="M62.9972,-95.6804C78.8768,-108.097 108.128,-129.622 136,-143 140.597,-145.206 145.51,-147.236 150.475,-149.081"/>
<polygon fill="midnightblue" stroke="midnightblue" points="149.423,-152.421 160.018,-152.399 151.722,-145.809 149.423,-152.421"/>
</g>
<!-- Node2 -->
<g id="node3" class="node"><title>Node2</title>
<g id="a_node3"><a xlink:href="uart_8h.xhtml#ac7edef0d8ae22231b638865c882db8a9" target="_top" xlink:title="Configures an UART peripheral with the specified parameters. ">
<polygon fill="white" stroke="black" points="151.5,-114.5 151.5,-133.5 243.5,-133.5 243.5,-114.5 151.5,-114.5"/>
<text text-anchor="middle" x="197.5" y="-121.5" font-family="Helvetica,sans-Serif" font-size="10.00">UART_Configure</text>
</a>
</g>
</g>
<!-- Node0&#45;&gt;Node2 -->
<g id="edge2" class="edge"><title>Node0&#45;&gt;Node2</title>
<path fill="none" stroke="midnightblue" d="M87.7158,-95.589C106.657,-100.536 129.957,-106.621 150.129,-111.889"/>
<polygon fill="midnightblue" stroke="midnightblue" points="149.488,-115.339 160.048,-114.48 151.257,-108.567 149.488,-115.339"/>
</g>
<!-- Node3 -->
<g id="node4" class="node"><title>Node3</title>
<g id="a_node4"><a xlink:href="group__dmad__functions.xhtml#ga8c7517080f70e93096364e916af6e6f2" target="_top" xlink:title="Initialize xDMA driver instance. ">
<polygon fill="white" stroke="red" points="149.5,-76.5 149.5,-95.5 245.5,-95.5 245.5,-76.5 149.5,-76.5"/>
<text text-anchor="middle" x="197.5" y="-83.5" font-family="Helvetica,sans-Serif" font-size="10.00">XDMAD_Initialize</text>
</a>
</g>
</g>
<!-- Node0&#45;&gt;Node3 -->
<g id="edge3" class="edge"><title>Node0&#45;&gt;Node3</title>
<path fill="none" stroke="midnightblue" d="M100.26,-86C112.75,-86 126.275,-86 139.128,-86"/>
<polygon fill="midnightblue" stroke="midnightblue" points="139.26,-89.5001 149.26,-86 139.26,-82.5001 139.26,-89.5001"/>
</g>
<!-- Node5 -->
<g id="node5" class="node"><title>Node5</title>
<g id="a_node5"><a xlink:href="group___c_m_s_i_s___core___n_v_i_c_functions.xhtml#ga332e10ef9605dc6eb10b9e14511930f8" target="_top" xlink:title="Clear Pending Interrupt. ">
<polygon fill="white" stroke="black" points="295,-57.5 295,-76.5 419,-76.5 419,-57.5 295,-57.5"/>
<text text-anchor="middle" x="357" y="-64.5" font-family="Helvetica,sans-Serif" font-size="10.00">NVIC_ClearPendingIRQ</text>
</a>
</g>
</g>
<!-- Node0&#45;&gt;Node5 -->
<g id="edge6" class="edge"><title>Node0&#45;&gt;Node5</title>
<path fill="none" stroke="midnightblue" d="M85.4487,-76.4921C100.793,-72.7275 119.167,-68.8584 136,-67 185.38,-61.5483 241.376,-61.6365 284.517,-63.0425"/>
<polygon fill="midnightblue" stroke="midnightblue" points="284.516,-66.5446 294.635,-63.4039 284.766,-59.5491 284.516,-66.5446"/>
</g>
<!-- Node8 -->
<g id="node6" class="node"><title>Node8</title>
<g id="a_node6"><a xlink:href="group___c_m_s_i_s___core___n_v_i_c_functions.xhtml#ga47a0f52794068d076c9147aa3cb8d8a6" target="_top" xlink:title="Get Active Interrupt. ">
<polygon fill="white" stroke="red" points="151.5,-0.5 151.5,-19.5 243.5,-19.5 243.5,-0.5 151.5,-0.5"/>
<text text-anchor="middle" x="197.5" y="-7.5" font-family="Helvetica,sans-Serif" font-size="10.00">NVIC_GetActive</text>
</a>
</g>
</g>
<!-- Node0&#45;&gt;Node8 -->
<g id="edge5" class="edge"><title>Node0&#45;&gt;Node8</title>
<path fill="none" stroke="midnightblue" d="M65.0103,-76.3954C81.5195,-65.3247 110.001,-46.9893 136,-34 143.618,-30.1941 151.993,-26.5492 160.02,-23.3003"/>
<polygon fill="midnightblue" stroke="midnightblue" points="161.537,-26.4648 169.564,-19.5496 158.977,-19.9498 161.537,-26.4648"/>
</g>
<!-- Node3&#45;&gt;Node5 -->
<g id="edge4" class="edge"><title>Node3&#45;&gt;Node5</title>
<path fill="none" stroke="midnightblue" d="M245.755,-80.2994C258.03,-78.8186 271.527,-77.1904 284.741,-75.5964"/>
<polygon fill="midnightblue" stroke="midnightblue" points="285.256,-79.0597 294.765,-74.3871 284.417,-72.1101 285.256,-79.0597"/>
</g>
</g>
</svg>
