<?xml version="1.0" encoding="UTF-8" standalone="no"?>
<!DOCTYPE svg PUBLIC "-//W3C//DTD SVG 1.1//EN"
 "http://www.w3.org/Graphics/SVG/1.1/DTD/svg11.dtd">
<!-- Generated by graphviz version 2.38.0 (20140413.2041)
 -->
<!-- Title: UART_SetTransmitterEnabled Pages: 1 -->
<svg width="343pt" height="66pt"
 viewBox="0.00 0.00 343.00 66.00" xmlns="http://www.w3.org/2000/svg" xmlns:xlink="http://www.w3.org/1999/xlink">
<g id="graph0" class="graph" transform="scale(1 1) rotate(0) translate(4 62)">
<title>UART_SetTransmitterEnabled</title>
<polygon fill="white" stroke="none" points="-4,4 -4,-62 339,-62 339,4 -4,4"/>
<!-- Node44 -->
<g id="node1" class="node"><title>Node44</title>
<polygon fill="#bfbfbf" stroke="black" points="0,-19.5 0,-38.5 155,-38.5 155,-19.5 0,-19.5"/>
<text text-anchor="middle" x="77.5" y="-26.5" font-family="Helvetica,sans-Serif" font-size="10.00">UART_SetTransmitterEnabled</text>
</g>
<!-- Node45 -->
<g id="node2" class="node"><title>Node45</title>
<g id="a_node2"><a xlink:href="uart__dma_8c.xhtml#a88e980ec7908f8ac5ca57b1d0028a987" target="_top" xlink:title="This function initialize the appropriate DMA channel for Tx channel of UART. ">
<polygon fill="white" stroke="black" points="192.5,-38.5 192.5,-57.5 333.5,-57.5 333.5,-38.5 192.5,-38.5"/>
<text text-anchor="middle" x="263" y="-45.5" font-family="Helvetica,sans-Serif" font-size="10.00">UARTD_EnableTxChannels</text>
</a>
</g>
</g>
<!-- Node44&#45;&gt;Node45 -->
<g id="edge1" class="edge"><title>Node44&#45;&gt;Node45</title>
<path fill="none" stroke="midnightblue" d="M165.392,-37.997C174.408,-38.9305 183.487,-39.8706 192.279,-40.7809"/>
<polygon fill="midnightblue" stroke="midnightblue" points="165.565,-34.4962 155.257,-36.9476 164.844,-41.459 165.565,-34.4962"/>
</g>
<!-- Node46 -->
<g id="node3" class="node"><title>Node46</title>
<g id="a_node3"><a xlink:href="uart__dma_8c.xhtml#a9b0fc44709de4abbf35be9aac35d689f" target="_top" xlink:title="This function disables the appropriate DMA channel for Tx channel of USART. ">
<polygon fill="white" stroke="black" points="191,-0.5 191,-19.5 335,-19.5 335,-0.5 191,-0.5"/>
<text text-anchor="middle" x="263" y="-7.5" font-family="Helvetica,sans-Serif" font-size="10.00">UARTD_DisableTxChannels</text>
</a>
</g>
</g>
<!-- Node44&#45;&gt;Node46 -->
<g id="edge2" class="edge"><title>Node44&#45;&gt;Node46</title>
<path fill="none" stroke="midnightblue" d="M165.264,-20.0163C173.826,-19.1298 182.446,-18.2372 190.824,-17.3697"/>
<polygon fill="midnightblue" stroke="midnightblue" points="164.844,-16.541 155.257,-21.0524 165.565,-23.5038 164.844,-16.541"/>
</g>
</g>
</svg>
