<?xml version="1.0" encoding="UTF-8" standalone="no"?>
<!DOCTYPE svg PUBLIC "-//W3C//DTD SVG 1.1//EN"
 "http://www.w3.org/Graphics/SVG/1.1/DTD/svg11.dtd">
<!-- Generated by graphviz version 2.38.0 (20140413.2041)
 -->
<!-- Title: UARTD_DisableTxChannels Pages: 1 -->
<svg width="343pt" height="142pt"
 viewBox="0.00 0.00 343.00 142.00" xmlns="http://www.w3.org/2000/svg" xmlns:xlink="http://www.w3.org/1999/xlink">
<g id="graph0" class="graph" transform="scale(1 1) rotate(0) translate(4 138)">
<title>UARTD_DisableTxChannels</title>
<polygon fill="white" stroke="none" points="-4,4 -4,-138 339,-138 339,4 -4,4"/>
<!-- Node65 -->
<g id="node1" class="node"><title>Node65</title>
<polygon fill="#bfbfbf" stroke="black" points="0,-57.5 0,-76.5 144,-76.5 144,-57.5 0,-57.5"/>
<text text-anchor="middle" x="72" y="-64.5" font-family="Helvetica,sans-Serif" font-size="10.00">UARTD_DisableTxChannels</text>
</g>
<!-- Node66 -->
<g id="node2" class="node"><title>Node66</title>
<g id="a_node2"><a xlink:href="uart_8h.xhtml#a77a2772d898640ae4426f747ed18b3ad" target="_top" xlink:title="Enables or disables the transmitter of an UART peripheral. ">
<polygon fill="white" stroke="black" points="180,-114.5 180,-133.5 335,-133.5 335,-114.5 180,-114.5"/>
<text text-anchor="middle" x="257.5" y="-121.5" font-family="Helvetica,sans-Serif" font-size="10.00">UART_SetTransmitterEnabled</text>
</a>
</g>
</g>
<!-- Node65&#45;&gt;Node66 -->
<g id="edge1" class="edge"><title>Node65&#45;&gt;Node66</title>
<path fill="none" stroke="midnightblue" d="M97.8499,-76.6045C119.391,-84.742 151.496,-96.4213 180,-105 188.1,-107.438 196.748,-109.806 205.208,-111.996"/>
<polygon fill="midnightblue" stroke="midnightblue" points="204.455,-115.416 215.008,-114.479 206.174,-108.63 204.455,-115.416"/>
</g>
<!-- Node67 -->
<g id="node3" class="node"><title>Node67</title>
<g id="a_node3"><a xlink:href="group__dmad__functions.xhtml#ga6be5cec75618250adb227d7588ae7078" target="_top" xlink:title="Stop DMA transfer. ">
<polygon fill="white" stroke="red" points="198.5,-76.5 198.5,-95.5 316.5,-95.5 316.5,-76.5 198.5,-76.5"/>
<text text-anchor="middle" x="257.5" y="-83.5" font-family="Helvetica,sans-Serif" font-size="10.00">XDMAD_StopTransfer</text>
</a>
</g>
</g>
<!-- Node65&#45;&gt;Node67 -->
<g id="edge2" class="edge"><title>Node65&#45;&gt;Node67</title>
<path fill="none" stroke="midnightblue" d="M144.209,-74.3731C158.638,-75.8672 173.783,-77.4353 188.113,-78.919"/>
<polygon fill="midnightblue" stroke="midnightblue" points="188.074,-82.4337 198.381,-79.9823 188.795,-75.4709 188.074,-82.4337"/>
</g>
<!-- Node72 -->
<g id="node4" class="node"><title>Node72</title>
<g id="a_node4"><a xlink:href="group__dmad__functions.xhtml#gaa0af49f87c84aaa20bee1f055d31ad2d" target="_top" xlink:title="Set the callback function for xDMA channel transfer. ">
<polygon fill="white" stroke="black" points="200.5,-38.5 200.5,-57.5 314.5,-57.5 314.5,-38.5 200.5,-38.5"/>
<text text-anchor="middle" x="257.5" y="-45.5" font-family="Helvetica,sans-Serif" font-size="10.00">XDMAD_SetCallback</text>
</a>
</g>
</g>
<!-- Node65&#45;&gt;Node72 -->
<g id="edge3" class="edge"><title>Node65&#45;&gt;Node72</title>
<path fill="none" stroke="midnightblue" d="M144.209,-59.6269C159.352,-58.059 175.281,-56.4096 190.231,-54.8616"/>
<polygon fill="midnightblue" stroke="midnightblue" points="190.816,-58.3199 200.402,-53.8085 190.095,-51.3571 190.816,-58.3199"/>
</g>
<!-- Node73 -->
<g id="node5" class="node"><title>Node73</title>
<g id="a_node5"><a xlink:href="group__dmad__functions.xhtml#ga2a3178c1d2615b7a4d7a0005662cdd89" target="_top" xlink:title="Free the specified xDMA channel. ">
<polygon fill="white" stroke="black" points="199,-0.5 199,-19.5 316,-19.5 316,-0.5 199,-0.5"/>
<text text-anchor="middle" x="257.5" y="-7.5" font-family="Helvetica,sans-Serif" font-size="10.00">XDMAD_FreeChannel</text>
</a>
</g>
</g>
<!-- Node65&#45;&gt;Node73 -->
<g id="edge4" class="edge"><title>Node65&#45;&gt;Node73</title>
<path fill="none" stroke="midnightblue" d="M97.8499,-57.3955C119.391,-49.258 151.496,-37.5787 180,-29 188.1,-26.5622 196.748,-24.1939 205.208,-22.0037"/>
<polygon fill="midnightblue" stroke="midnightblue" points="206.174,-25.3696 215.008,-19.5209 204.455,-18.584 206.174,-25.3696"/>
</g>
</g>
</svg>
