<?xml version="1.0" encoding="UTF-8" standalone="no"?>
<!DOCTYPE svg PUBLIC "-//W3C//DTD SVG 1.1//EN"
 "http://www.w3.org/Graphics/SVG/1.1/DTD/svg11.dtd">
<!-- Generated by graphviz version 2.38.0 (20140413.2041)
 -->
<!-- Title: UART_IsRxReady Pages: 1 -->
<svg width="224pt" height="66pt"
 viewBox="0.00 0.00 224.00 66.00" xmlns="http://www.w3.org/2000/svg" xmlns:xlink="http://www.w3.org/1999/xlink">
<g id="graph0" class="graph" transform="scale(1 1) rotate(0) translate(4 62)">
<title>UART_IsRxReady</title>
<polygon fill="white" stroke="none" points="-4,4 -4,-62 220,-62 220,4 -4,4"/>
<!-- Node18 -->
<g id="node1" class="node"><title>Node18</title>
<polygon fill="#bfbfbf" stroke="black" points="0,-19.5 0,-38.5 94,-38.5 94,-19.5 0,-19.5"/>
<text text-anchor="middle" x="47" y="-26.5" font-family="Helvetica,sans-Serif" font-size="10.00">UART_IsRxReady</text>
</g>
<!-- Node19 -->
<g id="node2" class="node"><title>Node19</title>
<g id="a_node2"><a xlink:href="uart_8c.xhtml#a8003de31149ba9e3e57eada21fec5fbc" target="_top" xlink:title="Reads and returns a character from the UART. ">
<polygon fill="white" stroke="red" points="130,-38.5 130,-57.5 216,-57.5 216,-38.5 130,-38.5"/>
<text text-anchor="middle" x="173" y="-45.5" font-family="Helvetica,sans-Serif" font-size="10.00">UART_GetChar</text>
</a>
</g>
</g>
<!-- Node18&#45;&gt;Node19 -->
<g id="edge1" class="edge"><title>Node18&#45;&gt;Node19</title>
<path fill="none" stroke="midnightblue" d="M104.201,-37.6114C112.836,-38.9346 121.624,-40.281 129.884,-41.5468"/>
<polygon fill="midnightblue" stroke="midnightblue" points="104.588,-34.1299 94.173,-36.0749 103.528,-41.0492 104.588,-34.1299"/>
</g>
<!-- Node21 -->
<g id="node3" class="node"><title>Node21</title>
<g id="a_node3"><a xlink:href="uart_8c.xhtml#a3c87a55c11e78561fcc351c0ecc6489c" target="_top" xlink:title="Sends one packet of data through the specified UART peripheral. ">
<polygon fill="white" stroke="red" points="130.5,-0.5 130.5,-19.5 215.5,-19.5 215.5,-0.5 130.5,-0.5"/>
<text text-anchor="middle" x="173" y="-7.5" font-family="Helvetica,sans-Serif" font-size="10.00">UART_PutChar</text>
</a>
</g>
</g>
<!-- Node18&#45;&gt;Node21 -->
<g id="edge2" class="edge"><title>Node18&#45;&gt;Node21</title>
<path fill="none" stroke="midnightblue" d="M104.32,-20.3703C113.059,-19.0313 121.949,-17.6691 130.289,-16.3912"/>
<polygon fill="midnightblue" stroke="midnightblue" points="103.528,-16.9508 94.173,-21.9251 104.588,-23.8701 103.528,-16.9508"/>
</g>
</g>
</svg>
