<?xml version="1.0" encoding="UTF-8" standalone="no"?>
<!DOCTYPE svg PUBLIC "-//W3C//DTD SVG 1.1//EN"
 "http://www.w3.org/Graphics/SVG/1.1/DTD/svg11.dtd">
<!-- Generated by graphviz version 2.38.0 (20140413.2041)
 -->
<!-- Title: uhi_msc_scsi_test_unit_ready_done Pages: 1 -->
<svg width="323pt" height="127pt"
 viewBox="0.00 0.00 323.00 126.50" xmlns="http://www.w3.org/2000/svg" xmlns:xlink="http://www.w3.org/1999/xlink">
<g id="graph0" class="graph" transform="scale(1 1) rotate(0) translate(4 122.5)">
<title>uhi_msc_scsi_test_unit_ready_done</title>
<polygon fill="white" stroke="none" points="-4,4 -4,-122.5 319,-122.5 319,4 -4,4"/>
<!-- Node890 -->
<g id="node1" class="node"><title>Node890</title>
<polygon fill="#bfbfbf" stroke="black" points="0,-39 0,-69 127,-69 127,-39 0,-39"/>
<text text-anchor="start" x="8" y="-57" font-family="Helvetica,sans-Serif" font-size="10.00">uhi_msc_scsi_test_unit</text>
<text text-anchor="middle" x="63.5" y="-46" font-family="Helvetica,sans-Serif" font-size="10.00">_ready_done</text>
</g>
<!-- Node891 -->
<g id="node2" class="node"><title>Node891</title>
<g id="a_node2"><a xlink:href="uhi__msc_8c.xhtml#a5b7c8255c93b911718d79f7bd85e7de1" target="_top" xlink:title="Sends the CBW packet of the scsi REQUESRT SENSE command Called by TEST UNIT READY and READ CAPACITY c...">
<polygon fill="white" stroke="red" points="178,-88 178,-118 300,-118 300,-88 178,-88"/>
<text text-anchor="start" x="186" y="-106" font-family="Helvetica,sans-Serif" font-size="10.00">uhi_msc_scsi_request</text>
<text text-anchor="middle" x="239" y="-95" font-family="Helvetica,sans-Serif" font-size="10.00">_sense</text>
</a>
</g>
</g>
<!-- Node890&#45;&gt;Node891 -->
<g id="edge1" class="edge"><title>Node890&#45;&gt;Node891</title>
<path fill="none" stroke="midnightblue" d="M117.971,-69.1014C136.031,-74.2019 156.359,-79.9429 175.081,-85.2305"/>
<polygon fill="midnightblue" stroke="midnightblue" points="174.13,-88.5987 184.705,-87.9484 176.033,-81.8622 174.13,-88.5987"/>
</g>
<!-- Node924 -->
<g id="node3" class="node"><title>Node924</title>
<g id="a_node3"><a xlink:href="uhi__msc_8c.xhtml#afe6c668f44a651c4e81fd30c0ace7ce4" target="_top" xlink:title="Decodes the scsi sense code after an error on TEST UNIT READY command. ">
<polygon fill="white" stroke="red" points="175.5,-39 175.5,-69 302.5,-69 302.5,-39 175.5,-39"/>
<text text-anchor="start" x="183.5" y="-57" font-family="Helvetica,sans-Serif" font-size="10.00">uhi_msc_scsi_test_unit</text>
<text text-anchor="middle" x="239" y="-46" font-family="Helvetica,sans-Serif" font-size="10.00">_ready_sense</text>
</a>
</g>
</g>
<!-- Node890&#45;&gt;Node924 -->
<g id="edge2" class="edge"><title>Node890&#45;&gt;Node924</title>
<path fill="none" stroke="midnightblue" d="M127.137,-54C139.545,-54 152.667,-54 165.374,-54"/>
<polygon fill="midnightblue" stroke="midnightblue" points="165.454,-57.5001 175.454,-54 165.454,-50.5001 165.454,-57.5001"/>
</g>
<!-- Node926 -->
<g id="node4" class="node"><title>Node926</title>
<g id="a_node4"><a xlink:href="uhi__msc_8c.xhtml#ac2339d091ff134f06cf5f9cbb0185cb3" target="_top" xlink:title="Sends the CBW packet of the scsi READ CAPACITY command. ">
<polygon fill="white" stroke="red" points="163,-0.5 163,-19.5 315,-19.5 315,-0.5 163,-0.5"/>
<text text-anchor="middle" x="239" y="-7.5" font-family="Helvetica,sans-Serif" font-size="10.00">uhi_msc_scsi_read_capacity</text>
</a>
</g>
</g>
<!-- Node890&#45;&gt;Node926 -->
<g id="edge3" class="edge"><title>Node890&#45;&gt;Node926</title>
<path fill="none" stroke="midnightblue" d="M123.724,-38.9808C145.573,-33.4396 170.022,-27.2393 190.682,-22.0001"/>
<polygon fill="midnightblue" stroke="midnightblue" points="191.658,-25.3633 200.491,-19.5124 189.937,-18.5781 191.658,-25.3633"/>
</g>
</g>
</svg>
