<?xml version="1.0" encoding="UTF-8" standalone="no"?>
<!DOCTYPE svg PUBLIC "-//W3C//DTD SVG 1.1//EN"
 "http://www.w3.org/Graphics/SVG/1.1/DTD/svg11.dtd">
<!-- Generated by graphviz version 2.38.0 (20140413.2041)
 -->
<!-- Title: uhi_msc_enable_step3 Pages: 1 -->
<svg width="458pt" height="122pt"
 viewBox="0.00 0.00 458.00 122.00" xmlns="http://www.w3.org/2000/svg" xmlns:xlink="http://www.w3.org/1999/xlink">
<g id="graph0" class="graph" transform="scale(1 1) rotate(0) translate(4 118)">
<title>uhi_msc_enable_step3</title>
<polygon fill="white" stroke="none" points="-4,4 -4,-118 454,-118 454,4 -4,4"/>
<!-- Node414 -->
<g id="node1" class="node"><title>Node414</title>
<polygon fill="#bfbfbf" stroke="black" points="0,-47.5 0,-66.5 126,-66.5 126,-47.5 0,-47.5"/>
<text text-anchor="middle" x="63" y="-54.5" font-family="Helvetica,sans-Serif" font-size="10.00">uhi_msc_enable_step3</text>
</g>
<!-- Node415 -->
<g id="node2" class="node"><title>Node415</title>
<g id="a_node2"><a xlink:href="uhi__msc_8c.xhtml#a291983a87ab06a4d4aa77896e5cd9fd3" target="_top" xlink:title="Step 2 of the initialization of a USB MSC device Decode the setup request GET_MAX_LUN and allocs LUN ...">
<polygon fill="white" stroke="red" points="162,-94.5 162,-113.5 288,-113.5 288,-94.5 162,-94.5"/>
<text text-anchor="middle" x="225" y="-101.5" font-family="Helvetica,sans-Serif" font-size="10.00">uhi_msc_enable_step2</text>
</a>
</g>
</g>
<!-- Node414&#45;&gt;Node415 -->
<g id="edge1" class="edge"><title>Node414&#45;&gt;Node415</title>
<path fill="none" stroke="midnightblue" d="M106.207,-69.3982C132.869,-77.2304 166.804,-87.1988 191.396,-94.4224"/>
<polygon fill="midnightblue" stroke="midnightblue" points="106.959,-65.9715 96.3784,-66.5112 104.987,-72.6878 106.959,-65.9715"/>
</g>
<!-- Node418 -->
<g id="node3" class="node"><title>Node418</title>
<g id="a_node3"><a xlink:href="uhi__msc_8c.xhtml#ac95ce59659e65907d582bccbabe47522" target="_top" xlink:title="Step 4 of the initialization of a USB MSC device Sends the SCSI READ CAPACITY request on the current ...">
<polygon fill="white" stroke="black" points="324,-47.5 324,-66.5 450,-66.5 450,-47.5 324,-47.5"/>
<text text-anchor="middle" x="387" y="-54.5" font-family="Helvetica,sans-Serif" font-size="10.00">uhi_msc_enable_step4</text>
</a>
</g>
</g>
<!-- Node414&#45;&gt;Node418 -->
<g id="edge2" class="edge"><title>Node414&#45;&gt;Node418</title>
<path fill="none" stroke="midnightblue" d="M136.358,-51.2571C192.748,-49.826 270.215,-49.9201 323.832,-51.5395"/>
<polygon fill="midnightblue" stroke="midnightblue" points="135.984,-47.766 126.085,-51.542 136.178,-54.7633 135.984,-47.766"/>
</g>
<!-- Node419 -->
<g id="node4" class="node"><title>Node419</title>
<g id="a_node4"><a xlink:href="uhi__msc_8c.xhtml#a0920da8c6f19a6a5fc403687174cd525" target="_top" xlink:title="Step 5 of the initialization of a USB MSC device Go to the initialization of the next LUN...">
<polygon fill="white" stroke="black" points="162,-0.5 162,-19.5 288,-19.5 288,-0.5 162,-0.5"/>
<text text-anchor="middle" x="225" y="-7.5" font-family="Helvetica,sans-Serif" font-size="10.00">uhi_msc_enable_step5</text>
</a>
</g>
</g>
<!-- Node414&#45;&gt;Node419 -->
<g id="edge4" class="edge"><title>Node414&#45;&gt;Node419</title>
<path fill="none" stroke="midnightblue" d="M106.207,-44.6018C132.869,-36.7696 166.804,-26.8012 191.396,-19.5776"/>
<polygon fill="midnightblue" stroke="midnightblue" points="104.987,-41.3122 96.3784,-47.4888 106.959,-48.0285 104.987,-41.3122"/>
</g>
<!-- Node418&#45;&gt;Node414 -->
<g id="edge3" class="edge"><title>Node418&#45;&gt;Node414</title>
<path fill="none" stroke="midnightblue" d="M313.554,-62.7452C257.142,-64.1747 179.677,-64.0789 126.085,-62.458"/>
<polygon fill="midnightblue" stroke="midnightblue" points="313.932,-66.2361 323.832,-62.4605 313.739,-59.2388 313.932,-66.2361"/>
</g>
<!-- Node419&#45;&gt;Node418 -->
<g id="edge5" class="edge"><title>Node419&#45;&gt;Node418</title>
<path fill="none" stroke="midnightblue" d="M268.207,-22.3982C294.869,-30.2304 328.804,-40.1988 353.396,-47.4224"/>
<polygon fill="midnightblue" stroke="midnightblue" points="268.959,-18.9715 258.378,-19.5112 266.987,-25.6878 268.959,-18.9715"/>
</g>
</g>
</svg>
