<?xml version="1.0" encoding="UTF-8" standalone="no"?>
<!DOCTYPE svg PUBLIC "-//W3C//DTD SVG 1.1//EN"
 "http://www.w3.org/Graphics/SVG/1.1/DTD/svg11.dtd">
<!-- Generated by graphviz version 2.38.0 (20140413.2041)
 -->
<!-- Title: uhi_msc_scsi_mode_sense6 Pages: 1 -->
<svg width="378pt" height="66pt"
 viewBox="0.00 0.00 378.00 66.00" xmlns="http://www.w3.org/2000/svg" xmlns:xlink="http://www.w3.org/1999/xlink">
<g id="graph0" class="graph" transform="scale(1 1) rotate(0) translate(4 62)">
<title>uhi_msc_scsi_mode_sense6</title>
<polygon fill="white" stroke="none" points="-4,4 -4,-62 374,-62 374,4 -4,4"/>
<!-- Node659 -->
<g id="node1" class="node"><title>Node659</title>
<polygon fill="#bfbfbf" stroke="black" points="0,-19.5 0,-38.5 152,-38.5 152,-19.5 0,-19.5"/>
<text text-anchor="middle" x="76" y="-26.5" font-family="Helvetica,sans-Serif" font-size="10.00">uhi_msc_scsi_mode_sense6</text>
</g>
<!-- Node660 -->
<g id="node2" class="node"><title>Node660</title>
<g id="a_node2"><a xlink:href="uhi__msc_8c.xhtml#ae40b333993e7c9aba64dc65f41ede8c4" target="_top" xlink:title="Sends the CBW packet. ">
<polygon fill="white" stroke="red" points="239,-38.5 239,-57.5 319,-57.5 319,-38.5 239,-38.5"/>
<text text-anchor="middle" x="279" y="-45.5" font-family="Helvetica,sans-Serif" font-size="10.00">uhi_msc_scsi</text>
</a>
</g>
</g>
<!-- Node659&#45;&gt;Node660 -->
<g id="edge1" class="edge"><title>Node659&#45;&gt;Node660</title>
<path fill="none" stroke="midnightblue" d="M152.131,-36.1019C177.659,-38.515 205.523,-41.149 228.531,-43.3238"/>
<polygon fill="midnightblue" stroke="midnightblue" points="228.449,-46.8316 238.734,-44.2883 229.108,-39.8627 228.449,-46.8316"/>
</g>
<!-- Node691 -->
<g id="node3" class="node"><title>Node691</title>
<g id="a_node3"><a xlink:href="uhi__msc_8c.xhtml#a3764f3446d9775702f9702d3eb751133" target="_top" xlink:title="Decodes the result of scsi MODE SENSE 6 command. ">
<polygon fill="white" stroke="black" points="188,-0.5 188,-19.5 370,-19.5 370,-0.5 188,-0.5"/>
<text text-anchor="middle" x="279" y="-7.5" font-family="Helvetica,sans-Serif" font-size="10.00">uhi_msc_scsi_mode_sense6_done</text>
</a>
</g>
</g>
<!-- Node659&#45;&gt;Node691 -->
<g id="edge2" class="edge"><title>Node659&#45;&gt;Node691</title>
<path fill="none" stroke="midnightblue" d="M152.131,-21.8981C160.466,-21.1102 169.05,-20.2987 177.633,-19.4874"/>
<polygon fill="midnightblue" stroke="midnightblue" points="178.067,-22.9621 187.693,-18.5365 177.408,-15.9932 178.067,-22.9621"/>
</g>
</g>
</svg>
