<?xml version="1.0" encoding="UTF-8" standalone="no"?>
<!DOCTYPE svg PUBLIC "-//W3C//DTD SVG 1.1//EN"
 "http://www.w3.org/Graphics/SVG/1.1/DTD/svg11.dtd">
<!-- Generated by graphviz version 2.38.0 (20140413.2041)
 -->
<!-- Title: uhi_msc_csw_wait Pages: 1 -->
<svg width="272pt" height="66pt"
 viewBox="0.00 0.00 272.00 66.00" xmlns="http://www.w3.org/2000/svg" xmlns:xlink="http://www.w3.org/1999/xlink">
<g id="graph0" class="graph" transform="scale(1 1) rotate(0) translate(4 62)">
<title>uhi_msc_csw_wait</title>
<polygon fill="white" stroke="none" points="-4,4 -4,-62 268,-62 268,4 -4,4"/>
<!-- Node123 -->
<g id="node1" class="node"><title>Node123</title>
<polygon fill="#bfbfbf" stroke="black" points="0,-19.5 0,-38.5 103,-38.5 103,-19.5 0,-19.5"/>
<text text-anchor="middle" x="51.5" y="-26.5" font-family="Helvetica,sans-Serif" font-size="10.00">uhi_msc_csw_wait</text>
</g>
<!-- Node124 -->
<g id="node2" class="node"><title>Node124</title>
<g id="a_node2"><a xlink:href="uhi__msc_8c.xhtml#a5881034b17cf48e25997e6ad271f5720" target="_top" xlink:title="Start a transfer on an endpoint of current USB MSC device Used to send a CBW packet, DATA packet, or a CSW packet. ">
<polygon fill="white" stroke="red" points="152,-38.5 152,-57.5 251,-57.5 251,-38.5 152,-38.5"/>
<text text-anchor="middle" x="201.5" y="-45.5" font-family="Helvetica,sans-Serif" font-size="10.00">uhi_msc_transfer</text>
</a>
</g>
</g>
<!-- Node123&#45;&gt;Node124 -->
<g id="edge1" class="edge"><title>Node123&#45;&gt;Node124</title>
<path fill="none" stroke="midnightblue" d="M103.019,-35.4856C115.441,-37.0803 128.848,-38.8015 141.627,-40.442"/>
<polygon fill="midnightblue" stroke="midnightblue" points="141.345,-43.9344 151.709,-41.7363 142.236,-36.9914 141.345,-43.9344"/>
</g>
<!-- Node140 -->
<g id="node3" class="node"><title>Node140</title>
<g id="a_node3"><a xlink:href="uhi__msc_8c.xhtml#a19a9a79cd89aacd88ca76ea2e27eaecf" target="_top" xlink:title="Checks the CSW packet transfer. ">
<polygon fill="white" stroke="red" points="139,-0.5 139,-19.5 264,-19.5 264,-0.5 139,-0.5"/>
<text text-anchor="middle" x="201.5" y="-7.5" font-family="Helvetica,sans-Serif" font-size="10.00">uhi_msc_csw_received</text>
</a>
</g>
</g>
<!-- Node123&#45;&gt;Node140 -->
<g id="edge2" class="edge"><title>Node123&#45;&gt;Node140</title>
<path fill="none" stroke="midnightblue" d="M103.019,-22.5144C111.325,-21.4481 120.071,-20.3253 128.775,-19.2079"/>
<polygon fill="midnightblue" stroke="midnightblue" points="129.472,-22.6472 138.945,-17.9023 128.581,-15.7042 129.472,-22.6472"/>
</g>
</g>
</svg>
