<?xml version="1.0" encoding="UTF-8" standalone="no"?>
<!DOCTYPE svg PUBLIC "-//W3C//DTD SVG 1.1//EN"
 "http://www.w3.org/Graphics/SVG/1.1/DTD/svg11.dtd">
<!-- Generated by graphviz version 2.38.0 (20140413.2041)
 -->
<!-- Title: USARTD_EnableRxChannels Pages: 1 -->
<svg width="341pt" height="294pt"
 viewBox="0.00 0.00 341.00 294.00" xmlns="http://www.w3.org/2000/svg" xmlns:xlink="http://www.w3.org/1999/xlink">
<g id="graph0" class="graph" transform="scale(1 1) rotate(0) translate(4 290)">
<title>USARTD_EnableRxChannels</title>
<polygon fill="white" stroke="none" points="-4,4 -4,-290 337,-290 337,4 -4,4"/>
<!-- Node51 -->
<g id="node1" class="node"><title>Node51</title>
<polygon fill="#bfbfbf" stroke="black" points="0,-133.5 0,-152.5 149,-152.5 149,-133.5 0,-133.5"/>
<text text-anchor="middle" x="74.5" y="-140.5" font-family="Helvetica,sans-Serif" font-size="10.00">USARTD_EnableRxChannels</text>
</g>
<!-- Node52 -->
<g id="node2" class="node"><title>Node52</title>
<g id="a_node2"><a xlink:href="usart_8h.xhtml#a246df8753ea10e0ac19913c1dac062fb" target="_top" xlink:title="Enables or disables the receiver of an USART peripheral. ">
<polygon fill="white" stroke="black" points="185,-266.5 185,-285.5 333,-285.5 333,-266.5 185,-266.5"/>
<text text-anchor="middle" x="259" y="-273.5" font-family="Helvetica,sans-Serif" font-size="10.00">USART_SetReceiverEnabled</text>
</a>
</g>
</g>
<!-- Node51&#45;&gt;Node52 -->
<g id="edge1" class="edge"><title>Node51&#45;&gt;Node52</title>
<path fill="none" stroke="midnightblue" d="M81.9011,-152.663C97.0476,-174.739 137.41,-229.111 185,-257 188.686,-259.16 192.618,-261.078 196.674,-262.781"/>
<polygon fill="midnightblue" stroke="midnightblue" points="195.711,-266.158 206.304,-266.376 198.159,-259.6 195.711,-266.158"/>
</g>
<!-- Node53 -->
<g id="node3" class="node"><title>Node53</title>
<g id="a_node3"><a xlink:href="group__dmad__functions.xhtml#ga0b94c48d2200e3be27ea16cfd1207912" target="_top" xlink:title="Allocate a XDMA channel for upper layer. ">
<polygon fill="white" stroke="red" points="191.5,-228.5 191.5,-247.5 326.5,-247.5 326.5,-228.5 191.5,-228.5"/>
<text text-anchor="middle" x="259" y="-235.5" font-family="Helvetica,sans-Serif" font-size="10.00">XDMAD_AllocateChannel</text>
</a>
</g>
</g>
<!-- Node51&#45;&gt;Node53 -->
<g id="edge2" class="edge"><title>Node51&#45;&gt;Node53</title>
<path fill="none" stroke="midnightblue" d="M86.5066,-152.65C105.376,-168.709 145.679,-200.934 185,-219 190.26,-221.417 195.88,-223.565 201.579,-225.466"/>
<polygon fill="midnightblue" stroke="midnightblue" points="200.607,-228.829 211.195,-228.436 202.673,-222.141 200.607,-228.829"/>
</g>
<!-- Node58 -->
<g id="node4" class="node"><title>Node58</title>
<g id="a_node4"><a xlink:href="group__dmad__functions.xhtml#gaa0af49f87c84aaa20bee1f055d31ad2d" target="_top" xlink:title="Set the callback function for xDMA channel transfer. ">
<polygon fill="white" stroke="black" points="202,-190.5 202,-209.5 316,-209.5 316,-190.5 202,-190.5"/>
<text text-anchor="middle" x="259" y="-197.5" font-family="Helvetica,sans-Serif" font-size="10.00">XDMAD_SetCallback</text>
</a>
</g>
</g>
<!-- Node51&#45;&gt;Node58 -->
<g id="edge3" class="edge"><title>Node51&#45;&gt;Node58</title>
<path fill="none" stroke="midnightblue" d="M101.416,-152.646C123.485,-160.702 156.114,-172.244 185,-181 192.752,-183.35 201.019,-185.673 209.1,-187.846"/>
<polygon fill="midnightblue" stroke="midnightblue" points="208.256,-191.243 218.818,-190.413 210.044,-184.475 208.256,-191.243"/>
</g>
<!-- Node59 -->
<g id="node5" class="node"><title>Node59</title>
<g id="a_node5"><a xlink:href="usart__dma_8c.xhtml#a2c942c9e172c4b51eb87fbdefa14c8ad" target="_top" xlink:title="USART xDMA Rx callback Invoked on USART DMA reception done. ">
<polygon fill="white" stroke="red" points="214,-152.5 214,-171.5 304,-171.5 304,-152.5 214,-152.5"/>
<text text-anchor="middle" x="259" y="-159.5" font-family="Helvetica,sans-Serif" font-size="10.00">USARTD_Rx_Cb</text>
</a>
</g>
</g>
<!-- Node51&#45;&gt;Node59 -->
<g id="edge4" class="edge"><title>Node51&#45;&gt;Node59</title>
<path fill="none" stroke="midnightblue" d="M149.204,-150.673C167.391,-152.567 186.544,-154.561 203.625,-156.339"/>
<polygon fill="midnightblue" stroke="midnightblue" points="203.657,-159.861 213.965,-157.416 204.382,-152.899 203.657,-159.861"/>
</g>
<!-- Node64 -->
<g id="node6" class="node"><title>Node64</title>
<g id="a_node6"><a xlink:href="group__dmad__functions.xhtml#ga2a7947467c04eb39abee2471d846ee35" target="_top" xlink:title="Enable clock of the xDMA peripheral, Enable the dma peripheral, configure configuration register for ...">
<polygon fill="white" stroke="red" points="192,-114.5 192,-133.5 326,-133.5 326,-114.5 192,-114.5"/>
<text text-anchor="middle" x="259" y="-121.5" font-family="Helvetica,sans-Serif" font-size="10.00">XDMAD_PrepareChannel</text>
</a>
</g>
</g>
<!-- Node51&#45;&gt;Node64 -->
<g id="edge5" class="edge"><title>Node51&#45;&gt;Node64</title>
<path fill="none" stroke="midnightblue" d="M149.204,-135.327C159.924,-134.211 170.98,-133.06 181.75,-131.938"/>
<polygon fill="midnightblue" stroke="midnightblue" points="182.383,-135.391 191.967,-130.875 181.658,-128.429 182.383,-135.391"/>
</g>
<!-- Node77 -->
<g id="node7" class="node"><title>Node77</title>
<g id="a_node7"><a xlink:href="usart__dma_8c.xhtml#a850d3378fd0a34d99a0ce5888a83a8eb" target="_top" xlink:title="Configure the USART Rx DMA Destination with Linker List mode. ">
<polygon fill="white" stroke="red" points="208.5,-76.5 208.5,-95.5 309.5,-95.5 309.5,-76.5 208.5,-76.5"/>
<text text-anchor="middle" x="259" y="-83.5" font-family="Helvetica,sans-Serif" font-size="10.00">_configureRxDma</text>
</a>
</g>
</g>
<!-- Node51&#45;&gt;Node77 -->
<g id="edge6" class="edge"><title>Node51&#45;&gt;Node77</title>
<path fill="none" stroke="midnightblue" d="M101.416,-133.354C123.485,-125.298 156.114,-113.756 185,-105 192.752,-102.65 201.019,-100.327 209.1,-98.1541"/>
<polygon fill="midnightblue" stroke="midnightblue" points="210.044,-101.525 218.818,-95.5871 208.256,-94.7572 210.044,-101.525"/>
</g>
<!-- Node85 -->
<g id="node8" class="node"><title>Node85</title>
<g id="a_node8"><a xlink:href="group___c_m_s_i_s___core___n_v_i_c_functions.xhtml#ga47a0f52794068d076c9147aa3cb8d8a6" target="_top" xlink:title="Get Active Interrupt. ">
<polygon fill="white" stroke="red" points="213,-38.5 213,-57.5 305,-57.5 305,-38.5 213,-38.5"/>
<text text-anchor="middle" x="259" y="-45.5" font-family="Helvetica,sans-Serif" font-size="10.00">NVIC_GetActive</text>
</a>
</g>
</g>
<!-- Node51&#45;&gt;Node85 -->
<g id="edge7" class="edge"><title>Node51&#45;&gt;Node85</title>
<path fill="none" stroke="midnightblue" d="M86.5066,-133.35C105.376,-117.291 145.679,-85.0659 185,-67 190.701,-64.3808 196.824,-62.0765 203.013,-60.061"/>
<polygon fill="midnightblue" stroke="midnightblue" points="204.176,-63.366 212.74,-57.1277 202.155,-56.6641 204.176,-63.366"/>
</g>
<!-- Node88 -->
<g id="node9" class="node"><title>Node88</title>
<g id="a_node9"><a xlink:href="group___c_m_s_i_s___core___n_v_i_c_functions.xhtml#ga3349f2e3580d7ce22d6530b7294e5921" target="_top" xlink:title="Enable External Interrupt. ">
<polygon fill="white" stroke="black" points="212.5,-0.5 212.5,-19.5 305.5,-19.5 305.5,-0.5 212.5,-0.5"/>
<text text-anchor="middle" x="259" y="-7.5" font-family="Helvetica,sans-Serif" font-size="10.00">NVIC_EnableIRQ</text>
</a>
</g>
</g>
<!-- Node51&#45;&gt;Node88 -->
<g id="edge8" class="edge"><title>Node51&#45;&gt;Node88</title>
<path fill="none" stroke="midnightblue" d="M81.9011,-133.337C97.0476,-111.261 137.41,-56.8889 185,-29 190.487,-25.7846 196.519,-23.1053 202.692,-20.8745"/>
<polygon fill="midnightblue" stroke="midnightblue" points="204.009,-24.1275 212.45,-17.7256 201.859,-17.4658 204.009,-24.1275"/>
</g>
</g>
</svg>
