<?xml version="1.0" encoding="UTF-8" standalone="no"?>
<!DOCTYPE svg PUBLIC "-//W3C//DTD SVG 1.1//EN"
 "http://www.w3.org/Graphics/SVG/1.1/DTD/svg11.dtd">
<!-- Generated by graphviz version 2.38.0 (20140413.2041)
 -->
<!-- Title: USART_DisableIt Pages: 1 -->
<svg width="247pt" height="104pt"
 viewBox="0.00 0.00 247.00 104.00" xmlns="http://www.w3.org/2000/svg" xmlns:xlink="http://www.w3.org/1999/xlink">
<g id="graph0" class="graph" transform="scale(1 1) rotate(0) translate(4 100)">
<title>USART_DisableIt</title>
<polygon fill="white" stroke="none" points="-4,4 -4,-100 243,-100 243,4 -4,4"/>
<!-- Node20 -->
<g id="node1" class="node"><title>Node20</title>
<polygon fill="#bfbfbf" stroke="black" points="0,-38.5 0,-57.5 95,-57.5 95,-38.5 0,-38.5"/>
<text text-anchor="middle" x="47.5" y="-45.5" font-family="Helvetica,sans-Serif" font-size="10.00">USART_DisableIt</text>
</g>
<!-- Node21 -->
<g id="node2" class="node"><title>Node21</title>
<g id="a_node2"><a xlink:href="xtio__uart_8h.xhtml#a8ba86b040c6e35b8df3244e412f2e689" target="_top" xlink:title="xtio_uart_configure">
<polygon fill="white" stroke="red" points="131,-76.5 131,-95.5 239,-95.5 239,-76.5 131,-76.5"/>
<text text-anchor="middle" x="185" y="-83.5" font-family="Helvetica,sans-Serif" font-size="10.00">xtio_uart_configure</text>
</a>
</g>
</g>
<!-- Node20&#45;&gt;Node21 -->
<g id="edge1" class="edge"><title>Node20&#45;&gt;Node21</title>
<path fill="none" stroke="midnightblue" d="M92.4246,-60.3183C111.041,-65.5393 132.409,-71.5316 149.819,-76.4141"/>
<polygon fill="midnightblue" stroke="midnightblue" points="93.266,-56.9193 82.6924,-57.589 91.3758,-63.6593 93.266,-56.9193"/>
</g>
<!-- Node33 -->
<g id="node3" class="node"><title>Node33</title>
<g id="a_node3"><a xlink:href="xtio__uart_8h.xhtml#abc32e25b3ec0e0d57a0339907d39866b" target="_top" xlink:title="xtio_uart_send">
<polygon fill="white" stroke="red" points="141.5,-38.5 141.5,-57.5 228.5,-57.5 228.5,-38.5 141.5,-38.5"/>
<text text-anchor="middle" x="185" y="-45.5" font-family="Helvetica,sans-Serif" font-size="10.00">xtio_uart_send</text>
</a>
</g>
</g>
<!-- Node20&#45;&gt;Node33 -->
<g id="edge2" class="edge"><title>Node20&#45;&gt;Node33</title>
<path fill="none" stroke="midnightblue" d="M105.163,-48C117.284,-48 129.892,-48 141.377,-48"/>
<polygon fill="midnightblue" stroke="midnightblue" points="105.131,-44.5001 95.1314,-48 105.131,-51.5001 105.131,-44.5001"/>
</g>
<!-- Node35 -->
<g id="node4" class="node"><title>Node35</title>
<g id="a_node4"><a xlink:href="group___s_a_m_e70_j19__cmsis.xhtml#gaa2d1b90cebab6c82cf77533691d52483" target="_top" xlink:title="USART0_Handler">
<polygon fill="white" stroke="black" points="136.5,-0.5 136.5,-19.5 233.5,-19.5 233.5,-0.5 136.5,-0.5"/>
<text text-anchor="middle" x="185" y="-7.5" font-family="Helvetica,sans-Serif" font-size="10.00">USART0_Handler</text>
</a>
</g>
</g>
<!-- Node20&#45;&gt;Node35 -->
<g id="edge3" class="edge"><title>Node20&#45;&gt;Node35</title>
<path fill="none" stroke="midnightblue" d="M92.4246,-35.6817C111.041,-30.4607 132.409,-24.4684 149.819,-19.5859"/>
<polygon fill="midnightblue" stroke="midnightblue" points="91.3758,-32.3407 82.6924,-38.411 93.266,-39.0807 91.3758,-32.3407"/>
</g>
</g>
</svg>
