<?xml version="1.0" encoding="UTF-8" standalone="no"?>
<!DOCTYPE svg PUBLIC "-//W3C//DTD SVG 1.1//EN"
 "http://www.w3.org/Graphics/SVG/1.1/DTD/svg11.dtd">
<!-- Generated by graphviz version 2.38.0 (20140413.2041)
 -->
<!-- Title: USARTD_DisableRxChannels Pages: 1 -->
<svg width="314pt" height="104pt"
 viewBox="0.00 0.00 314.00 104.00" xmlns="http://www.w3.org/2000/svg" xmlns:xlink="http://www.w3.org/1999/xlink">
<g id="graph0" class="graph" transform="scale(1 1) rotate(0) translate(4 100)">
<title>USARTD_DisableRxChannels</title>
<polygon fill="white" stroke="none" points="-4,4 -4,-100 310,-100 310,4 -4,4"/>
<!-- Node24 -->
<g id="node1" class="node"><title>Node24</title>
<polygon fill="#bfbfbf" stroke="black" points="0,-38.5 0,-57.5 152,-57.5 152,-38.5 0,-38.5"/>
<text text-anchor="middle" x="76" y="-45.5" font-family="Helvetica,sans-Serif" font-size="10.00">USARTD_DisableRxChannels</text>
</g>
<!-- Node25 -->
<g id="node2" class="node"><title>Node25</title>
<g id="a_node2"><a xlink:href="group__dmad__functions.xhtml#ga6be5cec75618250adb227d7588ae7078" target="_top" xlink:title="Stop DMA transfer. ">
<polygon fill="white" stroke="red" points="188,-76.5 188,-95.5 306,-95.5 306,-76.5 188,-76.5"/>
<text text-anchor="middle" x="247" y="-83.5" font-family="Helvetica,sans-Serif" font-size="10.00">XDMAD_StopTransfer</text>
</a>
</g>
</g>
<!-- Node24&#45;&gt;Node25 -->
<g id="edge1" class="edge"><title>Node24&#45;&gt;Node25</title>
<path fill="none" stroke="midnightblue" d="M119.646,-57.589C142.148,-62.6487 169.948,-68.8996 193.738,-74.2488"/>
<polygon fill="midnightblue" stroke="midnightblue" points="193.137,-77.7009 203.661,-76.4799 194.672,-70.8714 193.137,-77.7009"/>
</g>
<!-- Node30 -->
<g id="node3" class="node"><title>Node30</title>
<g id="a_node3"><a xlink:href="group__dmad__functions.xhtml#gaa0af49f87c84aaa20bee1f055d31ad2d" target="_top" xlink:title="Set the callback function for xDMA channel transfer. ">
<polygon fill="white" stroke="black" points="190,-38.5 190,-57.5 304,-57.5 304,-38.5 190,-38.5"/>
<text text-anchor="middle" x="247" y="-45.5" font-family="Helvetica,sans-Serif" font-size="10.00">XDMAD_SetCallback</text>
</a>
</g>
</g>
<!-- Node24&#45;&gt;Node30 -->
<g id="edge2" class="edge"><title>Node24&#45;&gt;Node30</title>
<path fill="none" stroke="midnightblue" d="M152.11,-48C161.333,-48 170.708,-48 179.786,-48"/>
<polygon fill="midnightblue" stroke="midnightblue" points="179.887,-51.5001 189.887,-48 179.887,-44.5001 179.887,-51.5001"/>
</g>
<!-- Node31 -->
<g id="node4" class="node"><title>Node31</title>
<g id="a_node4"><a xlink:href="group__dmad__functions.xhtml#ga2a3178c1d2615b7a4d7a0005662cdd89" target="_top" xlink:title="Free the specified xDMA channel. ">
<polygon fill="white" stroke="black" points="188.5,-0.5 188.5,-19.5 305.5,-19.5 305.5,-0.5 188.5,-0.5"/>
<text text-anchor="middle" x="247" y="-7.5" font-family="Helvetica,sans-Serif" font-size="10.00">XDMAD_FreeChannel</text>
</a>
</g>
</g>
<!-- Node24&#45;&gt;Node31 -->
<g id="edge3" class="edge"><title>Node24&#45;&gt;Node31</title>
<path fill="none" stroke="midnightblue" d="M119.646,-38.411C142.148,-33.3513 169.948,-27.1004 193.738,-21.7512"/>
<polygon fill="midnightblue" stroke="midnightblue" points="194.672,-25.1286 203.661,-19.5201 193.137,-18.2991 194.672,-25.1286"/>
</g>
</g>
</svg>
