<?xml version="1.0" encoding="UTF-8" standalone="no"?>
<!DOCTYPE svg PUBLIC "-//W3C//DTD SVG 1.1//EN"
 "http://www.w3.org/Graphics/SVG/1.1/DTD/svg11.dtd">
<!-- Generated by graphviz version 2.38.0 (20140413.2041)
 -->
<!-- Title: USART_Configure Pages: 1 -->
<svg width="250pt" height="66pt"
 viewBox="0.00 0.00 250.00 66.00" xmlns="http://www.w3.org/2000/svg" xmlns:xlink="http://www.w3.org/1999/xlink">
<g id="graph0" class="graph" transform="scale(1 1) rotate(0) translate(4 62)">
<title>USART_Configure</title>
<polygon fill="white" stroke="none" points="-4,4 -4,-62 246,-62 246,4 -4,4"/>
<!-- Node4 -->
<g id="node1" class="node"><title>Node4</title>
<polygon fill="#bfbfbf" stroke="black" points="0,-19.5 0,-38.5 99,-38.5 99,-19.5 0,-19.5"/>
<text text-anchor="middle" x="49.5" y="-26.5" font-family="Helvetica,sans-Serif" font-size="10.00">USART_Configure</text>
</g>
<!-- Node5 -->
<g id="node2" class="node"><title>Node5</title>
<g id="a_node2"><a xlink:href="iso7816__4_8c.xhtml#a31fe7825ff1becdc1db5069d4236b75c" target="_top" xlink:title="Initializes a ISO driver. ">
<polygon fill="white" stroke="black" points="150,-38.5 150,-57.5 227,-57.5 227,-38.5 150,-38.5"/>
<text text-anchor="middle" x="188.5" y="-45.5" font-family="Helvetica,sans-Serif" font-size="10.00">ISO7816_Init</text>
</a>
</g>
</g>
<!-- Node4&#45;&gt;Node5 -->
<g id="edge1" class="edge"><title>Node4&#45;&gt;Node5</title>
<path fill="none" stroke="midnightblue" d="M109.484,-37.1802C123.128,-39.0725 137.286,-41.036 149.736,-42.7626"/>
<polygon fill="midnightblue" stroke="midnightblue" points="109.573,-33.6592 99.1868,-35.7522 108.611,-40.5928 109.573,-33.6592"/>
</g>
<!-- Node6 -->
<g id="node3" class="node"><title>Node6</title>
<g id="a_node3"><a xlink:href="usart__dma_8c.xhtml#a0f760ac1d4ebf29b670399b45ba1ee33" target="_top" xlink:title="Initializes the USARTDma structure and the corresponding USART &amp; DMA . ">
<polygon fill="white" stroke="red" points="135,-0.5 135,-19.5 242,-19.5 242,-0.5 135,-0.5"/>
<text text-anchor="middle" x="188.5" y="-7.5" font-family="Helvetica,sans-Serif" font-size="10.00">USARTD_Configure</text>
</a>
</g>
</g>
<!-- Node4&#45;&gt;Node6 -->
<g id="edge2" class="edge"><title>Node4&#45;&gt;Node6</title>
<path fill="none" stroke="midnightblue" d="M109.361,-20.8368C117.813,-19.6647 126.464,-18.4649 134.786,-17.3107"/>
<polygon fill="midnightblue" stroke="midnightblue" points="108.611,-17.4072 99.1868,-22.2478 109.573,-24.3408 108.611,-17.4072"/>
</g>
</g>
</svg>
