<?xml version="1.0" encoding="UTF-8" standalone="no"?>
<!DOCTYPE svg PUBLIC "-//W3C//DTD SVG 1.1//EN"
 "http://www.w3.org/Graphics/SVG/1.1/DTD/svg11.dtd">
<!-- Generated by graphviz version 2.38.0 (20140413.2041)
 -->
<!-- Title: USBHS_HostGetPipeByteCount Pages: 1 -->
<svg width="357pt" height="66pt"
 viewBox="0.00 0.00 357.00 66.00" xmlns="http://www.w3.org/2000/svg" xmlns:xlink="http://www.w3.org/1999/xlink">
<g id="graph0" class="graph" transform="scale(1 1) rotate(0) translate(4 62)">
<title>USBHS_HostGetPipeByteCount</title>
<polygon fill="white" stroke="none" points="-4,4 -4,-62 353,-62 353,4 -4,4"/>
<!-- Node2088 -->
<g id="node1" class="node"><title>Node2088</title>
<polygon fill="#bfbfbf" stroke="black" points="0,-19.5 0,-38.5 167,-38.5 167,-19.5 0,-19.5"/>
<text text-anchor="middle" x="83.5" y="-26.5" font-family="Helvetica,sans-Serif" font-size="10.00">USBHS_HostGetPipeByteCount</text>
</g>
<!-- Node2089 -->
<g id="node2" class="node"><title>Node2089</title>
<g id="a_node2"><a xlink:href="group__uhd__group.xhtml#gadc3093c163c3229d9343cb5f2f6ef8dd" target="_top" xlink:title="USBH_HAL_PhaseDataIn">
<polygon fill="white" stroke="red" points="208,-38.5 208,-57.5 344,-57.5 344,-38.5 208,-38.5"/>
<text text-anchor="middle" x="276" y="-45.5" font-family="Helvetica,sans-Serif" font-size="10.00">USBH_HAL_PhaseDataIn</text>
</a>
</g>
</g>
<!-- Node2088&#45;&gt;Node2089 -->
<g id="edge1" class="edge"><title>Node2088&#45;&gt;Node2089</title>
<path fill="none" stroke="midnightblue" d="M177.439,-38.2695C187.682,-39.2911 197.96,-40.3163 207.801,-41.2977"/>
<polygon fill="midnightblue" stroke="midnightblue" points="177.523,-34.7606 167.225,-37.2508 176.828,-41.726 177.523,-34.7606"/>
</g>
<!-- Node2092 -->
<g id="node3" class="node"><title>Node2092</title>
<g id="a_node3"><a xlink:href="group__uhd__group.xhtml#gafba473f1b723cdb9500b91ec7fad0207" target="_top" xlink:title="USBH_HAL_PipeInReceived">
<polygon fill="white" stroke="red" points="203,-0.5 203,-19.5 349,-19.5 349,-0.5 203,-0.5"/>
<text text-anchor="middle" x="276" y="-7.5" font-family="Helvetica,sans-Serif" font-size="10.00">USBH_HAL_PipeInReceived</text>
</a>
</g>
</g>
<!-- Node2088&#45;&gt;Node2092 -->
<g id="edge2" class="edge"><title>Node2088&#45;&gt;Node2092</title>
<path fill="none" stroke="midnightblue" d="M177.268,-19.7476C185.848,-18.8918 194.454,-18.0334 202.809,-17.2001"/>
<polygon fill="midnightblue" stroke="midnightblue" points="176.828,-16.274 167.225,-20.7492 177.523,-23.2394 176.828,-16.274"/>
</g>
</g>
</svg>
