<?xml version="1.0" encoding="UTF-8" standalone="no"?>
<!DOCTYPE svg PUBLIC "-//W3C//DTD SVG 1.1//EN"
 "http://www.w3.org/Graphics/SVG/1.1/DTD/svg11.dtd">
<!-- Generated by graphviz version 2.38.0 (20140413.2041)
 -->
<!-- Title: USBHS_HostIntEnable Pages: 1 -->
<svg width="324pt" height="104pt"
 viewBox="0.00 0.00 324.00 104.00" xmlns="http://www.w3.org/2000/svg" xmlns:xlink="http://www.w3.org/1999/xlink">
<g id="graph0" class="graph" transform="scale(1 1) rotate(0) translate(4 100)">
<title>USBHS_HostIntEnable</title>
<polygon fill="white" stroke="none" points="-4,4 -4,-100 320,-100 320,4 -4,4"/>
<!-- Node2237 -->
<g id="node1" class="node"><title>Node2237</title>
<polygon fill="#bfbfbf" stroke="black" points="0,-38.5 0,-57.5 124,-57.5 124,-38.5 0,-38.5"/>
<text text-anchor="middle" x="62" y="-45.5" font-family="Helvetica,sans-Serif" font-size="10.00">USBHS_HostIntEnable</text>
</g>
<!-- Node2238 -->
<g id="node2" class="node"><title>Node2238</title>
<g id="a_node2"><a xlink:href="group__uhd__group.xhtml#gafcd12a00544aac7645deb694ec611e7a" target="_top" xlink:title="USBD (UDP) interrupt handler Manages device resume, suspend, end of bus reset. ">
<polygon fill="white" stroke="black" points="190.5,-76.5 190.5,-95.5 285.5,-95.5 285.5,-76.5 190.5,-76.5"/>
<text text-anchor="middle" x="238" y="-83.5" font-family="Helvetica,sans-Serif" font-size="10.00">USBHS_Handler</text>
</a>
</g>
</g>
<!-- Node2237&#45;&gt;Node2238 -->
<g id="edge1" class="edge"><title>Node2237&#45;&gt;Node2238</title>
<path fill="none" stroke="midnightblue" d="M116.814,-59.7526C141.418,-65.1258 170.187,-71.4086 193.408,-76.4799"/>
<polygon fill="midnightblue" stroke="midnightblue" points="117.424,-56.3033 106.908,-57.589 115.93,-63.1421 117.424,-56.3033"/>
</g>
<!-- Node2239 -->
<g id="node3" class="node"><title>Node2239</title>
<g id="a_node3"><a xlink:href="group__uhd__group.xhtml#ga3a715175934fb8bf3c918f04ef0dae2b" target="_top" xlink:title="Enables the USB host mode Start the ID pin management if the ID pin is available. ...">
<polygon fill="white" stroke="red" points="163.5,-38.5 163.5,-57.5 312.5,-57.5 312.5,-38.5 163.5,-38.5"/>
<text text-anchor="middle" x="238" y="-45.5" font-family="Helvetica,sans-Serif" font-size="10.00">USBH_HAL_EnableUsbHost</text>
</a>
</g>
</g>
<!-- Node2237&#45;&gt;Node2239 -->
<g id="edge2" class="edge"><title>Node2237&#45;&gt;Node2239</title>
<path fill="none" stroke="midnightblue" d="M134.549,-48C144.064,-48 153.835,-48 163.385,-48"/>
<polygon fill="midnightblue" stroke="midnightblue" points="134.346,-44.5001 124.346,-48 134.346,-51.5001 134.346,-44.5001"/>
</g>
<!-- Node2241 -->
<g id="node4" class="node"><title>Node2241</title>
<g id="a_node4"><a xlink:href="group__uhd__group.xhtml#ga170d8082df4bb77da27db090827145ec" target="_top" xlink:title="USBH_HAL_DelayedSuspend">
<polygon fill="white" stroke="red" points="160,-0.5 160,-19.5 316,-19.5 316,-0.5 160,-0.5"/>
<text text-anchor="middle" x="238" y="-7.5" font-family="Helvetica,sans-Serif" font-size="10.00">USBH_HAL_DelayedSuspend</text>
</a>
</g>
</g>
<!-- Node2237&#45;&gt;Node2241 -->
<g id="edge3" class="edge"><title>Node2237&#45;&gt;Node2241</title>
<path fill="none" stroke="midnightblue" d="M116.814,-36.2474C141.418,-30.8742 170.187,-24.5914 193.408,-19.5201"/>
<polygon fill="midnightblue" stroke="midnightblue" points="115.93,-32.8579 106.908,-38.411 117.424,-39.6967 115.93,-32.8579"/>
</g>
</g>
</svg>
