<?xml version="1.0" encoding="UTF-8" standalone="no"?>
<!DOCTYPE svg PUBLIC "-//W3C//DTD SVG 1.1//EN"
 "http://www.w3.org/Graphics/SVG/1.1/DTD/svg11.dtd">
<!-- Generated by graphviz version 2.38.0 (20140413.2041)
 -->
<!-- Title: USBHS_EnableEPIntType Pages: 1 -->
<svg width="311pt" height="294pt"
 viewBox="0.00 0.00 311.00 294.00" xmlns="http://www.w3.org/2000/svg" xmlns:xlink="http://www.w3.org/1999/xlink">
<g id="graph0" class="graph" transform="scale(1 1) rotate(0) translate(4 290)">
<title>USBHS_EnableEPIntType</title>
<polygon fill="white" stroke="none" points="-4,4 -4,-290 307,-290 307,4 -4,4"/>
<!-- Node682 -->
<g id="node1" class="node"><title>Node682</title>
<polygon fill="#bfbfbf" stroke="black" points="0,-133.5 0,-152.5 134,-152.5 134,-133.5 0,-133.5"/>
<text text-anchor="middle" x="67" y="-140.5" font-family="Helvetica,sans-Serif" font-size="10.00">USBHS_EnableEPIntType</text>
</g>
<!-- Node683 -->
<g id="node2" class="node"><title>Node683</title>
<g id="a_node2"><a xlink:href="group__usbd__hal.xhtml#ga81935b1ed57f1d4e636df4565de436a5" target="_top" xlink:title="Sends data through a USB endpoint. ">
<polygon fill="white" stroke="red" points="196.5,-266.5 196.5,-285.5 276.5,-285.5 276.5,-266.5 196.5,-266.5"/>
<text text-anchor="middle" x="236.5" y="-273.5" font-family="Helvetica,sans-Serif" font-size="10.00">UDPHS_Write</text>
</a>
</g>
</g>
<!-- Node682&#45;&gt;Node683 -->
<g id="edge1" class="edge"><title>Node682&#45;&gt;Node683</title>
<path fill="none" stroke="midnightblue" d="M79.4287,-161.191C96.2182,-186.427 129.937,-231.793 170,-257 177.917,-261.981 187.185,-265.698 196.217,-268.455"/>
<polygon fill="midnightblue" stroke="midnightblue" points="82.2252,-159.071 73.8449,-152.588 76.3536,-162.882 82.2252,-159.071"/>
</g>
<!-- Node789 -->
<g id="node3" class="node"><title>Node789</title>
<g id="a_node3"><a xlink:href="group__usbd__hal.xhtml#gada855d5452052e08f36853a81e3b016d" target="_top" xlink:title="Sends data through a USB endpoint. ">
<polygon fill="white" stroke="red" points="193,-228.5 193,-247.5 280,-247.5 280,-228.5 193,-228.5"/>
<text text-anchor="middle" x="236.5" y="-235.5" font-family="Helvetica,sans-Serif" font-size="10.00">UDPHS_AddWr</text>
</a>
</g>
</g>
<!-- Node682&#45;&gt;Node789 -->
<g id="edge2" class="edge"><title>Node682&#45;&gt;Node789</title>
<path fill="none" stroke="midnightblue" d="M85.6193,-159.262C104.979,-176.344 137.644,-202.915 170,-219 177.528,-222.742 185.918,-225.87 194.114,-228.437"/>
<polygon fill="midnightblue" stroke="midnightblue" points="87.9559,-156.656 78.1764,-152.581 83.2798,-161.866 87.9559,-156.656"/>
</g>
<!-- Node790 -->
<g id="node4" class="node"><title>Node790</title>
<g id="a_node4"><a xlink:href="group__usbd__hal.xhtml#gadf1deb2219e27bcf29d2598d4aa04c1d" target="_top" xlink:title="Reads incoming data on an USB endpoint This methods sets the transfer descriptor and activate the end...">
<polygon fill="white" stroke="red" points="196.5,-190.5 196.5,-209.5 276.5,-209.5 276.5,-190.5 196.5,-190.5"/>
<text text-anchor="middle" x="236.5" y="-197.5" font-family="Helvetica,sans-Serif" font-size="10.00">UDPHS_Read</text>
</a>
</g>
</g>
<!-- Node682&#45;&gt;Node790 -->
<g id="edge3" class="edge"><title>Node682&#45;&gt;Node790</title>
<path fill="none" stroke="midnightblue" d="M101.628,-156.245C121.408,-163.856 146.978,-173.384 170,-181 179.892,-184.272 190.723,-187.54 200.679,-190.42"/>
<polygon fill="midnightblue" stroke="midnightblue" points="102.728,-152.918 92.1392,-152.571 100.201,-159.446 102.728,-152.918"/>
</g>
<!-- Node815 -->
<g id="node5" class="node"><title>Node815</title>
<g id="a_node5"><a xlink:href="group__usbd__hal.xhtml#gaa9aba8ccdad2272b61db48b43466043b" target="_top" xlink:title="Reset endpoints and disable them. ">
<polygon fill="white" stroke="red" points="177,-152.5 177,-171.5 296,-171.5 296,-152.5 177,-152.5"/>
<text text-anchor="middle" x="236.5" y="-159.5" font-family="Helvetica,sans-Serif" font-size="10.00">USBD_HAL_ResetEPs</text>
</a>
</g>
</g>
<!-- Node682&#45;&gt;Node815 -->
<g id="edge4" class="edge"><title>Node682&#45;&gt;Node815</title>
<path fill="none" stroke="midnightblue" d="M144.195,-151.643C155.154,-152.886 166.287,-154.149 176.836,-155.346"/>
<polygon fill="midnightblue" stroke="midnightblue" points="144.531,-148.159 134.2,-150.509 143.742,-155.114 144.531,-148.159"/>
</g>
<!-- Node821 -->
<g id="node6" class="node"><title>Node821</title>
<g id="a_node6"><a xlink:href="group__usbd__hal.xhtml#gaf17d4fe67932fa6a5dcc05f4c6d611ff" target="_top" xlink:title="Configures an endpoint according to its endpoint Descriptor. ">
<polygon fill="white" stroke="red" points="170,-114.5 170,-133.5 303,-133.5 303,-114.5 170,-114.5"/>
<text text-anchor="middle" x="236.5" y="-121.5" font-family="Helvetica,sans-Serif" font-size="10.00">USBD_HAL_ConfigureEP</text>
</a>
</g>
</g>
<!-- Node682&#45;&gt;Node821 -->
<g id="edge5" class="edge"><title>Node682&#45;&gt;Node821</title>
<path fill="none" stroke="midnightblue" d="M144.168,-134.36C152.72,-133.39 161.377,-132.408 169.78,-131.455"/>
<polygon fill="midnightblue" stroke="midnightblue" points="143.742,-130.886 134.2,-135.491 144.531,-137.841 143.742,-130.886"/>
</g>
<!-- Node826 -->
<g id="node7" class="node"><title>Node826</title>
<g id="a_node7"><a xlink:href="group__usbd__hal.xhtml#ga8ebf6dcf09581aa66fbfc89862516e60" target="_top" xlink:title="Special write function. ">
<polygon fill="white" stroke="red" points="174.5,-76.5 174.5,-95.5 298.5,-95.5 298.5,-76.5 174.5,-76.5"/>
<text text-anchor="middle" x="236.5" y="-83.5" font-family="Helvetica,sans-Serif" font-size="10.00">USBD_HAL_WrWithHdr</text>
</a>
</g>
</g>
<!-- Node682&#45;&gt;Node826 -->
<g id="edge6" class="edge"><title>Node682&#45;&gt;Node826</title>
<path fill="none" stroke="midnightblue" d="M101.628,-129.755C121.408,-122.144 146.978,-112.616 170,-105 179.892,-101.728 190.723,-98.4598 200.679,-95.5802"/>
<polygon fill="midnightblue" stroke="midnightblue" points="100.201,-126.554 92.1392,-133.429 102.728,-133.082 100.201,-126.554"/>
</g>
<!-- Node827 -->
<g id="node8" class="node"><title>Node827</title>
<g id="a_node8"><a xlink:href="group__usbd__hal.xhtml#gad95d239687843031e2af3aac51ba33ad" target="_top" xlink:title="Causes the given endpoint to acknowledge the next packet it receives with a STALL handshake except se...">
<polygon fill="white" stroke="red" points="188.5,-38.5 188.5,-57.5 284.5,-57.5 284.5,-38.5 188.5,-38.5"/>
<text text-anchor="middle" x="236.5" y="-45.5" font-family="Helvetica,sans-Serif" font-size="10.00">USBD_HAL_Stall</text>
</a>
</g>
</g>
<!-- Node682&#45;&gt;Node827 -->
<g id="edge7" class="edge"><title>Node682&#45;&gt;Node827</title>
<path fill="none" stroke="midnightblue" d="M85.6193,-126.738C104.979,-109.656 137.644,-83.0851 170,-67 177.528,-63.2578 185.918,-60.1299 194.114,-57.5633"/>
<polygon fill="midnightblue" stroke="midnightblue" points="83.2798,-124.134 78.1764,-133.419 87.9559,-129.344 83.2798,-124.134"/>
</g>
<!-- Node830 -->
<g id="node9" class="node"><title>Node830</title>
<g id="a_node9"><a xlink:href="group__usbd__hal.xhtml#ga1a1fd7ed1af2be8e202879458a6cfda7" target="_top" xlink:title="Sets/Clear/Get the HALT state on the endpoint. ">
<polygon fill="white" stroke="red" points="189,-0.5 189,-19.5 284,-19.5 284,-0.5 189,-0.5"/>
<text text-anchor="middle" x="236.5" y="-7.5" font-family="Helvetica,sans-Serif" font-size="10.00">USBD_HAL_Halt</text>
</a>
</g>
</g>
<!-- Node682&#45;&gt;Node830 -->
<g id="edge8" class="edge"><title>Node682&#45;&gt;Node830</title>
<path fill="none" stroke="midnightblue" d="M79.4287,-124.809C96.2182,-99.5726 129.937,-54.2075 170,-29 176.113,-25.1536 183.032,-22.0615 190.025,-19.5826"/>
<polygon fill="midnightblue" stroke="midnightblue" points="76.3536,-123.118 73.8449,-133.412 82.2252,-126.929 76.3536,-123.118"/>
</g>
</g>
</svg>
