<?xml version="1.0" encoding="UTF-8" standalone="no"?>
<!DOCTYPE svg PUBLIC "-//W3C//DTD SVG 1.1//EN"
 "http://www.w3.org/Graphics/SVG/1.1/DTD/svg11.dtd">
<!-- Generated by graphviz version 2.38.0 (20140413.2041)
 -->
<!-- Title: USBHS_UsbEnable Pages: 1 -->
<svg width="301pt" height="142pt"
 viewBox="0.00 0.00 301.00 142.00" xmlns="http://www.w3.org/2000/svg" xmlns:xlink="http://www.w3.org/1999/xlink">
<g id="graph0" class="graph" transform="scale(1 1) rotate(0) translate(4 138)">
<title>USBHS_UsbEnable</title>
<polygon fill="white" stroke="none" points="-4,4 -4,-138 297,-138 297,4 -4,4"/>
<!-- Node3537 -->
<g id="node1" class="node"><title>Node3537</title>
<polygon fill="#bfbfbf" stroke="black" points="0,-57.5 0,-76.5 108,-76.5 108,-57.5 0,-57.5"/>
<text text-anchor="middle" x="54" y="-64.5" font-family="Helvetica,sans-Serif" font-size="10.00">USBHS_UsbEnable</text>
</g>
<!-- Node3538 -->
<g id="node2" class="node"><title>Node3538</title>
<g id="a_node2"><a xlink:href="group__usbd__hal.xhtml#ga3699059b9b9b52b7e55af6d070a7fe61" target="_top" xlink:title="Initializes the USB HW Access driver. ">
<polygon fill="white" stroke="red" points="174,-114.5 174,-133.5 263,-133.5 263,-114.5 174,-114.5"/>
<text text-anchor="middle" x="218.5" y="-121.5" font-family="Helvetica,sans-Serif" font-size="10.00">USBD_HAL_Init</text>
</a>
</g>
</g>
<!-- Node3537&#45;&gt;Node3538 -->
<g id="edge1" class="edge"><title>Node3537&#45;&gt;Node3538</title>
<path fill="none" stroke="midnightblue" d="M84.6102,-80.9712C101.719,-88.7061 123.792,-98.1178 144,-105 154.23,-108.484 165.448,-111.686 175.971,-114.428"/>
<polygon fill="midnightblue" stroke="midnightblue" points="85.7113,-77.6259 75.1622,-76.6426 82.7957,-83.9898 85.7113,-77.6259"/>
</g>
<!-- Node3563 -->
<g id="node3" class="node"><title>Node3563</title>
<g id="a_node3"><a xlink:href="group__usbd__hal.xhtml#gacfe54e3efd82dfd6df3074679402833d" target="_top" xlink:title="USBD_HAL_Disable">
<polygon fill="white" stroke="black" points="163.5,-76.5 163.5,-95.5 273.5,-95.5 273.5,-76.5 163.5,-76.5"/>
<text text-anchor="middle" x="218.5" y="-83.5" font-family="Helvetica,sans-Serif" font-size="10.00">USBD_HAL_Disable</text>
</a>
</g>
</g>
<!-- Node3537&#45;&gt;Node3563 -->
<g id="edge2" class="edge"><title>Node3537&#45;&gt;Node3563</title>
<path fill="none" stroke="midnightblue" d="M118.34,-74.4059C133.206,-76.1441 148.915,-77.9808 163.337,-79.6671"/>
<polygon fill="midnightblue" stroke="midnightblue" points="118.547,-70.9064 108.209,-73.2213 117.734,-77.859 118.547,-70.9064"/>
</g>
<!-- Node3564 -->
<g id="node4" class="node"><title>Node3564</title>
<g id="a_node4"><a xlink:href="group__uhd__group.xhtml#ga3a715175934fb8bf3c918f04ef0dae2b" target="_top" xlink:title="Enables the USB host mode Start the ID pin management if the ID pin is available. ...">
<polygon fill="white" stroke="red" points="144,-38.5 144,-57.5 293,-57.5 293,-38.5 144,-38.5"/>
<text text-anchor="middle" x="218.5" y="-45.5" font-family="Helvetica,sans-Serif" font-size="10.00">USBH_HAL_EnableUsbHost</text>
</a>
</g>
</g>
<!-- Node3537&#45;&gt;Node3564 -->
<g id="edge3" class="edge"><title>Node3537&#45;&gt;Node3564</title>
<path fill="none" stroke="midnightblue" d="M118.266,-59.6028C126.641,-58.6235 135.285,-57.6128 143.817,-56.6153"/>
<polygon fill="midnightblue" stroke="midnightblue" points="117.734,-56.141 108.209,-60.7787 118.547,-63.0936 117.734,-56.141"/>
</g>
<!-- Node3566 -->
<g id="node5" class="node"><title>Node3566</title>
<g id="a_node5"><a xlink:href="group__uhd__group.xhtml#ga9b45418a37c193dbcff7ef17040cfa30" target="_top" xlink:title="Disables the USB host mode. ">
<polygon fill="white" stroke="red" points="154,-0.5 154,-19.5 283,-19.5 283,-0.5 154,-0.5"/>
<text text-anchor="middle" x="218.5" y="-7.5" font-family="Helvetica,sans-Serif" font-size="10.00">USBH_HAL_DisableUsb</text>
</a>
</g>
</g>
<!-- Node3537&#45;&gt;Node3566 -->
<g id="edge4" class="edge"><title>Node3537&#45;&gt;Node3566</title>
<path fill="none" stroke="midnightblue" d="M84.6102,-53.0288C101.719,-45.2939 123.792,-35.8822 144,-29 154.23,-25.5158 165.448,-22.3143 175.971,-19.5718"/>
<polygon fill="midnightblue" stroke="midnightblue" points="82.7957,-50.0102 75.1622,-57.3574 85.7113,-56.3741 82.7957,-50.0102"/>
</g>
</g>
</svg>
