<?xml version="1.0" encoding="UTF-8" standalone="no"?>
<!DOCTYPE svg PUBLIC "-//W3C//DTD SVG 1.1//EN"
 "http://www.w3.org/Graphics/SVG/1.1/DTD/svg11.dtd">
<!-- Generated by graphviz version 2.38.0 (20140413.2041)
 -->
<!-- Title: USBHS_UnFreezeClock Pages: 1 -->
<svg width="321pt" height="256pt"
 viewBox="0.00 0.00 321.00 256.00" xmlns="http://www.w3.org/2000/svg" xmlns:xlink="http://www.w3.org/1999/xlink">
<g id="graph0" class="graph" transform="scale(1 1) rotate(0) translate(4 252)">
<title>USBHS_UnFreezeClock</title>
<polygon fill="white" stroke="none" points="-4,4 -4,-252 317,-252 317,4 -4,4"/>
<!-- Node3491 -->
<g id="node1" class="node"><title>Node3491</title>
<polygon fill="#bfbfbf" stroke="black" points="0,-114.5 0,-133.5 128,-133.5 128,-114.5 0,-114.5"/>
<text text-anchor="middle" x="64" y="-121.5" font-family="Helvetica,sans-Serif" font-size="10.00">USBHS_UnFreezeClock</text>
</g>
<!-- Node3492 -->
<g id="node2" class="node"><title>Node3492</title>
<g id="a_node2"><a xlink:href="group__usbd__hal.xhtml#gafcd12a00544aac7645deb694ec611e7a" target="_top" xlink:title="USBD (UDP) interrupt handler Manages device resume, suspend, end of bus reset. ">
<polygon fill="white" stroke="black" points="191,-228.5 191,-247.5 286,-247.5 286,-228.5 191,-228.5"/>
<text text-anchor="middle" x="238.5" y="-235.5" font-family="Helvetica,sans-Serif" font-size="10.00">USBHS_Handler</text>
</a>
</g>
</g>
<!-- Node3491&#45;&gt;Node3492 -->
<g id="edge1" class="edge"><title>Node3491&#45;&gt;Node3492</title>
<path fill="none" stroke="midnightblue" d="M78.6116,-141.756C96.0599,-163.273 128.347,-199.11 164,-219 172.172,-223.559 181.465,-227.051 190.628,-229.716"/>
<polygon fill="midnightblue" stroke="midnightblue" points="81.2278,-139.421 72.2747,-133.756 75.7409,-143.768 81.2278,-139.421"/>
</g>
<!-- Node3493 -->
<g id="node3" class="node"><title>Node3493</title>
<g id="a_node3"><a xlink:href="group__usbd__hal.xhtml#ga214508a8f0f824cdcf40bca9ddac10f6" target="_top" xlink:title="Enable Pull&#45;up, connect. ">
<polygon fill="white" stroke="red" points="181,-190.5 181,-209.5 296,-209.5 296,-190.5 181,-190.5"/>
<text text-anchor="middle" x="238.5" y="-197.5" font-family="Helvetica,sans-Serif" font-size="10.00">USBD_HAL_Connect</text>
</a>
</g>
</g>
<!-- Node3491&#45;&gt;Node3493 -->
<g id="edge2" class="edge"><title>Node3491&#45;&gt;Node3493</title>
<path fill="none" stroke="midnightblue" d="M87.2807,-139.169C106.784,-151.864 136.261,-169.673 164,-181 173.029,-184.687 182.98,-187.83 192.565,-190.436"/>
<polygon fill="midnightblue" stroke="midnightblue" points="89.0829,-136.164 78.8113,-133.567 85.2216,-142.003 89.0829,-136.164"/>
</g>
<!-- Node3503 -->
<g id="node4" class="node"><title>Node3503</title>
<g id="a_node4"><a xlink:href="group__usbd__hal.xhtml#ga3699059b9b9b52b7e55af6d070a7fe61" target="_top" xlink:title="Initializes the USB HW Access driver. ">
<polygon fill="white" stroke="red" points="194,-152.5 194,-171.5 283,-171.5 283,-152.5 194,-152.5"/>
<text text-anchor="middle" x="238.5" y="-159.5" font-family="Helvetica,sans-Serif" font-size="10.00">USBD_HAL_Init</text>
</a>
</g>
</g>
<!-- Node3491&#45;&gt;Node3503 -->
<g id="edge3" class="edge"><title>Node3491&#45;&gt;Node3503</title>
<path fill="none" stroke="midnightblue" d="M118.351,-135.753C142.742,-141.126 171.263,-147.409 194.284,-152.48"/>
<polygon fill="midnightblue" stroke="midnightblue" points="119.048,-132.322 108.529,-133.589 117.542,-139.158 119.048,-132.322"/>
</g>
<!-- Node3520 -->
<g id="node5" class="node"><title>Node3520</title>
<g id="a_node5"><a xlink:href="group__usbd__hal.xhtml#ga72c29d7c5767f5af8df7ba1603a02619" target="_top" xlink:title="Activate USB Device HW InterfaceEnable USB PeripheralEnable USB ClockEnable transceiver. ">
<polygon fill="white" stroke="red" points="181.5,-114.5 181.5,-133.5 295.5,-133.5 295.5,-114.5 181.5,-114.5"/>
<text text-anchor="middle" x="238.5" y="-121.5" font-family="Helvetica,sans-Serif" font-size="10.00">USBD_HAL_Activate</text>
</a>
</g>
</g>
<!-- Node3491&#45;&gt;Node3520 -->
<g id="edge4" class="edge"><title>Node3491&#45;&gt;Node3520</title>
<path fill="none" stroke="midnightblue" d="M138.582,-124C152.914,-124 167.724,-124 181.381,-124"/>
<polygon fill="midnightblue" stroke="midnightblue" points="138.253,-120.5 128.253,-124 138.253,-127.5 138.253,-120.5"/>
</g>
<!-- Node3530 -->
<g id="node6" class="node"><title>Node3530</title>
<g id="a_node6"><a xlink:href="group__uhd__group.xhtml#ga3a715175934fb8bf3c918f04ef0dae2b" target="_top" xlink:title="Enables the USB host mode Start the ID pin management if the ID pin is available. ...">
<polygon fill="white" stroke="red" points="164,-76.5 164,-95.5 313,-95.5 313,-76.5 164,-76.5"/>
<text text-anchor="middle" x="238.5" y="-83.5" font-family="Helvetica,sans-Serif" font-size="10.00">USBH_HAL_EnableUsbHost</text>
</a>
</g>
</g>
<!-- Node3491&#45;&gt;Node3530 -->
<g id="edge5" class="edge"><title>Node3491&#45;&gt;Node3530</title>
<path fill="none" stroke="midnightblue" d="M118.351,-112.247C142.742,-106.874 171.263,-100.591 194.284,-95.5201"/>
<polygon fill="midnightblue" stroke="midnightblue" points="117.542,-108.842 108.529,-114.411 119.048,-115.678 117.542,-108.842"/>
</g>
<!-- Node3532 -->
<g id="node7" class="node"><title>Node3532</title>
<g id="a_node7"><a xlink:href="group__uhd__group.xhtml#ga9b45418a37c193dbcff7ef17040cfa30" target="_top" xlink:title="Disables the USB host mode. ">
<polygon fill="white" stroke="red" points="174,-38.5 174,-57.5 303,-57.5 303,-38.5 174,-38.5"/>
<text text-anchor="middle" x="238.5" y="-45.5" font-family="Helvetica,sans-Serif" font-size="10.00">USBH_HAL_DisableUsb</text>
</a>
</g>
</g>
<!-- Node3491&#45;&gt;Node3532 -->
<g id="edge6" class="edge"><title>Node3491&#45;&gt;Node3532</title>
<path fill="none" stroke="midnightblue" d="M87.2807,-108.831C106.784,-96.1359 136.261,-78.3271 164,-67 173.029,-63.3129 182.98,-60.1698 192.565,-57.5643"/>
<polygon fill="midnightblue" stroke="midnightblue" points="85.2216,-105.997 78.8113,-114.433 89.0829,-111.836 85.2216,-105.997"/>
</g>
<!-- Node3534 -->
<g id="node8" class="node"><title>Node3534</title>
<g id="a_node8"><a xlink:href="group__uhd__group.xhtml#gac9fdf87a0d813bf3717f1440e60c41d8" target="_top" xlink:title="Enables the IDLE state on the USB line. ">
<polygon fill="white" stroke="red" points="182,-0.5 182,-19.5 295,-19.5 295,-0.5 182,-0.5"/>
<text text-anchor="middle" x="238.5" y="-7.5" font-family="Helvetica,sans-Serif" font-size="10.00">USBH_HAL_Resume</text>
</a>
</g>
</g>
<!-- Node3491&#45;&gt;Node3534 -->
<g id="edge7" class="edge"><title>Node3491&#45;&gt;Node3534</title>
<path fill="none" stroke="midnightblue" d="M78.6116,-106.244C96.0599,-84.7274 128.347,-48.8901 164,-29 170.906,-25.1473 178.612,-22.0569 186.364,-19.583"/>
<polygon fill="midnightblue" stroke="midnightblue" points="75.7409,-104.232 72.2747,-114.244 81.2278,-108.579 75.7409,-104.232"/>
</g>
</g>
</svg>
