<?xml version="1.0" encoding="UTF-8" standalone="no"?>
<!DOCTYPE svg PUBLIC "-//W3C//DTD SVG 1.1//EN"
 "http://www.w3.org/Graphics/SVG/1.1/DTD/svg11.dtd">
<!-- Generated by graphviz version 2.38.0 (20140413.2041)
 -->
<!-- Title: src/hal/x4m0x_s70/utils/utility.h Pages: 1 -->
<svg width="542pt" height="106pt"
 viewBox="0.00 0.00 542.00 106.00" xmlns="http://www.w3.org/2000/svg" xmlns:xlink="http://www.w3.org/1999/xlink">
<g id="graph0" class="graph" transform="scale(1 1) rotate(0) translate(4 102)">
<title>src/hal/x4m0x_s70/utils/utility.h</title>
<polygon fill="white" stroke="none" points="-4,4 -4,-102 538,-102 538,4 -4,4"/>
<!-- Node38 -->
<g id="node1" class="node"><title>Node38</title>
<polygon fill="#bfbfbf" stroke="black" points="173,-67.5 173,-97.5 301,-97.5 301,-67.5 173,-67.5"/>
<text text-anchor="start" x="181" y="-85.5" font-family="Helvetica,sans-Serif" font-size="10.00">src/hal/x4m0x_s70/utils</text>
<text text-anchor="middle" x="237" y="-74.5" font-family="Helvetica,sans-Serif" font-size="10.00">/utility.h</text>
</g>
<!-- Node39 -->
<g id="node2" class="node"><title>Node39</title>
<g id="a_node2"><a xlink:href="xdmac_8h.xhtml" target="_top" xlink:title="src/hal/x4m0x_s70/libraries\l/libchip/include/xdmac.h">
<polygon fill="white" stroke="red" points="0,-0.5 0,-30.5 146,-30.5 146,-0.5 0,-0.5"/>
<text text-anchor="start" x="8" y="-18.5" font-family="Helvetica,sans-Serif" font-size="10.00">src/hal/x4m0x_s70/libraries</text>
<text text-anchor="middle" x="73" y="-7.5" font-family="Helvetica,sans-Serif" font-size="10.00">/libchip/include/xdmac.h</text>
</a>
</g>
</g>
<!-- Node38&#45;&gt;Node39 -->
<g id="edge1" class="edge"><title>Node38&#45;&gt;Node39</title>
<path fill="none" stroke="midnightblue" d="M192.043,-63.6815C165.74,-53.2568 133,-40.2805 108.516,-30.5765"/>
<polygon fill="midnightblue" stroke="midnightblue" points="190.828,-66.9651 201.414,-67.396 193.408,-60.4576 190.828,-66.9651"/>
</g>
<!-- Node65 -->
<g id="node3" class="node"><title>Node65</title>
<g id="a_node3"><a xlink:href="qspi__dma_8h.xhtml" target="_top" xlink:title="Implementation of SPI driver, transfer data through DMA. ">
<polygon fill="white" stroke="red" points="164,-0.5 164,-30.5 310,-30.5 310,-0.5 164,-0.5"/>
<text text-anchor="start" x="172" y="-18.5" font-family="Helvetica,sans-Serif" font-size="10.00">src/hal/x4m0x_s70/libraries</text>
<text text-anchor="middle" x="237" y="-7.5" font-family="Helvetica,sans-Serif" font-size="10.00">/libchip/include/qspi_dma.h</text>
</a>
</g>
</g>
<!-- Node38&#45;&gt;Node65 -->
<g id="edge2" class="edge"><title>Node38&#45;&gt;Node65</title>
<path fill="none" stroke="midnightblue" d="M237,-57.1081C237,-48.1539 237,-38.3227 237,-30.5765"/>
<polygon fill="midnightblue" stroke="midnightblue" points="233.5,-57.3959 237,-67.396 240.5,-57.396 233.5,-57.3959"/>
</g>
<!-- Node135 -->
<g id="node4" class="node"><title>Node135</title>
<g id="a_node4"><a xlink:href="_c_d_c_d_e_e_m_port_8c.xhtml" target="_top" xlink:title="Implementation of the CDCDEEMPort class methods. ">
<polygon fill="white" stroke="black" points="328,-0.5 328,-30.5 534,-30.5 534,-0.5 328,-0.5"/>
<text text-anchor="start" x="336" y="-18.5" font-family="Helvetica,sans-Serif" font-size="10.00">src/hal/x4m0x_s70/libraries</text>
<text text-anchor="middle" x="431" y="-7.5" font-family="Helvetica,sans-Serif" font-size="10.00">/libusb/device/cdc&#45;eem/CDCDEEMPort.c</text>
</a>
</g>
</g>
<!-- Node38&#45;&gt;Node135 -->
<g id="edge3" class="edge"><title>Node38&#45;&gt;Node135</title>
<path fill="none" stroke="midnightblue" d="M288.957,-64.0917C320.274,-53.5988 359.643,-40.4082 388.987,-30.5765"/>
<polygon fill="midnightblue" stroke="midnightblue" points="287.465,-60.9003 279.095,-67.396 289.689,-67.5376 287.465,-60.9003"/>
</g>
</g>
</svg>
