<?xml version="1.0" encoding="UTF-8" standalone="no"?>
<!DOCTYPE svg PUBLIC "-//W3C//DTD SVG 1.1//EN"
 "http://www.w3.org/Graphics/SVG/1.1/DTD/svg11.dtd">
<!-- Generated by graphviz version 2.38.0 (20140413.2041)
 -->
<!-- Title: x4driver_set_dac_step Pages: 1 -->
<svg width="418pt" height="115pt"
 viewBox="0.00 0.00 418.00 115.32" xmlns="http://www.w3.org/2000/svg" xmlns:xlink="http://www.w3.org/1999/xlink">
<g id="graph0" class="graph" transform="scale(1 1) rotate(0) translate(4 111.323)">
<title>x4driver_set_dac_step</title>
<polygon fill="white" stroke="none" points="-4,4 -4,-111.323 414,-111.323 414,4 -4,4"/>
<!-- Node1595 -->
<g id="node1" class="node"><title>Node1595</title>
<polygon fill="#bfbfbf" stroke="black" points="0,-46.8234 0,-65.8234 124,-65.8234 124,-46.8234 0,-46.8234"/>
<text text-anchor="middle" x="62" y="-53.8234" font-family="Helvetica,sans-Serif" font-size="10.00">x4driver_set_dac_step</text>
</g>
<!-- Node1596 -->
<g id="node2" class="node"><title>Node1596</title>
<g id="a_node2"><a xlink:href="x4driver_8c.xhtml#acee55fcb62077a150f421c3bbf2c2947" target="_top" xlink:title="Utility function to take mutex. ">
<polygon fill="white" stroke="black" points="336,-87.8234 336,-106.823 410,-106.823 410,-87.8234 336,-87.8234"/>
<text text-anchor="middle" x="373" y="-94.8234" font-family="Helvetica,sans-Serif" font-size="10.00">mutex_take</text>
</a>
</g>
</g>
<!-- Node1595&#45;&gt;Node1596 -->
<g id="edge1" class="edge"><title>Node1595&#45;&gt;Node1596</title>
<path fill="none" stroke="midnightblue" d="M79.8489,-65.911C98.6849,-76.0314 130.434,-91.3316 160,-97.3234 216.152,-108.703 282.402,-106.244 325.707,-102.568"/>
<polygon fill="midnightblue" stroke="midnightblue" points="326.289,-106.029 335.932,-101.641 325.657,-99.0579 326.289,-106.029"/>
</g>
<!-- Node1597 -->
<g id="node3" class="node"><title>Node1597</title>
<g id="a_node3"><a xlink:href="x4driver_8c.xhtml#afb50fddff34b3e2ea353077619cb139e" target="_top" xlink:title="Utility function to give mutex. ">
<polygon fill="white" stroke="black" points="337,-24.8234 337,-43.8234 409,-43.8234 409,-24.8234 337,-24.8234"/>
<text text-anchor="middle" x="373" y="-31.8234" font-family="Helvetica,sans-Serif" font-size="10.00">mutex_give</text>
</a>
</g>
</g>
<!-- Node1595&#45;&gt;Node1597 -->
<g id="edge2" class="edge"><title>Node1595&#45;&gt;Node1597</title>
<path fill="none" stroke="midnightblue" d="M77.3445,-46.7889C95.6256,-35.2648 128.629,-16.5232 160,-9.32342 220.646,4.59515 238.644,1.02553 300,-9.32342 313.796,-11.6504 328.478,-16.3199 340.961,-21"/>
<polygon fill="midnightblue" stroke="midnightblue" points="339.854,-24.3251 350.442,-24.711 342.406,-17.8067 339.854,-24.3251"/>
</g>
<!-- Node1598 -->
<g id="node4" class="node"><title>Node1598</title>
<g id="a_node4"><a xlink:href="x4driver_8c.xhtml#a730b2e0db87e3f26370dbc5cf019cf82" target="_top" xlink:title="Updates normalization constants. ">
<polygon fill="white" stroke="black" points="167,-19.3234 167,-49.3234 293,-49.3234 293,-19.3234 167,-19.3234"/>
<text text-anchor="start" x="175" y="-37.3234" font-family="Helvetica,sans-Serif" font-size="10.00">_update_normalization</text>
<text text-anchor="middle" x="230" y="-26.3234" font-family="Helvetica,sans-Serif" font-size="10.00">_constants</text>
</a>
</g>
</g>
<!-- Node1595&#45;&gt;Node1598 -->
<g id="edge3" class="edge"><title>Node1595&#45;&gt;Node1598</title>
<path fill="none" stroke="midnightblue" d="M124.341,-48.1939C134.839,-46.8026 145.835,-45.3453 156.589,-43.92"/>
<polygon fill="midnightblue" stroke="midnightblue" points="157.349,-47.3501 166.802,-42.5665 156.429,-40.4107 157.349,-47.3501"/>
</g>
<!-- Node1599 -->
<g id="node5" class="node"><title>Node1599</title>
<g id="a_node5"><a xlink:href="x4driver_8c.xhtml#a14e3623f55953194c1660b4fcc5814cf" target="_top" xlink:title="Sets a register segment. ">
<polygon fill="white" stroke="red" points="160,-68.8234 160,-87.8234 300,-87.8234 300,-68.8234 160,-68.8234"/>
<text text-anchor="middle" x="230" y="-75.8234" font-family="Helvetica,sans-Serif" font-size="10.00">x4driver_set_pif_segment</text>
</a>
</g>
</g>
<!-- Node1595&#45;&gt;Node1599 -->
<g id="edge4" class="edge"><title>Node1595&#45;&gt;Node1599</title>
<path fill="none" stroke="midnightblue" d="M124.341,-64.4529C132.638,-65.5526 141.247,-66.6935 149.801,-67.8272"/>
<polygon fill="midnightblue" stroke="midnightblue" points="149.423,-71.3076 159.797,-69.1519 150.343,-64.3683 149.423,-71.3076"/>
</g>
<!-- Node1599&#45;&gt;Node1596 -->
<g id="edge5" class="edge"><title>Node1599&#45;&gt;Node1596</title>
<path fill="none" stroke="midnightblue" d="M300.261,-87.6564C308.879,-88.8178 317.523,-89.9825 325.675,-91.0811"/>
<polygon fill="midnightblue" stroke="midnightblue" points="325.323,-94.5651 335.7,-92.432 326.257,-87.6278 325.323,-94.5651"/>
</g>
<!-- Node1599&#45;&gt;Node1597 -->
<g id="edge6" class="edge"><title>Node1599&#45;&gt;Node1597</title>
<path fill="none" stroke="midnightblue" d="M267.299,-68.8076C277.883,-65.9035 289.44,-62.6067 300,-59.3234 311.825,-55.6467 324.626,-51.3172 336.11,-47.3035"/>
<polygon fill="midnightblue" stroke="midnightblue" points="337.54,-50.5105 345.805,-43.8819 335.21,-43.9096 337.54,-50.5105"/>
</g>
</g>
</svg>
