<?xml version="1.0" encoding="UTF-8" standalone="no"?>
<!DOCTYPE svg PUBLIC "-//W3C//DTD SVG 1.1//EN"
 "http://www.w3.org/Graphics/SVG/1.1/DTD/svg11.dtd">
<!-- Generated by graphviz version 2.38.0 (20140413.2041)
 -->
<!-- Title: x4driver_get_dac_min Pages: 1 -->
<svg width="300pt" height="104pt"
 viewBox="0.00 0.00 300.00 104.00" xmlns="http://www.w3.org/2000/svg" xmlns:xlink="http://www.w3.org/1999/xlink">
<g id="graph0" class="graph" transform="scale(1 1) rotate(0) translate(4 100)">
<title>x4driver_get_dac_min</title>
<polygon fill="white" stroke="none" points="-4,4 -4,-100 296,-100 296,4 -4,4"/>
<!-- Node916 -->
<g id="node1" class="node"><title>Node916</title>
<polygon fill="#bfbfbf" stroke="black" points="0,-38.5 0,-57.5 122,-57.5 122,-38.5 0,-38.5"/>
<text text-anchor="middle" x="61" y="-45.5" font-family="Helvetica,sans-Serif" font-size="10.00">x4driver_get_dac_min</text>
</g>
<!-- Node917 -->
<g id="node2" class="node"><title>Node917</title>
<g id="a_node2"><a xlink:href="x4driver_8c.xhtml#acee55fcb62077a150f421c3bbf2c2947" target="_top" xlink:title="Utility function to take mutex. ">
<polygon fill="white" stroke="black" points="188,-76.5 188,-95.5 262,-95.5 262,-76.5 188,-76.5"/>
<text text-anchor="middle" x="225" y="-83.5" font-family="Helvetica,sans-Serif" font-size="10.00">mutex_take</text>
</a>
</g>
</g>
<!-- Node916&#45;&gt;Node917 -->
<g id="edge1" class="edge"><title>Node916&#45;&gt;Node917</title>
<path fill="none" stroke="midnightblue" d="M102.879,-57.589C125.762,-62.9565 154.359,-69.6646 178.02,-75.2146"/>
<polygon fill="midnightblue" stroke="midnightblue" points="177.292,-78.6387 187.827,-77.5149 178.89,-71.8236 177.292,-78.6387"/>
</g>
<!-- Node918 -->
<g id="node3" class="node"><title>Node918</title>
<g id="a_node3"><a xlink:href="x4driver_8c.xhtml#a983024655a1dcd0ad2aa0ec6cb8eb3cb" target="_top" xlink:title="Gets PIF register value. ">
<polygon fill="white" stroke="red" points="158,-38.5 158,-57.5 292,-57.5 292,-38.5 158,-38.5"/>
<text text-anchor="middle" x="225" y="-45.5" font-family="Helvetica,sans-Serif" font-size="10.00">x4driver_get_pif_register</text>
</a>
</g>
</g>
<!-- Node916&#45;&gt;Node918 -->
<g id="edge2" class="edge"><title>Node916&#45;&gt;Node918</title>
<path fill="none" stroke="midnightblue" d="M122.323,-48C130.664,-48 139.318,-48 147.899,-48"/>
<polygon fill="midnightblue" stroke="midnightblue" points="147.915,-51.5001 157.915,-48 147.915,-44.5001 147.915,-51.5001"/>
</g>
<!-- Node920 -->
<g id="node4" class="node"><title>Node920</title>
<g id="a_node4"><a xlink:href="x4driver_8c.xhtml#afb50fddff34b3e2ea353077619cb139e" target="_top" xlink:title="Utility function to give mutex. ">
<polygon fill="white" stroke="black" points="189,-0.5 189,-19.5 261,-19.5 261,-0.5 189,-0.5"/>
<text text-anchor="middle" x="225" y="-7.5" font-family="Helvetica,sans-Serif" font-size="10.00">mutex_give</text>
</a>
</g>
</g>
<!-- Node916&#45;&gt;Node920 -->
<g id="edge3" class="edge"><title>Node916&#45;&gt;Node920</title>
<path fill="none" stroke="midnightblue" d="M102.879,-38.411C126.09,-32.9665 155.181,-26.1428 179.035,-20.5475"/>
<polygon fill="midnightblue" stroke="midnightblue" points="179.968,-23.9235 188.905,-18.2323 178.369,-17.1085 179.968,-23.9235"/>
</g>
</g>
</svg>
