<?xml version="1.0" encoding="UTF-8" standalone="no"?>
<!DOCTYPE svg PUBLIC "-//W3C//DTD SVG 1.1//EN"
 "http://www.w3.org/Graphics/SVG/1.1/DTD/svg11.dtd">
<!-- Generated by graphviz version 2.38.0 (20140413.2041)
 -->
<!-- Title: x4driver_set_frame_trigger_period Pages: 1 -->
<svg width="267pt" height="165pt"
 viewBox="0.00 0.00 267.00 165.00" xmlns="http://www.w3.org/2000/svg" xmlns:xlink="http://www.w3.org/1999/xlink">
<g id="graph0" class="graph" transform="scale(1 1) rotate(0) translate(4 161)">
<title>x4driver_set_frame_trigger_period</title>
<polygon fill="white" stroke="none" points="-4,4 -4,-161 263,-161 263,4 -4,4"/>
<!-- Node1763 -->
<g id="node1" class="node"><title>Node1763</title>
<polygon fill="#bfbfbf" stroke="black" points="0,-63 0,-93 109,-93 109,-63 0,-63"/>
<text text-anchor="start" x="8" y="-81" font-family="Helvetica,sans-Serif" font-size="10.00">x4driver_set_frame</text>
<text text-anchor="middle" x="54.5" y="-70" font-family="Helvetica,sans-Serif" font-size="10.00">_trigger_period</text>
</g>
<!-- Node1764 -->
<g id="node2" class="node"><title>Node1764</title>
<g id="a_node2"><a xlink:href="x4driver_8c.xhtml#acee55fcb62077a150f421c3bbf2c2947" target="_top" xlink:title="Utility function to take mutex. ">
<polygon fill="white" stroke="black" points="165,-137.5 165,-156.5 239,-156.5 239,-137.5 165,-137.5"/>
<text text-anchor="middle" x="202" y="-144.5" font-family="Helvetica,sans-Serif" font-size="10.00">mutex_take</text>
</a>
</g>
</g>
<!-- Node1763&#45;&gt;Node1764 -->
<g id="edge1" class="edge"><title>Node1763&#45;&gt;Node1764</title>
<path fill="none" stroke="midnightblue" d="M79.573,-93.0333C97.246,-103.674 122.068,-117.806 145,-128 149.745,-130.109 154.801,-132.127 159.86,-134.006"/>
<polygon fill="midnightblue" stroke="midnightblue" points="158.916,-137.385 169.511,-137.439 161.262,-130.79 158.916,-137.385"/>
</g>
<!-- Node1765 -->
<g id="node3" class="node"><title>Node1765</title>
<g id="a_node3"><a xlink:href="x4driver_8c.xhtml#a290bcd409abdffc4999d632d9571e570" target="_top" xlink:title="Sets x4 software action. ">
<polygon fill="white" stroke="red" points="145,-88 145,-118 259,-118 259,-88 145,-88"/>
<text text-anchor="start" x="153" y="-106" font-family="Helvetica,sans-Serif" font-size="10.00">_x4driver_set_x4_sw</text>
<text text-anchor="middle" x="202" y="-95" font-family="Helvetica,sans-Serif" font-size="10.00">_action</text>
</a>
</g>
</g>
<!-- Node1763&#45;&gt;Node1765 -->
<g id="edge2" class="edge"><title>Node1763&#45;&gt;Node1765</title>
<path fill="none" stroke="midnightblue" d="M109.265,-87.238C117.528,-88.6577 126.141,-90.1376 134.637,-91.5975"/>
<polygon fill="midnightblue" stroke="midnightblue" points="134.081,-95.0531 144.53,-93.2972 135.267,-88.1542 134.081,-95.0531"/>
</g>
<!-- Node1771 -->
<g id="node4" class="node"><title>Node1771</title>
<g id="a_node4"><a xlink:href="x4driver_8c.xhtml#a90a52a2383ff206fe1f26c798184a7ad" target="_top" xlink:title="Sets x4 software register value. ">
<polygon fill="white" stroke="red" points="145,-39 145,-69 259,-69 259,-39 145,-39"/>
<text text-anchor="start" x="153" y="-57" font-family="Helvetica,sans-Serif" font-size="10.00">_x4driver_set_x4_sw</text>
<text text-anchor="middle" x="202" y="-46" font-family="Helvetica,sans-Serif" font-size="10.00">_register</text>
</a>
</g>
</g>
<!-- Node1763&#45;&gt;Node1771 -->
<g id="edge3" class="edge"><title>Node1763&#45;&gt;Node1771</title>
<path fill="none" stroke="midnightblue" d="M109.265,-69.1315C117.528,-67.7686 126.141,-66.3479 134.637,-64.9464"/>
<polygon fill="midnightblue" stroke="midnightblue" points="135.232,-68.3956 144.53,-63.3147 134.093,-61.489 135.232,-68.3956"/>
</g>
<!-- Node1767 -->
<g id="node5" class="node"><title>Node1767</title>
<g id="a_node5"><a xlink:href="x4driver_8c.xhtml#afb50fddff34b3e2ea353077619cb139e" target="_top" xlink:title="Utility function to give mutex. ">
<polygon fill="white" stroke="black" points="166,-0.5 166,-19.5 238,-19.5 238,-0.5 166,-0.5"/>
<text text-anchor="middle" x="202" y="-7.5" font-family="Helvetica,sans-Serif" font-size="10.00">mutex_give</text>
</a>
</g>
</g>
<!-- Node1763&#45;&gt;Node1767 -->
<g id="edge4" class="edge"><title>Node1763&#45;&gt;Node1767</title>
<path fill="none" stroke="midnightblue" d="M81.2254,-62.8784C98.8411,-52.8557 122.921,-39.7978 145,-30 150.441,-27.5857 156.271,-25.2444 162.04,-23.0657"/>
<polygon fill="midnightblue" stroke="midnightblue" points="163.419,-26.2882 171.61,-19.5685 161.016,-19.7134 163.419,-26.2882"/>
</g>
</g>
</svg>
