<?xml version="1.0" encoding="UTF-8" standalone="no"?>
<!DOCTYPE svg PUBLIC "-//W3C//DTD SVG 1.1//EN"
 "http://www.w3.org/Graphics/SVG/1.1/DTD/svg11.dtd">
<!-- Generated by graphviz version 2.38.0 (20140413.2041)
 -->
<!-- Title: _get_mask Pages: 1 -->
<svg width="247pt" height="78pt"
 viewBox="0.00 0.00 247.00 77.50" xmlns="http://www.w3.org/2000/svg" xmlns:xlink="http://www.w3.org/1999/xlink">
<g id="graph0" class="graph" transform="scale(1 1) rotate(0) translate(4 73.5)">
<title>_get_mask</title>
<polygon fill="white" stroke="none" points="-4,4 -4,-73.5 243,-73.5 243,4 -4,4"/>
<!-- Node1 -->
<g id="node1" class="node"><title>Node1</title>
<polygon fill="#bfbfbf" stroke="black" points="0,-28 0,-47 69,-47 69,-28 0,-28"/>
<text text-anchor="middle" x="34.5" y="-35" font-family="Helvetica,sans-Serif" font-size="10.00">_get_mask</text>
</g>
<!-- Node2 -->
<g id="node2" class="node"><title>Node2</title>
<g id="a_node2"><a xlink:href="x4driver_8c.xhtml#a6bcab5fc2ac5928ddeb734483385004d" target="_top" xlink:title="Unpacks frame. ">
<polygon fill="white" stroke="black" points="105,-50 105,-69 239,-69 239,-50 105,-50"/>
<text text-anchor="middle" x="172" y="-57" font-family="Helvetica,sans-Serif" font-size="10.00">_x4driver_unpack_frame</text>
</a>
</g>
</g>
<!-- Node1&#45;&gt;Node2 -->
<g id="edge1" class="edge"><title>Node1&#45;&gt;Node2</title>
<path fill="none" stroke="midnightblue" d="M79.4794,-44.6406C89.9493,-46.3405 101.286,-48.1812 112.299,-49.9692"/>
<polygon fill="midnightblue" stroke="midnightblue" points="79.7745,-41.1427 69.3428,-42.9948 78.6526,-48.0523 79.7745,-41.1427"/>
</g>
<!-- Node3 -->
<g id="node3" class="node"><title>Node3</title>
<g id="a_node3"><a xlink:href="x4driver_8c.xhtml#a2c00d0525578a4ce31dbd42282e2460d" target="_top" xlink:title="Unpacks and normalizes frame. ">
<polygon fill="white" stroke="red" points="110.5,-0.5 110.5,-30.5 233.5,-30.5 233.5,-0.5 110.5,-0.5"/>
<text text-anchor="start" x="118.5" y="-18.5" font-family="Helvetica,sans-Serif" font-size="10.00">_x4driver_unpack_and</text>
<text text-anchor="middle" x="172" y="-7.5" font-family="Helvetica,sans-Serif" font-size="10.00">_normalize_frame</text>
</a>
</g>
</g>
<!-- Node1&#45;&gt;Node3 -->
<g id="edge2" class="edge"><title>Node1&#45;&gt;Node3</title>
<path fill="none" stroke="midnightblue" d="M79.3514,-30.3802C89.2685,-28.7701 99.9693,-27.0327 110.439,-25.3329"/>
<polygon fill="midnightblue" stroke="midnightblue" points="78.6526,-26.9477 69.3428,-32.0052 79.7745,-33.8573 78.6526,-26.9477"/>
</g>
</g>
</svg>
