<?xml version="1.0" encoding="UTF-8" standalone="no"?>
<!DOCTYPE svg PUBLIC "-//W3C//DTD SVG 1.1//EN"
 "http://www.w3.org/Graphics/SVG/1.1/DTD/svg11.dtd">
<!-- Generated by graphviz version 2.38.0 (20140413.2041)
 -->
<!-- Title: TEST_F Pages: 1 -->
<svg width="231pt" height="332pt"
 viewBox="0.00 0.00 231.00 332.00" xmlns="http://www.w3.org/2000/svg" xmlns:xlink="http://www.w3.org/1999/xlink">
<g id="graph0" class="graph" transform="scale(1 1) rotate(0) translate(4 328)">
<title>TEST_F</title>
<polygon fill="white" stroke="none" points="-4,4 -4,-328 227,-328 227,4 -4,4"/>
<!-- Node93 -->
<g id="node1" class="node"><title>Node93</title>
<polygon fill="#bfbfbf" stroke="black" points="0,-152.5 0,-171.5 50,-171.5 50,-152.5 0,-152.5"/>
<text text-anchor="middle" x="25" y="-159.5" font-family="Helvetica,sans-Serif" font-size="10.00">TEST_F</text>
</g>
<!-- Node94 -->
<g id="node2" class="node"><title>Node94</title>
<g id="a_node2"><a xlink:href="x4driver__unittest_8cpp.xhtml#aed0d42e77dd6bc7411a086aed6eed8d4" target="_top" xlink:title="test_lock">
<polygon fill="white" stroke="black" points="125,-304.5 125,-323.5 184,-323.5 184,-304.5 125,-304.5"/>
<text text-anchor="middle" x="154.5" y="-311.5" font-family="Helvetica,sans-Serif" font-size="10.00">test_lock</text>
</a>
</g>
</g>
<!-- Node93&#45;&gt;Node94 -->
<g id="edge1" class="edge"><title>Node93&#45;&gt;Node94</title>
<path fill="none" stroke="midnightblue" d="M27.509,-171.699C31.8435,-196.216 46.6426,-261.124 86,-295 94.181,-302.042 104.792,-306.485 115.168,-309.285"/>
<polygon fill="midnightblue" stroke="midnightblue" points="114.433,-312.707 124.958,-311.497 115.975,-305.879 114.433,-312.707"/>
</g>
<!-- Node95 -->
<g id="node3" class="node"><title>Node95</title>
<g id="a_node3"><a xlink:href="x4driver__unittest_8cpp.xhtml#a567d5572537c4401078364d2ff4f8ca2" target="_top" xlink:title="test_unlock">
<polygon fill="white" stroke="black" points="119,-266.5 119,-285.5 190,-285.5 190,-266.5 119,-266.5"/>
<text text-anchor="middle" x="154.5" y="-273.5" font-family="Helvetica,sans-Serif" font-size="10.00">test_unlock</text>
</a>
</g>
</g>
<!-- Node93&#45;&gt;Node95 -->
<g id="edge2" class="edge"><title>Node93&#45;&gt;Node95</title>
<path fill="none" stroke="midnightblue" d="M29.4031,-171.737C36.6568,-191.04 55.5103,-234.255 86,-257 92.7293,-262.02 100.731,-265.714 108.832,-268.432"/>
<polygon fill="midnightblue" stroke="midnightblue" points="108.104,-271.865 118.683,-271.288 110.053,-265.142 108.104,-271.865"/>
</g>
<!-- Node96 -->
<g id="node4" class="node"><title>Node96</title>
<g id="a_node4"><a xlink:href="x4driver__unittest_8cpp.xhtml#aca74c5603b9441a1329a142f6aa0e2b9" target="_top" xlink:title="test_enable_set">
<polygon fill="white" stroke="black" points="108,-228.5 108,-247.5 201,-247.5 201,-228.5 108,-228.5"/>
<text text-anchor="middle" x="154.5" y="-235.5" font-family="Helvetica,sans-Serif" font-size="10.00">test_enable_set</text>
</a>
</g>
</g>
<!-- Node93&#45;&gt;Node96 -->
<g id="edge3" class="edge"><title>Node93&#45;&gt;Node96</title>
<path fill="none" stroke="midnightblue" d="M33.4761,-171.558C43.9021,-184.246 64.0184,-206.5 86,-219 89.9156,-221.227 94.1093,-223.207 98.4191,-224.965"/>
<polygon fill="midnightblue" stroke="midnightblue" points="97.3824,-228.312 107.976,-228.468 99.7919,-221.74 97.3824,-228.312"/>
</g>
<!-- Node97 -->
<g id="node5" class="node"><title>Node97</title>
<g id="a_node5"><a xlink:href="x4driver__unittest_8cpp.xhtml#ae2f624d73c2aef14f37123142ded7bc6" target="_top" xlink:title="test_spi_write">
<polygon fill="white" stroke="red" points="113.5,-190.5 113.5,-209.5 195.5,-209.5 195.5,-190.5 113.5,-190.5"/>
<text text-anchor="middle" x="154.5" y="-197.5" font-family="Helvetica,sans-Serif" font-size="10.00">test_spi_write</text>
</a>
</g>
</g>
<!-- Node93&#45;&gt;Node97 -->
<g id="edge4" class="edge"><title>Node93&#45;&gt;Node97</title>
<path fill="none" stroke="midnightblue" d="M50.1759,-169.851C61.0939,-173.347 74.1705,-177.463 86,-181 93.3802,-183.207 101.236,-185.483 108.881,-187.66"/>
<polygon fill="midnightblue" stroke="midnightblue" points="108.177,-191.098 118.752,-190.451 110.081,-184.362 108.177,-191.098"/>
</g>
<!-- Node99 -->
<g id="node6" class="node"><title>Node99</title>
<g id="a_node6"><a xlink:href="x4driver__unittest_8cpp.xhtml#a964c40367fd09ff3477146d28ab46768" target="_top" xlink:title="test_spi_write_read">
<polygon fill="white" stroke="red" points="100,-152.5 100,-171.5 209,-171.5 209,-152.5 100,-152.5"/>
<text text-anchor="middle" x="154.5" y="-159.5" font-family="Helvetica,sans-Serif" font-size="10.00">test_spi_write_read</text>
</a>
</g>
</g>
<!-- Node93&#45;&gt;Node99 -->
<g id="edge5" class="edge"><title>Node93&#45;&gt;Node99</title>
<path fill="none" stroke="midnightblue" d="M50.2819,-162C61.6192,-162 75.7022,-162 89.783,-162"/>
<polygon fill="midnightblue" stroke="midnightblue" points="89.9964,-165.5 99.9964,-162 89.9964,-158.5 89.9964,-165.5"/>
</g>
<!-- Node100 -->
<g id="node7" class="node"><title>Node100</title>
<g id="a_node7"><a xlink:href="x4driver__unittest_8cpp.xhtml#abaed7f177bb741bfaac28fd8f4883b74" target="_top" xlink:title="init_test">
<polygon fill="white" stroke="red" points="127,-114.5 127,-133.5 182,-133.5 182,-114.5 127,-114.5"/>
<text text-anchor="middle" x="154.5" y="-121.5" font-family="Helvetica,sans-Serif" font-size="10.00">init_test</text>
</a>
</g>
</g>
<!-- Node93&#45;&gt;Node100 -->
<g id="edge6" class="edge"><title>Node93&#45;&gt;Node100</title>
<path fill="none" stroke="midnightblue" d="M50.1759,-154.149C61.0939,-150.653 74.1705,-146.537 86,-143 96.0602,-139.992 107.004,-136.854 117.093,-134.016"/>
<polygon fill="midnightblue" stroke="midnightblue" points="118.145,-137.356 126.833,-131.292 116.26,-130.614 118.145,-137.356"/>
</g>
<!-- Node102 -->
<g id="node8" class="node"><title>Node102</title>
<g id="a_node8"><a xlink:href="x4driver_8h.xhtml#a2e248dc4b2feab14c20a2b5fbfe2b1db" target="_top" xlink:title="Creates x4driver instance. ">
<polygon fill="white" stroke="black" points="109,-76.5 109,-95.5 200,-95.5 200,-76.5 109,-76.5"/>
<text text-anchor="middle" x="154.5" y="-83.5" font-family="Helvetica,sans-Serif" font-size="10.00">x4driver_create</text>
</a>
</g>
</g>
<!-- Node93&#45;&gt;Node102 -->
<g id="edge7" class="edge"><title>Node93&#45;&gt;Node102</title>
<path fill="none" stroke="midnightblue" d="M33.4761,-152.442C43.9021,-139.754 64.0184,-117.5 86,-105 90.1471,-102.642 94.6062,-100.56 99.1846,-98.7259"/>
<polygon fill="midnightblue" stroke="midnightblue" points="100.469,-101.984 108.688,-95.2987 98.094,-95.3986 100.469,-101.984"/>
</g>
<!-- Node103 -->
<g id="node9" class="node"><title>Node103</title>
<g id="a_node9"><a xlink:href="x4driver_8h.xhtml#a972399a44ab859c55b7a108af64015d3" target="_top" xlink:title="Set SPI register on radar chip. ">
<polygon fill="white" stroke="red" points="86.5,-38.5 86.5,-57.5 222.5,-57.5 222.5,-38.5 86.5,-38.5"/>
<text text-anchor="middle" x="154.5" y="-45.5" font-family="Helvetica,sans-Serif" font-size="10.00">x4driver_set_spi_register</text>
</a>
</g>
</g>
<!-- Node93&#45;&gt;Node103 -->
<g id="edge8" class="edge"><title>Node93&#45;&gt;Node103</title>
<path fill="none" stroke="midnightblue" d="M29.4031,-152.263C36.6568,-132.96 55.5103,-89.745 86,-67 88.5051,-65.1312 91.1865,-63.4462 93.9838,-61.9268"/>
<polygon fill="midnightblue" stroke="midnightblue" points="95.6508,-65.0115 103.238,-57.6162 92.6949,-58.6662 95.6508,-65.0115"/>
</g>
<!-- Node106 -->
<g id="node10" class="node"><title>Node106</title>
<g id="a_node10"><a xlink:href="x4driver_8h.xhtml#a696a63c5fe7e11fab1b8864faf6e296c" target="_top" xlink:title="Get SPI register on radar chip. ">
<polygon fill="white" stroke="red" points="86,-0.5 86,-19.5 223,-19.5 223,-0.5 86,-0.5"/>
<text text-anchor="middle" x="154.5" y="-7.5" font-family="Helvetica,sans-Serif" font-size="10.00">x4driver_get_spi_register</text>
</a>
</g>
</g>
<!-- Node93&#45;&gt;Node106 -->
<g id="edge9" class="edge"><title>Node93&#45;&gt;Node106</title>
<path fill="none" stroke="midnightblue" d="M27.509,-152.301C31.8435,-127.784 46.6426,-62.8763 86,-29 87.978,-27.2975 90.0981,-25.7468 92.3226,-24.3346"/>
<polygon fill="midnightblue" stroke="midnightblue" points="94.1505,-27.3268 101.34,-19.5451 90.867,-21.1447 94.1505,-27.3268"/>
</g>
</g>
</svg>
