<?xml version="1.0" encoding="UTF-8" standalone="no"?>
<!DOCTYPE svg PUBLIC "-//W3C//DTD SVG 1.1//EN"
 "http://www.w3.org/Graphics/SVG/1.1/DTD/svg11.dtd">
<!-- Generated by graphviz version 2.38.0 (20140413.2041)
 -->
<!-- Title: _x4driver_get_x4_sw_register Pages: 1 -->
<svg width="298pt" height="39pt"
 viewBox="0.00 0.00 298.00 39.00" xmlns="http://www.w3.org/2000/svg" xmlns:xlink="http://www.w3.org/1999/xlink">
<g id="graph0" class="graph" transform="scale(1 1) rotate(0) translate(4 35)">
<title>_x4driver_get_x4_sw_register</title>
<polygon fill="white" stroke="none" points="-4,4 -4,-35 294,-35 294,4 -4,4"/>
<!-- Node309 -->
<g id="node1" class="node"><title>Node309</title>
<polygon fill="#bfbfbf" stroke="black" points="0,-0.5 0,-30.5 115,-30.5 115,-0.5 0,-0.5"/>
<text text-anchor="start" x="8" y="-18.5" font-family="Helvetica,sans-Serif" font-size="10.00">_x4driver_get_x4_sw</text>
<text text-anchor="middle" x="57.5" y="-7.5" font-family="Helvetica,sans-Serif" font-size="10.00">_register</text>
</g>
<!-- Node310 -->
<g id="node2" class="node"><title>Node310</title>
<g id="a_node2"><a xlink:href="x4driver_8c.xhtml#af984a0703695b6ef27a2c76a30e8c992" target="_top" xlink:title="Gets internal register value. ">
<polygon fill="white" stroke="red" points="151,-0.5 151,-30.5 290,-30.5 290,-0.5 151,-0.5"/>
<text text-anchor="start" x="159" y="-18.5" font-family="Helvetica,sans-Serif" font-size="10.00">_x4driver_get_x4_internal</text>
<text text-anchor="middle" x="220.5" y="-7.5" font-family="Helvetica,sans-Serif" font-size="10.00">_register</text>
</a>
</g>
</g>
<!-- Node309&#45;&gt;Node310 -->
<g id="edge1" class="edge"><title>Node309&#45;&gt;Node310</title>
<path fill="none" stroke="midnightblue" d="M115.263,-15.5C123.527,-15.5 132.157,-15.5 140.761,-15.5"/>
<polygon fill="midnightblue" stroke="midnightblue" points="140.825,-19.0001 150.825,-15.5 140.825,-12.0001 140.825,-19.0001"/>
</g>
</g>
</svg>
