<?xml version="1.0" encoding="UTF-8" standalone="no"?>
<!DOCTYPE svg PUBLIC "-//W3C//DTD SVG 1.1//EN"
 "http://www.w3.org/Graphics/SVG/1.1/DTD/svg11.dtd">
<!-- Generated by graphviz version 2.38.0 (20140413.2041)
 -->
<!-- Title: init_test Pages: 1 -->
<svg width="209pt" height="66pt"
 viewBox="0.00 0.00 209.00 66.00" xmlns="http://www.w3.org/2000/svg" xmlns:xlink="http://www.w3.org/1999/xlink">
<g id="graph0" class="graph" transform="scale(1 1) rotate(0) translate(4 62)">
<title>init_test</title>
<polygon fill="white" stroke="none" points="-4,4 -4,-62 205,-62 205,4 -4,4"/>
<!-- Node5 -->
<g id="node1" class="node"><title>Node5</title>
<polygon fill="#bfbfbf" stroke="black" points="0,-19.5 0,-38.5 55,-38.5 55,-19.5 0,-19.5"/>
<text text-anchor="middle" x="27.5" y="-26.5" font-family="Helvetica,sans-Serif" font-size="10.00">init_test</text>
</g>
<!-- Node6 -->
<g id="node2" class="node"><title>Node6</title>
<g id="a_node2"><a xlink:href="class_x4driver_test.xhtml#adb1352679366b1c94eceb69bce663be5" target="_top" xlink:title="X4driverTest::SetUp">
<polygon fill="white" stroke="black" points="91,-38.5 91,-57.5 201,-57.5 201,-38.5 91,-38.5"/>
<text text-anchor="middle" x="146" y="-45.5" font-family="Helvetica,sans-Serif" font-size="10.00">X4driverTest::SetUp</text>
</a>
</g>
</g>
<!-- Node5&#45;&gt;Node6 -->
<g id="edge1" class="edge"><title>Node5&#45;&gt;Node6</title>
<path fill="none" stroke="midnightblue" d="M65.1502,-34.9773C73.3083,-36.3078 82.125,-37.7457 90.8201,-39.1638"/>
<polygon fill="midnightblue" stroke="midnightblue" points="65.6605,-31.5143 55.2275,-33.359 64.5337,-38.4231 65.6605,-31.5143"/>
</g>
<!-- Node7 -->
<g id="node3" class="node"><title>Node7</title>
<g id="a_node3"><a xlink:href="x4driver__unittest_8cpp.xhtml#a7c5d404a731b61a0c62e98c893d4f438" target="_top" xlink:title="TEST_F">
<polygon fill="white" stroke="black" points="121,-0.5 121,-19.5 171,-19.5 171,-0.5 121,-0.5"/>
<text text-anchor="middle" x="146" y="-7.5" font-family="Helvetica,sans-Serif" font-size="10.00">TEST_F</text>
</a>
</g>
</g>
<!-- Node5&#45;&gt;Node7 -->
<g id="edge2" class="edge"><title>Node5&#45;&gt;Node7</title>
<path fill="none" stroke="midnightblue" d="M65.1898,-23.0163C83.3265,-20.0583 104.71,-16.5709 120.776,-13.9507"/>
<polygon fill="midnightblue" stroke="midnightblue" points="64.5337,-19.5769 55.2275,-24.641 65.6605,-26.4857 64.5337,-19.5769"/>
</g>
</g>
</svg>
