<?xml version="1.0" encoding="UTF-8" standalone="no"?>
<!DOCTYPE svg PUBLIC "-//W3C//DTD SVG 1.1//EN"
 "http://www.w3.org/Graphics/SVG/1.1/DTD/svg11.dtd">
<!-- Generated by graphviz version 2.38.0 (20140413.2041)
 -->
<!-- Title: x4driver_get_sweep_time Pages: 1 -->
<svg width="308pt" height="230pt"
 viewBox="0.00 0.00 308.00 230.00" xmlns="http://www.w3.org/2000/svg" xmlns:xlink="http://www.w3.org/1999/xlink">
<g id="graph0" class="graph" transform="scale(1 1) rotate(0) translate(4 226)">
<title>x4driver_get_sweep_time</title>
<polygon fill="white" stroke="none" points="-4,4 -4,-226 304,-226 304,4 -4,4"/>
<!-- Node424 -->
<g id="node1" class="node"><title>Node424</title>
<polygon fill="#bfbfbf" stroke="black" points="0,-104.5 0,-123.5 138,-123.5 138,-104.5 0,-104.5"/>
<text text-anchor="middle" x="69" y="-111.5" font-family="Helvetica,sans-Serif" font-size="10.00">x4driver_get_sweep_time</text>
</g>
<!-- Node425 -->
<g id="node2" class="node"><title>Node425</title>
<g id="a_node2"><a xlink:href="x4driver_8c.xhtml#a032203e8f9460b3b693a5b81fbf1f633" target="_top" xlink:title="x4driver_get_dac_min">
<polygon fill="white" stroke="red" points="176,-202.5 176,-221.5 298,-221.5 298,-202.5 176,-202.5"/>
<text text-anchor="middle" x="237" y="-209.5" font-family="Helvetica,sans-Serif" font-size="10.00">x4driver_get_dac_min</text>
</a>
</g>
</g>
<!-- Node424&#45;&gt;Node425 -->
<g id="edge1" class="edge"><title>Node424&#45;&gt;Node425</title>
<path fill="none" stroke="midnightblue" d="M80.0852,-123.646C97.7579,-140.068 136.063,-173.562 174,-193 178.343,-195.225 182.992,-197.241 187.72,-199.056"/>
<polygon fill="midnightblue" stroke="midnightblue" points="186.867,-202.466 197.462,-202.499 189.2,-195.866 186.867,-202.466"/>
</g>
<!-- Node433 -->
<g id="node3" class="node"><title>Node433</title>
<g id="a_node3"><a xlink:href="x4driver_8c.xhtml#ad622f2683a8e728043a68fe0b09c2f07" target="_top" xlink:title="x4driver_get_dac_max">
<polygon fill="white" stroke="red" points="174.5,-164.5 174.5,-183.5 299.5,-183.5 299.5,-164.5 174.5,-164.5"/>
<text text-anchor="middle" x="237" y="-171.5" font-family="Helvetica,sans-Serif" font-size="10.00">x4driver_get_dac_max</text>
</a>
</g>
</g>
<!-- Node424&#45;&gt;Node433 -->
<g id="edge2" class="edge"><title>Node424&#45;&gt;Node433</title>
<path fill="none" stroke="midnightblue" d="M92.9377,-123.641C113.883,-132.3 145.787,-145.133 174,-155 180.137,-157.146 186.66,-159.291 193.083,-161.326"/>
<polygon fill="midnightblue" stroke="midnightblue" points="192.436,-164.79 203.024,-164.417 194.514,-158.106 192.436,-164.79"/>
</g>
<!-- Node434 -->
<g id="node4" class="node"><title>Node434</title>
<g id="a_node4"><a xlink:href="x4driver_8c.xhtml#ac36f9ada592d89010c9ebf3f581a7eff" target="_top" xlink:title="x4driver_get_dac_step">
<polygon fill="white" stroke="red" points="174.5,-126.5 174.5,-145.5 299.5,-145.5 299.5,-126.5 174.5,-126.5"/>
<text text-anchor="middle" x="237" y="-133.5" font-family="Helvetica,sans-Serif" font-size="10.00">x4driver_get_dac_step</text>
</a>
</g>
</g>
<!-- Node424&#45;&gt;Node434 -->
<g id="edge3" class="edge"><title>Node424&#45;&gt;Node434</title>
<path fill="none" stroke="midnightblue" d="M138.477,-123.075C147.014,-124.207 155.763,-125.366 164.347,-126.504"/>
<polygon fill="midnightblue" stroke="midnightblue" points="163.953,-129.982 174.326,-127.826 164.873,-123.043 163.953,-129.982"/>
</g>
<!-- Node436 -->
<g id="node5" class="node"><title>Node436</title>
<g id="a_node5"><a xlink:href="x4driver_8c.xhtml#a4d5fed456eb330474905ef190733f3a6" target="_top" xlink:title="Gets pulses per step. ">
<polygon fill="white" stroke="red" points="181,-77 181,-107 293,-107 293,-77 181,-77"/>
<text text-anchor="start" x="189" y="-95" font-family="Helvetica,sans-Serif" font-size="10.00">x4driver_get_pulses</text>
<text text-anchor="middle" x="237" y="-84" font-family="Helvetica,sans-Serif" font-size="10.00">_per_step</text>
</a>
</g>
</g>
<!-- Node424&#45;&gt;Node436 -->
<g id="edge4" class="edge"><title>Node424&#45;&gt;Node436</title>
<path fill="none" stroke="midnightblue" d="M138.477,-104.925C149.17,-103.508 160.196,-102.046 170.813,-100.639"/>
<polygon fill="midnightblue" stroke="midnightblue" points="171.39,-104.093 180.843,-99.3099 170.47,-97.1542 171.39,-104.093"/>
</g>
<!-- Node437 -->
<g id="node6" class="node"><title>Node437</title>
<g id="a_node6"><a xlink:href="x4driver_8c.xhtml#a3340bd88f713c61192fed4ba6be4789d" target="_top" xlink:title="Gets Iterations. ">
<polygon fill="white" stroke="red" points="174,-38.5 174,-57.5 300,-57.5 300,-38.5 174,-38.5"/>
<text text-anchor="middle" x="237" y="-45.5" font-family="Helvetica,sans-Serif" font-size="10.00">x4driver_get_iterations</text>
</a>
</g>
</g>
<!-- Node424&#45;&gt;Node437 -->
<g id="edge5" class="edge"><title>Node424&#45;&gt;Node437</title>
<path fill="none" stroke="midnightblue" d="M90.0659,-104.376C110.822,-94.5982 144.299,-79.3234 174,-68 180.532,-65.5095 187.525,-63.0557 194.374,-60.766"/>
<polygon fill="midnightblue" stroke="midnightblue" points="195.819,-63.9763 204.237,-57.5437 193.645,-57.3224 195.819,-63.9763"/>
</g>
<!-- Node438 -->
<g id="node7" class="node"><title>Node438</title>
<g id="a_node7"><a xlink:href="x4driver_8c.xhtml#a7e9fbe4e6bb6059b98b2f57efb92f34b" target="_top" xlink:title="x4driver_get_prf_div">
<polygon fill="white" stroke="red" points="180.5,-0.5 180.5,-19.5 293.5,-19.5 293.5,-0.5 180.5,-0.5"/>
<text text-anchor="middle" x="237" y="-7.5" font-family="Helvetica,sans-Serif" font-size="10.00">x4driver_get_prf_div</text>
</a>
</g>
</g>
<!-- Node424&#45;&gt;Node438 -->
<g id="edge6" class="edge"><title>Node424&#45;&gt;Node438</title>
<path fill="none" stroke="midnightblue" d="M79.1141,-104.407C96.1653,-86.9858 134.729,-50.0117 174,-29 178.185,-26.7611 182.672,-24.7443 187.25,-22.9372"/>
<polygon fill="midnightblue" stroke="midnightblue" points="188.49,-26.2107 196.703,-19.5185 186.109,-19.6279 188.49,-26.2107"/>
</g>
</g>
</svg>
