<?xml version="1.0" encoding="UTF-8" standalone="no"?>
<!DOCTYPE svg PUBLIC "-//W3C//DTD SVG 1.1//EN"
 "http://www.w3.org/Graphics/SVG/1.1/DTD/svg11.dtd">
<!-- Generated by graphviz version 2.38.0 (20140413.2041)
 -->
<!-- Title: x4driver_set_dac_max Pages: 1 -->
<svg width="311pt" height="66pt"
 viewBox="0.00 0.00 311.00 66.00" xmlns="http://www.w3.org/2000/svg" xmlns:xlink="http://www.w3.org/1999/xlink">
<g id="graph0" class="graph" transform="scale(1 1) rotate(0) translate(4 62)">
<title>x4driver_set_dac_max</title>
<polygon fill="white" stroke="none" points="-4,4 -4,-62 307,-62 307,4 -4,4"/>
<!-- Node1574 -->
<g id="node1" class="node"><title>Node1574</title>
<polygon fill="#bfbfbf" stroke="black" points="0,-19.5 0,-38.5 124,-38.5 124,-19.5 0,-19.5"/>
<text text-anchor="middle" x="62" y="-26.5" font-family="Helvetica,sans-Serif" font-size="10.00">x4driver_set_dac_max</text>
</g>
<!-- Node1575 -->
<g id="node2" class="node"><title>Node1575</title>
<g id="a_node2"><a xlink:href="x4driver_8c.xhtml#a6d30c9bc074d42ab983535463b8a7a28" target="_top" xlink:title="x4driver_set_dac_auto">
<polygon fill="white" stroke="black" points="169,-38.5 169,-57.5 294,-57.5 294,-38.5 169,-38.5"/>
<text text-anchor="middle" x="231.5" y="-45.5" font-family="Helvetica,sans-Serif" font-size="10.00">x4driver_set_dac_auto</text>
</a>
</g>
</g>
<!-- Node1574&#45;&gt;Node1575 -->
<g id="edge1" class="edge"><title>Node1574&#45;&gt;Node1575</title>
<path fill="none" stroke="midnightblue" d="M134.382,-37.097C145.836,-38.3963 157.605,-39.7313 168.807,-41.002"/>
<polygon fill="midnightblue" stroke="midnightblue" points="134.75,-33.6165 124.42,-35.967 133.961,-40.5719 134.75,-33.6165"/>
</g>
<!-- Node1576 -->
<g id="node3" class="node"><title>Node1576</title>
<g id="a_node3"><a xlink:href="xep__application__mcp__callbacks_8h.xhtml#ad1495daac7c29451ea7c3c2ad398e997" target="_top" xlink:title="onMcpX4DriverSetDacMax">
<polygon fill="white" stroke="red" points="160,-0.5 160,-19.5 303,-19.5 303,-0.5 160,-0.5"/>
<text text-anchor="middle" x="231.5" y="-7.5" font-family="Helvetica,sans-Serif" font-size="10.00">onMcpX4DriverSetDacMax</text>
</a>
</g>
</g>
<!-- Node1574&#45;&gt;Node1576 -->
<g id="edge2" class="edge"><title>Node1574&#45;&gt;Node1576</title>
<path fill="none" stroke="midnightblue" d="M134.507,-20.8887C142.864,-19.9409 151.386,-18.9741 159.732,-18.0274"/>
<polygon fill="midnightblue" stroke="midnightblue" points="133.961,-17.4281 124.42,-22.033 134.75,-24.3835 133.961,-17.4281"/>
</g>
</g>
</svg>
