<?xml version="1.0" encoding="UTF-8" standalone="no"?>
<!DOCTYPE svg PUBLIC "-//W3C//DTD SVG 1.1//EN"
 "http://www.w3.org/Graphics/SVG/1.1/DTD/svg11.dtd">
<!-- Generated by graphviz version 2.38.0 (20140413.2041)
 -->
<!-- Title: x4driver_ldo_enable Pages: 1 -->
<svg width="296pt" height="142pt"
 viewBox="0.00 0.00 296.00 142.00" xmlns="http://www.w3.org/2000/svg" xmlns:xlink="http://www.w3.org/1999/xlink">
<g id="graph0" class="graph" transform="scale(1 1) rotate(0) translate(4 138)">
<title>x4driver_ldo_enable</title>
<polygon fill="white" stroke="none" points="-4,4 -4,-138 292,-138 292,4 -4,4"/>
<!-- Node1427 -->
<g id="node1" class="node"><title>Node1427</title>
<polygon fill="#bfbfbf" stroke="black" points="0,-57.5 0,-76.5 112,-76.5 112,-57.5 0,-57.5"/>
<text text-anchor="middle" x="56" y="-64.5" font-family="Helvetica,sans-Serif" font-size="10.00">x4driver_ldo_enable</text>
</g>
<!-- Node1428 -->
<g id="node2" class="node"><title>Node1428</title>
<g id="a_node2"><a xlink:href="x4driver_8c.xhtml#abde766e0d1366c610923ac6df6aff591" target="_top" xlink:title="Enable dvdd ldo on X4 NOTE: Implements workaround to kick start LDO. ">
<polygon fill="white" stroke="red" points="148,-114.5 148,-133.5 288,-133.5 288,-114.5 148,-114.5"/>
<text text-anchor="middle" x="218" y="-121.5" font-family="Helvetica,sans-Serif" font-size="10.00">_x4driver_enable_dvdd_tx</text>
</a>
</g>
</g>
<!-- Node1427&#45;&gt;Node1428 -->
<g id="edge1" class="edge"><title>Node1427&#45;&gt;Node1428</title>
<path fill="none" stroke="midnightblue" d="M77.6726,-76.5176C95.9304,-84.7092 123.399,-96.5147 148,-105 154.629,-107.286 161.689,-109.488 168.667,-111.532"/>
<polygon fill="midnightblue" stroke="midnightblue" points="168.198,-115.037 178.773,-114.403 170.111,-108.303 168.198,-115.037"/>
</g>
<!-- Node1438 -->
<g id="node3" class="node"><title>Node1438</title>
<g id="a_node3"><a xlink:href="x4driver_8c.xhtml#a2ed5d880184cddb6899a3ee5789ae282" target="_top" xlink:title="Enable dvdd ldo on X4 NOTE: Implements workaround to kick start LDO. ">
<polygon fill="white" stroke="red" points="148,-76.5 148,-95.5 288,-95.5 288,-76.5 148,-76.5"/>
<text text-anchor="middle" x="218" y="-83.5" font-family="Helvetica,sans-Serif" font-size="10.00">_x4driver_enable_dvdd_rx</text>
</a>
</g>
</g>
<!-- Node1427&#45;&gt;Node1438 -->
<g id="edge2" class="edge"><title>Node1427&#45;&gt;Node1438</title>
<path fill="none" stroke="midnightblue" d="M112.063,-73.5387C120.379,-74.5263 129.095,-75.5613 137.798,-76.5948"/>
<polygon fill="midnightblue" stroke="midnightblue" points="137.642,-80.1007 147.985,-77.8044 138.467,-73.1495 137.642,-80.1007"/>
</g>
<!-- Node1439 -->
<g id="node4" class="node"><title>Node1439</title>
<g id="a_node4"><a xlink:href="x4driver_8c.xhtml#a6cf76ee14b0f9d6d942771a01b4bc6ab" target="_top" xlink:title="Enable avdd ldo on X4 NOTE: Implements workaround to kick start LDO. ">
<polygon fill="white" stroke="red" points="148,-38.5 148,-57.5 288,-57.5 288,-38.5 148,-38.5"/>
<text text-anchor="middle" x="218" y="-45.5" font-family="Helvetica,sans-Serif" font-size="10.00">_x4driver_enable_avdd_rx</text>
</a>
</g>
</g>
<!-- Node1427&#45;&gt;Node1439 -->
<g id="edge3" class="edge"><title>Node1427&#45;&gt;Node1439</title>
<path fill="none" stroke="midnightblue" d="M112.063,-60.4613C120.379,-59.4737 129.095,-58.4387 137.798,-57.4052"/>
<polygon fill="midnightblue" stroke="midnightblue" points="138.467,-60.8505 147.985,-56.1956 137.642,-53.8993 138.467,-60.8505"/>
</g>
<!-- Node1440 -->
<g id="node5" class="node"><title>Node1440</title>
<g id="a_node5"><a xlink:href="x4driver_8c.xhtml#ac1bde9631df9f305637fd490f6d6034e" target="_top" xlink:title="Enable avdd ldo on X4 NOTE: Implements workaround to kick start LDO. ">
<polygon fill="white" stroke="red" points="148,-0.5 148,-19.5 288,-19.5 288,-0.5 148,-0.5"/>
<text text-anchor="middle" x="218" y="-7.5" font-family="Helvetica,sans-Serif" font-size="10.00">_x4driver_enable_avdd_tx</text>
</a>
</g>
</g>
<!-- Node1427&#45;&gt;Node1440 -->
<g id="edge4" class="edge"><title>Node1427&#45;&gt;Node1440</title>
<path fill="none" stroke="midnightblue" d="M77.6726,-57.4824C95.9304,-49.2908 123.399,-37.4853 148,-29 154.629,-26.7135 161.689,-24.5117 168.667,-22.4685"/>
<polygon fill="midnightblue" stroke="midnightblue" points="170.111,-25.6969 178.773,-19.5968 168.198,-18.9634 170.111,-25.6969"/>
</g>
</g>
</svg>
