<?xml version="1.0" encoding="UTF-8" standalone="no"?>
<!DOCTYPE svg PUBLIC "-//W3C//DTD SVG 1.1//EN"
 "http://www.w3.org/Graphics/SVG/1.1/DTD/svg11.dtd">
<!-- Generated by graphviz version 2.38.0 (20140413.2041)
 -->
<!-- Title: TEST_F Pages: 1 -->
<svg width="203pt" height="446pt"
 viewBox="0.00 0.00 203.00 446.00" xmlns="http://www.w3.org/2000/svg" xmlns:xlink="http://www.w3.org/1999/xlink">
<g id="graph0" class="graph" transform="scale(1 1) rotate(0) translate(4 442)">
<title>TEST_F</title>
<polygon fill="white" stroke="none" points="-4,4 -4,-442 199,-442 199,4 -4,4"/>
<!-- Node169 -->
<g id="node1" class="node"><title>Node169</title>
<polygon fill="#bfbfbf" stroke="black" points="0,-209.5 0,-228.5 50,-228.5 50,-209.5 0,-209.5"/>
<text text-anchor="middle" x="25" y="-216.5" font-family="Helvetica,sans-Serif" font-size="10.00">TEST_F</text>
</g>
<!-- Node170 -->
<g id="node2" class="node"><title>Node170</title>
<g id="a_node2"><a xlink:href="x4driver__unittest_8cpp.xhtml#aed0d42e77dd6bc7411a086aed6eed8d4" target="_top" xlink:title="test_lock">
<polygon fill="white" stroke="black" points="111,-418.5 111,-437.5 170,-437.5 170,-418.5 111,-418.5"/>
<text text-anchor="middle" x="140.5" y="-425.5" font-family="Helvetica,sans-Serif" font-size="10.00">test_lock</text>
</a>
</g>
</g>
<!-- Node169&#45;&gt;Node170 -->
<g id="edge1" class="edge"><title>Node169&#45;&gt;Node170</title>
<path fill="none" stroke="midnightblue" d="M26.1787,-228.794C27.2733,-259.658 34.8295,-355.987 86,-409 90.2537,-413.407 95.5946,-416.794 101.244,-419.396"/>
<polygon fill="midnightblue" stroke="midnightblue" points="100.316,-422.788 110.906,-423.077 102.808,-416.246 100.316,-422.788"/>
</g>
<!-- Node171 -->
<g id="node3" class="node"><title>Node171</title>
<g id="a_node3"><a xlink:href="x4driver__unittest_8cpp.xhtml#a567d5572537c4401078364d2ff4f8ca2" target="_top" xlink:title="test_unlock">
<polygon fill="white" stroke="black" points="105,-380.5 105,-399.5 176,-399.5 176,-380.5 105,-380.5"/>
<text text-anchor="middle" x="140.5" y="-387.5" font-family="Helvetica,sans-Serif" font-size="10.00">test_unlock</text>
</a>
</g>
</g>
<!-- Node169&#45;&gt;Node171 -->
<g id="edge2" class="edge"><title>Node169&#45;&gt;Node171</title>
<path fill="none" stroke="midnightblue" d="M27.0605,-228.704C30.4739,-255.283 43.5554,-330.004 86,-371 88.869,-373.771 92.168,-376.141 95.6891,-378.167"/>
<polygon fill="midnightblue" stroke="midnightblue" points="94.2513,-381.359 104.781,-382.528 97.2787,-375.048 94.2513,-381.359"/>
</g>
<!-- Node172 -->
<g id="node4" class="node"><title>Node172</title>
<g id="a_node4"><a xlink:href="x4driver__unittest_8cpp.xhtml#aca74c5603b9441a1329a142f6aa0e2b9" target="_top" xlink:title="test_enable_set">
<polygon fill="white" stroke="black" points="94,-342.5 94,-361.5 187,-361.5 187,-342.5 94,-342.5"/>
<text text-anchor="middle" x="140.5" y="-349.5" font-family="Helvetica,sans-Serif" font-size="10.00">test_enable_set</text>
</a>
</g>
</g>
<!-- Node169&#45;&gt;Node172 -->
<g id="edge3" class="edge"><title>Node169&#45;&gt;Node172</title>
<path fill="none" stroke="midnightblue" d="M28.5033,-228.775C34.5862,-250.608 52.1882,-303.715 86,-333 87.9557,-334.694 90.0729,-336.24 92.2979,-337.651"/>
<polygon fill="midnightblue" stroke="midnightblue" points="90.8292,-340.835 101.3,-342.451 94.1224,-334.658 90.8292,-340.835"/>
</g>
<!-- Node173 -->
<g id="node5" class="node"><title>Node173</title>
<g id="a_node5"><a xlink:href="x4driver__unittest_8cpp.xhtml#ae2f624d73c2aef14f37123142ded7bc6" target="_top" xlink:title="test_spi_write">
<polygon fill="white" stroke="red" points="99.5,-304.5 99.5,-323.5 181.5,-323.5 181.5,-304.5 99.5,-304.5"/>
<text text-anchor="middle" x="140.5" y="-311.5" font-family="Helvetica,sans-Serif" font-size="10.00">test_spi_write</text>
</a>
</g>
</g>
<!-- Node169&#45;&gt;Node173 -->
<g id="edge4" class="edge"><title>Node169&#45;&gt;Node173</title>
<path fill="none" stroke="midnightblue" d="M31.1582,-228.596C40.2114,-244.575 60.4492,-276.687 86,-295 88.6437,-296.895 91.4949,-298.617 94.456,-300.179"/>
<polygon fill="midnightblue" stroke="midnightblue" points="93.027,-303.375 103.572,-304.4 95.9681,-297.022 93.027,-303.375"/>
</g>
<!-- Node175 -->
<g id="node6" class="node"><title>Node175</title>
<g id="a_node6"><a xlink:href="x4driver__unittest_8cpp.xhtml#a964c40367fd09ff3477146d28ab46768" target="_top" xlink:title="test_spi_write_read">
<polygon fill="white" stroke="red" points="86,-266.5 86,-285.5 195,-285.5 195,-266.5 86,-266.5"/>
<text text-anchor="middle" x="140.5" y="-273.5" font-family="Helvetica,sans-Serif" font-size="10.00">test_spi_write_read</text>
</a>
</g>
</g>
<!-- Node169&#45;&gt;Node175 -->
<g id="edge5" class="edge"><title>Node169&#45;&gt;Node175</title>
<path fill="none" stroke="midnightblue" d="M39.3176,-228.658C51.1553,-236.94 69.1479,-248.799 86,-257 90.1503,-259.02 94.5723,-260.936 99.0279,-262.72"/>
<polygon fill="midnightblue" stroke="midnightblue" points="98.1514,-266.131 108.743,-266.4 100.631,-259.585 98.1514,-266.131"/>
</g>
<!-- Node176 -->
<g id="node7" class="node"><title>Node176</title>
<g id="a_node7"><a xlink:href="x4driver__unittest_8cpp.xhtml#a1aa6821ce8346bb3ab63a9715545a51e" target="_top" xlink:title="test_wait_us">
<polygon fill="white" stroke="black" points="102.5,-228.5 102.5,-247.5 178.5,-247.5 178.5,-228.5 102.5,-228.5"/>
<text text-anchor="middle" x="140.5" y="-235.5" font-family="Helvetica,sans-Serif" font-size="10.00">test_wait_us</text>
</a>
</g>
</g>
<!-- Node169&#45;&gt;Node176 -->
<g id="edge6" class="edge"><title>Node169&#45;&gt;Node176</title>
<path fill="none" stroke="midnightblue" d="M50.0704,-223.029C62.2186,-225.063 77.3974,-227.604 91.7818,-230.012"/>
<polygon fill="midnightblue" stroke="midnightblue" points="91.62,-233.533 102.061,-231.733 92.7758,-226.63 91.62,-233.533"/>
</g>
<!-- Node177 -->
<g id="node8" class="node"><title>Node177</title>
<g id="a_node8"><a xlink:href="class_spi_registers.xhtml#a61d0294e72dd6a26d0de29525155e1af" target="_top" xlink:title="SpiRegisters::reset">
<polygon fill="white" stroke="black" points="87.5,-190.5 87.5,-209.5 193.5,-209.5 193.5,-190.5 87.5,-190.5"/>
<text text-anchor="middle" x="140.5" y="-197.5" font-family="Helvetica,sans-Serif" font-size="10.00">SpiRegisters::reset</text>
</a>
</g>
</g>
<!-- Node169&#45;&gt;Node177 -->
<g id="edge7" class="edge"><title>Node169&#45;&gt;Node177</title>
<path fill="none" stroke="midnightblue" d="M50.0704,-214.971C58.1841,-213.612 67.6497,-212.028 77.3276,-210.408"/>
<polygon fill="midnightblue" stroke="midnightblue" points="78.1572,-213.818 87.4421,-208.715 77.0014,-206.914 78.1572,-213.818"/>
</g>
<!-- Node178 -->
<g id="node9" class="node"><title>Node178</title>
<g id="a_node9"><a xlink:href="x4driver_8h.xhtml#a2e248dc4b2feab14c20a2b5fbfe2b1db" target="_top" xlink:title="Creates x4driver instance. ">
<polygon fill="white" stroke="black" points="95,-152.5 95,-171.5 186,-171.5 186,-152.5 95,-152.5"/>
<text text-anchor="middle" x="140.5" y="-159.5" font-family="Helvetica,sans-Serif" font-size="10.00">x4driver_create</text>
</a>
</g>
</g>
<!-- Node169&#45;&gt;Node178 -->
<g id="edge8" class="edge"><title>Node169&#45;&gt;Node178</title>
<path fill="none" stroke="midnightblue" d="M39.3176,-209.342C51.1553,-201.06 69.1479,-189.201 86,-181 90.1503,-178.98 94.5723,-177.064 99.0279,-175.28"/>
<polygon fill="midnightblue" stroke="midnightblue" points="100.631,-178.415 108.743,-171.6 98.1514,-171.869 100.631,-178.415"/>
</g>
<!-- Node179 -->
<g id="node10" class="node"><title>Node179</title>
<g id="a_node10"><a xlink:href="x4driver__unittest_8cpp.xhtml#ac959c469c008d0f52799bd92b0af1df0" target="_top" xlink:title="push_8051">
<polygon fill="white" stroke="black" points="106,-114.5 106,-133.5 175,-133.5 175,-114.5 106,-114.5"/>
<text text-anchor="middle" x="140.5" y="-121.5" font-family="Helvetica,sans-Serif" font-size="10.00">push_8051</text>
</a>
</g>
</g>
<!-- Node169&#45;&gt;Node179 -->
<g id="edge9" class="edge"><title>Node169&#45;&gt;Node179</title>
<path fill="none" stroke="midnightblue" d="M31.1582,-209.404C40.2114,-193.425 60.4492,-161.313 86,-143 89.2421,-140.676 92.796,-138.612 96.4823,-136.784"/>
<polygon fill="midnightblue" stroke="midnightblue" points="98.0497,-139.919 105.816,-132.712 95.2504,-133.503 98.0497,-139.919"/>
</g>
<!-- Node180 -->
<g id="node11" class="node"><title>Node180</title>
<g id="a_node11"><a xlink:href="x4driver__unittest_8cpp.xhtml#a052bd654070290aac9c1494b658adf05" target="_top" xlink:title="push_all_ldos">
<polygon fill="white" stroke="red" points="100.5,-76.5 100.5,-95.5 180.5,-95.5 180.5,-76.5 100.5,-76.5"/>
<text text-anchor="middle" x="140.5" y="-83.5" font-family="Helvetica,sans-Serif" font-size="10.00">push_all_ldos</text>
</a>
</g>
</g>
<!-- Node169&#45;&gt;Node180 -->
<g id="edge10" class="edge"><title>Node169&#45;&gt;Node180</title>
<path fill="none" stroke="midnightblue" d="M28.5033,-209.225C34.5862,-187.392 52.1882,-134.285 86,-105 87.9557,-103.306 90.0729,-101.76 92.2979,-100.349"/>
<polygon fill="midnightblue" stroke="midnightblue" points="94.1224,-103.342 101.3,-95.5493 90.8292,-97.1653 94.1224,-103.342"/>
</g>
<!-- Node184 -->
<g id="node12" class="node"><title>Node184</title>
<g id="a_node12"><a xlink:href="x4driver__unittest_8cpp.xhtml#aad032e1daa8cb2274087b6aa0817f903" target="_top" xlink:title="push_clock">
<polygon fill="white" stroke="red" points="106,-38.5 106,-57.5 175,-57.5 175,-38.5 106,-38.5"/>
<text text-anchor="middle" x="140.5" y="-45.5" font-family="Helvetica,sans-Serif" font-size="10.00">push_clock</text>
</a>
</g>
</g>
<!-- Node169&#45;&gt;Node184 -->
<g id="edge11" class="edge"><title>Node169&#45;&gt;Node184</title>
<path fill="none" stroke="midnightblue" d="M27.0605,-209.296C30.4739,-182.717 43.5554,-107.996 86,-67 89.1105,-63.9956 92.7263,-61.463 96.5829,-59.3286"/>
<polygon fill="midnightblue" stroke="midnightblue" points="98.2774,-62.4015 105.894,-55.0366 95.3469,-56.0444 98.2774,-62.4015"/>
</g>
<!-- Node185 -->
<g id="node13" class="node"><title>Node185</title>
<g id="a_node13"><a xlink:href="x4driver_8h.xhtml#a86dbadcb2e415d23600ef1bb31c9dbde" target="_top" xlink:title="Initiates x4driver. ">
<polygon fill="white" stroke="red" points="103.5,-0.5 103.5,-19.5 177.5,-19.5 177.5,-0.5 103.5,-0.5"/>
<text text-anchor="middle" x="140.5" y="-7.5" font-family="Helvetica,sans-Serif" font-size="10.00">x4driver_init</text>
</a>
</g>
</g>
<!-- Node169&#45;&gt;Node185 -->
<g id="edge12" class="edge"><title>Node169&#45;&gt;Node185</title>
<path fill="none" stroke="midnightblue" d="M26.1787,-209.206C27.2733,-178.342 34.8295,-82.0131 86,-29 88.4707,-26.4403 91.3082,-24.2247 94.36,-22.3071"/>
<polygon fill="midnightblue" stroke="midnightblue" points="96.1118,-25.3419 103.401,-17.6533 92.9081,-19.118 96.1118,-25.3419"/>
</g>
</g>
</svg>
