<?xml version="1.0" encoding="UTF-8" standalone="no"?>
<!DOCTYPE svg PUBLIC "-//W3C//DTD SVG 1.1//EN"
 "http://www.w3.org/Graphics/SVG/1.1/DTD/svg11.dtd">
<!-- Generated by graphviz version 2.38.0 (20140413.2041)
 -->
<!-- Title: TEST_F Pages: 1 -->
<svg width="228pt" height="408pt"
 viewBox="0.00 0.00 228.00 408.00" xmlns="http://www.w3.org/2000/svg" xmlns:xlink="http://www.w3.org/1999/xlink">
<g id="graph0" class="graph" transform="scale(1 1) rotate(0) translate(4 404)">
<title>TEST_F</title>
<polygon fill="white" stroke="none" points="-4,4 -4,-404 224,-404 224,4 -4,4"/>
<!-- Node120 -->
<g id="node1" class="node"><title>Node120</title>
<polygon fill="#bfbfbf" stroke="black" points="0,-190.5 0,-209.5 50,-209.5 50,-190.5 0,-190.5"/>
<text text-anchor="middle" x="25" y="-197.5" font-family="Helvetica,sans-Serif" font-size="10.00">TEST_F</text>
</g>
<!-- Node121 -->
<g id="node2" class="node"><title>Node121</title>
<g id="a_node2"><a xlink:href="x4driver__unittest_8cpp.xhtml#aed0d42e77dd6bc7411a086aed6eed8d4" target="_top" xlink:title="test_lock">
<polygon fill="white" stroke="black" points="123.5,-380.5 123.5,-399.5 182.5,-399.5 182.5,-380.5 123.5,-380.5"/>
<text text-anchor="middle" x="153" y="-387.5" font-family="Helvetica,sans-Serif" font-size="10.00">test_lock</text>
</a>
</g>
</g>
<!-- Node120&#45;&gt;Node121 -->
<g id="edge1" class="edge"><title>Node120&#45;&gt;Node121</title>
<path fill="none" stroke="midnightblue" d="M26.4362,-209.768C28.2723,-238.809 37.7368,-325.419 86,-371 93.5419,-378.123 103.58,-382.599 113.547,-385.404"/>
<polygon fill="midnightblue" stroke="midnightblue" points="112.863,-388.838 123.395,-387.689 114.445,-382.019 112.863,-388.838"/>
</g>
<!-- Node122 -->
<g id="node3" class="node"><title>Node122</title>
<g id="a_node3"><a xlink:href="x4driver__unittest_8cpp.xhtml#a567d5572537c4401078364d2ff4f8ca2" target="_top" xlink:title="test_unlock">
<polygon fill="white" stroke="black" points="117.5,-342.5 117.5,-361.5 188.5,-361.5 188.5,-342.5 117.5,-342.5"/>
<text text-anchor="middle" x="153" y="-349.5" font-family="Helvetica,sans-Serif" font-size="10.00">test_unlock</text>
</a>
</g>
</g>
<!-- Node120&#45;&gt;Node122 -->
<g id="edge2" class="edge"><title>Node120&#45;&gt;Node122</title>
<path fill="none" stroke="midnightblue" d="M27.521,-209.685C31.8835,-234.17 46.743,-299.007 86,-333 92.2162,-338.383 99.8726,-342.244 107.742,-345.013"/>
<polygon fill="midnightblue" stroke="midnightblue" points="106.782,-348.379 117.365,-347.878 108.779,-341.67 106.782,-348.379"/>
</g>
<!-- Node123 -->
<g id="node4" class="node"><title>Node123</title>
<g id="a_node4"><a xlink:href="x4driver__unittest_8cpp.xhtml#aca74c5603b9441a1329a142f6aa0e2b9" target="_top" xlink:title="test_enable_set">
<polygon fill="white" stroke="black" points="106.5,-304.5 106.5,-323.5 199.5,-323.5 199.5,-304.5 106.5,-304.5"/>
<text text-anchor="middle" x="153" y="-311.5" font-family="Helvetica,sans-Serif" font-size="10.00">test_enable_set</text>
</a>
</g>
</g>
<!-- Node120&#45;&gt;Node123 -->
<g id="edge3" class="edge"><title>Node120&#45;&gt;Node123</title>
<path fill="none" stroke="midnightblue" d="M29.4146,-209.722C36.689,-228.997 55.5778,-272.165 86,-295 89.3794,-297.537 93.0879,-299.735 96.9696,-301.64"/>
<polygon fill="midnightblue" stroke="midnightblue" points="95.6946,-304.901 106.268,-305.575 98.4226,-298.455 95.6946,-304.901"/>
</g>
<!-- Node124 -->
<g id="node5" class="node"><title>Node124</title>
<g id="a_node5"><a xlink:href="x4driver__unittest_8cpp.xhtml#ae2f624d73c2aef14f37123142ded7bc6" target="_top" xlink:title="test_spi_write">
<polygon fill="white" stroke="red" points="112,-266.5 112,-285.5 194,-285.5 194,-266.5 112,-266.5"/>
<text text-anchor="middle" x="153" y="-273.5" font-family="Helvetica,sans-Serif" font-size="10.00">test_spi_write</text>
</a>
</g>
</g>
<!-- Node120&#45;&gt;Node124 -->
<g id="edge4" class="edge"><title>Node120&#45;&gt;Node124</title>
<path fill="none" stroke="midnightblue" d="M33.487,-209.539C43.9253,-222.205 64.0555,-244.435 86,-257 91.0379,-259.885 96.5468,-262.359 102.165,-264.476"/>
<polygon fill="midnightblue" stroke="midnightblue" points="101.066,-267.799 111.66,-267.708 103.322,-261.172 101.066,-267.799"/>
</g>
<!-- Node126 -->
<g id="node6" class="node"><title>Node126</title>
<g id="a_node6"><a xlink:href="x4driver__unittest_8cpp.xhtml#a964c40367fd09ff3477146d28ab46768" target="_top" xlink:title="test_spi_write_read">
<polygon fill="white" stroke="red" points="98.5,-228.5 98.5,-247.5 207.5,-247.5 207.5,-228.5 98.5,-228.5"/>
<text text-anchor="middle" x="153" y="-235.5" font-family="Helvetica,sans-Serif" font-size="10.00">test_spi_write_read</text>
</a>
</g>
</g>
<!-- Node120&#45;&gt;Node126 -->
<g id="edge5" class="edge"><title>Node120&#45;&gt;Node126</title>
<path fill="none" stroke="midnightblue" d="M50.1858,-207.819C61.1056,-211.308 74.181,-215.428 86,-219 93.2219,-221.183 100.906,-223.447 108.382,-225.619"/>
<polygon fill="midnightblue" stroke="midnightblue" points="107.456,-228.995 118.034,-228.408 109.398,-222.27 107.456,-228.995"/>
</g>
<!-- Node127 -->
<g id="node7" class="node"><title>Node127</title>
<g id="a_node7"><a xlink:href="class_spi_registers.xhtml#a61d0294e72dd6a26d0de29525155e1af" target="_top" xlink:title="SpiRegisters::reset">
<polygon fill="white" stroke="black" points="100,-190.5 100,-209.5 206,-209.5 206,-190.5 100,-190.5"/>
<text text-anchor="middle" x="153" y="-197.5" font-family="Helvetica,sans-Serif" font-size="10.00">SpiRegisters::reset</text>
</a>
</g>
</g>
<!-- Node120&#45;&gt;Node127 -->
<g id="edge6" class="edge"><title>Node120&#45;&gt;Node127</title>
<path fill="none" stroke="midnightblue" d="M50.2941,-200C61.6304,-200 75.6966,-200 89.7156,-200"/>
<polygon fill="midnightblue" stroke="midnightblue" points="89.8756,-203.5 99.8756,-200 89.8756,-196.5 89.8756,-203.5"/>
</g>
<!-- Node128 -->
<g id="node8" class="node"><title>Node128</title>
<g id="a_node8"><a xlink:href="x4driver_8h.xhtml#a2e248dc4b2feab14c20a2b5fbfe2b1db" target="_top" xlink:title="Creates x4driver instance. ">
<polygon fill="white" stroke="black" points="107.5,-152.5 107.5,-171.5 198.5,-171.5 198.5,-152.5 107.5,-152.5"/>
<text text-anchor="middle" x="153" y="-159.5" font-family="Helvetica,sans-Serif" font-size="10.00">x4driver_create</text>
</a>
</g>
</g>
<!-- Node120&#45;&gt;Node128 -->
<g id="edge7" class="edge"><title>Node120&#45;&gt;Node128</title>
<path fill="none" stroke="midnightblue" d="M50.1858,-192.181C61.1056,-188.692 74.181,-184.572 86,-181 93.2219,-178.817 100.906,-176.553 108.382,-174.381"/>
<polygon fill="midnightblue" stroke="midnightblue" points="109.398,-177.73 118.034,-171.592 107.456,-171.005 109.398,-177.73"/>
</g>
<!-- Node129 -->
<g id="node9" class="node"><title>Node129</title>
<g id="a_node9"><a xlink:href="x4driver_8h.xhtml#a983024655a1dcd0ad2aa0ec6cb8eb3cb" target="_top" xlink:title="Gets PIF register value. ">
<polygon fill="white" stroke="red" points="86,-114.5 86,-133.5 220,-133.5 220,-114.5 86,-114.5"/>
<text text-anchor="middle" x="153" y="-121.5" font-family="Helvetica,sans-Serif" font-size="10.00">x4driver_get_pif_register</text>
</a>
</g>
</g>
<!-- Node120&#45;&gt;Node129 -->
<g id="edge8" class="edge"><title>Node120&#45;&gt;Node129</title>
<path fill="none" stroke="midnightblue" d="M33.487,-190.461C43.9253,-177.795 64.0555,-155.565 86,-143 89.8884,-140.774 94.0573,-138.791 98.3407,-137.03"/>
<polygon fill="midnightblue" stroke="midnightblue" points="99.6721,-140.269 107.836,-133.516 97.2428,-133.704 99.6721,-140.269"/>
</g>
<!-- Node136 -->
<g id="node10" class="node"><title>Node136</title>
<g id="a_node10"><a xlink:href="x4driver__unittest_8cpp.xhtml#a1bc050f646470f9b1119b4fa564ec224" target="_top" xlink:title="push_pif_read">
<polygon fill="white" stroke="black" points="111.5,-76.5 111.5,-95.5 194.5,-95.5 194.5,-76.5 111.5,-76.5"/>
<text text-anchor="middle" x="153" y="-83.5" font-family="Helvetica,sans-Serif" font-size="10.00">push_pif_read</text>
</a>
</g>
</g>
<!-- Node120&#45;&gt;Node136 -->
<g id="edge9" class="edge"><title>Node120&#45;&gt;Node136</title>
<path fill="none" stroke="midnightblue" d="M29.4146,-190.278C36.689,-171.003 55.5778,-127.835 86,-105 90.7651,-101.423 96.1846,-98.519 101.821,-96.1608"/>
<polygon fill="midnightblue" stroke="midnightblue" points="103.221,-99.3766 111.436,-92.6856 100.841,-92.7934 103.221,-99.3766"/>
</g>
<!-- Node137 -->
<g id="node11" class="node"><title>Node137</title>
<g id="a_node11"><a xlink:href="x4driver__unittest_8cpp.xhtml#a170b8cd8b79babc9e97102e007844290" target="_top" xlink:title="push_pif_write">
<polygon fill="white" stroke="black" points="111,-38.5 111,-57.5 195,-57.5 195,-38.5 111,-38.5"/>
<text text-anchor="middle" x="153" y="-45.5" font-family="Helvetica,sans-Serif" font-size="10.00">push_pif_write</text>
</a>
</g>
</g>
<!-- Node120&#45;&gt;Node137 -->
<g id="edge10" class="edge"><title>Node120&#45;&gt;Node137</title>
<path fill="none" stroke="midnightblue" d="M27.521,-190.315C31.8835,-165.83 46.743,-100.993 86,-67 90.5042,-63.0998 95.7646,-59.9983 101.314,-57.5323"/>
<polygon fill="midnightblue" stroke="midnightblue" points="102.714,-60.7455 110.845,-53.9533 100.253,-54.1923 102.714,-60.7455"/>
</g>
<!-- Node138 -->
<g id="node12" class="node"><title>Node138</title>
<g id="a_node12"><a xlink:href="x4driver_8h.xhtml#a382b6e4ffa3658d409dfe855707dc16d" target="_top" xlink:title="Sets PIF register value. ">
<polygon fill="white" stroke="red" points="86,-0.5 86,-19.5 220,-19.5 220,-0.5 86,-0.5"/>
<text text-anchor="middle" x="153" y="-7.5" font-family="Helvetica,sans-Serif" font-size="10.00">x4driver_set_pif_register</text>
</a>
</g>
</g>
<!-- Node120&#45;&gt;Node138 -->
<g id="edge11" class="edge"><title>Node120&#45;&gt;Node138</title>
<path fill="none" stroke="midnightblue" d="M26.4362,-190.232C28.2723,-161.191 37.7368,-74.5806 86,-29 87.6552,-27.4368 89.4306,-26.0011 91.2992,-24.6825"/>
<polygon fill="midnightblue" stroke="midnightblue" points="93.1193,-27.6729 100.004,-19.6198 89.6,-21.6219 93.1193,-27.6729"/>
</g>
</g>
</svg>
