<?xml version="1.0" encoding="UTF-8" standalone="no"?>
<!DOCTYPE svg PUBLIC "-//W3C//DTD SVG 1.1//EN"
 "http://www.w3.org/Graphics/SVG/1.1/DTD/svg11.dtd">
<!-- Generated by graphviz version 2.38.0 (20140413.2041)
 -->
<!-- Title: x4driver_verify_firmware Pages: 1 -->
<svg width="423pt" height="98pt"
 viewBox="0.00 0.00 423.00 98.43" xmlns="http://www.w3.org/2000/svg" xmlns:xlink="http://www.w3.org/1999/xlink">
<g id="graph0" class="graph" transform="scale(1 1) rotate(0) translate(4 94.4302)">
<title>x4driver_verify_firmware</title>
<polygon fill="white" stroke="none" points="-4,4 -4,-94.4302 419,-94.4302 419,4 -4,4"/>
<!-- Node2211 -->
<g id="node1" class="node"><title>Node2211</title>
<polygon fill="#bfbfbf" stroke="black" points="0,-35.7151 0,-54.7151 132,-54.7151 132,-35.7151 0,-35.7151"/>
<text text-anchor="middle" x="66" y="-42.7151" font-family="Helvetica,sans-Serif" font-size="10.00">x4driver_verify_firmware</text>
</g>
<!-- Node2212 -->
<g id="node2" class="node"><title>Node2212</title>
<g id="a_node2"><a xlink:href="x4driver_8c.xhtml#acee55fcb62077a150f421c3bbf2c2947" target="_top" xlink:title="Utility function to take mutex. ">
<polygon fill="white" stroke="black" points="341,-54.7151 341,-73.7151 415,-73.7151 415,-54.7151 341,-54.7151"/>
<text text-anchor="middle" x="378" y="-61.7151" font-family="Helvetica,sans-Serif" font-size="10.00">mutex_take</text>
</a>
</g>
</g>
<!-- Node2211&#45;&gt;Node2212 -->
<g id="edge1" class="edge"><title>Node2211&#45;&gt;Node2212</title>
<path fill="none" stroke="midnightblue" d="M86.1433,-54.8002C106.027,-64.179 138.324,-77.8172 168,-83.2151 227.906,-94.1117 244.617,-91.0482 305,-83.2151 315.881,-81.8035 327.462,-79.2394 338.082,-76.4422"/>
<polygon fill="midnightblue" stroke="midnightblue" points="339.212,-79.761 347.915,-73.719 337.344,-73.015 339.212,-79.761"/>
</g>
<!-- Node2213 -->
<g id="node3" class="node"><title>Node2213</title>
<g id="a_node3"><a xlink:href="x4driver_8c.xhtml#a972399a44ab859c55b7a108af64015d3" target="_top" xlink:title="Set SPI register on radar chip. ">
<polygon fill="white" stroke="black" points="168.5,-54.7151 168.5,-73.7151 304.5,-73.7151 304.5,-54.7151 168.5,-54.7151"/>
<text text-anchor="middle" x="236.5" y="-61.7151" font-family="Helvetica,sans-Serif" font-size="10.00">x4driver_set_spi_register</text>
</a>
</g>
</g>
<!-- Node2211&#45;&gt;Node2213 -->
<g id="edge2" class="edge"><title>Node2211&#45;&gt;Node2213</title>
<path fill="none" stroke="midnightblue" d="M132.146,-52.561C140.667,-53.5217 149.462,-54.5135 158.158,-55.4941"/>
<polygon fill="midnightblue" stroke="midnightblue" points="157.97,-58.9949 168.299,-56.6375 158.754,-52.039 157.97,-58.9949"/>
</g>
<!-- Node2214 -->
<g id="node4" class="node"><title>Node2214</title>
<g id="a_node4"><a xlink:href="x4driver_8c.xhtml#afb50fddff34b3e2ea353077619cb139e" target="_top" xlink:title="Utility function to give mutex. ">
<polygon fill="white" stroke="black" points="342,-16.7151 342,-35.7151 414,-35.7151 414,-16.7151 342,-16.7151"/>
<text text-anchor="middle" x="378" y="-23.7151" font-family="Helvetica,sans-Serif" font-size="10.00">mutex_give</text>
</a>
</g>
</g>
<!-- Node2211&#45;&gt;Node2214 -->
<g id="edge8" class="edge"><title>Node2211&#45;&gt;Node2214</title>
<path fill="none" stroke="midnightblue" d="M86.1433,-35.63C106.027,-26.2512 138.324,-12.613 168,-7.2151 227.906,3.68147 244.617,0.618017 305,-7.2151 315.881,-8.62668 327.462,-11.1908 338.082,-13.988"/>
<polygon fill="midnightblue" stroke="midnightblue" points="337.344,-17.4152 347.915,-16.7112 339.212,-10.6692 337.344,-17.4152"/>
</g>
<!-- Node2215 -->
<g id="node5" class="node"><title>Node2215</title>
<g id="a_node5"><a xlink:href="x4driver_8c.xhtml#a696a63c5fe7e11fab1b8864faf6e296c" target="_top" xlink:title="Get SPI register on radar chip. ">
<polygon fill="white" stroke="black" points="168,-16.7151 168,-35.7151 305,-35.7151 305,-16.7151 168,-16.7151"/>
<text text-anchor="middle" x="236.5" y="-23.7151" font-family="Helvetica,sans-Serif" font-size="10.00">x4driver_get_spi_register</text>
</a>
</g>
</g>
<!-- Node2211&#45;&gt;Node2215 -->
<g id="edge5" class="edge"><title>Node2211&#45;&gt;Node2215</title>
<path fill="none" stroke="midnightblue" d="M132.146,-37.8692C140.533,-36.9235 149.187,-35.9477 157.75,-34.9821"/>
<polygon fill="midnightblue" stroke="midnightblue" points="158.196,-38.4542 167.74,-33.8557 157.411,-31.4983 158.196,-38.4542"/>
</g>
<!-- Node2213&#45;&gt;Node2212 -->
<g id="edge3" class="edge"><title>Node2213&#45;&gt;Node2212</title>
<path fill="none" stroke="midnightblue" d="M304.798,-64.2151C313.518,-64.2151 322.29,-64.2151 330.566,-64.2151"/>
<polygon fill="midnightblue" stroke="midnightblue" points="330.743,-67.7152 340.743,-64.2151 330.743,-60.7152 330.743,-67.7152"/>
</g>
<!-- Node2213&#45;&gt;Node2214 -->
<g id="edge4" class="edge"><title>Node2213&#45;&gt;Node2214</title>
<path fill="none" stroke="midnightblue" d="M272.702,-54.6261C290.71,-49.7207 312.828,-43.6955 332.056,-38.458"/>
<polygon fill="midnightblue" stroke="midnightblue" points="333.081,-41.8063 341.81,-35.801 331.241,-35.0524 333.081,-41.8063"/>
</g>
<!-- Node2215&#45;&gt;Node2212 -->
<g id="edge6" class="edge"><title>Node2215&#45;&gt;Node2212</title>
<path fill="none" stroke="midnightblue" d="M272.702,-35.8041C290.71,-40.7095 312.828,-46.7347 332.056,-51.9722"/>
<polygon fill="midnightblue" stroke="midnightblue" points="331.241,-55.3778 341.81,-54.6292 333.081,-48.6239 331.241,-55.3778"/>
</g>
<!-- Node2215&#45;&gt;Node2214 -->
<g id="edge7" class="edge"><title>Node2215&#45;&gt;Node2214</title>
<path fill="none" stroke="midnightblue" d="M305.207,-26.2151C314.189,-26.2151 323.216,-26.2151 331.693,-26.2151"/>
<polygon fill="midnightblue" stroke="midnightblue" points="331.718,-29.7152 341.718,-26.2151 331.718,-22.7152 331.718,-29.7152"/>
</g>
</g>
</svg>
