<?xml version="1.0" encoding="UTF-8" standalone="no"?>
<!DOCTYPE svg PUBLIC "-//W3C//DTD SVG 1.1//EN"
 "http://www.w3.org/Graphics/SVG/1.1/DTD/svg11.dtd">
<!-- Generated by graphviz version 2.38.0 (20140413.2041)
 -->
<!-- Title: x4driver_read_frame_normalized Pages: 1 -->
<svg width="451pt" height="200pt"
 viewBox="0.00 0.00 451.00 200.19" xmlns="http://www.w3.org/2000/svg" xmlns:xlink="http://www.w3.org/1999/xlink">
<g id="graph0" class="graph" transform="scale(1 1) rotate(0) translate(4 196.187)">
<title>x4driver_read_frame_normalized</title>
<polygon fill="white" stroke="none" points="-4,4 -4,-196.187 447,-196.187 447,4 -4,4"/>
<!-- Node647 -->
<g id="node1" class="node"><title>Node647</title>
<polygon fill="#bfbfbf" stroke="black" points="0,-93.5 0,-123.5 116,-123.5 116,-93.5 0,-93.5"/>
<text text-anchor="start" x="8" y="-111.5" font-family="Helvetica,sans-Serif" font-size="10.00">x4driver_read_frame</text>
<text text-anchor="middle" x="58" y="-100.5" font-family="Helvetica,sans-Serif" font-size="10.00">_normalized</text>
</g>
<!-- Node648 -->
<g id="node2" class="node"><title>Node648</title>
<g id="a_node2"><a xlink:href="x4driver_8c.xhtml#acee55fcb62077a150f421c3bbf2c2947" target="_top" xlink:title="Utility function to take mutex. ">
<polygon fill="white" stroke="black" points="369,-163 369,-182 443,-182 443,-163 369,-163"/>
<text text-anchor="middle" x="406" y="-170" font-family="Helvetica,sans-Serif" font-size="10.00">mutex_take</text>
</a>
</g>
</g>
<!-- Node647&#45;&gt;Node648 -->
<g id="edge1" class="edge"><title>Node647&#45;&gt;Node648</title>
<path fill="none" stroke="midnightblue" d="M73.0442,-123.598C89.9003,-140.498 119.93,-166.902 152,-177.5 221.218,-200.374 307.002,-191.494 358.794,-182.414"/>
<polygon fill="midnightblue" stroke="midnightblue" points="359.477,-185.847 368.684,-180.605 358.217,-178.962 359.477,-185.847"/>
</g>
<!-- Node649 -->
<g id="node3" class="node"><title>Node649</title>
<g id="a_node3"><a xlink:href="x4driver_8c.xhtml#ab008a9d8a7ab0744ceb00fb2116ad850" target="_top" xlink:title="Reads raw bytes from x4. ">
<polygon fill="white" stroke="red" points="184.5,-137.5 184.5,-167.5 300.5,-167.5 300.5,-137.5 184.5,-137.5"/>
<text text-anchor="start" x="192.5" y="-155.5" font-family="Helvetica,sans-Serif" font-size="10.00">x4driver_read_frame</text>
<text text-anchor="middle" x="242.5" y="-144.5" font-family="Helvetica,sans-Serif" font-size="10.00">_bytes</text>
</a>
</g>
</g>
<!-- Node647&#45;&gt;Node649 -->
<g id="edge2" class="edge"><title>Node647&#45;&gt;Node649</title>
<path fill="none" stroke="midnightblue" d="M116.243,-122.301C134.759,-126.765 155.454,-131.755 174.605,-136.372"/>
<polygon fill="midnightblue" stroke="midnightblue" points="173.918,-139.806 184.46,-138.748 175.559,-133.001 173.918,-139.806"/>
</g>
<!-- Node651 -->
<g id="node4" class="node"><title>Node651</title>
<g id="a_node4"><a xlink:href="x4driver_8c.xhtml#afb50fddff34b3e2ea353077619cb139e" target="_top" xlink:title="Utility function to give mutex. ">
<polygon fill="white" stroke="black" points="370,-122 370,-141 442,-141 442,-122 370,-122"/>
<text text-anchor="middle" x="406" y="-129" font-family="Helvetica,sans-Serif" font-size="10.00">mutex_give</text>
</a>
</g>
</g>
<!-- Node647&#45;&gt;Node651 -->
<g id="edge7" class="edge"><title>Node647&#45;&gt;Node651</title>
<path fill="none" stroke="midnightblue" d="M116.135,-112.298C184.358,-116.833 297.072,-124.326 359.625,-128.484"/>
<polygon fill="midnightblue" stroke="midnightblue" points="359.75,-132 369.96,-129.171 360.214,-125.015 359.75,-132"/>
</g>
<!-- Node658 -->
<g id="node5" class="node"><title>Node658</title>
<g id="a_node5"><a xlink:href="x4driver_8c.xhtml#a2c00d0525578a4ce31dbd42282e2460d" target="_top" xlink:title="Unpacks and normalizes frame. ">
<polygon fill="white" stroke="red" points="181,-49.5 181,-79.5 304,-79.5 304,-49.5 181,-49.5"/>
<text text-anchor="start" x="189" y="-67.5" font-family="Helvetica,sans-Serif" font-size="10.00">_x4driver_unpack_and</text>
<text text-anchor="middle" x="242.5" y="-56.5" font-family="Helvetica,sans-Serif" font-size="10.00">_normalize_frame</text>
</a>
</g>
</g>
<!-- Node647&#45;&gt;Node658 -->
<g id="edge5" class="edge"><title>Node647&#45;&gt;Node658</title>
<path fill="none" stroke="midnightblue" d="M116.243,-94.6988C133.619,-90.5097 152.914,-85.8577 171.051,-81.4849"/>
<polygon fill="midnightblue" stroke="midnightblue" points="172.087,-84.8354 180.989,-79.0891 170.447,-78.0304 172.087,-84.8354"/>
</g>
<!-- Node660 -->
<g id="node6" class="node"><title>Node660</title>
<g id="a_node6"><a xlink:href="x4driver_8c.xhtml#ad61271bd450a57e7bd4c6883ec8ccca1" target="_top" xlink:title="Unpacks and normalizes down converted frame. ">
<polygon fill="white" stroke="black" points="152,-0.5 152,-30.5 333,-30.5 333,-0.5 152,-0.5"/>
<text text-anchor="start" x="160" y="-18.5" font-family="Helvetica,sans-Serif" font-size="10.00">_x4driver_unpack_and</text>
<text text-anchor="middle" x="242.5" y="-7.5" font-family="Helvetica,sans-Serif" font-size="10.00">_normalize_downconverted_frame</text>
</a>
</g>
</g>
<!-- Node647&#45;&gt;Node660 -->
<g id="edge6" class="edge"><title>Node647&#45;&gt;Node660</title>
<path fill="none" stroke="midnightblue" d="M75.6177,-93.451C93.3508,-78.1209 122.85,-54.6484 152,-40.5 156.898,-38.1225 162.061,-35.9374 167.332,-33.9352"/>
<polygon fill="midnightblue" stroke="midnightblue" points="168.659,-37.1782 176.906,-30.5269 166.311,-30.5836 168.659,-37.1782"/>
</g>
<!-- Node649&#45;&gt;Node648 -->
<g id="edge3" class="edge"><title>Node649&#45;&gt;Node648</title>
<path fill="none" stroke="midnightblue" d="M300.894,-159.608C319.929,-161.965 340.86,-164.557 358.93,-166.795"/>
<polygon fill="midnightblue" stroke="midnightblue" points="358.568,-170.277 368.923,-168.032 359.429,-163.33 358.568,-170.277"/>
</g>
<!-- Node649&#45;&gt;Node651 -->
<g id="edge4" class="edge"><title>Node649&#45;&gt;Node651</title>
<path fill="none" stroke="midnightblue" d="M300.894,-145.037C320.234,-142.522 341.53,-139.753 359.795,-137.378"/>
<polygon fill="midnightblue" stroke="midnightblue" points="360.414,-140.827 369.879,-136.067 359.511,-133.886 360.414,-140.827"/>
</g>
</g>
</svg>
