<?xml version="1.0" encoding="UTF-8" standalone="no"?>
<!DOCTYPE svg PUBLIC "-//W3C//DTD SVG 1.1//EN"
 "http://www.w3.org/Graphics/SVG/1.1/DTD/svg11.dtd">
<!-- Generated by graphviz version 2.38.0 (20140413.2041)
 -->
<!-- Title: x4driver_set_filter_coefficients Pages: 1 -->
<svg width="281pt" height="39pt"
 viewBox="0.00 0.00 281.00 39.00" xmlns="http://www.w3.org/2000/svg" xmlns:xlink="http://www.w3.org/1999/xlink">
<g id="graph0" class="graph" transform="scale(1 1) rotate(0) translate(4 35)">
<title>x4driver_set_filter_coefficients</title>
<polygon fill="white" stroke="none" points="-4,4 -4,-35 277,-35 277,4 -4,4"/>
<!-- Node793 -->
<g id="node1" class="node"><title>Node793</title>
<polygon fill="#bfbfbf" stroke="black" points="0,-0.5 0,-30.5 101,-30.5 101,-0.5 0,-0.5"/>
<text text-anchor="start" x="8" y="-18.5" font-family="Helvetica,sans-Serif" font-size="10.00">x4driver_set_filter</text>
<text text-anchor="middle" x="50.5" y="-7.5" font-family="Helvetica,sans-Serif" font-size="10.00">_coefficients</text>
</g>
<!-- Node794 -->
<g id="node2" class="node"><title>Node794</title>
<g id="a_node2"><a xlink:href="x4driver_8c.xhtml#a85fef427a42cff60e7bf267da9fd4766" target="_top" xlink:title="_upload_downconversion\l_coeffs">
<polygon fill="white" stroke="red" points="137,-0.5 137,-30.5 273,-30.5 273,-0.5 137,-0.5"/>
<text text-anchor="start" x="145" y="-18.5" font-family="Helvetica,sans-Serif" font-size="10.00">_upload_downconversion</text>
<text text-anchor="middle" x="205" y="-7.5" font-family="Helvetica,sans-Serif" font-size="10.00">_coeffs</text>
</a>
</g>
</g>
<!-- Node793&#45;&gt;Node794 -->
<g id="edge1" class="edge"><title>Node793&#45;&gt;Node794</title>
<path fill="none" stroke="midnightblue" d="M101.012,-15.5C109.264,-15.5 117.993,-15.5 126.741,-15.5"/>
<polygon fill="midnightblue" stroke="midnightblue" points="126.99,-19.0001 136.99,-15.5 126.99,-12.0001 126.99,-19.0001"/>
</g>
</g>
</svg>
