<?xml version="1.0" encoding="UTF-8" standalone="no"?>
<!DOCTYPE svg PUBLIC "-//W3C//DTD SVG 1.1//EN"
 "http://www.w3.org/Graphics/SVG/1.1/DTD/svg11.dtd">
<!-- Generated by graphviz version 2.38.0 (20140413.2041)
 -->
<!-- Title: _upload_downconversion_coeffs Pages: 1 -->
<svg width="314pt" height="154pt"
 viewBox="0.00 0.00 314.00 154.00" xmlns="http://www.w3.org/2000/svg" xmlns:xlink="http://www.w3.org/1999/xlink">
<g id="graph0" class="graph" transform="scale(1 1) rotate(0) translate(4 150)">
<title>_upload_downconversion_coeffs</title>
<polygon fill="white" stroke="none" points="-4,4 -4,-150 310,-150 310,4 -4,4"/>
<!-- Node97 -->
<g id="node1" class="node"><title>Node97</title>
<polygon fill="#bfbfbf" stroke="black" points="0,-61 0,-91 136,-91 136,-61 0,-61"/>
<text text-anchor="start" x="8" y="-79" font-family="Helvetica,sans-Serif" font-size="10.00">_upload_downconversion</text>
<text text-anchor="middle" x="68" y="-68" font-family="Helvetica,sans-Serif" font-size="10.00">_coeffs</text>
</g>
<!-- Node98 -->
<g id="node2" class="node"><title>Node98</title>
<g id="a_node2"><a xlink:href="x4driver_8c.xhtml#acee55fcb62077a150f421c3bbf2c2947" target="_top" xlink:title="Utility function to take mutex. ">
<polygon fill="white" stroke="black" points="202,-126.5 202,-145.5 276,-145.5 276,-126.5 202,-126.5"/>
<text text-anchor="middle" x="239" y="-133.5" font-family="Helvetica,sans-Serif" font-size="10.00">mutex_take</text>
</a>
</g>
</g>
<!-- Node97&#45;&gt;Node98 -->
<g id="edge1" class="edge"><title>Node97&#45;&gt;Node98</title>
<path fill="none" stroke="midnightblue" d="M104.428,-91.1041C124.146,-99.2563 149.237,-109.214 172,-117 178.595,-119.256 185.619,-121.472 192.532,-123.549"/>
<polygon fill="midnightblue" stroke="midnightblue" points="191.939,-127.022 202.52,-126.481 193.91,-120.306 191.939,-127.022"/>
</g>
<!-- Node99 -->
<g id="node3" class="node"><title>Node99</title>
<g id="a_node3"><a xlink:href="x4driver_8c.xhtml#a382b6e4ffa3658d409dfe855707dc16d" target="_top" xlink:title="Sets PIF register value. ">
<polygon fill="white" stroke="red" points="172,-88.5 172,-107.5 306,-107.5 306,-88.5 172,-88.5"/>
<text text-anchor="middle" x="239" y="-95.5" font-family="Helvetica,sans-Serif" font-size="10.00">x4driver_set_pif_register</text>
</a>
</g>
</g>
<!-- Node97&#45;&gt;Node99 -->
<g id="edge2" class="edge"><title>Node97&#45;&gt;Node99</title>
<path fill="none" stroke="midnightblue" d="M136.279,-84.7582C144.681,-85.852 153.321,-86.9767 161.846,-88.0864"/>
<polygon fill="midnightblue" stroke="midnightblue" points="161.412,-91.5594 171.78,-89.3796 162.315,-84.6179 161.412,-91.5594"/>
</g>
<!-- Node105 -->
<g id="node4" class="node"><title>Node105</title>
<g id="a_node4"><a xlink:href="x4driver_8c.xhtml#a730b2e0db87e3f26370dbc5cf019cf82" target="_top" xlink:title="Updates normalization constants. ">
<polygon fill="white" stroke="black" points="176,-39 176,-69 302,-69 302,-39 176,-39"/>
<text text-anchor="start" x="184" y="-57" font-family="Helvetica,sans-Serif" font-size="10.00">_update_normalization</text>
<text text-anchor="middle" x="239" y="-46" font-family="Helvetica,sans-Serif" font-size="10.00">_constants</text>
</a>
</g>
</g>
<!-- Node97&#45;&gt;Node105 -->
<g id="edge3" class="edge"><title>Node97&#45;&gt;Node105</title>
<path fill="none" stroke="midnightblue" d="M136.279,-67.2418C145.98,-65.979 155.997,-64.6749 165.789,-63.4002"/>
<polygon fill="midnightblue" stroke="midnightblue" points="166.425,-66.847 175.89,-62.0853 165.522,-59.9056 166.425,-66.847"/>
</g>
<!-- Node101 -->
<g id="node5" class="node"><title>Node101</title>
<g id="a_node5"><a xlink:href="x4driver_8c.xhtml#afb50fddff34b3e2ea353077619cb139e" target="_top" xlink:title="Utility function to give mutex. ">
<polygon fill="white" stroke="black" points="203,-0.5 203,-19.5 275,-19.5 275,-0.5 203,-0.5"/>
<text text-anchor="middle" x="239" y="-7.5" font-family="Helvetica,sans-Serif" font-size="10.00">mutex_give</text>
</a>
</g>
</g>
<!-- Node97&#45;&gt;Node101 -->
<g id="edge4" class="edge"><title>Node97&#45;&gt;Node101</title>
<path fill="none" stroke="midnightblue" d="M100.13,-60.8667C120.345,-51.3475 147.413,-39.1741 172,-30 178.941,-27.4102 186.382,-24.9039 193.676,-22.5921"/>
<polygon fill="midnightblue" stroke="midnightblue" points="194.947,-25.8629 203.471,-19.5706 192.884,-19.1739 194.947,-25.8629"/>
</g>
</g>
</svg>
