<?xml version="1.0" encoding="UTF-8" standalone="no"?>
<!DOCTYPE svg PUBLIC "-//W3C//DTD SVG 1.1//EN"
 "http://www.w3.org/Graphics/SVG/1.1/DTD/svg11.dtd">
<!-- Generated by graphviz version 2.38.0 (20140413.2041)
 -->
<!-- Title: src/XDriver/x4driver.c Pages: 1 -->
<svg width="470pt" height="84pt"
 viewBox="0.00 0.00 469.50 84.00" xmlns="http://www.w3.org/2000/svg" xmlns:xlink="http://www.w3.org/1999/xlink">
<g id="graph0" class="graph" transform="scale(1 1) rotate(0) translate(4 80)">
<title>src/XDriver/x4driver.c</title>
<polygon fill="white" stroke="none" points="-4,4 -4,-80 465.5,-80 465.5,4 -4,4"/>
<!-- Node0 -->
<g id="node1" class="node"><title>Node0</title>
<polygon fill="#bfbfbf" stroke="black" points="140,-56.5 140,-75.5 257,-75.5 257,-56.5 140,-56.5"/>
<text text-anchor="middle" x="198.5" y="-63.5" font-family="Helvetica,sans-Serif" font-size="10.00">src/XDriver/x4driver.c</text>
</g>
<!-- Node1 -->
<g id="node2" class="node"><title>Node1</title>
<polygon fill="white" stroke="#bfbfbf" points="0,-0.5 0,-19.5 47,-19.5 47,-0.5 0,-0.5"/>
<text text-anchor="middle" x="23.5" y="-7.5" font-family="Helvetica,sans-Serif" font-size="10.00">float.h</text>
</g>
<!-- Node0&#45;&gt;Node1 -->
<g id="edge1" class="edge"><title>Node0&#45;&gt;Node1</title>
<path fill="none" stroke="midnightblue" d="M170.771,-56.4435C139.852,-46.9028 89.8594,-31.4766 56.8352,-21.2863"/>
<polygon fill="midnightblue" stroke="midnightblue" points="57.7584,-17.9084 47.1709,-18.3042 55.6944,-24.5972 57.7584,-17.9084"/>
</g>
<!-- Node2 -->
<g id="node3" class="node"><title>Node2</title>
<g id="a_node3"><a xlink:href="math_8h.xhtml" target="_top" xlink:title="math.h">
<polygon fill="white" stroke="black" points="65,-0.5 65,-19.5 116,-19.5 116,-0.5 65,-0.5"/>
<text text-anchor="middle" x="90.5" y="-7.5" font-family="Helvetica,sans-Serif" font-size="10.00">math.h</text>
</a>
</g>
</g>
<!-- Node0&#45;&gt;Node2 -->
<g id="edge2" class="edge"><title>Node0&#45;&gt;Node2</title>
<path fill="none" stroke="midnightblue" d="M181.148,-56.324C163.828,-47.6641 136.985,-34.2424 116.998,-24.249"/>
<polygon fill="midnightblue" stroke="midnightblue" points="118.319,-20.9962 107.809,-19.6545 115.188,-27.2572 118.319,-20.9962"/>
</g>
<!-- Node3 -->
<g id="node4" class="node"><title>Node3</title>
<polygon fill="white" stroke="#bfbfbf" points="134,-0.5 134,-19.5 187,-19.5 187,-0.5 134,-0.5"/>
<text text-anchor="middle" x="160.5" y="-7.5" font-family="Helvetica,sans-Serif" font-size="10.00">string.h</text>
</g>
<!-- Node0&#45;&gt;Node3 -->
<g id="edge3" class="edge"><title>Node0&#45;&gt;Node3</title>
<path fill="none" stroke="midnightblue" d="M192.225,-56.083C186.858,-48.4554 178.982,-37.2645 172.421,-27.9408"/>
<polygon fill="midnightblue" stroke="midnightblue" points="175.275,-25.9149 166.658,-19.7511 169.551,-29.9434 175.275,-25.9149"/>
</g>
<!-- Node4 -->
<g id="node5" class="node"><title>Node4</title>
<g id="a_node5"><a xlink:href="x4driver_8h.xhtml" target="_top" xlink:title="Platform independent driver to interface with x4 radar. ">
<polygon fill="white" stroke="red" points="205,-0.5 205,-19.5 268,-19.5 268,-0.5 205,-0.5"/>
<text text-anchor="middle" x="236.5" y="-7.5" font-family="Helvetica,sans-Serif" font-size="10.00">x4driver.h</text>
</a>
</g>
</g>
<!-- Node0&#45;&gt;Node4 -->
<g id="edge4" class="edge"><title>Node0&#45;&gt;Node4</title>
<path fill="none" stroke="midnightblue" d="M204.775,-56.083C210.142,-48.4554 218.018,-37.2645 224.579,-27.9408"/>
<polygon fill="midnightblue" stroke="midnightblue" points="227.449,-29.9434 230.342,-19.7511 221.725,-25.9149 227.449,-29.9434"/>
</g>
<!-- Node6 -->
<g id="node6" class="node"><title>Node6</title>
<polygon fill="white" stroke="#bfbfbf" points="286,-0.5 286,-19.5 347,-19.5 347,-0.5 286,-0.5"/>
<text text-anchor="middle" x="316.5" y="-7.5" font-family="Helvetica,sans-Serif" font-size="10.00">stdbool.h</text>
</g>
<!-- Node0&#45;&gt;Node6 -->
<g id="edge5" class="edge"><title>Node0&#45;&gt;Node6</title>
<path fill="none" stroke="midnightblue" d="M217.197,-56.4435C236.444,-47.6356 266.652,-33.8116 288.7,-23.722"/>
<polygon fill="midnightblue" stroke="midnightblue" points="290.253,-26.8603 297.89,-19.5164 287.34,-20.4951 290.253,-26.8603"/>
</g>
<!-- Node7 -->
<g id="node7" class="node"><title>Node7</title>
<g id="a_node7"><a xlink:href="8051__firmware_8h.xhtml" target="_top" xlink:title="8051_firmware.h">
<polygon fill="white" stroke="black" points="365.5,-0.5 365.5,-19.5 461.5,-19.5 461.5,-0.5 365.5,-0.5"/>
<text text-anchor="middle" x="413.5" y="-7.5" font-family="Helvetica,sans-Serif" font-size="10.00">8051_firmware.h</text>
</a>
</g>
</g>
<!-- Node0&#45;&gt;Node7 -->
<g id="edge6" class="edge"><title>Node0&#45;&gt;Node7</title>
<path fill="none" stroke="midnightblue" d="M232.567,-56.4435C269.68,-47.1221 329.161,-32.1828 369.715,-21.9972"/>
<polygon fill="midnightblue" stroke="midnightblue" points="370.746,-25.347 379.592,-19.5164 369.041,-18.5579 370.746,-25.347"/>
</g>
</g>
</svg>
