<?xml version="1.0" encoding="UTF-8" standalone="no"?>
<!DOCTYPE svg PUBLIC "-//W3C//DTD SVG 1.1//EN"
 "http://www.w3.org/Graphics/SVG/1.1/DTD/svg11.dtd">
<!-- Generated by graphviz version 2.38.0 (20140413.2041)
 -->
<!-- Title: TEST_F Pages: 1 -->
<svg width="187pt" height="142pt"
 viewBox="0.00 0.00 187.00 142.00" xmlns="http://www.w3.org/2000/svg" xmlns:xlink="http://www.w3.org/1999/xlink">
<g id="graph0" class="graph" transform="scale(1 1) rotate(0) translate(4 138)">
<title>TEST_F</title>
<polygon fill="white" stroke="none" points="-4,4 -4,-138 183,-138 183,4 -4,4"/>
<!-- Node70 -->
<g id="node1" class="node"><title>Node70</title>
<polygon fill="#bfbfbf" stroke="black" points="0,-57.5 0,-76.5 50,-76.5 50,-57.5 0,-57.5"/>
<text text-anchor="middle" x="25" y="-64.5" font-family="Helvetica,sans-Serif" font-size="10.00">TEST_F</text>
</g>
<!-- Node71 -->
<g id="node2" class="node"><title>Node71</title>
<g id="a_node2"><a xlink:href="x4driver__unittest_8cpp.xhtml#aed0d42e77dd6bc7411a086aed6eed8d4" target="_top" xlink:title="test_lock">
<polygon fill="white" stroke="black" points="103,-114.5 103,-133.5 162,-133.5 162,-114.5 103,-114.5"/>
<text text-anchor="middle" x="132.5" y="-121.5" font-family="Helvetica,sans-Serif" font-size="10.00">test_lock</text>
</a>
</g>
</g>
<!-- Node70&#45;&gt;Node71 -->
<g id="edge1" class="edge"><title>Node70&#45;&gt;Node71</title>
<path fill="none" stroke="midnightblue" d="M39.9043,-76.7564C51.8157,-84.8801 69.5956,-96.4582 86,-105 89.571,-106.859 93.3655,-108.677 97.181,-110.405"/>
<polygon fill="midnightblue" stroke="midnightblue" points="96.0263,-113.719 106.593,-114.49 98.8133,-107.298 96.0263,-113.719"/>
</g>
<!-- Node72 -->
<g id="node3" class="node"><title>Node72</title>
<g id="a_node3"><a xlink:href="x4driver__unittest_8cpp.xhtml#a567d5572537c4401078364d2ff4f8ca2" target="_top" xlink:title="test_unlock">
<polygon fill="white" stroke="black" points="97,-76.5 97,-95.5 168,-95.5 168,-76.5 97,-76.5"/>
<text text-anchor="middle" x="132.5" y="-83.5" font-family="Helvetica,sans-Serif" font-size="10.00">test_unlock</text>
</a>
</g>
</g>
<!-- Node70&#45;&gt;Node72 -->
<g id="edge2" class="edge"><title>Node70&#45;&gt;Node72</title>
<path fill="none" stroke="midnightblue" d="M50.2038,-71.359C61.0523,-73.3127 74.2059,-75.6816 86.7429,-77.9395"/>
<polygon fill="midnightblue" stroke="midnightblue" points="86.1472,-81.3884 96.6092,-79.7164 87.3879,-74.4993 86.1472,-81.3884"/>
</g>
<!-- Node73 -->
<g id="node4" class="node"><title>Node73</title>
<g id="a_node4"><a xlink:href="x4driver__unittest_8cpp.xhtml#aca74c5603b9441a1329a142f6aa0e2b9" target="_top" xlink:title="test_enable_set">
<polygon fill="white" stroke="black" points="86,-38.5 86,-57.5 179,-57.5 179,-38.5 86,-38.5"/>
<text text-anchor="middle" x="132.5" y="-45.5" font-family="Helvetica,sans-Serif" font-size="10.00">test_enable_set</text>
</a>
</g>
</g>
<!-- Node70&#45;&gt;Node73 -->
<g id="edge3" class="edge"><title>Node70&#45;&gt;Node73</title>
<path fill="none" stroke="midnightblue" d="M50.2038,-62.641C57.8946,-61.2559 66.7439,-59.6622 75.7107,-58.0474"/>
<polygon fill="midnightblue" stroke="midnightblue" points="76.6077,-61.4422 85.829,-56.2251 75.3669,-54.553 76.6077,-61.4422"/>
</g>
<!-- Node74 -->
<g id="node5" class="node"><title>Node74</title>
<g id="a_node5"><a xlink:href="x4driver_8h.xhtml#a2e248dc4b2feab14c20a2b5fbfe2b1db" target="_top" xlink:title="Creates x4driver instance. ">
<polygon fill="white" stroke="black" points="87,-0.5 87,-19.5 178,-19.5 178,-0.5 87,-0.5"/>
<text text-anchor="middle" x="132.5" y="-7.5" font-family="Helvetica,sans-Serif" font-size="10.00">x4driver_create</text>
</a>
</g>
</g>
<!-- Node70&#45;&gt;Node74 -->
<g id="edge4" class="edge"><title>Node70&#45;&gt;Node74</title>
<path fill="none" stroke="midnightblue" d="M39.9043,-57.2436C51.8157,-49.1199 69.5956,-37.5418 86,-29 89.571,-27.1406 93.3655,-25.3231 97.181,-23.5949"/>
<polygon fill="midnightblue" stroke="midnightblue" points="98.8133,-26.702 106.593,-19.5099 96.0263,-20.2807 98.8133,-26.702"/>
</g>
</g>
</svg>
