<?xml version="1.0" encoding="UTF-8" standalone="no"?>
<!DOCTYPE svg PUBLIC "-//W3C//DTD SVG 1.1//EN"
 "http://www.w3.org/Graphics/SVG/1.1/DTD/svg11.dtd">
<!-- Generated by graphviz version 2.38.0 (20140413.2041)
 -->
<!-- Title: x4driver_is_frame_ready Pages: 1 -->
<svg width="312pt" height="104pt"
 viewBox="0.00 0.00 312.00 104.00" xmlns="http://www.w3.org/2000/svg" xmlns:xlink="http://www.w3.org/1999/xlink">
<g id="graph0" class="graph" transform="scale(1 1) rotate(0) translate(4 100)">
<title>x4driver_is_frame_ready</title>
<polygon fill="white" stroke="none" points="-4,4 -4,-100 308,-100 308,4 -4,4"/>
<!-- Node1413 -->
<g id="node1" class="node"><title>Node1413</title>
<polygon fill="#bfbfbf" stroke="black" points="0,-38.5 0,-57.5 134,-57.5 134,-38.5 0,-38.5"/>
<text text-anchor="middle" x="67" y="-45.5" font-family="Helvetica,sans-Serif" font-size="10.00">x4driver_is_frame_ready</text>
</g>
<!-- Node1414 -->
<g id="node2" class="node"><title>Node1414</title>
<g id="a_node2"><a xlink:href="x4driver_8c.xhtml#acee55fcb62077a150f421c3bbf2c2947" target="_top" xlink:title="Utility function to take mutex. ">
<polygon fill="white" stroke="black" points="200,-76.5 200,-95.5 274,-95.5 274,-76.5 200,-76.5"/>
<text text-anchor="middle" x="237" y="-83.5" font-family="Helvetica,sans-Serif" font-size="10.00">mutex_take</text>
</a>
</g>
</g>
<!-- Node1413&#45;&gt;Node1414 -->
<g id="edge1" class="edge"><title>Node1413&#45;&gt;Node1414</title>
<path fill="none" stroke="midnightblue" d="M110.393,-57.589C134.657,-63.0771 165.116,-69.9666 189.963,-75.5868"/>
<polygon fill="midnightblue" stroke="midnightblue" points="189.357,-79.0381 199.882,-77.8305 190.901,-72.2105 189.357,-79.0381"/>
</g>
<!-- Node1415 -->
<g id="node3" class="node"><title>Node1415</title>
<g id="a_node3"><a xlink:href="x4driver_8c.xhtml#a983024655a1dcd0ad2aa0ec6cb8eb3cb" target="_top" xlink:title="Gets PIF register value. ">
<polygon fill="white" stroke="red" points="170,-38.5 170,-57.5 304,-57.5 304,-38.5 170,-38.5"/>
<text text-anchor="middle" x="237" y="-45.5" font-family="Helvetica,sans-Serif" font-size="10.00">x4driver_get_pif_register</text>
</a>
</g>
</g>
<!-- Node1413&#45;&gt;Node1415 -->
<g id="edge2" class="edge"><title>Node1413&#45;&gt;Node1415</title>
<path fill="none" stroke="midnightblue" d="M134.398,-48C142.679,-48 151.199,-48 159.616,-48"/>
<polygon fill="midnightblue" stroke="midnightblue" points="159.809,-51.5001 169.809,-48 159.809,-44.5001 159.809,-51.5001"/>
</g>
<!-- Node1417 -->
<g id="node4" class="node"><title>Node1417</title>
<g id="a_node4"><a xlink:href="x4driver_8c.xhtml#afb50fddff34b3e2ea353077619cb139e" target="_top" xlink:title="Utility function to give mutex. ">
<polygon fill="white" stroke="black" points="201,-0.5 201,-19.5 273,-19.5 273,-0.5 201,-0.5"/>
<text text-anchor="middle" x="237" y="-7.5" font-family="Helvetica,sans-Serif" font-size="10.00">mutex_give</text>
</a>
</g>
</g>
<!-- Node1413&#45;&gt;Node1417 -->
<g id="edge3" class="edge"><title>Node1413&#45;&gt;Node1417</title>
<path fill="none" stroke="midnightblue" d="M110.393,-38.411C134.998,-32.8456 165.975,-25.839 191.009,-20.1765"/>
<polygon fill="midnightblue" stroke="midnightblue" points="192.005,-23.5398 200.986,-17.9198 190.46,-16.7123 192.005,-23.5398"/>
</g>
</g>
</svg>
