<?xml version="1.0" encoding="UTF-8" standalone="no"?>
<!DOCTYPE svg PUBLIC "-//W3C//DTD SVG 1.1//EN"
 "http://www.w3.org/Graphics/SVG/1.1/DTD/svg11.dtd">
<!-- Generated by graphviz version 2.38.0 (20140413.2041)
 -->
<!-- Title: src/hal/x4m0x_s70/libraries/libchip/source/xdma_hardware_interface.c Pages: 1 -->
<svg width="172pt" height="106pt"
 viewBox="0.00 0.00 172.00 106.00" xmlns="http://www.w3.org/2000/svg" xmlns:xlink="http://www.w3.org/1999/xlink">
<g id="graph0" class="graph" transform="scale(1 1) rotate(0) translate(4 102)">
<title>src/hal/x4m0x_s70/libraries/libchip/source/xdma_hardware_interface.c</title>
<polygon fill="white" stroke="none" points="-4,4 -4,-102 168,-102 168,4 -4,4"/>
<!-- Node0 -->
<g id="node1" class="node"><title>Node0</title>
<polygon fill="#bfbfbf" stroke="black" points="0,-56.5 0,-97.5 164,-97.5 164,-56.5 0,-56.5"/>
<text text-anchor="start" x="8" y="-85.5" font-family="Helvetica,sans-Serif" font-size="10.00">src/hal/x4m0x_s70/libraries</text>
<text text-anchor="start" x="8" y="-74.5" font-family="Helvetica,sans-Serif" font-size="10.00">/libchip/source/xdma_hardware</text>
<text text-anchor="middle" x="82" y="-63.5" font-family="Helvetica,sans-Serif" font-size="10.00">_interface.c</text>
</g>
<!-- Node1 -->
<g id="node2" class="node"><title>Node1</title>
<g id="a_node2"><a xlink:href="chip_8h.xhtml" target="_top" xlink:title="chip.h">
<polygon fill="white" stroke="red" points="59.5,-0.5 59.5,-19.5 104.5,-19.5 104.5,-0.5 59.5,-0.5"/>
<text text-anchor="middle" x="82" y="-7.5" font-family="Helvetica,sans-Serif" font-size="10.00">chip.h</text>
</a>
</g>
</g>
<!-- Node0&#45;&gt;Node1 -->
<g id="edge1" class="edge"><title>Node0&#45;&gt;Node1</title>
<path fill="none" stroke="midnightblue" d="M82,-56.4979C82,-48.0653 82,-38.2351 82,-29.874"/>
<polygon fill="midnightblue" stroke="midnightblue" points="85.5001,-29.6525 82,-19.6525 78.5001,-29.6525 85.5001,-29.6525"/>
</g>
</g>
</svg>
