<?xml version="1.0" encoding="UTF-8" standalone="no"?>
<!DOCTYPE svg PUBLIC "-//W3C//DTD SVG 1.1//EN"
 "http://www.w3.org/Graphics/SVG/1.1/DTD/svg11.dtd">
<!-- Generated by graphviz version 2.38.0 (20140413.2041)
 -->
<!-- Title: xt_trigger_crash Pages: 1 -->
<svg width="294pt" height="370pt"
 viewBox="0.00 0.00 294.00 370.00" xmlns="http://www.w3.org/2000/svg" xmlns:xlink="http://www.w3.org/1999/xlink">
<g id="graph0" class="graph" transform="scale(1 1) rotate(0) translate(4 366)">
<title>xt_trigger_crash</title>
<polygon fill="white" stroke="none" points="-4,4 -4,-366 290,-366 290,4 -4,4"/>
<!-- Node440 -->
<g id="node1" class="node"><title>Node440</title>
<polygon fill="#bfbfbf" stroke="black" points="0,-171.5 0,-190.5 94,-190.5 94,-171.5 0,-171.5"/>
<text text-anchor="middle" x="47" y="-178.5" font-family="Helvetica,sans-Serif" font-size="10.00">xt_trigger_crash</text>
</g>
<!-- Node441 -->
<g id="node2" class="node"><title>Node441</title>
<g id="a_node2"><a xlink:href="_free_r_t_o_s__hooks_8h.xhtml#ab7e5c95cf72a3f819bc4462a7fb62ca3" target="_top" xlink:title="vApplicationMallocFailedHook">
<polygon fill="white" stroke="red" points="130,-342.5 130,-361.5 286,-361.5 286,-342.5 130,-342.5"/>
<text text-anchor="middle" x="208" y="-349.5" font-family="Helvetica,sans-Serif" font-size="10.00">vApplicationMallocFailedHook</text>
</a>
</g>
</g>
<!-- Node440&#45;&gt;Node441 -->
<g id="edge1" class="edge"><title>Node440&#45;&gt;Node441</title>
<path fill="none" stroke="midnightblue" d="M52.8834,-200.288C62.1572,-232.847 85.4872,-298.525 130,-333 135.008,-336.878 140.702,-339.976 146.674,-342.449"/>
<polygon fill="midnightblue" stroke="midnightblue" points="56.2553,-199.349 50.267,-190.609 49.4978,-201.176 56.2553,-199.349"/>
</g>
<!-- Node479 -->
<g id="node3" class="node"><title>Node479</title>
<g id="a_node3"><a xlink:href="startup__sams70_8c.xhtml#a4ed9b32000d3b15c46ffd748f32ed44d" target="_top" xlink:title="Default interrupt handler for unused IRQs. ">
<polygon fill="white" stroke="red" points="159,-304.5 159,-323.5 257,-323.5 257,-304.5 159,-304.5"/>
<text text-anchor="middle" x="208" y="-311.5" font-family="Helvetica,sans-Serif" font-size="10.00">Dummy_Handler</text>
</a>
</g>
</g>
<!-- Node440&#45;&gt;Node479 -->
<g id="edge2" class="edge"><title>Node440&#45;&gt;Node479</title>
<path fill="none" stroke="midnightblue" d="M56.4658,-200.11C68.8361,-225.758 94.3219,-270.874 130,-295 138.555,-300.785 148.706,-304.811 158.784,-307.612"/>
<polygon fill="midnightblue" stroke="midnightblue" points="59.4933,-198.32 52.1073,-190.724 53.1444,-201.268 59.4933,-198.32"/>
</g>
<!-- Node484 -->
<g id="node4" class="node"><title>Node484</title>
<g id="a_node4"><a xlink:href="syscalls_8c.xhtml#ab1d00975207b59006dd7a3d0df4f27b6" target="_top" xlink:title="__assert_func">
<polygon fill="white" stroke="black" points="166.5,-266.5 166.5,-285.5 249.5,-285.5 249.5,-266.5 166.5,-266.5"/>
<text text-anchor="middle" x="208" y="-273.5" font-family="Helvetica,sans-Serif" font-size="10.00">__assert_func</text>
</a>
</g>
</g>
<!-- Node440&#45;&gt;Node484 -->
<g id="edge3" class="edge"><title>Node440&#45;&gt;Node484</title>
<path fill="none" stroke="midnightblue" d="M61.9759,-198.319C76.9767,-215.746 102.4,-242.112 130,-257 141.149,-263.014 154.229,-267.159 166.413,-270.002"/>
<polygon fill="midnightblue" stroke="midnightblue" points="64.5901,-195.989 55.4851,-190.571 59.2243,-200.484 64.5901,-195.989"/>
</g>
<!-- Node485 -->
<g id="node5" class="node"><title>Node485</title>
<g id="a_node5"><a xlink:href="group___s_a_m_e70_j19__cmsis.xhtml#ga6ad7a5e3ee69cb6db6a6b9111ba898bc" target="_top" xlink:title="Default NMI interrupt handler. ">
<polygon fill="white" stroke="black" points="169.5,-228.5 169.5,-247.5 246.5,-247.5 246.5,-228.5 169.5,-228.5"/>
<text text-anchor="middle" x="208" y="-235.5" font-family="Helvetica,sans-Serif" font-size="10.00">NMI_Handler</text>
</a>
</g>
</g>
<!-- Node440&#45;&gt;Node485 -->
<g id="edge4" class="edge"><title>Node440&#45;&gt;Node485</title>
<path fill="none" stroke="midnightblue" d="M75.2697,-195.245C90.9674,-203.034 111.244,-212.409 130,-219 142.601,-223.428 156.707,-227.228 169.369,-230.241"/>
<polygon fill="midnightblue" stroke="midnightblue" points="76.6465,-192.019 66.1419,-190.639 73.4931,-198.269 76.6465,-192.019"/>
</g>
<!-- Node486 -->
<g id="node6" class="node"><title>Node486</title>
<g id="a_node6"><a xlink:href="group___s_a_m_e70_j19__cmsis.xhtml#ga2bffc10d5bd4106753b7c30e86903bea" target="_top" xlink:title="Default HardFault interrupt handler. ">
<polygon fill="white" stroke="black" points="155.5,-190.5 155.5,-209.5 260.5,-209.5 260.5,-190.5 155.5,-190.5"/>
<text text-anchor="middle" x="208" y="-197.5" font-family="Helvetica,sans-Serif" font-size="10.00">HardFault_Handler</text>
</a>
</g>
</g>
<!-- Node440&#45;&gt;Node486 -->
<g id="edge5" class="edge"><title>Node440&#45;&gt;Node486</title>
<path fill="none" stroke="midnightblue" d="M104.493,-187.751C121.023,-189.726 139.005,-191.875 155.226,-193.813"/>
<polygon fill="midnightblue" stroke="midnightblue" points="104.761,-184.258 94.4168,-186.547 103.931,-191.209 104.761,-184.258"/>
</g>
<!-- Node487 -->
<g id="node7" class="node"><title>Node487</title>
<g id="a_node7"><a xlink:href="group___s_a_m_e70_j19__cmsis.xhtml#ga3150f74512510287a942624aa9b44cc5" target="_top" xlink:title="Default MemManage interrupt handler. ">
<polygon fill="white" stroke="black" points="147,-152.5 147,-171.5 269,-171.5 269,-152.5 147,-152.5"/>
<text text-anchor="middle" x="208" y="-159.5" font-family="Helvetica,sans-Serif" font-size="10.00">MemManage_Handler</text>
</a>
</g>
</g>
<!-- Node440&#45;&gt;Node487 -->
<g id="edge6" class="edge"><title>Node440&#45;&gt;Node487</title>
<path fill="none" stroke="midnightblue" d="M104.668,-174.228C118.365,-172.592 133.05,-170.837 146.899,-169.182"/>
<polygon fill="midnightblue" stroke="midnightblue" points="103.931,-170.791 94.4168,-175.453 104.761,-177.742 103.931,-170.791"/>
</g>
<!-- Node488 -->
<g id="node8" class="node"><title>Node488</title>
<g id="a_node8"><a xlink:href="group___s_a_m_e70_j19__cmsis.xhtml#ga850cefb17a977292ae5eb4cafa9976c3" target="_top" xlink:title="Default BusFault interrupt handler. ">
<polygon fill="white" stroke="black" points="158,-114.5 158,-133.5 258,-133.5 258,-114.5 158,-114.5"/>
<text text-anchor="middle" x="208" y="-121.5" font-family="Helvetica,sans-Serif" font-size="10.00">BusFault_Handler</text>
</a>
</g>
</g>
<!-- Node440&#45;&gt;Node488 -->
<g id="edge7" class="edge"><title>Node440&#45;&gt;Node488</title>
<path fill="none" stroke="midnightblue" d="M75.2697,-166.755C90.9674,-158.966 111.244,-149.591 130,-143 140.262,-139.394 151.524,-136.204 162.19,-133.517"/>
<polygon fill="midnightblue" stroke="midnightblue" points="73.4931,-163.731 66.1419,-171.361 76.6465,-169.981 73.4931,-163.731"/>
</g>
<!-- Node489 -->
<g id="node9" class="node"><title>Node489</title>
<g id="a_node9"><a xlink:href="group___s_a_m_e70_j19__cmsis.xhtml#ga1d98923de2ed6b7309b66f9ba2971647" target="_top" xlink:title="Default UsageFault interrupt handler. ">
<polygon fill="white" stroke="black" points="151.5,-76.5 151.5,-95.5 264.5,-95.5 264.5,-76.5 151.5,-76.5"/>
<text text-anchor="middle" x="208" y="-83.5" font-family="Helvetica,sans-Serif" font-size="10.00">UsageFault_Handler</text>
</a>
</g>
</g>
<!-- Node440&#45;&gt;Node489 -->
<g id="edge8" class="edge"><title>Node440&#45;&gt;Node489</title>
<path fill="none" stroke="midnightblue" d="M61.9759,-163.681C76.9767,-146.254 102.4,-119.888 130,-105 137.15,-101.143 145.094,-98.055 153.087,-95.5859"/>
<polygon fill="midnightblue" stroke="midnightblue" points="59.2243,-161.516 55.4851,-171.429 64.5901,-166.011 59.2243,-161.516"/>
</g>
<!-- Node490 -->
<g id="node10" class="node"><title>Node490</title>
<g id="a_node10"><a xlink:href="group___s_a_m_e70_j19__cmsis.xhtml#gadbdfb05858cc36fc520974df37ec3cb0" target="_top" xlink:title="DebugMon_Handler">
<polygon fill="white" stroke="black" points="152.5,-38.5 152.5,-57.5 263.5,-57.5 263.5,-38.5 152.5,-38.5"/>
<text text-anchor="middle" x="208" y="-45.5" font-family="Helvetica,sans-Serif" font-size="10.00">DebugMon_Handler</text>
</a>
</g>
</g>
<!-- Node440&#45;&gt;Node490 -->
<g id="edge9" class="edge"><title>Node440&#45;&gt;Node490</title>
<path fill="none" stroke="midnightblue" d="M56.4658,-161.89C68.8361,-136.242 94.3219,-91.1258 130,-67 136.73,-62.4494 144.447,-58.9872 152.34,-56.3533"/>
<polygon fill="midnightblue" stroke="midnightblue" points="53.1444,-160.732 52.1073,-171.276 59.4933,-163.68 53.1444,-160.732"/>
</g>
<!-- Node491 -->
<g id="node11" class="node"><title>Node491</title>
<g id="a_node11"><a xlink:href="group___s_a_m_e70_j19__cmsis.xhtml#ga3a2e83b64bfd57689085381db4ac7dee" target="_top" xlink:title="WDT_Handler">
<polygon fill="white" stroke="black" points="168,-0.5 168,-19.5 248,-19.5 248,-0.5 168,-0.5"/>
<text text-anchor="middle" x="208" y="-7.5" font-family="Helvetica,sans-Serif" font-size="10.00">WDT_Handler</text>
</a>
</g>
</g>
<!-- Node440&#45;&gt;Node491 -->
<g id="edge10" class="edge"><title>Node440&#45;&gt;Node491</title>
<path fill="none" stroke="midnightblue" d="M52.8834,-161.712C62.1572,-129.153 85.4872,-63.475 130,-29 140.777,-20.6532 154.734,-15.9207 167.8,-13.2553"/>
<polygon fill="midnightblue" stroke="midnightblue" points="49.4978,-160.824 50.267,-171.391 56.2553,-162.651 49.4978,-160.824"/>
</g>
</g>
</svg>
