<?xml version="1.0" encoding="UTF-8" standalone="no"?>
<!DOCTYPE svg PUBLIC "-//W3C//DTD SVG 1.1//EN"
 "http://www.w3.org/Graphics/SVG/1.1/DTD/svg11.dtd">
<!-- Generated by graphviz version 2.38.0 (20140413.2041)
 -->
<!-- Title: onMcpX4DriverGetFrameBinCount Pages: 1 -->
<svg width="349pt" height="137pt"
 viewBox="0.00 0.00 349.00 137.00" xmlns="http://www.w3.org/2000/svg" xmlns:xlink="http://www.w3.org/1999/xlink">
<g id="graph0" class="graph" transform="scale(1 1) rotate(0) translate(4 133)">
<title>onMcpX4DriverGetFrameBinCount</title>
<polygon fill="white" stroke="none" points="-4,4 -4,-133 345,-133 345,4 -4,4"/>
<!-- Node803 -->
<g id="node1" class="node"><title>Node803</title>
<polygon fill="#bfbfbf" stroke="black" points="0,-49.5 0,-79.5 151,-79.5 151,-49.5 0,-49.5"/>
<text text-anchor="start" x="8" y="-67.5" font-family="Helvetica,sans-Serif" font-size="10.00">onMcpX4DriverGetFrameBin</text>
<text text-anchor="middle" x="75.5" y="-56.5" font-family="Helvetica,sans-Serif" font-size="10.00">Count</text>
</g>
<!-- Node804 -->
<g id="node2" class="node"><title>Node804</title>
<g id="a_node2"><a xlink:href="x4driver_8h.xhtml#a195e6ef022545ebaba1dbc492cac6244" target="_top" xlink:title="x4driver_get_frame\l_bin_count">
<polygon fill="white" stroke="black" points="209,-98.5 209,-128.5 319,-128.5 319,-98.5 209,-98.5"/>
<text text-anchor="start" x="217" y="-116.5" font-family="Helvetica,sans-Serif" font-size="10.00">x4driver_get_frame</text>
<text text-anchor="middle" x="264" y="-105.5" font-family="Helvetica,sans-Serif" font-size="10.00">_bin_count</text>
</a>
</g>
</g>
<!-- Node803&#45;&gt;Node804 -->
<g id="edge1" class="edge"><title>Node803&#45;&gt;Node804</title>
<path fill="none" stroke="midnightblue" d="M133.724,-79.5346C154.337,-84.9504 177.725,-91.0954 198.888,-96.6556"/>
<polygon fill="midnightblue" stroke="midnightblue" points="198.194,-100.092 208.756,-99.2481 199.973,-93.3218 198.194,-100.092"/>
</g>
<!-- Node805 -->
<g id="node3" class="node"><title>Node805</title>
<g id="a_node3"><a xlink:href="xep__dispatch__messages_8h.xhtml#a90b63c6c0030baa1fd9c1d71b1c23d1a" target="_top" xlink:title="Dispatch message to hostcom asking to reply with int array to host. ">
<polygon fill="white" stroke="red" points="187,-49.5 187,-79.5 341,-79.5 341,-49.5 187,-49.5"/>
<text text-anchor="start" x="195" y="-67.5" font-family="Helvetica,sans-Serif" font-size="10.00">dispatch_message_hostcom</text>
<text text-anchor="middle" x="264" y="-56.5" font-family="Helvetica,sans-Serif" font-size="10.00">_send_reply_int</text>
</a>
</g>
</g>
<!-- Node803&#45;&gt;Node805 -->
<g id="edge2" class="edge"><title>Node803&#45;&gt;Node805</title>
<path fill="none" stroke="midnightblue" d="M151.014,-64.5C159.473,-64.5 168.147,-64.5 176.741,-64.5"/>
<polygon fill="midnightblue" stroke="midnightblue" points="176.776,-68.0001 186.776,-64.5 176.775,-61.0001 176.776,-68.0001"/>
</g>
<!-- Node814 -->
<g id="node4" class="node"><title>Node814</title>
<g id="a_node4"><a xlink:href="xep__dispatch__messages_8h.xhtml#a454af1ebc681b68eaf1995f56aa2e42c" target="_top" xlink:title="Dispatch message to hostcom asking to send error to host. ">
<polygon fill="white" stroke="red" points="187,-0.5 187,-30.5 341,-30.5 341,-0.5 187,-0.5"/>
<text text-anchor="start" x="195" y="-18.5" font-family="Helvetica,sans-Serif" font-size="10.00">dispatch_message_hostcom</text>
<text text-anchor="middle" x="264" y="-7.5" font-family="Helvetica,sans-Serif" font-size="10.00">_send_error</text>
</a>
</g>
</g>
<!-- Node803&#45;&gt;Node814 -->
<g id="edge3" class="edge"><title>Node803&#45;&gt;Node814</title>
<path fill="none" stroke="midnightblue" d="M133.724,-49.4654C153.415,-44.2917 175.64,-38.4525 196.037,-33.0934"/>
<polygon fill="midnightblue" stroke="midnightblue" points="197.102,-36.4325 205.885,-30.5062 195.323,-29.6622 197.102,-36.4325"/>
</g>
</g>
</svg>
