<?xml version="1.0" encoding="UTF-8" standalone="no"?>
<!DOCTYPE svg PUBLIC "-//W3C//DTD SVG 1.1//EN"
 "http://www.w3.org/Graphics/SVG/1.1/DTD/svg11.dtd">
<!-- Generated by graphviz version 2.38.0 (20140413.2041)
 -->
<!-- Title: dispatch_message_hostcom_send_data_stringn Pages: 1 -->
<svg width="352pt" height="78pt"
 viewBox="0.00 0.00 352.00 77.50" xmlns="http://www.w3.org/2000/svg" xmlns:xlink="http://www.w3.org/1999/xlink">
<g id="graph0" class="graph" transform="scale(1 1) rotate(0) translate(4 73.5)">
<title>dispatch_message_hostcom_send_data_stringn</title>
<polygon fill="white" stroke="none" points="-4,4 -4,-73.5 348,-73.5 348,4 -4,4"/>
<!-- Node250 -->
<g id="node1" class="node"><title>Node250</title>
<polygon fill="#bfbfbf" stroke="black" points="0,-17 0,-47 154,-47 154,-17 0,-17"/>
<text text-anchor="start" x="8" y="-35" font-family="Helvetica,sans-Serif" font-size="10.00">dispatch_message_hostcom</text>
<text text-anchor="middle" x="77" y="-24" font-family="Helvetica,sans-Serif" font-size="10.00">_send_data_stringn</text>
</g>
<!-- Node251 -->
<g id="node2" class="node"><title>Node251</title>
<g id="a_node2"><a xlink:href="xep__dispatch__messages_8c.xhtml#a6e262ca0c38ec62ef4f097a1cbab9c36" target="_top" xlink:title="Dispatch message to hostcom asking to send string to host. ">
<polygon fill="white" stroke="red" points="190,-39 190,-69 344,-69 344,-39 190,-39"/>
<text text-anchor="start" x="198" y="-57" font-family="Helvetica,sans-Serif" font-size="10.00">dispatch_message_hostcom</text>
<text text-anchor="middle" x="267" y="-46" font-family="Helvetica,sans-Serif" font-size="10.00">_send_data_string</text>
</a>
</g>
</g>
<!-- Node250&#45;&gt;Node251 -->
<g id="edge1" class="edge"><title>Node250&#45;&gt;Node251</title>
<path fill="none" stroke="midnightblue" d="M164.146,-42.0809C172.67,-43.0784 181.281,-44.0861 189.696,-45.0708"/>
<polygon fill="midnightblue" stroke="midnightblue" points="164.535,-38.6026 154.196,-40.9165 163.721,-45.5552 164.535,-38.6026"/>
</g>
<!-- Node256 -->
<g id="node3" class="node"><title>Node256</title>
<g id="a_node3"><a xlink:href="task__monitor_8c.xhtml#ad45490893a79383d6cd047fa3e4c3638" target="_top" xlink:title="task_monitor">
<polygon fill="white" stroke="red" points="227,-0.5 227,-19.5 307,-19.5 307,-0.5 227,-0.5"/>
<text text-anchor="middle" x="267" y="-7.5" font-family="Helvetica,sans-Serif" font-size="10.00">task_monitor</text>
</a>
</g>
</g>
<!-- Node250&#45;&gt;Node256 -->
<g id="edge2" class="edge"><title>Node250&#45;&gt;Node256</title>
<path fill="none" stroke="midnightblue" d="M164.206,-21.912C186.118,-19.3479 208.599,-16.7172 226.842,-14.5824"/>
<polygon fill="midnightblue" stroke="midnightblue" points="163.721,-18.4448 154.196,-23.0835 164.535,-25.3974 163.721,-18.4448"/>
</g>
</g>
</svg>
