<?xml version="1.0" encoding="UTF-8" standalone="no"?>
<!DOCTYPE svg PUBLIC "-//W3C//DTD SVG 1.1//EN"
 "http://www.w3.org/Graphics/SVG/1.1/DTD/svg11.dtd">
<!-- Generated by graphviz version 2.38.0 (20140413.2041)
 -->
<!-- Title: onMcpCreateFile Pages: 1 -->
<svg width="293pt" height="137pt"
 viewBox="0.00 0.00 293.00 137.00" xmlns="http://www.w3.org/2000/svg" xmlns:xlink="http://www.w3.org/1999/xlink">
<g id="graph0" class="graph" transform="scale(1 1) rotate(0) translate(4 133)">
<title>onMcpCreateFile</title>
<polygon fill="white" stroke="none" points="-4,4 -4,-133 289,-133 289,4 -4,4"/>
<!-- Node61 -->
<g id="node1" class="node"><title>Node61</title>
<polygon fill="#bfbfbf" stroke="black" points="0,-55 0,-74 95,-74 95,-55 0,-55"/>
<text text-anchor="middle" x="47.5" y="-62" font-family="Helvetica,sans-Serif" font-size="10.00">onMcpCreateFile</text>
</g>
<!-- Node62 -->
<g id="node2" class="node"><title>Node62</title>
<g id="a_node2"><a xlink:href="xtfile_8h.xhtml#aab3ec81dba994ab42e047561a13c5e27" target="_top" xlink:title="Creates and opens a new file with given type and identifiers with an empty content of given size...">
<polygon fill="white" stroke="red" points="144,-98.5 144,-128.5 272,-128.5 272,-98.5 144,-98.5"/>
<text text-anchor="start" x="152" y="-116.5" font-family="Helvetica,sans-Serif" font-size="10.00">xtfile_create_and_open</text>
<text text-anchor="middle" x="208" y="-105.5" font-family="Helvetica,sans-Serif" font-size="10.00">_empty</text>
</a>
</g>
</g>
<!-- Node61&#45;&gt;Node62 -->
<g id="edge1" class="edge"><title>Node61&#45;&gt;Node62</title>
<path fill="none" stroke="midnightblue" d="M79.4367,-74.064C99.0652,-80.1321 125.088,-88.177 148.508,-95.4174"/>
<polygon fill="midnightblue" stroke="midnightblue" points="147.772,-98.8533 158.36,-98.463 149.84,-92.1655 147.772,-98.8533"/>
</g>
<!-- Node97 -->
<g id="node3" class="node"><title>Node97</title>
<g id="a_node3"><a xlink:href="xep__dispatch__messages_8h.xhtml#a454af1ebc681b68eaf1995f56aa2e42c" target="_top" xlink:title="Dispatch message to hostcom asking to send error to host. ">
<polygon fill="white" stroke="red" points="131,-49.5 131,-79.5 285,-79.5 285,-49.5 131,-49.5"/>
<text text-anchor="start" x="139" y="-67.5" font-family="Helvetica,sans-Serif" font-size="10.00">dispatch_message_hostcom</text>
<text text-anchor="middle" x="208" y="-56.5" font-family="Helvetica,sans-Serif" font-size="10.00">_send_error</text>
</a>
</g>
</g>
<!-- Node61&#45;&gt;Node97 -->
<g id="edge2" class="edge"><title>Node61&#45;&gt;Node97</title>
<path fill="none" stroke="midnightblue" d="M95.198,-64.5C103.271,-64.5 111.889,-64.5 120.624,-64.5"/>
<polygon fill="midnightblue" stroke="midnightblue" points="120.905,-68.0001 130.905,-64.5 120.905,-61.0001 120.905,-68.0001"/>
</g>
<!-- Node104 -->
<g id="node4" class="node"><title>Node104</title>
<g id="a_node4"><a xlink:href="xep__dispatch__messages_8h.xhtml#a057fe6f9f6b6da7a806aeaf591500b59" target="_top" xlink:title="Dispatch message to hostcom asking to send ack to host. ">
<polygon fill="white" stroke="red" points="131,-0.5 131,-30.5 285,-30.5 285,-0.5 131,-0.5"/>
<text text-anchor="start" x="139" y="-18.5" font-family="Helvetica,sans-Serif" font-size="10.00">dispatch_message_hostcom</text>
<text text-anchor="middle" x="208" y="-7.5" font-family="Helvetica,sans-Serif" font-size="10.00">_send_ack</text>
</a>
</g>
</g>
<!-- Node61&#45;&gt;Node104 -->
<g id="edge3" class="edge"><title>Node61&#45;&gt;Node104</title>
<path fill="none" stroke="midnightblue" d="M79.4367,-54.936C99.0652,-48.8679 125.088,-40.823 148.508,-33.5826"/>
<polygon fill="midnightblue" stroke="midnightblue" points="149.84,-36.8345 158.36,-30.537 147.772,-30.1467 149.84,-36.8345"/>
</g>
</g>
</svg>
