<?xml version="1.0" encoding="UTF-8" standalone="no"?>
<!DOCTYPE svg PUBLIC "-//W3C//DTD SVG 1.1//EN"
 "http://www.w3.org/Graphics/SVG/1.1/DTD/svg11.dtd">
<!-- Generated by graphviz version 2.38.0 (20140413.2041)
 -->
<!-- Title: xep_init_memorypoolset_default Pages: 1 -->
<svg width="360pt" height="104pt"
 viewBox="0.00 0.00 360.00 104.00" xmlns="http://www.w3.org/2000/svg" xmlns:xlink="http://www.w3.org/1999/xlink">
<g id="graph0" class="graph" transform="scale(1 1) rotate(0) translate(4 100)">
<title>xep_init_memorypoolset_default</title>
<polygon fill="white" stroke="none" points="-4,4 -4,-100 356,-100 356,4 -4,4"/>
<!-- Node588 -->
<g id="node1" class="node"><title>Node588</title>
<polygon fill="#bfbfbf" stroke="black" points="0,-33 0,-63 134,-63 134,-33 0,-33"/>
<text text-anchor="start" x="8" y="-51" font-family="Helvetica,sans-Serif" font-size="10.00">xep_init_memorypoolset</text>
<text text-anchor="middle" x="67" y="-40" font-family="Helvetica,sans-Serif" font-size="10.00">_default</text>
</g>
<!-- Node589 -->
<g id="node2" class="node"><title>Node589</title>
<g id="a_node2"><a xlink:href="memorypool_8h.xhtml#afaecaf877433c04746ddb6c114499190" target="_top" xlink:title="Get size needed for memory pool. ">
<polygon fill="white" stroke="black" points="177,-76.5 177,-95.5 345,-95.5 345,-76.5 177,-76.5"/>
<text text-anchor="middle" x="261" y="-83.5" font-family="Helvetica,sans-Serif" font-size="10.00">memorypool_get_instance_size</text>
</a>
</g>
</g>
<!-- Node588&#45;&gt;Node589 -->
<g id="edge1" class="edge"><title>Node588&#45;&gt;Node589</title>
<path fill="none" stroke="midnightblue" d="M134.076,-61.0774C156.175,-65.4514 180.626,-70.2906 202.058,-74.5322"/>
<polygon fill="midnightblue" stroke="midnightblue" points="201.502,-77.9901 211.991,-76.4983 202.861,-71.1233 201.502,-77.9901"/>
</g>
<!-- Node590 -->
<g id="node3" class="node"><title>Node590</title>
<g id="a_node3"><a xlink:href="xtmemory_8h.xhtml#a6865e14d8f1f60f5c34807e4c1a990a7" target="_top" xlink:title="Allocate memory from slow location. ">
<polygon fill="white" stroke="red" points="197,-38.5 197,-57.5 325,-57.5 325,-38.5 197,-38.5"/>
<text text-anchor="middle" x="261" y="-45.5" font-family="Helvetica,sans-Serif" font-size="10.00">xtmemory_malloc_slow</text>
</a>
</g>
</g>
<!-- Node588&#45;&gt;Node590 -->
<g id="edge2" class="edge"><title>Node588&#45;&gt;Node590</title>
<path fill="none" stroke="midnightblue" d="M134.076,-48C151.032,-48 169.373,-48 186.672,-48"/>
<polygon fill="midnightblue" stroke="midnightblue" points="186.719,-51.5001 196.718,-48 186.718,-44.5001 186.719,-51.5001"/>
</g>
<!-- Node604 -->
<g id="node4" class="node"><title>Node604</title>
<g id="a_node4"><a xlink:href="memorypoolset_8h.xhtml#a0286bc57cfca49a6b23417bfa6cd8501" target="_top" xlink:title="Add memory pool. ">
<polygon fill="white" stroke="red" points="170,-0.5 170,-19.5 352,-19.5 352,-0.5 170,-0.5"/>
<text text-anchor="middle" x="261" y="-7.5" font-family="Helvetica,sans-Serif" font-size="10.00">memorypoolset_add_memorypool</text>
</a>
</g>
</g>
<!-- Node588&#45;&gt;Node604 -->
<g id="edge3" class="edge"><title>Node588&#45;&gt;Node604</title>
<path fill="none" stroke="midnightblue" d="M134.076,-34.9226C156.175,-30.5486 180.626,-25.7094 202.058,-21.4678"/>
<polygon fill="midnightblue" stroke="midnightblue" points="202.861,-24.8767 211.991,-19.5017 201.502,-18.0099 202.861,-24.8767"/>
</g>
</g>
</svg>
