<?xml version="1.0" encoding="UTF-8" standalone="no"?>
<!DOCTYPE svg PUBLIC "-//W3C//DTD SVG 1.1//EN"
 "http://www.w3.org/Graphics/SVG/1.1/DTD/svg11.dtd">
<!-- Generated by graphviz version 2.38.0 (20140413.2041)
 -->
<!-- Title: dispatch_send_message Pages: 1 -->
<svg width="326pt" height="104pt"
 viewBox="0.00 0.00 326.00 104.00" xmlns="http://www.w3.org/2000/svg" xmlns:xlink="http://www.w3.org/1999/xlink">
<g id="graph0" class="graph" transform="scale(1 1) rotate(0) translate(4 100)">
<title>dispatch_send_message</title>
<polygon fill="white" stroke="none" points="-4,4 -4,-100 322,-100 322,4 -4,4"/>
<!-- Node164 -->
<g id="node1" class="node"><title>Node164</title>
<polygon fill="#bfbfbf" stroke="black" points="0,-38.5 0,-57.5 135,-57.5 135,-38.5 0,-38.5"/>
<text text-anchor="middle" x="67.5" y="-45.5" font-family="Helvetica,sans-Serif" font-size="10.00">dispatch_send_message</text>
</g>
<!-- Node165 -->
<g id="node2" class="node"><title>Node165</title>
<g id="a_node2"><a xlink:href="xep__dispatch_8c.xhtml#af230fbcbf78ff22c13ca92625a50216d" target="_top" xlink:title="Release message. ">
<polygon fill="white" stroke="red" points="171,-76.5 171,-95.5 318,-95.5 318,-76.5 171,-76.5"/>
<text text-anchor="middle" x="244.5" y="-83.5" font-family="Helvetica,sans-Serif" font-size="10.00">dispatch_release_message</text>
</a>
</g>
</g>
<!-- Node164&#45;&gt;Node165 -->
<g id="edge1" class="edge"><title>Node164&#45;&gt;Node165</title>
<path fill="none" stroke="midnightblue" d="M112.66,-57.589C136.065,-62.6713 165.005,-68.9554 189.712,-74.3203"/>
<polygon fill="midnightblue" stroke="midnightblue" points="189.143,-77.7782 199.658,-76.4799 190.628,-70.9376 189.143,-77.7782"/>
</g>
<!-- Node167 -->
<g id="node3" class="node"><title>Node167</title>
<g id="a_node3"><a xlink:href="xtsemaphore_8h.xhtml#a43f4af132e6f6f5cda6ba0ba20e0895d" target="_top" xlink:title="Lock mutex. ">
<polygon fill="white" stroke="black" points="210.5,-38.5 210.5,-57.5 278.5,-57.5 278.5,-38.5 210.5,-38.5"/>
<text text-anchor="middle" x="244.5" y="-45.5" font-family="Helvetica,sans-Serif" font-size="10.00">xtlock_lock</text>
</a>
</g>
</g>
<!-- Node164&#45;&gt;Node167 -->
<g id="edge2" class="edge"><title>Node164&#45;&gt;Node167</title>
<path fill="none" stroke="midnightblue" d="M135.159,-48C156.938,-48 180.547,-48 200.149,-48"/>
<polygon fill="midnightblue" stroke="midnightblue" points="200.296,-51.5001 210.296,-48 200.296,-44.5001 200.296,-51.5001"/>
</g>
<!-- Node168 -->
<g id="node4" class="node"><title>Node168</title>
<g id="a_node4"><a xlink:href="xtsemaphore_8h.xhtml#a06bdc2b347e98a86047a4a29ab698c6c" target="_top" xlink:title="Unlock mutex. ">
<polygon fill="white" stroke="black" points="204.5,-0.5 204.5,-19.5 284.5,-19.5 284.5,-0.5 204.5,-0.5"/>
<text text-anchor="middle" x="244.5" y="-7.5" font-family="Helvetica,sans-Serif" font-size="10.00">xtlock_unlock</text>
</a>
</g>
</g>
<!-- Node164&#45;&gt;Node168 -->
<g id="edge3" class="edge"><title>Node164&#45;&gt;Node168</title>
<path fill="none" stroke="midnightblue" d="M112.66,-38.411C137.599,-32.9956 168.823,-26.2155 194.514,-20.6371"/>
<polygon fill="midnightblue" stroke="midnightblue" points="195.394,-24.0274 204.424,-18.4851 193.909,-17.1868 195.394,-24.0274"/>
</g>
</g>
</svg>
