<?xml version="1.0" encoding="UTF-8" standalone="no"?>
<!DOCTYPE svg PUBLIC "-//W3C//DTD SVG 1.1//EN"
 "http://www.w3.org/Graphics/SVG/1.1/DTD/svg11.dtd">
<!-- Generated by graphviz version 2.38.0 (20140413.2041)
 -->
<!-- Title: onMcpX4DriverSetFps Pages: 1 -->
<svg width="320pt" height="127pt"
 viewBox="0.00 0.00 320.00 126.50" xmlns="http://www.w3.org/2000/svg" xmlns:xlink="http://www.w3.org/1999/xlink">
<g id="graph0" class="graph" transform="scale(1 1) rotate(0) translate(4 122.5)">
<title>onMcpX4DriverSetFps</title>
<polygon fill="white" stroke="none" points="-4,4 -4,-122.5 316,-122.5 316,4 -4,4"/>
<!-- Node1226 -->
<g id="node1" class="node"><title>Node1226</title>
<polygon fill="#bfbfbf" stroke="black" points="0,-55 0,-74 122,-74 122,-55 0,-55"/>
<text text-anchor="middle" x="61" y="-62" font-family="Helvetica,sans-Serif" font-size="10.00">onMcpX4DriverSetFps</text>
</g>
<!-- Node1227 -->
<g id="node2" class="node"><title>Node1227</title>
<g id="a_node2"><a xlink:href="x4driver_8h.xhtml#af6c32021e202b0dfe0a8b104ebd7a0b6" target="_top" xlink:title="Sets frame rate for frame streaming. ">
<polygon fill="white" stroke="red" points="187.5,-99 187.5,-118 282.5,-118 282.5,-99 187.5,-99"/>
<text text-anchor="middle" x="235" y="-106" font-family="Helvetica,sans-Serif" font-size="10.00">x4driver_set_fps</text>
</a>
</g>
</g>
<!-- Node1226&#45;&gt;Node1227 -->
<g id="edge1" class="edge"><title>Node1226&#45;&gt;Node1227</title>
<path fill="none" stroke="midnightblue" d="M98.4472,-74.081C116.374,-78.7705 138.309,-84.4747 158,-89.5 166.903,-91.7722 176.401,-94.1684 185.559,-96.465"/>
<polygon fill="midnightblue" stroke="midnightblue" points="184.768,-99.8749 195.318,-98.9073 186.467,-93.0843 184.768,-99.8749"/>
</g>
<!-- Node1236 -->
<g id="node3" class="node"><title>Node1236</title>
<g id="a_node3"><a xlink:href="xep__dispatch__messages_8h.xhtml#a057fe6f9f6b6da7a806aeaf591500b59" target="_top" xlink:title="Dispatch message to hostcom asking to send ack to host. ">
<polygon fill="white" stroke="red" points="158,-49.5 158,-79.5 312,-79.5 312,-49.5 158,-49.5"/>
<text text-anchor="start" x="166" y="-67.5" font-family="Helvetica,sans-Serif" font-size="10.00">dispatch_message_hostcom</text>
<text text-anchor="middle" x="235" y="-56.5" font-family="Helvetica,sans-Serif" font-size="10.00">_send_ack</text>
</a>
</g>
</g>
<!-- Node1226&#45;&gt;Node1236 -->
<g id="edge2" class="edge"><title>Node1226&#45;&gt;Node1236</title>
<path fill="none" stroke="midnightblue" d="M122.157,-64.5C130.443,-64.5 139.082,-64.5 147.724,-64.5"/>
<polygon fill="midnightblue" stroke="midnightblue" points="147.85,-68.0001 157.85,-64.5 147.85,-61.0001 147.85,-68.0001"/>
</g>
<!-- Node1245 -->
<g id="node4" class="node"><title>Node1245</title>
<g id="a_node4"><a xlink:href="xep__dispatch__messages_8h.xhtml#a454af1ebc681b68eaf1995f56aa2e42c" target="_top" xlink:title="Dispatch message to hostcom asking to send error to host. ">
<polygon fill="white" stroke="red" points="158,-0.5 158,-30.5 312,-30.5 312,-0.5 158,-0.5"/>
<text text-anchor="start" x="166" y="-18.5" font-family="Helvetica,sans-Serif" font-size="10.00">dispatch_message_hostcom</text>
<text text-anchor="middle" x="235" y="-7.5" font-family="Helvetica,sans-Serif" font-size="10.00">_send_error</text>
</a>
</g>
</g>
<!-- Node1226&#45;&gt;Node1245 -->
<g id="edge3" class="edge"><title>Node1226&#45;&gt;Node1245</title>
<path fill="none" stroke="midnightblue" d="M95.5716,-54.936C117.157,-48.7866 145.869,-40.6072 171.546,-33.2922"/>
<polygon fill="midnightblue" stroke="midnightblue" points="172.559,-36.6429 181.217,-30.537 170.641,-29.9108 172.559,-36.6429"/>
</g>
</g>
</svg>
