<?xml version="1.0" encoding="UTF-8" standalone="no"?>
<!DOCTYPE svg PUBLIC "-//W3C//DTD SVG 1.1//EN"
 "http://www.w3.org/Graphics/SVG/1.1/DTD/svg11.dtd">
<!-- Generated by graphviz version 2.38.0 (20140413.2041)
 -->
<!-- Title: onMcpOpenFile Pages: 1 -->
<svg width="287pt" height="127pt"
 viewBox="0.00 0.00 287.00 126.50" xmlns="http://www.w3.org/2000/svg" xmlns:xlink="http://www.w3.org/1999/xlink">
<g id="graph0" class="graph" transform="scale(1 1) rotate(0) translate(4 122.5)">
<title>onMcpOpenFile</title>
<polygon fill="white" stroke="none" points="-4,4 -4,-122.5 283,-122.5 283,4 -4,4"/>
<!-- Node357 -->
<g id="node1" class="node"><title>Node357</title>
<polygon fill="#bfbfbf" stroke="black" points="0,-55 0,-74 89,-74 89,-55 0,-55"/>
<text text-anchor="middle" x="44.5" y="-62" font-family="Helvetica,sans-Serif" font-size="10.00">onMcpOpenFile</text>
</g>
<!-- Node358 -->
<g id="node2" class="node"><title>Node358</title>
<g id="a_node2"><a xlink:href="xtfile_8h.xhtml#ade819cbf4de9ee15f62317e3bf84fed6" target="_top" xlink:title="Opens an existing file with given type and identifier. ">
<polygon fill="white" stroke="red" points="168,-99 168,-118 236,-118 236,-99 168,-99"/>
<text text-anchor="middle" x="202" y="-106" font-family="Helvetica,sans-Serif" font-size="10.00">xtfile_open</text>
</a>
</g>
</g>
<!-- Node357&#45;&gt;Node358 -->
<g id="edge1" class="edge"><title>Node357&#45;&gt;Node358</title>
<path fill="none" stroke="midnightblue" d="M74.4501,-74.0607C89.4681,-78.9041 108.15,-84.749 125,-89.5 135.724,-92.5237 147.367,-95.5578 158.243,-98.2861"/>
<polygon fill="midnightblue" stroke="midnightblue" points="157.418,-101.688 167.967,-100.697 159.103,-94.8933 157.418,-101.688"/>
</g>
<!-- Node372 -->
<g id="node3" class="node"><title>Node372</title>
<g id="a_node3"><a xlink:href="xep__dispatch__messages_8h.xhtml#a454af1ebc681b68eaf1995f56aa2e42c" target="_top" xlink:title="Dispatch message to hostcom asking to send error to host. ">
<polygon fill="white" stroke="red" points="125,-49.5 125,-79.5 279,-79.5 279,-49.5 125,-49.5"/>
<text text-anchor="start" x="133" y="-67.5" font-family="Helvetica,sans-Serif" font-size="10.00">dispatch_message_hostcom</text>
<text text-anchor="middle" x="202" y="-56.5" font-family="Helvetica,sans-Serif" font-size="10.00">_send_error</text>
</a>
</g>
</g>
<!-- Node357&#45;&gt;Node372 -->
<g id="edge2" class="edge"><title>Node357&#45;&gt;Node372</title>
<path fill="none" stroke="midnightblue" d="M89.2292,-64.5C97.3224,-64.5 106.028,-64.5 114.88,-64.5"/>
<polygon fill="midnightblue" stroke="midnightblue" points="114.912,-68.0001 124.912,-64.5 114.912,-61.0001 114.912,-68.0001"/>
</g>
<!-- Node379 -->
<g id="node4" class="node"><title>Node379</title>
<g id="a_node4"><a xlink:href="xep__dispatch__messages_8h.xhtml#a057fe6f9f6b6da7a806aeaf591500b59" target="_top" xlink:title="Dispatch message to hostcom asking to send ack to host. ">
<polygon fill="white" stroke="red" points="125,-0.5 125,-30.5 279,-30.5 279,-0.5 125,-0.5"/>
<text text-anchor="start" x="133" y="-18.5" font-family="Helvetica,sans-Serif" font-size="10.00">dispatch_message_hostcom</text>
<text text-anchor="middle" x="202" y="-7.5" font-family="Helvetica,sans-Serif" font-size="10.00">_send_ack</text>
</a>
</g>
</g>
<!-- Node357&#45;&gt;Node379 -->
<g id="edge3" class="edge"><title>Node357&#45;&gt;Node379</title>
<path fill="none" stroke="midnightblue" d="M75.8511,-54.936C95.1081,-48.8679 120.638,-40.823 143.615,-33.5826"/>
<polygon fill="midnightblue" stroke="midnightblue" points="144.795,-36.8807 153.281,-30.537 142.691,-30.2043 144.795,-36.8807"/>
</g>
</g>
</svg>
