<?xml version="1.0" encoding="UTF-8" standalone="no"?>
<!DOCTYPE svg PUBLIC "-//W3C//DTD SVG 1.1//EN"
 "http://www.w3.org/Graphics/SVG/1.1/DTD/svg11.dtd">
<!-- Generated by graphviz version 2.38.0 (20140413.2041)
 -->
<!-- Title: onMcpX4DriverSetIterations Pages: 1 -->
<svg width="348pt" height="127pt"
 viewBox="0.00 0.00 348.00 126.50" xmlns="http://www.w3.org/2000/svg" xmlns:xlink="http://www.w3.org/1999/xlink">
<g id="graph0" class="graph" transform="scale(1 1) rotate(0) translate(4 122.5)">
<title>onMcpX4DriverSetIterations</title>
<polygon fill="white" stroke="none" points="-4,4 -4,-122.5 344,-122.5 344,4 -4,4"/>
<!-- Node1309 -->
<g id="node1" class="node"><title>Node1309</title>
<polygon fill="#bfbfbf" stroke="black" points="0,-55 0,-74 150,-74 150,-55 0,-55"/>
<text text-anchor="middle" x="75" y="-62" font-family="Helvetica,sans-Serif" font-size="10.00">onMcpX4DriverSetIterations</text>
</g>
<!-- Node1310 -->
<g id="node2" class="node"><title>Node1310</title>
<g id="a_node2"><a xlink:href="x4driver_8h.xhtml#a62754f21c23479836bc83d5e96514602" target="_top" xlink:title="Sets Iterations. ">
<polygon fill="white" stroke="red" points="200.5,-99 200.5,-118 325.5,-118 325.5,-99 200.5,-99"/>
<text text-anchor="middle" x="263" y="-106" font-family="Helvetica,sans-Serif" font-size="10.00">x4driver_set_iterations</text>
</a>
</g>
</g>
<!-- Node1309&#45;&gt;Node1310 -->
<g id="edge1" class="edge"><title>Node1309&#45;&gt;Node1310</title>
<path fill="none" stroke="midnightblue" d="M116.359,-74.0473C144.389,-80.6781 181.932,-89.5591 211.879,-96.6435"/>
<polygon fill="midnightblue" stroke="midnightblue" points="211.182,-100.075 221.72,-98.9713 212.794,-93.2632 211.182,-100.075"/>
</g>
<!-- Node1319 -->
<g id="node3" class="node"><title>Node1319</title>
<g id="a_node3"><a xlink:href="xep__dispatch__messages_8h.xhtml#a057fe6f9f6b6da7a806aeaf591500b59" target="_top" xlink:title="Dispatch message to hostcom asking to send ack to host. ">
<polygon fill="white" stroke="red" points="186,-49.5 186,-79.5 340,-79.5 340,-49.5 186,-49.5"/>
<text text-anchor="start" x="194" y="-67.5" font-family="Helvetica,sans-Serif" font-size="10.00">dispatch_message_hostcom</text>
<text text-anchor="middle" x="263" y="-56.5" font-family="Helvetica,sans-Serif" font-size="10.00">_send_ack</text>
</a>
</g>
</g>
<!-- Node1309&#45;&gt;Node1319 -->
<g id="edge2" class="edge"><title>Node1309&#45;&gt;Node1319</title>
<path fill="none" stroke="midnightblue" d="M150.047,-64.5C158.493,-64.5 167.157,-64.5 175.745,-64.5"/>
<polygon fill="midnightblue" stroke="midnightblue" points="175.772,-68.0001 185.772,-64.5 175.772,-61.0001 175.772,-68.0001"/>
</g>
<!-- Node1328 -->
<g id="node4" class="node"><title>Node1328</title>
<g id="a_node4"><a xlink:href="xep__dispatch__messages_8h.xhtml#a454af1ebc681b68eaf1995f56aa2e42c" target="_top" xlink:title="Dispatch message to hostcom asking to send error to host. ">
<polygon fill="white" stroke="red" points="186,-0.5 186,-30.5 340,-30.5 340,-0.5 186,-0.5"/>
<text text-anchor="start" x="194" y="-18.5" font-family="Helvetica,sans-Serif" font-size="10.00">dispatch_message_hostcom</text>
<text text-anchor="middle" x="263" y="-7.5" font-family="Helvetica,sans-Serif" font-size="10.00">_send_error</text>
</a>
</g>
</g>
<!-- Node1309&#45;&gt;Node1328 -->
<g id="edge3" class="edge"><title>Node1309&#45;&gt;Node1328</title>
<path fill="none" stroke="midnightblue" d="M112.304,-54.936C135.852,-48.7324 167.243,-40.4629 195.196,-33.099"/>
<polygon fill="midnightblue" stroke="midnightblue" points="196.142,-36.4691 204.921,-30.537 194.359,-29.7 196.142,-36.4691"/>
</g>
</g>
</svg>
