<?xml version="1.0" encoding="UTF-8" standalone="no"?>
<!DOCTYPE svg PUBLIC "-//W3C//DTD SVG 1.1//EN"
 "http://www.w3.org/Graphics/SVG/1.1/DTD/svg11.dtd">
<!-- Generated by graphviz version 2.38.0 (20140413.2041)
 -->
<!-- Title: onMcpModuleReset Pages: 1 -->
<svg width="307pt" height="116pt"
 viewBox="0.00 0.00 307.00 115.50" xmlns="http://www.w3.org/2000/svg" xmlns:xlink="http://www.w3.org/1999/xlink">
<g id="graph0" class="graph" transform="scale(1 1) rotate(0) translate(4 111.5)">
<title>onMcpModuleReset</title>
<polygon fill="white" stroke="none" points="-4,4 -4,-111.5 303,-111.5 303,4 -4,4"/>
<!-- Node339 -->
<g id="node1" class="node"><title>Node339</title>
<polygon fill="#bfbfbf" stroke="black" points="0,-38.5 0,-57.5 109,-57.5 109,-38.5 0,-38.5"/>
<text text-anchor="middle" x="54.5" y="-45.5" font-family="Helvetica,sans-Serif" font-size="10.00">onMcpModuleReset</text>
</g>
<!-- Node340 -->
<g id="node2" class="node"><title>Node340</title>
<g id="a_node2"><a xlink:href="xep__dispatch__messages_8h.xhtml#a057fe6f9f6b6da7a806aeaf591500b59" target="_top" xlink:title="Dispatch message to hostcom asking to send ack to host. ">
<polygon fill="white" stroke="red" points="145,-77 145,-107 299,-107 299,-77 145,-77"/>
<text text-anchor="start" x="153" y="-95" font-family="Helvetica,sans-Serif" font-size="10.00">dispatch_message_hostcom</text>
<text text-anchor="middle" x="222" y="-84" font-family="Helvetica,sans-Serif" font-size="10.00">_send_ack</text>
</a>
</g>
</g>
<!-- Node339&#45;&gt;Node340 -->
<g id="edge1" class="edge"><title>Node339&#45;&gt;Node340</title>
<path fill="none" stroke="midnightblue" d="M91.411,-57.5473C109.878,-62.457 132.986,-68.6004 154.554,-74.3347"/>
<polygon fill="midnightblue" stroke="midnightblue" points="153.77,-77.7477 164.334,-76.9346 155.569,-70.9827 153.77,-77.7477"/>
</g>
<!-- Node349 -->
<g id="node3" class="node"><title>Node349</title>
<g id="a_node3"><a xlink:href="xep__hal_8h.xhtml#a8e58faffa8a7b0934ca76bc1fa5ef6fa" target="_top" xlink:title="Causes the calling task to wait and yields to another task. ">
<polygon fill="white" stroke="black" points="197,-38.5 197,-57.5 247,-57.5 247,-38.5 197,-38.5"/>
<text text-anchor="middle" x="222" y="-45.5" font-family="Helvetica,sans-Serif" font-size="10.00">xt_wait</text>
</a>
</g>
</g>
<!-- Node339&#45;&gt;Node349 -->
<g id="edge2" class="edge"><title>Node339&#45;&gt;Node349</title>
<path fill="none" stroke="midnightblue" d="M109.233,-48C134.655,-48 164.26,-48 186.612,-48"/>
<polygon fill="midnightblue" stroke="midnightblue" points="186.641,-51.5001 196.641,-48 186.641,-44.5001 186.641,-51.5001"/>
</g>
<!-- Node350 -->
<g id="node4" class="node"><title>Node350</title>
<g id="a_node4"><a xlink:href="xep__hal_8h.xhtml#ace2af126089abe1d676edfc1400d0bf7" target="_top" xlink:title="Triggers a software reset of MCU. ">
<polygon fill="white" stroke="red" points="171.5,-0.5 171.5,-19.5 272.5,-19.5 272.5,-0.5 171.5,-0.5"/>
<text text-anchor="middle" x="222" y="-7.5" font-family="Helvetica,sans-Serif" font-size="10.00">xt_software_reset</text>
</a>
</g>
</g>
<!-- Node339&#45;&gt;Node350 -->
<g id="edge3" class="edge"><title>Node339&#45;&gt;Node350</title>
<path fill="none" stroke="midnightblue" d="M97.2626,-38.411C119.201,-33.3739 146.28,-27.1562 169.508,-21.8229"/>
<polygon fill="midnightblue" stroke="midnightblue" points="170.575,-25.1692 179.538,-19.5201 169.008,-18.3467 170.575,-25.1692"/>
</g>
</g>
</svg>
