<?xml version="1.0" encoding="UTF-8" standalone="no"?>
<!DOCTYPE svg PUBLIC "-//W3C//DTD SVG 1.1//EN"
 "http://www.w3.org/Graphics/SVG/1.1/DTD/svg11.dtd">
<!-- Generated by graphviz version 2.38.0 (20140413.2041)
 -->
<!-- Title: onMcpSetIOPinValue Pages: 1 -->
<svg width="313pt" height="127pt"
 viewBox="0.00 0.00 313.00 126.50" xmlns="http://www.w3.org/2000/svg" xmlns:xlink="http://www.w3.org/1999/xlink">
<g id="graph0" class="graph" transform="scale(1 1) rotate(0) translate(4 122.5)">
<title>onMcpSetIOPinValue</title>
<polygon fill="white" stroke="none" points="-4,4 -4,-122.5 309,-122.5 309,4 -4,4"/>
<!-- Node539 -->
<g id="node1" class="node"><title>Node539</title>
<polygon fill="#bfbfbf" stroke="black" points="0,-55 0,-74 115,-74 115,-55 0,-55"/>
<text text-anchor="middle" x="57.5" y="-62" font-family="Helvetica,sans-Serif" font-size="10.00">onMcpSetIOPinValue</text>
</g>
<!-- Node540 -->
<g id="node2" class="node"><title>Node540</title>
<g id="a_node2"><a xlink:href="xep__hal_8h.xhtml#a387b000f6fb5128449611d9fe0e47369" target="_top" xlink:title="Set the level of specified IO pin. ">
<polygon fill="white" stroke="red" points="187.5,-99 187.5,-118 268.5,-118 268.5,-99 187.5,-99"/>
<text text-anchor="middle" x="228" y="-106" font-family="Helvetica,sans-Serif" font-size="10.00">xtio_set_level</text>
</a>
</g>
</g>
<!-- Node539&#45;&gt;Node540 -->
<g id="edge1" class="edge"><title>Node539&#45;&gt;Node540</title>
<path fill="none" stroke="midnightblue" d="M93.1594,-74.0347C110.507,-78.7643 131.842,-84.5167 151,-89.5 159.893,-91.8131 169.385,-94.2287 178.542,-96.5315"/>
<polygon fill="midnightblue" stroke="midnightblue" points="177.75,-99.9413 188.301,-98.9759 179.451,-93.1511 177.75,-99.9413"/>
</g>
<!-- Node545 -->
<g id="node3" class="node"><title>Node545</title>
<g id="a_node3"><a xlink:href="xep__dispatch__messages_8h.xhtml#a057fe6f9f6b6da7a806aeaf591500b59" target="_top" xlink:title="Dispatch message to hostcom asking to send ack to host. ">
<polygon fill="white" stroke="red" points="151,-49.5 151,-79.5 305,-79.5 305,-49.5 151,-49.5"/>
<text text-anchor="start" x="159" y="-67.5" font-family="Helvetica,sans-Serif" font-size="10.00">dispatch_message_hostcom</text>
<text text-anchor="middle" x="228" y="-56.5" font-family="Helvetica,sans-Serif" font-size="10.00">_send_ack</text>
</a>
</g>
</g>
<!-- Node539&#45;&gt;Node545 -->
<g id="edge2" class="edge"><title>Node539&#45;&gt;Node545</title>
<path fill="none" stroke="midnightblue" d="M115.077,-64.5C123.323,-64.5 131.967,-64.5 140.641,-64.5"/>
<polygon fill="midnightblue" stroke="midnightblue" points="140.815,-68.0001 150.815,-64.5 140.815,-61.0001 140.815,-68.0001"/>
</g>
<!-- Node554 -->
<g id="node4" class="node"><title>Node554</title>
<g id="a_node4"><a xlink:href="xep__dispatch__messages_8h.xhtml#a454af1ebc681b68eaf1995f56aa2e42c" target="_top" xlink:title="Dispatch message to hostcom asking to send error to host. ">
<polygon fill="white" stroke="red" points="151,-0.5 151,-30.5 305,-30.5 305,-0.5 151,-0.5"/>
<text text-anchor="start" x="159" y="-18.5" font-family="Helvetica,sans-Serif" font-size="10.00">dispatch_message_hostcom</text>
<text text-anchor="middle" x="228" y="-7.5" font-family="Helvetica,sans-Serif" font-size="10.00">_send_error</text>
</a>
</g>
</g>
<!-- Node539&#45;&gt;Node554 -->
<g id="edge3" class="edge"><title>Node539&#45;&gt;Node554</title>
<path fill="none" stroke="midnightblue" d="M91.3885,-54.936C112.442,-48.8137 140.414,-40.6792 165.484,-33.3889"/>
<polygon fill="midnightblue" stroke="midnightblue" points="166.666,-36.6902 175.291,-30.537 164.712,-29.9686 166.666,-36.6902"/>
</g>
</g>
</svg>
