<?xml version="1.0" encoding="UTF-8" standalone="no"?>
<!DOCTYPE svg PUBLIC "-//W3C//DTD SVG 1.1//EN"
 "http://www.w3.org/Graphics/SVG/1.1/DTD/svg11.dtd">
<!-- Generated by graphviz version 2.38.0 (20140413.2041)
 -->
<!-- Title: dispatch_message_hostcom_send_reply_string Pages: 1 -->
<svg width="352pt" height="39pt"
 viewBox="0.00 0.00 352.00 39.00" xmlns="http://www.w3.org/2000/svg" xmlns:xlink="http://www.w3.org/1999/xlink">
<g id="graph0" class="graph" transform="scale(1 1) rotate(0) translate(4 35)">
<title>dispatch_message_hostcom_send_reply_string</title>
<polygon fill="white" stroke="none" points="-4,4 -4,-35 348,-35 348,4 -4,4"/>
<!-- Node403 -->
<g id="node1" class="node"><title>Node403</title>
<polygon fill="#bfbfbf" stroke="black" points="0,-0.5 0,-30.5 154,-30.5 154,-0.5 0,-0.5"/>
<text text-anchor="start" x="8" y="-18.5" font-family="Helvetica,sans-Serif" font-size="10.00">dispatch_message_hostcom</text>
<text text-anchor="middle" x="77" y="-7.5" font-family="Helvetica,sans-Serif" font-size="10.00">_send_reply_string</text>
</g>
<!-- Node404 -->
<g id="node2" class="node"><title>Node404</title>
<g id="a_node2"><a xlink:href="xep__dispatch__messages_8c.xhtml#adbd5c7c69dabbad48abf989f6a664192" target="_top" xlink:title="Dispatch message to hostcom asking to reply with string to host. ">
<polygon fill="white" stroke="red" points="190,-0.5 190,-30.5 344,-30.5 344,-0.5 190,-0.5"/>
<text text-anchor="start" x="198" y="-18.5" font-family="Helvetica,sans-Serif" font-size="10.00">dispatch_message_hostcom</text>
<text text-anchor="middle" x="267" y="-7.5" font-family="Helvetica,sans-Serif" font-size="10.00">_send_reply_stringn</text>
</a>
</g>
</g>
<!-- Node403&#45;&gt;Node404 -->
<g id="edge1" class="edge"><title>Node403&#45;&gt;Node404</title>
<path fill="none" stroke="midnightblue" d="M154.196,-15.5C162.517,-15.5 171.032,-15.5 179.466,-15.5"/>
<polygon fill="midnightblue" stroke="midnightblue" points="179.696,-19.0001 189.696,-15.5 179.696,-12.0001 179.696,-19.0001"/>
</g>
</g>
</svg>
