<?xml version="1.0" encoding="UTF-8" standalone="no"?>
<!DOCTYPE svg PUBLIC "-//W3C//DTD SVG 1.1//EN"
 "http://www.w3.org/Graphics/SVG/1.1/DTD/svg11.dtd">
<!-- Generated by graphviz version 2.38.0 (20140413.2041)
 -->
<!-- Title: include/xep_hal.h Pages: 1 -->
<svg width="3861pt" height="162pt"
 viewBox="0.00 0.00 3860.50 162.00" xmlns="http://www.w3.org/2000/svg" xmlns:xlink="http://www.w3.org/1999/xlink">
<g id="graph0" class="graph" transform="scale(1 1) rotate(0) translate(4 158)">
<title>include/xep_hal.h</title>
<polygon fill="white" stroke="none" points="-4,4 -4,-158 3856.5,-158 3856.5,4 -4,4"/>
<!-- Node3 -->
<g id="node1" class="node"><title>Node3</title>
<polygon fill="#bfbfbf" stroke="black" points="1384.5,-134.5 1384.5,-153.5 1483.5,-153.5 1483.5,-134.5 1384.5,-134.5"/>
<text text-anchor="middle" x="1434" y="-141.5" font-family="Helvetica,sans-Serif" font-size="10.00">include/xep_hal.h</text>
</g>
<!-- Node4 -->
<g id="node2" class="node"><title>Node4</title>
<g id="a_node2"><a xlink:href="xthousekeeping_8h.xhtml" target="_top" xlink:title="include/xthousekeeping.h">
<polygon fill="white" stroke="red" points="228,-73 228,-92 366,-92 366,-73 228,-73"/>
<text text-anchor="middle" x="297" y="-80" font-family="Helvetica,sans-Serif" font-size="10.00">include/xthousekeeping.h</text>
</a>
</g>
</g>
<!-- Node3&#45;&gt;Node4 -->
<g id="edge1" class="edge"><title>Node3&#45;&gt;Node4</title>
<path fill="none" stroke="midnightblue" d="M1374.24,-143.411C1212.64,-143.886 753.63,-141.019 375,-98 362.546,-96.585 349.09,-94.3438 336.918,-92.0425"/>
<polygon fill="midnightblue" stroke="midnightblue" points="1374.46,-146.91 1384.45,-143.375 1374.44,-139.91 1374.46,-146.91"/>
</g>
<!-- Node6 -->
<g id="node3" class="node"><title>Node6</title>
<g id="a_node3"><a xlink:href="task__monitor_8c.xhtml" target="_top" xlink:title="src/System/task_monitor.c">
<polygon fill="white" stroke="black" points="0,-6 0,-25 144,-25 144,-6 0,-6"/>
<text text-anchor="middle" x="72" y="-13" font-family="Helvetica,sans-Serif" font-size="10.00">src/System/task_monitor.c</text>
</a>
</g>
</g>
<!-- Node3&#45;&gt;Node6 -->
<g id="edge42" class="edge"><title>Node3&#45;&gt;Node6</title>
<path fill="none" stroke="midnightblue" d="M1374.29,-142.565C1143.8,-140.649 319.282,-131.494 207,-98 155.317,-82.5829 103.233,-42.6311 81.9712,-25.0348"/>
<polygon fill="midnightblue" stroke="midnightblue" points="1374.46,-146.067 1384.49,-142.649 1374.52,-139.067 1374.46,-146.067"/>
</g>
<!-- Node7 -->
<g id="node4" class="node"><title>Node7</title>
<g id="a_node4"><a xlink:href="xep__application_8c.xhtml" target="_top" xlink:title="src/XEPA/xep_application.c">
<polygon fill="white" stroke="black" points="162.5,-6 162.5,-25 305.5,-25 305.5,-6 162.5,-6"/>
<text text-anchor="middle" x="234" y="-13" font-family="Helvetica,sans-Serif" font-size="10.00">src/XEPA/xep_application.c</text>
</a>
</g>
</g>
<!-- Node3&#45;&gt;Node7 -->
<g id="edge46" class="edge"><title>Node3&#45;&gt;Node7</title>
<path fill="none" stroke="midnightblue" d="M1374.23,-143.061C1135.27,-143.017 259.456,-139.982 219,-98 199.733,-78.0058 218.042,-41.8366 228.221,-25.2454"/>
<polygon fill="midnightblue" stroke="midnightblue" points="1374.46,-146.561 1384.46,-143.061 1374.46,-139.561 1374.46,-146.561"/>
</g>
<!-- Node8 -->
<g id="node5" class="node"><title>Node8</title>
<g id="a_node5"><a xlink:href="xep__application__mcp__callbacks_8c.xhtml" target="_top" xlink:title="src/XEPA/xep_application\l_mcp_callbacks.c">
<polygon fill="white" stroke="black" points="323.5,-0.5 323.5,-30.5 458.5,-30.5 458.5,-0.5 323.5,-0.5"/>
<text text-anchor="start" x="331.5" y="-18.5" font-family="Helvetica,sans-Serif" font-size="10.00">src/XEPA/xep_application</text>
<text text-anchor="middle" x="391" y="-7.5" font-family="Helvetica,sans-Serif" font-size="10.00">_mcp_callbacks.c</text>
</a>
</g>
</g>
<!-- Node3&#45;&gt;Node8 -->
<g id="edge50" class="edge"><title>Node3&#45;&gt;Node8</title>
<path fill="none" stroke="midnightblue" d="M1374.49,-142.009C1191.02,-138.663 641.97,-126.367 567,-98 546.291,-90.164 547.299,-77.8553 528,-67 500.493,-51.5277 467.339,-39.1606 440.535,-30.5379"/>
<polygon fill="midnightblue" stroke="midnightblue" points="1374.43,-145.509 1384.49,-142.189 1374.56,-138.51 1374.43,-145.509"/>
</g>
<!-- Node9 -->
<g id="node6" class="node"><title>Node9</title>
<g id="a_node6"><a xlink:href="_free_r_t_o_s__hooks_8c.xhtml" target="_top" xlink:title="Callback functions used by FreeRTOS. ">
<polygon fill="white" stroke="black" points="576.5,-73 576.5,-92 697.5,-92 697.5,-73 576.5,-73"/>
<text text-anchor="middle" x="637" y="-80" font-family="Helvetica,sans-Serif" font-size="10.00">src/FreeRTOS_hooks.c</text>
</a>
</g>
</g>
<!-- Node3&#45;&gt;Node9 -->
<g id="edge5" class="edge"><title>Node3&#45;&gt;Node9</title>
<path fill="none" stroke="midnightblue" d="M1374.29,-141.876C1250.38,-138.972 956.478,-129.12 712,-98 700.291,-96.5096 687.659,-94.3029 676.16,-92.0582"/>
<polygon fill="midnightblue" stroke="midnightblue" points="1374.26,-145.376 1384.33,-142.104 1374.42,-138.378 1374.26,-145.376"/>
</g>
<!-- Node10 -->
<g id="node7" class="node"><title>Node10</title>
<g id="a_node7"><a xlink:href="radar__hal_8h.xhtml" target="_top" xlink:title="Local header file for Radar HAL. ">
<polygon fill="white" stroke="black" points="754.5,-73 754.5,-92 859.5,-92 859.5,-73 754.5,-73"/>
<text text-anchor="middle" x="807" y="-80" font-family="Helvetica,sans-Serif" font-size="10.00">src/hal/radar_hal.h</text>
</a>
</g>
</g>
<!-- Node3&#45;&gt;Node10 -->
<g id="edge6" class="edge"><title>Node3&#45;&gt;Node10</title>
<path fill="none" stroke="midnightblue" d="M1374.13,-140.803C1271.36,-136.449 1054.97,-124.733 874,-98 863.639,-96.4695 852.485,-94.2779 842.306,-92.0605"/>
<polygon fill="midnightblue" stroke="midnightblue" points="1374.17,-144.308 1384.31,-141.226 1374.46,-137.314 1374.17,-144.308"/>
</g>
<!-- Node11 -->
<g id="node8" class="node"><title>Node11</title>
<g id="a_node8"><a xlink:href="radar__hal_8c.xhtml" target="_top" xlink:title="src/hal/radar_hal.c">
<polygon fill="white" stroke="black" points="477,-6 477,-25 581,-25 581,-6 477,-6"/>
<text text-anchor="middle" x="529" y="-13" font-family="Helvetica,sans-Serif" font-size="10.00">src/hal/radar_hal.c</text>
</a>
</g>
</g>
<!-- Node3&#45;&gt;Node11 -->
<g id="edge9" class="edge"><title>Node3&#45;&gt;Node11</title>
<path fill="none" stroke="midnightblue" d="M1374.08,-143.636C1228.34,-144.461 858.986,-142.003 745,-98 724.344,-90.0259 725.693,-77.1218 706,-67 681.487,-54.4008 609.643,-35.8517 565.384,-25.0918"/>
<polygon fill="midnightblue" stroke="midnightblue" points="1374.2,-147.136 1384.18,-143.572 1374.16,-140.136 1374.2,-147.136"/>
</g>
<!-- Node12 -->
<g id="node9" class="node"><title>Node12</title>
<g id="a_node9"><a xlink:href="task__radar_8c.xhtml" target="_top" xlink:title="src/Radar/task_radar.c">
<polygon fill="white" stroke="black" points="599.5,-6 599.5,-25 722.5,-25 722.5,-6 599.5,-6"/>
<text text-anchor="middle" x="661" y="-13" font-family="Helvetica,sans-Serif" font-size="10.00">src/Radar/task_radar.c</text>
</a>
</g>
</g>
<!-- Node3&#45;&gt;Node12 -->
<g id="edge39" class="edge"><title>Node3&#45;&gt;Node12</title>
<path fill="none" stroke="midnightblue" d="M1374.42,-142.028C1255.42,-139.416 992.61,-130.088 909,-98 887.672,-89.8147 888.636,-76.7994 868,-67 852.838,-59.8 755.125,-37.4251 699.537,-25.012"/>
<polygon fill="midnightblue" stroke="midnightblue" points="1374.38,-145.528 1384.45,-142.24 1374.52,-138.53 1374.38,-145.528"/>
</g>
<!-- Node13 -->
<g id="node10" class="node"><title>Node13</title>
<g id="a_node10"><a xlink:href="board__lowlevel_8c.xhtml" target="_top" xlink:title="Provides the low&#45;level initialization function that called on chip startup. ">
<polygon fill="white" stroke="black" points="740.5,-0.5 740.5,-30.5 877.5,-30.5 877.5,-0.5 740.5,-0.5"/>
<text text-anchor="start" x="748.5" y="-18.5" font-family="Helvetica,sans-Serif" font-size="10.00">src/hal/x4m0x_s70/board</text>
<text text-anchor="middle" x="809" y="-7.5" font-family="Helvetica,sans-Serif" font-size="10.00">_lowlevel.c</text>
</a>
</g>
</g>
<!-- Node3&#45;&gt;Node13 -->
<g id="edge10" class="edge"><title>Node3&#45;&gt;Node13</title>
<path fill="none" stroke="midnightblue" d="M1374.35,-143.518C1286.57,-142.848 1118.17,-136.074 981,-98 951.866,-89.9133 876.493,-51.7414 835.875,-30.6291"/>
<polygon fill="midnightblue" stroke="midnightblue" points="1374.37,-147.018 1384.39,-143.571 1374.41,-140.018 1374.37,-147.018"/>
</g>
<!-- Node14 -->
<g id="node11" class="node"><title>Node14</title>
<g id="a_node11"><a xlink:href="xt__config_8h.xhtml" target="_top" xlink:title="src/hal/x4m0x_s70/xt\l_config.h">
<polygon fill="white" stroke="red" points="1030,-67.5 1030,-97.5 1148,-97.5 1148,-67.5 1030,-67.5"/>
<text text-anchor="start" x="1038" y="-85.5" font-family="Helvetica,sans-Serif" font-size="10.00">src/hal/x4m0x_s70/xt</text>
<text text-anchor="middle" x="1089" y="-74.5" font-family="Helvetica,sans-Serif" font-size="10.00">_config.h</text>
</a>
</g>
</g>
<!-- Node3&#45;&gt;Node14 -->
<g id="edge11" class="edge"><title>Node3&#45;&gt;Node14</title>
<path fill="none" stroke="midnightblue" d="M1374.33,-133.693C1319.16,-124.954 1234.93,-111.271 1162,-98 1157.55,-97.1903 1152.95,-96.3309 1148.33,-95.4507"/>
<polygon fill="midnightblue" stroke="midnightblue" points="1373.86,-137.162 1384.28,-135.266 1374.95,-130.248 1373.86,-137.162"/>
</g>
<!-- Node15 -->
<g id="node12" class="node"><title>Node15</title>
<g id="a_node12"><a xlink:href="board__memories_8c.xhtml" target="_top" xlink:title="Implementation of memories configuration on board. ">
<polygon fill="white" stroke="black" points="895.5,-0.5 895.5,-30.5 1032.5,-30.5 1032.5,-0.5 895.5,-0.5"/>
<text text-anchor="start" x="903.5" y="-18.5" font-family="Helvetica,sans-Serif" font-size="10.00">src/hal/x4m0x_s70/board</text>
<text text-anchor="middle" x="964" y="-7.5" font-family="Helvetica,sans-Serif" font-size="10.00">_memories.c</text>
</a>
</g>
</g>
<!-- Node3&#45;&gt;Node15 -->
<g id="edge18" class="edge"><title>Node3&#45;&gt;Node15</title>
<path fill="none" stroke="midnightblue" d="M1374.28,-143.188C1272.2,-142.451 1069.5,-136.064 1011,-98 986.905,-82.322 973.725,-49.6798 967.842,-30.8094"/>
<polygon fill="midnightblue" stroke="midnightblue" points="1374.41,-146.689 1384.43,-143.245 1374.45,-139.689 1374.41,-146.689"/>
</g>
<!-- Node16 -->
<g id="node13" class="node"><title>Node16</title>
<g id="a_node13"><a xlink:href="system__sams70_8c.xhtml" target="_top" xlink:title="src/hal/x4m0x_s70/system\l_sams70.c">
<polygon fill="white" stroke="black" points="1051,-0.5 1051,-30.5 1195,-30.5 1195,-0.5 1051,-0.5"/>
<text text-anchor="start" x="1059" y="-18.5" font-family="Helvetica,sans-Serif" font-size="10.00">src/hal/x4m0x_s70/system</text>
<text text-anchor="middle" x="1123" y="-7.5" font-family="Helvetica,sans-Serif" font-size="10.00">_sams70.c</text>
</a>
</g>
</g>
<!-- Node3&#45;&gt;Node16 -->
<g id="edge22" class="edge"><title>Node3&#45;&gt;Node16</title>
<path fill="none" stroke="midnightblue" d="M1374.31,-140.822C1265.55,-136.237 1044.15,-123.812 1021,-98 996.633,-70.8334 1043.26,-45.6022 1081.22,-30.617"/>
<polygon fill="midnightblue" stroke="midnightblue" points="1374.33,-144.326 1384.47,-141.242 1374.62,-137.332 1374.33,-144.326"/>
</g>
<!-- Node18 -->
<g id="node14" class="node"><title>Node18</title>
<g id="a_node14"><a xlink:href="xt__selftest_8c.xhtml" target="_top" xlink:title="src/hal/x4m0x_s70/xt\l_selftest.c">
<polygon fill="white" stroke="black" points="1213,-0.5 1213,-30.5 1331,-30.5 1331,-0.5 1213,-0.5"/>
<text text-anchor="start" x="1221" y="-18.5" font-family="Helvetica,sans-Serif" font-size="10.00">src/hal/x4m0x_s70/xt</text>
<text text-anchor="middle" x="1272" y="-7.5" font-family="Helvetica,sans-Serif" font-size="10.00">_selftest.c</text>
</a>
</g>
</g>
<!-- Node3&#45;&gt;Node18 -->
<g id="edge25" class="edge"><title>Node3&#45;&gt;Node18</title>
<path fill="none" stroke="midnightblue" d="M1373.86,-138.098C1319.75,-132.291 1246.06,-120.435 1228,-98 1210.86,-76.7081 1235.89,-47.7547 1254.64,-30.7045"/>
<polygon fill="midnightblue" stroke="midnightblue" points="1373.75,-141.605 1384.06,-139.146 1374.47,-134.642 1373.75,-141.605"/>
</g>
<!-- Node19 -->
<g id="node15" class="node"><title>Node19</title>
<g id="a_node15"><a xlink:href="xt__system_8c.xhtml" target="_top" xlink:title="System level hardware functionality. ">
<polygon fill="white" stroke="black" points="1349,-0.5 1349,-30.5 1467,-30.5 1467,-0.5 1349,-0.5"/>
<text text-anchor="start" x="1357" y="-18.5" font-family="Helvetica,sans-Serif" font-size="10.00">src/hal/x4m0x_s70/xt</text>
<text text-anchor="middle" x="1408" y="-7.5" font-family="Helvetica,sans-Serif" font-size="10.00">_system.c</text>
</a>
</g>
</g>
<!-- Node3&#45;&gt;Node19 -->
<g id="edge26" class="edge"><title>Node3&#45;&gt;Node19</title>
<path fill="none" stroke="midnightblue" d="M1374.11,-137.359C1322.88,-131.149 1254.82,-119.123 1238,-98 1229.42,-87.2226 1229.76,-78.0427 1238,-67 1244.93,-57.7154 1302.46,-41.8939 1348.71,-30.4303"/>
<polygon fill="midnightblue" stroke="midnightblue" points="1373.77,-140.844 1384.11,-138.525 1374.58,-133.891 1373.77,-140.844"/>
</g>
<!-- Node22 -->
<g id="node16" class="node"><title>Node22</title>
<g id="a_node16"><a xlink:href="xtio__serial__com_8c.xhtml" target="_top" xlink:title="Implement USB serial communication. ">
<polygon fill="white" stroke="black" points="1485,-0.5 1485,-30.5 1611,-30.5 1611,-0.5 1485,-0.5"/>
<text text-anchor="start" x="1493" y="-18.5" font-family="Helvetica,sans-Serif" font-size="10.00">src/hal/x4m0x_s70/xtio</text>
<text text-anchor="middle" x="1548" y="-7.5" font-family="Helvetica,sans-Serif" font-size="10.00">_serial_com.c</text>
</a>
</g>
</g>
<!-- Node3&#45;&gt;Node22 -->
<g id="edge30" class="edge"><title>Node3&#45;&gt;Node22</title>
<path fill="none" stroke="midnightblue" d="M1374.25,-135.966C1315.12,-126.611 1237.88,-106.444 1271,-67 1300.74,-31.5787 1430.55,-39.5664 1476,-31 1478.88,-30.4568 1481.83,-29.8942 1484.8,-29.3201"/>
<polygon fill="midnightblue" stroke="midnightblue" points="1373.89,-139.452 1384.3,-137.483 1374.94,-132.531 1373.89,-139.452"/>
</g>
<!-- Node23 -->
<g id="node17" class="node"><title>Node23</title>
<g id="a_node17"><a xlink:href="qspi__private_8h.xhtml" target="_top" xlink:title="Local header file for xtio functions. ">
<polygon fill="white" stroke="black" points="1462,-67.5 1462,-97.5 1590,-97.5 1590,-67.5 1462,-67.5"/>
<text text-anchor="start" x="1470" y="-85.5" font-family="Helvetica,sans-Serif" font-size="10.00">src/hal/x4m0x_s70/qspi</text>
<text text-anchor="middle" x="1526" y="-74.5" font-family="Helvetica,sans-Serif" font-size="10.00">_private.h</text>
</a>
</g>
</g>
<!-- Node3&#45;&gt;Node23 -->
<g id="edge19" class="edge"><title>Node3&#45;&gt;Node23</title>
<path fill="none" stroke="midnightblue" d="M1455.63,-129.008C1470.31,-119.518 1489.63,-107.02 1504.32,-97.523"/>
<polygon fill="midnightblue" stroke="midnightblue" points="1453.68,-126.106 1447.18,-134.475 1457.48,-131.983 1453.68,-126.106"/>
</g>
<!-- Node24 -->
<g id="node18" class="node"><title>Node24</title>
<g id="a_node18"><a xlink:href="startup__sams70_8c.xhtml" target="_top" xlink:title="Interrupt handler definitions and start up code. ">
<polygon fill="white" stroke="black" points="1608.5,-67.5 1608.5,-97.5 1751.5,-97.5 1751.5,-67.5 1608.5,-67.5"/>
<text text-anchor="start" x="1616.5" y="-85.5" font-family="Helvetica,sans-Serif" font-size="10.00">src/hal/x4m0x_s70/startup</text>
<text text-anchor="middle" x="1680" y="-74.5" font-family="Helvetica,sans-Serif" font-size="10.00">_sams70.c</text>
</a>
</g>
</g>
<!-- Node3&#45;&gt;Node24 -->
<g id="edge20" class="edge"><title>Node3&#45;&gt;Node24</title>
<path fill="none" stroke="midnightblue" d="M1479.04,-132.107C1519.23,-122.386 1578.31,-108.095 1622.02,-97.523"/>
<polygon fill="midnightblue" stroke="midnightblue" points="1478.14,-128.722 1469.25,-134.475 1479.79,-135.526 1478.14,-128.722"/>
</g>
<!-- Node25 -->
<g id="node19" class="node"><title>Node25</title>
<g id="a_node19"><a xlink:href="syscalls_8c.xhtml" target="_top" xlink:title="Implementation of newlib syscall. ">
<polygon fill="white" stroke="black" points="1770,-73 1770,-92 1924,-92 1924,-73 1770,-73"/>
<text text-anchor="middle" x="1847" y="-80" font-family="Helvetica,sans-Serif" font-size="10.00">src/hal/x4m0x_s70/syscalls.c</text>
</a>
</g>
</g>
<!-- Node3&#45;&gt;Node25 -->
<g id="edge21" class="edge"><title>Node3&#45;&gt;Node25</title>
<path fill="none" stroke="midnightblue" d="M1493.81,-135.322C1559.43,-126.769 1667.84,-112.26 1761,-98 1772.97,-96.1672 1785.86,-94.0638 1797.92,-92.0381"/>
<polygon fill="midnightblue" stroke="midnightblue" points="1493.11,-131.883 1483.65,-136.643 1494.02,-138.824 1493.11,-131.883"/>
</g>
<!-- Node26 -->
<g id="node20" class="node"><title>Node26</title>
<g id="a_node20"><a xlink:href="xtio__flash_8h.xhtml" target="_top" xlink:title="Local header file for xtio FLASH functions. ">
<polygon fill="white" stroke="red" points="1942,-67.5 1942,-97.5 2068,-97.5 2068,-67.5 1942,-67.5"/>
<text text-anchor="start" x="1950" y="-85.5" font-family="Helvetica,sans-Serif" font-size="10.00">src/hal/x4m0x_s70/xtio</text>
<text text-anchor="middle" x="2005" y="-74.5" font-family="Helvetica,sans-Serif" font-size="10.00">_flash.h</text>
</a>
</g>
</g>
<!-- Node3&#45;&gt;Node26 -->
<g id="edge23" class="edge"><title>Node3&#45;&gt;Node26</title>
<path fill="none" stroke="midnightblue" d="M1493.95,-139.707C1587.9,-134.072 1775.36,-120.912 1933,-98 1935.9,-97.5782 1938.86,-97.1151 1941.85,-96.6216"/>
<polygon fill="midnightblue" stroke="midnightblue" points="1493.56,-136.224 1483.79,-140.309 1493.98,-143.212 1493.56,-136.224"/>
</g>
<!-- Node28 -->
<g id="node21" class="node"><title>Node28</title>
<g id="a_node21"><a xlink:href="xt__mcu__handlers_8c.xhtml" target="_top" xlink:title="Interrupt handlers for common MCU interrupts. ">
<polygon fill="white" stroke="black" points="2086,-67.5 2086,-97.5 2204,-97.5 2204,-67.5 2086,-67.5"/>
<text text-anchor="start" x="2094" y="-85.5" font-family="Helvetica,sans-Serif" font-size="10.00">src/hal/x4m0x_s70/xt</text>
<text text-anchor="middle" x="2145" y="-74.5" font-family="Helvetica,sans-Serif" font-size="10.00">_mcu_handlers.c</text>
</a>
</g>
</g>
<!-- Node3&#45;&gt;Node28 -->
<g id="edge24" class="edge"><title>Node3&#45;&gt;Node28</title>
<path fill="none" stroke="midnightblue" d="M1494.13,-141.602C1608.27,-138.328 1863.97,-128.016 2077,-98 2079.87,-97.5958 2082.8,-97.1399 2085.75,-96.6457"/>
<polygon fill="midnightblue" stroke="midnightblue" points="1493.76,-138.111 1483.86,-141.889 1493.96,-145.108 1493.76,-138.111"/>
</g>
<!-- Node29 -->
<g id="node22" class="node"><title>Node29</title>
<g id="a_node22"><a xlink:href="x4m0x__s70_2xtio__gpio_8h.xhtml" target="_top" xlink:title="Local header file for xtio functions. ">
<polygon fill="white" stroke="red" points="2222,-67.5 2222,-97.5 2348,-97.5 2348,-67.5 2222,-67.5"/>
<text text-anchor="start" x="2230" y="-85.5" font-family="Helvetica,sans-Serif" font-size="10.00">src/hal/x4m0x_s70/xtio</text>
<text text-anchor="middle" x="2285" y="-74.5" font-family="Helvetica,sans-Serif" font-size="10.00">_gpio.h</text>
</a>
</g>
</g>
<!-- Node3&#45;&gt;Node29 -->
<g id="edge27" class="edge"><title>Node3&#45;&gt;Node29</title>
<path fill="none" stroke="midnightblue" d="M1494.12,-142.41C1625.23,-140.491 1946.47,-132.362 2213,-98 2215.91,-97.625 2218.88,-97.2004 2221.87,-96.738"/>
<polygon fill="midnightblue" stroke="midnightblue" points="1493.85,-138.913 1483.9,-142.552 1493.94,-145.912 1493.85,-138.913"/>
</g>
<!-- Node30 -->
<g id="node23" class="node"><title>Node30</title>
<g id="a_node23"><a xlink:href="xtio__i2c_8c.xhtml" target="_top" xlink:title="src/hal/x4m0x_s70/xtio\l_i2c.c">
<polygon fill="white" stroke="black" points="2366,-67.5 2366,-97.5 2492,-97.5 2492,-67.5 2366,-67.5"/>
<text text-anchor="start" x="2374" y="-85.5" font-family="Helvetica,sans-Serif" font-size="10.00">src/hal/x4m0x_s70/xtio</text>
<text text-anchor="middle" x="2429" y="-74.5" font-family="Helvetica,sans-Serif" font-size="10.00">_i2c.c</text>
</a>
</g>
</g>
<!-- Node3&#45;&gt;Node30 -->
<g id="edge28" class="edge"><title>Node3&#45;&gt;Node30</title>
<path fill="none" stroke="midnightblue" d="M1493.94,-143.182C1641.37,-142.955 2033.22,-138.264 2357,-98 2359.91,-97.6381 2362.88,-97.2241 2365.87,-96.7705"/>
<polygon fill="midnightblue" stroke="midnightblue" points="1493.75,-139.682 1483.75,-143.191 1493.76,-146.682 1493.75,-139.682"/>
</g>
<!-- Node31 -->
<g id="node24" class="node"><title>Node31</title>
<g id="a_node24"><a xlink:href="xtio__led_8h.xhtml" target="_top" xlink:title="Local header file for xtio LED functions. ">
<polygon fill="white" stroke="red" points="2510,-67.5 2510,-97.5 2636,-97.5 2636,-67.5 2510,-67.5"/>
<text text-anchor="start" x="2518" y="-85.5" font-family="Helvetica,sans-Serif" font-size="10.00">src/hal/x4m0x_s70/xtio</text>
<text text-anchor="middle" x="2573" y="-74.5" font-family="Helvetica,sans-Serif" font-size="10.00">_led.h</text>
</a>
</g>
</g>
<!-- Node3&#45;&gt;Node31 -->
<g id="edge29" class="edge"><title>Node3&#45;&gt;Node31</title>
<path fill="none" stroke="midnightblue" d="M1493.7,-141.714C1688.39,-137.326 2303.67,-121.882 2501,-98 2503.91,-97.6476 2506.88,-97.2415 2509.87,-96.7942"/>
<polygon fill="midnightblue" stroke="midnightblue" points="1493.58,-138.216 1483.66,-141.939 1493.74,-145.214 1493.58,-138.216"/>
</g>
<!-- Node32 -->
<g id="node25" class="node"><title>Node32</title>
<g id="a_node25"><a xlink:href="xtio__uart_8h.xhtml" target="_top" xlink:title="Local header file for xtio UART functions. ">
<polygon fill="white" stroke="black" points="1280,-67.5 1280,-97.5 1406,-97.5 1406,-67.5 1280,-67.5"/>
<text text-anchor="start" x="1288" y="-85.5" font-family="Helvetica,sans-Serif" font-size="10.00">src/hal/x4m0x_s70/xtio</text>
<text text-anchor="middle" x="1343" y="-74.5" font-family="Helvetica,sans-Serif" font-size="10.00">_uart.h</text>
</a>
</g>
</g>
<!-- Node3&#45;&gt;Node32 -->
<g id="edge31" class="edge"><title>Node3&#45;&gt;Node32</title>
<path fill="none" stroke="midnightblue" d="M1412.19,-128.739C1397.73,-119.282 1378.83,-106.93 1364.45,-97.523"/>
<polygon fill="midnightblue" stroke="midnightblue" points="1410.68,-131.932 1420.96,-134.475 1414.51,-126.073 1410.68,-131.932"/>
</g>
<!-- Node33 -->
<g id="node26" class="node"><title>Node33</title>
<g id="a_node26"><a xlink:href="xtio__uart_8c.xhtml" target="_top" xlink:title="src/hal/x4m0x_s70/xtio\l_uart.c">
<polygon fill="white" stroke="black" points="1629,-0.5 1629,-30.5 1755,-30.5 1755,-0.5 1629,-0.5"/>
<text text-anchor="start" x="1637" y="-18.5" font-family="Helvetica,sans-Serif" font-size="10.00">src/hal/x4m0x_s70/xtio</text>
<text text-anchor="middle" x="1692" y="-7.5" font-family="Helvetica,sans-Serif" font-size="10.00">_uart.c</text>
</a>
</g>
</g>
<!-- Node3&#45;&gt;Node33 -->
<g id="edge35" class="edge"><title>Node3&#45;&gt;Node33</title>
<path fill="none" stroke="midnightblue" d="M1433.43,-124.236C1433.98,-106.943 1437.66,-81.7886 1453,-67 1454.61,-65.4433 1558.56,-43.8716 1628.82,-29.4305"/>
<polygon fill="midnightblue" stroke="midnightblue" points="1429.93,-124.277 1433.44,-134.276 1436.93,-124.275 1429.93,-124.277"/>
</g>
<!-- Node34 -->
<g id="node27" class="node"><title>Node34</title>
<g id="a_node27"><a xlink:href="xtio__spi_8c.xhtml" target="_top" xlink:title="src/hal/x4m0x_s70/xtio\l_spi.c">
<polygon fill="white" stroke="black" points="2654,-67.5 2654,-97.5 2780,-97.5 2780,-67.5 2654,-67.5"/>
<text text-anchor="start" x="2662" y="-85.5" font-family="Helvetica,sans-Serif" font-size="10.00">src/hal/x4m0x_s70/xtio</text>
<text text-anchor="middle" x="2717" y="-74.5" font-family="Helvetica,sans-Serif" font-size="10.00">_spi.c</text>
</a>
</g>
</g>
<!-- Node3&#45;&gt;Node34 -->
<g id="edge34" class="edge"><title>Node3&#45;&gt;Node34</title>
<path fill="none" stroke="midnightblue" d="M1494.08,-142.053C1706.05,-138.512 2418.35,-124.854 2645,-98 2647.91,-97.6549 2650.88,-97.2548 2653.88,-96.8123"/>
<polygon fill="midnightblue" stroke="midnightblue" points="1493.72,-138.559 1483.78,-142.224 1493.83,-145.558 1493.72,-138.559"/>
</g>
<!-- Node35 -->
<g id="node28" class="node"><title>Node35</title>
<g id="a_node28"><a xlink:href="xtio__usb_8c.xhtml" target="_top" xlink:title="Implementation of USB CDC functions for X4M0x boards with Atmel SAM S70 MCU. ">
<polygon fill="white" stroke="black" points="2798,-67.5 2798,-97.5 2924,-97.5 2924,-67.5 2798,-67.5"/>
<text text-anchor="start" x="2806" y="-85.5" font-family="Helvetica,sans-Serif" font-size="10.00">src/hal/x4m0x_s70/xtio</text>
<text text-anchor="middle" x="2861" y="-74.5" font-family="Helvetica,sans-Serif" font-size="10.00">_usb.c</text>
</a>
</g>
</g>
<!-- Node3&#45;&gt;Node35 -->
<g id="edge36" class="edge"><title>Node3&#45;&gt;Node35</title>
<path fill="none" stroke="midnightblue" d="M1493.89,-142.33C1721.49,-139.58 2532.7,-127.856 2789,-98 2791.91,-97.6607 2794.88,-97.2653 2797.88,-96.8266"/>
<polygon fill="midnightblue" stroke="midnightblue" points="1493.77,-138.831 1483.82,-142.451 1493.86,-145.831 1493.77,-138.831"/>
</g>
<!-- Node36 -->
<g id="node29" class="node"><title>Node36</title>
<g id="a_node29"><a xlink:href="task__hostcom_8c.xhtml" target="_top" xlink:title="src/HostCom/task_hostcom.c">
<polygon fill="white" stroke="black" points="2942,-73 2942,-92 3100,-92 3100,-73 2942,-73"/>
<text text-anchor="middle" x="3021" y="-80" font-family="Helvetica,sans-Serif" font-size="10.00">src/HostCom/task_hostcom.c</text>
</a>
</g>
</g>
<!-- Node3&#45;&gt;Node36 -->
<g id="edge37" class="edge"><title>Node3&#45;&gt;Node36</title>
<path fill="none" stroke="midnightblue" d="M1493.69,-142.272C1735.94,-139.152 2646.39,-125.79 2933,-98 2947.18,-96.6252 2962.53,-94.3659 2976.38,-92.0353"/>
<polygon fill="midnightblue" stroke="midnightblue" points="1493.62,-138.772 1483.67,-142.4 1493.71,-145.772 1493.62,-138.772"/>
</g>
<!-- Node37 -->
<g id="node30" class="node"><title>Node37</title>
<g id="a_node30"><a xlink:href="main_8c.xhtml" target="_top" xlink:title="main() function for Radar Application ">
<polygon fill="white" stroke="black" points="3118,-73 3118,-92 3184,-92 3184,-73 3118,-73"/>
<text text-anchor="middle" x="3151" y="-80" font-family="Helvetica,sans-Serif" font-size="10.00">src/main.c</text>
</a>
</g>
</g>
<!-- Node3&#45;&gt;Node37 -->
<g id="edge38" class="edge"><title>Node3&#45;&gt;Node37</title>
<path fill="none" stroke="midnightblue" d="M1494.26,-142.47C1775.01,-139.854 2947.92,-127.251 3109,-98 3116.13,-96.7044 3123.69,-94.4052 3130.4,-92.0142"/>
<polygon fill="midnightblue" stroke="midnightblue" points="1493.84,-138.974 1483.88,-142.566 1493.91,-145.973 1493.84,-138.974"/>
</g>
<!-- Node38 -->
<g id="node31" class="node"><title>Node38</title>
<g id="a_node31"><a xlink:href="xfs_8c.xhtml" target="_top" xlink:title="src/System/File/xfs.c">
<polygon fill="white" stroke="black" points="3202.5,-73 3202.5,-92 3315.5,-92 3315.5,-73 3202.5,-73"/>
<text text-anchor="middle" x="3259" y="-80" font-family="Helvetica,sans-Serif" font-size="10.00">src/System/File/xfs.c</text>
</a>
</g>
</g>
<!-- Node3&#45;&gt;Node38 -->
<g id="edge40" class="edge"><title>Node3&#45;&gt;Node38</title>
<path fill="none" stroke="midnightblue" d="M1494.08,-143.001C1762.49,-142.767 2853.53,-139.249 3193,-98 3203.83,-96.6839 3215.5,-94.4105 3225.97,-92.0489"/>
<polygon fill="midnightblue" stroke="midnightblue" points="1493.76,-139.501 1483.76,-143.008 1493.77,-146.501 1493.76,-139.501"/>
</g>
<!-- Node39 -->
<g id="node32" class="node"><title>Node39</title>
<g id="a_node32"><a xlink:href="xtfile_8c.xhtml" target="_top" xlink:title="src/System/File/xtfile.c">
<polygon fill="white" stroke="black" points="3334,-73 3334,-92 3456,-92 3456,-73 3334,-73"/>
<text text-anchor="middle" x="3395" y="-80" font-family="Helvetica,sans-Serif" font-size="10.00">src/System/File/xtfile.c</text>
</a>
</g>
</g>
<!-- Node3&#45;&gt;Node39 -->
<g id="edge41" class="edge"><title>Node3&#45;&gt;Node39</title>
<path fill="none" stroke="midnightblue" d="M1493.93,-143.029C1774.25,-142.944 2957.79,-140.053 3325,-98 3336.47,-96.6868 3348.84,-94.4141 3359.95,-92.0524"/>
<polygon fill="midnightblue" stroke="midnightblue" points="1493.57,-139.529 1483.57,-143.031 1493.57,-146.529 1493.57,-139.529"/>
</g>
<!-- Node40 -->
<g id="node33" class="node"><title>Node40</title>
<g id="a_node33"><a xlink:href="xtmemory__xep_8c.xhtml" target="_top" xlink:title="src/Tools/xtmemory\l_xep.c">
<polygon fill="white" stroke="black" points="3474,-67.5 3474,-97.5 3584,-97.5 3584,-67.5 3474,-67.5"/>
<text text-anchor="start" x="3482" y="-85.5" font-family="Helvetica,sans-Serif" font-size="10.00">src/Tools/xtmemory</text>
<text text-anchor="middle" x="3529" y="-74.5" font-family="Helvetica,sans-Serif" font-size="10.00">_xep.c</text>
</a>
</g>
</g>
<!-- Node3&#45;&gt;Node40 -->
<g id="edge43" class="edge"><title>Node3&#45;&gt;Node40</title>
<path fill="none" stroke="midnightblue" d="M1494.04,-143.294C1787.1,-144.479 3069.09,-146.734 3465,-98 3467.94,-97.6381 3470.94,-97.2002 3473.97,-96.7054"/>
<polygon fill="midnightblue" stroke="midnightblue" points="1493.65,-139.792 1483.64,-143.25 1493.62,-146.792 1493.65,-139.792"/>
</g>
<!-- Node41 -->
<g id="node34" class="node"><title>Node41</title>
<g id="a_node34"><a xlink:href="xttoolbox_8c.xhtml" target="_top" xlink:title="src/Tools/xttoolbox.c">
<polygon fill="white" stroke="black" points="3602.5,-73 3602.5,-92 3715.5,-92 3715.5,-73 3602.5,-73"/>
<text text-anchor="middle" x="3659" y="-80" font-family="Helvetica,sans-Serif" font-size="10.00">src/Tools/xttoolbox.c</text>
</a>
</g>
</g>
<!-- Node3&#45;&gt;Node41 -->
<g id="edge44" class="edge"><title>Node3&#45;&gt;Node41</title>
<path fill="none" stroke="midnightblue" d="M1493.81,-142.452C1820.26,-139.365 3379.86,-123.387 3593,-98 3603.95,-96.6957 3615.76,-94.3943 3626.32,-92.0038"/>
<polygon fill="midnightblue" stroke="midnightblue" points="1493.58,-138.953 1483.62,-142.548 1493.65,-145.953 1493.58,-138.953"/>
</g>
<!-- Node42 -->
<g id="node35" class="node"><title>Node42</title>
<g id="a_node35"><a xlink:href="module__ui_8c.xhtml" target="_top" xlink:title="src/XEPA/module_ui.c">
<polygon fill="white" stroke="black" points="3733.5,-73 3733.5,-92 3852.5,-92 3852.5,-73 3733.5,-73"/>
<text text-anchor="middle" x="3793" y="-80" font-family="Helvetica,sans-Serif" font-size="10.00">src/XEPA/module_ui.c</text>
</a>
</g>
</g>
<!-- Node3&#45;&gt;Node42 -->
<g id="edge45" class="edge"><title>Node3&#45;&gt;Node42</title>
<path fill="none" stroke="midnightblue" d="M1493.64,-142.508C1831.48,-139.631 3497.89,-124.202 3725,-98 3736.27,-96.6995 3748.43,-94.3991 3759.31,-92.0084"/>
<polygon fill="midnightblue" stroke="midnightblue" points="1493.54,-139.009 1483.57,-142.593 1493.6,-146.008 1493.54,-139.009"/>
</g>
<!-- Node43 -->
<g id="node36" class="node"><title>Node43</title>
<g id="a_node36"><a xlink:href="xep__application__mcp__callbacks_8h.xhtml" target="_top" xlink:title="XEP Module application interface. ">
<polygon fill="white" stroke="black" points="384.5,-67.5 384.5,-97.5 519.5,-97.5 519.5,-67.5 384.5,-67.5"/>
<text text-anchor="start" x="392.5" y="-85.5" font-family="Helvetica,sans-Serif" font-size="10.00">src/XEPA/xep_application</text>
<text text-anchor="middle" x="452" y="-74.5" font-family="Helvetica,sans-Serif" font-size="10.00">_mcp_callbacks.h</text>
</a>
</g>
</g>
<!-- Node3&#45;&gt;Node43 -->
<g id="edge47" class="edge"><title>Node3&#45;&gt;Node43</title>
<path fill="none" stroke="midnightblue" d="M1374.05,-142.588C1229.22,-141.03 849.012,-133.586 534,-98 529.403,-97.4807 524.674,-96.8647 519.918,-96.1842"/>
<polygon fill="midnightblue" stroke="midnightblue" points="1374.03,-146.088 1384.06,-142.69 1374.1,-139.088 1374.03,-146.088"/>
</g>
<!-- Node4&#45;&gt;Node6 -->
<g id="edge2" class="edge"><title>Node4&#45;&gt;Node6</title>
<path fill="none" stroke="midnightblue" d="M257.508,-70.0912C212.995,-57.232 141.641,-36.6185 101.643,-25.0637"/>
<polygon fill="midnightblue" stroke="midnightblue" points="256.543,-73.4555 267.122,-72.8685 258.486,-66.7305 256.543,-73.4555"/>
</g>
<!-- Node4&#45;&gt;Node7 -->
<g id="edge3" class="edge"><title>Node4&#45;&gt;Node7</title>
<path fill="none" stroke="midnightblue" d="M281.489,-65.4968C269.134,-52.7496 252.313,-35.3947 242.362,-25.1273"/>
<polygon fill="midnightblue" stroke="midnightblue" points="279.031,-67.989 288.504,-72.7338 284.057,-63.1172 279.031,-67.989"/>
</g>
<!-- Node4&#45;&gt;Node8 -->
<g id="edge4" class="edge"><title>Node4&#45;&gt;Node8</title>
<path fill="none" stroke="midnightblue" d="M318.187,-66.8495C333.877,-55.9998 355.131,-41.3028 370.625,-30.589"/>
<polygon fill="midnightblue" stroke="midnightblue" points="315.912,-64.1674 309.677,-72.7338 319.893,-69.925 315.912,-64.1674"/>
</g>
<!-- Node10&#45;&gt;Node11 -->
<g id="edge7" class="edge"><title>Node10&#45;&gt;Node11</title>
<path fill="none" stroke="midnightblue" d="M760.303,-70.6999C716.348,-60.5179 648.685,-44.8034 590,-31 581.841,-29.0809 573.071,-27.0045 564.797,-25.0389"/>
<polygon fill="midnightblue" stroke="midnightblue" points="759.596,-74.1287 770.128,-72.975 761.175,-67.3091 759.596,-74.1287"/>
</g>
<!-- Node10&#45;&gt;Node12 -->
<g id="edge8" class="edge"><title>Node10&#45;&gt;Node12</title>
<path fill="none" stroke="midnightblue" d="M778.431,-68.781C749.518,-55.9085 705.596,-36.3545 680.468,-25.1672"/>
<polygon fill="midnightblue" stroke="midnightblue" points="777.053,-71.9987 787.612,-72.8685 779.9,-65.6038 777.053,-71.9987"/>
</g>
<!-- Node14&#45;&gt;Node13 -->
<g id="edge12" class="edge"><title>Node14&#45;&gt;Node13</title>
<path fill="none" stroke="midnightblue" d="M1020.04,-65.4908C973.872,-54.7739 913.686,-40.8021 869.407,-30.5231"/>
<polygon fill="midnightblue" stroke="midnightblue" points="1019.43,-68.9426 1029.96,-67.7946 1021.01,-62.1239 1019.43,-68.9426"/>
</g>
<!-- Node14&#45;&gt;Node15 -->
<g id="edge13" class="edge"><title>Node14&#45;&gt;Node15</title>
<path fill="none" stroke="midnightblue" d="M1052.87,-62.7143C1033.16,-52.4631 1009.16,-39.9826 991.07,-30.5765"/>
<polygon fill="midnightblue" stroke="midnightblue" points="1051.39,-65.8877 1061.88,-67.396 1054.62,-59.6771 1051.39,-65.8877"/>
</g>
<!-- Node14&#45;&gt;Node16 -->
<g id="edge14" class="edge"><title>Node14&#45;&gt;Node16</title>
<path fill="none" stroke="midnightblue" d="M1101.14,-58.2835C1105.99,-49.0223 1111.41,-38.6632 1115.64,-30.5765"/>
<polygon fill="midnightblue" stroke="midnightblue" points="1097.91,-56.9127 1096.38,-67.396 1104.11,-60.1572 1097.91,-56.9127"/>
</g>
<!-- Node14&#45;&gt;Node18 -->
<g id="edge15" class="edge"><title>Node14&#45;&gt;Node18</title>
<path fill="none" stroke="midnightblue" d="M1138.4,-63.9553C1167.87,-53.4847 1204.81,-40.3656 1232.37,-30.5765"/>
<polygon fill="midnightblue" stroke="midnightblue" points="1136.96,-60.7507 1128.71,-67.396 1139.3,-67.347 1136.96,-60.7507"/>
</g>
<!-- Node14&#45;&gt;Node19 -->
<g id="edge16" class="edge"><title>Node14&#45;&gt;Node19</title>
<path fill="none" stroke="midnightblue" d="M1157.94,-67.8519C1208.39,-57.8099 1278.49,-43.746 1340,-31 1342.84,-30.4122 1345.74,-29.8072 1348.67,-29.1933"/>
<polygon fill="midnightblue" stroke="midnightblue" points="1157.25,-64.4215 1148.12,-69.8051 1158.61,-71.287 1157.25,-64.4215"/>
</g>
<!-- Node14&#45;&gt;Node22 -->
<g id="edge17" class="edge"><title>Node14&#45;&gt;Node22</title>
<path fill="none" stroke="midnightblue" d="M1158.33,-73.9136C1235.93,-65.0823 1365.33,-49.3427 1476,-31 1478.89,-30.5205 1481.85,-30.0101 1484.83,-29.4782"/>
<polygon fill="midnightblue" stroke="midnightblue" points="1157.74,-70.4581 1148.19,-75.061 1158.53,-77.4136 1157.74,-70.4581"/>
</g>
<!-- Node32&#45;&gt;Node22 -->
<g id="edge32" class="edge"><title>Node32&#45;&gt;Node22</title>
<path fill="none" stroke="midnightblue" d="M1396.79,-64.4442C1430.02,-53.9078 1472.15,-40.5495 1503.5,-30.6109"/>
<polygon fill="midnightblue" stroke="midnightblue" points="1395.7,-61.1172 1387.23,-67.476 1397.82,-67.7898 1395.7,-61.1172"/>
</g>
<!-- Node32&#45;&gt;Node33 -->
<g id="edge33" class="edge"><title>Node32&#45;&gt;Node33</title>
<path fill="none" stroke="midnightblue" d="M1416.13,-67.7141C1417.43,-67.4738 1418.72,-67.2356 1420,-67 1508.82,-50.6428 1531.28,-47.9164 1620,-31 1622.88,-30.4507 1625.83,-29.8831 1628.8,-29.3048"/>
<polygon fill="midnightblue" stroke="midnightblue" points="1415.22,-64.3234 1406.02,-69.5891 1416.5,-71.2059 1415.22,-64.3234"/>
</g>
<!-- Node43&#45;&gt;Node7 -->
<g id="edge48" class="edge"><title>Node43&#45;&gt;Node7</title>
<path fill="none" stroke="midnightblue" d="M395.288,-64.5904C352.713,-51.896 296.19,-35.0429 262.604,-25.0287"/>
<polygon fill="midnightblue" stroke="midnightblue" points="394.382,-67.9727 404.966,-67.476 396.383,-61.2645 394.382,-67.9727"/>
</g>
<!-- Node43&#45;&gt;Node8 -->
<g id="edge49" class="edge"><title>Node43&#45;&gt;Node8</title>
<path fill="none" stroke="midnightblue" d="M431.846,-60.0243C422.757,-50.3398 412.279,-39.1739 404.21,-30.5765"/>
<polygon fill="midnightblue" stroke="midnightblue" points="429.369,-62.4992 438.764,-67.396 434.473,-57.709 429.369,-62.4992"/>
</g>
</g>
</svg>
