<?xml version="1.0" encoding="UTF-8" standalone="no"?>
<!DOCTYPE svg PUBLIC "-//W3C//DTD SVG 1.1//EN"
 "http://www.w3.org/Graphics/SVG/1.1/DTD/svg11.dtd">
<!-- Generated by graphviz version 2.38.0 (20140413.2041)
 -->
<!-- Title: xtio_set_direction Pages: 1 -->
<svg width="252pt" height="66pt"
 viewBox="0.00 0.00 252.00 66.00" xmlns="http://www.w3.org/2000/svg" xmlns:xlink="http://www.w3.org/1999/xlink">
<g id="graph0" class="graph" transform="scale(1 1) rotate(0) translate(4 62)">
<title>xtio_set_direction</title>
<polygon fill="white" stroke="none" points="-4,4 -4,-62 248,-62 248,4 -4,4"/>
<!-- Node1052 -->
<g id="node1" class="node"><title>Node1052</title>
<polygon fill="#bfbfbf" stroke="black" points="0,-19.5 0,-38.5 101,-38.5 101,-19.5 0,-19.5"/>
<text text-anchor="middle" x="50.5" y="-26.5" font-family="Helvetica,sans-Serif" font-size="10.00">xtio_set_direction</text>
</g>
<!-- Node1053 -->
<g id="node2" class="node"><title>Node1053</title>
<g id="a_node2"><a xlink:href="x4m0x__s70_2xtio__gpio_8c.xhtml#a58dee74fbb4ad804b56f971e48fc1e9c" target="_top" xlink:title="xtio_decode_pin_id">
<polygon fill="white" stroke="red" points="137,-38.5 137,-57.5 244,-57.5 244,-38.5 137,-38.5"/>
<text text-anchor="middle" x="190.5" y="-45.5" font-family="Helvetica,sans-Serif" font-size="10.00">xtio_decode_pin_id</text>
</a>
</g>
</g>
<!-- Node1052&#45;&gt;Node1053 -->
<g id="edge1" class="edge"><title>Node1052&#45;&gt;Node1053</title>
<path fill="none" stroke="midnightblue" d="M101.321,-35.8594C109.645,-37.0054 118.373,-38.2071 126.966,-39.3902"/>
<polygon fill="midnightblue" stroke="midnightblue" points="126.575,-42.8694 136.959,-40.7661 127.53,-35.9348 126.575,-42.8694"/>
</g>
<!-- Node1055 -->
<g id="node3" class="node"><title>Node1055</title>
<g id="a_node3"><a xlink:href="pio_8h.xhtml#a1bb66b931fa38004c2178936c269fa76" target="_top" xlink:title="Configures a list of Pin instances, each of which can either hold a single pin or a group of pins...">
<polygon fill="white" stroke="red" points="149,-0.5 149,-19.5 232,-19.5 232,-0.5 149,-0.5"/>
<text text-anchor="middle" x="190.5" y="-7.5" font-family="Helvetica,sans-Serif" font-size="10.00">PIO_Configure</text>
</a>
</g>
</g>
<!-- Node1052&#45;&gt;Node1055 -->
<g id="edge2" class="edge"><title>Node1052&#45;&gt;Node1055</title>
<path fill="none" stroke="midnightblue" d="M101.321,-22.1406C113.505,-20.4631 126.555,-18.6663 138.781,-16.9831"/>
<polygon fill="midnightblue" stroke="midnightblue" points="139.389,-20.4324 148.819,-15.6011 138.435,-13.4978 139.389,-20.4324"/>
</g>
</g>
</svg>
