<?xml version="1.0" encoding="UTF-8" standalone="no"?>
<!DOCTYPE svg PUBLIC "-//W3C//DTD SVG 1.1//EN"
 "http://www.w3.org/Graphics/SVG/1.1/DTD/svg11.dtd">
<!-- Generated by graphviz version 2.38.0 (20140413.2041)
 -->
<!-- Title: include/xep_dispatch.h Pages: 1 -->
<svg width="1294pt" height="95pt"
 viewBox="0.00 0.00 1294.00 95.00" xmlns="http://www.w3.org/2000/svg" xmlns:xlink="http://www.w3.org/1999/xlink">
<g id="graph0" class="graph" transform="scale(1 1) rotate(0) translate(4 91)">
<title>include/xep_dispatch.h</title>
<polygon fill="white" stroke="none" points="-4,4 -4,-91 1290,-91 1290,4 -4,4"/>
<!-- Node5 -->
<g id="node1" class="node"><title>Node5</title>
<polygon fill="#bfbfbf" stroke="black" points="504.5,-67.5 504.5,-86.5 629.5,-86.5 629.5,-67.5 504.5,-67.5"/>
<text text-anchor="middle" x="567" y="-74.5" font-family="Helvetica,sans-Serif" font-size="10.00">include/xep_dispatch.h</text>
</g>
<!-- Node6 -->
<g id="node2" class="node"><title>Node6</title>
<g id="a_node2"><a xlink:href="xep_8h.xhtml" target="_top" xlink:title="XEP interface. ">
<polygon fill="white" stroke="red" points="0,-6 0,-25 80,-25 80,-6 0,-6"/>
<text text-anchor="middle" x="40" y="-13" font-family="Helvetica,sans-Serif" font-size="10.00">include/xep.h</text>
</a>
</g>
</g>
<!-- Node5&#45;&gt;Node6 -->
<g id="edge1" class="edge"><title>Node5&#45;&gt;Node6</title>
<path fill="none" stroke="midnightblue" d="M494.195,-73.5311C399.941,-69.3365 230.937,-58.4131 89,-31 81.2475,-29.5027 72.9631,-27.294 65.4535,-25.0494"/>
<polygon fill="midnightblue" stroke="midnightblue" points="494.054,-77.0282 504.196,-73.9633 494.356,-70.0347 494.054,-77.0282"/>
</g>
<!-- Node9 -->
<g id="node3" class="node"><title>Node9</title>
<g id="a_node3"><a xlink:href="xep__dispatch__messages_8h.xhtml" target="_top" xlink:title="include/xep_dispatch\l_messages.h">
<polygon fill="white" stroke="red" points="98,-0.5 98,-30.5 214,-30.5 214,-0.5 98,-0.5"/>
<text text-anchor="start" x="106" y="-18.5" font-family="Helvetica,sans-Serif" font-size="10.00">include/xep_dispatch</text>
<text text-anchor="middle" x="156" y="-7.5" font-family="Helvetica,sans-Serif" font-size="10.00">_messages.h</text>
</a>
</g>
</g>
<!-- Node5&#45;&gt;Node9 -->
<g id="edge2" class="edge"><title>Node5&#45;&gt;Node9</title>
<path fill="none" stroke="midnightblue" d="M494.292,-68.2645C424.485,-60.419 316.19,-47.1506 223,-31 220.068,-30.4919 217.07,-29.9448 214.047,-29.3711"/>
<polygon fill="midnightblue" stroke="midnightblue" points="493.979,-71.7512 504.306,-69.3824 494.756,-64.7945 493.979,-71.7512"/>
</g>
<!-- Node15 -->
<g id="node4" class="node"><title>Node15</title>
<g id="a_node4"><a xlink:href="xtfile_8h.xhtml" target="_top" xlink:title="include/xtfile.h">
<polygon fill="white" stroke="red" points="232.5,-6 232.5,-25 317.5,-25 317.5,-6 232.5,-6"/>
<text text-anchor="middle" x="275" y="-13" font-family="Helvetica,sans-Serif" font-size="10.00">include/xtfile.h</text>
</a>
</g>
</g>
<!-- Node5&#45;&gt;Node15 -->
<g id="edge3" class="edge"><title>Node5&#45;&gt;Node15</title>
<path fill="none" stroke="midnightblue" d="M504.238,-65.7638C455.635,-57.4679 386.749,-44.9043 327,-31 319.424,-29.2369 311.294,-27.0928 303.766,-25.0002"/>
<polygon fill="midnightblue" stroke="midnightblue" points="503.846,-69.2473 514.291,-67.4682 505.017,-62.3458 503.846,-69.2473"/>
</g>
<!-- Node18 -->
<g id="node5" class="node"><title>Node18</title>
<g id="a_node5"><a xlink:href="xthousekeeping_8h.xhtml" target="_top" xlink:title="include/xthousekeeping.h">
<polygon fill="white" stroke="red" points="336,-6 336,-25 474,-25 474,-6 336,-6"/>
<text text-anchor="middle" x="405" y="-13" font-family="Helvetica,sans-Serif" font-size="10.00">include/xthousekeeping.h</text>
</a>
</g>
</g>
<!-- Node5&#45;&gt;Node18 -->
<g id="edge4" class="edge"><title>Node5&#45;&gt;Node18</title>
<path fill="none" stroke="midnightblue" d="M534.145,-63.9329C502.658,-52.3683 455.937,-35.2083 428.168,-25.0091"/>
<polygon fill="midnightblue" stroke="midnightblue" points="533.196,-67.3128 543.789,-67.4751 535.609,-60.742 533.196,-67.3128"/>
</g>
<!-- Node19 -->
<g id="node6" class="node"><title>Node19</title>
<g id="a_node6"><a xlink:href="xep__dispatch_8c.xhtml" target="_top" xlink:title="src/Dispatch/xep_dispatch.c">
<polygon fill="white" stroke="black" points="492,-6 492,-25 642,-25 642,-6 492,-6"/>
<text text-anchor="middle" x="567" y="-13" font-family="Helvetica,sans-Serif" font-size="10.00">src/Dispatch/xep_dispatch.c</text>
</a>
</g>
</g>
<!-- Node5&#45;&gt;Node19 -->
<g id="edge5" class="edge"><title>Node5&#45;&gt;Node19</title>
<path fill="none" stroke="midnightblue" d="M567,-57.3165C567,-46.4962 567,-33.398 567,-25.0091"/>
<polygon fill="midnightblue" stroke="midnightblue" points="563.5,-57.4751 567,-67.4751 570.5,-57.4751 563.5,-57.4751"/>
</g>
<!-- Node20 -->
<g id="node7" class="node"><title>Node20</title>
<g id="a_node7"><a xlink:href="task__hostcom_8h.xhtml" target="_top" xlink:title="src/HostCom/task_hostcom.h">
<polygon fill="white" stroke="red" points="660,-6 660,-25 818,-25 818,-6 660,-6"/>
<text text-anchor="middle" x="739" y="-13" font-family="Helvetica,sans-Serif" font-size="10.00">src/HostCom/task_hostcom.h</text>
</a>
</g>
</g>
<!-- Node5&#45;&gt;Node20 -->
<g id="edge6" class="edge"><title>Node5&#45;&gt;Node20</title>
<path fill="none" stroke="midnightblue" d="M601.45,-64.0828C634.884,-52.517 684.791,-35.2524 714.402,-25.0091"/>
<polygon fill="midnightblue" stroke="midnightblue" points="599.95,-60.8981 591.643,-67.4751 602.238,-67.5135 599.95,-60.8981"/>
</g>
<!-- Node22 -->
<g id="node8" class="node"><title>Node22</title>
<g id="a_node8"><a xlink:href="task__radar_8h.xhtml" target="_top" xlink:title="Radar event task. ">
<polygon fill="white" stroke="red" points="836,-6 836,-25 960,-25 960,-6 836,-6"/>
<text text-anchor="middle" x="898" y="-13" font-family="Helvetica,sans-Serif" font-size="10.00">src/Radar/task_radar.h</text>
</a>
</g>
</g>
<!-- Node5&#45;&gt;Node22 -->
<g id="edge7" class="edge"><title>Node5&#45;&gt;Node22</title>
<path fill="none" stroke="midnightblue" d="M628.754,-65.8491C681.494,-57.0514 759.335,-43.7621 827,-31 836.767,-29.1579 847.267,-27.0719 857.118,-25.068"/>
<polygon fill="midnightblue" stroke="midnightblue" points="628.169,-62.3982 618.88,-67.4927 629.319,-69.3032 628.169,-62.3982"/>
</g>
<!-- Node23 -->
<g id="node9" class="node"><title>Node23</title>
<g id="a_node9"><a xlink:href="task__monitor_8h.xhtml" target="_top" xlink:title="System monitor task. ">
<polygon fill="white" stroke="red" points="978.5,-6 978.5,-25 1123.5,-25 1123.5,-6 978.5,-6"/>
<text text-anchor="middle" x="1051" y="-13" font-family="Helvetica,sans-Serif" font-size="10.00">src/System/task_monitor.h</text>
</a>
</g>
</g>
<!-- Node5&#45;&gt;Node23 -->
<g id="edge8" class="edge"><title>Node5&#45;&gt;Node23</title>
<path fill="none" stroke="midnightblue" d="M639.88,-69.2471C720.553,-61.4452 854.349,-47.5368 969,-31 980.876,-29.287 993.671,-27.1606 1005.54,-25.0688"/>
<polygon fill="midnightblue" stroke="midnightblue" points="639.445,-65.7727 629.826,-70.2144 640.115,-72.7406 639.445,-65.7727"/>
</g>
<!-- Node25 -->
<g id="node10" class="node"><title>Node25</title>
<g id="a_node10"><a xlink:href="xep__application_8h.xhtml" target="_top" xlink:title="XEP Module application interface. ">
<polygon fill="white" stroke="red" points="1142,-6 1142,-25 1286,-25 1286,-6 1142,-6"/>
<text text-anchor="middle" x="1214" y="-13" font-family="Helvetica,sans-Serif" font-size="10.00">src/XEPA/xep_application.h</text>
</a>
</g>
</g>
<!-- Node5&#45;&gt;Node25 -->
<g id="edge9" class="edge"><title>Node5&#45;&gt;Node25</title>
<path fill="none" stroke="midnightblue" d="M639.732,-72.4973C747.698,-66.7824 956.604,-53.7454 1133,-31 1145.33,-29.4105 1158.63,-27.2267 1170.82,-25.0362"/>
<polygon fill="midnightblue" stroke="midnightblue" points="639.407,-69.0094 629.603,-73.0275 639.773,-75.9998 639.407,-69.0094"/>
</g>
</g>
</svg>
