<?xml version="1.0" encoding="UTF-8" standalone="no"?>
<!DOCTYPE svg PUBLIC "-//W3C//DTD SVG 1.1//EN"
 "http://www.w3.org/Graphics/SVG/1.1/DTD/svg11.dtd">
<!-- Generated by graphviz version 2.38.0 (20140413.2041)
 -->
<!-- Title: xtio_flash_write Pages: 1 -->
<svg width="276pt" height="218pt"
 viewBox="0.00 0.00 276.00 218.00" xmlns="http://www.w3.org/2000/svg" xmlns:xlink="http://www.w3.org/1999/xlink">
<g id="graph0" class="graph" transform="scale(1 1) rotate(0) translate(4 214)">
<title>xtio_flash_write</title>
<polygon fill="white" stroke="none" points="-4,4 -4,-214 272,-214 272,4 -4,4"/>
<!-- Node585 -->
<g id="node1" class="node"><title>Node585</title>
<polygon fill="#bfbfbf" stroke="black" points="0,-95.5 0,-114.5 89,-114.5 89,-95.5 0,-95.5"/>
<text text-anchor="middle" x="44.5" y="-102.5" font-family="Helvetica,sans-Serif" font-size="10.00">xtio_flash_write</text>
</g>
<!-- Node586 -->
<g id="node2" class="node"><title>Node586</title>
<g id="a_node2"><a xlink:href="xtsemaphore_8h.xhtml#a397a6e9c0a37ad527526e2c8ad9c5c7e" target="_top" xlink:title="Create handle to mutex. ">
<polygon fill="white" stroke="black" points="156.5,-190.5 156.5,-209.5 236.5,-209.5 236.5,-190.5 156.5,-190.5"/>
<text text-anchor="middle" x="196.5" y="-197.5" font-family="Helvetica,sans-Serif" font-size="10.00">xtlock_create</text>
</a>
</g>
</g>
<!-- Node585&#45;&gt;Node586 -->
<g id="edge1" class="edge"><title>Node585&#45;&gt;Node586</title>
<path fill="none" stroke="midnightblue" d="M52.7278,-114.508C65.5102,-130.652 93.7249,-163.38 125,-181 131.681,-184.764 139.141,-187.81 146.639,-190.267"/>
<polygon fill="midnightblue" stroke="midnightblue" points="145.873,-193.69 156.455,-193.169 147.857,-186.978 145.873,-193.69"/>
</g>
<!-- Node587 -->
<g id="node3" class="node"><title>Node587</title>
<g id="a_node3"><a xlink:href="xtsemaphore_8h.xhtml#a43f4af132e6f6f5cda6ba0ba20e0895d" target="_top" xlink:title="Lock mutex. ">
<polygon fill="white" stroke="black" points="162.5,-152.5 162.5,-171.5 230.5,-171.5 230.5,-152.5 162.5,-152.5"/>
<text text-anchor="middle" x="196.5" y="-159.5" font-family="Helvetica,sans-Serif" font-size="10.00">xtlock_lock</text>
</a>
</g>
</g>
<!-- Node585&#45;&gt;Node587 -->
<g id="edge2" class="edge"><title>Node585&#45;&gt;Node587</title>
<path fill="none" stroke="midnightblue" d="M63.0929,-114.558C78.9405,-122.888 103.05,-134.874 125,-143 133.817,-146.264 143.444,-149.232 152.67,-151.801"/>
<polygon fill="midnightblue" stroke="midnightblue" points="151.902,-155.219 162.467,-154.427 153.714,-148.457 151.902,-155.219"/>
</g>
<!-- Node588 -->
<g id="node4" class="node"><title>Node588</title>
<g id="a_node4"><a xlink:href="flashd_8h.xhtml#aaf0c7fb937ecf006c011ab50928ef921" target="_top" xlink:title="Writes a data buffer in the internal flash. ">
<polygon fill="white" stroke="red" points="154.5,-114.5 154.5,-133.5 238.5,-133.5 238.5,-114.5 154.5,-114.5"/>
<text text-anchor="middle" x="196.5" y="-121.5" font-family="Helvetica,sans-Serif" font-size="10.00">FLASHD_Write</text>
</a>
</g>
</g>
<!-- Node585&#45;&gt;Node588 -->
<g id="edge3" class="edge"><title>Node585&#45;&gt;Node588</title>
<path fill="none" stroke="midnightblue" d="M89.2894,-110.547C106.574,-112.736 126.55,-115.266 144.483,-117.538"/>
<polygon fill="midnightblue" stroke="midnightblue" points="144.125,-121.02 154.486,-118.805 145.005,-114.076 144.125,-121.02"/>
</g>
<!-- Node595 -->
<g id="node5" class="node"><title>Node595</title>
<g id="a_node5"><a xlink:href="xtio__flash_8c.xhtml#a274458d21783c0dd4b1053430db3402e" target="_top" xlink:title="flash_in_progress_callback">
<polygon fill="white" stroke="black" points="125,-76.5 125,-95.5 268,-95.5 268,-76.5 125,-76.5"/>
<text text-anchor="middle" x="196.5" y="-83.5" font-family="Helvetica,sans-Serif" font-size="10.00">flash_in_progress_callback</text>
</a>
</g>
</g>
<!-- Node585&#45;&gt;Node595 -->
<g id="edge4" class="edge"><title>Node585&#45;&gt;Node595</title>
<path fill="none" stroke="midnightblue" d="M89.2894,-99.4533C97.3943,-98.4267 106.091,-97.3251 114.891,-96.2104"/>
<polygon fill="midnightblue" stroke="midnightblue" points="115.364,-99.6786 124.845,-94.9496 114.485,-92.7341 115.364,-99.6786"/>
</g>
<!-- Node596 -->
<g id="node6" class="node"><title>Node596</title>
<g id="a_node6"><a xlink:href="startup__same70_8c.xhtml#ab5e09814056d617c521549e542639b7e" target="_top" xlink:title="SysTick_Handler">
<polygon fill="white" stroke="black" points="149,-38.5 149,-57.5 244,-57.5 244,-38.5 149,-38.5"/>
<text text-anchor="middle" x="196.5" y="-45.5" font-family="Helvetica,sans-Serif" font-size="10.00">SysTick_Handler</text>
</a>
</g>
</g>
<!-- Node585&#45;&gt;Node596 -->
<g id="edge5" class="edge"><title>Node585&#45;&gt;Node596</title>
<path fill="none" stroke="midnightblue" d="M63.0929,-95.442C78.9405,-87.1122 103.05,-75.126 125,-67 131.39,-64.6345 138.204,-62.4247 144.983,-60.4095"/>
<polygon fill="midnightblue" stroke="midnightblue" points="146.179,-63.7081 154.837,-57.6009 144.26,-56.9763 146.179,-63.7081"/>
</g>
<!-- Node597 -->
<g id="node7" class="node"><title>Node597</title>
<g id="a_node7"><a xlink:href="xtsemaphore_8h.xhtml#a06bdc2b347e98a86047a4a29ab698c6c" target="_top" xlink:title="Unlock mutex. ">
<polygon fill="white" stroke="black" points="156.5,-0.5 156.5,-19.5 236.5,-19.5 236.5,-0.5 156.5,-0.5"/>
<text text-anchor="middle" x="196.5" y="-7.5" font-family="Helvetica,sans-Serif" font-size="10.00">xtlock_unlock</text>
</a>
</g>
</g>
<!-- Node585&#45;&gt;Node597 -->
<g id="edge6" class="edge"><title>Node585&#45;&gt;Node597</title>
<path fill="none" stroke="midnightblue" d="M52.7278,-95.4915C65.5102,-79.3481 93.7249,-46.6203 125,-29 131.681,-25.236 139.141,-22.19 146.639,-19.7328"/>
<polygon fill="midnightblue" stroke="midnightblue" points="147.857,-23.0223 156.455,-16.8309 145.873,-16.3095 147.857,-23.0223"/>
</g>
</g>
</svg>
