<?xml version="1.0" encoding="UTF-8" standalone="no"?>
<!DOCTYPE svg PUBLIC "-//W3C//DTD SVG 1.1//EN"
 "http://www.w3.org/Graphics/SVG/1.1/DTD/svg11.dtd">
<!-- Generated by graphviz version 2.38.0 (20140413.2041)
 -->
<!-- Title: onMcpFormatFilesystem Pages: 1 -->
<svg width="331pt" height="127pt"
 viewBox="0.00 0.00 331.00 126.50" xmlns="http://www.w3.org/2000/svg" xmlns:xlink="http://www.w3.org/1999/xlink">
<g id="graph0" class="graph" transform="scale(1 1) rotate(0) translate(4 122.5)">
<title>onMcpFormatFilesystem</title>
<polygon fill="white" stroke="none" points="-4,4 -4,-122.5 327,-122.5 327,4 -4,4"/>
<!-- Node173 -->
<g id="node1" class="node"><title>Node173</title>
<polygon fill="#bfbfbf" stroke="black" points="0,-55 0,-74 133,-74 133,-55 0,-55"/>
<text text-anchor="middle" x="66.5" y="-62" font-family="Helvetica,sans-Serif" font-size="10.00">onMcpFormatFilesystem</text>
</g>
<!-- Node174 -->
<g id="node2" class="node"><title>Node174</title>
<g id="a_node2"><a xlink:href="xtfile_8h.xhtml#ad5d7e5fa0eb1af8a97fed2e0d14cc4a1" target="_top" xlink:title="Formats the file system. ">
<polygon fill="white" stroke="red" points="207.5,-99 207.5,-118 284.5,-118 284.5,-99 207.5,-99"/>
<text text-anchor="middle" x="246" y="-106" font-family="Helvetica,sans-Serif" font-size="10.00">xtfile_format</text>
</a>
</g>
</g>
<!-- Node173&#45;&gt;Node174 -->
<g id="edge1" class="edge"><title>Node173&#45;&gt;Node174</title>
<path fill="none" stroke="midnightblue" d="M106.015,-74.0473C132.921,-80.7171 169.012,-89.6636 197.673,-96.7683"/>
<polygon fill="midnightblue" stroke="midnightblue" points="196.925,-100.189 207.474,-99.1977 198.61,-93.3944 196.925,-100.189"/>
</g>
<!-- Node196 -->
<g id="node3" class="node"><title>Node196</title>
<g id="a_node3"><a xlink:href="xep__dispatch__messages_8h.xhtml#a454af1ebc681b68eaf1995f56aa2e42c" target="_top" xlink:title="Dispatch message to hostcom asking to send error to host. ">
<polygon fill="white" stroke="red" points="169,-49.5 169,-79.5 323,-79.5 323,-49.5 169,-49.5"/>
<text text-anchor="start" x="177" y="-67.5" font-family="Helvetica,sans-Serif" font-size="10.00">dispatch_message_hostcom</text>
<text text-anchor="middle" x="246" y="-56.5" font-family="Helvetica,sans-Serif" font-size="10.00">_send_error</text>
</a>
</g>
</g>
<!-- Node173&#45;&gt;Node196 -->
<g id="edge2" class="edge"><title>Node173&#45;&gt;Node196</title>
<path fill="none" stroke="midnightblue" d="M133.09,-64.5C141.466,-64.5 150.138,-64.5 158.777,-64.5"/>
<polygon fill="midnightblue" stroke="midnightblue" points="158.885,-68.0001 168.885,-64.5 158.885,-61.0001 158.885,-68.0001"/>
</g>
<!-- Node203 -->
<g id="node4" class="node"><title>Node203</title>
<g id="a_node4"><a xlink:href="xep__dispatch__messages_8h.xhtml#a057fe6f9f6b6da7a806aeaf591500b59" target="_top" xlink:title="Dispatch message to hostcom asking to send ack to host. ">
<polygon fill="white" stroke="red" points="169,-0.5 169,-30.5 323,-30.5 323,-0.5 169,-0.5"/>
<text text-anchor="start" x="177" y="-18.5" font-family="Helvetica,sans-Serif" font-size="10.00">dispatch_message_hostcom</text>
<text text-anchor="middle" x="246" y="-7.5" font-family="Helvetica,sans-Serif" font-size="10.00">_send_ack</text>
</a>
</g>
</g>
<!-- Node173&#45;&gt;Node203 -->
<g id="edge3" class="edge"><title>Node173&#45;&gt;Node203</title>
<path fill="none" stroke="midnightblue" d="M102.145,-54.936C124.421,-48.7866 154.05,-40.6072 180.549,-33.2922"/>
<polygon fill="midnightblue" stroke="midnightblue" points="181.821,-36.5719 190.529,-30.537 179.959,-29.8243 181.821,-36.5719"/>
</g>
</g>
</svg>
