<?xml version="1.0" encoding="UTF-8" standalone="no"?>
<!DOCTYPE svg PUBLIC "-//W3C//DTD SVG 1.1//EN"
 "http://www.w3.org/Graphics/SVG/1.1/DTD/svg11.dtd">
<!-- Generated by graphviz version 2.38.0 (20140413.2041)
 -->
<!-- Title: xep_process_dispatch_message_default Pages: 1 -->
<svg width="347pt" height="154pt"
 viewBox="0.00 0.00 347.00 154.00" xmlns="http://www.w3.org/2000/svg" xmlns:xlink="http://www.w3.org/1999/xlink">
<g id="graph0" class="graph" transform="scale(1 1) rotate(0) translate(4 150)">
<title>xep_process_dispatch_message_default</title>
<polygon fill="white" stroke="none" points="-4,4 -4,-150 343,-150 343,4 -4,4"/>
<!-- Node9 -->
<g id="node1" class="node"><title>Node9</title>
<polygon fill="#bfbfbf" stroke="black" points="0,-61 0,-91 122,-91 122,-61 0,-61"/>
<text text-anchor="start" x="8" y="-79" font-family="Helvetica,sans-Serif" font-size="10.00">xep_process_dispatch</text>
<text text-anchor="middle" x="61" y="-68" font-family="Helvetica,sans-Serif" font-size="10.00">_message_default</text>
</g>
<!-- Node10 -->
<g id="node2" class="node"><title>Node10</title>
<g id="a_node2"><a xlink:href="xep__dispatch_8h.xhtml#af230fbcbf78ff22c13ca92625a50216d" target="_top" xlink:title="Release message. ">
<polygon fill="white" stroke="red" points="175,-126.5 175,-145.5 322,-145.5 322,-126.5 175,-126.5"/>
<text text-anchor="middle" x="248.5" y="-133.5" font-family="Helvetica,sans-Serif" font-size="10.00">dispatch_release_message</text>
</a>
</g>
</g>
<!-- Node9&#45;&gt;Node10 -->
<g id="edge1" class="edge"><title>Node9&#45;&gt;Node10</title>
<path fill="none" stroke="midnightblue" d="M92.9803,-91.0532C111.508,-99.5924 135.71,-109.948 158,-117 166.363,-119.646 175.282,-122.034 184.128,-124.153"/>
<polygon fill="midnightblue" stroke="midnightblue" points="183.522,-127.605 194.052,-126.43 185.088,-120.782 183.522,-127.605"/>
</g>
<!-- Node14 -->
<g id="node3" class="node"><title>Node14</title>
<g id="a_node3"><a xlink:href="group__udd__udphs__group.xhtml#gae90f972fe3687ee01b803027939cdb47" target="_top" xlink:title="if">
<polygon fill="white" stroke="black" points="234,-88.5 234,-107.5 263,-107.5 263,-88.5 234,-88.5"/>
<text text-anchor="middle" x="248.5" y="-95.5" font-family="Helvetica,sans-Serif" font-size="10.00">if</text>
</a>
</g>
</g>
<!-- Node9&#45;&gt;Node14 -->
<g id="edge2" class="edge"><title>Node9&#45;&gt;Node14</title>
<path fill="none" stroke="midnightblue" d="M122.227,-83.1428C156.692,-87.2303 198.018,-92.1315 223.519,-95.1559"/>
<polygon fill="midnightblue" stroke="midnightblue" points="223.384,-98.6643 233.727,-96.3665 224.208,-91.713 223.384,-98.6643"/>
</g>
<!-- Node15 -->
<g id="node4" class="node"><title>Node15</title>
<g id="a_node4"><a xlink:href="xep__dispatch__messages_8h.xhtml#a7d4889c801b25b77cfdf4958087ac5c6" target="_top" xlink:title="Dispatch message to hostcom asking to send radar frame data to host. ">
<polygon fill="white" stroke="red" points="158,-39 158,-69 339,-69 339,-39 158,-39"/>
<text text-anchor="start" x="166" y="-57" font-family="Helvetica,sans-Serif" font-size="10.00">dispatch_message_hostcom</text>
<text text-anchor="middle" x="248.5" y="-46" font-family="Helvetica,sans-Serif" font-size="10.00">_forward_radardata_frame_packet</text>
</a>
</g>
</g>
<!-- Node9&#45;&gt;Node15 -->
<g id="edge3" class="edge"><title>Node9&#45;&gt;Node15</title>
<path fill="none" stroke="midnightblue" d="M122.227,-68.8572C130.528,-67.8727 139.227,-66.841 148.007,-65.7997"/>
<polygon fill="midnightblue" stroke="midnightblue" points="148.42,-69.2754 157.938,-64.6219 147.595,-62.3241 148.42,-69.2754"/>
</g>
<!-- Node18 -->
<g id="node5" class="node"><title>Node18</title>
<g id="a_node5"><a xlink:href="module__ui_8h.xhtml#a54f86bf93a9a46ab61ff08b7e535e9a0" target="_top" xlink:title="Set the module LED color. ">
<polygon fill="white" stroke="red" points="181.5,-0.5 181.5,-19.5 315.5,-19.5 315.5,-0.5 181.5,-0.5"/>
<text text-anchor="middle" x="248.5" y="-7.5" font-family="Helvetica,sans-Serif" font-size="10.00">module_ui_led_set_color</text>
</a>
</g>
</g>
<!-- Node9&#45;&gt;Node18 -->
<g id="edge4" class="edge"><title>Node9&#45;&gt;Node18</title>
<path fill="none" stroke="midnightblue" d="M89.4364,-60.7922C108.263,-50.8762 134.074,-38.2847 158,-30 166.728,-26.9776 176.097,-24.2979 185.368,-21.9609"/>
<polygon fill="midnightblue" stroke="midnightblue" points="186.45,-25.3006 195.354,-19.5594 184.813,-18.4946 186.45,-25.3006"/>
</g>
</g>
</svg>
