<?xml version="1.0" encoding="UTF-8" standalone="no"?>
<!DOCTYPE svg PUBLIC "-//W3C//DTD SVG 1.1//EN"
 "http://www.w3.org/Graphics/SVG/1.1/DTD/svg11.dtd">
<!-- Generated by graphviz version 2.38.0 (20140413.2041)
 -->
<!-- Title: onMcpGetFileData Pages: 1 -->
<svg width="302pt" height="166pt"
 viewBox="0.00 0.00 302.00 165.50" xmlns="http://www.w3.org/2000/svg" xmlns:xlink="http://www.w3.org/1999/xlink">
<g id="graph0" class="graph" transform="scale(1 1) rotate(0) translate(4 161.5)">
<title>onMcpGetFileData</title>
<polygon fill="white" stroke="none" points="-4,4 -4,-161.5 298,-161.5 298,4 -4,4"/>
<!-- Node257 -->
<g id="node1" class="node"><title>Node257</title>
<polygon fill="#bfbfbf" stroke="black" points="0,-72 0,-91 104,-91 104,-72 0,-72"/>
<text text-anchor="middle" x="52" y="-79" font-family="Helvetica,sans-Serif" font-size="10.00">onMcpGetFileData</text>
</g>
<!-- Node258 -->
<g id="node2" class="node"><title>Node258</title>
<g id="a_node2"><a xlink:href="xtfile_8h.xhtml#acd9f464dd135cbeaf8671e7c3c4c900f" target="_top" xlink:title="xtfile_get_handle">
<polygon fill="white" stroke="red" points="168,-138 168,-157 266,-157 266,-138 168,-138"/>
<text text-anchor="middle" x="217" y="-145" font-family="Helvetica,sans-Serif" font-size="10.00">xtfile_get_handle</text>
</a>
</g>
</g>
<!-- Node257&#45;&gt;Node258 -->
<g id="edge1" class="edge"><title>Node257&#45;&gt;Node258</title>
<path fill="none" stroke="midnightblue" d="M67.847,-91.0201C84.7386,-101.489 113.432,-118.191 140,-128.5 146.389,-130.979 153.208,-133.219 160.039,-135.216"/>
<polygon fill="midnightblue" stroke="midnightblue" points="159.438,-138.681 170.009,-137.971 161.302,-131.934 159.438,-138.681"/>
</g>
<!-- Node263 -->
<g id="node3" class="node"><title>Node263</title>
<g id="a_node3"><a xlink:href="xep__dispatch__messages_8h.xhtml#a454af1ebc681b68eaf1995f56aa2e42c" target="_top" xlink:title="Dispatch message to hostcom asking to send error to host. ">
<polygon fill="white" stroke="red" points="140,-88.5 140,-118.5 294,-118.5 294,-88.5 140,-88.5"/>
<text text-anchor="start" x="148" y="-106.5" font-family="Helvetica,sans-Serif" font-size="10.00">dispatch_message_hostcom</text>
<text text-anchor="middle" x="217" y="-95.5" font-family="Helvetica,sans-Serif" font-size="10.00">_send_error</text>
</a>
</g>
</g>
<!-- Node257&#45;&gt;Node263 -->
<g id="edge2" class="edge"><title>Node257&#45;&gt;Node263</title>
<path fill="none" stroke="midnightblue" d="M104.127,-88.4006C112.403,-89.5176 121.166,-90.7004 130.001,-91.8927"/>
<polygon fill="midnightblue" stroke="midnightblue" points="129.604,-95.3709 139.982,-93.24 130.54,-88.4338 129.604,-95.3709"/>
</g>
<!-- Node270 -->
<g id="node4" class="node"><title>Node270</title>
<g id="a_node4"><a xlink:href="xtfile_8h.xhtml#a60f5bc8f5e3c8f0e61a4c41d05c15556" target="_top" xlink:title="Gets the pointer and size of the content of the file. ">
<polygon fill="white" stroke="red" points="170.5,-50 170.5,-69 263.5,-69 263.5,-50 170.5,-50"/>
<text text-anchor="middle" x="217" y="-57" font-family="Helvetica,sans-Serif" font-size="10.00">xtfile_get_buffer</text>
</a>
</g>
</g>
<!-- Node257&#45;&gt;Node270 -->
<g id="edge3" class="edge"><title>Node257&#45;&gt;Node270</title>
<path fill="none" stroke="midnightblue" d="M104.127,-74.5994C121.926,-72.1971 141.981,-69.4903 160.144,-67.0388"/>
<polygon fill="midnightblue" stroke="midnightblue" points="160.858,-70.4743 170.3,-65.6681 159.922,-63.5372 160.858,-70.4743"/>
</g>
<!-- Node271 -->
<g id="node5" class="node"><title>Node271</title>
<g id="a_node5"><a xlink:href="xep__dispatch__messages_8h.xhtml#a22a2633c98e35bd1a0e5fd8687de3adf" target="_top" xlink:title="Dispatch message to hostcom asking to reply with byte array to host. ">
<polygon fill="white" stroke="red" points="140,-0.5 140,-30.5 294,-30.5 294,-0.5 140,-0.5"/>
<text text-anchor="start" x="148" y="-18.5" font-family="Helvetica,sans-Serif" font-size="10.00">dispatch_message_hostcom</text>
<text text-anchor="middle" x="217" y="-7.5" font-family="Helvetica,sans-Serif" font-size="10.00">_send_reply_byte</text>
</a>
</g>
</g>
<!-- Node257&#45;&gt;Node271 -->
<g id="edge4" class="edge"><title>Node257&#45;&gt;Node271</title>
<path fill="none" stroke="midnightblue" d="M71.7131,-71.8627C89.1347,-63.088 115.957,-50.0781 140,-40.5 145.539,-38.2936 151.356,-36.1243 157.204,-34.0417"/>
<polygon fill="midnightblue" stroke="midnightblue" points="158.732,-37.216 167.029,-30.6274 156.435,-30.6039 158.732,-37.216"/>
</g>
</g>
</svg>
