<?xml version="1.0" encoding="UTF-8" standalone="no"?>
<!DOCTYPE svg PUBLIC "-//W3C//DTD SVG 1.1//EN"
 "http://www.w3.org/Graphics/SVG/1.1/DTD/svg11.dtd">
<!-- Generated by graphviz version 2.38.0 (20140413.2041)
 -->
<!-- Title: onMcpX4DriverGetTxCenterFrequency Pages: 1 -->
<svg width="347pt" height="137pt"
 viewBox="0.00 0.00 347.00 137.00" xmlns="http://www.w3.org/2000/svg" xmlns:xlink="http://www.w3.org/1999/xlink">
<g id="graph0" class="graph" transform="scale(1 1) rotate(0) translate(4 133)">
<title>onMcpX4DriverGetTxCenterFrequency</title>
<polygon fill="white" stroke="none" points="-4,4 -4,-133 343,-133 343,4 -4,4"/>
<!-- Node928 -->
<g id="node1" class="node"><title>Node928</title>
<polygon fill="#bfbfbf" stroke="black" points="0,-49.5 0,-79.5 149,-79.5 149,-49.5 0,-49.5"/>
<text text-anchor="start" x="8" y="-67.5" font-family="Helvetica,sans-Serif" font-size="10.00">onMcpX4DriverGetTxCenter</text>
<text text-anchor="middle" x="74.5" y="-56.5" font-family="Helvetica,sans-Serif" font-size="10.00">Frequency</text>
</g>
<!-- Node929 -->
<g id="node2" class="node"><title>Node929</title>
<g id="a_node2"><a xlink:href="x4driver_8h.xhtml#ae7c3785d7b727134740f350df73ac1c6" target="_top" xlink:title="x4driver_get_tx_center\l_frequency">
<polygon fill="white" stroke="red" points="199,-98.5 199,-128.5 325,-128.5 325,-98.5 199,-98.5"/>
<text text-anchor="start" x="207" y="-116.5" font-family="Helvetica,sans-Serif" font-size="10.00">x4driver_get_tx_center</text>
<text text-anchor="middle" x="262" y="-105.5" font-family="Helvetica,sans-Serif" font-size="10.00">_frequency</text>
</a>
</g>
</g>
<!-- Node928&#45;&gt;Node929 -->
<g id="edge1" class="edge"><title>Node928&#45;&gt;Node929</title>
<path fill="none" stroke="midnightblue" d="M132.417,-79.5346C152.003,-84.7083 174.108,-90.5475 194.396,-95.9066"/>
<polygon fill="midnightblue" stroke="midnightblue" points="193.629,-99.3238 204.191,-98.4938 195.416,-92.5559 193.629,-99.3238"/>
</g>
<!-- Node937 -->
<g id="node3" class="node"><title>Node937</title>
<g id="a_node3"><a xlink:href="xep__dispatch__messages_8h.xhtml#a22a2633c98e35bd1a0e5fd8687de3adf" target="_top" xlink:title="Dispatch message to hostcom asking to reply with byte array to host. ">
<polygon fill="white" stroke="red" points="185,-49.5 185,-79.5 339,-79.5 339,-49.5 185,-49.5"/>
<text text-anchor="start" x="193" y="-67.5" font-family="Helvetica,sans-Serif" font-size="10.00">dispatch_message_hostcom</text>
<text text-anchor="middle" x="262" y="-56.5" font-family="Helvetica,sans-Serif" font-size="10.00">_send_reply_byte</text>
</a>
</g>
</g>
<!-- Node928&#45;&gt;Node937 -->
<g id="edge2" class="edge"><title>Node928&#45;&gt;Node937</title>
<path fill="none" stroke="midnightblue" d="M149.081,-64.5C157.515,-64.5 166.169,-64.5 174.75,-64.5"/>
<polygon fill="midnightblue" stroke="midnightblue" points="174.77,-68.0001 184.77,-64.5 174.77,-61.0001 174.77,-68.0001"/>
</g>
<!-- Node946 -->
<g id="node4" class="node"><title>Node946</title>
<g id="a_node4"><a xlink:href="xep__dispatch__messages_8h.xhtml#a454af1ebc681b68eaf1995f56aa2e42c" target="_top" xlink:title="Dispatch message to hostcom asking to send error to host. ">
<polygon fill="white" stroke="red" points="185,-0.5 185,-30.5 339,-30.5 339,-0.5 185,-0.5"/>
<text text-anchor="start" x="193" y="-18.5" font-family="Helvetica,sans-Serif" font-size="10.00">dispatch_message_hostcom</text>
<text text-anchor="middle" x="262" y="-7.5" font-family="Helvetica,sans-Serif" font-size="10.00">_send_error</text>
</a>
</g>
</g>
<!-- Node928&#45;&gt;Node946 -->
<g id="edge3" class="edge"><title>Node928&#45;&gt;Node946</title>
<path fill="none" stroke="midnightblue" d="M132.417,-49.4654C152.003,-44.2917 174.108,-38.4525 194.396,-33.0934"/>
<polygon fill="midnightblue" stroke="midnightblue" points="195.416,-36.4441 204.191,-30.5062 193.629,-29.6762 195.416,-36.4441"/>
</g>
</g>
</svg>
