<?xml version="1.0" encoding="UTF-8" standalone="no"?>
<!DOCTYPE svg PUBLIC "-//W3C//DTD SVG 1.1//EN"
 "http://www.w3.org/Graphics/SVG/1.1/DTD/svg11.dtd">
<!-- Generated by graphviz version 2.38.0 (20140413.2041)
 -->
<!-- Title: onMcpX4DriverSetDownconversion Pages: 1 -->
<svg width="384pt" height="127pt"
 viewBox="0.00 0.00 384.00 126.50" xmlns="http://www.w3.org/2000/svg" xmlns:xlink="http://www.w3.org/1999/xlink">
<g id="graph0" class="graph" transform="scale(1 1) rotate(0) translate(4 122.5)">
<title>onMcpX4DriverSetDownconversion</title>
<polygon fill="white" stroke="none" points="-4,4 -4,-122.5 380,-122.5 380,4 -4,4"/>
<!-- Node1175 -->
<g id="node1" class="node"><title>Node1175</title>
<polygon fill="#bfbfbf" stroke="black" points="0,-55 0,-74 183,-74 183,-55 0,-55"/>
<text text-anchor="middle" x="91.5" y="-62" font-family="Helvetica,sans-Serif" font-size="10.00">onMcpX4DriverSetDownconversion</text>
</g>
<!-- Node1176 -->
<g id="node2" class="node"><title>Node1176</title>
<g id="a_node2"><a xlink:href="x4driver_8h.xhtml#aca2f2487a46b5debe6656dd21a816e97" target="_top" xlink:title="x4driver_set_downconversion">
<polygon fill="white" stroke="red" points="219,-99 219,-118 376,-118 376,-99 219,-99"/>
<text text-anchor="middle" x="297.5" y="-106" font-family="Helvetica,sans-Serif" font-size="10.00">x4driver_set_downconversion</text>
</a>
</g>
</g>
<!-- Node1175&#45;&gt;Node1176 -->
<g id="edge1" class="edge"><title>Node1175&#45;&gt;Node1176</title>
<path fill="none" stroke="midnightblue" d="M136.765,-74.0473C167.775,-80.7357 209.4,-89.7137 242.384,-96.8279"/>
<polygon fill="midnightblue" stroke="midnightblue" points="241.808,-100.284 252.321,-98.9713 243.284,-93.4415 241.808,-100.284"/>
</g>
<!-- Node1194 -->
<g id="node3" class="node"><title>Node1194</title>
<g id="a_node3"><a xlink:href="xep__dispatch__messages_8h.xhtml#a057fe6f9f6b6da7a806aeaf591500b59" target="_top" xlink:title="Dispatch message to hostcom asking to send ack to host. ">
<polygon fill="white" stroke="red" points="220.5,-49.5 220.5,-79.5 374.5,-79.5 374.5,-49.5 220.5,-49.5"/>
<text text-anchor="start" x="228.5" y="-67.5" font-family="Helvetica,sans-Serif" font-size="10.00">dispatch_message_hostcom</text>
<text text-anchor="middle" x="297.5" y="-56.5" font-family="Helvetica,sans-Serif" font-size="10.00">_send_ack</text>
</a>
</g>
</g>
<!-- Node1175&#45;&gt;Node1194 -->
<g id="edge2" class="edge"><title>Node1175&#45;&gt;Node1194</title>
<path fill="none" stroke="midnightblue" d="M183.165,-64.5C192.211,-64.5 201.378,-64.5 210.375,-64.5"/>
<polygon fill="midnightblue" stroke="midnightblue" points="210.446,-68.0001 220.446,-64.5 210.446,-61.0001 210.446,-68.0001"/>
</g>
<!-- Node1203 -->
<g id="node4" class="node"><title>Node1203</title>
<g id="a_node4"><a xlink:href="xep__dispatch__messages_8h.xhtml#a454af1ebc681b68eaf1995f56aa2e42c" target="_top" xlink:title="Dispatch message to hostcom asking to send error to host. ">
<polygon fill="white" stroke="red" points="220.5,-0.5 220.5,-30.5 374.5,-30.5 374.5,-0.5 220.5,-0.5"/>
<text text-anchor="start" x="228.5" y="-18.5" font-family="Helvetica,sans-Serif" font-size="10.00">dispatch_message_hostcom</text>
<text text-anchor="middle" x="297.5" y="-7.5" font-family="Helvetica,sans-Serif" font-size="10.00">_send_error</text>
</a>
</g>
</g>
<!-- Node1175&#45;&gt;Node1203 -->
<g id="edge3" class="edge"><title>Node1175&#45;&gt;Node1203</title>
<path fill="none" stroke="midnightblue" d="M132.318,-54.936C158.37,-48.6782 193.175,-40.3183 224.033,-32.9063"/>
<polygon fill="midnightblue" stroke="midnightblue" points="224.991,-36.2758 233.897,-30.537 223.356,-29.4694 224.991,-36.2758"/>
</g>
</g>
</svg>
