<?xml version="1.0" encoding="UTF-8" standalone="no"?>
<!DOCTYPE svg PUBLIC "-//W3C//DTD SVG 1.1//EN"
 "http://www.w3.org/Graphics/SVG/1.1/DTD/svg11.dtd">
<!-- Generated by graphviz version 2.38.0 (20140413.2041)
 -->
<!-- Title: xfs_init Pages: 1 -->
<svg width="222pt" height="218pt"
 viewBox="0.00 0.00 222.00 218.00" xmlns="http://www.w3.org/2000/svg" xmlns:xlink="http://www.w3.org/1999/xlink">
<g id="graph0" class="graph" transform="scale(1 1) rotate(0) translate(4 214)">
<title>xfs_init</title>
<polygon fill="white" stroke="none" points="-4,4 -4,-214 218,-214 218,4 -4,4"/>
<!-- Node438 -->
<g id="node1" class="node"><title>Node438</title>
<polygon fill="#bfbfbf" stroke="black" points="0,-95.5 0,-114.5 50,-114.5 50,-95.5 0,-95.5"/>
<text text-anchor="middle" x="25" y="-102.5" font-family="Helvetica,sans-Serif" font-size="10.00">xfs_init</text>
</g>
<!-- Node439 -->
<g id="node2" class="node"><title>Node439</title>
<g id="a_node2"><a xlink:href="xtsemaphore_8h.xhtml#a397a6e9c0a37ad527526e2c8ad9c5c7e" target="_top" xlink:title="Create handle to mutex. ">
<polygon fill="white" stroke="black" points="110,-190.5 110,-209.5 190,-209.5 190,-190.5 110,-190.5"/>
<text text-anchor="middle" x="150" y="-197.5" font-family="Helvetica,sans-Serif" font-size="10.00">xtlock_create</text>
</a>
</g>
</g>
<!-- Node438&#45;&gt;Node439 -->
<g id="edge1" class="edge"><title>Node438&#45;&gt;Node439</title>
<path fill="none" stroke="midnightblue" d="M31.0634,-114.732C39.9769,-130.911 60.0141,-163.309 86,-181 90.316,-183.938 95.0988,-186.433 100.044,-188.549"/>
<polygon fill="midnightblue" stroke="midnightblue" points="99.0832,-191.926 109.675,-192.168 101.546,-185.374 99.0832,-191.926"/>
</g>
<!-- Node440 -->
<g id="node3" class="node"><title>Node440</title>
<g id="a_node3"><a xlink:href="crc_8c.xhtml#a5a735798e6972adc694a5428dd7ccaf9" target="_top" xlink:title="crcInit">
<polygon fill="white" stroke="black" points="127.5,-152.5 127.5,-171.5 172.5,-171.5 172.5,-152.5 127.5,-152.5"/>
<text text-anchor="middle" x="150" y="-159.5" font-family="Helvetica,sans-Serif" font-size="10.00">crcInit</text>
</a>
</g>
</g>
<!-- Node438&#45;&gt;Node440 -->
<g id="edge2" class="edge"><title>Node438&#45;&gt;Node440</title>
<path fill="none" stroke="midnightblue" d="M38.7603,-114.531C50.5256,-122.958 68.7303,-135.106 86,-143 95.9745,-147.559 107.327,-151.371 117.622,-154.355"/>
<polygon fill="midnightblue" stroke="midnightblue" points="116.905,-157.787 127.474,-157.059 118.758,-151.037 116.905,-157.787"/>
</g>
<!-- Node441 -->
<g id="node4" class="node"><title>Node441</title>
<g id="a_node4"><a xlink:href="xep__hal_8h.xhtml#a1fac657ee93738242d05ad86ceb17260" target="_top" xlink:title="Gets the flash block size. ">
<polygon fill="white" stroke="black" points="95.5,-114.5 95.5,-133.5 204.5,-133.5 204.5,-114.5 95.5,-114.5"/>
<text text-anchor="middle" x="150" y="-121.5" font-family="Helvetica,sans-Serif" font-size="10.00">xtio_get_block_size</text>
</a>
</g>
</g>
<!-- Node438&#45;&gt;Node441 -->
<g id="edge3" class="edge"><title>Node438&#45;&gt;Node441</title>
<path fill="none" stroke="midnightblue" d="M50.0076,-108.708C60.2132,-110.285 72.6463,-112.206 85.207,-114.146"/>
<polygon fill="midnightblue" stroke="midnightblue" points="84.8506,-117.632 95.2678,-115.7 85.9193,-110.714 84.8506,-117.632"/>
</g>
<!-- Node442 -->
<g id="node5" class="node"><title>Node442</title>
<g id="a_node5"><a xlink:href="xtmemory_8h.xhtml#a6865e14d8f1f60f5c34807e4c1a990a7" target="_top" xlink:title="Allocate memory from slow location. ">
<polygon fill="white" stroke="red" points="86,-76.5 86,-95.5 214,-95.5 214,-76.5 86,-76.5"/>
<text text-anchor="middle" x="150" y="-83.5" font-family="Helvetica,sans-Serif" font-size="10.00">xtmemory_malloc_slow</text>
</a>
</g>
</g>
<!-- Node438&#45;&gt;Node442 -->
<g id="edge4" class="edge"><title>Node438&#45;&gt;Node442</title>
<path fill="none" stroke="midnightblue" d="M50.0076,-101.292C58.0825,-100.044 67.5519,-98.5814 77.3756,-97.0639"/>
<polygon fill="midnightblue" stroke="midnightblue" points="77.9306,-100.52 87.279,-95.5341 76.8619,-93.6019 77.9306,-100.52"/>
</g>
<!-- Node456 -->
<g id="node6" class="node"><title>Node456</title>
<g id="a_node6"><a xlink:href="xfs_8c.xhtml#ad61db31cb6bd0341f2a43b173efffced" target="_top" xlink:title="xfs_check_integrity">
<polygon fill="white" stroke="red" points="96.5,-38.5 96.5,-57.5 203.5,-57.5 203.5,-38.5 96.5,-38.5"/>
<text text-anchor="middle" x="150" y="-45.5" font-family="Helvetica,sans-Serif" font-size="10.00">xfs_check_integrity</text>
</a>
</g>
</g>
<!-- Node438&#45;&gt;Node456 -->
<g id="edge5" class="edge"><title>Node438&#45;&gt;Node456</title>
<path fill="none" stroke="midnightblue" d="M38.7603,-95.469C50.5256,-87.0418 68.7303,-74.8939 86,-67 91.0002,-64.7144 96.3469,-62.6167 101.733,-60.717"/>
<polygon fill="midnightblue" stroke="midnightblue" points="103.012,-63.9804 111.404,-57.5136 100.811,-57.3354 103.012,-63.9804"/>
</g>
<!-- Node458 -->
<g id="node7" class="node"><title>Node458</title>
<g id="a_node7"><a xlink:href="xfs_8c.xhtml#a975b6f2d064a2205832dfc2b7e0b7799" target="_top" xlink:title="Formats the file system to an empty state. ">
<polygon fill="white" stroke="red" points="116,-0.5 116,-19.5 184,-19.5 184,-0.5 116,-0.5"/>
<text text-anchor="middle" x="150" y="-7.5" font-family="Helvetica,sans-Serif" font-size="10.00">xfs_format</text>
</a>
</g>
</g>
<!-- Node438&#45;&gt;Node458 -->
<g id="edge6" class="edge"><title>Node438&#45;&gt;Node458</title>
<path fill="none" stroke="midnightblue" d="M31.0634,-95.2682C39.9769,-79.0888 60.0141,-46.6907 86,-29 92.1028,-24.8453 99.1392,-21.5775 106.249,-19.0134"/>
<polygon fill="midnightblue" stroke="midnightblue" points="107.443,-22.3065 115.909,-15.9361 105.318,-15.6367 107.443,-22.3065"/>
</g>
</g>
</svg>
