<?xml version="1.0" encoding="UTF-8" standalone="no"?>
<!DOCTYPE svg PUBLIC "-//W3C//DTD SVG 1.1//EN"
 "http://www.w3.org/Graphics/SVG/1.1/DTD/svg11.dtd">
<!-- Generated by graphviz version 2.38.0 (20140413.2041)
 -->
<!-- Title: xfs_create_file Pages: 1 -->
<svg width="258pt" height="88pt"
 viewBox="0.00 0.00 258.00 88.00" xmlns="http://www.w3.org/2000/svg" xmlns:xlink="http://www.w3.org/1999/xlink">
<g id="graph0" class="graph" transform="scale(1 1) rotate(0) translate(4 84)">
<title>xfs_create_file</title>
<polygon fill="white" stroke="none" points="-4,4 -4,-84 254,-84 254,4 -4,4"/>
<!-- Node85 -->
<g id="node1" class="node"><title>Node85</title>
<polygon fill="#bfbfbf" stroke="black" points="0,-30 0,-49 85,-49 85,-30 0,-30"/>
<text text-anchor="middle" x="42.5" y="-37" font-family="Helvetica,sans-Serif" font-size="10.00">xfs_create_file</text>
</g>
<!-- Node86 -->
<g id="node2" class="node"><title>Node86</title>
<g id="a_node2"><a xlink:href="xtfile_8c.xhtml#aab3ec81dba994ab42e047561a13c5e27" target="_top" xlink:title="Creates and opens a new file with given type and identifiers with an empty content of given size...">
<polygon fill="white" stroke="red" points="121.5,-49.5 121.5,-79.5 249.5,-79.5 249.5,-49.5 121.5,-49.5"/>
<text text-anchor="start" x="129.5" y="-67.5" font-family="Helvetica,sans-Serif" font-size="10.00">xtfile_create_and_open</text>
<text text-anchor="middle" x="185.5" y="-56.5" font-family="Helvetica,sans-Serif" font-size="10.00">_empty</text>
</a>
</g>
</g>
<!-- Node85&#45;&gt;Node86 -->
<g id="edge1" class="edge"><title>Node85&#45;&gt;Node86</title>
<path fill="none" stroke="midnightblue" d="M94.8928,-48.6122C103.473,-50.1335 112.461,-51.7271 121.295,-53.2934"/>
<polygon fill="midnightblue" stroke="midnightblue" points="95.4995,-45.1653 85.042,-46.8656 94.2774,-52.0578 95.4995,-45.1653"/>
</g>
<!-- Node92 -->
<g id="node3" class="node"><title>Node92</title>
<g id="a_node3"><a xlink:href="xthousekeeping_8c.xhtml#ad5a7723fb96e5789fa7ecb2554da3b04" target="_top" xlink:title="xthousekeeping_trigger\l_crashdump">
<polygon fill="white" stroke="red" points="121,-0.5 121,-30.5 250,-30.5 250,-0.5 121,-0.5"/>
<text text-anchor="start" x="129" y="-18.5" font-family="Helvetica,sans-Serif" font-size="10.00">xthousekeeping_trigger</text>
<text text-anchor="middle" x="185.5" y="-7.5" font-family="Helvetica,sans-Serif" font-size="10.00">_crashdump</text>
</a>
</g>
</g>
<!-- Node85&#45;&gt;Node92 -->
<g id="edge2" class="edge"><title>Node85&#45;&gt;Node92</title>
<path fill="none" stroke="midnightblue" d="M95.0247,-30.7298C103.394,-29.3052 112.149,-27.815 120.768,-26.348"/>
<polygon fill="midnightblue" stroke="midnightblue" points="94.3129,-27.3006 85.042,-32.429 95.4876,-34.2013 94.3129,-27.3006"/>
</g>
</g>
</svg>
