<?xml version="1.0" encoding="UTF-8" standalone="no"?>
<!DOCTYPE svg PUBLIC "-//W3C//DTD SVG 1.1//EN"
 "http://www.w3.org/Graphics/SVG/1.1/DTD/svg11.dtd">
<!-- Generated by graphviz version 2.38.0 (20140413.2041)
 -->
<!-- Title: src/System/File/xfs.h Pages: 1 -->
<svg width="575pt" height="95pt"
 viewBox="0.00 0.00 575.00 95.00" xmlns="http://www.w3.org/2000/svg" xmlns:xlink="http://www.w3.org/1999/xlink">
<g id="graph0" class="graph" transform="scale(1 1) rotate(0) translate(4 91)">
<title>src/System/File/xfs.h</title>
<polygon fill="white" stroke="none" points="-4,4 -4,-91 571,-91 571,4 -4,4"/>
<!-- Node4 -->
<g id="node1" class="node"><title>Node4</title>
<polygon fill="#bfbfbf" stroke="black" points="210.5,-67.5 210.5,-86.5 324.5,-86.5 324.5,-67.5 210.5,-67.5"/>
<text text-anchor="middle" x="267.5" y="-74.5" font-family="Helvetica,sans-Serif" font-size="10.00">src/System/File/xfs.h</text>
</g>
<!-- Node5 -->
<g id="node2" class="node"><title>Node5</title>
<g id="a_node2"><a xlink:href="xfs_8c.xhtml" target="_top" xlink:title="src/System/File/xfs.c">
<polygon fill="white" stroke="black" points="0,-6 0,-25 113,-25 113,-6 0,-6"/>
<text text-anchor="middle" x="56.5" y="-13" font-family="Helvetica,sans-Serif" font-size="10.00">src/System/File/xfs.c</text>
</a>
</g>
</g>
<!-- Node4&#45;&gt;Node5 -->
<g id="edge1" class="edge"><title>Node4&#45;&gt;Node5</title>
<path fill="none" stroke="midnightblue" d="M227.602,-64.7493C186.609,-53.1894 123.705,-35.4511 86.6751,-25.0091"/>
<polygon fill="midnightblue" stroke="midnightblue" points="226.694,-68.1296 237.269,-67.4751 228.594,-61.3923 226.694,-68.1296"/>
</g>
<!-- Node6 -->
<g id="node3" class="node"><title>Node6</title>
<g id="a_node3"><a xlink:href="xtfile_8c.xhtml" target="_top" xlink:title="src/System/File/xtfile.c">
<polygon fill="white" stroke="black" points="131.5,-6 131.5,-25 253.5,-25 253.5,-6 131.5,-6"/>
<text text-anchor="middle" x="192.5" y="-13" font-family="Helvetica,sans-Serif" font-size="10.00">src/System/File/xtfile.c</text>
</a>
</g>
</g>
<!-- Node4&#45;&gt;Node6 -->
<g id="edge2" class="edge"><title>Node4&#45;&gt;Node6</title>
<path fill="none" stroke="midnightblue" d="M248.558,-60.9727C234.213,-49.5925 215.024,-34.3694 203.226,-25.0091"/>
<polygon fill="midnightblue" stroke="midnightblue" points="246.745,-64.002 256.754,-67.4751 251.095,-58.5181 246.745,-64.002"/>
</g>
<!-- Node7 -->
<g id="node4" class="node"><title>Node7</title>
<g id="a_node4"><a xlink:href="xthousekeeping_8c.xhtml" target="_top" xlink:title="src/System/Housekeeping\l/xthousekeeping.c">
<polygon fill="white" stroke="black" points="271.5,-0.5 271.5,-30.5 413.5,-30.5 413.5,-0.5 271.5,-0.5"/>
<text text-anchor="start" x="279.5" y="-18.5" font-family="Helvetica,sans-Serif" font-size="10.00">src/System/Housekeeping</text>
<text text-anchor="middle" x="342.5" y="-7.5" font-family="Helvetica,sans-Serif" font-size="10.00">/xthousekeeping.c</text>
</a>
</g>
</g>
<!-- Node4&#45;&gt;Node7 -->
<g id="edge3" class="edge"><title>Node4&#45;&gt;Node7</title>
<path fill="none" stroke="midnightblue" d="M286.161,-61.1955C297.988,-51.8129 313.192,-39.7512 324.824,-30.523"/>
<polygon fill="midnightblue" stroke="midnightblue" points="283.905,-58.5181 278.246,-67.4751 288.255,-64.002 283.905,-58.5181"/>
</g>
<!-- Node8 -->
<g id="node5" class="node"><title>Node8</title>
<g id="a_node5"><a xlink:href="xep__application__mcp__callbacks_8c.xhtml" target="_top" xlink:title="src/XEPA/xep_application\l_mcp_callbacks.c">
<polygon fill="white" stroke="black" points="432,-0.5 432,-30.5 567,-30.5 567,-0.5 432,-0.5"/>
<text text-anchor="start" x="440" y="-18.5" font-family="Helvetica,sans-Serif" font-size="10.00">src/XEPA/xep_application</text>
<text text-anchor="middle" x="499.5" y="-7.5" font-family="Helvetica,sans-Serif" font-size="10.00">_mcp_callbacks.c</text>
</a>
</g>
</g>
<!-- Node4&#45;&gt;Node8 -->
<g id="edge4" class="edge"><title>Node4&#45;&gt;Node8</title>
<path fill="none" stroke="midnightblue" d="M310.456,-64.9834C348.349,-55.2651 403.774,-41.0503 444.822,-30.523"/>
<polygon fill="midnightblue" stroke="midnightblue" points="309.557,-61.6005 300.74,-67.4751 311.296,-68.381 309.557,-61.6005"/>
</g>
</g>
</svg>
