<?xml version="1.0" encoding="UTF-8" standalone="no"?>
<!DOCTYPE svg PUBLIC "-//W3C//DTD SVG 1.1//EN"
 "http://www.w3.org/Graphics/SVG/1.1/DTD/svg11.dtd">
<!-- Generated by graphviz version 2.38.0 (20140413.2041)
 -->
<!-- Title: src/System/File/xfs.c Pages: 1 -->
<svg width="545pt" height="84pt"
 viewBox="0.00 0.00 545.00 84.00" xmlns="http://www.w3.org/2000/svg" xmlns:xlink="http://www.w3.org/1999/xlink">
<g id="graph0" class="graph" transform="scale(1 1) rotate(0) translate(4 80)">
<title>src/System/File/xfs.c</title>
<polygon fill="white" stroke="none" points="-4,4 -4,-80 541,-80 541,4 -4,4"/>
<!-- Node0 -->
<g id="node1" class="node"><title>Node0</title>
<polygon fill="#bfbfbf" stroke="black" points="176,-56.5 176,-75.5 289,-75.5 289,-56.5 176,-56.5"/>
<text text-anchor="middle" x="232.5" y="-63.5" font-family="Helvetica,sans-Serif" font-size="10.00">src/System/File/xfs.c</text>
</g>
<!-- Node1 -->
<g id="node2" class="node"><title>Node1</title>
<g id="a_node2"><a xlink:href="xfs_8h.xhtml" target="_top" xlink:title="xfs.h">
<polygon fill="white" stroke="red" points="0,-0.5 0,-19.5 39,-19.5 39,-0.5 0,-0.5"/>
<text text-anchor="middle" x="19.5" y="-7.5" font-family="Helvetica,sans-Serif" font-size="10.00">xfs.h</text>
</a>
</g>
</g>
<!-- Node0&#45;&gt;Node1 -->
<g id="edge1" class="edge"><title>Node0&#45;&gt;Node1</title>
<path fill="none" stroke="midnightblue" d="M194.619,-56.4484C159.336,-48.3252 105.072,-35.4306 48.8766,-19.9712"/>
<polygon fill="midnightblue" stroke="midnightblue" points="49.6792,-16.5618 39.1076,-17.2629 47.809,-23.3073 49.6792,-16.5618"/>
</g>
<!-- Node5 -->
<g id="node3" class="node"><title>Node5</title>
<g id="a_node3"><a xlink:href="crc_8h.xhtml" target="_top" xlink:title="crc.h">
<polygon fill="white" stroke="black" points="57.5,-0.5 57.5,-19.5 97.5,-19.5 97.5,-0.5 57.5,-0.5"/>
<text text-anchor="middle" x="77.5" y="-7.5" font-family="Helvetica,sans-Serif" font-size="10.00">crc.h</text>
</a>
</g>
</g>
<!-- Node0&#45;&gt;Node5 -->
<g id="edge2" class="edge"><title>Node0&#45;&gt;Node5</title>
<path fill="none" stroke="midnightblue" d="M207.94,-56.4435C180.603,-46.9198 136.433,-31.5314 107.182,-21.3407"/>
<polygon fill="midnightblue" stroke="midnightblue" points="108.104,-17.9558 97.5093,-17.971 105.801,-24.5661 108.104,-17.9558"/>
</g>
<!-- Node6 -->
<g id="node4" class="node"><title>Node6</title>
<g id="a_node4"><a xlink:href="xep__hal_8h.xhtml" target="_top" xlink:title="Brief description. ">
<polygon fill="white" stroke="red" points="115.5,-0.5 115.5,-19.5 177.5,-19.5 177.5,-0.5 115.5,-0.5"/>
<text text-anchor="middle" x="146.5" y="-7.5" font-family="Helvetica,sans-Serif" font-size="10.00">xep_hal.h</text>
</a>
</g>
</g>
<!-- Node0&#45;&gt;Node6 -->
<g id="edge3" class="edge"><title>Node0&#45;&gt;Node6</title>
<path fill="none" stroke="midnightblue" d="M218.683,-56.324C205.267,-47.9002 184.676,-34.9709 168.914,-25.0741"/>
<polygon fill="midnightblue" stroke="midnightblue" points="170.613,-22.0081 160.283,-19.6545 166.891,-27.9364 170.613,-22.0081"/>
</g>
<!-- Node7 -->
<g id="node5" class="node"><title>Node7</title>
<g id="a_node5"><a xlink:href="xtmemory_8h.xhtml" target="_top" xlink:title="Platform independent mutex mechanism. ">
<polygon fill="white" stroke="red" points="195.5,-0.5 195.5,-19.5 269.5,-19.5 269.5,-0.5 195.5,-0.5"/>
<text text-anchor="middle" x="232.5" y="-7.5" font-family="Helvetica,sans-Serif" font-size="10.00">xtmemory.h</text>
</a>
</g>
</g>
<!-- Node0&#45;&gt;Node7 -->
<g id="edge4" class="edge"><title>Node0&#45;&gt;Node7</title>
<path fill="none" stroke="midnightblue" d="M232.5,-56.083C232.5,-49.0059 232.5,-38.8611 232.5,-29.9865"/>
<polygon fill="midnightblue" stroke="midnightblue" points="236,-29.751 232.5,-19.7511 229,-29.7511 236,-29.751"/>
</g>
<!-- Node8 -->
<g id="node6" class="node"><title>Node8</title>
<g id="a_node6"><a xlink:href="xtsemaphore_8h.xhtml" target="_top" xlink:title="Platform independent mutex mechanism. ">
<polygon fill="white" stroke="red" points="288,-0.5 288,-19.5 377,-19.5 377,-0.5 288,-0.5"/>
<text text-anchor="middle" x="332.5" y="-7.5" font-family="Helvetica,sans-Serif" font-size="10.00">xtsemaphore.h</text>
</a>
</g>
</g>
<!-- Node0&#45;&gt;Node8 -->
<g id="edge5" class="edge"><title>Node0&#45;&gt;Node8</title>
<path fill="none" stroke="midnightblue" d="M248.567,-56.324C264.458,-47.7428 289.007,-34.486 307.458,-24.5224"/>
<polygon fill="midnightblue" stroke="midnightblue" points="309.337,-27.4857 316.473,-19.6545 306.011,-21.3264 309.337,-27.4857"/>
</g>
<!-- Node9 -->
<g id="node7" class="node"><title>Node9</title>
<polygon fill="white" stroke="#bfbfbf" points="395,-0.5 395,-19.5 466,-19.5 466,-0.5 395,-0.5"/>
<text text-anchor="middle" x="430.5" y="-7.5" font-family="Helvetica,sans-Serif" font-size="10.00">FreeRTOS.h</text>
</g>
<!-- Node0&#45;&gt;Node9 -->
<g id="edge6" class="edge"><title>Node0&#45;&gt;Node9</title>
<path fill="none" stroke="midnightblue" d="M263.874,-56.4435C297.763,-47.2011 351.903,-32.4356 389.224,-22.2572"/>
<polygon fill="midnightblue" stroke="midnightblue" points="390.546,-25.5243 399.273,-19.5164 388.705,-18.771 390.546,-25.5243"/>
</g>
<!-- Node10 -->
<g id="node8" class="node"><title>Node10</title>
<polygon fill="white" stroke="#bfbfbf" points="484,-0.5 484,-19.5 537,-19.5 537,-0.5 484,-0.5"/>
<text text-anchor="middle" x="510.5" y="-7.5" font-family="Helvetica,sans-Serif" font-size="10.00">string.h</text>
</g>
<!-- Node0&#45;&gt;Node10 -->
<g id="edge7" class="edge"><title>Node0&#45;&gt;Node10</title>
<path fill="none" stroke="midnightblue" d="M284.377,-56.4541C331.502,-48.452 403.141,-35.6936 473.827,-20.2635"/>
<polygon fill="midnightblue" stroke="midnightblue" points="474.779,-23.6378 483.792,-18.0687 473.273,-16.8016 474.779,-23.6378"/>
</g>
</g>
</svg>
