<?xml version="1.0" encoding="UTF-8" standalone="no"?>
<!DOCTYPE svg PUBLIC "-//W3C//DTD SVG 1.1//EN"
 "http://www.w3.org/Graphics/SVG/1.1/DTD/svg11.dtd">
<!-- Generated by graphviz version 2.38.0 (20140413.2041)
 -->
<!-- Title: xfs_get_file_pointer Pages: 1 -->
<svg width="281pt" height="78pt"
 viewBox="0.00 0.00 281.00 77.50" xmlns="http://www.w3.org/2000/svg" xmlns:xlink="http://www.w3.org/1999/xlink">
<g id="graph0" class="graph" transform="scale(1 1) rotate(0) translate(4 73.5)">
<title>xfs_get_file_pointer</title>
<polygon fill="white" stroke="none" points="-4,4 -4,-73.5 277,-73.5 277,4 -4,4"/>
<!-- Node212 -->
<g id="node1" class="node"><title>Node212</title>
<polygon fill="#bfbfbf" stroke="black" points="0,-22.5 0,-41.5 109,-41.5 109,-22.5 0,-22.5"/>
<text text-anchor="middle" x="54.5" y="-29.5" font-family="Helvetica,sans-Serif" font-size="10.00">xfs_get_file_pointer</text>
</g>
<!-- Node213 -->
<g id="node2" class="node"><title>Node213</title>
<g id="a_node2"><a xlink:href="xtfile_8c.xhtml#aab3ec81dba994ab42e047561a13c5e27" target="_top" xlink:title="Creates and opens a new file with given type and identifiers with an empty content of given size...">
<polygon fill="white" stroke="red" points="145,-39 145,-69 273,-69 273,-39 145,-39"/>
<text text-anchor="start" x="153" y="-57" font-family="Helvetica,sans-Serif" font-size="10.00">xtfile_create_and_open</text>
<text text-anchor="middle" x="209" y="-46" font-family="Helvetica,sans-Serif" font-size="10.00">_empty</text>
</a>
</g>
</g>
<!-- Node212&#45;&gt;Node213 -->
<g id="edge1" class="edge"><title>Node212&#45;&gt;Node213</title>
<path fill="none" stroke="midnightblue" d="M119.39,-41.2169C127.796,-42.4297 136.409,-43.6722 144.804,-44.8833"/>
<polygon fill="midnightblue" stroke="midnightblue" points="119.663,-37.7202 109.266,-39.7564 118.664,-44.6484 119.663,-37.7202"/>
</g>
<!-- Node219 -->
<g id="node3" class="node"><title>Node219</title>
<g id="a_node3"><a xlink:href="xtfile_8c.xhtml#ade819cbf4de9ee15f62317e3bf84fed6" target="_top" xlink:title="Opens an existing file with given type and identifier. ">
<polygon fill="white" stroke="red" points="175,-0.5 175,-19.5 243,-19.5 243,-0.5 175,-0.5"/>
<text text-anchor="middle" x="209" y="-7.5" font-family="Helvetica,sans-Serif" font-size="10.00">xtfile_open</text>
</a>
</g>
</g>
<!-- Node212&#45;&gt;Node219 -->
<g id="edge2" class="edge"><title>Node212&#45;&gt;Node219</title>
<path fill="none" stroke="midnightblue" d="M119.379,-22.7846C138.379,-20.0437 158.431,-17.1509 174.647,-14.8116"/>
<polygon fill="midnightblue" stroke="midnightblue" points="118.664,-19.3516 109.266,-24.2436 119.663,-26.2798 118.664,-19.3516"/>
</g>
</g>
</svg>
