<?xml version="1.0" encoding="UTF-8" standalone="no"?>
<!DOCTYPE svg PUBLIC "-//W3C//DTD SVG 1.1//EN"
 "http://www.w3.org/Graphics/SVG/1.1/DTD/svg11.dtd">
<!-- Generated by graphviz version 2.38.0 (20140413.2041)
 -->
<!-- Title: xfs_commit_file Pages: 1 -->
<svg width="348pt" height="78pt"
 viewBox="0.00 0.00 348.00 77.92" xmlns="http://www.w3.org/2000/svg" xmlns:xlink="http://www.w3.org/1999/xlink">
<g id="graph0" class="graph" transform="scale(1 1) rotate(0) translate(4 73.9174)">
<title>xfs_commit_file</title>
<polygon fill="white" stroke="none" points="-4,4 -4,-73.9174 344,-73.9174 344,4 -4,4"/>
<!-- Node29 -->
<g id="node1" class="node"><title>Node29</title>
<polygon fill="#bfbfbf" stroke="black" points="0,-38.5 0,-57.5 91,-57.5 91,-38.5 0,-38.5"/>
<text text-anchor="middle" x="45.5" y="-45.5" font-family="Helvetica,sans-Serif" font-size="10.00">xfs_commit_file</text>
</g>
<!-- Node30 -->
<g id="node2" class="node"><title>Node30</title>
<g id="a_node2"><a xlink:href="xfs_8c.xhtml#a3a9d53e8866064398160e53b6a7aff04" target="_top" xlink:title="xfs_get_file_entry">
<polygon fill="white" stroke="red" points="240,-38.5 240,-57.5 340,-57.5 340,-38.5 240,-38.5"/>
<text text-anchor="middle" x="290" y="-45.5" font-family="Helvetica,sans-Serif" font-size="10.00">xfs_get_file_entry</text>
</a>
</g>
</g>
<!-- Node29&#45;&gt;Node30 -->
<g id="edge1" class="edge"><title>Node29&#45;&gt;Node30</title>
<path fill="none" stroke="midnightblue" d="M79.0938,-57.5067C93.6199,-61.2711 111.025,-65.1403 127,-67 160.993,-70.9572 169.984,-70.7554 204,-67 217.283,-65.5336 231.524,-62.8153 244.48,-59.8843"/>
<polygon fill="midnightblue" stroke="midnightblue" points="245.622,-63.2109 254.551,-57.5079 244.015,-56.398 245.622,-63.2109"/>
</g>
<!-- Node36 -->
<g id="node3" class="node"><title>Node36</title>
<g id="a_node3"><a xlink:href="xfs_8c.xhtml#a1944fe2fe57fccee85079970b8f38432" target="_top" xlink:title="Clears the flash area used to store file data. ">
<polygon fill="white" stroke="red" points="127,-38.5 127,-57.5 204,-57.5 204,-38.5 127,-38.5"/>
<text text-anchor="middle" x="165.5" y="-45.5" font-family="Helvetica,sans-Serif" font-size="10.00">xfs_clear_file</text>
</a>
</g>
</g>
<!-- Node29&#45;&gt;Node36 -->
<g id="edge2" class="edge"><title>Node29&#45;&gt;Node36</title>
<path fill="none" stroke="midnightblue" d="M91.1107,-48C99.4626,-48 108.224,-48 116.669,-48"/>
<polygon fill="midnightblue" stroke="midnightblue" points="116.764,-51.5001 126.763,-48 116.763,-44.5001 116.764,-51.5001"/>
</g>
<!-- Node45 -->
<g id="node4" class="node"><title>Node45</title>
<g id="a_node4"><a xlink:href="xfs_8c.xhtml#a9fadb27c69014a6f606f00781d0c24e5" target="_top" xlink:title="Writes the file data to flash at given offset. ">
<polygon fill="white" stroke="red" points="127,-0.5 127,-19.5 204,-19.5 204,-0.5 127,-0.5"/>
<text text-anchor="middle" x="165.5" y="-7.5" font-family="Helvetica,sans-Serif" font-size="10.00">xfs_write_file</text>
</a>
</g>
</g>
<!-- Node29&#45;&gt;Node45 -->
<g id="edge4" class="edge"><title>Node29&#45;&gt;Node45</title>
<path fill="none" stroke="midnightblue" d="M76.2764,-38.411C91.0898,-33.6406 109.191,-27.8112 125.134,-22.6771"/>
<polygon fill="midnightblue" stroke="midnightblue" points="126.287,-25.9828 134.733,-19.5859 124.142,-19.3198 126.287,-25.9828"/>
</g>
<!-- Node36&#45;&gt;Node30 -->
<g id="edge3" class="edge"><title>Node36&#45;&gt;Node30</title>
<path fill="none" stroke="midnightblue" d="M204.254,-48C212.338,-48 221.066,-48 229.741,-48"/>
<polygon fill="midnightblue" stroke="midnightblue" points="229.858,-51.5001 239.858,-48 229.858,-44.5001 229.858,-51.5001"/>
</g>
<!-- Node45&#45;&gt;Node30 -->
<g id="edge5" class="edge"><title>Node45&#45;&gt;Node30</title>
<path fill="none" stroke="midnightblue" d="M197.412,-19.589C212.79,-24.3594 231.582,-30.1888 248.133,-35.3229"/>
<polygon fill="midnightblue" stroke="midnightblue" points="247.51,-38.7941 258.098,-38.4141 249.584,-32.1084 247.51,-38.7941"/>
</g>
</g>
</svg>
