<?xml version="1.0" encoding="UTF-8" standalone="no"?>
<!DOCTYPE svg PUBLIC "-//W3C//DTD SVG 1.1//EN"
 "http://www.w3.org/Graphics/SVG/1.1/DTD/svg11.dtd">
<!-- Generated by graphviz version 2.38.0 (20140413.2041)
 -->
<!-- Title: xfs_get_file_data Pages: 1 -->
<svg width="241pt" height="78pt"
 viewBox="0.00 0.00 241.00 77.50" xmlns="http://www.w3.org/2000/svg" xmlns:xlink="http://www.w3.org/1999/xlink">
<g id="graph0" class="graph" transform="scale(1 1) rotate(0) translate(4 73.5)">
<title>xfs_get_file_data</title>
<polygon fill="white" stroke="none" points="-4,4 -4,-73.5 237,-73.5 237,4 -4,4"/>
<!-- Node333 -->
<g id="node1" class="node"><title>Node333</title>
<polygon fill="#bfbfbf" stroke="black" points="0,-28 0,-47 97,-47 97,-28 0,-28"/>
<text text-anchor="middle" x="48.5" y="-35" font-family="Helvetica,sans-Serif" font-size="10.00">xfs_get_file_data</text>
</g>
<!-- Node334 -->
<g id="node2" class="node"><title>Node334</title>
<g id="a_node2"><a xlink:href="xfs_8c.xhtml#a3a9d53e8866064398160e53b6a7aff04" target="_top" xlink:title="xfs_get_file_entry">
<polygon fill="white" stroke="red" points="133,-50 133,-69 233,-69 233,-50 133,-50"/>
<text text-anchor="middle" x="183" y="-57" font-family="Helvetica,sans-Serif" font-size="10.00">xfs_get_file_entry</text>
</a>
</g>
</g>
<!-- Node333&#45;&gt;Node334 -->
<g id="edge1" class="edge"><title>Node333&#45;&gt;Node334</title>
<path fill="none" stroke="midnightblue" d="M97.3355,-45.4425C105.647,-46.8225 114.379,-48.2723 122.948,-49.6951"/>
<polygon fill="midnightblue" stroke="midnightblue" points="122.459,-53.1618 132.897,-51.3471 123.606,-46.2563 122.459,-53.1618"/>
</g>
<!-- Node340 -->
<g id="node3" class="node"><title>Node340</title>
<g id="a_node3"><a xlink:href="xfs_8c.xhtml#a62712def95e9851bb81044cf738116fb" target="_top" xlink:title="xfs_file_offset_to\l_pointer">
<polygon fill="white" stroke="black" points="135,-0.5 135,-30.5 231,-30.5 231,-0.5 135,-0.5"/>
<text text-anchor="start" x="143" y="-18.5" font-family="Helvetica,sans-Serif" font-size="10.00">xfs_file_offset_to</text>
<text text-anchor="middle" x="183" y="-7.5" font-family="Helvetica,sans-Serif" font-size="10.00">_pointer</text>
</a>
</g>
</g>
<!-- Node333&#45;&gt;Node340 -->
<g id="edge2" class="edge"><title>Node333&#45;&gt;Node340</title>
<path fill="none" stroke="midnightblue" d="M97.3355,-29.5575C106.168,-28.0909 115.475,-26.5456 124.558,-25.0376"/>
<polygon fill="midnightblue" stroke="midnightblue" points="125.387,-28.4479 134.679,-23.3571 124.241,-21.5424 125.387,-28.4479"/>
</g>
</g>
</svg>
