<?xml version="1.0" encoding="UTF-8" standalone="no"?>
<!DOCTYPE svg PUBLIC "-//W3C//DTD SVG 1.1//EN"
 "http://www.w3.org/Graphics/SVG/1.1/DTD/svg11.dtd">
<!-- Generated by graphviz version 2.38.0 (20140413.2041)
 -->
<!-- Title: xt_config_init Pages: 1 -->
<svg width="241pt" height="66pt"
 viewBox="0.00 0.00 241.00 66.00" xmlns="http://www.w3.org/2000/svg" xmlns:xlink="http://www.w3.org/1999/xlink">
<g id="graph0" class="graph" transform="scale(1 1) rotate(0) translate(4 62)">
<title>xt_config_init</title>
<polygon fill="white" stroke="none" points="-4,4 -4,-62 237,-62 237,4 -4,4"/>
<!-- Node8 -->
<g id="node1" class="node"><title>Node8</title>
<polygon fill="#bfbfbf" stroke="black" points="0,-19.5 0,-38.5 79,-38.5 79,-19.5 0,-19.5"/>
<text text-anchor="middle" x="39.5" y="-26.5" font-family="Helvetica,sans-Serif" font-size="10.00">xt_config_init</text>
</g>
<!-- Node9 -->
<g id="node2" class="node"><title>Node9</title>
<g id="a_node2"><a xlink:href="startup__sams70_8c.xhtml#a7cecd108fd88dec10ce2e97ad905e4ef" target="_top" xlink:title="Performs the low&#45;level initialization of the chip. ">
<polygon fill="white" stroke="red" points="137,-38.5 137,-57.5 211,-57.5 211,-38.5 137,-38.5"/>
<text text-anchor="middle" x="174" y="-45.5" font-family="Helvetica,sans-Serif" font-size="10.00">LowLevelInit</text>
</a>
</g>
</g>
<!-- Node8&#45;&gt;Node9 -->
<g id="edge1" class="edge"><title>Node8&#45;&gt;Node9</title>
<path fill="none" stroke="midnightblue" d="M89.2662,-35.9929C104.986,-38.247 122.12,-40.704 136.771,-42.8048"/>
<polygon fill="midnightblue" stroke="midnightblue" points="89.5763,-32.5016 79.1807,-34.5467 88.5826,-39.4308 89.5763,-32.5016"/>
</g>
<!-- Node11 -->
<g id="node3" class="node"><title>Node11</title>
<g id="a_node3"><a xlink:href="xt__selftest_8c.xhtml#a104dcebeb73788d9b8f7733ab672eb14" target="_top" xlink:title="xt_selftest_hw_config">
<polygon fill="white" stroke="red" points="115,-0.5 115,-19.5 233,-19.5 233,-0.5 115,-0.5"/>
<text text-anchor="middle" x="174" y="-7.5" font-family="Helvetica,sans-Serif" font-size="10.00">xt_selftest_hw_config</text>
</a>
</g>
</g>
<!-- Node8&#45;&gt;Node11 -->
<g id="edge2" class="edge"><title>Node8&#45;&gt;Node11</title>
<path fill="none" stroke="midnightblue" d="M89.1304,-22.0266C97.4835,-20.8288 106.24,-19.5732 114.813,-18.3438"/>
<polygon fill="midnightblue" stroke="midnightblue" points="88.5826,-18.5692 79.1807,-23.4533 89.5763,-25.4984 88.5826,-18.5692"/>
</g>
</g>
</svg>
