<?xml version="1.0" encoding="UTF-8" standalone="no"?>
<!DOCTYPE svg PUBLIC "-//W3C//DTD SVG 1.1//EN"
 "http://www.w3.org/Graphics/SVG/1.1/DTD/svg11.dtd">
<!-- Generated by graphviz version 2.38.0 (20140413.2041)
 -->
<!-- Title: src/hal/x4m0x_s70/xt_selftest.c Pages: 1 -->
<svg width="629pt" height="151pt"
 viewBox="0.00 0.00 629.50 151.00" xmlns="http://www.w3.org/2000/svg" xmlns:xlink="http://www.w3.org/1999/xlink">
<g id="graph0" class="graph" transform="scale(1 1) rotate(0) translate(4 147)">
<title>src/hal/x4m0x_s70/xt_selftest.c</title>
<polygon fill="white" stroke="none" points="-4,4 -4,-147 625.499,-147 625.499,4 -4,4"/>
<!-- Node0 -->
<g id="node1" class="node"><title>Node0</title>
<polygon fill="#bfbfbf" stroke="black" points="178.499,-112.5 178.499,-142.5 296.499,-142.5 296.499,-112.5 178.499,-112.5"/>
<text text-anchor="start" x="186.499" y="-130.5" font-family="Helvetica,sans-Serif" font-size="10.00">src/hal/x4m0x_s70/xt</text>
<text text-anchor="middle" x="237.499" y="-119.5" font-family="Helvetica,sans-Serif" font-size="10.00">_selftest.c</text>
</g>
<!-- Node1 -->
<g id="node2" class="node"><title>Node1</title>
<g id="a_node2"><a xlink:href="xep__hal_8h.xhtml" target="_top" xlink:title="Brief description. ">
<polygon fill="white" stroke="red" points="258.499,-0.5 258.499,-19.5 320.499,-19.5 320.499,-0.5 258.499,-0.5"/>
<text text-anchor="middle" x="289.499" y="-7.5" font-family="Helvetica,sans-Serif" font-size="10.00">xep_hal.h</text>
</a>
</g>
</g>
<!-- Node0&#45;&gt;Node1 -->
<g id="edge1" class="edge"><title>Node0&#45;&gt;Node1</title>
<path fill="none" stroke="midnightblue" d="M178.335,-126.543C95.9676,-124.594 -37.9966,-112.944 10.4987,-56 40.5298,-20.7371 178.025,-13.0113 248.133,-11.385"/>
<polygon fill="midnightblue" stroke="midnightblue" points="248.446,-14.8796 258.374,-11.1799 248.306,-7.88096 248.446,-14.8796"/>
</g>
<!-- Node4 -->
<g id="node3" class="node"><title>Node4</title>
<g id="a_node3"><a xlink:href="chip_8h.xhtml" target="_top" xlink:title="chip.h">
<polygon fill="white" stroke="red" points="19.9987,-56.5 19.9987,-75.5 64.9987,-75.5 64.9987,-56.5 19.9987,-56.5"/>
<text text-anchor="middle" x="42.4987" y="-63.5" font-family="Helvetica,sans-Serif" font-size="10.00">chip.h</text>
</a>
</g>
</g>
<!-- Node0&#45;&gt;Node4 -->
<g id="edge2" class="edge"><title>Node0&#45;&gt;Node4</title>
<path fill="none" stroke="midnightblue" d="M191.286,-112.399C155.412,-101.453 106.588,-86.5554 74.8113,-76.8595"/>
<polygon fill="midnightblue" stroke="midnightblue" points="75.7174,-73.4767 65.1313,-73.9058 73.6744,-80.172 75.7174,-73.4767"/>
</g>
<!-- Node40 -->
<g id="node4" class="node"><title>Node40</title>
<g id="a_node4"><a xlink:href="board_8h.xhtml" target="_top" xlink:title="Definition of SAM E70 Xplained board characteristics, PIOs and external components interface...">
<polygon fill="white" stroke="black" points="82.9987,-56.5 82.9987,-75.5 135.999,-75.5 135.999,-56.5 82.9987,-56.5"/>
<text text-anchor="middle" x="109.499" y="-63.5" font-family="Helvetica,sans-Serif" font-size="10.00">board.h</text>
</a>
</g>
</g>
<!-- Node0&#45;&gt;Node40 -->
<g id="edge3" class="edge"><title>Node0&#45;&gt;Node40</title>
<path fill="none" stroke="midnightblue" d="M207.164,-112.399C185.976,-102.55 157.905,-89.5014 137.297,-79.9217"/>
<polygon fill="midnightblue" stroke="midnightblue" points="138.667,-76.6993 128.124,-75.6578 135.717,-83.047 138.667,-76.6993"/>
</g>
<!-- Node41 -->
<g id="node5" class="node"><title>Node41</title>
<g id="a_node5"><a xlink:href="xt__selftest_8h.xhtml" target="_top" xlink:title="xt_selftest.h">
<polygon fill="white" stroke="black" points="153.999,-56.5 153.999,-75.5 228.999,-75.5 228.999,-56.5 153.999,-56.5"/>
<text text-anchor="middle" x="191.499" y="-63.5" font-family="Helvetica,sans-Serif" font-size="10.00">xt_selftest.h</text>
</a>
</g>
</g>
<!-- Node0&#45;&gt;Node41 -->
<g id="edge4" class="edge"><title>Node0&#45;&gt;Node41</title>
<path fill="none" stroke="midnightblue" d="M226.597,-112.399C219.913,-103.753 211.323,-92.642 204.314,-83.576"/>
<polygon fill="midnightblue" stroke="midnightblue" points="207.077,-81.4284 198.192,-75.6578 201.54,-85.7099 207.077,-81.4284"/>
</g>
<!-- Node42 -->
<g id="node6" class="node"><title>Node42</title>
<g id="a_node6"><a xlink:href="xt__system_8h.xhtml" target="_top" xlink:title="xt_system.h">
<polygon fill="white" stroke="black" points="246.999,-56.5 246.999,-75.5 321.999,-75.5 321.999,-56.5 246.999,-56.5"/>
<text text-anchor="middle" x="284.499" y="-63.5" font-family="Helvetica,sans-Serif" font-size="10.00">xt_system.h</text>
</a>
</g>
</g>
<!-- Node0&#45;&gt;Node42 -->
<g id="edge5" class="edge"><title>Node0&#45;&gt;Node42</title>
<path fill="none" stroke="midnightblue" d="M248.637,-112.399C255.467,-103.753 264.244,-92.642 271.405,-83.576"/>
<polygon fill="midnightblue" stroke="midnightblue" points="274.208,-85.6745 277.66,-75.6578 268.715,-81.3354 274.208,-85.6745"/>
</g>
<!-- Node43 -->
<g id="node7" class="node"><title>Node43</title>
<g id="a_node7"><a xlink:href="x4driver_8h.xhtml" target="_top" xlink:title="Platform independent driver to interface with x4 radar. ">
<polygon fill="white" stroke="red" points="339.999,-56.5 339.999,-75.5 402.999,-75.5 402.999,-56.5 339.999,-56.5"/>
<text text-anchor="middle" x="371.499" y="-63.5" font-family="Helvetica,sans-Serif" font-size="10.00">x4driver.h</text>
</a>
</g>
</g>
<!-- Node0&#45;&gt;Node43 -->
<g id="edge6" class="edge"><title>Node0&#45;&gt;Node43</title>
<path fill="none" stroke="midnightblue" d="M269.255,-112.399C291.537,-102.505 321.089,-89.3832 342.69,-79.7919"/>
<polygon fill="midnightblue" stroke="midnightblue" points="344.281,-82.9149 352.001,-75.6578 341.441,-76.5172 344.281,-82.9149"/>
</g>
<!-- Node44 -->
<g id="node8" class="node"><title>Node44</title>
<polygon fill="white" stroke="#bfbfbf" points="421.499,-56.5 421.499,-75.5 535.499,-75.5 535.499,-56.5 421.499,-56.5"/>
<text text-anchor="middle" x="478.499" y="-63.5" font-family="Helvetica,sans-Serif" font-size="10.00">xtserial_definitions.h</text>
</g>
<!-- Node0&#45;&gt;Node44 -->
<g id="edge7" class="edge"><title>Node0&#45;&gt;Node44</title>
<path fill="none" stroke="midnightblue" d="M294.307,-112.475C337.065,-101.918 394.836,-87.6552 434.204,-77.9358"/>
<polygon fill="midnightblue" stroke="midnightblue" points="435.175,-81.3013 444.044,-75.5064 433.497,-74.5054 435.175,-81.3013"/>
</g>
<!-- Node45 -->
<g id="node9" class="node"><title>Node45</title>
<g id="a_node9"><a xlink:href="xt__config_8h.xhtml" target="_top" xlink:title="xt_config.h">
<polygon fill="white" stroke="red" points="553.499,-56.5 553.499,-75.5 621.499,-75.5 621.499,-56.5 553.499,-56.5"/>
<text text-anchor="middle" x="587.499" y="-63.5" font-family="Helvetica,sans-Serif" font-size="10.00">xt_config.h</text>
</a>
</g>
</g>
<!-- Node0&#45;&gt;Node45 -->
<g id="edge8" class="edge"><title>Node0&#45;&gt;Node45</title>
<path fill="none" stroke="midnightblue" d="M296.772,-117.529C356.524,-108.31 451.637,-93.1559 543.258,-76.17"/>
<polygon fill="midnightblue" stroke="midnightblue" points="544.068,-79.5794 553.258,-74.3061 542.786,-72.6979 544.068,-79.5794"/>
</g>
<!-- Node45&#45;&gt;Node1 -->
<g id="edge9" class="edge"><title>Node45&#45;&gt;Node1</title>
<path fill="none" stroke="midnightblue" d="M553.251,-57.7299C550.293,-57.1329 547.345,-56.5488 544.499,-56 469.132,-41.4666 380.869,-26.3026 330.435,-17.8137"/>
<polygon fill="midnightblue" stroke="midnightblue" points="331.009,-14.361 320.567,-16.1566 329.849,-21.2644 331.009,-14.361"/>
</g>
</g>
</svg>
