<?xml version="1.0" encoding="UTF-8" standalone="no"?>
<!DOCTYPE svg PUBLIC "-//W3C//DTD SVG 1.1//EN"
 "http://www.w3.org/Graphics/SVG/1.1/DTD/svg11.dtd">
<!-- Generated by graphviz version 2.38.0 (20140413.2041)
 -->
<!-- Title: xt_fast_memory_enabled Pages: 1 -->
<svg width="357pt" height="142pt"
 viewBox="0.00 0.00 357.00 142.00" xmlns="http://www.w3.org/2000/svg" xmlns:xlink="http://www.w3.org/1999/xlink">
<g id="graph0" class="graph" transform="scale(1 1) rotate(0) translate(4 138)">
<title>xt_fast_memory_enabled</title>
<polygon fill="white" stroke="none" points="-4,4 -4,-138 353,-138 353,4 -4,4"/>
<!-- Node103 -->
<g id="node1" class="node"><title>Node103</title>
<polygon fill="#bfbfbf" stroke="black" points="0,-57.5 0,-76.5 138,-76.5 138,-57.5 0,-57.5"/>
<text text-anchor="middle" x="69" y="-64.5" font-family="Helvetica,sans-Serif" font-size="10.00">xt_fast_memory_enabled</text>
</g>
<!-- Node104 -->
<g id="node2" class="node"><title>Node104</title>
<g id="a_node2"><a xlink:href="xtmemory__xep_8c.xhtml#a074cb46fba954fb164b67e59ea69efb2" target="_top" xlink:title="Allocate memory from fast location. ">
<polygon fill="white" stroke="red" points="198.5,-114.5 198.5,-133.5 324.5,-133.5 324.5,-114.5 198.5,-114.5"/>
<text text-anchor="middle" x="261.5" y="-121.5" font-family="Helvetica,sans-Serif" font-size="10.00">xtmemory_malloc_fast</text>
</a>
</g>
</g>
<!-- Node103&#45;&gt;Node104 -->
<g id="edge1" class="edge"><title>Node103&#45;&gt;Node104</title>
<path fill="none" stroke="midnightblue" d="M102.654,-80.2107C122.958,-88.1038 149.732,-97.9357 174,-105 186.105,-108.524 199.331,-111.74 211.716,-114.483"/>
<polygon fill="midnightblue" stroke="midnightblue" points="103.832,-76.9134 93.2452,-76.5123 101.272,-83.4281 103.832,-76.9134"/>
</g>
<!-- Node109 -->
<g id="node3" class="node"><title>Node109</title>
<g id="a_node3"><a xlink:href="xtmemory__xep_8c.xhtml#a8ec65d5206617a7838830f17b9cf8583" target="_top" xlink:title="Free memory allocated by xtmemory_malloc_fast. ">
<polygon fill="white" stroke="red" points="205,-76.5 205,-95.5 318,-95.5 318,-76.5 205,-76.5"/>
<text text-anchor="middle" x="261.5" y="-83.5" font-family="Helvetica,sans-Serif" font-size="10.00">xtmemory_free_fast</text>
</a>
</g>
</g>
<!-- Node103&#45;&gt;Node109 -->
<g id="edge2" class="edge"><title>Node103&#45;&gt;Node109</title>
<path fill="none" stroke="midnightblue" d="M148.366,-74.816C167.352,-76.7096 187.262,-78.6954 204.948,-80.4594"/>
<polygon fill="midnightblue" stroke="midnightblue" points="148.535,-71.3156 138.237,-73.8058 147.84,-78.281 148.535,-71.3156"/>
</g>
<!-- Node111 -->
<g id="node4" class="node"><title>Node111</title>
<g id="a_node4"><a xlink:href="xtmemory__xep_8c.xhtml#ac619e2caa7125b6211f53d680a9f03fb" target="_top" xlink:title="Get the fast memory usage watermark indicated by historically lowest amount of available memory...">
<polygon fill="white" stroke="red" points="174,-38.5 174,-57.5 349,-57.5 349,-38.5 174,-38.5"/>
<text text-anchor="middle" x="261.5" y="-45.5" font-family="Helvetica,sans-Serif" font-size="10.00">xtmemory_heap_watermark_fast</text>
</a>
</g>
</g>
<!-- Node103&#45;&gt;Node111 -->
<g id="edge3" class="edge"><title>Node103&#45;&gt;Node111</title>
<path fill="none" stroke="midnightblue" d="M148.362,-59.1844C156.751,-58.3477 165.32,-57.493 173.799,-56.6474"/>
<polygon fill="midnightblue" stroke="midnightblue" points="147.84,-55.719 138.237,-60.1942 148.535,-62.6844 147.84,-55.719"/>
</g>
<!-- Node117 -->
<g id="node5" class="node"><title>Node117</title>
<g id="a_node5"><a xlink:href="xtmemory__xep_8c.xhtml#af215d1f4153a20b4fae548227681035b" target="_top" xlink:title="Get amount of fast heap memory available. ">
<polygon fill="white" stroke="red" points="178.5,-0.5 178.5,-19.5 344.5,-19.5 344.5,-0.5 178.5,-0.5"/>
<text text-anchor="middle" x="261.5" y="-7.5" font-family="Helvetica,sans-Serif" font-size="10.00">xtmemory_heap_available_fast</text>
</a>
</g>
</g>
<!-- Node103&#45;&gt;Node117 -->
<g id="edge4" class="edge"><title>Node103&#45;&gt;Node117</title>
<path fill="none" stroke="midnightblue" d="M102.654,-53.7893C122.958,-45.8962 149.732,-36.0643 174,-29 186.105,-25.4762 199.331,-22.2604 211.716,-19.5169"/>
<polygon fill="midnightblue" stroke="midnightblue" points="101.272,-50.5719 93.2452,-57.4877 103.832,-57.0866 101.272,-50.5719"/>
</g>
</g>
</svg>
