<?xml version="1.0" encoding="UTF-8" standalone="no"?>
<!DOCTYPE svg PUBLIC "-//W3C//DTD SVG 1.1//EN"
 "http://www.w3.org/Graphics/SVG/1.1/DTD/svg11.dtd">
<!-- Generated by graphviz version 2.38.0 (20140413.2041)
 -->
<!-- Title: src/System/File/xtfile.c Pages: 1 -->
<svg width="725pt" height="84pt"
 viewBox="0.00 0.00 724.50 84.00" xmlns="http://www.w3.org/2000/svg" xmlns:xlink="http://www.w3.org/1999/xlink">
<g id="graph0" class="graph" transform="scale(1 1) rotate(0) translate(4 80)">
<title>src/System/File/xtfile.c</title>
<polygon fill="white" stroke="none" points="-4,4 -4,-80 720.5,-80 720.5,4 -4,4"/>
<!-- Node0 -->
<g id="node1" class="node"><title>Node0</title>
<polygon fill="#bfbfbf" stroke="black" points="280,-56.5 280,-75.5 402,-75.5 402,-56.5 280,-56.5"/>
<text text-anchor="middle" x="341" y="-63.5" font-family="Helvetica,sans-Serif" font-size="10.00">src/System/File/xtfile.c</text>
</g>
<!-- Node1 -->
<g id="node2" class="node"><title>Node1</title>
<g id="a_node2"><a xlink:href="xtfile_8h.xhtml" target="_top" xlink:title="xtfile.h">
<polygon fill="white" stroke="red" points="0,-0.5 0,-19.5 48,-19.5 48,-0.5 0,-0.5"/>
<text text-anchor="middle" x="24" y="-7.5" font-family="Helvetica,sans-Serif" font-size="10.00">xtfile.h</text>
</a>
</g>
</g>
<!-- Node0&#45;&gt;Node1 -->
<g id="edge1" class="edge"><title>Node0&#45;&gt;Node1</title>
<path fill="none" stroke="midnightblue" d="M279.981,-57.2929C224.483,-49.8392 140.163,-37.4085 58.0738,-20.0354"/>
<polygon fill="midnightblue" stroke="midnightblue" points="58.5876,-16.5661 48.0761,-17.8922 57.1203,-23.4106 58.5876,-16.5661"/>
</g>
<!-- Node8 -->
<g id="node3" class="node"><title>Node8</title>
<g id="a_node3"><a xlink:href="xfs_8h.xhtml" target="_top" xlink:title="xfs.h">
<polygon fill="white" stroke="red" points="66.5,-0.5 66.5,-19.5 105.5,-19.5 105.5,-0.5 66.5,-0.5"/>
<text text-anchor="middle" x="86" y="-7.5" font-family="Helvetica,sans-Serif" font-size="10.00">xfs.h</text>
</a>
</g>
</g>
<!-- Node0&#45;&gt;Node8 -->
<g id="edge2" class="edge"><title>Node0&#45;&gt;Node8</title>
<path fill="none" stroke="midnightblue" d="M290.395,-56.4845C246.526,-48.7509 181.192,-36.3935 115.3,-19.8504"/>
<polygon fill="midnightblue" stroke="midnightblue" points="116.131,-16.4503 105.577,-17.3793 114.406,-23.2347 116.131,-16.4503"/>
</g>
<!-- Node9 -->
<g id="node4" class="node"><title>Node9</title>
<g id="a_node4"><a xlink:href="xep__hal_8h.xhtml" target="_top" xlink:title="Brief description. ">
<polygon fill="white" stroke="red" points="124,-0.5 124,-19.5 186,-19.5 186,-0.5 124,-0.5"/>
<text text-anchor="middle" x="155" y="-7.5" font-family="Helvetica,sans-Serif" font-size="10.00">xep_hal.h</text>
</a>
</g>
</g>
<!-- Node0&#45;&gt;Node9 -->
<g id="edge3" class="edge"><title>Node0&#45;&gt;Node9</title>
<path fill="none" stroke="midnightblue" d="M311.528,-56.4435C279.829,-47.2406 229.268,-32.5617 194.225,-22.3879"/>
<polygon fill="midnightblue" stroke="midnightblue" points="194.914,-18.9434 184.334,-19.5164 192.962,-25.6658 194.914,-18.9434"/>
</g>
<!-- Node10 -->
<g id="node5" class="node"><title>Node10</title>
<g id="a_node5"><a xlink:href="xtmemory_8h.xhtml" target="_top" xlink:title="Platform independent mutex mechanism. ">
<polygon fill="white" stroke="red" points="204,-0.5 204,-19.5 278,-19.5 278,-0.5 204,-0.5"/>
<text text-anchor="middle" x="241" y="-7.5" font-family="Helvetica,sans-Serif" font-size="10.00">xtmemory.h</text>
</a>
</g>
</g>
<!-- Node0&#45;&gt;Node10 -->
<g id="edge4" class="edge"><title>Node0&#45;&gt;Node10</title>
<path fill="none" stroke="midnightblue" d="M324.933,-56.324C309.042,-47.7428 284.493,-34.486 266.042,-24.5224"/>
<polygon fill="midnightblue" stroke="midnightblue" points="267.489,-21.3264 257.027,-19.6545 264.163,-27.4857 267.489,-21.3264"/>
</g>
<!-- Node11 -->
<g id="node6" class="node"><title>Node11</title>
<g id="a_node6"><a xlink:href="xtsemaphore_8h.xhtml" target="_top" xlink:title="Platform independent mutex mechanism. ">
<polygon fill="white" stroke="red" points="296.5,-0.5 296.5,-19.5 385.5,-19.5 385.5,-0.5 296.5,-0.5"/>
<text text-anchor="middle" x="341" y="-7.5" font-family="Helvetica,sans-Serif" font-size="10.00">xtsemaphore.h</text>
</a>
</g>
</g>
<!-- Node0&#45;&gt;Node11 -->
<g id="edge5" class="edge"><title>Node0&#45;&gt;Node11</title>
<path fill="none" stroke="midnightblue" d="M341,-56.083C341,-49.0059 341,-38.8611 341,-29.9865"/>
<polygon fill="midnightblue" stroke="midnightblue" points="344.5,-29.751 341,-19.7511 337.5,-29.7511 344.5,-29.751"/>
</g>
<!-- Node12 -->
<g id="node7" class="node"><title>Node12</title>
<g id="a_node7"><a xlink:href="task__monitor_8h.xhtml" target="_top" xlink:title="System monitor task. ">
<polygon fill="white" stroke="red" points="403,-0.5 403,-19.5 491,-19.5 491,-0.5 403,-0.5"/>
<text text-anchor="middle" x="447" y="-7.5" font-family="Helvetica,sans-Serif" font-size="10.00">task_monitor.h</text>
</a>
</g>
</g>
<!-- Node0&#45;&gt;Node12 -->
<g id="edge6" class="edge"><title>Node0&#45;&gt;Node12</title>
<path fill="none" stroke="midnightblue" d="M358.031,-56.324C375.03,-47.6641 401.376,-34.2424 420.993,-24.249"/>
<polygon fill="midnightblue" stroke="midnightblue" points="422.69,-27.3125 430.012,-19.6545 419.512,-21.0752 422.69,-27.3125"/>
</g>
<!-- Node13 -->
<g id="node8" class="node"><title>Node13</title>
<polygon fill="white" stroke="#bfbfbf" points="509.5,-0.5 509.5,-19.5 580.5,-19.5 580.5,-0.5 509.5,-0.5"/>
<text text-anchor="middle" x="545" y="-7.5" font-family="Helvetica,sans-Serif" font-size="10.00">FreeRTOS.h</text>
</g>
<!-- Node0&#45;&gt;Node13 -->
<g id="edge7" class="edge"><title>Node0&#45;&gt;Node13</title>
<path fill="none" stroke="midnightblue" d="M373.324,-56.4435C408.389,-47.1616 464.498,-32.3093 502.965,-22.127"/>
<polygon fill="midnightblue" stroke="midnightblue" points="504.055,-25.4589 512.827,-19.5164 502.264,-18.692 504.055,-25.4589"/>
</g>
<!-- Node14 -->
<g id="node9" class="node"><title>Node14</title>
<polygon fill="white" stroke="#bfbfbf" points="599,-0.5 599,-19.5 645,-19.5 645,-0.5 599,-0.5"/>
<text text-anchor="middle" x="622" y="-7.5" font-family="Helvetica,sans-Serif" font-size="10.00">task.h</text>
</g>
<!-- Node0&#45;&gt;Node14 -->
<g id="edge8" class="edge"><title>Node0&#45;&gt;Node14</title>
<path fill="none" stroke="midnightblue" d="M396.691,-56.496C445.083,-48.754 517.236,-36.3666 588.891,-20.0774"/>
<polygon fill="midnightblue" stroke="midnightblue" points="590.035,-23.4057 598.996,-17.7531 588.465,-16.5839 590.035,-23.4057"/>
</g>
<!-- Node15 -->
<g id="node10" class="node"><title>Node15</title>
<polygon fill="white" stroke="#bfbfbf" points="663.5,-0.5 663.5,-19.5 716.5,-19.5 716.5,-0.5 663.5,-0.5"/>
<text text-anchor="middle" x="690" y="-7.5" font-family="Helvetica,sans-Serif" font-size="10.00">string.h</text>
</g>
<!-- Node0&#45;&gt;Node15 -->
<g id="edge9" class="edge"><title>Node0&#45;&gt;Node15</title>
<path fill="none" stroke="midnightblue" d="M402.193,-58.0793C463.351,-50.7393 560.232,-37.9671 653.45,-19.9248"/>
<polygon fill="midnightblue" stroke="midnightblue" points="654.191,-23.3463 663.332,-17.9895 652.845,-16.4768 654.191,-23.3463"/>
</g>
</g>
</svg>
