<?xml version="1.0" encoding="UTF-8" standalone="no"?>
<!DOCTYPE svg PUBLIC "-//W3C//DTD SVG 1.1//EN"
 "http://www.w3.org/Graphics/SVG/1.1/DTD/svg11.dtd">
<!-- Generated by graphviz version 2.38.0 (20140413.2041)
 -->
<!-- Title: xtfile_create_and_open Pages: 1 -->
<svg width="411pt" height="133pt"
 viewBox="0.00 0.00 411.00 132.72" xmlns="http://www.w3.org/2000/svg" xmlns:xlink="http://www.w3.org/1999/xlink">
<g id="graph0" class="graph" transform="scale(1 1) rotate(0) translate(4 128.724)">
<title>xtfile_create_and_open</title>
<polygon fill="white" stroke="none" points="-4,4 -4,-128.724 407,-128.724 407,4 -4,4"/>
<!-- Node41 -->
<g id="node1" class="node"><title>Node41</title>
<polygon fill="#bfbfbf" stroke="black" points="0,-60.5 0,-79.5 128,-79.5 128,-60.5 0,-60.5"/>
<text text-anchor="middle" x="64" y="-67.5" font-family="Helvetica,sans-Serif" font-size="10.00">xtfile_create_and_open</text>
</g>
<!-- Node42 -->
<g id="node2" class="node"><title>Node42</title>
<g id="a_node2"><a xlink:href="xtfile_8c.xhtml#aab3ec81dba994ab42e047561a13c5e27" target="_top" xlink:title="Creates and opens a new file with given type and identifiers with an empty content of given size...">
<polygon fill="white" stroke="red" points="164,-77 164,-107 292,-107 292,-77 164,-77"/>
<text text-anchor="start" x="172" y="-95" font-family="Helvetica,sans-Serif" font-size="10.00">xtfile_create_and_open</text>
<text text-anchor="middle" x="228" y="-84" font-family="Helvetica,sans-Serif" font-size="10.00">_empty</text>
</a>
</g>
</g>
<!-- Node41&#45;&gt;Node42 -->
<g id="edge1" class="edge"><title>Node41&#45;&gt;Node42</title>
<path fill="none" stroke="midnightblue" d="M128.097,-78.5688C136.526,-79.7134 145.227,-80.8951 153.81,-82.0607"/>
<polygon fill="midnightblue" stroke="midnightblue" points="153.428,-85.5408 163.808,-83.4184 154.37,-78.6045 153.428,-85.5408"/>
</g>
<!-- Node43 -->
<g id="node3" class="node"><title>Node43</title>
<g id="a_node3"><a xlink:href="xtfile_8c.xhtml#ab6502b729403c595b606e92bf005bd09" target="_top" xlink:title="xtfile_lock">
<polygon fill="white" stroke="red" points="334,-102.5 334,-121.5 397,-121.5 397,-102.5 334,-102.5"/>
<text text-anchor="middle" x="365.5" y="-109.5" font-family="Helvetica,sans-Serif" font-size="10.00">xtfile_lock</text>
</a>
</g>
</g>
<!-- Node41&#45;&gt;Node43 -->
<g id="edge4" class="edge"><title>Node41&#45;&gt;Node43</title>
<path fill="none" stroke="midnightblue" d="M79.6703,-79.5367C98.3594,-91.0628 132.076,-109.807 164,-117 218.215,-129.216 282.764,-124.256 323.687,-118.789"/>
<polygon fill="midnightblue" stroke="midnightblue" points="324.401,-122.223 333.814,-117.361 323.423,-115.291 324.401,-122.223"/>
</g>
<!-- Node47 -->
<g id="node4" class="node"><title>Node47</title>
<g id="a_node4"><a xlink:href="xtfile_8c.xhtml#a5f00b9d0119e29899a5acf83033147e4" target="_top" xlink:title="xtfile_unlock">
<polygon fill="white" stroke="red" points="328,-61.5 328,-80.5 403,-80.5 403,-61.5 328,-61.5"/>
<text text-anchor="middle" x="365.5" y="-68.5" font-family="Helvetica,sans-Serif" font-size="10.00">xtfile_unlock</text>
</a>
</g>
</g>
<!-- Node41&#45;&gt;Node47 -->
<g id="edge6" class="edge"><title>Node41&#45;&gt;Node47</title>
<path fill="none" stroke="midnightblue" d="M128.124,-67.7872C173.676,-66.5268 236.646,-65.4741 292,-67 300.242,-67.2272 309.005,-67.5994 317.485,-68.0277"/>
<polygon fill="midnightblue" stroke="midnightblue" points="317.461,-71.5313 327.634,-68.5719 317.835,-64.5414 317.461,-71.5313"/>
</g>
<!-- Node77 -->
<g id="node5" class="node"><title>Node77</title>
<g id="a_node5"><a xlink:href="xfs_8c.xhtml#a9fadb27c69014a6f606f00781d0c24e5" target="_top" xlink:title="Writes the file data to flash at given offset. ">
<polygon fill="white" stroke="red" points="189.5,-0.5 189.5,-19.5 266.5,-19.5 266.5,-0.5 189.5,-0.5"/>
<text text-anchor="middle" x="228" y="-7.5" font-family="Helvetica,sans-Serif" font-size="10.00">xfs_write_file</text>
</a>
</g>
</g>
<!-- Node41&#45;&gt;Node77 -->
<g id="edge5" class="edge"><title>Node41&#45;&gt;Node77</title>
<path fill="none" stroke="midnightblue" d="M90.6694,-60.4928C117.961,-50.3849 161.304,-34.3317 191.778,-23.0452"/>
<polygon fill="midnightblue" stroke="midnightblue" points="193.021,-26.3172 201.183,-19.5618 190.59,-19.7529 193.021,-26.3172"/>
</g>
<!-- Node42&#45;&gt;Node43 -->
<g id="edge2" class="edge"><title>Node42&#45;&gt;Node43</title>
<path fill="none" stroke="midnightblue" d="M292.386,-101.356C303.121,-102.94 314.003,-104.547 323.948,-106.014"/>
<polygon fill="midnightblue" stroke="midnightblue" points="323.522,-109.489 333.926,-107.487 324.544,-102.564 323.522,-109.489"/>
</g>
<!-- Node42&#45;&gt;Node47 -->
<g id="edge3" class="edge"><title>Node42&#45;&gt;Node47</title>
<path fill="none" stroke="midnightblue" d="M292.386,-82.1763C300.91,-80.8553 309.526,-79.52 317.692,-78.2544"/>
<polygon fill="midnightblue" stroke="midnightblue" points="318.408,-81.6853 327.754,-76.695 317.335,-74.7679 318.408,-81.6853"/>
</g>
</g>
</svg>
