<?xml version="1.0" encoding="UTF-8" standalone="no"?>
<!DOCTYPE svg PUBLIC "-//W3C//DTD SVG 1.1//EN"
 "http://www.w3.org/Graphics/SVG/1.1/DTD/svg11.dtd">
<!-- Generated by graphviz version 2.38.0 (20140413.2041)
 -->
<!-- Title: xtfile_search_for_files_of_type Pages: 1 -->
<svg width="273pt" height="39pt"
 viewBox="0.00 0.00 273.00 39.00" xmlns="http://www.w3.org/2000/svg" xmlns:xlink="http://www.w3.org/1999/xlink">
<g id="graph0" class="graph" transform="scale(1 1) rotate(0) translate(4 35)">
<title>xtfile_search_for_files_of_type</title>
<polygon fill="white" stroke="none" points="-4,4 -4,-35 269,-35 269,4 -4,4"/>
<!-- Node368 -->
<g id="node1" class="node"><title>Node368</title>
<polygon fill="#bfbfbf" stroke="black" points="0,-0.5 0,-30.5 119,-30.5 119,-0.5 0,-0.5"/>
<text text-anchor="start" x="8" y="-18.5" font-family="Helvetica,sans-Serif" font-size="10.00">xtfile_search_for_files</text>
<text text-anchor="middle" x="59.5" y="-7.5" font-family="Helvetica,sans-Serif" font-size="10.00">_of_type</text>
</g>
<!-- Node369 -->
<g id="node2" class="node"><title>Node369</title>
<g id="a_node2"><a xlink:href="xfs_8c.xhtml#a48e596dbfbcdc817280a503fdf637a71" target="_top" xlink:title="Searches for files of a specific type and stores the identifier of each file in the given buffer...">
<polygon fill="white" stroke="red" points="155,-0.5 155,-30.5 265,-30.5 265,-0.5 155,-0.5"/>
<text text-anchor="start" x="163" y="-18.5" font-family="Helvetica,sans-Serif" font-size="10.00">xfs_search_for_files</text>
<text text-anchor="middle" x="210" y="-7.5" font-family="Helvetica,sans-Serif" font-size="10.00">_of_type</text>
</a>
</g>
</g>
<!-- Node368&#45;&gt;Node369 -->
<g id="edge1" class="edge"><title>Node368&#45;&gt;Node369</title>
<path fill="none" stroke="midnightblue" d="M119.191,-15.5C127.491,-15.5 136.062,-15.5 144.464,-15.5"/>
<polygon fill="midnightblue" stroke="midnightblue" points="144.6,-19.0001 154.6,-15.5 144.6,-12.0001 144.6,-19.0001"/>
</g>
</g>
</svg>
