<?xml version="1.0" encoding="UTF-8" standalone="no"?>
<!DOCTYPE svg PUBLIC "-//W3C//DTD SVG 1.1//EN"
 "http://www.w3.org/Graphics/SVG/1.1/DTD/svg11.dtd">
<!-- Generated by graphviz version 2.38.0 (20140413.2041)
 -->
<!-- Title: xtfile_delete Pages: 1 -->
<svg width="356pt" height="218pt"
 viewBox="0.00 0.00 356.00 218.00" xmlns="http://www.w3.org/2000/svg" xmlns:xlink="http://www.w3.org/1999/xlink">
<g id="graph0" class="graph" transform="scale(1 1) rotate(0) translate(4 214)">
<title>xtfile_delete</title>
<polygon fill="white" stroke="none" points="-4,4 -4,-214 352,-214 352,4 -4,4"/>
<!-- Node136 -->
<g id="node1" class="node"><title>Node136</title>
<polygon fill="#bfbfbf" stroke="black" points="0,-95.5 0,-114.5 74,-114.5 74,-95.5 0,-95.5"/>
<text text-anchor="middle" x="37" y="-102.5" font-family="Helvetica,sans-Serif" font-size="10.00">xtfile_delete</text>
</g>
<!-- Node137 -->
<g id="node2" class="node"><title>Node137</title>
<g id="a_node2"><a xlink:href="xtfile_8c.xhtml#ab6502b729403c595b606e92bf005bd09" target="_top" xlink:title="xtfile_lock">
<polygon fill="white" stroke="red" points="139,-190.5 139,-209.5 202,-209.5 202,-190.5 139,-190.5"/>
<text text-anchor="middle" x="170.5" y="-197.5" font-family="Helvetica,sans-Serif" font-size="10.00">xtfile_lock</text>
</a>
</g>
</g>
<!-- Node136&#45;&gt;Node137 -->
<g id="edge1" class="edge"><title>Node136&#45;&gt;Node137</title>
<path fill="none" stroke="midnightblue" d="M45.8749,-114.973C58.1673,-129.978 83.2902,-158.466 110,-176 116.146,-180.034 123.077,-183.584 129.981,-186.63"/>
<polygon fill="midnightblue" stroke="midnightblue" points="128.722,-189.897 139.302,-190.47 131.389,-183.425 128.722,-189.897"/>
</g>
<!-- Node139 -->
<g id="node3" class="node"><title>Node139</title>
<g id="a_node3"><a xlink:href="xtfile_8c.xhtml#a615248bef74b3021de95c188fcc6504c" target="_top" xlink:title="xtfile_is_open">
<polygon fill="white" stroke="black" points="267,-95.5 267,-114.5 348,-114.5 348,-95.5 267,-95.5"/>
<text text-anchor="middle" x="307.5" y="-102.5" font-family="Helvetica,sans-Serif" font-size="10.00">xtfile_is_open</text>
</a>
</g>
</g>
<!-- Node136&#45;&gt;Node139 -->
<g id="edge2" class="edge"><title>Node136&#45;&gt;Node139</title>
<path fill="none" stroke="midnightblue" d="M51.2612,-114.555C65.1286,-123.909 87.9116,-137.529 110,-143 162.2,-155.93 178.677,-155.425 231,-143 249.856,-138.522 269.351,-128.551 283.807,-119.946"/>
<polygon fill="midnightblue" stroke="midnightblue" points="285.855,-122.795 292.522,-114.56 282.175,-116.84 285.855,-122.795"/>
</g>
<!-- Node140 -->
<g id="node4" class="node"><title>Node140</title>
<g id="a_node4"><a xlink:href="xtfile_8c.xhtml#a5f00b9d0119e29899a5acf83033147e4" target="_top" xlink:title="xtfile_unlock">
<polygon fill="white" stroke="red" points="133,-114.5 133,-133.5 208,-133.5 208,-114.5 133,-114.5"/>
<text text-anchor="middle" x="170.5" y="-121.5" font-family="Helvetica,sans-Serif" font-size="10.00">xtfile_unlock</text>
</a>
</g>
</g>
<!-- Node136&#45;&gt;Node140 -->
<g id="edge3" class="edge"><title>Node136&#45;&gt;Node140</title>
<path fill="none" stroke="midnightblue" d="M74.2811,-110.242C89.2479,-112.405 106.783,-114.938 122.699,-117.238"/>
<polygon fill="midnightblue" stroke="midnightblue" points="122.483,-120.743 132.881,-118.709 123.484,-113.815 122.483,-120.743"/>
</g>
<!-- Node142 -->
<g id="node5" class="node"><title>Node142</title>
<g id="a_node5"><a xlink:href="xfs_8c.xhtml#a51fef9f1383012edd34a7ad0608f90eb" target="_top" xlink:title="Checks if a file with given type and identifier exists. ">
<polygon fill="white" stroke="red" points="129.5,-76.5 129.5,-95.5 211.5,-95.5 211.5,-76.5 129.5,-76.5"/>
<text text-anchor="middle" x="170.5" y="-83.5" font-family="Helvetica,sans-Serif" font-size="10.00">xfs_file_exists</text>
</a>
</g>
</g>
<!-- Node136&#45;&gt;Node142 -->
<g id="edge4" class="edge"><title>Node136&#45;&gt;Node142</title>
<path fill="none" stroke="midnightblue" d="M74.2811,-99.7579C88.117,-97.7588 104.148,-95.4425 119.066,-93.2871"/>
<polygon fill="midnightblue" stroke="midnightblue" points="119.778,-96.7206 129.174,-91.8265 118.777,-89.7926 119.778,-96.7206"/>
</g>
<!-- Node146 -->
<g id="node6" class="node"><title>Node146</title>
<g id="a_node6"><a xlink:href="xtfile_8c.xhtml#a3664f1f9f0c2893e041970d9a758cd48" target="_top" xlink:title="xtfile_create_instance">
<polygon fill="white" stroke="black" points="110,-38.5 110,-57.5 231,-57.5 231,-38.5 110,-38.5"/>
<text text-anchor="middle" x="170.5" y="-45.5" font-family="Helvetica,sans-Serif" font-size="10.00">xtfile_create_instance</text>
</a>
</g>
</g>
<!-- Node136&#45;&gt;Node146 -->
<g id="edge5" class="edge"><title>Node136&#45;&gt;Node146</title>
<path fill="none" stroke="midnightblue" d="M54.1854,-95.3975C68.5216,-87.1515 90.19,-75.3139 110,-67 115.187,-64.8231 120.715,-62.7483 126.233,-60.8236"/>
<polygon fill="midnightblue" stroke="midnightblue" points="127.704,-64.0222 136.078,-57.5316 125.484,-57.3835 127.704,-64.0222"/>
</g>
<!-- Node147 -->
<g id="node7" class="node"><title>Node147</title>
<g id="a_node7"><a xlink:href="xfs_8c.xhtml#a846fd4b556aae87a84be2435336e17ca" target="_top" xlink:title="Deletes the file with the given type and identifier. ">
<polygon fill="white" stroke="red" points="128.5,-0.5 128.5,-19.5 212.5,-19.5 212.5,-0.5 128.5,-0.5"/>
<text text-anchor="middle" x="170.5" y="-7.5" font-family="Helvetica,sans-Serif" font-size="10.00">xfs_delete_file</text>
</a>
</g>
</g>
<!-- Node136&#45;&gt;Node147 -->
<g id="edge7" class="edge"><title>Node136&#45;&gt;Node147</title>
<path fill="none" stroke="midnightblue" d="M44.5992,-95.3522C56.0662,-79.2963 81.2172,-47.0757 110,-29 113.315,-26.9185 116.877,-25.0462 120.552,-23.3656"/>
<polygon fill="midnightblue" stroke="midnightblue" points="121.906,-26.5933 129.841,-19.5727 119.26,-20.1128 121.906,-26.5933"/>
</g>
<!-- Node146&#45;&gt;Node139 -->
<g id="edge6" class="edge"><title>Node146&#45;&gt;Node139</title>
<path fill="none" stroke="midnightblue" d="M204.566,-57.542C213.262,-60.327 222.567,-63.5564 231,-67 247.939,-73.9172 266.288,-83.1109 280.655,-90.7225"/>
<polygon fill="midnightblue" stroke="midnightblue" points="279.001,-93.8069 289.467,-95.4562 282.314,-87.6404 279.001,-93.8069"/>
</g>
</g>
</svg>
