<?xml version="1.0" encoding="UTF-8" standalone="no"?>
<!DOCTYPE svg PUBLIC "-//W3C//DTD SVG 1.1//EN"
 "http://www.w3.org/Graphics/SVG/1.1/DTD/svg11.dtd">
<!-- Generated by graphviz version 2.38.0 (20140413.2041)
 -->
<!-- Title: xtfile_get_size Pages: 1 -->
<svg width="283pt" height="66pt"
 viewBox="0.00 0.00 283.00 66.00" xmlns="http://www.w3.org/2000/svg" xmlns:xlink="http://www.w3.org/1999/xlink">
<g id="graph0" class="graph" transform="scale(1 1) rotate(0) translate(4 62)">
<title>xtfile_get_size</title>
<polygon fill="white" stroke="none" points="-4,4 -4,-62 279,-62 279,4 -4,4"/>
<!-- Node223 -->
<g id="node1" class="node"><title>Node223</title>
<polygon fill="#bfbfbf" stroke="black" points="0,-19.5 0,-38.5 84,-38.5 84,-19.5 0,-19.5"/>
<text text-anchor="middle" x="42" y="-26.5" font-family="Helvetica,sans-Serif" font-size="10.00">xtfile_get_size</text>
</g>
<!-- Node224 -->
<g id="node2" class="node"><title>Node224</title>
<g id="a_node2"><a xlink:href="xep__application__mcp__callbacks_8h.xhtml#a9f3f6d1643bbdc67d1bbe3a5f31034c4" target="_top" xlink:title="onMcpGetCrashDumpLength">
<polygon fill="white" stroke="red" points="120,-38.5 120,-57.5 275,-57.5 275,-38.5 120,-38.5"/>
<text text-anchor="middle" x="197.5" y="-45.5" font-family="Helvetica,sans-Serif" font-size="10.00">onMcpGetCrashDumpLength</text>
</a>
</g>
</g>
<!-- Node223&#45;&gt;Node224 -->
<g id="edge1" class="edge"><title>Node223&#45;&gt;Node224</title>
<path fill="none" stroke="midnightblue" d="M94.3258,-35.353C102.585,-36.3753 111.286,-37.4524 119.984,-38.5289"/>
<polygon fill="midnightblue" stroke="midnightblue" points="94.4894,-31.8467 84.1352,-34.0917 93.6295,-38.7936 94.4894,-31.8467"/>
</g>
<!-- Node228 -->
<g id="node3" class="node"><title>Node228</title>
<g id="a_node3"><a xlink:href="xep__application__mcp__callbacks_8h.xhtml#ab03363a7a7539098cf2201c934f01440" target="_top" xlink:title="onMcpGetFileLength">
<polygon fill="white" stroke="red" points="141,-0.5 141,-19.5 254,-19.5 254,-0.5 141,-0.5"/>
<text text-anchor="middle" x="197.5" y="-7.5" font-family="Helvetica,sans-Serif" font-size="10.00">onMcpGetFileLength</text>
</a>
</g>
</g>
<!-- Node223&#45;&gt;Node228 -->
<g id="edge2" class="edge"><title>Node223&#45;&gt;Node228</title>
<path fill="none" stroke="midnightblue" d="M94.2245,-22.6595C109.182,-20.8081 125.599,-18.776 140.818,-16.8922"/>
<polygon fill="midnightblue" stroke="midnightblue" points="93.6295,-19.2064 84.1352,-23.9083 94.4894,-26.1533 93.6295,-19.2064"/>
</g>
</g>
</svg>
