<?xml version="1.0" encoding="UTF-8" standalone="no"?>
<!DOCTYPE svg PUBLIC "-//W3C//DTD SVG 1.1//EN"
 "http://www.w3.org/Graphics/SVG/1.1/DTD/svg11.dtd">
<!-- Generated by graphviz version 2.38.0 (20140413.2041)
 -->
<!-- Title: xthousekeeping_init Pages: 1 -->
<svg width="437pt" height="142pt"
 viewBox="0.00 0.00 437.00 141.71" xmlns="http://www.w3.org/2000/svg" xmlns:xlink="http://www.w3.org/1999/xlink">
<g id="graph0" class="graph" transform="scale(1 1) rotate(0) translate(4 137.705)">
<title>xthousekeeping_init</title>
<polygon fill="white" stroke="none" points="-4,4 -4,-137.705 433,-137.705 433,4 -4,4"/>
<!-- Node14 -->
<g id="node1" class="node"><title>Node14</title>
<polygon fill="#bfbfbf" stroke="black" points="0,-77 0,-96 112,-96 112,-77 0,-77"/>
<text text-anchor="middle" x="56" y="-84" font-family="Helvetica,sans-Serif" font-size="10.00">xthousekeeping_init</text>
</g>
<!-- Node15 -->
<g id="node2" class="node"><title>Node15</title>
<g id="a_node2"><a xlink:href="xep__hal_8h.xhtml#a31dcedbddd6f896d0157ce276d449fd4" target="_top" xlink:title="Checks if external memory is enabled. ">
<polygon fill="white" stroke="black" points="313,-93.5 313,-123.5 429,-123.5 429,-93.5 313,-93.5"/>
<text text-anchor="start" x="321" y="-111.5" font-family="Helvetica,sans-Serif" font-size="10.00">xt_external_memory</text>
<text text-anchor="middle" x="371" y="-100.5" font-family="Helvetica,sans-Serif" font-size="10.00">_enabled</text>
</a>
</g>
</g>
<!-- Node14&#45;&gt;Node15 -->
<g id="edge1" class="edge"><title>Node14&#45;&gt;Node15</title>
<path fill="none" stroke="midnightblue" d="M72.7246,-96.082C90.3237,-106.198 120.047,-121.494 148,-127.5 199.226,-138.507 258.393,-132.548 302.757,-124.494"/>
<polygon fill="midnightblue" stroke="midnightblue" points="303.671,-127.883 312.844,-122.581 302.367,-121.006 303.671,-127.883"/>
</g>
<!-- Node16 -->
<g id="node3" class="node"><title>Node16</title>
<g id="a_node3"><a xlink:href="xtmemory_8h.xhtml#a6865e14d8f1f60f5c34807e4c1a990a7" target="_top" xlink:title="Allocate memory from slow location. ">
<polygon fill="white" stroke="red" points="148.5,-99 148.5,-118 276.5,-118 276.5,-99 148.5,-99"/>
<text text-anchor="middle" x="212.5" y="-106" font-family="Helvetica,sans-Serif" font-size="10.00">xtmemory_malloc_slow</text>
</a>
</g>
</g>
<!-- Node14&#45;&gt;Node16 -->
<g id="edge2" class="edge"><title>Node14&#45;&gt;Node16</title>
<path fill="none" stroke="midnightblue" d="M112.342,-94.3804C120.743,-95.5767 129.522,-96.8267 138.232,-98.0671"/>
<polygon fill="midnightblue" stroke="midnightblue" points="138.007,-101.57 148.4,-99.5149 138.994,-94.6401 138.007,-101.57"/>
</g>
<!-- Node29 -->
<g id="node4" class="node"><title>Node29</title>
<g id="a_node4"><a xlink:href="xt__system_8c.xhtml#a0abc6238971ef9384a4f3d73736651e1" target="_top" xlink:title="Register callback for crash dump. ">
<polygon fill="white" stroke="black" points="149,-49.5 149,-79.5 276,-79.5 276,-49.5 149,-49.5"/>
<text text-anchor="start" x="157" y="-67.5" font-family="Helvetica,sans-Serif" font-size="10.00">xt_register_crashdump</text>
<text text-anchor="middle" x="212.5" y="-56.5" font-family="Helvetica,sans-Serif" font-size="10.00">_callback</text>
</a>
</g>
</g>
<!-- Node14&#45;&gt;Node29 -->
<g id="edge4" class="edge"><title>Node14&#45;&gt;Node29</title>
<path fill="none" stroke="midnightblue" d="M112.342,-78.6196C120.96,-77.3924 129.976,-76.1086 138.908,-74.8368"/>
<polygon fill="midnightblue" stroke="midnightblue" points="139.525,-78.2843 148.931,-73.4095 138.538,-71.3542 139.525,-78.2843"/>
</g>
<!-- Node30 -->
<g id="node5" class="node"><title>Node30</title>
<g id="a_node5"><a xlink:href="xthousekeeping_8c.xhtml#ad5a7723fb96e5789fa7ecb2554da3b04" target="_top" xlink:title="xthousekeeping_trigger\l_crashdump">
<polygon fill="white" stroke="red" points="148,-0.5 148,-30.5 277,-30.5 277,-0.5 148,-0.5"/>
<text text-anchor="start" x="156" y="-18.5" font-family="Helvetica,sans-Serif" font-size="10.00">xthousekeeping_trigger</text>
<text text-anchor="middle" x="212.5" y="-7.5" font-family="Helvetica,sans-Serif" font-size="10.00">_crashdump</text>
</a>
</g>
</g>
<!-- Node14&#45;&gt;Node30 -->
<g id="edge5" class="edge"><title>Node14&#45;&gt;Node30</title>
<path fill="none" stroke="midnightblue" d="M74.8899,-76.8346C93.07,-67.1608 122.156,-52.0894 148,-40.5 152.611,-38.4321 157.449,-36.3592 162.31,-34.3404"/>
<polygon fill="midnightblue" stroke="midnightblue" points="163.692,-37.5564 171.631,-30.5404 161.05,-31.0743 163.692,-37.5564"/>
</g>
<!-- Node16&#45;&gt;Node15 -->
<g id="edge3" class="edge"><title>Node16&#45;&gt;Node15</title>
<path fill="none" stroke="midnightblue" d="M276.703,-108.5C285.301,-108.5 294.15,-108.5 302.814,-108.5"/>
<polygon fill="midnightblue" stroke="midnightblue" points="302.875,-112 312.875,-108.5 302.875,-105 302.875,-112"/>
</g>
<!-- Node30&#45;&gt;Node15 -->
<g id="edge6" class="edge"><title>Node30&#45;&gt;Node15</title>
<path fill="none" stroke="midnightblue" d="M256.206,-30.5654C263.295,-33.5586 270.461,-36.9005 277,-40.5 301.093,-53.7625 326.134,-72.3953 344.154,-86.8034"/>
<polygon fill="midnightblue" stroke="midnightblue" points="342.431,-89.9123 352.402,-93.4951 346.841,-84.4765 342.431,-89.9123"/>
</g>
</g>
</svg>
