<?xml version="1.0" encoding="UTF-8" standalone="no"?>
<!DOCTYPE svg PUBLIC "-//W3C//DTD SVG 1.1//EN"
 "http://www.w3.org/Graphics/SVG/1.1/DTD/svg11.dtd">
<!-- Generated by graphviz version 2.38.0 (20140413.2041)
 -->
<!-- Title: xthousekeeping_trigger_crashdump Pages: 1 -->
<svg width="502pt" height="842pt"
 viewBox="0.00 0.00 502.00 842.45" xmlns="http://www.w3.org/2000/svg" xmlns:xlink="http://www.w3.org/1999/xlink">
<g id="graph0" class="graph" transform="scale(1 1) rotate(0) translate(4 838.446)">
<title>xthousekeeping_trigger_crashdump</title>
<polygon fill="white" stroke="none" points="-4,4 -4,-838.446 498,-838.446 498,4 -4,4"/>
<!-- Node107 -->
<g id="node1" class="node"><title>Node107</title>
<polygon fill="#bfbfbf" stroke="black" points="0,-399 0,-429 129,-429 129,-399 0,-399"/>
<text text-anchor="start" x="8" y="-417" font-family="Helvetica,sans-Serif" font-size="10.00">xthousekeeping_trigger</text>
<text text-anchor="middle" x="64.5" y="-406" font-family="Helvetica,sans-Serif" font-size="10.00">_crashdump</text>
</g>
<!-- Node108 -->
<g id="node2" class="node"><title>Node108</title>
<g id="a_node2"><a xlink:href="xep__hal_8h.xhtml#a31dcedbddd6f896d0157ce276d449fd4" target="_top" xlink:title="Checks if external memory is enabled. ">
<polygon fill="white" stroke="black" points="378,-380 378,-410 494,-410 494,-380 378,-380"/>
<text text-anchor="start" x="386" y="-398" font-family="Helvetica,sans-Serif" font-size="10.00">xt_external_memory</text>
<text text-anchor="middle" x="436" y="-387" font-family="Helvetica,sans-Serif" font-size="10.00">_enabled</text>
</a>
</g>
</g>
<!-- Node107&#45;&gt;Node108 -->
<g id="edge1" class="edge"><title>Node107&#45;&gt;Node108</title>
<path fill="none" stroke="midnightblue" d="M67.0066,-429.155C73.8429,-494.503 104.273,-751.003 165,-798 227.212,-846.147 280.437,-846.974 342,-798 401.974,-750.29 426.592,-501.95 433.118,-420.734"/>
<polygon fill="midnightblue" stroke="midnightblue" points="436.634,-420.662 433.92,-410.421 429.655,-420.119 436.634,-420.662"/>
</g>
<!-- Node109 -->
<g id="node3" class="node"><title>Node109</title>
<g id="a_node3"><a xlink:href="xtfile_8h.xhtml#af4fca7b165fd70a2a4a1398f9d62fbe7" target="_top" xlink:title="Uninitialize the file system. ">
<polygon fill="white" stroke="black" points="218,-769.5 218,-788.5 289,-788.5 289,-769.5 218,-769.5"/>
<text text-anchor="middle" x="253.5" y="-776.5" font-family="Helvetica,sans-Serif" font-size="10.00">xtfile_uninit</text>
</a>
</g>
</g>
<!-- Node107&#45;&gt;Node109 -->
<g id="edge2" class="edge"><title>Node107&#45;&gt;Node109</title>
<path fill="none" stroke="midnightblue" d="M64.8292,-429.191C63.3344,-483.153 65.9715,-667.319 165,-760 176.435,-770.702 192.422,-775.923 207.606,-778.32"/>
<polygon fill="midnightblue" stroke="midnightblue" points="207.579,-781.842 217.925,-779.561 208.414,-774.892 207.579,-781.842"/>
</g>
<!-- Node110 -->
<g id="node4" class="node"><title>Node110</title>
<g id="a_node4"><a xlink:href="xfs_8c.xhtml#a0f9263257de25f5a132282b680db4622" target="_top" xlink:title="Function to ignore locking mechanism. ">
<polygon fill="white" stroke="black" points="209,-731.5 209,-750.5 298,-750.5 298,-731.5 209,-731.5"/>
<text text-anchor="middle" x="253.5" y="-738.5" font-family="Helvetica,sans-Serif" font-size="10.00">xfs_ignore_lock</text>
</a>
</g>
</g>
<!-- Node107&#45;&gt;Node110 -->
<g id="edge3" class="edge"><title>Node107&#45;&gt;Node110</title>
<path fill="none" stroke="midnightblue" d="M65.4541,-429.278C66.1828,-479.528 75.6708,-641.075 165,-722 174.363,-730.482 186.6,-735.494 198.943,-738.383"/>
<polygon fill="midnightblue" stroke="midnightblue" points="198.331,-741.83 208.811,-740.271 199.647,-734.954 198.331,-741.83"/>
</g>
<!-- Node111 -->
<g id="node5" class="node"><title>Node111</title>
<g id="a_node5"><a xlink:href="xfs_8c.xhtml#a827d597e895a84ac2619f1bec910e6a6" target="_top" xlink:title="Gets the size of the largest free section. ">
<polygon fill="white" stroke="red" points="185,-693.5 185,-712.5 322,-712.5 322,-693.5 185,-693.5"/>
<text text-anchor="middle" x="253.5" y="-700.5" font-family="Helvetica,sans-Serif" font-size="10.00">xfs_get_largest_free_size</text>
</a>
</g>
</g>
<!-- Node107&#45;&gt;Node111 -->
<g id="edge4" class="edge"><title>Node107&#45;&gt;Node111</title>
<path fill="none" stroke="midnightblue" d="M66.2251,-429.027C69.2924,-474.947 85.0831,-614.503 165,-684 168.233,-686.812 171.784,-689.238 175.548,-691.329"/>
<polygon fill="midnightblue" stroke="midnightblue" points="174.126,-694.529 184.664,-695.626 177.11,-688.197 174.126,-694.529"/>
</g>
<!-- Node116 -->
<g id="node6" class="node"><title>Node116</title>
<g id="a_node6"><a xlink:href="xep__hal_8h.xhtml#a5e62effeb5c5323c3d423225a6a3dbf3" target="_top" xlink:title="Gets the cause of the previous software reset. ">
<polygon fill="white" stroke="red" points="196,-655.5 196,-674.5 311,-674.5 311,-655.5 196,-655.5"/>
<text text-anchor="middle" x="253.5" y="-662.5" font-family="Helvetica,sans-Serif" font-size="10.00">xt_get_reset_reason</text>
</a>
</g>
</g>
<!-- Node107&#45;&gt;Node116 -->
<g id="edge5" class="edge"><title>Node107&#45;&gt;Node116</title>
<path fill="none" stroke="midnightblue" d="M67.2658,-429.292C72.9443,-471.091 94.6796,-587.993 165,-646 171.155,-651.077 178.36,-654.882 185.945,-657.721"/>
<polygon fill="midnightblue" stroke="midnightblue" points="185.117,-661.13 195.707,-660.824 187.237,-654.459 185.117,-661.13"/>
</g>
<!-- Node119 -->
<g id="node7" class="node"><title>Node119</title>
<g id="a_node7"><a xlink:href="xep__hal_8h.xhtml#af1f57228b9448df87a3f5f30968b3fa8" target="_top" xlink:title="Gets the operation mode of the module. ">
<polygon fill="white" stroke="red" points="188,-617.5 188,-636.5 319,-636.5 319,-617.5 188,-617.5"/>
<text text-anchor="middle" x="253.5" y="-624.5" font-family="Helvetica,sans-Serif" font-size="10.00">xt_get_operation_mode</text>
</a>
</g>
</g>
<!-- Node107&#45;&gt;Node119 -->
<g id="edge6" class="edge"><title>Node107&#45;&gt;Node119</title>
<path fill="none" stroke="midnightblue" d="M68.6323,-429.208C77.0773,-466.157 103.929,-561.055 165,-608 169.131,-611.175 173.679,-613.845 178.466,-616.086"/>
<polygon fill="midnightblue" stroke="midnightblue" points="177.334,-619.403 187.917,-619.891 179.947,-612.91 177.334,-619.403"/>
</g>
<!-- Node135 -->
<g id="node8" class="node"><title>Node135</title>
<g id="a_node8"><a xlink:href="xep__hal_8h.xhtml#a3c4b3201bcc90f24579249f3b6297fb3" target="_top" xlink:title="Get reset count. ">
<polygon fill="white" stroke="red" points="199,-579.5 199,-598.5 308,-598.5 308,-579.5 199,-579.5"/>
<text text-anchor="middle" x="253.5" y="-586.5" font-family="Helvetica,sans-Serif" font-size="10.00">xt_get_reset_count</text>
</a>
</g>
</g>
<!-- Node107&#45;&gt;Node135 -->
<g id="edge7" class="edge"><title>Node107&#45;&gt;Node135</title>
<path fill="none" stroke="midnightblue" d="M70.6446,-429.275C82.1433,-460.948 113.073,-533.829 165,-570 172.229,-575.035 180.545,-578.772 189.113,-581.539"/>
<polygon fill="midnightblue" stroke="midnightblue" points="188.276,-584.939 198.849,-584.268 190.165,-578.199 188.276,-584.939"/>
</g>
<!-- Node137 -->
<g id="node9" class="node"><title>Node137</title>
<g id="a_node9"><a xlink:href="xep__hal_8h.xhtml#ac6fbcd6ee86a6cc239db400a2f9560a6" target="_top" xlink:title="Gets the system timer in microseconds. ">
<polygon fill="white" stroke="red" points="186.5,-541.5 186.5,-560.5 320.5,-560.5 320.5,-541.5 186.5,-541.5"/>
<text text-anchor="middle" x="253.5" y="-548.5" font-family="Helvetica,sans-Serif" font-size="10.00">xt_get_system_timer_us</text>
</a>
</g>
</g>
<!-- Node107&#45;&gt;Node137 -->
<g id="edge8" class="edge"><title>Node107&#45;&gt;Node137</title>
<path fill="none" stroke="midnightblue" d="M73.6965,-429.053C88.4117,-454.555 121.843,-506.011 165,-532 168.67,-534.21 172.565,-536.165 176.592,-537.893"/>
<polygon fill="midnightblue" stroke="midnightblue" points="175.597,-541.259 186.189,-541.529 178.078,-534.713 175.597,-541.259"/>
</g>
<!-- Node139 -->
<g id="node10" class="node"><title>Node139</title>
<g id="a_node10"><a xlink:href="xtmemory_8h.xhtml#a2dad555618641e748aaefde24f170e94" target="_top" xlink:title="Get amount of default heap memory available. ">
<polygon fill="white" stroke="red" points="182,-492 182,-522 325,-522 325,-492 182,-492"/>
<text text-anchor="start" x="190" y="-510" font-family="Helvetica,sans-Serif" font-size="10.00">xtmemory_heap_available</text>
<text text-anchor="middle" x="253.5" y="-499" font-family="Helvetica,sans-Serif" font-size="10.00">_default</text>
</a>
</g>
</g>
<!-- Node107&#45;&gt;Node139 -->
<g id="edge9" class="edge"><title>Node107&#45;&gt;Node139</title>
<path fill="none" stroke="midnightblue" d="M83.414,-429.247C102.496,-444.784 134.146,-468.587 165,-483 169.125,-484.927 173.435,-486.725 177.834,-488.398"/>
<polygon fill="midnightblue" stroke="midnightblue" points="176.977,-491.808 187.572,-491.864 179.324,-485.214 176.977,-491.808"/>
</g>
<!-- Node141 -->
<g id="node11" class="node"><title>Node141</title>
<g id="a_node11"><a xlink:href="xtmemory_8h.xhtml#af78fb7d15faa1f15a6fe9c7649c40e7a" target="_top" xlink:title="Get the default memory usage watermark indicated by historically lowest amount of available memory...">
<polygon fill="white" stroke="red" points="177.5,-443 177.5,-473 329.5,-473 329.5,-443 177.5,-443"/>
<text text-anchor="start" x="185.5" y="-461" font-family="Helvetica,sans-Serif" font-size="10.00">xtmemory_heap_watermark</text>
<text text-anchor="middle" x="253.5" y="-450" font-family="Helvetica,sans-Serif" font-size="10.00">_default</text>
</a>
</g>
</g>
<!-- Node107&#45;&gt;Node141 -->
<g id="edge10" class="edge"><title>Node107&#45;&gt;Node141</title>
<path fill="none" stroke="midnightblue" d="M129.071,-428.958C144.941,-432.692 162.098,-436.729 178.428,-440.571"/>
<polygon fill="midnightblue" stroke="midnightblue" points="177.934,-444.051 188.47,-442.934 179.537,-437.237 177.934,-444.051"/>
</g>
<!-- Node143 -->
<g id="node12" class="node"><title>Node143</title>
<g id="a_node12"><a xlink:href="xtmemory_8h.xhtml#a120dae9f612ca07248261a387247721c" target="_top" xlink:title="Get amount of slow heap memory available. ">
<polygon fill="white" stroke="red" points="169.5,-404.5 169.5,-423.5 337.5,-423.5 337.5,-404.5 169.5,-404.5"/>
<text text-anchor="middle" x="253.5" y="-411.5" font-family="Helvetica,sans-Serif" font-size="10.00">xtmemory_heap_available_slow</text>
</a>
</g>
</g>
<!-- Node107&#45;&gt;Node143 -->
<g id="edge11" class="edge"><title>Node107&#45;&gt;Node143</title>
<path fill="none" stroke="midnightblue" d="M129.071,-414C138.759,-414 148.926,-414 159.092,-414"/>
<polygon fill="midnightblue" stroke="midnightblue" points="159.24,-417.5 169.24,-414 159.24,-410.5 159.24,-417.5"/>
</g>
<!-- Node145 -->
<g id="node13" class="node"><title>Node145</title>
<g id="a_node13"><a xlink:href="xtmemory_8h.xhtml#a45a4c8bf7fca2d2cc41ac41e8877bee6" target="_top" xlink:title="Get the slow memory usage watermark indicated by historically lowest amount of available memory...">
<polygon fill="white" stroke="red" points="165,-366.5 165,-385.5 342,-385.5 342,-366.5 165,-366.5"/>
<text text-anchor="middle" x="253.5" y="-373.5" font-family="Helvetica,sans-Serif" font-size="10.00">xtmemory_heap_watermark_slow</text>
</a>
</g>
</g>
<!-- Node107&#45;&gt;Node145 -->
<g id="edge13" class="edge"><title>Node107&#45;&gt;Node145</title>
<path fill="none" stroke="midnightblue" d="M129.071,-401.082C150.636,-396.7 174.576,-391.835 195.588,-387.565"/>
<polygon fill="midnightblue" stroke="midnightblue" points="196.543,-390.943 205.645,-385.521 195.148,-384.083 196.543,-390.943"/>
</g>
<!-- Node147 -->
<g id="node14" class="node"><title>Node147</title>
<g id="a_node14"><a xlink:href="xtmemory_8h.xhtml#af215d1f4153a20b4fae548227681035b" target="_top" xlink:title="Get amount of fast heap memory available. ">
<polygon fill="white" stroke="red" points="170.5,-328.5 170.5,-347.5 336.5,-347.5 336.5,-328.5 170.5,-328.5"/>
<text text-anchor="middle" x="253.5" y="-335.5" font-family="Helvetica,sans-Serif" font-size="10.00">xtmemory_heap_available_fast</text>
</a>
</g>
</g>
<!-- Node107&#45;&gt;Node147 -->
<g id="edge15" class="edge"><title>Node107&#45;&gt;Node147</title>
<path fill="none" stroke="midnightblue" d="M87.4373,-398.798C106.973,-385.917 136.755,-367.859 165,-357 171.783,-354.392 179.007,-352.103 186.284,-350.104"/>
<polygon fill="midnightblue" stroke="midnightblue" points="187.391,-353.433 196.205,-347.553 185.648,-346.653 187.391,-353.433"/>
</g>
<!-- Node150 -->
<g id="node15" class="node"><title>Node150</title>
<g id="a_node15"><a xlink:href="xtmemory_8h.xhtml#ac619e2caa7125b6211f53d680a9f03fb" target="_top" xlink:title="Get the fast memory usage watermark indicated by historically lowest amount of available memory...">
<polygon fill="white" stroke="red" points="166,-290.5 166,-309.5 341,-309.5 341,-290.5 166,-290.5"/>
<text text-anchor="middle" x="253.5" y="-297.5" font-family="Helvetica,sans-Serif" font-size="10.00">xtmemory_heap_watermark_fast</text>
</a>
</g>
</g>
<!-- Node107&#45;&gt;Node150 -->
<g id="edge16" class="edge"><title>Node107&#45;&gt;Node150</title>
<path fill="none" stroke="midnightblue" d="M76.8416,-398.827C93.6386,-377.505 127.24,-339.046 165,-319 169.321,-316.706 173.901,-314.689 178.613,-312.916"/>
<polygon fill="midnightblue" stroke="midnightblue" points="180.068,-316.119 188.426,-309.607 177.831,-309.486 180.068,-316.119"/>
</g>
<!-- Node152 -->
<g id="node16" class="node"><title>Node152</title>
<g id="a_node16"><a xlink:href="xep__hal_8h.xhtml#ab218029969f3b92b546b111d1c1e03d0" target="_top" xlink:title="Gets the stack start pointer and depth for specified task. ">
<polygon fill="white" stroke="black" points="187.5,-241 187.5,-271 319.5,-271 319.5,-241 187.5,-241"/>
<text text-anchor="start" x="195.5" y="-259" font-family="Helvetica,sans-Serif" font-size="10.00">xt_get_stack_area_from</text>
<text text-anchor="middle" x="253.5" y="-248" font-family="Helvetica,sans-Serif" font-size="10.00">_task_handle</text>
</a>
</g>
</g>
<!-- Node107&#45;&gt;Node152 -->
<g id="edge17" class="edge"><title>Node107&#45;&gt;Node152</title>
<path fill="none" stroke="midnightblue" d="M72.7151,-398.676C86.5824,-370.906 119.648,-312.254 165,-281 169.017,-278.232 173.337,-275.768 177.83,-273.575"/>
<polygon fill="midnightblue" stroke="midnightblue" points="179.498,-276.665 187.251,-269.444 176.687,-270.254 179.498,-276.665"/>
</g>
<!-- Node153 -->
<g id="node17" class="node"><title>Node153</title>
<g id="a_node17"><a xlink:href="task__monitor_8c.xhtml#a32facc560d3b2b978208dd26df5a5524" target="_top" xlink:title="Get task information. ">
<polygon fill="white" stroke="black" points="192,-202.5 192,-221.5 315,-221.5 315,-202.5 192,-202.5"/>
<text text-anchor="middle" x="253.5" y="-209.5" font-family="Helvetica,sans-Serif" font-size="10.00">monitor_task_get_info</text>
</a>
</g>
</g>
<!-- Node107&#45;&gt;Node153 -->
<g id="edge18" class="edge"><title>Node107&#45;&gt;Node153</title>
<path fill="none" stroke="midnightblue" d="M69.1699,-398.98C78.5746,-363.83 106.986,-275.883 165,-232 170.138,-228.113 175.899,-224.961 181.947,-222.406"/>
<polygon fill="midnightblue" stroke="midnightblue" points="183.448,-225.584 191.64,-218.864 181.046,-219.009 183.448,-225.584"/>
</g>
<!-- Node154 -->
<g id="node18" class="node"><title>Node154</title>
<g id="a_node18"><a xlink:href="xep__hal_8h.xhtml#a9b086edc4d10515d81e925efba022638" target="_top" xlink:title="Gets the program counter of the specified task. ">
<polygon fill="white" stroke="red" points="186,-153 186,-183 321,-183 321,-153 186,-153"/>
<text text-anchor="start" x="194" y="-171" font-family="Helvetica,sans-Serif" font-size="10.00">xt_get_program_counter</text>
<text text-anchor="middle" x="253.5" y="-160" font-family="Helvetica,sans-Serif" font-size="10.00">_from_task_handle</text>
</a>
</g>
</g>
<!-- Node107&#45;&gt;Node154 -->
<g id="edge20" class="edge"><title>Node107&#45;&gt;Node154</title>
<path fill="none" stroke="midnightblue" d="M67.85,-398.782C74.8424,-358.778 99.2778,-249.837 165,-193 168.523,-189.953 172.396,-187.276 176.49,-184.925"/>
<polygon fill="midnightblue" stroke="midnightblue" points="178.387,-187.889 185.759,-180.279 175.251,-181.631 178.387,-187.889"/>
</g>
<!-- Node155 -->
<g id="node19" class="node"><title>Node155</title>
<g id="a_node19"><a xlink:href="xfs_8c.xhtml#a7b8e251b6d5e10731cd7a9379e67b8be" target="_top" xlink:title="Gets the size of file with given type and identifier. ">
<polygon fill="white" stroke="red" points="216,-114.5 216,-133.5 291,-133.5 291,-114.5 216,-114.5"/>
<text text-anchor="middle" x="253.5" y="-121.5" font-family="Helvetica,sans-Serif" font-size="10.00">xfs_get_size</text>
</a>
</g>
</g>
<!-- Node107&#45;&gt;Node155 -->
<g id="edge21" class="edge"><title>Node107&#45;&gt;Node155</title>
<path fill="none" stroke="midnightblue" d="M66.2814,-398.685C69.4988,-352.546 85.6502,-213.766 165,-144 176.112,-134.23 191.019,-128.956 205.376,-126.187"/>
<polygon fill="midnightblue" stroke="midnightblue" points="206.329,-129.581 215.672,-124.585 205.253,-122.664 206.329,-129.581"/>
</g>
<!-- Node158 -->
<g id="node20" class="node"><title>Node158</title>
<g id="a_node20"><a xlink:href="xfs_8c.xhtml#a846fd4b556aae87a84be2435336e17ca" target="_top" xlink:title="Deletes the file with the given type and identifier. ">
<polygon fill="white" stroke="red" points="211.5,-76.5 211.5,-95.5 295.5,-95.5 295.5,-76.5 211.5,-76.5"/>
<text text-anchor="middle" x="253.5" y="-83.5" font-family="Helvetica,sans-Serif" font-size="10.00">xfs_delete_file</text>
</a>
</g>
</g>
<!-- Node107&#45;&gt;Node158 -->
<g id="edge22" class="edge"><title>Node107&#45;&gt;Node158</title>
<path fill="none" stroke="midnightblue" d="M65.4364,-398.674C66.1101,-348.265 75.4466,-186.205 165,-105 175.002,-95.93 188.29,-90.8276 201.483,-88.0444"/>
<polygon fill="midnightblue" stroke="midnightblue" points="202.225,-91.4685 211.497,-86.3409 201.051,-84.5676 202.225,-91.4685"/>
</g>
<!-- Node176 -->
<g id="node21" class="node"><title>Node176</title>
<g id="a_node21"><a xlink:href="xfs_8c.xhtml#aaa10482aaaf404deb85d1c214c6aaea4" target="_top" xlink:title="Creates a new file. ">
<polygon fill="white" stroke="red" points="211,-38.5 211,-57.5 296,-57.5 296,-38.5 211,-38.5"/>
<text text-anchor="middle" x="253.5" y="-45.5" font-family="Helvetica,sans-Serif" font-size="10.00">xfs_create_file</text>
</a>
</g>
</g>
<!-- Node107&#45;&gt;Node176 -->
<g id="edge23" class="edge"><title>Node107&#45;&gt;Node176</title>
<path fill="none" stroke="midnightblue" d="M64.8133,-398.766C63.2647,-344.653 65.7427,-159.967 165,-67 174.764,-57.8545 187.853,-52.7108 200.926,-49.9118"/>
<polygon fill="midnightblue" stroke="midnightblue" points="201.604,-53.3466 210.866,-48.2009 200.417,-46.448 201.604,-53.3466"/>
</g>
<!-- Node180 -->
<g id="node22" class="node"><title>Node180</title>
<g id="a_node22"><a xlink:href="xfs_8c.xhtml#a31395d7a15d30dbd0e24e0f6800dccf2" target="_top" xlink:title="Commits the file allocation and file contents to flash. ">
<polygon fill="white" stroke="red" points="208,-0.5 208,-19.5 299,-19.5 299,-0.5 208,-0.5"/>
<text text-anchor="middle" x="253.5" y="-7.5" font-family="Helvetica,sans-Serif" font-size="10.00">xfs_commit_file</text>
</a>
</g>
</g>
<!-- Node107&#45;&gt;Node180 -->
<g id="edge24" class="edge"><title>Node107&#45;&gt;Node180</title>
<path fill="none" stroke="midnightblue" d="M67.3217,-398.682C75.3487,-333.764 109.641,-82.2363 165,-29 173.841,-20.4978 185.545,-15.4317 197.507,-12.4913"/>
<polygon fill="midnightblue" stroke="midnightblue" points="198.433,-15.8758 207.558,-10.4926 197.068,-9.01021 198.433,-15.8758"/>
</g>
<!-- Node143&#45;&gt;Node108 -->
<g id="edge12" class="edge"><title>Node143&#45;&gt;Node108</title>
<path fill="none" stroke="midnightblue" d="M337.618,-405.251C347.712,-404.188 357.927,-403.113 367.751,-402.079"/>
<polygon fill="midnightblue" stroke="midnightblue" points="368.249,-405.546 377.827,-401.018 367.516,-398.584 368.249,-405.546"/>
</g>
<!-- Node145&#45;&gt;Node108 -->
<g id="edge14" class="edge"><title>Node145&#45;&gt;Node108</title>
<path fill="none" stroke="midnightblue" d="M342.106,-385.222C350.727,-386.129 359.38,-387.04 367.75,-387.921"/>
<polygon fill="midnightblue" stroke="midnightblue" points="367.487,-391.413 377.799,-388.979 368.22,-384.451 367.487,-391.413"/>
</g>
<!-- Node153&#45;&gt;Node108 -->
<g id="edge19" class="edge"><title>Node153&#45;&gt;Node108</title>
<path fill="none" stroke="midnightblue" d="M315.269,-218.986C324.815,-221.967 334.117,-226.149 342,-232 389.146,-266.994 416.001,-333.493 427.77,-369.801"/>
<polygon fill="midnightblue" stroke="midnightblue" points="424.508,-371.101 430.819,-379.611 431.193,-369.023 424.508,-371.101"/>
</g>
</g>
</svg>
