<?xml version="1.0" encoding="UTF-8" standalone="no"?>
<!DOCTYPE svg PUBLIC "-//W3C//DTD SVG 1.1//EN"
 "http://www.w3.org/Graphics/SVG/1.1/DTD/svg11.dtd">
<!-- Generated by graphviz version 2.38.0 (20140413.2041)
 -->
<!-- Title: xtio_spi_write_read Pages: 1 -->
<svg width="314pt" height="382pt"
 viewBox="0.00 0.00 314.00 382.00" xmlns="http://www.w3.org/2000/svg" xmlns:xlink="http://www.w3.org/1999/xlink">
<g id="graph0" class="graph" transform="scale(1 1) rotate(0) translate(4 378)">
<title>xtio_spi_write_read</title>
<polygon fill="white" stroke="none" points="-4,4 -4,-378 310,-378 310,4 -4,4"/>
<!-- Node132 -->
<g id="node1" class="node"><title>Node132</title>
<polygon fill="#bfbfbf" stroke="black" points="0,-174.5 0,-193.5 107,-193.5 107,-174.5 0,-174.5"/>
<text text-anchor="middle" x="53.5" y="-181.5" font-family="Helvetica,sans-Serif" font-size="10.00">xtio_spi_write_read</text>
</g>
<!-- Node133 -->
<g id="node2" class="node"><title>Node133</title>
<g id="a_node2"><a xlink:href="xep__hal_8h.xhtml#a7d0980e5e1fb4f42a5d10102c91609f4" target="_top" xlink:title="Delays the execution for the specified number of microseconds. ">
<polygon fill="white" stroke="red" points="188,-354.5 188,-373.5 261,-373.5 261,-354.5 188,-354.5"/>
<text text-anchor="middle" x="224.5" y="-361.5" font-family="Helvetica,sans-Serif" font-size="10.00">xt_delay_us</text>
</a>
</g>
</g>
<!-- Node132&#45;&gt;Node133 -->
<g id="edge1" class="edge"><title>Node132&#45;&gt;Node133</title>
<path fill="none" stroke="midnightblue" d="M56.8804,-193.8C64.2841,-222.094 89.6766,-304.464 143,-345 153.003,-352.604 165.572,-357.229 177.785,-360.024"/>
<polygon fill="midnightblue" stroke="midnightblue" points="177.415,-363.517 187.896,-361.967 178.736,-356.643 177.415,-363.517"/>
</g>
<!-- Node136 -->
<g id="node3" class="node"><title>Node136</title>
<g id="a_node3"><a xlink:href="qspi_8h.xhtml#aa6b5d392d35016bb59ad1b3b9cdb72d9" target="_top" xlink:title="Send an instruction over QSPI (oly a flash command no data) ">
<polygon fill="white" stroke="red" points="165,-316.5 165,-335.5 284,-335.5 284,-316.5 165,-316.5"/>
<text text-anchor="middle" x="224.5" y="-323.5" font-family="Helvetica,sans-Serif" font-size="10.00">QSPI_SendCommand</text>
</a>
</g>
</g>
<!-- Node132&#45;&gt;Node136 -->
<g id="edge2" class="edge"><title>Node132&#45;&gt;Node136</title>
<path fill="none" stroke="midnightblue" d="M58.601,-193.816C68.9702,-217.365 98.608,-277.313 143,-307 146.795,-309.538 150.89,-311.739 155.151,-313.647"/>
<polygon fill="midnightblue" stroke="midnightblue" points="154.104,-316.996 164.692,-317.374 156.651,-310.475 154.104,-316.996"/>
</g>
<!-- Node140 -->
<g id="node4" class="node"><title>Node140</title>
<g id="a_node4"><a xlink:href="qspi_8h.xhtml#a6d28b23fbb2385d5e3a8479b02c10bb8" target="_top" xlink:title="Send instruction over QSPI with data. ">
<polygon fill="white" stroke="red" points="143,-278.5 143,-297.5 306,-297.5 306,-278.5 143,-278.5"/>
<text text-anchor="middle" x="224.5" y="-285.5" font-family="Helvetica,sans-Serif" font-size="10.00">QSPI_SendCommandWithData</text>
</a>
</g>
</g>
<!-- Node132&#45;&gt;Node140 -->
<g id="edge3" class="edge"><title>Node132&#45;&gt;Node140</title>
<path fill="none" stroke="midnightblue" d="M61.5922,-193.614C75.2564,-211.409 107.075,-249.444 143,-269 147.194,-271.283 151.656,-273.293 156.246,-275.063"/>
<polygon fill="midnightblue" stroke="midnightblue" points="155.208,-278.408 165.803,-278.37 157.497,-271.792 155.208,-278.408"/>
</g>
<!-- Node144 -->
<g id="node5" class="node"><title>Node144</title>
<g id="a_node5"><a xlink:href="xtio__spi_8c.xhtml#a1d2434b8731965f430a31892bea72cbf" target="_top" xlink:title="xtio_spi_cb">
<polygon fill="white" stroke="black" points="190,-240.5 190,-259.5 259,-259.5 259,-240.5 190,-240.5"/>
<text text-anchor="middle" x="224.5" y="-247.5" font-family="Helvetica,sans-Serif" font-size="10.00">xtio_spi_cb</text>
</a>
</g>
</g>
<!-- Node132&#45;&gt;Node144 -->
<g id="edge4" class="edge"><title>Node132&#45;&gt;Node144</title>
<path fill="none" stroke="midnightblue" d="M69.6023,-193.571C86.7844,-204.085 115.972,-220.827 143,-231 154.654,-235.387 167.65,-238.982 179.741,-241.818"/>
<polygon fill="midnightblue" stroke="midnightblue" points="179.114,-245.264 189.636,-244.023 180.637,-238.431 179.114,-245.264"/>
</g>
<!-- Node145 -->
<g id="node6" class="node"><title>Node145</title>
<g id="a_node6"><a xlink:href="group___c_m_s_i_s___core___cache_functions.xhtml#ga630131b2572eaa16b569ed364dfc895e" target="_top" xlink:title="SCB_CleanInvalidateDCache\l_by_Addr">
<polygon fill="white" stroke="red" points="148.5,-191 148.5,-221 300.5,-221 300.5,-191 148.5,-191"/>
<text text-anchor="start" x="156.5" y="-209" font-family="Helvetica,sans-Serif" font-size="10.00">SCB_CleanInvalidateDCache</text>
<text text-anchor="middle" x="224.5" y="-198" font-family="Helvetica,sans-Serif" font-size="10.00">_by_Addr</text>
</a>
</g>
</g>
<!-- Node132&#45;&gt;Node145 -->
<g id="edge5" class="edge"><title>Node132&#45;&gt;Node145</title>
<path fill="none" stroke="midnightblue" d="M107.046,-190.84C116.959,-192.131 127.56,-193.511 138.178,-194.893"/>
<polygon fill="midnightblue" stroke="midnightblue" points="137.974,-198.396 148.342,-196.216 138.877,-191.454 137.974,-198.396"/>
</g>
<!-- Node150 -->
<g id="node7" class="node"><title>Node150</title>
<g id="a_node7"><a xlink:href="qspi__dma_8h.xhtml#a0d664a2d9fdc7a5b276553ef98ebb085" target="_top" xlink:title="Enables a QSPI Rx channel. ">
<polygon fill="white" stroke="red" points="147,-152.5 147,-171.5 302,-171.5 302,-152.5 147,-152.5"/>
<text text-anchor="middle" x="224.5" y="-159.5" font-family="Helvetica,sans-Serif" font-size="10.00">QSPID_EnableQspiRxChannel</text>
</a>
</g>
</g>
<!-- Node132&#45;&gt;Node150 -->
<g id="edge6" class="edge"><title>Node132&#45;&gt;Node150</title>
<path fill="none" stroke="midnightblue" d="M107.046,-177.16C117.688,-175.774 129.123,-174.286 140.521,-172.802"/>
<polygon fill="midnightblue" stroke="midnightblue" points="141.042,-176.264 150.507,-171.502 140.139,-169.322 141.042,-176.264"/>
</g>
<!-- Node174 -->
<g id="node8" class="node"><title>Node174</title>
<g id="a_node8"><a xlink:href="qspi_8h.xhtml#a399520c124a1931a313645b5011888db" target="_top" xlink:title="Sends an instruction over QSPI and configures other related address like Addr , Frame and synchronise...">
<polygon fill="white" stroke="red" points="157.5,-114.5 157.5,-133.5 291.5,-133.5 291.5,-114.5 157.5,-114.5"/>
<text text-anchor="middle" x="224.5" y="-121.5" font-family="Helvetica,sans-Serif" font-size="10.00">QSPI_EnableMemAccess</text>
</a>
</g>
</g>
<!-- Node132&#45;&gt;Node174 -->
<g id="edge7" class="edge"><title>Node132&#45;&gt;Node174</title>
<path fill="none" stroke="midnightblue" d="M72.3613,-174.418C89.9285,-165.31 117.713,-151.741 143,-143 150.348,-140.46 158.188,-138.145 165.984,-136.072"/>
<polygon fill="midnightblue" stroke="midnightblue" points="166.965,-139.434 175.795,-133.579 165.241,-132.65 166.965,-139.434"/>
</g>
<!-- Node176 -->
<g id="node9" class="node"><title>Node176</title>
<g id="a_node9"><a xlink:href="qspi__dma_8h.xhtml#a16f401ef0f29ab14079e0355d7a48005" target="_top" xlink:title="Starts a QSPI read or write operation. ">
<polygon fill="white" stroke="red" points="164,-76.5 164,-95.5 285,-95.5 285,-76.5 164,-76.5"/>
<text text-anchor="middle" x="224.5" y="-83.5" font-family="Helvetica,sans-Serif" font-size="10.00">QSPID_ReadWriteQSPI</text>
</a>
</g>
</g>
<!-- Node132&#45;&gt;Node176 -->
<g id="edge8" class="edge"><title>Node132&#45;&gt;Node176</title>
<path fill="none" stroke="midnightblue" d="M62.4189,-174.294C76.6921,-157.473 108.478,-122.984 143,-105 147.501,-102.655 152.294,-100.596 157.212,-98.7873"/>
<polygon fill="midnightblue" stroke="midnightblue" points="158.392,-102.083 166.78,-95.6105 156.186,-95.44 158.392,-102.083"/>
</g>
<!-- Node188 -->
<g id="node10" class="node"><title>Node188</title>
<g id="a_node10"><a xlink:href="qspi__dma_8h.xhtml#a3f74a9c30f8d87121341efbe86f7b992" target="_top" xlink:title="Disables a QSPI Rx channel. ">
<polygon fill="white" stroke="red" points="145.5,-38.5 145.5,-57.5 303.5,-57.5 303.5,-38.5 145.5,-38.5"/>
<text text-anchor="middle" x="224.5" y="-45.5" font-family="Helvetica,sans-Serif" font-size="10.00">QSPID_DisableQspiRxChannel</text>
</a>
</g>
</g>
<!-- Node132&#45;&gt;Node188 -->
<g id="edge9" class="edge"><title>Node132&#45;&gt;Node188</title>
<path fill="none" stroke="midnightblue" d="M58.8984,-174.328C69.7136,-151.695 99.8957,-95.0864 143,-67 146.132,-64.9593 149.459,-63.1372 152.91,-61.5103"/>
<polygon fill="midnightblue" stroke="midnightblue" points="154.373,-64.693 162.282,-57.6437 151.703,-58.222 154.373,-64.693"/>
</g>
<!-- Node193 -->
<g id="node11" class="node"><title>Node193</title>
<g id="a_node11"><a xlink:href="qspi_8h.xhtml#a8b59ff979a47404bc86c60118ec3d30d" target="_top" xlink:title="Send instruction over QSPI to read data. ">
<polygon fill="white" stroke="red" points="165.5,-0.5 165.5,-19.5 283.5,-19.5 283.5,-0.5 165.5,-0.5"/>
<text text-anchor="middle" x="224.5" y="-7.5" font-family="Helvetica,sans-Serif" font-size="10.00">QSPI_ReadCommand</text>
</a>
</g>
</g>
<!-- Node132&#45;&gt;Node193 -->
<g id="edge10" class="edge"><title>Node132&#45;&gt;Node193</title>
<path fill="none" stroke="midnightblue" d="M57.1084,-174.166C64.9659,-146.548 91.127,-67.7744 143,-29 146.961,-26.0393 151.313,-23.5313 155.879,-21.4079"/>
<polygon fill="midnightblue" stroke="midnightblue" points="157.507,-24.5266 165.496,-17.5673 154.911,-18.0258 157.507,-24.5266"/>
</g>
</g>
</svg>
