<?xml version="1.0" encoding="UTF-8" standalone="no"?>
<!DOCTYPE svg PUBLIC "-//W3C//DTD SVG 1.1//EN"
 "http://www.w3.org/Graphics/SVG/1.1/DTD/svg11.dtd">
<!-- Generated by graphviz version 2.38.0 (20140413.2041)
 -->
<!-- Title: _i2c_task_tx Pages: 1 -->
<svg width="256pt" height="142pt"
 viewBox="0.00 0.00 256.00 142.00" xmlns="http://www.w3.org/2000/svg" xmlns:xlink="http://www.w3.org/1999/xlink">
<g id="graph0" class="graph" transform="scale(1 1) rotate(0) translate(4 138)">
<title>_i2c_task_tx</title>
<polygon fill="white" stroke="none" points="-4,4 -4,-138 252,-138 252,4 -4,4"/>
<!-- Node81 -->
<g id="node1" class="node"><title>Node81</title>
<polygon fill="#bfbfbf" stroke="black" points="0,-57.5 0,-76.5 75,-76.5 75,-57.5 0,-57.5"/>
<text text-anchor="middle" x="37.5" y="-64.5" font-family="Helvetica,sans-Serif" font-size="10.00">_i2c_task_tx</text>
</g>
<!-- Node82 -->
<g id="node2" class="node"><title>Node82</title>
<g id="a_node2"><a xlink:href="task__monitor_8c.xhtml#ad3bca8672de4a4773999e28299cdc195" target="_top" xlink:title="Register task to monitor. ">
<polygon fill="white" stroke="red" points="118.5,-114.5 118.5,-133.5 240.5,-133.5 240.5,-114.5 118.5,-114.5"/>
<text text-anchor="middle" x="179.5" y="-121.5" font-family="Helvetica,sans-Serif" font-size="10.00">monitor_task_register</text>
</a>
</g>
</g>
<!-- Node81&#45;&gt;Node82 -->
<g id="edge1" class="edge"><title>Node81&#45;&gt;Node82</title>
<path fill="none" stroke="midnightblue" d="M54.4534,-76.6017C68.8463,-84.9601 90.7968,-96.9639 111,-105 116.865,-107.333 123.122,-109.5 129.373,-111.473"/>
<polygon fill="midnightblue" stroke="midnightblue" points="128.549,-114.88 139.133,-114.409 130.565,-108.176 128.549,-114.88"/>
</g>
<!-- Node93 -->
<g id="node3" class="node"><title>Node93</title>
<g id="a_node3"><a xlink:href="task__monitor_8c.xhtml#a0c7f7f8017a34d24de6b5c6fd90fbfe3" target="_top" xlink:title="Reset counter to indicate that task is alive. ">
<polygon fill="white" stroke="red" points="126,-76.5 126,-95.5 233,-95.5 233,-76.5 126,-76.5"/>
<text text-anchor="middle" x="179.5" y="-83.5" font-family="Helvetica,sans-Serif" font-size="10.00">monitor_task_alive</text>
</a>
</g>
</g>
<!-- Node81&#45;&gt;Node93 -->
<g id="edge2" class="edge"><title>Node81&#45;&gt;Node93</title>
<path fill="none" stroke="midnightblue" d="M75.2834,-71.992C87.7349,-73.6819 102.012,-75.6195 115.896,-77.5038"/>
<polygon fill="midnightblue" stroke="midnightblue" points="115.526,-80.9855 125.905,-78.8622 116.467,-74.0491 115.526,-80.9855"/>
</g>
<!-- Node94 -->
<g id="node4" class="node"><title>Node94</title>
<g id="a_node4"><a xlink:href="xtio__i2c_8c.xhtml#a8bc0f7bf628075840b944c9bceefc376" target="_top" xlink:title="xtio_i2c_send">
<polygon fill="white" stroke="black" points="139,-38.5 139,-57.5 220,-57.5 220,-38.5 139,-38.5"/>
<text text-anchor="middle" x="179.5" y="-45.5" font-family="Helvetica,sans-Serif" font-size="10.00">xtio_i2c_send</text>
</a>
</g>
</g>
<!-- Node81&#45;&gt;Node94 -->
<g id="edge3" class="edge"><title>Node81&#45;&gt;Node94</title>
<path fill="none" stroke="midnightblue" d="M75.2834,-62.008C91.537,-59.8021 110.901,-57.1742 128.442,-54.7936"/>
<polygon fill="midnightblue" stroke="midnightblue" points="129.084,-58.2387 138.522,-53.4256 128.142,-51.3023 129.084,-58.2387"/>
</g>
<!-- Node95 -->
<g id="node5" class="node"><title>Node95</title>
<g id="a_node5"><a xlink:href="xtio__i2c_8c.xhtml#ab20d1bff556234c6446a0f047564d584" target="_top" xlink:title="xtio_i2c_send_completed">
<polygon fill="white" stroke="black" points="111,-0.5 111,-19.5 248,-19.5 248,-0.5 111,-0.5"/>
<text text-anchor="middle" x="179.5" y="-7.5" font-family="Helvetica,sans-Serif" font-size="10.00">xtio_i2c_send_completed</text>
</a>
</g>
</g>
<!-- Node81&#45;&gt;Node95 -->
<g id="edge4" class="edge"><title>Node81&#45;&gt;Node95</title>
<path fill="none" stroke="midnightblue" d="M54.4534,-57.3983C68.8463,-49.0399 90.7968,-37.0361 111,-29 116.865,-26.6673 123.122,-24.5001 129.373,-22.5272"/>
<polygon fill="midnightblue" stroke="midnightblue" points="130.565,-25.8235 139.133,-19.5908 128.549,-19.1203 130.565,-25.8235"/>
</g>
</g>
</svg>
