<?xml version="1.0" encoding="UTF-8" standalone="no"?>
<!DOCTYPE svg PUBLIC "-//W3C//DTD SVG 1.1//EN"
 "http://www.w3.org/Graphics/SVG/1.1/DTD/svg11.dtd">
<!-- Generated by graphviz version 2.38.0 (20140413.2041)
 -->
<!-- Title: src/hal/x4m0x_s70/xtio_i2c.c Pages: 1 -->
<svg width="468pt" height="95pt"
 viewBox="0.00 0.00 467.50 95.00" xmlns="http://www.w3.org/2000/svg" xmlns:xlink="http://www.w3.org/1999/xlink">
<g id="graph0" class="graph" transform="scale(1 1) rotate(0) translate(4 91)">
<title>src/hal/x4m0x_s70/xtio_i2c.c</title>
<polygon fill="white" stroke="none" points="-4,4 -4,-91 463.5,-91 463.5,4 -4,4"/>
<!-- Node0 -->
<g id="node1" class="node"><title>Node0</title>
<polygon fill="#bfbfbf" stroke="black" points="161.5,-56.5 161.5,-86.5 287.5,-86.5 287.5,-56.5 161.5,-56.5"/>
<text text-anchor="start" x="169.5" y="-74.5" font-family="Helvetica,sans-Serif" font-size="10.00">src/hal/x4m0x_s70/xtio</text>
<text text-anchor="middle" x="224.5" y="-63.5" font-family="Helvetica,sans-Serif" font-size="10.00">_i2c.c</text>
</g>
<!-- Node1 -->
<g id="node2" class="node"><title>Node1</title>
<g id="a_node2"><a xlink:href="board_8h.xhtml" target="_top" xlink:title="Definition of SAM E70 Xplained board characteristics, PIOs and external components interface...">
<polygon fill="white" stroke="black" points="0,-0.5 0,-19.5 53,-19.5 53,-0.5 0,-0.5"/>
<text text-anchor="middle" x="26.5" y="-7.5" font-family="Helvetica,sans-Serif" font-size="10.00">board.h</text>
</a>
</g>
</g>
<!-- Node0&#45;&gt;Node1 -->
<g id="edge1" class="edge"><title>Node0&#45;&gt;Node1</title>
<path fill="none" stroke="midnightblue" d="M177.827,-56.4747C142.751,-45.934 95.3761,-31.6976 63.0359,-21.9792"/>
<polygon fill="midnightblue" stroke="midnightblue" points="63.683,-18.5191 53.0988,-18.9931 61.6684,-25.223 63.683,-18.5191"/>
</g>
<!-- Node2 -->
<g id="node3" class="node"><title>Node2</title>
<g id="a_node3"><a xlink:href="xtio__i2c_8h.xhtml" target="_top" xlink:title="Local header file for xtio I2C functions. ">
<polygon fill="white" stroke="red" points="71.5,-0.5 71.5,-19.5 133.5,-19.5 133.5,-0.5 71.5,-0.5"/>
<text text-anchor="middle" x="102.5" y="-7.5" font-family="Helvetica,sans-Serif" font-size="10.00">xtio_i2c.h</text>
</a>
</g>
</g>
<!-- Node0&#45;&gt;Node2 -->
<g id="edge2" class="edge"><title>Node0&#45;&gt;Node2</title>
<path fill="none" stroke="midnightblue" d="M195.588,-56.3993C175.484,-46.5945 148.879,-33.6194 129.262,-24.052"/>
<polygon fill="midnightblue" stroke="midnightblue" points="130.774,-20.8955 120.252,-19.6578 127.706,-27.1872 130.774,-20.8955"/>
</g>
<!-- Node4 -->
<g id="node4" class="node"><title>Node4</title>
<g id="a_node4"><a xlink:href="xep__hal_8h.xhtml" target="_top" xlink:title="Brief description. ">
<polygon fill="white" stroke="red" points="151.5,-0.5 151.5,-19.5 213.5,-19.5 213.5,-0.5 151.5,-0.5"/>
<text text-anchor="middle" x="182.5" y="-7.5" font-family="Helvetica,sans-Serif" font-size="10.00">xep_hal.h</text>
</a>
</g>
</g>
<!-- Node0&#45;&gt;Node4 -->
<g id="edge3" class="edge"><title>Node0&#45;&gt;Node4</title>
<path fill="none" stroke="midnightblue" d="M214.547,-56.3993C208.506,-47.8424 200.762,-36.8708 194.399,-27.857"/>
<polygon fill="midnightblue" stroke="midnightblue" points="197.238,-25.8091 188.611,-19.6578 191.519,-29.8459 197.238,-25.8091"/>
</g>
<!-- Node6 -->
<g id="node5" class="node"><title>Node6</title>
<polygon fill="white" stroke="#bfbfbf" points="232,-0.5 232,-19.5 303,-19.5 303,-0.5 232,-0.5"/>
<text text-anchor="middle" x="267.5" y="-7.5" font-family="Helvetica,sans-Serif" font-size="10.00">FreeRTOS.h</text>
</g>
<!-- Node0&#45;&gt;Node6 -->
<g id="edge4" class="edge"><title>Node0&#45;&gt;Node6</title>
<path fill="none" stroke="midnightblue" d="M234.69,-56.3993C240.874,-47.8424 248.803,-36.8708 255.318,-27.857"/>
<polygon fill="midnightblue" stroke="midnightblue" points="258.222,-29.8129 261.243,-19.6578 252.549,-25.7127 258.222,-29.8129"/>
</g>
<!-- Node7 -->
<g id="node6" class="node"><title>Node7</title>
<polygon fill="white" stroke="#bfbfbf" points="321.5,-0.5 321.5,-19.5 367.5,-19.5 367.5,-0.5 321.5,-0.5"/>
<text text-anchor="middle" x="344.5" y="-7.5" font-family="Helvetica,sans-Serif" font-size="10.00">task.h</text>
</g>
<!-- Node0&#45;&gt;Node7 -->
<g id="edge5" class="edge"><title>Node0&#45;&gt;Node7</title>
<path fill="none" stroke="midnightblue" d="M252.938,-56.3993C272.623,-46.6391 298.643,-33.7373 317.913,-24.1826"/>
<polygon fill="midnightblue" stroke="midnightblue" points="319.635,-27.2358 327.039,-19.6578 316.525,-20.9644 319.635,-27.2358"/>
</g>
<!-- Node8 -->
<g id="node7" class="node"><title>Node8</title>
<g id="a_node7"><a xlink:href="xtmemory_8h.xhtml" target="_top" xlink:title="Platform independent mutex mechanism. ">
<polygon fill="white" stroke="red" points="385.5,-0.5 385.5,-19.5 459.5,-19.5 459.5,-0.5 385.5,-0.5"/>
<text text-anchor="middle" x="422.5" y="-7.5" font-family="Helvetica,sans-Serif" font-size="10.00">xtmemory.h</text>
</a>
</g>
</g>
<!-- Node0&#45;&gt;Node8 -->
<g id="edge6" class="edge"><title>Node0&#45;&gt;Node8</title>
<path fill="none" stroke="midnightblue" d="M271.173,-56.4747C305.63,-46.1201 351.956,-32.1989 384.238,-22.4979"/>
<polygon fill="midnightblue" stroke="midnightblue" points="385.623,-25.7363 394.193,-19.5064 383.609,-19.0324 385.623,-25.7363"/>
</g>
</g>
</svg>
