<?xml version="1.0" encoding="UTF-8" standalone="no"?>
<!DOCTYPE svg PUBLIC "-//W3C//DTD SVG 1.1//EN"
 "http://www.w3.org/Graphics/SVG/1.1/DTD/svg11.dtd">
<!-- Generated by graphviz version 2.38.0 (20140413.2041)
 -->
<!-- Title: xtio_flash_store Pages: 1 -->
<svg width="279pt" height="344pt"
 viewBox="0.00 0.00 279.00 343.50" xmlns="http://www.w3.org/2000/svg" xmlns:xlink="http://www.w3.org/1999/xlink">
<g id="graph0" class="graph" transform="scale(1 1) rotate(0) translate(4 339.5)">
<title>xtio_flash_store</title>
<polygon fill="white" stroke="none" points="-4,4 -4,-339.5 275,-339.5 275,4 -4,4"/>
<!-- Node94 -->
<g id="node1" class="node"><title>Node94</title>
<polygon fill="#bfbfbf" stroke="black" points="0,-152.5 0,-171.5 92,-171.5 92,-152.5 0,-152.5"/>
<text text-anchor="middle" x="46" y="-159.5" font-family="Helvetica,sans-Serif" font-size="10.00">xtio_flash_store</text>
</g>
<!-- Node95 -->
<g id="node2" class="node"><title>Node95</title>
<g id="a_node2"><a xlink:href="xep__hal_8h.xhtml#a31dcedbddd6f896d0157ce276d449fd4" target="_top" xlink:title="Checks if external memory is enabled. ">
<polygon fill="white" stroke="black" points="141.5,-305 141.5,-335 257.5,-335 257.5,-305 141.5,-305"/>
<text text-anchor="start" x="149.5" y="-323" font-family="Helvetica,sans-Serif" font-size="10.00">xt_external_memory</text>
<text text-anchor="middle" x="199.5" y="-312" font-family="Helvetica,sans-Serif" font-size="10.00">_enabled</text>
</a>
</g>
</g>
<!-- Node94&#45;&gt;Node95 -->
<g id="edge1" class="edge"><title>Node94&#45;&gt;Node95</title>
<path fill="none" stroke="midnightblue" d="M50.2417,-171.571C58.9196,-195.789 84.9842,-260.053 128,-295 130.073,-296.684 132.267,-298.258 134.55,-299.73"/>
<polygon fill="midnightblue" stroke="midnightblue" points="133.3,-303.044 143.729,-304.914 136.743,-296.949 133.3,-303.044"/>
</g>
<!-- Node96 -->
<g id="node3" class="node"><title>Node96</title>
<g id="a_node3"><a xlink:href="xtmemory_8h.xhtml#ac094f55ba76fe2ae6e6b584f62ede7e0" target="_top" xlink:title="Allocate memory from default location. ">
<polygon fill="white" stroke="red" points="129,-266.5 129,-285.5 270,-285.5 270,-266.5 129,-266.5"/>
<text text-anchor="middle" x="199.5" y="-273.5" font-family="Helvetica,sans-Serif" font-size="10.00">xtmemory_malloc_default</text>
</a>
</g>
</g>
<!-- Node94&#45;&gt;Node96 -->
<g id="edge2" class="edge"><title>Node94&#45;&gt;Node96</title>
<path fill="none" stroke="midnightblue" d="M52.5212,-171.763C63.9803,-191.112 92.2813,-234.406 128,-257 131.339,-259.112 134.911,-260.992 138.608,-262.664"/>
<polygon fill="midnightblue" stroke="midnightblue" points="137.413,-265.956 147.998,-266.408 140.006,-259.454 137.413,-265.956"/>
</g>
<!-- Node105 -->
<g id="node4" class="node"><title>Node105</title>
<g id="a_node4"><a xlink:href="xtsemaphore_8h.xhtml#a397a6e9c0a37ad527526e2c8ad9c5c7e" target="_top" xlink:title="Create handle to mutex. ">
<polygon fill="white" stroke="black" points="159.5,-228.5 159.5,-247.5 239.5,-247.5 239.5,-228.5 159.5,-228.5"/>
<text text-anchor="middle" x="199.5" y="-235.5" font-family="Helvetica,sans-Serif" font-size="10.00">xtlock_create</text>
</a>
</g>
</g>
<!-- Node94&#45;&gt;Node105 -->
<g id="edge3" class="edge"><title>Node94&#45;&gt;Node105</title>
<path fill="none" stroke="midnightblue" d="M58.0121,-171.673C72.9055,-184.283 100.752,-206.231 128,-219 134.708,-222.143 142.027,-224.842 149.328,-227.134"/>
<polygon fill="midnightblue" stroke="midnightblue" points="148.636,-230.578 159.215,-230.013 150.592,-223.857 148.636,-230.578"/>
</g>
<!-- Node106 -->
<g id="node5" class="node"><title>Node106</title>
<g id="a_node5"><a xlink:href="xtsemaphore_8h.xhtml#a43f4af132e6f6f5cda6ba0ba20e0895d" target="_top" xlink:title="Lock mutex. ">
<polygon fill="white" stroke="black" points="165.5,-190.5 165.5,-209.5 233.5,-209.5 233.5,-190.5 165.5,-190.5"/>
<text text-anchor="middle" x="199.5" y="-197.5" font-family="Helvetica,sans-Serif" font-size="10.00">xtlock_lock</text>
</a>
</g>
</g>
<!-- Node94&#45;&gt;Node106 -->
<g id="edge4" class="edge"><title>Node94&#45;&gt;Node106</title>
<path fill="none" stroke="midnightblue" d="M85.2298,-171.589C106.666,-176.966 133.466,-183.688 155.615,-189.243"/>
<polygon fill="midnightblue" stroke="midnightblue" points="154.877,-192.667 165.428,-191.705 156.58,-185.877 154.877,-192.667"/>
</g>
<!-- Node107 -->
<g id="node6" class="node"><title>Node107</title>
<g id="a_node6"><a xlink:href="flashd_8h.xhtml#a34e9d4df1bed173204d4be83b720b24f" target="_top" xlink:title="Erases flash by pages. ">
<polygon fill="white" stroke="red" points="141.5,-152.5 141.5,-171.5 257.5,-171.5 257.5,-152.5 141.5,-152.5"/>
<text text-anchor="middle" x="199.5" y="-159.5" font-family="Helvetica,sans-Serif" font-size="10.00">FLASHD_ErasePages</text>
</a>
</g>
</g>
<!-- Node94&#45;&gt;Node107 -->
<g id="edge5" class="edge"><title>Node94&#45;&gt;Node107</title>
<path fill="none" stroke="midnightblue" d="M92.0448,-162C104.347,-162 117.951,-162 131.204,-162"/>
<polygon fill="midnightblue" stroke="midnightblue" points="131.244,-165.5 141.244,-162 131.244,-158.5 131.244,-165.5"/>
</g>
<!-- Node110 -->
<g id="node7" class="node"><title>Node110</title>
<g id="a_node7"><a xlink:href="xtio__flash_8c.xhtml#a274458d21783c0dd4b1053430db3402e" target="_top" xlink:title="flash_in_progress_callback">
<polygon fill="white" stroke="black" points="128,-114.5 128,-133.5 271,-133.5 271,-114.5 128,-114.5"/>
<text text-anchor="middle" x="199.5" y="-121.5" font-family="Helvetica,sans-Serif" font-size="10.00">flash_in_progress_callback</text>
</a>
</g>
</g>
<!-- Node94&#45;&gt;Node110 -->
<g id="edge6" class="edge"><title>Node94&#45;&gt;Node110</title>
<path fill="none" stroke="midnightblue" d="M85.2298,-152.411C105.132,-147.419 129.657,-141.268 150.791,-135.967"/>
<polygon fill="midnightblue" stroke="midnightblue" points="151.697,-139.348 160.545,-133.52 149.994,-132.558 151.697,-139.348"/>
</g>
<!-- Node111 -->
<g id="node8" class="node"><title>Node111</title>
<g id="a_node8"><a xlink:href="startup__same70_8c.xhtml#ab5e09814056d617c521549e542639b7e" target="_top" xlink:title="SysTick_Handler">
<polygon fill="white" stroke="black" points="152,-76.5 152,-95.5 247,-95.5 247,-76.5 152,-76.5"/>
<text text-anchor="middle" x="199.5" y="-83.5" font-family="Helvetica,sans-Serif" font-size="10.00">SysTick_Handler</text>
</a>
</g>
</g>
<!-- Node94&#45;&gt;Node111 -->
<g id="edge7" class="edge"><title>Node94&#45;&gt;Node111</title>
<path fill="none" stroke="midnightblue" d="M58.0121,-152.327C72.9055,-139.717 100.752,-117.769 128,-105 133.022,-102.647 138.386,-100.543 143.829,-98.6718"/>
<polygon fill="midnightblue" stroke="midnightblue" points="145.184,-101.914 153.656,-95.5521 143.065,-95.2424 145.184,-101.914"/>
</g>
<!-- Node112 -->
<g id="node9" class="node"><title>Node112</title>
<g id="a_node9"><a xlink:href="xtsemaphore_8h.xhtml#a06bdc2b347e98a86047a4a29ab698c6c" target="_top" xlink:title="Unlock mutex. ">
<polygon fill="white" stroke="black" points="159.5,-38.5 159.5,-57.5 239.5,-57.5 239.5,-38.5 159.5,-38.5"/>
<text text-anchor="middle" x="199.5" y="-45.5" font-family="Helvetica,sans-Serif" font-size="10.00">xtlock_unlock</text>
</a>
</g>
</g>
<!-- Node94&#45;&gt;Node112 -->
<g id="edge8" class="edge"><title>Node94&#45;&gt;Node112</title>
<path fill="none" stroke="midnightblue" d="M52.5212,-152.237C63.9803,-132.888 92.2813,-89.594 128,-67 134.629,-62.807 142.172,-59.531 149.799,-56.9736"/>
<polygon fill="midnightblue" stroke="midnightblue" points="150.858,-60.3103 159.445,-54.1036 148.862,-53.601 150.858,-60.3103"/>
</g>
<!-- Node113 -->
<g id="node10" class="node"><title>Node113</title>
<g id="a_node10"><a xlink:href="flashd_8h.xhtml#aaf0c7fb937ecf006c011ab50928ef921" target="_top" xlink:title="Writes a data buffer in the internal flash. ">
<polygon fill="white" stroke="red" points="157.5,-0.5 157.5,-19.5 241.5,-19.5 241.5,-0.5 157.5,-0.5"/>
<text text-anchor="middle" x="199.5" y="-7.5" font-family="Helvetica,sans-Serif" font-size="10.00">FLASHD_Write</text>
</a>
</g>
</g>
<!-- Node94&#45;&gt;Node113 -->
<g id="edge9" class="edge"><title>Node94&#45;&gt;Node113</title>
<path fill="none" stroke="midnightblue" d="M50.0843,-152.227C58.3928,-127.536 83.6621,-62.2539 128,-29 133.856,-24.6076 140.658,-21.2301 147.681,-18.633"/>
<polygon fill="midnightblue" stroke="midnightblue" points="148.865,-21.9292 157.326,-15.5533 146.735,-15.2609 148.865,-21.9292"/>
</g>
</g>
</svg>
