<?xml version="1.0" encoding="UTF-8" standalone="no"?>
<!DOCTYPE svg PUBLIC "-//W3C//DTD SVG 1.1//EN"
 "http://www.w3.org/Graphics/SVG/1.1/DTD/svg11.dtd">
<!-- Generated by graphviz version 2.38.0 (20140413.2041)
 -->
<!-- Title: xtio_flash_erase Pages: 1 -->
<svg width="261pt" height="116pt"
 viewBox="0.00 0.00 261.00 115.50" xmlns="http://www.w3.org/2000/svg" xmlns:xlink="http://www.w3.org/1999/xlink">
<g id="graph0" class="graph" transform="scale(1 1) rotate(0) translate(4 111.5)">
<title>xtio_flash_erase</title>
<polygon fill="white" stroke="none" points="-4,4 -4,-111.5 257,-111.5 257,4 -4,4"/>
<!-- Node43 -->
<g id="node1" class="node"><title>Node43</title>
<polygon fill="#bfbfbf" stroke="black" points="0,-38.5 0,-57.5 94,-57.5 94,-38.5 0,-38.5"/>
<text text-anchor="middle" x="47" y="-45.5" font-family="Helvetica,sans-Serif" font-size="10.00">xtio_flash_erase</text>
</g>
<!-- Node44 -->
<g id="node2" class="node"><title>Node44</title>
<g id="a_node2"><a xlink:href="xfs_8c.xhtml#a7b9303aef25ff6fcc0ac8087eca101d4" target="_top" xlink:title="xfs_commit_allocation\l_table">
<polygon fill="white" stroke="red" points="130,-77 130,-107 253,-107 253,-77 130,-77"/>
<text text-anchor="start" x="138" y="-95" font-family="Helvetica,sans-Serif" font-size="10.00">xfs_commit_allocation</text>
<text text-anchor="middle" x="191.5" y="-84" font-family="Helvetica,sans-Serif" font-size="10.00">_table</text>
</a>
</g>
</g>
<!-- Node43&#45;&gt;Node44 -->
<g id="edge1" class="edge"><title>Node43&#45;&gt;Node44</title>
<path fill="none" stroke="midnightblue" d="M88.8042,-60.5992C105.301,-65.6931 124.481,-71.6151 141.709,-76.9346"/>
<polygon fill="midnightblue" stroke="midnightblue" points="89.5079,-57.1535 78.9204,-57.5473 87.4426,-63.8419 89.5079,-57.1535"/>
</g>
<!-- Node62 -->
<g id="node3" class="node"><title>Node62</title>
<g id="a_node3"><a xlink:href="xfs_8h.xhtml#a1944fe2fe57fccee85079970b8f38432" target="_top" xlink:title="Clears the flash area used to store file data. ">
<polygon fill="white" stroke="red" points="153,-38.5 153,-57.5 230,-57.5 230,-38.5 153,-38.5"/>
<text text-anchor="middle" x="191.5" y="-45.5" font-family="Helvetica,sans-Serif" font-size="10.00">xfs_clear_file</text>
</a>
</g>
</g>
<!-- Node43&#45;&gt;Node62 -->
<g id="edge2" class="edge"><title>Node43&#45;&gt;Node62</title>
<path fill="none" stroke="midnightblue" d="M104.652,-48C120.739,-48 137.864,-48 152.552,-48"/>
<polygon fill="midnightblue" stroke="midnightblue" points="104.266,-44.5001 94.2657,-48 104.266,-51.5001 104.266,-44.5001"/>
</g>
<!-- Node65 -->
<g id="node4" class="node"><title>Node65</title>
<g id="a_node4"><a xlink:href="xfs_8h.xhtml#a975b6f2d064a2205832dfc2b7e0b7799" target="_top" xlink:title="Formats the file system to an empty state. ">
<polygon fill="white" stroke="red" points="157.5,-0.5 157.5,-19.5 225.5,-19.5 225.5,-0.5 157.5,-0.5"/>
<text text-anchor="middle" x="191.5" y="-7.5" font-family="Helvetica,sans-Serif" font-size="10.00">xfs_format</text>
</a>
</g>
</g>
<!-- Node43&#45;&gt;Node65 -->
<g id="edge3" class="edge"><title>Node43&#45;&gt;Node65</title>
<path fill="none" stroke="midnightblue" d="M93.8283,-35.7791C114.548,-30.2538 138.569,-23.8482 157.483,-18.8045"/>
<polygon fill="midnightblue" stroke="midnightblue" points="92.7193,-32.4525 83.9588,-38.411 94.523,-39.2161 92.7193,-32.4525"/>
</g>
</g>
</svg>
