<?xml version="1.0" encoding="UTF-8" standalone="no"?>
<!DOCTYPE svg PUBLIC "-//W3C//DTD SVG 1.1//EN"
 "http://www.w3.org/Graphics/SVG/1.1/DTD/svg11.dtd">
<!-- Generated by graphviz version 2.38.0 (20140413.2041)
 -->
<!-- Title: _usb_task_init Pages: 1 -->
<svg width="259pt" height="142pt"
 viewBox="0.00 0.00 259.00 142.00" xmlns="http://www.w3.org/2000/svg" xmlns:xlink="http://www.w3.org/1999/xlink">
<g id="graph0" class="graph" transform="scale(1 1) rotate(0) translate(4 138)">
<title>_usb_task_init</title>
<polygon fill="white" stroke="none" points="-4,4 -4,-138 255,-138 255,4 -4,4"/>
<!-- Node364 -->
<g id="node1" class="node"><title>Node364</title>
<polygon fill="#bfbfbf" stroke="black" points="0,-57.5 0,-76.5 84,-76.5 84,-57.5 0,-57.5"/>
<text text-anchor="middle" x="42" y="-64.5" font-family="Helvetica,sans-Serif" font-size="10.00">_usb_task_init</text>
</g>
<!-- Node365 -->
<g id="node2" class="node"><title>Node365</title>
<g id="a_node2"><a xlink:href="xep__hal_8h.xhtml#af1f57228b9448df87a3f5f30968b3fa8" target="_top" xlink:title="Gets the operation mode of the module. ">
<polygon fill="white" stroke="red" points="120,-114.5 120,-133.5 251,-133.5 251,-114.5 120,-114.5"/>
<text text-anchor="middle" x="185.5" y="-121.5" font-family="Helvetica,sans-Serif" font-size="10.00">xt_get_operation_mode</text>
</a>
</g>
</g>
<!-- Node364&#45;&gt;Node365 -->
<g id="edge1" class="edge"><title>Node364&#45;&gt;Node365</title>
<path fill="none" stroke="midnightblue" d="M60.349,-76.6363C75.7062,-84.9039 98.8945,-96.7543 120,-105 125.851,-107.286 132.092,-109.45 138.301,-111.444"/>
<polygon fill="midnightblue" stroke="midnightblue" points="137.383,-114.823 147.971,-114.427 139.447,-108.134 137.383,-114.823"/>
</g>
<!-- Node381 -->
<g id="node3" class="node"><title>Node381</title>
<g id="a_node3"><a xlink:href="xtio__usb_8c.xhtml#abf3075f0b4513b7a321a7d359a37d4b4" target="_top" xlink:title="xtio_usb_init">
<polygon fill="white" stroke="red" points="147.5,-76.5 147.5,-95.5 223.5,-95.5 223.5,-76.5 147.5,-76.5"/>
<text text-anchor="middle" x="185.5" y="-83.5" font-family="Helvetica,sans-Serif" font-size="10.00">xtio_usb_init</text>
</a>
</g>
</g>
<!-- Node364&#45;&gt;Node381 -->
<g id="edge2" class="edge"><title>Node364&#45;&gt;Node381</title>
<path fill="none" stroke="midnightblue" d="M84.308,-72.5467C100.791,-74.7599 119.869,-77.3216 136.926,-79.612"/>
<polygon fill="midnightblue" stroke="midnightblue" points="136.868,-83.1355 147.244,-80.9975 137.799,-76.1977 136.868,-83.1355"/>
</g>
<!-- Node427 -->
<g id="node4" class="node"><title>Node427</title>
<g id="a_node4"><a xlink:href="xtio__serial__com_8c.xhtml#afdbe66e3a8423057af6855132b1965ee" target="_top" xlink:title="_usb_task_rx">
<polygon fill="white" stroke="red" points="146,-38.5 146,-57.5 225,-57.5 225,-38.5 146,-38.5"/>
<text text-anchor="middle" x="185.5" y="-45.5" font-family="Helvetica,sans-Serif" font-size="10.00">_usb_task_rx</text>
</a>
</g>
</g>
<!-- Node364&#45;&gt;Node427 -->
<g id="edge3" class="edge"><title>Node364&#45;&gt;Node427</title>
<path fill="none" stroke="midnightblue" d="M84.308,-61.4533C100.386,-59.2945 118.932,-56.8042 135.664,-54.5574"/>
<polygon fill="midnightblue" stroke="midnightblue" points="136.364,-57.9949 145.81,-53.1952 135.433,-51.0572 136.364,-57.9949"/>
</g>
<!-- Node454 -->
<g id="node5" class="node"><title>Node454</title>
<g id="a_node5"><a xlink:href="xtio__serial__com_8c.xhtml#a18a89b2e10b293c135602a32bb07cbba" target="_top" xlink:title="_usb_task_tx">
<polygon fill="white" stroke="red" points="146,-0.5 146,-19.5 225,-19.5 225,-0.5 146,-0.5"/>
<text text-anchor="middle" x="185.5" y="-7.5" font-family="Helvetica,sans-Serif" font-size="10.00">_usb_task_tx</text>
</a>
</g>
</g>
<!-- Node364&#45;&gt;Node454 -->
<g id="edge4" class="edge"><title>Node364&#45;&gt;Node454</title>
<path fill="none" stroke="midnightblue" d="M60.349,-57.3637C75.7062,-49.0961 98.8945,-37.2457 120,-29 125.851,-26.714 132.092,-24.5495 138.301,-22.5565"/>
<polygon fill="midnightblue" stroke="midnightblue" points="139.447,-25.8658 147.971,-19.5729 137.383,-19.177 139.447,-25.8658"/>
</g>
</g>
</svg>
