<?xml version="1.0" encoding="UTF-8" standalone="no"?>
<!DOCTYPE svg PUBLIC "-//W3C//DTD SVG 1.1//EN"
 "http://www.w3.org/Graphics/SVG/1.1/DTD/svg11.dtd">
<!-- Generated by graphviz version 2.38.0 (20140413.2041)
 -->
<!-- Title: xtmemory_malloc_fast Pages: 1 -->
<svg width="311pt" height="104pt"
 viewBox="0.00 0.00 311.00 104.00" xmlns="http://www.w3.org/2000/svg" xmlns:xlink="http://www.w3.org/1999/xlink">
<g id="graph0" class="graph" transform="scale(1 1) rotate(0) translate(4 100)">
<title>xtmemory_malloc_fast</title>
<polygon fill="white" stroke="none" points="-4,4 -4,-100 307,-100 307,4 -4,4"/>
<!-- Node148 -->
<g id="node1" class="node"><title>Node148</title>
<polygon fill="#bfbfbf" stroke="black" points="0,-38.5 0,-57.5 126,-57.5 126,-38.5 0,-38.5"/>
<text text-anchor="middle" x="63" y="-45.5" font-family="Helvetica,sans-Serif" font-size="10.00">xtmemory_malloc_fast</text>
</g>
<!-- Node149 -->
<g id="node2" class="node"><title>Node149</title>
<g id="a_node2"><a xlink:href="xep__hal_8h.xhtml#acf93e159c610831f349d07c00962f80d" target="_top" xlink:title="Checks if fast memory is enabled. ">
<polygon fill="white" stroke="black" points="163.5,-76.5 163.5,-95.5 301.5,-95.5 301.5,-76.5 163.5,-76.5"/>
<text text-anchor="middle" x="232.5" y="-83.5" font-family="Helvetica,sans-Serif" font-size="10.00">xt_fast_memory_enabled</text>
</a>
</g>
</g>
<!-- Node148&#45;&gt;Node149 -->
<g id="edge1" class="edge"><title>Node148&#45;&gt;Node149</title>
<path fill="none" stroke="midnightblue" d="M106.267,-57.589C128.57,-62.6487 156.123,-68.8996 179.702,-74.2488"/>
<polygon fill="midnightblue" stroke="midnightblue" points="179.01,-77.6807 189.537,-76.4799 180.559,-70.8542 179.01,-77.6807"/>
</g>
<!-- Node150 -->
<g id="node3" class="node"><title>Node150</title>
<g id="a_node3"><a xlink:href="heap__4__fast_8h.xhtml#a90c12a8560c6f7e48d14db229fe76ca6" target="_top" xlink:title="pvPortMalloc_fast">
<polygon fill="white" stroke="red" points="182,-38.5 182,-57.5 283,-57.5 283,-38.5 182,-38.5"/>
<text text-anchor="middle" x="232.5" y="-45.5" font-family="Helvetica,sans-Serif" font-size="10.00">pvPortMalloc_fast</text>
</a>
</g>
</g>
<!-- Node148&#45;&gt;Node150 -->
<g id="edge2" class="edge"><title>Node148&#45;&gt;Node150</title>
<path fill="none" stroke="midnightblue" d="M126.371,-48C141.259,-48 157.113,-48 171.873,-48"/>
<polygon fill="midnightblue" stroke="midnightblue" points="171.893,-51.5001 181.893,-48 171.892,-44.5001 171.893,-51.5001"/>
</g>
<!-- Node158 -->
<g id="node4" class="node"><title>Node158</title>
<g id="a_node4"><a xlink:href="xtmemory__xep_8c.xhtml#ac094f55ba76fe2ae6e6b584f62ede7e0" target="_top" xlink:title="Allocate memory from default location. ">
<polygon fill="white" stroke="red" points="162,-0.5 162,-19.5 303,-19.5 303,-0.5 162,-0.5"/>
<text text-anchor="middle" x="232.5" y="-7.5" font-family="Helvetica,sans-Serif" font-size="10.00">xtmemory_malloc_default</text>
</a>
</g>
</g>
<!-- Node148&#45;&gt;Node158 -->
<g id="edge3" class="edge"><title>Node148&#45;&gt;Node158</title>
<path fill="none" stroke="midnightblue" d="M106.267,-38.411C128.57,-33.3513 156.123,-27.1004 179.702,-21.7512"/>
<polygon fill="midnightblue" stroke="midnightblue" points="180.559,-25.1458 189.537,-19.5201 179.01,-18.3193 180.559,-25.1458"/>
</g>
</g>
</svg>
