<?xml version="1.0" encoding="UTF-8" standalone="no"?>
<!DOCTYPE svg PUBLIC "-//W3C//DTD SVG 1.1//EN"
 "http://www.w3.org/Graphics/SVG/1.1/DTD/svg11.dtd">
<!-- Generated by graphviz version 2.38.0 (20140413.2041)
 -->
<!-- Title: xtmemory_heap_available_default Pages: 1 -->
<svg width="432pt" height="61pt"
 viewBox="0.00 0.00 432.00 61.00" xmlns="http://www.w3.org/2000/svg" xmlns:xlink="http://www.w3.org/1999/xlink">
<g id="graph0" class="graph" transform="scale(1 1) rotate(0) translate(4 57)">
<title>xtmemory_heap_available_default</title>
<polygon fill="white" stroke="none" points="-4,4 -4,-57 428,-57 428,4 -4,4"/>
<!-- Node43 -->
<g id="node1" class="node"><title>Node43</title>
<polygon fill="#bfbfbf" stroke="black" points="0,-0.5 0,-30.5 143,-30.5 143,-0.5 0,-0.5"/>
<text text-anchor="start" x="8" y="-18.5" font-family="Helvetica,sans-Serif" font-size="10.00">xtmemory_heap_available</text>
<text text-anchor="middle" x="71.5" y="-7.5" font-family="Helvetica,sans-Serif" font-size="10.00">_default</text>
</g>
<!-- Node44 -->
<g id="node2" class="node"><title>Node44</title>
<g id="a_node2"><a xlink:href="xthousekeeping_8c.xhtml#ad5a7723fb96e5789fa7ecb2554da3b04" target="_top" xlink:title="xthousekeeping_trigger\l_crashdump">
<polygon fill="white" stroke="red" points="179,-22.5 179,-52.5 308,-52.5 308,-22.5 179,-22.5"/>
<text text-anchor="start" x="187" y="-40.5" font-family="Helvetica,sans-Serif" font-size="10.00">xthousekeeping_trigger</text>
<text text-anchor="middle" x="243.5" y="-29.5" font-family="Helvetica,sans-Serif" font-size="10.00">_crashdump</text>
</a>
</g>
</g>
<!-- Node43&#45;&gt;Node44 -->
<g id="edge1" class="edge"><title>Node43&#45;&gt;Node44</title>
<path fill="none" stroke="midnightblue" d="M153.195,-25.9428C161.819,-27.059 170.503,-28.1828 178.89,-29.2682"/>
<polygon fill="midnightblue" stroke="midnightblue" points="153.485,-22.4513 143.118,-24.6389 152.586,-29.3934 153.485,-22.4513"/>
</g>
<!-- Node47 -->
<g id="node3" class="node"><title>Node47</title>
<g id="a_node3"><a xlink:href="task__monitor_8c.xhtml#ad45490893a79383d6cd047fa3e4c3638" target="_top" xlink:title="task_monitor">
<polygon fill="white" stroke="red" points="344,-6 344,-25 424,-25 424,-6 344,-6"/>
<text text-anchor="middle" x="384" y="-13" font-family="Helvetica,sans-Serif" font-size="10.00">task_monitor</text>
</a>
</g>
</g>
<!-- Node43&#45;&gt;Node47 -->
<g id="edge3" class="edge"><title>Node43&#45;&gt;Node47</title>
<path fill="none" stroke="midnightblue" d="M153.371,-13.8222C162.022,-13.6902 170.693,-13.578 179,-13.5 236.331,-12.9617 250.672,-12.7358 308,-13.5 319.592,-13.6545 332.188,-13.9433 343.69,-14.2544"/>
<polygon fill="midnightblue" stroke="midnightblue" points="153.189,-10.3246 143.247,-13.9854 153.302,-17.3237 153.189,-10.3246"/>
</g>
<!-- Node44&#45;&gt;Node47 -->
<g id="edge2" class="edge"><title>Node44&#45;&gt;Node47</title>
<path fill="none" stroke="midnightblue" d="M318.13,-25.8042C327.028,-24.3909 335.829,-22.9929 343.942,-21.7042"/>
<polygon fill="midnightblue" stroke="midnightblue" points="317.402,-22.3759 308.075,-27.4014 318.5,-29.2892 317.402,-22.3759"/>
</g>
</g>
</svg>
