<?xml version="1.0" encoding="UTF-8" standalone="no"?>
<!DOCTYPE svg PUBLIC "-//W3C//DTD SVG 1.1//EN"
 "http://www.w3.org/Graphics/SVG/1.1/DTD/svg11.dtd">
<!-- Generated by graphviz version 2.38.0 (20140413.2041)
 -->
<!-- Title: xtmemory_heap_available_slow Pages: 1 -->
<svg width="362pt" height="78pt"
 viewBox="0.00 0.00 362.00 77.50" xmlns="http://www.w3.org/2000/svg" xmlns:xlink="http://www.w3.org/1999/xlink">
<g id="graph0" class="graph" transform="scale(1 1) rotate(0) translate(4 73.5)">
<title>xtmemory_heap_available_slow</title>
<polygon fill="white" stroke="none" points="-4,4 -4,-73.5 358,-73.5 358,4 -4,4"/>
<!-- Node62 -->
<g id="node1" class="node"><title>Node62</title>
<polygon fill="#bfbfbf" stroke="black" points="0,-22.5 0,-41.5 168,-41.5 168,-22.5 0,-22.5"/>
<text text-anchor="middle" x="84" y="-29.5" font-family="Helvetica,sans-Serif" font-size="10.00">xtmemory_heap_available_slow</text>
</g>
<!-- Node63 -->
<g id="node2" class="node"><title>Node63</title>
<g id="a_node2"><a xlink:href="xep__hal_8h.xhtml#a31dcedbddd6f896d0157ce276d449fd4" target="_top" xlink:title="Checks if external memory is enabled. ">
<polygon fill="white" stroke="black" points="221,-39 221,-69 337,-69 337,-39 221,-39"/>
<text text-anchor="start" x="229" y="-57" font-family="Helvetica,sans-Serif" font-size="10.00">xt_external_memory</text>
<text text-anchor="middle" x="279" y="-46" font-family="Helvetica,sans-Serif" font-size="10.00">_enabled</text>
</a>
</g>
</g>
<!-- Node62&#45;&gt;Node63 -->
<g id="edge1" class="edge"><title>Node62&#45;&gt;Node63</title>
<path fill="none" stroke="midnightblue" d="M168.25,-41.4896C182.396,-43.1021 196.929,-44.7587 210.602,-46.3173"/>
<polygon fill="midnightblue" stroke="midnightblue" points="210.538,-49.8326 220.87,-47.4878 211.331,-42.8776 210.538,-49.8326"/>
</g>
<!-- Node64 -->
<g id="node3" class="node"><title>Node64</title>
<g id="a_node3"><a xlink:href="heap__4__slow_8h.xhtml#a0d679a796b02bf05ba420938c5699952" target="_top" xlink:title="xPortGetFreeHeapSize_slow">
<polygon fill="white" stroke="black" points="204,-0.5 204,-19.5 354,-19.5 354,-0.5 204,-0.5"/>
<text text-anchor="middle" x="279" y="-7.5" font-family="Helvetica,sans-Serif" font-size="10.00">xPortGetFreeHeapSize_slow</text>
</a>
</g>
</g>
<!-- Node62&#45;&gt;Node64 -->
<g id="edge2" class="edge"><title>Node62&#45;&gt;Node64</title>
<path fill="none" stroke="midnightblue" d="M168.25,-22.5104C176.663,-21.5513 185.214,-20.5766 193.639,-19.6163"/>
<polygon fill="midnightblue" stroke="midnightblue" points="194.297,-23.064 203.836,-18.4539 193.504,-16.1091 194.297,-23.064"/>
</g>
</g>
</svg>
