<?xml version="1.0" encoding="UTF-8" standalone="no"?>
<!DOCTYPE svg PUBLIC "-//W3C//DTD SVG 1.1//EN"
 "http://www.w3.org/Graphics/SVG/1.1/DTD/svg11.dtd">
<!-- Generated by graphviz version 2.38.0 (20140413.2041)
 -->
<!-- Title: src/Tools/xtmemory_xep.c Pages: 1 -->
<svg width="575pt" height="95pt"
 viewBox="0.00 0.00 575.00 95.00" xmlns="http://www.w3.org/2000/svg" xmlns:xlink="http://www.w3.org/1999/xlink">
<g id="graph0" class="graph" transform="scale(1 1) rotate(0) translate(4 91)">
<title>src/Tools/xtmemory_xep.c</title>
<polygon fill="white" stroke="none" points="-4,4 -4,-91 571,-91 571,4 -4,4"/>
<!-- Node0 -->
<g id="node1" class="node"><title>Node0</title>
<polygon fill="#bfbfbf" stroke="black" points="204,-56.5 204,-86.5 314,-86.5 314,-56.5 204,-56.5"/>
<text text-anchor="start" x="212" y="-74.5" font-family="Helvetica,sans-Serif" font-size="10.00">src/Tools/xtmemory</text>
<text text-anchor="middle" x="259" y="-63.5" font-family="Helvetica,sans-Serif" font-size="10.00">_xep.c</text>
</g>
<!-- Node1 -->
<g id="node2" class="node"><title>Node1</title>
<g id="a_node2"><a xlink:href="xtmemory_8h.xhtml" target="_top" xlink:title="Platform independent mutex mechanism. ">
<polygon fill="white" stroke="red" points="0,-0.5 0,-19.5 74,-19.5 74,-0.5 0,-0.5"/>
<text text-anchor="middle" x="37" y="-7.5" font-family="Helvetica,sans-Serif" font-size="10.00">xtmemory.h</text>
</a>
</g>
</g>
<!-- Node0&#45;&gt;Node1 -->
<g id="edge1" class="edge"><title>Node0&#45;&gt;Node1</title>
<path fill="none" stroke="midnightblue" d="M206.67,-56.4747C167.534,-45.9856 114.744,-31.8367 78.4975,-22.1221"/>
<polygon fill="midnightblue" stroke="midnightblue" points="79.3033,-18.7146 68.738,-19.5064 77.491,-25.4759 79.3033,-18.7146"/>
</g>
<!-- Node3 -->
<g id="node3" class="node"><title>Node3</title>
<g id="a_node3"><a xlink:href="xep__hal_8h.xhtml" target="_top" xlink:title="Brief description. ">
<polygon fill="white" stroke="red" points="92,-0.5 92,-19.5 154,-19.5 154,-0.5 92,-0.5"/>
<text text-anchor="middle" x="123" y="-7.5" font-family="Helvetica,sans-Serif" font-size="10.00">xep_hal.h</text>
</a>
</g>
</g>
<!-- Node0&#45;&gt;Node3 -->
<g id="edge2" class="edge"><title>Node0&#45;&gt;Node3</title>
<path fill="none" stroke="midnightblue" d="M226.77,-56.3993C204.155,-46.5054 174.162,-33.3832 152.239,-23.7919"/>
<polygon fill="midnightblue" stroke="midnightblue" points="153.354,-20.4595 142.789,-19.6578 150.548,-26.8726 153.354,-20.4595"/>
</g>
<!-- Node5 -->
<g id="node4" class="node"><title>Node5</title>
<polygon fill="white" stroke="#bfbfbf" points="172.5,-0.5 172.5,-19.5 243.5,-19.5 243.5,-0.5 172.5,-0.5"/>
<text text-anchor="middle" x="208" y="-7.5" font-family="Helvetica,sans-Serif" font-size="10.00">FreeRTOS.h</text>
</g>
<!-- Node0&#45;&gt;Node5 -->
<g id="edge3" class="edge"><title>Node0&#45;&gt;Node5</title>
<path fill="none" stroke="midnightblue" d="M246.914,-56.3993C239.426,-47.6641 229.782,-36.4126 221.968,-27.2962"/>
<polygon fill="midnightblue" stroke="midnightblue" points="224.586,-24.9726 215.421,-19.6578 219.271,-29.5281 224.586,-24.9726"/>
</g>
<!-- Node6 -->
<g id="node5" class="node"><title>Node6</title>
<g id="a_node5"><a xlink:href="heap__4__default_8h.xhtml" target="_top" xlink:title="Local header file for heap_4_default.c that implements alternative functions for FreeRTOS heap alloca...">
<polygon fill="white" stroke="black" points="261.5,-0.5 261.5,-19.5 360.5,-19.5 360.5,-0.5 261.5,-0.5"/>
<text text-anchor="middle" x="311" y="-7.5" font-family="Helvetica,sans-Serif" font-size="10.00">heap_4_default.h</text>
</a>
</g>
</g>
<!-- Node0&#45;&gt;Node6 -->
<g id="edge4" class="edge"><title>Node0&#45;&gt;Node6</title>
<path fill="none" stroke="midnightblue" d="M271.323,-56.3993C278.957,-47.6641 288.791,-36.4126 296.758,-27.2962"/>
<polygon fill="midnightblue" stroke="midnightblue" points="299.488,-29.4907 303.434,-19.6578 294.218,-24.8843 299.488,-29.4907"/>
</g>
<!-- Node7 -->
<g id="node6" class="node"><title>Node7</title>
<g id="a_node6"><a xlink:href="heap__4__slow_8h.xhtml" target="_top" xlink:title="Local header file for heap_4_slow.c that implements alternative functions for FreeRTOS heap allocatio...">
<polygon fill="white" stroke="black" points="379,-0.5 379,-19.5 465,-19.5 465,-0.5 379,-0.5"/>
<text text-anchor="middle" x="422" y="-7.5" font-family="Helvetica,sans-Serif" font-size="10.00">heap_4_slow.h</text>
</a>
</g>
</g>
<!-- Node0&#45;&gt;Node7 -->
<g id="edge5" class="edge"><title>Node0&#45;&gt;Node7</title>
<path fill="none" stroke="midnightblue" d="M297.629,-56.3993C325.344,-46.2826 362.305,-32.7905 388.717,-23.1493"/>
<polygon fill="midnightblue" stroke="midnightblue" points="390.089,-26.3746 398.282,-19.6578 387.688,-19.799 390.089,-26.3746"/>
</g>
<!-- Node8 -->
<g id="node7" class="node"><title>Node8</title>
<g id="a_node7"><a xlink:href="heap__4__fast_8h.xhtml" target="_top" xlink:title="Local header file for heap_4_fast.c that implements alternative functions for FreeRTOS heap allocatio...">
<polygon fill="white" stroke="black" points="483,-0.5 483,-19.5 567,-19.5 567,-0.5 483,-0.5"/>
<text text-anchor="middle" x="525" y="-7.5" font-family="Helvetica,sans-Serif" font-size="10.00">heap_4_fast.h</text>
</a>
</g>
</g>
<!-- Node0&#45;&gt;Node8 -->
<g id="edge6" class="edge"><title>Node0&#45;&gt;Node8</title>
<path fill="none" stroke="midnightblue" d="M314.115,-58.1716C362.075,-47.4437 430.897,-32.0494 476.725,-21.7983"/>
<polygon fill="midnightblue" stroke="midnightblue" points="477.715,-25.1635 486.71,-19.565 476.187,-18.3324 477.715,-25.1635"/>
</g>
</g>
</svg>
