<?xml version="1.0" encoding="UTF-8" standalone="no"?>
<!DOCTYPE svg PUBLIC "-//W3C//DTD SVG 1.1//EN"
 "http://www.w3.org/Graphics/SVG/1.1/DTD/svg11.dtd">
<!-- Generated by graphviz version 2.38.0 (20140413.2041)
 -->
<!-- Title: xtmemory_heap_watermark_fast Pages: 1 -->
<svg width="389pt" height="78pt"
 viewBox="0.00 0.00 389.00 77.50" xmlns="http://www.w3.org/2000/svg" xmlns:xlink="http://www.w3.org/1999/xlink">
<g id="graph0" class="graph" transform="scale(1 1) rotate(0) translate(4 73.5)">
<title>xtmemory_heap_watermark_fast</title>
<polygon fill="white" stroke="none" points="-4,4 -4,-73.5 385,-73.5 385,4 -4,4"/>
<!-- Node83 -->
<g id="node1" class="node"><title>Node83</title>
<polygon fill="#bfbfbf" stroke="black" points="0,-28 0,-47 175,-47 175,-28 0,-28"/>
<text text-anchor="middle" x="87.5" y="-35" font-family="Helvetica,sans-Serif" font-size="10.00">xtmemory_heap_watermark_fast</text>
</g>
<!-- Node84 -->
<g id="node2" class="node"><title>Node84</title>
<g id="a_node2"><a xlink:href="xep__hal_8h.xhtml#acf93e159c610831f349d07c00962f80d" target="_top" xlink:title="Checks if fast memory is enabled. ">
<polygon fill="white" stroke="black" points="227,-50 227,-69 365,-69 365,-50 227,-50"/>
<text text-anchor="middle" x="296" y="-57" font-family="Helvetica,sans-Serif" font-size="10.00">xt_fast_memory_enabled</text>
</a>
</g>
</g>
<!-- Node83&#45;&gt;Node84 -->
<g id="edge1" class="edge"><title>Node83&#45;&gt;Node84</title>
<path fill="none" stroke="midnightblue" d="M175.177,-46.7344C188.898,-48.1961 203.019,-49.7006 216.538,-51.1409"/>
<polygon fill="midnightblue" stroke="midnightblue" points="216.428,-54.6489 226.743,-52.228 217.17,-47.6882 216.428,-54.6489"/>
</g>
<!-- Node85 -->
<g id="node3" class="node"><title>Node85</title>
<g id="a_node3"><a xlink:href="heap__4__fast_8h.xhtml#ab094369f2b1eb1f623030eb4f3182f00" target="_top" xlink:title="xPortGetMinimumEverFreeHeap\lSize_fast">
<polygon fill="white" stroke="black" points="211,-0.5 211,-30.5 381,-30.5 381,-0.5 211,-0.5"/>
<text text-anchor="start" x="219" y="-18.5" font-family="Helvetica,sans-Serif" font-size="10.00">xPortGetMinimumEverFreeHeap</text>
<text text-anchor="middle" x="296" y="-7.5" font-family="Helvetica,sans-Serif" font-size="10.00">Size_fast</text>
</a>
</g>
</g>
<!-- Node83&#45;&gt;Node85 -->
<g id="edge2" class="edge"><title>Node83&#45;&gt;Node85</title>
<path fill="none" stroke="midnightblue" d="M175.177,-28.2656C183.665,-27.3613 192.307,-26.4406 200.865,-25.5289"/>
<polygon fill="midnightblue" stroke="midnightblue" points="201.285,-29.0041 210.858,-24.4643 200.543,-22.0435 201.285,-29.0041"/>
</g>
</g>
</svg>
