<?xml version="1.0" encoding="UTF-8" standalone="no"?>
<!DOCTYPE svg PUBLIC "-//W3C//DTD SVG 1.1//EN"
 "http://www.w3.org/Graphics/SVG/1.1/DTD/svg11.dtd">
<!-- Generated by graphviz version 2.38.0 (20140413.2041)
 -->
<!-- Title: xtlock_lock Pages: 1 -->
<svg width="247pt" height="332pt"
 viewBox="0.00 0.00 247.00 332.00" xmlns="http://www.w3.org/2000/svg" xmlns:xlink="http://www.w3.org/1999/xlink">
<g id="graph0" class="graph" transform="scale(1 1) rotate(0) translate(4 328)">
<title>xtlock_lock</title>
<polygon fill="white" stroke="none" points="-4,4 -4,-328 243,-328 243,4 -4,4"/>
<!-- Node42 -->
<g id="node1" class="node"><title>Node42</title>
<polygon fill="#bfbfbf" stroke="black" points="0,-152.5 0,-171.5 68,-171.5 68,-152.5 0,-152.5"/>
<text text-anchor="middle" x="34" y="-159.5" font-family="Helvetica,sans-Serif" font-size="10.00">xtlock_lock</text>
</g>
<!-- Node43 -->
<g id="node2" class="node"><title>Node43</title>
<g id="a_node2"><a xlink:href="memorypool_8c.xhtml#a02ccbe9282c2b9e53bb9a66a269c7fa3" target="_top" xlink:title="Take memory block. ">
<polygon fill="white" stroke="red" points="119.5,-304.5 119.5,-323.5 223.5,-323.5 223.5,-304.5 119.5,-304.5"/>
<text text-anchor="middle" x="171.5" y="-311.5" font-family="Helvetica,sans-Serif" font-size="10.00">memorypool_take</text>
</a>
</g>
</g>
<!-- Node42&#45;&gt;Node43 -->
<g id="edge1" class="edge"><title>Node42&#45;&gt;Node43</title>
<path fill="none" stroke="midnightblue" d="M39.8047,-181.511C47.9812,-210.589 67.3893,-265.074 104,-295 108.741,-298.876 114.233,-301.961 119.987,-304.417"/>
<polygon fill="midnightblue" stroke="midnightblue" points="43.1535,-180.484 37.2084,-171.714 36.387,-182.277 43.1535,-180.484"/>
</g>
<!-- Node145 -->
<g id="node3" class="node"><title>Node145</title>
<g id="a_node3"><a xlink:href="memorypool_8c.xhtml#a8afae8a96a7f4198bb89ace143868223" target="_top" xlink:title="Free memory block. ">
<polygon fill="white" stroke="red" points="121,-266.5 121,-285.5 222,-285.5 222,-266.5 121,-266.5"/>
<text text-anchor="middle" x="171.5" y="-273.5" font-family="Helvetica,sans-Serif" font-size="10.00">memorypool_free</text>
</a>
</g>
</g>
<!-- Node42&#45;&gt;Node145 -->
<g id="edge2" class="edge"><title>Node42&#45;&gt;Node145</title>
<path fill="none" stroke="midnightblue" d="M43.8402,-180.869C54.908,-202.45 75.8829,-237.329 104,-257 109.51,-260.855 115.791,-263.932 122.242,-266.388"/>
<polygon fill="midnightblue" stroke="midnightblue" points="46.897,-179.154 39.3382,-171.73 40.6175,-182.247 46.897,-179.154"/>
</g>
<!-- Node147 -->
<g id="node4" class="node"><title>Node147</title>
<g id="a_node4"><a xlink:href="xep__dispatch_8c.xhtml#a7bad5694c10b470cac80025bd27f6fa9" target="_top" xlink:title="Send message on dispatcher. ">
<polygon fill="white" stroke="red" points="104,-228.5 104,-247.5 239,-247.5 239,-228.5 104,-228.5"/>
<text text-anchor="middle" x="171.5" y="-235.5" font-family="Helvetica,sans-Serif" font-size="10.00">dispatch_send_message</text>
</a>
</g>
</g>
<!-- Node42&#45;&gt;Node147 -->
<g id="edge3" class="edge"><title>Node42&#45;&gt;Node147</title>
<path fill="none" stroke="midnightblue" d="M51.6693,-179.177C64.817,-191.827 84.1863,-208.574 104,-219 111.226,-222.802 119.305,-225.925 127.274,-228.461"/>
<polygon fill="midnightblue" stroke="midnightblue" points="53.9087,-176.469 44.3385,-171.923 48.9852,-181.445 53.9087,-176.469"/>
</g>
<!-- Node155 -->
<g id="node5" class="node"><title>Node155</title>
<g id="a_node5"><a xlink:href="xtio__flash_8c.xhtml#a4b959a98419bc53f38212b561edb0d07" target="_top" xlink:title="Erases specified flash area. ">
<polygon fill="white" stroke="red" points="124.5,-190.5 124.5,-209.5 218.5,-209.5 218.5,-190.5 124.5,-190.5"/>
<text text-anchor="middle" x="171.5" y="-197.5" font-family="Helvetica,sans-Serif" font-size="10.00">xtio_flash_erase</text>
</a>
</g>
</g>
<!-- Node42&#45;&gt;Node155 -->
<g id="edge4" class="edge"><title>Node42&#45;&gt;Node155</title>
<path fill="none" stroke="midnightblue" d="M77.969,-174.05C96.7936,-179.33 118.579,-185.439 136.28,-190.403"/>
<polygon fill="midnightblue" stroke="midnightblue" points="78.7207,-170.626 68.147,-171.296 76.8305,-177.366 78.7207,-170.626"/>
</g>
<!-- Node173 -->
<g id="node6" class="node"><title>Node173</title>
<g id="a_node6"><a xlink:href="xtio__flash_8c.xhtml#a0f73f9b3594686e4318f0ca195cc38b4" target="_top" xlink:title="Writes data to flash. ">
<polygon fill="white" stroke="red" points="127,-152.5 127,-171.5 216,-171.5 216,-152.5 127,-152.5"/>
<text text-anchor="middle" x="171.5" y="-159.5" font-family="Helvetica,sans-Serif" font-size="10.00">xtio_flash_write</text>
</a>
</g>
</g>
<!-- Node42&#45;&gt;Node173 -->
<g id="edge5" class="edge"><title>Node42&#45;&gt;Node173</title>
<path fill="none" stroke="midnightblue" d="M78.5139,-162C94.0069,-162 111.447,-162 126.944,-162"/>
<polygon fill="midnightblue" stroke="midnightblue" points="78.1471,-158.5 68.147,-162 78.147,-165.5 78.1471,-158.5"/>
</g>
<!-- Node176 -->
<g id="node7" class="node"><title>Node176</title>
<g id="a_node7"><a xlink:href="xtio__flash_8c.xhtml#a69a3f02de1c4e206640015c8d19af4f9" target="_top" xlink:title="stores data in flash. ">
<polygon fill="white" stroke="black" points="125.5,-114.5 125.5,-133.5 217.5,-133.5 217.5,-114.5 125.5,-114.5"/>
<text text-anchor="middle" x="171.5" y="-121.5" font-family="Helvetica,sans-Serif" font-size="10.00">xtio_flash_store</text>
</a>
</g>
</g>
<!-- Node42&#45;&gt;Node176 -->
<g id="edge6" class="edge"><title>Node42&#45;&gt;Node176</title>
<path fill="none" stroke="midnightblue" d="M77.969,-149.95C96.7936,-144.67 118.579,-138.561 136.28,-133.597"/>
<polygon fill="midnightblue" stroke="midnightblue" points="76.8305,-146.634 68.147,-152.704 78.7207,-153.374 76.8305,-146.634"/>
</g>
<!-- Node53 -->
<g id="node8" class="node"><title>Node53</title>
<g id="a_node8"><a xlink:href="task__hostcom_8c.xhtml#abac971969d3f568fc6db3b8205cc9992" target="_top" xlink:title="task_hostcom">
<polygon fill="white" stroke="red" points="129.5,-76.5 129.5,-95.5 213.5,-95.5 213.5,-76.5 129.5,-76.5"/>
<text text-anchor="middle" x="171.5" y="-83.5" font-family="Helvetica,sans-Serif" font-size="10.00">task_hostcom</text>
</a>
</g>
</g>
<!-- Node42&#45;&gt;Node53 -->
<g id="edge7" class="edge"><title>Node42&#45;&gt;Node53</title>
<path fill="none" stroke="midnightblue" d="M51.6693,-144.823C64.817,-132.173 84.1863,-115.426 104,-105 111.863,-100.863 120.737,-97.5295 129.38,-94.8815"/>
<polygon fill="midnightblue" stroke="midnightblue" points="48.9852,-142.555 44.3385,-152.077 53.9087,-147.531 48.9852,-142.555"/>
</g>
<!-- Node177 -->
<g id="node9" class="node"><title>Node177</title>
<g id="a_node9"><a xlink:href="xfs_8c.xhtml#a538f8868287ede7b1e971f0ee38e001d" target="_top" xlink:title="xfs_lock">
<polygon fill="white" stroke="red" points="144.5,-38.5 144.5,-57.5 198.5,-57.5 198.5,-38.5 144.5,-38.5"/>
<text text-anchor="middle" x="171.5" y="-45.5" font-family="Helvetica,sans-Serif" font-size="10.00">xfs_lock</text>
</a>
</g>
</g>
<!-- Node42&#45;&gt;Node177 -->
<g id="edge8" class="edge"><title>Node42&#45;&gt;Node177</title>
<path fill="none" stroke="midnightblue" d="M43.8402,-143.131C54.908,-121.55 75.8829,-86.6709 104,-67 115.905,-58.6715 131.412,-53.9714 144.457,-51.3303"/>
<polygon fill="midnightblue" stroke="midnightblue" points="40.6175,-141.753 39.3382,-152.27 46.897,-144.846 40.6175,-141.753"/>
</g>
<!-- Node191 -->
<g id="node10" class="node"><title>Node191</title>
<g id="a_node10"><a xlink:href="xtfile_8c.xhtml#ab6502b729403c595b606e92bf005bd09" target="_top" xlink:title="xtfile_lock">
<polygon fill="white" stroke="red" points="140,-0.5 140,-19.5 203,-19.5 203,-0.5 140,-0.5"/>
<text text-anchor="middle" x="171.5" y="-7.5" font-family="Helvetica,sans-Serif" font-size="10.00">xtfile_lock</text>
</a>
</g>
</g>
<!-- Node42&#45;&gt;Node191 -->
<g id="edge9" class="edge"><title>Node42&#45;&gt;Node191</title>
<path fill="none" stroke="midnightblue" d="M39.8047,-142.489C47.9812,-113.411 67.3893,-58.9257 104,-29 114.133,-20.7171 127.693,-16.0431 139.925,-13.4064"/>
<polygon fill="midnightblue" stroke="midnightblue" points="36.387,-141.723 37.2084,-152.286 43.1535,-143.516 36.387,-141.723"/>
</g>
</g>
</svg>
