<?xml version="1.0" encoding="UTF-8" standalone="no"?>
<!DOCTYPE svg PUBLIC "-//W3C//DTD SVG 1.1//EN"
 "http://www.w3.org/Graphics/SVG/1.1/DTD/svg11.dtd">
<!-- Generated by graphviz version 2.38.0 (20140413.2041)
 -->
<!-- Title: xtlock_create Pages: 1 -->
<svg width="332pt" height="242pt"
 viewBox="0.00 0.00 332.00 242.34" xmlns="http://www.w3.org/2000/svg" xmlns:xlink="http://www.w3.org/1999/xlink">
<g id="graph0" class="graph" transform="scale(1 1) rotate(0) translate(4 238.341)">
<title>xtlock_create</title>
<polygon fill="white" stroke="none" points="-4,4 -4,-238.341 328,-238.341 328,4 -4,4"/>
<!-- Node1 -->
<g id="node1" class="node"><title>Node1</title>
<polygon fill="#bfbfbf" stroke="black" points="0,-100.841 0,-119.841 80,-119.841 80,-100.841 0,-100.841"/>
<text text-anchor="middle" x="40" y="-107.841" font-family="Helvetica,sans-Serif" font-size="10.00">xtlock_create</text>
</g>
<!-- Node2 -->
<g id="node2" class="node"><title>Node2</title>
<g id="a_node2"><a xlink:href="memorypool_8c.xhtml#add5e7dc361e5bc4c7b9a0521cc5a85cb" target="_top" xlink:title="Create memory pool. ">
<polygon fill="white" stroke="red" points="116,-214.841 116,-233.841 229,-233.841 229,-214.841 116,-214.841"/>
<text text-anchor="middle" x="172.5" y="-221.841" font-family="Helvetica,sans-Serif" font-size="10.00">memorypool_create</text>
</a>
</g>
</g>
<!-- Node1&#45;&gt;Node2 -->
<g id="edge1" class="edge"><title>Node1&#45;&gt;Node2</title>
<path fill="none" stroke="midnightblue" d="M51.0344,-128.65C63.5879,-149.948 87.0008,-184.805 116,-205.341 121.402,-209.166 127.639,-212.274 133.939,-214.782"/>
<polygon fill="midnightblue" stroke="midnightblue" points="54.0471,-126.867 46.0496,-119.918 47.968,-130.338 54.0471,-126.867"/>
</g>
<!-- Node5 -->
<g id="node3" class="node"><title>Node5</title>
<g id="a_node3"><a xlink:href="xep__dispatch_8c.xhtml#afdd804b6e97bf0e80934820062bae10c" target="_top" xlink:title="Register to dispatcher, returning the queue used for dispatch messages. ">
<polygon fill="white" stroke="red" points="123,-176.841 123,-195.841 222,-195.841 222,-176.841 123,-176.841"/>
<text text-anchor="middle" x="172.5" y="-183.841" font-family="Helvetica,sans-Serif" font-size="10.00">dispatch_register</text>
</a>
</g>
</g>
<!-- Node1&#45;&gt;Node5 -->
<g id="edge2" class="edge"><title>Node1&#45;&gt;Node5</title>
<path fill="none" stroke="midnightblue" d="M59.1352,-126.787C73.6596,-139.274 95.0093,-156.148 116,-167.341 122.83,-170.982 130.496,-174.136 137.9,-176.771"/>
<polygon fill="midnightblue" stroke="midnightblue" points="61.2501,-123.986 51.4264,-120.018 56.6314,-129.246 61.2501,-123.986"/>
</g>
<!-- Node12 -->
<g id="node4" class="node"><title>Node12</title>
<g id="a_node4"><a xlink:href="xtio__flash_8c.xhtml#a4b959a98419bc53f38212b561edb0d07" target="_top" xlink:title="Erases specified flash area. ">
<polygon fill="white" stroke="red" points="125.5,-138.841 125.5,-157.841 219.5,-157.841 219.5,-138.841 125.5,-138.841"/>
<text text-anchor="middle" x="172.5" y="-145.841" font-family="Helvetica,sans-Serif" font-size="10.00">xtio_flash_erase</text>
</a>
</g>
</g>
<!-- Node1&#45;&gt;Node12 -->
<g id="edge3" class="edge"><title>Node1&#45;&gt;Node12</title>
<path fill="none" stroke="midnightblue" d="M83.5518,-122.731C101.423,-127.935 121.89,-133.895 138.58,-138.755"/>
<polygon fill="midnightblue" stroke="midnightblue" points="84.5104,-119.365 73.9307,-119.93 82.5534,-126.086 84.5104,-119.365"/>
</g>
<!-- Node36 -->
<g id="node5" class="node"><title>Node36</title>
<g id="a_node5"><a xlink:href="xtio__flash_8c.xhtml#a0f73f9b3594686e4318f0ca195cc38b4" target="_top" xlink:title="Writes data to flash. ">
<polygon fill="white" stroke="red" points="128,-100.841 128,-119.841 217,-119.841 217,-100.841 128,-100.841"/>
<text text-anchor="middle" x="172.5" y="-107.841" font-family="Helvetica,sans-Serif" font-size="10.00">xtio_flash_write</text>
</a>
</g>
</g>
<!-- Node1&#45;&gt;Node36 -->
<g id="edge4" class="edge"><title>Node1&#45;&gt;Node36</title>
<path fill="none" stroke="midnightblue" d="M90.2831,-110.341C102.618,-110.341 115.765,-110.341 127.807,-110.341"/>
<polygon fill="midnightblue" stroke="midnightblue" points="90.1543,-106.841 80.1543,-110.341 90.1543,-113.841 90.1543,-106.841"/>
</g>
<!-- Node40 -->
<g id="node6" class="node"><title>Node40</title>
<g id="a_node6"><a xlink:href="xtio__flash_8c.xhtml#a69a3f02de1c4e206640015c8d19af4f9" target="_top" xlink:title="stores data in flash. ">
<polygon fill="white" stroke="black" points="126.5,-62.8407 126.5,-81.8407 218.5,-81.8407 218.5,-62.8407 126.5,-62.8407"/>
<text text-anchor="middle" x="172.5" y="-69.8407" font-family="Helvetica,sans-Serif" font-size="10.00">xtio_flash_store</text>
</a>
</g>
</g>
<!-- Node1&#45;&gt;Node40 -->
<g id="edge5" class="edge"><title>Node1&#45;&gt;Node40</title>
<path fill="none" stroke="midnightblue" d="M83.5518,-97.9501C101.423,-92.7462 121.89,-86.7866 138.58,-81.9266"/>
<polygon fill="midnightblue" stroke="midnightblue" points="82.5534,-94.5954 73.9307,-100.752 84.5104,-101.316 82.5534,-94.5954"/>
</g>
<!-- Node32 -->
<g id="node7" class="node"><title>Node32</title>
<g id="a_node7"><a xlink:href="xfs_8h.xhtml#acb8c539cd456d3e5789a479ae0642acd" target="_top" xlink:title="Initialize the file system. ">
<polygon fill="white" stroke="black" points="147.5,-24.8407 147.5,-43.8407 197.5,-43.8407 197.5,-24.8407 147.5,-24.8407"/>
<text text-anchor="middle" x="172.5" y="-31.8407" font-family="Helvetica,sans-Serif" font-size="10.00">xfs_init</text>
</a>
</g>
</g>
<!-- Node1&#45;&gt;Node32 -->
<g id="edge6" class="edge"><title>Node1&#45;&gt;Node32</title>
<path fill="none" stroke="midnightblue" d="M59.1352,-93.8947C73.6596,-81.4078 95.0093,-64.5329 116,-53.3407 125.796,-48.1177 137.311,-43.8979 147.306,-40.7739"/>
<polygon fill="midnightblue" stroke="midnightblue" points="56.6314,-91.4355 51.4264,-100.664 61.2501,-96.6955 56.6314,-91.4355"/>
</g>
<!-- Node33 -->
<g id="node8" class="node"><title>Node33</title>
<g id="a_node8"><a xlink:href="xtfile_8c.xhtml#a9b3de70a5a8926b3903335feecd3713c" target="_top" xlink:title="Initialize the file system. ">
<polygon fill="white" stroke="red" points="265,-5.84068 265,-24.8407 324,-24.8407 324,-5.84068 265,-5.84068"/>
<text text-anchor="middle" x="294.5" y="-12.8407" font-family="Helvetica,sans-Serif" font-size="10.00">xtfile_init</text>
</a>
</g>
</g>
<!-- Node1&#45;&gt;Node33 -->
<g id="edge8" class="edge"><title>Node1&#45;&gt;Node33</title>
<path fill="none" stroke="midnightblue" d="M49.3258,-91.6491C60.6736,-68.7766 83.3847,-31.1461 116,-15.3407 163.975,7.90819 228.17,-0.265242 264.753,-8.00907"/>
<polygon fill="midnightblue" stroke="midnightblue" points="46.1496,-90.1787 45.0392,-100.715 52.4779,-93.1708 46.1496,-90.1787"/>
</g>
<!-- Node32&#45;&gt;Node33 -->
<g id="edge7" class="edge"><title>Node32&#45;&gt;Node33</title>
<path fill="none" stroke="midnightblue" d="M207.852,-28.9015C225.802,-26.0596 247.523,-22.6204 264.6,-19.9166"/>
<polygon fill="midnightblue" stroke="midnightblue" points="207.113,-25.4749 197.784,-30.4958 208.208,-32.3888 207.113,-25.4749"/>
</g>
</g>
</svg>
