<?xml version="1.0" encoding="UTF-8" standalone="no"?>
<!DOCTYPE svg PUBLIC "-//W3C//DTD SVG 1.1//EN"
 "http://www.w3.org/Graphics/SVG/1.1/DTD/svg11.dtd">
<!-- Generated by graphviz version 2.40.1 (20161225.0304)
 -->
<!-- Title: src/DataPlayer.hpp Pages: 1 -->
<svg width="120pt" height="84pt"
 viewBox="0.00 0.00 119.50 84.00" xmlns="http://www.w3.org/2000/svg" xmlns:xlink="http://www.w3.org/1999/xlink">
<g id="graph0" class="graph" transform="scale(1 1) rotate(0) translate(4 80)">
<title>src/DataPlayer.hpp</title>
<polygon fill="#ffffff" stroke="transparent" points="-4,4 -4,-80 115.5,-80 115.5,4 -4,4"/>
<!-- Node0 -->
<g id="node1" class="node">
<title>Node0</title>
<polygon fill="#bfbfbf" stroke="#000000" points="7.5,-56.5 7.5,-75.5 108.5,-75.5 108.5,-56.5 7.5,-56.5"/>
<text text-anchor="middle" x="58" y="-63.5" font-family="Helvetica,sans-Serif" font-size="10.00" fill="#000000">src/DataPlayer.hpp</text>
</g>
<!-- Node1 -->
<g id="node2" class="node">
<title>Node1</title>
<polygon fill="#ffffff" stroke="#bfbfbf" points="0,-.5 0,-19.5 52,-19.5 52,-.5 0,-.5"/>
<text text-anchor="middle" x="26" y="-7.5" font-family="Helvetica,sans-Serif" font-size="10.00" fill="#000000">memory</text>
</g>
<!-- Node0&#45;&gt;Node1 -->
<g id="edge1" class="edge">
<title>Node0&#45;&gt;Node1</title>
<path fill="none" stroke="#191970" d="M52.426,-56.2455C48.0669,-48.617 41.8789,-37.7881 36.5867,-28.5267"/>
<polygon fill="#191970" stroke="#191970" points="39.5104,-26.5886 31.5101,-19.6427 33.4327,-30.0616 39.5104,-26.5886"/>
</g>
<!-- Node2 -->
<g id="node3" class="node">
<title>Node2</title>
<polygon fill="#ffffff" stroke="#bfbfbf" points="70.5,-.5 70.5,-19.5 111.5,-19.5 111.5,-.5 70.5,-.5"/>
<text text-anchor="middle" x="91" y="-7.5" font-family="Helvetica,sans-Serif" font-size="10.00" fill="#000000">string</text>
</g>
<!-- Node0&#45;&gt;Node2 -->
<g id="edge2" class="edge">
<title>Node0&#45;&gt;Node2</title>
<path fill="none" stroke="#191970" d="M63.7482,-56.2455C68.2435,-48.617 74.6248,-37.7881 80.0825,-28.5267"/>
<polygon fill="#191970" stroke="#191970" points="83.2561,-30.035 85.3177,-19.6427 77.2253,-26.4811 83.2561,-30.035"/>
</g>
</g>
</svg>
