<?xml version="1.0" encoding="UTF-8" standalone="no"?>
<!DOCTYPE svg PUBLIC "-//W3C//DTD SVG 1.1//EN"
 "http://www.w3.org/Graphics/SVG/1.1/DTD/svg11.dtd">
<!-- Generated by graphviz version 2.40.1 (20161225.0304)
 -->
<!-- Title: src/X2M200.hpp Pages: 1 -->
<svg width="608pt" height="196pt"
 viewBox="0.00 0.00 607.50 196.00" xmlns="http://www.w3.org/2000/svg" xmlns:xlink="http://www.w3.org/1999/xlink">
<g id="graph0" class="graph" transform="scale(1 1) rotate(0) translate(4 192)">
<title>src/X2M200.hpp</title>
<polygon fill="#ffffff" stroke="transparent" points="-4,4 -4,-192 603.5,-192 603.5,4 -4,4"/>
<!-- Node0 -->
<g id="node1" class="node">
<title>Node0</title>
<polygon fill="#bfbfbf" stroke="#000000" points="274,-168.5 274,-187.5 362,-187.5 362,-168.5 274,-168.5"/>
<text text-anchor="middle" x="318" y="-175.5" font-family="Helvetica,sans-Serif" font-size="10.00" fill="#000000">src/X2M200.hpp</text>
</g>
<!-- Node1 -->
<g id="node2" class="node">
<title>Node1</title>
<polygon fill="#ffffff" stroke="#bfbfbf" points="148.5,-56.5 148.5,-75.5 209.5,-75.5 209.5,-56.5 148.5,-56.5"/>
<text text-anchor="middle" x="179" y="-63.5" font-family="Helvetica,sans-Serif" font-size="10.00" fill="#000000">Bytes.hpp</text>
</g>
<!-- Node0&#45;&gt;Node1 -->
<g id="edge1" class="edge">
<title>Node0&#45;&gt;Node1</title>
<path fill="none" stroke="#191970" d="M273.8708,-168.551C238.9699,-160.1103 194.2978,-146.8165 183,-132 173.1139,-119.0349 172.9663,-100.1404 174.7943,-85.8867"/>
<polygon fill="#191970" stroke="#191970" points="178.3086,-86.0979 176.5356,-75.6525 171.4078,-84.9237 178.3086,-86.0979"/>
</g>
<!-- Node2 -->
<g id="node3" class="node">
<title>Node2</title>
<g id="a_node3"><a xlink:href="_data_8hpp.xhtml" target="_top" xlink:title="Data.hpp">
<polygon fill="#ffffff" stroke="#000000" points="80,-112.5 80,-131.5 136,-131.5 136,-112.5 80,-112.5"/>
<text text-anchor="middle" x="108" y="-119.5" font-family="Helvetica,sans-Serif" font-size="10.00" fill="#000000">Data.hpp</text>
</a>
</g>
</g>
<!-- Node0&#45;&gt;Node2 -->
<g id="edge2" class="edge">
<title>Node0&#45;&gt;Node2</title>
<path fill="none" stroke="#191970" d="M281.8997,-168.3733C244.0069,-158.2685 184.6799,-142.448 146.0654,-132.1508"/>
<polygon fill="#191970" stroke="#191970" points="146.8039,-128.7255 136.2397,-129.5306 145.0003,-135.4891 146.8039,-128.7255"/>
</g>
<!-- Node6 -->
<g id="node7" class="node">
<title>Node6</title>
<g id="a_node7"><a xlink:href="_recording_options_8hpp.xhtml" target="_top" xlink:title="RecordingOptions.hpp">
<polygon fill="#ffffff" stroke="#000000" points="192.5,-112.5 192.5,-131.5 305.5,-131.5 305.5,-112.5 192.5,-112.5"/>
<text text-anchor="middle" x="249" y="-119.5" font-family="Helvetica,sans-Serif" font-size="10.00" fill="#000000">RecordingOptions.hpp</text>
</a>
</g>
</g>
<!-- Node0&#45;&gt;Node6 -->
<g id="edge7" class="edge">
<title>Node0&#45;&gt;Node6</title>
<path fill="none" stroke="#191970" d="M305.9811,-168.2455C295.7902,-159.9746 280.9638,-147.9416 268.9893,-138.2232"/>
<polygon fill="#191970" stroke="#191970" points="270.8514,-135.2268 260.8812,-131.6427 266.4402,-140.662 270.8514,-135.2268"/>
</g>
<!-- Node10 -->
<g id="node11" class="node">
<title>Node10</title>
<polygon fill="#ffffff" stroke="#bfbfbf" points="324,-112.5 324,-131.5 452,-131.5 452,-112.5 324,-112.5"/>
<text text-anchor="middle" x="388" y="-119.5" font-family="Helvetica,sans-Serif" font-size="10.00" fill="#000000">LockedRadarForward.hpp</text>
</g>
<!-- Node0&#45;&gt;Node10 -->
<g id="edge12" class="edge">
<title>Node0&#45;&gt;Node10</title>
<path fill="none" stroke="#191970" d="M330.1931,-168.2455C340.6321,-159.8943 355.8655,-147.7076 368.074,-137.9408"/>
<polygon fill="#191970" stroke="#191970" points="370.3244,-140.6227 375.9467,-131.6427 365.9515,-135.1566 370.3244,-140.6227"/>
</g>
<!-- Node11 -->
<g id="node12" class="node">
<title>Node11</title>
<polygon fill="#ffffff" stroke="#bfbfbf" points="470,-112.5 470,-131.5 522,-131.5 522,-112.5 470,-112.5"/>
<text text-anchor="middle" x="496" y="-119.5" font-family="Helvetica,sans-Serif" font-size="10.00" fill="#000000">memory</text>
</g>
<!-- Node0&#45;&gt;Node11 -->
<g id="edge13" class="edge">
<title>Node0&#45;&gt;Node11</title>
<path fill="none" stroke="#191970" d="M348.5993,-168.3733C379.5873,-158.6242 427.4867,-143.5547 460.2147,-133.2583"/>
<polygon fill="#191970" stroke="#191970" points="461.3604,-136.5671 469.849,-130.2273 459.2596,-129.8897 461.3604,-136.5671"/>
</g>
<!-- Node12 -->
<g id="node13" class="node">
<title>Node12</title>
<polygon fill="#ffffff" stroke="#bfbfbf" points="540.5,-112.5 540.5,-131.5 599.5,-131.5 599.5,-112.5 540.5,-112.5"/>
<text text-anchor="middle" x="570" y="-119.5" font-family="Helvetica,sans-Serif" font-size="10.00" fill="#000000">functional</text>
</g>
<!-- Node0&#45;&gt;Node12 -->
<g id="edge14" class="edge">
<title>Node0&#45;&gt;Node12</title>
<path fill="none" stroke="#191970" d="M362.1685,-168.9762C403.2167,-160.4744 466.2914,-147.1188 530.3485,-132.0889"/>
<polygon fill="#191970" stroke="#191970" points="531.2888,-135.4632 540.2185,-129.7614 529.6821,-128.6501 531.2888,-135.4632"/>
</g>
<!-- Node2&#45;&gt;Node1 -->
<g id="edge3" class="edge">
<title>Node2&#45;&gt;Node1</title>
<path fill="none" stroke="#191970" d="M120.3673,-112.2455C130.9554,-103.8943 146.4064,-91.7076 158.7893,-81.9408"/>
<polygon fill="#191970" stroke="#191970" points="161.0903,-84.5837 166.7745,-75.6427 156.7553,-79.0875 161.0903,-84.5837"/>
</g>
<!-- Node3 -->
<g id="node4" class="node">
<title>Node3</title>
<polygon fill="#ffffff" stroke="#bfbfbf" points="86,-56.5 86,-75.5 130,-75.5 130,-56.5 86,-56.5"/>
<text text-anchor="middle" x="108" y="-63.5" font-family="Helvetica,sans-Serif" font-size="10.00" fill="#000000">vector</text>
</g>
<!-- Node2&#45;&gt;Node3 -->
<g id="edge4" class="edge">
<title>Node2&#45;&gt;Node3</title>
<path fill="none" stroke="#191970" d="M108,-112.2455C108,-104.9382 108,-94.6944 108,-85.7046"/>
<polygon fill="#191970" stroke="#191970" points="111.5001,-85.6426 108,-75.6427 104.5001,-85.6427 111.5001,-85.6426"/>
</g>
<!-- Node4 -->
<g id="node5" class="node">
<title>Node4</title>
<g id="a_node5"><a xlink:href="datatypes_8h.xhtml" target="_top" xlink:title="datatypes.h">
<polygon fill="#ffffff" stroke="#000000" points="0,-56.5 0,-75.5 68,-75.5 68,-56.5 0,-56.5"/>
<text text-anchor="middle" x="34" y="-63.5" font-family="Helvetica,sans-Serif" font-size="10.00" fill="#000000">datatypes.h</text>
</a>
</g>
</g>
<!-- Node2&#45;&gt;Node4 -->
<g id="edge5" class="edge">
<title>Node2&#45;&gt;Node4</title>
<path fill="none" stroke="#191970" d="M95.1102,-112.2455C84.0746,-103.8943 67.9708,-91.7076 55.0647,-81.9408"/>
<polygon fill="#191970" stroke="#191970" points="56.8283,-78.8862 46.7421,-75.6427 52.6041,-84.4681 56.8283,-78.8862"/>
</g>
<!-- Node5 -->
<g id="node6" class="node">
<title>Node5</title>
<polygon fill="#ffffff" stroke="#bfbfbf" points="9.5,-.5 9.5,-19.5 58.5,-19.5 58.5,-.5 9.5,-.5"/>
<text text-anchor="middle" x="34" y="-7.5" font-family="Helvetica,sans-Serif" font-size="10.00" fill="#000000">stdint.h</text>
</g>
<!-- Node4&#45;&gt;Node5 -->
<g id="edge6" class="edge">
<title>Node4&#45;&gt;Node5</title>
<path fill="none" stroke="#191970" d="M34,-56.2455C34,-48.9382 34,-38.6944 34,-29.7046"/>
<polygon fill="#191970" stroke="#191970" points="37.5001,-29.6426 34,-19.6427 30.5001,-29.6427 37.5001,-29.6426"/>
</g>
<!-- Node6&#45;&gt;Node1 -->
<g id="edge10" class="edge">
<title>Node6&#45;&gt;Node1</title>
<path fill="none" stroke="#191970" d="M236.8069,-112.2455C226.3679,-103.8943 211.1345,-91.7076 198.926,-81.9408"/>
<polygon fill="#191970" stroke="#191970" points="201.0485,-79.1566 191.0533,-75.6427 196.6756,-84.6227 201.0485,-79.1566"/>
</g>
<!-- Node7 -->
<g id="node8" class="node">
<title>Node7</title>
<g id="a_node8"><a xlink:href="_preferred_split_size_8hpp.xhtml" target="_top" xlink:title="PreferredSplitSize.hpp">
<polygon fill="#ffffff" stroke="#000000" points="288,-56.5 288,-75.5 402,-75.5 402,-56.5 288,-56.5"/>
<text text-anchor="middle" x="345" y="-63.5" font-family="Helvetica,sans-Serif" font-size="10.00" fill="#000000">PreferredSplitSize.hpp</text>
</a>
</g>
</g>
<!-- Node6&#45;&gt;Node7 -->
<g id="edge8" class="edge">
<title>Node6&#45;&gt;Node7</title>
<path fill="none" stroke="#191970" d="M265.7219,-112.2455C280.5889,-103.5731 302.5466,-90.7645 319.5858,-80.825"/>
<polygon fill="#191970" stroke="#191970" points="321.5955,-83.7047 328.4697,-75.6427 318.0683,-77.6582 321.5955,-83.7047"/>
</g>
<!-- Node9 -->
<g id="node10" class="node">
<title>Node9</title>
<polygon fill="#ffffff" stroke="#bfbfbf" points="228.5,-56.5 228.5,-75.5 269.5,-75.5 269.5,-56.5 228.5,-56.5"/>
<text text-anchor="middle" x="249" y="-63.5" font-family="Helvetica,sans-Serif" font-size="10.00" fill="#000000">string</text>
</g>
<!-- Node6&#45;&gt;Node9 -->
<g id="edge11" class="edge">
<title>Node6&#45;&gt;Node9</title>
<path fill="none" stroke="#191970" d="M249,-112.2455C249,-104.9382 249,-94.6944 249,-85.7046"/>
<polygon fill="#191970" stroke="#191970" points="252.5001,-85.6426 249,-75.6427 245.5001,-85.6427 252.5001,-85.6426"/>
</g>
<!-- Node8 -->
<g id="node9" class="node">
<title>Node8</title>
<polygon fill="#ffffff" stroke="#bfbfbf" points="317,-.5 317,-19.5 373,-19.5 373,-.5 317,-.5"/>
<text text-anchor="middle" x="345" y="-7.5" font-family="Helvetica,sans-Serif" font-size="10.00" fill="#000000">cinttypes</text>
</g>
<!-- Node7&#45;&gt;Node8 -->
<g id="edge9" class="edge">
<title>Node7&#45;&gt;Node8</title>
<path fill="none" stroke="#191970" d="M345,-56.2455C345,-48.9382 345,-38.6944 345,-29.7046"/>
<polygon fill="#191970" stroke="#191970" points="348.5001,-29.6426 345,-19.6427 341.5001,-29.6427 348.5001,-29.6426"/>
</g>
</g>
</svg>
