<?xml version="1.0" encoding="UTF-8" standalone="no"?>
<!DOCTYPE svg PUBLIC "-//W3C//DTD SVG 1.1//EN"
 "http://www.w3.org/Graphics/SVG/1.1/DTD/svg11.dtd">
<!-- Generated by graphviz version 2.38.0 (20140413.2041)
 -->
<!-- Title: src/DataReader.hpp Pages: 1 -->
<svg width="380pt" height="196pt"
 viewBox="0.00 0.00 379.50 196.00" xmlns="http://www.w3.org/2000/svg" xmlns:xlink="http://www.w3.org/1999/xlink">
<g id="graph0" class="graph" transform="scale(1 1) rotate(0) translate(4 192)">
<title>src/DataReader.hpp</title>
<polygon fill="white" stroke="none" points="-4,4 -4,-192 375.5,-192 375.5,4 -4,4"/>
<!-- Node0 -->
<g id="node1" class="node"><title>Node0</title>
<polygon fill="#bfbfbf" stroke="black" points="129.5,-168.5 129.5,-187.5 233.5,-187.5 233.5,-168.5 129.5,-168.5"/>
<text text-anchor="middle" x="181.5" y="-175.5" font-family="Helvetica,sans-Serif" font-size="10.00">src/DataReader.hpp</text>
</g>
<!-- Node1 -->
<g id="node2" class="node"><title>Node1</title>
<polygon fill="white" stroke="#bfbfbf" points="0,-56.5 0,-75.5 61,-75.5 61,-56.5 0,-56.5"/>
<text text-anchor="middle" x="30.5" y="-63.5" font-family="Helvetica,sans-Serif" font-size="10.00">Bytes.hpp</text>
</g>
<!-- Node0&#45;&gt;Node1 -->
<g id="edge1" class="edge"><title>Node0&#45;&gt;Node1</title>
<path fill="none" stroke="midnightblue" d="M138.878,-168.479C114.774,-161.873 85.3762,-150.608 64.5,-132 50.5606,-119.575 41.4353,-100.06 36.1823,-85.6525"/>
<polygon fill="midnightblue" stroke="midnightblue" points="39.3907,-84.2099 32.9045,-75.8326 32.7508,-86.4263 39.3907,-84.2099"/>
</g>
<!-- Node2 -->
<g id="node3" class="node"><title>Node2</title>
<g id="a_node3"><a xlink:href="_data_8hpp.xhtml" target="_top" xlink:title="Data.hpp">
<polygon fill="white" stroke="black" points="73.5,-112.5 73.5,-131.5 129.5,-131.5 129.5,-112.5 73.5,-112.5"/>
<text text-anchor="middle" x="101.5" y="-119.5" font-family="Helvetica,sans-Serif" font-size="10.00">Data.hpp</text>
</a>
</g>
</g>
<!-- Node0&#45;&gt;Node2 -->
<g id="edge2" class="edge"><title>Node0&#45;&gt;Node2</title>
<path fill="none" stroke="midnightblue" d="M168.647,-168.324C156.284,-159.979 137.37,-147.212 122.763,-137.352"/>
<polygon fill="midnightblue" stroke="midnightblue" points="124.568,-134.348 114.321,-131.655 120.652,-140.15 124.568,-134.348"/>
</g>
<!-- Node4 -->
<g id="node5" class="node"><title>Node4</title>
<g id="a_node5"><a xlink:href="datatypes_8h.xhtml" target="_top" xlink:title="datatypes.h">
<polygon fill="white" stroke="black" points="141.5,-56.5 141.5,-75.5 209.5,-75.5 209.5,-56.5 141.5,-56.5"/>
<text text-anchor="middle" x="175.5" y="-63.5" font-family="Helvetica,sans-Serif" font-size="10.00">datatypes.h</text>
</a>
</g>
</g>
<!-- Node0&#45;&gt;Node4 -->
<g id="edge7" class="edge"><title>Node0&#45;&gt;Node4</title>
<path fill="none" stroke="midnightblue" d="M180.585,-168.384C179.659,-159.335 178.258,-144.684 177.5,-132 176.573,-116.484 176.064,-98.8583 175.792,-85.8789"/>
<polygon fill="midnightblue" stroke="midnightblue" points="179.291,-85.7734 175.61,-75.8387 172.292,-85.9007 179.291,-85.7734"/>
</g>
<!-- Node6 -->
<g id="node7" class="node"><title>Node6</title>
<polygon fill="white" stroke="#bfbfbf" points="186,-112.5 186,-131.5 227,-131.5 227,-112.5 186,-112.5"/>
<text text-anchor="middle" x="206.5" y="-119.5" font-family="Helvetica,sans-Serif" font-size="10.00">string</text>
</g>
<!-- Node0&#45;&gt;Node6 -->
<g id="edge8" class="edge"><title>Node0&#45;&gt;Node6</title>
<path fill="none" stroke="midnightblue" d="M185.628,-168.083C189.014,-160.77 193.916,-150.181 198.119,-141.103"/>
<polygon fill="midnightblue" stroke="midnightblue" points="201.423,-142.296 202.449,-131.751 195.071,-139.355 201.423,-142.296"/>
</g>
<!-- Node7 -->
<g id="node8" class="node"><title>Node7</title>
<polygon fill="white" stroke="#bfbfbf" points="245.5,-112.5 245.5,-131.5 297.5,-131.5 297.5,-112.5 245.5,-112.5"/>
<text text-anchor="middle" x="271.5" y="-119.5" font-family="Helvetica,sans-Serif" font-size="10.00">memory</text>
</g>
<!-- Node0&#45;&gt;Node7 -->
<g id="edge9" class="edge"><title>Node0&#45;&gt;Node7</title>
<path fill="none" stroke="midnightblue" d="M195.96,-168.324C210,-159.9 231.548,-146.971 248.043,-137.074"/>
<polygon fill="midnightblue" stroke="midnightblue" points="250.302,-139.801 257.076,-131.655 246.7,-133.798 250.302,-139.801"/>
</g>
<!-- Node8 -->
<g id="node9" class="node"><title>Node8</title>
<polygon fill="white" stroke="#bfbfbf" points="315.5,-112.5 315.5,-131.5 371.5,-131.5 371.5,-112.5 315.5,-112.5"/>
<text text-anchor="middle" x="343.5" y="-119.5" font-family="Helvetica,sans-Serif" font-size="10.00">cinttypes</text>
</g>
<!-- Node0&#45;&gt;Node8 -->
<g id="edge10" class="edge"><title>Node0&#45;&gt;Node8</title>
<path fill="none" stroke="midnightblue" d="M207.169,-168.444C234.423,-159.359 277.684,-144.939 308.151,-134.783"/>
<polygon fill="midnightblue" stroke="midnightblue" points="309.571,-137.999 317.951,-131.516 307.357,-131.358 309.571,-137.999"/>
</g>
<!-- Node2&#45;&gt;Node1 -->
<g id="edge3" class="edge"><title>Node2&#45;&gt;Node1</title>
<path fill="none" stroke="midnightblue" d="M90.0926,-112.324C79.3912,-104.185 63.1593,-91.8395 50.3372,-82.0874"/>
<polygon fill="midnightblue" stroke="midnightblue" points="52.1932,-79.1018 42.1149,-75.8339 47.9556,-84.6734 52.1932,-79.1018"/>
</g>
<!-- Node3 -->
<g id="node4" class="node"><title>Node3</title>
<polygon fill="white" stroke="#bfbfbf" points="79.5,-56.5 79.5,-75.5 123.5,-75.5 123.5,-56.5 79.5,-56.5"/>
<text text-anchor="middle" x="101.5" y="-63.5" font-family="Helvetica,sans-Serif" font-size="10.00">vector</text>
</g>
<!-- Node2&#45;&gt;Node3 -->
<g id="edge4" class="edge"><title>Node2&#45;&gt;Node3</title>
<path fill="none" stroke="midnightblue" d="M101.5,-112.083C101.5,-105.006 101.5,-94.8611 101.5,-85.9865"/>
<polygon fill="midnightblue" stroke="midnightblue" points="105,-85.751 101.5,-75.7511 98.0001,-85.7511 105,-85.751"/>
</g>
<!-- Node2&#45;&gt;Node4 -->
<g id="edge5" class="edge"><title>Node2&#45;&gt;Node4</title>
<path fill="none" stroke="midnightblue" d="M113.389,-112.324C124.65,-104.107 141.787,-91.6017 155.209,-81.8069"/>
<polygon fill="midnightblue" stroke="midnightblue" points="157.38,-84.5559 163.394,-75.8339 153.253,-78.9014 157.38,-84.5559"/>
</g>
<!-- Node5 -->
<g id="node6" class="node"><title>Node5</title>
<polygon fill="white" stroke="#bfbfbf" points="151,-0.5 151,-19.5 200,-19.5 200,-0.5 151,-0.5"/>
<text text-anchor="middle" x="175.5" y="-7.5" font-family="Helvetica,sans-Serif" font-size="10.00">stdint.h</text>
</g>
<!-- Node4&#45;&gt;Node5 -->
<g id="edge6" class="edge"><title>Node4&#45;&gt;Node5</title>
<path fill="none" stroke="midnightblue" d="M175.5,-56.083C175.5,-49.0059 175.5,-38.8611 175.5,-29.9865"/>
<polygon fill="midnightblue" stroke="midnightblue" points="179,-29.751 175.5,-19.7511 172,-29.7511 179,-29.751"/>
</g>
</g>
</svg>
