<?xml version="1.0" encoding="UTF-8" standalone="no"?>
<!DOCTYPE svg PUBLIC "-//W3C//DTD SVG 1.1//EN"
 "http://www.w3.org/Graphics/SVG/1.1/DTD/svg11.dtd">
<!-- Generated by graphviz version 2.38.0 (20140413.2041)
 -->
<!-- Title: src/X2M200.hpp Pages: 1 -->
<svg width="608pt" height="196pt"
 viewBox="0.00 0.00 607.50 196.00" xmlns="http://www.w3.org/2000/svg" xmlns:xlink="http://www.w3.org/1999/xlink">
<g id="graph0" class="graph" transform="scale(1 1) rotate(0) translate(4 192)">
<title>src/X2M200.hpp</title>
<polygon fill="white" stroke="none" points="-4,4 -4,-192 603.5,-192 603.5,4 -4,4"/>
<!-- Node0 -->
<g id="node1" class="node"><title>Node0</title>
<polygon fill="#bfbfbf" stroke="black" points="274,-168.5 274,-187.5 362,-187.5 362,-168.5 274,-168.5"/>
<text text-anchor="middle" x="318" y="-175.5" font-family="Helvetica,sans-Serif" font-size="10.00">src/X2M200.hpp</text>
</g>
<!-- Node1 -->
<g id="node2" class="node"><title>Node1</title>
<polygon fill="white" stroke="#bfbfbf" points="148.5,-56.5 148.5,-75.5 209.5,-75.5 209.5,-56.5 148.5,-56.5"/>
<text text-anchor="middle" x="179" y="-63.5" font-family="Helvetica,sans-Serif" font-size="10.00">Bytes.hpp</text>
</g>
<!-- Node0&#45;&gt;Node1 -->
<g id="edge1" class="edge"><title>Node0&#45;&gt;Node1</title>
<path fill="none" stroke="midnightblue" d="M273.923,-174.681C243.3,-170.543 204.302,-159.718 183,-132 172.997,-118.985 173.054,-99.8253 174.977,-85.6773"/>
<polygon fill="midnightblue" stroke="midnightblue" points="178.461,-86.0763 176.763,-75.6184 171.569,-84.8525 178.461,-86.0763"/>
</g>
<!-- Node2 -->
<g id="node3" class="node"><title>Node2</title>
<g id="a_node3"><a xlink:href="_data_8hpp.xhtml" target="_top" xlink:title="Data.hpp">
<polygon fill="white" stroke="black" points="80,-112.5 80,-131.5 136,-131.5 136,-112.5 80,-112.5"/>
<text text-anchor="middle" x="108" y="-119.5" font-family="Helvetica,sans-Serif" font-size="10.00">Data.hpp</text>
</a>
</g>
</g>
<!-- Node0&#45;&gt;Node2 -->
<g id="edge2" class="edge"><title>Node0&#45;&gt;Node2</title>
<path fill="none" stroke="midnightblue" d="M284.725,-168.444C246.956,-158.731 185.47,-142.921 145.888,-132.743"/>
<polygon fill="midnightblue" stroke="midnightblue" points="146.636,-129.321 136.079,-130.22 144.892,-136.101 146.636,-129.321"/>
</g>
<!-- Node6 -->
<g id="node7" class="node"><title>Node6</title>
<g id="a_node7"><a xlink:href="_recording_options_8hpp.xhtml" target="_top" xlink:title="RecordingOptions.hpp">
<polygon fill="white" stroke="black" points="192.5,-112.5 192.5,-131.5 305.5,-131.5 305.5,-112.5 192.5,-112.5"/>
<text text-anchor="middle" x="249" y="-119.5" font-family="Helvetica,sans-Serif" font-size="10.00">RecordingOptions.hpp</text>
</a>
</g>
</g>
<!-- Node0&#45;&gt;Node6 -->
<g id="edge7" class="edge"><title>Node0&#45;&gt;Node6</title>
<path fill="none" stroke="midnightblue" d="M306.914,-168.324C296.514,-160.185 280.739,-147.839 268.278,-138.087"/>
<polygon fill="midnightblue" stroke="midnightblue" points="270.32,-135.241 260.288,-131.834 266.006,-140.753 270.32,-135.241"/>
</g>
<!-- Node10 -->
<g id="node11" class="node"><title>Node10</title>
<polygon fill="white" stroke="#bfbfbf" points="324,-112.5 324,-131.5 452,-131.5 452,-112.5 324,-112.5"/>
<text text-anchor="middle" x="388" y="-119.5" font-family="Helvetica,sans-Serif" font-size="10.00">LockedRadarForward.hpp</text>
</g>
<!-- Node0&#45;&gt;Node10 -->
<g id="edge12" class="edge"><title>Node0&#45;&gt;Node10</title>
<path fill="none" stroke="midnightblue" d="M329.247,-168.324C339.797,-160.185 355.801,-147.839 368.442,-138.087"/>
<polygon fill="midnightblue" stroke="midnightblue" points="370.769,-140.713 376.549,-131.834 366.493,-135.171 370.769,-140.713"/>
</g>
<!-- Node11 -->
<g id="node12" class="node"><title>Node11</title>
<polygon fill="white" stroke="#bfbfbf" points="470,-112.5 470,-131.5 522,-131.5 522,-112.5 470,-112.5"/>
<text text-anchor="middle" x="496" y="-119.5" font-family="Helvetica,sans-Serif" font-size="10.00">memory</text>
</g>
<!-- Node0&#45;&gt;Node11 -->
<g id="edge13" class="edge"><title>Node0&#45;&gt;Node11</title>
<path fill="none" stroke="midnightblue" d="M346.205,-168.444C377.032,-159.091 426.5,-144.084 460.081,-133.897"/>
<polygon fill="midnightblue" stroke="midnightblue" points="461.401,-137.154 469.954,-130.902 459.369,-130.455 461.401,-137.154"/>
</g>
<!-- Node12 -->
<g id="node13" class="node"><title>Node12</title>
<polygon fill="white" stroke="#bfbfbf" points="540.5,-112.5 540.5,-131.5 599.5,-131.5 599.5,-112.5 540.5,-112.5"/>
<text text-anchor="middle" x="570" y="-119.5" font-family="Helvetica,sans-Serif" font-size="10.00">functional</text>
</g>
<!-- Node0&#45;&gt;Node12 -->
<g id="edge14" class="edge"><title>Node0&#45;&gt;Node12</title>
<path fill="none" stroke="midnightblue" d="M359.68,-168.433C400.557,-159.978 464.914,-146.525 530.152,-132.156"/>
<polygon fill="midnightblue" stroke="midnightblue" points="531.192,-135.511 540.202,-129.936 529.683,-128.675 531.192,-135.511"/>
</g>
<!-- Node2&#45;&gt;Node1 -->
<g id="edge3" class="edge"><title>Node2&#45;&gt;Node1</title>
<path fill="none" stroke="midnightblue" d="M119.407,-112.324C130.109,-104.185 146.341,-91.8395 159.163,-82.0874"/>
<polygon fill="midnightblue" stroke="midnightblue" points="161.544,-84.6734 167.385,-75.8339 157.307,-79.1018 161.544,-84.6734"/>
</g>
<!-- Node3 -->
<g id="node4" class="node"><title>Node3</title>
<polygon fill="white" stroke="#bfbfbf" points="86,-56.5 86,-75.5 130,-75.5 130,-56.5 86,-56.5"/>
<text text-anchor="middle" x="108" y="-63.5" font-family="Helvetica,sans-Serif" font-size="10.00">vector</text>
</g>
<!-- Node2&#45;&gt;Node3 -->
<g id="edge4" class="edge"><title>Node2&#45;&gt;Node3</title>
<path fill="none" stroke="midnightblue" d="M108,-112.083C108,-105.006 108,-94.8611 108,-85.9865"/>
<polygon fill="midnightblue" stroke="midnightblue" points="111.5,-85.751 108,-75.7511 104.5,-85.7511 111.5,-85.751"/>
</g>
<!-- Node4 -->
<g id="node5" class="node"><title>Node4</title>
<g id="a_node5"><a xlink:href="datatypes_8h.xhtml" target="_top" xlink:title="datatypes.h">
<polygon fill="white" stroke="black" points="0,-56.5 0,-75.5 68,-75.5 68,-56.5 0,-56.5"/>
<text text-anchor="middle" x="34" y="-63.5" font-family="Helvetica,sans-Serif" font-size="10.00">datatypes.h</text>
</a>
</g>
</g>
<!-- Node2&#45;&gt;Node4 -->
<g id="edge5" class="edge"><title>Node2&#45;&gt;Node4</title>
<path fill="none" stroke="midnightblue" d="M96.1106,-112.324C84.8498,-104.107 67.7134,-91.6017 54.2909,-81.8069"/>
<polygon fill="midnightblue" stroke="midnightblue" points="56.2468,-78.9014 46.1057,-75.8339 52.1205,-84.5559 56.2468,-78.9014"/>
</g>
<!-- Node5 -->
<g id="node6" class="node"><title>Node5</title>
<polygon fill="white" stroke="#bfbfbf" points="9.5,-0.5 9.5,-19.5 58.5,-19.5 58.5,-0.5 9.5,-0.5"/>
<text text-anchor="middle" x="34" y="-7.5" font-family="Helvetica,sans-Serif" font-size="10.00">stdint.h</text>
</g>
<!-- Node4&#45;&gt;Node5 -->
<g id="edge6" class="edge"><title>Node4&#45;&gt;Node5</title>
<path fill="none" stroke="midnightblue" d="M34,-56.083C34,-49.0059 34,-38.8611 34,-29.9865"/>
<polygon fill="midnightblue" stroke="midnightblue" points="37.5001,-29.751 34,-19.7511 30.5001,-29.7511 37.5001,-29.751"/>
</g>
<!-- Node6&#45;&gt;Node1 -->
<g id="edge10" class="edge"><title>Node6&#45;&gt;Node1</title>
<path fill="none" stroke="midnightblue" d="M237.753,-112.324C227.203,-104.185 211.199,-91.8395 198.558,-82.0874"/>
<polygon fill="midnightblue" stroke="midnightblue" points="200.507,-79.1707 190.451,-75.8339 196.231,-84.7132 200.507,-79.1707"/>
</g>
<!-- Node7 -->
<g id="node8" class="node"><title>Node7</title>
<g id="a_node8"><a xlink:href="_preferred_split_size_8hpp.xhtml" target="_top" xlink:title="PreferredSplitSize.hpp">
<polygon fill="white" stroke="black" points="288,-56.5 288,-75.5 402,-75.5 402,-56.5 288,-56.5"/>
<text text-anchor="middle" x="345" y="-63.5" font-family="Helvetica,sans-Serif" font-size="10.00">PreferredSplitSize.hpp</text>
</a>
</g>
</g>
<!-- Node6&#45;&gt;Node7 -->
<g id="edge8" class="edge"><title>Node6&#45;&gt;Node7</title>
<path fill="none" stroke="midnightblue" d="M264.424,-112.324C279.54,-103.822 302.815,-90.7288 320.471,-80.7975"/>
<polygon fill="midnightblue" stroke="midnightblue" points="322.614,-83.6077 329.614,-75.6545 319.183,-77.5066 322.614,-83.6077"/>
</g>
<!-- Node9 -->
<g id="node10" class="node"><title>Node9</title>
<polygon fill="white" stroke="#bfbfbf" points="228.5,-56.5 228.5,-75.5 269.5,-75.5 269.5,-56.5 228.5,-56.5"/>
<text text-anchor="middle" x="249" y="-63.5" font-family="Helvetica,sans-Serif" font-size="10.00">string</text>
</g>
<!-- Node6&#45;&gt;Node9 -->
<g id="edge11" class="edge"><title>Node6&#45;&gt;Node9</title>
<path fill="none" stroke="midnightblue" d="M249,-112.083C249,-105.006 249,-94.8611 249,-85.9865"/>
<polygon fill="midnightblue" stroke="midnightblue" points="252.5,-85.751 249,-75.7511 245.5,-85.7511 252.5,-85.751"/>
</g>
<!-- Node8 -->
<g id="node9" class="node"><title>Node8</title>
<polygon fill="white" stroke="#bfbfbf" points="317,-0.5 317,-19.5 373,-19.5 373,-0.5 317,-0.5"/>
<text text-anchor="middle" x="345" y="-7.5" font-family="Helvetica,sans-Serif" font-size="10.00">cinttypes</text>
</g>
<!-- Node7&#45;&gt;Node8 -->
<g id="edge9" class="edge"><title>Node7&#45;&gt;Node8</title>
<path fill="none" stroke="midnightblue" d="M345,-56.083C345,-49.0059 345,-38.8611 345,-29.9865"/>
<polygon fill="midnightblue" stroke="midnightblue" points="348.5,-29.751 345,-19.7511 341.5,-29.7511 348.5,-29.751"/>
</g>
</g>
</svg>
