<?xml version="1.0" encoding="UTF-8" standalone="no"?>
<!DOCTYPE svg PUBLIC "-//W3C//DTD SVG 1.1//EN"
 "http://www.w3.org/Graphics/SVG/1.1/DTD/svg11.dtd">
<!-- Generated by graphviz version 2.38.0 (20140413.2041)
 -->
<!-- Title: src/hal/x4m0x_s70/libraries/libusb/include/AUDDFunction.h Pages: 1 -->
<svg width="211pt" height="207pt"
 viewBox="0.00 0.00 211.26 207.00" xmlns="http://www.w3.org/2000/svg" xmlns:xlink="http://www.w3.org/1999/xlink">
<g id="graph0" class="graph" transform="scale(1 1) rotate(0) translate(4 203)">
<title>src/hal/x4m0x_s70/libraries/libusb/include/AUDDFunction.h</title>
<polygon fill="white" stroke="none" points="-4,4 -4,-203 207.261,-203 207.261,4 -4,4"/>
<!-- Node0 -->
<g id="node1" class="node"><title>Node0</title>
<polygon fill="#bfbfbf" stroke="black" points="0,-168.5 0,-198.5 165,-198.5 165,-168.5 0,-168.5"/>
<text text-anchor="start" x="8" y="-186.5" font-family="Helvetica,sans-Serif" font-size="10.00">src/hal/x4m0x_s70/libraries</text>
<text text-anchor="middle" x="82.5" y="-175.5" font-family="Helvetica,sans-Serif" font-size="10.00">/libusb/include/AUDDFunction.h</text>
</g>
<!-- Node1 -->
<g id="node2" class="node"><title>Node1</title>
<g id="a_node2"><a xlink:href="_u_s_b_requests_8h.xhtml" target="_top" xlink:title="USBRequests.h">
<polygon fill="white" stroke="red" points="9.5,-0.5 9.5,-19.5 99.5,-19.5 99.5,-0.5 9.5,-0.5"/>
<text text-anchor="middle" x="54.5" y="-7.5" font-family="Helvetica,sans-Serif" font-size="10.00">USBRequests.h</text>
</a>
</g>
</g>
<!-- Node0&#45;&gt;Node1 -->
<g id="edge1" class="edge"><title>Node0&#45;&gt;Node1</title>
<path fill="none" stroke="midnightblue" d="M70.1685,-168.238C54.3819,-148.897 27.9415,-112.55 18.5,-76 16.2768,-67.3936 15.5577,-64.3878 18.5,-56 22.2852,-45.2094 29.8665,-35.084 37.0998,-27.1808"/>
<polygon fill="midnightblue" stroke="midnightblue" points="39.8256,-29.4005 44.3379,-19.8145 34.8326,-24.4943 39.8256,-29.4005"/>
</g>
<!-- Node3 -->
<g id="node3" class="node"><title>Node3</title>
<g id="a_node3"><a xlink:href="_a_u_d_d_speaker_phone_8h.xhtml" target="_top" xlink:title="USB Audio Speaker &amp; Microphone Function. ">
<polygon fill="white" stroke="red" points="66,-112.5 66,-131.5 191,-131.5 191,-112.5 66,-112.5"/>
<text text-anchor="middle" x="128.5" y="-119.5" font-family="Helvetica,sans-Serif" font-size="10.00">AUDDSpeakerPhone.h</text>
</a>
</g>
</g>
<!-- Node0&#45;&gt;Node3 -->
<g id="edge2" class="edge"><title>Node0&#45;&gt;Node3</title>
<path fill="none" stroke="midnightblue" d="M93.4014,-168.399C100.086,-159.753 108.676,-148.642 115.685,-139.576"/>
<polygon fill="midnightblue" stroke="midnightblue" points="118.459,-141.71 121.807,-131.658 112.921,-137.428 118.459,-141.71"/>
</g>
<!-- Node5 -->
<g id="node4" class="node"><title>Node5</title>
<g id="a_node4"><a xlink:href="_u_s_b_d_8h.xhtml" target="_top" xlink:title="USBD.h">
<polygon fill="white" stroke="red" points="27.5,-56.5 27.5,-75.5 81.5,-75.5 81.5,-56.5 27.5,-56.5"/>
<text text-anchor="middle" x="54.5" y="-63.5" font-family="Helvetica,sans-Serif" font-size="10.00">USBD.h</text>
</a>
</g>
</g>
<!-- Node0&#45;&gt;Node5 -->
<g id="edge7" class="edge"><title>Node0&#45;&gt;Node5</title>
<path fill="none" stroke="midnightblue" d="M72.9309,-168.173C66.9863,-158.425 59.8583,-144.984 56.5,-132 52.564,-116.783 52.3175,-98.8933 52.9117,-85.7383"/>
<polygon fill="midnightblue" stroke="midnightblue" points="56.4157,-85.7907 53.5786,-75.5828 49.4307,-85.3319 56.4157,-85.7907"/>
</g>
<!-- Node13 -->
<g id="node5" class="node"><title>Node13</title>
<g id="a_node5"><a xlink:href="_u_s_b_d_driver_8h.xhtml" target="_top" xlink:title="USBDDriver.h">
<polygon fill="white" stroke="red" points="99.5,-56.5 99.5,-75.5 181.5,-75.5 181.5,-56.5 99.5,-56.5"/>
<text text-anchor="middle" x="140.5" y="-63.5" font-family="Helvetica,sans-Serif" font-size="10.00">USBDDriver.h</text>
</a>
</g>
</g>
<!-- Node0&#45;&gt;Node13 -->
<g id="edge8" class="edge"><title>Node0&#45;&gt;Node13</title>
<path fill="none" stroke="midnightblue" d="M149.727,-168.421C169.064,-160.922 188.013,-149.469 199.5,-132 212.395,-112.39 188.425,-92.851 167.277,-80.3943"/>
<polygon fill="midnightblue" stroke="midnightblue" points="168.941,-77.3153 158.502,-75.5097 165.537,-83.4316 168.941,-77.3153"/>
</g>
<!-- Node3&#45;&gt;Node5 -->
<g id="edge3" class="edge"><title>Node3&#45;&gt;Node5</title>
<path fill="none" stroke="midnightblue" d="M116.611,-112.324C105.35,-104.107 88.2134,-91.6017 74.7909,-81.8069"/>
<polygon fill="midnightblue" stroke="midnightblue" points="76.7468,-78.9014 66.6057,-75.8339 72.6205,-84.5559 76.7468,-78.9014"/>
</g>
<!-- Node3&#45;&gt;Node13 -->
<g id="edge5" class="edge"><title>Node3&#45;&gt;Node13</title>
<path fill="none" stroke="midnightblue" d="M130.482,-112.083C132.072,-104.927 134.359,-94.6353 136.346,-85.6911"/>
<polygon fill="midnightblue" stroke="midnightblue" points="139.803,-86.2722 138.555,-75.7511 132.969,-84.7537 139.803,-86.2722"/>
</g>
<!-- Node5&#45;&gt;Node1 -->
<g id="edge4" class="edge"><title>Node5&#45;&gt;Node1</title>
<path fill="none" stroke="midnightblue" d="M54.5,-56.083C54.5,-49.0059 54.5,-38.8611 54.5,-29.9865"/>
<polygon fill="midnightblue" stroke="midnightblue" points="58.0001,-29.751 54.5,-19.7511 51.0001,-29.7511 58.0001,-29.751"/>
</g>
<!-- Node13&#45;&gt;Node1 -->
<g id="edge6" class="edge"><title>Node13&#45;&gt;Node1</title>
<path fill="none" stroke="midnightblue" d="M126.683,-56.324C113.267,-47.9002 92.6759,-34.9709 76.9144,-25.0741"/>
<polygon fill="midnightblue" stroke="midnightblue" points="78.6132,-22.0081 68.2831,-19.6545 74.8908,-27.9364 78.6132,-22.0081"/>
</g>
</g>
</svg>
