<?xml version="1.0" encoding="UTF-8" standalone="no"?>
<!DOCTYPE svg PUBLIC "-//W3C//DTD SVG 1.1//EN"
 "http://www.w3.org/Graphics/SVG/1.1/DTD/svg11.dtd">
<!-- Generated by graphviz version 2.38.0 (20140413.2041)
 -->
<!-- Title: src/hal/x4m0x_s70/libraries/libusb/device/composite/AUDDFunction.c Pages: 1 -->
<svg width="542pt" height="218pt"
 viewBox="0.00 0.00 541.50 218.00" xmlns="http://www.w3.org/2000/svg" xmlns:xlink="http://www.w3.org/1999/xlink">
<g id="graph0" class="graph" transform="scale(1 1) rotate(0) translate(4 214)">
<title>src/hal/x4m0x_s70/libraries/libusb/device/composite/AUDDFunction.c</title>
<polygon fill="white" stroke="none" points="-4,4 -4,-214 537.5,-214 537.5,4 -4,4"/>
<!-- Node0 -->
<g id="node1" class="node"><title>Node0</title>
<polygon fill="#bfbfbf" stroke="black" points="159,-168.5 159,-209.5 305,-209.5 305,-168.5 159,-168.5"/>
<text text-anchor="start" x="167" y="-197.5" font-family="Helvetica,sans-Serif" font-size="10.00">src/hal/x4m0x_s70/libraries</text>
<text text-anchor="start" x="167" y="-186.5" font-family="Helvetica,sans-Serif" font-size="10.00">/libusb/device/composite</text>
<text text-anchor="middle" x="232" y="-175.5" font-family="Helvetica,sans-Serif" font-size="10.00">/AUDDFunction.c</text>
</g>
<!-- Node1 -->
<g id="node2" class="node"><title>Node1</title>
<g id="a_node2"><a xlink:href="_u_s_b_lib___trace_8h.xhtml" target="_top" xlink:title="USBLib_Trace.h">
<polygon fill="white" stroke="red" points="0,-112.5 0,-131.5 90,-131.5 90,-112.5 0,-112.5"/>
<text text-anchor="middle" x="45" y="-119.5" font-family="Helvetica,sans-Serif" font-size="10.00">USBLib_Trace.h</text>
</a>
</g>
</g>
<!-- Node0&#45;&gt;Node1 -->
<g id="edge1" class="edge"><title>Node0&#45;&gt;Node1</title>
<path fill="none" stroke="midnightblue" d="M175.894,-168.498C144.604,-157.622 106.625,-144.421 79.6539,-135.045"/>
<polygon fill="midnightblue" stroke="midnightblue" points="80.4874,-131.63 69.8925,-131.652 78.189,-138.242 80.4874,-131.63"/>
</g>
<!-- Node3 -->
<g id="node3" class="node"><title>Node3</title>
<g id="a_node3"><a xlink:href="_a_u_d_d_function_8h.xhtml" target="_top" xlink:title="AUDDFunction.h">
<polygon fill="white" stroke="red" points="184.5,-112.5 184.5,-131.5 279.5,-131.5 279.5,-112.5 184.5,-112.5"/>
<text text-anchor="middle" x="232" y="-119.5" font-family="Helvetica,sans-Serif" font-size="10.00">AUDDFunction.h</text>
</a>
</g>
</g>
<!-- Node0&#45;&gt;Node3 -->
<g id="edge2" class="edge"><title>Node0&#45;&gt;Node3</title>
<path fill="none" stroke="midnightblue" d="M232,-168.498C232,-160.065 232,-150.235 232,-141.874"/>
<polygon fill="midnightblue" stroke="midnightblue" points="235.5,-141.652 232,-131.652 228.5,-141.653 235.5,-141.652"/>
</g>
<!-- Node6 -->
<g id="node4" class="node"><title>Node6</title>
<g id="a_node4"><a xlink:href="_a_u_d_d_speaker_phone_8h.xhtml" target="_top" xlink:title="USB Audio Speaker &amp; Microphone Function. ">
<polygon fill="white" stroke="red" points="260.5,-56.5 260.5,-75.5 385.5,-75.5 385.5,-56.5 260.5,-56.5"/>
<text text-anchor="middle" x="323" y="-63.5" font-family="Helvetica,sans-Serif" font-size="10.00">AUDDSpeakerPhone.h</text>
</a>
</g>
</g>
<!-- Node0&#45;&gt;Node6 -->
<g id="edge8" class="edge"><title>Node0&#45;&gt;Node6</title>
<path fill="none" stroke="midnightblue" d="M255.052,-168.445C266.159,-158.293 279.167,-145.26 289,-132 299.881,-117.327 309.243,-98.6908 315.372,-85.1387"/>
<polygon fill="midnightblue" stroke="midnightblue" points="318.604,-86.4813 319.4,-75.9164 312.19,-83.6794 318.604,-86.4813"/>
</g>
<!-- Node8 -->
<g id="node5" class="node"><title>Node8</title>
<g id="a_node5"><a xlink:href="_u_s_b_d_8h.xhtml" target="_top" xlink:title="USBD.h">
<polygon fill="white" stroke="red" points="148,-0.5 148,-19.5 202,-19.5 202,-0.5 148,-0.5"/>
<text text-anchor="middle" x="175" y="-7.5" font-family="Helvetica,sans-Serif" font-size="10.00">USBD.h</text>
</a>
</g>
</g>
<!-- Node0&#45;&gt;Node8 -->
<g id="edge10" class="edge"><title>Node0&#45;&gt;Node8</title>
<path fill="none" stroke="midnightblue" d="M204.427,-168.259C193.414,-158.697 181.952,-146.203 176,-132 161.841,-98.213 166.508,-54.3111 170.923,-29.7519"/>
<polygon fill="midnightblue" stroke="midnightblue" points="174.413,-30.1459 172.925,-19.656 167.546,-28.7838 174.413,-30.1459"/>
</g>
<!-- Node15 -->
<g id="node6" class="node"><title>Node15</title>
<g id="a_node6"><a xlink:href="_u_s_b_d_driver_8h.xhtml" target="_top" xlink:title="USBDDriver.h">
<polygon fill="white" stroke="red" points="282,-0.5 282,-19.5 364,-19.5 364,-0.5 282,-0.5"/>
<text text-anchor="middle" x="323" y="-7.5" font-family="Helvetica,sans-Serif" font-size="10.00">USBDDriver.h</text>
</a>
</g>
</g>
<!-- Node0&#45;&gt;Node15 -->
<g id="edge13" class="edge"><title>Node0&#45;&gt;Node15</title>
<path fill="none" stroke="midnightblue" d="M283.098,-168.489C321.582,-150.759 371.577,-120.514 395,-76 406.769,-53.6339 379.994,-35.1525 355.823,-23.6878"/>
<polygon fill="midnightblue" stroke="midnightblue" points="356.989,-20.3759 346.431,-19.5005 354.139,-26.7693 356.989,-20.3759"/>
</g>
<!-- Node16 -->
<g id="node7" class="node"><title>Node16</title>
<g id="a_node7"><a xlink:href="_a_u_d_requests_8h.xhtml" target="_top" xlink:title="Definitions and classes for USB Audio class requests. ">
<polygon fill="white" stroke="red" points="442.5,-112.5 442.5,-131.5 533.5,-131.5 533.5,-112.5 442.5,-112.5"/>
<text text-anchor="middle" x="488" y="-119.5" font-family="Helvetica,sans-Serif" font-size="10.00">AUDRequests.h</text>
</a>
</g>
</g>
<!-- Node0&#45;&gt;Node16 -->
<g id="edge9" class="edge"><title>Node0&#45;&gt;Node16</title>
<path fill="none" stroke="midnightblue" d="M305.017,-169.461C350.057,-158.025 406.311,-143.741 444.471,-134.052"/>
<polygon fill="midnightblue" stroke="midnightblue" points="445.415,-137.424 454.247,-131.57 443.693,-130.639 445.415,-137.424"/>
</g>
<!-- Node17 -->
<g id="node8" class="node"><title>Node17</title>
<g id="a_node8"><a xlink:href="_u_s_b_d___h_a_l_8h.xhtml" target="_top" xlink:title="This file defines functions for USB Device Hardware Access Level. ">
<polygon fill="white" stroke="red" points="48.5,-56.5 48.5,-75.5 127.5,-75.5 127.5,-56.5 48.5,-56.5"/>
<text text-anchor="middle" x="88" y="-63.5" font-family="Helvetica,sans-Serif" font-size="10.00">USBD_HAL.h</text>
</a>
</g>
</g>
<!-- Node0&#45;&gt;Node17 -->
<g id="edge11" class="edge"><title>Node0&#45;&gt;Node17</title>
<path fill="none" stroke="midnightblue" d="M194.685,-168.407C177.733,-158.621 157.951,-145.908 142,-132 125.491,-117.605 109.872,-97.8931 99.7194,-83.9614"/>
<polygon fill="midnightblue" stroke="midnightblue" points="102.531,-81.8756 93.8829,-75.755 96.8265,-85.9327 102.531,-81.8756"/>
</g>
<!-- Node3&#45;&gt;Node6 -->
<g id="edge3" class="edge"><title>Node3&#45;&gt;Node6</title>
<path fill="none" stroke="midnightblue" d="M246.621,-112.324C260.949,-103.822 283.013,-90.7288 299.749,-80.7975"/>
<polygon fill="midnightblue" stroke="midnightblue" points="301.602,-83.7677 308.416,-75.6545 298.03,-77.7478 301.602,-83.7677"/>
</g>
<!-- Node3&#45;&gt;Node8 -->
<g id="edge6" class="edge"><title>Node3&#45;&gt;Node8</title>
<path fill="none" stroke="midnightblue" d="M227.527,-112.368C218.204,-94.376 196.531,-52.5503 184.134,-28.6267"/>
<polygon fill="midnightblue" stroke="midnightblue" points="187.16,-26.8599 179.452,-19.5914 180.945,-30.0805 187.16,-26.8599"/>
</g>
<!-- Node3&#45;&gt;Node15 -->
<g id="edge7" class="edge"><title>Node3&#45;&gt;Node15</title>
<path fill="none" stroke="midnightblue" d="M232.778,-112.127C234.351,-98.7263 238.958,-73.078 252,-56 262.535,-42.2043 278.608,-31.5137 292.798,-24.0211"/>
<polygon fill="midnightblue" stroke="midnightblue" points="294.378,-27.1445 301.774,-19.5586 291.262,-20.8764 294.378,-27.1445"/>
</g>
<!-- Node6&#45;&gt;Node8 -->
<g id="edge4" class="edge"><title>Node6&#45;&gt;Node8</title>
<path fill="none" stroke="midnightblue" d="M299.549,-56.4435C274.867,-47.4381 235.815,-33.1891 208.023,-23.049"/>
<polygon fill="midnightblue" stroke="midnightblue" points="208.935,-19.6561 198.341,-19.5164 206.536,-26.2321 208.935,-19.6561"/>
</g>
<!-- Node6&#45;&gt;Node15 -->
<g id="edge5" class="edge"><title>Node6&#45;&gt;Node15</title>
<path fill="none" stroke="midnightblue" d="M323,-56.083C323,-49.0059 323,-38.8611 323,-29.9865"/>
<polygon fill="midnightblue" stroke="midnightblue" points="326.5,-29.751 323,-19.7511 319.5,-29.7511 326.5,-29.751"/>
</g>
<!-- Node17&#45;&gt;Node8 -->
<g id="edge12" class="edge"><title>Node17&#45;&gt;Node8</title>
<path fill="none" stroke="midnightblue" d="M101.978,-56.324C115.55,-47.9002 136.38,-34.9709 152.325,-25.0741"/>
<polygon fill="midnightblue" stroke="midnightblue" points="154.406,-27.9019 161.057,-19.6545 150.714,-21.9544 154.406,-27.9019"/>
</g>
</g>
</svg>
