<?xml version="1.0" encoding="UTF-8" standalone="no"?>
<!DOCTYPE svg PUBLIC "-//W3C//DTD SVG 1.1//EN"
 "http://www.w3.org/Graphics/SVG/1.1/DTD/svg11.dtd">
<!-- Generated by graphviz version 2.38.0 (20140413.2041)
 -->
<!-- Title: src/hal/x4m0x_s70/libraries/libusb/common/cdc/CDCSetControlLineStateRequest.c Pages: 1 -->
<svg width="196pt" height="106pt"
 viewBox="0.00 0.00 196.00 106.00" xmlns="http://www.w3.org/2000/svg" xmlns:xlink="http://www.w3.org/1999/xlink">
<g id="graph0" class="graph" transform="scale(1 1) rotate(0) translate(4 102)">
<title>src/hal/x4m0x_s70/libraries/libusb/common/cdc/CDCSetControlLineStateRequest.c</title>
<polygon fill="white" stroke="none" points="-4,4 -4,-102 192,-102 192,4 -4,4"/>
<!-- Node0 -->
<g id="node1" class="node"><title>Node0</title>
<polygon fill="#bfbfbf" stroke="black" points="0,-56.5 0,-97.5 188,-97.5 188,-56.5 0,-56.5"/>
<text text-anchor="start" x="8" y="-85.5" font-family="Helvetica,sans-Serif" font-size="10.00">src/hal/x4m0x_s70/libraries</text>
<text text-anchor="start" x="8" y="-74.5" font-family="Helvetica,sans-Serif" font-size="10.00">/libusb/common/cdc/CDCSetControl</text>
<text text-anchor="middle" x="94" y="-63.5" font-family="Helvetica,sans-Serif" font-size="10.00">LineStateRequest.c</text>
</g>
<!-- Node1 -->
<g id="node2" class="node"><title>Node1</title>
<g id="a_node2"><a xlink:href="_c_d_c_requests_8h.xhtml" target="_top" xlink:title="Definitions and classes for USB CDC class requests (mostly for ACM). ">
<polygon fill="white" stroke="red" points="49,-0.5 49,-19.5 139,-19.5 139,-0.5 49,-0.5"/>
<text text-anchor="middle" x="94" y="-7.5" font-family="Helvetica,sans-Serif" font-size="10.00">CDCRequests.h</text>
</a>
</g>
</g>
<!-- Node0&#45;&gt;Node1 -->
<g id="edge1" class="edge"><title>Node0&#45;&gt;Node1</title>
<path fill="none" stroke="midnightblue" d="M94,-56.4979C94,-48.0653 94,-38.2351 94,-29.874"/>
<polygon fill="midnightblue" stroke="midnightblue" points="97.5001,-29.6525 94,-19.6525 90.5001,-29.6525 97.5001,-29.6525"/>
</g>
</g>
</svg>
