<?xml version="1.0" encoding="UTF-8" standalone="no"?>
<!DOCTYPE svg PUBLIC "-//W3C//DTD SVG 1.1//EN"
 "http://www.w3.org/Graphics/SVG/1.1/DTD/svg11.dtd">
<!-- Generated by graphviz version 2.38.0 (20140413.2041)
 -->
<!-- Title: src/hal/x4m0x_s70/libraries/libusb/include/CDCDescriptors.h Pages: 1 -->
<svg width="1732pt" height="184pt"
 viewBox="0.00 0.00 1731.50 184.00" xmlns="http://www.w3.org/2000/svg" xmlns:xlink="http://www.w3.org/1999/xlink">
<g id="graph0" class="graph" transform="scale(1 1) rotate(0) translate(4 180)">
<title>src/hal/x4m0x_s70/libraries/libusb/include/CDCDescriptors.h</title>
<polygon fill="white" stroke="none" points="-4,4 -4,-180 1727.5,-180 1727.5,4 -4,4"/>
<!-- Node2 -->
<g id="node1" class="node"><title>Node2</title>
<polygon fill="#bfbfbf" stroke="black" points="725,-145.5 725,-175.5 897,-175.5 897,-145.5 725,-145.5"/>
<text text-anchor="start" x="733" y="-163.5" font-family="Helvetica,sans-Serif" font-size="10.00">src/hal/x4m0x_s70/libraries</text>
<text text-anchor="middle" x="811" y="-152.5" font-family="Helvetica,sans-Serif" font-size="10.00">/libusb/include/CDCDescriptors.h</text>
</g>
<!-- Node3 -->
<g id="node2" class="node"><title>Node3</title>
<g id="a_node2"><a xlink:href="_c_d_c_d_e_e_m_port_8c.xhtml" target="_top" xlink:title="Implementation of the CDCDEEMPort class methods. ">
<polygon fill="white" stroke="black" points="0,-73 0,-103 206,-103 206,-73 0,-73"/>
<text text-anchor="start" x="8" y="-91" font-family="Helvetica,sans-Serif" font-size="10.00">src/hal/x4m0x_s70/libraries</text>
<text text-anchor="middle" x="103" y="-80" font-family="Helvetica,sans-Serif" font-size="10.00">/libusb/device/cdc&#45;eem/CDCDEEMPort.c</text>
</a>
</g>
</g>
<!-- Node2&#45;&gt;Node3 -->
<g id="edge1" class="edge"><title>Node2&#45;&gt;Node3</title>
<path fill="none" stroke="midnightblue" d="M714.769,-154.084C596.702,-146.81 390.575,-132.065 215,-109 202.368,-107.341 188.992,-105.248 176.048,-103.045"/>
<polygon fill="midnightblue" stroke="midnightblue" points="714.67,-157.585 724.865,-154.701 715.098,-150.598 714.67,-157.585"/>
</g>
<!-- Node4 -->
<g id="node3" class="node"><title>Node4</title>
<g id="a_node3"><a xlink:href="_c_d_c_d_serial_port_8c.xhtml" target="_top" xlink:title="Implementation of the CDCDSerialPort class methods. ">
<polygon fill="white" stroke="black" points="224,-67.5 224,-108.5 370,-108.5 370,-67.5 224,-67.5"/>
<text text-anchor="start" x="232" y="-96.5" font-family="Helvetica,sans-Serif" font-size="10.00">src/hal/x4m0x_s70/libraries</text>
<text text-anchor="start" x="232" y="-85.5" font-family="Helvetica,sans-Serif" font-size="10.00">/libusb/device/cdc&#45;serial</text>
<text text-anchor="middle" x="297" y="-74.5" font-family="Helvetica,sans-Serif" font-size="10.00">/CDCDSerialPort.c</text>
</a>
</g>
</g>
<!-- Node2&#45;&gt;Node4 -->
<g id="edge2" class="edge"><title>Node2&#45;&gt;Node4</title>
<path fill="none" stroke="midnightblue" d="M714.668,-151.656C626.79,-143.691 493.562,-129.587 379,-109 376.116,-108.482 373.181,-107.922 370.223,-107.331"/>
<polygon fill="midnightblue" stroke="midnightblue" points="714.616,-155.165 724.889,-152.573 715.242,-148.193 714.616,-155.165"/>
</g>
<!-- Node5 -->
<g id="node4" class="node"><title>Node5</title>
<g id="a_node4"><a xlink:href="uhi__cdc_8c.xhtml" target="_top" xlink:title="USB host Communication Device Class interface. ">
<polygon fill="white" stroke="black" points="388,-73 388,-103 534,-103 534,-73 388,-73"/>
<text text-anchor="start" x="396" y="-91" font-family="Helvetica,sans-Serif" font-size="10.00">src/hal/x4m0x_s70/libraries</text>
<text text-anchor="middle" x="461" y="-80" font-family="Helvetica,sans-Serif" font-size="10.00">/libusb/host/cdc/uhi_cdc.c</text>
</a>
</g>
</g>
<!-- Node2&#45;&gt;Node5 -->
<g id="edge3" class="edge"><title>Node2&#45;&gt;Node5</title>
<path fill="none" stroke="midnightblue" d="M720.565,-143.691C668.501,-134.282 601.912,-121.725 543,-109 534.549,-107.175 525.638,-105.128 516.928,-103.06"/>
<polygon fill="midnightblue" stroke="midnightblue" points="719.983,-147.142 730.445,-145.47 721.224,-140.253 719.983,-147.142"/>
</g>
<!-- Node6 -->
<g id="node5" class="node"><title>Node6</title>
<g id="a_node5"><a xlink:href="_c_d_c_a_u_d_d_driver_8h.xhtml" target="_top" xlink:title="src/hal/x4m0x_s70/libraries\l/libusb/include/CDCAUDDDriver.h">
<polygon fill="white" stroke="red" points="552,-73 552,-103 726,-103 726,-73 552,-73"/>
<text text-anchor="start" x="560" y="-91" font-family="Helvetica,sans-Serif" font-size="10.00">src/hal/x4m0x_s70/libraries</text>
<text text-anchor="middle" x="639" y="-80" font-family="Helvetica,sans-Serif" font-size="10.00">/libusb/include/CDCAUDDDriver.h</text>
</a>
</g>
</g>
<!-- Node2&#45;&gt;Node6 -->
<g id="edge4" class="edge"><title>Node2&#45;&gt;Node6</title>
<path fill="none" stroke="midnightblue" d="M767.083,-141.499C737.951,-129.559 700.27,-114.114 673.334,-103.073"/>
<polygon fill="midnightblue" stroke="midnightblue" points="766.026,-144.849 776.607,-145.403 768.681,-138.372 766.026,-144.849"/>
</g>
<!-- Node8 -->
<g id="node6" class="node"><title>Node8</title>
<g id="a_node6"><a xlink:href="usb_8h.xhtml" target="_top" xlink:title="Definition of SAM9XX5&#45;EK usb library. ">
<polygon fill="white" stroke="black" points="1086,-0.5 1086,-30.5 1232,-30.5 1232,-0.5 1086,-0.5"/>
<text text-anchor="start" x="1094" y="-18.5" font-family="Helvetica,sans-Serif" font-size="10.00">src/hal/x4m0x_s70/libraries</text>
<text text-anchor="middle" x="1159" y="-7.5" font-family="Helvetica,sans-Serif" font-size="10.00">/libusb/usb.h</text>
</a>
</g>
</g>
<!-- Node2&#45;&gt;Node8 -->
<g id="edge15" class="edge"><title>Node2&#45;&gt;Node8</title>
<path fill="none" stroke="midnightblue" d="M790.469,-137.641C773.938,-117.365 756.154,-87.3397 774,-67 794.202,-43.9754 979.776,-28.1897 1085.72,-20.9696"/>
<polygon fill="midnightblue" stroke="midnightblue" points="787.968,-140.102 797.134,-145.416 793.283,-135.546 787.968,-140.102"/>
</g>
<!-- Node9 -->
<g id="node7" class="node"><title>Node9</title>
<g id="a_node7"><a xlink:href="_c_d_c_d_e_e_m_driver_8h.xhtml" target="_top" xlink:title="src/hal/x4m0x_s70/libraries\l/libusb/include/CDCDEEMDriver.h">
<polygon fill="white" stroke="red" points="782.5,-73 782.5,-103 955.5,-103 955.5,-73 782.5,-73"/>
<text text-anchor="start" x="790.5" y="-91" font-family="Helvetica,sans-Serif" font-size="10.00">src/hal/x4m0x_s70/libraries</text>
<text text-anchor="middle" x="869" y="-80" font-family="Helvetica,sans-Serif" font-size="10.00">/libusb/include/CDCDEEMDriver.h</text>
</a>
</g>
</g>
<!-- Node2&#45;&gt;Node9 -->
<g id="edge6" class="edge"><title>Node2&#45;&gt;Node9</title>
<path fill="none" stroke="midnightblue" d="M829.336,-137.213C838.479,-126.099 849.266,-112.988 857.28,-103.246"/>
<polygon fill="midnightblue" stroke="midnightblue" points="826.388,-135.287 822.737,-145.233 831.793,-139.734 826.388,-135.287"/>
</g>
<!-- Node11 -->
<g id="node8" class="node"><title>Node11</title>
<g id="a_node8"><a xlink:href="_c_d_c_d_serial_driver_8h.xhtml" target="_top" xlink:title="src/hal/x4m0x_s70/libraries\l/libusb/include/CDCDSerialDriver.h">
<polygon fill="white" stroke="red" points="973.5,-73 973.5,-103 1152.5,-103 1152.5,-73 973.5,-73"/>
<text text-anchor="start" x="981.5" y="-91" font-family="Helvetica,sans-Serif" font-size="10.00">src/hal/x4m0x_s70/libraries</text>
<text text-anchor="middle" x="1063" y="-80" font-family="Helvetica,sans-Serif" font-size="10.00">/libusb/include/CDCDSerialDriver.h</text>
</a>
</g>
</g>
<!-- Node2&#45;&gt;Node11 -->
<g id="edge7" class="edge"><title>Node2&#45;&gt;Node11</title>
<path fill="none" stroke="midnightblue" d="M870.903,-142.741C914.093,-130.659 971.735,-114.533 1012.58,-103.107"/>
<polygon fill="midnightblue" stroke="midnightblue" points="869.776,-139.422 861.088,-145.487 871.662,-146.164 869.776,-139.422"/>
</g>
<!-- Node17 -->
<g id="node9" class="node"><title>Node17</title>
<g id="a_node9"><a xlink:href="_c_d_c_h_i_d_d_driver_8h.xhtml" target="_top" xlink:title="src/hal/x4m0x_s70/libraries\l/libusb/include/CDCHIDDDriver.h">
<polygon fill="white" stroke="red" points="1171,-73 1171,-103 1341,-103 1341,-73 1171,-73"/>
<text text-anchor="start" x="1179" y="-91" font-family="Helvetica,sans-Serif" font-size="10.00">src/hal/x4m0x_s70/libraries</text>
<text text-anchor="middle" x="1256" y="-80" font-family="Helvetica,sans-Serif" font-size="10.00">/libusb/include/CDCHIDDDriver.h</text>
</a>
</g>
</g>
<!-- Node2&#45;&gt;Node17 -->
<g id="edge9" class="edge"><title>Node2&#45;&gt;Node17</title>
<path fill="none" stroke="midnightblue" d="M907.309,-147.405C977.991,-138.101 1076.21,-124.28 1162,-109 1172.02,-107.215 1182.6,-105.146 1192.91,-103.028"/>
<polygon fill="midnightblue" stroke="midnightblue" points="906.546,-143.975 897.085,-148.745 907.455,-150.916 906.546,-143.975"/>
</g>
<!-- Node19 -->
<g id="node10" class="node"><title>Node19</title>
<g id="a_node10"><a xlink:href="_c_d_c_m_s_d_driver_8h.xhtml" target="_top" xlink:title="src/hal/x4m0x_s70/libraries\l/libusb/include/CDCMSDDriver.h">
<polygon fill="white" stroke="red" points="1359.5,-73 1359.5,-103 1526.5,-103 1526.5,-73 1359.5,-73"/>
<text text-anchor="start" x="1367.5" y="-91" font-family="Helvetica,sans-Serif" font-size="10.00">src/hal/x4m0x_s70/libraries</text>
<text text-anchor="middle" x="1443" y="-80" font-family="Helvetica,sans-Serif" font-size="10.00">/libusb/include/CDCMSDDriver.h</text>
</a>
</g>
</g>
<!-- Node2&#45;&gt;Node19 -->
<g id="edge11" class="edge"><title>Node2&#45;&gt;Node19</title>
<path fill="none" stroke="midnightblue" d="M907.51,-153.915C1015.69,-146.853 1196.12,-132.67 1350,-109 1360.61,-107.368 1371.83,-105.275 1382.66,-103.061"/>
<polygon fill="midnightblue" stroke="midnightblue" points="907.023,-150.439 897.269,-154.576 907.474,-157.424 907.023,-150.439"/>
</g>
<!-- Node21 -->
<g id="node11" class="node"><title>Node21</title>
<g id="a_node11"><a xlink:href="_d_u_a_l_c_d_c_d_driver_8h.xhtml" target="_top" xlink:title="src/hal/x4m0x_s70/libraries\l/libusb/include/DUALCDCDDriver.h">
<polygon fill="white" stroke="red" points="1544.5,-73 1544.5,-103 1723.5,-103 1723.5,-73 1544.5,-73"/>
<text text-anchor="start" x="1552.5" y="-91" font-family="Helvetica,sans-Serif" font-size="10.00">src/hal/x4m0x_s70/libraries</text>
<text text-anchor="middle" x="1634" y="-80" font-family="Helvetica,sans-Serif" font-size="10.00">/libusb/include/DUALCDCDDriver.h</text>
</a>
</g>
</g>
<!-- Node2&#45;&gt;Node21 -->
<g id="edge13" class="edge"><title>Node2&#45;&gt;Node21</title>
<path fill="none" stroke="midnightblue" d="M907.247,-156.83C1046.5,-152.053 1312.04,-139.518 1536,-109 1547.53,-107.429 1559.73,-105.311 1571.47,-103.039"/>
<polygon fill="midnightblue" stroke="midnightblue" points="906.908,-153.339 897.032,-157.174 907.144,-160.335 906.908,-153.339"/>
</g>
<!-- Node6&#45;&gt;Node8 -->
<g id="edge5" class="edge"><title>Node6&#45;&gt;Node8</title>
<path fill="none" stroke="midnightblue" d="M716.317,-71.0701C724.301,-69.611 732.304,-68.2239 740,-67 860.66,-47.8102 1001.91,-32.1935 1085.72,-23.637"/>
<polygon fill="midnightblue" stroke="midnightblue" points="715.429,-67.6754 706.241,-72.95 716.713,-74.5566 715.429,-67.6754"/>
</g>
<!-- Node11&#45;&gt;Node8 -->
<g id="edge8" class="edge"><title>Node11&#45;&gt;Node8</title>
<path fill="none" stroke="midnightblue" d="M1090.77,-66.6101C1106.54,-55.0289 1125.87,-40.8282 1139.93,-30.5049"/>
<polygon fill="midnightblue" stroke="midnightblue" points="1088.42,-63.9931 1082.43,-72.7333 1092.56,-69.6352 1088.42,-63.9931"/>
</g>
<!-- Node17&#45;&gt;Node8 -->
<g id="edge10" class="edge"><title>Node17&#45;&gt;Node8</title>
<path fill="none" stroke="midnightblue" d="M1227.95,-66.6101C1212.01,-55.0289 1192.47,-40.8282 1178.27,-30.5049"/>
<polygon fill="midnightblue" stroke="midnightblue" points="1226.22,-69.6852 1236.37,-72.7333 1230.34,-64.0228 1226.22,-69.6852"/>
</g>
<!-- Node19&#45;&gt;Node8 -->
<g id="edge12" class="edge"><title>Node19&#45;&gt;Node8</title>
<path fill="none" stroke="midnightblue" d="M1376.72,-70.5457C1327.91,-58.4305 1262.24,-42.1288 1215.83,-30.6069"/>
<polygon fill="midnightblue" stroke="midnightblue" points="1376,-73.9747 1386.55,-72.9872 1377.69,-67.1809 1376,-73.9747"/>
</g>
<!-- Node21&#45;&gt;Node8 -->
<g id="edge14" class="edge"><title>Node21&#45;&gt;Node8</title>
<path fill="none" stroke="midnightblue" d="M1558.53,-71.0604C1550.93,-69.6172 1543.32,-68.236 1536,-67 1430.84,-49.2474 1308.32,-33.7954 1232.2,-24.8066"/>
<polygon fill="midnightblue" stroke="midnightblue" points="1558,-74.5233 1568.49,-72.9866 1559.33,-67.6508 1558,-74.5233"/>
</g>
</g>
</svg>
