<?xml version="1.0" encoding="UTF-8" standalone="no"?>
<!DOCTYPE svg PUBLIC "-//W3C//DTD SVG 1.1//EN"
 "http://www.w3.org/Graphics/SVG/1.1/DTD/svg11.dtd">
<!-- Generated by graphviz version 2.38.0 (20140413.2041)
 -->
<!-- Title: src/hal/x4m0x_s70/libraries/libusb/device/composite/CDCAUDDDriver.c Pages: 1 -->
<svg width="433pt" height="106pt"
 viewBox="0.00 0.00 432.50 106.00" xmlns="http://www.w3.org/2000/svg" xmlns:xlink="http://www.w3.org/1999/xlink">
<g id="graph0" class="graph" transform="scale(1 1) rotate(0) translate(4 102)">
<title>src/hal/x4m0x_s70/libraries/libusb/device/composite/CDCAUDDDriver.c</title>
<polygon fill="white" stroke="none" points="-4,4 -4,-102 428.5,-102 428.5,4 -4,4"/>
<!-- Node0 -->
<g id="node1" class="node"><title>Node0</title>
<polygon fill="#bfbfbf" stroke="black" points="142,-56.5 142,-97.5 288,-97.5 288,-56.5 142,-56.5"/>
<text text-anchor="start" x="150" y="-85.5" font-family="Helvetica,sans-Serif" font-size="10.00">src/hal/x4m0x_s70/libraries</text>
<text text-anchor="start" x="150" y="-74.5" font-family="Helvetica,sans-Serif" font-size="10.00">/libusb/device/composite</text>
<text text-anchor="middle" x="215" y="-63.5" font-family="Helvetica,sans-Serif" font-size="10.00">/CDCAUDDDriver.c</text>
</g>
<!-- Node1 -->
<g id="node2" class="node"><title>Node1</title>
<g id="a_node2"><a xlink:href="_u_s_b_lib___trace_8h.xhtml" target="_top" xlink:title="USBLib_Trace.h">
<polygon fill="white" stroke="red" points="0,-0.5 0,-19.5 90,-19.5 90,-0.5 0,-0.5"/>
<text text-anchor="middle" x="45" y="-7.5" font-family="Helvetica,sans-Serif" font-size="10.00">USBLib_Trace.h</text>
</a>
</g>
</g>
<!-- Node0&#45;&gt;Node1 -->
<g id="edge1" class="edge"><title>Node0&#45;&gt;Node1</title>
<path fill="none" stroke="midnightblue" d="M163.994,-56.4979C135.8,-45.7176 101.631,-32.6531 77.1539,-23.2941"/>
<polygon fill="midnightblue" stroke="midnightblue" points="78.2201,-19.9547 67.6296,-19.6525 75.7201,-26.4931 78.2201,-19.9547"/>
</g>
<!-- Node3 -->
<g id="node3" class="node"><title>Node3</title>
<g id="a_node3"><a xlink:href="_c_d_c_a_u_d_d_driver_8h.xhtml" target="_top" xlink:title="CDCAUDDDriver.h">
<polygon fill="white" stroke="red" points="108,-0.5 108,-19.5 212,-19.5 212,-0.5 108,-0.5"/>
<text text-anchor="middle" x="160" y="-7.5" font-family="Helvetica,sans-Serif" font-size="10.00">CDCAUDDDriver.h</text>
</a>
</g>
</g>
<!-- Node0&#45;&gt;Node3 -->
<g id="edge2" class="edge"><title>Node0&#45;&gt;Node3</title>
<path fill="none" stroke="midnightblue" d="M198.498,-56.4979C190.633,-47.2029 181.331,-36.2097 173.841,-27.3579"/>
<polygon fill="midnightblue" stroke="midnightblue" points="176.453,-25.0256 167.321,-19.6525 171.109,-29.5472 176.453,-25.0256"/>
</g>
<!-- Node16 -->
<g id="node4" class="node"><title>Node16</title>
<g id="a_node4"><a xlink:href="_c_d_c_d_serial_8h.xhtml" target="_top" xlink:title="Single CDC Serial Port Function for USB device &amp; composite driver. ">
<polygon fill="white" stroke="red" points="230.5,-0.5 230.5,-19.5 311.5,-19.5 311.5,-0.5 230.5,-0.5"/>
<text text-anchor="middle" x="271" y="-7.5" font-family="Helvetica,sans-Serif" font-size="10.00">CDCDSerial.h</text>
</a>
</g>
</g>
<!-- Node0&#45;&gt;Node16 -->
<g id="edge3" class="edge"><title>Node0&#45;&gt;Node16</title>
<path fill="none" stroke="midnightblue" d="M231.802,-56.4979C239.81,-47.2029 249.281,-36.2097 256.907,-27.3579"/>
<polygon fill="midnightblue" stroke="midnightblue" points="259.67,-29.5131 263.546,-19.6525 254.367,-24.9441 259.67,-29.5131"/>
</g>
<!-- Node20 -->
<g id="node5" class="node"><title>Node20</title>
<g id="a_node5"><a xlink:href="_a_u_d_d_function_8h.xhtml" target="_top" xlink:title="AUDDFunction.h">
<polygon fill="white" stroke="red" points="329.5,-0.5 329.5,-19.5 424.5,-19.5 424.5,-0.5 329.5,-0.5"/>
<text text-anchor="middle" x="377" y="-7.5" font-family="Helvetica,sans-Serif" font-size="10.00">AUDDFunction.h</text>
</a>
</g>
</g>
<!-- Node0&#45;&gt;Node20 -->
<g id="edge4" class="edge"><title>Node0&#45;&gt;Node20</title>
<path fill="none" stroke="midnightblue" d="M263.605,-56.4979C290.354,-45.7655 322.745,-32.7691 346.048,-23.4192"/>
<polygon fill="midnightblue" stroke="midnightblue" points="347.458,-26.6246 355.435,-19.6525 344.851,-20.128 347.458,-26.6246"/>
</g>
</g>
</svg>
