<?xml version="1.0" encoding="UTF-8" standalone="no"?>
<!DOCTYPE svg PUBLIC "-//W3C//DTD SVG 1.1//EN"
 "http://www.w3.org/Graphics/SVG/1.1/DTD/svg11.dtd">
<!-- Generated by graphviz version 2.38.0 (20140413.2041)
 -->
<!-- Title: src/hal/x4m0x_s70/libraries/libusb/include/CDCDSerialDriver.h Pages: 1 -->
<svg width="970pt" height="117pt"
 viewBox="0.00 0.00 970.00 117.00" xmlns="http://www.w3.org/2000/svg" xmlns:xlink="http://www.w3.org/1999/xlink">
<g id="graph0" class="graph" transform="scale(1 1) rotate(0) translate(4 113)">
<title>src/hal/x4m0x_s70/libraries/libusb/include/CDCDSerialDriver.h</title>
<polygon fill="white" stroke="none" points="-4,4 -4,-113 966,-113 966,4 -4,4"/>
<!-- Node17 -->
<g id="node1" class="node"><title>Node17</title>
<polygon fill="#bfbfbf" stroke="black" points="414.5,-78.5 414.5,-108.5 593.5,-108.5 593.5,-78.5 414.5,-78.5"/>
<text text-anchor="start" x="422.5" y="-96.5" font-family="Helvetica,sans-Serif" font-size="10.00">src/hal/x4m0x_s70/libraries</text>
<text text-anchor="middle" x="504" y="-85.5" font-family="Helvetica,sans-Serif" font-size="10.00">/libusb/include/CDCDSerialDriver.h</text>
</g>
<!-- Node18 -->
<g id="node2" class="node"><title>Node18</title>
<g id="a_node2"><a xlink:href="_c_d_c_d_serial_driver_8c.xhtml" target="_top" xlink:title="Title: CDCDSerialDriver implementation. ">
<polygon fill="white" stroke="black" points="0,-0.5 0,-41.5 146,-41.5 146,-0.5 0,-0.5"/>
<text text-anchor="start" x="8" y="-29.5" font-family="Helvetica,sans-Serif" font-size="10.00">src/hal/x4m0x_s70/libraries</text>
<text text-anchor="start" x="8" y="-18.5" font-family="Helvetica,sans-Serif" font-size="10.00">/libusb/device/cdc&#45;serial</text>
<text text-anchor="middle" x="73" y="-7.5" font-family="Helvetica,sans-Serif" font-size="10.00">/CDCDSerialDriver.c</text>
</a>
</g>
</g>
<!-- Node17&#45;&gt;Node18 -->
<g id="edge1" class="edge"><title>Node17&#45;&gt;Node18</title>
<path fill="none" stroke="midnightblue" d="M404.165,-80.6287C334.141,-71.6745 238.493,-58.1844 155,-42 152.123,-41.4423 149.195,-40.8497 146.241,-40.231"/>
<polygon fill="midnightblue" stroke="midnightblue" points="403.945,-84.1288 414.306,-81.9167 404.827,-77.1845 403.945,-84.1288"/>
</g>
<!-- Node19 -->
<g id="node3" class="node"><title>Node19</title>
<g id="a_node3"><a xlink:href="_c_d_c_d_serial_driver___callbacks_8c.xhtml" target="_top" xlink:title="src/hal/x4m0x_s70/libraries\l/libusb/device/cdc&#45;serial\l/CDCDSerialDriver_Callbacks.c">
<polygon fill="white" stroke="black" points="164,-0.5 164,-41.5 326,-41.5 326,-0.5 164,-0.5"/>
<text text-anchor="start" x="172" y="-29.5" font-family="Helvetica,sans-Serif" font-size="10.00">src/hal/x4m0x_s70/libraries</text>
<text text-anchor="start" x="172" y="-18.5" font-family="Helvetica,sans-Serif" font-size="10.00">/libusb/device/cdc&#45;serial</text>
<text text-anchor="middle" x="245" y="-7.5" font-family="Helvetica,sans-Serif" font-size="10.00">/CDCDSerialDriver_Callbacks.c</text>
</a>
</g>
</g>
<!-- Node17&#45;&gt;Node19 -->
<g id="edge2" class="edge"><title>Node17&#45;&gt;Node19</title>
<path fill="none" stroke="midnightblue" d="M442.686,-75.8101C404.984,-65.5477 356.495,-52.349 316.976,-41.5919"/>
<polygon fill="midnightblue" stroke="midnightblue" points="441.952,-79.2378 452.52,-78.4872 443.791,-72.4835 441.952,-79.2378"/>
</g>
<!-- Node20 -->
<g id="node4" class="node"><title>Node20</title>
<g id="a_node4"><a xlink:href="usb_8h.xhtml" target="_top" xlink:title="Definition of SAM9XX5&#45;EK usb library. ">
<polygon fill="white" stroke="black" points="344,-6 344,-36 490,-36 490,-6 344,-6"/>
<text text-anchor="start" x="352" y="-24" font-family="Helvetica,sans-Serif" font-size="10.00">src/hal/x4m0x_s70/libraries</text>
<text text-anchor="middle" x="417" y="-13" font-family="Helvetica,sans-Serif" font-size="10.00">/libusb/usb.h</text>
</a>
</g>
</g>
<!-- Node17&#45;&gt;Node20 -->
<g id="edge3" class="edge"><title>Node17&#45;&gt;Node20</title>
<path fill="none" stroke="midnightblue" d="M478.44,-71.7877C464.222,-60.2662 446.904,-46.2326 434.283,-36.0049"/>
<polygon fill="midnightblue" stroke="midnightblue" points="476.421,-74.6567 486.394,-78.2333 480.828,-69.2181 476.421,-74.6567"/>
</g>
<!-- Node21 -->
<g id="node5" class="node"><title>Node21</title>
<g id="a_node5"><a xlink:href="_u_s_b_d_driver_descriptors_8c.xhtml" target="_top" xlink:title="src/hal/x4m0x_s70/USBDDriver\lDescriptors.c">
<polygon fill="white" stroke="black" points="508,-6 508,-36 674,-36 674,-6 508,-6"/>
<text text-anchor="start" x="516" y="-24" font-family="Helvetica,sans-Serif" font-size="10.00">src/hal/x4m0x_s70/USBDDriver</text>
<text text-anchor="middle" x="591" y="-13" font-family="Helvetica,sans-Serif" font-size="10.00">Descriptors.c</text>
</a>
</g>
</g>
<!-- Node17&#45;&gt;Node21 -->
<g id="edge4" class="edge"><title>Node17&#45;&gt;Node21</title>
<path fill="none" stroke="midnightblue" d="M529.56,-71.7877C543.778,-60.2662 561.096,-46.2326 573.717,-36.0049"/>
<polygon fill="midnightblue" stroke="midnightblue" points="527.172,-69.2181 521.606,-78.2333 531.579,-74.6567 527.172,-69.2181"/>
</g>
<!-- Node22 -->
<g id="node6" class="node"><title>Node22</title>
<g id="a_node6"><a xlink:href="xtio__serial__com_8c.xhtml" target="_top" xlink:title="Implement USB serial communication. ">
<polygon fill="white" stroke="black" points="692,-6 692,-36 818,-36 818,-6 692,-6"/>
<text text-anchor="start" x="700" y="-24" font-family="Helvetica,sans-Serif" font-size="10.00">src/hal/x4m0x_s70/xtio</text>
<text text-anchor="middle" x="755" y="-13" font-family="Helvetica,sans-Serif" font-size="10.00">_serial_com.c</text>
</a>
</g>
</g>
<!-- Node17&#45;&gt;Node22 -->
<g id="edge5" class="edge"><title>Node17&#45;&gt;Node22</title>
<path fill="none" stroke="midnightblue" d="M563.666,-75.7414C606.684,-63.6586 664.097,-47.5325 704.776,-36.1069"/>
<polygon fill="midnightblue" stroke="midnightblue" points="562.571,-72.4134 553.89,-78.4872 564.464,-79.1526 562.571,-72.4134"/>
</g>
<!-- Node23 -->
<g id="node7" class="node"><title>Node23</title>
<g id="a_node7"><a xlink:href="xtio__usb_8c.xhtml" target="_top" xlink:title="Implementation of USB CDC functions for X4M0x boards with Atmel SAM S70 MCU. ">
<polygon fill="white" stroke="black" points="836,-6 836,-36 962,-36 962,-6 836,-6"/>
<text text-anchor="start" x="844" y="-24" font-family="Helvetica,sans-Serif" font-size="10.00">src/hal/x4m0x_s70/xtio</text>
<text text-anchor="middle" x="899" y="-13" font-family="Helvetica,sans-Serif" font-size="10.00">_usb.c</text>
</a>
</g>
</g>
<!-- Node17&#45;&gt;Node23 -->
<g id="edge6" class="edge"><title>Node17&#45;&gt;Node23</title>
<path fill="none" stroke="midnightblue" d="M603.735,-79.9476C667.854,-71.1303 752.753,-58.0597 827,-42 834.988,-40.2721 843.406,-38.1834 851.557,-36.0161"/>
<polygon fill="midnightblue" stroke="midnightblue" points="603.063,-76.5068 593.628,-81.326 604.009,-83.4426 603.063,-76.5068"/>
</g>
</g>
</svg>
