<?xml version="1.0" encoding="UTF-8" standalone="no"?>
<!DOCTYPE svg PUBLIC "-//W3C//DTD SVG 1.1//EN"
 "http://www.w3.org/Graphics/SVG/1.1/DTD/svg11.dtd">
<!-- Generated by graphviz version 2.38.0 (20140413.2041)
 -->
<!-- Title: src/hal/x4m0x_s70/libraries/libusb/include/CDCDEEMPort.h Pages: 1 -->
<svg width="399pt" height="207pt"
 viewBox="0.00 0.00 399.30 207.00" xmlns="http://www.w3.org/2000/svg" xmlns:xlink="http://www.w3.org/1999/xlink">
<g id="graph0" class="graph" transform="scale(1 1) rotate(0) translate(4 203)">
<title>src/hal/x4m0x_s70/libraries/libusb/include/CDCDEEMPort.h</title>
<polygon fill="white" stroke="none" points="-4,4 -4,-203 395.303,-203 395.303,4 -4,4"/>
<!-- Node0 -->
<g id="node1" class="node"><title>Node0</title>
<polygon fill="#bfbfbf" stroke="black" points="80.3034,-168.5 80.3034,-198.5 244.303,-198.5 244.303,-168.5 80.3034,-168.5"/>
<text text-anchor="start" x="88.3034" y="-186.5" font-family="Helvetica,sans-Serif" font-size="10.00">src/hal/x4m0x_s70/libraries</text>
<text text-anchor="middle" x="162.303" y="-175.5" font-family="Helvetica,sans-Serif" font-size="10.00">/libusb/include/CDCDEEMPort.h</text>
</g>
<!-- Node1 -->
<g id="node2" class="node"><title>Node1</title>
<polygon fill="white" stroke="#bfbfbf" points="115.803,-0.5 115.803,-19.5 168.803,-19.5 168.803,-0.5 115.803,-0.5"/>
<text text-anchor="middle" x="142.303" y="-7.5" font-family="Helvetica,sans-Serif" font-size="10.00">stdint.h</text>
</g>
<!-- Node0&#45;&gt;Node1 -->
<g id="edge1" class="edge"><title>Node0&#45;&gt;Node1</title>
<path fill="none" stroke="midnightblue" d="M80.0412,-174.792C52.7362,-167.854 25.0586,-155.127 8.3034,-132 -25.4875,-85.3578 58.2666,-43.3336 108.233,-23.3281"/>
<polygon fill="midnightblue" stroke="midnightblue" points="109.685,-26.5187 117.731,-19.6257 107.143,-19.9966 109.685,-26.5187"/>
</g>
<!-- Node2 -->
<g id="node3" class="node"><title>Node2</title>
<g id="a_node3"><a xlink:href="_u_s_b_requests_8h.xhtml" target="_top" xlink:title="USBRequests.h">
<polygon fill="white" stroke="black" points="97.3034,-56.5 97.3034,-75.5 187.303,-75.5 187.303,-56.5 97.3034,-56.5"/>
<text text-anchor="middle" x="142.303" y="-63.5" font-family="Helvetica,sans-Serif" font-size="10.00">USBRequests.h</text>
</a>
</g>
</g>
<!-- Node0&#45;&gt;Node2 -->
<g id="edge2" class="edge"><title>Node0&#45;&gt;Node2</title>
<path fill="none" stroke="midnightblue" d="M159.851,-168.337C156.247,-147.527 149.518,-108.663 145.521,-85.5834"/>
<polygon fill="midnightblue" stroke="midnightblue" points="148.96,-84.9256 143.805,-75.6695 142.062,-86.12 148.96,-84.9256"/>
</g>
<!-- Node3 -->
<g id="node4" class="node"><title>Node3</title>
<g id="a_node4"><a xlink:href="_c_d_c_requests_8h.xhtml" target="_top" xlink:title="Definitions and classes for USB CDC class requests (mostly for ACM). ">
<polygon fill="white" stroke="black" points="17.3034,-112.5 17.3034,-131.5 107.303,-131.5 107.303,-112.5 17.3034,-112.5"/>
<text text-anchor="middle" x="62.3034" y="-119.5" font-family="Helvetica,sans-Serif" font-size="10.00">CDCRequests.h</text>
</a>
</g>
</g>
<!-- Node0&#45;&gt;Node3 -->
<g id="edge4" class="edge"><title>Node0&#45;&gt;Node3</title>
<path fill="none" stroke="midnightblue" d="M138.605,-168.399C122.576,-158.862 101.505,-146.325 85.5676,-136.842"/>
<polygon fill="midnightblue" stroke="midnightblue" points="87.2378,-133.763 76.8543,-131.658 83.6584,-139.779 87.2378,-133.763"/>
</g>
<!-- Node4 -->
<g id="node5" class="node"><title>Node4</title>
<g id="a_node5"><a xlink:href="_c_d_c_notifications_8h.xhtml" target="_top" xlink:title="Definitions and methods for USB CDC Notifications. ">
<polygon fill="white" stroke="black" points="285.303,-56.5 285.303,-75.5 391.303,-75.5 391.303,-56.5 285.303,-56.5"/>
<text text-anchor="middle" x="338.303" y="-63.5" font-family="Helvetica,sans-Serif" font-size="10.00">CDCNotifications.h</text>
</a>
</g>
</g>
<!-- Node0&#45;&gt;Node4 -->
<g id="edge7" class="edge"><title>Node0&#45;&gt;Node4</title>
<path fill="none" stroke="midnightblue" d="M244.459,-174.905C274.179,-168.06 305.506,-155.366 326.303,-132 337.381,-119.555 339.753,-100.319 339.731,-85.9979"/>
<polygon fill="midnightblue" stroke="midnightblue" points="343.22,-85.6413 339.321,-75.7899 336.226,-85.9224 343.22,-85.6413"/>
</g>
<!-- Node5 -->
<g id="node6" class="node"><title>Node5</title>
<g id="a_node6"><a xlink:href="_u_s_b_d_8h.xhtml" target="_top" xlink:title="USBD.h">
<polygon fill="white" stroke="red" points="163.303,-112.5 163.303,-131.5 217.303,-131.5 217.303,-112.5 163.303,-112.5"/>
<text text-anchor="middle" x="190.303" y="-119.5" font-family="Helvetica,sans-Serif" font-size="10.00">USBD.h</text>
</a>
</g>
</g>
<!-- Node0&#45;&gt;Node5 -->
<g id="edge9" class="edge"><title>Node0&#45;&gt;Node5</title>
<path fill="none" stroke="midnightblue" d="M168.939,-168.399C172.84,-160.11 177.807,-149.554 181.97,-140.708"/>
<polygon fill="midnightblue" stroke="midnightblue" points="185.138,-142.196 186.229,-131.658 178.804,-139.216 185.138,-142.196"/>
</g>
<!-- Node13 -->
<g id="node7" class="node"><title>Node13</title>
<g id="a_node7"><a xlink:href="_u_s_b_d_driver_8h.xhtml" target="_top" xlink:title="USBDDriver.h">
<polygon fill="white" stroke="red" points="235.303,-112.5 235.303,-131.5 317.303,-131.5 317.303,-112.5 235.303,-112.5"/>
<text text-anchor="middle" x="276.303" y="-119.5" font-family="Helvetica,sans-Serif" font-size="10.00">USBDDriver.h</text>
</a>
</g>
</g>
<!-- Node0&#45;&gt;Node13 -->
<g id="edge11" class="edge"><title>Node0&#45;&gt;Node13</title>
<path fill="none" stroke="midnightblue" d="M189.32,-168.399C207.935,-158.684 232.514,-145.855 250.795,-136.314"/>
<polygon fill="midnightblue" stroke="midnightblue" points="252.47,-139.388 259.715,-131.658 249.231,-133.182 252.47,-139.388"/>
</g>
<!-- Node2&#45;&gt;Node1 -->
<g id="edge3" class="edge"><title>Node2&#45;&gt;Node1</title>
<path fill="none" stroke="midnightblue" d="M142.303,-56.083C142.303,-49.0059 142.303,-38.8611 142.303,-29.9865"/>
<polygon fill="midnightblue" stroke="midnightblue" points="145.803,-29.751 142.303,-19.7511 138.803,-29.7511 145.803,-29.751"/>
</g>
<!-- Node3&#45;&gt;Node1 -->
<g id="edge5" class="edge"><title>Node3&#45;&gt;Node1</title>
<path fill="none" stroke="midnightblue" d="M64.3058,-112.332C67.6458,-99.1993 75.3021,-73.8962 88.3034,-56 96.821,-44.2757 109.056,-33.7456 119.727,-25.8247"/>
<polygon fill="midnightblue" stroke="midnightblue" points="122.071,-28.4533 128.206,-19.8157 118.023,-22.7419 122.071,-28.4533"/>
</g>
<!-- Node3&#45;&gt;Node2 -->
<g id="edge6" class="edge"><title>Node3&#45;&gt;Node2</title>
<path fill="none" stroke="midnightblue" d="M75.1568,-112.324C87.5198,-103.979 106.433,-91.2122 121.041,-81.3524"/>
<polygon fill="midnightblue" stroke="midnightblue" points="123.152,-84.1503 129.482,-75.6545 119.235,-78.3483 123.152,-84.1503"/>
</g>
<!-- Node4&#45;&gt;Node1 -->
<g id="edge8" class="edge"><title>Node4&#45;&gt;Node1</title>
<path fill="none" stroke="midnightblue" d="M307.247,-56.4435C272.319,-46.8205 215.659,-31.2102 178.687,-21.0239"/>
<polygon fill="midnightblue" stroke="midnightblue" points="179.385,-17.5861 168.815,-18.3042 177.526,-24.3347 179.385,-17.5861"/>
</g>
<!-- Node5&#45;&gt;Node2 -->
<g id="edge10" class="edge"><title>Node5&#45;&gt;Node2</title>
<path fill="none" stroke="midnightblue" d="M182.377,-112.083C175.457,-104.298 165.238,-92.8015 156.851,-83.3665"/>
<polygon fill="midnightblue" stroke="midnightblue" points="159.342,-80.8999 150.082,-75.7511 154.11,-85.5505 159.342,-80.8999"/>
</g>
<!-- Node13&#45;&gt;Node1 -->
<g id="edge12" class="edge"><title>Node13&#45;&gt;Node1</title>
<path fill="none" stroke="midnightblue" d="M265.789,-112.368C243.088,-93.7334 189.243,-49.5324 160.739,-26.1338"/>
<polygon fill="midnightblue" stroke="midnightblue" points="162.719,-23.2311 152.769,-19.5914 158.278,-28.6416 162.719,-23.2311"/>
</g>
<!-- Node13&#45;&gt;Node2 -->
<g id="edge13" class="edge"><title>Node13&#45;&gt;Node2</title>
<path fill="none" stroke="midnightblue" d="M255.071,-112.444C232.92,-103.517 197.985,-89.4387 172.867,-79.3168"/>
<polygon fill="midnightblue" stroke="midnightblue" points="174.02,-76.0079 163.437,-75.5164 171.404,-82.5006 174.02,-76.0079"/>
</g>
</g>
</svg>
