<?xml version="1.0" encoding="UTF-8" standalone="no"?>
<!DOCTYPE svg PUBLIC "-//W3C//DTD SVG 1.1//EN"
 "http://www.w3.org/Graphics/SVG/1.1/DTD/svg11.dtd">
<!-- Generated by graphviz version 2.38.0 (20140413.2041)
 -->
<!-- Title: src/hal/x4m0x_s70/libraries/libusb/include/CDCDEEM.h Pages: 1 -->
<svg width="259pt" height="263pt"
 viewBox="0.00 0.00 258.56 263.00" xmlns="http://www.w3.org/2000/svg" xmlns:xlink="http://www.w3.org/1999/xlink">
<g id="graph0" class="graph" transform="scale(1 1) rotate(0) translate(4 259)">
<title>src/hal/x4m0x_s70/libraries/libusb/include/CDCDEEM.h</title>
<polygon fill="white" stroke="none" points="-4,4 -4,-259 254.563,-259 254.563,4 -4,4"/>
<!-- Node0 -->
<g id="node1" class="node"><title>Node0</title>
<polygon fill="#bfbfbf" stroke="black" points="29.5633,-224.5 29.5633,-254.5 175.563,-254.5 175.563,-224.5 29.5633,-224.5"/>
<text text-anchor="start" x="37.5633" y="-242.5" font-family="Helvetica,sans-Serif" font-size="10.00">src/hal/x4m0x_s70/libraries</text>
<text text-anchor="middle" x="102.563" y="-231.5" font-family="Helvetica,sans-Serif" font-size="10.00">/libusb/include/CDCDEEM.h</text>
</g>
<!-- Node1 -->
<g id="node2" class="node"><title>Node1</title>
<polygon fill="white" stroke="#bfbfbf" points="73.0633,-0.5 73.0633,-19.5 126.063,-19.5 126.063,-0.5 73.0633,-0.5"/>
<text text-anchor="middle" x="99.5633" y="-7.5" font-family="Helvetica,sans-Serif" font-size="10.00">stdint.h</text>
</g>
<!-- Node0&#45;&gt;Node1 -->
<g id="edge1" class="edge"><title>Node0&#45;&gt;Node1</title>
<path fill="none" stroke="midnightblue" d="M55.4257,-224.479C37.8454,-216.705 19.7082,-205.053 9.56328,-188 -24.8662,-130.126 45.6485,-57.5169 80.999,-26.3561"/>
<polygon fill="midnightblue" stroke="midnightblue" points="83.4509,-28.8638 88.7508,-19.6899 78.8867,-23.5564 83.4509,-28.8638"/>
</g>
<!-- Node2 -->
<g id="node3" class="node"><title>Node2</title>
<g id="a_node3"><a xlink:href="_u_s_b_requests_8h.xhtml" target="_top" xlink:title="USBRequests.h">
<polygon fill="white" stroke="black" points="91.5633,-56.5 91.5633,-75.5 181.563,-75.5 181.563,-56.5 91.5633,-56.5"/>
<text text-anchor="middle" x="136.563" y="-63.5" font-family="Helvetica,sans-Serif" font-size="10.00">USBRequests.h</text>
</a>
</g>
</g>
<!-- Node0&#45;&gt;Node2 -->
<g id="edge2" class="edge"><title>Node0&#45;&gt;Node2</title>
<path fill="none" stroke="midnightblue" d="M108.981,-224.203C113.191,-214.246 118.47,-200.552 121.563,-188 130.311,-152.498 134.083,-109.817 135.611,-85.8078"/>
<polygon fill="midnightblue" stroke="midnightblue" points="139.116,-85.8185 136.193,-75.6349 132.128,-85.4187 139.116,-85.8185"/>
</g>
<!-- Node3 -->
<g id="node4" class="node"><title>Node3</title>
<g id="a_node4"><a xlink:href="_u_s_b_d_driver_8h.xhtml" target="_top" xlink:title="USBDDriver.h">
<polygon fill="white" stroke="red" points="168.563,-112.5 168.563,-131.5 250.563,-131.5 250.563,-112.5 168.563,-112.5"/>
<text text-anchor="middle" x="209.563" y="-119.5" font-family="Helvetica,sans-Serif" font-size="10.00">USBDDriver.h</text>
</a>
</g>
</g>
<!-- Node0&#45;&gt;Node3 -->
<g id="edge4" class="edge"><title>Node0&#45;&gt;Node3</title>
<path fill="none" stroke="midnightblue" d="M117.968,-224.294C128.526,-214.376 142.711,-200.693 154.563,-188 169.46,-172.046 185.47,-152.872 196.353,-139.5"/>
<polygon fill="midnightblue" stroke="midnightblue" points="199.139,-141.621 202.701,-131.643 193.694,-137.222 199.139,-141.621"/>
</g>
<!-- Node11 -->
<g id="node5" class="node"><title>Node11</title>
<g id="a_node5"><a xlink:href="_c_d_c_d_e_e_m_port_8h.xhtml" target="_top" xlink:title="Definition of a class for implementing a USB device CDC EEM function. ">
<polygon fill="white" stroke="red" points="18.5633,-168.5 18.5633,-187.5 112.563,-187.5 112.563,-168.5 18.5633,-168.5"/>
<text text-anchor="middle" x="65.5633" y="-175.5" font-family="Helvetica,sans-Serif" font-size="10.00">CDCDEEMPort.h</text>
</a>
</g>
</g>
<!-- Node0&#45;&gt;Node11 -->
<g id="edge7" class="edge"><title>Node0&#45;&gt;Node11</title>
<path fill="none" stroke="midnightblue" d="M93.7948,-224.399C88.5845,-216.021 81.9346,-205.327 76.3977,-196.423"/>
<polygon fill="midnightblue" stroke="midnightblue" points="79.2001,-194.302 70.9471,-187.658 73.2557,-197.998 79.2001,-194.302"/>
</g>
<!-- Node2&#45;&gt;Node1 -->
<g id="edge3" class="edge"><title>Node2&#45;&gt;Node1</title>
<path fill="none" stroke="midnightblue" d="M130.453,-56.083C125.281,-48.5341 117.717,-37.4948 111.369,-28.2298"/>
<polygon fill="midnightblue" stroke="midnightblue" points="114.099,-26.0221 105.559,-19.7511 108.324,-29.9787 114.099,-26.0221"/>
</g>
<!-- Node3&#45;&gt;Node1 -->
<g id="edge5" class="edge"><title>Node3&#45;&gt;Node1</title>
<path fill="none" stroke="midnightblue" d="M209.199,-112.4C208.199,-98.9019 204.466,-72.5739 190.563,-56 176.481,-39.2118 154.613,-28.1164 135.844,-21.144"/>
<polygon fill="midnightblue" stroke="midnightblue" points="136.964,-17.8279 126.369,-17.8654 134.675,-24.443 136.964,-17.8279"/>
</g>
<!-- Node3&#45;&gt;Node2 -->
<g id="edge6" class="edge"><title>Node3&#45;&gt;Node2</title>
<path fill="none" stroke="midnightblue" d="M197.835,-112.324C186.726,-104.107 169.821,-91.6017 156.58,-81.8069"/>
<polygon fill="midnightblue" stroke="midnightblue" points="158.626,-78.9671 148.505,-75.8339 154.463,-84.5948 158.626,-78.9671"/>
</g>
<!-- Node11&#45;&gt;Node1 -->
<g id="edge8" class="edge"><title>Node11&#45;&gt;Node1</title>
<path fill="none" stroke="midnightblue" d="M66.1172,-168.365C67.5435,-148.343 71.9981,-97.309 82.5633,-56 84.8654,-46.9988 88.3772,-37.3226 91.6124,-29.258"/>
<polygon fill="midnightblue" stroke="midnightblue" points="94.9483,-30.3528 95.5812,-19.7769 88.4912,-27.6498 94.9483,-30.3528"/>
</g>
<!-- Node11&#45;&gt;Node2 -->
<g id="edge9" class="edge"><title>Node11&#45;&gt;Node2</title>
<path fill="none" stroke="midnightblue" d="M71.1345,-168.368C82.7997,-150.296 109.986,-108.176 125.392,-84.3074"/>
<polygon fill="midnightblue" stroke="midnightblue" points="128.536,-85.8913 131.018,-75.5914 122.654,-82.0952 128.536,-85.8913"/>
</g>
<!-- Node11&#45;&gt;Node3 -->
<g id="edge10" class="edge"><title>Node11&#45;&gt;Node3</title>
<path fill="none" stroke="midnightblue" d="M88.3805,-168.444C112.395,-159.438 150.392,-145.189 177.433,-135.049"/>
<polygon fill="midnightblue" stroke="midnightblue" points="178.718,-138.305 186.853,-131.516 176.261,-131.751 178.718,-138.305"/>
</g>
</g>
</svg>
