<?xml version="1.0" encoding="UTF-8" standalone="no"?>
<!DOCTYPE svg PUBLIC "-//W3C//DTD SVG 1.1//EN"
 "http://www.w3.org/Graphics/SVG/1.1/DTD/svg11.dtd">
<!-- Generated by graphviz version 2.38.0 (20140413.2041)
 -->
<!-- Title: src/hal/x4m0x_s70/libraries/libusb/device/cdc&#45;eem/CDCDEEM.c Pages: 1 -->
<svg width="326pt" height="151pt"
 viewBox="0.00 0.00 325.50 151.00" xmlns="http://www.w3.org/2000/svg" xmlns:xlink="http://www.w3.org/1999/xlink">
<g id="graph0" class="graph" transform="scale(1 1) rotate(0) translate(4 147)">
<title>src/hal/x4m0x_s70/libraries/libusb/device/cdc&#45;eem/CDCDEEM.c</title>
<polygon fill="white" stroke="none" points="-4,4 -4,-147 321.5,-147 321.5,4 -4,4"/>
<!-- Node0 -->
<g id="node1" class="node"><title>Node0</title>
<polygon fill="#bfbfbf" stroke="black" points="45,-112.5 45,-142.5 231,-142.5 231,-112.5 45,-112.5"/>
<text text-anchor="start" x="53" y="-130.5" font-family="Helvetica,sans-Serif" font-size="10.00">src/hal/x4m0x_s70/libraries</text>
<text text-anchor="middle" x="138" y="-119.5" font-family="Helvetica,sans-Serif" font-size="10.00">/libusb/device/cdc&#45;eem/CDCDEEM.c</text>
</g>
<!-- Node1 -->
<g id="node2" class="node"><title>Node1</title>
<g id="a_node2"><a xlink:href="_c_d_c_d_e_e_m_8h.xhtml" target="_top" xlink:title="Single CDC EEM Function for USB device &amp; composite driver. ">
<polygon fill="white" stroke="red" points="0,-56.5 0,-75.5 74,-75.5 74,-56.5 0,-56.5"/>
<text text-anchor="middle" x="37" y="-63.5" font-family="Helvetica,sans-Serif" font-size="10.00">CDCDEEM.h</text>
</a>
</g>
</g>
<!-- Node0&#45;&gt;Node1 -->
<g id="edge1" class="edge"><title>Node0&#45;&gt;Node1</title>
<path fill="none" stroke="midnightblue" d="M114.064,-112.399C97.8749,-102.862 76.5933,-90.3248 60.4969,-80.8422"/>
<polygon fill="midnightblue" stroke="midnightblue" points="62.089,-77.718 51.6964,-75.6578 58.5359,-83.7492 62.089,-77.718"/>
</g>
<!-- Node4 -->
<g id="node3" class="node"><title>Node4</title>
<g id="a_node3"><a xlink:href="_u_s_b_d_driver_8h.xhtml" target="_top" xlink:title="USBDDriver.h">
<polygon fill="white" stroke="red" points="28,-0.5 28,-19.5 110,-19.5 110,-0.5 28,-0.5"/>
<text text-anchor="middle" x="69" y="-7.5" font-family="Helvetica,sans-Serif" font-size="10.00">USBDDriver.h</text>
</a>
</g>
</g>
<!-- Node0&#45;&gt;Node4 -->
<g id="edge4" class="edge"><title>Node0&#45;&gt;Node4</title>
<path fill="none" stroke="midnightblue" d="M129.539,-112.337C116.881,-91.1487 93.0419,-51.244 79.3592,-28.3403"/>
<polygon fill="midnightblue" stroke="midnightblue" points="82.3124,-26.4592 74.1792,-19.6695 76.3031,-30.0492 82.3124,-26.4592"/>
</g>
<!-- Node16 -->
<g id="node4" class="node"><title>Node16</title>
<g id="a_node4"><a xlink:href="_u_s_b_lib___trace_8h.xhtml" target="_top" xlink:title="USBLib_Trace.h">
<polygon fill="white" stroke="red" points="130,-56.5 130,-75.5 220,-75.5 220,-56.5 130,-56.5"/>
<text text-anchor="middle" x="175" y="-63.5" font-family="Helvetica,sans-Serif" font-size="10.00">USBLib_Trace.h</text>
</a>
</g>
</g>
<!-- Node0&#45;&gt;Node16 -->
<g id="edge3" class="edge"><title>Node0&#45;&gt;Node16</title>
<path fill="none" stroke="midnightblue" d="M146.768,-112.399C151.979,-104.021 158.629,-93.3269 164.166,-84.4229"/>
<polygon fill="midnightblue" stroke="midnightblue" points="167.308,-85.9981 169.616,-75.6578 161.363,-82.3015 167.308,-85.9981"/>
</g>
<!-- Node17 -->
<g id="node5" class="node"><title>Node17</title>
<g id="a_node5"><a xlink:href="_u_s_b_d___h_a_l_8h.xhtml" target="_top" xlink:title="This file defines functions for USB Device Hardware Access Level. ">
<polygon fill="white" stroke="red" points="238.5,-56.5 238.5,-75.5 317.5,-75.5 317.5,-56.5 238.5,-56.5"/>
<text text-anchor="middle" x="278" y="-63.5" font-family="Helvetica,sans-Serif" font-size="10.00">USBD_HAL.h</text>
</a>
</g>
</g>
<!-- Node0&#45;&gt;Node17 -->
<g id="edge5" class="edge"><title>Node0&#45;&gt;Node17</title>
<path fill="none" stroke="midnightblue" d="M171.178,-112.399C194.563,-102.461 225.612,-89.2649 248.206,-79.6625"/>
<polygon fill="midnightblue" stroke="midnightblue" points="249.794,-82.7904 257.629,-75.6578 247.056,-76.3481 249.794,-82.7904"/>
</g>
<!-- Node1&#45;&gt;Node4 -->
<g id="edge2" class="edge"><title>Node1&#45;&gt;Node4</title>
<path fill="none" stroke="midnightblue" d="M42.2841,-56.083C46.711,-48.6127 53.1633,-37.7244 58.6179,-28.5199"/>
<polygon fill="midnightblue" stroke="midnightblue" points="61.7271,-30.1383 63.8142,-19.7511 55.7051,-26.5697 61.7271,-30.1383"/>
</g>
</g>
</svg>
