<?xml version="1.0" encoding="UTF-8" standalone="no"?>
<!DOCTYPE svg PUBLIC "-//W3C//DTD SVG 1.1//EN"
 "http://www.w3.org/Graphics/SVG/1.1/DTD/svg11.dtd">
<!-- Generated by graphviz version 2.38.0 (20140413.2041)
 -->
<!-- Title: src/hal/x4m0x_s70/libraries/libusb/include/CDCDEEM.h Pages: 1 -->
<svg width="386pt" height="106pt"
 viewBox="0.00 0.00 385.50 106.00" xmlns="http://www.w3.org/2000/svg" xmlns:xlink="http://www.w3.org/1999/xlink">
<g id="graph0" class="graph" transform="scale(1 1) rotate(0) translate(4 102)">
<title>src/hal/x4m0x_s70/libraries/libusb/include/CDCDEEM.h</title>
<polygon fill="white" stroke="none" points="-4,4 -4,-102 381.5,-102 381.5,4 -4,4"/>
<!-- Node15 -->
<g id="node1" class="node"><title>Node15</title>
<polygon fill="#bfbfbf" stroke="black" points="119,-67.5 119,-97.5 265,-97.5 265,-67.5 119,-67.5"/>
<text text-anchor="start" x="127" y="-85.5" font-family="Helvetica,sans-Serif" font-size="10.00">src/hal/x4m0x_s70/libraries</text>
<text text-anchor="middle" x="192" y="-74.5" font-family="Helvetica,sans-Serif" font-size="10.00">/libusb/include/CDCDEEM.h</text>
</g>
<!-- Node16 -->
<g id="node2" class="node"><title>Node16</title>
<g id="a_node2"><a xlink:href="_c_d_c_d_e_e_m_8c.xhtml" target="_top" xlink:title="Implementation of a single CDC EEM port function for USB device. ">
<polygon fill="white" stroke="black" points="0,-0.5 0,-30.5 186,-30.5 186,-0.5 0,-0.5"/>
<text text-anchor="start" x="8" y="-18.5" font-family="Helvetica,sans-Serif" font-size="10.00">src/hal/x4m0x_s70/libraries</text>
<text text-anchor="middle" x="93" y="-7.5" font-family="Helvetica,sans-Serif" font-size="10.00">/libusb/device/cdc&#45;eem/CDCDEEM.c</text>
</a>
</g>
</g>
<!-- Node15&#45;&gt;Node16 -->
<g id="edge1" class="edge"><title>Node15&#45;&gt;Node16</title>
<path fill="none" stroke="midnightblue" d="M161.894,-61.7337C146.575,-51.6755 128.312,-39.6847 114.44,-30.5765"/>
<polygon fill="midnightblue" stroke="midnightblue" points="160.238,-64.8333 170.518,-67.396 164.08,-58.9818 160.238,-64.8333"/>
</g>
<!-- Node17 -->
<g id="node3" class="node"><title>Node17</title>
<g id="a_node3"><a xlink:href="_c_d_c_d_e_e_m_driver_8h.xhtml" target="_top" xlink:title="src/hal/x4m0x_s70/libraries\l/libusb/include/CDCDEEMDriver.h">
<polygon fill="white" stroke="red" points="204.5,-0.5 204.5,-30.5 377.5,-30.5 377.5,-0.5 204.5,-0.5"/>
<text text-anchor="start" x="212.5" y="-18.5" font-family="Helvetica,sans-Serif" font-size="10.00">src/hal/x4m0x_s70/libraries</text>
<text text-anchor="middle" x="291" y="-7.5" font-family="Helvetica,sans-Serif" font-size="10.00">/libusb/include/CDCDEEMDriver.h</text>
</a>
</g>
</g>
<!-- Node15&#45;&gt;Node17 -->
<g id="edge2" class="edge"><title>Node15&#45;&gt;Node17</title>
<path fill="none" stroke="midnightblue" d="M222.106,-61.7337C237.425,-51.6755 255.688,-39.6847 269.56,-30.5765"/>
<polygon fill="midnightblue" stroke="midnightblue" points="219.92,-58.9818 213.482,-67.396 223.762,-64.8333 219.92,-58.9818"/>
</g>
</g>
</svg>
