<?xml version="1.0" encoding="UTF-8" standalone="no"?>
<!DOCTYPE svg PUBLIC "-//W3C//DTD SVG 1.1//EN"
 "http://www.w3.org/Graphics/SVG/1.1/DTD/svg11.dtd">
<!-- Generated by graphviz version 2.38.0 (20140413.2041)
 -->
<!-- Title: src/FreeRTOS_hooks.c Pages: 1 -->
<svg width="362pt" height="140pt"
 viewBox="0.00 0.00 361.78 140.00" xmlns="http://www.w3.org/2000/svg" xmlns:xlink="http://www.w3.org/1999/xlink">
<g id="graph0" class="graph" transform="scale(1 1) rotate(0) translate(4 136)">
<title>src/FreeRTOS_hooks.c</title>
<polygon fill="white" stroke="none" points="-4,4 -4,-136 357.783,-136 357.783,4 -4,4"/>
<!-- Node0 -->
<g id="node1" class="node"><title>Node0</title>
<polygon fill="#bfbfbf" stroke="black" points="68.7835,-112.5 68.7835,-131.5 189.783,-131.5 189.783,-112.5 68.7835,-112.5"/>
<text text-anchor="middle" x="129.283" y="-119.5" font-family="Helvetica,sans-Serif" font-size="10.00">src/FreeRTOS_hooks.c</text>
</g>
<!-- Node1 -->
<g id="node2" class="node"><title>Node1</title>
<polygon fill="white" stroke="#bfbfbf" points="21.7835,-0.5 21.7835,-19.5 92.7835,-19.5 92.7835,-0.5 21.7835,-0.5"/>
<text text-anchor="middle" x="57.2835" y="-7.5" font-family="Helvetica,sans-Serif" font-size="10.00">FreeRTOS.h</text>
</g>
<!-- Node0&#45;&gt;Node1 -->
<g id="edge1" class="edge"><title>Node0&#45;&gt;Node1</title>
<path fill="none" stroke="midnightblue" d="M68.5742,-114.203C44.4606,-108.188 19.0049,-96.9461 4.28349,-76 -8.64029,-57.6117 13.2903,-37.7665 32.7419,-24.9067"/>
<polygon fill="midnightblue" stroke="midnightblue" points="34.7412,-27.7847 41.3705,-19.5201 31.0343,-21.8467 34.7412,-27.7847"/>
</g>
<!-- Node2 -->
<g id="node3" class="node"><title>Node2</title>
<polygon fill="white" stroke="#bfbfbf" points="13.2835,-56.5 13.2835,-75.5 59.2835,-75.5 59.2835,-56.5 13.2835,-56.5"/>
<text text-anchor="middle" x="36.2835" y="-63.5" font-family="Helvetica,sans-Serif" font-size="10.00">task.h</text>
</g>
<!-- Node0&#45;&gt;Node2 -->
<g id="edge2" class="edge"><title>Node0&#45;&gt;Node2</title>
<path fill="none" stroke="midnightblue" d="M114.341,-112.324C99.6983,-103.822 77.1498,-90.7288 60.0458,-80.7975"/>
<polygon fill="midnightblue" stroke="midnightblue" points="61.5939,-77.6491 51.1885,-75.6545 58.0789,-83.7027 61.5939,-77.6491"/>
</g>
<!-- Node3 -->
<g id="node4" class="node"><title>Node3</title>
<g id="a_node4"><a xlink:href="_free_r_t_o_s__hooks_8h.xhtml" target="_top" xlink:title="FreeRTOS_hooks.h">
<polygon fill="white" stroke="black" points="77.2835,-56.5 77.2835,-75.5 181.283,-75.5 181.283,-56.5 77.2835,-56.5"/>
<text text-anchor="middle" x="129.283" y="-63.5" font-family="Helvetica,sans-Serif" font-size="10.00">FreeRTOS_hooks.h</text>
</a>
</g>
</g>
<!-- Node0&#45;&gt;Node3 -->
<g id="edge3" class="edge"><title>Node0&#45;&gt;Node3</title>
<path fill="none" stroke="midnightblue" d="M129.283,-112.083C129.283,-105.006 129.283,-94.8611 129.283,-85.9865"/>
<polygon fill="midnightblue" stroke="midnightblue" points="132.784,-85.751 129.283,-75.7511 125.784,-85.7511 132.784,-85.751"/>
</g>
<!-- Node4 -->
<g id="node5" class="node"><title>Node4</title>
<g id="a_node5"><a xlink:href="xep__hal_8h.xhtml" target="_top" xlink:title="Brief description. ">
<polygon fill="white" stroke="red" points="199.283,-56.5 199.283,-75.5 261.283,-75.5 261.283,-56.5 199.283,-56.5"/>
<text text-anchor="middle" x="230.283" y="-63.5" font-family="Helvetica,sans-Serif" font-size="10.00">xep_hal.h</text>
</a>
</g>
</g>
<!-- Node0&#45;&gt;Node4 -->
<g id="edge5" class="edge"><title>Node0&#45;&gt;Node4</title>
<path fill="none" stroke="midnightblue" d="M145.511,-112.324C161.635,-103.703 186.584,-90.3643 205.248,-80.3855"/>
<polygon fill="midnightblue" stroke="midnightblue" points="206.928,-83.456 214.096,-75.6545 203.627,-77.283 206.928,-83.456"/>
</g>
<!-- Node7 -->
<g id="node6" class="node"><title>Node7</title>
<g id="a_node6"><a xlink:href="xt__system_8h.xhtml" target="_top" xlink:title="xt_system.h">
<polygon fill="white" stroke="black" points="278.783,-56.5 278.783,-75.5 353.783,-75.5 353.783,-56.5 278.783,-56.5"/>
<text text-anchor="middle" x="316.283" y="-63.5" font-family="Helvetica,sans-Serif" font-size="10.00">xt_system.h</text>
</a>
</g>
</g>
<!-- Node0&#45;&gt;Node7 -->
<g id="edge6" class="edge"><title>Node0&#45;&gt;Node7</title>
<path fill="none" stroke="midnightblue" d="M158.914,-112.444C190.784,-103.241 241.616,-88.5617 276.847,-78.3879"/>
<polygon fill="midnightblue" stroke="midnightblue" points="278.155,-81.6534 286.791,-75.5164 276.213,-74.9282 278.155,-81.6534"/>
</g>
<!-- Node3&#45;&gt;Node1 -->
<g id="edge4" class="edge"><title>Node3&#45;&gt;Node1</title>
<path fill="none" stroke="midnightblue" d="M117.715,-56.324C106.863,-48.1849 90.4028,-35.8395 77.4001,-26.0874"/>
<polygon fill="midnightblue" stroke="midnightblue" points="79.1621,-23.0339 69.062,-19.8339 74.962,-28.6339 79.1621,-23.0339"/>
</g>
</g>
</svg>
