<?xml version="1.0" encoding="UTF-8" standalone="no"?>
<!DOCTYPE svg PUBLIC "-//W3C//DTD SVG 1.1//EN"
 "http://www.w3.org/Graphics/SVG/1.1/DTD/svg11.dtd">
<!-- Generated by graphviz version 2.38.0 (20140413.2041)
 -->
<!-- Title: src/hal/x4m0x_s70/libraries/libusb/device/hid&#45;keyboard/HIDDKeyboardCallbacks_LedsChanged.c Pages: 1 -->
<svg width="238pt" height="106pt"
 viewBox="0.00 0.00 238.00 106.00" xmlns="http://www.w3.org/2000/svg" xmlns:xlink="http://www.w3.org/1999/xlink">
<g id="graph0" class="graph" transform="scale(1 1) rotate(0) translate(4 102)">
<title>src/hal/x4m0x_s70/libraries/libusb/device/hid&#45;keyboard/HIDDKeyboardCallbacks_LedsChanged.c</title>
<polygon fill="white" stroke="none" points="-4,4 -4,-102 234,-102 234,4 -4,4"/>
<!-- Node0 -->
<g id="node1" class="node"><title>Node0</title>
<polygon fill="#bfbfbf" stroke="black" points="17,-56.5 17,-97.5 229,-97.5 229,-56.5 17,-56.5"/>
<text text-anchor="start" x="25" y="-85.5" font-family="Helvetica,sans-Serif" font-size="10.00">src/hal/x4m0x_s70/libraries</text>
<text text-anchor="start" x="25" y="-74.5" font-family="Helvetica,sans-Serif" font-size="10.00">/libusb/device/hid&#45;keyboard</text>
<text text-anchor="middle" x="123" y="-63.5" font-family="Helvetica,sans-Serif" font-size="10.00">/HIDDKeyboardCallbacks_LedsChanged.c</text>
</g>
<!-- Node1 -->
<g id="node2" class="node"><title>Node1</title>
<g id="a_node2"><a xlink:href="_h_i_d_d_keyboard_driver_8h.xhtml" target="_top" xlink:title="HIDDKeyboardDriver.h">
<polygon fill="white" stroke="red" points="0,-0.5 0,-19.5 122,-19.5 122,-0.5 0,-0.5"/>
<text text-anchor="middle" x="61" y="-7.5" font-family="Helvetica,sans-Serif" font-size="10.00">HIDDKeyboardDriver.h</text>
</a>
</g>
</g>
<!-- Node0&#45;&gt;Node1 -->
<g id="edge1" class="edge"><title>Node0&#45;&gt;Node1</title>
<path fill="none" stroke="midnightblue" d="M104.398,-56.4979C95.4406,-47.1071 84.8298,-35.9829 76.3424,-27.0848"/>
<polygon fill="midnightblue" stroke="midnightblue" points="78.6879,-24.4729 69.2531,-19.6525 73.6226,-29.3043 78.6879,-24.4729"/>
</g>
<!-- Node16 -->
<g id="node3" class="node"><title>Node16</title>
<g id="a_node3"><a xlink:href="_u_s_b_lib___trace_8h.xhtml" target="_top" xlink:title="USBLib_Trace.h">
<polygon fill="white" stroke="red" points="140,-0.5 140,-19.5 230,-19.5 230,-0.5 140,-0.5"/>
<text text-anchor="middle" x="185" y="-7.5" font-family="Helvetica,sans-Serif" font-size="10.00">USBLib_Trace.h</text>
</a>
</g>
</g>
<!-- Node0&#45;&gt;Node16 -->
<g id="edge2" class="edge"><title>Node0&#45;&gt;Node16</title>
<path fill="none" stroke="midnightblue" d="M141.602,-56.4979C150.559,-47.1071 161.17,-35.9829 169.658,-27.0848"/>
<polygon fill="midnightblue" stroke="midnightblue" points="172.377,-29.3043 176.747,-19.6525 167.312,-24.4729 172.377,-29.3043"/>
</g>
</g>
</svg>
