<?xml version="1.0" encoding="UTF-8" standalone="no"?>
<!DOCTYPE svg PUBLIC "-//W3C//DTD SVG 1.1//EN"
 "http://www.w3.org/Graphics/SVG/1.1/DTD/svg11.dtd">
<!-- Generated by graphviz version 2.38.0 (20140413.2041)
 -->
<!-- Title: src/hal/x4m0x_s70/libraries/libusb/include/HIDDKeyboard.h Pages: 1 -->
<svg width="288pt" height="151pt"
 viewBox="0.00 0.00 287.50 151.00" xmlns="http://www.w3.org/2000/svg" xmlns:xlink="http://www.w3.org/1999/xlink">
<g id="graph0" class="graph" transform="scale(1 1) rotate(0) translate(4 147)">
<title>src/hal/x4m0x_s70/libraries/libusb/include/HIDDKeyboard.h</title>
<polygon fill="white" stroke="none" points="-4,4 -4,-147 283.5,-147 283.5,4 -4,4"/>
<!-- Node0 -->
<g id="node1" class="node"><title>Node0</title>
<polygon fill="#bfbfbf" stroke="black" points="57,-112.5 57,-142.5 222,-142.5 222,-112.5 57,-112.5"/>
<text text-anchor="start" x="65" y="-130.5" font-family="Helvetica,sans-Serif" font-size="10.00">src/hal/x4m0x_s70/libraries</text>
<text text-anchor="middle" x="139.5" y="-119.5" font-family="Helvetica,sans-Serif" font-size="10.00">/libusb/include/HIDDKeyboard.h</text>
</g>
<!-- Node1 -->
<g id="node2" class="node"><title>Node1</title>
<g id="a_node2"><a xlink:href="_u_s_b_descriptors_8h.xhtml" target="_top" xlink:title="USBDescriptors.h">
<polygon fill="white" stroke="red" points="0,-0.5 0,-19.5 101,-19.5 101,-0.5 0,-0.5"/>
<text text-anchor="middle" x="50.5" y="-7.5" font-family="Helvetica,sans-Serif" font-size="10.00">USBDescriptors.h</text>
</a>
</g>
</g>
<!-- Node0&#45;&gt;Node1 -->
<g id="edge1" class="edge"><title>Node0&#45;&gt;Node1</title>
<path fill="none" stroke="midnightblue" d="M83.3953,-112.389C64.8979,-104.781 46.3109,-93.2676 35.5,-76 26.4994,-61.6239 32.7062,-42.4234 39.6662,-28.6233"/>
<polygon fill="midnightblue" stroke="midnightblue" points="42.8429,-30.1131 44.6607,-19.6754 36.7306,-26.7014 42.8429,-30.1131"/>
</g>
<!-- Node3 -->
<g id="node3" class="node"><title>Node3</title>
<g id="a_node3"><a xlink:href="_u_s_b_requests_8h.xhtml" target="_top" xlink:title="USBRequests.h">
<polygon fill="white" stroke="red" points="189.5,-0.5 189.5,-19.5 279.5,-19.5 279.5,-0.5 189.5,-0.5"/>
<text text-anchor="middle" x="234.5" y="-7.5" font-family="Helvetica,sans-Serif" font-size="10.00">USBRequests.h</text>
</a>
</g>
</g>
<!-- Node0&#45;&gt;Node3 -->
<g id="edge2" class="edge"><title>Node0&#45;&gt;Node3</title>
<path fill="none" stroke="midnightblue" d="M202.159,-112.484C221.28,-104.955 240.215,-93.468 251.5,-76 260.86,-61.512 253.734,-42.0734 246.045,-28.2377"/>
<polygon fill="midnightblue" stroke="midnightblue" points="249.023,-26.3985 240.828,-19.6839 243.047,-30.0437 249.023,-26.3985"/>
</g>
<!-- Node4 -->
<g id="node4" class="node"><title>Node4</title>
<g id="a_node4"><a xlink:href="_h_i_d_descriptors_8h.xhtml" target="_top" xlink:title="HIDDescriptors.h">
<polygon fill="white" stroke="red" points="144.5,-56.5 144.5,-75.5 242.5,-75.5 242.5,-56.5 144.5,-56.5"/>
<text text-anchor="middle" x="193.5" y="-63.5" font-family="Helvetica,sans-Serif" font-size="10.00">HIDDescriptors.h</text>
</a>
</g>
</g>
<!-- Node0&#45;&gt;Node4 -->
<g id="edge3" class="edge"><title>Node0&#45;&gt;Node4</title>
<path fill="none" stroke="midnightblue" d="M152.297,-112.399C160.225,-103.664 170.436,-92.4126 178.71,-83.2962"/>
<polygon fill="midnightblue" stroke="midnightblue" points="181.514,-85.415 185.643,-75.6578 176.33,-80.7106 181.514,-85.415"/>
</g>
<!-- Node7 -->
<g id="node5" class="node"><title>Node7</title>
<g id="a_node5"><a xlink:href="_u_s_b_d_driver_8h.xhtml" target="_top" xlink:title="USBDDriver.h">
<polygon fill="white" stroke="red" points="44.5,-56.5 44.5,-75.5 126.5,-75.5 126.5,-56.5 44.5,-56.5"/>
<text text-anchor="middle" x="85.5" y="-63.5" font-family="Helvetica,sans-Serif" font-size="10.00">USBDDriver.h</text>
</a>
</g>
</g>
<!-- Node0&#45;&gt;Node7 -->
<g id="edge4" class="edge"><title>Node0&#45;&gt;Node7</title>
<path fill="none" stroke="midnightblue" d="M126.703,-112.399C118.775,-103.664 108.564,-92.4126 100.29,-83.2962"/>
<polygon fill="midnightblue" stroke="midnightblue" points="102.67,-80.7106 93.3575,-75.6578 97.4863,-85.415 102.67,-80.7106"/>
</g>
<!-- Node7&#45;&gt;Node1 -->
<g id="edge6" class="edge"><title>Node7&#45;&gt;Node1</title>
<path fill="none" stroke="midnightblue" d="M79.7205,-56.083C74.8276,-48.5341 67.6726,-37.4948 61.6674,-28.2298"/>
<polygon fill="midnightblue" stroke="midnightblue" points="64.548,-26.239 56.172,-19.7511 58.674,-30.0463 64.548,-26.239"/>
</g>
<!-- Node7&#45;&gt;Node3 -->
<g id="edge5" class="edge"><title>Node7&#45;&gt;Node3</title>
<path fill="none" stroke="midnightblue" d="M109.109,-56.4435C133.958,-47.4381 173.274,-33.1891 201.254,-23.049"/>
<polygon fill="midnightblue" stroke="midnightblue" points="202.792,-26.2144 211.001,-19.5164 200.407,-19.6332 202.792,-26.2144"/>
</g>
</g>
</svg>
