<?xml version="1.0" encoding="UTF-8" standalone="no"?>
<!DOCTYPE svg PUBLIC "-//W3C//DTD SVG 1.1//EN"
 "http://www.w3.org/Graphics/SVG/1.1/DTD/svg11.dtd">
<!-- Generated by graphviz version 2.38.0 (20140413.2041)
 -->
<!-- Title: src/hal/x4m0x_s70/libraries/libusb/include/HIDRequests.h Pages: 1 -->
<svg width="169pt" height="151pt"
 viewBox="0.00 0.00 168.50 151.00" xmlns="http://www.w3.org/2000/svg" xmlns:xlink="http://www.w3.org/1999/xlink">
<g id="graph0" class="graph" transform="scale(1 1) rotate(0) translate(4 147)">
<title>src/hal/x4m0x_s70/libraries/libusb/include/HIDRequests.h</title>
<polygon fill="white" stroke="none" points="-4,4 -4,-147 164.5,-147 164.5,4 -4,4"/>
<!-- Node0 -->
<g id="node1" class="node"><title>Node0</title>
<polygon fill="#bfbfbf" stroke="black" points="0,-112.5 0,-142.5 157,-142.5 157,-112.5 0,-112.5"/>
<text text-anchor="start" x="8" y="-130.5" font-family="Helvetica,sans-Serif" font-size="10.00">src/hal/x4m0x_s70/libraries</text>
<text text-anchor="middle" x="78.5" y="-119.5" font-family="Helvetica,sans-Serif" font-size="10.00">/libusb/include/HIDRequests.h</text>
</g>
<!-- Node1 -->
<g id="node2" class="node"><title>Node1</title>
<polygon fill="white" stroke="#bfbfbf" points="52,-0.5 52,-19.5 105,-19.5 105,-0.5 52,-0.5"/>
<text text-anchor="middle" x="78.5" y="-7.5" font-family="Helvetica,sans-Serif" font-size="10.00">stdint.h</text>
</g>
<!-- Node0&#45;&gt;Node1 -->
<g id="edge1" class="edge"><title>Node0&#45;&gt;Node1</title>
<path fill="none" stroke="midnightblue" d="M71.4788,-112.287C65.3329,-98.1196 57.9042,-75.6931 61.5,-56 63.1876,-46.7575 66.675,-36.9479 70.0544,-28.8546"/>
<polygon fill="midnightblue" stroke="midnightblue" points="73.2635,-30.2518 74.1337,-19.6928 66.8687,-27.4045 73.2635,-30.2518"/>
</g>
<!-- Node2 -->
<g id="node3" class="node"><title>Node2</title>
<g id="a_node3"><a xlink:href="_u_s_b_requests_8h.xhtml" target="_top" xlink:title="USBRequests.h">
<polygon fill="white" stroke="black" points="70.5,-56.5 70.5,-75.5 160.5,-75.5 160.5,-56.5 70.5,-56.5"/>
<text text-anchor="middle" x="115.5" y="-63.5" font-family="Helvetica,sans-Serif" font-size="10.00">USBRequests.h</text>
</a>
</g>
</g>
<!-- Node0&#45;&gt;Node2 -->
<g id="edge2" class="edge"><title>Node0&#45;&gt;Node2</title>
<path fill="none" stroke="midnightblue" d="M87.2685,-112.399C92.4787,-104.021 99.1286,-93.3269 104.666,-84.4229"/>
<polygon fill="midnightblue" stroke="midnightblue" points="107.808,-85.9981 110.116,-75.6578 101.863,-82.3015 107.808,-85.9981"/>
</g>
<!-- Node2&#45;&gt;Node1 -->
<g id="edge3" class="edge"><title>Node2&#45;&gt;Node1</title>
<path fill="none" stroke="midnightblue" d="M109.39,-56.083C104.218,-48.5341 96.6539,-37.4948 90.3056,-28.2298"/>
<polygon fill="midnightblue" stroke="midnightblue" points="93.0357,-26.0221 84.4961,-19.7511 87.2612,-29.9787 93.0357,-26.0221"/>
</g>
</g>
</svg>
