<?xml version="1.0" encoding="UTF-8" standalone="no"?>
<!DOCTYPE svg PUBLIC "-//W3C//DTD SVG 1.1//EN"
 "http://www.w3.org/Graphics/SVG/1.1/DTD/svg11.dtd">
<!-- Generated by graphviz version 2.38.0 (20140413.2041)
 -->
<!-- Title: src/hal/x4m0x_s70/libraries/libusb/device/hid&#45;keyboard/HIDDKeyboardInputReport.c Pages: 1 -->
<svg width="212pt" height="106pt"
 viewBox="0.00 0.00 211.50 106.00" xmlns="http://www.w3.org/2000/svg" xmlns:xlink="http://www.w3.org/1999/xlink">
<g id="graph0" class="graph" transform="scale(1 1) rotate(0) translate(4 102)">
<title>src/hal/x4m0x_s70/libraries/libusb/device/hid&#45;keyboard/HIDDKeyboardInputReport.c</title>
<polygon fill="white" stroke="none" points="-4,4 -4,-102 207.5,-102 207.5,4 -4,4"/>
<!-- Node0 -->
<g id="node1" class="node"><title>Node0</title>
<polygon fill="#bfbfbf" stroke="black" points="26.5,-56.5 26.5,-97.5 178.5,-97.5 178.5,-56.5 26.5,-56.5"/>
<text text-anchor="start" x="34.5" y="-85.5" font-family="Helvetica,sans-Serif" font-size="10.00">src/hal/x4m0x_s70/libraries</text>
<text text-anchor="start" x="34.5" y="-74.5" font-family="Helvetica,sans-Serif" font-size="10.00">/libusb/device/hid&#45;keyboard</text>
<text text-anchor="middle" x="102.5" y="-63.5" font-family="Helvetica,sans-Serif" font-size="10.00">/HIDDKeyboardInputReport.c</text>
</g>
<!-- Node1 -->
<g id="node2" class="node"><title>Node1</title>
<g id="a_node2"><a xlink:href="_h_i_d_d_keyboard_8h.xhtml" target="_top" xlink:title="Definition of methods for using a HID keyboard function. ">
<polygon fill="white" stroke="red" points="0,-0.5 0,-19.5 95,-19.5 95,-0.5 0,-0.5"/>
<text text-anchor="middle" x="47.5" y="-7.5" font-family="Helvetica,sans-Serif" font-size="10.00">HIDDKeyboard.h</text>
</a>
</g>
</g>
<!-- Node0&#45;&gt;Node1 -->
<g id="edge1" class="edge"><title>Node0&#45;&gt;Node1</title>
<path fill="none" stroke="midnightblue" d="M85.9982,-56.4979C78.1332,-47.2029 68.8313,-36.2097 61.3413,-27.3579"/>
<polygon fill="midnightblue" stroke="midnightblue" points="63.9527,-25.0256 54.8213,-19.6525 58.6089,-29.5472 63.9527,-25.0256"/>
</g>
<!-- Node15 -->
<g id="node3" class="node"><title>Node15</title>
<g id="a_node3"><a xlink:href="_u_s_b_lib___trace_8h.xhtml" target="_top" xlink:title="USBLib_Trace.h">
<polygon fill="white" stroke="red" points="113.5,-0.5 113.5,-19.5 203.5,-19.5 203.5,-0.5 113.5,-0.5"/>
<text text-anchor="middle" x="158.5" y="-7.5" font-family="Helvetica,sans-Serif" font-size="10.00">USBLib_Trace.h</text>
</a>
</g>
</g>
<!-- Node0&#45;&gt;Node15 -->
<g id="edge2" class="edge"><title>Node0&#45;&gt;Node15</title>
<path fill="none" stroke="midnightblue" d="M119.302,-56.4979C127.31,-47.2029 136.781,-36.2097 144.407,-27.3579"/>
<polygon fill="midnightblue" stroke="midnightblue" points="147.17,-29.5131 151.046,-19.6525 141.867,-24.9441 147.17,-29.5131"/>
</g>
</g>
</svg>
