<?xml version="1.0" encoding="UTF-8" standalone="no"?>
<!DOCTYPE svg PUBLIC "-//W3C//DTD SVG 1.1//EN"
 "http://www.w3.org/Graphics/SVG/1.1/DTD/svg11.dtd">
<!-- Generated by graphviz version 2.38.0 (20140413.2041)
 -->
<!-- Title: src/hal/x4m0x_s70/libraries/libusb/device/core/USBDCallbacks_Initialized.c Pages: 1 -->
<svg width="190pt" height="106pt"
 viewBox="0.00 0.00 190.00 106.00" xmlns="http://www.w3.org/2000/svg" xmlns:xlink="http://www.w3.org/1999/xlink">
<g id="graph0" class="graph" transform="scale(1 1) rotate(0) translate(4 102)">
<title>src/hal/x4m0x_s70/libraries/libusb/device/core/USBDCallbacks_Initialized.c</title>
<polygon fill="white" stroke="none" points="-4,4 -4,-102 186,-102 186,4 -4,4"/>
<!-- Node0 -->
<g id="node1" class="node"><title>Node0</title>
<polygon fill="#bfbfbf" stroke="black" points="0,-56.5 0,-97.5 182,-97.5 182,-56.5 0,-56.5"/>
<text text-anchor="start" x="8" y="-85.5" font-family="Helvetica,sans-Serif" font-size="10.00">src/hal/x4m0x_s70/libraries</text>
<text text-anchor="start" x="8" y="-74.5" font-family="Helvetica,sans-Serif" font-size="10.00">/libusb/device/core/USBDCallbacks</text>
<text text-anchor="middle" x="91" y="-63.5" font-family="Helvetica,sans-Serif" font-size="10.00">_Initialized.c</text>
</g>
<!-- Node1 -->
<g id="node2" class="node"><title>Node1</title>
<g id="a_node2"><a xlink:href="_u_s_b_d___config_8h.xhtml" target="_top" xlink:title="USB Device Framework configurations. ">
<polygon fill="white" stroke="red" points="4.5,-0.5 4.5,-19.5 93.5,-19.5 93.5,-0.5 4.5,-0.5"/>
<text text-anchor="middle" x="49" y="-7.5" font-family="Helvetica,sans-Serif" font-size="10.00">USBD_Config.h</text>
</a>
</g>
</g>
<!-- Node0&#45;&gt;Node1 -->
<g id="edge1" class="edge"><title>Node0&#45;&gt;Node1</title>
<path fill="none" stroke="midnightblue" d="M78.3986,-56.4979C72.5784,-47.4904 65.7277,-36.8881 60.1043,-28.1852"/>
<polygon fill="midnightblue" stroke="midnightblue" points="62.9578,-26.1522 54.5908,-19.6525 57.0783,-29.9512 62.9578,-26.1522"/>
</g>
<!-- Node3 -->
<g id="node3" class="node"><title>Node3</title>
<g id="a_node3"><a xlink:href="chip_8h.xhtml" target="_top" xlink:title="chip.h">
<polygon fill="white" stroke="red" points="111.5,-0.5 111.5,-19.5 156.5,-19.5 156.5,-0.5 111.5,-0.5"/>
<text text-anchor="middle" x="134" y="-7.5" font-family="Helvetica,sans-Serif" font-size="10.00">chip.h</text>
</a>
</g>
</g>
<!-- Node0&#45;&gt;Node3 -->
<g id="edge2" class="edge"><title>Node0&#45;&gt;Node3</title>
<path fill="none" stroke="midnightblue" d="M103.901,-56.4979C109.86,-47.4904 116.874,-36.8881 122.631,-28.1852"/>
<polygon fill="midnightblue" stroke="midnightblue" points="125.678,-29.9238 128.276,-19.6525 119.84,-26.0616 125.678,-29.9238"/>
</g>
</g>
</svg>
