<?xml version="1.0" encoding="UTF-8" standalone="no"?>
<!DOCTYPE svg PUBLIC "-//W3C//DTD SVG 1.1//EN"
 "http://www.w3.org/Graphics/SVG/1.1/DTD/svg11.dtd">
<!-- Generated by graphviz version 2.38.0 (20140413.2041)
 -->
<!-- Title: src/hal/x4m0x_s70/libraries/libusb/device/core/USBDDriverCallbacks.c Pages: 1 -->
<svg width="226pt" height="95pt"
 viewBox="0.00 0.00 226.00 95.00" xmlns="http://www.w3.org/2000/svg" xmlns:xlink="http://www.w3.org/1999/xlink">
<g id="graph0" class="graph" transform="scale(1 1) rotate(0) translate(4 91)">
<title>src/hal/x4m0x_s70/libraries/libusb/device/core/USBDDriverCallbacks.c</title>
<polygon fill="white" stroke="none" points="-4,4 -4,-91 222,-91 222,4 -4,4"/>
<!-- Node0 -->
<g id="node1" class="node"><title>Node0</title>
<polygon fill="#bfbfbf" stroke="black" points="0,-56.5 0,-86.5 218,-86.5 218,-56.5 0,-56.5"/>
<text text-anchor="start" x="8" y="-74.5" font-family="Helvetica,sans-Serif" font-size="10.00">src/hal/x4m0x_s70/libraries</text>
<text text-anchor="middle" x="109" y="-63.5" font-family="Helvetica,sans-Serif" font-size="10.00">/libusb/device/core/USBDDriverCallbacks.c</text>
</g>
<!-- Node1 -->
<g id="node2" class="node"><title>Node1</title>
<g id="a_node2"><a xlink:href="_u_s_b_d_driver_8h.xhtml" target="_top" xlink:title="USBDDriver.h">
<polygon fill="white" stroke="red" points="16,-0.5 16,-19.5 98,-19.5 98,-0.5 16,-0.5"/>
<text text-anchor="middle" x="57" y="-7.5" font-family="Helvetica,sans-Serif" font-size="10.00">USBDDriver.h</text>
</a>
</g>
</g>
<!-- Node0&#45;&gt;Node1 -->
<g id="edge1" class="edge"><title>Node0&#45;&gt;Node1</title>
<path fill="none" stroke="midnightblue" d="M96.6767,-56.3993C89.0426,-47.6641 79.2093,-36.4126 71.2421,-27.2962"/>
<polygon fill="midnightblue" stroke="midnightblue" points="73.7825,-24.8843 64.5665,-19.6578 68.5117,-29.4907 73.7825,-24.8843"/>
</g>
<!-- Node11 -->
<g id="node3" class="node"><title>Node11</title>
<g id="a_node3"><a xlink:href="_u_s_b_lib___trace_8h.xhtml" target="_top" xlink:title="USBLib_Trace.h">
<polygon fill="white" stroke="red" points="116,-0.5 116,-19.5 206,-19.5 206,-0.5 116,-0.5"/>
<text text-anchor="middle" x="161" y="-7.5" font-family="Helvetica,sans-Serif" font-size="10.00">USBLib_Trace.h</text>
</a>
</g>
</g>
<!-- Node0&#45;&gt;Node11 -->
<g id="edge2" class="edge"><title>Node0&#45;&gt;Node11</title>
<path fill="none" stroke="midnightblue" d="M121.323,-56.3993C128.957,-47.6641 138.791,-36.4126 146.758,-27.2962"/>
<polygon fill="midnightblue" stroke="midnightblue" points="149.488,-29.4907 153.434,-19.6578 144.218,-24.8843 149.488,-29.4907"/>
</g>
</g>
</svg>
