<?xml version="1.0" encoding="UTF-8" standalone="no"?>
<!DOCTYPE svg PUBLIC "-//W3C//DTD SVG 1.1//EN"
 "http://www.w3.org/Graphics/SVG/1.1/DTD/svg11.dtd">
<!-- Generated by graphviz version 2.38.0 (20140413.2041)
 -->
<!-- Title: src/hal/x4m0x_s70/libraries/libchip/source/acc.c Pages: 1 -->
<svg width="154pt" height="151pt"
 viewBox="0.00 0.00 154.00 151.00" xmlns="http://www.w3.org/2000/svg" xmlns:xlink="http://www.w3.org/1999/xlink">
<g id="graph0" class="graph" transform="scale(1 1) rotate(0) translate(4 147)">
<title>src/hal/x4m0x_s70/libraries/libchip/source/acc.c</title>
<polygon fill="white" stroke="none" points="-4,4 -4,-147 150,-147 150,4 -4,4"/>
<!-- Node0 -->
<g id="node1" class="node"><title>Node0</title>
<polygon fill="#bfbfbf" stroke="black" points="0,-112.5 0,-142.5 146,-142.5 146,-112.5 0,-112.5"/>
<text text-anchor="start" x="8" y="-130.5" font-family="Helvetica,sans-Serif" font-size="10.00">src/hal/x4m0x_s70/libraries</text>
<text text-anchor="middle" x="73" y="-119.5" font-family="Helvetica,sans-Serif" font-size="10.00">/libchip/source/acc.c</text>
</g>
<!-- Node1 -->
<g id="node2" class="node"><title>Node1</title>
<g id="a_node2"><a xlink:href="chip_8h.xhtml" target="_top" xlink:title="chip.h">
<polygon fill="white" stroke="red" points="25.5,-56.5 25.5,-75.5 70.5,-75.5 70.5,-56.5 25.5,-56.5"/>
<text text-anchor="middle" x="48" y="-63.5" font-family="Helvetica,sans-Serif" font-size="10.00">chip.h</text>
</a>
</g>
</g>
<!-- Node0&#45;&gt;Node1 -->
<g id="edge1" class="edge"><title>Node0&#45;&gt;Node1</title>
<path fill="none" stroke="midnightblue" d="M67.0753,-112.399C63.6298,-104.199 59.2525,-93.7809 55.5603,-84.9936"/>
<polygon fill="midnightblue" stroke="midnightblue" points="58.7382,-83.5213 51.6377,-75.6578 52.2847,-86.2328 58.7382,-83.5213"/>
</g>
<!-- Node10 -->
<g id="node3" class="node"><title>Node10</title>
<g id="a_node3"><a xlink:href="acc_8h.xhtml" target="_top" xlink:title="include/acc.h">
<polygon fill="white" stroke="red" points="8.5,-0.5 8.5,-19.5 87.5,-19.5 87.5,-0.5 8.5,-0.5"/>
<text text-anchor="middle" x="48" y="-7.5" font-family="Helvetica,sans-Serif" font-size="10.00">include/acc.h</text>
</a>
</g>
</g>
<!-- Node0&#45;&gt;Node10 -->
<g id="edge4" class="edge"><title>Node0&#45;&gt;Node10</title>
<path fill="none" stroke="midnightblue" d="M77.665,-112.373C81.7019,-97.8852 86.0235,-74.8643 80,-56 76.6594,-45.538 69.9002,-35.4277 63.4512,-27.4496"/>
<polygon fill="midnightblue" stroke="midnightblue" points="65.9438,-24.9815 56.7514,-19.7136 60.6523,-29.5641 65.9438,-24.9815"/>
</g>
<!-- Node1&#45;&gt;Node10 -->
<g id="edge2" class="edge"><title>Node1&#45;&gt;Node10</title>
<path fill="none" stroke="midnightblue" d="M42.8337,-56.083C41.3242,-48.9272 40.8938,-38.6353 41.5425,-29.6911"/>
<polygon fill="midnightblue" stroke="midnightblue" points="45.0154,-30.1262 42.869,-19.7511 38.0769,-29.2002 45.0154,-30.1262"/>
</g>
<!-- Node10&#45;&gt;Node1 -->
<g id="edge3" class="edge"><title>Node10&#45;&gt;Node1</title>
<path fill="none" stroke="midnightblue" d="M53.131,-19.7511C54.6573,-26.8579 55.1044,-37.1357 54.4724,-46.1005"/>
<polygon fill="midnightblue" stroke="midnightblue" points="50.9933,-45.7134 53.1663,-56.083 57.9342,-46.6216 50.9933,-45.7134"/>
</g>
</g>
</svg>
