<?xml version="1.0" encoding="UTF-8" standalone="no"?>
<!DOCTYPE svg PUBLIC "-//W3C//DTD SVG 1.1//EN"
 "http://www.w3.org/Graphics/SVG/1.1/DTD/svg11.dtd">
<!-- Generated by graphviz version 2.38.0 (20140413.2041)
 -->
<!-- Title: src/hal/x4m0x_s70/libraries/libchip/include/cmsis/CMSIS/Include/arm_const_structs.h Pages: 1 -->
<svg width="196pt" height="162pt"
 viewBox="0.00 0.00 195.50 162.00" xmlns="http://www.w3.org/2000/svg" xmlns:xlink="http://www.w3.org/1999/xlink">
<g id="graph0" class="graph" transform="scale(1 1) rotate(0) translate(4 158)">
<title>src/hal/x4m0x_s70/libraries/libchip/include/cmsis/CMSIS/Include/arm_const_structs.h</title>
<polygon fill="white" stroke="none" points="-4,4 -4,-158 191.5,-158 191.5,4 -4,4"/>
<!-- Node0 -->
<g id="node1" class="node"><title>Node0</title>
<polygon fill="#bfbfbf" stroke="black" points="0,-112.5 0,-153.5 155,-153.5 155,-112.5 0,-112.5"/>
<text text-anchor="start" x="8" y="-141.5" font-family="Helvetica,sans-Serif" font-size="10.00">src/hal/x4m0x_s70/libraries</text>
<text text-anchor="start" x="8" y="-130.5" font-family="Helvetica,sans-Serif" font-size="10.00">/libchip/include/cmsis/CMSIS</text>
<text text-anchor="middle" x="77.5" y="-119.5" font-family="Helvetica,sans-Serif" font-size="10.00">/Include/arm_const_structs.h</text>
</g>
<!-- Node1 -->
<g id="node2" class="node"><title>Node1</title>
<g id="a_node2"><a xlink:href="arm__math_8h.xhtml" target="_top" xlink:title="arm_math.h">
<polygon fill="white" stroke="red" points="39.5,-0.5 39.5,-19.5 115.5,-19.5 115.5,-0.5 39.5,-0.5"/>
<text text-anchor="middle" x="77.5" y="-7.5" font-family="Helvetica,sans-Serif" font-size="10.00">arm_math.h</text>
</a>
</g>
</g>
<!-- Node0&#45;&gt;Node1 -->
<g id="edge1" class="edge"><title>Node0&#45;&gt;Node1</title>
<path fill="none" stroke="midnightblue" d="M63.4275,-112.246C54.3335,-97.0497 45.1177,-75.4318 50.5,-56 53.2919,-45.9205 59.0091,-35.832 64.4668,-27.7694"/>
<polygon fill="midnightblue" stroke="midnightblue" points="67.3249,-29.7899 70.3485,-19.6357 61.6526,-25.6881 67.3249,-29.7899"/>
</g>
<!-- Node4 -->
<g id="node3" class="node"><title>Node4</title>
<g id="a_node3"><a xlink:href="arm__common__tables_8h.xhtml" target="_top" xlink:title="arm_common_tables.h">
<polygon fill="white" stroke="black" points="59.5,-56.5 59.5,-75.5 187.5,-75.5 187.5,-56.5 59.5,-56.5"/>
<text text-anchor="middle" x="123.5" y="-63.5" font-family="Helvetica,sans-Serif" font-size="10.00">arm_common_tables.h</text>
</a>
</g>
</g>
<!-- Node0&#45;&gt;Node4 -->
<g id="edge2" class="edge"><title>Node0&#45;&gt;Node4</title>
<path fill="none" stroke="midnightblue" d="M91.3015,-112.498C97.7439,-103.395 105.339,-92.6623 111.534,-83.9081"/>
<polygon fill="midnightblue" stroke="midnightblue" points="114.457,-85.8371 117.377,-75.6525 108.743,-81.7934 114.457,-85.8371"/>
</g>
<!-- Node4&#45;&gt;Node1 -->
<g id="edge3" class="edge"><title>Node4&#45;&gt;Node1</title>
<path fill="none" stroke="midnightblue" d="M115.904,-56.083C109.273,-48.2982 99.479,-36.8015 91.4419,-27.3665"/>
<polygon fill="midnightblue" stroke="midnightblue" points="94.1037,-25.0939 84.9546,-19.7511 88.775,-29.6332 94.1037,-25.0939"/>
</g>
</g>
</svg>
