<?xml version="1.0" encoding="UTF-8" standalone="no"?>
<!DOCTYPE svg PUBLIC "-//W3C//DTD SVG 1.1//EN"
 "http://www.w3.org/Graphics/SVG/1.1/DTD/svg11.dtd">
<!-- Generated by graphviz version 2.38.0 (20140413.2041)
 -->
<!-- Title: BOARD_ConfigureSdram Pages: 1 -->
<svg width="420pt" height="104pt"
 viewBox="0.00 0.00 420.00 104.00" xmlns="http://www.w3.org/2000/svg" xmlns:xlink="http://www.w3.org/1999/xlink">
<g id="graph0" class="graph" transform="scale(1 1) rotate(0) translate(4 100)">
<title>BOARD_ConfigureSdram</title>
<polygon fill="white" stroke="none" points="-4,4 -4,-100 416,-100 416,4 -4,4"/>
<!-- Node25 -->
<g id="node1" class="node"><title>Node25</title>
<polygon fill="#bfbfbf" stroke="black" points="0,-38.5 0,-57.5 134,-57.5 134,-38.5 0,-38.5"/>
<text text-anchor="middle" x="67" y="-45.5" font-family="Helvetica,sans-Serif" font-size="10.00">BOARD_ConfigureSdram</text>
</g>
<!-- Node26 -->
<g id="node2" class="node"><title>Node26</title>
<g id="a_node2"><a xlink:href="pio_8h.xhtml#a1bb66b931fa38004c2178936c269fa76" target="_top" xlink:title="Configures a list of Pin instances, each of which can either hold a single pin or a group of pins...">
<polygon fill="white" stroke="red" points="170,-76.5 170,-95.5 253,-95.5 253,-76.5 170,-76.5"/>
<text text-anchor="middle" x="211.5" y="-83.5" font-family="Helvetica,sans-Serif" font-size="10.00">PIO_Configure</text>
</a>
</g>
</g>
<!-- Node25&#45;&gt;Node26 -->
<g id="edge1" class="edge"><title>Node25&#45;&gt;Node26</title>
<path fill="none" stroke="midnightblue" d="M103.959,-57.589C122.439,-62.5169 145.156,-68.5749 164.859,-73.8291"/>
<polygon fill="midnightblue" stroke="midnightblue" points="163.989,-77.2192 174.553,-76.4141 165.792,-70.4555 163.989,-77.2192"/>
</g>
<!-- Node31 -->
<g id="node3" class="node"><title>Node31</title>
<g id="a_node3"><a xlink:href="pmc_8h.xhtml#a4154148b8d69545bca1b5c868c004d49" target="_top" xlink:title="Enables the clock of a peripheral. ">
<polygon fill="white" stroke="black" points="289,-57.5 289,-76.5 412,-76.5 412,-57.5 289,-57.5"/>
<text text-anchor="middle" x="350.5" y="-64.5" font-family="Helvetica,sans-Serif" font-size="10.00">PMC_EnablePeripheral</text>
</a>
</g>
</g>
<!-- Node25&#45;&gt;Node31 -->
<g id="edge3" class="edge"><title>Node25&#45;&gt;Node31</title>
<path fill="none" stroke="midnightblue" d="M134.355,-52.4787C177.785,-55.41 234.477,-59.2365 278.763,-62.2255"/>
<polygon fill="midnightblue" stroke="midnightblue" points="278.66,-65.7265 288.873,-62.908 279.132,-58.7424 278.66,-65.7265"/>
</g>
<!-- Node34 -->
<g id="node4" class="node"><title>Node34</title>
<g id="a_node4"><a xlink:href="group___c_m_s_i_s___core___instruction_interface.xhtml#gabf4161df67564feda90581aa4917a515" target="_top" xlink:title="Data Memory Barrier. ">
<polygon fill="white" stroke="black" points="186.5,-0.5 186.5,-19.5 236.5,-19.5 236.5,-0.5 186.5,-0.5"/>
<text text-anchor="middle" x="211.5" y="-7.5" font-family="Helvetica,sans-Serif" font-size="10.00">__DMB</text>
</a>
</g>
</g>
<!-- Node25&#45;&gt;Node34 -->
<g id="edge4" class="edge"><title>Node25&#45;&gt;Node34</title>
<path fill="none" stroke="midnightblue" d="M103.959,-38.411C126.166,-32.489 154.493,-24.9352 176.355,-19.1053"/>
<polygon fill="midnightblue" stroke="midnightblue" points="177.445,-22.437 186.206,-16.4785 175.642,-15.6734 177.445,-22.437"/>
</g>
<!-- Node26&#45;&gt;Node31 -->
<g id="edge2" class="edge"><title>Node26&#45;&gt;Node31</title>
<path fill="none" stroke="midnightblue" d="M253.234,-80.3508C261.371,-79.2222 270.138,-78.0064 278.95,-76.7842"/>
<polygon fill="midnightblue" stroke="midnightblue" points="279.464,-80.2467 288.888,-75.4061 278.502,-73.313 279.464,-80.2467"/>
</g>
</g>
</svg>
