<?xml version="1.0" encoding="UTF-8" standalone="no"?>
<!DOCTYPE svg PUBLIC "-//W3C//DTD SVG 1.1//EN"
 "http://www.w3.org/Graphics/SVG/1.1/DTD/svg11.dtd">
<!-- Generated by graphviz version 2.38.0 (20140413.2041)
 -->
<!-- Title: src/hal/x4m0x_s70/libraries/libusb/host/msc/storage/ctrl_access/ctrl_access.h Pages: 1 -->
<svg width="350pt" height="128pt"
 viewBox="0.00 0.00 349.50 128.00" xmlns="http://www.w3.org/2000/svg" xmlns:xlink="http://www.w3.org/1999/xlink">
<g id="graph0" class="graph" transform="scale(1 1) rotate(0) translate(4 124)">
<title>src/hal/x4m0x_s70/libraries/libusb/host/msc/storage/ctrl_access/ctrl_access.h</title>
<polygon fill="white" stroke="none" points="-4,4 -4,-124 345.5,-124 345.5,4 -4,4"/>
<!-- Node17 -->
<g id="node1" class="node"><title>Node17</title>
<polygon fill="#bfbfbf" stroke="black" points="90,-78.5 90,-119.5 236,-119.5 236,-78.5 90,-78.5"/>
<text text-anchor="start" x="98" y="-107.5" font-family="Helvetica,sans-Serif" font-size="10.00">src/hal/x4m0x_s70/libraries</text>
<text text-anchor="start" x="98" y="-96.5" font-family="Helvetica,sans-Serif" font-size="10.00">/libusb/host/msc/storage</text>
<text text-anchor="middle" x="163" y="-85.5" font-family="Helvetica,sans-Serif" font-size="10.00">/ctrl_access/ctrl_access.h</text>
</g>
<!-- Node18 -->
<g id="node2" class="node"><title>Node18</title>
<g id="a_node2"><a xlink:href="ctrl__access_8c.xhtml" target="_top" xlink:title="src/hal/x4m0x_s70/libraries\l/libusb/host/msc/storage\l/ctrl_access/ctrl_access.c">
<polygon fill="white" stroke="black" points="0,-0.5 0,-41.5 146,-41.5 146,-0.5 0,-0.5"/>
<text text-anchor="start" x="8" y="-29.5" font-family="Helvetica,sans-Serif" font-size="10.00">src/hal/x4m0x_s70/libraries</text>
<text text-anchor="start" x="8" y="-18.5" font-family="Helvetica,sans-Serif" font-size="10.00">/libusb/host/msc/storage</text>
<text text-anchor="middle" x="73" y="-7.5" font-family="Helvetica,sans-Serif" font-size="10.00">/ctrl_access/ctrl_access.c</text>
</a>
</g>
</g>
<!-- Node17&#45;&gt;Node18 -->
<g id="edge1" class="edge"><title>Node17&#45;&gt;Node18</title>
<path fill="none" stroke="midnightblue" d="M131.948,-71.7785C120.183,-61.8432 107.006,-50.7159 96.0987,-41.5056"/>
<polygon fill="midnightblue" stroke="midnightblue" points="129.924,-74.6504 139.823,-78.4281 134.441,-69.3022 129.924,-74.6504"/>
</g>
<!-- Node19 -->
<g id="node3" class="node"><title>Node19</title>
<g id="a_node3"><a xlink:href="uhi__msc__mem_8h.xhtml" target="_top" xlink:title="USB host Mass Storage interface for control access module. ">
<polygon fill="white" stroke="red" points="164.5,-6 164.5,-36 341.5,-36 341.5,-6 164.5,-6"/>
<text text-anchor="start" x="172.5" y="-24" font-family="Helvetica,sans-Serif" font-size="10.00">src/hal/x4m0x_s70/libraries</text>
<text text-anchor="middle" x="253" y="-13" font-family="Helvetica,sans-Serif" font-size="10.00">/libusb/host/msc/uhi_msc_mem.h</text>
</a>
</g>
</g>
<!-- Node17&#45;&gt;Node19 -->
<g id="edge2" class="edge"><title>Node17&#45;&gt;Node19</title>
<path fill="none" stroke="midnightblue" d="M194.194,-71.6585C208.283,-59.7612 224.371,-46.1757 236.154,-36.2254"/>
<polygon fill="midnightblue" stroke="midnightblue" points="191.559,-69.3022 186.177,-78.4281 196.076,-74.6504 191.559,-69.3022"/>
</g>
</g>
</svg>
