<?xml version="1.0" encoding="UTF-8" standalone="no"?>
<!DOCTYPE svg PUBLIC "-//W3C//DTD SVG 1.1//EN"
 "http://www.w3.org/Graphics/SVG/1.1/DTD/svg11.dtd">
<!-- Generated by graphviz version 2.38.0 (20140413.2041)
 -->
<!-- Title: DBG_GetInteger Pages: 1 -->
<svg width="222pt" height="66pt"
 viewBox="0.00 0.00 222.00 66.00" xmlns="http://www.w3.org/2000/svg" xmlns:xlink="http://www.w3.org/1999/xlink">
<g id="graph0" class="graph" transform="scale(1 1) rotate(0) translate(4 62)">
<title>DBG_GetInteger</title>
<polygon fill="white" stroke="none" points="-4,4 -4,-62 218,-62 218,4 -4,4"/>
<!-- Node62 -->
<g id="node1" class="node"><title>Node62</title>
<polygon fill="#bfbfbf" stroke="black" points="0,-19.5 0,-38.5 95,-38.5 95,-19.5 0,-19.5"/>
<text text-anchor="middle" x="47.5" y="-26.5" font-family="Helvetica,sans-Serif" font-size="10.00">DBG_GetInteger</text>
</g>
<!-- Node63 -->
<g id="node2" class="node"><title>Node63</title>
<g id="a_node2"><a xlink:href="dbg__console_8c.xhtml#a2eef99b5de5b33158b69f38c0bdfd655" target="_top" xlink:title="Input a character from the UART line. ">
<polygon fill="white" stroke="red" points="131,-38.5 131,-57.5 214,-57.5 214,-38.5 131,-38.5"/>
<text text-anchor="middle" x="172.5" y="-45.5" font-family="Helvetica,sans-Serif" font-size="10.00">DBG_GetChar</text>
</a>
</g>
</g>
<!-- Node62&#45;&gt;Node63 -->
<g id="edge1" class="edge"><title>Node62&#45;&gt;Node63</title>
<path fill="none" stroke="midnightblue" d="M95.001,-36.1831C103.509,-37.4973 112.425,-38.8746 121.042,-40.2056"/>
<polygon fill="midnightblue" stroke="midnightblue" points="120.56,-43.6727 130.978,-41.7404 121.629,-36.7548 120.56,-43.6727"/>
</g>
<!-- Node73 -->
<g id="node3" class="node"><title>Node73</title>
<g id="a_node3"><a xlink:href="dbg__console_8c.xhtml#a7f949ce5c762badb554572a41e19e3fb" target="_top" xlink:title="Outputs a character on the UART line. ">
<polygon fill="white" stroke="red" points="131.5,-0.5 131.5,-19.5 213.5,-19.5 213.5,-0.5 131.5,-0.5"/>
<text text-anchor="middle" x="172.5" y="-7.5" font-family="Helvetica,sans-Serif" font-size="10.00">DBG_PutChar</text>
</a>
</g>
</g>
<!-- Node62&#45;&gt;Node73 -->
<g id="edge2" class="edge"><title>Node62&#45;&gt;Node73</title>
<path fill="none" stroke="midnightblue" d="M95.001,-21.8169C103.607,-20.4876 112.63,-19.0937 121.339,-17.7485"/>
<polygon fill="midnightblue" stroke="midnightblue" points="122.026,-21.184 131.374,-16.1983 120.957,-14.266 122.026,-21.184"/>
</g>
</g>
</svg>
