<?xml version="1.0" encoding="UTF-8" standalone="no"?>
<!DOCTYPE svg PUBLIC "-//W3C//DTD SVG 1.1//EN"
 "http://www.w3.org/Graphics/SVG/1.1/DTD/svg11.dtd">
<!-- Generated by graphviz version 2.38.0 (20140413.2041)
 -->
<!-- Title: DBG_GetHexa32 Pages: 1 -->
<svg width="225pt" height="66pt"
 viewBox="0.00 0.00 225.00 66.00" xmlns="http://www.w3.org/2000/svg" xmlns:xlink="http://www.w3.org/1999/xlink">
<g id="graph0" class="graph" transform="scale(1 1) rotate(0) translate(4 62)">
<title>DBG_GetHexa32</title>
<polygon fill="white" stroke="none" points="-4,4 -4,-62 221,-62 221,4 -4,4"/>
<!-- Node49 -->
<g id="node1" class="node"><title>Node49</title>
<polygon fill="#bfbfbf" stroke="black" points="0,-19.5 0,-38.5 98,-38.5 98,-19.5 0,-19.5"/>
<text text-anchor="middle" x="49" y="-26.5" font-family="Helvetica,sans-Serif" font-size="10.00">DBG_GetHexa32</text>
</g>
<!-- Node50 -->
<g id="node2" class="node"><title>Node50</title>
<g id="a_node2"><a xlink:href="dbg__console_8c.xhtml#a2eef99b5de5b33158b69f38c0bdfd655" target="_top" xlink:title="Input a character from the UART line. ">
<polygon fill="white" stroke="red" points="134,-38.5 134,-57.5 217,-57.5 217,-38.5 134,-38.5"/>
<text text-anchor="middle" x="175.5" y="-45.5" font-family="Helvetica,sans-Serif" font-size="10.00">DBG_GetChar</text>
</a>
</g>
</g>
<!-- Node49&#45;&gt;Node50 -->
<g id="edge1" class="edge"><title>Node49&#45;&gt;Node50</title>
<path fill="none" stroke="midnightblue" d="M98.135,-36.3459C106.502,-37.6228 115.229,-38.9546 123.665,-40.2421"/>
<polygon fill="midnightblue" stroke="midnightblue" points="123.355,-43.7353 133.769,-41.784 124.412,-36.8154 123.355,-43.7353"/>
</g>
<!-- Node60 -->
<g id="node3" class="node"><title>Node60</title>
<g id="a_node3"><a xlink:href="dbg__console_8c.xhtml#a7f949ce5c762badb554572a41e19e3fb" target="_top" xlink:title="Outputs a character on the UART line. ">
<polygon fill="white" stroke="red" points="134.5,-0.5 134.5,-19.5 216.5,-19.5 216.5,-0.5 134.5,-0.5"/>
<text text-anchor="middle" x="175.5" y="-7.5" font-family="Helvetica,sans-Serif" font-size="10.00">DBG_PutChar</text>
</a>
</g>
</g>
<!-- Node49&#45;&gt;Node60 -->
<g id="edge2" class="edge"><title>Node49&#45;&gt;Node60</title>
<path fill="none" stroke="midnightblue" d="M98.135,-21.6541C106.693,-20.3481 115.626,-18.9848 124.241,-17.6701"/>
<polygon fill="midnightblue" stroke="midnightblue" points="124.808,-21.1241 134.166,-16.1554 123.752,-14.2042 124.808,-21.1241"/>
</g>
</g>
</svg>
