<?xml version="1.0" encoding="UTF-8" standalone="no"?>
<!DOCTYPE svg PUBLIC "-//W3C//DTD SVG 1.1//EN"
 "http://www.w3.org/Graphics/SVG/1.1/DTD/svg11.dtd">
<!-- Generated by graphviz version 2.38.0 (20140413.2041)
 -->
<!-- Title: src/hal/x4m0x_s70/libraries/libboard Pages: 1 -->
<svg width="357pt" height="183pt"
 viewBox="0.00 0.00 357.00 183.00" xmlns="http://www.w3.org/2000/svg" xmlns:xlink="http://www.w3.org/1999/xlink">
<g id="graph0" class="graph" transform="scale(1 1) rotate(0) translate(4 179)">
<title>src/hal/x4m0x_s70/libraries/libboard</title>
<polygon fill="white" stroke="none" points="-4,4 -4,-179 353,-179 353,4 -4,4"/>
<g id="clust1" class="cluster"><title>clusterdir_75c70effab526b28e035b6c6a3220eb7</title>
<g id="a_clust1"><a xlink:href="dir_75c70effab526b28e035b6c6a3220eb7.xhtml" target="_top" xlink:title="libraries">
<polygon fill="#ddddee" stroke="black" points="8,-8 8,-167 287,-167 287,-8 8,-8"/>
<text text-anchor="middle" x="147.5" y="-155" font-family="Helvetica,sans-Serif" font-size="10.00">libraries</text>
</a>
</g>
</g>
<g id="clust2" class="cluster"><title>clusterdir_0bcb53a0bcfa39e1247d0c604a39aec5</title>
<g id="a_clust2"><a xlink:href="dir_0bcb53a0bcfa39e1247d0c604a39aec5.xhtml" target="_top">
<polygon fill="#eeeeff" stroke="black" points="16,-16 16,-140 279,-140 279,-16 16,-16"/>
</a>
</g>
</g>
<!-- dir_0bcb53a0bcfa39e1247d0c604a39aec5 -->
<g id="node1" class="node"><title>dir_0bcb53a0bcfa39e1247d0c604a39aec5</title>
<text text-anchor="middle" x="124" y="-111.5" font-family="Helvetica,sans-Serif" font-size="10.00">libboard</text>
</g>
<!-- dir_5890fcb338c6196720648e3006310c8d -->
<g id="node2" class="node"><title>dir_5890fcb338c6196720648e3006310c8d</title>
<g id="a_node2"><a xlink:href="dir_5890fcb338c6196720648e3006310c8d.xhtml" target="_top" xlink:title="include">
<polygon fill="white" stroke="black" points="211,-60 157,-60 157,-24 211,-24 211,-60"/>
<text text-anchor="middle" x="184" y="-39.5" font-family="Helvetica,sans-Serif" font-size="10.00">include</text>
</a>
</g>
</g>
<!-- dir_0bcb53a0bcfa39e1247d0c604a39aec5&#45;&gt;dir_5890fcb338c6196720648e3006310c8d -->
<g id="edge1" class="edge"><title>dir_0bcb53a0bcfa39e1247d0c604a39aec5&#45;&gt;dir_5890fcb338c6196720648e3006310c8d</title>
<path fill="none" stroke="black" d="M138.831,-95.6966C146.025,-87.3046 154.797,-77.0705 162.69,-67.8613"/>
<polygon fill="black" stroke="black" points="165.489,-69.9747 169.339,-60.1043 160.174,-65.4191 165.489,-69.9747"/>
<g id="a_edge1&#45;headlabel"><a xlink:href="dir_000008_000009.xhtml" target="_top" xlink:title="23">
<text text-anchor="middle" x="165.305" y="-72.0517" font-family="Helvetica,sans-Serif" font-size="10.00">23</text>
</a>
</g>
</g>
<!-- dir_0e65cb4392d69740acacfc8a5e597e22 -->
<g id="node3" class="node"><title>dir_0e65cb4392d69740acacfc8a5e597e22</title>
<g id="a_node3"><a xlink:href="dir_0e65cb4392d69740acacfc8a5e597e22.xhtml" target="_top" xlink:title="resources_X4M0x">
<polygon fill="white" stroke="red" points="270.5,-132 169.5,-132 169.5,-96 270.5,-96 270.5,-132"/>
<text text-anchor="middle" x="220" y="-111.5" font-family="Helvetica,sans-Serif" font-size="10.00">resources_X4M0x</text>
</a>
</g>
</g>
<!-- dir_a75a6fe80fd9120ba7dd67a0b33a7bc9 -->
<g id="node5" class="node"><title>dir_a75a6fe80fd9120ba7dd67a0b33a7bc9</title>
<g id="a_node5"><a xlink:href="dir_a75a6fe80fd9120ba7dd67a0b33a7bc9.xhtml" target="_top" xlink:title="libchip">
<polygon fill="white" stroke="red" points="349,-60 295,-60 295,-24 349,-24 349,-60"/>
<text text-anchor="middle" x="322" y="-39.5" font-family="Helvetica,sans-Serif" font-size="10.00">libchip</text>
</a>
</g>
</g>
<!-- dir_0e65cb4392d69740acacfc8a5e597e22&#45;&gt;dir_a75a6fe80fd9120ba7dd67a0b33a7bc9 -->
<g id="edge3" class="edge"><title>dir_0e65cb4392d69740acacfc8a5e597e22&#45;&gt;dir_a75a6fe80fd9120ba7dd67a0b33a7bc9</title>
<path fill="none" stroke="black" d="M244.952,-95.8761C258.042,-86.8931 274.26,-75.7625 288.436,-66.0341"/>
<polygon fill="black" stroke="black" points="290.687,-68.734 296.952,-60.1898 286.726,-62.9624 290.687,-68.734"/>
<g id="a_edge3&#45;headlabel"><a xlink:href="dir_000010_000013.xhtml" target="_top" xlink:title="2">
<text text-anchor="middle" x="289.33" y="-70.609" font-family="Helvetica,sans-Serif" font-size="10.00">2</text>
</a>
</g>
</g>
<!-- dir_6a4cf6ccb3ad1b6ad5772753703ee78d -->
<g id="node4" class="node"><title>dir_6a4cf6ccb3ad1b6ad5772753703ee78d</title>
<g id="a_node4"><a xlink:href="dir_6a4cf6ccb3ad1b6ad5772753703ee78d.xhtml" target="_top" xlink:title="source">
<polygon fill="white" stroke="black" points="78,-132 24,-132 24,-96 78,-96 78,-132"/>
<text text-anchor="middle" x="51" y="-111.5" font-family="Helvetica,sans-Serif" font-size="10.00">source</text>
</a>
</g>
</g>
<!-- dir_a75a6fe80fd9120ba7dd67a0b33a7bc9&#45;&gt;dir_5890fcb338c6196720648e3006310c8d -->
<g id="edge2" class="edge"><title>dir_a75a6fe80fd9120ba7dd67a0b33a7bc9&#45;&gt;dir_5890fcb338c6196720648e3006310c8d</title>
<path fill="none" stroke="black" d="M294.738,-42C270.271,-42 245.803,-42 221.336,-42"/>
<polygon fill="black" stroke="black" points="221.223,-38.5001 211.223,-42 221.223,-45.5001 221.223,-38.5001"/>
<g id="a_edge2&#45;headlabel"><a xlink:href="dir_000013_000009.xhtml" target="_top" xlink:title="2">
<text text-anchor="middle" x="224.817" y="-33.1607" font-family="Helvetica,sans-Serif" font-size="10.00">2</text>
</a>
</g>
</g>
</g>
</svg>
