<?xml version="1.0" encoding="UTF-8" standalone="no"?>
<!DOCTYPE svg PUBLIC "-//W3C//DTD SVG 1.1//EN"
 "http://www.w3.org/Graphics/SVG/1.1/DTD/svg11.dtd">
<!-- Generated by graphviz version 2.38.0 (20140413.2041)
 -->
<!-- Title: src/hal/x4m0x_s70/libraries Pages: 1 -->
<svg width="310pt" height="183pt"
 viewBox="0.00 0.00 310.00 183.00" xmlns="http://www.w3.org/2000/svg" xmlns:xlink="http://www.w3.org/1999/xlink">
<g id="graph0" class="graph" transform="scale(1 1) rotate(0) translate(4 179)">
<title>src/hal/x4m0x_s70/libraries</title>
<polygon fill="white" stroke="none" points="-4,4 -4,-179 306,-179 306,4 -4,4"/>
<g id="clust1" class="cluster"><title>clusterdir_9dc4d255e566c48428ae1788dff8c9e9</title>
<g id="a_clust1"><a xlink:href="dir_9dc4d255e566c48428ae1788dff8c9e9.xhtml" target="_top" xlink:title="x4m0x_s70">
<polygon fill="#ddddee" stroke="black" points="8,-8 8,-167 240,-167 240,-8 8,-8"/>
<text text-anchor="middle" x="124" y="-155" font-family="Helvetica,sans-Serif" font-size="10.00">x4m0x_s70</text>
</a>
</g>
</g>
<g id="clust2" class="cluster"><title>clusterdir_75c70effab526b28e035b6c6a3220eb7</title>
<g id="a_clust2"><a xlink:href="dir_75c70effab526b28e035b6c6a3220eb7.xhtml" target="_top">
<polygon fill="#eeeeff" stroke="black" points="16,-16 16,-140 232,-140 232,-16 16,-16"/>
</a>
</g>
</g>
<!-- dir_75c70effab526b28e035b6c6a3220eb7 -->
<g id="node1" class="node"><title>dir_75c70effab526b28e035b6c6a3220eb7</title>
<text text-anchor="middle" x="197" y="-111.5" font-family="Helvetica,sans-Serif" font-size="10.00">libraries</text>
</g>
<!-- dir_0bcb53a0bcfa39e1247d0c604a39aec5 -->
<g id="node2" class="node"><title>dir_0bcb53a0bcfa39e1247d0c604a39aec5</title>
<g id="a_node2"><a xlink:href="dir_0bcb53a0bcfa39e1247d0c604a39aec5.xhtml" target="_top" xlink:title="libboard">
<polygon fill="white" stroke="red" points="79.5,-132 24.5,-132 24.5,-96 79.5,-96 79.5,-132"/>
<text text-anchor="middle" x="52" y="-111.5" font-family="Helvetica,sans-Serif" font-size="10.00">libboard</text>
</a>
</g>
</g>
<!-- dir_a75a6fe80fd9120ba7dd67a0b33a7bc9 -->
<g id="node3" class="node"><title>dir_a75a6fe80fd9120ba7dd67a0b33a7bc9</title>
<g id="a_node3"><a xlink:href="dir_a75a6fe80fd9120ba7dd67a0b33a7bc9.xhtml" target="_top" xlink:title="libchip">
<polygon fill="white" stroke="red" points="115,-60 61,-60 61,-24 115,-24 115,-60"/>
<text text-anchor="middle" x="88" y="-39.5" font-family="Helvetica,sans-Serif" font-size="10.00">libchip</text>
</a>
</g>
</g>
<!-- dir_0bcb53a0bcfa39e1247d0c604a39aec5&#45;&gt;dir_a75a6fe80fd9120ba7dd67a0b33a7bc9 -->
<g id="edge1" class="edge"><title>dir_0bcb53a0bcfa39e1247d0c604a39aec5&#45;&gt;dir_a75a6fe80fd9120ba7dd67a0b33a7bc9</title>
<path fill="none" stroke="black" d="M54.9832,-95.6966C58.294,-87.6436 63.0975,-77.8945 68.0908,-68.9824"/>
<polygon fill="black" stroke="black" points="71.2591,-70.4991 73.3085,-60.1043 65.2242,-66.9523 71.2591,-70.4991"/>
<g id="a_edge1&#45;headlabel"><a xlink:href="dir_000008_000013.xhtml" target="_top" xlink:title="4">
<text text-anchor="middle" x="71.8857" y="-72.5367" font-family="Helvetica,sans-Serif" font-size="10.00">4</text>
</a>
</g>
</g>
<!-- dir_a75a6fe80fd9120ba7dd67a0b33a7bc9&#45;&gt;dir_0bcb53a0bcfa39e1247d0c604a39aec5 -->
<g id="edge2" class="edge"><title>dir_a75a6fe80fd9120ba7dd67a0b33a7bc9&#45;&gt;dir_0bcb53a0bcfa39e1247d0c604a39aec5</title>
<path fill="none" stroke="black" d="M85.0985,-60.1043C81.8124,-68.1291 77.0229,-77.871 72.0328,-86.7967"/>
<polygon fill="black" stroke="black" points="68.8533,-85.2998 66.8146,-95.6966 74.8919,-88.8403 68.8533,-85.2998"/>
<g id="a_edge2&#45;headlabel"><a xlink:href="dir_000013_000008.xhtml" target="_top" xlink:title="2">
<text text-anchor="middle" x="68.222" y="-78.2628" font-family="Helvetica,sans-Serif" font-size="10.00">2</text>
</a>
</g>
</g>
<!-- dir_b1319e8f428daa0564aada829adff08d -->
<g id="node5" class="node"><title>dir_b1319e8f428daa0564aada829adff08d</title>
<g id="a_node5"><a xlink:href="dir_b1319e8f428daa0564aada829adff08d.xhtml" target="_top" xlink:title="utils">
<polygon fill="white" stroke="red" points="302,-60 248,-60 248,-24 302,-24 302,-60"/>
<text text-anchor="middle" x="275" y="-39.5" font-family="Helvetica,sans-Serif" font-size="10.00">utils</text>
</a>
</g>
</g>
<!-- dir_a75a6fe80fd9120ba7dd67a0b33a7bc9&#45;&gt;dir_b1319e8f428daa0564aada829adff08d -->
<g id="edge3" class="edge"><title>dir_a75a6fe80fd9120ba7dd67a0b33a7bc9&#45;&gt;dir_b1319e8f428daa0564aada829adff08d</title>
<path fill="none" stroke="black" d="M115.027,-42C155.919,-42 196.811,-42 237.702,-42"/>
<polygon fill="black" stroke="black" points="237.817,-45.5001 247.817,-42 237.817,-38.5001 237.817,-45.5001"/>
<g id="a_edge3&#45;headlabel"><a xlink:href="dir_000013_000061.xhtml" target="_top" xlink:title="2">
<text text-anchor="middle" x="234.223" y="-45.8393" font-family="Helvetica,sans-Serif" font-size="10.00">2</text>
</a>
</g>
</g>
<!-- dir_608da0ca01c56cd314839049683ac68c -->
<g id="node4" class="node"><title>dir_608da0ca01c56cd314839049683ac68c</title>
<g id="a_node4"><a xlink:href="dir_608da0ca01c56cd314839049683ac68c.xhtml" target="_top" xlink:title="libusb">
<polygon fill="white" stroke="red" points="152,-132 98,-132 98,-96 152,-96 152,-132"/>
<text text-anchor="middle" x="125" y="-111.5" font-family="Helvetica,sans-Serif" font-size="10.00">libusb</text>
</a>
</g>
</g>
<!-- dir_608da0ca01c56cd314839049683ac68c&#45;&gt;dir_a75a6fe80fd9120ba7dd67a0b33a7bc9 -->
<g id="edge4" class="edge"><title>dir_608da0ca01c56cd314839049683ac68c&#45;&gt;dir_a75a6fe80fd9120ba7dd67a0b33a7bc9</title>
<path fill="none" stroke="black" d="M115.854,-95.6966C111.597,-87.6436 106.444,-77.8945 101.734,-68.9824"/>
<polygon fill="black" stroke="black" points="104.808,-67.3097 97.0409,-60.1043 98.6197,-70.5809 104.808,-67.3097"/>
<g id="a_edge4&#45;headlabel"><a xlink:href="dir_000031_000013.xhtml" target="_top" xlink:title="12">
<text text-anchor="middle" x="108.998" y="-66.6609" font-family="Helvetica,sans-Serif" font-size="10.00">12</text>
</a>
</g>
</g>
<!-- dir_608da0ca01c56cd314839049683ac68c&#45;&gt;dir_b1319e8f428daa0564aada829adff08d -->
<g id="edge5" class="edge"><title>dir_608da0ca01c56cd314839049683ac68c&#45;&gt;dir_b1319e8f428daa0564aada829adff08d</title>
<path fill="none" stroke="black" d="M152.119,-100.173C155.114,-98.7621 158.121,-97.349 161,-96 186.94,-83.8454 216.247,-70.2226 238.65,-59.832"/>
<polygon fill="black" stroke="black" points="240.199,-62.9721 247.799,-55.5905 237.254,-56.6214 240.199,-62.9721"/>
<g id="a_edge5&#45;headlabel"><a xlink:href="dir_000031_000061.xhtml" target="_top" xlink:title="1">
<text text-anchor="middle" x="238.132" y="-64.5599" font-family="Helvetica,sans-Serif" font-size="10.00">1</text>
</a>
</g>
</g>
<!-- dir_b1319e8f428daa0564aada829adff08d&#45;&gt;dir_75c70effab526b28e035b6c6a3220eb7 -->
<g id="edge7" class="edge"><title>dir_b1319e8f428daa0564aada829adff08d&#45;&gt;dir_75c70effab526b28e035b6c6a3220eb7</title>
<path fill="none" stroke="black" d="M255.941,-60.1043C246.34,-68.7205 234.534,-79.316 224.015,-88.7555"/>
<polygon fill="black" stroke="black" points="221.386,-86.4126 216.281,-95.6966 226.061,-91.6224 221.386,-86.4126"/>
<g id="a_edge7&#45;headlabel"><a xlink:href="dir_000061_000007.xhtml" target="_top" xlink:title="2">
<text text-anchor="middle" x="222.165" y="-79.3987" font-family="Helvetica,sans-Serif" font-size="10.00">2</text>
</a>
</g>
</g>
<!-- dir_b1319e8f428daa0564aada829adff08d&#45;&gt;dir_a75a6fe80fd9120ba7dd67a0b33a7bc9 -->
<g id="edge6" class="edge"><title>dir_b1319e8f428daa0564aada829adff08d&#45;&gt;dir_a75a6fe80fd9120ba7dd67a0b33a7bc9</title>
<path fill="none" stroke="black" d="M247.817,-42C206.925,-42 166.034,-42 125.142,-42"/>
<polygon fill="black" stroke="black" points="125.027,-38.5001 115.027,-42 125.027,-45.5001 125.027,-38.5001"/>
<g id="a_edge6&#45;headlabel"><a xlink:href="dir_000061_000013.xhtml" target="_top" xlink:title="2">
<text text-anchor="middle" x="128.622" y="-33.1607" font-family="Helvetica,sans-Serif" font-size="10.00">2</text>
</a>
</g>
</g>
</g>
</svg>
