<?xml version="1.0" encoding="UTF-8" standalone="no"?>
<!DOCTYPE svg PUBLIC "-//W3C//DTD SVG 1.1//EN"
 "http://www.w3.org/Graphics/SVG/1.1/DTD/svg11.dtd">
<!-- Generated by graphviz version 2.38.0 (20140413.2041)
 -->
<!-- Title: src/hal/x4m0x_s70/libraries/libusb/device/composite Pages: 1 -->
<svg width="108pt" height="151pt"
 viewBox="0.00 0.00 108.00 151.00" xmlns="http://www.w3.org/2000/svg" xmlns:xlink="http://www.w3.org/1999/xlink">
<g id="graph0" class="graph" transform="scale(1 1) rotate(0) translate(4 147)">
<title>src/hal/x4m0x_s70/libraries/libusb/device/composite</title>
<polygon fill="white" stroke="none" points="-4,4 -4,-147 104,-147 104,4 -4,4"/>
<g id="clust1" class="cluster"><title>clusterdir_d2da8e13eb5c48e27ac81e92e0b056f1</title>
<g id="a_clust1"><a xlink:href="dir_d2da8e13eb5c48e27ac81e92e0b056f1.xhtml" target="_top" xlink:title="device">
<polygon fill="#ddddee" stroke="black" points="8,-64 8,-135 92,-135 92,-64 8,-64"/>
<text text-anchor="middle" x="50" y="-123" font-family="Helvetica,sans-Serif" font-size="10.00">device</text>
</a>
</g>
</g>
<!-- dir_f4862fdaf6e04616b4d4384aa0d93e1d -->
<g id="node1" class="node"><title>dir_f4862fdaf6e04616b4d4384aa0d93e1d</title>
<g id="a_node1"><a xlink:href="dir_f4862fdaf6e04616b4d4384aa0d93e1d.xhtml" target="_top" xlink:title="composite">
<polygon fill="#eeeeff" stroke="black" points="83.5,-108 16.5,-108 16.5,-72 83.5,-72 83.5,-108"/>
<text text-anchor="middle" x="50" y="-87.5" font-family="Helvetica,sans-Serif" font-size="10.00">composite</text>
</a>
</g>
</g>
<!-- dir_c46a29a3f6521c422d3477bfa11d561d -->
<g id="node2" class="node"><title>dir_c46a29a3f6521c422d3477bfa11d561d</title>
<g id="a_node2"><a xlink:href="dir_c46a29a3f6521c422d3477bfa11d561d.xhtml" target="_top" xlink:title="include">
<polygon fill="none" stroke="black" points="77,-36 23,-36 23,-0 77,-0 77,-36"/>
<text text-anchor="middle" x="50" y="-15.5" font-family="Helvetica,sans-Serif" font-size="10.00">include</text>
</a>
</g>
</g>
<!-- dir_f4862fdaf6e04616b4d4384aa0d93e1d&#45;&gt;dir_c46a29a3f6521c422d3477bfa11d561d -->
<g id="edge1" class="edge"><title>dir_f4862fdaf6e04616b4d4384aa0d93e1d&#45;&gt;dir_c46a29a3f6521c422d3477bfa11d561d</title>
<path fill="none" stroke="black" d="M50,-71.6966C50,-63.9827 50,-54.7125 50,-46.1124"/>
<polygon fill="black" stroke="black" points="53.5001,-46.1043 50,-36.1043 46.5001,-46.1044 53.5001,-46.1043"/>
<g id="a_edge1&#45;headlabel"><a xlink:href="dir_000044_000060.xhtml" target="_top" xlink:title="32">
<text text-anchor="middle" x="56.3393" y="-47.199" font-family="Helvetica,sans-Serif" font-size="10.00">32</text>
</a>
</g>
</g>
</g>
</svg>
