<?xml version="1.0" encoding="UTF-8" standalone="no"?>
<!DOCTYPE svg PUBLIC "-//W3C//DTD SVG 1.1//EN"
 "http://www.w3.org/Graphics/SVG/1.1/DTD/svg11.dtd">
<!-- Generated by graphviz version 2.38.0 (20140413.2041)
 -->
<!-- Title: src/hal/x4m0x_s70/libraries/libusb/device/massstorage Pages: 1 -->
<svg width="120pt" height="223pt"
 viewBox="0.00 0.00 120.00 223.00" xmlns="http://www.w3.org/2000/svg" xmlns:xlink="http://www.w3.org/1999/xlink">
<g id="graph0" class="graph" transform="scale(1 1) rotate(0) translate(4 219)">
<title>src/hal/x4m0x_s70/libraries/libusb/device/massstorage</title>
<polygon fill="white" stroke="none" points="-4,4 -4,-219 116,-219 116,4 -4,4"/>
<g id="clust1" class="cluster"><title>clusterdir_d2da8e13eb5c48e27ac81e92e0b056f1</title>
<g id="a_clust1"><a xlink:href="dir_d2da8e13eb5c48e27ac81e92e0b056f1.xhtml" target="_top" xlink:title="device">
<polygon fill="#ddddee" stroke="black" points="8,-136 8,-207 104,-207 104,-136 8,-136"/>
<text text-anchor="middle" x="56" y="-195" font-family="Helvetica,sans-Serif" font-size="10.00">device</text>
</a>
</g>
</g>
<!-- dir_2702c2fb8a9d52ab2ce5363fbdffec02 -->
<g id="node1" class="node"><title>dir_2702c2fb8a9d52ab2ce5363fbdffec02</title>
<g id="a_node1"><a xlink:href="dir_2702c2fb8a9d52ab2ce5363fbdffec02.xhtml" target="_top" xlink:title="massstorage">
<polygon fill="#eeeeff" stroke="black" points="96,-180 16,-180 16,-144 96,-144 96,-180"/>
<text text-anchor="middle" x="56" y="-159.5" font-family="Helvetica,sans-Serif" font-size="10.00">massstorage</text>
</a>
</g>
</g>
<!-- dir_a75a6fe80fd9120ba7dd67a0b33a7bc9 -->
<g id="node2" class="node"><title>dir_a75a6fe80fd9120ba7dd67a0b33a7bc9</title>
<g id="a_node2"><a xlink:href="dir_a75a6fe80fd9120ba7dd67a0b33a7bc9.xhtml" target="_top" xlink:title="libchip">
<polygon fill="white" stroke="red" points="83,-36 29,-36 29,-0 83,-0 83,-36"/>
<text text-anchor="middle" x="56" y="-15.5" font-family="Helvetica,sans-Serif" font-size="10.00">libchip</text>
</a>
</g>
</g>
<!-- dir_2702c2fb8a9d52ab2ce5363fbdffec02&#45;&gt;dir_a75a6fe80fd9120ba7dd67a0b33a7bc9 -->
<g id="edge1" class="edge"><title>dir_2702c2fb8a9d52ab2ce5363fbdffec02&#45;&gt;dir_a75a6fe80fd9120ba7dd67a0b33a7bc9</title>
<path fill="none" stroke="black" d="M52.7517,-143.888C50.9542,-133.542 48.9053,-120.063 48,-108 46.8026,-92.0449 46.8026,-87.9551 48,-72 48.6366,-63.5179 49.8384,-54.3361 51.1208,-46.0356"/>
<polygon fill="black" stroke="black" points="54.5836,-46.5472 52.7517,-36.1119 47.6763,-45.412 54.5836,-46.5472"/>
<g id="a_edge1&#45;headlabel"><a xlink:href="dir_000050_000013.xhtml" target="_top" xlink:title="1">
<text text-anchor="middle" x="56.8024" y="-48.0546" font-family="Helvetica,sans-Serif" font-size="10.00">1</text>
</a>
</g>
</g>
<!-- dir_c46a29a3f6521c422d3477bfa11d561d -->
<g id="node3" class="node"><title>dir_c46a29a3f6521c422d3477bfa11d561d</title>
<g id="a_node3"><a xlink:href="dir_c46a29a3f6521c422d3477bfa11d561d.xhtml" target="_top" xlink:title="include">
<polygon fill="none" stroke="black" points="111,-108 57,-108 57,-72 111,-72 111,-108"/>
<text text-anchor="middle" x="84" y="-87.5" font-family="Helvetica,sans-Serif" font-size="10.00">include</text>
</a>
</g>
</g>
<!-- dir_2702c2fb8a9d52ab2ce5363fbdffec02&#45;&gt;dir_c46a29a3f6521c422d3477bfa11d561d -->
<g id="edge2" class="edge"><title>dir_2702c2fb8a9d52ab2ce5363fbdffec02&#45;&gt;dir_c46a29a3f6521c422d3477bfa11d561d</title>
<path fill="none" stroke="black" d="M62.9214,-143.697C66.0747,-135.813 69.8783,-126.304 73.3814,-117.546"/>
<polygon fill="black" stroke="black" points="76.694,-118.689 77.1583,-108.104 70.1946,-116.089 76.694,-118.689"/>
<g id="a_edge2&#45;headlabel"><a xlink:href="dir_000050_000060.xhtml" target="_top" xlink:title="23">
<text text-anchor="middle" x="77.9952" y="-120.581" font-family="Helvetica,sans-Serif" font-size="10.00">23</text>
</a>
</g>
</g>
<!-- dir_c46a29a3f6521c422d3477bfa11d561d&#45;&gt;dir_a75a6fe80fd9120ba7dd67a0b33a7bc9 -->
<g id="edge3" class="edge"><title>dir_c46a29a3f6521c422d3477bfa11d561d&#45;&gt;dir_a75a6fe80fd9120ba7dd67a0b33a7bc9</title>
<path fill="none" stroke="black" d="M77.0786,-71.6966C73.9253,-63.8132 70.1217,-54.3042 66.6186,-45.5464"/>
<polygon fill="black" stroke="black" points="69.8054,-44.0892 62.8417,-36.1043 63.306,-46.689 69.8054,-44.0892"/>
<g id="a_edge3&#45;headlabel"><a xlink:href="dir_000060_000013.xhtml" target="_top" xlink:title="1">
<text text-anchor="middle" x="73.7765" y="-43.8723" font-family="Helvetica,sans-Serif" font-size="10.00">1</text>
</a>
</g>
</g>
</g>
</svg>
