<?xml version="1.0" encoding="UTF-8" standalone="no"?>
<!DOCTYPE svg PUBLIC "-//W3C//DTD SVG 1.1//EN"
 "http://www.w3.org/Graphics/SVG/1.1/DTD/svg11.dtd">
<!-- Generated by graphviz version 2.38.0 (20140413.2041)
 -->
<!-- Title: src/hal/x4m0x_s70/libraries/libusb/device/hid&#45;keyboard Pages: 1 -->
<svg width="118pt" height="151pt"
 viewBox="0.00 0.00 118.00 151.00" xmlns="http://www.w3.org/2000/svg" xmlns:xlink="http://www.w3.org/1999/xlink">
<g id="graph0" class="graph" transform="scale(1 1) rotate(0) translate(4 147)">
<title>src/hal/x4m0x_s70/libraries/libusb/device/hid&#45;keyboard</title>
<polygon fill="white" stroke="none" points="-4,4 -4,-147 114,-147 114,4 -4,4"/>
<g id="clust1" class="cluster"><title>clusterdir_d2da8e13eb5c48e27ac81e92e0b056f1</title>
<g id="a_clust1"><a xlink:href="dir_d2da8e13eb5c48e27ac81e92e0b056f1.xhtml" target="_top" xlink:title="device">
<polygon fill="#ddddee" stroke="black" points="8,-64 8,-135 102,-135 102,-64 8,-64"/>
<text text-anchor="middle" x="55" y="-123" font-family="Helvetica,sans-Serif" font-size="10.00">device</text>
</a>
</g>
</g>
<!-- dir_169dccb72b6ddbf7b5b07a16f85e4db3 -->
<g id="node1" class="node"><title>dir_169dccb72b6ddbf7b5b07a16f85e4db3</title>
<g id="a_node1"><a xlink:href="dir_169dccb72b6ddbf7b5b07a16f85e4db3.xhtml" target="_top" xlink:title="hid&#45;keyboard">
<polygon fill="#eeeeff" stroke="black" points="94.5,-108 15.5,-108 15.5,-72 94.5,-72 94.5,-108"/>
<text text-anchor="middle" x="55" y="-87.5" font-family="Helvetica,sans-Serif" font-size="10.00">hid&#45;keyboard</text>
</a>
</g>
</g>
<!-- dir_c46a29a3f6521c422d3477bfa11d561d -->
<g id="node2" class="node"><title>dir_c46a29a3f6521c422d3477bfa11d561d</title>
<g id="a_node2"><a xlink:href="dir_c46a29a3f6521c422d3477bfa11d561d.xhtml" target="_top" xlink:title="include">
<polygon fill="none" stroke="black" points="82,-36 28,-36 28,-0 82,-0 82,-36"/>
<text text-anchor="middle" x="55" y="-15.5" font-family="Helvetica,sans-Serif" font-size="10.00">include</text>
</a>
</g>
</g>
<!-- dir_169dccb72b6ddbf7b5b07a16f85e4db3&#45;&gt;dir_c46a29a3f6521c422d3477bfa11d561d -->
<g id="edge1" class="edge"><title>dir_169dccb72b6ddbf7b5b07a16f85e4db3&#45;&gt;dir_c46a29a3f6521c422d3477bfa11d561d</title>
<path fill="none" stroke="black" d="M55,-71.6966C55,-63.9827 55,-54.7125 55,-46.1124"/>
<polygon fill="black" stroke="black" points="58.5001,-46.1043 55,-36.1043 51.5001,-46.1044 58.5001,-46.1043"/>
<g id="a_edge1&#45;headlabel"><a xlink:href="dir_000047_000060.xhtml" target="_top" xlink:title="27">
<text text-anchor="middle" x="61.3393" y="-47.199" font-family="Helvetica,sans-Serif" font-size="10.00">27</text>
</a>
</g>
</g>
</g>
</svg>
