<?xml version="1.0" encoding="UTF-8" standalone="no"?>
<!DOCTYPE svg PUBLIC "-//W3C//DTD SVG 1.1//EN"
 "http://www.w3.org/Graphics/SVG/1.1/DTD/svg11.dtd">
<!-- Generated by graphviz version 2.38.0 (20140413.2041)
 -->
<!-- Title: src/hal/x4m0x_s70 Pages: 1 -->
<svg width="361pt" height="231pt"
 viewBox="0.00 0.00 361.00 231.00" xmlns="http://www.w3.org/2000/svg" xmlns:xlink="http://www.w3.org/1999/xlink">
<g id="graph0" class="graph" transform="scale(1 1) rotate(0) translate(4 227)">
<title>src/hal/x4m0x_s70</title>
<polygon fill="white" stroke="none" points="-4,4 -4,-227 357,-227 357,4 -4,4"/>
<g id="clust1" class="cluster"><title>clusterdir_4ce6a7f885e2866a554ba9e7335035f1</title>
<g id="a_clust1"><a xlink:href="dir_4ce6a7f885e2866a554ba9e7335035f1.xhtml" target="_top" xlink:title="hal">
<polygon fill="#ddddee" stroke="black" points="8,-56 8,-215 264,-215 264,-56 8,-56"/>
<text text-anchor="middle" x="136" y="-203" font-family="Helvetica,sans-Serif" font-size="10.00">hal</text>
</a>
</g>
</g>
<g id="clust2" class="cluster"><title>clusterdir_9dc4d255e566c48428ae1788dff8c9e9</title>
<g id="a_clust2"><a xlink:href="dir_9dc4d255e566c48428ae1788dff8c9e9.xhtml" target="_top">
<polygon fill="#eeeeff" stroke="black" points="16,-64 16,-188 256,-188 256,-64 16,-64"/>
</a>
</g>
</g>
<!-- dir_9dc4d255e566c48428ae1788dff8c9e9 -->
<g id="node1" class="node"><title>dir_9dc4d255e566c48428ae1788dff8c9e9</title>
<text text-anchor="middle" x="212" y="-159.5" font-family="Helvetica,sans-Serif" font-size="10.00">x4m0x_s70</text>
</g>
<!-- dir_ef68f1e1f5148ff8ef7fb1c955106c3c -->
<g id="node5" class="node"><title>dir_ef68f1e1f5148ff8ef7fb1c955106c3c</title>
<g id="a_node5"><a xlink:href="dir_ef68f1e1f5148ff8ef7fb1c955106c3c.xhtml" target="_top" xlink:title="System">
<polygon fill="white" stroke="red" points="326,-108 272,-108 272,-72 326,-72 326,-108"/>
<text text-anchor="middle" x="299" y="-87.5" font-family="Helvetica,sans-Serif" font-size="10.00">System</text>
</a>
</g>
</g>
<!-- dir_9dc4d255e566c48428ae1788dff8c9e9&#45;&gt;dir_ef68f1e1f5148ff8ef7fb1c955106c3c -->
<g id="edge2" class="edge"><title>dir_9dc4d255e566c48428ae1788dff8c9e9&#45;&gt;dir_ef68f1e1f5148ff8ef7fb1c955106c3c</title>
<path fill="none" stroke="black" d="M233.506,-143.697C244.463,-134.881 257.946,-124.032 269.825,-114.474"/>
<polygon fill="black" stroke="black" points="272.145,-117.1 277.742,-108.104 267.756,-111.646 272.145,-117.1"/>
<g id="a_edge2&#45;headlabel"><a xlink:href="dir_000005_000065.xhtml" target="_top" xlink:title="1">
<text text-anchor="middle" x="271.124" y="-119.066" font-family="Helvetica,sans-Serif" font-size="10.00">1</text>
</a>
</g>
</g>
<!-- dir_d44c64559bbebec7f509842c48db8b23 -->
<g id="node6" class="node"><title>dir_d44c64559bbebec7f509842c48db8b23</title>
<g id="a_node6"><a xlink:href="dir_d44c64559bbebec7f509842c48db8b23.xhtml" target="_top" xlink:title="include">
<polygon fill="none" stroke="black" points="353,-36 299,-36 299,-0 353,-0 353,-36"/>
<text text-anchor="middle" x="326" y="-15.5" font-family="Helvetica,sans-Serif" font-size="10.00">include</text>
</a>
</g>
</g>
<!-- dir_9dc4d255e566c48428ae1788dff8c9e9&#45;&gt;dir_d44c64559bbebec7f509842c48db8b23 -->
<g id="edge3" class="edge"><title>dir_9dc4d255e566c48428ae1788dff8c9e9&#45;&gt;dir_d44c64559bbebec7f509842c48db8b23</title>
<path fill="none" stroke="black" d="M247.651,-156.31C276.635,-150.413 315.764,-137.234 335,-108 347.012,-89.7447 343.1,-64.6691 337.14,-45.786"/>
<polygon fill="black" stroke="black" points="340.42,-44.5602 333.809,-36.2804 333.813,-46.8752 340.42,-44.5602"/>
<g id="a_edge3&#45;headlabel"><a xlink:href="dir_000005_000000.xhtml" target="_top" xlink:title="24">
<text text-anchor="middle" x="344.288" y="-44.5135" font-family="Helvetica,sans-Serif" font-size="10.00">24</text>
</a>
</g>
</g>
<!-- dir_8cb1f367fa8e9c71313148ce68981c88 -->
<g id="node2" class="node"><title>dir_8cb1f367fa8e9c71313148ce68981c88</title>
<g id="a_node2"><a xlink:href="dir_8cb1f367fa8e9c71313148ce68981c88.xhtml" target="_top" xlink:title="FreeRTOS">
<polygon fill="white" stroke="black" points="158,-180 96,-180 96,-144 158,-144 158,-180"/>
<text text-anchor="middle" x="127" y="-159.5" font-family="Helvetica,sans-Serif" font-size="10.00">FreeRTOS</text>
</a>
</g>
</g>
<!-- dir_75c70effab526b28e035b6c6a3220eb7 -->
<g id="node3" class="node"><title>dir_75c70effab526b28e035b6c6a3220eb7</title>
<g id="a_node3"><a xlink:href="dir_75c70effab526b28e035b6c6a3220eb7.xhtml" target="_top" xlink:title="libraries">
<polygon fill="white" stroke="red" points="78,-180 24,-180 24,-144 78,-144 78,-180"/>
<text text-anchor="middle" x="51" y="-159.5" font-family="Helvetica,sans-Serif" font-size="10.00">libraries</text>
</a>
</g>
</g>
<!-- dir_b1319e8f428daa0564aada829adff08d -->
<g id="node4" class="node"><title>dir_b1319e8f428daa0564aada829adff08d</title>
<g id="a_node4"><a xlink:href="dir_b1319e8f428daa0564aada829adff08d.xhtml" target="_top" xlink:title="utils">
<polygon fill="white" stroke="red" points="78,-108 24,-108 24,-72 78,-72 78,-108"/>
<text text-anchor="middle" x="51" y="-87.5" font-family="Helvetica,sans-Serif" font-size="10.00">utils</text>
</a>
</g>
</g>
<!-- dir_75c70effab526b28e035b6c6a3220eb7&#45;&gt;dir_b1319e8f428daa0564aada829adff08d -->
<g id="edge4" class="edge"><title>dir_75c70effab526b28e035b6c6a3220eb7&#45;&gt;dir_b1319e8f428daa0564aada829adff08d</title>
<path fill="none" stroke="black" d="M45.0843,-143.697C44.2886,-135.983 44.0621,-126.712 44.4047,-118.112"/>
<polygon fill="black" stroke="black" points="47.8984,-118.324 45.105,-108.104 40.9154,-117.836 47.8984,-118.324"/>
<g id="a_edge4&#45;headlabel"><a xlink:href="dir_000007_000061.xhtml" target="_top" xlink:title="3">
<text text-anchor="middle" x="50.4799" y="-119.608" font-family="Helvetica,sans-Serif" font-size="10.00">3</text>
</a>
</g>
</g>
<!-- dir_b1319e8f428daa0564aada829adff08d&#45;&gt;dir_75c70effab526b28e035b6c6a3220eb7 -->
<g id="edge5" class="edge"><title>dir_b1319e8f428daa0564aada829adff08d&#45;&gt;dir_75c70effab526b28e035b6c6a3220eb7</title>
<path fill="none" stroke="black" d="M56.895,-108.104C57.7005,-115.791 57.9369,-125.054 57.604,-133.665"/>
<polygon fill="black" stroke="black" points="54.1085,-133.48 56.9157,-143.697 61.0921,-133.96 54.1085,-133.48"/>
<g id="a_edge5&#45;headlabel"><a xlink:href="dir_000061_000007.xhtml" target="_top" xlink:title="2">
<text text-anchor="middle" x="51.5219" y="-127.2" font-family="Helvetica,sans-Serif" font-size="10.00">2</text>
</a>
</g>
</g>
<!-- dir_ef68f1e1f5148ff8ef7fb1c955106c3c&#45;&gt;dir_d44c64559bbebec7f509842c48db8b23 -->
<g id="edge1" class="edge"><title>dir_ef68f1e1f5148ff8ef7fb1c955106c3c&#45;&gt;dir_d44c64559bbebec7f509842c48db8b23</title>
<path fill="none" stroke="black" d="M305.674,-71.6966C308.715,-63.8132 312.383,-54.3042 315.761,-45.5464"/>
<polygon fill="black" stroke="black" points="319.069,-46.6939 319.403,-36.1043 312.538,-44.1748 319.069,-46.6939"/>
<g id="a_edge1&#45;headlabel"><a xlink:href="dir_000065_000000.xhtml" target="_top" xlink:title="16">
<text text-anchor="middle" x="320.425" y="-48.5695" font-family="Helvetica,sans-Serif" font-size="10.00">16</text>
</a>
</g>
</g>
</g>
</svg>
