<?xml version="1.0" encoding="UTF-8" standalone="no"?>
<!DOCTYPE svg PUBLIC "-//W3C//DTD SVG 1.1//EN"
 "http://www.w3.org/Graphics/SVG/1.1/DTD/svg11.dtd">
<!-- Generated by graphviz version 2.38.0 (20140413.2041)
 -->
<!-- Title: src/hal/x4m0x_s70/libraries/libusb/host/hid/mouse Pages: 1 -->
<svg width="133pt" height="295pt"
 viewBox="0.00 0.00 133.00 295.00" xmlns="http://www.w3.org/2000/svg" xmlns:xlink="http://www.w3.org/1999/xlink">
<g id="graph0" class="graph" transform="scale(1 1) rotate(0) translate(4 291)">
<title>src/hal/x4m0x_s70/libraries/libusb/host/hid/mouse</title>
<polygon fill="white" stroke="none" points="-4,4 -4,-291 129,-291 129,4 -4,4"/>
<g id="clust1" class="cluster"><title>clusterdir_fd35eab87366203983cc18ad132d93ad</title>
<g id="a_clust1"><a xlink:href="dir_fd35eab87366203983cc18ad132d93ad.xhtml" target="_top" xlink:title="hid">
<polygon fill="#ddddee" stroke="black" points="8,-208 8,-279 78,-279 78,-208 8,-208"/>
<text text-anchor="middle" x="43" y="-267" font-family="Helvetica,sans-Serif" font-size="10.00">hid</text>
</a>
</g>
</g>
<!-- dir_cbc0a1da7e3d3eb0da194d44c0dfdda3 -->
<g id="node1" class="node"><title>dir_cbc0a1da7e3d3eb0da194d44c0dfdda3</title>
<g id="a_node1"><a xlink:href="dir_cbc0a1da7e3d3eb0da194d44c0dfdda3.xhtml" target="_top" xlink:title="mouse">
<polygon fill="#eeeeff" stroke="black" points="70,-252 16,-252 16,-216 70,-216 70,-252"/>
<text text-anchor="middle" x="43" y="-231.5" font-family="Helvetica,sans-Serif" font-size="10.00">mouse</text>
</a>
</g>
</g>
<!-- dir_a75a6fe80fd9120ba7dd67a0b33a7bc9 -->
<g id="node2" class="node"><title>dir_a75a6fe80fd9120ba7dd67a0b33a7bc9</title>
<g id="a_node2"><a xlink:href="dir_a75a6fe80fd9120ba7dd67a0b33a7bc9.xhtml" target="_top" xlink:title="libchip">
<polygon fill="white" stroke="red" points="59,-36 5,-36 5,-0 59,-0 59,-36"/>
<text text-anchor="middle" x="32" y="-15.5" font-family="Helvetica,sans-Serif" font-size="10.00">libchip</text>
</a>
</g>
</g>
<!-- dir_cbc0a1da7e3d3eb0da194d44c0dfdda3&#45;&gt;dir_a75a6fe80fd9120ba7dd67a0b33a7bc9 -->
<g id="edge3" class="edge"><title>dir_cbc0a1da7e3d3eb0da194d44c0dfdda3&#45;&gt;dir_a75a6fe80fd9120ba7dd67a0b33a7bc9</title>
<path fill="none" stroke="black" d="M38.7448,-215.655C32.0149,-186.199 20.0612,-124.484 24,-72 24.6366,-63.5179 25.8384,-54.3361 27.1208,-46.0356"/>
<polygon fill="black" stroke="black" points="30.5836,-46.5472 28.7517,-36.1119 23.6763,-45.412 30.5836,-46.5472"/>
<g id="a_edge3&#45;headlabel"><a xlink:href="dir_000055_000013.xhtml" target="_top" xlink:title="2">
<text text-anchor="middle" x="32.8024" y="-48.0546" font-family="Helvetica,sans-Serif" font-size="10.00">2</text>
</a>
</g>
</g>
<!-- dir_c46a29a3f6521c422d3477bfa11d561d -->
<g id="node3" class="node"><title>dir_c46a29a3f6521c422d3477bfa11d561d</title>
<g id="a_node3"><a xlink:href="dir_c46a29a3f6521c422d3477bfa11d561d.xhtml" target="_top" xlink:title="include">
<polygon fill="none" stroke="black" points="87,-108 33,-108 33,-72 87,-72 87,-108"/>
<text text-anchor="middle" x="60" y="-87.5" font-family="Helvetica,sans-Serif" font-size="10.00">include</text>
</a>
</g>
</g>
<!-- dir_cbc0a1da7e3d3eb0da194d44c0dfdda3&#45;&gt;dir_c46a29a3f6521c422d3477bfa11d561d -->
<g id="edge4" class="edge"><title>dir_cbc0a1da7e3d3eb0da194d44c0dfdda3&#45;&gt;dir_c46a29a3f6521c422d3477bfa11d561d</title>
<path fill="none" stroke="black" d="M45.0506,-215.871C47.9479,-191.67 53.2705,-147.211 56.7205,-118.393"/>
<polygon fill="black" stroke="black" points="60.2285,-118.534 57.9421,-108.189 53.2782,-117.702 60.2285,-118.534"/>
<g id="a_edge4&#45;headlabel"><a xlink:href="dir_000055_000060.xhtml" target="_top" xlink:title="1">
<text text-anchor="middle" x="62.6205" y="-119.941" font-family="Helvetica,sans-Serif" font-size="10.00">1</text>
</a>
</g>
</g>
<!-- dir_3eadff0e6699eea8297c2cb79a55960f -->
<g id="node4" class="node"><title>dir_3eadff0e6699eea8297c2cb79a55960f</title>
<g id="a_node4"><a xlink:href="dir_3eadff0e6699eea8297c2cb79a55960f.xhtml" target="_top" xlink:title="core">
<polygon fill="none" stroke="black" points="125,-180 71,-180 71,-144 125,-144 125,-180"/>
<text text-anchor="middle" x="98" y="-159.5" font-family="Helvetica,sans-Serif" font-size="10.00">core</text>
</a>
</g>
</g>
<!-- dir_cbc0a1da7e3d3eb0da194d44c0dfdda3&#45;&gt;dir_3eadff0e6699eea8297c2cb79a55960f -->
<g id="edge5" class="edge"><title>dir_cbc0a1da7e3d3eb0da194d44c0dfdda3&#45;&gt;dir_3eadff0e6699eea8297c2cb79a55960f</title>
<path fill="none" stroke="black" d="M56.5955,-215.697C63.1227,-207.389 71.068,-197.277 78.2466,-188.141"/>
<polygon fill="black" stroke="black" points="81.1347,-190.13 84.5609,-180.104 75.6305,-185.805 81.1347,-190.13"/>
<g id="a_edge5&#45;headlabel"><a xlink:href="dir_000055_000053.xhtml" target="_top" xlink:title="3">
<text text-anchor="middle" x="81.1465" y="-192.211" font-family="Helvetica,sans-Serif" font-size="10.00">3</text>
</a>
</g>
</g>
<!-- dir_c46a29a3f6521c422d3477bfa11d561d&#45;&gt;dir_a75a6fe80fd9120ba7dd67a0b33a7bc9 -->
<g id="edge1" class="edge"><title>dir_c46a29a3f6521c422d3477bfa11d561d&#45;&gt;dir_a75a6fe80fd9120ba7dd67a0b33a7bc9</title>
<path fill="none" stroke="black" d="M53.0786,-71.6966C49.9253,-63.8132 46.1217,-54.3042 42.6186,-45.5464"/>
<polygon fill="black" stroke="black" points="45.8054,-44.0892 38.8417,-36.1043 39.306,-46.689 45.8054,-44.0892"/>
<g id="a_edge1&#45;headlabel"><a xlink:href="dir_000060_000013.xhtml" target="_top" xlink:title="1">
<text text-anchor="middle" x="49.7765" y="-43.8723" font-family="Helvetica,sans-Serif" font-size="10.00">1</text>
</a>
</g>
</g>
<!-- dir_3eadff0e6699eea8297c2cb79a55960f&#45;&gt;dir_c46a29a3f6521c422d3477bfa11d561d -->
<g id="edge2" class="edge"><title>dir_3eadff0e6699eea8297c2cb79a55960f&#45;&gt;dir_c46a29a3f6521c422d3477bfa11d561d</title>
<path fill="none" stroke="black" d="M88.6067,-143.697C84.2351,-135.644 78.9427,-125.894 74.1047,-116.982"/>
<polygon fill="black" stroke="black" points="77.1322,-115.223 69.2852,-108.104 70.9802,-118.563 77.1322,-115.223"/>
<g id="a_edge2&#45;headlabel"><a xlink:href="dir_000053_000060.xhtml" target="_top" xlink:title="2">
<text text-anchor="middle" x="81.3424" y="-114.528" font-family="Helvetica,sans-Serif" font-size="10.00">2</text>
</a>
</g>
</g>
</g>
</svg>
