<?xml version="1.0" encoding="UTF-8" standalone="no"?>
<!DOCTYPE svg PUBLIC "-//W3C//DTD SVG 1.1//EN"
 "http://www.w3.org/Graphics/SVG/1.1/DTD/svg11.dtd">
<!-- Generated by graphviz version 2.38.0 (20140413.2041)
 -->
<!-- Title: src/hal/x4m0x_s70/libraries/libboard/resources_X4M0x/gcc Pages: 1 -->
<svg width="125pt" height="151pt"
 viewBox="0.00 0.00 125.00 151.00" xmlns="http://www.w3.org/2000/svg" xmlns:xlink="http://www.w3.org/1999/xlink">
<g id="graph0" class="graph" transform="scale(1 1) rotate(0) translate(4 147)">
<title>src/hal/x4m0x_s70/libraries/libboard/resources_X4M0x/gcc</title>
<polygon fill="white" stroke="none" points="-4,4 -4,-147 121,-147 121,4 -4,4"/>
<g id="clust1" class="cluster"><title>clusterdir_0e65cb4392d69740acacfc8a5e597e22</title>
<g id="a_clust1"><a xlink:href="dir_0e65cb4392d69740acacfc8a5e597e22.xhtml" target="_top" xlink:title="resources_X4M0x">
<polygon fill="#ddddee" stroke="black" points="8,-64 8,-135 109,-135 109,-64 8,-64"/>
<text text-anchor="middle" x="58.5" y="-123" font-family="Helvetica,sans-Serif" font-size="10.00">resources_X4M0x</text>
</a>
</g>
</g>
<!-- dir_49c89e66910ce77fe98400a90d82c864 -->
<g id="node1" class="node"><title>dir_49c89e66910ce77fe98400a90d82c864</title>
<g id="a_node1"><a xlink:href="dir_49c89e66910ce77fe98400a90d82c864.xhtml" target="_top" xlink:title="gcc">
<polygon fill="#eeeeff" stroke="black" points="85,-108 31,-108 31,-72 85,-72 85,-108"/>
<text text-anchor="middle" x="58" y="-87.5" font-family="Helvetica,sans-Serif" font-size="10.00">gcc</text>
</a>
</g>
</g>
<!-- dir_a75a6fe80fd9120ba7dd67a0b33a7bc9 -->
<g id="node2" class="node"><title>dir_a75a6fe80fd9120ba7dd67a0b33a7bc9</title>
<g id="a_node2"><a xlink:href="dir_a75a6fe80fd9120ba7dd67a0b33a7bc9.xhtml" target="_top" xlink:title="libchip">
<polygon fill="white" stroke="red" points="85,-36 31,-36 31,-0 85,-0 85,-36"/>
<text text-anchor="middle" x="58" y="-15.5" font-family="Helvetica,sans-Serif" font-size="10.00">libchip</text>
</a>
</g>
</g>
<!-- dir_49c89e66910ce77fe98400a90d82c864&#45;&gt;dir_a75a6fe80fd9120ba7dd67a0b33a7bc9 -->
<g id="edge1" class="edge"><title>dir_49c89e66910ce77fe98400a90d82c864&#45;&gt;dir_a75a6fe80fd9120ba7dd67a0b33a7bc9</title>
<path fill="none" stroke="black" d="M58,-71.6966C58,-63.9827 58,-54.7125 58,-46.1124"/>
<polygon fill="black" stroke="black" points="61.5001,-46.1043 58,-36.1043 54.5001,-46.1044 61.5001,-46.1043"/>
<g id="a_edge1&#45;headlabel"><a xlink:href="dir_000011_000013.xhtml" target="_top" xlink:title="1">
<text text-anchor="middle" x="64.3393" y="-47.199" font-family="Helvetica,sans-Serif" font-size="10.00">1</text>
</a>
</g>
</g>
</g>
</svg>
