<?xml version="1.0" encoding="UTF-8" standalone="no"?>
<!DOCTYPE svg PUBLIC "-//W3C//DTD SVG 1.1//EN"
 "http://www.w3.org/Graphics/SVG/1.1/DTD/svg11.dtd">
<!-- Generated by graphviz version 2.38.0 (20140413.2041)
 -->
<!-- Title: src Pages: 1 -->
<svg width="388pt" height="420pt"
 viewBox="0.00 0.00 388.00 420.00" xmlns="http://www.w3.org/2000/svg" xmlns:xlink="http://www.w3.org/1999/xlink">
<g id="graph0" class="graph" transform="scale(1 1) rotate(0) translate(4 416)">
<title>src</title>
<polygon fill="white" stroke="none" points="-4,4 -4,-416 384,-416 384,4 -4,4"/>
<g id="clust1" class="cluster"><title>clusterdir_68267d1309a1af8e8297ef4c3efbcdba</title>
<g id="a_clust1"><a xlink:href="dir_68267d1309a1af8e8297ef4c3efbcdba.xhtml" target="_top">
<polygon fill="#eeeeff" stroke="black" points="8,-64 8,-404 322,-404 322,-64 8,-64"/>
</a>
</g>
</g>
<!-- dir_68267d1309a1af8e8297ef4c3efbcdba -->
<g id="node1" class="node"><title>dir_68267d1309a1af8e8297ef4c3efbcdba</title>
<text text-anchor="middle" x="113" y="-375.5" font-family="Helvetica,sans-Serif" font-size="10.00">src</text>
</g>
<!-- dir_92f2e62c87211f56f43ead1760722699 -->
<g id="node4" class="node"><title>dir_92f2e62c87211f56f43ead1760722699</title>
<g id="a_node4"><a xlink:href="dir_92f2e62c87211f56f43ead1760722699.xhtml" target="_top" xlink:title="HostCom">
<polygon fill="white" stroke="black" points="98,-252 36,-252 36,-216 98,-216 98,-252"/>
<text text-anchor="middle" x="67" y="-231.5" font-family="Helvetica,sans-Serif" font-size="10.00">HostCom</text>
</a>
</g>
</g>
<!-- dir_68267d1309a1af8e8297ef4c3efbcdba&#45;&gt;dir_92f2e62c87211f56f43ead1760722699 -->
<g id="edge6" class="edge"><title>dir_68267d1309a1af8e8297ef4c3efbcdba&#45;&gt;dir_92f2e62c87211f56f43ead1760722699</title>
<path fill="none" stroke="black" d="M97.973,-359.576C90.3807,-349.775 81.7849,-336.936 77,-324 69.6846,-304.222 67.3136,-280.422 66.7013,-262.411"/>
<polygon fill="black" stroke="black" points="70.1987,-262.227 66.5193,-252.292 63.1998,-262.353 70.1987,-262.227"/>
<g id="a_edge6&#45;headlabel"><a xlink:href="dir_000001_000063.xhtml" target="_top" xlink:title="1">
<text text-anchor="middle" x="73.102" y="-263.27" font-family="Helvetica,sans-Serif" font-size="10.00">1</text>
</a>
</g>
</g>
<!-- dir_ac6ba0d187fcf0f3dc430aa0cf244721 -->
<g id="node5" class="node"><title>dir_ac6ba0d187fcf0f3dc430aa0cf244721</title>
<g id="a_node5"><a xlink:href="dir_ac6ba0d187fcf0f3dc430aa0cf244721.xhtml" target="_top" xlink:title="Radar">
<polygon fill="white" stroke="black" points="170,-252 116,-252 116,-216 170,-216 170,-252"/>
<text text-anchor="middle" x="143" y="-231.5" font-family="Helvetica,sans-Serif" font-size="10.00">Radar</text>
</a>
</g>
</g>
<!-- dir_68267d1309a1af8e8297ef4c3efbcdba&#45;&gt;dir_ac6ba0d187fcf0f3dc430aa0cf244721 -->
<g id="edge7" class="edge"><title>dir_68267d1309a1af8e8297ef4c3efbcdba&#45;&gt;dir_ac6ba0d187fcf0f3dc430aa0cf244721</title>
<path fill="none" stroke="black" d="M128.61,-359.774C136.373,-350.03 144.946,-337.184 149,-324 155.202,-303.831 153.102,-279.918 149.781,-261.961"/>
<polygon fill="black" stroke="black" points="153.203,-261.227 147.738,-252.15 146.35,-262.654 153.203,-261.227"/>
<g id="a_edge7&#45;headlabel"><a xlink:href="dir_000001_000064.xhtml" target="_top" xlink:title="2">
<text text-anchor="middle" x="156.716" y="-261.667" font-family="Helvetica,sans-Serif" font-size="10.00">2</text>
</a>
</g>
</g>
<!-- dir_3d72ae7acc3fa3714915f4b435e4bc99 -->
<g id="node9" class="node"><title>dir_3d72ae7acc3fa3714915f4b435e4bc99</title>
<g id="a_node9"><a xlink:href="dir_3d72ae7acc3fa3714915f4b435e4bc99.xhtml" target="_top" xlink:title="XEPA">
<polygon fill="white" stroke="black" points="140,-324 86,-324 86,-288 140,-288 140,-324"/>
<text text-anchor="middle" x="113" y="-303.5" font-family="Helvetica,sans-Serif" font-size="10.00">XEPA</text>
</a>
</g>
</g>
<!-- dir_68267d1309a1af8e8297ef4c3efbcdba&#45;&gt;dir_3d72ae7acc3fa3714915f4b435e4bc99 -->
<g id="edge5" class="edge"><title>dir_68267d1309a1af8e8297ef4c3efbcdba&#45;&gt;dir_3d72ae7acc3fa3714915f4b435e4bc99</title>
<path fill="none" stroke="black" d="M113,-359.697C113,-351.983 113,-342.712 113,-334.112"/>
<polygon fill="black" stroke="black" points="116.5,-334.104 113,-324.104 109.5,-334.104 116.5,-334.104"/>
<g id="a_edge5&#45;headlabel"><a xlink:href="dir_000001_000070.xhtml" target="_top" xlink:title="1">
<text text-anchor="middle" x="119.339" y="-335.199" font-family="Helvetica,sans-Serif" font-size="10.00">1</text>
</a>
</g>
</g>
<!-- dir_fa065129d71849fdf8127d6268df0818 -->
<g id="node2" class="node"><title>dir_fa065129d71849fdf8127d6268df0818</title>
<g id="a_node2"><a xlink:href="dir_fa065129d71849fdf8127d6268df0818.xhtml" target="_top" xlink:title="Dispatch">
<polygon fill="white" stroke="black" points="313.5,-396 254.5,-396 254.5,-360 313.5,-360 313.5,-396"/>
<text text-anchor="middle" x="284" y="-375.5" font-family="Helvetica,sans-Serif" font-size="10.00">Dispatch</text>
</a>
</g>
</g>
<!-- dir_d44c64559bbebec7f509842c48db8b23 -->
<g id="node10" class="node"><title>dir_d44c64559bbebec7f509842c48db8b23</title>
<g id="a_node10"><a xlink:href="dir_d44c64559bbebec7f509842c48db8b23.xhtml" target="_top" xlink:title="include">
<polygon fill="none" stroke="black" points="272,-36 218,-36 218,-0 272,-0 272,-36"/>
<text text-anchor="middle" x="245" y="-15.5" font-family="Helvetica,sans-Serif" font-size="10.00">include</text>
</a>
</g>
</g>
<!-- dir_fa065129d71849fdf8127d6268df0818&#45;&gt;dir_d44c64559bbebec7f509842c48db8b23 -->
<g id="edge8" class="edge"><title>dir_fa065129d71849fdf8127d6268df0818&#45;&gt;dir_d44c64559bbebec7f509842c48db8b23</title>
<path fill="none" stroke="black" d="M305.784,-359.826C334.108,-335.39 380,-287.672 380,-235 380,-235 380,-235 380,-161 380,-103.565 321.272,-60.1209 281.286,-37.1973"/>
<polygon fill="black" stroke="black" points="282.761,-34.013 272.319,-32.2171 279.362,-40.1324 282.761,-34.013"/>
<g id="a_edge8&#45;headlabel"><a xlink:href="dir_000002_000000.xhtml" target="_top" xlink:title="7">
<text text-anchor="middle" x="287.282" y="-30.7763" font-family="Helvetica,sans-Serif" font-size="10.00">7</text>
</a>
</g>
</g>
<!-- dir_4ce6a7f885e2866a554ba9e7335035f1 -->
<g id="node3" class="node"><title>dir_4ce6a7f885e2866a554ba9e7335035f1</title>
<g id="a_node3"><a xlink:href="dir_4ce6a7f885e2866a554ba9e7335035f1.xhtml" target="_top" xlink:title="hal">
<polygon fill="white" stroke="red" points="160,-180 106,-180 106,-144 160,-144 160,-180"/>
<text text-anchor="middle" x="133" y="-159.5" font-family="Helvetica,sans-Serif" font-size="10.00">hal</text>
</a>
</g>
</g>
<!-- dir_ef68f1e1f5148ff8ef7fb1c955106c3c -->
<g id="node6" class="node"><title>dir_ef68f1e1f5148ff8ef7fb1c955106c3c</title>
<g id="a_node6"><a xlink:href="dir_ef68f1e1f5148ff8ef7fb1c955106c3c.xhtml" target="_top" xlink:title="System">
<polygon fill="white" stroke="red" points="116,-108 62,-108 62,-72 116,-72 116,-108"/>
<text text-anchor="middle" x="89" y="-87.5" font-family="Helvetica,sans-Serif" font-size="10.00">System</text>
</a>
</g>
</g>
<!-- dir_4ce6a7f885e2866a554ba9e7335035f1&#45;&gt;dir_ef68f1e1f5148ff8ef7fb1c955106c3c -->
<g id="edge9" class="edge"><title>dir_4ce6a7f885e2866a554ba9e7335035f1&#45;&gt;dir_ef68f1e1f5148ff8ef7fb1c955106c3c</title>
<path fill="none" stroke="black" d="M116.208,-143.697C110.315,-135.644 103.977,-125.894 98.785,-116.982"/>
<polygon fill="black" stroke="black" points="101.77,-115.149 93.8563,-108.104 95.65,-118.546 101.77,-115.149"/>
<g id="a_edge9&#45;headlabel"><a xlink:href="dir_000003_000065.xhtml" target="_top" xlink:title="1">
<text text-anchor="middle" x="105.997" y="-114.413" font-family="Helvetica,sans-Serif" font-size="10.00">1</text>
</a>
</g>
</g>
<!-- dir_4ce6a7f885e2866a554ba9e7335035f1&#45;&gt;dir_d44c64559bbebec7f509842c48db8b23 -->
<g id="edge10" class="edge"><title>dir_4ce6a7f885e2866a554ba9e7335035f1&#45;&gt;dir_d44c64559bbebec7f509842c48db8b23</title>
<path fill="none" stroke="black" d="M136.874,-143.909C142.286,-123.12 153.79,-87.8533 174,-64 183.565,-52.7106 196.691,-43.3049 209.056,-36.0618"/>
<polygon fill="black" stroke="black" points="210.818,-39.0866 217.864,-31.1738 207.422,-32.966 210.818,-39.0866"/>
<g id="a_edge10&#45;headlabel"><a xlink:href="dir_000003_000000.xhtml" target="_top" xlink:title="27">
<text text-anchor="middle" x="209.053" y="-40.8134" font-family="Helvetica,sans-Serif" font-size="10.00">27</text>
</a>
</g>
</g>
<!-- dir_92f2e62c87211f56f43ead1760722699&#45;&gt;dir_4ce6a7f885e2866a554ba9e7335035f1 -->
<g id="edge17" class="edge"><title>dir_92f2e62c87211f56f43ead1760722699&#45;&gt;dir_4ce6a7f885e2866a554ba9e7335035f1</title>
<path fill="none" stroke="black" d="M83.3146,-215.697C91.307,-207.22 101.072,-196.864 109.822,-187.583"/>
<polygon fill="black" stroke="black" points="112.559,-189.781 116.873,-180.104 107.466,-184.979 112.559,-189.781"/>
<g id="a_edge17&#45;headlabel"><a xlink:href="dir_000063_000003.xhtml" target="_top" xlink:title="2">
<text text-anchor="middle" x="112.159" y="-191.844" font-family="Helvetica,sans-Serif" font-size="10.00">2</text>
</a>
</g>
</g>
<!-- dir_92f2e62c87211f56f43ead1760722699&#45;&gt;dir_ef68f1e1f5148ff8ef7fb1c955106c3c -->
<g id="edge16" class="edge"><title>dir_92f2e62c87211f56f43ead1760722699&#45;&gt;dir_ef68f1e1f5148ff8ef7fb1c955106c3c</title>
<path fill="none" stroke="black" d="M69.6537,-215.871C73.4032,-191.67 80.2913,-147.211 84.756,-118.393"/>
<polygon fill="black" stroke="black" points="88.2645,-118.607 86.3369,-108.189 81.347,-117.535 88.2645,-118.607"/>
<g id="a_edge16&#45;headlabel"><a xlink:href="dir_000063_000065.xhtml" target="_top" xlink:title="1">
<text text-anchor="middle" x="90.52" y="-120.094" font-family="Helvetica,sans-Serif" font-size="10.00">1</text>
</a>
</g>
</g>
<!-- dir_92f2e62c87211f56f43ead1760722699&#45;&gt;dir_d44c64559bbebec7f509842c48db8b23 -->
<g id="edge18" class="edge"><title>dir_92f2e62c87211f56f43ead1760722699&#45;&gt;dir_d44c64559bbebec7f509842c48db8b23</title>
<path fill="none" stroke="black" d="M98.1071,-219.507C124.047,-207.782 158.413,-190.999 169,-180 188.662,-159.573 219.172,-85.7435 234.886,-45.5393"/>
<polygon fill="black" stroke="black" points="238.196,-46.6843 238.547,-36.0953 231.669,-44.1544 238.196,-46.6843"/>
<g id="a_edge18&#45;headlabel"><a xlink:href="dir_000063_000000.xhtml" target="_top" xlink:title="7">
<text text-anchor="middle" x="239.544" y="-48.5621" font-family="Helvetica,sans-Serif" font-size="10.00">7</text>
</a>
</g>
</g>
<!-- dir_ac6ba0d187fcf0f3dc430aa0cf244721&#45;&gt;dir_4ce6a7f885e2866a554ba9e7335035f1 -->
<g id="edge20" class="edge"><title>dir_ac6ba0d187fcf0f3dc430aa0cf244721&#45;&gt;dir_4ce6a7f885e2866a554ba9e7335035f1</title>
<path fill="none" stroke="black" d="M140.528,-215.697C139.426,-207.983 138.102,-198.712 136.873,-190.112"/>
<polygon fill="black" stroke="black" points="140.323,-189.509 135.443,-180.104 133.393,-190.499 140.323,-189.509"/>
<g id="a_edge20&#45;headlabel"><a xlink:href="dir_000064_000003.xhtml" target="_top" xlink:title="3">
<text text-anchor="middle" x="143.642" y="-190.166" font-family="Helvetica,sans-Serif" font-size="10.00">3</text>
</a>
</g>
</g>
<!-- dir_ac6ba0d187fcf0f3dc430aa0cf244721&#45;&gt;dir_ef68f1e1f5148ff8ef7fb1c955106c3c -->
<g id="edge19" class="edge"><title>dir_ac6ba0d187fcf0f3dc430aa0cf244721&#45;&gt;dir_ef68f1e1f5148ff8ef7fb1c955106c3c</title>
<path fill="none" stroke="black" d="M123.167,-215.881C113.539,-206.356 102.819,-193.678 97,-180 88.713,-160.521 86.9874,-136.521 87.1829,-118.355"/>
<polygon fill="black" stroke="black" points="90.6876,-118.254 87.498,-108.151 83.6909,-118.038 90.6876,-118.254"/>
<g id="a_edge19&#45;headlabel"><a xlink:href="dir_000064_000065.xhtml" target="_top" xlink:title="1">
<text text-anchor="middle" x="93.4147" y="-119.434" font-family="Helvetica,sans-Serif" font-size="10.00">1</text>
</a>
</g>
</g>
<!-- dir_ac6ba0d187fcf0f3dc430aa0cf244721&#45;&gt;dir_d44c64559bbebec7f509842c48db8b23 -->
<g id="edge21" class="edge"><title>dir_ac6ba0d187fcf0f3dc430aa0cf244721&#45;&gt;dir_d44c64559bbebec7f509842c48db8b23</title>
<path fill="none" stroke="black" d="M167.95,-215.946C179.861,-206.612 193.364,-194.087 202,-180 227.924,-137.713 238.411,-79.8557 242.51,-46.2496"/>
<polygon fill="black" stroke="black" points="245.996,-46.5679 243.628,-36.2411 239.04,-45.7907 245.996,-46.5679"/>
<g id="a_edge21&#45;headlabel"><a xlink:href="dir_000064_000000.xhtml" target="_top" xlink:title="6">
<text text-anchor="middle" x="248.419" y="-47.9555" font-family="Helvetica,sans-Serif" font-size="10.00">6</text>
</a>
</g>
</g>
<!-- dir_ef68f1e1f5148ff8ef7fb1c955106c3c&#45;&gt;dir_4ce6a7f885e2866a554ba9e7335035f1 -->
<g id="edge3" class="edge"><title>dir_ef68f1e1f5148ff8ef7fb1c955106c3c&#45;&gt;dir_4ce6a7f885e2866a554ba9e7335035f1</title>
<path fill="none" stroke="black" d="M105.646,-108.104C111.531,-116.129 117.875,-125.871 123.086,-134.797"/>
<polygon fill="black" stroke="black" points="120.118,-136.661 128.039,-143.697 126.235,-133.257 120.118,-136.661"/>
<g id="a_edge3&#45;headlabel"><a xlink:href="dir_000065_000003.xhtml" target="_top" xlink:title="2">
<text text-anchor="middle" x="115.889" y="-132.401" font-family="Helvetica,sans-Serif" font-size="10.00">2</text>
</a>
</g>
</g>
<!-- dir_ef68f1e1f5148ff8ef7fb1c955106c3c&#45;&gt;dir_d44c64559bbebec7f509842c48db8b23 -->
<g id="edge4" class="edge"><title>dir_ef68f1e1f5148ff8ef7fb1c955106c3c&#45;&gt;dir_d44c64559bbebec7f509842c48db8b23</title>
<path fill="none" stroke="black" d="M116.327,-73.1232C122.096,-69.9687 128.195,-66.7764 134,-64 158.239,-52.4069 186.287,-41.0527 208.124,-32.6496"/>
<polygon fill="black" stroke="black" points="209.587,-35.838 217.685,-29.0062 207.094,-29.2969 209.587,-35.838"/>
<g id="a_edge4&#45;headlabel"><a xlink:href="dir_000065_000000.xhtml" target="_top" xlink:title="16">
<text text-anchor="middle" x="207.239" y="-37.2711" font-family="Helvetica,sans-Serif" font-size="10.00">16</text>
</a>
</g>
</g>
<!-- dir_b90d73d79b67ccd72c2aaf78972ad885 -->
<g id="node7" class="node"><title>dir_b90d73d79b67ccd72c2aaf78972ad885</title>
<g id="a_node7"><a xlink:href="dir_b90d73d79b67ccd72c2aaf78972ad885.xhtml" target="_top" xlink:title="Tools">
<polygon fill="white" stroke="black" points="242,-252 188,-252 188,-216 242,-216 242,-252"/>
<text text-anchor="middle" x="215" y="-231.5" font-family="Helvetica,sans-Serif" font-size="10.00">Tools</text>
</a>
</g>
</g>
<!-- dir_b90d73d79b67ccd72c2aaf78972ad885&#45;&gt;dir_4ce6a7f885e2866a554ba9e7335035f1 -->
<g id="edge1" class="edge"><title>dir_b90d73d79b67ccd72c2aaf78972ad885&#45;&gt;dir_4ce6a7f885e2866a554ba9e7335035f1</title>
<path fill="none" stroke="black" d="M194.73,-215.697C184.502,-206.965 171.939,-196.24 160.822,-186.75"/>
<polygon fill="black" stroke="black" points="162.915,-183.935 153.037,-180.104 158.37,-189.259 162.915,-183.935"/>
<g id="a_edge1&#45;headlabel"><a xlink:href="dir_000068_000003.xhtml" target="_top" xlink:title="3">
<text text-anchor="middle" x="167.492" y="-181.609" font-family="Helvetica,sans-Serif" font-size="10.00">3</text>
</a>
</g>
</g>
<!-- dir_b90d73d79b67ccd72c2aaf78972ad885&#45;&gt;dir_d44c64559bbebec7f509842c48db8b23 -->
<g id="edge2" class="edge"><title>dir_b90d73d79b67ccd72c2aaf78972ad885&#45;&gt;dir_d44c64559bbebec7f509842c48db8b23</title>
<path fill="none" stroke="black" d="M225.217,-215.996C230.706,-205.912 236.956,-192.662 240,-180 251.039,-134.074 249.688,-78.6639 247.491,-46.2775"/>
<polygon fill="black" stroke="black" points="250.975,-45.9312 246.73,-36.2239 243.995,-46.4596 250.975,-45.9312"/>
<g id="a_edge2&#45;headlabel"><a xlink:href="dir_000068_000000.xhtml" target="_top" xlink:title="5">
<text text-anchor="middle" x="254.077" y="-46.8014" font-family="Helvetica,sans-Serif" font-size="10.00">5</text>
</a>
</g>
</g>
<!-- dir_aec8c13e7ead484780e4df3176b5da50 -->
<g id="node8" class="node"><title>dir_aec8c13e7ead484780e4df3176b5da50</title>
<g id="a_node8"><a xlink:href="dir_aec8c13e7ead484780e4df3176b5da50.xhtml" target="_top" xlink:title="XDriver">
<polygon fill="white" stroke="black" points="314,-252 260,-252 260,-216 314,-216 314,-252"/>
<text text-anchor="middle" x="287" y="-231.5" font-family="Helvetica,sans-Serif" font-size="10.00">XDriver</text>
</a>
</g>
</g>
<!-- dir_aec8c13e7ead484780e4df3176b5da50&#45;&gt;dir_4ce6a7f885e2866a554ba9e7335035f1 -->
<g id="edge14" class="edge"><title>dir_aec8c13e7ead484780e4df3176b5da50&#45;&gt;dir_4ce6a7f885e2866a554ba9e7335035f1</title>
<path fill="none" stroke="black" d="M259.899,-220.135C256.9,-218.731 253.888,-217.33 251,-216 223.75,-203.448 192.806,-189.563 169.445,-179.155"/>
<polygon fill="black" stroke="black" points="170.809,-175.931 160.25,-175.063 167.963,-182.326 170.809,-175.931"/>
<g id="a_edge14&#45;headlabel"><a xlink:href="dir_000069_000003.xhtml" target="_top" xlink:title="1">
<text text-anchor="middle" x="175.248" y="-172.298" font-family="Helvetica,sans-Serif" font-size="10.00">1</text>
</a>
</g>
</g>
<!-- dir_aec8c13e7ead484780e4df3176b5da50&#45;&gt;dir_d44c64559bbebec7f509842c48db8b23 -->
<g id="edge15" class="edge"><title>dir_aec8c13e7ead484780e4df3176b5da50&#45;&gt;dir_d44c64559bbebec7f509842c48db8b23</title>
<path fill="none" stroke="black" d="M285.932,-215.941C283.706,-185.143 277.518,-118.402 263,-64 261.388,-57.9585 259.195,-51.6326 256.894,-45.6965"/>
<polygon fill="black" stroke="black" points="260.032,-44.1222 253.004,-36.1935 253.553,-46.7741 260.032,-44.1222"/>
<g id="a_edge15&#45;headlabel"><a xlink:href="dir_000069_000000.xhtml" target="_top" xlink:title="2">
<text text-anchor="middle" x="264.021" y="-43.8732" font-family="Helvetica,sans-Serif" font-size="10.00">2</text>
</a>
</g>
</g>
<!-- dir_3d72ae7acc3fa3714915f4b435e4bc99&#45;&gt;dir_ac6ba0d187fcf0f3dc430aa0cf244721 -->
<g id="edge13" class="edge"><title>dir_3d72ae7acc3fa3714915f4b435e4bc99&#45;&gt;dir_ac6ba0d187fcf0f3dc430aa0cf244721</title>
<path fill="none" stroke="black" d="M120.416,-287.697C123.794,-279.813 127.87,-270.304 131.623,-261.546"/>
<polygon fill="black" stroke="black" points="134.947,-262.675 135.67,-252.104 128.513,-259.917 134.947,-262.675"/>
<g id="a_edge13&#45;headlabel"><a xlink:href="dir_000070_000064.xhtml" target="_top" xlink:title="1">
<text text-anchor="middle" x="136.141" y="-264.597" font-family="Helvetica,sans-Serif" font-size="10.00">1</text>
</a>
</g>
</g>
<!-- dir_3d72ae7acc3fa3714915f4b435e4bc99&#45;&gt;dir_ef68f1e1f5148ff8ef7fb1c955106c3c -->
<g id="edge11" class="edge"><title>dir_3d72ae7acc3fa3714915f4b435e4bc99&#45;&gt;dir_ef68f1e1f5148ff8ef7fb1c955106c3c</title>
<path fill="none" stroke="black" d="M85.9249,-296.436C65.6999,-288.451 39.4833,-274.357 27,-252 1.55771,-206.435 39.4673,-148.315 66.2792,-115.836"/>
<polygon fill="black" stroke="black" points="68.9995,-118.04 72.8113,-108.155 63.6669,-113.505 68.9995,-118.04"/>
<g id="a_edge11&#45;headlabel"><a xlink:href="dir_000070_000065.xhtml" target="_top" xlink:title="2">
<text text-anchor="middle" x="68.8338" y="-120.118" font-family="Helvetica,sans-Serif" font-size="10.00">2</text>
</a>
</g>
</g>
<!-- dir_3d72ae7acc3fa3714915f4b435e4bc99&#45;&gt;dir_d44c64559bbebec7f509842c48db8b23 -->
<g id="edge12" class="edge"><title>dir_3d72ae7acc3fa3714915f4b435e4bc99&#45;&gt;dir_d44c64559bbebec7f509842c48db8b23</title>
<path fill="none" stroke="black" d="M140.042,-302.243C191.544,-296.374 300.586,-280.774 323,-252 373.097,-187.688 304.932,-89.5506 267.153,-43.9285"/>
<polygon fill="black" stroke="black" points="269.616,-41.4202 260.488,-36.041 264.269,-45.9382 269.616,-41.4202"/>
<g id="a_edge12&#45;headlabel"><a xlink:href="dir_000070_000000.xhtml" target="_top" xlink:title="20">
<text text-anchor="middle" x="274.105" y="-39.8332" font-family="Helvetica,sans-Serif" font-size="10.00">20</text>
</a>
</g>
</g>
</g>
</svg>
