<?xml version="1.0" encoding="UTF-8" standalone="no"?>
<!DOCTYPE svg PUBLIC "-//W3C//DTD SVG 1.1//EN"
 "http://www.w3.org/Graphics/SVG/1.1/DTD/svg11.dtd">
<!-- Generated by graphviz version 2.38.0 (20140413.2041)
 -->
<!-- Title: src/XEPA Pages: 1 -->
<svg width="133pt" height="295pt"
 viewBox="0.00 0.00 133.00 295.00" xmlns="http://www.w3.org/2000/svg" xmlns:xlink="http://www.w3.org/1999/xlink">
<g id="graph0" class="graph" transform="scale(1 1) rotate(0) translate(4 291)">
<title>src/XEPA</title>
<polygon fill="white" stroke="none" points="-4,4 -4,-291 129,-291 129,4 -4,4"/>
<g id="clust1" class="cluster"><title>clusterdir_68267d1309a1af8e8297ef4c3efbcdba</title>
<g id="a_clust1"><a xlink:href="dir_68267d1309a1af8e8297ef4c3efbcdba.xhtml" target="_top" xlink:title="src">
<polygon fill="#ddddee" stroke="black" points="8,-208 8,-279 78,-279 78,-208 8,-208"/>
<text text-anchor="middle" x="43" y="-267" font-family="Helvetica,sans-Serif" font-size="10.00">src</text>
</a>
</g>
</g>
<!-- dir_3d72ae7acc3fa3714915f4b435e4bc99 -->
<g id="node1" class="node"><title>dir_3d72ae7acc3fa3714915f4b435e4bc99</title>
<g id="a_node1"><a xlink:href="dir_3d72ae7acc3fa3714915f4b435e4bc99.xhtml" target="_top" xlink:title="XEPA">
<polygon fill="#eeeeff" stroke="black" points="70,-252 16,-252 16,-216 70,-216 70,-252"/>
<text text-anchor="middle" x="43" y="-231.5" font-family="Helvetica,sans-Serif" font-size="10.00">XEPA</text>
</a>
</g>
</g>
<!-- dir_ef68f1e1f5148ff8ef7fb1c955106c3c -->
<g id="node2" class="node"><title>dir_ef68f1e1f5148ff8ef7fb1c955106c3c</title>
<g id="a_node2"><a xlink:href="dir_ef68f1e1f5148ff8ef7fb1c955106c3c.xhtml" target="_top" xlink:title="System">
<polygon fill="white" stroke="red" points="79,-108 25,-108 25,-72 79,-72 79,-108"/>
<text text-anchor="middle" x="52" y="-87.5" font-family="Helvetica,sans-Serif" font-size="10.00">System</text>
</a>
</g>
</g>
<!-- dir_3d72ae7acc3fa3714915f4b435e4bc99&#45;&gt;dir_ef68f1e1f5148ff8ef7fb1c955106c3c -->
<g id="edge2" class="edge"><title>dir_3d72ae7acc3fa3714915f4b435e4bc99&#45;&gt;dir_ef68f1e1f5148ff8ef7fb1c955106c3c</title>
<path fill="none" stroke="black" d="M44.0856,-215.871C45.6195,-191.67 48.4373,-147.211 50.2638,-118.393"/>
<polygon fill="black" stroke="black" points="53.7709,-118.391 50.9105,-108.189 46.7849,-117.948 53.7709,-118.391"/>
<g id="a_edge2&#45;headlabel"><a xlink:href="dir_000070_000065.xhtml" target="_top" xlink:title="2">
<text text-anchor="middle" x="56.3772" y="-119.658" font-family="Helvetica,sans-Serif" font-size="10.00">2</text>
</a>
</g>
</g>
<!-- dir_d44c64559bbebec7f509842c48db8b23 -->
<g id="node3" class="node"><title>dir_d44c64559bbebec7f509842c48db8b23</title>
<g id="a_node3"><a xlink:href="dir_d44c64559bbebec7f509842c48db8b23.xhtml" target="_top" xlink:title="include">
<polygon fill="none" stroke="black" points="79,-36 25,-36 25,-0 79,-0 79,-36"/>
<text text-anchor="middle" x="52" y="-15.5" font-family="Helvetica,sans-Serif" font-size="10.00">include</text>
</a>
</g>
</g>
<!-- dir_3d72ae7acc3fa3714915f4b435e4bc99&#45;&gt;dir_d44c64559bbebec7f509842c48db8b23 -->
<g id="edge3" class="edge"><title>dir_3d72ae7acc3fa3714915f4b435e4bc99&#45;&gt;dir_d44c64559bbebec7f509842c48db8b23</title>
<path fill="none" stroke="black" d="M34.982,-215.736C22.2414,-185.884 0.338986,-122.929 16,-72 19.0089,-62.2153 24.507,-52.6161 30.3157,-44.3336"/>
<polygon fill="black" stroke="black" points="33.1948,-46.3279 36.3901,-36.2264 27.5928,-42.1306 33.1948,-46.3279"/>
<g id="a_edge3&#45;headlabel"><a xlink:href="dir_000070_000000.xhtml" target="_top" xlink:title="20">
<text text-anchor="middle" x="33.3117" y="-48.4071" font-family="Helvetica,sans-Serif" font-size="10.00">20</text>
</a>
</g>
</g>
<!-- dir_ac6ba0d187fcf0f3dc430aa0cf244721 -->
<g id="node4" class="node"><title>dir_ac6ba0d187fcf0f3dc430aa0cf244721</title>
<g id="a_node4"><a xlink:href="dir_ac6ba0d187fcf0f3dc430aa0cf244721.xhtml" target="_top" xlink:title="Radar">
<polygon fill="none" stroke="black" points="125,-180 71,-180 71,-144 125,-144 125,-180"/>
<text text-anchor="middle" x="98" y="-159.5" font-family="Helvetica,sans-Serif" font-size="10.00">Radar</text>
</a>
</g>
</g>
<!-- dir_3d72ae7acc3fa3714915f4b435e4bc99&#45;&gt;dir_ac6ba0d187fcf0f3dc430aa0cf244721 -->
<g id="edge4" class="edge"><title>dir_3d72ae7acc3fa3714915f4b435e4bc99&#45;&gt;dir_ac6ba0d187fcf0f3dc430aa0cf244721</title>
<path fill="none" stroke="black" d="M56.5955,-215.697C63.1227,-207.389 71.068,-197.277 78.2466,-188.141"/>
<polygon fill="black" stroke="black" points="81.1347,-190.13 84.5609,-180.104 75.6305,-185.805 81.1347,-190.13"/>
<g id="a_edge4&#45;headlabel"><a xlink:href="dir_000070_000064.xhtml" target="_top" xlink:title="1">
<text text-anchor="middle" x="81.1465" y="-192.211" font-family="Helvetica,sans-Serif" font-size="10.00">1</text>
</a>
</g>
</g>
<!-- dir_ef68f1e1f5148ff8ef7fb1c955106c3c&#45;&gt;dir_d44c64559bbebec7f509842c48db8b23 -->
<g id="edge1" class="edge"><title>dir_ef68f1e1f5148ff8ef7fb1c955106c3c&#45;&gt;dir_d44c64559bbebec7f509842c48db8b23</title>
<path fill="none" stroke="black" d="M52,-71.6966C52,-63.9827 52,-54.7125 52,-46.1124"/>
<polygon fill="black" stroke="black" points="55.5001,-46.1043 52,-36.1043 48.5001,-46.1044 55.5001,-46.1043"/>
<g id="a_edge1&#45;headlabel"><a xlink:href="dir_000065_000000.xhtml" target="_top" xlink:title="16">
<text text-anchor="middle" x="58.3393" y="-47.199" font-family="Helvetica,sans-Serif" font-size="10.00">16</text>
</a>
</g>
</g>
<!-- dir_ac6ba0d187fcf0f3dc430aa0cf244721&#45;&gt;dir_ef68f1e1f5148ff8ef7fb1c955106c3c -->
<g id="edge5" class="edge"><title>dir_ac6ba0d187fcf0f3dc430aa0cf244721&#45;&gt;dir_ef68f1e1f5148ff8ef7fb1c955106c3c</title>
<path fill="none" stroke="black" d="M86.6292,-143.697C81.2815,-135.559 74.7957,-125.689 68.8894,-116.701"/>
<polygon fill="black" stroke="black" points="71.6568,-114.539 63.24,-108.104 65.8068,-118.384 71.6568,-114.539"/>
<g id="a_edge5&#45;headlabel"><a xlink:href="dir_000064_000065.xhtml" target="_top" xlink:title="1">
<text text-anchor="middle" x="76.0036" y="-113.484" font-family="Helvetica,sans-Serif" font-size="10.00">1</text>
</a>
</g>
</g>
<!-- dir_ac6ba0d187fcf0f3dc430aa0cf244721&#45;&gt;dir_d44c64559bbebec7f509842c48db8b23 -->
<g id="edge6" class="edge"><title>dir_ac6ba0d187fcf0f3dc430aa0cf244721&#45;&gt;dir_d44c64559bbebec7f509842c48db8b23</title>
<path fill="none" stroke="black" d="M98.4807,-143.708C98.4422,-125.352 96.7922,-95.7703 88,-72 84.4487,-62.3988 78.7982,-52.8512 73.0168,-44.5595"/>
<polygon fill="black" stroke="black" points="75.7743,-42.4016 67.027,-36.4237 70.1372,-46.5517 75.7743,-42.4016"/>
<g id="a_edge6&#45;headlabel"><a xlink:href="dir_000064_000000.xhtml" target="_top" xlink:title="6">
<text text-anchor="middle" x="80.1919" y="-41.1129" font-family="Helvetica,sans-Serif" font-size="10.00">6</text>
</a>
</g>
</g>
</g>
</svg>
