<?xml version="1.0" encoding="UTF-8" standalone="no"?>
<!DOCTYPE svg PUBLIC "-//W3C//DTD SVG 1.1//EN"
 "http://www.w3.org/Graphics/SVG/1.1/DTD/svg11.dtd">
<!-- Generated by graphviz version 2.38.0 (20140413.2041)
 -->
<!-- Title: EFC_WriteFMR Pages: 1 -->
<svg width="268pt" height="142pt"
 viewBox="0.00 0.00 268.00 142.00" xmlns="http://www.w3.org/2000/svg" xmlns:xlink="http://www.w3.org/1999/xlink">
<g id="graph0" class="graph" transform="scale(1 1) rotate(0) translate(4 138)">
<title>EFC_WriteFMR</title>
<polygon fill="white" stroke="none" points="-4,4 -4,-138 264,-138 264,4 -4,4"/>
<!-- Node151 -->
<g id="node1" class="node"><title>Node151</title>
<polygon fill="#bfbfbf" stroke="black" points="0,-57.5 0,-76.5 83,-76.5 83,-57.5 0,-57.5"/>
<text text-anchor="middle" x="41.5" y="-64.5" font-family="Helvetica,sans-Serif" font-size="10.00">EFC_WriteFMR</text>
</g>
<!-- Node152 -->
<g id="node2" class="node"><title>Node152</title>
<g id="a_node2"><a xlink:href="efc_8c.xhtml#a3f6311b4fcbc57fe4079b1ef05b3fc14" target="_top" xlink:title="Enables the flash ready interrupt source on the EEFC peripheral. ">
<polygon fill="white" stroke="black" points="140.5,-114.5 140.5,-133.5 238.5,-133.5 238.5,-114.5 140.5,-114.5"/>
<text text-anchor="middle" x="189.5" y="-121.5" font-family="Helvetica,sans-Serif" font-size="10.00">EFC_EnableFrdyIt</text>
</a>
</g>
</g>
<!-- Node151&#45;&gt;Node152 -->
<g id="edge1" class="edge"><title>Node151&#45;&gt;Node152</title>
<path fill="none" stroke="midnightblue" d="M68.3092,-81.3905C82.8807,-89.1121 101.607,-98.3747 119,-105 128.352,-108.562 138.645,-111.753 148.38,-114.458"/>
<polygon fill="midnightblue" stroke="midnightblue" points="69.8527,-78.2464 59.3894,-76.5821 66.531,-84.4081 69.8527,-78.2464"/>
</g>
<!-- Node153 -->
<g id="node3" class="node"><title>Node153</title>
<g id="a_node3"><a xlink:href="efc_8c.xhtml#a47e9d8bbb518d8c528cf7317b9080aa3" target="_top" xlink:title="Disables the flash ready interrupt source on the EEFC peripheral. ">
<polygon fill="white" stroke="red" points="139,-76.5 139,-95.5 240,-95.5 240,-76.5 139,-76.5"/>
<text text-anchor="middle" x="189.5" y="-83.5" font-family="Helvetica,sans-Serif" font-size="10.00">EFC_DisableFrdyIt</text>
</a>
</g>
</g>
<!-- Node151&#45;&gt;Node153 -->
<g id="edge2" class="edge"><title>Node151&#45;&gt;Node153</title>
<path fill="none" stroke="midnightblue" d="M93.1845,-73.5959C108.014,-75.5258 124.203,-77.6326 138.961,-79.5532"/>
<polygon fill="midnightblue" stroke="midnightblue" points="93.5372,-70.1124 83.1691,-72.2926 92.6338,-77.0539 93.5372,-70.1124"/>
</g>
<!-- Node155 -->
<g id="node4" class="node"><title>Node155</title>
<g id="a_node4"><a xlink:href="efc_8c.xhtml#a845ff031ad09aaca87a20bd14b10cd84" target="_top" xlink:title="Set read/write wait state on the EEFC peripheral. ">
<polygon fill="white" stroke="black" points="138.5,-38.5 138.5,-57.5 240.5,-57.5 240.5,-38.5 138.5,-38.5"/>
<text text-anchor="middle" x="189.5" y="-45.5" font-family="Helvetica,sans-Serif" font-size="10.00">EFC_SetWaitState</text>
</a>
</g>
</g>
<!-- Node151&#45;&gt;Node155 -->
<g id="edge3" class="edge"><title>Node151&#45;&gt;Node155</title>
<path fill="none" stroke="midnightblue" d="M93.5081,-60.362C108.071,-58.4667 123.922,-56.4039 138.429,-54.5161"/>
<polygon fill="midnightblue" stroke="midnightblue" points="92.6338,-56.9461 83.1691,-61.7074 93.5372,-63.8876 92.6338,-56.9461"/>
</g>
<!-- Node156 -->
<g id="node5" class="node"><title>Node156</title>
<g id="a_node5"><a xlink:href="efc_8c.xhtml#a20b13ad67a18cb8408da8d0693620d96" target="_top" xlink:title="Set flash access mode. ">
<polygon fill="white" stroke="black" points="119,-0.5 119,-19.5 260,-19.5 260,-0.5 119,-0.5"/>
<text text-anchor="middle" x="189.5" y="-7.5" font-family="Helvetica,sans-Serif" font-size="10.00">EFC_SetFlashAccessMode</text>
</a>
</g>
</g>
<!-- Node151&#45;&gt;Node156 -->
<g id="edge4" class="edge"><title>Node151&#45;&gt;Node156</title>
<path fill="none" stroke="midnightblue" d="M68.3092,-52.6095C82.8807,-44.8879 101.607,-35.6253 119,-29 128.352,-25.4379 138.645,-22.2466 148.38,-19.5423"/>
<polygon fill="midnightblue" stroke="midnightblue" points="66.531,-49.5919 59.3894,-57.4179 69.8527,-55.7536 66.531,-49.5919"/>
</g>
</g>
</svg>
