<?xml version="1.0" encoding="UTF-8" standalone="no"?>
<!DOCTYPE svg PUBLIC "-//W3C//DTD SVG 1.1//EN"
 "http://www.w3.org/Graphics/SVG/1.1/DTD/svg11.dtd">
<!-- Generated by graphviz version 2.38.0 (20140413.2041)
 -->
<!-- Title: FLASHD_IsLocked Pages: 1 -->
<svg width="274pt" height="104pt"
 viewBox="0.00 0.00 274.00 104.00" xmlns="http://www.w3.org/2000/svg" xmlns:xlink="http://www.w3.org/1999/xlink">
<g id="graph0" class="graph" transform="scale(1 1) rotate(0) translate(4 100)">
<title>FLASHD_IsLocked</title>
<polygon fill="white" stroke="none" points="-4,4 -4,-100 270,-100 270,4 -4,4"/>
<!-- Node62 -->
<g id="node1" class="node"><title>Node62</title>
<polygon fill="#bfbfbf" stroke="black" points="0,-38.5 0,-57.5 102,-57.5 102,-38.5 0,-38.5"/>
<text text-anchor="middle" x="51" y="-45.5" font-family="Helvetica,sans-Serif" font-size="10.00">FLASHD_IsLocked</text>
</g>
<!-- Node63 -->
<g id="node2" class="node"><title>Node63</title>
<g id="a_node2"><a xlink:href="efc_8h.xhtml#a170fa534d132c75b2851f0a42f7b71b0" target="_top" xlink:title="Translates the given address page and offset values. ">
<polygon fill="white" stroke="black" points="141,-76.5 141,-95.5 263,-95.5 263,-76.5 141,-76.5"/>
<text text-anchor="middle" x="202" y="-83.5" font-family="Helvetica,sans-Serif" font-size="10.00">EFC_TranslateAddress</text>
</a>
</g>
</g>
<!-- Node62&#45;&gt;Node63 -->
<g id="edge1" class="edge"><title>Node62&#45;&gt;Node63</title>
<path fill="none" stroke="midnightblue" d="M89.599,-57.589C109.084,-62.5583 133.075,-68.6767 153.796,-73.9613"/>
<polygon fill="midnightblue" stroke="midnightblue" points="153.117,-77.4001 163.671,-76.4799 154.846,-70.6172 153.117,-77.4001"/>
</g>
<!-- Node64 -->
<g id="node3" class="node"><title>Node64</title>
<g id="a_node3"><a xlink:href="efc_8h.xhtml#a89ced3586649e7455882295657f7c11a" target="_top" xlink:title="Performs the given command and wait until its completion (or an error). ">
<polygon fill="white" stroke="black" points="138,-38.5 138,-57.5 266,-57.5 266,-38.5 138,-38.5"/>
<text text-anchor="middle" x="202" y="-45.5" font-family="Helvetica,sans-Serif" font-size="10.00">EFC_PerformCommand</text>
</a>
</g>
</g>
<!-- Node62&#45;&gt;Node64 -->
<g id="edge2" class="edge"><title>Node62&#45;&gt;Node64</title>
<path fill="none" stroke="midnightblue" d="M102.029,-48C110.293,-48 119.009,-48 127.704,-48"/>
<polygon fill="midnightblue" stroke="midnightblue" points="127.871,-51.5001 137.871,-48 127.871,-44.5001 127.871,-51.5001"/>
</g>
<!-- Node65 -->
<g id="node4" class="node"><title>Node65</title>
<g id="a_node4"><a xlink:href="efc_8h.xhtml#a5a13faa6909d8d0500679fdaa8245a40" target="_top" xlink:title="Returns the result of the last executed command. ">
<polygon fill="white" stroke="black" points="159,-0.5 159,-19.5 245,-19.5 245,-0.5 159,-0.5"/>
<text text-anchor="middle" x="202" y="-7.5" font-family="Helvetica,sans-Serif" font-size="10.00">EFC_GetResult</text>
</a>
</g>
</g>
<!-- Node62&#45;&gt;Node65 -->
<g id="edge3" class="edge"><title>Node62&#45;&gt;Node65</title>
<path fill="none" stroke="midnightblue" d="M89.599,-38.411C109.084,-33.4417 133.075,-27.3233 153.796,-22.0387"/>
<polygon fill="midnightblue" stroke="midnightblue" points="154.846,-25.3828 163.671,-19.5201 153.117,-18.5999 154.846,-25.3828"/>
</g>
</g>
</svg>
