<?xml version="1.0" encoding="UTF-8" standalone="no"?>
<!DOCTYPE svg PUBLIC "-//W3C//DTD SVG 1.1//EN"
 "http://www.w3.org/Graphics/SVG/1.1/DTD/svg11.dtd">
<!-- Generated by graphviz version 2.38.0 (20140413.2041)
 -->
<!-- Title: src/hal/x4m0x_s70/libraries/libchip/source/gmac.c Pages: 1 -->
<svg width="266pt" height="95pt"
 viewBox="0.00 0.00 265.50 95.00" xmlns="http://www.w3.org/2000/svg" xmlns:xlink="http://www.w3.org/1999/xlink">
<g id="graph0" class="graph" transform="scale(1 1) rotate(0) translate(4 91)">
<title>src/hal/x4m0x_s70/libraries/libchip/source/gmac.c</title>
<polygon fill="white" stroke="none" points="-4,4 -4,-91 261.5,-91 261.5,4 -4,4"/>
<!-- Node0 -->
<g id="node1" class="node"><title>Node0</title>
<polygon fill="#bfbfbf" stroke="black" points="48.5,-56.5 48.5,-86.5 194.5,-86.5 194.5,-56.5 48.5,-56.5"/>
<text text-anchor="start" x="56.5" y="-74.5" font-family="Helvetica,sans-Serif" font-size="10.00">src/hal/x4m0x_s70/libraries</text>
<text text-anchor="middle" x="121.5" y="-63.5" font-family="Helvetica,sans-Serif" font-size="10.00">/libchip/source/gmac.c</text>
</g>
<!-- Node1 -->
<g id="node2" class="node"><title>Node1</title>
<g id="a_node2"><a xlink:href="chip_8h.xhtml" target="_top" xlink:title="chip.h">
<polygon fill="white" stroke="red" points="0,-0.5 0,-19.5 45,-19.5 45,-0.5 0,-0.5"/>
<text text-anchor="middle" x="22.5" y="-7.5" font-family="Helvetica,sans-Serif" font-size="10.00">chip.h</text>
</a>
</g>
</g>
<!-- Node0&#45;&gt;Node1 -->
<g id="edge1" class="edge"><title>Node0&#45;&gt;Node1</title>
<path fill="none" stroke="midnightblue" d="M98.0384,-56.3993C82.1694,-46.8619 61.3093,-34.3248 45.5316,-24.8422"/>
<polygon fill="midnightblue" stroke="midnightblue" points="47.2795,-21.8093 36.9054,-19.6578 43.6735,-27.809 47.2795,-21.8093"/>
</g>
<!-- Node9 -->
<g id="node3" class="node"><title>Node9</title>
<polygon fill="white" stroke="#bfbfbf" points="63,-0.5 63,-19.5 112,-19.5 112,-0.5 63,-0.5"/>
<text text-anchor="middle" x="87.5" y="-7.5" font-family="Helvetica,sans-Serif" font-size="10.00">stdio.h</text>
</g>
<!-- Node0&#45;&gt;Node9 -->
<g id="edge2" class="edge"><title>Node0&#45;&gt;Node9</title>
<path fill="none" stroke="midnightblue" d="M113.442,-56.3993C108.655,-48.0207 102.544,-37.3269 97.4559,-28.4229"/>
<polygon fill="midnightblue" stroke="midnightblue" points="100.448,-26.6037 92.4473,-19.6578 94.3699,-30.0767 100.448,-26.6037"/>
</g>
<!-- Node39 -->
<g id="node4" class="node"><title>Node39</title>
<polygon fill="white" stroke="#bfbfbf" points="130,-0.5 130,-19.5 183,-19.5 183,-0.5 130,-0.5"/>
<text text-anchor="middle" x="156.5" y="-7.5" font-family="Helvetica,sans-Serif" font-size="10.00">string.h</text>
</g>
<!-- Node0&#45;&gt;Node39 -->
<g id="edge3" class="edge"><title>Node0&#45;&gt;Node39</title>
<path fill="none" stroke="midnightblue" d="M129.795,-56.3993C134.723,-48.0207 141.014,-37.3269 146.251,-28.4229"/>
<polygon fill="midnightblue" stroke="midnightblue" points="149.354,-30.0517 151.407,-19.6578 143.32,-26.5025 149.354,-30.0517"/>
</g>
<!-- Node11 -->
<g id="node5" class="node"><title>Node11</title>
<polygon fill="white" stroke="#bfbfbf" points="201.5,-0.5 201.5,-19.5 257.5,-19.5 257.5,-0.5 201.5,-0.5"/>
<text text-anchor="middle" x="229.5" y="-7.5" font-family="Helvetica,sans-Serif" font-size="10.00">assert.h</text>
</g>
<!-- Node0&#45;&gt;Node11 -->
<g id="edge4" class="edge"><title>Node0&#45;&gt;Node11</title>
<path fill="none" stroke="midnightblue" d="M147.094,-56.3993C164.568,-46.7728 187.588,-34.0902 204.856,-24.5772"/>
<polygon fill="midnightblue" stroke="midnightblue" points="206.715,-27.5488 213.785,-19.6578 203.337,-21.4177 206.715,-27.5488"/>
</g>
</g>
</svg>
