<?xml version="1.0" encoding="UTF-8" standalone="no"?>
<!DOCTYPE svg PUBLIC "-//W3C//DTD SVG 1.1//EN"
 "http://www.w3.org/Graphics/SVG/1.1/DTD/svg11.dtd">
<!-- Generated by graphviz version 2.38.0 (20140413.2041)
 -->
<!-- Title: GMACB_AutoNegotiate Pages: 1 -->
<svg width="448pt" height="208pt"
 viewBox="0.00 0.00 448.00 208.00" xmlns="http://www.w3.org/2000/svg" xmlns:xlink="http://www.w3.org/1999/xlink">
<g id="graph0" class="graph" transform="scale(1 1) rotate(0) translate(4 204)">
<title>GMACB_AutoNegotiate</title>
<polygon fill="white" stroke="none" points="-4,4 -4,-204 444,-204 444,4 -4,4"/>
<!-- Node0 -->
<g id="node1" class="node"><title>Node0</title>
<polygon fill="#bfbfbf" stroke="black" points="0,-95.5 0,-114.5 128,-114.5 128,-95.5 0,-95.5"/>
<text text-anchor="middle" x="64" y="-102.5" font-family="Helvetica,sans-Serif" font-size="10.00">GMACB_AutoNegotiate</text>
</g>
<!-- Node1 -->
<g id="node2" class="node"><title>Node1</title>
<g id="a_node2"><a xlink:href="group__gmac__defines.xhtml#gabf89fc2e0cb8e9ec7e0b99a5a14cae50" target="_top" xlink:title="Enable MDI with PHY. ">
<polygon fill="white" stroke="black" points="332.5,-180.5 332.5,-199.5 438.5,-199.5 438.5,-180.5 332.5,-180.5"/>
<text text-anchor="middle" x="385.5" y="-187.5" font-family="Helvetica,sans-Serif" font-size="10.00">GMAC_EnableMdio</text>
</a>
</g>
</g>
<!-- Node0&#45;&gt;Node1 -->
<g id="edge1" class="edge"><title>Node0&#45;&gt;Node1</title>
<path fill="none" stroke="midnightblue" d="M73.63,-114.752C89.5094,-131.902 125.295,-166.97 164,-181 214.96,-199.473 276.94,-200.276 322.195,-197.298"/>
<polygon fill="midnightblue" stroke="midnightblue" points="322.738,-200.768 332.453,-196.54 322.222,-193.787 322.738,-200.768"/>
</g>
<!-- Node2 -->
<g id="node3" class="node"><title>Node2</title>
<g id="a_node3"><a xlink:href="gmacb__phy_8c.xhtml#add851348aa8e6c519d4efda3e53d025d" target="_top" xlink:title="Read PHY register. ">
<polygon fill="white" stroke="red" points="336.5,-123.5 336.5,-142.5 434.5,-142.5 434.5,-123.5 336.5,-123.5"/>
<text text-anchor="middle" x="385.5" y="-130.5" font-family="Helvetica,sans-Serif" font-size="10.00">GMACB_ReadPhy</text>
</a>
</g>
</g>
<!-- Node0&#45;&gt;Node2 -->
<g id="edge2" class="edge"><title>Node0&#45;&gt;Node2</title>
<path fill="none" stroke="midnightblue" d="M128.123,-110.532C185.647,-115.573 269.947,-122.961 325.984,-127.872"/>
<polygon fill="midnightblue" stroke="midnightblue" points="325.838,-131.372 336.105,-128.759 326.449,-124.399 325.838,-131.372"/>
</g>
<!-- Node7 -->
<g id="node4" class="node"><title>Node7</title>
<g id="a_node4"><a xlink:href="gmacb__phy_8c.xhtml#aba0c6004ff96312d6cd98d4948ec0014" target="_top" xlink:title="Write PHY register Return 1 if successfully, 0 if timeout. ">
<polygon fill="white" stroke="red" points="180.5,-38.5 180.5,-57.5 278.5,-57.5 278.5,-38.5 180.5,-38.5"/>
<text text-anchor="middle" x="229.5" y="-45.5" font-family="Helvetica,sans-Serif" font-size="10.00">GMACB_WritePhy</text>
</a>
</g>
</g>
<!-- Node0&#45;&gt;Node7 -->
<g id="edge3" class="edge"><title>Node0&#45;&gt;Node7</title>
<path fill="none" stroke="midnightblue" d="M92.3662,-95.4595C119.482,-86.0062 161.207,-71.4598 191.317,-60.963"/>
<polygon fill="midnightblue" stroke="midnightblue" points="192.754,-64.1686 201.044,-57.5716 190.45,-57.5587 192.754,-64.1686"/>
</g>
<!-- Node8 -->
<g id="node5" class="node"><title>Node8</title>
<g id="a_node5"><a xlink:href="gmacb__phy_8c.xhtml#aced88b292369024663d7391ee02d2539" target="_top" xlink:title="Dump all the useful registers. ">
<polygon fill="white" stroke="black" points="164,-152.5 164,-171.5 295,-171.5 295,-152.5 164,-152.5"/>
<text text-anchor="middle" x="229.5" y="-159.5" font-family="Helvetica,sans-Serif" font-size="10.00">GMACB_DumpRegisters</text>
</a>
</g>
</g>
<!-- Node0&#45;&gt;Node8 -->
<g id="edge4" class="edge"><title>Node0&#45;&gt;Node8</title>
<path fill="none" stroke="midnightblue" d="M92.3662,-114.541C119.482,-123.994 161.207,-138.54 191.317,-149.037"/>
<polygon fill="midnightblue" stroke="midnightblue" points="190.45,-152.441 201.044,-152.428 192.754,-145.831 190.45,-152.441"/>
</g>
<!-- Node9 -->
<g id="node6" class="node"><title>Node9</title>
<g id="a_node6"><a xlink:href="group__gmac__defines.xhtml#ga6013c7006f83c59d4895a92e3f473804" target="_top" xlink:title="Enable MDI with PHY. ">
<polygon fill="white" stroke="black" points="331,-85.5 331,-104.5 440,-104.5 440,-85.5 331,-85.5"/>
<text text-anchor="middle" x="385.5" y="-92.5" font-family="Helvetica,sans-Serif" font-size="10.00">GMAC_DisableMdio</text>
</a>
</g>
</g>
<!-- Node0&#45;&gt;Node9 -->
<g id="edge9" class="edge"><title>Node0&#45;&gt;Node9</title>
<path fill="none" stroke="midnightblue" d="M128.123,-103.024C183.85,-101.28 264.705,-98.7495 320.649,-96.9985"/>
<polygon fill="midnightblue" stroke="midnightblue" points="320.908,-100.492 330.794,-96.681 320.689,-93.4956 320.908,-100.492"/>
</g>
<!-- Node10 -->
<g id="node7" class="node"><title>Node10</title>
<g id="a_node7"><a xlink:href="group__gmac__defines.xhtml#ga144f2054229d8431f26a425ff7fd1bef" target="_top" xlink:title="Enable RGMII mode for GMAC, called once after auto negotiate. ">
<polygon fill="white" stroke="black" points="174.5,-0.5 174.5,-19.5 284.5,-19.5 284.5,-0.5 174.5,-0.5"/>
<text text-anchor="middle" x="229.5" y="-7.5" font-family="Helvetica,sans-Serif" font-size="10.00">GMAC_EnableRGMII</text>
</a>
</g>
</g>
<!-- Node0&#45;&gt;Node10 -->
<g id="edge8" class="edge"><title>Node0&#45;&gt;Node10</title>
<path fill="none" stroke="midnightblue" d="M74.8283,-95.4168C91.707,-79.4561 127.885,-47.3721 164,-29 168.502,-26.7099 173.324,-24.6512 178.23,-22.8111"/>
<polygon fill="midnightblue" stroke="midnightblue" points="179.396,-26.1114 187.706,-19.5385 177.111,-19.4949 179.396,-26.1114"/>
</g>
<!-- Node8&#45;&gt;Node1 -->
<g id="edge5" class="edge"><title>Node8&#45;&gt;Node1</title>
<path fill="none" stroke="midnightblue" d="M283.067,-171.558C295.774,-173.868 309.471,-176.358 322.563,-178.739"/>
<polygon fill="midnightblue" stroke="midnightblue" points="321.966,-182.187 332.431,-180.533 323.218,-175.3 321.966,-182.187"/>
</g>
<!-- Node8&#45;&gt;Node2 -->
<g id="edge6" class="edge"><title>Node8&#45;&gt;Node2</title>
<path fill="none" stroke="midnightblue" d="M281.352,-152.424C295.731,-149.716 311.491,-146.748 326.268,-143.966"/>
<polygon fill="midnightblue" stroke="midnightblue" points="327.133,-147.364 336.313,-142.074 325.838,-140.485 327.133,-147.364"/>
</g>
<!-- Node8&#45;&gt;Node9 -->
<g id="edge7" class="edge"><title>Node8&#45;&gt;Node9</title>
<path fill="none" stroke="midnightblue" d="M249.128,-152.382C269.106,-142.238 301.89,-126.082 331,-114 335.882,-111.974 341.066,-109.963 346.211,-108.049"/>
<polygon fill="midnightblue" stroke="midnightblue" points="347.761,-111.211 355.969,-104.512 345.375,-104.63 347.761,-111.211"/>
</g>
</g>
</svg>
