<?xml version="1.0" encoding="UTF-8" standalone="no"?>
<!DOCTYPE svg PUBLIC "-//W3C//DTD SVG 1.1//EN"
 "http://www.w3.org/Graphics/SVG/1.1/DTD/svg11.dtd">
<!-- Generated by graphviz version 2.38.0 (20140413.2041)
 -->
<!-- Title: GMACB_DumpRegisters Pages: 1 -->
<svg width="284pt" height="104pt"
 viewBox="0.00 0.00 284.00 104.00" xmlns="http://www.w3.org/2000/svg" xmlns:xlink="http://www.w3.org/1999/xlink">
<g id="graph0" class="graph" transform="scale(1 1) rotate(0) translate(4 100)">
<title>GMACB_DumpRegisters</title>
<polygon fill="white" stroke="none" points="-4,4 -4,-100 280,-100 280,4 -4,4"/>
<!-- Node12 -->
<g id="node1" class="node"><title>Node12</title>
<polygon fill="#bfbfbf" stroke="black" points="0,-38.5 0,-57.5 131,-57.5 131,-38.5 0,-38.5"/>
<text text-anchor="middle" x="65.5" y="-45.5" font-family="Helvetica,sans-Serif" font-size="10.00">GMACB_DumpRegisters</text>
</g>
<!-- Node13 -->
<g id="node2" class="node"><title>Node13</title>
<g id="a_node2"><a xlink:href="group__gmac__defines.xhtml#gabf89fc2e0cb8e9ec7e0b99a5a14cae50" target="_top" xlink:title="Enable MDI with PHY. ">
<polygon fill="white" stroke="black" points="168.5,-76.5 168.5,-95.5 274.5,-95.5 274.5,-76.5 168.5,-76.5"/>
<text text-anchor="middle" x="221.5" y="-83.5" font-family="Helvetica,sans-Serif" font-size="10.00">GMAC_EnableMdio</text>
</a>
</g>
</g>
<!-- Node12&#45;&gt;Node13 -->
<g id="edge1" class="edge"><title>Node12&#45;&gt;Node13</title>
<path fill="none" stroke="midnightblue" d="M105.361,-57.589C125.591,-62.5809 150.521,-68.7324 172.004,-74.0334"/>
<polygon fill="midnightblue" stroke="midnightblue" points="171.371,-77.4823 181.919,-76.4799 173.048,-70.6861 171.371,-77.4823"/>
</g>
<!-- Node14 -->
<g id="node3" class="node"><title>Node14</title>
<g id="a_node3"><a xlink:href="gmacb__phy_8c.xhtml#add851348aa8e6c519d4efda3e53d025d" target="_top" xlink:title="Read PHY register. ">
<polygon fill="white" stroke="red" points="172.5,-38.5 172.5,-57.5 270.5,-57.5 270.5,-38.5 172.5,-38.5"/>
<text text-anchor="middle" x="221.5" y="-45.5" font-family="Helvetica,sans-Serif" font-size="10.00">GMACB_ReadPhy</text>
</a>
</g>
</g>
<!-- Node12&#45;&gt;Node14 -->
<g id="edge2" class="edge"><title>Node12&#45;&gt;Node14</title>
<path fill="none" stroke="midnightblue" d="M131.364,-48C141.491,-48 151.906,-48 161.883,-48"/>
<polygon fill="midnightblue" stroke="midnightblue" points="162.092,-51.5001 172.092,-48 162.092,-44.5001 162.092,-51.5001"/>
</g>
<!-- Node19 -->
<g id="node4" class="node"><title>Node19</title>
<g id="a_node4"><a xlink:href="group__gmac__defines.xhtml#ga6013c7006f83c59d4895a92e3f473804" target="_top" xlink:title="Enable MDI with PHY. ">
<polygon fill="white" stroke="black" points="167,-0.5 167,-19.5 276,-19.5 276,-0.5 167,-0.5"/>
<text text-anchor="middle" x="221.5" y="-7.5" font-family="Helvetica,sans-Serif" font-size="10.00">GMAC_DisableMdio</text>
</a>
</g>
</g>
<!-- Node12&#45;&gt;Node19 -->
<g id="edge3" class="edge"><title>Node12&#45;&gt;Node19</title>
<path fill="none" stroke="midnightblue" d="M105.361,-38.411C125.591,-33.4191 150.521,-27.2676 172.004,-21.9666"/>
<polygon fill="midnightblue" stroke="midnightblue" points="173.048,-25.3139 181.919,-19.5201 171.371,-18.5177 173.048,-25.3139"/>
</g>
</g>
</svg>
