<?xml version="1.0" encoding="UTF-8" standalone="no"?>
<!DOCTYPE svg PUBLIC "-//W3C//DTD SVG 1.1//EN"
 "http://www.w3.org/Graphics/SVG/1.1/DTD/svg11.dtd">
<!-- Generated by graphviz version 2.38.0 (20140413.2041)
 -->
<!-- Title: AUDDSpeakerPhoneDriver_StreamSettingChanged Pages: 1 -->
<svg width="367pt" height="39pt"
 viewBox="0.00 0.00 367.00 39.00" xmlns="http://www.w3.org/2000/svg" xmlns:xlink="http://www.w3.org/1999/xlink">
<g id="graph0" class="graph" transform="scale(1 1) rotate(0) translate(4 35)">
<title>AUDDSpeakerPhoneDriver_StreamSettingChanged</title>
<polygon fill="white" stroke="none" points="-4,4 -4,-35 363,-35 363,4 -4,4"/>
<!-- Node551 -->
<g id="node1" class="node"><title>Node551</title>
<polygon fill="#bfbfbf" stroke="black" points="0,-0.5 0,-30.5 144,-30.5 144,-0.5 0,-0.5"/>
<text text-anchor="start" x="8" y="-18.5" font-family="Helvetica,sans-Serif" font-size="10.00">AUDDSpeakerPhoneDriver</text>
<text text-anchor="middle" x="72" y="-7.5" font-family="Helvetica,sans-Serif" font-size="10.00">_StreamSettingChanged</text>
</g>
<!-- Node552 -->
<g id="node2" class="node"><title>Node552</title>
<g id="a_node2"><a xlink:href="group__usbd__audio__speakerphone.xhtml#gab0cb2fc73b21c62122cdcf32cdf82fb0" target="_top" xlink:title="Invoked whenever the active setting of an interface is changed by the host. ">
<polygon fill="white" stroke="black" points="180,-0.5 180,-30.5 359,-30.5 359,-0.5 180,-0.5"/>
<text text-anchor="start" x="188" y="-18.5" font-family="Helvetica,sans-Serif" font-size="10.00">AUDDSpeakerPhoneDriver</text>
<text text-anchor="middle" x="269.5" y="-7.5" font-family="Helvetica,sans-Serif" font-size="10.00">_InterfaceSettingChangedHandler</text>
</a>
</g>
</g>
<!-- Node551&#45;&gt;Node552 -->
<g id="edge1" class="edge"><title>Node551&#45;&gt;Node552</title>
<path fill="none" stroke="midnightblue" d="M154.286,-15.5C162.693,-15.5 171.266,-15.5 179.748,-15.5"/>
<polygon fill="midnightblue" stroke="midnightblue" points="154.133,-12.0001 144.133,-15.5 154.133,-19.0001 154.133,-12.0001"/>
</g>
</g>
</svg>
