<?xml version="1.0" encoding="UTF-8" standalone="no"?>
<!DOCTYPE svg PUBLIC "-//W3C//DTD SVG 1.1//EN"
 "http://www.w3.org/Graphics/SVG/1.1/DTD/svg11.dtd">
<!-- Generated by graphviz version 2.38.0 (20140413.2041)
 -->
<!-- Title: uhi_msc_mem_write_10_ram Pages: 1 -->
<svg width="419pt" height="230pt"
 viewBox="0.00 0.00 419.00 230.00" xmlns="http://www.w3.org/2000/svg" xmlns:xlink="http://www.w3.org/1999/xlink">
<g id="graph0" class="graph" transform="scale(1 1) rotate(0) translate(4 226)">
<title>uhi_msc_mem_write_10_ram</title>
<polygon fill="white" stroke="none" points="-4,4 -4,-226 415,-226 415,4 -4,4"/>
<!-- Node112 -->
<g id="node1" class="node"><title>Node112</title>
<polygon fill="#bfbfbf" stroke="black" points="0,-104.5 0,-123.5 157,-123.5 157,-104.5 0,-104.5"/>
<text text-anchor="middle" x="78.5" y="-111.5" font-family="Helvetica,sans-Serif" font-size="10.00">uhi_msc_mem_write_10_ram</text>
</g>
<!-- Node113 -->
<g id="node2" class="node"><title>Node113</title>
<g id="a_node2"><a xlink:href="group__uhi__msc__group.xhtml#ga2e7cf8daaa331de6b805e644955f0045" target="_top" xlink:title="Tests if the interface UHI Mass Storage is available The UHI Mass Storage can be busy during the enum...">
<polygon fill="white" stroke="black" points="211.5,-202.5 211.5,-221.5 327.5,-221.5 327.5,-202.5 211.5,-202.5"/>
<text text-anchor="middle" x="269.5" y="-209.5" font-family="Helvetica,sans-Serif" font-size="10.00">uhi_msc_is_available</text>
</a>
</g>
</g>
<!-- Node112&#45;&gt;Node113 -->
<g id="edge1" class="edge"><title>Node112&#45;&gt;Node113</title>
<path fill="none" stroke="midnightblue" d="M90.2679,-123.537C109.52,-140.098 151.704,-174.196 193,-193 198.359,-195.44 204.08,-197.6 209.885,-199.504"/>
<polygon fill="midnightblue" stroke="midnightblue" points="209.099,-202.923 219.685,-202.472 211.128,-196.224 209.099,-202.923"/>
</g>
<!-- Node114 -->
<g id="node3" class="node"><title>Node114</title>
<g id="a_node3"><a xlink:href="group__uhi__msc__group.xhtml#gae6006f5e44ec6833a9da65d1ede96bfc" target="_top" xlink:title="Gives information about a LUN. ">
<polygon fill="white" stroke="black" points="207,-164.5 207,-183.5 332,-183.5 332,-164.5 207,-164.5"/>
<text text-anchor="middle" x="269.5" y="-171.5" font-family="Helvetica,sans-Serif" font-size="10.00">uhi_msc_get_lun_desc</text>
</a>
</g>
</g>
<!-- Node112&#45;&gt;Node114 -->
<g id="edge2" class="edge"><title>Node112&#45;&gt;Node114</title>
<path fill="none" stroke="midnightblue" d="M109.448,-123.507C141.701,-133.746 193.172,-150.086 228.785,-161.392"/>
<polygon fill="midnightblue" stroke="midnightblue" points="227.79,-164.748 238.38,-164.438 229.908,-158.076 227.79,-164.748"/>
</g>
<!-- Node115 -->
<g id="node4" class="node"><title>Node115</title>
<g id="a_node4"><a xlink:href="group__udd__udphs__group.xhtml#gae90f972fe3687ee01b803027939cdb47" target="_top" xlink:title="if">
<polygon fill="white" stroke="black" points="382,-82.5 382,-101.5 411,-101.5 411,-82.5 382,-82.5"/>
<text text-anchor="middle" x="396.5" y="-89.5" font-family="Helvetica,sans-Serif" font-size="10.00">if</text>
</a>
</g>
</g>
<!-- Node112&#45;&gt;Node115 -->
<g id="edge3" class="edge"><title>Node112&#45;&gt;Node115</title>
<path fill="none" stroke="midnightblue" d="M145.103,-123.507C199.657,-129.338 278.934,-132.975 346,-117 355.289,-114.787 364.811,-110.536 372.991,-106.159"/>
<polygon fill="midnightblue" stroke="midnightblue" points="374.938,-109.077 381.882,-101.076 371.464,-103 374.938,-109.077"/>
</g>
<!-- Node116 -->
<g id="node5" class="node"><title>Node116</title>
<g id="a_node5"><a xlink:href="uhi__msc__mem_8c.xhtml#a4f7fb6cf8a5de35064cf3e51f0ead690" target="_top" xlink:title="Translates the LUN status from UHI MSC to CTRL ACCESS module. ">
<polygon fill="white" stroke="black" points="202,-77 202,-107 337,-107 337,-77 202,-77"/>
<text text-anchor="start" x="210" y="-95" font-family="Helvetica,sans-Serif" font-size="10.00">uhi_msc_mem_translate</text>
<text text-anchor="middle" x="269.5" y="-84" font-family="Helvetica,sans-Serif" font-size="10.00">_status</text>
</a>
</g>
</g>
<!-- Node112&#45;&gt;Node116 -->
<g id="edge4" class="edge"><title>Node112&#45;&gt;Node116</title>
<path fill="none" stroke="midnightblue" d="M157.192,-104.957C168.689,-103.618 180.529,-102.24 192.001,-100.905"/>
<polygon fill="midnightblue" stroke="midnightblue" points="192.442,-104.377 201.971,-99.7442 191.633,-97.4239 192.442,-104.377"/>
</g>
<!-- Node117 -->
<g id="node6" class="node"><title>Node117</title>
<g id="a_node6"><a xlink:href="group__uhi__msc__group.xhtml#ga75da7088270a7c90424b0530acda9001" target="_top" xlink:title="Writes a RAM buffer in a LUN data section Note: The sector size used to define the data section is th...">
<polygon fill="white" stroke="red" points="207,-38.5 207,-57.5 332,-57.5 332,-38.5 207,-38.5"/>
<text text-anchor="middle" x="269.5" y="-45.5" font-family="Helvetica,sans-Serif" font-size="10.00">uhi_msc_scsi_write_10</text>
</a>
</g>
</g>
<!-- Node112&#45;&gt;Node117 -->
<g id="edge5" class="edge"><title>Node112&#45;&gt;Node117</title>
<path fill="none" stroke="midnightblue" d="M100.955,-104.358C123.554,-94.4258 160.326,-78.9004 193,-68 201.318,-65.2251 210.25,-62.576 218.957,-60.1662"/>
<polygon fill="midnightblue" stroke="midnightblue" points="219.902,-63.5363 228.646,-57.5531 218.08,-56.7778 219.902,-63.5363"/>
</g>
<!-- Node151 -->
<g id="node7" class="node"><title>Node151</title>
<g id="a_node7"><a xlink:href="uhi__msc__mem_8c.xhtml#a14859935c7111906d25a6c4dda7ad37f" target="_top" xlink:title="Callback to update volatile variable used by pooling. ">
<polygon fill="white" stroke="black" points="193,-0.5 193,-19.5 346,-19.5 346,-0.5 193,-0.5"/>
<text text-anchor="middle" x="269.5" y="-7.5" font-family="Helvetica,sans-Serif" font-size="10.00">uhi_msc_mem_stop_pooling</text>
</a>
</g>
</g>
<!-- Node112&#45;&gt;Node151 -->
<g id="edge7" class="edge"><title>Node112&#45;&gt;Node151</title>
<path fill="none" stroke="midnightblue" d="M89.5261,-104.255C108.264,-86.5869 150.552,-49.2262 193,-29 198.033,-26.6017 203.405,-24.4829 208.875,-22.6159"/>
<polygon fill="midnightblue" stroke="midnightblue" points="210.275,-25.8453 218.776,-19.5212 208.187,-19.1641 210.275,-25.8453"/>
</g>
<!-- Node117&#45;&gt;Node115 -->
<g id="edge6" class="edge"><title>Node117&#45;&gt;Node115</title>
<path fill="none" stroke="midnightblue" d="M312.486,-57.5886C323.521,-60.5237 335.321,-64.0387 346,-68 355.01,-71.3423 364.585,-75.7651 372.889,-79.9026"/>
<polygon fill="midnightblue" stroke="midnightblue" points="371.447,-83.0967 381.942,-84.5469 374.642,-76.8684 371.447,-83.0967"/>
</g>
</g>
</svg>
