<?xml version="1.0" encoding="UTF-8" standalone="no"?>
<!DOCTYPE svg PUBLIC "-//W3C//DTD SVG 1.1//EN"
 "http://www.w3.org/Graphics/SVG/1.1/DTD/svg11.dtd">
<!-- Generated by graphviz version 2.38.0 (20140413.2041)
 -->
<!-- Title: UDP_MblWriteFifo Pages: 1 -->
<svg width="264pt" height="104pt"
 viewBox="0.00 0.00 264.00 104.00" xmlns="http://www.w3.org/2000/svg" xmlns:xlink="http://www.w3.org/1999/xlink">
<g id="graph0" class="graph" transform="scale(1 1) rotate(0) translate(4 100)">
<title>UDP_MblWriteFifo</title>
<polygon fill="white" stroke="none" points="-4,4 -4,-100 260,-100 260,4 -4,4"/>
<!-- Node173 -->
<g id="node1" class="node"><title>Node173</title>
<polygon fill="#bfbfbf" stroke="black" points="0,-38.5 0,-57.5 98,-57.5 98,-38.5 0,-38.5"/>
<text text-anchor="middle" x="49" y="-45.5" font-family="Helvetica,sans-Serif" font-size="10.00">UDP_MblWriteFifo</text>
</g>
<!-- Node174 -->
<g id="node2" class="node"><title>Node174</title>
<g id="a_node2"><a xlink:href="group__usbd__interface.xhtml#gafc4728f4af70056b3a271f333b759592" target="_top" xlink:title="Sends data through a USB endpoint. ">
<polygon fill="white" stroke="red" points="158,-76.5 158,-95.5 232,-95.5 232,-76.5 158,-76.5"/>
<text text-anchor="middle" x="195" y="-83.5" font-family="Helvetica,sans-Serif" font-size="10.00">USBD_Write</text>
</a>
</g>
</g>
<!-- Node173&#45;&gt;Node174 -->
<g id="edge1" class="edge"><title>Node173&#45;&gt;Node174</title>
<path fill="none" stroke="midnightblue" d="M96.1722,-60.1843C116.164,-65.46 139.219,-71.5438 157.924,-76.4799"/>
<polygon fill="midnightblue" stroke="midnightblue" points="96.8994,-56.7565 86.3373,-57.589 95.1132,-63.5248 96.8994,-56.7565"/>
</g>
<!-- Node272 -->
<g id="node3" class="node"><title>Node272</title>
<g id="a_node3"><a xlink:href="group__usbd__hal.xhtml#gafa6295dfe0e4e2eaaec7818940d64b18" target="_top" xlink:title="Endpoint interrupt handler. ">
<polygon fill="white" stroke="red" points="134,-38.5 134,-57.5 256,-57.5 256,-38.5 134,-38.5"/>
<text text-anchor="middle" x="195" y="-45.5" font-family="Helvetica,sans-Serif" font-size="10.00">UDP_EndpointHandler</text>
</a>
</g>
</g>
<!-- Node173&#45;&gt;Node272 -->
<g id="edge2" class="edge"><title>Node173&#45;&gt;Node272</title>
<path fill="none" stroke="midnightblue" d="M108.389,-48C116.748,-48 125.361,-48 133.755,-48"/>
<polygon fill="midnightblue" stroke="midnightblue" points="108.351,-44.5001 98.3505,-48 108.35,-51.5001 108.351,-44.5001"/>
</g>
<!-- Node275 -->
<g id="node4" class="node"><title>Node275</title>
<g id="a_node4"><a xlink:href="group__usbd__hal.xhtml#gaedece2a858b9ec25badf17f20ef8a7a7" target="_top" xlink:title="Sends data through a USB endpoint. ">
<polygon fill="white" stroke="red" points="158.5,-0.5 158.5,-19.5 231.5,-19.5 231.5,-0.5 158.5,-0.5"/>
<text text-anchor="middle" x="195" y="-7.5" font-family="Helvetica,sans-Serif" font-size="10.00">UDP_AddWr</text>
</a>
</g>
</g>
<!-- Node173&#45;&gt;Node275 -->
<g id="edge3" class="edge"><title>Node173&#45;&gt;Node275</title>
<path fill="none" stroke="midnightblue" d="M96.2107,-35.8055C116.283,-30.5087 139.436,-24.3989 158.173,-19.4543"/>
<polygon fill="midnightblue" stroke="midnightblue" points="95.1132,-32.4752 86.3373,-38.411 96.8994,-39.2435 95.1132,-32.4752"/>
</g>
</g>
</svg>
