<?xml version="1.0" encoding="UTF-8" standalone="no"?>
<!DOCTYPE svg PUBLIC "-//W3C//DTD SVG 1.1//EN"
 "http://www.w3.org/Graphics/SVG/1.1/DTD/svg11.dtd">
<!-- Generated by graphviz version 2.38.0 (20140413.2041)
 -->
<!-- Title: USBD_Write Pages: 1 -->
<svg width="287pt" height="104pt"
 viewBox="0.00 0.00 287.00 104.00" xmlns="http://www.w3.org/2000/svg" xmlns:xlink="http://www.w3.org/1999/xlink">
<g id="graph0" class="graph" transform="scale(1 1) rotate(0) translate(4 100)">
<title>USBD_Write</title>
<polygon fill="white" stroke="none" points="-4,4 -4,-100 283,-100 283,4 -4,4"/>
<!-- Node1064 -->
<g id="node1" class="node"><title>Node1064</title>
<polygon fill="#bfbfbf" stroke="black" points="0,-38.5 0,-57.5 74,-57.5 74,-38.5 0,-38.5"/>
<text text-anchor="middle" x="37" y="-45.5" font-family="Helvetica,sans-Serif" font-size="10.00">USBD_Write</text>
</g>
<!-- Node1065 -->
<g id="node2" class="node"><title>Node1065</title>
<g id="a_node2"><a xlink:href="group__usbd__hal.xhtml#gafcb94bdd4c0ea327621a187814ab4f9f" target="_top" xlink:title="Set callback for a USB endpoint for transfer (read/write). ">
<polygon fill="white" stroke="black" points="110,-76.5 110,-95.5 279,-95.5 279,-76.5 110,-76.5"/>
<text text-anchor="middle" x="194.5" y="-83.5" font-family="Helvetica,sans-Serif" font-size="10.00">USBD_HAL_SetTransferCallback</text>
</a>
</g>
</g>
<!-- Node1064&#45;&gt;Node1065 -->
<g id="edge1" class="edge"><title>Node1064&#45;&gt;Node1065</title>
<path fill="none" stroke="midnightblue" d="M73.0947,-57.5189C84.8094,-60.6274 97.9475,-64.0394 110,-67 119.746,-69.3939 130.157,-71.8463 140.206,-74.16"/>
<polygon fill="midnightblue" stroke="midnightblue" points="139.567,-77.6042 150.095,-76.4201 141.126,-70.7801 139.567,-77.6042"/>
</g>
<!-- Node1066 -->
<g id="node3" class="node"><title>Node1066</title>
<g id="a_node3"><a xlink:href="group__usbd__hal.xhtml#gab8293616e390cb94e93529673367acb4" target="_top" xlink:title="Sends data through a USB endpoint. ">
<polygon fill="white" stroke="red" points="145.5,-38.5 145.5,-57.5 243.5,-57.5 243.5,-38.5 145.5,-38.5"/>
<text text-anchor="middle" x="194.5" y="-45.5" font-family="Helvetica,sans-Serif" font-size="10.00">USBD_HAL_Write</text>
</a>
</g>
</g>
<!-- Node1064&#45;&gt;Node1066 -->
<g id="edge2" class="edge"><title>Node1064&#45;&gt;Node1066</title>
<path fill="none" stroke="midnightblue" d="M74.0657,-48C92.1792,-48 114.578,-48 135.066,-48"/>
<polygon fill="midnightblue" stroke="midnightblue" points="135.258,-51.5001 145.258,-48 135.257,-44.5001 135.258,-51.5001"/>
</g>
<!-- Node1085 -->
<g id="node4" class="node"><title>Node1085</title>
<g id="a_node4"><a xlink:href="group__usbd__hal.xhtml#ga57e97248d68838ee318ebeb26a85edaa" target="_top" xlink:title="Transfers a data payload from the current tranfer buffer to the endpoint FIFO. ">
<polygon fill="white" stroke="red" points="145.5,-0.5 145.5,-19.5 243.5,-19.5 243.5,-0.5 145.5,-0.5"/>
<text text-anchor="middle" x="194.5" y="-7.5" font-family="Helvetica,sans-Serif" font-size="10.00">UDP_MblWriteFifo</text>
</a>
</g>
</g>
<!-- Node1064&#45;&gt;Node1085 -->
<g id="edge3" class="edge"><title>Node1064&#45;&gt;Node1085</title>
<path fill="none" stroke="midnightblue" d="M73.0947,-38.4811C84.8094,-35.3726 97.9475,-31.9606 110,-29 119.746,-26.6061 130.157,-24.1537 140.206,-21.84"/>
<polygon fill="midnightblue" stroke="midnightblue" points="141.126,-25.2199 150.095,-19.5799 139.567,-18.3958 141.126,-25.2199"/>
</g>
</g>
</svg>
