<?xml version="1.0" encoding="UTF-8" standalone="no"?>
<!DOCTYPE svg PUBLIC "-//W3C//DTD SVG 1.1//EN"
 "http://www.w3.org/Graphics/SVG/1.1/DTD/svg11.dtd">
<!-- Generated by graphviz version 2.38.0 (20140413.2041)
 -->
<!-- Title: GMACD_InitTransfer Pages: 1 -->
<svg width="465pt" height="256pt"
 viewBox="0.00 0.00 465.00 256.00" xmlns="http://www.w3.org/2000/svg" xmlns:xlink="http://www.w3.org/1999/xlink">
<g id="graph0" class="graph" transform="scale(1 1) rotate(0) translate(4 252)">
<title>GMACD_InitTransfer</title>
<polygon fill="white" stroke="none" points="-4,4 -4,-252 461,-252 461,4 -4,4"/>
<!-- Node31 -->
<g id="node1" class="node"><title>Node31</title>
<polygon fill="#bfbfbf" stroke="black" points="0,-114.5 0,-133.5 110,-133.5 110,-114.5 0,-114.5"/>
<text text-anchor="middle" x="55" y="-121.5" font-family="Helvetica,sans-Serif" font-size="10.00">GMACD_InitTransfer</text>
</g>
<!-- Node32 -->
<g id="node2" class="node"><title>Node32</title>
<g id="a_node2"><a xlink:href="group__gmac__defines.xhtml#gab9a3c958b148a17ac3bff5cbc107b3bc" target="_top" xlink:title="Setup DMA configuration register. ">
<polygon fill="white" stroke="black" points="161.5,-228.5 161.5,-247.5 281.5,-247.5 281.5,-228.5 161.5,-228.5"/>
<text text-anchor="middle" x="221.5" y="-235.5" font-family="Helvetica,sans-Serif" font-size="10.00">GMAC_SetDMAConfig</text>
</a>
</g>
</g>
<!-- Node31&#45;&gt;Node32 -->
<g id="edge1" class="edge"><title>Node31&#45;&gt;Node32</title>
<path fill="none" stroke="midnightblue" d="M62.388,-133.789C75.5756,-153.187 107.799,-196.563 146,-219 149.69,-221.167 153.625,-223.09 157.684,-224.795"/>
<polygon fill="midnightblue" stroke="midnightblue" points="156.736,-228.177 167.328,-228.392 159.182,-221.618 156.736,-228.177"/>
</g>
<!-- Node33 -->
<g id="node3" class="node"><title>Node33</title>
<g id="a_node3"><a xlink:href="group__gmacd__defines.xhtml#ga0f4f9a29244618764ca63fb4c2ca058c" target="_top" xlink:title="Disable RX &amp; reset registers and descriptor list. ">
<polygon fill="white" stroke="red" points="173.5,-190.5 173.5,-209.5 269.5,-209.5 269.5,-190.5 173.5,-190.5"/>
<text text-anchor="middle" x="221.5" y="-197.5" font-family="Helvetica,sans-Serif" font-size="10.00">GMACD_ResetRx</text>
</a>
</g>
</g>
<!-- Node31&#45;&gt;Node33 -->
<g id="edge2" class="edge"><title>Node31&#45;&gt;Node33</title>
<path fill="none" stroke="midnightblue" d="M70.4606,-133.648C87.8319,-144.928 118.126,-163.626 146,-176 155.501,-180.218 165.977,-184.058 175.996,-187.369"/>
<polygon fill="midnightblue" stroke="midnightblue" points="175.219,-190.795 185.81,-190.499 177.346,-184.126 175.219,-190.795"/>
</g>
<!-- Node34 -->
<g id="node4" class="node"><title>Node34</title>
<g id="a_node4"><a xlink:href="group__gmac__defines.xhtml#ga3caa9d3dc5ec1e3e32e9e017702ef51e" target="_top" xlink:title="Enable/Disable GMAC receive. ">
<polygon fill="white" stroke="black" points="335.5,-161.5 335.5,-180.5 454.5,-180.5 454.5,-161.5 335.5,-161.5"/>
<text text-anchor="middle" x="395" y="-168.5" font-family="Helvetica,sans-Serif" font-size="10.00">GMAC_ReceiveEnable</text>
</a>
</g>
</g>
<!-- Node31&#45;&gt;Node34 -->
<g id="edge7" class="edge"><title>Node31&#45;&gt;Node34</title>
<path fill="none" stroke="midnightblue" d="M97.0653,-133.533C112.366,-136.857 129.92,-140.401 146,-143 206.326,-152.75 275.452,-160.256 325.373,-165.03"/>
<polygon fill="midnightblue" stroke="midnightblue" points="325.124,-168.522 335.409,-165.978 325.782,-161.553 325.124,-168.522"/>
</g>
<!-- Node36 -->
<g id="node5" class="node"><title>Node36</title>
<g id="a_node5"><a xlink:href="group__gmacd__defines.xhtml#gaa4fcf5f239a30ef23cc9ba6b40054117" target="_top" xlink:title="Disable TX &amp; reset registers and descriptor list. ">
<polygon fill="white" stroke="red" points="174,-114.5 174,-133.5 269,-133.5 269,-114.5 174,-114.5"/>
<text text-anchor="middle" x="221.5" y="-121.5" font-family="Helvetica,sans-Serif" font-size="10.00">GMACD_ResetTx</text>
</a>
</g>
</g>
<!-- Node31&#45;&gt;Node36 -->
<g id="edge4" class="edge"><title>Node31&#45;&gt;Node36</title>
<path fill="none" stroke="midnightblue" d="M110.319,-124C127.369,-124 146.236,-124 163.468,-124"/>
<polygon fill="midnightblue" stroke="midnightblue" points="163.955,-127.5 173.955,-124 163.955,-120.5 163.955,-127.5"/>
</g>
<!-- Node37 -->
<g id="node6" class="node"><title>Node37</title>
<g id="a_node6"><a xlink:href="group__gmac__defines.xhtml#ga43e952eb0a8ec8d8131ac69b6a30842d" target="_top" xlink:title="Enable/Disable GMAC transmit. ">
<polygon fill="white" stroke="black" points="333,-104.5 333,-123.5 457,-123.5 457,-104.5 333,-104.5"/>
<text text-anchor="middle" x="395" y="-111.5" font-family="Helvetica,sans-Serif" font-size="10.00">GMAC_TransmitEnable</text>
</a>
</g>
</g>
<!-- Node31&#45;&gt;Node37 -->
<g id="edge6" class="edge"><title>Node31&#45;&gt;Node37</title>
<path fill="none" stroke="midnightblue" d="M92.5079,-114.491C108.761,-110.726 128.211,-106.857 146,-105 205.432,-98.795 273.26,-101.955 322.941,-106.154"/>
<polygon fill="midnightblue" stroke="midnightblue" points="322.674,-109.644 332.943,-107.034 323.288,-102.671 322.674,-109.644"/>
</g>
<!-- Node39 -->
<g id="node7" class="node"><title>Node39</title>
<g id="a_node7"><a xlink:href="group__gmac__defines.xhtml#gaf6fe272b7c94b53548c728c9b336cc5e" target="_top" xlink:title="Enable/Disable statistics registers writing. ">
<polygon fill="white" stroke="black" points="146,-38.5 146,-57.5 297,-57.5 297,-38.5 146,-38.5"/>
<text text-anchor="middle" x="221.5" y="-45.5" font-family="Helvetica,sans-Serif" font-size="10.00">GMAC_StatisticsWriteEnable</text>
</a>
</g>
</g>
<!-- Node31&#45;&gt;Node39 -->
<g id="edge8" class="edge"><title>Node31&#45;&gt;Node39</title>
<path fill="none" stroke="midnightblue" d="M70.4606,-114.352C87.8319,-103.072 118.126,-84.3737 146,-72 155.501,-67.7823 165.977,-63.9421 175.996,-60.6305"/>
<polygon fill="midnightblue" stroke="midnightblue" points="177.346,-63.8737 185.81,-57.5007 175.219,-57.2047 177.346,-63.8737"/>
</g>
<!-- Node40 -->
<g id="node8" class="node"><title>Node40</title>
<g id="a_node8"><a xlink:href="group__gmac__defines.xhtml#ga7ada4663e83402d9ca6da62f166e115f" target="_top" xlink:title="Enable interrupt(s). ">
<polygon fill="white" stroke="black" points="177,-0.5 177,-19.5 266,-19.5 266,-0.5 177,-0.5"/>
<text text-anchor="middle" x="221.5" y="-7.5" font-family="Helvetica,sans-Serif" font-size="10.00">GMAC_EnableIt</text>
</a>
</g>
</g>
<!-- Node31&#45;&gt;Node40 -->
<g id="edge9" class="edge"><title>Node31&#45;&gt;Node40</title>
<path fill="none" stroke="midnightblue" d="M62.388,-114.211C75.5756,-94.8131 107.799,-51.437 146,-29 152.409,-25.2355 159.556,-22.2096 166.815,-19.7793"/>
<polygon fill="midnightblue" stroke="midnightblue" points="168.144,-23.0352 176.725,-16.8209 166.142,-16.3277 168.144,-23.0352"/>
</g>
<!-- Node33&#45;&gt;Node34 -->
<g id="edge3" class="edge"><title>Node33&#45;&gt;Node34</title>
<path fill="none" stroke="midnightblue" d="M269.817,-191.999C287.716,-188.972 308.432,-185.469 327.753,-182.202"/>
<polygon fill="midnightblue" stroke="midnightblue" points="328.431,-185.637 337.707,-180.519 327.264,-178.735 328.431,-185.637"/>
</g>
<!-- Node36&#45;&gt;Node37 -->
<g id="edge5" class="edge"><title>Node36&#45;&gt;Node37</title>
<path fill="none" stroke="midnightblue" d="M269.363,-121.267C285.772,-120.311 304.59,-119.213 322.548,-118.166"/>
<polygon fill="midnightblue" stroke="midnightblue" points="322.926,-121.65 332.705,-117.574 322.518,-114.662 322.926,-121.65"/>
</g>
</g>
</svg>
