<?xml version="1.0" encoding="UTF-8" standalone="no"?>
<!DOCTYPE svg PUBLIC "-//W3C//DTD SVG 1.1//EN"
 "http://www.w3.org/Graphics/SVG/1.1/DTD/svg11.dtd">
<!-- Generated by graphviz version 2.38.0 (20140413.2041)
 -->
<!-- Title: CDCDEEMPort_RequestHandler Pages: 1 -->
<svg width="383pt" height="66pt"
 viewBox="0.00 0.00 383.00 66.00" xmlns="http://www.w3.org/2000/svg" xmlns:xlink="http://www.w3.org/1999/xlink">
<g id="graph0" class="graph" transform="scale(1 1) rotate(0) translate(4 62)">
<title>CDCDEEMPort_RequestHandler</title>
<polygon fill="white" stroke="none" points="-4,4 -4,-62 379,-62 379,4 -4,4"/>
<!-- Node805 -->
<g id="node1" class="node"><title>Node805</title>
<polygon fill="#bfbfbf" stroke="black" points="0,-19.5 0,-38.5 166,-38.5 166,-19.5 0,-19.5"/>
<text text-anchor="middle" x="83" y="-26.5" font-family="Helvetica,sans-Serif" font-size="10.00">CDCDEEMPort_RequestHandler</text>
</g>
<!-- Node806 -->
<g id="node2" class="node"><title>Node806</title>
<g id="a_node2"><a xlink:href="group__usb__request.xhtml#ga5c2f01b3ad2dbd22cce9b97aa27ca975" target="_top" xlink:title="Returns the type of the given request. ">
<polygon fill="white" stroke="black" points="210.5,-38.5 210.5,-57.5 366.5,-57.5 366.5,-38.5 210.5,-38.5"/>
<text text-anchor="middle" x="288.5" y="-45.5" font-family="Helvetica,sans-Serif" font-size="10.00">USBGenericRequest_GetType</text>
</a>
</g>
</g>
<!-- Node805&#45;&gt;Node806 -->
<g id="edge1" class="edge"><title>Node805&#45;&gt;Node806</title>
<path fill="none" stroke="midnightblue" d="M166.185,-36.6733C177.333,-37.7141 188.807,-38.7854 200.043,-39.8345"/>
<polygon fill="midnightblue" stroke="midnightblue" points="199.998,-43.3454 210.28,-40.7902 200.648,-36.3757 199.998,-43.3454"/>
</g>
<!-- Node807 -->
<g id="node3" class="node"><title>Node807</title>
<g id="a_node3"><a xlink:href="group__usb__request.xhtml#gace388a4d862a1a39dfce506fe4189e82" target="_top" xlink:title="Returns the request code of the given request. ">
<polygon fill="white" stroke="black" points="202,-0.5 202,-19.5 375,-19.5 375,-0.5 202,-0.5"/>
<text text-anchor="middle" x="288.5" y="-7.5" font-family="Helvetica,sans-Serif" font-size="10.00">USBGenericRequest_GetRequest</text>
</a>
</g>
</g>
<!-- Node805&#45;&gt;Node807 -->
<g id="edge2" class="edge"><title>Node805&#45;&gt;Node807</title>
<path fill="none" stroke="midnightblue" d="M166.185,-21.3267C174.589,-20.5421 183.178,-19.7401 191.711,-18.9434"/>
<polygon fill="midnightblue" stroke="midnightblue" points="192.057,-22.4264 201.688,-18.0119 191.406,-15.4568 192.057,-22.4264"/>
</g>
</g>
</svg>
