<?xml version="1.0" encoding="UTF-8" standalone="no"?>
<!DOCTYPE svg PUBLIC "-//W3C//DTD SVG 1.1//EN"
 "http://www.w3.org/Graphics/SVG/1.1/DTD/svg11.dtd">
<!-- Generated by graphviz version 2.38.0 (20140413.2041)
 -->
<!-- Title: Working with HSMCI Pages: 1 -->
<svg width="393pt" height="39pt"
 viewBox="0.00 0.00 393.00 39.00" xmlns="http://www.w3.org/2000/svg" xmlns:xlink="http://www.w3.org/1999/xlink">
<g id="graph0" class="graph" transform="scale(1 1) rotate(0) translate(4 35)">
<title>Working with HSMCI</title>
<polygon fill="white" stroke="none" points="-4,4 -4,-35 389,-35 389,4 -4,4"/>
<!-- Node2 -->
<g id="node1" class="node"><title>Node2</title>
<g id="a_node1"><a xlink:href="group__hsmci__functions.xhtml" target="_top" xlink:title="HSMCI Functions">
<polygon fill="white" stroke="black" points="289,-6 289,-25 385,-25 385,-6 289,-6"/>
<text text-anchor="middle" x="337" y="-13" font-family="Helvetica,sans-Serif" font-size="10.00">HSMCI Functions</text>
</a>
</g>
</g>
<!-- Node1 -->
<g id="node2" class="node"><title>Node1</title>
<g id="a_node2"><a xlink:href="group__mcid__module.xhtml" target="_top" xlink:title="MCI Driver (HAL for\l SD/MMC Lib)">
<polygon fill="white" stroke="black" points="0,-0.5 0,-30.5 107,-30.5 107,-0.5 0,-0.5"/>
<text text-anchor="start" x="8" y="-18.5" font-family="Helvetica,sans-Serif" font-size="10.00">MCI Driver (HAL for</text>
<text text-anchor="middle" x="53.5" y="-7.5" font-family="Helvetica,sans-Serif" font-size="10.00"> SD/MMC Lib)</text>
</a>
</g>
</g>
<!-- Node0 -->
<g id="node3" class="node"><title>Node0</title>
<polygon fill="#bfbfbf" stroke="black" points="143,-6 143,-25 253,-25 253,-6 143,-6"/>
<text text-anchor="middle" x="198" y="-13" font-family="Helvetica,sans-Serif" font-size="10.00">Working with HSMCI</text>
</g>
<!-- Node1&#45;&gt;Node0 -->
<g id="edge1" class="edge"><title>Node1&#45;&gt;Node0</title>
<path fill="none" stroke="black" d="M117.339,-15.5C125.778,-15.5 134.376,-15.5 142.652,-15.5"/>
<polygon fill="black" stroke="black" points="117.157,-12.0001 107.157,-15.5 117.157,-19.0001 117.157,-12.0001"/>
</g>
<!-- Node0&#45;&gt;Node2 -->
<g id="edge2" class="edge"><title>Node0&#45;&gt;Node2</title>
<path fill="none" stroke="black" d="M263.225,-15.5C271.875,-15.5 280.616,-15.5 288.894,-15.5"/>
<polygon fill="black" stroke="black" points="263.146,-12.0001 253.146,-15.5 263.146,-19.0001 263.146,-12.0001"/>
</g>
</g>
</svg>
