<?xml version="1.0" encoding="UTF-8" standalone="no"?>
<!DOCTYPE svg PUBLIC "-//W3C//DTD SVG 1.1//EN"
 "http://www.w3.org/Graphics/SVG/1.1/DTD/svg11.dtd">
<!-- Generated by graphviz version 2.38.0 (20140413.2041)
 -->
<!-- Title: USBH_HAL_SetupReq Pages: 1 -->
<svg width="332pt" height="104pt"
 viewBox="0.00 0.00 332.00 104.00" xmlns="http://www.w3.org/2000/svg" xmlns:xlink="http://www.w3.org/1999/xlink">
<g id="graph0" class="graph" transform="scale(1 1) rotate(0) translate(4 100)">
<title>USBH_HAL_SetupReq</title>
<polygon fill="white" stroke="none" points="-4,4 -4,-100 328,-100 328,4 -4,4"/>
<!-- Node874 -->
<g id="node1" class="node"><title>Node874</title>
<polygon fill="#bfbfbf" stroke="black" points="0,-38.5 0,-57.5 121,-57.5 121,-38.5 0,-38.5"/>
<text text-anchor="middle" x="60.5" y="-45.5" font-family="Helvetica,sans-Serif" font-size="10.00">USBH_HAL_SetupReq</text>
</g>
<!-- Node875 -->
<g id="node2" class="node"><title>Node875</title>
<g id="a_node2"><a xlink:href="group__interrupt__group.xhtml#ga9931bf539005d3f12b461928823a0ae2" target="_top" xlink:title="cpu_irq_save">
<polygon fill="white" stroke="black" points="201,-76.5 201,-95.5 280,-95.5 280,-76.5 201,-76.5"/>
<text text-anchor="middle" x="240.5" y="-83.5" font-family="Helvetica,sans-Serif" font-size="10.00">cpu_irq_save</text>
</a>
</g>
</g>
<!-- Node874&#45;&gt;Node875 -->
<g id="edge1" class="edge"><title>Node874&#45;&gt;Node875</title>
<path fill="none" stroke="midnightblue" d="M106.417,-57.589C132.261,-63.1064 164.741,-70.0402 191.143,-75.6767"/>
<polygon fill="midnightblue" stroke="midnightblue" points="190.428,-79.1027 200.938,-77.7677 191.889,-72.257 190.428,-79.1027"/>
</g>
<!-- Node876 -->
<g id="node3" class="node"><title>Node876</title>
<g id="a_node3"><a xlink:href="group__interrupt__group.xhtml#gae4d6d11a5211f6bd00353f280aa78f6f" target="_top" xlink:title="cpu_irq_restore">
<polygon fill="white" stroke="red" points="195,-38.5 195,-57.5 286,-57.5 286,-38.5 195,-38.5"/>
<text text-anchor="middle" x="240.5" y="-45.5" font-family="Helvetica,sans-Serif" font-size="10.00">cpu_irq_restore</text>
</a>
</g>
</g>
<!-- Node874&#45;&gt;Node876 -->
<g id="edge2" class="edge"><title>Node874&#45;&gt;Node876</title>
<path fill="none" stroke="midnightblue" d="M121.267,-48C141.736,-48 164.526,-48 184.593,-48"/>
<polygon fill="midnightblue" stroke="midnightblue" points="184.811,-51.5001 194.811,-48 184.811,-44.5001 184.811,-51.5001"/>
</g>
<!-- Node878 -->
<g id="node4" class="node"><title>Node878</title>
<g id="a_node4"><a xlink:href="group__uhd__group.xhtml#ga1ddb6a33201674d513c4ad9c5de79e93" target="_top" xlink:title="USBH_HAL_PhaseControlSetup">
<polygon fill="white" stroke="red" points="157,-0.5 157,-19.5 324,-19.5 324,-0.5 157,-0.5"/>
<text text-anchor="middle" x="240.5" y="-7.5" font-family="Helvetica,sans-Serif" font-size="10.00">USBH_HAL_PhaseControlSetup</text>
</a>
</g>
</g>
<!-- Node874&#45;&gt;Node878 -->
<g id="edge3" class="edge"><title>Node874&#45;&gt;Node878</title>
<path fill="none" stroke="midnightblue" d="M106.417,-38.411C130.329,-33.3061 159.921,-26.9887 185.125,-21.6082"/>
<polygon fill="midnightblue" stroke="midnightblue" points="185.857,-25.0308 194.906,-19.5201 184.396,-18.185 185.857,-25.0308"/>
</g>
</g>
</svg>
