<?xml version="1.0" encoding="UTF-8" standalone="no"?>
<!DOCTYPE svg PUBLIC "-//W3C//DTD SVG 1.1//EN"
 "http://www.w3.org/Graphics/SVG/1.1/DTD/svg11.dtd">
<!-- Generated by graphviz version 2.38.0 (20140413.2041)
 -->
<!-- Title: Digital&#45;to&#45;Analog Converter Controller Pages: 1 -->
<svg width="363pt" height="88pt"
 viewBox="0.00 0.00 363.00 88.00" xmlns="http://www.w3.org/2000/svg" xmlns:xlink="http://www.w3.org/1999/xlink">
<g id="graph0" class="graph" transform="scale(1 1) rotate(0) translate(4 84)">
<title>Digital&#45;to&#45;Analog Converter Controller</title>
<polygon fill="white" stroke="none" points="-4,4 -4,-84 359,-84 359,4 -4,4"/>
<!-- Node0 -->
<g id="node1" class="node"><title>Node0</title>
<polygon fill="#bfbfbf" stroke="black" points="0,-24.5 0,-54.5 147,-54.5 147,-24.5 0,-24.5"/>
<text text-anchor="start" x="8" y="-42.5" font-family="Helvetica,sans-Serif" font-size="10.00">Digital&#45;to&#45;Analog Converter</text>
<text text-anchor="middle" x="73.5" y="-31.5" font-family="Helvetica,sans-Serif" font-size="10.00"> Controller</text>
</g>
<!-- Node2 -->
<g id="node2" class="node"><title>Node2</title>
<g id="a_node2"><a xlink:href="group___s_a_m_s70___d_a_c_c.xhtml" target="_top" xlink:title="SOFTWARE API DEFINITION FOR Digital&#45;to&#45;Analog Converter Controller. ">
<polygon fill="white" stroke="black" points="208,-49.5 208,-79.5 355,-79.5 355,-49.5 208,-49.5"/>
<text text-anchor="start" x="216" y="-67.5" font-family="Helvetica,sans-Serif" font-size="10.00">Digital&#45;to&#45;Analog Converter</text>
<text text-anchor="middle" x="281.5" y="-56.5" font-family="Helvetica,sans-Serif" font-size="10.00"> Controller</text>
</a>
</g>
</g>
<!-- Node0&#45;&gt;Node2 -->
<g id="edge2" class="edge"><title>Node0&#45;&gt;Node2</title>
<path fill="none" stroke="orange" stroke-dasharray="5,2" d="M147.128,-48.3141C166.82,-50.7039 188.139,-53.2912 207.834,-55.6813"/>
<text text-anchor="middle" x="177.5" y="-55.5" font-family="Helvetica,sans-Serif" font-size="10.00">Dacc</text>
</g>
<!-- Node1 -->
<g id="node3" class="node"><title>Node1</title>
<g id="a_node3"><a xlink:href="group___s_a_m_e70___d_a_c_c.xhtml" target="_top" xlink:title="SOFTWARE API DEFINITION FOR Digital&#45;to&#45;Analog Converter Controller. ">
<polygon fill="white" stroke="black" points="208,-0.5 208,-30.5 355,-30.5 355,-0.5 208,-0.5"/>
<text text-anchor="start" x="216" y="-18.5" font-family="Helvetica,sans-Serif" font-size="10.00">Digital&#45;to&#45;Analog Converter</text>
<text text-anchor="middle" x="281.5" y="-7.5" font-family="Helvetica,sans-Serif" font-size="10.00"> Controller</text>
</a>
</g>
</g>
<!-- Node0&#45;&gt;Node1 -->
<g id="edge1" class="edge"><title>Node0&#45;&gt;Node1</title>
<path fill="none" stroke="orange" stroke-dasharray="5,2" d="M147.128,-31.0385C166.82,-28.7442 188.139,-26.2605 207.834,-23.966"/>
<text text-anchor="middle" x="177.5" y="-31.5" font-family="Helvetica,sans-Serif" font-size="10.00">Dacc</text>
</g>
</g>
</svg>
