<?xml version="1.0" encoding="UTF-8" standalone="no"?>
<!DOCTYPE svg PUBLIC "-//W3C//DTD SVG 1.1//EN"
 "http://www.w3.org/Graphics/SVG/1.1/DTD/svg11.dtd">
<!-- Generated by graphviz version 2.38.0 (20140413.2041)
 -->
<!-- Title: XDMAD_Initialize Pages: 1 -->
<svg width="264pt" height="142pt"
 viewBox="0.00 0.00 264.00 142.00" xmlns="http://www.w3.org/2000/svg" xmlns:xlink="http://www.w3.org/1999/xlink">
<g id="graph0" class="graph" transform="scale(1 1) rotate(0) translate(4 138)">
<title>XDMAD_Initialize</title>
<polygon fill="white" stroke="none" points="-4,4 -4,-138 260,-138 260,4 -4,4"/>
<!-- Node232 -->
<g id="node1" class="node"><title>Node232</title>
<polygon fill="#bfbfbf" stroke="black" points="0,-57.5 0,-76.5 96,-76.5 96,-57.5 0,-57.5"/>
<text text-anchor="middle" x="48" y="-64.5" font-family="Helvetica,sans-Serif" font-size="10.00">XDMAD_Initialize</text>
</g>
<!-- Node233 -->
<g id="node2" class="node"><title>Node233</title>
<g id="a_node2"><a xlink:href="group__dmac__functions.xhtml#ga601f8b23ff2c1b632f4a905c5bbed8ce" target="_top" xlink:title="Get XDMAC global type. ">
<polygon fill="white" stroke="black" points="146.5,-114.5 146.5,-133.5 241.5,-133.5 241.5,-114.5 146.5,-114.5"/>
<text text-anchor="middle" x="194" y="-121.5" font-family="Helvetica,sans-Serif" font-size="10.00">XDMAC_GetType</text>
</a>
</g>
</g>
<!-- Node232&#45;&gt;Node233 -->
<g id="edge1" class="edge"><title>Node232&#45;&gt;Node233</title>
<path fill="none" stroke="midnightblue" d="M68.1558,-76.6157C84.7901,-84.7602 109.651,-96.4434 132,-105 137.641,-107.16 143.642,-109.26 149.594,-111.229"/>
<polygon fill="midnightblue" stroke="midnightblue" points="148.904,-114.683 159.495,-114.405 151.042,-108.018 148.904,-114.683"/>
</g>
<!-- Node234 -->
<g id="node3" class="node"><title>Node234</title>
<g id="a_node3"><a xlink:href="group___c_m_s_i_s___core___n_v_i_c_functions.xhtml#ga332e10ef9605dc6eb10b9e14511930f8" target="_top" xlink:title="Clear Pending Interrupt. ">
<polygon fill="white" stroke="black" points="132,-76.5 132,-95.5 256,-95.5 256,-76.5 132,-76.5"/>
<text text-anchor="middle" x="194" y="-83.5" font-family="Helvetica,sans-Serif" font-size="10.00">NVIC_ClearPendingIRQ</text>
</a>
</g>
</g>
<!-- Node232&#45;&gt;Node234 -->
<g id="edge2" class="edge"><title>Node232&#45;&gt;Node234</title>
<path fill="none" stroke="midnightblue" d="M96.151,-73.2213C104.346,-74.3026 113.03,-75.4484 121.701,-76.5925"/>
<polygon fill="midnightblue" stroke="midnightblue" points="121.471,-80.0924 131.843,-77.9307 122.387,-73.1525 121.471,-80.0924"/>
</g>
<!-- Node235 -->
<g id="node4" class="node"><title>Node235</title>
<g id="a_node4"><a xlink:href="group___c_m_s_i_s___core___n_v_i_c_functions.xhtml#ga2305cbd44aaad792e3a4e538bdaf14f9" target="_top" xlink:title="Set Interrupt Priority. ">
<polygon fill="white" stroke="black" points="146.5,-38.5 146.5,-57.5 241.5,-57.5 241.5,-38.5 146.5,-38.5"/>
<text text-anchor="middle" x="194" y="-45.5" font-family="Helvetica,sans-Serif" font-size="10.00">NVIC_SetPriority</text>
</a>
</g>
</g>
<!-- Node232&#45;&gt;Node235 -->
<g id="edge3" class="edge"><title>Node232&#45;&gt;Node235</title>
<path fill="none" stroke="midnightblue" d="M96.151,-60.7787C108.962,-59.0883 122.97,-57.2401 136.252,-55.4876"/>
<polygon fill="midnightblue" stroke="midnightblue" points="136.779,-58.9485 146.235,-54.1704 135.863,-52.0087 136.779,-58.9485"/>
</g>
<!-- Node236 -->
<g id="node5" class="node"><title>Node236</title>
<g id="a_node5"><a xlink:href="group___c_m_s_i_s___core___n_v_i_c_functions.xhtml#ga3349f2e3580d7ce22d6530b7294e5921" target="_top" xlink:title="Enable External Interrupt. ">
<polygon fill="white" stroke="black" points="147.5,-0.5 147.5,-19.5 240.5,-19.5 240.5,-0.5 147.5,-0.5"/>
<text text-anchor="middle" x="194" y="-7.5" font-family="Helvetica,sans-Serif" font-size="10.00">NVIC_EnableIRQ</text>
</a>
</g>
</g>
<!-- Node232&#45;&gt;Node236 -->
<g id="edge4" class="edge"><title>Node232&#45;&gt;Node236</title>
<path fill="none" stroke="midnightblue" d="M68.1558,-57.3843C84.7901,-49.2398 109.651,-37.5566 132,-29 137.641,-26.8404 143.642,-24.7398 149.594,-22.771"/>
<polygon fill="midnightblue" stroke="midnightblue" points="151.042,-25.9823 159.495,-19.5946 148.904,-19.3169 151.042,-25.9823"/>
</g>
</g>
</svg>
