<?xml version="1.0" encoding="UTF-8" standalone="no"?>
<!DOCTYPE svg PUBLIC "-//W3C//DTD SVG 1.1//EN"
 "http://www.w3.org/Graphics/SVG/1.1/DTD/svg11.dtd">
<!-- Generated by graphviz version 2.38.0 (20140413.2041)
 -->
<!-- Title: HIDMSDDriver_RemoteWakeUp Pages: 1 -->
<svg width="370pt" height="116pt"
 viewBox="0.00 0.00 370.00 116.00" xmlns="http://www.w3.org/2000/svg" xmlns:xlink="http://www.w3.org/1999/xlink">
<g id="graph0" class="graph" transform="scale(1 1) rotate(0) translate(4 112)">
<title>HIDMSDDriver_RemoteWakeUp</title>
<polygon fill="white" stroke="none" points="-4,4 -4,-112 366,-112 366,4 -4,4"/>
<!-- Node50 -->
<g id="node1" class="node"><title>Node50</title>
<polygon fill="#bfbfbf" stroke="black" points="0,-44.5 0,-63.5 165,-63.5 165,-44.5 0,-44.5"/>
<text text-anchor="middle" x="82.5" y="-51.5" font-family="Helvetica,sans-Serif" font-size="10.00">HIDMSDDriver_RemoteWakeUp</text>
</g>
<!-- Node51 -->
<g id="node2" class="node"><title>Node51</title>
<g id="a_node2"><a xlink:href="group__usbd__interface.xhtml#ga01ba3ff549b968edc152cdb23c2027d1" target="_top" xlink:title="Return USBDDriver instance pointer for global usage. ">
<polygon fill="white" stroke="black" points="233.5,-88.5 233.5,-107.5 329.5,-107.5 329.5,-88.5 233.5,-88.5"/>
<text text-anchor="middle" x="281.5" y="-95.5" font-family="Helvetica,sans-Serif" font-size="10.00">USBD_GetDriver</text>
</a>
</g>
</g>
<!-- Node50&#45;&gt;Node51 -->
<g id="edge1" class="edge"><title>Node50&#45;&gt;Node51</title>
<path fill="none" stroke="midnightblue" d="M126.246,-63.5473C156.063,-70.2069 196.042,-79.1363 227.828,-86.2358"/>
<polygon fill="midnightblue" stroke="midnightblue" points="227.315,-89.7073 237.837,-88.4713 228.841,-82.8756 227.315,-89.7073"/>
</g>
<!-- Node52 -->
<g id="node3" class="node"><title>Node52</title>
<g id="a_node3"><a xlink:href="group__usbd__interface.xhtml#ga0907be664b7193af543d1032c6de8606" target="_top" xlink:title="Test if RemoteWakeUP feature is enabled. ">
<polygon fill="white" stroke="black" points="201,-39 201,-69 362,-69 362,-39 201,-39"/>
<text text-anchor="start" x="209" y="-57" font-family="Helvetica,sans-Serif" font-size="10.00">USBDDriver_IsRemoteWakeUp</text>
<text text-anchor="middle" x="281.5" y="-46" font-family="Helvetica,sans-Serif" font-size="10.00">Enabled</text>
</a>
</g>
</g>
<!-- Node50&#45;&gt;Node52 -->
<g id="edge2" class="edge"><title>Node50&#45;&gt;Node52</title>
<path fill="none" stroke="midnightblue" d="M165.049,-54C173.571,-54 182.266,-54 190.871,-54"/>
<polygon fill="midnightblue" stroke="midnightblue" points="190.914,-57.5001 200.914,-54 190.914,-50.5001 190.914,-57.5001"/>
</g>
<!-- Node53 -->
<g id="node4" class="node"><title>Node53</title>
<g id="a_node4"><a xlink:href="group__usbd__interface.xhtml#gacfd4fed846cba74af43e668e47b6dc10" target="_top" xlink:title="Starts a remote wake&#45;up procedure. ">
<polygon fill="white" stroke="red" points="219,-0.5 219,-19.5 344,-19.5 344,-0.5 219,-0.5"/>
<text text-anchor="middle" x="281.5" y="-7.5" font-family="Helvetica,sans-Serif" font-size="10.00">USBD_RemoteWakeUp</text>
</a>
</g>
</g>
<!-- Node50&#45;&gt;Node53 -->
<g id="edge3" class="edge"><title>Node50&#45;&gt;Node53</title>
<path fill="none" stroke="midnightblue" d="M126.246,-44.4527C156.063,-37.7931 196.042,-28.8637 227.828,-21.7642"/>
<polygon fill="midnightblue" stroke="midnightblue" points="228.841,-25.1244 237.837,-19.5287 227.315,-18.2927 228.841,-25.1244"/>
</g>
</g>
</svg>
