<?xml version="1.0" encoding="UTF-8" standalone="no"?>
<!DOCTYPE svg PUBLIC "-//W3C//DTD SVG 1.1//EN"
 "http://www.w3.org/Graphics/SVG/1.1/DTD/svg11.dtd">
<!-- Generated by graphviz version 2.38.0 (20140413.2041)
 -->
<!-- Title: _SetLineCodingCallback Pages: 1 -->
<svg width="249pt" height="66pt"
 viewBox="0.00 0.00 249.00 66.00" xmlns="http://www.w3.org/2000/svg" xmlns:xlink="http://www.w3.org/1999/xlink">
<g id="graph0" class="graph" transform="scale(1 1) rotate(0) translate(4 62)">
<title>_SetLineCodingCallback</title>
<polygon fill="white" stroke="none" points="-4,4 -4,-62 245,-62 245,4 -4,4"/>
<!-- Node161 -->
<g id="node1" class="node"><title>Node161</title>
<polygon fill="#bfbfbf" stroke="black" points="0,-19.5 0,-38.5 131,-38.5 131,-19.5 0,-19.5"/>
<text text-anchor="middle" x="65.5" y="-26.5" font-family="Helvetica,sans-Serif" font-size="10.00">_SetLineCodingCallback</text>
</g>
<!-- Node162 -->
<g id="node2" class="node"><title>Node162</title>
<g id="a_node2"><a xlink:href="group__usbd__interface.xhtml#gafc4728f4af70056b3a271f333b759592" target="_top" xlink:title="Sends data through a USB endpoint. ">
<polygon fill="white" stroke="red" points="167,-38.5 167,-57.5 241,-57.5 241,-38.5 167,-38.5"/>
<text text-anchor="middle" x="204" y="-45.5" font-family="Helvetica,sans-Serif" font-size="10.00">USBD_Write</text>
</a>
</g>
</g>
<!-- Node161&#45;&gt;Node162 -->
<g id="edge1" class="edge"><title>Node161&#45;&gt;Node162</title>
<path fill="none" stroke="midnightblue" d="M131.152,-37.9992C139.777,-39.1997 148.478,-40.4108 156.703,-41.5557"/>
<polygon fill="midnightblue" stroke="midnightblue" points="156.438,-45.0525 166.825,-42.9647 157.403,-38.1193 156.438,-45.0525"/>
</g>
<!-- Node185 -->
<g id="node3" class="node"><title>Node185</title>
<g id="a_node3"><a xlink:href="group__usbd__interface.xhtml#gad846cf5a2a002f83abe01d17d233f644" target="_top" xlink:title="Causes the given endpoint to acknowledge the next packet it receives with a STALL handshake...">
<polygon fill="white" stroke="red" points="168.5,-0.5 168.5,-19.5 239.5,-19.5 239.5,-0.5 168.5,-0.5"/>
<text text-anchor="middle" x="204" y="-7.5" font-family="Helvetica,sans-Serif" font-size="10.00">USBD_Stall</text>
</a>
</g>
</g>
<!-- Node161&#45;&gt;Node185 -->
<g id="edge2" class="edge"><title>Node161&#45;&gt;Node185</title>
<path fill="none" stroke="midnightblue" d="M131.152,-20.0008C140.365,-18.7185 149.664,-17.424 158.378,-16.2111"/>
<polygon fill="midnightblue" stroke="midnightblue" points="158.875,-19.6757 168.297,-14.8304 157.91,-12.7426 158.875,-19.6757"/>
</g>
</g>
</svg>
