<?xml version="1.0" encoding="UTF-8" standalone="no"?>
<!DOCTYPE svg PUBLIC "-//W3C//DTD SVG 1.1//EN"
 "http://www.w3.org/Graphics/SVG/1.1/DTD/svg11.dtd">
<!-- Generated by graphviz version 2.38.0 (20140413.2041)
 -->
<!-- Title: UDPHS_DmaSingle Pages: 1 -->
<svg width="272pt" height="104pt"
 viewBox="0.00 0.00 272.00 104.00" xmlns="http://www.w3.org/2000/svg" xmlns:xlink="http://www.w3.org/1999/xlink">
<g id="graph0" class="graph" transform="scale(1 1) rotate(0) translate(4 100)">
<title>UDPHS_DmaSingle</title>
<polygon fill="white" stroke="none" points="-4,4 -4,-100 268,-100 268,4 -4,4"/>
<!-- Node441 -->
<g id="node1" class="node"><title>Node441</title>
<polygon fill="#bfbfbf" stroke="black" points="0,-38.5 0,-57.5 110,-57.5 110,-38.5 0,-38.5"/>
<text text-anchor="middle" x="55" y="-45.5" font-family="Helvetica,sans-Serif" font-size="10.00">UDPHS_DmaSingle</text>
</g>
<!-- Node442 -->
<g id="node2" class="node"><title>Node442</title>
<g id="a_node2"><a xlink:href="group__usbd__hal.xhtml#ga5e6f054068ed99c861c50f2eeeb30216" target="_top" xlink:title="Endpoint DMA interrupt handler. ">
<polygon fill="white" stroke="red" points="146,-76.5 146,-95.5 264,-95.5 264,-76.5 146,-76.5"/>
<text text-anchor="middle" x="205" y="-83.5" font-family="Helvetica,sans-Serif" font-size="10.00">UDPHS_DmaHandler</text>
</a>
</g>
</g>
<!-- Node441&#45;&gt;Node442 -->
<g id="edge1" class="edge"><title>Node441&#45;&gt;Node442</title>
<path fill="none" stroke="midnightblue" d="M103.173,-60.1121C123.786,-65.4044 147.609,-71.5213 166.922,-76.4799"/>
<polygon fill="midnightblue" stroke="midnightblue" points="103.903,-56.6859 93.3466,-57.589 102.162,-63.466 103.903,-56.6859"/>
</g>
<!-- Node444 -->
<g id="node3" class="node"><title>Node444</title>
<g id="a_node3"><a xlink:href="group__usbd__hal.xhtml#ga81935b1ed57f1d4e636df4565de436a5" target="_top" xlink:title="Sends data through a USB endpoint. ">
<polygon fill="white" stroke="red" points="165,-38.5 165,-57.5 245,-57.5 245,-38.5 165,-38.5"/>
<text text-anchor="middle" x="205" y="-45.5" font-family="Helvetica,sans-Serif" font-size="10.00">UDPHS_Write</text>
</a>
</g>
</g>
<!-- Node441&#45;&gt;Node444 -->
<g id="edge2" class="edge"><title>Node441&#45;&gt;Node444</title>
<path fill="none" stroke="midnightblue" d="M120.532,-48C135.521,-48 151.038,-48 164.567,-48"/>
<polygon fill="midnightblue" stroke="midnightblue" points="120.269,-44.5001 110.269,-48 120.269,-51.5001 120.269,-44.5001"/>
</g>
<!-- Node550 -->
<g id="node4" class="node"><title>Node550</title>
<g id="a_node4"><a xlink:href="group__usbd__hal.xhtml#gadf1deb2219e27bcf29d2598d4aa04c1d" target="_top" xlink:title="Reads incoming data on an USB endpoint This methods sets the transfer descriptor and activate the end...">
<polygon fill="white" stroke="red" points="165,-0.5 165,-19.5 245,-19.5 245,-0.5 165,-0.5"/>
<text text-anchor="middle" x="205" y="-7.5" font-family="Helvetica,sans-Serif" font-size="10.00">UDPHS_Read</text>
</a>
</g>
</g>
<!-- Node441&#45;&gt;Node550 -->
<g id="edge3" class="edge"><title>Node441&#45;&gt;Node550</title>
<path fill="none" stroke="midnightblue" d="M103.173,-35.8879C123.786,-30.5956 147.609,-24.4787 166.922,-19.5201"/>
<polygon fill="midnightblue" stroke="midnightblue" points="102.162,-32.534 93.3466,-38.411 103.903,-39.3141 102.162,-32.534"/>
</g>
</g>
</svg>
