<?xml version="1.0" encoding="UTF-8" standalone="no"?>
<!DOCTYPE svg PUBLIC "-//W3C//DTD SVG 1.1//EN"
 "http://www.w3.org/Graphics/SVG/1.1/DTD/svg11.dtd">
<!-- Generated by graphviz version 2.38.0 (20140413.2041)
 -->
<!-- Title: CDCHIDDDriver_RequestHandler Pages: 1 -->
<svg width="383pt" height="142pt"
 viewBox="0.00 0.00 383.00 142.00" xmlns="http://www.w3.org/2000/svg" xmlns:xlink="http://www.w3.org/1999/xlink">
<g id="graph0" class="graph" transform="scale(1 1) rotate(0) translate(4 138)">
<title>CDCHIDDDriver_RequestHandler</title>
<polygon fill="white" stroke="none" points="-4,4 -4,-138 379,-138 379,4 -4,4"/>
<!-- Node64 -->
<g id="node1" class="node"><title>Node64</title>
<polygon fill="#bfbfbf" stroke="black" points="0,-57.5 0,-76.5 172,-76.5 172,-57.5 0,-57.5"/>
<text text-anchor="middle" x="86" y="-64.5" font-family="Helvetica,sans-Serif" font-size="10.00">CDCHIDDDriver_RequestHandler</text>
</g>
<!-- Node65 -->
<g id="node2" class="node"><title>Node65</title>
<g id="a_node2"><a xlink:href="group__usbd__interface.xhtml#ga01ba3ff549b968edc152cdb23c2027d1" target="_top" xlink:title="Return USBDDriver instance pointer for global usage. ">
<polygon fill="white" stroke="black" points="243.5,-114.5 243.5,-133.5 339.5,-133.5 339.5,-114.5 243.5,-114.5"/>
<text text-anchor="middle" x="291.5" y="-121.5" font-family="Helvetica,sans-Serif" font-size="10.00">USBD_GetDriver</text>
</a>
</g>
</g>
<!-- Node64&#45;&gt;Node65 -->
<g id="edge1" class="edge"><title>Node64&#45;&gt;Node65</title>
<path fill="none" stroke="midnightblue" d="M115.176,-76.534C139.583,-84.6274 175.915,-96.2816 208,-105 217.158,-107.489 226.945,-109.931 236.461,-112.191"/>
<polygon fill="midnightblue" stroke="midnightblue" points="235.708,-115.609 246.242,-114.476 237.3,-108.793 235.708,-115.609"/>
</g>
<!-- Node66 -->
<g id="node3" class="node"><title>Node66</title>
<g id="a_node3"><a xlink:href="group__usbd__cdc.xhtml#gae9ba93a4fe6bb97098e92d54e3aff6a2" target="_top" xlink:title="Handles CDC&#45;specific SETUP requests. ">
<polygon fill="white" stroke="red" points="215,-76.5 215,-95.5 368,-95.5 368,-76.5 215,-76.5"/>
<text text-anchor="middle" x="291.5" y="-83.5" font-family="Helvetica,sans-Serif" font-size="10.00">CDCDSerial_RequestHandler</text>
</a>
</g>
</g>
<!-- Node64&#45;&gt;Node66 -->
<g id="edge2" class="edge"><title>Node64&#45;&gt;Node66</title>
<path fill="none" stroke="midnightblue" d="M172.123,-74.9476C182.853,-75.9494 193.836,-76.9749 204.578,-77.9778"/>
<polygon fill="midnightblue" stroke="midnightblue" points="204.505,-81.4861 214.787,-78.931 205.156,-74.5165 204.505,-81.4861"/>
</g>
<!-- Node102 -->
<g id="node4" class="node"><title>Node102</title>
<g id="a_node4"><a xlink:href="group__usbd__hid__key.xhtml#gae283b3485bee22fa5b4baeea5209b570" target="_top" xlink:title="Handles HID&#45;specific SETUP request sent by the host. ">
<polygon fill="white" stroke="red" points="208,-38.5 208,-57.5 375,-57.5 375,-38.5 208,-38.5"/>
<text text-anchor="middle" x="291.5" y="-45.5" font-family="Helvetica,sans-Serif" font-size="10.00">HIDDKeyboard_RequestHandler</text>
</a>
</g>
</g>
<!-- Node64&#45;&gt;Node102 -->
<g id="edge3" class="edge"><title>Node64&#45;&gt;Node102</title>
<path fill="none" stroke="midnightblue" d="M172.123,-59.0524C180.656,-58.2557 189.349,-57.4441 197.954,-56.6407"/>
<polygon fill="midnightblue" stroke="midnightblue" points="198.368,-60.1173 207.999,-55.7028 197.717,-53.1476 198.368,-60.1173"/>
</g>
<!-- Node131 -->
<g id="node5" class="node"><title>Node131</title>
<g id="a_node5"><a xlink:href="group__usbd__interface.xhtml#gaae0893893739fb365d088ea946cb2c89" target="_top" xlink:title="Handles the given request if it is standard, otherwise STALLs it. ">
<polygon fill="white" stroke="red" points="214,-0.5 214,-19.5 369,-19.5 369,-0.5 214,-0.5"/>
<text text-anchor="middle" x="291.5" y="-7.5" font-family="Helvetica,sans-Serif" font-size="10.00">USBDDriver_RequestHandler</text>
</a>
</g>
</g>
<!-- Node64&#45;&gt;Node131 -->
<g id="edge4" class="edge"><title>Node64&#45;&gt;Node131</title>
<path fill="none" stroke="midnightblue" d="M115.176,-57.466C139.583,-49.3726 175.915,-37.7184 208,-29 217.158,-26.5114 226.945,-24.0694 236.461,-21.8089"/>
<polygon fill="midnightblue" stroke="midnightblue" points="237.3,-25.2072 246.242,-19.5245 235.708,-18.3907 237.3,-25.2072"/>
</g>
</g>
</svg>
