<?xml version="1.0" encoding="UTF-8" standalone="no"?>
<!DOCTYPE svg PUBLIC "-//W3C//DTD SVG 1.1//EN"
 "http://www.w3.org/Graphics/SVG/1.1/DTD/svg11.dtd">
<!-- Generated by graphviz version 2.38.0 (20140413.2041)
 -->
<!-- Title: udd_ctrl_init Pages: 1 -->
<svg width="209pt" height="66pt"
 viewBox="0.00 0.00 209.00 66.00" xmlns="http://www.w3.org/2000/svg" xmlns:xlink="http://www.w3.org/1999/xlink">
<g id="graph0" class="graph" transform="scale(1 1) rotate(0) translate(4 62)">
<title>udd_ctrl_init</title>
<polygon fill="white" stroke="none" points="-4,4 -4,-62 205,-62 205,4 -4,4"/>
<!-- Node194 -->
<g id="node1" class="node"><title>Node194</title>
<polygon fill="#bfbfbf" stroke="black" points="0,-19.5 0,-38.5 74,-38.5 74,-19.5 0,-19.5"/>
<text text-anchor="middle" x="37" y="-26.5" font-family="Helvetica,sans-Serif" font-size="10.00">udd_ctrl_init</text>
</g>
<!-- Node195 -->
<g id="node2" class="node"><title>Node195</title>
<g id="a_node2"><a xlink:href="group__interrupt__group.xhtml#ga9931bf539005d3f12b461928823a0ae2" target="_top" xlink:title="cpu_irq_save">
<polygon fill="white" stroke="black" points="116,-38.5 116,-57.5 195,-57.5 195,-38.5 116,-38.5"/>
<text text-anchor="middle" x="155.5" y="-45.5" font-family="Helvetica,sans-Serif" font-size="10.00">cpu_irq_save</text>
</a>
</g>
</g>
<!-- Node194&#45;&gt;Node195 -->
<g id="edge1" class="edge"><title>Node194&#45;&gt;Node195</title>
<path fill="none" stroke="midnightblue" d="M74.2227,-34.9076C84.245,-36.5421 95.2876,-38.343 105.892,-40.0725"/>
<polygon fill="midnightblue" stroke="midnightblue" points="105.444,-43.5455 115.877,-41.7009 106.57,-36.6368 105.444,-43.5455"/>
</g>
<!-- Node196 -->
<g id="node3" class="node"><title>Node196</title>
<g id="a_node3"><a xlink:href="group__interrupt__group.xhtml#gae4d6d11a5211f6bd00353f280aa78f6f" target="_top" xlink:title="cpu_irq_restore">
<polygon fill="white" stroke="red" points="110,-0.5 110,-19.5 201,-19.5 201,-0.5 110,-0.5"/>
<text text-anchor="middle" x="155.5" y="-7.5" font-family="Helvetica,sans-Serif" font-size="10.00">cpu_irq_restore</text>
</a>
</g>
</g>
<!-- Node194&#45;&gt;Node196 -->
<g id="edge2" class="edge"><title>Node194&#45;&gt;Node196</title>
<path fill="none" stroke="midnightblue" d="M74.2227,-23.0924C82.2882,-21.777 91.0144,-20.3539 99.641,-18.947"/>
<polygon fill="midnightblue" stroke="midnightblue" points="100.371,-22.3743 109.677,-17.3102 99.2437,-15.4656 100.371,-22.3743"/>
</g>
</g>
</svg>
