<?xml version="1.0" encoding="UTF-8" standalone="no"?>
<!DOCTYPE svg PUBLIC "-//W3C//DTD SVG 1.1//EN"
 "http://www.w3.org/Graphics/SVG/1.1/DTD/svg11.dtd">
<!-- Generated by graphviz version 2.38.0 (20140413.2041)
 -->
<!-- Title: uhi_cdc_tx_update Pages: 1 -->
<svg width="491pt" height="186pt"
 viewBox="0.00 0.00 491.00 186.23" xmlns="http://www.w3.org/2000/svg" xmlns:xlink="http://www.w3.org/1999/xlink">
<g id="graph0" class="graph" transform="scale(1 1) rotate(0) translate(4 182.225)">
<title>uhi_cdc_tx_update</title>
<polygon fill="white" stroke="none" points="-4,4 -4,-182.225 487,-182.225 487,4 -4,4"/>
<!-- Node150 -->
<g id="node1" class="node"><title>Node150</title>
<polygon fill="#bfbfbf" stroke="black" points="0,-57.5 0,-76.5 106,-76.5 106,-57.5 0,-57.5"/>
<text text-anchor="middle" x="53" y="-64.5" font-family="Helvetica,sans-Serif" font-size="10.00">uhi_cdc_tx_update</text>
</g>
<!-- Node151 -->
<g id="node2" class="node"><title>Node151</title>
<g id="a_node2"><a xlink:href="group__interrupt__group.xhtml#ga9931bf539005d3f12b461928823a0ae2" target="_top" xlink:title="cpu_irq_save">
<polygon fill="white" stroke="black" points="358,-133.5 358,-152.5 437,-152.5 437,-133.5 358,-133.5"/>
<text text-anchor="middle" x="397.5" y="-140.5" font-family="Helvetica,sans-Serif" font-size="10.00">cpu_irq_save</text>
</a>
</g>
</g>
<!-- Node150&#45;&gt;Node151 -->
<g id="edge1" class="edge"><title>Node150&#45;&gt;Node151</title>
<path fill="none" stroke="midnightblue" d="M59.2228,-76.6758C70.8739,-97.0968 101.208,-144.182 142,-162 214.704,-193.757 310.214,-171.792 361.056,-155.722"/>
<polygon fill="midnightblue" stroke="midnightblue" points="362.188,-159.034 370.609,-152.604 360.017,-152.38 362.188,-159.034"/>
</g>
<!-- Node152 -->
<g id="node3" class="node"><title>Node152</title>
<g id="a_node3"><a xlink:href="group__interrupt__group.xhtml#gae4d6d11a5211f6bd00353f280aa78f6f" target="_top" xlink:title="cpu_irq_restore">
<polygon fill="white" stroke="red" points="352,-95.5 352,-114.5 443,-114.5 443,-95.5 352,-95.5"/>
<text text-anchor="middle" x="397.5" y="-102.5" font-family="Helvetica,sans-Serif" font-size="10.00">cpu_irq_restore</text>
</a>
</g>
</g>
<!-- Node150&#45;&gt;Node152 -->
<g id="edge2" class="edge"><title>Node150&#45;&gt;Node152</title>
<path fill="none" stroke="midnightblue" d="M92.7787,-76.582C108.035,-80.0334 125.758,-83.6517 142,-86 210.306,-95.8755 289.713,-100.768 341.422,-103.084"/>
<polygon fill="midnightblue" stroke="midnightblue" points="341.561,-106.594 351.702,-103.527 341.862,-99.6001 341.561,-106.594"/>
</g>
<!-- Node154 -->
<g id="node4" class="node"><title>Node154</title>
<g id="a_node4"><a xlink:href="group__uhd__group.xhtml#gae32ed29203116712f786dbc913d96327" target="_top" xlink:title="Returns the current micro start of frame number. ">
<polygon fill="white" stroke="red" points="312,-38.5 312,-57.5 483,-57.5 483,-38.5 312,-38.5"/>
<text text-anchor="middle" x="397.5" y="-45.5" font-family="Helvetica,sans-Serif" font-size="10.00">USBH_HAL_GetMicroFrameNum</text>
</a>
</g>
</g>
<!-- Node150&#45;&gt;Node154 -->
<g id="edge3" class="edge"><title>Node150&#45;&gt;Node154</title>
<path fill="none" stroke="midnightblue" d="M89.6844,-57.4914C105.574,-53.7266 124.593,-49.8577 142,-48 194.604,-42.3858 253.674,-42.0232 301.654,-43.2279"/>
<polygon fill="midnightblue" stroke="midnightblue" points="301.624,-46.7284 311.717,-43.5075 301.818,-39.7311 301.624,-46.7284"/>
</g>
<!-- Node156 -->
<g id="node5" class="node"><title>Node156</title>
<g id="a_node5"><a xlink:href="group__uhd__group.xhtml#gaee8af62530aefb6025ad2391361e8895" target="_top" xlink:title="Returns the current Start Of Frame (SOF) number. ">
<polygon fill="white" stroke="red" points="324.5,-0.5 324.5,-19.5 470.5,-19.5 470.5,-0.5 324.5,-0.5"/>
<text text-anchor="middle" x="397.5" y="-7.5" font-family="Helvetica,sans-Serif" font-size="10.00">USBH_HAL_GetFrameNum</text>
</a>
</g>
</g>
<!-- Node150&#45;&gt;Node156 -->
<g id="edge4" class="edge"><title>Node150&#45;&gt;Node156</title>
<path fill="none" stroke="midnightblue" d="M78.2751,-57.4785C95.7379,-51.0065 119.993,-42.7817 142,-38 198.791,-25.6603 263.955,-18.6215 314.127,-14.6877"/>
<polygon fill="midnightblue" stroke="midnightblue" points="314.568,-18.1643 324.275,-13.9181 314.039,-11.1843 314.568,-18.1643"/>
</g>
<!-- Node158 -->
<g id="node6" class="node"><title>Node158</title>
<g id="a_node6"><a xlink:href="group__uhd__group.xhtml#ga1d4a9f98194cb255b2fcb6cdf8d83fb8" target="_top" xlink:title="Allows to receive or send data on an endpoint. ">
<polygon fill="white" stroke="red" points="142,-133.5 142,-152.5 276,-152.5 276,-133.5 142,-133.5"/>
<text text-anchor="middle" x="209" y="-140.5" font-family="Helvetica,sans-Serif" font-size="10.00">USBH_HAL_RunEndpoint</text>
</a>
</g>
</g>
<!-- Node150&#45;&gt;Node158 -->
<g id="edge5" class="edge"><title>Node150&#45;&gt;Node158</title>
<path fill="none" stroke="midnightblue" d="M68.4902,-76.6959C85.5683,-87.8523 115.043,-106.268 142,-119 150.33,-122.934 159.493,-126.637 168.271,-129.902"/>
<polygon fill="midnightblue" stroke="midnightblue" points="167.359,-133.294 177.954,-133.392 169.733,-126.709 167.359,-133.294"/>
</g>
<!-- Node170 -->
<g id="node7" class="node"><title>Node170</title>
<g id="a_node7"><a xlink:href="group__uhi__cdc__group__internal.xhtml#ga2d752930f3947081262a5ac64f05ac41" target="_top" xlink:title="Manage the end of TX transfer. ">
<polygon fill="white" stroke="red" points="161.5,-57.5 161.5,-76.5 256.5,-76.5 256.5,-57.5 161.5,-57.5"/>
<text text-anchor="middle" x="209" y="-64.5" font-family="Helvetica,sans-Serif" font-size="10.00">uhi_cdc_tx_send</text>
</a>
</g>
</g>
<!-- Node150&#45;&gt;Node170 -->
<g id="edge8" class="edge"><title>Node150&#45;&gt;Node170</title>
<path fill="none" stroke="midnightblue" d="M106.137,-60.573C120.671,-60.1827 136.529,-60.1461 151.312,-60.4632"/>
<polygon fill="midnightblue" stroke="midnightblue" points="151.252,-63.9628 161.344,-60.7393 151.444,-56.9654 151.252,-63.9628"/>
</g>
<!-- Node158&#45;&gt;Node151 -->
<g id="edge6" class="edge"><title>Node158&#45;&gt;Node151</title>
<path fill="none" stroke="midnightblue" d="M276.015,-143C299.625,-143 325.788,-143 347.685,-143"/>
<polygon fill="midnightblue" stroke="midnightblue" points="347.741,-146.5 357.741,-143 347.741,-139.5 347.741,-146.5"/>
</g>
<!-- Node158&#45;&gt;Node152 -->
<g id="edge7" class="edge"><title>Node158&#45;&gt;Node152</title>
<path fill="none" stroke="midnightblue" d="M257.062,-133.411C282.801,-128.167 314.821,-121.642 341.684,-116.169"/>
<polygon fill="midnightblue" stroke="midnightblue" points="342.603,-119.554 351.703,-114.128 341.205,-112.695 342.603,-119.554"/>
</g>
<!-- Node170&#45;&gt;Node150 -->
<g id="edge13" class="edge"><title>Node170&#45;&gt;Node150</title>
<path fill="none" stroke="midnightblue" d="M161.344,-73.2607C147.186,-73.7411 131.399,-73.8677 116.381,-73.6407"/>
<polygon fill="midnightblue" stroke="midnightblue" points="116.208,-70.1364 106.137,-73.427 116.062,-77.1349 116.208,-70.1364"/>
</g>
<!-- Node170&#45;&gt;Node151 -->
<g id="edge9" class="edge"><title>Node170&#45;&gt;Node151</title>
<path fill="none" stroke="midnightblue" d="M224.214,-76.6986C243.353,-89.337 278.843,-111.316 312,-124 323.411,-128.365 336.09,-131.873 348.083,-134.629"/>
<polygon fill="midnightblue" stroke="midnightblue" points="347.439,-138.071 357.954,-136.769 348.922,-131.229 347.439,-138.071"/>
</g>
<!-- Node170&#45;&gt;Node152 -->
<g id="edge10" class="edge"><title>Node170&#45;&gt;Node152</title>
<path fill="none" stroke="midnightblue" d="M256.581,-76.491C282.411,-81.754 314.679,-88.3287 341.715,-93.8375"/>
<polygon fill="midnightblue" stroke="midnightblue" points="341.3,-97.3246 351.797,-95.8916 342.697,-90.4655 341.3,-97.3246"/>
</g>
<!-- Node170&#45;&gt;Node154 -->
<g id="edge11" class="edge"><title>Node170&#45;&gt;Node154</title>
<path fill="none" stroke="midnightblue" d="M256.581,-62.2545C270.299,-60.857 285.833,-59.2744 301.434,-57.685"/>
<polygon fill="midnightblue" stroke="midnightblue" points="302.084,-61.137 311.678,-56.6414 301.375,-54.173 302.084,-61.137"/>
</g>
<!-- Node170&#45;&gt;Node156 -->
<g id="edge12" class="edge"><title>Node170&#45;&gt;Node156</title>
<path fill="none" stroke="midnightblue" d="M232.789,-57.4959C253.265,-49.2017 284.285,-37.2371 312,-29 320.68,-26.4203 329.951,-24.003 339.056,-21.8143"/>
<polygon fill="midnightblue" stroke="midnightblue" points="339.892,-25.2134 348.835,-19.5323 338.301,-18.3965 339.892,-25.2134"/>
</g>
</g>
</svg>
