<?xml version="1.0" encoding="UTF-8" standalone="no"?>
<!DOCTYPE svg PUBLIC "-//W3C//DTD SVG 1.1//EN"
 "http://www.w3.org/Graphics/SVG/1.1/DTD/svg11.dtd">
<!-- Generated by graphviz version 2.38.0 (20140413.2041)
 -->
<!-- Title: udd_ctrl_in_sent Pages: 1 -->
<svg width="409pt" height="47pt"
 viewBox="0.00 0.00 409.00 47.00" xmlns="http://www.w3.org/2000/svg" xmlns:xlink="http://www.w3.org/1999/xlink">
<g id="graph0" class="graph" transform="scale(1 1) rotate(0) translate(4 43)">
<title>udd_ctrl_in_sent</title>
<polygon fill="white" stroke="none" points="-4,4 -4,-43 405,-43 405,4 -4,4"/>
<!-- Node191 -->
<g id="node1" class="node"><title>Node191</title>
<polygon fill="#bfbfbf" stroke="black" points="0,-0.5 0,-19.5 95,-19.5 95,-0.5 0,-0.5"/>
<text text-anchor="middle" x="47.5" y="-7.5" font-family="Helvetica,sans-Serif" font-size="10.00">udd_ctrl_in_sent</text>
</g>
<!-- Node192 -->
<g id="node2" class="node"><title>Node192</title>
<g id="a_node2"><a xlink:href="group__udd__udphs__group.xhtml#ga80494c67ce9cbd4ee8eb5e7fa5c19cd6" target="_top" xlink:title="Managed reception of SETUP packet on control endpoint. ">
<polygon fill="white" stroke="black" points="131,-19.5 131,-38.5 264,-38.5 264,-19.5 131,-19.5"/>
<text text-anchor="middle" x="197.5" y="-26.5" font-family="Helvetica,sans-Serif" font-size="10.00">udd_ctrl_setup_received</text>
</a>
</g>
</g>
<!-- Node191&#45;&gt;Node192 -->
<g id="edge1" class="edge"><title>Node191&#45;&gt;Node192</title>
<path fill="none" stroke="midnightblue" d="M105.309,-17.2931C113.642,-18.3629 122.283,-19.4722 130.777,-20.5626"/>
<polygon fill="midnightblue" stroke="midnightblue" points="105.692,-13.8136 95.3281,-16.0117 104.801,-20.7566 105.692,-13.8136"/>
</g>
<!-- Node193 -->
<g id="node3" class="node"><title>Node193</title>
<g id="a_node3"><a xlink:href="group__udd__udphs__group.xhtml#gafdbf46264851b8d76cd12d68ca8188d3" target="_top" xlink:title="Main interrupt routine for control endpoint. ">
<polygon fill="white" stroke="black" points="300,-0.5 300,-19.5 401,-19.5 401,-0.5 300,-0.5"/>
<text text-anchor="middle" x="350.5" y="-7.5" font-family="Helvetica,sans-Serif" font-size="10.00">udd_ctrl_interrupt</text>
</a>
</g>
</g>
<!-- Node191&#45;&gt;Node193 -->
<g id="edge3" class="edge"><title>Node191&#45;&gt;Node193</title>
<path fill="none" stroke="midnightblue" d="M105.333,-10C161.469,-10 246.465,-10 299.933,-10"/>
<polygon fill="midnightblue" stroke="midnightblue" points="105.201,-6.5001 95.201,-10 105.201,-13.5001 105.201,-6.5001"/>
</g>
<!-- Node192&#45;&gt;Node193 -->
<g id="edge2" class="edge"><title>Node192&#45;&gt;Node193</title>
<path fill="none" stroke="midnightblue" d="M274.401,-19.4495C283.033,-18.3634 291.658,-17.2781 299.825,-16.2505"/>
<polygon fill="midnightblue" stroke="midnightblue" points="273.776,-16.0005 264.292,-20.7216 274.65,-22.9457 273.776,-16.0005"/>
</g>
</g>
</svg>
