<?xml version="1.0" encoding="UTF-8" standalone="no"?>
<!DOCTYPE svg PUBLIC "-//W3C//DTD SVG 1.1//EN"
 "http://www.w3.org/Graphics/SVG/1.1/DTD/svg11.dtd">
<!-- Generated by graphviz version 2.38.0 (20140413.2041)
 -->
<!-- Title: _UsbDataSent Pages: 1 -->
<svg width="354pt" height="170pt"
 viewBox="0.00 0.00 354.00 170.00" xmlns="http://www.w3.org/2000/svg" xmlns:xlink="http://www.w3.org/1999/xlink">
<g id="graph0" class="graph" transform="scale(1 1) rotate(0) translate(4 166)">
<title>_UsbDataSent</title>
<polygon fill="white" stroke="none" points="-4,4 -4,-166 350,-166 350,4 -4,4"/>
<!-- Node245 -->
<g id="node1" class="node"><title>Node245</title>
<polygon fill="#bfbfbf" stroke="black" points="0,-47.5 0,-66.5 86,-66.5 86,-47.5 0,-47.5"/>
<text text-anchor="middle" x="43" y="-54.5" font-family="Helvetica,sans-Serif" font-size="10.00">_UsbDataSent</text>
</g>
<!-- Node246 -->
<g id="node2" class="node"><title>Node246</title>
<g id="a_node2"><a xlink:href="group__usbd__cdc.xhtml#ga36a77ddede1ea66a616d1a1ad86a5a39" target="_top" xlink:title="_UsbTxBufferPop">
<polygon fill="white" stroke="black" points="128,-142.5 128,-161.5 226,-161.5 226,-142.5 128,-142.5"/>
<text text-anchor="middle" x="177" y="-149.5" font-family="Helvetica,sans-Serif" font-size="10.00">_UsbTxBufferPop</text>
</a>
</g>
</g>
<!-- Node245&#45;&gt;Node246 -->
<g id="edge1" class="edge"><title>Node245&#45;&gt;Node246</title>
<path fill="none" stroke="midnightblue" d="M52.7889,-66.8012C66.4424,-81.5822 94.0927,-109.782 122,-128 127.83,-131.806 134.363,-135.28 140.817,-138.331"/>
<polygon fill="midnightblue" stroke="midnightblue" points="139.568,-141.607 150.126,-142.489 142.423,-135.215 139.568,-141.607"/>
</g>
<!-- Node247 -->
<g id="node3" class="node"><title>Node247</title>
<g id="a_node3"><a xlink:href="timetick_8h.xhtml#ae626fb68b4503701534936d10ec97067" target="_top" xlink:title="Get Delayed number of tick. ">
<polygon fill="white" stroke="black" points="278.5,-94.5 278.5,-113.5 335.5,-113.5 335.5,-94.5 278.5,-94.5"/>
<text text-anchor="middle" x="307" y="-101.5" font-family="Helvetica,sans-Serif" font-size="10.00">GetTicks</text>
</a>
</g>
</g>
<!-- Node245&#45;&gt;Node247 -->
<g id="edge2" class="edge"><title>Node245&#45;&gt;Node247</title>
<path fill="none" stroke="midnightblue" d="M86.0995,-64.5574C97.7301,-66.6449 110.354,-68.9105 122,-71 172.66,-80.0893 231.167,-90.5815 268.357,-97.2503"/>
<polygon fill="midnightblue" stroke="midnightblue" points="267.796,-100.705 278.256,-99.0255 269.031,-93.8153 267.796,-100.705"/>
</g>
<!-- Node248 -->
<g id="node4" class="node"><title>Node248</title>
<g id="a_node4"><a xlink:href="group___c_m_s_i_s___core___reg_acc_functions.xhtml#ga092b96b23f27f6b4258ce84add3b1528" target="_top" xlink:title="Disable IRQ Interrupts. ">
<polygon fill="white" stroke="red" points="268,-47.5 268,-66.5 346,-66.5 346,-47.5 268,-47.5"/>
<text text-anchor="middle" x="307" y="-54.5" font-family="Helvetica,sans-Serif" font-size="10.00">__disable_irq</text>
</a>
</g>
</g>
<!-- Node245&#45;&gt;Node248 -->
<g id="edge3" class="edge"><title>Node245&#45;&gt;Node248</title>
<path fill="none" stroke="midnightblue" d="M86.0948,-57C132.956,-57 208.554,-57 257.763,-57"/>
<polygon fill="midnightblue" stroke="midnightblue" points="257.844,-60.5001 267.844,-57 257.844,-53.5001 257.844,-60.5001"/>
</g>
<!-- Node260 -->
<g id="node5" class="node"><title>Node260</title>
<g id="a_node5"><a xlink:href="group___c_m_s_i_s___core___reg_acc_functions.xhtml#ga6fea83fe11c9a07924fb1ef316a9c76c" target="_top" xlink:title="Enable IRQ Interrupts. ">
<polygon fill="white" stroke="black" points="268.5,-0.5 268.5,-19.5 345.5,-19.5 345.5,-0.5 268.5,-0.5"/>
<text text-anchor="middle" x="307" y="-7.5" font-family="Helvetica,sans-Serif" font-size="10.00">__enable_irq</text>
</a>
</g>
</g>
<!-- Node245&#45;&gt;Node260 -->
<g id="edge4" class="edge"><title>Node245&#45;&gt;Node260</title>
<path fill="none" stroke="midnightblue" d="M59.1168,-47.3306C74.3302,-38.1686 98.8006,-24.9511 122,-19 167.166,-7.41396 220.565,-6.1055 258.171,-7.12613"/>
<polygon fill="midnightblue" stroke="midnightblue" points="258.227,-10.6299 268.339,-7.46915 258.463,-3.63388 258.227,-10.6299"/>
</g>
<!-- Node261 -->
<g id="node6" class="node"><title>Node261</title>
<g id="a_node6"><a xlink:href="group__usbd__cdc.xhtml#gadfeadaa787932fc6f8ef50a53fdb2ed0" target="_top" xlink:title="_FlushUsbTxBuffers">
<polygon fill="white" stroke="red" points="122,-28.5 122,-47.5 232,-47.5 232,-28.5 122,-28.5"/>
<text text-anchor="middle" x="177" y="-35.5" font-family="Helvetica,sans-Serif" font-size="10.00">_FlushUsbTxBuffers</text>
</a>
</g>
</g>
<!-- Node245&#45;&gt;Node261 -->
<g id="edge5" class="edge"><title>Node245&#45;&gt;Node261</title>
<path fill="none" stroke="midnightblue" d="M71.3505,-47.4705C83.1391,-44.9703 97.4677,-42.5227 111.691,-40.5085"/>
<polygon fill="midnightblue" stroke="midnightblue" points="112.548,-43.925 121.992,-39.1239 111.615,-36.9874 112.548,-43.925"/>
</g>
<!-- Node261&#45;&gt;Node245 -->
<g id="edge9" class="edge"><title>Node261&#45;&gt;Node245</title>
<path fill="none" stroke="midnightblue" d="M148.4,-47.5824C133.335,-50.7668 114.178,-53.8614 96.397,-56.0789"/>
<polygon fill="midnightblue" stroke="midnightblue" points="95.6554,-52.6416 86.1285,-57.2772 96.4669,-59.5944 95.6554,-52.6416"/>
</g>
<!-- Node261&#45;&gt;Node247 -->
<g id="edge8" class="edge"><title>Node261&#45;&gt;Node247</title>
<path fill="none" stroke="midnightblue" d="M196.612,-47.597C218.131,-58.6926 253.754,-77.0607 278.476,-89.808"/>
<polygon fill="midnightblue" stroke="midnightblue" points="276.873,-92.9193 287.365,-94.3915 280.081,-86.6977 276.873,-92.9193"/>
</g>
<!-- Node261&#45;&gt;Node248 -->
<g id="edge6" class="edge"><title>Node261&#45;&gt;Node248</title>
<path fill="none" stroke="midnightblue" d="M232.284,-46.0577C240.809,-47.3232 249.57,-48.6237 257.943,-49.8665"/>
<polygon fill="midnightblue" stroke="midnightblue" points="257.515,-53.3413 267.921,-51.3476 258.543,-46.4172 257.515,-53.3413"/>
</g>
<!-- Node261&#45;&gt;Node260 -->
<g id="edge7" class="edge"><title>Node261&#45;&gt;Node260</title>
<path fill="none" stroke="midnightblue" d="M221.692,-28.4423C233.574,-25.8431 246.498,-23.0161 258.576,-20.374"/>
<polygon fill="midnightblue" stroke="midnightblue" points="259.46,-23.7635 268.481,-18.2073 257.964,-16.9252 259.46,-23.7635"/>
</g>
</g>
</svg>
