<?xml version="1.0" encoding="UTF-8" standalone="no"?>
<!DOCTYPE svg PUBLIC "-//W3C//DTD SVG 1.1//EN"
 "http://www.w3.org/Graphics/SVG/1.1/DTD/svg11.dtd">
<!-- Generated by graphviz version 2.38.0 (20140413.2041)
 -->
<!-- Title: USB Descriptors Pages: 1 -->
<svg width="386pt" height="192pt"
 viewBox="0.00 0.00 386.00 191.50" xmlns="http://www.w3.org/2000/svg" xmlns:xlink="http://www.w3.org/1999/xlink">
<g id="graph0" class="graph" transform="scale(1 1) rotate(0) translate(4 187.5)">
<title>USB Descriptors</title>
<polygon fill="white" stroke="none" points="-4,4 -4,-187.5 382,-187.5 382,4 -4,4"/>
<!-- Node1 -->
<g id="node1" class="node"><title>Node1</title>
<g id="a_node1"><a xlink:href="group__usb__general.xhtml" target="_top" xlink:title="Usb_general">
<polygon fill="white" stroke="black" points="0,-88 0,-107 77,-107 77,-88 0,-88"/>
<text text-anchor="middle" x="38.5" y="-95" font-family="Helvetica,sans-Serif" font-size="10.00">Usb_general</text>
</a>
</g>
</g>
<!-- Node0 -->
<g id="node7" class="node"><title>Node0</title>
<polygon fill="#bfbfbf" stroke="black" points="113,-88 113,-107 208,-107 208,-88 113,-88"/>
<text text-anchor="middle" x="160.5" y="-95" font-family="Helvetica,sans-Serif" font-size="10.00">USB Descriptors</text>
</g>
<!-- Node1&#45;&gt;Node0 -->
<g id="edge1" class="edge"><title>Node1&#45;&gt;Node0</title>
<path fill="none" stroke="black" d="M87.1759,-97.5C95.5795,-97.5 104.32,-97.5 112.699,-97.5"/>
<polygon fill="black" stroke="black" points="87.1395,-94.0001 77.1395,-97.5 87.1395,-101 87.1395,-94.0001"/>
</g>
<!-- Node2 -->
<g id="node2" class="node"><title>Node2</title>
<g id="a_node2"><a xlink:href="group__usb__desc__type.xhtml" target="_top" xlink:title="This section lists the codes of the usb descriptor types. ">
<polygon fill="white" stroke="black" points="251.5,-164 251.5,-183 370.5,-183 370.5,-164 251.5,-164"/>
<text text-anchor="middle" x="311" y="-171" font-family="Helvetica,sans-Serif" font-size="10.00">USB Descriptor types</text>
</a>
</g>
</g>
<!-- Node3 -->
<g id="node3" class="node"><title>Node3</title>
<g id="a_node3"><a xlink:href="group__usb__release__number.xhtml" target="_top" xlink:title="This section lists the codes of USB release numbers. ">
<polygon fill="white" stroke="black" points="250,-126 250,-145 372,-145 372,-126 250,-126"/>
<text text-anchor="middle" x="311" y="-133" font-family="Helvetica,sans-Serif" font-size="10.00">USB release numbers</text>
</a>
</g>
</g>
<!-- Node5 -->
<g id="node4" class="node"><title>Node5</title>
<g id="a_node4"><a xlink:href="group__usb__ep__define.xhtml" target="_top" xlink:title="This section lists definitions and macro for endpoint descriptors. ">
<polygon fill="white" stroke="black" points="244,-88 244,-107 378,-107 378,-88 244,-88"/>
<text text-anchor="middle" x="311" y="-95" font-family="Helvetica,sans-Serif" font-size="10.00">USB Endpoint definitions</text>
</a>
</g>
</g>
<!-- Node4 -->
<g id="node5" class="node"><title>Node4</title>
<g id="a_node5"><a xlink:href="group__usb__attributes.xhtml" target="_top" xlink:title="This section lists the codes of the usb attributes. ">
<polygon fill="white" stroke="black" points="249.5,-50 249.5,-69 372.5,-69 372.5,-50 249.5,-50"/>
<text text-anchor="middle" x="311" y="-57" font-family="Helvetica,sans-Serif" font-size="10.00">USB Device Attributes</text>
</a>
</g>
</g>
<!-- Node6 -->
<g id="node6" class="node"><title>Node6</title>
<g id="a_node6"><a xlink:href="group__usb__string__descriptor.xhtml" target="_top" xlink:title="This section lists the codes and macros for USB string descriptor definition. ">
<polygon fill="white" stroke="black" points="250,-0.5 250,-30.5 372,-30.5 372,-0.5 250,-0.5"/>
<text text-anchor="start" x="258" y="-18.5" font-family="Helvetica,sans-Serif" font-size="10.00">USB String Descriptor</text>
<text text-anchor="middle" x="311" y="-7.5" font-family="Helvetica,sans-Serif" font-size="10.00"> Definitions</text>
</a>
</g>
</g>
<!-- Node0&#45;&gt;Node2 -->
<g id="edge2" class="edge"><title>Node0&#45;&gt;Node2</title>
<path fill="none" stroke="black" d="M180.84,-113.573C196.891,-126.222 220.77,-143.494 244,-154.5 251.866,-158.227 260.613,-161.373 269.098,-163.967"/>
<polygon fill="black" stroke="black" points="182.768,-110.632 172.782,-107.091 178.38,-116.086 182.768,-110.632"/>
</g>
<!-- Node0&#45;&gt;Node3 -->
<g id="edge3" class="edge"><title>Node0&#45;&gt;Node3</title>
<path fill="none" stroke="black" d="M208.833,-109.612C229.515,-114.904 253.419,-121.021 272.797,-125.98"/>
<polygon fill="black" stroke="black" points="209.528,-106.177 198.973,-107.089 207.793,-112.959 209.528,-106.177"/>
</g>
<!-- Node0&#45;&gt;Node5 -->
<g id="edge5" class="edge"><title>Node0&#45;&gt;Node5</title>
<path fill="none" stroke="black" d="M218.109,-97.5C226.486,-97.5 235.182,-97.5 243.735,-97.5"/>
<polygon fill="black" stroke="black" points="218.079,-94.0001 208.079,-97.5 218.079,-101 218.079,-94.0001"/>
</g>
<!-- Node0&#45;&gt;Node4 -->
<g id="edge4" class="edge"><title>Node0&#45;&gt;Node4</title>
<path fill="none" stroke="black" d="M208.833,-85.3879C229.515,-80.0956 253.419,-73.9787 272.797,-69.0201"/>
<polygon fill="black" stroke="black" points="207.793,-82.0411 198.973,-87.911 209.528,-88.8226 207.793,-82.0411"/>
</g>
<!-- Node0&#45;&gt;Node6 -->
<g id="edge6" class="edge"><title>Node0&#45;&gt;Node6</title>
<path fill="none" stroke="black" d="M181.651,-81.507C197.836,-69.1837 221.499,-52.3099 244,-40.5 250.835,-36.9125 258.303,-33.5767 265.679,-30.586"/>
<polygon fill="black" stroke="black" points="179.252,-78.9374 173.484,-87.8241 183.535,-84.4745 179.252,-78.9374"/>
</g>
</g>
</svg>
