<?xml version="1.0" encoding="UTF-8" standalone="no"?>
<!DOCTYPE svg PUBLIC "-//W3C//DTD SVG 1.1//EN"
 "http://www.w3.org/Graphics/SVG/1.1/DTD/svg11.dtd">
<!-- Generated by graphviz version 2.38.0 (20140413.2041)
 -->
<!-- Title: AUDDSpeakerPhone_CloseStream Pages: 1 -->
<svg width="394pt" height="88pt"
 viewBox="0.00 0.00 394.00 88.00" xmlns="http://www.w3.org/2000/svg" xmlns:xlink="http://www.w3.org/1999/xlink">
<g id="graph0" class="graph" transform="scale(1 1) rotate(0) translate(4 84)">
<title>AUDDSpeakerPhone_CloseStream</title>
<polygon fill="white" stroke="none" points="-4,4 -4,-84 390,-84 390,4 -4,4"/>
<!-- Node161 -->
<g id="node1" class="node"><title>Node161</title>
<polygon fill="#bfbfbf" stroke="black" points="0,-30 0,-49 183,-49 183,-30 0,-30"/>
<text text-anchor="middle" x="91.5" y="-37" font-family="Helvetica,sans-Serif" font-size="10.00">AUDDSpeakerPhone_CloseStream</text>
</g>
<!-- Node162 -->
<g id="node2" class="node"><title>Node162</title>
<g id="a_node2"><a xlink:href="group__usbd__audio__speaker.xhtml#ga6461e7ed3092bbace3c03a5bd3a2e21f" target="_top" xlink:title="Invoked whenever the active setting of an interface is changed by the host. ">
<polygon fill="white" stroke="black" points="222,-49.5 222,-79.5 383,-79.5 383,-49.5 222,-49.5"/>
<text text-anchor="start" x="230" y="-67.5" font-family="Helvetica,sans-Serif" font-size="10.00">AUDDSpeakerDriver_Interface</text>
<text text-anchor="middle" x="302.5" y="-56.5" font-family="Helvetica,sans-Serif" font-size="10.00">SettingChangedHandler</text>
</a>
</g>
</g>
<!-- Node161&#45;&gt;Node162 -->
<g id="edge1" class="edge"><title>Node161&#45;&gt;Node162</title>
<path fill="none" stroke="midnightblue" d="M182.113,-50.2193C195.295,-51.7961 208.8,-53.4115 221.765,-54.9623"/>
<polygon fill="midnightblue" stroke="midnightblue" points="182.455,-46.7353 172.11,-49.0227 181.624,-53.6858 182.455,-46.7353"/>
</g>
<!-- Node163 -->
<g id="node3" class="node"><title>Node163</title>
<g id="a_node3"><a xlink:href="group__usbd__aud__fun.xhtml#ga67c8b934e1a4fce8f76a32b3627439cc" target="_top" xlink:title="Invoked whenever the active setting of an interface is changed by the host. ">
<polygon fill="white" stroke="red" points="219,-0.5 219,-30.5 386,-30.5 386,-0.5 219,-0.5"/>
<text text-anchor="start" x="227" y="-18.5" font-family="Helvetica,sans-Serif" font-size="10.00">AUDDFunction_InterfaceSetting</text>
<text text-anchor="middle" x="302.5" y="-7.5" font-family="Helvetica,sans-Serif" font-size="10.00">ChangedHandler</text>
</a>
</g>
</g>
<!-- Node161&#45;&gt;Node163 -->
<g id="edge2" class="edge"><title>Node161&#45;&gt;Node163</title>
<path fill="none" stroke="midnightblue" d="M185.497,-28.8209C196.558,-27.5508 207.793,-26.2606 218.698,-25.0084"/>
<polygon fill="midnightblue" stroke="midnightblue" points="184.938,-25.362 175.403,-29.9801 185.737,-32.3163 184.938,-25.362"/>
</g>
</g>
</svg>
