<?xml version="1.0" encoding="UTF-8" standalone="no"?>
<!DOCTYPE svg PUBLIC "-//W3C//DTD SVG 1.1//EN"
 "http://www.w3.org/Graphics/SVG/1.1/DTD/svg11.dtd">
<!-- Generated by graphviz version 2.38.0 (20140413.2041)
 -->
<!-- Title: AUDD_GetCtlStream Pages: 1 -->
<svg width="250pt" height="66pt"
 viewBox="0.00 0.00 250.00 66.00" xmlns="http://www.w3.org/2000/svg" xmlns:xlink="http://www.w3.org/1999/xlink">
<g id="graph0" class="graph" transform="scale(1 1) rotate(0) translate(4 62)">
<title>AUDD_GetCtlStream</title>
<polygon fill="white" stroke="none" points="-4,4 -4,-62 246,-62 246,4 -4,4"/>
<!-- Node1 -->
<g id="node1" class="node"><title>Node1</title>
<polygon fill="#bfbfbf" stroke="black" points="0,-19.5 0,-38.5 117,-38.5 117,-19.5 0,-19.5"/>
<text text-anchor="middle" x="58.5" y="-26.5" font-family="Helvetica,sans-Serif" font-size="10.00">AUDD_GetCtlStream</text>
</g>
<!-- Node2 -->
<g id="node2" class="node"><title>Node2</title>
<g id="a_node2"><a xlink:href="group__usbd__audio__speakerphone.xhtml#ga489f97d62376e824385055765a31e17b" target="_top" xlink:title="Handle the SET_CUR request. ">
<polygon fill="white" stroke="red" points="153.5,-38.5 153.5,-57.5 241.5,-57.5 241.5,-38.5 153.5,-38.5"/>
<text text-anchor="middle" x="197.5" y="-45.5" font-family="Helvetica,sans-Serif" font-size="10.00">AUDD_SetCUR</text>
</a>
</g>
</g>
<!-- Node1&#45;&gt;Node2 -->
<g id="edge1" class="edge"><title>Node1&#45;&gt;Node2</title>
<path fill="none" stroke="midnightblue" d="M127.233,-38.3936C136.152,-39.6305 145.087,-40.8698 153.436,-42.0276"/>
<polygon fill="midnightblue" stroke="midnightblue" points="127.589,-34.9096 117.203,-37.0026 126.628,-41.8433 127.589,-34.9096"/>
</g>
<!-- Node8 -->
<g id="node3" class="node"><title>Node8</title>
<g id="a_node3"><a xlink:href="group__usbd__audio__speakerphone.xhtml#gaa2c1c8f41b4dbb0494310c2bd60aafaf" target="_top" xlink:title="Handle the GET_CUR request. ">
<polygon fill="white" stroke="red" points="153,-0.5 153,-19.5 242,-19.5 242,-0.5 153,-0.5"/>
<text text-anchor="middle" x="197.5" y="-7.5" font-family="Helvetica,sans-Serif" font-size="10.00">AUDD_GetCUR</text>
</a>
</g>
</g>
<!-- Node1&#45;&gt;Node8 -->
<g id="edge2" class="edge"><title>Node1&#45;&gt;Node8</title>
<path fill="none" stroke="midnightblue" d="M127.271,-19.6011C135.881,-18.407 144.507,-17.2108 152.603,-16.0879"/>
<polygon fill="midnightblue" stroke="midnightblue" points="126.628,-16.1567 117.203,-20.9974 127.589,-23.0904 126.628,-16.1567"/>
</g>
</g>
</svg>
