<?xml version="1.0" encoding="UTF-8" standalone="no"?>
<!DOCTYPE svg PUBLIC "-//W3C//DTD SVG 1.1//EN"
 "http://www.w3.org/Graphics/SVG/1.1/DTD/svg11.dtd">
<!-- Generated by graphviz version 2.38.0 (20140413.2041)
 -->
<!-- Title: AHB Bus Matrix Pages: 1 -->
<svg width="266pt" height="73pt"
 viewBox="0.00 0.00 266.00 73.00" xmlns="http://www.w3.org/2000/svg" xmlns:xlink="http://www.w3.org/1999/xlink">
<g id="graph0" class="graph" transform="scale(1 1) rotate(0) translate(4 69)">
<title>AHB Bus Matrix</title>
<polygon fill="white" stroke="none" points="-4,4 -4,-69 262,-69 262,4 -4,4"/>
<!-- Node2 -->
<g id="node1" class="node"><title>Node2</title>
<g id="a_node1"><a xlink:href="group___s_a_m_s70___m_a_t_r_i_x.xhtml" target="_top" xlink:title="SOFTWARE API DEFINITION FOR AHB Bus Matrix. ">
<polygon fill="white" stroke="black" points="167,-45.5 167,-64.5 258,-64.5 258,-45.5 167,-45.5"/>
<text text-anchor="middle" x="212.5" y="-52.5" font-family="Helvetica,sans-Serif" font-size="10.00">AHB Bus Matrix</text>
</a>
</g>
</g>
<!-- Node1 -->
<g id="node2" class="node"><title>Node1</title>
<g id="a_node2"><a xlink:href="group___s_a_m_e70___m_a_t_r_i_x.xhtml" target="_top" xlink:title="SOFTWARE API DEFINITION FOR AHB Bus Matrix. ">
<polygon fill="white" stroke="black" points="167,-0.5 167,-19.5 258,-19.5 258,-0.5 167,-0.5"/>
<text text-anchor="middle" x="212.5" y="-7.5" font-family="Helvetica,sans-Serif" font-size="10.00">AHB Bus Matrix</text>
</a>
</g>
</g>
<!-- Node0 -->
<g id="node3" class="node"><title>Node0</title>
<polygon fill="#bfbfbf" stroke="black" points="0,-22.5 0,-41.5 91,-41.5 91,-22.5 0,-22.5"/>
<text text-anchor="middle" x="45.5" y="-29.5" font-family="Helvetica,sans-Serif" font-size="10.00">AHB Bus Matrix</text>
</g>
<!-- Node0&#45;&gt;Node2 -->
<g id="edge2" class="edge"><title>Node0&#45;&gt;Node2</title>
<path fill="none" stroke="orange" stroke-dasharray="5,2" d="M91.1514,-38.2241C114.63,-41.4969 143.329,-45.4974 166.813,-48.7709"/>
<text text-anchor="middle" x="129" y="-49" font-family="Helvetica,sans-Serif" font-size="10.00">Matrix</text>
</g>
<!-- Node0&#45;&gt;Node1 -->
<g id="edge1" class="edge"><title>Node0&#45;&gt;Node1</title>
<path fill="none" stroke="orange" stroke-dasharray="5,2" d="M69.2074,-22.4496C80.8753,-18.0396 95.4548,-13.2826 109,-11 127.777,-7.83569 148.764,-7.14185 166.834,-7.40612"/>
<text text-anchor="middle" x="129" y="-25" font-family="Helvetica,sans-Serif" font-size="10.00">MatrixPr</text>
<text text-anchor="middle" x="129" y="-14" font-family="Helvetica,sans-Serif" font-size="10.00">Matrix</text>
</g>
</g>
</svg>
