<?xml version="1.0" encoding="UTF-8" standalone="no"?>
<!DOCTYPE svg PUBLIC "-//W3C//DTD SVG 1.1//EN"
 "http://www.w3.org/Graphics/SVG/1.1/DTD/svg11.dtd">
<!-- Generated by graphviz version 2.38.0 (20140413.2041)
 -->
<!-- Title: USB host Controller (UHC) Pages: 1 -->
<svg width="413pt" height="176pt"
 viewBox="0.00 0.00 413.00 175.50" xmlns="http://www.w3.org/2000/svg" xmlns:xlink="http://www.w3.org/1999/xlink">
<g id="graph0" class="graph" transform="scale(1 1) rotate(0) translate(4 171.5)">
<title>USB host Controller (UHC)</title>
<polygon fill="white" stroke="none" points="-4,4 -4,-171.5 409,-171.5 409,4 -4,4"/>
<!-- Node0 -->
<g id="node1" class="node"><title>Node0</title>
<polygon fill="#bfbfbf" stroke="black" points="129,-73.5 129,-103.5 240,-103.5 240,-73.5 129,-73.5"/>
<text text-anchor="start" x="137" y="-91.5" font-family="Helvetica,sans-Serif" font-size="10.00">USB host Controller</text>
<text text-anchor="middle" x="184.5" y="-80.5" font-family="Helvetica,sans-Serif" font-size="10.00"> (UHC)</text>
</g>
<!-- Node2 -->
<g id="node2" class="node"><title>Node2</title>
<g id="a_node2"><a xlink:href="group___u_s_b_h__group__interne.xhtml" target="_top" xlink:title="Internal implementation. ">
<polygon fill="white" stroke="black" points="276,-148 276,-167 405,-167 405,-148 276,-148"/>
<text text-anchor="middle" x="340.5" y="-155" font-family="Helvetica,sans-Serif" font-size="10.00">Implementation of UHC</text>
</a>
</g>
</g>
<!-- Node0&#45;&gt;Node2 -->
<g id="edge2" class="edge"><title>Node0&#45;&gt;Node2</title>
<path fill="none" stroke="black" d="M218.252,-108.823C235.081,-118.685 256.172,-130.17 276,-138.5 284.487,-142.066 293.871,-145.258 302.762,-147.963"/>
<polygon fill="black" stroke="black" points="219.759,-105.647 209.376,-103.541 216.18,-111.663 219.759,-105.647"/>
</g>
<!-- Node4 -->
<g id="node4" class="node"><title>Node4</title>
<g id="a_node4"><a xlink:href="group___u_s_b_h__basic__use__case__setup__code.xhtml" target="_top" xlink:title="Common example code for all USB hosts. ">
<polygon fill="white" stroke="black" points="277.5,-98.5 277.5,-128.5 403.5,-128.5 403.5,-98.5 277.5,-98.5"/>
<text text-anchor="start" x="285.5" y="-116.5" font-family="Helvetica,sans-Serif" font-size="10.00">USB Host Controller</text>
<text text-anchor="middle" x="340.5" y="-105.5" font-family="Helvetica,sans-Serif" font-size="10.00"> (UHC) &#45; Example code</text>
</a>
</g>
</g>
<!-- Node0&#45;&gt;Node4 -->
<g id="edge4" class="edge"><title>Node0&#45;&gt;Node4</title>
<path fill="none" stroke="black" d="M250.237,-99.0092C259.211,-100.466 268.413,-101.96 277.339,-103.409"/>
<polygon fill="black" stroke="black" points="250.66,-95.5322 240.228,-97.3845 249.538,-102.442 250.66,-95.5322"/>
</g>
<!-- Node3 -->
<g id="node5" class="node"><title>Node3</title>
<g id="a_node5"><a xlink:href="group___u_s_b_h__basic__use__case__setup__prereq.xhtml" target="_top" xlink:title="Common prerequisites for all USB hosts. ">
<polygon fill="white" stroke="black" points="280,-49.5 280,-79.5 401,-79.5 401,-49.5 280,-49.5"/>
<text text-anchor="start" x="288" y="-67.5" font-family="Helvetica,sans-Serif" font-size="10.00">USB Host Controller</text>
<text text-anchor="middle" x="340.5" y="-56.5" font-family="Helvetica,sans-Serif" font-size="10.00"> (UHC) &#45; Prerequisites</text>
</a>
</g>
</g>
<!-- Node0&#45;&gt;Node3 -->
<g id="edge3" class="edge"><title>Node0&#45;&gt;Node3</title>
<path fill="none" stroke="black" d="M250.345,-78.3943C260.174,-76.8625 270.274,-75.2885 279.982,-73.7755"/>
<polygon fill="black" stroke="black" points="249.57,-74.9727 240.228,-79.9709 250.648,-81.8892 249.57,-74.9727"/>
</g>
<!-- Node5 -->
<g id="node6" class="node"><title>Node5</title>
<g id="a_node6"><a xlink:href="group___u_s_b_h__basic__use__case__setup__flow.xhtml" target="_top" xlink:title="Common workflow for all USB devices. ">
<polygon fill="white" stroke="black" points="279.5,-0.5 279.5,-30.5 401.5,-30.5 401.5,-0.5 279.5,-0.5"/>
<text text-anchor="start" x="287.5" y="-18.5" font-family="Helvetica,sans-Serif" font-size="10.00">USB Device Controller</text>
<text text-anchor="middle" x="340.5" y="-7.5" font-family="Helvetica,sans-Serif" font-size="10.00"> (UHC) &#45; Workflow</text>
</a>
</g>
</g>
<!-- Node0&#45;&gt;Node5 -->
<g id="edge5" class="edge"><title>Node0&#45;&gt;Node5</title>
<path fill="none" stroke="black" d="M219.995,-68.4017C236.648,-59.068 257.08,-48.1498 276,-39.5 282.753,-36.4129 290.027,-33.3917 297.158,-30.591"/>
<polygon fill="black" stroke="black" points="218.144,-65.4277 211.165,-73.3996 221.592,-71.5195 218.144,-65.4277"/>
</g>
<!-- Node1 -->
<g id="node3" class="node"><title>Node1</title>
<g id="a_node3"><a xlink:href="group__usb__host__group.xhtml" target="_top" xlink:title="This module includes USB Stack Host implementation. ">
<polygon fill="white" stroke="black" points="0,-79 0,-98 93,-98 93,-79 0,-79"/>
<text text-anchor="middle" x="46.5" y="-86" font-family="Helvetica,sans-Serif" font-size="10.00">USB Stack Host</text>
</a>
</g>
</g>
<!-- Node1&#45;&gt;Node0 -->
<g id="edge1" class="edge"><title>Node1&#45;&gt;Node0</title>
<path fill="none" stroke="black" d="M103.269,-88.5C111.688,-88.5 120.365,-88.5 128.762,-88.5"/>
<polygon fill="black" stroke="black" points="103.164,-85.0001 93.1644,-88.5 103.164,-92.0001 103.164,-85.0001"/>
</g>
</g>
</svg>
