<?xml version="1.0" encoding="UTF-8" standalone="no"?>
<!DOCTYPE svg PUBLIC "-//W3C//DTD SVG 1.1//EN"
 "http://www.w3.org/Graphics/SVG/1.1/DTD/svg11.dtd">
<!-- Generated by graphviz version 2.38.0 (20140413.2041)
 -->
<!-- Title: Gmacd_module Pages: 1 -->
<svg width="261pt" height="104pt"
 viewBox="0.00 0.00 261.00 104.00" xmlns="http://www.w3.org/2000/svg" xmlns:xlink="http://www.w3.org/1999/xlink">
<g id="graph0" class="graph" transform="scale(1 1) rotate(0) translate(4 100)">
<title>Gmacd_module</title>
<polygon fill="white" stroke="none" points="-4,4 -4,-100 257,-100 257,4 -4,4"/>
<!-- Node3 -->
<g id="node1" class="node"><title>Node3</title>
<g id="a_node1"><a xlink:href="group__gmacd__functions.xhtml" target="_top" xlink:title="GMAC Driver Functions">
<polygon fill="white" stroke="black" points="128,-76.5 128,-95.5 253,-95.5 253,-76.5 128,-76.5"/>
<text text-anchor="middle" x="190.5" y="-83.5" font-family="Helvetica,sans-Serif" font-size="10.00">GMAC Driver Functions</text>
</a>
</g>
</g>
<!-- Node0 -->
<g id="node2" class="node"><title>Node0</title>
<polygon fill="#bfbfbf" stroke="black" points="0,-38.5 0,-57.5 92,-57.5 92,-38.5 0,-38.5"/>
<text text-anchor="middle" x="46" y="-45.5" font-family="Helvetica,sans-Serif" font-size="10.00">Gmacd_module</text>
</g>
<!-- Node0&#45;&gt;Node3 -->
<g id="edge3" class="edge"><title>Node0&#45;&gt;Node3</title>
<path fill="none" stroke="black" d="M92.6531,-60.1742C112.358,-65.4287 135.075,-71.4866 153.553,-76.4141"/>
<polygon fill="black" stroke="black" points="93.523,-56.7839 82.9588,-57.589 91.7193,-63.5475 93.523,-56.7839"/>
</g>
<!-- Node1 -->
<g id="node3" class="node"><title>Node1</title>
<g id="a_node3"><a xlink:href="group__gmacd__defines.xhtml" target="_top" xlink:title="GMAC Driver Defines">
<polygon fill="white" stroke="black" points="132.5,-38.5 132.5,-57.5 248.5,-57.5 248.5,-38.5 132.5,-38.5"/>
<text text-anchor="middle" x="190.5" y="-45.5" font-family="Helvetica,sans-Serif" font-size="10.00">GMAC Driver Defines</text>
</a>
</g>
</g>
<!-- Node0&#45;&gt;Node1 -->
<g id="edge1" class="edge"><title>Node0&#45;&gt;Node1</title>
<path fill="none" stroke="black" d="M102.216,-48C112.119,-48 122.458,-48 132.412,-48"/>
<polygon fill="black" stroke="black" points="102.088,-44.5001 92.0879,-48 102.088,-51.5001 102.088,-44.5001"/>
</g>
<!-- Node2 -->
<g id="node4" class="node"><title>Node2</title>
<g id="a_node4"><a xlink:href="group__gmacd__types.xhtml" target="_top" xlink:title="GMAC Driver Types">
<polygon fill="white" stroke="black" points="137,-0.5 137,-19.5 244,-19.5 244,-0.5 137,-0.5"/>
<text text-anchor="middle" x="190.5" y="-7.5" font-family="Helvetica,sans-Serif" font-size="10.00">GMAC Driver Types</text>
</a>
</g>
</g>
<!-- Node0&#45;&gt;Node2 -->
<g id="edge2" class="edge"><title>Node0&#45;&gt;Node2</title>
<path fill="none" stroke="black" d="M92.6531,-35.8258C112.358,-30.5713 135.075,-24.5134 153.553,-19.5859"/>
<polygon fill="black" stroke="black" points="91.7193,-32.4525 82.9588,-38.411 93.523,-39.2161 91.7193,-32.4525"/>
</g>
</g>
</svg>
