<?xml version="1.0" encoding="UTF-8" standalone="no"?>
<!DOCTYPE svg PUBLIC "-//W3C//DTD SVG 1.1//EN"
 "http://www.w3.org/Graphics/SVG/1.1/DTD/svg11.dtd">
<!-- Generated by graphviz version 2.38.0 (20140413.2041)
 -->
<!-- Title: USBH_HAL_ConfigureControlPipe Pages: 1 -->
<svg width="370pt" height="104pt"
 viewBox="0.00 0.00 370.00 104.00" xmlns="http://www.w3.org/2000/svg" xmlns:xlink="http://www.w3.org/1999/xlink">
<g id="graph0" class="graph" transform="scale(1 1) rotate(0) translate(4 100)">
<title>USBH_HAL_ConfigureControlPipe</title>
<polygon fill="white" stroke="none" points="-4,4 -4,-100 366,-100 366,4 -4,4"/>
<!-- Node36 -->
<g id="node1" class="node"><title>Node36</title>
<polygon fill="#bfbfbf" stroke="black" points="0,-38.5 0,-57.5 176,-57.5 176,-38.5 0,-38.5"/>
<text text-anchor="middle" x="88" y="-45.5" font-family="Helvetica,sans-Serif" font-size="10.00">USBH_HAL_ConfigureControlPipe</text>
</g>
<!-- Node37 -->
<g id="node2" class="node"><title>Node37</title>
<g id="a_node2"><a xlink:href="group___u_s_b_h__group__interne.xhtml#ga5946f5d7c3385b5001db37d9455f5c67" target="_top" xlink:title="Device enumeration step 5 Requests the USB device descriptor. ">
<polygon fill="white" stroke="red" points="215,-76.5 215,-95.5 359,-95.5 359,-76.5 215,-76.5"/>
<text text-anchor="middle" x="287" y="-83.5" font-family="Helvetica,sans-Serif" font-size="10.00">USBH_enumeration_step5</text>
</a>
</g>
</g>
<!-- Node36&#45;&gt;Node37 -->
<g id="edge1" class="edge"><title>Node36&#45;&gt;Node37</title>
<path fill="none" stroke="midnightblue" d="M148.564,-59.4894C176.672,-64.9114 209.822,-71.3058 236.523,-76.4561"/>
<polygon fill="midnightblue" stroke="midnightblue" points="148.939,-55.9974 138.457,-57.54 147.613,-62.8707 148.939,-55.9974"/>
</g>
<!-- Node49 -->
<g id="node3" class="node"><title>Node49</title>
<g id="a_node3"><a xlink:href="group___u_s_b_h__group__interne.xhtml#ga4216b2f5091c5b72a41b6092029ad8a4" target="_top" xlink:title="Device enumeration step 9 Send a Set address setup request. ">
<polygon fill="white" stroke="red" points="215,-38.5 215,-57.5 359,-57.5 359,-38.5 215,-38.5"/>
<text text-anchor="middle" x="287" y="-45.5" font-family="Helvetica,sans-Serif" font-size="10.00">USBH_enumeration_step9</text>
</a>
</g>
</g>
<!-- Node36&#45;&gt;Node49 -->
<g id="edge2" class="edge"><title>Node36&#45;&gt;Node49</title>
<path fill="none" stroke="midnightblue" d="M186.557,-48C196.059,-48 205.573,-48 214.745,-48"/>
<polygon fill="midnightblue" stroke="midnightblue" points="186.267,-44.5001 176.267,-48 186.267,-51.5001 186.267,-44.5001"/>
</g>
<!-- Node53 -->
<g id="node4" class="node"><title>Node53</title>
<g id="a_node4"><a xlink:href="group___u_s_b_h__group__interne.xhtml#ga4d0656fe000b76d8a76804d09386f840" target="_top" xlink:title="Device enumeration step 11 Updates USB host pipe with the new USB address. ">
<polygon fill="white" stroke="red" points="212,-0.5 212,-19.5 362,-19.5 362,-0.5 212,-0.5"/>
<text text-anchor="middle" x="287" y="-7.5" font-family="Helvetica,sans-Serif" font-size="10.00">USBH_enumeration_step11</text>
</a>
</g>
</g>
<!-- Node36&#45;&gt;Node53 -->
<g id="edge3" class="edge"><title>Node36&#45;&gt;Node53</title>
<path fill="none" stroke="midnightblue" d="M148.564,-36.5106C176.672,-31.0886 209.822,-24.6942 236.523,-19.5439"/>
<polygon fill="midnightblue" stroke="midnightblue" points="147.613,-33.1293 138.457,-38.46 148.939,-40.0026 147.613,-33.1293"/>
</g>
</g>
</svg>
