<?xml version="1.0" encoding="UTF-8" standalone="no"?>
<!DOCTYPE svg PUBLIC "-//W3C//DTD SVG 1.1//EN"
 "http://www.w3.org/Graphics/SVG/1.1/DTD/svg11.dtd">
<!-- Generated by graphviz version 2.38.0 (20140413.2041)
 -->
<!-- Title: USBH_HAL_PipeInterrupt Pages: 1 -->
<svg width="568pt" height="519pt"
 viewBox="0.00 0.00 568.00 519.00" xmlns="http://www.w3.org/2000/svg" xmlns:xlink="http://www.w3.org/1999/xlink">
<g id="graph0" class="graph" transform="scale(1 1) rotate(0) translate(4 515)">
<title>USBH_HAL_PipeInterrupt</title>
<polygon fill="white" stroke="none" points="-4,4 -4,-515 564,-515 564,4 -4,4"/>
<!-- Node692 -->
<g id="node1" class="node"><title>Node692</title>
<polygon fill="#bfbfbf" stroke="black" points="0,-247.5 0,-266.5 137,-266.5 137,-247.5 0,-247.5"/>
<text text-anchor="middle" x="68.5" y="-254.5" font-family="Helvetica,sans-Serif" font-size="10.00">USBH_HAL_PipeInterrupt</text>
</g>
<!-- Node693 -->
<g id="node2" class="node"><title>Node693</title>
<g id="a_node2"><a xlink:href="usbhs_8h.xhtml#ae752afec4dfecc9565eaa4242ce9233f" target="_top" xlink:title="Gets USB host interrupt status. ">
<polygon fill="white" stroke="black" points="393,-491.5 393,-510.5 554,-510.5 554,-491.5 393,-491.5"/>
<text text-anchor="middle" x="473.5" y="-498.5" font-family="Helvetica,sans-Serif" font-size="10.00">USBHS_HostGetIntTypeStatus</text>
</a>
</g>
</g>
<!-- Node692&#45;&gt;Node693 -->
<g id="edge1" class="edge"><title>Node692&#45;&gt;Node693</title>
<path fill="none" stroke="midnightblue" d="M71.1889,-266.695C77.5482,-300.017 103.34,-410.513 173,-460 233.511,-502.988 318.577,-510.99 382.595,-509.544"/>
<polygon fill="midnightblue" stroke="midnightblue" points="382.794,-513.039 392.682,-509.234 382.58,-506.043 382.794,-513.039"/>
</g>
<!-- Node694 -->
<g id="node3" class="node"><title>Node694</title>
<g id="a_node3"><a xlink:href="usbhs_8h.xhtml#a0a8e28b882f4abf73c473980d36c7e06" target="_top" xlink:title="Gets USB host interrupt status. ">
<polygon fill="white" stroke="black" points="387,-448.5 387,-467.5 560,-467.5 560,-448.5 387,-448.5"/>
<text text-anchor="middle" x="473.5" y="-455.5" font-family="Helvetica,sans-Serif" font-size="10.00">USBHS_IsHostPipeIntTypeEnable</text>
</a>
</g>
</g>
<!-- Node692&#45;&gt;Node694 -->
<g id="edge2" class="edge"><title>Node692&#45;&gt;Node694</title>
<path fill="none" stroke="midnightblue" d="M72.1827,-266.741C80.9246,-296.437 111.63,-386.165 173,-425 234.553,-463.951 317.757,-470.292 380.846,-467.974"/>
<polygon fill="midnightblue" stroke="midnightblue" points="381.355,-471.455 391.188,-467.511 381.042,-464.462 381.355,-471.455"/>
</g>
<!-- Node695 -->
<g id="node4" class="node"><title>Node695</title>
<g id="a_node4"><a xlink:href="usbhs_8h.xhtml#a97e601451758556ee0591fae627974d8" target="_top" xlink:title="Gets USB host interrupt status. ">
<polygon fill="white" stroke="black" points="398.5,-401.5 398.5,-420.5 548.5,-420.5 548.5,-401.5 398.5,-401.5"/>
<text text-anchor="middle" x="473.5" y="-408.5" font-family="Helvetica,sans-Serif" font-size="10.00">USBHS_HostAckPipeIntType</text>
</a>
</g>
</g>
<!-- Node692&#45;&gt;Node695 -->
<g id="edge3" class="edge"><title>Node692&#45;&gt;Node695</title>
<path fill="none" stroke="midnightblue" d="M73.2558,-266.641C84.0668,-292.898 118.048,-365.666 173,-395 248.06,-435.068 349.322,-430.505 412.755,-421.961"/>
<polygon fill="midnightblue" stroke="midnightblue" points="413.58,-425.379 422.986,-420.504 412.593,-418.449 413.58,-425.379"/>
</g>
<!-- Node696 -->
<g id="node5" class="node"><title>Node696</title>
<g id="a_node5"><a xlink:href="group__uhd__group.xhtml#gafba473f1b723cdb9500b91ec7fad0207" target="_top" xlink:title="USBH_HAL_PipeInReceived">
<polygon fill="white" stroke="red" points="189,-190.5 189,-209.5 335,-209.5 335,-190.5 189,-190.5"/>
<text text-anchor="middle" x="262" y="-197.5" font-family="Helvetica,sans-Serif" font-size="10.00">USBH_HAL_PipeInReceived</text>
</a>
</g>
</g>
<!-- Node692&#45;&gt;Node696 -->
<g id="edge4" class="edge"><title>Node692&#45;&gt;Node696</title>
<path fill="none" stroke="midnightblue" d="M92.6217,-247.457C113.397,-239.137 144.872,-227.157 173,-219 182.024,-216.383 191.663,-213.947 201.13,-211.752"/>
<polygon fill="midnightblue" stroke="midnightblue" points="201.913,-215.164 210.901,-209.554 200.376,-208.334 201.913,-215.164"/>
</g>
<!-- Node699 -->
<g id="node6" class="node"><title>Node699</title>
<g id="a_node6"><a xlink:href="usbhs_8h.xhtml#a32c56acaace52b440a308d9bce8cafff" target="_top" xlink:title="Gets USB host interrupt status. ">
<polygon fill="white" stroke="black" points="389.5,-294.5 389.5,-313.5 557.5,-313.5 557.5,-294.5 389.5,-294.5"/>
<text text-anchor="middle" x="473.5" y="-301.5" font-family="Helvetica,sans-Serif" font-size="10.00">USBHS_HostDisablePipeIntType</text>
</a>
</g>
</g>
<!-- Node692&#45;&gt;Node699 -->
<g id="edge19" class="edge"><title>Node692&#45;&gt;Node699</title>
<path fill="none" stroke="midnightblue" d="M132.667,-266.539C145.976,-268.441 159.94,-270.356 173,-272 242.032,-280.687 320.21,-288.988 379.38,-294.958"/>
<polygon fill="midnightblue" stroke="midnightblue" points="379.153,-298.453 389.452,-295.97 379.853,-291.488 379.153,-298.453"/>
</g>
<!-- Node700 -->
<g id="node7" class="node"><title>Node700</title>
<g id="a_node7"><a xlink:href="usbhs_8h.xhtml#acd60bcdb7e5420ac4cfb8b457838f9ba" target="_top" xlink:title="Gets USB host interrupt status. ">
<polygon fill="white" stroke="black" points="391,-237.5 391,-256.5 556,-256.5 556,-237.5 391,-237.5"/>
<text text-anchor="middle" x="473.5" y="-244.5" font-family="Helvetica,sans-Serif" font-size="10.00">USBHS_HostEnablePipeIntType</text>
</a>
</g>
</g>
<!-- Node692&#45;&gt;Node700 -->
<g id="edge18" class="edge"><title>Node692&#45;&gt;Node700</title>
<path fill="none" stroke="midnightblue" d="M137.218,-258.557C194.258,-259.495 277.999,-259.999 351,-257 360.675,-256.603 370.772,-256.028 380.832,-255.352"/>
<polygon fill="midnightblue" stroke="midnightblue" points="381.133,-258.839 390.862,-254.645 380.641,-251.857 381.133,-258.839"/>
</g>
<!-- Node701 -->
<g id="node8" class="node"><title>Node701</title>
<g id="a_node8"><a xlink:href="usbhs_8h.xhtml#a4706c65710ae219aab80c2645d24fa81" target="_top" xlink:title="Gets USB host interrupt status. ">
<polygon fill="white" stroke="black" points="400,-76.5 400,-95.5 547,-95.5 547,-76.5 400,-76.5"/>
<text text-anchor="middle" x="473.5" y="-83.5" font-family="Helvetica,sans-Serif" font-size="10.00">USBHS_HostPipeIntDisable</text>
</a>
</g>
</g>
<!-- Node692&#45;&gt;Node701 -->
<g id="edge20" class="edge"><title>Node692&#45;&gt;Node701</title>
<path fill="none" stroke="midnightblue" d="M74.094,-247.145C86.2426,-222.313 121.83,-157.093 173,-128 239.152,-90.3885 326.395,-81.9021 389.646,-81.6181"/>
<polygon fill="midnightblue" stroke="midnightblue" points="389.97,-85.1188 399.979,-81.6433 389.987,-78.1188 389.97,-85.1188"/>
</g>
<!-- Node703 -->
<g id="node9" class="node"><title>Node703</title>
<g id="a_node9"><a xlink:href="group__uhd__group.xhtml#gaf8e9ff0a2565377088b95ef2b31787de" target="_top" xlink:title="USBH_HAL_PipeXfrEnd">
<polygon fill="white" stroke="red" points="410.5,-190.5 410.5,-209.5 536.5,-209.5 536.5,-190.5 410.5,-190.5"/>
<text text-anchor="middle" x="473.5" y="-197.5" font-family="Helvetica,sans-Serif" font-size="10.00">USBH_HAL_PipeXfrEnd</text>
</a>
</g>
</g>
<!-- Node692&#45;&gt;Node703 -->
<g id="edge22" class="edge"><title>Node692&#45;&gt;Node703</title>
<path fill="none" stroke="midnightblue" d="M78.3035,-247.354C94.8391,-230.039 132.538,-194.26 173,-181 261.457,-152.011 372.323,-172.74 431.234,-187.909"/>
<polygon fill="midnightblue" stroke="midnightblue" points="430.36,-191.298 440.922,-190.475 432.152,-184.531 430.36,-191.298"/>
</g>
<!-- Node707 -->
<g id="node10" class="node"><title>Node707</title>
<g id="a_node10"><a xlink:href="group__uhd__group.xhtml#ga39a6506d44760a518b49d004574bc9c9" target="_top" xlink:title="USBH_HAL_PipeOutReady">
<polygon fill="white" stroke="red" points="191.5,-342.5 191.5,-361.5 332.5,-361.5 332.5,-342.5 191.5,-342.5"/>
<text text-anchor="middle" x="262" y="-349.5" font-family="Helvetica,sans-Serif" font-size="10.00">USBH_HAL_PipeOutReady</text>
</a>
</g>
</g>
<!-- Node692&#45;&gt;Node707 -->
<g id="edge9" class="edge"><title>Node692&#45;&gt;Node707</title>
<path fill="none" stroke="midnightblue" d="M80.8224,-266.691C99.0674,-281.843 136.619,-311.149 173,-328 183.011,-332.637 194.091,-336.528 204.917,-339.735"/>
<polygon fill="midnightblue" stroke="midnightblue" points="204.176,-343.162 214.749,-342.49 206.065,-336.421 204.176,-343.162"/>
</g>
<!-- Node708 -->
<g id="node11" class="node"><title>Node708</title>
<g id="a_node11"><a xlink:href="usbhs_8h.xhtml#a568fb6f40affb306e060461fe065a516" target="_top" xlink:title="Gets USB host interrupt status. ">
<polygon fill="white" stroke="black" points="404.5,-344.5 404.5,-363.5 542.5,-363.5 542.5,-344.5 404.5,-344.5"/>
<text text-anchor="middle" x="473.5" y="-351.5" font-family="Helvetica,sans-Serif" font-size="10.00">USBHS_HostGetPipeType</text>
</a>
</g>
</g>
<!-- Node692&#45;&gt;Node708 -->
<g id="edge29" class="edge"><title>Node692&#45;&gt;Node708</title>
<path fill="none" stroke="midnightblue" d="M74.5914,-266.811C87.3738,-290.22 123.381,-349.03 173,-371 260.558,-409.767 376.837,-384.079 435.416,-366.523"/>
<polygon fill="midnightblue" stroke="midnightblue" points="436.462,-369.864 444.987,-363.572 434.399,-363.174 436.462,-369.864"/>
</g>
<!-- Node720 -->
<g id="node12" class="node"><title>Node720</title>
<g id="a_node12"><a xlink:href="usbhs_8h.xhtml#a556066e182615fc6072e5b6ad6a915c0" target="_top" xlink:title="Gets USB host interrupt status. ">
<polygon fill="white" stroke="black" points="173,-38.5 173,-57.5 351,-57.5 351,-38.5 173,-38.5"/>
<text text-anchor="middle" x="262" y="-45.5" font-family="Helvetica,sans-Serif" font-size="10.00">USBHS_HostGetNumOfBusyBank</text>
</a>
</g>
</g>
<!-- Node692&#45;&gt;Node720 -->
<g id="edge17" class="edge"><title>Node692&#45;&gt;Node720</title>
<path fill="none" stroke="midnightblue" d="M72.052,-247.181C80.6021,-216.289 111.24,-120.278 173,-72 178.449,-67.7408 184.599,-64.2363 191.054,-61.353"/>
<polygon fill="midnightblue" stroke="midnightblue" points="192.662,-64.4813 200.681,-57.5576 190.095,-57.9691 192.662,-64.4813"/>
</g>
<!-- Node721 -->
<g id="node13" class="node"><title>Node721</title>
<g id="a_node13"><a xlink:href="usbhs_8h.xhtml#aa347527d17e6ee48869cabe3344f0b8e" target="_top" xlink:title="Gets USB host interrupt status. ">
<polygon fill="white" stroke="black" points="399.5,-133.5 399.5,-152.5 547.5,-152.5 547.5,-133.5 399.5,-133.5"/>
<text text-anchor="middle" x="473.5" y="-140.5" font-family="Helvetica,sans-Serif" font-size="10.00">USBHS_HostEnableAutoSw</text>
</a>
</g>
</g>
<!-- Node692&#45;&gt;Node721 -->
<g id="edge21" class="edge"><title>Node692&#45;&gt;Node721</title>
<path fill="none" stroke="midnightblue" d="M76.1898,-247.497C90.9557,-227.411 128.575,-180.939 173,-162 241.554,-132.775 327.001,-130.276 389.062,-133.762"/>
<polygon fill="midnightblue" stroke="midnightblue" points="389.003,-137.265 399.202,-134.396 389.44,-130.279 389.003,-137.265"/>
</g>
<!-- Node722 -->
<g id="node14" class="node"><title>Node722</title>
<g id="a_node14"><a xlink:href="group__uhd__group.xhtml#gaba849a4ecb7f5b837541fbccf850da59" target="_top" xlink:title="USBH_HAL_PipeAbort">
<polygon fill="white" stroke="red" points="201,-228.5 201,-247.5 323,-247.5 323,-228.5 201,-228.5"/>
<text text-anchor="middle" x="262" y="-235.5" font-family="Helvetica,sans-Serif" font-size="10.00">USBH_HAL_PipeAbort</text>
</a>
</g>
</g>
<!-- Node692&#45;&gt;Node722 -->
<g id="edge23" class="edge"><title>Node692&#45;&gt;Node722</title>
<path fill="none" stroke="midnightblue" d="M137.016,-250.301C154.389,-248.578 173.124,-246.719 190.638,-244.981"/>
<polygon fill="midnightblue" stroke="midnightblue" points="191.183,-248.444 200.789,-243.974 190.492,-241.478 191.183,-248.444"/>
</g>
<!-- Node724 -->
<g id="node15" class="node"><title>Node724</title>
<g id="a_node15"><a xlink:href="group__uhd__group.xhtml#ga35a73750c6a0ec35950ed24ec89b1cac" target="_top" xlink:title="USBH_HAL_GetPipeError">
<polygon fill="white" stroke="red" points="194,-0.5 194,-19.5 330,-19.5 330,-0.5 194,-0.5"/>
<text text-anchor="middle" x="262" y="-7.5" font-family="Helvetica,sans-Serif" font-size="10.00">USBH_HAL_GetPipeError</text>
</a>
</g>
</g>
<!-- Node692&#45;&gt;Node724 -->
<g id="edge28" class="edge"><title>Node692&#45;&gt;Node724</title>
<path fill="none" stroke="midnightblue" d="M70.7883,-247.353C76.0462,-211.997 99.2321,-88.4893 173,-29 176.517,-26.1638 180.362,-23.7259 184.415,-21.6325"/>
<polygon fill="midnightblue" stroke="midnightblue" points="185.848,-24.8259 193.577,-17.5789 183.016,-18.4245 185.848,-24.8259"/>
</g>
<!-- Node696&#45;&gt;Node699 -->
<g id="edge5" class="edge"><title>Node696&#45;&gt;Node699</title>
<path fill="none" stroke="midnightblue" d="M331.238,-209.61C338.196,-212.072 344.927,-215.151 351,-219 373.225,-233.086 366.338,-249.708 387,-266 400.184,-276.396 416.659,-284.591 431.619,-290.669"/>
<polygon fill="midnightblue" stroke="midnightblue" points="430.592,-294.024 441.182,-294.359 433.112,-287.493 430.592,-294.024"/>
</g>
<!-- Node696&#45;&gt;Node700 -->
<g id="edge6" class="edge"><title>Node696&#45;&gt;Node700</title>
<path fill="none" stroke="midnightblue" d="M307.794,-209.546C321.653,-212.533 336.966,-215.868 351,-219 374.254,-224.19 399.972,-230.093 421.737,-235.136"/>
<polygon fill="midnightblue" stroke="midnightblue" points="421.222,-238.61 431.755,-237.462 422.805,-231.791 421.222,-238.61"/>
</g>
<!-- Node696&#45;&gt;Node701 -->
<g id="edge7" class="edge"><title>Node696&#45;&gt;Node701</title>
<path fill="none" stroke="midnightblue" d="M277.15,-190.477C299.81,-175.423 345.878,-145.62 387,-124 403.907,-115.111 423.323,-106.37 439.374,-99.517"/>
<polygon fill="midnightblue" stroke="midnightblue" points="441.026,-102.619 448.882,-95.5095 438.307,-96.1686 441.026,-102.619"/>
</g>
<!-- Node696&#45;&gt;Node703 -->
<g id="edge8" class="edge"><title>Node696&#45;&gt;Node703</title>
<path fill="none" stroke="midnightblue" d="M335.098,-200C356.153,-200 379.164,-200 400.23,-200"/>
<polygon fill="midnightblue" stroke="midnightblue" points="400.398,-203.5 410.398,-200 400.398,-196.5 400.398,-203.5"/>
</g>
<!-- Node707&#45;&gt;Node693 -->
<g id="edge15" class="edge"><title>Node707&#45;&gt;Node693</title>
<path fill="none" stroke="midnightblue" d="M269.866,-361.811C286.88,-385.377 333.509,-445.548 387,-477 394.808,-481.591 403.535,-485.339 412.349,-488.389"/>
<polygon fill="midnightblue" stroke="midnightblue" points="411.316,-491.733 421.907,-491.431 413.439,-485.063 411.316,-491.733"/>
</g>
<!-- Node707&#45;&gt;Node694 -->
<g id="edge14" class="edge"><title>Node707&#45;&gt;Node694</title>
<path fill="none" stroke="midnightblue" d="M275.786,-361.539C297.629,-377.484 343.95,-409.786 387,-430 399.619,-435.925 413.831,-441.122 426.992,-445.378"/>
<polygon fill="midnightblue" stroke="midnightblue" points="426.218,-448.804 436.807,-448.446 428.307,-442.122 426.218,-448.804"/>
</g>
<!-- Node707&#45;&gt;Node695 -->
<g id="edge10" class="edge"><title>Node707&#45;&gt;Node695</title>
<path fill="none" stroke="midnightblue" d="M297.126,-361.611C333.071,-371.734 389.783,-387.705 428.936,-398.731"/>
<polygon fill="midnightblue" stroke="midnightblue" points="428.161,-402.149 438.736,-401.491 430.059,-395.411 428.161,-402.149"/>
</g>
<!-- Node707&#45;&gt;Node699 -->
<g id="edge11" class="edge"><title>Node707&#45;&gt;Node699</title>
<path fill="none" stroke="midnightblue" d="M304.641,-342.459C338.127,-334.787 385.33,-323.972 421.156,-315.764"/>
<polygon fill="midnightblue" stroke="midnightblue" points="421.972,-319.168 430.938,-313.523 420.409,-312.344 421.972,-319.168"/>
</g>
<!-- Node707&#45;&gt;Node700 -->
<g id="edge12" class="edge"><title>Node707&#45;&gt;Node700</title>
<path fill="none" stroke="midnightblue" d="M279.633,-342.481C303.231,-329.099 347.91,-304.211 387,-285 404.385,-276.456 424.125,-267.626 440.255,-260.631"/>
<polygon fill="midnightblue" stroke="midnightblue" points="441.977,-263.7 449.778,-256.532 439.209,-257.271 441.977,-263.7"/>
</g>
<!-- Node707&#45;&gt;Node703 -->
<g id="edge16" class="edge"><title>Node707&#45;&gt;Node703</title>
<path fill="none" stroke="midnightblue" d="M271.598,-342.305C295.024,-316.075 360.022,-244.575 387,-228 397.293,-221.676 409.171,-216.617 420.737,-212.637"/>
<polygon fill="midnightblue" stroke="midnightblue" points="421.892,-215.942 430.336,-209.543 419.745,-209.279 421.892,-215.942"/>
</g>
<!-- Node707&#45;&gt;Node708 -->
<g id="edge13" class="edge"><title>Node707&#45;&gt;Node708</title>
<path fill="none" stroke="midnightblue" d="M332.76,-352.666C352.515,-352.855 374.145,-353.061 394.359,-353.254"/>
<polygon fill="midnightblue" stroke="midnightblue" points="394.435,-356.755 404.468,-353.351 394.502,-349.755 394.435,-356.755"/>
</g>
<!-- Node722&#45;&gt;Node699 -->
<g id="edge26" class="edge"><title>Node722&#45;&gt;Node699</title>
<path fill="none" stroke="midnightblue" d="M293.463,-247.597C330.262,-259.19 392.262,-278.722 432.781,-291.487"/>
<polygon fill="midnightblue" stroke="midnightblue" points="431.75,-294.832 442.34,-294.499 433.854,-288.155 431.75,-294.832"/>
</g>
<!-- Node722&#45;&gt;Node700 -->
<g id="edge25" class="edge"><title>Node722&#45;&gt;Node700</title>
<path fill="none" stroke="midnightblue" d="M323.034,-240.579C341.053,-241.353 361.245,-242.221 380.818,-243.061"/>
<polygon fill="midnightblue" stroke="midnightblue" points="380.842,-246.566 390.983,-243.498 381.142,-239.572 380.842,-246.566"/>
</g>
<!-- Node722&#45;&gt;Node703 -->
<g id="edge27" class="edge"><title>Node722&#45;&gt;Node703</title>
<path fill="none" stroke="midnightblue" d="M315.595,-228.46C344.235,-223.265 379.859,-216.804 409.92,-211.351"/>
<polygon fill="midnightblue" stroke="midnightblue" points="410.668,-214.772 419.883,-209.544 409.419,-207.885 410.668,-214.772"/>
</g>
<!-- Node722&#45;&gt;Node721 -->
<g id="edge24" class="edge"><title>Node722&#45;&gt;Node721</title>
<path fill="none" stroke="midnightblue" d="M323.002,-230.119C332.731,-227.431 342.418,-223.829 351,-219 371.275,-207.591 368.003,-194.429 387,-181 401.254,-170.924 418.607,-162.612 433.945,-156.357"/>
<polygon fill="midnightblue" stroke="midnightblue" points="435.645,-159.451 443.681,-152.547 433.093,-152.932 435.645,-159.451"/>
</g>
</g>
</svg>
