<?xml version="1.0" encoding="UTF-8" standalone="no"?>
<!DOCTYPE svg PUBLIC "-//W3C//DTD SVG 1.1//EN"
 "http://www.w3.org/Graphics/SVG/1.1/DTD/svg11.dtd">
<!-- Generated by graphviz version 2.38.0 (20140413.2041)
 -->
<!-- Title: MSDFunction_Configure Pages: 1 -->
<svg width="298pt" height="78pt"
 viewBox="0.00 0.00 298.00 77.50" xmlns="http://www.w3.org/2000/svg" xmlns:xlink="http://www.w3.org/1999/xlink">
<g id="graph0" class="graph" transform="scale(1 1) rotate(0) translate(4 73.5)">
<title>MSDFunction_Configure</title>
<polygon fill="white" stroke="none" points="-4,4 -4,-73.5 294,-73.5 294,4 -4,4"/>
<!-- Node463 -->
<g id="node1" class="node"><title>Node463</title>
<polygon fill="#bfbfbf" stroke="black" points="0,-22.5 0,-41.5 130,-41.5 130,-22.5 0,-22.5"/>
<text text-anchor="middle" x="65" y="-29.5" font-family="Helvetica,sans-Serif" font-size="10.00">MSDFunction_Configure</text>
</g>
<!-- Node464 -->
<g id="node2" class="node"><title>Node464</title>
<g id="a_node2"><a xlink:href="group__usb__descriptor.xhtml#gac720e8b7e3cec002c16397a66f5e03b1" target="_top" xlink:title="Parses the given descriptor list via customized function. ">
<polygon fill="white" stroke="red" points="166,-39 166,-69 290,-69 290,-39 166,-39"/>
<text text-anchor="start" x="174" y="-57" font-family="Helvetica,sans-Serif" font-size="10.00">USBGenericDescriptor</text>
<text text-anchor="middle" x="228" y="-46" font-family="Helvetica,sans-Serif" font-size="10.00">_Parse</text>
</a>
</g>
</g>
<!-- Node463&#45;&gt;Node464 -->
<g id="edge1" class="edge"><title>Node463&#45;&gt;Node464</title>
<path fill="none" stroke="midnightblue" d="M130.094,-40.7582C138.54,-41.9123 147.237,-43.1007 155.793,-44.2698"/>
<polygon fill="midnightblue" stroke="midnightblue" points="155.365,-47.7439 165.747,-45.63 156.313,-40.8083 155.365,-47.7439"/>
</g>
<!-- Node467 -->
<g id="node3" class="node"><title>Node467</title>
<g id="a_node3"><a xlink:href="group__usbd__msd.xhtml#ga63d1031361c1e8a4db44d5bb9e0c309c" target="_top" xlink:title="Resets the state of the MSD driver. ">
<polygon fill="white" stroke="black" points="173,-0.5 173,-19.5 283,-19.5 283,-0.5 173,-0.5"/>
<text text-anchor="middle" x="228" y="-7.5" font-family="Helvetica,sans-Serif" font-size="10.00">MSDFunction_Reset</text>
</a>
</g>
</g>
<!-- Node463&#45;&gt;Node467 -->
<g id="edge2" class="edge"><title>Node463&#45;&gt;Node467</title>
<path fill="none" stroke="midnightblue" d="M130.094,-23.2418C140.859,-21.7708 152.034,-20.2438 162.802,-18.7724"/>
<polygon fill="midnightblue" stroke="midnightblue" points="163.541,-22.2041 172.975,-17.3823 162.593,-15.2685 163.541,-22.2041"/>
</g>
</g>
</svg>
