<?xml version="1.0" encoding="UTF-8" standalone="no"?>
<!DOCTYPE svg PUBLIC "-//W3C//DTD SVG 1.1//EN"
 "http://www.w3.org/Graphics/SVG/1.1/DTD/svg11.dtd">
<!-- Generated by graphviz version 2.38.0 (20140413.2041)
 -->
<!-- Title: SCB_CleanInvalidateDCache Pages: 1 -->
<svg width="244pt" height="66pt"
 viewBox="0.00 0.00 244.00 66.00" xmlns="http://www.w3.org/2000/svg" xmlns:xlink="http://www.w3.org/1999/xlink">
<g id="graph0" class="graph" transform="scale(1 1) rotate(0) translate(4 62)">
<title>SCB_CleanInvalidateDCache</title>
<polygon fill="white" stroke="none" points="-4,4 -4,-62 240,-62 240,4 -4,4"/>
<!-- Node183 -->
<g id="node1" class="node"><title>Node183</title>
<polygon fill="#bfbfbf" stroke="black" points="0,-19.5 0,-38.5 152,-38.5 152,-19.5 0,-19.5"/>
<text text-anchor="middle" x="76" y="-26.5" font-family="Helvetica,sans-Serif" font-size="10.00">SCB_CleanInvalidateDCache</text>
</g>
<!-- Node184 -->
<g id="node2" class="node"><title>Node184</title>
<g id="a_node2"><a xlink:href="group___c_m_s_i_s___core___instruction_interface.xhtml#ga5c7a006f5ba5778972ac9516733a0cc4" target="_top" xlink:title="Data Synchronization Barrier. ">
<polygon fill="white" stroke="black" points="188,-38.5 188,-57.5 236,-57.5 236,-38.5 188,-38.5"/>
<text text-anchor="middle" x="212" y="-45.5" font-family="Helvetica,sans-Serif" font-size="10.00">__DSB</text>
</a>
</g>
</g>
<!-- Node183&#45;&gt;Node184 -->
<g id="edge1" class="edge"><title>Node183&#45;&gt;Node184</title>
<path fill="none" stroke="midnightblue" d="M144.393,-38.5557C156.002,-40.2017 167.595,-41.8455 177.778,-43.2894"/>
<polygon fill="midnightblue" stroke="midnightblue" points="177.429,-46.7749 187.822,-44.7135 178.412,-39.8442 177.429,-46.7749"/>
</g>
<!-- Node185 -->
<g id="node3" class="node"><title>Node185</title>
<g id="a_node3"><a xlink:href="group___c_m_s_i_s___core___instruction_interface.xhtml#ga8f5af376adcfaea7f2ddb3ef9b6b2544" target="_top" xlink:title="Instruction Synchronization Barrier. ">
<polygon fill="white" stroke="black" points="190.5,-0.5 190.5,-19.5 233.5,-19.5 233.5,-0.5 190.5,-0.5"/>
<text text-anchor="middle" x="212" y="-7.5" font-family="Helvetica,sans-Serif" font-size="10.00">__ISB</text>
</a>
</g>
</g>
<!-- Node183&#45;&gt;Node185 -->
<g id="edge2" class="edge"><title>Node183&#45;&gt;Node185</title>
<path fill="none" stroke="midnightblue" d="M144.393,-19.4443C156.906,-17.6701 169.401,-15.8984 180.132,-14.3769"/>
<polygon fill="midnightblue" stroke="midnightblue" points="180.8,-17.8172 190.21,-12.9479 179.817,-10.8865 180.8,-17.8172"/>
</g>
</g>
</svg>
