<?xml version="1.0" encoding="UTF-8" standalone="no"?>
<!DOCTYPE svg PUBLIC "-//W3C//DTD SVG 1.1//EN"
 "http://www.w3.org/Graphics/SVG/1.1/DTD/svg11.dtd">
<!-- Generated by graphviz version 2.38.0 (20140413.2041)
 -->
<!-- Title: Parallel Input/Output Controller Pages: 1 -->
<svg width="285pt" height="88pt"
 viewBox="0.00 0.00 285.00 88.00" xmlns="http://www.w3.org/2000/svg" xmlns:xlink="http://www.w3.org/1999/xlink">
<g id="graph0" class="graph" transform="scale(1 1) rotate(0) translate(4 84)">
<title>Parallel Input/Output Controller</title>
<polygon fill="white" stroke="none" points="-4,4 -4,-84 281,-84 281,4 -4,4"/>
<!-- Node2 -->
<g id="node1" class="node"><title>Node2</title>
<g id="a_node1"><a xlink:href="group___s_a_m_v71___p_i_o.xhtml" target="_top" xlink:title="SOFTWARE API DEFINITION FOR Parallel Input/Output Controller. ">
<polygon fill="white" stroke="black" points="164,-49.5 164,-79.5 277,-79.5 277,-49.5 164,-49.5"/>
<text text-anchor="start" x="172" y="-67.5" font-family="Helvetica,sans-Serif" font-size="10.00">Parallel Input/Output</text>
<text text-anchor="middle" x="220.5" y="-56.5" font-family="Helvetica,sans-Serif" font-size="10.00"> Controller</text>
</a>
</g>
</g>
<!-- Node0 -->
<g id="node2" class="node"><title>Node0</title>
<polygon fill="#bfbfbf" stroke="black" points="0,-24.5 0,-54.5 113,-54.5 113,-24.5 0,-24.5"/>
<text text-anchor="start" x="8" y="-42.5" font-family="Helvetica,sans-Serif" font-size="10.00">Parallel Input/Output</text>
<text text-anchor="middle" x="56.5" y="-31.5" font-family="Helvetica,sans-Serif" font-size="10.00"> Controller</text>
</g>
<!-- Node0&#45;&gt;Node2 -->
<g id="edge2" class="edge"><title>Node0&#45;&gt;Node2</title>
<path fill="none" stroke="orange" stroke-dasharray="5,2" d="M113.251,-48.1036C129.634,-50.6318 147.548,-53.3963 163.921,-55.9229"/>
<text text-anchor="middle" x="138.5" y="-55.5" font-family="Helvetica,sans-Serif" font-size="10.00">Pio</text>
</g>
<!-- Node1 -->
<g id="node3" class="node"><title>Node1</title>
<g id="a_node3"><a xlink:href="group___s_a_m_e70___p_i_o.xhtml" target="_top" xlink:title="SOFTWARE API DEFINITION FOR Parallel Input/Output Controller. ">
<polygon fill="white" stroke="black" points="164,-0.5 164,-30.5 277,-30.5 277,-0.5 164,-0.5"/>
<text text-anchor="start" x="172" y="-18.5" font-family="Helvetica,sans-Serif" font-size="10.00">Parallel Input/Output</text>
<text text-anchor="middle" x="220.5" y="-7.5" font-family="Helvetica,sans-Serif" font-size="10.00"> Controller</text>
</a>
</g>
</g>
<!-- Node0&#45;&gt;Node1 -->
<g id="edge1" class="edge"><title>Node0&#45;&gt;Node1</title>
<path fill="none" stroke="orange" stroke-dasharray="5,2" d="M113.251,-31.2406C129.634,-28.8135 147.548,-26.1595 163.921,-23.734"/>
<text text-anchor="middle" x="138.5" y="-30.5" font-family="Helvetica,sans-Serif" font-size="10.00">Pio</text>
</g>
</g>
</svg>
