<?xml version="1.0" encoding="UTF-8" standalone="no"?>
<!DOCTYPE svg PUBLIC "-//W3C//DTD SVG 1.1//EN"
 "http://www.w3.org/Graphics/SVG/1.1/DTD/svg11.dtd">
<!-- Generated by graphviz version 2.38.0 (20140413.2041)
 -->
<!-- Title: USBD_HAL_SetTransferCallback Pages: 1 -->
<svg width="502pt" height="255pt"
 viewBox="0.00 0.00 502.00 254.70" xmlns="http://www.w3.org/2000/svg" xmlns:xlink="http://www.w3.org/1999/xlink">
<g id="graph0" class="graph" transform="scale(1 1) rotate(0) translate(4 250.698)">
<title>USBD_HAL_SetTransferCallback</title>
<polygon fill="white" stroke="none" points="-4,4 -4,-250.698 498,-250.698 498,4 -4,4"/>
<!-- Node1512 -->
<g id="node1" class="node"><title>Node1512</title>
<polygon fill="#bfbfbf" stroke="black" points="0,-101.698 0,-120.698 169,-120.698 169,-101.698 0,-101.698"/>
<text text-anchor="middle" x="84.5" y="-108.698" font-family="Helvetica,sans-Serif" font-size="10.00">USBD_HAL_SetTransferCallback</text>
</g>
<!-- Node1513 -->
<g id="node2" class="node"><title>Node1513</title>
<g id="a_node2"><a xlink:href="group__usbd__audio__speakerphone.xhtml#ga7394da0b26fda6ff7d1b6fb9077e487e" target="_top" xlink:title="Initialize Frame List for sending audio data. ">
<polygon fill="white" stroke="black" points="219.5,-216.198 219.5,-246.198 363.5,-246.198 363.5,-216.198 219.5,-216.198"/>
<text text-anchor="start" x="227.5" y="-234.198" font-family="Helvetica,sans-Serif" font-size="10.00">AUDDSpeakerPhoneDriver</text>
<text text-anchor="middle" x="291.5" y="-223.198" font-family="Helvetica,sans-Serif" font-size="10.00">_SetupWrite</text>
</a>
</g>
</g>
<!-- Node1512&#45;&gt;Node1513 -->
<g id="edge1" class="edge"><title>Node1512&#45;&gt;Node1513</title>
<path fill="none" stroke="midnightblue" d="M101.948,-127.783C123.716,-148.855 164.131,-185.021 205,-206.198 212.278,-209.969 220.207,-213.25 228.205,-216.082"/>
<polygon fill="midnightblue" stroke="midnightblue" points="104.389,-125.275 94.8052,-120.759 99.4807,-130.266 104.389,-125.275"/>
</g>
<!-- Node1514 -->
<g id="node3" class="node"><title>Node1514</title>
<g id="a_node3"><a xlink:href="group__usbd__audio__speakerphone.xhtml#ga3b2d399ec86c652274ccd147856162bc" target="_top" xlink:title="Initialize Frame List for sending audio data. ">
<polygon fill="white" stroke="black" points="222,-177.698 222,-196.698 361,-196.698 361,-177.698 222,-177.698"/>
<text text-anchor="middle" x="291.5" y="-184.698" font-family="Helvetica,sans-Serif" font-size="10.00">AUDDStream_SetupWrite</text>
</a>
</g>
</g>
<!-- Node1512&#45;&gt;Node1514 -->
<g id="edge2" class="edge"><title>Node1512&#45;&gt;Node1514</title>
<path fill="none" stroke="midnightblue" d="M111.445,-125.688C135.178,-138.426 171.575,-156.679 205,-168.198 215.638,-171.864 227.271,-174.998 238.433,-177.601"/>
<polygon fill="midnightblue" stroke="midnightblue" points="112.855,-122.471 102.398,-120.77 109.512,-128.621 112.855,-122.471"/>
</g>
<!-- Node1515 -->
<g id="node4" class="node"><title>Node1515</title>
<g id="a_node4"><a xlink:href="group__usbd__audio__speakerphone.xhtml#gaf4cab88cd592b3385f8911d4a289e7d6" target="_top" xlink:title="Initialize Frame List for sending audio data. ">
<polygon fill="white" stroke="red" points="205,-139.698 205,-158.698 378,-158.698 378,-139.698 205,-139.698"/>
<text text-anchor="middle" x="291.5" y="-146.698" font-family="Helvetica,sans-Serif" font-size="10.00">AUDDSpeakerPhone_SetupWrite</text>
</a>
</g>
</g>
<!-- Node1512&#45;&gt;Node1515 -->
<g id="edge3" class="edge"><title>Node1512&#45;&gt;Node1515</title>
<path fill="none" stroke="midnightblue" d="M147.098,-122.616C176.43,-128.053 211.107,-134.481 239.013,-139.654"/>
<polygon fill="midnightblue" stroke="midnightblue" points="147.436,-119.119 136.966,-120.738 146.16,-126.002 147.436,-119.119"/>
</g>
<!-- Node1517 -->
<g id="node5" class="node"><title>Node1517</title>
<g id="a_node5"><a xlink:href="group__usbd__interface.xhtml#gafc4728f4af70056b3a271f333b759592" target="_top" xlink:title="Sends data through a USB endpoint. ">
<polygon fill="white" stroke="red" points="254.5,-101.698 254.5,-120.698 328.5,-120.698 328.5,-101.698 254.5,-101.698"/>
<text text-anchor="middle" x="291.5" y="-108.698" font-family="Helvetica,sans-Serif" font-size="10.00">USBD_Write</text>
</a>
</g>
</g>
<!-- Node1512&#45;&gt;Node1517 -->
<g id="edge4" class="edge"><title>Node1512&#45;&gt;Node1517</title>
<path fill="none" stroke="midnightblue" d="M179.329,-111.198C205.958,-111.198 233.374,-111.198 254.316,-111.198"/>
<polygon fill="midnightblue" stroke="midnightblue" points="179.177,-107.698 169.177,-111.198 179.177,-114.698 179.177,-107.698"/>
</g>
<!-- Node1615 -->
<g id="node6" class="node"><title>Node1615</title>
<g id="a_node6"><a xlink:href="group__usbd__interface.xhtml#gaa786fa9bbfd3c2f64b5f486e537ffebb" target="_top" xlink:title="Reads incoming data on an USB endpoint This methods sets the transfer descriptor and activate the end...">
<polygon fill="white" stroke="red" points="254.5,-63.6976 254.5,-82.6976 328.5,-82.6976 328.5,-63.6976 254.5,-63.6976"/>
<text text-anchor="middle" x="291.5" y="-70.6976" font-family="Helvetica,sans-Serif" font-size="10.00">USBD_Read</text>
</a>
</g>
</g>
<!-- Node1512&#45;&gt;Node1615 -->
<g id="edge5" class="edge"><title>Node1512&#45;&gt;Node1615</title>
<path fill="none" stroke="midnightblue" d="M147.073,-99.7841C182.02,-93.3061 224.561,-85.4203 254.199,-79.9266"/>
<polygon fill="midnightblue" stroke="midnightblue" points="146.16,-96.3936 136.966,-101.658 147.436,-103.276 146.16,-96.3936"/>
</g>
<!-- Node1638 -->
<g id="node7" class="node"><title>Node1638</title>
<g id="a_node7"><a xlink:href="group__usbd__hal.xhtml#ga571a674fe9f9a1bba6ad08b3b0b28a80" target="_top" xlink:title="USBD (UDP) interrupt handler Manages device resume, suspend, end of bus reset. ">
<polygon fill="white" stroke="black" points="241.5,-25.6976 241.5,-44.6976 341.5,-44.6976 341.5,-25.6976 241.5,-25.6976"/>
<text text-anchor="middle" x="291.5" y="-32.6976" font-family="Helvetica,sans-Serif" font-size="10.00">USBD_IrqHandler</text>
</a>
</g>
</g>
<!-- Node1512&#45;&gt;Node1638 -->
<g id="edge6" class="edge"><title>Node1512&#45;&gt;Node1638</title>
<path fill="none" stroke="midnightblue" d="M111.445,-96.7069C135.178,-83.9696 171.575,-65.7163 205,-54.1976 216.501,-50.2342 229.163,-46.8925 241.138,-44.1709"/>
<polygon fill="midnightblue" stroke="midnightblue" points="109.512,-93.7742 102.398,-101.626 112.855,-99.9241 109.512,-93.7742"/>
</g>
<!-- Node1639 -->
<g id="node8" class="node"><title>Node1639</title>
<g id="a_node8"><a xlink:href="hal__udphs_8c.xhtml#gadf1deb2219e27bcf29d2598d4aa04c1d" target="_top" xlink:title="Reads incoming data on an USB endpoint This methods sets the transfer descriptor and activate the end...">
<polygon fill="white" stroke="black" points="414,-6.6976 414,-25.6976 494,-25.6976 494,-6.6976 414,-6.6976"/>
<text text-anchor="middle" x="454" y="-13.6976" font-family="Helvetica,sans-Serif" font-size="10.00">UDPHS_Read</text>
</a>
</g>
</g>
<!-- Node1512&#45;&gt;Node1639 -->
<g id="edge8" class="edge"><title>Node1512&#45;&gt;Node1639</title>
<path fill="none" stroke="midnightblue" d="M100.193,-93.802C120.836,-70.8608 160.874,-31.6003 205,-16.1976 275.325,8.34993 363.858,-0.280058 413.874,-8.45645"/>
<polygon fill="midnightblue" stroke="midnightblue" points="97.4552,-91.6151 93.493,-101.441 102.718,-96.2307 97.4552,-91.6151"/>
</g>
<!-- Node1638&#45;&gt;Node1639 -->
<g id="edge7" class="edge"><title>Node1638&#45;&gt;Node1639</title>
<path fill="none" stroke="midnightblue" d="M351.546,-28.2077C372.346,-25.7455 395.192,-23.0409 413.93,-20.8227"/>
<polygon fill="midnightblue" stroke="midnightblue" points="351.047,-24.7423 341.527,-29.3937 351.87,-31.6938 351.047,-24.7423"/>
</g>
</g>
</svg>
