<?xml version="1.0" encoding="UTF-8" standalone="no"?>
<!DOCTYPE svg PUBLIC "-//W3C//DTD SVG 1.1//EN"
 "http://www.w3.org/Graphics/SVG/1.1/DTD/svg11.dtd">
<!-- Generated by graphviz version 2.38.0 (20140413.2041)
 -->
<!-- Title: XDMAD_ConfigureTransfer Pages: 1 -->
<svg width="327pt" height="408pt"
 viewBox="0.00 0.00 327.00 408.00" xmlns="http://www.w3.org/2000/svg" xmlns:xlink="http://www.w3.org/1999/xlink">
<g id="graph0" class="graph" transform="scale(1 1) rotate(0) translate(4 404)">
<title>XDMAD_ConfigureTransfer</title>
<polygon fill="white" stroke="none" points="-4,4 -4,-404 323,-404 323,4 -4,4"/>
<!-- Node116 -->
<g id="node1" class="node"><title>Node116</title>
<polygon fill="#bfbfbf" stroke="black" points="0,-190.5 0,-209.5 141,-209.5 141,-190.5 0,-190.5"/>
<text text-anchor="middle" x="70.5" y="-197.5" font-family="Helvetica,sans-Serif" font-size="10.00">XDMAD_ConfigureTransfer</text>
</g>
<!-- Node117 -->
<g id="node2" class="node"><title>Node117</title>
<g id="a_node2"><a xlink:href="afe__dma_8c.xhtml#a32e626b4b8424ca6836f3bb0b49b58af" target="_top" xlink:title="Configure the DMA source and destination with Linker List mode. ">
<polygon fill="white" stroke="red" points="187,-380.5 187,-399.5 309,-399.5 309,-380.5 187,-380.5"/>
<text text-anchor="middle" x="248" y="-387.5" font-family="Helvetica,sans-Serif" font-size="10.00">_Afe_configureLinkList</text>
</a>
</g>
</g>
<!-- Node116&#45;&gt;Node117 -->
<g id="edge1" class="edge"><title>Node116&#45;&gt;Node117</title>
<path fill="none" stroke="midnightblue" d="M78.0817,-219.64C91.0913,-255.392 123.559,-331.084 177,-371 182.246,-374.918 188.249,-378.029 194.485,-380.498"/>
<polygon fill="midnightblue" stroke="midnightblue" points="81.2812,-218.188 74.6672,-209.911 74.6762,-220.506 81.2812,-218.188"/>
</g>
<!-- Node119 -->
<g id="node3" class="node"><title>Node119</title>
<g id="a_node3"><a xlink:href="dac__dma_8c.xhtml#aab4d2b353eabefb15284025801bfa654" target="_top" xlink:title="Configure the DMA source and destination with Linker List mode. ">
<polygon fill="white" stroke="red" points="185.5,-342.5 185.5,-361.5 310.5,-361.5 310.5,-342.5 185.5,-342.5"/>
<text text-anchor="middle" x="248" y="-349.5" font-family="Helvetica,sans-Serif" font-size="10.00">_Dac_configureLinkList</text>
</a>
</g>
</g>
<!-- Node116&#45;&gt;Node119 -->
<g id="edge2" class="edge"><title>Node116&#45;&gt;Node119</title>
<path fill="none" stroke="midnightblue" d="M81.2575,-218.857C97.2611,-247.884 131.87,-303.263 177,-333 182.888,-336.88 189.55,-339.972 196.365,-342.434"/>
<polygon fill="midnightblue" stroke="midnightblue" points="84.197,-216.933 76.386,-209.774 78.0282,-220.241 84.197,-216.933"/>
</g>
<!-- Node121 -->
<g id="node4" class="node"><title>Node121</title>
<g id="a_node4"><a xlink:href="group__mcid__functions.xhtml#ga745dbddddd85ddbe2c71a9df4c3e38af" target="_top" xlink:title="HSMCI DMA R/W. ">
<polygon fill="white" stroke="black" points="191.5,-304.5 191.5,-323.5 304.5,-323.5 304.5,-304.5 191.5,-304.5"/>
<text text-anchor="middle" x="248" y="-311.5" font-family="Helvetica,sans-Serif" font-size="10.00">COMPILER_ALIGNED</text>
</a>
</g>
</g>
<!-- Node116&#45;&gt;Node121 -->
<g id="edge3" class="edge"><title>Node116&#45;&gt;Node121</title>
<path fill="none" stroke="midnightblue" d="M86.0504,-217.364C104.888,-238.738 139.745,-274.693 177,-295 184.076,-298.857 191.989,-301.973 199.879,-304.478"/>
<polygon fill="midnightblue" stroke="midnightblue" points="88.6119,-214.975 79.4274,-209.693 83.3135,-219.549 88.6119,-214.975"/>
</g>
<!-- Node122 -->
<g id="node5" class="node"><title>Node122</title>
<g id="a_node5"><a xlink:href="qspi__dma_8c.xhtml#acb08044877face91ecbeb7e562e15260" target="_top" xlink:title="Configures the DMA for QSPI. ">
<polygon fill="white" stroke="red" points="178,-266.5 178,-285.5 318,-285.5 318,-266.5 178,-266.5"/>
<text text-anchor="middle" x="248" y="-273.5" font-family="Helvetica,sans-Serif" font-size="10.00">QSPID_configureQpsiDma</text>
</a>
</g>
</g>
<!-- Node116&#45;&gt;Node122 -->
<g id="edge4" class="edge"><title>Node116&#45;&gt;Node122</title>
<path fill="none" stroke="midnightblue" d="M95.4985,-215.041C116.395,-227.625 147.83,-245.343 177,-257 186.004,-260.598 195.924,-263.751 205.395,-266.4"/>
<polygon fill="midnightblue" stroke="midnightblue" points="97.044,-211.884 86.6851,-209.66 93.3966,-217.858 97.044,-211.884"/>
</g>
<!-- Node140 -->
<g id="node6" class="node"><title>Node140</title>
<g id="a_node6"><a xlink:href="spi__dma_8c.xhtml#a493ba599c88332870f21f381a5193055" target="_top" xlink:title="Configure the DMA source and destination with Linker List mode. ">
<polygon fill="white" stroke="red" points="185,-228.5 185,-247.5 311,-247.5 311,-228.5 185,-228.5"/>
<text text-anchor="middle" x="248" y="-235.5" font-family="Helvetica,sans-Serif" font-size="10.00">_spid_configureLinkList</text>
</a>
</g>
</g>
<!-- Node116&#45;&gt;Node140 -->
<g id="edge5" class="edge"><title>Node116&#45;&gt;Node140</title>
<path fill="none" stroke="midnightblue" d="M125.778,-211.753C150.594,-217.126 179.611,-223.409 203.032,-228.48"/>
<polygon fill="midnightblue" stroke="midnightblue" points="126.3,-208.285 115.786,-209.589 124.819,-215.126 126.3,-208.285"/>
</g>
<!-- Node142 -->
<g id="node7" class="node"><title>Node142</title>
<g id="a_node7"><a xlink:href="twid_8c.xhtml#a7ca5a6b66d98ca3e870492fe9d2dc5eb" target="_top" xlink:title="Configure xDMA write linker list for TWI transfer. ">
<polygon fill="white" stroke="red" points="177,-190.5 177,-209.5 319,-209.5 319,-190.5 177,-190.5"/>
<text text-anchor="middle" x="248" y="-197.5" font-family="Helvetica,sans-Serif" font-size="10.00">TWID_XdmaConfigureWrite</text>
</a>
</g>
</g>
<!-- Node116&#45;&gt;Node142 -->
<g id="edge6" class="edge"><title>Node116&#45;&gt;Node142</title>
<path fill="none" stroke="midnightblue" d="M151.134,-200C159.728,-200 168.426,-200 176.895,-200"/>
<polygon fill="midnightblue" stroke="midnightblue" points="151.114,-196.5 141.114,-200 151.114,-203.5 151.114,-196.5"/>
</g>
<!-- Node144 -->
<g id="node8" class="node"><title>Node144</title>
<g id="a_node8"><a xlink:href="twid_8c.xhtml#a0125a71c25953d95a1e0382402a40ad8" target="_top" xlink:title="Configure xDMA read linker list for TWI transfer. ">
<polygon fill="white" stroke="red" points="177,-152.5 177,-171.5 319,-171.5 319,-152.5 177,-152.5"/>
<text text-anchor="middle" x="248" y="-159.5" font-family="Helvetica,sans-Serif" font-size="10.00">TWID_XdmaConfigureRead</text>
</a>
</g>
</g>
<!-- Node116&#45;&gt;Node144 -->
<g id="edge7" class="edge"><title>Node116&#45;&gt;Node144</title>
<path fill="none" stroke="midnightblue" d="M125.778,-188.247C150.594,-182.874 179.611,-176.591 203.032,-171.52"/>
<polygon fill="midnightblue" stroke="midnightblue" points="124.819,-184.874 115.786,-190.411 126.3,-191.715 124.819,-184.874"/>
</g>
<!-- Node146 -->
<g id="node9" class="node"><title>Node146</title>
<g id="a_node9"><a xlink:href="uart__dma_8c.xhtml#a4b0eba333355f3b94f077336b2488a1b" target="_top" xlink:title="Configure the UART Rx DMA mode. ">
<polygon fill="white" stroke="red" points="187,-114.5 187,-133.5 309,-133.5 309,-114.5 187,-114.5"/>
<text text-anchor="middle" x="248" y="-121.5" font-family="Helvetica,sans-Serif" font-size="10.00">_configureUartRxDma</text>
</a>
</g>
</g>
<!-- Node116&#45;&gt;Node146 -->
<g id="edge8" class="edge"><title>Node116&#45;&gt;Node146</title>
<path fill="none" stroke="midnightblue" d="M95.4985,-184.959C116.395,-172.375 147.83,-154.657 177,-143 186.004,-139.402 195.924,-136.249 205.395,-133.6"/>
<polygon fill="midnightblue" stroke="midnightblue" points="93.3966,-182.142 86.6851,-190.34 97.044,-188.116 93.3966,-182.142"/>
</g>
<!-- Node148 -->
<g id="node10" class="node"><title>Node148</title>
<g id="a_node10"><a xlink:href="uart__dma_8c.xhtml#af00fa029eee33daf8645cedf2d8ef930" target="_top" xlink:title="Configure the UART Tx DMA mode. ">
<polygon fill="white" stroke="red" points="187.5,-76.5 187.5,-95.5 308.5,-95.5 308.5,-76.5 187.5,-76.5"/>
<text text-anchor="middle" x="248" y="-83.5" font-family="Helvetica,sans-Serif" font-size="10.00">_configureUartTxDma</text>
</a>
</g>
</g>
<!-- Node116&#45;&gt;Node148 -->
<g id="edge9" class="edge"><title>Node116&#45;&gt;Node148</title>
<path fill="none" stroke="midnightblue" d="M86.0504,-182.636C104.888,-161.262 139.745,-125.307 177,-105 184.076,-101.143 191.989,-98.0268 199.879,-95.5223"/>
<polygon fill="midnightblue" stroke="midnightblue" points="83.3135,-180.451 79.4274,-190.307 88.6119,-185.025 83.3135,-180.451"/>
</g>
<!-- Node150 -->
<g id="node11" class="node"><title>Node150</title>
<g id="a_node11"><a xlink:href="usart__dma_8c.xhtml#a850d3378fd0a34d99a0ce5888a83a8eb" target="_top" xlink:title="Configure the USART Rx DMA Destination with Linker List mode. ">
<polygon fill="white" stroke="red" points="197.5,-38.5 197.5,-57.5 298.5,-57.5 298.5,-38.5 197.5,-38.5"/>
<text text-anchor="middle" x="248" y="-45.5" font-family="Helvetica,sans-Serif" font-size="10.00">_configureRxDma</text>
</a>
</g>
</g>
<!-- Node116&#45;&gt;Node150 -->
<g id="edge10" class="edge"><title>Node116&#45;&gt;Node150</title>
<path fill="none" stroke="midnightblue" d="M81.2575,-181.143C97.2611,-152.116 131.87,-96.7371 177,-67 183.204,-62.9122 190.266,-59.6994 197.462,-57.1754"/>
<polygon fill="midnightblue" stroke="midnightblue" points="78.0282,-179.759 76.386,-190.226 84.197,-183.067 78.0282,-179.759"/>
</g>
<!-- Node152 -->
<g id="node12" class="node"><title>Node152</title>
<g id="a_node12"><a xlink:href="usart__dma_8c.xhtml#a9c980b56e34d2c15f6b0f179b0086313" target="_top" xlink:title="Configure the USART tx DMA source with Linker List mode. ">
<polygon fill="white" stroke="red" points="198,-0.5 198,-19.5 298,-19.5 298,-0.5 198,-0.5"/>
<text text-anchor="middle" x="248" y="-7.5" font-family="Helvetica,sans-Serif" font-size="10.00">_configureTxDma</text>
</a>
</g>
</g>
<!-- Node116&#45;&gt;Node152 -->
<g id="edge11" class="edge"><title>Node116&#45;&gt;Node152</title>
<path fill="none" stroke="midnightblue" d="M78.0817,-180.36C91.0913,-144.608 123.559,-68.916 177,-29 183.154,-24.4033 190.35,-20.9185 197.742,-18.2766"/>
<polygon fill="midnightblue" stroke="midnightblue" points="74.6762,-179.494 74.6672,-190.089 81.2812,-181.812 74.6762,-179.494"/>
</g>
</g>
</svg>
