<?xml version="1.0" encoding="UTF-8" standalone="no"?>
<!DOCTYPE svg PUBLIC "-//W3C//DTD SVG 1.1//EN"
 "http://www.w3.org/Graphics/SVG/1.1/DTD/svg11.dtd">
<!-- Generated by graphviz version 2.38.0 (20140413.2041)
 -->
<!-- Title: AUDDStream_SetupWrite Pages: 1 -->
<svg width="352pt" height="66pt"
 viewBox="0.00 0.00 352.00 66.00" xmlns="http://www.w3.org/2000/svg" xmlns:xlink="http://www.w3.org/1999/xlink">
<g id="graph0" class="graph" transform="scale(1 1) rotate(0) translate(4 62)">
<title>AUDDStream_SetupWrite</title>
<polygon fill="white" stroke="none" points="-4,4 -4,-62 348,-62 348,4 -4,4"/>
<!-- Node611 -->
<g id="node1" class="node"><title>Node611</title>
<polygon fill="#bfbfbf" stroke="black" points="0,-19.5 0,-38.5 139,-38.5 139,-19.5 0,-19.5"/>
<text text-anchor="middle" x="69.5" y="-26.5" font-family="Helvetica,sans-Serif" font-size="10.00">AUDDStream_SetupWrite</text>
</g>
<!-- Node612 -->
<g id="node2" class="node"><title>Node612</title>
<g id="a_node2"><a xlink:href="group__usbd__hal.xhtml#ga62263446ee46cfc2ca48856e446f1a79" target="_top" xlink:title="Configure an endpoint to use multi&#45;buffer&#45;list transfer mode. ">
<polygon fill="white" stroke="black" points="180.5,-38.5 180.5,-57.5 338.5,-57.5 338.5,-38.5 180.5,-38.5"/>
<text text-anchor="middle" x="259.5" y="-45.5" font-family="Helvetica,sans-Serif" font-size="10.00">USBD_HAL_SetupMblTransfer</text>
</a>
</g>
</g>
<!-- Node611&#45;&gt;Node612 -->
<g id="edge1" class="edge"><title>Node611&#45;&gt;Node612</title>
<path fill="none" stroke="midnightblue" d="M139.17,-35.9401C149.345,-36.9684 159.947,-38.0399 170.45,-39.1013"/>
<polygon fill="midnightblue" stroke="midnightblue" points="170.171,-42.5909 180.472,-40.1142 170.875,-35.6264 170.171,-42.5909"/>
</g>
<!-- Node613 -->
<g id="node3" class="node"><title>Node613</title>
<g id="a_node3"><a xlink:href="group__usbd__hal.xhtml#gafcb94bdd4c0ea327621a187814ab4f9f" target="_top" xlink:title="Set callback for a USB endpoint for transfer (read/write). ">
<polygon fill="white" stroke="black" points="175,-0.5 175,-19.5 344,-19.5 344,-0.5 175,-0.5"/>
<text text-anchor="middle" x="259.5" y="-7.5" font-family="Helvetica,sans-Serif" font-size="10.00">USBD_HAL_SetTransferCallback</text>
</a>
</g>
</g>
<!-- Node611&#45;&gt;Node613 -->
<g id="edge2" class="edge"><title>Node611&#45;&gt;Node613</title>
<path fill="none" stroke="midnightblue" d="M139.17,-22.0599C147.539,-21.2142 156.197,-20.3392 164.851,-19.4646"/>
<polygon fill="midnightblue" stroke="midnightblue" points="165.393,-22.9277 174.99,-18.4398 164.689,-15.9632 165.393,-22.9277"/>
</g>
</g>
</svg>
