<?xml version="1.0" encoding="UTF-8" standalone="no"?>
<!DOCTYPE svg PUBLIC "-//W3C//DTD SVG 1.1//EN"
 "http://www.w3.org/Graphics/SVG/1.1/DTD/svg11.dtd">
<!-- Generated by graphviz version 2.38.0 (20140413.2041)
 -->
<!-- Title: RDRtoPCSlotStatus Pages: 1 -->
<svg width="279pt" height="218pt"
 viewBox="0.00 0.00 279.00 218.00" xmlns="http://www.w3.org/2000/svg" xmlns:xlink="http://www.w3.org/1999/xlink">
<g id="graph0" class="graph" transform="scale(1 1) rotate(0) translate(4 214)">
<title>RDRtoPCSlotStatus</title>
<polygon fill="white" stroke="none" points="-4,4 -4,-214 275,-214 275,4 -4,4"/>
<!-- Node478 -->
<g id="node1" class="node"><title>Node478</title>
<polygon fill="#bfbfbf" stroke="black" points="0,-95.5 0,-114.5 109,-114.5 109,-95.5 0,-95.5"/>
<text text-anchor="middle" x="54.5" y="-102.5" font-family="Helvetica,sans-Serif" font-size="10.00">RDRtoPCSlotStatus</text>
</g>
<!-- Node479 -->
<g id="node2" class="node"><title>Node479</title>
<g id="a_node2"><a xlink:href="group__usbd__ccid.xhtml#gaaa2098326671145c17cdaa260cf55b70" target="_top" xlink:title="Command Pipe, Bulk&#45;OUT Messages Power Off Command &#45; Set the ICC in an inactive state Return the slot ...">
<polygon fill="white" stroke="red" points="151.5,-190.5 151.5,-209.5 264.5,-209.5 264.5,-190.5 151.5,-190.5"/>
<text text-anchor="middle" x="208" y="-197.5" font-family="Helvetica,sans-Serif" font-size="10.00">PCtoRDRIccPowerOff</text>
</a>
</g>
</g>
<!-- Node478&#45;&gt;Node479 -->
<g id="edge1" class="edge"><title>Node478&#45;&gt;Node479</title>
<path fill="none" stroke="midnightblue" d="M71.5265,-122.217C88.3358,-139.344 116.262,-165.275 145,-181 151.913,-184.783 159.681,-187.918 167.32,-190.476"/>
<polygon fill="midnightblue" stroke="midnightblue" points="73.6634,-119.389 64.2128,-114.599 68.614,-124.237 73.6634,-119.389"/>
</g>
<!-- Node482 -->
<g id="node3" class="node"><title>Node482</title>
<g id="a_node3"><a xlink:href="group__usbd__ccid.xhtml#ga2150a65088f42962a1489cffeacd1ccd" target="_top" xlink:title="Command Pipe, Bulk&#45;OUT Messages Get slot status. ">
<polygon fill="white" stroke="red" points="145,-152.5 145,-171.5 271,-171.5 271,-152.5 145,-152.5"/>
<text text-anchor="middle" x="208" y="-159.5" font-family="Helvetica,sans-Serif" font-size="10.00">PCtoRDRGetSlotStatus</text>
</a>
</g>
</g>
<!-- Node478&#45;&gt;Node482 -->
<g id="edge2" class="edge"><title>Node478&#45;&gt;Node482</title>
<path fill="none" stroke="midnightblue" d="M85.7459,-118.771C102.943,-126.365 124.98,-135.705 145,-143 154.203,-146.353 164.311,-149.622 173.646,-152.476"/>
<polygon fill="midnightblue" stroke="midnightblue" points="86.7901,-115.404 76.2314,-114.53 83.9401,-121.798 86.7901,-115.404"/>
</g>
<!-- Node483 -->
<g id="node4" class="node"><title>Node483</title>
<g id="a_node4"><a xlink:href="group__usbd__ccid.xhtml#ga3d61bdee8d65391c336dcc0e58976168" target="_top" xlink:title="Command Pipe, Bulk&#45;OUT Messages This command stops or restarts the clock. ">
<polygon fill="white" stroke="red" points="158,-114.5 158,-133.5 258,-133.5 258,-114.5 158,-114.5"/>
<text text-anchor="middle" x="208" y="-121.5" font-family="Helvetica,sans-Serif" font-size="10.00">PCtoRDRICCClock</text>
</a>
</g>
</g>
<!-- Node478&#45;&gt;Node483 -->
<g id="edge3" class="edge"><title>Node478&#45;&gt;Node483</title>
<path fill="none" stroke="midnightblue" d="M119.508,-113.027C132.345,-114.637 145.644,-116.305 157.881,-117.84"/>
<polygon fill="midnightblue" stroke="midnightblue" points="119.698,-109.524 109.34,-111.752 118.827,-116.469 119.698,-109.524"/>
</g>
<!-- Node484 -->
<g id="node5" class="node"><title>Node484</title>
<g id="a_node5"><a xlink:href="group__usbd__ccid.xhtml#gaab26ddc860e13d6385bcb9ca2e67a17b" target="_top" xlink:title="Command Pipe, Bulk&#45;OUT Messages This command changes the parameters used to perform the transportatio...">
<polygon fill="white" stroke="red" points="160,-76.5 160,-95.5 256,-95.5 256,-76.5 160,-76.5"/>
<text text-anchor="middle" x="208" y="-83.5" font-family="Helvetica,sans-Serif" font-size="10.00">PCtoRDRtoAPDU</text>
</a>
</g>
</g>
<!-- Node478&#45;&gt;Node484 -->
<g id="edge4" class="edge"><title>Node478&#45;&gt;Node484</title>
<path fill="none" stroke="midnightblue" d="M119.553,-96.967C133.076,-95.271 147.11,-93.511 159.872,-91.9104"/>
<polygon fill="midnightblue" stroke="midnightblue" points="118.827,-93.5306 109.34,-98.2478 119.698,-100.476 118.827,-93.5306"/>
</g>
<!-- Node485 -->
<g id="node6" class="node"><title>Node485</title>
<g id="a_node6"><a xlink:href="group__usbd__ccid.xhtml#ga591c5915bc56ab0dc5510ef432016bb2" target="_top" xlink:title="Command Pipe, Bulk&#45;OUT Messages This command is used to manage motorized type CCID functionality...">
<polygon fill="white" stroke="red" points="152,-38.5 152,-57.5 264,-57.5 264,-38.5 152,-38.5"/>
<text text-anchor="middle" x="208" y="-45.5" font-family="Helvetica,sans-Serif" font-size="10.00">PCtoRDRMechanical</text>
</a>
</g>
</g>
<!-- Node478&#45;&gt;Node485 -->
<g id="edge5" class="edge"><title>Node478&#45;&gt;Node485</title>
<path fill="none" stroke="midnightblue" d="M85.7459,-91.2293C102.943,-83.6349 124.98,-74.2953 145,-67 154.203,-63.6467 164.311,-60.3782 173.646,-57.5241"/>
<polygon fill="midnightblue" stroke="midnightblue" points="83.9401,-88.2022 76.2314,-95.4704 86.7901,-94.5957 83.9401,-88.2022"/>
</g>
<!-- Node486 -->
<g id="node7" class="node"><title>Node486</title>
<g id="a_node7"><a xlink:href="group__usbd__ccid.xhtml#gafe40243ca666a07b8dbe5eeac1f096b1" target="_top" xlink:title="Command Pipe, Bulk&#45;OUT Messages This command is used with the Control pipe Abort request to tell the ...">
<polygon fill="white" stroke="red" points="166,-0.5 166,-19.5 250,-19.5 250,-0.5 166,-0.5"/>
<text text-anchor="middle" x="208" y="-7.5" font-family="Helvetica,sans-Serif" font-size="10.00">PCtoRDRAbort</text>
</a>
</g>
</g>
<!-- Node478&#45;&gt;Node486 -->
<g id="edge6" class="edge"><title>Node478&#45;&gt;Node486</title>
<path fill="none" stroke="midnightblue" d="M71.5265,-87.7834C88.3358,-70.6564 116.262,-44.725 145,-29 151.913,-25.2171 159.681,-22.0824 167.32,-19.5242"/>
<polygon fill="midnightblue" stroke="midnightblue" points="68.614,-85.7632 64.2128,-95.4007 73.6634,-90.6113 68.614,-85.7632"/>
</g>
</g>
</svg>
