<?xml version="1.0" encoding="UTF-8" standalone="no"?>
<!DOCTYPE svg PUBLIC "-//W3C//DTD SVG 1.1//EN"
 "http://www.w3.org/Graphics/SVG/1.1/DTD/svg11.dtd">
<!-- Generated by graphviz version 2.38.0 (20140413.2041)
 -->
<!-- Title: SCB_InvalidateDCache Pages: 1 -->
<svg width="217pt" height="66pt"
 viewBox="0.00 0.00 217.00 66.00" xmlns="http://www.w3.org/2000/svg" xmlns:xlink="http://www.w3.org/1999/xlink">
<g id="graph0" class="graph" transform="scale(1 1) rotate(0) translate(4 62)">
<title>SCB_InvalidateDCache</title>
<polygon fill="white" stroke="none" points="-4,4 -4,-62 213,-62 213,4 -4,4"/>
<!-- Node232 -->
<g id="node1" class="node"><title>Node232</title>
<polygon fill="#bfbfbf" stroke="black" points="0,-19.5 0,-38.5 125,-38.5 125,-19.5 0,-19.5"/>
<text text-anchor="middle" x="62.5" y="-26.5" font-family="Helvetica,sans-Serif" font-size="10.00">SCB_InvalidateDCache</text>
</g>
<!-- Node233 -->
<g id="node2" class="node"><title>Node233</title>
<g id="a_node2"><a xlink:href="group___c_m_s_i_s___core___instruction_interface.xhtml#ga5c7a006f5ba5778972ac9516733a0cc4" target="_top" xlink:title="Data Synchronization Barrier. ">
<polygon fill="white" stroke="black" points="161,-38.5 161,-57.5 209,-57.5 209,-38.5 161,-38.5"/>
<text text-anchor="middle" x="185" y="-45.5" font-family="Helvetica,sans-Serif" font-size="10.00">__DSB</text>
</a>
</g>
</g>
<!-- Node232&#45;&gt;Node233 -->
<g id="edge1" class="edge"><title>Node232&#45;&gt;Node233</title>
<path fill="none" stroke="midnightblue" d="M124.103,-38.5557C133.334,-40.0111 142.553,-41.4648 150.895,-42.7801"/>
<polygon fill="midnightblue" stroke="midnightblue" points="150.504,-46.2616 160.927,-44.3619 151.594,-39.347 150.504,-46.2616"/>
</g>
<!-- Node234 -->
<g id="node3" class="node"><title>Node234</title>
<g id="a_node3"><a xlink:href="group___c_m_s_i_s___core___instruction_interface.xhtml#ga8f5af376adcfaea7f2ddb3ef9b6b2544" target="_top" xlink:title="Instruction Synchronization Barrier. ">
<polygon fill="white" stroke="black" points="163.5,-0.5 163.5,-19.5 206.5,-19.5 206.5,-0.5 163.5,-0.5"/>
<text text-anchor="middle" x="185" y="-7.5" font-family="Helvetica,sans-Serif" font-size="10.00">__ISB</text>
</a>
</g>
</g>
<!-- Node232&#45;&gt;Node234 -->
<g id="edge2" class="edge"><title>Node232&#45;&gt;Node234</title>
<path fill="none" stroke="midnightblue" d="M124.103,-19.4443C134.297,-17.837 144.478,-16.2318 153.477,-14.8127"/>
<polygon fill="midnightblue" stroke="midnightblue" points="154.097,-18.2583 163.43,-13.2434 153.007,-11.3438 154.097,-18.2583"/>
</g>
</g>
</svg>
