<?xml version="1.0" encoding="UTF-8" standalone="no"?>
<!DOCTYPE svg PUBLIC "-//W3C//DTD SVG 1.1//EN"
 "http://www.w3.org/Graphics/SVG/1.1/DTD/svg11.dtd">
<!-- Generated by graphviz version 2.38.0 (20140413.2041)
 -->
<!-- Title: uhi_cdc_tx_update Pages: 1 -->
<svg width="245pt" height="66pt"
 viewBox="0.00 0.00 245.00 66.00" xmlns="http://www.w3.org/2000/svg" xmlns:xlink="http://www.w3.org/1999/xlink">
<g id="graph0" class="graph" transform="scale(1 1) rotate(0) translate(4 62)">
<title>uhi_cdc_tx_update</title>
<polygon fill="white" stroke="none" points="-4,4 -4,-62 241,-62 241,4 -4,4"/>
<!-- Node172 -->
<g id="node1" class="node"><title>Node172</title>
<polygon fill="#bfbfbf" stroke="black" points="0,-0.5 0,-19.5 106,-19.5 106,-0.5 0,-0.5"/>
<text text-anchor="middle" x="53" y="-7.5" font-family="Helvetica,sans-Serif" font-size="10.00">uhi_cdc_tx_update</text>
</g>
<!-- Node173 -->
<g id="node2" class="node"><title>Node173</title>
<g id="a_node2"><a xlink:href="group__uhi__cdc__group__uhc.xhtml#gadbcfeecd8daa9af05daafe35d2835e18" target="_top" xlink:title="uhi_cdc_sof">
<polygon fill="white" stroke="red" points="153.5,-38.5 153.5,-57.5 225.5,-57.5 225.5,-38.5 153.5,-38.5"/>
<text text-anchor="middle" x="189.5" y="-45.5" font-family="Helvetica,sans-Serif" font-size="10.00">uhi_cdc_sof</text>
</a>
</g>
</g>
<!-- Node172&#45;&gt;Node173 -->
<g id="edge1" class="edge"><title>Node172&#45;&gt;Node173</title>
<path fill="none" stroke="midnightblue" d="M97.6004,-22.3183C116.08,-27.5393 137.289,-33.5316 154.571,-38.4141"/>
<polygon fill="midnightblue" stroke="midnightblue" points="98.515,-18.9398 87.94,-19.589 96.6117,-25.6761 98.515,-18.9398"/>
</g>
<!-- Node175 -->
<g id="node3" class="node"><title>Node175</title>
<g id="a_node3"><a xlink:href="group__uhi__cdc__group__internal.xhtml#ga2d752930f3947081262a5ac64f05ac41" target="_top" xlink:title="Manage the end of TX transfer. ">
<polygon fill="white" stroke="black" points="142,-0.5 142,-19.5 237,-19.5 237,-0.5 142,-0.5"/>
<text text-anchor="middle" x="189.5" y="-7.5" font-family="Helvetica,sans-Serif" font-size="10.00">uhi_cdc_tx_send</text>
</a>
</g>
</g>
<!-- Node172&#45;&gt;Node175 -->
<g id="edge2" class="edge"><title>Node172&#45;&gt;Node175</title>
<path fill="none" stroke="midnightblue" d="M116.103,-3.2676C124.784,-3.20813 133.579,-3.29938 141.907,-3.54137"/>
<polygon fill="midnightblue" stroke="midnightblue" points="115.952,0.230745 106.001,-3.40666 116.048,-6.76859 115.952,0.230745"/>
</g>
<!-- Node175&#45;&gt;Node172 -->
<g id="edge3" class="edge"><title>Node175&#45;&gt;Node172</title>
<path fill="none" stroke="midnightblue" d="M131.67,-16.6775C123.154,-16.7969 114.41,-16.7689 106.001,-16.5933"/>
<polygon fill="midnightblue" stroke="midnightblue" points="131.984,-20.1716 141.907,-16.4586 131.834,-13.1732 131.984,-20.1716"/>
</g>
</g>
</svg>
