<?xml version="1.0" encoding="UTF-8" standalone="no"?>
<!DOCTYPE svg PUBLIC "-//W3C//DTD SVG 1.1//EN"
 "http://www.w3.org/Graphics/SVG/1.1/DTD/svg11.dtd">
<!-- Generated by graphviz version 2.38.0 (20140413.2041)
 -->
<!-- Title: XDMAC_SetSourceAddr Pages: 1 -->
<svg width="315pt" height="66pt"
 viewBox="0.00 0.00 315.00 66.00" xmlns="http://www.w3.org/2000/svg" xmlns:xlink="http://www.w3.org/1999/xlink">
<g id="graph0" class="graph" transform="scale(1 1) rotate(0) translate(4 62)">
<title>XDMAC_SetSourceAddr</title>
<polygon fill="white" stroke="none" points="-4,4 -4,-62 311,-62 311,4 -4,4"/>
<!-- Node962 -->
<g id="node1" class="node"><title>Node962</title>
<polygon fill="#bfbfbf" stroke="black" points="0,-19.5 0,-38.5 130,-38.5 130,-19.5 0,-19.5"/>
<text text-anchor="middle" x="65" y="-26.5" font-family="Helvetica,sans-Serif" font-size="10.00">XDMAC_SetSourceAddr</text>
</g>
<!-- Node963 -->
<g id="node2" class="node"><title>Node963</title>
<g id="a_node2"><a xlink:href="group__dmad__functions.xhtml#ga2a7947467c04eb39abee2471d846ee35" target="_top" xlink:title="Enable clock of the xDMA peripheral, Enable the dma peripheral, configure configuration register for ...">
<polygon fill="white" stroke="red" points="169.5,-38.5 169.5,-57.5 303.5,-57.5 303.5,-38.5 169.5,-38.5"/>
<text text-anchor="middle" x="236.5" y="-45.5" font-family="Helvetica,sans-Serif" font-size="10.00">XDMAD_PrepareChannel</text>
</a>
</g>
</g>
<!-- Node962&#45;&gt;Node963 -->
<g id="edge1" class="edge"><title>Node962&#45;&gt;Node963</title>
<path fill="none" stroke="midnightblue" d="M140.127,-37.3092C149.854,-38.3996 159.771,-39.5112 169.354,-40.5854"/>
<polygon fill="midnightblue" stroke="midnightblue" points="140.408,-33.8189 130.081,-36.1831 139.629,-40.7754 140.408,-33.8189"/>
</g>
<!-- Node1003 -->
<g id="node3" class="node"><title>Node1003</title>
<g id="a_node3"><a xlink:href="group__dmad__functions.xhtml#ga075cce3b88af1fff5064218720811fc0" target="_top" xlink:title="Configure DMA for a single transfer. ">
<polygon fill="white" stroke="red" points="166,-0.5 166,-19.5 307,-19.5 307,-0.5 166,-0.5"/>
<text text-anchor="middle" x="236.5" y="-7.5" font-family="Helvetica,sans-Serif" font-size="10.00">XDMAD_ConfigureTransfer</text>
</a>
</g>
</g>
<!-- Node962&#45;&gt;Node1003 -->
<g id="edge2" class="edge"><title>Node962&#45;&gt;Node1003</title>
<path fill="none" stroke="midnightblue" d="M140.08,-20.6961C148.674,-19.7327 157.418,-18.7526 165.948,-17.7963"/>
<polygon fill="midnightblue" stroke="midnightblue" points="139.629,-17.2246 130.081,-21.8169 140.408,-24.1811 139.629,-17.2246"/>
</g>
</g>
</svg>
