<?xml version="1.0" encoding="UTF-8" standalone="no"?>
<!DOCTYPE svg PUBLIC "-//W3C//DTD SVG 1.1//EN"
 "http://www.w3.org/Graphics/SVG/1.1/DTD/svg11.dtd">
<!-- Generated by graphviz version 2.38.0 (20140413.2041)
 -->
<!-- Title: HIDDKeyboard_ConfigureFunction Pages: 1 -->
<svg width="386pt" height="186pt"
 viewBox="0.00 0.00 386.00 186.00" xmlns="http://www.w3.org/2000/svg" xmlns:xlink="http://www.w3.org/1999/xlink">
<g id="graph0" class="graph" transform="scale(1 1) rotate(0) translate(4 182)">
<title>HIDDKeyboard_ConfigureFunction</title>
<polygon fill="white" stroke="none" points="-4,4 -4,-182 382,-182 382,4 -4,4"/>
<!-- Node52 -->
<g id="node1" class="node"><title>Node52</title>
<polygon fill="#bfbfbf" stroke="black" points="0,-79 0,-98 176,-98 176,-79 0,-79"/>
<text text-anchor="middle" x="88" y="-86" font-family="Helvetica,sans-Serif" font-size="10.00">HIDDKeyboard_ConfigureFunction</text>
</g>
<!-- Node53 -->
<g id="node2" class="node"><title>Node53</title>
<g id="a_node2"><a xlink:href="group__usbd__composite__cdchid.xhtml#gaae1fea56d3b2b270cf6d04ef55c45227" target="_top" xlink:title="Invoked whenever the configuration value of a device is changed by the host. ">
<polygon fill="white" stroke="black" points="215,-147.5 215,-177.5 375,-177.5 375,-147.5 215,-147.5"/>
<text text-anchor="start" x="223" y="-165.5" font-family="Helvetica,sans-Serif" font-size="10.00">CDCHIDDDriver_Configuration</text>
<text text-anchor="middle" x="295" y="-154.5" font-family="Helvetica,sans-Serif" font-size="10.00">ChangedHandler</text>
</a>
</g>
</g>
<!-- Node52&#45;&gt;Node53 -->
<g id="edge1" class="edge"><title>Node52&#45;&gt;Node53</title>
<path fill="none" stroke="midnightblue" d="M119.734,-102.007C144.417,-112.607 180.102,-127.381 212,-138.5 220.824,-141.576 230.271,-144.592 239.5,-147.39"/>
<polygon fill="midnightblue" stroke="midnightblue" points="121.088,-98.7791 110.52,-98.0241 118.311,-105.205 121.088,-98.7791"/>
</g>
<!-- Node54 -->
<g id="node3" class="node"><title>Node54</title>
<g id="a_node3"><a xlink:href="group__usbd__composite__hidaud.xhtml#ga3964e181a871753372233070c5cb9672" target="_top" xlink:title="Invoked whenever the configuration value of a device is changed by the host. ">
<polygon fill="white" stroke="black" points="214.5,-98.5 214.5,-128.5 375.5,-128.5 375.5,-98.5 214.5,-98.5"/>
<text text-anchor="start" x="222.5" y="-116.5" font-family="Helvetica,sans-Serif" font-size="10.00">HIDAUDDDriver_Configuration</text>
<text text-anchor="middle" x="295" y="-105.5" font-family="Helvetica,sans-Serif" font-size="10.00">ChangedHandler</text>
</a>
</g>
</g>
<!-- Node52&#45;&gt;Node54 -->
<g id="edge2" class="edge"><title>Node52&#45;&gt;Node54</title>
<path fill="none" stroke="midnightblue" d="M177.357,-99.2752C189.681,-100.778 202.282,-102.315 214.431,-103.796"/>
<polygon fill="midnightblue" stroke="midnightblue" points="177.437,-95.7591 167.087,-98.0227 176.589,-102.708 177.437,-95.7591"/>
</g>
<!-- Node55 -->
<g id="node4" class="node"><title>Node55</title>
<g id="a_node4"><a xlink:href="group__usbd__composite__hidmsd.xhtml#gac20bb28b9da0825ad63d42398b530e0d" target="_top" xlink:title="Invoked whenever the configuration value of a device is changed by the host. ">
<polygon fill="white" stroke="black" points="218,-49.5 218,-79.5 372,-79.5 372,-49.5 218,-49.5"/>
<text text-anchor="start" x="226" y="-67.5" font-family="Helvetica,sans-Serif" font-size="10.00">HIDMSDDriver_Configuration</text>
<text text-anchor="middle" x="295" y="-56.5" font-family="Helvetica,sans-Serif" font-size="10.00">ChangedHandler</text>
</a>
</g>
</g>
<!-- Node52&#45;&gt;Node55 -->
<g id="edge3" class="edge"><title>Node52&#45;&gt;Node55</title>
<path fill="none" stroke="midnightblue" d="M180.297,-77.8116C192.821,-76.3454 205.571,-74.8527 217.786,-73.4226"/>
<polygon fill="midnightblue" stroke="midnightblue" points="179.841,-74.341 170.316,-78.9801 180.655,-81.2935 179.841,-74.341"/>
</g>
<!-- Node56 -->
<g id="node5" class="node"><title>Node56</title>
<g id="a_node5"><a xlink:href="group__usbd__hid__key.xhtml#ga7147c21b165fd52ac5769ac948cf659a" target="_top" xlink:title="Handles configureation changed event. ">
<polygon fill="white" stroke="black" points="212,-0.5 212,-30.5 378,-30.5 378,-0.5 212,-0.5"/>
<text text-anchor="start" x="220" y="-18.5" font-family="Helvetica,sans-Serif" font-size="10.00">HIDDKeyboardDriver</text>
<text text-anchor="middle" x="295" y="-7.5" font-family="Helvetica,sans-Serif" font-size="10.00">_ConfigurationChangedHandler</text>
</a>
</g>
</g>
<!-- Node52&#45;&gt;Node56 -->
<g id="edge4" class="edge"><title>Node52&#45;&gt;Node56</title>
<path fill="none" stroke="midnightblue" d="M121.502,-75.0355C146.155,-65.014 180.975,-51.2654 212,-40.5 221.842,-37.0847 232.433,-33.668 242.627,-30.5059"/>
<polygon fill="midnightblue" stroke="midnightblue" points="119.861,-71.9251 111.928,-78.9479 122.509,-78.4049 119.861,-71.9251"/>
</g>
</g>
</svg>
