<?xml version="1.0" encoding="UTF-8" standalone="no"?>
<!DOCTYPE svg PUBLIC "-//W3C//DTD SVG 1.1//EN"
 "http://www.w3.org/Graphics/SVG/1.1/DTD/svg11.dtd">
<!-- Generated by graphviz version 2.38.0 (20140413.2041)
 -->
<!-- Title: NVIC_ClearPendingIRQ Pages: 1 -->
<svg width="594pt" height="598pt"
 viewBox="0.00 0.00 594.00 598.00" xmlns="http://www.w3.org/2000/svg" xmlns:xlink="http://www.w3.org/1999/xlink">
<g id="graph0" class="graph" transform="scale(1 1) rotate(0) translate(4 594)">
<title>NVIC_ClearPendingIRQ</title>
<polygon fill="white" stroke="none" points="-4,4 -4,-594 590,-594 590,4 -4,4"/>
<!-- Node1 -->
<g id="node1" class="node"><title>Node1</title>
<polygon fill="#bfbfbf" stroke="black" points="0,-285.5 0,-304.5 124,-304.5 124,-285.5 0,-285.5"/>
<text text-anchor="middle" x="62" y="-292.5" font-family="Helvetica,sans-Serif" font-size="10.00">NVIC_ClearPendingIRQ</text>
</g>
<!-- Node2 -->
<g id="node2" class="node"><title>Node2</title>
<g id="a_node2"><a xlink:href="group___c_m_s_i_s___core___n_v_i_c_functions.xhtml#ga394f7ce2ca826c0da26284d17ac6524d" target="_top" xlink:title="Get Priority Grouping. ">
<polygon fill="white" stroke="black" points="160,-570.5 160,-589.5 299,-589.5 299,-570.5 160,-570.5"/>
<text text-anchor="middle" x="229.5" y="-577.5" font-family="Helvetica,sans-Serif" font-size="10.00">NVIC_GetPriorityGrouping</text>
</a>
</g>
</g>
<!-- Node1&#45;&gt;Node2 -->
<g id="edge1" class="edge"><title>Node1&#45;&gt;Node2</title>
<path fill="none" stroke="midnightblue" d="M64.2554,-314.946C68.4582,-364.273 86.2966,-492.908 160,-561 164.17,-564.852 169.053,-567.934 174.258,-570.397"/>
<polygon fill="midnightblue" stroke="midnightblue" points="67.7239,-314.394 63.4858,-304.684 60.7435,-314.917 67.7239,-314.394"/>
</g>
<!-- Node3 -->
<g id="node3" class="node"><title>Node3</title>
<g id="a_node3"><a xlink:href="afe__dma_8c.xhtml#a68dbdec846e3b92a818ded06727529bd" target="_top" xlink:title="AFE xDMA Rx callback Invoked on AFE DMA reception done. ">
<polygon fill="white" stroke="red" points="196,-532.5 196,-551.5 263,-551.5 263,-532.5 196,-532.5"/>
<text text-anchor="middle" x="229.5" y="-539.5" font-family="Helvetica,sans-Serif" font-size="10.00">Afe_Rx_Cb</text>
</a>
</g>
</g>
<!-- Node1&#45;&gt;Node3 -->
<g id="edge2" class="edge"><title>Node1&#45;&gt;Node3</title>
<path fill="none" stroke="midnightblue" d="M65.6445,-315.068C72.5735,-359.437 95.4167,-466.406 160,-523 169.932,-531.703 183.528,-536.45 195.99,-539.028"/>
<polygon fill="midnightblue" stroke="midnightblue" points="69.0802,-314.372 64.1797,-304.979 62.1528,-315.378 69.0802,-314.372"/>
</g>
<!-- Node5 -->
<g id="node4" class="node"><title>Node5</title>
<g id="a_node4"><a xlink:href="afe__dma_8c.xhtml#a7fc901cb910a6298837d57892790161c" target="_top" xlink:title="Starts a AFE transfer. ">
<polygon fill="white" stroke="black" points="186.5,-494.5 186.5,-513.5 272.5,-513.5 272.5,-494.5 186.5,-494.5"/>
<text text-anchor="middle" x="229.5" y="-501.5" font-family="Helvetica,sans-Serif" font-size="10.00">Afe_SendData</text>
</a>
</g>
</g>
<!-- Node1&#45;&gt;Node5 -->
<g id="edge3" class="edge"><title>Node1&#45;&gt;Node5</title>
<path fill="none" stroke="midnightblue" d="M67.4024,-314.577C77.121,-353.193 104.121,-439.38 160,-485 167.552,-491.166 176.967,-495.336 186.375,-498.154"/>
<polygon fill="midnightblue" stroke="midnightblue" points="70.7501,-313.527 65.0184,-304.617 63.9424,-315.157 70.7501,-313.527"/>
</g>
<!-- Node6 -->
<g id="node5" class="node"><title>Node6</title>
<g id="a_node5"><a xlink:href="group__can__module.xhtml#ga9b35cd79fb5eeec8cf1ba7247b25a646" target="_top" xlink:title="Initializes the MCAN hardware for giving peripheral. ">
<polygon fill="white" stroke="red" points="197,-456.5 197,-475.5 262,-475.5 262,-456.5 197,-456.5"/>
<text text-anchor="middle" x="229.5" y="-463.5" font-family="Helvetica,sans-Serif" font-size="10.00">MCAN_Init</text>
</a>
</g>
</g>
<!-- Node1&#45;&gt;Node6 -->
<g id="edge4" class="edge"><title>Node1&#45;&gt;Node6</title>
<path fill="none" stroke="midnightblue" d="M69.9254,-314.187C82.6203,-346.595 112.735,-412.053 160,-447 170.618,-454.851 184.327,-459.458 196.688,-462.162"/>
<polygon fill="midnightblue" stroke="midnightblue" points="73.0954,-312.674 66.2884,-304.556 66.5468,-315.147 73.0954,-312.674"/>
</g>
<!-- Node8 -->
<g id="node6" class="node"><title>Node8</title>
<g id="a_node6"><a xlink:href="pio__it_8c.xhtml#ad31e05d6debb1e88af6124cd7751af22" target="_top" xlink:title="Initializes the PIO interrupt management logic. ">
<polygon fill="white" stroke="red" points="168.5,-418.5 168.5,-437.5 290.5,-437.5 290.5,-418.5 168.5,-418.5"/>
<text text-anchor="middle" x="229.5" y="-425.5" font-family="Helvetica,sans-Serif" font-size="10.00">PIO_InitializeInterrupts</text>
</a>
</g>
</g>
<!-- Node1&#45;&gt;Node8 -->
<g id="edge5" class="edge"><title>Node1&#45;&gt;Node8</title>
<path fill="none" stroke="midnightblue" d="M73.6082,-313.27C89.2638,-338.6 120.961,-384.077 160,-409 166.033,-412.852 172.849,-415.933 179.783,-418.396"/>
<polygon fill="midnightblue" stroke="midnightblue" points="76.5662,-311.397 68.4116,-304.633 70.5681,-315.006 76.5662,-311.397"/>
</g>
<!-- Node12 -->
<g id="node7" class="node"><title>Node12</title>
<g id="a_node7"><a xlink:href="spi__dma_8c.xhtml#ac612542f98d1fbf87bbf0e3ea7870cb1" target="_top" xlink:title="SPI xDMA Rx callback Invoked on SPi DMA reception done. ">
<polygon fill="white" stroke="red" points="192.5,-380.5 192.5,-399.5 266.5,-399.5 266.5,-380.5 192.5,-380.5"/>
<text text-anchor="middle" x="229.5" y="-387.5" font-family="Helvetica,sans-Serif" font-size="10.00">SPID_Rx_Cb</text>
</a>
</g>
</g>
<!-- Node1&#45;&gt;Node12 -->
<g id="edge6" class="edge"><title>Node1&#45;&gt;Node12</title>
<path fill="none" stroke="midnightblue" d="M80.061,-311.845C98.3744,-329.04 129.031,-355.363 160,-371 170.025,-376.062 181.579,-379.926 192.307,-382.804"/>
<polygon fill="midnightblue" stroke="midnightblue" points="82.2009,-309.048 72.5586,-304.657 77.3584,-314.103 82.2009,-309.048"/>
</g>
<!-- Node14 -->
<g id="node8" class="node"><title>Node14</title>
<g id="a_node8"><a xlink:href="spi__dma_8c.xhtml#ae3c774fb7e4bcf2db4e5d9e8891b6abd" target="_top" xlink:title="Starts a SPI master transfer. ">
<polygon fill="white" stroke="black" points="170,-342.5 170,-361.5 289,-361.5 289,-342.5 170,-342.5"/>
<text text-anchor="middle" x="229.5" y="-349.5" font-family="Helvetica,sans-Serif" font-size="10.00">SPID_SendCommand</text>
</a>
</g>
</g>
<!-- Node1&#45;&gt;Node14 -->
<g id="edge7" class="edge"><title>Node1&#45;&gt;Node14</title>
<path fill="none" stroke="midnightblue" d="M100.538,-307.928C130.99,-318.416 173.229,-332.964 200.709,-342.428"/>
<polygon fill="midnightblue" stroke="midnightblue" points="101.296,-304.488 90.701,-304.541 99.0162,-311.106 101.296,-304.488"/>
</g>
<!-- Node15 -->
<g id="node9" class="node"><title>Node15</title>
<g id="a_node9"><a xlink:href="twid_8c.xhtml#a5a93a963b33545933b831ca77a89c2a2" target="_top" xlink:title="Initializes a TWI driver instance, using the given TWI peripheral. ">
<polygon fill="white" stroke="black" points="335,-294.5 335,-313.5 442,-313.5 442,-294.5 335,-294.5"/>
<text text-anchor="middle" x="388.5" y="-301.5" font-family="Helvetica,sans-Serif" font-size="10.00">TWID_DmaInitialize</text>
</a>
</g>
</g>
<!-- Node1&#45;&gt;Node15 -->
<g id="edge8" class="edge"><title>Node1&#45;&gt;Node15</title>
<path fill="none" stroke="midnightblue" d="M134.278,-296.977C194.798,-298.655 280.268,-301.026 334.785,-302.538"/>
<polygon fill="midnightblue" stroke="midnightblue" points="134.129,-293.472 124.036,-296.693 133.935,-300.469 134.129,-293.472"/>
</g>
<!-- Node16 -->
<g id="node10" class="node"><title>Node16</title>
<g id="a_node10"><a xlink:href="uart__dma_8c.xhtml#a8b463d15a44a1b7058c8d1f259c84fcf" target="_top" xlink:title="Initializes the UartDma structure and the corresponding UART &amp; DMA . ">
<polygon fill="white" stroke="black" points="338.5,-237.5 338.5,-256.5 438.5,-256.5 438.5,-237.5 338.5,-237.5"/>
<text text-anchor="middle" x="388.5" y="-244.5" font-family="Helvetica,sans-Serif" font-size="10.00">UARTD_Configure</text>
</a>
</g>
</g>
<!-- Node1&#45;&gt;Node16 -->
<g id="edge9" class="edge"><title>Node1&#45;&gt;Node16</title>
<path fill="none" stroke="midnightblue" d="M91.3486,-281.023C110.293,-272.409 136.042,-262.073 160,-257 220.336,-244.225 291.617,-243.306 338.099,-244.537"/>
<polygon fill="midnightblue" stroke="midnightblue" points="89.691,-277.934 82.1079,-285.333 92.6501,-284.278 89.691,-277.934"/>
</g>
<!-- Node17 -->
<g id="node11" class="node"><title>Node17</title>
<g id="a_node11"><a xlink:href="usart__dma_8c.xhtml#a0f760ac1d4ebf29b670399b45ba1ee33" target="_top" xlink:title="Initializes the USARTDma structure and the corresponding USART &amp; DMA . ">
<polygon fill="white" stroke="black" points="335,-190.5 335,-209.5 442,-209.5 442,-190.5 335,-190.5"/>
<text text-anchor="middle" x="388.5" y="-197.5" font-family="Helvetica,sans-Serif" font-size="10.00">USARTD_Configure</text>
</a>
</g>
</g>
<!-- Node1&#45;&gt;Node17 -->
<g id="edge10" class="edge"><title>Node1&#45;&gt;Node17</title>
<path fill="none" stroke="midnightblue" d="M84.9149,-279.668C103.918,-267.103 132.601,-249.844 160,-240 217.743,-219.254 287.726,-209.018 334.694,-204.14"/>
<polygon fill="midnightblue" stroke="midnightblue" points="82.7434,-276.911 76.412,-285.406 86.659,-282.714 82.7434,-276.911"/>
</g>
<!-- Node18 -->
<g id="node12" class="node"><title>Node18</title>
<g id="a_node12"><a xlink:href="xtio__uart_8h.xhtml#a8ba86b040c6e35b8df3244e412f2e689" target="_top" xlink:title="xtio_uart_configure">
<polygon fill="white" stroke="red" points="478,-171.5 478,-190.5 586,-190.5 586,-171.5 478,-171.5"/>
<text text-anchor="middle" x="532" y="-178.5" font-family="Helvetica,sans-Serif" font-size="10.00">xtio_uart_configure</text>
</a>
</g>
</g>
<!-- Node1&#45;&gt;Node18 -->
<g id="edge20" class="edge"><title>Node1&#45;&gt;Node18</title>
<path fill="none" stroke="midnightblue" d="M76.3485,-277.243C93.28,-256.167 124.572,-221.771 160,-205 263.987,-155.773 403.032,-163.463 477.899,-172.675"/>
<polygon fill="midnightblue" stroke="midnightblue" points="73.3981,-275.334 70.0011,-285.37 78.9149,-279.643 73.3981,-275.334"/>
</g>
<!-- Node30 -->
<g id="node13" class="node"><title>Node30</title>
<g id="a_node13"><a xlink:href="group__dmad__functions.xhtml#ga8c7517080f70e93096364e916af6e6f2" target="_top" xlink:title="Initialize xDMA driver instance. ">
<polygon fill="white" stroke="red" points="181.5,-266.5 181.5,-285.5 277.5,-285.5 277.5,-266.5 181.5,-266.5"/>
<text text-anchor="middle" x="229.5" y="-273.5" font-family="Helvetica,sans-Serif" font-size="10.00">XDMAD_Initialize</text>
</a>
</g>
</g>
<!-- Node1&#45;&gt;Node30 -->
<g id="edge12" class="edge"><title>Node1&#45;&gt;Node30</title>
<path fill="none" stroke="midnightblue" d="M134.462,-286.796C150.308,-284.977 166.716,-283.093 181.304,-281.418"/>
<polygon fill="midnightblue" stroke="midnightblue" points="133.691,-283.361 124.156,-287.979 134.49,-290.316 133.691,-283.361"/>
</g>
<!-- Node38 -->
<g id="node14" class="node"><title>Node38</title>
<g id="a_node14"><a xlink:href="group__usbd__hal.xhtml#gafcd12a00544aac7645deb694ec611e7a" target="_top" xlink:title="USBD (UDP) interrupt handler Manages device resume, suspend, end of bus reset. ">
<polygon fill="white" stroke="black" points="182,-114.5 182,-133.5 277,-133.5 277,-114.5 182,-114.5"/>
<text text-anchor="middle" x="229.5" y="-121.5" font-family="Helvetica,sans-Serif" font-size="10.00">USBHS_Handler</text>
</a>
</g>
</g>
<!-- Node1&#45;&gt;Node38 -->
<g id="edge16" class="edge"><title>Node1&#45;&gt;Node38</title>
<path fill="none" stroke="midnightblue" d="M70.7365,-275.87C84.2751,-244.709 115.156,-182.966 160,-148 168.049,-141.724 177.863,-137.016 187.518,-133.514"/>
<polygon fill="midnightblue" stroke="midnightblue" points="67.4704,-274.608 66.8149,-285.183 73.9217,-277.325 67.4704,-274.608"/>
</g>
<!-- Node39 -->
<g id="node15" class="node"><title>Node39</title>
<g id="a_node15"><a xlink:href="group__usbd__hal.xhtml#ga3699059b9b9b52b7e55af6d070a7fe61" target="_top" xlink:title="Initializes the USB HW Access driver. ">
<polygon fill="white" stroke="red" points="185,-76.5 185,-95.5 274,-95.5 274,-76.5 185,-76.5"/>
<text text-anchor="middle" x="229.5" y="-83.5" font-family="Helvetica,sans-Serif" font-size="10.00">USBD_HAL_Init</text>
</a>
</g>
</g>
<!-- Node1&#45;&gt;Node39 -->
<g id="edge17" class="edge"><title>Node1&#45;&gt;Node39</title>
<path fill="none" stroke="midnightblue" d="M67.4024,-275.423C77.121,-236.807 104.121,-150.62 160,-105 167.17,-99.1464 176.018,-95.0918 184.946,-92.2846"/>
<polygon fill="midnightblue" stroke="midnightblue" points="63.9424,-274.843 65.0184,-285.383 70.7501,-276.473 63.9424,-274.843"/>
</g>
<!-- Node60 -->
<g id="node16" class="node"><title>Node60</title>
<g id="a_node16"><a xlink:href="group__usbd__hal.xhtml#gacfe54e3efd82dfd6df3074679402833d" target="_top" xlink:title="USBD_HAL_Disable">
<polygon fill="white" stroke="black" points="174.5,-38.5 174.5,-57.5 284.5,-57.5 284.5,-38.5 174.5,-38.5"/>
<text text-anchor="middle" x="229.5" y="-45.5" font-family="Helvetica,sans-Serif" font-size="10.00">USBD_HAL_Disable</text>
</a>
</g>
</g>
<!-- Node1&#45;&gt;Node60 -->
<g id="edge18" class="edge"><title>Node1&#45;&gt;Node60</title>
<path fill="none" stroke="midnightblue" d="M65.6445,-274.932C72.5735,-230.563 95.4167,-123.594 160,-67 164.455,-63.0959 169.648,-59.9878 175.145,-57.5145"/>
<polygon fill="midnightblue" stroke="midnightblue" points="62.1528,-274.622 64.1797,-285.021 69.0802,-275.628 62.1528,-274.622"/>
</g>
<!-- Node61 -->
<g id="node17" class="node"><title>Node61</title>
<g id="a_node17"><a xlink:href="xtio__i2c_8h.xhtml#a7b0e666ddfaac918eb931d278b66559c" target="_top" xlink:title="xtio_i2c_init">
<polygon fill="white" stroke="red" points="193.5,-0.5 193.5,-19.5 265.5,-19.5 265.5,-0.5 193.5,-0.5"/>
<text text-anchor="middle" x="229.5" y="-7.5" font-family="Helvetica,sans-Serif" font-size="10.00">xtio_i2c_init</text>
</a>
</g>
</g>
<!-- Node1&#45;&gt;Node61 -->
<g id="edge19" class="edge"><title>Node1&#45;&gt;Node61</title>
<path fill="none" stroke="midnightblue" d="M64.2554,-275.054C68.4582,-225.727 86.2966,-97.092 160,-29 169.065,-20.6252 181.5,-15.8941 193.289,-13.2379"/>
<polygon fill="midnightblue" stroke="midnightblue" points="60.7435,-275.083 63.4858,-285.316 67.7239,-275.606 60.7435,-275.083"/>
</g>
<!-- Node17&#45;&gt;Node18 -->
<g id="edge11" class="edge"><title>Node17&#45;&gt;Node18</title>
<path fill="none" stroke="midnightblue" d="M452.136,-191.589C460.699,-190.44 469.422,-189.268 477.795,-188.144"/>
<polygon fill="midnightblue" stroke="midnightblue" points="451.635,-188.125 442.189,-192.925 452.566,-195.063 451.635,-188.125"/>
</g>
<!-- Node30&#45;&gt;Node15 -->
<g id="edge13" class="edge"><title>Node30&#45;&gt;Node15</title>
<path fill="none" stroke="midnightblue" d="M287.572,-286.179C303.046,-288.938 319.722,-291.912 334.935,-294.625"/>
<polygon fill="midnightblue" stroke="midnightblue" points="288.064,-282.711 277.605,-284.401 286.835,-289.602 288.064,-282.711"/>
</g>
<!-- Node30&#45;&gt;Node16 -->
<g id="edge14" class="edge"><title>Node30&#45;&gt;Node16</title>
<path fill="none" stroke="midnightblue" d="M287.714,-265.432C304.28,-262.372 322.214,-259.059 338.248,-256.097"/>
<polygon fill="midnightblue" stroke="midnightblue" points="286.803,-262.041 277.605,-267.299 288.075,-268.924 286.803,-262.041"/>
</g>
<!-- Node30&#45;&gt;Node17 -->
<g id="edge15" class="edge"><title>Node30&#45;&gt;Node17</title>
<path fill="none" stroke="midnightblue" d="M259.542,-261.941C291.051,-246.689 340.496,-222.754 367.777,-209.547"/>
<polygon fill="midnightblue" stroke="midnightblue" points="257.86,-258.867 250.384,-266.375 260.91,-265.168 257.86,-258.867"/>
</g>
</g>
</svg>
