<?xml version="1.0" encoding="UTF-8" standalone="no"?>
<!DOCTYPE svg PUBLIC "-//W3C//DTD SVG 1.1//EN"
 "http://www.w3.org/Graphics/SVG/1.1/DTD/svg11.dtd">
<!-- Generated by graphviz version 2.38.0 (20140413.2041)
 -->
<!-- Title: USBH_enable_timeout_callback Pages: 1 -->
<svg width="319pt" height="180pt"
 viewBox="0.00 0.00 319.00 180.00" xmlns="http://www.w3.org/2000/svg" xmlns:xlink="http://www.w3.org/1999/xlink">
<g id="graph0" class="graph" transform="scale(1 1) rotate(0) translate(4 176)">
<title>USBH_enable_timeout_callback</title>
<polygon fill="white" stroke="none" points="-4,4 -4,-176 315,-176 315,4 -4,4"/>
<!-- Node157 -->
<g id="node1" class="node"><title>Node157</title>
<polygon fill="#bfbfbf" stroke="black" points="0,-71 0,-101 125,-101 125,-71 0,-71"/>
<text text-anchor="start" x="8" y="-89" font-family="Helvetica,sans-Serif" font-size="10.00">USBH_enable_timeout</text>
<text text-anchor="middle" x="62.5" y="-78" font-family="Helvetica,sans-Serif" font-size="10.00">_callback</text>
</g>
<!-- Node158 -->
<g id="node2" class="node"><title>Node158</title>
<g id="a_node2"><a xlink:href="group___u_s_b_h__group__interne.xhtml#ga5549a3d37f8742e4651f62b4bc0c674b" target="_top" xlink:title="Device enumeration step 2 Lets USB line in IDLE state during 20ms. ">
<polygon fill="white" stroke="red" points="164,-152.5 164,-171.5 308,-171.5 308,-152.5 164,-152.5"/>
<text text-anchor="middle" x="236" y="-159.5" font-family="Helvetica,sans-Serif" font-size="10.00">USBH_enumeration_step2</text>
</a>
</g>
</g>
<!-- Node157&#45;&gt;Node158 -->
<g id="edge1" class="edge"><title>Node157&#45;&gt;Node158</title>
<path fill="none" stroke="midnightblue" d="M93.8222,-106.688C112.516,-118.678 137.362,-133.278 161,-143 169.955,-146.683 179.82,-149.81 189.348,-152.4"/>
<polygon fill="midnightblue" stroke="midnightblue" points="95.7208,-103.748 85.4325,-101.218 91.8974,-109.611 95.7208,-103.748"/>
</g>
<!-- Node167 -->
<g id="node3" class="node"><title>Node167</title>
<g id="a_node3"><a xlink:href="group___u_s_b_h__group__interne.xhtml#ga126be13abd01bd4ca5cb0aa7dd65c52f" target="_top" xlink:title="Device enumeration step 4 Lets USB line in IDLE state during 100ms. ">
<polygon fill="white" stroke="red" points="164,-114.5 164,-133.5 308,-133.5 308,-114.5 164,-114.5"/>
<text text-anchor="middle" x="236" y="-121.5" font-family="Helvetica,sans-Serif" font-size="10.00">USBH_enumeration_step4</text>
</a>
</g>
</g>
<!-- Node157&#45;&gt;Node167 -->
<g id="edge2" class="edge"><title>Node157&#45;&gt;Node167</title>
<path fill="none" stroke="midnightblue" d="M135.372,-101.925C154.62,-106.19 174.827,-110.667 191.972,-114.466"/>
<polygon fill="midnightblue" stroke="midnightblue" points="135.936,-98.4651 125.415,-99.7189 134.421,-105.299 135.936,-98.4651"/>
</g>
<!-- Node169 -->
<g id="node4" class="node"><title>Node169</title>
<g id="a_node4"><a xlink:href="group___u_s_b_h__group__interne.xhtml#gac4b4282cf6ff893f72b0f3eec04e5f88" target="_top" xlink:title="Device enumeration step 6 End of Get device descriptor request. ">
<polygon fill="white" stroke="red" points="164,-76.5 164,-95.5 308,-95.5 308,-76.5 164,-76.5"/>
<text text-anchor="middle" x="236" y="-83.5" font-family="Helvetica,sans-Serif" font-size="10.00">USBH_enumeration_step6</text>
</a>
</g>
</g>
<!-- Node157&#45;&gt;Node169 -->
<g id="edge3" class="edge"><title>Node157&#45;&gt;Node169</title>
<path fill="none" stroke="midnightblue" d="M135.487,-86C144.871,-86 154.481,-86 163.851,-86"/>
<polygon fill="midnightblue" stroke="midnightblue" points="135.415,-82.5001 125.415,-86 135.415,-89.5001 135.415,-82.5001"/>
</g>
<!-- Node171 -->
<g id="node5" class="node"><title>Node171</title>
<g id="a_node5"><a xlink:href="group___u_s_b_h__group__interne.xhtml#ga022d231a877c3f5dafd3aa1527dbe003" target="_top" xlink:title="Device enumeration step 8 Lets USB line in IDLE state during 100ms. ">
<polygon fill="white" stroke="red" points="164,-38.5 164,-57.5 308,-57.5 308,-38.5 164,-38.5"/>
<text text-anchor="middle" x="236" y="-45.5" font-family="Helvetica,sans-Serif" font-size="10.00">USBH_enumeration_step8</text>
</a>
</g>
</g>
<!-- Node157&#45;&gt;Node171 -->
<g id="edge4" class="edge"><title>Node157&#45;&gt;Node171</title>
<path fill="none" stroke="midnightblue" d="M135.372,-70.0749C154.62,-65.8101 174.827,-61.3329 191.972,-57.5338"/>
<polygon fill="midnightblue" stroke="midnightblue" points="134.421,-66.7007 125.415,-72.2811 135.936,-73.5349 134.421,-66.7007"/>
</g>
<!-- Node173 -->
<g id="node6" class="node"><title>Node173</title>
<g id="a_node6"><a xlink:href="group___u_s_b_h__group__interne.xhtml#ga447f43d02c344a764a67aa86b467aab0" target="_top" xlink:title="Device enumeration step 10 End of Set address request. ">
<polygon fill="white" stroke="red" points="161,-0.5 161,-19.5 311,-19.5 311,-0.5 161,-0.5"/>
<text text-anchor="middle" x="236" y="-7.5" font-family="Helvetica,sans-Serif" font-size="10.00">USBH_enumeration_step10</text>
</a>
</g>
</g>
<!-- Node157&#45;&gt;Node173 -->
<g id="edge5" class="edge"><title>Node157&#45;&gt;Node173</title>
<path fill="none" stroke="midnightblue" d="M93.8222,-65.3119C112.516,-53.322 137.362,-38.7216 161,-29 169.955,-25.3172 179.82,-22.1897 189.348,-19.6004"/>
<polygon fill="midnightblue" stroke="midnightblue" points="91.8974,-62.3886 85.4325,-70.7824 95.7208,-68.2523 91.8974,-62.3886"/>
</g>
</g>
</svg>
