<?xml version="1.0" encoding="UTF-8" standalone="no"?>
<!DOCTYPE svg PUBLIC "-//W3C//DTD SVG 1.1//EN"
 "http://www.w3.org/Graphics/SVG/1.1/DTD/svg11.dtd">
<!-- Generated by graphviz version 2.38.0 (20140413.2041)
 -->
<!-- Title: USBGenericRequest_GetValue Pages: 1 -->
<svg width="529pt" height="671pt"
 viewBox="0.00 0.00 529.00 670.50" xmlns="http://www.w3.org/2000/svg" xmlns:xlink="http://www.w3.org/1999/xlink">
<g id="graph0" class="graph" transform="scale(1 1) rotate(0) translate(4 666.5)">
<title>USBGenericRequest_GetValue</title>
<polygon fill="white" stroke="none" points="-4,4 -4,-666.5 525,-666.5 525,4 -4,4"/>
<!-- Node259 -->
<g id="node1" class="node"><title>Node259</title>
<polygon fill="#bfbfbf" stroke="black" points="0,-294.5 0,-313.5 161,-313.5 161,-294.5 0,-294.5"/>
<text text-anchor="middle" x="80.5" y="-301.5" font-family="Helvetica,sans-Serif" font-size="10.00">USBGenericRequest_GetValue</text>
</g>
<!-- Node260 -->
<g id="node2" class="node"><title>Node260</title>
<g id="a_node2"><a xlink:href="group__usb__audio.xhtml#gab4526a49dffcbfd21863db0da8793572" target="_top" xlink:title="Returns the control selector value indicating the target of a Feature Unit request. ">
<polygon fill="white" stroke="red" points="219.5,-632 219.5,-662 351.5,-662 351.5,-632 219.5,-632"/>
<text text-anchor="start" x="227.5" y="-650" font-family="Helvetica,sans-Serif" font-size="10.00">AUDFeatureUnitRequest</text>
<text text-anchor="middle" x="285.5" y="-639" font-family="Helvetica,sans-Serif" font-size="10.00">_GetControl</text>
</a>
</g>
</g>
<!-- Node259&#45;&gt;Node260 -->
<g id="edge1" class="edge"><title>Node259&#45;&gt;Node260</title>
<path fill="none" stroke="midnightblue" d="M82.5966,-323.765C86.7835,-379.526 106.502,-539.44 197,-623 203.365,-628.877 211.034,-633.337 219.153,-636.717"/>
<polygon fill="midnightblue" stroke="midnightblue" points="86.0709,-323.259 81.919,-313.512 79.0862,-323.721 86.0709,-323.259"/>
</g>
<!-- Node271 -->
<g id="node3" class="node"><title>Node271</title>
<g id="a_node3"><a xlink:href="group__usb__audio.xhtml#ga47557d2c62372574f370291ed4526b12" target="_top" xlink:title="Returns the channel number of a Feature unit which should be altered by the given request...">
<polygon fill="white" stroke="red" points="219.5,-583 219.5,-613 351.5,-613 351.5,-583 219.5,-583"/>
<text text-anchor="start" x="227.5" y="-601" font-family="Helvetica,sans-Serif" font-size="10.00">AUDFeatureUnitRequest</text>
<text text-anchor="middle" x="285.5" y="-590" font-family="Helvetica,sans-Serif" font-size="10.00">_GetChannel</text>
</a>
</g>
</g>
<!-- Node259&#45;&gt;Node271 -->
<g id="edge2" class="edge"><title>Node259&#45;&gt;Node271</title>
<path fill="none" stroke="midnightblue" d="M84.0432,-323.678C91.5417,-373.455 118.215,-505.298 197,-574 203.53,-579.694 211.292,-584.049 219.457,-587.378"/>
<polygon fill="midnightblue" stroke="midnightblue" points="87.4854,-323.022 82.6244,-313.608 80.5539,-323.998 87.4854,-323.022"/>
</g>
<!-- Node273 -->
<g id="node4" class="node"><title>Node273</title>
<g id="a_node4"><a xlink:href="group__usb__cdc.xhtml#gacd1bd8a721514d20fa9bde6003e2d0e7" target="_top" xlink:title="Notifies if the given request indicates that the DTE signal is present. ">
<polygon fill="white" stroke="black" points="199,-534 199,-564 372,-564 372,-534 199,-534"/>
<text text-anchor="start" x="207" y="-552" font-family="Helvetica,sans-Serif" font-size="10.00">CDCSetControlLineStateRequest</text>
<text text-anchor="middle" x="285.5" y="-541" font-family="Helvetica,sans-Serif" font-size="10.00">_IsDtePresent</text>
</a>
</g>
</g>
<!-- Node259&#45;&gt;Node273 -->
<g id="edge3" class="edge"><title>Node259&#45;&gt;Node273</title>
<path fill="none" stroke="midnightblue" d="M86.0482,-323.542C97.1358,-366.732 129.718,-470.763 197,-525 201.292,-528.46 206.046,-531.423 211.056,-533.959"/>
<polygon fill="midnightblue" stroke="midnightblue" points="89.4195,-322.594 83.6327,-313.72 82.622,-324.266 89.4195,-322.594"/>
</g>
<!-- Node274 -->
<g id="node5" class="node"><title>Node274</title>
<g id="a_node5"><a xlink:href="group__usb__cdc.xhtml#ga92da23b772c65ed7d84d5ca066d21ec3" target="_top" xlink:title="Notifies if the given request indicates that the device carrier should be activated. ">
<polygon fill="white" stroke="black" points="199,-485 199,-515 372,-515 372,-485 199,-485"/>
<text text-anchor="start" x="207" y="-503" font-family="Helvetica,sans-Serif" font-size="10.00">CDCSetControlLineStateRequest</text>
<text text-anchor="middle" x="285.5" y="-492" font-family="Helvetica,sans-Serif" font-size="10.00">_ActivateCarrier</text>
</a>
</g>
</g>
<!-- Node259&#45;&gt;Node274 -->
<g id="edge4" class="edge"><title>Node259&#45;&gt;Node274</title>
<path fill="none" stroke="midnightblue" d="M89.0058,-323.244C103.952,-358.987 140.9,-435.646 197,-476 201.731,-479.403 206.923,-482.324 212.343,-484.831"/>
<polygon fill="midnightblue" stroke="midnightblue" points="92.0771,-321.503 85.0771,-313.55 85.5896,-324.133 92.0771,-321.503"/>
</g>
<!-- Node275 -->
<g id="node6" class="node"><title>Node275</title>
<g id="a_node6"><a xlink:href="group__usb__request.xhtml#ga56cc8072ee61b86e52620841df171c56" target="_top" xlink:title="Returns the type of the descriptor requested by the host given the corresponding GET_DESCRIPTOR reque...">
<polygon fill="white" stroke="red" points="214,-436 214,-466 357,-466 357,-436 214,-436"/>
<text text-anchor="start" x="222" y="-454" font-family="Helvetica,sans-Serif" font-size="10.00">USBGetDescriptorRequest</text>
<text text-anchor="middle" x="285.5" y="-443" font-family="Helvetica,sans-Serif" font-size="10.00">_GetDescriptorType</text>
</a>
</g>
</g>
<!-- Node259&#45;&gt;Node275 -->
<g id="edge5" class="edge"><title>Node259&#45;&gt;Node275</title>
<path fill="none" stroke="midnightblue" d="M93.5536,-322.176C112.399,-349.153 151.438,-399.548 197,-427 202.667,-430.414 208.829,-433.354 215.172,-435.884"/>
<polygon fill="midnightblue" stroke="midnightblue" points="96.2842,-319.969 87.7524,-313.687 90.5047,-323.918 96.2842,-319.969"/>
</g>
<!-- Node299 -->
<g id="node7" class="node"><title>Node299</title>
<g id="a_node7"><a xlink:href="group__usb__request.xhtml#ga09bca9ff4fe941ee4688851a15a2190c" target="_top" xlink:title="Returns the index of the requested descriptor, given the corresponding GET_DESCRIPTOR request...">
<polygon fill="white" stroke="red" points="214,-387 214,-417 357,-417 357,-387 214,-387"/>
<text text-anchor="start" x="222" y="-405" font-family="Helvetica,sans-Serif" font-size="10.00">USBGetDescriptorRequest</text>
<text text-anchor="middle" x="285.5" y="-394" font-family="Helvetica,sans-Serif" font-size="10.00">_GetDescriptorIndex</text>
</a>
</g>
</g>
<!-- Node259&#45;&gt;Node299 -->
<g id="edge6" class="edge"><title>Node259&#45;&gt;Node299</title>
<path fill="none" stroke="midnightblue" d="M101.622,-319.588C123.86,-336.152 161.274,-362.099 197,-378 204.483,-381.331 212.537,-384.298 220.62,-386.913"/>
<polygon fill="midnightblue" stroke="midnightblue" points="103.696,-316.768 93.6073,-313.533 99.4764,-322.353 103.696,-316.768"/>
</g>
<!-- Node300 -->
<g id="node8" class="node"><title>Node300</title>
<g id="a_node8"><a xlink:href="group__usb__request.xhtml#ga974088e16e3a8f33425a4a90ce5f1a03" target="_top" xlink:title="Returns the address that the device must take in response to a SET_ADDRESS request. ">
<polygon fill="white" stroke="red" points="220,-338 220,-368 351,-368 351,-338 220,-338"/>
<text text-anchor="start" x="228" y="-356" font-family="Helvetica,sans-Serif" font-size="10.00">USBSetAddressRequest</text>
<text text-anchor="middle" x="285.5" y="-345" font-family="Helvetica,sans-Serif" font-size="10.00">_GetAddress</text>
</a>
</g>
</g>
<!-- Node259&#45;&gt;Node300 -->
<g id="edge7" class="edge"><title>Node259&#45;&gt;Node300</title>
<path fill="none" stroke="midnightblue" d="M130.911,-315.927C158.4,-322.562 192.881,-330.885 222.204,-337.963"/>
<polygon fill="midnightblue" stroke="midnightblue" points="131.664,-312.508 121.122,-313.564 130.022,-319.313 131.664,-312.508"/>
</g>
<!-- Node301 -->
<g id="node9" class="node"><title>Node301</title>
<g id="a_node9"><a xlink:href="group__usb__request.xhtml#ga82573aa1de13dfe6d86308cc46a52277" target="_top" xlink:title="Returns the number of the configuration that should be set in response to the given SET_CONFIGURATION...">
<polygon fill="white" stroke="red" points="207.5,-289 207.5,-319 363.5,-319 363.5,-289 207.5,-289"/>
<text text-anchor="start" x="215.5" y="-307" font-family="Helvetica,sans-Serif" font-size="10.00">USBSetConfigurationRequest</text>
<text text-anchor="middle" x="285.5" y="-296" font-family="Helvetica,sans-Serif" font-size="10.00">_GetConfiguration</text>
</a>
</g>
</g>
<!-- Node259&#45;&gt;Node301 -->
<g id="edge8" class="edge"><title>Node259&#45;&gt;Node301</title>
<path fill="none" stroke="midnightblue" d="M171.218,-304C183.288,-304 195.582,-304 207.407,-304"/>
<polygon fill="midnightblue" stroke="midnightblue" points="171.148,-300.5 161.148,-304 171.148,-307.5 171.148,-300.5"/>
</g>
<!-- Node302 -->
<g id="node10" class="node"><title>Node302</title>
<g id="a_node10"><a xlink:href="group__usb__request.xhtml#ga12a0abaf7f42b626adaf62b7efc5c6de" target="_top" xlink:title="Indicates the new alternate setting that the interface targeted by a SET_INTERFACE request should use...">
<polygon fill="white" stroke="red" points="226.5,-240 226.5,-270 344.5,-270 344.5,-240 226.5,-240"/>
<text text-anchor="start" x="234.5" y="-258" font-family="Helvetica,sans-Serif" font-size="10.00">USBInterfaceRequest</text>
<text text-anchor="middle" x="285.5" y="-247" font-family="Helvetica,sans-Serif" font-size="10.00">_GetAlternateSetting</text>
</a>
</g>
</g>
<!-- Node259&#45;&gt;Node302 -->
<g id="edge9" class="edge"><title>Node259&#45;&gt;Node302</title>
<path fill="none" stroke="midnightblue" d="M130.941,-292.066C159.665,-285.133 196.016,-276.358 226.138,-269.087"/>
<polygon fill="midnightblue" stroke="midnightblue" points="130.022,-288.687 121.122,-294.436 131.664,-295.492 130.022,-288.687"/>
</g>
<!-- Node303 -->
<g id="node11" class="node"><title>Node303</title>
<g id="a_node11"><a xlink:href="group__usb__request.xhtml#ga45fc2dc20e20b098a487d3cdc7f1b35e" target="_top" xlink:title="Returns the feature selector of a given CLEAR_FEATURE or SET_FEATURE request. ">
<polygon fill="white" stroke="red" points="200.5,-191 200.5,-221 370.5,-221 370.5,-191 200.5,-191"/>
<text text-anchor="start" x="208.5" y="-209" font-family="Helvetica,sans-Serif" font-size="10.00">USBFeatureRequest_GetFeature</text>
<text text-anchor="middle" x="285.5" y="-198" font-family="Helvetica,sans-Serif" font-size="10.00">Selector</text>
</a>
</g>
</g>
<!-- Node259&#45;&gt;Node303 -->
<g id="edge10" class="edge"><title>Node259&#45;&gt;Node303</title>
<path fill="none" stroke="midnightblue" d="M102.05,-288.449C124.388,-272.175 161.641,-246.832 197,-231 205.363,-227.255 214.428,-223.924 223.448,-221.012"/>
<polygon fill="midnightblue" stroke="midnightblue" points="99.947,-285.651 93.982,-294.408 104.105,-291.282 99.947,-285.651"/>
</g>
<!-- Node304 -->
<g id="node12" class="node"><title>Node304</title>
<g id="a_node12"><a xlink:href="group__usb__hid__protocol__types.xhtml#ga6834fb90cfe01b6f8ec868e3ade677c3" target="_top" xlink:title="Indicates the ID of the report targeted by a SET_IDLE or GET_IDLE request. ">
<polygon fill="white" stroke="black" points="210.5,-152.5 210.5,-171.5 360.5,-171.5 360.5,-152.5 210.5,-152.5"/>
<text text-anchor="middle" x="285.5" y="-159.5" font-family="Helvetica,sans-Serif" font-size="10.00">HIDIdleRequest_GetReportId</text>
</a>
</g>
</g>
<!-- Node259&#45;&gt;Node304 -->
<g id="edge11" class="edge"><title>Node259&#45;&gt;Node304</title>
<path fill="none" stroke="midnightblue" d="M93.4436,-285.726C112.146,-258.65 151.004,-208.259 197,-182 204.578,-177.674 213.028,-174.283 221.606,-171.626"/>
<polygon fill="midnightblue" stroke="midnightblue" points="90.3821,-284.005 87.69,-294.252 96.1847,-287.921 90.3821,-284.005"/>
</g>
<!-- Node305 -->
<g id="node13" class="node"><title>Node305</title>
<g id="a_node13"><a xlink:href="group__usb__hid__protocol__types.xhtml#ga6809221451d2c5d5b2f6acf6fa643b9f" target="_top" xlink:title="HIDProtocolRequest\l_GetProtocol">
<polygon fill="white" stroke="black" points="410,-109 410,-139 521,-139 521,-109 410,-109"/>
<text text-anchor="start" x="418" y="-127" font-family="Helvetica,sans-Serif" font-size="10.00">HIDProtocolRequest</text>
<text text-anchor="middle" x="465.5" y="-116" font-family="Helvetica,sans-Serif" font-size="10.00">_GetProtocol</text>
</a>
</g>
</g>
<!-- Node259&#45;&gt;Node305 -->
<g id="edge17" class="edge"><title>Node259&#45;&gt;Node305</title>
<path fill="none" stroke="midnightblue" d="M88.9147,-284.454C103.499,-249.07 139.582,-175.095 197,-143 263.04,-106.086 353.023,-108.38 409.944,-114.98"/>
<polygon fill="midnightblue" stroke="midnightblue" points="85.519,-283.522 85.0787,-294.108 92.0243,-286.107 85.519,-283.522"/>
</g>
<!-- Node306 -->
<g id="node14" class="node"><title>Node306</title>
<g id="a_node14"><a xlink:href="group__usb__hid__protocol__types.xhtml#gadda4a9db20a64f37fefd3e3893171b4a" target="_top" xlink:title="Retrieves the Idle rate (in milliseconds) indicated by a SET_IDLE request. ">
<polygon fill="white" stroke="red" points="211,-76.5 211,-95.5 360,-95.5 360,-76.5 211,-76.5"/>
<text text-anchor="middle" x="285.5" y="-83.5" font-family="Helvetica,sans-Serif" font-size="10.00">HIDIdleRequest_GetIdleRate</text>
</a>
</g>
</g>
<!-- Node259&#45;&gt;Node306 -->
<g id="edge13" class="edge"><title>Node259&#45;&gt;Node306</title>
<path fill="none" stroke="midnightblue" d="M87.5654,-284.46C100.784,-245.181 135.995,-156.448 197,-110 205.272,-103.702 215.094,-99.0563 225.118,-95.6294"/>
<polygon fill="midnightblue" stroke="midnightblue" points="84.1781,-283.559 84.4172,-294.151 90.8356,-285.722 84.1781,-283.559"/>
</g>
<!-- Node307 -->
<g id="node15" class="node"><title>Node307</title>
<g id="a_node15"><a xlink:href="group__usb__hid__protocol__types.xhtml#ga7838b70a03055712db33a1d04f89f15f" target="_top" xlink:title="Indicates the type of report targeted by a SET_REPORT or GET_REPORT request. ">
<polygon fill="white" stroke="red" points="197,-38.5 197,-57.5 374,-57.5 374,-38.5 197,-38.5"/>
<text text-anchor="middle" x="285.5" y="-45.5" font-family="Helvetica,sans-Serif" font-size="10.00">HIDReportRequest_GetReportType</text>
</a>
</g>
</g>
<!-- Node259&#45;&gt;Node307 -->
<g id="edge15" class="edge"><title>Node259&#45;&gt;Node307</title>
<path fill="none" stroke="midnightblue" d="M85.0569,-284.36C94.439,-238.524 124.314,-124.064 197,-67 201.891,-63.1603 207.39,-60.0567 213.187,-57.5528"/>
<polygon fill="midnightblue" stroke="midnightblue" points="81.5666,-283.975 83.0996,-294.458 88.4387,-285.307 81.5666,-283.975"/>
</g>
<!-- Node308 -->
<g id="node16" class="node"><title>Node308</title>
<g id="a_node16"><a xlink:href="group__usb__hid__protocol__types.xhtml#ga821535cae13981aa9d15d87f0d52fbd1" target="_top" xlink:title="Indicates the ID of the report targeted by a SET_REPORT or GET_REPORT request. ">
<polygon fill="white" stroke="red" points="203.5,-0.5 203.5,-19.5 367.5,-19.5 367.5,-0.5 203.5,-0.5"/>
<text text-anchor="middle" x="285.5" y="-7.5" font-family="Helvetica,sans-Serif" font-size="10.00">HIDReportRequest_GetReportId</text>
</a>
</g>
</g>
<!-- Node259&#45;&gt;Node308 -->
<g id="edge16" class="edge"><title>Node259&#45;&gt;Node308</title>
<path fill="none" stroke="midnightblue" d="M83.616,-284.375C90.1848,-233.606 114.996,-97.164 197,-29 201.543,-25.224 206.665,-22.1504 212.094,-19.6538"/>
<polygon fill="midnightblue" stroke="midnightblue" points="80.1345,-284.013 82.4217,-294.358 87.0849,-284.844 80.1345,-284.013"/>
</g>
<!-- Node304&#45;&gt;Node305 -->
<g id="edge12" class="edge"><title>Node304&#45;&gt;Node305</title>
<path fill="none" stroke="midnightblue" d="M341.465,-150.266C363.17,-145.632 388.055,-140.32 409.74,-135.69"/>
<polygon fill="midnightblue" stroke="midnightblue" points="340.466,-146.9 331.417,-152.411 341.927,-153.746 340.466,-146.9"/>
</g>
<!-- Node306&#45;&gt;Node305 -->
<g id="edge14" class="edge"><title>Node306&#45;&gt;Node305</title>
<path fill="none" stroke="midnightblue" d="M341.465,-97.7341C363.17,-102.368 388.055,-107.68 409.74,-112.31"/>
<polygon fill="midnightblue" stroke="midnightblue" points="341.927,-94.254 331.417,-95.589 340.466,-101.1 341.927,-94.254"/>
</g>
</g>
</svg>
