<?xml version="1.0" encoding="UTF-8" standalone="no"?>
<!DOCTYPE svg PUBLIC "-//W3C//DTD SVG 1.1//EN"
 "http://www.w3.org/Graphics/SVG/1.1/DTD/svg11.dtd">
<!-- Generated by graphviz version 2.38.0 (20140413.2041)
 -->
<!-- Title: USBH_HAL_Suspend Pages: 1 -->
<svg width="319pt" height="104pt"
 viewBox="0.00 0.00 319.00 104.00" xmlns="http://www.w3.org/2000/svg" xmlns:xlink="http://www.w3.org/1999/xlink">
<g id="graph0" class="graph" transform="scale(1 1) rotate(0) translate(4 100)">
<title>USBH_HAL_Suspend</title>
<polygon fill="white" stroke="none" points="-4,4 -4,-100 315,-100 315,4 -4,4"/>
<!-- Node952 -->
<g id="node1" class="node"><title>Node952</title>
<polygon fill="#bfbfbf" stroke="black" points="0,-38.5 0,-57.5 117,-57.5 117,-38.5 0,-38.5"/>
<text text-anchor="middle" x="58.5" y="-45.5" font-family="Helvetica,sans-Serif" font-size="10.00">USBH_HAL_Suspend</text>
</g>
<!-- Node953 -->
<g id="node2" class="node"><title>Node953</title>
<g id="a_node2"><a xlink:href="group__uhd__group.xhtml#gafb1043e05189c04ded956208eea3e2b5" target="_top" xlink:title="USBH_HAL_ControlReqEnd">
<polygon fill="white" stroke="red" points="159.5,-76.5 159.5,-95.5 304.5,-95.5 304.5,-76.5 159.5,-76.5"/>
<text text-anchor="middle" x="232" y="-83.5" font-family="Helvetica,sans-Serif" font-size="10.00">USBH_HAL_ControlReqEnd</text>
</a>
</g>
</g>
<!-- Node952&#45;&gt;Node953 -->
<g id="edge1" class="edge"><title>Node952&#45;&gt;Node953</title>
<path fill="none" stroke="midnightblue" d="M112.541,-59.7526C136.791,-65.1258 165.147,-71.4086 188.035,-76.4799"/>
<polygon fill="midnightblue" stroke="midnightblue" points="113.297,-56.3352 102.777,-57.589 111.783,-63.1695 113.297,-56.3352"/>
</g>
<!-- Node1019 -->
<g id="node3" class="node"><title>Node1019</title>
<g id="a_node3"><a xlink:href="group___u_s_b_h__group__interne.xhtml#ga85036d02a8ba359ad946070bbc8a4080" target="_top" xlink:title="Enters a specific device in USB suspend mode Suspend the USB line or a port on USB hub...">
<polygon fill="white" stroke="red" points="153,-38.5 153,-57.5 311,-57.5 311,-38.5 153,-38.5"/>
<text text-anchor="middle" x="232" y="-45.5" font-family="Helvetica,sans-Serif" font-size="10.00">USBH_enumeration_suspend</text>
</a>
</g>
</g>
<!-- Node952&#45;&gt;Node1019 -->
<g id="edge2" class="edge"><title>Node952&#45;&gt;Node1019</title>
<path fill="none" stroke="midnightblue" d="M127.208,-48C135.626,-48 144.287,-48 152.846,-48"/>
<polygon fill="midnightblue" stroke="midnightblue" points="127.084,-44.5001 117.084,-48 127.084,-51.5001 127.084,-44.5001"/>
</g>
<!-- Node988 -->
<g id="node4" class="node"><title>Node988</title>
<g id="a_node4"><a xlink:href="group___u_s_b_h__group.xhtml#gaa8954a787d685fc5e64a46fe2bd23631" target="_top" xlink:title="Suspends a USB line. ">
<polygon fill="white" stroke="black" points="186.5,-0.5 186.5,-19.5 277.5,-19.5 277.5,-0.5 186.5,-0.5"/>
<text text-anchor="middle" x="232" y="-7.5" font-family="Helvetica,sans-Serif" font-size="10.00">USBH_suspend</text>
</a>
</g>
</g>
<!-- Node952&#45;&gt;Node988 -->
<g id="edge3" class="edge"><title>Node952&#45;&gt;Node988</title>
<path fill="none" stroke="midnightblue" d="M112.541,-36.2474C136.791,-30.8742 165.147,-24.5914 188.035,-19.5201"/>
<polygon fill="midnightblue" stroke="midnightblue" points="111.783,-32.8305 102.777,-38.411 113.297,-39.6648 111.783,-32.8305"/>
</g>
</g>
</svg>
