<?xml version="1.0" encoding="UTF-8" standalone="no"?>
<!DOCTYPE svg PUBLIC "-//W3C//DTD SVG 1.1//EN"
 "http://www.w3.org/Graphics/SVG/1.1/DTD/svg11.dtd">
<!-- Generated by graphviz version 2.38.0 (20140413.2041)
 -->
<!-- Title: USBH_HAL_ControlReqEnd Pages: 1 -->
<svg width="356pt" height="142pt"
 viewBox="0.00 0.00 356.00 142.00" xmlns="http://www.w3.org/2000/svg" xmlns:xlink="http://www.w3.org/1999/xlink">
<g id="graph0" class="graph" transform="scale(1 1) rotate(0) translate(4 138)">
<title>USBH_HAL_ControlReqEnd</title>
<polygon fill="white" stroke="none" points="-4,4 -4,-138 352,-138 352,4 -4,4"/>
<!-- Node114 -->
<g id="node1" class="node"><title>Node114</title>
<polygon fill="#bfbfbf" stroke="black" points="0,-38.5 0,-57.5 145,-57.5 145,-38.5 0,-38.5"/>
<text text-anchor="middle" x="72.5" y="-45.5" font-family="Helvetica,sans-Serif" font-size="10.00">USBH_HAL_ControlReqEnd</text>
</g>
<!-- Node115 -->
<g id="node2" class="node"><title>Node115</title>
<g id="a_node2"><a xlink:href="group__uhd__group.xhtml#ga83779ae5393f2318b1eb0856f583b637" target="_top" xlink:title="Disables an endpoint or all endpoint of a device. ">
<polygon fill="white" stroke="red" points="206.5,-114.5 206.5,-133.5 322.5,-133.5 322.5,-114.5 206.5,-114.5"/>
<text text-anchor="middle" x="264.5" y="-121.5" font-family="Helvetica,sans-Serif" font-size="10.00">USBH_HAL_FreePipe</text>
</a>
</g>
</g>
<!-- Node114&#45;&gt;Node115 -->
<g id="edge1" class="edge"><title>Node114&#45;&gt;Node115</title>
<path fill="none" stroke="midnightblue" d="M97.2295,-62.9123C118.47,-75.6849 150.827,-93.748 181,-105 190.915,-108.698 201.779,-111.818 212.274,-114.394"/>
<polygon fill="midnightblue" stroke="midnightblue" points="98.9321,-59.8511 88.573,-57.6287 95.2852,-65.8261 98.9321,-59.8511"/>
</g>
<!-- Node137 -->
<g id="node3" class="node"><title>Node137</title>
<g id="a_node3"><a xlink:href="group__uhd__group.xhtml#ga0e9c1f691d695f4c878712831d38e9c0" target="_top" xlink:title="USBH_HAL_ControlTimeout">
<polygon fill="white" stroke="red" points="190,-76.5 190,-95.5 339,-95.5 339,-76.5 190,-76.5"/>
<text text-anchor="middle" x="264.5" y="-83.5" font-family="Helvetica,sans-Serif" font-size="10.00">USBH_HAL_ControlTimeout</text>
</a>
</g>
</g>
<!-- Node114&#45;&gt;Node137 -->
<g id="edge2" class="edge"><title>Node114&#45;&gt;Node137</title>
<path fill="none" stroke="midnightblue" d="M131.548,-59.6095C158.57,-65.014 190.318,-71.3635 215.9,-76.4799"/>
<polygon fill="midnightblue" stroke="midnightblue" points="131.937,-56.1182 121.445,-57.589 130.564,-62.9823 131.937,-56.1182"/>
</g>
<!-- Node139 -->
<g id="node4" class="node"><title>Node139</title>
<g id="a_node4"><a xlink:href="group__uhd__group.xhtml#ga85b92a3f7bc4357fae366d2f7a1c595b" target="_top" xlink:title="USBH_HAL_ControlInterrupt">
<polygon fill="white" stroke="red" points="189,-38.5 189,-57.5 340,-57.5 340,-38.5 189,-38.5"/>
<text text-anchor="middle" x="264.5" y="-45.5" font-family="Helvetica,sans-Serif" font-size="10.00">USBH_HAL_ControlInterrupt</text>
</a>
</g>
</g>
<!-- Node114&#45;&gt;Node139 -->
<g id="edge3" class="edge"><title>Node114&#45;&gt;Node139</title>
<path fill="none" stroke="midnightblue" d="M155.226,-48C166.391,-48 177.806,-48 188.837,-48"/>
<polygon fill="midnightblue" stroke="midnightblue" points="155.06,-44.5001 145.06,-48 155.06,-51.5001 155.06,-44.5001"/>
</g>
<!-- Node140 -->
<g id="node5" class="node"><title>Node140</title>
<g id="a_node5"><a xlink:href="group__uhd__group.xhtml#ga1ddb6a33201674d513c4ad9c5de79e93" target="_top" xlink:title="USBH_HAL_PhaseControlSetup">
<polygon fill="white" stroke="red" points="181,-0.5 181,-19.5 348,-19.5 348,-0.5 181,-0.5"/>
<text text-anchor="middle" x="264.5" y="-7.5" font-family="Helvetica,sans-Serif" font-size="10.00">USBH_HAL_PhaseControlSetup</text>
</a>
</g>
</g>
<!-- Node114&#45;&gt;Node140 -->
<g id="edge4" class="edge"><title>Node114&#45;&gt;Node140</title>
<path fill="none" stroke="midnightblue" d="M107.9,-35.7804C128.735,-30.4727 156.246,-24.5217 182.335,-19.547"/>
<polygon fill="midnightblue" stroke="midnightblue" points="106.725,-32.4705 97.9502,-38.4076 108.512,-39.2385 106.725,-32.4705"/>
</g>
<!-- Node140&#45;&gt;Node114 -->
<g id="edge5" class="edge"><title>Node140&#45;&gt;Node114</title>
<path fill="none" stroke="midnightblue" d="M229.524,-22.1115C206.072,-28.1021 174.016,-34.929 145.06,-40.2519"/>
<polygon fill="midnightblue" stroke="midnightblue" points="230.561,-25.4575 239.332,-19.5146 228.77,-18.6907 230.561,-25.4575"/>
</g>
</g>
</svg>
