<?xml version="1.0" encoding="UTF-8" standalone="no"?>
<!DOCTYPE svg PUBLIC "-//W3C//DTD SVG 1.1//EN"
 "http://www.w3.org/Graphics/SVG/1.1/DTD/svg11.dtd">
<!-- Generated by graphviz version 2.38.0 (20140413.2041)
 -->
<!-- Title: SBC_ReadCapacity10 Pages: 1 -->
<svg width="276pt" height="104pt"
 viewBox="0.00 0.00 276.00 104.00" xmlns="http://www.w3.org/2000/svg" xmlns:xlink="http://www.w3.org/1999/xlink">
<g id="graph0" class="graph" transform="scale(1 1) rotate(0) translate(4 100)">
<title>SBC_ReadCapacity10</title>
<polygon fill="white" stroke="none" points="-4,4 -4,-100 272,-100 272,4 -4,4"/>
<!-- Node826 -->
<g id="node1" class="node"><title>Node826</title>
<polygon fill="#bfbfbf" stroke="black" points="0,-38.5 0,-57.5 119,-57.5 119,-38.5 0,-38.5"/>
<text text-anchor="middle" x="59.5" y="-45.5" font-family="Helvetica,sans-Serif" font-size="10.00">SBC_ReadCapacity10</text>
</g>
<!-- Node827 -->
<g id="node2" class="node"><title>Node827</title>
<g id="a_node2"><a xlink:href="group__usbd__msd.xhtml#ga6f8ad39249cd0f7dc9992a7ff44ba164" target="_top" xlink:title="Check if the LUN is ready. ">
<polygon fill="white" stroke="red" points="166.5,-76.5 166.5,-95.5 256.5,-95.5 256.5,-76.5 166.5,-76.5"/>
<text text-anchor="middle" x="211.5" y="-83.5" font-family="Helvetica,sans-Serif" font-size="10.00">SBCLunIsReady</text>
</a>
</g>
</g>
<!-- Node826&#45;&gt;Node827 -->
<g id="edge1" class="edge"><title>Node826&#45;&gt;Node827</title>
<path fill="none" stroke="midnightblue" d="M98.3513,-57.589C117.967,-62.5583 142.119,-68.6767 162.979,-73.9613"/>
<polygon fill="midnightblue" stroke="midnightblue" points="162.368,-77.4169 172.921,-76.4799 164.087,-70.6313 162.368,-77.4169"/>
</g>
<!-- Node829 -->
<g id="node3" class="node"><title>Node829</title>
<g id="a_node3"><a xlink:href="group__usbd__interface.xhtml#gafc4728f4af70056b3a271f333b759592" target="_top" xlink:title="Sends data through a USB endpoint. ">
<polygon fill="white" stroke="red" points="174.5,-38.5 174.5,-57.5 248.5,-57.5 248.5,-38.5 174.5,-38.5"/>
<text text-anchor="middle" x="211.5" y="-45.5" font-family="Helvetica,sans-Serif" font-size="10.00">USBD_Write</text>
</a>
</g>
</g>
<!-- Node826&#45;&gt;Node829 -->
<g id="edge2" class="edge"><title>Node826&#45;&gt;Node829</title>
<path fill="none" stroke="midnightblue" d="M119.353,-48C134.28,-48 150.102,-48 164.301,-48"/>
<polygon fill="midnightblue" stroke="midnightblue" points="164.316,-51.5001 174.316,-48 164.316,-44.5001 164.316,-51.5001"/>
</g>
<!-- Node852 -->
<g id="node4" class="node"><title>Node852</title>
<g id="a_node4"><a xlink:href="_s_b_c_methods_8c.xhtml#ga65e2aa51e755428df116ecc89b7aa996" target="_top" xlink:title="This function is to be used as a callback for USB or LUN transfers. ">
<polygon fill="white" stroke="black" points="155,-0.5 155,-19.5 268,-19.5 268,-0.5 155,-0.5"/>
<text text-anchor="middle" x="211.5" y="-7.5" font-family="Helvetica,sans-Serif" font-size="10.00">MSDDriver_Callback</text>
</a>
</g>
</g>
<!-- Node826&#45;&gt;Node852 -->
<g id="edge3" class="edge"><title>Node826&#45;&gt;Node852</title>
<path fill="none" stroke="midnightblue" d="M98.3513,-38.411C117.967,-33.4417 142.119,-27.3233 162.979,-22.0387"/>
<polygon fill="midnightblue" stroke="midnightblue" points="164.087,-25.3687 172.921,-19.5201 162.368,-18.5831 164.087,-25.3687"/>
</g>
</g>
</svg>
