<?xml version="1.0" encoding="UTF-8" standalone="no"?>
<!DOCTYPE svg PUBLIC "-//W3C//DTD SVG 1.1//EN"
 "http://www.w3.org/Graphics/SVG/1.1/DTD/svg11.dtd">
<!-- Generated by graphviz version 2.38.0 (20140413.2041)
 -->
<!-- Title: PCtoRDRICCClock Pages: 1 -->
<svg width="266pt" height="104pt"
 viewBox="0.00 0.00 266.00 104.00" xmlns="http://www.w3.org/2000/svg" xmlns:xlink="http://www.w3.org/1999/xlink">
<g id="graph0" class="graph" transform="scale(1 1) rotate(0) translate(4 100)">
<title>PCtoRDRICCClock</title>
<polygon fill="white" stroke="none" points="-4,4 -4,-100 262,-100 262,4 -4,4"/>
<!-- Node360 -->
<g id="node1" class="node"><title>Node360</title>
<polygon fill="#bfbfbf" stroke="black" points="0,-38.5 0,-57.5 100,-57.5 100,-38.5 0,-38.5"/>
<text text-anchor="middle" x="50" y="-45.5" font-family="Helvetica,sans-Serif" font-size="10.00">PCtoRDRICCClock</text>
</g>
<!-- Node361 -->
<g id="node2" class="node"><title>Node361</title>
<g id="a_node2"><a xlink:href="iso7816__4_8h.xhtml#a8f0798746d318dfcf228d85a315a4696" target="_top" xlink:title="Restart clock ISO7816. ">
<polygon fill="white" stroke="black" points="136,-76.5 136,-95.5 258,-95.5 258,-76.5 136,-76.5"/>
<text text-anchor="middle" x="197" y="-83.5" font-family="Helvetica,sans-Serif" font-size="10.00">ISO7816_RestartClock</text>
</a>
</g>
</g>
<!-- Node360&#45;&gt;Node361 -->
<g id="edge1" class="edge"><title>Node360&#45;&gt;Node361</title>
<path fill="none" stroke="midnightblue" d="M87.5896,-57.589C106.465,-62.5358 129.686,-68.6211 149.788,-73.8892"/>
<polygon fill="midnightblue" stroke="midnightblue" points="149.113,-77.3305 159.673,-76.4799 150.887,-70.5591 149.113,-77.3305"/>
</g>
<!-- Node362 -->
<g id="node3" class="node"><title>Node362</title>
<g id="a_node3"><a xlink:href="iso7816__4_8h.xhtml#a154bd57425ad392e29ed0c05a7f659f4" target="_top" xlink:title="Stop clock ISO7816. ">
<polygon fill="white" stroke="black" points="142,-38.5 142,-57.5 252,-57.5 252,-38.5 142,-38.5"/>
<text text-anchor="middle" x="197" y="-45.5" font-family="Helvetica,sans-Serif" font-size="10.00">ISO7816_StopClock</text>
</a>
</g>
</g>
<!-- Node360&#45;&gt;Node362 -->
<g id="edge2" class="edge"><title>Node360&#45;&gt;Node362</title>
<path fill="none" stroke="midnightblue" d="M100.09,-48C110.301,-48 121.206,-48 131.866,-48"/>
<polygon fill="midnightblue" stroke="midnightblue" points="131.982,-51.5001 141.982,-48 131.982,-44.5001 131.982,-51.5001"/>
</g>
<!-- Node363 -->
<g id="node4" class="node"><title>Node363</title>
<g id="a_node4"><a xlink:href="group__usbd__ccid.xhtml#ga3a42473fac7f1432de5358e5dc39e42c" target="_top" xlink:title="Response Pipe, Bulk&#45;IN Messages Return the Slot Status to the host Answer to: PC_to_RDR_IccPowerOff P...">
<polygon fill="white" stroke="black" points="142.5,-0.5 142.5,-19.5 251.5,-19.5 251.5,-0.5 142.5,-0.5"/>
<text text-anchor="middle" x="197" y="-7.5" font-family="Helvetica,sans-Serif" font-size="10.00">RDRtoPCSlotStatus</text>
</a>
</g>
</g>
<!-- Node360&#45;&gt;Node363 -->
<g id="edge3" class="edge"><title>Node360&#45;&gt;Node363</title>
<path fill="none" stroke="midnightblue" d="M87.5896,-38.411C106.465,-33.4642 129.686,-27.3789 149.788,-22.1108"/>
<polygon fill="midnightblue" stroke="midnightblue" points="150.887,-25.4409 159.673,-19.5201 149.113,-18.6695 150.887,-25.4409"/>
</g>
</g>
</svg>
