<?xml version="1.0" encoding="UTF-8" standalone="no"?>
<!DOCTYPE svg PUBLIC "-//W3C//DTD SVG 1.1//EN"
 "http://www.w3.org/Graphics/SVG/1.1/DTD/svg11.dtd">
<!-- Generated by graphviz version 2.38.0 (20140413.2041)
 -->
<!-- Title: USB MassStorage Configure Pages: 1 -->
<svg width="271pt" height="66pt"
 viewBox="0.00 0.00 271.00 66.00" xmlns="http://www.w3.org/2000/svg" xmlns:xlink="http://www.w3.org/1999/xlink">
<g id="graph0" class="graph" transform="scale(1 1) rotate(0) translate(4 62)">
<title>USB MassStorage Configure</title>
<polygon fill="white" stroke="none" points="-4,4 -4,-62 267,-62 267,4 -4,4"/>
<!-- Node2 -->
<g id="node1" class="node"><title>Node2</title>
<g id="a_node1"><a xlink:href="group__usbd__config.xhtml" target="_top" xlink:title="Usbd_config">
<polygon fill="white" stroke="black" points="0,-38.5 0,-57.5 75,-57.5 75,-38.5 0,-38.5"/>
<text text-anchor="middle" x="37.5" y="-45.5" font-family="Helvetica,sans-Serif" font-size="10.00">Usbd_config</text>
</a>
</g>
</g>
<!-- Node0 -->
<g id="node3" class="node"><title>Node0</title>
<polygon fill="#bfbfbf" stroke="black" points="111,-19.5 111,-38.5 263,-38.5 263,-19.5 111,-19.5"/>
<text text-anchor="middle" x="187" y="-26.5" font-family="Helvetica,sans-Serif" font-size="10.00">USB MassStorage Configure</text>
</g>
<!-- Node2&#45;&gt;Node0 -->
<g id="edge2" class="edge"><title>Node2&#45;&gt;Node0</title>
<path fill="none" stroke="black" d="M85.4581,-41.9512C94.0099,-40.8496 103.118,-39.6763 112.226,-38.503"/>
<polygon fill="black" stroke="black" points="84.8109,-38.5055 75.34,-43.2545 85.7052,-45.4482 84.8109,-38.5055"/>
</g>
<!-- Node1 -->
<g id="node2" class="node"><title>Node1</title>
<g id="a_node2"><a xlink:href="group__usbd__msd.xhtml" target="_top" xlink:title="Implement a single interface device with single MS function in. ">
<polygon fill="white" stroke="black" points="3.5,-0.5 3.5,-19.5 71.5,-19.5 71.5,-0.5 3.5,-0.5"/>
<text text-anchor="middle" x="37.5" y="-7.5" font-family="Helvetica,sans-Serif" font-size="10.00">Usbd_msd</text>
</a>
</g>
</g>
<!-- Node1&#45;&gt;Node0 -->
<g id="edge1" class="edge"><title>Node1&#45;&gt;Node0</title>
<path fill="none" stroke="black" d="M81.6202,-15.5545C91.1918,-16.7874 101.6,-18.1282 112.015,-19.4698"/>
<polygon fill="black" stroke="black" points="81.9671,-12.0703 71.6019,-14.264 81.0728,-19.013 81.9671,-12.0703"/>
</g>
</g>
</svg>
