<?xml version="1.0" encoding="UTF-8" standalone="no"?>
<!DOCTYPE svg PUBLIC "-//W3C//DTD SVG 1.1//EN"
 "http://www.w3.org/Graphics/SVG/1.1/DTD/svg11.dtd">
<!-- Generated by graphviz version 2.38.0 (20140413.2041)
 -->
<!-- Title: MCID_CancelCmd Pages: 1 -->
<svg width="216pt" height="66pt"
 viewBox="0.00 0.00 216.00 66.00" xmlns="http://www.w3.org/2000/svg" xmlns:xlink="http://www.w3.org/1999/xlink">
<g id="graph0" class="graph" transform="scale(1 1) rotate(0) translate(4 62)">
<title>MCID_CancelCmd</title>
<polygon fill="white" stroke="none" points="-4,4 -4,-62 212,-62 212,4 -4,4"/>
<!-- Node85 -->
<g id="node1" class="node"><title>Node85</title>
<polygon fill="#bfbfbf" stroke="black" points="0,-19.5 0,-38.5 101,-38.5 101,-19.5 0,-19.5"/>
<text text-anchor="middle" x="50.5" y="-26.5" font-family="Helvetica,sans-Serif" font-size="10.00">MCID_CancelCmd</text>
</g>
<!-- Node86 -->
<g id="node2" class="node"><title>Node86</title>
<g id="a_node2"><a xlink:href="group__mcid__functions.xhtml#gad71f8cb0fb812e37b9c99915fe6f1e7e" target="_top" xlink:title="Reset MCI HW interface and disable it. ">
<polygon fill="white" stroke="red" points="140,-38.5 140,-57.5 205,-57.5 205,-38.5 140,-38.5"/>
<text text-anchor="middle" x="172.5" y="-45.5" font-family="Helvetica,sans-Serif" font-size="10.00">MCI_Reset</text>
</a>
</g>
</g>
<!-- Node85&#45;&gt;Node86 -->
<g id="edge1" class="edge"><title>Node85&#45;&gt;Node86</title>
<path fill="none" stroke="midnightblue" d="M101.001,-36.8377C110.571,-38.3528 120.508,-39.9262 129.797,-41.3971"/>
<polygon fill="midnightblue" stroke="midnightblue" points="129.532,-44.8986 139.957,-43.0056 130.627,-37.9848 129.532,-44.8986"/>
</g>
<!-- Node88 -->
<g id="node3" class="node"><title>Node88</title>
<g id="a_node3"><a xlink:href="group__mcid__functions.xhtml#ga22c80115063dbf7641105608fb74b8e4" target="_top" xlink:title="_FinishCmd">
<polygon fill="white" stroke="red" points="137,-0.5 137,-19.5 208,-19.5 208,-0.5 137,-0.5"/>
<text text-anchor="middle" x="172.5" y="-7.5" font-family="Helvetica,sans-Serif" font-size="10.00">_FinishCmd</text>
</a>
</g>
</g>
<!-- Node85&#45;&gt;Node88 -->
<g id="edge2" class="edge"><title>Node85&#45;&gt;Node88</title>
<path fill="none" stroke="midnightblue" d="M101.001,-21.1623C109.539,-19.8106 118.369,-18.4125 126.77,-17.0822"/>
<polygon fill="midnightblue" stroke="midnightblue" points="127.429,-20.5216 136.758,-15.5008 126.334,-13.6078 127.429,-20.5216"/>
</g>
</g>
</svg>
