<?xml version="1.0" encoding="UTF-8" standalone="no"?>
<!DOCTYPE svg PUBLIC "-//W3C//DTD SVG 1.1//EN"
 "http://www.w3.org/Graphics/SVG/1.1/DTD/svg11.dtd">
<!-- Generated by graphviz version 2.38.0 (20140413.2041)
 -->
<!-- Title: CDCDSerialPort_Initialize Pages: 1 -->
<svg width="323pt" height="66pt"
 viewBox="0.00 0.00 323.00 66.00" xmlns="http://www.w3.org/2000/svg" xmlns:xlink="http://www.w3.org/1999/xlink">
<g id="graph0" class="graph" transform="scale(1 1) rotate(0) translate(4 62)">
<title>CDCDSerialPort_Initialize</title>
<polygon fill="white" stroke="none" points="-4,4 -4,-62 319,-62 319,4 -4,4"/>
<!-- Node1326 -->
<g id="node1" class="node"><title>Node1326</title>
<polygon fill="#bfbfbf" stroke="black" points="0,-19.5 0,-38.5 135,-38.5 135,-19.5 0,-19.5"/>
<text text-anchor="middle" x="67.5" y="-26.5" font-family="Helvetica,sans-Serif" font-size="10.00">CDCDSerialPort_Initialize</text>
</g>
<!-- Node1327 -->
<g id="node2" class="node"><title>Node1327</title>
<g id="a_node2"><a xlink:href="group__usbd__cdc.xhtml#ga61ffa29ba9dde8fb06537dec89b665c4" target="_top" xlink:title="Initializes the USB Device CDC serial driver &amp; USBD Driver. ">
<polygon fill="white" stroke="red" points="185,-38.5 185,-57.5 301,-57.5 301,-38.5 185,-38.5"/>
<text text-anchor="middle" x="243" y="-45.5" font-family="Helvetica,sans-Serif" font-size="10.00">CDCDSerial_Initialize</text>
</a>
</g>
</g>
<!-- Node1326&#45;&gt;Node1327 -->
<g id="edge1" class="edge"><title>Node1326&#45;&gt;Node1327</title>
<path fill="none" stroke="midnightblue" d="M145.205,-37.4C158.55,-38.8614 172.217,-40.3581 184.919,-41.7491"/>
<polygon fill="midnightblue" stroke="midnightblue" points="145.405,-33.901 135.083,-36.2916 144.643,-40.8594 145.405,-33.901"/>
</g>
<!-- Node1338 -->
<g id="node3" class="node"><title>Node1338</title>
<g id="a_node3"><a xlink:href="group__usbd__composite__cdccdc.xhtml#ga2ff92f5d6611f4cc29bc6049b39b443c" target="_top" xlink:title="Initializes the USB device composite device driver. ">
<polygon fill="white" stroke="black" points="171,-0.5 171,-19.5 315,-19.5 315,-0.5 171,-0.5"/>
<text text-anchor="middle" x="243" y="-7.5" font-family="Helvetica,sans-Serif" font-size="10.00">DUALCDCDDriver_Initialize</text>
</a>
</g>
</g>
<!-- Node1326&#45;&gt;Node1338 -->
<g id="edge2" class="edge"><title>Node1326&#45;&gt;Node1338</title>
<path fill="none" stroke="midnightblue" d="M145.104,-20.611C153.711,-19.6685 162.453,-18.7112 170.985,-17.7768"/>
<polygon fill="midnightblue" stroke="midnightblue" points="144.643,-17.1406 135.083,-21.7084 145.405,-24.099 144.643,-17.1406"/>
</g>
</g>
</svg>
