<?xml version="1.0" encoding="UTF-8" standalone="no"?>
<!DOCTYPE svg PUBLIC "-//W3C//DTD SVG 1.1//EN"
 "http://www.w3.org/Graphics/SVG/1.1/DTD/svg11.dtd">
<!-- Generated by graphviz version 2.38.0 (20140413.2041)
 -->
<!-- Title: __DSB Pages: 1 -->
<svg width="395pt" height="824pt"
 viewBox="0.00 0.00 395.00 824.00" xmlns="http://www.w3.org/2000/svg" xmlns:xlink="http://www.w3.org/1999/xlink">
<g id="graph0" class="graph" transform="scale(1 1) rotate(0) translate(4 820)">
<title>__DSB</title>
<polygon fill="white" stroke="none" points="-4,4 -4,-820 391,-820 391,4 -4,4"/>
<!-- Node13 -->
<g id="node1" class="node"><title>Node13</title>
<polygon fill="#bfbfbf" stroke="black" points="0,-416.5 0,-435.5 48,-435.5 48,-416.5 0,-416.5"/>
<text text-anchor="middle" x="24" y="-423.5" font-family="Helvetica,sans-Serif" font-size="10.00">__DSB</text>
</g>
<!-- Node14 -->
<g id="node2" class="node"><title>Node14</title>
<g id="a_node2"><a xlink:href="startup__sams70_8c.xhtml#a7cecd108fd88dec10ce2e97ad905e4ef" target="_top" xlink:title="Performs the low&#45;level initialization of the chip. ">
<polygon fill="white" stroke="red" points="123,-796.5 123,-815.5 197,-815.5 197,-796.5 123,-796.5"/>
<text text-anchor="middle" x="160" y="-803.5" font-family="Helvetica,sans-Serif" font-size="10.00">LowLevelInit</text>
</a>
</g>
</g>
<!-- Node13&#45;&gt;Node14 -->
<g id="edge1" class="edge"><title>Node13&#45;&gt;Node14</title>
<path fill="none" stroke="midnightblue" d="M25.4752,-445.981C27.5077,-514.197 37.6342,-736.459 84,-787 93.8068,-797.69 108.687,-802.742 122.616,-805.01"/>
<polygon fill="midnightblue" stroke="midnightblue" points="28.9677,-445.653 25.1982,-435.751 21.9702,-445.842 28.9677,-445.653"/>
</g>
<!-- Node16 -->
<g id="node3" class="node"><title>Node16</title>
<g id="a_node3"><a xlink:href="startup__same70_8c.xhtml#a11967f52e54564f4e39b12755f00d2fd" target="_top" xlink:title="TCM memory Disable. ">
<polygon fill="white" stroke="red" points="121.5,-758.5 121.5,-777.5 198.5,-777.5 198.5,-758.5 121.5,-758.5"/>
<text text-anchor="middle" x="160" y="-765.5" font-family="Helvetica,sans-Serif" font-size="10.00">TCM_Disable</text>
</a>
</g>
</g>
<!-- Node13&#45;&gt;Node16 -->
<g id="edge2" class="edge"><title>Node13&#45;&gt;Node16</title>
<path fill="none" stroke="midnightblue" d="M25.8935,-445.898C29.1419,-509.219 42.4075,-704.503 84,-749 93.5392,-759.205 107.706,-764.255 121.166,-766.653"/>
<polygon fill="midnightblue" stroke="midnightblue" points="29.3782,-445.495 25.399,-435.676 22.3864,-445.834 29.3782,-445.495"/>
</g>
<!-- Node18 -->
<g id="node4" class="node"><title>Node18</title>
<g id="a_node4"><a xlink:href="group___c_m_s_i_s___core___n_v_i_c_functions.xhtml#ga1143dec48d60a3d6f238c4798a87759c" target="_top" xlink:title="System Reset. ">
<polygon fill="white" stroke="black" points="106,-720.5 106,-739.5 214,-739.5 214,-720.5 106,-720.5"/>
<text text-anchor="middle" x="160" y="-727.5" font-family="Helvetica,sans-Serif" font-size="10.00">NVIC_SystemReset</text>
</a>
</g>
</g>
<!-- Node13&#45;&gt;Node18 -->
<g id="edge3" class="edge"><title>Node13&#45;&gt;Node18</title>
<path fill="none" stroke="midnightblue" d="M26.6422,-446.097C31.731,-503.623 49.0393,-667.277 84,-706 89.955,-712.596 97.7211,-717.389 105.995,-720.871"/>
<polygon fill="midnightblue" stroke="midnightblue" points="30.1007,-445.461 25.7627,-435.795 23.126,-446.056 30.1007,-445.461"/>
</g>
<!-- Node19 -->
<g id="node5" class="node"><title>Node19</title>
<g id="a_node5"><a xlink:href="group___c_m_s_i_s___core___n_v_i_c_functions.xhtml#ga3387607fd8a1a32cccd77d2ac672dd96" target="_top" xlink:title="Decode Priority. ">
<polygon fill="white" stroke="black" points="272,-701.5 272,-720.5 387,-720.5 387,-701.5 272,-701.5"/>
<text text-anchor="middle" x="329.5" y="-708.5" font-family="Helvetica,sans-Serif" font-size="10.00">NVIC_DecodePriority</text>
</a>
</g>
</g>
<!-- Node13&#45;&gt;Node19 -->
<g id="edge5" class="edge"><title>Node13&#45;&gt;Node19</title>
<path fill="none" stroke="midnightblue" d="M26.9103,-445.701C32.4563,-498.618 50.3423,-641.942 84,-673 110.637,-697.58 208.397,-706.267 271.939,-709.332"/>
<polygon fill="midnightblue" stroke="midnightblue" points="30.3765,-445.19 25.8875,-435.593 23.4121,-445.895 30.3765,-445.19"/>
</g>
<!-- Node20 -->
<g id="node6" class="node"><title>Node20</title>
<g id="a_node6"><a xlink:href="group___c_m_s_i_s___core___cache_functions.xhtml#gaf9e7c6c8e16ada1f95e5bf5a03505b68" target="_top" xlink:title="Enable I&#45;Cache. ">
<polygon fill="white" stroke="red" points="106.5,-644.5 106.5,-663.5 213.5,-663.5 213.5,-644.5 106.5,-644.5"/>
<text text-anchor="middle" x="160" y="-651.5" font-family="Helvetica,sans-Serif" font-size="10.00">SCB_EnableICache</text>
</a>
</g>
</g>
<!-- Node13&#45;&gt;Node20 -->
<g id="edge6" class="edge"><title>Node13&#45;&gt;Node20</title>
<path fill="none" stroke="midnightblue" d="M24.4755,-445.656C24.5006,-486.93 30.657,-583.079 84,-635 90.2565,-641.09 98.171,-645.312 106.498,-648.222"/>
<polygon fill="midnightblue" stroke="midnightblue" points="27.9764,-445.594 24.5969,-435.553 20.9769,-445.51 27.9764,-445.594"/>
</g>
<!-- Node21 -->
<g id="node7" class="node"><title>Node21</title>
<g id="a_node7"><a xlink:href="group___c_m_s_i_s___core___cache_functions.xhtml#gaba757390852f95b3ac2d8638c717d8d8" target="_top" xlink:title="Disable I&#45;Cache. ">
<polygon fill="white" stroke="black" points="105,-606.5 105,-625.5 215,-625.5 215,-606.5 105,-606.5"/>
<text text-anchor="middle" x="160" y="-613.5" font-family="Helvetica,sans-Serif" font-size="10.00">SCB_DisableICache</text>
</a>
</g>
</g>
<!-- Node13&#45;&gt;Node21 -->
<g id="edge7" class="edge"><title>Node13&#45;&gt;Node21</title>
<path fill="none" stroke="midnightblue" d="M25.9653,-445.963C28.8027,-481.674 39.9793,-556.535 84,-597 89.9334,-602.454 97.2054,-606.395 104.863,-609.233"/>
<polygon fill="midnightblue" stroke="midnightblue" points="29.4484,-445.588 25.306,-435.837 22.4632,-446.043 29.4484,-445.588"/>
</g>
<!-- Node22 -->
<g id="node8" class="node"><title>Node22</title>
<g id="a_node8"><a xlink:href="group___c_m_s_i_s___core___cache_functions.xhtml#ga50d373a785edd782c5de5a3b55e30ff3" target="_top" xlink:title="Invalidate I&#45;Cache. ">
<polygon fill="white" stroke="black" points="100,-568.5 100,-587.5 220,-587.5 220,-568.5 100,-568.5"/>
<text text-anchor="middle" x="160" y="-575.5" font-family="Helvetica,sans-Serif" font-size="10.00">SCB_InvalidateICache</text>
</a>
</g>
</g>
<!-- Node13&#45;&gt;Node22 -->
<g id="edge8" class="edge"><title>Node13&#45;&gt;Node22</title>
<path fill="none" stroke="midnightblue" d="M28.228,-445.979C34.0322,-475.256 49.0555,-529.525 84,-559 88.723,-562.984 94.1703,-566.149 99.9291,-568.662"/>
<polygon fill="midnightblue" stroke="midnightblue" points="31.6032,-444.974 26.3789,-435.757 24.715,-446.221 31.6032,-444.974"/>
</g>
<!-- Node23 -->
<g id="node9" class="node"><title>Node23</title>
<g id="a_node9"><a xlink:href="group___c_m_s_i_s___core___cache_functions.xhtml#ga63aa640d9006021a796a5dcf9c7180b6" target="_top" xlink:title="Enable D&#45;Cache. ">
<polygon fill="white" stroke="red" points="104,-530.5 104,-549.5 216,-549.5 216,-530.5 104,-530.5"/>
<text text-anchor="middle" x="160" y="-537.5" font-family="Helvetica,sans-Serif" font-size="10.00">SCB_EnableDCache</text>
</a>
</g>
</g>
<!-- Node13&#45;&gt;Node23 -->
<g id="edge9" class="edge"><title>Node13&#45;&gt;Node23</title>
<path fill="none" stroke="midnightblue" d="M31.7221,-444.963C40.4028,-466.665 57.6062,-501.692 84,-521 89.9626,-525.362 96.825,-528.726 103.925,-531.321"/>
<polygon fill="midnightblue" stroke="midnightblue" points="34.9561,-443.62 28.1424,-435.507 28.4095,-446.098 34.9561,-443.62"/>
</g>
<!-- Node24 -->
<g id="node10" class="node"><title>Node24</title>
<g id="a_node10"><a xlink:href="group___c_m_s_i_s___core___cache_functions.xhtml#ga6468170f90d270caab8116e7a4f0b5fe" target="_top" xlink:title="Disable D&#45;Cache. ">
<polygon fill="white" stroke="black" points="102.5,-492.5 102.5,-511.5 217.5,-511.5 217.5,-492.5 102.5,-492.5"/>
<text text-anchor="middle" x="160" y="-499.5" font-family="Helvetica,sans-Serif" font-size="10.00">SCB_DisableDCache</text>
</a>
</g>
</g>
<!-- Node13&#45;&gt;Node24 -->
<g id="edge10" class="edge"><title>Node13&#45;&gt;Node24</title>
<path fill="none" stroke="midnightblue" d="M38.9376,-443.721C49.8821,-456.466 66.2066,-473.091 84,-483 90.9237,-486.856 98.6397,-489.944 106.415,-492.413"/>
<polygon fill="midnightblue" stroke="midnightblue" points="41.3353,-441.128 32.2682,-435.647 35.9385,-445.586 41.3353,-441.128"/>
</g>
<!-- Node25 -->
<g id="node11" class="node"><title>Node25</title>
<g id="a_node11"><a xlink:href="group___c_m_s_i_s___core___cache_functions.xhtml#gace2d30db08887d0bdb818b8a785a5ce6" target="_top" xlink:title="Invalidate D&#45;Cache. ">
<polygon fill="white" stroke="black" points="97.5,-454.5 97.5,-473.5 222.5,-473.5 222.5,-454.5 97.5,-454.5"/>
<text text-anchor="middle" x="160" y="-461.5" font-family="Helvetica,sans-Serif" font-size="10.00">SCB_InvalidateDCache</text>
</a>
</g>
</g>
<!-- Node13&#45;&gt;Node25 -->
<g id="edge11" class="edge"><title>Node13&#45;&gt;Node25</title>
<path fill="none" stroke="midnightblue" d="M57.7611,-436.958C66.2722,-439.692 75.4513,-442.543 84,-445 95.3605,-448.265 107.773,-451.53 119.172,-454.41"/>
<polygon fill="midnightblue" stroke="midnightblue" points="58.7466,-433.598 48.1543,-433.832 56.5805,-440.254 58.7466,-433.598"/>
</g>
<!-- Node26 -->
<g id="node12" class="node"><title>Node26</title>
<g id="a_node12"><a xlink:href="group___c_m_s_i_s___core___cache_functions.xhtml#ga55583e3065c6eabca204b8b89b121c4c" target="_top" xlink:title="Clean D&#45;Cache. ">
<polygon fill="white" stroke="red" points="106.5,-416.5 106.5,-435.5 213.5,-435.5 213.5,-416.5 106.5,-416.5"/>
<text text-anchor="middle" x="160" y="-423.5" font-family="Helvetica,sans-Serif" font-size="10.00">SCB_CleanDCache</text>
</a>
</g>
</g>
<!-- Node13&#45;&gt;Node26 -->
<g id="edge12" class="edge"><title>Node13&#45;&gt;Node26</title>
<path fill="none" stroke="midnightblue" d="M58.0466,-426C72.5783,-426 90.0065,-426 106.261,-426"/>
<polygon fill="midnightblue" stroke="midnightblue" points="58.0355,-422.5 48.0354,-426 58.0354,-429.5 58.0355,-422.5"/>
</g>
<!-- Node28 -->
<g id="node13" class="node"><title>Node28</title>
<g id="a_node13"><a xlink:href="group___c_m_s_i_s___core___cache_functions.xhtml#ga1b741def9e3b2ca97dc9ea49b8ce505c" target="_top" xlink:title="Clean &amp; Invalidate D&#45;Cache. ">
<polygon fill="white" stroke="red" points="84,-378.5 84,-397.5 236,-397.5 236,-378.5 84,-378.5"/>
<text text-anchor="middle" x="160" y="-385.5" font-family="Helvetica,sans-Serif" font-size="10.00">SCB_CleanInvalidateDCache</text>
</a>
</g>
</g>
<!-- Node13&#45;&gt;Node28 -->
<g id="edge13" class="edge"><title>Node13&#45;&gt;Node28</title>
<path fill="none" stroke="midnightblue" d="M57.7611,-415.042C66.2722,-412.308 75.4513,-409.457 84,-407 95.3605,-403.735 107.773,-400.47 119.172,-397.59"/>
<polygon fill="midnightblue" stroke="midnightblue" points="56.5805,-411.746 48.1543,-418.168 58.7466,-418.402 56.5805,-411.746"/>
</g>
<!-- Node32 -->
<g id="node14" class="node"><title>Node32</title>
<g id="a_node14"><a xlink:href="group___c_m_s_i_s___core___cache_functions.xhtml#ga503ef7ef58c0773defd15a82f6336c09" target="_top" xlink:title="SCB_InvalidateDCache\l_by_Addr">
<polygon fill="white" stroke="red" points="97.5,-329 97.5,-359 222.5,-359 222.5,-329 97.5,-329"/>
<text text-anchor="start" x="105.5" y="-347" font-family="Helvetica,sans-Serif" font-size="10.00">SCB_InvalidateDCache</text>
<text text-anchor="middle" x="160" y="-336" font-family="Helvetica,sans-Serif" font-size="10.00">_by_Addr</text>
</a>
</g>
</g>
<!-- Node13&#45;&gt;Node32 -->
<g id="edge14" class="edge"><title>Node13&#45;&gt;Node32</title>
<path fill="none" stroke="midnightblue" d="M39.5368,-408.229C50.5869,-395.731 66.7813,-379.438 84,-369 90.2207,-365.229 97.0802,-361.948 104.048,-359.116"/>
<polygon fill="midnightblue" stroke="midnightblue" points="36.5973,-406.281 32.7593,-416.156 41.9179,-410.83 36.5973,-406.281"/>
</g>
<!-- Node76 -->
<g id="node15" class="node"><title>Node76</title>
<g id="a_node15"><a xlink:href="group___c_m_s_i_s___core___cache_functions.xhtml#ga696fadbf7b9cc71dad42fab61873a40d" target="_top" xlink:title="SCB_CleanDCache_by_Addr">
<polygon fill="white" stroke="red" points="84.5,-290.5 84.5,-309.5 235.5,-309.5 235.5,-290.5 84.5,-290.5"/>
<text text-anchor="middle" x="160" y="-297.5" font-family="Helvetica,sans-Serif" font-size="10.00">SCB_CleanDCache_by_Addr</text>
</a>
</g>
</g>
<!-- Node13&#45;&gt;Node76 -->
<g id="edge15" class="edge"><title>Node13&#45;&gt;Node76</title>
<path fill="none" stroke="midnightblue" d="M30.5784,-406.68C38.5001,-382.725 55.3262,-342.334 84,-320 89.6346,-315.611 96.1508,-312.182 102.942,-309.504"/>
<polygon fill="midnightblue" stroke="midnightblue" points="27.1814,-405.817 27.5547,-416.405 33.8658,-407.895 27.1814,-405.817"/>
</g>
<!-- Node235 -->
<g id="node16" class="node"><title>Node235</title>
<g id="a_node16"><a xlink:href="group___c_m_s_i_s___core___cache_functions.xhtml#ga630131b2572eaa16b569ed364dfc895e" target="_top" xlink:title="SCB_CleanInvalidateDCache\l_by_Addr">
<polygon fill="white" stroke="red" points="84,-241 84,-271 236,-271 236,-241 84,-241"/>
<text text-anchor="start" x="92" y="-259" font-family="Helvetica,sans-Serif" font-size="10.00">SCB_CleanInvalidateDCache</text>
<text text-anchor="middle" x="160" y="-248" font-family="Helvetica,sans-Serif" font-size="10.00">_by_Addr</text>
</a>
</g>
</g>
<!-- Node13&#45;&gt;Node235 -->
<g id="edge16" class="edge"><title>Node13&#45;&gt;Node235</title>
<path fill="none" stroke="midnightblue" d="M27.6868,-406.339C32.9409,-375.378 47.4434,-315.265 84,-281 88.1057,-277.152 92.8201,-273.895 97.8428,-271.138"/>
<polygon fill="midnightblue" stroke="midnightblue" points="24.212,-405.909 26.1458,-416.325 31.1301,-406.976 24.212,-405.909"/>
</g>
<!-- Node239 -->
<g id="node17" class="node"><title>Node239</title>
<g id="a_node17"><a xlink:href="group__can__module.xhtml#ga9b35cd79fb5eeec8cf1ba7247b25a646" target="_top" xlink:title="Initializes the MCAN hardware for giving peripheral. ">
<polygon fill="white" stroke="red" points="127.5,-202.5 127.5,-221.5 192.5,-221.5 192.5,-202.5 127.5,-202.5"/>
<text text-anchor="middle" x="160" y="-209.5" font-family="Helvetica,sans-Serif" font-size="10.00">MCAN_Init</text>
</a>
</g>
</g>
<!-- Node13&#45;&gt;Node239 -->
<g id="edge17" class="edge"><title>Node13&#45;&gt;Node239</title>
<path fill="none" stroke="midnightblue" d="M25.0474,-406.192C26.257,-367.087 34.6832,-279.638 84,-232 95.534,-220.859 112.551,-215.754 127.461,-213.481"/>
<polygon fill="midnightblue" stroke="midnightblue" points="21.5465,-406.214 24.8677,-416.274 28.5454,-406.338 21.5465,-406.214"/>
</g>
<!-- Node240 -->
<g id="node18" class="node"><title>Node240</title>
<g id="a_node18"><a xlink:href="mpu_8c.xhtml#aaa88b8f32a6a4c83d2ddc9a287d82ef2" target="_top" xlink:title="Update MPU regions. ">
<polygon fill="white" stroke="black" points="102,-164.5 102,-183.5 218,-183.5 218,-164.5 102,-164.5"/>
<text text-anchor="middle" x="160" y="-171.5" font-family="Helvetica,sans-Serif" font-size="10.00">MPU_UpdateRegions</text>
</a>
</g>
</g>
<!-- Node13&#45;&gt;Node240 -->
<g id="edge18" class="edge"><title>Node13&#45;&gt;Node240</title>
<path fill="none" stroke="midnightblue" d="M27.358,-406.572C33.8506,-356.247 53.5526,-223.451 84,-193 89.0337,-187.966 95.1977,-184.202 101.808,-181.398"/>
<polygon fill="midnightblue" stroke="midnightblue" points="23.8852,-406.137 26.1126,-416.495 30.8307,-407.009 23.8852,-406.137"/>
</g>
<!-- Node241 -->
<g id="node19" class="node"><title>Node241</title>
<g id="a_node19"><a xlink:href="group__sam__drivers__qspi__group.xhtml#ga7b134660d53e8e550db5e98d21706e56" target="_top" xlink:title="Send instruction over QSPI with data. ">
<polygon fill="white" stroke="black" points="106.5,-115 106.5,-145 213.5,-145 213.5,-115 106.5,-115"/>
<text text-anchor="start" x="114.5" y="-133" font-family="Helvetica,sans-Serif" font-size="10.00">qspi_flash_execute</text>
<text text-anchor="middle" x="160" y="-122" font-family="Helvetica,sans-Serif" font-size="10.00">_command</text>
</a>
</g>
</g>
<!-- Node13&#45;&gt;Node241 -->
<g id="edge19" class="edge"><title>Node13&#45;&gt;Node241</title>
<path fill="none" stroke="midnightblue" d="M26.7922,-406.189C32.2338,-350.219 50.2904,-192.539 84,-155 90.0524,-148.26 97.9691,-143.334 106.387,-139.734"/>
<polygon fill="midnightblue" stroke="midnightblue" points="23.2991,-405.952 25.8462,-416.236 30.2683,-406.609 23.2991,-405.952"/>
</g>
<!-- Node242 -->
<g id="node20" class="node"><title>Node242</title>
<g id="a_node20"><a xlink:href="group__sam__drivers__qspi__group.xhtml#gae5bf717b6b8987d76f6d9559c805e020" target="_top" xlink:title="Writes or reads the QSPI memory (0x80000000) to trasmit or receive data from Flash memory...">
<polygon fill="white" stroke="black" points="86,-76.5 86,-95.5 234,-95.5 234,-76.5 86,-76.5"/>
<text text-anchor="middle" x="160" y="-83.5" font-family="Helvetica,sans-Serif" font-size="10.00">qspi_flash_access_memory</text>
</a>
</g>
</g>
<!-- Node13&#45;&gt;Node242 -->
<g id="edge20" class="edge"><title>Node13&#45;&gt;Node242</title>
<path fill="none" stroke="midnightblue" d="M25.9437,-406.306C29.3445,-343.632 43.0208,-150.319 84,-106 87.934,-101.745 92.6624,-98.3558 97.8073,-95.6607"/>
<polygon fill="midnightblue" stroke="midnightblue" points="22.4417,-406.257 25.424,-416.423 29.4325,-406.616 22.4417,-406.257"/>
</g>
<!-- Node243 -->
<g id="node21" class="node"><title>Node243</title>
<g id="a_node21"><a xlink:href="utility_8h.xhtml#ae51c4a64a384b422b0aee263de9e73d1" target="_top" xlink:title="free_lock">
<polygon fill="white" stroke="black" points="130.5,-38.5 130.5,-57.5 189.5,-57.5 189.5,-38.5 130.5,-38.5"/>
<text text-anchor="middle" x="160" y="-45.5" font-family="Helvetica,sans-Serif" font-size="10.00">free_lock</text>
</a>
</g>
</g>
<!-- Node13&#45;&gt;Node243 -->
<g id="edge21" class="edge"><title>Node13&#45;&gt;Node243</title>
<path fill="none" stroke="midnightblue" d="M25.4919,-406.129C27.5789,-338.287 37.8621,-117.248 84,-67 95.6285,-54.3357 114.378,-49.5857 130.221,-48.0018"/>
<polygon fill="midnightblue" stroke="midnightblue" points="21.9884,-406.208 25.2066,-416.302 28.9856,-406.404 21.9884,-406.208"/>
</g>
<!-- Node244 -->
<g id="node22" class="node"><title>Node244</title>
<g id="a_node22"><a xlink:href="xt__system_8h.xhtml#a2eae6ea89e4a10f1b4406019ff8fc8ce" target="_top" xlink:title="Sets the processor in an idle state waiting for interrupt. ">
<polygon fill="white" stroke="red" points="121,-0.5 121,-19.5 199,-19.5 199,-0.5 121,-0.5"/>
<text text-anchor="middle" x="160" y="-7.5" font-family="Helvetica,sans-Serif" font-size="10.00">xt_idle_sleep</text>
</a>
</g>
</g>
<!-- Node13&#45;&gt;Node244 -->
<g id="edge22" class="edge"><title>Node13&#45;&gt;Node244</title>
<path fill="none" stroke="midnightblue" d="M25.1486,-405.95C26.1015,-333.32 33.0917,-85.3046 84,-29 93.3689,-18.6381 107.503,-13.5594 120.985,-11.1816"/>
<polygon fill="midnightblue" stroke="midnightblue" points="21.6443,-406.35 25.0391,-416.386 28.6439,-406.423 21.6443,-406.35"/>
</g>
<!-- Node18&#45;&gt;Node19 -->
<g id="edge4" class="edge"><title>Node18&#45;&gt;Node19</title>
<path fill="none" stroke="midnightblue" d="M224.508,-722.796C240.054,-721.033 256.589,-719.157 271.793,-717.432"/>
<polygon fill="midnightblue" stroke="midnightblue" points="224,-719.331 214.459,-723.936 224.789,-726.287 224,-719.331"/>
</g>
</g>
</svg>
