<?xml version="1.0" encoding="UTF-8" standalone="no"?>
<!DOCTYPE svg PUBLIC "-//W3C//DTD SVG 1.1//EN"
 "http://www.w3.org/Graphics/SVG/1.1/DTD/svg11.dtd">
<!-- Generated by graphviz version 2.38.0 (20140413.2041)
 -->
<!-- Title: PCtoRDRXfrBlock Pages: 1 -->
<svg width="284pt" height="66pt"
 viewBox="0.00 0.00 284.00 66.00" xmlns="http://www.w3.org/2000/svg" xmlns:xlink="http://www.w3.org/1999/xlink">
<g id="graph0" class="graph" transform="scale(1 1) rotate(0) translate(4 62)">
<title>PCtoRDRXfrBlock</title>
<polygon fill="white" stroke="none" points="-4,4 -4,-62 280,-62 280,4 -4,4"/>
<!-- Node415 -->
<g id="node1" class="node"><title>Node415</title>
<polygon fill="#bfbfbf" stroke="black" points="0,-19.5 0,-38.5 97,-38.5 97,-19.5 0,-19.5"/>
<text text-anchor="middle" x="48.5" y="-26.5" font-family="Helvetica,sans-Serif" font-size="10.00">PCtoRDRXfrBlock</text>
</g>
<!-- Node416 -->
<g id="node2" class="node"><title>Node416</title>
<g id="a_node2"><a xlink:href="iso7816__4_8h.xhtml#a4c353a89b74ac9fc8d3c91855330e32a" target="_top" xlink:title="Transfer Block TPDU T=0. ">
<polygon fill="white" stroke="red" points="133,-38.5 133,-57.5 276,-57.5 276,-38.5 133,-38.5"/>
<text text-anchor="middle" x="204.5" y="-45.5" font-family="Helvetica,sans-Serif" font-size="10.00">ISO7816_XfrBlockTPDU_T0</text>
</a>
</g>
</g>
<!-- Node415&#45;&gt;Node416 -->
<g id="edge1" class="edge"><title>Node415&#45;&gt;Node416</title>
<path fill="none" stroke="midnightblue" d="M97.3824,-34.9076C105.442,-35.9019 114.001,-36.9579 122.625,-38.0219"/>
<polygon fill="midnightblue" stroke="midnightblue" points="122.399,-41.5205 132.752,-39.2714 123.256,-34.5731 122.399,-41.5205"/>
</g>
<!-- Node419 -->
<g id="node3" class="node"><title>Node419</title>
<g id="a_node3"><a xlink:href="group__usbd__ccid.xhtml#ga9540baee48001b10a17bda6af26f0189" target="_top" xlink:title="Response Pipe, Bulk&#45;IN Messages In other cases, the response message has the following format: The re...">
<polygon fill="white" stroke="black" points="151,-0.5 151,-19.5 258,-19.5 258,-0.5 151,-0.5"/>
<text text-anchor="middle" x="204.5" y="-7.5" font-family="Helvetica,sans-Serif" font-size="10.00">RDRtoPCDatablock</text>
</a>
</g>
</g>
<!-- Node415&#45;&gt;Node419 -->
<g id="edge2" class="edge"><title>Node415&#45;&gt;Node419</title>
<path fill="none" stroke="midnightblue" d="M97.3824,-23.0924C111.024,-21.4094 126.095,-19.5499 140.492,-17.7737"/>
<polygon fill="midnightblue" stroke="midnightblue" points="141.329,-21.1971 150.825,-16.4989 140.472,-14.2498 141.329,-21.1971"/>
</g>
</g>
</svg>
