<?xml version="1.0" encoding="UTF-8" standalone="no"?>
<!DOCTYPE svg PUBLIC "-//W3C//DTD SVG 1.1//EN"
 "http://www.w3.org/Graphics/SVG/1.1/DTD/svg11.dtd">
<!-- Generated by graphviz version 2.38.0 (20140413.2041)
 -->
<!-- Title: GMAC Driver Defines Pages: 1 -->
<svg width="408pt" height="28pt"
 viewBox="0.00 0.00 408.00 28.00" xmlns="http://www.w3.org/2000/svg" xmlns:xlink="http://www.w3.org/1999/xlink">
<g id="graph0" class="graph" transform="scale(1 1) rotate(0) translate(4 24)">
<title>GMAC Driver Defines</title>
<polygon fill="white" stroke="none" points="-4,4 -4,-24 404,-24 404,4 -4,4"/>
<!-- Node2 -->
<g id="node1" class="node"><title>Node2</title>
<g id="a_node1"><a xlink:href="group__gmacd__rc.xhtml" target="_top" xlink:title="GMACD Return Codes">
<polygon fill="white" stroke="black" points="280,-0.5 280,-19.5 400,-19.5 400,-0.5 280,-0.5"/>
<text text-anchor="middle" x="340" y="-7.5" font-family="Helvetica,sans-Serif" font-size="10.00">GMACD Return Codes</text>
</a>
</g>
</g>
<!-- Node1 -->
<g id="node2" class="node"><title>Node1</title>
<g id="a_node2"><a xlink:href="group__gmacd__module.xhtml" target="_top" xlink:title="Implement GMAC data transfer and PHY management functions. ">
<polygon fill="white" stroke="black" points="0,-0.5 0,-19.5 92,-19.5 92,-0.5 0,-0.5"/>
<text text-anchor="middle" x="46" y="-7.5" font-family="Helvetica,sans-Serif" font-size="10.00">Gmacd_module</text>
</a>
</g>
</g>
<!-- Node0 -->
<g id="node3" class="node"><title>Node0</title>
<polygon fill="#bfbfbf" stroke="black" points="128,-0.5 128,-19.5 244,-19.5 244,-0.5 128,-0.5"/>
<text text-anchor="middle" x="186" y="-7.5" font-family="Helvetica,sans-Serif" font-size="10.00">GMAC Driver Defines</text>
</g>
<!-- Node1&#45;&gt;Node0 -->
<g id="edge1" class="edge"><title>Node1&#45;&gt;Node0</title>
<path fill="none" stroke="black" d="M102.212,-10C110.574,-10 119.218,-10 127.625,-10"/>
<polygon fill="black" stroke="black" points="102.186,-6.5001 92.1864,-10 102.186,-13.5001 102.186,-6.5001"/>
</g>
<!-- Node0&#45;&gt;Node2 -->
<g id="edge2" class="edge"><title>Node0&#45;&gt;Node2</title>
<path fill="none" stroke="black" d="M254.037,-10C262.643,-10 271.405,-10 279.873,-10"/>
<polygon fill="black" stroke="black" points="254.032,-6.5001 244.032,-10 254.032,-13.5001 254.032,-6.5001"/>
</g>
</g>
</svg>
