<?xml version="1.0" encoding="UTF-8" standalone="no"?>
<!DOCTYPE svg PUBLIC "-//W3C//DTD SVG 1.1//EN"
 "http://www.w3.org/Graphics/SVG/1.1/DTD/svg11.dtd">
<!-- Generated by graphviz version 2.38.0 (20140413.2041)
 -->
<!-- Title: arm_pid_q15 Pages: 1 -->
<svg width="244pt" height="66pt"
 viewBox="0.00 0.00 244.00 66.00" xmlns="http://www.w3.org/2000/svg" xmlns:xlink="http://www.w3.org/1999/xlink">
<g id="graph0" class="graph" transform="scale(1 1) rotate(0) translate(4 62)">
<title>arm_pid_q15</title>
<polygon fill="white" stroke="none" points="-4,4 -4,-62 240,-62 240,4 -4,4"/>
<!-- Node2 -->
<g id="node1" class="node"><title>Node2</title>
<polygon fill="#bfbfbf" stroke="black" points="0,-19.5 0,-38.5 79,-38.5 79,-19.5 0,-19.5"/>
<text text-anchor="middle" x="39.5" y="-26.5" font-family="Helvetica,sans-Serif" font-size="10.00">arm_pid_q15</text>
</g>
<!-- Node3 -->
<g id="node2" class="node"><title>Node3</title>
<g id="a_node2"><a xlink:href="arm__math_8h.xhtml#ab1283b23c96da04362a0efcdc7f23901" target="_top" xlink:title="end of PID group ">
<polygon fill="white" stroke="black" points="115,-38.5 115,-57.5 236,-57.5 236,-38.5 115,-38.5"/>
<text text-anchor="middle" x="175.5" y="-45.5" font-family="Helvetica,sans-Serif" font-size="10.00">arm_mat_inverse_f32</text>
</a>
</g>
</g>
<!-- Node2&#45;&gt;Node3 -->
<g id="edge1" class="edge"><title>Node2&#45;&gt;Node3</title>
<path fill="none" stroke="midnightblue" d="M79.2584,-34.4956C87.3454,-35.6423 96.1044,-36.8842 104.923,-38.1346"/>
<polygon fill="midnightblue" stroke="midnightblue" points="104.48,-41.6067 114.872,-39.5453 105.462,-34.676 104.48,-41.6067"/>
</g>
<!-- Node4 -->
<g id="node3" class="node"><title>Node4</title>
<g id="a_node3"><a xlink:href="arm__math_8h.xhtml#a3dd167a2b71330f9f7b606374e9ec063" target="_top" xlink:title="Floating&#45;point matrix inverse. ">
<polygon fill="white" stroke="black" points="115,-0.5 115,-19.5 236,-19.5 236,-0.5 115,-0.5"/>
<text text-anchor="middle" x="175.5" y="-7.5" font-family="Helvetica,sans-Serif" font-size="10.00">arm_mat_inverse_f64</text>
</a>
</g>
</g>
<!-- Node2&#45;&gt;Node4 -->
<g id="edge2" class="edge"><title>Node2&#45;&gt;Node4</title>
<path fill="none" stroke="midnightblue" d="M79.2584,-23.5044C87.3454,-22.3577 96.1044,-21.1158 104.923,-19.8654"/>
<polygon fill="midnightblue" stroke="midnightblue" points="105.462,-23.324 114.872,-18.4547 104.48,-16.3933 105.462,-23.324"/>
</g>
</g>
</svg>
