<?xml version="1.0" encoding="UTF-8" standalone="no"?>
<!DOCTYPE svg PUBLIC "-//W3C//DTD SVG 1.1//EN"
 "http://www.w3.org/Graphics/SVG/1.1/DTD/svg11.dtd">
<!-- Generated by graphviz version 2.38.0 (20140413.2041)
 -->
<!-- Title: MCAN_Init Pages: 1 -->
<svg width="392pt" height="218pt"
 viewBox="0.00 0.00 392.00 218.00" xmlns="http://www.w3.org/2000/svg" xmlns:xlink="http://www.w3.org/1999/xlink">
<g id="graph0" class="graph" transform="scale(1 1) rotate(0) translate(4 214)">
<title>MCAN_Init</title>
<polygon fill="white" stroke="none" points="-4,4 -4,-214 388,-214 388,4 -4,4"/>
<!-- Node28 -->
<g id="node1" class="node"><title>Node28</title>
<polygon fill="#bfbfbf" stroke="black" points="0,-95.5 0,-114.5 65,-114.5 65,-95.5 0,-95.5"/>
<text text-anchor="middle" x="32.5" y="-102.5" font-family="Helvetica,sans-Serif" font-size="10.00">MCAN_Init</text>
</g>
<!-- Node29 -->
<g id="node2" class="node"><title>Node29</title>
<g id="a_node2"><a xlink:href="pio_8h.xhtml#a1bb66b931fa38004c2178936c269fa76" target="_top" xlink:title="Configures a list of Pin instances, each of which can either hold a single pin or a group of pins...">
<polygon fill="white" stroke="red" points="121.5,-190.5 121.5,-209.5 204.5,-209.5 204.5,-190.5 121.5,-190.5"/>
<text text-anchor="middle" x="163" y="-197.5" font-family="Helvetica,sans-Serif" font-size="10.00">PIO_Configure</text>
</a>
</g>
</g>
<!-- Node28&#45;&gt;Node29 -->
<g id="edge1" class="edge"><title>Node28&#45;&gt;Node29</title>
<path fill="none" stroke="midnightblue" d="M40.3552,-114.541C51.5292,-129.487 75.0441,-158.517 101,-176 107.035,-180.065 113.861,-183.596 120.705,-186.607"/>
<polygon fill="midnightblue" stroke="midnightblue" points="119.397,-189.854 129.978,-190.392 122.042,-183.373 119.397,-189.854"/>
</g>
<!-- Node34 -->
<g id="node3" class="node"><title>Node34</title>
<g id="a_node3"><a xlink:href="pmc_8h.xhtml#a4154148b8d69545bca1b5c868c004d49" target="_top" xlink:title="Enables the clock of a peripheral. ">
<polygon fill="white" stroke="black" points="261,-171.5 261,-190.5 384,-190.5 384,-171.5 261,-171.5"/>
<text text-anchor="middle" x="322.5" y="-178.5" font-family="Helvetica,sans-Serif" font-size="10.00">PMC_EnablePeripheral</text>
</a>
</g>
</g>
<!-- Node28&#45;&gt;Node34 -->
<g id="edge3" class="edge"><title>Node28&#45;&gt;Node34</title>
<path fill="none" stroke="midnightblue" d="M47.3042,-114.647C60.4923,-123.397 81.2338,-135.97 101,-143 149.386,-160.208 206.601,-169.777 250.623,-175.008"/>
<polygon fill="midnightblue" stroke="midnightblue" points="250.327,-178.497 260.659,-176.153 251.121,-171.542 250.327,-178.497"/>
</g>
<!-- Node37 -->
<g id="node4" class="node"><title>Node37</title>
<g id="a_node4"><a xlink:href="group___c_m_s_i_s___core___n_v_i_c_functions.xhtml#ga332e10ef9605dc6eb10b9e14511930f8" target="_top" xlink:title="Clear Pending Interrupt. ">
<polygon fill="white" stroke="black" points="101,-114.5 101,-133.5 225,-133.5 225,-114.5 101,-114.5"/>
<text text-anchor="middle" x="163" y="-121.5" font-family="Helvetica,sans-Serif" font-size="10.00">NVIC_ClearPendingIRQ</text>
</a>
</g>
</g>
<!-- Node28&#45;&gt;Node37 -->
<g id="edge4" class="edge"><title>Node28&#45;&gt;Node37</title>
<path fill="none" stroke="midnightblue" d="M65.2641,-109.697C73.0939,-110.854 81.7973,-112.141 90.6832,-113.455"/>
<polygon fill="midnightblue" stroke="midnightblue" points="90.3519,-116.944 100.756,-114.945 91.3759,-110.019 90.3519,-116.944"/>
</g>
<!-- Node38 -->
<g id="node5" class="node"><title>Node38</title>
<g id="a_node5"><a xlink:href="group___c_m_s_i_s___core___n_v_i_c_functions.xhtml#ga3349f2e3580d7ce22d6530b7294e5921" target="_top" xlink:title="Enable External Interrupt. ">
<polygon fill="white" stroke="black" points="116.5,-76.5 116.5,-95.5 209.5,-95.5 209.5,-76.5 116.5,-76.5"/>
<text text-anchor="middle" x="163" y="-83.5" font-family="Helvetica,sans-Serif" font-size="10.00">NVIC_EnableIRQ</text>
</a>
</g>
</g>
<!-- Node28&#45;&gt;Node38 -->
<g id="edge5" class="edge"><title>Node28&#45;&gt;Node38</title>
<path fill="none" stroke="midnightblue" d="M65.2641,-100.303C77.584,-98.4817 92.0665,-96.3404 106.02,-94.2772"/>
<polygon fill="midnightblue" stroke="midnightblue" points="106.668,-97.7196 116.048,-92.7945 105.644,-90.7949 106.668,-97.7196"/>
</g>
<!-- Node39 -->
<g id="node6" class="node"><title>Node39</title>
<g id="a_node6"><a xlink:href="group___c_m_s_i_s___core___instruction_interface.xhtml#ga5c7a006f5ba5778972ac9516733a0cc4" target="_top" xlink:title="Data Synchronization Barrier. ">
<polygon fill="white" stroke="black" points="139,-38.5 139,-57.5 187,-57.5 187,-38.5 139,-38.5"/>
<text text-anchor="middle" x="163" y="-45.5" font-family="Helvetica,sans-Serif" font-size="10.00">__DSB</text>
</a>
</g>
</g>
<!-- Node28&#45;&gt;Node39 -->
<g id="edge6" class="edge"><title>Node28&#45;&gt;Node39</title>
<path fill="none" stroke="midnightblue" d="M48.3133,-95.4544C61.6873,-87.1328 82.1079,-75.1515 101,-67 109.975,-63.1274 120,-59.6695 129.287,-56.7997"/>
<polygon fill="midnightblue" stroke="midnightblue" points="130.398,-60.1211 138.992,-53.9247 128.41,-53.4094 130.398,-60.1211"/>
</g>
<!-- Node40 -->
<g id="node7" class="node"><title>Node40</title>
<g id="a_node7"><a xlink:href="group___c_m_s_i_s___core___instruction_interface.xhtml#ga8f5af376adcfaea7f2ddb3ef9b6b2544" target="_top" xlink:title="Instruction Synchronization Barrier. ">
<polygon fill="white" stroke="black" points="141.5,-0.5 141.5,-19.5 184.5,-19.5 184.5,-0.5 141.5,-0.5"/>
<text text-anchor="middle" x="163" y="-7.5" font-family="Helvetica,sans-Serif" font-size="10.00">__ISB</text>
</a>
</g>
</g>
<!-- Node28&#45;&gt;Node40 -->
<g id="edge7" class="edge"><title>Node28&#45;&gt;Node40</title>
<path fill="none" stroke="midnightblue" d="M39.5253,-95.3135C50.0377,-79.2008 73.2752,-46.8984 101,-29 110.156,-23.0892 121.269,-18.9169 131.488,-16.0191"/>
<polygon fill="midnightblue" stroke="midnightblue" points="132.471,-19.3806 141.304,-13.5291 130.75,-12.5955 132.471,-19.3806"/>
</g>
<!-- Node29&#45;&gt;Node34 -->
<g id="edge2" class="edge"><title>Node29&#45;&gt;Node34</title>
<path fill="none" stroke="midnightblue" d="M204.56,-195.107C218.616,-193.411 234.814,-191.457 250.589,-189.554"/>
<polygon fill="midnightblue" stroke="midnightblue" points="251.358,-192.987 260.867,-188.314 250.52,-186.037 251.358,-192.987"/>
</g>
</g>
</svg>
