<?xml version="1.0" encoding="UTF-8" standalone="no"?>
<!DOCTYPE svg PUBLIC "-//W3C//DTD SVG 1.1//EN"
 "http://www.w3.org/Graphics/SVG/1.1/DTD/svg11.dtd">
<!-- Generated by graphviz version 2.38.0 (20140413.2041)
 -->
<!-- Title: GMACD_TxErrorHandler Pages: 1 -->
<svg width="466pt" height="161pt"
 viewBox="0.00 0.00 466.00 160.98" xmlns="http://www.w3.org/2000/svg" xmlns:xlink="http://www.w3.org/1999/xlink">
<g id="graph0" class="graph" transform="scale(1 1) rotate(0) translate(4 156.977)">
<title>GMACD_TxErrorHandler</title>
<polygon fill="white" stroke="none" points="-4,4 -4,-156.977 462,-156.977 462,4 -4,4"/>
<!-- Node99 -->
<g id="node1" class="node"><title>Node99</title>
<polygon fill="#bfbfbf" stroke="black" points="0,-76.5 0,-95.5 130,-95.5 130,-76.5 0,-76.5"/>
<text text-anchor="middle" x="65" y="-83.5" font-family="Helvetica,sans-Serif" font-size="10.00">GMACD_TxErrorHandler</text>
</g>
<!-- Node100 -->
<g id="node2" class="node"><title>Node100</title>
<g id="a_node2"><a xlink:href="group__gmac__defines.xhtml#ga43e952eb0a8ec8d8131ac69b6a30842d" target="_top" xlink:title="Enable/Disable GMAC transmit. ">
<polygon fill="white" stroke="black" points="334,-95.5 334,-114.5 458,-114.5 458,-95.5 334,-95.5"/>
<text text-anchor="middle" x="396" y="-102.5" font-family="Helvetica,sans-Serif" font-size="10.00">GMAC_TransmitEnable</text>
</a>
</g>
</g>
<!-- Node99&#45;&gt;Node100 -->
<g id="edge1" class="edge"><title>Node99&#45;&gt;Node100</title>
<path fill="none" stroke="midnightblue" d="M78.0141,-95.6521C95.9168,-109.349 131.23,-133.786 166,-143 222.709,-158.027 240.353,-153.889 298,-143 322.366,-138.398 348.455,-127.826 367.432,-118.999"/>
<polygon fill="midnightblue" stroke="midnightblue" points="369.152,-122.056 376.661,-114.582 366.13,-115.742 369.152,-122.056"/>
</g>
<!-- Node101 -->
<g id="node3" class="node"><title>Node101</title>
<g id="a_node3"><a xlink:href="group__gmac__defines.xhtml#gaec157405c56f5074b5f49268d3148c55" target="_top" xlink:title="Halt transmission. ">
<polygon fill="white" stroke="black" points="166,-114.5 166,-133.5 298,-133.5 298,-114.5 166,-114.5"/>
<text text-anchor="middle" x="232" y="-121.5" font-family="Helvetica,sans-Serif" font-size="10.00">GMAC_TransmissionHalt</text>
</a>
</g>
</g>
<!-- Node99&#45;&gt;Node101 -->
<g id="edge2" class="edge"><title>Node99&#45;&gt;Node101</title>
<path fill="none" stroke="midnightblue" d="M107.636,-95.589C129.508,-100.626 156.506,-106.844 179.664,-112.177"/>
<polygon fill="midnightblue" stroke="midnightblue" points="179.133,-115.646 189.663,-114.48 180.704,-108.825 179.133,-115.646"/>
</g>
<!-- Node102 -->
<g id="node4" class="node"><title>Node102</title>
<g id="a_node4"><a xlink:href="group__gmac__defines.xhtml#gafba1535fac70522c3101326e020ca1d6" target="_top" xlink:title="Return transmit status. ">
<polygon fill="white" stroke="black" points="177,-76.5 177,-95.5 287,-95.5 287,-76.5 177,-76.5"/>
<text text-anchor="middle" x="232" y="-83.5" font-family="Helvetica,sans-Serif" font-size="10.00">GMAC_GetTxStatus</text>
</a>
</g>
</g>
<!-- Node99&#45;&gt;Node102 -->
<g id="edge3" class="edge"><title>Node99&#45;&gt;Node102</title>
<path fill="none" stroke="midnightblue" d="M130.266,-86C142.163,-86 154.594,-86 166.498,-86"/>
<polygon fill="midnightblue" stroke="midnightblue" points="166.798,-89.5001 176.798,-86 166.798,-82.5001 166.798,-89.5001"/>
</g>
<!-- Node103 -->
<g id="node5" class="node"><title>Node103</title>
<g id="a_node5"><a xlink:href="group__gmacd__defines.xhtml#gaa4fcf5f239a30ef23cc9ba6b40054117" target="_top" xlink:title="Disable TX &amp; reset registers and descriptor list. ">
<polygon fill="white" stroke="red" points="184.5,-38.5 184.5,-57.5 279.5,-57.5 279.5,-38.5 184.5,-38.5"/>
<text text-anchor="middle" x="232" y="-45.5" font-family="Helvetica,sans-Serif" font-size="10.00">GMACD_ResetTx</text>
</a>
</g>
</g>
<!-- Node99&#45;&gt;Node103 -->
<g id="edge4" class="edge"><title>Node99&#45;&gt;Node103</title>
<path fill="none" stroke="midnightblue" d="M107.636,-76.411C129.508,-71.3739 156.506,-65.1562 179.664,-59.8229"/>
<polygon fill="midnightblue" stroke="midnightblue" points="180.704,-63.1751 189.663,-57.5201 179.133,-56.3537 180.704,-63.1751"/>
</g>
<!-- Node105 -->
<g id="node6" class="node"><title>Node105</title>
<g id="a_node6"><a xlink:href="group__gmac__defines.xhtml#ga620df07c4598d12a88be4e3715eafe7e" target="_top" xlink:title="Clear transmit status. ">
<polygon fill="white" stroke="black" points="173,-0.5 173,-19.5 291,-19.5 291,-0.5 173,-0.5"/>
<text text-anchor="middle" x="232" y="-7.5" font-family="Helvetica,sans-Serif" font-size="10.00">GMAC_ClearTxStatus</text>
</a>
</g>
</g>
<!-- Node99&#45;&gt;Node105 -->
<g id="edge6" class="edge"><title>Node99&#45;&gt;Node105</title>
<path fill="none" stroke="midnightblue" d="M80.3546,-76.3817C99.2963,-64.0321 133.99,-42.5798 166,-29 171.408,-26.7056 177.182,-24.583 182.972,-22.6526"/>
<polygon fill="midnightblue" stroke="midnightblue" points="184.189,-25.9387 192.67,-19.5888 182.08,-19.2638 184.189,-25.9387"/>
</g>
<!-- Node103&#45;&gt;Node100 -->
<g id="edge5" class="edge"><title>Node103&#45;&gt;Node100</title>
<path fill="none" stroke="midnightblue" d="M267.925,-57.5891C277.712,-60.4438 288.32,-63.6963 298,-67 319.864,-74.4618 344.059,-83.9379 362.815,-91.5604"/>
<polygon fill="midnightblue" stroke="midnightblue" points="361.506,-94.8064 372.087,-95.3571 364.159,-88.3285 361.506,-94.8064"/>
</g>
</g>
</svg>
