<?xml version="1.0" encoding="UTF-8" standalone="no"?>
<!DOCTYPE svg PUBLIC "-//W3C//DTD SVG 1.1//EN"
 "http://www.w3.org/Graphics/SVG/1.1/DTD/svg11.dtd">
<!-- Generated by graphviz version 2.38.0 (20140413.2041)
 -->
<!-- Title: DUALCDCDDriver_Initialize Pages: 1 -->
<svg width="323pt" height="142pt"
 viewBox="0.00 0.00 323.00 142.00" xmlns="http://www.w3.org/2000/svg" xmlns:xlink="http://www.w3.org/1999/xlink">
<g id="graph0" class="graph" transform="scale(1 1) rotate(0) translate(4 138)">
<title>DUALCDCDDriver_Initialize</title>
<polygon fill="white" stroke="none" points="-4,4 -4,-138 319,-138 319,4 -4,4"/>
<!-- Node13 -->
<g id="node1" class="node"><title>Node13</title>
<polygon fill="#bfbfbf" stroke="black" points="0,-57.5 0,-76.5 144,-76.5 144,-57.5 0,-57.5"/>
<text text-anchor="middle" x="72" y="-64.5" font-family="Helvetica,sans-Serif" font-size="10.00">DUALCDCDDriver_Initialize</text>
</g>
<!-- Node14 -->
<g id="node2" class="node"><title>Node14</title>
<g id="a_node2"><a xlink:href="group__usbd__interface.xhtml#ga01ba3ff549b968edc152cdb23c2027d1" target="_top" xlink:title="Return USBDDriver instance pointer for global usage. ">
<polygon fill="white" stroke="black" points="199.5,-114.5 199.5,-133.5 295.5,-133.5 295.5,-114.5 199.5,-114.5"/>
<text text-anchor="middle" x="247.5" y="-121.5" font-family="Helvetica,sans-Serif" font-size="10.00">USBD_GetDriver</text>
</a>
</g>
</g>
<!-- Node13&#45;&gt;Node14 -->
<g id="edge1" class="edge"><title>Node13&#45;&gt;Node14</title>
<path fill="none" stroke="midnightblue" d="M98.3578,-76.5135C119.943,-84.4889 151.838,-95.9859 180,-105 186.997,-107.24 194.448,-109.494 201.737,-111.628"/>
<polygon fill="midnightblue" stroke="midnightblue" points="200.939,-115.041 211.517,-114.451 202.88,-108.315 200.939,-115.041"/>
</g>
<!-- Node15 -->
<g id="node3" class="node"><title>Node15</title>
<g id="a_node3"><a xlink:href="group__usbd__cdc.xhtml#ga38c0b965385d8d07a36e8149a8f446f2" target="_top" xlink:title="Initializes the USB Device CDC serial port function. ">
<polygon fill="white" stroke="red" points="180,-76.5 180,-95.5 315,-95.5 315,-76.5 180,-76.5"/>
<text text-anchor="middle" x="247.5" y="-83.5" font-family="Helvetica,sans-Serif" font-size="10.00">CDCDSerialPort_Initialize</text>
</a>
</g>
</g>
<!-- Node13&#45;&gt;Node15 -->
<g id="edge2" class="edge"><title>Node13&#45;&gt;Node15</title>
<path fill="none" stroke="midnightblue" d="M144.07,-74.7828C152.545,-75.711 161.226,-76.6617 169.776,-77.598"/>
<polygon fill="midnightblue" stroke="midnightblue" points="169.411,-81.0788 179.733,-78.6883 170.173,-74.1204 169.411,-81.0788"/>
</g>
<!-- Node17 -->
<g id="node4" class="node"><title>Node17</title>
<g id="a_node4"><a xlink:href="group__usbd__interface.xhtml#ga11868145aba27b8ca63ab6395439cb0d" target="_top" xlink:title="Initializes a USBDDriver instance with a list of descriptors. ">
<polygon fill="white" stroke="black" points="189,-38.5 189,-57.5 306,-57.5 306,-38.5 189,-38.5"/>
<text text-anchor="middle" x="247.5" y="-45.5" font-family="Helvetica,sans-Serif" font-size="10.00">USBDDriver_Initialize</text>
</a>
</g>
</g>
<!-- Node13&#45;&gt;Node17 -->
<g id="edge3" class="edge"><title>Node13&#45;&gt;Node17</title>
<path fill="none" stroke="midnightblue" d="M144.07,-59.2172C155.462,-57.9696 167.227,-56.6812 178.545,-55.4418"/>
<polygon fill="midnightblue" stroke="midnightblue" points="179.229,-58.8879 188.788,-54.32 178.467,-51.9295 179.229,-58.8879"/>
</g>
<!-- Node18 -->
<g id="node5" class="node"><title>Node18</title>
<g id="a_node5"><a xlink:href="group__usbd__interface.xhtml#ga1fd3982402055e37aa879c199e0b7fee" target="_top" xlink:title="Initializes the USB driver. ">
<polygon fill="white" stroke="red" points="215,-0.5 215,-19.5 280,-19.5 280,-0.5 215,-0.5"/>
<text text-anchor="middle" x="247.5" y="-7.5" font-family="Helvetica,sans-Serif" font-size="10.00">USBD_Init</text>
</a>
</g>
</g>
<!-- Node13&#45;&gt;Node18 -->
<g id="edge4" class="edge"><title>Node13&#45;&gt;Node18</title>
<path fill="none" stroke="midnightblue" d="M98.3578,-57.4865C119.943,-49.5111 151.838,-38.0141 180,-29 188.137,-26.3955 196.888,-23.7709 205.284,-21.3387"/>
<polygon fill="midnightblue" stroke="midnightblue" points="206.265,-24.6985 214.918,-18.5845 204.341,-17.9681 206.265,-24.6985"/>
</g>
</g>
</svg>
