<?xml version="1.0" encoding="UTF-8" standalone="no"?>
<!DOCTYPE svg PUBLIC "-//W3C//DTD SVG 1.1//EN"
 "http://www.w3.org/Graphics/SVG/1.1/DTD/svg11.dtd">
<!-- Generated by graphviz version 2.38.0 (20140413.2041)
 -->
<!-- Title: USBH_HAL_Suspend Pages: 1 -->
<svg width="334pt" height="66pt"
 viewBox="0.00 0.00 334.00 66.00" xmlns="http://www.w3.org/2000/svg" xmlns:xlink="http://www.w3.org/1999/xlink">
<g id="graph0" class="graph" transform="scale(1 1) rotate(0) translate(4 62)">
<title>USBH_HAL_Suspend</title>
<polygon fill="white" stroke="none" points="-4,4 -4,-62 330,-62 330,4 -4,4"/>
<!-- Node949 -->
<g id="node1" class="node"><title>Node949</title>
<polygon fill="#bfbfbf" stroke="black" points="0,-19.5 0,-38.5 117,-38.5 117,-19.5 0,-19.5"/>
<text text-anchor="middle" x="58.5" y="-26.5" font-family="Helvetica,sans-Serif" font-size="10.00">USBH_HAL_Suspend</text>
</g>
<!-- Node950 -->
<g id="node2" class="node"><title>Node950</title>
<g id="a_node2"><a xlink:href="usbhs_8h.xhtml#a0a8e28b882f4abf73c473980d36c7e06" target="_top" xlink:title="Gets USB host interrupt status. ">
<polygon fill="white" stroke="black" points="153,-38.5 153,-57.5 326,-57.5 326,-38.5 153,-38.5"/>
<text text-anchor="middle" x="239.5" y="-45.5" font-family="Helvetica,sans-Serif" font-size="10.00">USBHS_IsHostPipeIntTypeEnable</text>
</a>
</g>
</g>
<!-- Node949&#45;&gt;Node950 -->
<g id="edge1" class="edge"><title>Node949&#45;&gt;Node950</title>
<path fill="none" stroke="midnightblue" d="M117.122,-35.1163C125.439,-35.9991 134.178,-36.9267 142.995,-37.8626"/>
<polygon fill="midnightblue" stroke="midnightblue" points="142.651,-41.3457 152.965,-38.9208 143.39,-34.3848 142.651,-41.3457"/>
</g>
<!-- Node951 -->
<g id="node3" class="node"><title>Node951</title>
<g id="a_node3"><a xlink:href="usbhs_8h.xhtml#acd60bcdb7e5420ac4cfb8b457838f9ba" target="_top" xlink:title="Gets USB host interrupt status. ">
<polygon fill="white" stroke="black" points="157,-0.5 157,-19.5 322,-19.5 322,-0.5 157,-0.5"/>
<text text-anchor="middle" x="239.5" y="-7.5" font-family="Helvetica,sans-Serif" font-size="10.00">USBHS_HostEnablePipeIntType</text>
</a>
</g>
</g>
<!-- Node949&#45;&gt;Node951 -->
<g id="edge2" class="edge"><title>Node949&#45;&gt;Node951</title>
<path fill="none" stroke="midnightblue" d="M117.122,-22.8837C126.627,-21.8748 136.683,-20.8074 146.778,-19.7359"/>
<polygon fill="midnightblue" stroke="midnightblue" points="147.291,-23.2012 156.865,-18.6651 146.552,-16.2403 147.291,-23.2012"/>
</g>
</g>
</svg>
