<?xml version="1.0" encoding="UTF-8" standalone="no"?>
<!DOCTYPE svg PUBLIC "-//W3C//DTD SVG 1.1//EN"
 "http://www.w3.org/Graphics/SVG/1.1/DTD/svg11.dtd">
<!-- Generated by graphviz version 2.38.0 (20140413.2041)
 -->
<!-- Title: HSMCI_DisableIt Pages: 1 -->
<svg width="223pt" height="66pt"
 viewBox="0.00 0.00 223.00 66.00" xmlns="http://www.w3.org/2000/svg" xmlns:xlink="http://www.w3.org/1999/xlink">
<g id="graph0" class="graph" transform="scale(1 1) rotate(0) translate(4 62)">
<title>HSMCI_DisableIt</title>
<polygon fill="white" stroke="none" points="-4,4 -4,-62 219,-62 219,4 -4,4"/>
<!-- Node29 -->
<g id="node1" class="node"><title>Node29</title>
<polygon fill="#bfbfbf" stroke="black" points="0,-19.5 0,-38.5 95,-38.5 95,-19.5 0,-19.5"/>
<text text-anchor="middle" x="47.5" y="-26.5" font-family="Helvetica,sans-Serif" font-size="10.00">HSMCI_DisableIt</text>
</g>
<!-- Node30 -->
<g id="node2" class="node"><title>Node30</title>
<g id="a_node2"><a xlink:href="group__mcid__functions.xhtml#gacddd87e745fbdbff2826b44c188b867f" target="_top" xlink:title="Initialize MCI driver. ">
<polygon fill="white" stroke="black" points="142.5,-38.5 142.5,-57.5 203.5,-57.5 203.5,-38.5 142.5,-38.5"/>
<text text-anchor="middle" x="173" y="-45.5" font-family="Helvetica,sans-Serif" font-size="10.00">MCID_Init</text>
</a>
</g>
</g>
<!-- Node29&#45;&gt;Node30 -->
<g id="edge1" class="edge"><title>Node29&#45;&gt;Node30</title>
<path fill="none" stroke="midnightblue" d="M105.364,-37.7483C118.178,-39.7198 131.275,-41.7347 142.428,-43.4505"/>
<polygon fill="midnightblue" stroke="midnightblue" points="105.606,-34.2444 95.1901,-36.1831 104.542,-41.163 105.606,-34.2444"/>
</g>
<!-- Node31 -->
<g id="node3" class="node"><title>Node31</title>
<g id="a_node3"><a xlink:href="group__mcid__functions.xhtml#ga8b24d6b7cbfd7240dc23dbd4c6759975" target="_top" xlink:title="Process pending events on the given MCI driver. ">
<polygon fill="white" stroke="red" points="131,-0.5 131,-19.5 215,-19.5 215,-0.5 131,-0.5"/>
<text text-anchor="middle" x="173" y="-7.5" font-family="Helvetica,sans-Serif" font-size="10.00">MCID_Handler</text>
</a>
</g>
</g>
<!-- Node29&#45;&gt;Node31 -->
<g id="edge2" class="edge"><title>Node29&#45;&gt;Node31</title>
<path fill="none" stroke="midnightblue" d="M105.246,-20.2699C113.898,-18.9387 122.683,-17.5872 130.914,-16.3209"/>
<polygon fill="midnightblue" stroke="midnightblue" points="104.542,-16.837 95.1901,-21.8169 105.606,-23.7556 104.542,-16.837"/>
</g>
</g>
</svg>
