<?xml version="1.0" encoding="UTF-8" standalone="no"?>
<!DOCTYPE svg PUBLIC "-//W3C//DTD SVG 1.1//EN"
 "http://www.w3.org/Graphics/SVG/1.1/DTD/svg11.dtd">
<!-- Generated by graphviz version 2.38.0 (20140413.2041)
 -->
<!-- Title: SAMS70N19 definitions Pages: 1 -->
<svg width="322pt" height="230pt"
 viewBox="0.00 0.00 322.00 230.00" xmlns="http://www.w3.org/2000/svg" xmlns:xlink="http://www.w3.org/1999/xlink">
<g id="graph0" class="graph" transform="scale(1 1) rotate(0) translate(4 226)">
<title>SAMS70N19 definitions</title>
<polygon fill="white" stroke="none" points="-4,4 -4,-226 318,-226 318,4 -4,4"/>
<!-- Node1 -->
<g id="node1" class="node"><title>Node1</title>
<g id="a_node1"><a xlink:href="group___s_a_m_s70_n19__cmsis.xhtml" target="_top" xlink:title="CMSIS Definitions">
<polygon fill="white" stroke="black" points="188.5,-202.5 188.5,-221.5 289.5,-221.5 289.5,-202.5 188.5,-202.5"/>
<text text-anchor="middle" x="239" y="-209.5" font-family="Helvetica,sans-Serif" font-size="10.00">CMSIS Definitions</text>
</a>
</g>
</g>
<!-- Node6 -->
<g id="node2" class="node"><title>Node6</title>
<g id="a_node2"><a xlink:href="group___s_a_m_s70_n19__pio.xhtml" target="_top" xlink:title="Peripheral Pio Definitions">
<polygon fill="white" stroke="black" points="171.5,-164.5 171.5,-183.5 306.5,-183.5 306.5,-164.5 171.5,-164.5"/>
<text text-anchor="middle" x="239" y="-171.5" font-family="Helvetica,sans-Serif" font-size="10.00">Peripheral Pio Definitions</text>
</a>
</g>
</g>
<!-- Node0 -->
<g id="node3" class="node"><title>Node0</title>
<polygon fill="#bfbfbf" stroke="black" points="0,-98.5 0,-117.5 128,-117.5 128,-98.5 0,-98.5"/>
<text text-anchor="middle" x="64" y="-105.5" font-family="Helvetica,sans-Serif" font-size="10.00">SAMS70N19 definitions</text>
</g>
<!-- Node0&#45;&gt;Node1 -->
<g id="edge1" class="edge"><title>Node0&#45;&gt;Node1</title>
<path fill="none" stroke="black" d="M80.088,-124.992C98.161,-144.302 130.25,-175.412 164,-193 171.528,-196.923 179.917,-200.072 188.266,-202.589"/>
<polygon fill="black" stroke="black" points="82.5722,-122.522 73.2366,-117.512 77.4104,-127.251 82.5722,-122.522"/>
</g>
<!-- Node0&#45;&gt;Node6 -->
<g id="edge6" class="edge"><title>Node0&#45;&gt;Node6</title>
<path fill="none" stroke="black" d="M91.3824,-122.233C110.994,-132.388 138.632,-145.818 164,-155 173.853,-158.566 184.672,-161.741 194.922,-164.426"/>
<polygon fill="black" stroke="black" points="92.9264,-119.091 82.4451,-117.544 89.6741,-125.29 92.9264,-119.091"/>
</g>
<!-- Node5 -->
<g id="node4" class="node"><title>Node5</title>
<g id="a_node4"><a xlink:href="group___s_a_m_s70_n19__base.xhtml" target="_top" xlink:title="Peripheral Base Address\l Definitions">
<polygon fill="white" stroke="black" points="172,-115 172,-145 306,-145 306,-115 172,-115"/>
<text text-anchor="start" x="180" y="-133" font-family="Helvetica,sans-Serif" font-size="10.00">Peripheral Base Address</text>
<text text-anchor="middle" x="239" y="-122" font-family="Helvetica,sans-Serif" font-size="10.00"> Definitions</text>
</a>
</g>
</g>
<!-- Node0&#45;&gt;Node5 -->
<g id="edge5" class="edge"><title>Node0&#45;&gt;Node5</title>
<path fill="none" stroke="black" d="M138.529,-117.351C149.632,-118.762 161.026,-120.211 171.958,-121.602"/>
<polygon fill="black" stroke="black" points="138.798,-113.857 128.436,-116.067 137.915,-120.801 138.798,-113.857"/>
</g>
<!-- Node3 -->
<g id="node5" class="node"><title>Node3</title>
<g id="a_node5"><a xlink:href="group___s_a_m_s70_n19__reg.xhtml" target="_top" xlink:title="Registers Access Definitions">
<polygon fill="white" stroke="black" points="164,-76.5 164,-95.5 314,-95.5 314,-76.5 164,-76.5"/>
<text text-anchor="middle" x="239" y="-83.5" font-family="Helvetica,sans-Serif" font-size="10.00">Registers Access Definitions</text>
</a>
</g>
</g>
<!-- Node0&#45;&gt;Node3 -->
<g id="edge3" class="edge"><title>Node0&#45;&gt;Node3</title>
<path fill="none" stroke="black" d="M138.513,-98.6515C146.859,-97.5902 155.369,-96.508 163.725,-95.4454"/>
<polygon fill="black" stroke="black" points="137.915,-95.1993 128.436,-99.9329 138.798,-102.143 137.915,-95.1993"/>
</g>
<!-- Node2 -->
<g id="node6" class="node"><title>Node2</title>
<g id="a_node6"><a xlink:href="group___s_a_m_s70_n19__api.xhtml" target="_top" xlink:title="SOFTWARE PERIPHERAL API DEFINITION FOR SAMS70N19. ">
<polygon fill="white" stroke="black" points="175,-38.5 175,-57.5 303,-57.5 303,-38.5 175,-38.5"/>
<text text-anchor="middle" x="239" y="-45.5" font-family="Helvetica,sans-Serif" font-size="10.00">Peripheral Software API</text>
</a>
</g>
</g>
<!-- Node0&#45;&gt;Node2 -->
<g id="edge2" class="edge"><title>Node0&#45;&gt;Node2</title>
<path fill="none" stroke="black" d="M94.7763,-94.3742C114.217,-85.8022 140.298,-74.9066 164,-67 174.443,-63.5162 185.894,-60.2942 196.6,-57.5304"/>
<polygon fill="black" stroke="black" points="93.2433,-91.2255 85.5352,-98.4943 96.0938,-97.6189 93.2433,-91.2255"/>
</g>
<!-- Node4 -->
<g id="node7" class="node"><title>Node4</title>
<g id="a_node7"><a xlink:href="group___s_a_m_s70_n19__id.xhtml" target="_top" xlink:title="Peripheral Ids Definitions">
<polygon fill="white" stroke="black" points="172,-0.5 172,-19.5 306,-19.5 306,-0.5 172,-0.5"/>
<text text-anchor="middle" x="239" y="-7.5" font-family="Helvetica,sans-Serif" font-size="10.00">Peripheral Ids Definitions</text>
</a>
</g>
</g>
<!-- Node0&#45;&gt;Node4 -->
<g id="edge4" class="edge"><title>Node0&#45;&gt;Node4</title>
<path fill="none" stroke="black" d="M81.4479,-91.1668C99.9279,-73.2015 131.6,-45.1502 164,-29 171.716,-25.1538 180.285,-22.0359 188.775,-19.5243"/>
<polygon fill="black" stroke="black" points="78.7834,-88.8801 74.1509,-98.4085 83.7143,-93.8487 78.7834,-88.8801"/>
</g>
</g>
</svg>
