<?xml version="1.0" encoding="UTF-8" standalone="no"?>
<!DOCTYPE svg PUBLIC "-//W3C//DTD SVG 1.1//EN"
 "http://www.w3.org/Graphics/SVG/1.1/DTD/svg11.dtd">
<!-- Generated by graphviz version 2.38.0 (20140413.2041)
 -->
<!-- Title: HIDDMouseDriver_RemoteWakeUp Pages: 1 -->
<svg width="387pt" height="78pt"
 viewBox="0.00 0.00 387.00 77.50" xmlns="http://www.w3.org/2000/svg" xmlns:xlink="http://www.w3.org/1999/xlink">
<g id="graph0" class="graph" transform="scale(1 1) rotate(0) translate(4 73.5)">
<title>HIDDMouseDriver_RemoteWakeUp</title>
<polygon fill="white" stroke="none" points="-4,4 -4,-73.5 383,-73.5 383,4 -4,4"/>
<!-- Node53 -->
<g id="node1" class="node"><title>Node53</title>
<polygon fill="#bfbfbf" stroke="black" points="0,-22.5 0,-41.5 182,-41.5 182,-22.5 0,-22.5"/>
<text text-anchor="middle" x="91" y="-29.5" font-family="Helvetica,sans-Serif" font-size="10.00">HIDDMouseDriver_RemoteWakeUp</text>
</g>
<!-- Node54 -->
<g id="node2" class="node"><title>Node54</title>
<g id="a_node2"><a xlink:href="group__usbd__interface.xhtml#ga0907be664b7193af543d1032c6de8606" target="_top" xlink:title="Test if RemoteWakeUP feature is enabled. ">
<polygon fill="white" stroke="black" points="218,-39 218,-69 379,-69 379,-39 218,-39"/>
<text text-anchor="start" x="226" y="-57" font-family="Helvetica,sans-Serif" font-size="10.00">USBDDriver_IsRemoteWakeUp</text>
<text text-anchor="middle" x="298.5" y="-46" font-family="Helvetica,sans-Serif" font-size="10.00">Enabled</text>
</a>
</g>
</g>
<!-- Node53&#45;&gt;Node54 -->
<g id="edge1" class="edge"><title>Node53&#45;&gt;Node54</title>
<path fill="none" stroke="midnightblue" d="M180.94,-41.5216C189.846,-42.475 198.893,-43.4435 207.806,-44.3978"/>
<polygon fill="midnightblue" stroke="midnightblue" points="207.483,-47.8831 217.799,-45.4675 208.228,-40.9229 207.483,-47.8831"/>
</g>
<!-- Node55 -->
<g id="node3" class="node"><title>Node55</title>
<g id="a_node3"><a xlink:href="group__usbd__interface.xhtml#gacfd4fed846cba74af43e668e47b6dc10" target="_top" xlink:title="Starts a remote wake&#45;up procedure. ">
<polygon fill="white" stroke="red" points="236,-0.5 236,-19.5 361,-19.5 361,-0.5 236,-0.5"/>
<text text-anchor="middle" x="298.5" y="-7.5" font-family="Helvetica,sans-Serif" font-size="10.00">USBD_RemoteWakeUp</text>
</a>
</g>
</g>
<!-- Node53&#45;&gt;Node55 -->
<g id="edge2" class="edge"><title>Node53&#45;&gt;Node55</title>
<path fill="none" stroke="midnightblue" d="M180.94,-22.4784C195.866,-20.8805 211.188,-19.2402 225.616,-17.6956"/>
<polygon fill="midnightblue" stroke="midnightblue" points="226.374,-21.1346 235.944,-16.5899 225.629,-14.1743 226.374,-21.1346"/>
</g>
</g>
</svg>
