<?xml version="1.0" encoding="UTF-8" standalone="no"?>
<!DOCTYPE svg PUBLIC "-//W3C//DTD SVG 1.1//EN"
 "http://www.w3.org/Graphics/SVG/1.1/DTD/svg11.dtd">
<!-- Generated by graphviz version 2.38.0 (20140413.2041)
 -->
<!-- Title: GMAC_TransmitEnable Pages: 1 -->
<svg width="429pt" height="75pt"
 viewBox="0.00 0.00 429.00 75.00" xmlns="http://www.w3.org/2000/svg" xmlns:xlink="http://www.w3.org/1999/xlink">
<g id="graph0" class="graph" transform="scale(1 1) rotate(0) translate(4 71)">
<title>GMAC_TransmitEnable</title>
<polygon fill="white" stroke="none" points="-4,4 -4,-71 425,-71 425,4 -4,4"/>
<!-- Node205 -->
<g id="node1" class="node"><title>Node205</title>
<polygon fill="#bfbfbf" stroke="black" points="0,-28.5 0,-47.5 124,-47.5 124,-28.5 0,-28.5"/>
<text text-anchor="middle" x="62" y="-35.5" font-family="Helvetica,sans-Serif" font-size="10.00">GMAC_TransmitEnable</text>
</g>
<!-- Node206 -->
<g id="node2" class="node"><title>Node206</title>
<g id="a_node2"><a xlink:href="group__gmacd__defines.xhtml#gaa4fcf5f239a30ef23cc9ba6b40054117" target="_top" xlink:title="Disable TX &amp; reset registers and descriptor list. ">
<polygon fill="white" stroke="red" points="160,-28.5 160,-47.5 255,-47.5 255,-28.5 160,-28.5"/>
<text text-anchor="middle" x="207.5" y="-35.5" font-family="Helvetica,sans-Serif" font-size="10.00">GMACD_ResetTx</text>
</a>
</g>
</g>
<!-- Node205&#45;&gt;Node206 -->
<g id="edge1" class="edge"><title>Node205&#45;&gt;Node206</title>
<path fill="none" stroke="midnightblue" d="M134.363,-38C142.987,-38 151.618,-38 159.758,-38"/>
<polygon fill="midnightblue" stroke="midnightblue" points="134.273,-34.5001 124.273,-38 134.273,-41.5001 134.273,-34.5001"/>
</g>
<!-- Node207 -->
<g id="node3" class="node"><title>Node207</title>
<g id="a_node3"><a xlink:href="group__gmacd__defines.xhtml#ga1d32bdcf010875dfcaea4817d8086b82" target="_top" xlink:title="Reset TX queue when errors are detected. ">
<polygon fill="white" stroke="red" points="291,-47.5 291,-66.5 421,-66.5 421,-47.5 291,-47.5"/>
<text text-anchor="middle" x="356" y="-54.5" font-family="Helvetica,sans-Serif" font-size="10.00">GMACD_TxErrorHandler</text>
</a>
</g>
</g>
<!-- Node205&#45;&gt;Node207 -->
<g id="edge4" class="edge"><title>Node205&#45;&gt;Node207</title>
<path fill="none" stroke="midnightblue" d="M112.573,-49.6252C127.708,-52.6554 144.457,-55.4921 160,-57 203.468,-61.2171 252.643,-61.1841 290.736,-60.1136"/>
<polygon fill="midnightblue" stroke="midnightblue" points="112.891,-46.1166 102.388,-47.5103 111.468,-52.9704 112.891,-46.1166"/>
</g>
<!-- Node209 -->
<g id="node4" class="node"><title>Node209</title>
<g id="a_node4"><a xlink:href="group__gmacd__defines.xhtml#ga418589cbbef19de6084670d572b6ae27" target="_top" xlink:title="Initialize necessary allocated buffer lists for GMAC Driver to transfer data. ">
<polygon fill="white" stroke="black" points="301,-0.5 301,-19.5 411,-19.5 411,-0.5 301,-0.5"/>
<text text-anchor="middle" x="356" y="-7.5" font-family="Helvetica,sans-Serif" font-size="10.00">GMACD_InitTransfer</text>
</a>
</g>
</g>
<!-- Node205&#45;&gt;Node209 -->
<g id="edge5" class="edge"><title>Node205&#45;&gt;Node209</title>
<path fill="none" stroke="midnightblue" d="M114.658,-26.4178C129.25,-23.5457 145.188,-20.7826 160,-19 207.275,-13.3105 261.394,-11.1552 300.606,-10.3685"/>
<polygon fill="midnightblue" stroke="midnightblue" points="113.909,-22.9984 104.802,-28.4128 115.297,-29.8593 113.909,-22.9984"/>
</g>
<!-- Node206&#45;&gt;Node207 -->
<g id="edge2" class="edge"><title>Node206&#45;&gt;Node207</title>
<path fill="none" stroke="midnightblue" d="M265.272,-45.3629C273.632,-46.4471 282.294,-47.5705 290.79,-48.6725"/>
<polygon fill="midnightblue" stroke="midnightblue" points="265.623,-41.8793 255.256,-44.064 264.723,-48.8211 265.623,-41.8793"/>
</g>
<!-- Node206&#45;&gt;Node209 -->
<g id="edge3" class="edge"><title>Node206&#45;&gt;Node209</title>
<path fill="none" stroke="midnightblue" d="M265.16,-27.1708C278.343,-24.6511 292.283,-21.9868 305.148,-19.5281"/>
<polygon fill="midnightblue" stroke="midnightblue" points="264.421,-23.7485 255.256,-29.0636 265.736,-30.6241 264.421,-23.7485"/>
</g>
</g>
</svg>
