<?xml version="1.0" encoding="UTF-8" standalone="no"?>
<!DOCTYPE svg PUBLIC "-//W3C//DTD SVG 1.1//EN"
 "http://www.w3.org/Graphics/SVG/1.1/DTD/svg11.dtd">
<!-- Generated by graphviz version 2.38.0 (20140413.2041)
 -->
<!-- Title: USBH_suspend Pages: 1 -->
<svg width="257pt" height="66pt"
 viewBox="0.00 0.00 257.00 66.00" xmlns="http://www.w3.org/2000/svg" xmlns:xlink="http://www.w3.org/1999/xlink">
<g id="graph0" class="graph" transform="scale(1 1) rotate(0) translate(4 62)">
<title>USBH_suspend</title>
<polygon fill="white" stroke="none" points="-4,4 -4,-62 253,-62 253,4 -4,4"/>
<!-- Node1675 -->
<g id="node1" class="node"><title>Node1675</title>
<polygon fill="#bfbfbf" stroke="black" points="0,-19.5 0,-38.5 91,-38.5 91,-19.5 0,-19.5"/>
<text text-anchor="middle" x="45.5" y="-26.5" font-family="Helvetica,sans-Serif" font-size="10.00">USBH_suspend</text>
</g>
<!-- Node1676 -->
<g id="node2" class="node"><title>Node1676</title>
<g id="a_node2"><a xlink:href="group___u_s_b_h__group__interne.xhtml#ga0cdbdeca42fcc7e8a21be55261ac0b7c" target="_top" xlink:title="Enables or disables the remote wakeup feature of all devices connected. ">
<polygon fill="white" stroke="red" points="127,-38.5 127,-57.5 249,-57.5 249,-38.5 127,-38.5"/>
<text text-anchor="middle" x="188" y="-45.5" font-family="Helvetica,sans-Serif" font-size="10.00">USBH_remotewakeup</text>
</a>
</g>
</g>
<!-- Node1675&#45;&gt;Node1676 -->
<g id="edge1" class="edge"><title>Node1675&#45;&gt;Node1676</title>
<path fill="none" stroke="midnightblue" d="M91.3414,-35.064C99.4802,-36.1646 108.145,-37.3363 116.808,-38.5079"/>
<polygon fill="midnightblue" stroke="midnightblue" points="116.568,-42.0071 126.946,-39.8789 117.506,-35.0703 116.568,-42.0071"/>
</g>
<!-- Node1685 -->
<g id="node3" class="node"><title>Node1685</title>
<g id="a_node3"><a xlink:href="group__uhd__group.xhtml#ga108d6958efd3c7337897ae40963e3f58" target="_top" xlink:title="Enables the suspend state on the USB line. ">
<polygon fill="white" stroke="red" points="129.5,-0.5 129.5,-19.5 246.5,-19.5 246.5,-0.5 129.5,-0.5"/>
<text text-anchor="middle" x="188" y="-7.5" font-family="Helvetica,sans-Serif" font-size="10.00">USBH_HAL_Suspend</text>
</a>
</g>
</g>
<!-- Node1675&#45;&gt;Node1685 -->
<g id="edge2" class="edge"><title>Node1675&#45;&gt;Node1685</title>
<path fill="none" stroke="midnightblue" d="M91.3414,-22.936C100.342,-21.7189 109.985,-20.4148 119.559,-19.1202"/>
<polygon fill="midnightblue" stroke="midnightblue" points="120.04,-22.5871 129.48,-17.7785 119.101,-15.6502 120.04,-22.5871"/>
</g>
</g>
</svg>
