<?xml version="1.0" encoding="UTF-8" standalone="no"?>
<!DOCTYPE svg PUBLIC "-//W3C//DTD SVG 1.1//EN"
 "http://www.w3.org/Graphics/SVG/1.1/DTD/svg11.dtd">
<!-- Generated by graphviz version 2.38.0 (20140413.2041)
 -->
<!-- Title: udd_attach Pages: 1 -->
<svg width="321pt" height="47pt"
 viewBox="0.00 0.00 321.00 47.00" xmlns="http://www.w3.org/2000/svg" xmlns:xlink="http://www.w3.org/1999/xlink">
<g id="graph0" class="graph" transform="scale(1 1) rotate(0) translate(4 43)">
<title>udd_attach</title>
<polygon fill="white" stroke="none" points="-4,4 -4,-43 317,-43 317,4 -4,4"/>
<!-- Node171 -->
<g id="node1" class="node"><title>Node171</title>
<polygon fill="#bfbfbf" stroke="black" points="0,-19.5 0,-38.5 71,-38.5 71,-19.5 0,-19.5"/>
<text text-anchor="middle" x="35.5" y="-26.5" font-family="Helvetica,sans-Serif" font-size="10.00">udd_attach</text>
</g>
<!-- Node172 -->
<g id="node2" class="node"><title>Node172</title>
<g id="a_node2"><a xlink:href="group__udd__udphs__group.xhtml#gae37fb8512458fac3dc9d11746e99ffb6" target="_top" xlink:title="Authorize or not the CPU powerdown mode. ">
<polygon fill="white" stroke="red" points="107,-19.5 107,-38.5 205,-38.5 205,-19.5 107,-19.5"/>
<text text-anchor="middle" x="156" y="-26.5" font-family="Helvetica,sans-Serif" font-size="10.00">udd_sleep_mode</text>
</a>
</g>
</g>
<!-- Node171&#45;&gt;Node172 -->
<g id="edge1" class="edge"><title>Node171&#45;&gt;Node172</title>
<path fill="none" stroke="midnightblue" d="M81.1182,-22.4364C89.5488,-22.2175 98.401,-22.1914 106.932,-22.358"/>
<polygon fill="midnightblue" stroke="midnightblue" points="80.9606,-18.9397 71.0937,-22.7989 81.2136,-25.9351 80.9606,-18.9397"/>
</g>
<!-- Node174 -->
<g id="node3" class="node"><title>Node174</title>
<g id="a_node3"><a xlink:href="group__udd__udphs__group.xhtml#ga9792d1899ae058e3984d6a622fe2ad42" target="_top" xlink:title="udd_enable">
<polygon fill="white" stroke="black" points="241,-0.5 241,-19.5 313,-19.5 313,-0.5 241,-0.5"/>
<text text-anchor="middle" x="277" y="-7.5" font-family="Helvetica,sans-Serif" font-size="10.00">udd_enable</text>
</a>
</g>
</g>
<!-- Node171&#45;&gt;Node174 -->
<g id="edge4" class="edge"><title>Node171&#45;&gt;Node174</title>
<path fill="none" stroke="midnightblue" d="M74.5926,-16.7735C84.9912,-13.9763 96.3341,-11.4121 107,-10 152.957,-3.9158 206.561,-5.34179 240.867,-7.32517"/>
<polygon fill="midnightblue" stroke="midnightblue" points="73.6349,-13.407 64.965,-19.4967 75.5402,-20.1427 73.6349,-13.407"/>
</g>
<!-- Node172&#45;&gt;Node171 -->
<g id="edge3" class="edge"><title>Node172&#45;&gt;Node171</title>
<path fill="none" stroke="midnightblue" d="M96.7026,-35.7492C87.9383,-35.7635 79.1462,-35.5808 71.0937,-35.2011"/>
<polygon fill="midnightblue" stroke="midnightblue" points="96.9696,-39.2467 106.932,-35.642 96.8961,-32.2471 96.9696,-39.2467"/>
</g>
<!-- Node172&#45;&gt;Node174 -->
<g id="edge2" class="edge"><title>Node172&#45;&gt;Node174</title>
<path fill="none" stroke="midnightblue" d="M215.004,-19.7389C223.866,-18.3239 232.772,-16.9019 240.936,-15.5985"/>
<polygon fill="midnightblue" stroke="midnightblue" points="214.382,-16.2938 205.059,-21.3267 215.486,-23.2062 214.382,-16.2938"/>
</g>
</g>
</svg>
