<?xml version="1.0" encoding="UTF-8" standalone="no"?>
<!DOCTYPE svg PUBLIC "-//W3C//DTD SVG 1.1//EN"
 "http://www.w3.org/Graphics/SVG/1.1/DTD/svg11.dtd">
<!-- Generated by graphviz version 2.38.0 (20140413.2041)
 -->
<!-- Title: XDMAC_DisableChannelIt Pages: 1 -->
<svg width="322pt" height="104pt"
 viewBox="0.00 0.00 322.00 104.00" xmlns="http://www.w3.org/2000/svg" xmlns:xlink="http://www.w3.org/1999/xlink">
<g id="graph0" class="graph" transform="scale(1 1) rotate(0) translate(4 100)">
<title>XDMAC_DisableChannelIt</title>
<polygon fill="white" stroke="none" points="-4,4 -4,-100 318,-100 318,4 -4,4"/>
<!-- Node57 -->
<g id="node1" class="node"><title>Node57</title>
<polygon fill="#bfbfbf" stroke="black" points="0,-38.5 0,-57.5 137,-57.5 137,-38.5 0,-38.5"/>
<text text-anchor="middle" x="68.5" y="-45.5" font-family="Helvetica,sans-Serif" font-size="10.00">XDMAC_DisableChannelIt</text>
</g>
<!-- Node58 -->
<g id="node2" class="node"><title>Node58</title>
<g id="a_node2"><a xlink:href="group__dmad__functions.xhtml#ga2a7947467c04eb39abee2471d846ee35" target="_top" xlink:title="Enable clock of the xDMA peripheral, Enable the dma peripheral, configure configuration register for ...">
<polygon fill="white" stroke="red" points="176.5,-76.5 176.5,-95.5 310.5,-95.5 310.5,-76.5 176.5,-76.5"/>
<text text-anchor="middle" x="243.5" y="-83.5" font-family="Helvetica,sans-Serif" font-size="10.00">XDMAD_PrepareChannel</text>
</a>
</g>
</g>
<!-- Node57&#45;&gt;Node58 -->
<g id="edge1" class="edge"><title>Node57&#45;&gt;Node58</title>
<path fill="none" stroke="midnightblue" d="M123.005,-59.7526C147.467,-65.1258 176.071,-71.4086 199.159,-76.4799"/>
<polygon fill="midnightblue" stroke="midnightblue" points="123.673,-56.316 113.155,-57.589 122.171,-63.153 123.673,-56.316"/>
</g>
<!-- Node98 -->
<g id="node3" class="node"><title>Node98</title>
<g id="a_node3"><a xlink:href="group__dmad__functions.xhtml#ga075cce3b88af1fff5064218720811fc0" target="_top" xlink:title="Configure DMA for a single transfer. ">
<polygon fill="white" stroke="red" points="173,-38.5 173,-57.5 314,-57.5 314,-38.5 173,-38.5"/>
<text text-anchor="middle" x="243.5" y="-45.5" font-family="Helvetica,sans-Serif" font-size="10.00">XDMAD_ConfigureTransfer</text>
</a>
</g>
</g>
<!-- Node57&#45;&gt;Node98 -->
<g id="edge2" class="edge"><title>Node57&#45;&gt;Node98</title>
<path fill="none" stroke="midnightblue" d="M147.571,-48C155.99,-48 164.516,-48 172.827,-48"/>
<polygon fill="midnightblue" stroke="midnightblue" points="147.378,-44.5001 137.378,-48 147.378,-51.5001 147.378,-44.5001"/>
</g>
<!-- Node114 -->
<g id="node4" class="node"><title>Node114</title>
<g id="a_node4"><a xlink:href="group__dmad__functions.xhtml#ga6be5cec75618250adb227d7588ae7078" target="_top" xlink:title="Stop DMA transfer. ">
<polygon fill="white" stroke="red" points="184.5,-0.5 184.5,-19.5 302.5,-19.5 302.5,-0.5 184.5,-0.5"/>
<text text-anchor="middle" x="243.5" y="-7.5" font-family="Helvetica,sans-Serif" font-size="10.00">XDMAD_StopTransfer</text>
</a>
</g>
</g>
<!-- Node57&#45;&gt;Node114 -->
<g id="edge3" class="edge"><title>Node57&#45;&gt;Node114</title>
<path fill="none" stroke="midnightblue" d="M123.005,-36.2474C147.467,-30.8742 176.071,-24.5914 199.159,-19.5201"/>
<polygon fill="midnightblue" stroke="midnightblue" points="122.171,-32.847 113.155,-38.411 123.673,-39.684 122.171,-32.847"/>
</g>
</g>
</svg>
