<?xml version="1.0" encoding="UTF-8" standalone="no"?>
<!DOCTYPE svg PUBLIC "-//W3C//DTD SVG 1.1//EN"
 "http://www.w3.org/Graphics/SVG/1.1/DTD/svg11.dtd">
<!-- Generated by graphviz version 2.38.0 (20140413.2041)
 -->
<!-- Title: HIDDFunction_Initialize Pages: 1 -->
<svg width="314pt" height="116pt"
 viewBox="0.00 0.00 314.00 115.50" xmlns="http://www.w3.org/2000/svg" xmlns:xlink="http://www.w3.org/1999/xlink">
<g id="graph0" class="graph" transform="scale(1 1) rotate(0) translate(4 111.5)">
<title>HIDDFunction_Initialize</title>
<polygon fill="white" stroke="none" points="-4,4 -4,-111.5 310,-111.5 310,4 -4,4"/>
<!-- Node157 -->
<g id="node1" class="node"><title>Node157</title>
<polygon fill="#bfbfbf" stroke="black" points="0,-50 0,-69 125,-69 125,-50 0,-50"/>
<text text-anchor="middle" x="62.5" y="-57" font-family="Helvetica,sans-Serif" font-size="10.00">HIDDFunction_Initialize</text>
</g>
<!-- Node158 -->
<g id="node2" class="node"><title>Node158</title>
<g id="a_node2"><a xlink:href="group__usbd__hid__key.xhtml#ga56ad6774014b879f9a4828e528508cbf" target="_top" xlink:title="Initializes the HID keyboard device driver SW. ">
<polygon fill="white" stroke="red" points="169,-88 169,-107 298,-107 298,-88 169,-88"/>
<text text-anchor="middle" x="233.5" y="-95" font-family="Helvetica,sans-Serif" font-size="10.00">HIDDKeyboard_Initialize</text>
</a>
</g>
</g>
<!-- Node157&#45;&gt;Node158 -->
<g id="edge1" class="edge"><title>Node157&#45;&gt;Node158</title>
<path fill="none" stroke="midnightblue" d="M116.087,-71.3243C139.913,-76.6816 167.707,-82.9311 190.161,-87.9799"/>
<polygon fill="midnightblue" stroke="midnightblue" points="116.67,-67.8681 106.146,-69.089 115.134,-74.6976 116.67,-67.8681"/>
</g>
<!-- Node163 -->
<g id="node3" class="node"><title>Node163</title>
<g id="a_node3"><a xlink:href="group__usbd__hid__mouse.xhtml#gaa4210c7f880e7b9d4e52082dffbf09b1" target="_top" xlink:title="Initializes the HID Mouse device driver. ">
<polygon fill="white" stroke="black" points="161,-50 161,-69 306,-69 306,-50 161,-50"/>
<text text-anchor="middle" x="233.5" y="-57" font-family="Helvetica,sans-Serif" font-size="10.00">HIDDMouseDriver_Initialize</text>
</a>
</g>
</g>
<!-- Node157&#45;&gt;Node163 -->
<g id="edge2" class="edge"><title>Node157&#45;&gt;Node163</title>
<path fill="none" stroke="midnightblue" d="M135.564,-59.5C143.925,-59.5 152.453,-59.5 160.81,-59.5"/>
<polygon fill="midnightblue" stroke="midnightblue" points="135.47,-56.0001 125.47,-59.5 135.47,-63.0001 135.47,-56.0001"/>
</g>
<!-- Node164 -->
<g id="node4" class="node"><title>Node164</title>
<g id="a_node4"><a xlink:href="group__usbd__hid__tran.xhtml#gac936a4a8ed832ccd0dbfc4f752b3eb71" target="_top" xlink:title="Initializes the HID Transfer device driver. ">
<polygon fill="white" stroke="black" points="180,-0.5 180,-30.5 287,-30.5 287,-0.5 180,-0.5"/>
<text text-anchor="start" x="188" y="-18.5" font-family="Helvetica,sans-Serif" font-size="10.00">HIDDTransferDriver</text>
<text text-anchor="middle" x="233.5" y="-7.5" font-family="Helvetica,sans-Serif" font-size="10.00">_Initialize</text>
</a>
</g>
</g>
<!-- Node157&#45;&gt;Node164 -->
<g id="edge3" class="edge"><title>Node157&#45;&gt;Node164</title>
<path fill="none" stroke="midnightblue" d="M110.102,-47.367C131.731,-41.7358 157.538,-35.0167 179.867,-29.2033"/>
<polygon fill="midnightblue" stroke="midnightblue" points="108.966,-44.0459 100.17,-49.9527 110.73,-50.8201 108.966,-44.0459"/>
</g>
</g>
</svg>
