<?xml version="1.0" encoding="UTF-8" standalone="no"?>
<!DOCTYPE svg PUBLIC "-//W3C//DTD SVG 1.1//EN"
 "http://www.w3.org/Graphics/SVG/1.1/DTD/svg11.dtd">
<!-- Generated by graphviz version 2.38.0 (20140413.2041)
 -->
<!-- Title: __disable_irq Pages: 1 -->
<svg width="384pt" height="80pt"
 viewBox="0.00 0.00 384.00 79.57" xmlns="http://www.w3.org/2000/svg" xmlns:xlink="http://www.w3.org/1999/xlink">
<g id="graph0" class="graph" transform="scale(1 1) rotate(0) translate(4 75.5692)">
<title>__disable_irq</title>
<polygon fill="white" stroke="none" points="-4,4 -4,-75.5692 380,-75.5692 380,4 -4,4"/>
<!-- Node12 -->
<g id="node1" class="node"><title>Node12</title>
<polygon fill="#bfbfbf" stroke="black" points="0,-14.0692 0,-33.0692 78,-33.0692 78,-14.0692 0,-14.0692"/>
<text text-anchor="middle" x="39" y="-21.0692" font-family="Helvetica,sans-Serif" font-size="10.00">__disable_irq</text>
</g>
<!-- Node13 -->
<g id="node2" class="node"><title>Node13</title>
<g id="a_node2"><a xlink:href="mpu_8c.xhtml#aaa88b8f32a6a4c83d2ddc9a287d82ef2" target="_top" xlink:title="Update MPU regions. ">
<polygon fill="white" stroke="black" points="114,-52.0692 114,-71.0692 230,-71.0692 230,-52.0692 114,-52.0692"/>
<text text-anchor="middle" x="172" y="-59.0692" font-family="Helvetica,sans-Serif" font-size="10.00">MPU_UpdateRegions</text>
</a>
</g>
</g>
<!-- Node12&#45;&gt;Node13 -->
<g id="edge1" class="edge"><title>Node12&#45;&gt;Node13</title>
<path fill="none" stroke="midnightblue" d="M82.7148,-35.9598C100.655,-41.1637 121.2,-47.1233 137.954,-51.9833"/>
<polygon fill="midnightblue" stroke="midnightblue" points="83.636,-32.5828 73.0568,-33.1582 81.6858,-39.3056 83.636,-32.5828"/>
</g>
<!-- Node14 -->
<g id="node3" class="node"><title>Node14</title>
<g id="a_node3"><a xlink:href="group__usbd__cdc.xhtml#gab841b1a9dc617afc102ab5badd8ee656" target="_top" xlink:title="_UsbDataSent">
<polygon fill="white" stroke="black" points="129,-14.0692 129,-33.0692 215,-33.0692 215,-14.0692 129,-14.0692"/>
<text text-anchor="middle" x="172" y="-21.0692" font-family="Helvetica,sans-Serif" font-size="10.00">_UsbDataSent</text>
</a>
</g>
</g>
<!-- Node12&#45;&gt;Node14 -->
<g id="edge2" class="edge"><title>Node12&#45;&gt;Node14</title>
<path fill="none" stroke="midnightblue" d="M88.5801,-23.5692C101.789,-23.5692 115.984,-23.5692 128.809,-23.5692"/>
<polygon fill="midnightblue" stroke="midnightblue" points="88.2428,-20.0693 78.2428,-23.5692 88.2427,-27.0693 88.2428,-20.0693"/>
</g>
<!-- Node15 -->
<g id="node4" class="node"><title>Node15</title>
<g id="a_node4"><a xlink:href="group__usbd__cdc.xhtml#gadfeadaa787932fc6f8ef50a53fdb2ed0" target="_top" xlink:title="_FlushUsbTxBuffers">
<polygon fill="white" stroke="red" points="266,-14.0692 266,-33.0692 376,-33.0692 376,-14.0692 266,-14.0692"/>
<text text-anchor="middle" x="321" y="-21.0692" font-family="Helvetica,sans-Serif" font-size="10.00">_FlushUsbTxBuffers</text>
</a>
</g>
</g>
<!-- Node12&#45;&gt;Node15 -->
<g id="edge5" class="edge"><title>Node12&#45;&gt;Node15</title>
<path fill="none" stroke="midnightblue" d="M79.6819,-11.4278C90.6885,-8.59704 102.716,-5.99473 114,-4.56921 165.149,1.89243 178.723,0.784351 230,-4.56921 247.789,-6.42647 267.239,-10.2953 283.492,-14.0602"/>
<polygon fill="midnightblue" stroke="midnightblue" points="78.654,-8.07994 69.9113,-14.0646 80.4779,-14.8382 78.654,-8.07994"/>
</g>
<!-- Node14&#45;&gt;Node15 -->
<g id="edge3" class="edge"><title>Node14&#45;&gt;Node15</title>
<path fill="none" stroke="midnightblue" d="M225.392,-17.073C238.5,-16.7496 252.588,-16.7353 265.783,-17.0301"/>
<polygon fill="midnightblue" stroke="midnightblue" points="225.008,-13.5833 215.124,-17.3986 225.23,-20.5797 225.008,-13.5833"/>
</g>
<!-- Node15&#45;&gt;Node14 -->
<g id="edge4" class="edge"><title>Node15&#45;&gt;Node14</title>
<path fill="none" stroke="midnightblue" d="M255.447,-30.2746C241.783,-30.4115 227.699,-30.2333 215.124,-29.7398"/>
<polygon fill="midnightblue" stroke="midnightblue" points="255.841,-33.7688 265.783,-30.1084 255.728,-26.7697 255.841,-33.7688"/>
</g>
</g>
</svg>
