<?xml version="1.0" encoding="UTF-8" standalone="no"?>
<!DOCTYPE svg PUBLIC "-//W3C//DTD SVG 1.1//EN"
 "http://www.w3.org/Graphics/SVG/1.1/DTD/svg11.dtd">
<!-- Generated by graphviz version 2.38.0 (20140413.2041)
 -->
<!-- Title: SAME70J21 definitions Pages: 1 -->
<svg width="316pt" height="230pt"
 viewBox="0.00 0.00 316.00 230.00" xmlns="http://www.w3.org/2000/svg" xmlns:xlink="http://www.w3.org/1999/xlink">
<g id="graph0" class="graph" transform="scale(1 1) rotate(0) translate(4 226)">
<title>SAME70J21 definitions</title>
<polygon fill="white" stroke="none" points="-4,4 -4,-226 312,-226 312,4 -4,4"/>
<!-- Node6 -->
<g id="node1" class="node"><title>Node6</title>
<g id="a_node1"><a xlink:href="group___s_a_m_e70_j21__pio.xhtml" target="_top" xlink:title="Peripheral Pio Definitions">
<polygon fill="white" stroke="black" points="165.5,-202.5 165.5,-221.5 300.5,-221.5 300.5,-202.5 165.5,-202.5"/>
<text text-anchor="middle" x="233" y="-209.5" font-family="Helvetica,sans-Serif" font-size="10.00">Peripheral Pio Definitions</text>
</a>
</g>
</g>
<!-- Node0 -->
<g id="node2" class="node"><title>Node0</title>
<polygon fill="#bfbfbf" stroke="black" points="0,-95.5 0,-114.5 122,-114.5 122,-95.5 0,-95.5"/>
<text text-anchor="middle" x="61" y="-102.5" font-family="Helvetica,sans-Serif" font-size="10.00">SAME70J21 definitions</text>
</g>
<!-- Node0&#45;&gt;Node6 -->
<g id="edge6" class="edge"><title>Node0&#45;&gt;Node6</title>
<path fill="none" stroke="black" d="M76.1249,-122.319C93.3753,-142.323 124.431,-174.807 158,-193 165.114,-196.855 173.039,-199.952 180.985,-202.433"/>
<polygon fill="black" stroke="black" points="78.7305,-119.979 69.61,-114.588 73.3776,-124.49 78.7305,-119.979"/>
</g>
<!-- Node5 -->
<g id="node3" class="node"><title>Node5</title>
<g id="a_node3"><a xlink:href="group___s_a_m_e70_j21__base.xhtml" target="_top" xlink:title="Peripheral Base Address\l Definitions">
<polygon fill="white" stroke="black" points="166,-153 166,-183 300,-183 300,-153 166,-153"/>
<text text-anchor="start" x="174" y="-171" font-family="Helvetica,sans-Serif" font-size="10.00">Peripheral Base Address</text>
<text text-anchor="middle" x="233" y="-160" font-family="Helvetica,sans-Serif" font-size="10.00"> Definitions</text>
</a>
</g>
</g>
<!-- Node0&#45;&gt;Node5 -->
<g id="edge5" class="edge"><title>Node0&#45;&gt;Node5</title>
<path fill="none" stroke="black" d="M94.5876,-118.378C113.095,-125.855 136.744,-135.208 158,-143 167.04,-146.314 176.757,-149.712 186.081,-152.894"/>
<polygon fill="black" stroke="black" points="95.7333,-115.066 85.1511,-114.549 93.1009,-121.552 95.7333,-115.066"/>
</g>
<!-- Node2 -->
<g id="node4" class="node"><title>Node2</title>
<g id="a_node4"><a xlink:href="group___s_a_m_e70_j21__api.xhtml" target="_top" xlink:title="SOFTWARE PERIPHERAL API DEFINITION FOR SAME70J21. ">
<polygon fill="white" stroke="black" points="169,-114.5 169,-133.5 297,-133.5 297,-114.5 169,-114.5"/>
<text text-anchor="middle" x="233" y="-121.5" font-family="Helvetica,sans-Serif" font-size="10.00">Peripheral Software API</text>
</a>
</g>
</g>
<!-- Node0&#45;&gt;Node2 -->
<g id="edge2" class="edge"><title>Node0&#45;&gt;Node2</title>
<path fill="none" stroke="black" d="M132.45,-112.874C144.536,-114.225 157.027,-115.621 168.906,-116.948"/>
<polygon fill="black" stroke="black" points="132.741,-109.385 122.414,-111.752 131.964,-116.341 132.741,-109.385"/>
</g>
<!-- Node3 -->
<g id="node5" class="node"><title>Node3</title>
<g id="a_node5"><a xlink:href="group___s_a_m_e70_j21__reg.xhtml" target="_top" xlink:title="Registers Access Definitions">
<polygon fill="white" stroke="black" points="158,-76.5 158,-95.5 308,-95.5 308,-76.5 158,-76.5"/>
<text text-anchor="middle" x="233" y="-83.5" font-family="Helvetica,sans-Serif" font-size="10.00">Registers Access Definitions</text>
</a>
</g>
</g>
<!-- Node0&#45;&gt;Node3 -->
<g id="edge3" class="edge"><title>Node0&#45;&gt;Node3</title>
<path fill="none" stroke="black" d="M132.486,-97.1221C140.84,-96.1884 149.387,-95.2332 157.791,-94.2939"/>
<polygon fill="black" stroke="black" points="131.964,-93.6587 122.414,-98.2478 132.741,-100.615 131.964,-93.6587"/>
</g>
<!-- Node4 -->
<g id="node6" class="node"><title>Node4</title>
<g id="a_node6"><a xlink:href="group___s_a_m_e70_j21__id.xhtml" target="_top" xlink:title="Peripheral Ids Definitions">
<polygon fill="white" stroke="black" points="166,-38.5 166,-57.5 300,-57.5 300,-38.5 166,-38.5"/>
<text text-anchor="middle" x="233" y="-45.5" font-family="Helvetica,sans-Serif" font-size="10.00">Peripheral Ids Definitions</text>
</a>
</g>
</g>
<!-- Node0&#45;&gt;Node4 -->
<g id="edge4" class="edge"><title>Node0&#45;&gt;Node4</title>
<path fill="none" stroke="black" d="M93.2681,-91.4694C111.862,-83.7145 136.035,-74.1359 158,-67 168.597,-63.5575 180.206,-60.3284 191.024,-57.5434"/>
<polygon fill="black" stroke="black" points="91.6833,-88.3392 83.8284,-95.4492 94.4027,-94.7894 91.6833,-88.3392"/>
</g>
<!-- Node1 -->
<g id="node7" class="node"><title>Node1</title>
<g id="a_node7"><a xlink:href="group___s_a_m_e70_j21__cmsis.xhtml" target="_top" xlink:title="CMSIS Definitions">
<polygon fill="white" stroke="black" points="182.5,-0.5 182.5,-19.5 283.5,-19.5 283.5,-0.5 182.5,-0.5"/>
<text text-anchor="middle" x="233" y="-7.5" font-family="Helvetica,sans-Serif" font-size="10.00">CMSIS Definitions</text>
</a>
</g>
</g>
<!-- Node0&#45;&gt;Node1 -->
<g id="edge1" class="edge"><title>Node0&#45;&gt;Node1</title>
<path fill="none" stroke="black" d="M78.7919,-88.0268C96.8401,-70.7259 127.119,-44.3185 158,-29 165.724,-25.1687 174.296,-22.0581 182.787,-19.5492"/>
<polygon fill="black" stroke="black" points="76.0985,-85.7656 71.4019,-95.2626 80.9958,-90.7673 76.0985,-85.7656"/>
</g>
</g>
</svg>
