<?xml version="1.0" encoding="UTF-8" standalone="no"?>
<!DOCTYPE svg PUBLIC "-//W3C//DTD SVG 1.1//EN"
 "http://www.w3.org/Graphics/SVG/1.1/DTD/svg11.dtd">
<!-- Generated by graphviz version 2.38.0 (20140413.2041)
 -->
<!-- Title: CDCDSerialPort_ParseInterfaces Pages: 1 -->
<svg width="384pt" height="78pt"
 viewBox="0.00 0.00 384.00 77.50" xmlns="http://www.w3.org/2000/svg" xmlns:xlink="http://www.w3.org/1999/xlink">
<g id="graph0" class="graph" transform="scale(1 1) rotate(0) translate(4 73.5)">
<title>CDCDSerialPort_ParseInterfaces</title>
<polygon fill="white" stroke="none" points="-4,4 -4,-73.5 380,-73.5 380,4 -4,4"/>
<!-- Node1344 -->
<g id="node1" class="node"><title>Node1344</title>
<polygon fill="#bfbfbf" stroke="black" points="0,-28 0,-47 170,-47 170,-28 0,-28"/>
<text text-anchor="middle" x="85" y="-35" font-family="Helvetica,sans-Serif" font-size="10.00">CDCDSerialPort_ParseInterfaces</text>
</g>
<!-- Node1345 -->
<g id="node2" class="node"><title>Node1345</title>
<g id="a_node2"><a xlink:href="group__usbd__cdc.xhtml#ga2f46147999cac65dacbef7b85dc70dd1" target="_top" xlink:title="Invoked whenever the device is changed by the host. ">
<polygon fill="white" stroke="red" points="209.5,-50 209.5,-69 372.5,-69 372.5,-50 209.5,-50"/>
<text text-anchor="middle" x="291" y="-57" font-family="Helvetica,sans-Serif" font-size="10.00">CDCDSerial_ConfigureFunction</text>
</a>
</g>
</g>
<!-- Node1344&#45;&gt;Node1345 -->
<g id="edge1" class="edge"><title>Node1344&#45;&gt;Node1345</title>
<path fill="none" stroke="midnightblue" d="M180.233,-47.6624C189.954,-48.7107 199.769,-49.7692 209.323,-50.7996"/>
<polygon fill="midnightblue" stroke="midnightblue" points="180.47,-44.1677 170.152,-46.5753 179.719,-51.1274 180.47,-44.1677"/>
</g>
<!-- Node1351 -->
<g id="node3" class="node"><title>Node1351</title>
<g id="a_node3"><a xlink:href="group__usbd__composite__cdccdc.xhtml#ga83d64409b071a9a4a6f316c08731b8c4" target="_top" xlink:title="Invoked whenever the active configuration of device is changed by the host. ">
<polygon fill="white" stroke="black" points="206,-0.5 206,-30.5 376,-30.5 376,-0.5 206,-0.5"/>
<text text-anchor="start" x="214" y="-18.5" font-family="Helvetica,sans-Serif" font-size="10.00">DUALCDCDDriver_Configuration</text>
<text text-anchor="middle" x="291" y="-7.5" font-family="Helvetica,sans-Serif" font-size="10.00">ChangeHandler</text>
</a>
</g>
</g>
<!-- Node1344&#45;&gt;Node1351 -->
<g id="edge2" class="edge"><title>Node1344&#45;&gt;Node1351</title>
<path fill="none" stroke="midnightblue" d="M180.124,-27.3494C188.66,-26.4289 197.269,-25.5004 205.712,-24.5899"/>
<polygon fill="midnightblue" stroke="midnightblue" points="179.719,-23.8726 170.152,-28.4247 180.47,-30.8323 179.719,-23.8726"/>
</g>
</g>
</svg>
