<?xml version="1.0" encoding="UTF-8" standalone="no"?>
<!DOCTYPE svg PUBLIC "-//W3C//DTD SVG 1.1//EN"
 "http://www.w3.org/Graphics/SVG/1.1/DTD/svg11.dtd">
<!-- Generated by graphviz version 2.38.0 (20140413.2041)
 -->
<!-- Title: GMAC_ClearRxStatus Pages: 1 -->
<svg width="259pt" height="66pt"
 viewBox="0.00 0.00 259.00 66.00" xmlns="http://www.w3.org/2000/svg" xmlns:xlink="http://www.w3.org/1999/xlink">
<g id="graph0" class="graph" transform="scale(1 1) rotate(0) translate(4 62)">
<title>GMAC_ClearRxStatus</title>
<polygon fill="white" stroke="none" points="-4,4 -4,-62 255,-62 255,4 -4,4"/>
<!-- Node1 -->
<g id="node1" class="node"><title>Node1</title>
<polygon fill="#bfbfbf" stroke="black" points="0,-19.5 0,-38.5 119,-38.5 119,-19.5 0,-19.5"/>
<text text-anchor="middle" x="59.5" y="-26.5" font-family="Helvetica,sans-Serif" font-size="10.00">GMAC_ClearRxStatus</text>
</g>
<!-- Node2 -->
<g id="node2" class="node"><title>Node2</title>
<g id="a_node2"><a xlink:href="group__gmacd__defines.xhtml#ga782194c9b7163c22016beabc6101856c" target="_top" xlink:title="GMAC Interrupt handler. ">
<polygon fill="white" stroke="black" points="155,-38.5 155,-57.5 251,-57.5 251,-38.5 155,-38.5"/>
<text text-anchor="middle" x="203" y="-45.5" font-family="Helvetica,sans-Serif" font-size="10.00">GMACD_Handler</text>
</a>
</g>
</g>
<!-- Node1&#45;&gt;Node2 -->
<g id="edge1" class="edge"><title>Node1&#45;&gt;Node2</title>
<path fill="none" stroke="midnightblue" d="M129.353,-38.2452C137.974,-39.4029 146.634,-40.5657 154.818,-41.6646"/>
<polygon fill="midnightblue" stroke="midnightblue" points="129.656,-34.7547 119.279,-36.8926 128.725,-41.6924 129.656,-34.7547"/>
</g>
<!-- Node3 -->
<g id="node3" class="node"><title>Node3</title>
<g id="a_node3"><a xlink:href="group__gmacd__defines.xhtml#ga8706caf686e1d073851111db1ba2663c" target="_top" xlink:title="Initialize the GMAC with the Gmac controller address. ">
<polygon fill="white" stroke="black" points="166.5,-0.5 166.5,-19.5 239.5,-19.5 239.5,-0.5 166.5,-0.5"/>
<text text-anchor="middle" x="203" y="-7.5" font-family="Helvetica,sans-Serif" font-size="10.00">GMACD_Init</text>
</a>
</g>
</g>
<!-- Node1&#45;&gt;Node3 -->
<g id="edge2" class="edge"><title>Node1&#45;&gt;Node3</title>
<path fill="none" stroke="midnightblue" d="M129.45,-19.7417C142.192,-18.0308 155.012,-16.3094 166.255,-14.7997"/>
<polygon fill="midnightblue" stroke="midnightblue" points="128.725,-16.3076 119.279,-21.1074 129.656,-23.2453 128.725,-16.3076"/>
</g>
</g>
</svg>
