<?xml version="1.0" encoding="UTF-8" standalone="no"?>
<!DOCTYPE svg PUBLIC "-//W3C//DTD SVG 1.1//EN"
 "http://www.w3.org/Graphics/SVG/1.1/DTD/svg11.dtd">
<!-- Generated by graphviz version 2.38.0 (20140413.2041)
 -->
<!-- Title: Image Sensor Interface Pages: 1 -->
<svg width="310pt" height="66pt"
 viewBox="0.00 0.00 310.00 66.00" xmlns="http://www.w3.org/2000/svg" xmlns:xlink="http://www.w3.org/1999/xlink">
<g id="graph0" class="graph" transform="scale(1 1) rotate(0) translate(4 62)">
<title>Image Sensor Interface</title>
<polygon fill="white" stroke="none" points="-4,4 -4,-62 306,-62 306,4 -4,4"/>
<!-- Node0 -->
<g id="node1" class="node"><title>Node0</title>
<polygon fill="#bfbfbf" stroke="black" points="0,-19.5 0,-38.5 128,-38.5 128,-19.5 0,-19.5"/>
<text text-anchor="middle" x="64" y="-26.5" font-family="Helvetica,sans-Serif" font-size="10.00">Image Sensor Interface</text>
</g>
<!-- Node2 -->
<g id="node2" class="node"><title>Node2</title>
<g id="a_node2"><a xlink:href="group___s_a_m_v71___i_s_i.xhtml" target="_top" xlink:title="SOFTWARE API DEFINITION FOR Image Sensor Interface. ">
<polygon fill="white" stroke="black" points="174,-38.5 174,-57.5 302,-57.5 302,-38.5 174,-38.5"/>
<text text-anchor="middle" x="238" y="-45.5" font-family="Helvetica,sans-Serif" font-size="10.00">Image Sensor Interface</text>
</a>
</g>
</g>
<!-- Node0&#45;&gt;Node2 -->
<g id="edge2" class="edge"><title>Node0&#45;&gt;Node2</title>
<path fill="none" stroke="orange" stroke-dasharray="5,2" d="M128.07,-35.967C143.027,-37.6192 158.981,-39.3817 173.938,-41.0338"/>
<text text-anchor="middle" x="151" y="-41" font-family="Helvetica,sans-Serif" font-size="10.00">Isi</text>
</g>
<!-- Node1 -->
<g id="node3" class="node"><title>Node1</title>
<g id="a_node3"><a xlink:href="group___s_a_m_s70___i_s_i.xhtml" target="_top" xlink:title="SOFTWARE API DEFINITION FOR Image Sensor Interface. ">
<polygon fill="white" stroke="black" points="174,-0.5 174,-19.5 302,-19.5 302,-0.5 174,-0.5"/>
<text text-anchor="middle" x="238" y="-7.5" font-family="Helvetica,sans-Serif" font-size="10.00">Image Sensor Interface</text>
</a>
</g>
</g>
<!-- Node0&#45;&gt;Node1 -->
<g id="edge1" class="edge"><title>Node0&#45;&gt;Node1</title>
<path fill="none" stroke="orange" stroke-dasharray="5,2" d="M114.56,-19.4953C124.917,-17.7732 135.79,-16.1588 146,-15 154.961,-13.9829 164.443,-13.1708 173.77,-12.5229"/>
<text text-anchor="middle" x="151" y="-18" font-family="Helvetica,sans-Serif" font-size="10.00">Isi</text>
</g>
</g>
</svg>
