<?xml version="1.0" encoding="UTF-8" standalone="no"?>
<!DOCTYPE svg PUBLIC "-//W3C//DTD SVG 1.1//EN"
 "http://www.w3.org/Graphics/SVG/1.1/DTD/svg11.dtd">
<!-- Generated by graphviz version 2.38.0 (20140413.2041)
 -->
<!-- Title: __ISB Pages: 1 -->
<svg width="380pt" height="862pt"
 viewBox="0.00 0.00 380.00 862.00" xmlns="http://www.w3.org/2000/svg" xmlns:xlink="http://www.w3.org/1999/xlink">
<g id="graph0" class="graph" transform="scale(1 1) rotate(0) translate(4 858)">
<title>__ISB</title>
<polygon fill="white" stroke="none" points="-4,4 -4,-858 376,-858 376,4 -4,4"/>
<!-- Node248 -->
<g id="node1" class="node"><title>Node248</title>
<polygon fill="#bfbfbf" stroke="black" points="0,-426.5 0,-445.5 43,-445.5 43,-426.5 0,-426.5"/>
<text text-anchor="middle" x="21.5" y="-433.5" font-family="Helvetica,sans-Serif" font-size="10.00">__ISB</text>
</g>
<!-- Node249 -->
<g id="node2" class="node"><title>Node249</title>
<g id="a_node2"><a xlink:href="startup__sams70_8c.xhtml#a7cecd108fd88dec10ce2e97ad905e4ef" target="_top" xlink:title="Performs the low&#45;level initialization of the chip. ">
<polygon fill="white" stroke="red" points="118,-834.5 118,-853.5 192,-853.5 192,-834.5 118,-834.5"/>
<text text-anchor="middle" x="155" y="-841.5" font-family="Helvetica,sans-Serif" font-size="10.00">LowLevelInit</text>
</a>
</g>
</g>
<!-- Node248&#45;&gt;Node249 -->
<g id="edge1" class="edge"><title>Node248&#45;&gt;Node249</title>
<path fill="none" stroke="midnightblue" d="M22.5792,-456.109C23.2784,-527.852 29.3409,-769.895 79,-825 88.8014,-835.876 103.853,-840.935 117.907,-843.159"/>
<polygon fill="midnightblue" stroke="midnightblue" points="26.0768,-455.747 22.5057,-445.772 19.077,-455.797 26.0768,-455.747"/>
</g>
<!-- Node251 -->
<g id="node3" class="node"><title>Node251</title>
<g id="a_node3"><a xlink:href="startup__same70_8c.xhtml#a11967f52e54564f4e39b12755f00d2fd" target="_top" xlink:title="TCM memory Disable. ">
<polygon fill="white" stroke="red" points="116.5,-796.5 116.5,-815.5 193.5,-815.5 193.5,-796.5 116.5,-796.5"/>
<text text-anchor="middle" x="155" y="-803.5" font-family="Helvetica,sans-Serif" font-size="10.00">TCM_Disable</text>
</a>
</g>
</g>
<!-- Node248&#45;&gt;Node251 -->
<g id="edge2" class="edge"><title>Node248&#45;&gt;Node251</title>
<path fill="none" stroke="midnightblue" d="M22.9228,-455.862C24.7536,-522.688 34.0937,-737.932 79,-787 88.5219,-797.404 102.85,-802.47 116.44,-804.826"/>
<polygon fill="midnightblue" stroke="midnightblue" points="26.4206,-455.726 22.675,-445.816 19.4227,-455.899 26.4206,-455.726"/>
</g>
<!-- Node253 -->
<g id="node4" class="node"><title>Node253</title>
<g id="a_node4"><a xlink:href="group___c_m_s_i_s___core___cache_functions.xhtml#gaf9e7c6c8e16ada1f95e5bf5a03505b68" target="_top" xlink:title="Enable I&#45;Cache. ">
<polygon fill="white" stroke="red" points="101.5,-758.5 101.5,-777.5 208.5,-777.5 208.5,-758.5 101.5,-758.5"/>
<text text-anchor="middle" x="155" y="-765.5" font-family="Helvetica,sans-Serif" font-size="10.00">SCB_EnableICache</text>
</a>
</g>
</g>
<!-- Node248&#45;&gt;Node253 -->
<g id="edge3" class="edge"><title>Node248&#45;&gt;Node253</title>
<path fill="none" stroke="midnightblue" d="M23.3417,-455.687C26.3842,-517.467 38.844,-705.95 79,-749 85.047,-755.483 92.9611,-759.886 101.378,-762.85"/>
<polygon fill="midnightblue" stroke="midnightblue" points="26.8376,-455.517 22.8786,-445.689 19.8451,-455.841 26.8376,-455.517"/>
</g>
<!-- Node254 -->
<g id="node5" class="node"><title>Node254</title>
<g id="a_node5"><a xlink:href="group___c_m_s_i_s___core___cache_functions.xhtml#gaba757390852f95b3ac2d8638c717d8d8" target="_top" xlink:title="Disable I&#45;Cache. ">
<polygon fill="white" stroke="black" points="100,-720.5 100,-739.5 210,-739.5 210,-720.5 100,-720.5"/>
<text text-anchor="middle" x="155" y="-727.5" font-family="Helvetica,sans-Serif" font-size="10.00">SCB_DisableICache</text>
</a>
</g>
</g>
<!-- Node248&#45;&gt;Node254 -->
<g id="edge4" class="edge"><title>Node248&#45;&gt;Node254</title>
<path fill="none" stroke="midnightblue" d="M23.8906,-455.838C28.2701,-512.605 43.6393,-673.993 79,-711 84.7533,-717.021 92.119,-721.24 99.9786,-724.177"/>
<polygon fill="midnightblue" stroke="midnightblue" points="27.3667,-455.384 23.139,-445.67 20.3858,-455.9 27.3667,-455.384"/>
</g>
<!-- Node255 -->
<g id="node6" class="node"><title>Node255</title>
<g id="a_node6"><a xlink:href="group___c_m_s_i_s___core___cache_functions.xhtml#ga50d373a785edd782c5de5a3b55e30ff3" target="_top" xlink:title="Invalidate I&#45;Cache. ">
<polygon fill="white" stroke="black" points="95,-682.5 95,-701.5 215,-701.5 215,-682.5 95,-682.5"/>
<text text-anchor="middle" x="155" y="-689.5" font-family="Helvetica,sans-Serif" font-size="10.00">SCB_InvalidateICache</text>
</a>
</g>
</g>
<!-- Node248&#45;&gt;Node255 -->
<g id="edge5" class="edge"><title>Node248&#45;&gt;Node255</title>
<path fill="none" stroke="midnightblue" d="M24.5902,-455.749C30.398,-506.908 48.3526,-641.918 79,-673 83.5268,-677.591 88.9928,-681.128 94.8866,-683.846"/>
<polygon fill="midnightblue" stroke="midnightblue" points="28.0531,-455.219 23.4807,-445.662 21.0951,-455.985 28.0531,-455.219"/>
</g>
<!-- Node256 -->
<g id="node7" class="node"><title>Node256</title>
<g id="a_node7"><a xlink:href="group___c_m_s_i_s___core___cache_functions.xhtml#ga63aa640d9006021a796a5dcf9c7180b6" target="_top" xlink:title="Enable D&#45;Cache. ">
<polygon fill="white" stroke="red" points="99,-644.5 99,-663.5 211,-663.5 211,-644.5 99,-644.5"/>
<text text-anchor="middle" x="155" y="-651.5" font-family="Helvetica,sans-Serif" font-size="10.00">SCB_EnableDCache</text>
</a>
</g>
</g>
<!-- Node248&#45;&gt;Node256 -->
<g id="edge6" class="edge"><title>Node248&#45;&gt;Node256</title>
<path fill="none" stroke="midnightblue" d="M22.0383,-455.778C22.239,-495.646 28.6022,-586.02 79,-635 84.5868,-640.43 91.4919,-644.374 98.8312,-647.228"/>
<polygon fill="midnightblue" stroke="midnightblue" points="25.5401,-455.565 22.1225,-445.537 18.5403,-455.508 25.5401,-455.565"/>
</g>
<!-- Node257 -->
<g id="node8" class="node"><title>Node257</title>
<g id="a_node8"><a xlink:href="group___c_m_s_i_s___core___cache_functions.xhtml#ga6468170f90d270caab8116e7a4f0b5fe" target="_top" xlink:title="Disable D&#45;Cache. ">
<polygon fill="white" stroke="black" points="97.5,-606.5 97.5,-625.5 212.5,-625.5 212.5,-606.5 97.5,-606.5"/>
<text text-anchor="middle" x="155" y="-613.5" font-family="Helvetica,sans-Serif" font-size="10.00">SCB_DisableDCache</text>
</a>
</g>
</g>
<!-- Node248&#45;&gt;Node257 -->
<g id="edge7" class="edge"><title>Node248&#45;&gt;Node257</title>
<path fill="none" stroke="midnightblue" d="M23.6097,-455.725C26.6155,-489.712 37.7539,-559.285 79,-597 84.2538,-601.804 90.5469,-605.433 97.2237,-608.168"/>
<polygon fill="midnightblue" stroke="midnightblue" points="27.0936,-455.377 22.8703,-445.661 20.1124,-455.89 27.0936,-455.377"/>
</g>
<!-- Node258 -->
<g id="node9" class="node"><title>Node258</title>
<g id="a_node9"><a xlink:href="group___c_m_s_i_s___core___cache_functions.xhtml#gace2d30db08887d0bdb818b8a785a5ce6" target="_top" xlink:title="Invalidate D&#45;Cache. ">
<polygon fill="white" stroke="black" points="92.5,-568.5 92.5,-587.5 217.5,-587.5 217.5,-568.5 92.5,-568.5"/>
<text text-anchor="middle" x="155" y="-575.5" font-family="Helvetica,sans-Serif" font-size="10.00">SCB_InvalidateDCache</text>
</a>
</g>
</g>
<!-- Node248&#45;&gt;Node258 -->
<g id="edge8" class="edge"><title>Node248&#45;&gt;Node258</title>
<path fill="none" stroke="midnightblue" d="M26.0433,-455.653C32.0243,-482.998 46.7751,-532.178 79,-559 83.6458,-562.867 88.9757,-565.961 94.6057,-568.436"/>
<polygon fill="midnightblue" stroke="midnightblue" points="29.447,-454.825 24.0478,-445.709 22.5839,-456.202 29.447,-454.825"/>
</g>
<!-- Node259 -->
<g id="node10" class="node"><title>Node259</title>
<g id="a_node10"><a xlink:href="group___c_m_s_i_s___core___cache_functions.xhtml#ga55583e3065c6eabca204b8b89b121c4c" target="_top" xlink:title="Clean D&#45;Cache. ">
<polygon fill="white" stroke="red" points="101.5,-530.5 101.5,-549.5 208.5,-549.5 208.5,-530.5 101.5,-530.5"/>
<text text-anchor="middle" x="155" y="-537.5" font-family="Helvetica,sans-Serif" font-size="10.00">SCB_CleanDCache</text>
</a>
</g>
</g>
<!-- Node248&#45;&gt;Node259 -->
<g id="edge9" class="edge"><title>Node248&#45;&gt;Node259</title>
<path fill="none" stroke="midnightblue" d="M30.16,-454.984C39.0183,-474.505 55.4642,-504.335 79,-521 85.687,-525.735 93.4455,-529.292 101.385,-531.964"/>
<polygon fill="midnightblue" stroke="midnightblue" points="33.2881,-453.399 26.1221,-445.595 26.8575,-456.164 33.2881,-453.399"/>
</g>
<!-- Node261 -->
<g id="node11" class="node"><title>Node261</title>
<g id="a_node11"><a xlink:href="group___c_m_s_i_s___core___cache_functions.xhtml#ga1b741def9e3b2ca97dc9ea49b8ce505c" target="_top" xlink:title="Clean &amp; Invalidate D&#45;Cache. ">
<polygon fill="white" stroke="red" points="79,-492.5 79,-511.5 231,-511.5 231,-492.5 79,-492.5"/>
<text text-anchor="middle" x="155" y="-499.5" font-family="Helvetica,sans-Serif" font-size="10.00">SCB_CleanInvalidateDCache</text>
</a>
</g>
</g>
<!-- Node248&#45;&gt;Node261 -->
<g id="edge10" class="edge"><title>Node248&#45;&gt;Node261</title>
<path fill="none" stroke="midnightblue" d="M38.7949,-452.955C49.377,-463.048 63.9596,-475.341 79,-483 86.5409,-486.84 94.9124,-489.941 103.249,-492.433"/>
<polygon fill="midnightblue" stroke="midnightblue" points="41.1117,-450.324 31.5412,-445.779 36.1886,-455.3 41.1117,-450.324"/>
</g>
<!-- Node265 -->
<g id="node12" class="node"><title>Node265</title>
<g id="a_node12"><a xlink:href="group___c_m_s_i_s___core___cache_functions.xhtml#ga503ef7ef58c0773defd15a82f6336c09" target="_top" xlink:title="SCB_InvalidateDCache\l_by_Addr">
<polygon fill="white" stroke="red" points="92.5,-443 92.5,-473 217.5,-473 217.5,-443 92.5,-443"/>
<text text-anchor="start" x="100.5" y="-461" font-family="Helvetica,sans-Serif" font-size="10.00">SCB_InvalidateDCache</text>
<text text-anchor="middle" x="155" y="-450" font-family="Helvetica,sans-Serif" font-size="10.00">_by_Addr</text>
</a>
</g>
</g>
<!-- Node248&#45;&gt;Node265 -->
<g id="edge11" class="edge"><title>Node248&#45;&gt;Node265</title>
<path fill="none" stroke="midnightblue" d="M53.1714,-441.131C64.9156,-443.096 78.7712,-445.414 92.389,-447.692"/>
<polygon fill="midnightblue" stroke="midnightblue" points="53.4874,-437.636 43.0469,-439.438 52.3322,-444.54 53.4874,-437.636"/>
</g>
<!-- Node309 -->
<g id="node13" class="node"><title>Node309</title>
<g id="a_node13"><a xlink:href="group___c_m_s_i_s___core___cache_functions.xhtml#ga696fadbf7b9cc71dad42fab61873a40d" target="_top" xlink:title="SCB_CleanDCache_by_Addr">
<polygon fill="white" stroke="red" points="79.5,-404.5 79.5,-423.5 230.5,-423.5 230.5,-404.5 79.5,-404.5"/>
<text text-anchor="middle" x="155" y="-411.5" font-family="Helvetica,sans-Serif" font-size="10.00">SCB_CleanDCache_by_Addr</text>
</a>
</g>
</g>
<!-- Node248&#45;&gt;Node309 -->
<g id="edge12" class="edge"><title>Node248&#45;&gt;Node309</title>
<path fill="none" stroke="midnightblue" d="M52.9327,-430.909C66.051,-428.714 81.8366,-426.073 96.9915,-423.538"/>
<polygon fill="midnightblue" stroke="midnightblue" points="52.3322,-427.46 43.0469,-432.562 53.4874,-434.364 52.3322,-427.46"/>
</g>
<!-- Node468 -->
<g id="node14" class="node"><title>Node468</title>
<g id="a_node14"><a xlink:href="group___c_m_s_i_s___core___cache_functions.xhtml#ga630131b2572eaa16b569ed364dfc895e" target="_top" xlink:title="SCB_CleanInvalidateDCache\l_by_Addr">
<polygon fill="white" stroke="red" points="79,-355 79,-385 231,-385 231,-355 79,-355"/>
<text text-anchor="start" x="87" y="-373" font-family="Helvetica,sans-Serif" font-size="10.00">SCB_CleanInvalidateDCache</text>
<text text-anchor="middle" x="155" y="-362" font-family="Helvetica,sans-Serif" font-size="10.00">_by_Addr</text>
</a>
</g>
</g>
<!-- Node248&#45;&gt;Node468 -->
<g id="edge13" class="edge"><title>Node248&#45;&gt;Node468</title>
<path fill="none" stroke="midnightblue" d="M41.5565,-419.905C52.0841,-411.615 65.6944,-401.838 79,-395 86.2023,-391.298 94.0685,-387.975 101.91,-385.052"/>
<polygon fill="midnightblue" stroke="midnightblue" points="39.0787,-417.408 33.5127,-426.423 43.4857,-422.847 39.0787,-417.408"/>
</g>
<!-- Node472 -->
<g id="node15" class="node"><title>Node472</title>
<g id="a_node15"><a xlink:href="exceptions_8c.xhtml#aeafbdf3066c39ff86ed2a3a5d8414d48" target="_top" xlink:title="If Other Faults are enabled then HardFault error will look for those errors to give more detail about...">
<polygon fill="white" stroke="black" points="104.5,-316.5 104.5,-335.5 205.5,-335.5 205.5,-316.5 104.5,-316.5"/>
<text text-anchor="middle" x="155" y="-323.5" font-family="Helvetica,sans-Serif" font-size="10.00">HardFault_reason</text>
</a>
</g>
</g>
<!-- Node248&#45;&gt;Node472 -->
<g id="edge14" class="edge"><title>Node248&#45;&gt;Node472</title>
<path fill="none" stroke="midnightblue" d="M29.5234,-416.893C38.0708,-396.311 54.4703,-364.089 79,-346 86.4836,-340.481 95.3816,-336.485 104.388,-333.591"/>
<polygon fill="midnightblue" stroke="midnightblue" points="26.1647,-415.871 25.768,-426.458 32.6805,-418.429 26.1647,-415.871"/>
</g>
<!-- Node473 -->
<g id="node16" class="node"><title>Node473</title>
<g id="a_node16"><a xlink:href="group___s_a_m_e70_j19__cmsis.xhtml#ga2bffc10d5bd4106753b7c30e86903bea" target="_top" xlink:title="Default HardFault interrupt handler. ">
<polygon fill="white" stroke="black" points="267,-297.5 267,-316.5 372,-316.5 372,-297.5 267,-297.5"/>
<text text-anchor="middle" x="319.5" y="-304.5" font-family="Helvetica,sans-Serif" font-size="10.00">HardFault_Handler</text>
</a>
</g>
</g>
<!-- Node248&#45;&gt;Node473 -->
<g id="edge16" class="edge"><title>Node248&#45;&gt;Node473</title>
<path fill="none" stroke="midnightblue" d="M24.5502,-416.323C28.8168,-386.679 41.6181,-331.437 79,-307 143.56,-264.796 240.31,-283.755 288.702,-297.398"/>
<polygon fill="midnightblue" stroke="midnightblue" points="21.0689,-415.956 23.2994,-426.313 28.0147,-416.826 21.0689,-415.956"/>
</g>
<!-- Node474 -->
<g id="node17" class="node"><title>Node474</title>
<g id="a_node17"><a xlink:href="group___s_a_m_e70_j19__cmsis.xhtml#ga3150f74512510287a942624aa9b44cc5" target="_top" xlink:title="Default MemManage interrupt handler. ">
<polygon fill="white" stroke="black" points="94,-240.5 94,-259.5 216,-259.5 216,-240.5 94,-240.5"/>
<text text-anchor="middle" x="155" y="-247.5" font-family="Helvetica,sans-Serif" font-size="10.00">MemManage_Handler</text>
</a>
</g>
</g>
<!-- Node248&#45;&gt;Node474 -->
<g id="edge17" class="edge"><title>Node248&#45;&gt;Node474</title>
<path fill="none" stroke="midnightblue" d="M23.8165,-416.416C27.1399,-382.624 38.7508,-313.221 79,-274 85.4622,-267.703 93.5774,-263.057 102.064,-259.631"/>
<polygon fill="midnightblue" stroke="midnightblue" points="20.3259,-416.159 22.9778,-426.416 27.3014,-416.744 20.3259,-416.159"/>
</g>
<!-- Node475 -->
<g id="node18" class="node"><title>Node475</title>
<g id="a_node18"><a xlink:href="group___s_a_m_e70_j19__cmsis.xhtml#ga850cefb17a977292ae5eb4cafa9976c3" target="_top" xlink:title="Default BusFault interrupt handler. ">
<polygon fill="white" stroke="black" points="105,-202.5 105,-221.5 205,-221.5 205,-202.5 105,-202.5"/>
<text text-anchor="middle" x="155" y="-209.5" font-family="Helvetica,sans-Serif" font-size="10.00">BusFault_Handler</text>
</a>
</g>
</g>
<!-- Node248&#45;&gt;Node475 -->
<g id="edge18" class="edge"><title>Node248&#45;&gt;Node475</title>
<path fill="none" stroke="midnightblue" d="M21.8387,-416.166C21.619,-375.398 27.1674,-281.765 79,-231 86.1013,-224.045 95.3639,-219.523 104.945,-216.609"/>
<polygon fill="midnightblue" stroke="midnightblue" points="18.3395,-416.248 22.02,-426.183 25.3384,-416.121 18.3395,-416.248"/>
</g>
<!-- Node476 -->
<g id="node19" class="node"><title>Node476</title>
<g id="a_node19"><a xlink:href="group___s_a_m_e70_j19__cmsis.xhtml#ga1d98923de2ed6b7309b66f9ba2971647" target="_top" xlink:title="Default UsageFault interrupt handler. ">
<polygon fill="white" stroke="black" points="98.5,-164.5 98.5,-183.5 211.5,-183.5 211.5,-164.5 98.5,-164.5"/>
<text text-anchor="middle" x="155" y="-171.5" font-family="Helvetica,sans-Serif" font-size="10.00">UsageFault_Handler</text>
</a>
</g>
</g>
<!-- Node248&#45;&gt;Node476 -->
<g id="edge19" class="edge"><title>Node248&#45;&gt;Node476</title>
<path fill="none" stroke="midnightblue" d="M24.4796,-416.109C30.0687,-363.938 47.6363,-224.986 79,-193 84.3604,-187.533 91.0519,-183.559 98.216,-180.683"/>
<polygon fill="midnightblue" stroke="midnightblue" points="20.9654,-416.066 23.4162,-426.373 27.9282,-416.787 20.9654,-416.066"/>
</g>
<!-- Node477 -->
<g id="node20" class="node"><title>Node477</title>
<g id="a_node20"><a xlink:href="group__can__module.xhtml#ga9b35cd79fb5eeec8cf1ba7247b25a646" target="_top" xlink:title="Initializes the MCAN hardware for giving peripheral. ">
<polygon fill="white" stroke="red" points="122.5,-126.5 122.5,-145.5 187.5,-145.5 187.5,-126.5 122.5,-126.5"/>
<text text-anchor="middle" x="155" y="-133.5" font-family="Helvetica,sans-Serif" font-size="10.00">MCAN_Init</text>
</a>
</g>
</g>
<!-- Node248&#45;&gt;Node477 -->
<g id="edge20" class="edge"><title>Node248&#45;&gt;Node477</title>
<path fill="none" stroke="midnightblue" d="M23.7987,-416.12C27.9662,-358.474 42.8981,-192.942 79,-155 90.1109,-143.323 107.285,-138.418 122.396,-136.503"/>
<polygon fill="midnightblue" stroke="midnightblue" points="20.2847,-416.203 23.0873,-426.421 27.2681,-416.685 20.2847,-416.203"/>
</g>
<!-- Node478 -->
<g id="node21" class="node"><title>Node478</title>
<g id="a_node21"><a xlink:href="mpu_8c.xhtml#aaa88b8f32a6a4c83d2ddc9a287d82ef2" target="_top" xlink:title="Update MPU regions. ">
<polygon fill="white" stroke="black" points="97,-88.5 97,-107.5 213,-107.5 213,-88.5 97,-88.5"/>
<text text-anchor="middle" x="155" y="-95.5" font-family="Helvetica,sans-Serif" font-size="10.00">MPU_UpdateRegions</text>
</a>
</g>
</g>
<!-- Node248&#45;&gt;Node478 -->
<g id="edge21" class="edge"><title>Node248&#45;&gt;Node478</title>
<path fill="none" stroke="midnightblue" d="M23.2664,-416.354C26.1063,-353.834 38.0804,-161.013 79,-117 83.9388,-111.688 90.1312,-107.771 96.8285,-104.898"/>
<polygon fill="midnightblue" stroke="midnightblue" points="19.7653,-416.307 22.8375,-426.446 26.759,-416.604 19.7653,-416.307"/>
</g>
<!-- Node479 -->
<g id="node22" class="node"><title>Node479</title>
<g id="a_node22"><a xlink:href="group__sam__drivers__qspi__group.xhtml#ga7b134660d53e8e550db5e98d21706e56" target="_top" xlink:title="Send instruction over QSPI with data. ">
<polygon fill="white" stroke="black" points="101.5,-39 101.5,-69 208.5,-69 208.5,-39 101.5,-39"/>
<text text-anchor="start" x="109.5" y="-57" font-family="Helvetica,sans-Serif" font-size="10.00">qspi_flash_execute</text>
<text text-anchor="middle" x="155" y="-46" font-family="Helvetica,sans-Serif" font-size="10.00">_command</text>
</a>
</g>
</g>
<!-- Node248&#45;&gt;Node479 -->
<g id="edge22" class="edge"><title>Node248&#45;&gt;Node479</title>
<path fill="none" stroke="midnightblue" d="M22.9979,-416.367C25.0845,-349.318 35.1847,-130.703 79,-79 84.9452,-71.9844 92.9158,-66.9287 101.444,-63.2874"/>
<polygon fill="midnightblue" stroke="midnightblue" points="19.4978,-416.324 22.7113,-426.42 26.495,-416.524 19.4978,-416.324"/>
</g>
<!-- Node480 -->
<g id="node23" class="node"><title>Node480</title>
<g id="a_node23"><a xlink:href="group__sam__drivers__qspi__group.xhtml#gae5bf717b6b8987d76f6d9559c805e020" target="_top" xlink:title="Writes or reads the QSPI memory (0x80000000) to trasmit or receive data from Flash memory...">
<polygon fill="white" stroke="black" points="81,-0.5 81,-19.5 229,-19.5 229,-0.5 81,-0.5"/>
<text text-anchor="middle" x="155" y="-7.5" font-family="Helvetica,sans-Serif" font-size="10.00">qspi_flash_access_memory</text>
</a>
</g>
</g>
<!-- Node248&#45;&gt;Node480 -->
<g id="edge23" class="edge"><title>Node248&#45;&gt;Node480</title>
<path fill="none" stroke="midnightblue" d="M22.4666,-415.984C22.7565,-342.409 27.5294,-88.186 79,-30 82.75,-25.7607 87.2883,-22.3741 92.2552,-19.6745"/>
<polygon fill="midnightblue" stroke="midnightblue" points="18.9664,-416.179 22.452,-426.184 25.9664,-416.189 18.9664,-416.179"/>
</g>
<!-- Node472&#45;&gt;Node473 -->
<g id="edge15" class="edge"><title>Node472&#45;&gt;Node473</title>
<path fill="none" stroke="midnightblue" d="M215.873,-318.999C232.628,-317.04 250.687,-314.929 266.917,-313.031"/>
<polygon fill="midnightblue" stroke="midnightblue" points="215.164,-315.558 205.638,-320.196 215.977,-322.511 215.164,-315.558"/>
</g>
</g>
</svg>
