<?xml version="1.0" encoding="UTF-8" standalone="no"?>
<!DOCTYPE svg PUBLIC "-//W3C//DTD SVG 1.1//EN"
 "http://www.w3.org/Graphics/SVG/1.1/DTD/svg11.dtd">
<!-- Generated by graphviz version 2.38.0 (20140413.2041)
 -->
<!-- Title: HIDAUDDDriver_Initialize Pages: 1 -->
<svg width="308pt" height="180pt"
 viewBox="0.00 0.00 308.00 180.00" xmlns="http://www.w3.org/2000/svg" xmlns:xlink="http://www.w3.org/1999/xlink">
<g id="graph0" class="graph" transform="scale(1 1) rotate(0) translate(4 176)">
<title>HIDAUDDDriver_Initialize</title>
<polygon fill="white" stroke="none" points="-4,4 -4,-176 304,-176 304,4 -4,4"/>
<!-- Node29 -->
<g id="node1" class="node"><title>Node29</title>
<polygon fill="#bfbfbf" stroke="black" points="0,-76.5 0,-95.5 135,-95.5 135,-76.5 0,-76.5"/>
<text text-anchor="middle" x="67.5" y="-83.5" font-family="Helvetica,sans-Serif" font-size="10.00">HIDAUDDDriver_Initialize</text>
</g>
<!-- Node30 -->
<g id="node2" class="node"><title>Node30</title>
<g id="a_node2"><a xlink:href="group__usbd__interface.xhtml#ga01ba3ff549b968edc152cdb23c2027d1" target="_top" xlink:title="Return USBDDriver instance pointer for global usage. ">
<polygon fill="white" stroke="black" points="187.5,-152.5 187.5,-171.5 283.5,-171.5 283.5,-152.5 187.5,-152.5"/>
<text text-anchor="middle" x="235.5" y="-159.5" font-family="Helvetica,sans-Serif" font-size="10.00">USBD_GetDriver</text>
</a>
</g>
</g>
<!-- Node29&#45;&gt;Node30 -->
<g id="edge1" class="edge"><title>Node29&#45;&gt;Node30</title>
<path fill="none" stroke="midnightblue" d="M83.2644,-95.5603C102.735,-107.847 138.355,-129.232 171,-143 176.434,-145.292 182.237,-147.427 188.044,-149.378"/>
<polygon fill="midnightblue" stroke="midnightblue" points="187.164,-152.771 197.755,-152.479 189.294,-146.103 187.164,-152.771"/>
</g>
<!-- Node31 -->
<g id="node3" class="node"><title>Node31</title>
<g id="a_node3"><a xlink:href="group__usbd__interface.xhtml#ga11868145aba27b8ca63ab6395439cb0d" target="_top" xlink:title="Initializes a USBDDriver instance with a list of descriptors. ">
<polygon fill="white" stroke="black" points="177,-114.5 177,-133.5 294,-133.5 294,-114.5 177,-114.5"/>
<text text-anchor="middle" x="235.5" y="-121.5" font-family="Helvetica,sans-Serif" font-size="10.00">USBDDriver_Initialize</text>
</a>
</g>
</g>
<!-- Node29&#45;&gt;Node31 -->
<g id="edge2" class="edge"><title>Node29&#45;&gt;Node31</title>
<path fill="none" stroke="midnightblue" d="M110.389,-95.589C132.393,-100.626 159.555,-106.844 182.852,-112.177"/>
<polygon fill="midnightblue" stroke="midnightblue" points="182.384,-115.66 192.912,-114.48 183.946,-108.837 182.384,-115.66"/>
</g>
<!-- Node32 -->
<g id="node4" class="node"><title>Node32</title>
<g id="a_node4"><a xlink:href="group__usbd__hid__key.xhtml#ga56ad6774014b879f9a4828e528508cbf" target="_top" xlink:title="Initializes the HID keyboard device driver SW. ">
<polygon fill="white" stroke="red" points="171,-76.5 171,-95.5 300,-95.5 300,-76.5 171,-76.5"/>
<text text-anchor="middle" x="235.5" y="-83.5" font-family="Helvetica,sans-Serif" font-size="10.00">HIDDKeyboard_Initialize</text>
</a>
</g>
</g>
<!-- Node29&#45;&gt;Node32 -->
<g id="edge3" class="edge"><title>Node29&#45;&gt;Node32</title>
<path fill="none" stroke="midnightblue" d="M135.062,-86C143.555,-86 152.287,-86 160.883,-86"/>
<polygon fill="midnightblue" stroke="midnightblue" points="160.889,-89.5001 170.889,-86 160.889,-82.5001 160.889,-89.5001"/>
</g>
<!-- Node37 -->
<g id="node5" class="node"><title>Node37</title>
<g id="a_node5"><a xlink:href="group__usbd__aud__fun.xhtml#gafe0d2176139fc21ee46d2b87c9269b96" target="_top" xlink:title="Initializes an USB audio speaker device driver, as well as the underlying USB controller. ">
<polygon fill="white" stroke="red" points="171,-38.5 171,-57.5 300,-57.5 300,-38.5 171,-38.5"/>
<text text-anchor="middle" x="235.5" y="-45.5" font-family="Helvetica,sans-Serif" font-size="10.00">AUDDFunction_Initialize</text>
</a>
</g>
</g>
<!-- Node29&#45;&gt;Node37 -->
<g id="edge4" class="edge"><title>Node29&#45;&gt;Node37</title>
<path fill="none" stroke="midnightblue" d="M110.389,-76.411C132.393,-71.3739 159.555,-65.1562 182.852,-59.8229"/>
<polygon fill="midnightblue" stroke="midnightblue" points="183.946,-63.1633 192.912,-57.5201 182.384,-56.3398 183.946,-63.1633"/>
</g>
<!-- Node42 -->
<g id="node6" class="node"><title>Node42</title>
<g id="a_node6"><a xlink:href="group__usbd__interface.xhtml#ga1fd3982402055e37aa879c199e0b7fee" target="_top" xlink:title="Initializes the USB driver. ">
<polygon fill="white" stroke="red" points="203,-0.5 203,-19.5 268,-19.5 268,-0.5 203,-0.5"/>
<text text-anchor="middle" x="235.5" y="-7.5" font-family="Helvetica,sans-Serif" font-size="10.00">USBD_Init</text>
</a>
</g>
</g>
<!-- Node29&#45;&gt;Node42 -->
<g id="edge5" class="edge"><title>Node29&#45;&gt;Node42</title>
<path fill="none" stroke="midnightblue" d="M83.2644,-76.4397C102.735,-64.1528 138.355,-42.7682 171,-29 178.004,-26.0461 185.621,-23.3517 193.068,-20.9794"/>
<polygon fill="midnightblue" stroke="midnightblue" points="194.147,-24.3098 202.696,-18.0516 192.11,-17.6126 194.147,-24.3098"/>
</g>
</g>
</svg>
