<?xml version="1.0" encoding="UTF-8" standalone="no"?>
<!DOCTYPE svg PUBLIC "-//W3C//DTD SVG 1.1//EN"
 "http://www.w3.org/Graphics/SVG/1.1/DTD/svg11.dtd">
<!-- Generated by graphviz version 2.38.0 (20140413.2041)
 -->
<!-- Title: USBD_RemoteWakeUp Pages: 1 -->
<svg width="351pt" height="192pt"
 viewBox="0.00 0.00 351.00 191.50" xmlns="http://www.w3.org/2000/svg" xmlns:xlink="http://www.w3.org/1999/xlink">
<g id="graph0" class="graph" transform="scale(1 1) rotate(0) translate(4 187.5)">
<title>USBD_RemoteWakeUp</title>
<polygon fill="white" stroke="none" points="-4,4 -4,-187.5 347,-187.5 347,4 -4,4"/>
<!-- Node821 -->
<g id="node1" class="node"><title>Node821</title>
<polygon fill="#bfbfbf" stroke="black" points="0,-88 0,-107 125,-107 125,-88 0,-88"/>
<text text-anchor="middle" x="62.5" y="-95" font-family="Helvetica,sans-Serif" font-size="10.00">USBD_RemoteWakeUp</text>
</g>
<!-- Node822 -->
<g id="node2" class="node"><title>Node822</title>
<g id="a_node2"><a xlink:href="group__usbd__composite__cdchid.xhtml#ga51a0a0946e7ed9ff0abd033ae9fe5f92" target="_top" xlink:title="Starts a remote wake&#45;up sequence if the host has explicitely enabled it by sending the appropriate SE...">
<polygon fill="white" stroke="black" points="166.5,-164 166.5,-183 337.5,-183 337.5,-164 166.5,-164"/>
<text text-anchor="middle" x="252" y="-171" font-family="Helvetica,sans-Serif" font-size="10.00">CDCHIDDDriver_RemoteWakeUp</text>
</a>
</g>
</g>
<!-- Node821&#45;&gt;Node822 -->
<g id="edge1" class="edge"><title>Node821&#45;&gt;Node822</title>
<path fill="none" stroke="midnightblue" d="M84.958,-112.778C104.062,-125.696 133.209,-143.768 161,-154.5 170.832,-158.297 181.577,-161.399 192.109,-163.912"/>
<polygon fill="midnightblue" stroke="midnightblue" points="86.9031,-109.868 76.6823,-107.078 82.9323,-115.633 86.9031,-109.868"/>
</g>
<!-- Node823 -->
<g id="node3" class="node"><title>Node823</title>
<g id="a_node3"><a xlink:href="group__usbd__composite__hidmsd.xhtml#ga69267a20e9ee74f7e526790c14e62d3a" target="_top" xlink:title="Starts a remote wake&#45;up sequence if the host has explicitly enabled it by sending the appropriate SET...">
<polygon fill="white" stroke="black" points="169.5,-126 169.5,-145 334.5,-145 334.5,-126 169.5,-126"/>
<text text-anchor="middle" x="252" y="-133" font-family="Helvetica,sans-Serif" font-size="10.00">HIDMSDDriver_RemoteWakeUp</text>
</a>
</g>
</g>
<!-- Node821&#45;&gt;Node823 -->
<g id="edge2" class="edge"><title>Node821&#45;&gt;Node823</title>
<path fill="none" stroke="midnightblue" d="M120.784,-109.11C147.451,-114.514 178.781,-120.864 204.026,-125.98"/>
<polygon fill="midnightblue" stroke="midnightblue" points="121.31,-105.645 110.814,-107.089 119.92,-112.506 121.31,-105.645"/>
</g>
<!-- Node824 -->
<g id="node4" class="node"><title>Node824</title>
<g id="a_node4"><a xlink:href="group__usbd__hid__key.xhtml#ga3c4a5834758595c2295efd954ad1bb87" target="_top" xlink:title="Starts a remote wake&#45;up sequence if the host has explicitely enabled it by sending the appropriate SE...">
<polygon fill="white" stroke="red" points="169,-88 169,-107 335,-107 335,-88 169,-88"/>
<text text-anchor="middle" x="252" y="-95" font-family="Helvetica,sans-Serif" font-size="10.00">HIDDKeyboard_RemoteWakeUp</text>
</a>
</g>
</g>
<!-- Node821&#45;&gt;Node824 -->
<g id="edge3" class="edge"><title>Node821&#45;&gt;Node824</title>
<path fill="none" stroke="midnightblue" d="M135.483,-97.5C146.411,-97.5 157.758,-97.5 168.882,-97.5"/>
<polygon fill="midnightblue" stroke="midnightblue" points="135.154,-94.0001 125.154,-97.5 135.154,-101 135.154,-94.0001"/>
</g>
<!-- Node826 -->
<g id="node5" class="node"><title>Node826</title>
<g id="a_node5"><a xlink:href="group__usbd__hid__mouse.xhtml#ga2da268767dbdbaa0149d36d602f00d2c" target="_top" xlink:title="Starts a remote wake&#45;up sequence if the host has explicitely enabled it by sending the appropriate SE...">
<polygon fill="white" stroke="black" points="161,-50 161,-69 343,-69 343,-50 161,-50"/>
<text text-anchor="middle" x="252" y="-57" font-family="Helvetica,sans-Serif" font-size="10.00">HIDDMouseDriver_RemoteWakeUp</text>
</a>
</g>
</g>
<!-- Node821&#45;&gt;Node826 -->
<g id="edge4" class="edge"><title>Node821&#45;&gt;Node826</title>
<path fill="none" stroke="midnightblue" d="M120.784,-85.8905C147.451,-80.486 178.781,-74.1365 204.026,-69.0201"/>
<polygon fill="midnightblue" stroke="midnightblue" points="119.92,-82.4944 110.814,-87.911 121.31,-89.3549 119.92,-82.4944"/>
</g>
<!-- Node827 -->
<g id="node6" class="node"><title>Node827</title>
<g id="a_node6"><a xlink:href="group__usbd__hid__tran.xhtml#ga6831b005f189a9c8dbc077bf8f700ca1" target="_top" xlink:title="Starts a remote wake&#45;up sequence if the host has explicitely enabled it by sending the appropriate SE...">
<polygon fill="white" stroke="black" points="198.5,-0.5 198.5,-30.5 305.5,-30.5 305.5,-0.5 198.5,-0.5"/>
<text text-anchor="start" x="206.5" y="-18.5" font-family="Helvetica,sans-Serif" font-size="10.00">HIDDTransferDriver</text>
<text text-anchor="middle" x="252" y="-7.5" font-family="Helvetica,sans-Serif" font-size="10.00">_RemoteWakeUp</text>
</a>
</g>
</g>
<!-- Node821&#45;&gt;Node827 -->
<g id="edge5" class="edge"><title>Node821&#45;&gt;Node827</title>
<path fill="none" stroke="midnightblue" d="M85.791,-82.2192C105.011,-69.6034 133.872,-51.9691 161,-40.5 172.8,-35.5112 185.888,-31.2207 198.345,-27.6726"/>
<polygon fill="midnightblue" stroke="midnightblue" points="83.8104,-79.3331 77.4297,-87.7912 87.6922,-85.1582 83.8104,-79.3331"/>
</g>
</g>
</svg>
