<?xml version="1.0" encoding="UTF-8" standalone="no"?>
<!DOCTYPE svg PUBLIC "-//W3C//DTD SVG 1.1//EN"
 "http://www.w3.org/Graphics/SVG/1.1/DTD/svg11.dtd">
<!-- Generated by graphviz version 2.38.0 (20140413.2041)
 -->
<!-- Title: SBC_TestUnitReady Pages: 1 -->
<svg width="284pt" height="66pt"
 viewBox="0.00 0.00 284.00 66.00" xmlns="http://www.w3.org/2000/svg" xmlns:xlink="http://www.w3.org/1999/xlink">
<g id="graph0" class="graph" transform="scale(1 1) rotate(0) translate(4 62)">
<title>SBC_TestUnitReady</title>
<polygon fill="white" stroke="none" points="-4,4 -4,-62 280,-62 280,4 -4,4"/>
<!-- Node890 -->
<g id="node1" class="node"><title>Node890</title>
<polygon fill="#bfbfbf" stroke="black" points="0,-19.5 0,-38.5 109,-38.5 109,-19.5 0,-19.5"/>
<text text-anchor="middle" x="54.5" y="-26.5" font-family="Helvetica,sans-Serif" font-size="10.00">SBC_TestUnitReady</text>
</g>
<!-- Node891 -->
<g id="node2" class="node"><title>Node891</title>
<g id="a_node2"><a xlink:href="group__usbd__msd.xhtml#gade89a430e561d4e82d34aabe4f51b248" target="_top" xlink:title="MED_GetState">
<polygon fill="white" stroke="black" points="167,-38.5 167,-57.5 254,-57.5 254,-38.5 167,-38.5"/>
<text text-anchor="middle" x="210.5" y="-45.5" font-family="Helvetica,sans-Serif" font-size="10.00">MED_GetState</text>
</a>
</g>
</g>
<!-- Node890&#45;&gt;Node891 -->
<g id="edge1" class="edge"><title>Node890&#45;&gt;Node891</title>
<path fill="none" stroke="midnightblue" d="M109.362,-35.6453C124.584,-37.5234 141.136,-39.5655 156.318,-41.4386"/>
<polygon fill="midnightblue" stroke="midnightblue" points="156.223,-44.9534 166.577,-42.7043 157.081,-38.0061 156.223,-44.9534"/>
</g>
<!-- Node892 -->
<g id="node3" class="node"><title>Node892</title>
<g id="a_node3"><a xlink:href="group__usbd__msd.xhtml#ga6259d674a30286b49d79ffa89b44e809" target="_top" xlink:title="Updates the sense data of a LUN with the given key and codes. ">
<polygon fill="white" stroke="black" points="145,-0.5 145,-19.5 276,-19.5 276,-0.5 145,-0.5"/>
<text text-anchor="middle" x="210.5" y="-7.5" font-family="Helvetica,sans-Serif" font-size="10.00">SBC_UpdateSenseData</text>
</a>
</g>
</g>
<!-- Node890&#45;&gt;Node892 -->
<g id="edge2" class="edge"><title>Node890&#45;&gt;Node892</title>
<path fill="none" stroke="midnightblue" d="M109.362,-22.3547C117.591,-21.3394 126.209,-20.2762 134.789,-19.2176"/>
<polygon fill="midnightblue" stroke="midnightblue" points="135.322,-22.6785 144.818,-17.9803 134.464,-15.7312 135.322,-22.6785"/>
</g>
</g>
</svg>
