<?xml version="1.0" encoding="UTF-8" standalone="no"?>
<!DOCTYPE svg PUBLIC "-//W3C//DTD SVG 1.1//EN"
 "http://www.w3.org/Graphics/SVG/1.1/DTD/svg11.dtd">
<!-- Generated by graphviz version 2.38.0 (20140413.2041)
 -->
<!-- Title: GMAC Defines Pages: 1 -->
<svg width="361pt" height="28pt"
 viewBox="0.00 0.00 361.00 28.00" xmlns="http://www.w3.org/2000/svg" xmlns:xlink="http://www.w3.org/1999/xlink">
<g id="graph0" class="graph" transform="scale(1 1) rotate(0) translate(4 24)">
<title>GMAC Defines</title>
<polygon fill="white" stroke="none" points="-4,4 -4,-24 357,-24 357,4 -4,4"/>
<!-- Node2 -->
<g id="node1" class="node"><title>Node2</title>
<g id="a_node1"><a xlink:href="group__gmac__structs.xhtml" target="_top" xlink:title="GMAC Data Structs">
<polygon fill="white" stroke="black" points="243,-0.5 243,-19.5 353,-19.5 353,-0.5 243,-0.5"/>
<text text-anchor="middle" x="298" y="-7.5" font-family="Helvetica,sans-Serif" font-size="10.00">GMAC Data Structs</text>
</a>
</g>
</g>
<!-- Node1 -->
<g id="node2" class="node"><title>Node1</title>
<g id="a_node2"><a xlink:href="group__gmac__module.xhtml" target="_top" xlink:title="Provides the interface to configure and use the GMAC peripheral. ">
<polygon fill="white" stroke="black" points="0,-0.5 0,-19.5 86,-19.5 86,-0.5 0,-0.5"/>
<text text-anchor="middle" x="43" y="-7.5" font-family="Helvetica,sans-Serif" font-size="10.00">Gmac_module</text>
</a>
</g>
</g>
<!-- Node0 -->
<g id="node3" class="node"><title>Node0</title>
<polygon fill="#bfbfbf" stroke="black" points="122,-0.5 122,-19.5 207,-19.5 207,-0.5 122,-0.5"/>
<text text-anchor="middle" x="164.5" y="-7.5" font-family="Helvetica,sans-Serif" font-size="10.00">GMAC Defines</text>
</g>
<!-- Node1&#45;&gt;Node0 -->
<g id="edge1" class="edge"><title>Node1&#45;&gt;Node0</title>
<path fill="none" stroke="black" d="M96.349,-10C104.847,-10 113.548,-10 121.749,-10"/>
<polygon fill="black" stroke="black" points="96.1313,-6.5001 86.1312,-10 96.1312,-13.5001 96.1313,-6.5001"/>
</g>
<!-- Node0&#45;&gt;Node2 -->
<g id="edge2" class="edge"><title>Node0&#45;&gt;Node2</title>
<path fill="none" stroke="black" d="M217.132,-10C225.514,-10 234.216,-10 242.66,-10"/>
<polygon fill="black" stroke="black" points="217.107,-6.5001 207.107,-10 217.107,-13.5001 217.107,-6.5001"/>
</g>
</g>
</svg>
