<?xml version="1.0" encoding="UTF-8" standalone="no"?>
<!DOCTYPE svg PUBLIC "-//W3C//DTD SVG 1.1//EN"
 "http://www.w3.org/Graphics/SVG/1.1/DTD/svg11.dtd">
<!-- Generated by graphviz version 2.38.0 (20140413.2041)
 -->
<!-- Title: uhi_cdc_read_buf Pages: 1 -->
<svg width="250pt" height="66pt"
 viewBox="0.00 0.00 250.00 66.00" xmlns="http://www.w3.org/2000/svg" xmlns:xlink="http://www.w3.org/1999/xlink">
<g id="graph0" class="graph" transform="scale(1 1) rotate(0) translate(4 62)">
<title>uhi_cdc_read_buf</title>
<polygon fill="white" stroke="none" points="-4,4 -4,-62 246,-62 246,4 -4,4"/>
<!-- Node82 -->
<g id="node1" class="node"><title>Node82</title>
<polygon fill="#bfbfbf" stroke="black" points="0,-19.5 0,-38.5 100,-38.5 100,-19.5 0,-19.5"/>
<text text-anchor="middle" x="50" y="-26.5" font-family="Helvetica,sans-Serif" font-size="10.00">uhi_cdc_read_buf</text>
</g>
<!-- Node83 -->
<g id="node2" class="node"><title>Node83</title>
<g id="a_node2"><a xlink:href="group__uhi__cdc__group__internal.xhtml#ga6fe796ae4cca0fa45d96c36fb8aec5e7" target="_top" xlink:title="Returns a port structure information. ">
<polygon fill="white" stroke="black" points="140,-38.5 140,-57.5 238,-57.5 238,-38.5 140,-38.5"/>
<text text-anchor="middle" x="189" y="-45.5" font-family="Helvetica,sans-Serif" font-size="10.00">uhi_cdc_get_port</text>
</a>
</g>
</g>
<!-- Node82&#45;&gt;Node83 -->
<g id="edge1" class="edge"><title>Node82&#45;&gt;Node83</title>
<path fill="none" stroke="midnightblue" d="M100.073,-35.8058C109.647,-37.1335 119.772,-38.5377 129.612,-39.9024"/>
<polygon fill="midnightblue" stroke="midnightblue" points="129.343,-43.3985 139.729,-41.3055 130.305,-36.4649 129.343,-43.3985"/>
</g>
<!-- Node84 -->
<g id="node3" class="node"><title>Node84</title>
<g id="a_node3"><a xlink:href="group__uhi__cdc__group__internal.xhtml#gab2e5918509ca2fa9edf6ef88a8dc62ce" target="_top" xlink:title="Update the transfer endpoint IN (RX) Valid the reception of the previous transfer. ">
<polygon fill="white" stroke="red" points="136,-0.5 136,-19.5 242,-19.5 242,-0.5 136,-0.5"/>
<text text-anchor="middle" x="189" y="-7.5" font-family="Helvetica,sans-Serif" font-size="10.00">uhi_cdc_rx_update</text>
</a>
</g>
</g>
<!-- Node82&#45;&gt;Node84 -->
<g id="edge2" class="edge"><title>Node82&#45;&gt;Node84</title>
<path fill="none" stroke="midnightblue" d="M100.073,-22.1942C108.351,-21.0462 117.041,-19.841 125.603,-18.6536"/>
<polygon fill="midnightblue" stroke="midnightblue" points="126.139,-22.1129 135.563,-17.2723 125.177,-15.1792 126.139,-22.1129"/>
</g>
</g>
</svg>
