<?xml version="1.0" encoding="UTF-8" standalone="no"?>
<!DOCTYPE svg PUBLIC "-//W3C//DTD SVG 1.1//EN"
 "http://www.w3.org/Graphics/SVG/1.1/DTD/svg11.dtd">
<!-- Generated by graphviz version 2.38.0 (20140413.2041)
 -->
<!-- Title: PCtoRDRIccPowerOn Pages: 1 -->
<svg width="286pt" height="66pt"
 viewBox="0.00 0.00 286.00 66.00" xmlns="http://www.w3.org/2000/svg" xmlns:xlink="http://www.w3.org/1999/xlink">
<g id="graph0" class="graph" transform="scale(1 1) rotate(0) translate(4 62)">
<title>PCtoRDRIccPowerOn</title>
<polygon fill="white" stroke="none" points="-4,4 -4,-62 282,-62 282,4 -4,4"/>
<!-- Node374 -->
<g id="node1" class="node"><title>Node374</title>
<polygon fill="#bfbfbf" stroke="black" points="0,-19.5 0,-38.5 113,-38.5 113,-19.5 0,-19.5"/>
<text text-anchor="middle" x="56.5" y="-26.5" font-family="Helvetica,sans-Serif" font-size="10.00">PCtoRDRIccPowerOn</text>
</g>
<!-- Node375 -->
<g id="node2" class="node"><title>Node375</title>
<g id="a_node2"><a xlink:href="iso7816__4_8h.xhtml#ac91cd7113997202c06dbe16b51f7984b" target="_top" xlink:title="cold reset ">
<polygon fill="white" stroke="red" points="157.5,-38.5 157.5,-57.5 269.5,-57.5 269.5,-38.5 157.5,-38.5"/>
<text text-anchor="middle" x="213.5" y="-45.5" font-family="Helvetica,sans-Serif" font-size="10.00">ISO7816_cold_reset</text>
</a>
</g>
</g>
<!-- Node374&#45;&gt;Node375 -->
<g id="edge1" class="edge"><title>Node374&#45;&gt;Node375</title>
<path fill="none" stroke="midnightblue" d="M113.021,-35.8058C124.174,-37.1729 135.988,-38.6212 147.432,-40.0239"/>
<polygon fill="midnightblue" stroke="midnightblue" points="147.015,-43.499 157.367,-41.2417 147.867,-36.551 147.015,-43.499"/>
</g>
<!-- Node378 -->
<g id="node3" class="node"><title>Node378</title>
<g id="a_node3"><a xlink:href="group__usbd__ccid.xhtml#ga69ac577865aa10d8ec98b26668c973d1" target="_top" xlink:title="Response Pipe, Bulk&#45;IN Messages Answer to PC_to_RDR_IccPowerOn. ">
<polygon fill="white" stroke="red" points="149,-0.5 149,-19.5 278,-19.5 278,-0.5 149,-0.5"/>
<text text-anchor="middle" x="213.5" y="-7.5" font-family="Helvetica,sans-Serif" font-size="10.00">RDRtoPCDatablock_ATR</text>
</a>
</g>
</g>
<!-- Node374&#45;&gt;Node378 -->
<g id="edge2" class="edge"><title>Node374&#45;&gt;Node378</title>
<path fill="none" stroke="midnightblue" d="M113.021,-22.1942C121.387,-21.1687 130.126,-20.0975 138.801,-19.0341"/>
<polygon fill="midnightblue" stroke="midnightblue" points="139.43,-22.4833 148.93,-17.7925 138.578,-15.5353 139.43,-22.4833"/>
</g>
</g>
</svg>
