<?xml version="1.0" encoding="UTF-8" standalone="no"?>
<!DOCTYPE svg PUBLIC "-//W3C//DTD SVG 1.1//EN"
 "http://www.w3.org/Graphics/SVG/1.1/DTD/svg11.dtd">
<!-- Generated by graphviz version 2.38.0 (20140413.2041)
 -->
<!-- Title: SAMS70Q19 definitions Pages: 1 -->
<svg width="322pt" height="230pt"
 viewBox="0.00 0.00 322.00 230.00" xmlns="http://www.w3.org/2000/svg" xmlns:xlink="http://www.w3.org/1999/xlink">
<g id="graph0" class="graph" transform="scale(1 1) rotate(0) translate(4 226)">
<title>SAMS70Q19 definitions</title>
<polygon fill="white" stroke="none" points="-4,4 -4,-226 318,-226 318,4 -4,4"/>
<!-- Node0 -->
<g id="node1" class="node"><title>Node0</title>
<polygon fill="#bfbfbf" stroke="black" points="0,-95.5 0,-114.5 128,-114.5 128,-95.5 0,-95.5"/>
<text text-anchor="middle" x="64" y="-102.5" font-family="Helvetica,sans-Serif" font-size="10.00">SAMS70Q19 definitions</text>
</g>
<!-- Node4 -->
<g id="node2" class="node"><title>Node4</title>
<g id="a_node2"><a xlink:href="group___s_a_m_s70_q19__id.xhtml" target="_top" xlink:title="Peripheral Ids Definitions">
<polygon fill="white" stroke="black" points="172,-202.5 172,-221.5 306,-221.5 306,-202.5 172,-202.5"/>
<text text-anchor="middle" x="239" y="-209.5" font-family="Helvetica,sans-Serif" font-size="10.00">Peripheral Ids Definitions</text>
</a>
</g>
</g>
<!-- Node0&#45;&gt;Node4 -->
<g id="edge4" class="edge"><title>Node0&#45;&gt;Node4</title>
<path fill="none" stroke="black" d="M79.6825,-122.302C97.5833,-142.289 129.716,-174.758 164,-193 171.26,-196.863 179.344,-199.969 187.427,-202.459"/>
<polygon fill="black" stroke="black" points="82.1389,-119.794 72.9173,-114.578 76.8731,-124.406 82.1389,-119.794"/>
</g>
<!-- Node5 -->
<g id="node3" class="node"><title>Node5</title>
<g id="a_node3"><a xlink:href="group___s_a_m_s70_q19__base.xhtml" target="_top" xlink:title="Peripheral Base Address\l Definitions">
<polygon fill="white" stroke="black" points="172,-153 172,-183 306,-183 306,-153 172,-153"/>
<text text-anchor="start" x="180" y="-171" font-family="Helvetica,sans-Serif" font-size="10.00">Peripheral Base Address</text>
<text text-anchor="middle" x="239" y="-160" font-family="Helvetica,sans-Serif" font-size="10.00"> Definitions</text>
</a>
</g>
</g>
<!-- Node0&#45;&gt;Node5 -->
<g id="edge5" class="edge"><title>Node0&#45;&gt;Node5</title>
<path fill="none" stroke="black" d="M98.7648,-118.351C117.843,-125.797 142.174,-135.128 164,-143 173.184,-146.313 183.056,-149.739 192.502,-152.954"/>
<polygon fill="black" stroke="black" points="99.8953,-115.035 89.3076,-114.647 97.3425,-121.553 99.8953,-115.035"/>
</g>
<!-- Node3 -->
<g id="node4" class="node"><title>Node3</title>
<g id="a_node4"><a xlink:href="group___s_a_m_s70_q19__reg.xhtml" target="_top" xlink:title="Registers Access Definitions">
<polygon fill="white" stroke="black" points="164,-114.5 164,-133.5 314,-133.5 314,-114.5 164,-114.5"/>
<text text-anchor="middle" x="239" y="-121.5" font-family="Helvetica,sans-Serif" font-size="10.00">Registers Access Definitions</text>
</a>
</g>
</g>
<!-- Node0&#45;&gt;Node3 -->
<g id="edge3" class="edge"><title>Node0&#45;&gt;Node3</title>
<path fill="none" stroke="black" d="M138.513,-113.074C146.859,-113.99 155.369,-114.925 163.725,-115.843"/>
<polygon fill="black" stroke="black" points="138.759,-109.58 128.436,-111.967 137.995,-116.538 138.759,-109.58"/>
</g>
<!-- Node2 -->
<g id="node5" class="node"><title>Node2</title>
<g id="a_node5"><a xlink:href="group___s_a_m_s70_q19__api.xhtml" target="_top" xlink:title="SOFTWARE PERIPHERAL API DEFINITION FOR SAMS70Q19. ">
<polygon fill="white" stroke="black" points="175,-76.5 175,-95.5 303,-95.5 303,-76.5 175,-76.5"/>
<text text-anchor="middle" x="239" y="-83.5" font-family="Helvetica,sans-Serif" font-size="10.00">Peripheral Software API</text>
</a>
</g>
</g>
<!-- Node0&#45;&gt;Node2 -->
<g id="edge2" class="edge"><title>Node0&#45;&gt;Node2</title>
<path fill="none" stroke="black" d="M138.497,-96.9281C150.596,-95.5993 163.043,-94.2323 174.86,-92.9344"/>
<polygon fill="black" stroke="black" points="137.995,-93.4621 128.436,-98.033 138.759,-100.42 137.995,-93.4621"/>
</g>
<!-- Node6 -->
<g id="node6" class="node"><title>Node6</title>
<g id="a_node6"><a xlink:href="group___s_a_m_s70_q19__pio.xhtml" target="_top" xlink:title="Peripheral Pio Definitions">
<polygon fill="white" stroke="black" points="171.5,-38.5 171.5,-57.5 306.5,-57.5 306.5,-38.5 171.5,-38.5"/>
<text text-anchor="middle" x="239" y="-45.5" font-family="Helvetica,sans-Serif" font-size="10.00">Peripheral Pio Definitions</text>
</a>
</g>
</g>
<!-- Node0&#45;&gt;Node6 -->
<g id="edge6" class="edge"><title>Node0&#45;&gt;Node6</title>
<path fill="none" stroke="black" d="M97.0202,-91.6323C116.244,-83.878 141.298,-74.2447 164,-67 174.741,-63.5723 186.507,-60.3262 197.434,-57.519"/>
<polygon fill="black" stroke="black" points="95.4826,-88.4793 87.542,-95.4934 98.1235,-94.962 95.4826,-88.4793"/>
</g>
<!-- Node1 -->
<g id="node7" class="node"><title>Node1</title>
<g id="a_node7"><a xlink:href="group___s_a_m_s70_q19__cmsis.xhtml" target="_top" xlink:title="CMSIS Definitions">
<polygon fill="white" stroke="black" points="188.5,-0.5 188.5,-19.5 289.5,-19.5 289.5,-0.5 188.5,-0.5"/>
<text text-anchor="middle" x="239" y="-7.5" font-family="Helvetica,sans-Serif" font-size="10.00">CMSIS Definitions</text>
</a>
</g>
</g>
<!-- Node0&#45;&gt;Node1 -->
<g id="edge1" class="edge"><title>Node0&#45;&gt;Node1</title>
<path fill="none" stroke="black" d="M82.1666,-88.2843C100.832,-71.0084 132.264,-44.4486 164,-29 171.871,-25.1684 180.602,-22.0496 189.227,-19.5307"/>
<polygon fill="black" stroke="black" points="79.6277,-85.8678 74.7592,-95.2778 84.4333,-90.9578 79.6277,-85.8678"/>
</g>
</g>
</svg>
