<?xml version="1.0" encoding="UTF-8" standalone="no"?>
<!DOCTYPE svg PUBLIC "-//W3C//DTD SVG 1.1//EN"
 "http://www.w3.org/Graphics/SVG/1.1/DTD/svg11.dtd">
<!-- Generated by graphviz version 2.38.0 (20140413.2041)
 -->
<!-- Title: USBD_HAL_Test Pages: 1 -->
<svg width="272pt" height="180pt"
 viewBox="0.00 0.00 272.00 180.00" xmlns="http://www.w3.org/2000/svg" xmlns:xlink="http://www.w3.org/1999/xlink">
<g id="graph0" class="graph" transform="scale(1 1) rotate(0) translate(4 176)">
<title>USBD_HAL_Test</title>
<polygon fill="white" stroke="none" points="-4,4 -4,-176 268,-176 268,4 -4,4"/>
<!-- Node1705 -->
<g id="node1" class="node"><title>Node1705</title>
<polygon fill="#bfbfbf" stroke="black" points="0,-76.5 0,-95.5 94,-95.5 94,-76.5 0,-76.5"/>
<text text-anchor="middle" x="47" y="-83.5" font-family="Helvetica,sans-Serif" font-size="10.00">USBD_HAL_Test</text>
</g>
<!-- Node1706 -->
<g id="node2" class="node"><title>Node1706</title>
<g id="a_node2"><a xlink:href="usbhs_8h.xhtml#a1e6f755e0017750683a52c6d2640ce9b" target="_top" xlink:title="Disables interrupt for endpoint. ">
<polygon fill="white" stroke="black" points="145,-152.5 145,-171.5 249,-171.5 249,-152.5 145,-152.5"/>
<text text-anchor="middle" x="197" y="-159.5" font-family="Helvetica,sans-Serif" font-size="10.00">USBHS_DisableInt</text>
</a>
</g>
</g>
<!-- Node1705&#45;&gt;Node1706 -->
<g id="edge1" class="edge"><title>Node1705&#45;&gt;Node1706</title>
<path fill="none" stroke="midnightblue" d="M59.2034,-95.5949C74.3418,-108.119 102.599,-129.97 130,-143 134.913,-145.336 140.171,-147.443 145.495,-149.328"/>
<polygon fill="midnightblue" stroke="midnightblue" points="144.497,-152.685 155.09,-152.484 146.684,-146.035 144.497,-152.685"/>
</g>
<!-- Node1707 -->
<g id="node3" class="node"><title>Node1707</title>
<g id="a_node3"><a xlink:href="usbhs_8h.xhtml#a526a6421c946527e98a5cd7a426f5254" target="_top" xlink:title="Disable/Enables Test mode. ">
<polygon fill="white" stroke="black" points="130,-114.5 130,-133.5 264,-133.5 264,-114.5 130,-114.5"/>
<text text-anchor="middle" x="197" y="-121.5" font-family="Helvetica,sans-Serif" font-size="10.00">USBHS_EnableTestMode</text>
</a>
</g>
</g>
<!-- Node1705&#45;&gt;Node1707 -->
<g id="edge2" class="edge"><title>Node1705&#45;&gt;Node1707</title>
<path fill="none" stroke="midnightblue" d="M85.3466,-95.589C104.701,-100.558 128.53,-106.677 149.113,-111.961"/>
<polygon fill="midnightblue" stroke="midnightblue" points="148.366,-115.383 158.922,-114.48 150.107,-108.603 148.366,-115.383"/>
</g>
<!-- Node1708 -->
<g id="node4" class="node"><title>Node1708</title>
<g id="a_node4"><a xlink:href="usbhs_8h.xhtml#a95e89705c54999e79a3a53b6505e95e6" target="_top" xlink:title="Allocate Endpoint memory. ">
<polygon fill="white" stroke="black" points="130,-76.5 130,-95.5 264,-95.5 264,-76.5 130,-76.5"/>
<text text-anchor="middle" x="197" y="-83.5" font-family="Helvetica,sans-Serif" font-size="10.00">USBHS_AllocateMemory</text>
</a>
</g>
</g>
<!-- Node1705&#45;&gt;Node1708 -->
<g id="edge3" class="edge"><title>Node1705&#45;&gt;Node1708</title>
<path fill="none" stroke="midnightblue" d="M94.0168,-86C102.189,-86 110.896,-86 119.647,-86"/>
<polygon fill="midnightblue" stroke="midnightblue" points="119.91,-89.5001 129.91,-86 119.91,-82.5001 119.91,-89.5001"/>
</g>
<!-- Node1709 -->
<g id="node5" class="node"><title>Node1709</title>
<g id="a_node5"><a xlink:href="usbhs_8h.xhtml#aafe79c1addd8c03522a0228ae4b6dae3" target="_top" xlink:title="Enables or disables endpoint. ">
<polygon fill="white" stroke="black" points="146.5,-38.5 146.5,-57.5 247.5,-57.5 247.5,-38.5 146.5,-38.5"/>
<text text-anchor="middle" x="197" y="-45.5" font-family="Helvetica,sans-Serif" font-size="10.00">USBHS_EnableEP</text>
</a>
</g>
</g>
<!-- Node1705&#45;&gt;Node1709 -->
<g id="edge4" class="edge"><title>Node1705&#45;&gt;Node1709</title>
<path fill="none" stroke="midnightblue" d="M85.3466,-76.411C104.701,-71.4417 128.53,-65.3233 149.113,-60.0387"/>
<polygon fill="midnightblue" stroke="midnightblue" points="150.107,-63.3971 158.922,-57.5201 148.366,-56.617 150.107,-63.3971"/>
</g>
<!-- Node1710 -->
<g id="node6" class="node"><title>Node1710</title>
<g id="a_node6"><a xlink:href="usbhs_8h.xhtml#a7e969e0c7fb49b1d25dd4e97afe3b0f7" target="_top" xlink:title="Sets/Raise register for a given endpoint. ">
<polygon fill="white" stroke="black" points="143.5,-0.5 143.5,-19.5 250.5,-19.5 250.5,-0.5 143.5,-0.5"/>
<text text-anchor="middle" x="197" y="-7.5" font-family="Helvetica,sans-Serif" font-size="10.00">USBHS_RaiseEPInt</text>
</a>
</g>
</g>
<!-- Node1705&#45;&gt;Node1710 -->
<g id="edge5" class="edge"><title>Node1705&#45;&gt;Node1710</title>
<path fill="none" stroke="midnightblue" d="M59.2034,-76.4051C74.3418,-63.8814 102.599,-42.0296 130,-29 134.913,-26.6638 140.171,-24.5568 145.495,-22.6715"/>
<polygon fill="midnightblue" stroke="midnightblue" points="146.684,-25.965 155.09,-19.5159 144.497,-19.3154 146.684,-25.965"/>
</g>
</g>
</svg>
