<?xml version="1.0" encoding="UTF-8" standalone="no"?>
<!DOCTYPE svg PUBLIC "-//W3C//DTD SVG 1.1//EN"
 "http://www.w3.org/Graphics/SVG/1.1/DTD/svg11.dtd">
<!-- Generated by graphviz version 2.38.0 (20140413.2041)
 -->
<!-- Title: Usbd_composite_hidaud Pages: 1 -->
<svg width="493pt" height="228pt"
 viewBox="0.00 0.00 493.00 227.50" xmlns="http://www.w3.org/2000/svg" xmlns:xlink="http://www.w3.org/1999/xlink">
<g id="graph0" class="graph" transform="scale(1 1) rotate(0) translate(4 223.5)">
<title>Usbd_composite_hidaud</title>
<polygon fill="white" stroke="none" points="-4,4 -4,-223.5 489,-223.5 489,4 -4,4"/>
<!-- Node4 -->
<g id="node1" class="node"><title>Node4</title>
<g id="a_node1"><a xlink:href="group__usbd__audio__speakerphone.xhtml" target="_top" xlink:title="Implement speaker phone function that combine 1 AC interface, 1 AS interface for speaker and 1 AS int...">
<polygon fill="white" stroke="black" points="337,-184 337,-203 483,-203 483,-184 337,-184"/>
<text text-anchor="middle" x="410" y="-191" font-family="Helvetica,sans-Serif" font-size="10.00">Usbd_audio_speakerphone</text>
</a>
</g>
</g>
<!-- Node0 -->
<g id="node2" class="node"><title>Node0</title>
<polygon fill="#bfbfbf" stroke="black" points="0,-78 0,-97 134,-97 134,-78 0,-78"/>
<text text-anchor="middle" x="67" y="-85" font-family="Helvetica,sans-Serif" font-size="10.00">Usbd_composite_hidaud</text>
</g>
<!-- Node0&#45;&gt;Node4 -->
<g id="edge4" class="edge"><title>Node0&#45;&gt;Node4</title>
<path fill="none" stroke="orange" stroke-dasharray="5,2" d="M74.7731,-97.1118C87.5888,-114.435 117.239,-150.57 152,-166.5 210.221,-193.18 283.422,-198.501 336.795,-197.987"/>
<text text-anchor="middle" x="234.5" y="-211.5" font-family="Helvetica,sans-Serif" font-size="10.00">_AUDFeatureUnitDescriptor3</text>
<text text-anchor="middle" x="234.5" y="-200.5" font-family="Helvetica,sans-Serif" font-size="10.00">_AUDFormatTypeOneDescriptor1</text>
</g>
<!-- Node2 -->
<g id="node3" class="node"><title>Node2</title>
<g id="a_node3"><a xlink:href="group__usbd__audio__speaker.xhtml" target="_top" xlink:title="Usbd_audio_speaker">
<polygon fill="white" stroke="black" points="352,-106 352,-125 468,-125 468,-106 352,-106"/>
<text text-anchor="middle" x="410" y="-113" font-family="Helvetica,sans-Serif" font-size="10.00">Usbd_audio_speaker</text>
</a>
</g>
</g>
<!-- Node0&#45;&gt;Node2 -->
<g id="edge2" class="edge"><title>Node0&#45;&gt;Node2</title>
<path fill="none" stroke="orange" stroke-dasharray="5,2" d="M134.153,-92.9319C197.389,-98.1244 291.743,-105.872 351.811,-110.804"/>
<text text-anchor="middle" x="234.5" y="-154.5" font-family="Helvetica,sans-Serif" font-size="10.00">_AUDHeaderDescriptor1</text>
<text text-anchor="middle" x="234.5" y="-143.5" font-family="Helvetica,sans-Serif" font-size="10.00">_AUDFeatureUnitDescriptor3</text>
<text text-anchor="start" x="152" y="-132.5" font-family="Helvetica,sans-Serif" font-size="10.00">_AUDDSpeakerDriverAudioControl</text>
<text text-anchor="middle" x="234.5" y="-121.5" font-family="Helvetica,sans-Serif" font-size="10.00">Descriptors</text>
<text text-anchor="middle" x="234.5" y="-110.5" font-family="Helvetica,sans-Serif" font-size="10.00">_AUDFormatTypeOneDescriptor1</text>
</g>
<!-- Node3 -->
<g id="node4" class="node"><title>Node3</title>
<g id="a_node4"><a xlink:href="group__usbd__composite__cdcaud.xhtml" target="_top" xlink:title="Usbd_composite_cdcaud">
<polygon fill="white" stroke="black" points="341.5,-50 341.5,-69 478.5,-69 478.5,-50 341.5,-50"/>
<text text-anchor="middle" x="410" y="-57" font-family="Helvetica,sans-Serif" font-size="10.00">Usbd_composite_cdcaud</text>
</a>
</g>
</g>
<!-- Node0&#45;&gt;Node3 -->
<g id="edge3" class="edge"><title>Node0&#45;&gt;Node3</title>
<path fill="none" stroke="orange" stroke-dasharray="5,2" d="M89.2387,-77.9592C105.919,-71.0133 129.938,-62.2012 152,-58.5 215.585,-47.8329 289.271,-49.5266 341.396,-53.0255"/>
<text text-anchor="middle" x="234.5" y="-83.5" font-family="Helvetica,sans-Serif" font-size="10.00">_AUDHeaderDescriptor1</text>
<text text-anchor="middle" x="234.5" y="-72.5" font-family="Helvetica,sans-Serif" font-size="10.00">_AUDFeatureUnitDescriptor3</text>
<text text-anchor="middle" x="234.5" y="-61.5" font-family="Helvetica,sans-Serif" font-size="10.00">_AUDFormatTypeOneDescriptor1</text>
</g>
<!-- Node1 -->
<g id="node5" class="node"><title>Node1</title>
<g id="a_node5"><a xlink:href="group__usbd__hid__aud__desc.xhtml" target="_top" xlink:title="USB HID(Keyboard) \l+ AUD(Speaker) Definitions">
<polygon fill="white" stroke="black" points="335,-0.5 335,-30.5 485,-30.5 485,-0.5 335,-0.5"/>
<text text-anchor="start" x="343" y="-18.5" font-family="Helvetica,sans-Serif" font-size="10.00">USB HID(Keyboard) </text>
<text text-anchor="middle" x="410" y="-7.5" font-family="Helvetica,sans-Serif" font-size="10.00">+ AUD(Speaker) Definitions</text>
</a>
</g>
</g>
<!-- Node0&#45;&gt;Node1 -->
<g id="edge1" class="edge"><title>Node0&#45;&gt;Node1</title>
<path fill="none" stroke="black" d="M92.3236,-72.9221C108.639,-63.8345 130.923,-52.7221 152,-46.5 212.02,-28.7812 282.785,-21.1663 334.847,-17.906"/>
<polygon fill="black" stroke="black" points="90.4069,-69.9862 83.4609,-77.9865 93.8799,-76.0639 90.4069,-69.9862"/>
</g>
</g>
</svg>
