<?xml version="1.0" encoding="UTF-8" standalone="no"?>
<!DOCTYPE svg PUBLIC "-//W3C//DTD SVG 1.1//EN"
 "http://www.w3.org/Graphics/SVG/1.1/DTD/svg11.dtd">
<!-- Generated by graphviz version 2.38.0 (20140413.2041)
 -->
<!-- Title: UDPHS_Read Pages: 1 -->
<svg width="258pt" height="104pt"
 viewBox="0.00 0.00 258.00 104.00" xmlns="http://www.w3.org/2000/svg" xmlns:xlink="http://www.w3.org/1999/xlink">
<g id="graph0" class="graph" transform="scale(1 1) rotate(0) translate(4 100)">
<title>UDPHS_Read</title>
<polygon fill="white" stroke="none" points="-4,4 -4,-100 254,-100 254,4 -4,4"/>
<!-- Node876 -->
<g id="node1" class="node"><title>Node876</title>
<polygon fill="#bfbfbf" stroke="black" points="0,-38.5 0,-57.5 80,-57.5 80,-38.5 0,-38.5"/>
<text text-anchor="middle" x="40" y="-45.5" font-family="Helvetica,sans-Serif" font-size="10.00">UDPHS_Read</text>
</g>
<!-- Node877 -->
<g id="node2" class="node"><title>Node877</title>
<g id="a_node2"><a xlink:href="group__usbd__hal.xhtml#ga3050097643684759b64beda54283f1e4" target="_top" xlink:title="DMA Single transfer. ">
<polygon fill="white" stroke="red" points="128,-76.5 128,-95.5 238,-95.5 238,-76.5 128,-76.5"/>
<text text-anchor="middle" x="183" y="-83.5" font-family="Helvetica,sans-Serif" font-size="10.00">UDPHS_DmaSingle</text>
</a>
</g>
</g>
<!-- Node876&#45;&gt;Node877 -->
<g id="edge1" class="edge"><title>Node876&#45;&gt;Node877</title>
<path fill="none" stroke="midnightblue" d="M76.5803,-57.589C94.782,-62.4944 117.138,-68.5196 136.572,-73.7571"/>
<polygon fill="midnightblue" stroke="midnightblue" points="135.865,-77.1912 146.431,-76.4141 137.686,-70.4324 135.865,-77.1912"/>
</g>
<!-- Node882 -->
<g id="node3" class="node"><title>Node882</title>
<g id="a_node3"><a xlink:href="usbhs_8h.xhtml#aaefdcd5f8be021f6ebffcbb4e7630079" target="_top" xlink:title="Enables interrupt for a given endpoint. ">
<polygon fill="white" stroke="black" points="126.5,-38.5 126.5,-57.5 239.5,-57.5 239.5,-38.5 126.5,-38.5"/>
<text text-anchor="middle" x="183" y="-45.5" font-family="Helvetica,sans-Serif" font-size="10.00">USBHS_EnableIntEP</text>
</a>
</g>
</g>
<!-- Node876&#45;&gt;Node882 -->
<g id="edge2" class="edge"><title>Node876&#45;&gt;Node882</title>
<path fill="none" stroke="midnightblue" d="M80.2764,-48C91.417,-48 103.861,-48 116.119,-48"/>
<polygon fill="midnightblue" stroke="midnightblue" points="116.338,-51.5001 126.338,-48 116.338,-44.5001 116.338,-51.5001"/>
</g>
<!-- Node883 -->
<g id="node4" class="node"><title>Node883</title>
<g id="a_node4"><a xlink:href="usbhs_8h.xhtml#a6e9251af935e4867afa52cd306e8c699" target="_top" xlink:title="Enables an interrupt type for a given endpoint. ">
<polygon fill="white" stroke="black" points="116,-0.5 116,-19.5 250,-19.5 250,-0.5 116,-0.5"/>
<text text-anchor="middle" x="183" y="-7.5" font-family="Helvetica,sans-Serif" font-size="10.00">USBHS_EnableEPIntType</text>
</a>
</g>
</g>
<!-- Node876&#45;&gt;Node883 -->
<g id="edge3" class="edge"><title>Node876&#45;&gt;Node883</title>
<path fill="none" stroke="midnightblue" d="M76.5803,-38.411C94.782,-33.5056 117.138,-27.4804 136.572,-22.2429"/>
<polygon fill="midnightblue" stroke="midnightblue" points="137.686,-25.5676 146.431,-19.5859 135.865,-18.8088 137.686,-25.5676"/>
</g>
</g>
</svg>
