<?xml version="1.0" encoding="UTF-8" standalone="no"?>
<!DOCTYPE svg PUBLIC "-//W3C//DTD SVG 1.1//EN"
 "http://www.w3.org/Graphics/SVG/1.1/DTD/svg11.dtd">
<!-- Generated by graphviz version 2.38.0 (20140413.2041)
 -->
<!-- Title: Reset Controller Pages: 1 -->
<svg width="249pt" height="66pt"
 viewBox="0.00 0.00 249.00 66.00" xmlns="http://www.w3.org/2000/svg" xmlns:xlink="http://www.w3.org/1999/xlink">
<g id="graph0" class="graph" transform="scale(1 1) rotate(0) translate(4 62)">
<title>Reset Controller</title>
<polygon fill="white" stroke="none" points="-4,4 -4,-62 245,-62 245,4 -4,4"/>
<!-- Node2 -->
<g id="node1" class="node"><title>Node2</title>
<g id="a_node1"><a xlink:href="group___s_a_m_v71___r_s_t_c.xhtml" target="_top" xlink:title="SOFTWARE API DEFINITION FOR Reset Controller. ">
<polygon fill="white" stroke="black" points="149,-38.5 149,-57.5 241,-57.5 241,-38.5 149,-38.5"/>
<text text-anchor="middle" x="195" y="-45.5" font-family="Helvetica,sans-Serif" font-size="10.00">Reset Controller</text>
</a>
</g>
</g>
<!-- Node1 -->
<g id="node2" class="node"><title>Node1</title>
<g id="a_node2"><a xlink:href="group___s_a_m_e70___r_s_t_c.xhtml" target="_top" xlink:title="SOFTWARE API DEFINITION FOR Reset Controller. ">
<polygon fill="white" stroke="black" points="149,-0.5 149,-19.5 241,-19.5 241,-0.5 149,-0.5"/>
<text text-anchor="middle" x="195" y="-7.5" font-family="Helvetica,sans-Serif" font-size="10.00">Reset Controller</text>
</a>
</g>
</g>
<!-- Node0 -->
<g id="node3" class="node"><title>Node0</title>
<polygon fill="#bfbfbf" stroke="black" points="0,-19.5 0,-38.5 92,-38.5 92,-19.5 0,-19.5"/>
<text text-anchor="middle" x="46" y="-26.5" font-family="Helvetica,sans-Serif" font-size="10.00">Reset Controller</text>
</g>
<!-- Node0&#45;&gt;Node2 -->
<g id="edge2" class="edge"><title>Node0&#45;&gt;Node2</title>
<path fill="none" stroke="orange" stroke-dasharray="5,2" d="M92.3043,-34.8557C110.273,-37.1781 130.891,-39.8431 148.845,-42.1637"/>
<text text-anchor="middle" x="120.5" y="-42" font-family="Helvetica,sans-Serif" font-size="10.00">Rstc</text>
</g>
<!-- Node0&#45;&gt;Node1 -->
<g id="edge1" class="edge"><title>Node0&#45;&gt;Node1</title>
<path fill="none" stroke="orange" stroke-dasharray="5,2" d="M85.4712,-19.4323C93.5321,-17.7148 102.011,-16.1182 110,-15 122.587,-13.2382 136.321,-12.0964 148.967,-11.3567"/>
<text text-anchor="middle" x="120.5" y="-18" font-family="Helvetica,sans-Serif" font-size="10.00">Rstc</text>
</g>
</g>
</svg>
