<?xml version="1.0" encoding="UTF-8" standalone="no"?>
<!DOCTYPE svg PUBLIC "-//W3C//DTD SVG 1.1//EN"
 "http://www.w3.org/Graphics/SVG/1.1/DTD/svg11.dtd">
<!-- Generated by graphviz version 2.38.0 (20140413.2041)
 -->
<!-- Title: udd_enable Pages: 1 -->
<svg width="455pt" height="224pt"
 viewBox="0.00 0.00 455.00 223.59" xmlns="http://www.w3.org/2000/svg" xmlns:xlink="http://www.w3.org/1999/xlink">
<g id="graph0" class="graph" transform="scale(1 1) rotate(0) translate(4 219.589)">
<title>udd_enable</title>
<polygon fill="white" stroke="none" points="-4,4 -4,-219.589 451,-219.589 451,4 -4,4"/>
<!-- Node295 -->
<g id="node1" class="node"><title>Node295</title>
<polygon fill="#bfbfbf" stroke="black" points="0,-111.458 0,-130.458 72,-130.458 72,-111.458 0,-111.458"/>
<text text-anchor="middle" x="36" y="-118.458" font-family="Helvetica,sans-Serif" font-size="10.00">udd_enable</text>
</g>
<!-- Node296 -->
<g id="node2" class="node"><title>Node296</title>
<g id="a_node2"><a xlink:href="group__interrupt__group.xhtml#ga9931bf539005d3f12b461928823a0ae2" target="_top" xlink:title="cpu_irq_save">
<polygon fill="white" stroke="black" points="362,-149.458 362,-168.458 441,-168.458 441,-149.458 362,-149.458"/>
<text text-anchor="middle" x="401.5" y="-156.458" font-family="Helvetica,sans-Serif" font-size="10.00">cpu_irq_save</text>
</a>
</g>
</g>
<!-- Node295&#45;&gt;Node296 -->
<g id="edge1" class="edge"><title>Node295&#45;&gt;Node296</title>
<path fill="none" stroke="midnightblue" d="M42.0642,-130.481C51.9838,-147.977 75.8426,-184.745 108,-198.958 198.03,-238.75 317.593,-196.329 371.713,-172.65"/>
<polygon fill="midnightblue" stroke="midnightblue" points="373.342,-175.756 381.035,-168.471 370.478,-169.368 373.342,-175.756"/>
</g>
<!-- Node297 -->
<g id="node3" class="node"><title>Node297</title>
<g id="a_node3"><a xlink:href="group__interrupt__group.xhtml#gae4d6d11a5211f6bd00353f280aa78f6f" target="_top" xlink:title="cpu_irq_restore">
<polygon fill="white" stroke="red" points="356,-16.4581 356,-35.4581 447,-35.4581 447,-16.4581 356,-16.4581"/>
<text text-anchor="middle" x="401.5" y="-23.4581" font-family="Helvetica,sans-Serif" font-size="10.00">cpu_irq_restore</text>
</a>
</g>
</g>
<!-- Node295&#45;&gt;Node297 -->
<g id="edge2" class="edge"><title>Node295&#45;&gt;Node297</title>
<path fill="none" stroke="midnightblue" d="M40.6691,-111.351C49.0113,-91.0631 71.5507,-44.2212 108,-25.9581 187.613,13.9324 295.4,-0.825711 355.41,-14.0824"/>
<polygon fill="midnightblue" stroke="midnightblue" points="354.801,-17.5335 365.33,-16.3572 356.365,-10.7106 354.801,-17.5335"/>
</g>
<!-- Node299 -->
<g id="node4" class="node"><title>Node299</title>
<g id="a_node4"><a xlink:href="libraries_2libboard_2resources___x4_m0x_2system__sams70_8c.xhtml#a8372ffe2210c0caee63237271fdec131" target="_top" xlink:title="Enable USB clock. ">
<polygon fill="white" stroke="black" points="108,-149.458 108,-168.458 213,-168.458 213,-149.458 108,-149.458"/>
<text text-anchor="middle" x="160.5" y="-156.458" font-family="Helvetica,sans-Serif" font-size="10.00">sysclk_enable_usb</text>
</a>
</g>
</g>
<!-- Node295&#45;&gt;Node299 -->
<g id="edge3" class="edge"><title>Node295&#45;&gt;Node299</title>
<path fill="none" stroke="midnightblue" d="M67.9119,-130.547C83.2903,-135.318 102.082,-141.147 118.633,-146.281"/>
<polygon fill="midnightblue" stroke="midnightblue" points="118.01,-149.752 128.598,-149.372 120.084,-143.066 118.01,-149.752"/>
</g>
<!-- Node300 -->
<g id="node5" class="node"><title>Node300</title>
<g id="a_node5"><a xlink:href="group___c_m_s_i_s___core___n_v_i_c_functions.xhtml#ga2305cbd44aaad792e3a4e538bdaf14f9" target="_top" xlink:title="Set Interrupt Priority. ">
<polygon fill="white" stroke="black" points="113,-111.458 113,-130.458 208,-130.458 208,-111.458 113,-111.458"/>
<text text-anchor="middle" x="160.5" y="-118.458" font-family="Helvetica,sans-Serif" font-size="10.00">NVIC_SetPriority</text>
</a>
</g>
</g>
<!-- Node295&#45;&gt;Node300 -->
<g id="edge4" class="edge"><title>Node295&#45;&gt;Node300</title>
<path fill="none" stroke="midnightblue" d="M72.1036,-120.958C81.6481,-120.958 92.2354,-120.958 102.652,-120.958"/>
<polygon fill="midnightblue" stroke="midnightblue" points="102.967,-124.458 112.967,-120.958 102.967,-117.458 102.967,-124.458"/>
</g>
<!-- Node301 -->
<g id="node6" class="node"><title>Node301</title>
<g id="a_node6"><a xlink:href="group___c_m_s_i_s___core___n_v_i_c_functions.xhtml#ga3349f2e3580d7ce22d6530b7294e5921" target="_top" xlink:title="Enable External Interrupt. ">
<polygon fill="white" stroke="black" points="114,-73.4581 114,-92.4581 207,-92.4581 207,-73.4581 114,-73.4581"/>
<text text-anchor="middle" x="160.5" y="-80.4581" font-family="Helvetica,sans-Serif" font-size="10.00">NVIC_EnableIRQ</text>
</a>
</g>
</g>
<!-- Node295&#45;&gt;Node301 -->
<g id="edge5" class="edge"><title>Node295&#45;&gt;Node301</title>
<path fill="none" stroke="midnightblue" d="M67.9119,-111.369C83.2903,-106.599 102.082,-100.769 118.633,-95.6353"/>
<polygon fill="midnightblue" stroke="midnightblue" points="120.084,-98.8498 128.598,-92.5441 118.01,-92.164 120.084,-98.8498"/>
</g>
<!-- Node302 -->
<g id="node7" class="node"><title>Node302</title>
<g id="a_node7"><a xlink:href="group__udd__udphs__group.xhtml#gae37fb8512458fac3dc9d11746e99ffb6" target="_top" xlink:title="Authorize or not the CPU powerdown mode. ">
<polygon fill="white" stroke="red" points="111.5,-35.4581 111.5,-54.4581 209.5,-54.4581 209.5,-35.4581 111.5,-35.4581"/>
<text text-anchor="middle" x="160.5" y="-42.4581" font-family="Helvetica,sans-Serif" font-size="10.00">udd_sleep_mode</text>
</a>
</g>
</g>
<!-- Node295&#45;&gt;Node302 -->
<g id="edge6" class="edge"><title>Node295&#45;&gt;Node302</title>
<path fill="none" stroke="midnightblue" d="M46.8191,-111.329C59.8647,-98.9684 84.0623,-77.5038 108,-63.9581 111.493,-61.9817 115.23,-60.1415 119.036,-58.446"/>
<polygon fill="midnightblue" stroke="midnightblue" points="120.626,-61.5766 128.542,-54.5347 117.962,-55.1032 120.626,-61.5766"/>
</g>
<!-- Node303 -->
<g id="node8" class="node"><title>Node303</title>
<g id="a_node8"><a xlink:href="group__udd__udphs__group.xhtml#ga7a7c0d9236c922c2af33c6702565a99f" target="_top" xlink:title="udd_attach">
<polygon fill="white" stroke="black" points="249,-35.4581 249,-54.4581 320,-54.4581 320,-35.4581 249,-35.4581"/>
<text text-anchor="middle" x="284.5" y="-42.4581" font-family="Helvetica,sans-Serif" font-size="10.00">udd_attach</text>
</a>
</g>
</g>
<!-- Node295&#45;&gt;Node303 -->
<g id="edge11" class="edge"><title>Node295&#45;&gt;Node303</title>
<path fill="none" stroke="midnightblue" d="M44.9604,-130.55C56.9619,-144.173 81.1591,-168.517 108,-177.958 152.023,-193.443 173.014,-202.019 213,-177.958 254.282,-153.117 272.668,-95.0783 279.726,-64.5396"/>
<polygon fill="midnightblue" stroke="midnightblue" points="283.173,-65.1552 281.835,-54.6452 276.327,-63.6958 283.173,-65.1552"/>
</g>
<!-- Node302&#45;&gt;Node303 -->
<g id="edge7" class="edge"><title>Node302&#45;&gt;Node303</title>
<path fill="none" stroke="midnightblue" d="M209.718,-38.3416C219.304,-38.1387 229.332,-38.1671 238.795,-38.4269"/>
<polygon fill="midnightblue" stroke="midnightblue" points="238.671,-41.9246 248.795,-38.7996 238.932,-34.9295 238.671,-41.9246"/>
</g>
<!-- Node303&#45;&gt;Node296 -->
<g id="edge8" class="edge"><title>Node303&#45;&gt;Node296</title>
<path fill="none" stroke="midnightblue" d="M295.305,-54.6777C314.91,-74.1122 359.152,-117.969 383.552,-142.157"/>
<polygon fill="midnightblue" stroke="midnightblue" points="381.154,-144.709 390.72,-149.263 386.082,-139.737 381.154,-144.709"/>
</g>
<!-- Node303&#45;&gt;Node297 -->
<g id="edge10" class="edge"><title>Node303&#45;&gt;Node297</title>
<path fill="none" stroke="midnightblue" d="M320.004,-39.2575C328.176,-37.9074 337.089,-36.4347 345.911,-34.9771"/>
<polygon fill="midnightblue" stroke="midnightblue" points="346.493,-38.4286 355.788,-33.3452 345.352,-31.5222 346.493,-38.4286"/>
</g>
<!-- Node303&#45;&gt;Node302 -->
<g id="edge9" class="edge"><title>Node303&#45;&gt;Node302</title>
<path fill="none" stroke="midnightblue" d="M248.795,-51.1166C239.777,-51.5483 229.81,-51.7437 219.934,-51.7028"/>
<polygon fill="midnightblue" stroke="midnightblue" points="219.761,-48.2005 209.718,-51.5746 219.673,-55.1999 219.761,-48.2005"/>
</g>
</g>
</svg>
