<?xml version="1.0" encoding="UTF-8" standalone="no"?>
<!DOCTYPE svg PUBLIC "-//W3C//DTD SVG 1.1//EN"
 "http://www.w3.org/Graphics/SVG/1.1/DTD/svg11.dtd">
<!-- Generated by graphviz version 2.38.0 (20140413.2041)
 -->
<!-- Title: Interpolation Functions Pages: 1 -->
<svg width="284pt" height="66pt"
 viewBox="0.00 0.00 284.00 66.00" xmlns="http://www.w3.org/2000/svg" xmlns:xlink="http://www.w3.org/1999/xlink">
<g id="graph0" class="graph" transform="scale(1 1) rotate(0) translate(4 62)">
<title>Interpolation Functions</title>
<polygon fill="white" stroke="none" points="-4,4 -4,-62 280,-62 280,4 -4,4"/>
<!-- Node0 -->
<g id="node1" class="node"><title>Node0</title>
<polygon fill="#bfbfbf" stroke="black" points="0,-19.5 0,-38.5 125,-38.5 125,-19.5 0,-19.5"/>
<text text-anchor="middle" x="62.5" y="-26.5" font-family="Helvetica,sans-Serif" font-size="10.00">Interpolation Functions</text>
</g>
<!-- Node2 -->
<g id="node2" class="node"><title>Node2</title>
<g id="a_node2"><a xlink:href="group___bilinear_interpolate.xhtml" target="_top" xlink:title="Bilinear interpolation is an extension of linear interpolation applied to a two dimensional grid...">
<polygon fill="white" stroke="black" points="161,-38.5 161,-57.5 276,-57.5 276,-38.5 161,-38.5"/>
<text text-anchor="middle" x="218.5" y="-45.5" font-family="Helvetica,sans-Serif" font-size="10.00">Bilinear Interpolation</text>
</a>
</g>
</g>
<!-- Node0&#45;&gt;Node2 -->
<g id="edge2" class="edge"><title>Node0&#45;&gt;Node2</title>
<path fill="none" stroke="black" d="M135.226,-37.8493C143.78,-38.9046 152.42,-39.9707 160.723,-40.9951"/>
<polygon fill="black" stroke="black" points="135.604,-34.3695 125.25,-36.6185 134.747,-41.3168 135.604,-34.3695"/>
</g>
<!-- Node1 -->
<g id="node3" class="node"><title>Node1</title>
<g id="a_node3"><a xlink:href="group___linear_interpolate.xhtml" target="_top" xlink:title="Linear interpolation is a method of curve fitting using linear polynomials. ">
<polygon fill="white" stroke="black" points="164,-0.5 164,-19.5 273,-19.5 273,-0.5 164,-0.5"/>
<text text-anchor="middle" x="218.5" y="-7.5" font-family="Helvetica,sans-Serif" font-size="10.00">Linear Interpolation</text>
</a>
</g>
</g>
<!-- Node0&#45;&gt;Node1 -->
<g id="edge1" class="edge"><title>Node0&#45;&gt;Node1</title>
<path fill="none" stroke="black" d="M135.178,-20.1566C144.767,-18.9735 154.467,-17.7768 163.679,-16.6403"/>
<polygon fill="black" stroke="black" points="134.747,-16.6832 125.25,-21.3815 135.604,-23.6305 134.747,-16.6832"/>
</g>
</g>
</svg>
