<?xml version="1.0" encoding="UTF-8" standalone="no"?>
<!DOCTYPE svg PUBLIC "-//W3C//DTD SVG 1.1//EN"
 "http://www.w3.org/Graphics/SVG/1.1/DTD/svg11.dtd">
<!-- Generated by graphviz version 2.38.0 (20140413.2041)
 -->
<!-- Title: UDP_EnablePeripheralClock Pages: 1 -->
<svg width="316pt" height="66pt"
 viewBox="0.00 0.00 316.00 66.00" xmlns="http://www.w3.org/2000/svg" xmlns:xlink="http://www.w3.org/1999/xlink">
<g id="graph0" class="graph" transform="scale(1 1) rotate(0) translate(4 62)">
<title>UDP_EnablePeripheralClock</title>
<polygon fill="white" stroke="none" points="-4,4 -4,-62 312,-62 312,4 -4,4"/>
<!-- Node27 -->
<g id="node1" class="node"><title>Node27</title>
<polygon fill="#bfbfbf" stroke="black" points="0,-19.5 0,-38.5 149,-38.5 149,-19.5 0,-19.5"/>
<text text-anchor="middle" x="74.5" y="-26.5" font-family="Helvetica,sans-Serif" font-size="10.00">UDP_EnablePeripheralClock</text>
</g>
<!-- Node28 -->
<g id="node2" class="node"><title>Node28</title>
<g id="a_node2"><a xlink:href="pmc_8h.xhtml#a13d9ea02189cb126f06a7d9c7241314a" target="_top" xlink:title="Get Periph Status for the given peripheral ID. ">
<polygon fill="white" stroke="black" points="187,-38.5 187,-57.5 306,-57.5 306,-38.5 187,-38.5"/>
<text text-anchor="middle" x="246.5" y="-45.5" font-family="Helvetica,sans-Serif" font-size="10.00">PMC_IsPeriphEnabled</text>
</a>
</g>
</g>
<!-- Node27&#45;&gt;Node28 -->
<g id="edge1" class="edge"><title>Node27&#45;&gt;Node28</title>
<path fill="none" stroke="midnightblue" d="M149.076,-37.2232C158.269,-38.2506 167.643,-39.2984 176.759,-40.3171"/>
<polygon fill="midnightblue" stroke="midnightblue" points="176.59,-43.82 186.917,-41.4524 177.367,-36.8633 176.59,-43.82"/>
</g>
<!-- Node29 -->
<g id="node3" class="node"><title>Node29</title>
<g id="a_node3"><a xlink:href="pmc_8h.xhtml#a4154148b8d69545bca1b5c868c004d49" target="_top" xlink:title="Enables the clock of a peripheral. ">
<polygon fill="white" stroke="black" points="185,-0.5 185,-19.5 308,-19.5 308,-0.5 185,-0.5"/>
<text text-anchor="middle" x="246.5" y="-7.5" font-family="Helvetica,sans-Serif" font-size="10.00">PMC_EnablePeripheral</text>
</a>
</g>
</g>
<!-- Node27&#45;&gt;Node29 -->
<g id="edge2" class="edge"><title>Node27&#45;&gt;Node29</title>
<path fill="none" stroke="midnightblue" d="M149.076,-20.7768C157.561,-19.8285 166.2,-18.8629 174.648,-17.9188"/>
<polygon fill="midnightblue" stroke="midnightblue" points="175.285,-21.3695 184.834,-16.7803 174.507,-14.4128 175.285,-21.3695"/>
</g>
</g>
</svg>
