<?xml version="1.0" encoding="UTF-8" standalone="no"?>
<!DOCTYPE svg PUBLIC "-//W3C//DTD SVG 1.1//EN"
 "http://www.w3.org/Graphics/SVG/1.1/DTD/svg11.dtd">
<!-- Generated by graphviz version 2.38.0 (20140413.2041)
 -->
<!-- Title: Usb_general Pages: 1 -->
<svg width="216pt" height="66pt"
 viewBox="0.00 0.00 216.00 66.00" xmlns="http://www.w3.org/2000/svg" xmlns:xlink="http://www.w3.org/1999/xlink">
<g id="graph0" class="graph" transform="scale(1 1) rotate(0) translate(4 62)">
<title>Usb_general</title>
<polygon fill="white" stroke="none" points="-4,4 -4,-62 212,-62 212,4 -4,4"/>
<!-- Node2 -->
<g id="node1" class="node"><title>Node2</title>
<g id="a_node1"><a xlink:href="group__usb__request.xhtml" target="_top" xlink:title="USB Requests">
<polygon fill="white" stroke="black" points="118.5,-38.5 118.5,-57.5 202.5,-57.5 202.5,-38.5 118.5,-38.5"/>
<text text-anchor="middle" x="160.5" y="-45.5" font-family="Helvetica,sans-Serif" font-size="10.00">USB Requests</text>
</a>
</g>
</g>
<!-- Node0 -->
<g id="node2" class="node"><title>Node0</title>
<polygon fill="#bfbfbf" stroke="black" points="0,-19.5 0,-38.5 77,-38.5 77,-19.5 0,-19.5"/>
<text text-anchor="middle" x="38.5" y="-26.5" font-family="Helvetica,sans-Serif" font-size="10.00">Usb_general</text>
</g>
<!-- Node0&#45;&gt;Node2 -->
<g id="edge2" class="edge"><title>Node0&#45;&gt;Node2</title>
<path fill="none" stroke="black" d="M87.1962,-36.5519C97.4676,-38.1782 108.242,-39.8841 118.243,-41.4677"/>
<polygon fill="black" stroke="black" points="87.5638,-33.0666 77.1395,-34.9596 86.4691,-39.9805 87.5638,-33.0666"/>
</g>
<!-- Node1 -->
<g id="node3" class="node"><title>Node1</title>
<g id="a_node3"><a xlink:href="group__usb__descriptor.xhtml" target="_top" xlink:title="USB Descriptors">
<polygon fill="white" stroke="black" points="113,-0.5 113,-19.5 208,-19.5 208,-0.5 113,-0.5"/>
<text text-anchor="middle" x="160.5" y="-7.5" font-family="Helvetica,sans-Serif" font-size="10.00">USB Descriptors</text>
</a>
</g>
</g>
<!-- Node0&#45;&gt;Node1 -->
<g id="edge1" class="edge"><title>Node0&#45;&gt;Node1</title>
<path fill="none" stroke="black" d="M87.1759,-21.4513C95.5795,-20.1207 104.32,-18.7368 112.699,-17.4101"/>
<polygon fill="black" stroke="black" points="86.4691,-18.0195 77.1395,-23.0404 87.5638,-24.9334 86.4691,-18.0195"/>
</g>
</g>
</svg>
