<?xml version="1.0" encoding="UTF-8" standalone="no"?>
<!DOCTYPE svg PUBLIC "-//W3C//DTD SVG 1.1//EN"
 "http://www.w3.org/Graphics/SVG/1.1/DTD/svg11.dtd">
<!-- Generated by graphviz version 2.38.0 (20140413.2041)
 -->
<!-- Title: HSMCI_ConfigureTransfer Pages: 1 -->
<svg width="275pt" height="66pt"
 viewBox="0.00 0.00 275.00 66.00" xmlns="http://www.w3.org/2000/svg" xmlns:xlink="http://www.w3.org/1999/xlink">
<g id="graph0" class="graph" transform="scale(1 1) rotate(0) translate(4 62)">
<title>HSMCI_ConfigureTransfer</title>
<polygon fill="white" stroke="none" points="-4,4 -4,-62 271,-62 271,4 -4,4"/>
<!-- Node20 -->
<g id="node1" class="node"><title>Node20</title>
<polygon fill="#bfbfbf" stroke="black" points="0,-19.5 0,-38.5 137,-38.5 137,-19.5 0,-19.5"/>
<text text-anchor="middle" x="68.5" y="-26.5" font-family="Helvetica,sans-Serif" font-size="10.00">HSMCI_ConfigureTransfer</text>
</g>
<!-- Node21 -->
<g id="node2" class="node"><title>Node21</title>
<g id="a_node2"><a xlink:href="group__mcid__functions.xhtml#ga0f7fea41ecb05d212817789962f3160b" target="_top" xlink:title="SD/MMC command. ">
<polygon fill="white" stroke="black" points="173,-38.5 173,-57.5 267,-57.5 267,-38.5 173,-38.5"/>
<text text-anchor="middle" x="220" y="-45.5" font-family="Helvetica,sans-Serif" font-size="10.00">MCID_SendCmd</text>
</a>
</g>
</g>
<!-- Node20&#45;&gt;Node21 -->
<g id="edge1" class="edge"><title>Node20&#45;&gt;Node21</title>
<path fill="none" stroke="midnightblue" d="M147.45,-38.9067C156.14,-40.0111 164.771,-41.108 172.874,-42.1379"/>
<polygon fill="midnightblue" stroke="midnightblue" points="147.613,-35.3993 137.251,-37.6105 146.73,-42.3435 147.613,-35.3993"/>
</g>
<!-- Node22 -->
<g id="node3" class="node"><title>Node22</title>
<g id="a_node3"><a xlink:href="group__mcid__functions.xhtml#ga03c7b7af1b4abf00f759b0a47c476baf" target="_top" xlink:title="Reset MCID and disable HW. ">
<polygon fill="white" stroke="red" points="183.5,-0.5 183.5,-19.5 256.5,-19.5 256.5,-0.5 183.5,-0.5"/>
<text text-anchor="middle" x="220" y="-7.5" font-family="Helvetica,sans-Serif" font-size="10.00">MCID_Reset</text>
</a>
</g>
</g>
<!-- Node20&#45;&gt;Node22 -->
<g id="edge2" class="edge"><title>Node20&#45;&gt;Node22</title>
<path fill="none" stroke="midnightblue" d="M147.352,-19.1058C159.95,-17.5047 172.43,-15.9187 183.357,-14.5298"/>
<polygon fill="midnightblue" stroke="midnightblue" points="146.73,-15.6565 137.251,-20.3895 147.613,-22.6007 146.73,-15.6565"/>
</g>
</g>
</svg>
