<?xml version="1.0" encoding="UTF-8" standalone="no"?>
<!DOCTYPE svg PUBLIC "-//W3C//DTD SVG 1.1//EN"
 "http://www.w3.org/Graphics/SVG/1.1/DTD/svg11.dtd">
<!-- Generated by graphviz version 2.38.0 (20140413.2041)
 -->
<!-- Title: USBH_dev_get_string Pages: 1 -->
<svg width="286pt" height="78pt"
 viewBox="0.00 0.00 286.00 77.50" xmlns="http://www.w3.org/2000/svg" xmlns:xlink="http://www.w3.org/1999/xlink">
<g id="graph0" class="graph" transform="scale(1 1) rotate(0) translate(4 73.5)">
<title>USBH_dev_get_string</title>
<polygon fill="white" stroke="none" points="-4,4 -4,-73.5 282,-73.5 282,4 -4,4"/>
<!-- Node4 -->
<g id="node1" class="node"><title>Node4</title>
<polygon fill="#bfbfbf" stroke="black" points="0,-28 0,-47 121,-47 121,-28 0,-28"/>
<text text-anchor="middle" x="60.5" y="-35" font-family="Helvetica,sans-Serif" font-size="10.00">USBH_dev_get_string</text>
</g>
<!-- Node5 -->
<g id="node2" class="node"><title>Node5</title>
<g id="a_node2"><a xlink:href="group__uhd__group.xhtml#ga11038bdbac3a23c70a7b7f5abcecc8ba" target="_top" xlink:title="Add a setup request in the control endpoint setup queue. ">
<polygon fill="white" stroke="red" points="157,-50 157,-69 278,-69 278,-50 157,-50"/>
<text text-anchor="middle" x="217.5" y="-57" font-family="Helvetica,sans-Serif" font-size="10.00">USBH_HAL_SetupReq</text>
</a>
</g>
</g>
<!-- Node4&#45;&gt;Node5 -->
<g id="edge1" class="edge"><title>Node4&#45;&gt;Node5</title>
<path fill="none" stroke="midnightblue" d="M121.427,-46.0058C129.816,-47.1964 138.494,-48.4282 147.041,-49.6412"/>
<polygon fill="midnightblue" stroke="midnightblue" points="146.595,-53.113 156.988,-51.0531 147.579,-46.1825 146.595,-53.113"/>
</g>
<!-- Node19 -->
<g id="node3" class="node"><title>Node19</title>
<g id="a_node3"><a xlink:href="group___u_s_b_h__group__interne.xhtml#ga2d73340a79aefd4d383d702946479d91" target="_top" xlink:title="Callback used to signal the end of a setup request. ">
<polygon fill="white" stroke="black" points="158,-0.5 158,-30.5 277,-30.5 277,-0.5 158,-0.5"/>
<text text-anchor="start" x="166" y="-18.5" font-family="Helvetica,sans-Serif" font-size="10.00">USBH_setup_request</text>
<text text-anchor="middle" x="217.5" y="-7.5" font-family="Helvetica,sans-Serif" font-size="10.00">_callback</text>
</a>
</g>
</g>
<!-- Node4&#45;&gt;Node19 -->
<g id="edge2" class="edge"><title>Node4&#45;&gt;Node19</title>
<path fill="none" stroke="midnightblue" d="M121.427,-28.9942C129.999,-27.7775 138.874,-26.5179 147.602,-25.2791"/>
<polygon fill="midnightblue" stroke="midnightblue" points="148.344,-28.709 157.753,-23.8383 147.36,-21.7784 148.344,-28.709"/>
</g>
</g>
</svg>
