<?xml version="1.0" encoding="UTF-8" standalone="no"?>
<!DOCTYPE svg PUBLIC "-//W3C//DTD SVG 1.1//EN"
 "http://www.w3.org/Graphics/SVG/1.1/DTD/svg11.dtd">
<!-- Generated by graphviz version 2.38.0 (20140413.2041)
 -->
<!-- Title: udd_detach Pages: 1 -->
<svg width="215pt" height="66pt"
 viewBox="0.00 0.00 215.00 66.00" xmlns="http://www.w3.org/2000/svg" xmlns:xlink="http://www.w3.org/1999/xlink">
<g id="graph0" class="graph" transform="scale(1 1) rotate(0) translate(4 62)">
<title>udd_detach</title>
<polygon fill="white" stroke="none" points="-4,4 -4,-62 211,-62 211,4 -4,4"/>
<!-- Node279 -->
<g id="node1" class="node"><title>Node279</title>
<polygon fill="#bfbfbf" stroke="black" points="0,-38.5 0,-57.5 73,-57.5 73,-38.5 0,-38.5"/>
<text text-anchor="middle" x="36.5" y="-45.5" font-family="Helvetica,sans-Serif" font-size="10.00">udd_detach</text>
</g>
<!-- Node280 -->
<g id="node2" class="node"><title>Node280</title>
<g id="a_node2"><a xlink:href="group__udd__udphs__group.xhtml#gae37fb8512458fac3dc9d11746e99ffb6" target="_top" xlink:title="Authorize or not the CPU powerdown mode. ">
<polygon fill="white" stroke="red" points="109,-38.5 109,-57.5 207,-57.5 207,-38.5 109,-38.5"/>
<text text-anchor="middle" x="158" y="-45.5" font-family="Helvetica,sans-Serif" font-size="10.00">udd_sleep_mode</text>
</a>
</g>
</g>
<!-- Node279&#45;&gt;Node280 -->
<g id="edge1" class="edge"><title>Node279&#45;&gt;Node280</title>
<path fill="none" stroke="midnightblue" d="M83.1132,-41.4208C91.5834,-41.2126 100.456,-41.1947 108.995,-41.3673"/>
<polygon fill="midnightblue" stroke="midnightblue" points="82.9035,-37.9259 73.0304,-41.7692 83.1453,-44.9217 82.9035,-37.9259"/>
</g>
<!-- Node285 -->
<g id="node3" class="node"><title>Node285</title>
<g id="a_node3"><a xlink:href="group__udd__udphs__group.xhtml#gab283432057b934e9d73ac9282d9b0f11" target="_top" xlink:title="udd_disable">
<polygon fill="white" stroke="black" points="121,-0.5 121,-19.5 195,-19.5 195,-0.5 121,-0.5"/>
<text text-anchor="middle" x="158" y="-7.5" font-family="Helvetica,sans-Serif" font-size="10.00">udd_disable</text>
</a>
</g>
</g>
<!-- Node279&#45;&gt;Node285 -->
<g id="edge3" class="edge"><title>Node279&#45;&gt;Node285</title>
<path fill="none" stroke="midnightblue" d="M77.3766,-35.3196C93.523,-30.1852 111.854,-24.3559 126.855,-19.5859"/>
<polygon fill="midnightblue" stroke="midnightblue" points="76.124,-32.0451 67.6549,-38.411 78.2453,-38.716 76.124,-32.0451"/>
</g>
<!-- Node280&#45;&gt;Node279 -->
<g id="edge2" class="edge"><title>Node280&#45;&gt;Node279</title>
<path fill="none" stroke="midnightblue" d="M98.7495,-54.7481C89.9664,-54.7703 81.1401,-54.5978 73.0304,-54.2308"/>
<polygon fill="midnightblue" stroke="midnightblue" points="99.0347,-58.2452 108.995,-54.6327 98.9558,-51.2457 99.0347,-58.2452"/>
</g>
</g>
</svg>
