<?xml version="1.0" encoding="UTF-8" standalone="no"?>
<!DOCTYPE svg PUBLIC "-//W3C//DTD SVG 1.1//EN"
 "http://www.w3.org/Graphics/SVG/1.1/DTD/svg11.dtd">
<!-- Generated by graphviz version 2.38.0 (20140413.2041)
 -->
<!-- Title: CDCDSerialPort_RequestHandler Pages: 1 -->
<svg width="399pt" height="66pt"
 viewBox="0.00 0.00 399.00 66.00" xmlns="http://www.w3.org/2000/svg" xmlns:xlink="http://www.w3.org/1999/xlink">
<g id="graph0" class="graph" transform="scale(1 1) rotate(0) translate(4 62)">
<title>CDCDSerialPort_RequestHandler</title>
<polygon fill="white" stroke="none" points="-4,4 -4,-62 395,-62 395,4 -4,4"/>
<!-- Node1408 -->
<g id="node1" class="node"><title>Node1408</title>
<polygon fill="#bfbfbf" stroke="black" points="0,-19.5 0,-38.5 173,-38.5 173,-19.5 0,-19.5"/>
<text text-anchor="middle" x="86.5" y="-26.5" font-family="Helvetica,sans-Serif" font-size="10.00">CDCDSerialPort_RequestHandler</text>
</g>
<!-- Node1409 -->
<g id="node2" class="node"><title>Node1409</title>
<g id="a_node2"><a xlink:href="group__usbd__cdc.xhtml#gae9ba93a4fe6bb97098e92d54e3aff6a2" target="_top" xlink:title="Handles CDC&#45;specific SETUP requests. ">
<polygon fill="white" stroke="red" points="223.5,-38.5 223.5,-57.5 376.5,-57.5 376.5,-38.5 223.5,-38.5"/>
<text text-anchor="middle" x="300" y="-45.5" font-family="Helvetica,sans-Serif" font-size="10.00">CDCDSerial_RequestHandler</text>
</a>
</g>
</g>
<!-- Node1408&#45;&gt;Node1409 -->
<g id="edge1" class="edge"><title>Node1408&#45;&gt;Node1409</title>
<path fill="none" stroke="midnightblue" d="M183.408,-37.6159C196.804,-38.8193 210.412,-40.0417 223.363,-41.2052"/>
<polygon fill="midnightblue" stroke="midnightblue" points="183.493,-34.1095 173.22,-36.7006 182.867,-41.0814 183.493,-34.1095"/>
</g>
<!-- Node1415 -->
<g id="node3" class="node"><title>Node1415</title>
<g id="a_node3"><a xlink:href="group__usbd__composite__cdccdc.xhtml#ga9ba1f9929b5a8da6905543152693e5a4" target="_top" xlink:title="Handles composite&#45;specific USB requests sent by the host, and forwards standard ones to the USB devic...">
<polygon fill="white" stroke="black" points="209,-0.5 209,-19.5 391,-19.5 391,-0.5 209,-0.5"/>
<text text-anchor="middle" x="300" y="-7.5" font-family="Helvetica,sans-Serif" font-size="10.00">DUALCDCDDriver_RequestHandler</text>
</a>
</g>
</g>
<!-- Node1408&#45;&gt;Node1415 -->
<g id="edge2" class="edge"><title>Node1408&#45;&gt;Node1415</title>
<path fill="none" stroke="midnightblue" d="M183.419,-20.3832C191.826,-19.6279 200.317,-18.8652 208.676,-18.1142"/>
<polygon fill="midnightblue" stroke="midnightblue" points="182.867,-16.9186 173.22,-21.2994 183.493,-23.8905 182.867,-16.9186"/>
</g>
</g>
</svg>
