<?xml version="1.0" encoding="UTF-8" standalone="no"?>
<!DOCTYPE svg PUBLIC "-//W3C//DTD SVG 1.1//EN"
 "http://www.w3.org/Graphics/SVG/1.1/DTD/svg11.dtd">
<!-- Generated by graphviz version 2.38.0 (20140413.2041)
 -->
<!-- Title: USBH_setup_request_callback Pages: 1 -->
<svg width="303pt" height="78pt"
 viewBox="0.00 0.00 303.00 77.50" xmlns="http://www.w3.org/2000/svg" xmlns:xlink="http://www.w3.org/1999/xlink">
<g id="graph0" class="graph" transform="scale(1 1) rotate(0) translate(4 73.5)">
<title>USBH_setup_request_callback</title>
<polygon fill="white" stroke="none" points="-4,4 -4,-73.5 299,-73.5 299,4 -4,4"/>
<!-- Node1571 -->
<g id="node1" class="node"><title>Node1571</title>
<polygon fill="#bfbfbf" stroke="black" points="0,-22.5 0,-52.5 119,-52.5 119,-22.5 0,-22.5"/>
<text text-anchor="start" x="8" y="-40.5" font-family="Helvetica,sans-Serif" font-size="10.00">USBH_setup_request</text>
<text text-anchor="middle" x="59.5" y="-29.5" font-family="Helvetica,sans-Serif" font-size="10.00">_callback</text>
</g>
<!-- Node1572 -->
<g id="node2" class="node"><title>Node1572</title>
<g id="a_node2"><a xlink:href="group___u_s_b_h__group.xhtml#gad0c84025bd918d3312e746c8e9c3c7f2" target="_top" xlink:title="Gets a USB string from a USB device. ">
<polygon fill="white" stroke="red" points="164.5,-50 164.5,-69 285.5,-69 285.5,-50 164.5,-50"/>
<text text-anchor="middle" x="225" y="-57" font-family="Helvetica,sans-Serif" font-size="10.00">USBH_dev_get_string</text>
</a>
</g>
</g>
<!-- Node1571&#45;&gt;Node1572 -->
<g id="edge1" class="edge"><title>Node1571&#45;&gt;Node1572</title>
<path fill="none" stroke="midnightblue" d="M129.237,-46.749C140.946,-48.3246 153.021,-49.9494 164.468,-51.4895"/>
<polygon fill="midnightblue" stroke="midnightblue" points="129.443,-43.2453 119.065,-45.3804 128.509,-50.1827 129.443,-43.2453"/>
</g>
<!-- Node1576 -->
<g id="node3" class="node"><title>Node1576</title>
<g id="a_node3"><a xlink:href="group___u_s_b_h__group.xhtml#ga616e65ce94318050363cf1c955d556f8" target="_top" xlink:title="Tests if the device supports the USB high speed This function can wait the end of a setup request and...">
<polygon fill="white" stroke="black" points="155,-0.5 155,-30.5 295,-30.5 295,-0.5 155,-0.5"/>
<text text-anchor="start" x="163" y="-18.5" font-family="Helvetica,sans-Serif" font-size="10.00">USBH_dev_is_high_speed</text>
<text text-anchor="middle" x="225" y="-7.5" font-family="Helvetica,sans-Serif" font-size="10.00">_support</text>
</a>
</g>
</g>
<!-- Node1571&#45;&gt;Node1576 -->
<g id="edge2" class="edge"><title>Node1571&#45;&gt;Node1576</title>
<path fill="none" stroke="midnightblue" d="M129.023,-28.2798C137.603,-27.1253 146.383,-25.9438 154.971,-24.7883"/>
<polygon fill="midnightblue" stroke="midnightblue" points="128.509,-24.8173 119.065,-29.6196 129.443,-31.7547 128.509,-24.8173"/>
</g>
</g>
</svg>
