<?xml version="1.0" encoding="UTF-8" standalone="no"?>
<!DOCTYPE svg PUBLIC "-//W3C//DTD SVG 1.1//EN"
 "http://www.w3.org/Graphics/SVG/1.1/DTD/svg11.dtd">
<!-- Generated by graphviz version 2.38.0 (20140413.2041)
 -->
<!-- Title: HIDDFunction_ReportReceived Pages: 1 -->
<svg width="344pt" height="78pt"
 viewBox="0.00 0.00 344.00 77.50" xmlns="http://www.w3.org/2000/svg" xmlns:xlink="http://www.w3.org/1999/xlink">
<g id="graph0" class="graph" transform="scale(1 1) rotate(0) translate(4 73.5)">
<title>HIDDFunction_ReportReceived</title>
<polygon fill="white" stroke="none" points="-4,4 -4,-73.5 340,-73.5 340,4 -4,4"/>
<!-- Node222 -->
<g id="node1" class="node"><title>Node222</title>
<polygon fill="#bfbfbf" stroke="black" points="0,-28 0,-47 159,-47 159,-28 0,-28"/>
<text text-anchor="middle" x="79.5" y="-35" font-family="Helvetica,sans-Serif" font-size="10.00">HIDDFunction_ReportReceived</text>
</g>
<!-- Node223 -->
<g id="node2" class="node"><title>Node223</title>
<g id="a_node2"><a xlink:href="group__usbd__hid.xhtml#ga60b335dc503af45617b01905dd2d1512" target="_top" xlink:title="Callback function when interrupt IN data sent to host. ">
<polygon fill="white" stroke="red" points="195.5,-50 195.5,-69 335.5,-69 335.5,-50 195.5,-50"/>
<text text-anchor="middle" x="265.5" y="-57" font-family="Helvetica,sans-Serif" font-size="10.00">HIDDFunction_ReportSent</text>
</a>
</g>
</g>
<!-- Node222&#45;&gt;Node223 -->
<g id="edge1" class="edge"><title>Node222&#45;&gt;Node223</title>
<path fill="none" stroke="midnightblue" d="M169.055,-48.0881C177.935,-49.1498 186.857,-50.2166 195.49,-51.2488"/>
<polygon fill="midnightblue" stroke="midnightblue" points="169.411,-44.6058 159.066,-46.8938 168.58,-51.5563 169.411,-44.6058"/>
</g>
<!-- Node225 -->
<g id="node3" class="node"><title>Node225</title>
<g id="a_node3"><a xlink:href="group__usbd__hid.xhtml#ga18ed1d60f54db7c0dd38b3db4fcccfa8" target="_top" xlink:title="Start polling interrupt OUT pipe (output report, host to device) if there is. ">
<polygon fill="white" stroke="red" points="195,-0.5 195,-30.5 336,-30.5 336,-0.5 195,-0.5"/>
<text text-anchor="start" x="203" y="-18.5" font-family="Helvetica,sans-Serif" font-size="10.00">HIDDFunction_StartPolling</text>
<text text-anchor="middle" x="265.5" y="-7.5" font-family="Helvetica,sans-Serif" font-size="10.00">Outputs</text>
</a>
</g>
</g>
<!-- Node222&#45;&gt;Node225 -->
<g id="edge2" class="edge"><title>Node222&#45;&gt;Node225</title>
<path fill="none" stroke="midnightblue" d="M169.176,-26.8975C177.818,-25.8641 186.5,-24.8261 194.915,-23.82"/>
<polygon fill="midnightblue" stroke="midnightblue" points="168.58,-23.4437 159.066,-28.1062 169.411,-30.3942 168.58,-23.4437"/>
</g>
</g>
</svg>
