<?xml version="1.0" encoding="UTF-8" standalone="no"?>
<!DOCTYPE svg PUBLIC "-//W3C//DTD SVG 1.1//EN"
 "http://www.w3.org/Graphics/SVG/1.1/DTD/svg11.dtd">
<!-- Generated by graphviz version 2.38.0 (20140413.2041)
 -->
<!-- Title: HSMCI_GetMode Pages: 1 -->
<svg width="235pt" height="66pt"
 viewBox="0.00 0.00 235.00 66.00" xmlns="http://www.w3.org/2000/svg" xmlns:xlink="http://www.w3.org/1999/xlink">
<g id="graph0" class="graph" transform="scale(1 1) rotate(0) translate(4 62)">
<title>HSMCI_GetMode</title>
<polygon fill="white" stroke="none" points="-4,4 -4,-62 231,-62 231,4 -4,4"/>
<!-- Node59 -->
<g id="node1" class="node"><title>Node59</title>
<polygon fill="#bfbfbf" stroke="black" points="0,-19.5 0,-38.5 97,-38.5 97,-19.5 0,-19.5"/>
<text text-anchor="middle" x="48.5" y="-26.5" font-family="Helvetica,sans-Serif" font-size="10.00">HSMCI_GetMode</text>
</g>
<!-- Node60 -->
<g id="node2" class="node"><title>Node60</title>
<g id="a_node2"><a xlink:href="group__mcid__functions.xhtml#ga0f7fea41ecb05d212817789962f3160b" target="_top" xlink:title="SD/MMC command. ">
<polygon fill="white" stroke="black" points="133,-38.5 133,-57.5 227,-57.5 227,-38.5 133,-38.5"/>
<text text-anchor="middle" x="180" y="-45.5" font-family="Helvetica,sans-Serif" font-size="10.00">MCID_SendCmd</text>
</a>
</g>
</g>
<!-- Node59&#45;&gt;Node60 -->
<g id="edge1" class="edge"><title>Node59&#45;&gt;Node60</title>
<path fill="none" stroke="midnightblue" d="M107.504,-37.5102C115.92,-38.745 124.49,-40.0024 132.636,-41.1976"/>
<polygon fill="midnightblue" stroke="midnightblue" points="107.755,-34.0097 97.3531,-36.0209 106.739,-40.9356 107.755,-34.0097"/>
</g>
<!-- Node61 -->
<g id="node3" class="node"><title>Node61</title>
<g id="a_node3"><a xlink:href="group__mcid__functions.xhtml#ga03c7b7af1b4abf00f759b0a47c476baf" target="_top" xlink:title="Reset MCID and disable HW. ">
<polygon fill="white" stroke="red" points="143.5,-0.5 143.5,-19.5 216.5,-19.5 216.5,-0.5 143.5,-0.5"/>
<text text-anchor="middle" x="180" y="-7.5" font-family="Helvetica,sans-Serif" font-size="10.00">MCID_Reset</text>
</a>
</g>
</g>
<!-- Node59&#45;&gt;Node61 -->
<g id="edge2" class="edge"><title>Node59&#45;&gt;Node61</title>
<path fill="none" stroke="midnightblue" d="M107.532,-20.4857C119.786,-18.6877 132.365,-16.8421 143.488,-15.2103"/>
<polygon fill="midnightblue" stroke="midnightblue" points="106.739,-17.0644 97.3531,-21.9791 107.755,-23.9903 106.739,-17.0644"/>
</g>
</g>
</svg>
