<?xml version="1.0" encoding="UTF-8" standalone="no"?>
<!DOCTYPE svg PUBLIC "-//W3C//DTD SVG 1.1//EN"
 "http://www.w3.org/Graphics/SVG/1.1/DTD/svg11.dtd">
<!-- Generated by graphviz version 2.38.0 (20140413.2041)
 -->
<!-- Title: _FlushUsbTxBuffers Pages: 1 -->
<svg width="267pt" height="104pt"
 viewBox="0.00 0.00 267.00 104.00" xmlns="http://www.w3.org/2000/svg" xmlns:xlink="http://www.w3.org/1999/xlink">
<g id="graph0" class="graph" transform="scale(1 1) rotate(0) translate(4 100)">
<title>_FlushUsbTxBuffers</title>
<polygon fill="white" stroke="none" points="-4,4 -4,-100 263,-100 263,4 -4,4"/>
<!-- Node41 -->
<g id="node1" class="node"><title>Node41</title>
<polygon fill="#bfbfbf" stroke="black" points="0,-38.5 0,-57.5 110,-57.5 110,-38.5 0,-38.5"/>
<text text-anchor="middle" x="55" y="-45.5" font-family="Helvetica,sans-Serif" font-size="10.00">_FlushUsbTxBuffers</text>
</g>
<!-- Node42 -->
<g id="node2" class="node"><title>Node42</title>
<g id="a_node2"><a xlink:href="group__usbd__cdc.xhtml#ga127cc185c908343e2c059c61cf6f20b6" target="_top" xlink:title="_UsbTxBufferPeek">
<polygon fill="white" stroke="black" points="151,-76.5 151,-95.5 254,-95.5 254,-76.5 151,-76.5"/>
<text text-anchor="middle" x="202.5" y="-83.5" font-family="Helvetica,sans-Serif" font-size="10.00">_UsbTxBufferPeek</text>
</a>
</g>
</g>
<!-- Node41&#45;&gt;Node42 -->
<g id="edge1" class="edge"><title>Node41&#45;&gt;Node42</title>
<path fill="none" stroke="midnightblue" d="M120.186,-58.0551C142.962,-63.7804 166.873,-70.6954 182.823,-76.4243"/>
<polygon fill="midnightblue" stroke="midnightblue" points="120.725,-54.5836 110.179,-55.5992 119.056,-61.3818 120.725,-54.5836"/>
</g>
<!-- Node43 -->
<g id="node3" class="node"><title>Node43</title>
<g id="a_node3"><a xlink:href="group__usbd__cdc.xhtml#gab841b1a9dc617afc102ab5badd8ee656" target="_top" xlink:title="_UsbDataSent">
<polygon fill="white" stroke="black" points="159.5,-38.5 159.5,-57.5 245.5,-57.5 245.5,-38.5 159.5,-38.5"/>
<text text-anchor="middle" x="202.5" y="-45.5" font-family="Helvetica,sans-Serif" font-size="10.00">_UsbDataSent</text>
</a>
</g>
</g>
<!-- Node41&#45;&gt;Node43 -->
<g id="edge3" class="edge"><title>Node41&#45;&gt;Node43</title>
<path fill="none" stroke="midnightblue" d="M120.547,-41.2883C133.611,-41.1659 147.033,-41.337 159.098,-41.8017"/>
<polygon fill="midnightblue" stroke="midnightblue" points="120.123,-37.7944 110.179,-41.4494 120.232,-44.7935 120.123,-37.7944"/>
</g>
<!-- Node44 -->
<g id="node4" class="node"><title>Node44</title>
<g id="a_node4"><a xlink:href="group__usbd__cdc.xhtml#ga1a69b4eba25b161f947805f21e00e1af" target="_top" xlink:title="Sends a data buffer through the virtual COM port created by the CDC device serial driver...">
<polygon fill="white" stroke="red" points="146,-0.5 146,-19.5 259,-19.5 259,-0.5 146,-0.5"/>
<text text-anchor="middle" x="202.5" y="-7.5" font-family="Helvetica,sans-Serif" font-size="10.00">CDCDEEMPort_Write</text>
</a>
</g>
</g>
<!-- Node41&#45;&gt;Node44 -->
<g id="edge5" class="edge"><title>Node41&#45;&gt;Node44</title>
<path fill="none" stroke="midnightblue" d="M102.653,-35.8157C122.853,-30.54 146.148,-24.4562 165.048,-19.5201"/>
<polygon fill="midnightblue" stroke="midnightblue" points="101.507,-32.4976 92.7158,-38.411 103.276,-39.2704 101.507,-32.4976"/>
</g>
<!-- Node42&#45;&gt;Node41 -->
<g id="edge2" class="edge"><title>Node42&#45;&gt;Node41</title>
<path fill="none" stroke="midnightblue" d="M141.216,-76.9169C117.327,-71.0213 91.5883,-63.6464 74.7237,-57.5924"/>
<polygon fill="midnightblue" stroke="midnightblue" points="140.416,-80.3242 150.957,-79.2622 142.054,-73.5186 140.416,-80.3242"/>
</g>
<!-- Node43&#45;&gt;Node41 -->
<g id="edge4" class="edge"><title>Node43&#45;&gt;Node41</title>
<path fill="none" stroke="midnightblue" d="M148.787,-54.5171C136.227,-54.816 122.803,-54.8272 110.179,-54.5506"/>
<polygon fill="midnightblue" stroke="midnightblue" points="149.211,-58.0058 159.098,-54.1983 148.994,-51.0091 149.211,-58.0058"/>
</g>
</g>
</svg>
