<?xml version="1.0" encoding="UTF-8" standalone="no"?>
<!DOCTYPE svg PUBLIC "-//W3C//DTD SVG 1.1//EN"
 "http://www.w3.org/Graphics/SVG/1.1/DTD/svg11.dtd">
<!-- Generated by graphviz version 2.38.0 (20140413.2041)
 -->
<!-- Title: MCI_Reset Pages: 1 -->
<svg width="319pt" height="85pt"
 viewBox="0.00 0.00 319.00 85.00" xmlns="http://www.w3.org/2000/svg" xmlns:xlink="http://www.w3.org/1999/xlink">
<g id="graph0" class="graph" transform="scale(1 1) rotate(0) translate(4 81)">
<title>MCI_Reset</title>
<polygon fill="white" stroke="none" points="-4,4 -4,-81 315,-81 315,4 -4,4"/>
<!-- Node74 -->
<g id="node1" class="node"><title>Node74</title>
<polygon fill="#bfbfbf" stroke="black" points="0,-19.5 0,-38.5 65,-38.5 65,-19.5 0,-19.5"/>
<text text-anchor="middle" x="32.5" y="-26.5" font-family="Helvetica,sans-Serif" font-size="10.00">MCI_Reset</text>
</g>
<!-- Node75 -->
<g id="node2" class="node"><title>Node75</title>
<g id="a_node2"><a xlink:href="group__mcid__functions.xhtml#ga8b24d6b7cbfd7240dc23dbd4c6759975" target="_top" xlink:title="Process pending events on the given MCI driver. ">
<polygon fill="white" stroke="red" points="109.5,-57.5 109.5,-76.5 193.5,-76.5 193.5,-57.5 109.5,-57.5"/>
<text text-anchor="middle" x="151.5" y="-64.5" font-family="Helvetica,sans-Serif" font-size="10.00">MCID_Handler</text>
</a>
</g>
</g>
<!-- Node74&#45;&gt;Node75 -->
<g id="edge1" class="edge"><title>Node74&#45;&gt;Node75</title>
<path fill="none" stroke="midnightblue" d="M72.5424,-41.6804C88.3509,-46.8148 106.299,-52.6441 120.985,-57.4141"/>
<polygon fill="midnightblue" stroke="midnightblue" points="73.6162,-38.3493 63.024,-38.589 71.4538,-45.0069 73.6162,-38.3493"/>
</g>
<!-- Node79 -->
<g id="node3" class="node"><title>Node79</title>
<g id="a_node3"><a xlink:href="group__mcid__functions.xhtml#gaa42ae91258675d685937a68c69b2afdf" target="_top" xlink:title="Cancel pending SD/MMC command. ">
<polygon fill="white" stroke="red" points="101,-19.5 101,-38.5 202,-38.5 202,-19.5 101,-19.5"/>
<text text-anchor="middle" x="151.5" y="-26.5" font-family="Helvetica,sans-Serif" font-size="10.00">MCID_CancelCmd</text>
</a>
</g>
</g>
<!-- Node74&#45;&gt;Node79 -->
<g id="edge2" class="edge"><title>Node74&#45;&gt;Node79</title>
<path fill="none" stroke="midnightblue" d="M75.2955,-29C83.5435,-29 92.2751,-29 100.756,-29"/>
<polygon fill="midnightblue" stroke="midnightblue" points="75.1619,-25.5001 65.1619,-29 75.1619,-32.5001 75.1619,-25.5001"/>
</g>
<!-- Node80 -->
<g id="node4" class="node"><title>Node80</title>
<g id="a_node4"><a xlink:href="group__mcid__functions.xhtml#ga03c7b7af1b4abf00f759b0a47c476baf" target="_top" xlink:title="Reset MCID and disable HW. ">
<polygon fill="white" stroke="red" points="238,-0.5 238,-19.5 311,-19.5 311,-0.5 238,-0.5"/>
<text text-anchor="middle" x="274.5" y="-7.5" font-family="Helvetica,sans-Serif" font-size="10.00">MCID_Reset</text>
</a>
</g>
</g>
<!-- Node74&#45;&gt;Node80 -->
<g id="edge4" class="edge"><title>Node74&#45;&gt;Node80</title>
<path fill="none" stroke="midnightblue" d="M70.5569,-16.6022C80.344,-13.8725 90.9753,-11.384 101,-10 148.021,-3.5083 202.942,-5.05515 237.956,-7.17506"/>
<polygon fill="midnightblue" stroke="midnightblue" points="69.3279,-13.3154 60.7241,-19.4981 71.3056,-20.0303 69.3279,-13.3154"/>
</g>
<!-- Node79&#45;&gt;Node80 -->
<g id="edge3" class="edge"><title>Node79&#45;&gt;Node80</title>
<path fill="none" stroke="midnightblue" d="M212.008,-19.6557C220.862,-18.2654 229.745,-16.8707 237.896,-15.5907"/>
<polygon fill="midnightblue" stroke="midnightblue" points="211.4,-16.2082 202.064,-21.2172 212.486,-23.1235 211.4,-16.2082"/>
</g>
</g>
</svg>
