<?xml version="1.0" encoding="UTF-8" standalone="no"?>
<!DOCTYPE svg PUBLIC "-//W3C//DTD SVG 1.1//EN"
 "http://www.w3.org/Graphics/SVG/1.1/DTD/svg11.dtd">
<!-- Generated by graphviz version 2.38.0 (20140413.2041)
 -->
<!-- Title: USBD_SetConfiguration Pages: 1 -->
<svg width="330pt" height="66pt"
 viewBox="0.00 0.00 330.00 66.00" xmlns="http://www.w3.org/2000/svg" xmlns:xlink="http://www.w3.org/1999/xlink">
<g id="graph0" class="graph" transform="scale(1 1) rotate(0) translate(4 62)">
<title>USBD_SetConfiguration</title>
<polygon fill="white" stroke="none" points="-4,4 -4,-62 326,-62 326,4 -4,4"/>
<!-- Node899 -->
<g id="node1" class="node"><title>Node899</title>
<polygon fill="#bfbfbf" stroke="black" points="0,-19.5 0,-38.5 131,-38.5 131,-19.5 0,-19.5"/>
<text text-anchor="middle" x="65.5" y="-26.5" font-family="Helvetica,sans-Serif" font-size="10.00">USBD_SetConfiguration</text>
</g>
<!-- Node900 -->
<g id="node2" class="node"><title>Node900</title>
<g id="a_node2"><a xlink:href="group__usbd__hal.xhtml#ga05c8714f0e31ed119a4ab594d687691a" target="_top" xlink:title="Sets the current device configuration. ">
<polygon fill="white" stroke="black" points="167,-38.5 167,-57.5 322,-57.5 322,-38.5 167,-38.5"/>
<text text-anchor="middle" x="244.5" y="-45.5" font-family="Helvetica,sans-Serif" font-size="10.00">USBD_HAL_SetConfiguration</text>
</a>
</g>
</g>
<!-- Node899&#45;&gt;Node900 -->
<g id="edge1" class="edge"><title>Node899&#45;&gt;Node900</title>
<path fill="none" stroke="midnightblue" d="M131.152,-35.9401C139.457,-36.8315 148.064,-37.7555 156.651,-38.6772"/>
<polygon fill="midnightblue" stroke="midnightblue" points="156.386,-42.1688 166.702,-39.7562 157.133,-35.2088 156.386,-42.1688"/>
</g>
<!-- Node901 -->
<g id="node3" class="node"><title>Node901</title>
<g id="a_node3"><a xlink:href="group__usbd__hal.xhtml#gaa9aba8ccdad2272b61db48b43466043b" target="_top" xlink:title="Reset endpoints and disable them. ">
<polygon fill="white" stroke="red" points="185,-0.5 185,-19.5 304,-19.5 304,-0.5 185,-0.5"/>
<text text-anchor="middle" x="244.5" y="-7.5" font-family="Helvetica,sans-Serif" font-size="10.00">USBD_HAL_ResetEPs</text>
</a>
</g>
</g>
<!-- Node899&#45;&gt;Node901 -->
<g id="edge2" class="edge"><title>Node899&#45;&gt;Node901</title>
<path fill="none" stroke="midnightblue" d="M131.152,-22.0599C145.297,-20.5415 160.321,-18.9288 174.624,-17.3935"/>
<polygon fill="midnightblue" stroke="midnightblue" points="175.32,-20.839 184.889,-16.2916 174.573,-13.879 175.32,-20.839"/>
</g>
</g>
</svg>
