<?xml version="1.0" encoding="UTF-8" standalone="no"?>
<!DOCTYPE svg PUBLIC "-//W3C//DTD SVG 1.1//EN"
 "http://www.w3.org/Graphics/SVG/1.1/DTD/svg11.dtd">
<!-- Generated by graphviz version 2.38.0 (20140413.2041)
 -->
<!-- Title: uhi_cdc_get_port Pages: 1 -->
<svg width="279pt" height="408pt"
 viewBox="0.00 0.00 279.00 408.00" xmlns="http://www.w3.org/2000/svg" xmlns:xlink="http://www.w3.org/1999/xlink">
<g id="graph0" class="graph" transform="scale(1 1) rotate(0) translate(4 404)">
<title>uhi_cdc_get_port</title>
<polygon fill="white" stroke="none" points="-4,4 -4,-404 275,-404 275,4 -4,4"/>
<!-- Node5 -->
<g id="node1" class="node"><title>Node5</title>
<polygon fill="#bfbfbf" stroke="black" points="0,-190.5 0,-209.5 98,-209.5 98,-190.5 0,-190.5"/>
<text text-anchor="middle" x="49" y="-197.5" font-family="Helvetica,sans-Serif" font-size="10.00">uhi_cdc_get_port</text>
</g>
<!-- Node6 -->
<g id="node2" class="node"><title>Node6</title>
<g id="a_node2"><a xlink:href="group__uhi__cdc__group__uhc.xhtml#gadbcfeecd8daa9af05daafe35d2835e18" target="_top" xlink:title="uhi_cdc_sof">
<polygon fill="white" stroke="red" points="166.5,-380.5 166.5,-399.5 238.5,-399.5 238.5,-380.5 166.5,-380.5"/>
<text text-anchor="middle" x="202.5" y="-387.5" font-family="Helvetica,sans-Serif" font-size="10.00">uhi_cdc_sof</text>
</a>
</g>
</g>
<!-- Node5&#45;&gt;Node6 -->
<g id="edge1" class="edge"><title>Node5&#45;&gt;Node6</title>
<path fill="none" stroke="midnightblue" d="M54.1872,-219.996C62.7314,-255.762 85.6031,-330.706 134,-371 143.075,-378.556 154.964,-383.114 166.232,-385.86"/>
<polygon fill="midnightblue" stroke="midnightblue" points="57.5146,-218.841 51.9023,-209.854 50.6857,-220.379 57.5146,-218.841"/>
</g>
<!-- Node8 -->
<g id="node3" class="node"><title>Node8</title>
<g id="a_node3"><a xlink:href="group__uhi__cdc__group__internal.xhtml#ga1e2a4888266cef7dfe80c8e2b801a3d2" target="_top" xlink:title="Changes the port configuration. ">
<polygon fill="white" stroke="red" points="153.5,-342.5 153.5,-361.5 251.5,-361.5 251.5,-342.5 153.5,-342.5"/>
<text text-anchor="middle" x="202.5" y="-349.5" font-family="Helvetica,sans-Serif" font-size="10.00">uhi_cdc_set_conf</text>
</a>
</g>
</g>
<!-- Node5&#45;&gt;Node8 -->
<g id="edge2" class="edge"><title>Node5&#45;&gt;Node8</title>
<path fill="none" stroke="midnightblue" d="M56.9028,-219.188C68.3485,-248.248 94.0336,-303.185 134,-333 139.757,-337.295 146.446,-340.619 153.331,-343.192"/>
<polygon fill="midnightblue" stroke="midnightblue" points="60.1429,-217.861 53.3301,-209.747 53.596,-220.338 60.1429,-217.861"/>
</g>
<!-- Node10 -->
<g id="node4" class="node"><title>Node10</title>
<g id="a_node4"><a xlink:href="group__uhi__cdc__group__internal.xhtml#ga6514d4bd06546b5ad90822cddd70e92a" target="_top" xlink:title="Sends a control line command on the port. ">
<polygon fill="white" stroke="red" points="145,-304.5 145,-323.5 260,-323.5 260,-304.5 145,-304.5"/>
<text text-anchor="middle" x="202.5" y="-311.5" font-family="Helvetica,sans-Serif" font-size="10.00">uhi_cdc_set_ctrl_line</text>
</a>
</g>
</g>
<!-- Node5&#45;&gt;Node10 -->
<g id="edge3" class="edge"><title>Node5&#45;&gt;Node10</title>
<path fill="none" stroke="midnightblue" d="M61.3727,-218.275C75.7031,-239.794 102.327,-275.117 134,-295 140.187,-298.884 147.181,-301.99 154.265,-304.471"/>
<polygon fill="midnightblue" stroke="midnightblue" points="64.2114,-216.219 55.8418,-209.723 58.3336,-220.021 64.2114,-216.219"/>
</g>
<!-- Node12 -->
<g id="node5" class="node"><title>Node12</title>
<g id="a_node5"><a xlink:href="group__uhi__cdc__group__internal.xhtml#ga5bfc8e7c676500af3faadcf847e13c81" target="_top" xlink:title="Manage the end of RX transfer. ">
<polygon fill="white" stroke="red" points="146,-266.5 146,-285.5 259,-285.5 259,-266.5 146,-266.5"/>
<text text-anchor="middle" x="202.5" y="-273.5" font-family="Helvetica,sans-Serif" font-size="10.00">uhi_cdc_rx_received</text>
</a>
</g>
</g>
<!-- Node5&#45;&gt;Node12 -->
<g id="edge4" class="edge"><title>Node5&#45;&gt;Node12</title>
<path fill="none" stroke="midnightblue" d="M69.7224,-216.09C86.0825,-228.749 110.404,-246.027 134,-257 142.058,-260.747 151.01,-263.903 159.689,-266.499"/>
<polygon fill="midnightblue" stroke="midnightblue" points="71.5245,-213.054 61.5076,-209.602 67.1858,-218.547 71.5245,-213.054"/>
</g>
<!-- Node16 -->
<g id="node6" class="node"><title>Node16</title>
<g id="a_node6"><a xlink:href="group__uhi__cdc__group__internal.xhtml#ga2d752930f3947081262a5ac64f05ac41" target="_top" xlink:title="Manage the end of TX transfer. ">
<polygon fill="white" stroke="red" points="155,-228.5 155,-247.5 250,-247.5 250,-228.5 155,-228.5"/>
<text text-anchor="middle" x="202.5" y="-235.5" font-family="Helvetica,sans-Serif" font-size="10.00">uhi_cdc_tx_send</text>
</a>
</g>
</g>
<!-- Node5&#45;&gt;Node16 -->
<g id="edge5" class="edge"><title>Node5&#45;&gt;Node16</title>
<path fill="none" stroke="midnightblue" d="M98.0016,-212.04C119.167,-217.349 143.686,-223.499 163.545,-228.48"/>
<polygon fill="midnightblue" stroke="midnightblue" points="98.7809,-208.627 88.2298,-209.589 97.0779,-215.417 98.7809,-208.627"/>
</g>
<!-- Node18 -->
<g id="node7" class="node"><title>Node18</title>
<g id="a_node7"><a xlink:href="group__uhi__cdc__group.xhtml#ga0a2032fe0ac6fe72d753182b9e1f7f6e" target="_top" xlink:title="This function returns the number of character available on the CDC line. ">
<polygon fill="white" stroke="red" points="134,-190.5 134,-209.5 271,-209.5 271,-190.5 134,-190.5"/>
<text text-anchor="middle" x="202.5" y="-197.5" font-family="Helvetica,sans-Serif" font-size="10.00">uhi_cdc_get_nb_received</text>
</a>
</g>
</g>
<!-- Node5&#45;&gt;Node18 -->
<g id="edge6" class="edge"><title>Node5&#45;&gt;Node18</title>
<path fill="none" stroke="midnightblue" d="M108.397,-200C116.779,-200 125.46,-200 133.999,-200"/>
<polygon fill="midnightblue" stroke="midnightblue" points="108.352,-196.5 98.3521,-200 108.352,-203.5 108.352,-196.5"/>
</g>
<!-- Node14 -->
<g id="node8" class="node"><title>Node14</title>
<g id="a_node8"><a xlink:href="group__uhi__cdc__group.xhtml#ga858b00699362740d4510094a6b937290" target="_top" xlink:title="Waits and gets a value on CDC line. ">
<polygon fill="white" stroke="black" points="163,-152.5 163,-171.5 242,-171.5 242,-152.5 163,-152.5"/>
<text text-anchor="middle" x="202.5" y="-159.5" font-family="Helvetica,sans-Serif" font-size="10.00">uhi_cdc_getc</text>
</a>
</g>
</g>
<!-- Node5&#45;&gt;Node14 -->
<g id="edge7" class="edge"><title>Node5&#45;&gt;Node14</title>
<path fill="none" stroke="midnightblue" d="M98.0016,-187.96C119.167,-182.651 143.686,-176.501 163.545,-171.52"/>
<polygon fill="midnightblue" stroke="midnightblue" points="97.0779,-184.583 88.2298,-190.411 98.7809,-191.373 97.0779,-184.583"/>
</g>
<!-- Node15 -->
<g id="node9" class="node"><title>Node15</title>
<g id="a_node9"><a xlink:href="group__uhi__cdc__group.xhtml#ga87e4110efd9fa4385db14a08bb03e0cc" target="_top" xlink:title="Reads a RAM buffer on CDC line. ">
<polygon fill="white" stroke="black" points="152.5,-114.5 152.5,-133.5 252.5,-133.5 252.5,-114.5 152.5,-114.5"/>
<text text-anchor="middle" x="202.5" y="-121.5" font-family="Helvetica,sans-Serif" font-size="10.00">uhi_cdc_read_buf</text>
</a>
</g>
</g>
<!-- Node5&#45;&gt;Node15 -->
<g id="edge8" class="edge"><title>Node5&#45;&gt;Node15</title>
<path fill="none" stroke="midnightblue" d="M69.7224,-183.91C86.0825,-171.251 110.404,-153.973 134,-143 142.058,-139.253 151.01,-136.097 159.689,-133.501"/>
<polygon fill="midnightblue" stroke="midnightblue" points="67.1858,-181.453 61.5076,-190.398 71.5245,-186.946 67.1858,-181.453"/>
</g>
<!-- Node20 -->
<g id="node10" class="node"><title>Node20</title>
<g id="a_node10"><a xlink:href="group__uhi__cdc__group.xhtml#gab4859cc34c89b2bca680156ed566e87e" target="_top" xlink:title="This function checks if a new character sent is possible The type int is used to support scanf redire...">
<polygon fill="white" stroke="black" points="146.5,-76.5 146.5,-95.5 258.5,-95.5 258.5,-76.5 146.5,-76.5"/>
<text text-anchor="middle" x="202.5" y="-83.5" font-family="Helvetica,sans-Serif" font-size="10.00">uhi_cdc_is_tx_ready</text>
</a>
</g>
</g>
<!-- Node5&#45;&gt;Node20 -->
<g id="edge9" class="edge"><title>Node5&#45;&gt;Node20</title>
<path fill="none" stroke="midnightblue" d="M61.3727,-181.725C75.7031,-160.206 102.327,-124.883 134,-105 140.187,-101.116 147.181,-98.0095 154.265,-95.5286"/>
<polygon fill="midnightblue" stroke="midnightblue" points="58.3336,-179.979 55.8418,-190.277 64.2114,-183.781 58.3336,-179.979"/>
</g>
<!-- Node21 -->
<g id="node11" class="node"><title>Node21</title>
<g id="a_node11"><a xlink:href="group__uhi__cdc__group.xhtml#ga46844aa62368cdc348bc1a7f79f4d240" target="_top" xlink:title="Puts a byte on CDC line The type int is used to support printf redirection from compiler LIB...">
<polygon fill="white" stroke="black" points="163,-38.5 163,-57.5 242,-57.5 242,-38.5 163,-38.5"/>
<text text-anchor="middle" x="202.5" y="-45.5" font-family="Helvetica,sans-Serif" font-size="10.00">uhi_cdc_putc</text>
</a>
</g>
</g>
<!-- Node5&#45;&gt;Node21 -->
<g id="edge10" class="edge"><title>Node5&#45;&gt;Node21</title>
<path fill="none" stroke="midnightblue" d="M56.9028,-180.812C68.3485,-151.752 94.0336,-96.8146 134,-67 142.392,-60.7397 152.763,-56.5413 162.837,-53.726"/>
<polygon fill="midnightblue" stroke="midnightblue" points="53.596,-179.662 53.3301,-190.253 60.1429,-182.139 53.596,-179.662"/>
</g>
<!-- Node22 -->
<g id="node12" class="node"><title>Node22</title>
<g id="a_node12"><a xlink:href="group__uhi__cdc__group.xhtml#gab52b161c804210312659742b4138c9f9" target="_top" xlink:title="Writes a RAM buffer on CDC line. ">
<polygon fill="white" stroke="black" points="152,-0.5 152,-19.5 253,-19.5 253,-0.5 152,-0.5"/>
<text text-anchor="middle" x="202.5" y="-7.5" font-family="Helvetica,sans-Serif" font-size="10.00">uhi_cdc_write_buf</text>
</a>
</g>
</g>
<!-- Node5&#45;&gt;Node22 -->
<g id="edge11" class="edge"><title>Node5&#45;&gt;Node22</title>
<path fill="none" stroke="midnightblue" d="M54.1872,-180.004C62.7314,-144.238 85.6031,-69.2937 134,-29 139.239,-24.6379 145.416,-21.275 151.87,-18.683"/>
<polygon fill="midnightblue" stroke="midnightblue" points="50.6857,-179.621 51.9023,-190.146 57.5146,-181.159 50.6857,-179.621"/>
</g>
</g>
</svg>
