<?xml version="1.0" encoding="UTF-8" standalone="no"?>
<!DOCTYPE svg PUBLIC "-//W3C//DTD SVG 1.1//EN"
 "http://www.w3.org/Graphics/SVG/1.1/DTD/svg11.dtd">
<!-- Generated by graphviz version 2.38.0 (20140413.2041)
 -->
<!-- Title: XDMAC_SetBlockControl Pages: 1 -->
<svg width="319pt" height="66pt"
 viewBox="0.00 0.00 319.00 66.00" xmlns="http://www.w3.org/2000/svg" xmlns:xlink="http://www.w3.org/1999/xlink">
<g id="graph0" class="graph" transform="scale(1 1) rotate(0) translate(4 62)">
<title>XDMAC_SetBlockControl</title>
<polygon fill="white" stroke="none" points="-4,4 -4,-62 315,-62 315,4 -4,4"/>
<!-- Node531 -->
<g id="node1" class="node"><title>Node531</title>
<polygon fill="#bfbfbf" stroke="black" points="0,-19.5 0,-38.5 134,-38.5 134,-19.5 0,-19.5"/>
<text text-anchor="middle" x="67" y="-26.5" font-family="Helvetica,sans-Serif" font-size="10.00">XDMAC_SetBlockControl</text>
</g>
<!-- Node532 -->
<g id="node2" class="node"><title>Node532</title>
<g id="a_node2"><a xlink:href="group__dmad__functions.xhtml#ga2a7947467c04eb39abee2471d846ee35" target="_top" xlink:title="Enable clock of the xDMA peripheral, Enable the dma peripheral, configure configuration register for ...">
<polygon fill="white" stroke="red" points="173.5,-38.5 173.5,-57.5 307.5,-57.5 307.5,-38.5 173.5,-38.5"/>
<text text-anchor="middle" x="240.5" y="-45.5" font-family="Helvetica,sans-Serif" font-size="10.00">XDMAD_PrepareChannel</text>
</a>
</g>
</g>
<!-- Node531&#45;&gt;Node532 -->
<g id="edge1" class="edge"><title>Node531&#45;&gt;Node532</title>
<path fill="none" stroke="midnightblue" d="M144.322,-37.4555C154.01,-38.5288 163.86,-39.6201 173.37,-40.6736"/>
<polygon fill="midnightblue" stroke="midnightblue" points="144.631,-33.9684 134.306,-36.3459 143.86,-40.9258 144.631,-33.9684"/>
</g>
<!-- Node572 -->
<g id="node3" class="node"><title>Node572</title>
<g id="a_node3"><a xlink:href="group__dmad__functions.xhtml#ga075cce3b88af1fff5064218720811fc0" target="_top" xlink:title="Configure DMA for a single transfer. ">
<polygon fill="white" stroke="red" points="170,-0.5 170,-19.5 311,-19.5 311,-0.5 170,-0.5"/>
<text text-anchor="middle" x="240.5" y="-7.5" font-family="Helvetica,sans-Serif" font-size="10.00">XDMAD_ConfigureTransfer</text>
</a>
</g>
</g>
<!-- Node531&#45;&gt;Node572 -->
<g id="edge2" class="edge"><title>Node531&#45;&gt;Node572</title>
<path fill="none" stroke="midnightblue" d="M144.268,-20.5505C152.822,-19.6029 161.502,-18.6411 169.965,-17.7036"/>
<polygon fill="midnightblue" stroke="midnightblue" points="143.86,-17.0742 134.306,-21.6541 144.631,-24.0316 143.86,-17.0742"/>
</g>
</g>
</svg>
