<?xml version="1.0" encoding="UTF-8" standalone="no"?>
<!DOCTYPE svg PUBLIC "-//W3C//DTD SVG 1.1//EN"
 "http://www.w3.org/Graphics/SVG/1.1/DTD/svg11.dtd">
<!-- Generated by graphviz version 2.38.0 (20140413.2041)
 -->
<!-- Title: USBD_HAL_Halt Pages: 1 -->
<svg width="306pt" height="370pt"
 viewBox="0.00 0.00 306.00 370.00" xmlns="http://www.w3.org/2000/svg" xmlns:xlink="http://www.w3.org/1999/xlink">
<g id="graph0" class="graph" transform="scale(1 1) rotate(0) translate(4 366)">
<title>USBD_HAL_Halt</title>
<polygon fill="white" stroke="none" points="-4,4 -4,-366 302,-366 302,4 -4,4"/>
<!-- Node1201 -->
<g id="node1" class="node"><title>Node1201</title>
<polygon fill="#bfbfbf" stroke="black" points="0,-171.5 0,-190.5 95,-190.5 95,-171.5 0,-171.5"/>
<text text-anchor="middle" x="47.5" y="-178.5" font-family="Helvetica,sans-Serif" font-size="10.00">USBD_HAL_Halt</text>
</g>
<!-- Node1202 -->
<g id="node2" class="node"><title>Node1202</title>
<g id="a_node2"><a xlink:href="group__usbd__hal.xhtml#ga5e6b01495743675aae106e51aee3d1e3" target="_top" xlink:title="Handles a completed transfer on the given endpoint, invoking the configured callback if any...">
<polygon fill="white" stroke="black" points="153,-342.5 153,-361.5 276,-361.5 276,-342.5 153,-342.5"/>
<text text-anchor="middle" x="214.5" y="-349.5" font-family="Helvetica,sans-Serif" font-size="10.00">UDPHS_EndOfTransfer</text>
</a>
</g>
</g>
<!-- Node1201&#45;&gt;Node1202 -->
<g id="edge1" class="edge"><title>Node1201&#45;&gt;Node1202</title>
<path fill="none" stroke="midnightblue" d="M50.7695,-190.649C57.6679,-217.745 81.0412,-295.026 131,-333 134.821,-335.905 139.01,-338.377 143.41,-340.481"/>
<polygon fill="midnightblue" stroke="midnightblue" points="142.111,-343.731 152.69,-344.301 144.775,-337.258 142.111,-343.731"/>
</g>
<!-- Node1203 -->
<g id="node3" class="node"><title>Node1203</title>
<g id="a_node3"><a xlink:href="usbhs_8h.xhtml#aa8d5c4b9a4a142b1c587fcfaa7532596" target="_top" xlink:title="Check if given endpoint&#39;s bank is free. ">
<polygon fill="white" stroke="black" points="160,-304.5 160,-323.5 269,-323.5 269,-304.5 160,-304.5"/>
<text text-anchor="middle" x="214.5" y="-311.5" font-family="Helvetica,sans-Serif" font-size="10.00">USBHS_IsBankFree</text>
</a>
</g>
</g>
<!-- Node1201&#45;&gt;Node1203 -->
<g id="edge2" class="edge"><title>Node1201&#45;&gt;Node1203</title>
<path fill="none" stroke="midnightblue" d="M52.62,-190.768C62.5539,-213.065 90.0697,-267.869 131,-295 136.762,-298.819 143.191,-301.876 149.848,-304.323"/>
<polygon fill="midnightblue" stroke="midnightblue" points="149.122,-307.765 159.713,-307.487 151.26,-301.1 149.122,-307.765"/>
</g>
<!-- Node1204 -->
<g id="node4" class="node"><title>Node1204</title>
<g id="a_node4"><a xlink:href="usbhs_8h.xhtml#ae9bf1bccb73956ec13630d2e60a8c5ad" target="_top" xlink:title="Enables an interrupt type for a given endpoint. ">
<polygon fill="white" stroke="black" points="167.5,-266.5 167.5,-285.5 261.5,-285.5 261.5,-266.5 167.5,-266.5"/>
<text text-anchor="middle" x="214.5" y="-273.5" font-family="Helvetica,sans-Serif" font-size="10.00">USBHS_KillBank</text>
</a>
</g>
</g>
<!-- Node1201&#45;&gt;Node1204 -->
<g id="edge3" class="edge"><title>Node1201&#45;&gt;Node1204</title>
<path fill="none" stroke="midnightblue" d="M56.016,-190.623C69.304,-206.938 98.6175,-239.919 131,-257 139.21,-261.331 148.391,-264.681 157.563,-267.271"/>
<polygon fill="midnightblue" stroke="midnightblue" points="156.912,-270.717 167.467,-269.794 158.64,-263.934 156.912,-270.717"/>
</g>
<!-- Node1205 -->
<g id="node5" class="node"><title>Node1205</title>
<g id="a_node5"><a xlink:href="usbhs_8h.xhtml#a5e6709db254f3275a10b9725847c95a3" target="_top" xlink:title="Enables an interrupt type for a given endpoint. ">
<polygon fill="white" stroke="black" points="158,-228.5 158,-247.5 271,-247.5 271,-228.5 158,-228.5"/>
<text text-anchor="middle" x="214.5" y="-235.5" font-family="Helvetica,sans-Serif" font-size="10.00">USBHS_IsBankKilled</text>
</a>
</g>
</g>
<!-- Node1201&#45;&gt;Node1205 -->
<g id="edge4" class="edge"><title>Node1201&#45;&gt;Node1205</title>
<path fill="none" stroke="midnightblue" d="M66.4091,-190.554C82.8312,-198.996 108.018,-211.154 131,-219 138.614,-221.6 146.745,-223.956 154.822,-226.055"/>
<polygon fill="midnightblue" stroke="midnightblue" points="154.062,-229.472 164.61,-228.486 155.749,-222.679 154.062,-229.472"/>
</g>
<!-- Node1206 -->
<g id="node6" class="node"><title>Node1206</title>
<g id="a_node6"><a xlink:href="usbhs_8h.xhtml#af318fefb03c995978a740a8b1733aaa0" target="_top" xlink:title="Enable or disable Auto switch of banks. ">
<polygon fill="white" stroke="black" points="131,-190.5 131,-209.5 298,-209.5 298,-190.5 131,-190.5"/>
<text text-anchor="middle" x="214.5" y="-197.5" font-family="Helvetica,sans-Serif" font-size="10.00">USBHS_AutoSwitchBankEnable</text>
</a>
</g>
</g>
<!-- Node1201&#45;&gt;Node1206 -->
<g id="edge5" class="edge"><title>Node1201&#45;&gt;Node1206</title>
<path fill="none" stroke="midnightblue" d="M95.341,-186.394C103.44,-187.326 112.107,-188.324 120.93,-189.34"/>
<polygon fill="midnightblue" stroke="midnightblue" points="120.601,-192.826 130.936,-190.493 121.402,-185.872 120.601,-192.826"/>
</g>
<!-- Node1207 -->
<g id="node7" class="node"><title>Node1207</title>
<g id="a_node7"><a xlink:href="usbhs_8h.xhtml#a6e9251af935e4867afa52cd306e8c699" target="_top" xlink:title="Enables an interrupt type for a given endpoint. ">
<polygon fill="white" stroke="black" points="147.5,-152.5 147.5,-171.5 281.5,-171.5 281.5,-152.5 147.5,-152.5"/>
<text text-anchor="middle" x="214.5" y="-159.5" font-family="Helvetica,sans-Serif" font-size="10.00">USBHS_EnableEPIntType</text>
</a>
</g>
</g>
<!-- Node1201&#45;&gt;Node1207 -->
<g id="edge6" class="edge"><title>Node1201&#45;&gt;Node1207</title>
<path fill="none" stroke="midnightblue" d="M95.341,-175.606C108.374,-174.105 122.878,-172.435 137.136,-170.793"/>
<polygon fill="midnightblue" stroke="midnightblue" points="137.916,-174.227 147.45,-169.606 137.115,-167.273 137.916,-174.227"/>
</g>
<!-- Node1208 -->
<g id="node8" class="node"><title>Node1208</title>
<g id="a_node8"><a xlink:href="usbhs_8h.xhtml#ad1cea33281f84fba93b0b4ecd554ce3a" target="_top" xlink:title="Enables DMA interrupt for a given endpoint. ">
<polygon fill="white" stroke="black" points="146.5,-114.5 146.5,-133.5 282.5,-133.5 282.5,-114.5 146.5,-114.5"/>
<text text-anchor="middle" x="214.5" y="-121.5" font-family="Helvetica,sans-Serif" font-size="10.00">USBHS_EnableDMAIntEP</text>
</a>
</g>
</g>
<!-- Node1201&#45;&gt;Node1208 -->
<g id="edge7" class="edge"><title>Node1201&#45;&gt;Node1208</title>
<path fill="none" stroke="midnightblue" d="M66.4091,-171.446C82.8312,-163.004 108.018,-150.846 131,-143 138.614,-140.4 146.745,-138.044 154.822,-135.945"/>
<polygon fill="midnightblue" stroke="midnightblue" points="155.749,-139.321 164.61,-133.514 154.062,-132.528 155.749,-139.321"/>
</g>
<!-- Node1209 -->
<g id="node9" class="node"><title>Node1209</title>
<g id="a_node9"><a xlink:href="usbhs_8h.xhtml#aaefdcd5f8be021f6ebffcbb4e7630079" target="_top" xlink:title="Enables interrupt for a given endpoint. ">
<polygon fill="white" stroke="black" points="158,-76.5 158,-95.5 271,-95.5 271,-76.5 158,-76.5"/>
<text text-anchor="middle" x="214.5" y="-83.5" font-family="Helvetica,sans-Serif" font-size="10.00">USBHS_EnableIntEP</text>
</a>
</g>
</g>
<!-- Node1201&#45;&gt;Node1209 -->
<g id="edge8" class="edge"><title>Node1201&#45;&gt;Node1209</title>
<path fill="none" stroke="midnightblue" d="M56.016,-171.377C69.304,-155.062 98.6175,-122.081 131,-105 136.46,-102.12 142.349,-99.6735 148.38,-97.5959"/>
<polygon fill="midnightblue" stroke="midnightblue" points="149.421,-100.937 157.931,-94.6254 147.343,-94.2531 149.421,-100.937"/>
</g>
<!-- Node1210 -->
<g id="node10" class="node"><title>Node1210</title>
<g id="a_node10"><a xlink:href="usbhs_8h.xhtml#a53c55fa48fbb95b2e0f67b58ca4cde49" target="_top" xlink:title="Check for interrupt types enabled for a given endpoint. ">
<polygon fill="white" stroke="black" points="154,-38.5 154,-57.5 275,-57.5 275,-38.5 154,-38.5"/>
<text text-anchor="middle" x="214.5" y="-45.5" font-family="Helvetica,sans-Serif" font-size="10.00">USBHS_IsEpIntEnable</text>
</a>
</g>
</g>
<!-- Node1201&#45;&gt;Node1210 -->
<g id="edge9" class="edge"><title>Node1201&#45;&gt;Node1210</title>
<path fill="none" stroke="midnightblue" d="M52.62,-171.232C62.5539,-148.935 90.0697,-94.1305 131,-67 135.073,-64.2999 139.48,-61.9807 144.066,-59.989"/>
<polygon fill="midnightblue" stroke="midnightblue" points="145.569,-63.1622 153.678,-56.3436 143.087,-56.6171 145.569,-63.1622"/>
</g>
<!-- Node1211 -->
<g id="node11" class="node"><title>Node1211</title>
<g id="a_node11"><a xlink:href="usbhs_8h.xhtml#aed77f2f7b0383514691381d53de5605f" target="_top" xlink:title="Disables an interrupt type for a given endpoint. ">
<polygon fill="white" stroke="black" points="146,-0.5 146,-19.5 283,-19.5 283,-0.5 146,-0.5"/>
<text text-anchor="middle" x="214.5" y="-7.5" font-family="Helvetica,sans-Serif" font-size="10.00">USBHS_DisableEPIntType</text>
</a>
</g>
</g>
<!-- Node1201&#45;&gt;Node1211 -->
<g id="edge10" class="edge"><title>Node1201&#45;&gt;Node1211</title>
<path fill="none" stroke="midnightblue" d="M50.7695,-171.351C57.6679,-144.255 81.0412,-66.9743 131,-29 133.359,-27.2073 135.857,-25.579 138.459,-24.1005"/>
<polygon fill="midnightblue" stroke="midnightblue" points="140.189,-27.151 147.651,-19.629 137.127,-20.8564 140.189,-27.151"/>
</g>
</g>
</svg>
