<?xml version="1.0" encoding="UTF-8" standalone="no"?>
<!DOCTYPE svg PUBLIC "-//W3C//DTD SVG 1.1//EN"
 "http://www.w3.org/Graphics/SVG/1.1/DTD/svg11.dtd">
<!-- Generated by graphviz version 2.38.0 (20140413.2041)
 -->
<!-- Title: USBH_notify_connection Pages: 1 -->
<svg width="307pt" height="66pt"
 viewBox="0.00 0.00 307.00 66.00" xmlns="http://www.w3.org/2000/svg" xmlns:xlink="http://www.w3.org/1999/xlink">
<g id="graph0" class="graph" transform="scale(1 1) rotate(0) translate(4 62)">
<title>USBH_notify_connection</title>
<polygon fill="white" stroke="none" points="-4,4 -4,-62 303,-62 303,4 -4,4"/>
<!-- Node1510 -->
<g id="node1" class="node"><title>Node1510</title>
<polygon fill="#bfbfbf" stroke="black" points="0,-19.5 0,-38.5 134,-38.5 134,-19.5 0,-19.5"/>
<text text-anchor="middle" x="67" y="-26.5" font-family="Helvetica,sans-Serif" font-size="10.00">USBH_notify_connection</text>
</g>
<!-- Node1511 -->
<g id="node2" class="node"><title>Node1511</title>
<g id="a_node2"><a xlink:href="group__uhd__group.xhtml#gafcd12a00544aac7645deb694ec611e7a" target="_top" xlink:title="USBD (UDP) interrupt handler Manages device resume, suspend, end of bus reset. ">
<polygon fill="white" stroke="black" points="187,-38.5 187,-57.5 282,-57.5 282,-38.5 187,-38.5"/>
<text text-anchor="middle" x="234.5" y="-45.5" font-family="Helvetica,sans-Serif" font-size="10.00">USBHS_Handler</text>
</a>
</g>
</g>
<!-- Node1510&#45;&gt;Node1511 -->
<g id="edge1" class="edge"><title>Node1510&#45;&gt;Node1511</title>
<path fill="none" stroke="midnightblue" d="M144.363,-37.7667C158.903,-39.4359 173.707,-41.1355 186.965,-42.6577"/>
<polygon fill="midnightblue" stroke="midnightblue" points="144.696,-34.282 134.362,-36.6185 143.897,-41.2363 144.696,-34.282"/>
</g>
<!-- Node1512 -->
<g id="node3" class="node"><title>Node1512</title>
<g id="a_node3"><a xlink:href="group__uhd__group.xhtml#ga9b45418a37c193dbcff7ef17040cfa30" target="_top" xlink:title="Disables the USB host mode. ">
<polygon fill="white" stroke="red" points="170,-0.5 170,-19.5 299,-19.5 299,-0.5 170,-0.5"/>
<text text-anchor="middle" x="234.5" y="-7.5" font-family="Helvetica,sans-Serif" font-size="10.00">USBH_HAL_DisableUsb</text>
</a>
</g>
</g>
<!-- Node1510&#45;&gt;Node1512 -->
<g id="edge2" class="edge"><title>Node1510&#45;&gt;Node1512</title>
<path fill="none" stroke="midnightblue" d="M144.312,-20.2392C152.842,-19.2598 161.464,-18.2699 169.813,-17.3115"/>
<polygon fill="midnightblue" stroke="midnightblue" points="143.897,-16.7637 134.362,-21.3815 144.696,-23.718 143.897,-16.7637"/>
</g>
</g>
</svg>
