<?xml version="1.0" encoding="UTF-8" standalone="no"?>
<!DOCTYPE svg PUBLIC "-//W3C//DTD SVG 1.1//EN"
 "http://www.w3.org/Graphics/SVG/1.1/DTD/svg11.dtd">
<!-- Generated by graphviz version 2.38.0 (20140413.2041)
 -->
<!-- Title: USBH_HAL_GetPipeError Pages: 1 -->
<svg width="298pt" height="66pt"
 viewBox="0.00 0.00 298.00 66.00" xmlns="http://www.w3.org/2000/svg" xmlns:xlink="http://www.w3.org/1999/xlink">
<g id="graph0" class="graph" transform="scale(1 1) rotate(0) translate(4 62)">
<title>USBH_HAL_GetPipeError</title>
<polygon fill="white" stroke="none" points="-4,4 -4,-62 294,-62 294,4 -4,4"/>
<!-- Node438 -->
<g id="node1" class="node"><title>Node438</title>
<polygon fill="#bfbfbf" stroke="black" points="0,-19.5 0,-38.5 136,-38.5 136,-19.5 0,-19.5"/>
<text text-anchor="middle" x="68" y="-26.5" font-family="Helvetica,sans-Serif" font-size="10.00">USBH_HAL_GetPipeError</text>
</g>
<!-- Node439 -->
<g id="node2" class="node"><title>Node439</title>
<g id="a_node2"><a xlink:href="usbhs_8h.xhtml#ac3696a9240e22b2d40ee76d19633bed5" target="_top" xlink:title="Gets USB host interrupt status. ">
<polygon fill="white" stroke="black" points="176,-38.5 176,-57.5 286,-57.5 286,-38.5 176,-38.5"/>
<text text-anchor="middle" x="231" y="-45.5" font-family="Helvetica,sans-Serif" font-size="10.00">USBHS_HostGetErr</text>
</a>
</g>
</g>
<!-- Node438&#45;&gt;Node439 -->
<g id="edge1" class="edge"><title>Node438&#45;&gt;Node439</title>
<path fill="none" stroke="midnightblue" d="M136.346,-36.9476C145.964,-38.0827 155.84,-39.2482 165.404,-40.3769"/>
<polygon fill="midnightblue" stroke="midnightblue" points="165.292,-43.8878 175.633,-41.584 166.112,-36.9361 165.292,-43.8878"/>
</g>
<!-- Node440 -->
<g id="node3" class="node"><title>Node440</title>
<g id="a_node3"><a xlink:href="usbhs_8h.xhtml#a5d2c49f1194cc78dea81c614f36a06e8" target="_top" xlink:title="Gets USB host interrupt status. ">
<polygon fill="white" stroke="black" points="172,-0.5 172,-19.5 290,-19.5 290,-0.5 172,-0.5"/>
<text text-anchor="middle" x="231" y="-7.5" font-family="Helvetica,sans-Serif" font-size="10.00">USBHS_HostClearErr</text>
</a>
</g>
</g>
<!-- Node438&#45;&gt;Node440 -->
<g id="edge2" class="edge"><title>Node438&#45;&gt;Node440</title>
<path fill="none" stroke="midnightblue" d="M136.346,-21.0524C144.738,-20.0619 153.327,-19.0484 161.734,-18.0563"/>
<polygon fill="midnightblue" stroke="midnightblue" points="162.351,-21.5078 171.872,-16.8599 161.53,-14.5561 162.351,-21.5078"/>
</g>
</g>
</svg>
