<?xml version="1.0" encoding="UTF-8" standalone="no"?>
<!DOCTYPE svg PUBLIC "-//W3C//DTD SVG 1.1//EN"
 "http://www.w3.org/Graphics/SVG/1.1/DTD/svg11.dtd">
<!-- Generated by graphviz version 2.38.0 (20140413.2041)
 -->
<!-- Title: if Pages: 1 -->
<svg width="175pt" height="66pt"
 viewBox="0.00 0.00 175.00 66.00" xmlns="http://www.w3.org/2000/svg" xmlns:xlink="http://www.w3.org/1999/xlink">
<g id="graph0" class="graph" transform="scale(1 1) rotate(0) translate(4 62)">
<title>if</title>
<polygon fill="white" stroke="none" points="-4,4 -4,-62 171,-62 171,4 -4,4"/>
<!-- Node142 -->
<g id="node1" class="node"><title>Node142</title>
<polygon fill="#bfbfbf" stroke="black" points="0,-19.5 0,-38.5 29,-38.5 29,-19.5 0,-19.5"/>
<text text-anchor="middle" x="14.5" y="-26.5" font-family="Helvetica,sans-Serif" font-size="10.00">if</text>
</g>
<!-- Node143 -->
<g id="node2" class="node"><title>Node143</title>
<g id="a_node2"><a xlink:href="group__udd__udphs__group.xhtml#ga09635ae8f24ffa6ea1dfa99a15b53e12" target="_top" xlink:title="Reset control endpoint. ">
<polygon fill="white" stroke="red" points="65,-38.5 65,-57.5 167,-57.5 167,-38.5 65,-38.5"/>
<text text-anchor="middle" x="116" y="-45.5" font-family="Helvetica,sans-Serif" font-size="10.00">udd_reset_ep_ctrl</text>
</a>
</g>
</g>
<!-- Node142&#45;&gt;Node143 -->
<g id="edge1" class="edge"><title>Node142&#45;&gt;Node143</title>
<path fill="none" stroke="midnightblue" d="M29.335,-31.6419C36.3102,-32.9738 45.3021,-34.6909 54.8278,-36.5098"/>
<polygon fill="midnightblue" stroke="midnightblue" points="54.4066,-39.9926 64.8856,-38.4304 55.7196,-33.1168 54.4066,-39.9926"/>
</g>
<!-- Node147 -->
<g id="node3" class="node"><title>Node147</title>
<g id="a_node3"><a xlink:href="group__udd__udphs__group.xhtml#gab1a4a5ecb3cd996de2d94d5e78d9ea9e" target="_top" xlink:title="Reset control endpoint management. ">
<polygon fill="white" stroke="red" points="79,-0.5 79,-19.5 153,-19.5 153,-0.5 79,-0.5"/>
<text text-anchor="middle" x="116" y="-7.5" font-family="Helvetica,sans-Serif" font-size="10.00">udd_ctrl_init</text>
</a>
</g>
</g>
<!-- Node142&#45;&gt;Node147 -->
<g id="edge2" class="edge"><title>Node142&#45;&gt;Node147</title>
<path fill="none" stroke="midnightblue" d="M29.335,-26.3581C39.5616,-24.4053 54.1236,-21.6246 68.3467,-18.9087"/>
<polygon fill="midnightblue" stroke="midnightblue" points="69.4105,-22.2688 78.5766,-16.9552 68.0975,-15.3931 69.4105,-22.2688"/>
</g>
</g>
</svg>
