<?xml version="1.0" encoding="UTF-8" standalone="no"?>
<!DOCTYPE svg PUBLIC "-//W3C//DTD SVG 1.1//EN"
 "http://www.w3.org/Graphics/SVG/1.1/DTD/svg11.dtd">
<!-- Generated by graphviz version 2.38.0 (20140413.2041)
 -->
<!-- Title: USBH_resume Pages: 1 -->
<svg width="244pt" height="66pt"
 viewBox="0.00 0.00 244.00 66.00" xmlns="http://www.w3.org/2000/svg" xmlns:xlink="http://www.w3.org/1999/xlink">
<g id="graph0" class="graph" transform="scale(1 1) rotate(0) translate(4 62)">
<title>USBH_resume</title>
<polygon fill="white" stroke="none" points="-4,4 -4,-62 240,-62 240,4 -4,4"/>
<!-- Node1559 -->
<g id="node1" class="node"><title>Node1559</title>
<polygon fill="#bfbfbf" stroke="black" points="0,-19.5 0,-38.5 87,-38.5 87,-19.5 0,-19.5"/>
<text text-anchor="middle" x="43.5" y="-26.5" font-family="Helvetica,sans-Serif" font-size="10.00">USBH_resume</text>
</g>
<!-- Node1560 -->
<g id="node2" class="node"><title>Node1560</title>
<g id="a_node2"><a xlink:href="group___u_s_b_h__group__interne.xhtml#gadf21300f0ddce0d9e8e0aa1c9d707773" target="_top" xlink:title="Test if the suspend state is enabled on the USB line. ">
<polygon fill="white" stroke="red" points="127.5,-38.5 127.5,-57.5 231.5,-57.5 231.5,-38.5 127.5,-38.5"/>
<text text-anchor="middle" x="179.5" y="-45.5" font-family="Helvetica,sans-Serif" font-size="10.00">USBH_is_suspend</text>
</a>
</g>
</g>
<!-- Node1559&#45;&gt;Node1560 -->
<g id="edge1" class="edge"><title>Node1559&#45;&gt;Node1560</title>
<path fill="none" stroke="midnightblue" d="M87.2669,-35.064C96.8028,-36.4161 107.096,-37.8755 117.213,-39.3101"/>
<polygon fill="midnightblue" stroke="midnightblue" points="116.846,-42.7929 127.238,-40.7316 117.829,-35.8623 116.846,-42.7929"/>
</g>
<!-- Node1563 -->
<g id="node3" class="node"><title>Node1563</title>
<g id="a_node3"><a xlink:href="group__uhd__group.xhtml#gac9fdf87a0d813bf3717f1440e60c41d8" target="_top" xlink:title="Enables the IDLE state on the USB line. ">
<polygon fill="white" stroke="red" points="123,-0.5 123,-19.5 236,-19.5 236,-0.5 123,-0.5"/>
<text text-anchor="middle" x="179.5" y="-7.5" font-family="Helvetica,sans-Serif" font-size="10.00">USBH_HAL_Resume</text>
</a>
</g>
</g>
<!-- Node1559&#45;&gt;Node1563 -->
<g id="edge2" class="edge"><title>Node1559&#45;&gt;Node1563</title>
<path fill="none" stroke="midnightblue" d="M87.2669,-22.936C95.4145,-21.7808 104.115,-20.5472 112.786,-19.3176"/>
<polygon fill="midnightblue" stroke="midnightblue" points="113.508,-22.7503 122.918,-17.8811 112.525,-15.8197 113.508,-22.7503"/>
</g>
</g>
</svg>
