<?xml version="1.0" encoding="UTF-8" standalone="no"?>
<!DOCTYPE svg PUBLIC "-//W3C//DTD SVG 1.1//EN"
 "http://www.w3.org/Graphics/SVG/1.1/DTD/svg11.dtd">
<!-- Generated by graphviz version 2.38.0 (20140413.2041)
 -->
<!-- Title: udd_ctrl_in_sent Pages: 1 -->
<svg width="390pt" height="160pt"
 viewBox="0.00 0.00 390.00 159.98" xmlns="http://www.w3.org/2000/svg" xmlns:xlink="http://www.w3.org/1999/xlink">
<g id="graph0" class="graph" transform="scale(1 1) rotate(0) translate(4 155.984)">
<title>udd_ctrl_in_sent</title>
<polygon fill="white" stroke="none" points="-4,4 -4,-155.984 386,-155.984 386,4 -4,4"/>
<!-- Node184 -->
<g id="node1" class="node"><title>Node184</title>
<polygon fill="#bfbfbf" stroke="black" points="0,-76.5 0,-95.5 95,-95.5 95,-76.5 0,-76.5"/>
<text text-anchor="middle" x="47.5" y="-83.5" font-family="Helvetica,sans-Serif" font-size="10.00">udd_ctrl_in_sent</text>
</g>
<!-- Node185 -->
<g id="node2" class="node"><title>Node185</title>
<g id="a_node2"><a xlink:href="group__interrupt__group.xhtml#ga9931bf539005d3f12b461928823a0ae2" target="_top" xlink:title="cpu_irq_save">
<polygon fill="white" stroke="black" points="297,-114.5 297,-133.5 376,-133.5 376,-114.5 297,-114.5"/>
<text text-anchor="middle" x="336.5" y="-121.5" font-family="Helvetica,sans-Serif" font-size="10.00">cpu_irq_save</text>
</a>
</g>
</g>
<!-- Node184&#45;&gt;Node185 -->
<g id="edge1" class="edge"><title>Node184&#45;&gt;Node185</title>
<path fill="none" stroke="midnightblue" d="M58.0864,-95.6215C72.4511,-109.281 101.085,-133.671 131,-143 186.818,-160.407 255.034,-147.719 296.863,-136.347"/>
<polygon fill="midnightblue" stroke="midnightblue" points="297.98,-139.669 306.65,-133.579 296.075,-132.933 297.98,-139.669"/>
</g>
<!-- Node186 -->
<g id="node3" class="node"><title>Node186</title>
<g id="a_node3"><a xlink:href="group__interrupt__group.xhtml#gae4d6d11a5211f6bd00353f280aa78f6f" target="_top" xlink:title="cpu_irq_restore">
<polygon fill="white" stroke="red" points="291,-76.5 291,-95.5 382,-95.5 382,-76.5 291,-76.5"/>
<text text-anchor="middle" x="336.5" y="-83.5" font-family="Helvetica,sans-Serif" font-size="10.00">cpu_irq_restore</text>
</a>
</g>
</g>
<!-- Node184&#45;&gt;Node186 -->
<g id="edge2" class="edge"><title>Node184&#45;&gt;Node186</title>
<path fill="none" stroke="midnightblue" d="M81.9184,-76.4927C96.8082,-72.7282 114.644,-68.8591 131,-67 185.759,-60.7759 200.259,-60.6274 255,-67 267.48,-68.4529 280.834,-71.1323 293.005,-74.03"/>
<polygon fill="midnightblue" stroke="midnightblue" points="292.357,-77.4753 302.906,-76.4933 294.047,-70.6824 292.357,-77.4753"/>
</g>
<!-- Node188 -->
<g id="node4" class="node"><title>Node188</title>
<g id="a_node4"><a xlink:href="group__udd__udphs__group.xhtml#ga173a32ad9cb33b2851ff381da157328e" target="_top" xlink:title="Call callback associated to setup request. ">
<polygon fill="white" stroke="black" points="131,-0.5 131,-19.5 255,-19.5 255,-0.5 131,-0.5"/>
<text text-anchor="middle" x="193" y="-7.5" font-family="Helvetica,sans-Serif" font-size="10.00">udd_ctrl_endofrequest</text>
</a>
</g>
</g>
<!-- Node184&#45;&gt;Node188 -->
<g id="edge3" class="edge"><title>Node184&#45;&gt;Node188</title>
<path fill="none" stroke="midnightblue" d="M62.0475,-76.3448C78.0235,-65.2266 105.623,-46.8467 131,-34 138.579,-30.163 146.925,-26.5231 154.946,-23.2915"/>
<polygon fill="midnightblue" stroke="midnightblue" points="156.451,-26.4614 164.495,-19.5664 153.907,-19.94 156.451,-26.4614"/>
</g>
<!-- Node189 -->
<g id="node5" class="node"><title>Node189</title>
<g id="a_node5"><a xlink:href="group__udd__udphs__group.xhtml#gab1a4a5ecb3cd996de2d94d5e78d9ea9e" target="_top" xlink:title="Reset control endpoint management. ">
<polygon fill="white" stroke="black" points="156,-76.5 156,-95.5 230,-95.5 230,-76.5 156,-76.5"/>
<text text-anchor="middle" x="193" y="-83.5" font-family="Helvetica,sans-Serif" font-size="10.00">udd_ctrl_init</text>
</a>
</g>
</g>
<!-- Node184&#45;&gt;Node189 -->
<g id="edge4" class="edge"><title>Node184&#45;&gt;Node189</title>
<path fill="none" stroke="midnightblue" d="M95.0903,-86C111.202,-86 129.252,-86 145.367,-86"/>
<polygon fill="midnightblue" stroke="midnightblue" points="145.638,-89.5001 155.638,-86 145.638,-82.5001 145.638,-89.5001"/>
</g>
<!-- Node190 -->
<g id="node6" class="node"><title>Node190</title>
<g id="a_node6"><a xlink:href="group__udd__udphs__group.xhtml#ga3831d9da6e90060fc68e7a0b98e27591" target="_top" xlink:title="Send a ZLP OUT on control endpoint. ">
<polygon fill="white" stroke="black" points="131.5,-114.5 131.5,-133.5 254.5,-133.5 254.5,-114.5 131.5,-114.5"/>
<text text-anchor="middle" x="193" y="-121.5" font-family="Helvetica,sans-Serif" font-size="10.00">udd_ctrl_send_zlp_out</text>
</a>
</g>
</g>
<!-- Node184&#45;&gt;Node190 -->
<g id="edge7" class="edge"><title>Node184&#45;&gt;Node190</title>
<path fill="none" stroke="midnightblue" d="M84.7111,-95.589C103.321,-100.517 126.197,-106.575 146.039,-111.829"/>
<polygon fill="midnightblue" stroke="midnightblue" points="145.238,-115.238 155.8,-114.414 147.03,-108.471 145.238,-115.238"/>
</g>
<!-- Node189&#45;&gt;Node185 -->
<g id="edge5" class="edge"><title>Node189&#45;&gt;Node185</title>
<path fill="none" stroke="midnightblue" d="M229.706,-95.589C247.973,-100.494 270.408,-106.52 289.911,-111.757"/>
<polygon fill="midnightblue" stroke="midnightblue" points="289.239,-115.201 299.805,-114.414 291.055,-108.44 289.239,-115.201"/>
</g>
<!-- Node189&#45;&gt;Node186 -->
<g id="edge6" class="edge"><title>Node189&#45;&gt;Node186</title>
<path fill="none" stroke="midnightblue" d="M230.073,-86C245.397,-86 263.605,-86 280.541,-86"/>
<polygon fill="midnightblue" stroke="midnightblue" points="280.885,-89.5001 290.885,-86 280.885,-82.5001 280.885,-89.5001"/>
</g>
<!-- Node190&#45;&gt;Node185 -->
<g id="edge8" class="edge"><title>Node190&#45;&gt;Node185</title>
<path fill="none" stroke="midnightblue" d="M254.83,-124C265.504,-124 276.485,-124 286.776,-124"/>
<polygon fill="midnightblue" stroke="midnightblue" points="286.799,-127.5 296.799,-124 286.799,-120.5 286.799,-127.5"/>
</g>
<!-- Node190&#45;&gt;Node186 -->
<g id="edge9" class="edge"><title>Node190&#45;&gt;Node186</title>
<path fill="none" stroke="midnightblue" d="M229.706,-114.411C247.973,-109.506 270.408,-103.48 289.911,-98.2429"/>
<polygon fill="midnightblue" stroke="midnightblue" points="291.055,-101.56 299.805,-95.5859 289.239,-94.7994 291.055,-101.56"/>
</g>
</g>
</svg>
