<?xml version="1.0" encoding="UTF-8" standalone="no"?>
<!DOCTYPE svg PUBLIC "-//W3C//DTD SVG 1.1//EN"
 "http://www.w3.org/Graphics/SVG/1.1/DTD/svg11.dtd">
<!-- Generated by graphviz version 2.38.0 (20140413.2041)
 -->
<!-- Title: GMACD_Reset Pages: 1 -->
<svg width="254pt" height="104pt"
 viewBox="0.00 0.00 254.00 104.00" xmlns="http://www.w3.org/2000/svg" xmlns:xlink="http://www.w3.org/1999/xlink">
<g id="graph0" class="graph" transform="scale(1 1) rotate(0) translate(4 100)">
<title>GMACD_Reset</title>
<polygon fill="white" stroke="none" points="-4,4 -4,-100 250,-100 250,4 -4,4"/>
<!-- Node47 -->
<g id="node1" class="node"><title>Node47</title>
<polygon fill="#bfbfbf" stroke="black" points="0,-38.5 0,-57.5 85,-57.5 85,-38.5 0,-38.5"/>
<text text-anchor="middle" x="42.5" y="-45.5" font-family="Helvetica,sans-Serif" font-size="10.00">GMACD_Reset</text>
</g>
<!-- Node48 -->
<g id="node2" class="node"><title>Node48</title>
<g id="a_node2"><a xlink:href="group__gmacd__defines.xhtml#ga0f4f9a29244618764ca63fb4c2ca058c" target="_top" xlink:title="Disable RX &amp; reset registers and descriptor list. ">
<polygon fill="white" stroke="red" points="135.5,-76.5 135.5,-95.5 231.5,-95.5 231.5,-76.5 135.5,-76.5"/>
<text text-anchor="middle" x="183.5" y="-83.5" font-family="Helvetica,sans-Serif" font-size="10.00">GMACD_ResetRx</text>
</a>
</g>
</g>
<!-- Node47&#45;&gt;Node48 -->
<g id="edge1" class="edge"><title>Node47&#45;&gt;Node48</title>
<path fill="none" stroke="midnightblue" d="M78.5756,-57.589C96.5191,-62.4944 118.558,-68.5196 137.717,-73.7571"/>
<polygon fill="midnightblue" stroke="midnightblue" points="136.867,-77.1531 147.436,-76.4141 138.713,-70.4008 136.867,-77.1531"/>
</g>
<!-- Node51 -->
<g id="node3" class="node"><title>Node51</title>
<g id="a_node3"><a xlink:href="group__gmacd__defines.xhtml#gaa4fcf5f239a30ef23cc9ba6b40054117" target="_top" xlink:title="Disable TX &amp; reset registers and descriptor list. ">
<polygon fill="white" stroke="red" points="136,-38.5 136,-57.5 231,-57.5 231,-38.5 136,-38.5"/>
<text text-anchor="middle" x="183.5" y="-45.5" font-family="Helvetica,sans-Serif" font-size="10.00">GMACD_ResetTx</text>
</a>
</g>
</g>
<!-- Node47&#45;&gt;Node51 -->
<g id="edge2" class="edge"><title>Node47&#45;&gt;Node51</title>
<path fill="none" stroke="midnightblue" d="M85.2046,-48C97.9494,-48 112.187,-48 125.754,-48"/>
<polygon fill="midnightblue" stroke="midnightblue" points="125.961,-51.5001 135.961,-48 125.961,-44.5001 125.961,-51.5001"/>
</g>
<!-- Node54 -->
<g id="node4" class="node"><title>Node54</title>
<g id="a_node4"><a xlink:href="group__gmac__defines.xhtml#ga4dfdc785358f1239d80a46dc2108a15c" target="_top" xlink:title="Write control value. ">
<polygon fill="white" stroke="black" points="121,-0.5 121,-19.5 246,-19.5 246,-0.5 121,-0.5"/>
<text text-anchor="middle" x="183.5" y="-7.5" font-family="Helvetica,sans-Serif" font-size="10.00">GMAC_NetworkControl</text>
</a>
</g>
</g>
<!-- Node47&#45;&gt;Node54 -->
<g id="edge3" class="edge"><title>Node47&#45;&gt;Node54</title>
<path fill="none" stroke="midnightblue" d="M78.5756,-38.411C96.5191,-33.5056 118.558,-27.4804 137.717,-22.2429"/>
<polygon fill="midnightblue" stroke="midnightblue" points="138.713,-25.5992 147.436,-19.5859 136.867,-18.8469 138.713,-25.5992"/>
</g>
</g>
</svg>
