<?xml version="1.0" encoding="UTF-8" standalone="no"?>
<!DOCTYPE svg PUBLIC "-//W3C//DTD SVG 1.1//EN"
 "http://www.w3.org/Graphics/SVG/1.1/DTD/svg11.dtd">
<!-- Generated by graphviz version 2.38.0 (20140413.2041)
 -->
<!-- Title: USBD_HAL_RemoteWakeUp Pages: 1 -->
<svg width="435pt" height="85pt"
 viewBox="0.00 0.00 435.00 85.00" xmlns="http://www.w3.org/2000/svg" xmlns:xlink="http://www.w3.org/1999/xlink">
<g id="graph0" class="graph" transform="scale(1 1) rotate(0) translate(4 81)">
<title>USBD_HAL_RemoteWakeUp</title>
<polygon fill="white" stroke="none" points="-4,4 -4,-81 431,-81 431,4 -4,4"/>
<!-- Node1407 -->
<g id="node1" class="node"><title>Node1407</title>
<polygon fill="#bfbfbf" stroke="black" points="0,-19.5 0,-38.5 150,-38.5 150,-19.5 0,-19.5"/>
<text text-anchor="middle" x="75" y="-26.5" font-family="Helvetica,sans-Serif" font-size="10.00">USBD_HAL_RemoteWakeUp</text>
</g>
<!-- Node1408 -->
<g id="node2" class="node"><title>Node1408</title>
<g id="a_node2"><a xlink:href="group__usbd__interface.xhtml#gacfd4fed846cba74af43e668e47b6dc10" target="_top" xlink:title="Starts a remote wake&#45;up procedure. ">
<polygon fill="white" stroke="red" points="186,-57.5 186,-76.5 311,-76.5 311,-57.5 186,-57.5"/>
<text text-anchor="middle" x="248.5" y="-64.5" font-family="Helvetica,sans-Serif" font-size="10.00">USBD_RemoteWakeUp</text>
</a>
</g>
</g>
<!-- Node1407&#45;&gt;Node1408 -->
<g id="edge1" class="edge"><title>Node1407&#45;&gt;Node1408</title>
<path fill="none" stroke="midnightblue" d="M129.041,-40.7526C153.291,-46.1258 181.647,-52.4086 204.535,-57.4799"/>
<polygon fill="midnightblue" stroke="midnightblue" points="129.797,-37.3352 119.277,-38.589 128.283,-44.1695 129.797,-37.3352"/>
</g>
<!-- Node1415 -->
<g id="node3" class="node"><title>Node1415</title>
<g id="a_node3"><a xlink:href="group__usbd__hal.xhtml#ga571a674fe9f9a1bba6ad08b3b0b28a80" target="_top" xlink:title="USBD (UDP) interrupt handler Manages device resume, suspend, end of bus reset. ">
<polygon fill="white" stroke="black" points="198.5,-19.5 198.5,-38.5 298.5,-38.5 298.5,-19.5 198.5,-19.5"/>
<text text-anchor="middle" x="248.5" y="-26.5" font-family="Helvetica,sans-Serif" font-size="10.00">USBD_IrqHandler</text>
</a>
</g>
</g>
<!-- Node1407&#45;&gt;Node1415 -->
<g id="edge2" class="edge"><title>Node1407&#45;&gt;Node1415</title>
<path fill="none" stroke="midnightblue" d="M160.589,-29C173.551,-29 186.547,-29 198.394,-29"/>
<polygon fill="midnightblue" stroke="midnightblue" points="160.225,-25.5001 150.225,-29 160.225,-32.5001 160.225,-25.5001"/>
</g>
<!-- Node1416 -->
<g id="node4" class="node"><title>Node1416</title>
<g id="a_node4"><a xlink:href="hal__udphs_8c.xhtml#gadf1deb2219e27bcf29d2598d4aa04c1d" target="_top" xlink:title="Reads incoming data on an USB endpoint This methods sets the transfer descriptor and activate the end...">
<polygon fill="white" stroke="black" points="347,-0.5 347,-19.5 427,-19.5 427,-0.5 347,-0.5"/>
<text text-anchor="middle" x="387" y="-7.5" font-family="Helvetica,sans-Serif" font-size="10.00">UDPHS_Read</text>
</a>
</g>
</g>
<!-- Node1407&#45;&gt;Node1416 -->
<g id="edge4" class="edge"><title>Node1407&#45;&gt;Node1416</title>
<path fill="none" stroke="midnightblue" d="M130.804,-17.6356C148.354,-14.5073 167.922,-11.5498 186,-10 241.698,-5.22503 306.443,-6.45608 346.826,-8.02731"/>
<polygon fill="midnightblue" stroke="midnightblue" points="129.933,-14.2371 120.731,-19.4879 131.199,-21.1216 129.933,-14.2371"/>
</g>
<!-- Node1415&#45;&gt;Node1416 -->
<g id="edge3" class="edge"><title>Node1415&#45;&gt;Node1416</title>
<path fill="none" stroke="midnightblue" d="M308.895,-20.7326C321.663,-18.9553 334.852,-17.1195 346.633,-15.4797"/>
<polygon fill="midnightblue" stroke="midnightblue" points="308.202,-17.2953 298.78,-22.1406 309.167,-24.2284 308.202,-17.2953"/>
</g>
</g>
</svg>
