<?xml version="1.0" encoding="UTF-8" standalone="no"?>
<!DOCTYPE svg PUBLIC "-//W3C//DTD SVG 1.1//EN"
 "http://www.w3.org/Graphics/SVG/1.1/DTD/svg11.dtd">
<!-- Generated by graphviz version 2.38.0 (20140413.2041)
 -->
<!-- Title: SBCLunIsReady Pages: 1 -->
<svg width="253pt" height="142pt"
 viewBox="0.00 0.00 253.00 142.00" xmlns="http://www.w3.org/2000/svg" xmlns:xlink="http://www.w3.org/1999/xlink">
<g id="graph0" class="graph" transform="scale(1 1) rotate(0) translate(4 138)">
<title>SBCLunIsReady</title>
<polygon fill="white" stroke="none" points="-4,4 -4,-138 249,-138 249,4 -4,4"/>
<!-- Node952 -->
<g id="node1" class="node"><title>Node952</title>
<polygon fill="#bfbfbf" stroke="black" points="0,-57.5 0,-76.5 90,-76.5 90,-57.5 0,-57.5"/>
<text text-anchor="middle" x="45" y="-64.5" font-family="Helvetica,sans-Serif" font-size="10.00">SBCLunIsReady</text>
</g>
<!-- Node953 -->
<g id="node2" class="node"><title>Node953</title>
<g id="a_node2"><a xlink:href="group__usbd__msd.xhtml#gaedd02c4c2e4224d76f3b5dc363abd546" target="_top" xlink:title="Check if the LUN can write. ">
<polygon fill="white" stroke="red" points="126,-114.5 126,-133.5 245,-133.5 245,-114.5 126,-114.5"/>
<text text-anchor="middle" x="185.5" y="-121.5" font-family="Helvetica,sans-Serif" font-size="10.00">SBCLunCanBeWritten</text>
</a>
</g>
</g>
<!-- Node952&#45;&gt;Node953 -->
<g id="edge1" class="edge"><title>Node952&#45;&gt;Node953</title>
<path fill="none" stroke="midnightblue" d="M73.7936,-81.2916C89.0031,-88.8339 108.304,-97.9577 126,-105 134.533,-108.396 143.934,-111.654 152.658,-114.484"/>
<polygon fill="midnightblue" stroke="midnightblue" points="74.9551,-77.9585 64.4475,-76.6014 71.8153,-84.2149 74.9551,-77.9585"/>
</g>
<!-- Node960 -->
<g id="node3" class="node"><title>Node960</title>
<g id="a_node3"><a xlink:href="group__usbd__msd.xhtml#gabc88802a5167eed1f5955df898b6c6bb" target="_top" xlink:title="Performs a READ (10) command on specified LUN. ">
<polygon fill="white" stroke="red" points="147,-76.5 147,-95.5 224,-95.5 224,-76.5 147,-76.5"/>
<text text-anchor="middle" x="185.5" y="-83.5" font-family="Helvetica,sans-Serif" font-size="10.00">SBC_Read10</text>
</a>
</g>
</g>
<!-- Node952&#45;&gt;Node960 -->
<g id="edge2" class="edge"><title>Node952&#45;&gt;Node960</title>
<path fill="none" stroke="midnightblue" d="M100.242,-74.4411C115.804,-76.5761 132.429,-78.8567 146.764,-80.8233"/>
<polygon fill="midnightblue" stroke="midnightblue" points="100.586,-70.9556 90.2031,-73.064 99.6346,-77.8907 100.586,-70.9556"/>
</g>
<!-- Node961 -->
<g id="node4" class="node"><title>Node961</title>
<g id="a_node4"><a xlink:href="group__usbd__msd.xhtml#ga3a83a973dc2e5ef692d4ad611e133d9b" target="_top" xlink:title="Performs a READ CAPACITY (10) command. ">
<polygon fill="white" stroke="red" points="126,-38.5 126,-57.5 245,-57.5 245,-38.5 126,-38.5"/>
<text text-anchor="middle" x="185.5" y="-45.5" font-family="Helvetica,sans-Serif" font-size="10.00">SBC_ReadCapacity10</text>
</a>
</g>
</g>
<!-- Node952&#45;&gt;Node961 -->
<g id="edge3" class="edge"><title>Node952&#45;&gt;Node961</title>
<path fill="none" stroke="midnightblue" d="M100.244,-59.5586C108.63,-58.4082 117.324,-57.2155 125.802,-56.0524"/>
<polygon fill="midnightblue" stroke="midnightblue" points="99.6346,-56.1093 90.2031,-60.936 100.586,-63.0444 99.6346,-56.1093"/>
</g>
<!-- Node962 -->
<g id="node5" class="node"><title>Node962</title>
<g id="a_node5"><a xlink:href="group__usbd__msd.xhtml#ga114a8851b201e26f5cda18ee7077d6ef" target="_top" xlink:title="Performs a MODE SENSE (6) command. ">
<polygon fill="white" stroke="red" points="133.5,-0.5 133.5,-19.5 237.5,-19.5 237.5,-0.5 133.5,-0.5"/>
<text text-anchor="middle" x="185.5" y="-7.5" font-family="Helvetica,sans-Serif" font-size="10.00">SBC_ModeSense6</text>
</a>
</g>
</g>
<!-- Node952&#45;&gt;Node962 -->
<g id="edge4" class="edge"><title>Node952&#45;&gt;Node962</title>
<path fill="none" stroke="midnightblue" d="M73.7936,-52.7084C89.0031,-45.1661 108.304,-36.0423 126,-29 134.533,-25.6044 143.934,-22.346 152.658,-19.5158"/>
<polygon fill="midnightblue" stroke="midnightblue" points="71.8153,-49.7851 64.4475,-57.3986 74.9551,-56.0415 71.8153,-49.7851"/>
</g>
</g>
</svg>
