<?xml version="1.0" encoding="UTF-8" standalone="no"?>
<!DOCTYPE svg PUBLIC "-//W3C//DTD SVG 1.1//EN"
 "http://www.w3.org/Graphics/SVG/1.1/DTD/svg11.dtd">
<!-- Generated by graphviz version 2.38.0 (20140413.2041)
 -->
<!-- Title: UDPHS_AddWr Pages: 1 -->
<svg width="244pt" height="66pt"
 viewBox="0.00 0.00 244.00 66.00" xmlns="http://www.w3.org/2000/svg" xmlns:xlink="http://www.w3.org/1999/xlink">
<g id="graph0" class="graph" transform="scale(1 1) rotate(0) translate(4 62)">
<title>UDPHS_AddWr</title>
<polygon fill="white" stroke="none" points="-4,4 -4,-62 240,-62 240,4 -4,4"/>
<!-- Node0 -->
<g id="node1" class="node"><title>Node0</title>
<polygon fill="#bfbfbf" stroke="black" points="0,-19.5 0,-38.5 87,-38.5 87,-19.5 0,-19.5"/>
<text text-anchor="middle" x="43.5" y="-26.5" font-family="Helvetica,sans-Serif" font-size="10.00">UDPHS_AddWr</text>
</g>
<!-- Node1 -->
<g id="node2" class="node"><title>Node1</title>
<g id="a_node2"><a xlink:href="group__udd__udphs__group.xhtml#gae90f972fe3687ee01b803027939cdb47" target="_top" xlink:title="if">
<polygon fill="white" stroke="black" points="165,-38.5 165,-57.5 194,-57.5 194,-38.5 165,-38.5"/>
<text text-anchor="middle" x="179.5" y="-45.5" font-family="Helvetica,sans-Serif" font-size="10.00">if</text>
</a>
</g>
</g>
<!-- Node0&#45;&gt;Node1 -->
<g id="edge1" class="edge"><title>Node0&#45;&gt;Node1</title>
<path fill="none" stroke="midnightblue" d="M87.2669,-35.064C109.677,-38.2414 136.266,-42.0116 154.941,-44.6596"/>
<polygon fill="midnightblue" stroke="midnightblue" points="154.538,-48.1373 164.93,-46.076 155.521,-41.2067 154.538,-48.1373"/>
</g>
<!-- Node2 -->
<g id="node3" class="node"><title>Node2</title>
<g id="a_node3"><a xlink:href="hal__udphs_8c.xhtml#ga5295f6d8b5a54cbe6b365e4ae1bb9633" target="_top" xlink:title="Transfers a data payload from the current tranfer buffer to the endpoint FIFO. ">
<polygon fill="white" stroke="red" points="123,-0.5 123,-19.5 236,-19.5 236,-0.5 123,-0.5"/>
<text text-anchor="middle" x="179.5" y="-7.5" font-family="Helvetica,sans-Serif" font-size="10.00">UDPHS_MblWriteFifo</text>
</a>
</g>
</g>
<!-- Node0&#45;&gt;Node2 -->
<g id="edge2" class="edge"><title>Node0&#45;&gt;Node2</title>
<path fill="none" stroke="midnightblue" d="M87.2669,-22.936C95.4145,-21.7808 104.115,-20.5472 112.786,-19.3176"/>
<polygon fill="midnightblue" stroke="midnightblue" points="113.508,-22.7503 122.918,-17.8811 112.525,-15.8197 113.508,-22.7503"/>
</g>
</g>
</svg>
