<?xml version="1.0" encoding="UTF-8" standalone="no"?>
<!DOCTYPE svg PUBLIC "-//W3C//DTD SVG 1.1//EN"
 "http://www.w3.org/Graphics/SVG/1.1/DTD/svg11.dtd">
<!-- Generated by graphviz version 2.38.0 (20140413.2041)
 -->
<!-- Title: pvPortMalloc Pages: 1 -->
<svg width="277pt" height="104pt"
 viewBox="0.00 0.00 277.00 104.00" xmlns="http://www.w3.org/2000/svg" xmlns:xlink="http://www.w3.org/1999/xlink">
<g id="graph0" class="graph" transform="scale(1 1) rotate(0) translate(4 100)">
<title>pvPortMalloc</title>
<polygon fill="white" stroke="none" points="-4,4 -4,-100 273,-100 273,4 -4,4"/>
<!-- Node79 -->
<g id="node1" class="node"><title>Node79</title>
<polygon fill="#bfbfbf" stroke="black" points="0,-38.5 0,-57.5 77,-57.5 77,-38.5 0,-38.5"/>
<text text-anchor="middle" x="38.5" y="-45.5" font-family="Helvetica,sans-Serif" font-size="10.00">pvPortMalloc</text>
</g>
<!-- Node80 -->
<g id="node2" class="node"><title>Node80</title>
<g id="a_node2"><a xlink:href="heap__4__default_8c.xhtml#a3e55181f788f17d9a3e7d226a5206e4f" target="_top" xlink:title="prvHeapInit">
<polygon fill="white" stroke="black" points="155.5,-76.5 155.5,-95.5 226.5,-95.5 226.5,-76.5 155.5,-76.5"/>
<text text-anchor="middle" x="191" y="-83.5" font-family="Helvetica,sans-Serif" font-size="10.00">prvHeapInit</text>
</a>
</g>
</g>
<!-- Node79&#45;&gt;Node80 -->
<g id="edge1" class="edge"><title>Node79&#45;&gt;Node80</title>
<path fill="none" stroke="midnightblue" d="M76.1178,-57.5507C87.8879,-60.5979 100.988,-63.9656 113,-67 123.521,-69.6579 134.862,-72.48 145.521,-75.1134"/>
<polygon fill="midnightblue" stroke="midnightblue" points="144.935,-78.5737 155.482,-77.5688 146.611,-71.7771 144.935,-78.5737"/>
</g>
<!-- Node81 -->
<g id="node3" class="node"><title>Node81</title>
<g id="a_node3"><a xlink:href="heap__4__default_8c.xhtml#a1a70fdf86d8a603f45e9b93c14e0d24a" target="_top" xlink:title="prvInsertBlockIntoFreeList">
<polygon fill="white" stroke="black" points="121.5,-38.5 121.5,-57.5 260.5,-57.5 260.5,-38.5 121.5,-38.5"/>
<text text-anchor="middle" x="191" y="-45.5" font-family="Helvetica,sans-Serif" font-size="10.00">prvInsertBlockIntoFreeList</text>
</a>
</g>
</g>
<!-- Node79&#45;&gt;Node81 -->
<g id="edge2" class="edge"><title>Node79&#45;&gt;Node81</title>
<path fill="none" stroke="midnightblue" d="M77.0893,-48C87.5642,-48 99.351,-48 111.255,-48"/>
<polygon fill="midnightblue" stroke="midnightblue" points="111.255,-51.5001 121.255,-48 111.255,-44.5001 111.255,-51.5001"/>
</g>
<!-- Node82 -->
<g id="node4" class="node"><title>Node82</title>
<g id="a_node4"><a xlink:href="_free_r_t_o_s__hooks_8c.xhtml#ab7e5c95cf72a3f819bc4462a7fb62ca3" target="_top" xlink:title="vApplicationMallocFailedHook">
<polygon fill="white" stroke="red" points="113,-0.5 113,-19.5 269,-19.5 269,-0.5 113,-0.5"/>
<text text-anchor="middle" x="191" y="-7.5" font-family="Helvetica,sans-Serif" font-size="10.00">vApplicationMallocFailedHook</text>
</a>
</g>
</g>
<!-- Node79&#45;&gt;Node82 -->
<g id="edge3" class="edge"><title>Node79&#45;&gt;Node82</title>
<path fill="none" stroke="midnightblue" d="M76.1178,-38.4493C87.8879,-35.4021 100.988,-32.0344 113,-29 122.019,-26.7215 131.641,-24.3223 140.919,-22.0248"/>
<polygon fill="midnightblue" stroke="midnightblue" points="141.938,-25.3783 150.807,-19.5822 140.26,-18.5826 141.938,-25.3783"/>
</g>
</g>
</svg>
