<?xml version="1.0" encoding="UTF-8" standalone="no"?>
<!DOCTYPE svg PUBLIC "-//W3C//DTD SVG 1.1//EN"
 "http://www.w3.org/Graphics/SVG/1.1/DTD/svg11.dtd">
<!-- Generated by graphviz version 2.38.0 (20140413.2041)
 -->
<!-- Title: prvInsertBlockIntoFreeList Pages: 1 -->
<svg width="260pt" height="66pt"
 viewBox="0.00 0.00 260.00 66.00" xmlns="http://www.w3.org/2000/svg" xmlns:xlink="http://www.w3.org/1999/xlink">
<g id="graph0" class="graph" transform="scale(1 1) rotate(0) translate(4 62)">
<title>prvInsertBlockIntoFreeList</title>
<polygon fill="white" stroke="none" points="-4,4 -4,-62 256,-62 256,4 -4,4"/>
<!-- Node38 -->
<g id="node1" class="node"><title>Node38</title>
<polygon fill="#bfbfbf" stroke="black" points="0,-19.5 0,-38.5 139,-38.5 139,-19.5 0,-19.5"/>
<text text-anchor="middle" x="69.5" y="-26.5" font-family="Helvetica,sans-Serif" font-size="10.00">prvInsertBlockIntoFreeList</text>
</g>
<!-- Node39 -->
<g id="node2" class="node"><title>Node39</title>
<g id="a_node2"><a xlink:href="heap__4__default_8c.xhtml#a0379669d07d76cc81e3028123113b271" target="_top" xlink:title="pvPortMalloc">
<polygon fill="white" stroke="red" points="175,-38.5 175,-57.5 252,-57.5 252,-38.5 175,-38.5"/>
<text text-anchor="middle" x="213.5" y="-45.5" font-family="Helvetica,sans-Serif" font-size="10.00">pvPortMalloc</text>
</a>
</g>
</g>
<!-- Node38&#45;&gt;Node39 -->
<g id="edge1" class="edge"><title>Node38&#45;&gt;Node39</title>
<path fill="none" stroke="midnightblue" d="M149.119,-39.5195C158.044,-40.7137 166.807,-41.8861 174.834,-42.9602"/>
<polygon fill="midnightblue" stroke="midnightblue" points="149.38,-36.0233 139.004,-38.1661 148.452,-42.9615 149.38,-36.0233"/>
</g>
<!-- Node74 -->
<g id="node3" class="node"><title>Node74</title>
<g id="a_node3"><a xlink:href="heap__4__default_8c.xhtml#a1e7cea2fd1bc894ea3b5f5e8179d259b" target="_top" xlink:title="vPortFree">
<polygon fill="white" stroke="red" points="182.5,-0.5 182.5,-19.5 244.5,-19.5 244.5,-0.5 182.5,-0.5"/>
<text text-anchor="middle" x="213.5" y="-7.5" font-family="Helvetica,sans-Serif" font-size="10.00">vPortFree</text>
</a>
</g>
</g>
<!-- Node38&#45;&gt;Node74 -->
<g id="edge2" class="edge"><title>Node38&#45;&gt;Node74</title>
<path fill="none" stroke="midnightblue" d="M148.957,-18.5022C160.763,-16.9226 172.29,-15.3802 182.214,-14.0523"/>
<polygon fill="midnightblue" stroke="midnightblue" points="148.452,-15.0385 139.004,-19.8339 149.38,-21.9767 148.452,-15.0385"/>
</g>
</g>
</svg>
