<?xml version="1.0" encoding="UTF-8" standalone="no"?>
<!DOCTYPE svg PUBLIC "-//W3C//DTD SVG 1.1//EN"
 "http://www.w3.org/Graphics/SVG/1.1/DTD/svg11.dtd">
<!-- Generated by graphviz version 2.38.0 (20140413.2041)
 -->
<!-- Title: prvInsertBlockIntoFreeList_slow Pages: 1 -->
<svg width="311pt" height="66pt"
 viewBox="0.00 0.00 311.00 66.00" xmlns="http://www.w3.org/2000/svg" xmlns:xlink="http://www.w3.org/1999/xlink">
<g id="graph0" class="graph" transform="scale(1 1) rotate(0) translate(4 62)">
<title>prvInsertBlockIntoFreeList_slow</title>
<polygon fill="white" stroke="none" points="-4,4 -4,-62 307,-62 307,4 -4,4"/>
<!-- Node17 -->
<g id="node1" class="node"><title>Node17</title>
<polygon fill="#bfbfbf" stroke="black" points="0,-19.5 0,-38.5 164,-38.5 164,-19.5 0,-19.5"/>
<text text-anchor="middle" x="82" y="-26.5" font-family="Helvetica,sans-Serif" font-size="10.00">prvInsertBlockIntoFreeList_slow</text>
</g>
<!-- Node18 -->
<g id="node2" class="node"><title>Node18</title>
<g id="a_node2"><a xlink:href="heap__4__slow_8c.xhtml#a973c45b036208d00c837bf455b34d7f2" target="_top" xlink:title="pvPortMalloc_slow">
<polygon fill="white" stroke="red" points="200,-38.5 200,-57.5 303,-57.5 303,-38.5 200,-38.5"/>
<text text-anchor="middle" x="251.5" y="-45.5" font-family="Helvetica,sans-Serif" font-size="10.00">pvPortMalloc_slow</text>
</a>
</g>
</g>
<!-- Node17&#45;&gt;Node18 -->
<g id="edge1" class="edge"><title>Node17&#45;&gt;Node18</title>
<path fill="none" stroke="midnightblue" d="M174.274,-39.3535C183.087,-40.3532 191.789,-41.3402 199.984,-42.2698"/>
<polygon fill="midnightblue" stroke="midnightblue" points="174.627,-35.8712 164.297,-38.2217 173.838,-42.8266 174.627,-35.8712"/>
</g>
<!-- Node32 -->
<g id="node3" class="node"><title>Node32</title>
<g id="a_node3"><a xlink:href="heap__4__slow_8c.xhtml#a7f106e0083b9b368e2185b817d5d8d33" target="_top" xlink:title="vPortFree_slow">
<polygon fill="white" stroke="red" points="208,-0.5 208,-19.5 295,-19.5 295,-0.5 208,-0.5"/>
<text text-anchor="middle" x="251.5" y="-7.5" font-family="Helvetica,sans-Serif" font-size="10.00">vPortFree_slow</text>
</a>
</g>
</g>
<!-- Node17&#45;&gt;Node32 -->
<g id="edge2" class="edge"><title>Node17&#45;&gt;Node32</title>
<path fill="none" stroke="midnightblue" d="M174.488,-18.6222C186.053,-17.3104 197.419,-16.0212 207.694,-14.8556"/>
<polygon fill="midnightblue" stroke="midnightblue" points="173.838,-15.1734 164.297,-19.7783 174.627,-22.1288 173.838,-15.1734"/>
</g>
</g>
</svg>
