<?xml version="1.0" encoding="UTF-8" standalone="no"?>
<!DOCTYPE svg PUBLIC "-//W3C//DTD SVG 1.1//EN"
 "http://www.w3.org/Graphics/SVG/1.1/DTD/svg11.dtd">
<!-- Generated by graphviz version 2.38.0 (20140413.2041)
 -->
<!-- Title: ISO7816_IccPowerOff Pages: 1 -->
<svg width="280pt" height="66pt"
 viewBox="0.00 0.00 280.00 66.00" xmlns="http://www.w3.org/2000/svg" xmlns:xlink="http://www.w3.org/1999/xlink">
<g id="graph0" class="graph" transform="scale(1 1) rotate(0) translate(4 62)">
<title>ISO7816_IccPowerOff</title>
<polygon fill="white" stroke="none" points="-4,4 -4,-62 276,-62 276,4 -4,4"/>
<!-- Node23 -->
<g id="node1" class="node"><title>Node23</title>
<polygon fill="#bfbfbf" stroke="black" points="0,-19.5 0,-38.5 117,-38.5 117,-19.5 0,-19.5"/>
<text text-anchor="middle" x="58.5" y="-26.5" font-family="Helvetica,sans-Serif" font-size="10.00">ISO7816_IccPowerOff</text>
</g>
<!-- Node24 -->
<g id="node2" class="node"><title>Node24</title>
<g id="a_node2"><a xlink:href="iso7816__4_8c.xhtml#ada6073c5627d625b66efa790414051ec" target="_top" xlink:title="Warm reset. ">
<polygon fill="white" stroke="black" points="153,-38.5 153,-57.5 272,-57.5 272,-38.5 153,-38.5"/>
<text text-anchor="middle" x="212.5" y="-45.5" font-family="Helvetica,sans-Serif" font-size="10.00">ISO7816_warm_reset</text>
</a>
</g>
</g>
<!-- Node23&#45;&gt;Node24 -->
<g id="edge1" class="edge"><title>Node23&#45;&gt;Node24</title>
<path fill="none" stroke="midnightblue" d="M127.559,-37.5074C135.966,-38.5583 144.504,-39.6255 152.755,-40.6569"/>
<polygon fill="midnightblue" stroke="midnightblue" points="127.755,-34.0047 117.398,-36.2373 126.887,-40.9507 127.755,-34.0047"/>
</g>
<!-- Node25 -->
<g id="node3" class="node"><title>Node25</title>
<g id="a_node3"><a xlink:href="group__usbd__ccid.xhtml#gaaa2098326671145c17cdaa260cf55b70" target="_top" xlink:title="Command Pipe, Bulk&#45;OUT Messages Power Off Command &#45; Set the ICC in an inactive state Return the slot ...">
<polygon fill="white" stroke="red" points="156,-0.5 156,-19.5 269,-19.5 269,-0.5 156,-0.5"/>
<text text-anchor="middle" x="212.5" y="-7.5" font-family="Helvetica,sans-Serif" font-size="10.00">PCtoRDRIccPowerOff</text>
</a>
</g>
</g>
<!-- Node23&#45;&gt;Node25 -->
<g id="edge2" class="edge"><title>Node23&#45;&gt;Node25</title>
<path fill="none" stroke="midnightblue" d="M127.547,-20.4941C136.986,-19.3142 146.59,-18.1137 155.769,-16.9664"/>
<polygon fill="midnightblue" stroke="midnightblue" points="126.887,-17.0493 117.398,-21.7627 127.755,-23.9953 126.887,-17.0493"/>
</g>
</g>
</svg>
