<?xml version="1.0" encoding="UTF-8" standalone="no"?>
<!DOCTYPE svg PUBLIC "-//W3C//DTD SVG 1.1//EN"
 "http://www.w3.org/Graphics/SVG/1.1/DTD/svg11.dtd">
<!-- Generated by graphviz version 2.38.0 (20140413.2041)
 -->
<!-- Title: ISO7816_IccPowerOn Pages: 1 -->
<svg width="280pt" height="66pt"
 viewBox="0.00 0.00 280.00 66.00" xmlns="http://www.w3.org/2000/svg" xmlns:xlink="http://www.w3.org/1999/xlink">
<g id="graph0" class="graph" transform="scale(1 1) rotate(0) translate(4 62)">
<title>ISO7816_IccPowerOn</title>
<polygon fill="white" stroke="none" points="-4,4 -4,-62 276,-62 276,4 -4,4"/>
<!-- Node39 -->
<g id="node1" class="node"><title>Node39</title>
<polygon fill="#bfbfbf" stroke="black" points="0,-19.5 0,-38.5 117,-38.5 117,-19.5 0,-19.5"/>
<text text-anchor="middle" x="58.5" y="-26.5" font-family="Helvetica,sans-Serif" font-size="10.00">ISO7816_IccPowerOn</text>
</g>
<!-- Node40 -->
<g id="node2" class="node"><title>Node40</title>
<g id="a_node2"><a xlink:href="iso7816__4_8c.xhtml#ac91cd7113997202c06dbe16b51f7984b" target="_top" xlink:title="cold reset ">
<polygon fill="white" stroke="red" points="156.5,-38.5 156.5,-57.5 268.5,-57.5 268.5,-38.5 156.5,-38.5"/>
<text text-anchor="middle" x="212.5" y="-45.5" font-family="Helvetica,sans-Serif" font-size="10.00">ISO7816_cold_reset</text>
</a>
</g>
</g>
<!-- Node39&#45;&gt;Node40 -->
<g id="edge1" class="edge"><title>Node39&#45;&gt;Node40</title>
<path fill="none" stroke="midnightblue" d="M127.379,-37.4848C137.043,-38.6929 146.885,-39.9231 156.268,-41.0961"/>
<polygon fill="midnightblue" stroke="midnightblue" points="127.755,-34.0047 117.398,-36.2373 126.887,-40.9507 127.755,-34.0047"/>
</g>
<!-- Node44 -->
<g id="node3" class="node"><title>Node44</title>
<g id="a_node3"><a xlink:href="iso7816__4_8c.xhtml#ada6073c5627d625b66efa790414051ec" target="_top" xlink:title="Warm reset. ">
<polygon fill="white" stroke="black" points="153,-0.5 153,-19.5 272,-19.5 272,-0.5 153,-0.5"/>
<text text-anchor="middle" x="212.5" y="-7.5" font-family="Helvetica,sans-Serif" font-size="10.00">ISO7816_warm_reset</text>
</a>
</g>
</g>
<!-- Node39&#45;&gt;Node44 -->
<g id="edge2" class="edge"><title>Node39&#45;&gt;Node44</title>
<path fill="none" stroke="midnightblue" d="M127.559,-20.4926C135.966,-19.4417 144.504,-18.3745 152.755,-17.3431"/>
<polygon fill="midnightblue" stroke="midnightblue" points="126.887,-17.0493 117.398,-21.7627 127.755,-23.9953 126.887,-17.0493"/>
</g>
</g>
</svg>
