<?xml version="1.0" encoding="UTF-8" standalone="no"?>
<!DOCTYPE svg PUBLIC "-//W3C//DTD SVG 1.1//EN"
 "http://www.w3.org/Graphics/SVG/1.1/DTD/svg11.dtd">
<!-- Generated by graphviz version 2.38.0 (20140413.2041)
 -->
<!-- Title: LCDD_DrawChar Pages: 1 -->
<svg width="240pt" height="66pt"
 viewBox="0.00 0.00 240.00 66.00" xmlns="http://www.w3.org/2000/svg" xmlns:xlink="http://www.w3.org/1999/xlink">
<g id="graph0" class="graph" transform="scale(1 1) rotate(0) translate(4 62)">
<title>LCDD_DrawChar</title>
<polygon fill="white" stroke="none" points="-4,4 -4,-62 236,-62 236,4 -4,4"/>
<!-- Node6 -->
<g id="node1" class="node"><title>Node6</title>
<polygon fill="#bfbfbf" stroke="black" points="0,-19.5 0,-38.5 95,-38.5 95,-19.5 0,-19.5"/>
<text text-anchor="middle" x="47.5" y="-26.5" font-family="Helvetica,sans-Serif" font-size="10.00">LCDD_DrawChar</text>
</g>
<!-- Node7 -->
<g id="node2" class="node"><title>Node7</title>
<g id="a_node2"><a xlink:href="lcd__draw_8c.xhtml#a86b0adfa0004a0ed3b973d7bf5cb4bef" target="_top" xlink:title="Draws a string inside a LCD buffer, at the given coordinates. ">
<polygon fill="white" stroke="black" points="131,-38.5 131,-57.5 232,-57.5 232,-38.5 131,-38.5"/>
<text text-anchor="middle" x="181.5" y="-45.5" font-family="Helvetica,sans-Serif" font-size="10.00">LCDD_DrawString</text>
</a>
</g>
</g>
<!-- Node6&#45;&gt;Node7 -->
<g id="edge1" class="edge"><title>Node6&#45;&gt;Node7</title>
<path fill="none" stroke="midnightblue" d="M104.981,-37.1298C113.567,-38.3656 122.372,-39.6331 130.799,-40.8461"/>
<polygon fill="midnightblue" stroke="midnightblue" points="105.435,-33.6592 95.0383,-35.6987 104.438,-40.5878 105.435,-33.6592"/>
</g>
<!-- Node8 -->
<g id="node3" class="node"><title>Node8</title>
<g id="a_node3"><a xlink:href="lcd__font_8c.xhtml#ae09f189b910c34bc30c072349d2fabfc" target="_top" xlink:title="Draws a string inside a LCD buffer, at the given coordinates. ">
<polygon fill="white" stroke="black" points="134.5,-0.5 134.5,-19.5 228.5,-19.5 228.5,-0.5 134.5,-0.5"/>
<text text-anchor="middle" x="181.5" y="-7.5" font-family="Helvetica,sans-Serif" font-size="10.00">LCD_DrawString</text>
</a>
</g>
</g>
<!-- Node6&#45;&gt;Node8 -->
<g id="edge2" class="edge"><title>Node6&#45;&gt;Node8</title>
<path fill="none" stroke="midnightblue" d="M105.088,-20.8547C114.866,-19.4474 124.924,-17.9995 134.382,-16.6382"/>
<polygon fill="midnightblue" stroke="midnightblue" points="104.438,-17.4122 95.0383,-22.3013 105.435,-24.3408 104.438,-17.4122"/>
</g>
</g>
</svg>
