<?xml version="1.0" encoding="UTF-8" standalone="no"?>
<!DOCTYPE svg PUBLIC "-//W3C//DTD SVG 1.1//EN"
 "http://www.w3.org/Graphics/SVG/1.1/DTD/svg11.dtd">
<!-- Generated by graphviz version 2.38.0 (20140413.2041)
 -->
<!-- Title: LCDD_DrawLine Pages: 1 -->
<svg width="284pt" height="66pt"
 viewBox="0.00 0.00 284.00 66.00" xmlns="http://www.w3.org/2000/svg" xmlns:xlink="http://www.w3.org/1999/xlink">
<g id="graph0" class="graph" transform="scale(1 1) rotate(0) translate(4 62)">
<title>LCDD_DrawLine</title>
<polygon fill="white" stroke="none" points="-4,4 -4,-62 280,-62 280,4 -4,4"/>
<!-- Node19 -->
<g id="node1" class="node"><title>Node19</title>
<polygon fill="#bfbfbf" stroke="black" points="0,-19.5 0,-38.5 92,-38.5 92,-19.5 0,-19.5"/>
<text text-anchor="middle" x="46" y="-26.5" font-family="Helvetica,sans-Serif" font-size="10.00">LCDD_DrawLine</text>
</g>
<!-- Node20 -->
<g id="node2" class="node"><title>Node20</title>
<g id="a_node2"><a xlink:href="lcd__draw_8c.xhtml#a4748c46fe4b10f01e49106c9fd2d22da" target="_top" xlink:title="LCDD_DrawStraightLine">
<polygon fill="white" stroke="red" points="136.5,-38.5 136.5,-57.5 267.5,-57.5 267.5,-38.5 136.5,-38.5"/>
<text text-anchor="middle" x="202" y="-45.5" font-family="Helvetica,sans-Serif" font-size="10.00">LCDD_DrawStraightLine</text>
</a>
</g>
</g>
<!-- Node19&#45;&gt;Node20 -->
<g id="edge1" class="edge"><title>Node19&#45;&gt;Node20</title>
<path fill="none" stroke="midnightblue" d="M92.3721,-34.5979C103.009,-35.9101 114.619,-37.3427 126.165,-38.7672"/>
<polygon fill="midnightblue" stroke="midnightblue" points="125.916,-42.2628 136.269,-40.0137 126.773,-35.3155 125.916,-42.2628"/>
</g>
<!-- Node22 -->
<g id="node3" class="node"><title>Node22</title>
<g id="a_node3"><a xlink:href="lcd__draw_8c.xhtml#a2ae2f58d2a7bb12afa7a6510dd94a0a6" target="_top" xlink:title="LCDD_DrawLineBresenham">
<polygon fill="white" stroke="red" points="128,-0.5 128,-19.5 276,-19.5 276,-0.5 128,-0.5"/>
<text text-anchor="middle" x="202" y="-7.5" font-family="Helvetica,sans-Serif" font-size="10.00">LCDD_DrawLineBresenham</text>
</a>
</g>
</g>
<!-- Node19&#45;&gt;Node22 -->
<g id="edge2" class="edge"><title>Node19&#45;&gt;Node22</title>
<path fill="none" stroke="midnightblue" d="M92.3721,-23.4021C100.494,-22.4 109.185,-21.3278 117.981,-20.2426"/>
<polygon fill="midnightblue" stroke="midnightblue" points="118.436,-23.7131 127.932,-19.0149 117.579,-16.7658 118.436,-23.7131"/>
</g>
</g>
</svg>
