<?xml version="1.0" encoding="UTF-8" standalone="no"?>
<!DOCTYPE svg PUBLIC "-//W3C//DTD SVG 1.1//EN"
 "http://www.w3.org/Graphics/SVG/1.1/DTD/svg11.dtd">
<!-- Generated by graphviz version 2.38.0 (20140413.2041)
 -->
<!-- Title: LCDD_Initialize Pages: 1 -->
<svg width="304pt" height="142pt"
 viewBox="0.00 0.00 304.00 142.00" xmlns="http://www.w3.org/2000/svg" xmlns:xlink="http://www.w3.org/1999/xlink">
<g id="graph0" class="graph" transform="scale(1 1) rotate(0) translate(4 138)">
<title>LCDD_Initialize</title>
<polygon fill="white" stroke="none" points="-4,4 -4,-138 300,-138 300,4 -4,4"/>
<!-- Node0 -->
<g id="node1" class="node"><title>Node0</title>
<polygon fill="#bfbfbf" stroke="black" points="0,-57.5 0,-76.5 87,-76.5 87,-57.5 0,-57.5"/>
<text text-anchor="middle" x="43.5" y="-64.5" font-family="Helvetica,sans-Serif" font-size="10.00">LCDD_Initialize</text>
</g>
<!-- Node1 -->
<g id="node2" class="node"><title>Node1</title>
<g id="a_node2"><a xlink:href="ili9488__spi_8h.xhtml#ac1b668603c0526f8fc04d14f075965fa" target="_top" xlink:title="ILI9488_SpiInitialize">
<polygon fill="white" stroke="black" points="155,-114.5 155,-133.5 264,-133.5 264,-114.5 155,-114.5"/>
<text text-anchor="middle" x="209.5" y="-121.5" font-family="Helvetica,sans-Serif" font-size="10.00">ILI9488_SpiInitialize</text>
</a>
</g>
</g>
<!-- Node0&#45;&gt;Node1 -->
<g id="edge1" class="edge"><title>Node0&#45;&gt;Node1</title>
<path fill="none" stroke="midnightblue" d="M61.4667,-76.6422C77.0428,-85.1441 100.977,-97.3394 123,-105 130.556,-107.628 138.617,-109.979 146.656,-112.054"/>
<polygon fill="midnightblue" stroke="midnightblue" points="145.871,-115.465 156.417,-114.45 147.54,-108.667 145.871,-115.465"/>
</g>
<!-- Node2 -->
<g id="node3" class="node"><title>Node2</title>
<g id="a_node3"><a xlink:href="ili9488__spi_8h.xhtml#a464522ed5e56d19b2c337931fad4faa9" target="_top" xlink:title="ILI9488_SpiSetDisplayLandscape">
<polygon fill="white" stroke="black" points="123,-76.5 123,-95.5 296,-95.5 296,-76.5 123,-76.5"/>
<text text-anchor="middle" x="209.5" y="-83.5" font-family="Helvetica,sans-Serif" font-size="10.00">ILI9488_SpiSetDisplayLandscape</text>
</a>
</g>
</g>
<!-- Node0&#45;&gt;Node2 -->
<g id="edge2" class="edge"><title>Node0&#45;&gt;Node2</title>
<path fill="none" stroke="midnightblue" d="M87.1609,-71.9424C96.2009,-72.9897 106.077,-74.1339 116.165,-75.3026"/>
<polygon fill="midnightblue" stroke="midnightblue" points="115.964,-78.8027 126.3,-76.4768 116.769,-71.8492 115.964,-78.8027"/>
</g>
<!-- Node3 -->
<g id="node4" class="node"><title>Node3</title>
<g id="a_node4"><a xlink:href="ili9488__ebi_8h.xhtml#a26b20d42c2e1d5b63df5c8883af3f2be" target="_top" xlink:title="ILI9488_EbiInitialize">
<polygon fill="white" stroke="black" points="155.5,-38.5 155.5,-57.5 263.5,-57.5 263.5,-38.5 155.5,-38.5"/>
<text text-anchor="middle" x="209.5" y="-45.5" font-family="Helvetica,sans-Serif" font-size="10.00">ILI9488_EbiInitialize</text>
</a>
</g>
</g>
<!-- Node0&#45;&gt;Node3 -->
<g id="edge3" class="edge"><title>Node0&#45;&gt;Node3</title>
<path fill="none" stroke="midnightblue" d="M87.1609,-62.0576C104.941,-59.9977 125.955,-57.5631 145.456,-55.3038"/>
<polygon fill="midnightblue" stroke="midnightblue" points="145.96,-58.769 155.491,-54.1413 145.155,-51.8155 145.96,-58.769"/>
</g>
<!-- Node4 -->
<g id="node5" class="node"><title>Node4</title>
<g id="a_node5"><a xlink:href="ili9488__ebi_8h.xhtml#ab1494aab036e82b42e363521459b6a11" target="_top" xlink:title="ILI9488_EbiSetDisplayLandscape">
<polygon fill="white" stroke="black" points="123,-0.5 123,-19.5 296,-19.5 296,-0.5 123,-0.5"/>
<text text-anchor="middle" x="209.5" y="-7.5" font-family="Helvetica,sans-Serif" font-size="10.00">ILI9488_EbiSetDisplayLandscape</text>
</a>
</g>
</g>
<!-- Node0&#45;&gt;Node4 -->
<g id="edge4" class="edge"><title>Node0&#45;&gt;Node4</title>
<path fill="none" stroke="midnightblue" d="M61.4667,-57.3578C77.0428,-48.8559 100.977,-36.6606 123,-29 130.556,-26.3718 138.617,-24.0215 146.656,-21.9457"/>
<polygon fill="midnightblue" stroke="midnightblue" points="147.54,-25.3329 156.417,-19.5497 145.871,-18.5347 147.54,-25.3329"/>
</g>
</g>
</svg>
