<?xml version="1.0" encoding="UTF-8" standalone="no"?>
<!DOCTYPE svg PUBLIC "-//W3C//DTD SVG 1.1//EN"
 "http://www.w3.org/Graphics/SVG/1.1/DTD/svg11.dtd">
<!-- Generated by graphviz version 2.38.0 (20140413.2041)
 -->
<!-- Title: LED_Set Pages: 1 -->
<svg width="163pt" height="66pt"
 viewBox="0.00 0.00 163.00 66.00" xmlns="http://www.w3.org/2000/svg" xmlns:xlink="http://www.w3.org/1999/xlink">
<g id="graph0" class="graph" transform="scale(1 1) rotate(0) translate(4 62)">
<title>LED_Set</title>
<polygon fill="white" stroke="none" points="-4,4 -4,-62 159,-62 159,4 -4,4"/>
<!-- Node14 -->
<g id="node1" class="node"><title>Node14</title>
<polygon fill="#bfbfbf" stroke="black" points="0,-19.5 0,-38.5 57,-38.5 57,-19.5 0,-19.5"/>
<text text-anchor="middle" x="28.5" y="-26.5" font-family="Helvetica,sans-Serif" font-size="10.00">LED_Set</text>
</g>
<!-- Node15 -->
<g id="node2" class="node"><title>Node15</title>
<g id="a_node2"><a xlink:href="pio_8h.xhtml#aac9a3cac1a51b45f82b30bd7a29826a6" target="_top" xlink:title="Sets a high output level on all the PIOs defined in the given Pin instance. ">
<polygon fill="white" stroke="black" points="97,-38.5 97,-57.5 151,-57.5 151,-38.5 97,-38.5"/>
<text text-anchor="middle" x="124" y="-45.5" font-family="Helvetica,sans-Serif" font-size="10.00">PIO_Set</text>
</a>
</g>
</g>
<!-- Node14&#45;&gt;Node15 -->
<g id="edge1" class="edge"><title>Node14&#45;&gt;Node15</title>
<path fill="none" stroke="midnightblue" d="M57.0474,-34.5979C66.4027,-36.4989 76.9997,-38.6523 86.9196,-40.6682"/>
<polygon fill="midnightblue" stroke="midnightblue" points="86.435,-44.1411 96.9317,-42.7027 87.829,-37.2813 86.435,-44.1411"/>
</g>
<!-- Node16 -->
<g id="node3" class="node"><title>Node16</title>
<g id="a_node3"><a xlink:href="pio_8h.xhtml#a2d4d88110e7ab4fc0732df6d35289e06" target="_top" xlink:title="Sets a low output level on all the PIOs defined in the given Pin instance. ">
<polygon fill="white" stroke="black" points="93,-0.5 93,-19.5 155,-19.5 155,-0.5 93,-0.5"/>
<text text-anchor="middle" x="124" y="-7.5" font-family="Helvetica,sans-Serif" font-size="10.00">PIO_Clear</text>
</a>
</g>
</g>
<!-- Node14&#45;&gt;Node16 -->
<g id="edge2" class="edge"><title>Node14&#45;&gt;Node16</title>
<path fill="none" stroke="midnightblue" d="M57.0474,-23.4021C65.1006,-21.7657 74.0739,-19.9422 82.7434,-18.1805"/>
<polygon fill="midnightblue" stroke="midnightblue" points="83.6051,-21.577 92.7078,-16.1556 82.2111,-14.7172 83.6051,-21.577"/>
</g>
</g>
</svg>
