<?xml version="1.0" encoding="UTF-8" standalone="no"?>
<!DOCTYPE svg PUBLIC "-//W3C//DTD SVG 1.1//EN"
 "http://www.w3.org/Graphics/SVG/1.1/DTD/svg11.dtd">
<!-- Generated by graphviz version 2.38.0 (20140413.2041)
 -->
<!-- Title: src/hal/x4m0x_s70/libraries/libboard/include/math.h Pages: 1 -->
<svg width="294pt" height="117pt"
 viewBox="0.00 0.00 294.00 117.00" xmlns="http://www.w3.org/2000/svg" xmlns:xlink="http://www.w3.org/1999/xlink">
<g id="graph0" class="graph" transform="scale(1 1) rotate(0) translate(4 113)">
<title>src/hal/x4m0x_s70/libraries/libboard/include/math.h</title>
<polygon fill="white" stroke="none" points="-4,4 -4,-113 290,-113 290,4 -4,4"/>
<!-- Node1 -->
<g id="node1" class="node"><title>Node1</title>
<polygon fill="#bfbfbf" stroke="black" points="78.5,-78.5 78.5,-108.5 224.5,-108.5 224.5,-78.5 78.5,-78.5"/>
<text text-anchor="start" x="86.5" y="-96.5" font-family="Helvetica,sans-Serif" font-size="10.00">src/hal/x4m0x_s70/libraries</text>
<text text-anchor="middle" x="151.5" y="-85.5" font-family="Helvetica,sans-Serif" font-size="10.00">/libboard/include/math.h</text>
</g>
<!-- Node2 -->
<g id="node2" class="node"><title>Node2</title>
<g id="a_node2"><a xlink:href="arm__math_8h.xhtml" target="_top" xlink:title="src/hal/x4m0x_s70/libraries\l/libchip/include/cmsis/CMSIS\l/Include/arm_math.h">
<polygon fill="white" stroke="red" points="0,-0.5 0,-41.5 151,-41.5 151,-0.5 0,-0.5"/>
<text text-anchor="start" x="8" y="-29.5" font-family="Helvetica,sans-Serif" font-size="10.00">src/hal/x4m0x_s70/libraries</text>
<text text-anchor="start" x="8" y="-18.5" font-family="Helvetica,sans-Serif" font-size="10.00">/libchip/include/cmsis/CMSIS</text>
<text text-anchor="middle" x="75.5" y="-7.5" font-family="Helvetica,sans-Serif" font-size="10.00">/Include/arm_math.h</text>
</a>
</g>
</g>
<!-- Node1&#45;&gt;Node2 -->
<g id="edge1" class="edge"><title>Node1&#45;&gt;Node2</title>
<path fill="none" stroke="midnightblue" d="M128.731,-71.3792C118.543,-61.9277 106.603,-50.8524 96.6166,-41.5884"/>
<polygon fill="midnightblue" stroke="midnightblue" points="126.409,-73.9984 136.12,-78.2333 131.169,-68.8664 126.409,-73.9984"/>
</g>
<!-- Node7 -->
<g id="node3" class="node"><title>Node7</title>
<g id="a_node3"><a xlink:href="x4driver_8c.xhtml" target="_top" xlink:title="Platform independent driver to interface with Xx radar. ">
<polygon fill="white" stroke="black" points="169,-11.5 169,-30.5 286,-30.5 286,-11.5 169,-11.5"/>
<text text-anchor="middle" x="227.5" y="-18.5" font-family="Helvetica,sans-Serif" font-size="10.00">src/XDriver/x4driver.c</text>
</a>
</g>
</g>
<!-- Node1&#45;&gt;Node7 -->
<g id="edge2" class="edge"><title>Node1&#45;&gt;Node7</title>
<path fill="none" stroke="midnightblue" d="M174.53,-71.1369C189.066,-57.6528 207.081,-40.9417 217.913,-30.8932"/>
<polygon fill="midnightblue" stroke="midnightblue" points="171.831,-68.8664 166.88,-78.2333 176.591,-73.9984 171.831,-68.8664"/>
</g>
</g>
</svg>
