<?xml version="1.0" encoding="UTF-8" standalone="no"?>
<!DOCTYPE svg PUBLIC "-//W3C//DTD SVG 1.1//EN"
 "http://www.w3.org/Graphics/SVG/1.1/DTD/svg11.dtd">
<!-- Generated by graphviz version 2.38.0 (20140413.2041)
 -->
<!-- Title: MCAN_ClearMessageStoredToRxFifo1 Pages: 1 -->
<svg width="375pt" height="812pt"
 viewBox="0.00 0.00 375.00 812.00" xmlns="http://www.w3.org/2000/svg" xmlns:xlink="http://www.w3.org/1999/xlink">
<g id="graph0" class="graph" transform="scale(1 1) rotate(0) translate(4 808)">
<title>MCAN_ClearMessageStoredToRxFifo1</title>
<polygon fill="white" stroke="none" points="-4,4 -4,-808 371,-808 371,4 -4,4"/>
<!-- Node4 -->
<g id="node1" class="node"><title>Node4</title>
<polygon fill="#bfbfbf" stroke="black" points="0,-387 0,-417 161,-417 161,-387 0,-387"/>
<text text-anchor="start" x="8" y="-405" font-family="Helvetica,sans-Serif" font-size="10.00">MCAN_ClearMessageStoredTo</text>
<text text-anchor="middle" x="80.5" y="-394" font-family="Helvetica,sans-Serif" font-size="10.00">RxFifo1</text>
</g>
<!-- Node5 -->
<g id="node2" class="node"><title>Node5</title>
<g id="a_node2"><a xlink:href="group__can__module.xhtml#ga9b35cd79fb5eeec8cf1ba7247b25a646" target="_top" xlink:title="Initializes the MCAN hardware for giving peripheral. ">
<polygon fill="white" stroke="red" points="249.5,-784.5 249.5,-803.5 314.5,-803.5 314.5,-784.5 249.5,-784.5"/>
<text text-anchor="middle" x="282" y="-791.5" font-family="Helvetica,sans-Serif" font-size="10.00">MCAN_Init</text>
</a>
</g>
</g>
<!-- Node4&#45;&gt;Node5 -->
<g id="edge1" class="edge"><title>Node4&#45;&gt;Node5</title>
<path fill="none" stroke="midnightblue" d="M81.2094,-417.191C81.0038,-473.806 88.2657,-674.417 197,-775 208.326,-785.477 224.169,-790.595 239.047,-792.971"/>
<polygon fill="midnightblue" stroke="midnightblue" points="238.774,-796.464 249.126,-794.211 239.628,-789.516 238.774,-796.464"/>
</g>
<!-- Node18 -->
<g id="node3" class="node"><title>Node18</title>
<g id="a_node3"><a xlink:href="group__can__module.xhtml#gac443cf440414e78292b1db93763baaf2" target="_top" xlink:title="Enables a FUTURE switch to FD mode (tx &amp; rx payloads up to 64 bytes) but transmits WITHOUT bit rate s...">
<polygon fill="white" stroke="black" points="227.5,-746.5 227.5,-765.5 336.5,-765.5 336.5,-746.5 227.5,-746.5"/>
<text text-anchor="middle" x="282" y="-753.5" font-family="Helvetica,sans-Serif" font-size="10.00">MCAN_InitFdEnable</text>
</a>
</g>
</g>
<!-- Node4&#45;&gt;Node18 -->
<g id="edge2" class="edge"><title>Node4&#45;&gt;Node18</title>
<path fill="none" stroke="midnightblue" d="M81.816,-417.117C83.7819,-469.975 97.8052,-648.119 197,-737 202.951,-742.332 210.077,-746.266 217.629,-749.153"/>
<polygon fill="midnightblue" stroke="midnightblue" points="216.775,-752.554 227.366,-752.276 218.913,-745.889 216.775,-752.554"/>
</g>
<!-- Node19 -->
<g id="node4" class="node"><title>Node19</title>
<g id="a_node4"><a xlink:href="group__can__module.xhtml#ga70121d88d13dc887de45ec346a080efb" target="_top" xlink:title="Enables a FUTURE switch to FD mode (tx &amp; rx payloads up to 64 bytes) and transmits WITH bit rate swit...">
<polygon fill="white" stroke="black" points="211,-697 211,-727 353,-727 353,-697 211,-697"/>
<text text-anchor="start" x="219" y="-715" font-family="Helvetica,sans-Serif" font-size="10.00">MCAN_InitFdBitRateSwitch</text>
<text text-anchor="middle" x="282" y="-704" font-family="Helvetica,sans-Serif" font-size="10.00">Enable</text>
</a>
</g>
</g>
<!-- Node4&#45;&gt;Node19 -->
<g id="edge3" class="edge"><title>Node4&#45;&gt;Node19</title>
<path fill="none" stroke="midnightblue" d="M83.0979,-417.282C88.8809,-464.7 113.031,-610.711 197,-687 198.739,-688.58 200.573,-690.059 202.485,-691.446"/>
<polygon fill="midnightblue" stroke="midnightblue" points="200.975,-694.629 211.313,-696.947 204.677,-688.688 200.975,-694.629"/>
</g>
<!-- Node20 -->
<g id="node5" class="node"><title>Node20</title>
<g id="a_node5"><a xlink:href="group__can__module.xhtml#gaf7258e6de240c101aa46f33a26c87615" target="_top" xlink:title="Initializes MCAN queue for TX INIT must be set &#45; so this should be called between MCAN_Init() and MCA...">
<polygon fill="white" stroke="black" points="228.5,-658.5 228.5,-677.5 335.5,-677.5 335.5,-658.5 228.5,-658.5"/>
<text text-anchor="middle" x="282" y="-665.5" font-family="Helvetica,sans-Serif" font-size="10.00">MCAN_InitTxQueue</text>
</a>
</g>
</g>
<!-- Node4&#45;&gt;Node20 -->
<g id="edge4" class="edge"><title>Node4&#45;&gt;Node20</title>
<path fill="none" stroke="midnightblue" d="M83.8475,-417.02C91.4525,-460.384 119.571,-586.652 197,-649 203.375,-654.133 210.865,-657.94 218.701,-660.753"/>
<polygon fill="midnightblue" stroke="midnightblue" points="217.793,-664.135 228.379,-663.713 219.84,-657.441 217.793,-664.135"/>
</g>
<!-- Node21 -->
<g id="node6" class="node"><title>Node21</title>
<g id="a_node6"><a xlink:href="group__can__module.xhtml#ga97adc21dfdf714818018ae78b51bf02e" target="_top" xlink:title="Initializes the MCAN in loop back mode. ">
<polygon fill="white" stroke="black" points="226.5,-620.5 226.5,-639.5 337.5,-639.5 337.5,-620.5 226.5,-620.5"/>
<text text-anchor="middle" x="282" y="-627.5" font-family="Helvetica,sans-Serif" font-size="10.00">MCAN_InitLoopback</text>
</a>
</g>
</g>
<!-- Node4&#45;&gt;Node21 -->
<g id="edge5" class="edge"><title>Node4&#45;&gt;Node21</title>
<path fill="none" stroke="midnightblue" d="M85.258,-417.217C95.6985,-456.139 128.88,-559.837 197,-611 202.836,-615.383 209.5,-618.785 216.464,-621.422"/>
<polygon fill="midnightblue" stroke="midnightblue" points="215.506,-624.79 226.098,-624.562 217.675,-618.135 215.506,-624.79"/>
</g>
<!-- Node22 -->
<g id="node7" class="node"><title>Node22</title>
<g id="a_node7"><a xlink:href="group__can__module.xhtml#ga712fa4d48e3fd1365a08a91cd3932104" target="_top" xlink:title="Enable MCAN peripheral. ">
<polygon fill="white" stroke="black" points="240.5,-582.5 240.5,-601.5 323.5,-601.5 323.5,-582.5 240.5,-582.5"/>
<text text-anchor="middle" x="282" y="-589.5" font-family="Helvetica,sans-Serif" font-size="10.00">MCAN_Enable</text>
</a>
</g>
</g>
<!-- Node4&#45;&gt;Node22 -->
<g id="edge6" class="edge"><title>Node4&#45;&gt;Node22</title>
<path fill="none" stroke="midnightblue" d="M87.1711,-417.164C100.626,-450.941 137.848,-532.567 197,-573 206.833,-579.722 218.681,-584.1 230.337,-586.942"/>
<polygon fill="midnightblue" stroke="midnightblue" points="229.971,-590.441 240.476,-589.065 231.405,-583.59 229.971,-590.441"/>
</g>
<!-- Node23 -->
<g id="node8" class="node"><title>Node23</title>
<g id="a_node8"><a xlink:href="group__can__module.xhtml#gac2744eec323b9b5ba844c433362d0501" target="_top" xlink:title="Requests switch to Iso11898&#45;1 (standard / classic) mode (tx &amp; rx payloads up to 8 bytes)...">
<polygon fill="white" stroke="black" points="210,-544.5 210,-563.5 354,-563.5 354,-544.5 210,-544.5"/>
<text text-anchor="middle" x="282" y="-551.5" font-family="Helvetica,sans-Serif" font-size="10.00">MCAN_RequestIso11898_1</text>
</a>
</g>
</g>
<!-- Node4&#45;&gt;Node23 -->
<g id="edge7" class="edge"><title>Node4&#45;&gt;Node23</title>
<path fill="none" stroke="midnightblue" d="M90.0987,-417.13C106.836,-445.116 146.61,-504.858 197,-535 200.681,-537.202 204.592,-539.149 208.635,-540.87"/>
<polygon fill="midnightblue" stroke="midnightblue" points="207.67,-544.247 218.262,-544.492 210.135,-537.695 207.67,-544.247"/>
</g>
<!-- Node24 -->
<g id="node9" class="node"><title>Node24</title>
<g id="a_node9"><a xlink:href="group__can__module.xhtml#ga3cab9ee5985894d07f48d0d5edee6ab4" target="_top" xlink:title="Requests switch to FD mode (tx &amp; rx payloads up to 64 bytes) but transmits WITHOUT bit rate switching...">
<polygon fill="white" stroke="black" points="231.5,-506.5 231.5,-525.5 332.5,-525.5 332.5,-506.5 231.5,-506.5"/>
<text text-anchor="middle" x="282" y="-513.5" font-family="Helvetica,sans-Serif" font-size="10.00">MCAN_RequestFd</text>
</a>
</g>
</g>
<!-- Node4&#45;&gt;Node24 -->
<g id="edge8" class="edge"><title>Node4&#45;&gt;Node24</title>
<path fill="none" stroke="midnightblue" d="M95.2336,-417.066C115.423,-438.258 155.261,-476.56 197,-497 204.625,-500.734 212.999,-503.746 221.416,-506.173"/>
<polygon fill="midnightblue" stroke="midnightblue" points="220.713,-509.607 231.274,-508.762 222.491,-502.837 220.713,-509.607"/>
</g>
<!-- Node25 -->
<g id="node10" class="node"><title>Node25</title>
<g id="a_node10"><a xlink:href="group__can__module.xhtml#gaa1d5fa926fb534c0dea67923865fb356" target="_top" xlink:title="Request switch to FD mode (tx &amp; rx payloads up to 64 bytes) and transmits WITH bit rate switching...">
<polygon fill="white" stroke="black" points="199,-468.5 199,-487.5 365,-487.5 365,-468.5 199,-468.5"/>
<text text-anchor="middle" x="282" y="-475.5" font-family="Helvetica,sans-Serif" font-size="10.00">MCAN_RequestFdBitRateSwitch</text>
</a>
</g>
</g>
<!-- Node4&#45;&gt;Node25 -->
<g id="edge9" class="edge"><title>Node4&#45;&gt;Node25</title>
<path fill="none" stroke="midnightblue" d="M107.789,-417.211C130.707,-429.92 165.173,-447.726 197,-459 204.333,-461.598 212.155,-463.924 219.965,-465.983"/>
<polygon fill="midnightblue" stroke="midnightblue" points="219.262,-469.415 229.813,-468.447 220.961,-462.624 219.262,-469.415"/>
</g>
<!-- Node26 -->
<g id="node11" class="node"><title>Node26</title>
<g id="a_node11"><a xlink:href="group__can__module.xhtml#gac00448534ba8dbcf25329259d2312c10" target="_top" xlink:title="Switch on loop back mode. ">
<polygon fill="white" stroke="black" points="227,-430.5 227,-449.5 337,-449.5 337,-430.5 227,-430.5"/>
<text text-anchor="middle" x="282" y="-437.5" font-family="Helvetica,sans-Serif" font-size="10.00">MCAN_LoopbackOn</text>
</a>
</g>
</g>
<!-- Node4&#45;&gt;Node26 -->
<g id="edge10" class="edge"><title>Node4&#45;&gt;Node26</title>
<path fill="none" stroke="midnightblue" d="M160.348,-417.019C180.566,-420.87 201.984,-424.949 221.074,-428.585"/>
<polygon fill="midnightblue" stroke="midnightblue" points="220.642,-432.066 231.12,-430.499 221.952,-425.19 220.642,-432.066"/>
</g>
<!-- Node27 -->
<g id="node12" class="node"><title>Node27</title>
<g id="a_node12"><a xlink:href="group__can__module.xhtml#ga7e36eef54b4e8a426a10c540de9457be" target="_top" xlink:title="Switch off loop back mode. ">
<polygon fill="white" stroke="black" points="227,-392.5 227,-411.5 337,-411.5 337,-392.5 227,-392.5"/>
<text text-anchor="middle" x="282" y="-399.5" font-family="Helvetica,sans-Serif" font-size="10.00">MCAN_LoopbackOff</text>
</a>
</g>
</g>
<!-- Node4&#45;&gt;Node27 -->
<g id="edge11" class="edge"><title>Node4&#45;&gt;Node27</title>
<path fill="none" stroke="midnightblue" d="M161.208,-402C179.625,-402 198.993,-402 216.659,-402"/>
<polygon fill="midnightblue" stroke="midnightblue" points="216.843,-405.5 226.843,-402 216.843,-398.5 216.843,-405.5"/>
</g>
<!-- Node28 -->
<g id="node13" class="node"><title>Node28</title>
<g id="a_node13"><a xlink:href="group__can__module.xhtml#ga51d74c9a24d0321d3a0846422f95c70a" target="_top" xlink:title="Enable message line and message stored to Dedicated Receive Buffer Interrupt Line. ">
<polygon fill="white" stroke="black" points="201.5,-343 201.5,-373 362.5,-373 362.5,-343 201.5,-343"/>
<text text-anchor="start" x="209.5" y="-361" font-family="Helvetica,sans-Serif" font-size="10.00">MCAN_IEnableMessageStored</text>
<text text-anchor="middle" x="282" y="-350" font-family="Helvetica,sans-Serif" font-size="10.00">ToRxDedBuffer</text>
</a>
</g>
</g>
<!-- Node4&#45;&gt;Node28 -->
<g id="edge12" class="edge"><title>Node4&#45;&gt;Node28</title>
<path fill="none" stroke="midnightblue" d="M149.599,-386.981C166.678,-383.214 185.138,-379.143 202.671,-375.276"/>
<polygon fill="midnightblue" stroke="midnightblue" points="203.858,-378.598 212.87,-373.026 202.351,-371.762 203.858,-378.598"/>
</g>
<!-- Node29 -->
<g id="node14" class="node"><title>Node29</title>
<g id="a_node14"><a xlink:href="group__can__module.xhtml#ga7188d34f789a5ba22b48cb650320c12e" target="_top" xlink:title="Configures a Dedicated TX Buffer. ">
<polygon fill="white" stroke="black" points="212,-304.5 212,-323.5 352,-323.5 352,-304.5 212,-304.5"/>
<text text-anchor="middle" x="282" y="-311.5" font-family="Helvetica,sans-Serif" font-size="10.00">MCAN_ConfigTxDedBuffer</text>
</a>
</g>
</g>
<!-- Node4&#45;&gt;Node29 -->
<g id="edge13" class="edge"><title>Node4&#45;&gt;Node29</title>
<path fill="none" stroke="midnightblue" d="M102.638,-386.925C125.07,-371.574 162.034,-348.085 197,-334 204.414,-331.013 212.384,-328.403 220.356,-326.142"/>
<polygon fill="midnightblue" stroke="midnightblue" points="221.286,-329.517 230.045,-323.556 219.481,-322.754 221.286,-329.517"/>
</g>
<!-- Node30 -->
<g id="node15" class="node"><title>Node30</title>
<g id="a_node15"><a xlink:href="group__can__module.xhtml#gab682df72e52163a4bbd6f89fe25a2459" target="_top" xlink:title="Send Tx buffer. ">
<polygon fill="white" stroke="black" points="215,-266.5 215,-285.5 349,-285.5 349,-266.5 215,-266.5"/>
<text text-anchor="middle" x="282" y="-273.5" font-family="Helvetica,sans-Serif" font-size="10.00">MCAN_SendTxDedBuffer</text>
</a>
</g>
</g>
<!-- Node4&#45;&gt;Node30 -->
<g id="edge14" class="edge"><title>Node4&#45;&gt;Node30</title>
<path fill="none" stroke="midnightblue" d="M93.2098,-386.932C112.302,-363.462 152.501,-318.441 197,-295 201.514,-292.622 206.318,-290.54 211.253,-288.718"/>
<polygon fill="midnightblue" stroke="midnightblue" points="212.478,-291.999 220.865,-285.525 210.271,-285.357 212.478,-291.999"/>
</g>
<!-- Node31 -->
<g id="node16" class="node"><title>Node31</title>
<g id="a_node16"><a xlink:href="group__can__module.xhtml#gace77a1a2cb9ad1ae872ce9d6a163f732" target="_top" xlink:title="Adds Message to TX Fifo / Queue. ">
<polygon fill="white" stroke="black" points="225.5,-228.5 225.5,-247.5 338.5,-247.5 338.5,-228.5 225.5,-228.5"/>
<text text-anchor="middle" x="282" y="-235.5" font-family="Helvetica,sans-Serif" font-size="10.00">MCAN_AddToTxFifoQ</text>
</a>
</g>
</g>
<!-- Node4&#45;&gt;Node31 -->
<g id="edge15" class="edge"><title>Node4&#45;&gt;Node31</title>
<path fill="none" stroke="midnightblue" d="M88.993,-386.906C104.65,-357.026 143.838,-290.353 197,-257 202.701,-253.423 208.995,-250.517 215.496,-248.155"/>
<polygon fill="midnightblue" stroke="midnightblue" points="216.669,-251.455 225.125,-245.072 214.534,-244.788 216.669,-251.455"/>
</g>
<!-- Node32 -->
<g id="node17" class="node"><title>Node32</title>
<g id="a_node17"><a xlink:href="group__can__module.xhtml#gaee6e3a1e95ef603e33da5421167ad776" target="_top" xlink:title="Check if data transmitted from buffer/fifo/queue. ">
<polygon fill="white" stroke="black" points="230,-190.5 230,-209.5 334,-209.5 334,-190.5 230,-190.5"/>
<text text-anchor="middle" x="282" y="-197.5" font-family="Helvetica,sans-Serif" font-size="10.00">MCAN_IsBufferTxd</text>
</a>
</g>
</g>
<!-- Node4&#45;&gt;Node32 -->
<g id="edge16" class="edge"><title>Node4&#45;&gt;Node32</title>
<path fill="none" stroke="midnightblue" d="M86.476,-386.853C98.9395,-351.415 135.02,-262.793 197,-219 203.934,-214.101 211.924,-210.44 220.161,-207.71"/>
<polygon fill="midnightblue" stroke="midnightblue" points="221.251,-211.039 229.896,-204.913 219.318,-204.311 221.251,-211.039"/>
</g>
<!-- Node33 -->
<g id="node18" class="node"><title>Node33</title>
<g id="a_node18"><a xlink:href="group__can__module.xhtml#ga6e83faedb469981e30a552ab125ad181" target="_top" xlink:title="Configure RX Buffer Filter ID must match exactly for a RX Buffer Filter. ">
<polygon fill="white" stroke="black" points="210.5,-152.5 210.5,-171.5 353.5,-171.5 353.5,-152.5 210.5,-152.5"/>
<text text-anchor="middle" x="282" y="-159.5" font-family="Helvetica,sans-Serif" font-size="10.00">MCAN_ConfigRxBufferFilter</text>
</a>
</g>
</g>
<!-- Node4&#45;&gt;Node33 -->
<g id="edge17" class="edge"><title>Node4&#45;&gt;Node33</title>
<path fill="none" stroke="midnightblue" d="M84.7685,-386.816C94.2948,-346.415 125.977,-235.648 197,-181 199.333,-179.205 201.804,-177.574 204.378,-176.091"/>
<polygon fill="midnightblue" stroke="midnightblue" points="206.054,-179.167 213.475,-171.606 202.958,-172.889 206.054,-179.167"/>
</g>
<!-- Node34 -->
<g id="node19" class="node"><title>Node34</title>
<g id="a_node19"><a xlink:href="group__can__module.xhtml#ga1c6df6cc059e7246465ae919dc6dd995" target="_top" xlink:title="Configure Classic Filter Classic Filters direct accepted messages to a FIFO &amp; include both a ID and a...">
<polygon fill="white" stroke="black" points="208,-114.5 208,-133.5 356,-133.5 356,-114.5 208,-114.5"/>
<text text-anchor="middle" x="282" y="-121.5" font-family="Helvetica,sans-Serif" font-size="10.00">MCAN_ConfigRxClassicFilter</text>
</a>
</g>
</g>
<!-- Node4&#45;&gt;Node34 -->
<g id="edge18" class="edge"><title>Node4&#45;&gt;Node34</title>
<path fill="none" stroke="midnightblue" d="M83.5059,-386.911C90.2973,-342.108 116.675,-208.875 197,-143 199.023,-141.341 201.162,-139.82 203.392,-138.425"/>
<polygon fill="midnightblue" stroke="midnightblue" points="205.194,-141.431 212.388,-133.653 201.914,-135.248 205.194,-141.431"/>
</g>
<!-- Node35 -->
<g id="node20" class="node"><title>Node35</title>
<g id="a_node20"><a xlink:href="group__can__module.xhtml#ga6d84b91cbb497467aedb98b53af1db45" target="_top" xlink:title="check if data received into buffer ">
<polygon fill="white" stroke="black" points="197,-76.5 197,-95.5 367,-95.5 367,-76.5 197,-76.5"/>
<text text-anchor="middle" x="282" y="-83.5" font-family="Helvetica,sans-Serif" font-size="10.00">MCAN_IsNewDataInRxDedBuffer</text>
</a>
</g>
</g>
<!-- Node4&#45;&gt;Node35 -->
<g id="edge19" class="edge"><title>Node4&#45;&gt;Node35</title>
<path fill="none" stroke="midnightblue" d="M82.5637,-386.881C86.8585,-337.898 107.305,-182.279 197,-105 198.795,-103.454 200.689,-102.026 202.664,-100.708"/>
<polygon fill="midnightblue" stroke="midnightblue" points="204.761,-103.546 211.777,-95.6071 201.342,-97.4374 204.761,-103.546"/>
</g>
<!-- Node36 -->
<g id="node21" class="node"><title>Node36</title>
<g id="a_node21"><a xlink:href="group__can__module.xhtml#gaa6911926348cdcfd85d9931096fafecc" target="_top" xlink:title="Get Rx buffer. ">
<polygon fill="white" stroke="red" points="218,-38.5 218,-57.5 346,-57.5 346,-38.5 218,-38.5"/>
<text text-anchor="middle" x="282" y="-45.5" font-family="Helvetica,sans-Serif" font-size="10.00">MCAN_GetRxDedBuffer</text>
</a>
</g>
</g>
<!-- Node4&#45;&gt;Node36 -->
<g id="edge20" class="edge"><title>Node4&#45;&gt;Node36</title>
<path fill="none" stroke="midnightblue" d="M81.816,-386.883C83.7819,-334.025 97.8052,-155.881 197,-67 200.476,-63.8851 204.354,-61.2473 208.483,-59.0167"/>
<polygon fill="midnightblue" stroke="midnightblue" points="210.209,-62.0773 217.868,-54.7565 207.315,-55.7033 210.209,-62.0773"/>
</g>
<!-- Node39 -->
<g id="node22" class="node"><title>Node39</title>
<g id="a_node22"><a xlink:href="group__can__module.xhtml#ga3c0b98bcf7b3c0520d70431cc72788cc" target="_top" xlink:title="Get from the receive FIFO and place in a application mailbox. ">
<polygon fill="white" stroke="black" points="220,-0.5 220,-19.5 344,-19.5 344,-0.5 220,-0.5"/>
<text text-anchor="middle" x="282" y="-7.5" font-family="Helvetica,sans-Serif" font-size="10.00">MCAN_GetRxFifoBuffer</text>
</a>
</g>
</g>
<!-- Node4&#45;&gt;Node39 -->
<g id="edge21" class="edge"><title>Node4&#45;&gt;Node39</title>
<path fill="none" stroke="midnightblue" d="M81.2094,-386.809C81.0038,-330.194 88.2657,-129.583 197,-29 201.047,-25.256 205.672,-22.1965 210.623,-19.7018"/>
<polygon fill="midnightblue" stroke="midnightblue" points="211.993,-22.9222 219.833,-15.7956 209.26,-16.4778 211.993,-22.9222"/>
</g>
</g>
</svg>
