<?xml version="1.0" encoding="UTF-8" standalone="no"?>
<!DOCTYPE svg PUBLIC "-//W3C//DTD SVG 1.1//EN"
 "http://www.w3.org/Graphics/SVG/1.1/DTD/svg11.dtd">
<!-- Generated by graphviz version 2.38.0 (20140413.2041)
 -->
<!-- Title: src/hal/x4m0x_s70/libraries/libchip/source/mcan.c Pages: 1 -->
<svg width="303pt" height="95pt"
 viewBox="0.00 0.00 302.50 95.00" xmlns="http://www.w3.org/2000/svg" xmlns:xlink="http://www.w3.org/1999/xlink">
<g id="graph0" class="graph" transform="scale(1 1) rotate(0) translate(4 91)">
<title>src/hal/x4m0x_s70/libraries/libchip/source/mcan.c</title>
<polygon fill="white" stroke="none" points="-4,4 -4,-91 298.5,-91 298.5,4 -4,4"/>
<!-- Node0 -->
<g id="node1" class="node"><title>Node0</title>
<polygon fill="#bfbfbf" stroke="black" points="62.5,-56.5 62.5,-86.5 208.5,-86.5 208.5,-56.5 62.5,-56.5"/>
<text text-anchor="start" x="70.5" y="-74.5" font-family="Helvetica,sans-Serif" font-size="10.00">src/hal/x4m0x_s70/libraries</text>
<text text-anchor="middle" x="135.5" y="-63.5" font-family="Helvetica,sans-Serif" font-size="10.00">/libchip/source/mcan.c</text>
</g>
<!-- Node1 -->
<g id="node2" class="node"><title>Node1</title>
<g id="a_node2"><a xlink:href="board_8h.xhtml" target="_top" xlink:title="Definition of SAM E70 Xplained board characteristics, PIOs and external components interface...">
<polygon fill="white" stroke="black" points="0,-0.5 0,-19.5 53,-19.5 53,-0.5 0,-0.5"/>
<text text-anchor="middle" x="26.5" y="-7.5" font-family="Helvetica,sans-Serif" font-size="10.00">board.h</text>
</a>
</g>
</g>
<!-- Node0&#45;&gt;Node1 -->
<g id="edge1" class="edge"><title>Node0&#45;&gt;Node1</title>
<path fill="none" stroke="midnightblue" d="M109.669,-56.3993C92.0334,-46.7728 68.7996,-34.0902 51.3724,-24.5772"/>
<polygon fill="midnightblue" stroke="midnightblue" points="52.8149,-21.3771 42.3605,-19.6578 49.4609,-27.5213 52.8149,-21.3771"/>
</g>
<!-- Node2 -->
<g id="node3" class="node"><title>Node2</title>
<g id="a_node3"><a xlink:href="chip_8h.xhtml" target="_top" xlink:title="chip.h">
<polygon fill="white" stroke="red" points="71,-0.5 71,-19.5 116,-19.5 116,-0.5 71,-0.5"/>
<text text-anchor="middle" x="93.5" y="-7.5" font-family="Helvetica,sans-Serif" font-size="10.00">chip.h</text>
</a>
</g>
</g>
<!-- Node0&#45;&gt;Node2 -->
<g id="edge2" class="edge"><title>Node0&#45;&gt;Node2</title>
<path fill="none" stroke="midnightblue" d="M125.547,-56.3993C119.506,-47.8424 111.762,-36.8708 105.399,-27.857"/>
<polygon fill="midnightblue" stroke="midnightblue" points="108.238,-25.8091 99.6114,-19.6578 102.519,-29.8459 108.238,-25.8091"/>
</g>
<!-- Node40 -->
<g id="node4" class="node"><title>Node40</title>
<g id="a_node4"><a xlink:href="mcan__config_8h.xhtml" target="_top" xlink:title="mcan_config.h">
<polygon fill="white" stroke="black" points="134.5,-0.5 134.5,-19.5 220.5,-19.5 220.5,-0.5 134.5,-0.5"/>
<text text-anchor="middle" x="177.5" y="-7.5" font-family="Helvetica,sans-Serif" font-size="10.00">mcan_config.h</text>
</a>
</g>
</g>
<!-- Node0&#45;&gt;Node40 -->
<g id="edge3" class="edge"><title>Node0&#45;&gt;Node40</title>
<path fill="none" stroke="midnightblue" d="M145.453,-56.3993C151.494,-47.8424 159.238,-36.8708 165.601,-27.857"/>
<polygon fill="midnightblue" stroke="midnightblue" points="168.481,-29.8459 171.389,-19.6578 162.762,-25.8091 168.481,-29.8459"/>
</g>
<!-- Node12 -->
<g id="node5" class="node"><title>Node12</title>
<polygon fill="white" stroke="#bfbfbf" points="238.5,-0.5 238.5,-19.5 294.5,-19.5 294.5,-0.5 238.5,-0.5"/>
<text text-anchor="middle" x="266.5" y="-7.5" font-family="Helvetica,sans-Serif" font-size="10.00">assert.h</text>
</g>
<!-- Node0&#45;&gt;Node12 -->
<g id="edge4" class="edge"><title>Node0&#45;&gt;Node12</title>
<path fill="none" stroke="midnightblue" d="M166.545,-56.3993C188.23,-46.55 216.959,-33.5014 238.051,-23.9217"/>
<polygon fill="midnightblue" stroke="midnightblue" points="239.781,-26.9799 247.438,-19.6578 236.886,-20.6065 239.781,-26.9799"/>
</g>
</g>
</svg>
