<?xml version="1.0" encoding="UTF-8" standalone="no"?>
<!DOCTYPE svg PUBLIC "-//W3C//DTD SVG 1.1//EN"
 "http://www.w3.org/Graphics/SVG/1.1/DTD/svg11.dtd">
<!-- Generated by graphviz version 2.38.0 (20140413.2041)
 -->
<!-- Title: src/Dispatch/memorypoolset.c Pages: 1 -->
<svg width="451pt" height="140pt"
 viewBox="0.00 0.00 450.50 140.00" xmlns="http://www.w3.org/2000/svg" xmlns:xlink="http://www.w3.org/1999/xlink">
<g id="graph0" class="graph" transform="scale(1 1) rotate(0) translate(4 136)">
<title>src/Dispatch/memorypoolset.c</title>
<polygon fill="white" stroke="none" points="-4,4 -4,-136 446.5,-136 446.5,4 -4,4"/>
<!-- Node0 -->
<g id="node1" class="node"><title>Node0</title>
<polygon fill="#bfbfbf" stroke="black" points="148,-112.5 148,-131.5 311,-131.5 311,-112.5 148,-112.5"/>
<text text-anchor="middle" x="229.5" y="-119.5" font-family="Helvetica,sans-Serif" font-size="10.00">src/Dispatch/memorypoolset.c</text>
</g>
<!-- Node1 -->
<g id="node2" class="node"><title>Node1</title>
<g id="a_node2"><a xlink:href="memorypoolset_8h.xhtml" target="_top" xlink:title="Set of memory pools. ">
<polygon fill="white" stroke="red" points="0,-56.5 0,-75.5 101,-75.5 101,-56.5 0,-56.5"/>
<text text-anchor="middle" x="50.5" y="-63.5" font-family="Helvetica,sans-Serif" font-size="10.00">memorypoolset.h</text>
</a>
</g>
</g>
<!-- Node0&#45;&gt;Node1 -->
<g id="edge1" class="edge"><title>Node0&#45;&gt;Node1</title>
<path fill="none" stroke="midnightblue" d="M201.137,-112.444C170.762,-103.28 122.39,-88.6876 88.684,-78.5192"/>
<polygon fill="midnightblue" stroke="midnightblue" points="89.3151,-75.0538 78.7304,-75.5164 87.2933,-81.7555 89.3151,-75.0538"/>
</g>
<!-- Node3 -->
<g id="node3" class="node"><title>Node3</title>
<polygon fill="white" stroke="#bfbfbf" points="62,-0.5 62,-19.5 117,-19.5 117,-0.5 62,-0.5"/>
<text text-anchor="middle" x="89.5" y="-7.5" font-family="Helvetica,sans-Serif" font-size="10.00">stddef.h</text>
</g>
<!-- Node0&#45;&gt;Node3 -->
<g id="edge4" class="edge"><title>Node0&#45;&gt;Node3</title>
<path fill="none" stroke="midnightblue" d="M210.359,-112.35C193.467,-104.24 168.627,-91.119 149.5,-76 131.341,-61.6466 113.767,-41.6638 102.383,-27.6554"/>
<polygon fill="midnightblue" stroke="midnightblue" points="105.108,-25.4587 96.1453,-19.809 99.6286,-29.8148 105.108,-25.4587"/>
</g>
<!-- Node5 -->
<g id="node4" class="node"><title>Node5</title>
<g id="a_node4"><a xlink:href="xep__dispatch__messages_8h.xhtml" target="_top" xlink:title="xep_dispatch_messages.h">
<polygon fill="white" stroke="red" points="158,-56.5 158,-75.5 301,-75.5 301,-56.5 158,-56.5"/>
<text text-anchor="middle" x="229.5" y="-63.5" font-family="Helvetica,sans-Serif" font-size="10.00">xep_dispatch_messages.h</text>
</a>
</g>
</g>
<!-- Node0&#45;&gt;Node5 -->
<g id="edge3" class="edge"><title>Node0&#45;&gt;Node5</title>
<path fill="none" stroke="midnightblue" d="M229.5,-112.083C229.5,-105.006 229.5,-94.8611 229.5,-85.9865"/>
<polygon fill="midnightblue" stroke="midnightblue" points="233,-85.751 229.5,-75.7511 226,-85.7511 233,-85.751"/>
</g>
<!-- Node7 -->
<g id="node5" class="node"><title>Node7</title>
<polygon fill="white" stroke="#bfbfbf" points="319,-56.5 319,-75.5 368,-75.5 368,-56.5 319,-56.5"/>
<text text-anchor="middle" x="343.5" y="-63.5" font-family="Helvetica,sans-Serif" font-size="10.00">stdio.h</text>
</g>
<!-- Node0&#45;&gt;Node7 -->
<g id="edge5" class="edge"><title>Node0&#45;&gt;Node7</title>
<path fill="none" stroke="midnightblue" d="M247.564,-112.444C266.075,-103.675 295.081,-89.9355 316.355,-79.8579"/>
<polygon fill="midnightblue" stroke="midnightblue" points="317.982,-82.9604 325.521,-75.5164 314.985,-76.6343 317.982,-82.9604"/>
</g>
<!-- Node8 -->
<g id="node6" class="node"><title>Node8</title>
<polygon fill="white" stroke="#bfbfbf" points="386.5,-56.5 386.5,-75.5 442.5,-75.5 442.5,-56.5 386.5,-56.5"/>
<text text-anchor="middle" x="414.5" y="-63.5" font-family="Helvetica,sans-Serif" font-size="10.00">assert.h</text>
</g>
<!-- Node0&#45;&gt;Node8 -->
<g id="edge6" class="edge"><title>Node0&#45;&gt;Node8</title>
<path fill="none" stroke="midnightblue" d="M258.814,-112.444C290.621,-103.159 341.52,-88.3022 376.405,-78.1197"/>
<polygon fill="midnightblue" stroke="midnightblue" points="377.615,-81.4127 386.233,-75.2508 375.653,-74.6931 377.615,-81.4127"/>
</g>
<!-- Node1&#45;&gt;Node3 -->
<g id="edge2" class="edge"><title>Node1&#45;&gt;Node3</title>
<path fill="none" stroke="midnightblue" d="M56.9401,-56.083C62.4489,-48.4554 70.5312,-37.2645 77.265,-27.9408"/>
<polygon fill="midnightblue" stroke="midnightblue" points="80.1622,-29.9071 83.1798,-19.7511 74.4874,-25.8087 80.1622,-29.9071"/>
</g>
</g>
</svg>
