<?xml version="1.0" encoding="UTF-8" standalone="no"?>
<!DOCTYPE svg PUBLIC "-//W3C//DTD SVG 1.1//EN"
 "http://www.w3.org/Graphics/SVG/1.1/DTD/svg11.dtd">
<!-- Generated by graphviz version 2.38.0 (20140413.2041)
 -->
<!-- Title: include/memorypool.h Pages: 1 -->
<svg width="488pt" height="84pt"
 viewBox="0.00 0.00 488.00 84.00" xmlns="http://www.w3.org/2000/svg" xmlns:xlink="http://www.w3.org/1999/xlink">
<g id="graph0" class="graph" transform="scale(1 1) rotate(0) translate(4 80)">
<title>include/memorypool.h</title>
<polygon fill="white" stroke="none" points="-4,4 -4,-80 484,-80 484,4 -4,4"/>
<!-- Node2 -->
<g id="node1" class="node"><title>Node2</title>
<polygon fill="#bfbfbf" stroke="black" points="168.5,-56.5 168.5,-75.5 291.5,-75.5 291.5,-56.5 168.5,-56.5"/>
<text text-anchor="middle" x="230" y="-63.5" font-family="Helvetica,sans-Serif" font-size="10.00">include/memorypool.h</text>
</g>
<!-- Node3 -->
<g id="node2" class="node"><title>Node3</title>
<g id="a_node2"><a xlink:href="memorypoolset_8h.xhtml" target="_top" xlink:title="Set of memory pools. ">
<polygon fill="white" stroke="red" points="0,-0.5 0,-19.5 138,-19.5 138,-0.5 0,-0.5"/>
<text text-anchor="middle" x="69" y="-7.5" font-family="Helvetica,sans-Serif" font-size="10.00">include/memorypoolset.h</text>
</a>
</g>
</g>
<!-- Node2&#45;&gt;Node3 -->
<g id="edge1" class="edge"><title>Node2&#45;&gt;Node3</title>
<path fill="none" stroke="midnightblue" d="M194.735,-53.172C164.419,-43.0039 121.43,-28.5852 94.3916,-19.5164"/>
<polygon fill="midnightblue" stroke="midnightblue" points="193.895,-56.5819 204.489,-56.4435 196.121,-49.9452 193.895,-56.5819"/>
</g>
<!-- Node25 -->
<g id="node3" class="node"><title>Node25</title>
<g id="a_node3"><a xlink:href="memorypool_8c.xhtml" target="_top" xlink:title="src/Dispatch/memorypool.c">
<polygon fill="white" stroke="black" points="156,-0.5 156,-19.5 304,-19.5 304,-0.5 156,-0.5"/>
<text text-anchor="middle" x="230" y="-7.5" font-family="Helvetica,sans-Serif" font-size="10.00">src/Dispatch/memorypool.c</text>
</a>
</g>
</g>
<!-- Node2&#45;&gt;Node25 -->
<g id="edge2" class="edge"><title>Node2&#45;&gt;Node25</title>
<path fill="none" stroke="midnightblue" d="M230,-45.8045C230,-36.9102 230,-26.7798 230,-19.7511"/>
<polygon fill="midnightblue" stroke="midnightblue" points="226.5,-46.083 230,-56.083 233.5,-46.083 226.5,-46.083"/>
</g>
<!-- Node19 -->
<g id="node4" class="node"><title>Node19</title>
<g id="a_node4"><a xlink:href="task__hostcom_8h.xhtml" target="_top" xlink:title="src/HostCom/task_hostcom.h">
<polygon fill="white" stroke="red" points="322,-0.5 322,-19.5 480,-19.5 480,-0.5 322,-0.5"/>
<text text-anchor="middle" x="401" y="-7.5" font-family="Helvetica,sans-Serif" font-size="10.00">src/HostCom/task_hostcom.h</text>
</a>
</g>
</g>
<!-- Node2&#45;&gt;Node19 -->
<g id="edge3" class="edge"><title>Node2&#45;&gt;Node19</title>
<path fill="none" stroke="midnightblue" d="M267.036,-53.3044C299.257,-43.1294 345.189,-28.6246 374.031,-19.5164"/>
<polygon fill="midnightblue" stroke="midnightblue" points="265.577,-50.0946 257.095,-56.4435 267.685,-56.7697 265.577,-50.0946"/>
</g>
</g>
</svg>
