<?xml version="1.0" encoding="UTF-8" standalone="no"?>
<!DOCTYPE svg PUBLIC "-//W3C//DTD SVG 1.1//EN"
 "http://www.w3.org/Graphics/SVG/1.1/DTD/svg11.dtd">
<!-- Generated by graphviz version 2.38.0 (20140413.2041)
 -->
<!-- Title: include/memorypoolset.h Pages: 1 -->
<svg width="209pt" height="140pt"
 viewBox="0.00 0.00 209.00 140.00" xmlns="http://www.w3.org/2000/svg" xmlns:xlink="http://www.w3.org/1999/xlink">
<g id="graph0" class="graph" transform="scale(1 1) rotate(0) translate(4 136)">
<title>include/memorypoolset.h</title>
<polygon fill="white" stroke="none" points="-4,4 -4,-136 205,-136 205,4 -4,4"/>
<!-- Node0 -->
<g id="node1" class="node"><title>Node0</title>
<polygon fill="#bfbfbf" stroke="black" points="0,-112.5 0,-131.5 138,-131.5 138,-112.5 0,-112.5"/>
<text text-anchor="middle" x="69" y="-119.5" font-family="Helvetica,sans-Serif" font-size="10.00">include/memorypoolset.h</text>
</g>
<!-- Node1 -->
<g id="node2" class="node"><title>Node1</title>
<polygon fill="white" stroke="#bfbfbf" points="58.5,-0.5 58.5,-19.5 111.5,-19.5 111.5,-0.5 58.5,-0.5"/>
<text text-anchor="middle" x="85" y="-7.5" font-family="Helvetica,sans-Serif" font-size="10.00">stdint.h</text>
</g>
<!-- Node0&#45;&gt;Node1 -->
<g id="edge1" class="edge"><title>Node0&#45;&gt;Node1</title>
<path fill="none" stroke="midnightblue" d="M58.085,-112.416C43.9727,-100.207 22.2929,-76.9759 32,-56 37.9202,-43.2072 49.4682,-32.7216 60.2775,-25.1003"/>
<polygon fill="midnightblue" stroke="midnightblue" points="62.2137,-28.0161 68.6664,-19.613 58.3818,-22.1581 62.2137,-28.0161"/>
</g>
<!-- Node2 -->
<g id="node3" class="node"><title>Node2</title>
<polygon fill="white" stroke="#bfbfbf" points="41.5,-56.5 41.5,-75.5 96.5,-75.5 96.5,-56.5 41.5,-56.5"/>
<text text-anchor="middle" x="69" y="-63.5" font-family="Helvetica,sans-Serif" font-size="10.00">stddef.h</text>
</g>
<!-- Node0&#45;&gt;Node2 -->
<g id="edge2" class="edge"><title>Node0&#45;&gt;Node2</title>
<path fill="none" stroke="midnightblue" d="M69,-112.083C69,-105.006 69,-94.8611 69,-85.9865"/>
<polygon fill="midnightblue" stroke="midnightblue" points="72.5001,-85.751 69,-75.7511 65.5001,-85.7511 72.5001,-85.751"/>
</g>
<!-- Node3 -->
<g id="node4" class="node"><title>Node3</title>
<g id="a_node4"><a xlink:href="memorypool_8h.xhtml" target="_top" xlink:title="Memory pool implementation. ">
<polygon fill="white" stroke="black" points="115,-56.5 115,-75.5 201,-75.5 201,-56.5 115,-56.5"/>
<text text-anchor="middle" x="158" y="-63.5" font-family="Helvetica,sans-Serif" font-size="10.00">memorypool.h</text>
</a>
</g>
</g>
<!-- Node0&#45;&gt;Node3 -->
<g id="edge3" class="edge"><title>Node0&#45;&gt;Node3</title>
<path fill="none" stroke="midnightblue" d="M83.2994,-112.324C97.1829,-103.9 118.492,-90.9709 134.804,-81.0741"/>
<polygon fill="midnightblue" stroke="midnightblue" points="137.002,-83.8341 143.736,-75.6545 133.371,-77.8495 137.002,-83.8341"/>
</g>
<!-- Node3&#45;&gt;Node1 -->
<g id="edge4" class="edge"><title>Node3&#45;&gt;Node1</title>
<path fill="none" stroke="midnightblue" d="M146.271,-56.324C135.163,-48.1066 118.258,-35.6017 105.017,-25.8069"/>
<polygon fill="midnightblue" stroke="midnightblue" points="107.063,-22.9671 96.9421,-19.8339 102.9,-28.5948 107.063,-22.9671"/>
</g>
</g>
</svg>
