<?xml version="1.0" encoding="UTF-8" standalone="no"?>
<!DOCTYPE svg PUBLIC "-//W3C//DTD SVG 1.1//EN"
 "http://www.w3.org/Graphics/SVG/1.1/DTD/svg11.dtd">
<!-- Generated by graphviz version 2.38.0 (20140413.2041)
 -->
<!-- Title: PioInterruptHandler Pages: 1 -->
<svg width="237pt" height="180pt"
 viewBox="0.00 0.00 237.00 180.00" xmlns="http://www.w3.org/2000/svg" xmlns:xlink="http://www.w3.org/1999/xlink">
<g id="graph0" class="graph" transform="scale(1 1) rotate(0) translate(4 176)">
<title>PioInterruptHandler</title>
<polygon fill="white" stroke="none" points="-4,4 -4,-176 233,-176 233,4 -4,4"/>
<!-- Node44 -->
<g id="node1" class="node"><title>Node44</title>
<polygon fill="#bfbfbf" stroke="black" points="0,-76.5 0,-95.5 110,-95.5 110,-76.5 0,-76.5"/>
<text text-anchor="middle" x="55" y="-83.5" font-family="Helvetica,sans-Serif" font-size="10.00">PioInterruptHandler</text>
</g>
<!-- Node45 -->
<g id="node2" class="node"><title>Node45</title>
<g id="a_node2"><a xlink:href="group___s_a_m_e70_j19__cmsis.xhtml#gafca962a3839c44570f32da889477118c" target="_top" xlink:title="Parallel IO Controller A interrupt handler &#160;PIOA interrupt handler for NVIC interrupt table...">
<polygon fill="white" stroke="black" points="146.5,-152.5 146.5,-171.5 228.5,-171.5 228.5,-152.5 146.5,-152.5"/>
<text text-anchor="middle" x="187.5" y="-159.5" font-family="Helvetica,sans-Serif" font-size="10.00">PIOA_Handler</text>
</a>
</g>
</g>
<!-- Node44&#45;&gt;Node45 -->
<g id="edge1" class="edge"><title>Node44&#45;&gt;Node45</title>
<path fill="none" stroke="midnightblue" d="M78.5974,-101.43C96.5161,-113.39 122.386,-130.05 146,-143 151.993,-146.286 158.651,-149.558 164.809,-152.438"/>
<polygon fill="midnightblue" stroke="midnightblue" points="80.2564,-98.3282 70.0058,-95.6493 76.3486,-104.136 80.2564,-98.3282"/>
</g>
<!-- Node46 -->
<g id="node3" class="node"><title>Node46</title>
<g id="a_node3"><a xlink:href="group___s_a_m_e70_j19__cmsis.xhtml#ga8eaa8ed51c40195131a9fd8244c31453" target="_top" xlink:title="Parallel IO Controller B interrupt handler &#160;PIOB interrupt handler for NVIC interrupt table...">
<polygon fill="white" stroke="black" points="146.5,-114.5 146.5,-133.5 228.5,-133.5 228.5,-114.5 146.5,-114.5"/>
<text text-anchor="middle" x="187.5" y="-121.5" font-family="Helvetica,sans-Serif" font-size="10.00">PIOB_Handler</text>
</a>
</g>
</g>
<!-- Node44&#45;&gt;Node46 -->
<g id="edge2" class="edge"><title>Node44&#45;&gt;Node46</title>
<path fill="none" stroke="midnightblue" d="M98.5518,-98.3906C116.423,-103.594 136.89,-109.554 153.58,-114.414"/>
<polygon fill="midnightblue" stroke="midnightblue" points="99.5104,-95.0244 88.9307,-95.589 97.5534,-101.745 99.5104,-95.0244"/>
</g>
<!-- Node47 -->
<g id="node4" class="node"><title>Node47</title>
<g id="a_node4"><a xlink:href="group___s_a_m_e70_q19__cmsis.xhtml#ga9db519e285e9eaec3818290b0eea0a80" target="_top" xlink:title="Parallel IO Controller C interrupt handler &#160;PIOC interrupt handler for NVIC interrupt table...">
<polygon fill="white" stroke="black" points="146.5,-76.5 146.5,-95.5 228.5,-95.5 228.5,-76.5 146.5,-76.5"/>
<text text-anchor="middle" x="187.5" y="-83.5" font-family="Helvetica,sans-Serif" font-size="10.00">PIOC_Handler</text>
</a>
</g>
</g>
<!-- Node44&#45;&gt;Node47 -->
<g id="edge3" class="edge"><title>Node44&#45;&gt;Node47</title>
<path fill="none" stroke="midnightblue" d="M120.458,-86C129.227,-86 138.015,-86 146.189,-86"/>
<polygon fill="midnightblue" stroke="midnightblue" points="120.21,-82.5001 110.21,-86 120.21,-89.5001 120.21,-82.5001"/>
</g>
<!-- Node48 -->
<g id="node5" class="node"><title>Node48</title>
<g id="a_node5"><a xlink:href="group___s_a_m_e70_j19__cmsis.xhtml#gaaf9203e2d5acd44e727a8bf4090979ca" target="_top" xlink:title="Parallel IO Controller D interrupt handler &#160;PIOD interrupt handler for NVIC interrupt table...">
<polygon fill="white" stroke="black" points="146,-38.5 146,-57.5 229,-57.5 229,-38.5 146,-38.5"/>
<text text-anchor="middle" x="187.5" y="-45.5" font-family="Helvetica,sans-Serif" font-size="10.00">PIOD_Handler</text>
</a>
</g>
</g>
<!-- Node44&#45;&gt;Node48 -->
<g id="edge4" class="edge"><title>Node44&#45;&gt;Node48</title>
<path fill="none" stroke="midnightblue" d="M98.5518,-73.6094C116.423,-68.4055 136.89,-62.4459 153.58,-57.5859"/>
<polygon fill="midnightblue" stroke="midnightblue" points="97.5534,-70.2547 88.9307,-76.411 99.5104,-76.9756 97.5534,-70.2547"/>
</g>
<!-- Node49 -->
<g id="node6" class="node"><title>Node49</title>
<g id="a_node6"><a xlink:href="group___s_a_m_e70_q19__cmsis.xhtml#ga7bc1611f925ebd138035eb261a90ae9e" target="_top" xlink:title="Parallel IO Controller E interrupt handler &#160;PIOE interrupt handler for NVIC interrupt table...">
<polygon fill="white" stroke="black" points="147,-0.5 147,-19.5 228,-19.5 228,-0.5 147,-0.5"/>
<text text-anchor="middle" x="187.5" y="-7.5" font-family="Helvetica,sans-Serif" font-size="10.00">PIOE_Handler</text>
</a>
</g>
</g>
<!-- Node44&#45;&gt;Node49 -->
<g id="edge5" class="edge"><title>Node44&#45;&gt;Node49</title>
<path fill="none" stroke="midnightblue" d="M78.5974,-70.5696C96.5161,-58.6101 122.386,-41.95 146,-29 151.993,-25.7137 158.651,-22.4416 164.809,-19.5623"/>
<polygon fill="midnightblue" stroke="midnightblue" points="76.3486,-67.8642 70.0058,-76.3507 80.2564,-73.6718 76.3486,-67.8642"/>
</g>
</g>
</svg>
