<?xml version="1.0" encoding="UTF-8" standalone="no"?>
<!DOCTYPE svg PUBLIC "-//W3C//DTD SVG 1.1//EN"
 "http://www.w3.org/Graphics/SVG/1.1/DTD/svg11.dtd">
<!-- Generated by graphviz version 2.38.0 (20140413.2041)
 -->
<!-- Title: QSPID_ReadWriteQSPI Pages: 1 -->
<svg width="302pt" height="66pt"
 viewBox="0.00 0.00 302.00 66.00" xmlns="http://www.w3.org/2000/svg" xmlns:xlink="http://www.w3.org/1999/xlink">
<g id="graph0" class="graph" transform="scale(1 1) rotate(0) translate(4 62)">
<title>QSPID_ReadWriteQSPI</title>
<polygon fill="white" stroke="none" points="-4,4 -4,-62 298,-62 298,4 -4,4"/>
<!-- Node264 -->
<g id="node1" class="node"><title>Node264</title>
<polygon fill="#bfbfbf" stroke="black" points="0,-19.5 0,-38.5 121,-38.5 121,-19.5 0,-19.5"/>
<text text-anchor="middle" x="60.5" y="-26.5" font-family="Helvetica,sans-Serif" font-size="10.00">QSPID_ReadWriteQSPI</text>
</g>
<!-- Node265 -->
<g id="node2" class="node"><title>Node265</title>
<g id="a_node2"><a xlink:href="s25fl1_8c.xhtml#a8be9db10e4e0f291c0cb537fcc7e3d68" target="_top" xlink:title="Start S25FL1D Memory access with/without data write/read. ">
<polygon fill="white" stroke="red" points="157,-38.5 157,-57.5 294,-57.5 294,-38.5 157,-38.5"/>
<text text-anchor="middle" x="225.5" y="-45.5" font-family="Helvetica,sans-Serif" font-size="10.00">S25FL1D_MemoryAccess</text>
</a>
</g>
</g>
<!-- Node264&#45;&gt;Node265 -->
<g id="edge1" class="edge"><title>Node264&#45;&gt;Node265</title>
<path fill="none" stroke="midnightblue" d="M131.409,-37.1489C139.809,-38.1281 148.378,-39.1269 156.747,-40.1024"/>
<polygon fill="midnightblue" stroke="midnightblue" points="131.608,-33.6484 121.27,-35.967 130.797,-40.6014 131.608,-33.6484"/>
</g>
<!-- Node274 -->
<g id="node3" class="node"><title>Node274</title>
<g id="a_node3"><a xlink:href="xtio__spi_8c.xhtml#a64a60847a947e7e747f90424e2e7fff7" target="_top" xlink:title="xtio_spi_write_read">
<polygon fill="white" stroke="red" points="172,-0.5 172,-19.5 279,-19.5 279,-0.5 172,-0.5"/>
<text text-anchor="middle" x="225.5" y="-7.5" font-family="Helvetica,sans-Serif" font-size="10.00">xtio_spi_write_read</text>
</a>
</g>
</g>
<!-- Node264&#45;&gt;Node274 -->
<g id="edge2" class="edge"><title>Node264&#45;&gt;Node274</title>
<path fill="none" stroke="midnightblue" d="M131.481,-20.8427C144.976,-19.2696 158.902,-17.6464 171.737,-16.1503"/>
<polygon fill="midnightblue" stroke="midnightblue" points="130.797,-17.3986 121.27,-22.033 131.608,-24.3516 130.797,-17.3986"/>
</g>
</g>
</svg>
