<?xml version="1.0" encoding="UTF-8" standalone="no"?>
<!DOCTYPE svg PUBLIC "-//W3C//DTD SVG 1.1//EN"
 "http://www.w3.org/Graphics/SVG/1.1/DTD/svg11.dtd">
<!-- Generated by graphviz version 2.38.0 (20140413.2041)
 -->
<!-- Title: QSPID_qspiTx_Cb Pages: 1 -->
<svg width="244pt" height="66pt"
 viewBox="0.00 0.00 244.00 66.00" xmlns="http://www.w3.org/2000/svg" xmlns:xlink="http://www.w3.org/1999/xlink">
<g id="graph0" class="graph" transform="scale(1 1) rotate(0) translate(4 62)">
<title>QSPID_qspiTx_Cb</title>
<polygon fill="white" stroke="none" points="-4,4 -4,-62 240,-62 240,4 -4,4"/>
<!-- Node233 -->
<g id="node1" class="node"><title>Node233</title>
<polygon fill="#bfbfbf" stroke="black" points="0,-19.5 0,-38.5 100,-38.5 100,-19.5 0,-19.5"/>
<text text-anchor="middle" x="50" y="-26.5" font-family="Helvetica,sans-Serif" font-size="10.00">QSPID_qspiTx_Cb</text>
</g>
<!-- Node234 -->
<g id="node2" class="node"><title>Node234</title>
<g id="a_node2"><a xlink:href="qspi_8h.xhtml#a0cee5ee97a2b6575ccf9d56d3c5fce64" target="_top" xlink:title="Ends ongoing transfer by releasing CS of QSPI peripheral. ">
<polygon fill="white" stroke="red" points="136,-38.5 136,-57.5 236,-57.5 236,-38.5 136,-38.5"/>
<text text-anchor="middle" x="186" y="-45.5" font-family="Helvetica,sans-Serif" font-size="10.00">QSPI_EndTransfer</text>
</a>
</g>
</g>
<!-- Node233&#45;&gt;Node234 -->
<g id="edge1" class="edge"><title>Node233&#45;&gt;Node234</title>
<path fill="none" stroke="midnightblue" d="M100.136,-35.967C108.511,-37.1545 117.288,-38.399 125.889,-39.6186"/>
<polygon fill="midnightblue" stroke="midnightblue" points="125.478,-43.0952 135.87,-41.0338 126.461,-36.1645 125.478,-43.0952"/>
</g>
<!-- Node236 -->
<g id="node3" class="node"><title>Node236</title>
<g id="a_node3"><a xlink:href="qspi_8h.xhtml#a84307d724b3e124e1d4cced163d3074d" target="_top" xlink:title="Get the current status register of the given QSPI peripheral. ">
<polygon fill="white" stroke="black" points="139.5,-0.5 139.5,-19.5 232.5,-19.5 232.5,-0.5 139.5,-0.5"/>
<text text-anchor="middle" x="186" y="-7.5" font-family="Helvetica,sans-Serif" font-size="10.00">QSPI_GetStatus</text>
</a>
</g>
</g>
<!-- Node233&#45;&gt;Node236 -->
<g id="edge2" class="edge"><title>Node233&#45;&gt;Node236</title>
<path fill="none" stroke="midnightblue" d="M100.136,-22.033C109.671,-20.681 119.727,-19.2551 129.451,-17.8763"/>
<polygon fill="midnightblue" stroke="midnightblue" points="130.02,-21.3308 139.429,-16.4615 129.037,-14.4001 130.02,-21.3308"/>
</g>
</g>
</svg>
