<?xml version="1.0" encoding="UTF-8" standalone="no"?>
<!DOCTYPE svg PUBLIC "-//W3C//DTD SVG 1.1//EN"
 "http://www.w3.org/Graphics/SVG/1.1/DTD/svg11.dtd">
<!-- Generated by graphviz version 2.38.0 (20140413.2041)
 -->
<!-- Title: QSPID_DisableSpiChannel Pages: 1 -->
<svg width="326pt" height="142pt"
 viewBox="0.00 0.00 326.00 142.00" xmlns="http://www.w3.org/2000/svg" xmlns:xlink="http://www.w3.org/1999/xlink">
<g id="graph0" class="graph" transform="scale(1 1) rotate(0) translate(4 138)">
<title>QSPID_DisableSpiChannel</title>
<polygon fill="white" stroke="none" points="-4,4 -4,-138 322,-138 322,4 -4,4"/>
<!-- Node51 -->
<g id="node1" class="node"><title>Node51</title>
<polygon fill="#bfbfbf" stroke="black" points="0,-57.5 0,-76.5 141,-76.5 141,-57.5 0,-57.5"/>
<text text-anchor="middle" x="70.5" y="-64.5" font-family="Helvetica,sans-Serif" font-size="10.00">QSPID_DisableSpiChannel</text>
</g>
<!-- Node52 -->
<g id="node2" class="node"><title>Node52</title>
<g id="a_node2"><a xlink:href="group__dmac__functions.xhtml#ga4139b3ae17620cc1d27afe86a7b6d7fe" target="_top" xlink:title="Set software flush request on the relevant channel. ">
<polygon fill="white" stroke="red" points="177,-114.5 177,-133.5 318,-133.5 318,-114.5 177,-114.5"/>
<text text-anchor="middle" x="247.5" y="-121.5" font-family="Helvetica,sans-Serif" font-size="10.00">XDMAC_SoftwareFlushReq</text>
</a>
</g>
</g>
<!-- Node51&#45;&gt;Node52 -->
<g id="edge1" class="edge"><title>Node51&#45;&gt;Node52</title>
<path fill="none" stroke="midnightblue" d="M96.4636,-76.621C117.722,-84.662 149.157,-96.1949 177,-105 184.298,-107.308 192.077,-109.598 199.691,-111.747"/>
<polygon fill="midnightblue" stroke="midnightblue" points="198.98,-115.181 209.551,-114.48 200.85,-108.436 198.98,-115.181"/>
</g>
<!-- Node54 -->
<g id="node3" class="node"><title>Node54</title>
<g id="a_node3"><a xlink:href="group__dmad__functions.xhtml#ga6be5cec75618250adb227d7588ae7078" target="_top" xlink:title="Stop DMA transfer. ">
<polygon fill="white" stroke="red" points="188.5,-76.5 188.5,-95.5 306.5,-95.5 306.5,-76.5 188.5,-76.5"/>
<text text-anchor="middle" x="247.5" y="-83.5" font-family="Helvetica,sans-Serif" font-size="10.00">XDMAD_StopTransfer</text>
</a>
</g>
</g>
<!-- Node51&#45;&gt;Node54 -->
<g id="edge2" class="edge"><title>Node51&#45;&gt;Node54</title>
<path fill="none" stroke="midnightblue" d="M141.167,-74.5639C153.38,-75.8898 166.076,-77.2683 178.25,-78.59"/>
<polygon fill="midnightblue" stroke="midnightblue" points="178.011,-82.0845 188.33,-79.6844 178.766,-75.1254 178.011,-82.0845"/>
</g>
<!-- Node58 -->
<g id="node4" class="node"><title>Node58</title>
<g id="a_node4"><a xlink:href="group__dmad__functions.xhtml#gaa0af49f87c84aaa20bee1f055d31ad2d" target="_top" xlink:title="Set the callback function for xDMA channel transfer. ">
<polygon fill="white" stroke="black" points="190.5,-38.5 190.5,-57.5 304.5,-57.5 304.5,-38.5 190.5,-38.5"/>
<text text-anchor="middle" x="247.5" y="-45.5" font-family="Helvetica,sans-Serif" font-size="10.00">XDMAD_SetCallback</text>
</a>
</g>
</g>
<!-- Node51&#45;&gt;Node58 -->
<g id="edge3" class="edge"><title>Node51&#45;&gt;Node58</title>
<path fill="none" stroke="midnightblue" d="M141.167,-59.4361C154.028,-58.0398 167.426,-56.5852 180.185,-55.2"/>
<polygon fill="midnightblue" stroke="midnightblue" points="180.693,-58.6654 190.257,-54.1064 179.938,-51.7063 180.693,-58.6654"/>
</g>
<!-- Node59 -->
<g id="node5" class="node"><title>Node59</title>
<g id="a_node5"><a xlink:href="group__dmad__functions.xhtml#ga2a3178c1d2615b7a4d7a0005662cdd89" target="_top" xlink:title="Free the specified xDMA channel. ">
<polygon fill="white" stroke="black" points="189,-0.5 189,-19.5 306,-19.5 306,-0.5 189,-0.5"/>
<text text-anchor="middle" x="247.5" y="-7.5" font-family="Helvetica,sans-Serif" font-size="10.00">XDMAD_FreeChannel</text>
</a>
</g>
</g>
<!-- Node51&#45;&gt;Node59 -->
<g id="edge4" class="edge"><title>Node51&#45;&gt;Node59</title>
<path fill="none" stroke="midnightblue" d="M96.4636,-57.379C117.722,-49.338 149.157,-37.8051 177,-29 184.298,-26.6922 192.077,-24.4022 199.691,-22.2532"/>
<polygon fill="midnightblue" stroke="midnightblue" points="200.85,-25.5642 209.551,-19.5199 198.98,-18.8186 200.85,-25.5642"/>
</g>
</g>
</svg>
