<?xml version="1.0" encoding="UTF-8" standalone="no"?>
<!DOCTYPE svg PUBLIC "-//W3C//DTD SVG 1.1//EN"
 "http://www.w3.org/Graphics/SVG/1.1/DTD/svg11.dtd">
<!-- Generated by graphviz version 2.38.0 (20140413.2041)
 -->
<!-- Title: QSPID_DisableSpiChannel Pages: 1 -->
<svg width="320pt" height="256pt"
 viewBox="0.00 0.00 320.00 256.00" xmlns="http://www.w3.org/2000/svg" xmlns:xlink="http://www.w3.org/1999/xlink">
<g id="graph0" class="graph" transform="scale(1 1) rotate(0) translate(4 252)">
<title>QSPID_DisableSpiChannel</title>
<polygon fill="white" stroke="none" points="-4,4 -4,-252 316,-252 316,4 -4,4"/>
<!-- Node60 -->
<g id="node1" class="node"><title>Node60</title>
<polygon fill="#bfbfbf" stroke="black" points="0,-114.5 0,-133.5 141,-133.5 141,-114.5 0,-114.5"/>
<text text-anchor="middle" x="70.5" y="-121.5" font-family="Helvetica,sans-Serif" font-size="10.00">QSPID_DisableSpiChannel</text>
</g>
<!-- Node61 -->
<g id="node2" class="node"><title>Node61</title>
<g id="a_node2"><a xlink:href="s25fl1_8c.xhtml#a3e17d8be015b8eddc6c4c81ec2310c79" target="_top" xlink:title="Erases the specified 64KB block of the serial firmware dataflash. ">
<polygon fill="white" stroke="black" points="177,-228.5 177,-247.5 312,-247.5 312,-228.5 177,-228.5"/>
<text text-anchor="middle" x="244.5" y="-235.5" font-family="Helvetica,sans-Serif" font-size="10.00">S25FL1D_Erase64KBlock</text>
</a>
</g>
</g>
<!-- Node60&#45;&gt;Node61 -->
<g id="edge1" class="edge"><title>Node60&#45;&gt;Node61</title>
<path fill="none" stroke="midnightblue" d="M86.094,-141.284C104.977,-162.577 139.88,-198.446 177,-219 183.933,-222.839 191.711,-225.961 199.438,-228.481"/>
<polygon fill="midnightblue" stroke="midnightblue" points="88.6557,-138.896 79.4535,-133.645 83.3727,-143.489 88.6557,-138.896"/>
</g>
<!-- Node62 -->
<g id="node3" class="node"><title>Node62</title>
<g id="a_node3"><a xlink:href="s25fl1_8c.xhtml#a6e299269e367ae9838e0698dbe750e10" target="_top" xlink:title="Writes data at the specified address on the serial firmware dataflash. ">
<polygon fill="white" stroke="black" points="200.5,-190.5 200.5,-209.5 288.5,-209.5 288.5,-190.5 200.5,-190.5"/>
<text text-anchor="middle" x="244.5" y="-197.5" font-family="Helvetica,sans-Serif" font-size="10.00">S25FL1D_Write</text>
</a>
</g>
</g>
<!-- Node60&#45;&gt;Node62 -->
<g id="edge2" class="edge"><title>Node60&#45;&gt;Node62</title>
<path fill="none" stroke="midnightblue" d="M95.5379,-138.943C116.459,-151.466 147.908,-169.149 177,-181 185.785,-184.578 195.48,-187.758 204.688,-190.443"/>
<polygon fill="midnightblue" stroke="midnightblue" points="97.0783,-135.784 86.7127,-133.592 93.4488,-141.77 97.0783,-135.784"/>
</g>
<!-- Node63 -->
<g id="node4" class="node"><title>Node63</title>
<g id="a_node4"><a xlink:href="s25fl1_8c.xhtml#a65d49aa9e49f2b0ebf01639a1918941e" target="_top" xlink:title="Reads data from the specified address on the serial flash. ">
<polygon fill="white" stroke="black" points="200.5,-152.5 200.5,-171.5 288.5,-171.5 288.5,-152.5 200.5,-152.5"/>
<text text-anchor="middle" x="244.5" y="-159.5" font-family="Helvetica,sans-Serif" font-size="10.00">S25FL1D_Read</text>
</a>
</g>
</g>
<!-- Node60&#45;&gt;Node63 -->
<g id="edge3" class="edge"><title>Node60&#45;&gt;Node63</title>
<path fill="none" stroke="midnightblue" d="M124.696,-135.753C149.017,-141.126 177.455,-147.409 200.409,-152.48"/>
<polygon fill="midnightblue" stroke="midnightblue" points="125.422,-132.329 114.903,-133.589 123.912,-139.164 125.422,-132.329"/>
</g>
<!-- Node64 -->
<g id="node5" class="node"><title>Node64</title>
<g id="a_node5"><a xlink:href="s25fl1_8c.xhtml#a8840163f9bd8c203feeeeba16ba8dbde" target="_top" xlink:title="Reads data from the specified address on the serial flash. ">
<polygon fill="white" stroke="black" points="189.5,-114.5 189.5,-133.5 299.5,-133.5 299.5,-114.5 189.5,-114.5"/>
<text text-anchor="middle" x="244.5" y="-121.5" font-family="Helvetica,sans-Serif" font-size="10.00">S25FL1D_ReadDual</text>
</a>
</g>
</g>
<!-- Node60&#45;&gt;Node64 -->
<g id="edge4" class="edge"><title>Node60&#45;&gt;Node64</title>
<path fill="none" stroke="midnightblue" d="M151.663,-124C164.46,-124 177.429,-124 189.432,-124"/>
<polygon fill="midnightblue" stroke="midnightblue" points="151.459,-120.5 141.459,-124 151.459,-127.5 151.459,-120.5"/>
</g>
<!-- Node65 -->
<g id="node6" class="node"><title>Node65</title>
<g id="a_node6"><a xlink:href="s25fl1_8c.xhtml#afe5e46d0d65395239616923012853fc8" target="_top" xlink:title="Reads data from the specified address on the serial flash. ">
<polygon fill="white" stroke="black" points="188,-76.5 188,-95.5 301,-95.5 301,-76.5 188,-76.5"/>
<text text-anchor="middle" x="244.5" y="-83.5" font-family="Helvetica,sans-Serif" font-size="10.00">S25FL1D_ReadQuad</text>
</a>
</g>
</g>
<!-- Node60&#45;&gt;Node65 -->
<g id="edge5" class="edge"><title>Node60&#45;&gt;Node65</title>
<path fill="none" stroke="midnightblue" d="M124.696,-112.247C149.017,-106.874 177.455,-100.591 200.409,-95.5201"/>
<polygon fill="midnightblue" stroke="midnightblue" points="123.912,-108.836 114.903,-114.411 125.422,-115.671 123.912,-108.836"/>
</g>
<!-- Node66 -->
<g id="node7" class="node"><title>Node66</title>
<g id="a_node7"><a xlink:href="s25fl1_8c.xhtml#a3863304299f6a83b97043f7fc6468d67" target="_top" xlink:title="Reads data from the specified address on the serial flash. ">
<polygon fill="white" stroke="black" points="185,-38.5 185,-57.5 304,-57.5 304,-38.5 185,-38.5"/>
<text text-anchor="middle" x="244.5" y="-45.5" font-family="Helvetica,sans-Serif" font-size="10.00">S25FL1D_ReadDualIO</text>
</a>
</g>
</g>
<!-- Node60&#45;&gt;Node66 -->
<g id="edge6" class="edge"><title>Node60&#45;&gt;Node66</title>
<path fill="none" stroke="midnightblue" d="M95.5379,-109.057C116.459,-96.5338 147.908,-78.8506 177,-67 185.785,-63.4215 195.48,-60.2423 204.688,-57.5566"/>
<polygon fill="midnightblue" stroke="midnightblue" points="93.4488,-106.23 86.7127,-114.408 97.0783,-112.216 93.4488,-106.23"/>
</g>
<!-- Node67 -->
<g id="node8" class="node"><title>Node67</title>
<g id="a_node8"><a xlink:href="s25fl1_8c.xhtml#a650c5d2bd603e1f26fb235ecf2bfd09f" target="_top" xlink:title="Reads data from the specified address on the serial flash. ">
<polygon fill="white" stroke="black" points="183,-0.5 183,-19.5 306,-19.5 306,-0.5 183,-0.5"/>
<text text-anchor="middle" x="244.5" y="-7.5" font-family="Helvetica,sans-Serif" font-size="10.00">S25FL1D_ReadQuadIO</text>
</a>
</g>
</g>
<!-- Node60&#45;&gt;Node67 -->
<g id="edge7" class="edge"><title>Node60&#45;&gt;Node67</title>
<path fill="none" stroke="midnightblue" d="M86.094,-106.716C104.977,-85.423 139.88,-49.5536 177,-29 183.933,-25.1612 191.711,-22.0389 199.438,-19.5188"/>
<polygon fill="midnightblue" stroke="midnightblue" points="83.3727,-104.511 79.4535,-114.355 88.6557,-109.104 83.3727,-104.511"/>
</g>
</g>
</svg>
