<?xml version="1.0" encoding="UTF-8" standalone="no"?>
<!DOCTYPE svg PUBLIC "-//W3C//DTD SVG 1.1//EN"
 "http://www.w3.org/Graphics/SVG/1.1/DTD/svg11.dtd">
<!-- Generated by graphviz version 2.38.0 (20140413.2041)
 -->
<!-- Title: src/hal/radar_hal.h Pages: 1 -->
<svg width="176pt" height="140pt"
 viewBox="0.00 0.00 175.50 140.00" xmlns="http://www.w3.org/2000/svg" xmlns:xlink="http://www.w3.org/1999/xlink">
<g id="graph0" class="graph" transform="scale(1 1) rotate(0) translate(4 136)">
<title>src/hal/radar_hal.h</title>
<polygon fill="white" stroke="none" points="-4,4 -4,-136 171.5,-136 171.5,4 -4,4"/>
<!-- Node0 -->
<g id="node1" class="node"><title>Node0</title>
<polygon fill="#bfbfbf" stroke="black" points="4,-112.5 4,-131.5 109,-131.5 109,-112.5 4,-112.5"/>
<text text-anchor="middle" x="56.5" y="-119.5" font-family="Helvetica,sans-Serif" font-size="10.00">src/hal/radar_hal.h</text>
</g>
<!-- Node1 -->
<g id="node2" class="node"><title>Node1</title>
<polygon fill="white" stroke="#bfbfbf" points="-3.55271e-15,-0.5 -3.55271e-15,-19.5 53,-19.5 53,-0.5 -3.55271e-15,-0.5"/>
<text text-anchor="middle" x="26.5" y="-7.5" font-family="Helvetica,sans-Serif" font-size="10.00">stdint.h</text>
</g>
<!-- Node0&#45;&gt;Node1 -->
<g id="edge1" class="edge"><title>Node0&#45;&gt;Node1</title>
<path fill="none" stroke="midnightblue" d="M45.2344,-112.427C35.5337,-104.275 22.2207,-91.0465 16.5,-76 10.737,-60.8422 14.4469,-42.4959 18.8923,-29.1649"/>
<polygon fill="midnightblue" stroke="midnightblue" points="22.2055,-30.2977 22.4482,-19.7056 15.6532,-27.8345 22.2055,-30.2977"/>
</g>
<!-- Node2 -->
<g id="node3" class="node"><title>Node2</title>
<g id="a_node3"><a xlink:href="xep__hal_8h.xhtml" target="_top" xlink:title="Brief description. ">
<polygon fill="white" stroke="red" points="25.5,-56.5 25.5,-75.5 87.5,-75.5 87.5,-56.5 25.5,-56.5"/>
<text text-anchor="middle" x="56.5" y="-63.5" font-family="Helvetica,sans-Serif" font-size="10.00">xep_hal.h</text>
</a>
</g>
</g>
<!-- Node0&#45;&gt;Node2 -->
<g id="edge2" class="edge"><title>Node0&#45;&gt;Node2</title>
<path fill="none" stroke="midnightblue" d="M56.5,-112.083C56.5,-105.006 56.5,-94.8611 56.5,-85.9865"/>
<polygon fill="midnightblue" stroke="midnightblue" points="60.0001,-85.751 56.5,-75.7511 53.0001,-85.7511 60.0001,-85.751"/>
</g>
<!-- Node4 -->
<g id="node4" class="node"><title>Node4</title>
<g id="a_node4"><a xlink:href="xtio__spi_8h.xhtml" target="_top" xlink:title="xtio_spi.h">
<polygon fill="white" stroke="black" points="105.5,-56.5 105.5,-75.5 167.5,-75.5 167.5,-56.5 105.5,-56.5"/>
<text text-anchor="middle" x="136.5" y="-63.5" font-family="Helvetica,sans-Serif" font-size="10.00">xtio_spi.h</text>
</a>
</g>
</g>
<!-- Node0&#45;&gt;Node4 -->
<g id="edge4" class="edge"><title>Node0&#45;&gt;Node4</title>
<path fill="none" stroke="midnightblue" d="M69.3534,-112.324C81.7164,-103.979 100.63,-91.2122 115.237,-81.3524"/>
<polygon fill="midnightblue" stroke="midnightblue" points="117.348,-84.1503 123.679,-75.6545 113.432,-78.3483 117.348,-84.1503"/>
</g>
<!-- Node2&#45;&gt;Node1 -->
<g id="edge3" class="edge"><title>Node2&#45;&gt;Node1</title>
<path fill="none" stroke="midnightblue" d="M51.5461,-56.083C47.3959,-48.6127 41.3469,-37.7244 36.2333,-28.5199"/>
<polygon fill="midnightblue" stroke="midnightblue" points="39.2777,-26.7929 31.3617,-19.7511 33.1586,-30.1924 39.2777,-26.7929"/>
</g>
</g>
</svg>
