<?xml version="1.0" encoding="UTF-8" standalone="no"?>
<!DOCTYPE svg PUBLIC "-//W3C//DTD SVG 1.1//EN"
 "http://www.w3.org/Graphics/SVG/1.1/DTD/svg11.dtd">
<!-- Generated by graphviz version 2.38.0 (20140413.2041)
 -->
<!-- Title: S25FL1D_MemoryAccess Pages: 1 -->
<svg width="315pt" height="294pt"
 viewBox="0.00 0.00 315.00 294.00" xmlns="http://www.w3.org/2000/svg" xmlns:xlink="http://www.w3.org/1999/xlink">
<g id="graph0" class="graph" transform="scale(1 1) rotate(0) translate(4 290)">
<title>S25FL1D_MemoryAccess</title>
<polygon fill="white" stroke="none" points="-4,4 -4,-290 311,-290 311,4 -4,4"/>
<!-- Node304 -->
<g id="node1" class="node"><title>Node304</title>
<polygon fill="#bfbfbf" stroke="black" points="0,-133.5 0,-152.5 137,-152.5 137,-133.5 0,-133.5"/>
<text text-anchor="middle" x="68.5" y="-140.5" font-family="Helvetica,sans-Serif" font-size="10.00">S25FL1D_MemoryAccess</text>
</g>
<!-- Node305 -->
<g id="node2" class="node"><title>Node305</title>
<g id="a_node2"><a xlink:href="qspi_8h.xhtml#a399520c124a1931a313645b5011888db" target="_top" xlink:title="Sends an instruction over QSPI and configures other related address like Addr , Frame and synchronise...">
<polygon fill="white" stroke="red" points="173,-266.5 173,-285.5 307,-285.5 307,-266.5 173,-266.5"/>
<text text-anchor="middle" x="240" y="-273.5" font-family="Helvetica,sans-Serif" font-size="10.00">QSPI_EnableMemAccess</text>
</a>
</g>
</g>
<!-- Node304&#45;&gt;Node305 -->
<g id="edge1" class="edge"><title>Node304&#45;&gt;Node305</title>
<path fill="none" stroke="midnightblue" d="M75.4635,-152.592C89.5973,-174.518 127.39,-228.597 173,-257 176.376,-259.103 179.994,-260.98 183.732,-262.655"/>
<polygon fill="midnightblue" stroke="midnightblue" points="182.617,-265.978 193.203,-266.415 185.2,-259.472 182.617,-265.978"/>
</g>
<!-- Node310 -->
<g id="node3" class="node"><title>Node310</title>
<g id="a_node3"><a xlink:href="qspi__dma_8h.xhtml#a16f401ef0f29ab14079e0355d7a48005" target="_top" xlink:title="Starts a QSPI read or write operation. ">
<polygon fill="white" stroke="red" points="179.5,-228.5 179.5,-247.5 300.5,-247.5 300.5,-228.5 179.5,-228.5"/>
<text text-anchor="middle" x="240" y="-235.5" font-family="Helvetica,sans-Serif" font-size="10.00">QSPID_ReadWriteQSPI</text>
</a>
</g>
</g>
<!-- Node304&#45;&gt;Node310 -->
<g id="edge2" class="edge"><title>Node304&#45;&gt;Node310</title>
<path fill="none" stroke="midnightblue" d="M79.85,-152.58C97.6063,-168.535 135.587,-200.611 173,-219 177.63,-221.276 182.58,-223.325 187.61,-225.159"/>
<polygon fill="midnightblue" stroke="midnightblue" points="186.723,-228.553 197.317,-228.424 188.955,-221.919 186.723,-228.553"/>
</g>
<!-- Node334 -->
<g id="node4" class="node"><title>Node334</title>
<g id="a_node4"><a xlink:href="qspi_8h.xhtml#a61a250e1df8fc3d9823aa8d0af159cff" target="_top" xlink:title="Writes or reads the QSPI memory (0x80000000) to transmit or receive data from Flash memory...">
<polygon fill="white" stroke="red" points="182.5,-190.5 182.5,-209.5 297.5,-209.5 297.5,-190.5 182.5,-190.5"/>
<text text-anchor="middle" x="240" y="-197.5" font-family="Helvetica,sans-Serif" font-size="10.00">QSPI_ReadWriteMem</text>
</a>
</g>
</g>
<!-- Node304&#45;&gt;Node334 -->
<g id="edge3" class="edge"><title>Node304&#45;&gt;Node334</title>
<path fill="none" stroke="midnightblue" d="M94.0032,-152.559C114.867,-160.563 145.71,-172.075 173,-181 179.856,-183.242 187.158,-185.486 194.312,-187.605"/>
<polygon fill="midnightblue" stroke="midnightblue" points="193.34,-190.967 203.92,-190.406 195.299,-184.247 193.34,-190.967"/>
</g>
<!-- Node337 -->
<g id="node5" class="node"><title>Node337</title>
<g id="a_node5"><a xlink:href="s25fl1_8c.xhtml#a74c6fab422307adf867416d98add8949" target="_top" xlink:title="Memory_Align">
<polygon fill="white" stroke="black" points="198,-152.5 198,-171.5 282,-171.5 282,-152.5 198,-152.5"/>
<text text-anchor="middle" x="240" y="-159.5" font-family="Helvetica,sans-Serif" font-size="10.00">Memory_Align</text>
</a>
</g>
</g>
<!-- Node304&#45;&gt;Node337 -->
<g id="edge4" class="edge"><title>Node304&#45;&gt;Node337</title>
<path fill="none" stroke="midnightblue" d="M137.465,-150.619C154.238,-152.499 171.924,-154.481 187.753,-156.255"/>
<polygon fill="midnightblue" stroke="midnightblue" points="187.53,-159.752 197.857,-157.388 188.309,-152.796 187.53,-159.752"/>
</g>
<!-- Node338 -->
<g id="node6" class="node"><title>Node338</title>
<g id="a_node6"><a xlink:href="qspi__dma_8h.xhtml#ad1458b726cb714996c845b482425a10d" target="_top" xlink:title="Starts a SPI master transfer. ">
<polygon fill="white" stroke="red" points="183.5,-114.5 183.5,-133.5 296.5,-133.5 296.5,-114.5 183.5,-114.5"/>
<text text-anchor="middle" x="240" y="-121.5" font-family="Helvetica,sans-Serif" font-size="10.00">QSPID_ReadWriteSPI</text>
</a>
</g>
</g>
<!-- Node304&#45;&gt;Node338 -->
<g id="edge5" class="edge"><title>Node304&#45;&gt;Node338</title>
<path fill="none" stroke="midnightblue" d="M137.465,-135.381C149.219,-134.064 161.422,-132.696 173.119,-131.385"/>
<polygon fill="midnightblue" stroke="midnightblue" points="173.697,-134.842 183.244,-130.25 172.917,-127.886 173.697,-134.842"/>
</g>
<!-- Node339 -->
<g id="node7" class="node"><title>Node339</title>
<g id="a_node7"><a xlink:href="qspi_8h.xhtml#ade81d33cb14e6aa8701d4824de0656a2" target="_top" xlink:title="Sends multiple data through a SPI peripheral. ">
<polygon fill="white" stroke="red" points="187.5,-76.5 187.5,-95.5 292.5,-95.5 292.5,-76.5 187.5,-76.5"/>
<text text-anchor="middle" x="240" y="-83.5" font-family="Helvetica,sans-Serif" font-size="10.00">QSPI_MultiWriteSPI</text>
</a>
</g>
</g>
<!-- Node304&#45;&gt;Node339 -->
<g id="edge6" class="edge"><title>Node304&#45;&gt;Node339</title>
<path fill="none" stroke="midnightblue" d="M94.0032,-133.441C114.867,-125.437 145.71,-113.925 173,-105 179.856,-102.758 187.158,-100.514 194.312,-98.3948"/>
<polygon fill="midnightblue" stroke="midnightblue" points="195.299,-101.753 203.92,-95.5941 193.34,-95.0326 195.299,-101.753"/>
</g>
<!-- Node341 -->
<g id="node8" class="node"><title>Node341</title>
<g id="a_node8"><a xlink:href="qspi_8h.xhtml#a0cee5ee97a2b6575ccf9d56d3c5fce64" target="_top" xlink:title="Ends ongoing transfer by releasing CS of QSPI peripheral. ">
<polygon fill="white" stroke="red" points="190,-38.5 190,-57.5 290,-57.5 290,-38.5 190,-38.5"/>
<text text-anchor="middle" x="240" y="-45.5" font-family="Helvetica,sans-Serif" font-size="10.00">QSPI_EndTransfer</text>
</a>
</g>
</g>
<!-- Node304&#45;&gt;Node341 -->
<g id="edge7" class="edge"><title>Node304&#45;&gt;Node341</title>
<path fill="none" stroke="midnightblue" d="M79.85,-133.42C97.6063,-117.465 135.587,-85.3889 173,-67 177.63,-64.7244 182.58,-62.6752 187.61,-60.841"/>
<polygon fill="midnightblue" stroke="midnightblue" points="188.955,-64.0812 197.317,-57.5756 186.723,-57.4465 188.955,-64.0812"/>
</g>
<!-- Node342 -->
<g id="node9" class="node"><title>Node342</title>
<g id="a_node9"><a xlink:href="qspi_8h.xhtml#aa8e703416d8faf7e6ca68d18c1da6115" target="_top" xlink:title="Reads multiple data received by a SPI peripheral. ">
<polygon fill="white" stroke="red" points="187.5,-0.5 187.5,-19.5 292.5,-19.5 292.5,-0.5 187.5,-0.5"/>
<text text-anchor="middle" x="240" y="-7.5" font-family="Helvetica,sans-Serif" font-size="10.00">QSPI_MultiReadSPI</text>
</a>
</g>
</g>
<!-- Node304&#45;&gt;Node342 -->
<g id="edge8" class="edge"><title>Node304&#45;&gt;Node342</title>
<path fill="none" stroke="midnightblue" d="M75.4635,-133.408C89.5973,-111.482 127.39,-57.4029 173,-29 176.376,-26.8973 179.994,-25.0201 183.732,-23.3451"/>
<polygon fill="midnightblue" stroke="midnightblue" points="185.2,-26.5279 193.203,-19.5852 182.617,-20.0218 185.2,-26.5279"/>
</g>
</g>
</svg>
