<?xml version="1.0" encoding="UTF-8" standalone="no"?>
<!DOCTYPE svg PUBLIC "-//W3C//DTD SVG 1.1//EN"
 "http://www.w3.org/Graphics/SVG/1.1/DTD/svg11.dtd">
<!-- Generated by graphviz version 2.38.0 (20140413.2041)
 -->
<!-- Title: S25FL1D_ReadDual Pages: 1 -->
<svg width="312pt" height="256pt"
 viewBox="0.00 0.00 312.00 256.00" xmlns="http://www.w3.org/2000/svg" xmlns:xlink="http://www.w3.org/1999/xlink">
<g id="graph0" class="graph" transform="scale(1 1) rotate(0) translate(4 252)">
<title>S25FL1D_ReadDual</title>
<polygon fill="white" stroke="none" points="-4,4 -4,-252 308,-252 308,4 -4,4"/>
<!-- Node467 -->
<g id="node1" class="node"><title>Node467</title>
<polygon fill="#bfbfbf" stroke="black" points="0,-114.5 0,-133.5 110,-133.5 110,-114.5 0,-114.5"/>
<text text-anchor="middle" x="55" y="-121.5" font-family="Helvetica,sans-Serif" font-size="10.00">S25FL1D_ReadDual</text>
</g>
<!-- Node468 -->
<g id="node2" class="node"><title>Node468</title>
<g id="a_node2"><a xlink:href="qspi__dma_8h.xhtml#a0d664a2d9fdc7a5b276553ef98ebb085" target="_top" xlink:title="Enables a QSPI Rx channel. ">
<polygon fill="white" stroke="red" points="147.5,-228.5 147.5,-247.5 302.5,-247.5 302.5,-228.5 147.5,-228.5"/>
<text text-anchor="middle" x="225" y="-235.5" font-family="Helvetica,sans-Serif" font-size="10.00">QSPID_EnableQspiRxChannel</text>
</a>
</g>
</g>
<!-- Node467&#45;&gt;Node468 -->
<g id="edge1" class="edge"><title>Node467&#45;&gt;Node468</title>
<path fill="none" stroke="midnightblue" d="M62.1666,-133.527C75.1886,-152.839 107.483,-196.655 146,-219 149.73,-221.164 153.697,-223.082 157.79,-224.782"/>
<polygon fill="midnightblue" stroke="midnightblue" points="156.923,-228.193 167.517,-228.368 159.345,-221.625 156.923,-228.193"/>
</g>
<!-- Node495 -->
<g id="node3" class="node"><title>Node495</title>
<g id="a_node3"><a xlink:href="qspi__dma_8h.xhtml#aa4c44dd6ea57f7d345dc1cea9e764b33" target="_top" xlink:title="Enables a QSPI SPI Rx channel. ">
<polygon fill="white" stroke="red" points="156,-190.5 156,-209.5 294,-209.5 294,-190.5 156,-190.5"/>
<text text-anchor="middle" x="225" y="-197.5" font-family="Helvetica,sans-Serif" font-size="10.00">QSPID_EnableSpiChannel</text>
</a>
</g>
</g>
<!-- Node467&#45;&gt;Node495 -->
<g id="edge2" class="edge"><title>Node467&#45;&gt;Node495</title>
<path fill="none" stroke="midnightblue" d="M68.3819,-133.707C85.0919,-146.355 116.211,-168.344 146,-181 151.809,-183.468 158.003,-185.657 164.264,-187.589"/>
<polygon fill="midnightblue" stroke="midnightblue" points="163.536,-191.021 174.113,-190.417 165.467,-184.293 163.536,-191.021"/>
</g>
<!-- Node497 -->
<g id="node4" class="node"><title>Node497</title>
<g id="a_node4"><a xlink:href="s25fl1_8c.xhtml#a8be9db10e4e0f291c0cb537fcc7e3d68" target="_top" xlink:title="Start S25FL1D Memory access with/without data write/read. ">
<polygon fill="white" stroke="red" points="156.5,-152.5 156.5,-171.5 293.5,-171.5 293.5,-152.5 156.5,-152.5"/>
<text text-anchor="middle" x="225" y="-159.5" font-family="Helvetica,sans-Serif" font-size="10.00">S25FL1D_MemoryAccess</text>
</a>
</g>
</g>
<!-- Node467&#45;&gt;Node497 -->
<g id="edge3" class="edge"><title>Node467&#45;&gt;Node497</title>
<path fill="none" stroke="midnightblue" d="M98.3935,-133.589C120.763,-138.649 148.398,-144.9 172.047,-150.249"/>
<polygon fill="midnightblue" stroke="midnightblue" points="171.386,-153.687 181.911,-152.48 172.93,-146.86 171.386,-153.687"/>
</g>
<!-- Node523 -->
<g id="node5" class="node"><title>Node523</title>
<g id="a_node5"><a xlink:href="qspi__dma_8h.xhtml#a4dd4aa5fce406ddb2b215df6397142b8" target="_top" xlink:title="Check if the QSPI driver is busy. ">
<polygon fill="white" stroke="red" points="183.5,-114.5 183.5,-133.5 266.5,-133.5 266.5,-114.5 183.5,-114.5"/>
<text text-anchor="middle" x="225" y="-121.5" font-family="Helvetica,sans-Serif" font-size="10.00">QSPID_IsBusy</text>
</a>
</g>
</g>
<!-- Node467&#45;&gt;Node523 -->
<g id="edge4" class="edge"><title>Node467&#45;&gt;Node523</title>
<path fill="none" stroke="midnightblue" d="M110.081,-124C130.338,-124 153.266,-124 173.215,-124"/>
<polygon fill="midnightblue" stroke="midnightblue" points="173.345,-127.5 183.345,-124 173.345,-120.5 173.345,-127.5"/>
</g>
<!-- Node525 -->
<g id="node6" class="node"><title>Node525</title>
<g id="a_node6"><a xlink:href="timetick_8h.xhtml#a2b6066c4eacf5089da661bd9e13bc9ed" target="_top" xlink:title="Sync Wait for several ms. ">
<polygon fill="white" stroke="red" points="207,-76.5 207,-95.5 243,-95.5 243,-76.5 207,-76.5"/>
<text text-anchor="middle" x="225" y="-83.5" font-family="Helvetica,sans-Serif" font-size="10.00">Wait</text>
</a>
</g>
</g>
<!-- Node467&#45;&gt;Node525 -->
<g id="edge5" class="edge"><title>Node467&#45;&gt;Node525</title>
<path fill="none" stroke="midnightblue" d="M98.3935,-114.411C129.286,-107.423 170.224,-98.1637 196.832,-92.145"/>
<polygon fill="midnightblue" stroke="midnightblue" points="197.633,-95.5524 206.615,-89.9324 196.089,-88.7249 197.633,-95.5524"/>
</g>
<!-- Node527 -->
<g id="node7" class="node"><title>Node527</title>
<g id="a_node7"><a xlink:href="qspi__dma_8h.xhtml#a3f74a9c30f8d87121341efbe86f7b992" target="_top" xlink:title="Disables a QSPI Rx channel. ">
<polygon fill="white" stroke="red" points="146,-38.5 146,-57.5 304,-57.5 304,-38.5 146,-38.5"/>
<text text-anchor="middle" x="225" y="-45.5" font-family="Helvetica,sans-Serif" font-size="10.00">QSPID_DisableQspiRxChannel</text>
</a>
</g>
</g>
<!-- Node467&#45;&gt;Node527 -->
<g id="edge6" class="edge"><title>Node467&#45;&gt;Node527</title>
<path fill="none" stroke="midnightblue" d="M68.3819,-114.293C85.0919,-101.645 116.211,-79.6563 146,-67 151.809,-64.5321 158.003,-62.3429 164.264,-60.4108"/>
<polygon fill="midnightblue" stroke="midnightblue" points="165.467,-63.7069 174.113,-57.5835 163.536,-56.9786 165.467,-63.7069"/>
</g>
<!-- Node532 -->
<g id="node8" class="node"><title>Node532</title>
<g id="a_node8"><a xlink:href="qspi__dma_8h.xhtml#a3bb12a4d22e8c71f840710b19c769067" target="_top" xlink:title="Disables a QSPI SPI Rx and Tx channels. ">
<polygon fill="white" stroke="red" points="154.5,-0.5 154.5,-19.5 295.5,-19.5 295.5,-0.5 154.5,-0.5"/>
<text text-anchor="middle" x="225" y="-7.5" font-family="Helvetica,sans-Serif" font-size="10.00">QSPID_DisableSpiChannel</text>
</a>
</g>
</g>
<!-- Node467&#45;&gt;Node532 -->
<g id="edge7" class="edge"><title>Node467&#45;&gt;Node532</title>
<path fill="none" stroke="midnightblue" d="M62.1666,-114.473C75.1886,-95.1614 107.483,-51.3449 146,-29 149.73,-26.8363 153.697,-24.918 157.79,-23.2175"/>
<polygon fill="midnightblue" stroke="midnightblue" points="159.345,-26.3748 167.517,-19.6318 156.923,-19.8069 159.345,-26.3748"/>
</g>
</g>
</svg>
