<?xml version="1.0" encoding="UTF-8" standalone="no"?>
<!DOCTYPE svg PUBLIC "-//W3C//DTD SVG 1.1//EN"
 "http://www.w3.org/Graphics/SVG/1.1/DTD/svg11.dtd">
<!-- Generated by graphviz version 2.38.0 (20140413.2041)
 -->
<!-- Title: S25FL1D_IsBusy Pages: 1 -->
<svg width="274pt" height="104pt"
 viewBox="0.00 0.00 274.00 104.00" xmlns="http://www.w3.org/2000/svg" xmlns:xlink="http://www.w3.org/1999/xlink">
<g id="graph0" class="graph" transform="scale(1 1) rotate(0) translate(4 100)">
<title>S25FL1D_IsBusy</title>
<polygon fill="white" stroke="none" points="-4,4 -4,-100 270,-100 270,4 -4,4"/>
<!-- Node300 -->
<g id="node1" class="node"><title>Node300</title>
<polygon fill="#bfbfbf" stroke="black" points="0,-38.5 0,-57.5 95,-57.5 95,-38.5 0,-38.5"/>
<text text-anchor="middle" x="47.5" y="-45.5" font-family="Helvetica,sans-Serif" font-size="10.00">S25FL1D_IsBusy</text>
</g>
<!-- Node301 -->
<g id="node2" class="node"><title>Node301</title>
<g id="a_node2"><a xlink:href="s25fl1_8c.xhtml#aee7639f2487a57e818d095f9aa7a2775" target="_top" xlink:title="Erases the specified block of the serial firmware dataflash. ">
<polygon fill="white" stroke="black" points="137,-76.5 137,-95.5 260,-95.5 260,-76.5 137,-76.5"/>
<text text-anchor="middle" x="198.5" y="-83.5" font-family="Helvetica,sans-Serif" font-size="10.00">S25FL1D_EraseSector</text>
</a>
</g>
</g>
<!-- Node300&#45;&gt;Node301 -->
<g id="edge1" class="edge"><title>Node300&#45;&gt;Node301</title>
<path fill="none" stroke="midnightblue" d="M95.9922,-60.1121C116.744,-65.4044 140.728,-71.5213 160.171,-76.4799"/>
<polygon fill="midnightblue" stroke="midnightblue" points="96.6538,-56.6689 86.099,-57.589 94.9239,-63.4518 96.6538,-56.6689"/>
</g>
<!-- Node302 -->
<g id="node3" class="node"><title>Node302</title>
<g id="a_node3"><a xlink:href="s25fl1_8c.xhtml#a3e17d8be015b8eddc6c4c81ec2310c79" target="_top" xlink:title="Erases the specified 64KB block of the serial firmware dataflash. ">
<polygon fill="white" stroke="black" points="131,-38.5 131,-57.5 266,-57.5 266,-38.5 131,-38.5"/>
<text text-anchor="middle" x="198.5" y="-45.5" font-family="Helvetica,sans-Serif" font-size="10.00">S25FL1D_Erase64KBlock</text>
</a>
</g>
</g>
<!-- Node300&#45;&gt;Node302 -->
<g id="edge2" class="edge"><title>Node300&#45;&gt;Node302</title>
<path fill="none" stroke="midnightblue" d="M105.498,-48C113.753,-48 122.313,-48 130.739,-48"/>
<polygon fill="midnightblue" stroke="midnightblue" points="105.236,-44.5001 95.2357,-48 105.236,-51.5001 105.236,-44.5001"/>
</g>
<!-- Node303 -->
<g id="node4" class="node"><title>Node303</title>
<g id="a_node4"><a xlink:href="s25fl1_8c.xhtml#a6e299269e367ae9838e0698dbe750e10" target="_top" xlink:title="Writes data at the specified address on the serial firmware dataflash. ">
<polygon fill="white" stroke="black" points="154.5,-0.5 154.5,-19.5 242.5,-19.5 242.5,-0.5 154.5,-0.5"/>
<text text-anchor="middle" x="198.5" y="-7.5" font-family="Helvetica,sans-Serif" font-size="10.00">S25FL1D_Write</text>
</a>
</g>
</g>
<!-- Node300&#45;&gt;Node303 -->
<g id="edge3" class="edge"><title>Node300&#45;&gt;Node303</title>
<path fill="none" stroke="midnightblue" d="M95.9922,-35.8879C116.744,-30.5956 140.728,-24.4787 160.171,-19.5201"/>
<polygon fill="midnightblue" stroke="midnightblue" points="94.9239,-32.5482 86.099,-38.411 96.6538,-39.3311 94.9239,-32.5482"/>
</g>
</g>
</svg>
