<?xml version="1.0" encoding="UTF-8" standalone="no"?>
<!DOCTYPE svg PUBLIC "-//W3C//DTD SVG 1.1//EN"
 "http://www.w3.org/Graphics/SVG/1.1/DTD/svg11.dtd">
<!-- Generated by graphviz version 2.38.0 (20140413.2041)
 -->
<!-- Title: S25FL1D_EraseChip Pages: 1 -->
<svg width="614pt" height="119pt"
 viewBox="0.00 0.00 614.00 119.15" xmlns="http://www.w3.org/2000/svg" xmlns:xlink="http://www.w3.org/1999/xlink">
<g id="graph0" class="graph" transform="scale(1 1) rotate(0) translate(4 115.148)">
<title>S25FL1D_EraseChip</title>
<polygon fill="white" stroke="none" points="-4,4 -4,-115.148 610,-115.148 610,4 -4,4"/>
<!-- Node185 -->
<g id="node1" class="node"><title>Node185</title>
<polygon fill="#bfbfbf" stroke="black" points="0,-57.5 0,-76.5 113,-76.5 113,-57.5 0,-57.5"/>
<text text-anchor="middle" x="56.5" y="-64.5" font-family="Helvetica,sans-Serif" font-size="10.00">S25FL1D_EraseChip</text>
</g>
<!-- Node186 -->
<g id="node2" class="node"><title>Node186</title>
<g id="a_node2"><a xlink:href="s25fl1_8c.xhtml#a300f42045ccdeb44839f77a260052bcb" target="_top" xlink:title="Reads and returns the status register of the serial flash. ">
<polygon fill="white" stroke="black" points="305,-76.5 305,-95.5 430,-95.5 430,-76.5 305,-76.5"/>
<text text-anchor="middle" x="367.5" y="-83.5" font-family="Helvetica,sans-Serif" font-size="10.00">S25FL1D_ReadStatus1</text>
</a>
</g>
</g>
<!-- Node185&#45;&gt;Node186 -->
<g id="edge1" class="edge"><title>Node185&#45;&gt;Node186</title>
<path fill="none" stroke="midnightblue" d="M113.1,-70.4188C163.972,-73.5468 239.523,-78.1923 294.894,-81.597"/>
<polygon fill="midnightblue" stroke="midnightblue" points="294.791,-85.0973 304.987,-82.2177 295.221,-78.1105 294.791,-85.0973"/>
</g>
<!-- Node187 -->
<g id="node3" class="node"><title>Node187</title>
<g id="a_node3"><a xlink:href="s25fl1_8c.xhtml#a1a915b35968bc2e31ab4fe5e38a76708" target="_top" xlink:title="Start S25FL1D Send command with/without data write/read. ">
<polygon fill="white" stroke="red" points="466,-76.5 466,-95.5 606,-95.5 606,-76.5 466,-76.5"/>
<text text-anchor="middle" x="536" y="-83.5" font-family="Helvetica,sans-Serif" font-size="10.00">S25FL1D_SendCommand</text>
</a>
</g>
</g>
<!-- Node185&#45;&gt;Node187 -->
<g id="edge6" class="edge"><title>Node185&#45;&gt;Node187</title>
<path fill="none" stroke="midnightblue" d="M90.2789,-76.5119C107.605,-81.2153 129.309,-86.5983 149,-90 272.241,-111.29 305.434,-116.179 430,-105 447.113,-103.464 465.609,-100.547 482.239,-97.4514"/>
<polygon fill="midnightblue" stroke="midnightblue" points="483.165,-100.838 492.323,-95.5115 481.842,-93.9636 483.165,-100.838"/>
</g>
<!-- Node203 -->
<g id="node4" class="node"><title>Node203</title>
<g id="a_node4"><a xlink:href="s25fl1_8c.xhtml#ac688485752eaf90e9d91d99d362d52b9" target="_top" xlink:title="S25FL1D_EnableWrite">
<polygon fill="white" stroke="black" points="149,-38.5 149,-57.5 269,-57.5 269,-38.5 149,-38.5"/>
<text text-anchor="middle" x="209" y="-45.5" font-family="Helvetica,sans-Serif" font-size="10.00">S25FL1D_EnableWrite</text>
</a>
</g>
</g>
<!-- Node185&#45;&gt;Node203 -->
<g id="edge3" class="edge"><title>Node185&#45;&gt;Node203</title>
<path fill="none" stroke="midnightblue" d="M113.113,-59.9791C121.479,-58.923 130.192,-57.8229 138.8,-56.7362"/>
<polygon fill="midnightblue" stroke="midnightblue" points="139.345,-60.1952 148.828,-55.4702 138.468,-53.2504 139.345,-60.1952"/>
</g>
<!-- Node204 -->
<g id="node5" class="node"><title>Node204</title>
<g id="a_node5"><a xlink:href="timetick_8h.xhtml#a2b6066c4eacf5089da661bd9e13bc9ed" target="_top" xlink:title="Sync Wait for several ms. ">
<polygon fill="white" stroke="red" points="191,-0.5 191,-19.5 227,-19.5 227,-0.5 191,-0.5"/>
<text text-anchor="middle" x="209" y="-7.5" font-family="Helvetica,sans-Serif" font-size="10.00">Wait</text>
</a>
</g>
</g>
<!-- Node185&#45;&gt;Node204 -->
<g id="edge7" class="edge"><title>Node185&#45;&gt;Node204</title>
<path fill="none" stroke="midnightblue" d="M79.1169,-57.4329C97.5337,-49.4248 124.786,-37.9099 149,-29 159.453,-25.1538 171.097,-21.312 181.261,-18.0997"/>
<polygon fill="midnightblue" stroke="midnightblue" points="182.325,-21.4342 190.833,-15.1203 180.245,-14.7505 182.325,-21.4342"/>
</g>
<!-- Node186&#45;&gt;Node187 -->
<g id="edge2" class="edge"><title>Node186&#45;&gt;Node187</title>
<path fill="none" stroke="midnightblue" d="M430.025,-86C438.415,-86 447.121,-86 455.768,-86"/>
<polygon fill="midnightblue" stroke="midnightblue" points="455.871,-89.5001 465.871,-86 455.871,-82.5001 455.871,-89.5001"/>
</g>
<!-- Node203&#45;&gt;Node186 -->
<g id="edge5" class="edge"><title>Node203&#45;&gt;Node186</title>
<path fill="none" stroke="midnightblue" d="M249.492,-57.589C270.143,-62.6035 295.614,-68.7881 317.512,-74.1053"/>
<polygon fill="midnightblue" stroke="midnightblue" points="316.749,-77.5215 327.292,-76.4799 318.401,-70.7191 316.749,-77.5215"/>
</g>
<!-- Node203&#45;&gt;Node187 -->
<g id="edge4" class="edge"><title>Node203&#45;&gt;Node187</title>
<path fill="none" stroke="midnightblue" d="M269.456,-51.634C313.817,-54.7092 375.85,-59.7783 430,-67 445.515,-69.0692 462.226,-71.8422 477.654,-74.629"/>
<polygon fill="midnightblue" stroke="midnightblue" points="477.114,-78.0882 487.582,-76.4551 478.38,-71.2037 477.114,-78.0882"/>
</g>
</g>
</svg>
