<?xml version="1.0" encoding="UTF-8" standalone="no"?>
<!DOCTYPE svg PUBLIC "-//W3C//DTD SVG 1.1//EN"
 "http://www.w3.org/Graphics/SVG/1.1/DTD/svg11.dtd">
<!-- Generated by graphviz version 2.38.0 (20140413.2041)
 -->
<!-- Title: S25FL1D_ReadStatus Pages: 1 -->
<svg width="339pt" height="180pt"
 viewBox="0.00 0.00 339.00 180.00" xmlns="http://www.w3.org/2000/svg" xmlns:xlink="http://www.w3.org/1999/xlink">
<g id="graph0" class="graph" transform="scale(1 1) rotate(0) translate(4 176)">
<title>S25FL1D_ReadStatus</title>
<polygon fill="white" stroke="none" points="-4,4 -4,-176 335,-176 335,4 -4,4"/>
<!-- Node770 -->
<g id="node1" class="node"><title>Node770</title>
<polygon fill="#bfbfbf" stroke="black" points="0,-76.5 0,-95.5 119,-95.5 119,-76.5 0,-76.5"/>
<text text-anchor="middle" x="59.5" y="-83.5" font-family="Helvetica,sans-Serif" font-size="10.00">S25FL1D_ReadStatus</text>
</g>
<!-- Node771 -->
<g id="node2" class="node"><title>Node771</title>
<g id="a_node2"><a xlink:href="s25fl1_8c.xhtml#a4c6fd4ef041626a21913d696dc98b2e0" target="_top" xlink:title="Enables critical writes operation on a serial flash device, such as sector protection, status register, etc. ">
<polygon fill="white" stroke="black" points="155,-152.5 155,-171.5 331,-171.5 331,-152.5 155,-152.5"/>
<text text-anchor="middle" x="243" y="-159.5" font-family="Helvetica,sans-Serif" font-size="10.00">S25FL1D_SetReadLatencyControl</text>
</a>
</g>
</g>
<!-- Node770&#45;&gt;Node771 -->
<g id="edge1" class="edge"><title>Node770&#45;&gt;Node771</title>
<path fill="none" stroke="midnightblue" d="M81.4944,-101.436C99.9797,-114.331 128.076,-132.281 155,-143 164.624,-146.831 175.169,-149.959 185.495,-152.488"/>
<polygon fill="midnightblue" stroke="midnightblue" points="83.4171,-98.5089 73.2392,-95.5661 79.3605,-104.214 83.4171,-98.5089"/>
</g>
<!-- Node772 -->
<g id="node3" class="node"><title>Node772</title>
<g id="a_node3"><a xlink:href="s25fl1_8c.xhtml#adcd9d89815104978796ebe1981059a16" target="_top" xlink:title="Issue &#39;CContinuous Read Mode&#39; command, the device can return to normal SPI command mode...">
<polygon fill="white" stroke="black" points="161.5,-114.5 161.5,-133.5 324.5,-133.5 324.5,-114.5 161.5,-114.5"/>
<text text-anchor="middle" x="243" y="-121.5" font-family="Helvetica,sans-Serif" font-size="10.00">S25FL1D_ContReadModeReset</text>
</a>
</g>
</g>
<!-- Node770&#45;&gt;Node772 -->
<g id="edge2" class="edge"><title>Node770&#45;&gt;Node772</title>
<path fill="none" stroke="midnightblue" d="M116.292,-97.681C142.031,-103.07 172.199,-109.386 196.529,-114.48"/>
<polygon fill="midnightblue" stroke="midnightblue" points="116.805,-94.2126 106.3,-95.589 115.371,-101.064 116.805,-94.2126"/>
</g>
<!-- Node773 -->
<g id="node4" class="node"><title>Node773</title>
<g id="a_node4"><a xlink:href="s25fl1_8c.xhtml#a203cdd2db6776cf3b6884d2dd6817cdf" target="_top" xlink:title="Unprotected the contents of the serial flash device. ">
<polygon fill="white" stroke="black" points="186.5,-76.5 186.5,-95.5 299.5,-95.5 299.5,-76.5 186.5,-76.5"/>
<text text-anchor="middle" x="243" y="-83.5" font-family="Helvetica,sans-Serif" font-size="10.00">S25FL1D_Unprotect</text>
</a>
</g>
</g>
<!-- Node770&#45;&gt;Node773 -->
<g id="edge3" class="edge"><title>Node770&#45;&gt;Node773</title>
<path fill="none" stroke="midnightblue" d="M129.195,-86C148.056,-86 168.27,-86 186.303,-86"/>
<polygon fill="midnightblue" stroke="midnightblue" points="129.177,-82.5001 119.177,-86 129.177,-89.5001 129.177,-82.5001"/>
</g>
<!-- Node774 -->
<g id="node5" class="node"><title>Node774</title>
<g id="a_node5"><a xlink:href="s25fl1_8c.xhtml#ae1170240dc2ab7b96831e4bc91359f22" target="_top" xlink:title="Unprotected the contents of the serial flash device. ">
<polygon fill="white" stroke="black" points="193.5,-38.5 193.5,-57.5 292.5,-57.5 292.5,-38.5 193.5,-38.5"/>
<text text-anchor="middle" x="243" y="-45.5" font-family="Helvetica,sans-Serif" font-size="10.00">S25FL1D_Protect</text>
</a>
</g>
</g>
<!-- Node770&#45;&gt;Node774 -->
<g id="edge4" class="edge"><title>Node770&#45;&gt;Node774</title>
<path fill="none" stroke="midnightblue" d="M116.292,-74.319C142.031,-68.9301 172.199,-62.6139 196.529,-57.5201"/>
<polygon fill="midnightblue" stroke="midnightblue" points="115.371,-70.936 106.3,-76.411 116.805,-77.7874 115.371,-70.936"/>
</g>
<!-- Node775 -->
<g id="node6" class="node"><title>Node775</title>
<g id="a_node6"><a xlink:href="s25fl1_8c.xhtml#a3e17d8be015b8eddc6c4c81ec2310c79" target="_top" xlink:title="Erases the specified 64KB block of the serial firmware dataflash. ">
<polygon fill="white" stroke="black" points="175.5,-0.5 175.5,-19.5 310.5,-19.5 310.5,-0.5 175.5,-0.5"/>
<text text-anchor="middle" x="243" y="-7.5" font-family="Helvetica,sans-Serif" font-size="10.00">S25FL1D_Erase64KBlock</text>
</a>
</g>
</g>
<!-- Node770&#45;&gt;Node775 -->
<g id="edge5" class="edge"><title>Node770&#45;&gt;Node775</title>
<path fill="none" stroke="midnightblue" d="M81.4944,-70.5636C99.9797,-57.6688 128.076,-39.7188 155,-29 164.624,-25.1686 175.169,-22.0413 185.495,-19.512"/>
<polygon fill="midnightblue" stroke="midnightblue" points="79.3605,-67.7864 73.2392,-76.4339 83.4171,-73.4911 79.3605,-67.7864"/>
</g>
</g>
</svg>
