<?xml version="1.0" encoding="UTF-8" standalone="no"?>
<!DOCTYPE svg PUBLIC "-//W3C//DTD SVG 1.1//EN"
 "http://www.w3.org/Graphics/SVG/1.1/DTD/svg11.dtd">
<!-- Generated by graphviz version 2.38.0 (20140413.2041)
 -->
<!-- Title: src/hal/x4m0x_s70/libraries/libchip/source/sdramc.c Pages: 1 -->
<svg width="154pt" height="151pt"
 viewBox="0.00 0.00 154.00 151.00" xmlns="http://www.w3.org/2000/svg" xmlns:xlink="http://www.w3.org/1999/xlink">
<g id="graph0" class="graph" transform="scale(1 1) rotate(0) translate(4 147)">
<title>src/hal/x4m0x_s70/libraries/libchip/source/sdramc.c</title>
<polygon fill="white" stroke="none" points="-4,4 -4,-147 150,-147 150,4 -4,4"/>
<!-- Node0 -->
<g id="node1" class="node"><title>Node0</title>
<polygon fill="#bfbfbf" stroke="black" points="0,-112.5 0,-142.5 146,-142.5 146,-112.5 0,-112.5"/>
<text text-anchor="start" x="8" y="-130.5" font-family="Helvetica,sans-Serif" font-size="10.00">src/hal/x4m0x_s70/libraries</text>
<text text-anchor="middle" x="73" y="-119.5" font-family="Helvetica,sans-Serif" font-size="10.00">/libchip/source/sdramc.c</text>
</g>
<!-- Node1 -->
<g id="node2" class="node"><title>Node1</title>
<g id="a_node2"><a xlink:href="chip_8h.xhtml" target="_top" xlink:title="chip.h">
<polygon fill="white" stroke="red" points="25.5,-56.5 25.5,-75.5 70.5,-75.5 70.5,-56.5 25.5,-56.5"/>
<text text-anchor="middle" x="48" y="-63.5" font-family="Helvetica,sans-Serif" font-size="10.00">chip.h</text>
</a>
</g>
</g>
<!-- Node0&#45;&gt;Node1 -->
<g id="edge1" class="edge"><title>Node0&#45;&gt;Node1</title>
<path fill="none" stroke="midnightblue" d="M67.0753,-112.399C63.6298,-104.199 59.2525,-93.7809 55.5603,-84.9936"/>
<polygon fill="midnightblue" stroke="midnightblue" points="58.7382,-83.5213 51.6377,-75.6578 52.2847,-86.2328 58.7382,-83.5213"/>
</g>
<!-- Node28 -->
<g id="node3" class="node"><title>Node28</title>
<g id="a_node3"><a xlink:href="sdramc_8h.xhtml" target="_top" xlink:title="Definitions and function prototype for SDRAMC. ">
<polygon fill="white" stroke="black" points="24,-0.5 24,-19.5 122,-19.5 122,-0.5 24,-0.5"/>
<text text-anchor="middle" x="73" y="-7.5" font-family="Helvetica,sans-Serif" font-size="10.00">include/sdramc.h</text>
</a>
</g>
</g>
<!-- Node0&#45;&gt;Node28 -->
<g id="edge3" class="edge"><title>Node0&#45;&gt;Node28</title>
<path fill="none" stroke="midnightblue" d="M75.8548,-112.471C78.4033,-98.2549 81.517,-75.6211 80,-56 79.3212,-47.2204 77.9081,-37.5626 76.5281,-29.4526"/>
<polygon fill="midnightblue" stroke="midnightblue" points="79.9663,-28.7961 74.7389,-19.5806 73.0785,-30.0446 79.9663,-28.7961"/>
</g>
<!-- Node1&#45;&gt;Node28 -->
<g id="edge2" class="edge"><title>Node1&#45;&gt;Node28</title>
<path fill="none" stroke="midnightblue" d="M52.1282,-56.083C55.5139,-48.77 60.416,-38.1814 64.6188,-29.1034"/>
<polygon fill="midnightblue" stroke="midnightblue" points="67.9234,-30.2962 68.9486,-19.7511 61.5711,-27.3553 67.9234,-30.2962"/>
</g>
</g>
</svg>
