<?xml version="1.0" encoding="UTF-8" standalone="no"?>
<!DOCTYPE svg PUBLIC "-//W3C//DTD SVG 1.1//EN"
 "http://www.w3.org/Graphics/SVG/1.1/DTD/svg11.dtd">
<!-- Generated by graphviz version 2.38.0 (20140413.2041)
 -->
<!-- Title: _AUDDSpeakerDriverAudioControlDescriptors Pages: 1 -->
<svg width="429pt" height="142pt"
 viewBox="0.00 0.00 429.00 142.00" xmlns="http://www.w3.org/2000/svg" xmlns:xlink="http://www.w3.org/1999/xlink">
<g id="graph0" class="graph" transform="scale(1 1) rotate(0) translate(4 138)">
<title>_AUDDSpeakerDriverAudioControlDescriptors</title>
<polygon fill="white" stroke="none" points="-4,4 -4,-138 425,-138 425,4 -4,4"/>
<!-- Node1 -->
<g id="node1" class="node"><title>Node1</title>
<polygon fill="#bfbfbf" stroke="black" points="240,-52 240,-82 421,-82 421,-52 240,-52"/>
<text text-anchor="start" x="248" y="-70" font-family="Helvetica,sans-Serif" font-size="10.00">_AUDDSpeakerDriverAudioControl</text>
<text text-anchor="middle" x="330.5" y="-59" font-family="Helvetica,sans-Serif" font-size="10.00">Descriptors</text>
</g>
<!-- Node2 -->
<g id="node2" class="node"><title>Node2</title>
<g id="a_node2"><a xlink:href="struct___a_u_d_feature_unit_descriptor3.xhtml" target="_top" xlink:title="Feature unit descriptor with 3 channel controls (master, right, left). ">
<polygon fill="white" stroke="red" points="5.5,-114.5 5.5,-133.5 160.5,-133.5 160.5,-114.5 5.5,-114.5"/>
<text text-anchor="middle" x="83" y="-121.5" font-family="Helvetica,sans-Serif" font-size="10.00">_AUDFeatureUnitDescriptor3</text>
</a>
</g>
</g>
<!-- Node2&#45;&gt;Node1 -->
<g id="edge1" class="edge"><title>Node2&#45;&gt;Node1</title>
<path fill="none" stroke="#9a32cd" stroke-dasharray="5,2" d="M137.145,-112.274C162.806,-106.558 194.028,-99.5241 222,-93 236.96,-89.5109 253.067,-85.6635 268.145,-82.0224"/>
<polygon fill="#9a32cd" stroke="#9a32cd" points="136.242,-108.89 127.24,-114.477 137.762,-115.723 136.242,-108.89"/>
<text text-anchor="middle" x="203" y="-104" font-family="Helvetica,sans-Serif" font-size="10.00"> feature</text>
</g>
<!-- Node4 -->
<g id="node3" class="node"><title>Node4</title>
<g id="a_node3"><a xlink:href="struct___a_u_d_header_descriptor1.xhtml" target="_top" xlink:title="Audio header descriptor with 1 interface. ">
<polygon fill="white" stroke="red" points="16,-76.5 16,-95.5 150,-95.5 150,-76.5 16,-76.5"/>
<text text-anchor="middle" x="83" y="-83.5" font-family="Helvetica,sans-Serif" font-size="10.00">_AUDHeaderDescriptor1</text>
</a>
</g>
</g>
<!-- Node4&#45;&gt;Node1 -->
<g id="edge2" class="edge"><title>Node4&#45;&gt;Node1</title>
<path fill="none" stroke="#9a32cd" stroke-dasharray="5,2" d="M160.322,-80.0932C185.477,-78.1464 213.682,-75.9635 239.744,-73.9465"/>
<polygon fill="#9a32cd" stroke="#9a32cd" points="159.813,-76.6221 150.112,-80.8834 160.353,-83.6012 159.813,-76.6221"/>
<text text-anchor="middle" x="203" y="-81" font-family="Helvetica,sans-Serif" font-size="10.00"> header</text>
</g>
<!-- Node6 -->
<g id="node4" class="node"><title>Node6</title>
<g id="a_node4"><a xlink:href="struct___a_u_d_output_terminal_descriptor.xhtml" target="_top" xlink:title="_AUDOutputTerminalDescriptor">
<polygon fill="white" stroke="black" points="0,-38.5 0,-57.5 166,-57.5 166,-38.5 0,-38.5"/>
<text text-anchor="middle" x="83" y="-45.5" font-family="Helvetica,sans-Serif" font-size="10.00">_AUDOutputTerminalDescriptor</text>
</a>
</g>
</g>
<!-- Node6&#45;&gt;Node1 -->
<g id="edge3" class="edge"><title>Node6&#45;&gt;Node1</title>
<path fill="none" stroke="#9a32cd" stroke-dasharray="5,2" d="M176.21,-55.1364C197.055,-56.7497 219.155,-58.46 239.891,-60.0649"/>
<polygon fill="#9a32cd" stroke="#9a32cd" points="176.33,-51.6353 166.089,-54.3531 175.789,-58.6144 176.33,-51.6353"/>
<text text-anchor="middle" x="203" y="-61" font-family="Helvetica,sans-Serif" font-size="10.00"> output</text>
</g>
<!-- Node7 -->
<g id="node5" class="node"><title>Node7</title>
<g id="a_node5"><a xlink:href="struct___a_u_d_input_terminal_descriptor.xhtml" target="_top" xlink:title="_AUDInputTerminalDescriptor">
<polygon fill="white" stroke="black" points="4.5,-0.5 4.5,-19.5 161.5,-19.5 161.5,-0.5 4.5,-0.5"/>
<text text-anchor="middle" x="83" y="-7.5" font-family="Helvetica,sans-Serif" font-size="10.00">_AUDInputTerminalDescriptor</text>
</a>
</g>
</g>
<!-- Node7&#45;&gt;Node1 -->
<g id="edge4" class="edge"><title>Node7&#45;&gt;Node1</title>
<path fill="none" stroke="#9a32cd" stroke-dasharray="5,2" d="M139.863,-21.7192C165.008,-27.1035 195.039,-33.6854 222,-40 237.925,-43.73 255.127,-47.9596 271.001,-51.9459"/>
<polygon fill="#9a32cd" stroke="#9a32cd" points="140.279,-18.2292 129.769,-19.5657 138.818,-25.0752 140.279,-18.2292"/>
<text text-anchor="middle" x="203" y="-43" font-family="Helvetica,sans-Serif" font-size="10.00"> input</text>
</g>
</g>
</svg>
