<?xml version="1.0" encoding="UTF-8" standalone="no"?>
<!DOCTYPE svg PUBLIC "-//W3C//DTD SVG 1.1//EN"
 "http://www.w3.org/Graphics/SVG/1.1/DTD/svg11.dtd">
<!-- Generated by graphviz version 2.38.0 (20140413.2041)
 -->
<!-- Title: XepDispatchMessageContentHostcomAppdataRespirationDetectionlist_t Pages: 1 -->
<svg width="230pt" height="117pt"
 viewBox="0.00 0.00 230.00 117.00" xmlns="http://www.w3.org/2000/svg" xmlns:xlink="http://www.w3.org/1999/xlink">
<g id="graph0" class="graph" transform="scale(1 1) rotate(0) translate(4 113)">
<title>XepDispatchMessageContentHostcomAppdataRespirationDetectionlist_t</title>
<polygon fill="white" stroke="none" points="-4,4 -4,-113 226,-113 226,4 -4,4"/>
<!-- Node1 -->
<g id="node1" class="node"><title>Node1</title>
<polygon fill="#bfbfbf" stroke="black" points="-1.42109e-14,-0.5 -1.42109e-14,-30.5 222,-30.5 222,-0.5 -1.42109e-14,-0.5"/>
<text text-anchor="start" x="8" y="-18.5" font-family="Helvetica,sans-Serif" font-size="10.00">XepDispatchMessageContent</text>
<text text-anchor="middle" x="111" y="-7.5" font-family="Helvetica,sans-Serif" font-size="10.00">HostcomAppdataRespirationDetectionlist_t</text>
</g>
<!-- Node2 -->
<g id="node2" class="node"><title>Node2</title>
<g id="a_node2"><a xlink:href="struct_xep_dispatch_message_content_common__t.xhtml" target="_top" xlink:title="XepDispatchMessageContent\lCommon_t">
<polygon fill="white" stroke="black" points="32.5,-78.5 32.5,-108.5 189.5,-108.5 189.5,-78.5 32.5,-78.5"/>
<text text-anchor="start" x="40.5" y="-96.5" font-family="Helvetica,sans-Serif" font-size="10.00">XepDispatchMessageContent</text>
<text text-anchor="middle" x="111" y="-85.5" font-family="Helvetica,sans-Serif" font-size="10.00">Common_t</text>
</a>
</g>
</g>
<!-- Node2&#45;&gt;Node1 -->
<g id="edge1" class="edge"><title>Node2&#45;&gt;Node1</title>
<path fill="none" stroke="#9a32cd" stroke-dasharray="5,2" d="M111,-68.0898C111,-55.7565 111,-41.2237 111,-30.7309"/>
<polygon fill="#9a32cd" stroke="#9a32cd" points="107.5,-68.2049 111,-78.205 114.5,-68.205 107.5,-68.2049"/>
<text text-anchor="middle" x="134" y="-52" font-family="Helvetica,sans-Serif" font-size="10.00"> common</text>
</g>
</g>
</svg>
