<?xml version="1.0" encoding="UTF-8" standalone="no"?>
<!DOCTYPE svg PUBLIC "-//W3C//DTD SVG 1.1//EN"
 "http://www.w3.org/Graphics/SVG/1.1/DTD/svg11.dtd">
<!-- Generated by graphviz version 2.38.0 (20140413.2041)
 -->
<!-- Title: _HidMsdDriverConfigurationDescriptors Pages: 1 -->
<svg width="425pt" height="175pt"
 viewBox="0.00 0.00 425.00 175.00" xmlns="http://www.w3.org/2000/svg" xmlns:xlink="http://www.w3.org/1999/xlink">
<g id="graph0" class="graph" transform="scale(1 1) rotate(0) translate(4 171)">
<title>_HidMsdDriverConfigurationDescriptors</title>
<polygon fill="white" stroke="none" points="-4,4 -4,-171 421,-171 421,4 -4,4"/>
<!-- Node1 -->
<g id="node1" class="node"><title>Node1</title>
<polygon fill="#bfbfbf" stroke="black" points="268,-57 268,-87 417,-87 417,-57 268,-57"/>
<text text-anchor="start" x="276" y="-75" font-family="Helvetica,sans-Serif" font-size="10.00">_HidMsdDriverConfiguration</text>
<text text-anchor="middle" x="342.5" y="-64" font-family="Helvetica,sans-Serif" font-size="10.00">Descriptors</text>
</g>
<!-- Node2 -->
<g id="node2" class="node"><title>Node2</title>
<g id="a_node2"><a xlink:href="struct___h_i_d_descriptor1.xhtml" target="_top" xlink:title="_HIDDescriptor1">
<polygon fill="white" stroke="black" points="30.5,-147.5 30.5,-166.5 125.5,-166.5 125.5,-147.5 30.5,-147.5"/>
<text text-anchor="middle" x="78" y="-154.5" font-family="Helvetica,sans-Serif" font-size="10.00">_HIDDescriptor1</text>
</a>
</g>
</g>
<!-- Node2&#45;&gt;Node1 -->
<g id="edge1" class="edge"><title>Node2&#45;&gt;Node1</title>
<path fill="none" stroke="#9a32cd" stroke-dasharray="5,2" d="M135.958,-154.855C169.977,-152.077 213.522,-145.847 250,-132 277.883,-121.416 305.98,-101.247 323.542,-87.2306"/>
<polygon fill="#9a32cd" stroke="#9a32cd" points="135.44,-151.384 125.725,-155.611 135.956,-158.365 135.44,-151.384"/>
<text text-anchor="middle" x="212" y="-153" font-family="Helvetica,sans-Serif" font-size="10.00"> hid</text>
</g>
<!-- Node3 -->
<g id="node3" class="node"><title>Node3</title>
<g id="a_node3"><a xlink:href="struct___u_s_b_endpoint_descriptor.xhtml" target="_top" xlink:title="_USBEndpointDescriptor">
<polygon fill="white" stroke="black" points="11,-82.5 11,-101.5 145,-101.5 145,-82.5 11,-82.5"/>
<text text-anchor="middle" x="78" y="-89.5" font-family="Helvetica,sans-Serif" font-size="10.00">_USBEndpointDescriptor</text>
</a>
</g>
</g>
<!-- Node3&#45;&gt;Node1 -->
<g id="edge2" class="edge"><title>Node3&#45;&gt;Node1</title>
<path fill="none" stroke="#9a32cd" stroke-dasharray="5,2" d="M155.525,-86.1695C190.939,-83.4713 232.829,-80.2797 267.877,-77.6094"/>
<polygon fill="#9a32cd" stroke="#9a32cd" points="154.945,-82.7035 145.24,-86.9532 155.477,-89.6832 154.945,-82.7035"/>
<text text-anchor="middle" x="212" y="-120" font-family="Helvetica,sans-Serif" font-size="10.00"> hidInterruptOut</text>
<text text-anchor="middle" x="212" y="-109" font-family="Helvetica,sans-Serif" font-size="10.00">hidInterruptIn</text>
<text text-anchor="middle" x="212" y="-98" font-family="Helvetica,sans-Serif" font-size="10.00">msdBulkOut</text>
<text text-anchor="middle" x="212" y="-87" font-family="Helvetica,sans-Serif" font-size="10.00">msdBulkIn</text>
</g>
<!-- Node4 -->
<g id="node4" class="node"><title>Node4</title>
<g id="a_node4"><a xlink:href="struct___u_s_b_configuration_descriptor.xhtml" target="_top" xlink:title="_USBConfigurationDescriptor">
<polygon fill="white" stroke="black" points="0,-44.5 0,-63.5 156,-63.5 156,-44.5 0,-44.5"/>
<text text-anchor="middle" x="78" y="-51.5" font-family="Helvetica,sans-Serif" font-size="10.00">_USBConfigurationDescriptor</text>
</a>
</g>
</g>
<!-- Node4&#45;&gt;Node1 -->
<g id="edge3" class="edge"><title>Node4&#45;&gt;Node1</title>
<path fill="none" stroke="#9a32cd" stroke-dasharray="5,2" d="M166.32,-53.0955C193.203,-53.4716 222.86,-54.5504 250,-57 255.772,-57.5209 261.729,-58.192 267.707,-58.9607"/>
<polygon fill="#9a32cd" stroke="#9a32cd" points="166.202,-49.5941 156.164,-52.9844 166.125,-56.5937 166.202,-49.5941"/>
<text text-anchor="middle" x="212" y="-60" font-family="Helvetica,sans-Serif" font-size="10.00"> configuration</text>
</g>
<!-- Node5 -->
<g id="node5" class="node"><title>Node5</title>
<g id="a_node5"><a xlink:href="struct___u_s_b_interface_descriptor.xhtml" target="_top" xlink:title="_USBInterfaceDescriptor">
<polygon fill="white" stroke="black" points="11,-0.5 11,-19.5 145,-19.5 145,-0.5 11,-0.5"/>
<text text-anchor="middle" x="78" y="-7.5" font-family="Helvetica,sans-Serif" font-size="10.00">_USBInterfaceDescriptor</text>
</a>
</g>
</g>
<!-- Node5&#45;&gt;Node1 -->
<g id="edge4" class="edge"><title>Node5&#45;&gt;Node1</title>
<path fill="none" stroke="#9a32cd" stroke-dasharray="5,2" d="M155.765,-11.7843C185.628,-13.9868 219.847,-18.3921 250,-27 273.832,-33.8033 298.962,-46.6238 316.844,-56.8454"/>
<polygon fill="#9a32cd" stroke="#9a32cd" points="155.609,-8.26615 145.398,-11.0938 155.143,-15.2507 155.609,-8.26615"/>
<text text-anchor="middle" x="212" y="-41" font-family="Helvetica,sans-Serif" font-size="10.00"> msdInterface</text>
<text text-anchor="middle" x="212" y="-30" font-family="Helvetica,sans-Serif" font-size="10.00">hidInterface</text>
</g>
</g>
</svg>
