<?xml version="1.0" encoding="UTF-8" standalone="no"?>
<!DOCTYPE svg PUBLIC "-//W3C//DTD SVG 1.1//EN"
 "http://www.w3.org/Graphics/SVG/1.1/DTD/svg11.dtd">
<!-- Generated by graphviz version 2.38.0 (20140413.2041)
 -->
<!-- Title: _CdcHidDriverConfigurationDescriptors Pages: 1 -->
<svg width="539pt" height="407pt"
 viewBox="0.00 0.00 539.00 406.93" xmlns="http://www.w3.org/2000/svg" xmlns:xlink="http://www.w3.org/1999/xlink">
<g id="graph0" class="graph" transform="scale(1 1) rotate(0) translate(4 402.932)">
<title>_CdcHidDriverConfigurationDescriptors</title>
<polygon fill="white" stroke="none" points="-4,4 -4,-402.932 535,-402.932 535,4 -4,4"/>
<!-- Node1 -->
<g id="node1" class="node"><title>Node1</title>
<polygon fill="#bfbfbf" stroke="black" points="383,-169.932 383,-199.932 531,-199.932 531,-169.932 383,-169.932"/>
<text text-anchor="start" x="391" y="-187.932" font-family="Helvetica,sans-Serif" font-size="10.00">_CdcHidDriverConfiguration</text>
<text text-anchor="middle" x="457" y="-176.932" font-family="Helvetica,sans-Serif" font-size="10.00">Descriptors</text>
</g>
<!-- Node2 -->
<g id="node2" class="node"><title>Node2</title>
<g id="a_node2"><a xlink:href="struct___c_d_c_union_descriptor.xhtml" target="_top" xlink:title="_CDCUnionDescriptor">
<polygon fill="white" stroke="black" points="31,-364.432 31,-383.432 151,-383.432 151,-364.432 31,-364.432"/>
<text text-anchor="middle" x="91" y="-371.432" font-family="Helvetica,sans-Serif" font-size="10.00">_CDCUnionDescriptor</text>
</a>
</g>
</g>
<!-- Node2&#45;&gt;Node1 -->
<g id="edge1" class="edge"><title>Node2&#45;&gt;Node1</title>
<path fill="none" stroke="#9a32cd" stroke-dasharray="5,2" d="M153.577,-384.709C212.657,-391.647 301.958,-392.888 365,-351.932 420.376,-315.956 444.769,-234.264 452.791,-200.245"/>
<polygon fill="#9a32cd" stroke="#9a32cd" points="153.997,-381.234 143.638,-383.455 153.121,-388.179 153.997,-381.234"/>
<text text-anchor="middle" x="282.5" y="-390.932" font-family="Helvetica,sans-Serif" font-size="10.00"> cdcUnion0</text>
</g>
<!-- Node3 -->
<g id="node3" class="node"><title>Node3</title>
<g id="a_node3"><a xlink:href="struct___h_i_d_descriptor1.xhtml" target="_top" xlink:title="_HIDDescriptor1">
<polygon fill="white" stroke="black" points="43.5,-326.432 43.5,-345.432 138.5,-345.432 138.5,-326.432 43.5,-326.432"/>
<text text-anchor="middle" x="91" y="-333.432" font-family="Helvetica,sans-Serif" font-size="10.00">_HIDDescriptor1</text>
</a>
</g>
</g>
<!-- Node3&#45;&gt;Node1 -->
<g id="edge2" class="edge"><title>Node3&#45;&gt;Node1</title>
<path fill="none" stroke="#9a32cd" stroke-dasharray="5,2" d="M148.936,-336.924C217.937,-337.174 329.398,-334.242 365,-313.932 410.708,-287.857 439.041,-228.332 450.351,-200.199"/>
<polygon fill="#9a32cd" stroke="#9a32cd" points="148.682,-333.422 138.661,-336.862 148.64,-340.422 148.682,-333.422"/>
<text text-anchor="middle" x="282.5" y="-339.932" font-family="Helvetica,sans-Serif" font-size="10.00"> hid</text>
</g>
<!-- Node4 -->
<g id="node4" class="node"><title>Node4</title>
<g id="a_node4"><a xlink:href="struct___u_s_b_interface_association_descriptor.xhtml" target="_top" xlink:title="_USBInterfaceAssociation\lDescriptor">
<polygon fill="white" stroke="black" points="21,-276.932 21,-306.932 161,-306.932 161,-276.932 21,-276.932"/>
<text text-anchor="start" x="29" y="-294.932" font-family="Helvetica,sans-Serif" font-size="10.00">_USBInterfaceAssociation</text>
<text text-anchor="middle" x="91" y="-283.932" font-family="Helvetica,sans-Serif" font-size="10.00">Descriptor</text>
</a>
</g>
</g>
<!-- Node4&#45;&gt;Node1 -->
<g id="edge3" class="edge"><title>Node4&#45;&gt;Node1</title>
<path fill="none" stroke="#9a32cd" stroke-dasharray="5,2" d="M171.352,-300.866C227.78,-303.912 304.064,-301.149 365,-273.932 400.916,-257.891 430.881,-221.129 445.807,-200.216"/>
<polygon fill="#9a32cd" stroke="#9a32cd" points="171.251,-297.353 161.055,-300.234 170.822,-304.34 171.251,-297.353"/>
<text text-anchor="middle" x="282.5" y="-304.932" font-family="Helvetica,sans-Serif" font-size="10.00"> cdcIAD0</text>
</g>
<!-- Node5 -->
<g id="node5" class="node"><title>Node5</title>
<g id="a_node5"><a xlink:href="struct___u_s_b_endpoint_descriptor.xhtml" target="_top" xlink:title="_USBEndpointDescriptor">
<polygon fill="white" stroke="black" points="24,-215.432 24,-234.432 158,-234.432 158,-215.432 24,-215.432"/>
<text text-anchor="middle" x="91" y="-222.432" font-family="Helvetica,sans-Serif" font-size="10.00">_USBEndpointDescriptor</text>
</a>
</g>
</g>
<!-- Node5&#45;&gt;Node1 -->
<g id="edge4" class="edge"><title>Node5&#45;&gt;Node1</title>
<path fill="none" stroke="#9a32cd" stroke-dasharray="5,2" d="M168.238,-217.708C223.025,-212.372 298.624,-204.711 365,-196.932 370.698,-196.264 376.593,-195.547 382.516,-194.808"/>
<polygon fill="#9a32cd" stroke="#9a32cd" points="167.872,-214.227 158.257,-218.677 168.548,-221.194 167.872,-214.227"/>
<text text-anchor="middle" x="282.5" y="-261.932" font-family="Helvetica,sans-Serif" font-size="10.00"> hidInterruptOut</text>
<text text-anchor="middle" x="282.5" y="-250.932" font-family="Helvetica,sans-Serif" font-size="10.00">cdcDataIn0</text>
<text text-anchor="middle" x="282.5" y="-239.932" font-family="Helvetica,sans-Serif" font-size="10.00">hidInterruptIn</text>
<text text-anchor="middle" x="282.5" y="-228.932" font-family="Helvetica,sans-Serif" font-size="10.00">cdcNotification0</text>
<text text-anchor="middle" x="282.5" y="-217.932" font-family="Helvetica,sans-Serif" font-size="10.00">cdcDataOut0</text>
</g>
<!-- Node6 -->
<g id="node6" class="node"><title>Node6</title>
<g id="a_node6"><a xlink:href="struct___c_d_c_call_management_descriptor.xhtml" target="_top" xlink:title="_CDCCallManagementDescriptor">
<polygon fill="white" stroke="black" points="4.5,-177.432 4.5,-196.432 177.5,-196.432 177.5,-177.432 4.5,-177.432"/>
<text text-anchor="middle" x="91" y="-184.432" font-family="Helvetica,sans-Serif" font-size="10.00">_CDCCallManagementDescriptor</text>
</a>
</g>
</g>
<!-- Node6&#45;&gt;Node1 -->
<g id="edge5" class="edge"><title>Node6&#45;&gt;Node1</title>
<path fill="none" stroke="#9a32cd" stroke-dasharray="5,2" d="M187.953,-186.017C192.023,-185.987 196.052,-185.958 200,-185.932 261.666,-185.526 331.688,-185.267 382.894,-185.114"/>
<polygon fill="#9a32cd" stroke="#9a32cd" points="187.747,-182.518 177.774,-186.096 187.801,-189.518 187.747,-182.518"/>
<text text-anchor="middle" x="282.5" y="-188.932" font-family="Helvetica,sans-Serif" font-size="10.00"> cdcCallManagement0</text>
</g>
<!-- Node7 -->
<g id="node7" class="node"><title>Node7</title>
<g id="a_node7"><a xlink:href="struct___c_d_c_header_descriptor.xhtml" target="_top" xlink:title="_CDCHeaderDescriptor">
<polygon fill="white" stroke="black" points="27,-139.432 27,-158.432 155,-158.432 155,-139.432 27,-139.432"/>
<text text-anchor="middle" x="91" y="-146.432" font-family="Helvetica,sans-Serif" font-size="10.00">_CDCHeaderDescriptor</text>
</a>
</g>
</g>
<!-- Node7&#45;&gt;Node1 -->
<g id="edge6" class="edge"><title>Node7&#45;&gt;Node1</title>
<path fill="none" stroke="#9a32cd" stroke-dasharray="5,2" d="M165.032,-153.379C220.095,-157.081 297.421,-163.021 365,-170.932 370.715,-171.601 376.623,-172.359 382.555,-173.167"/>
<polygon fill="#9a32cd" stroke="#9a32cd" points="165.227,-149.884 155.017,-152.714 164.763,-156.869 165.227,-149.884"/>
<text text-anchor="middle" x="282.5" y="-173.932" font-family="Helvetica,sans-Serif" font-size="10.00"> cdcHeader0</text>
</g>
<!-- Node8 -->
<g id="node8" class="node"><title>Node8</title>
<g id="a_node8"><a xlink:href="struct___u_s_b_configuration_descriptor.xhtml" target="_top" xlink:title="_USBConfigurationDescriptor">
<polygon fill="white" stroke="black" points="13,-101.432 13,-120.432 169,-120.432 169,-101.432 13,-101.432"/>
<text text-anchor="middle" x="91" y="-108.432" font-family="Helvetica,sans-Serif" font-size="10.00">_USBConfigurationDescriptor</text>
</a>
</g>
</g>
<!-- Node8&#45;&gt;Node1 -->
<g id="edge7" class="edge"><title>Node8&#45;&gt;Node1</title>
<path fill="none" stroke="#9a32cd" stroke-dasharray="5,2" d="M179.486,-113.576C233.757,-116.996 304.443,-124.699 365,-141.932 387.857,-148.437 412.111,-160.166 429.827,-169.733"/>
<polygon fill="#9a32cd" stroke="#9a32cd" points="179.394,-110.065 169.205,-112.967 178.98,-117.052 179.394,-110.065"/>
<text text-anchor="middle" x="282.5" y="-144.932" font-family="Helvetica,sans-Serif" font-size="10.00"> configuration</text>
</g>
<!-- Node9 -->
<g id="node9" class="node"><title>Node9</title>
<g id="a_node9"><a xlink:href="struct___u_s_b_interface_descriptor.xhtml" target="_top" xlink:title="_USBInterfaceDescriptor">
<polygon fill="white" stroke="black" points="24,-50.4322 24,-69.4322 158,-69.4322 158,-50.4322 24,-50.4322"/>
<text text-anchor="middle" x="91" y="-57.4322" font-family="Helvetica,sans-Serif" font-size="10.00">_USBInterfaceDescriptor</text>
</a>
</g>
</g>
<!-- Node9&#45;&gt;Node1 -->
<g id="edge8" class="edge"><title>Node9&#45;&gt;Node1</title>
<path fill="none" stroke="#9a32cd" stroke-dasharray="5,2" d="M168.097,-50.017C225.276,-46.0571 303.921,-48.2558 365,-78.9322 405.097,-99.0705 434.764,-145.459 448.136,-169.641"/>
<polygon fill="#9a32cd" stroke="#9a32cd" points="167.74,-46.534 158.039,-50.792 168.278,-53.5133 167.74,-46.534"/>
<text text-anchor="middle" x="282.5" y="-103.932" font-family="Helvetica,sans-Serif" font-size="10.00"> cdcData0</text>
<text text-anchor="middle" x="282.5" y="-92.9322" font-family="Helvetica,sans-Serif" font-size="10.00">hidInterface</text>
<text text-anchor="middle" x="282.5" y="-81.9322" font-family="Helvetica,sans-Serif" font-size="10.00">cdcCommunication0</text>
</g>
<!-- Node10 -->
<g id="node10" class="node"><title>Node10</title>
<g id="a_node10"><a xlink:href="struct___c_d_c_abstract_control_management_descriptor.xhtml" target="_top" xlink:title="_CDCAbstractControlManagement\lDescriptor">
<polygon fill="white" stroke="black" points="0,-0.932153 0,-30.9322 182,-30.9322 182,-0.932153 0,-0.932153"/>
<text text-anchor="start" x="8" y="-18.9322" font-family="Helvetica,sans-Serif" font-size="10.00">_CDCAbstractControlManagement</text>
<text text-anchor="middle" x="91" y="-7.93215" font-family="Helvetica,sans-Serif" font-size="10.00">Descriptor</text>
</a>
</g>
</g>
<!-- Node10&#45;&gt;Node1 -->
<g id="edge9" class="edge"><title>Node10&#45;&gt;Node1</title>
<path fill="none" stroke="#9a32cd" stroke-dasharray="5,2" d="M192.271,-1.04944C247.048,2.04381 313.924,-2.81793 365,-33.9322 416.495,-65.3014 442.624,-137.81 451.933,-169.566"/>
<polygon fill="#9a32cd" stroke="#9a32cd" points="191.938,2.43628 182.191,-1.71506 192.4,-4.54851 191.938,2.43628"/>
<text text-anchor="middle" x="282.5" y="-36.9322" font-family="Helvetica,sans-Serif" font-size="10.00"> cdcAbstractControlManagement0</text>
</g>
</g>
</svg>
