<?xml version="1.0" encoding="UTF-8" standalone="no"?>
<!DOCTYPE svg PUBLIC "-//W3C//DTD SVG 1.1//EN"
 "http://www.w3.org/Graphics/SVG/1.1/DTD/svg11.dtd">
<!-- Generated by graphviz version 2.38.0 (20140413.2041)
 -->
<!-- Title: _HidAuddDriverConfigurationDescriptors Pages: 1 -->
<svg width="541pt" height="438pt"
 viewBox="0.00 0.00 541.00 437.97" xmlns="http://www.w3.org/2000/svg" xmlns:xlink="http://www.w3.org/1999/xlink">
<g id="graph0" class="graph" transform="scale(1 1) rotate(0) translate(4 433.967)">
<title>_HidAuddDriverConfigurationDescriptors</title>
<polygon fill="white" stroke="none" points="-4,4 -4,-433.967 537,-433.967 537,4 -4,4"/>
<!-- Node1 -->
<g id="node1" class="node"><title>Node1</title>
<polygon fill="#bfbfbf" stroke="black" points="378,-207.967 378,-237.967 533,-237.967 533,-207.967 378,-207.967"/>
<text text-anchor="start" x="386" y="-225.967" font-family="Helvetica,sans-Serif" font-size="10.00">_HidAuddDriverConfiguration</text>
<text text-anchor="middle" x="455.5" y="-214.967" font-family="Helvetica,sans-Serif" font-size="10.00">Descriptors</text>
</g>
<!-- Node2 -->
<g id="node2" class="node"><title>Node2</title>
<g id="a_node2"><a xlink:href="struct___h_i_d_descriptor1.xhtml" target="_top" xlink:title="_HIDDescriptor1">
<polygon fill="white" stroke="black" points="45,-396.467 45,-415.467 140,-415.467 140,-396.467 45,-396.467"/>
<text text-anchor="middle" x="92.5" y="-403.467" font-family="Helvetica,sans-Serif" font-size="10.00">_HIDDescriptor1</text>
</a>
</g>
</g>
<!-- Node2&#45;&gt;Node1 -->
<g id="edge1" class="edge"><title>Node2&#45;&gt;Node1</title>
<path fill="none" stroke="#9a32cd" stroke-dasharray="5,2" d="M150.387,-415.579C207.802,-422.194 296.782,-423.706 360,-383.967 414.742,-349.555 441.554,-271.001 450.722,-238.003"/>
<polygon fill="#9a32cd" stroke="#9a32cd" points="150.754,-412.098 140.399,-414.341 149.892,-419.045 150.754,-412.098"/>
<text text-anchor="middle" x="281.5" y="-421.967" font-family="Helvetica,sans-Serif" font-size="10.00"> hid</text>
</g>
<!-- Node3 -->
<g id="node3" class="node"><title>Node3</title>
<g id="a_node3"><a xlink:href="struct___u_s_b_interface_association_descriptor.xhtml" target="_top" xlink:title="_USBInterfaceAssociation\lDescriptor">
<polygon fill="white" stroke="black" points="22.5,-346.967 22.5,-376.967 162.5,-376.967 162.5,-346.967 22.5,-346.967"/>
<text text-anchor="start" x="30.5" y="-364.967" font-family="Helvetica,sans-Serif" font-size="10.00">_USBInterfaceAssociation</text>
<text text-anchor="middle" x="92.5" y="-353.967" font-family="Helvetica,sans-Serif" font-size="10.00">Descriptor</text>
</a>
</g>
</g>
<!-- Node3&#45;&gt;Node1 -->
<g id="edge2" class="edge"><title>Node3&#45;&gt;Node1</title>
<path fill="none" stroke="#9a32cd" stroke-dasharray="5,2" d="M172.924,-371.252C228.454,-374.093 302.64,-370.332 360,-339.967 403.615,-316.878 434.338,-264.109 447.432,-238.07"/>
<polygon fill="#9a32cd" stroke="#9a32cd" points="172.97,-367.749 162.78,-370.65 172.555,-374.736 172.97,-367.749"/>
<text text-anchor="middle" x="281.5" y="-375.967" font-family="Helvetica,sans-Serif" font-size="10.00"> audIAD</text>
</g>
<!-- Node4 -->
<g id="node4" class="node"><title>Node4</title>
<g id="a_node4"><a xlink:href="struct___u_s_b_endpoint_descriptor.xhtml" target="_top" xlink:title="_USBEndpointDescriptor">
<polygon fill="white" stroke="black" points="25.5,-308.467 25.5,-327.467 159.5,-327.467 159.5,-308.467 25.5,-308.467"/>
<text text-anchor="middle" x="92.5" y="-315.467" font-family="Helvetica,sans-Serif" font-size="10.00">_USBEndpointDescriptor</text>
</a>
</g>
</g>
<!-- Node4&#45;&gt;Node1 -->
<g id="edge3" class="edge"><title>Node4&#45;&gt;Node1</title>
<path fill="none" stroke="#9a32cd" stroke-dasharray="5,2" d="M169.888,-318.64C224.422,-316.856 298.672,-309.74 360,-286.967 390.092,-275.793 419.942,-253.132 437.805,-237.997"/>
<polygon fill="#9a32cd" stroke="#9a32cd" points="169.499,-315.149 159.599,-318.921 169.691,-322.146 169.499,-315.149"/>
<text text-anchor="middle" x="281.5" y="-330.967" font-family="Helvetica,sans-Serif" font-size="10.00"> hidInterruptOut</text>
<text text-anchor="middle" x="281.5" y="-319.967" font-family="Helvetica,sans-Serif" font-size="10.00">hidInterruptIn</text>
</g>
<!-- Node5 -->
<g id="node5" class="node"><title>Node5</title>
<g id="a_node5"><a xlink:href="struct___a_u_d_format_type_one_descriptor1.xhtml" target="_top" xlink:title="Format type I descriptor with one discrete sampling frequency. ">
<polygon fill="white" stroke="red" points="5.5,-270.467 5.5,-289.467 179.5,-289.467 179.5,-270.467 5.5,-270.467"/>
<text text-anchor="middle" x="92.5" y="-277.467" font-family="Helvetica,sans-Serif" font-size="10.00">_AUDFormatTypeOneDescriptor1</text>
</a>
</g>
</g>
<!-- Node5&#45;&gt;Node1 -->
<g id="edge4" class="edge"><title>Node5&#45;&gt;Node1</title>
<path fill="none" stroke="#9a32cd" stroke-dasharray="5,2" d="M189.634,-273.701C240.599,-269.326 304.069,-262.201 360,-250.967 376.441,-247.664 394.142,-242.787 409.731,-238.025"/>
<polygon fill="#9a32cd" stroke="#9a32cd" points="189.287,-270.217 179.613,-274.539 189.871,-277.193 189.287,-270.217"/>
<text text-anchor="middle" x="281.5" y="-274.967" font-family="Helvetica,sans-Serif" font-size="10.00"> audStreamingOutFormatType</text>
</g>
<!-- Node7 -->
<g id="node6" class="node"><title>Node7</title>
<g id="a_node6"><a xlink:href="struct___a_u_d_streaming_interface_descriptor.xhtml" target="_top" xlink:title="_AUDStreamingInterfaceDescriptor">
<polygon fill="white" stroke="black" points="0,-232.467 0,-251.467 185,-251.467 185,-232.467 0,-232.467"/>
<text text-anchor="middle" x="92.5" y="-239.467" font-family="Helvetica,sans-Serif" font-size="10.00">_AUDStreamingInterfaceDescriptor</text>
</a>
</g>
</g>
<!-- Node7&#45;&gt;Node1 -->
<g id="edge5" class="edge"><title>Node7&#45;&gt;Node1</title>
<path fill="none" stroke="#9a32cd" stroke-dasharray="5,2" d="M195.355,-236.606C253.345,-233.554 324.798,-229.793 377.978,-226.994"/>
<polygon fill="#9a32cd" stroke="#9a32cd" points="194.864,-233.127 185.062,-237.148 195.232,-240.117 194.864,-233.127"/>
<text text-anchor="middle" x="281.5" y="-238.967" font-family="Helvetica,sans-Serif" font-size="10.00"> audStreamingOutClass</text>
</g>
<!-- Node8 -->
<g id="node7" class="node"><title>Node8</title>
<g id="a_node7"><a xlink:href="struct___a_u_d_endpoint_descriptor.xhtml" target="_top" xlink:title="_AUDEndpointDescriptor">
<polygon fill="white" stroke="black" points="25,-194.467 25,-213.467 160,-213.467 160,-194.467 25,-194.467"/>
<text text-anchor="middle" x="92.5" y="-201.467" font-family="Helvetica,sans-Serif" font-size="10.00">_AUDEndpointDescriptor</text>
</a>
</g>
</g>
<!-- Node8&#45;&gt;Node1 -->
<g id="edge6" class="edge"><title>Node8&#45;&gt;Node1</title>
<path fill="none" stroke="#9a32cd" stroke-dasharray="5,2" d="M170.144,-205.676C223.434,-207.15 296.092,-209.728 360,-213.967 365.838,-214.354 371.874,-214.807 377.941,-215.3"/>
<polygon fill="#9a32cd" stroke="#9a32cd" points="170.18,-202.176 160.089,-205.405 169.991,-209.173 170.18,-202.176"/>
<text text-anchor="middle" x="281.5" y="-216.967" font-family="Helvetica,sans-Serif" font-size="10.00"> audStreamingOutEndpoint</text>
</g>
<!-- Node9 -->
<g id="node8" class="node"><title>Node9</title>
<g id="a_node8"><a xlink:href="struct___a_u_d_d_speaker_driver_audio_control_descriptors.xhtml" target="_top" xlink:title="List of descriptors for detailing the audio control interface of a device using a USB audio speaker d...">
<polygon fill="white" stroke="red" points="2,-144.967 2,-174.967 183,-174.967 183,-144.967 2,-144.967"/>
<text text-anchor="start" x="10" y="-162.967" font-family="Helvetica,sans-Serif" font-size="10.00">_AUDDSpeakerDriverAudioControl</text>
<text text-anchor="middle" x="92.5" y="-151.967" font-family="Helvetica,sans-Serif" font-size="10.00">Descriptors</text>
</a>
</g>
</g>
<!-- Node9&#45;&gt;Node1 -->
<g id="edge7" class="edge"><title>Node9&#45;&gt;Node1</title>
<path fill="none" stroke="#9a32cd" stroke-dasharray="5,2" d="M193.318,-167.244C243.696,-172.104 305.521,-179.885 360,-191.967 378.205,-196.004 397.869,-202.152 414.52,-207.912"/>
<polygon fill="#9a32cd" stroke="#9a32cd" points="193.359,-163.733 183.075,-166.281 192.704,-170.702 193.359,-163.733"/>
<text text-anchor="middle" x="281.5" y="-194.967" font-family="Helvetica,sans-Serif" font-size="10.00"> audControl</text>
</g>
<!-- Node16 -->
<g id="node9" class="node"><title>Node16</title>
<g id="a_node9"><a xlink:href="struct___u_s_b_configuration_descriptor.xhtml" target="_top" xlink:title="_USBConfigurationDescriptor">
<polygon fill="white" stroke="black" points="14.5,-106.467 14.5,-125.467 170.5,-125.467 170.5,-106.467 14.5,-106.467"/>
<text text-anchor="middle" x="92.5" y="-113.467" font-family="Helvetica,sans-Serif" font-size="10.00">_USBConfigurationDescriptor</text>
</a>
</g>
</g>
<!-- Node16&#45;&gt;Node1 -->
<g id="edge8" class="edge"><title>Node16&#45;&gt;Node1</title>
<path fill="none" stroke="#9a32cd" stroke-dasharray="5,2" d="M180.862,-117.762C234.282,-121.423 303.058,-130.816 360,-153.967 391.05,-166.591 421.332,-191.606 438.937,-207.794"/>
<polygon fill="#9a32cd" stroke="#9a32cd" points="180.932,-114.26 170.732,-117.123 180.492,-121.246 180.932,-114.26"/>
<text text-anchor="middle" x="281.5" y="-156.967" font-family="Helvetica,sans-Serif" font-size="10.00"> configuration</text>
</g>
<!-- Node17 -->
<g id="node10" class="node"><title>Node17</title>
<g id="a_node10"><a xlink:href="struct___u_s_b_interface_descriptor.xhtml" target="_top" xlink:title="_USBInterfaceDescriptor">
<polygon fill="white" stroke="black" points="25.5,-54.4667 25.5,-73.4667 159.5,-73.4667 159.5,-54.4667 25.5,-54.4667"/>
<text text-anchor="middle" x="92.5" y="-61.4667" font-family="Helvetica,sans-Serif" font-size="10.00">_USBInterfaceDescriptor</text>
</a>
</g>
</g>
<!-- Node17&#45;&gt;Node1 -->
<g id="edge9" class="edge"><title>Node17&#45;&gt;Node1</title>
<path fill="none" stroke="#9a32cd" stroke-dasharray="5,2" d="M142.369,-52.4437C198.808,-41.9236 292.529,-33.2634 360,-71.9667 413.115,-102.435 440.598,-176.102 450.325,-207.918"/>
<polygon fill="#9a32cd" stroke="#9a32cd" points="141.421,-49.0629 132.279,-54.4187 142.765,-55.9325 141.421,-49.0629"/>
<text text-anchor="middle" x="281.5" y="-107.967" font-family="Helvetica,sans-Serif" font-size="10.00"> audStreamingOut</text>
<text text-anchor="middle" x="281.5" y="-96.9667" font-family="Helvetica,sans-Serif" font-size="10.00">audInterface</text>
<text text-anchor="middle" x="281.5" y="-85.9667" font-family="Helvetica,sans-Serif" font-size="10.00">hidInterface</text>
<text text-anchor="middle" x="281.5" y="-74.9667" font-family="Helvetica,sans-Serif" font-size="10.00">audStreamingOutNoIsochronous</text>
</g>
<!-- Node18 -->
<g id="node11" class="node"><title>Node18</title>
<g id="a_node11"><a xlink:href="struct___a_u_d_data_endpoint_descriptor.xhtml" target="_top" xlink:title="_AUDDataEndpointDescriptor">
<polygon fill="white" stroke="black" points="13.5,-16.4667 13.5,-35.4667 171.5,-35.4667 171.5,-16.4667 13.5,-16.4667"/>
<text text-anchor="middle" x="92.5" y="-23.4667" font-family="Helvetica,sans-Serif" font-size="10.00">_AUDDataEndpointDescriptor</text>
</a>
</g>
</g>
<!-- Node18&#45;&gt;Node1 -->
<g id="edge10" class="edge"><title>Node18&#45;&gt;Node1</title>
<path fill="none" stroke="#9a32cd" stroke-dasharray="5,2" d="M135.111,-13.9108C190.984,-0.331241 291.177,14.6036 360,-28.9667 424.891,-70.0472 446.453,-169.737 452.469,-207.827"/>
<polygon fill="#9a32cd" stroke="#9a32cd" points="134.047,-10.5696 125.212,-16.4162 135.765,-17.3556 134.047,-10.5696"/>
<text text-anchor="middle" x="281.5" y="-31.9667" font-family="Helvetica,sans-Serif" font-size="10.00"> audStreamingOutDataEndpoint</text>
</g>
</g>
</svg>
