<?xml version="1.0" encoding="UTF-8" standalone="no"?>
<!DOCTYPE svg PUBLIC "-//W3C//DTD SVG 1.1//EN"
 "http://www.w3.org/Graphics/SVG/1.1/DTD/svg11.dtd">
<!-- Generated by graphviz version 2.38.0 (20140413.2041)
 -->
<!-- Title: RadarTaskParameters_t Pages: 1 -->
<svg width="178pt" height="95pt"
 viewBox="0.00 0.00 177.50 95.00" xmlns="http://www.w3.org/2000/svg" xmlns:xlink="http://www.w3.org/1999/xlink">
<g id="graph0" class="graph" transform="scale(1 1) rotate(0) translate(4 91)">
<title>RadarTaskParameters_t</title>
<polygon fill="white" stroke="none" points="-4,4 -4,-91 173.5,-91 173.5,4 -4,4"/>
<!-- Node1 -->
<g id="node1" class="node"><title>Node1</title>
<polygon fill="#bfbfbf" stroke="black" points="15.5,-0.5 15.5,-19.5 144.5,-19.5 144.5,-0.5 15.5,-0.5"/>
<text text-anchor="middle" x="80" y="-7.5" font-family="Helvetica,sans-Serif" font-size="10.00">RadarTaskParameters_t</text>
</g>
<!-- Node2 -->
<g id="node2" class="node"><title>Node2</title>
<g id="a_node2"><a xlink:href="struct_x4_driver__t.xhtml" target="_top" xlink:title="Contains all of the private variables for the X4Driver. ">
<polygon fill="white" stroke="red" points="0,-67.5 0,-86.5 66,-86.5 66,-67.5 0,-67.5"/>
<text text-anchor="middle" x="33" y="-74.5" font-family="Helvetica,sans-Serif" font-size="10.00">X4Driver_t</text>
</a>
</g>
</g>
<!-- Node2&#45;&gt;Node1 -->
<g id="edge1" class="edge"><title>Node2&#45;&gt;Node1</title>
<path fill="none" stroke="#9a32cd" stroke-dasharray="5,2" d="M45.3619,-58.9037C54.495,-46.2729 66.5478,-29.6041 73.7618,-19.6273"/>
<polygon fill="#9a32cd" stroke="#9a32cd" points="42.3619,-57.0795 39.3386,-67.2338 48.0344,-61.1811 42.3619,-57.0795"/>
<text text-anchor="middle" x="81" y="-41" font-family="Helvetica,sans-Serif" font-size="10.00"> x4driver</text>
</g>
<!-- Node6 -->
<g id="node3" class="node"><title>Node6</title>
<g id="a_node3"><a xlink:href="struct_xep_dispatch__t.xhtml" target="_top" xlink:title="XepDispatch_t">
<polygon fill="white" stroke="red" points="84.5,-67.5 84.5,-86.5 169.5,-86.5 169.5,-67.5 84.5,-67.5"/>
<text text-anchor="middle" x="127" y="-74.5" font-family="Helvetica,sans-Serif" font-size="10.00">XepDispatch_t</text>
</a>
</g>
</g>
<!-- Node6&#45;&gt;Node1 -->
<g id="edge2" class="edge"><title>Node6&#45;&gt;Node1</title>
<path fill="none" stroke="#9a32cd" stroke-dasharray="5,2" d="M117.865,-58.3634C114.176,-51.7697 109.684,-44.3459 105,-38 100.144,-31.4211 93.8938,-24.6711 88.8578,-19.5659"/>
<polygon fill="#9a32cd" stroke="#9a32cd" points="114.804,-60.0612 122.626,-67.2077 120.968,-56.7434 114.804,-60.0612"/>
<text text-anchor="middle" x="134" y="-41" font-family="Helvetica,sans-Serif" font-size="10.00"> dispatch</text>
</g>
</g>
</svg>
