<?xml version="1.0" encoding="UTF-8" standalone="no"?>
<!DOCTYPE svg PUBLIC "-//W3C//DTD SVG 1.1//EN"
 "http://www.w3.org/Graphics/SVG/1.1/DTD/svg11.dtd">
<!-- Generated by graphviz version 2.38.0 (20140413.2041)
 -->
<!-- Title: _HIDDMouseDriverConfigurationDescriptors Pages: 1 -->
<svg width="436pt" height="142pt"
 viewBox="0.00 0.00 436.00 142.00" xmlns="http://www.w3.org/2000/svg" xmlns:xlink="http://www.w3.org/1999/xlink">
<g id="graph0" class="graph" transform="scale(1 1) rotate(0) translate(4 138)">
<title>_HIDDMouseDriverConfigurationDescriptors</title>
<polygon fill="white" stroke="none" points="-4,4 -4,-138 432,-138 432,4 -4,4"/>
<!-- Node1 -->
<g id="node1" class="node"><title>Node1</title>
<polygon fill="#bfbfbf" stroke="black" points="258,-52 258,-82 428,-82 428,-52 258,-52"/>
<text text-anchor="start" x="266" y="-70" font-family="Helvetica,sans-Serif" font-size="10.00">_HIDDMouseDriverConfiguration</text>
<text text-anchor="middle" x="343" y="-59" font-family="Helvetica,sans-Serif" font-size="10.00">Descriptors</text>
</g>
<!-- Node2 -->
<g id="node2" class="node"><title>Node2</title>
<g id="a_node2"><a xlink:href="struct___h_i_d_descriptor1.xhtml" target="_top" xlink:title="_HIDDescriptor1">
<polygon fill="white" stroke="black" points="30.5,-114.5 30.5,-133.5 125.5,-133.5 125.5,-114.5 30.5,-114.5"/>
<text text-anchor="middle" x="78" y="-121.5" font-family="Helvetica,sans-Serif" font-size="10.00">_HIDDescriptor1</text>
</a>
</g>
</g>
<!-- Node2&#45;&gt;Node1 -->
<g id="edge1" class="edge"><title>Node2&#45;&gt;Node1</title>
<path fill="none" stroke="#9a32cd" stroke-dasharray="5,2" d="M135.809,-113.913C166.713,-108.211 205.558,-100.698 240,-93 254.803,-89.6914 270.729,-85.7951 285.494,-82.0401"/>
<polygon fill="#9a32cd" stroke="#9a32cd" points="134.856,-110.529 125.651,-115.774 136.118,-117.414 134.856,-110.529"/>
<text text-anchor="middle" x="207" y="-108" font-family="Helvetica,sans-Serif" font-size="10.00"> hid</text>
</g>
<!-- Node3 -->
<g id="node3" class="node"><title>Node3</title>
<g id="a_node3"><a xlink:href="struct___u_s_b_endpoint_descriptor.xhtml" target="_top" xlink:title="_USBEndpointDescriptor">
<polygon fill="white" stroke="black" points="11,-76.5 11,-95.5 145,-95.5 145,-76.5 11,-76.5"/>
<text text-anchor="middle" x="78" y="-83.5" font-family="Helvetica,sans-Serif" font-size="10.00">_USBEndpointDescriptor</text>
</a>
</g>
</g>
<!-- Node3&#45;&gt;Node1 -->
<g id="edge2" class="edge"><title>Node3&#45;&gt;Node1</title>
<path fill="none" stroke="#9a32cd" stroke-dasharray="5,2" d="M155.271,-80.4899C187.448,-78.1654 225.015,-75.4514 257.984,-73.0696"/>
<polygon fill="#9a32cd" stroke="#9a32cd" points="154.748,-77.0185 145.027,-81.23 155.253,-84.0003 154.748,-77.0185"/>
<text text-anchor="middle" x="207" y="-81" font-family="Helvetica,sans-Serif" font-size="10.00"> interruptIn</text>
</g>
<!-- Node4 -->
<g id="node4" class="node"><title>Node4</title>
<g id="a_node4"><a xlink:href="struct___u_s_b_configuration_descriptor.xhtml" target="_top" xlink:title="_USBConfigurationDescriptor">
<polygon fill="white" stroke="black" points="0,-38.5 0,-57.5 156,-57.5 156,-38.5 0,-38.5"/>
<text text-anchor="middle" x="78" y="-45.5" font-family="Helvetica,sans-Serif" font-size="10.00">_USBConfigurationDescriptor</text>
</a>
</g>
</g>
<!-- Node4&#45;&gt;Node1 -->
<g id="edge3" class="edge"><title>Node4&#45;&gt;Node1</title>
<path fill="none" stroke="#9a32cd" stroke-dasharray="5,2" d="M166.486,-53.8167C190.333,-55.446 216.162,-57.2509 240,-59 245.846,-59.429 251.88,-59.8802 257.956,-60.341"/>
<polygon fill="#9a32cd" stroke="#9a32cd" points="166.613,-50.3173 156.398,-53.1298 166.138,-57.3012 166.613,-50.3173"/>
<text text-anchor="middle" x="207" y="-62" font-family="Helvetica,sans-Serif" font-size="10.00"> configuration</text>
</g>
<!-- Node5 -->
<g id="node5" class="node"><title>Node5</title>
<g id="a_node5"><a xlink:href="struct___u_s_b_interface_descriptor.xhtml" target="_top" xlink:title="_USBInterfaceDescriptor">
<polygon fill="white" stroke="black" points="11,-0.5 11,-19.5 145,-19.5 145,-0.5 11,-0.5"/>
<text text-anchor="middle" x="78" y="-7.5" font-family="Helvetica,sans-Serif" font-size="10.00">_USBInterfaceDescriptor</text>
</a>
</g>
</g>
<!-- Node5&#45;&gt;Node1 -->
<g id="edge4" class="edge"><title>Node5&#45;&gt;Node1</title>
<path fill="none" stroke="#9a32cd" stroke-dasharray="5,2" d="M149.468,-21.2828C177.727,-26.174 210.522,-32.3132 240,-39 256.655,-42.7779 274.67,-47.5062 290.86,-51.9958"/>
<polygon fill="#9a32cd" stroke="#9a32cd" points="149.724,-17.7758 139.276,-19.5385 148.543,-24.6754 149.724,-17.7758"/>
<text text-anchor="middle" x="207" y="-42" font-family="Helvetica,sans-Serif" font-size="10.00"> interface</text>
</g>
</g>
</svg>
