<?xml version="1.0" encoding="UTF-8" standalone="no"?>
<!DOCTYPE svg PUBLIC "-//W3C//DTD SVG 1.1//EN"
 "http://www.w3.org/Graphics/SVG/1.1/DTD/svg11.dtd">
<!-- Generated by graphviz version 2.38.0 (20140413.2041)
 -->
<!-- Title: USBH_device_t Pages: 1 -->
<svg width="308pt" height="95pt"
 viewBox="0.00 0.00 307.50 95.00" xmlns="http://www.w3.org/2000/svg" xmlns:xlink="http://www.w3.org/1999/xlink">
<g id="graph0" class="graph" transform="scale(1 1) rotate(0) translate(4 91)">
<title>USBH_device_t</title>
<polygon fill="white" stroke="none" points="-4,4 -4,-91 303.5,-91 303.5,4 -4,4"/>
<!-- Node1 -->
<g id="node1" class="node"><title>Node1</title>
<polygon fill="#bfbfbf" stroke="black" points="96.5,-0.5 96.5,-19.5 186.5,-19.5 186.5,-0.5 96.5,-0.5"/>
<text text-anchor="middle" x="141.5" y="-7.5" font-family="Helvetica,sans-Serif" font-size="10.00">USBH_device_t</text>
</g>
<!-- Node2 -->
<g id="node2" class="node"><title>Node2</title>
<g id="a_node2"><a xlink:href="struct___u_s_b_device_descriptor.xhtml" target="_top" xlink:title="_USBDeviceDescriptor">
<polygon fill="white" stroke="black" points="0,-67.5 0,-86.5 125,-86.5 125,-67.5 0,-67.5"/>
<text text-anchor="middle" x="62.5" y="-74.5" font-family="Helvetica,sans-Serif" font-size="10.00">_USBDeviceDescriptor</text>
</a>
</g>
</g>
<!-- Node2&#45;&gt;Node1 -->
<g id="edge1" class="edge"><title>Node2&#45;&gt;Node1</title>
<path fill="none" stroke="#9a32cd" stroke-dasharray="5,2" d="M81.0791,-60.7134C96.6438,-47.907 118.3,-30.0884 131.015,-19.6273"/>
<polygon fill="#9a32cd" stroke="#9a32cd" points="78.6526,-58.1774 73.1543,-67.2338 83.1002,-63.5829 78.6526,-58.1774"/>
<text text-anchor="middle" x="132" y="-41" font-family="Helvetica,sans-Serif" font-size="10.00"> dev_desc</text>
</g>
<!-- Node3 -->
<g id="node3" class="node"><title>Node3</title>
<g id="a_node3"><a xlink:href="struct___u_s_b_configuration_descriptor.xhtml" target="_top" xlink:title="_USBConfigurationDescriptor">
<polygon fill="white" stroke="black" points="143.5,-67.5 143.5,-86.5 299.5,-86.5 299.5,-67.5 143.5,-67.5"/>
<text text-anchor="middle" x="221.5" y="-74.5" font-family="Helvetica,sans-Serif" font-size="10.00">_USBConfigurationDescriptor</text>
</a>
</g>
</g>
<!-- Node3&#45;&gt;Node1 -->
<g id="edge2" class="edge"><title>Node3&#45;&gt;Node1</title>
<path fill="none" stroke="#9a32cd" stroke-dasharray="5,2" d="M202.686,-60.7134C186.924,-47.907 164.993,-30.0884 152.118,-19.6273"/>
<polygon fill="#9a32cd" stroke="#9a32cd" points="200.743,-63.6443 210.711,-67.2338 205.157,-58.2114 200.743,-63.6443"/>
<text text-anchor="middle" x="212.5" y="-41" font-family="Helvetica,sans-Serif" font-size="10.00"> conf_desc</text>
</g>
</g>
</svg>
