<?xml version="1.0" encoding="UTF-8" standalone="no"?>
<!DOCTYPE svg PUBLIC "-//W3C//DTD SVG 1.1//EN"
 "http://www.w3.org/Graphics/SVG/1.1/DTD/svg11.dtd">
<!-- Generated by graphviz version 2.38.0 (20140413.2041)
 -->
<!-- Title: _MSDDriver Pages: 1 -->
<svg width="299pt" height="95pt"
 viewBox="0.00 0.00 299.00 95.00" xmlns="http://www.w3.org/2000/svg" xmlns:xlink="http://www.w3.org/1999/xlink">
<g id="graph0" class="graph" transform="scale(1 1) rotate(0) translate(4 91)">
<title>_MSDDriver</title>
<polygon fill="white" stroke="none" points="-4,4 -4,-91 295,-91 295,4 -4,4"/>
<!-- Node1 -->
<g id="node1" class="node"><title>Node1</title>
<polygon fill="#bfbfbf" stroke="black" points="88,-0.5 88,-19.5 161,-19.5 161,-0.5 88,-0.5"/>
<text text-anchor="middle" x="124.5" y="-7.5" font-family="Helvetica,sans-Serif" font-size="10.00">_MSDDriver</text>
</g>
<!-- Node2 -->
<g id="node2" class="node"><title>Node2</title>
<g id="a_node2"><a xlink:href="struct___u_s_b_d_driver.xhtml" target="_top" xlink:title="_USBDDriver">
<polygon fill="white" stroke="red" points="0,-67.5 0,-86.5 79,-86.5 79,-67.5 0,-67.5"/>
<text text-anchor="middle" x="39.5" y="-74.5" font-family="Helvetica,sans-Serif" font-size="10.00">_USBDDriver</text>
</a>
</g>
</g>
<!-- Node2&#45;&gt;Node1 -->
<g id="edge1" class="edge"><title>Node2&#45;&gt;Node1</title>
<path fill="none" stroke="#9a32cd" stroke-dasharray="5,2" d="M57.7053,-60.8432C66.3331,-53.7736 76.8433,-45.3233 86.5,-38 94.8829,-31.6427 104.551,-24.7795 112.038,-19.5635"/>
<polygon fill="#9a32cd" stroke="#9a32cd" points="55.2927,-58.2962 49.8062,-67.3598 59.7474,-63.6959 55.2927,-58.2962"/>
<text text-anchor="middle" x="103.5" y="-41" font-family="Helvetica,sans-Serif" font-size="10.00"> pUsbd</text>
</g>
<!-- Node7 -->
<g id="node3" class="node"><title>Node7</title>
<g id="a_node3"><a xlink:href="struct_m_s_d_lun.xhtml" target="_top" xlink:title="LUN structure. ">
<polygon fill="white" stroke="red" points="96.5,-67.5 96.5,-86.5 152.5,-86.5 152.5,-67.5 96.5,-67.5"/>
<text text-anchor="middle" x="124.5" y="-74.5" font-family="Helvetica,sans-Serif" font-size="10.00">MSDLun</text>
</a>
</g>
</g>
<!-- Node7&#45;&gt;Node1 -->
<g id="edge2" class="edge"><title>Node7&#45;&gt;Node1</title>
<path fill="none" stroke="#9a32cd" stroke-dasharray="5,2" d="M124.5,-57.037C124.5,-44.6703 124.5,-29.1198 124.5,-19.6273"/>
<polygon fill="#9a32cd" stroke="#9a32cd" points="121,-57.2338 124.5,-67.2338 128,-57.2338 121,-57.2338"/>
<text text-anchor="middle" x="136" y="-41" font-family="Helvetica,sans-Serif" font-size="10.00"> luns</text>
</g>
<!-- Node12 -->
<g id="node4" class="node"><title>Node12</title>
<g id="a_node4"><a xlink:href="struct___m_s_d_command_state.xhtml" target="_top" xlink:title="_MSDCommandState">
<polygon fill="white" stroke="red" points="170,-67.5 170,-86.5 291,-86.5 291,-67.5 170,-67.5"/>
<text text-anchor="middle" x="230.5" y="-74.5" font-family="Helvetica,sans-Serif" font-size="10.00">_MSDCommandState</text>
</a>
</g>
</g>
<!-- Node12&#45;&gt;Node1 -->
<g id="edge3" class="edge"><title>Node12&#45;&gt;Node1</title>
<path fill="none" stroke="#9a32cd" stroke-dasharray="5,2" d="M207.575,-61.9422C186.583,-49.0696 156.182,-30.4274 138.569,-19.6273"/>
<polygon fill="#9a32cd" stroke="#9a32cd" points="205.85,-64.99 216.204,-67.2338 209.509,-59.0226 205.85,-64.99"/>
<text text-anchor="middle" x="223" y="-41" font-family="Helvetica,sans-Serif" font-size="10.00"> commandState</text>
</g>
</g>
</svg>
