<?xml version="1.0" encoding="UTF-8" standalone="no"?>
<!DOCTYPE svg PUBLIC "-//W3C//DTD SVG 1.1//EN"
 "http://www.w3.org/Graphics/SVG/1.1/DTD/svg11.dtd">
<!-- Generated by graphviz version 2.38.0 (20140413.2041)
 -->
<!-- Title: _CDCDEEMDriverConfigurationDescriptors Pages: 1 -->
<svg width="468pt" height="117pt"
 viewBox="0.00 0.00 468.00 117.00" xmlns="http://www.w3.org/2000/svg" xmlns:xlink="http://www.w3.org/1999/xlink">
<g id="graph0" class="graph" transform="scale(1 1) rotate(0) translate(4 113)">
<title>_CDCDEEMDriverConfigurationDescriptors</title>
<polygon fill="white" stroke="none" points="-4,4 -4,-113 464,-113 464,4 -4,4"/>
<!-- Node1 -->
<g id="node1" class="node"><title>Node1</title>
<polygon fill="#bfbfbf" stroke="black" points="148.5,-0.5 148.5,-30.5 311.5,-30.5 311.5,-0.5 148.5,-0.5"/>
<text text-anchor="start" x="156.5" y="-18.5" font-family="Helvetica,sans-Serif" font-size="10.00">_CDCDEEMDriverConfiguration</text>
<text text-anchor="middle" x="230" y="-7.5" font-family="Helvetica,sans-Serif" font-size="10.00">Descriptors</text>
</g>
<!-- Node2 -->
<g id="node2" class="node"><title>Node2</title>
<g id="a_node2"><a xlink:href="struct___u_s_b_endpoint_descriptor.xhtml" target="_top" xlink:title="_USBEndpointDescriptor">
<polygon fill="white" stroke="black" points="0,-89.5 0,-108.5 134,-108.5 134,-89.5 0,-89.5"/>
<text text-anchor="middle" x="67" y="-96.5" font-family="Helvetica,sans-Serif" font-size="10.00">_USBEndpointDescriptor</text>
</a>
</g>
</g>
<!-- Node2&#45;&gt;Node1 -->
<g id="edge1" class="edge"><title>Node2&#45;&gt;Node1</title>
<path fill="none" stroke="#9a32cd" stroke-dasharray="5,2" d="M93.1011,-84.9494C122.886,-70.0569 171.415,-45.7926 201.979,-30.5107"/>
<polygon fill="#9a32cd" stroke="#9a32cd" points="91.5148,-81.8294 84.1358,-89.4321 94.6453,-88.0904 91.5148,-81.8294"/>
<text text-anchor="middle" x="185.5" y="-63" font-family="Helvetica,sans-Serif" font-size="10.00"> dataOut</text>
<text text-anchor="middle" x="185.5" y="-52" font-family="Helvetica,sans-Serif" font-size="10.00">dataIn</text>
</g>
<!-- Node3 -->
<g id="node3" class="node"><title>Node3</title>
<g id="a_node3"><a xlink:href="struct___u_s_b_configuration_descriptor.xhtml" target="_top" xlink:title="_USBConfigurationDescriptor">
<polygon fill="white" stroke="black" points="152,-89.5 152,-108.5 308,-108.5 308,-89.5 152,-89.5"/>
<text text-anchor="middle" x="230" y="-96.5" font-family="Helvetica,sans-Serif" font-size="10.00">_USBConfigurationDescriptor</text>
</a>
</g>
</g>
<!-- Node3&#45;&gt;Node1 -->
<g id="edge2" class="edge"><title>Node3&#45;&gt;Node1</title>
<path fill="none" stroke="#9a32cd" stroke-dasharray="5,2" d="M230,-79.229C230,-64.4075 230,-44.0505 230,-30.5974"/>
<polygon fill="#9a32cd" stroke="#9a32cd" points="226.5,-79.278 230,-89.2781 233.5,-79.2781 226.5,-79.278"/>
<text text-anchor="middle" x="263" y="-57.5" font-family="Helvetica,sans-Serif" font-size="10.00"> configuration</text>
</g>
<!-- Node4 -->
<g id="node4" class="node"><title>Node4</title>
<g id="a_node4"><a xlink:href="struct___u_s_b_interface_descriptor.xhtml" target="_top" xlink:title="_USBInterfaceDescriptor">
<polygon fill="white" stroke="black" points="326,-89.5 326,-108.5 460,-108.5 460,-89.5 326,-89.5"/>
<text text-anchor="middle" x="393" y="-96.5" font-family="Helvetica,sans-Serif" font-size="10.00">_USBInterfaceDescriptor</text>
</a>
</g>
</g>
<!-- Node4&#45;&gt;Node1 -->
<g id="edge3" class="edge"><title>Node4&#45;&gt;Node1</title>
<path fill="none" stroke="#9a32cd" stroke-dasharray="5,2" d="M368.331,-84.5694C349.688,-74.5254 323.397,-60.5861 300,-49 287.392,-42.7568 273.351,-36.1676 261.173,-30.5664"/>
<polygon fill="#9a32cd" stroke="#9a32cd" points="366.866,-87.7562 377.327,-89.4336 370.195,-81.5986 366.866,-87.7562"/>
<text text-anchor="middle" x="380" y="-57.5" font-family="Helvetica,sans-Serif" font-size="10.00"> communication</text>
</g>
</g>
</svg>
