<?xml version="1.0" encoding="UTF-8" standalone="no"?>
<!DOCTYPE svg PUBLIC "-//W3C//DTD SVG 1.1//EN"
 "http://www.w3.org/Graphics/SVG/1.1/DTD/svg11.dtd">
<!-- Generated by graphviz version 2.38.0 (20140413.2041)
 -->
<!-- Title: Qspid_t Pages: 1 -->
<svg width="364pt" height="95pt"
 viewBox="0.00 0.00 363.50 95.00" xmlns="http://www.w3.org/2000/svg" xmlns:xlink="http://www.w3.org/1999/xlink">
<g id="graph0" class="graph" transform="scale(1 1) rotate(0) translate(4 91)">
<title>Qspid_t</title>
<polygon fill="white" stroke="none" points="-4,4 -4,-91 359.5,-91 359.5,4 -4,4"/>
<!-- Node1 -->
<g id="node1" class="node"><title>Node1</title>
<polygon fill="#bfbfbf" stroke="black" points="160.5,-0.5 160.5,-19.5 213.5,-19.5 213.5,-0.5 160.5,-0.5"/>
<text text-anchor="middle" x="187" y="-7.5" font-family="Helvetica,sans-Serif" font-size="10.00">Qspid_t</text>
</g>
<!-- Node2 -->
<g id="node2" class="node"><title>Node2</title>
<g id="a_node2"><a xlink:href="struct_qspi_inst_frame__t.xhtml" target="_top" xlink:title="qspi frame structure for QSPI mode ">
<polygon fill="white" stroke="red" points="0,-67.5 0,-86.5 94,-86.5 94,-67.5 0,-67.5"/>
<text text-anchor="middle" x="47" y="-74.5" font-family="Helvetica,sans-Serif" font-size="10.00">QspiInstFrame_t</text>
</a>
</g>
</g>
<!-- Node2&#45;&gt;Node1 -->
<g id="edge1" class="edge"><title>Node2&#45;&gt;Node1</title>
<path fill="none" stroke="#9a32cd" stroke-dasharray="5,2" d="M59.3074,-59.2282C65.6169,-51.7257 73.8875,-43.3786 83,-38 106.936,-23.8719 138.24,-17.0433 160.227,-13.8031"/>
<polygon fill="#9a32cd" stroke="#9a32cd" points="56.2971,-57.3943 52.8687,-67.4191 61.8004,-61.7203 56.2971,-57.3943"/>
<text text-anchor="middle" x="113.5" y="-41" font-family="Helvetica,sans-Serif" font-size="10.00"> pQspiFrame</text>
</g>
<!-- Node5 -->
<g id="node3" class="node"><title>Node5</title>
<g id="a_node3"><a xlink:href="struct_qspi_buffer__t.xhtml" target="_top" xlink:title="qspi buffer structure ">
<polygon fill="white" stroke="black" points="112.5,-67.5 112.5,-86.5 187.5,-86.5 187.5,-67.5 112.5,-67.5"/>
<text text-anchor="middle" x="150" y="-74.5" font-family="Helvetica,sans-Serif" font-size="10.00">QspiBuffer_t</text>
</a>
</g>
</g>
<!-- Node5&#45;&gt;Node1 -->
<g id="edge2" class="edge"><title>Node5&#45;&gt;Node1</title>
<path fill="none" stroke="#9a32cd" stroke-dasharray="5,2" d="M147.279,-56.9119C147.198,-50.5911 148.047,-43.7169 151,-38 155.016,-30.2259 162.408,-24.0862 169.454,-19.6388"/>
<polygon fill="#9a32cd" stroke="#9a32cd" points="143.831,-57.6592 148.176,-67.3221 150.805,-57.0587 143.831,-57.6592"/>
<text text-anchor="middle" x="177" y="-41" font-family="Helvetica,sans-Serif" font-size="10.00"> qspiBuffer</text>
</g>
<!-- Node6 -->
<g id="node4" class="node"><title>Node6</title>
<g id="a_node4"><a xlink:href="struct_qspi.xhtml" target="_top" xlink:title="Qspi hardware registers. ">
<polygon fill="white" stroke="black" points="206,-67.5 206,-86.5 244,-86.5 244,-67.5 206,-67.5"/>
<text text-anchor="middle" x="225" y="-74.5" font-family="Helvetica,sans-Serif" font-size="10.00">Qspi</text>
</a>
</g>
</g>
<!-- Node6&#45;&gt;Node1 -->
<g id="edge3" class="edge"><title>Node6&#45;&gt;Node1</title>
<path fill="none" stroke="#9a32cd" stroke-dasharray="5,2" d="M214.713,-58.1449C211.032,-51.7788 206.843,-44.5613 203,-38 199.475,-31.982 195.475,-25.232 192.356,-19.9865"/>
<polygon fill="#9a32cd" stroke="#9a32cd" points="211.927,-60.32 219.957,-67.2314 217.99,-56.8208 211.927,-60.32"/>
<text text-anchor="middle" x="232.5" y="-41" font-family="Helvetica,sans-Serif" font-size="10.00"> pQspiHw</text>
</g>
<!-- Node7 -->
<g id="node5" class="node"><title>Node7</title>
<g id="a_node5"><a xlink:href="struct_qspi_mem_cmd__t.xhtml" target="_top" xlink:title="qspi command structure ">
<polygon fill="white" stroke="black" points="262.5,-67.5 262.5,-86.5 355.5,-86.5 355.5,-67.5 262.5,-67.5"/>
<text text-anchor="middle" x="309" y="-74.5" font-family="Helvetica,sans-Serif" font-size="10.00">QspiMemCmd_t</text>
</a>
</g>
</g>
<!-- Node7&#45;&gt;Node1 -->
<g id="edge4" class="edge"><title>Node7&#45;&gt;Node1</title>
<path fill="none" stroke="#9a32cd" stroke-dasharray="5,2" d="M291.58,-60.7555C282.346,-53.2083 270.547,-44.3732 259,-38 244.741,-30.1299 227.72,-23.629 213.809,-18.9796"/>
<polygon fill="#9a32cd" stroke="#9a32cd" points="289.354,-63.4563 299.259,-67.217 293.861,-58.1003 289.354,-63.4563"/>
<text text-anchor="middle" x="312.5" y="-41" font-family="Helvetica,sans-Serif" font-size="10.00"> qspiCommand</text>
</g>
</g>
</svg>
