<?xml version="1.0" encoding="UTF-8" standalone="no"?>
<!DOCTYPE svg PUBLIC "-//W3C//DTD SVG 1.1//EN"
 "http://www.w3.org/Graphics/SVG/1.1/DTD/svg11.dtd">
<!-- Generated by graphviz version 2.38.0 (20140413.2041)
 -->
<!-- Title: _CdcAuddDriverConfigurationDescriptors Pages: 1 -->
<svg width="554pt" height="621pt"
 viewBox="0.00 0.00 554.00 620.72" xmlns="http://www.w3.org/2000/svg" xmlns:xlink="http://www.w3.org/1999/xlink">
<g id="graph0" class="graph" transform="scale(1 1) rotate(0) translate(4 616.725)">
<title>_CdcAuddDriverConfigurationDescriptors</title>
<polygon fill="white" stroke="none" points="-4,4 -4,-616.725 550,-616.725 550,4 -4,4"/>
<!-- Node1 -->
<g id="node1" class="node"><title>Node1</title>
<polygon fill="#bfbfbf" stroke="black" points="389,-306.725 389,-336.725 546,-336.725 546,-306.725 389,-306.725"/>
<text text-anchor="start" x="397" y="-324.725" font-family="Helvetica,sans-Serif" font-size="10.00">_CdcAuddDriverConfiguration</text>
<text text-anchor="middle" x="467.5" y="-313.725" font-family="Helvetica,sans-Serif" font-size="10.00">Descriptors</text>
</g>
<!-- Node2 -->
<g id="node2" class="node"><title>Node2</title>
<g id="a_node2"><a xlink:href="struct___c_d_c_union_descriptor.xhtml" target="_top" xlink:title="_CDCUnionDescriptor">
<polygon fill="white" stroke="black" points="34,-575.225 34,-594.225 154,-594.225 154,-575.225 34,-575.225"/>
<text text-anchor="middle" x="94" y="-582.225" font-family="Helvetica,sans-Serif" font-size="10.00">_CDCUnionDescriptor</text>
</a>
</g>
</g>
<!-- Node2&#45;&gt;Node1 -->
<g id="edge1" class="edge"><title>Node2&#45;&gt;Node1</title>
<path fill="none" stroke="#9a32cd" stroke-dasharray="5,2" d="M148.639,-595.924C208.841,-605.274 306.505,-610.397 371,-562.725 447.003,-506.547 462.577,-380.364 465.72,-336.831"/>
<polygon fill="#9a32cd" stroke="#9a32cd" points="149.017,-592.439 138.581,-594.268 147.88,-599.346 149.017,-592.439"/>
<text text-anchor="middle" x="288.5" y="-604.725" font-family="Helvetica,sans-Serif" font-size="10.00"> cdcUnion0</text>
</g>
<!-- Node3 -->
<g id="node3" class="node"><title>Node3</title>
<g id="a_node3"><a xlink:href="struct___a_u_d_d_speaker_phone_ac_descriptors.xhtml" target="_top" xlink:title="List of descriptors for detailing the audio control interface of a device using a USB Audio Speakerph...">
<polygon fill="white" stroke="red" points="0,-537.225 0,-556.225 188,-556.225 188,-537.225 0,-537.225"/>
<text text-anchor="middle" x="94" y="-544.225" font-family="Helvetica,sans-Serif" font-size="10.00">_AUDDSpeakerPhoneAcDescriptors</text>
</a>
</g>
</g>
<!-- Node3&#45;&gt;Node1 -->
<g id="edge2" class="edge"><title>Node3&#45;&gt;Node1</title>
<path fill="none" stroke="#9a32cd" stroke-dasharray="5,2" d="M198.235,-548.213C264.681,-547.219 343.569,-541.774 371,-522.725 436.211,-477.439 458.266,-375.337 464.43,-336.817"/>
<polygon fill="#9a32cd" stroke="#9a32cd" points="198.067,-544.715 188.109,-548.333 198.149,-551.715 198.067,-544.715"/>
<text text-anchor="middle" x="288.5" y="-550.725" font-family="Helvetica,sans-Serif" font-size="10.00"> audControl</text>
</g>
<!-- Node10 -->
<g id="node4" class="node"><title>Node10</title>
<g id="a_node4"><a xlink:href="struct___u_s_b_interface_association_descriptor.xhtml" target="_top" xlink:title="_USBInterfaceAssociation\lDescriptor">
<polygon fill="white" stroke="black" points="24,-486.725 24,-516.725 164,-516.725 164,-486.725 24,-486.725"/>
<text text-anchor="start" x="32" y="-504.725" font-family="Helvetica,sans-Serif" font-size="10.00">_USBInterfaceAssociation</text>
<text text-anchor="middle" x="94" y="-493.725" font-family="Helvetica,sans-Serif" font-size="10.00">Descriptor</text>
</a>
</g>
</g>
<!-- Node10&#45;&gt;Node1 -->
<g id="edge3" class="edge"><title>Node10&#45;&gt;Node1</title>
<path fill="none" stroke="#9a32cd" stroke-dasharray="5,2" d="M174.323,-499.073C249.904,-495.956 354.562,-489.879 371,-479.725 425.265,-446.205 452.872,-369.325 462.476,-336.75"/>
<polygon fill="#9a32cd" stroke="#9a32cd" points="174.181,-495.575 164.329,-499.474 174.462,-502.57 174.181,-495.575"/>
<text text-anchor="middle" x="288.5" y="-510.725" font-family="Helvetica,sans-Serif" font-size="10.00"> audIAD</text>
<text text-anchor="middle" x="288.5" y="-499.725" font-family="Helvetica,sans-Serif" font-size="10.00">cdcIAD0</text>
</g>
<!-- Node11 -->
<g id="node5" class="node"><title>Node11</title>
<g id="a_node5"><a xlink:href="struct___u_s_b_endpoint_descriptor.xhtml" target="_top" xlink:title="_USBEndpointDescriptor">
<polygon fill="white" stroke="black" points="27,-438.225 27,-457.225 161,-457.225 161,-438.225 27,-438.225"/>
<text text-anchor="middle" x="94" y="-445.225" font-family="Helvetica,sans-Serif" font-size="10.00">_USBEndpointDescriptor</text>
</a>
</g>
</g>
<!-- Node11&#45;&gt;Node1 -->
<g id="edge4" class="edge"><title>Node11&#45;&gt;Node1</title>
<path fill="none" stroke="#9a32cd" stroke-dasharray="5,2" d="M171.308,-446.809C240.587,-444.902 336.964,-439.244 371,-422.725 410.73,-403.442 442.459,-360.117 457.324,-336.975"/>
<polygon fill="#9a32cd" stroke="#9a32cd" points="171.202,-443.31 161.294,-447.064 171.38,-450.308 171.202,-443.31"/>
<text text-anchor="middle" x="288.5" y="-470.725" font-family="Helvetica,sans-Serif" font-size="10.00"> cdcDataIn0</text>
<text text-anchor="middle" x="288.5" y="-459.725" font-family="Helvetica,sans-Serif" font-size="10.00">cdcNotification0</text>
<text text-anchor="middle" x="288.5" y="-448.725" font-family="Helvetica,sans-Serif" font-size="10.00">cdcDataOut0</text>
</g>
<!-- Node12 -->
<g id="node6" class="node"><title>Node12</title>
<g id="a_node6"><a xlink:href="struct___c_d_c_call_management_descriptor.xhtml" target="_top" xlink:title="_CDCCallManagementDescriptor">
<polygon fill="white" stroke="black" points="7.5,-400.225 7.5,-419.225 180.5,-419.225 180.5,-400.225 7.5,-400.225"/>
<text text-anchor="middle" x="94" y="-407.225" font-family="Helvetica,sans-Serif" font-size="10.00">_CDCCallManagementDescriptor</text>
</a>
</g>
</g>
<!-- Node12&#45;&gt;Node1 -->
<g id="edge5" class="edge"><title>Node12&#45;&gt;Node1</title>
<path fill="none" stroke="#9a32cd" stroke-dasharray="5,2" d="M190.729,-407.805C256.97,-405.463 338.779,-400.263 371,-388.725 402.462,-377.459 433.04,-352.882 450.804,-336.834"/>
<polygon fill="#9a32cd" stroke="#9a32cd" points="190.536,-404.31 180.659,-408.144 190.771,-411.306 190.536,-404.31"/>
<text text-anchor="middle" x="288.5" y="-410.725" font-family="Helvetica,sans-Serif" font-size="10.00"> cdcCallManagement0</text>
</g>
<!-- Node13 -->
<g id="node7" class="node"><title>Node13</title>
<g id="a_node7"><a xlink:href="struct___a_u_d_format_type_one_descriptor1.xhtml" target="_top" xlink:title="Format type I descriptor with one discrete sampling frequency. ">
<polygon fill="white" stroke="red" points="7,-357.225 7,-376.225 181,-376.225 181,-357.225 7,-357.225"/>
<text text-anchor="middle" x="94" y="-364.225" font-family="Helvetica,sans-Serif" font-size="10.00">_AUDFormatTypeOneDescriptor1</text>
</a>
</g>
</g>
<!-- Node13&#45;&gt;Node1 -->
<g id="edge6" class="edge"><title>Node13&#45;&gt;Node1</title>
<path fill="none" stroke="#9a32cd" stroke-dasharray="5,2" d="M191.304,-362.758C244.524,-359.638 311.687,-354.171 371,-344.725 383.884,-342.673 397.596,-339.794 410.49,-336.764"/>
<polygon fill="#9a32cd" stroke="#9a32cd" points="190.979,-359.271 181.194,-363.333 191.376,-366.26 190.979,-359.271"/>
<text text-anchor="middle" x="288.5" y="-376.725" font-family="Helvetica,sans-Serif" font-size="10.00"> streamingInFormatType</text>
<text text-anchor="middle" x="288.5" y="-365.725" font-family="Helvetica,sans-Serif" font-size="10.00">audStreamingOutFormatType</text>
</g>
<!-- Node15 -->
<g id="node8" class="node"><title>Node15</title>
<g id="a_node8"><a xlink:href="struct___a_u_d_streaming_interface_descriptor.xhtml" target="_top" xlink:title="_AUDStreamingInterfaceDescriptor">
<polygon fill="white" stroke="black" points="1.5,-312.225 1.5,-331.225 186.5,-331.225 186.5,-312.225 1.5,-312.225"/>
<text text-anchor="middle" x="94" y="-319.225" font-family="Helvetica,sans-Serif" font-size="10.00">_AUDStreamingInterfaceDescriptor</text>
</a>
</g>
</g>
<!-- Node15&#45;&gt;Node1 -->
<g id="edge7" class="edge"><title>Node15&#45;&gt;Node1</title>
<path fill="none" stroke="#9a32cd" stroke-dasharray="5,2" d="M197.183,-321.725C257.732,-321.725 333.247,-321.725 388.894,-321.725"/>
<polygon fill="#9a32cd" stroke="#9a32cd" points="196.832,-318.225 186.831,-321.725 196.831,-325.225 196.832,-318.225"/>
<text text-anchor="middle" x="288.5" y="-335.725" font-family="Helvetica,sans-Serif" font-size="10.00"> audStreamingOutClass</text>
<text text-anchor="middle" x="288.5" y="-324.725" font-family="Helvetica,sans-Serif" font-size="10.00">streamingInClass</text>
</g>
<!-- Node16 -->
<g id="node9" class="node"><title>Node16</title>
<g id="a_node9"><a xlink:href="struct___a_u_d_endpoint_descriptor.xhtml" target="_top" xlink:title="_AUDEndpointDescriptor">
<polygon fill="white" stroke="black" points="26.5,-271.225 26.5,-290.225 161.5,-290.225 161.5,-271.225 26.5,-271.225"/>
<text text-anchor="middle" x="94" y="-278.225" font-family="Helvetica,sans-Serif" font-size="10.00">_AUDEndpointDescriptor</text>
</a>
</g>
</g>
<!-- Node16&#45;&gt;Node1 -->
<g id="edge8" class="edge"><title>Node16&#45;&gt;Node1</title>
<path fill="none" stroke="#9a32cd" stroke-dasharray="5,2" d="M171.639,-280.559C227.286,-281.488 304.214,-284.944 371,-295.725 386.776,-298.272 403.694,-302.399 418.841,-306.623"/>
<polygon fill="#9a32cd" stroke="#9a32cd" points="171.553,-277.057 161.504,-280.413 171.452,-284.056 171.553,-277.057"/>
<text text-anchor="middle" x="288.5" y="-309.725" font-family="Helvetica,sans-Serif" font-size="10.00"> audStreamingOutEndpoint</text>
<text text-anchor="middle" x="288.5" y="-298.725" font-family="Helvetica,sans-Serif" font-size="10.00">streamingInEndpoint</text>
</g>
<!-- Node17 -->
<g id="node10" class="node"><title>Node17</title>
<g id="a_node10"><a xlink:href="struct___c_d_c_header_descriptor.xhtml" target="_top" xlink:title="_CDCHeaderDescriptor">
<polygon fill="white" stroke="black" points="30,-233.225 30,-252.225 158,-252.225 158,-233.225 30,-233.225"/>
<text text-anchor="middle" x="94" y="-240.225" font-family="Helvetica,sans-Serif" font-size="10.00">_CDCHeaderDescriptor</text>
</a>
</g>
</g>
<!-- Node17&#45;&gt;Node1 -->
<g id="edge9" class="edge"><title>Node17&#45;&gt;Node1</title>
<path fill="none" stroke="#9a32cd" stroke-dasharray="5,2" d="M168.449,-240.552C225.045,-240.903 304.588,-245.844 371,-266.725 399.108,-275.563 427.958,-293.671 446.485,-306.698"/>
<polygon fill="#9a32cd" stroke="#9a32cd" points="168.162,-237.052 158.157,-240.537 168.152,-244.052 168.162,-237.052"/>
<text text-anchor="middle" x="288.5" y="-269.725" font-family="Helvetica,sans-Serif" font-size="10.00"> cdcHeader0</text>
</g>
<!-- Node18 -->
<g id="node11" class="node"><title>Node18</title>
<g id="a_node11"><a xlink:href="struct___u_s_b_configuration_descriptor.xhtml" target="_top" xlink:title="_USBConfigurationDescriptor">
<polygon fill="white" stroke="black" points="16,-195.225 16,-214.225 172,-214.225 172,-195.225 16,-195.225"/>
<text text-anchor="middle" x="94" y="-202.225" font-family="Helvetica,sans-Serif" font-size="10.00">_USBConfigurationDescriptor</text>
</a>
</g>
</g>
<!-- Node18&#45;&gt;Node1 -->
<g id="edge10" class="edge"><title>Node18&#45;&gt;Node1</title>
<path fill="none" stroke="#9a32cd" stroke-dasharray="5,2" d="M182.359,-196.642C238.673,-194.98 312.109,-199.634 371,-226.725 409.455,-244.415 441.272,-284.58 456.614,-306.596"/>
<polygon fill="#9a32cd" stroke="#9a32cd" points="181.915,-193.156 172.051,-197.022 182.173,-200.151 181.915,-193.156"/>
<text text-anchor="middle" x="288.5" y="-229.725" font-family="Helvetica,sans-Serif" font-size="10.00"> configuration</text>
</g>
<!-- Node19 -->
<g id="node12" class="node"><title>Node19</title>
<g id="a_node12"><a xlink:href="struct___u_s_b_interface_descriptor.xhtml" target="_top" xlink:title="_USBInterfaceDescriptor">
<polygon fill="white" stroke="black" points="27,-99.225 27,-118.225 161,-118.225 161,-99.225 27,-99.225"/>
<text text-anchor="middle" x="94" y="-106.225" font-family="Helvetica,sans-Serif" font-size="10.00">_USBInterfaceDescriptor</text>
</a>
</g>
</g>
<!-- Node19&#45;&gt;Node1 -->
<g id="edge11" class="edge"><title>Node19&#45;&gt;Node1</title>
<path fill="none" stroke="#9a32cd" stroke-dasharray="5,2" d="M171.166,-101.899C241.361,-97.1518 339.304,-94.912 371,-115.725 439.044,-160.405 459.453,-267.042 464.801,-306.609"/>
<polygon fill="#9a32cd" stroke="#9a32cd" points="170.75,-98.4198 161.022,-102.615 171.243,-105.402 170.75,-98.4198"/>
<text text-anchor="middle" x="288.5" y="-184.725" font-family="Helvetica,sans-Serif" font-size="10.00"> audStreamingOut</text>
<text text-anchor="middle" x="288.5" y="-173.725" font-family="Helvetica,sans-Serif" font-size="10.00">cdcData0</text>
<text text-anchor="middle" x="288.5" y="-162.725" font-family="Helvetica,sans-Serif" font-size="10.00">streamingInNoIsochronous</text>
<text text-anchor="middle" x="288.5" y="-151.725" font-family="Helvetica,sans-Serif" font-size="10.00">audInterface</text>
<text text-anchor="middle" x="288.5" y="-140.725" font-family="Helvetica,sans-Serif" font-size="10.00">streamingIn</text>
<text text-anchor="middle" x="288.5" y="-129.725" font-family="Helvetica,sans-Serif" font-size="10.00">cdcCommunication0</text>
<text text-anchor="middle" x="288.5" y="-118.725" font-family="Helvetica,sans-Serif" font-size="10.00">audStreamingOutNoIsochronous</text>
</g>
<!-- Node20 -->
<g id="node13" class="node"><title>Node20</title>
<g id="a_node13"><a xlink:href="struct___a_u_d_data_endpoint_descriptor.xhtml" target="_top" xlink:title="_AUDDataEndpointDescriptor">
<polygon fill="white" stroke="black" points="15,-54.225 15,-73.225 173,-73.225 173,-54.225 15,-54.225"/>
<text text-anchor="middle" x="94" y="-61.225" font-family="Helvetica,sans-Serif" font-size="10.00">_AUDDataEndpointDescriptor</text>
</a>
</g>
</g>
<!-- Node20&#45;&gt;Node1 -->
<g id="edge12" class="edge"><title>Node20&#45;&gt;Node1</title>
<path fill="none" stroke="#9a32cd" stroke-dasharray="5,2" d="M183.203,-56.3233C252.413,-52.366 341.776,-51.9244 371,-72.725 450.59,-129.375 463.858,-261.796 466.063,-306.6"/>
<polygon fill="#9a32cd" stroke="#9a32cd" points="182.919,-52.8341 173.148,-56.9306 183.341,-59.8213 182.919,-52.8341"/>
<text text-anchor="middle" x="288.5" y="-86.725" font-family="Helvetica,sans-Serif" font-size="10.00"> streamingInDataEndpoint</text>
<text text-anchor="middle" x="288.5" y="-75.725" font-family="Helvetica,sans-Serif" font-size="10.00">audStreamingOutDataEndpoint</text>
</g>
<!-- Node21 -->
<g id="node14" class="node"><title>Node21</title>
<g id="a_node14"><a xlink:href="struct___c_d_c_abstract_control_management_descriptor.xhtml" target="_top" xlink:title="_CDCAbstractControlManagement\lDescriptor">
<polygon fill="white" stroke="black" points="3,-4.72497 3,-34.725 185,-34.725 185,-4.72497 3,-4.72497"/>
<text text-anchor="start" x="11" y="-22.725" font-family="Helvetica,sans-Serif" font-size="10.00">_CDCAbstractControlManagement</text>
<text text-anchor="middle" x="94" y="-11.725" font-family="Helvetica,sans-Serif" font-size="10.00">Descriptor</text>
</a>
</g>
</g>
<!-- Node21&#45;&gt;Node1 -->
<g id="edge13" class="edge"><title>Node21&#45;&gt;Node1</title>
<path fill="none" stroke="#9a32cd" stroke-dasharray="5,2" d="M177.115,-3.40519C236.929,3.61908 316.664,2.29792 371,-39.725 458.296,-107.239 466.408,-258.281 466.696,-306.571"/>
<polygon fill="#9a32cd" stroke="#9a32cd" points="176.42,0.0346337 166.943,-4.70181 177.305,-6.90918 176.42,0.0346337"/>
<text text-anchor="middle" x="288.5" y="-42.725" font-family="Helvetica,sans-Serif" font-size="10.00"> cdcAbstractControlManagement0</text>
</g>
</g>
</svg>
