<?xml version="1.0" encoding="UTF-8" standalone="no"?>
<!DOCTYPE svg PUBLIC "-//W3C//DTD SVG 1.1//EN"
 "http://www.w3.org/Graphics/SVG/1.1/DTD/svg11.dtd">
<!-- Generated by graphviz version 2.38.0 (20140413.2041)
 -->
<!-- Title: DacDma Pages: 1 -->
<svg width="261pt" height="95pt"
 viewBox="0.00 0.00 261.00 95.00" xmlns="http://www.w3.org/2000/svg" xmlns:xlink="http://www.w3.org/1999/xlink">
<g id="graph0" class="graph" transform="scale(1 1) rotate(0) translate(4 91)">
<title>DacDma</title>
<polygon fill="white" stroke="none" points="-4,4 -4,-91 257,-91 257,4 -4,4"/>
<!-- Node1 -->
<g id="node1" class="node"><title>Node1</title>
<polygon fill="#bfbfbf" stroke="black" points="73.5,-0.5 73.5,-19.5 132.5,-19.5 132.5,-0.5 73.5,-0.5"/>
<text text-anchor="middle" x="103" y="-7.5" font-family="Helvetica,sans-Serif" font-size="10.00">DacDma</text>
</g>
<!-- Node2 -->
<g id="node2" class="node"><title>Node2</title>
<g id="a_node2"><a xlink:href="struct___xdmad.xhtml" target="_top" xlink:title="DMA driver instance. ">
<polygon fill="white" stroke="red" points="0,-67.5 0,-86.5 56,-86.5 56,-67.5 0,-67.5"/>
<text text-anchor="middle" x="28" y="-74.5" font-family="Helvetica,sans-Serif" font-size="10.00">_Xdmad</text>
</a>
</g>
</g>
<!-- Node2&#45;&gt;Node1 -->
<g id="edge1" class="edge"><title>Node2&#45;&gt;Node1</title>
<path fill="none" stroke="#9a32cd" stroke-dasharray="5,2" d="M38.5512,-58.6117C43.312,-51.6657 49.3585,-43.9269 56,-38 64.2849,-30.6066 74.9179,-24.2924 83.9742,-19.6335"/>
<polygon fill="#9a32cd" stroke="#9a32cd" points="35.3965,-57.0458 32.9212,-67.3474 41.2804,-60.8379 35.3965,-57.0458"/>
<text text-anchor="middle" x="77.5" y="-41" font-family="Helvetica,sans-Serif" font-size="10.00"> pXdmad</text>
</g>
<!-- Node6 -->
<g id="node3" class="node"><title>Node6</title>
<g id="a_node3"><a xlink:href="struct_dac_cmd.xhtml" target="_top" xlink:title="Dac Transfer Request prepared by the application upper layer. ">
<polygon fill="white" stroke="black" points="74,-67.5 74,-86.5 132,-86.5 132,-67.5 74,-67.5"/>
<text text-anchor="middle" x="103" y="-74.5" font-family="Helvetica,sans-Serif" font-size="10.00">DacCmd</text>
</a>
</g>
</g>
<!-- Node6&#45;&gt;Node1 -->
<g id="edge2" class="edge"><title>Node6&#45;&gt;Node1</title>
<path fill="none" stroke="#9a32cd" stroke-dasharray="5,2" d="M103,-57.037C103,-44.6703 103,-29.1198 103,-19.6273"/>
<polygon fill="#9a32cd" stroke="#9a32cd" points="99.5001,-57.2338 103,-67.2338 106.5,-57.2338 99.5001,-57.2338"/>
<text text-anchor="middle" x="151" y="-41" font-family="Helvetica,sans-Serif" font-size="10.00"> pCurrentCommand</text>
</g>
<!-- Node7 -->
<g id="node4" class="node"><title>Node7</title>
<g id="a_node4"><a xlink:href="struct_dacc.xhtml" target="_top" xlink:title="Dacc hardware registers. ">
<polygon fill="white" stroke="black" points="201.5,-67.5 201.5,-86.5 242.5,-86.5 242.5,-67.5 201.5,-67.5"/>
<text text-anchor="middle" x="222" y="-74.5" font-family="Helvetica,sans-Serif" font-size="10.00">Dacc</text>
</a>
</g>
</g>
<!-- Node7&#45;&gt;Node1 -->
<g id="edge3" class="edge"><title>Node7&#45;&gt;Node1</title>
<path fill="none" stroke="#9a32cd" stroke-dasharray="5,2" d="M215.053,-57.8012C211.52,-50.7083 206.561,-43.0789 200,-38 180.648,-23.0198 153.452,-16.3492 132.779,-13.3798"/>
<polygon fill="#9a32cd" stroke="#9a32cd" points="212.045,-59.6631 219.23,-67.4499 218.469,-56.8824 212.045,-59.6631"/>
<text text-anchor="middle" x="231.5" y="-41" font-family="Helvetica,sans-Serif" font-size="10.00"> pDacHw</text>
</g>
</g>
</svg>
