<?xml version="1.0" encoding="UTF-8" standalone="no"?>
<!DOCTYPE svg PUBLIC "-//W3C//DTD SVG 1.1//EN"
 "http://www.w3.org/Graphics/SVG/1.1/DTD/svg11.dtd">
<!-- Generated by graphviz version 2.38.0 (20140413.2041)
 -->
<!-- Title: _USB_DeviceLPMDescriptor Pages: 1 -->
<svg width="302pt" height="95pt"
 viewBox="0.00 0.00 302.00 95.00" xmlns="http://www.w3.org/2000/svg" xmlns:xlink="http://www.w3.org/1999/xlink">
<g id="graph0" class="graph" transform="scale(1 1) rotate(0) translate(4 91)">
<title>_USB_DeviceLPMDescriptor</title>
<polygon fill="white" stroke="none" points="-4,4 -4,-91 298,-91 298,4 -4,4"/>
<!-- Node1 -->
<g id="node1" class="node"><title>Node1</title>
<polygon fill="#bfbfbf" stroke="black" points="76.5,-0.5 76.5,-19.5 225.5,-19.5 225.5,-0.5 76.5,-0.5"/>
<text text-anchor="middle" x="151" y="-7.5" font-family="Helvetica,sans-Serif" font-size="10.00">_USB_DeviceLPMDescriptor</text>
</g>
<!-- Node2 -->
<g id="node2" class="node"><title>Node2</title>
<g id="a_node2"><a xlink:href="struct___u_s_b_device_b_o_s_descriptor.xhtml" target="_top" xlink:title="_USBDeviceBOSDescriptor">
<polygon fill="white" stroke="black" points="0,-67.5 0,-86.5 146,-86.5 146,-67.5 0,-67.5"/>
<text text-anchor="middle" x="73" y="-74.5" font-family="Helvetica,sans-Serif" font-size="10.00">_USBDeviceBOSDescriptor</text>
</a>
</g>
</g>
<!-- Node2&#45;&gt;Node1 -->
<g id="edge1" class="edge"><title>Node2&#45;&gt;Node1</title>
<path fill="none" stroke="#9a32cd" stroke-dasharray="5,2" d="M91.3439,-60.7134C106.712,-47.907 128.094,-30.0884 140.647,-19.6273"/>
<polygon fill="#9a32cd" stroke="#9a32cd" points="88.961,-58.1431 83.5194,-67.2338 93.4423,-63.5207 88.961,-58.1431"/>
<text text-anchor="middle" x="127.5" y="-41" font-family="Helvetica,sans-Serif" font-size="10.00"> bos</text>
</g>
<!-- Node3 -->
<g id="node3" class="node"><title>Node3</title>
<g id="a_node3"><a xlink:href="struct___u_s_b_device_capabilities.xhtml" target="_top" xlink:title="_USBDeviceCapabilities">
<polygon fill="white" stroke="black" points="164,-67.5 164,-86.5 294,-86.5 294,-67.5 164,-67.5"/>
<text text-anchor="middle" x="229" y="-74.5" font-family="Helvetica,sans-Serif" font-size="10.00">_USBDeviceCapabilities</text>
</a>
</g>
</g>
<!-- Node3&#45;&gt;Node1 -->
<g id="edge2" class="edge"><title>Node3&#45;&gt;Node1</title>
<path fill="none" stroke="#9a32cd" stroke-dasharray="5,2" d="M210.656,-60.7134C195.288,-47.907 173.906,-30.0884 161.353,-19.6273"/>
<polygon fill="#9a32cd" stroke="#9a32cd" points="208.558,-63.5207 218.481,-67.2338 213.039,-58.1431 208.558,-63.5207"/>
<text text-anchor="middle" x="217.5" y="-41" font-family="Helvetica,sans-Serif" font-size="10.00"> capa_ext</text>
</g>
</g>
</svg>
