<?xml version="1.0" encoding="UTF-8" standalone="no"?>
<!DOCTYPE svg PUBLIC "-//W3C//DTD SVG 1.1//EN"
 "http://www.w3.org/Graphics/SVG/1.1/DTD/svg11.dtd">
<!-- Generated by graphviz version 2.38.0 (20140413.2041)
 -->
<!-- Title: radar_certification_enter_tx_only Pages: 1 -->
<svg width="281pt" height="230pt"
 viewBox="0.00 0.00 281.00 229.50" xmlns="http://www.w3.org/2000/svg" xmlns:xlink="http://www.w3.org/1999/xlink">
<g id="graph0" class="graph" transform="scale(1 1) rotate(0) translate(4 225.5)">
<title>radar_certification_enter_tx_only</title>
<polygon fill="white" stroke="none" points="-4,4 -4,-225.5 277,-225.5 277,4 -4,4"/>
<!-- Node0 -->
<g id="node1" class="node"><title>Node0</title>
<polygon fill="#bfbfbf" stroke="black" points="0,-90 0,-120 103,-120 103,-90 0,-90"/>
<text text-anchor="start" x="8" y="-108" font-family="Helvetica,sans-Serif" font-size="10.00">radar_certification</text>
<text text-anchor="middle" x="51.5" y="-97" font-family="Helvetica,sans-Serif" font-size="10.00">_enter_tx_only</text>
</g>
<!-- Node1 -->
<g id="node2" class="node"><title>Node1</title>
<g id="a_node2"><a xlink:href="xep__hal_8h.xhtml#ab0d28c0bbd203c3d66b4e46cf4e7fb5f" target="_top" xlink:title="Gets default radar configuration. ">
<polygon fill="white" stroke="black" points="148,-191 148,-221 264,-221 264,-191 148,-191"/>
<text text-anchor="start" x="156" y="-209" font-family="Helvetica,sans-Serif" font-size="10.00">xt_get_default_radar</text>
<text text-anchor="middle" x="206" y="-198" font-family="Helvetica,sans-Serif" font-size="10.00">_config</text>
</a>
</g>
</g>
<!-- Node0&#45;&gt;Node1 -->
<g id="edge1" class="edge"><title>Node0&#45;&gt;Node1</title>
<path fill="none" stroke="midnightblue" d="M66.512,-120.234C82.6345,-137.019 110.563,-163.897 139,-181 142.388,-183.038 145.97,-184.959 149.644,-186.76"/>
<polygon fill="midnightblue" stroke="midnightblue" points="148.356,-190.02 158.907,-190.991 151.265,-183.653 148.356,-190.02"/>
</g>
<!-- Node2 -->
<g id="node3" class="node"><title>Node2</title>
<g id="a_node3"><a xlink:href="x4driver_8h.xhtml#a041e81b6d75f97dbf29f1e9a29353425" target="_top" xlink:title="Will setup x4 in default configuration. ">
<polygon fill="white" stroke="red" points="143.5,-152.5 143.5,-171.5 268.5,-171.5 268.5,-152.5 143.5,-152.5"/>
<text text-anchor="middle" x="206" y="-159.5" font-family="Helvetica,sans-Serif" font-size="10.00">x4driver_setup_default</text>
</a>
</g>
</g>
<!-- Node0&#45;&gt;Node2 -->
<g id="edge2" class="edge"><title>Node0&#45;&gt;Node2</title>
<path fill="none" stroke="midnightblue" d="M84.1281,-120.11C100.328,-127.536 120.491,-136.304 139,-143 145.328,-145.289 152.074,-147.493 158.745,-149.537"/>
<polygon fill="midnightblue" stroke="midnightblue" points="157.827,-152.915 168.41,-152.409 159.821,-146.205 157.827,-152.915"/>
</g>
<!-- Node14 -->
<g id="node4" class="node"><title>Node14</title>
<g id="a_node4"><a xlink:href="x4driver_8h.xhtml#aaa39bc07728273218162fc63a0bcb864" target="_top" xlink:title="x4driver_set_tx_power">
<polygon fill="white" stroke="red" points="144.5,-114.5 144.5,-133.5 267.5,-133.5 267.5,-114.5 144.5,-114.5"/>
<text text-anchor="middle" x="206" y="-121.5" font-family="Helvetica,sans-Serif" font-size="10.00">x4driver_set_tx_power</text>
</a>
</g>
</g>
<!-- Node0&#45;&gt;Node14 -->
<g id="edge3" class="edge"><title>Node0&#45;&gt;Node14</title>
<path fill="none" stroke="midnightblue" d="M103.28,-111.327C113.261,-112.57 123.899,-113.896 134.394,-115.203"/>
<polygon fill="midnightblue" stroke="midnightblue" points="134.03,-118.685 144.386,-116.448 134.895,-111.738 134.03,-118.685"/>
</g>
<!-- Node16 -->
<g id="node5" class="node"><title>Node16</title>
<g id="a_node5"><a xlink:href="x4driver_8h.xhtml#a983024655a1dcd0ad2aa0ec6cb8eb3cb" target="_top" xlink:title="Gets PIF register value. ">
<polygon fill="white" stroke="red" points="139,-76.5 139,-95.5 273,-95.5 273,-76.5 139,-76.5"/>
<text text-anchor="middle" x="206" y="-83.5" font-family="Helvetica,sans-Serif" font-size="10.00">x4driver_get_pif_register</text>
</a>
</g>
</g>
<!-- Node0&#45;&gt;Node16 -->
<g id="edge4" class="edge"><title>Node0&#45;&gt;Node16</title>
<path fill="none" stroke="midnightblue" d="M103.28,-98.6733C111.501,-97.6491 120.167,-96.5693 128.833,-95.4897"/>
<polygon fill="midnightblue" stroke="midnightblue" points="129.487,-98.9353 138.977,-94.2258 128.621,-91.989 129.487,-98.9353"/>
</g>
<!-- Node17 -->
<g id="node6" class="node"><title>Node17</title>
<g id="a_node6"><a xlink:href="x4driver_8h.xhtml#a382b6e4ffa3658d409dfe855707dc16d" target="_top" xlink:title="Sets PIF register value. ">
<polygon fill="white" stroke="red" points="139,-38.5 139,-57.5 273,-57.5 273,-38.5 139,-38.5"/>
<text text-anchor="middle" x="206" y="-45.5" font-family="Helvetica,sans-Serif" font-size="10.00">x4driver_set_pif_register</text>
</a>
</g>
</g>
<!-- Node0&#45;&gt;Node17 -->
<g id="edge5" class="edge"><title>Node0&#45;&gt;Node17</title>
<path fill="none" stroke="midnightblue" d="M84.1281,-89.8903C100.328,-82.464 120.491,-73.6959 139,-67 145.328,-64.7108 152.074,-62.5074 158.745,-60.4634"/>
<polygon fill="midnightblue" stroke="midnightblue" points="159.821,-63.7951 168.41,-57.5912 157.827,-57.0851 159.821,-63.7951"/>
</g>
<!-- Node18 -->
<g id="node7" class="node"><title>Node18</title>
<g id="a_node7"><a xlink:href="xt__system_8c.xhtml#aa19e5f6d86723f910b65cf0aadc2ec58" target="_top" xlink:title="Sets the processor in a deep sleep state. ">
<polygon fill="white" stroke="black" points="163,-0.5 163,-19.5 249,-19.5 249,-0.5 163,-0.5"/>
<text text-anchor="middle" x="206" y="-7.5" font-family="Helvetica,sans-Serif" font-size="10.00">xt_deep_sleep</text>
</a>
</g>
</g>
<!-- Node0&#45;&gt;Node18 -->
<g id="edge6" class="edge"><title>Node0&#45;&gt;Node18</title>
<path fill="none" stroke="midnightblue" d="M65.6921,-89.9464C81.4917,-72.8117 109.537,-45.1182 139,-29 143.462,-26.5589 148.27,-24.4038 153.184,-22.5072"/>
<polygon fill="midnightblue" stroke="midnightblue" points="154.422,-25.7818 162.702,-19.1711 152.107,-19.1758 154.422,-25.7818"/>
</g>
</g>
</svg>
