<?xml version="1.0" encoding="UTF-8" standalone="no"?>
<!DOCTYPE svg PUBLIC "-//W3C//DTD SVG 1.1//EN"
 "http://www.w3.org/Graphics/SVG/1.1/DTD/svg11.dtd">
<!-- Generated by graphviz version 2.38.0 (20140413.2041)
 -->
<!-- Title: task_monitor_init Pages: 1 -->
<svg width="259pt" height="78pt"
 viewBox="0.00 0.00 259.00 77.50" xmlns="http://www.w3.org/2000/svg" xmlns:xlink="http://www.w3.org/1999/xlink">
<g id="graph0" class="graph" transform="scale(1 1) rotate(0) translate(4 73.5)">
<title>task_monitor_init</title>
<polygon fill="white" stroke="none" points="-4,4 -4,-73.5 255,-73.5 255,4 -4,4"/>
<!-- Node163 -->
<g id="node1" class="node"><title>Node163</title>
<polygon fill="#bfbfbf" stroke="black" points="0,-22.5 0,-41.5 99,-41.5 99,-22.5 0,-22.5"/>
<text text-anchor="middle" x="49.5" y="-29.5" font-family="Helvetica,sans-Serif" font-size="10.00">task_monitor_init</text>
</g>
<!-- Node164 -->
<g id="node2" class="node"><title>Node164</title>
<g id="a_node2"><a xlink:href="xep__hal_8h.xhtml#a31dcedbddd6f896d0157ce276d449fd4" target="_top" xlink:title="Checks if external memory is enabled. ">
<polygon fill="white" stroke="black" points="135,-39 135,-69 251,-69 251,-39 135,-39"/>
<text text-anchor="start" x="143" y="-57" font-family="Helvetica,sans-Serif" font-size="10.00">xt_external_memory</text>
<text text-anchor="middle" x="193" y="-46" font-family="Helvetica,sans-Serif" font-size="10.00">_enabled</text>
</a>
</g>
</g>
<!-- Node163&#45;&gt;Node164 -->
<g id="edge1" class="edge"><title>Node163&#45;&gt;Node164</title>
<path fill="none" stroke="midnightblue" d="M99.1963,-39.5712C107.47,-40.8576 116.192,-42.2135 124.841,-43.5583"/>
<polygon fill="midnightblue" stroke="midnightblue" points="124.512,-47.0491 134.931,-45.1271 125.587,-40.1322 124.512,-47.0491"/>
</g>
<!-- Node165 -->
<g id="node3" class="node"><title>Node165</title>
<g id="a_node3"><a xlink:href="task__monitor_8c.xhtml#ad45490893a79383d6cd047fa3e4c3638" target="_top" xlink:title="task_monitor">
<polygon fill="white" stroke="red" points="153,-0.5 153,-19.5 233,-19.5 233,-0.5 153,-0.5"/>
<text text-anchor="middle" x="193" y="-7.5" font-family="Helvetica,sans-Serif" font-size="10.00">task_monitor</text>
</a>
</g>
</g>
<!-- Node163&#45;&gt;Node165 -->
<g id="edge2" class="edge"><title>Node163&#45;&gt;Node165</title>
<path fill="none" stroke="midnightblue" d="M99.1963,-24.4288C113.22,-22.2485 128.528,-19.8684 142.595,-17.6814"/>
<polygon fill="midnightblue" stroke="midnightblue" points="143.238,-21.1235 152.581,-16.1287 142.162,-14.2066 143.238,-21.1235"/>
</g>
</g>
</svg>
