<?xml version="1.0" encoding="UTF-8" standalone="no"?>
<!DOCTYPE svg PUBLIC "-//W3C//DTD SVG 1.1//EN"
 "http://www.w3.org/Graphics/SVG/1.1/DTD/svg11.dtd">
<!-- Generated by graphviz version 2.38.0 (20140413.2041)
 -->
<!-- Title: src/HostCom/task_hostcom.h Pages: 1 -->
<svg width="372pt" height="84pt"
 viewBox="0.00 0.00 371.50 84.00" xmlns="http://www.w3.org/2000/svg" xmlns:xlink="http://www.w3.org/1999/xlink">
<g id="graph0" class="graph" transform="scale(1 1) rotate(0) translate(4 80)">
<title>src/HostCom/task_hostcom.h</title>
<polygon fill="white" stroke="none" points="-4,4 -4,-80 367.5,-80 367.5,4 -4,4"/>
<!-- Node0 -->
<g id="node1" class="node"><title>Node0</title>
<polygon fill="#bfbfbf" stroke="black" points="119.5,-56.5 119.5,-75.5 277.5,-75.5 277.5,-56.5 119.5,-56.5"/>
<text text-anchor="middle" x="198.5" y="-63.5" font-family="Helvetica,sans-Serif" font-size="10.00">src/HostCom/task_hostcom.h</text>
</g>
<!-- Node1 -->
<g id="node2" class="node"><title>Node1</title>
<g id="a_node2"><a xlink:href="xep__dispatch_8h.xhtml" target="_top" xlink:title="xep_dispatch.h">
<polygon fill="white" stroke="red" points="0,-0.5 0,-19.5 89,-19.5 89,-0.5 0,-0.5"/>
<text text-anchor="middle" x="44.5" y="-7.5" font-family="Helvetica,sans-Serif" font-size="10.00">xep_dispatch.h</text>
</a>
</g>
</g>
<!-- Node0&#45;&gt;Node1 -->
<g id="edge1" class="edge"><title>Node0&#45;&gt;Node1</title>
<path fill="none" stroke="midnightblue" d="M174.098,-56.4435C148.303,-47.3986 107.423,-33.064 78.4822,-22.9158"/>
<polygon fill="midnightblue" stroke="midnightblue" points="79.3824,-19.5226 68.7876,-19.5164 77.0661,-26.1283 79.3824,-19.5226"/>
</g>
<!-- Node5 -->
<g id="node3" class="node"><title>Node5</title>
<g id="a_node3"><a xlink:href="memorypool_8h.xhtml" target="_top" xlink:title="Memory pool implementation. ">
<polygon fill="white" stroke="red" points="107.5,-0.5 107.5,-19.5 193.5,-19.5 193.5,-0.5 107.5,-0.5"/>
<text text-anchor="middle" x="150.5" y="-7.5" font-family="Helvetica,sans-Serif" font-size="10.00">memorypool.h</text>
</a>
</g>
</g>
<!-- Node0&#45;&gt;Node5 -->
<g id="edge2" class="edge"><title>Node0&#45;&gt;Node5</title>
<path fill="none" stroke="midnightblue" d="M190.574,-56.083C183.654,-48.2982 173.435,-36.8015 165.048,-27.3665"/>
<polygon fill="midnightblue" stroke="midnightblue" points="167.538,-24.8999 158.279,-19.7511 162.306,-29.5505 167.538,-24.8999"/>
</g>
<!-- Node6 -->
<g id="node4" class="node"><title>Node6</title>
<polygon fill="white" stroke="#bfbfbf" points="212,-0.5 212,-19.5 283,-19.5 283,-0.5 212,-0.5"/>
<text text-anchor="middle" x="247.5" y="-7.5" font-family="Helvetica,sans-Serif" font-size="10.00">FreeRTOS.h</text>
</g>
<!-- Node0&#45;&gt;Node6 -->
<g id="edge3" class="edge"><title>Node0&#45;&gt;Node6</title>
<path fill="none" stroke="midnightblue" d="M206.591,-56.083C213.655,-48.2982 224.088,-36.8015 232.649,-27.3665"/>
<polygon fill="midnightblue" stroke="midnightblue" points="235.431,-29.5087 239.559,-19.7511 230.247,-24.8047 235.431,-29.5087"/>
</g>
<!-- Node7 -->
<g id="node5" class="node"><title>Node7</title>
<polygon fill="white" stroke="#bfbfbf" points="301.5,-0.5 301.5,-19.5 363.5,-19.5 363.5,-0.5 301.5,-0.5"/>
<text text-anchor="middle" x="332.5" y="-7.5" font-family="Helvetica,sans-Serif" font-size="10.00">semphr.h</text>
</g>
<!-- Node0&#45;&gt;Node7 -->
<g id="edge4" class="edge"><title>Node0&#45;&gt;Node7</title>
<path fill="none" stroke="midnightblue" d="M219.733,-56.4435C241.884,-47.5171 276.819,-33.4387 301.936,-23.3168"/>
<polygon fill="midnightblue" stroke="midnightblue" points="303.4,-26.5006 311.367,-19.5164 300.783,-20.0079 303.4,-26.5006"/>
</g>
</g>
</svg>
