<?xml version="1.0" encoding="UTF-8" standalone="no"?>
<!DOCTYPE svg PUBLIC "-//W3C//DTD SVG 1.1//EN"
 "http://www.w3.org/Graphics/SVG/1.1/DTD/svg11.dtd">
<!-- Generated by graphviz version 2.38.0 (20140413.2041)
 -->
<!-- Title: src/Radar/task_radar.h Pages: 1 -->
<svg width="369pt" height="95pt"
 viewBox="0.00 0.00 368.50 95.00" xmlns="http://www.w3.org/2000/svg" xmlns:xlink="http://www.w3.org/1999/xlink">
<g id="graph0" class="graph" transform="scale(1 1) rotate(0) translate(4 91)">
<title>src/Radar/task_radar.h</title>
<polygon fill="white" stroke="none" points="-4,4 -4,-91 364.5,-91 364.5,4 -4,4"/>
<!-- Node7 -->
<g id="node1" class="node"><title>Node7</title>
<polygon fill="#bfbfbf" stroke="black" points="84,-67.5 84,-86.5 208,-86.5 208,-67.5 84,-67.5"/>
<text text-anchor="middle" x="146" y="-74.5" font-family="Helvetica,sans-Serif" font-size="10.00">src/Radar/task_radar.h</text>
</g>
<!-- Node8 -->
<g id="node2" class="node"><title>Node8</title>
<g id="a_node2"><a xlink:href="main_8c.xhtml" target="_top" xlink:title="main() function for Radar Application ">
<polygon fill="white" stroke="black" points="0,-6 0,-25 66,-25 66,-6 0,-6"/>
<text text-anchor="middle" x="33" y="-13" font-family="Helvetica,sans-Serif" font-size="10.00">src/main.c</text>
</a>
</g>
</g>
<!-- Node7&#45;&gt;Node8 -->
<g id="edge1" class="edge"><title>Node7&#45;&gt;Node8</title>
<path fill="none" stroke="midnightblue" d="M120.764,-62.7118C98.8782,-51.1881 67.8591,-34.855 49.1601,-25.0091"/>
<polygon fill="midnightblue" stroke="midnightblue" points="119.331,-65.9129 129.81,-67.4751 122.592,-59.7191 119.331,-65.9129"/>
</g>
<!-- Node9 -->
<g id="node3" class="node"><title>Node9</title>
<g id="a_node3"><a xlink:href="task__radar_8c.xhtml" target="_top" xlink:title="src/Radar/task_radar.c">
<polygon fill="white" stroke="black" points="84.5,-6 84.5,-25 207.5,-25 207.5,-6 84.5,-6"/>
<text text-anchor="middle" x="146" y="-13" font-family="Helvetica,sans-Serif" font-size="10.00">src/Radar/task_radar.c</text>
</a>
</g>
</g>
<!-- Node7&#45;&gt;Node9 -->
<g id="edge2" class="edge"><title>Node7&#45;&gt;Node9</title>
<path fill="none" stroke="midnightblue" d="M146,-57.3165C146,-46.4962 146,-33.398 146,-25.0091"/>
<polygon fill="midnightblue" stroke="midnightblue" points="142.5,-57.4751 146,-67.4751 149.5,-57.4751 142.5,-57.4751"/>
</g>
<!-- Node10 -->
<g id="node4" class="node"><title>Node10</title>
<g id="a_node4"><a xlink:href="xep__application__mcp__callbacks_8c.xhtml" target="_top" xlink:title="src/XEPA/xep_application\l_mcp_callbacks.c">
<polygon fill="white" stroke="black" points="225.5,-0.5 225.5,-30.5 360.5,-30.5 360.5,-0.5 225.5,-0.5"/>
<text text-anchor="start" x="233.5" y="-18.5" font-family="Helvetica,sans-Serif" font-size="10.00">src/XEPA/xep_application</text>
<text text-anchor="middle" x="293" y="-7.5" font-family="Helvetica,sans-Serif" font-size="10.00">_mcp_callbacks.c</text>
</a>
</g>
</g>
<!-- Node7&#45;&gt;Node10 -->
<g id="edge3" class="edge"><title>Node7&#45;&gt;Node10</title>
<path fill="none" stroke="midnightblue" d="M176.341,-63.7189C200.2,-54.062 233.453,-40.6023 258.355,-30.523"/>
<polygon fill="midnightblue" stroke="midnightblue" points="175.018,-60.4788 167.062,-67.4751 177.644,-66.9674 175.018,-60.4788"/>
</g>
</g>
</svg>
