<?xml version="1.0" encoding="UTF-8" standalone="no"?>
<!DOCTYPE svg PUBLIC "-//W3C//DTD SVG 1.1//EN"
 "http://www.w3.org/Graphics/SVG/1.1/DTD/svg11.dtd">
<!-- Generated by graphviz version 2.38.0 (20140413.2041)
 -->
<!-- Title: radar_certification_enter_tx_only_tx_off Pages: 1 -->
<svg width="296pt" height="180pt"
 viewBox="0.00 0.00 296.00 180.00" xmlns="http://www.w3.org/2000/svg" xmlns:xlink="http://www.w3.org/1999/xlink">
<g id="graph0" class="graph" transform="scale(1 1) rotate(0) translate(4 176)">
<title>radar_certification_enter_tx_only_tx_off</title>
<polygon fill="white" stroke="none" points="-4,4 -4,-176 292,-176 292,4 -4,4"/>
<!-- Node27 -->
<g id="node1" class="node"><title>Node27</title>
<polygon fill="#bfbfbf" stroke="black" points="0,-71 0,-101 118,-101 118,-71 0,-71"/>
<text text-anchor="start" x="8" y="-89" font-family="Helvetica,sans-Serif" font-size="10.00">radar_certification</text>
<text text-anchor="middle" x="59" y="-78" font-family="Helvetica,sans-Serif" font-size="10.00">_enter_tx_only_tx_off</text>
</g>
<!-- Node28 -->
<g id="node2" class="node"><title>Node28</title>
<g id="a_node2"><a xlink:href="x4driver_8h.xhtml#a041e81b6d75f97dbf29f1e9a29353425" target="_top" xlink:title="Will setup x4 in default configuration. ">
<polygon fill="white" stroke="red" points="158.5,-152.5 158.5,-171.5 283.5,-171.5 283.5,-152.5 158.5,-152.5"/>
<text text-anchor="middle" x="221" y="-159.5" font-family="Helvetica,sans-Serif" font-size="10.00">x4driver_setup_default</text>
</a>
</g>
</g>
<!-- Node27&#45;&gt;Node28 -->
<g id="edge1" class="edge"><title>Node27&#45;&gt;Node28</title>
<path fill="none" stroke="midnightblue" d="M81.145,-101.067C99.6402,-113.687 127.601,-131.441 154,-143 159.318,-145.328 165,-147.458 170.716,-149.381"/>
<polygon fill="midnightblue" stroke="midnightblue" points="169.719,-152.737 180.309,-152.42 171.833,-146.063 169.719,-152.737"/>
</g>
<!-- Node40 -->
<g id="node3" class="node"><title>Node40</title>
<g id="a_node3"><a xlink:href="x4driver_8h.xhtml#aaa39bc07728273218162fc63a0bcb864" target="_top" xlink:title="x4driver_set_tx_power">
<polygon fill="white" stroke="red" points="159.5,-114.5 159.5,-133.5 282.5,-133.5 282.5,-114.5 159.5,-114.5"/>
<text text-anchor="middle" x="221" y="-121.5" font-family="Helvetica,sans-Serif" font-size="10.00">x4driver_set_tx_power</text>
</a>
</g>
</g>
<!-- Node27&#45;&gt;Node40 -->
<g id="edge2" class="edge"><title>Node27&#45;&gt;Node40</title>
<path fill="none" stroke="midnightblue" d="M118.216,-99.8264C135.087,-103.833 153.357,-108.172 169.699,-112.054"/>
<polygon fill="midnightblue" stroke="midnightblue" points="169.058,-115.499 179.596,-114.404 170.676,-108.688 169.058,-115.499"/>
</g>
<!-- Node42 -->
<g id="node4" class="node"><title>Node42</title>
<g id="a_node4"><a xlink:href="x4driver_8h.xhtml#a983024655a1dcd0ad2aa0ec6cb8eb3cb" target="_top" xlink:title="Gets PIF register value. ">
<polygon fill="white" stroke="red" points="154,-76.5 154,-95.5 288,-95.5 288,-76.5 154,-76.5"/>
<text text-anchor="middle" x="221" y="-83.5" font-family="Helvetica,sans-Serif" font-size="10.00">x4driver_get_pif_register</text>
</a>
</g>
</g>
<!-- Node27&#45;&gt;Node42 -->
<g id="edge3" class="edge"><title>Node27&#45;&gt;Node42</title>
<path fill="none" stroke="midnightblue" d="M118.216,-86C126.565,-86 135.256,-86 143.887,-86"/>
<polygon fill="midnightblue" stroke="midnightblue" points="143.967,-89.5001 153.967,-86 143.967,-82.5001 143.967,-89.5001"/>
</g>
<!-- Node43 -->
<g id="node5" class="node"><title>Node43</title>
<g id="a_node5"><a xlink:href="x4driver_8h.xhtml#a382b6e4ffa3658d409dfe855707dc16d" target="_top" xlink:title="Sets PIF register value. ">
<polygon fill="white" stroke="red" points="154,-38.5 154,-57.5 288,-57.5 288,-38.5 154,-38.5"/>
<text text-anchor="middle" x="221" y="-45.5" font-family="Helvetica,sans-Serif" font-size="10.00">x4driver_set_pif_register</text>
</a>
</g>
</g>
<!-- Node27&#45;&gt;Node43 -->
<g id="edge4" class="edge"><title>Node27&#45;&gt;Node43</title>
<path fill="none" stroke="midnightblue" d="M118.216,-72.1736C135.087,-68.1668 153.357,-63.8278 169.699,-59.9464"/>
<polygon fill="midnightblue" stroke="midnightblue" points="170.676,-63.312 179.596,-57.5959 169.058,-56.5014 170.676,-63.312"/>
</g>
<!-- Node44 -->
<g id="node6" class="node"><title>Node44</title>
<g id="a_node6"><a xlink:href="xt__system_8c.xhtml#aa19e5f6d86723f910b65cf0aadc2ec58" target="_top" xlink:title="Sets the processor in a deep sleep state. ">
<polygon fill="white" stroke="black" points="178,-0.5 178,-19.5 264,-19.5 264,-0.5 178,-0.5"/>
<text text-anchor="middle" x="221" y="-7.5" font-family="Helvetica,sans-Serif" font-size="10.00">xt_deep_sleep</text>
</a>
</g>
</g>
<!-- Node27&#45;&gt;Node44 -->
<g id="edge5" class="edge"><title>Node27&#45;&gt;Node44</title>
<path fill="none" stroke="midnightblue" d="M81.145,-70.9325C99.6402,-58.313 127.601,-40.5588 154,-29 159.318,-26.6716 165,-24.5416 170.716,-22.6187"/>
<polygon fill="midnightblue" stroke="midnightblue" points="171.833,-25.9365 180.309,-19.5799 169.719,-19.2634 171.833,-25.9365"/>
</g>
</g>
</svg>
