<?xml version="1.0" encoding="UTF-8" standalone="no"?>
<!DOCTYPE svg PUBLIC "-//W3C//DTD SVG 1.1//EN"
 "http://www.w3.org/Graphics/SVG/1.1/DTD/svg11.dtd">
<!-- Generated by graphviz version 2.38.0 (20140413.2041)
 -->
<!-- Title: process_dispatch_message_hostcom_send Pages: 1 -->
<svg width="277pt" height="39pt"
 viewBox="0.00 0.00 277.00 39.00" xmlns="http://www.w3.org/2000/svg" xmlns:xlink="http://www.w3.org/1999/xlink">
<g id="graph0" class="graph" transform="scale(1 1) rotate(0) translate(4 35)">
<title>process_dispatch_message_hostcom_send</title>
<polygon fill="white" stroke="none" points="-4,4 -4,-35 273,-35 273,4 -4,4"/>
<!-- Node56 -->
<g id="node1" class="node"><title>Node56</title>
<polygon fill="#bfbfbf" stroke="black" points="-2.84217e-14,-0.5 -2.84217e-14,-30.5 149,-30.5 149,-0.5 -2.84217e-14,-0.5"/>
<text text-anchor="start" x="8" y="-18.5" font-family="Helvetica,sans-Serif" font-size="10.00">process_dispatch_message</text>
<text text-anchor="middle" x="74.5" y="-7.5" font-family="Helvetica,sans-Serif" font-size="10.00">_hostcom_send</text>
</g>
<!-- Node57 -->
<g id="node2" class="node"><title>Node57</title>
<g id="a_node2"><a xlink:href="task__hostcom_8c.xhtml#abac971969d3f568fc6db3b8205cc9992" target="_top" xlink:title="task_hostcom">
<polygon fill="white" stroke="red" points="185,-6 185,-25 269,-25 269,-6 185,-6"/>
<text text-anchor="middle" x="227" y="-13" font-family="Helvetica,sans-Serif" font-size="10.00">task_hostcom</text>
</a>
</g>
</g>
<!-- Node56&#45;&gt;Node57 -->
<g id="edge1" class="edge"><title>Node56&#45;&gt;Node57</title>
<path fill="none" stroke="midnightblue" d="M159.696,-15.5C168.405,-15.5 176.951,-15.5 184.86,-15.5"/>
<polygon fill="midnightblue" stroke="midnightblue" points="159.427,-12.0001 149.427,-15.5 159.427,-19.0001 159.427,-12.0001"/>
</g>
</g>
</svg>
