<?xml version="1.0" encoding="UTF-8" standalone="no"?>
<!DOCTYPE svg PUBLIC "-//W3C//DTD SVG 1.1//EN"
 "http://www.w3.org/Graphics/SVG/1.1/DTD/svg11.dtd">
<!-- Generated by graphviz version 2.38.0 (20140413.2041)
 -->
<!-- Title: GetDelayInTicks Pages: 1 -->
<svg width="228pt" height="218pt"
 viewBox="0.00 0.00 228.00 218.00" xmlns="http://www.w3.org/2000/svg" xmlns:xlink="http://www.w3.org/1999/xlink">
<g id="graph0" class="graph" transform="scale(1 1) rotate(0) translate(4 214)">
<title>GetDelayInTicks</title>
<polygon fill="white" stroke="none" points="-4,4 -4,-214 224,-214 224,4 -4,4"/>
<!-- Node1 -->
<g id="node1" class="node"><title>Node1</title>
<polygon fill="#bfbfbf" stroke="black" points="0,-95.5 0,-114.5 92,-114.5 92,-95.5 0,-95.5"/>
<text text-anchor="middle" x="46" y="-102.5" font-family="Helvetica,sans-Serif" font-size="10.00">GetDelayInTicks</text>
</g>
<!-- Node2 -->
<g id="node2" class="node"><title>Node2</title>
<g id="a_node2"><a xlink:href="timetick_8c.xhtml#a2b6066c4eacf5089da661bd9e13bc9ed" target="_top" xlink:title="Sync Wait for several ms. ">
<polygon fill="white" stroke="red" points="156,-190.5 156,-209.5 192,-209.5 192,-190.5 156,-190.5"/>
<text text-anchor="middle" x="174" y="-197.5" font-family="Helvetica,sans-Serif" font-size="10.00">Wait</text>
</a>
</g>
</g>
<!-- Node1&#45;&gt;Node2 -->
<g id="edge1" class="edge"><title>Node1&#45;&gt;Node2</title>
<path fill="none" stroke="midnightblue" d="M62.1796,-122.459C77.4663,-139.21 102.394,-164.35 128,-181 136.531,-186.547 146.952,-191.069 155.617,-194.307"/>
<polygon fill="midnightblue" stroke="midnightblue" points="64.3863,-119.676 55.112,-114.554 59.1678,-124.342 64.3863,-119.676"/>
</g>
<!-- Node17 -->
<g id="node3" class="node"><title>Node17</title>
<g id="a_node3"><a xlink:href="timetick_8c.xhtml#af275659c1e8514e6f3b61f0b32f09a79" target="_top" xlink:title="Sync Sleep for several ms. ">
<polygon fill="white" stroke="black" points="152,-152.5 152,-171.5 196,-171.5 196,-152.5 152,-152.5"/>
<text text-anchor="middle" x="174" y="-159.5" font-family="Helvetica,sans-Serif" font-size="10.00">Sleep</text>
</a>
</g>
</g>
<!-- Node1&#45;&gt;Node17 -->
<g id="edge2" class="edge"><title>Node1&#45;&gt;Node17</title>
<path fill="none" stroke="midnightblue" d="M75.9048,-118.896C91.3049,-126.214 110.61,-135.253 128,-143 135.746,-146.451 144.307,-150.105 151.865,-153.277"/>
<polygon fill="midnightblue" stroke="midnightblue" points="77.4054,-115.734 66.8726,-114.588 74.3922,-122.052 77.4054,-115.734"/>
</g>
<!-- Node18 -->
<g id="node4" class="node"><title>Node18</title>
<g id="a_node4"><a xlink:href="twid_8c.xhtml#a13f06b4cc25a29302d3c932e82136599" target="_top" xlink:title="Asynchronously reads data from a slave on the TWI bus. ">
<polygon fill="white" stroke="red" points="140,-114.5 140,-133.5 208,-133.5 208,-114.5 140,-114.5"/>
<text text-anchor="middle" x="174" y="-121.5" font-family="Helvetica,sans-Serif" font-size="10.00">TWID_Read</text>
</a>
</g>
</g>
<!-- Node1&#45;&gt;Node18 -->
<g id="edge3" class="edge"><title>Node1&#45;&gt;Node18</title>
<path fill="none" stroke="midnightblue" d="M102.227,-113.328C114.98,-115.251 128.164,-117.239 139.646,-118.97"/>
<polygon fill="midnightblue" stroke="midnightblue" points="102.543,-109.836 92.133,-111.806 101.499,-116.758 102.543,-109.836"/>
</g>
<!-- Node26 -->
<g id="node5" class="node"><title>Node26</title>
<g id="a_node5"><a xlink:href="twid_8c.xhtml#a67c6f278372fcb213e7848929db89d3f" target="_top" xlink:title="Asynchronously sends data to a slave on the TWI bus. ">
<polygon fill="white" stroke="red" points="140,-76.5 140,-95.5 208,-95.5 208,-76.5 140,-76.5"/>
<text text-anchor="middle" x="174" y="-83.5" font-family="Helvetica,sans-Serif" font-size="10.00">TWID_Write</text>
</a>
</g>
</g>
<!-- Node1&#45;&gt;Node26 -->
<g id="edge4" class="edge"><title>Node1&#45;&gt;Node26</title>
<path fill="none" stroke="midnightblue" d="M102.227,-96.6721C114.98,-94.7491 128.164,-92.761 139.646,-91.0295"/>
<polygon fill="midnightblue" stroke="midnightblue" points="101.499,-93.2422 92.133,-98.1942 102.543,-100.164 101.499,-93.2422"/>
</g>
<!-- Node32 -->
<g id="node6" class="node"><title>Node32</title>
<g id="a_node6"><a xlink:href="twid_8c.xhtml#aa58a543bbbb8570c4136811e16d2be11" target="_top" xlink:title="Asynchronously reads data from a slave on the TWI bus. ">
<polygon fill="white" stroke="black" points="128,-38.5 128,-57.5 220,-57.5 220,-38.5 128,-38.5"/>
<text text-anchor="middle" x="174" y="-45.5" font-family="Helvetica,sans-Serif" font-size="10.00">TWID_DmaRead</text>
</a>
</g>
</g>
<!-- Node1&#45;&gt;Node32 -->
<g id="edge5" class="edge"><title>Node1&#45;&gt;Node32</title>
<path fill="none" stroke="midnightblue" d="M75.9048,-91.1044C91.3049,-83.786 110.61,-74.7469 128,-67 134.972,-63.8942 142.603,-60.6239 149.569,-57.6885"/>
<polygon fill="midnightblue" stroke="midnightblue" points="74.3922,-87.948 66.8726,-95.4117 77.4054,-94.2663 74.3922,-87.948"/>
</g>
<!-- Node33 -->
<g id="node7" class="node"><title>Node33</title>
<g id="a_node7"><a xlink:href="twid_8c.xhtml#a610f1dadb4046085412fe8c2817e16b1" target="_top" xlink:title="Asynchronously sends data to a slave on the TWI bus. ">
<polygon fill="white" stroke="black" points="128,-0.5 128,-19.5 220,-19.5 220,-0.5 128,-0.5"/>
<text text-anchor="middle" x="174" y="-7.5" font-family="Helvetica,sans-Serif" font-size="10.00">TWID_DmaWrite</text>
</a>
</g>
</g>
<!-- Node1&#45;&gt;Node33 -->
<g id="edge6" class="edge"><title>Node1&#45;&gt;Node33</title>
<path fill="none" stroke="midnightblue" d="M62.1796,-87.5406C77.4663,-70.7899 102.394,-45.6498 128,-29 133.545,-25.3942 139.889,-22.2218 146.03,-19.5535"/>
<polygon fill="midnightblue" stroke="midnightblue" points="59.1678,-85.6582 55.112,-95.446 64.3863,-90.3237 59.1678,-85.6582"/>
</g>
</g>
</svg>
