<?xml version="1.0" encoding="UTF-8" standalone="no"?>
<!DOCTYPE svg PUBLIC "-//W3C//DTD SVG 1.1//EN"
 "http://www.w3.org/Graphics/SVG/1.1/DTD/svg11.dtd">
<!-- Generated by graphviz version 2.38.0 (20140413.2041)
 -->
<!-- Title: TRACE_CONFIGURE Pages: 1 -->
<svg width="360pt" height="47pt"
 viewBox="0.00 0.00 360.00 47.00" xmlns="http://www.w3.org/2000/svg" xmlns:xlink="http://www.w3.org/1999/xlink">
<g id="graph0" class="graph" transform="scale(1 1) rotate(0) translate(4 43)">
<title>TRACE_CONFIGURE</title>
<polygon fill="white" stroke="none" points="-4,4 -4,-43 356,-43 356,4 -4,4"/>
<!-- Node0 -->
<g id="node1" class="node"><title>Node0</title>
<polygon fill="#bfbfbf" stroke="black" points="0,-19.5 0,-38.5 108,-38.5 108,-19.5 0,-19.5"/>
<text text-anchor="middle" x="54" y="-26.5" font-family="Helvetica,sans-Serif" font-size="10.00">TRACE_CONFIGURE</text>
</g>
<!-- Node1 -->
<g id="node2" class="node"><title>Node1</title>
<g id="a_node2"><a xlink:href="pio_8h.xhtml#a1bb66b931fa38004c2178936c269fa76" target="_top" xlink:title="Configures a list of Pin instances, each of which can either hold a single pin or a group of pins...">
<polygon fill="white" stroke="red" points="269,-19.5 269,-38.5 352,-38.5 352,-19.5 269,-19.5"/>
<text text-anchor="middle" x="310.5" y="-26.5" font-family="Helvetica,sans-Serif" font-size="10.00">PIO_Configure</text>
</a>
</g>
</g>
<!-- Node0&#45;&gt;Node1 -->
<g id="edge1" class="edge"><title>Node0&#45;&gt;Node1</title>
<path fill="none" stroke="midnightblue" d="M108.042,-29C152.277,-29 214.904,-29 258.547,-29"/>
<polygon fill="midnightblue" stroke="midnightblue" points="258.659,-32.5001 268.659,-29 258.659,-25.5001 258.659,-32.5001"/>
</g>
<!-- Node9 -->
<g id="node3" class="node"><title>Node9</title>
<g id="a_node3"><a xlink:href="dbg__console_8h.xhtml#a7fd93dda53e8b074935d6ece79bc0396" target="_top" xlink:title="Configures an USART peripheral with the specified parameters. ">
<polygon fill="white" stroke="red" points="144,-0.5 144,-19.5 233,-19.5 233,-0.5 144,-0.5"/>
<text text-anchor="middle" x="188.5" y="-7.5" font-family="Helvetica,sans-Serif" font-size="10.00">DBG_Configure</text>
</a>
</g>
</g>
<!-- Node0&#45;&gt;Node9 -->
<g id="edge2" class="edge"><title>Node0&#45;&gt;Node9</title>
<path fill="none" stroke="midnightblue" d="M108.129,-21.3815C116.524,-20.1777 125.211,-18.932 133.622,-17.7259"/>
<polygon fill="midnightblue" stroke="midnightblue" points="134.305,-21.1638 143.707,-16.2797 133.312,-14.2347 134.305,-21.1638"/>
</g>
<!-- Node9&#45;&gt;Node1 -->
<g id="edge3" class="edge"><title>Node9&#45;&gt;Node1</title>
<path fill="none" stroke="midnightblue" d="M233.162,-16.9132C241.543,-18.2402 250.384,-19.64 258.961,-20.998"/>
<polygon fill="midnightblue" stroke="midnightblue" points="258.44,-24.459 268.864,-22.566 259.535,-17.5451 258.44,-24.459"/>
</g>
</g>
</svg>
