<?xml version="1.0" encoding="UTF-8" standalone="no"?>
<!DOCTYPE svg PUBLIC "-//W3C//DTD SVG 1.1//EN"
 "http://www.w3.org/Graphics/SVG/1.1/DTD/svg11.dtd">
<!-- Generated by graphviz version 2.38.0 (20140413.2041)
 -->
<!-- Title: src/hal/x4m0x_s70/libraries/libchip/include/trace.h Pages: 1 -->
<svg width="154pt" height="95pt"
 viewBox="0.00 0.00 154.00 95.00" xmlns="http://www.w3.org/2000/svg" xmlns:xlink="http://www.w3.org/1999/xlink">
<g id="graph0" class="graph" transform="scale(1 1) rotate(0) translate(4 91)">
<title>src/hal/x4m0x_s70/libraries/libchip/include/trace.h</title>
<polygon fill="white" stroke="none" points="-4,4 -4,-91 150,-91 150,4 -4,4"/>
<!-- Node0 -->
<g id="node1" class="node"><title>Node0</title>
<polygon fill="#bfbfbf" stroke="black" points="0,-56.5 0,-86.5 146,-86.5 146,-56.5 0,-56.5"/>
<text text-anchor="start" x="8" y="-74.5" font-family="Helvetica,sans-Serif" font-size="10.00">src/hal/x4m0x_s70/libraries</text>
<text text-anchor="middle" x="73" y="-63.5" font-family="Helvetica,sans-Serif" font-size="10.00">/libchip/include/trace.h</text>
</g>
<!-- Node1 -->
<g id="node2" class="node"><title>Node1</title>
<g id="a_node2"><a xlink:href="pio_8h.xhtml" target="_top" xlink:title="pio.h">
<polygon fill="white" stroke="red" points="22,-0.5 22,-19.5 62,-19.5 62,-0.5 22,-0.5"/>
<text text-anchor="middle" x="42" y="-7.5" font-family="Helvetica,sans-Serif" font-size="10.00">pio.h</text>
</a>
</g>
</g>
<!-- Node0&#45;&gt;Node1 -->
<g id="edge1" class="edge"><title>Node0&#45;&gt;Node1</title>
<path fill="none" stroke="midnightblue" d="M65.6534,-56.3993C61.3345,-48.1098 55.8349,-37.5542 51.2258,-28.7077"/>
<polygon fill="midnightblue" stroke="midnightblue" points="54.2354,-26.9091 46.5108,-19.6578 48.0274,-30.1435 54.2354,-26.9091"/>
</g>
<!-- Node37 -->
<g id="node3" class="node"><title>Node37</title>
<polygon fill="white" stroke="#bfbfbf" points="80.5,-0.5 80.5,-19.5 129.5,-19.5 129.5,-0.5 80.5,-0.5"/>
<text text-anchor="middle" x="105" y="-7.5" font-family="Helvetica,sans-Serif" font-size="10.00">stdio.h</text>
</g>
<!-- Node0&#45;&gt;Node37 -->
<g id="edge2" class="edge"><title>Node0&#45;&gt;Node37</title>
<path fill="none" stroke="midnightblue" d="M80.5836,-56.3993C85.0418,-48.1098 90.7188,-37.5542 95.4766,-28.7077"/>
<polygon fill="midnightblue" stroke="midnightblue" points="98.6896,-30.1227 100.344,-19.6578 92.5246,-26.8071 98.6896,-30.1227"/>
</g>
</g>
</svg>
