<?xml version="1.0" encoding="UTF-8" standalone="no"?>
<!DOCTYPE svg PUBLIC "-//W3C//DTD SVG 1.1//EN"
 "http://www.w3.org/Graphics/SVG/1.1/DTD/svg11.dtd">
<!-- Generated by graphviz version 2.38.0 (20140413.2041)
 -->
<!-- Title: TWI_ReadByte Pages: 1 -->
<svg width="222pt" height="180pt"
 viewBox="0.00 0.00 222.00 180.00" xmlns="http://www.w3.org/2000/svg" xmlns:xlink="http://www.w3.org/1999/xlink">
<g id="graph0" class="graph" transform="scale(1 1) rotate(0) translate(4 176)">
<title>TWI_ReadByte</title>
<polygon fill="white" stroke="none" points="-4,4 -4,-176 218,-176 218,4 -4,4"/>
<!-- Node75 -->
<g id="node1" class="node"><title>Node75</title>
<polygon fill="#bfbfbf" stroke="black" points="0,-76.5 0,-95.5 83,-95.5 83,-76.5 0,-76.5"/>
<text text-anchor="middle" x="41.5" y="-83.5" font-family="Helvetica,sans-Serif" font-size="10.00">TWI_ReadByte</text>
</g>
<!-- Node76 -->
<g id="node2" class="node"><title>Node76</title>
<g id="a_node2"><a xlink:href="twid_8c.xhtml#a1bc4824729ea7fce14e514036ee38490" target="_top" xlink:title="Interrupt handler for a TWI peripheral. ">
<polygon fill="white" stroke="black" points="125,-152.5 125,-171.5 208,-171.5 208,-152.5 125,-152.5"/>
<text text-anchor="middle" x="166.5" y="-159.5" font-family="Helvetica,sans-Serif" font-size="10.00">TWID_Handler</text>
</a>
</g>
</g>
<!-- Node75&#45;&gt;Node76 -->
<g id="edge1" class="edge"><title>Node75&#45;&gt;Node76</title>
<path fill="none" stroke="midnightblue" d="M61.7589,-102.505C76.6896,-114.752 98.2647,-131.289 119,-143 125.227,-146.517 132.235,-149.73 138.886,-152.473"/>
<polygon fill="midnightblue" stroke="midnightblue" points="63.7131,-99.5772 53.7923,-95.8585 59.2287,-104.952 63.7131,-99.5772"/>
</g>
<!-- Node77 -->
<g id="node3" class="node"><title>Node77</title>
<g id="a_node3"><a xlink:href="twid_8c.xhtml#a13f06b4cc25a29302d3c932e82136599" target="_top" xlink:title="Asynchronously reads data from a slave on the TWI bus. ">
<polygon fill="white" stroke="red" points="132.5,-114.5 132.5,-133.5 200.5,-133.5 200.5,-114.5 132.5,-114.5"/>
<text text-anchor="middle" x="166.5" y="-121.5" font-family="Helvetica,sans-Serif" font-size="10.00">TWID_Read</text>
</a>
</g>
</g>
<!-- Node75&#45;&gt;Node77 -->
<g id="edge2" class="edge"><title>Node75&#45;&gt;Node77</title>
<path fill="none" stroke="midnightblue" d="M83.5445,-98.6804C100.164,-103.815 119.032,-109.644 134.472,-114.414"/>
<polygon fill="midnightblue" stroke="midnightblue" points="84.1257,-95.1968 73.5381,-95.589 82.0594,-101.885 84.1257,-95.1968"/>
</g>
<!-- Node86 -->
<g id="node4" class="node"><title>Node86</title>
<g id="a_node4"><a xlink:href="twid_8c.xhtml#aa58a543bbbb8570c4136811e16d2be11" target="_top" xlink:title="Asynchronously reads data from a slave on the TWI bus. ">
<polygon fill="white" stroke="black" points="120.5,-76.5 120.5,-95.5 212.5,-95.5 212.5,-76.5 120.5,-76.5"/>
<text text-anchor="middle" x="166.5" y="-83.5" font-family="Helvetica,sans-Serif" font-size="10.00">TWID_DmaRead</text>
</a>
</g>
</g>
<!-- Node75&#45;&gt;Node86 -->
<g id="edge3" class="edge"><title>Node75&#45;&gt;Node86</title>
<path fill="none" stroke="midnightblue" d="M93.3868,-86C102.296,-86 111.511,-86 120.255,-86"/>
<polygon fill="midnightblue" stroke="midnightblue" points="93.1157,-82.5001 83.1157,-86 93.1157,-89.5001 93.1157,-82.5001"/>
</g>
<!-- Node87 -->
<g id="node5" class="node"><title>Node87</title>
<g id="a_node5"><a xlink:href="xtio__i2c_8h.xhtml#a7b0e666ddfaac918eb931d278b66559c" target="_top" xlink:title="xtio_i2c_init">
<polygon fill="white" stroke="red" points="130.5,-38.5 130.5,-57.5 202.5,-57.5 202.5,-38.5 130.5,-38.5"/>
<text text-anchor="middle" x="166.5" y="-45.5" font-family="Helvetica,sans-Serif" font-size="10.00">xtio_i2c_init</text>
</a>
</g>
</g>
<!-- Node75&#45;&gt;Node87 -->
<g id="edge4" class="edge"><title>Node75&#45;&gt;Node87</title>
<path fill="none" stroke="midnightblue" d="M83.5445,-73.3196C100.164,-68.1852 119.032,-62.3559 134.472,-57.5859"/>
<polygon fill="midnightblue" stroke="midnightblue" points="82.0594,-70.1151 73.5381,-76.411 84.1257,-76.8032 82.0594,-70.1151"/>
</g>
<!-- Node93 -->
<g id="node6" class="node"><title>Node93</title>
<g id="a_node6"><a xlink:href="group___s_a_m_e70_n19__cmsis.xhtml#ga29c3d5f43aaca36cf4529d56917f9706" target="_top" xlink:title="TWIHS2_Handler">
<polygon fill="white" stroke="black" points="119,-0.5 119,-19.5 214,-19.5 214,-0.5 119,-0.5"/>
<text text-anchor="middle" x="166.5" y="-7.5" font-family="Helvetica,sans-Serif" font-size="10.00">TWIHS2_Handler</text>
</a>
</g>
</g>
<!-- Node75&#45;&gt;Node93 -->
<g id="edge5" class="edge"><title>Node75&#45;&gt;Node93</title>
<path fill="none" stroke="midnightblue" d="M61.7589,-69.495C76.6896,-57.2476 98.2647,-40.7111 119,-29 125.227,-25.4833 132.235,-22.27 138.886,-19.5267"/>
<polygon fill="midnightblue" stroke="midnightblue" points="59.2287,-67.0478 53.7923,-76.1415 63.7131,-72.4228 59.2287,-67.0478"/>
</g>
</g>
</svg>
