<?xml version="1.0" encoding="UTF-8" standalone="no"?>
<!DOCTYPE svg PUBLIC "-//W3C//DTD SVG 1.1//EN"
 "http://www.w3.org/Graphics/SVG/1.1/DTD/svg11.dtd">
<!-- Generated by graphviz version 2.38.0 (20140413.2041)
 -->
<!-- Title: TWI_DisableIt Pages: 1 -->
<svg width="218pt" height="66pt"
 viewBox="0.00 0.00 218.00 66.00" xmlns="http://www.w3.org/2000/svg" xmlns:xlink="http://www.w3.org/1999/xlink">
<g id="graph0" class="graph" transform="scale(1 1) rotate(0) translate(4 62)">
<title>TWI_DisableIt</title>
<polygon fill="white" stroke="none" points="-4,4 -4,-62 214,-62 214,4 -4,4"/>
<!-- Node36 -->
<g id="node1" class="node"><title>Node36</title>
<polygon fill="#bfbfbf" stroke="black" points="0,-19.5 0,-38.5 79,-38.5 79,-19.5 0,-19.5"/>
<text text-anchor="middle" x="39.5" y="-26.5" font-family="Helvetica,sans-Serif" font-size="10.00">TWI_DisableIt</text>
</g>
<!-- Node37 -->
<g id="node2" class="node"><title>Node37</title>
<g id="a_node2"><a xlink:href="twid_8c.xhtml#a1bc4824729ea7fce14e514036ee38490" target="_top" xlink:title="Interrupt handler for a TWI peripheral. ">
<polygon fill="white" stroke="black" points="121,-38.5 121,-57.5 204,-57.5 204,-38.5 121,-38.5"/>
<text text-anchor="middle" x="162.5" y="-45.5" font-family="Helvetica,sans-Serif" font-size="10.00">TWID_Handler</text>
</a>
</g>
</g>
<!-- Node36&#45;&gt;Node37 -->
<g id="edge1" class="edge"><title>Node36&#45;&gt;Node37</title>
<path fill="none" stroke="midnightblue" d="M89.0083,-36.617C99.531,-38.2693 110.558,-40.0008 120.746,-41.6006"/>
<polygon fill="midnightblue" stroke="midnightblue" points="89.5398,-33.1576 79.1178,-35.064 88.4538,-40.0729 89.5398,-33.1576"/>
</g>
<!-- Node38 -->
<g id="node3" class="node"><title>Node38</title>
<g id="a_node3"><a xlink:href="group___s_a_m_e70_n19__cmsis.xhtml#ga29c3d5f43aaca36cf4529d56917f9706" target="_top" xlink:title="TWIHS2_Handler">
<polygon fill="white" stroke="black" points="115,-0.5 115,-19.5 210,-19.5 210,-0.5 115,-0.5"/>
<text text-anchor="middle" x="162.5" y="-7.5" font-family="Helvetica,sans-Serif" font-size="10.00">TWIHS2_Handler</text>
</a>
</g>
</g>
<!-- Node36&#45;&gt;Node38 -->
<g id="edge2" class="edge"><title>Node36&#45;&gt;Node38</title>
<path fill="none" stroke="midnightblue" d="M89.205,-21.3521C97.6421,-20.0273 106.398,-18.6524 114.78,-17.3361"/>
<polygon fill="midnightblue" stroke="midnightblue" points="88.4538,-17.9271 79.1178,-22.936 89.5398,-24.8424 88.4538,-17.9271"/>
</g>
</g>
</svg>
