<?xml version="1.0" encoding="UTF-8" standalone="no"?>
<!DOCTYPE svg PUBLIC "-//W3C//DTD SVG 1.1//EN"
 "http://www.w3.org/Graphics/SVG/1.1/DTD/svg11.dtd">
<!-- Generated by graphviz version 2.38.0 (20140413.2041)
 -->
<!-- Title: TWI_SendSTOPCondition Pages: 1 -->
<svg width="260pt" height="66pt"
 viewBox="0.00 0.00 260.00 66.00" xmlns="http://www.w3.org/2000/svg" xmlns:xlink="http://www.w3.org/1999/xlink">
<g id="graph0" class="graph" transform="scale(1 1) rotate(0) translate(4 62)">
<title>TWI_SendSTOPCondition</title>
<polygon fill="white" stroke="none" points="-4,4 -4,-62 256,-62 256,4 -4,4"/>
<!-- Node95 -->
<g id="node1" class="node"><title>Node95</title>
<polygon fill="#bfbfbf" stroke="black" points="0,-19.5 0,-38.5 133,-38.5 133,-19.5 0,-19.5"/>
<text text-anchor="middle" x="66.5" y="-26.5" font-family="Helvetica,sans-Serif" font-size="10.00">TWI_SendSTOPCondition</text>
</g>
<!-- Node96 -->
<g id="node2" class="node"><title>Node96</title>
<g id="a_node2"><a xlink:href="twid_8c.xhtml#a1bc4824729ea7fce14e514036ee38490" target="_top" xlink:title="Interrupt handler for a TWI peripheral. ">
<polygon fill="white" stroke="black" points="169,-38.5 169,-57.5 252,-57.5 252,-38.5 169,-38.5"/>
<text text-anchor="middle" x="210.5" y="-45.5" font-family="Helvetica,sans-Serif" font-size="10.00">TWID_Handler</text>
</a>
</g>
</g>
<!-- Node95&#45;&gt;Node96 -->
<g id="edge1" class="edge"><title>Node95&#45;&gt;Node96</title>
<path fill="none" stroke="midnightblue" d="M143.129,-39.1194C152.006,-40.3071 160.785,-41.4818 168.909,-42.5689"/>
<polygon fill="midnightblue" stroke="midnightblue" points="143.472,-35.6342 133.096,-37.777 142.544,-42.5724 143.472,-35.6342"/>
</g>
<!-- Node97 -->
<g id="node3" class="node"><title>Node97</title>
<g id="a_node3"><a xlink:href="twid_8c.xhtml#a67c6f278372fcb213e7848929db89d3f" target="_top" xlink:title="Asynchronously sends data to a slave on the TWI bus. ">
<polygon fill="white" stroke="red" points="176.5,-0.5 176.5,-19.5 244.5,-19.5 244.5,-0.5 176.5,-0.5"/>
<text text-anchor="middle" x="210.5" y="-7.5" font-family="Helvetica,sans-Serif" font-size="10.00">TWID_Write</text>
</a>
</g>
</g>
<!-- Node95&#45;&gt;Node97 -->
<g id="edge2" class="edge"><title>Node95&#45;&gt;Node97</title>
<path fill="none" stroke="midnightblue" d="M143.29,-18.8591C154.874,-17.3091 166.288,-15.7819 176.29,-14.4436"/>
<polygon fill="midnightblue" stroke="midnightblue" points="142.544,-15.4276 133.096,-20.223 143.472,-22.3658 142.544,-15.4276"/>
</g>
</g>
</svg>
