<?xml version="1.0" encoding="UTF-8" standalone="no"?>
<!DOCTYPE svg PUBLIC "-//W3C//DTD SVG 1.1//EN"
 "http://www.w3.org/Graphics/SVG/1.1/DTD/svg11.dtd">
<!-- Generated by graphviz version 2.38.0 (20140413.2041)
 -->
<!-- Title: TWID_Read Pages: 1 -->
<svg width="227pt" height="104pt"
 viewBox="0.00 0.00 227.00 104.00" xmlns="http://www.w3.org/2000/svg" xmlns:xlink="http://www.w3.org/1999/xlink">
<g id="graph0" class="graph" transform="scale(1 1) rotate(0) translate(4 100)">
<title>TWID_Read</title>
<polygon fill="white" stroke="none" points="-4,4 -4,-100 223,-100 223,4 -4,4"/>
<!-- Node128 -->
<g id="node1" class="node"><title>Node128</title>
<polygon fill="#bfbfbf" stroke="black" points="0,-38.5 0,-57.5 68,-57.5 68,-38.5 0,-38.5"/>
<text text-anchor="middle" x="34" y="-45.5" font-family="Helvetica,sans-Serif" font-size="10.00">TWID_Read</text>
</g>
<!-- Node129 -->
<g id="node2" class="node"><title>Node129</title>
<g id="a_node2"><a xlink:href="cs2100_8c.xhtml#a16e288e113d69ed1763ad12111a1b125" target="_top" xlink:title="Read data from CS2100 Register. ">
<polygon fill="white" stroke="red" points="120,-76.5 120,-95.5 203,-95.5 203,-76.5 120,-76.5"/>
<text text-anchor="middle" x="161.5" y="-83.5" font-family="Helvetica,sans-Serif" font-size="10.00">CS2100_Read</text>
</a>
</g>
</g>
<!-- Node128&#45;&gt;Node129 -->
<g id="edge1" class="edge"><title>Node128&#45;&gt;Node129</title>
<path fill="none" stroke="midnightblue" d="M76.3995,-60.5353C93.4723,-65.7048 112.939,-71.5991 128.841,-76.4141"/>
<polygon fill="midnightblue" stroke="midnightblue" points="77.2541,-57.1372 66.6689,-57.589 75.2255,-63.8368 77.2541,-57.1372"/>
</g>
<!-- Node131 -->
<g id="node3" class="node"><title>Node131</title>
<g id="a_node3"><a xlink:href="image__sensor__inf_8c.xhtml#abe9e6dc18918dcc4f76a7316ebdb44c4" target="_top" xlink:title="Read value from a register in an dedicated sensor device. ">
<polygon fill="white" stroke="red" points="104,-38.5 104,-57.5 219,-57.5 219,-38.5 104,-38.5"/>
<text text-anchor="middle" x="161.5" y="-45.5" font-family="Helvetica,sans-Serif" font-size="10.00">sensor_twi_read_reg</text>
</a>
</g>
</g>
<!-- Node128&#45;&gt;Node131 -->
<g id="edge2" class="edge"><title>Node128&#45;&gt;Node131</title>
<path fill="none" stroke="midnightblue" d="M78.3603,-48C86.5448,-48 95.2173,-48 103.741,-48"/>
<polygon fill="midnightblue" stroke="midnightblue" points="78.3022,-44.5001 68.3022,-48 78.3022,-51.5001 78.3022,-44.5001"/>
</g>
<!-- Node135 -->
<g id="node4" class="node"><title>Node135</title>
<g id="a_node4"><a xlink:href="wm8904_8c.xhtml#ad6e77da6ab43aae0962183aa6bcd4700" target="_top" xlink:title="Read data from WM8904 Register. ">
<polygon fill="white" stroke="red" points="118.5,-0.5 118.5,-19.5 204.5,-19.5 204.5,-0.5 118.5,-0.5"/>
<text text-anchor="middle" x="161.5" y="-7.5" font-family="Helvetica,sans-Serif" font-size="10.00">WM8904_Read</text>
</a>
</g>
</g>
<!-- Node128&#45;&gt;Node135 -->
<g id="edge3" class="edge"><title>Node128&#45;&gt;Node135</title>
<path fill="none" stroke="midnightblue" d="M76.3995,-35.4647C93.4723,-30.2952 112.939,-24.4009 128.841,-19.5859"/>
<polygon fill="midnightblue" stroke="midnightblue" points="75.2255,-32.1632 66.6689,-38.411 77.2541,-38.8628 75.2255,-32.1632"/>
</g>
</g>
</svg>
