<?xml version="1.0" encoding="UTF-8" standalone="no"?>
<!DOCTYPE svg PUBLIC "-//W3C//DTD SVG 1.1//EN"
 "http://www.w3.org/Graphics/SVG/1.1/DTD/svg11.dtd">
<!-- Generated by graphviz version 2.38.0 (20140413.2041)
 -->
<!-- Title: UART_PutChar Pages: 1 -->
<svg width="223pt" height="66pt"
 viewBox="0.00 0.00 223.00 66.00" xmlns="http://www.w3.org/2000/svg" xmlns:xlink="http://www.w3.org/1999/xlink">
<g id="graph0" class="graph" transform="scale(1 1) rotate(0) translate(4 62)">
<title>UART_PutChar</title>
<polygon fill="white" stroke="none" points="-4,4 -4,-62 219,-62 219,4 -4,4"/>
<!-- Node29 -->
<g id="node1" class="node"><title>Node29</title>
<polygon fill="#bfbfbf" stroke="black" points="0,-19.5 0,-38.5 85,-38.5 85,-19.5 0,-19.5"/>
<text text-anchor="middle" x="42.5" y="-26.5" font-family="Helvetica,sans-Serif" font-size="10.00">UART_PutChar</text>
</g>
<!-- Node30 -->
<g id="node2" class="node"><title>Node30</title>
<g id="a_node2"><a xlink:href="uart_8c.xhtml#a00e60c418f3031062060215af67aa3e1" target="_top" xlink:title="Return 1 if a character can be read in UART. ">
<polygon fill="white" stroke="black" points="121,-38.5 121,-57.5 215,-57.5 215,-38.5 121,-38.5"/>
<text text-anchor="middle" x="168" y="-45.5" font-family="Helvetica,sans-Serif" font-size="10.00">UART_IsRxReady</text>
</a>
</g>
</g>
<!-- Node29&#45;&gt;Node30 -->
<g id="edge1" class="edge"><title>Node29&#45;&gt;Node30</title>
<path fill="none" stroke="midnightblue" d="M85.3115,-35.4325C93.56,-36.7015 102.34,-38.0524 110.97,-39.38"/>
<polygon fill="midnightblue" stroke="midnightblue" points="110.575,-42.8604 120.991,-40.9217 111.64,-35.9418 110.575,-42.8604"/>
</g>
<!-- Node31 -->
<g id="node3" class="node"><title>Node31</title>
<g id="a_node3"><a xlink:href="uart_8c.xhtml#a0e1ced71e618555dec64e649c8035124" target="_top" xlink:title="Return 1 if a character can be send to UART. ">
<polygon fill="white" stroke="black" points="124.5,-0.5 124.5,-19.5 211.5,-19.5 211.5,-0.5 124.5,-0.5"/>
<text text-anchor="middle" x="168" y="-7.5" font-family="Helvetica,sans-Serif" font-size="10.00">UART_IsTxSent</text>
</a>
</g>
</g>
<!-- Node29&#45;&gt;Node31 -->
<g id="edge2" class="edge"><title>Node29&#45;&gt;Node31</title>
<path fill="none" stroke="midnightblue" d="M85.3115,-22.5675C94.66,-21.1292 104.691,-19.5859 114.413,-18.0903"/>
<polygon fill="midnightblue" stroke="midnightblue" points="115.039,-21.5353 124.39,-16.5553 113.974,-14.6167 115.039,-21.5353"/>
</g>
</g>
</svg>
