<?xml version="1.0" encoding="UTF-8" standalone="no"?>
<!DOCTYPE svg PUBLIC "-//W3C//DTD SVG 1.1//EN"
 "http://www.w3.org/Graphics/SVG/1.1/DTD/svg11.dtd">
<!-- Generated by graphviz version 2.38.0 (20140413.2041)
 -->
<!-- Title: _configureUartTxDma Pages: 1 -->
<svg width="323pt" height="104pt"
 viewBox="0.00 0.00 323.00 104.00" xmlns="http://www.w3.org/2000/svg" xmlns:xlink="http://www.w3.org/1999/xlink">
<g id="graph0" class="graph" transform="scale(1 1) rotate(0) translate(4 100)">
<title>_configureUartTxDma</title>
<polygon fill="white" stroke="none" points="-4,4 -4,-100 319,-100 319,4 -4,4"/>
<!-- Node22 -->
<g id="node1" class="node"><title>Node22</title>
<polygon fill="#bfbfbf" stroke="black" points="0,-38.5 0,-57.5 121,-57.5 121,-38.5 0,-38.5"/>
<text text-anchor="middle" x="60.5" y="-45.5" font-family="Helvetica,sans-Serif" font-size="10.00">_configureUartTxDma</text>
</g>
<!-- Node23 -->
<g id="node2" class="node"><title>Node23</title>
<g id="a_node2"><a xlink:href="xdma__hardware__interface_8h.xhtml#a1c7e741165685b3e072aa75e4cfb1034" target="_top" xlink:title="Get peripheral identifier coded for hardware handshaking interface. ">
<polygon fill="white" stroke="red" points="157,-76.5 157,-95.5 315,-95.5 315,-76.5 157,-76.5"/>
<text text-anchor="middle" x="236" y="-83.5" font-family="Helvetica,sans-Serif" font-size="10.00">XDMAIF_Get_ChannelNumber</text>
</a>
</g>
</g>
<!-- Node22&#45;&gt;Node23 -->
<g id="edge1" class="edge"><title>Node22&#45;&gt;Node23</title>
<path fill="none" stroke="midnightblue" d="M105.281,-57.589C128.486,-62.6713 157.178,-68.9554 181.673,-74.3203"/>
<polygon fill="midnightblue" stroke="midnightblue" points="181.016,-77.7593 191.533,-76.4799 182.514,-70.9214 181.016,-77.7593"/>
</g>
<!-- Node25 -->
<g id="node3" class="node"><title>Node25</title>
<g id="a_node3"><a xlink:href="group___c_m_s_i_s___core___cache_functions.xhtml#ga696fadbf7b9cc71dad42fab61873a40d" target="_top" xlink:title="SCB_CleanDCache_by_Addr">
<polygon fill="white" stroke="red" points="160.5,-38.5 160.5,-57.5 311.5,-57.5 311.5,-38.5 160.5,-38.5"/>
<text text-anchor="middle" x="236" y="-45.5" font-family="Helvetica,sans-Serif" font-size="10.00">SCB_CleanDCache_by_Addr</text>
</a>
</g>
</g>
<!-- Node22&#45;&gt;Node25 -->
<g id="edge2" class="edge"><title>Node22&#45;&gt;Node25</title>
<path fill="none" stroke="midnightblue" d="M121.209,-48C130.594,-48 140.448,-48 150.267,-48"/>
<polygon fill="midnightblue" stroke="midnightblue" points="150.467,-51.5001 160.467,-48 150.467,-44.5001 150.467,-51.5001"/>
</g>
<!-- Node28 -->
<g id="node4" class="node"><title>Node28</title>
<g id="a_node4"><a xlink:href="group__dmad__functions.xhtml#ga075cce3b88af1fff5064218720811fc0" target="_top" xlink:title="Configure DMA for a single transfer. ">
<polygon fill="white" stroke="red" points="165.5,-0.5 165.5,-19.5 306.5,-19.5 306.5,-0.5 165.5,-0.5"/>
<text text-anchor="middle" x="236" y="-7.5" font-family="Helvetica,sans-Serif" font-size="10.00">XDMAD_ConfigureTransfer</text>
</a>
</g>
</g>
<!-- Node22&#45;&gt;Node28 -->
<g id="edge3" class="edge"><title>Node22&#45;&gt;Node28</title>
<path fill="none" stroke="midnightblue" d="M105.281,-38.411C128.486,-33.3287 157.178,-27.0446 181.673,-21.6797"/>
<polygon fill="midnightblue" stroke="midnightblue" points="182.514,-25.0786 191.533,-19.5201 181.016,-18.2407 182.514,-25.0786"/>
</g>
</g>
</svg>
