<?xml version="1.0" encoding="UTF-8" standalone="no"?>
<!DOCTYPE svg PUBLIC "-//W3C//DTD SVG 1.1//EN"
 "http://www.w3.org/Graphics/SVG/1.1/DTD/svg11.dtd">
<!-- Generated by graphviz version 2.38.0 (20140413.2041)
 -->
<!-- Title: UART_SetReceiverEnabled Pages: 1 -->
<svg width="330pt" height="66pt"
 viewBox="0.00 0.00 330.00 66.00" xmlns="http://www.w3.org/2000/svg" xmlns:xlink="http://www.w3.org/1999/xlink">
<g id="graph0" class="graph" transform="scale(1 1) rotate(0) translate(4 62)">
<title>UART_SetReceiverEnabled</title>
<polygon fill="white" stroke="none" points="-4,4 -4,-62 326,-62 326,4 -4,4"/>
<!-- Node44 -->
<g id="node1" class="node"><title>Node44</title>
<polygon fill="#bfbfbf" stroke="black" points="0,-19.5 0,-38.5 141,-38.5 141,-19.5 0,-19.5"/>
<text text-anchor="middle" x="70.5" y="-26.5" font-family="Helvetica,sans-Serif" font-size="10.00">UART_SetReceiverEnabled</text>
</g>
<!-- Node45 -->
<g id="node2" class="node"><title>Node45</title>
<g id="a_node2"><a xlink:href="uart__dma_8c.xhtml#a67f71ddf9448a9404427f880e3063664" target="_top" xlink:title="This function initialize the appropriate DMA channel for Rx channel of UART. ">
<polygon fill="white" stroke="black" points="178.5,-38.5 178.5,-57.5 320.5,-57.5 320.5,-38.5 178.5,-38.5"/>
<text text-anchor="middle" x="249.5" y="-45.5" font-family="Helvetica,sans-Serif" font-size="10.00">UARTD_EnableRxChannels</text>
</a>
</g>
</g>
<!-- Node44&#45;&gt;Node45 -->
<g id="edge1" class="edge"><title>Node44&#45;&gt;Node45</title>
<path fill="none" stroke="midnightblue" d="M151.292,-37.5652C160.293,-38.5314 169.415,-39.5107 178.282,-40.4624"/>
<polygon fill="midnightblue" stroke="midnightblue" points="151.517,-34.0694 141.201,-36.482 150.77,-41.0294 151.517,-34.0694"/>
</g>
<!-- Node46 -->
<g id="node3" class="node"><title>Node46</title>
<g id="a_node3"><a xlink:href="uart__dma_8c.xhtml#a2e608c15e9d2dff4ca4e98f8ee417ed4" target="_top" xlink:title="This function disables the appropriate DMA channel for Rx channel of USART. ">
<polygon fill="white" stroke="black" points="177,-0.5 177,-19.5 322,-19.5 322,-0.5 177,-0.5"/>
<text text-anchor="middle" x="249.5" y="-7.5" font-family="Helvetica,sans-Serif" font-size="10.00">UARTD_DisableRxChannels</text>
</a>
</g>
</g>
<!-- Node44&#45;&gt;Node46 -->
<g id="edge2" class="edge"><title>Node44&#45;&gt;Node46</title>
<path fill="none" stroke="midnightblue" d="M151.167,-20.4481C159.717,-19.5303 168.378,-18.6006 176.827,-17.6937"/>
<polygon fill="midnightblue" stroke="midnightblue" points="150.77,-16.9706 141.201,-21.518 151.517,-23.9306 150.77,-16.9706"/>
</g>
</g>
</svg>
