<?xml version="1.0" encoding="UTF-8" standalone="no"?>
<!DOCTYPE svg PUBLIC "-//W3C//DTD SVG 1.1//EN"
 "http://www.w3.org/Graphics/SVG/1.1/DTD/svg11.dtd">
<!-- Generated by graphviz version 2.38.0 (20140413.2041)
 -->
<!-- Title: _configureUartRxDma Pages: 1 -->
<svg width="324pt" height="104pt"
 viewBox="0.00 0.00 324.00 104.00" xmlns="http://www.w3.org/2000/svg" xmlns:xlink="http://www.w3.org/1999/xlink">
<g id="graph0" class="graph" transform="scale(1 1) rotate(0) translate(4 100)">
<title>_configureUartRxDma</title>
<polygon fill="white" stroke="none" points="-4,4 -4,-100 320,-100 320,4 -4,4"/>
<!-- Node0 -->
<g id="node1" class="node"><title>Node0</title>
<polygon fill="#bfbfbf" stroke="black" points="0,-38.5 0,-57.5 122,-57.5 122,-38.5 0,-38.5"/>
<text text-anchor="middle" x="61" y="-45.5" font-family="Helvetica,sans-Serif" font-size="10.00">_configureUartRxDma</text>
</g>
<!-- Node1 -->
<g id="node2" class="node"><title>Node1</title>
<g id="a_node2"><a xlink:href="xdma__hardware__interface_8h.xhtml#a1c7e741165685b3e072aa75e4cfb1034" target="_top" xlink:title="Get peripheral identifier coded for hardware handshaking interface. ">
<polygon fill="white" stroke="red" points="158,-76.5 158,-95.5 316,-95.5 316,-76.5 158,-76.5"/>
<text text-anchor="middle" x="237" y="-83.5" font-family="Helvetica,sans-Serif" font-size="10.00">XDMAIF_Get_ChannelNumber</text>
</a>
</g>
</g>
<!-- Node0&#45;&gt;Node1 -->
<g id="edge1" class="edge"><title>Node0&#45;&gt;Node1</title>
<path fill="none" stroke="midnightblue" d="M105.908,-57.589C129.179,-62.6713 157.954,-68.9554 182.519,-74.3203"/>
<polygon fill="midnightblue" stroke="midnightblue" points="181.892,-77.7657 192.408,-76.4799 183.385,-70.9268 181.892,-77.7657"/>
</g>
<!-- Node3 -->
<g id="node3" class="node"><title>Node3</title>
<g id="a_node3"><a xlink:href="group___c_m_s_i_s___core___cache_functions.xhtml#ga696fadbf7b9cc71dad42fab61873a40d" target="_top" xlink:title="SCB_CleanDCache_by_Addr">
<polygon fill="white" stroke="red" points="161.5,-38.5 161.5,-57.5 312.5,-57.5 312.5,-38.5 161.5,-38.5"/>
<text text-anchor="middle" x="237" y="-45.5" font-family="Helvetica,sans-Serif" font-size="10.00">SCB_CleanDCache_by_Addr</text>
</a>
</g>
</g>
<!-- Node0&#45;&gt;Node3 -->
<g id="edge2" class="edge"><title>Node0&#45;&gt;Node3</title>
<path fill="none" stroke="midnightblue" d="M122.368,-48C131.693,-48 141.47,-48 151.209,-48"/>
<polygon fill="midnightblue" stroke="midnightblue" points="151.325,-51.5001 161.325,-48 151.325,-44.5001 151.325,-51.5001"/>
</g>
<!-- Node6 -->
<g id="node4" class="node"><title>Node6</title>
<g id="a_node4"><a xlink:href="group__dmad__functions.xhtml#ga075cce3b88af1fff5064218720811fc0" target="_top" xlink:title="Configure DMA for a single transfer. ">
<polygon fill="white" stroke="red" points="166.5,-0.5 166.5,-19.5 307.5,-19.5 307.5,-0.5 166.5,-0.5"/>
<text text-anchor="middle" x="237" y="-7.5" font-family="Helvetica,sans-Serif" font-size="10.00">XDMAD_ConfigureTransfer</text>
</a>
</g>
</g>
<!-- Node0&#45;&gt;Node6 -->
<g id="edge3" class="edge"><title>Node0&#45;&gt;Node6</title>
<path fill="none" stroke="midnightblue" d="M105.908,-38.411C129.179,-33.3287 157.954,-27.0446 182.519,-21.6797"/>
<polygon fill="midnightblue" stroke="midnightblue" points="183.385,-25.0732 192.408,-19.5201 181.892,-18.2343 183.385,-25.0732"/>
</g>
</g>
</svg>
