<?xml version="1.0" encoding="UTF-8" standalone="no"?>
<!DOCTYPE svg PUBLIC "-//W3C//DTD SVG 1.1//EN"
 "http://www.w3.org/Graphics/SVG/1.1/DTD/svg11.dtd">
<!-- Generated by graphviz version 2.38.0 (20140413.2041)
 -->
<!-- Title: uhi_msc_transfer Pages: 1 -->
<svg width="504pt" height="85pt"
 viewBox="0.00 0.00 504.00 85.00" xmlns="http://www.w3.org/2000/svg" xmlns:xlink="http://www.w3.org/1999/xlink">
<g id="graph0" class="graph" transform="scale(1 1) rotate(0) translate(4 81)">
<title>uhi_msc_transfer</title>
<polygon fill="white" stroke="none" points="-4,4 -4,-81 500,-81 500,4 -4,4"/>
<!-- Node974 -->
<g id="node1" class="node"><title>Node974</title>
<polygon fill="#bfbfbf" stroke="black" points="0,-38.5 0,-57.5 99,-57.5 99,-38.5 0,-38.5"/>
<text text-anchor="middle" x="49.5" y="-45.5" font-family="Helvetica,sans-Serif" font-size="10.00">uhi_msc_transfer</text>
</g>
<!-- Node975 -->
<g id="node2" class="node"><title>Node975</title>
<g id="a_node2"><a xlink:href="uhi__msc_8c.xhtml#ae40b333993e7c9aba64dc65f41ede8c4" target="_top" xlink:title="Sends the CBW packet. ">
<polygon fill="white" stroke="red" points="416,-57.5 416,-76.5 496,-76.5 496,-57.5 416,-57.5"/>
<text text-anchor="middle" x="456" y="-64.5" font-family="Helvetica,sans-Serif" font-size="10.00">uhi_msc_scsi</text>
</a>
</g>
</g>
<!-- Node974&#45;&gt;Node975 -->
<g id="edge1" class="edge"><title>Node974&#45;&gt;Node975</title>
<path fill="none" stroke="midnightblue" d="M109.11,-58.7068C117.767,-59.9984 126.599,-61.1565 135,-62 235.894,-72.1305 355.563,-70.3582 415.963,-68.5054"/>
<polygon fill="midnightblue" stroke="midnightblue" points="109.483,-55.2227 99.0627,-57.14 108.404,-62.1391 109.483,-55.2227"/>
</g>
<!-- Node994 -->
<g id="node3" class="node"><title>Node994</title>
<g id="a_node3"><a xlink:href="uhi__msc_8c.xhtml#a4b8bf30114a15489e5f8b0619a8319ea" target="_top" xlink:title="Checks the CBW packet transfer and launch the next step The next step can be a DATA phase or a CSW pa...">
<polygon fill="white" stroke="black" points="274,-38.5 274,-57.5 380,-57.5 380,-38.5 274,-38.5"/>
<text text-anchor="middle" x="327" y="-45.5" font-family="Helvetica,sans-Serif" font-size="10.00">uhi_msc_cbw_sent</text>
</a>
</g>
</g>
<!-- Node974&#45;&gt;Node994 -->
<g id="edge2" class="edge"><title>Node974&#45;&gt;Node994</title>
<path fill="none" stroke="midnightblue" d="M109.208,-48C157.979,-48 226.728,-48 273.648,-48"/>
<polygon fill="midnightblue" stroke="midnightblue" points="109.12,-44.5001 99.1197,-48 109.12,-51.5001 109.12,-44.5001"/>
</g>
<!-- Node995 -->
<g id="node4" class="node"><title>Node995</title>
<g id="a_node4"><a xlink:href="uhi__msc_8c.xhtml#ad0e3a3e50fb04240291caac060b32828" target="_top" xlink:title="Start the transfer of the CSW packet. ">
<polygon fill="white" stroke="red" points="135,-0.5 135,-19.5 238,-19.5 238,-0.5 135,-0.5"/>
<text text-anchor="middle" x="186.5" y="-7.5" font-family="Helvetica,sans-Serif" font-size="10.00">uhi_msc_csw_wait</text>
</a>
</g>
</g>
<!-- Node974&#45;&gt;Node995 -->
<g id="edge4" class="edge"><title>Node974&#45;&gt;Node995</title>
<path fill="none" stroke="midnightblue" d="M94.2625,-35.6817C112.811,-30.4607 134.099,-24.4684 151.445,-19.5859"/>
<polygon fill="midnightblue" stroke="midnightblue" points="93.2438,-32.3323 84.5662,-38.411 95.1405,-39.0705 93.2438,-32.3323"/>
</g>
<!-- Node994&#45;&gt;Node975 -->
<g id="edge3" class="edge"><title>Node994&#45;&gt;Node975</title>
<path fill="none" stroke="midnightblue" d="M390.172,-57.3014C398.865,-58.6019 407.591,-59.9073 415.698,-61.1202"/>
<polygon fill="midnightblue" stroke="midnightblue" points="390.43,-53.8011 380.022,-55.7828 389.394,-60.724 390.43,-53.8011"/>
</g>
<!-- Node995&#45;&gt;Node994 -->
<g id="edge5" class="edge"><title>Node995&#45;&gt;Node994</title>
<path fill="none" stroke="midnightblue" d="M232.134,-22.2462C251.225,-27.484 273.184,-33.5091 291.062,-38.4141"/>
<polygon fill="midnightblue" stroke="midnightblue" points="233.019,-18.8597 222.449,-19.589 231.167,-25.6102 233.019,-18.8597"/>
</g>
</g>
</svg>
