<?xml version="1.0" encoding="UTF-8" standalone="no"?>
<!DOCTYPE svg PUBLIC "-//W3C//DTD SVG 1.1//EN"
 "http://www.w3.org/Graphics/SVG/1.1/DTD/svg11.dtd">
<!-- Generated by graphviz version 2.38.0 (20140413.2041)
 -->
<!-- Title: src/hal/x4m0x_s70/libraries/libusb/host/msc/uhi_msc_mem.h Pages: 1 -->
<svg width="185pt" height="106pt"
 viewBox="0.00 0.00 185.00 106.00" xmlns="http://www.w3.org/2000/svg" xmlns:xlink="http://www.w3.org/1999/xlink">
<g id="graph0" class="graph" transform="scale(1 1) rotate(0) translate(4 102)">
<title>src/hal/x4m0x_s70/libraries/libusb/host/msc/uhi_msc_mem.h</title>
<polygon fill="white" stroke="none" points="-4,4 -4,-102 181,-102 181,4 -4,4"/>
<!-- Node18 -->
<g id="node1" class="node"><title>Node18</title>
<polygon fill="#bfbfbf" stroke="black" points="-1.42109e-14,-67.5 -1.42109e-14,-97.5 177,-97.5 177,-67.5 -1.42109e-14,-67.5"/>
<text text-anchor="start" x="8" y="-85.5" font-family="Helvetica,sans-Serif" font-size="10.00">src/hal/x4m0x_s70/libraries</text>
<text text-anchor="middle" x="88.5" y="-74.5" font-family="Helvetica,sans-Serif" font-size="10.00">/libusb/host/msc/uhi_msc_mem.h</text>
</g>
<!-- Node19 -->
<g id="node2" class="node"><title>Node19</title>
<g id="a_node2"><a xlink:href="uhi__msc__mem_8c.xhtml" target="_top" xlink:title="USB host Mass Storage interface for control access module. ">
<polygon fill="white" stroke="black" points="0.5,-0.5 0.5,-30.5 176.5,-30.5 176.5,-0.5 0.5,-0.5"/>
<text text-anchor="start" x="8.5" y="-18.5" font-family="Helvetica,sans-Serif" font-size="10.00">src/hal/x4m0x_s70/libraries</text>
<text text-anchor="middle" x="88.5" y="-7.5" font-family="Helvetica,sans-Serif" font-size="10.00">/libusb/host/msc/uhi_msc_mem.c</text>
</a>
</g>
</g>
<!-- Node18&#45;&gt;Node19 -->
<g id="edge1" class="edge"><title>Node18&#45;&gt;Node19</title>
<path fill="none" stroke="midnightblue" d="M88.5,-57.1081C88.5,-48.1539 88.5,-38.3227 88.5,-30.5765"/>
<polygon fill="midnightblue" stroke="midnightblue" points="85.0001,-57.3959 88.5,-67.396 92.0001,-57.396 85.0001,-57.3959"/>
</g>
</g>
</svg>
