<?xml version="1.0" encoding="UTF-8" standalone="no"?>
<!DOCTYPE svg PUBLIC "-//W3C//DTD SVG 1.1//EN"
 "http://www.w3.org/Graphics/SVG/1.1/DTD/svg11.dtd">
<!-- Generated by graphviz version 2.38.0 (20140413.2041)
 -->
<!-- Title: uhi_msc_cbw_sent Pages: 1 -->
<svg width="593pt" height="142pt"
 viewBox="0.00 0.00 593.00 142.33" xmlns="http://www.w3.org/2000/svg" xmlns:xlink="http://www.w3.org/1999/xlink">
<g id="graph0" class="graph" transform="scale(1 1) rotate(0) translate(4 138.328)">
<title>uhi_msc_cbw_sent</title>
<polygon fill="white" stroke="none" points="-4,4 -4,-138.328 589,-138.328 589,4 -4,4"/>
<!-- Node22 -->
<g id="node1" class="node"><title>Node22</title>
<polygon fill="#bfbfbf" stroke="black" points="0,-57.5 0,-76.5 106,-76.5 106,-57.5 0,-57.5"/>
<text text-anchor="middle" x="53" y="-64.5" font-family="Helvetica,sans-Serif" font-size="10.00">uhi_msc_cbw_sent</text>
</g>
<!-- Node23 -->
<g id="node2" class="node"><title>Node23</title>
<g id="a_node2"><a xlink:href="uhi__msc_8c.xhtml#ab13f8cd96a83d67c31c5e772ae23d358" target="_top" xlink:title="Sends a setup request RESET ENDPOINT Used after a STALL received during a scsi command. ">
<polygon fill="white" stroke="red" points="316,-95.5 316,-114.5 450,-114.5 450,-95.5 316,-95.5"/>
<text text-anchor="middle" x="383" y="-102.5" font-family="Helvetica,sans-Serif" font-size="10.00">uhi_msc_reset_endpoint</text>
</a>
</g>
</g>
<!-- Node22&#45;&gt;Node23 -->
<g id="edge1" class="edge"><title>Node22&#45;&gt;Node23</title>
<path fill="none" stroke="midnightblue" d="M64.3547,-76.6327C79.8379,-90.3058 110.579,-114.713 142,-124 209.545,-143.964 292.159,-129.413 340.735,-117.135"/>
<polygon fill="midnightblue" stroke="midnightblue" points="341.778,-120.48 350.567,-114.563 340.006,-113.708 341.778,-120.48"/>
</g>
<!-- Node38 -->
<g id="node3" class="node"><title>Node38</title>
<g id="a_node3"><a xlink:href="uhi__msc_8c.xhtml#a7883768fe0fe416a96892397f06ee968" target="_top" xlink:title="Manages the end of setup request RESET ENDPOINT after a CBW packet. ">
<polygon fill="white" stroke="black" points="150,-95.5 150,-114.5 272,-114.5 272,-95.5 150,-95.5"/>
<text text-anchor="middle" x="211" y="-102.5" font-family="Helvetica,sans-Serif" font-size="10.00">uhi_msc_cbw_rst_stall</text>
</a>
</g>
</g>
<!-- Node22&#45;&gt;Node38 -->
<g id="edge2" class="edge"><title>Node22&#45;&gt;Node38</title>
<path fill="none" stroke="midnightblue" d="M93.3654,-76.589C113.951,-81.6035 139.34,-87.7881 161.169,-93.1053"/>
<polygon fill="midnightblue" stroke="midnightblue" points="160.373,-96.5137 170.918,-95.4799 162.03,-89.7126 160.373,-96.5137"/>
</g>
<!-- Node39 -->
<g id="node4" class="node"><title>Node39</title>
<g id="a_node4"><a xlink:href="uhi__msc_8c.xhtml#ad0e3a3e50fb04240291caac060b32828" target="_top" xlink:title="Start the transfer of the CSW packet. ">
<polygon fill="white" stroke="red" points="331.5,-19.5 331.5,-38.5 434.5,-38.5 434.5,-19.5 331.5,-19.5"/>
<text text-anchor="middle" x="383" y="-26.5" font-family="Helvetica,sans-Serif" font-size="10.00">uhi_msc_csw_wait</text>
</a>
</g>
</g>
<!-- Node22&#45;&gt;Node39 -->
<g id="edge3" class="edge"><title>Node22&#45;&gt;Node39</title>
<path fill="none" stroke="midnightblue" d="M92.7843,-57.456C108.041,-54.0095 125.763,-50.3847 142,-48 202.613,-39.098 272.495,-34.1612 321.16,-31.5672"/>
<polygon fill="midnightblue" stroke="midnightblue" points="321.406,-35.0593 331.212,-31.0487 321.045,-28.0686 321.406,-35.0593"/>
</g>
<!-- Node40 -->
<g id="node5" class="node"><title>Node40</title>
<g id="a_node5"><a xlink:href="uhi__msc_8c.xhtml#a5881034b17cf48e25997e6ad271f5720" target="_top" xlink:title="Start a transfer on an endpoint of current USB MSC device Used to send a CBW packet, DATA packet, or a CSW packet. ">
<polygon fill="white" stroke="red" points="486,-0.5 486,-19.5 585,-19.5 585,-0.5 486,-0.5"/>
<text text-anchor="middle" x="535.5" y="-7.5" font-family="Helvetica,sans-Serif" font-size="10.00">uhi_msc_transfer</text>
</a>
</g>
</g>
<!-- Node22&#45;&gt;Node40 -->
<g id="edge5" class="edge"><title>Node22&#45;&gt;Node40</title>
<path fill="none" stroke="midnightblue" d="M72.344,-57.4729C89.783,-48.8585 116.99,-36.5523 142,-30 257.28,0.201752 397.958,-1.49777 475.718,-5.62694"/>
<polygon fill="midnightblue" stroke="midnightblue" points="475.622,-9.12701 485.803,-6.19514 476.016,-2.13809 475.622,-9.12701"/>
</g>
<!-- Node51 -->
<g id="node6" class="node"><title>Node51</title>
<g id="a_node6"><a xlink:href="uhi__msc_8c.xhtml#a5bde639d16169cbf29a09a0ea37b8765" target="_top" xlink:title="Checks the DATA phase transfer and launch the next step The next step can be a CSW packet or a endpoi...">
<polygon fill="white" stroke="red" points="142,-57.5 142,-76.5 280,-76.5 280,-57.5 142,-57.5"/>
<text text-anchor="middle" x="211" y="-64.5" font-family="Helvetica,sans-Serif" font-size="10.00">uhi_msc_data_transfered</text>
</a>
</g>
</g>
<!-- Node22&#45;&gt;Node51 -->
<g id="edge6" class="edge"><title>Node22&#45;&gt;Node51</title>
<path fill="none" stroke="midnightblue" d="M106.38,-67C114.587,-67 123.219,-67 131.854,-67"/>
<polygon fill="midnightblue" stroke="midnightblue" points="131.967,-70.5001 141.967,-67 131.967,-63.5001 131.967,-70.5001"/>
</g>
<!-- Node39&#45;&gt;Node40 -->
<g id="edge4" class="edge"><title>Node39&#45;&gt;Node40</title>
<path fill="none" stroke="midnightblue" d="M434.533,-22.6204C447.734,-20.9538 462.078,-19.143 475.669,-17.4271"/>
<polygon fill="midnightblue" stroke="midnightblue" points="476.403,-20.8624 485.885,-16.1374 475.526,-13.9176 476.403,-20.8624"/>
</g>
<!-- Node51&#45;&gt;Node23 -->
<g id="edge7" class="edge"><title>Node51&#45;&gt;Node23</title>
<path fill="none" stroke="midnightblue" d="M254.898,-76.589C277.534,-81.6487 305.498,-87.8996 329.429,-93.2488"/>
<polygon fill="midnightblue" stroke="midnightblue" points="328.888,-96.7141 339.41,-95.4799 330.415,-89.8827 328.888,-96.7141"/>
</g>
<!-- Node51&#45;&gt;Node39 -->
<g id="edge8" class="edge"><title>Node51&#45;&gt;Node39</title>
<path fill="none" stroke="midnightblue" d="M254.898,-57.411C277.534,-52.3513 305.498,-46.1004 329.429,-40.7512"/>
<polygon fill="midnightblue" stroke="midnightblue" points="330.415,-44.1173 339.41,-38.5201 328.888,-37.2859 330.415,-44.1173"/>
</g>
</g>
</svg>
