<?xml version="1.0" encoding="UTF-8" standalone="no"?>
<!DOCTYPE svg PUBLIC "-//W3C//DTD SVG 1.1//EN"
 "http://www.w3.org/Graphics/SVG/1.1/DTD/svg11.dtd">
<!-- Generated by graphviz version 2.38.0 (20140413.2041)
 -->
<!-- Title: uhi_msc_scsi Pages: 1 -->
<svg width="276pt" height="279pt"
 viewBox="0.00 0.00 276.00 279.00" xmlns="http://www.w3.org/2000/svg" xmlns:xlink="http://www.w3.org/1999/xlink">
<g id="graph0" class="graph" transform="scale(1 1) rotate(0) translate(4 275)">
<title>uhi_msc_scsi</title>
<polygon fill="white" stroke="none" points="-4,4 -4,-275 272,-275 272,4 -4,4"/>
<!-- Node591 -->
<g id="node1" class="node"><title>Node591</title>
<polygon fill="#bfbfbf" stroke="black" points="0,-126 0,-145 80,-145 80,-126 0,-126"/>
<text text-anchor="middle" x="40" y="-133" font-family="Helvetica,sans-Serif" font-size="10.00">uhi_msc_scsi</text>
</g>
<!-- Node592 -->
<g id="node2" class="node"><title>Node592</title>
<g id="a_node2"><a xlink:href="group__uhi__msc__group.xhtml#ga703657479fce9a8a4086f98f8f0fab28" target="_top" xlink:title="Checks and update the status of the LUN. ">
<polygon fill="white" stroke="red" points="128.5,-240.5 128.5,-270.5 255.5,-270.5 255.5,-240.5 128.5,-240.5"/>
<text text-anchor="start" x="136.5" y="-258.5" font-family="Helvetica,sans-Serif" font-size="10.00">uhi_msc_scsi_test_unit</text>
<text text-anchor="middle" x="192" y="-247.5" font-family="Helvetica,sans-Serif" font-size="10.00">_ready</text>
</a>
</g>
</g>
<!-- Node591&#45;&gt;Node592 -->
<g id="edge1" class="edge"><title>Node591&#45;&gt;Node592</title>
<path fill="none" stroke="midnightblue" d="M51.0057,-153.85C63.5317,-175.187 86.918,-210.082 116,-230.5 121.504,-234.364 127.649,-237.665 133.988,-240.477"/>
<polygon fill="midnightblue" stroke="midnightblue" points="54.0175,-152.065 46.0334,-145.101 47.9317,-155.524 54.0175,-152.065"/>
</g>
<!-- Node594 -->
<g id="node3" class="node"><title>Node594</title>
<g id="a_node3"><a xlink:href="group__uhi__msc__group.xhtml#ga9a204242b01d7ee34b9ee6e89308af7c" target="_top" xlink:title="Reads a LUN data section to RAM buffer Note: The sector size used to define the data section is the s...">
<polygon fill="white" stroke="red" points="130,-202 130,-221 254,-221 254,-202 130,-202"/>
<text text-anchor="middle" x="192" y="-209" font-family="Helvetica,sans-Serif" font-size="10.00">uhi_msc_scsi_read_10</text>
</a>
</g>
</g>
<!-- Node591&#45;&gt;Node594 -->
<g id="edge2" class="edge"><title>Node591&#45;&gt;Node594</title>
<path fill="none" stroke="midnightblue" d="M58.3957,-151.993C72.7905,-164.79 94.3233,-182.056 116,-192.5 123.987,-196.348 132.84,-199.475 141.583,-201.996"/>
<polygon fill="midnightblue" stroke="midnightblue" points="60.5441,-149.215 50.798,-145.06 55.8257,-154.386 60.5441,-149.215"/>
</g>
<!-- Node596 -->
<g id="node4" class="node"><title>Node596</title>
<g id="a_node4"><a xlink:href="group__uhi__msc__group.xhtml#ga75da7088270a7c90424b0530acda9001" target="_top" xlink:title="Writes a RAM buffer in a LUN data section Note: The sector size used to define the data section is th...">
<polygon fill="white" stroke="red" points="129.5,-164 129.5,-183 254.5,-183 254.5,-164 129.5,-164"/>
<text text-anchor="middle" x="192" y="-171" font-family="Helvetica,sans-Serif" font-size="10.00">uhi_msc_scsi_write_10</text>
</a>
</g>
</g>
<!-- Node591&#45;&gt;Node596 -->
<g id="edge3" class="edge"><title>Node591&#45;&gt;Node596</title>
<path fill="none" stroke="midnightblue" d="M88.811,-147.612C109.702,-152.904 133.847,-159.021 153.421,-163.98"/>
<polygon fill="midnightblue" stroke="midnightblue" points="89.4047,-144.152 78.8513,-145.089 87.6856,-150.938 89.4047,-144.152"/>
</g>
<!-- Node598 -->
<g id="node5" class="node"><title>Node598</title>
<g id="a_node5"><a xlink:href="uhi__msc_8c.xhtml#afcb2ce185f82a18e44f7c3b42340c496" target="_top" xlink:title="Sends the CBW packet of the scsi INQUIRY command. ">
<polygon fill="white" stroke="red" points="134,-126 134,-145 250,-145 250,-126 134,-126"/>
<text text-anchor="middle" x="192" y="-133" font-family="Helvetica,sans-Serif" font-size="10.00">uhi_msc_scsi_inquiry</text>
</a>
</g>
</g>
<!-- Node591&#45;&gt;Node598 -->
<g id="edge4" class="edge"><title>Node591&#45;&gt;Node598</title>
<path fill="none" stroke="midnightblue" d="M90.352,-135.5C104.254,-135.5 119.492,-135.5 133.811,-135.5"/>
<polygon fill="midnightblue" stroke="midnightblue" points="90.0192,-132 80.0192,-135.5 90.0191,-139 90.0192,-132"/>
</g>
<!-- Node605 -->
<g id="node6" class="node"><title>Node605</title>
<g id="a_node6"><a xlink:href="uhi__msc_8c.xhtml#ac2339d091ff134f06cf5f9cbb0185cb3" target="_top" xlink:title="Sends the CBW packet of the scsi READ CAPACITY command. ">
<polygon fill="white" stroke="red" points="116,-88 116,-107 268,-107 268,-88 116,-88"/>
<text text-anchor="middle" x="192" y="-95" font-family="Helvetica,sans-Serif" font-size="10.00">uhi_msc_scsi_read_capacity</text>
</a>
</g>
</g>
<!-- Node591&#45;&gt;Node605 -->
<g id="edge5" class="edge"><title>Node591&#45;&gt;Node605</title>
<path fill="none" stroke="midnightblue" d="M88.811,-123.388C109.702,-118.096 133.847,-111.979 153.421,-107.02"/>
<polygon fill="midnightblue" stroke="midnightblue" points="87.6856,-120.062 78.8513,-125.911 89.4047,-126.848 87.6856,-120.062"/>
</g>
<!-- Node607 -->
<g id="node7" class="node"><title>Node607</title>
<g id="a_node7"><a xlink:href="uhi__msc_8c.xhtml#ac2d95d78563f49c06a2b31e6e2c2f9b6" target="_top" xlink:title="Sends the CBW packet of the scsi MODE SENSE 6 command This function returns the write&#45;protected mode...">
<polygon fill="white" stroke="red" points="116,-50 116,-69 268,-69 268,-50 116,-50"/>
<text text-anchor="middle" x="192" y="-57" font-family="Helvetica,sans-Serif" font-size="10.00">uhi_msc_scsi_mode_sense6</text>
</a>
</g>
</g>
<!-- Node591&#45;&gt;Node607 -->
<g id="edge6" class="edge"><title>Node591&#45;&gt;Node607</title>
<path fill="none" stroke="midnightblue" d="M58.3957,-119.007C72.7905,-106.21 94.3233,-88.9441 116,-78.5 123.987,-74.652 132.84,-71.5252 141.583,-69.0036"/>
<polygon fill="midnightblue" stroke="midnightblue" points="55.8257,-116.614 50.798,-125.94 60.5441,-121.785 55.8257,-116.614"/>
</g>
<!-- Node609 -->
<g id="node8" class="node"><title>Node609</title>
<g id="a_node8"><a xlink:href="uhi__msc_8c.xhtml#a5b7c8255c93b911718d79f7bd85e7de1" target="_top" xlink:title="Sends the CBW packet of the scsi REQUESRT SENSE command Called by TEST UNIT READY and READ CAPACITY c...">
<polygon fill="white" stroke="red" points="131,-0.5 131,-30.5 253,-30.5 253,-0.5 131,-0.5"/>
<text text-anchor="start" x="139" y="-18.5" font-family="Helvetica,sans-Serif" font-size="10.00">uhi_msc_scsi_request</text>
<text text-anchor="middle" x="192" y="-7.5" font-family="Helvetica,sans-Serif" font-size="10.00">_sense</text>
</a>
</g>
</g>
<!-- Node591&#45;&gt;Node609 -->
<g id="edge7" class="edge"><title>Node591&#45;&gt;Node609</title>
<path fill="none" stroke="midnightblue" d="M51.0057,-117.15C63.5317,-95.8132 86.918,-60.9182 116,-40.5 121.504,-36.6356 127.649,-33.3346 133.988,-30.5229"/>
<polygon fill="midnightblue" stroke="midnightblue" points="47.9317,-115.476 46.0334,-125.899 54.0175,-118.935 47.9317,-115.476"/>
</g>
</g>
</svg>
