<?xml version="1.0" encoding="UTF-8" standalone="no"?>
<!DOCTYPE svg PUBLIC "-//W3C//DTD SVG 1.1//EN"
 "http://www.w3.org/Graphics/SVG/1.1/DTD/svg11.dtd">
<!-- Generated by graphviz version 2.38.0 (20140413.2041)
 -->
<!-- Title: uhi_msc_mem_stop_pooling Pages: 1 -->
<svg width="354pt" height="116pt"
 viewBox="0.00 0.00 354.00 115.50" xmlns="http://www.w3.org/2000/svg" xmlns:xlink="http://www.w3.org/1999/xlink">
<g id="graph0" class="graph" transform="scale(1 1) rotate(0) translate(4 111.5)">
<title>uhi_msc_mem_stop_pooling</title>
<polygon fill="white" stroke="none" points="-4,4 -4,-111.5 350,-111.5 350,4 -4,4"/>
<!-- Node1 -->
<g id="node1" class="node"><title>Node1</title>
<polygon fill="#bfbfbf" stroke="black" points="0,-38.5 0,-57.5 153,-57.5 153,-38.5 0,-38.5"/>
<text text-anchor="middle" x="76.5" y="-45.5" font-family="Helvetica,sans-Serif" font-size="10.00">uhi_msc_mem_stop_pooling</text>
</g>
<!-- Node2 -->
<g id="node2" class="node"><title>Node2</title>
<g id="a_node2"><a xlink:href="group__uhi__msc__mem__group.xhtml#ga79d9bf4b3d74a04367138617d8056b95" target="_top" xlink:title="Checks and update the status of the LUN. ">
<polygon fill="white" stroke="black" points="200.5,-77 200.5,-107 334.5,-107 334.5,-77 200.5,-77"/>
<text text-anchor="start" x="208.5" y="-95" font-family="Helvetica,sans-Serif" font-size="10.00">uhi_msc_mem_test_unit</text>
<text text-anchor="middle" x="267.5" y="-84" font-family="Helvetica,sans-Serif" font-size="10.00">_ready</text>
</a>
</g>
</g>
<!-- Node1&#45;&gt;Node2 -->
<g id="edge1" class="edge"><title>Node1&#45;&gt;Node2</title>
<path fill="none" stroke="midnightblue" d="M128.547,-59.884C151.094,-65.1331 177.86,-71.3642 201.787,-76.9346"/>
<polygon fill="midnightblue" stroke="midnightblue" points="129.043,-56.406 118.51,-57.5473 127.456,-63.2237 129.043,-56.406"/>
</g>
<!-- Node3 -->
<g id="node3" class="node"><title>Node3</title>
<g id="a_node3"><a xlink:href="group__uhi__msc__mem__group.xhtml#gac50e80d8db5c32870c6a86a62bde0da2" target="_top" xlink:title="Reads 512 bytes from the current LUN. ">
<polygon fill="white" stroke="black" points="189.5,-38.5 189.5,-57.5 345.5,-57.5 345.5,-38.5 189.5,-38.5"/>
<text text-anchor="middle" x="267.5" y="-45.5" font-family="Helvetica,sans-Serif" font-size="10.00">uhi_msc_mem_read_10_ram</text>
</a>
</g>
</g>
<!-- Node1&#45;&gt;Node3 -->
<g id="edge2" class="edge"><title>Node1&#45;&gt;Node3</title>
<path fill="none" stroke="midnightblue" d="M163.158,-48C171.855,-48 180.653,-48 189.254,-48"/>
<polygon fill="midnightblue" stroke="midnightblue" points="163.013,-44.5001 153.013,-48 163.013,-51.5001 163.013,-44.5001"/>
</g>
<!-- Node4 -->
<g id="node4" class="node"><title>Node4</title>
<g id="a_node4"><a xlink:href="group__uhi__msc__mem__group.xhtml#ga319d1a6388e17afd55955abe50898990" target="_top" xlink:title="Writes 512 bytes to the current LUN. ">
<polygon fill="white" stroke="black" points="189,-0.5 189,-19.5 346,-19.5 346,-0.5 189,-0.5"/>
<text text-anchor="middle" x="267.5" y="-7.5" font-family="Helvetica,sans-Serif" font-size="10.00">uhi_msc_mem_write_10_ram</text>
</a>
</g>
</g>
<!-- Node1&#45;&gt;Node4 -->
<g id="edge3" class="edge"><title>Node1&#45;&gt;Node4</title>
<path fill="none" stroke="midnightblue" d="M135.242,-36.3905C162.122,-30.986 193.703,-24.6365 219.15,-19.5201"/>
<polygon fill="midnightblue" stroke="midnightblue" points="134.307,-33.0084 125.193,-38.411 135.686,-39.8711 134.307,-33.0084"/>
</g>
</g>
</svg>
