<?xml version="1.0" encoding="UTF-8" standalone="no"?>
<!DOCTYPE svg PUBLIC "-//W3C//DTD SVG 1.1//EN"
 "http://www.w3.org/Graphics/SVG/1.1/DTD/svg11.dtd">
<!-- Generated by graphviz version 2.38.0 (20140413.2041)
 -->
<!-- Title: uhi_msc_scsi_inquiry Pages: 1 -->
<svg width="306pt" height="66pt"
 viewBox="0.00 0.00 306.00 66.00" xmlns="http://www.w3.org/2000/svg" xmlns:xlink="http://www.w3.org/1999/xlink">
<g id="graph0" class="graph" transform="scale(1 1) rotate(0) translate(4 62)">
<title>uhi_msc_scsi_inquiry</title>
<polygon fill="white" stroke="none" points="-4,4 -4,-62 302,-62 302,4 -4,4"/>
<!-- Node610 -->
<g id="node1" class="node"><title>Node610</title>
<polygon fill="#bfbfbf" stroke="black" points="0,-19.5 0,-38.5 116,-38.5 116,-19.5 0,-19.5"/>
<text text-anchor="middle" x="58" y="-26.5" font-family="Helvetica,sans-Serif" font-size="10.00">uhi_msc_scsi_inquiry</text>
</g>
<!-- Node611 -->
<g id="node2" class="node"><title>Node611</title>
<g id="a_node2"><a xlink:href="uhi__msc_8c.xhtml#ae40b333993e7c9aba64dc65f41ede8c4" target="_top" xlink:title="Sends the CBW packet. ">
<polygon fill="white" stroke="red" points="185,-38.5 185,-57.5 265,-57.5 265,-38.5 185,-38.5"/>
<text text-anchor="middle" x="225" y="-45.5" font-family="Helvetica,sans-Serif" font-size="10.00">uhi_msc_scsi</text>
</a>
</g>
</g>
<!-- Node610&#45;&gt;Node611 -->
<g id="edge1" class="edge"><title>Node610&#45;&gt;Node611</title>
<path fill="none" stroke="midnightblue" d="M116.246,-35.592C135.241,-37.7793 156.214,-40.1943 174.569,-42.308"/>
<polygon fill="midnightblue" stroke="midnightblue" points="174.418,-45.8136 184.753,-43.4806 175.219,-38.8595 174.418,-45.8136"/>
</g>
<!-- Node642 -->
<g id="node3" class="node"><title>Node642</title>
<g id="a_node3"><a xlink:href="uhi__msc_8c.xhtml#aaa5cbc056bcc00f650fda1f1c111c7cd" target="_top" xlink:title="Call the callback at the end of scsi INQUIRY command. ">
<polygon fill="white" stroke="black" points="152,-0.5 152,-19.5 298,-19.5 298,-0.5 152,-0.5"/>
<text text-anchor="middle" x="225" y="-7.5" font-family="Helvetica,sans-Serif" font-size="10.00">uhi_msc_scsi_inquiry_done</text>
</a>
</g>
</g>
<!-- Node610&#45;&gt;Node642 -->
<g id="edge2" class="edge"><title>Node610&#45;&gt;Node642</title>
<path fill="none" stroke="midnightblue" d="M116.246,-22.408C124.475,-21.4605 133.074,-20.4702 141.671,-19.4803"/>
<polygon fill="midnightblue" stroke="midnightblue" points="142.206,-22.9419 151.74,-18.3208 141.405,-15.9878 142.206,-22.9419"/>
</g>
</g>
</svg>
