<?xml version="1.0" encoding="UTF-8" standalone="no"?>
<!DOCTYPE svg PUBLIC "-//W3C//DTD SVG 1.1//EN"
 "http://www.w3.org/Graphics/SVG/1.1/DTD/svg11.dtd">
<!-- Generated by graphviz version 2.38.0 (20140413.2041)
 -->
<!-- Title: uhi_msc_enable_step1 Pages: 1 -->
<svg width="296pt" height="66pt"
 viewBox="0.00 0.00 296.00 66.00" xmlns="http://www.w3.org/2000/svg" xmlns:xlink="http://www.w3.org/1999/xlink">
<g id="graph0" class="graph" transform="scale(1 1) rotate(0) translate(4 62)">
<title>uhi_msc_enable_step1</title>
<polygon fill="white" stroke="none" points="-4,4 -4,-62 292,-62 292,4 -4,4"/>
<!-- Node274 -->
<g id="node1" class="node"><title>Node274</title>
<polygon fill="#bfbfbf" stroke="black" points="0,-19.5 0,-38.5 126,-38.5 126,-19.5 0,-19.5"/>
<text text-anchor="middle" x="63" y="-26.5" font-family="Helvetica,sans-Serif" font-size="10.00">uhi_msc_enable_step1</text>
</g>
<!-- Node275 -->
<g id="node2" class="node"><title>Node275</title>
<g id="a_node2"><a xlink:href="group__uhd__group.xhtml#ga11038bdbac3a23c70a7b7f5abcecc8ba" target="_top" xlink:title="Add a setup request in the control endpoint setup queue. ">
<polygon fill="white" stroke="red" points="164.5,-38.5 164.5,-57.5 285.5,-57.5 285.5,-38.5 164.5,-38.5"/>
<text text-anchor="middle" x="225" y="-45.5" font-family="Helvetica,sans-Serif" font-size="10.00">USBH_HAL_SetupReq</text>
</a>
</g>
</g>
<!-- Node274&#45;&gt;Node275 -->
<g id="edge1" class="edge"><title>Node274&#45;&gt;Node275</title>
<path fill="none" stroke="midnightblue" d="M126.318,-36.4003C135.533,-37.4945 145.077,-38.6279 154.428,-39.7383"/>
<polygon fill="midnightblue" stroke="midnightblue" points="154.13,-43.2275 164.473,-40.9312 154.956,-36.2763 154.13,-43.2275"/>
</g>
<!-- Node289 -->
<g id="node3" class="node"><title>Node289</title>
<g id="a_node3"><a xlink:href="uhi__msc_8c.xhtml#a291983a87ab06a4d4aa77896e5cd9fd3" target="_top" xlink:title="Step 2 of the initialization of a USB MSC device Decode the setup request GET_MAX_LUN and allocs LUN ...">
<polygon fill="white" stroke="red" points="162,-0.5 162,-19.5 288,-19.5 288,-0.5 162,-0.5"/>
<text text-anchor="middle" x="225" y="-7.5" font-family="Helvetica,sans-Serif" font-size="10.00">uhi_msc_enable_step2</text>
</a>
</g>
</g>
<!-- Node274&#45;&gt;Node289 -->
<g id="edge2" class="edge"><title>Node274&#45;&gt;Node289</title>
<path fill="none" stroke="midnightblue" d="M126.318,-21.5997C134.706,-20.6036 143.367,-19.5752 151.907,-18.5611"/>
<polygon fill="midnightblue" stroke="midnightblue" points="152.334,-22.035 161.852,-17.3801 151.509,-15.0838 152.334,-22.035"/>
</g>
</g>
</svg>
