<?xml version="1.0" encoding="UTF-8" standalone="no"?>
<!DOCTYPE svg PUBLIC "-//W3C//DTD SVG 1.1//EN"
 "http://www.w3.org/Graphics/SVG/1.1/DTD/svg11.dtd">
<!-- Generated by graphviz version 2.38.0 (20140413.2041)
 -->
<!-- Title: _GmacRxDescriptor::_GmacRxAddr Pages: 1 -->
<svg width="181pt" height="117pt"
 viewBox="0.00 0.00 181.00 117.00" xmlns="http://www.w3.org/2000/svg" xmlns:xlink="http://www.w3.org/1999/xlink">
<g id="graph0" class="graph" transform="scale(1 1) rotate(0) translate(4 113)">
<title>_GmacRxDescriptor::_GmacRxAddr</title>
<polygon fill="white" stroke="none" points="-4,4 -4,-113 177,-113 177,4 -4,4"/>
<!-- Node1 -->
<g id="node1" class="node"><title>Node1</title>
<polygon fill="#bfbfbf" stroke="black" points="28,-0.5 28,-30.5 145,-30.5 145,-0.5 28,-0.5"/>
<text text-anchor="start" x="36" y="-18.5" font-family="Helvetica,sans-Serif" font-size="10.00">_GmacRxDescriptor::</text>
<text text-anchor="middle" x="86.5" y="-7.5" font-family="Helvetica,sans-Serif" font-size="10.00">_GmacRxAddr</text>
</g>
<!-- Node2 -->
<g id="node2" class="node"><title>Node2</title>
<g id="a_node2"><a xlink:href="struct___gmac_rx_descriptor_1_1___gmac_rx_addr_1_1___gmac_rx_addr_b_m.xhtml" target="_top" xlink:title="_GmacRxDescriptor::\l_GmacRxAddr::_GmacRxAddrBM">
<polygon fill="white" stroke="black" points="0,-78.5 0,-108.5 173,-108.5 173,-78.5 0,-78.5"/>
<text text-anchor="start" x="8" y="-96.5" font-family="Helvetica,sans-Serif" font-size="10.00">_GmacRxDescriptor::</text>
<text text-anchor="middle" x="86.5" y="-85.5" font-family="Helvetica,sans-Serif" font-size="10.00">_GmacRxAddr::_GmacRxAddrBM</text>
</a>
</g>
</g>
<!-- Node2&#45;&gt;Node1 -->
<g id="edge1" class="edge"><title>Node2&#45;&gt;Node1</title>
<path fill="none" stroke="#9a32cd" stroke-dasharray="5,2" d="M86.5,-68.0898C86.5,-55.7565 86.5,-41.2237 86.5,-30.7309"/>
<polygon fill="#9a32cd" stroke="#9a32cd" points="83.0001,-68.2049 86.5,-78.205 90.0001,-68.205 83.0001,-68.2049"/>
<text text-anchor="middle" x="96" y="-52" font-family="Helvetica,sans-Serif" font-size="10.00"> bm</text>
</g>
</g>
</svg>
