<?xml version="1.0" encoding="UTF-8" standalone="no"?>
<!DOCTYPE svg PUBLIC "-//W3C//DTD SVG 1.1//EN"
 "http://www.w3.org/Graphics/SVG/1.1/DTD/svg11.dtd">
<!-- Generated by graphviz version 2.38.0 (20140413.2041)
 -->
<!-- Title: USARTD_Rx_Cb Pages: 1 -->
<svg width="259pt" height="78pt"
 viewBox="0.00 0.00 259.00 77.50" xmlns="http://www.w3.org/2000/svg" xmlns:xlink="http://www.w3.org/1999/xlink">
<g id="graph0" class="graph" transform="scale(1 1) rotate(0) translate(4 73.5)">
<title>USARTD_Rx_Cb</title>
<polygon fill="white" stroke="none" points="-4,4 -4,-73.5 255,-73.5 255,4 -4,4"/>
<!-- Node195 -->
<g id="node1" class="node"><title>Node195</title>
<polygon fill="#bfbfbf" stroke="black" points="0,-28 0,-47 90,-47 90,-28 0,-28"/>
<text text-anchor="middle" x="45" y="-35" font-family="Helvetica,sans-Serif" font-size="10.00">USARTD_Rx_Cb</text>
</g>
<!-- Node196 -->
<g id="node2" class="node"><title>Node196</title>
<g id="a_node2"><a xlink:href="group__dmad__functions.xhtml#ga2a3178c1d2615b7a4d7a0005662cdd89" target="_top" xlink:title="Free the specified xDMA channel. ">
<polygon fill="white" stroke="black" points="130,-50 130,-69 247,-69 247,-50 130,-50"/>
<text text-anchor="middle" x="188.5" y="-57" font-family="Helvetica,sans-Serif" font-size="10.00">XDMAD_FreeChannel</text>
</a>
</g>
</g>
<!-- Node195&#45;&gt;Node196 -->
<g id="edge1" class="edge"><title>Node195&#45;&gt;Node196</title>
<path fill="none" stroke="midnightblue" d="M90.3832,-44.4006C99.7445,-45.856 109.824,-47.4232 119.822,-48.9777"/>
<polygon fill="midnightblue" stroke="midnightblue" points="119.344,-52.4453 129.763,-50.5233 120.42,-45.5284 119.344,-52.4453"/>
</g>
<!-- Node197 -->
<g id="node3" class="node"><title>Node197</title>
<g id="a_node3"><a xlink:href="group___c_m_s_i_s___core___cache_functions.xhtml#ga503ef7ef58c0773defd15a82f6336c09" target="_top" xlink:title="SCB_InvalidateDCache\l_by_Addr">
<polygon fill="white" stroke="red" points="126,-0.5 126,-30.5 251,-30.5 251,-0.5 126,-0.5"/>
<text text-anchor="start" x="134" y="-18.5" font-family="Helvetica,sans-Serif" font-size="10.00">SCB_InvalidateDCache</text>
<text text-anchor="middle" x="188.5" y="-7.5" font-family="Helvetica,sans-Serif" font-size="10.00">_by_Addr</text>
</a>
</g>
</g>
<!-- Node195&#45;&gt;Node197 -->
<g id="edge2" class="edge"><title>Node195&#45;&gt;Node197</title>
<path fill="none" stroke="midnightblue" d="M90.3832,-30.5994C98.4806,-29.3405 107.116,-27.9979 115.77,-26.6523"/>
<polygon fill="midnightblue" stroke="midnightblue" points="116.564,-30.071 125.908,-25.0762 115.489,-23.1541 116.564,-30.071"/>
</g>
</g>
</svg>
