<?xml version="1.0" encoding="UTF-8" standalone="no"?>
<!DOCTYPE svg PUBLIC "-//W3C//DTD SVG 1.1//EN"
 "http://www.w3.org/Graphics/SVG/1.1/DTD/svg11.dtd">
<!-- Generated by graphviz version 2.38.0 (20140413.2041)
 -->
<!-- Title: USARTD_EnableTxChannels Pages: 1 -->
<svg width="354pt" height="294pt"
 viewBox="0.00 0.00 354.00 294.00" xmlns="http://www.w3.org/2000/svg" xmlns:xlink="http://www.w3.org/1999/xlink">
<g id="graph0" class="graph" transform="scale(1 1) rotate(0) translate(4 290)">
<title>USARTD_EnableTxChannels</title>
<polygon fill="white" stroke="none" points="-4,4 -4,-290 350,-290 350,4 -4,4"/>
<!-- Node143 -->
<g id="node1" class="node"><title>Node143</title>
<polygon fill="#bfbfbf" stroke="black" points="0,-133.5 0,-152.5 148,-152.5 148,-133.5 0,-133.5"/>
<text text-anchor="middle" x="74" y="-140.5" font-family="Helvetica,sans-Serif" font-size="10.00">USARTD_EnableTxChannels</text>
</g>
<!-- Node144 -->
<g id="node2" class="node"><title>Node144</title>
<g id="a_node2"><a xlink:href="usart_8h.xhtml#a18a00bc79be656904ce8c7043f4c6d19" target="_top" xlink:title="Enables or disables the transmitter of an USART peripheral. ">
<polygon fill="white" stroke="black" points="184,-266.5 184,-285.5 346,-285.5 346,-266.5 184,-266.5"/>
<text text-anchor="middle" x="265" y="-273.5" font-family="Helvetica,sans-Serif" font-size="10.00">USART_SetTransmitterEnabled</text>
</a>
</g>
</g>
<!-- Node143&#45;&gt;Node144 -->
<g id="edge1" class="edge"><title>Node143&#45;&gt;Node144</title>
<path fill="none" stroke="midnightblue" d="M81.3196,-152.735C96.2869,-174.961 136.249,-229.628 184,-257 187.938,-259.257 192.132,-261.247 196.457,-263.001"/>
<polygon fill="midnightblue" stroke="midnightblue" points="195.494,-266.374 206.089,-266.475 197.87,-259.789 195.494,-266.374"/>
</g>
<!-- Node145 -->
<g id="node3" class="node"><title>Node145</title>
<g id="a_node3"><a xlink:href="group__dmad__functions.xhtml#ga0b94c48d2200e3be27ea16cfd1207912" target="_top" xlink:title="Allocate a XDMA channel for upper layer. ">
<polygon fill="white" stroke="red" points="197.5,-228.5 197.5,-247.5 332.5,-247.5 332.5,-228.5 197.5,-228.5"/>
<text text-anchor="middle" x="265" y="-235.5" font-family="Helvetica,sans-Serif" font-size="10.00">XDMAD_AllocateChannel</text>
</a>
</g>
</g>
<!-- Node143&#45;&gt;Node145 -->
<g id="edge2" class="edge"><title>Node143&#45;&gt;Node145</title>
<path fill="none" stroke="midnightblue" d="M85.9062,-152.745C104.615,-168.943 144.628,-201.369 184,-219 189.425,-221.429 195.202,-223.571 201.073,-225.455"/>
<polygon fill="midnightblue" stroke="midnightblue" points="200.414,-228.909 210.996,-228.386 202.397,-222.196 200.414,-228.909"/>
</g>
<!-- Node150 -->
<g id="node4" class="node"><title>Node150</title>
<g id="a_node4"><a xlink:href="group__dmad__functions.xhtml#gaa0af49f87c84aaa20bee1f055d31ad2d" target="_top" xlink:title="Set the callback function for xDMA channel transfer. ">
<polygon fill="white" stroke="black" points="208,-190.5 208,-209.5 322,-209.5 322,-190.5 208,-190.5"/>
<text text-anchor="middle" x="265" y="-197.5" font-family="Helvetica,sans-Serif" font-size="10.00">XDMAD_SetCallback</text>
</a>
</g>
</g>
<!-- Node143&#45;&gt;Node150 -->
<g id="edge3" class="edge"><title>Node143&#45;&gt;Node150</title>
<path fill="none" stroke="midnightblue" d="M100.309,-152.65C122.25,-160.816 154.954,-172.512 184,-181 192.462,-183.473 201.497,-185.858 210.336,-188.055"/>
<polygon fill="midnightblue" stroke="midnightblue" points="209.648,-191.489 220.192,-190.449 211.301,-184.687 209.648,-191.489"/>
</g>
<!-- Node151 -->
<g id="node5" class="node"><title>Node151</title>
<g id="a_node5"><a xlink:href="usart__dma_8c.xhtml#a90f30409b8b9bd5cf2b4e7eea6d59fde" target="_top" xlink:title="USART xDMA Rx callback Invoked on USART DMA reception done. ">
<polygon fill="white" stroke="red" points="220.5,-152.5 220.5,-171.5 309.5,-171.5 309.5,-152.5 220.5,-152.5"/>
<text text-anchor="middle" x="265" y="-159.5" font-family="Helvetica,sans-Serif" font-size="10.00">USARTD_Tx_Cb</text>
</a>
</g>
</g>
<!-- Node143&#45;&gt;Node151 -->
<g id="edge4" class="edge"><title>Node143&#45;&gt;Node151</title>
<path fill="none" stroke="midnightblue" d="M148.072,-150.346C168.764,-152.426 190.903,-154.652 210.231,-156.595"/>
<polygon fill="midnightblue" stroke="midnightblue" points="210.055,-160.095 220.355,-157.612 210.755,-153.13 210.055,-160.095"/>
</g>
<!-- Node153 -->
<g id="node6" class="node"><title>Node153</title>
<g id="a_node6"><a xlink:href="group__dmad__functions.xhtml#ga2a7947467c04eb39abee2471d846ee35" target="_top" xlink:title="Enable clock of the xDMA peripheral, Enable the dma peripheral, configure configuration register for ...">
<polygon fill="white" stroke="red" points="198,-114.5 198,-133.5 332,-133.5 332,-114.5 198,-114.5"/>
<text text-anchor="middle" x="265" y="-121.5" font-family="Helvetica,sans-Serif" font-size="10.00">XDMAD_PrepareChannel</text>
</a>
</g>
</g>
<!-- Node143&#45;&gt;Node153 -->
<g id="edge5" class="edge"><title>Node143&#45;&gt;Node153</title>
<path fill="none" stroke="midnightblue" d="M148.072,-135.654C161.023,-134.352 174.54,-132.993 187.58,-131.682"/>
<polygon fill="midnightblue" stroke="midnightblue" points="188.316,-135.126 197.916,-130.643 187.616,-128.161 188.316,-135.126"/>
</g>
<!-- Node166 -->
<g id="node7" class="node"><title>Node166</title>
<g id="a_node7"><a xlink:href="usart__dma_8c.xhtml#a9c980b56e34d2c15f6b0f179b0086313" target="_top" xlink:title="Configure the USART tx DMA source with Linker List mode. ">
<polygon fill="white" stroke="red" points="215,-76.5 215,-95.5 315,-95.5 315,-76.5 215,-76.5"/>
<text text-anchor="middle" x="265" y="-83.5" font-family="Helvetica,sans-Serif" font-size="10.00">_configureTxDma</text>
</a>
</g>
</g>
<!-- Node143&#45;&gt;Node166 -->
<g id="edge6" class="edge"><title>Node143&#45;&gt;Node166</title>
<path fill="none" stroke="midnightblue" d="M100.309,-133.35C122.25,-125.184 154.954,-113.488 184,-105 192.462,-102.527 201.497,-100.142 210.336,-97.9452"/>
<polygon fill="midnightblue" stroke="midnightblue" points="211.301,-101.313 220.192,-95.5512 209.648,-94.5107 211.301,-101.313"/>
</g>
<!-- Node176 -->
<g id="node8" class="node"><title>Node176</title>
<g id="a_node8"><a xlink:href="group___c_m_s_i_s___core___n_v_i_c_functions.xhtml#ga47a0f52794068d076c9147aa3cb8d8a6" target="_top" xlink:title="Get Active Interrupt. ">
<polygon fill="white" stroke="red" points="219,-38.5 219,-57.5 311,-57.5 311,-38.5 219,-38.5"/>
<text text-anchor="middle" x="265" y="-45.5" font-family="Helvetica,sans-Serif" font-size="10.00">NVIC_GetActive</text>
</a>
</g>
</g>
<!-- Node143&#45;&gt;Node176 -->
<g id="edge7" class="edge"><title>Node143&#45;&gt;Node176</title>
<path fill="none" stroke="midnightblue" d="M85.9062,-133.255C104.615,-117.057 144.628,-84.6312 184,-67 191.772,-63.5195 200.267,-60.6294 208.724,-58.2434"/>
<polygon fill="midnightblue" stroke="midnightblue" points="209.798,-61.5805 218.591,-55.669 208.031,-54.8073 209.798,-61.5805"/>
</g>
<!-- Node179 -->
<g id="node9" class="node"><title>Node179</title>
<g id="a_node9"><a xlink:href="group___c_m_s_i_s___core___n_v_i_c_functions.xhtml#ga3349f2e3580d7ce22d6530b7294e5921" target="_top" xlink:title="Enable External Interrupt. ">
<polygon fill="white" stroke="black" points="218.5,-0.5 218.5,-19.5 311.5,-19.5 311.5,-0.5 218.5,-0.5"/>
<text text-anchor="middle" x="265" y="-7.5" font-family="Helvetica,sans-Serif" font-size="10.00">NVIC_EnableIRQ</text>
</a>
</g>
</g>
<!-- Node143&#45;&gt;Node179 -->
<g id="edge8" class="edge"><title>Node143&#45;&gt;Node179</title>
<path fill="none" stroke="midnightblue" d="M81.3196,-133.265C96.2869,-111.039 136.249,-56.3717 184,-29 191.477,-24.7138 199.877,-21.3926 208.349,-18.8195"/>
<polygon fill="midnightblue" stroke="midnightblue" points="209.539,-22.1232 218.276,-16.1296 207.709,-15.3669 209.539,-22.1232"/>
</g>
</g>
</svg>
