<?xml version="1.0" encoding="UTF-8" standalone="no"?>
<!DOCTYPE svg PUBLIC "-//W3C//DTD SVG 1.1//EN"
 "http://www.w3.org/Graphics/SVG/1.1/DTD/svg11.dtd">
<!-- Generated by graphviz version 2.38.0 (20140413.2041)
 -->
<!-- Title: USBHS_HostEnableAutoSw Pages: 1 -->
<svg width="506pt" height="104pt"
 viewBox="0.00 0.00 506.00 104.00" xmlns="http://www.w3.org/2000/svg" xmlns:xlink="http://www.w3.org/1999/xlink">
<g id="graph0" class="graph" transform="scale(1 1) rotate(0) translate(4 100)">
<title>USBHS_HostEnableAutoSw</title>
<polygon fill="white" stroke="none" points="-4,4 -4,-100 502,-100 502,4 -4,4"/>
<!-- Node1766 -->
<g id="node1" class="node"><title>Node1766</title>
<polygon fill="#bfbfbf" stroke="black" points="0,-38.5 0,-57.5 148,-57.5 148,-38.5 0,-38.5"/>
<text text-anchor="middle" x="74" y="-45.5" font-family="Helvetica,sans-Serif" font-size="10.00">USBHS_HostEnableAutoSw</text>
</g>
<!-- Node1767 -->
<g id="node2" class="node"><title>Node1767</title>
<g id="a_node2"><a xlink:href="group__uhd__group.xhtml#ga8da03709234cba062389fcaee2c62f8b" target="_top" xlink:title="Configures and enables an endpoint. ">
<polygon fill="white" stroke="red" points="184,-76.5 184,-95.5 325,-95.5 325,-76.5 184,-76.5"/>
<text text-anchor="middle" x="254.5" y="-83.5" font-family="Helvetica,sans-Serif" font-size="10.00">USBH_HAL_ConfigurePipe</text>
</a>
</g>
</g>
<!-- Node1766&#45;&gt;Node1767 -->
<g id="edge1" class="edge"><title>Node1766&#45;&gt;Node1767</title>
<path fill="none" stroke="midnightblue" d="M129.87,-59.681C155.184,-65.0699 184.853,-71.3861 208.781,-76.4799"/>
<polygon fill="midnightblue" stroke="midnightblue" points="130.553,-56.248 120.043,-57.589 129.095,-63.0946 130.553,-56.248"/>
</g>
<!-- Node1771 -->
<g id="node3" class="node"><title>Node1771</title>
<g id="a_node3"><a xlink:href="group__uhd__group.xhtml#gaa29c0122543b5f5faf600eee68474615" target="_top" xlink:title="USBH_HAL_PipeInterrupt">
<polygon fill="white" stroke="red" points="361,-19.5 361,-38.5 498,-38.5 498,-19.5 361,-19.5"/>
<text text-anchor="middle" x="429.5" y="-26.5" font-family="Helvetica,sans-Serif" font-size="10.00">USBH_HAL_PipeInterrupt</text>
</a>
</g>
</g>
<!-- Node1766&#45;&gt;Node1771 -->
<g id="edge2" class="edge"><title>Node1766&#45;&gt;Node1771</title>
<path fill="none" stroke="midnightblue" d="M158.346,-43.5203C220.058,-40.2034 303.085,-35.7409 360.737,-32.6421"/>
<polygon fill="midnightblue" stroke="midnightblue" points="158.043,-40.0314 148.245,-44.0632 158.419,-47.0213 158.043,-40.0314"/>
</g>
<!-- Node1773 -->
<g id="node4" class="node"><title>Node1773</title>
<g id="a_node4"><a xlink:href="group__uhd__group.xhtml#gaba849a4ecb7f5b837541fbccf850da59" target="_top" xlink:title="USBH_HAL_PipeAbort">
<polygon fill="white" stroke="red" points="193.5,-0.5 193.5,-19.5 315.5,-19.5 315.5,-0.5 193.5,-0.5"/>
<text text-anchor="middle" x="254.5" y="-7.5" font-family="Helvetica,sans-Serif" font-size="10.00">USBH_HAL_PipeAbort</text>
</a>
</g>
</g>
<!-- Node1766&#45;&gt;Node1773 -->
<g id="edge3" class="edge"><title>Node1766&#45;&gt;Node1773</title>
<path fill="none" stroke="midnightblue" d="M129.87,-36.319C155.184,-30.9301 184.853,-24.6139 208.781,-19.5201"/>
<polygon fill="midnightblue" stroke="midnightblue" points="129.095,-32.9054 120.043,-38.411 130.553,-39.752 129.095,-32.9054"/>
</g>
<!-- Node1773&#45;&gt;Node1771 -->
<g id="edge4" class="edge"><title>Node1773&#45;&gt;Node1771</title>
<path fill="none" stroke="midnightblue" d="M325.621,-17.7012C337.26,-18.9794 349.309,-20.3027 360.884,-21.574"/>
<polygon fill="midnightblue" stroke="midnightblue" points="325.844,-14.2047 315.521,-16.592 325.08,-21.1628 325.844,-14.2047"/>
</g>
</g>
</svg>
