<?xml version="1.0" encoding="UTF-8" standalone="no"?>
<!DOCTYPE svg PUBLIC "-//W3C//DTD SVG 1.1//EN"
 "http://www.w3.org/Graphics/SVG/1.1/DTD/svg11.dtd">
<!-- Generated by graphviz version 2.38.0 (20140413.2041)
 -->
<!-- Title: USBHS_HostEnablePipeIntType Pages: 1 -->
<svg width="768pt" height="598pt"
 viewBox="0.00 0.00 768.00 598.00" xmlns="http://www.w3.org/2000/svg" xmlns:xlink="http://www.w3.org/1999/xlink">
<g id="graph0" class="graph" transform="scale(1 1) rotate(0) translate(4 594)">
<title>USBHS_HostEnablePipeIntType</title>
<polygon fill="white" stroke="none" points="-4,4 -4,-594 764,-594 764,4 -4,4"/>
<!-- Node1839 -->
<g id="node1" class="node"><title>Node1839</title>
<polygon fill="#bfbfbf" stroke="black" points="0,-285.5 0,-304.5 165,-304.5 165,-285.5 0,-285.5"/>
<text text-anchor="middle" x="82.5" y="-292.5" font-family="Helvetica,sans-Serif" font-size="10.00">USBHS_HostEnablePipeIntType</text>
</g>
<!-- Node1840 -->
<g id="node2" class="node"><title>Node1840</title>
<g id="a_node2"><a xlink:href="group__uhd__group.xhtml#ga108d6958efd3c7337897ae40963e3f58" target="_top" xlink:title="Enables the suspend state on the USB line. ">
<polygon fill="white" stroke="red" points="230.5,-570.5 230.5,-589.5 347.5,-589.5 347.5,-570.5 230.5,-570.5"/>
<text text-anchor="middle" x="289" y="-577.5" font-family="Helvetica,sans-Serif" font-size="10.00">USBH_HAL_Suspend</text>
</a>
</g>
</g>
<!-- Node1839&#45;&gt;Node1840 -->
<g id="edge1" class="edge"><title>Node1839&#45;&gt;Node1840</title>
<path fill="none" stroke="midnightblue" d="M86.0853,-314.648C93.7092,-364.303 120.835,-495.518 201,-561 209.381,-567.846 219.684,-572.369 230.231,-575.327"/>
<polygon fill="midnightblue" stroke="midnightblue" points="89.5283,-314 84.6429,-304.599 82.5993,-314.995 89.5283,-314"/>
</g>
<!-- Node1908 -->
<g id="node3" class="node"><title>Node1908</title>
<g id="a_node3"><a xlink:href="group__uhd__group.xhtml#gad9e15307f67bf17a172ce88dc52ff6a3" target="_top" xlink:title="Configures and enables a control endpoint 0. ">
<polygon fill="white" stroke="red" points="201,-532.5 201,-551.5 377,-551.5 377,-532.5 201,-532.5"/>
<text text-anchor="middle" x="289" y="-539.5" font-family="Helvetica,sans-Serif" font-size="10.00">USBH_HAL_ConfigureControlPipe</text>
</a>
</g>
</g>
<!-- Node1839&#45;&gt;Node1908 -->
<g id="edge2" class="edge"><title>Node1839&#45;&gt;Node1908</title>
<path fill="none" stroke="midnightblue" d="M87.6157,-314.521C98.0737,-359.051 130.027,-468.486 201,-523 206.027,-526.861 211.675,-529.973 217.617,-532.476"/>
<polygon fill="midnightblue" stroke="midnightblue" points="91.0106,-313.664 85.4093,-304.671 84.1798,-315.194 91.0106,-313.664"/>
</g>
<!-- Node1909 -->
<g id="node4" class="node"><title>Node1909</title>
<g id="a_node4"><a xlink:href="group__uhd__group.xhtml#ga8da03709234cba062389fcaee2c62f8b" target="_top" xlink:title="Configures and enables an endpoint. ">
<polygon fill="white" stroke="red" points="218.5,-494.5 218.5,-513.5 359.5,-513.5 359.5,-494.5 218.5,-494.5"/>
<text text-anchor="middle" x="289" y="-501.5" font-family="Helvetica,sans-Serif" font-size="10.00">USBH_HAL_ConfigurePipe</text>
</a>
</g>
</g>
<!-- Node1839&#45;&gt;Node1909 -->
<g id="edge3" class="edge"><title>Node1839&#45;&gt;Node1909</title>
<path fill="none" stroke="midnightblue" d="M89.6936,-314.414C103.183,-353.389 139.078,-441.168 201,-485 206.426,-488.841 212.484,-491.927 218.808,-494.405"/>
<polygon fill="midnightblue" stroke="midnightblue" points="92.9677,-313.168 86.48,-304.792 86.3282,-315.386 92.9677,-313.168"/>
</g>
<!-- Node1913 -->
<g id="node5" class="node"><title>Node1913</title>
<g id="a_node5"><a xlink:href="group__uhd__group.xhtml#ga1d4a9f98194cb255b2fcb6cdf8d83fb8" target="_top" xlink:title="Allows to receive or send data on an endpoint. ">
<polygon fill="white" stroke="red" points="222,-456.5 222,-475.5 356,-475.5 356,-456.5 222,-456.5"/>
<text text-anchor="middle" x="289" y="-463.5" font-family="Helvetica,sans-Serif" font-size="10.00">USBH_HAL_RunEndpoint</text>
</a>
</g>
</g>
<!-- Node1839&#45;&gt;Node1913 -->
<g id="edge4" class="edge"><title>Node1839&#45;&gt;Node1913</title>
<path fill="none" stroke="midnightblue" d="M92.5919,-314.074C109.234,-346.805 147.835,-413.381 201,-447 207.403,-451.049 214.542,-454.244 221.901,-456.763"/>
<polygon fill="midnightblue" stroke="midnightblue" points="95.5379,-312.136 87.9695,-304.722 89.2625,-315.237 95.5379,-312.136"/>
</g>
<!-- Node1864 -->
<g id="node6" class="node"><title>Node1864</title>
<g id="a_node6"><a xlink:href="group__uhd__group.xhtml#ga0e9c1f691d695f4c878712831d38e9c0" target="_top" xlink:title="USBH_HAL_ControlTimeout">
<polygon fill="white" stroke="red" points="214.5,-418.5 214.5,-437.5 363.5,-437.5 363.5,-418.5 214.5,-418.5"/>
<text text-anchor="middle" x="289" y="-425.5" font-family="Helvetica,sans-Serif" font-size="10.00">USBH_HAL_ControlTimeout</text>
</a>
</g>
</g>
<!-- Node1839&#45;&gt;Node1864 -->
<g id="edge5" class="edge"><title>Node1839&#45;&gt;Node1864</title>
<path fill="none" stroke="midnightblue" d="M97.7917,-312.787C118.174,-336.98 157.925,-379.989 201,-404 212.222,-410.256 225.181,-414.966 237.614,-418.48"/>
<polygon fill="midnightblue" stroke="midnightblue" points="100.256,-310.275 91.1882,-304.795 94.8599,-314.734 100.256,-310.275"/>
</g>
<!-- Node1866 -->
<g id="node7" class="node"><title>Node1866</title>
<g id="a_node7"><a xlink:href="group__uhd__group.xhtml#ga85b92a3f7bc4357fae366d2f7a1c595b" target="_top" xlink:title="USBH_HAL_ControlInterrupt">
<polygon fill="white" stroke="red" points="609,-266.5 609,-285.5 760,-285.5 760,-266.5 609,-266.5"/>
<text text-anchor="middle" x="684.5" y="-273.5" font-family="Helvetica,sans-Serif" font-size="10.00">USBH_HAL_ControlInterrupt</text>
</a>
</g>
</g>
<!-- Node1839&#45;&gt;Node1866 -->
<g id="edge6" class="edge"><title>Node1839&#45;&gt;Node1866</title>
<path fill="none" stroke="midnightblue" d="M101.492,-311.466C123.203,-330.11 161.712,-359.401 201,-371 360.393,-418.056 415.983,-387.462 573,-333 608.893,-320.55 647.662,-298.277 668.387,-285.573"/>
<polygon fill="midnightblue" stroke="midnightblue" points="103.59,-308.65 93.7712,-304.67 98.965,-313.904 103.59,-308.65"/>
</g>
<!-- Node1867 -->
<g id="node8" class="node"><title>Node1867</title>
<g id="a_node8"><a xlink:href="group__uhd__group.xhtml#ga1ddb6a33201674d513c4ad9c5de79e93" target="_top" xlink:title="USBH_HAL_PhaseControlSetup">
<polygon fill="white" stroke="red" points="205.5,-342.5 205.5,-361.5 372.5,-361.5 372.5,-342.5 205.5,-342.5"/>
<text text-anchor="middle" x="289" y="-349.5" font-family="Helvetica,sans-Serif" font-size="10.00">USBH_HAL_PhaseControlSetup</text>
</a>
</g>
</g>
<!-- Node1839&#45;&gt;Node1867 -->
<g id="edge7" class="edge"><title>Node1839&#45;&gt;Node1867</title>
<path fill="none" stroke="midnightblue" d="M126.953,-307.256C149.108,-313.491 176.483,-321.176 201,-328 218.208,-332.79 237.342,-338.073 253.275,-342.46"/>
<polygon fill="midnightblue" stroke="midnightblue" points="127.744,-303.842 117.17,-304.501 125.847,-310.58 127.744,-303.842"/>
</g>
<!-- Node1926 -->
<g id="node9" class="node"><title>Node1926</title>
<g id="a_node9"><a xlink:href="group__uhd__group.xhtml#gad1f5aedd5277d055c4c23a9a185fb7e6" target="_top" xlink:title="USBH_HAL_PhaseDataInStart">
<polygon fill="white" stroke="black" points="413,-304.5 413,-323.5 573,-323.5 573,-304.5 413,-304.5"/>
<text text-anchor="middle" x="493" y="-311.5" font-family="Helvetica,sans-Serif" font-size="10.00">USBH_HAL_PhaseDataInStart</text>
</a>
</g>
</g>
<!-- Node1839&#45;&gt;Node1926 -->
<g id="edge8" class="edge"><title>Node1839&#45;&gt;Node1926</title>
<path fill="none" stroke="midnightblue" d="M175.524,-299.28C246.957,-302.603 344.95,-307.16 412.888,-310.32"/>
<polygon fill="midnightblue" stroke="midnightblue" points="175.336,-295.768 165.184,-298.799 175.011,-302.76 175.336,-295.768"/>
</g>
<!-- Node1927 -->
<g id="node10" class="node"><title>Node1927</title>
<g id="a_node10"><a xlink:href="group__uhd__group.xhtml#gadc3093c163c3229d9343cb5f2f6ef8dd" target="_top" xlink:title="USBH_HAL_PhaseDataIn">
<polygon fill="white" stroke="black" points="425,-266.5 425,-285.5 561,-285.5 561,-266.5 425,-266.5"/>
<text text-anchor="middle" x="493" y="-273.5" font-family="Helvetica,sans-Serif" font-size="10.00">USBH_HAL_PhaseDataIn</text>
</a>
</g>
</g>
<!-- Node1839&#45;&gt;Node1927 -->
<g id="edge10" class="edge"><title>Node1839&#45;&gt;Node1927</title>
<path fill="none" stroke="midnightblue" d="M175.208,-290.735C251.022,-287.208 356.913,-282.283 424.976,-279.117"/>
<polygon fill="midnightblue" stroke="midnightblue" points="175.011,-287.24 165.184,-291.201 175.336,-294.232 175.011,-287.24"/>
</g>
<!-- Node1928 -->
<g id="node11" class="node"><title>Node1928</title>
<g id="a_node11"><a xlink:href="group__uhd__group.xhtml#ga9fcd1bf925a9ad0692672d08f3da3427" target="_top" xlink:title="USBH_HAL_InZLP">
<polygon fill="white" stroke="black" points="238,-190.5 238,-209.5 340,-209.5 340,-190.5 238,-190.5"/>
<text text-anchor="middle" x="289" y="-197.5" font-family="Helvetica,sans-Serif" font-size="10.00">USBH_HAL_InZLP</text>
</a>
</g>
</g>
<!-- Node1839&#45;&gt;Node1928 -->
<g id="edge12" class="edge"><title>Node1839&#45;&gt;Node1928</title>
<path fill="none" stroke="midnightblue" d="M103.065,-279.163C125.432,-261.846 163.777,-234.5 201,-219 212.561,-214.186 225.515,-210.516 237.824,-207.749"/>
<polygon fill="midnightblue" stroke="midnightblue" points="100.735,-276.543 95.042,-285.478 105.065,-282.043 100.735,-276.543"/>
</g>
<!-- Node1929 -->
<g id="node12" class="node"><title>Node1929</title>
<g id="a_node12"><a xlink:href="group__uhd__group.xhtml#ga74ceb21eb2c7ef68d5fe6f02ea7beb58" target="_top" xlink:title="USBH_HAL_PhaseDataOut">
<polygon fill="white" stroke="black" points="420.5,-190.5 420.5,-209.5 565.5,-209.5 565.5,-190.5 420.5,-190.5"/>
<text text-anchor="middle" x="493" y="-197.5" font-family="Helvetica,sans-Serif" font-size="10.00">USBH_HAL_PhaseDataOut</text>
</a>
</g>
</g>
<!-- Node1839&#45;&gt;Node1929 -->
<g id="edge16" class="edge"><title>Node1839&#45;&gt;Node1929</title>
<path fill="none" stroke="midnightblue" d="M95.1124,-277.017C113.688,-250.118 152.933,-200.486 201,-181 291.555,-144.29 410.967,-173.731 464.256,-190.445"/>
<polygon fill="midnightblue" stroke="midnightblue" points="92.0883,-275.242 89.4233,-285.496 97.9012,-279.142 92.0883,-275.242"/>
</g>
<!-- Node1930 -->
<g id="node13" class="node"><title>Node1930</title>
<g id="a_node13"><a xlink:href="group__uhd__group.xhtml#ga5d07dff59bfb3f4de2343ae894fdac03" target="_top" xlink:title="USBH_HAL_OutZLP">
<polygon fill="white" stroke="black" points="233.5,-228.5 233.5,-247.5 344.5,-247.5 344.5,-228.5 233.5,-228.5"/>
<text text-anchor="middle" x="289" y="-235.5" font-family="Helvetica,sans-Serif" font-size="10.00">USBH_HAL_OutZLP</text>
</a>
</g>
</g>
<!-- Node1839&#45;&gt;Node1930 -->
<g id="edge17" class="edge"><title>Node1839&#45;&gt;Node1930</title>
<path fill="none" stroke="midnightblue" d="M126.953,-282.744C149.108,-276.509 176.483,-268.824 201,-262 218.208,-257.21 237.342,-251.927 253.275,-247.54"/>
<polygon fill="midnightblue" stroke="midnightblue" points="125.847,-279.42 117.17,-285.499 127.744,-286.158 125.847,-279.42"/>
</g>
<!-- Node1931 -->
<g id="node14" class="node"><title>Node1931</title>
<g id="a_node14"><a xlink:href="group__uhd__group.xhtml#gafba473f1b723cdb9500b91ec7fad0207" target="_top" xlink:title="USBH_HAL_PipeInReceived">
<polygon fill="white" stroke="black" points="216,-114.5 216,-133.5 362,-133.5 362,-114.5 216,-114.5"/>
<text text-anchor="middle" x="289" y="-121.5" font-family="Helvetica,sans-Serif" font-size="10.00">USBH_HAL_PipeInReceived</text>
</a>
</g>
</g>
<!-- Node1839&#45;&gt;Node1931 -->
<g id="edge19" class="edge"><title>Node1839&#45;&gt;Node1931</title>
<path fill="none" stroke="midnightblue" d="M93.1982,-276.394C110.518,-245.027 149.802,-181.75 201,-148 210.55,-141.705 221.727,-137.048 232.828,-133.608"/>
<polygon fill="midnightblue" stroke="midnightblue" points="90.0195,-274.915 88.3594,-285.379 96.1825,-278.234 90.0195,-274.915"/>
</g>
<!-- Node1932 -->
<g id="node15" class="node"><title>Node1932</title>
<g id="a_node15"><a xlink:href="group__uhd__group.xhtml#gaa29c0122543b5f5faf600eee68474615" target="_top" xlink:title="USBH_HAL_PipeInterrupt">
<polygon fill="white" stroke="red" points="424.5,-57.5 424.5,-76.5 561.5,-76.5 561.5,-57.5 424.5,-57.5"/>
<text text-anchor="middle" x="493" y="-64.5" font-family="Helvetica,sans-Serif" font-size="10.00">USBH_HAL_PipeInterrupt</text>
</a>
</g>
</g>
<!-- Node1839&#45;&gt;Node1932 -->
<g id="edge23" class="edge"><title>Node1839&#45;&gt;Node1932</title>
<path fill="none" stroke="midnightblue" d="M89.2115,-275.694C102.003,-236.183 136.97,-146.348 201,-105 236.792,-81.8864 350.024,-72.7545 424.232,-69.2008"/>
<polygon fill="midnightblue" stroke="midnightblue" points="85.8139,-274.833 86.1859,-285.421 92.4981,-276.912 85.8139,-274.833"/>
</g>
<!-- Node1933 -->
<g id="node16" class="node"><title>Node1933</title>
<g id="a_node16"><a xlink:href="group__uhd__group.xhtml#ga39a6506d44760a518b49d004574bc9c9" target="_top" xlink:title="USBH_HAL_PipeOutReady">
<polygon fill="white" stroke="black" points="218.5,-38.5 218.5,-57.5 359.5,-57.5 359.5,-38.5 218.5,-38.5"/>
<text text-anchor="middle" x="289" y="-45.5" font-family="Helvetica,sans-Serif" font-size="10.00">USBH_HAL_PipeOutReady</text>
</a>
</g>
</g>
<!-- Node1839&#45;&gt;Node1933 -->
<g id="edge21" class="edge"><title>Node1839&#45;&gt;Node1933</title>
<path fill="none" stroke="midnightblue" d="M88.183,-275.286C99.576,-231.715 132.937,-126.76 201,-72 208.813,-65.714 218.157,-61.0711 227.778,-57.6425"/>
<polygon fill="midnightblue" stroke="midnightblue" points="84.7356,-274.644 85.6987,-285.195 91.5254,-276.346 84.7356,-274.644"/>
</g>
<!-- Node1934 -->
<g id="node17" class="node"><title>Node1934</title>
<g id="a_node17"><a xlink:href="group__uhd__group.xhtml#gaba849a4ecb7f5b837541fbccf850da59" target="_top" xlink:title="USBH_HAL_PipeAbort">
<polygon fill="white" stroke="red" points="228,-0.5 228,-19.5 350,-19.5 350,-0.5 228,-0.5"/>
<text text-anchor="middle" x="289" y="-7.5" font-family="Helvetica,sans-Serif" font-size="10.00">USBH_HAL_PipeAbort</text>
</a>
</g>
</g>
<!-- Node1839&#45;&gt;Node1934 -->
<g id="edge24" class="edge"><title>Node1839&#45;&gt;Node1934</title>
<path fill="none" stroke="midnightblue" d="M86.0853,-275.352C93.7092,-225.697 120.835,-94.4821 201,-29 208.783,-22.6428 218.222,-18.2889 227.975,-15.3309"/>
<polygon fill="midnightblue" stroke="midnightblue" points="82.5993,-275.005 84.6429,-285.401 89.5283,-276 82.5993,-275.005"/>
</g>
<!-- Node1926&#45;&gt;Node1866 -->
<g id="edge9" class="edge"><title>Node1926&#45;&gt;Node1866</title>
<path fill="none" stroke="midnightblue" d="M551.895,-302.39C578.846,-296.986 610.51,-290.636 636.025,-285.52"/>
<polygon fill="midnightblue" stroke="midnightblue" points="550.935,-299.013 541.819,-304.411 552.312,-305.876 550.935,-299.013"/>
</g>
<!-- Node1927&#45;&gt;Node1866 -->
<g id="edge11" class="edge"><title>Node1927&#45;&gt;Node1866</title>
<path fill="none" stroke="midnightblue" d="M571.344,-276C583.703,-276 596.472,-276 608.769,-276"/>
<polygon fill="midnightblue" stroke="midnightblue" points="571.077,-272.5 561.077,-276 571.077,-279.5 571.077,-272.5"/>
</g>
<!-- Node1928&#45;&gt;Node1866 -->
<g id="edge13" class="edge"><title>Node1928&#45;&gt;Node1866</title>
<path fill="none" stroke="midnightblue" d="M349.556,-211.503C427.309,-226.52 561.978,-252.529 634.264,-266.491"/>
<polygon fill="midnightblue" stroke="midnightblue" points="349.921,-208.008 339.439,-209.548 348.593,-214.881 349.921,-208.008"/>
</g>
<!-- Node1928&#45;&gt;Node1929 -->
<g id="edge14" class="edge"><title>Node1928&#45;&gt;Node1929</title>
<path fill="none" stroke="midnightblue" d="M350.386,-200C372.375,-200 397.445,-200 420.319,-200"/>
<polygon fill="midnightblue" stroke="midnightblue" points="350.192,-196.5 340.192,-200 350.192,-203.5 350.192,-196.5"/>
</g>
<!-- Node1929&#45;&gt;Node1866 -->
<g id="edge15" class="edge"><title>Node1929&#45;&gt;Node1866</title>
<path fill="none" stroke="midnightblue" d="M539,-212.439C550.214,-215.875 562.136,-219.819 573,-224 606.243,-236.794 643.443,-255.19 665.09,-266.326"/>
<polygon fill="midnightblue" stroke="midnightblue" points="539.955,-209.072 529.371,-209.557 537.947,-215.778 539.955,-209.072"/>
</g>
<!-- Node1930&#45;&gt;Node1927 -->
<g id="edge18" class="edge"><title>Node1930&#45;&gt;Node1927</title>
<path fill="none" stroke="midnightblue" d="M350.696,-249.418C379.599,-254.855 413.769,-261.283 441.267,-266.456"/>
<polygon fill="midnightblue" stroke="midnightblue" points="351.187,-245.949 340.712,-247.54 349.893,-252.828 351.187,-245.949"/>
</g>
<!-- Node1931&#45;&gt;Node1932 -->
<g id="edge20" class="edge"><title>Node1931&#45;&gt;Node1932</title>
<path fill="none" stroke="midnightblue" d="M335.158,-111.637C348.628,-107.924 363.419,-103.822 377,-100 404.592,-92.2355 435.854,-83.2527 458.812,-76.6213"/>
<polygon fill="midnightblue" stroke="midnightblue" points="333.87,-108.362 325.158,-114.39 335.728,-115.111 333.87,-108.362"/>
</g>
<!-- Node1933&#45;&gt;Node1932 -->
<g id="edge22" class="edge"><title>Node1933&#45;&gt;Node1932</title>
<path fill="none" stroke="midnightblue" d="M369.492,-55.477C387.656,-57.1855 406.793,-58.9855 424.403,-60.6419"/>
<polygon fill="midnightblue" stroke="midnightblue" points="369.801,-51.9907 359.517,-54.5387 369.145,-58.9599 369.801,-51.9907"/>
</g>
<!-- Node1934&#45;&gt;Node1932 -->
<g id="edge25" class="edge"><title>Node1934&#45;&gt;Node1932</title>
<path fill="none" stroke="midnightblue" d="M348.074,-21.8014C357.775,-24.0247 367.703,-26.4563 377,-29 407.828,-37.435 442.59,-49.2499 465.746,-57.4574"/>
<polygon fill="midnightblue" stroke="midnightblue" points="348.606,-18.334 338.083,-19.5641 347.076,-25.1648 348.606,-18.334"/>
</g>
</g>
</svg>
