<?xml version="1.0" encoding="UTF-8" standalone="no"?>
<!DOCTYPE svg PUBLIC "-//W3C//DTD SVG 1.1//EN"
 "http://www.w3.org/Graphics/SVG/1.1/DTD/svg11.dtd">
<!-- Generated by graphviz version 2.38.0 (20140413.2041)
 -->
<!-- Title: USBHS_IsEpIntEnable Pages: 1 -->
<svg width="302pt" height="66pt"
 viewBox="0.00 0.00 302.00 66.00" xmlns="http://www.w3.org/2000/svg" xmlns:xlink="http://www.w3.org/1999/xlink">
<g id="graph0" class="graph" transform="scale(1 1) rotate(0) translate(4 62)">
<title>USBHS_IsEpIntEnable</title>
<polygon fill="white" stroke="none" points="-4,4 -4,-62 298,-62 298,4 -4,4"/>
<!-- Node2672 -->
<g id="node1" class="node"><title>Node2672</title>
<polygon fill="#bfbfbf" stroke="black" points="0,-19.5 0,-38.5 121,-38.5 121,-19.5 0,-19.5"/>
<text text-anchor="middle" x="60.5" y="-26.5" font-family="Helvetica,sans-Serif" font-size="10.00">USBHS_IsEpIntEnable</text>
</g>
<!-- Node2673 -->
<g id="node2" class="node"><title>Node2673</title>
<g id="a_node2"><a xlink:href="group__usbd__hal.xhtml#ga4daf62d090af26b8e55aaf9549926622" target="_top" xlink:title="Endpoint interrupt handler. ">
<polygon fill="white" stroke="red" points="157,-38.5 157,-57.5 294,-57.5 294,-38.5 157,-38.5"/>
<text text-anchor="middle" x="225.5" y="-45.5" font-family="Helvetica,sans-Serif" font-size="10.00">UDPHS_EndpointHandler</text>
</a>
</g>
</g>
<!-- Node2672&#45;&gt;Node2673 -->
<g id="edge1" class="edge"><title>Node2672&#45;&gt;Node2673</title>
<path fill="none" stroke="midnightblue" d="M131.409,-37.1489C139.809,-38.1281 148.378,-39.1269 156.747,-40.1024"/>
<polygon fill="midnightblue" stroke="midnightblue" points="131.608,-33.6484 121.27,-35.967 130.797,-40.6014 131.608,-33.6484"/>
</g>
<!-- Node2675 -->
<g id="node3" class="node"><title>Node2675</title>
<g id="a_node3"><a xlink:href="group__usbd__hal.xhtml#ga1a1fd7ed1af2be8e202879458a6cfda7" target="_top" xlink:title="Sets/Clear/Get the HALT state on the endpoint. ">
<polygon fill="white" stroke="red" points="178,-0.5 178,-19.5 273,-19.5 273,-0.5 178,-0.5"/>
<text text-anchor="middle" x="225.5" y="-7.5" font-family="Helvetica,sans-Serif" font-size="10.00">USBD_HAL_Halt</text>
</a>
</g>
</g>
<!-- Node2672&#45;&gt;Node2675 -->
<g id="edge2" class="edge"><title>Node2672&#45;&gt;Node2675</title>
<path fill="none" stroke="midnightblue" d="M131.444,-20.8471C147.091,-19.0232 163.318,-17.1316 177.755,-15.4488"/>
<polygon fill="midnightblue" stroke="midnightblue" points="130.797,-17.3986 121.27,-22.033 131.608,-24.3516 130.797,-17.3986"/>
</g>
</g>
</svg>
