<?xml version="1.0" encoding="UTF-8" standalone="no"?>
<!DOCTYPE svg PUBLIC "-//W3C//DTD SVG 1.1//EN"
 "http://www.w3.org/Graphics/SVG/1.1/DTD/svg11.dtd">
<!-- Generated by graphviz version 2.38.0 (20140413.2041)
 -->
<!-- Title: USBHS_IsBankFree Pages: 1 -->
<svg width="248pt" height="66pt"
 viewBox="0.00 0.00 248.00 66.00" xmlns="http://www.w3.org/2000/svg" xmlns:xlink="http://www.w3.org/1999/xlink">
<g id="graph0" class="graph" transform="scale(1 1) rotate(0) translate(4 62)">
<title>USBHS_IsBankFree</title>
<polygon fill="white" stroke="none" points="-4,4 -4,-62 244,-62 244,4 -4,4"/>
<!-- Node2511 -->
<g id="node1" class="node"><title>Node2511</title>
<polygon fill="#bfbfbf" stroke="black" points="0,-19.5 0,-38.5 109,-38.5 109,-19.5 0,-19.5"/>
<text text-anchor="middle" x="54.5" y="-26.5" font-family="Helvetica,sans-Serif" font-size="10.00">USBHS_IsBankFree</text>
</g>
<!-- Node2512 -->
<g id="node2" class="node"><title>Node2512</title>
<g id="a_node2"><a xlink:href="group__usbd__hal.xhtml#ga81935b1ed57f1d4e636df4565de436a5" target="_top" xlink:title="Sends data through a USB endpoint. ">
<polygon fill="white" stroke="red" points="152.5,-38.5 152.5,-57.5 232.5,-57.5 232.5,-38.5 152.5,-38.5"/>
<text text-anchor="middle" x="192.5" y="-45.5" font-family="Helvetica,sans-Serif" font-size="10.00">UDPHS_Write</text>
</a>
</g>
</g>
<!-- Node2511&#45;&gt;Node2512 -->
<g id="edge1" class="edge"><title>Node2511&#45;&gt;Node2512</title>
<path fill="none" stroke="midnightblue" d="M119.49,-37.9398C130.723,-39.5092 142.103,-41.0989 152.397,-42.5371"/>
<polygon fill="midnightblue" stroke="midnightblue" points="119.639,-34.4267 109.251,-36.5093 118.67,-41.3593 119.639,-34.4267"/>
</g>
<!-- Node2618 -->
<g id="node3" class="node"><title>Node2618</title>
<g id="a_node3"><a xlink:href="group__usbd__hal.xhtml#ga1a1fd7ed1af2be8e202879458a6cfda7" target="_top" xlink:title="Sets/Clear/Get the HALT state on the endpoint. ">
<polygon fill="white" stroke="red" points="145,-0.5 145,-19.5 240,-19.5 240,-0.5 145,-0.5"/>
<text text-anchor="middle" x="192.5" y="-7.5" font-family="Helvetica,sans-Serif" font-size="10.00">USBD_HAL_Halt</text>
</a>
</g>
</g>
<!-- Node2511&#45;&gt;Node2618 -->
<g id="edge2" class="edge"><title>Node2511&#45;&gt;Node2618</title>
<path fill="none" stroke="midnightblue" d="M119.256,-20.0929C127.843,-18.8932 136.521,-17.6809 144.738,-16.5329"/>
<polygon fill="midnightblue" stroke="midnightblue" points="118.67,-16.6407 109.251,-21.4907 119.639,-23.5733 118.67,-16.6407"/>
</g>
</g>
</svg>
