<?xml version="1.0" encoding="UTF-8" standalone="no"?>
<!DOCTYPE svg PUBLIC "-//W3C//DTD SVG 1.1//EN"
 "http://www.w3.org/Graphics/SVG/1.1/DTD/svg11.dtd">
<!-- Generated by graphviz version 2.38.0 (20140413.2041)
 -->
<!-- Title: USBHS_ClearHostStatus Pages: 1 -->
<svg width="336pt" height="104pt"
 viewBox="0.00 0.00 336.00 104.00" xmlns="http://www.w3.org/2000/svg" xmlns:xlink="http://www.w3.org/1999/xlink">
<g id="graph0" class="graph" transform="scale(1 1) rotate(0) translate(4 100)">
<title>USBHS_ClearHostStatus</title>
<polygon fill="white" stroke="none" points="-4,4 -4,-100 332,-100 332,4 -4,4"/>
<!-- Node192 -->
<g id="node1" class="node"><title>Node192</title>
<polygon fill="#bfbfbf" stroke="black" points="0,-38.5 0,-57.5 136,-57.5 136,-38.5 0,-38.5"/>
<text text-anchor="middle" x="68" y="-45.5" font-family="Helvetica,sans-Serif" font-size="10.00">USBHS_ClearHostStatus</text>
</g>
<!-- Node193 -->
<g id="node2" class="node"><title>Node193</title>
<g id="a_node2"><a xlink:href="group__uhd__group.xhtml#gafcd12a00544aac7645deb694ec611e7a" target="_top" xlink:title="USBD (UDP) interrupt handler Manages device resume, suspend, end of bus reset. ">
<polygon fill="white" stroke="black" points="202.5,-76.5 202.5,-95.5 297.5,-95.5 297.5,-76.5 202.5,-76.5"/>
<text text-anchor="middle" x="250" y="-83.5" font-family="Helvetica,sans-Serif" font-size="10.00">USBHS_Handler</text>
</a>
</g>
</g>
<!-- Node192&#45;&gt;Node193 -->
<g id="edge1" class="edge"><title>Node192&#45;&gt;Node193</title>
<path fill="none" stroke="midnightblue" d="M124.331,-59.681C149.857,-65.0699 179.776,-71.3861 203.905,-76.4799"/>
<polygon fill="midnightblue" stroke="midnightblue" points="124.929,-56.2301 114.422,-57.589 123.483,-63.0792 124.929,-56.2301"/>
</g>
<!-- Node194 -->
<g id="node3" class="node"><title>Node194</title>
<g id="a_node3"><a xlink:href="group__uhd__group.xhtml#ga3a715175934fb8bf3c918f04ef0dae2b" target="_top" xlink:title="Enables the USB host mode Start the ID pin management if the ID pin is available. ...">
<polygon fill="white" stroke="red" points="175.5,-38.5 175.5,-57.5 324.5,-57.5 324.5,-38.5 175.5,-38.5"/>
<text text-anchor="middle" x="250" y="-45.5" font-family="Helvetica,sans-Serif" font-size="10.00">USBH_HAL_EnableUsbHost</text>
</a>
</g>
</g>
<!-- Node192&#45;&gt;Node194 -->
<g id="edge2" class="edge"><title>Node192&#45;&gt;Node194</title>
<path fill="none" stroke="midnightblue" d="M146.034,-48C155.728,-48 165.627,-48 175.268,-48"/>
<polygon fill="midnightblue" stroke="midnightblue" points="146.025,-44.5001 136.025,-48 146.025,-51.5001 146.025,-44.5001"/>
</g>
<!-- Node196 -->
<g id="node4" class="node"><title>Node196</title>
<g id="a_node4"><a xlink:href="group__uhd__group.xhtml#ga170d8082df4bb77da27db090827145ec" target="_top" xlink:title="USBH_HAL_DelayedSuspend">
<polygon fill="white" stroke="red" points="172,-0.5 172,-19.5 328,-19.5 328,-0.5 172,-0.5"/>
<text text-anchor="middle" x="250" y="-7.5" font-family="Helvetica,sans-Serif" font-size="10.00">USBH_HAL_DelayedSuspend</text>
</a>
</g>
</g>
<!-- Node192&#45;&gt;Node196 -->
<g id="edge3" class="edge"><title>Node192&#45;&gt;Node196</title>
<path fill="none" stroke="midnightblue" d="M124.331,-36.319C149.857,-30.9301 179.776,-24.6139 203.905,-19.5201"/>
<polygon fill="midnightblue" stroke="midnightblue" points="123.483,-32.9208 114.422,-38.411 124.929,-39.7699 123.483,-32.9208"/>
</g>
</g>
</svg>
