<?xml version="1.0" encoding="UTF-8" standalone="no"?>
<!DOCTYPE svg PUBLIC "-//W3C//DTD SVG 1.1//EN"
 "http://www.w3.org/Graphics/SVG/1.1/DTD/svg11.dtd">
<!-- Generated by graphviz version 2.38.0 (20140413.2041)
 -->
<!-- Title: USBHS_HostGetIntTypeStatus Pages: 1 -->
<svg width="533pt" height="96pt"
 viewBox="0.00 0.00 533.00 96.29" xmlns="http://www.w3.org/2000/svg" xmlns:xlink="http://www.w3.org/1999/xlink">
<g id="graph0" class="graph" transform="scale(1 1) rotate(0) translate(4 92.2913)">
<title>USBHS_HostGetIntTypeStatus</title>
<polygon fill="white" stroke="none" points="-4,4 -4,-92.2913 529,-92.2913 529,4 -4,4"/>
<!-- Node2066 -->
<g id="node1" class="node"><title>Node2066</title>
<polygon fill="#bfbfbf" stroke="black" points="0,-34.7068 0,-53.7068 161,-53.7068 161,-34.7068 0,-34.7068"/>
<text text-anchor="middle" x="80.5" y="-41.7068" font-family="Helvetica,sans-Serif" font-size="10.00">USBHS_HostGetIntTypeStatus</text>
</g>
<!-- Node2067 -->
<g id="node2" class="node"><title>Node2067</title>
<g id="a_node2"><a xlink:href="group__uhd__group.xhtml#ga85b92a3f7bc4357fae366d2f7a1c595b" target="_top" xlink:title="USBH_HAL_ControlInterrupt">
<polygon fill="white" stroke="red" points="374,-62.7068 374,-81.7068 525,-81.7068 525,-62.7068 374,-62.7068"/>
<text text-anchor="middle" x="449.5" y="-69.7068" font-family="Helvetica,sans-Serif" font-size="10.00">USBH_HAL_ControlInterrupt</text>
</a>
</g>
</g>
<!-- Node2066&#45;&gt;Node2067 -->
<g id="edge1" class="edge"><title>Node2066&#45;&gt;Node2067</title>
<path fill="none" stroke="midnightblue" d="M113.058,-57.6147C135.9,-66.5651 167.768,-77.5216 197,-82.2068 260.103,-92.3206 333.188,-87.6149 384.255,-81.7213"/>
<polygon fill="midnightblue" stroke="midnightblue" points="114.132,-54.2746 103.548,-53.7999 111.526,-60.7714 114.132,-54.2746"/>
</g>
<!-- Node2069 -->
<g id="node3" class="node"><title>Node2069</title>
<g id="a_node3"><a xlink:href="group__uhd__group.xhtml#gadc3093c163c3229d9343cb5f2f6ef8dd" target="_top" xlink:title="USBH_HAL_PhaseDataIn">
<polygon fill="white" stroke="black" points="199.5,-53.7068 199.5,-72.7068 335.5,-72.7068 335.5,-53.7068 199.5,-53.7068"/>
<text text-anchor="middle" x="267.5" y="-60.7068" font-family="Helvetica,sans-Serif" font-size="10.00">USBH_HAL_PhaseDataIn</text>
</a>
</g>
</g>
<!-- Node2066&#45;&gt;Node2069 -->
<g id="edge2" class="edge"><title>Node2066&#45;&gt;Node2069</title>
<path fill="none" stroke="midnightblue" d="M171.228,-53.4221C180.656,-54.3904 190.123,-55.3627 199.237,-56.2986"/>
<polygon fill="midnightblue" stroke="midnightblue" points="171.336,-49.9148 161.03,-52.3748 170.62,-56.8782 171.336,-49.9148"/>
</g>
<!-- Node2070 -->
<g id="node4" class="node"><title>Node2070</title>
<g id="a_node4"><a xlink:href="group__uhd__group.xhtml#ga39a6506d44760a518b49d004574bc9c9" target="_top" xlink:title="USBH_HAL_PipeOutReady">
<polygon fill="white" stroke="black" points="197,-15.7068 197,-34.7068 338,-34.7068 338,-15.7068 197,-15.7068"/>
<text text-anchor="middle" x="267.5" y="-22.7068" font-family="Helvetica,sans-Serif" font-size="10.00">USBH_HAL_PipeOutReady</text>
</a>
</g>
</g>
<!-- Node2066&#45;&gt;Node2070 -->
<g id="edge4" class="edge"><title>Node2066&#45;&gt;Node2070</title>
<path fill="none" stroke="midnightblue" d="M171.163,-34.9982C179.823,-34.1088 188.516,-33.216 196.938,-32.351"/>
<polygon fill="midnightblue" stroke="midnightblue" points="170.62,-31.5354 161.03,-36.0388 171.336,-38.4988 170.62,-31.5354"/>
</g>
<!-- Node2071 -->
<g id="node5" class="node"><title>Node2071</title>
<g id="a_node5"><a xlink:href="group__uhd__group.xhtml#gaa29c0122543b5f5faf600eee68474615" target="_top" xlink:title="USBH_HAL_PipeInterrupt">
<polygon fill="white" stroke="red" points="381,-5.70679 381,-24.7068 518,-24.7068 518,-5.70679 381,-5.70679"/>
<text text-anchor="middle" x="449.5" y="-12.7068" font-family="Helvetica,sans-Serif" font-size="10.00">USBH_HAL_PipeInterrupt</text>
</a>
</g>
</g>
<!-- Node2066&#45;&gt;Node2071 -->
<g id="edge6" class="edge"><title>Node2066&#45;&gt;Node2071</title>
<path fill="none" stroke="midnightblue" d="M113.058,-30.7988C135.9,-21.8485 167.768,-10.892 197,-6.20679 258.691,3.68082 329.936,-0.28613 380.813,-5.7147"/>
<polygon fill="midnightblue" stroke="midnightblue" points="111.526,-27.6422 103.548,-34.6137 114.132,-34.139 111.526,-27.6422"/>
</g>
<!-- Node2069&#45;&gt;Node2067 -->
<g id="edge3" class="edge"><title>Node2069&#45;&gt;Node2067</title>
<path fill="none" stroke="midnightblue" d="M345.596,-67.0616C354.964,-67.53 364.522,-68.0079 373.854,-68.4745"/>
<polygon fill="midnightblue" stroke="midnightblue" points="345.688,-63.5619 335.525,-66.5581 345.338,-70.5532 345.688,-63.5619"/>
</g>
<!-- Node2070&#45;&gt;Node2071 -->
<g id="edge5" class="edge"><title>Node2070&#45;&gt;Node2071</title>
<path fill="none" stroke="midnightblue" d="M348.402,-20.7678C359.239,-20.1657 370.275,-19.5526 380.868,-18.9641"/>
<polygon fill="midnightblue" stroke="midnightblue" points="347.883,-17.2911 338.093,-21.3405 348.271,-24.2803 347.883,-17.2911"/>
</g>
</g>
</svg>
