<?xml version="1.0" encoding="UTF-8" standalone="no"?>
<!DOCTYPE svg PUBLIC "-//W3C//DTD SVG 1.1//EN"
 "http://www.w3.org/Graphics/SVG/1.1/DTD/svg11.dtd">
<!-- Generated by graphviz version 2.38.0 (20140413.2041)
 -->
<!-- Title: USBHS_EnableSOF Pages: 1 -->
<svg width="266pt" height="66pt"
 viewBox="0.00 0.00 266.00 66.00" xmlns="http://www.w3.org/2000/svg" xmlns:xlink="http://www.w3.org/1999/xlink">
<g id="graph0" class="graph" transform="scale(1 1) rotate(0) translate(4 62)">
<title>USBHS_EnableSOF</title>
<polygon fill="white" stroke="none" points="-4,4 -4,-62 262,-62 262,4 -4,4"/>
<!-- Node1025 -->
<g id="node1" class="node"><title>Node1025</title>
<polygon fill="#bfbfbf" stroke="black" points="0,-19.5 0,-38.5 109,-38.5 109,-19.5 0,-19.5"/>
<text text-anchor="middle" x="54.5" y="-26.5" font-family="Helvetica,sans-Serif" font-size="10.00">USBHS_EnableSOF</text>
</g>
<!-- Node1026 -->
<g id="node2" class="node"><title>Node1026</title>
<g id="a_node2"><a xlink:href="group__uhd__group.xhtml#gafcd12a00544aac7645deb694ec611e7a" target="_top" xlink:title="USBD (UDP) interrupt handler Manages device resume, suspend, end of bus reset. ">
<polygon fill="white" stroke="black" points="154,-38.5 154,-57.5 249,-57.5 249,-38.5 154,-38.5"/>
<text text-anchor="middle" x="201.5" y="-45.5" font-family="Helvetica,sans-Serif" font-size="10.00">USBHS_Handler</text>
</a>
</g>
</g>
<!-- Node1025&#45;&gt;Node1026 -->
<g id="edge1" class="edge"><title>Node1025&#45;&gt;Node1026</title>
<path fill="none" stroke="midnightblue" d="M119.201,-37.347C130.842,-38.8724 142.79,-40.4381 153.821,-41.8835"/>
<polygon fill="midnightblue" stroke="midnightblue" points="119.451,-33.8499 109.081,-36.0209 118.541,-40.7906 119.451,-33.8499"/>
</g>
<!-- Node1027 -->
<g id="node3" class="node"><title>Node1027</title>
<g id="a_node3"><a xlink:href="group__uhd__group.xhtml#gac9fdf87a0d813bf3717f1440e60c41d8" target="_top" xlink:title="Enables the IDLE state on the USB line. ">
<polygon fill="white" stroke="red" points="145,-0.5 145,-19.5 258,-19.5 258,-0.5 145,-0.5"/>
<text text-anchor="middle" x="201.5" y="-7.5" font-family="Helvetica,sans-Serif" font-size="10.00">USBH_HAL_Resume</text>
</a>
</g>
</g>
<!-- Node1025&#45;&gt;Node1027 -->
<g id="edge2" class="edge"><title>Node1025&#45;&gt;Node1027</title>
<path fill="none" stroke="midnightblue" d="M119.019,-20.6769C127.576,-19.5556 136.302,-18.4121 144.711,-17.3102"/>
<polygon fill="midnightblue" stroke="midnightblue" points="118.541,-17.2094 109.081,-21.9791 119.451,-24.1501 118.541,-17.2094"/>
</g>
</g>
</svg>
