<?xml version="1.0" encoding="UTF-8" standalone="no"?>
<!DOCTYPE svg PUBLIC "-//W3C//DTD SVG 1.1//EN"
 "http://www.w3.org/Graphics/SVG/1.1/DTD/svg11.dtd">
<!-- Generated by graphviz version 2.38.0 (20140413.2041)
 -->
<!-- Title: push_clock Pages: 1 -->
<svg width="197pt" height="66pt"
 viewBox="0.00 0.00 197.00 66.00" xmlns="http://www.w3.org/2000/svg" xmlns:xlink="http://www.w3.org/1999/xlink">
<g id="graph0" class="graph" transform="scale(1 1) rotate(0) translate(4 62)">
<title>push_clock</title>
<polygon fill="white" stroke="none" points="-4,4 -4,-62 193,-62 193,4 -4,4"/>
<!-- Node19 -->
<g id="node1" class="node"><title>Node19</title>
<polygon fill="#bfbfbf" stroke="black" points="0,-19.5 0,-38.5 69,-38.5 69,-19.5 0,-19.5"/>
<text text-anchor="middle" x="34.5" y="-26.5" font-family="Helvetica,sans-Serif" font-size="10.00">push_clock</text>
</g>
<!-- Node20 -->
<g id="node2" class="node"><title>Node20</title>
<g id="a_node2"><a xlink:href="x4driver__unittest_8cpp.xhtml#a1bc050f646470f9b1119b4fa564ec224" target="_top" xlink:title="push_pif_read">
<polygon fill="white" stroke="black" points="105.5,-38.5 105.5,-57.5 188.5,-57.5 188.5,-38.5 105.5,-38.5"/>
<text text-anchor="middle" x="147" y="-45.5" font-family="Helvetica,sans-Serif" font-size="10.00">push_pif_read</text>
</a>
</g>
</g>
<!-- Node19&#45;&gt;Node20 -->
<g id="edge1" class="edge"><title>Node19&#45;&gt;Node20</title>
<path fill="none" stroke="midnightblue" d="M69.2541,-34.8039C77.5546,-36.2311 86.622,-37.7902 95.523,-39.3207"/>
<polygon fill="midnightblue" stroke="midnightblue" points="95.0034,-42.7826 105.452,-41.0279 96.1897,-35.8839 95.0034,-42.7826"/>
</g>
<!-- Node21 -->
<g id="node3" class="node"><title>Node21</title>
<g id="a_node3"><a xlink:href="x4driver__unittest_8cpp.xhtml#a170b8cd8b79babc9e97102e007844290" target="_top" xlink:title="push_pif_write">
<polygon fill="white" stroke="black" points="105,-0.5 105,-19.5 189,-19.5 189,-0.5 105,-0.5"/>
<text text-anchor="middle" x="147" y="-7.5" font-family="Helvetica,sans-Serif" font-size="10.00">push_pif_write</text>
</a>
</g>
</g>
<!-- Node19&#45;&gt;Node21 -->
<g id="edge2" class="edge"><title>Node19&#45;&gt;Node21</title>
<path fill="none" stroke="midnightblue" d="M69.2541,-23.1961C77.2829,-21.8156 86.0292,-20.3117 94.6483,-18.8297"/>
<polygon fill="midnightblue" stroke="midnightblue" points="95.3952,-22.2527 104.657,-17.1087 94.2089,-15.354 95.3952,-22.2527"/>
</g>
</g>
</svg>
