<?xml version="1.0" encoding="UTF-8" standalone="no"?>
<!DOCTYPE svg PUBLIC "-//W3C//DTD SVG 1.1//EN"
 "http://www.w3.org/Graphics/SVG/1.1/DTD/svg11.dtd">
<!-- Generated by graphviz version 2.38.0 (20140413.2041)
 -->
<!-- Title: _update_normalization_constants Pages: 1 -->
<svg width="306pt" height="291pt"
 viewBox="0.00 0.00 306.00 290.50" xmlns="http://www.w3.org/2000/svg" xmlns:xlink="http://www.w3.org/1999/xlink">
<g id="graph0" class="graph" transform="scale(1 1) rotate(0) translate(4 286.5)">
<title>_update_normalization_constants</title>
<polygon fill="white" stroke="none" points="-4,4 -4,-286.5 302,-286.5 302,4 -4,4"/>
<!-- Node40 -->
<g id="node1" class="node"><title>Node40</title>
<polygon fill="#bfbfbf" stroke="black" points="0,-115 0,-145 126,-145 126,-115 0,-115"/>
<text text-anchor="start" x="8" y="-133" font-family="Helvetica,sans-Serif" font-size="10.00">_update_normalization</text>
<text text-anchor="middle" x="63" y="-122" font-family="Helvetica,sans-Serif" font-size="10.00">_constants</text>
</g>
<!-- Node41 -->
<g id="node2" class="node"><title>Node41</title>
<g id="a_node2"><a xlink:href="x4driver_8c.xhtml#a85fef427a42cff60e7bf267da9fd4766" target="_top" xlink:title="_upload_downconversion\l_coeffs">
<polygon fill="white" stroke="red" points="162,-252 162,-282 298,-282 298,-252 162,-252"/>
<text text-anchor="start" x="170" y="-270" font-family="Helvetica,sans-Serif" font-size="10.00">_upload_downconversion</text>
<text text-anchor="middle" x="230" y="-259" font-family="Helvetica,sans-Serif" font-size="10.00">_coeffs</text>
</a>
</g>
</g>
<!-- Node40&#45;&gt;Node41 -->
<g id="edge1" class="edge"><title>Node40&#45;&gt;Node41</title>
<path fill="none" stroke="midnightblue" d="M79.2957,-154.031C96.5665,-179.397 126.882,-218.966 162,-243 166.894,-246.35 172.309,-249.287 177.876,-251.849"/>
<polygon fill="midnightblue" stroke="midnightblue" points="81.9935,-151.768 73.5382,-145.384 76.1668,-155.647 81.9935,-151.768"/>
</g>
<!-- Node44 -->
<g id="node3" class="node"><title>Node44</title>
<g id="a_node3"><a xlink:href="x4driver_8c.xhtml#a3493035f2d30f78e30586a7a4eccb481" target="_top" xlink:title="Updates normalization variables and calculates new constants. ">
<polygon fill="white" stroke="red" points="167,-203 167,-233 293,-233 293,-203 167,-203"/>
<text text-anchor="start" x="175" y="-221" font-family="Helvetica,sans-Serif" font-size="10.00">_update_normalization</text>
<text text-anchor="middle" x="230" y="-210" font-family="Helvetica,sans-Serif" font-size="10.00">_variables</text>
</a>
</g>
</g>
<!-- Node40&#45;&gt;Node44 -->
<g id="edge2" class="edge"><title>Node40&#45;&gt;Node44</title>
<path fill="none" stroke="midnightblue" d="M92.8693,-150.897C111.892,-164.069 137.69,-180.827 162,-193 169.105,-196.558 176.845,-199.899 184.458,-202.91"/>
<polygon fill="midnightblue" stroke="midnightblue" points="94.8336,-148 84.6358,-145.126 90.816,-153.732 94.8336,-148"/>
</g>
<!-- Node57 -->
<g id="node4" class="node"><title>Node57</title>
<g id="a_node4"><a xlink:href="x4driver_8c.xhtml#a62754f21c23479836bc83d5e96514602" target="_top" xlink:title="Sets Iterations. ">
<polygon fill="white" stroke="red" points="167.5,-164.5 167.5,-183.5 292.5,-183.5 292.5,-164.5 167.5,-164.5"/>
<text text-anchor="middle" x="230" y="-171.5" font-family="Helvetica,sans-Serif" font-size="10.00">x4driver_set_iterations</text>
</a>
</g>
</g>
<!-- Node40&#45;&gt;Node57 -->
<g id="edge3" class="edge"><title>Node40&#45;&gt;Node57</title>
<path fill="none" stroke="midnightblue" d="M130.073,-147.619C151.58,-153.355 174.64,-159.504 193.081,-164.422"/>
<polygon fill="midnightblue" stroke="midnightblue" points="130.886,-144.214 120.322,-145.019 129.083,-150.978 130.886,-144.214"/>
</g>
<!-- Node59 -->
<g id="node5" class="node"><title>Node59</title>
<g id="a_node5"><a xlink:href="x4driver_8c.xhtml#a7ac1a5f45b02284571e297c672ca61de" target="_top" xlink:title="Sets pulses per step. ">
<polygon fill="white" stroke="red" points="174.5,-115 174.5,-145 285.5,-145 285.5,-115 174.5,-115"/>
<text text-anchor="start" x="182.5" y="-133" font-family="Helvetica,sans-Serif" font-size="10.00">x4driver_set_pulses</text>
<text text-anchor="middle" x="230" y="-122" font-family="Helvetica,sans-Serif" font-size="10.00">_per_step</text>
</a>
</g>
</g>
<!-- Node40&#45;&gt;Node59 -->
<g id="edge4" class="edge"><title>Node40&#45;&gt;Node59</title>
<path fill="none" stroke="midnightblue" d="M136.486,-130C149.205,-130 162.245,-130 174.374,-130"/>
<polygon fill="midnightblue" stroke="midnightblue" points="136.379,-126.5 126.379,-130 136.379,-133.5 136.379,-126.5"/>
</g>
<!-- Node61 -->
<g id="node6" class="node"><title>Node61</title>
<g id="a_node6"><a xlink:href="x4driver_8c.xhtml#a636ce8e277a30e9a8d24a5f05a034782" target="_top" xlink:title="x4driver_set_dac_step">
<polygon fill="white" stroke="red" points="168,-76.5 168,-95.5 292,-95.5 292,-76.5 168,-76.5"/>
<text text-anchor="middle" x="230" y="-83.5" font-family="Helvetica,sans-Serif" font-size="10.00">x4driver_set_dac_step</text>
</a>
</g>
</g>
<!-- Node40&#45;&gt;Node61 -->
<g id="edge5" class="edge"><title>Node40&#45;&gt;Node61</title>
<path fill="none" stroke="midnightblue" d="M130.073,-112.381C151.58,-106.645 174.64,-100.496 193.081,-95.5783"/>
<polygon fill="midnightblue" stroke="midnightblue" points="129.083,-109.022 120.322,-114.981 130.886,-115.786 129.083,-109.022"/>
</g>
<!-- Node63 -->
<g id="node7" class="node"><title>Node63</title>
<g id="a_node7"><a xlink:href="x4driver_8c.xhtml#a5b607d8c62783dfffb46c688ec90781e" target="_top" xlink:title="x4driver_set_dac_min">
<polygon fill="white" stroke="red" points="169.5,-38.5 169.5,-57.5 290.5,-57.5 290.5,-38.5 169.5,-38.5"/>
<text text-anchor="middle" x="230" y="-45.5" font-family="Helvetica,sans-Serif" font-size="10.00">x4driver_set_dac_min</text>
</a>
</g>
</g>
<!-- Node40&#45;&gt;Node63 -->
<g id="edge6" class="edge"><title>Node40&#45;&gt;Node63</title>
<path fill="none" stroke="midnightblue" d="M91.8221,-108.951C110.778,-95.4232 136.899,-78.3251 162,-67 170.155,-63.3205 179.194,-60.1806 187.924,-57.5758"/>
<polygon fill="midnightblue" stroke="midnightblue" points="89.6858,-106.176 83.6461,-114.881 93.7959,-111.843 89.6858,-106.176"/>
</g>
<!-- Node66 -->
<g id="node8" class="node"><title>Node66</title>
<g id="a_node8"><a xlink:href="x4driver_8c.xhtml#aef1600f41584063c096ca246aafdee40" target="_top" xlink:title="x4driver_set_dac_max">
<polygon fill="white" stroke="red" points="168,-0.5 168,-19.5 292,-19.5 292,-0.5 168,-0.5"/>
<text text-anchor="middle" x="230" y="-7.5" font-family="Helvetica,sans-Serif" font-size="10.00">x4driver_set_dac_max</text>
</a>
</g>
</g>
<!-- Node40&#45;&gt;Node66 -->
<g id="edge7" class="edge"><title>Node40&#45;&gt;Node66</title>
<path fill="none" stroke="midnightblue" d="M80.6848,-106.713C98.3623,-83.7004 128.335,-49.1069 162,-29 168.436,-25.1562 175.684,-22.0599 182.974,-19.5743"/>
<polygon fill="midnightblue" stroke="midnightblue" points="77.7347,-104.813 74.5296,-114.912 83.3326,-109.016 77.7347,-104.813"/>
</g>
</g>
</svg>
