<?xml version="1.0" encoding="UTF-8" standalone="no"?>
<!DOCTYPE svg PUBLIC "-//W3C//DTD SVG 1.1//EN"
 "http://www.w3.org/Graphics/SVG/1.1/DTD/svg11.dtd">
<!-- Generated by graphviz version 2.38.0 (20140413.2041)
 -->
<!-- Title: _update_downconversion_coeffs Pages: 1 -->
<svg width="338pt" height="127pt"
 viewBox="0.00 0.00 338.00 127.00" xmlns="http://www.w3.org/2000/svg" xmlns:xlink="http://www.w3.org/1999/xlink">
<g id="graph0" class="graph" transform="scale(1 1) rotate(0) translate(4 123)">
<title>_update_downconversion_coeffs</title>
<polygon fill="white" stroke="none" points="-4,4 -4,-123 334,-123 334,4 -4,4"/>
<!-- Node25 -->
<g id="node1" class="node"><title>Node25</title>
<polygon fill="#bfbfbf" stroke="black" points="0,-44.5 0,-74.5 137,-74.5 137,-44.5 0,-44.5"/>
<text text-anchor="start" x="8" y="-62.5" font-family="Helvetica,sans-Serif" font-size="10.00">_update_downconversion</text>
<text text-anchor="middle" x="68.5" y="-51.5" font-family="Helvetica,sans-Serif" font-size="10.00">_coeffs</text>
</g>
<!-- Node26 -->
<g id="node2" class="node"><title>Node26</title>
<g id="a_node2"><a xlink:href="x4driver_8c.xhtml#a3493035f2d30f78e30586a7a4eccb481" target="_top" xlink:title="Updates normalization variables and calculates new constants. ">
<polygon fill="white" stroke="red" points="188.5,-88.5 188.5,-118.5 314.5,-118.5 314.5,-88.5 188.5,-88.5"/>
<text text-anchor="start" x="196.5" y="-106.5" font-family="Helvetica,sans-Serif" font-size="10.00">_update_normalization</text>
<text text-anchor="middle" x="251.5" y="-95.5" font-family="Helvetica,sans-Serif" font-size="10.00">_variables</text>
</a>
</g>
</g>
<!-- Node25&#45;&gt;Node26 -->
<g id="edge1" class="edge"><title>Node25&#45;&gt;Node26</title>
<path fill="none" stroke="midnightblue" d="M141.429,-76.9855C157.068,-80.7873 173.481,-84.777 188.688,-88.4738"/>
<polygon fill="midnightblue" stroke="midnightblue" points="141.827,-73.4805 131.284,-74.5192 140.174,-80.2824 141.827,-73.4805"/>
</g>
<!-- Node35 -->
<g id="node3" class="node"><title>Node35</title>
<g id="a_node3"><a xlink:href="x4driver_8c.xhtml#aca2f2487a46b5debe6656dd21a816e97" target="_top" xlink:title="x4driver_set_downconversion">
<polygon fill="white" stroke="red" points="173,-50 173,-69 330,-69 330,-50 173,-50"/>
<text text-anchor="middle" x="251.5" y="-57" font-family="Helvetica,sans-Serif" font-size="10.00">x4driver_set_downconversion</text>
</a>
</g>
</g>
<!-- Node25&#45;&gt;Node35 -->
<g id="edge2" class="edge"><title>Node25&#45;&gt;Node35</title>
<path fill="none" stroke="midnightblue" d="M147.371,-59.5C155.824,-59.5 164.426,-59.5 172.876,-59.5"/>
<polygon fill="midnightblue" stroke="midnightblue" points="147.155,-56.0001 137.155,-59.5 147.155,-63.0001 147.155,-56.0001"/>
</g>
<!-- Node37 -->
<g id="node4" class="node"><title>Node37</title>
<g id="a_node4"><a xlink:href="x4driver_8c.xhtml#a3bd645021a42b838c9e3b3ff2f021d50" target="_top" xlink:title="x4driver_set_tx_center\l_frequency">
<polygon fill="white" stroke="red" points="189,-0.5 189,-30.5 314,-30.5 314,-0.5 189,-0.5"/>
<text text-anchor="start" x="197" y="-18.5" font-family="Helvetica,sans-Serif" font-size="10.00">x4driver_set_tx_center</text>
<text text-anchor="middle" x="251.5" y="-7.5" font-family="Helvetica,sans-Serif" font-size="10.00">_frequency</text>
</a>
</g>
</g>
<!-- Node25&#45;&gt;Node37 -->
<g id="edge3" class="edge"><title>Node25&#45;&gt;Node37</title>
<path fill="none" stroke="midnightblue" d="M141.036,-42.1099C156.899,-38.2539 173.575,-34.2001 188.995,-30.4516"/>
<polygon fill="midnightblue" stroke="midnightblue" points="140.174,-38.7176 131.284,-44.4808 141.827,-45.5195 140.174,-38.7176"/>
</g>
</g>
</svg>
