<?xml version="1.0" encoding="UTF-8" standalone="no"?>
<!DOCTYPE svg PUBLIC "-//W3C//DTD SVG 1.1//EN"
 "http://www.w3.org/Graphics/SVG/1.1/DTD/svg11.dtd">
<!-- Generated by graphviz version 2.38.0 (20140413.2041)
 -->
<!-- Title: x4driver_read_frame_bytes Pages: 1 -->
<svg width="462pt" height="176pt"
 viewBox="0.00 0.00 462.00 176.00" xmlns="http://www.w3.org/2000/svg" xmlns:xlink="http://www.w3.org/1999/xlink">
<g id="graph0" class="graph" transform="scale(1 1) rotate(0) translate(4 172)">
<title>x4driver_read_frame_bytes</title>
<polygon fill="white" stroke="none" points="-4,4 -4,-172 458,-172 458,4 -4,4"/>
<!-- Node629 -->
<g id="node1" class="node"><title>Node629</title>
<polygon fill="#bfbfbf" stroke="black" points="0,-71 0,-101 116,-101 116,-71 0,-71"/>
<text text-anchor="start" x="8" y="-89" font-family="Helvetica,sans-Serif" font-size="10.00">x4driver_read_frame</text>
<text text-anchor="middle" x="58" y="-78" font-family="Helvetica,sans-Serif" font-size="10.00">_bytes</text>
</g>
<!-- Node630 -->
<g id="node2" class="node"><title>Node630</title>
<g id="a_node2"><a xlink:href="x4driver_8c.xhtml#a33cc21cd8eeda4680c7ee2c47cf6e09b" target="_top" xlink:title="Gets reads frame counter from 8051 mailbox requires enable to be set and 8051 SRAM to be program...">
<polygon fill="white" stroke="red" points="152,-76.5 152,-95.5 304,-95.5 304,-76.5 152,-76.5"/>
<text text-anchor="middle" x="228" y="-83.5" font-family="Helvetica,sans-Serif" font-size="10.00">_x4driver_get_framecounter</text>
</a>
</g>
</g>
<!-- Node629&#45;&gt;Node630 -->
<g id="edge1" class="edge"><title>Node629&#45;&gt;Node630</title>
<path fill="none" stroke="midnightblue" d="M116.346,-86C124.545,-86 133.121,-86 141.716,-86"/>
<polygon fill="midnightblue" stroke="midnightblue" points="141.791,-89.5001 151.791,-86 141.791,-82.5001 141.791,-89.5001"/>
</g>
<!-- Node631 -->
<g id="node3" class="node"><title>Node631</title>
<g id="a_node3"><a xlink:href="x4driver_8c.xhtml#acee55fcb62077a150f421c3bbf2c2947" target="_top" xlink:title="Utility function to take mutex. ">
<polygon fill="white" stroke="black" points="360,-148.5 360,-167.5 434,-167.5 434,-148.5 360,-148.5"/>
<text text-anchor="middle" x="397" y="-155.5" font-family="Helvetica,sans-Serif" font-size="10.00">mutex_take</text>
</a>
</g>
</g>
<!-- Node629&#45;&gt;Node631 -->
<g id="edge5" class="edge"><title>Node629&#45;&gt;Node631</title>
<path fill="none" stroke="midnightblue" d="M89.2823,-101.086C107.126,-109.364 130.376,-119.114 152,-125 219.387,-143.342 300.142,-151.713 349.756,-155.37"/>
<polygon fill="midnightblue" stroke="midnightblue" points="349.633,-158.87 359.854,-156.08 350.124,-151.887 349.633,-158.87"/>
</g>
<!-- Node632 -->
<g id="node4" class="node"><title>Node632</title>
<g id="a_node4"><a xlink:href="x4driver_8c.xhtml#afb50fddff34b3e2ea353077619cb139e" target="_top" xlink:title="Utility function to give mutex. ">
<polygon fill="white" stroke="black" points="361,-106.5 361,-125.5 433,-125.5 433,-106.5 361,-106.5"/>
<text text-anchor="middle" x="397" y="-113.5" font-family="Helvetica,sans-Serif" font-size="10.00">mutex_give</text>
</a>
</g>
</g>
<!-- Node629&#45;&gt;Node632 -->
<g id="edge7" class="edge"><title>Node629&#45;&gt;Node632</title>
<path fill="none" stroke="midnightblue" d="M116.316,-99.172C128.064,-101.459 140.388,-103.561 152,-105 220.806,-113.526 301.253,-115.648 350.404,-116.069"/>
<polygon fill="midnightblue" stroke="midnightblue" points="350.679,-119.571 360.701,-116.136 350.724,-112.571 350.679,-119.571"/>
</g>
<!-- Node635 -->
<g id="node5" class="node"><title>Node635</title>
<g id="a_node5"><a xlink:href="x4driver_8c.xhtml#a290bcd409abdffc4999d632d9571e570" target="_top" xlink:title="Sets x4 software action. ">
<polygon fill="white" stroke="red" points="340,-49 340,-79 454,-79 454,-49 340,-49"/>
<text text-anchor="start" x="348" y="-67" font-family="Helvetica,sans-Serif" font-size="10.00">_x4driver_set_x4_sw</text>
<text text-anchor="middle" x="397" y="-56" font-family="Helvetica,sans-Serif" font-size="10.00">_action</text>
</a>
</g>
</g>
<!-- Node629&#45;&gt;Node635 -->
<g id="edge8" class="edge"><title>Node629&#45;&gt;Node635</title>
<path fill="none" stroke="midnightblue" d="M116.281,-72.5298C128.032,-70.266 140.366,-68.2485 152,-67 211.774,-60.585 280.255,-60.3601 329.422,-61.4339"/>
<polygon fill="midnightblue" stroke="midnightblue" points="329.529,-64.9374 339.611,-61.681 329.699,-57.9395 329.529,-64.9374"/>
</g>
<!-- Node638 -->
<g id="node6" class="node"><title>Node638</title>
<g id="a_node6"><a xlink:href="x4driver_8c.xhtml#a382b6e4ffa3658d409dfe855707dc16d" target="_top" xlink:title="Sets PIF register value. ">
<polygon fill="white" stroke="red" points="161,-0.5 161,-19.5 295,-19.5 295,-0.5 161,-0.5"/>
<text text-anchor="middle" x="228" y="-7.5" font-family="Helvetica,sans-Serif" font-size="10.00">x4driver_set_pif_register</text>
</a>
</g>
</g>
<!-- Node629&#45;&gt;Node638 -->
<g id="edge6" class="edge"><title>Node629&#45;&gt;Node638</title>
<path fill="none" stroke="midnightblue" d="M82.7971,-70.9434C101.196,-59.7389 127.568,-44.6123 152,-34 161.693,-29.79 172.37,-25.9343 182.553,-22.6027"/>
<polygon fill="midnightblue" stroke="midnightblue" points="183.64,-25.9299 192.117,-19.5747 181.527,-19.2564 183.64,-25.9299"/>
</g>
<!-- Node630&#45;&gt;Node631 -->
<g id="edge2" class="edge"><title>Node630&#45;&gt;Node631</title>
<path fill="none" stroke="midnightblue" d="M250.208,-95.5583C272.494,-105.556 308.605,-121.626 340,-135 347.411,-138.157 355.403,-141.485 362.965,-144.599"/>
<polygon fill="midnightblue" stroke="midnightblue" points="361.657,-147.845 372.237,-148.4 364.312,-141.368 361.657,-147.845"/>
</g>
<!-- Node630&#45;&gt;Node632 -->
<g id="edge3" class="edge"><title>Node630&#45;&gt;Node632</title>
<path fill="none" stroke="midnightblue" d="M282.299,-95.5747C304.366,-99.5388 329.685,-104.087 350.821,-107.884"/>
<polygon fill="midnightblue" stroke="midnightblue" points="350.367,-111.358 360.828,-109.682 351.605,-104.469 350.367,-111.358"/>
</g>
<!-- Node630&#45;&gt;Node635 -->
<g id="edge4" class="edge"><title>Node630&#45;&gt;Node635</title>
<path fill="none" stroke="midnightblue" d="M301.277,-76.4784C310.794,-75.2248 320.508,-73.9451 329.914,-72.706"/>
<polygon fill="midnightblue" stroke="midnightblue" points="330.518,-76.1567 339.975,-71.3805 329.603,-69.2167 330.518,-76.1567"/>
</g>
</g>
</svg>
