<?xml version="1.0" encoding="UTF-8" standalone="no"?>
<!DOCTYPE svg PUBLIC "-//W3C//DTD SVG 1.1//EN"
 "http://www.w3.org/Graphics/SVG/1.1/DTD/svg11.dtd">
<!-- Generated by graphviz version 2.38.0 (20140413.2041)
 -->
<!-- Title: x4driver_setup_default Pages: 1 -->
<svg width="426pt" height="166pt"
 viewBox="0.00 0.00 426.00 165.50" xmlns="http://www.w3.org/2000/svg" xmlns:xlink="http://www.w3.org/1999/xlink">
<g id="graph0" class="graph" transform="scale(1 1) rotate(0) translate(4 161.5)">
<title>x4driver_setup_default</title>
<polygon fill="white" stroke="none" points="-4,4 -4,-161.5 422,-161.5 422,4 -4,4"/>
<!-- Node1291 -->
<g id="node1" class="node"><title>Node1291</title>
<polygon fill="#bfbfbf" stroke="black" points="0,-66.5 0,-85.5 125,-85.5 125,-66.5 0,-66.5"/>
<text text-anchor="middle" x="62.5" y="-73.5" font-family="Helvetica,sans-Serif" font-size="10.00">x4driver_setup_default</text>
</g>
<!-- Node1292 -->
<g id="node2" class="node"><title>Node1292</title>
<g id="a_node2"><a xlink:href="task__radar_8h.xhtml#a8f5a25ff5bf1da89fd00ffdc10c73151" target="_top" xlink:title="Enter TX only mode. ">
<polygon fill="white" stroke="red" points="168.5,-127 168.5,-157 271.5,-157 271.5,-127 168.5,-127"/>
<text text-anchor="start" x="176.5" y="-145" font-family="Helvetica,sans-Serif" font-size="10.00">radar_certification</text>
<text text-anchor="middle" x="220" y="-134" font-family="Helvetica,sans-Serif" font-size="10.00">_enter_tx_only</text>
</a>
</g>
</g>
<!-- Node1291&#45;&gt;Node1292 -->
<g id="edge1" class="edge"><title>Node1291&#45;&gt;Node1292</title>
<path fill="none" stroke="midnightblue" d="M95.3724,-89.5279C120.963,-100.39 156.878,-115.633 183.407,-126.893"/>
<polygon fill="midnightblue" stroke="midnightblue" points="96.6837,-86.2822 86.111,-85.597 93.9487,-92.7259 96.6837,-86.2822"/>
</g>
<!-- Node1293 -->
<g id="node3" class="node"><title>Node1293</title>
<g id="a_node3"><a xlink:href="task__radar_8c.xhtml#a777b1becbbecb18522cf2c6dc047532b" target="_top" xlink:title="radar_certification\l_handler">
<polygon fill="white" stroke="red" points="315,-83 315,-113 418,-113 418,-83 315,-83"/>
<text text-anchor="start" x="323" y="-101" font-family="Helvetica,sans-Serif" font-size="10.00">radar_certification</text>
<text text-anchor="middle" x="366.5" y="-90" font-family="Helvetica,sans-Serif" font-size="10.00">_handler</text>
</a>
</g>
</g>
<!-- Node1291&#45;&gt;Node1293 -->
<g id="edge5" class="edge"><title>Node1291&#45;&gt;Node1293</title>
<path fill="none" stroke="midnightblue" d="M135.422,-81.2393C190.684,-85.2651 265.632,-90.7248 314.755,-94.3034"/>
<polygon fill="midnightblue" stroke="midnightblue" points="135.571,-77.741 125.343,-80.5051 135.062,-84.7225 135.571,-77.741"/>
</g>
<!-- Node1300 -->
<g id="node4" class="node"><title>Node1300</title>
<g id="a_node4"><a xlink:href="task__radar_8h.xhtml#a43f10133b8707768c4b3a4c15526093a" target="_top" xlink:title="Enter TX only mode, with TX off. ">
<polygon fill="white" stroke="red" points="161,-39 161,-69 279,-69 279,-39 161,-39"/>
<text text-anchor="start" x="169" y="-57" font-family="Helvetica,sans-Serif" font-size="10.00">radar_certification</text>
<text text-anchor="middle" x="220" y="-46" font-family="Helvetica,sans-Serif" font-size="10.00">_enter_tx_only_tx_off</text>
</a>
</g>
</g>
<!-- Node1291&#45;&gt;Node1300 -->
<g id="edge3" class="edge"><title>Node1291&#45;&gt;Node1300</title>
<path fill="none" stroke="midnightblue" d="M135.36,-65.8333C143.899,-64.6253 152.533,-63.4037 160.847,-62.2274"/>
<polygon fill="midnightblue" stroke="midnightblue" points="134.816,-62.3754 125.405,-67.2418 135.796,-69.3064 134.816,-62.3754"/>
</g>
<!-- Node1301 -->
<g id="node5" class="node"><title>Node1301</title>
<g id="a_node5"><a xlink:href="x4driver_8c.xhtml#a86dbadcb2e415d23600ef1bb31c9dbde" target="_top" xlink:title="Inits x4driver. ">
<polygon fill="white" stroke="red" points="183,-0.5 183,-19.5 257,-19.5 257,-0.5 183,-0.5"/>
<text text-anchor="middle" x="220" y="-7.5" font-family="Helvetica,sans-Serif" font-size="10.00">x4driver_init</text>
</a>
</g>
</g>
<!-- Node1291&#45;&gt;Node1301 -->
<g id="edge6" class="edge"><title>Node1291&#45;&gt;Node1301</title>
<path fill="none" stroke="midnightblue" d="M91.4131,-61.8387C110.716,-52.2921 137.123,-39.7157 161,-30 170.077,-26.3067 180.12,-22.685 189.263,-19.5603"/>
<polygon fill="midnightblue" stroke="midnightblue" points="89.6722,-58.7956 82.2841,-66.3895 92.7953,-65.0604 89.6722,-58.7956"/>
</g>
<!-- Node1292&#45;&gt;Node1293 -->
<g id="edge2" class="edge"><title>Node1292&#45;&gt;Node1293</title>
<path fill="none" stroke="midnightblue" d="M280.156,-123.987C292.032,-120.371 304.396,-116.606 315.907,-113.101"/>
<polygon fill="midnightblue" stroke="midnightblue" points="278.871,-120.72 270.325,-126.981 280.91,-127.416 278.871,-120.72"/>
</g>
<!-- Node1300&#45;&gt;Node1293 -->
<g id="edge4" class="edge"><title>Node1300&#45;&gt;Node1293</title>
<path fill="none" stroke="midnightblue" d="M280.156,-72.0129C292.032,-75.6292 304.396,-79.3941 315.907,-82.8991"/>
<polygon fill="midnightblue" stroke="midnightblue" points="280.91,-68.584 270.325,-69.0192 278.871,-75.2805 280.91,-68.584"/>
</g>
</g>
</svg>
