<?xml version="1.0" encoding="UTF-8" standalone="no"?>
<!DOCTYPE svg PUBLIC "-//W3C//DTD SVG 1.1//EN"
 "http://www.w3.org/Graphics/SVG/1.1/DTD/svg11.dtd">
<!-- Generated by graphviz version 2.38.0 (20140413.2041)
 -->
<!-- Title: x4driver_set_enable Pages: 1 -->
<svg width="231pt" height="66pt"
 viewBox="0.00 0.00 231.00 66.00" xmlns="http://www.w3.org/2000/svg" xmlns:xlink="http://www.w3.org/1999/xlink">
<g id="graph0" class="graph" transform="scale(1 1) rotate(0) translate(4 62)">
<title>x4driver_set_enable</title>
<polygon fill="white" stroke="none" points="-4,4 -4,-62 227,-62 227,4 -4,4"/>
<!-- Node1640 -->
<g id="node1" class="node"><title>Node1640</title>
<polygon fill="#bfbfbf" stroke="black" points="0,-19.5 0,-38.5 113,-38.5 113,-19.5 0,-19.5"/>
<text text-anchor="middle" x="56.5" y="-26.5" font-family="Helvetica,sans-Serif" font-size="10.00">x4driver_set_enable</text>
</g>
<!-- Node1641 -->
<g id="node2" class="node"><title>Node1641</title>
<g id="a_node2"><a xlink:href="x4driver_8c.xhtml#acee55fcb62077a150f421c3bbf2c2947" target="_top" xlink:title="Utility function to take mutex. ">
<polygon fill="white" stroke="black" points="149,-38.5 149,-57.5 223,-57.5 223,-38.5 149,-38.5"/>
<text text-anchor="middle" x="186" y="-45.5" font-family="Helvetica,sans-Serif" font-size="10.00">mutex_take</text>
</a>
</g>
</g>
<!-- Node1640&#45;&gt;Node1641 -->
<g id="edge1" class="edge"><title>Node1640&#45;&gt;Node1641</title>
<path fill="none" stroke="midnightblue" d="M113.052,-37.2784C121.64,-38.5581 130.429,-39.8679 138.783,-41.1128"/>
<polygon fill="midnightblue" stroke="midnightblue" points="138.307,-44.5805 148.714,-42.5927 139.339,-37.6569 138.307,-44.5805"/>
</g>
<!-- Node1642 -->
<g id="node3" class="node"><title>Node1642</title>
<g id="a_node3"><a xlink:href="x4driver_8c.xhtml#afb50fddff34b3e2ea353077619cb139e" target="_top" xlink:title="Utility function to give mutex. ">
<polygon fill="white" stroke="black" points="150,-0.5 150,-19.5 222,-19.5 222,-0.5 150,-0.5"/>
<text text-anchor="middle" x="186" y="-7.5" font-family="Helvetica,sans-Serif" font-size="10.00">mutex_give</text>
</a>
</g>
</g>
<!-- Node1640&#45;&gt;Node1642 -->
<g id="edge2" class="edge"><title>Node1640&#45;&gt;Node1642</title>
<path fill="none" stroke="midnightblue" d="M113.052,-20.7216C122.024,-19.3847 131.215,-18.015 139.9,-16.7207"/>
<polygon fill="midnightblue" stroke="midnightblue" points="140.445,-20.1783 149.82,-15.2425 139.413,-13.2548 140.445,-20.1783"/>
</g>
</g>
</svg>
