<?xml version="1.0" encoding="UTF-8" standalone="no"?>
<!DOCTYPE svg PUBLIC "-//W3C//DTD SVG 1.1//EN"
 "http://www.w3.org/Graphics/SVG/1.1/DTD/svg11.dtd">
<!-- Generated by graphviz version 2.38.0 (20140413.2041)
 -->
<!-- Title: x4driver_set_dac_auto Pages: 1 -->
<svg width="434pt" height="359pt"
 viewBox="0.00 0.00 434.00 358.81" xmlns="http://www.w3.org/2000/svg" xmlns:xlink="http://www.w3.org/1999/xlink">
<g id="graph0" class="graph" transform="scale(1 1) rotate(0) translate(4 354.812)">
<title>x4driver_set_dac_auto</title>
<polygon fill="white" stroke="none" points="-4,4 -4,-354.812 430,-354.812 430,4 -4,4"/>
<!-- Node1537 -->
<g id="node1" class="node"><title>Node1537</title>
<polygon fill="#bfbfbf" stroke="black" points="0,-164.5 0,-183.5 125,-183.5 125,-164.5 0,-164.5"/>
<text text-anchor="middle" x="62.5" y="-171.5" font-family="Helvetica,sans-Serif" font-size="10.00">x4driver_set_dac_auto</text>
</g>
<!-- Node1538 -->
<g id="node2" class="node"><title>Node1538</title>
<g id="a_node2"><a xlink:href="x4driver_8c.xhtml#a3ae283684d1a23d89a56d93971139bb6" target="_top" xlink:title="x4driver_get_fps">
<polygon fill="white" stroke="red" points="331,-316.5 331,-335.5 426,-335.5 426,-316.5 331,-316.5"/>
<text text-anchor="middle" x="378.5" y="-323.5" font-family="Helvetica,sans-Serif" font-size="10.00">x4driver_get_fps</text>
</a>
</g>
</g>
<!-- Node1537&#45;&gt;Node1538 -->
<g id="edge1" class="edge"><title>Node1537&#45;&gt;Node1538</title>
<path fill="none" stroke="midnightblue" d="M65.9943,-183.798C73.9641,-212.776 101.834,-298.096 161,-331 216.291,-361.748 292.437,-349.914 338.132,-338.191"/>
<polygon fill="midnightblue" stroke="midnightblue" points="339.205,-341.527 347.955,-335.552 337.389,-334.767 339.205,-341.527"/>
</g>
<!-- Node1541 -->
<g id="node3" class="node"><title>Node1541</title>
<g id="a_node3"><a xlink:href="x4driver_8c.xhtml#a3d4fbcf15fcf3736ef68613007caca8e" target="_top" xlink:title="x4driver_set_sweep\l_trigger_control">
<polygon fill="white" stroke="red" points="173,-291 173,-321 283,-321 283,-291 173,-291"/>
<text text-anchor="start" x="181" y="-309" font-family="Helvetica,sans-Serif" font-size="10.00">x4driver_set_sweep</text>
<text text-anchor="middle" x="228" y="-298" font-family="Helvetica,sans-Serif" font-size="10.00">_trigger_control</text>
</a>
</g>
</g>
<!-- Node1537&#45;&gt;Node1541 -->
<g id="edge2" class="edge"><title>Node1537&#45;&gt;Node1541</title>
<path fill="none" stroke="midnightblue" d="M70.6047,-183.603C85.4941,-203.182 121.847,-248.208 161,-276 166.254,-279.729 172.045,-283.167 177.949,-286.28"/>
<polygon fill="midnightblue" stroke="midnightblue" points="176.745,-289.589 187.259,-290.9 179.857,-283.319 176.745,-289.589"/>
</g>
<!-- Node1542 -->
<g id="node4" class="node"><title>Node1542</title>
<g id="a_node4"><a xlink:href="x4driver_8c.xhtml#af6c32021e202b0dfe0a8b104ebd7a0b6" target="_top" xlink:title="Sets frame rate for frame streaming. ">
<polygon fill="white" stroke="red" points="331,-275.5 331,-294.5 426,-294.5 426,-275.5 331,-275.5"/>
<text text-anchor="middle" x="378.5" y="-282.5" font-family="Helvetica,sans-Serif" font-size="10.00">x4driver_set_fps</text>
</a>
</g>
</g>
<!-- Node1537&#45;&gt;Node1542 -->
<g id="edge11" class="edge"><title>Node1537&#45;&gt;Node1542</title>
<path fill="none" stroke="midnightblue" d="M73.6981,-183.5C90.5135,-198.606 125.721,-227.928 161,-243 212.447,-264.979 275.697,-275.551 320.515,-280.577"/>
<polygon fill="midnightblue" stroke="midnightblue" points="320.325,-284.076 330.639,-281.653 321.065,-277.115 320.325,-284.076"/>
</g>
<!-- Node1549 -->
<g id="node5" class="node"><title>Node1549</title>
<g id="a_node5"><a xlink:href="x4driver_8c.xhtml#a195e6ef022545ebaba1dbc492cac6244" target="_top" xlink:title="x4driver_get_frame\l_bin_count">
<polygon fill="white" stroke="black" points="173,-203 173,-233 283,-233 283,-203 173,-203"/>
<text text-anchor="start" x="181" y="-221" font-family="Helvetica,sans-Serif" font-size="10.00">x4driver_get_frame</text>
<text text-anchor="middle" x="228" y="-210" font-family="Helvetica,sans-Serif" font-size="10.00">_bin_count</text>
</a>
</g>
</g>
<!-- Node1537&#45;&gt;Node1549 -->
<g id="edge5" class="edge"><title>Node1537&#45;&gt;Node1549</title>
<path fill="none" stroke="midnightblue" d="M98.9771,-183.547C117.71,-188.589 141.275,-194.93 163.066,-200.795"/>
<polygon fill="midnightblue" stroke="midnightblue" points="162.363,-204.23 172.929,-203.449 164.182,-197.47 162.363,-204.23"/>
</g>
<!-- Node1550 -->
<g id="node6" class="node"><title>Node1550</title>
<g id="a_node6"><a xlink:href="x4driver_8c.xhtml#a03652f4897873d46d0534336df7f29fe" target="_top" xlink:title="Will trigger a radar sweep. ">
<polygon fill="white" stroke="red" points="169,-164.5 169,-183.5 287,-183.5 287,-164.5 169,-164.5"/>
<text text-anchor="middle" x="228" y="-171.5" font-family="Helvetica,sans-Serif" font-size="10.00">x4driver_start_sweep</text>
</a>
</g>
</g>
<!-- Node1537&#45;&gt;Node1550 -->
<g id="edge6" class="edge"><title>Node1537&#45;&gt;Node1550</title>
<path fill="none" stroke="midnightblue" d="M125.312,-174C136.252,-174 147.698,-174 158.801,-174"/>
<polygon fill="midnightblue" stroke="midnightblue" points="158.878,-177.5 168.878,-174 158.878,-170.5 158.878,-177.5"/>
</g>
<!-- Node1553 -->
<g id="node7" class="node"><title>Node1553</title>
<g id="a_node7"><a xlink:href="x4driver_8c.xhtml#a983024655a1dcd0ad2aa0ec6cb8eb3cb" target="_top" xlink:title="Gets PIF register value. ">
<polygon fill="white" stroke="red" points="161,-126.5 161,-145.5 295,-145.5 295,-126.5 161,-126.5"/>
<text text-anchor="middle" x="228" y="-133.5" font-family="Helvetica,sans-Serif" font-size="10.00">x4driver_get_pif_register</text>
</a>
</g>
</g>
<!-- Node1537&#45;&gt;Node1553 -->
<g id="edge7" class="edge"><title>Node1537&#45;&gt;Node1553</title>
<path fill="none" stroke="midnightblue" d="M104.758,-164.411C126.431,-159.374 153.183,-153.156 176.13,-147.823"/>
<polygon fill="midnightblue" stroke="midnightblue" points="177.091,-151.193 186.039,-145.52 175.506,-144.375 177.091,-151.193"/>
</g>
<!-- Node1555 -->
<g id="node8" class="node"><title>Node1555</title>
<g id="a_node8"><a xlink:href="x4driver_8c.xhtml#a3d75a7209fa2ea65ab2acc5297751c99" target="_top" xlink:title="Reads frame and normalizes that frame. ">
<polygon fill="white" stroke="red" points="170,-77 170,-107 286,-107 286,-77 170,-77"/>
<text text-anchor="start" x="178" y="-95" font-family="Helvetica,sans-Serif" font-size="10.00">x4driver_read_frame</text>
<text text-anchor="middle" x="228" y="-84" font-family="Helvetica,sans-Serif" font-size="10.00">_normalized</text>
</a>
</g>
</g>
<!-- Node1537&#45;&gt;Node1555 -->
<g id="edge8" class="edge"><title>Node1537&#45;&gt;Node1555</title>
<path fill="none" stroke="midnightblue" d="M78.2738,-164.311C97.0157,-152.269 130.568,-131.534 161,-117 165.333,-114.931 169.886,-112.909 174.49,-110.969"/>
<polygon fill="midnightblue" stroke="midnightblue" points="176.017,-114.126 183.958,-107.112 173.376,-107.644 176.017,-114.126"/>
</g>
<!-- Node1561 -->
<g id="node9" class="node"><title>Node1561</title>
<g id="a_node9"><a xlink:href="x4driver_8c.xhtml#a5b607d8c62783dfffb46c688ec90781e" target="_top" xlink:title="x4driver_set_dac_min">
<polygon fill="white" stroke="red" points="167.5,-38.5 167.5,-57.5 288.5,-57.5 288.5,-38.5 167.5,-38.5"/>
<text text-anchor="middle" x="228" y="-45.5" font-family="Helvetica,sans-Serif" font-size="10.00">x4driver_set_dac_min</text>
</a>
</g>
</g>
<!-- Node1537&#45;&gt;Node1561 -->
<g id="edge9" class="edge"><title>Node1537&#45;&gt;Node1561</title>
<path fill="none" stroke="midnightblue" d="M69.79,-164.196C83.6766,-143.339 119.073,-94.3266 161,-68 165.094,-65.4294 169.538,-63.1722 174.12,-61.1934"/>
<polygon fill="midnightblue" stroke="midnightblue" points="175.585,-64.3798 183.652,-57.5116 173.062,-57.8501 175.585,-64.3798"/>
</g>
<!-- Node1563 -->
<g id="node10" class="node"><title>Node1563</title>
<g id="a_node10"><a xlink:href="x4driver_8c.xhtml#aef1600f41584063c096ca246aafdee40" target="_top" xlink:title="x4driver_set_dac_max">
<polygon fill="white" stroke="red" points="166,-0.5 166,-19.5 290,-19.5 290,-0.5 166,-0.5"/>
<text text-anchor="middle" x="228" y="-7.5" font-family="Helvetica,sans-Serif" font-size="10.00">x4driver_set_dac_max</text>
</a>
</g>
</g>
<!-- Node1537&#45;&gt;Node1563 -->
<g id="edge10" class="edge"><title>Node1537&#45;&gt;Node1563</title>
<path fill="none" stroke="midnightblue" d="M67.2702,-164.16C77.8223,-137.958 110.244,-65.9727 161,-29 163.65,-27.0693 166.493,-25.3342 169.456,-23.7749"/>
<polygon fill="midnightblue" stroke="midnightblue" points="170.977,-26.9281 178.634,-19.6047 168.081,-20.5551 170.977,-26.9281"/>
</g>
<!-- Node1541&#45;&gt;Node1538 -->
<g id="edge3" class="edge"><title>Node1541&#45;&gt;Node1538</title>
<path fill="none" stroke="midnightblue" d="M283.032,-313.277C295.212,-314.917 308.178,-316.664 320.477,-318.32"/>
<polygon fill="midnightblue" stroke="midnightblue" points="320.241,-321.82 330.619,-319.686 321.175,-314.883 320.241,-321.82"/>
</g>
<!-- Node1541&#45;&gt;Node1542 -->
<g id="edge4" class="edge"><title>Node1541&#45;&gt;Node1542</title>
<path fill="none" stroke="midnightblue" d="M283.032,-298.359C295.212,-296.637 308.178,-294.803 320.477,-293.064"/>
<polygon fill="midnightblue" stroke="midnightblue" points="321.207,-296.495 330.619,-291.63 320.227,-289.564 321.207,-296.495"/>
</g>
</g>
</svg>
