<?xml version="1.0" encoding="UTF-8" standalone="no"?>
<!DOCTYPE svg PUBLIC "-//W3C//DTD SVG 1.1//EN"
 "http://www.w3.org/Graphics/SVG/1.1/DTD/svg11.dtd">
<!-- Generated by graphviz version 2.38.0 (20140413.2041)
 -->
<!-- Title: x4driver_set_frame_length Pages: 1 -->
<svg width="287pt" height="142pt"
 viewBox="0.00 0.00 287.00 142.00" xmlns="http://www.w3.org/2000/svg" xmlns:xlink="http://www.w3.org/1999/xlink">
<g id="graph0" class="graph" transform="scale(1 1) rotate(0) translate(4 138)">
<title>x4driver_set_frame_length</title>
<polygon fill="white" stroke="none" points="-4,4 -4,-138 283,-138 283,4 -4,4"/>
<!-- Node878 -->
<g id="node1" class="node"><title>Node878</title>
<polygon fill="#bfbfbf" stroke="black" points="0,-52 0,-82 109,-82 109,-52 0,-52"/>
<text text-anchor="start" x="8" y="-70" font-family="Helvetica,sans-Serif" font-size="10.00">x4driver_set_frame</text>
<text text-anchor="middle" x="54.5" y="-59" font-family="Helvetica,sans-Serif" font-size="10.00">_length</text>
</g>
<!-- Node879 -->
<g id="node2" class="node"><title>Node879</title>
<g id="a_node2"><a xlink:href="x4driver_8c.xhtml#acee55fcb62077a150f421c3bbf2c2947" target="_top" xlink:title="Utility function to take mutex. ">
<polygon fill="white" stroke="black" points="175,-114.5 175,-133.5 249,-133.5 249,-114.5 175,-114.5"/>
<text text-anchor="middle" x="212" y="-121.5" font-family="Helvetica,sans-Serif" font-size="10.00">mutex_take</text>
</a>
</g>
</g>
<!-- Node878&#45;&gt;Node879 -->
<g id="edge1" class="edge"><title>Node878&#45;&gt;Node879</title>
<path fill="none" stroke="midnightblue" d="M88.2758,-82.0446C105.05,-89.4544 125.909,-98.2273 145,-105 151.418,-107.277 158.257,-109.483 165.009,-111.537"/>
<polygon fill="midnightblue" stroke="midnightblue" points="164.2,-114.948 174.782,-114.429 166.186,-108.236 164.2,-114.948"/>
</g>
<!-- Node880 -->
<g id="node3" class="node"><title>Node880</title>
<g id="a_node3"><a xlink:href="x4driver_8c.xhtml#a382b6e4ffa3658d409dfe855707dc16d" target="_top" xlink:title="Sets PIF register value. ">
<polygon fill="white" stroke="red" points="145,-76.5 145,-95.5 279,-95.5 279,-76.5 145,-76.5"/>
<text text-anchor="middle" x="212" y="-83.5" font-family="Helvetica,sans-Serif" font-size="10.00">x4driver_set_pif_register</text>
</a>
</g>
</g>
<!-- Node878&#45;&gt;Node880 -->
<g id="edge2" class="edge"><title>Node878&#45;&gt;Node880</title>
<path fill="none" stroke="midnightblue" d="M109.014,-73.5387C117.286,-74.5494 125.965,-75.6098 134.621,-76.6675"/>
<polygon fill="midnightblue" stroke="midnightblue" points="134.395,-80.1659 144.746,-77.9046 135.244,-73.2175 134.395,-80.1659"/>
</g>
<!-- Node886 -->
<g id="node4" class="node"><title>Node886</title>
<g id="a_node4"><a xlink:href="x4driver_8c.xhtml#a983024655a1dcd0ad2aa0ec6cb8eb3cb" target="_top" xlink:title="Gets PIF register value. ">
<polygon fill="white" stroke="red" points="145,-38.5 145,-57.5 279,-57.5 279,-38.5 145,-38.5"/>
<text text-anchor="middle" x="212" y="-45.5" font-family="Helvetica,sans-Serif" font-size="10.00">x4driver_get_pif_register</text>
</a>
</g>
</g>
<!-- Node878&#45;&gt;Node886 -->
<g id="edge3" class="edge"><title>Node878&#45;&gt;Node886</title>
<path fill="none" stroke="midnightblue" d="M109.014,-60.4613C117.286,-59.4506 125.965,-58.3902 134.621,-57.3325"/>
<polygon fill="midnightblue" stroke="midnightblue" points="135.244,-60.7825 144.746,-56.0954 134.395,-53.8341 135.244,-60.7825"/>
</g>
<!-- Node882 -->
<g id="node5" class="node"><title>Node882</title>
<g id="a_node5"><a xlink:href="x4driver_8c.xhtml#afb50fddff34b3e2ea353077619cb139e" target="_top" xlink:title="Utility function to give mutex. ">
<polygon fill="white" stroke="black" points="176,-0.5 176,-19.5 248,-19.5 248,-0.5 176,-0.5"/>
<text text-anchor="middle" x="212" y="-7.5" font-family="Helvetica,sans-Serif" font-size="10.00">mutex_give</text>
</a>
</g>
</g>
<!-- Node878&#45;&gt;Node882 -->
<g id="edge4" class="edge"><title>Node878&#45;&gt;Node882</title>
<path fill="none" stroke="midnightblue" d="M88.2758,-51.9554C105.05,-44.5456 125.909,-35.7727 145,-29 151.799,-26.5881 159.07,-24.255 166.211,-22.0983"/>
<polygon fill="midnightblue" stroke="midnightblue" points="167.205,-25.4543 175.811,-19.2756 165.23,-18.7386 167.205,-25.4543"/>
</g>
</g>
</svg>
