<?xml version="1.0" encoding="UTF-8" standalone="no"?>
<!DOCTYPE svg PUBLIC "-//W3C//DTD SVG 1.1//EN"
 "http://www.w3.org/Graphics/SVG/1.1/DTD/svg11.dtd">
<!-- Generated by graphviz version 2.38.0 (20140413.2041)
 -->
<!-- Title: x4driver_set_tx_center_frequency Pages: 1 -->
<svg width="317pt" height="116pt"
 viewBox="0.00 0.00 317.00 115.50" xmlns="http://www.w3.org/2000/svg" xmlns:xlink="http://www.w3.org/1999/xlink">
<g id="graph0" class="graph" transform="scale(1 1) rotate(0) translate(4 111.5)">
<title>x4driver_set_tx_center_frequency</title>
<polygon fill="white" stroke="none" points="-4,4 -4,-111.5 313,-111.5 313,4 -4,4"/>
<!-- Node2086 -->
<g id="node1" class="node"><title>Node2086</title>
<polygon fill="#bfbfbf" stroke="black" points="0,-44.5 0,-74.5 125,-74.5 125,-44.5 0,-44.5"/>
<text text-anchor="start" x="8" y="-62.5" font-family="Helvetica,sans-Serif" font-size="10.00">x4driver_set_tx_center</text>
<text text-anchor="middle" x="62.5" y="-51.5" font-family="Helvetica,sans-Serif" font-size="10.00">_frequency</text>
</g>
<!-- Node2087 -->
<g id="node2" class="node"><title>Node2087</title>
<g id="a_node2"><a xlink:href="task__radar_8c.xhtml#ab45564b4bfe2b9814424a084ab9a9859" target="_top" xlink:title="task_radar">
<polygon fill="white" stroke="red" points="201,-88 201,-107 269,-107 269,-88 201,-88"/>
<text text-anchor="middle" x="235" y="-95" font-family="Helvetica,sans-Serif" font-size="10.00">task_radar</text>
</a>
</g>
</g>
<!-- Node2086&#45;&gt;Node2087 -->
<g id="edge1" class="edge"><title>Node2086&#45;&gt;Node2087</title>
<path fill="none" stroke="midnightblue" d="M135.072,-75.4516C157.886,-80.5361 182.041,-85.9197 200.772,-90.0943"/>
<polygon fill="midnightblue" stroke="midnightblue" points="135.576,-71.9781 125.054,-73.2189 134.054,-78.8105 135.576,-71.9781"/>
</g>
<!-- Node2091 -->
<g id="node3" class="node"><title>Node2091</title>
<g id="a_node3"><a xlink:href="xep__application__mcp__callbacks_8h.xhtml#af880e9a568158fe0dbc01768eb02b721" target="_top" xlink:title="onMcpX4DriverInit">
<polygon fill="white" stroke="red" points="183.5,-50 183.5,-69 286.5,-69 286.5,-50 183.5,-50"/>
<text text-anchor="middle" x="235" y="-57" font-family="Helvetica,sans-Serif" font-size="10.00">onMcpX4DriverInit</text>
</a>
</g>
</g>
<!-- Node2086&#45;&gt;Node2091 -->
<g id="edge2" class="edge"><title>Node2086&#45;&gt;Node2091</title>
<path fill="none" stroke="midnightblue" d="M135.072,-59.5C151.338,-59.5 168.287,-59.5 183.464,-59.5"/>
<polygon fill="midnightblue" stroke="midnightblue" points="135.054,-56.0001 125.054,-59.5 135.054,-63.0001 135.054,-56.0001"/>
</g>
<!-- Node2093 -->
<g id="node4" class="node"><title>Node2093</title>
<g id="a_node4"><a xlink:href="xep__application__mcp__callbacks_8h.xhtml#a74bcd9d4245e20e4dceecd414bc3bf2d" target="_top" xlink:title="onMcpX4DriverSetTxCenter\lFrequency">
<polygon fill="white" stroke="red" points="161,-0.5 161,-30.5 309,-30.5 309,-0.5 161,-0.5"/>
<text text-anchor="start" x="169" y="-18.5" font-family="Helvetica,sans-Serif" font-size="10.00">onMcpX4DriverSetTxCenter</text>
<text text-anchor="middle" x="235" y="-7.5" font-family="Helvetica,sans-Serif" font-size="10.00">Frequency</text>
</a>
</g>
</g>
<!-- Node2086&#45;&gt;Node2093 -->
<g id="edge3" class="edge"><title>Node2086&#45;&gt;Node2093</title>
<path fill="none" stroke="midnightblue" d="M131.677,-41.9059C146.283,-38.1368 161.585,-34.1878 175.773,-30.5262"/>
<polygon fill="midnightblue" stroke="midnightblue" points="130.508,-38.5929 121.7,-44.4808 132.257,-45.3709 130.508,-38.5929"/>
</g>
</g>
</svg>
