<?xml version="1.0" encoding="UTF-8" standalone="no"?>
<!DOCTYPE svg PUBLIC "-//W3C//DTD SVG 1.1//EN"
 "http://www.w3.org/Graphics/SVG/1.1/DTD/svg11.dtd">
<!-- Generated by graphviz version 2.38.0 (20140413.2041)
 -->
<!-- Title: TEST_F Pages: 1 -->
<svg width="207pt" height="180pt"
 viewBox="0.00 0.00 207.00 180.00" xmlns="http://www.w3.org/2000/svg" xmlns:xlink="http://www.w3.org/1999/xlink">
<g id="graph0" class="graph" transform="scale(1 1) rotate(0) translate(4 176)">
<title>TEST_F</title>
<polygon fill="white" stroke="none" points="-4,4 -4,-176 203,-176 203,4 -4,4"/>
<!-- Node52 -->
<g id="node1" class="node"><title>Node52</title>
<polygon fill="#bfbfbf" stroke="black" points="0,-76.5 0,-95.5 50,-95.5 50,-76.5 0,-76.5"/>
<text text-anchor="middle" x="25" y="-83.5" font-family="Helvetica,sans-Serif" font-size="10.00">TEST_F</text>
</g>
<!-- Node53 -->
<g id="node2" class="node"><title>Node53</title>
<g id="a_node2"><a xlink:href="x4driver__unittest_8cpp.xhtml#aca74c5603b9441a1329a142f6aa0e2b9" target="_top" xlink:title="test_enable_set">
<polygon fill="white" stroke="black" points="96,-152.5 96,-171.5 189,-171.5 189,-152.5 96,-152.5"/>
<text text-anchor="middle" x="142.5" y="-159.5" font-family="Helvetica,sans-Serif" font-size="10.00">test_enable_set</text>
</a>
</g>
</g>
<!-- Node52&#45;&gt;Node53 -->
<g id="edge1" class="edge"><title>Node52&#45;&gt;Node53</title>
<path fill="none" stroke="midnightblue" d="M33.9433,-95.8102C44.5844,-108.367 64.6192,-130.044 86,-143 89.3819,-145.049 93.0147,-146.914 96.7445,-148.603"/>
<polygon fill="midnightblue" stroke="midnightblue" points="95.5472,-151.895 106.128,-152.445 98.1994,-145.417 95.5472,-151.895"/>
</g>
<!-- Node54 -->
<g id="node3" class="node"><title>Node54</title>
<g id="a_node3"><a xlink:href="x4driver__unittest_8cpp.xhtml#aed0d42e77dd6bc7411a086aed6eed8d4" target="_top" xlink:title="test_lock">
<polygon fill="white" stroke="black" points="113,-114.5 113,-133.5 172,-133.5 172,-114.5 113,-114.5"/>
<text text-anchor="middle" x="142.5" y="-121.5" font-family="Helvetica,sans-Serif" font-size="10.00">test_lock</text>
</a>
</g>
</g>
<!-- Node52&#45;&gt;Node54 -->
<g id="edge2" class="edge"><title>Node52&#45;&gt;Node54</title>
<path fill="none" stroke="midnightblue" d="M50.2126,-93.966C65.4744,-98.9873 85.5185,-105.582 102.936,-111.312"/>
<polygon fill="midnightblue" stroke="midnightblue" points="102.238,-114.767 112.831,-114.568 104.426,-108.118 102.238,-114.767"/>
</g>
<!-- Node55 -->
<g id="node4" class="node"><title>Node55</title>
<g id="a_node4"><a xlink:href="x4driver__unittest_8cpp.xhtml#a567d5572537c4401078364d2ff4f8ca2" target="_top" xlink:title="test_unlock">
<polygon fill="white" stroke="black" points="107,-76.5 107,-95.5 178,-95.5 178,-76.5 107,-76.5"/>
<text text-anchor="middle" x="142.5" y="-83.5" font-family="Helvetica,sans-Serif" font-size="10.00">test_unlock</text>
</a>
</g>
</g>
<!-- Node52&#45;&gt;Node55 -->
<g id="edge3" class="edge"><title>Node52&#45;&gt;Node55</title>
<path fill="none" stroke="midnightblue" d="M50.2126,-86C63.6698,-86 80.8451,-86 96.6593,-86"/>
<polygon fill="midnightblue" stroke="midnightblue" points="96.8022,-89.5001 106.802,-86 96.8021,-82.5001 96.8022,-89.5001"/>
</g>
<!-- Node56 -->
<g id="node5" class="node"><title>Node56</title>
<g id="a_node5"><a xlink:href="x4driver_8h.xhtml#a2e248dc4b2feab14c20a2b5fbfe2b1db" target="_top" xlink:title="Creates x4driver instance. ">
<polygon fill="white" stroke="black" points="97,-38.5 97,-57.5 188,-57.5 188,-38.5 97,-38.5"/>
<text text-anchor="middle" x="142.5" y="-45.5" font-family="Helvetica,sans-Serif" font-size="10.00">x4driver_create</text>
</a>
</g>
</g>
<!-- Node52&#45;&gt;Node56 -->
<g id="edge4" class="edge"><title>Node52&#45;&gt;Node56</title>
<path fill="none" stroke="midnightblue" d="M50.2126,-78.034C65.3638,-73.0491 85.2282,-66.5137 102.557,-60.8125"/>
<polygon fill="midnightblue" stroke="midnightblue" points="104.006,-64.0202 112.412,-57.5702 101.819,-57.3708 104.006,-64.0202"/>
</g>
<!-- Node57 -->
<g id="node6" class="node"><title>Node57</title>
<g id="a_node6"><a xlink:href="x4driver_8h.xhtml#a56631da6259f3784165d78d00e5b0f80" target="_top" xlink:title="Set enable for X4. ">
<polygon fill="white" stroke="red" points="86,-0.5 86,-19.5 199,-19.5 199,-0.5 86,-0.5"/>
<text text-anchor="middle" x="142.5" y="-7.5" font-family="Helvetica,sans-Serif" font-size="10.00">x4driver_set_enable</text>
</a>
</g>
</g>
<!-- Node52&#45;&gt;Node57 -->
<g id="edge5" class="edge"><title>Node52&#45;&gt;Node57</title>
<path fill="none" stroke="midnightblue" d="M33.9433,-76.1898C44.5844,-63.6326 64.6192,-41.9562 86,-29 89.3819,-26.9506 93.0147,-25.0859 96.7445,-23.3968"/>
<polygon fill="midnightblue" stroke="midnightblue" points="98.1994,-26.5832 106.128,-19.5552 95.5472,-20.1051 98.1994,-26.5832"/>
</g>
</g>
</svg>
