<?xml version="1.0" encoding="UTF-8" standalone="no"?>
<!DOCTYPE svg PUBLIC "-//W3C//DTD SVG 1.1//EN"
 "http://www.w3.org/Graphics/SVG/1.1/DTD/svg11.dtd">
<!-- Generated by graphviz version 2.38.0 (20140413.2041)
 -->
<!-- Title: x4driver_get_pif_segment Pages: 1 -->
<svg width="500pt" height="47pt"
 viewBox="0.00 0.00 500.00 47.00" xmlns="http://www.w3.org/2000/svg" xmlns:xlink="http://www.w3.org/1999/xlink">
<g id="graph0" class="graph" transform="scale(1 1) rotate(0) translate(4 43)">
<title>x4driver_get_pif_segment</title>
<polygon fill="white" stroke="none" points="-4,4 -4,-43 496,-43 496,4 -4,4"/>
<!-- Node252 -->
<g id="node1" class="node"><title>Node252</title>
<polygon fill="#bfbfbf" stroke="black" points="0,-0.5 0,-19.5 140,-19.5 140,-0.5 0,-0.5"/>
<text text-anchor="middle" x="70" y="-7.5" font-family="Helvetica,sans-Serif" font-size="10.00">x4driver_get_pif_segment</text>
</g>
<!-- Node253 -->
<g id="node2" class="node"><title>Node253</title>
<g id="a_node2"><a xlink:href="x4driver_8c.xhtml#ac36f9ada592d89010c9ebf3f581a7eff" target="_top" xlink:title="x4driver_get_dac_step">
<polygon fill="white" stroke="red" points="176,-19.5 176,-38.5 301,-38.5 301,-19.5 176,-19.5"/>
<text text-anchor="middle" x="238.5" y="-26.5" font-family="Helvetica,sans-Serif" font-size="10.00">x4driver_get_dac_step</text>
</a>
</g>
</g>
<!-- Node252&#45;&gt;Node253 -->
<g id="edge1" class="edge"><title>Node252&#45;&gt;Node253</title>
<path fill="none" stroke="midnightblue" d="M150.262,-19.0449C158.905,-20.0312 167.606,-21.0241 175.99,-21.9809"/>
<polygon fill="midnightblue" stroke="midnightblue" points="150.497,-15.5491 140.165,-17.8926 149.703,-22.5039 150.497,-15.5491"/>
</g>
<!-- Node264 -->
<g id="node3" class="node"><title>Node264</title>
<g id="a_node3"><a xlink:href="x4driver_8c.xhtml#a8bc96b0db173f49cfe59027d9e95f600" target="_top" xlink:title="x4driver_check_configuration">
<polygon fill="white" stroke="red" points="337,-0.5 337,-19.5 492,-19.5 492,-0.5 337,-0.5"/>
<text text-anchor="middle" x="414.5" y="-7.5" font-family="Helvetica,sans-Serif" font-size="10.00">x4driver_check_configuration</text>
</a>
</g>
</g>
<!-- Node252&#45;&gt;Node264 -->
<g id="edge3" class="edge"><title>Node252&#45;&gt;Node264</title>
<path fill="none" stroke="midnightblue" d="M150.56,-10C206.666,-10 281.391,-10 336.84,-10"/>
<polygon fill="midnightblue" stroke="midnightblue" points="150.31,-6.5001 140.31,-10 150.31,-13.5001 150.31,-6.5001"/>
</g>
<!-- Node253&#45;&gt;Node264 -->
<g id="edge2" class="edge"><title>Node253&#45;&gt;Node264</title>
<path fill="none" stroke="midnightblue" d="M311.471,-21.1411C319.876,-20.2233 328.475,-19.2843 336.94,-18.36"/>
<polygon fill="midnightblue" stroke="midnightblue" points="310.897,-17.6829 301.336,-22.2478 311.657,-24.6415 310.897,-17.6829"/>
</g>
</g>
</svg>
