<?xml version="1.0" encoding="UTF-8" standalone="no"?>
<!DOCTYPE svg PUBLIC "-//W3C//DTD SVG 1.1//EN"
 "http://www.w3.org/Graphics/SVG/1.1/DTD/svg11.dtd">
<!-- Generated by graphviz version 2.38.0 (20140413.2041)
 -->
<!-- Title: TEST_F Pages: 1 -->
<svg width="203pt" height="332pt"
 viewBox="0.00 0.00 203.00 332.00" xmlns="http://www.w3.org/2000/svg" xmlns:xlink="http://www.w3.org/1999/xlink">
<g id="graph0" class="graph" transform="scale(1 1) rotate(0) translate(4 328)">
<title>TEST_F</title>
<polygon fill="white" stroke="none" points="-4,4 -4,-328 199,-328 199,4 -4,4"/>
<!-- Node155 -->
<g id="node1" class="node"><title>Node155</title>
<polygon fill="#bfbfbf" stroke="black" points="0,-152.5 0,-171.5 50,-171.5 50,-152.5 0,-152.5"/>
<text text-anchor="middle" x="25" y="-159.5" font-family="Helvetica,sans-Serif" font-size="10.00">TEST_F</text>
</g>
<!-- Node156 -->
<g id="node2" class="node"><title>Node156</title>
<g id="a_node2"><a xlink:href="x4driver__unittest_8cpp.xhtml#aed0d42e77dd6bc7411a086aed6eed8d4" target="_top" xlink:title="test_lock">
<polygon fill="white" stroke="black" points="111,-304.5 111,-323.5 170,-323.5 170,-304.5 111,-304.5"/>
<text text-anchor="middle" x="140.5" y="-311.5" font-family="Helvetica,sans-Serif" font-size="10.00">test_lock</text>
</a>
</g>
</g>
<!-- Node155&#45;&gt;Node156 -->
<g id="edge1" class="edge"><title>Node155&#45;&gt;Node156</title>
<path fill="none" stroke="midnightblue" d="M27.6464,-171.545C32.3034,-195.699 47.7969,-259.827 86,-295 90.4131,-299.063 95.7515,-302.268 101.326,-304.793"/>
<polygon fill="midnightblue" stroke="midnightblue" points="100.218,-308.117 110.808,-308.433 102.727,-301.582 100.218,-308.117"/>
</g>
<!-- Node157 -->
<g id="node3" class="node"><title>Node157</title>
<g id="a_node3"><a xlink:href="x4driver__unittest_8cpp.xhtml#a567d5572537c4401078364d2ff4f8ca2" target="_top" xlink:title="test_unlock">
<polygon fill="white" stroke="black" points="105,-266.5 105,-285.5 176,-285.5 176,-266.5 105,-266.5"/>
<text text-anchor="middle" x="140.5" y="-273.5" font-family="Helvetica,sans-Serif" font-size="10.00">test_unlock</text>
</a>
</g>
</g>
<!-- Node155&#45;&gt;Node157 -->
<g id="edge2" class="edge"><title>Node155&#45;&gt;Node157</title>
<path fill="none" stroke="midnightblue" d="M29.5355,-171.566C37.0273,-190.56 56.2876,-233.249 86,-257 88.9449,-259.354 92.2041,-261.429 95.618,-263.255"/>
<polygon fill="midnightblue" stroke="midnightblue" points="94.359,-266.529 104.906,-267.531 97.2861,-260.17 94.359,-266.529"/>
</g>
<!-- Node158 -->
<g id="node4" class="node"><title>Node158</title>
<g id="a_node4"><a xlink:href="x4driver__unittest_8cpp.xhtml#aca74c5603b9441a1329a142f6aa0e2b9" target="_top" xlink:title="test_enable_set">
<polygon fill="white" stroke="black" points="94,-228.5 94,-247.5 187,-247.5 187,-228.5 94,-228.5"/>
<text text-anchor="middle" x="140.5" y="-235.5" font-family="Helvetica,sans-Serif" font-size="10.00">test_enable_set</text>
</a>
</g>
</g>
<!-- Node155&#45;&gt;Node158 -->
<g id="edge3" class="edge"><title>Node155&#45;&gt;Node158</title>
<path fill="none" stroke="midnightblue" d="M33.9662,-171.773C44.632,-184.289 64.6935,-205.922 86,-219 89.2131,-220.972 92.6605,-222.779 96.2002,-224.426"/>
<polygon fill="midnightblue" stroke="midnightblue" points="95.1141,-227.767 105.689,-228.417 97.8278,-221.314 95.1141,-227.767"/>
</g>
<!-- Node159 -->
<g id="node5" class="node"><title>Node159</title>
<g id="a_node5"><a xlink:href="x4driver__unittest_8cpp.xhtml#ae2f624d73c2aef14f37123142ded7bc6" target="_top" xlink:title="test_spi_write">
<polygon fill="white" stroke="red" points="99.5,-190.5 99.5,-209.5 181.5,-209.5 181.5,-190.5 99.5,-190.5"/>
<text text-anchor="middle" x="140.5" y="-197.5" font-family="Helvetica,sans-Serif" font-size="10.00">test_spi_write</text>
</a>
</g>
</g>
<!-- Node155&#45;&gt;Node159 -->
<g id="edge4" class="edge"><title>Node155&#45;&gt;Node159</title>
<path fill="none" stroke="midnightblue" d="M50.0704,-170.059C64.975,-175.049 84.4416,-181.566 101.406,-187.246"/>
<polygon fill="midnightblue" stroke="midnightblue" points="100.458,-190.619 111.051,-190.475 102.68,-183.982 100.458,-190.619"/>
</g>
<!-- Node161 -->
<g id="node6" class="node"><title>Node161</title>
<g id="a_node6"><a xlink:href="x4driver__unittest_8cpp.xhtml#a964c40367fd09ff3477146d28ab46768" target="_top" xlink:title="test_spi_write_read">
<polygon fill="white" stroke="red" points="86,-152.5 86,-171.5 195,-171.5 195,-152.5 86,-152.5"/>
<text text-anchor="middle" x="140.5" y="-159.5" font-family="Helvetica,sans-Serif" font-size="10.00">test_spi_write_read</text>
</a>
</g>
</g>
<!-- Node155&#45;&gt;Node161 -->
<g id="edge5" class="edge"><title>Node155&#45;&gt;Node161</title>
<path fill="none" stroke="midnightblue" d="M50.0704,-162C57.6351,-162 66.3749,-162 75.3662,-162"/>
<polygon fill="midnightblue" stroke="midnightblue" points="75.5754,-165.5 85.5754,-162 75.5753,-158.5 75.5754,-165.5"/>
</g>
<!-- Node162 -->
<g id="node7" class="node"><title>Node162</title>
<g id="a_node7"><a xlink:href="x4driver__unittest_8cpp.xhtml#a1aa6821ce8346bb3ab63a9715545a51e" target="_top" xlink:title="test_wait_us">
<polygon fill="white" stroke="black" points="102.5,-114.5 102.5,-133.5 178.5,-133.5 178.5,-114.5 102.5,-114.5"/>
<text text-anchor="middle" x="140.5" y="-121.5" font-family="Helvetica,sans-Serif" font-size="10.00">test_wait_us</text>
</a>
</g>
</g>
<!-- Node155&#45;&gt;Node162 -->
<g id="edge6" class="edge"><title>Node155&#45;&gt;Node162</title>
<path fill="none" stroke="midnightblue" d="M50.0704,-153.941C64.975,-148.951 84.4416,-142.434 101.406,-136.754"/>
<polygon fill="midnightblue" stroke="midnightblue" points="102.68,-140.018 111.051,-133.525 100.458,-133.381 102.68,-140.018"/>
</g>
<!-- Node163 -->
<g id="node8" class="node"><title>Node163</title>
<g id="a_node8"><a xlink:href="class_spi_registers.xhtml#a61d0294e72dd6a26d0de29525155e1af" target="_top" xlink:title="SpiRegisters::reset">
<polygon fill="white" stroke="black" points="87.5,-76.5 87.5,-95.5 193.5,-95.5 193.5,-76.5 87.5,-76.5"/>
<text text-anchor="middle" x="140.5" y="-83.5" font-family="Helvetica,sans-Serif" font-size="10.00">SpiRegisters::reset</text>
</a>
</g>
</g>
<!-- Node155&#45;&gt;Node163 -->
<g id="edge7" class="edge"><title>Node155&#45;&gt;Node163</title>
<path fill="none" stroke="midnightblue" d="M33.9662,-152.227C44.632,-139.711 64.6935,-118.078 86,-105 89.2131,-103.028 92.6605,-101.221 96.2002,-99.5736"/>
<polygon fill="midnightblue" stroke="midnightblue" points="97.8278,-102.686 105.689,-95.5831 95.1141,-96.2335 97.8278,-102.686"/>
</g>
<!-- Node164 -->
<g id="node9" class="node"><title>Node164</title>
<g id="a_node9"><a xlink:href="x4driver_8h.xhtml#a2e248dc4b2feab14c20a2b5fbfe2b1db" target="_top" xlink:title="Creates x4driver instance. ">
<polygon fill="white" stroke="black" points="95,-38.5 95,-57.5 186,-57.5 186,-38.5 95,-38.5"/>
<text text-anchor="middle" x="140.5" y="-45.5" font-family="Helvetica,sans-Serif" font-size="10.00">x4driver_create</text>
</a>
</g>
</g>
<!-- Node155&#45;&gt;Node164 -->
<g id="edge8" class="edge"><title>Node155&#45;&gt;Node164</title>
<path fill="none" stroke="midnightblue" d="M29.5355,-152.434C37.0273,-133.44 56.2876,-90.7515 86,-67 88.2736,-65.1825 90.7346,-63.5315 93.3095,-62.0328"/>
<polygon fill="midnightblue" stroke="midnightblue" points="95.0079,-65.0969 102.396,-57.5031 91.8848,-58.8322 95.0079,-65.0969"/>
</g>
<!-- Node165 -->
<g id="node10" class="node"><title>Node165</title>
<g id="a_node10"><a xlink:href="x4driver__unittest_8cpp.xhtml#ac1807f82eb6bcd4292b07e2a299c2d29" target="_top" xlink:title="push_ldo">
<polygon fill="white" stroke="red" points="111,-0.5 111,-19.5 170,-19.5 170,-0.5 111,-0.5"/>
<text text-anchor="middle" x="140.5" y="-7.5" font-family="Helvetica,sans-Serif" font-size="10.00">push_ldo</text>
</a>
</g>
</g>
<!-- Node155&#45;&gt;Node165 -->
<g id="edge9" class="edge"><title>Node155&#45;&gt;Node165</title>
<path fill="none" stroke="midnightblue" d="M27.6464,-152.455C32.3034,-128.301 47.7969,-64.1729 86,-29 90.4131,-24.937 95.7515,-21.7319 101.326,-19.2066"/>
<polygon fill="midnightblue" stroke="midnightblue" points="102.727,-22.418 110.808,-15.5668 100.218,-15.8828 102.727,-22.418"/>
</g>
</g>
</svg>
