<?xml version="1.0" encoding="UTF-8" standalone="no"?>
<!DOCTYPE svg PUBLIC "-//W3C//DTD SVG 1.1//EN"
 "http://www.w3.org/Graphics/SVG/1.1/DTD/svg11.dtd">
<!-- Generated by graphviz version 2.38.0 (20140413.2041)
 -->
<!-- Title: x4driver_upload_firmware_default Pages: 1 -->
<svg width="604pt" height="181pt"
 viewBox="0.00 0.00 604.00 180.84" xmlns="http://www.w3.org/2000/svg" xmlns:xlink="http://www.w3.org/1999/xlink">
<g id="graph0" class="graph" transform="scale(1 1) rotate(0) translate(4 176.841)">
<title>x4driver_upload_firmware_default</title>
<polygon fill="white" stroke="none" points="-4,4 -4,-176.841 600,-176.841 600,4 -4,4"/>
<!-- Node2195 -->
<g id="node1" class="node"><title>Node2195</title>
<polygon fill="#bfbfbf" stroke="black" points="0,-70.1109 0,-100.111 139,-100.111 139,-70.1109 0,-70.1109"/>
<text text-anchor="start" x="8" y="-88.1109" font-family="Helvetica,sans-Serif" font-size="10.00">x4driver_upload_firmware</text>
<text text-anchor="middle" x="69.5" y="-77.1109" font-family="Helvetica,sans-Serif" font-size="10.00">_default</text>
</g>
<!-- Node2196 -->
<g id="node2" class="node"><title>Node2196</title>
<g id="a_node2"><a xlink:href="x4driver_8c.xhtml#acee55fcb62077a150f421c3bbf2c2947" target="_top" xlink:title="Utility function to take mutex. ">
<polygon fill="white" stroke="black" points="522,-113.611 522,-132.611 596,-132.611 596,-113.611 522,-113.611"/>
<text text-anchor="middle" x="559" y="-120.611" font-family="Helvetica,sans-Serif" font-size="10.00">mutex_take</text>
</a>
</g>
</g>
<!-- Node2195&#45;&gt;Node2196 -->
<g id="edge1" class="edge"><title>Node2195&#45;&gt;Node2196</title>
<path fill="none" stroke="midnightblue" d="M91.7004,-100.315C111.997,-113.959 144.026,-133.169 175,-142.111 307.882,-180.474 350.377,-180.235 486,-153.111 501.707,-149.969 518.271,-143.326 531.547,-137.087"/>
<polygon fill="midnightblue" stroke="midnightblue" points="533.128,-140.21 540.573,-132.672 530.052,-133.922 533.128,-140.21"/>
</g>
<!-- Node2197 -->
<g id="node3" class="node"><title>Node2197</title>
<g id="a_node3"><a xlink:href="x4driver_8c.xhtml#a0b4d051505ed04b077d126758967318f" target="_top" xlink:title="Uploads custom 8051 firmware to X4. ">
<polygon fill="white" stroke="black" points="175,-26.1109 175,-56.1109 314,-56.1109 314,-26.1109 175,-26.1109"/>
<text text-anchor="start" x="183" y="-44.1109" font-family="Helvetica,sans-Serif" font-size="10.00">x4driver_upload_firmware</text>
<text text-anchor="middle" x="244.5" y="-33.1109" font-family="Helvetica,sans-Serif" font-size="10.00">_custom</text>
</a>
</g>
</g>
<!-- Node2195&#45;&gt;Node2197 -->
<g id="edge2" class="edge"><title>Node2195&#45;&gt;Node2197</title>
<path fill="none" stroke="midnightblue" d="M129.553,-70.0916C144.086,-66.3952 159.773,-62.4055 174.722,-58.6035"/>
<polygon fill="midnightblue" stroke="midnightblue" points="175.591,-61.994 184.42,-56.1371 173.865,-55.21 175.591,-61.994"/>
</g>
<!-- Node2198 -->
<g id="node4" class="node"><title>Node2198</title>
<g id="a_node4"><a xlink:href="x4driver_8c.xhtml#a972399a44ab859c55b7a108af64015d3" target="_top" xlink:title="Set SPI register on radar chip. ">
<polygon fill="white" stroke="black" points="350,-75.6109 350,-94.6109 486,-94.6109 486,-75.6109 350,-75.6109"/>
<text text-anchor="middle" x="418" y="-82.6109" font-family="Helvetica,sans-Serif" font-size="10.00">x4driver_set_spi_register</text>
</a>
</g>
</g>
<!-- Node2195&#45;&gt;Node2198 -->
<g id="edge8" class="edge"><title>Node2195&#45;&gt;Node2198</title>
<path fill="none" stroke="midnightblue" d="M139.372,-85.1109C197.115,-85.1109 279.521,-85.1109 339.548,-85.1109"/>
<polygon fill="midnightblue" stroke="midnightblue" points="339.733,-88.611 349.733,-85.1109 339.733,-81.611 339.733,-88.611"/>
</g>
<!-- Node2199 -->
<g id="node5" class="node"><title>Node2199</title>
<g id="a_node5"><a xlink:href="x4driver_8c.xhtml#afb50fddff34b3e2ea353077619cb139e" target="_top" xlink:title="Utility function to give mutex. ">
<polygon fill="white" stroke="black" points="523,-37.6109 523,-56.6109 595,-56.6109 595,-37.6109 523,-37.6109"/>
<text text-anchor="middle" x="559" y="-44.6109" font-family="Helvetica,sans-Serif" font-size="10.00">mutex_give</text>
</a>
</g>
</g>
<!-- Node2195&#45;&gt;Node2199 -->
<g id="edge13" class="edge"><title>Node2195&#45;&gt;Node2199</title>
<path fill="none" stroke="midnightblue" d="M86.6549,-69.9808C105.947,-53.05 140.02,-26.6175 175,-16.1109 296.183,20.2875 448.04,-14.2668 518.596,-34.6159"/>
<polygon fill="midnightblue" stroke="midnightblue" points="517.821,-38.0363 528.402,-37.505 519.799,-31.3216 517.821,-38.0363"/>
</g>
<!-- Node2200 -->
<g id="node6" class="node"><title>Node2200</title>
<g id="a_node6"><a xlink:href="x4driver_8c.xhtml#a0d9b975a093cd210bda1b58fca408c42" target="_top" xlink:title="Read back embedded 8051 firmware. ">
<polygon fill="white" stroke="red" points="178.5,-113.611 178.5,-132.611 310.5,-132.611 310.5,-113.611 178.5,-113.611"/>
<text text-anchor="middle" x="244.5" y="-120.611" font-family="Helvetica,sans-Serif" font-size="10.00">x4driver_verify_firmware</text>
</a>
</g>
</g>
<!-- Node2195&#45;&gt;Node2200 -->
<g id="edge9" class="edge"><title>Node2195&#45;&gt;Node2200</title>
<path fill="none" stroke="midnightblue" d="M138.874,-100.129C156.003,-103.892 174.124,-107.872 190.386,-111.444"/>
<polygon fill="midnightblue" stroke="midnightblue" points="189.728,-114.883 200.246,-113.61 191.23,-108.046 189.728,-114.883"/>
</g>
<!-- Node2197&#45;&gt;Node2196 -->
<g id="edge3" class="edge"><title>Node2197&#45;&gt;Node2196</title>
<path fill="none" stroke="midnightblue" d="M314.042,-38.2009C363.55,-38.4573 431.082,-43.7539 486,-66.1109 507.972,-75.0555 528.726,-92.8589 542.255,-106.201"/>
<polygon fill="midnightblue" stroke="midnightblue" points="539.845,-108.742 549.341,-113.441 544.848,-103.846 539.845,-108.742"/>
</g>
<!-- Node2197&#45;&gt;Node2198 -->
<g id="edge4" class="edge"><title>Node2197&#45;&gt;Node2198</title>
<path fill="none" stroke="midnightblue" d="M304.041,-56.1301C325.639,-61.6713 349.806,-67.8716 370.227,-73.1108"/>
<polygon fill="midnightblue" stroke="midnightblue" points="369.367,-76.5035 379.923,-75.5984 371.107,-69.7231 369.367,-76.5035"/>
</g>
<!-- Node2197&#45;&gt;Node2199 -->
<g id="edge7" class="edge"><title>Node2197&#45;&gt;Node2199</title>
<path fill="none" stroke="midnightblue" d="M314.067,-34.1364C362.262,-30.3803 428.198,-27.5434 486,-33.1109 494.655,-33.9445 503.815,-35.3294 512.595,-36.9122"/>
<polygon fill="midnightblue" stroke="midnightblue" points="512.195,-40.3991 522.675,-38.8401 513.51,-33.5237 512.195,-40.3991"/>
</g>
<!-- Node2198&#45;&gt;Node2196 -->
<g id="edge5" class="edge"><title>Node2198&#45;&gt;Node2196</title>
<path fill="none" stroke="midnightblue" d="M454.076,-94.6999C472.019,-99.6053 494.058,-105.63 513.217,-110.868"/>
<polygon fill="midnightblue" stroke="midnightblue" points="512.367,-114.264 522.936,-113.525 514.213,-107.512 512.367,-114.264"/>
</g>
<!-- Node2198&#45;&gt;Node2199 -->
<g id="edge6" class="edge"><title>Node2198&#45;&gt;Node2199</title>
<path fill="none" stroke="midnightblue" d="M454.076,-75.5219C472.019,-70.6164 494.058,-64.5913 513.217,-59.3538"/>
<polygon fill="midnightblue" stroke="midnightblue" points="514.213,-62.71 522.936,-56.6968 512.367,-55.9578 514.213,-62.71"/>
</g>
<!-- Node2200&#45;&gt;Node2196 -->
<g id="edge10" class="edge"><title>Node2200&#45;&gt;Node2196</title>
<path fill="none" stroke="midnightblue" d="M306.146,-132.626C320.488,-134.49 335.754,-136.161 350,-137.111 410.31,-141.133 425.834,-142.906 486,-137.111 494.473,-136.295 503.43,-134.95 512.04,-133.409"/>
<polygon fill="midnightblue" stroke="midnightblue" points="512.768,-136.834 521.94,-131.529 511.462,-129.956 512.768,-136.834"/>
</g>
<!-- Node2200&#45;&gt;Node2198 -->
<g id="edge11" class="edge"><title>Node2200&#45;&gt;Node2198</title>
<path fill="none" stroke="midnightblue" d="M288.777,-113.522C311.612,-108.462 339.823,-102.211 363.965,-96.8621"/>
<polygon fill="midnightblue" stroke="midnightblue" points="365.028,-100.211 374.035,-94.6309 363.514,-93.3771 365.028,-100.211"/>
</g>
<!-- Node2200&#45;&gt;Node2199 -->
<g id="edge12" class="edge"><title>Node2200&#45;&gt;Node2199</title>
<path fill="none" stroke="midnightblue" d="M310.568,-128.029C360.304,-129.437 429.667,-126.235 486,-104.111 508.081,-95.4387 528.817,-77.591 542.313,-64.1639"/>
<polygon fill="midnightblue" stroke="midnightblue" points="544.933,-66.4894 549.377,-56.8718 539.905,-61.6187 544.933,-66.4894"/>
</g>
</g>
</svg>
