<?xml version="1.0" encoding="UTF-8" standalone="no"?>
<!DOCTYPE svg PUBLIC "-//W3C//DTD SVG 1.1//EN"
 "http://www.w3.org/Graphics/SVG/1.1/DTD/svg11.dtd">
<!-- Generated by graphviz version 2.38.0 (20140413.2041)
 -->
<!-- Title: x4driver_set_sweep_trigger_control Pages: 1 -->
<svg width="359pt" height="95pt"
 viewBox="0.00 0.00 359.00 95.09" xmlns="http://www.w3.org/2000/svg" xmlns:xlink="http://www.w3.org/1999/xlink">
<g id="graph0" class="graph" transform="scale(1 1) rotate(0) translate(4 91.0941)">
<title>x4driver_set_sweep_trigger_control</title>
<polygon fill="white" stroke="none" points="-4,4 -4,-91.0941 355,-91.0941 355,4 -4,4"/>
<!-- Node2053 -->
<g id="node1" class="node"><title>Node2053</title>
<polygon fill="#bfbfbf" stroke="black" points="0,-28.547 0,-58.547 110,-58.547 110,-28.547 0,-28.547"/>
<text text-anchor="start" x="8" y="-46.547" font-family="Helvetica,sans-Serif" font-size="10.00">x4driver_set_sweep</text>
<text text-anchor="middle" x="55" y="-35.547" font-family="Helvetica,sans-Serif" font-size="10.00">_trigger_control</text>
</g>
<!-- Node2054 -->
<g id="node2" class="node"><title>Node2054</title>
<g id="a_node2"><a xlink:href="x4driver_8c.xhtml#acee55fcb62077a150f421c3bbf2c2947" target="_top" xlink:title="Utility function to take mutex. ">
<polygon fill="white" stroke="black" points="277,-53.047 277,-72.047 351,-72.047 351,-53.047 277,-53.047"/>
<text text-anchor="middle" x="314" y="-60.047" font-family="Helvetica,sans-Serif" font-size="10.00">mutex_take</text>
</a>
</g>
</g>
<!-- Node2053&#45;&gt;Node2054 -->
<g id="edge1" class="edge"><title>Node2053&#45;&gt;Node2054</title>
<path fill="none" stroke="midnightblue" d="M83.8424,-58.7257C101.167,-67.291 124.223,-77.1382 146,-81.547 187.383,-89.9253 199.129,-86.9788 241,-81.547 251.881,-80.1355 263.462,-77.5714 274.082,-74.7742"/>
<polygon fill="midnightblue" stroke="midnightblue" points="275.212,-78.093 283.915,-72.0509 273.344,-71.3469 275.212,-78.093"/>
</g>
<!-- Node2055 -->
<g id="node3" class="node"><title>Node2055</title>
<g id="a_node3"><a xlink:href="x4driver_8c.xhtml#a3ae283684d1a23d89a56d93971139bb6" target="_top" xlink:title="x4driver_get_fps">
<polygon fill="white" stroke="black" points="146,-53.047 146,-72.047 241,-72.047 241,-53.047 146,-53.047"/>
<text text-anchor="middle" x="193.5" y="-60.047" font-family="Helvetica,sans-Serif" font-size="10.00">x4driver_get_fps</text>
</a>
</g>
</g>
<!-- Node2053&#45;&gt;Node2055 -->
<g id="edge2" class="edge"><title>Node2053&#45;&gt;Node2055</title>
<path fill="none" stroke="midnightblue" d="M110.341,-51.1109C118.692,-52.2734 127.333,-53.4762 135.735,-54.6458"/>
<polygon fill="midnightblue" stroke="midnightblue" points="135.443,-58.1387 145.83,-56.0509 136.408,-51.2056 135.443,-58.1387"/>
</g>
<!-- Node2056 -->
<g id="node4" class="node"><title>Node2056</title>
<g id="a_node4"><a xlink:href="x4driver_8c.xhtml#afb50fddff34b3e2ea353077619cb139e" target="_top" xlink:title="Utility function to give mutex. ">
<polygon fill="white" stroke="black" points="278,-15.047 278,-34.047 350,-34.047 350,-15.047 278,-15.047"/>
<text text-anchor="middle" x="314" y="-22.047" font-family="Helvetica,sans-Serif" font-size="10.00">mutex_give</text>
</a>
</g>
</g>
<!-- Node2053&#45;&gt;Node2056 -->
<g id="edge8" class="edge"><title>Node2053&#45;&gt;Node2056</title>
<path fill="none" stroke="midnightblue" d="M83.8424,-28.3684C101.167,-19.8031 124.223,-9.9559 146,-5.54705 187.383,2.83119 199.129,-0.115325 241,-5.54705 251.881,-6.95863 263.462,-9.5227 274.082,-12.3199"/>
<polygon fill="midnightblue" stroke="midnightblue" points="273.344,-15.7472 283.915,-15.0432 275.212,-9.00111 273.344,-15.7472"/>
</g>
<!-- Node2057 -->
<g id="node5" class="node"><title>Node2057</title>
<g id="a_node5"><a xlink:href="x4driver_8c.xhtml#af6c32021e202b0dfe0a8b104ebd7a0b6" target="_top" xlink:title="Sets frame rate for frame streaming. ">
<polygon fill="white" stroke="red" points="146,-15.047 146,-34.047 241,-34.047 241,-15.047 146,-15.047"/>
<text text-anchor="middle" x="193.5" y="-22.047" font-family="Helvetica,sans-Serif" font-size="10.00">x4driver_set_fps</text>
</a>
</g>
</g>
<!-- Node2053&#45;&gt;Node2057 -->
<g id="edge5" class="edge"><title>Node2053&#45;&gt;Node2057</title>
<path fill="none" stroke="midnightblue" d="M110.341,-35.9832C118.692,-34.8207 127.333,-33.6179 135.735,-32.4483"/>
<polygon fill="midnightblue" stroke="midnightblue" points="136.408,-35.8885 145.83,-31.0432 135.443,-28.9554 136.408,-35.8885"/>
</g>
<!-- Node2055&#45;&gt;Node2054 -->
<g id="edge3" class="edge"><title>Node2055&#45;&gt;Node2054</title>
<path fill="none" stroke="midnightblue" d="M241.334,-62.547C249.613,-62.547 258.23,-62.547 266.5,-62.547"/>
<polygon fill="midnightblue" stroke="midnightblue" points="266.737,-66.0471 276.737,-62.547 266.737,-59.0471 266.737,-66.0471"/>
</g>
<!-- Node2055&#45;&gt;Node2056 -->
<g id="edge4" class="edge"><title>Node2055&#45;&gt;Node2056</title>
<path fill="none" stroke="midnightblue" d="M224.403,-52.958C239.279,-48.1876 257.457,-42.3583 273.467,-37.2242"/>
<polygon fill="midnightblue" stroke="midnightblue" points="274.653,-40.5195 283.107,-34.133 272.516,-33.8538 274.653,-40.5195"/>
</g>
<!-- Node2057&#45;&gt;Node2054 -->
<g id="edge6" class="edge"><title>Node2057&#45;&gt;Node2054</title>
<path fill="none" stroke="midnightblue" d="M224.403,-34.1361C239.279,-38.9065 257.457,-44.7358 273.467,-49.8699"/>
<polygon fill="midnightblue" stroke="midnightblue" points="272.516,-53.2403 283.107,-52.9611 274.653,-46.5746 272.516,-53.2403"/>
</g>
<!-- Node2057&#45;&gt;Node2056 -->
<g id="edge7" class="edge"><title>Node2057&#45;&gt;Node2056</title>
<path fill="none" stroke="midnightblue" d="M241.334,-24.547C249.981,-24.547 258.997,-24.547 267.6,-24.547"/>
<polygon fill="midnightblue" stroke="midnightblue" points="267.837,-28.0471 277.837,-24.547 267.837,-21.0471 267.837,-28.0471"/>
</g>
</g>
</svg>
