<?xml version="1.0" encoding="UTF-8" standalone="no"?>
<!DOCTYPE svg PUBLIC "-//W3C//DTD SVG 1.1//EN"
 "http://www.w3.org/Graphics/SVG/1.1/DTD/svg11.dtd">
<!-- Generated by graphviz version 2.38.0 (20140413.2041)
 -->
<!-- Title: x4driver_get_dac_max Pages: 1 -->
<svg width="324pt" height="154pt"
 viewBox="0.00 0.00 324.00 153.50" xmlns="http://www.w3.org/2000/svg" xmlns:xlink="http://www.w3.org/1999/xlink">
<g id="graph0" class="graph" transform="scale(1 1) rotate(0) translate(4 149.5)">
<title>x4driver_get_dac_max</title>
<polygon fill="white" stroke="none" points="-4,4 -4,-149.5 320,-149.5 320,4 -4,4"/>
<!-- Node42 -->
<g id="node1" class="node"><title>Node42</title>
<polygon fill="#bfbfbf" stroke="black" points="0,-57.5 0,-76.5 125,-76.5 125,-57.5 0,-57.5"/>
<text text-anchor="middle" x="62.5" y="-64.5" font-family="Helvetica,sans-Serif" font-size="10.00">x4driver_get_dac_max</text>
</g>
<!-- Node43 -->
<g id="node2" class="node"><title>Node43</title>
<g id="a_node2"><a xlink:href="x4driver_8c.xhtml#a3493035f2d30f78e30586a7a4eccb481" target="_top" xlink:title="Updates normalization variables and calculates new constants. ">
<polygon fill="white" stroke="red" points="175.5,-115 175.5,-145 301.5,-145 301.5,-115 175.5,-115"/>
<text text-anchor="start" x="183.5" y="-133" font-family="Helvetica,sans-Serif" font-size="10.00">_update_normalization</text>
<text text-anchor="middle" x="238.5" y="-122" font-family="Helvetica,sans-Serif" font-size="10.00">_variables</text>
</a>
</g>
</g>
<!-- Node42&#45;&gt;Node43 -->
<g id="edge1" class="edge"><title>Node42&#45;&gt;Node43</title>
<path fill="none" stroke="midnightblue" d="M96.3259,-80.3202C115.157,-87.8287 139.297,-97.2314 161,-105 170.34,-108.343 180.384,-111.755 190.022,-114.94"/>
<polygon fill="midnightblue" stroke="midnightblue" points="97.5881,-77.0554 87.0037,-76.585 94.9845,-83.5533 97.5881,-77.0554"/>
</g>
<!-- Node52 -->
<g id="node3" class="node"><title>Node52</title>
<g id="a_node3"><a xlink:href="x4driver_8c.xhtml#ad4eae703d43b3d9800fd5174ce8ff222" target="_top" xlink:title="x4driver_get_sweep_time">
<polygon fill="white" stroke="black" points="169.5,-76.5 169.5,-95.5 307.5,-95.5 307.5,-76.5 169.5,-76.5"/>
<text text-anchor="middle" x="238.5" y="-83.5" font-family="Helvetica,sans-Serif" font-size="10.00">x4driver_get_sweep_time</text>
</a>
</g>
</g>
<!-- Node42&#45;&gt;Node52 -->
<g id="edge2" class="edge"><title>Node42&#45;&gt;Node52</title>
<path fill="none" stroke="midnightblue" d="M135.504,-74.8625C146.705,-76.0856 158.247,-77.346 169.359,-78.5593"/>
<polygon fill="midnightblue" stroke="midnightblue" points="135.657,-71.3585 125.336,-73.7522 134.897,-78.3171 135.657,-71.3585"/>
</g>
<!-- Node53 -->
<g id="node4" class="node"><title>Node53</title>
<g id="a_node4"><a xlink:href="x4driver_8c.xhtml#a8bc96b0db173f49cfe59027d9e95f600" target="_top" xlink:title="x4driver_check_configuration">
<polygon fill="white" stroke="red" points="161,-38.5 161,-57.5 316,-57.5 316,-38.5 161,-38.5"/>
<text text-anchor="middle" x="238.5" y="-45.5" font-family="Helvetica,sans-Serif" font-size="10.00">x4driver_check_configuration</text>
</a>
</g>
</g>
<!-- Node42&#45;&gt;Node53 -->
<g id="edge3" class="edge"><title>Node42&#45;&gt;Node53</title>
<path fill="none" stroke="midnightblue" d="M135.471,-59.1411C143.876,-58.2233 152.475,-57.2843 160.94,-56.36"/>
<polygon fill="midnightblue" stroke="midnightblue" points="134.897,-55.6829 125.336,-60.2478 135.657,-62.6415 134.897,-55.6829"/>
</g>
<!-- Node54 -->
<g id="node5" class="node"><title>Node54</title>
<g id="a_node5"><a xlink:href="xep__application__mcp__callbacks_8h.xhtml#a61d8daae8fb4fa427251d81323f5ff0c" target="_top" xlink:title="onMcpX4DriverGetDacMax">
<polygon fill="white" stroke="red" points="166.5,-0.5 166.5,-19.5 310.5,-19.5 310.5,-0.5 166.5,-0.5"/>
<text text-anchor="middle" x="238.5" y="-7.5" font-family="Helvetica,sans-Serif" font-size="10.00">onMcpX4DriverGetDacMax</text>
</a>
</g>
</g>
<!-- Node42&#45;&gt;Node54 -->
<g id="edge4" class="edge"><title>Node42&#45;&gt;Node54</title>
<path fill="none" stroke="midnightblue" d="M94.9953,-53.5396C113.914,-45.753 138.588,-36.1183 161,-29 171.825,-25.5617 183.673,-22.3557 194.741,-19.5927"/>
<polygon fill="midnightblue" stroke="midnightblue" points="93.5572,-50.347 85.6689,-57.4199 96.2462,-56.8099 93.5572,-50.347"/>
</g>
</g>
</svg>
