<?xml version="1.0" encoding="UTF-8" standalone="no"?>
<!DOCTYPE svg PUBLIC "-//W3C//DTD SVG 1.1//EN"
 "http://www.w3.org/Graphics/SVG/1.1/DTD/svg11.dtd">
<!-- Generated by graphviz version 2.38.0 (20140413.2041)
 -->
<!-- Title: x4driver_set_dac_min Pages: 1 -->
<svg width="305pt" height="66pt"
 viewBox="0.00 0.00 305.00 66.00" xmlns="http://www.w3.org/2000/svg" xmlns:xlink="http://www.w3.org/1999/xlink">
<g id="graph0" class="graph" transform="scale(1 1) rotate(0) translate(4 62)">
<title>x4driver_set_dac_min</title>
<polygon fill="white" stroke="none" points="-4,4 -4,-62 301,-62 301,4 -4,4"/>
<!-- Node728 -->
<g id="node1" class="node"><title>Node728</title>
<polygon fill="#bfbfbf" stroke="black" points="0,-19.5 0,-38.5 121,-38.5 121,-19.5 0,-19.5"/>
<text text-anchor="middle" x="60.5" y="-26.5" font-family="Helvetica,sans-Serif" font-size="10.00">x4driver_set_dac_min</text>
</g>
<!-- Node729 -->
<g id="node2" class="node"><title>Node729</title>
<g id="a_node2"><a xlink:href="x4driver_8c.xhtml#a6d30c9bc074d42ab983535463b8a7a28" target="_top" xlink:title="x4driver_set_dac_auto">
<polygon fill="white" stroke="black" points="164.5,-38.5 164.5,-57.5 289.5,-57.5 289.5,-38.5 164.5,-38.5"/>
<text text-anchor="middle" x="227" y="-45.5" font-family="Helvetica,sans-Serif" font-size="10.00">x4driver_set_dac_auto</text>
</a>
</g>
</g>
<!-- Node728&#45;&gt;Node729 -->
<g id="edge1" class="edge"><title>Node728&#45;&gt;Node729</title>
<path fill="none" stroke="midnightblue" d="M131.302,-37.0623C142.253,-38.327 153.504,-39.6266 164.256,-40.8685"/>
<polygon fill="midnightblue" stroke="midnightblue" points="131.689,-33.5838 121.354,-35.9132 130.886,-40.5375 131.689,-33.5838"/>
</g>
<!-- Node730 -->
<g id="node3" class="node"><title>Node730</title>
<g id="a_node3"><a xlink:href="xep__application__mcp__callbacks_8h.xhtml#abebd47020d9434b11d9e7987924bf4e6" target="_top" xlink:title="onMcpX4DriverSetDacMin">
<polygon fill="white" stroke="red" points="157,-0.5 157,-19.5 297,-19.5 297,-0.5 157,-0.5"/>
<text text-anchor="middle" x="227" y="-7.5" font-family="Helvetica,sans-Serif" font-size="10.00">onMcpX4DriverSetDacMin</text>
</a>
</g>
</g>
<!-- Node728&#45;&gt;Node730 -->
<g id="edge2" class="edge"><title>Node728&#45;&gt;Node730</title>
<path fill="none" stroke="midnightblue" d="M131.527,-20.9117C139.959,-19.9378 148.566,-18.9437 156.984,-17.9715"/>
<polygon fill="midnightblue" stroke="midnightblue" points="130.886,-17.4625 121.354,-22.0868 131.689,-24.4162 130.886,-17.4625"/>
</g>
</g>
</svg>
