<?xml version="1.0" encoding="UTF-8" standalone="no"?>
<!DOCTYPE svg PUBLIC "-//W3C//DTD SVG 1.1//EN"
 "http://www.w3.org/Graphics/SVG/1.1/DTD/svg11.dtd">
<!-- Generated by graphviz version 2.38.0 (20140413.2041)
 -->
<!-- Title: x4driver_get_rx_wait Pages: 1 -->
<svg width="292pt" height="104pt"
 viewBox="0.00 0.00 292.00 104.00" xmlns="http://www.w3.org/2000/svg" xmlns:xlink="http://www.w3.org/1999/xlink">
<g id="graph0" class="graph" transform="scale(1 1) rotate(0) translate(4 100)">
<title>x4driver_get_rx_wait</title>
<polygon fill="white" stroke="none" points="-4,4 -4,-100 288,-100 288,4 -4,4"/>
<!-- Node305 -->
<g id="node1" class="node"><title>Node305</title>
<polygon fill="#bfbfbf" stroke="black" points="0,-38.5 0,-57.5 114,-57.5 114,-38.5 0,-38.5"/>
<text text-anchor="middle" x="57" y="-45.5" font-family="Helvetica,sans-Serif" font-size="10.00">x4driver_get_rx_wait</text>
</g>
<!-- Node306 -->
<g id="node2" class="node"><title>Node306</title>
<g id="a_node2"><a xlink:href="x4driver_8c.xhtml#acee55fcb62077a150f421c3bbf2c2947" target="_top" xlink:title="Utility function to take mutex. ">
<polygon fill="white" stroke="black" points="180,-76.5 180,-95.5 254,-95.5 254,-76.5 180,-76.5"/>
<text text-anchor="middle" x="217" y="-83.5" font-family="Helvetica,sans-Serif" font-size="10.00">mutex_take</text>
</a>
</g>
</g>
<!-- Node305&#45;&gt;Node306 -->
<g id="edge1" class="edge"><title>Node305&#45;&gt;Node306</title>
<path fill="none" stroke="midnightblue" d="M97.8701,-57.589C119.849,-62.8751 147.234,-69.4614 170.102,-74.9612"/>
<polygon fill="midnightblue" stroke="midnightblue" points="169.384,-78.3882 179.925,-77.3237 171.021,-71.5823 169.384,-78.3882"/>
</g>
<!-- Node307 -->
<g id="node3" class="node"><title>Node307</title>
<g id="a_node3"><a xlink:href="x4driver_8c.xhtml#a983024655a1dcd0ad2aa0ec6cb8eb3cb" target="_top" xlink:title="Gets PIF register value. ">
<polygon fill="white" stroke="red" points="150,-38.5 150,-57.5 284,-57.5 284,-38.5 150,-38.5"/>
<text text-anchor="middle" x="217" y="-45.5" font-family="Helvetica,sans-Serif" font-size="10.00">x4driver_get_pif_register</text>
</a>
</g>
</g>
<!-- Node305&#45;&gt;Node307 -->
<g id="edge2" class="edge"><title>Node305&#45;&gt;Node307</title>
<path fill="none" stroke="midnightblue" d="M114.15,-48C122.438,-48 131.092,-48 139.704,-48"/>
<polygon fill="midnightblue" stroke="midnightblue" points="139.77,-51.5001 149.77,-48 139.77,-44.5001 139.77,-51.5001"/>
</g>
<!-- Node309 -->
<g id="node4" class="node"><title>Node309</title>
<g id="a_node4"><a xlink:href="x4driver_8c.xhtml#afb50fddff34b3e2ea353077619cb139e" target="_top" xlink:title="Utility function to give mutex. ">
<polygon fill="white" stroke="black" points="181,-0.5 181,-19.5 253,-19.5 253,-0.5 181,-0.5"/>
<text text-anchor="middle" x="217" y="-7.5" font-family="Helvetica,sans-Serif" font-size="10.00">mutex_give</text>
</a>
</g>
</g>
<!-- Node305&#45;&gt;Node309 -->
<g id="edge3" class="edge"><title>Node305&#45;&gt;Node309</title>
<path fill="none" stroke="midnightblue" d="M97.8701,-38.411C120.168,-33.0483 148.029,-26.3474 171.093,-20.8004"/>
<polygon fill="midnightblue" stroke="midnightblue" points="172.079,-24.1631 180.984,-18.4216 170.442,-17.3571 172.079,-24.1631"/>
</g>
</g>
</svg>
