<?xml version="1.0" encoding="UTF-8" standalone="no"?>
<!DOCTYPE svg PUBLIC "-//W3C//DTD SVG 1.1//EN"
 "http://www.w3.org/Graphics/SVG/1.1/DTD/svg11.dtd">
<!-- Generated by graphviz version 2.38.0 (20140413.2041)
 -->
<!-- Title: push_ldo Pages: 1 -->
<svg width="187pt" height="66pt"
 viewBox="0.00 0.00 187.00 66.00" xmlns="http://www.w3.org/2000/svg" xmlns:xlink="http://www.w3.org/1999/xlink">
<g id="graph0" class="graph" transform="scale(1 1) rotate(0) translate(4 62)">
<title>push_ldo</title>
<polygon fill="white" stroke="none" points="-4,4 -4,-62 183,-62 183,4 -4,4"/>
<!-- Node24 -->
<g id="node1" class="node"><title>Node24</title>
<polygon fill="#bfbfbf" stroke="black" points="0,-19.5 0,-38.5 59,-38.5 59,-19.5 0,-19.5"/>
<text text-anchor="middle" x="29.5" y="-26.5" font-family="Helvetica,sans-Serif" font-size="10.00">push_ldo</text>
</g>
<!-- Node25 -->
<g id="node2" class="node"><title>Node25</title>
<g id="a_node2"><a xlink:href="x4driver__unittest_8cpp.xhtml#a170b8cd8b79babc9e97102e007844290" target="_top" xlink:title="push_pif_write">
<polygon fill="white" stroke="black" points="95,-38.5 95,-57.5 179,-57.5 179,-38.5 95,-38.5"/>
<text text-anchor="middle" x="137" y="-45.5" font-family="Helvetica,sans-Serif" font-size="10.00">push_pif_write</text>
</a>
</g>
</g>
<!-- Node24&#45;&gt;Node25 -->
<g id="edge1" class="edge"><title>Node24&#45;&gt;Node25</title>
<path fill="none" stroke="midnightblue" d="M59.0498,-34.1417C67.0306,-35.579 75.955,-37.1862 84.8201,-38.7828"/>
<polygon fill="midnightblue" stroke="midnightblue" points="84.2885,-42.2433 94.7506,-40.5712 85.5293,-35.3541 84.2885,-42.2433"/>
</g>
<!-- Node26 -->
<g id="node3" class="node"><title>Node26</title>
<g id="a_node3"><a xlink:href="x4driver__unittest_8cpp.xhtml#a1bc050f646470f9b1119b4fa564ec224" target="_top" xlink:title="push_pif_read">
<polygon fill="white" stroke="black" points="95.5,-0.5 95.5,-19.5 178.5,-19.5 178.5,-0.5 95.5,-0.5"/>
<text text-anchor="middle" x="137" y="-7.5" font-family="Helvetica,sans-Serif" font-size="10.00">push_pif_read</text>
</a>
</g>
</g>
<!-- Node24&#45;&gt;Node26 -->
<g id="edge2" class="edge"><title>Node24&#45;&gt;Node26</title>
<path fill="none" stroke="midnightblue" d="M59.0498,-23.8583C67.1193,-22.4051 76.1534,-20.7781 85.1156,-19.164"/>
<polygon fill="midnightblue" stroke="midnightblue" points="85.9271,-22.5743 95.1484,-17.3572 84.6864,-15.6851 85.9271,-22.5743"/>
</g>
</g>
</svg>
