<?xml version="1.0" encoding="UTF-8" standalone="no"?>
<!DOCTYPE svg PUBLIC "-//W3C//DTD SVG 1.1//EN"
 "http://www.w3.org/Graphics/SVG/1.1/DTD/svg11.dtd">
<!-- Generated by graphviz version 2.38.0 (20140413.2041)
 -->
<!-- Title: x4driver_get_dac_step Pages: 1 -->
<svg width="419pt" height="75pt"
 viewBox="0.00 0.00 419.00 75.00" xmlns="http://www.w3.org/2000/svg" xmlns:xlink="http://www.w3.org/1999/xlink">
<g id="graph0" class="graph" transform="scale(1 1) rotate(0) translate(4 71)">
<title>x4driver_get_dac_step</title>
<polygon fill="white" stroke="none" points="-4,4 -4,-71 415,-71 415,4 -4,4"/>
<!-- Node76 -->
<g id="node1" class="node"><title>Node76</title>
<polygon fill="#bfbfbf" stroke="black" points="0,-28.5 0,-47.5 125,-47.5 125,-28.5 0,-28.5"/>
<text text-anchor="middle" x="62.5" y="-35.5" font-family="Helvetica,sans-Serif" font-size="10.00">x4driver_get_dac_step</text>
</g>
<!-- Node77 -->
<g id="node2" class="node"><title>Node77</title>
<g id="a_node2"><a xlink:href="x4driver_8c.xhtml#acee55fcb62077a150f421c3bbf2c2947" target="_top" xlink:title="Utility function to take mutex. ">
<polygon fill="white" stroke="black" points="337,-47.5 337,-66.5 411,-66.5 411,-47.5 337,-47.5"/>
<text text-anchor="middle" x="374" y="-54.5" font-family="Helvetica,sans-Serif" font-size="10.00">mutex_take</text>
</a>
</g>
</g>
<!-- Node76&#45;&gt;Node77 -->
<g id="edge1" class="edge"><title>Node76&#45;&gt;Node77</title>
<path fill="none" stroke="midnightblue" d="M103.094,-47.5104C120.709,-51.2755 141.774,-55.1442 161,-57 217.859,-62.4885 283.697,-61.3221 326.727,-59.5526"/>
<polygon fill="midnightblue" stroke="midnightblue" points="327.051,-63.0419 336.888,-59.1061 326.744,-56.0486 327.051,-63.0419"/>
</g>
<!-- Node78 -->
<g id="node3" class="node"><title>Node78</title>
<g id="a_node3"><a xlink:href="x4driver_8c.xhtml#a7e06b27153667442dbc559ce2cf3d21e" target="_top" xlink:title="Gets a register segment. ">
<polygon fill="white" stroke="red" points="161,-28.5 161,-47.5 301,-47.5 301,-28.5 161,-28.5"/>
<text text-anchor="middle" x="231" y="-35.5" font-family="Helvetica,sans-Serif" font-size="10.00">x4driver_get_pif_segment</text>
</a>
</g>
</g>
<!-- Node76&#45;&gt;Node78 -->
<g id="edge2" class="edge"><title>Node76&#45;&gt;Node78</title>
<path fill="none" stroke="midnightblue" d="M125.025,-38C133.415,-38 142.121,-38 150.768,-38"/>
<polygon fill="midnightblue" stroke="midnightblue" points="150.871,-41.5001 160.871,-38 150.871,-34.5001 150.871,-41.5001"/>
</g>
<!-- Node81 -->
<g id="node4" class="node"><title>Node81</title>
<g id="a_node4"><a xlink:href="x4driver_8c.xhtml#afb50fddff34b3e2ea353077619cb139e" target="_top" xlink:title="Utility function to give mutex. ">
<polygon fill="white" stroke="black" points="338,-0.5 338,-19.5 410,-19.5 410,-0.5 338,-0.5"/>
<text text-anchor="middle" x="374" y="-7.5" font-family="Helvetica,sans-Serif" font-size="10.00">mutex_give</text>
</a>
</g>
</g>
<!-- Node76&#45;&gt;Node81 -->
<g id="edge5" class="edge"><title>Node76&#45;&gt;Node81</title>
<path fill="none" stroke="midnightblue" d="M105.036,-28.4798C122.26,-24.905 142.503,-21.1824 161,-19 218.288,-12.2408 284.812,-10.3831 327.839,-9.95967"/>
<polygon fill="midnightblue" stroke="midnightblue" points="328.011,-13.4586 337.984,-9.88222 327.958,-6.45876 328.011,-13.4586"/>
</g>
<!-- Node78&#45;&gt;Node77 -->
<g id="edge3" class="edge"><title>Node78&#45;&gt;Node77</title>
<path fill="none" stroke="midnightblue" d="M301.261,-47.333C309.879,-48.4944 318.523,-49.6591 326.675,-50.7576"/>
<polygon fill="midnightblue" stroke="midnightblue" points="326.323,-54.2417 336.7,-52.1086 327.257,-47.3044 326.323,-54.2417"/>
</g>
<!-- Node78&#45;&gt;Node81 -->
<g id="edge4" class="edge"><title>Node78&#45;&gt;Node81</title>
<path fill="none" stroke="midnightblue" d="M280.13,-28.4423C295.557,-25.3787 312.579,-21.9986 327.789,-18.978"/>
<polygon fill="midnightblue" stroke="midnightblue" points="328.862,-22.3334 337.989,-16.9525 327.499,-15.4674 328.862,-22.3334"/>
</g>
</g>
</svg>
