<?xml version="1.0" encoding="UTF-8" standalone="no"?>
<!DOCTYPE svg PUBLIC "-//W3C//DTD SVG 1.1//EN"
 "http://www.w3.org/Graphics/SVG/1.1/DTD/svg11.dtd">
<!-- Generated by graphviz version 2.38.0 (20140413.2041)
 -->
<!-- Title: TEST_F Pages: 1 -->
<svg width="187pt" height="218pt"
 viewBox="0.00 0.00 187.00 218.00" xmlns="http://www.w3.org/2000/svg" xmlns:xlink="http://www.w3.org/1999/xlink">
<g id="graph0" class="graph" transform="scale(1 1) rotate(0) translate(4 214)">
<title>TEST_F</title>
<polygon fill="white" stroke="none" points="-4,4 -4,-214 183,-214 183,4 -4,4"/>
<!-- Node84 -->
<g id="node1" class="node"><title>Node84</title>
<polygon fill="#bfbfbf" stroke="black" points="0,-95.5 0,-114.5 50,-114.5 50,-95.5 0,-95.5"/>
<text text-anchor="middle" x="25" y="-102.5" font-family="Helvetica,sans-Serif" font-size="10.00">TEST_F</text>
</g>
<!-- Node85 -->
<g id="node2" class="node"><title>Node85</title>
<g id="a_node2"><a xlink:href="x4driver__unittest_8cpp.xhtml#aed0d42e77dd6bc7411a086aed6eed8d4" target="_top" xlink:title="test_lock">
<polygon fill="white" stroke="black" points="103,-190.5 103,-209.5 162,-209.5 162,-190.5 103,-190.5"/>
<text text-anchor="middle" x="132.5" y="-197.5" font-family="Helvetica,sans-Serif" font-size="10.00">test_lock</text>
</a>
</g>
</g>
<!-- Node84&#45;&gt;Node85 -->
<g id="edge1" class="edge"><title>Node84&#45;&gt;Node85</title>
<path fill="none" stroke="midnightblue" d="M31.4175,-114.7C40.7037,-130.545 61.0899,-162.101 86,-181 88.4445,-182.855 91.0964,-184.562 93.8497,-186.128"/>
<polygon fill="midnightblue" stroke="midnightblue" points="92.3523,-189.292 102.86,-190.651 95.4926,-183.036 92.3523,-189.292"/>
</g>
<!-- Node86 -->
<g id="node3" class="node"><title>Node86</title>
<g id="a_node3"><a xlink:href="x4driver__unittest_8cpp.xhtml#a567d5572537c4401078364d2ff4f8ca2" target="_top" xlink:title="test_unlock">
<polygon fill="white" stroke="black" points="97,-152.5 97,-171.5 168,-171.5 168,-152.5 97,-152.5"/>
<text text-anchor="middle" x="132.5" y="-159.5" font-family="Helvetica,sans-Serif" font-size="10.00">test_unlock</text>
</a>
</g>
</g>
<!-- Node84&#45;&gt;Node86 -->
<g id="edge2" class="edge"><title>Node84&#45;&gt;Node86</title>
<path fill="none" stroke="midnightblue" d="M39.9043,-114.756C51.8157,-122.88 69.5956,-134.458 86,-143 89.571,-144.859 93.3655,-146.677 97.181,-148.405"/>
<polygon fill="midnightblue" stroke="midnightblue" points="96.0263,-151.719 106.593,-152.49 98.8133,-145.298 96.0263,-151.719"/>
</g>
<!-- Node87 -->
<g id="node4" class="node"><title>Node87</title>
<g id="a_node4"><a xlink:href="x4driver__unittest_8cpp.xhtml#aca74c5603b9441a1329a142f6aa0e2b9" target="_top" xlink:title="test_enable_set">
<polygon fill="white" stroke="black" points="86,-114.5 86,-133.5 179,-133.5 179,-114.5 86,-114.5"/>
<text text-anchor="middle" x="132.5" y="-121.5" font-family="Helvetica,sans-Serif" font-size="10.00">test_enable_set</text>
</a>
</g>
</g>
<!-- Node84&#45;&gt;Node87 -->
<g id="edge3" class="edge"><title>Node84&#45;&gt;Node87</title>
<path fill="none" stroke="midnightblue" d="M50.2038,-109.359C57.8946,-110.744 66.7439,-112.338 75.7107,-113.953"/>
<polygon fill="midnightblue" stroke="midnightblue" points="75.3669,-117.447 85.829,-115.775 76.6077,-110.558 75.3669,-117.447"/>
</g>
<!-- Node88 -->
<g id="node5" class="node"><title>Node88</title>
<g id="a_node5"><a xlink:href="x4driver__unittest_8cpp.xhtml#ae2f624d73c2aef14f37123142ded7bc6" target="_top" xlink:title="test_spi_write">
<polygon fill="white" stroke="red" points="91.5,-76.5 91.5,-95.5 173.5,-95.5 173.5,-76.5 91.5,-76.5"/>
<text text-anchor="middle" x="132.5" y="-83.5" font-family="Helvetica,sans-Serif" font-size="10.00">test_spi_write</text>
</a>
</g>
</g>
<!-- Node84&#45;&gt;Node88 -->
<g id="edge4" class="edge"><title>Node84&#45;&gt;Node88</title>
<path fill="none" stroke="midnightblue" d="M50.2038,-100.641C59.5191,-98.9634 70.534,-96.9797 81.3986,-95.023"/>
<polygon fill="midnightblue" stroke="midnightblue" points="82.0598,-98.4603 91.2811,-93.2432 80.819,-91.5711 82.0598,-98.4603"/>
</g>
<!-- Node90 -->
<g id="node6" class="node"><title>Node90</title>
<g id="a_node6"><a xlink:href="x4driver_8h.xhtml#a2e248dc4b2feab14c20a2b5fbfe2b1db" target="_top" xlink:title="Creates x4driver instance. ">
<polygon fill="white" stroke="black" points="87,-38.5 87,-57.5 178,-57.5 178,-38.5 87,-38.5"/>
<text text-anchor="middle" x="132.5" y="-45.5" font-family="Helvetica,sans-Serif" font-size="10.00">x4driver_create</text>
</a>
</g>
</g>
<!-- Node84&#45;&gt;Node90 -->
<g id="edge5" class="edge"><title>Node84&#45;&gt;Node90</title>
<path fill="none" stroke="midnightblue" d="M39.9043,-95.2436C51.8157,-87.1199 69.5956,-75.5418 86,-67 89.571,-65.1406 93.3655,-63.3231 97.181,-61.5949"/>
<polygon fill="midnightblue" stroke="midnightblue" points="98.8133,-64.702 106.593,-57.5099 96.0263,-58.2807 98.8133,-64.702"/>
</g>
<!-- Node91 -->
<g id="node7" class="node"><title>Node91</title>
<g id="a_node7"><a xlink:href="x4driver__unittest_8cpp.xhtml#acfe7478f3817d56df7f3ca0a6019c88b" target="_top" xlink:title="cnt_not_zero">
<polygon fill="white" stroke="black" points="93,-0.5 93,-19.5 172,-19.5 172,-0.5 93,-0.5"/>
<text text-anchor="middle" x="132.5" y="-7.5" font-family="Helvetica,sans-Serif" font-size="10.00">cnt_not_zero</text>
</a>
</g>
</g>
<!-- Node84&#45;&gt;Node91 -->
<g id="edge6" class="edge"><title>Node84&#45;&gt;Node91</title>
<path fill="none" stroke="midnightblue" d="M31.4175,-95.2996C40.7037,-79.4553 61.0899,-47.899 86,-29 88.3017,-27.2538 90.7873,-25.6377 93.3683,-24.1479"/>
<polygon fill="midnightblue" stroke="midnightblue" points="95.0561,-27.2162 102.383,-19.5631 91.8826,-20.9769 95.0561,-27.2162"/>
</g>
</g>
</svg>
