<?xml version="1.0" encoding="UTF-8" standalone="no"?>
<!DOCTYPE svg PUBLIC "-//W3C//DTD SVG 1.1//EN"
 "http://www.w3.org/Graphics/SVG/1.1/DTD/svg11.dtd">
<!-- Generated by graphviz version 2.38.0 (20140413.2041)
 -->
<!-- Title: x4driver_get_calculated_fps Pages: 1 -->
<svg width="267pt" height="66pt"
 viewBox="0.00 0.00 267.00 66.00" xmlns="http://www.w3.org/2000/svg" xmlns:xlink="http://www.w3.org/1999/xlink">
<g id="graph0" class="graph" transform="scale(1 1) rotate(0) translate(4 62)">
<title>x4driver_get_calculated_fps</title>
<polygon fill="white" stroke="none" points="-4,4 -4,-62 263,-62 263,4 -4,4"/>
<!-- Node891 -->
<g id="node1" class="node"><title>Node891</title>
<polygon fill="#bfbfbf" stroke="black" points="0,-19.5 0,-38.5 149,-38.5 149,-19.5 0,-19.5"/>
<text text-anchor="middle" x="74.5" y="-26.5" font-family="Helvetica,sans-Serif" font-size="10.00">x4driver_get_calculated_fps</text>
</g>
<!-- Node892 -->
<g id="node2" class="node"><title>Node892</title>
<g id="a_node2"><a xlink:href="x4driver_8c.xhtml#acee55fcb62077a150f421c3bbf2c2947" target="_top" xlink:title="Utility function to take mutex. ">
<polygon fill="white" stroke="black" points="185,-38.5 185,-57.5 259,-57.5 259,-38.5 185,-38.5"/>
<text text-anchor="middle" x="222" y="-45.5" font-family="Helvetica,sans-Serif" font-size="10.00">mutex_take</text>
</a>
</g>
</g>
<!-- Node891&#45;&gt;Node892 -->
<g id="edge1" class="edge"><title>Node891&#45;&gt;Node892</title>
<path fill="none" stroke="midnightblue" d="M148.676,-38.5557C157.632,-39.7251 166.578,-40.8934 174.973,-41.9897"/>
<polygon fill="midnightblue" stroke="midnightblue" points="174.535,-45.462 184.904,-43.2864 175.441,-38.5209 174.535,-45.462"/>
</g>
<!-- Node893 -->
<g id="node3" class="node"><title>Node893</title>
<g id="a_node3"><a xlink:href="x4driver_8c.xhtml#afb50fddff34b3e2ea353077619cb139e" target="_top" xlink:title="Utility function to give mutex. ">
<polygon fill="white" stroke="black" points="186,-0.5 186,-19.5 258,-19.5 258,-0.5 186,-0.5"/>
<text text-anchor="middle" x="222" y="-7.5" font-family="Helvetica,sans-Serif" font-size="10.00">mutex_give</text>
</a>
</g>
</g>
<!-- Node891&#45;&gt;Node893 -->
<g id="edge2" class="edge"><title>Node891&#45;&gt;Node893</title>
<path fill="none" stroke="midnightblue" d="M148.676,-19.4443C157.833,-18.2486 166.98,-17.0541 175.539,-15.9366"/>
<polygon fill="midnightblue" stroke="midnightblue" points="176.184,-19.3821 185.646,-14.6166 175.277,-12.441 176.184,-19.3821"/>
</g>
</g>
</svg>
