<?xml version="1.0" encoding="UTF-8" standalone="no"?>
<!DOCTYPE svg PUBLIC "-//W3C//DTD SVG 1.1//EN"
 "http://www.w3.org/Graphics/SVG/1.1/DTD/svg11.dtd">
<!-- Generated by graphviz version 2.38.0 (20140413.2041)
 -->
<!-- Title: x4driver_check_configuration Pages: 1 -->
<svg width="670pt" height="306pt"
 viewBox="0.00 0.00 670.00 305.50" xmlns="http://www.w3.org/2000/svg" xmlns:xlink="http://www.w3.org/1999/xlink">
<g id="graph0" class="graph" transform="scale(1 1) rotate(0) translate(4 301.5)">
<title>x4driver_check_configuration</title>
<polygon fill="white" stroke="none" points="-4,4 -4,-301.5 666,-301.5 666,4 -4,4"/>
<!-- Node861 -->
<g id="node1" class="node"><title>Node861</title>
<polygon fill="#bfbfbf" stroke="black" points="0,-145 0,-164 155,-164 155,-145 0,-145"/>
<text text-anchor="middle" x="77.5" y="-152" font-family="Helvetica,sans-Serif" font-size="10.00">x4driver_check_configuration</text>
</g>
<!-- Node862 -->
<g id="node2" class="node"><title>Node862</title>
<g id="a_node2"><a xlink:href="x4driver_8c.xhtml#a3340bd88f713c61192fed4ba6be4789d" target="_top" xlink:title="Gets Iterations. ">
<polygon fill="white" stroke="black" points="359,-278 359,-297 485,-297 485,-278 359,-278"/>
<text text-anchor="middle" x="422" y="-285" font-family="Helvetica,sans-Serif" font-size="10.00">x4driver_get_iterations</text>
</a>
</g>
</g>
<!-- Node861&#45;&gt;Node862 -->
<g id="edge1" class="edge"><title>Node861&#45;&gt;Node862</title>
<path fill="none" stroke="midnightblue" d="M84.9884,-164.23C100.365,-186.369 141.47,-240.376 191,-263.5 240.143,-286.443 301.466,-291.855 348.43,-291.85"/>
<polygon fill="midnightblue" stroke="midnightblue" points="348.556,-295.349 358.526,-291.766 348.497,-288.349 348.556,-295.349"/>
</g>
<!-- Node863 -->
<g id="node3" class="node"><title>Node863</title>
<g id="a_node3"><a xlink:href="x4driver_8c.xhtml#a983024655a1dcd0ad2aa0ec6cb8eb3cb" target="_top" xlink:title="Gets PIF register value. ">
<polygon fill="white" stroke="red" points="528,-126 528,-145 662,-145 662,-126 528,-126"/>
<text text-anchor="middle" x="595" y="-133" font-family="Helvetica,sans-Serif" font-size="10.00">x4driver_get_pif_register</text>
</a>
</g>
</g>
<!-- Node861&#45;&gt;Node863 -->
<g id="edge5" class="edge"><title>Node861&#45;&gt;Node863</title>
<path fill="none" stroke="midnightblue" d="M92.6207,-164.053C113.19,-177.333 153.086,-200.728 191,-209.5 321.543,-239.702 364.111,-232.473 492,-192.5 521.887,-183.158 552.816,-164.359 572.665,-150.903"/>
<polygon fill="midnightblue" stroke="midnightblue" points="574.738,-153.725 580.961,-145.15 570.749,-147.972 574.738,-153.725"/>
</g>
<!-- Node870 -->
<g id="node4" class="node"><title>Node870</title>
<g id="a_node4"><a xlink:href="x4driver_8c.xhtml#a7e06b27153667442dbc559ce2cf3d21e" target="_top" xlink:title="Gets a register segment. ">
<polygon fill="white" stroke="red" points="352,-164 352,-183 492,-183 492,-164 352,-164"/>
<text text-anchor="middle" x="422" y="-171" font-family="Helvetica,sans-Serif" font-size="10.00">x4driver_get_pif_segment</text>
</a>
</g>
</g>
<!-- Node861&#45;&gt;Node870 -->
<g id="edge3" class="edge"><title>Node861&#45;&gt;Node870</title>
<path fill="none" stroke="midnightblue" d="M99.9484,-164.092C122.196,-173.476 158.249,-187.118 191,-192.5 251.775,-202.487 322.493,-193.63 369.3,-184.958"/>
<polygon fill="midnightblue" stroke="midnightblue" points="370.041,-188.379 379.203,-183.059 368.723,-181.504 370.041,-188.379"/>
</g>
<!-- Node871 -->
<g id="node5" class="node"><title>Node871</title>
<g id="a_node5"><a xlink:href="x4driver_8c.xhtml#a7e9fbe4e6bb6059b98b2f57efb92f34b" target="_top" xlink:title="x4driver_get_prf_div">
<polygon fill="white" stroke="black" points="365.5,-126 365.5,-145 478.5,-145 478.5,-126 365.5,-126"/>
<text text-anchor="middle" x="422" y="-133" font-family="Helvetica,sans-Serif" font-size="10.00">x4driver_get_prf_div</text>
</a>
</g>
</g>
<!-- Node861&#45;&gt;Node871 -->
<g id="edge6" class="edge"><title>Node861&#45;&gt;Node871</title>
<path fill="none" stroke="midnightblue" d="M155.364,-150.236C215.553,-146.897 298.364,-142.303 355.446,-139.137"/>
<polygon fill="midnightblue" stroke="midnightblue" points="355.649,-142.631 365.44,-138.582 355.261,-135.642 355.649,-142.631"/>
</g>
<!-- Node872 -->
<g id="node6" class="node"><title>Node872</title>
<g id="a_node6"><a xlink:href="x4driver_8c.xhtml#a032203e8f9460b3b693a5b81fbf1f633" target="_top" xlink:title="x4driver_get_dac_min">
<polygon fill="white" stroke="red" points="361,-88 361,-107 483,-107 483,-88 361,-88"/>
<text text-anchor="middle" x="422" y="-95" font-family="Helvetica,sans-Serif" font-size="10.00">x4driver_get_dac_min</text>
</a>
</g>
</g>
<!-- Node861&#45;&gt;Node872 -->
<g id="edge8" class="edge"><title>Node861&#45;&gt;Node872</title>
<path fill="none" stroke="midnightblue" d="M135.827,-144.959C195.93,-134.957 290.298,-119.252 353.847,-108.676"/>
<polygon fill="midnightblue" stroke="midnightblue" points="354.482,-112.118 363.772,-107.024 353.333,-105.213 354.482,-112.118"/>
</g>
<!-- Node873 -->
<g id="node7" class="node"><title>Node873</title>
<g id="a_node7"><a xlink:href="x4driver_8c.xhtml#ad622f2683a8e728043a68fe0b09c2f07" target="_top" xlink:title="x4driver_get_dac_max">
<polygon fill="white" stroke="red" points="191,-50 191,-69 316,-69 316,-50 191,-50"/>
<text text-anchor="middle" x="253.5" y="-57" font-family="Helvetica,sans-Serif" font-size="10.00">x4driver_get_dac_max</text>
</a>
</g>
</g>
<!-- Node861&#45;&gt;Node873 -->
<g id="edge10" class="edge"><title>Node861&#45;&gt;Node873</title>
<path fill="none" stroke="midnightblue" d="M91.86,-144.881C112.446,-130.338 153.477,-102.444 191,-83.5 198.721,-79.6018 207.235,-75.9162 215.403,-72.6566"/>
<polygon fill="midnightblue" stroke="midnightblue" points="216.698,-75.9084 224.764,-69.0387 214.175,-69.3791 216.698,-75.9084"/>
</g>
<!-- Node874 -->
<g id="node8" class="node"><title>Node874</title>
<g id="a_node8"><a xlink:href="x4driver_8c.xhtml#ac36f9ada592d89010c9ebf3f581a7eff" target="_top" xlink:title="x4driver_get_dac_step">
<polygon fill="white" stroke="red" points="191,-164 191,-183 316,-183 316,-164 191,-164"/>
<text text-anchor="middle" x="253.5" y="-171" font-family="Helvetica,sans-Serif" font-size="10.00">x4driver_get_dac_step</text>
</a>
</g>
</g>
<!-- Node861&#45;&gt;Node874 -->
<g id="edge12" class="edge"><title>Node861&#45;&gt;Node874</title>
<path fill="none" stroke="midnightblue" d="M155.072,-162.861C163.564,-163.789 172.19,-164.73 180.62,-165.651"/>
<polygon fill="midnightblue" stroke="midnightblue" points="180.463,-169.155 190.784,-166.761 181.223,-162.196 180.463,-169.155"/>
</g>
<!-- Node875 -->
<g id="node9" class="node"><title>Node875</title>
<g id="a_node9"><a xlink:href="x4driver_8c.xhtml#a4d5fed456eb330474905ef190733f3a6" target="_top" xlink:title="Gets pulses per step. ">
<polygon fill="white" stroke="red" points="197.5,-0.5 197.5,-30.5 309.5,-30.5 309.5,-0.5 197.5,-0.5"/>
<text text-anchor="start" x="205.5" y="-18.5" font-family="Helvetica,sans-Serif" font-size="10.00">x4driver_get_pulses</text>
<text text-anchor="middle" x="253.5" y="-7.5" font-family="Helvetica,sans-Serif" font-size="10.00">_per_step</text>
</a>
</g>
</g>
<!-- Node861&#45;&gt;Node875 -->
<g id="edge14" class="edge"><title>Node861&#45;&gt;Node875</title>
<path fill="none" stroke="midnightblue" d="M85.6568,-144.957C102.106,-123.598 144.76,-71.3971 191,-40.5 193.866,-38.585 196.902,-36.7762 200.028,-35.075"/>
<polygon fill="midnightblue" stroke="midnightblue" points="201.646,-38.1792 209.015,-30.5666 198.507,-31.9224 201.646,-38.1792"/>
</g>
<!-- Node862&#45;&gt;Node863 -->
<g id="edge2" class="edge"><title>Node862&#45;&gt;Node863</title>
<path fill="none" stroke="midnightblue" d="M462.815,-277.896C472.889,-274.36 483.307,-269.659 492,-263.5 534.127,-233.657 567.835,-181.701 583.854,-154.051"/>
<polygon fill="midnightblue" stroke="midnightblue" points="587.068,-155.479 588.939,-145.051 580.973,-152.036 587.068,-155.479"/>
</g>
<!-- Node870&#45;&gt;Node863 -->
<g id="edge4" class="edge"><title>Node870&#45;&gt;Node863</title>
<path fill="none" stroke="midnightblue" d="M466.151,-163.911C488.919,-158.851 517.048,-152.6 541.119,-147.251"/>
<polygon fill="midnightblue" stroke="midnightblue" points="542.157,-150.606 551.16,-145.02 540.639,-143.773 542.157,-150.606"/>
</g>
<!-- Node871&#45;&gt;Node863 -->
<g id="edge7" class="edge"><title>Node871&#45;&gt;Node863</title>
<path fill="none" stroke="midnightblue" d="M478.519,-135.5C491.03,-135.5 504.523,-135.5 517.719,-135.5"/>
<polygon fill="midnightblue" stroke="midnightblue" points="517.731,-139 527.731,-135.5 517.731,-132 517.731,-139"/>
</g>
<!-- Node872&#45;&gt;Node863 -->
<g id="edge9" class="edge"><title>Node872&#45;&gt;Node863</title>
<path fill="none" stroke="midnightblue" d="M466.151,-107.089C488.919,-112.149 517.048,-118.4 541.119,-123.749"/>
<polygon fill="midnightblue" stroke="midnightblue" points="540.639,-127.227 551.16,-125.98 542.157,-120.394 540.639,-127.227"/>
</g>
<!-- Node873&#45;&gt;Node863 -->
<g id="edge11" class="edge"><title>Node873&#45;&gt;Node863</title>
<path fill="none" stroke="midnightblue" d="M316.358,-57.2931C365.09,-57.2453 434.212,-60.9583 492,-78.5 522.131,-87.6464 553.224,-106.658 573.034,-120.208"/>
<polygon fill="midnightblue" stroke="midnightblue" points="571.099,-123.126 581.298,-125.994 575.114,-117.392 571.099,-123.126"/>
</g>
<!-- Node874&#45;&gt;Node870 -->
<g id="edge13" class="edge"><title>Node874&#45;&gt;Node870</title>
<path fill="none" stroke="midnightblue" d="M316.025,-173.5C324.415,-173.5 333.121,-173.5 341.768,-173.5"/>
<polygon fill="midnightblue" stroke="midnightblue" points="341.871,-177 351.871,-173.5 341.871,-170 341.871,-177"/>
</g>
<!-- Node875&#45;&gt;Node863 -->
<g id="edge15" class="edge"><title>Node875&#45;&gt;Node863</title>
<path fill="none" stroke="midnightblue" d="M309.545,-16.7292C359.169,-19.6206 433.164,-28.4404 492,-54.5 526.554,-69.8047 559.463,-99.6479 578.149,-118.525"/>
<polygon fill="midnightblue" stroke="midnightblue" points="575.782,-121.112 585.25,-125.869 580.815,-116.247 575.782,-121.112"/>
</g>
</g>
</svg>
