<?xml version="1.0" encoding="UTF-8" standalone="no"?>
<!DOCTYPE svg PUBLIC "-//W3C//DTD SVG 1.1//EN"
 "http://www.w3.org/Graphics/SVG/1.1/DTD/svg11.dtd">
<!-- Generated by graphviz version 2.38.0 (20140413.2041)
 -->
<!-- Title: _x4driver_set_internal_register Pages: 1 -->
<svg width="413pt" height="160pt"
 viewBox="0.00 0.00 413.00 160.50" xmlns="http://www.w3.org/2000/svg" xmlns:xlink="http://www.w3.org/1999/xlink">
<g id="graph0" class="graph" transform="scale(1 1) rotate(0) translate(4 156.499)">
<title>_x4driver_set_internal_register</title>
<polygon fill="white" stroke="none" points="-4,4 -4,-156.499 409,-156.499 409,4 -4,4"/>
<!-- Node327 -->
<g id="node1" class="node"><title>Node327</title>
<polygon fill="#bfbfbf" stroke="black" points="0,-71 0,-101 122,-101 122,-71 0,-71"/>
<text text-anchor="start" x="8" y="-89" font-family="Helvetica,sans-Serif" font-size="10.00">_x4driver_set_internal</text>
<text text-anchor="middle" x="61" y="-78" font-family="Helvetica,sans-Serif" font-size="10.00">_register</text>
</g>
<!-- Node328 -->
<g id="node2" class="node"><title>Node328</title>
<g id="a_node2"><a xlink:href="x4driver_8c.xhtml#acee55fcb62077a150f421c3bbf2c2947" target="_top" xlink:title="Utility function to take mutex. ">
<polygon fill="white" stroke="black" points="331,-114.5 331,-133.5 405,-133.5 405,-114.5 331,-114.5"/>
<text text-anchor="middle" x="368" y="-121.5" font-family="Helvetica,sans-Serif" font-size="10.00">mutex_take</text>
</a>
</g>
</g>
<!-- Node327&#45;&gt;Node328 -->
<g id="edge1" class="edge"><title>Node327&#45;&gt;Node328</title>
<path fill="none" stroke="midnightblue" d="M80.4503,-101.1C98.8206,-115.081 128.467,-134.893 158,-143 216.717,-159.118 234.617,-150.833 295,-143 305.881,-141.588 317.462,-139.024 328.082,-136.227"/>
<polygon fill="midnightblue" stroke="midnightblue" points="329.212,-139.546 337.915,-133.504 327.344,-132.8 329.212,-139.546"/>
</g>
<!-- Node329 -->
<g id="node3" class="node"><title>Node329</title>
<g id="a_node3"><a xlink:href="x4driver_8c.xhtml#afb50fddff34b3e2ea353077619cb139e" target="_top" xlink:title="Utility function to give mutex. ">
<polygon fill="white" stroke="black" points="332,-76.5 332,-95.5 404,-95.5 404,-76.5 332,-76.5"/>
<text text-anchor="middle" x="368" y="-83.5" font-family="Helvetica,sans-Serif" font-size="10.00">mutex_give</text>
</a>
</g>
</g>
<!-- Node327&#45;&gt;Node329 -->
<g id="edge2" class="edge"><title>Node327&#45;&gt;Node329</title>
<path fill="none" stroke="midnightblue" d="M122.161,-72.2272C133.981,-70.0508 146.333,-68.1435 158,-67 218.599,-61.0609 234.617,-59.1669 295,-67 305.881,-68.4116 317.462,-70.9757 328.082,-73.7729"/>
<polygon fill="midnightblue" stroke="midnightblue" points="327.344,-77.2001 337.915,-76.4961 329.212,-70.4541 327.344,-77.2001"/>
</g>
<!-- Node330 -->
<g id="node4" class="node"><title>Node330</title>
<g id="a_node4"><a xlink:href="x4driver_8c.xhtml#a696a63c5fe7e11fab1b8864faf6e296c" target="_top" xlink:title="Get SPI register on radar chip. ">
<polygon fill="white" stroke="black" points="158,-76.5 158,-95.5 295,-95.5 295,-76.5 158,-76.5"/>
<text text-anchor="middle" x="226.5" y="-83.5" font-family="Helvetica,sans-Serif" font-size="10.00">x4driver_get_spi_register</text>
</a>
</g>
</g>
<!-- Node327&#45;&gt;Node330 -->
<g id="edge3" class="edge"><title>Node327&#45;&gt;Node330</title>
<path fill="none" stroke="midnightblue" d="M122.417,-86C130.63,-86 139.152,-86 147.619,-86"/>
<polygon fill="midnightblue" stroke="midnightblue" points="147.895,-89.5001 157.895,-86 147.895,-82.5001 147.895,-89.5001"/>
</g>
<!-- Node331 -->
<g id="node5" class="node"><title>Node331</title>
<g id="a_node5"><a xlink:href="x4driver_8c.xhtml#afc5c8996d5d62b17164d322298c195b8" target="_top" xlink:title="utility is bit set function. ">
<polygon fill="white" stroke="black" points="195.5,-0.5 195.5,-19.5 257.5,-19.5 257.5,-0.5 195.5,-0.5"/>
<text text-anchor="middle" x="226.5" y="-7.5" font-family="Helvetica,sans-Serif" font-size="10.00">bit_is_set</text>
</a>
</g>
</g>
<!-- Node327&#45;&gt;Node331 -->
<g id="edge6" class="edge"><title>Node327&#45;&gt;Node331</title>
<path fill="none" stroke="midnightblue" d="M87.1283,-70.9955C106.187,-59.9612 133.24,-45.0281 158,-34 166.938,-30.0189 176.758,-26.2181 186.072,-22.8628"/>
<polygon fill="midnightblue" stroke="midnightblue" points="187.263,-26.1543 195.539,-19.5386 184.944,-19.5497 187.263,-26.1543"/>
</g>
<!-- Node332 -->
<g id="node6" class="node"><title>Node332</title>
<g id="a_node6"><a xlink:href="x4driver_8c.xhtml#a972399a44ab859c55b7a108af64015d3" target="_top" xlink:title="Set SPI register on radar chip. ">
<polygon fill="white" stroke="black" points="158.5,-114.5 158.5,-133.5 294.5,-133.5 294.5,-114.5 158.5,-114.5"/>
<text text-anchor="middle" x="226.5" y="-121.5" font-family="Helvetica,sans-Serif" font-size="10.00">x4driver_set_spi_register</text>
</a>
</g>
</g>
<!-- Node327&#45;&gt;Node332 -->
<g id="edge7" class="edge"><title>Node327&#45;&gt;Node332</title>
<path fill="none" stroke="midnightblue" d="M122.417,-100.042C139.442,-103.999 157.794,-108.264 174.228,-112.084"/>
<polygon fill="midnightblue" stroke="midnightblue" points="173.652,-115.543 184.184,-114.398 175.236,-108.725 173.652,-115.543"/>
</g>
<!-- Node330&#45;&gt;Node328 -->
<g id="edge4" class="edge"><title>Node330&#45;&gt;Node328</title>
<path fill="none" stroke="midnightblue" d="M262.702,-95.589C280.71,-100.494 302.828,-106.52 322.056,-111.757"/>
<polygon fill="midnightblue" stroke="midnightblue" points="321.241,-115.163 331.81,-114.414 323.081,-108.409 321.241,-115.163"/>
</g>
<!-- Node330&#45;&gt;Node329 -->
<g id="edge5" class="edge"><title>Node330&#45;&gt;Node329</title>
<path fill="none" stroke="midnightblue" d="M295.207,-86C304.189,-86 313.216,-86 321.693,-86"/>
<polygon fill="midnightblue" stroke="midnightblue" points="321.718,-89.5001 331.718,-86 321.718,-82.5001 321.718,-89.5001"/>
</g>
<!-- Node332&#45;&gt;Node328 -->
<g id="edge8" class="edge"><title>Node332&#45;&gt;Node328</title>
<path fill="none" stroke="midnightblue" d="M294.798,-124C303.518,-124 312.29,-124 320.566,-124"/>
<polygon fill="midnightblue" stroke="midnightblue" points="320.743,-127.5 330.743,-124 320.743,-120.5 320.743,-127.5"/>
</g>
<!-- Node332&#45;&gt;Node329 -->
<g id="edge9" class="edge"><title>Node332&#45;&gt;Node329</title>
<path fill="none" stroke="midnightblue" d="M262.702,-114.411C280.71,-109.506 302.828,-103.48 322.056,-98.2429"/>
<polygon fill="midnightblue" stroke="midnightblue" points="323.081,-101.591 331.81,-95.5859 321.241,-94.8373 323.081,-101.591"/>
</g>
</g>
</svg>
