<?xml version="1.0" encoding="UTF-8" standalone="no"?>
<!DOCTYPE svg PUBLIC "-//W3C//DTD SVG 1.1//EN"
 "http://www.w3.org/Graphics/SVG/1.1/DTD/svg11.dtd">
<!-- Generated by graphviz version 2.38.0 (20140413.2041)
 -->
<!-- Title: xtio_set_pin_mode Pages: 1 -->
<svg width="284pt" height="192pt"
 viewBox="0.00 0.00 284.00 192.00" xmlns="http://www.w3.org/2000/svg" xmlns:xlink="http://www.w3.org/1999/xlink">
<g id="graph0" class="graph" transform="scale(1 1) rotate(0) translate(4 188)">
<title>xtio_set_pin_mode</title>
<polygon fill="white" stroke="none" points="-4,4 -4,-188 280,-188 280,4 -4,4"/>
<!-- Node249 -->
<g id="node1" class="node"><title>Node249</title>
<polygon fill="#bfbfbf" stroke="black" points="0,-82.5 0,-101.5 107,-101.5 107,-82.5 0,-82.5"/>
<text text-anchor="middle" x="53.5" y="-89.5" font-family="Helvetica,sans-Serif" font-size="10.00">xtio_set_pin_mode</text>
</g>
<!-- Node250 -->
<g id="node2" class="node"><title>Node250</title>
<g id="a_node2"><a xlink:href="radar__hal_8h.xhtml#ad63d969948a6bec2a0c98d02c6296446" target="_top" xlink:title="Initiate Radar HAL. ">
<polygon fill="white" stroke="red" points="169,-164.5 169,-183.5 250,-183.5 250,-164.5 169,-164.5"/>
<text text-anchor="middle" x="209.5" y="-171.5" font-family="Helvetica,sans-Serif" font-size="10.00">radar_hal_init</text>
</a>
</g>
</g>
<!-- Node249&#45;&gt;Node250 -->
<g id="edge1" class="edge"><title>Node249&#45;&gt;Node250</title>
<path fill="none" stroke="midnightblue" d="M73.5276,-108.445C90.6829,-122.536 117.12,-142.483 143,-155 151.101,-158.918 160.165,-162.184 168.906,-164.84"/>
<polygon fill="midnightblue" stroke="midnightblue" points="75.3675,-105.421 65.4547,-101.681 70.8717,-110.786 75.3675,-105.421"/>
</g>
<!-- Node254 -->
<g id="node3" class="node"><title>Node254</title>
<g id="a_node3"><a xlink:href="xt__selftest_8c.xhtml#aec0f2a19f48773ef1f87400fe6838389" target="_top" xlink:title="xt_selftest_io_connector">
<polygon fill="white" stroke="red" points="143,-126.5 143,-145.5 276,-145.5 276,-126.5 143,-126.5"/>
<text text-anchor="middle" x="209.5" y="-133.5" font-family="Helvetica,sans-Serif" font-size="10.00">xt_selftest_io_connector</text>
</a>
</g>
</g>
<!-- Node249&#45;&gt;Node254 -->
<g id="edge2" class="edge"><title>Node249&#45;&gt;Node254</title>
<path fill="none" stroke="midnightblue" d="M97.6942,-104.341C122.222,-111.349 152.461,-119.989 175.15,-126.471"/>
<polygon fill="midnightblue" stroke="midnightblue" points="98.4925,-100.929 87.9157,-101.547 96.5694,-107.66 98.4925,-100.929"/>
</g>
<!-- Node258 -->
<g id="node4" class="node"><title>Node258</title>
<g id="a_node4"><a xlink:href="xt__system_8c.xhtml#a8d576cef4eead3e26b3adf733cd487c2" target="_top" xlink:title="Gets the submode of the module for certification. ">
<polygon fill="white" stroke="red" points="156,-77 156,-107 263,-107 263,-77 156,-77"/>
<text text-anchor="start" x="164" y="-95" font-family="Helvetica,sans-Serif" font-size="10.00">xt_get_certification</text>
<text text-anchor="middle" x="209.5" y="-84" font-family="Helvetica,sans-Serif" font-size="10.00">_submode</text>
</a>
</g>
</g>
<!-- Node249&#45;&gt;Node258 -->
<g id="edge3" class="edge"><title>Node249&#45;&gt;Node258</title>
<path fill="none" stroke="midnightblue" d="M117.223,-92C130.068,-92 143.463,-92 155.908,-92"/>
<polygon fill="midnightblue" stroke="midnightblue" points="117.067,-88.5001 107.067,-92 117.067,-95.5001 117.067,-88.5001"/>
</g>
<!-- Node261 -->
<g id="node5" class="node"><title>Node261</title>
<g id="a_node5"><a xlink:href="xt__system_8c.xhtml#af1f57228b9448df87a3f5f30968b3fa8" target="_top" xlink:title="Gets the operation mode of the module. ">
<polygon fill="white" stroke="red" points="144,-38.5 144,-57.5 275,-57.5 275,-38.5 144,-38.5"/>
<text text-anchor="middle" x="209.5" y="-45.5" font-family="Helvetica,sans-Serif" font-size="10.00">xt_get_operation_mode</text>
</a>
</g>
</g>
<!-- Node249&#45;&gt;Node261 -->
<g id="edge4" class="edge"><title>Node249&#45;&gt;Node261</title>
<path fill="none" stroke="midnightblue" d="M97.6942,-79.6588C122.222,-72.6507 152.461,-64.0112 175.15,-57.5287"/>
<polygon fill="midnightblue" stroke="midnightblue" points="96.5694,-76.34 87.9157,-82.4527 98.4925,-83.0707 96.5694,-76.34"/>
</g>
<!-- Node277 -->
<g id="node6" class="node"><title>Node277</title>
<g id="a_node6"><a xlink:href="task__radar_8c.xhtml#a4fee3ee4025e6d4e8dc667598f8bc27f" target="_top" xlink:title="x4driver_enable_ISR">
<polygon fill="white" stroke="red" points="153,-0.5 153,-19.5 266,-19.5 266,-0.5 153,-0.5"/>
<text text-anchor="middle" x="209.5" y="-7.5" font-family="Helvetica,sans-Serif" font-size="10.00">x4driver_enable_ISR</text>
</a>
</g>
</g>
<!-- Node249&#45;&gt;Node277 -->
<g id="edge5" class="edge"><title>Node249&#45;&gt;Node277</title>
<path fill="none" stroke="midnightblue" d="M73.5276,-75.5548C90.6829,-61.4638 117.12,-41.5171 143,-29 150.675,-25.2882 159.213,-22.1613 167.523,-19.584"/>
<polygon fill="midnightblue" stroke="midnightblue" points="70.8717,-73.214 65.4547,-82.3194 75.3675,-78.5794 70.8717,-73.214"/>
</g>
</g>
</svg>
