<?xml version="1.0" encoding="UTF-8" standalone="no"?>
<!DOCTYPE svg PUBLIC "-//W3C//DTD SVG 1.1//EN"
 "http://www.w3.org/Graphics/SVG/1.1/DTD/svg11.dtd">
<!-- Generated by graphviz version 2.38.0 (20140413.2041)
 -->
<!-- Title: XDMAIF_Get_ChannelNumber Pages: 1 -->
<svg width="370pt" height="484pt"
 viewBox="0.00 0.00 370.00 484.00" xmlns="http://www.w3.org/2000/svg" xmlns:xlink="http://www.w3.org/1999/xlink">
<g id="graph0" class="graph" transform="scale(1 1) rotate(0) translate(4 480)">
<title>XDMAIF_Get_ChannelNumber</title>
<polygon fill="white" stroke="none" points="-4,4 -4,-480 366,-480 366,4 -4,4"/>
<!-- Node2 -->
<g id="node1" class="node"><title>Node2</title>
<polygon fill="#bfbfbf" stroke="black" points="0,-228.5 0,-247.5 158,-247.5 158,-228.5 0,-228.5"/>
<text text-anchor="middle" x="79" y="-235.5" font-family="Helvetica,sans-Serif" font-size="10.00">XDMAIF_Get_ChannelNumber</text>
</g>
<!-- Node3 -->
<g id="node2" class="node"><title>Node3</title>
<g id="a_node2"><a xlink:href="afe__dma_8c.xhtml#a32e626b4b8424ca6836f3bb0b49b58af" target="_top" xlink:title="Configure the DMA source and destination with Linker List mode. ">
<polygon fill="white" stroke="red" points="217,-456.5 217,-475.5 339,-475.5 339,-456.5 217,-456.5"/>
<text text-anchor="middle" x="278" y="-463.5" font-family="Helvetica,sans-Serif" font-size="10.00">_Afe_configureLinkList</text>
</a>
</g>
</g>
<!-- Node2&#45;&gt;Node3 -->
<g id="edge1" class="edge"><title>Node2&#45;&gt;Node3</title>
<path fill="none" stroke="midnightblue" d="M84.8094,-257.536C96.1524,-299.307 128.672,-397.518 194,-447 200.717,-452.088 208.557,-455.851 216.688,-458.629"/>
<polygon fill="midnightblue" stroke="midnightblue" points="88.1725,-256.562 82.2675,-247.765 81.398,-258.324 88.1725,-256.562"/>
</g>
<!-- Node5 -->
<g id="node3" class="node"><title>Node5</title>
<g id="a_node3"><a xlink:href="dac__dma_8c.xhtml#aab4d2b353eabefb15284025801bfa654" target="_top" xlink:title="Configure the DMA source and destination with Linker List mode. ">
<polygon fill="white" stroke="red" points="215.5,-418.5 215.5,-437.5 340.5,-437.5 340.5,-418.5 215.5,-418.5"/>
<text text-anchor="middle" x="278" y="-425.5" font-family="Helvetica,sans-Serif" font-size="10.00">_Dac_configureLinkList</text>
</a>
</g>
</g>
<!-- Node2&#45;&gt;Node5 -->
<g id="edge2" class="edge"><title>Node2&#45;&gt;Node5</title>
<path fill="none" stroke="midnightblue" d="M87.2116,-257.354C101.634,-293.261 137.575,-370.072 194,-409 200.449,-413.449 207.785,-416.87 215.365,-419.499"/>
<polygon fill="midnightblue" stroke="midnightblue" points="90.3105,-255.666 83.4276,-247.611 83.7853,-258.2 90.3105,-255.666"/>
</g>
<!-- Node7 -->
<g id="node4" class="node"><title>Node7</title>
<g id="a_node4"><a xlink:href="group__mcid__functions.xhtml#ga745dbddddd85ddbe2c71a9df4c3e38af" target="_top" xlink:title="HSMCI DMA R/W. ">
<polygon fill="white" stroke="black" points="221.5,-380.5 221.5,-399.5 334.5,-399.5 334.5,-380.5 221.5,-380.5"/>
<text text-anchor="middle" x="278" y="-387.5" font-family="Helvetica,sans-Serif" font-size="10.00">COMPILER_ALIGNED</text>
</a>
</g>
</g>
<!-- Node2&#45;&gt;Node7 -->
<g id="edge3" class="edge"><title>Node2&#45;&gt;Node7</title>
<path fill="none" stroke="midnightblue" d="M90.3091,-256.264C107.724,-285.354 145.828,-341.888 194,-371 202.224,-375.97 211.622,-379.641 221.068,-382.352"/>
<polygon fill="midnightblue" stroke="midnightblue" points="93.2752,-254.403 85.2115,-247.531 87.2296,-257.931 93.2752,-254.403"/>
</g>
<!-- Node8 -->
<g id="node5" class="node"><title>Node8</title>
<g id="a_node5"><a xlink:href="qspi__dma_8c.xhtml#acb08044877face91ecbeb7e562e15260" target="_top" xlink:title="Configures the DMA for QSPI. ">
<polygon fill="white" stroke="red" points="208,-342.5 208,-361.5 348,-361.5 348,-342.5 208,-342.5"/>
<text text-anchor="middle" x="278" y="-349.5" font-family="Helvetica,sans-Serif" font-size="10.00">QSPID_configureQpsiDma</text>
</a>
</g>
</g>
<!-- Node2&#45;&gt;Node8 -->
<g id="edge4" class="edge"><title>Node2&#45;&gt;Node8</title>
<path fill="none" stroke="midnightblue" d="M95.3033,-254.948C115.69,-276.452 153.877,-313.127 194,-333 201.815,-336.871 210.437,-339.967 219.078,-342.44"/>
<polygon fill="midnightblue" stroke="midnightblue" points="97.7665,-252.457 88.3944,-247.516 92.6395,-257.223 97.7665,-252.457"/>
</g>
<!-- Node26 -->
<g id="node6" class="node"><title>Node26</title>
<g id="a_node6"><a xlink:href="spi__dma_8c.xhtml#a493ba599c88332870f21f381a5193055" target="_top" xlink:title="Configure the DMA source and destination with Linker List mode. ">
<polygon fill="white" stroke="red" points="215,-304.5 215,-323.5 341,-323.5 341,-304.5 215,-304.5"/>
<text text-anchor="middle" x="278" y="-311.5" font-family="Helvetica,sans-Serif" font-size="10.00">_spid_configureLinkList</text>
</a>
</g>
</g>
<!-- Node2&#45;&gt;Node26 -->
<g id="edge5" class="edge"><title>Node2&#45;&gt;Node26</title>
<path fill="none" stroke="midnightblue" d="M104.981,-252.675C127.58,-265.414 162.106,-283.562 194,-295 204.297,-298.693 215.576,-301.838 226.409,-304.444"/>
<polygon fill="midnightblue" stroke="midnightblue" points="106.488,-249.505 96.0689,-247.582 103.015,-255.582 106.488,-249.505"/>
</g>
<!-- Node28 -->
<g id="node7" class="node"><title>Node28</title>
<g id="a_node7"><a xlink:href="twid_8c.xhtml#a7ca5a6b66d98ca3e870492fe9d2dc5eb" target="_top" xlink:title="Configure xDMA write linker list for TWI transfer. ">
<polygon fill="white" stroke="red" points="207,-266.5 207,-285.5 349,-285.5 349,-266.5 207,-266.5"/>
<text text-anchor="middle" x="278" y="-273.5" font-family="Helvetica,sans-Serif" font-size="10.00">TWID_XdmaConfigureWrite</text>
</a>
</g>
</g>
<!-- Node2&#45;&gt;Node28 -->
<g id="edge6" class="edge"><title>Node2&#45;&gt;Node28</title>
<path fill="none" stroke="midnightblue" d="M139.564,-249.489C167.672,-254.911 200.822,-261.306 227.523,-266.456"/>
<polygon fill="midnightblue" stroke="midnightblue" points="139.939,-245.997 129.457,-247.54 138.613,-252.871 139.939,-245.997"/>
</g>
<!-- Node30 -->
<g id="node8" class="node"><title>Node30</title>
<g id="a_node8"><a xlink:href="twid_8c.xhtml#a0125a71c25953d95a1e0382402a40ad8" target="_top" xlink:title="Configure xDMA read linker list for TWI transfer. ">
<polygon fill="white" stroke="red" points="207,-228.5 207,-247.5 349,-247.5 349,-228.5 207,-228.5"/>
<text text-anchor="middle" x="278" y="-235.5" font-family="Helvetica,sans-Serif" font-size="10.00">TWID_XdmaConfigureRead</text>
</a>
</g>
</g>
<!-- Node2&#45;&gt;Node30 -->
<g id="edge7" class="edge"><title>Node2&#45;&gt;Node30</title>
<path fill="none" stroke="midnightblue" d="M168.424,-238C181.327,-238 194.464,-238 206.935,-238"/>
<polygon fill="midnightblue" stroke="midnightblue" points="168.143,-234.5 158.143,-238 168.143,-241.5 168.143,-234.5"/>
</g>
<!-- Node32 -->
<g id="node9" class="node"><title>Node32</title>
<g id="a_node9"><a xlink:href="uart__dma_8c.xhtml#a4b0eba333355f3b94f077336b2488a1b" target="_top" xlink:title="Configure the UART Rx DMA mode. ">
<polygon fill="white" stroke="red" points="217,-190.5 217,-209.5 339,-209.5 339,-190.5 217,-190.5"/>
<text text-anchor="middle" x="278" y="-197.5" font-family="Helvetica,sans-Serif" font-size="10.00">_configureUartRxDma</text>
</a>
</g>
</g>
<!-- Node2&#45;&gt;Node32 -->
<g id="edge8" class="edge"><title>Node2&#45;&gt;Node32</title>
<path fill="none" stroke="midnightblue" d="M139.564,-226.511C167.672,-221.089 200.822,-214.694 227.523,-209.544"/>
<polygon fill="midnightblue" stroke="midnightblue" points="138.613,-223.129 129.457,-228.46 139.939,-230.003 138.613,-223.129"/>
</g>
<!-- Node34 -->
<g id="node10" class="node"><title>Node34</title>
<g id="a_node10"><a xlink:href="uart__dma_8c.xhtml#af00fa029eee33daf8645cedf2d8ef930" target="_top" xlink:title="Configure the UART Tx DMA mode. ">
<polygon fill="white" stroke="red" points="217.5,-152.5 217.5,-171.5 338.5,-171.5 338.5,-152.5 217.5,-152.5"/>
<text text-anchor="middle" x="278" y="-159.5" font-family="Helvetica,sans-Serif" font-size="10.00">_configureUartTxDma</text>
</a>
</g>
</g>
<!-- Node2&#45;&gt;Node34 -->
<g id="edge9" class="edge"><title>Node2&#45;&gt;Node34</title>
<path fill="none" stroke="midnightblue" d="M104.981,-223.325C127.58,-210.586 162.106,-192.438 194,-181 204.297,-177.307 215.576,-174.162 226.409,-171.556"/>
<polygon fill="midnightblue" stroke="midnightblue" points="103.015,-220.418 96.0689,-228.418 106.488,-226.495 103.015,-220.418"/>
</g>
<!-- Node36 -->
<g id="node11" class="node"><title>Node36</title>
<g id="a_node11"><a xlink:href="usart__dma_8c.xhtml#a850d3378fd0a34d99a0ce5888a83a8eb" target="_top" xlink:title="Configure the USART Rx DMA Destination with Linker List mode. ">
<polygon fill="white" stroke="red" points="227.5,-114.5 227.5,-133.5 328.5,-133.5 328.5,-114.5 227.5,-114.5"/>
<text text-anchor="middle" x="278" y="-121.5" font-family="Helvetica,sans-Serif" font-size="10.00">_configureRxDma</text>
</a>
</g>
</g>
<!-- Node2&#45;&gt;Node36 -->
<g id="edge10" class="edge"><title>Node2&#45;&gt;Node36</title>
<path fill="none" stroke="midnightblue" d="M95.3033,-221.052C115.69,-199.548 153.877,-162.873 194,-143 204.332,-137.882 216.074,-134.119 227.406,-131.361"/>
<polygon fill="midnightblue" stroke="midnightblue" points="92.6395,-218.777 88.3944,-228.484 97.7665,-223.543 92.6395,-218.777"/>
</g>
<!-- Node38 -->
<g id="node12" class="node"><title>Node38</title>
<g id="a_node12"><a xlink:href="usart__dma_8c.xhtml#a9c980b56e34d2c15f6b0f179b0086313" target="_top" xlink:title="Configure the USART tx DMA source with Linker List mode. ">
<polygon fill="white" stroke="red" points="228,-76.5 228,-95.5 328,-95.5 328,-76.5 228,-76.5"/>
<text text-anchor="middle" x="278" y="-83.5" font-family="Helvetica,sans-Serif" font-size="10.00">_configureTxDma</text>
</a>
</g>
</g>
<!-- Node2&#45;&gt;Node38 -->
<g id="edge11" class="edge"><title>Node2&#45;&gt;Node38</title>
<path fill="none" stroke="midnightblue" d="M90.3091,-219.736C107.724,-190.646 145.828,-134.112 194,-105 204.121,-98.8833 216.022,-94.7341 227.602,-91.92"/>
<polygon fill="midnightblue" stroke="midnightblue" points="87.2296,-218.069 85.2115,-228.469 93.2752,-221.597 87.2296,-218.069"/>
</g>
<!-- Node47 -->
<g id="node13" class="node"><title>Node47</title>
<g id="a_node13"><a xlink:href="group__dmad__functions.xhtml#gaa011b03bf2d60eb61dcf49ce9ad7cfb9" target="_top" xlink:title="Try to allocate a DMA channel for on given controller. ">
<polygon fill="white" stroke="red" points="194,-38.5 194,-57.5 362,-57.5 362,-38.5 194,-38.5"/>
<text text-anchor="middle" x="278" y="-45.5" font-family="Helvetica,sans-Serif" font-size="10.00">XDMAD_AllocateXdmacChannel</text>
</a>
</g>
</g>
<!-- Node2&#45;&gt;Node47 -->
<g id="edge12" class="edge"><title>Node2&#45;&gt;Node47</title>
<path fill="none" stroke="midnightblue" d="M87.2116,-218.646C101.634,-182.739 137.575,-105.928 194,-67 199.597,-63.1385 205.863,-60.0513 212.376,-57.5848"/>
<polygon fill="midnightblue" stroke="midnightblue" points="83.7853,-217.8 83.4276,-228.389 90.3105,-220.334 83.7853,-217.8"/>
</g>
<!-- Node59 -->
<g id="node14" class="node"><title>Node59</title>
<g id="a_node14"><a xlink:href="xtio__uart_8h.xhtml#a8ba86b040c6e35b8df3244e412f2e689" target="_top" xlink:title="xtio_uart_configure">
<polygon fill="white" stroke="red" points="224,-0.5 224,-19.5 332,-19.5 332,-0.5 224,-0.5"/>
<text text-anchor="middle" x="278" y="-7.5" font-family="Helvetica,sans-Serif" font-size="10.00">xtio_uart_configure</text>
</a>
</g>
</g>
<!-- Node2&#45;&gt;Node59 -->
<g id="edge13" class="edge"><title>Node2&#45;&gt;Node59</title>
<path fill="none" stroke="midnightblue" d="M84.8094,-218.464C96.1524,-176.693 128.672,-78.4819 194,-29 202.602,-22.4844 213.047,-18.1398 223.585,-15.2578"/>
<polygon fill="midnightblue" stroke="midnightblue" points="81.398,-217.676 82.2675,-228.235 88.1725,-219.438 81.398,-217.676"/>
</g>
</g>
</svg>
