<?xml version="1.0" encoding="UTF-8" standalone="no"?>
<!DOCTYPE svg PUBLIC "-//W3C//DTD SVG 1.1//EN"
 "http://www.w3.org/Graphics/SVG/1.1/DTD/svg11.dtd">
<!-- Generated by graphviz version 2.38.0 (20140413.2041)
 -->
<!-- Title: src/hal/x4m0x_s70/libraries/libchip/include/xdmad.h Pages: 1 -->
<svg width="178pt" height="95pt"
 viewBox="0.00 0.00 178.00 95.00" xmlns="http://www.w3.org/2000/svg" xmlns:xlink="http://www.w3.org/1999/xlink">
<g id="graph0" class="graph" transform="scale(1 1) rotate(0) translate(4 91)">
<title>src/hal/x4m0x_s70/libraries/libchip/include/xdmad.h</title>
<polygon fill="white" stroke="none" points="-4,4 -4,-91 174,-91 174,4 -4,4"/>
<!-- Node0 -->
<g id="node1" class="node"><title>Node0</title>
<polygon fill="#bfbfbf" stroke="black" points="0,-56.5 0,-86.5 146,-86.5 146,-56.5 0,-56.5"/>
<text text-anchor="start" x="8" y="-74.5" font-family="Helvetica,sans-Serif" font-size="10.00">src/hal/x4m0x_s70/libraries</text>
<text text-anchor="middle" x="73" y="-63.5" font-family="Helvetica,sans-Serif" font-size="10.00">/libchip/include/xdmad.h</text>
</g>
<!-- Node1 -->
<g id="node2" class="node"><title>Node1</title>
<g id="a_node2"><a xlink:href="chip_8h.xhtml" target="_top" xlink:title="chip.h">
<polygon fill="white" stroke="red" points="50.5,-0.5 50.5,-19.5 95.5,-19.5 95.5,-0.5 50.5,-0.5"/>
<text text-anchor="middle" x="73" y="-7.5" font-family="Helvetica,sans-Serif" font-size="10.00">chip.h</text>
</a>
</g>
</g>
<!-- Node0&#45;&gt;Node1 -->
<g id="edge1" class="edge"><title>Node0&#45;&gt;Node1</title>
<path fill="none" stroke="midnightblue" d="M67.1601,-56.3993C66.1301,-48.3772 65.9744,-38.2328 66.6929,-29.569"/>
<polygon fill="midnightblue" stroke="midnightblue" points="70.1604,-30.0445 68.0706,-19.6578 63.2271,-29.0806 70.1604,-30.0445"/>
</g>
<!-- Node11 -->
<g id="node3" class="node"><title>Node11</title>
<polygon fill="white" stroke="#bfbfbf" points="114,-0.5 114,-19.5 170,-19.5 170,-0.5 114,-0.5"/>
<text text-anchor="middle" x="142" y="-7.5" font-family="Helvetica,sans-Serif" font-size="10.00">assert.h</text>
</g>
<!-- Node0&#45;&gt;Node11 -->
<g id="edge3" class="edge"><title>Node0&#45;&gt;Node11</title>
<path fill="none" stroke="midnightblue" d="M89.352,-56.3993C99.8954,-47.3076 113.6,-35.4899 124.384,-26.1909"/>
<polygon fill="midnightblue" stroke="midnightblue" points="126.672,-28.8389 131.96,-19.6578 122.101,-23.5377 126.672,-28.8389"/>
</g>
<!-- Node1&#45;&gt;Node0 -->
<g id="edge2" class="edge"><title>Node1&#45;&gt;Node0</title>
<path fill="none" stroke="midnightblue" d="M77.9294,-19.6578C79.4347,-26.6548 80.0066,-36.857 79.6449,-46.2892"/>
<polygon fill="midnightblue" stroke="midnightblue" points="76.1448,-46.153 78.8399,-56.3993 83.1227,-46.7087 76.1448,-46.153"/>
</g>
</g>
</svg>
