<?xml version="1.0" encoding="UTF-8" standalone="no"?>
<!DOCTYPE svg PUBLIC "-//W3C//DTD SVG 1.1//EN"
 "http://www.w3.org/Graphics/SVG/1.1/DTD/svg11.dtd">
<!-- Generated by graphviz version 2.38.0 (20140413.2041)
 -->
<!-- Title: onMcpX4DriverGetDownconversion Pages: 1 -->
<svg width="386pt" height="127pt"
 viewBox="0.00 0.00 386.00 126.50" xmlns="http://www.w3.org/2000/svg" xmlns:xlink="http://www.w3.org/1999/xlink">
<g id="graph0" class="graph" transform="scale(1 1) rotate(0) translate(4 122.5)">
<title>onMcpX4DriverGetDownconversion</title>
<polygon fill="white" stroke="none" points="-4,4 -4,-122.5 382,-122.5 382,4 -4,4"/>
<!-- Node737 -->
<g id="node1" class="node"><title>Node737</title>
<polygon fill="#bfbfbf" stroke="black" points="0,-55 0,-74 184,-74 184,-55 0,-55"/>
<text text-anchor="middle" x="92" y="-62" font-family="Helvetica,sans-Serif" font-size="10.00">onMcpX4DriverGetDownconversion</text>
</g>
<!-- Node738 -->
<g id="node2" class="node"><title>Node738</title>
<g id="a_node2"><a xlink:href="x4driver_8h.xhtml#afe1979eb3433a5ede494a3bb89eacfaf" target="_top" xlink:title="x4driver_get_downconversion">
<polygon fill="white" stroke="black" points="220,-99 220,-118 378,-118 378,-99 220,-99"/>
<text text-anchor="middle" x="299" y="-106" font-family="Helvetica,sans-Serif" font-size="10.00">x4driver_get_downconversion</text>
</a>
</g>
</g>
<!-- Node737&#45;&gt;Node738 -->
<g id="edge1" class="edge"><title>Node737&#45;&gt;Node738</title>
<path fill="none" stroke="midnightblue" d="M137.482,-74.0473C168.644,-80.7357 210.473,-89.7137 243.619,-96.8279"/>
<polygon fill="midnightblue" stroke="midnightblue" points="243.093,-100.295 253.605,-98.9713 244.562,-93.4506 243.093,-100.295"/>
</g>
<!-- Node739 -->
<g id="node3" class="node"><title>Node739</title>
<g id="a_node3"><a xlink:href="xep__dispatch__messages_8h.xhtml#a22a2633c98e35bd1a0e5fd8687de3adf" target="_top" xlink:title="Dispatch message to hostcom asking to reply with byte array to host. ">
<polygon fill="white" stroke="red" points="222,-49.5 222,-79.5 376,-79.5 376,-49.5 222,-49.5"/>
<text text-anchor="start" x="230" y="-67.5" font-family="Helvetica,sans-Serif" font-size="10.00">dispatch_message_hostcom</text>
<text text-anchor="middle" x="299" y="-56.5" font-family="Helvetica,sans-Serif" font-size="10.00">_send_reply_byte</text>
</a>
</g>
</g>
<!-- Node737&#45;&gt;Node739 -->
<g id="edge2" class="edge"><title>Node737&#45;&gt;Node739</title>
<path fill="none" stroke="midnightblue" d="M184.11,-64.5C193.278,-64.5 202.569,-64.5 211.685,-64.5"/>
<polygon fill="midnightblue" stroke="midnightblue" points="211.886,-68.0001 221.886,-64.5 211.886,-61.0001 211.886,-68.0001"/>
</g>
<!-- Node748 -->
<g id="node4" class="node"><title>Node748</title>
<g id="a_node4"><a xlink:href="xep__dispatch__messages_8h.xhtml#a454af1ebc681b68eaf1995f56aa2e42c" target="_top" xlink:title="Dispatch message to hostcom asking to send error to host. ">
<polygon fill="white" stroke="red" points="222,-0.5 222,-30.5 376,-30.5 376,-0.5 222,-0.5"/>
<text text-anchor="start" x="230" y="-18.5" font-family="Helvetica,sans-Serif" font-size="10.00">dispatch_message_hostcom</text>
<text text-anchor="middle" x="299" y="-7.5" font-family="Helvetica,sans-Serif" font-size="10.00">_send_error</text>
</a>
</g>
</g>
<!-- Node737&#45;&gt;Node748 -->
<g id="edge3" class="edge"><title>Node737&#45;&gt;Node748</title>
<path fill="none" stroke="midnightblue" d="M133.013,-54.936C159.193,-48.6782 194.168,-40.3183 225.178,-32.9063"/>
<polygon fill="midnightblue" stroke="midnightblue" points="226.178,-36.2659 235.09,-30.537 224.551,-29.4577 226.178,-36.2659"/>
</g>
</g>
</svg>
