<?xml version="1.0" encoding="UTF-8" standalone="no"?>
<!DOCTYPE svg PUBLIC "-//W3C//DTD SVG 1.1//EN"
 "http://www.w3.org/Graphics/SVG/1.1/DTD/svg11.dtd">
<!-- Generated by graphviz version 2.38.0 (20140413.2041)
 -->
<!-- Title: include/xep_dispatch_messages.h Pages: 1 -->
<svg width="147pt" height="151pt"
 viewBox="0.00 0.00 146.50 151.00" xmlns="http://www.w3.org/2000/svg" xmlns:xlink="http://www.w3.org/1999/xlink">
<g id="graph0" class="graph" transform="scale(1 1) rotate(0) translate(4 147)">
<title>include/xep_dispatch_messages.h</title>
<polygon fill="white" stroke="none" points="-4,4 -4,-147 142.5,-147 142.5,4 -4,4"/>
<!-- Node0 -->
<g id="node1" class="node"><title>Node0</title>
<polygon fill="#bfbfbf" stroke="black" points="22.5,-112.5 22.5,-142.5 138.5,-142.5 138.5,-112.5 22.5,-112.5"/>
<text text-anchor="start" x="30.5" y="-130.5" font-family="Helvetica,sans-Serif" font-size="10.00">include/xep_dispatch</text>
<text text-anchor="middle" x="80.5" y="-119.5" font-family="Helvetica,sans-Serif" font-size="10.00">_messages.h</text>
</g>
<!-- Node1 -->
<g id="node2" class="node"><title>Node1</title>
<g id="a_node2"><a xlink:href="xep__dispatch_8h.xhtml" target="_top" xlink:title="xep_dispatch.h">
<polygon fill="white" stroke="red" points="0,-56.5 0,-75.5 89,-75.5 89,-56.5 0,-56.5"/>
<text text-anchor="middle" x="44.5" y="-63.5" font-family="Helvetica,sans-Serif" font-size="10.00">xep_dispatch.h</text>
</a>
</g>
</g>
<!-- Node0&#45;&gt;Node1 -->
<g id="edge1" class="edge"><title>Node0&#45;&gt;Node1</title>
<path fill="none" stroke="midnightblue" d="M71.9685,-112.399C66.8991,-104.021 60.4289,-93.3269 55.0416,-84.4229"/>
<polygon fill="midnightblue" stroke="midnightblue" points="57.9096,-82.4018 49.7383,-75.6578 51.9205,-86.0255 57.9096,-82.4018"/>
</g>
<!-- Node2 -->
<g id="node3" class="node"><title>Node2</title>
<polygon fill="white" stroke="#bfbfbf" points="54,-0.5 54,-19.5 107,-19.5 107,-0.5 54,-0.5"/>
<text text-anchor="middle" x="80.5" y="-7.5" font-family="Helvetica,sans-Serif" font-size="10.00">stdint.h</text>
</g>
<!-- Node0&#45;&gt;Node2 -->
<g id="edge3" class="edge"><title>Node0&#45;&gt;Node2</title>
<path fill="none" stroke="midnightblue" d="M87.5212,-112.287C93.6671,-98.1196 101.096,-75.6931 97.5,-56 95.8124,-46.7575 92.325,-36.9479 88.9456,-28.8546"/>
<polygon fill="midnightblue" stroke="midnightblue" points="92.1313,-27.4045 84.8663,-19.6928 85.7365,-30.2518 92.1313,-27.4045"/>
</g>
<!-- Node1&#45;&gt;Node2 -->
<g id="edge2" class="edge"><title>Node1&#45;&gt;Node2</title>
<path fill="none" stroke="midnightblue" d="M50.4447,-56.083C55.4773,-48.5341 62.8368,-37.4948 69.0135,-28.2298"/>
<polygon fill="midnightblue" stroke="midnightblue" points="72.0311,-30.0131 74.6659,-19.7511 66.2067,-26.1301 72.0311,-30.0131"/>
</g>
</g>
</svg>
