<?xml version="1.0" encoding="UTF-8" standalone="no"?>
<!DOCTYPE svg PUBLIC "-//W3C//DTD SVG 1.1//EN"
 "http://www.w3.org/Graphics/SVG/1.1/DTD/svg11.dtd">
<!-- Generated by graphviz version 2.38.0 (20140413.2041)
 -->
<!-- Title: xt_get_operation_mode Pages: 1 -->
<svg width="347pt" height="344pt"
 viewBox="0.00 0.00 347.00 344.00" xmlns="http://www.w3.org/2000/svg" xmlns:xlink="http://www.w3.org/1999/xlink">
<g id="graph0" class="graph" transform="scale(1 1) rotate(0) translate(4 340)">
<title>xt_get_operation_mode</title>
<polygon fill="white" stroke="none" points="-4,4 -4,-340 343,-340 343,4 -4,4"/>
<!-- Node150 -->
<g id="node1" class="node"><title>Node150</title>
<polygon fill="#bfbfbf" stroke="black" points="0,-164.5 0,-183.5 131,-183.5 131,-164.5 0,-164.5"/>
<text text-anchor="middle" x="65.5" y="-171.5" font-family="Helvetica,sans-Serif" font-size="10.00">xt_get_operation_mode</text>
</g>
<!-- Node151 -->
<g id="node2" class="node"><title>Node151</title>
<g id="a_node2"><a xlink:href="board__memories_8h.xhtml#a72c8120eb2a9e06872355e2cb8b7b775" target="_top" xlink:title="BOARD_ConfigureAndTestSdram">
<polygon fill="white" stroke="red" points="167,-316.5 167,-335.5 339,-335.5 339,-316.5 167,-316.5"/>
<text text-anchor="middle" x="253" y="-323.5" font-family="Helvetica,sans-Serif" font-size="10.00">BOARD_ConfigureAndTestSdram</text>
</a>
</g>
</g>
<!-- Node150&#45;&gt;Node151 -->
<g id="edge1" class="edge"><title>Node150&#45;&gt;Node151</title>
<path fill="none" stroke="midnightblue" d="M75.1856,-192.675C89.7963,-221.916 122.153,-278.14 167,-307 172.976,-310.846 179.623,-313.92 186.493,-316.376"/>
<polygon fill="midnightblue" stroke="midnightblue" points="78.2741,-191.022 70.7663,-183.547 71.9736,-194.072 78.2741,-191.022"/>
</g>
<!-- Node153 -->
<g id="node3" class="node"><title>Node153</title>
<g id="a_node3"><a xlink:href="xtio__serial__com_8c.xhtml#ae7ac43c7ce3999faa8c92e43bf0f8fb7" target="_top" xlink:title="_i2c_available">
<polygon fill="white" stroke="red" points="211.5,-278.5 211.5,-297.5 294.5,-297.5 294.5,-278.5 211.5,-278.5"/>
<text text-anchor="middle" x="253" y="-285.5" font-family="Helvetica,sans-Serif" font-size="10.00">_i2c_available</text>
</a>
</g>
</g>
<!-- Node150&#45;&gt;Node153 -->
<g id="edge2" class="edge"><title>Node150&#45;&gt;Node153</title>
<path fill="none" stroke="midnightblue" d="M80.001,-191.611C97.6016,-213.283 130.479,-249.586 167,-269 180.485,-276.169 196.561,-280.638 211.083,-283.423"/>
<polygon fill="midnightblue" stroke="midnightblue" points="82.5812,-189.232 73.6265,-183.569 77.0955,-193.58 82.5812,-189.232"/>
</g>
<!-- Node159 -->
<g id="node4" class="node"><title>Node159</title>
<g id="a_node4"><a xlink:href="xtio__serial__com_8c.xhtml#ac8f411a660584db9578fa744183ed83c" target="_top" xlink:title="_usb_available">
<polygon fill="white" stroke="red" points="210,-240.5 210,-259.5 296,-259.5 296,-240.5 210,-240.5"/>
<text text-anchor="middle" x="253" y="-247.5" font-family="Helvetica,sans-Serif" font-size="10.00">_usb_available</text>
</a>
</g>
</g>
<!-- Node150&#45;&gt;Node159 -->
<g id="edge3" class="edge"><title>Node150&#45;&gt;Node159</title>
<path fill="none" stroke="midnightblue" d="M88.7216,-189.165C108.48,-202.01 138.563,-220.038 167,-231 180.545,-236.221 195.884,-240.198 209.767,-243.13"/>
<polygon fill="midnightblue" stroke="midnightblue" points="90.43,-186.098 80.1587,-183.5 86.568,-191.936 90.43,-186.098"/>
</g>
<!-- Node160 -->
<g id="node5" class="node"><title>Node160</title>
<g id="a_node5"><a xlink:href="xtio__serial__com_8c.xhtml#a6d6778d56cb80ebddd3a1ef33018f798" target="_top" xlink:title="_usb_task_init">
<polygon fill="white" stroke="red" points="211,-202.5 211,-221.5 295,-221.5 295,-202.5 211,-202.5"/>
<text text-anchor="middle" x="253" y="-209.5" font-family="Helvetica,sans-Serif" font-size="10.00">_usb_task_init</text>
</a>
</g>
</g>
<!-- Node150&#45;&gt;Node160 -->
<g id="edge4" class="edge"><title>Node150&#45;&gt;Node160</title>
<path fill="none" stroke="midnightblue" d="M123.455,-185.667C151.702,-191.454 185.18,-198.312 210.889,-203.578"/>
<polygon fill="midnightblue" stroke="midnightblue" points="123.808,-182.167 113.309,-183.589 122.404,-189.025 123.808,-182.167"/>
</g>
<!-- Node161 -->
<g id="node6" class="node"><title>Node161</title>
<g id="a_node6"><a xlink:href="xtio__serial__com_8c.xhtml#a8904ed52c6457d6e9fc7d87adf2d78af" target="_top" xlink:title="_uart_task_init">
<polygon fill="white" stroke="red" points="210,-164.5 210,-183.5 296,-183.5 296,-164.5 210,-164.5"/>
<text text-anchor="middle" x="253" y="-171.5" font-family="Helvetica,sans-Serif" font-size="10.00">_uart_task_init</text>
</a>
</g>
</g>
<!-- Node150&#45;&gt;Node161 -->
<g id="edge5" class="edge"><title>Node150&#45;&gt;Node161</title>
<path fill="none" stroke="midnightblue" d="M141.371,-174C164.745,-174 189.692,-174 209.97,-174"/>
<polygon fill="midnightblue" stroke="midnightblue" points="141.119,-170.5 131.118,-174 141.118,-177.5 141.119,-170.5"/>
</g>
<!-- Node156 -->
<g id="node7" class="node"><title>Node156</title>
<g id="a_node7"><a xlink:href="main_8c.xhtml#a840291bc02cba5474a4cb46a9b9566fe" target="_top" xlink:title="main">
<polygon fill="white" stroke="red" points="232.5,-126.5 232.5,-145.5 273.5,-145.5 273.5,-126.5 232.5,-126.5"/>
<text text-anchor="middle" x="253" y="-133.5" font-family="Helvetica,sans-Serif" font-size="10.00">main</text>
</a>
</g>
</g>
<!-- Node150&#45;&gt;Node156 -->
<g id="edge6" class="edge"><title>Node150&#45;&gt;Node156</title>
<path fill="none" stroke="midnightblue" d="M123.503,-162.323C160.576,-154.728 206.646,-145.291 232.335,-140.028"/>
<polygon fill="midnightblue" stroke="midnightblue" points="122.404,-158.975 113.309,-164.411 123.808,-165.833 122.404,-158.975"/>
</g>
<!-- Node162 -->
<g id="node8" class="node"><title>Node162</title>
<g id="a_node8"><a xlink:href="task__radar_8c.xhtml#ab45564b4bfe2b9814424a084ab9a9859" target="_top" xlink:title="task_radar">
<polygon fill="white" stroke="red" points="219,-88.5 219,-107.5 287,-107.5 287,-88.5 219,-88.5"/>
<text text-anchor="middle" x="253" y="-95.5" font-family="Helvetica,sans-Serif" font-size="10.00">task_radar</text>
</a>
</g>
</g>
<!-- Node150&#45;&gt;Node162 -->
<g id="edge7" class="edge"><title>Node150&#45;&gt;Node162</title>
<path fill="none" stroke="midnightblue" d="M88.7216,-158.835C108.48,-145.99 138.563,-127.962 167,-117 183.508,-110.637 202.681,-106.121 218.635,-103.094"/>
<polygon fill="midnightblue" stroke="midnightblue" points="86.568,-156.064 80.1587,-164.5 90.43,-161.902 86.568,-156.064"/>
</g>
<!-- Node164 -->
<g id="node9" class="node"><title>Node164</title>
<g id="a_node9"><a xlink:href="xthousekeeping_8c.xhtml#ad5a7723fb96e5789fa7ecb2554da3b04" target="_top" xlink:title="xthousekeeping_trigger\l_crashdump">
<polygon fill="white" stroke="red" points="188.5,-39 188.5,-69 317.5,-69 317.5,-39 188.5,-39"/>
<text text-anchor="start" x="196.5" y="-57" font-family="Helvetica,sans-Serif" font-size="10.00">xthousekeeping_trigger</text>
<text text-anchor="middle" x="253" y="-46" font-family="Helvetica,sans-Serif" font-size="10.00">_crashdump</text>
</a>
</g>
</g>
<!-- Node150&#45;&gt;Node164 -->
<g id="edge8" class="edge"><title>Node150&#45;&gt;Node164</title>
<path fill="none" stroke="midnightblue" d="M80.4874,-156.446C98.3725,-135.134 131.324,-99.5054 167,-79 173.668,-75.1674 180.974,-71.8783 188.414,-69.0664"/>
<polygon fill="midnightblue" stroke="midnightblue" points="77.6275,-154.414 73.9852,-164.363 83.0368,-158.857 77.6275,-154.414"/>
</g>
<!-- Node169 -->
<g id="node10" class="node"><title>Node169</title>
<g id="a_node10"><a xlink:href="xep__application_8c.xhtml#a0ba95989f534a0adaa0e258fce6d3a0a" target="_top" xlink:title="task_application">
<polygon fill="white" stroke="red" points="206,-0.5 206,-19.5 300,-19.5 300,-0.5 206,-0.5"/>
<text text-anchor="middle" x="253" y="-7.5" font-family="Helvetica,sans-Serif" font-size="10.00">task_application</text>
</a>
</g>
</g>
<!-- Node150&#45;&gt;Node169 -->
<g id="edge9" class="edge"><title>Node150&#45;&gt;Node169</title>
<path fill="none" stroke="midnightblue" d="M74.2143,-155.171C87.9889,-124.011 119.86,-61.9935 167,-30 178.415,-22.2529 192.455,-17.4863 205.811,-14.5602"/>
<polygon fill="midnightblue" stroke="midnightblue" points="70.9529,-153.896 70.2408,-164.467 77.3896,-156.647 70.9529,-153.896"/>
</g>
</g>
</svg>
