<?xml version="1.0" encoding="UTF-8" standalone="no"?>
<!DOCTYPE svg PUBLIC "-//W3C//DTD SVG 1.1//EN"
 "http://www.w3.org/Graphics/SVG/1.1/DTD/svg11.dtd">
<!-- Generated by graphviz version 2.38.0 (20140413.2041)
 -->
<!-- Title: onMcpX4DriverSetDacMin Pages: 1 -->
<svg width="338pt" height="127pt"
 viewBox="0.00 0.00 338.00 126.50" xmlns="http://www.w3.org/2000/svg" xmlns:xlink="http://www.w3.org/1999/xlink">
<g id="graph0" class="graph" transform="scale(1 1) rotate(0) translate(4 122.5)">
<title>onMcpX4DriverSetDacMin</title>
<polygon fill="white" stroke="none" points="-4,4 -4,-122.5 334,-122.5 334,4 -4,4"/>
<!-- Node1124 -->
<g id="node1" class="node"><title>Node1124</title>
<polygon fill="#bfbfbf" stroke="black" points="0,-55 0,-74 140,-74 140,-55 0,-55"/>
<text text-anchor="middle" x="70" y="-62" font-family="Helvetica,sans-Serif" font-size="10.00">onMcpX4DriverSetDacMin</text>
</g>
<!-- Node1125 -->
<g id="node2" class="node"><title>Node1125</title>
<g id="a_node2"><a xlink:href="x4driver_8h.xhtml#a5b607d8c62783dfffb46c688ec90781e" target="_top" xlink:title="x4driver_set_dac_min">
<polygon fill="white" stroke="red" points="192.5,-99 192.5,-118 313.5,-118 313.5,-99 192.5,-99"/>
<text text-anchor="middle" x="253" y="-106" font-family="Helvetica,sans-Serif" font-size="10.00">x4driver_set_dac_min</text>
</a>
</g>
</g>
<!-- Node1124&#45;&gt;Node1125 -->
<g id="edge1" class="edge"><title>Node1124&#45;&gt;Node1125</title>
<path fill="none" stroke="midnightblue" d="M110.274,-74.0473C137.432,-80.6492 173.766,-89.4819 202.846,-96.551"/>
<polygon fill="midnightblue" stroke="midnightblue" points="202.259,-100.01 212.802,-98.9713 203.912,-93.2081 202.259,-100.01"/>
</g>
<!-- Node1134 -->
<g id="node3" class="node"><title>Node1134</title>
<g id="a_node3"><a xlink:href="xep__dispatch__messages_8h.xhtml#a057fe6f9f6b6da7a806aeaf591500b59" target="_top" xlink:title="Dispatch message to hostcom asking to send ack to host. ">
<polygon fill="white" stroke="red" points="176,-49.5 176,-79.5 330,-79.5 330,-49.5 176,-49.5"/>
<text text-anchor="start" x="184" y="-67.5" font-family="Helvetica,sans-Serif" font-size="10.00">dispatch_message_hostcom</text>
<text text-anchor="middle" x="253" y="-56.5" font-family="Helvetica,sans-Serif" font-size="10.00">_send_ack</text>
</a>
</g>
</g>
<!-- Node1124&#45;&gt;Node1134 -->
<g id="edge2" class="edge"><title>Node1124&#45;&gt;Node1134</title>
<path fill="none" stroke="midnightblue" d="M140.203,-64.5C148.596,-64.5 157.247,-64.5 165.846,-64.5"/>
<polygon fill="midnightblue" stroke="midnightblue" points="165.898,-68.0001 175.898,-64.5 165.898,-61.0001 165.898,-68.0001"/>
</g>
<!-- Node1143 -->
<g id="node4" class="node"><title>Node1143</title>
<g id="a_node4"><a xlink:href="xep__dispatch__messages_8h.xhtml#a454af1ebc681b68eaf1995f56aa2e42c" target="_top" xlink:title="Dispatch message to hostcom asking to send error to host. ">
<polygon fill="white" stroke="red" points="176,-0.5 176,-30.5 330,-30.5 330,-0.5 176,-0.5"/>
<text text-anchor="start" x="184" y="-18.5" font-family="Helvetica,sans-Serif" font-size="10.00">dispatch_message_hostcom</text>
<text text-anchor="middle" x="253" y="-7.5" font-family="Helvetica,sans-Serif" font-size="10.00">_send_error</text>
</a>
</g>
</g>
<!-- Node1124&#45;&gt;Node1143 -->
<g id="edge3" class="edge"><title>Node1124&#45;&gt;Node1143</title>
<path fill="none" stroke="midnightblue" d="M106.328,-54.936C129.143,-48.7595 159.523,-40.5351 186.635,-33.1955"/>
<polygon fill="midnightblue" stroke="midnightblue" points="187.717,-36.5285 196.455,-30.537 185.888,-29.7718 187.717,-36.5285"/>
</g>
</g>
</svg>
