<?xml version="1.0" encoding="UTF-8" standalone="no"?>
<!DOCTYPE svg PUBLIC "-//W3C//DTD SVG 1.1//EN"
 "http://www.w3.org/Graphics/SVG/1.1/DTD/svg11.dtd">
<!-- Generated by graphviz version 2.38.0 (20140413.2041)
 -->
<!-- Title: xtio_set_direction Pages: 1 -->
<svg width="305pt" height="268pt"
 viewBox="0.00 0.00 305.00 268.00" xmlns="http://www.w3.org/2000/svg" xmlns:xlink="http://www.w3.org/1999/xlink">
<g id="graph0" class="graph" transform="scale(1 1) rotate(0) translate(4 264)">
<title>xtio_set_direction</title>
<polygon fill="white" stroke="none" points="-4,4 -4,-264 301,-264 301,4 -4,4"/>
<!-- Node1063 -->
<g id="node1" class="node"><title>Node1063</title>
<polygon fill="#bfbfbf" stroke="black" points="0,-114.5 0,-133.5 101,-133.5 101,-114.5 0,-114.5"/>
<text text-anchor="middle" x="50.5" y="-121.5" font-family="Helvetica,sans-Serif" font-size="10.00">xtio_set_direction</text>
</g>
<!-- Node1064 -->
<g id="node2" class="node"><title>Node1064</title>
<g id="a_node2"><a xlink:href="radar__hal_8h.xhtml#ad63d969948a6bec2a0c98d02c6296446" target="_top" xlink:title="Initiate Radar HAL. ">
<polygon fill="white" stroke="red" points="176.5,-240.5 176.5,-259.5 257.5,-259.5 257.5,-240.5 176.5,-240.5"/>
<text text-anchor="middle" x="217" y="-247.5" font-family="Helvetica,sans-Serif" font-size="10.00">radar_hal_init</text>
</a>
</g>
</g>
<!-- Node1063&#45;&gt;Node1064 -->
<g id="edge1" class="edge"><title>Node1063&#45;&gt;Node1064</title>
<path fill="none" stroke="midnightblue" d="M61.2384,-142.693C74.8543,-166.917 101.904,-208.686 137,-231 148.666,-238.417 162.977,-242.94 176.199,-245.697"/>
<polygon fill="midnightblue" stroke="midnightblue" points="64.2417,-140.889 56.3897,-133.776 58.0921,-144.233 64.2417,-140.889"/>
</g>
<!-- Node1068 -->
<g id="node3" class="node"><title>Node1068</title>
<g id="a_node3"><a xlink:href="xt__selftest_8c.xhtml#aec0f2a19f48773ef1f87400fe6838389" target="_top" xlink:title="xt_selftest_io_connector">
<polygon fill="white" stroke="red" points="150.5,-202.5 150.5,-221.5 283.5,-221.5 283.5,-202.5 150.5,-202.5"/>
<text text-anchor="middle" x="217" y="-209.5" font-family="Helvetica,sans-Serif" font-size="10.00">xt_selftest_io_connector</text>
</a>
</g>
</g>
<!-- Node1063&#45;&gt;Node1068 -->
<g id="edge2" class="edge"><title>Node1063&#45;&gt;Node1068</title>
<path fill="none" stroke="midnightblue" d="M68.0128,-141.135C84.1661,-156.908 110.186,-179.798 137,-193 144.846,-196.863 153.526,-199.97 162.175,-202.459"/>
<polygon fill="midnightblue" stroke="midnightblue" points="70.0558,-138.228 60.5131,-133.625 65.1025,-143.174 70.0558,-138.228"/>
</g>
<!-- Node1072 -->
<g id="node4" class="node"><title>Node1072</title>
<g id="a_node4"><a xlink:href="xt__system_8c.xhtml#a8d576cef4eead3e26b3adf733cd487c2" target="_top" xlink:title="Gets the submode of the module for certification. ">
<polygon fill="white" stroke="red" points="163.5,-153 163.5,-183 270.5,-183 270.5,-153 163.5,-153"/>
<text text-anchor="start" x="171.5" y="-171" font-family="Helvetica,sans-Serif" font-size="10.00">xt_get_certification</text>
<text text-anchor="middle" x="217" y="-160" font-family="Helvetica,sans-Serif" font-size="10.00">_submode</text>
</a>
</g>
</g>
<!-- Node1063&#45;&gt;Node1072 -->
<g id="edge3" class="edge"><title>Node1063&#45;&gt;Node1072</title>
<path fill="none" stroke="midnightblue" d="M96.9325,-136.152C117.463,-141.643 141.849,-148.166 163.189,-153.874"/>
<polygon fill="midnightblue" stroke="midnightblue" points="97.7589,-132.75 87.1941,-133.547 95.95,-139.512 97.7589,-132.75"/>
</g>
<!-- Node1075 -->
<g id="node5" class="node"><title>Node1075</title>
<g id="a_node5"><a xlink:href="xt__system_8c.xhtml#af1f57228b9448df87a3f5f30968b3fa8" target="_top" xlink:title="Gets the operation mode of the module. ">
<polygon fill="white" stroke="red" points="151.5,-114.5 151.5,-133.5 282.5,-133.5 282.5,-114.5 151.5,-114.5"/>
<text text-anchor="middle" x="217" y="-121.5" font-family="Helvetica,sans-Serif" font-size="10.00">xt_get_operation_mode</text>
</a>
</g>
</g>
<!-- Node1063&#45;&gt;Node1075 -->
<g id="edge4" class="edge"><title>Node1063&#45;&gt;Node1075</title>
<path fill="none" stroke="midnightblue" d="M111.522,-124C124.513,-124 138.304,-124 151.46,-124"/>
<polygon fill="midnightblue" stroke="midnightblue" points="111.302,-120.5 101.302,-124 111.302,-127.5 111.302,-120.5"/>
</g>
<!-- Node1091 -->
<g id="node6" class="node"><title>Node1091</title>
<g id="a_node6"><a xlink:href="task__radar_8c.xhtml#a4fee3ee4025e6d4e8dc667598f8bc27f" target="_top" xlink:title="x4driver_enable_ISR">
<polygon fill="white" stroke="red" points="160.5,-76.5 160.5,-95.5 273.5,-95.5 273.5,-76.5 160.5,-76.5"/>
<text text-anchor="middle" x="217" y="-83.5" font-family="Helvetica,sans-Serif" font-size="10.00">x4driver_enable_ISR</text>
</a>
</g>
</g>
<!-- Node1063&#45;&gt;Node1091 -->
<g id="edge5" class="edge"><title>Node1063&#45;&gt;Node1091</title>
<path fill="none" stroke="midnightblue" d="M102.997,-112.104C126.12,-106.763 153.03,-100.546 174.788,-95.5201"/>
<polygon fill="midnightblue" stroke="midnightblue" points="101.966,-108.75 93.0103,-114.411 103.542,-115.57 101.966,-108.75"/>
</g>
<!-- Node1093 -->
<g id="node7" class="node"><title>Node1093</title>
<g id="a_node7"><a xlink:href="task__radar_8c.xhtml#aaf9dce020103065a449faffb7bfdded2" target="_top" xlink:title="_x4driver_test_io_connectivity">
<polygon fill="white" stroke="red" points="137,-38.5 137,-57.5 297,-57.5 297,-38.5 137,-38.5"/>
<text text-anchor="middle" x="217" y="-45.5" font-family="Helvetica,sans-Serif" font-size="10.00">_x4driver_test_io_connectivity</text>
</a>
</g>
</g>
<!-- Node1063&#45;&gt;Node1093 -->
<g id="edge6" class="edge"><title>Node1063&#45;&gt;Node1093</title>
<path fill="none" stroke="midnightblue" d="M70.7666,-108.255C87.3817,-95.4142 112.5,-77.7072 137,-67 145.66,-63.2152 155.199,-60.1101 164.562,-57.5881"/>
<polygon fill="midnightblue" stroke="midnightblue" points="68.5821,-105.52 62.9014,-114.463 72.9192,-111.015 68.5821,-105.52"/>
</g>
<!-- Node1094 -->
<g id="node8" class="node"><title>Node1094</title>
<g id="a_node8"><a xlink:href="xep__application__mcp__callbacks_8h.xhtml#a8850c282d398f5566ab9c2d486e96aeb" target="_top" xlink:title="onMcpSetIOPinControl">
<polygon fill="white" stroke="red" points="155.5,-0.5 155.5,-19.5 278.5,-19.5 278.5,-0.5 155.5,-0.5"/>
<text text-anchor="middle" x="217" y="-7.5" font-family="Helvetica,sans-Serif" font-size="10.00">onMcpSetIOPinControl</text>
</a>
</g>
</g>
<!-- Node1063&#45;&gt;Node1094 -->
<g id="edge7" class="edge"><title>Node1063&#45;&gt;Node1094</title>
<path fill="none" stroke="midnightblue" d="M62.803,-105.854C77.2857,-84.1657 104.448,-48.3803 137,-29 143.545,-25.1032 150.844,-22.005 158.288,-19.5418"/>
<polygon fill="midnightblue" stroke="midnightblue" points="59.7293,-104.161 57.2302,-114.457 65.6044,-107.967 59.7293,-104.161"/>
</g>
</g>
</svg>
