<?xml version="1.0" encoding="UTF-8" standalone="no"?>
<!DOCTYPE svg PUBLIC "-//W3C//DTD SVG 1.1//EN"
 "http://www.w3.org/Graphics/SVG/1.1/DTD/svg11.dtd">
<!-- Generated by graphviz version 2.38.0 (20140413.2041)
 -->
<!-- Title: src/XEPA/xep_application.c Pages: 1 -->
<svg width="1727pt" height="151pt"
 viewBox="0.00 0.00 1727.00 151.00" xmlns="http://www.w3.org/2000/svg" xmlns:xlink="http://www.w3.org/1999/xlink">
<g id="graph0" class="graph" transform="scale(1 1) rotate(0) translate(4 147)">
<title>src/XEPA/xep_application.c</title>
<polygon fill="white" stroke="none" points="-4,4 -4,-147 1723,-147 1723,4 -4,4"/>
<!-- Node0 -->
<g id="node1" class="node"><title>Node0</title>
<polygon fill="#bfbfbf" stroke="black" points="817.5,-123.5 817.5,-142.5 960.5,-142.5 960.5,-123.5 817.5,-123.5"/>
<text text-anchor="middle" x="889" y="-130.5" font-family="Helvetica,sans-Serif" font-size="10.00">src/XEPA/xep_application.c</text>
</g>
<!-- Node1 -->
<g id="node2" class="node"><title>Node1</title>
<g id="a_node2"><a xlink:href="xep__application_8h.xhtml" target="_top" xlink:title="XEP Module application interface. ">
<polygon fill="white" stroke="red" points="0,-62 0,-81 100,-81 100,-62 0,-62"/>
<text text-anchor="middle" x="50" y="-69" font-family="Helvetica,sans-Serif" font-size="10.00">xep_application.h</text>
</a>
</g>
</g>
<!-- Node0&#45;&gt;Node1 -->
<g id="edge1" class="edge"><title>Node0&#45;&gt;Node1</title>
<path fill="none" stroke="midnightblue" d="M817.301,-132.24C679.344,-131.736 367.709,-125.917 109,-87 102.771,-86.063 96.2376,-84.7741 89.8806,-83.3485"/>
<polygon fill="midnightblue" stroke="midnightblue" points="90.6437,-79.9324 80.1055,-81.0266 89.026,-86.7429 90.6437,-79.9324"/>
</g>
<!-- Node8 -->
<g id="node3" class="node"><title>Node8</title>
<polygon fill="white" stroke="#bfbfbf" points="118.5,-62 118.5,-81 167.5,-81 167.5,-62 118.5,-62"/>
<text text-anchor="middle" x="143" y="-69" font-family="Helvetica,sans-Serif" font-size="10.00">stdio.h</text>
</g>
<!-- Node0&#45;&gt;Node8 -->
<g id="edge2" class="edge"><title>Node0&#45;&gt;Node8</title>
<path fill="none" stroke="midnightblue" d="M817.414,-130.657C661.614,-127.217 296.143,-116.212 176,-87 173.64,-86.4262 171.237,-85.693 168.858,-84.8621"/>
<polygon fill="midnightblue" stroke="midnightblue" points="169.974,-81.5382 159.39,-81.0533 167.361,-88.0325 169.974,-81.5382"/>
</g>
<!-- Node9 -->
<g id="node4" class="node"><title>Node9</title>
<polygon fill="white" stroke="#bfbfbf" points="185.5,-62 185.5,-81 256.5,-81 256.5,-62 185.5,-62"/>
<text text-anchor="middle" x="221" y="-69" font-family="Helvetica,sans-Serif" font-size="10.00">FreeRTOS.h</text>
</g>
<!-- Node0&#45;&gt;Node9 -->
<g id="edge3" class="edge"><title>Node0&#45;&gt;Node9</title>
<path fill="none" stroke="midnightblue" d="M817.263,-132.366C700.587,-131.725 462.934,-125.265 266,-87 262.034,-86.2294 257.93,-85.2192 253.887,-84.0899"/>
<polygon fill="midnightblue" stroke="midnightblue" points="254.664,-80.6678 244.078,-81.1063 252.627,-87.3649 254.664,-80.6678"/>
</g>
<!-- Node10 -->
<g id="node5" class="node"><title>Node10</title>
<polygon fill="white" stroke="#bfbfbf" points="275,-62 275,-81 321,-81 321,-62 275,-62"/>
<text text-anchor="middle" x="298" y="-69" font-family="Helvetica,sans-Serif" font-size="10.00">task.h</text>
</g>
<!-- Node0&#45;&gt;Node10 -->
<g id="edge4" class="edge"><title>Node0&#45;&gt;Node10</title>
<path fill="none" stroke="midnightblue" d="M817.36,-129.301C687.934,-123.917 420.201,-110.31 330,-87 327.841,-86.442 325.646,-85.7477 323.469,-84.9673"/>
<polygon fill="midnightblue" stroke="midnightblue" points="324.791,-81.7265 314.212,-81.1512 322.123,-88.1982 324.791,-81.7265"/>
</g>
<!-- Node11 -->
<g id="node6" class="node"><title>Node11</title>
<polygon fill="white" stroke="#bfbfbf" points="339,-62 339,-81 395,-81 395,-62 339,-62"/>
<text text-anchor="middle" x="367" y="-69" font-family="Helvetica,sans-Serif" font-size="10.00">queue.h</text>
</g>
<!-- Node0&#45;&gt;Node11 -->
<g id="edge5" class="edge"><title>Node0&#45;&gt;Node11</title>
<path fill="none" stroke="midnightblue" d="M817.306,-131.598C721.757,-129.652 547.986,-121.171 404,-87 401.168,-86.3279 398.265,-85.4836 395.39,-84.542"/>
<polygon fill="midnightblue" stroke="midnightblue" points="396.469,-81.2101 385.875,-81.0751 394.073,-87.7871 396.469,-81.2101"/>
</g>
<!-- Node12 -->
<g id="node7" class="node"><title>Node12</title>
<g id="a_node7"><a xlink:href="xtcompiler_8h.xhtml" target="_top" xlink:title="xtcompiler.h">
<polygon fill="white" stroke="black" points="412.5,-62 412.5,-81 487.5,-81 487.5,-62 412.5,-62"/>
<text text-anchor="middle" x="450" y="-69" font-family="Helvetica,sans-Serif" font-size="10.00">xtcompiler.h</text>
</a>
</g>
</g>
<!-- Node0&#45;&gt;Node12 -->
<g id="edge6" class="edge"><title>Node0&#45;&gt;Node12</title>
<path fill="none" stroke="midnightblue" d="M817.191,-127.755C738.093,-122.155 607.454,-110.17 497,-87 492.863,-86.1322 488.569,-85.0579 484.333,-83.8893"/>
<polygon fill="midnightblue" stroke="midnightblue" points="485.236,-80.507 474.655,-81.0446 483.262,-87.2228 485.236,-80.507"/>
</g>
<!-- Node13 -->
<g id="node8" class="node"><title>Node13</title>
<polygon fill="white" stroke="#bfbfbf" points="505.5,-62 505.5,-81 570.5,-81 570.5,-62 505.5,-62"/>
<text text-anchor="middle" x="538" y="-69" font-family="Helvetica,sans-Serif" font-size="10.00">protocol.h</text>
</g>
<!-- Node0&#45;&gt;Node13 -->
<g id="edge7" class="edge"><title>Node0&#45;&gt;Node13</title>
<path fill="none" stroke="midnightblue" d="M817.398,-125.426C754.3,-118.723 660.201,-106.501 580,-87 576.777,-86.2163 573.452,-85.2868 570.149,-84.2825"/>
<polygon fill="midnightblue" stroke="midnightblue" points="571.029,-80.8882 560.437,-81.1167 568.86,-87.5436 571.029,-80.8882"/>
</g>
<!-- Node14 -->
<g id="node9" class="node"><title>Node14</title>
<g id="a_node9"><a xlink:href="xep__dispatch__messages_8h.xhtml" target="_top" xlink:title="xep_dispatch_messages.h">
<polygon fill="white" stroke="red" points="588.5,-62 588.5,-81 731.5,-81 731.5,-62 588.5,-62"/>
<text text-anchor="middle" x="660" y="-69" font-family="Helvetica,sans-Serif" font-size="10.00">xep_dispatch_messages.h</text>
</a>
</g>
</g>
<!-- Node0&#45;&gt;Node14 -->
<g id="edge8" class="edge"><title>Node0&#45;&gt;Node14</title>
<path fill="none" stroke="midnightblue" d="M856.19,-123.475C815.803,-112.982 747.123,-95.1367 702.671,-83.587"/>
<polygon fill="midnightblue" stroke="midnightblue" points="703.308,-80.1364 692.749,-81.0091 701.548,-86.9114 703.308,-80.1364"/>
</g>
<!-- Node15 -->
<g id="node10" class="node"><title>Node15</title>
<g id="a_node10"><a xlink:href="module__ui_8h.xhtml" target="_top" xlink:title="module_ui.h">
<polygon fill="white" stroke="red" points="749.5,-62 749.5,-81 824.5,-81 824.5,-62 749.5,-62"/>
<text text-anchor="middle" x="787" y="-69" font-family="Helvetica,sans-Serif" font-size="10.00">module_ui.h</text>
</a>
</g>
</g>
<!-- Node0&#45;&gt;Node15 -->
<g id="edge9" class="edge"><title>Node0&#45;&gt;Node15</title>
<path fill="none" stroke="midnightblue" d="M874.386,-123.475C857.647,-113.711 829.996,-97.5807 810.281,-86.0808"/>
<polygon fill="midnightblue" stroke="midnightblue" points="811.988,-83.0246 801.587,-81.0091 808.461,-89.0711 811.988,-83.0246"/>
</g>
<!-- Node17 -->
<g id="node11" class="node"><title>Node17</title>
<g id="a_node11"><a xlink:href="xep_8h.xhtml" target="_top" xlink:title="XEP interface. ">
<polygon fill="white" stroke="red" points="842.5,-62 842.5,-81 885.5,-81 885.5,-62 842.5,-62"/>
<text text-anchor="middle" x="864" y="-69" font-family="Helvetica,sans-Serif" font-size="10.00">xep.h</text>
</a>
</g>
</g>
<!-- Node0&#45;&gt;Node17 -->
<g id="edge10" class="edge"><title>Node0&#45;&gt;Node17</title>
<path fill="none" stroke="midnightblue" d="M885.418,-123.475C881.817,-114.904 876.154,-101.427 871.556,-90.483"/>
<polygon fill="midnightblue" stroke="midnightblue" points="874.676,-88.8726 867.575,-81.0091 868.222,-91.5842 874.676,-88.8726"/>
</g>
<!-- Node18 -->
<g id="node12" class="node"><title>Node18</title>
<polygon fill="white" stroke="#bfbfbf" points="839,-0.5 839,-19.5 939,-19.5 939,-0.5 839,-0.5"/>
<text text-anchor="middle" x="889" y="-7.5" font-family="Helvetica,sans-Serif" font-size="10.00">protocol_parser.h</text>
</g>
<!-- Node0&#45;&gt;Node18 -->
<g id="edge14" class="edge"><title>Node0&#45;&gt;Node18</title>
<path fill="none" stroke="midnightblue" d="M890.491,-123.407C891.976,-114.376 894.154,-99.7402 895,-87 895.912,-73.2525 895.912,-69.7475 895,-56 894.425,-47.3406 893.235,-37.8054 892.065,-29.7496"/>
<polygon fill="midnightblue" stroke="midnightblue" points="895.481,-28.9388 890.491,-19.5928 888.564,-30.0109 895.481,-28.9388"/>
</g>
<!-- Node19 -->
<g id="node13" class="node"><title>Node19</title>
<g id="a_node13"><a xlink:href="xep__hal_8h.xhtml" target="_top" xlink:title="Brief description. ">
<polygon fill="white" stroke="red" points="1100,-0.5 1100,-19.5 1162,-19.5 1162,-0.5 1100,-0.5"/>
<text text-anchor="middle" x="1131" y="-7.5" font-family="Helvetica,sans-Serif" font-size="10.00">xep_hal.h</text>
</a>
</g>
</g>
<!-- Node0&#45;&gt;Node19 -->
<g id="edge12" class="edge"><title>Node0&#45;&gt;Node19</title>
<path fill="none" stroke="midnightblue" d="M895.92,-123.295C908.931,-107.51 938.659,-74.1246 971,-56 1008.41,-35.0337 1056.31,-23.2445 1089.91,-17.0434"/>
<polygon fill="midnightblue" stroke="midnightblue" points="1090.61,-20.4742 1099.85,-15.2943 1089.4,-13.5801 1090.61,-20.4742"/>
</g>
<!-- Node20 -->
<g id="node14" class="node"><title>Node20</title>
<g id="a_node14"><a xlink:href="xtmemory_8h.xhtml" target="_top" xlink:title="Platform independent mutex mechanism. ">
<polygon fill="white" stroke="red" points="980,-62 980,-81 1054,-81 1054,-62 980,-62"/>
<text text-anchor="middle" x="1017" y="-69" font-family="Helvetica,sans-Serif" font-size="10.00">xtmemory.h</text>
</a>
</g>
</g>
<!-- Node0&#45;&gt;Node20 -->
<g id="edge13" class="edge"><title>Node0&#45;&gt;Node20</title>
<path fill="none" stroke="midnightblue" d="M907.339,-123.475C928.821,-113.49 964.622,-96.8476 989.448,-85.3075"/>
<polygon fill="midnightblue" stroke="midnightblue" points="991.102,-88.3983 998.695,-81.0091 988.151,-82.0506 991.102,-88.3983"/>
</g>
<!-- Node21 -->
<g id="node15" class="node"><title>Node21</title>
<g id="a_node15"><a xlink:href="xep__application__mcp__callbacks_8h.xhtml" target="_top" xlink:title="XEP Module application interface. ">
<polygon fill="white" stroke="red" points="1072.5,-56.5 1072.5,-86.5 1189.5,-86.5 1189.5,-56.5 1072.5,-56.5"/>
<text text-anchor="start" x="1080.5" y="-74.5" font-family="Helvetica,sans-Serif" font-size="10.00">xep_application_mcp</text>
<text text-anchor="middle" x="1131" y="-63.5" font-family="Helvetica,sans-Serif" font-size="10.00">_callbacks.h</text>
</a>
</g>
</g>
<!-- Node0&#45;&gt;Node21 -->
<g id="edge15" class="edge"><title>Node0&#45;&gt;Node21</title>
<path fill="none" stroke="midnightblue" d="M923.673,-123.475C960.201,-114.494 1018.63,-100.128 1064.16,-88.9328"/>
<polygon fill="midnightblue" stroke="midnightblue" points="1065.09,-92.3094 1073.97,-86.523 1063.42,-85.5118 1065.09,-92.3094"/>
</g>
<!-- Node22 -->
<g id="node16" class="node"><title>Node22</title>
<polygon fill="white" stroke="#bfbfbf" points="1207.5,-62 1207.5,-81 1260.5,-81 1260.5,-62 1207.5,-62"/>
<text text-anchor="middle" x="1234" y="-69" font-family="Helvetica,sans-Serif" font-size="10.00">string.h</text>
</g>
<!-- Node0&#45;&gt;Node22 -->
<g id="edge17" class="edge"><title>Node0&#45;&gt;Node22</title>
<path fill="none" stroke="midnightblue" d="M960.518,-126.697C1024.02,-120.795 1118.9,-109.034 1199,-87 1201.44,-86.3283 1203.94,-85.5308 1206.42,-84.6603"/>
<polygon fill="midnightblue" stroke="midnightblue" points="1207.7,-87.9182 1215.77,-81.0543 1205.18,-81.3871 1207.7,-87.9182"/>
</g>
<!-- Node23 -->
<g id="node17" class="node"><title>Node23</title>
<g id="a_node17"><a xlink:href="xttoolbox_8h.xhtml" target="_top" xlink:title="Misc tools. ">
<polygon fill="white" stroke="red" points="1279,-62 1279,-81 1349,-81 1349,-62 1279,-62"/>
<text text-anchor="middle" x="1314" y="-69" font-family="Helvetica,sans-Serif" font-size="10.00">xttoolbox.h</text>
</a>
</g>
</g>
<!-- Node0&#45;&gt;Node23 -->
<g id="edge18" class="edge"><title>Node0&#45;&gt;Node23</title>
<path fill="none" stroke="midnightblue" d="M960.637,-127.843C1037.75,-122.372 1163.68,-110.547 1270,-87 1273.67,-86.187 1277.47,-85.1873 1281.22,-84.0963"/>
<polygon fill="midnightblue" stroke="midnightblue" points="1282.45,-87.3809 1290.95,-81.0605 1280.36,-80.6988 1282.45,-87.3809"/>
</g>
<!-- Node24 -->
<g id="node18" class="node"><title>Node24</title>
<g id="a_node18"><a xlink:href="version_8h.xhtml" target="_top" xlink:title="version.h">
<polygon fill="white" stroke="red" points="1367,-62 1367,-81 1427,-81 1427,-62 1367,-62"/>
<text text-anchor="middle" x="1397" y="-69" font-family="Helvetica,sans-Serif" font-size="10.00">version.h</text>
</a>
</g>
</g>
<!-- Node0&#45;&gt;Node24 -->
<g id="edge19" class="edge"><title>Node0&#45;&gt;Node24</title>
<path fill="none" stroke="midnightblue" d="M960.636,-130.892C1053.43,-128.149 1219.68,-118.775 1358,-87 1361.07,-86.2949 1364.22,-85.4095 1367.35,-84.4257"/>
<polygon fill="midnightblue" stroke="midnightblue" points="1368.77,-87.637 1377.06,-81.0476 1366.47,-81.0251 1368.77,-87.637"/>
</g>
<!-- Node26 -->
<g id="node19" class="node"><title>Node26</title>
<g id="a_node19"><a xlink:href="task__monitor_8h.xhtml" target="_top" xlink:title="System monitor task. ">
<polygon fill="white" stroke="red" points="1445,-62 1445,-81 1533,-81 1533,-62 1445,-62"/>
<text text-anchor="middle" x="1489" y="-69" font-family="Helvetica,sans-Serif" font-size="10.00">task_monitor.h</text>
</a>
</g>
</g>
<!-- Node0&#45;&gt;Node26 -->
<g id="edge20" class="edge"><title>Node0&#45;&gt;Node26</title>
<path fill="none" stroke="midnightblue" d="M960.782,-130.319C1065.84,-126.906 1267.33,-116.747 1436,-87 1441.15,-86.0913 1446.53,-84.9065 1451.8,-83.6055"/>
<polygon fill="midnightblue" stroke="midnightblue" points="1452.93,-86.9277 1461.71,-81.0027 1451.15,-80.1573 1452.93,-86.9277"/>
</g>
<!-- Node27 -->
<g id="node20" class="node"><title>Node27</title>
<g id="a_node20"><a xlink:href="xthousekeeping_8h.xhtml" target="_top" xlink:title="xthousekeeping.h">
<polygon fill="white" stroke="red" points="1551.5,-62 1551.5,-81 1652.5,-81 1652.5,-62 1551.5,-62"/>
<text text-anchor="middle" x="1602" y="-69" font-family="Helvetica,sans-Serif" font-size="10.00">xthousekeeping.h</text>
</a>
</g>
</g>
<!-- Node0&#45;&gt;Node27 -->
<g id="edge21" class="edge"><title>Node0&#45;&gt;Node27</title>
<path fill="none" stroke="midnightblue" d="M960.94,-130.991C1081.7,-128.416 1332.54,-119.291 1542,-87 1548.26,-86.0356 1554.82,-84.7444 1561.21,-83.3285"/>
<polygon fill="midnightblue" stroke="midnightblue" points="1562.12,-86.7122 1571.06,-81.03 1560.52,-79.8956 1562.12,-86.7122"/>
</g>
<!-- Node28 -->
<g id="node21" class="node"><title>Node28</title>
<g id="a_node21"><a xlink:href="xtfile_8h.xhtml" target="_top" xlink:title="xtfile.h">
<polygon fill="white" stroke="red" points="1671,-62 1671,-81 1719,-81 1719,-62 1671,-62"/>
<text text-anchor="middle" x="1695" y="-69" font-family="Helvetica,sans-Serif" font-size="10.00">xtfile.h</text>
</a>
</g>
</g>
<!-- Node0&#45;&gt;Node28 -->
<g id="edge23" class="edge"><title>Node0&#45;&gt;Node28</title>
<path fill="none" stroke="midnightblue" d="M960.666,-131.067C1126.03,-128.391 1530.16,-118.716 1662,-87 1664.36,-86.4319 1666.77,-85.7028 1669.14,-84.8745"/>
<polygon fill="midnightblue" stroke="midnightblue" points="1670.64,-88.0458 1678.61,-81.0701 1668.03,-81.5504 1670.64,-88.0458"/>
</g>
<!-- Node17&#45;&gt;Node18 -->
<g id="edge11" class="edge"><title>Node17&#45;&gt;Node18</title>
<path fill="none" stroke="midnightblue" d="M867.582,-61.9751C871.183,-53.4035 876.846,-39.9269 881.444,-28.983"/>
<polygon fill="midnightblue" stroke="midnightblue" points="884.778,-30.0842 885.425,-19.5091 878.324,-27.3726 884.778,-30.0842"/>
</g>
<!-- Node21&#45;&gt;Node19 -->
<g id="edge16" class="edge"><title>Node21&#45;&gt;Node19</title>
<path fill="none" stroke="midnightblue" d="M1131,-56.3993C1131,-48.4664 1131,-38.458 1131,-29.8583"/>
<polygon fill="midnightblue" stroke="midnightblue" points="1134.5,-29.6577 1131,-19.6578 1127.5,-29.6578 1134.5,-29.6577"/>
</g>
<!-- Node27&#45;&gt;Node19 -->
<g id="edge22" class="edge"><title>Node27&#45;&gt;Node19</title>
<path fill="none" stroke="midnightblue" d="M1570.09,-61.9851C1561.06,-59.7947 1551.18,-57.6057 1542,-56 1407.89,-32.5521 1246.89,-19.1472 1172.47,-13.775"/>
<polygon fill="midnightblue" stroke="midnightblue" points="1172.35,-10.258 1162.13,-13.0404 1171.85,-17.2404 1172.35,-10.258"/>
</g>
</g>
</svg>
