<?xml version="1.0" encoding="UTF-8" standalone="no"?>
<!DOCTYPE svg PUBLIC "-//W3C//DTD SVG 1.1//EN"
 "http://www.w3.org/Graphics/SVG/1.1/DTD/svg11.dtd">
<!-- Generated by graphviz version 2.38.0 (20140413.2041)
 -->
<!-- Title: xt_get_certification_submode Pages: 1 -->
<svg width="258pt" height="142pt"
 viewBox="0.00 0.00 258.00 142.00" xmlns="http://www.w3.org/2000/svg" xmlns:xlink="http://www.w3.org/1999/xlink">
<g id="graph0" class="graph" transform="scale(1 1) rotate(0) translate(4 138)">
<title>xt_get_certification_submode</title>
<polygon fill="white" stroke="none" points="-4,4 -4,-138 254,-138 254,4 -4,4"/>
<!-- Node86 -->
<g id="node1" class="node"><title>Node86</title>
<polygon fill="#bfbfbf" stroke="black" points="0,-52 0,-82 107,-82 107,-52 0,-52"/>
<text text-anchor="start" x="8" y="-70" font-family="Helvetica,sans-Serif" font-size="10.00">xt_get_certification</text>
<text text-anchor="middle" x="53.5" y="-59" font-family="Helvetica,sans-Serif" font-size="10.00">_submode</text>
</g>
<!-- Node87 -->
<g id="node2" class="node"><title>Node87</title>
<g id="a_node2"><a xlink:href="xep__hal_8h.xhtml#a4f087fae5e8098b3b9c8f9df124b7f4e" target="_top" xlink:title="Set direction of specified IO pin. ">
<polygon fill="white" stroke="red" points="146,-114.5 146,-133.5 247,-133.5 247,-114.5 146,-114.5"/>
<text text-anchor="middle" x="196.5" y="-121.5" font-family="Helvetica,sans-Serif" font-size="10.00">xtio_set_direction</text>
</a>
</g>
</g>
<!-- Node86&#45;&gt;Node87 -->
<g id="edge1" class="edge"><title>Node86&#45;&gt;Node87</title>
<path fill="none" stroke="midnightblue" d="M88.3485,-82.0829C104.757,-89.2534 124.806,-97.8088 143,-105 147.944,-106.954 153.179,-108.943 158.354,-110.862"/>
<polygon fill="midnightblue" stroke="midnightblue" points="157.544,-114.292 168.138,-114.439 159.948,-107.718 157.544,-114.292"/>
</g>
<!-- Node98 -->
<g id="node3" class="node"><title>Node98</title>
<g id="a_node3"><a xlink:href="xep__hal_8h.xhtml#a9c169f60838175920c2f9ab467d020c1" target="_top" xlink:title="Set mode for specified IO pin. ">
<polygon fill="white" stroke="red" points="143,-76.5 143,-95.5 250,-95.5 250,-76.5 143,-76.5"/>
<text text-anchor="middle" x="196.5" y="-83.5" font-family="Helvetica,sans-Serif" font-size="10.00">xtio_set_pin_mode</text>
</a>
</g>
</g>
<!-- Node86&#45;&gt;Node98 -->
<g id="edge2" class="edge"><title>Node86&#45;&gt;Node98</title>
<path fill="none" stroke="midnightblue" d="M107.003,-74.0749C115.445,-75.2124 124.255,-76.3996 132.905,-77.5652"/>
<polygon fill="midnightblue" stroke="midnightblue" points="132.575,-81.0523 142.953,-78.9192 133.51,-74.115 132.575,-81.0523"/>
</g>
<!-- Node99 -->
<g id="node4" class="node"><title>Node99</title>
<g id="a_node4"><a xlink:href="xt__system_8c.xhtml#a7d0980e5e1fb4f42a5d10102c91609f4" target="_top" xlink:title="Delays the execution for the specified number of microseconds. ">
<polygon fill="white" stroke="red" points="160,-38.5 160,-57.5 233,-57.5 233,-38.5 160,-38.5"/>
<text text-anchor="middle" x="196.5" y="-45.5" font-family="Helvetica,sans-Serif" font-size="10.00">xt_delay_us</text>
</a>
</g>
</g>
<!-- Node86&#45;&gt;Node99 -->
<g id="edge3" class="edge"><title>Node86&#45;&gt;Node99</title>
<path fill="none" stroke="midnightblue" d="M107.003,-59.9251C120.979,-58.0418 135.967,-56.0222 149.561,-54.1903"/>
<polygon fill="midnightblue" stroke="midnightblue" points="150.203,-57.6355 159.646,-52.8314 149.268,-50.6982 150.203,-57.6355"/>
</g>
<!-- Node102 -->
<g id="node5" class="node"><title>Node102</title>
<g id="a_node5"><a xlink:href="xep__hal_8h.xhtml#a984c6d05372bfd34dc338a85d21dc81a" target="_top" xlink:title="Get level of specified IO pin. ">
<polygon fill="white" stroke="red" points="155.5,-0.5 155.5,-19.5 237.5,-19.5 237.5,-0.5 155.5,-0.5"/>
<text text-anchor="middle" x="196.5" y="-7.5" font-family="Helvetica,sans-Serif" font-size="10.00">xtio_get_level</text>
</a>
</g>
</g>
<!-- Node86&#45;&gt;Node102 -->
<g id="edge4" class="edge"><title>Node86&#45;&gt;Node102</title>
<path fill="none" stroke="midnightblue" d="M88.3485,-51.9171C104.757,-44.7466 124.806,-36.1912 143,-29 147.944,-27.0459 153.179,-25.0571 158.354,-23.138"/>
<polygon fill="midnightblue" stroke="midnightblue" points="159.948,-26.282 168.138,-19.5612 157.544,-19.7075 159.948,-26.282"/>
</g>
</g>
</svg>
