<?xml version="1.0" encoding="UTF-8" standalone="no"?>
<!DOCTYPE svg PUBLIC "-//W3C//DTD SVG 1.1//EN"
 "http://www.w3.org/Graphics/SVG/1.1/DTD/svg11.dtd">
<!-- Generated by graphviz version 2.38.0 (20140413.2041)
 -->
<!-- Title: onMcpX4DriverReadFromSpiRegister Pages: 1 -->
<svg width="349pt" height="214pt"
 viewBox="0.00 0.00 349.00 214.00" xmlns="http://www.w3.org/2000/svg" xmlns:xlink="http://www.w3.org/1999/xlink">
<g id="graph0" class="graph" transform="scale(1 1) rotate(0) translate(4 210)">
<title>onMcpX4DriverReadFromSpiRegister</title>
<polygon fill="white" stroke="none" points="-4,4 -4,-210 345,-210 345,4 -4,4"/>
<!-- Node1064 -->
<g id="node1" class="node"><title>Node1064</title>
<polygon fill="#bfbfbf" stroke="black" points="0,-88 0,-118 151,-118 151,-88 0,-88"/>
<text text-anchor="start" x="8" y="-106" font-family="Helvetica,sans-Serif" font-size="10.00">onMcpX4DriverReadFromSpi</text>
<text text-anchor="middle" x="75.5" y="-95" font-family="Helvetica,sans-Serif" font-size="10.00">Register</text>
</g>
<!-- Node1065 -->
<g id="node2" class="node"><title>Node1065</title>
<g id="a_node2"><a xlink:href="xtmemory_8h.xhtml#a6865e14d8f1f60f5c34807e4c1a990a7" target="_top" xlink:title="Allocate memory from slow location. ">
<polygon fill="white" stroke="red" points="200,-186.5 200,-205.5 328,-205.5 328,-186.5 200,-186.5"/>
<text text-anchor="middle" x="264" y="-193.5" font-family="Helvetica,sans-Serif" font-size="10.00">xtmemory_malloc_slow</text>
</a>
</g>
</g>
<!-- Node1064&#45;&gt;Node1065 -->
<g id="edge1" class="edge"><title>Node1064&#45;&gt;Node1065</title>
<path fill="none" stroke="midnightblue" d="M94.879,-118.245C115.904,-134.957 151.966,-161.458 187,-177 192.495,-179.438 198.359,-181.6 204.3,-183.51"/>
<polygon fill="midnightblue" stroke="midnightblue" points="203.736,-186.994 214.319,-186.488 205.731,-180.284 203.736,-186.994"/>
</g>
<!-- Node1079 -->
<g id="node3" class="node"><title>Node1079</title>
<g id="a_node3"><a xlink:href="xep__dispatch__messages_8h.xhtml#a454af1ebc681b68eaf1995f56aa2e42c" target="_top" xlink:title="Dispatch message to hostcom asking to send error to host. ">
<polygon fill="white" stroke="red" points="187,-137 187,-167 341,-167 341,-137 187,-137"/>
<text text-anchor="start" x="195" y="-155" font-family="Helvetica,sans-Serif" font-size="10.00">dispatch_message_hostcom</text>
<text text-anchor="middle" x="264" y="-144" font-family="Helvetica,sans-Serif" font-size="10.00">_send_error</text>
</a>
</g>
</g>
<!-- Node1064&#45;&gt;Node1079 -->
<g id="edge2" class="edge"><title>Node1064&#45;&gt;Node1079</title>
<path fill="none" stroke="midnightblue" d="M133.724,-118.035C153.415,-123.208 175.64,-129.048 196.037,-134.407"/>
<polygon fill="midnightblue" stroke="midnightblue" points="195.323,-137.838 205.885,-136.994 197.102,-131.068 195.323,-137.838"/>
</g>
<!-- Node1088 -->
<g id="node4" class="node"><title>Node1088</title>
<g id="a_node4"><a xlink:href="x4driver_8h.xhtml#a47f8598fd42ad86659d0a59d9b360ab4" target="_top" xlink:title="Reads data from SPI register on radar chip. ">
<polygon fill="white" stroke="red" points="209,-88 209,-118 319,-118 319,-88 209,-88"/>
<text text-anchor="start" x="217" y="-106" font-family="Helvetica,sans-Serif" font-size="10.00">x4driver_read_from</text>
<text text-anchor="middle" x="264" y="-95" font-family="Helvetica,sans-Serif" font-size="10.00">_spi_register</text>
</a>
</g>
</g>
<!-- Node1064&#45;&gt;Node1088 -->
<g id="edge3" class="edge"><title>Node1064&#45;&gt;Node1088</title>
<path fill="none" stroke="midnightblue" d="M151.014,-103C166.759,-103 183.248,-103 198.583,-103"/>
<polygon fill="midnightblue" stroke="midnightblue" points="198.991,-106.5 208.991,-103 198.991,-99.5001 198.991,-106.5"/>
</g>
<!-- Node1091 -->
<g id="node5" class="node"><title>Node1091</title>
<g id="a_node5"><a xlink:href="xep__dispatch__messages_8h.xhtml#a22a2633c98e35bd1a0e5fd8687de3adf" target="_top" xlink:title="Dispatch message to hostcom asking to reply with byte array to host. ">
<polygon fill="white" stroke="red" points="187,-39 187,-69 341,-69 341,-39 187,-39"/>
<text text-anchor="start" x="195" y="-57" font-family="Helvetica,sans-Serif" font-size="10.00">dispatch_message_hostcom</text>
<text text-anchor="middle" x="264" y="-46" font-family="Helvetica,sans-Serif" font-size="10.00">_send_reply_byte</text>
</a>
</g>
</g>
<!-- Node1064&#45;&gt;Node1091 -->
<g id="edge4" class="edge"><title>Node1064&#45;&gt;Node1091</title>
<path fill="none" stroke="midnightblue" d="M133.724,-87.9654C153.415,-82.7917 175.64,-76.9525 196.037,-71.5934"/>
<polygon fill="midnightblue" stroke="midnightblue" points="197.102,-74.9325 205.885,-69.0062 195.323,-68.1622 197.102,-74.9325"/>
</g>
<!-- Node1092 -->
<g id="node6" class="node"><title>Node1092</title>
<g id="a_node6"><a xlink:href="xtmemory_8h.xhtml#a1b0d147f3ba8bc658585e26e12c46a76" target="_top" xlink:title="Free memory allocated by xtmemory_malloc_slow. ">
<polygon fill="white" stroke="red" points="206,-0.5 206,-19.5 322,-19.5 322,-0.5 206,-0.5"/>
<text text-anchor="middle" x="264" y="-7.5" font-family="Helvetica,sans-Serif" font-size="10.00">xtmemory_free_slow</text>
</a>
</g>
</g>
<!-- Node1064&#45;&gt;Node1092 -->
<g id="edge5" class="edge"><title>Node1064&#45;&gt;Node1092</title>
<path fill="none" stroke="midnightblue" d="M95.3333,-87.7569C116.475,-71.3374 152.369,-45.4891 187,-30 193.276,-27.193 200.026,-24.7162 206.82,-22.5483"/>
<polygon fill="midnightblue" stroke="midnightblue" points="208.17,-25.7983 216.756,-19.5906 206.173,-19.0892 208.17,-25.7983"/>
</g>
</g>
</svg>
