<?xml version="1.0" encoding="UTF-8" standalone="no"?>
<!DOCTYPE svg PUBLIC "-//W3C//DTD SVG 1.1//EN"
 "http://www.w3.org/Graphics/SVG/1.1/DTD/svg11.dtd">
<!-- Generated by graphviz version 2.38.0 (20140413.2041)
 -->
<!-- Title: onMcpSystemRunTest Pages: 1 -->
<svg width="478pt" height="401pt"
 viewBox="0.00 0.00 478.00 401.00" xmlns="http://www.w3.org/2000/svg" xmlns:xlink="http://www.w3.org/1999/xlink">
<g id="graph0" class="graph" transform="scale(1 1) rotate(0) translate(4 397)">
<title>onMcpSystemRunTest</title>
<polygon fill="white" stroke="none" points="-4,4 -4,-397 474,-397 474,4 -4,4"/>
<!-- Node580 -->
<g id="node1" class="node"><title>Node580</title>
<polygon fill="#bfbfbf" stroke="black" points="0,-187 0,-206 121,-206 121,-187 0,-187"/>
<text text-anchor="middle" x="60.5" y="-194" font-family="Helvetica,sans-Serif" font-size="10.00">onMcpSystemRunTest</text>
</g>
<!-- Node581 -->
<g id="node2" class="node"><title>Node581</title>
<g id="a_node2"><a xlink:href="xep__dispatch__messages_8h.xhtml#a057fe6f9f6b6da7a806aeaf591500b59" target="_top" xlink:title="Dispatch message to hostcom asking to send ack to host. ">
<polygon fill="white" stroke="red" points="157,-362.5 157,-392.5 311,-392.5 311,-362.5 157,-362.5"/>
<text text-anchor="start" x="165" y="-380.5" font-family="Helvetica,sans-Serif" font-size="10.00">dispatch_message_hostcom</text>
<text text-anchor="middle" x="234" y="-369.5" font-family="Helvetica,sans-Serif" font-size="10.00">_send_ack</text>
</a>
</g>
</g>
<!-- Node580&#45;&gt;Node581 -->
<g id="edge1" class="edge"><title>Node580&#45;&gt;Node581</title>
<path fill="none" stroke="midnightblue" d="M64.7131,-206.178C74.2404,-233.397 104.964,-311.305 157,-352.5 159.297,-354.319 161.732,-356.007 164.266,-357.575"/>
<polygon fill="midnightblue" stroke="midnightblue" points="162.752,-360.736 173.207,-362.453 166.104,-354.591 162.752,-360.736"/>
</g>
<!-- Node590 -->
<g id="node3" class="node"><title>Node590</title>
<g id="a_node3"><a xlink:href="xep__hal_8h.xhtml#a8e58faffa8a7b0934ca76bc1fa5ef6fa" target="_top" xlink:title="Causes the calling task to wait and yields to another task. ">
<polygon fill="white" stroke="black" points="209,-324 209,-343 259,-343 259,-324 209,-324"/>
<text text-anchor="middle" x="234" y="-331" font-family="Helvetica,sans-Serif" font-size="10.00">xt_wait</text>
</a>
</g>
</g>
<!-- Node580&#45;&gt;Node590 -->
<g id="edge2" class="edge"><title>Node580&#45;&gt;Node590</title>
<path fill="none" stroke="midnightblue" d="M66.4635,-206.215C78.6034,-228.955 112.114,-285.876 157,-314.5 169.428,-322.425 184.953,-327.045 198.727,-329.739"/>
<polygon fill="midnightblue" stroke="midnightblue" points="198.395,-333.232 208.838,-331.445 199.56,-326.33 198.395,-333.232"/>
</g>
<!-- Node591 -->
<g id="node4" class="node"><title>Node591</title>
<g id="a_node4"><a xlink:href="module__ui_8h.xhtml#adc23507e74f39161ab6ddc3019ee1672" target="_top" xlink:title="LED override to force LED behaviour and block further changes. ">
<polygon fill="white" stroke="red" points="169,-274.5 169,-304.5 299,-304.5 299,-274.5 169,-274.5"/>
<text text-anchor="start" x="177" y="-292.5" font-family="Helvetica,sans-Serif" font-size="10.00">module_ui_led_override</text>
<text text-anchor="middle" x="234" y="-281.5" font-family="Helvetica,sans-Serif" font-size="10.00">_color</text>
</a>
</g>
</g>
<!-- Node580&#45;&gt;Node591 -->
<g id="edge3" class="edge"><title>Node580&#45;&gt;Node591</title>
<path fill="none" stroke="midnightblue" d="M72.2092,-206.031C89.1256,-220.653 123.556,-248.689 157,-265.5 160.583,-267.301 164.329,-269.002 168.155,-270.603"/>
<polygon fill="midnightblue" stroke="midnightblue" points="167.196,-273.986 177.784,-274.373 169.749,-267.468 167.196,-273.986"/>
</g>
<!-- Node599 -->
<g id="node5" class="node"><title>Node599</title>
<g id="a_node5"><a xlink:href="task__radar_8c.xhtml#a8f5a25ff5bf1da89fd00ffdc10c73151" target="_top" xlink:title="Enter TX only mode. ">
<polygon fill="white" stroke="red" points="182.5,-225.5 182.5,-255.5 285.5,-255.5 285.5,-225.5 182.5,-225.5"/>
<text text-anchor="start" x="190.5" y="-243.5" font-family="Helvetica,sans-Serif" font-size="10.00">radar_certification</text>
<text text-anchor="middle" x="234" y="-232.5" font-family="Helvetica,sans-Serif" font-size="10.00">_enter_tx_only</text>
</a>
</g>
</g>
<!-- Node580&#45;&gt;Node599 -->
<g id="edge4" class="edge"><title>Node580&#45;&gt;Node599</title>
<path fill="none" stroke="midnightblue" d="M98.7129,-206.047C120.186,-211.556 147.714,-218.619 172.25,-224.914"/>
<polygon fill="midnightblue" stroke="midnightblue" points="171.641,-228.371 182.197,-227.466 173.381,-221.591 171.641,-228.371"/>
</g>
<!-- Node613 -->
<g id="node6" class="node"><title>Node613</title>
<g id="a_node6"><a xlink:href="x4driver_8h.xhtml#aaa39bc07728273218162fc63a0bcb864" target="_top" xlink:title="x4driver_set_tx_power">
<polygon fill="white" stroke="red" points="347,-187 347,-206 470,-206 470,-187 347,-187"/>
<text text-anchor="middle" x="408.5" y="-194" font-family="Helvetica,sans-Serif" font-size="10.00">x4driver_set_tx_power</text>
</a>
</g>
</g>
<!-- Node580&#45;&gt;Node613 -->
<g id="edge8" class="edge"><title>Node580&#45;&gt;Node613</title>
<path fill="none" stroke="midnightblue" d="M121.374,-196.5C181.194,-196.5 273.15,-196.5 336.589,-196.5"/>
<polygon fill="midnightblue" stroke="midnightblue" points="336.909,-200 346.909,-196.5 336.909,-193 336.909,-200"/>
</g>
<!-- Node618 -->
<g id="node7" class="node"><title>Node618</title>
<g id="a_node7"><a xlink:href="task__radar_8c.xhtml#a43f10133b8707768c4b3a4c15526093a" target="_top" xlink:title="Enter TX only mode, with TX off. ">
<polygon fill="white" stroke="red" points="175,-137.5 175,-167.5 293,-167.5 293,-137.5 175,-137.5"/>
<text text-anchor="start" x="183" y="-155.5" font-family="Helvetica,sans-Serif" font-size="10.00">radar_certification</text>
<text text-anchor="middle" x="234" y="-144.5" font-family="Helvetica,sans-Serif" font-size="10.00">_enter_tx_only_tx_off</text>
</a>
</g>
</g>
<!-- Node580&#45;&gt;Node618 -->
<g id="edge6" class="edge"><title>Node580&#45;&gt;Node618</title>
<path fill="none" stroke="midnightblue" d="M98.7129,-186.953C118.107,-181.977 142.441,-175.734 165.048,-169.934"/>
<polygon fill="midnightblue" stroke="midnightblue" points="166.133,-173.269 174.949,-167.394 164.393,-166.488 166.133,-173.269"/>
</g>
<!-- Node619 -->
<g id="node8" class="node"><title>Node619</title>
<g id="a_node8"><a xlink:href="xep__dispatch__messages_8h.xhtml#a454af1ebc681b68eaf1995f56aa2e42c" target="_top" xlink:title="Dispatch message to hostcom asking to send error to host. ">
<polygon fill="white" stroke="red" points="157,-88.5 157,-118.5 311,-118.5 311,-88.5 157,-88.5"/>
<text text-anchor="start" x="165" y="-106.5" font-family="Helvetica,sans-Serif" font-size="10.00">dispatch_message_hostcom</text>
<text text-anchor="middle" x="234" y="-95.5" font-family="Helvetica,sans-Serif" font-size="10.00">_send_error</text>
</a>
</g>
</g>
<!-- Node580&#45;&gt;Node619 -->
<g id="edge9" class="edge"><title>Node580&#45;&gt;Node619</title>
<path fill="none" stroke="midnightblue" d="M72.5398,-186.93C89.6211,-172.535 123.945,-145.22 157,-128.5 161.342,-126.304 165.919,-124.241 170.585,-122.315"/>
<polygon fill="midnightblue" stroke="midnightblue" points="172.191,-125.446 180.241,-118.557 169.653,-118.922 172.191,-125.446"/>
</g>
<!-- Node620 -->
<g id="node9" class="node"><title>Node620</title>
<g id="a_node9"><a xlink:href="xep__hal_8h.xhtml#a23a7563c734f3b439d1d26f0598fafe7" target="_top" xlink:title="Performs the specified selftest. ">
<polygon fill="white" stroke="red" points="190.5,-50 190.5,-69 277.5,-69 277.5,-50 190.5,-50"/>
<text text-anchor="middle" x="234" y="-57" font-family="Helvetica,sans-Serif" font-size="10.00">xt_run_selftest</text>
</a>
</g>
</g>
<!-- Node580&#45;&gt;Node620 -->
<g id="edge10" class="edge"><title>Node580&#45;&gt;Node620</title>
<path fill="none" stroke="midnightblue" d="M66.5097,-186.904C78.7495,-164.438 112.46,-108.161 157,-79.5 164.175,-74.8833 172.379,-71.3287 180.681,-68.5928"/>
<polygon fill="midnightblue" stroke="midnightblue" points="181.803,-71.9113 190.417,-65.7426 179.837,-65.1932 181.803,-71.9113"/>
</g>
<!-- Node648 -->
<g id="node10" class="node"><title>Node648</title>
<g id="a_node10"><a xlink:href="xep__dispatch__messages_8h.xhtml#a22a2633c98e35bd1a0e5fd8687de3adf" target="_top" xlink:title="Dispatch message to hostcom asking to reply with byte array to host. ">
<polygon fill="white" stroke="red" points="157,-0.5 157,-30.5 311,-30.5 311,-0.5 157,-0.5"/>
<text text-anchor="start" x="165" y="-18.5" font-family="Helvetica,sans-Serif" font-size="10.00">dispatch_message_hostcom</text>
<text text-anchor="middle" x="234" y="-7.5" font-family="Helvetica,sans-Serif" font-size="10.00">_send_reply_byte</text>
</a>
</g>
</g>
<!-- Node580&#45;&gt;Node648 -->
<g id="edge11" class="edge"><title>Node580&#45;&gt;Node648</title>
<path fill="none" stroke="midnightblue" d="M64.7131,-186.822C74.2404,-159.603 104.964,-81.6949 157,-40.5 159.297,-38.6814 161.732,-36.9928 164.266,-35.425"/>
<polygon fill="midnightblue" stroke="midnightblue" points="166.104,-38.4089 173.207,-30.5473 162.752,-32.2638 166.104,-38.4089"/>
</g>
<!-- Node599&#45;&gt;Node613 -->
<g id="edge5" class="edge"><title>Node599&#45;&gt;Node613</title>
<path fill="none" stroke="midnightblue" d="M285.823,-227.537C309.37,-221.53 337.181,-214.436 360.267,-208.548"/>
<polygon fill="midnightblue" stroke="midnightblue" points="361.352,-211.883 370.176,-206.02 359.621,-205.1 361.352,-211.883"/>
</g>
<!-- Node618&#45;&gt;Node613 -->
<g id="edge7" class="edge"><title>Node618&#45;&gt;Node613</title>
<path fill="none" stroke="midnightblue" d="M293.401,-167.396C315.156,-172.946 339.559,-179.17 360.196,-184.434"/>
<polygon fill="midnightblue" stroke="midnightblue" points="359.442,-187.854 369.997,-186.934 361.172,-181.071 359.442,-187.854"/>
</g>
</g>
</svg>
