<?xml version="1.0" encoding="UTF-8" standalone="no"?>
<!DOCTYPE svg PUBLIC "-//W3C//DTD SVG 1.1//EN"
 "http://www.w3.org/Graphics/SVG/1.1/DTD/svg11.dtd">
<!-- Generated by graphviz version 2.38.0 (20140413.2041)
 -->
<!-- Title: xtio_set_level Pages: 1 -->
<svg width="271pt" height="104pt"
 viewBox="0.00 0.00 271.00 104.00" xmlns="http://www.w3.org/2000/svg" xmlns:xlink="http://www.w3.org/1999/xlink">
<g id="graph0" class="graph" transform="scale(1 1) rotate(0) translate(4 100)">
<title>xtio_set_level</title>
<polygon fill="white" stroke="none" points="-4,4 -4,-100 267,-100 267,4 -4,4"/>
<!-- Node1100 -->
<g id="node1" class="node"><title>Node1100</title>
<polygon fill="#bfbfbf" stroke="black" points="0,-38.5 0,-57.5 81,-57.5 81,-38.5 0,-38.5"/>
<text text-anchor="middle" x="40.5" y="-45.5" font-family="Helvetica,sans-Serif" font-size="10.00">xtio_set_level</text>
</g>
<!-- Node1101 -->
<g id="node2" class="node"><title>Node1101</title>
<g id="a_node2"><a xlink:href="radar__hal_8h.xhtml#a8da7b99f6f9103ecd9ccfd1deab1378b" target="_top" xlink:title="Set Radar IC enable pin to specified level. ">
<polygon fill="white" stroke="red" points="120.5,-76.5 120.5,-95.5 259.5,-95.5 259.5,-76.5 120.5,-76.5"/>
<text text-anchor="middle" x="190" y="-83.5" font-family="Helvetica,sans-Serif" font-size="10.00">radar_hal_pin_set_enable</text>
</a>
</g>
</g>
<!-- Node1100&#45;&gt;Node1101 -->
<g id="edge1" class="edge"><title>Node1100&#45;&gt;Node1101</title>
<path fill="none" stroke="midnightblue" d="M88.5141,-60.1121C109.057,-65.4044 132.8,-71.5213 152.047,-76.4799"/>
<polygon fill="midnightblue" stroke="midnightblue" points="89.2775,-56.6946 78.7205,-57.589 87.5311,-63.4732 89.2775,-56.6946"/>
</g>
<!-- Node1106 -->
<g id="node3" class="node"><title>Node1106</title>
<g id="a_node3"><a xlink:href="task__radar_8c.xhtml#a5b304d710c485763ad4596454b7a4636" target="_top" xlink:title="x4driver_trigger_sweep_pin">
<polygon fill="white" stroke="red" points="117,-38.5 117,-57.5 263,-57.5 263,-38.5 117,-38.5"/>
<text text-anchor="middle" x="190" y="-45.5" font-family="Helvetica,sans-Serif" font-size="10.00">x4driver_trigger_sweep_pin</text>
</a>
</g>
</g>
<!-- Node1100&#45;&gt;Node1106 -->
<g id="edge2" class="edge"><title>Node1100&#45;&gt;Node1106</title>
<path fill="none" stroke="midnightblue" d="M91.2221,-48C99.4902,-48 108.211,-48 116.901,-48"/>
<polygon fill="midnightblue" stroke="midnightblue" points="91.0273,-44.5001 81.0273,-48 91.0273,-51.5001 91.0273,-44.5001"/>
</g>
<!-- Node1107 -->
<g id="node4" class="node"><title>Node1107</title>
<g id="a_node4"><a xlink:href="xep__application__mcp__callbacks_8h.xhtml#a8e7d3bc0aacfe4f2fd3e8313afc11321" target="_top" xlink:title="onMcpSetIOPinValue">
<polygon fill="white" stroke="red" points="132.5,-0.5 132.5,-19.5 247.5,-19.5 247.5,-0.5 132.5,-0.5"/>
<text text-anchor="middle" x="190" y="-7.5" font-family="Helvetica,sans-Serif" font-size="10.00">onMcpSetIOPinValue</text>
</a>
</g>
</g>
<!-- Node1100&#45;&gt;Node1107 -->
<g id="edge3" class="edge"><title>Node1100&#45;&gt;Node1107</title>
<path fill="none" stroke="midnightblue" d="M88.5141,-35.8879C109.057,-30.5956 132.8,-24.4787 152.047,-19.5201"/>
<polygon fill="midnightblue" stroke="midnightblue" points="87.5311,-32.5268 78.7205,-38.411 89.2775,-39.3054 87.5311,-32.5268"/>
</g>
</g>
</svg>
