<?xml version="1.0" encoding="UTF-8" standalone="no"?>
<!DOCTYPE svg PUBLIC "-//W3C//DTD SVG 1.1//EN"
 "http://www.w3.org/Graphics/SVG/1.1/DTD/svg11.dtd">
<!-- Generated by graphviz version 2.38.0 (20140413.2041)
 -->
<!-- Title: onMcpGetIOPinValue Pages: 1 -->
<svg width="314pt" height="127pt"
 viewBox="0.00 0.00 314.00 126.50" xmlns="http://www.w3.org/2000/svg" xmlns:xlink="http://www.w3.org/1999/xlink">
<g id="graph0" class="graph" transform="scale(1 1) rotate(0) translate(4 122.5)">
<title>onMcpGetIOPinValue</title>
<polygon fill="white" stroke="none" points="-4,4 -4,-122.5 310,-122.5 310,4 -4,4"/>
<!-- Node297 -->
<g id="node1" class="node"><title>Node297</title>
<polygon fill="#bfbfbf" stroke="black" points="0,-55 0,-74 116,-74 116,-55 0,-55"/>
<text text-anchor="middle" x="58" y="-62" font-family="Helvetica,sans-Serif" font-size="10.00">onMcpGetIOPinValue</text>
</g>
<!-- Node298 -->
<g id="node2" class="node"><title>Node298</title>
<g id="a_node2"><a xlink:href="xep__hal_8h.xhtml#a984c6d05372bfd34dc338a85d21dc81a" target="_top" xlink:title="Get level of specified IO pin. ">
<polygon fill="white" stroke="red" points="188,-99 188,-118 270,-118 270,-99 188,-99"/>
<text text-anchor="middle" x="229" y="-106" font-family="Helvetica,sans-Serif" font-size="10.00">xtio_get_level</text>
</a>
</g>
</g>
<!-- Node297&#45;&gt;Node298 -->
<g id="edge1" class="edge"><title>Node297&#45;&gt;Node298</title>
<path fill="none" stroke="midnightblue" d="M93.8499,-74.0243C111.292,-78.7514 132.742,-84.5046 152,-89.5 160.895,-91.8071 170.388,-94.2198 179.544,-96.5217"/>
<polygon fill="midnightblue" stroke="midnightblue" points="178.753,-99.9315 189.303,-98.9658 180.453,-93.1412 178.753,-99.9315"/>
</g>
<!-- Node302 -->
<g id="node3" class="node"><title>Node302</title>
<g id="a_node3"><a xlink:href="xep__dispatch__messages_8h.xhtml#a90b63c6c0030baa1fd9c1d71b1c23d1a" target="_top" xlink:title="Dispatch message to hostcom asking to reply with int array to host. ">
<polygon fill="white" stroke="red" points="152,-49.5 152,-79.5 306,-79.5 306,-49.5 152,-49.5"/>
<text text-anchor="start" x="160" y="-67.5" font-family="Helvetica,sans-Serif" font-size="10.00">dispatch_message_hostcom</text>
<text text-anchor="middle" x="229" y="-56.5" font-family="Helvetica,sans-Serif" font-size="10.00">_send_reply_int</text>
</a>
</g>
</g>
<!-- Node297&#45;&gt;Node302 -->
<g id="edge2" class="edge"><title>Node297&#45;&gt;Node302</title>
<path fill="none" stroke="midnightblue" d="M116.216,-64.5C124.475,-64.5 133.124,-64.5 141.796,-64.5"/>
<polygon fill="midnightblue" stroke="midnightblue" points="141.966,-68.0001 151.966,-64.5 141.966,-61.0001 141.966,-68.0001"/>
</g>
<!-- Node311 -->
<g id="node4" class="node"><title>Node311</title>
<g id="a_node4"><a xlink:href="xep__dispatch__messages_8h.xhtml#a454af1ebc681b68eaf1995f56aa2e42c" target="_top" xlink:title="Dispatch message to hostcom asking to send error to host. ">
<polygon fill="white" stroke="red" points="152,-0.5 152,-30.5 306,-30.5 306,-0.5 152,-0.5"/>
<text text-anchor="start" x="160" y="-18.5" font-family="Helvetica,sans-Serif" font-size="10.00">dispatch_message_hostcom</text>
<text text-anchor="middle" x="229" y="-7.5" font-family="Helvetica,sans-Serif" font-size="10.00">_send_error</text>
</a>
</g>
</g>
<!-- Node297&#45;&gt;Node311 -->
<g id="edge3" class="edge"><title>Node297&#45;&gt;Node311</title>
<path fill="none" stroke="midnightblue" d="M91.9861,-54.936C113.102,-48.8137 141.157,-40.6792 166.302,-33.3889"/>
<polygon fill="midnightblue" stroke="midnightblue" points="167.508,-36.6833 176.138,-30.537 165.559,-29.9602 167.508,-36.6833"/>
</g>
</g>
</svg>
