<?xml version="1.0" encoding="UTF-8" standalone="no"?>
<!DOCTYPE svg PUBLIC "-//W3C//DTD SVG 1.1//EN"
 "http://www.w3.org/Graphics/SVG/1.1/DTD/svg11.dtd">
<!-- Generated by graphviz version 2.38.0 (20140413.2041)
 -->
<!-- Title: onMcpSetFileData Pages: 1 -->
<svg width="301pt" height="204pt"
 viewBox="0.00 0.00 301.00 203.50" xmlns="http://www.w3.org/2000/svg" xmlns:xlink="http://www.w3.org/1999/xlink">
<g id="graph0" class="graph" transform="scale(1 1) rotate(0) translate(4 199.5)">
<title>onMcpSetFileData</title>
<polygon fill="white" stroke="none" points="-4,4 -4,-199.5 297,-199.5 297,4 -4,4"/>
<!-- Node476 -->
<g id="node1" class="node"><title>Node476</title>
<polygon fill="#bfbfbf" stroke="black" points="0,-88 0,-107 103,-107 103,-88 0,-88"/>
<text text-anchor="middle" x="51.5" y="-95" font-family="Helvetica,sans-Serif" font-size="10.00">onMcpSetFileData</text>
</g>
<!-- Node477 -->
<g id="node2" class="node"><title>Node477</title>
<g id="a_node2"><a xlink:href="xtfile_8h.xhtml#acd9f464dd135cbeaf8671e7c3c4c900f" target="_top" xlink:title="xtfile_get_handle">
<polygon fill="white" stroke="red" points="167,-176 167,-195 265,-195 265,-176 167,-176"/>
<text text-anchor="middle" x="216" y="-183" font-family="Helvetica,sans-Serif" font-size="10.00">xtfile_get_handle</text>
</a>
</g>
</g>
<!-- Node476&#45;&gt;Node477 -->
<g id="edge1" class="edge"><title>Node476&#45;&gt;Node477</title>
<path fill="none" stroke="midnightblue" d="M61.659,-107.086C76.4909,-122.043 107.315,-150.835 139,-166.5 144.681,-169.308 150.811,-171.724 157.039,-173.797"/>
<polygon fill="midnightblue" stroke="midnightblue" points="156.271,-177.221 166.857,-176.779 158.306,-170.523 156.271,-177.221"/>
</g>
<!-- Node482 -->
<g id="node3" class="node"><title>Node482</title>
<g id="a_node3"><a xlink:href="xep__dispatch__messages_8h.xhtml#a454af1ebc681b68eaf1995f56aa2e42c" target="_top" xlink:title="Dispatch message to hostcom asking to send error to host. ">
<polygon fill="white" stroke="red" points="139,-126.5 139,-156.5 293,-156.5 293,-126.5 139,-126.5"/>
<text text-anchor="start" x="147" y="-144.5" font-family="Helvetica,sans-Serif" font-size="10.00">dispatch_message_hostcom</text>
<text text-anchor="middle" x="216" y="-133.5" font-family="Helvetica,sans-Serif" font-size="10.00">_send_error</text>
</a>
</g>
</g>
<!-- Node476&#45;&gt;Node482 -->
<g id="edge2" class="edge"><title>Node476&#45;&gt;Node482</title>
<path fill="none" stroke="midnightblue" d="M87.7601,-107.047C105.811,-111.935 128.377,-118.045 149.472,-123.757"/>
<polygon fill="midnightblue" stroke="midnightblue" points="148.794,-127.199 159.361,-126.435 150.623,-120.443 148.794,-127.199"/>
</g>
<!-- Node489 -->
<g id="node4" class="node"><title>Node489</title>
<g id="a_node4"><a xlink:href="xtfile_8h.xhtml#a60f5bc8f5e3c8f0e61a4c41d05c15556" target="_top" xlink:title="Gets the pointer and size of the content of the file. ">
<polygon fill="white" stroke="red" points="169.5,-88 169.5,-107 262.5,-107 262.5,-88 169.5,-88"/>
<text text-anchor="middle" x="216" y="-95" font-family="Helvetica,sans-Serif" font-size="10.00">xtfile_get_buffer</text>
</a>
</g>
</g>
<!-- Node476&#45;&gt;Node489 -->
<g id="edge3" class="edge"><title>Node476&#45;&gt;Node489</title>
<path fill="none" stroke="midnightblue" d="M103.025,-97.5C120.866,-97.5 141.024,-97.5 159.27,-97.5"/>
<polygon fill="midnightblue" stroke="midnightblue" points="159.471,-101 169.471,-97.5 159.471,-94.0001 159.471,-101"/>
</g>
<!-- Node490 -->
<g id="node5" class="node"><title>Node490</title>
<g id="a_node5"><a xlink:href="xtfile_8h.xhtml#a1c5bee91f1654db6aaca14d4f313c32a" target="_top" xlink:title="Writes data to file. ">
<polygon fill="white" stroke="red" points="182.5,-50 182.5,-69 249.5,-69 249.5,-50 182.5,-50"/>
<text text-anchor="middle" x="216" y="-57" font-family="Helvetica,sans-Serif" font-size="10.00">xtfile_write</text>
</a>
</g>
</g>
<!-- Node476&#45;&gt;Node490 -->
<g id="edge4" class="edge"><title>Node476&#45;&gt;Node490</title>
<path fill="none" stroke="midnightblue" d="M93.5056,-87.911C117.611,-82.2742 148.038,-75.1588 172.412,-69.459"/>
<polygon fill="midnightblue" stroke="midnightblue" points="173.511,-72.7965 182.451,-67.1114 171.917,-65.9804 173.511,-72.7965"/>
</g>
<!-- Node508 -->
<g id="node6" class="node"><title>Node508</title>
<g id="a_node6"><a xlink:href="xep__dispatch__messages_8h.xhtml#a057fe6f9f6b6da7a806aeaf591500b59" target="_top" xlink:title="Dispatch message to hostcom asking to send ack to host. ">
<polygon fill="white" stroke="red" points="139,-0.5 139,-30.5 293,-30.5 293,-0.5 139,-0.5"/>
<text text-anchor="start" x="147" y="-18.5" font-family="Helvetica,sans-Serif" font-size="10.00">dispatch_message_hostcom</text>
<text text-anchor="middle" x="216" y="-7.5" font-family="Helvetica,sans-Serif" font-size="10.00">_send_ack</text>
</a>
</g>
</g>
<!-- Node476&#45;&gt;Node508 -->
<g id="edge5" class="edge"><title>Node476&#45;&gt;Node508</title>
<path fill="none" stroke="midnightblue" d="M64.767,-87.8935C80.9896,-75.5565 110.825,-54.1178 139,-40.5 143.649,-38.2532 148.55,-36.1317 153.532,-34.1466"/>
<polygon fill="midnightblue" stroke="midnightblue" points="155.054,-37.313 163.168,-30.5001 152.576,-30.7661 155.054,-37.313"/>
</g>
</g>
</svg>
