<?xml version="1.0" encoding="UTF-8" standalone="no"?>
<!DOCTYPE svg PUBLIC "-//W3C//DTD SVG 1.1//EN"
 "http://www.w3.org/Graphics/SVG/1.1/DTD/svg11.dtd">
<!-- Generated by graphviz version 2.38.0 (20140413.2041)
 -->
<!-- Title: dispatch_message_hostcom_send_appdata_pulsedoppler_float Pages: 1 -->
<svg width="373pt" height="66pt"
 viewBox="0.00 0.00 373.00 66.00" xmlns="http://www.w3.org/2000/svg" xmlns:xlink="http://www.w3.org/1999/xlink">
<g id="graph0" class="graph" transform="scale(1 1) rotate(0) translate(4 62)">
<title>dispatch_message_hostcom_send_appdata_pulsedoppler_float</title>
<polygon fill="white" stroke="none" points="-4,4 -4,-62 369,-62 369,4 -4,4"/>
<!-- Node136 -->
<g id="node1" class="node"><title>Node136</title>
<polygon fill="#bfbfbf" stroke="black" points="0,-14 0,-44 183,-44 183,-14 0,-14"/>
<text text-anchor="start" x="8" y="-32" font-family="Helvetica,sans-Serif" font-size="10.00">dispatch_message_hostcom</text>
<text text-anchor="middle" x="91.5" y="-21" font-family="Helvetica,sans-Serif" font-size="10.00">_send_appdata_pulsedoppler_float</text>
</g>
<!-- Node137 -->
<g id="node2" class="node"><title>Node137</title>
<g id="a_node2"><a xlink:href="memorypoolset_8h.xhtml#ae218de91b58e51270035d6368667a291" target="_top" xlink:title="Take memory block from automatically chosen pool. ">
<polygon fill="white" stroke="red" points="219,-38.5 219,-57.5 365,-57.5 365,-38.5 219,-38.5"/>
<text text-anchor="middle" x="292" y="-45.5" font-family="Helvetica,sans-Serif" font-size="10.00">memorypoolset_take_auto</text>
</a>
</g>
</g>
<!-- Node136&#45;&gt;Node137 -->
<g id="edge1" class="edge"><title>Node136&#45;&gt;Node137</title>
<path fill="none" stroke="midnightblue" d="M183.037,-37.666C191.542,-38.4801 200.133,-39.3024 208.558,-40.1088"/>
<polygon fill="midnightblue" stroke="midnightblue" points="208.447,-43.6141 218.735,-41.0829 209.114,-36.6459 208.447,-43.6141"/>
</g>
<!-- Node142 -->
<g id="node3" class="node"><title>Node142</title>
<g id="a_node3"><a xlink:href="xep__dispatch_8h.xhtml#a7bad5694c10b470cac80025bd27f6fa9" target="_top" xlink:title="Send message on dispatcher. ">
<polygon fill="white" stroke="red" points="224.5,-0.5 224.5,-19.5 359.5,-19.5 359.5,-0.5 224.5,-0.5"/>
<text text-anchor="middle" x="292" y="-7.5" font-family="Helvetica,sans-Serif" font-size="10.00">dispatch_send_message</text>
</a>
</g>
</g>
<!-- Node136&#45;&gt;Node142 -->
<g id="edge2" class="edge"><title>Node136&#45;&gt;Node142</title>
<path fill="none" stroke="midnightblue" d="M183.037,-20.334C193.466,-19.3357 204.025,-18.325 214.248,-17.3465"/>
<polygon fill="midnightblue" stroke="midnightblue" points="214.721,-20.8174 224.342,-16.3804 214.054,-13.8492 214.721,-20.8174"/>
</g>
</g>
</svg>
