<?xml version="1.0" encoding="UTF-8" standalone="no"?>
<!DOCTYPE svg PUBLIC "-//W3C//DTD SVG 1.1//EN"
 "http://www.w3.org/Graphics/SVG/1.1/DTD/svg11.dtd">
<!-- Generated by graphviz version 2.38.0 (20140413.2041)
 -->
<!-- Title: onMcpX4DriverSetFrameArea Pages: 1 -->
<svg width="356pt" height="127pt"
 viewBox="0.00 0.00 356.00 126.50" xmlns="http://www.w3.org/2000/svg" xmlns:xlink="http://www.w3.org/1999/xlink">
<g id="graph0" class="graph" transform="scale(1 1) rotate(0) translate(4 122.5)">
<title>onMcpX4DriverSetFrameArea</title>
<polygon fill="white" stroke="none" points="-4,4 -4,-122.5 352,-122.5 352,4 -4,4"/>
<!-- Node1250 -->
<g id="node1" class="node"><title>Node1250</title>
<polygon fill="#bfbfbf" stroke="black" points="0,-55 0,-74 158,-74 158,-55 0,-55"/>
<text text-anchor="middle" x="79" y="-62" font-family="Helvetica,sans-Serif" font-size="10.00">onMcpX4DriverSetFrameArea</text>
</g>
<!-- Node1251 -->
<g id="node2" class="node"><title>Node1251</title>
<g id="a_node2"><a xlink:href="x4driver_8h.xhtml#a59bb6ec7d08888223c01bffa2aedcf50" target="_top" xlink:title="Set frame area zone Assume air as transmitter medium. ">
<polygon fill="white" stroke="red" points="203,-99 203,-118 339,-118 339,-99 203,-99"/>
<text text-anchor="middle" x="271" y="-106" font-family="Helvetica,sans-Serif" font-size="10.00">x4driver_set_frame_area</text>
</a>
</g>
</g>
<!-- Node1250&#45;&gt;Node1251 -->
<g id="edge1" class="edge"><title>Node1250&#45;&gt;Node1251</title>
<path fill="none" stroke="midnightblue" d="M121.227,-74.0473C149.86,-80.6781 188.21,-89.5591 218.801,-96.6435"/>
<polygon fill="midnightblue" stroke="midnightblue" points="218.321,-100.125 228.853,-98.9713 219.901,-93.3054 218.321,-100.125"/>
</g>
<!-- Node1265 -->
<g id="node3" class="node"><title>Node1265</title>
<g id="a_node3"><a xlink:href="xep__dispatch__messages_8h.xhtml#a057fe6f9f6b6da7a806aeaf591500b59" target="_top" xlink:title="Dispatch message to hostcom asking to send ack to host. ">
<polygon fill="white" stroke="red" points="194,-49.5 194,-79.5 348,-79.5 348,-49.5 194,-49.5"/>
<text text-anchor="start" x="202" y="-67.5" font-family="Helvetica,sans-Serif" font-size="10.00">dispatch_message_hostcom</text>
<text text-anchor="middle" x="271" y="-56.5" font-family="Helvetica,sans-Serif" font-size="10.00">_send_ack</text>
</a>
</g>
</g>
<!-- Node1250&#45;&gt;Node1265 -->
<g id="edge2" class="edge"><title>Node1250&#45;&gt;Node1265</title>
<path fill="none" stroke="midnightblue" d="M158.103,-64.5C166.471,-64.5 175.02,-64.5 183.478,-64.5"/>
<polygon fill="midnightblue" stroke="midnightblue" points="183.733,-68.0001 193.733,-64.5 183.733,-61.0001 183.733,-68.0001"/>
</g>
<!-- Node1274 -->
<g id="node4" class="node"><title>Node1274</title>
<g id="a_node4"><a xlink:href="xep__dispatch__messages_8h.xhtml#a454af1ebc681b68eaf1995f56aa2e42c" target="_top" xlink:title="Dispatch message to hostcom asking to send error to host. ">
<polygon fill="white" stroke="red" points="194,-0.5 194,-30.5 348,-30.5 348,-0.5 194,-0.5"/>
<text text-anchor="start" x="202" y="-18.5" font-family="Helvetica,sans-Serif" font-size="10.00">dispatch_message_hostcom</text>
<text text-anchor="middle" x="271" y="-7.5" font-family="Helvetica,sans-Serif" font-size="10.00">_send_error</text>
</a>
</g>
</g>
<!-- Node1250&#45;&gt;Node1274 -->
<g id="edge3" class="edge"><title>Node1250&#45;&gt;Node1274</title>
<path fill="none" stroke="midnightblue" d="M117.085,-54.936C141.14,-48.7324 173.205,-40.4629 201.759,-33.099"/>
<polygon fill="midnightblue" stroke="midnightblue" points="202.884,-36.4234 211.693,-30.537 201.136,-29.6452 202.884,-36.4234"/>
</g>
</g>
</svg>
