<?xml version="1.0" encoding="UTF-8" standalone="no"?>
<!DOCTYPE svg PUBLIC "-//W3C//DTD SVG 1.1//EN"
 "http://www.w3.org/Graphics/SVG/1.1/DTD/svg11.dtd">
<!-- Generated by graphviz version 2.38.0 (20140413.2041)
 -->
<!-- Title: onMcpX4DriverSetEnable Pages: 1 -->
<svg width="335pt" height="127pt"
 viewBox="0.00 0.00 335.00 126.50" xmlns="http://www.w3.org/2000/svg" xmlns:xlink="http://www.w3.org/1999/xlink">
<g id="graph0" class="graph" transform="scale(1 1) rotate(0) translate(4 122.5)">
<title>onMcpX4DriverSetEnable</title>
<polygon fill="white" stroke="none" points="-4,4 -4,-122.5 331,-122.5 331,4 -4,4"/>
<!-- Node1208 -->
<g id="node1" class="node"><title>Node1208</title>
<polygon fill="#bfbfbf" stroke="black" points="0,-55 0,-74 137,-74 137,-55 0,-55"/>
<text text-anchor="middle" x="68.5" y="-62" font-family="Helvetica,sans-Serif" font-size="10.00">onMcpX4DriverSetEnable</text>
</g>
<!-- Node1209 -->
<g id="node2" class="node"><title>Node1209</title>
<g id="a_node2"><a xlink:href="x4driver_8h.xhtml#a56631da6259f3784165d78d00e5b0f80" target="_top" xlink:title="Set enable for X4. ">
<polygon fill="white" stroke="red" points="193.5,-99 193.5,-118 306.5,-118 306.5,-99 193.5,-99"/>
<text text-anchor="middle" x="250" y="-106" font-family="Helvetica,sans-Serif" font-size="10.00">x4driver_set_enable</text>
</a>
</g>
</g>
<!-- Node1208&#45;&gt;Node1209 -->
<g id="edge1" class="edge"><title>Node1208&#45;&gt;Node1209</title>
<path fill="none" stroke="midnightblue" d="M108.449,-74.0473C135.382,-80.6492 171.415,-89.4819 200.253,-96.551"/>
<polygon fill="midnightblue" stroke="midnightblue" points="199.581,-99.9898 210.127,-98.9713 201.248,-93.1911 199.581,-99.9898"/>
</g>
<!-- Node1212 -->
<g id="node3" class="node"><title>Node1212</title>
<g id="a_node3"><a xlink:href="xep__dispatch__messages_8h.xhtml#a057fe6f9f6b6da7a806aeaf591500b59" target="_top" xlink:title="Dispatch message to hostcom asking to send ack to host. ">
<polygon fill="white" stroke="red" points="173,-49.5 173,-79.5 327,-79.5 327,-49.5 173,-49.5"/>
<text text-anchor="start" x="181" y="-67.5" font-family="Helvetica,sans-Serif" font-size="10.00">dispatch_message_hostcom</text>
<text text-anchor="middle" x="250" y="-56.5" font-family="Helvetica,sans-Serif" font-size="10.00">_send_ack</text>
</a>
</g>
</g>
<!-- Node1208&#45;&gt;Node1212 -->
<g id="edge2" class="edge"><title>Node1208&#45;&gt;Node1212</title>
<path fill="none" stroke="midnightblue" d="M137.105,-64.5C145.463,-64.5 154.093,-64.5 162.682,-64.5"/>
<polygon fill="midnightblue" stroke="midnightblue" points="162.726,-68.0001 172.726,-64.5 162.726,-61.0001 162.726,-68.0001"/>
</g>
<!-- Node1221 -->
<g id="node4" class="node"><title>Node1221</title>
<g id="a_node4"><a xlink:href="xep__dispatch__messages_8h.xhtml#a454af1ebc681b68eaf1995f56aa2e42c" target="_top" xlink:title="Dispatch message to hostcom asking to send error to host. ">
<polygon fill="white" stroke="red" points="173,-0.5 173,-30.5 327,-30.5 327,-0.5 173,-0.5"/>
<text text-anchor="start" x="181" y="-18.5" font-family="Helvetica,sans-Serif" font-size="10.00">dispatch_message_hostcom</text>
<text text-anchor="middle" x="250" y="-7.5" font-family="Helvetica,sans-Serif" font-size="10.00">_send_error</text>
</a>
</g>
</g>
<!-- Node1208&#45;&gt;Node1221 -->
<g id="edge3" class="edge"><title>Node1208&#45;&gt;Node1221</title>
<path fill="none" stroke="midnightblue" d="M104.536,-54.936C127.162,-48.7595 157.29,-40.5351 184.177,-33.1955"/>
<polygon fill="midnightblue" stroke="midnightblue" points="185.19,-36.5469 193.916,-30.537 183.347,-29.794 185.19,-36.5469"/>
</g>
</g>
</svg>
