<?xml version="1.0" encoding="UTF-8" standalone="no"?>
<!DOCTYPE svg PUBLIC "-//W3C//DTD SVG 1.1//EN"
 "http://www.w3.org/Graphics/SVG/1.1/DTD/svg11.dtd">
<!-- Generated by graphviz version 2.38.0 (20140413.2041)
 -->
<!-- Title: onMcpCommitFile Pages: 1 -->
<svg width="299pt" height="166pt"
 viewBox="0.00 0.00 299.00 165.50" xmlns="http://www.w3.org/2000/svg" xmlns:xlink="http://www.w3.org/1999/xlink">
<g id="graph0" class="graph" transform="scale(1 1) rotate(0) translate(4 161.5)">
<title>onMcpCommitFile</title>
<polygon fill="white" stroke="none" points="-4,4 -4,-161.5 295,-161.5 295,4 -4,4"/>
<!-- Node42 -->
<g id="node1" class="node"><title>Node42</title>
<polygon fill="#bfbfbf" stroke="black" points="0,-72 0,-91 101,-91 101,-72 0,-72"/>
<text text-anchor="middle" x="50.5" y="-79" font-family="Helvetica,sans-Serif" font-size="10.00">onMcpCommitFile</text>
</g>
<!-- Node43 -->
<g id="node2" class="node"><title>Node43</title>
<g id="a_node2"><a xlink:href="xtfile_8h.xhtml#acd9f464dd135cbeaf8671e7c3c4c900f" target="_top" xlink:title="xtfile_get_handle">
<polygon fill="white" stroke="red" points="165,-138 165,-157 263,-157 263,-138 165,-138"/>
<text text-anchor="middle" x="214" y="-145" font-family="Helvetica,sans-Serif" font-size="10.00">xtfile_get_handle</text>
</a>
</g>
</g>
<!-- Node42&#45;&gt;Node43 -->
<g id="edge1" class="edge"><title>Node42&#45;&gt;Node43</title>
<path fill="none" stroke="midnightblue" d="M66.0662,-91.0355C82.6443,-101.519 110.823,-118.233 137,-128.5 143.295,-130.969 150.012,-133.196 156.748,-135.181"/>
<polygon fill="midnightblue" stroke="midnightblue" points="156.014,-138.61 166.587,-137.917 157.89,-131.866 156.014,-138.61"/>
</g>
<!-- Node48 -->
<g id="node3" class="node"><title>Node48</title>
<g id="a_node3"><a xlink:href="xep__dispatch__messages_8h.xhtml#a454af1ebc681b68eaf1995f56aa2e42c" target="_top" xlink:title="Dispatch message to hostcom asking to send error to host. ">
<polygon fill="white" stroke="red" points="137,-88.5 137,-118.5 291,-118.5 291,-88.5 137,-88.5"/>
<text text-anchor="start" x="145" y="-106.5" font-family="Helvetica,sans-Serif" font-size="10.00">dispatch_message_hostcom</text>
<text text-anchor="middle" x="214" y="-95.5" font-family="Helvetica,sans-Serif" font-size="10.00">_send_error</text>
</a>
</g>
</g>
<!-- Node42&#45;&gt;Node48 -->
<g id="edge2" class="edge"><title>Node42&#45;&gt;Node48</title>
<path fill="none" stroke="midnightblue" d="M101.273,-88.2802C109.488,-89.3993 118.208,-90.5871 127.011,-91.7863"/>
<polygon fill="midnightblue" stroke="midnightblue" points="126.581,-95.2601 136.962,-93.1419 127.526,-88.3241 126.581,-95.2601"/>
</g>
<!-- Node55 -->
<g id="node4" class="node"><title>Node55</title>
<g id="a_node4"><a xlink:href="xtfile_8h.xhtml#ab3f02b575f459d00a3005fed712dcace" target="_top" xlink:title="Closes an open file. ">
<polygon fill="white" stroke="red" points="179.5,-50 179.5,-69 248.5,-69 248.5,-50 179.5,-50"/>
<text text-anchor="middle" x="214" y="-57" font-family="Helvetica,sans-Serif" font-size="10.00">xtfile_close</text>
</a>
</g>
</g>
<!-- Node42&#45;&gt;Node55 -->
<g id="edge3" class="edge"><title>Node42&#45;&gt;Node55</title>
<path fill="none" stroke="midnightblue" d="M101.273,-74.7198C123.097,-71.7469 148.478,-68.2894 169.529,-65.4218"/>
<polygon fill="midnightblue" stroke="midnightblue" points="170.044,-68.884 179.48,-64.0661 169.099,-61.948 170.044,-68.884"/>
</g>
<!-- Node56 -->
<g id="node5" class="node"><title>Node56</title>
<g id="a_node5"><a xlink:href="xep__dispatch__messages_8h.xhtml#a057fe6f9f6b6da7a806aeaf591500b59" target="_top" xlink:title="Dispatch message to hostcom asking to send ack to host. ">
<polygon fill="white" stroke="red" points="137,-0.5 137,-30.5 291,-30.5 291,-0.5 137,-0.5"/>
<text text-anchor="start" x="145" y="-18.5" font-family="Helvetica,sans-Serif" font-size="10.00">dispatch_message_hostcom</text>
<text text-anchor="middle" x="214" y="-7.5" font-family="Helvetica,sans-Serif" font-size="10.00">_send_ack</text>
</a>
</g>
</g>
<!-- Node42&#45;&gt;Node56 -->
<g id="edge4" class="edge"><title>Node42&#45;&gt;Node56</title>
<path fill="none" stroke="midnightblue" d="M69.8699,-71.837C86.9771,-63.0446 113.327,-50.023 137,-40.5 142.531,-38.275 148.344,-36.0933 154.188,-34.0029"/>
<polygon fill="midnightblue" stroke="midnightblue" points="155.719,-37.176 164.01,-30.5798 153.415,-30.5659 155.719,-37.176"/>
</g>
</g>
</svg>
