<?xml version="1.0" encoding="UTF-8" standalone="no"?>
<!DOCTYPE svg PUBLIC "-//W3C//DTD SVG 1.1//EN"
 "http://www.w3.org/Graphics/SVG/1.1/DTD/svg11.dtd">
<!-- Generated by graphviz version 2.38.0 (20140413.2041)
 -->
<!-- Title: onMcpX4DriverGetIterations Pages: 1 -->
<svg width="349pt" height="127pt"
 viewBox="0.00 0.00 349.00 126.50" xmlns="http://www.w3.org/2000/svg" xmlns:xlink="http://www.w3.org/1999/xlink">
<g id="graph0" class="graph" transform="scale(1 1) rotate(0) translate(4 122.5)">
<title>onMcpX4DriverGetIterations</title>
<polygon fill="white" stroke="none" points="-4,4 -4,-122.5 345,-122.5 345,4 -4,4"/>
<!-- Node819 -->
<g id="node1" class="node"><title>Node819</title>
<polygon fill="#bfbfbf" stroke="black" points="0,-55 0,-74 151,-74 151,-55 0,-55"/>
<text text-anchor="middle" x="75.5" y="-62" font-family="Helvetica,sans-Serif" font-size="10.00">onMcpX4DriverGetIterations</text>
</g>
<!-- Node820 -->
<g id="node2" class="node"><title>Node820</title>
<g id="a_node2"><a xlink:href="x4driver_8h.xhtml#a3340bd88f713c61192fed4ba6be4789d" target="_top" xlink:title="Gets Iterations. ">
<polygon fill="white" stroke="red" points="201,-99 201,-118 327,-118 327,-99 201,-99"/>
<text text-anchor="middle" x="264" y="-106" font-family="Helvetica,sans-Serif" font-size="10.00">x4driver_get_iterations</text>
</a>
</g>
</g>
<!-- Node819&#45;&gt;Node820 -->
<g id="edge1" class="edge"><title>Node819&#45;&gt;Node820</title>
<path fill="none" stroke="midnightblue" d="M116.968,-74.0473C145.073,-80.6781 182.716,-89.5591 212.744,-96.6435"/>
<polygon fill="midnightblue" stroke="midnightblue" points="212.075,-100.081 222.611,-98.9713 213.682,-93.2685 212.075,-100.081"/>
</g>
<!-- Node828 -->
<g id="node3" class="node"><title>Node828</title>
<g id="a_node3"><a xlink:href="xep__dispatch__messages_8h.xhtml#a90b63c6c0030baa1fd9c1d71b1c23d1a" target="_top" xlink:title="Dispatch message to hostcom asking to reply with int array to host. ">
<polygon fill="white" stroke="red" points="187,-49.5 187,-79.5 341,-79.5 341,-49.5 187,-49.5"/>
<text text-anchor="start" x="195" y="-67.5" font-family="Helvetica,sans-Serif" font-size="10.00">dispatch_message_hostcom</text>
<text text-anchor="middle" x="264" y="-56.5" font-family="Helvetica,sans-Serif" font-size="10.00">_send_reply_int</text>
</a>
</g>
</g>
<!-- Node819&#45;&gt;Node828 -->
<g id="edge2" class="edge"><title>Node819&#45;&gt;Node828</title>
<path fill="none" stroke="midnightblue" d="M151.014,-64.5C159.473,-64.5 168.147,-64.5 176.741,-64.5"/>
<polygon fill="midnightblue" stroke="midnightblue" points="176.776,-68.0001 186.776,-64.5 176.775,-61.0001 176.776,-68.0001"/>
</g>
<!-- Node837 -->
<g id="node4" class="node"><title>Node837</title>
<g id="a_node4"><a xlink:href="xep__dispatch__messages_8h.xhtml#a454af1ebc681b68eaf1995f56aa2e42c" target="_top" xlink:title="Dispatch message to hostcom asking to send error to host. ">
<polygon fill="white" stroke="red" points="187,-0.5 187,-30.5 341,-30.5 341,-0.5 187,-0.5"/>
<text text-anchor="start" x="195" y="-18.5" font-family="Helvetica,sans-Serif" font-size="10.00">dispatch_message_hostcom</text>
<text text-anchor="middle" x="264" y="-7.5" font-family="Helvetica,sans-Serif" font-size="10.00">_send_error</text>
</a>
</g>
</g>
<!-- Node819&#45;&gt;Node837 -->
<g id="edge3" class="edge"><title>Node819&#45;&gt;Node837</title>
<path fill="none" stroke="midnightblue" d="M112.902,-54.936C136.513,-48.7324 167.988,-40.4629 196.016,-33.099"/>
<polygon fill="midnightblue" stroke="midnightblue" points="196.985,-36.4633 205.767,-30.537 195.206,-29.693 196.985,-36.4633"/>
</g>
</g>
</svg>
