<?xml version="1.0" encoding="UTF-8" standalone="no"?>
<!DOCTYPE svg PUBLIC "-//W3C//DTD SVG 1.1//EN"
 "http://www.w3.org/Graphics/SVG/1.1/DTD/svg11.dtd">
<!-- Generated by graphviz version 2.38.0 (20140413.2041)
 -->
<!-- Title: onMcpX4DriverSetTxPower Pages: 1 -->
<svg width="342pt" height="127pt"
 viewBox="0.00 0.00 342.00 126.50" xmlns="http://www.w3.org/2000/svg" xmlns:xlink="http://www.w3.org/1999/xlink">
<g id="graph0" class="graph" transform="scale(1 1) rotate(0) translate(4 122.5)">
<title>onMcpX4DriverSetTxPower</title>
<polygon fill="white" stroke="none" points="-4,4 -4,-122.5 338,-122.5 338,4 -4,4"/>
<!-- Node1449 -->
<g id="node1" class="node"><title>Node1449</title>
<polygon fill="#bfbfbf" stroke="black" points="0,-55 0,-74 144,-74 144,-55 0,-55"/>
<text text-anchor="middle" x="72" y="-62" font-family="Helvetica,sans-Serif" font-size="10.00">onMcpX4DriverSetTxPower</text>
</g>
<!-- Node1450 -->
<g id="node2" class="node"><title>Node1450</title>
<g id="a_node2"><a xlink:href="x4driver_8h.xhtml#aaa39bc07728273218162fc63a0bcb864" target="_top" xlink:title="x4driver_set_tx_power">
<polygon fill="white" stroke="red" points="195.5,-99 195.5,-118 318.5,-118 318.5,-99 195.5,-99"/>
<text text-anchor="middle" x="257" y="-106" font-family="Helvetica,sans-Serif" font-size="10.00">x4driver_set_tx_power</text>
</a>
</g>
</g>
<!-- Node1449&#45;&gt;Node1450 -->
<g id="edge1" class="edge"><title>Node1449&#45;&gt;Node1450</title>
<path fill="none" stroke="midnightblue" d="M112.708,-74.0473C140.166,-80.6492 176.902,-89.4819 206.303,-96.551"/>
<polygon fill="midnightblue" stroke="midnightblue" points="205.828,-100.036 216.369,-98.9713 207.465,-93.2304 205.828,-100.036"/>
</g>
<!-- Node1461 -->
<g id="node3" class="node"><title>Node1461</title>
<g id="a_node3"><a xlink:href="xep__dispatch__messages_8h.xhtml#a057fe6f9f6b6da7a806aeaf591500b59" target="_top" xlink:title="Dispatch message to hostcom asking to send ack to host. ">
<polygon fill="white" stroke="red" points="180,-49.5 180,-79.5 334,-79.5 334,-49.5 180,-49.5"/>
<text text-anchor="start" x="188" y="-67.5" font-family="Helvetica,sans-Serif" font-size="10.00">dispatch_message_hostcom</text>
<text text-anchor="middle" x="257" y="-56.5" font-family="Helvetica,sans-Serif" font-size="10.00">_send_ack</text>
</a>
</g>
</g>
<!-- Node1449&#45;&gt;Node1461 -->
<g id="edge2" class="edge"><title>Node1449&#45;&gt;Node1461</title>
<path fill="none" stroke="midnightblue" d="M144.015,-64.5C152.463,-64.5 161.158,-64.5 169.789,-64.5"/>
<polygon fill="midnightblue" stroke="midnightblue" points="169.874,-68.0001 179.874,-64.5 169.874,-61.0001 169.874,-68.0001"/>
</g>
<!-- Node1470 -->
<g id="node4" class="node"><title>Node1470</title>
<g id="a_node4"><a xlink:href="xep__dispatch__messages_8h.xhtml#a454af1ebc681b68eaf1995f56aa2e42c" target="_top" xlink:title="Dispatch message to hostcom asking to send error to host. ">
<polygon fill="white" stroke="red" points="180,-0.5 180,-30.5 334,-30.5 334,-0.5 180,-0.5"/>
<text text-anchor="start" x="188" y="-18.5" font-family="Helvetica,sans-Serif" font-size="10.00">dispatch_message_hostcom</text>
<text text-anchor="middle" x="257" y="-7.5" font-family="Helvetica,sans-Serif" font-size="10.00">_send_error</text>
</a>
</g>
</g>
<!-- Node1449&#45;&gt;Node1470 -->
<g id="edge3" class="edge"><title>Node1449&#45;&gt;Node1470</title>
<path fill="none" stroke="midnightblue" d="M108.719,-54.936C131.786,-48.7595 162.502,-40.5351 189.913,-33.1955"/>
<polygon fill="midnightblue" stroke="midnightblue" points="191.087,-36.5044 199.842,-30.537 189.277,-29.7426 191.087,-36.5044"/>
</g>
</g>
</svg>
