<?xml version="1.0" encoding="UTF-8" standalone="no"?>
<!DOCTYPE svg PUBLIC "-//W3C//DTD SVG 1.1//EN"
 "http://www.w3.org/Graphics/SVG/1.1/DTD/svg11.dtd">
<!-- Generated by graphviz version 2.38.0 (20140413.2041)
 -->
<!-- Title: dispatch_register Pages: 1 -->
<svg width="237pt" height="66pt"
 viewBox="0.00 0.00 237.00 66.00" xmlns="http://www.w3.org/2000/svg" xmlns:xlink="http://www.w3.org/1999/xlink">
<g id="graph0" class="graph" transform="scale(1 1) rotate(0) translate(4 62)">
<title>dispatch_register</title>
<polygon fill="white" stroke="none" points="-4,4 -4,-62 233,-62 233,4 -4,4"/>
<!-- Node40 -->
<g id="node1" class="node"><title>Node40</title>
<polygon fill="#bfbfbf" stroke="black" points="0,-19.5 0,-38.5 99,-38.5 99,-19.5 0,-19.5"/>
<text text-anchor="middle" x="49.5" y="-26.5" font-family="Helvetica,sans-Serif" font-size="10.00">dispatch_register</text>
</g>
<!-- Node41 -->
<g id="node2" class="node"><title>Node41</title>
<g id="a_node2"><a xlink:href="task__hostcom_8c.xhtml#abac971969d3f568fc6db3b8205cc9992" target="_top" xlink:title="task_hostcom">
<polygon fill="white" stroke="red" points="140,-38.5 140,-57.5 224,-57.5 224,-38.5 140,-38.5"/>
<text text-anchor="middle" x="182" y="-45.5" font-family="Helvetica,sans-Serif" font-size="10.00">task_hostcom</text>
</a>
</g>
</g>
<!-- Node40&#45;&gt;Node41 -->
<g id="edge1" class="edge"><title>Node40&#45;&gt;Node41</title>
<path fill="none" stroke="midnightblue" d="M109.242,-37.5525C119.501,-39.0462 129.977,-40.5714 139.642,-41.9785"/>
<polygon fill="midnightblue" stroke="midnightblue" points="109.493,-34.0522 99.0934,-36.0749 108.485,-40.9792 109.493,-34.0522"/>
</g>
<!-- Node45 -->
<g id="node3" class="node"><title>Node45</title>
<g id="a_node3"><a xlink:href="xep__application_8c.xhtml#a0ba95989f534a0adaa0e258fce6d3a0a" target="_top" xlink:title="task_application">
<polygon fill="white" stroke="red" points="135,-0.5 135,-19.5 229,-19.5 229,-0.5 135,-0.5"/>
<text text-anchor="middle" x="182" y="-7.5" font-family="Helvetica,sans-Serif" font-size="10.00">task_application</text>
</a>
</g>
</g>
<!-- Node40&#45;&gt;Node45 -->
<g id="edge2" class="edge"><title>Node40&#45;&gt;Node45</title>
<path fill="none" stroke="midnightblue" d="M109.145,-20.4617C117.8,-19.2016 126.611,-17.9187 134.962,-16.7029"/>
<polygon fill="midnightblue" stroke="midnightblue" points="108.485,-17.0208 99.0934,-21.9251 109.493,-23.9478 108.485,-17.0208"/>
</g>
</g>
</svg>
