<?xml version="1.0" encoding="UTF-8" standalone="no"?>
<!DOCTYPE svg PUBLIC "-//W3C//DTD SVG 1.1//EN"
 "http://www.w3.org/Graphics/SVG/1.1/DTD/svg11.dtd">
<!-- Generated by graphviz version 2.38.0 (20140413.2041)
 -->
<!-- Title: onMcpX4DriverSetDacStep Pages: 1 -->
<svg width="344pt" height="127pt"
 viewBox="0.00 0.00 344.00 126.50" xmlns="http://www.w3.org/2000/svg" xmlns:xlink="http://www.w3.org/1999/xlink">
<g id="graph0" class="graph" transform="scale(1 1) rotate(0) translate(4 122.5)">
<title>onMcpX4DriverSetDacStep</title>
<polygon fill="white" stroke="none" points="-4,4 -4,-122.5 340,-122.5 340,4 -4,4"/>
<!-- Node1148 -->
<g id="node1" class="node"><title>Node1148</title>
<polygon fill="#bfbfbf" stroke="black" points="0,-55 0,-74 146,-74 146,-55 0,-55"/>
<text text-anchor="middle" x="73" y="-62" font-family="Helvetica,sans-Serif" font-size="10.00">onMcpX4DriverSetDacStep</text>
</g>
<!-- Node1149 -->
<g id="node2" class="node"><title>Node1149</title>
<g id="a_node2"><a xlink:href="x4driver_8h.xhtml#a636ce8e277a30e9a8d24a5f05a034782" target="_top" xlink:title="x4driver_set_dac_step">
<polygon fill="white" stroke="red" points="197,-99 197,-118 321,-118 321,-99 197,-99"/>
<text text-anchor="middle" x="259" y="-106" font-family="Helvetica,sans-Serif" font-size="10.00">x4driver_set_dac_step</text>
</a>
</g>
</g>
<!-- Node1148&#45;&gt;Node1149 -->
<g id="edge1" class="edge"><title>Node1148&#45;&gt;Node1149</title>
<path fill="none" stroke="midnightblue" d="M113.925,-74.0473C141.654,-80.6781 178.792,-89.5591 208.418,-96.6435"/>
<polygon fill="midnightblue" stroke="midnightblue" points="207.613,-100.05 218.153,-98.9713 209.241,-93.2415 207.613,-100.05"/>
</g>
<!-- Node1161 -->
<g id="node3" class="node"><title>Node1161</title>
<g id="a_node3"><a xlink:href="xep__dispatch__messages_8h.xhtml#a057fe6f9f6b6da7a806aeaf591500b59" target="_top" xlink:title="Dispatch message to hostcom asking to send ack to host. ">
<polygon fill="white" stroke="red" points="182,-49.5 182,-79.5 336,-79.5 336,-49.5 182,-49.5"/>
<text text-anchor="start" x="190" y="-67.5" font-family="Helvetica,sans-Serif" font-size="10.00">dispatch_message_hostcom</text>
<text text-anchor="middle" x="259" y="-56.5" font-family="Helvetica,sans-Serif" font-size="10.00">_send_ack</text>
</a>
</g>
</g>
<!-- Node1148&#45;&gt;Node1161 -->
<g id="edge2" class="edge"><title>Node1148&#45;&gt;Node1161</title>
<path fill="none" stroke="midnightblue" d="M146.194,-64.5C154.497,-64.5 163.026,-64.5 171.492,-64.5"/>
<polygon fill="midnightblue" stroke="midnightblue" points="171.77,-68.0001 181.77,-64.5 171.77,-61.0001 171.77,-68.0001"/>
</g>
<!-- Node1170 -->
<g id="node4" class="node"><title>Node1170</title>
<g id="a_node4"><a xlink:href="xep__dispatch__messages_8h.xhtml#a454af1ebc681b68eaf1995f56aa2e42c" target="_top" xlink:title="Dispatch message to hostcom asking to send error to host. ">
<polygon fill="white" stroke="red" points="182,-0.5 182,-30.5 336,-30.5 336,-0.5 182,-0.5"/>
<text text-anchor="start" x="190" y="-18.5" font-family="Helvetica,sans-Serif" font-size="10.00">dispatch_message_hostcom</text>
<text text-anchor="middle" x="259" y="-7.5" font-family="Helvetica,sans-Serif" font-size="10.00">_send_error</text>
</a>
</g>
</g>
<!-- Node1148&#45;&gt;Node1170 -->
<g id="edge3" class="edge"><title>Node1148&#45;&gt;Node1170</title>
<path fill="none" stroke="midnightblue" d="M109.914,-54.936C133.107,-48.7595 163.991,-40.5351 191.551,-33.1955"/>
<polygon fill="midnightblue" stroke="midnightblue" points="192.772,-36.4925 201.535,-30.537 190.971,-29.7283 192.772,-36.4925"/>
</g>
</g>
</svg>
