<?xml version="1.0" encoding="UTF-8" standalone="no"?>
<!DOCTYPE svg PUBLIC "-//W3C//DTD SVG 1.1//EN"
 "http://www.w3.org/Graphics/SVG/1.1/DTD/svg11.dtd">
<!-- Generated by graphviz version 2.38.0 (20140413.2041)
 -->
<!-- Title: onMcpStartBootloader Pages: 1 -->
<svg width="323pt" height="214pt"
 viewBox="0.00 0.00 323.00 213.50" xmlns="http://www.w3.org/2000/svg" xmlns:xlink="http://www.w3.org/1999/xlink">
<g id="graph0" class="graph" transform="scale(1 1) rotate(0) translate(4 209.5)">
<title>onMcpStartBootloader</title>
<polygon fill="white" stroke="none" points="-4,4 -4,-209.5 319,-209.5 319,4 -4,4"/>
<!-- Node559 -->
<g id="node1" class="node"><title>Node559</title>
<polygon fill="#bfbfbf" stroke="black" points="0,-82.5 0,-101.5 125,-101.5 125,-82.5 0,-82.5"/>
<text text-anchor="middle" x="62.5" y="-89.5" font-family="Helvetica,sans-Serif" font-size="10.00">onMcpStartBootloader</text>
</g>
<!-- Node560 -->
<g id="node2" class="node"><title>Node560</title>
<g id="a_node2"><a xlink:href="xep__dispatch__messages_8h.xhtml#a6e262ca0c38ec62ef4f097a1cbab9c36" target="_top" xlink:title="Dispatch message to hostcom asking to send string to host. ">
<polygon fill="white" stroke="red" points="161,-175 161,-205 315,-205 315,-175 161,-175"/>
<text text-anchor="start" x="169" y="-193" font-family="Helvetica,sans-Serif" font-size="10.00">dispatch_message_hostcom</text>
<text text-anchor="middle" x="238" y="-182" font-family="Helvetica,sans-Serif" font-size="10.00">_send_data_string</text>
</a>
</g>
</g>
<!-- Node559&#45;&gt;Node560 -->
<g id="edge1" class="edge"><title>Node559&#45;&gt;Node560</title>
<path fill="none" stroke="midnightblue" d="M73.7821,-101.749C90.7155,-117.332 126.085,-147.932 161,-166 164.495,-167.808 168.151,-169.511 171.889,-171.11"/>
<polygon fill="midnightblue" stroke="midnightblue" points="170.722,-174.412 181.307,-174.868 173.316,-167.911 170.722,-174.412"/>
</g>
<!-- Node570 -->
<g id="node3" class="node"><title>Node570</title>
<g id="a_node3"><a xlink:href="xep__dispatch__messages_8h.xhtml#a454af1ebc681b68eaf1995f56aa2e42c" target="_top" xlink:title="Dispatch message to hostcom asking to send error to host. ">
<polygon fill="white" stroke="red" points="161,-126 161,-156 315,-156 315,-126 161,-126"/>
<text text-anchor="start" x="169" y="-144" font-family="Helvetica,sans-Serif" font-size="10.00">dispatch_message_hostcom</text>
<text text-anchor="middle" x="238" y="-133" font-family="Helvetica,sans-Serif" font-size="10.00">_send_error</text>
</a>
</g>
</g>
<!-- Node559&#45;&gt;Node570 -->
<g id="edge2" class="edge"><title>Node559&#45;&gt;Node570</title>
<path fill="none" stroke="midnightblue" d="M97.3644,-101.564C119.138,-107.713 148.1,-115.893 174.001,-123.208"/>
<polygon fill="midnightblue" stroke="midnightblue" points="173.182,-126.613 183.757,-125.963 175.085,-119.877 173.182,-126.613"/>
</g>
<!-- Node571 -->
<g id="node4" class="node"><title>Node571</title>
<g id="a_node4"><a xlink:href="xep__dispatch__messages_8h.xhtml#a057fe6f9f6b6da7a806aeaf591500b59" target="_top" xlink:title="Dispatch message to hostcom asking to send ack to host. ">
<polygon fill="white" stroke="red" points="161,-77 161,-107 315,-107 315,-77 161,-77"/>
<text text-anchor="start" x="169" y="-95" font-family="Helvetica,sans-Serif" font-size="10.00">dispatch_message_hostcom</text>
<text text-anchor="middle" x="238" y="-84" font-family="Helvetica,sans-Serif" font-size="10.00">_send_ack</text>
</a>
</g>
</g>
<!-- Node559&#45;&gt;Node571 -->
<g id="edge3" class="edge"><title>Node559&#45;&gt;Node571</title>
<path fill="none" stroke="midnightblue" d="M125.158,-92C133.489,-92 142.157,-92 150.818,-92"/>
<polygon fill="midnightblue" stroke="midnightblue" points="150.962,-95.5001 160.962,-92 150.961,-88.5001 150.962,-95.5001"/>
</g>
<!-- Node572 -->
<g id="node5" class="node"><title>Node572</title>
<g id="a_node5"><a xlink:href="xep__hal_8h.xhtml#a8e58faffa8a7b0934ca76bc1fa5ef6fa" target="_top" xlink:title="Causes the calling task to wait and yields to another task. ">
<polygon fill="white" stroke="black" points="213,-38.5 213,-57.5 263,-57.5 263,-38.5 213,-38.5"/>
<text text-anchor="middle" x="238" y="-45.5" font-family="Helvetica,sans-Serif" font-size="10.00">xt_wait</text>
</a>
</g>
</g>
<!-- Node559&#45;&gt;Node572 -->
<g id="edge4" class="edge"><title>Node559&#45;&gt;Node572</title>
<path fill="none" stroke="midnightblue" d="M101.147,-82.4527C131.459,-74.7655 173.696,-64.0539 202.995,-56.6236"/>
<polygon fill="midnightblue" stroke="midnightblue" points="203.946,-59.9935 212.779,-54.1426 202.225,-53.2083 203.946,-59.9935"/>
</g>
<!-- Node573 -->
<g id="node6" class="node"><title>Node573</title>
<g id="a_node6"><a xlink:href="xep__hal_8h.xhtml#ace2af126089abe1d676edfc1400d0bf7" target="_top" xlink:title="Triggers a software reset of MCU. ">
<polygon fill="white" stroke="red" points="187.5,-0.5 187.5,-19.5 288.5,-19.5 288.5,-0.5 187.5,-0.5"/>
<text text-anchor="middle" x="238" y="-7.5" font-family="Helvetica,sans-Serif" font-size="10.00">xt_software_reset</text>
</a>
</g>
</g>
<!-- Node559&#45;&gt;Node573 -->
<g id="edge5" class="edge"><title>Node559&#45;&gt;Node573</title>
<path fill="none" stroke="midnightblue" d="M75.3781,-82.4566C93.038,-68.7184 127.721,-43.4374 161,-29 166.732,-26.5135 172.853,-24.3075 179.041,-22.3615"/>
<polygon fill="midnightblue" stroke="midnightblue" points="180.156,-25.6819 188.771,-19.5146 178.191,-18.9636 180.156,-25.6819"/>
</g>
</g>
</svg>
