<?xml version="1.0" encoding="UTF-8" standalone="no"?>
<!DOCTYPE svg PUBLIC "-//W3C//DTD SVG 1.1//EN"
 "http://www.w3.org/Graphics/SVG/1.1/DTD/svg11.dtd">
<!-- Generated by graphviz version 2.38.0 (20140413.2041)
 -->
<!-- Title: xfs_write_file Pages: 1 -->
<svg width="249pt" height="104pt"
 viewBox="0.00 0.00 249.00 104.00" xmlns="http://www.w3.org/2000/svg" xmlns:xlink="http://www.w3.org/1999/xlink">
<g id="graph0" class="graph" transform="scale(1 1) rotate(0) translate(4 100)">
<title>xfs_write_file</title>
<polygon fill="white" stroke="none" points="-4,4 -4,-100 245,-100 245,4 -4,4"/>
<!-- Node339 -->
<g id="node1" class="node"><title>Node339</title>
<polygon fill="#bfbfbf" stroke="black" points="0,-38.5 0,-57.5 77,-57.5 77,-38.5 0,-38.5"/>
<text text-anchor="middle" x="38.5" y="-45.5" font-family="Helvetica,sans-Serif" font-size="10.00">xfs_write_file</text>
</g>
<!-- Node340 -->
<g id="node2" class="node"><title>Node340</title>
<g id="a_node2"><a xlink:href="xfs_8h.xhtml#a31395d7a15d30dbd0e24e0f6800dccf2" target="_top" xlink:title="Commits the file allocation and file contents to flash. ">
<polygon fill="white" stroke="red" points="131.5,-76.5 131.5,-95.5 222.5,-95.5 222.5,-76.5 131.5,-76.5"/>
<text text-anchor="middle" x="177" y="-83.5" font-family="Helvetica,sans-Serif" font-size="10.00">xfs_commit_file</text>
</a>
</g>
</g>
<!-- Node339&#45;&gt;Node340 -->
<g id="edge1" class="edge"><title>Node339&#45;&gt;Node340</title>
<path fill="none" stroke="midnightblue" d="M83.7487,-60.3183C102.503,-65.5393 124.028,-71.5316 141.566,-76.4141"/>
<polygon fill="midnightblue" stroke="midnightblue" points="84.5171,-56.8992 73.9447,-57.589 82.6397,-63.6428 84.5171,-56.8992"/>
</g>
<!-- Node348 -->
<g id="node3" class="node"><title>Node348</title>
<g id="a_node3"><a xlink:href="xtfile_8c.xhtml#a10291a10929d065f8ec410f55e716bf1" target="_top" xlink:title="Creates and opens a new file with given type and identifiers with the contents provided in the data b...">
<polygon fill="white" stroke="black" points="113,-38.5 113,-57.5 241,-57.5 241,-38.5 113,-38.5"/>
<text text-anchor="middle" x="177" y="-45.5" font-family="Helvetica,sans-Serif" font-size="10.00">xtfile_create_and_open</text>
</a>
</g>
</g>
<!-- Node339&#45;&gt;Node348 -->
<g id="edge2" class="edge"><title>Node339&#45;&gt;Node348</title>
<path fill="none" stroke="midnightblue" d="M87.3156,-48C95.5495,-48 104.221,-48 112.785,-48"/>
<polygon fill="midnightblue" stroke="midnightblue" points="87.1606,-44.5001 77.1606,-48 87.1605,-51.5001 87.1606,-44.5001"/>
</g>
<!-- Node349 -->
<g id="node4" class="node"><title>Node349</title>
<g id="a_node4"><a xlink:href="xtfile_8c.xhtml#a1c5bee91f1654db6aaca14d4f313c32a" target="_top" xlink:title="Writes data to file. ">
<polygon fill="white" stroke="red" points="143.5,-0.5 143.5,-19.5 210.5,-19.5 210.5,-0.5 143.5,-0.5"/>
<text text-anchor="middle" x="177" y="-7.5" font-family="Helvetica,sans-Serif" font-size="10.00">xtfile_write</text>
</a>
</g>
</g>
<!-- Node339&#45;&gt;Node349 -->
<g id="edge3" class="edge"><title>Node339&#45;&gt;Node349</title>
<path fill="none" stroke="midnightblue" d="M83.7903,-35.6701C103.21,-30.2638 125.595,-24.0321 143.446,-19.0627"/>
<polygon fill="midnightblue" stroke="midnightblue" points="82.6397,-32.3572 73.9447,-38.411 84.5171,-39.1008 82.6397,-32.3572"/>
</g>
</g>
</svg>
