<?xml version="1.0" encoding="UTF-8" standalone="no"?>
<!DOCTYPE svg PUBLIC "-//W3C//DTD SVG 1.1//EN"
 "http://www.w3.org/Graphics/SVG/1.1/DTD/svg11.dtd">
<!-- Generated by graphviz version 2.38.0 (20140413.2041)
 -->
<!-- Title: xfs_write_file Pages: 1 -->
<svg width="221pt" height="116pt"
 viewBox="0.00 0.00 221.00 116.00" xmlns="http://www.w3.org/2000/svg" xmlns:xlink="http://www.w3.org/1999/xlink">
<g id="graph0" class="graph" transform="scale(1 1) rotate(0) translate(4 112)">
<title>xfs_write_file</title>
<polygon fill="white" stroke="none" points="-4,4 -4,-112 217,-112 217,4 -4,4"/>
<!-- Node624 -->
<g id="node1" class="node"><title>Node624</title>
<polygon fill="#bfbfbf" stroke="black" points="0,-44.5 0,-63.5 77,-63.5 77,-44.5 0,-44.5"/>
<text text-anchor="middle" x="38.5" y="-51.5" font-family="Helvetica,sans-Serif" font-size="10.00">xfs_write_file</text>
</g>
<!-- Node625 -->
<g id="node2" class="node"><title>Node625</title>
<g id="a_node2"><a xlink:href="xfs_8c.xhtml#a3a9d53e8866064398160e53b6a7aff04" target="_top" xlink:title="xfs_get_file_entry">
<polygon fill="white" stroke="red" points="113,-88.5 113,-107.5 213,-107.5 213,-88.5 113,-88.5"/>
<text text-anchor="middle" x="163" y="-95.5" font-family="Helvetica,sans-Serif" font-size="10.00">xfs_get_file_entry</text>
</a>
</g>
</g>
<!-- Node624&#45;&gt;Node625 -->
<g id="edge1" class="edge"><title>Node624&#45;&gt;Node625</title>
<path fill="none" stroke="midnightblue" d="M66.0807,-63.5473C83.578,-69.8321 106.704,-78.1385 125.864,-85.0205"/>
<polygon fill="midnightblue" stroke="midnightblue" points="124.877,-88.3848 135.471,-88.4713 127.243,-81.7969 124.877,-88.3848"/>
</g>
<!-- Node631 -->
<g id="node3" class="node"><title>Node631</title>
<g id="a_node3"><a xlink:href="xfs_8c.xhtml#a62712def95e9851bb81044cf738116fb" target="_top" xlink:title="xfs_file_offset_to\l_pointer">
<polygon fill="white" stroke="black" points="115,-39 115,-69 211,-69 211,-39 115,-39"/>
<text text-anchor="start" x="123" y="-57" font-family="Helvetica,sans-Serif" font-size="10.00">xfs_file_offset_to</text>
<text text-anchor="middle" x="163" y="-46" font-family="Helvetica,sans-Serif" font-size="10.00">_pointer</text>
</a>
</g>
</g>
<!-- Node624&#45;&gt;Node631 -->
<g id="edge2" class="edge"><title>Node624&#45;&gt;Node631</title>
<path fill="none" stroke="midnightblue" d="M77.2536,-54C85.8345,-54 95.1407,-54 104.339,-54"/>
<polygon fill="midnightblue" stroke="midnightblue" points="104.633,-57.5001 114.633,-54 104.633,-50.5001 104.633,-57.5001"/>
</g>
<!-- Node632 -->
<g id="node4" class="node"><title>Node632</title>
<g id="a_node4"><a xlink:href="xep__hal_8h.xhtml#a0f73f9b3594686e4318f0ca195cc38b4" target="_top" xlink:title="Writes data to flash. ">
<polygon fill="white" stroke="red" points="118.5,-0.5 118.5,-19.5 207.5,-19.5 207.5,-0.5 118.5,-0.5"/>
<text text-anchor="middle" x="163" y="-7.5" font-family="Helvetica,sans-Serif" font-size="10.00">xtio_flash_write</text>
</a>
</g>
</g>
<!-- Node624&#45;&gt;Node632 -->
<g id="edge3" class="edge"><title>Node624&#45;&gt;Node632</title>
<path fill="none" stroke="midnightblue" d="M66.0807,-44.4527C83.578,-38.1679 106.704,-29.8615 125.864,-22.9795"/>
<polygon fill="midnightblue" stroke="midnightblue" points="127.243,-26.2031 135.471,-19.5287 124.877,-19.6152 127.243,-26.2031"/>
</g>
</g>
</svg>
