<?xml version="1.0" encoding="UTF-8" standalone="no"?>
<!DOCTYPE svg PUBLIC "-//W3C//DTD SVG 1.1//EN"
 "http://www.w3.org/Graphics/SVG/1.1/DTD/svg11.dtd">
<!-- Generated by graphviz version 2.38.0 (20140413.2041)
 -->
<!-- Title: xfs_get_file_entry Pages: 1 -->
<svg width="225pt" height="104pt"
 viewBox="0.00 0.00 225.00 104.00" xmlns="http://www.w3.org/2000/svg" xmlns:xlink="http://www.w3.org/1999/xlink">
<g id="graph0" class="graph" transform="scale(1 1) rotate(0) translate(4 100)">
<title>xfs_get_file_entry</title>
<polygon fill="white" stroke="none" points="-4,4 -4,-100 221,-100 221,4 -4,4"/>
<!-- Node342 -->
<g id="node1" class="node"><title>Node342</title>
<polygon fill="#bfbfbf" stroke="black" points="0,-38.5 0,-57.5 100,-57.5 100,-38.5 0,-38.5"/>
<text text-anchor="middle" x="50" y="-45.5" font-family="Helvetica,sans-Serif" font-size="10.00">xfs_get_file_entry</text>
</g>
<!-- Node343 -->
<g id="node2" class="node"><title>Node343</title>
<g id="a_node2"><a xlink:href="xfs_8c.xhtml#a538f8868287ede7b1e971f0ee38e001d" target="_top" xlink:title="xfs_lock">
<polygon fill="white" stroke="red" points="149.5,-76.5 149.5,-95.5 203.5,-95.5 203.5,-76.5 149.5,-76.5"/>
<text text-anchor="middle" x="176.5" y="-83.5" font-family="Helvetica,sans-Serif" font-size="10.00">xfs_lock</text>
</a>
</g>
</g>
<!-- Node342&#45;&gt;Node343 -->
<g id="edge1" class="edge"><title>Node342&#45;&gt;Node343</title>
<path fill="none" stroke="midnightblue" d="M82.4166,-57.589C99.7996,-62.8947 121.474,-69.5102 139.534,-75.0223"/>
<polygon fill="midnightblue" stroke="midnightblue" points="138.558,-78.3839 149.144,-77.9557 140.602,-71.6888 138.558,-78.3839"/>
</g>
<!-- Node345 -->
<g id="node3" class="node"><title>Node345</title>
<g id="a_node3"><a xlink:href="xfs_8c.xhtml#a215a24f98332957af4751a173771183a" target="_top" xlink:title="xfs_file_count">
<polygon fill="white" stroke="black" points="136,-38.5 136,-57.5 217,-57.5 217,-38.5 136,-38.5"/>
<text text-anchor="middle" x="176.5" y="-45.5" font-family="Helvetica,sans-Serif" font-size="10.00">xfs_file_count</text>
</a>
</g>
</g>
<!-- Node342&#45;&gt;Node345 -->
<g id="edge2" class="edge"><title>Node342&#45;&gt;Node345</title>
<path fill="none" stroke="midnightblue" d="M100.206,-48C108.614,-48 117.354,-48 125.775,-48"/>
<polygon fill="midnightblue" stroke="midnightblue" points="125.845,-51.5001 135.845,-48 125.845,-44.5001 125.845,-51.5001"/>
</g>
<!-- Node346 -->
<g id="node4" class="node"><title>Node346</title>
<g id="a_node4"><a xlink:href="xfs_8c.xhtml#adc902d397994654027ba6a892ba72360" target="_top" xlink:title="xfs_unlock">
<polygon fill="white" stroke="red" points="143.5,-0.5 143.5,-19.5 209.5,-19.5 209.5,-0.5 143.5,-0.5"/>
<text text-anchor="middle" x="176.5" y="-7.5" font-family="Helvetica,sans-Serif" font-size="10.00">xfs_unlock</text>
</a>
</g>
</g>
<!-- Node342&#45;&gt;Node346 -->
<g id="edge3" class="edge"><title>Node342&#45;&gt;Node346</title>
<path fill="none" stroke="midnightblue" d="M82.4166,-38.411C98.1935,-33.5956 117.505,-27.7012 134.441,-22.532"/>
<polygon fill="midnightblue" stroke="midnightblue" points="135.551,-25.8528 144.093,-19.5859 133.507,-19.1577 135.551,-25.8528"/>
</g>
</g>
</svg>
