<?xml version="1.0" encoding="UTF-8" standalone="no"?>
<!DOCTYPE svg PUBLIC "-//W3C//DTD SVG 1.1//EN"
 "http://www.w3.org/Graphics/SVG/1.1/DTD/svg11.dtd">
<!-- Generated by graphviz version 2.38.0 (20140413.2041)
 -->
<!-- Title: xfs_delete_file_entry_from_allocation_table Pages: 1 -->
<svg width="289pt" height="39pt"
 viewBox="0.00 0.00 289.00 39.00" xmlns="http://www.w3.org/2000/svg" xmlns:xlink="http://www.w3.org/1999/xlink">
<g id="graph0" class="graph" transform="scale(1 1) rotate(0) translate(4 35)">
<title>xfs_delete_file_entry_from_allocation_table</title>
<polygon fill="white" stroke="none" points="-4,4 -4,-35 285,-35 285,4 -4,4"/>
<!-- Node176 -->
<g id="node1" class="node"><title>Node176</title>
<polygon fill="#bfbfbf" stroke="black" points="0,-0.5 0,-30.5 125,-30.5 125,-0.5 0,-0.5"/>
<text text-anchor="start" x="8" y="-18.5" font-family="Helvetica,sans-Serif" font-size="10.00">xfs_delete_file_entry</text>
<text text-anchor="middle" x="62.5" y="-7.5" font-family="Helvetica,sans-Serif" font-size="10.00">_from_allocation_table</text>
</g>
<!-- Node177 -->
<g id="node2" class="node"><title>Node177</title>
<g id="a_node2"><a xlink:href="xfs_8c.xhtml#a552b5e346f54bd8edacde5b2a6d699ac" target="_top" xlink:title="xfs_update_allocation\l_table_crc">
<polygon fill="white" stroke="red" points="161,-0.5 161,-30.5 281,-30.5 281,-0.5 161,-0.5"/>
<text text-anchor="start" x="169" y="-18.5" font-family="Helvetica,sans-Serif" font-size="10.00">xfs_update_allocation</text>
<text text-anchor="middle" x="221" y="-7.5" font-family="Helvetica,sans-Serif" font-size="10.00">_table_crc</text>
</a>
</g>
</g>
<!-- Node176&#45;&gt;Node177 -->
<g id="edge1" class="edge"><title>Node176&#45;&gt;Node177</title>
<path fill="none" stroke="midnightblue" d="M125.353,-15.5C133.675,-15.5 142.255,-15.5 150.695,-15.5"/>
<polygon fill="midnightblue" stroke="midnightblue" points="150.893,-19.0001 160.893,-15.5 150.893,-12.0001 150.893,-19.0001"/>
</g>
</g>
</svg>
