<?xml version="1.0" encoding="UTF-8" standalone="no"?>
<!DOCTYPE svg PUBLIC "-//W3C//DTD SVG 1.1//EN"
 "http://www.w3.org/Graphics/SVG/1.1/DTD/svg11.dtd">
<!-- Generated by graphviz version 2.38.0 (20140413.2041)
 -->
<!-- Title: xfs_get_largest_free_size Pages: 1 -->
<svg width="310pt" height="88pt"
 viewBox="0.00 0.00 310.00 88.00" xmlns="http://www.w3.org/2000/svg" xmlns:xlink="http://www.w3.org/1999/xlink">
<g id="graph0" class="graph" transform="scale(1 1) rotate(0) translate(4 84)">
<title>xfs_get_largest_free_size</title>
<polygon fill="white" stroke="none" points="-4,4 -4,-84 306,-84 306,4 -4,4"/>
<!-- Node398 -->
<g id="node1" class="node"><title>Node398</title>
<polygon fill="#bfbfbf" stroke="black" points="0,-30 0,-49 137,-49 137,-30 0,-30"/>
<text text-anchor="middle" x="68.5" y="-37" font-family="Helvetica,sans-Serif" font-size="10.00">xfs_get_largest_free_size</text>
</g>
<!-- Node399 -->
<g id="node2" class="node"><title>Node399</title>
<g id="a_node2"><a xlink:href="xtfile_8c.xhtml#aa0f4de152090c30743bb0620137eb94c" target="_top" xlink:title="Gets the largest free section of space in the file system. ">
<polygon fill="white" stroke="black" points="188.5,-49.5 188.5,-79.5 286.5,-79.5 286.5,-49.5 188.5,-49.5"/>
<text text-anchor="start" x="196.5" y="-67.5" font-family="Helvetica,sans-Serif" font-size="10.00">xtfile_get_largest</text>
<text text-anchor="middle" x="237.5" y="-56.5" font-family="Helvetica,sans-Serif" font-size="10.00">_free_size</text>
</a>
</g>
</g>
<!-- Node398&#45;&gt;Node399 -->
<g id="edge1" class="edge"><title>Node398&#45;&gt;Node399</title>
<path fill="none" stroke="midnightblue" d="M143.109,-50.5194C158.456,-52.8168 174.254,-55.1818 188.392,-57.2982"/>
<polygon fill="midnightblue" stroke="midnightblue" points="143.52,-47.0419 133.112,-49.0227 142.484,-53.9648 143.52,-47.0419"/>
</g>
<!-- Node400 -->
<g id="node3" class="node"><title>Node400</title>
<g id="a_node3"><a xlink:href="xthousekeeping_8c.xhtml#ad5a7723fb96e5789fa7ecb2554da3b04" target="_top" xlink:title="xthousekeeping_trigger\l_crashdump">
<polygon fill="white" stroke="red" points="173,-0.5 173,-30.5 302,-30.5 302,-0.5 173,-0.5"/>
<text text-anchor="start" x="181" y="-18.5" font-family="Helvetica,sans-Serif" font-size="10.00">xthousekeeping_trigger</text>
<text text-anchor="middle" x="237.5" y="-7.5" font-family="Helvetica,sans-Serif" font-size="10.00">_crashdump</text>
</a>
</g>
</g>
<!-- Node398&#45;&gt;Node400 -->
<g id="edge2" class="edge"><title>Node398&#45;&gt;Node400</title>
<path fill="none" stroke="midnightblue" d="M146.072,-28.4957C155.069,-27.2027 164.173,-25.8943 172.964,-24.6309"/>
<polygon fill="midnightblue" stroke="midnightblue" points="145.383,-25.0586 135.983,-29.9456 146.379,-31.9874 145.383,-25.0586"/>
</g>
</g>
</svg>
