<?xml version="1.0" encoding="UTF-8" standalone="no"?>
<!DOCTYPE svg PUBLIC "-//W3C//DTD SVG 1.1//EN"
 "http://www.w3.org/Graphics/SVG/1.1/DTD/svg11.dtd">
<!-- Generated by graphviz version 2.38.0 (20140413.2041)
 -->
<!-- Title: xfs_format Pages: 1 -->
<svg width="189pt" height="66pt"
 viewBox="0.00 0.00 189.00 66.00" xmlns="http://www.w3.org/2000/svg" xmlns:xlink="http://www.w3.org/1999/xlink">
<g id="graph0" class="graph" transform="scale(1 1) rotate(0) translate(4 62)">
<title>xfs_format</title>
<polygon fill="white" stroke="none" points="-4,4 -4,-62 185,-62 185,4 -4,4"/>
<!-- Node187 -->
<g id="node1" class="node"><title>Node187</title>
<polygon fill="#bfbfbf" stroke="black" points="0,-19.5 0,-38.5 68,-38.5 68,-19.5 0,-19.5"/>
<text text-anchor="middle" x="34" y="-26.5" font-family="Helvetica,sans-Serif" font-size="10.00">xfs_format</text>
</g>
<!-- Node188 -->
<g id="node2" class="node"><title>Node188</title>
<g id="a_node2"><a xlink:href="xfs_8h.xhtml#acb8c539cd456d3e5789a479ae0642acd" target="_top" xlink:title="Initialize the file system. ">
<polygon fill="white" stroke="red" points="117.5,-38.5 117.5,-57.5 167.5,-57.5 167.5,-38.5 117.5,-38.5"/>
<text text-anchor="middle" x="142.5" y="-45.5" font-family="Helvetica,sans-Serif" font-size="10.00">xfs_init</text>
</a>
</g>
</g>
<!-- Node187&#45;&gt;Node188 -->
<g id="edge1" class="edge"><title>Node187&#45;&gt;Node188</title>
<path fill="none" stroke="midnightblue" d="M78.0763,-36.685C91.4059,-39.063 105.619,-41.5987 117.204,-43.6656"/>
<polygon fill="midnightblue" stroke="midnightblue" points="78.5728,-33.2184 68.1135,-34.9076 77.3433,-40.1096 78.5728,-33.2184"/>
</g>
<!-- Node193 -->
<g id="node3" class="node"><title>Node193</title>
<g id="a_node3"><a xlink:href="xtfile_8c.xhtml#ad5d7e5fa0eb1af8a97fed2e0d14cc4a1" target="_top" xlink:title="Formats the file system. ">
<polygon fill="white" stroke="red" points="104,-0.5 104,-19.5 181,-19.5 181,-0.5 104,-0.5"/>
<text text-anchor="middle" x="142.5" y="-7.5" font-family="Helvetica,sans-Serif" font-size="10.00">xtfile_format</text>
</a>
</g>
</g>
<!-- Node187&#45;&gt;Node193 -->
<g id="edge2" class="edge"><title>Node187&#45;&gt;Node193</title>
<path fill="none" stroke="midnightblue" d="M77.9799,-21.3322C86.578,-19.7983 95.5475,-18.1981 103.945,-16.6999"/>
<polygon fill="midnightblue" stroke="midnightblue" points="77.3433,-17.8904 68.1135,-23.0924 78.5728,-24.7816 77.3433,-17.8904"/>
</g>
</g>
</svg>
