<?xml version="1.0" encoding="UTF-8" standalone="no"?>
<!DOCTYPE svg PUBLIC "-//W3C//DTD SVG 1.1//EN"
 "http://www.w3.org/Graphics/SVG/1.1/DTD/svg11.dtd">
<!-- Generated by graphviz version 2.38.0 (20140413.2041)
 -->
<!-- Title: xfs_clear_file Pages: 1 -->
<svg width="249pt" height="116pt"
 viewBox="0.00 0.00 249.00 116.00" xmlns="http://www.w3.org/2000/svg" xmlns:xlink="http://www.w3.org/1999/xlink">
<g id="graph0" class="graph" transform="scale(1 1) rotate(0) translate(4 112)">
<title>xfs_clear_file</title>
<polygon fill="white" stroke="none" points="-4,4 -4,-112 245,-112 245,4 -4,4"/>
<!-- Node23 -->
<g id="node1" class="node"><title>Node23</title>
<polygon fill="#bfbfbf" stroke="black" points="0,-44.5 0,-63.5 77,-63.5 77,-44.5 0,-44.5"/>
<text text-anchor="middle" x="38.5" y="-51.5" font-family="Helvetica,sans-Serif" font-size="10.00">xfs_clear_file</text>
</g>
<!-- Node24 -->
<g id="node2" class="node"><title>Node24</title>
<g id="a_node2"><a xlink:href="xfs_8h.xhtml#a31395d7a15d30dbd0e24e0f6800dccf2" target="_top" xlink:title="Commits the file allocation and file contents to flash. ">
<polygon fill="white" stroke="red" points="131.5,-88.5 131.5,-107.5 222.5,-107.5 222.5,-88.5 131.5,-88.5"/>
<text text-anchor="middle" x="177" y="-95.5" font-family="Helvetica,sans-Serif" font-size="10.00">xfs_commit_file</text>
</a>
</g>
</g>
<!-- Node23&#45;&gt;Node24 -->
<g id="edge1" class="edge"><title>Node23&#45;&gt;Node24</title>
<path fill="none" stroke="midnightblue" d="M76.7929,-66.9664C88.3681,-70.9151 101.187,-75.2111 113,-79 122.899,-82.1752 133.721,-85.4938 143.559,-88.4527"/>
<polygon fill="midnightblue" stroke="midnightblue" points="77.5922,-63.5405 66.9975,-63.6072 75.3214,-70.1619 77.5922,-63.5405"/>
</g>
<!-- Node32 -->
<g id="node3" class="node"><title>Node32</title>
<g id="a_node3"><a xlink:href="xtfile_8c.xhtml#aab3ec81dba994ab42e047561a13c5e27" target="_top" xlink:title="Creates and opens a new file with given type and identifiers with an empty content of given size...">
<polygon fill="white" stroke="red" points="113,-39 113,-69 241,-69 241,-39 113,-39"/>
<text text-anchor="start" x="121" y="-57" font-family="Helvetica,sans-Serif" font-size="10.00">xtfile_create_and_open</text>
<text text-anchor="middle" x="177" y="-46" font-family="Helvetica,sans-Serif" font-size="10.00">_empty</text>
</a>
</g>
</g>
<!-- Node23&#45;&gt;Node32 -->
<g id="edge2" class="edge"><title>Node23&#45;&gt;Node32</title>
<path fill="none" stroke="midnightblue" d="M87.3156,-54C95.5495,-54 104.221,-54 112.785,-54"/>
<polygon fill="midnightblue" stroke="midnightblue" points="87.1606,-50.5001 77.1606,-54 87.1605,-57.5001 87.1606,-50.5001"/>
</g>
<!-- Node36 -->
<g id="node4" class="node"><title>Node36</title>
<g id="a_node4"><a xlink:href="xtfile_8c.xhtml#ac05fab0f49744c5d44341417604533d8" target="_top" xlink:title="Clears the entire file contents. ">
<polygon fill="white" stroke="black" points="143,-0.5 143,-19.5 211,-19.5 211,-0.5 143,-0.5"/>
<text text-anchor="middle" x="177" y="-7.5" font-family="Helvetica,sans-Serif" font-size="10.00">xtfile_clear</text>
</a>
</g>
</g>
<!-- Node23&#45;&gt;Node36 -->
<g id="edge3" class="edge"><title>Node23&#45;&gt;Node36</title>
<path fill="none" stroke="midnightblue" d="M78.0289,-41.3532C89.2948,-37.6731 101.635,-33.6594 113,-30 123.705,-26.5532 135.446,-22.8145 145.861,-19.5124"/>
<polygon fill="midnightblue" stroke="midnightblue" points="76.8731,-38.0487 68.4566,-44.484 79.0492,-44.7019 76.8731,-38.0487"/>
</g>
</g>
</svg>
