<?xml version="1.0" encoding="UTF-8" standalone="no"?>
<!DOCTYPE svg PUBLIC "-//W3C//DTD SVG 1.1//EN"
 "http://www.w3.org/Graphics/SVG/1.1/DTD/svg11.dtd">
<!-- Generated by graphviz version 2.38.0 (20140413.2041)
 -->
<!-- Title: xt_get_system_timer_us Pages: 1 -->
<svg width="307pt" height="116pt"
 viewBox="0.00 0.00 307.00 116.00" xmlns="http://www.w3.org/2000/svg" xmlns:xlink="http://www.w3.org/1999/xlink">
<g id="graph0" class="graph" transform="scale(1 1) rotate(0) translate(4 112)">
<title>xt_get_system_timer_us</title>
<polygon fill="white" stroke="none" points="-4,4 -4,-112 303,-112 303,4 -4,4"/>
<!-- Node253 -->
<g id="node1" class="node"><title>Node253</title>
<polygon fill="#bfbfbf" stroke="black" points="0,-44.5 0,-63.5 134,-63.5 134,-44.5 0,-44.5"/>
<text text-anchor="middle" x="67" y="-51.5" font-family="Helvetica,sans-Serif" font-size="10.00">xt_get_system_timer_us</text>
</g>
<!-- Node254 -->
<g id="node2" class="node"><title>Node254</title>
<g id="a_node2"><a xlink:href="xt__system_8c.xhtml#a7d0980e5e1fb4f42a5d10102c91609f4" target="_top" xlink:title="Delays the execution for the specified number of microseconds. ">
<polygon fill="white" stroke="red" points="198,-88.5 198,-107.5 271,-107.5 271,-88.5 198,-88.5"/>
<text text-anchor="middle" x="234.5" y="-95.5" font-family="Helvetica,sans-Serif" font-size="10.00">xt_delay_us</text>
</a>
</g>
</g>
<!-- Node253&#45;&gt;Node254 -->
<g id="edge1" class="edge"><title>Node253&#45;&gt;Node254</title>
<path fill="none" stroke="midnightblue" d="M113.753,-66.1639C140.332,-73.2303 173.324,-82.0016 197.944,-88.547"/>
<polygon fill="midnightblue" stroke="midnightblue" points="114.475,-62.7343 103.911,-63.5473 112.676,-69.4993 114.475,-62.7343"/>
</g>
<!-- Node265 -->
<g id="node3" class="node"><title>Node265</title>
<g id="a_node3"><a xlink:href="xthousekeeping_8c.xhtml#ad5a7723fb96e5789fa7ecb2554da3b04" target="_top" xlink:title="xthousekeeping_trigger\l_crashdump">
<polygon fill="white" stroke="red" points="170,-39 170,-69 299,-69 299,-39 170,-39"/>
<text text-anchor="start" x="178" y="-57" font-family="Helvetica,sans-Serif" font-size="10.00">xthousekeeping_trigger</text>
<text text-anchor="middle" x="234.5" y="-46" font-family="Helvetica,sans-Serif" font-size="10.00">_crashdump</text>
</a>
</g>
</g>
<!-- Node253&#45;&gt;Node265 -->
<g id="edge2" class="edge"><title>Node253&#45;&gt;Node265</title>
<path fill="none" stroke="midnightblue" d="M144.59,-54C153.03,-54 161.555,-54 169.813,-54"/>
<polygon fill="midnightblue" stroke="midnightblue" points="144.362,-50.5001 134.362,-54 144.362,-57.5001 144.362,-50.5001"/>
</g>
<!-- Node270 -->
<g id="node4" class="node"><title>Node270</title>
<g id="a_node4"><a xlink:href="xttoolbox_8c.xhtml#adfa8238f924a2d17957bdefcbab51490" target="_top" xlink:title="Get accurate timer in microseconds. ">
<polygon fill="white" stroke="red" points="185.5,-0.5 185.5,-19.5 283.5,-19.5 283.5,-0.5 185.5,-0.5"/>
<text text-anchor="middle" x="234.5" y="-7.5" font-family="Helvetica,sans-Serif" font-size="10.00">xttb_systimer_us</text>
</a>
</g>
</g>
<!-- Node253&#45;&gt;Node270 -->
<g id="edge3" class="edge"><title>Node253&#45;&gt;Node270</title>
<path fill="none" stroke="midnightblue" d="M113.718,-41.8453C140.201,-34.8045 173.059,-26.0688 197.659,-19.5287"/>
<polygon fill="midnightblue" stroke="midnightblue" points="112.676,-38.5007 103.911,-44.4527 114.475,-45.2657 112.676,-38.5007"/>
</g>
</g>
</svg>
