<?xml version="1.0" encoding="UTF-8" standalone="no"?>
<!DOCTYPE svg PUBLIC "-//W3C//DTD SVG 1.1//EN"
 "http://www.w3.org/Graphics/SVG/1.1/DTD/svg11.dtd">
<!-- Generated by graphviz version 2.38.0 (20140413.2041)
 -->
<!-- Title: xt_wait Pages: 1 -->
<svg width="239pt" height="230pt"
 viewBox="0.00 0.00 239.00 229.50" xmlns="http://www.w3.org/2000/svg" xmlns:xlink="http://www.w3.org/1999/xlink">
<g id="graph0" class="graph" transform="scale(1 1) rotate(0) translate(4 225.5)">
<title>xt_wait</title>
<polygon fill="white" stroke="none" points="-4,4 -4,-225.5 235,-225.5 235,4 -4,4"/>
<!-- Node524 -->
<g id="node1" class="node"><title>Node524</title>
<polygon fill="#bfbfbf" stroke="black" points="0,-107 0,-126 50,-126 50,-107 0,-107"/>
<text text-anchor="middle" x="25" y="-114" font-family="Helvetica,sans-Serif" font-size="10.00">xt_wait</text>
</g>
<!-- Node525 -->
<g id="node2" class="node"><title>Node525</title>
<g id="a_node2"><a xlink:href="xt__selftest_8c.xhtml#a41d0ad3dacbf971ccdc2c0c1f7cb3bc6" target="_top" xlink:title="xt_selftest_x4_connectivity">
<polygon fill="white" stroke="red" points="86,-202 86,-221 231,-221 231,-202 86,-202"/>
<text text-anchor="middle" x="158.5" y="-209" font-family="Helvetica,sans-Serif" font-size="10.00">xt_selftest_x4_connectivity</text>
</a>
</g>
</g>
<!-- Node524&#45;&gt;Node525 -->
<g id="edge1" class="edge"><title>Node524&#45;&gt;Node525</title>
<path fill="none" stroke="midnightblue" d="M36.0509,-135.255C46.3359,-152.659 63.9176,-177.997 86,-192.5 91.9046,-196.378 98.5724,-199.467 105.403,-201.926"/>
<polygon fill="midnightblue" stroke="midnightblue" points="38.8259,-133.051 30.8597,-126.066 32.7313,-136.494 38.8259,-133.051"/>
</g>
<!-- Node531 -->
<g id="node3" class="node"><title>Node531</title>
<g id="a_node3"><a xlink:href="xep__application__mcp__callbacks_8h.xhtml#a8a66a26f3081dd2c2e037353a8de8fc8" target="_top" xlink:title="onMcpSetBaudrate">
<polygon fill="white" stroke="red" points="104,-164 104,-183 213,-183 213,-164 104,-164"/>
<text text-anchor="middle" x="158.5" y="-171" font-family="Helvetica,sans-Serif" font-size="10.00">onMcpSetBaudrate</text>
</a>
</g>
</g>
<!-- Node524&#45;&gt;Node531 -->
<g id="edge2" class="edge"><title>Node524&#45;&gt;Node531</title>
<path fill="none" stroke="midnightblue" d="M46.9119,-131.974C58.0575,-139.632 72.2717,-148.498 86,-154.5 94.4733,-158.204 103.836,-161.328 112.918,-163.905"/>
<polygon fill="midnightblue" stroke="midnightblue" points="48.8852,-129.082 38.6991,-126.168 44.8446,-134.798 48.8852,-129.082"/>
</g>
<!-- Node532 -->
<g id="node4" class="node"><title>Node532</title>
<g id="a_node4"><a xlink:href="xep__application__mcp__callbacks_8h.xhtml#af7cff88ca2e2e7bf89b8616a868e2cda" target="_top" xlink:title="onMcpModuleReset">
<polygon fill="white" stroke="red" points="104,-126 104,-145 213,-145 213,-126 104,-126"/>
<text text-anchor="middle" x="158.5" y="-133" font-family="Helvetica,sans-Serif" font-size="10.00">onMcpModuleReset</text>
</a>
</g>
</g>
<!-- Node524&#45;&gt;Node532 -->
<g id="edge3" class="edge"><title>Node524&#45;&gt;Node532</title>
<path fill="none" stroke="midnightblue" d="M60.2451,-121.448C73.5471,-123.37 89.1021,-125.617 103.821,-127.744"/>
<polygon fill="midnightblue" stroke="midnightblue" points="60.5169,-117.951 50.1191,-119.985 59.5158,-124.879 60.5169,-117.951"/>
</g>
<!-- Node527 -->
<g id="node5" class="node"><title>Node527</title>
<g id="a_node5"><a xlink:href="xep__application__mcp__callbacks_8h.xhtml#ade8de22b982f74c728af66c33bcf42e2" target="_top" xlink:title="onMcpSystemRunTest">
<polygon fill="white" stroke="red" points="98,-88 98,-107 219,-107 219,-88 98,-88"/>
<text text-anchor="middle" x="158.5" y="-95" font-family="Helvetica,sans-Serif" font-size="10.00">onMcpSystemRunTest</text>
</a>
</g>
</g>
<!-- Node524&#45;&gt;Node527 -->
<g id="edge4" class="edge"><title>Node524&#45;&gt;Node527</title>
<path fill="none" stroke="midnightblue" d="M60.2042,-111.558C71.7719,-109.887 85.047,-107.968 97.996,-106.098"/>
<polygon fill="midnightblue" stroke="midnightblue" points="59.5158,-108.121 50.1191,-113.015 60.5169,-115.049 59.5158,-108.121"/>
</g>
<!-- Node533 -->
<g id="node6" class="node"><title>Node533</title>
<g id="a_node6"><a xlink:href="xep__application__mcp__callbacks_8h.xhtml#a8f52f6e72bd93b3a11b2c922730ee484" target="_top" xlink:title="onMcpStartBootloader">
<polygon fill="white" stroke="red" points="96,-50 96,-69 221,-69 221,-50 96,-50"/>
<text text-anchor="middle" x="158.5" y="-57" font-family="Helvetica,sans-Serif" font-size="10.00">onMcpStartBootloader</text>
</a>
</g>
</g>
<!-- Node524&#45;&gt;Node533 -->
<g id="edge5" class="edge"><title>Node524&#45;&gt;Node533</title>
<path fill="none" stroke="midnightblue" d="M46.9119,-101.026C58.0575,-93.3678 72.2717,-84.5019 86,-78.5 94.4733,-74.7956 103.836,-71.6719 112.918,-69.0954"/>
<polygon fill="midnightblue" stroke="midnightblue" points="44.8446,-98.2016 38.6991,-106.832 48.8852,-103.918 44.8446,-98.2016"/>
</g>
<!-- Node534 -->
<g id="node7" class="node"><title>Node534</title>
<g id="a_node7"><a xlink:href="xep__application__mcp__callbacks_8c.xhtml#a7f8cc9c9173f6cd4a55f1679d3c55e8f" target="_top" xlink:title="wait_and_confirm_file\l_delete">
<polygon fill="white" stroke="red" points="99,-0.5 99,-30.5 218,-30.5 218,-0.5 99,-0.5"/>
<text text-anchor="start" x="107" y="-18.5" font-family="Helvetica,sans-Serif" font-size="10.00">wait_and_confirm_file</text>
<text text-anchor="middle" x="158.5" y="-7.5" font-family="Helvetica,sans-Serif" font-size="10.00">_delete</text>
</a>
</g>
</g>
<!-- Node524&#45;&gt;Node534 -->
<g id="edge6" class="edge"><title>Node524&#45;&gt;Node534</title>
<path fill="none" stroke="midnightblue" d="M36.4744,-97.8449C46.9659,-80.7188 64.6038,-55.7567 86,-40.5 91.3535,-36.6827 97.3432,-33.4028 103.517,-30.5961"/>
<polygon fill="midnightblue" stroke="midnightblue" points="33.2062,-96.4973 31.1485,-106.89 39.2383,-100.049 33.2062,-96.4973"/>
</g>
</g>
</svg>
