<?xml version="1.0" encoding="UTF-8" standalone="no"?>
<!DOCTYPE svg PUBLIC "-//W3C//DTD SVG 1.1//EN"
 "http://www.w3.org/Graphics/SVG/1.1/DTD/svg11.dtd">
<!-- Generated by graphviz version 2.38.0 (20140413.2041)
 -->
<!-- Title: operator delete Pages: 1 -->
<svg width="263pt" height="142pt"
 viewBox="0.00 0.00 263.00 142.00" xmlns="http://www.w3.org/2000/svg" xmlns:xlink="http://www.w3.org/1999/xlink">
<g id="graph0" class="graph" transform="scale(1 1) rotate(0) translate(4 138)">
<title>operator delete</title>
<polygon fill="white" stroke="none" points="-4,4 -4,-138 259,-138 259,4 -4,4"/>
<!-- Node0 -->
<g id="node1" class="node"><title>Node0</title>
<polygon fill="#bfbfbf" stroke="black" points="0,-57.5 0,-76.5 91,-76.5 91,-57.5 0,-57.5"/>
<text text-anchor="middle" x="45.5" y="-64.5" font-family="Helvetica,sans-Serif" font-size="10.00">operator delete</text>
</g>
<!-- Node1 -->
<g id="node2" class="node"><title>Node1</title>
<g id="a_node2"><a xlink:href="xtmemory_8h.xhtml#a73b030fe9def6538cd2f1c5ec4448adb" target="_top" xlink:title="Get which memory type the pointer has. ">
<polygon fill="white" stroke="black" points="138,-114.5 138,-133.5 244,-133.5 244,-114.5 138,-114.5"/>
<text text-anchor="middle" x="191" y="-121.5" font-family="Helvetica,sans-Serif" font-size="10.00">xtmemory_classify</text>
</a>
</g>
</g>
<!-- Node0&#45;&gt;Node1 -->
<g id="edge1" class="edge"><title>Node0&#45;&gt;Node1</title>
<path fill="none" stroke="midnightblue" d="M64.706,-76.5458C80.8051,-84.7554 105.073,-96.5716 127,-105 132.878,-107.26 139.146,-109.427 145.363,-111.437"/>
<polygon fill="midnightblue" stroke="midnightblue" points="144.439,-114.815 155.028,-114.457 146.527,-108.134 144.439,-114.815"/>
</g>
<!-- Node2 -->
<g id="node3" class="node"><title>Node2</title>
<g id="a_node3"><a xlink:href="xtmemory_8h.xhtml#a7e516b79f5a147905446ff71d1fc98fb" target="_top" xlink:title="Free memory allocated by xtmemory_malloc_default. ">
<polygon fill="white" stroke="red" points="127,-76.5 127,-95.5 255,-95.5 255,-76.5 127,-76.5"/>
<text text-anchor="middle" x="191" y="-83.5" font-family="Helvetica,sans-Serif" font-size="10.00">xtmemory_free_default</text>
</a>
</g>
</g>
<!-- Node0&#45;&gt;Node2 -->
<g id="edge2" class="edge"><title>Node0&#45;&gt;Node2</title>
<path fill="none" stroke="midnightblue" d="M91.1177,-72.9076C99.367,-73.9998 108.178,-75.1664 117.013,-76.3362"/>
<polygon fill="midnightblue" stroke="midnightblue" points="116.598,-79.8117 126.971,-77.6547 117.517,-72.8723 116.598,-79.8117"/>
</g>
<!-- Node5 -->
<g id="node4" class="node"><title>Node5</title>
<g id="a_node4"><a xlink:href="xtmemory_8h.xhtml#a8ec65d5206617a7838830f17b9cf8583" target="_top" xlink:title="Free memory allocated by xtmemory_malloc_fast. ">
<polygon fill="white" stroke="red" points="134.5,-38.5 134.5,-57.5 247.5,-57.5 247.5,-38.5 134.5,-38.5"/>
<text text-anchor="middle" x="191" y="-45.5" font-family="Helvetica,sans-Serif" font-size="10.00">xtmemory_free_fast</text>
</a>
</g>
</g>
<!-- Node0&#45;&gt;Node5 -->
<g id="edge3" class="edge"><title>Node0&#45;&gt;Node5</title>
<path fill="none" stroke="midnightblue" d="M91.1177,-61.0924C101.574,-59.7079 112.933,-58.204 124.101,-56.7254"/>
<polygon fill="midnightblue" stroke="midnightblue" points="124.818,-60.161 134.272,-55.3786 123.899,-53.2216 124.818,-60.161"/>
</g>
<!-- Node10 -->
<g id="node5" class="node"><title>Node10</title>
<g id="a_node5"><a xlink:href="xtmemory_8h.xhtml#a1b0d147f3ba8bc658585e26e12c46a76" target="_top" xlink:title="Free memory allocated by xtmemory_malloc_slow. ">
<polygon fill="white" stroke="red" points="133,-0.5 133,-19.5 249,-19.5 249,-0.5 133,-0.5"/>
<text text-anchor="middle" x="191" y="-7.5" font-family="Helvetica,sans-Serif" font-size="10.00">xtmemory_free_slow</text>
</a>
</g>
</g>
<!-- Node0&#45;&gt;Node10 -->
<g id="edge4" class="edge"><title>Node0&#45;&gt;Node10</title>
<path fill="none" stroke="midnightblue" d="M64.706,-57.4542C80.8051,-49.2446 105.073,-37.4284 127,-29 132.878,-26.7405 139.146,-24.5731 145.363,-22.5629"/>
<polygon fill="midnightblue" stroke="midnightblue" points="146.527,-25.8662 155.028,-19.5427 144.439,-19.1848 146.527,-25.8662"/>
</g>
</g>
</svg>
