<?xml version="1.0" encoding="UTF-8" standalone="no"?>
<!DOCTYPE svg PUBLIC "-//W3C//DTD SVG 1.1//EN"
 "http://www.w3.org/Graphics/SVG/1.1/DTD/svg11.dtd">
<!-- Generated by graphviz version 2.38.0 (20140413.2041)
 -->
<!-- Title: xt_selftest_ext_ram_mark_faulty_pin Pages: 1 -->
<svg width="266pt" height="88pt"
 viewBox="0.00 0.00 266.00 88.00" xmlns="http://www.w3.org/2000/svg" xmlns:xlink="http://www.w3.org/1999/xlink">
<g id="graph0" class="graph" transform="scale(1 1) rotate(0) translate(4 84)">
<title>xt_selftest_ext_ram_mark_faulty_pin</title>
<polygon fill="white" stroke="none" points="-4,4 -4,-84 262,-84 262,4 -4,4"/>
<!-- Node68 -->
<g id="node1" class="node"><title>Node68</title>
<polygon fill="#bfbfbf" stroke="black" points="0,-24.5 0,-54.5 111,-54.5 111,-24.5 0,-24.5"/>
<text text-anchor="start" x="8" y="-42.5" font-family="Helvetica,sans-Serif" font-size="10.00">xt_selftest_ext_ram</text>
<text text-anchor="middle" x="55.5" y="-31.5" font-family="Helvetica,sans-Serif" font-size="10.00">_mark_faulty_pin</text>
</g>
<!-- Node69 -->
<g id="node2" class="node"><title>Node69</title>
<g id="a_node2"><a xlink:href="xt__selftest_8h.xhtml#abc3c1300afe15432d14d378d288dbed5" target="_top" xlink:title="xt_selftest_ext_ram\l_shorts">
<polygon fill="white" stroke="red" points="147,-49.5 147,-79.5 258,-79.5 258,-49.5 147,-49.5"/>
<text text-anchor="start" x="155" y="-67.5" font-family="Helvetica,sans-Serif" font-size="10.00">xt_selftest_ext_ram</text>
<text text-anchor="middle" x="202.5" y="-56.5" font-family="Helvetica,sans-Serif" font-size="10.00">_shorts</text>
</a>
</g>
</g>
<!-- Node68&#45;&gt;Node69 -->
<g id="edge1" class="edge"><title>Node68&#45;&gt;Node69</title>
<path fill="none" stroke="midnightblue" d="M121.185,-50.6526C129.671,-52.1157 138.302,-53.6037 146.604,-55.0352"/>
<polygon fill="midnightblue" stroke="midnightblue" points="121.768,-47.2015 111.318,-48.9514 120.578,-54.0997 121.768,-47.2015"/>
</g>
<!-- Node72 -->
<g id="node3" class="node"><title>Node72</title>
<g id="a_node3"><a xlink:href="xt__selftest_8h.xhtml#a0d0c415bbb59ac93d3d4bd7dd75934a0" target="_top" xlink:title="xt_selftest_ext_ram\l_functionality">
<polygon fill="white" stroke="red" points="147,-0.5 147,-30.5 258,-30.5 258,-0.5 147,-0.5"/>
<text text-anchor="start" x="155" y="-18.5" font-family="Helvetica,sans-Serif" font-size="10.00">xt_selftest_ext_ram</text>
<text text-anchor="middle" x="202.5" y="-7.5" font-family="Helvetica,sans-Serif" font-size="10.00">_functionality</text>
</a>
</g>
</g>
<!-- Node68&#45;&gt;Node72 -->
<g id="edge2" class="edge"><title>Node68&#45;&gt;Node72</title>
<path fill="none" stroke="midnightblue" d="M121.185,-28.7935C129.671,-27.3889 138.302,-25.9604 146.604,-24.5862"/>
<polygon fill="midnightblue" stroke="midnightblue" points="120.612,-25.3406 111.318,-30.4266 121.756,-32.2466 120.612,-25.3406"/>
</g>
</g>
</svg>
