<?xml version="1.0" encoding="UTF-8" standalone="no"?>
<!DOCTYPE svg PUBLIC "-//W3C//DTD SVG 1.1//EN"
 "http://www.w3.org/Graphics/SVG/1.1/DTD/svg11.dtd">
<!-- Generated by graphviz version 2.38.0 (20140413.2041)
 -->
<!-- Title: src/hal/x4m0x_s70/xt_config.h Pages: 1 -->
<svg width="127pt" height="151pt"
 viewBox="0.00 0.00 127.00 151.00" xmlns="http://www.w3.org/2000/svg" xmlns:xlink="http://www.w3.org/1999/xlink">
<g id="graph0" class="graph" transform="scale(1 1) rotate(0) translate(4 147)">
<title>src/hal/x4m0x_s70/xt_config.h</title>
<polygon fill="white" stroke="none" points="-4,4 -4,-147 123,-147 123,4 -4,4"/>
<!-- Node0 -->
<g id="node1" class="node"><title>Node0</title>
<polygon fill="#bfbfbf" stroke="black" points="1,-112.5 1,-142.5 119,-142.5 119,-112.5 1,-112.5"/>
<text text-anchor="start" x="9" y="-130.5" font-family="Helvetica,sans-Serif" font-size="10.00">src/hal/x4m0x_s70/xt</text>
<text text-anchor="middle" x="60" y="-119.5" font-family="Helvetica,sans-Serif" font-size="10.00">_config.h</text>
</g>
<!-- Node1 -->
<g id="node2" class="node"><title>Node1</title>
<g id="a_node2"><a xlink:href="xep__hal_8h.xhtml" target="_top" xlink:title="Brief description. ">
<polygon fill="white" stroke="red" points="0,-56.5 0,-75.5 62,-75.5 62,-56.5 0,-56.5"/>
<text text-anchor="middle" x="31" y="-63.5" font-family="Helvetica,sans-Serif" font-size="10.00">xep_hal.h</text>
</a>
</g>
</g>
<!-- Node0&#45;&gt;Node1 -->
<g id="edge1" class="edge"><title>Node0&#45;&gt;Node1</title>
<path fill="none" stroke="midnightblue" d="M53.1274,-112.399C49.0871,-104.11 43.9424,-93.5542 39.6306,-84.7077"/>
<polygon fill="midnightblue" stroke="midnightblue" points="42.7473,-83.1135 35.2198,-75.6578 36.4549,-86.1804 42.7473,-83.1135"/>
</g>
<!-- Node2 -->
<g id="node3" class="node"><title>Node2</title>
<polygon fill="white" stroke="#bfbfbf" points="33.5,-0.5 33.5,-19.5 86.5,-19.5 86.5,-0.5 33.5,-0.5"/>
<text text-anchor="middle" x="60" y="-7.5" font-family="Helvetica,sans-Serif" font-size="10.00">stdint.h</text>
</g>
<!-- Node0&#45;&gt;Node2 -->
<g id="edge3" class="edge"><title>Node0&#45;&gt;Node2</title>
<path fill="none" stroke="midnightblue" d="M64.4804,-112.495C68.4808,-98.2976 73.3702,-75.678 71,-56 69.9288,-47.1069 67.7077,-37.4344 65.5399,-29.344"/>
<polygon fill="midnightblue" stroke="midnightblue" points="68.8437,-28.1668 62.7299,-19.5139 62.1132,-30.0908 68.8437,-28.1668"/>
</g>
<!-- Node1&#45;&gt;Node2 -->
<g id="edge2" class="edge"><title>Node1&#45;&gt;Node2</title>
<path fill="none" stroke="midnightblue" d="M35.7888,-56.083C39.7584,-48.6913 45.5251,-37.9533 50.4348,-28.8111"/>
<polygon fill="midnightblue" stroke="midnightblue" points="53.6525,-30.217 55.3003,-19.7511 47.4855,-26.9051 53.6525,-30.217"/>
</g>
</g>
</svg>
