<?xml version="1.0" encoding="UTF-8" standalone="no"?>
<!DOCTYPE svg PUBLIC "-//W3C//DTD SVG 1.1//EN"
 "http://www.w3.org/Graphics/SVG/1.1/DTD/svg11.dtd">
<!-- Generated by graphviz version 2.38.0 (20140413.2041)
 -->
<!-- Title: xt_delay_us Pages: 1 -->
<svg width="256pt" height="154pt"
 viewBox="0.00 0.00 256.00 153.50" xmlns="http://www.w3.org/2000/svg" xmlns:xlink="http://www.w3.org/1999/xlink">
<g id="graph0" class="graph" transform="scale(1 1) rotate(0) translate(4 149.5)">
<title>xt_delay_us</title>
<polygon fill="white" stroke="none" points="-4,4 -4,-149.5 252,-149.5 252,4 -4,4"/>
<!-- Node42 -->
<g id="node1" class="node"><title>Node42</title>
<polygon fill="#bfbfbf" stroke="black" points="0,-57.5 0,-76.5 73,-76.5 73,-57.5 0,-57.5"/>
<text text-anchor="middle" x="36.5" y="-64.5" font-family="Helvetica,sans-Serif" font-size="10.00">xt_delay_us</text>
</g>
<!-- Node43 -->
<g id="node2" class="node"><title>Node43</title>
<g id="a_node2"><a xlink:href="xt__system_8c.xhtml#a8d576cef4eead3e26b3adf733cd487c2" target="_top" xlink:title="Gets the submode of the module for certification. ">
<polygon fill="white" stroke="red" points="125,-115 125,-145 232,-145 232,-115 125,-115"/>
<text text-anchor="start" x="133" y="-133" font-family="Helvetica,sans-Serif" font-size="10.00">xt_get_certification</text>
<text text-anchor="middle" x="178.5" y="-122" font-family="Helvetica,sans-Serif" font-size="10.00">_submode</text>
</a>
</g>
</g>
<!-- Node42&#45;&gt;Node43 -->
<g id="edge1" class="edge"><title>Node42&#45;&gt;Node43</title>
<path fill="none" stroke="midnightblue" d="M62.6584,-81.4708C76.1709,-88.9606 93.2468,-97.9797 109,-105 116.747,-108.453 125.132,-111.81 133.289,-114.887"/>
<polygon fill="midnightblue" stroke="midnightblue" points="64.3663,-78.4159 53.9329,-76.5734 60.9401,-84.5201 64.3663,-78.4159"/>
</g>
<!-- Node49 -->
<g id="node3" class="node"><title>Node49</title>
<g id="a_node3"><a xlink:href="xtio__spi_8c.xhtml#a64a60847a947e7e747f90424e2e7fff7" target="_top" xlink:title="xtio_spi_write_read">
<polygon fill="white" stroke="red" points="125,-76.5 125,-95.5 232,-95.5 232,-76.5 125,-76.5"/>
<text text-anchor="middle" x="178.5" y="-83.5" font-family="Helvetica,sans-Serif" font-size="10.00">xtio_spi_write_read</text>
</a>
</g>
</g>
<!-- Node42&#45;&gt;Node49 -->
<g id="edge2" class="edge"><title>Node42&#45;&gt;Node49</title>
<path fill="none" stroke="midnightblue" d="M83.1085,-73.1897C96.4744,-75.0037 111.196,-77.0016 124.957,-78.8691"/>
<polygon fill="midnightblue" stroke="midnightblue" points="83.57,-69.7204 73.1902,-71.8437 82.6286,-76.6568 83.57,-69.7204"/>
</g>
<!-- Node52 -->
<g id="node4" class="node"><title>Node52</title>
<g id="a_node4"><a xlink:href="task__radar_8c.xhtml#a3daa8e1e64e92bf7c33923c8b5c69db9" target="_top" xlink:title="x4driver_callback_wait_us">
<polygon fill="white" stroke="red" points="109,-38.5 109,-57.5 248,-57.5 248,-38.5 109,-38.5"/>
<text text-anchor="middle" x="178.5" y="-45.5" font-family="Helvetica,sans-Serif" font-size="10.00">x4driver_callback_wait_us</text>
</a>
</g>
</g>
<!-- Node42&#45;&gt;Node52 -->
<g id="edge3" class="edge"><title>Node42&#45;&gt;Node52</title>
<path fill="none" stroke="midnightblue" d="M83.2828,-60.7866C91.4968,-59.6719 100.218,-58.4882 108.911,-57.3086"/>
<polygon fill="midnightblue" stroke="midnightblue" points="82.6286,-57.3432 73.1902,-62.1563 83.57,-64.2796 82.6286,-57.3432"/>
</g>
<!-- Node45 -->
<g id="node5" class="node"><title>Node45</title>
<g id="a_node5"><a xlink:href="task__radar_8c.xhtml#ab45564b4bfe2b9814424a084ab9a9859" target="_top" xlink:title="task_radar">
<polygon fill="white" stroke="red" points="144.5,-0.5 144.5,-19.5 212.5,-19.5 212.5,-0.5 144.5,-0.5"/>
<text text-anchor="middle" x="178.5" y="-7.5" font-family="Helvetica,sans-Serif" font-size="10.00">task_radar</text>
</a>
</g>
</g>
<!-- Node42&#45;&gt;Node45 -->
<g id="edge4" class="edge"><title>Node42&#45;&gt;Node45</title>
<path fill="none" stroke="midnightblue" d="M61.9093,-52.3188C75.4409,-44.6214 92.7685,-35.4744 109,-29 120.234,-24.5191 132.905,-20.6845 144.267,-17.6581"/>
<polygon fill="midnightblue" stroke="midnightblue" points="60.1022,-49.3207 53.2078,-57.3654 63.6142,-55.376 60.1022,-49.3207"/>
</g>
</g>
</svg>
