<?xml version="1.0" encoding="UTF-8" standalone="no"?>
<!DOCTYPE svg PUBLIC "-//W3C//DTD SVG 1.1//EN"
 "http://www.w3.org/Graphics/SVG/1.1/DTD/svg11.dtd">
<!-- Generated by graphviz version 2.38.0 (20140413.2041)
 -->
<!-- Title: xt_deep_sleep Pages: 1 -->
<svg width="248pt" height="88pt"
 viewBox="0.00 0.00 248.00 88.00" xmlns="http://www.w3.org/2000/svg" xmlns:xlink="http://www.w3.org/1999/xlink">
<g id="graph0" class="graph" transform="scale(1 1) rotate(0) translate(4 84)">
<title>xt_deep_sleep</title>
<polygon fill="white" stroke="none" points="-4,4 -4,-84 244,-84 244,4 -4,4"/>
<!-- Node1 -->
<g id="node1" class="node"><title>Node1</title>
<polygon fill="#bfbfbf" stroke="black" points="0,-30 0,-49 86,-49 86,-30 0,-30"/>
<text text-anchor="middle" x="43" y="-37" font-family="Helvetica,sans-Serif" font-size="10.00">xt_deep_sleep</text>
</g>
<!-- Node2 -->
<g id="node2" class="node"><title>Node2</title>
<g id="a_node2"><a xlink:href="task__radar_8h.xhtml#a8f5a25ff5bf1da89fd00ffdc10c73151" target="_top" xlink:title="Enter TX only mode. ">
<polygon fill="white" stroke="red" points="129.5,-49.5 129.5,-79.5 232.5,-79.5 232.5,-49.5 129.5,-49.5"/>
<text text-anchor="start" x="137.5" y="-67.5" font-family="Helvetica,sans-Serif" font-size="10.00">radar_certification</text>
<text text-anchor="middle" x="181" y="-56.5" font-family="Helvetica,sans-Serif" font-size="10.00">_enter_tx_only</text>
</a>
</g>
</g>
<!-- Node1&#45;&gt;Node2 -->
<g id="edge1" class="edge"><title>Node1&#45;&gt;Node2</title>
<path fill="none" stroke="midnightblue" d="M96.3876,-49.1301C107.139,-51.1065 118.441,-53.184 129.138,-55.1504"/>
<polygon fill="midnightblue" stroke="midnightblue" points="96.7538,-45.6388 86.2858,-47.2731 95.4882,-52.5235 96.7538,-45.6388"/>
</g>
<!-- Node10 -->
<g id="node3" class="node"><title>Node10</title>
<g id="a_node3"><a xlink:href="task__radar_8h.xhtml#a43f10133b8707768c4b3a4c15526093a" target="_top" xlink:title="Enter TX only mode, with TX off. ">
<polygon fill="white" stroke="red" points="122,-0.5 122,-30.5 240,-30.5 240,-0.5 122,-0.5"/>
<text text-anchor="start" x="130" y="-18.5" font-family="Helvetica,sans-Serif" font-size="10.00">radar_certification</text>
<text text-anchor="middle" x="181" y="-7.5" font-family="Helvetica,sans-Serif" font-size="10.00">_enter_tx_only_tx_off</text>
</a>
</g>
</g>
<!-- Node1&#45;&gt;Node10 -->
<g id="edge2" class="edge"><title>Node1&#45;&gt;Node10</title>
<path fill="none" stroke="midnightblue" d="M96.2615,-30.2774C104.606,-28.8049 113.284,-27.2734 121.757,-25.7782"/>
<polygon fill="midnightblue" stroke="midnightblue" points="95.5253,-26.8531 86.2858,-32.0378 96.7419,-33.7466 95.5253,-26.8531"/>
</g>
</g>
</svg>
