<?xml version="1.0" encoding="UTF-8" standalone="no"?>
<!DOCTYPE svg PUBLIC "-//W3C//DTD SVG 1.1//EN"
 "http://www.w3.org/Graphics/SVG/1.1/DTD/svg11.dtd">
<!-- Generated by graphviz version 2.38.0 (20140413.2041)
 -->
<!-- Title: xt_selftest_io_connector Pages: 1 -->
<svg width="284pt" height="104pt"
 viewBox="0.00 0.00 284.00 104.00" xmlns="http://www.w3.org/2000/svg" xmlns:xlink="http://www.w3.org/1999/xlink">
<g id="graph0" class="graph" transform="scale(1 1) rotate(0) translate(4 100)">
<title>xt_selftest_io_connector</title>
<polygon fill="white" stroke="none" points="-4,4 -4,-100 280,-100 280,4 -4,4"/>
<!-- Node109 -->
<g id="node1" class="node"><title>Node109</title>
<polygon fill="#bfbfbf" stroke="black" points="0,-38.5 0,-57.5 133,-57.5 133,-38.5 0,-38.5"/>
<text text-anchor="middle" x="66.5" y="-45.5" font-family="Helvetica,sans-Serif" font-size="10.00">xt_selftest_io_connector</text>
</g>
<!-- Node110 -->
<g id="node2" class="node"><title>Node110</title>
<g id="a_node2"><a xlink:href="xep__hal_8h.xhtml#a4f087fae5e8098b3b9c8f9df124b7f4e" target="_top" xlink:title="Set direction of specified IO pin. ">
<polygon fill="white" stroke="red" points="172,-76.5 172,-95.5 273,-95.5 273,-76.5 172,-76.5"/>
<text text-anchor="middle" x="222.5" y="-83.5" font-family="Helvetica,sans-Serif" font-size="10.00">xtio_set_direction</text>
</a>
</g>
</g>
<!-- Node109&#45;&gt;Node110 -->
<g id="edge1" class="edge"><title>Node109&#45;&gt;Node110</title>
<path fill="none" stroke="midnightblue" d="M106.361,-57.589C126.591,-62.5809 151.521,-68.7324 173.004,-74.0334"/>
<polygon fill="midnightblue" stroke="midnightblue" points="172.371,-77.4823 182.919,-76.4799 174.048,-70.6861 172.371,-77.4823"/>
</g>
<!-- Node121 -->
<g id="node3" class="node"><title>Node121</title>
<g id="a_node3"><a xlink:href="xep__hal_8h.xhtml#a9c169f60838175920c2f9ab467d020c1" target="_top" xlink:title="Set mode for specified IO pin. ">
<polygon fill="white" stroke="red" points="169,-38.5 169,-57.5 276,-57.5 276,-38.5 169,-38.5"/>
<text text-anchor="middle" x="222.5" y="-45.5" font-family="Helvetica,sans-Serif" font-size="10.00">xtio_set_pin_mode</text>
</a>
</g>
</g>
<!-- Node109&#45;&gt;Node121 -->
<g id="edge2" class="edge"><title>Node109&#45;&gt;Node121</title>
<path fill="none" stroke="midnightblue" d="M133.257,-48C141.742,-48 150.414,-48 158.847,-48"/>
<polygon fill="midnightblue" stroke="midnightblue" points="158.988,-51.5001 168.988,-48 158.988,-44.5001 158.988,-51.5001"/>
</g>
<!-- Node122 -->
<g id="node4" class="node"><title>Node122</title>
<g id="a_node4"><a xlink:href="xep__hal_8h.xhtml#a984c6d05372bfd34dc338a85d21dc81a" target="_top" xlink:title="Get level of specified IO pin. ">
<polygon fill="white" stroke="red" points="181.5,-0.5 181.5,-19.5 263.5,-19.5 263.5,-0.5 181.5,-0.5"/>
<text text-anchor="middle" x="222.5" y="-7.5" font-family="Helvetica,sans-Serif" font-size="10.00">xtio_get_level</text>
</a>
</g>
</g>
<!-- Node109&#45;&gt;Node122 -->
<g id="edge3" class="edge"><title>Node109&#45;&gt;Node122</title>
<path fill="none" stroke="midnightblue" d="M106.361,-38.411C126.591,-33.4191 151.521,-27.2676 173.004,-21.9666"/>
<polygon fill="midnightblue" stroke="midnightblue" points="174.048,-25.3139 182.919,-19.5201 172.371,-18.5177 174.048,-25.3139"/>
</g>
</g>
</svg>
