<?xml version="1.0" encoding="UTF-8" standalone="no"?>
<!DOCTYPE svg PUBLIC "-//W3C//DTD SVG 1.1//EN"
 "http://www.w3.org/Graphics/SVG/1.1/DTD/svg11.dtd">
<!-- Generated by graphviz version 2.38.0 (20140413.2041)
 -->
<!-- Title: src/hal/x4m0x_s70/xt_config.h Pages: 1 -->
<svg width="1303pt" height="106pt"
 viewBox="0.00 0.00 1302.50 106.00" xmlns="http://www.w3.org/2000/svg" xmlns:xlink="http://www.w3.org/1999/xlink">
<g id="graph0" class="graph" transform="scale(1 1) rotate(0) translate(4 102)">
<title>src/hal/x4m0x_s70/xt_config.h</title>
<polygon fill="white" stroke="none" points="-4,4 -4,-102 1298.5,-102 1298.5,4 -4,4"/>
<!-- Node4 -->
<g id="node1" class="node"><title>Node4</title>
<polygon fill="#bfbfbf" stroke="black" points="608.5,-67.5 608.5,-97.5 726.5,-97.5 726.5,-67.5 608.5,-67.5"/>
<text text-anchor="start" x="616.5" y="-85.5" font-family="Helvetica,sans-Serif" font-size="10.00">src/hal/x4m0x_s70/xt</text>
<text text-anchor="middle" x="667.5" y="-74.5" font-family="Helvetica,sans-Serif" font-size="10.00">_config.h</text>
</g>
<!-- Node5 -->
<g id="node2" class="node"><title>Node5</title>
<g id="a_node2"><a xlink:href="board__lowlevel_8c.xhtml" target="_top" xlink:title="Provides the low&#45;level initialization function that called on chip startup. ">
<polygon fill="white" stroke="black" points="0,-0.5 0,-30.5 137,-30.5 137,-0.5 0,-0.5"/>
<text text-anchor="start" x="8" y="-18.5" font-family="Helvetica,sans-Serif" font-size="10.00">src/hal/x4m0x_s70/board</text>
<text text-anchor="middle" x="68.5" y="-7.5" font-family="Helvetica,sans-Serif" font-size="10.00">_lowlevel.c</text>
</a>
</g>
</g>
<!-- Node4&#45;&gt;Node5 -->
<g id="edge1" class="edge"><title>Node4&#45;&gt;Node5</title>
<path fill="none" stroke="midnightblue" d="M598.193,-76.7831C497.984,-69.5128 306.941,-53.9627 145.5,-31 142.807,-30.6169 140.064,-30.2051 137.296,-29.7716"/>
<polygon fill="midnightblue" stroke="midnightblue" points="597.965,-80.2757 608.191,-77.5029 598.468,-73.2938 597.965,-80.2757"/>
</g>
<!-- Node6 -->
<g id="node3" class="node"><title>Node6</title>
<g id="a_node3"><a xlink:href="board__memories_8c.xhtml" target="_top" xlink:title="Implementation of memories configuration on board. ">
<polygon fill="white" stroke="black" points="155,-0.5 155,-30.5 292,-30.5 292,-0.5 155,-0.5"/>
<text text-anchor="start" x="163" y="-18.5" font-family="Helvetica,sans-Serif" font-size="10.00">src/hal/x4m0x_s70/board</text>
<text text-anchor="middle" x="223.5" y="-7.5" font-family="Helvetica,sans-Serif" font-size="10.00">_memories.c</text>
</a>
</g>
</g>
<!-- Node4&#45;&gt;Node6 -->
<g id="edge2" class="edge"><title>Node4&#45;&gt;Node6</title>
<path fill="none" stroke="midnightblue" d="M598.335,-72.9345C524.635,-63.579 404.61,-47.6881 301.5,-31 298.509,-30.5159 295.456,-30.0079 292.373,-29.4837"/>
<polygon fill="midnightblue" stroke="midnightblue" points="598.06,-76.4276 608.421,-74.2107 598.939,-69.483 598.06,-76.4276"/>
</g>
<!-- Node7 -->
<g id="node4" class="node"><title>Node7</title>
<g id="a_node4"><a xlink:href="system__sams70_8c.xhtml" target="_top" xlink:title="src/hal/x4m0x_s70/system\l_sams70.c">
<polygon fill="white" stroke="black" points="310.5,-0.5 310.5,-30.5 454.5,-30.5 454.5,-0.5 310.5,-0.5"/>
<text text-anchor="start" x="318.5" y="-18.5" font-family="Helvetica,sans-Serif" font-size="10.00">src/hal/x4m0x_s70/system</text>
<text text-anchor="middle" x="382.5" y="-7.5" font-family="Helvetica,sans-Serif" font-size="10.00">_sams70.c</text>
</a>
</g>
</g>
<!-- Node4&#45;&gt;Node7 -->
<g id="edge3" class="edge"><title>Node4&#45;&gt;Node7</title>
<path fill="none" stroke="midnightblue" d="M598.618,-65.7901C551.445,-55.0312 489.433,-40.8881 443.938,-30.5121"/>
<polygon fill="midnightblue" stroke="midnightblue" points="597.92,-69.2207 608.448,-68.032 599.476,-62.3959 597.92,-69.2207"/>
</g>
<!-- Node8 -->
<g id="node5" class="node"><title>Node8</title>
<g id="a_node5"><a xlink:href="xt__config_8c.xhtml" target="_top" xlink:title="src/hal/x4m0x_s70/xt\l_config.c">
<polygon fill="white" stroke="black" points="472.5,-0.5 472.5,-30.5 590.5,-30.5 590.5,-0.5 472.5,-0.5"/>
<text text-anchor="start" x="480.5" y="-18.5" font-family="Helvetica,sans-Serif" font-size="10.00">src/hal/x4m0x_s70/xt</text>
<text text-anchor="middle" x="531.5" y="-7.5" font-family="Helvetica,sans-Serif" font-size="10.00">_config.c</text>
</a>
</g>
</g>
<!-- Node4&#45;&gt;Node8 -->
<g id="edge4" class="edge"><title>Node4&#45;&gt;Node8</title>
<path fill="none" stroke="midnightblue" d="M628.776,-62.9921C607.219,-52.6892 580.811,-40.0677 560.952,-30.5765"/>
<polygon fill="midnightblue" stroke="midnightblue" points="627.458,-66.2416 637.99,-67.396 630.477,-59.9258 627.458,-66.2416"/>
</g>
<!-- Node9 -->
<g id="node6" class="node"><title>Node9</title>
<g id="a_node6"><a xlink:href="xt__selftest_8c.xhtml" target="_top" xlink:title="src/hal/x4m0x_s70/xt\l_selftest.c">
<polygon fill="white" stroke="black" points="608.5,-0.5 608.5,-30.5 726.5,-30.5 726.5,-0.5 608.5,-0.5"/>
<text text-anchor="start" x="616.5" y="-18.5" font-family="Helvetica,sans-Serif" font-size="10.00">src/hal/x4m0x_s70/xt</text>
<text text-anchor="middle" x="667.5" y="-7.5" font-family="Helvetica,sans-Serif" font-size="10.00">_selftest.c</text>
</a>
</g>
</g>
<!-- Node4&#45;&gt;Node9 -->
<g id="edge5" class="edge"><title>Node4&#45;&gt;Node9</title>
<path fill="none" stroke="midnightblue" d="M667.5,-57.1081C667.5,-48.1539 667.5,-38.3227 667.5,-30.5765"/>
<polygon fill="midnightblue" stroke="midnightblue" points="664,-57.3959 667.5,-67.396 671,-57.396 664,-57.3959"/>
</g>
<!-- Node10 -->
<g id="node7" class="node"><title>Node10</title>
<g id="a_node7"><a xlink:href="xt__system_8c.xhtml" target="_top" xlink:title="System level hardware functionality. ">
<polygon fill="white" stroke="black" points="744.5,-0.5 744.5,-30.5 862.5,-30.5 862.5,-0.5 744.5,-0.5"/>
<text text-anchor="start" x="752.5" y="-18.5" font-family="Helvetica,sans-Serif" font-size="10.00">src/hal/x4m0x_s70/xt</text>
<text text-anchor="middle" x="803.5" y="-7.5" font-family="Helvetica,sans-Serif" font-size="10.00">_system.c</text>
</a>
</g>
</g>
<!-- Node4&#45;&gt;Node10 -->
<g id="edge6" class="edge"><title>Node4&#45;&gt;Node10</title>
<path fill="none" stroke="midnightblue" d="M706.224,-62.9921C727.781,-52.6892 754.189,-40.0677 774.048,-30.5765"/>
<polygon fill="midnightblue" stroke="midnightblue" points="704.523,-59.9258 697.01,-67.396 707.542,-66.2416 704.523,-59.9258"/>
</g>
<!-- Node11 -->
<g id="node8" class="node"><title>Node11</title>
<g id="a_node8"><a xlink:href="x4m0x__s70_2xtio__gpio_8c.xhtml" target="_top" xlink:title="Implementation of GPIO functions for X4M0x boards with Atmel SAM S70 MCU. ">
<polygon fill="white" stroke="black" points="880.5,-0.5 880.5,-30.5 1006.5,-30.5 1006.5,-0.5 880.5,-0.5"/>
<text text-anchor="start" x="888.5" y="-18.5" font-family="Helvetica,sans-Serif" font-size="10.00">src/hal/x4m0x_s70/xtio</text>
<text text-anchor="middle" x="943.5" y="-7.5" font-family="Helvetica,sans-Serif" font-size="10.00">_gpio.c</text>
</a>
</g>
</g>
<!-- Node4&#45;&gt;Node11 -->
<g id="edge7" class="edge"><title>Node4&#45;&gt;Node11</title>
<path fill="none" stroke="midnightblue" d="M736.466,-65.2581C781.825,-54.5757 840.586,-40.7369 883.913,-30.5331"/>
<polygon fill="midnightblue" stroke="midnightblue" points="735.64,-61.8566 726.709,-67.5559 737.245,-68.6702 735.64,-61.8566"/>
</g>
<!-- Node12 -->
<g id="node9" class="node"><title>Node12</title>
<g id="a_node9"><a xlink:href="xtio__led_8c.xhtml" target="_top" xlink:title="Implementation of GPIO functions for X4M0x boards with Atmel SAM S70 MCU. ">
<polygon fill="white" stroke="black" points="1024.5,-0.5 1024.5,-30.5 1150.5,-30.5 1150.5,-0.5 1024.5,-0.5"/>
<text text-anchor="start" x="1032.5" y="-18.5" font-family="Helvetica,sans-Serif" font-size="10.00">src/hal/x4m0x_s70/xtio</text>
<text text-anchor="middle" x="1087.5" y="-7.5" font-family="Helvetica,sans-Serif" font-size="10.00">_led.c</text>
</a>
</g>
</g>
<!-- Node4&#45;&gt;Node12 -->
<g id="edge8" class="edge"><title>Node4&#45;&gt;Node12</title>
<path fill="none" stroke="midnightblue" d="M736.84,-72.5727C807.202,-63.2476 919.177,-47.6753 1015.5,-31 1018.39,-30.4997 1021.34,-29.9723 1024.32,-29.4267"/>
<polygon fill="midnightblue" stroke="midnightblue" points="736.223,-69.1237 726.768,-73.9026 737.14,-76.0635 736.223,-69.1237"/>
</g>
<!-- Node13 -->
<g id="node10" class="node"><title>Node13</title>
<g id="a_node10"><a xlink:href="xtio__serial__com_8c.xhtml" target="_top" xlink:title="Implement USB serial communication. ">
<polygon fill="white" stroke="black" points="1168.5,-0.5 1168.5,-30.5 1294.5,-30.5 1294.5,-0.5 1168.5,-0.5"/>
<text text-anchor="start" x="1176.5" y="-18.5" font-family="Helvetica,sans-Serif" font-size="10.00">src/hal/x4m0x_s70/xtio</text>
<text text-anchor="middle" x="1231.5" y="-7.5" font-family="Helvetica,sans-Serif" font-size="10.00">_serial_com.c</text>
</a>
</g>
</g>
<!-- Node4&#45;&gt;Node13 -->
<g id="edge9" class="edge"><title>Node4&#45;&gt;Node13</title>
<path fill="none" stroke="midnightblue" d="M736.916,-76.497C832.432,-69.1301 1009.6,-53.7323 1159.5,-31 1162.4,-30.5603 1165.36,-30.0825 1168.34,-29.5771"/>
<polygon fill="midnightblue" stroke="midnightblue" points="736.509,-73.0178 726.805,-77.2703 737.043,-79.9974 736.509,-73.0178"/>
</g>
</g>
</svg>
