<?xml version="1.0" encoding="UTF-8" standalone="no"?>
<!DOCTYPE svg PUBLIC "-//W3C//DTD SVG 1.1//EN"
 "http://www.w3.org/Graphics/SVG/1.1/DTD/svg11.dtd">
<!-- Generated by graphviz version 2.38.0 (20140413.2041)
 -->
<!-- Title: src/hal/x4m0x_s70/xt_config.c Pages: 1 -->
<svg width="300pt" height="95pt"
 viewBox="0.00 0.00 299.50 95.00" xmlns="http://www.w3.org/2000/svg" xmlns:xlink="http://www.w3.org/1999/xlink">
<g id="graph0" class="graph" transform="scale(1 1) rotate(0) translate(4 91)">
<title>src/hal/x4m0x_s70/xt_config.c</title>
<polygon fill="white" stroke="none" points="-4,4 -4,-91 295.5,-91 295.5,4 -4,4"/>
<!-- Node0 -->
<g id="node1" class="node"><title>Node0</title>
<polygon fill="#bfbfbf" stroke="black" points="101,-56.5 101,-86.5 219,-86.5 219,-56.5 101,-56.5"/>
<text text-anchor="start" x="109" y="-74.5" font-family="Helvetica,sans-Serif" font-size="10.00">src/hal/x4m0x_s70/xt</text>
<text text-anchor="middle" x="160" y="-63.5" font-family="Helvetica,sans-Serif" font-size="10.00">_config.c</text>
</g>
<!-- Node1 -->
<g id="node2" class="node"><title>Node1</title>
<g id="a_node2"><a xlink:href="xt__config_8h.xhtml" target="_top" xlink:title="xt_config.h">
<polygon fill="white" stroke="red" points="0,-0.5 0,-19.5 68,-19.5 68,-0.5 0,-0.5"/>
<text text-anchor="middle" x="34" y="-7.5" font-family="Helvetica,sans-Serif" font-size="10.00">xt_config.h</text>
</a>
</g>
</g>
<!-- Node0&#45;&gt;Node1 -->
<g id="edge1" class="edge"><title>Node0&#45;&gt;Node1</title>
<path fill="none" stroke="midnightblue" d="M130.14,-56.3993C109.377,-46.5945 81.8999,-33.6194 61.6394,-24.052"/>
<polygon fill="midnightblue" stroke="midnightblue" points="62.8712,-20.763 52.3341,-19.6578 59.8821,-27.0928 62.8712,-20.763"/>
</g>
<!-- Node5 -->
<g id="node3" class="node"><title>Node5</title>
<g id="a_node3"><a xlink:href="xtio__flash_8h.xhtml" target="_top" xlink:title="Local header file for xtio FLASH functions. ">
<polygon fill="white" stroke="red" points="86.5,-0.5 86.5,-19.5 157.5,-19.5 157.5,-0.5 86.5,-0.5"/>
<text text-anchor="middle" x="122" y="-7.5" font-family="Helvetica,sans-Serif" font-size="10.00">xtio_flash.h</text>
</a>
</g>
</g>
<!-- Node0&#45;&gt;Node5 -->
<g id="edge2" class="edge"><title>Node0&#45;&gt;Node5</title>
<path fill="none" stroke="midnightblue" d="M150.995,-56.3993C145.587,-47.9315 138.668,-37.0991 132.946,-28.1393"/>
<polygon fill="midnightblue" stroke="midnightblue" points="135.862,-26.2018 127.529,-19.6578 129.962,-29.9695 135.862,-26.2018"/>
</g>
<!-- Node6 -->
<g id="node4" class="node"><title>Node6</title>
<g id="a_node4"><a xlink:href="chip_8h.xhtml" target="_top" xlink:title="chip.h">
<polygon fill="white" stroke="red" points="175.5,-0.5 175.5,-19.5 220.5,-19.5 220.5,-0.5 175.5,-0.5"/>
<text text-anchor="middle" x="198" y="-7.5" font-family="Helvetica,sans-Serif" font-size="10.00">chip.h</text>
</a>
</g>
</g>
<!-- Node0&#45;&gt;Node6 -->
<g id="edge3" class="edge"><title>Node0&#45;&gt;Node6</title>
<path fill="none" stroke="midnightblue" d="M169.005,-56.3993C174.413,-47.9315 181.332,-37.0991 187.054,-28.1393"/>
<polygon fill="midnightblue" stroke="midnightblue" points="190.038,-29.9695 192.471,-19.6578 184.138,-26.2018 190.038,-29.9695"/>
</g>
<!-- Node42 -->
<g id="node5" class="node"><title>Node42</title>
<polygon fill="white" stroke="#bfbfbf" points="238.5,-0.5 238.5,-19.5 291.5,-19.5 291.5,-0.5 238.5,-0.5"/>
<text text-anchor="middle" x="265" y="-7.5" font-family="Helvetica,sans-Serif" font-size="10.00">string.h</text>
</g>
<!-- Node0&#45;&gt;Node42 -->
<g id="edge4" class="edge"><title>Node0&#45;&gt;Node42</title>
<path fill="none" stroke="midnightblue" d="M184.884,-56.3993C201.714,-46.8619 223.839,-34.3248 240.573,-24.8422"/>
<polygon fill="midnightblue" stroke="midnightblue" points="242.747,-27.633 249.722,-19.6578 239.296,-21.5429 242.747,-27.633"/>
</g>
</g>
</svg>
