<?xml version="1.0" encoding="UTF-8" standalone="no"?>
<!DOCTYPE svg PUBLIC "-//W3C//DTD SVG 1.1//EN"
 "http://www.w3.org/Graphics/SVG/1.1/DTD/svg11.dtd">
<!-- Generated by graphviz version 2.38.0 (20140413.2041)
 -->
<!-- Title: xtfile_clear Pages: 1 -->
<svg width="189pt" height="104pt"
 viewBox="0.00 0.00 189.00 104.00" xmlns="http://www.w3.org/2000/svg" xmlns:xlink="http://www.w3.org/1999/xlink">
<g id="graph0" class="graph" transform="scale(1 1) rotate(0) translate(4 100)">
<title>xtfile_clear</title>
<polygon fill="white" stroke="none" points="-4,4 -4,-100 185,-100 185,4 -4,4"/>
<!-- Node0 -->
<g id="node1" class="node"><title>Node0</title>
<polygon fill="#bfbfbf" stroke="black" points="0,-38.5 0,-57.5 68,-57.5 68,-38.5 0,-38.5"/>
<text text-anchor="middle" x="34" y="-45.5" font-family="Helvetica,sans-Serif" font-size="10.00">xtfile_clear</text>
</g>
<!-- Node1 -->
<g id="node2" class="node"><title>Node1</title>
<g id="a_node2"><a xlink:href="xtfile_8c.xhtml#ab6502b729403c595b606e92bf005bd09" target="_top" xlink:title="xtfile_lock">
<polygon fill="white" stroke="red" points="111,-76.5 111,-95.5 174,-95.5 174,-76.5 111,-76.5"/>
<text text-anchor="middle" x="142.5" y="-83.5" font-family="Helvetica,sans-Serif" font-size="10.00">xtfile_lock</text>
</a>
</g>
</g>
<!-- Node0&#45;&gt;Node1 -->
<g id="edge1" class="edge"><title>Node0&#45;&gt;Node1</title>
<path fill="none" stroke="midnightblue" d="M61.8744,-57.589C74.9919,-62.2694 90.9662,-67.9692 105.154,-73.0315"/>
<polygon fill="midnightblue" stroke="midnightblue" points="104.04,-76.3499 114.634,-76.4141 106.392,-69.757 104.04,-76.3499"/>
</g>
<!-- Node3 -->
<g id="node3" class="node"><title>Node3</title>
<g id="a_node3"><a xlink:href="xtfile_8c.xhtml#a5f00b9d0119e29899a5acf83033147e4" target="_top" xlink:title="xtfile_unlock">
<polygon fill="white" stroke="red" points="105,-38.5 105,-57.5 180,-57.5 180,-38.5 105,-38.5"/>
<text text-anchor="middle" x="142.5" y="-45.5" font-family="Helvetica,sans-Serif" font-size="10.00">xtfile_unlock</text>
</a>
</g>
</g>
<!-- Node0&#45;&gt;Node3 -->
<g id="edge2" class="edge"><title>Node0&#45;&gt;Node3</title>
<path fill="none" stroke="midnightblue" d="M68.1135,-48C76.4521,-48 85.5634,-48 94.4419,-48"/>
<polygon fill="midnightblue" stroke="midnightblue" points="94.6973,-51.5001 104.697,-48 94.6972,-44.5001 94.6973,-51.5001"/>
</g>
<!-- Node5 -->
<g id="node4" class="node"><title>Node5</title>
<g id="a_node4"><a xlink:href="xfs_8c.xhtml#a1944fe2fe57fccee85079970b8f38432" target="_top" xlink:title="Clears the flash area used to store file data. ">
<polygon fill="white" stroke="red" points="104,-0.5 104,-19.5 181,-19.5 181,-0.5 104,-0.5"/>
<text text-anchor="middle" x="142.5" y="-7.5" font-family="Helvetica,sans-Serif" font-size="10.00">xfs_clear_file</text>
</a>
</g>
</g>
<!-- Node0&#45;&gt;Node5 -->
<g id="edge3" class="edge"><title>Node0&#45;&gt;Node5</title>
<path fill="none" stroke="midnightblue" d="M61.8744,-38.411C74.9919,-33.7306 90.9662,-28.0308 105.154,-22.9685"/>
<polygon fill="midnightblue" stroke="midnightblue" points="106.392,-26.243 114.634,-19.5859 104.04,-19.6501 106.392,-26.243"/>
</g>
</g>
</svg>
