<?xml version="1.0" encoding="UTF-8" standalone="no"?>
<!DOCTYPE svg PUBLIC "-//W3C//DTD SVG 1.1//EN"
 "http://www.w3.org/Graphics/SVG/1.1/DTD/svg11.dtd">
<!-- Generated by graphviz version 2.38.0 (20140413.2041)
 -->
<!-- Title: xtfile_get_buffer Pages: 1 -->
<svg width="212pt" height="66pt"
 viewBox="0.00 0.00 212.00 66.00" xmlns="http://www.w3.org/2000/svg" xmlns:xlink="http://www.w3.org/1999/xlink">
<g id="graph0" class="graph" transform="scale(1 1) rotate(0) translate(4 62)">
<title>xtfile_get_buffer</title>
<polygon fill="white" stroke="none" points="-4,4 -4,-62 208,-62 208,4 -4,4"/>
<!-- Node184 -->
<g id="node1" class="node"><title>Node184</title>
<polygon fill="#bfbfbf" stroke="black" points="0,-19.5 0,-38.5 93,-38.5 93,-19.5 0,-19.5"/>
<text text-anchor="middle" x="46.5" y="-26.5" font-family="Helvetica,sans-Serif" font-size="10.00">xtfile_get_buffer</text>
</g>
<!-- Node185 -->
<g id="node2" class="node"><title>Node185</title>
<g id="a_node2"><a xlink:href="xtfile_8c.xhtml#ab6502b729403c595b606e92bf005bd09" target="_top" xlink:title="xtfile_lock">
<polygon fill="white" stroke="red" points="135,-38.5 135,-57.5 198,-57.5 198,-38.5 135,-38.5"/>
<text text-anchor="middle" x="166.5" y="-45.5" font-family="Helvetica,sans-Serif" font-size="10.00">xtfile_lock</text>
</a>
</g>
</g>
<!-- Node184&#45;&gt;Node185 -->
<g id="edge1" class="edge"><title>Node184&#45;&gt;Node185</title>
<path fill="none" stroke="midnightblue" d="M93.1219,-36.3459C103.628,-38.0376 114.732,-39.8255 125.003,-41.4793"/>
<polygon fill="midnightblue" stroke="midnightblue" points="124.515,-44.9457 134.944,-43.08 125.628,-38.0347 124.515,-44.9457"/>
</g>
<!-- Node187 -->
<g id="node3" class="node"><title>Node187</title>
<g id="a_node3"><a xlink:href="xtfile_8c.xhtml#a5f00b9d0119e29899a5acf83033147e4" target="_top" xlink:title="xtfile_unlock">
<polygon fill="white" stroke="red" points="129,-0.5 129,-19.5 204,-19.5 204,-0.5 129,-0.5"/>
<text text-anchor="middle" x="166.5" y="-7.5" font-family="Helvetica,sans-Serif" font-size="10.00">xtfile_unlock</text>
</a>
</g>
</g>
<!-- Node184&#45;&gt;Node187 -->
<g id="edge2" class="edge"><title>Node184&#45;&gt;Node187</title>
<path fill="none" stroke="midnightblue" d="M93.1219,-21.6541C101.513,-20.3029 110.286,-18.8904 118.711,-17.5338"/>
<polygon fill="midnightblue" stroke="midnightblue" points="119.45,-20.9599 128.767,-15.9147 118.338,-14.049 119.45,-20.9599"/>
</g>
</g>
</svg>
