<?xml version="1.0" encoding="UTF-8" standalone="no"?>
<!DOCTYPE svg PUBLIC "-//W3C//DTD SVG 1.1//EN"
 "http://www.w3.org/Graphics/SVG/1.1/DTD/svg11.dtd">
<!-- Generated by graphviz version 2.38.0 (20140413.2041)
 -->
<!-- Title: xtfile_unlock Pages: 1 -->
<svg width="411pt" height="382pt"
 viewBox="0.00 0.00 411.00 382.00" xmlns="http://www.w3.org/2000/svg" xmlns:xlink="http://www.w3.org/1999/xlink">
<g id="graph0" class="graph" transform="scale(1 1) rotate(0) translate(4 378)">
<title>xtfile_unlock</title>
<polygon fill="white" stroke="none" points="-4,4 -4,-378 407,-378 407,4 -4,4"/>
<!-- Node391 -->
<g id="node1" class="node"><title>Node391</title>
<polygon fill="#bfbfbf" stroke="black" points="0,-171.5 0,-190.5 75,-190.5 75,-171.5 0,-171.5"/>
<text text-anchor="middle" x="37.5" y="-178.5" font-family="Helvetica,sans-Serif" font-size="10.00">xtfile_unlock</text>
</g>
<!-- Node392 -->
<g id="node2" class="node"><title>Node392</title>
<g id="a_node2"><a xlink:href="xtfile_8c.xhtml#adb0d51c5b210a72ee8bf5e56b06334e9" target="_top" xlink:title="xtfile_close_all_files">
<polygon fill="white" stroke="red" points="120.5,-354.5 120.5,-373.5 229.5,-373.5 229.5,-354.5 120.5,-354.5"/>
<text text-anchor="middle" x="175" y="-361.5" font-family="Helvetica,sans-Serif" font-size="10.00">xtfile_close_all_files</text>
</a>
</g>
</g>
<!-- Node391&#45;&gt;Node392 -->
<g id="edge1" class="edge"><title>Node391&#45;&gt;Node392</title>
<path fill="none" stroke="midnightblue" d="M41.7738,-200.994C48.4701,-235.463 66.9882,-306.107 111,-345 115.366,-348.858 120.493,-351.933 125.904,-354.384"/>
<polygon fill="midnightblue" stroke="midnightblue" points="45.1531,-200.011 39.9363,-190.789 38.2639,-201.251 45.1531,-200.011"/>
</g>
<!-- Node398 -->
<g id="node3" class="node"><title>Node398</title>
<g id="a_node3"><a xlink:href="xtfile_8c.xhtml#aab3ec81dba994ab42e047561a13c5e27" target="_top" xlink:title="Creates and opens a new file with given type and identifiers with an empty content of given size...">
<polygon fill="white" stroke="red" points="111,-305 111,-335 239,-335 239,-305 111,-305"/>
<text text-anchor="start" x="119" y="-323" font-family="Helvetica,sans-Serif" font-size="10.00">xtfile_create_and_open</text>
<text text-anchor="middle" x="175" y="-312" font-family="Helvetica,sans-Serif" font-size="10.00">_empty</text>
</a>
</g>
</g>
<!-- Node391&#45;&gt;Node398 -->
<g id="edge2" class="edge"><title>Node391&#45;&gt;Node398</title>
<path fill="none" stroke="midnightblue" d="M47.1572,-200.038C58.762,-223.77 81.3787,-264.326 111,-290 117.774,-295.871 125.896,-300.855 134.021,-304.974"/>
<polygon fill="midnightblue" stroke="midnightblue" points="50.1839,-198.252 42.7417,-190.711 43.857,-201.247 50.1839,-198.252"/>
</g>
<!-- Node399 -->
<g id="node4" class="node"><title>Node399</title>
<g id="a_node4"><a xlink:href="xtfile_8c.xhtml#a10291a10929d065f8ec410f55e716bf1" target="_top" xlink:title="Creates and opens a new file with given type and identifiers with the contents provided in the data b...">
<polygon fill="white" stroke="black" points="275,-288.5 275,-307.5 403,-307.5 403,-288.5 275,-288.5"/>
<text text-anchor="middle" x="339" y="-295.5" font-family="Helvetica,sans-Serif" font-size="10.00">xtfile_create_and_open</text>
</a>
</g>
</g>
<!-- Node391&#45;&gt;Node399 -->
<g id="edge4" class="edge"><title>Node391&#45;&gt;Node399</title>
<path fill="none" stroke="midnightblue" d="M50.3752,-198.899C63.1532,-216.63 85.1578,-243.089 111,-257 161.778,-284.335 227.255,-293.89 274.828,-297.02"/>
<polygon fill="midnightblue" stroke="midnightblue" points="53.1436,-196.75 44.5627,-190.535 47.3954,-200.745 53.1436,-196.75"/>
</g>
<!-- Node401 -->
<g id="node5" class="node"><title>Node401</title>
<g id="a_node5"><a xlink:href="xtfile_8c.xhtml#a9ea9a4d241077c7c7d3982bc1159f9ac" target="_top" xlink:title="Deletes the file with the specified type and identifier. ">
<polygon fill="white" stroke="red" points="138,-228.5 138,-247.5 212,-247.5 212,-228.5 138,-228.5"/>
<text text-anchor="middle" x="175" y="-235.5" font-family="Helvetica,sans-Serif" font-size="10.00">xtfile_delete</text>
</a>
</g>
</g>
<!-- Node391&#45;&gt;Node401 -->
<g id="edge5" class="edge"><title>Node391&#45;&gt;Node401</title>
<path fill="none" stroke="midnightblue" d="M63.3337,-195.517C77.0793,-203.166 94.6461,-212.319 111,-219 119.566,-222.5 129.019,-225.687 137.939,-228.409"/>
<polygon fill="midnightblue" stroke="midnightblue" points="64.9167,-192.391 54.49,-190.511 61.4683,-198.483 64.9167,-192.391"/>
</g>
<!-- Node405 -->
<g id="node6" class="node"><title>Node405</title>
<g id="a_node6"><a xlink:href="xtfile_8c.xhtml#acd9f464dd135cbeaf8671e7c3c4c900f" target="_top" xlink:title="xtfile_get_handle">
<polygon fill="white" stroke="red" points="126,-190.5 126,-209.5 224,-209.5 224,-190.5 126,-190.5"/>
<text text-anchor="middle" x="175" y="-197.5" font-family="Helvetica,sans-Serif" font-size="10.00">xtfile_get_handle</text>
</a>
</g>
</g>
<!-- Node391&#45;&gt;Node405 -->
<g id="edge6" class="edge"><title>Node391&#45;&gt;Node405</title>
<path fill="none" stroke="midnightblue" d="M85.3702,-187.572C98.4519,-189.407 112.685,-191.402 125.84,-193.247"/>
<polygon fill="midnightblue" stroke="midnightblue" points="85.5574,-184.064 75.1683,-186.142 84.5853,-190.996 85.5574,-184.064"/>
</g>
<!-- Node409 -->
<g id="node7" class="node"><title>Node409</title>
<g id="a_node7"><a xlink:href="xtfile_8c.xhtml#ade819cbf4de9ee15f62317e3bf84fed6" target="_top" xlink:title="Opens an existing file with given type and identifier. ">
<polygon fill="white" stroke="red" points="141,-152.5 141,-171.5 209,-171.5 209,-152.5 141,-152.5"/>
<text text-anchor="middle" x="175" y="-159.5" font-family="Helvetica,sans-Serif" font-size="10.00">xtfile_open</text>
</a>
</g>
</g>
<!-- Node391&#45;&gt;Node409 -->
<g id="edge7" class="edge"><title>Node391&#45;&gt;Node409</title>
<path fill="none" stroke="midnightblue" d="M85.2862,-174.44C103.471,-171.89 123.891,-169.026 140.552,-166.69"/>
<polygon fill="midnightblue" stroke="midnightblue" points="84.5853,-171.004 75.1683,-175.858 85.5574,-177.936 84.5853,-171.004"/>
</g>
<!-- Node412 -->
<g id="node8" class="node"><title>Node412</title>
<g id="a_node8"><a xlink:href="xtfile_8c.xhtml#a60f5bc8f5e3c8f0e61a4c41d05c15556" target="_top" xlink:title="Gets the pointer and size of the content of the file. ">
<polygon fill="white" stroke="red" points="128.5,-114.5 128.5,-133.5 221.5,-133.5 221.5,-114.5 128.5,-114.5"/>
<text text-anchor="middle" x="175" y="-121.5" font-family="Helvetica,sans-Serif" font-size="10.00">xtfile_get_buffer</text>
</a>
</g>
</g>
<!-- Node391&#45;&gt;Node412 -->
<g id="edge8" class="edge"><title>Node391&#45;&gt;Node412</title>
<path fill="none" stroke="midnightblue" d="M63.3337,-166.483C77.0793,-158.834 94.6461,-149.681 111,-143 119.566,-139.5 129.019,-136.313 137.939,-133.591"/>
<polygon fill="midnightblue" stroke="midnightblue" points="61.4683,-163.517 54.49,-171.489 64.9167,-169.609 61.4683,-163.517"/>
</g>
<!-- Node413 -->
<g id="node9" class="node"><title>Node413</title>
<g id="a_node9"><a xlink:href="xtfile_8c.xhtml#ac05fab0f49744c5d44341417604533d8" target="_top" xlink:title="Clears the entire file contents. ">
<polygon fill="white" stroke="black" points="141,-76.5 141,-95.5 209,-95.5 209,-76.5 141,-76.5"/>
<text text-anchor="middle" x="175" y="-83.5" font-family="Helvetica,sans-Serif" font-size="10.00">xtfile_clear</text>
</a>
</g>
</g>
<!-- Node391&#45;&gt;Node413 -->
<g id="edge9" class="edge"><title>Node391&#45;&gt;Node413</title>
<path fill="none" stroke="midnightblue" d="M51.1385,-163.151C64.2448,-145.898 86.2586,-120.201 111,-105 120.052,-99.4383 130.842,-95.41 140.912,-92.535"/>
<polygon fill="midnightblue" stroke="midnightblue" points="48.2455,-161.177 45.1294,-171.303 53.8802,-165.33 48.2455,-161.177"/>
</g>
<!-- Node414 -->
<g id="node10" class="node"><title>Node414</title>
<g id="a_node10"><a xlink:href="xtfile_8c.xhtml#a1c5bee91f1654db6aaca14d4f313c32a" target="_top" xlink:title="Writes data to file. ">
<polygon fill="white" stroke="red" points="141.5,-38.5 141.5,-57.5 208.5,-57.5 208.5,-38.5 141.5,-38.5"/>
<text text-anchor="middle" x="175" y="-45.5" font-family="Helvetica,sans-Serif" font-size="10.00">xtfile_write</text>
</a>
</g>
</g>
<!-- Node391&#45;&gt;Node414 -->
<g id="edge10" class="edge"><title>Node391&#45;&gt;Node414</title>
<path fill="none" stroke="midnightblue" d="M45.6997,-161.811C56.2029,-136.406 78.1262,-91.9199 111,-67 119.74,-60.3748 130.784,-56.0466 141.176,-53.2244"/>
<polygon fill="midnightblue" stroke="midnightblue" points="42.3231,-160.832 41.8989,-171.419 48.8323,-163.408 42.3231,-160.832"/>
</g>
<!-- Node415 -->
<g id="node11" class="node"><title>Node415</title>
<g id="a_node11"><a xlink:href="xtfile_8c.xhtml#ab3f02b575f459d00a3005fed712dcace" target="_top" xlink:title="Closes an open file. ">
<polygon fill="white" stroke="red" points="140.5,-0.5 140.5,-19.5 209.5,-19.5 209.5,-0.5 140.5,-0.5"/>
<text text-anchor="middle" x="175" y="-7.5" font-family="Helvetica,sans-Serif" font-size="10.00">xtfile_close</text>
</a>
</g>
</g>
<!-- Node391&#45;&gt;Node415 -->
<g id="edge11" class="edge"><title>Node391&#45;&gt;Node415</title>
<path fill="none" stroke="midnightblue" d="M42.5342,-161.098C50.1482,-128.653 69.7219,-64.4313 111,-29 119.235,-21.9313 130.034,-17.4924 140.36,-14.7049"/>
<polygon fill="midnightblue" stroke="midnightblue" points="39.0532,-160.632 40.3238,-171.15 45.8899,-162.135 39.0532,-160.632"/>
</g>
<!-- Node398&#45;&gt;Node399 -->
<g id="edge3" class="edge"><title>Node398&#45;&gt;Node399</title>
<path fill="none" stroke="midnightblue" d="M249.094,-310.074C257.676,-308.908 266.378,-307.727 274.808,-306.582"/>
<polygon fill="midnightblue" stroke="midnightblue" points="248.535,-306.617 239.097,-311.431 249.477,-313.554 248.535,-306.617"/>
</g>
</g>
</svg>
