<?xml version="1.0" encoding="UTF-8" standalone="no"?>
<!DOCTYPE svg PUBLIC "-//W3C//DTD SVG 1.1//EN"
 "http://www.w3.org/Graphics/SVG/1.1/DTD/svg11.dtd">
<!-- Generated by graphviz version 2.38.0 (20140413.2041)
 -->
<!-- Title: xtfile_close Pages: 1 -->
<svg width="235pt" height="66pt"
 viewBox="0.00 0.00 235.00 66.00" xmlns="http://www.w3.org/2000/svg" xmlns:xlink="http://www.w3.org/1999/xlink">
<g id="graph0" class="graph" transform="scale(1 1) rotate(0) translate(4 62)">
<title>xtfile_close</title>
<polygon fill="white" stroke="none" points="-4,4 -4,-62 231,-62 231,4 -4,4"/>
<!-- Node24 -->
<g id="node1" class="node"><title>Node24</title>
<polygon fill="#bfbfbf" stroke="black" points="0,-19.5 0,-38.5 69,-38.5 69,-19.5 0,-19.5"/>
<text text-anchor="middle" x="34.5" y="-26.5" font-family="Helvetica,sans-Serif" font-size="10.00">xtfile_close</text>
</g>
<!-- Node25 -->
<g id="node2" class="node"><title>Node25</title>
<g id="a_node2"><a xlink:href="xep__application__mcp__callbacks_8h.xhtml#afe11f1a76ca4a0d72981f8dd137f593a" target="_top" xlink:title="onMcpGetCrashDump">
<polygon fill="white" stroke="red" points="105,-38.5 105,-57.5 227,-57.5 227,-38.5 105,-38.5"/>
<text text-anchor="middle" x="166" y="-45.5" font-family="Helvetica,sans-Serif" font-size="10.00">onMcpGetCrashDump</text>
</a>
</g>
</g>
<!-- Node24&#45;&gt;Node25 -->
<g id="edge1" class="edge"><title>Node24&#45;&gt;Node25</title>
<path fill="none" stroke="midnightblue" d="M79.295,-35.4255C87.5258,-36.6331 96.2629,-37.915 104.89,-39.1807"/>
<polygon fill="midnightblue" stroke="midnightblue" points="79.5887,-31.9312 69.1865,-33.9424 78.5725,-38.8571 79.5887,-31.9312"/>
</g>
<!-- Node29 -->
<g id="node3" class="node"><title>Node29</title>
<g id="a_node3"><a xlink:href="xep__application__mcp__callbacks_8h.xhtml#a912390dfebebae9c877ca3fd58f9a252" target="_top" xlink:title="onMcpCommitFile">
<polygon fill="white" stroke="red" points="115.5,-0.5 115.5,-19.5 216.5,-19.5 216.5,-0.5 115.5,-0.5"/>
<text text-anchor="middle" x="166" y="-7.5" font-family="Helvetica,sans-Serif" font-size="10.00">onMcpCommitFile</text>
</a>
</g>
</g>
<!-- Node24&#45;&gt;Node29 -->
<g id="edge2" class="edge"><title>Node24&#45;&gt;Node29</title>
<path fill="none" stroke="midnightblue" d="M79.1147,-22.6009C90.7625,-20.892 103.435,-19.0327 115.38,-17.2801"/>
<polygon fill="midnightblue" stroke="midnightblue" points="78.5725,-19.1429 69.1865,-24.0576 79.5887,-26.0688 78.5725,-19.1429"/>
</g>
</g>
</svg>
