<?xml version="1.0" encoding="UTF-8" standalone="no"?>
<!DOCTYPE svg PUBLIC "-//W3C//DTD SVG 1.1//EN"
 "http://www.w3.org/Graphics/SVG/1.1/DTD/svg11.dtd">
<!-- Generated by graphviz version 2.38.0 (20140413.2041)
 -->
<!-- Title: xtfile_delete Pages: 1 -->
<svg width="379pt" height="94pt"
 viewBox="0.00 0.00 379.00 94.00" xmlns="http://www.w3.org/2000/svg" xmlns:xlink="http://www.w3.org/1999/xlink">
<g id="graph0" class="graph" transform="scale(1 1) rotate(0) translate(4 90)">
<title>xtfile_delete</title>
<polygon fill="white" stroke="none" points="-4,4 -4,-90 375,-90 375,4 -4,4"/>
<!-- Node165 -->
<g id="node1" class="node"><title>Node165</title>
<polygon fill="#bfbfbf" stroke="black" points="0,-22.5 0,-41.5 74,-41.5 74,-22.5 0,-22.5"/>
<text text-anchor="middle" x="37" y="-29.5" font-family="Helvetica,sans-Serif" font-size="10.00">xtfile_delete</text>
</g>
<!-- Node166 -->
<g id="node2" class="node"><title>Node166</title>
<g id="a_node2"><a xlink:href="xep__application__mcp__callbacks_8h.xhtml#a5c62248de35baf6dcbef3aef0b6ab501" target="_top" xlink:title="onMcpClearCrashDump">
<polygon fill="white" stroke="red" points="110,-66.5 110,-85.5 240,-85.5 240,-66.5 110,-66.5"/>
<text text-anchor="middle" x="175" y="-73.5" font-family="Helvetica,sans-Serif" font-size="10.00">onMcpClearCrashDump</text>
</a>
</g>
</g>
<!-- Node165&#45;&gt;Node166 -->
<g id="edge1" class="edge"><title>Node165&#45;&gt;Node166</title>
<path fill="none" stroke="midnightblue" d="M74.2198,-44.9377C85.6321,-48.9169 98.3096,-53.2373 110,-57 119.93,-60.196 130.788,-63.4932 140.694,-66.4253"/>
<polygon fill="midnightblue" stroke="midnightblue" points="75.168,-41.5612 64.5732,-41.5513 72.8494,-48.1661 75.168,-41.5612"/>
</g>
<!-- Node170 -->
<g id="node3" class="node"><title>Node170</title>
<g id="a_node3"><a xlink:href="xep__application__mcp__callbacks_8c.xhtml#a7f8cc9c9173f6cd4a55f1679d3c55e8f" target="_top" xlink:title="wait_and_confirm_file\l_delete">
<polygon fill="white" stroke="black" points="115.5,-17 115.5,-47 234.5,-47 234.5,-17 115.5,-17"/>
<text text-anchor="start" x="123.5" y="-35" font-family="Helvetica,sans-Serif" font-size="10.00">wait_and_confirm_file</text>
<text text-anchor="middle" x="175" y="-24" font-family="Helvetica,sans-Serif" font-size="10.00">_delete</text>
</a>
</g>
</g>
<!-- Node165&#45;&gt;Node170 -->
<g id="edge2" class="edge"><title>Node165&#45;&gt;Node170</title>
<path fill="none" stroke="midnightblue" d="M84.2266,-32C94.2401,-32 104.958,-32 115.376,-32"/>
<polygon fill="midnightblue" stroke="midnightblue" points="84.0885,-28.5001 74.0884,-32 84.0884,-35.5001 84.0885,-28.5001"/>
</g>
<!-- Node171 -->
<g id="node4" class="node"><title>Node171</title>
<g id="a_node4"><a xlink:href="xep__application__mcp__callbacks_8h.xhtml#a3e9674072380859aa2ce9841402c33e9" target="_top" xlink:title="onMcpDeleteFile">
<polygon fill="white" stroke="red" points="276,-0.5 276,-19.5 371,-19.5 371,-0.5 276,-0.5"/>
<text text-anchor="middle" x="323.5" y="-7.5" font-family="Helvetica,sans-Serif" font-size="10.00">onMcpDeleteFile</text>
</a>
</g>
</g>
<!-- Node165&#45;&gt;Node171 -->
<g id="edge4" class="edge"><title>Node165&#45;&gt;Node171</title>
<path fill="none" stroke="midnightblue" d="M69.9265,-18.9054C82.2302,-14.5144 96.556,-10.1817 110,-8 166.447,1.16013 232.441,-1.50527 275.728,-5.03425"/>
<polygon fill="midnightblue" stroke="midnightblue" points="68.697,-15.6283 60.5482,-22.3994 71.1409,-22.1879 68.697,-15.6283"/>
</g>
<!-- Node170&#45;&gt;Node171 -->
<g id="edge3" class="edge"><title>Node170&#45;&gt;Node171</title>
<path fill="none" stroke="midnightblue" d="M244.786,-21.6703C255.331,-20.0868 266,-18.4847 275.914,-16.9959"/>
<polygon fill="midnightblue" stroke="midnightblue" points="244.112,-18.2322 234.743,-23.1785 245.152,-25.1546 244.112,-18.2322"/>
</g>
</g>
</svg>
