<?xml version="1.0" encoding="UTF-8" standalone="no"?>
<!DOCTYPE svg PUBLIC "-//W3C//DTD SVG 1.1//EN"
 "http://www.w3.org/Graphics/SVG/1.1/DTD/svg11.dtd">
<!-- Generated by graphviz version 2.38.0 (20140413.2041)
 -->
<!-- Title: xtfile_open Pages: 1 -->
<svg width="350pt" height="218pt"
 viewBox="0.00 0.00 350.00 218.00" xmlns="http://www.w3.org/2000/svg" xmlns:xlink="http://www.w3.org/1999/xlink">
<g id="graph0" class="graph" transform="scale(1 1) rotate(0) translate(4 214)">
<title>xtfile_open</title>
<polygon fill="white" stroke="none" points="-4,4 -4,-214 346,-214 346,4 -4,4"/>
<!-- Node348 -->
<g id="node1" class="node"><title>Node348</title>
<polygon fill="#bfbfbf" stroke="black" points="0,-95.5 0,-114.5 68,-114.5 68,-95.5 0,-95.5"/>
<text text-anchor="middle" x="34" y="-102.5" font-family="Helvetica,sans-Serif" font-size="10.00">xtfile_open</text>
</g>
<!-- Node349 -->
<g id="node2" class="node"><title>Node349</title>
<g id="a_node2"><a xlink:href="xtfile_8c.xhtml#ab6502b729403c595b606e92bf005bd09" target="_top" xlink:title="xtfile_lock">
<polygon fill="white" stroke="red" points="133,-190.5 133,-209.5 196,-209.5 196,-190.5 133,-190.5"/>
<text text-anchor="middle" x="164.5" y="-197.5" font-family="Helvetica,sans-Serif" font-size="10.00">xtfile_lock</text>
</a>
</g>
</g>
<!-- Node348&#45;&gt;Node349 -->
<g id="edge1" class="edge"><title>Node348&#45;&gt;Node349</title>
<path fill="none" stroke="midnightblue" d="M42.074,-114.504C53.5874,-129.401 77.7473,-158.364 104,-176 109.901,-179.965 116.559,-183.444 123.229,-186.434"/>
<polygon fill="midnightblue" stroke="midnightblue" points="122.345,-189.857 132.922,-190.464 125.032,-183.393 122.345,-189.857"/>
</g>
<!-- Node351 -->
<g id="node3" class="node"><title>Node351</title>
<g id="a_node3"><a xlink:href="xtfile_8c.xhtml#a615248bef74b3021de95c188fcc6504c" target="_top" xlink:title="xtfile_is_open">
<polygon fill="white" stroke="black" points="261,-95.5 261,-114.5 342,-114.5 342,-95.5 261,-95.5"/>
<text text-anchor="middle" x="301.5" y="-102.5" font-family="Helvetica,sans-Serif" font-size="10.00">xtfile_is_open</text>
</a>
</g>
</g>
<!-- Node348&#45;&gt;Node351 -->
<g id="edge2" class="edge"><title>Node348&#45;&gt;Node351</title>
<path fill="none" stroke="midnightblue" d="M47.8918,-114.724C61.1532,-124.069 82.8084,-137.551 104,-143 156.083,-156.393 172.677,-155.425 225,-143 243.856,-138.522 263.351,-128.551 277.807,-119.946"/>
<polygon fill="midnightblue" stroke="midnightblue" points="279.855,-122.795 286.522,-114.56 276.175,-116.84 279.855,-122.795"/>
</g>
<!-- Node352 -->
<g id="node4" class="node"><title>Node352</title>
<g id="a_node4"><a xlink:href="xtfile_8c.xhtml#a5f00b9d0119e29899a5acf83033147e4" target="_top" xlink:title="xtfile_unlock">
<polygon fill="white" stroke="red" points="127,-114.5 127,-133.5 202,-133.5 202,-114.5 127,-114.5"/>
<text text-anchor="middle" x="164.5" y="-121.5" font-family="Helvetica,sans-Serif" font-size="10.00">xtfile_unlock</text>
</a>
</g>
</g>
<!-- Node348&#45;&gt;Node352 -->
<g id="edge3" class="edge"><title>Node348&#45;&gt;Node352</title>
<path fill="none" stroke="midnightblue" d="M68.0919,-109.893C82.8541,-112.076 100.512,-114.687 116.6,-117.065"/>
<polygon fill="midnightblue" stroke="midnightblue" points="116.496,-120.588 126.9,-118.588 117.52,-113.663 116.496,-120.588"/>
</g>
<!-- Node354 -->
<g id="node5" class="node"><title>Node354</title>
<g id="a_node5"><a xlink:href="xfs_8c.xhtml#a7b8e251b6d5e10731cd7a9379e67b8be" target="_top" xlink:title="Gets the size of file with given type and identifier. ">
<polygon fill="white" stroke="red" points="127,-76.5 127,-95.5 202,-95.5 202,-76.5 127,-76.5"/>
<text text-anchor="middle" x="164.5" y="-83.5" font-family="Helvetica,sans-Serif" font-size="10.00">xfs_get_size</text>
</a>
</g>
</g>
<!-- Node348&#45;&gt;Node354 -->
<g id="edge4" class="edge"><title>Node348&#45;&gt;Node354</title>
<path fill="none" stroke="midnightblue" d="M68.0919,-100.107C82.8541,-97.9243 100.512,-95.3134 116.6,-92.9346"/>
<polygon fill="midnightblue" stroke="midnightblue" points="117.52,-96.3368 126.9,-91.4117 116.496,-89.4121 117.52,-96.3368"/>
</g>
<!-- Node359 -->
<g id="node6" class="node"><title>Node359</title>
<g id="a_node6"><a xlink:href="xtfile_8c.xhtml#a3664f1f9f0c2893e041970d9a758cd48" target="_top" xlink:title="xtfile_create_instance">
<polygon fill="white" stroke="black" points="104,-38.5 104,-57.5 225,-57.5 225,-38.5 104,-38.5"/>
<text text-anchor="middle" x="164.5" y="-45.5" font-family="Helvetica,sans-Serif" font-size="10.00">xtfile_create_instance</text>
</a>
</g>
</g>
<!-- Node348&#45;&gt;Node359 -->
<g id="edge5" class="edge"><title>Node348&#45;&gt;Node359</title>
<path fill="none" stroke="midnightblue" d="M50.4562,-95.3482C64.16,-87.0706 84.9048,-75.2143 104,-67 109.105,-64.8039 114.551,-62.7256 119.996,-60.806"/>
<polygon fill="midnightblue" stroke="midnightblue" points="121.363,-64.0388 129.724,-57.5308 119.13,-57.4047 121.363,-64.0388"/>
</g>
<!-- Node360 -->
<g id="node7" class="node"><title>Node360</title>
<g id="a_node7"><a xlink:href="xfs_8c.xhtml#afcbd27cc31bf59c4ecf4520a56c871a6" target="_top" xlink:title="Gets a pointer to the file data in flash. ">
<polygon fill="white" stroke="red" points="110,-0.5 110,-19.5 219,-19.5 219,-0.5 110,-0.5"/>
<text text-anchor="middle" x="164.5" y="-7.5" font-family="Helvetica,sans-Serif" font-size="10.00">xfs_get_file_pointer</text>
</a>
</g>
</g>
<!-- Node348&#45;&gt;Node360 -->
<g id="edge7" class="edge"><title>Node348&#45;&gt;Node360</title>
<path fill="none" stroke="midnightblue" d="M41.2264,-95.3404C52.0715,-79.2673 75.9677,-47.0218 104,-29 107.15,-26.9751 110.532,-25.1507 114.028,-23.5096"/>
<polygon fill="midnightblue" stroke="midnightblue" points="115.574,-26.657 123.461,-19.582 112.884,-20.1947 115.574,-26.657"/>
</g>
<!-- Node359&#45;&gt;Node351 -->
<g id="edge6" class="edge"><title>Node359&#45;&gt;Node351</title>
<path fill="none" stroke="midnightblue" d="M198.566,-57.542C207.262,-60.327 216.567,-63.5564 225,-67 241.939,-73.9172 260.288,-83.1109 274.655,-90.7225"/>
<polygon fill="midnightblue" stroke="midnightblue" points="273.001,-93.8069 283.467,-95.4562 276.314,-87.6404 273.001,-93.8069"/>
</g>
</g>
</svg>
