<?xml version="1.0" encoding="UTF-8" standalone="no"?>
<!DOCTYPE svg PUBLIC "-//W3C//DTD SVG 1.1//EN"
 "http://www.w3.org/Graphics/SVG/1.1/DTD/svg11.dtd">
<!-- Generated by graphviz version 2.38.0 (20140413.2041)
 -->
<!-- Title: xtfile_write Pages: 1 -->
<svg width="188pt" height="104pt"
 viewBox="0.00 0.00 188.00 104.00" xmlns="http://www.w3.org/2000/svg" xmlns:xlink="http://www.w3.org/1999/xlink">
<g id="graph0" class="graph" transform="scale(1 1) rotate(0) translate(4 100)">
<title>xtfile_write</title>
<polygon fill="white" stroke="none" points="-4,4 -4,-100 184,-100 184,4 -4,4"/>
<!-- Node416 -->
<g id="node1" class="node"><title>Node416</title>
<polygon fill="#bfbfbf" stroke="black" points="0,-38.5 0,-57.5 67,-57.5 67,-38.5 0,-38.5"/>
<text text-anchor="middle" x="33.5" y="-45.5" font-family="Helvetica,sans-Serif" font-size="10.00">xtfile_write</text>
</g>
<!-- Node417 -->
<g id="node2" class="node"><title>Node417</title>
<g id="a_node2"><a xlink:href="xtfile_8c.xhtml#ab6502b729403c595b606e92bf005bd09" target="_top" xlink:title="xtfile_lock">
<polygon fill="white" stroke="red" points="110,-76.5 110,-95.5 173,-95.5 173,-76.5 110,-76.5"/>
<text text-anchor="middle" x="141.5" y="-83.5" font-family="Helvetica,sans-Serif" font-size="10.00">xtfile_lock</text>
</a>
</g>
</g>
<!-- Node416&#45;&gt;Node417 -->
<g id="edge1" class="edge"><title>Node416&#45;&gt;Node417</title>
<path fill="none" stroke="midnightblue" d="M61.2483,-57.589C74.3042,-62.2694 90.2035,-67.9692 104.325,-73.0315"/>
<polygon fill="midnightblue" stroke="midnightblue" points="103.166,-76.3341 113.76,-76.4141 105.528,-69.7447 103.166,-76.3341"/>
</g>
<!-- Node419 -->
<g id="node3" class="node"><title>Node419</title>
<g id="a_node3"><a xlink:href="xtfile_8c.xhtml#a5f00b9d0119e29899a5acf83033147e4" target="_top" xlink:title="xtfile_unlock">
<polygon fill="white" stroke="red" points="104,-38.5 104,-57.5 179,-57.5 179,-38.5 104,-38.5"/>
<text text-anchor="middle" x="141.5" y="-45.5" font-family="Helvetica,sans-Serif" font-size="10.00">xtfile_unlock</text>
</a>
</g>
</g>
<!-- Node416&#45;&gt;Node419 -->
<g id="edge2" class="edge"><title>Node416&#45;&gt;Node419</title>
<path fill="none" stroke="midnightblue" d="M67.1684,-48C75.4756,-48 84.5683,-48 93.4364,-48"/>
<polygon fill="midnightblue" stroke="midnightblue" points="93.6832,-51.5001 103.683,-48 93.6832,-44.5001 93.6832,-51.5001"/>
</g>
<!-- Node421 -->
<g id="node4" class="node"><title>Node421</title>
<g id="a_node4"><a xlink:href="xfs_8c.xhtml#a9fadb27c69014a6f606f00781d0c24e5" target="_top" xlink:title="Writes the file data to flash at given offset. ">
<polygon fill="white" stroke="red" points="103,-0.5 103,-19.5 180,-19.5 180,-0.5 103,-0.5"/>
<text text-anchor="middle" x="141.5" y="-7.5" font-family="Helvetica,sans-Serif" font-size="10.00">xfs_write_file</text>
</a>
</g>
</g>
<!-- Node416&#45;&gt;Node421 -->
<g id="edge3" class="edge"><title>Node416&#45;&gt;Node421</title>
<path fill="none" stroke="midnightblue" d="M61.2483,-38.411C74.3042,-33.7306 90.2035,-28.0308 104.325,-22.9685"/>
<polygon fill="midnightblue" stroke="midnightblue" points="105.528,-26.2553 113.76,-19.5859 103.166,-19.6659 105.528,-26.2553"/>
</g>
</g>
</svg>
