<?xml version="1.0" encoding="UTF-8" standalone="no"?>
<!DOCTYPE svg PUBLIC "-//W3C//DTD SVG 1.1//EN"
 "http://www.w3.org/Graphics/SVG/1.1/DTD/svg11.dtd">
<!-- Generated by graphviz version 2.38.0 (20140413.2041)
 -->
<!-- Title: src/System/Housekeeping/xthousekeeping.c Pages: 1 -->
<svg width="679pt" height="95pt"
 viewBox="0.00 0.00 679.00 95.00" xmlns="http://www.w3.org/2000/svg" xmlns:xlink="http://www.w3.org/1999/xlink">
<g id="graph0" class="graph" transform="scale(1 1) rotate(0) translate(4 91)">
<title>src/System/Housekeeping/xthousekeeping.c</title>
<polygon fill="white" stroke="none" points="-4,4 -4,-91 675,-91 675,4 -4,4"/>
<!-- Node0 -->
<g id="node1" class="node"><title>Node0</title>
<polygon fill="#bfbfbf" stroke="black" points="258.5,-56.5 258.5,-86.5 400.5,-86.5 400.5,-56.5 258.5,-56.5"/>
<text text-anchor="start" x="266.5" y="-74.5" font-family="Helvetica,sans-Serif" font-size="10.00">src/System/Housekeeping</text>
<text text-anchor="middle" x="329.5" y="-63.5" font-family="Helvetica,sans-Serif" font-size="10.00">/xthousekeeping.c</text>
</g>
<!-- Node1 -->
<g id="node2" class="node"><title>Node1</title>
<g id="a_node2"><a xlink:href="xthousekeeping_8h.xhtml" target="_top" xlink:title="xthousekeeping.h">
<polygon fill="white" stroke="red" points="0,-0.5 0,-19.5 101,-19.5 101,-0.5 0,-0.5"/>
<text text-anchor="middle" x="50.5" y="-7.5" font-family="Helvetica,sans-Serif" font-size="10.00">xthousekeeping.h</text>
</a>
</g>
</g>
<!-- Node0&#45;&gt;Node1 -->
<g id="edge1" class="edge"><title>Node0&#45;&gt;Node1</title>
<path fill="none" stroke="midnightblue" d="M263.734,-56.4747C213.709,-45.8063 145.932,-31.352 100.335,-21.6278"/>
<polygon fill="midnightblue" stroke="midnightblue" points="100.897,-18.1691 90.387,-19.5064 99.4371,-25.0152 100.897,-18.1691"/>
</g>
<!-- Node9 -->
<g id="node3" class="node"><title>Node9</title>
<g id="a_node3"><a xlink:href="xtfile_8h.xhtml" target="_top" xlink:title="xtfile.h">
<polygon fill="white" stroke="red" points="119.5,-0.5 119.5,-19.5 167.5,-19.5 167.5,-0.5 119.5,-0.5"/>
<text text-anchor="middle" x="143.5" y="-7.5" font-family="Helvetica,sans-Serif" font-size="10.00">xtfile.h</text>
</a>
</g>
</g>
<!-- Node0&#45;&gt;Node9 -->
<g id="edge2" class="edge"><title>Node0&#45;&gt;Node9</title>
<path fill="none" stroke="midnightblue" d="M285.421,-56.3993C252.315,-45.8092 207.649,-31.5206 177.33,-21.8221"/>
<polygon fill="midnightblue" stroke="midnightblue" points="178.227,-18.4342 167.636,-18.7209 176.094,-25.1014 178.227,-18.4342"/>
</g>
<!-- Node10 -->
<g id="node4" class="node"><title>Node10</title>
<g id="a_node4"><a xlink:href="xfs_8h.xhtml" target="_top" xlink:title="xfs.h">
<polygon fill="white" stroke="red" points="186,-0.5 186,-19.5 225,-19.5 225,-0.5 186,-0.5"/>
<text text-anchor="middle" x="205.5" y="-7.5" font-family="Helvetica,sans-Serif" font-size="10.00">xfs.h</text>
</a>
</g>
</g>
<!-- Node0&#45;&gt;Node10 -->
<g id="edge3" class="edge"><title>Node0&#45;&gt;Node10</title>
<path fill="none" stroke="midnightblue" d="M300.114,-56.3993C279.68,-46.5945 252.64,-33.6194 232.701,-24.052"/>
<polygon fill="midnightblue" stroke="midnightblue" points="234.073,-20.8284 223.543,-19.6578 231.045,-27.1395 234.073,-20.8284"/>
</g>
<!-- Node11 -->
<g id="node5" class="node"><title>Node11</title>
<g id="a_node5"><a xlink:href="xtmemory_8h.xhtml" target="_top" xlink:title="Platform independent mutex mechanism. ">
<polygon fill="white" stroke="red" points="243.5,-0.5 243.5,-19.5 317.5,-19.5 317.5,-0.5 243.5,-0.5"/>
<text text-anchor="middle" x="280.5" y="-7.5" font-family="Helvetica,sans-Serif" font-size="10.00">xtmemory.h</text>
</a>
</g>
</g>
<!-- Node0&#45;&gt;Node11 -->
<g id="edge4" class="edge"><title>Node0&#45;&gt;Node11</title>
<path fill="none" stroke="midnightblue" d="M317.888,-56.3993C310.767,-47.7533 301.617,-36.642 294.151,-27.576"/>
<polygon fill="midnightblue" stroke="midnightblue" points="296.689,-25.1521 287.63,-19.6578 291.285,-29.6021 296.689,-25.1521"/>
</g>
<!-- Node12 -->
<g id="node6" class="node"><title>Node12</title>
<g id="a_node6"><a xlink:href="task__monitor_8h.xhtml" target="_top" xlink:title="System monitor task. ">
<polygon fill="white" stroke="red" points="335.5,-0.5 335.5,-19.5 423.5,-19.5 423.5,-0.5 335.5,-0.5"/>
<text text-anchor="middle" x="379.5" y="-7.5" font-family="Helvetica,sans-Serif" font-size="10.00">task_monitor.h</text>
</a>
</g>
</g>
<!-- Node0&#45;&gt;Node12 -->
<g id="edge5" class="edge"><title>Node0&#45;&gt;Node12</title>
<path fill="none" stroke="midnightblue" d="M341.349,-56.3993C348.615,-47.7533 357.952,-36.642 365.571,-27.576"/>
<polygon fill="midnightblue" stroke="midnightblue" points="368.471,-29.5653 372.225,-19.6578 363.112,-25.0619 368.471,-29.5653"/>
</g>
<!-- Node13 -->
<g id="node7" class="node"><title>Node13</title>
<polygon fill="white" stroke="#bfbfbf" points="442,-0.5 442,-19.5 513,-19.5 513,-0.5 442,-0.5"/>
<text text-anchor="middle" x="477.5" y="-7.5" font-family="Helvetica,sans-Serif" font-size="10.00">FreeRTOS.h</text>
</g>
<!-- Node0&#45;&gt;Node13 -->
<g id="edge6" class="edge"><title>Node0&#45;&gt;Node13</title>
<path fill="none" stroke="midnightblue" d="M364.574,-56.3993C389.517,-46.3717 422.708,-33.028 446.644,-23.405"/>
<polygon fill="midnightblue" stroke="midnightblue" points="447.992,-26.6354 455.965,-19.6578 445.381,-20.1406 447.992,-26.6354"/>
</g>
<!-- Node14 -->
<g id="node8" class="node"><title>Node14</title>
<polygon fill="white" stroke="#bfbfbf" points="531.5,-0.5 531.5,-19.5 577.5,-19.5 577.5,-0.5 531.5,-0.5"/>
<text text-anchor="middle" x="554.5" y="-7.5" font-family="Helvetica,sans-Serif" font-size="10.00">task.h</text>
</g>
<!-- Node0&#45;&gt;Node14 -->
<g id="edge7" class="edge"><title>Node0&#45;&gt;Node14</title>
<path fill="none" stroke="midnightblue" d="M384.477,-56.3994C420.867,-47.0004 469.887,-34.2156 521.731,-20.175"/>
<polygon fill="midnightblue" stroke="midnightblue" points="522.708,-23.5366 531.442,-17.5393 520.874,-16.7811 522.708,-23.5366"/>
</g>
<!-- Node15 -->
<g id="node9" class="node"><title>Node15</title>
<g id="a_node9"><a xlink:href="xt__system_8h.xhtml" target="_top" xlink:title="xt_system.h">
<polygon fill="white" stroke="black" points="596,-0.5 596,-19.5 671,-19.5 671,-0.5 596,-0.5"/>
<text text-anchor="middle" x="633.5" y="-7.5" font-family="Helvetica,sans-Serif" font-size="10.00">xt_system.h</text>
</a>
</g>
</g>
<!-- Node0&#45;&gt;Node15 -->
<g id="edge8" class="edge"><title>Node0&#45;&gt;Node15</title>
<path fill="none" stroke="midnightblue" d="M400.774,-56.5499C457.91,-45.3671 536.484,-29.9883 586.129,-20.2716"/>
<polygon fill="midnightblue" stroke="midnightblue" points="586.82,-23.7028 595.962,-18.3471 585.476,-16.8332 586.82,-23.7028"/>
</g>
</g>
</svg>
