<?xml version="1.0" encoding="UTF-8" standalone="no"?>
<!DOCTYPE svg PUBLIC "-//W3C//DTD SVG 1.1//EN"
 "http://www.w3.org/Graphics/SVG/1.1/DTD/svg11.dtd">
<!-- Generated by graphviz version 2.38.0 (20140413.2041)
 -->
<!-- Title: xtio_flash_write Pages: 1 -->
<svg width="256pt" height="116pt"
 viewBox="0.00 0.00 256.00 115.50" xmlns="http://www.w3.org/2000/svg" xmlns:xlink="http://www.w3.org/1999/xlink">
<g id="graph0" class="graph" transform="scale(1 1) rotate(0) translate(4 111.5)">
<title>xtio_flash_write</title>
<polygon fill="white" stroke="none" points="-4,4 -4,-111.5 252,-111.5 252,4 -4,4"/>
<!-- Node141 -->
<g id="node1" class="node"><title>Node141</title>
<polygon fill="#bfbfbf" stroke="black" points="0,-38.5 0,-57.5 89,-57.5 89,-38.5 0,-38.5"/>
<text text-anchor="middle" x="44.5" y="-45.5" font-family="Helvetica,sans-Serif" font-size="10.00">xtio_flash_write</text>
</g>
<!-- Node142 -->
<g id="node2" class="node"><title>Node142</title>
<g id="a_node2"><a xlink:href="xfs_8c.xhtml#a7b9303aef25ff6fcc0ac8087eca101d4" target="_top" xlink:title="xfs_commit_allocation\l_table">
<polygon fill="white" stroke="red" points="125,-77 125,-107 248,-107 248,-77 125,-77"/>
<text text-anchor="start" x="133" y="-95" font-family="Helvetica,sans-Serif" font-size="10.00">xfs_commit_allocation</text>
<text text-anchor="middle" x="186.5" y="-84" font-family="Helvetica,sans-Serif" font-size="10.00">_table</text>
</a>
</g>
</g>
<!-- Node141&#45;&gt;Node142 -->
<g id="edge1" class="edge"><title>Node141&#45;&gt;Node142</title>
<path fill="none" stroke="midnightblue" d="M85.5884,-60.5992C101.796,-65.6931 120.639,-71.6151 137.565,-76.9346"/>
<polygon fill="midnightblue" stroke="midnightblue" points="86.4673,-57.2067 75.8779,-57.5473 84.3684,-63.8847 86.4673,-57.2067"/>
</g>
<!-- Node160 -->
<g id="node3" class="node"><title>Node160</title>
<g id="a_node3"><a xlink:href="xfs_8h.xhtml#a9fadb27c69014a6f606f00781d0c24e5" target="_top" xlink:title="Writes the file data to flash at given offset. ">
<polygon fill="white" stroke="red" points="148,-38.5 148,-57.5 225,-57.5 225,-38.5 148,-38.5"/>
<text text-anchor="middle" x="186.5" y="-45.5" font-family="Helvetica,sans-Serif" font-size="10.00">xfs_write_file</text>
</a>
</g>
</g>
<!-- Node141&#45;&gt;Node160 -->
<g id="edge2" class="edge"><title>Node141&#45;&gt;Node160</title>
<path fill="none" stroke="midnightblue" d="M99.4048,-48C115.515,-48 132.829,-48 147.675,-48"/>
<polygon fill="midnightblue" stroke="midnightblue" points="99.0295,-44.5001 89.0295,-48 99.0294,-51.5001 99.0295,-44.5001"/>
</g>
<!-- Node164 -->
<g id="node4" class="node"><title>Node164</title>
<g id="a_node4"><a xlink:href="xfs_8h.xhtml#a975b6f2d064a2205832dfc2b7e0b7799" target="_top" xlink:title="Formats the file system to an empty state. ">
<polygon fill="white" stroke="red" points="152.5,-0.5 152.5,-19.5 220.5,-19.5 220.5,-0.5 152.5,-0.5"/>
<text text-anchor="middle" x="186.5" y="-7.5" font-family="Helvetica,sans-Serif" font-size="10.00">xfs_format</text>
</a>
</g>
</g>
<!-- Node141&#45;&gt;Node164 -->
<g id="edge3" class="edge"><title>Node141&#45;&gt;Node164</title>
<path fill="none" stroke="midnightblue" d="M90.652,-35.7444C110.633,-30.3209 133.719,-24.0549 152.111,-19.0627"/>
<polygon fill="midnightblue" stroke="midnightblue" points="89.5619,-32.4136 80.8279,-38.411 91.3956,-39.1692 89.5619,-32.4136"/>
</g>
</g>
</svg>
