<?xml version="1.0" encoding="UTF-8" standalone="no"?>
<!DOCTYPE svg PUBLIC "-//W3C//DTD SVG 1.1//EN"
 "http://www.w3.org/Graphics/SVG/1.1/DTD/svg11.dtd">
<!-- Generated by graphviz version 2.38.0 (20140413.2041)
 -->
<!-- Title: src/hal/x4m0x_s70/xtio_flash.h Pages: 1 -->
<svg width="270pt" height="106pt"
 viewBox="0.00 0.00 270.00 106.00" xmlns="http://www.w3.org/2000/svg" xmlns:xlink="http://www.w3.org/1999/xlink">
<g id="graph0" class="graph" transform="scale(1 1) rotate(0) translate(4 102)">
<title>src/hal/x4m0x_s70/xtio_flash.h</title>
<polygon fill="white" stroke="none" points="-4,4 -4,-102 266,-102 266,4 -4,4"/>
<!-- Node4 -->
<g id="node1" class="node"><title>Node4</title>
<polygon fill="#bfbfbf" stroke="black" points="66,-67.5 66,-97.5 192,-97.5 192,-67.5 66,-67.5"/>
<text text-anchor="start" x="74" y="-85.5" font-family="Helvetica,sans-Serif" font-size="10.00">src/hal/x4m0x_s70/xtio</text>
<text text-anchor="middle" x="129" y="-74.5" font-family="Helvetica,sans-Serif" font-size="10.00">_flash.h</text>
</g>
<!-- Node5 -->
<g id="node2" class="node"><title>Node5</title>
<g id="a_node2"><a xlink:href="xt__config_8c.xhtml" target="_top" xlink:title="src/hal/x4m0x_s70/xt\l_config.c">
<polygon fill="white" stroke="black" points="0,-0.5 0,-30.5 118,-30.5 118,-0.5 0,-0.5"/>
<text text-anchor="start" x="8" y="-18.5" font-family="Helvetica,sans-Serif" font-size="10.00">src/hal/x4m0x_s70/xt</text>
<text text-anchor="middle" x="59" y="-7.5" font-family="Helvetica,sans-Serif" font-size="10.00">_config.c</text>
</a>
</g>
</g>
<!-- Node4&#45;&gt;Node5 -->
<g id="edge1" class="edge"><title>Node4&#45;&gt;Node5</title>
<path fill="none" stroke="midnightblue" d="M106.182,-60.3115C95.6813,-50.5612 83.5097,-39.259 74.1593,-30.5765"/>
<polygon fill="midnightblue" stroke="midnightblue" points="104.101,-63.1562 113.811,-67.396 108.865,-58.0266 104.101,-63.1562"/>
</g>
<!-- Node6 -->
<g id="node3" class="node"><title>Node6</title>
<g id="a_node3"><a xlink:href="xtio__flash_8c.xhtml" target="_top" xlink:title="Implementation of flash functions for X4M0x boards with Atmel SAM S70 MCU. ">
<polygon fill="white" stroke="black" points="136,-0.5 136,-30.5 262,-30.5 262,-0.5 136,-0.5"/>
<text text-anchor="start" x="144" y="-18.5" font-family="Helvetica,sans-Serif" font-size="10.00">src/hal/x4m0x_s70/xtio</text>
<text text-anchor="middle" x="199" y="-7.5" font-family="Helvetica,sans-Serif" font-size="10.00">_flash.c</text>
</a>
</g>
</g>
<!-- Node4&#45;&gt;Node6 -->
<g id="edge2" class="edge"><title>Node4&#45;&gt;Node6</title>
<path fill="none" stroke="midnightblue" d="M151.818,-60.3115C162.319,-50.5612 174.49,-39.259 183.841,-30.5765"/>
<polygon fill="midnightblue" stroke="midnightblue" points="149.135,-58.0266 144.189,-67.396 153.899,-63.1562 149.135,-58.0266"/>
</g>
</g>
</svg>
