<?xml version="1.0" encoding="UTF-8" standalone="no"?>
<!DOCTYPE svg PUBLIC "-//W3C//DTD SVG 1.1//EN"
 "http://www.w3.org/Graphics/SVG/1.1/DTD/svg11.dtd">
<!-- Generated by graphviz version 2.38.0 (20140413.2041)
 -->
<!-- Title: src/hal/x4m0x_s70/xtio_uart.h Pages: 1 -->
<svg width="304pt" height="95pt"
 viewBox="0.00 0.00 304.00 95.00" xmlns="http://www.w3.org/2000/svg" xmlns:xlink="http://www.w3.org/1999/xlink">
<g id="graph0" class="graph" transform="scale(1 1) rotate(0) translate(4 91)">
<title>src/hal/x4m0x_s70/xtio_uart.h</title>
<polygon fill="white" stroke="none" points="-4,4 -4,-91 300,-91 300,4 -4,4"/>
<!-- Node0 -->
<g id="node1" class="node"><title>Node0</title>
<polygon fill="#bfbfbf" stroke="black" points="95,-56.5 95,-86.5 221,-86.5 221,-56.5 95,-56.5"/>
<text text-anchor="start" x="103" y="-74.5" font-family="Helvetica,sans-Serif" font-size="10.00">src/hal/x4m0x_s70/xtio</text>
<text text-anchor="middle" x="158" y="-63.5" font-family="Helvetica,sans-Serif" font-size="10.00">_uart.h</text>
</g>
<!-- Node1 -->
<g id="node2" class="node"><title>Node1</title>
<g id="a_node2"><a xlink:href="xep__hal_8h.xhtml" target="_top" xlink:title="Brief description. ">
<polygon fill="white" stroke="red" points="0,-0.5 0,-19.5 62,-19.5 62,-0.5 0,-0.5"/>
<text text-anchor="middle" x="31" y="-7.5" font-family="Helvetica,sans-Serif" font-size="10.00">xep_hal.h</text>
</a>
</g>
</g>
<!-- Node0&#45;&gt;Node1 -->
<g id="edge1" class="edge"><title>Node0&#45;&gt;Node1</title>
<path fill="none" stroke="midnightblue" d="M127.903,-56.3993C106.88,-46.55 79.0282,-33.5014 58.5808,-23.9217"/>
<polygon fill="midnightblue" stroke="midnightblue" points="60.02,-20.7309 49.4796,-19.6578 57.0502,-27.0698 60.02,-20.7309"/>
</g>
<!-- Node4 -->
<g id="node3" class="node"><title>Node4</title>
<polygon fill="white" stroke="#bfbfbf" points="80.5,-0.5 80.5,-19.5 151.5,-19.5 151.5,-0.5 80.5,-0.5"/>
<text text-anchor="middle" x="116" y="-7.5" font-family="Helvetica,sans-Serif" font-size="10.00">FreeRTOS.h</text>
</g>
<!-- Node0&#45;&gt;Node4 -->
<g id="edge2" class="edge"><title>Node0&#45;&gt;Node4</title>
<path fill="none" stroke="midnightblue" d="M148.047,-56.3993C142.006,-47.8424 134.262,-36.8708 127.899,-27.857"/>
<polygon fill="midnightblue" stroke="midnightblue" points="130.738,-25.8091 122.111,-19.6578 125.019,-29.8459 130.738,-25.8091"/>
</g>
<!-- Node5 -->
<g id="node4" class="node"><title>Node5</title>
<polygon fill="white" stroke="#bfbfbf" points="170,-0.5 170,-19.5 232,-19.5 232,-0.5 170,-0.5"/>
<text text-anchor="middle" x="201" y="-7.5" font-family="Helvetica,sans-Serif" font-size="10.00">semphr.h</text>
</g>
<!-- Node0&#45;&gt;Node5 -->
<g id="edge3" class="edge"><title>Node0&#45;&gt;Node5</title>
<path fill="none" stroke="midnightblue" d="M168.19,-56.3993C174.374,-47.8424 182.303,-36.8708 188.818,-27.857"/>
<polygon fill="midnightblue" stroke="midnightblue" points="191.722,-29.8129 194.743,-19.6578 186.049,-25.7127 191.722,-29.8129"/>
</g>
<!-- Node6 -->
<g id="node5" class="node"><title>Node6</title>
<polygon fill="white" stroke="#bfbfbf" points="250,-0.5 250,-19.5 296,-19.5 296,-0.5 250,-0.5"/>
<text text-anchor="middle" x="273" y="-7.5" font-family="Helvetica,sans-Serif" font-size="10.00">task.h</text>
</g>
<!-- Node0&#45;&gt;Node6 -->
<g id="edge4" class="edge"><title>Node0&#45;&gt;Node6</title>
<path fill="none" stroke="midnightblue" d="M185.253,-56.3993C204.032,-46.6837 228.826,-33.8551 247.268,-24.3137"/>
<polygon fill="midnightblue" stroke="midnightblue" points="248.993,-27.3617 256.266,-19.6578 245.776,-21.1445 248.993,-27.3617"/>
</g>
</g>
</svg>
