<?xml version="1.0" encoding="UTF-8" standalone="no"?>
<!DOCTYPE svg PUBLIC "-//W3C//DTD SVG 1.1//EN"
 "http://www.w3.org/Graphics/SVG/1.1/DTD/svg11.dtd">
<!-- Generated by graphviz version 2.38.0 (20140413.2041)
 -->
<!-- Title: xtio_uart_receive Pages: 1 -->
<svg width="294pt" height="116pt"
 viewBox="0.00 0.00 294.00 115.50" xmlns="http://www.w3.org/2000/svg" xmlns:xlink="http://www.w3.org/1999/xlink">
<g id="graph0" class="graph" transform="scale(1 1) rotate(0) translate(4 111.5)">
<title>xtio_uart_receive</title>
<polygon fill="white" stroke="none" points="-4,4 -4,-111.5 290,-111.5 290,4 -4,4"/>
<!-- Node101 -->
<g id="node1" class="node"><title>Node101</title>
<polygon fill="#bfbfbf" stroke="black" points="0,-38.5 0,-57.5 98,-57.5 98,-38.5 0,-38.5"/>
<text text-anchor="middle" x="49" y="-45.5" font-family="Helvetica,sans-Serif" font-size="10.00">xtio_uart_receive</text>
</g>
<!-- Node102 -->
<g id="node2" class="node"><title>Node102</title>
<g id="a_node2"><a xlink:href="group___c_m_s_i_s___core___cache_functions.xhtml#ga630131b2572eaa16b569ed364dfc895e" target="_top" xlink:title="SCB_CleanInvalidateDCache\l_by_Addr">
<polygon fill="white" stroke="red" points="134,-77 134,-107 286,-107 286,-77 134,-77"/>
<text text-anchor="start" x="142" y="-95" font-family="Helvetica,sans-Serif" font-size="10.00">SCB_CleanInvalidateDCache</text>
<text text-anchor="middle" x="210" y="-84" font-family="Helvetica,sans-Serif" font-size="10.00">_by_Addr</text>
</a>
</g>
</g>
<!-- Node101&#45;&gt;Node102 -->
<g id="edge1" class="edge"><title>Node101&#45;&gt;Node102</title>
<path fill="none" stroke="midnightblue" d="M84.5006,-57.5473C102.162,-62.4349 124.242,-68.5451 144.884,-74.2571"/>
<polygon fill="midnightblue" stroke="midnightblue" points="143.988,-77.6407 154.559,-76.9346 145.855,-70.8943 143.988,-77.6407"/>
</g>
<!-- Node107 -->
<g id="node3" class="node"><title>Node107</title>
<g id="a_node3"><a xlink:href="group__interrupt__group.xhtml#ga9931bf539005d3f12b461928823a0ae2" target="_top" xlink:title="cpu_irq_save">
<polygon fill="white" stroke="black" points="170.5,-38.5 170.5,-57.5 249.5,-57.5 249.5,-38.5 170.5,-38.5"/>
<text text-anchor="middle" x="210" y="-45.5" font-family="Helvetica,sans-Serif" font-size="10.00">cpu_irq_save</text>
</a>
</g>
</g>
<!-- Node101&#45;&gt;Node107 -->
<g id="edge2" class="edge"><title>Node101&#45;&gt;Node107</title>
<path fill="none" stroke="midnightblue" d="M98.1367,-48C117.829,-48 140.578,-48 160.326,-48"/>
<polygon fill="midnightblue" stroke="midnightblue" points="160.346,-51.5001 170.346,-48 160.346,-44.5001 160.346,-51.5001"/>
</g>
<!-- Node108 -->
<g id="node4" class="node"><title>Node108</title>
<g id="a_node4"><a xlink:href="group__interrupt__group.xhtml#gae4d6d11a5211f6bd00353f280aa78f6f" target="_top" xlink:title="cpu_irq_restore">
<polygon fill="white" stroke="red" points="164.5,-0.5 164.5,-19.5 255.5,-19.5 255.5,-0.5 164.5,-0.5"/>
<text text-anchor="middle" x="210" y="-7.5" font-family="Helvetica,sans-Serif" font-size="10.00">cpu_irq_restore</text>
</a>
</g>
</g>
<!-- Node101&#45;&gt;Node108 -->
<g id="edge3" class="edge"><title>Node101&#45;&gt;Node108</title>
<path fill="none" stroke="midnightblue" d="M90.1224,-38.411C111.104,-33.3965 136.982,-27.2119 159.23,-21.8947"/>
<polygon fill="midnightblue" stroke="midnightblue" points="160.254,-25.2487 169.166,-19.5201 158.626,-18.4405 160.254,-25.2487"/>
</g>
</g>
</svg>
