<?xml version="1.0" encoding="UTF-8" standalone="no"?>
<!DOCTYPE svg PUBLIC "-//W3C//DTD SVG 1.1//EN"
 "http://www.w3.org/Graphics/SVG/1.1/DTD/svg11.dtd">
<!-- Generated by graphviz version 2.38.0 (20140413.2041)
 -->
<!-- Title: xtio_uart_configure Pages: 1 -->
<svg width="397pt" height="80pt"
 viewBox="0.00 0.00 397.00 79.99" xmlns="http://www.w3.org/2000/svg" xmlns:xlink="http://www.w3.org/1999/xlink">
<g id="graph0" class="graph" transform="scale(1 1) rotate(0) translate(4 75.9903)">
<title>xtio_uart_configure</title>
<polygon fill="white" stroke="none" points="-4,4 -4,-75.9903 393,-75.9903 393,4 -4,4"/>
<!-- Node34 -->
<g id="node1" class="node"><title>Node34</title>
<polygon fill="#bfbfbf" stroke="black" points="0,-38.5 0,-57.5 108,-57.5 108,-38.5 0,-38.5"/>
<text text-anchor="middle" x="54" y="-45.5" font-family="Helvetica,sans-Serif" font-size="10.00">xtio_uart_configure</text>
</g>
<!-- Node35 -->
<g id="node2" class="node"><title>Node35</title>
<g id="a_node2"><a xlink:href="xtio__serial__com_8c.xhtml#a5e9056b9bb65d42367ec290aea738768" target="_top" xlink:title="_uart_task_rx">
<polygon fill="white" stroke="red" points="308,-38.5 308,-57.5 389,-57.5 389,-38.5 308,-38.5"/>
<text text-anchor="middle" x="348.5" y="-45.5" font-family="Helvetica,sans-Serif" font-size="10.00">_uart_task_rx</text>
</a>
</g>
</g>
<!-- Node34&#45;&gt;Node35 -->
<g id="edge1" class="edge"><title>Node34&#45;&gt;Node35</title>
<path fill="none" stroke="midnightblue" d="M101.241,-59.7981C114.914,-62.7624 129.977,-65.5198 144,-67 200.575,-72.9716 215.543,-73.9948 272,-67 287.023,-65.1387 303.353,-61.2693 316.969,-57.5051"/>
<polygon fill="midnightblue" stroke="midnightblue" points="101.621,-56.2961 91.0962,-57.5088 100.08,-63.1243 101.621,-56.2961"/>
</g>
<!-- Node42 -->
<g id="node3" class="node"><title>Node42</title>
<g id="a_node3"><a xlink:href="xtio__uart_8h.xhtml#ab26f4e038cc21215960e4e8957c041be" target="_top" xlink:title="xtio_uart_init">
<polygon fill="white" stroke="red" points="169,-38.5 169,-57.5 247,-57.5 247,-38.5 169,-38.5"/>
<text text-anchor="middle" x="208" y="-45.5" font-family="Helvetica,sans-Serif" font-size="10.00">xtio_uart_init</text>
</a>
</g>
</g>
<!-- Node34&#45;&gt;Node42 -->
<g id="edge2" class="edge"><title>Node34&#45;&gt;Node42</title>
<path fill="none" stroke="midnightblue" d="M118.183,-48C135.427,-48 153.577,-48 168.944,-48"/>
<polygon fill="midnightblue" stroke="midnightblue" points="118.162,-44.5001 108.162,-48 118.162,-51.5001 118.162,-44.5001"/>
</g>
<!-- Node43 -->
<g id="node4" class="node"><title>Node43</title>
<g id="a_node4"><a xlink:href="xtio__uart_8c.xhtml#a75257f6264fe4bb32722e8eccd519680" target="_top" xlink:title="Configures UART module with the specified baudrate. ">
<polygon fill="white" stroke="red" points="144,-0.5 144,-19.5 272,-19.5 272,-0.5 144,-0.5"/>
<text text-anchor="middle" x="208" y="-7.5" font-family="Helvetica,sans-Serif" font-size="10.00">xtio_uart_set_baudrate</text>
</a>
</g>
</g>
<!-- Node34&#45;&gt;Node43 -->
<g id="edge3" class="edge"><title>Node34&#45;&gt;Node43</title>
<path fill="none" stroke="midnightblue" d="M103.16,-35.96C124.395,-30.6512 148.995,-24.5012 168.92,-19.5201"/>
<polygon fill="midnightblue" stroke="midnightblue" points="102.209,-32.5901 93.356,-38.411 103.906,-39.3811 102.209,-32.5901"/>
</g>
<!-- Node43&#45;&gt;Node35 -->
<g id="edge4" class="edge"><title>Node43&#45;&gt;Node35</title>
<path fill="none" stroke="midnightblue" d="M253.634,-22.2462C272.725,-27.484 294.684,-33.5091 312.562,-38.4141"/>
<polygon fill="midnightblue" stroke="midnightblue" points="254.519,-18.8597 243.949,-19.589 252.667,-25.6102 254.519,-18.8597"/>
</g>
</g>
</svg>
