<?xml version="1.0" encoding="UTF-8" standalone="no"?>
<!DOCTYPE svg PUBLIC "-//W3C//DTD SVG 1.1//EN"
 "http://www.w3.org/Graphics/SVG/1.1/DTD/svg11.dtd">
<!-- Generated by graphviz version 2.38.0 (20140413.2041)
 -->
<!-- Title: xtmemory_heap_watermark_fast Pages: 1 -->
<svg width="464pt" height="56pt"
 viewBox="0.00 0.00 464.00 55.50" xmlns="http://www.w3.org/2000/svg" xmlns:xlink="http://www.w3.org/1999/xlink">
<g id="graph0" class="graph" transform="scale(1 1) rotate(0) translate(4 51.5)">
<title>xtmemory_heap_watermark_fast</title>
<polygon fill="white" stroke="none" points="-4,4 -4,-51.5 460,-51.5 460,4 -4,4"/>
<!-- Node86 -->
<g id="node1" class="node"><title>Node86</title>
<polygon fill="#bfbfbf" stroke="black" points="0,-0.5 0,-19.5 175,-19.5 175,-0.5 0,-0.5"/>
<text text-anchor="middle" x="87.5" y="-7.5" font-family="Helvetica,sans-Serif" font-size="10.00">xtmemory_heap_watermark_fast</text>
</g>
<!-- Node87 -->
<g id="node2" class="node"><title>Node87</title>
<g id="a_node2"><a xlink:href="xthousekeeping_8c.xhtml#ad5a7723fb96e5789fa7ecb2554da3b04" target="_top" xlink:title="xthousekeeping_trigger\l_crashdump">
<polygon fill="white" stroke="red" points="211,-17 211,-47 340,-47 340,-17 211,-17"/>
<text text-anchor="start" x="219" y="-35" font-family="Helvetica,sans-Serif" font-size="10.00">xthousekeeping_trigger</text>
<text text-anchor="middle" x="275.5" y="-24" font-family="Helvetica,sans-Serif" font-size="10.00">_crashdump</text>
</a>
</g>
</g>
<!-- Node86&#45;&gt;Node87 -->
<g id="edge1" class="edge"><title>Node86&#45;&gt;Node87</title>
<path fill="none" stroke="midnightblue" d="M179.251,-20.734C189.974,-22.0023 200.738,-23.2754 210.97,-24.4857"/>
<polygon fill="midnightblue" stroke="midnightblue" points="179.342,-17.2205 169.001,-19.5216 178.52,-24.172 179.342,-17.2205"/>
</g>
<!-- Node90 -->
<g id="node3" class="node"><title>Node90</title>
<g id="a_node3"><a xlink:href="task__monitor_8c.xhtml#ad45490893a79383d6cd047fa3e4c3638" target="_top" xlink:title="task_monitor">
<polygon fill="white" stroke="red" points="376,-0.5 376,-19.5 456,-19.5 456,-0.5 376,-0.5"/>
<text text-anchor="middle" x="416" y="-7.5" font-family="Helvetica,sans-Serif" font-size="10.00">task_monitor</text>
</a>
</g>
</g>
<!-- Node86&#45;&gt;Node90 -->
<g id="edge3" class="edge"><title>Node86&#45;&gt;Node90</title>
<path fill="none" stroke="midnightblue" d="M185.335,-8.26792C232.071,-7.67776 288.952,-7.31947 340,-8 351.592,-8.15453 364.188,-8.44334 375.69,-8.75439"/>
<polygon fill="midnightblue" stroke="midnightblue" points="185.17,-4.76969 175.217,-8.40125 185.262,-11.7691 185.17,-4.76969"/>
</g>
<!-- Node87&#45;&gt;Node90 -->
<g id="edge2" class="edge"><title>Node87&#45;&gt;Node90</title>
<path fill="none" stroke="midnightblue" d="M350.13,-20.3042C359.028,-18.8909 367.829,-17.4929 375.942,-16.2042"/>
<polygon fill="midnightblue" stroke="midnightblue" points="349.402,-16.8759 340.075,-21.9014 350.5,-23.7892 349.402,-16.8759"/>
</g>
</g>
</svg>
