<?xml version="1.0" encoding="UTF-8" standalone="no"?>
<!DOCTYPE svg PUBLIC "-//W3C//DTD SVG 1.1//EN"
 "http://www.w3.org/Graphics/SVG/1.1/DTD/svg11.dtd">
<!-- Generated by graphviz version 2.38.0 (20140413.2041)
 -->
<!-- Title: xtmemory_heap_available_fast Pages: 1 -->
<svg width="358pt" height="66pt"
 viewBox="0.00 0.00 358.00 66.00" xmlns="http://www.w3.org/2000/svg" xmlns:xlink="http://www.w3.org/1999/xlink">
<g id="graph0" class="graph" transform="scale(1 1) rotate(0) translate(4 62)">
<title>xtmemory_heap_available_fast</title>
<polygon fill="white" stroke="none" points="-4,4 -4,-62 354,-62 354,4 -4,4"/>
<!-- Node51 -->
<g id="node1" class="node"><title>Node51</title>
<polygon fill="#bfbfbf" stroke="black" points="0,-19.5 0,-38.5 166,-38.5 166,-19.5 0,-19.5"/>
<text text-anchor="middle" x="83" y="-26.5" font-family="Helvetica,sans-Serif" font-size="10.00">xtmemory_heap_available_fast</text>
</g>
<!-- Node52 -->
<g id="node2" class="node"><title>Node52</title>
<g id="a_node2"><a xlink:href="xep__hal_8h.xhtml#acf93e159c610831f349d07c00962f80d" target="_top" xlink:title="Checks if fast memory is enabled. ">
<polygon fill="white" stroke="black" points="207,-38.5 207,-57.5 345,-57.5 345,-38.5 207,-38.5"/>
<text text-anchor="middle" x="276" y="-45.5" font-family="Helvetica,sans-Serif" font-size="10.00">xt_fast_memory_enabled</text>
</a>
</g>
</g>
<!-- Node51&#45;&gt;Node52 -->
<g id="edge1" class="edge"><title>Node51&#45;&gt;Node52</title>
<path fill="none" stroke="midnightblue" d="M166.11,-37.168C176.271,-38.1788 186.639,-39.2101 196.74,-40.215"/>
<polygon fill="midnightblue" stroke="midnightblue" points="196.438,-43.7022 206.736,-41.2093 197.131,-36.7365 196.438,-43.7022"/>
</g>
<!-- Node53 -->
<g id="node3" class="node"><title>Node53</title>
<g id="a_node3"><a xlink:href="heap__4__fast_8h.xhtml#aa4027733dbb2443490b54337ce203042" target="_top" xlink:title="xPortGetFreeHeapSize_fast">
<polygon fill="white" stroke="black" points="202,-0.5 202,-19.5 350,-19.5 350,-0.5 202,-0.5"/>
<text text-anchor="middle" x="276" y="-7.5" font-family="Helvetica,sans-Serif" font-size="10.00">xPortGetFreeHeapSize_fast</text>
</a>
</g>
</g>
<!-- Node51&#45;&gt;Node53 -->
<g id="edge2" class="edge"><title>Node51&#45;&gt;Node53</title>
<path fill="none" stroke="midnightblue" d="M166.11,-20.832C174.685,-19.979 183.407,-19.1113 191.992,-18.2573"/>
<polygon fill="midnightblue" stroke="midnightblue" points="192.386,-21.7355 201.991,-17.2627 191.693,-14.7699 192.386,-21.7355"/>
</g>
</g>
</svg>
