<?xml version="1.0" encoding="UTF-8" standalone="no"?>
<!DOCTYPE svg PUBLIC "-//W3C//DTD SVG 1.1//EN"
 "http://www.w3.org/Graphics/SVG/1.1/DTD/svg11.dtd">
<!-- Generated by graphviz version 2.38.0 (20140413.2041)
 -->
<!-- Title: xtmemory_heap_watermark_slow Pages: 1 -->
<svg width="391pt" height="88pt"
 viewBox="0.00 0.00 391.00 88.00" xmlns="http://www.w3.org/2000/svg" xmlns:xlink="http://www.w3.org/1999/xlink">
<g id="graph0" class="graph" transform="scale(1 1) rotate(0) translate(4 84)">
<title>xtmemory_heap_watermark_slow</title>
<polygon fill="white" stroke="none" points="-4,4 -4,-84 387,-84 387,4 -4,4"/>
<!-- Node94 -->
<g id="node1" class="node"><title>Node94</title>
<polygon fill="#bfbfbf" stroke="black" points="0,-30 0,-49 177,-49 177,-30 0,-30"/>
<text text-anchor="middle" x="88.5" y="-37" font-family="Helvetica,sans-Serif" font-size="10.00">xtmemory_heap_watermark_slow</text>
</g>
<!-- Node95 -->
<g id="node2" class="node"><title>Node95</title>
<g id="a_node2"><a xlink:href="xep__hal_8h.xhtml#a31dcedbddd6f896d0157ce276d449fd4" target="_top" xlink:title="Checks if external memory is enabled. ">
<polygon fill="white" stroke="black" points="240,-49.5 240,-79.5 356,-79.5 356,-49.5 240,-49.5"/>
<text text-anchor="start" x="248" y="-67.5" font-family="Helvetica,sans-Serif" font-size="10.00">xt_external_memory</text>
<text text-anchor="middle" x="298" y="-56.5" font-family="Helvetica,sans-Serif" font-size="10.00">_enabled</text>
</a>
</g>
</g>
<!-- Node94&#45;&gt;Node95 -->
<g id="edge1" class="edge"><title>Node94&#45;&gt;Node95</title>
<path fill="none" stroke="midnightblue" d="M168.539,-49.0227C188.727,-51.4551 210.241,-54.0472 229.775,-56.4006"/>
<polygon fill="midnightblue" stroke="midnightblue" points="229.445,-59.8861 239.792,-57.6075 230.283,-52.9364 229.445,-59.8861"/>
</g>
<!-- Node96 -->
<g id="node3" class="node"><title>Node96</title>
<g id="a_node3"><a xlink:href="heap__4__slow_8h.xhtml#af7a5fd43002cb56ec56762ca4846aa9a" target="_top" xlink:title="xPortGetMinimumEverFreeHeap\lSize_slow">
<polygon fill="white" stroke="black" points="213,-0.5 213,-30.5 383,-30.5 383,-0.5 213,-0.5"/>
<text text-anchor="start" x="221" y="-18.5" font-family="Helvetica,sans-Serif" font-size="10.00">xPortGetMinimumEverFreeHeap</text>
<text text-anchor="middle" x="298" y="-7.5" font-family="Helvetica,sans-Serif" font-size="10.00">Size_slow</text>
</a>
</g>
</g>
<!-- Node94&#45;&gt;Node96 -->
<g id="edge2" class="edge"><title>Node94&#45;&gt;Node96</title>
<path fill="none" stroke="midnightblue" d="M171.808,-29.9801C181.906,-28.8121 192.288,-27.6112 202.548,-26.4246"/>
<polygon fill="midnightblue" stroke="midnightblue" points="203.22,-29.8702 212.752,-25.2443 202.416,-22.9166 203.22,-29.8702"/>
</g>
</g>
</svg>
