<?xml version="1.0" encoding="UTF-8" standalone="no"?>
<!DOCTYPE svg PUBLIC "-//W3C//DTD SVG 1.1//EN"
 "http://www.w3.org/Graphics/SVG/1.1/DTD/svg11.dtd">
<!-- Generated by graphviz version 2.38.0 (20140413.2041)
 -->
<!-- Title: include/xtsemaphore.h Pages: 1 -->
<svg width="1058pt" height="95pt"
 viewBox="0.00 0.00 1058.00 95.00" xmlns="http://www.w3.org/2000/svg" xmlns:xlink="http://www.w3.org/1999/xlink">
<g id="graph0" class="graph" transform="scale(1 1) rotate(0) translate(4 91)">
<title>include/xtsemaphore.h</title>
<polygon fill="white" stroke="none" points="-4,4 -4,-91 1054,-91 1054,4 -4,4"/>
<!-- Node2 -->
<g id="node1" class="node"><title>Node2</title>
<polygon fill="#bfbfbf" stroke="black" points="494,-67.5 494,-86.5 620,-86.5 620,-67.5 494,-67.5"/>
<text text-anchor="middle" x="557" y="-74.5" font-family="Helvetica,sans-Serif" font-size="10.00">include/xtsemaphore.h</text>
</g>
<!-- Node3 -->
<g id="node2" class="node"><title>Node3</title>
<g id="a_node2"><a xlink:href="memorypool_8c.xhtml" target="_top" xlink:title="src/Dispatch/memorypool.c">
<polygon fill="white" stroke="black" points="0,-6 0,-25 148,-25 148,-6 0,-6"/>
<text text-anchor="middle" x="74" y="-13" font-family="Helvetica,sans-Serif" font-size="10.00">src/Dispatch/memorypool.c</text>
</a>
</g>
</g>
<!-- Node2&#45;&gt;Node3 -->
<g id="edge1" class="edge"><title>Node2&#45;&gt;Node3</title>
<path fill="none" stroke="midnightblue" d="M483.789,-69.1148C403.451,-61.2448 270.768,-47.3216 157,-31 144.982,-29.2758 132.032,-27.1455 120.018,-25.0536"/>
<polygon fill="midnightblue" stroke="midnightblue" points="483.512,-72.6043 493.804,-70.0911 484.191,-65.6373 483.512,-72.6043"/>
</g>
<!-- Node4 -->
<g id="node3" class="node"><title>Node4</title>
<g id="a_node3"><a xlink:href="xep__dispatch_8c.xhtml" target="_top" xlink:title="src/Dispatch/xep_dispatch.c">
<polygon fill="white" stroke="black" points="166,-6 166,-25 316,-25 316,-6 166,-6"/>
<text text-anchor="middle" x="241" y="-13" font-family="Helvetica,sans-Serif" font-size="10.00">src/Dispatch/xep_dispatch.c</text>
</a>
</g>
</g>
<!-- Node2&#45;&gt;Node4 -->
<g id="edge2" class="edge"><title>Node2&#45;&gt;Node4</title>
<path fill="none" stroke="midnightblue" d="M501.856,-65.6169C440.66,-54.0942 343.055,-35.716 286.191,-25.0091"/>
<polygon fill="midnightblue" stroke="midnightblue" points="501.25,-69.0642 511.725,-67.4751 502.545,-62.1851 501.25,-69.0642"/>
</g>
<!-- Node5 -->
<g id="node4" class="node"><title>Node5</title>
<g id="a_node4"><a xlink:href="xtio__flash_8c.xhtml" target="_top" xlink:title="Implementation of flash functions for X4M0x boards with Atmel SAM S70 MCU. ">
<polygon fill="white" stroke="black" points="334,-0.5 334,-30.5 460,-30.5 460,-0.5 334,-0.5"/>
<text text-anchor="start" x="342" y="-18.5" font-family="Helvetica,sans-Serif" font-size="10.00">src/hal/x4m0x_s70/xtio</text>
<text text-anchor="middle" x="397" y="-7.5" font-family="Helvetica,sans-Serif" font-size="10.00">_flash.c</text>
</a>
</g>
</g>
<!-- Node2&#45;&gt;Node5 -->
<g id="edge3" class="edge"><title>Node2&#45;&gt;Node5</title>
<path fill="none" stroke="midnightblue" d="M524.665,-63.9755C498.651,-54.3016 462.054,-40.6919 434.709,-30.523"/>
<polygon fill="midnightblue" stroke="midnightblue" points="523.483,-67.27 534.076,-67.4751 525.923,-60.709 523.483,-67.27"/>
</g>
<!-- Node6 -->
<g id="node5" class="node"><title>Node6</title>
<g id="a_node5"><a xlink:href="task__hostcom_8c.xhtml" target="_top" xlink:title="src/HostCom/task_hostcom.c">
<polygon fill="white" stroke="black" points="478,-6 478,-25 636,-25 636,-6 478,-6"/>
<text text-anchor="middle" x="557" y="-13" font-family="Helvetica,sans-Serif" font-size="10.00">src/HostCom/task_hostcom.c</text>
</a>
</g>
</g>
<!-- Node2&#45;&gt;Node6 -->
<g id="edge4" class="edge"><title>Node2&#45;&gt;Node6</title>
<path fill="none" stroke="midnightblue" d="M557,-57.3165C557,-46.4962 557,-33.398 557,-25.0091"/>
<polygon fill="midnightblue" stroke="midnightblue" points="553.5,-57.4751 557,-67.4751 560.5,-57.4751 553.5,-57.4751"/>
</g>
<!-- Node7 -->
<g id="node6" class="node"><title>Node7</title>
<g id="a_node6"><a xlink:href="xfs_8c.xhtml" target="_top" xlink:title="src/System/File/xfs.c">
<polygon fill="white" stroke="black" points="654.5,-6 654.5,-25 767.5,-25 767.5,-6 654.5,-6"/>
<text text-anchor="middle" x="711" y="-13" font-family="Helvetica,sans-Serif" font-size="10.00">src/System/File/xfs.c</text>
</a>
</g>
</g>
<!-- Node2&#45;&gt;Node7 -->
<g id="edge5" class="edge"><title>Node2&#45;&gt;Node7</title>
<path fill="none" stroke="midnightblue" d="M588.622,-63.7824C618.549,-52.2199 662.693,-35.1641 688.976,-25.0091"/>
<polygon fill="midnightblue" stroke="midnightblue" points="587.131,-60.6062 579.064,-67.4751 589.654,-67.1358 587.131,-60.6062"/>
</g>
<!-- Node8 -->
<g id="node7" class="node"><title>Node8</title>
<g id="a_node7"><a xlink:href="xtfile_8c.xhtml" target="_top" xlink:title="src/System/File/xtfile.c">
<polygon fill="white" stroke="black" points="786,-6 786,-25 908,-25 908,-6 786,-6"/>
<text text-anchor="middle" x="847" y="-13" font-family="Helvetica,sans-Serif" font-size="10.00">src/System/File/xtfile.c</text>
</a>
</g>
</g>
<!-- Node2&#45;&gt;Node8 -->
<g id="edge6" class="edge"><title>Node2&#45;&gt;Node8</title>
<path fill="none" stroke="midnightblue" d="M608.787,-65.4452C653.373,-56.3487 719.434,-42.8496 777,-31 786.36,-29.0733 796.422,-26.9938 805.918,-25.0278"/>
<polygon fill="midnightblue" stroke="midnightblue" points="607.871,-62.0597 598.773,-67.4879 609.27,-68.9185 607.871,-62.0597"/>
</g>
<!-- Node9 -->
<g id="node8" class="node"><title>Node9</title>
<g id="a_node8"><a xlink:href="xtsemaphore__xep_8c.xhtml" target="_top" xlink:title="src/Tools/xtsemaphore\l_xep.c">
<polygon fill="white" stroke="black" points="926,-0.5 926,-30.5 1050,-30.5 1050,-0.5 926,-0.5"/>
<text text-anchor="start" x="934" y="-18.5" font-family="Helvetica,sans-Serif" font-size="10.00">src/Tools/xtsemaphore</text>
<text text-anchor="middle" x="988" y="-7.5" font-family="Helvetica,sans-Serif" font-size="10.00">_xep.c</text>
</a>
</g>
</g>
<!-- Node2&#45;&gt;Node9 -->
<g id="edge7" class="edge"><title>Node2&#45;&gt;Node9</title>
<path fill="none" stroke="midnightblue" d="M630.296,-68.5129C703.209,-60.6714 818.165,-47.2447 917,-31 919.855,-30.5307 922.771,-30.0287 925.712,-29.5036"/>
<polygon fill="midnightblue" stroke="midnightblue" points="629.864,-65.039 620.293,-69.582 630.608,-71.9994 629.864,-65.039"/>
</g>
</g>
</svg>
