<?xml version="1.0" encoding="UTF-8" standalone="no"?>
<!DOCTYPE svg PUBLIC "-//W3C//DTD SVG 1.1//EN"
 "http://www.w3.org/Graphics/SVG/1.1/DTD/svg11.dtd">
<!-- Generated by graphviz version 2.38.0 (20140413.2041)
 -->
<!-- Title: src/DataReader.hpp Pages: 1 -->
<svg width="376pt" height="192pt"
 viewBox="0.00 0.00 375.97 192.00" xmlns="http://www.w3.org/2000/svg" xmlns:xlink="http://www.w3.org/1999/xlink">
<g id="graph0" class="graph" transform="scale(1 1) rotate(0) translate(4 188)">
<title>src/DataReader.hpp</title>
<polygon fill="white" stroke="none" points="-4,4 -4,-188 371.968,-188 371.968,4 -4,4"/>
<!-- Node0 -->
<g id="node1" class="node"><title>Node0</title>
<polygon fill="#bfbfbf" stroke="black" points="127.764,-165.5 127.764,-183.5 232.709,-183.5 232.709,-165.5 127.764,-165.5"/>
<text text-anchor="middle" x="180.236" y="-171.5" font-family="Helvetica,sans-Serif" font-size="10.00">src/DataReader.hpp</text>
</g>
<!-- Node1 -->
<g id="node2" class="node"><title>Node1</title>
<polygon fill="white" stroke="#bfbfbf" points="0,-55.5 0,-73.5 60.4727,-73.5 60.4727,-55.5 0,-55.5"/>
<text text-anchor="middle" x="30.2363" y="-61.5" font-family="Helvetica,sans-Serif" font-size="10.00">Bytes.hpp</text>
</g>
<!-- Node0&#45;&gt;Node1 -->
<g id="edge1" class="edge"><title>Node0&#45;&gt;Node1</title>
<path fill="none" stroke="midnightblue" d="M138.721,-165.499C114.407,-159.055 84.4173,-147.859 63.2363,-129 49.4832,-116.754 40.5935,-97.4023 35.5458,-83.2778"/>
<polygon fill="midnightblue" stroke="midnightblue" points="38.8494,-82.1193 32.4178,-73.6999 32.1953,-84.2924 38.8494,-82.1193"/>
</g>
<!-- Node2 -->
<g id="node3" class="node"><title>Node2</title>
<g id="a_node3"><a xlink:href="_data_8hpp.xhtml" target="_top" xlink:title="Data.hpp">
<polygon fill="white" stroke="black" points="71.9434,-110.5 71.9434,-128.5 128.529,-128.5 128.529,-110.5 71.9434,-110.5"/>
<text text-anchor="middle" x="100.236" y="-116.5" font-family="Helvetica,sans-Serif" font-size="10.00">Data.hpp</text>
</a>
</g>
</g>
<!-- Node0&#45;&gt;Node2 -->
<g id="edge2" class="edge"><title>Node0&#45;&gt;Node2</title>
<path fill="none" stroke="midnightblue" d="M168.086,-165.45C155.634,-157.201 136.034,-144.216 121.095,-134.319"/>
<polygon fill="midnightblue" stroke="midnightblue" points="122.771,-131.231 112.501,-128.625 118.904,-137.066 122.771,-131.231"/>
</g>
<!-- Node4 -->
<g id="node5" class="node"><title>Node4</title>
<g id="a_node5"><a xlink:href="datatypes_8h.xhtml" target="_top" xlink:title="datatypes.h">
<polygon fill="white" stroke="black" points="139.384,-55.5 139.384,-73.5 207.088,-73.5 207.088,-55.5 139.384,-55.5"/>
<text text-anchor="middle" x="173.236" y="-61.5" font-family="Helvetica,sans-Serif" font-size="10.00">datatypes.h</text>
</a>
</g>
</g>
<!-- Node0&#45;&gt;Node4 -->
<g id="edge7" class="edge"><title>Node0&#45;&gt;Node4</title>
<path fill="none" stroke="midnightblue" d="M179.117,-165.316C177.945,-156.403 176.15,-141.717 175.236,-129 174.148,-113.839 173.651,-96.5987 173.425,-83.9118"/>
<polygon fill="midnightblue" stroke="midnightblue" points="176.923,-83.6814 173.284,-73.7308 169.923,-83.7783 176.923,-83.6814"/>
</g>
<!-- Node6 -->
<g id="node7" class="node"><title>Node6</title>
<polygon fill="white" stroke="#bfbfbf" points="184.01,-110.5 184.01,-128.5 224.463,-128.5 224.463,-110.5 184.01,-110.5"/>
<text text-anchor="middle" x="204.236" y="-116.5" font-family="Helvetica,sans-Serif" font-size="10.00">string</text>
</g>
<!-- Node0&#45;&gt;Node6 -->
<g id="edge8" class="edge"><title>Node0&#45;&gt;Node6</title>
<path fill="none" stroke="midnightblue" d="M183.986,-165.219C187.281,-157.942 192.185,-147.113 196.341,-137.934"/>
<polygon fill="midnightblue" stroke="midnightblue" points="199.654,-139.103 200.591,-128.55 193.278,-136.215 199.654,-139.103"/>
</g>
<!-- Node7 -->
<g id="node8" class="node"><title>Node7</title>
<polygon fill="white" stroke="#bfbfbf" points="242.18,-110.5 242.18,-128.5 294.293,-128.5 294.293,-110.5 242.18,-110.5"/>
<text text-anchor="middle" x="268.236" y="-116.5" font-family="Helvetica,sans-Serif" font-size="10.00">memory</text>
</g>
<!-- Node0&#45;&gt;Node7 -->
<g id="edge9" class="edge"><title>Node0&#45;&gt;Node7</title>
<path fill="none" stroke="midnightblue" d="M193.602,-165.45C207.428,-157.123 229.267,-143.97 245.756,-134.039"/>
<polygon fill="midnightblue" stroke="midnightblue" points="247.985,-136.783 254.745,-128.625 244.373,-130.786 247.985,-136.783"/>
</g>
<!-- Node8 -->
<g id="node9" class="node"><title>Node8</title>
<polygon fill="white" stroke="#bfbfbf" points="312.505,-110.5 312.505,-128.5 367.968,-128.5 367.968,-110.5 312.505,-110.5"/>
<text text-anchor="middle" x="340.236" y="-116.5" font-family="Helvetica,sans-Serif" font-size="10.00">cinttypes</text>
</g>
<!-- Node0&#45;&gt;Node8 -->
<g id="edge10" class="edge"><title>Node0&#45;&gt;Node8</title>
<path fill="none" stroke="midnightblue" d="M204.537,-165.45C231.634,-156.475 275.656,-141.892 306.18,-131.781"/>
<polygon fill="midnightblue" stroke="midnightblue" points="307.578,-135.005 315.97,-128.538 305.376,-128.36 307.578,-135.005"/>
</g>
<!-- Node2&#45;&gt;Node1 -->
<g id="edge3" class="edge"><title>Node2&#45;&gt;Node1</title>
<path fill="none" stroke="midnightblue" d="M89.6048,-110.45C78.9149,-102.357 62.2041,-89.7042 49.2316,-79.8822"/>
<polygon fill="midnightblue" stroke="midnightblue" points="51.0532,-76.8713 40.9679,-73.6253 46.8277,-82.4521 51.0532,-76.8713"/>
</g>
<!-- Node3 -->
<g id="node4" class="node"><title>Node3</title>
<polygon fill="white" stroke="#bfbfbf" points="78.6206,-55.5 78.6206,-73.5 121.852,-73.5 121.852,-55.5 78.6206,-55.5"/>
<text text-anchor="middle" x="100.236" y="-61.5" font-family="Helvetica,sans-Serif" font-size="10.00">vector</text>
</g>
<!-- Node2&#45;&gt;Node3 -->
<g id="edge4" class="edge"><title>Node2&#45;&gt;Node3</title>
<path fill="none" stroke="midnightblue" d="M100.236,-110.219C100.236,-103.177 100.236,-92.8083 100.236,-83.8277"/>
<polygon fill="midnightblue" stroke="midnightblue" points="103.736,-83.5495 100.236,-73.5496 96.7364,-83.5496 103.736,-83.5495"/>
</g>
<!-- Node2&#45;&gt;Node4 -->
<g id="edge5" class="edge"><title>Node2&#45;&gt;Node4</title>
<path fill="none" stroke="midnightblue" d="M111.323,-110.45C122.579,-102.279 140.234,-89.4604 153.816,-79.5996"/>
<polygon fill="midnightblue" stroke="midnightblue" points="156.009,-82.3327 162.045,-73.6253 151.896,-76.6682 156.009,-82.3327"/>
</g>
<!-- Node5 -->
<g id="node6" class="node"><title>Node5</title>
<polygon fill="white" stroke="#bfbfbf" points="149.116,-0.5 149.116,-18.5 197.357,-18.5 197.357,-0.5 149.116,-0.5"/>
<text text-anchor="middle" x="173.236" y="-6.5" font-family="Helvetica,sans-Serif" font-size="10.00">stdint.h</text>
</g>
<!-- Node4&#45;&gt;Node5 -->
<g id="edge6" class="edge"><title>Node4&#45;&gt;Node5</title>
<path fill="none" stroke="midnightblue" d="M173.236,-55.2188C173.236,-48.1769 173.236,-37.8083 173.236,-28.8277"/>
<polygon fill="midnightblue" stroke="midnightblue" points="176.736,-28.5495 173.236,-18.5496 169.736,-28.5496 176.736,-28.5495"/>
</g>
</g>
</svg>
