<?xml version="1.0" encoding="UTF-8" standalone="no"?>
<!DOCTYPE svg PUBLIC "-//W3C//DTD SVG 1.1//EN"
 "http://www.w3.org/Graphics/SVG/1.1/DTD/svg11.dtd">
<!-- Generated by graphviz version 2.38.0 (20140413.2041)
 -->
<!-- Title: src/Data.hpp Pages: 1 -->
<svg width="523pt" height="82pt"
 viewBox="0.00 0.00 522.62 82.00" xmlns="http://www.w3.org/2000/svg" xmlns:xlink="http://www.w3.org/1999/xlink">
<g id="graph0" class="graph" transform="scale(1 1) rotate(0) translate(4 78)">
<title>src/Data.hpp</title>
<polygon fill="white" stroke="none" points="-4,4 -4,-78 518.619,-78 518.619,4 -4,4"/>
<!-- Node5 -->
<g id="node1" class="node"><title>Node5</title>
<polygon fill="#bfbfbf" stroke="black" points="238.125,-55.5 238.125,-73.5 310.82,-73.5 310.82,-55.5 238.125,-55.5"/>
<text text-anchor="middle" x="274.473" y="-61.5" font-family="Helvetica,sans-Serif" font-size="10.00">src/Data.hpp</text>
</g>
<!-- Node6 -->
<g id="node2" class="node"><title>Node6</title>
<g id="a_node2"><a xlink:href="_data_reader_8hpp.xhtml" target="_top" xlink:title="src/DataReader.hpp">
<polygon fill="white" stroke="black" points="0,-0.5 0,-18.5 104.945,-18.5 104.945,-0.5 0,-0.5"/>
<text text-anchor="middle" x="52.4727" y="-6.5" font-family="Helvetica,sans-Serif" font-size="10.00">src/DataReader.hpp</text>
</a>
</g>
</g>
<!-- Node5&#45;&gt;Node6 -->
<g id="edge1" class="edge"><title>Node5&#45;&gt;Node6</title>
<path fill="none" stroke="midnightblue" d="M230.981,-53.1169C188.539,-42.9842 124.864,-27.7826 86.1426,-18.5383"/>
<polygon fill="midnightblue" stroke="midnightblue" points="230.216,-56.5326 240.756,-55.4504 231.842,-49.7239 230.216,-56.5326"/>
</g>
<!-- Node7 -->
<g id="node3" class="node"><title>Node7</title>
<g id="a_node3"><a xlink:href="_x2_m200_8hpp.xhtml" target="_top" xlink:title="src/X2M200.hpp">
<polygon fill="white" stroke="black" points="123.064,-0.5 123.064,-18.5 211.881,-18.5 211.881,-0.5 123.064,-0.5"/>
<text text-anchor="middle" x="167.473" y="-6.5" font-family="Helvetica,sans-Serif" font-size="10.00">src/X2M200.hpp</text>
</a>
</g>
</g>
<!-- Node5&#45;&gt;Node7 -->
<g id="edge2" class="edge"><title>Node5&#45;&gt;Node7</title>
<path fill="none" stroke="midnightblue" d="M248.988,-50.8765C228.808,-40.8808 201.22,-27.216 183.877,-18.6253"/>
<polygon fill="midnightblue" stroke="midnightblue" points="247.707,-54.1481 258.222,-55.4504 250.814,-47.8754 247.707,-54.1481"/>
</g>
<!-- Node8 -->
<g id="node4" class="node"><title>Node8</title>
<g id="a_node4"><a xlink:href="_x4_m200_8hpp.xhtml" target="_top" xlink:title="src/X4M200.hpp">
<polygon fill="white" stroke="black" points="230.064,-0.5 230.064,-18.5 318.881,-18.5 318.881,-0.5 230.064,-0.5"/>
<text text-anchor="middle" x="274.473" y="-6.5" font-family="Helvetica,sans-Serif" font-size="10.00">src/X4M200.hpp</text>
</a>
</g>
</g>
<!-- Node5&#45;&gt;Node8 -->
<g id="edge3" class="edge"><title>Node5&#45;&gt;Node8</title>
<path fill="none" stroke="midnightblue" d="M274.473,-45.1746C274.473,-36.0945 274.473,-25.5949 274.473,-18.5496"/>
<polygon fill="midnightblue" stroke="midnightblue" points="270.973,-45.2187 274.473,-55.2188 277.973,-45.2188 270.973,-45.2187"/>
</g>
<!-- Node9 -->
<g id="node5" class="node"><title>Node9</title>
<g id="a_node5"><a xlink:href="_x4_m300_8hpp.xhtml" target="_top" xlink:title="src/X4M300.hpp">
<polygon fill="white" stroke="black" points="337.064,-0.5 337.064,-18.5 425.881,-18.5 425.881,-0.5 337.064,-0.5"/>
<text text-anchor="middle" x="381.473" y="-6.5" font-family="Helvetica,sans-Serif" font-size="10.00">src/X4M300.hpp</text>
</a>
</g>
</g>
<!-- Node5&#45;&gt;Node9 -->
<g id="edge4" class="edge"><title>Node5&#45;&gt;Node9</title>
<path fill="none" stroke="midnightblue" d="M299.958,-50.8765C320.138,-40.8808 347.725,-27.216 365.069,-18.6253"/>
<polygon fill="midnightblue" stroke="midnightblue" points="298.131,-47.8754 290.724,-55.4504 301.238,-54.1481 298.131,-47.8754"/>
</g>
<!-- Node10 -->
<g id="node6" class="node"><title>Node10</title>
<g id="a_node6"><a xlink:href="_x_e_p_8hpp.xhtml" target="_top" xlink:title="src/XEP.hpp">
<polygon fill="white" stroke="black" points="444.327,-0.5 444.327,-18.5 514.619,-18.5 514.619,-0.5 444.327,-0.5"/>
<text text-anchor="middle" x="479.473" y="-6.5" font-family="Helvetica,sans-Serif" font-size="10.00">src/XEP.hpp</text>
</a>
</g>
</g>
<!-- Node5&#45;&gt;Node10 -->
<g id="edge5" class="edge"><title>Node5&#45;&gt;Node10</title>
<path fill="none" stroke="midnightblue" d="M315.38,-52.9239C354.57,-42.792 412.851,-27.7241 448.381,-18.5383"/>
<polygon fill="midnightblue" stroke="midnightblue" points="314.413,-49.5587 305.608,-55.4504 316.166,-56.3359 314.413,-49.5587"/>
</g>
</g>
</svg>
