<?xml version="1.0" encoding="UTF-8" standalone="no"?>
<!DOCTYPE svg PUBLIC "-//W3C//DTD SVG 1.1//EN"
 "http://www.w3.org/Graphics/SVG/1.1/DTD/svg11.dtd">
<!-- Generated by graphviz version 2.38.0 (20140413.2041)
 -->
<!-- Title: src/PreferredSplitSize.hpp Pages: 1 -->
<svg width="317pt" height="137pt"
 viewBox="0.00 0.00 316.78 137.00" xmlns="http://www.w3.org/2000/svg" xmlns:xlink="http://www.w3.org/1999/xlink">
<g id="graph0" class="graph" transform="scale(1 1) rotate(0) translate(4 133)">
<title>src/PreferredSplitSize.hpp</title>
<polygon fill="white" stroke="none" points="-4,4 -4,-133 312.784,-133 312.784,4 -4,4"/>
<!-- Node2 -->
<g id="node1" class="node"><title>Node2</title>
<polygon fill="#bfbfbf" stroke="black" points="109.557,-110.5 109.557,-128.5 241.719,-128.5 241.719,-110.5 109.557,-110.5"/>
<text text-anchor="middle" x="175.638" y="-116.5" font-family="Helvetica,sans-Serif" font-size="10.00">src/PreferredSplitSize.hpp</text>
</g>
<!-- Node3 -->
<g id="node2" class="node"><title>Node3</title>
<g id="a_node2"><a xlink:href="_recording_options_8hpp.xhtml" target="_top" xlink:title="src/RecordingOptions.hpp">
<polygon fill="white" stroke="black" points="109.83,-55.5 109.83,-73.5 241.445,-73.5 241.445,-55.5 109.83,-55.5"/>
<text text-anchor="middle" x="175.638" y="-61.5" font-family="Helvetica,sans-Serif" font-size="10.00">src/RecordingOptions.hpp</text>
</a>
</g>
</g>
<!-- Node2&#45;&gt;Node3 -->
<g id="edge1" class="edge"><title>Node2&#45;&gt;Node3</title>
<path fill="none" stroke="midnightblue" d="M175.638,-100.175C175.638,-91.0945 175.638,-80.5949 175.638,-73.5496"/>
<polygon fill="midnightblue" stroke="midnightblue" points="172.138,-100.219 175.638,-110.219 179.138,-100.219 172.138,-100.219"/>
</g>
<!-- Node4 -->
<g id="node3" class="node"><title>Node4</title>
<g id="a_node3"><a xlink:href="_data_recorder_8hpp.xhtml" target="_top" xlink:title="src/DataRecorder.hpp">
<polygon fill="white" stroke="black" points="0,-0.5 0,-18.5 113.275,-18.5 113.275,-0.5 0,-0.5"/>
<text text-anchor="middle" x="56.6377" y="-6.5" font-family="Helvetica,sans-Serif" font-size="10.00">src/DataRecorder.hpp</text>
</a>
</g>
</g>
<!-- Node3&#45;&gt;Node4 -->
<g id="edge2" class="edge"><title>Node3&#45;&gt;Node4</title>
<path fill="none" stroke="midnightblue" d="M148.208,-51.2834C125.69,-41.2545 94.4329,-27.3332 74.8813,-18.6253"/>
<polygon fill="midnightblue" stroke="midnightblue" points="147.005,-54.5791 157.564,-55.4504 149.853,-48.1846 147.005,-54.5791"/>
</g>
<!-- Node5 -->
<g id="node4" class="node"><title>Node5</title>
<g id="a_node4"><a xlink:href="_x2_m200_8hpp.xhtml" target="_top" xlink:title="src/X2M200.hpp">
<polygon fill="white" stroke="black" points="131.229,-0.5 131.229,-18.5 220.046,-18.5 220.046,-0.5 131.229,-0.5"/>
<text text-anchor="middle" x="175.638" y="-6.5" font-family="Helvetica,sans-Serif" font-size="10.00">src/X2M200.hpp</text>
</a>
</g>
</g>
<!-- Node3&#45;&gt;Node5 -->
<g id="edge3" class="edge"><title>Node3&#45;&gt;Node5</title>
<path fill="none" stroke="midnightblue" d="M175.638,-45.1746C175.638,-36.0945 175.638,-25.5949 175.638,-18.5496"/>
<polygon fill="midnightblue" stroke="midnightblue" points="172.138,-45.2187 175.638,-55.2188 179.138,-45.2188 172.138,-45.2187"/>
</g>
<!-- Node6 -->
<g id="node5" class="node"><title>Node6</title>
<g id="a_node5"><a xlink:href="_x_e_p_8hpp.xhtml" target="_top" xlink:title="src/XEP.hpp">
<polygon fill="white" stroke="black" points="238.492,-0.5 238.492,-18.5 308.784,-18.5 308.784,-0.5 238.492,-0.5"/>
<text text-anchor="middle" x="273.638" y="-6.5" font-family="Helvetica,sans-Serif" font-size="10.00">src/XEP.hpp</text>
</a>
</g>
</g>
<!-- Node3&#45;&gt;Node6 -->
<g id="edge4" class="edge"><title>Node3&#45;&gt;Node6</title>
<path fill="none" stroke="midnightblue" d="M199.485,-50.603C217.92,-40.6328 242.873,-27.1379 258.614,-18.6253"/>
<polygon fill="midnightblue" stroke="midnightblue" points="197.653,-47.6147 190.522,-55.4504 200.983,-53.772 197.653,-47.6147"/>
</g>
</g>
</svg>
