<?xml version="1.0" encoding="UTF-8" standalone="no"?>
<!DOCTYPE svg PUBLIC "-//W3C//DTD SVG 1.1//EN"
 "http://www.w3.org/Graphics/SVG/1.1/DTD/svg11.dtd">
<!-- Generated by graphviz version 2.38.0 (20140413.2041)
 -->
<!-- Title: src/X4M300.hpp Pages: 1 -->
<svg width="628pt" height="192pt"
 viewBox="0.00 0.00 628.20 192.00" xmlns="http://www.w3.org/2000/svg" xmlns:xlink="http://www.w3.org/1999/xlink">
<g id="graph0" class="graph" transform="scale(1 1) rotate(0) translate(4 188)">
<title>src/X4M300.hpp</title>
<polygon fill="white" stroke="none" points="-4,4 -4,-188 624.204,-188 624.204,4 -4,4"/>
<!-- Node0 -->
<g id="node1" class="node"><title>Node0</title>
<polygon fill="#bfbfbf" stroke="black" points="260.739,-165.5 260.739,-183.5 349.556,-183.5 349.556,-165.5 260.739,-165.5"/>
<text text-anchor="middle" x="305.147" y="-171.5" font-family="Helvetica,sans-Serif" font-size="10.00">src/X4M300.hpp</text>
</g>
<!-- Node1 -->
<g id="node2" class="node"><title>Node1</title>
<polygon fill="white" stroke="#bfbfbf" points="0,-110.5 0,-128.5 118.295,-128.5 118.295,-110.5 0,-110.5"/>
<text text-anchor="middle" x="59.1475" y="-116.5" font-family="Helvetica,sans-Serif" font-size="10.00">NotSupportedData.hpp</text>
</g>
<!-- Node0&#45;&gt;Node1 -->
<g id="edge1" class="edge"><title>Node0&#45;&gt;Node1</title>
<path fill="none" stroke="midnightblue" d="M267.785,-165.45C224.584,-156.143 153.401,-140.807 106.394,-130.679"/>
<polygon fill="midnightblue" stroke="midnightblue" points="106.97,-127.223 96.4573,-128.538 105.496,-134.066 106.97,-127.223"/>
</g>
<!-- Node2 -->
<g id="node3" class="node"><title>Node2</title>
<g id="a_node3"><a xlink:href="_data_8hpp.xhtml" target="_top" xlink:title="Data.hpp">
<polygon fill="white" stroke="black" points="173.854,-110.5 173.854,-128.5 230.44,-128.5 230.44,-110.5 173.854,-110.5"/>
<text text-anchor="middle" x="202.147" y="-116.5" font-family="Helvetica,sans-Serif" font-size="10.00">Data.hpp</text>
</a>
</g>
</g>
<!-- Node0&#45;&gt;Node2 -->
<g id="edge2" class="edge"><title>Node0&#45;&gt;Node2</title>
<path fill="none" stroke="midnightblue" d="M289.504,-165.45C272.867,-156.89 246.319,-143.229 226.852,-133.212"/>
<polygon fill="midnightblue" stroke="midnightblue" points="228.431,-130.089 217.938,-128.625 225.229,-136.313 228.431,-130.089"/>
</g>
<!-- Node3 -->
<g id="node4" class="node"><title>Node3</title>
<polygon fill="white" stroke="#bfbfbf" points="89.9111,-55.5 89.9111,-73.5 150.384,-73.5 150.384,-55.5 89.9111,-55.5"/>
<text text-anchor="middle" x="120.147" y="-61.5" font-family="Helvetica,sans-Serif" font-size="10.00">Bytes.hpp</text>
</g>
<!-- Node0&#45;&gt;Node3 -->
<g id="edge7" class="edge"><title>Node0&#45;&gt;Node3</title>
<path fill="none" stroke="midnightblue" d="M260.484,-166.889C231.192,-160.826 193.256,-149.538 165.147,-129 148.819,-117.069 136.201,-97.3832 128.537,-83.0888"/>
<polygon fill="midnightblue" stroke="midnightblue" points="131.486,-81.1649 123.85,-73.8211 125.24,-84.3243 131.486,-81.1649"/>
</g>
<!-- Node4 -->
<g id="node5" class="node"><title>Node4</title>
<polygon fill="white" stroke="#bfbfbf" points="253.532,-55.5 253.532,-73.5 296.763,-73.5 296.763,-55.5 253.532,-55.5"/>
<text text-anchor="middle" x="275.147" y="-61.5" font-family="Helvetica,sans-Serif" font-size="10.00">vector</text>
</g>
<!-- Node0&#45;&gt;Node4 -->
<g id="edge11" class="edge"><title>Node0&#45;&gt;Node4</title>
<path fill="none" stroke="midnightblue" d="M298.089,-165.312C291.286,-156.858 281.415,-142.967 277.147,-129 272.656,-114.302 272.462,-96.7907 273.217,-83.8839"/>
<polygon fill="midnightblue" stroke="midnightblue" points="276.737,-83.7946 274.082,-73.5378 269.761,-83.2115 276.737,-83.7946"/>
</g>
<!-- Node7 -->
<g id="node8" class="node"><title>Node7</title>
<polygon fill="white" stroke="#bfbfbf" points="286.337,-110.5 286.337,-128.5 417.958,-128.5 417.958,-110.5 286.337,-110.5"/>
<text text-anchor="middle" x="352.147" y="-116.5" font-family="Helvetica,sans-Serif" font-size="10.00">LockedRadarForward.hpp</text>
</g>
<!-- Node0&#45;&gt;Node7 -->
<g id="edge8" class="edge"><title>Node0&#45;&gt;Node7</title>
<path fill="none" stroke="midnightblue" d="M312.491,-165.219C319.36,-157.473 329.799,-145.701 338.243,-136.18"/>
<polygon fill="midnightblue" stroke="midnightblue" points="340.993,-138.354 345.009,-128.55 335.756,-133.709 340.993,-138.354"/>
</g>
<!-- Node8 -->
<g id="node9" class="node"><title>Node8</title>
<polygon fill="white" stroke="#bfbfbf" points="436.416,-110.5 436.416,-128.5 491.879,-128.5 491.879,-110.5 436.416,-110.5"/>
<text text-anchor="middle" x="464.147" y="-116.5" font-family="Helvetica,sans-Serif" font-size="10.00">cinttypes</text>
</g>
<!-- Node0&#45;&gt;Node8 -->
<g id="edge9" class="edge"><title>Node0&#45;&gt;Node8</title>
<path fill="none" stroke="midnightblue" d="M329.296,-165.45C356.224,-156.475 399.971,-141.892 430.304,-131.781"/>
<polygon fill="midnightblue" stroke="midnightblue" points="431.653,-135.021 440.033,-128.538 429.439,-128.38 431.653,-135.021"/>
</g>
<!-- Node9 -->
<g id="node10" class="node"><title>Node9</title>
<polygon fill="white" stroke="#bfbfbf" points="509.921,-110.5 509.921,-128.5 550.374,-128.5 550.374,-110.5 509.921,-110.5"/>
<text text-anchor="middle" x="530.147" y="-116.5" font-family="Helvetica,sans-Serif" font-size="10.00">string</text>
</g>
<!-- Node0&#45;&gt;Node9 -->
<g id="edge10" class="edge"><title>Node0&#45;&gt;Node9</title>
<path fill="none" stroke="midnightblue" d="M343.995,-165.421C381.572,-157.443 440.334,-144.535 499.95,-129.19"/>
<polygon fill="midnightblue" stroke="midnightblue" points="501.11,-132.505 509.91,-126.605 499.352,-125.729 501.11,-132.505"/>
</g>
<!-- Node10 -->
<g id="node11" class="node"><title>Node10</title>
<polygon fill="white" stroke="#bfbfbf" points="568.091,-110.5 568.091,-128.5 620.204,-128.5 620.204,-110.5 568.091,-110.5"/>
<text text-anchor="middle" x="594.147" y="-116.5" font-family="Helvetica,sans-Serif" font-size="10.00">memory</text>
</g>
<!-- Node0&#45;&gt;Node10 -->
<g id="edge12" class="edge"><title>Node0&#45;&gt;Node10</title>
<path fill="none" stroke="midnightblue" d="M349.821,-166.572C398.598,-158.809 479.226,-145.393 557.754,-129.183"/>
<polygon fill="midnightblue" stroke="midnightblue" points="558.739,-132.553 567.816,-127.088 557.312,-125.7 558.739,-132.553"/>
</g>
<!-- Node2&#45;&gt;Node3 -->
<g id="edge3" class="edge"><title>Node2&#45;&gt;Node3</title>
<path fill="none" stroke="midnightblue" d="M189.693,-110.45C176.93,-102.201 156.84,-89.2158 141.527,-79.3187"/>
<polygon fill="midnightblue" stroke="midnightblue" points="143.017,-76.1142 132.719,-73.6253 139.217,-81.9931 143.017,-76.1142"/>
</g>
<!-- Node2&#45;&gt;Node4 -->
<g id="edge4" class="edge"><title>Node2&#45;&gt;Node4</title>
<path fill="none" stroke="midnightblue" d="M213.235,-110.45C224.49,-102.279 242.145,-89.4604 255.727,-79.5996"/>
<polygon fill="midnightblue" stroke="midnightblue" points="257.92,-82.3327 263.956,-73.6253 253.808,-76.6682 257.92,-82.3327"/>
</g>
<!-- Node5 -->
<g id="node6" class="node"><title>Node5</title>
<g id="a_node6"><a xlink:href="datatypes_8h.xhtml" target="_top" xlink:title="datatypes.h">
<polygon fill="white" stroke="black" points="168.295,-55.5 168.295,-73.5 236,-73.5 236,-55.5 168.295,-55.5"/>
<text text-anchor="middle" x="202.147" y="-61.5" font-family="Helvetica,sans-Serif" font-size="10.00">datatypes.h</text>
</a>
</g>
</g>
<!-- Node2&#45;&gt;Node5 -->
<g id="edge5" class="edge"><title>Node2&#45;&gt;Node5</title>
<path fill="none" stroke="midnightblue" d="M202.147,-110.219C202.147,-103.177 202.147,-92.8083 202.147,-83.8277"/>
<polygon fill="midnightblue" stroke="midnightblue" points="205.648,-83.5495 202.147,-73.5496 198.648,-83.5496 205.648,-83.5495"/>
</g>
<!-- Node6 -->
<g id="node7" class="node"><title>Node6</title>
<polygon fill="white" stroke="#bfbfbf" points="178.027,-0.5 178.027,-18.5 226.268,-18.5 226.268,-0.5 178.027,-0.5"/>
<text text-anchor="middle" x="202.147" y="-6.5" font-family="Helvetica,sans-Serif" font-size="10.00">stdint.h</text>
</g>
<!-- Node5&#45;&gt;Node6 -->
<g id="edge6" class="edge"><title>Node5&#45;&gt;Node6</title>
<path fill="none" stroke="midnightblue" d="M202.147,-55.2188C202.147,-48.1769 202.147,-37.8083 202.147,-28.8277"/>
<polygon fill="midnightblue" stroke="midnightblue" points="205.648,-28.5495 202.147,-18.5496 198.648,-28.5496 205.648,-28.5495"/>
</g>
</g>
</svg>
